<svg xmlns="http://www.w3.org/2000/svg" viewBox="0 0 32 32"><path fill="#0391e3" d="M18.95 16.87a.5.5 0 0 0-.44.75l3.9 6.75c.19.34.68.34.86 0l3.87-6.75a.5.5 0 0 0-.44-.75h-1.2c-.34 0-.58.35-.54.7q.07.56-.14 1.04c-.32.7-1.07 1.03-2 1.03s-1.68-.34-2.01-1.03q-.22-.48-.15-1.04c.05-.35-.19-.7-.54-.7z"/><path fill="#0391e3" d="M21.63 17.15a.5.5 0 0 1 .43-.28h1.53q.32 0 .44.28.25.74.05 1.11c-.13.3-.5.56-1.26.56s-1.12-.26-1.26-.56c-.11-.24-.13-.62.06-1.1"/><path fill="#08bff2" d="M20.1 12.55a.5.5 0 0 0 .02.52c.33.41.66.58.93.61.32.03.73-.15 1.11-.8s.34-1.1.15-1.37c-.16-.23-.48-.43-1-.5a.5.5 0 0 0-.47.23z"/><path fill="#08bff2" d="M23.28 8.54a.5.5 0 0 0-.87 0l-.58 1.02c-.18.3.01.7.33.83q.53.22.83.64c.45.63.36 1.44-.1 2.25s-1.14 1.3-1.9 1.22a2 2 0 0 1-.98-.4c-.28-.2-.7-.17-.88.13l-.62 1.07a.5.5 0 0 0 .44.75h2.56a.4.4 0 0 1 .36.6c-.42.75-.45 1.29-.3 1.61.14.3.5.56 1.26.56s1.13-.26 1.27-.56c.15-.32.12-.86-.3-1.6a.4.4 0 0 1 .36-.61h2.57a.5.5 0 0 0 .43-.75z"/><path fill="url(#a)" d="M144 237.3a6.95 6.95 0 0 1-12.1 0L.9 10.5C-1.7 5.8 1.6 0 7 0h262c5.4 0 8.7 5.8 6.1 10.5l-17.9 31a5.7 5.7 0 0 0 4.9 8.5c11.8.1 18.6 3.6 21.5 7.6 2.6 3.7 3.3 9.9-2 19.1s-11 11.7-15.5 11.3c-5-.4-11.4-4.5-17.3-14.7a5.7 5.7 0 0 0-9.9 0z" transform="translate(2 7.37)scale(.07165)"/><path fill="#f70" d="m2.06 8.12 9.4 16.25a.5.5 0 0 0 .86 0l.83-1.43-9-15.57H2.5a.5.5 0 0 0-.44.75"/><path fill="#0391e3" d="M27.16 11.3a.5.5 0 0 1-.43-.75l1.16-2.02a.5.5 0 0 1 .87 0l1.17 2.02a.5.5 0 0 1-.44.75zm1.57 3.59a.5.5 0 0 1-.86 0l-1.15-2.02a.5.5 0 0 1 .44-.75h2.33a.5.5 0 0 1 .43.76z"/><defs><linearGradient id="a" x1="206.5" x2="144.9" y1=".4" y2="223.5" gradientUnits="userSpaceOnUse"><stop stop-color="#ff5343"/><stop offset="1" stop-color="#fcb000"/></linearGradient></defs></svg>