<svg viewBox="0 0 32 32" xmlns="http://www.w3.org/2000/svg"><path d="m7.61 3.093c2.078-.019 4.159 0 6.238-.008-.493 2.123-.966 4.252-1.457 6.376q-4.745 0-9.491 0c-.3 0-.6.01-.9-.012 1.864-2.124 3.749-4.23 5.61-6.356z" fill="#f2e6c9"/><path d="m18.163 3.086q3.109 0 6.22 0c1.868 2.126 3.754 4.234 5.617 6.363-1.2.025-2.4 0-3.6.011q-3.4 0-6.795 0c-.472-2.127-.976-4.246-1.442-6.374z" fill="#f2e6c9"/><path d="m13.848 3.086q2.158 0 4.315 0c.466 2.128.969 4.247 1.444 6.373-2.405 0-4.811 0-7.216 0 .491-2.122.964-4.25 1.457-6.373z" fill="#efc75e"/><path d="m2 9.448c.3.022.6.011.9.012q4.745 0 9.491 0c0 2.245 0 4.49.007 6.735a2.44 2.44 0 0 0 .256.018q3.372 0 6.743 0c.067 0 .134-.007.2-.014.019-2.247 0-4.494.009-6.741q3.4 0 6.795 0c1.2-.006 2.4.014 3.6-.011q0 9.732 0 19.466-14 0-28 0-.001-9.732-.001-19.465z" fill="#e7bf55"/><path d="m12.391 9.462h7.216c-.008 2.247.011 4.494-.009 6.741-.067.007-.134.012-.2.014q-3.372 0-6.743 0a2.44 2.44 0 0 1 -.255-.017c-.014-2.248 0-4.494-.009-6.738z" fill="#dbb551"/><path d="m4.044 22.581h9.37v3.608h-9.37z" fill="#f2f2f2"/></svg>