<svg xmlns="http://www.w3.org/2000/svg" xmlns:xlink="http://www.w3.org/1999/xlink" viewBox="0 0 32 32"><path d="M8.35932 4.31356C7.42203 4.55085 6.52034 5.08475 5.58305 5.96272C2.34407 8.98814 1.20508 13.4966 2.71186 17.3051C2.97288 17.9695 3.88644 19.4407 4.02881 19.4407C4.07627 19.4407 4.18305 19.2508 4.25424 19.0136C4.44407 18.4322 5.03729 17.7915 5.61864 17.5305C6.44915 17.1508 7.39831 17.2695 8.32373 17.8746C8.79831 18.1831 8.8339 18.3136 8.6322 18.7763L8.5017 19.061L7.89661 18.6339C6.43729 17.5898 4.90678 18.4322 4.91864 20.2712C4.93051 21.078 5.29831 22.2051 5.90339 23.2729L6.35424 24.0797L5.99831 24.9576C5.6661 25.7525 5.65424 25.8593 5.79661 26.2034C5.98644 26.6542 6.59153 26.9627 7.04237 26.8441C7.20847 26.8085 7.46949 26.6068 7.62373 26.4051L7.90847 26.0492L8.41864 26.4644C10.1153 27.8407 12.2627 28.1136 13.9119 27.1525C14.5881 26.761 15.7271 25.6458 16.4508 24.661C17.7559 22.8576 19.322 19.6898 20.2712 16.9492C20.7814 15.4661 20.8407 15.3475 21.1373 15.3119C21.6237 15.2525 21.6593 15.561 21.3034 16.5576C21.1373 17.0322 21.0542 17.4237 21.1136 17.4237C21.1847 17.4237 21.5525 17.1153 21.9203 16.7356C22.9288 15.739 23.0119 15.3831 23 12.5356C22.9881 11.278 22.9881 10.1864 22.9881 10.1153C23 9.9017 23.3441 9.81865 23.6051 9.94916C23.8186 10.0678 23.8305 10.2339 23.8305 12.6186C23.8305 14.9203 23.8068 15.217 23.5814 15.7864C23.2966 16.522 22.6559 17.3288 22.039 17.7678C21.5169 18.1237 21.4814 18.361 21.8373 18.9542C22.9051 20.7458 24.661 21.339 26.417 20.5085C27.8288 19.8441 28.9559 18.3254 29.5373 16.2966C29.917 14.9797 29.9288 12.7017 29.5492 11.3017C29.0034 9.27288 27.9712 7.56441 26.4051 6.08136C24.4 4.17119 22.6915 3.75594 20.7695 4.68136L20.1407 4.98983L20.6271 5.3339C20.9831 5.59492 21.1017 5.76102 21.078 5.95085C21.0186 6.34237 20.6153 6.33051 19.9983 5.91526C19.2508 5.41695 18.1237 5.01356 16.9729 4.84746C15.3119 4.59831 13.5203 4.98983 12.0847 5.91526C11.4678 6.30678 11.2305 6.35424 11.0288 6.10509C10.839 5.87966 11.0169 5.54746 11.4203 5.32204C11.5864 5.23899 11.7288 5.12034 11.7288 5.07288C11.7288 4.88305 10.2339 4.25424 9.65254 4.20678C9.32034 4.17119 8.75085 4.21865 8.35932 4.31356ZM13.9119 9.34407C14.6831 9.67627 15.3949 10.3881 15.7864 11.1949C16.2492 12.1678 16.261 13.5322 15.822 14.4102C14.9559 16.1542 13.022 16.9847 11.1831 16.4034C10.2339 16.1068 9.14237 15.0508 8.81017 14.1017C8.09831 12.0017 9.26102 9.74746 11.3729 9.15424C12.061 8.95255 13.2475 9.04746 13.9119 9.34407ZM12.4051 18.7881C12.4288 18.7881 12.2508 19.3339 12.0136 19.9864C11.7881 20.6271 11.5034 21.4458 11.3847 21.7898L11.1712 22.4068L11.7169 22.8458C12.6068 23.5458 12.678 23.6881 12.3695 23.9966C12.1203 24.2576 12.0847 24.2339 9.30848 22.0271C7.29153 20.4136 6.92373 20.0814 6.92373 19.8085C6.92373 19.3102 7.35085 19.3458 7.95593 19.8797C8.79831 20.639 9.67627 21.339 9.78305 21.339C9.87797 21.339 10.1034 20.8525 10.839 19.061L11.0169 18.622L11.6932 18.6932C12.0729 18.7288 12.3932 18.7763 12.4051 18.7881Z" fill="#516CB3"/><path d="M11.6932 10.9458C10.8627 11.2542 10.4237 11.8949 10.4237 12.7966C10.4237 13.7576 11.0881 14.5525 12.0492 14.7542C13.3068 15.0153 14.5525 13.7102 14.2915 12.417C14.0542 11.2542 12.7966 10.5424 11.6932 10.9458Z" fill="#516CB3"/></svg>