<svg xmlns="http://www.w3.org/2000/svg" viewBox="0 0 32 32"><title>file_type_renovate</title><circle cx="16" cy="16" r="14" fill="#007fa0"/><path d="M21.052 21.433l-2.889-2.889a1.293 1.293 0 010-1.829l4.28-4.28a.375.375 0 000-.53l-1.577-1.577a.374.374 0 00-.53 0l-.963.963-.65-.649.963-.963a1.293 1.293 0 011.829 0l1.577 1.577a1.3 1.3 0 010 1.829l-4.28 4.279a.377.377 0 000 .53l2.89 2.889z" fill="#fff"/><path d="M24.738 23.879l-.59.59a.833.833 0 01-1.179 0l-3.538-3.538a.833.833 0 010-1.179l.59-.59a.835.835 0 011.179 0l3.538 3.538a.835.835 0 010 1.179z" fill="#007fa0"/><path fill="#fff" d="M8.15 16.019l1.36-1.36 1.359 1.36-1.36 1.359z"/><path d="M18.679 9.566l1.769 1.769a.833.833 0 010 1.179l-7.665 7.666a.835.835 0 01-1.179 0l-1.769-1.769a.834.834 0 010-1.18L17.5 9.566a.835.835 0 011.179 0zM9.51 14.66l1.359-1.36 1.359 1.36-1.36 1.359z" fill="#3cb6b0"/><path fill="#fff" d="M10.85 13.32l1.36-1.358 1.359 1.359-1.36 1.359z"/><path fill="#3cb6b0" d="M12.21 11.96l1.359-1.359 1.359 1.36-1.36 1.358z"/><path fill="#fff" d="M14.928 9.242l1.359-1.359 1.359 1.36-1.36 1.358z"/><path fill="#3cb6b0" d="M6.791 14.66l1.36-1.359 1.358 1.36-1.359 1.358zM9.491 11.96l1.36-1.36 1.358 1.36-1.359 1.359zM12.21 9.241l1.359-1.359 1.359 1.36-1.36 1.358z"/><path fill="#3cb6b0" d="M13.568 7.882l1.36-1.36 1.358 1.36-1.359 1.359zM8.132 10.6l1.36-1.358L10.85 10.6 9.491 11.96z"/><path fill="#3cb6b0" d="M12.21 6.523l1.36-1.36 1.358 1.36-1.359 1.359zM4.073 11.942l1.359-1.36 1.359 1.36L5.43 13.3zM8.132 7.882L9.49 6.523l1.359 1.36L9.49 9.24z"/><path d="M12.194 20.791a1.194 1.194 0 01-.85-.352L9.575 18.67a1.2 1.2 0 010-1.7l7.665-7.664a1.2 1.2 0 011.7 0l1.769 1.769a1.2 1.2 0 010 1.7l-7.665 7.665a1.194 1.194 0 01-.85.351zm5.9-11.1a.463.463 0 00-.33.136L10.1 17.491a.466.466 0 000 .66l1.769 1.769a.467.467 0 00.659 0l7.666-7.665a.468.468 0 000-.66L18.42 9.826a.464.464 0 00-.33-.136z" fill="#007fa0"/><path d="M23.559 25.081a1.194 1.194 0 01-.85-.352l-3.538-3.538a1.2 1.2 0 010-1.7l.59-.589a1.2 1.2 0 011.7 0L25 22.44a1.2 1.2 0 010 1.7l-.59.59a1.194 1.194 0 01-.851.351zm-2.949-5.795a.462.462 0 00-.329.136l-.59.59a.467.467 0 000 .66l3.538 3.537a.465.465 0 00.659 0l.59-.589a.467.467 0 000-.66l-3.538-3.538a.464.464 0 00-.33-.136z" fill="#fff"/></svg>