<svg xmlns="http://www.w3.org/2000/svg" xmlns:xlink="http://www.w3.org/1999/xlink" viewBox="0 0 32 32"><defs><clipPath id="clip-path"><rect x="6.64" y="7.38" width="18.55" height="6.48" style="fill:none"/></clipPath><clipPath id="clip-path-2"><rect x="6.91" y="6.91" width="3.65" height="1.77" style="fill:none"/></clipPath><clipPath id="clip-path-3"><rect x="21.79" y="7.85" width="2.78" height="1.88" style="fill:none"/></clipPath><clipPath id="clip-path-4"><rect x="23.16" y="20.68" width="2.57" height="2.99" style="fill:none"/></clipPath><clipPath id="clip-path-5"><rect x="24.22" y="19.18" width="0.85" height="0.7" style="fill:none"/></clipPath><clipPath id="clip-path-6"><rect x="25.61" y="19" width="0.84" height="0.79" style="fill:none"/></clipPath><clipPath id="clip-path-7"><rect x="24.36" y="20.29" width="1.73" height="0.94" style="fill:none"/></clipPath><clipPath id="clip-path-8"><rect x="26.39" y="20.06" width="0.62" height="0.55" style="fill:none"/></clipPath><clipPath id="clip-path-9"><rect x="9.22" y="19.15" width="14.1" height="3.99" style="fill:none"/></clipPath><clipPath id="clip-path-10"><rect x="21.74" y="4.08" width="1.97" height="4.88" style="fill:none"/></clipPath><clipPath id="clip-path-11"><rect x="6.21" y="4.81" width="4.84" height="3.46" style="fill:none"/></clipPath><clipPath id="clip-path-12"><rect x="21.8" y="3.79" width="2.87" height="4.84" style="fill:none"/></clipPath><clipPath id="clip-path-13"><rect x="8.74" y="6.24" width="12.83" height="12.24" style="fill:none"/></clipPath><clipPath id="clip-path-14"><rect x="14.95" y="12.22" width="1.43" height="0.6" style="fill:none"/></clipPath><clipPath id="clip-path-15"><rect x="14.89" y="11.56" width="1.59" height="1.08" style="fill:none"/></clipPath><clipPath id="clip-path-16"><rect x="10.1" y="12.84" width="12.35" height="7.01" style="fill:none"/></clipPath><clipPath id="clip-path-17"><rect x="10.74" y="12.95" width="10.24" height="5.2" style="fill:none"/></clipPath><clipPath id="clip-path-18"><rect x="10.85" y="13.06" width="10.02" height="5.09" style="fill:none"/></clipPath><clipPath id="clip-path-19"><rect x="10.96" y="13.17" width="9.8" height="4.97" style="fill:none"/></clipPath><clipPath id="clip-path-20"><rect x="13.27" y="15.52" width="5.49" height="2.26" style="fill:none"/></clipPath><clipPath id="clip-path-21"><rect x="14" y="14.26" width="3.29" height="2.54" style="fill:none"/></clipPath><clipPath id="clip-path-22"><rect x="14.01" y="14.22" width="3.25" height="1.13" style="fill:none"/></clipPath><clipPath id="clip-path-23"><rect x="15.56" y="14.91" width="0.6" height="1.61" style="fill:none"/></clipPath><clipPath id="clip-path-24"><rect x="6.27" y="4.81" width="4.31" height="3.91" style="fill:none"/></clipPath><clipPath id="clip-path-25"><rect x="8.54" y="8.88" width="14.63" height="4.65" style="fill:none"/></clipPath><clipPath id="clip-path-26"><rect x="7.36" y="7.5" width="17.21" height="5.81" style="fill:none"/></clipPath><clipPath id="clip-path-27"><rect x="9.03" y="8.3" width="5.53" height="3.74" style="fill:none"/></clipPath><clipPath id="clip-path-28"><rect x="17.29" y="8.81" width="5.48" height="3.83" style="fill:none"/></clipPath><clipPath id="clip-path-29"><rect x="7.36" y="8.1" width="17.1" height="5.03" style="fill:none"/></clipPath><clipPath id="clip-path-30"><rect x="7.63" y="7.62" width="2.21" height="0.33" style="fill:none"/></clipPath><clipPath id="clip-path-31"><rect x="14.75" y="8.16" width="2.37" height="0.58" style="fill:none"/></clipPath><clipPath id="clip-path-32"><rect x="22.49" y="8.58" width="1.35" height="0.43" style="fill:none"/></clipPath><clipPath id="clip-path-33"><rect x="8.8" y="8.23" width="3.16" height="3.13" style="fill:none"/></clipPath><clipPath id="clip-path-34"><rect x="20.05" y="8.78" width="3.04" height="3.34" style="fill:none"/></clipPath><clipPath id="clip-path-35"><rect x="9.19" y="8.45" width="5.23" height="3.01" style="fill:none"/></clipPath><clipPath id="clip-path-36"><rect x="9.3" y="10.44" width="3.85" height="1.52" style="fill:none"/></clipPath><clipPath id="clip-path-37"><rect x="17.44" y="8.97" width="5.22" height="2.79" style="fill:none"/></clipPath><clipPath id="clip-path-38"><rect x="18.42" y="11.25" width="3.97" height="1.28" style="fill:none"/></clipPath><clipPath id="clip-path-39"><rect x="11.54" y="9.59" width="0.22" height="0.22" style="fill:none"/></clipPath><clipPath id="clip-path-40"><rect x="20.18" y="10.11" width="0.22" height="0.22" style="fill:none"/></clipPath><clipPath id="clip-path-41"><rect x="7.68" y="7.83" width="7.09" height="1.04" style="fill:none"/></clipPath><clipPath id="clip-path-42"><rect x="17.06" y="8.18" width="5.24" height="1.01" style="fill:none"/></clipPath></defs><title>file_type_ember@2x</title><g id="ember"><path d="M8.32,23.17,8.39,23v0l.16-.4.2-.54a2.83,2.83,0,0,0,.11-.31c.09-.24.21-.56.35-.86a3.46,3.46,0,0,1,.23-.44l.27-.4.08-.11.12-.08.05,0c.05,0,.12,0,.16-.08l.28-.1c.15,0,.33-.09.54-.13s.63-.13,1.05-.2c.62-.1,1.29-.19,2.09-.27,1.41-.15,2.82-.26,4.18-.33.72,0,1.27,0,1.78,0h.33a8.23,8.23,0,0,1,1.09.08,1.42,1.42,0,0,1,.34.08l.08,0,.11,0,.09.08.1.1a4.28,4.28,0,0,1,.38.43,9.16,9.16,0,0,1,1.12,1.88,8.39,8.39,0,0,1,.63,1.94l.16.86h-2l-.12-.58a6.51,6.51,0,0,0-2.6-2.55,5.24,5.24,0,0,0-1.52-.13,43.57,43.57,0,0,0-5.83.49,5.4,5.4,0,0,0-1.83,2.35l-.2.43" style="fill:#fff"/><path d="M22,20a2.82,2.82,0,0,0-.33-.36l-.08-.08h0a1,1,0,0,0-.21,0c-.32,0-.66,0-1-.07-.69,0-1.38,0-2.07,0-1.38.07-2.77.18-4.14.33-.69.08-1.38.16-2.06.27-.34,0-.68.11-1,.19-.16,0-.33.08-.48.12a.83.83,0,0,0-.22.08s-.07,0-.08,0h0l-.23.34c-.08.12-.13.25-.2.38s-.23.54-.33.81l-.31.84c-.05.14-.11.28-.18.43a.88.88,0,0,1-.09.2h.93a5.81,5.81,0,0,1,2.24-2.74,42.35,42.35,0,0,1,6.07-.53,5.79,5.79,0,0,1,1.78.19c1,.37,2.86,2.13,3,3.09h.54A8.07,8.07,0,0,0,23,21.75,6,6,0,0,0,22,20" style="fill:#ba8449"/><path d="M23,24.19l-.11-.59a7.11,7.11,0,0,0-.53-1.6,7.41,7.41,0,0,0-.94-1.58,2.36,2.36,0,0,0-.2-.23,8.33,8.33,0,0,0-.88,0H20c-.49,0-1,0-1.72,0-1.33.07-2.7.18-4.09.33-.78.09-1.42.18-2,.26-.38,0-.69.12-1,.18l-.43.11h0a.83.83,0,0,1-.08.12c-.05.09-.1.19-.18.32s-.22.51-.31.74-.08.2-.11.3-.13.37-.21.56-.12.28-.18.44v0a1.08,1.08,0,0,1-.08.19l-.2.44H8.18L8,24.11H8a.78.78,0,0,1-.43-.78v0l0-.1,0-.12a2.17,2.17,0,0,1,.07-.24c0-.16.1-.32.15-.47s.22-.59.36-.92a9.62,9.62,0,0,1,.46-.91c.08-.14.16-.28.27-.45s.21-.31.32-.45a1.3,1.3,0,0,1,.25-.24h0l.16-.1.23-.11.35-.12a5.24,5.24,0,0,1,.58-.14c.32-.07.66-.13,1.08-.2.63-.1,1.3-.18,2.12-.26,1.42-.14,2.84-.25,4.22-.31.66,0,1.17,0,1.64,0h.5a8.53,8.53,0,0,1,1.17.09h0a3.05,3.05,0,0,1,.43.1h0l.19.08a.74.74,0,0,1,.13.08l0,0,0,0,0,0,.12.12c.14.14.27.3.42.48a10,10,0,0,1,1.17,2,10.27,10.27,0,0,1,.42,1.07,8.24,8.24,0,0,1,.27,1.09l.13.84H23Z" style="fill:#fff"/><path d="M9,24.19l.48-1A6.29,6.29,0,0,1,12,20.25h0a42.18,42.18,0,0,1,6.25-.56,5.3,5.3,0,0,1,2,.22c1.13.44,3.09,2.29,3.35,3.38l.22.9H9Z" style="fill:#fff"/><path d="M22.27,24.19l-.13-.56a6.4,6.4,0,0,0-2.46-2.37,4.76,4.76,0,0,0-1.44-.12,45.35,45.35,0,0,0-5.76.48,5.21,5.21,0,0,0-1.66,2.14l-.2.42H8.8l.46-1A6.41,6.41,0,0,1,11.9,20a39.52,39.52,0,0,1,6.35-.58,6.42,6.42,0,0,1,2,.23c1.13.44,3.24,2.34,3.5,3.61l.18.88Z" style="fill:#fff"/><path d="M23.12,24.19l-.21-.2a3.22,3.22,0,0,1-.77-2.88.83.83,0,0,1,.78-.56.71.71,0,0,1,.21,0,1.23,1.23,0,0,0,.57-.44.9.9,0,0,1,.81-.46,2.63,2.63,0,0,1,1.7.83.8.8,0,0,1,.12.74s0,.07,0,.12a16.22,16.22,0,0,1-1,2.47l-.21.34S23.12,24.19,23.12,24.19Z" style="fill:#fff"/><path d="M23,24.19l.68-1.11a11.56,11.56,0,0,0,.71-1.31,3.18,3.18,0,0,1-1.72.48l0,0v.08a.9.9,0,0,1-.88-.85.91.91,0,0,1,.23-.63.85.85,0,0,1,.6-.28c.79,0,.89-.22,1-.49a1.26,1.26,0,0,1,1.18-.59,2,2,0,0,1,.42,0,1.43,1.43,0,0,1,1.17,1.36,6.17,6.17,0,0,1-1.12,3l-.21.35S23,24.19,23,24.19Z" style="fill:#fff"/><path d="M25.93,22a3.42,3.42,0,0,1-2.34-1.15,1.56,1.56,0,0,1-.45-1.27.85.85,0,0,1,.89-.72l.28,0c.09-.39.3-1.21,1.14-1.21h.12a1,1,0,0,1,.83.68,1,1,0,0,1,.46-.12,1,1,0,0,1,.7.31,1,1,0,0,1,.18,1.17.94.94,0,0,1,.42.55,1,1,0,0,1-.16.9A2.62,2.62,0,0,1,26,22a.19.19,0,0,1-.1,0" style="fill:#fff"/><path d="M25,4A12,12,0,0,0,22.3,7.24a.86.86,0,0,1-.74.38,2.62,2.62,0,0,1-1.48-.71c-.92-.74-.94-1.16-1-1.32a.82.82,0,0,1,.77-.85,4.8,4.8,0,0,0,2.33-1.13,3.86,3.86,0,0,1,2.16-1,2.5,2.5,0,0,1,.47,0" style="fill:#fff"/><path d="M20,5.47c2.14-.2,3.4-2.42,4.71-2.08a11.82,11.82,0,0,0-3,3.44c-.31.42-2.36-1.31-1.76-1.36" style="fill:#fff8ee"/><path d="M6.07,4.45a3.08,3.08,0,0,1,2.14-.74,8.08,8.08,0,0,1,2.69.56,2.81,2.81,0,0,0,.91.12h.41a1,1,0,0,1,1,.49,1,1,0,0,1-.12,1A2.91,2.91,0,0,1,10.89,7h0a3.38,3.38,0,0,1-1.49-.57A4.8,4.8,0,0,0,7,5.68l-.37,0" style="fill:#fff"/><path d="M22.57,9.76A1.75,1.75,0,0,1,21,8.48a4.43,4.43,0,0,1-.35-1.63c0-.77.4-1,.66-1a9.67,9.67,0,0,0,.74-1c1-1.36,1.72-2.24,2.56-2.24a.92.92,0,0,1,.4.08,2.27,2.27,0,0,1,1.49,2.6,6.21,6.21,0,0,1-1.51,2.9c-.38.45-1.38,1.5-2.26,1.56h-.12" style="fill:#fff"/><path d="M9.64,10.17a1.23,1.23,0,0,1-.28,0A5.92,5.92,0,0,1,5.55,7,2.09,2.09,0,0,1,5.55,5,2,2,0,0,1,7.3,4a5.74,5.74,0,0,1,2.58.92,7.52,7.52,0,0,0,.93.45.71.71,0,0,1,.21,0,.8.8,0,0,1,.7.42,4.41,4.41,0,0,1-.43,3.33A1.89,1.89,0,0,1,9.64,10.17Z" style="fill:#fff"/><path d="M14.52,22.38A11.94,11.94,0,0,1,6.9,19.6a4.47,4.47,0,0,1-1.23-4.1,10.94,10.94,0,0,1,1.55-3.33,7.55,7.55,0,0,0,.92-1.77c1.33-5.9,4.68-6.65,7.45-6.65h.57c5.9.18,6.49,3,6.84,4.73a5.81,5.81,0,0,0,.21.81c2,4.86,2.31,7.77,1.09,9.74s-3.81,2.89-9,3.32Z" style="fill:#fff"/><path d="M14.4,22.39A11.44,11.44,0,0,1,6.92,19.6a4.47,4.47,0,0,1-1.23-4.1,10.94,10.94,0,0,1,1.55-3.33,7.55,7.55,0,0,0,.92-1.77c1.33-5.9,4.68-6.65,7.45-6.65h.57c5.9.18,6.49,3,6.84,4.73a5.81,5.81,0,0,0,.21.81c2,4.78,2.26,7.67,1.07,9.64-1.37,2.26-4.58,3-9,3.41-.31,0-.62,0-.92,0" style="fill:#fff"/><path d="M22.92,18.28,23,18c.45-1.07.79-2,.25-2.62s-3.32-2-5.7-3.09C13,10.1,10.21,8.71,9.81,7.34a1.3,1.3,0,0,1,.13-1c.79-1.24,3-2.56,6-2.56H16c2.83,0,4.89.84,6.13,2.42a8.25,8.25,0,0,1,1.46,4,4.3,4.3,0,0,0,.21,1c2.14,3.69,1.16,6.41.38,7.69Z" style="fill:#fff"/><path d="M20.68,14c-1.11,0-2.95-.27-3.59-.89a4.32,4.32,0,0,1-.89-2.06A6.71,6.71,0,0,0,15.87,10h0l-.14.39A5.28,5.28,0,0,1,14.14,13a6.68,6.68,0,0,1-2.76.51A3.52,3.52,0,0,1,9,12.82a6.17,6.17,0,0,1-1.7-3.46l-.05,0a1.32,1.32,0,0,1-.53-.52,1.84,1.84,0,0,1,.09-1.47.9.9,0,0,1,.7-.47h.1a2.8,2.8,0,0,1,.48,0A3.43,3.43,0,0,0,8.68,7h.1a20.39,20.39,0,0,1,2.9-.22,9.5,9.5,0,0,1,3.72.61l.09,0a2.53,2.53,0,0,0,.59.08,1,1,0,0,0,.25,0,18.16,18.16,0,0,1,2.76-.22,9.24,9.24,0,0,1,4,.74.34.34,0,0,0,.12,0h0a2.85,2.85,0,0,0,.53-.08l.38-.08h.1a1,1,0,0,1,.83.53,1.85,1.85,0,0,1,0,1.64,1.63,1.63,0,0,1-.78.57l-.11,0c-.09.15-.24.46-.37.71a12.62,12.62,0,0,1-1.2,2.06,2.52,2.52,0,0,1-2,.6" style="fill:#fff"/><g style="clip-path:url(#clip-path)"><g style="opacity:0.30000001192092896"><path d="M20.24,13.86a5.35,5.35,0,0,1-3-.76c-.5-.36-.73-1.08-1-2.24a9.61,9.61,0,0,0-.32-1l-.18.45a5.08,5.08,0,0,1-1.6,2.59,7.26,7.26,0,0,1-2.78.5,3.19,3.19,0,0,1-2.36-.73A5.73,5.73,0,0,1,7.41,9.56a2.37,2.37,0,0,0-.07-.31,1.18,1.18,0,0,1-.72-1.13.77.77,0,0,1,.77-.74A1,1,0,0,1,8,7.6a.05.05,0,0,0,0,0l0,0a1,1,0,0,1,.8.86A11.74,11.74,0,0,0,9.34,10c.45,1.17.77,1.37.8,1.38a3.94,3.94,0,0,0,1.3.2,6.38,6.38,0,0,0,1.76-.26c.16-.25.49-.91.72-1.36.69-1.37.81-1.58,1.11-1.73a1.23,1.23,0,0,1,.61-.13,3,3,0,0,1,1,.18c.5.22.77.88,1.36,2.57.11.31.24.7.33.9a7,7,0,0,0,2.47.35l.66,0,.36-.75c.83-1.77,1-2,1.17-2.14a2.73,2.73,0,0,1,1.36-.46.8.8,0,0,1,.81.62c.12.63-.5.88-.71,1l-.19.08c-.08.13-.22.42-.33.65-.9,1.75-1.19,2.23-1.53,2.44a5.76,5.76,0,0,1-2.18.34" style="fill:#fff"/></g></g><g style="clip-path:url(#clip-path-2)"><g style="opacity:0.30000001192092896"><path d="M8.71,8.67a2.84,2.84,0,0,1-.89-.19l-.33-.12a.8.8,0,0,1-.59-.73V6.9h.72a1.06,1.06,0,0,1,.22,0L8.65,7h.1a6.71,6.71,0,0,0,.71-.08l.37,0h.62l.1.61a.74.74,0,0,1-.53.81l-.16,0a3.81,3.81,0,0,1-1.09.28.06.06,0,0,1-.06,0" style="fill:#fff"/></g></g><g style="clip-path:url(#clip-path-3)"><g style="opacity:0.30000001192092896"><path d="M23.16,9.72a1.43,1.43,0,0,1-.81-.33,1,1,0,0,1-.56-.82V7.84h.71a.66.66,0,0,1,.3.07c.08,0,.37.13.5.16l.31,0a.86.86,0,0,1,.22,0h.62l.1.61a.73.73,0,0,1-.49.81l-.13.07a2.5,2.5,0,0,1-.66.25s-.07,0-.11,0" style="fill:#fff"/></g></g><path d="M20.78,25.8H18.09V23.47h2.69Z" style="fill:#fff"/><path d="M22,20a2.82,2.82,0,0,0-.33-.36l-.08-.08h0a1,1,0,0,0-.21,0c-.32,0-.66,0-1-.07-.69,0-1.38,0-2.07,0-1.38.07-2.77.18-4.14.33-.69.08-1.38.16-2.06.27-.34,0-.68.11-1,.19-.16,0-.33.08-.48.12a.83.83,0,0,0-.22.08s-.07,0-.08,0h0l-.23.34c-.08.12-.13.25-.2.38s-.23.54-.33.81l-.31.84c-.05.14-.11.28-.18.43a.88.88,0,0,1-.09.2h.93a5.81,5.81,0,0,1,2.24-2.74,42.35,42.35,0,0,1,6.07-.53,5.79,5.79,0,0,1,1.78.19c1,.37,2.86,2.13,3,3.09h.54A8.07,8.07,0,0,0,23,21.75,6,6,0,0,0,22,20" style="fill:#ba8449"/><path d="M23.53,21.47a8.78,8.78,0,0,0-1.08-1.85q-.17-.21-.36-.42l-.1-.1,0,0h0l0,0,0,0-.1,0-.31-.08a10,10,0,0,0-1.07-.08c-.71,0-1.4,0-2.1,0-1.4,0-2.79.16-4.18.31-.69.08-1.39.15-2.09.26-.35,0-.69.11-1,.19l-.53.13a1,1,0,0,0-.27.1.74.74,0,0,0-.15.08L10,20a.29.29,0,0,0-.11.11,3.48,3.48,0,0,0-.28.39,4.23,4.23,0,0,0-.25.42c-.15.27-.3.56-.43.84s-.24.57-.34.86a2.83,2.83,0,0,0-.13.44,1.87,1.87,0,0,1-.07.22l0,.12v0l.07,0H9a1.76,1.76,0,0,1,.09-.2c.05-.14.12-.28.18-.42s.21-.56.31-.84a7.85,7.85,0,0,1,.32-.8l.2-.38a4,4,0,0,1,.23-.34h0l.08,0,.22-.08c.15,0,.32-.09.48-.12.33-.08.67-.13,1-.19.68-.11,1.37-.2,2.06-.27q2.07-.23,4.14-.33c.69,0,1.38,0,2.07,0a8,8,0,0,1,1,.07l.21,0h0l.08.08c.12.12.22.24.33.36a9.3,9.3,0,0,1,1,1.73,8.07,8.07,0,0,1,.58,1.76h.55a6.1,6.1,0,0,0-.24-1c-.16-.35-.29-.68-.44-1" style="fill:#895b2e"/><path d="M19.94,20.59a5.49,5.49,0,0,0-1.7-.18,44.44,44.44,0,0,0-6,.51,5.54,5.54,0,0,0-2.09,2.54H22.84a6.7,6.7,0,0,0-2.9-2.87" style="fill:#fff8ee"/><path d="M20,20.38a5.79,5.79,0,0,0-1.78-.19,42.35,42.35,0,0,0-6.07.53,5.75,5.75,0,0,0-2.24,2.74h.24a5.7,5.7,0,0,1,2.09-2.54,42.59,42.59,0,0,1,6-.51,5,5,0,0,1,1.7.18,6.8,6.8,0,0,1,2.91,2.88h.22c-.2-1-2.11-2.72-3.06-3.09" style="fill:#e5d0ae"/><path d="M24.35,20.48c-.13.27-.82,1-1.4.81-.31-.09-.25,1.53.45,2.18h1.27a17.25,17.25,0,0,0,1-2.44c.08-.21-1.15-.83-1.28-.55" style="fill:#ba8449"/><path d="M25.7,20.88a.72.72,0,0,0-.6-.69c-.3-.07-.69,0-.79.18-.2.37-.44.82-1.63.89a.15.15,0,0,0-.14.15.16.16,0,0,0,.15.14,1.85,1.85,0,0,0,1.87-1,.81.81,0,0,1,.59,0,.4.4,0,0,1,.26.38,6.54,6.54,0,0,1-1.06,2.57h.34a6.28,6.28,0,0,0,1-2.59" style="fill:#895b2e"/><g style="clip-path:url(#clip-path-4)"><g style="opacity:0.15000000596046448"><path d="M23.24,23.5a2.14,2.14,0,0,0,1.52-2.07c0-.21-.42-.6-.42-.71s1.3,0,1.37.33a7.56,7.56,0,0,1-1.11,2.46c-.27.29-1.82.1-1.36,0" style="fill:#e3ab5e"/></g></g><path d="M23.85,19.72c-.1.68,1.23,1.61,2.12,1.59.74,0,1.59-.37,1.47-.79s-.84.08-.91-.22.84-.82.48-1.21-.73.57-1.13.44.08-1-.42-1.09-.36,1.24-.8,1.26-.78-.2-.81,0" style="fill:#fcd4c3"/><path d="M23.85,19.72c-.1.68,1.23,1.61,2.12,1.59.74,0,1.59-.37,1.47-.79s-.84.08-.91-.22.84-.82.48-1.21-.73.57-1.13.44.08-1-.42-1.09-.36,1.24-.8,1.26S23.88,19.5,23.85,19.72Z" style="fill:none;stroke:#f8a38f;stroke-miterlimit:10;stroke-width:0.25px"/><g style="clip-path:url(#clip-path-5)"><g style="opacity:0.5"><path d="M24.23,19.72c.14.11.66.25.73.07a1.08,1.08,0,0,0,.1-.61c0,.18-.1.5-.28.58a1.6,1.6,0,0,1-.55,0" style="fill:#fcd4c3"/></g></g><g style="clip-path:url(#clip-path-6)"><g style="opacity:0.5"><path d="M25.64,19c0,.12-.12.69.18.77s.44-.09.63-.4c-.11.1-.38.34-.59.25s-.23-.32-.22-.62" style="fill:#fcd4c3"/></g></g><g style="clip-path:url(#clip-path-7)"><g style="opacity:0.25"><path d="M24.37,20.53c1.49-.73,1.79.46,1.72.7a2.6,2.6,0,0,1-1.72-.7" style="fill:#fcd4c3"/></g></g><g style="clip-path:url(#clip-path-8)"><g style="opacity:0.5"><path d="M26.54,20.06c-.25.28-.13.51,0,.55a.54.54,0,0,0,.44-.18s-.46.13-.54-.07a.32.32,0,0,1,.07-.3" style="fill:#fcd4c3"/></g></g><g style="clip-path:url(#clip-path-9)"><g style="opacity:0.15000000596046448"><path d="M9.54,22c4.78,2.75,14.27,0,13.77-.94-.67-1.19-.93-1.94-2.4-1.87S10.09,20,9.71,20.26,8.92,21.6,9.54,22" style="fill:#e3ab5e"/></g></g><path d="M20,5.47c2.14-.2,3.4-2.42,4.71-2.08a11.82,11.82,0,0,0-3,3.44c-.31.42-2.36-1.31-1.76-1.36" style="fill:#fff8ee"/><path d="M20,5.47c2.14-.2,3.4-2.42,4.71-2.08a11.82,11.82,0,0,0-3,3.44C21.42,7.25,19.37,5.52,20,5.47Z" style="fill:none;stroke:#e5d0ae;stroke-linecap:round;stroke-linejoin:round;stroke-width:0.25px"/><path d="M6.56,5c1-.9,2.7-.55,4.1,0,.8.28,1.84,0,1.9.22.18.38-.86,1.17-1.72,1.15S8.6,4.71,6.56,5" style="fill:#ba8449"/><path d="M6.56,5c1-.9,2.7-.55,4.1,0,.8.28,1.84,0,1.9.22.18.38-.86,1.17-1.72,1.15S8.6,4.71,6.56,5Z" style="fill:none;stroke:#895b2e;stroke-linecap:round;stroke-linejoin:round;stroke-width:0.25px"/><path d="M21.43,6.53c.49.14,2.36-3.52,3.27-3.16,2.89,1.15-.88,5.57-2.07,5.67s-1.47-2.6-1.2-2.51" style="fill:#fcd4c3"/><path d="M21.43,6.53c.49.14,2.36-3.52,3.27-3.16,2.89,1.15-.88,5.57-2.07,5.67S21.16,6.44,21.43,6.53Z" style="fill:none;stroke:#f8a38f;stroke-miterlimit:10;stroke-width:0.25px"/><path d="M11,6.09c-.8.35-3.63-2.62-4.83-.71-.79,1.26,1.6,3.8,3.3,4.07S11.41,5.9,11,6.09" style="fill:#fcd4c3"/><path d="M11,6.09c-.8.35-3.63-2.62-4.83-.71-.79,1.26,1.6,3.8,3.3,4.07S11.41,5.9,11,6.09Z" style="fill:none;stroke:#f8a38f;stroke-miterlimit:10;stroke-width:0.25px"/><g style="clip-path:url(#clip-path-10)"><path d="M23.66,4.08c-.15.5-1.44,1.81-1.27,2.92.07.42.5,1.64.69,1.6s.66-.34.61-.27A5.67,5.67,0,0,1,22.8,9a7.31,7.31,0,0,1-1.06-2.51c.43-.38,1.73-2.35,1.92-2.37" style="fill:#fcd4c3"/></g><g style="clip-path:url(#clip-path-11)"><path d="M6.2,5.46a3.06,3.06,0,0,1,3.4.6,1.73,1.73,0,0,1-.32,2.17C9,8.53,11,7.18,11,6.79a.53.53,0,0,0-.44-.61C9.47,5.76,8.29,4.8,7.26,4.82a1.2,1.2,0,0,0-1.06.64" style="fill:#fcd4c3"/></g><g style="clip-path:url(#clip-path-12)"><g style="opacity:0.25"><path d="M24,3.79c2,1.09-1.21,2.76-1,4.83-.42,0-1.44-2-1.19-2.22S23.68,3.7,24,3.79" style="fill:#fcd4c3"/></g></g><path d="M8.65,10.51a2.22,2.22,0,0,0,.06-.44,3.26,3.26,0,0,1,.05-.45.57.57,0,0,1,.07-.22l.08-.21a3.79,3.79,0,0,1,.18-.42A8.51,8.51,0,0,1,10,7.21a8.4,8.4,0,0,1,1.17-1.35,5,5,0,0,1,1.5-1,6.47,6.47,0,0,1,1.73-.44,11.66,11.66,0,0,1,1.77-.08,15,15,0,0,1,1.77.12,8.26,8.26,0,0,1,1.75.42,6.1,6.1,0,0,1,.82.38,3.9,3.9,0,0,1,.74.56,3.38,3.38,0,0,1,.59.72,4.94,4.94,0,0,1,.39.84,6.33,6.33,0,0,1,.24.88c.06.3.11.58.18.85s.08.26.12.39a4.11,4.11,0,0,1,.15.42l.31.83a23.89,23.89,0,0,1,.93,3.41A11.55,11.55,0,0,1,24.31,16a5.75,5.75,0,0,1-.21,1.75c0,.14-.09.28-.14.42s-.13.26-.18.4a.76.76,0,0,1-.08.21,2.12,2.12,0,0,1-.12.2c-.08.12-.18.25-.27.36a4.91,4.91,0,0,1-1.4,1.12,9.15,9.15,0,0,1-1.66.67,17.51,17.51,0,0,1-1.74.4c-.59.11-1.17.19-1.75.26l-.89.1-.44,0-.45,0a11,11,0,0,1-3.56-.43,12.57,12.57,0,0,1-1.69-.6,11,11,0,0,1-1.59-.84,5.45,5.45,0,0,1-.73-.56l-.18-.16c-.05,0-.1-.12-.15-.18a4.39,4.39,0,0,1-.28-.36,4.16,4.16,0,0,1-.7-1.71,4.22,4.22,0,0,1,.16-1.84A9.08,9.08,0,0,1,7,13.6c.3-.51.61-1,.92-1.51.15-.25.3-.5.43-.75A3.59,3.59,0,0,0,8.65,10.51Zm.44.1a4.08,4.08,0,0,1-.35.86c-.14.27-.3.53-.45.78-.31.5-.62,1-.9,1.5a7.94,7.94,0,0,0-.68,1.56,3.8,3.8,0,0,0-.13,1.64,3.53,3.53,0,0,0,.65,1.5l.26.33.14.15.14.14a4.92,4.92,0,0,0,.67.51,10,10,0,0,0,1.52.81,11.7,11.7,0,0,0,1.63.58,14.08,14.08,0,0,0,1.69.35A9.8,9.8,0,0,0,15,21.4l.43,0,.44,0,.88-.09c.58,0,1.16-.13,1.73-.23s1.14-.21,1.7-.36a11.19,11.19,0,0,0,1.63-.56,5,5,0,0,0,1.42-.94,2.79,2.79,0,0,0,.28-.32l.13-.18a1.41,1.41,0,0,0,.14-.18,2,2,0,0,0,.21-.38,2.58,2.58,0,0,0,.13-.42,5.67,5.67,0,0,0,.14-1.74A10.22,10.22,0,0,0,24,14.2a24.4,24.4,0,0,0-1.11-3.32l-.33-.81-.18-.4c0-.14-.11-.3-.15-.44-.08-.3-.13-.58-.2-.86a5.49,5.49,0,0,0-.22-.82,3.47,3.47,0,0,0-.86-1.4,4.59,4.59,0,0,0-1.41-.9,7.85,7.85,0,0,0-1.66-.46,16.64,16.64,0,0,0-1.73-.19,12.78,12.78,0,0,0-1.75,0A5.82,5.82,0,0,0,12.68,5,4.63,4.63,0,0,0,11.24,6a4.71,4.71,0,0,0-1,1.38A9.2,9.2,0,0,0,9.61,9a4.26,4.26,0,0,0-.11.42c0,.07,0,.14-.05.21s0,.08,0,.11a.42.42,0,0,1,0,.1l-.2.4C9.17,10.34,9.12,10.47,9.09,10.61Z" style="fill:#e5d0ae"/><path d="M8.87,10.56c-.46,2-4.48,5.25-1.42,8.55a10.86,10.86,0,0,0,7.79,2.52c8.8-.83,11-3,7.31-12.06-.6-1.48.08-4.89-6.39-5.09-2.72-.08-6,.3-7.29,6.08" style="fill:#fff8ee"/><path d="M10.39,6.58a4,4,0,0,1,1.07-1.09,6,6,0,0,1,1.36-.69,9.47,9.47,0,0,1,3-.51,10.93,10.93,0,0,1,3,.31,6.43,6.43,0,0,1,1.43.56,5,5,0,0,1,1.25.94,5.15,5.15,0,0,1,.89,1.28,7,7,0,0,1,.51,1.46,13.3,13.3,0,0,1,.26,1.49q0,.38.12.72a1.35,1.35,0,0,0,.09.32l0,.07h0l0,0,.1.16a8.32,8.32,0,0,1,1,2.88,6,6,0,0,1,0,1.53,5.47,5.47,0,0,1-.38,1.48,7.33,7.33,0,0,1-.34.69l-.1.16-.11.16,0,0s0,.08-.18,0c0-.1,0-.08,0-.1s0,0,0-.07l0-.1,0-.18a7.83,7.83,0,0,0,.34-1.43,3.56,3.56,0,0,0,0-.73,1.71,1.71,0,0,0-.22-.67.76.76,0,0,0-.11-.14L23.34,15l-.27-.24a4,4,0,0,0-.62-.38A3.16,3.16,0,0,0,21,14.17a6.39,6.39,0,0,0-1.44.25l-.71.22-.36.11-.2,0-.19,0a12.62,12.62,0,0,1-1.51.08,7.78,7.78,0,0,1-1.51-.18,7.38,7.38,0,0,1-1.44-.48,6,6,0,0,1-1.29-.81,6.9,6.9,0,0,1-1.05-1.11,6.75,6.75,0,0,1-1.21-2.77A6.46,6.46,0,0,1,10,8a4.17,4.17,0,0,1,.1-.77A3.08,3.08,0,0,1,10.39,6.58Zm.22.14a2.1,2.1,0,0,0-.25.66,5.52,5.52,0,0,0-.1.71,5.81,5.81,0,0,0,.13,1.44,6.7,6.7,0,0,0,1.2,2.63,6.62,6.62,0,0,0,1,1,6.09,6.09,0,0,0,1.23.78,6.61,6.61,0,0,0,1.38.47,7,7,0,0,0,1.44.19,10.37,10.37,0,0,0,1.47,0l.19,0,.18,0,.35-.1.72-.2a6.17,6.17,0,0,1,1.5-.21,3.45,3.45,0,0,1,1.48.31,3.86,3.86,0,0,1,.65.39,2.26,2.26,0,0,1,.28.25l.13.13a.88.88,0,0,1,.12.15A1.72,1.72,0,0,1,24,16a4,4,0,0,1,0,.77,6.82,6.82,0,0,1-.3,1.48l0,.18,0,.09s0,0,0,0,0,0,0-.08c-.21-.08-.13,0-.15,0a.85.85,0,0,1,.09-.15,1.29,1.29,0,0,1,.09-.16c.11-.22.21-.44.3-.67a5.66,5.66,0,0,0,.23-2.86,7.35,7.35,0,0,0-.39-1.39,10.45,10.45,0,0,0-.62-1.31L23,11.76l0,0v0a.42.42,0,0,1,0-.1,3.43,3.43,0,0,1-.12-.39c0-.25-.1-.5-.13-.74-.08-.49-.14-1-.26-1.44A6.44,6.44,0,0,0,22,7.65a4.63,4.63,0,0,0-.79-1.17,5.27,5.27,0,0,0-2.44-1.42,10.39,10.39,0,0,0-2.9-.36A9.06,9.06,0,0,0,13,5.13a5.21,5.21,0,0,0-1.3.63A2.7,2.7,0,0,0,10.61,6.72Z" style="fill:#e5bfa1"/><path d="M10.26,6.53a3.69,3.69,0,0,1,.56-.67,4.49,4.49,0,0,1,.66-.51,6.3,6.3,0,0,1,1.47-.73,9.1,9.1,0,0,1,3.18-.48,9.85,9.85,0,0,1,3.16.54,6.3,6.3,0,0,1,1.46.75,5.15,5.15,0,0,1,1.17,1.16A5.74,5.74,0,0,1,22.66,8,8.76,8.76,0,0,1,23,9.6l.12.78c0,.25.08.51.12.74a1,1,0,0,0,.1.32v0l0,0,0,.09.1.18c.12.23.24.47.35.71a8.73,8.73,0,0,1,.5,1.52,7,7,0,0,1,.18,1.59,6,6,0,0,1-.86,3,.14.14,0,0,1-.2,0,.15.15,0,0,1-.07-.18c.15-.39.32-.77.44-1.15a3.66,3.66,0,0,0,.22-1.16,1.7,1.7,0,0,0-.33-1l0,0,0,0,0,0-.1-.1-.22-.19c-.15-.12-.33-.23-.49-.34-.69-.43-1.42-.8-2.17-1.17s-1.5-.71-2.24-1c-1.51-.69-3-1.38-4.51-2.12-.74-.38-1.48-.77-2.2-1.23A10.81,10.81,0,0,1,10.71,8a2.25,2.25,0,0,1-.46-.57A1,1,0,0,1,10.12,7a1.1,1.1,0,0,1,0-.26.65.65,0,0,1,0-.13.58.58,0,0,1,.05-.11Zm.61.37,0,0V7a.68.68,0,0,0,0,.15,1.62,1.62,0,0,0,.32.39,6.2,6.2,0,0,0,.93.72c.67.45,1.39.84,2.12,1.24,1.46.77,2.95,1.48,4.44,2.2.74.36,1.49.73,2.23,1.11A22.69,22.69,0,0,1,23.11,14a4.82,4.82,0,0,1,.51.38l.25.22.12.13,0,0,0,0,0,.07a2.31,2.31,0,0,1,.3.61,2.2,2.2,0,0,1,.08.67,4.24,4.24,0,0,1-.27,1.27c-.14.4-.32.78-.48,1.16l-.26-.13a5.64,5.64,0,0,0,.74-2.89,7.25,7.25,0,0,0-.71-2.92c-.11-.23-.22-.46-.35-.68l-.2-.35a1.39,1.39,0,0,1-.14-.42,7.81,7.81,0,0,1-.15-.79c0-.26-.09-.51-.13-.75a10.47,10.47,0,0,0-.39-1.46,5.32,5.32,0,0,0-.69-1.29,4.53,4.53,0,0,0-1-1,5.52,5.52,0,0,0-1.31-.65,9.46,9.46,0,0,0-2.95-.44,8.24,8.24,0,0,0-1.49.11,8.55,8.55,0,0,0-1.43.36,6.09,6.09,0,0,0-1.31.63,3.47,3.47,0,0,0-.57.44A3.25,3.25,0,0,0,10.87,6.9Z" style="fill:#895b2e"/><path d="M10.5,6.65c-1.2,1.86.23,9,7.79,8,.8-.1,3.46-1.52,5.25.47,1,1.09-.34,3.86,0,3.28s1.85-3.09-.35-6.86c-.7-1.21.46-7-7.11-7.12-2.9,0-4.78,1-5.58,2.19" style="fill:#ba8449"/><g style="clip-path:url(#clip-path-13)"><g style="opacity:0.15000000596046448"><path d="M10.3,7.1c2.18-1.4,8.76-1.3,10.87,2.06,1.4,2.23-1.16,7.75-2.11,8.45s-2.25,1.31-5.71.48c-2.93-.7,1.48-3.42-2-3.82C8.24,13.91,7.93,8.63,10.3,7.1" style="fill:#e3ab5e"/></g></g><g style="clip-path:url(#clip-path-14)"><g style="opacity:0.25"><path d="M16.39,12.52c0,.16-.32.31-.71.31S15,12.7,15,12.52s.32-.31.71-.31.71.15.71.31" style="fill:#e3ab5e"/></g></g><path d="M15.13,11.63a2,2,0,0,1,1.15,0c.11.11.35.57.08.77-.1.07-.1-.21-.32-.16s-.12.39-.33.39,0-.37-.28-.42-.25.16-.35.14c-.32-.06-.18-.61.05-.76" style="fill:#f8a38f"/><g style="clip-path:url(#clip-path-15)"><path d="M15.6,11.56a1,1,0,0,0-.47.07c-.23.15-.37.7-.07.76h0c.08,0,.12-.15.28-.15h0c.27,0,0,.42.28.42s0-.33.33-.38h0c.15,0,.18.18.24.18h0c.28-.2,0-.66-.08-.77s-.34-.12-.64-.12m0,.08a1.52,1.52,0,0,1,.62.08.75.75,0,0,1,.18.48.19.19,0,0,1-.08.15s0,0,0,0a.3.3,0,0,0-.23-.14h0c-.19,0-.22.19-.25.28s0,.1-.07.1-.09,0-.09-.12,0-.25-.2-.28h-.07a.39.39,0,0,0-.25.12l0,0a.14.14,0,0,1-.11-.12.62.62,0,0,1,.2-.5.91.91,0,0,1,.46-.07" style="fill:#f8a38f"/></g><g style="clip-path:url(#clip-path-16)"><g style="opacity:0.25"><path d="M22.43,14.5c.33,2.1-2.3,4.74-5.83,5.28S10.46,17.16,10.13,15s1.84-1.3,5.37-1.84,6.6-.81,6.93,1.29" style="fill:#f7e8d0"/></g></g><g style="clip-path:url(#clip-path-17)"><g style="opacity:0.5"><path d="M13.2,17.7a2.28,2.28,0,0,1-.21-.51l-.16-.53a7.52,7.52,0,0,0-.39-1,2.74,2.74,0,0,0-.63-.86,2,2,0,0,0-.92-.45.2.2,0,0,1-.13-.27.22.22,0,0,1,.25-.14,11,11,0,0,0,2.42.28,18.52,18.52,0,0,0,2.46-.13,22.06,22.06,0,0,0,2.43-.43A23.76,23.76,0,0,0,20.69,13a.2.2,0,0,1,.27.13.2.2,0,0,1-.07.23.73.73,0,0,0-.1.09l-.1.11-.2.25a6.33,6.33,0,0,0-.36.54c-.24.36-.46.73-.67,1.12s-.42.77-.6,1.15a5.05,5.05,0,0,0-.26.59l-.12.31a.83.83,0,0,0,0,.15v0s0,0,0,0a0,0,0,0,1,0,0l0,0-.08,0a4,4,0,0,1-.63.18c-.21,0-.43.08-.65.1-.44,0-.86.1-1.3.11a9.36,9.36,0,0,1-1.3,0,3.53,3.53,0,0,1-.65-.11,1.66,1.66,0,0,1-.31-.12,1,1,0,0,1-.25-.2m0,0a.56.56,0,0,0,.25.2l.31.11a3.52,3.52,0,0,0,.65.1,11.28,11.28,0,0,0,1.3,0c.44,0,.86-.08,1.29-.13a6.38,6.38,0,0,0,.63-.12,2.9,2.9,0,0,0,.61-.19l.07,0s0,0,0,0a.94.94,0,0,1,0-.16c0-.11.07-.21.1-.32s.15-.4.24-.61c.18-.4.35-.8.54-1.19s.38-.79.59-1.17c.1-.2.21-.38.33-.58a1.38,1.38,0,0,1,.19-.28l.1-.14a1.66,1.66,0,0,1,.13-.14l.21.37c-.8.27-1.6.49-2.42.68a23.24,23.24,0,0,1-2.47.44,17.58,17.58,0,0,1-2.52.13,11.91,11.91,0,0,1-2.52-.32l.12-.44a3.84,3.84,0,0,1,.94.72,3.59,3.59,0,0,1,.57,1,10.76,10.76,0,0,1,.33,1.06c0,.18.1.36.14.54a2.2,2.2,0,0,0,.22.52" style="fill:#d8cab2"/></g></g><g style="clip-path:url(#clip-path-18)"><g style="opacity:0.5"><path d="M13.21,17.7a2.2,2.2,0,0,1-.21-.5c-.06-.17-.1-.35-.15-.53a8.12,8.12,0,0,0-.38-1,3,3,0,0,0-.61-.88,1.9,1.9,0,0,0-.92-.5h0a.12.12,0,0,1-.07-.14A.13.13,0,0,1,11,14a11.16,11.16,0,0,0,2.45.28,18.49,18.49,0,0,0,2.47-.13c.82-.1,1.63-.25,2.44-.43a24.14,24.14,0,0,0,2.39-.67.11.11,0,0,1,.14.07.13.13,0,0,1,0,.12,1.49,1.49,0,0,0-.21.22c-.07.08-.13.18-.2.25s-.24.36-.35.55c-.23.36-.45.74-.66,1.13s-.4.77-.58,1.16l-.26.59a2.83,2.83,0,0,0-.11.31.83.83,0,0,0,0,.15s0,0-.07.08l-.08,0a4,4,0,0,1-.63.18L17,18c-.43,0-.86.1-1.3.12a9.36,9.36,0,0,1-1.3,0,3.53,3.53,0,0,1-.65-.11l-.31-.11a.65.65,0,0,1-.25-.21m0,0a.65.65,0,0,0,.25.21l.31.11a3.52,3.52,0,0,0,.65.1,9.4,9.4,0,0,0,1.3,0c.44,0,.86-.07,1.3-.13l.65-.12a2.41,2.41,0,0,0,.61-.19l.07,0s0,0,0,0a.94.94,0,0,1,0-.16,2.83,2.83,0,0,1,.11-.31c.08-.21.16-.4.25-.6.18-.4.36-.79.56-1.18s.39-.78.61-1.16c.11-.2.22-.38.34-.56a1.31,1.31,0,0,1,.19-.27,1.39,1.39,0,0,1,.23-.26l.11.2c-.79.27-1.6.49-2.41.68s-1.63.33-2.46.44a17.44,17.44,0,0,1-2.51.13,12.37,12.37,0,0,1-2.49-.3L11,14a2.38,2.38,0,0,1,.94.65,3.32,3.32,0,0,1,.58,1,9.24,9.24,0,0,1,.35,1c0,.18.1.35.15.54a1.28,1.28,0,0,0,.18.46" style="fill:#d8cab2"/></g></g><path d="M13.21,17.69c.56.88,5.12.27,5.2-.08a17,17,0,0,1,2.36-4.45c-.94.33-5.83,1.89-9.8.94,1.79.6,1.81,2.91,2.24,3.59" style="fill:#333"/><g style="clip-path:url(#clip-path-19)"><path d="M20.76,13.17a23.51,23.51,0,0,1-7,1.25,12.42,12.42,0,0,1-2.79-.3c1.79.58,1.82,2.9,2.25,3.58.21.33,1,.45,1.91.45,1.47,0,3.23-.31,3.28-.53a16.75,16.75,0,0,1,2.36-4.45m-.61.43a20,20,0,0,0-2,3.92,10,10,0,0,1-3.07.42c-1.12,0-1.62-.19-1.73-.35a2.74,2.74,0,0,1-.28-.82A5.07,5.07,0,0,0,12,14.55a13.6,13.6,0,0,0,1.72.1,24.25,24.25,0,0,0,6.38-1.05" style="fill:#333"/></g><path d="M15.09,18.15a2.68,2.68,0,0,1-1.79-.39s0-.15.09-.4a3,3,0,0,1,2.47-1.72h.27a3.33,3.33,0,0,1,2.63,1s0,.11-.08.2-.22.54-.34.89a10.59,10.59,0,0,1-3.25.46" style="fill:#fcd4c3"/><path d="M16.13,15.57h-.28c-1.91.12-2.8,2-2.6,2.24a2.82,2.82,0,0,0,1.85.42,9.28,9.28,0,0,0,3.32-.5c.16-.49.35-.9.43-1.09s-1.06-1.1-2.72-1.08m0,.14a3.44,3.44,0,0,1,2.55.91l-.07.16c-.09.21-.22.51-.34.86a11.09,11.09,0,0,1-3.18.43,2.78,2.78,0,0,1-1.73-.36,1.61,1.61,0,0,1,.34-.77,2.85,2.85,0,0,1,2.16-1.24h.27" style="fill:#f8a38f"/><g style="clip-path:url(#clip-path-20)"><path d="M13.27,17.7c-.13.59,3.49-2.31,5.44-.92.4-.54-1.75-1.44-3-1.24a2.85,2.85,0,0,0-2.43,2.16" style="fill:#fcd4c3"/></g><path d="M14,14.58c.19.33.53,1.93.67,2a6.26,6.26,0,0,0,1.16.23c.13,0,.12-.36.25-.27s.16.22.27.16a3.91,3.91,0,0,0,.88-.61,6,6,0,0,0,0-1.79,12.67,12.67,0,0,1-3.23.32" style="fill:#fff7e3"/><g style="clip-path:url(#clip-path-21)"><path d="M17.24,14.26a14.06,14.06,0,0,1-2.91.34H14c.19.33.53,1.93.67,2a8.5,8.5,0,0,0,1.11.24h0c.11,0,.12-.28.21-.28a0,0,0,0,1,0,0c.1,0,.14.18.23.18h0a3.91,3.91,0,0,0,.88-.61,6.58,6.58,0,0,0,0-1.82m-.06.1a6.09,6.09,0,0,1,0,1.66,3.5,3.5,0,0,1-.84.59h0s0,0-.08-.07l-.11-.1a.14.14,0,0,0-.09,0c-.1,0-.13.1-.16.18s0,.11-.08.12h0a6.54,6.54,0,0,1-1-.21l-.1,0a6.07,6.07,0,0,1-.32-1c-.1-.34-.19-.66-.26-.84h.21a16.31,16.31,0,0,0,2.84-.32" style="fill:#ffdc99"/></g><g style="clip-path:url(#clip-path-22)"><path d="M14.26,15.35c0-.59,2.67-.79,3-.73,0-.14,0-.23,0-.39A11.26,11.26,0,0,1,14,14.6a5.53,5.53,0,0,1,.24.75" style="fill:#eadcbe"/></g><g style="clip-path:url(#clip-path-23)"><path d="M15.62,14.91c0,.13.11.25.15.38l.13.39.12.39.12.39-.19,0-.09-.4-.1-.4-.1-.39-.12-.38Z" style="fill:#ffdc99"/></g><g style="clip-path:url(#clip-path-24)"><g style="opacity:0.4000000059604645"><path d="M6.41,5.64C7.85,6,7.62,8.51,8.48,8.7s2-2.06,2.1-2.55c-1.66-.71-2.44-1.54-3.63-1.3-.4.08-1,.68-.54.79" style="fill:#fcd4c3"/></g></g><g style="clip-path:url(#clip-path-25)"><g style="opacity:0.5"><path d="M10.41,12.94c1.82.14,3.32.22,3.85-.34s.73-3,1.61-3,1,3.27,1.48,3.36,3.88,1,4.74.15,1.24-1.42,1-2S17.95,9,16.94,8.87,9,9.64,8.88,10.06s-.36.37-.33.83c0,.9,0,1.91,1.86,2.05" style="fill:#e3ab5e"/></g></g><path d="M15.5,9.28a2.21,2.21,0,0,1,.77,0c.66.51.63,2.63,1.32,3.28s4,1,4.54.35,1.43-2.7,1.63-2.86.63-.25.77-.46,0-1.09-.28-1A3.67,3.67,0,0,1,23,8.72c-.36-.11-2.12-1.21-6.55-.55a2.81,2.81,0,0,1-1.15-.08c-.3-.08-2-1-6.41-.4a7.76,7.76,0,0,1-1.27-.11c-.22,0-.28.71-.2.89S8,8.8,8,9a6.66,6.66,0,0,0,1.51,3.25c1.12.94,4,.28,4.21.11,1.13-.79,1.38-3.1,1.76-3.1" style="fill:#333"/><g style="clip-path:url(#clip-path-26)"><path d="M11.67,7.5a18,18,0,0,0-2.8.22h-.2c-.38,0-.83-.12-1-.12h0c-.22,0-.28.71-.2.89s.55.33.6.55A6.66,6.66,0,0,0,9.51,12.3a3,3,0,0,0,1.88.49,6.61,6.61,0,0,0,2.33-.38c1.14-.81,1.4-3.12,1.78-3.12h.33a1.16,1.16,0,0,1,.43,0c.66.51.63,2.63,1.32,3.28a6.17,6.17,0,0,0,3.09.69A2.12,2.12,0,0,0,22.11,13c.58-.67,1.43-2.7,1.63-2.86s.63-.25.77-.46,0-1-.27-1h0a7.63,7.63,0,0,1-1,.15,1,1,0,0,1-.25,0A8.66,8.66,0,0,0,19.06,8a16.88,16.88,0,0,0-2.65.21,2.24,2.24,0,0,1-.36,0,2.9,2.9,0,0,1-.78-.1,10.16,10.16,0,0,0-3.6-.58m0,.22A8.32,8.32,0,0,1,15,8.27l.19.07a4,4,0,0,0,.83.11,2.47,2.47,0,0,0,.39,0,17.72,17.72,0,0,1,2.62-.21,8.32,8.32,0,0,1,3.63.67l.22.09a1.08,1.08,0,0,0,.32,0,3.38,3.38,0,0,0,.72-.1l.27,0a1.2,1.2,0,0,1,.11.72,1.06,1.06,0,0,1-.36.21,1.36,1.36,0,0,0-.34.18A3.65,3.65,0,0,0,23,11,11.1,11.1,0,0,1,22,12.85c-.11.13-.5.26-1.29.26a6.22,6.22,0,0,1-2.94-.62,3.47,3.47,0,0,1-.61-1.6,3.36,3.36,0,0,0-.72-1.71.88.88,0,0,0-.56-.11h-.34c-.31,0-.44.36-.67,1a4.43,4.43,0,0,1-1.24,2.14,6.69,6.69,0,0,1-2.21.35,2.74,2.74,0,0,1-1.74-.44,5.37,5.37,0,0,1-1.41-3,.57.57,0,0,1,0-.1c0-.21-.25-.33-.42-.44a.93.93,0,0,1-.2-.15,1.08,1.08,0,0,1,.07-.58,2.19,2.19,0,0,1,.31,0A5.13,5.13,0,0,0,8.7,8a.86.86,0,0,0,.23,0,20.76,20.76,0,0,1,2.74-.21" style="fill:#1a1a1a"/></g><g style="clip-path:url(#clip-path-27)"><g style="opacity:0.5"><path d="M9.23,9.07c-.1.13-.16,2.07.66,2.59a6.06,6.06,0,0,0,3.27,0,3.47,3.47,0,0,0,1.21-2.51c-.33-.44-2.69-1-4.46-.56A1.64,1.64,0,0,0,9.23,9.07Z" style="fill:none;stroke:#333;stroke-miterlimit:10"/></g></g><path d="M9.23,9.07c-.1.13-.16,2.07.66,2.59a6.06,6.06,0,0,0,3.27,0,3.47,3.47,0,0,0,1.21-2.51c-.33-.44-2.69-1-4.46-.56a1.55,1.55,0,0,0-.68.46" style="fill:#fff"/><g style="clip-path:url(#clip-path-28)"><g style="opacity:0.5"><path d="M22.6,9.91c.09.14-.11,2.07-1,2.49a6.18,6.18,0,0,1-3.24-.4,3.49,3.49,0,0,1-.89-2.65c.38-.39,2.8-.66,4.5,0A1.69,1.69,0,0,1,22.6,9.91Z" style="fill:none;stroke:#333;stroke-miterlimit:10"/></g></g><path d="M22.6,9.92c.09.14-.11,2.07-1,2.49a6.18,6.18,0,0,1-3.24-.4,3.49,3.49,0,0,1-.89-2.65c.38-.39,2.8-.66,4.5,0a1.52,1.52,0,0,1,.61.54" style="fill:#fff"/><path d="M11.82,10.25c-.05.43-.27.74-.48.71s-.32-.39-.26-.82.27-.74.48-.71.32.39.26.82"/><path d="M20.55,10.73c0,.43-.09.79-.28.81s-.4-.31-.45-.73.09-.79.28-.81.39.31.45.73"/><g style="clip-path:url(#clip-path-29)"><g style="opacity:0.30000001192092896"><path d="M7.62,8.23c.25.16.48.07.54.39s.81,3.17,1.75,3.5A6,6,0,0,0,13.66,12c.26-.16,1.5-2.93,1.71-3a1.89,1.89,0,0,1,1,.08c.43.19,1.21,3.18,1.42,3.34.95.67,4,.61,4.15.44s1.29-2.8,1.5-3,1-.38,1-.28-.56.2-.73.4A23.29,23.29,0,0,1,22,12.9a6,6,0,0,1-4.39-.37c-.65-.46-.9-3.18-1.41-3.34a1.36,1.36,0,0,0-.82,0c-.32.21-.77,2.53-1.72,3.11-.38.23-3.35.81-4.23-.12C7.82,10.43,8.32,8.89,7.78,8.67c-.36-.15-.44-.35-.44-.48s.15,0,.28,0" style="fill:#333"/></g></g><g style="clip-path:url(#clip-path-30)"><g style="opacity:0.30000001192092896"><path d="M7.65,7.65a4.08,4.08,0,0,0,1.08.3,5.13,5.13,0,0,0,1.09-.32c.16,0-.85.13-1.11.12s-1-.07-1.06-.1" style="fill:#333"/></g></g><g style="clip-path:url(#clip-path-31)"><g style="opacity:0.30000001192092896"><path d="M14.75,8.16c.32.14.46.5.77.54a1.83,1.83,0,0,0,.85,0,4.31,4.31,0,0,1,.73-.35,10.59,10.59,0,0,1-1.36.11,8.44,8.44,0,0,1-1-.29" style="fill:#333"/></g></g><g style="clip-path:url(#clip-path-32)"><g style="opacity:0.30000001192092896"><path d="M22.51,8.58c-.13,0,.48.44.67.42a4,4,0,0,0,.66-.28,4.22,4.22,0,0,1-.6.08,3.89,3.89,0,0,1-.73-.22" style="fill:#333"/></g></g><g style="clip-path:url(#clip-path-33)"><g style="opacity:0.30000001192092896"><path d="M8.89,8.78C9.7,8,11.63,8.25,12,8.32c-2.31.16-2.35.34-2.76.74a4.93,4.93,0,0,0,.23,2.29,3.47,3.47,0,0,1-.56-2.57" style="fill:#333"/></g></g><g style="clip-path:url(#clip-path-34)"><g style="opacity:0.30000001192092896"><path d="M23,9.65c-.7-.9-2.64-.89-3-.85,2.26.47,2.29.65,2.64,1.11a4.74,4.74,0,0,1-.51,2.23A3.76,3.76,0,0,0,23,9.65" style="fill:#333"/></g></g><g style="clip-path:url(#clip-path-35)"><path d="M9.25,10.4c.08-.94.16-1.71,2-1.76,1.5,0,2.69.31,2.86.67a2.8,2.8,0,0,1-.72,2.16c.48-.43,1.25-2.12.92-2.33a6.69,6.69,0,0,0-4.53-.48,1.61,1.61,0,0,0-.6.44,5,5,0,0,0,0,1.3" style="fill:#d0dddc"/></g><g style="clip-path:url(#clip-path-36)"><path d="M9.31,10.47c.28,1.84,3.64,1.28,3.84,1.2a4.7,4.7,0,0,1-3.23,0c-.59-.22-.64-1.43-.61-1.22" style="fill:#d0dddc"/></g><g style="clip-path:url(#clip-path-37)"><path d="M22.45,11.22c0-1,0-1.71-1.79-2-1.48-.23-2.7,0-2.92.31a2.77,2.77,0,0,0,.46,2.23c-.43-.49-1-2.25-.62-2.43a6.69,6.69,0,0,1,4.55.08,1.71,1.71,0,0,1,.55.51,7.29,7.29,0,0,1-.23,1.29" style="fill:#d0dddc"/></g><g style="clip-path:url(#clip-path-38)"><path d="M22.38,11.28c-.5,1.78-3.77.82-4,.72a4.77,4.77,0,0,0,3.21.43c.61-.16.82-1.36.75-1.15" style="fill:#d0dddc"/></g><g style="clip-path:url(#clip-path-39)"><g style="opacity:0.25"><path d="M11.77,9.7a.11.11,0,0,0-.11-.11.11.11,0,0,0,0,.22.1.1,0,0,0,.11-.11" style="fill:#fff"/></g></g><g style="clip-path:url(#clip-path-40)"><g style="opacity:0.25"><path d="M20.41,10.21a.11.11,0,0,0-.22,0,.1.1,0,0,0,.11.11.11.11,0,0,0,.11-.11" style="fill:#fff"/></g></g><g style="clip-path:url(#clip-path-41)"><g style="opacity:0.10000000149011612"><path d="M7.68,8.11a.7.7,0,0,0,.78.28c3.4-.44,5.28-.43,6.22.44.2.19.09-.56-.28-.66A10.71,10.71,0,0,0,9,8.15a7.77,7.77,0,0,1-1.34,0" style="fill:#d0dddc"/></g></g><g style="clip-path:url(#clip-path-42)"><g style="opacity:0.10000000149011612"><path d="M17.09,8.55c-.08.08,0,.86.33.57,1.07-.85,3.32-.66,4.88-.13-.25-.49-2.08-.83-3.11-.82a6.16,6.16,0,0,0-2.1.38" style="fill:#d0dddc"/></g></g><path d="M23.57,9.18s-.18,0-.38,0-.38,0-.38,0,.18,0,.38,0,.38,0,.38,0" style="fill:#d0dddc"/><path d="M8.82,8.23s-.18,0-.38,0-.37-.09-.36-.12.18,0,.38,0,.37.08.36.12" style="fill:#d0dddc"/><path d="M30,25.77a1,1,0,0,0-1-1,1,1,0,0,0-.44.09l-.09,0-.08.05a1.82,1.82,0,0,1-.46.25,2.43,2.43,0,0,1,0-.46v0c.12-1.17-.12-1.86-.73-2a1.12,1.12,0,0,0-.32,0A1.62,1.62,0,0,0,26,23a1,1,0,0,0-.85-.35,1.18,1.18,0,0,0-1.17.68,2,2,0,0,0-.07.2,1.72,1.72,0,0,0-1.62-1,2.6,2.6,0,0,0-1.37.39l0,0a4,4,0,0,0-1.3,1.5,2.39,2.39,0,0,0-1.06-1.37h0l0,0a5.28,5.28,0,0,0,.78-3.67C18.91,18,18.1,17.8,17.65,17.8a1.73,1.73,0,0,0-.58.1h0a2.85,2.85,0,0,0-1.31,1,8.57,8.57,0,0,0-1.25,3.63c0,.23,0,.47-.08.71a1.22,1.22,0,0,0-.69-.46,1.24,1.24,0,0,0-.33,0,1.6,1.6,0,0,0-1.06.48,1,1,0,0,0-.78-.44h-.08a1.81,1.81,0,0,0-1.19.47,1.08,1.08,0,0,0-.94-.54H9.17a1.18,1.18,0,0,0-1.17.7,1,1,0,0,0,0,.13,2.08,2.08,0,0,0-1.75-.8H6.13a2.66,2.66,0,0,0-2.35,1.82,4.68,4.68,0,0,0-.26.74.86.86,0,0,0-.4-.09.94.94,0,0,0-.79.42A1.61,1.61,0,0,0,2,26.89a1,1,0,0,0,.61.66,8.56,8.56,0,0,0,.86.28A2.86,2.86,0,0,0,4.46,29a2.14,2.14,0,0,0,1.33.4A4.74,4.74,0,0,0,7.64,29l0,0h0a1.22,1.22,0,0,0,.68.36,1.55,1.55,0,0,0,.33,0,1.35,1.35,0,0,0,1.14-.71,1.44,1.44,0,0,0,1.27.62s0,0,.1,0a1.06,1.06,0,0,0,1-.59,1.39,1.39,0,0,0,1.26.71,2.31,2.31,0,0,0,1-.24h0l.4-.22a3.3,3.3,0,0,0,1.59.4,2.05,2.05,0,0,0,.35,0h.06a12.28,12.28,0,0,0,2.91-.89,2.74,2.74,0,0,0,1.88.92h.3a3.76,3.76,0,0,0,1.73-.43,1.5,1.5,0,0,0,.53.36,1.14,1.14,0,0,0,.4.08c.89,0,1.3-1.05,1.41-1.41l.21-.57a1.65,1.65,0,0,0,.73.45,2.26,2.26,0,0,0,.53.08,3.82,3.82,0,0,0,2.06-.81,1.46,1.46,0,0,0,.5-1.29" style="fill:#fff"/><path d="M21.07,26.06a1.89,1.89,0,0,1,.34-1.27c.46-.83.81-.38.81-.38a.84.84,0,0,1,0,1.06,1.35,1.35,0,0,1-1.1.59m-3.52.6a1.3,1.3,0,0,1-1.79.81A3.91,3.91,0,0,1,16,25.61c.41-1.37,1.38-.83,1.38-.83s.67.51.14,1.88m-1-5.74s.79-2.07,1-1.06-1.66,4-1.66,4a22.26,22.26,0,0,1,.68-2.93M5.28,26.06c0-1.32.9-1.9,1.2-1.62s.2.92-.38,1.3-.82.32-.82.32m24-.22a.31.31,0,0,0-.45-.28,2.15,2.15,0,0,1-1.21.45c-.57-.05-.38-1.32-.38-1.32s.12-1.17-.21-1.27-.74.31-.74.31A4.32,4.32,0,0,0,25.52,25l-.07,0a9,9,0,0,0,0-1.56c-.07-.14-.68-.13-.78.12A15.2,15.2,0,0,0,24,26.39a4.77,4.77,0,0,1-1.79.95c-.84.13-1-.39-1-.39s2.28-.63,2.2-2.45-1.84-1.15-2-1A3.55,3.55,0,0,0,19.85,26c0,.05,0,.32,0,.32a8,8,0,0,1-1.37.74s1.37-2.31-.31-3.36c-.76-.46-1.37.5-1.37.5s2.27-2.52,1.76-4.65c-.24-1-.74-1.13-1.21-1a2.07,2.07,0,0,0-1,.69,7.68,7.68,0,0,0-1.13,3.3c-.21,2-.53,4.35-.53,4.35a1.66,1.66,0,0,1-.83.45c-.4,0-.22-1.19-.22-1.19s.31-1.85.28-2.17,0-.48-.42-.59-.77.36-.77.36-1.06,1.61-1.15,1.85l0,.1,0-.07s.74-2.19,0-2.22-1.18.78-1.18.78-.81,1.37-.84,1.52l0-.07a10.71,10.71,0,0,0,.27-2,.36.36,0,0,0-.44-.31s-.47-.05-.59.25a21.75,21.75,0,0,0-.62,2.93,4.63,4.63,0,0,1-1.94.84c-.77,0-.69-.49-.69-.49s2.82-1,2.06-2.88a1.37,1.37,0,0,0-1.31-.63,2,2,0,0,0-1.7,1.38,3.28,3.28,0,0,0-.31,1.3,1.17,1.17,0,0,1-.8-.12c-.27-.22-.43,0-.43,0s-.47.67,0,.84a11.26,11.26,0,0,0,1.16.35,2,2,0,0,0,.81,1.18c.83.63,2.44-.1,2.44-.1L8,27.82s0,.59.5.68.68,0,1.52-2c.49-1,.53-1,.53-1h0A10.53,10.53,0,0,0,10.37,28a.74.74,0,0,0,.78.48s.35.12.62-.86a12.9,12.9,0,0,1,.81-2h.07a7,7,0,0,0,.12,2.63c.36.65,1.28.2,1.28.2a6.11,6.11,0,0,0,.74-.44,2.64,2.64,0,0,0,1.85.53,8.76,8.76,0,0,0,3.28-1.13,2,2,0,0,0,1.71,1.15,2.83,2.83,0,0,0,2.28-.82.89.89,0,0,0,.5.81c.51.21.86-.91.86-.91l.86-2.31h.08s0,1.48.9,1.72,2-.61,2-.61.26-.13.2-.58" style="fill:#e24b31"/></g></svg>