<svg viewBox="0 0 32 32" xmlns="http://www.w3.org/2000/svg"><path d="m29.98 8.331a.5.5 0 0 1 .02.12v6.011a.427.427 0 0 1 -.224.38l-5.193 2.9v5.758a.427.427 0 0 1 -.224.38l-10.843 6.065a.735.735 0 0 1 -.082.03c-.01 0-.02.01-.03.01a.467.467 0 0 1 -.235 0c-.01 0-.02-.01-.03-.01s-.051-.02-.071-.03l-10.834-6.061a.438.438 0 0 1 -.234-.384v-18.029a.5.5 0 0 1 .02-.12c0-.01.011-.02.021-.04s.02-.05.03-.07.021-.03.031-.04a.1.1 0 0 1 .041-.05c.01-.01.03-.02.04-.03s.031-.02.041-.03l5.417-3.031a.448.448 0 0 1 .448 0l5.416 3.031a.166.166 0 0 1 .051.04c.011.01.031.02.041.03a.181.181 0 0 1 .041.05.138.138 0 0 1 .03.04.392.392 0 0 1 .031.07c0 .01.01.02.02.04a.524.524 0 0 1 .021.11v11.262l4.51-2.533v-5.749a.331.331 0 0 1 .021-.11c0-.01.01-.02.02-.04s.02-.05.03-.07.021-.03.031-.04a.1.1 0 0 1 .041-.05c.01-.01.03-.02.04-.03s.031-.03.051-.04l5.416-3.03a.448.448 0 0 1 .448 0l5.417 3.03a.193.193 0 0 1 .051.04c.01.01.03.02.04.03a.164.164 0 0 1 .041.05.139.139 0 0 1 .031.04.488.488 0 0 1 .03.07c.011.01.022.02.022.03zm-.886 5.881v-5l-1.894 1.059-2.617 1.471v5zm-5.417 9.042v-5l-2.577 1.429-7.36 4.081v5.051c0-.01 9.937-5.561 9.937-5.561zm-20.771-17.023v17.023l9.938 5.561v-5.051l-5.193-2.851c-.02-.02-.041-.03-.051-.05s-.031-.02-.041-.03-.02-.03-.04-.05-.021-.03-.031-.04a.169.169 0 0 1 -.02-.05c-.011-.02-.021-.03-.021-.05a.127.127 0 0 1 -.01-.06c0-.02-.01-.03-.01-.05v-11.782l-2.627-1.46zm4.969-3.291-4.521 2.531 4.511 2.52 4.51-2.53zm2.342 15.76 2.616-1.46v-11.009l-1.893 1.06-2.617 1.46v11.012zm13.908-12.779-4.51 2.53 4.51 2.521 4.511-2.531c.01.01-4.511-2.52-4.511-2.52zm-.448 5.811-2.617-1.471-1.893-1.061v5l2.616 1.46 1.894 1.061zm-10.385 11.268 6.618-3.671 3.309-1.84-4.511-2.521-5.192 2.9-4.735 2.65z" fill="#ef382c"/></svg>