<svg xmlns="http://www.w3.org/2000/svg" viewBox="0 0 32 32"><title>file_type_js@2x</title><g id="js"><path d="M18.77,19.7a3.73,3.73,0,0,0,3.38,2.08c1.42,0,2.32-.71,2.32-1.69,0-1.17-.93-1.59-2.49-2.27l-.86-.37C18.66,16.4,17,15.09,17,12.3c0-2.57,2-4.52,5-4.52a5.06,5.06,0,0,1,4.87,2.74l-2.66,1.71A2.33,2.33,0,0,0,22,10.76a1.49,1.49,0,0,0-1.64,1.47c0,1,.64,1.44,2.1,2.08l.86.37c2.91,1.25,4.55,2.52,4.55,5.38,0,3.08-2.42,4.77-5.67,4.77A6.57,6.57,0,0,1,16,21.32ZM6.69,20c.54,1,1,1.76,2.2,1.76s1.83-.44,1.83-2.15V8h3.42V19.66c0,3.54-2.08,5.16-5.11,5.16A5.31,5.31,0,0,1,3.9,21.69Z" style="fill:#f5de19"/></g></svg>