<svg id="Layer_1" data-name="Layer 1" xmlns="http://www.w3.org/2000/svg" viewBox="0 0 32 32"><path d="M7.25,18.1a40.44,40.44,0,0,0-.09-6.44c-.11-1.36-.11-3.43.69-3.8C9.8,7,11.6,11.31,15,10.8c2.75-.41,2.08-5.1,3.93-5.38C21.58,5,26.89,16,27.66,23.75A14,14,0,1,0,2,16a13.92,13.92,0,0,0,3.84,9.61A21.88,21.88,0,0,0,7.25,18.1Z" style="fill:#b4bcf6"/><path d="M5.81,25.66A21.11,21.11,0,0,0,7.25,18.1a40.44,40.44,0,0,0-.09-6.44c-.11-1.36-.11-3.43.69-3.8C9.8,7,11.6,11.31,15,10.8c2.75-.41,2.08-5.1,3.93-5.38,2.61-.39,8,10.64,8.69,18.38a14.17,14.17,0,0,1-9.86,6.08A13.89,13.89,0,0,1,5.81,25.66Z" style="fill:#fff"/><path d="M11.17,21.86a2,2,0,0,0,.8-.16,1.89,1.89,0,0,0,.67-.45,2.06,2.06,0,0,0,.46-.67,2.15,2.15,0,0,0,.15-.8,2.08,2.08,0,0,0-2.08-2.08,2.13,2.13,0,0,0-1.47.61,2.08,2.08,0,0,0,1.47,3.55Z" style="fill:#ef4357"/><path d="M22.11,20.08A2.07,2.07,0,0,0,24.18,18a2.13,2.13,0,0,0-.15-.79,2,2,0,0,0-1.13-1.13,2.06,2.06,0,0,0-1.59,0,2.19,2.19,0,0,0-.67.45,1.92,1.92,0,0,0-.45.68A2,2,0,0,0,20,18a2.08,2.08,0,0,0,2.08,2.08Z" style="fill:#ef4357"/><path d="M20.47,5.5a2.21,2.21,0,0,0-1.66-.59c-1.15.18-1.54,1.43-1.92,2.63-.49,1.56-.9,2.59-2,2.75-1.61.23-2.81-.74-4-1.69S8.77,6.84,7.56,7.39c-.86.4-1.2,1.86-1,4.33a39.78,39.78,0,0,1,.08,6.37,22.86,22.86,0,0,1-1.46,7.67.54.54,0,0,0-.05.21.69.69,0,0,0,0,.2.87.87,0,0,0,.11.18.66.66,0,0,0,.17.12.57.57,0,0,0,.5,0,.6.6,0,0,0,.19-.23A23.58,23.58,0,0,0,7.7,18.13a40.39,40.39,0,0,0-.09-6.51c-.18-2.17.14-3.16.39-3.28.57-.27,1.22.23,2.24,1.06,1.22,1,2.73,2.24,4.81,1.93,1.82-.28,2.38-2.05,2.83-3.47C18.18,6.92,18.46,6,19,6a1.32,1.32,0,0,1,.85.37c2.66,2.08,6.68,10.94,7.31,17.52a.53.53,0,0,0,.19.35.55.55,0,0,0,.39.12.7.7,0,0,0,.19-.06.51.51,0,0,0,.16-.13.4.4,0,0,0,.1-.18.47.47,0,0,0,0-.2C27.5,16.75,23.31,7.71,20.47,5.5Z" style="fill:#181818"/><path d="M11.4,19.27l-3-.6H8.3a.25.25,0,0,0-.09,0,.3.3,0,0,0-.08.08.25.25,0,0,0,0,.09V19a.3.3,0,0,0,0,.1.23.23,0,0,0,.07.07l.1,0,2.17.44-2.06.88a.15.15,0,0,0-.09.06.24.24,0,0,0-.06.08.43.43,0,0,0,0,.11.19.19,0,0,0,0,.1.2.2,0,0,0,.09.11.3.3,0,0,0,.15.05h.1l2.84-1.23a.24.24,0,0,0,.12-.1.32.32,0,0,0,0-.16.26.26,0,0,0-.07-.15A.31.31,0,0,0,11.4,19.27Z" style="fill:#181818"/><path d="M24.79,17.93l-2.25-.12,1.89-1.17a.21.21,0,0,0,.11-.16.24.24,0,0,0,0-.2l-.07-.07-.09-.05a.33.33,0,0,0-.1,0l-.1,0-2.6,1.6a.25.25,0,0,0-.11.12.33.33,0,0,0,0,.17.24.24,0,0,0,.09.14.34.34,0,0,0,.15.06l3.09.16h0a.24.24,0,0,0,.18-.07A.25.25,0,0,0,25,18.2.26.26,0,0,0,25,18,.25.25,0,0,0,24.79,17.93Z" style="fill:#181818"/><path d="M18.53,17.77a.36.36,0,0,0-.25.11.35.35,0,0,0-.1.24,1.35,1.35,0,0,1-1.25,1.4,1.32,1.32,0,0,1-1.66-.86.35.35,0,0,0-.07-.12.28.28,0,0,0-.11-.08.22.22,0,0,0-.13,0,.43.43,0,0,0-.26.08.44.44,0,0,0-.08.11.65.65,0,0,0,0,.13.32.32,0,0,0,0,.14,1.94,1.94,0,0,0,.74,1,1.9,1.9,0,0,0,1.2.35,2.9,2.9,0,0,0,.51,0,2.06,2.06,0,0,0,1.83-2.11.35.35,0,0,0-.1-.24A.36.36,0,0,0,18.53,17.77Z" style="fill:#181818"/><path d="M14.75,16.39a.35.35,0,0,0,.48-.14.39.39,0,0,0,0-.26,2.56,2.56,0,0,0-2.6-1.38,3.14,3.14,0,0,0-2.32,2.1.33.33,0,0,0,0,.26.36.36,0,0,0,.22.16h.08a.4.4,0,0,0,.21-.07.39.39,0,0,0,.12-.19,2.49,2.49,0,0,1,1.76-1.57,1.87,1.87,0,0,1,1.81.89A.37.37,0,0,0,14.75,16.39Z" style="fill:#181818"/><path d="M21.66,15.39l.13,0a.32.32,0,0,0,.12-.08.41.41,0,0,0,.07-.11A.68.68,0,0,0,22,15a.28.28,0,0,0,0-.13,2.88,2.88,0,0,0-2.76-1.34,2.71,2.71,0,0,0-2,2,.2.2,0,0,0,0,.13.28.28,0,0,0,0,.13.31.31,0,0,0,.09.11.23.23,0,0,0,.12.06h.1a.37.37,0,0,0,.2-.07.39.39,0,0,0,.12-.19,2.06,2.06,0,0,1,1.48-1.46,2.17,2.17,0,0,1,2,.94.44.44,0,0,0,.08.11.37.37,0,0,0,.12.07A.35.35,0,0,0,21.66,15.39Z" style="fill:#181818"/><path d="M22.83,12.92a.34.34,0,0,0-.12-.12.33.33,0,0,0-.16-.07h-.17l-.66.12h0a3.79,3.79,0,0,0-.32-.38,2.78,2.78,0,0,0-3.92,0,2.72,2.72,0,0,0-.67,1.11,3.57,3.57,0,0,0-.46,0,2.77,2.77,0,0,0-1.41.39,2.31,2.31,0,0,0-.24-.29,2.75,2.75,0,0,0-2-.82,2.79,2.79,0,0,0-2,.82A2.7,2.7,0,0,0,10,15l-.78.14a.49.49,0,0,0-.28.19.46.46,0,0,0-.07.33.54.54,0,0,0,.15.25.48.48,0,0,0,.28.1h.08l.56-.11a2.86,2.86,0,0,0,.79,1.7,2.79,2.79,0,0,0,4.75-2,3,3,0,0,0-.16-.9,1.87,1.87,0,0,1,1-.28,1.67,1.67,0,0,1,.31.05,2.87,2.87,0,0,0,.82,1.93,2.78,2.78,0,0,0,3.92,0,2.79,2.79,0,0,0,.82-2,2.89,2.89,0,0,0-.12-.78l.47-.08a.42.42,0,0,0,.28-.18.46.46,0,0,0,0-.49Zm-8.78,4a1.91,1.91,0,0,1-1.34.55A1.93,1.93,0,0,1,11.36,17a1.9,1.9,0,1,1,2.69-2.69,1.88,1.88,0,0,1,.56,1.34A1.9,1.9,0,0,1,14.05,17Zm6.7-1.17a1.9,1.9,0,0,1-3.24-1.34,2,2,0,0,1,.14-.73,1.92,1.92,0,0,1,.41-.62,2,2,0,0,1,.62-.42,1.85,1.85,0,0,1,1.46,0,2,2,0,0,1,.62.42,1.92,1.92,0,0,1,.41.62,1.83,1.83,0,0,1,.14.73A1.89,1.89,0,0,1,20.75,15.79Z" style="fill:#b4bcf6"/></svg>