<svg width="32" height="32" viewBox="0 0 160 160" fill="none" xmlns="http://www.w3.org/2000/svg">
<path d="M108.269 23.7024C121.295 39.1835 120.759 64.2471 107.191 78.0069C103.695 81.5518 99.758 84.523 95.1597 86.4864C93.3102 87.2761 92.9477 88.1745 94.1845 90.0136C98.7935 96.8671 103.279 103.807 107.732 110.766C108.671 112.233 109.723 112.99 111.499 112.951C115.466 112.865 119.438 112.851 123.405 112.955C125.691 113.015 126.247 112.203 125.711 109.969C124.967 106.865 124.536 103.684 123.961 100.481C126.165 100.638 154.765 120.288 157 123.031C155.525 125.028 126.331 145.49 123.989 146C124.657 141.907 125.305 137.933 125.933 134.075C124.758 133.242 123.689 133.511 122.682 133.507C113.709 133.473 104.735 133.425 95.7621 133.497C93.8951 133.512 92.7766 132.86 91.7729 131.283C83.9271 118.954 75.974 106.695 68.1354 94.362C67.0187 92.605 65.7259 91.9072 63.6895 91.9421C61.145 91.9858 58.5519 92.4001 56.0669 91.6742C55.639 90.5461 56.2919 89.861 56.711 89.1513C60.2069 83.2323 63.7831 77.361 67.2034 71.398C68.2002 69.66 69.5455 69.3686 71.2935 69.3698C76.6774 69.3732 81.8158 68.3187 86.0345 64.6996C92.5396 59.1191 93.2065 51.746 91.1299 44.1215C89.131 36.7829 83.3277 33.3828 76.288 32.5235C65.4722 31.2031 54.5743 32.2061 43.7152 31.96C42.385 31.9299 41.7404 32.8298 41.067 33.7628C35.2165 41.8682 29.3613 49.9701 23.4959 58.0644C22.6496 59.2324 21.9408 60.5373 20.7293 61.3821C19.743 60.655 20.0432 59.7047 20.0423 58.8854C20.0252 43.6059 20.0666 28.3263 20.0002 13.0471C19.9903 10.7834 20.7056 10.0232 22.9838 10.0335C40.6717 10.1141 58.3648 9.83446 76.047 10.169C88.3206 10.4012 99.4783 14.1144 108.269 23.7024Z" fill="#007CD4"/>
<path d="M40.2658 41.0462C41.0664 40.0412 41.503 38.9427 43.3101 38C40.9286 48.4659 38.6886 58.3099 36.3394 68.6338C45.2492 68.6338 53.8481 68.6338 62.4469 68.6338C62.6313 68.8895 62.8157 69.1451 63 69.4007C46.8913 96.2672 30.7825 123.134 14.6738 150C14.3648 149.885 14.0558 149.77 13.7468 149.655C16.5652 140.074 19.3911 130.494 22.2 120.91C25.0435 111.207 27.8703 101.499 30.8839 91.1786C21.8707 91.1786 13.1375 91.1786 4.40434 91.1786C4.26957 90.8843 4.13479 90.5901 4 90.2959C16.0536 73.93 28.1071 57.5642 40.2658 41.0462Z" fill="#FFCC00"/>
</svg>
