<?xml version="1.0" encoding="utf-8"?>
<!-- Generator: Adobe Illustrator 26.0.3, SVG Export Plug-In . SVG Version: 6.00 Build 0)  -->
<svg version="1.1" id="Capa_1" xmlns="http://www.w3.org/2000/svg" xmlns:xlink="http://www.w3.org/1999/xlink" x="0px" y="0px"
	 viewBox="0 0 32 32" style="enable-background:new 0 0 32 32;" xml:space="preserve">
<style type="text/css">
	.st0{fill:#83FF50;stroke:#83FF50;stroke-width:8.679416e-02;stroke-miterlimit:1.3176;}
	.st1{fill:#96FF5B;fill-opacity:0.647;}
	.st2{fill:#00D6FF;stroke:#00D6FF;stroke-width:8.679416e-02;stroke-miterlimit:1.3176;}
	.st3{fill:#7DFFFF;stroke:#7DFFFF;stroke-width:8.679416e-02;stroke-miterlimit:1.3176;}
	.st4{fill:#32E6FF;stroke:#32E6FF;stroke-width:8.679416e-02;stroke-miterlimit:1.3176;}
	.st5{fill:#00D5FF;fill-opacity:0.545;}
	.st6{fill:#20E6FF;stroke:#20E6FF;stroke-width:8.679416e-02;stroke-miterlimit:1.3176;}
	.st7{fill:#2AF0FF;stroke:#2AF0FF;stroke-width:8.679416e-02;stroke-miterlimit:1.3176;}
	.st8{fill:#29EFFF;fill-opacity:0.8;}
	.st9{fill:#32F8B9;stroke:#32F8B9;stroke-width:8.679416e-02;stroke-miterlimit:1.3176;}
	.st10{fill:#32F6B8;fill-opacity:0.565;}
</style>
<g>
	<path class="st0" d="M17.8,10L14.3,16l0,0l-3.4-5.9L17.8,10z"/>
	<path class="st1" d="M17.8,10L17.8,10L17.8,10L17.8,10l-6.8,0.1l0,0H4V10l3.4-6h6.9L17.8,10z"/>
	<path class="st2" d="M14.3,16L14.3,16l-3.4,6l0,0H4l-3.4-6L4,10l3.4,5.8L14.3,16L14.3,16z"/>
	<path class="st3" d="M14.3,16H7.4L4,10l6.9,0.1L14.3,16z"/>
	<path class="st4" d="M17.8,21.9L15.1,22h-4.2l3.4-6l6.8,0.1L17.8,21.9z"/>
	<path class="st5" d="M21.3,27.8L21.2,28h-7l-3.4-6l0,0l0,0l3.4-5.9l0,0L10.9,22h4.2l2.6-0.1l0.1,0.1L21.3,27.8L21.3,27.8z"/>
	<path class="st6" d="M17.8,21.8L17.8,21.8L17.8,21.8L14.3,16h6.8L17.8,21.8z"/>
	<path class="st7" d="M24.6,22h-6.8l-0.1-0.1l3.4-6l0.1,0.1L24.6,22z"/>
	<path class="st8" d="M24.6,22l-3.3,5.8l-0.1-0.2l-3.4-5.7l6.7-0.1L24.6,22z"/>
	<path class="st9" d="M28,15.9l-3.4,6l0,0L21.2,16h-6.8v-0.1l0,0l3.4-5.9l0,0h6.9L28,15.9L28,15.9z"/>
	<path class="st10" d="M31.5,21.9L28,28L21.2,28l3.3-5.9v-0.1l0,0l3.4-6v-0.1H28L31.5,21.9z"/>
	<path class="st3" d="M28.9,11.1"/>
</g>
</svg>
