<svg version="1.1" viewBox="0 0 32 32" xmlns="http://www.w3.org/2000/svg"><title>file_type_antlers_html</title><path d="m25.098 27.272c2.0511 0 2.8039-0.88445 2.8039-3.0486v-4.2341c0-2.0135 0.97852-3.1615 1.9194-3.7072 0.28227-0.16936 0.28227-0.56454 0-0.75272-0.97852-0.62099-1.9194-1.9194-1.9194-3.6507v-4.14c0-2.3334-0.63981-3.0109-2.691-3.0109h-18.423c-2.0511 0-2.691 0.67745-2.691 3.0109v4.1588c0 1.7312-0.94088 3.0297-1.9194 3.6507-0.28227 0.16936-0.28227 0.58336 0 0.75272 0.94088 0.5269 1.9194 1.6748 1.9194 3.7072v4.2153c0 2.164 0.75273 3.0486 2.8039 3.0486zm-9.1458-3.8577c-2.2017 0-3.8013-0.65863-5.2879-1.957-0.24463-0.22581-0.33873-0.50809-0.33873-0.79036 0-0.22582 0.05646-0.47045 0.22581-0.65864l0.47045-0.60217c0.22581-0.28227 0.47045-0.414 0.75273-0.414 0.31991 0 0.62099 0.13172 0.94088 0.33873 1.0162 0.65863 2.1452 1.035 3.5002 1.035 1.035 0 1.863-0.43282 1.863-1.3172 0-2.2958-7.6402-1.035-7.6402-6.1911 0-2.7663 2.2581-4.3093 5.1938-4.3093 2.0699 0 3.5943 0.60217 4.7233 1.3172 0.28227 0.18818 0.47045 0.56454 0.47045 0.94088 0 0.22581-0.05646 0.43282-0.18818 0.62099l-0.33873 0.50808c-0.24464 0.33873-0.5269 0.50809-0.88445 0.50809-0.24464 0-0.50808-0.09409-0.79036-0.22581-0.84681-0.43282-1.7312-0.65864-2.8039-0.65864-1.1102 0-1.7689 0.60218-1.7689 1.2232 0 2.3523 7.6402 1.0726 7.6402 6.0782 0 2.8227-2.2769 4.554-5.7395 4.554z" fill="#01d7b0" stroke-width=".18818"/></svg>
