<svg viewBox="0 0 32 32" xmlns="http://www.w3.org/2000/svg"><path d="m6 27.5a.5.5 0 0 1 -.5-.5v-19a.5.5 0 0 1 .366-.482l18-5a.509.509 0 0 1 .134-.018.5.5 0 0 1 .5.5v19a.5.5 0 0 1 -.366.481l-18 5a.472.472 0 0 1 -.134.019z" fill="#e2e2e2"/><path d="m24 3v19l-18 5v-19zm0-1a1.018 1.018 0 0 0 -.268.036l-18 5a1 1 0 0 0 -.732.964v19a1 1 0 0 0 1 1 1.018 1.018 0 0 0 .268-.036l18-5a1 1 0 0 0 .732-.964v-19a1 1 0 0 0 -1-1z" fill="#c0ca33"/><path d="m9 28.5a.5.5 0 0 1 -.5-.5v-19a.5.5 0 0 1 .366-.482l18-5a.509.509 0 0 1 .134-.018.5.5 0 0 1 .5.5v19a.5.5 0 0 1 -.366.481l-18 5a.472.472 0 0 1 -.134.019z" fill="#7cb342"/><path d="m27 4v19l-18 5v-19zm0-1a1.018 1.018 0 0 0 -.268.036l-18 5a1 1 0 0 0 -.732.964v19a1 1 0 0 0 1 1 1.018 1.018 0 0 0 .268-.036l18-5a1 1 0 0 0 .732-.964v-19a1 1 0 0 0 -1-1z" fill="#c0ca33"/><path d="m9 28.5a.537.537 0 0 1 -.158-.025l-3-1a.5.5 0 0 1 -.342-.475v-19a.5.5 0 0 1 .5-.5.48.48 0 0 1 .158.026l3 1a.5.5 0 0 1 .342.474v19a.5.5 0 0 1 -.5.5z" fill="#7cb342"/><path d="m6 8 3 1v19l-3-1zm0-1a1 1 0 0 0 -1 1v19a1 1 0 0 0 .684.949l3 1a1.01 1.01 0 0 0 .316.051 1 1 0 0 0 1-1v-19a1 1 0 0 0 -.684-.949l-3-1a1.01 1.01 0 0 0 -.316-.051z" fill="#c0ca33"/><g fill="#e2e2e2"><path d="m18.952 14.329c-.652.06-1.345.124-2.039.185-.282.026-.283.024-.293.315l-.06 1.913c0 .045 0 .091-.006.136a.279.279 0 0 1 -.212.273.268.268 0 0 1 -.318-.167c-.185-.358-.371-.717-.555-1.075-.119-.232-.245-.46-.352-.7a.27.27 0 0 0 -.368-.174c-.581.145-1.166.272-1.75.407-.057.013-.114.028-.171.036a.267.267 0 0 1 -.3-.13.261.261 0 0 1 .059-.337c.254-.252.511-.5.768-.751.191-.186.379-.377.578-.554a.255.255 0 0 0 .067-.367c-.313-.571-.611-1.15-.915-1.725l-.044-.087a.288.288 0 0 1 .034-.361.272.272 0 0 1 .358-.03q.6.321 1.208.64c.143.076.294.142.429.232.172.114.282.068.414-.076.408-.447.831-.88 1.248-1.319.041-.042.081-.085.122-.126a.3.3 0 0 1 .371-.083c.146.077.155.208.121.355-.15.64-.3 1.281-.446 1.921-.074.313-.076.311.22.418l1.8.652a1.034 1.034 0 0 1 .16.07.259.259 0 0 1 .145.293c-.025.121-.109.187-.273.216z"/><path d="m23.993 20.642a.309.309 0 0 1 -.1.291c-.147.156-.293.313-.443.467-.2.2-.309.205-.512.013q-.953-.894-1.9-1.794l-3.163-2.989c-.227-.215-.231-.324-.016-.555.133-.142.265-.286.4-.426.186-.19.3-.2.5-.011q1.089 1.021 2.172 2.048l2.851 2.693a.65.65 0 0 1 .211.263z"/><path d="m15.257 10.537c.025.16.054.32.074.481.012.092-.015.173-.122.188s-.145-.055-.161-.136q-.082-.44-.155-.882c-.015-.092.016-.173.123-.187s.145.052.163.135c.029.133.049.268.072.4z"/><path d="m12.988 13.541c-.278-.006-.6-.01-.927-.022a.127.127 0 0 1 -.124-.129.131.131 0 0 1 .129-.145 7.912 7.912 0 0 1 .974.007.127.127 0 0 1 .123.13c.004.087-.051.128-.175.159z"/><path d="m17.87 12.6c-.12.03-.183.019-.222-.044a.128.128 0 0 1 .044-.188c.275-.162.553-.317.834-.468a.129.129 0 0 1 .184.059.124.124 0 0 1 -.043.173c-.278.168-.56.329-.797.468z"/><path d="m14.107 17c-.115.029-.215-.065-.172-.171a6.51 6.51 0 0 1 .436-.887.123.123 0 0 1 .172-.041.116.116 0 0 1 .071.144 5.455 5.455 0 0 1 -.455.919c-.012.02-.041.029-.052.036z"/></g></svg>