<svg viewBox="0 0 254.5 225" xmlns="http://www.w3.org/2000/svg"><path d="m61.949 13.068c16.06-.147 32.143 0 48.211-.062-3.81 16.408-7.466 32.862-11.261 49.277h-73.351c-2.319 0-4.637.077-6.956-.093 14.408-16.415 28.974-32.69 43.357-49.122z" fill="#f2e6c9"/><path d="m143.509 13.014h48.072c14.437 16.431 29.013 32.723 43.411 49.177-9.274.193-18.549 0-27.823.085h-52.515c-3.648-16.439-7.543-32.816-11.145-49.262z" fill="#f2e6c9"/><path d="m110.16 13.014h33.349c3.6 16.446 7.489 32.823 11.16 49.254h-55.769c3.794-16.4 7.45-32.846 11.26-49.254z" fill="#efc75e"/><path d="m18.592 62.183c2.319.17 4.637.085 6.956.093h73.352q0 26.026.054 52.052a18.857 18.857 0 0 0 1.979.139h52.114a14.693 14.693 0 0 0 1.546-.108c.147-17.366 0-34.732.07-52.1h52.516c9.274-.046 18.549.108 27.823-.085v150.446h-216.402q-.008-75.215-.008-150.437z" fill="#e7bf55"/><path d="m98.9 62.291h55.769c-.062 17.366.085 34.732-.07 52.1-.518.054-1.036.093-1.546.108h-52.113a18.857 18.857 0 0 1 -1.971-.131c-.108-17.375 0-34.734-.069-52.077z" fill="#dbb551"/><path d="m34.389 163.682h72.417v27.885h-72.417z" fill="#f2f2f2"/><g fill="#ce3262"><path d="m61.422 137.085c-.388 0-.487-.194-.291-.487l2.041-2.625a1.393 1.393 0 0 1 1.069-.487h34.7c.388 0 .487.291.291.584l-1.65 2.53a1.481 1.481 0 0 1 -.972.584z"/><path d="m46.74 146.028c-.388 0-.487-.194-.291-.487l2.041-2.625a1.393 1.393 0 0 1 1.069-.487h44.331a.447.447 0 0 1 .487.584l-.778 2.333a.85.85 0 0 1 -.875.584z"/><path d="m70.264 154.971c-.388 0-.487-.291-.291-.584l1.357-2.43a1.289 1.289 0 0 1 .972-.584h19.445c.388 0 .584.291.584.681l-.194 2.333a.731.731 0 0 1 -.681.681z"/><path d="m171.163 135.335c-6.124 1.556-10.3 2.722-16.33 4.28-1.462.388-1.556.487-2.819-.972a13.011 13.011 0 0 0 -4.569-3.694c-6.124-3.013-12.054-2.138-17.594 1.462a20.671 20.671 0 0 0 -9.918 18.469 15.242 15.242 0 0 0 13.123 15.261c6.61.875 12.151-1.462 16.525-6.415.875-1.069 1.653-2.236 2.625-3.6h-18.76c-2.041 0-2.528-1.263-1.847-2.916 1.263-3.013 3.6-8.068 4.958-10.6a2.625 2.625 0 0 1 2.43-1.556h35.384c-.194 2.625-.194 5.249-.584 7.874a41.456 41.456 0 0 1 -7.967 19.042c-6.995 9.234-16.136 14.97-27.7 16.525-9.526 1.263-18.374-.584-26.148-6.415a30.533 30.533 0 0 1 -12.347-21.57c-1.263-10.6 1.847-20.122 8.262-28.481a43.137 43.137 0 0 1 27.213-16.817c9.137-1.653 17.886-.584 25.76 4.763a30.471 30.471 0 0 1 11.28 13.705c.579.878.19 1.364-.977 1.655z"/><path d="m203.338 189.09c-8.846-.194-16.913-2.722-23.719-8.554a30.485 30.485 0 0 1 -10.5-18.761c-1.75-10.984 1.263-20.7 7.874-29.356 7.1-9.331 15.651-14.192 27.218-16.233 9.918-1.75 19.247-.778 27.7 4.958 7.68 5.249 12.442 12.345 13.706 21.676 1.653 13.123-2.138 23.816-11.179 32.953a44.542 44.542 0 0 1 -23.329 12.442c-2.619.485-5.243.585-7.771.875zm23.135-39.271a27.978 27.978 0 0 0 -.291-3.208 16.013 16.013 0 0 0 -18.375-13.235q-.734.119-1.454.306c-9.04 2.041-14.873 7.777-17.011 16.913a16.009 16.009 0 0 0 8.943 18.374 17.82 17.82 0 0 0 15.845-.584c7.679-3.985 11.859-10.206 12.348-18.566z"/></g></svg>