<?xml version="1.0" encoding="UTF-8" standalone="no"?><svg version="1.1" xmlns="http://www.w3.org/2000/svg" width="32" height="32"><g fill="none" fill-rule="nonzero"><path fill="#F8F8F8" d="M21.6048 21.0263c-1.271.1725-2.2018 1.0207-2.5612 2.3339-.0703.257-.0522 1.0997.03 1.3964.6924 2.4968 3.9224 3.054 5.4253.9358.3184-.4487.501-1.0704.5011-1.7055 0-.3763-.0122-.4612-.1232-.857-.3854-1.3742-1.8257-2.3-3.272-2.1036m1.5111.8625c.5064.2557.9977.8383 1.1678 1.3847.103.3311.147.9188.0842 1.1261a4.9947 4.9947 0 0 0-.0622.2419c-.0203.087-.0466.1778-.0584.2015a48.397 48.397 0 0 0-.112.2304c-.1625.3352-.3255.532-.3778.456-.1698-.2464-.353-.3409-.6607-.3409h-.1773v-.4625c0-.761.0678-.718-1.131-.718-1.0964 0-1.0072.0287-1.0072-.3235 0-.2796.0021-.2811.3954-.2811.3194 0 .328-.0017.4204-.084l.0944-.084.0144-.355.0145-.3552.378-.0144c.5374-.0205.8187-.2253.8206-.5974.0006-.1119.0193-.1143.197-.0246m-2.7168 2.3293l.7.6996v.2083c0 .374.1625.601.4767.6659l.0867.0179.0082.2797c.0095.3211.0291.3059-.2833.2204-.8479-.2322-1.5013-.8926-1.7218-1.7404-.08-.307-.0716-1.051.0116-1.051.012 0 .337.3148.7219.6996"/><path fill="#737373" d="M21.3569 17.0147c-.3678.037-.8482.1463-1.217.2767-3.5089 1.2416-5.1495 5.529-3.488 9.1149.0714.154.1514.315.1778.3578.0264.0428.0643.1128.0842.1556.0706.1514.46.6946.7032.9809.1355.1595.2464.3056.2464.3246 0 .045.189.2502.2304.2502.0175 0 .0813.056.1419.1245.0605.0684.1252.1244.1437.1244.0185 0 .0698.042.114.0934.0441.0513.1008.0933.126.0933s.0458.014.0458.0311c0 .0171.021.0311.0467.0311.0257 0 .0676.0246.093.0547.0256.03.085.0756.1323.1011.0472.0256.1107.0708.141.1005.0304.0298.098.0628.1504.0735.0524.0107.0952.0319.0952.0471 0 .0152.0257.0276.0572.0276s.0573.014.0573.0311c0 .0171.0387.0311.0859.0311.0472 0 .0859.014.0859.0312 0 .017.0258.031.0573.031s.0572.014.0572.0312c0 .0171.0387.0311.086.0311.0472 0 .0858.014.0858.0311 0 .0171.0258.0311.0573.0311s.0573.014.0573.0311c0 .0172.045.0312.1002.0312.0551 0 .1002.014.1002.031 0 .0172.0516.0312.1146.0312s.1145.014.1145.0311c0 .0171.0515.0311.1145.0311s.1146.014.1146.0311c0 .0171.0644.0311.1431.0311.0788 0 .1432.014.1432.0312 0 .018.0901.031.213.031.1172 0 .2211.014.2308.0312.0108.019.239.0311.5888.0311.3615 0 .571-.0114.571-.0311 0-.0178.0858-.0311.2004-.0311.1145 0 .2004-.0133.2004-.0311 0-.0172.0644-.0312.1432-.0312.0787 0 .1431-.014.1431-.031 0-.0172.058-.0312.1289-.0312.0709 0 .1288-.014.1288-.0311 0-.0171.0516-.0311.1146-.0311s.1145-.014.1145-.0311c0-.0171.0387-.0311.086-.0311.0472 0 .0858-.014.0858-.0312 0-.017.0387-.031.086-.031.0472 0 .0858-.014.0858-.0312 0-.017.0258-.031.0573-.031s.0573-.0141.0573-.0312c0-.0171.0386-.0311.0859-.0311.0472 0 .0859-.014.0859-.0311 0-.0171.0257-.0312.0572-.0312s.0573-.014.0573-.031c0-.0172.0258-.0312.0573-.0312s.0572-.0134.0572-.0297c0-.0163.0451-.0389.1003-.05.055-.0114.1002-.033.1002-.0482 0-.0152.0229-.0276.051-.0276.028 0 .0695-.028.0921-.0623.0227-.0342.0643-.0622.0923-.0622.028 0 .051-.014.051-.0311 0-.0171.0228-.0311.0509-.0311.028 0 .0695-.028.0922-.0623.0227-.0342.0613-.0622.0859-.0622.0245 0 .0632-.028.0859-.0622.0227-.0342.059-.0622.0807-.0622.0217 0 .0756-.042.1197-.0934.0442-.0513.0925-.0933.1075-.0933.03 0 .1535-.129.2648-.2766.0393-.0522.0941-.0953.1217-.0959.0286-.0005.05-.0246.05-.0563 0-.0304.0276-.0759.0614-.1011.1018-.076.5114-.523.5114-.5581 0-.018.0386-.0766.0859-.1304.0472-.0537.0859-.1135.0859-.1328 0-.0194.0257-.0554.0572-.08.0315-.0247.0573-.0638.0573-.087 0-.023.0193-.063.043-.0886.0236-.0257.043-.0737.043-.1067s.0128-.06.0285-.06c.0158 0 .0287-.027.0287-.0601 0-.0331.0257-.069.0572-.08.0315-.0108.0573-.0468.0573-.0798 0-.033.0129-.0601.0286-.0601.0158 0 .0287-.028.0287-.0623 0-.0342.0129-.0622.0286-.0622.0158 0 .0286-.028.0286-.0622 0-.0343.013-.0623.0287-.0623s.0286-.042.0286-.0933c0-.0513.0129-.0933.0287-.0933.0157 0 .0286-.028.0286-.0623 0-.0342.0129-.0622.0286-.0622.0158 0 .0287-.042.0287-.0933 0-.0514.0128-.0934.0286-.0934.0157 0 .0286-.028.0286-.0622 0-.0342.013-.0622.0287-.0622s.0286-.042.0286-.0934c0-.0513.0129-.0933.0286-.0933.0158 0 .0287-.035.0287-.0778 0-.0428.0128-.0778.0286-.0778.0157 0 .0286-.056.0286-.1244 0-.0685.013-.1245.0287-.1245s.0286-.056.0286-.1245c0-.0684.0129-.1244.0286-.1244.0158 0 .0287-.07.0287-.1556 0-.0855.0128-.1555.0286-.1555.0168 0 .0286-.1083.0286-.2626 0-.1445.013-.2714.0287-.282.0171-.0115.0286-.2226.0286-.5289 0-.3062-.0115-.5173-.0286-.529-.0158-.0105-.0287-.1304-.0287-.2662 0-.144-.012-.247-.0286-.247-.0158 0-.0286-.0701-.0286-.1557 0-.0855-.013-.1555-.0287-.1555s-.0286-.056-.0286-.1245c0-.0684-.0129-.1244-.0286-.1244-.0158 0-.0287-.049-.0287-.109 0-.0598-.0129-.1088-.0286-.1088-.0158 0-.0286-.042-.0286-.0934 0-.0513-.013-.0933-.0287-.0933s-.0286-.042-.0286-.0934c0-.0513-.0129-.0933-.0286-.0933-.0158 0-.0287-.042-.0287-.0933 0-.0514-.0129-.0934-.0286-.0934-.0158 0-.0286-.028-.0286-.0622 0-.0342-.013-.0622-.0287-.0622s-.0286-.042-.0286-.0934c0-.0513-.0129-.0933-.0286-.0933-.0158 0-.0287-.028-.0287-.0623 0-.0342-.0129-.0622-.0286-.0622-.0158 0-.0287-.028-.0287-.0622 0-.0342-.0128-.0622-.0286-.0622-.0157 0-.0286-.028-.0286-.0623 0-.0342-.0129-.0622-.0287-.0622-.0157 0-.0286-.021-.0286-.0467 0-.0256-.0129-.0466-.0286-.0466-.0158 0-.0287-.023-.0287-.0508 0-.028-.0237-.0735-.0526-.1012-.029-.0276-.0615-.0888-.0722-.1358-.0107-.0471-.032-.0856-.0475-.0856-.0154 0-.028-.0249-.028-.0554 0-.0304-.0259-.0755-.0574-.1002-.0315-.0246-.0572-.0641-.0572-.0877 0-.0236-.0387-.082-.086-.13-.0472-.048-.0858-.1035-.0858-.1234 0-.02-.0645-.1045-.1432-.1878-.0787-.0833-.1432-.1597-.1432-.1696 0-.041-.432-.4838-.472-.4838-.0238 0-.0434-.0128-.0434-.0286 0-.0458-.2208-.2825-.2634-.2825-.0214 0-.0575-.028-.0802-.0623-.0227-.0342-.059-.0622-.0807-.0622-.0217 0-.0756-.042-.1197-.0933-.0442-.0514-.098-.0934-.1197-.0934-.0217 0-.0575-.0272-.0796-.0604-.022-.0332-.0893-.0695-.1495-.0805-.0601-.011-.1094-.0329-.1094-.0485 0-.0156-.0229-.0284-.051-.0284-.028 0-.0695-.028-.0922-.0622-.0226-.0342-.0706-.0622-.1065-.0622-.036 0-.0653-.014-.0653-.0311 0-.0172-.0257-.0312-.0572-.0312s-.0573-.014-.0573-.031c0-.0172-.0258-.0312-.0573-.0312s-.0572-.014-.0572-.0311c0-.0171-.0387-.0311-.086-.0311-.0472 0-.0858-.014-.0858-.0311 0-.0171-.0258-.0311-.0573-.0311s-.0573-.014-.0573-.0312c0-.017-.0386-.031-.0859-.031-.0472 0-.0859-.014-.0859-.0312 0-.0171-.0386-.0311-.0859-.0311-.0472 0-.0859-.014-.0859-.0311 0-.0171-.0386-.0311-.0859-.0311-.0472 0-.0859-.014-.0859-.0311 0-.0172-.045-.0312-.1002-.0312-.0551 0-.1002-.015-.1002-.0335 0-.0215-.0788-.0311-.222-.0268-.122.0036-.3443-.0091-.4939-.0283-.2457-.0314-1.0371-.0411-1.2885-.0157m.9103 3.217c1.3325.1556 2.2953 1.1242 2.6359 2.6517.1479.6632-.0715 1.8005-.4635 2.403-1.705 2.6205-5.4395 1.372-5.4442-1.8201-.0008-.554.0098-.6362.1347-1.0423.4399-1.4304 1.76-2.353 3.137-2.1922m.6069.971c-.0019.402-.2807.6234-.8133.6456l-.3745.0155-.0143.3838-.0144.3837-.0934.0908c-.0917.0888-.1002.0907-.4167.0907-.3897 0-.3918.0016-.3918.3038 0 .3805-.0884.3496.9982.3496 1.1878 0 1.1207-.0465 1.1207.7758v.4998h.1757c.3048 0 .4864.1022.6547.3684.0518.0821.2134-.1306.3743-.4928.0494-.1112.0994-.2232.1111-.249.0117-.0256.0377-.1236.0578-.2177a5.7982 5.7982 0 0 1 .0617-.2614c.0622-.224.0187-.859-.0835-1.217-.1685-.5903-.6554-1.2199-1.1572-1.4962-.176-.0969-.1945-.0943-.1951.0265m-3.256 1.8202c-.0428.1658-.0228.8203.032 1.0501.2186.9161.8661 1.6298 1.7063 1.8807.3096.0924.2902.1089.2808-.2382l-.0082-.3022-.0859-.0194c-.3114-.07-.4725-.3153-.4725-.7195v-.2252l-.6935-.7559c-.7485-.8157-.7266-.7964-.759-.6704"/><path fill="#FBCA32" d="M8.6244 2.0268c0 .0148-.0355.0345-.079.0438-.105.0226-.3205.2515-.3205.3405 0 .038-.0094.0793-.021.0917-.0116.0123-.0236.0789-.0268.1478-.0033.0689-.0179.1335-.0324.1435-.0145.01-.0248.085-.0229.1666.002.0816-.004.1534-.0133.1596-.0285.0189-.0309.375-.0027.3939.0145.0096.0343-.0547.044-.143a7.2026 7.2026 0 0 1 .0455-.329c.0154-.0927.0366-.2236.047-.2908.0641-.4135.4757-.6484.8263-.4714.1515.0765.2129.1587.3978.5323.0751.1518.2611.5242.4134.8277s.3385.676.4136.8277c.0752.1517.1719.3448.2147.4291.1739.3414.4467.887.621 1.2415.0704.1433.1503.302.1778.3526.0274.0505.1174.2299.2.3985.0826.1686.1856.3755.2289.4598.0433.0843.1333.2636.2.3985.1486.3006.2523.5063.3517.6974.0416.08.106.2042.143.2759.0371.0716.0927.1785.1236.2375.0727.1388.1605.155.2154.0401a8.6198 8.6198 0 0 1 .1133-.224c.0398-.0759.1558-.3104.258-.5211.1021-.2108.2176-.4453.2567-.5211.039-.076.1838-.3725.3215-.6591.3908-.813.4722-.9043.8062-.9043.3079 0 .4278.1175.692.6788.0982.2083.188.3926.1997.4094.0117.0169.1277.2514.2578.5211.13.2698.2618.5388.2927.5978.0308.059.1332.266.2274.4598.3669.7545.489 1.0041.5921 1.2109.2134.4275.4107.829.4405.8964.0167.0378.04.0688.0518.069.0118 0 .0214.0213.0214.0471 0 .0258.0192.0548.0427.0645.0234.0097.0355.03.0268.045-.0087.0152-.0022.0275.0144.0275s.0303-.0207.0303-.046-.0143-.046-.0318-.046c-.019 0-.0268-.0364-.0195-.0903.0068-.0497.0019-.0834-.011-.0748-.0129.0085-.0234-.006-.0234-.0323 0-.0263-.0118-.0478-.0263-.0478s-.042-.051-.0611-.1134c-.0192-.0623-.0716-.1802-.1164-.2619-.0449-.0817-.0816-.1617-.0816-.1779a.029.029 0 0 0-.0285-.0292c-.0157 0-.0285-.0354-.0285-.0785 0-.0445-.0124-.0702-.0286-.0595-.0157.0104-.0285-.0094-.0285-.0441s-.0129-.0632-.0286-.0632-.0285-.0276-.0285-.0613-.0128-.0613-.0285-.0613-.0286-.0276-.0286-.0613-.0128-.0613-.0285-.0613-.0286-.0276-.0286-.0613-.0097-.0613-.0215-.0613c-.012 0-.0396-.0449-.0616-.0996a1.2778 1.2778 0 0 0-.0926-.181c-.0289-.0448-.0526-.1004-.0526-.1235 0-.0232-.0257-.062-.057-.0864-.0315-.0243-.0571-.0687-.0571-.0987s-.0129-.0546-.0286-.0546-.0285-.0275-.0285-.0613c0-.0337-.0129-.0613-.0286-.0613s-.0285-.0253-.0285-.0562c0-.031-.0096-.0665-.0214-.0792-.0118-.0126-.0223-.0322-.0235-.0434-.0052-.0528-.0815-.189-.1057-.189-.015 0-.0206-.0276-.0124-.0613.0082-.0338.0049-.0613-.0073-.0613-.0333 0-.1137-.1923-.0944-.2258.0091-.016.0018-.0191-.0163-.007-.0181.012-.0345.0072-.0365-.0106-.002-.0179-.0051-.0463-.0071-.0632-.002-.0168-.039-.0782-.0821-.1363-.0432-.0581-.0785-.127-.0785-.1533 0-.0261-.0096-.0477-.0214-.0478-.0256-.0003-.0927-.1488-.0927-.2052 0-.0219-.0097-.0399-.0214-.04-.0257-.0004-.0928-.1488-.0928-.2052 0-.022-.0096-.04-.0214-.04-.026-.0004-.0928-.1492-.0928-.207 0-.023-.0102-.035-.0227-.0266-.0125.0083-.0529-.0598-.0897-.1515-.0368-.0916-.078-.1665-.0914-.1665-.0135 0-.0245-.0207-.0245-.046s-.0128-.046-.0285-.046-.0286-.0276-.0286-.0613-.0128-.0613-.0285-.0613-.0285-.0276-.0285-.0613-.0129-.0613-.0286-.0613-.0285-.0212-.0285-.047c0-.026-.045-.0953-.1-.1544-.0549-.059-.0998-.1206-.0998-.1368 0-.0163-.0257-.0297-.057-.0297-.0315 0-.0572-.0138-.0572-.0306a.0306.0306 0 0 0-.0302-.0307c-.0166 0-.0211.0173-.01.0383.016.0307.0124.0307-.0183 0-.0458-.0455-.3696-.0522-.3696-.0076 0 .0168-.0256.0306-.057.0306s-.0571.0108-.0571.024c0 .0131-.0367.0387-.0814.0569-.0471.019-.0982.0737-.1212.1293-.0218.053-.0494.0964-.0613.0964-.0118 0-.0215.0275-.0215.0613 0 .0337-.0129.0613-.0286.0613s-.0285.0276-.0285.0613-.0128.0613-.0285.0613-.0286.0217-.0286.0482c0 .0482-.0695.1428-.0893.1215-.0059-.0062-.0125.0231-.0149.0652-.0022.042-.0311.1073-.0642.145-.033.0377-.0599.0918-.0599.1202 0 .0285-.0128.0517-.0285.0517s-.0289.0241-.0292.0536c-.0004.0295-.0258.0881-.0565.1303-.0306.0421-.056.0939-.0564.115-.0004.021-.0135.0383-.0292.0383s-.0285.0276-.0285.0613-.0129.0613-.0286.0613-.0285.0268-.0285.0595c0 .0328-.0225.0777-.05.0997-.0274.022-.0535.0607-.0578.086-.0112.0648-.0657.1835-.1337.2912-.0318.0506-.0552.0953-.0517.0994.013.0152-.032.1161-.0612.137a.095.095 0 0 0-.0337.0612c-.0064.0772-.047.1776-.0719.1776-.0138 0-.0252.0276-.0252.0613s-.0128.0613-.0285.0613-.0286.0276-.0286.0613-.0128.0613-.0285.0613-.0285.0276-.0285.0613c0 .036-.019.0613-.0462.0613-.0315 0-.0415-.0187-.0318-.059.0101-.0414.0026-.0542-.0251-.0427-.0274.0113-.0396-.0078-.0396-.0618 0-.043-.0137-.0872-.0305-.0983-.0168-.0111-.024-.0384-.0161-.0606.008-.0222-.0012-.0468-.0204-.0547-.0192-.0079-.0601-.071-.091-.1402-.0308-.069-.0657-.1259-.0775-.126-.0118-.0003-.0214-.028-.0214-.0617 0-.0337-.0128-.0613-.0285-.0613s-.0286-.0345-.0286-.0767c0-.0421-.0128-.0766-.0285-.0766s-.0286-.0207-.0286-.046-.0128-.046-.0285-.046-.0285-.0275-.0285-.0613c0-.0337-.0097-.0614-.0214-.0615-.0257-.0003-.0928-.1488-.0928-.2052 0-.0219-.0128-.0398-.0285-.0398s-.0286-.0245-.0286-.0546c0-.03-.025-.0739-.0556-.0975-.0305-.0236-.05-.0528-.043-.0646.0068-.012-.0068-.0387-.0301-.0595-.0234-.0209-.0425-.0638-.0425-.0954 0-.0317-.0097-.0577-.0214-.0577-.0118 0-.0535-.0759-.0928-.1685-.0392-.0925-.081-.1684-.0927-.1685-.0118 0-.0214-.0277-.0214-.0614 0-.0337-.0137-.0613-.0303-.0613s-.0223-.0138-.0126-.0306c.0098-.0169-.002-.0307-.026-.0307-.0268 0-.0372-.0175-.0272-.0457.0095-.0266-.0037-.054-.0315-.0655-.0344-.0142-.043-.0408-.0304-.0948.0113-.0481.007-.068-.0121-.0553-.0164.0109-.0297-.0022-.0297-.029 0-.0269-.02-.057-.0445-.0671-.0244-.0101-.0378-.0368-.0297-.0594.008-.0226.0023-.0492-.0127-.0592-.015-.01-.0273-.0434-.0273-.0743 0-.0309-.019-.064-.0423-.0737-.0263-.0108-.0352-.0373-.0237-.0696.0126-.0353.0079-.045-.0148-.03-.0192.0128-.0333.0045-.0333-.0198 0-.0231-.0257-.0717-.0571-.1079-.0314-.0361-.0571-.0862-.0571-.1112 0-.025-.0128-.054-.0285-.0644s-.0286-.0465-.0286-.0803c0-.0337-.0128-.0528-.0285-.0423-.0157.0104-.0286-.0095-.0286-.0442s-.0128-.0631-.0285-.0631-.0285-.0265-.0285-.0588c0-.0323-.0097-.0633-.0214-.069-.0193-.0092-.1055-.1703-.1898-.3548-.0173-.0378-.041-.0688-.0528-.069-.0118-.0001-.0214-.0278-.0214-.0615s-.0129-.0613-.0286-.0613-.0285-.0276-.0285-.0613-.0129-.0613-.0286-.0613-.0285-.0276-.0285-.0613c0-.0338-.0128-.0614-.0285-.0614s-.0286-.0275-.0286-.0613c0-.0337-.0128-.0613-.0285-.0613s-.0286-.0207-.0286-.046c0-.0252-.0117-.046-.026-.046-.0143 0-.0228-.0238-.0188-.053.004-.0292-.0225-.0782-.059-.109-.0364-.0308-.064-.0656-.0613-.0773.0028-.0116-.0423-.1246-.1004-.251-.058-.1264-.1055-.2471-.1055-.2683 0-.021-.01-.0383-.0224-.0383-.0123 0-.0474-.0449-.0779-.0997-.0545-.0978-.0601-.1127-.0674-.178-.0019-.018-.0164-.024-.032-.0136-.0158.0105-.0286-.0012-.0286-.026 0-.0523-.1184-.3064-.1498-.3214-.0118-.0056-.0214-.0367-.0214-.069s-.0097-.0588-.0214-.059c-.0257-.0002-.0928-.1487-.0928-.205 0-.022-.0107-.04-.0237-.04s-.0419-.0379-.064-.0842c-.0494-.1033-.1571-.2106-.262-.2608-.043-.0208-.0784-.0482-.0784-.061C9.024 2.0104 8.9341 2 8.8242 2c-.1099 0-.1998.012-.1998.0268m-.5988 1.7026c0 .1939.0768.2372.086.0486a4.173 4.173 0 0 1 .01-.1585c.0022-.0196-.0185-.0414-.046-.0485-.036-.0092-.05.0351-.05.1584m-.0571.3679c0 .1848.0757.2406.0867.0638.0036-.059.008-.1303.01-.1584a.0646.0646 0 0 0-.0467-.0638c-.036-.0092-.05.035-.05.1584m-.0576.3532c0 .0833.0145.1589.0322.168.0365.0185.0899-.2496.0582-.292-.0512-.0684-.0904-.0147-.0904.124m-.057.3697c0 .1022-.0127.184-.0286.184-.0158 0-.0285.0817-.0285.1838 0 .1012.0113.184.025.184.0313 0 .1286-.6613.1038-.7045-.044-.0763-.0717-.0172-.0717.1527m-.1142.7645c0 .1747.049.2297.0796.0895.0349-.1592.025-.241-.0293-.241-.038 0-.0503.0373-.0503.1515m-.057.3697c0 .1115-.0122.184-.031.184-.0201 0-.0275.0748-.0214.2146.007.1598.0002.2146-.0272.2146-.027-.0001-.0354.0575-.0316.2162.003.1286-.0082.2306-.0275.2514-.018.0192-.0326.1081-.0326.1975 0 .0894-.0129.1625-.0286.1625-.0158 0-.0285.0811-.0285.182 0 .1002-.0128.1907-.0285.2011-.0157.0105-.0286.101-.0286.2011 0 .101-.0127.1821-.0285.1821-.0157 0-.0286.0786-.0286.1747 0 .2726.0448.159.1112-.282.033-.2191.0726-.4674.088-.5517.0155-.0843.0533-.3326.0842-.5518.031-.2192.0647-.4537.075-.5212a5.3016 5.3016 0 0 0 .0328-.2912c.0078-.0927.0265-.1849.0417-.2049.0181-.0237.0168-.0584-.0038-.0996-.0555-.1115-.0866-.0683-.0866.1206m13.0999 1.8393c0 .0168-.0257.0306-.0571.0306s-.057.0138-.057.0307c0 .0168-.02.0306-.0441.0306-.056 0-.0814.023-.3645.3296-.1285.1392-.391.422-.5833.6285-.4154.4459-.748.806-1.2414 1.3443-.2002.2183-.364.3902-.364.3821 0-.0129-.088.083-.536.5829-.0515.0575-.1029.1309-.1141.1632-.0113.0322-2.8074 3.0616-6.2137 6.732-3.4062 3.6703-6.1973 6.6924-6.2024 6.716-.0124.0574.1053.0559.1651-.0023.0406-.0395.0564-.039.1307.0044.0464.027.1358.0766.1986.1101s.1463.0846.1855.1135c.0393.029.1548.101.2569.16.102.059.2465.144.321.1887l.2712.1626c.0745.0447.187.1102.2497.1456.0628.0354.1206.0712.1284.0796.0125.0134.0823.0553.3282.197.0314.0182.0635.0399.0714.0484.0078.0084.0528.0358.0999.061.047.0251.1562.0886.2426.1411.0863.0525.2276.1368.314.1873.1473.0863.2133.1263.478.2896.0588.0364.1712.1032.2497.1485.0785.0454.194.1144.2568.1533.0628.039.1784.108.257.1537.0784.0456.3545.2107.6135.367.259.1564.5351.3204.6136.3646.0785.0442.1491.0872.157.0957.0078.0084.045.0338.0824.0565.0375.0226.1145.0696.1712.1043.0568.0348.1674.1003.2458.1458.16.0925.2578.1513.824.4951.2178.1323.3998.2405.4045.2405.0047 0 .1155.0655.2462.1457.1308.0802.2763.1663.3234.1915.047.0252.092.0528.0999.0612.0179.0193.1232.084.271.1664.0629.035.1207.0715.1285.081.0391.048.5207.277.6696.3184.5367.1495.9792.0305 1.7849-.48.1886-.1196.3-.187.4709-.2853.2149-.1235.6234-.3672.997-.5945.158-.0962.3097-.184.3372-.1953.0832-.0338.0569-.0887-.1594-.3319-.1915-.2152-.511-.6694-.6772-.9624a6.7096 6.7096 0 0 1-.7347-1.962c-.2542-1.2457-.1282-2.7394.3235-3.8373.1082-.263.2854-.6388.3057-.6483.012-.0057.0217-.0226.0217-.0378 0-.1377.7462-1.1863 1.046-1.4697 1.0143-.9595 1.871-1.4211 3.1208-1.6816.5195-.1082 1.6995-.1085 1.964-.0004.0408.0166.0856.0156.1146-.0026.0278-.0175.0328-.0303.012-.0309-.0245-.0006-.0357-.0586-.0357-.1848 0-.1022-.0127-.184-.0285-.184-.0159 0-.0286-.0817-.0286-.1839 0-.1021-.0127-.1839-.0285-.1839s-.0285-.0817-.0285-.1839c0-.1022-.0127-.184-.0286-.184-.0167 0-.0285-.1027-.0285-.247 0-.1569-.0104-.2401-.0286-.228-.0179.0118-.0285-.0553-.0285-.1804 0-.1096-.0128-.2078-.0285-.2182-.0157-.0104-.0286-.101-.0286-.201 0-.101-.0127-.1822-.0285-.1822-.0159 0-.0286-.0817-.0286-.1839 0-.1021-.0127-.184-.0285-.184-.0157 0-.0285-.0758-.0285-.1685s-.0129-.1686-.0286-.1686c-.0158 0-.0285-.0818-.0285-.184 0-.102-.0127-.1839-.0286-.1839-.0158 0-.0285-.0817-.0285-.1839 0-.1021-.0127-.184-.0285-.184-.0159 0-.0286-.0817-.0286-.1838 0-.1022-.0127-.184-.0285-.184-.0157 0-.0286-.0758-.0286-.1686 0-.0927-.0116-.1686-.0258-.1686-.0141 0-.0349-.1483-.046-.3295-.0113-.1812-.0307-.3433-.0432-.3602-.0125-.0168-.0259-.1065-.0297-.1992-.004-.0928-.0165-.1824-.028-.1993-.023-.034-.0527-.281-.0744-.6207-.0079-.1223-.026-.2223-.0405-.2223-.0145 0-.0263-.075-.0263-.1667 0-.0918-.0128-.1754-.0285-.1858-.0157-.0104-.0286-.094-.0286-.1858 0-.0917-.0128-.1667-.0285-.1667-.0159 0-.0286-.0818-.0286-.184 0-.1021-.0127-.1839-.0285-.1839-.0157 0-.0285-.075-.0285-.1667 0-.0918-.0129-.1754-.0286-.1858-.0157-.0104-.0285-.094-.0285-.1858 0-.0917-.0129-.1667-.0286-.1667-.0158 0-.0285-.0818-.0285-.184 0-.1021-.0127-.1839-.0285-.1839-.0157 0-.0286-.075-.0286-.1667 0-.0918-.0128-.1754-.0285-.1858-.0157-.0104-.0286-.0871-.0286-.1704 0-.0834-.0128-.1515-.0285-.1515s-.0285-.0245-.0285-.0545-.0275-.0748-.061-.0997a1.221 1.221 0 0 1-.1272-.114c-.0364-.038-.0988-.069-.1388-.069-.04 0-.0726-.0138-.0726-.0306 0-.0174-.0808-.0307-.1855-.0307s-.1855.0133-.1855.0307m-13.4834.775c-.0255.0509-.001.2596.0333.286.0106.008.032-.0497.0473-.1284.0286-.1463-.0294-.2598-.0806-.1575m-.069.497c0 .164.035.2184.0772.1201.0417-.0972.023-.2887-.0281-.2887-.0365 0-.049.043-.049.1686m-.0526.3679c.0108.131.005.1686-.0258.1686-.03 0-.0398.0492-.0398.1992 0 .2961.0668.2755.0996-.0306.0524-.4911.0524-.5058.001-.5058-.042 0-.047.024-.035.1686m-.0988.6191c-.022.0346-.0031.2548.0238.277.037.0306.0512-.0007.0649-.1423.0118-.1221-.0433-.2057-.0887-.1347m-.0529.3823c-.0182.2087.008.34.0596.2989.045-.036.0398-.3145-.006-.3266-.0275-.0073-.0516.0051-.0536.0277m-.0658.3857c-.0135.047-.0118.1202.0061.282.0102.0914.0608-.0177.0811-.1747.0209-.161-.0477-.2454-.0872-.1073m-.048.5594c0 .1226-.0121.2146-.0285.2146-.016 0-.0285.0862-.0285.1974 0 .1086-.0128.206-.0285.2164-.0157.0105-.0286.094-.0286.1858 0 .0917-.0128.1668-.0285.1668s-.0286.068-.0286.1514c0 .0833.0129.16.0286.1704.0177.0118.0285-.0456.0285-.1514 0-.0937.0129-.1704.0286-.1704s.0285-.0731.0285-.1625c0-.0894.0116-.1756.0259-.1916.0143-.016.0328-.098.0412-.1824.0381-.38.0497-.465.0738-.5415.0273-.087.0155-.1176-.0458-.1176-.028 0-.038.0562-.038.2146m-.2273 1.5174c0 .1908.064.2298.086.0525.0177-.1422.0002-.221-.0489-.221-.0204 0-.0371.0758-.0371.1685m-.0581.3679c0 .0927.0156.1686.0348.1686.0191 0 .0348-.0328.0348-.0728s.0099-.116.0218-.1686c.0172-.076.01-.0958-.0348-.0958-.0454 0-.0566.0334-.0566.1686m-.0543.3755c-.0007.0885.0147.161.0343.161.059 0 .0731-.2149.018-.2705-.0435-.0438-.0512-.0275-.0523.1095m-.0599.3755c0 .0843.0151.1533.0337.1533.042 0 .086-.2025.057-.2624-.045-.0928-.0907-.038-.0907.1091m-.057.4003c0 .116-.0108.1786-.0286.1668-.0178-.0118-.0285.0508-.0285.1668 0 .1021.0107.1857.0238.1857.0281 0 .1177-.6108.0978-.6667-.0334-.094-.0646-.0228-.0646.1474m-.0937.6067c-.0263.0354-.0167.2805.011.2805.0521 0 .1028-.2732.0534-.2889-.0259-.0082-.0548-.0045-.0644.0084m-.0775.4932c0 .0833.0155.16.0345.1705.019.0104.0346-.006.0348-.0365.0003-.0305.01-.1072.0218-.1705.0174-.0936.011-.115-.0349-.115-.0444 0-.0562.032-.0562.1515m-.0214.2643c-.0412.048-.0488.2893-.009.2893.0146 0 .0329-.0241.0406-.0536.0587-.224.0452-.325-.0316-.2357m-.0597.4215c-.0346.0448-.0395.389-.0055.389.0119 0 .0298-.0748.0398-.166.01-.0913.026-.1879.0355-.2146.021-.0587-.0265-.0645-.0698-.0084m-.0901.5097c0 .0496.0153.0985.034.1086.0408.022.0877-.12.055-.1663-.0436-.0616-.089-.032-.089.0577m-.0571.3707c0 .123.043.1622.0802.0731.0351-.0835.0224-.1588-.0299-.1771-.0395-.0138-.0503.0085-.0503.104m-.0289.2673c-.0192.0784-.0119.3142.0096.3142.0303 0 .076-.159.076-.2644 0-.0652-.0717-.107-.0856-.0498m-.0708.3836c-.015.0315-.0017.2016.0208.2678.014.041.0704-.1196.0728-.207.0026-.0978-.0576-.137-.0936-.0608m-.0652.4823c.006.0843.0271.1533.047.1533s.041-.069.047-.1533c.0087-.1239-.0002-.1532-.047-.1532s-.0558.0293-.047.1532m-.036.3296c-.0092.0295-.006.095.007.1456l.0237.092.0283-.1035c.0462-.1688-.0092-.2946-.059-.1341m-.0703.4266c0 .0871.0195.148.05.1558.0356.0091.05-.032.05-.143 0-.1043-.0165-.1559-.05-.1558-.0328 0-.05.0491-.05.143m-.0418.378c0 .1705.0628.2095.0863.0537.0188-.1244-.001-.207-.0492-.207-.0204 0-.0371.069-.0371.1533m-.057.3832c0 .1908.064.2298.086.0525.0177-.1421.0002-.221-.0489-.221-.0204 0-.0371.0758-.0371.1685m-.0581.3832c0 .0843.0128.1533.0285.1533s.0286-.0386.0286-.0859c0-.0472.0159-.1029.0354-.1239.0282-.0302.0268-.0439-.0071-.067-.074-.0502-.0854-.0336-.0854.1235m-.0538.3874c-.0039.0987.0061.1644.025.1644.0174 0 .0316-.0423.0316-.094s.0132-.1191.0293-.1499c.0228-.0435.0173-.0591-.025-.0704-.047-.0126-.0552.008-.0609.1499m-.025.2866c-.0424.0728-.0472.2456-.0068.2456.0157 0 .0285-.0524.0285-.1165 0-.064.0154-.133.0342-.1532.0189-.0203.022-.0368.0069-.0368-.015 0-.0433.0274-.0628.061m-.0896.5214c0 .0506.018.092.04.092.022 0 .04-.0414.04-.092s-.018-.092-.04-.092c-.022 0-.04.0414-.04.092m-.057.3525c0 .0422.018.0767.04.0767.022 0 .04-.0345.04-.0767 0-.0421-.018-.0766-.04-.0766-.022 0-.04.0345-.04.0766m-.0572.3679c0 .0422.018.0766.04.0766.022 0 .04-.0344.04-.0766 0-.0421-.018-.0766-.04-.0766-.022 0-.04.0345-.04.0766m-.057.3679c0 .0421.018.0766.04.0766.022 0 .04-.0345.04-.0766 0-.0422-.018-.0767-.04-.0767-.022 0-.04.0345-.04.0767m-.0305.3116c-.0415.0318-.0314.1328.0133.1328.022 0 .04-.0344.04-.0766 0-.0802-.0092-.09-.0533-.0562m-.0494.3398a.921.921 0 0 1-.0164.0764c-.0074.0295.003.0613.0231.0709.02.0095.0364-.025.0364-.0765 0-.0807-.0343-.137-.043-.0708m-.2056 1.2225c0 .0275.018.05.04.05.022 0 .04-.0225.04-.05 0-.0275-.018-.05-.04-.05-.022 0-.04.0225-.04.05"/><path fill="#F38212" d="M12.5733 9.082c-.0298.0449-.1409.2552-.2468.4673a53.4728 53.4728 0 0 1-.2696.5341 47.2614 47.2614 0 0 0-.2548.5045c-.0978.1958-.3018.6031-.4534.905a960.1894 960.1894 0 0 0-.752 1.4985 85.135 85.135 0 0 1-.2468.4896c-.0907.1778-.2455.4866-.6098 1.2166-.0774.155-.1916.382-.2539.5045-.0622.1224-.225.4495-.3618.727-.1368.2774-.271.5445-.2983.5934-.0272.049-.1229.236-.2126.4155-.1529.306-.2323.4643-.5772 1.1498-.076.151-.218.4347-.3157.6306-.0977.1958-.225.4495-.283.5637-.058.1143-.198.3947-.3114.6232-.1134.2285-.241.4822-.2836.5638a43.8898 43.8898 0 0 0-.255.5044c-.0977.1959-.2061.4095-.2409.4748-.0349.0653-.1435.279-.2416.4748-.098.1958-.2227.4428-.2772.549-.2725.5312-.3376.6616-.474.9495-.1657.35-.1999.445-.16.445.0335 0 9.8353-10.2973 9.8757-10.3752.0158-.0304.0426-.0656.0596-.0783.017-.0128-.0058-.0195-.0505-.0149-.057.0058-.0907-.0094-.1133-.051-.0177-.0327-.0403-.0661-.0502-.0743-.0098-.0081-.0449-.0649-.078-.126a96.7005 96.7005 0 0 0-.1133-.21c-.0492-.091-.1344-.2585-.478-.9399-.07-.1387-.1622-.319-.205-.4006a43.7191 43.7191 0 0 1-.2703-.5341c-.106-.2122-.2368-.4726-.2908-.5786-.054-.1061-.1583-.313-.2316-.46C12.791 9.1084 12.7294 9 12.666 9c-.0212 0-.063.0367-.093.0816m9.1262 7.8767c.074.0082.1952.0082.2692 0 .074-.0082.0135-.015-.1346-.015-.148 0-.2087.0068-.1346.015M5 23.9583c0 .0574.0322.082.076.0584.0343-.0186.035-.0291.0043-.0567C5.032 23.9167 5 23.916 5 23.9583"/><path fill="#FBA214" d="M8.6794 2.0728c-.1998.106-.3135.262-.347.4755a30.7602 30.7602 0 0 1-.0474.2908 7.1361 7.1361 0 0 0-.046.329c-.0098.0883-.0268.1545-.0379.1472-.011-.0073-.0223.0714-.025.1749-.0027.1033-.0147.1958-.0268.2053-.012.0095-.0256.0928-.0304.185-.0047.0922-.0225.1769-.0397.1881a.0392.0392 0 0 0-.0132.0515c.0291.05-.0144.3142-.0481.292-.019-.0125-.0224.0013-.0093.0374.0262.0727-.066.7194-.1027.7194-.015 0-.0187.029-.008.0644.0253.085-.0117.3403-.0461.3176-.0355-.0234-.0341.0064.0039.0819.02.0398.021.074.0028.0976-.0154.02-.0343.1122-.0422.205a5.2517 5.2517 0 0 1-.033.2912c-.0105.0674-.0446.302-.0758.5211-.0312.2192-.0695.4675-.085.5518-.0157.0843-.0558.3326-.0892.5518-.0335.2192-.0735.4152-.089.4355-.0154.0204-.0196.0514-.0093.0691.0102.0176.0097.0955-.0012.173-.0136.096-.0279.1277-.0449.0995-.0147-.0244-.0176.0173-.007.1021.0227.1826-.0044.3009-.0693.3015-.0397.0004-.0417.006-.01.0274.0303.0204.0353.0699.0209.2064-.0105.0987-.026.2486-.0346.3329-.0086.0843-.035.1692-.0587.1887-.0247.0203-.0312.0431-.0152.0536.0255.0167.0127.2595-.0154.2932-.0066.008-.0241-.0058-.0389-.0306-.0212-.0358-.0269-.0313-.0272.022-.0002.037.0121.0755.0276.0857.0161.0106.0205.0803.0104.1627-.0203.1651-.0322.1895-.0648.1332-.0183-.0315-.027-.0297-.0408.0085-.0113.0313-.0018.0486.0266.0486.036 0 .0407.0269.0258.1456-.0266.2111-.0436.252-.0728.1763-.023-.0595-.0238-.0594-.0257.0044-.0011.0362.0169.0735.0402.0829.0326.0133.036.0366.0149.103-.0255.0802-.0371.1637-.0758.5454-.0085.0844-.0273.1664-.0417.1824-.0144.016-.0261.1023-.0261.1916 0 .0894-.013.1625-.0289.1625-.0158 0-.0288.0767-.0288.1705 0 .0958-.0116.1627-.0265.153-.015-.0099-.0268.0647-.0273.1716-.0005.104-.0113.1973-.024.2072-.0127.01-.0275.0927-.0328.1839-.0053.0912-.0281.1855-.0507.2095-.0225.0239-.0319.0591-.0209.0782.0258.0443.0138.2446-.0159.266-.0124.009-.0233.0904-.0242.1809-.001.0906-.015.1733-.0312.184-.0162.0106-.0285.0676-.0273.1266.0032.1604-.0708.6437-.0985.6437-.0134 0-.0242.0207-.0242.046s.0111.046.0248.046c.03 0-.0276.2525-.064.28-.0142.0109-.0172.0346-.0067.0527.027.0465-.0136.3441-.0443.324-.0352-.0232-.0315.0293.0048.068.0364.0386-.0108.2954-.0572.3119-.036.0128-.0408.088-.0065.1028.031.0131-.0278.424-.0606.424-.0137 0-.0166.0276-.0065.0613.0236.0793-.0096.1908-.0492.1647-.021-.0138-.0243.0328-.0107.149.0145.1228.0094.1805-.0185.2112-.0245.027-.038.1186-.0376.2543.0004.1324-.0117.2164-.0323.2237-.0181.0064-.0264.0385-.0183.0711.0188.0765-.0168.281-.0456.2621-.0121-.008-.0194.0745-.0161.1831.0042.143-.0043.1975-.031.1975-.0449 0-.0777.1156-.0368.13.0188.0067.021.0598.006.1472-.0228.1342-.0236.135-.0444.0447-.0116-.0506-.0137.031-.0047.1813.0151.2523.0125.2717-.0344.2526-.0437-.0178-.0478-.0089-.0292.0639.027.1061.019.292-.0135.3137-.0135.009-.0254.0988-.0265.1998-.0011.101-.0154.1883-.0318.1942-.0417.0147-.0373.0893.0062.1063.0288.0112.0288.0222 0 .0547-.0198.0224-.036.0792-.036.1264 0 .0472-.013.0859-.0289.0859-.0158 0-.0288.0207-.0288.046 0 .0252.0134.046.0298.046.0206 0 .0206.0183 0 .0593-.0164.0325-.0298.1004-.0298.1506 0 .0503-.0162.0985-.036.107-.028.0121-.0273.022.003.0448.0274.0203.0295.0354.0073.0501-.0176.0115-.032.0753-.032.1418 0 .0664-.013.1208-.0288.1208-.016 0-.0288.0817-.0288.1839 0 .1022-.0128.184-.0288.184-.0159 0-.0289.0758-.0289.1685 0 .0928-.013.1686-.0288.1686-.016 0-.0288.081-.0288.1814 0 .1017-.0136.1862-.031.1923-.017.0062-.0308.089-.0308.1866 0 .0965-.012.1755-.0268.1755-.0147 0-.0267.0414-.0267.092 0 .0505-.013.092-.0288.092-.0159 0-.0289.0146-.0289.0324 0 .0179.013.024.0289.0135.0163-.0107.0288.015.0288.0595 0 .0431-.013.0784-.0288.0784-.0161 0-.0289.0824-.0289.1858 0 .116-.0108.1786-.0288.1668-.018-.0118-.0288.0463-.0288.1533 0 .0947-.0106.1652-.0235.1567-.013-.0084-.0267.0489-.0305.1275-.0038.0786-.0225.1633-.0413.188-.027.0356-.0266.0404.0016.0223.023-.0146.036-.0049.036.0266 0 .0273-.013.041-.0288.0307-.0175-.0115-.0288.0334-.0288.1146 0 .0735-.0156.1502-.0346.1705-.0269.0286-.0269.0368 0 .0368.019 0 .0346.0206.0346.046 0 .0252-.013.046-.0288.046-.0159 0-.0289.0689-.0289.1532 0 .102.012.1534.036.1537.0248.0003.023.0094-.0058.0287-.023.0155-.0521.0213-.0648.013-.0126-.0083-.023-.0013-.023.0156 0 .098.1696-.07 1.3998-1.3853l1.353-1.4468-1.2685 1.3412c-.6976.7377-1.279 1.3412-1.2918 1.3412-.036 0 .0037-.109.1672-.4598.1387-.2974.2048-.4321.482-.981.0554-.1096.1822-.3648.282-.5671.0997-.2024.2102-.423.2457-.4905.0354-.0675.1456-.2882.245-.4905a45.624 45.624 0 0 1 .2594-.5212c.0433-.0843.1731-.3464.2884-.5824.1153-.236.2579-.5258.3168-.6438.059-.118.1885-.3801.2878-.5824a266.95 266.95 0 0 1 .3211-.6515c.3508-.7082.4316-.8717.5871-1.1879.0913-.1854.1885-.3786.2163-.4292.0277-.0505.1642-.3264.3034-.613.139-.2867.3046-.6247.368-.7511.0633-.1265.1795-.361.2582-.5212.3705-.7542.528-1.0732.6202-1.2569.055-.1096.168-.3372.251-.5058.1485-.3013.2024-.4105.7649-1.548.1542-.312.3617-.7328.4612-.935.0993-.2024.216-.437.2592-.5212.043-.0843.1665-.3326.2742-.5518.3792-.7717.2955-.8155.9377.4905.0745.1517.1805.3655.2355.4751.055.1096.188.3786.2958.5978.1077.2192.2314.4675.275.5518.0435.0843.1373.2705.2085.4139.3494.704.436.877.4861.971.03.056.0818.1536.1153.2169.0336.0632.0693.1218.0793.1302.01.0085.033.043.051.0767.0226.0424.0568.0585.1106.052.094-.011.0986-.0183-.2288.3583-.1262.1452.3966-.398 1.1619-1.2074 1.4167-1.498 1.5026-1.6024 1.44-1.7484-.0323-.0756-.0807-.1025-.0807-.045 0 .017.013.0307.0288.0307.0159 0 .0289.0207.0289.046s-.0138.046-.0306.046-.0234-.0123-.0146-.0274-.0034-.0354-.027-.045a.0753.0753 0 0 1-.0431-.0645c0-.0259-.0098-.0471-.0217-.0473-.0119-.0001-.0354-.0311-.0523-.069-.03-.0672-.2294-.4688-.4448-.8964-.1042-.2068-.2275-.4564-.598-1.2109a28.2027 28.2027 0 0 0-.2298-.4598c-.0312-.059-.1642-.328-.2956-.5978-.1314-.2698-.2485-.5043-.2604-.5211-.0118-.0169-.1025-.2011-.2016-.4094-.267-.5614-.388-.679-.699-.679-.3373 0-.4195.0914-.8141.9044-.1392.2867-.2853.5832-.3248.6591-.0394.0759-.1561.3104-.2593.5212-.1031.2107-.2204.4452-.2605.5211a8.5874 8.5874 0 0 0-.1144.224c-.0555.115-.1442.0987-.2176-.04a72.4373 72.4373 0 0 1-.1248-.2376 185.002 185.002 0 0 0-.1445-.276 37.1068 37.1068 0 0 1-.3552-.6974 35.673 35.673 0 0 0-.202-.3985 35.3017 35.3017 0 0 1-.2312-.4598c-.0834-.1686-.1743-.348-.202-.3985-.0277-.0506-.1085-.2093-.1796-.3526a116.774 116.774 0 0 0-.627-1.2415 59.1071 59.1071 0 0 1-.217-.4292 237.4278 237.4278 0 0 0-.4177-.8277c-.1538-.3035-.3417-.676-.4175-.8277-.2807-.5616-.5434-.72-.8894-.5364m6.3805 3.818c0 .0091.0324.0511.072.0933.084.0892.0953.0599.0161-.0411-.052-.0662-.0881-.0877-.0881-.0523m.1766.2209c-.0003.038.0174.069.0394.069.05 0 .05-.0325 0-.092-.0314-.0372-.039-.0328-.0394.023m-3.722.1423c0 .0235.0267.0508.0594.0606.0486.0147.052.0068.0182-.0427-.0485-.071-.0777-.0777-.0777-.0179m1.1836 2.3255c-.001.0463.0112.0843.027.0843.016 0 .0289.0207.0289.046a.047.047 0 0 0 .0477.046c.0438 0 .044-.0045.0015-.0543-.0254-.0299-.059-.0885-.0747-.1303l-.0285-.076-.0019.0843m4.7347 1.985c.0204.0505.0503.0919.0664.0919.0162 0 .0054-.0414-.0238-.092-.0292-.0506-.059-.092-.0663-.092-.0074 0 .0033.0414.0237.092m-2.9643 3.901l-.2877.3142.2955-.306c.2744-.2842.3085-.3225.2876-.3225-.0042 0-.1372.1414-.2954.3143m-.6183.6505c-.1335.1427-.237.2636-.23.2685.0071.005.1224-.112.2561-.2596.1339-.1477.2373-.2686.23-.2686-.0073 0-.1225.1168-.2561.2597m-.651.699c-.1879.2078-.1897.211-.0293.0529.094-.0928.1895-.1865.2124-.2083.0228-.022.036-.0456.0293-.0528-.0068-.0072-.1023.0866-.2124.2083m-.5317.5587c-.07.0758-.1208.138-.113.138.008 0 .0718-.0622.1418-.138.07-.0759.1209-.138.113-.138-.008 0-.0717.0621-.1418.138m-.2823.3c-.0667.0723-.1212.1423-.1212.1555 0 .0132.0162.005.036-.0183.0198-.0233.0807-.0933.1353-.1555.1378-.1568.0983-.1424-.05.0183m-.3094.3291c-.0777.084-.1323.1526-.1214.1526.0271 0 .2873-.279.2737-.2935-.006-.0064-.0746.057-.1523.1409m-.2747.2982l-.0993.115.108-.1056c.1007-.0985.1214-.1244.0994-.1244-.0048 0-.0534.0518-.1081.115m-.4846.5211c-.067.0801-.8964.9734-1.8428 1.985l-1.721 1.8393 1.7386-1.8393c1.5365-1.6256 2.0008-2.1306 1.959-2.1306-.0067 0-.0668.0656-.1338.1456m6.5808 1.1803l-.0847.0996.0937-.09c.0515-.0495.0937-.0944.0937-.0997 0-.0236-.0238-.0028-.1027.09m-1.7804 4.5601c0 .0928.0075.1307.0167.0843a.524.524 0 0 0 0-.1686c-.0092-.0464-.0167-.0084-.0167.0843M5.2155 24.5746c-.0498.0585-.0097.1526.0649.1526.0434 0 .1803.0756.1805.0997.0002.0126.0262.023.0579.023s.0576.0137.0576.0306.0249.0307.0553.0307c.0303 0 .0595.0103.0649.023.0145.0348.1904.1609.2246.1609.0165 0 .03.0138.03.0307 0 .0168.0187.0306.0415.0306.0458 0 .2507.1193.2788.1622.0096.0148.026.0257.0361.024.0103-.0017.083.0316.1616.074.0787.0424.16.077.1808.077.0208 0 .0566.0276.0794.0613.0229.0338.0647.0613.0928.0613.0283 0 .0513.0138.0513.0307 0 .0169.026.0307.0577.0307.0317 0 .0576.0138.0576.0306 0 .0169.017.0307.0379.0307.0207 0 .0629.0241.0937.0537.0307.0295.1207.0879.2.1298.0792.042.1505.0843.1585.0942.0079.01.0727.0515.144.0924.0714.0409.1341.0847.1394.0974.0053.0126.0345.023.0648.023.0304 0 .0553.0138.0553.0306 0 .0169.026.0307.0577.0307.0317 0 .0576.012.0576.0269 0 .0148.039.0441.0865.065.0475.021.0865.0502.0865.0651 0 .0148.0259.0269.0576.0269s.0577.0112.0577.025c0 .0136.0456.0439.1015.0672.0558.0233.1224.067.148.0971.0257.0301.0902.0635.1436.0741.0533.0106.0969.0316.0969.0466s.026.0272.0576.0272c.0317 0 .0577.0138.0577.0307 0 .0168.023.0306.0513.0306.0282 0 .07.0276.0928.0613.0228.0338.0646.0613.0928.0613.0283 0 .0513.0138.0513.0307 0 .0169.026.0307.0577.0307.0317 0 .0576.0138.0576.0306 0 .0169.0246.0307.0546.0307.03 0 .0614.0191.07.0426.0084.0234.0909.0816.1832.1293.0923.0476.1858.1051.2077.1277.0218.0227.09.0644.1513.0926.0613.0283.1115.062.1115.0748 0 .0129.0169.0235.0375.0235.053 0 .1926.072.1929.0996.0001.0126.0261.023.0578.023.0318 0 .0577.012.0577.0269s.039.0441.0865.065c.0475.021.0864.0502.0864.0651 0 .0148.024.027.0532.027.0293 0 .0764.0272.1047.0605.0284.0333.0629.0532.0766.0442.0137-.009.025-.0019.025.016s.0168.0325.0374.0325c.053 0 .1927.0721.193.0996.0001.0127.0261.023.0578.023.0317 0 .0577.0138.0577.0307 0 .0168.017.0306.0378.0306s.0656.0276.0997.0613c.034.0338.0818.0614.1063.0614.0244 0 .0444.0137.0444.0306s.026.0307.0577.0307c.0317 0 .0576.0138.0576.0306 0 .0169.023.0307.0513.0307.0282 0 .07.0276.0928.0613.0229.0337.0647.0613.0929.0613.0282 0 .0513.0112.0513.0249 0 .0137.0454.044.1009.067.0554.0232.1008.0534.1008.0671 0 .0137.0195.025.0433.025.0238 0 .0432.0137.0432.0306 0 .0168.0207.0306.046.0306s.0804.0248.1225.055c.042.0303.1414.0882.2206.1287.0793.0406.1679.0948.197.1206.0289.0257.1173.076.1964.1115.079.0356.169.0876.1998.1157.0308.028.0689.051.0846.051.0156 0 .0285.0138.0285.0307 0 .0168.0259.0306.0576.0306s.0577.0138.0577.0307c0 .0168.0259.0306.0576.0306s.0577.0138.0577.0307c0 .0168.02.0306.0444.0306s.0723.0276.1063.0613c.034.0338.079.0614.0997.0614.0208 0 .0378.0137.0378.0306s.026.0307.0577.0307c.0317 0 .0578.0172.058.0383.0003.0255.0098.023.0284-.0077.0186-.0306.0281-.0332.0284-.0076.0002.021.0264.0383.0581.0383s.0577.0138.0577.0306c0 .0169.0648.0307.144.0307.0793 0 .1442.0138.1442.0306 0 .0184.1105.0307.2738.0307.1634 0 .2739-.0123.2739-.0307 0-.0168.0575-.0306.128-.0306.0704 0 .136-.0138.1458-.0307.0098-.0168.0495-.0306.0882-.0306s.0703-.0138.0703-.0307c0-.0168.026-.0306.0577-.0306.0317 0 .0576-.0138.0576-.0307 0-.0169.026-.0306.0577-.0306.0317 0 .0576-.0138.0576-.0307 0-.0169.026-.0307.0577-.0307.0317 0 .0576-.0138.0576-.0306 0-.0169.026-.0307.0577-.0307.0317 0 .0576-.0138.0576-.0306 0-.0169.0203-.0307.045-.0307s.0369-.0138.0271-.0306c-.0098-.0169.0089-.0307.0415-.0307.0327 0 .0594-.0138.0594-.0306 0-.017.026-.0307.0576-.0307.0317 0 .0577-.0106.0577-.0235 0-.0128.0544-.0485.121-.0791.0665-.0307.1525-.0822.1912-.1145.0387-.0324.0934-.0588.1217-.0588.0282 0 .0556-.0128.061-.0284.0052-.0156.029-.0328.0528-.0383.0237-.0055.0497-.0168.0576-.0253.0533-.0566.207-.1532.2439-.1532.0244 0 .0444-.0138.0444-.0307 0-.0169.0259-.0307.0576-.0307s.0577-.0138.0577-.0306c0-.0169.0259-.0307.0576-.0307s.0577-.0138.0577-.0306c0-.0169.028-.0307.0624-.0307.0343 0 .054-.009.0437-.02-.0256-.0271.0693-.1005.1317-.1016.0277-.0005.0504-.0114.0504-.0241 0-.0128.0365-.0404.081-.0614a.6132.6132 0 0 0 .143-.0994c.034-.0338.0818-.0613.1063-.0613.0244 0 .0444-.0138.0444-.0307 0-.0169.026-.0307.0577-.0307.072 0 .072-.0223 0-.138-.0315-.0505-.0574-.0742-.0575-.0526-.0001.0216-.0229.0484-.0506.0596-.0278.0112-.181.099-.3407.1953-.3772.2273-.7898.471-1.0069.5945-.1726.0982-.285.1656-.4756.2852-.8136.5106-1.2606.6296-1.8027.4801-.1504-.0414-.6367-.2703-.6762-.3183-.008-.0096-.0663-.0461-.1297-.0811-.1494-.0825-.2558-.147-.2739-.1664-.0079-.0084-.0533-.036-.1009-.0612-.0475-.0252-.1945-.1114-.3265-.1915-.132-.0802-.244-.1457-.2487-.1457-.0048 0-.1886-.1082-.4085-.2405-.5719-.3439-.6707-.4027-.8322-.4952a14.165 14.165 0 0 1-.2483-.1458 42.093 42.093 0 0 0-.173-.1043c-.0378-.0226-.0752-.048-.0832-.0565-.0079-.0084-.0792-.0515-.1585-.0957-.0793-.0442-.3581-.2082-.6197-.3645a69.5536 69.5536 0 0 0-.6198-.3671 12.9128 12.9128 0 0 1-.2594-.1537 11.98 11.98 0 0 0-.2594-.1533 12.5796 12.5796 0 0 1-.2522-.1485c-.2673-.1633-.334-.2033-.4828-.2896a26.3515 26.3515 0 0 1-.3171-.1873 6.69 6.69 0 0 0-.245-.1412c-.0476-.0251-.093-.0526-.101-.061-.0124-.0134-.0828-.0553-.3314-.1971-.0317-.0181-.0641-.0398-.072-.0482-.008-.0085-.0664-.0443-.1298-.0797a13.5335 13.5335 0 0 1-.2522-.1456l-.2738-.1626a39.9082 39.9082 0 0 0-.3243-.1897 6.8428 6.8428 0 0 1-.3155-.1946c-.0705-.0474-.1399-.0862-.1541-.0862-.0143 0-.0603-.0253-.1024-.0563-.1227-.0903-.168-.0974-.2213-.035"/></g></svg>