<svg xmlns="http://www.w3.org/2000/svg" viewBox="0 0 32 32"><title>file_type_platformio</title><path d="M21.357,8.222,22.2,5.285a1.656,1.656,0,0,0,1.539-1.627,1.691,1.691,0,0,0-3.381,0,1.623,1.623,0,0,0,.821,1.4L20.35,7.94A18.64,18.64,0,0,0,15.989,7.4l-.37.16V29.881l.37.119C18.219,30,27.976,23.484,28,16.491,28,11.481,24.556,9.232,21.357,8.222ZM19.008,22.6c-1.9-2.94-1.1-9.783,3.873-10.761a3.241,3.241,0,0,1,3.524,2.579C27.646,18.5,20.341,24.213,19.008,22.6Zm2.984-6.3a1.49,1.49,0,1,0,1.54,1.489A1.516,1.516,0,0,0,21.992,16.3Zm.46,1.374a.376.376,0,1,1,.389-.376A.383.383,0,0,1,22.452,17.673Z" style="fill:#d06e35"/><path d="M11.61,8.008l-.823-2.995a1.619,1.619,0,0,0,.784-1.378,1.691,1.691,0,0,0-3.381,0A1.663,1.663,0,0,0,9.872,5.269l.825,3C7.485,9.3,4,11.558,4,16.491,4.071,23.622,13.759,30,15.989,30V7.4A19.062,19.062,0,0,0,11.61,8.008Zm1.7,14.589c-1.333,1.616-8.639-4.1-7.4-8.182A3.241,3.241,0,0,1,9.44,11.836C14.412,12.814,15.216,19.657,13.313,22.6ZM10.23,16.345a1.49,1.49,0,1,0,1.54,1.489A1.516,1.516,0,0,0,10.23,16.345Zm-.46,1.374a.376.376,0,1,1,.389-.376A.382.382,0,0,1,9.77,17.719Z" style="fill:#f17b36"/></svg>