<svg width="32" height="32" xmlns="http://www.w3.org/2000/svg">
  <path d="M5.85 6H30v16.65l-3.9 3.9H2V9.85C3.28 8.54 4.57 7.27 5.85 6zm3.57 4.32a4.07 4.07 0 0 0-1.53 2.24 11.58 11.58 0 0 0-.43 3.56c.02 1.1.12 2.23.47 3.29.22.62.54 1.23 1.05 1.67.65.58 1.53.84 2.38.94.71.08 1.44.09 2.15-.03l1.57 2.6 1.84-.86-1.48-2.37c.68-.49 1.2-1.18 1.47-1.97.4-1.17.46-2.41.45-3.63a10.4 10.4 0 0 0-.57-3.58 3.83 3.83 0 0 0-1.29-1.8 5.12 5.12 0 0 0-2.95-.8 5.54 5.54 0 0 0-3.13.74zm2.3 1a3.74 3.74 0 0 1 1.88.17c.48.2.87.56 1.1 1.03.32.71.45 1.5.51 2.27.07 1.03.06 2.07-.08 3.1-.1.6-.24 1.25-.65 1.73-.42.49-1.07.7-1.7.74a3.6 3.6 0 0 1-1.93-.3 1.88 1.88 0 0 1-.8-.83c-.21-.42-.33-.89-.4-1.35a11.6 11.6 0 0 1 .02-4.43c.14-.55.34-1.11.74-1.53.35-.35.83-.54 1.32-.6zm8.1-1.04v2.55h-1.34v1.66h1.35v4.12c0 .76.03 1.55.34 2.26.17.41.56.7.99.82 1 .31 2.05.11 3.06-.06l-.1-1.52c-.5.01-1 .04-1.5.04-.28 0-.6-.08-.73-.35-.17-.35-.16-.75-.17-1.13v-4.18h2.45l.05-1.66h-2.47v-2.55h-1.92z" fill="#FFA351" fill-rule="nonzero"/>
</svg>
