<svg xmlns="http://www.w3.org/2000/svg" xmlns:xlink="http://www.w3.org/1999/xlink" viewBox="0 0 32 32"><defs><linearGradient id="a" x1="11.421" y1="-221.705" x2="21.509" y2="-248.792" gradientTransform="matrix(1, 0, 0, -1, 0, -218)" gradientUnits="userSpaceOnUse"><stop offset="0" stop-color="#e84f4f"/><stop offset="0.409" stop-color="#db4646"/><stop offset="0.999" stop-color="#cb3939"/></linearGradient></defs><title>file_type_rescript</title><path d="M2,10.97c0-3.738,0-5.6.952-6.916a4.992,4.992,0,0,1,1.1-1.1C5.364,2,7.233,2,10.969,2H21.03c3.738,0,5.605,0,6.916.951a4.992,4.992,0,0,1,1.1,1.1C30,5.364,30,7.232,30,10.97V21.03c0,3.737,0,5.605-.952,6.916a4.966,4.966,0,0,1-1.1,1.1C26.636,30,24.768,30,21.03,30H10.969c-3.736,0-5.6,0-6.915-.952a4.966,4.966,0,0,1-1.1-1.1C2,26.636,2,24.767,2,21.03Z" style="fill:url(#a)"/><path d="M20.974,15.554a3.325,3.325,0,1,0-3.324-3.325A3.325,3.325,0,0,0,20.974,15.554Z" style="fill:#fff"/><path d="M9.316,11.809a4.676,4.676,0,0,1,.206-1.987A1.886,1.886,0,0,1,10.345,9a4.7,4.7,0,0,1,1.987-.205h2.64V21.045a4.686,4.686,0,0,1-.144,1.664,1.892,1.892,0,0,1-1.02,1.02,4.72,4.72,0,0,1-1.664.143,4.717,4.717,0,0,1-1.664-.143,1.892,1.892,0,0,1-1.02-1.02,4.72,4.72,0,0,1-.143-1.664Z" style="fill:#fff"/></svg>