<svg width="32" height="32" version="1.1" viewBox="0 .014 9.4298 9.4308" xmlns="http://www.w3.org/2000/svg"><g transform="matrix(.014937 0 0 .014957 -.49609 -1.3541)"><path d="m348.86 190.55-63.721 113.72 63.721-24.418 60.822 23.289 16.288-18.28v-124.21z" fill="#0222a9"/><path d="m546.82 599.13-115.09-150.2v198.59l-82.87 35.053v-339.23l82.87-31.736 115.09 164.5v-209.14l78.262-30.182v329.48z" fill="#011da9"/><path d="m150.9 599.13 73.427-32.509-73.427-142.56z" fill="#0222a9"/><path d="m229.16 236.78 36.834 74.819 19.141-7.323 63.721-113.72-77.114-29.989zm180.52 66.367 58.901-66.367 78.238 30.182v209.14l-115.09-164.5z" fill="#069330"/><path d="m150.9 266.96-78.261-30.182v329.48l78.261 32.869v-175.07l115.1 223.45 82.862 35.053v-339.23l-82.862-31.745v172.21z" fill="#069330"/><path d="m266 311.6v172.21l-115.1-216.85 78.264-30.182zm280.82 287.53-115.09-150.2v82.063l23.502 32.969z" fill="#fe2015"/><path d="m431.73 311.6-82.87 31.745-82.862-31.745 82.862-31.741zm36.823-74.819 78.268-30.108 78.262 30.108-78.262 30.182zm-395.91 0 78.261-30.108 78.264 30.108-78.264 30.182zm353.33-76.127-77.11-29.779-77.114 29.692 77.114 29.989z" fill="#ffc001"/></g></svg>
