<svg xmlns="http://www.w3.org/2000/svg" xmlns:xlink="http://www.w3.org/1999/xlink" viewBox="0 0 32 32"><defs><radialGradient id="a" cx="-36.176" cy="-818.913" r="48.27" gradientTransform="matrix(0.36, 0.402, 0.222, -0.163, 176.038, -72.803)" gradientUnits="userSpaceOnUse"><stop offset="0" stop-color="#7ce1ff"/><stop offset="0.3" stop-color="#7ce1ff" stop-opacity="0"/></radialGradient><radialGradient id="b" cx="4165.973" cy="-1187.763" r="83.239" gradientTransform="matrix(0.031, 0.03, 0.075, -0.062, -61.276, -143.756)" gradientUnits="userSpaceOnUse"><stop offset="0" stop-color="#7ce1ff"/><stop offset="1" stop-color="#7ce1ff" stop-opacity="0"/></radialGradient><radialGradient id="c" cx="-298.938" cy="-509.943" r="27.886" gradientTransform="matrix(-1.048, -0.5, -1.117, 0.527, -899.28, 175.717)" gradientUnits="userSpaceOnUse"><stop offset="0" stop-color="#7ce1ff" stop-opacity="0.8"/><stop offset="0.15" stop-color="#7ce1ff" stop-opacity="0"/></radialGradient><linearGradient id="d" x1="2086.817" y1="-4279.137" x2="2086.817" y2="-4415.582" gradientTransform="matrix(0.068, 0, 0, -0.041, -126.107, -153.505)" gradientUnits="userSpaceOnUse"><stop offset="0" stop-opacity="0"/><stop offset="0.5"/><stop offset="1" stop-opacity="0"/></linearGradient><radialGradient id="e" cx="2223.978" cy="-4346.557" r="65.815" gradientTransform="matrix(0.068, 0, 0, -0.041, -126.093, -153.505)" gradientUnits="userSpaceOnUse"><stop offset="0"/><stop offset="1" stop-opacity="0"/></radialGradient><radialGradient id="f" cx="-1496.798" cy="-4346.557" r="65.815" gradientTransform="translate(-95.282 -153.505) rotate(180) scale(0.068 0.041)" xlink:href="#e"/><linearGradient id="g" x1="22.899" y1="-335.201" x2="20.073" y2="-325.016" gradientTransform="matrix(0.957, 0, 0, -0.952, -4.727, -299.336)" gradientUnits="userSpaceOnUse"><stop offset="0" stop-color="#777973"/><stop offset="1" stop-color="#cbccca"/></linearGradient><linearGradient id="h" x1="15.945" y1="-320.038" x2="23.152" y2="-333.09" gradientTransform="matrix(0.957, 0, 0, -0.952, -4.727, -299.336)" gradientUnits="userSpaceOnUse"><stop offset="0" stop-color="#a2a59c"/><stop offset="1" stop-color="#535750"/></linearGradient><linearGradient id="i" x1="22.662" y1="-319.414" x2="22.281" y2="-333.259" gradientTransform="matrix(0.95, 0, 0, -0.966, -5.495, -301.04)" gradientUnits="userSpaceOnUse"><stop offset="0" stop-color="#748f48"/><stop offset="1" stop-color="#1f2816"/></linearGradient><linearGradient id="j" x1="10.098" y1="-313.773" x2="18.745" y2="-325.887" gradientTransform="matrix(0.998, 0, 0, -0.99, -0.222, -304.552)" gradientUnits="userSpaceOnUse"><stop offset="0" stop-color="#616161"/><stop offset="1" stop-color="#a0a0a0"/></linearGradient><linearGradient id="k" x1="20.056" y1="-327.763" x2="36.291" y2="-344.902" gradientTransform="matrix(0.954, 0, 0, -0.948, -5.135, -297.653)" gradientUnits="userSpaceOnUse"><stop offset="0" stop-color="#fff"/><stop offset="1" stop-color="#fff" stop-opacity="0"/></linearGradient><linearGradient id="l" x1="-14.095" y1="-326.757" x2="-10.888" y2="-340.845" gradientTransform="matrix(1.236, 0, 0, -0.896, 30.799, -288.928)" gradientUnits="userSpaceOnUse"><stop offset="0" stop-color="#fff"/><stop offset="1" stop-color="#fcfcff" stop-opacity="0"/></linearGradient><radialGradient id="m" cx="23.407" cy="-385.185" r="1.41" gradientTransform="matrix(1, 0, 0, -0.738, 0, -260.233)" gradientUnits="userSpaceOnUse"><stop offset="0" stop-color="#777973"/><stop offset="1" stop-color="#777973" stop-opacity="0"/></radialGradient><linearGradient id="n" x1="25.047" y1="-385.097" x2="22.646" y2="-382.368" gradientTransform="matrix(1, 0, 0, -0.745, 0, -261.462)" gradientUnits="userSpaceOnUse"><stop offset="0" stop-color="#a9aaa7"/><stop offset="1" stop-color="#676964"/></linearGradient></defs><title>file_type_shell</title><path d="M-15.442,49.816c.061-.183-7-7.561-7-7.561" style="fill:none;stroke-linecap:round;stroke-width:76.71700286865234px;stroke:url(#a)"/><path d="M-25.442,56.835s9.942-6.825,10-7" style="fill:#2aa7c9;stroke-linecap:round;stroke-width:76.71700286865234px;stroke:url(#b)"/><path d="M-25.27,57.121h1.124" style="fill:none;stroke-linecap:round;stroke-width:100px;stroke:url(#c)"/><rect x="6.763" y="22.38" width="18.474" height="5.608" style="opacity:0.4020618498325348;isolation:isolate;fill:url(#d)"/><path d="M25.237,22.381v5.608C27.207,28,30,26.732,30,25.184S27.8,22.381,25.237,22.381Z" style="opacity:0.4020618498325348;isolation:isolate;fill:url(#e)"/><path d="M6.763,22.381v5.608C4.793,28,2,26.732,2,25.184S4.2,22.381,6.763,22.381Z" style="opacity:0.4020618498325348;isolation:isolate;fill:url(#f)"/><rect x="3.185" y="4.011" width="25.28" height="21.911" rx="2.726" ry="2.726" style="stroke-linecap:round;stroke-linejoin:round;stroke-width:0.999999463558197px;fill:url(#g);stroke:url(#h)"/><rect x="5.428" y="6.248" width="20.837" height="16.306" rx="0.924" ry="0.924" style="stroke-linecap:round;stroke-linejoin:round;stroke-width:0.9949577450752258px;fill:url(#i);stroke:url(#j)"/><g style="opacity:0.2556818127632141"><path d="M6.844,8.505H24.81" style="fill:none;stroke:#181f10;stroke-width:1.0007213354110718px"/><path d="M6.844,9.629H24.81" style="fill:none;stroke:#181f10;stroke-width:1.0007213354110718px"/><path d="M6.844,10.753H24.81" style="fill:none;stroke:#181f10;stroke-width:1.0007213354110718px"/><path d="M6.844,11.876H24.81" style="fill:none;stroke:#181f10;stroke-width:1.0007213354110718px"/><path d="M6.844,13H24.81" style="fill:none;stroke:#181f10;stroke-width:1.0007213354110718px"/><path d="M6.844,14.124H24.81" style="fill:none;stroke:#181f10;stroke-width:1.0007213354110718px"/><path d="M6.844,15.247H24.81" style="fill:none;stroke:#181f10;stroke-width:1.0007213354110718px"/><path d="M6.844,16.371H24.81" style="fill:none;stroke:#181f10;stroke-width:1.0007213354110718px"/><path d="M6.844,17.495H24.81" style="fill:none;stroke:#181f10;stroke-width:1.0007213354110718px"/><path d="M6.844,18.618H24.81" style="fill:none;stroke:#181f10;stroke-width:1.0007213354110718px"/><path d="M6.844,19.742H24.81" style="fill:none;stroke:#181f10;stroke-width:1.0007213354110718px"/><path d="M6.844,20.866H24.81" style="fill:none;stroke:#181f10;stroke-width:1.0007213354110718px"/></g><rect x="3.776" y="4.573" width="24.128" height="20.788" rx="2.13" ry="2.13" style="fill:none;stroke-linecap:round;stroke-linejoin:round;stroke-width:0.999999463558197px;opacity:0.7637362480163574;isolation:isolate;stroke:url(#k)"/><path d="M8.872,13.662V11.946l5.048,2.281v1.043l-5.048,2.3V15.856l3.913-1.042ZM19.486,19.3V20.4H13.36V19.3h6.126" style="fill:#fff;stroke:#6ed66e;stroke-opacity:0.2786885201931"/><path d="M6.625,6.539c-.294,0-.884.107-.884.576l.066,9.28c9.929-.541,7.936-4.639,20.131-6.691L25.9,7.264c-.044-.632-.3-.692-.9-.688Z" style="opacity:0.5314285755157471;isolation:isolate;fill:url(#l)"/><rect x="6.267" y="7.09" width="19.117" height="14.64" rx="0.066" ry="0.066" style="fill:none;stroke:#000;stroke-linecap:round;stroke-linejoin:round;stroke-width:1.9999991655349731px;opacity:0.7142857313156128;isolation:isolate"/><path d="M22.479,23.121h1.856c.111,0,.2.141.2.315v1.033c0,.174-.09.315-.2.315H22.479c-.111,0-.2-.141-.2-.315V23.436C22.277,23.262,22.367,23.121,22.479,23.121Z" style="stroke-linecap:round;stroke-width:1.0000011920928955px;fill:url(#m);stroke:url(#n)"/><rect x="20.319" y="23.394" width="1.124" height="1.124" rx="0.315" ry="0.315" style="fill:#93d94c"/><path d="M21.021,23.78a.316.316,0,1,1-.316-.316A.316.316,0,0,1,21.021,23.78Z" style="fill:#fff"/></svg>