<svg viewBox="0 0 32 32" xmlns="http://www.w3.org/2000/svg"><g fill="#0089d6"><path d="m14.98 25.994c3.57-.726 6.518-1.327 6.552-1.335l.062-.015-3.37-4.615c-1.854-2.538-3.37-4.625-3.37-4.637s3.48-11.056 3.5-11.095c.007-.013 2.375 4.694 5.741 11.411l5.774 11.521.044.088h-10.711-10.711z"/><path d="m2.125 24.586c0-.006 1.588-3.18 3.529-7.053l3.529-7.041 4.117-3.972c2.262-2.185 4.119-3.976 4.126-3.979a.914.914 0 0 1 -.066.192l-4.47 11.026-4.39 10.83h-3.189c-1.751.011-3.186.004-3.186-.003z"/></g></svg>