<svg xmlns="http://www.w3.org/2000/svg" viewBox="0 0 32 32"><title>file_type_swc</title><defs><linearGradient id="a" x1="0" x2="302.9" y1="151.49" y2="151.49" gradientTransform="matrix(.09245 0 0 .03238 1.997 11.096)" gradientUnits="userSpaceOnUse"><stop offset="0" stop-color="#FFA588"/><stop offset=".271" stop-color="#FCB371"/><stop offset=".836" stop-color="#F4D837"/><stop offset="1" stop-color="#F1E425"/></linearGradient></defs><path fill="url(#a)" d="M27.216 20.903a2.807 2.807 0 0 1-1.996-.828l-4.157-4.157a2.805 2.805 0 0 1-.791-1.509 2.796 2.796 0 0 1 .01-1.004h-1.23c-.3 0-.427.2-.476.318a.49.49 0 0 0 .113.562l1.797 1.797a2.803 2.803 0 0 1 .615 3.079c-.207.499-.548.926-.983 1.234a2.809 2.809 0 0 1-1.624.508h-.058a2.807 2.807 0 0 1-1.996-.828l-.398-.398c-.19.28-.427.522-.704.716a2.809 2.809 0 0 1-1.624.508 2.807 2.807 0 0 1-1.997-.828l-6.52-6.52a.51.51 0 0 0-.363-.15c-.3 0-.427.2-.476.317a.49.49 0 0 0 .112.563l1.797 1.797a2.806 2.806 0 0 1 .616 3.078 2.85 2.85 0 0 1-.984 1.235 2.809 2.809 0 0 1-1.624.507h-.822a1.154 1.154 0 1 1 0-2.307h.81c.3 0 .427-.2.476-.318a.49.49 0 0 0-.112-.562l-1.795-1.795a2.806 2.806 0 0 1-.79-1.508A2.85 2.85 0 0 1 3.2 11.606a2.817 2.817 0 0 1 1.627-.508c.753 0 1.463.294 1.996.828l6.52 6.52a.51.51 0 0 0 .363.15c.3 0 .428-.2.477-.318a.489.489 0 0 0-.11-.56l-4.651-4.65a1.154 1.154 0 1 1 1.633-1.633l4.648 4.648.006.005 2.357 2.357a.51.51 0 0 0 .363.15h.058c.3 0 .427-.2.476-.317a.49.49 0 0 0-.113-.562l-1.794-1.798a2.806 2.806 0 0 1-.79-1.508 2.851 2.851 0 0 1 1.159-2.804 2.817 2.817 0 0 1 1.626-.508h4.7a1.154 1.154 0 1 1 0 2.308h-.693c-.3 0-.427.2-.476.317a.49.49 0 0 0 .113.563l4.157 4.157a.51.51 0 0 0 .364.15.476.476 0 0 0 .476-.476 1.154 1.154 0 1 1 2.307 0 2.786 2.786 0 0 1-2.784 2.786z"/><path fill="#fff" d="M27.216 19.893c-.485 0-.94-.188-1.284-.53l-4.157-4.158a1.786 1.786 0 0 1-.392-1.976c.147-.352.386-.638.684-.831h-3.015c-.629 0-1.169.36-1.41.94a1.498 1.498 0 0 0 .33 1.662l1.798 1.797c.528.529.678 1.287.392 1.977a1.787 1.787 0 0 1-1.676 1.12h-.057c-.485 0-.94-.188-1.284-.532l-1.659-1.659c.075.35.04.719-.105 1.07a1.787 1.787 0 0 1-1.676 1.12c-.485 0-.94-.187-1.284-.53l-6.52-6.52a1.516 1.516 0 0 0-1.079-.448c-.629 0-1.168.36-1.41.94-.24.58-.113 1.218.331 1.663l1.797 1.797c.529.528.678 1.286.393 1.976s-.93 1.12-1.676 1.12h-.808a.143.143 0 0 1-.145-.146.143.143 0 0 1 .145-.145h.81c.63 0 1.169-.36 1.411-.94a1.498 1.498 0 0 0-.332-1.662L3.541 15.2a1.78 1.78 0 0 1-.392-1.973 1.783 1.783 0 0 1 1.676-1.123c.485 0 .94.188 1.284.531l6.52 6.52c.288.289.672.447 1.079.447.628 0 1.168-.36 1.41-.94.24-.58.115-1.215-.328-1.66l-4.653-4.648a.143.143 0 0 1 0-.205.143.143 0 0 1 .205 0l4.648 4.647.003.003 2.357 2.357c.289.289.672.447 1.079.447h.057c.63 0 1.169-.36 1.411-.94.24-.58.113-1.218-.332-1.662l-1.797-1.797a1.787 1.787 0 0 1-.392-1.977c.285-.69.929-1.12 1.676-1.12h4.7a.143.143 0 0 1 .145.146.143.143 0 0 1-.145.145h-.693c-.629 0-1.168.36-1.41.94-.24.58-.113 1.218.331 1.662l4.157 4.157c.289.289.673.448 1.08.448.819 0 1.485-.667 1.485-1.486a.143.143 0 0 1 .145-.145.143.143 0 0 1 .145.145 1.773 1.773 0 0 1-1.774 1.774z"/></svg>