<svg xmlns="http://www.w3.org/2000/svg" viewBox="0 0 32 32"><title>file_type_ninja</title><ellipse cx="16.021" cy="16.168" rx="10.444" ry="12.767" style="fill:#f1c27d"/><path d="M8.946,15.6a6.908,6.908,0,0,1,2.188.114,4.13,4.13,0,0,1,1.911,1.081.045.045,0,0,1,0,.062.039.039,0,0,1-.028.012l-.045,0a11.581,11.581,0,0,1-1.18,0,4.681,4.681,0,0,1-.905-.122,4.4,4.4,0,0,1-.9-.34,4.33,4.33,0,0,1-1.025-.7l-.035-.031a.044.044,0,0,1,0-.06A.045.045,0,0,1,8.946,15.6Z" style="fill:#ededed"/><path d="M8.954,13.992a12.915,12.915,0,0,1,2.679.288,4.712,4.712,0,0,1,1.31.4A2.8,2.8,0,0,1,14,15.6a.029.029,0,0,1-.009.039.031.031,0,0,1-.025,0l-2.439-.953a18.729,18.729,0,0,0-2.573-.646.026.026,0,0,1-.022-.03A.029.029,0,0,1,8.954,13.992Z" style="fill:#1e1e1e"/><path d="M22.638,15.7a4.327,4.327,0,0,1-1.024.7,4.445,4.445,0,0,1-.9.34,4.7,4.7,0,0,1-.906.122,11.581,11.581,0,0,1-1.18,0l-.045,0a.043.043,0,0,1-.041-.045.05.05,0,0,1,.012-.029,4.128,4.128,0,0,1,1.912-1.081A6.9,6.9,0,0,1,22.65,15.6a.042.042,0,0,1,.037.047.04.04,0,0,1-.014.027Z" style="fill:#ededed"/><path d="M22.646,14.045a18.766,18.766,0,0,0-2.573.646l-2.439.953a.028.028,0,0,1-.036-.015.034.034,0,0,1,0-.026,2.806,2.806,0,0,1,1.053-.919,4.718,4.718,0,0,1,1.311-.4,12.9,12.9,0,0,1,2.678-.288.026.026,0,0,1,.026.027A.027.027,0,0,1,22.646,14.045Z" style="fill:#1e1e1e"/><path d="M5.578,16.168A12.7,12.7,0,0,1,5.126,14.3a4.993,4.993,0,0,1,.156-2.815c.3-.642.854-1.085,1.124-1.776.577-1.476.38-3.211,1.334-4.541A6.333,6.333,0,0,1,13.008,2.23c3.361.222,7.417-1.623,10.024,2.435s2.421,3.1,3.275,6.05.709,4.474.636,4.708a3.794,3.794,0,0,1-.478.745s-.753-2.428-4.447-2.649a7.687,7.687,0,0,1-2.789-.626c-1.275-.606-2.143-1.2-3.6-1.008-.989.132-1.98.26-2.966.417-1.44.23-4.357.456-5.131,2C6.666,16.024,5.581,16.167,5.578,16.168Z" style="fill:#400000"/><path d="M7.533,14.3a5.254,5.254,0,0,0,.29,4.016c1.014,2.509,7.242-.664,7.605-.664s1.376-.5,3.766.965,5.359-1.826,5.359-1.826.345-2.539-.3-2.77,2.211.8,2.211.8a45.277,45.277,0,0,1,0,5.928c-.246,1.771-2.781,5.017-2.781,5.755s-5.164,3.833-7.652,3.466-6.326-.737-8.064-3.54-3.042-8.351-2.39-10.262S7.533,14.3,7.533,14.3Z" style="fill:#400000"/><path d="M29.7,4.292l-.016,0a27.435,27.435,0,0,1-2.956.822,5.857,5.857,0,0,1-1.332.109,3.381,3.381,0,0,1-.559-.1.9.9,0,0,1-.241-.095l-.349-.158a4.252,4.252,0,0,0-1.684-.32c.068-.048.127-.108.2-.151A2.176,2.176,0,0,1,24.174,4.1a2.5,2.5,0,0,0,1.531-.343,4.019,4.019,0,0,0,1.159-1.04.042.042,0,0,0,.007-.039.044.044,0,0,0-.054-.03l-.034.01c-.582.174-1.051.323-1.459.411a2.878,2.878,0,0,1-1.013.041,2.849,2.849,0,0,0-1.091.1,2.532,2.532,0,0,0-.875.522,2.475,2.475,0,0,0-.611.895,7.987,7.987,0,0,0-1.064.256,7.812,7.812,0,0,0-2.842,1.631l-.009.008a.047.047,0,0,0,.051.077,13.9,13.9,0,0,1,2.954-.98,5.1,5.1,0,0,1,3.028.125,3.442,3.442,0,0,0,1.543.379,5.584,5.584,0,0,0,1.558-.292,10.766,10.766,0,0,0,2.783-1.459.048.048,0,0,0,.017-.052A.046.046,0,0,0,29.7,4.292Z" style="fill:#400000"/></svg>