<svg xmlns="http://www.w3.org/2000/svg" viewBox="0 0 32 32"><title>file_type_tsconfig_official</title><rect x="2" y="2" width="28" height="28" rx="1.312" style="fill:#3178c6"/><path d="M18.245,23.759v3.068a6.49,6.49,0,0,0,1.764.575,11.527,11.527,0,0,0,2.146.192,9.97,9.97,0,0,0,2.088-.211,5.122,5.122,0,0,0,1.735-.7,3.549,3.549,0,0,0,1.181-1.266,4.469,4.469,0,0,0,.186-3.394,3.415,3.415,0,0,0-.717-1.117,5.245,5.245,0,0,0-1.123-.877,12.083,12.083,0,0,0-1.477-.734q-.6-.249-1.08-.484a5.486,5.486,0,0,1-.813-.479,2.082,2.082,0,0,1-.516-.518,1.092,1.092,0,0,1-.181-.618,1.041,1.041,0,0,1,.162-.571,1.407,1.407,0,0,1,.459-.436,2.427,2.427,0,0,1,.726-.283,4.214,4.214,0,0,1,.956-.1,5.911,5.911,0,0,1,.808.058,6.251,6.251,0,0,1,.856.177,5.9,5.9,0,0,1,.836.3,4.615,4.615,0,0,1,.751.422V13.9a7.512,7.512,0,0,0-1.525-.4,12.323,12.323,0,0,0-1.9-.129,8.744,8.744,0,0,0-2.064.235,5.254,5.254,0,0,0-1.716.733,3.659,3.659,0,0,0-1.171,1.271,3.737,3.737,0,0,0-.431,1.845,3.586,3.586,0,0,0,.789,2.34,6,6,0,0,0,2.395,1.639q.63.259,1.175.509a6.476,6.476,0,0,1,.942.517,2.471,2.471,0,0,1,.626.585,1.2,1.2,0,0,1,.23.719,1.1,1.1,0,0,1-.144.552,1.267,1.267,0,0,1-.435.441,2.385,2.385,0,0,1-.726.292,4.357,4.357,0,0,1-1.018.105,5.774,5.774,0,0,1-1.969-.35A5.889,5.889,0,0,1,18.245,23.759Zm-5.154-7.638h4V13.594H5.938v2.527H9.92V27.375h3.171Z" style="fill:#fff;fill-rule:evenodd"/><path d="M28.158,28.589l.391-.383c1.809.058,1.837,0,1.917-.188l.5-1.193L31,26.711l-.041-.1c-.021-.052-.087-.212-1.217-1.273V24.78c1.3-1.238,1.276-1.3,1.2-1.486l-.495-1.206c-.075-.18-.108-.252-1.9-.2l-.392-.389a8.48,8.48,0,0,0-.061-1.759l-.051-.113-1.292-.557c-.19-.086-.257-.117-1.477,1.193l-.548-.008c-1.257-1.322-1.316-1.3-1.508-1.223l-1.2.479c-.188.076-.254.107-.182,1.9l-.387.381c-1.809-.059-1.831,0-1.915.188l-.5,1.19L19,23.282l.041.1c.021.051.084.206,1.217,1.274v.557c-1.3,1.238-1.275,1.3-1.2,1.486l.494,1.207c.076.185.108.251,1.9.2l.391.4a8.522,8.522,0,0,0,.059,1.756l.05.114,1.3.56c.19.078.254.106,1.471-1.2l.548.006c1.258,1.324,1.323,1.3,1.508,1.225l1.2-.478C28.166,30.415,28.232,30.386,28.158,28.589ZM23,25.8a2.113,2.113,0,0,1,1.242-2.741,2.164,2.164,0,0,1,2.781,1.225,2.113,2.113,0,0,1-1.2,2.726A2.188,2.188,0,0,1,23,25.8Z" style="fill:#99b8c4"/></svg>