<svg xmlns="http://www.w3.org/2000/svg" xmlns:xlink="http://www.w3.org/1999/xlink" viewBox="0 0 32 32"><defs><linearGradient id="a" x1="2.591" y1="16" x2="29.409" y2="16" gradientUnits="userSpaceOnUse"><stop offset="0" stop-color="#ffca3f"/><stop offset="0.014" stop-color="#fec83e"/><stop offset="0.238" stop-color="#ebaf35"/><stop offset="0.471" stop-color="#de9d2e"/><stop offset="0.717" stop-color="#d6922a"/><stop offset="0.999" stop-color="#d38f29"/></linearGradient><linearGradient id="b" x1="19.532" y1="27.942" x2="11.214" y2="16.674" xlink:href="#a"/></defs><title>file_type_licensebat</title><path d="M22.652,3.474,18.658,7.822l0,0-.055.055-.6.656a7.2,7.2,0,1,1-4.006,0l-.6-.656-.055-.055,0,0L9.348,3.474a13.409,13.409,0,1,0,13.3,0Z" style="fill:url(#a)"/><path d="M24.1,23.839a5.287,5.287,0,0,1-5-7.011,2.1,2.1,0,0,1-1.6.688,2.153,2.153,0,0,1-1.417-.507c-.026.023-.054-.065-.082-.044-.028-.021-.056.067-.082.044a2.153,2.153,0,0,1-1.417.507,2.1,2.1,0,0,1-1.6-.688,5.287,5.287,0,0,1-7.595,6.329,13.334,13.334,0,0,0,10.664,5.315h.054a13.334,13.334,0,0,0,10.664-5.315A5.264,5.264,0,0,1,24.1,23.839Z" style="fill:url(#b)"/></svg>