<svg xmlns="http://www.w3.org/2000/svg" viewBox="0 0 32 32"><path fill="#ff3c00" d="M16.05 9.35v.26c.03.4.2.8.46 1.1l.16.16c.34.35.81.53 1.3.53h5.25c1.05 0 1.58 0 1.98.2q.54.29.82.83c.2.4.2.92.2 1.97v3.18c0 1.05 0 1.57-.2 1.97q-.28.54-.82.82c-.4.2-.93.2-1.98.2h-5.27c-.48 0-.94.2-1.28.53l-.16.17c-.26.3-.43.7-.46 1.1V27c0 1.05 0 1.57-.2 1.98q-.28.54-.82.82c-.4.2-.93.2-1.98.2H8.78c-1.05 0-1.58 0-1.98-.2a2 2 0 0 1-.82-.82c-.2-.4-.2-.93-.2-1.98v-3.4c0-1.04 0-1.57.2-1.97q.28-.54.82-.82c.4-.2.93-.2 1.98-.2h5.34a2 2 0 0 0 1.3-.56l.18-.19q.38-.47.44-1.07l.01-.29v-5.32a2 2 0 0 0-.63-1.26 1.8 1.8 0 0 0-1.3-.53H8.78c-1.05 0-1.58 0-1.98-.2a2 2 0 0 1-.82-.82c-.2-.4-.2-.93-.2-1.98V5c0-1.05 0-1.57.2-1.98q.28-.54.82-.82c.4-.2.93-.2 1.98-.2h4.27c1.05 0 1.57 0 1.98.2q.54.28.82.82c.2.4.2.93.2 1.98z"/></svg>