<svg xmlns="http://www.w3.org/2000/svg" viewBox="0 0 32 32"><defs><linearGradient id="a" x1="11.64" y1="11.617" x2="20.589" y2="20.567" gradientUnits="userSpaceOnUse"><stop offset="0" stop-color="#de9b48"/><stop offset="1" stop-color="#8e3f25"/></linearGradient></defs><title>file_type_csscomb</title><path d="M29.35,11.756c-.2.223-.41.444-.6.653-1.706-1.7-3.373-3.35-5.041-5.005l-.132.11c.108.131.207.271.325.393q2.067,2.136,4.141,4.264c.308.314.387.586-.042.916Q25.184,10.4,22.377,7.71l-.146.124a3.252,3.252,0,0,0,.264.359Q24.82,10.6,27.154,13c.288.294.428.558.009.947l-5.64-5.387-.171.164c.156.168.308.34.468.5q2.255,2.328,4.511,4.651c.282.291.454.57-.039.9l-5.6-5.358-.148.125a3.99,3.99,0,0,0,.315.422c1.5,1.553,3.013,3.1,4.513,4.652.222.23.572.448.277.854a1.077,1.077,0,0,1-.2.155l-5.611-5.369-.153.137c.122.149.235.306.369.445q2.249,2.331,4.5,4.658c.062.064.165.121.178.194a5.771,5.771,0,0,1,.054.632c-.175-.054-.4-.057-.52-.17-1.375-1.3-2.734-2.617-4.1-3.927-.392-.377-.791-.745-1.187-1.118l-.138.115a3.766,3.766,0,0,0,.3.4q2.3,2.388,4.618,4.767c.274.281.482.554-.008.929l-5.63-5.372-.159.15c.192.21.38.425.577.629q2.214,2.292,4.431,4.579c.29.3.349.563-.081.852l-5.6-5.362-.145.128c.145.177.279.364.437.529q2.265,2.352,4.54,4.7c.271.279.34.536-.063.86l-5.621-5.367-.146.139c.1.125.194.259.306.375q2.34,2.43,4.687,4.853c.3.311.335.558-.079.848l-5.615-5.366-.154.139c.126.147.244.3.379.441q2.286,2.37,4.579,4.732c.295.3.412.574-.046.894l-5.613-5.365-.147.131c.122.152.234.314.369.454q2.289,2.366,4.586,4.724c.289.3.426.581-.038.907l-5.621-5.37-.14.118a3.221,3.221,0,0,0,.269.371q2.325,2.406,4.658,4.8c.279.287.458.571-.018.92l-5.61-5.371-.135.109a4.038,4.038,0,0,0,.333.451q2.3,2.394,4.609,4.777c.276.284.381.553-.034.891l-5.621-5.376-.135.1a2.749,2.749,0,0,0,.254.37q2.3,2.392,4.609,4.778c.074.077.2.142.218.228a3.344,3.344,0,0,1,0,.584c-.161-.042-.37-.034-.476-.134-1.57-1.484-3.125-2.984-4.686-4.478-.209-.2-.428-.391-.643-.586l-.126.117c.134.165.257.34.4.493q2.249,2.332,4.5,4.659c.4.416.395.572-.037.9L10.507,19.58l-.139.117a4.724,4.724,0,0,0,.352.462q2.217,2.289,4.441,4.569c.545.562.549.624.087,1.043L9.653,20.407l-.146.122a3.6,3.6,0,0,0,.3.415q2.326,2.406,4.663,4.8c.282.289.382.551-.062.876L8.8,21.252l-.139.109a1.6,1.6,0,0,0,.184.3q2.36,2.448,4.727,4.888c.274.283.489.555-.009.923L7.951,22.1l-.137.108a3.36,3.36,0,0,0,.291.4q2.3,2.391,4.617,4.772c.284.293.518.577-.017.924L7.149,22.994l-.094.091c.588.59,1.171,1.185,1.763,1.77,1.08,1.068,2.157,2.137,3.251,3.189.366.352.391.652-.007.975-.069.056-.131.121-.2.183-1.124,1.059-1.568,1.059-2.7-.018-.427-.406-.848-.819-1.247-1.252a2.4,2.4,0,0,0-2.407-1.019,1.239,1.239,0,0,1-.021-.343,1.542,1.542,0,0,0-.481-1.508C4.48,24.483,3.9,23.949,3.37,23.369c-.085-.093-.166-.19-.245-.289C1.93,21.713,2,21.307,2,21.307L21.09,2.167c.663-.665,2.063.725,2.954,1.77a.89.89,0,0,1,.295.242A2.493,2.493,0,0,0,26.748,5.3c.057.074.1.106.1.129-.2,1.01.411,1.625,1.057,2.245A19.189,19.189,0,0,1,29.452,9.3,1.568,1.568,0,0,1,29.35,11.756Z" style="fill:url(#a)"/></svg>