<svg version="1.1" viewBox="0 0 32 32" xmlns="http://www.w3.org/2000/svg"><defs><linearGradient id="a" x1="4" x2="28" y1="31" y2="1" gradientUnits="userSpaceOnUse"><stop stop-color="#d0120d" offset="0"/><stop stop-color="#fe9c45" offset="1"/></linearGradient></defs><title>file_type_libreoffice_impress</title><g transform="matrix(.875 0 0 .875 2 2)" fill-rule="evenodd" stroke-linecap="square"><path d="m7 0c-2.216 0-4 1.784-4 4v24c0 2.216 1.784 4 4 4h18c2.216 0 4-1.784 4-4v-16l-12-12zm13 0 9 9v-9z" fill="url(#a)"/><path d="m3 27v1c0 2.216 1.784 4 4 4h18c2.216 0 4-1.784 4-4v-1c0 2.216-1.784 4-4 4h-18c-2.216 0-4-1.784-4-4z" fill-opacity=".19862"/><path d="m20 0h1.4l7.6 7.6v1.4z" fill-opacity=".20149"/><g fill="#fafafa"><rect x="8" y="13" width="16" height="1" ry=".5"/><rect x="10" y="15" width="12" height="1" ry=".5"/><circle cx="8.5" cy="19.5" r=".5"/><circle cx="8.5" cy="21.5" r=".5"/><circle cx="8.5" cy="23.5" r=".5"/><rect x="10" y="19" width="5" height="1" ry=".5"/><rect x="10" y="21" width="5" height="1" ry=".5"/><rect x="10" y="23" width="5" height="1" ry=".5"/></g><path d="m17 19c-0.554 0-1 0.446-1 1v4c0 0.554 0.446 1 1 1h6c0.554 0 1-0.446 1-1v-4c0-0.554-0.446-1-1-1zm5.4219 1.0059a0.5 0.5 0 0 1 0.43164 0.14062 0.5 0.5 0 0 1 0 0.70703l-2.3535 2.3535-1-1-1.6465 1.6465a0.5 0.5 0 0 1-0.70703 0 0.5 0.5 0 0 1 0-0.70703l2.3535-2.3535 1 1 1.6465-1.6465a0.5 0.5 0 0 1 0.27539-0.14062z" fill="#fecfb5"/></g></svg>
