<svg viewBox="0 0 32 32" xmlns="http://www.w3.org/2000/svg" xmlns:xlink="http://www.w3.org/1999/xlink"><linearGradient id="a" gradientTransform="matrix(1 0 0 -1 0 -29.66)" gradientUnits="userSpaceOnUse" x1="28.607" x2="11.085" y1="-60.825" y2="-50.756"><stop offset=".18" stop-color="#0052cc"/><stop offset="1" stop-color="#2684ff"/></linearGradient><linearGradient id="b" gradientTransform="matrix(-1 0 0 1 624.83 -1816.71)" x1="621.442" x2="603.915" xlink:href="#a" y1="1817.567" y2="1827.64"/><path d="m3.015 23.087c-.289.472-.614 1.02-.891 1.456a.892.892 0 0 0 .3 1.212l5.792 3.564a.89.89 0 0 0 1.226-.29l.008-.013c.231-.387.53-.891.855-1.43 2.294-3.787 4.6-3.323 8.763-1.336l5.743 2.731a.892.892 0 0 0 1.189-.422l.011-.024 2.755-6.235a.891.891 0 0 0 -.445-1.167c-1.212-.57-3.622-1.707-5.792-2.754-7.805-3.793-14.439-3.548-19.514 4.708z" fill="url(#a)"/><path d="m28.985 8.932c.289-.472.614-1.02.891-1.456a.892.892 0 0 0 -.3-1.212l-5.791-3.564a.89.89 0 0 0 -1.236.241.584.584 0 0 0 -.033.053c-.232.387-.53.891-.856 1.43-2.294 3.787-4.6 3.323-8.763 1.336l-5.725-2.717a.89.89 0 0 0 -1.187.421l-.011.024-2.758 6.238a.891.891 0 0 0 .445 1.167c1.212.57 3.622 1.706 5.792 2.753 7.823 3.787 14.457 3.533 19.532-4.714z" fill="url(#b)"/></svg>