<svg viewBox="0 0 32 32" xmlns="http://www.w3.org/2000/svg"><g fill="#c2c2c2"><path d="m19.5 24.833a11.242 11.242 0 0 1 -5.13 1.009 8.373 8.373 0 0 1 -6.492-2.576 9.746 9.746 0 0 1 -2.366-6.866 10.4 10.4 0 0 1 2.659-7.406 9.019 9.019 0 0 1 6.9-2.841 12.24 12.24 0 0 1 4.43.7v4.129a7.507 7.507 0 0 0 -4.108-1.142 5.283 5.283 0 0 0 -4.075 1.685 6.478 6.478 0 0 0 -1.552 4.575 6.369 6.369 0 0 0 1.464 4.4 5.017 5.017 0 0 0 3.941 1.639 8.034 8.034 0 0 0 4.329-1.223z"/><path d="m16.572 15.081v-1.841h1.841v1.841h1.84v1.84h-1.84v1.841h-1.841v-1.841h-1.839v-1.841z"/><path d="m23.012 15.081v-1.841h1.841v1.841h1.84v1.84h-1.84v1.841h-1.841v-1.841h-1.839v-1.841z"/><path d="m2.035 30v-27.999h5.933v2.227h-3.243v23.545h3.243v2.227z"/><path d="m29.965 29.999h-5.933v-2.228h3.243v-23.544h-3.243v-2.227h5.933z"/></g></svg>