<svg viewBox="0 0 32 32" xmlns="http://www.w3.org/2000/svg"><path d="m2.73 6.67 13.12-4.67v28l-11.08-6.12z" fill="#de3641"/><path d="m15.85 2 13.42 4.59-2.19 17.21-11.23 6.2z" fill="#b13138"/><path d="m15.85 5.14 8.53 18.23h-2.91l-1.82-4.16h-3.8v-2.48h2.77l-2.77-5.73-2.33 5.73h2.33v2.48h-3.47l-1.63 4.16h-3.14z" fill="#fff"/><path d="m18.59 28.34-1.12-12.6h12.35l-1.13 12.6-5.05 1.4z" fill="#1572b6"/><path d="m23.64 28.67 4.09-1.14.96-10.76h-5.05z" fill="#33a9dc"/><path d="m23.64 21.33h2.05l.14-1.58h-2.19v-1.55h.01 3.87l-.04.42-.38 4.26h-3.46z" fill="#fff"/><path d="m23.65 25.35-1.72-.47-.11-1.23h-.84-.72l.22 2.43 3.16.88.01-.01z" fill="#ebebeb"/><path d="m25.56 22.81-.19 2.07-1.72.47v1.61l3.17-.88.02-.26.27-3.01z" fill="#fff"/><g fill="#ebebeb"><path d="m23.65 18.2v.96.59h-3.73l-.03-.35-.08-.78-.03-.42z"/><path d="m23.64 21.33v.96.59h-1.69-.01l-.03-.35-.07-.78-.03-.42z"/></g></svg>