<svg viewBox="0 0 32 32" xmlns="http://www.w3.org/2000/svg"><circle cx="16" cy="16" fill="#0e3a51" r="14"/><path d="m12.64 15.72a1.625 1.625 0 0 0 1.624 1.624h15.668c.042-.444.068-.89.068-1.344a14.049 14.049 0 0 0 -.144-1.9h-15.592a1.625 1.625 0 0 0 -1.624 1.62z" fill="#15a9ce"/><path d="m17.624 8.795a1.624 1.624 0 1 0 0 3.248h11.8a13.9 13.9 0 0 0 -1.437-3.248z" fill="#92d13d"/><path d="m29.572 19.379h-18.672a1.624 1.624 0 0 0 0 3.248h17.433a13.91 13.91 0 0 0 1.239-3.248z" fill="#de3423"/></svg>