<svg viewBox="0 0 32 32" xmlns="http://www.w3.org/2000/svg" xmlns:xlink="http://www.w3.org/1999/xlink"><linearGradient id="a" gradientTransform="matrix(12.821 0 0 -12.821 10188.143 8132.963)" gradientUnits="userSpaceOnUse" x1="-792.28" x2="-793.365" y1="633.265" y2="632.418"><stop offset=".18" stop-color="#0052cc"/><stop offset="1" stop-color="#2684ff"/></linearGradient><path d="m2.909 3.41a.9.9 0 0 0 -.909.89.8.8 0 0 0 .012.155l3.808 23.113a1.22 1.22 0 0 0 1.193 1.018h18.269a.9.9 0 0 0 .9-.754l3.805-23.378a.9.9 0 0 0 -.737-1.033.911.911 0 0 0 -.147-.012zm16.035 16.709h-5.831l-1.579-8.244h8.823z" fill="#2684ff"/><path d="m28.776 11.874h-8.419l-1.413 8.244h-5.831l-6.885 8.182a1.21 1.21 0 0 0 .785.3h18.274a.9.9 0 0 0 .9-.754z" fill="url(#a)"/></svg>