<?xml version="1.0" encoding="UTF-8" standalone="no"?>
<!-- Created with Inkscape (http://www.inkscape.org/) -->

<svg
   width="32"
   height="32"
   viewBox="0 0 32 32"
   version="1.1"
   id="svg1"
   xml:space="preserve"
   xmlns="http://www.w3.org/2000/svg"
   xmlns:svg="http://www.w3.org/2000/svg"><defs
     id="defs1" /><path
     d="m 4.6719662,28.982884 c -1.7491169,0 -3.1719657,-1.422849 -3.1719657,-3.171965 0,-0.57005 0.1504375,-1.124693 0.4350182,-1.605024 l 7.5565481,-13.088461 0.030812,-0.04622 3.7302342,-6.4681239 c 0.566423,-0.9787681 1.618615,-1.5859738 2.747839,-1.5859738 1.129225,0 2.181417,0.6072057 2.746934,1.5850675 l 11.32847,19.6218352 c 0.273705,0.461297 0.424143,1.01594 0.424143,1.58599 0,1.749116 -1.422848,3.171965 -3.171966,3.171965 z"
     fill="#512bd4"
     id="path1-0"
     style="stroke-width:0.113285" /><path
     d="m 24.456037,18.107558 h -7.558358 l -0.897225,-1.558804 -2.60101,-4.504208 c -0.117812,-0.199375 -0.280955,-0.371562 -0.498455,-0.489393 -0.643456,-0.380625 -1.477242,-0.154063 -1.857885,0.498456 l 3.779189,-6.5433253 c 0.235625,-0.4078305 0.670643,-0.6797055 1.178161,-0.6797055 0.507518,0 0.942537,0.271875 1.178162,0.6797055 l 3.761063,6.5161373 0.0091,0.01812 0.01812,0.02719 z"
     fill="#7455dd"
     id="path2"
     style="stroke-width:0.113285" /><path
     d="m 28.688352,25.810919 c 0,0.752205 -0.607205,1.359411 -1.359411,1.359411 h -7.549298 c 0.752205,0 1.35941,-0.607206 1.35941,-1.359411 0,-0.244706 -0.0725,-0.480331 -0.18125,-0.679706 L 17.178615,18.58787 16.897678,18.107558 h 7.558359 l 4.051065,7.023655 c 0.117812,0.199375 0.18125,0.435 0.18125,0.679706 z"
     fill="#9780e5"
     id="path3"
     style="stroke-width:0.113285" /><path
     d="m 21.139054,25.810919 c 0,0.752205 -0.607205,1.359411 -1.359411,1.359411 h -7.558378 c 0.752223,0 1.359429,-0.607206 1.359429,-1.359411 0,-0.244706 -0.06343,-0.480331 -0.18125,-0.679706 0,-0.0091 -0.0091,-0.01813 -0.01812,-0.02719 L 12.185033,23.155515 9.4933793,18.760076 C 9.2486919,18.361308 8.8136738,18.107558 8.3333431,18.107558 h 8.5643519 l 0.280938,0.480312 0.115094,0.199394 3.664095,6.343949 c 0.10875,0.199375 0.18125,0.435 0.18125,0.679706 z"
     fill="#b9aaee"
     id="path4"
     style="stroke-width:0.113285" /><path
     d="m 13.580694,25.810919 c 0,0.752205 -0.607206,1.359411 -1.359429,1.359411 H 4.6719662 c -0.7522057,0 -1.3594113,-0.607206 -1.3594113,-1.359411 0,-0.244706 0.063438,-0.480331 0.18125,-0.679706 l 3.6613769,-6.343949 c 0.2446875,-0.416894 0.6978307,-0.679706 1.1781614,-0.679706 0.4803306,0 0.9153306,0.25375 1.1600362,0.652518 l 2.6916356,4.395439 1.196286,1.94851 c 0.0091,0.0091 0.01813,0.01813 0.01813,0.02719 0.117813,0.199375 0.18125,0.435 0.18125,0.679705 z"
     fill="#dcd5f6"
     id="path5"
     style="stroke-width:0.113285" /><path
     d="M 16.897679,18.107558 H 8.3333431 c -0.4803306,0 -0.9334738,0.262812 -1.1781613,0.679706 l 0.3896875,-0.679706 3.4619847,-5.990512 0.03625,-0.05437 v -0.0091 c 0.380643,-0.652523 1.214429,-0.879085 1.857885,-0.49846 0.2175,0.117812 0.380625,0.290018 0.498455,0.489393 l 2.60101,4.504208 z"
     fill="#9780e5"
     id="path6-9"
     style="stroke-width:0.113285" /></svg>
