<svg viewBox="0 0 32 32" xmlns="http://www.w3.org/2000/svg"><circle cx="8.309" cy="22.592" fill="#d5635c" r="5.86"/><path d="m8.309 28.9a6.309 6.309 0 1 1 6.309-6.309 6.316 6.316 0 0 1 -6.309 6.309zm0-11.719a5.41 5.41 0 1 0 5.41 5.41 5.416 5.416 0 0 0 -5.41-5.409z" fill="#cb3c33"/><circle cx="16" cy="9.408" fill="#60ad51" r="5.86"/><path d="m16 15.717a6.309 6.309 0 1 1 6.309-6.309 6.316 6.316 0 0 1 -6.309 6.309zm0-11.717a5.41 5.41 0 1 0 5.41 5.41 5.416 5.416 0 0 0 -5.41-5.41z" fill="#389826"/><circle cx="23.691" cy="22.592" fill="#aa79c1" r="5.86"/><path d="m23.691 28.9a6.309 6.309 0 1 1 6.309-6.308 6.316 6.316 0 0 1 -6.309 6.308zm0-11.719a5.41 5.41 0 1 0 5.41 5.41 5.416 5.416 0 0 0 -5.41-5.409z" fill="#9558b2"/></svg>