<svg xmlns="http://www.w3.org/2000/svg" viewBox="0 0 32 32"><title>file_type_ng_tailwind</title><polygon points="16 2 16 2 16 2 2.966 6.648 4.954 23.882 16 30 16 30 16 30 27.046 23.882 29.034 6.648 16 2" style="fill:#dd0031"/><polygon points="16 2 16 5.108 16 5.094 16 19.276 16 19.276 16 30 16 30 27.046 23.882 29.034 6.648 16 2" style="fill:#c3002f"/><path d="M16,5.094,7.852,23.364H10.89l1.638-4.088h6.916l1.638,4.088H24.12Zm2.38,11.662H13.62L16,11.03Z" style="fill:#fff"/><path d="M16,23a4.726,4.726,0,0,1,5-4c4,0,4.5,3,6.5,3.5A3.208,3.208,0,0,0,31,21a4.726,4.726,0,0,1-5,4c-4,0-4.5-3-6.5-3.5A3.208,3.208,0,0,0,16,23Zm-5,6a4.726,4.726,0,0,1,5-4c4,0,4.5,3,6.5,3.5A3.208,3.208,0,0,0,26,27a4.726,4.726,0,0,1-5,4c-4,0-4.5-3-6.5-3.5A3.208,3.208,0,0,0,11,29Z" style="fill:#44a8b3"/></svg>