<svg width="418" height="418" viewBox="0 0 418 418" fill="none" xmlns="http://www.w3.org/2000/svg">
<path d="M0 138.776C0 24.494 24.494 0 138.776 0H279.224C393.506 0 418 24.494 418 138.776V279.224C418 393.506 393.506 418 279.224 418H138.776C24.494 418 0 393.506 0 279.224V138.776Z" fill="black"/>
<path d="M290.671 102C313.168 102 331.405 120.237 331.405 142.733C331.405 165.23 313.168 183.468 290.671 183.468C284.185 183.468 277.524 185.921 274.284 191.541L247.573 237.866C241.775 247.924 244.441 260.508 247.993 271.56C249.255 275.49 249.937 279.68 249.937 284.03C249.937 306.527 231.7 324.765 209.204 324.765C186.707 324.765 168.47 306.527 168.47 284.03C168.47 279.681 169.152 275.491 170.414 271.562C173.965 260.51 176.63 247.927 170.831 237.87L144.118 191.539C140.879 185.921 134.219 183.468 127.733 183.468C105.237 183.468 87 165.23 87 142.733C87 120.237 105.237 102 127.733 102C150.231 102 168.468 120.237 168.469 142.733C168.469 147.083 167.786 151.274 166.523 155.204C162.971 166.256 160.306 178.839 166.104 188.896L192.815 235.222C196.054 240.842 202.716 243.297 209.204 243.297C215.688 243.297 222.347 240.843 225.586 235.225L252.299 188.894C258.098 178.838 255.433 166.254 251.882 155.203C250.619 151.273 249.936 147.083 249.936 142.733C249.937 120.237 268.174 102 290.671 102Z" fill="white"/>
</svg>
