<svg xmlns="http://www.w3.org/2000/svg" viewBox="0 0 32 32"><title>file_type_vcxproj</title><path d="M29.821,4.321,24.023,2,11.493,14.212,3.833,8.385l-1.654.837V22.8l1.644.827,7.65-5.827L24.023,30l5.8-2.321V4.321ZM4.65,19.192V12.818L8.2,15.985ZM16,15.985l7.082-5.3V21.324l-7.092-5.339Z" style="fill:#68217a"/><polygon points="15.995 15.985 23.077 10.686 23.077 21.324 15.985 15.985 15.995 15.985" style="fill:#fff"/><polygon points="4.65 19.192 4.65 12.818 8.196 15.985 4.65 19.192" style="fill:#fff"/><path d="M15.553,32a7.185,7.185,0,0,1-5.541-2.244A8.131,8.131,0,0,1,8,24.05a8.587,8.587,0,0,1,2.222-6.086,7.631,7.631,0,0,1,5.809-2.415,9.876,9.876,0,0,1,3.571.583l.955.372v6.569l-2.3-1.456a3.636,3.636,0,0,0-2-.548,2.127,2.127,0,0,0-1.684.668,2.975,2.975,0,0,0-.663,2.1,2.9,2.9,0,0,0,.62,2.008,1.918,1.918,0,0,0,1.572.618,3.976,3.976,0,0,0,2.165-.607l2.293-1.427v6.292l-.815.419A9.177,9.177,0,0,1,15.553,32Z" style="fill:#efeef0"/><polygon points="24.092 27.909 19.334 27.909 19.334 26.152 17.578 26.152 17.578 21.394 19.334 21.395 19.334 19.638 24.092 19.638 24.092 21.396 25.85 21.396 25.85 26.152 24.092 26.152 24.092 27.909" style="fill:#efeef0"/><polygon points="30.243 27.909 25.485 27.909 25.485 26.152 23.728 26.152 23.728 21.394 25.485 21.395 25.485 19.638 30.243 19.638 30.243 21.396 32 21.396 32 26.152 30.243 26.152 30.243 27.909" style="fill:#efeef0"/><path d="M19.057,29.808a7.682,7.682,0,0,1-3.5.689,5.721,5.721,0,0,1-4.436-1.759A6.657,6.657,0,0,1,9.5,24.05a7.107,7.107,0,0,1,1.817-5.06,6.162,6.162,0,0,1,4.714-1.941,8.364,8.364,0,0,1,3.026.481V20.35a5.129,5.129,0,0,0-2.8-.78,3.61,3.61,0,0,0-2.787,1.152,4.428,4.428,0,0,0-1.06,3.12,4.349,4.349,0,0,0,1,3.007,3.428,3.428,0,0,0,2.693,1.12,5.489,5.489,0,0,0,2.958-.834Z" style="fill:#984c93"/><polygon points="20.834 22.895 20.834 21.137 22.592 21.137 22.592 22.895 24.35 22.895 24.35 24.652 22.592 24.652 22.592 26.409 20.834 26.409 20.834 24.652 19.078 24.652 19.078 22.894 20.834 22.895" style="fill:#984c93"/><polygon points="26.985 22.895 26.985 21.137 28.743 21.137 28.743 22.895 30.5 22.895 30.5 24.652 28.743 24.652 28.743 26.409 26.985 26.409 26.985 24.652 25.228 24.652 25.228 22.894 26.985 22.895" style="fill:#984c93"/></svg>