<svg xmlns="http://www.w3.org/2000/svg" viewBox="0 0 32 32"><title>file_type_mysql</title><path style="fill:#FFFFFF" d="M8.368,6.796c0.153,0.156,0.401,0.253,0.515,0.446C8.979,7.379,8.997,7.513,9.112,7.65	c0,0.467-0.133,0.777-0.401,0.97c0,0-0.018,0.02-0.037,0.039c-0.152-0.311-0.285-0.619-0.439-0.93	c-0.189-0.271-0.456-0.486-0.61-0.796H7.587V6.894C7.817,6.836,8.045,6.796,8.368,6.796 M27.793,23.657	c-1.524-0.039-2.704,0.116-3.695,0.543c-0.286,0.116-0.742,0.116-0.781,0.485c0.153,0.155,0.172,0.406,0.306,0.621	c0.228,0.388,0.627,0.911,0.99,1.183c0.4,0.311,0.8,0.619,1.219,0.891c0.742,0.468,1.58,0.738,2.303,1.204	c0.42,0.271,0.838,0.62,1.258,0.912c0.209,0.155,0.341,0.408,0.608,0.503v-0.059c-0.134-0.174-0.172-0.426-0.304-0.621	c-0.19-0.193-0.381-0.369-0.572-0.561c-0.553-0.757-1.239-1.416-1.98-1.959c-0.61-0.428-1.944-1.01-2.19-1.726	c0,0-0.02-0.02-0.039-0.04c0.419-0.04,0.915-0.195,1.314-0.313c0.646-0.174,1.237-0.135,1.903-0.309	c0.305-0.078,0.61-0.175,0.916-0.271v-0.175c-0.345-0.348-0.591-0.815-0.953-1.144c-0.97-0.854-2.038-1.687-3.142-2.386	c-0.591-0.388-1.353-0.639-1.982-0.97c-0.227-0.116-0.608-0.174-0.742-0.369c-0.343-0.427-0.534-0.988-0.781-1.494	c-0.552-1.066-1.086-2.248-1.561-3.376c-0.343-0.756-0.552-1.512-0.971-2.211c-1.963-3.299-4.095-5.296-7.37-7.256	c-0.705-0.409-1.543-0.583-2.437-0.796c-0.477-0.02-0.953-0.058-1.429-0.077c-0.305-0.136-0.61-0.505-0.877-0.68	C5.718,2.51,2.92,0.997,2.12,2.995c-0.514,1.262,0.762,2.503,1.2,3.144c0.323,0.446,0.743,0.951,0.97,1.455	c0.134,0.33,0.172,0.68,0.306,1.028c0.304,0.854,0.59,1.804,0.99,2.6c0.209,0.408,0.437,0.835,0.704,1.202	c0.154,0.215,0.42,0.311,0.477,0.661c-0.266,0.387-0.286,0.97-0.439,1.455c-0.685,2.192-0.419,4.909,0.553,6.518	c0.304,0.485,1.028,1.553,2,1.144c0.857-0.348,0.666-1.455,0.914-2.424c0.057-0.234,0.019-0.388,0.133-0.543v0.04	c0.266,0.542,0.534,1.065,0.781,1.61c0.591,0.95,1.618,1.94,2.476,2.599c0.456,0.35,0.818,0.951,1.389,1.165V24.59h-0.038	c-0.114-0.174-0.285-0.253-0.438-0.387c-0.343-0.349-0.723-0.776-0.991-1.164c-0.799-1.086-1.505-2.289-2.132-3.531	c-0.306-0.603-0.571-1.262-0.819-1.863c-0.114-0.231-0.114-0.582-0.305-0.698c-0.286,0.426-0.704,0.796-0.914,1.317	c-0.362,0.835-0.4,1.863-0.534,2.931c-0.076,0.02-0.038,0-0.076,0.039c-0.609-0.155-0.818-0.795-1.047-1.337	c-0.571-1.379-0.667-3.591-0.171-5.182c0.133-0.406,0.706-1.687,0.476-2.075c-0.115-0.37-0.496-0.582-0.705-0.874	c-0.247-0.369-0.515-0.833-0.685-1.242C5.738,9.438,5.508,8.235,5.014,7.149C4.785,6.643,4.385,6.12,4.062,5.655	C3.699,5.131,3.3,4.763,3.014,4.142C2.919,3.928,2.786,3.579,2.938,3.346c0.038-0.156,0.115-0.214,0.267-0.254	C3.451,2.88,4.157,3.151,4.404,3.267c0.705,0.29,1.295,0.563,1.885,0.97c0.267,0.195,0.553,0.562,0.895,0.661h0.401	C8.194,5.033,8.88,4.936,9.452,5.111c1.008,0.329,1.922,0.815,2.742,1.339c2.494,1.611,4.551,3.901,5.941,6.635	c0.229,0.445,0.325,0.854,0.534,1.318c0.4,0.953,0.896,1.922,1.295,2.853c0.4,0.912,0.782,1.842,1.353,2.6	c0.285,0.406,1.428,0.62,1.942,0.834c0.38,0.174,0.971,0.329,1.314,0.542c0.648,0.406,1.294,0.873,1.904,1.32	C26.783,22.784,27.736,23.269,27.793,23.657"/></svg>