<svg viewBox="0 0 32 32" xmlns="http://www.w3.org/2000/svg"><path d="m20.092 29v-9.318a6.953 6.953 0 0 1 -2.392 1.963 6.743 6.743 0 0 1 -3.089.724 6.557 6.557 0 0 1 -5.198-2.369 11.081 11.081 0 0 1 -2.413-7.525 10.033 10.033 0 0 1 2.264-6.975 7.251 7.251 0 0 1 5.61-2.5 6.266 6.266 0 0 1 3.2.785 7.329 7.329 0 0 1 2.4 2.373v-2.739h4.526v25.581zm.157-16.542a6.492 6.492 0 0 0 -1.16-4.232 3.634 3.634 0 0 0 -2.905-1.387 3.742 3.742 0 0 0 -2.975 1.413 6.881 6.881 0 0 0 -1.2 4.485 6.767 6.767 0 0 0 1.152 4.406 3.593 3.593 0 0 0 2.848 1.357 3.786 3.786 0 0 0 2.966-1.518 6.889 6.889 0 0 0 1.274-4.524z" fill="#1e78b3"/></svg>