<svg viewBox="0 0 32 32" xmlns="http://www.w3.org/2000/svg"><path d="m16.087 9.207a.656.656 0 1 1 -.08 1.194.661.661 0 0 1 .08-1.194z" fill="#c91121"/><path d="m12.67 10.29a.708.708 0 0 1 1.014.427.7.7 0 1 1 -1.014-.427z" fill="#c91121"/><path d="m19.179 10.523a.65.65 0 1 1 -.227 1.119.652.652 0 0 1 .227-1.119z" fill="#cd1925"/><path d="m16.007 11.313a.682.682 0 0 1 .991.556.689.689 0 0 1 -1.073.63.7.7 0 0 1 .082-1.186z" fill="#cd1925"/><path d="m9.364 11.688a.739.739 0 1 1 -.216 1.218.74.74 0 0 1 .216-1.218z" fill="#c91121"/><path d="m21.6 12.154a.658.658 0 0 1 1.025.469.649.649 0 0 1 -.92.652.658.658 0 0 1 -.105-1.121z" fill="#e0403c"/><path d="m13.065 12.314a.712.712 0 0 1 .944.693.727.727 0 1 1 -.944-.693z" fill="#cd1925"/><path d="m18.779 12.652a.7.7 0 0 1 1.034.616.687.687 0 1 1 -1.034-.616z" fill="#e0403c"/><path d="m15.9 13.482a.714.714 0 1 1 .1 1.218.719.719 0 0 1 -.1-1.218z" fill="#e0403c"/><path d="m5.914 13.6a.79.79 0 1 1 -.008 1.4.8.8 0 0 1 .008-1.4z" fill="#c91121"/><path d="m10 13.7a.769.769 0 1 1 -.091 1.39.769.769 0 0 1 .091-1.39z" fill="#cd1925"/><path d="m23.986 13.795a.659.659 0 0 1 .861.849.65.65 0 0 1 -1.131.134.665.665 0 0 1 .27-.983z" fill="#ec7480"/><path d="m21.207 14.181a.689.689 0 0 1 1 .6.679.679 0 0 1 -1.067.543.691.691 0 0 1 .067-1.143z" fill="#ec7480"/><path d="m13.189 14.491a.741.741 0 1 1 .071 1.325.743.743 0 0 1 -.071-1.325z" fill="#e0403c"/><path d="m18.676 14.723a.7.7 0 1 1 -.389 1.031.717.717 0 0 1 .389-1.031z" fill="#ec7480"/><path d="m7.029 15.46a.8.8 0 1 1 -.109 1.478.812.812 0 0 1 .109-1.478z" fill="#cd1925"/><path d="m15.9 15.65a.719.719 0 1 1 .184 1.263.72.72 0 0 1 -.184-1.263z" fill="#ec7480"/><path d="m25.943 15.639a.656.656 0 1 1 -.047 1.182.658.658 0 0 1 .047-1.182z" fill="#f6b3c3"/><path d="m10.485 15.829a.786.786 0 0 1 1.135.5.772.772 0 1 1 -1.135-.5z" fill="#e0403c"/><path d="m23.361 15.84a.668.668 0 1 1 -.107 1.19.674.674 0 0 1 .107-1.19z" fill="#f6b3c3"/><path d="m2.465 16.14a.832.832 0 1 1 -.2 1.362.834.834 0 0 1 .2-1.362z" fill="#c91121"/><path d="m20.841 16.271a.681.681 0 1 1 -.289 1.056.691.691 0 0 1 .289-1.056z" fill="#f6b3c3"/><path d="m13.673 16.588a.742.742 0 1 1 -.31 1.3.743.743 0 0 1 .31-1.3z" fill="#ec7480"/><path d="m18.278 16.984a.711.711 0 0 1 1.068.488.7.7 0 1 1 -1.068-.488z" fill="#f6b3c3"/><path d="m7.823 17.52a.805.805 0 1 1 .118 1.42.807.807 0 0 1 -.118-1.42z" fill="#e0403c"/><path d="m25.291 17.616a.654.654 0 1 1 -.438 1.022.657.657 0 0 1 .438-1.022z" fill="#fae9f1"/><path d="m27.563 17.625a.659.659 0 0 1 .981.492.655.655 0 1 1 -.981-.492z" fill="#fae9f1"/><path d="m4.11 17.742a.837.837 0 0 1 1.057.884.84.84 0 1 1 -1.057-.884z" fill="#cd1925"/><path d="m16 17.812a.715.715 0 1 1 -.028 1.268.721.721 0 0 1 .028-1.268z" fill="#f6b3c3"/><path d="m11.149 17.936a.777.777 0 0 1 1.07.687.768.768 0 1 1 -1.07-.687z" fill="#ec7480"/><path d="m22.61 18.007a.666.666 0 1 1 -.032 1.106.669.669 0 0 1 .032-1.106z" fill="#fae9f1"/><path d="m20.3 18.5a.682.682 0 0 1 1.006.517.674.674 0 1 1 -1.006-.517z" fill="#fae9f1"/><path d="m13.787 18.887a.727.727 0 1 1 -.191 1.176.733.733 0 0 1 .191-1.176z" fill="#f6b3c3"/><path d="m18.162 19.188a.681.681 0 1 1 -.21 1.142.682.682 0 0 1 .21-1.142z" fill="#fae9f1"/><g fill="#f1f1f1"><path d="m26.806 19.526a.653.653 0 1 1 -.432 1.024.655.655 0 0 1 .432-1.024z"/><path d="m29 19.687a.652.652 0 1 1 .05 1.136.659.659 0 0 1 -.05-1.136z"/><path d="m24.159 19.829a.647.647 0 1 1 .314 1.15.645.645 0 0 1 -.314-1.15z"/></g><path d="m15.967 20.163a.684.684 0 1 1 -.114 1.1.69.69 0 0 1 .114-1.1z" fill="#fae9f1"/><path d="m21.964 20.178a.662.662 0 0 1 1 .483.655.655 0 1 1 -1-.483z" fill="#f1f1f1"/><path d="m19.961 20.739a.653.653 0 1 1 -.147 1.161.65.65 0 0 1 .147-1.161z" fill="#f1f1f1"/><path d="m17.877 21.582a.658.658 0 1 1 -.057 1.149.663.663 0 0 1 .057-1.149z" fill="#f1f1f1"/></svg>