<svg id="Layer_5" data-name="Layer 5" xmlns="http://www.w3.org/2000/svg" viewBox="0 0 32 32">
  <title>file_type_toml@2x</title>
  <g id="g5047">
    <g id="g5049">
      <path id="path5051" d="M15.08,19.94h1.27l0.16-.56,0.08-.56L16.68,18l0.16-1.43,0.24-1.59v-1l-0.48.72-1,1.43-1.51,2.23-1.27,1.67h2.23v0.64l-0.8.08h-0.4l-0.4-.08-0.4-.08-0.56.08-0.32.08H12.14L12,20.5l-0.08-.32L12,20l1.75-2.23,0.8-1,0.32-.56,0.32-.56L15.48,15l0.24-.4,0.32-.4L16.12,14V13.49H15.8l-0.4-.16-0.48-.16L14.37,13l-0.24-.08h-0.4l-0.48-.16-0.72-.32-0.4-.08-0.32-.16-0.16-.08-0.24.08-0.32-.16-0.32-.16-0.24-.08-0.4.08L9.59,12H9.43l-0.08-.16-0.24.08H8.71l-0.4.16H8.23L8.31,12l0.32-.32,0.64-.48,0.4-.4,0.4-.32H10L9.27,11l-0.56.4-0.48.32-0.48.32-0.24.24-0.16.16-0.24.24-0.48.24-0.16.16V13l0.08-.16,0.24-.32,0.32-.32,0.32-.4,0.48-.48,0.48-.48L9,10.46l1-.56,0.88-.48,1.91-1.19,1.35-1L14.77,7l0.72-.24,0.88-.32,0.88-.08v12.9L17.39,20,18,20.1h0.64L19,20.18h0.24l0.24,0.24,0.16,0.24L19.78,21l0.08,0.16,0.08,0.16,0.16,0.24v0.32l0.08,0.4,0.16,0.4V23l-0.08.32-0.32.24H19.62l-0.16-.08V23.37L19.78,23l-0.16-.48-0.32-.88L19.15,22l0.08,0.32-0.08-.08-0.24-.4-0.08-.16,0.08-.16,0.24-.32V21.06l-0.08-.32-0.4-.16-0.4-.08H17.39v0.24l-0.08.4-0.08.4v0.72l0.08,1.67v0.32l0.08,0.64v1.43L17.47,27l0.08,0.32,0.08,0.56,0.08,0.48v0.16l0.08,0.08,0.08,0.16,0.24,0.16,0.24,0.08h0.56l0.16-.08,0.24,0.08,0.24,0.16,0.08,0.08,0.16,0.08H19.62l-0.16.08-0.16.08,0.24,0.16,0.08,0.08-0.08.08-0.08.08-0.08-.08-0.08-.08H19.23L19,29.58l-0.64.08-0.4.08-0.4-.08h-1l-0.32-.16L16,29.58l-0.16.08-0.08.08L15.72,30V29.5l0.08-.16L16,29.18l0.48-.4,0.32-.24,0.08-.16,0.08-.16L17,27.91l0.08-.48V26.87L17,26.31V25.76l-0.08-1.12-0.08-.56v-0.4L16.76,23l-0.08-1.35-0.08-.32-0.24-.88-1.27.08V19.94" style="fill: #ff56aa;stroke: #ff56aa"/>
      <path id="path5053" d="M15.08,19.94h1.27l0.16-.56,0.08-.56L16.68,18l0.16-1.43,0.24-1.59v-1l-0.48.72-1,1.43-1.51,2.23-1.27,1.67h2.23v0.64l-0.8.08h-0.4l-0.4-.08-0.4-.08-0.56.08-0.32.08H12.14L12,20.5l-0.08-.32L12,20l1.75-2.23,0.8-1,0.32-.56,0.32-.56L15.48,15l0.24-.4,0.32-.4L16.12,14V13.49H15.8l-0.4-.16-0.48-.16L14.37,13l-0.24-.08h-0.4l-0.48-.16-0.72-.32-0.4-.08-0.32-.16-0.16-.08-0.24.08-0.32-.16-0.32-.16-0.24-.08-0.4.08L9.59,12H9.43l-0.08-.16-0.24.08H8.71l-0.4.16H8.23L8.31,12l0.32-.32,0.64-.48,0.4-.4,0.4-.32H10L9.27,11l-0.56.4-0.48.32-0.48.32-0.24.24-0.16.16-0.24.24-0.48.24-0.16.16V13l0.08-.16,0.24-.32,0.32-.32,0.32-.4,0.48-.48,0.48-.48L9,10.46l1-.56,0.88-.48,1.91-1.19,1.35-1L14.77,7l0.72-.24,0.88-.32,0.88-.08v12.9L17.39,20,18,20.1h0.64L19,20.18h0.24l0.24,0.24,0.16,0.24L19.78,21l0.08,0.16,0.08,0.16,0.16,0.24v0.32l0.08,0.4,0.16,0.4V23l-0.08.32-0.32.24H19.62l-0.16-.08V23.37L19.78,23l-0.16-.48-0.32-.88L19.15,22l0.08,0.32-0.08-.08-0.24-.4-0.08-.16,0.08-.16,0.24-.32V21.06l-0.08-.32-0.4-.16-0.4-.08H17.39v0.24l-0.08.4-0.08.4v0.72l0.08,1.67v0.32l0.08,0.64v1.43L17.47,27l0.08,0.32,0.08,0.56,0.08,0.48v0.16l0.08,0.08,0.08,0.16,0.24,0.16,0.24,0.08h0.56l0.16-.08,0.24,0.08,0.24,0.16,0.08,0.08,0.16,0.08H19.62l-0.16.08-0.16.08,0.24,0.16,0.08,0.08-0.08.08-0.08.08-0.08-.08-0.08-.08H19.23L19,29.58l-0.64.08-0.4.08-0.4-.08h-1l-0.32-.16L16,29.58l-0.16.08-0.08.08L15.72,30V29.5l0.08-.16L16,29.18l0.48-.4,0.32-.24,0.08-.16,0.08-.16L17,27.91l0.08-.48V26.87L17,26.31V25.76l-0.08-1.12-0.08-.56v-0.4L16.76,23l-0.08-1.35-0.08-.32-0.24-.88-1.27.08V19.94Z" style="fill: #ff56aa;stroke: #ff56aa;stroke-width: 0.3790000081062317px"/>
      <path id="path5055" d="M22.33,3.77l0.16,0.08L22.65,4l0.16,0.32,0.08,0.24L23,4.81,23,5l0.32,0.24,0.24,0.08,0.08,0.08,0.24,0.16V6.08l-0.16.16-0.08.16,0.08,0.32V6.8l0.08,0.48-0.08.32-0.08.16-0.16.32-0.4-.4L22.41,6.8l-0.32-.56-0.16-.32-0.32-.48L21.46,5l-0.08-.32,0.08-.16,0.24-.32L22,3.85h0.16l0.16-.08V2.1l-0.48.16-0.56.32-0.48.32-0.24.32-0.24.4-0.24.64L20,4.81V5.37l0.16,0.48L20.5,6.4l0.16,0.24L20.9,7l0.24,0.4,0.08,0.16,0.32,0.24,0.4,0.48,0.32,0.48,0.32,0.4,0.16,0.56,0.16,0.56v1l-0.08.08-0.24.16H22.41l-0.16-.08-0.16-.08L22,11.18V11l-0.08-.16V9l-0.08-.24-0.16-.4-0.32-.48L21.14,7.6l-0.48-.48-0.4-.32-0.4-.24-0.4-.08L19.31,6.4l-0.16-.08H19.07l-0.16-.08H17.71l-0.48.08V17.79l0.16-1.19V16.36l0.08-.24,0.08-.24V15.8l0.16-.64V14.61L17.79,14,18,13.49,18,13.25h0.08l0.32-.08,0.72-.08,0.4,0.08h0.08l0.16,0.08h0.08l0.64,0.24,0.32,0.08h0.24l0.08,0.08h1.43l0.72-.24V13.33l0.08,0.08h0.16l0.24-.08,0.08-.08,0.24-.32,0.48-.72,0.16-.32,0.08-.48V11.18L24.72,11l-0.08-.32-0.08-.4V9.91l-0.08-.4-0.24-.4-0.32-.56-0.16-.16-0.08-.08V8.23l0.24-.08,0.16-.08,0.16-.16H24.4l0.08-.16h0.08l0.08-.16,0.08-.08,0.08-.08L25.12,7l0.24-.48,0.08-.4,0.08-.32-0.08-.32V5.37l-0.08-.16L25.2,4.89l-0.08-.32L25,4.25V4.17l0.08-.24V3.53L25,3.22l-0.4-.48-0.48-.4-0.24-.16H23.69L23.45,2.1,23.21,2H22.49l-0.16.08V3.77" style="fill: #ff56aa;stroke: #ff56aa"/>
      <path id="path5057" d="M22.33,3.77l0.16,0.08L22.65,4l0.16,0.32,0.08,0.24L23,4.81,23,5l0.32,0.24,0.24,0.08,0.08,0.08,0.24,0.16V6.08l-0.16.16-0.08.16,0.08,0.32V6.8l0.08,0.48-0.08.32-0.08.16-0.16.32-0.4-.4L22.41,6.8l-0.32-.56-0.16-.32-0.32-.48L21.46,5l-0.08-.32,0.08-.16,0.24-.32L22,3.85h0.16l0.16-.08V2.1l-0.48.16-0.56.32-0.48.32-0.24.32-0.24.4-0.24.64L20,4.81V5.37l0.16,0.48L20.5,6.4l0.16,0.24L20.9,7l0.24,0.4,0.08,0.16,0.32,0.24,0.4,0.48,0.32,0.48,0.32,0.4,0.16,0.56,0.16,0.56v1l-0.08.08-0.24.16H22.41l-0.16-.08-0.16-.08L22,11.18V11l-0.08-.16V9l-0.08-.24-0.16-.4-0.32-.48L21.14,7.6l-0.48-.48-0.4-.32-0.4-.24-0.4-.08L19.31,6.4l-0.16-.08H19.07l-0.16-.08H17.71l-0.48.08V17.79l0.16-1.19V16.36l0.08-.24,0.08-.24V15.8l0.16-.64V14.61L17.79,14,18,13.49,18,13.25h0.08l0.32-.08,0.72-.08,0.4,0.08h0.08l0.16,0.08h0.08l0.64,0.24,0.32,0.08h0.24l0.08,0.08h1.43l0.72-.24V13.33l0.08,0.08h0.16l0.24-.08,0.08-.08,0.24-.32,0.48-.72,0.16-.32,0.08-.48V11.18L24.72,11l-0.08-.32-0.08-.4V9.91l-0.08-.4-0.24-.4-0.32-.56-0.16-.16-0.08-.08V8.23l0.24-.08,0.16-.08,0.16-.16H24.4l0.08-.16h0.08l0.08-.16,0.08-.08,0.08-.08L25.12,7l0.24-.48,0.08-.4,0.08-.32-0.08-.32V5.37l-0.08-.16L25.2,4.89l-0.08-.32L25,4.25V4.17l0.08-.24V3.53L25,3.22l-0.4-.48-0.48-.4-0.24-.16H23.69L23.45,2.1,23.21,2H22.49l-0.16.08V3.77Z" style="fill: #ff56aa;stroke: #ff56aa;stroke-width: 0.3790000081062317px"/>
      <path id="path5059" d="M24,2.34L24.24,2.5l0.4,0.4,0.24,0.32L25,3.53V4.17L25,4.25l-0.08.08H24.8l-0.08-.16-0.08-.24-0.08-.24-0.08-.16L24.4,3.46H24.16l-0.08.08L24,3.69V3.85L24.08,4l0.24,0.16,0.24,0.24,0.16,0.32V5L24.64,5,24.48,5l-0.24-.08L24.16,5l-0.08.16L24,5.37H23.93L23.53,5,23.29,5l-0.08-.08H23.13L23,4.73l-0.08-.32V4.17L23,4.09l0.32,0.16h0.32l-0.16-.08-0.32-.08H23L23,4l-0.24-.16-0.32-.08H22.17L22,3.85l-0.32.24-0.32.32,0.08-.32V4l-0.08.16V4.81l0.16,0.4,0.24,0.64,0.16,0.24,0.32,0.48L22.49,7l0.72,0.8,0.24,0.4-0.08.08,0.08,0.16h0.08l0.08-.08,0.08,0.08,0.08,0.16L24,8.87l0.32,0.56,0.16,0.32v0.56h0.08v0.32l0.08,0.16,0.08,0.4V11.5L24.64,12l-0.16.24L24,13l-0.16.24-0.16.08H23.37l0.24-.24H23.53l-0.08.08-0.32.24-0.24.08-0.4.08H22l0.16-.08,0.16-.08V13.33l-0.16.08L22,13.49l-0.08.08H22l-0.08.08-0.64-.08H21l-0.4-.16L20,13.25H20.1l0.16-.08,0.16,0.08h0.16l0.4-.08L21.3,13l0.4-.4L22.33,12l0.16-.08,0.08-.16,0.24-.24L23,11.26v-0.8l-0.08-.32-0.08-.32-0.16-.56L22.57,9l-0.24-.32-0.08-.16L21.77,8l-0.16-.16-0.4-.4L20.9,7l-0.16-.32-0.32-.4-0.08-.16V6l-0.16-.32-0.08-.4V4.49l0.08-.24,0.24-.72,0.24-.32L20.82,3l0.4-.24,0.4-.32,0.32-.16,0.32-.08,0.16-.08h1L24,2.34" style="fill: #ff56aa;stroke: #ff56aa"/>
      <path id="path5061" d="M24,2.34L24.24,2.5l0.4,0.4,0.24,0.32L25,3.53V4.17L25,4.25l-0.08.08H24.8l-0.08-.16-0.08-.24-0.08-.24-0.08-.16L24.4,3.46H24.16l-0.08.08L24,3.69V3.85L24.08,4l0.24,0.16,0.24,0.24,0.16,0.32V5L24.64,5,24.48,5l-0.24-.08L24.16,5l-0.08.16L24,5.37H23.93L23.53,5,23.29,5l-0.08-.08H23.13L23,4.73l-0.08-.32V4.17L23,4.09l0.32,0.16h0.32l-0.16-.08-0.32-.08H23L23,4l-0.24-.16-0.32-.08H22.17L22,3.85l-0.32.24-0.32.32,0.08-.32V4l-0.08.16V4.81l0.16,0.4,0.24,0.64,0.16,0.24,0.32,0.48L22.49,7l0.72,0.8,0.24,0.4-0.08.08,0.08,0.16h0.08l0.08-.08,0.08,0.08,0.08,0.16L24,8.87l0.32,0.56,0.16,0.32v0.56h0.08v0.32l0.08,0.16,0.08,0.4V11.5L24.64,12l-0.16.24L24,13l-0.16.24-0.16.08H23.37l0.24-.24H23.53l-0.08.08-0.32.24-0.24.08-0.4.08H22l0.16-.08,0.16-.08V13.33l-0.16.08L22,13.49l-0.08.08H22l-0.08.08-0.64-.08H21l-0.4-.16L20,13.25H20.1l0.16-.08,0.16,0.08h0.16l0.4-.08L21.3,13l0.4-.4L22.33,12l0.16-.08,0.08-.16,0.24-.24L23,11.26v-0.8l-0.08-.32-0.08-.32-0.16-.56L22.57,9l-0.24-.32-0.08-.16L21.77,8l-0.16-.16-0.4-.4L20.9,7l-0.16-.32-0.32-.4-0.08-.16V6l-0.16-.32-0.08-.4V4.49l0.08-.24,0.24-.72,0.24-.32L20.82,3l0.4-.24,0.4-.32,0.32-.16,0.32-.08,0.16-.08h1Z" style="fill: #ff56aa;stroke: #ff56aa;stroke-width: 0.3790000081062317px"/>
      <path id="path5063" d="M23.93,2.82H23.85l-0.08-.08H23.69l-0.08.08L23.69,2.9l0.16,0.24L24,3.22H23.85l-0.08.08,0.08,0.08H23.77L23.69,3.3l0.08-.08,0.08-.08L23.69,3,23.61,2.9V2.74h0.16l0.16,0.08" style="fill: #ff56aa;stroke: #ff56aa"/>
      <path id="path5065" d="M23.93,2.82H23.85l-0.08-.08H23.69l-0.08.08L23.69,2.9l0.16,0.24L24,3.22H23.85l-0.08.08,0.08,0.08H23.77L23.69,3.3l0.08-.08,0.08-.08L23.69,3,23.61,2.9V2.74h0.16Z" style="fill: #ff56aa;stroke: #ff56aa;stroke-width: 0.3790000081062317px"/>
      <path id="path5067" d="M24.4,3.61l0.08,0.08,0.08,0.4,0.16,0.24L24.8,4.41H25L25,4.33,25.2,4.89V5l0.08,0.24V5.29H25.2V5.37H25.12V5.21L25,5V4.89H24.88L24.8,5l0.08,0.16,0.24,0.32V5.76H25.2V5.45l0.08-.08,0.08-.08V5.53l0.08,0.32-0.08.24-0.16.24L25,6.64,25,6.32V6l-0.16-.4L24.72,5,24.8,5l-0.08-.24-0.24-.4-0.24-.24-0.08-.16-0.08-.16V3.53H24.4V3.61" style="fill: #ff56aa;stroke: #ff56aa"/>
      <path id="path5069" d="M24.4,3.61l0.08,0.08,0.08,0.4,0.16,0.24L24.8,4.41H25L25,4.33,25.2,4.89V5l0.08,0.24V5.29H25.2V5.37H25.12V5.21L25,5V4.89H24.88L24.8,5l0.08,0.16,0.24,0.32V5.76H25.2V5.45l0.08-.08,0.08-.08V5.53l0.08,0.32-0.08.24-0.16.24L25,6.64,25,6.32V6l-0.16-.4L24.72,5,24.8,5l-0.08-.24-0.24-.4-0.24-.24-0.08-.16-0.08-.16V3.53H24.4V3.61Z" style="fill: #ff56aa;stroke: #ff56aa;stroke-width: 0.3790000081062317px"/>
      <path id="path5071" d="M24.48,3.85V3.93L24.4,4H24.24l-0.08-.16V3.77l0.08-.08H24.4l0.08,0.16" style="fill: #ff56aa;stroke: #ff56aa"/>
      <path id="path5073" d="M24.48,3.85V3.93L24.4,4H24.24l-0.08-.16V3.77l0.08-.08H24.4Z" style="fill: #ff56aa;stroke: #ff56aa;stroke-width: 0.3790000081062317px"/>
      <path id="path5075" d="M21.3,3.93V3.85l0.16-.08-0.16.16" style="fill: #ff56aa;stroke: #ff56aa"/>
      <path id="path5077" d="M21.3,3.93V3.85l0.16-.08Z" style="fill: #ff56aa;stroke: #ff56aa;stroke-width: 0.3790000081062317px"/>
      <path id="path5079" d="M24.32,3.85h0" style="fill: #ff56aa;stroke: #ff56aa"/>
      <path id="path5081" d="M24.32,3.85h0Z" style="fill: #ff56aa;stroke: #ff56aa;stroke-width: 0.3790000081062317px"/>
      <path id="path5083" d="M21.06,4.09V4l0.08-.16-0.08.24" style="fill: #ff56aa;stroke: #ff56aa"/>
      <path id="path5085" d="M21.06,4.09V4l0.08-.16Z" style="fill: #ff56aa;stroke: #ff56aa;stroke-width: 0.3790000081062317px"/>
      <path id="path5087" d="M23,4.09H22.81V4.17l-0.16-.24L22.89,4,23,4.09" style="fill: #ff56aa;stroke: #ff56aa"/>
      <path id="path5089" d="M23,4.09H22.81V4.17l-0.16-.24L22.89,4Z" style="fill: #ff56aa;stroke: #ff56aa;stroke-width: 0.3790000081062317px"/>
      <path id="path5091" d="M21.3,4.17l-0.16.32H21.06L21,4.41V4.25h0.08V4.41l0.16-.16,0.08-.16V4.17" style="fill: #ff56aa;stroke: #ff56aa"/>
      <path id="path5093" d="M21.3,4.17l-0.16.32H21.06L21,4.41V4.25h0.08V4.41l0.16-.16,0.08-.16V4.17Z" style="fill: #ff56aa;stroke: #ff56aa;stroke-width: 0.3790000081062317px"/>
      <path id="path5095" d="M23.37,5l0.48,0.32,0.08,0.16L24,5.61l-0.08-.08-0.4-.24-0.16-.08L23.21,5,23,4.89V4.81L23.29,5h0.08" style="fill: #ff56aa;stroke: #ff56aa"/>
      <path id="path5097" d="M23.37,5l0.48,0.32,0.08,0.16L24,5.61l-0.08-.08-0.4-.24-0.16-.08L23.21,5,23,4.89V4.81L23.29,5h0.08Z" style="fill: #ff56aa;stroke: #ff56aa;stroke-width: 0.3790000081062317px"/>
      <path id="path5099" d="M24.48,5l0.08,0.08h0.08L24.8,5.45l0.08,0.24L25,6.16V6.32l-0.08.32-0.08.08-0.08.16H24.48L24.4,6.8V5.29H24.32V5.37l0.08,0.4-0.08.4-0.08.4V6.64l-0.16.16H23.85V6.72L23.77,6.4l0.08-.16L24,6.08V5.92l0.08-.32L24,5.53l0.08-.32L24.16,5,24.24,5,24.4,5h0.08" style="fill: #ff56aa;stroke: #ff56aa"/>
      <path id="path5101" d="M24.48,5l0.08,0.08h0.08L24.8,5.45l0.08,0.24L25,6.16V6.32l-0.08.32-0.08.08-0.08.16H24.48L24.4,6.8V5.29H24.32V5.37l0.08,0.4-0.08.4-0.08.4V6.64l-0.16.16H23.85V6.72L23.77,6.4l0.08-.16L24,6.08V5.92l0.08-.32L24,5.53l0.08-.32L24.16,5,24.24,5,24.4,5h0.08Z" style="fill: #ff56aa;stroke: #ff56aa;stroke-width: 0.3790000081062317px"/>
      <path id="path5103" d="M18.43,6.32h0.48L19.15,6.4h0.16V6.48l0.24,0.08L20,6.72l0.24,0.16L20.42,7.2,20.5,7.44l0.16,0.64,0.08,0.64L20.9,9.19l0.16,0.24,0.16,0.48,0.08,0.32v0.32L21.06,11H21l-0.08-.16-0.48-.24-0.32-.24-0.16-.16-0.4-.56L19,9.19l-0.48-.32H18.35l-0.64-.16h-0.4L17,8.79,16.76,9l-0.16.16-0.48.24-0.24.16H15.8l-0.08.08L15.8,9.67V9.75L16,9.83H15.8L15.08,10l-0.32.08-0.16.08,0.16,0.16h0.08l-0.16.08-0.4.08L14,10.54l-0.08.08-0.08.08L14,10.78l-0.32.08-0.8-.08-0.16.08L12.54,11l-0.16.16v0.08H11.82l-0.16.08-0.16.16V12l0.08,0.08-0.08.08H11.34l-0.24-.08-0.32-.24H10.07l-0.4.08H9.51l-0.08-.08V11.58l0.32-.4,0.4-.4,0.4-.32,0.48-.4,0.48-.56L11.82,9,12,8.71l0.8-.48,0.64-.4,0.88-.56L14.92,7l0.56-.24L16,6.56l0.4-.08,0.48-.08,0.32-.08h0.16l0.32-.08h0.72l0.08,0.08" style="fill: #ff56aa;stroke: #ff56aa"/>
      <path id="path5105" d="M18.43,6.32h0.48L19.15,6.4h0.16V6.48l0.24,0.08L20,6.72l0.24,0.16L20.42,7.2,20.5,7.44l0.16,0.64,0.08,0.64L20.9,9.19l0.16,0.24,0.16,0.48,0.08,0.32v0.32L21.06,11H21l-0.08-.16-0.48-.24-0.32-.24-0.16-.16-0.4-.56L19,9.19l-0.48-.32H18.35l-0.64-.16h-0.4L17,8.79,16.76,9l-0.16.16-0.48.24-0.24.16H15.8l-0.08.08L15.8,9.67V9.75L16,9.83H15.8L15.08,10l-0.32.08-0.16.08,0.16,0.16h0.08l-0.16.08-0.4.08L14,10.54l-0.08.08-0.08.08L14,10.78l-0.32.08-0.8-.08-0.16.08L12.54,11l-0.16.16v0.08H11.82l-0.16.08-0.16.16V12l0.08,0.08-0.08.08H11.34l-0.24-.08-0.32-.24H10.07l-0.4.08H9.51l-0.08-.08V11.58l0.32-.4,0.4-.4,0.4-.32,0.48-.4,0.48-.56L11.82,9,12,8.71l0.8-.48,0.64-.4,0.88-.56L14.92,7l0.56-.24L16,6.56l0.4-.08,0.48-.08,0.32-.08h0.16l0.32-.08h0.72Z" style="fill: #ff56aa;stroke: #ff56aa;stroke-width: 0.3790000081062317px"/>
      <path id="path5107" d="M18.43,6.56h0l-0.32-.08h-0.4l-0.32.08-0.16.08,0.16,0.08H17.23V6.64l0.08-.08,0.48-.08h0.4l0.24,0.08" style="fill: #ff56aa;stroke: #ff56aa"/>
      <path id="path5109" d="M18.43,6.56h0l-0.32-.08h-0.4l-0.32.08-0.16.08,0.16,0.08H17.23V6.64l0.08-.08,0.48-.08h0.4Z" style="fill: #ff56aa;stroke: #ff56aa;stroke-width: 0.3790000081062317px"/>
      <path id="path5111" d="M19.62,6.8l0.24,0.08H19.78L19.46,6.8,19,6.72H18.75V6.8H18.67l0.08-.08h0.56L19.62,6.8" style="fill: #ff56aa;stroke: #ff56aa"/>
      <path id="path5113" d="M19.62,6.8l0.24,0.08H19.78L19.46,6.8,19,6.72H18.75V6.8H18.67l0.08-.08h0.56Z" style="fill: #ff56aa;stroke: #ff56aa;stroke-width: 0.3790000081062317px"/>
      <path id="path5115" d="M21.06,7.52l0.4,0.64,0.24,0.24,0.08,0.24,0.08,0.48V9.43L21.93,10v1L22,11.18l0.08,0.16,0.24,0.08,0.16,0.08h0.16l0.16-.16,0.08-.08-0.08.08-0.16.32H22.57l-0.08.16L22,12.14l-0.72.72L21.14,13l-0.24.16H20.1l-0.16.08-0.08-.08-0.32-.08H19.39L19.46,13l0.16-.08,0.4-.16,0.32-.24,0.24-.24,0.16-.16L21,11.66l0.08-.56h0.08l0.16,0.16,0.24,0.08V11.26l-0.24-.08-0.16-.08V11l0.24-.48V10.07l-0.16-.32L20.9,9l-0.08-.32-0.16-.88-0.08-.4L20.34,7l0.4,0.24,0.32,0.32" style="fill: #ff56aa;stroke: #ff56aa"/>
      <path id="path5117" d="M21.06,7.52l0.4,0.64,0.24,0.24,0.08,0.24,0.08,0.48V9.43L21.93,10v1L22,11.18l0.08,0.16,0.24,0.08,0.16,0.08h0.16l0.16-.16,0.08-.08-0.08.08-0.16.32H22.57l-0.08.16L22,12.14l-0.72.72L21.14,13l-0.24.16H20.1l-0.16.08-0.08-.08-0.32-.08H19.39L19.46,13l0.16-.08,0.4-.16,0.32-.24,0.24-.24,0.16-.16L21,11.66l0.08-.56h0.08l0.16,0.16,0.24,0.08V11.26l-0.24-.08-0.16-.08V11l0.24-.48V10.07l-0.16-.32L20.9,9l-0.08-.32-0.16-.88-0.08-.4L20.34,7l0.4,0.24Z" style="fill: #ff56aa;stroke: #ff56aa;stroke-width: 0.3790000081062317px"/>
      <path id="path5119" d="M16.44,7.2l-0.56.72-0.32.4-0.32.4-0.08.16,1.19-1L17,7.36l0.08-.08h0.08l-0.08.08-0.48.4-0.4.4L16,8.55l-0.16.16-0.08.16H15.8l0.32-.32,0.56-.32,0.56-.4,0.32-.32,0.24-.24V7.36l-0.32.32L17.15,8l-1,.56-0.32.24L15.8,9l-0.4.48-0.24.32V9.67L15.72,9l0.08-.32L16,8.23h0.08l-0.4.24L15,9l-0.32.4-0.32.4L14.21,10v0.08H14.13l0.08-.16,0.56-.56V9.27l0.4-.48,0.24-.32,0.16-.24,0.24-.32,0.4-.48,0.16-.16L16.6,7l-0.16.16" style="fill: #ff56aa;stroke: #ff56aa"/>
      <path id="path5121" d="M16.44,7.2l-0.56.72-0.32.4-0.32.4-0.08.16,1.19-1L17,7.36l0.08-.08h0.08l-0.08.08-0.48.4-0.4.4L16,8.55l-0.16.16-0.08.16H15.8l0.32-.32,0.56-.32,0.56-.4,0.32-.32,0.24-.24V7.36l-0.32.32L17.15,8l-1,.56-0.32.24L15.8,9l-0.4.48-0.24.32V9.67L15.72,9l0.08-.32L16,8.23h0.08l-0.4.24L15,9l-0.32.4-0.32.4L14.21,10v0.08H14.13l0.08-.16,0.56-.56V9.27l0.4-.48,0.24-.32,0.16-.24,0.24-.32,0.4-.48,0.16-.16L16.6,7Z" style="fill: #ff56aa;stroke: #ff56aa;stroke-width: 0.3790000081062317px"/>
      <path id="path5123" d="M21.93,7.6V7.76l-0.08-.08-0.16-.16,0.16,0.16h0.08l-0.16-.24L21.62,7.2l0.16,0.24L21.93,7.6" style="fill: #ff56aa;stroke: #ff56aa"/>
      <path id="path5125" d="M21.93,7.6V7.76l-0.08-.08-0.16-.16,0.16,0.16h0.08l-0.16-.24L21.62,7.2l0.16,0.24Z" style="fill: #ff56aa;stroke: #ff56aa;stroke-width: 0.3790000081062317px"/>
      <path id="path5127" d="M14.92,8.07l-0.32.56,0.08-.08,0.88-.64,0.16-.16H15.8l-0.56.4-0.88.72-0.24.4-0.32.48-0.48.72-0.08.16V10.46l0.32-.4,0.16-.32,0.16-.16L14,9.35l0.32-.48,0.24-.16,0.24-.4,0.56-.72,0.16-.16V7.52l-0.56.56" style="fill: #ff56aa;stroke: #ff56aa"/>
      <path id="path5129" d="M14.92,8.07l-0.32.56,0.08-.08,0.88-.64,0.16-.16H15.8l-0.56.4-0.88.72-0.24.4-0.32.48-0.48.72-0.08.16V10.46l0.32-.4,0.16-.32,0.16-.16L14,9.35l0.32-.48,0.24-.16,0.24-.4,0.56-.72,0.16-.16V7.52Z" style="fill: #ff56aa;stroke: #ff56aa;stroke-width: 0.3790000081062317px"/>
      <path id="path5131" d="M14.77,7.76l-0.16.32L14,8.63l-0.24.24-0.4.4-0.56.48-0.24.32-0.16.32-0.08.32V10.62l0.16-.48,0.32-.48,0.48-.4L13.57,9V8.87l0.16-.16,0.16-.32,0.24-.24,0.24-.32h0.08v0L14.29,8,14,8.47l-0.16.16V8.71l0.08-.08,0.64-.56,0.16-.32h0.08" style="fill: #ff56aa;stroke: #ff56aa"/>
      <path id="path5133" d="M14.77,7.76l-0.16.32L14,8.63l-0.24.24-0.4.4-0.56.48-0.24.32-0.16.32-0.08.32V10.62l0.16-.48,0.32-.48,0.48-.4L13.57,9V8.87l0.16-.16,0.16-.32,0.24-.24,0.24-.32h0.08v0L14.29,8,14,8.47l-0.16.16V8.71l0.08-.08,0.64-.56,0.16-.32h0.08Z" style="fill: #ff56aa;stroke: #ff56aa;stroke-width: 0.3790000081062317px"/>
      <path id="path5135" d="M22.25,8.15l-0.08.08H22.09V8.15h0.08V8l-0.08-.08,0.16,0.16V8.15" style="fill: #ff56aa;stroke: #ff56aa"/>
      <path id="path5137" d="M22.25,8.15l-0.08.08H22.09V8.15h0.08V8l-0.08-.08,0.16,0.16V8.15Z" style="fill: #ff56aa;stroke: #ff56aa;stroke-width: 0.3790000081062317px"/>
      <path id="path5139" d="M18.43,9L18.67,9l0.16,0.08,0.48,0.4,0.24,0.24,0.24,0.4L20,10.38l0.32,0.24L20.5,10.7l0.32,0.16,0.24,0.24-0.16.64-0.08.16-0.08.16-0.08.08-0.24.24-0.4.32-0.32.16-0.24.08-0.16.16h-0.8l-0.32.08-0.48.16H16.84l-0.64.08H15.88l-0.48-.08-1-.4L14,12.85H13.81l-0.56-.16-0.56-.24-0.24-.08-0.32-.08-0.24-.08L11.58,12l-0.08-.16V11.74l0.08-.24,0.16-.08L12,11.34h0.4l0.08-.08H12.38l0.08-.08,0.16-.24,0.16-.08h0.08l0.56,0.08h0.32L14,10.86h0.32L14.45,11l0.16,0.24,0.24,0.16,0.32,0.16,0.48,0.08,0.64,0.16,0.4,0.08,0.4,0.16,0.4,0.16h0.24l0.08,0.08h0.08V12.22H17.79l-0.24-.08-0.16-.08L17.23,12l-0.4-.24-0.08-.08H16.6l-0.48-.16L16,11.42l-0.56-.48-0.24-.16L15,10.7H14.92L15,10.78l0.24,0.16,0.48,0.32L16,11.5l0.48,0.16H16.6l0.48,0.24,0.24,0.16-0.48-.16-0.48-.16-0.72-.08-0.24-.08-0.08-.08H15.16l-0.24-.08-0.24-.24L14.53,11l-0.24-.16-0.16-.08-0.24-.08L14,10.54l0.32-.08,0.48-.08h0.08V10.31l-0.16-.08-0.08-.08,0.16-.08,0.8-.16H16V9.75L15.8,9.67V9.59L16,9.43l0.16-.08,0.16-.08,0.16-.08V9.27h0.4V9.19H16.6L16.92,9l0.32-.16H18L18.43,9" style="fill: #ff56aa;stroke: #ff56aa"/>
      <path id="path5141" d="M18.43,9L18.67,9l0.16,0.08,0.48,0.4,0.24,0.24,0.24,0.4L20,10.38l0.32,0.24L20.5,10.7l0.32,0.16,0.24,0.24-0.16.64-0.08.16-0.08.16-0.08.08-0.24.24-0.4.32-0.32.16-0.24.08-0.16.16h-0.8l-0.32.08-0.48.16H16.84l-0.64.08H15.88l-0.48-.08-1-.4L14,12.85H13.81l-0.56-.16-0.56-.24-0.24-.08-0.32-.08-0.24-.08L11.58,12l-0.08-.16V11.74l0.08-.24,0.16-.08L12,11.34h0.4l0.08-.08H12.38l0.08-.08,0.16-.24,0.16-.08h0.08l0.56,0.08h0.32L14,10.86h0.32L14.45,11l0.16,0.24,0.24,0.16,0.32,0.16,0.48,0.08,0.64,0.16,0.4,0.08,0.4,0.16,0.4,0.16h0.24l0.08,0.08h0.08V12.22H17.79l-0.24-.08-0.16-.08L17.23,12l-0.4-.24-0.08-.08H16.6l-0.48-.16L16,11.42l-0.56-.48-0.24-.16L15,10.7H14.92L15,10.78l0.24,0.16,0.48,0.32L16,11.5l0.48,0.16H16.6l0.48,0.24,0.24,0.16-0.48-.16-0.48-.16-0.72-.08-0.24-.08-0.08-.08H15.16l-0.24-.08-0.24-.24L14.53,11l-0.24-.16-0.16-.08-0.24-.08L14,10.54l0.32-.08,0.48-.08h0.08V10.31l-0.16-.08-0.08-.08,0.16-.08,0.8-.16H16V9.75L15.8,9.67V9.59L16,9.43l0.16-.08,0.16-.08,0.16-.08V9.27h0.4V9.19H16.6L16.92,9l0.32-.16H18Z" style="fill: #ff56aa;stroke: #ff56aa;stroke-width: 0.3790000081062317px"/>
      <path id="path5143" d="M10.94,10.07l-0.72.64L9.83,11l-0.32.4-0.16.24v0.08l-0.16.08L9,11.9H8.63l-0.32.16L8.39,12l0.4-.32L9,11.58l0.32-.32,0.16-.16,0.32-.32,0.32-.24,0.08-.08V10.31L10,10.46l-0.56.32-0.16.16-0.88.64L8,11.82l-0.4.32-0.4.4-0.4.24-0.08.08H6.64L7,12.46l0.24-.24,0.32-.4,0.4-.48,0.56-.48,0.4-.32,0.88-.48,0.8-.4,0.56-.32L11.74,9l0.08-.08-0.32.48-0.56.72" style="fill: #ff56aa;stroke: #ff56aa"/>
      <path id="path5145" d="M10.94,10.07l-0.72.64L9.83,11l-0.32.4-0.16.24v0.08l-0.16.08L9,11.9H8.63l-0.32.16L8.39,12l0.4-.32L9,11.58l0.32-.32,0.16-.16,0.32-.32,0.32-.24,0.08-.08V10.31L10,10.46l-0.56.32-0.16.16-0.88.64L8,11.82l-0.4.32-0.4.4-0.4.24-0.08.08H6.64L7,12.46l0.24-.24,0.32-.4,0.4-.48,0.56-.48,0.4-.32,0.88-.48,0.8-.4,0.56-.32L11.74,9l0.08-.08-0.32.48Z" style="fill: #ff56aa;stroke: #ff56aa;stroke-width: 0.3790000081062317px"/>
      <path id="path5147" d="M24.16,9.51V9.67l-0.08.08V9.91l-0.16-.08h0.16l-0.16-.24V9.43L24,9.59l0.08,0.08V9.75l0.08-.16-0.08-.08V9.35l0.08,0.16" style="fill: #ff56aa;stroke: #ff56aa"/>
      <path id="path5149" d="M24.16,9.51V9.67l-0.08.08V9.91l-0.16-.08h0.16l-0.16-.24V9.43L24,9.59l0.08,0.08V9.75l0.08-.16-0.08-.08V9.35Z" style="fill: #ff56aa;stroke: #ff56aa;stroke-width: 0.3790000081062317px"/>
      <path id="path5151" d="M24.4,10.62l-0.08.08-0.08-.08V10.54l0.08,0.16V10.23l-0.08-.16,0.08,0.08,0.08,0.48" style="fill: #ff56aa;stroke: #ff56aa"/>
      <path id="path5153" d="M24.4,10.62l-0.08.08-0.08-.08V10.54l0.08,0.16V10.23l-0.08-.16,0.08,0.08Z" style="fill: #ff56aa;stroke: #ff56aa;stroke-width: 0.3790000081062317px"/>
      <path id="path5155" d="M16.6,10.86l0.56,0.4,0.64,0.48L18,11.82,18,11.9,18.11,12h0.16v0.08h0L18.11,12H18l-0.16-.08-0.32-.24-0.48-.4-0.56-.4-0.4-.16L16,10.62l-0.32-.24-0.08-.16L16,10.62l0.56,0.24" style="fill: #ff56aa;stroke: #ff56aa"/>
      <path id="path5157" d="M16.6,10.86l0.56,0.4,0.64,0.48L18,11.82,18,11.9,18.11,12h0.16v0.08h0L18.11,12H18l-0.16-.08-0.32-.24-0.48-.4-0.56-.4-0.4-.16L16,10.62l-0.32-.24-0.08-.16L16,10.62Z" style="fill: #ff56aa;stroke: #ff56aa;stroke-width: 0.3790000081062317px"/>
      <path id="path5159" d="M13.57,11.66L14,11.82,14.45,12l0.32,0.08,0.48,0.16,0.56,0.16,0.4,0.16h0.24l0.16,0.08,0.32-.08H17l-0.08.08H16.6L16,12.54l-0.64-.32-1-.16-0.56-.16-0.4-.24-0.4-.32-0.16-.16-0.08-.08V11l0.24,0.32,0.48,0.32" style="fill: #ff56aa;stroke: #ff56aa"/>
      <path id="path5161" d="M13.57,11.66L14,11.82,14.45,12l0.32,0.08,0.48,0.16,0.56,0.16,0.4,0.16h0.24l0.16,0.08,0.32-.08H17l-0.08.08H16.6L16,12.54l-0.64-.32-1-.16-0.56-.16-0.4-.24-0.4-.32-0.16-.16-0.08-.08V11l0.24,0.32Z" style="fill: #ff56aa;stroke: #ff56aa;stroke-width: 0.3790000081062317px"/>
      <path id="path5163" d="M22.73,12.14l-0.24.16H22.41V12.14h0.08V12.3l0.32-.24L23,11.74V11.9l-0.24.24" style="fill: #ff56aa;stroke: #ff56aa"/>
      <path id="path5165" d="M22.73,12.14l-0.24.16H22.41V12.14h0.08V12.3l0.32-.24L23,11.74V11.9Z" style="fill: #ff56aa;stroke: #ff56aa;stroke-width: 0.3790000081062317px"/>
      <path id="path5167" d="M22.17,12.54L22,12.61V12.54H21.93V12.38H22v0.16h0.16l0.16-.16-0.16.16" style="fill: #ff56aa;stroke: #ff56aa"/>
      <path id="path5169" d="M22.17,12.54L22,12.61V12.54H21.93V12.38H22v0.16h0.16l0.16-.16Z" style="fill: #ff56aa;stroke: #ff56aa;stroke-width: 0.3790000081062317px"/>
      <path id="path5171" d="M17.71,13.49H16.84v0.08H16.52l-0.24-.08,0.48-.08,0.4-.08H18l-0.16.08-0.08.08" style="fill: #ff56aa;stroke: #ff56aa"/>
      <path id="path5173" d="M17.71,13.49H16.84v0.08H16.52l-0.24-.08,0.48-.08,0.4-.08H18l-0.16.08Z" style="fill: #ff56aa;stroke: #ff56aa;stroke-width: 0.3790000081062317px"/>
      <path id="path5175" d="M17.79,13.65v0.16l-0.08.56-0.08.72-0.24,1v0.16l-0.08.56-0.08.8v1H17.15v0.48l0.08,0.32,0.08,0.4V20l-0.64-.08V19.62l-0.08-.4V18.91l0.16-.72V18l0.08-.64,0.08-.8L17,15.88V15.56l0.08-.4,0.08-.24V13.81l0.16-.16V13.49l0.24,0.08,0.24-.08L18,13.33l-0.08.16-0.08.16" style="fill: #ff56aa;stroke: #ff56aa"/>
      <path id="path5177" d="M17.79,13.65v0.16l-0.08.56-0.08.72-0.24,1v0.16l-0.08.56-0.08.8v1H17.15v0.48l0.08,0.32,0.08,0.4V20l-0.64-.08V19.62l-0.08-.4V18.91l0.16-.72V18l0.08-.64,0.08-.8L17,15.88V15.56l0.08-.4,0.08-.24V13.81l0.16-.16V13.49l0.24,0.08,0.24-.08L18,13.33l-0.08.16Z" style="fill: #ff56aa;stroke: #ff56aa;stroke-width: 0.3790000081062317px"/>
      <path id="path5179" d="M16.84,13.65l0.08-.08,0.32-.08v0.08l-0.08.16L16.92,14l-0.24.24-0.08-.08-0.16-.08,0.16,0.16h0.08v0.16l-0.16.16-0.16-.16H16.2l0.16,0.08,0.08,0.16-0.56.88-0.56.88L15,16.92l-0.4.56-0.4.64-0.08.08v0.08l-0.24.16-0.48.64-0.4.48-0.16.32L12.69,20h0.08l0.08-.08L13.25,20H17l0.32,0.08,0.88,0.08h0.72L19,20.26H18.91l-0.08.08v0.08L19,20.26h0.16L19,20.42l0.16-.08,0.08-.08,0.16,0.16,0.08,0.08,0.16,0.16V20.9L19.7,21l0.16,0.16,0.08,0.24L20,21.54l0.08,0.16v0.48l0.08,0.16,0.08,0.24v0.64l-0.08.08L20,23.37l0.08-.08L20.18,23H20.1l0.08-.16-0.08-.24-0.16-.48V21.62H19.86v0.48L20,22.57l0.08,0.08H19.86v0.08H20.1l-0.16.08H19.86v0.08L20,22.81H20.1v0.32L20,23.29l-0.16.08v0.08H19.54V23.37l0.24-.16V22.73l-0.08-.08-0.08-.16V22.41l-0.08-.24-0.16-.48V21.46H19.31l-0.16.48-0.08.16,0.08,0.08-0.24-.32V21.62L19,21.54l0.08,0.08L19,21.54V21.46l0.16,0.16,0.08-.08-0.16-.08,0.08-.08,0.08-.16V21.06l-0.16-.32V20.66H19l-0.32-.16-0.4-.08-0.56.08H15.08l-0.56.08-0.64.08-0.72-.16H12.46l-0.08.08H12.14L12,20.42V20l0.4-.48L13,18.83l0.56-.64,0.16-.32,0.56-.64,0.32-.48,0.32-.48,0.4-.88,0.08-.24,0.08-.08V15l0.4-.48,0.24-.32L16.2,14V13.49l0.4,0.16h0.24" style="fill: #ff56aa;stroke: #ff56aa"/>
      <path id="path5181" d="M16.84,13.65l0.08-.08,0.32-.08v0.08l-0.08.16L16.92,14l-0.24.24-0.08-.08-0.16-.08,0.16,0.16h0.08v0.16l-0.16.16-0.16-.16H16.2l0.16,0.08,0.08,0.16-0.56.88-0.56.88L15,16.92l-0.4.56-0.4.64-0.08.08v0.08l-0.24.16-0.48.64-0.4.48-0.16.32L12.69,20h0.08l0.08-.08L13.25,20H17l0.32,0.08,0.88,0.08h0.72L19,20.26H18.91l-0.08.08v0.08L19,20.26h0.16L19,20.42l0.16-.08,0.08-.08,0.16,0.16,0.08,0.08,0.16,0.16V20.9L19.7,21l0.16,0.16,0.08,0.24L20,21.54l0.08,0.16v0.48l0.08,0.16,0.08,0.24v0.64l-0.08.08L20,23.37l0.08-.08L20.18,23H20.1l0.08-.16-0.08-.24-0.16-.48V21.62H19.86v0.48L20,22.57l0.08,0.08H19.86v0.08H20.1l-0.16.08H19.86v0.08L20,22.81H20.1v0.32L20,23.29l-0.16.08v0.08H19.54V23.37l0.24-.16V22.73l-0.08-.08-0.08-.16V22.41l-0.08-.24-0.16-.48V21.46H19.31l-0.16.48-0.08.16,0.08,0.08-0.24-.32V21.62L19,21.54l0.08,0.08L19,21.54V21.46l0.16,0.16,0.08-.08-0.16-.08,0.08-.08,0.08-.16V21.06l-0.16-.32V20.66H19l-0.32-.16-0.4-.08-0.56.08H15.08l-0.56.08-0.64.08-0.72-.16H12.46l-0.08.08H12.14L12,20.42V20l0.4-.48L13,18.83l0.56-.64,0.16-.32,0.56-.64,0.32-.48,0.32-.48,0.4-.88,0.08-.24,0.08-.08V15l0.4-.48,0.24-.32L16.2,14V13.49l0.4,0.16h0.24Z" style="fill: #ff56aa;stroke: #ff56aa;stroke-width: 0.3790000081062317px"/>
      <path id="path5183" d="M16.6,19.94H16.44V20l-0.08-.08,0.16-.4,0.08,0.4" style="fill: #ff56aa;stroke: #ff56aa"/>
      <path id="path5185" d="M16.6,19.94H16.44V20l-0.08-.08,0.16-.4Z" style="fill: #ff56aa;stroke: #ff56aa;stroke-width: 0.3790000081062317px"/>
      <path id="path5187" d="M17.39,20.5l-0.08.08h0.08l-0.08.32v0.16l-0.08.32v2.55l0.08,1v0.56l0.08,0.8L17.47,27v0.4l0.08,0.48,0.08,0.56,0.16,0.24L18,28.78l0.16,0.08,0.24,0.08L18.43,29l0.72-.08L19.39,29l0.08,0.08H18.11l-0.24-.16H17.79l0.32,0.24H19.7l-0.24.08-0.16.16H19.07L19,29.34l-0.64-.08-0.48-.08L17.63,29H17.47l0.16,0.08,0.24,0.16L18,29.34h0.32v0.08h0l0.08-.08h0.08v0.08l0.08-.08,0.32,0.08h0.16l0.4,0.16,0.08,0.08v0.08H19.46l-0.16-.16H18.67L18,29.66H17.71l-0.48-.32-0.32-.08-0.32.08-0.32.08L16,29.5l-0.08.16-0.16.24V29.66l0.08-.08V29.5l0.08-.16L16,29.26h0.16v0.08l0.08-.08-0.08-.08H16l0.08-.08H16.2l0.08,0.08h0.08l-0.08-.08L16.2,29h0.08l0.16,0.08h0.08l-0.16-.16H16.28l0.4-.24,0.24-.24L17,28.15l0.08-.56V25.92L17,25.68V25.6l-0.16-2.15L16.76,23V21l-0.08-.16,0.08-.24,0.4-.08h0.24" style="fill: #ff56aa;stroke: #ff56aa"/>
      <path id="path5189" d="M17.39,20.5l-0.08.08h0.08l-0.08.32v0.16l-0.08.32v2.55l0.08,1v0.56l0.08,0.8L17.47,27v0.4l0.08,0.48,0.08,0.56,0.16,0.24L18,28.78l0.16,0.08,0.24,0.08L18.43,29l0.72-.08L19.39,29l0.08,0.08H18.11l-0.24-.16H17.79l0.32,0.24H19.7l-0.24.08-0.16.16H19.07L19,29.34l-0.64-.08-0.48-.08L17.63,29H17.47l0.16,0.08,0.24,0.16L18,29.34h0.32v0.08h0l0.08-.08h0.08v0.08l0.08-.08,0.32,0.08h0.16l0.4,0.16,0.08,0.08v0.08H19.46l-0.16-.16H18.67L18,29.66H17.71l-0.48-.32-0.32-.08-0.32.08-0.32.08L16,29.5l-0.08.16-0.16.24V29.66l0.08-.08V29.5l0.08-.16L16,29.26h0.16v0.08l0.08-.08-0.08-.08H16l0.08-.08H16.2l0.08,0.08h0.08l-0.08-.08L16.2,29h0.08l0.16,0.08h0.08l-0.16-.16H16.28l0.4-.24,0.24-.24L17,28.15l0.08-.56V25.92L17,25.68V25.6l-0.16-2.15L16.76,23V21l-0.08-.16,0.08-.24,0.4-.08h0.24Z" style="fill: #ff56aa;stroke: #ff56aa;stroke-width: 0.3790000081062317px"/>
      <path id="path5191" d="M16.68,21v0.4l-0.08-.32-0.16-.4V20.5l0.24,0.08V21" style="fill: #ff56aa;stroke: #ff56aa"/>
      <path id="path5193" d="M16.68,21v0.4l-0.08-.32-0.16-.4V20.5l0.24,0.08V21Z" style="fill: #ff56aa;stroke: #ff56aa;stroke-width: 0.3790000081062317px"/>
      <path id="path5195" d="M17.23,27.83l0.08-.08,0.16,0.08H17.23" style="fill: #ff56aa;stroke: #ff56aa"/>
      <path id="path5197" d="M17.23,27.83l0.08-.08,0.16,0.08H17.23Z" style="fill: #ff56aa;stroke: #ff56aa;stroke-width: 0.3790000081062317px"/>
      <path id="path5199" d="M17.39,28h0" style="fill: #ff56aa;stroke: #ff56aa"/>
      <path id="path5201" d="M17.39,28h0Z" style="fill: #ff56aa;stroke: #ff56aa;stroke-width: 0.3790000081062317px"/>
      <path id="path5203" d="M17.55,28.15l-0.16.08H17.31l0.16-.08h0.08" style="fill: #ff56aa;stroke: #ff56aa"/>
      <path id="path5205" d="M17.55,28.15l-0.16.08H17.31l0.16-.08h0.08Z" style="fill: #ff56aa;stroke: #ff56aa;stroke-width: 0.3790000081062317px"/>
      <path id="path5207" d="M17.47,28.39l-0.08.08-0.08-.08h0.16" style="fill: #ff56aa;stroke: #ff56aa"/>
      <path id="path5209" d="M17.47,28.39l-0.08.08-0.08-.08h0.16Z" style="fill: #ff56aa;stroke: #ff56aa;stroke-width: 0.3790000081062317px"/>
      <path id="path5211" d="M17.31,29.42l0.24,0.16H17l-0.24.08-0.16-.08-0.32-.08,0.32-.16h0.48l0.24,0.08" style="fill: #ff56aa;stroke: #ff56aa"/>
      <path id="path5213" d="M17.31,29.42l0.24,0.16H17l-0.24.08-0.16-.08-0.32-.08,0.32-.16h0.48Z" style="fill: #ff56aa;stroke: #ff56aa;stroke-width: 0.3790000081062317px"/>
    </g>
  </g>
  <rect width="32" height="32" style="fill: #fff;opacity: 0"/>
</svg>
