<svg width="536" height="536" viewBox="0 0 536 536" fill="none" xmlns="http://www.w3.org/2000/svg">
<g transform="translate(0, 64)">
<g clip-path="url(#clip0_246_140)">
<path d="M207.387 0C210.472 0 213.505 0.229534 216.468 0.670898C267.439 0.395583 327.543 0.171534 393.282 0C385.456 1.88821 377.705 4.96686 370.414 11.2061L369.824 11.7188C357.528 22.555 351.176 38.247 350.582 54.1006C349.44 84.5262 348.743 128.415 348.656 153.952V153.959C348.651 156.239 348.752 158.137 349.272 159.839C351.964 172.565 363.161 181.338 376.97 181.338C385.451 181.338 392.954 177.983 398.189 172.47C398.94 171.749 399.635 170.963 400.27 170.115L400.55 169.731L400.559 169.721C400.585 169.684 400.614 169.644 400.659 169.581C400.7 169.525 400.758 169.445 400.817 169.36L400.87 169.284L400.882 169.267C400.9 169.243 400.914 169.224 400.983 169.135C401.099 168.985 401.372 168.634 401.637 168.18L402.224 167.193C414.707 146.639 436.833 135.821 462.32 135.821C483.934 135.822 502.383 143.254 515.402 155.914C528.406 168.559 536.285 186.7 536.285 208.692C536.285 251.683 504.356 280.44 464.821 280.44C449.783 280.44 437.084 276.378 425.489 269.077L425.488 269.076C419.676 265.418 414.389 260.664 409.739 255.365L409.74 255.364C407.958 253.332 406.39 251.055 404.606 248.478C402.884 245.989 400.955 243.214 398.658 240.686L398.656 240.688C398.356 240.356 398.047 240.101 397.767 239.907C392.553 234.651 385.23 231.466 376.965 231.466C361.024 231.466 348.651 243.156 348.651 258.841V258.859C348.748 284.452 349.411 324.351 350.578 353.29C351.24 369.608 357.013 383.558 367.043 393.602C373.759 400.326 382.229 405.144 392.007 407.784C317.545 407.753 254.226 407.716 210.65 407.675C209.57 407.732 208.482 407.761 207.387 407.761H61.1143C27.3619 407.761 0 380.399 0 346.646V61.1143C0 48.7277 3.68408 37.201 10.0176 27.5723C14.6828 19.265 21.5167 12.7237 30.1885 8.39062C39.2603 3.05795 49.8303 0 61.1143 0H207.387Z" fill="#18304C"/>
<mask id="mask0_246_140" style="mask-type:alpha" maskUnits="userSpaceOnUse" x="0" y="0" width="537" height="408">
<path d="M393.282 0C385.455 1.88823 377.705 4.96712 370.414 11.2065L369.824 11.7191C357.528 22.5555 351.176 38.2473 350.582 54.1009C349.44 84.5266 348.743 128.415 348.657 153.952V153.959C348.652 156.239 348.751 158.137 349.272 159.839C351.964 172.565 363.161 181.338 376.97 181.338C385.451 181.338 392.954 177.982 398.189 172.469C398.94 171.749 399.635 170.963 400.269 170.115L400.55 169.732L400.558 169.721C400.584 169.684 400.613 169.644 400.659 169.581C400.7 169.525 400.757 169.444 400.817 169.36L400.87 169.285L400.882 169.267C400.9 169.244 400.914 169.225 400.984 169.135C401.1 168.985 401.372 168.635 401.636 168.18L402.223 167.194C414.707 146.639 436.832 135.822 462.32 135.822C483.934 135.822 502.383 143.254 515.402 155.914C528.406 168.559 536.285 186.699 536.285 208.692C536.285 251.683 504.356 280.44 464.822 280.44C449.784 280.44 437.084 276.378 425.489 269.077L425.488 269.076C419.676 265.418 414.39 260.664 409.739 255.365L409.74 255.364C407.958 253.332 406.391 251.055 404.607 248.477C402.884 245.989 400.955 243.213 398.658 240.685L398.656 240.687C398.356 240.356 398.047 240.101 397.767 239.908C392.553 234.652 385.231 231.466 376.965 231.466C361.025 231.466 348.652 243.156 348.652 258.84V258.859C348.748 284.452 349.411 324.351 350.578 353.29C351.24 369.608 357.013 383.558 367.043 393.602C373.76 400.326 382.23 405.144 392.007 407.784C254.138 407.726 154.47 407.652 147.587 407.558C116.686 407.136 85.7899 406.353 54.9093 405.194C25.6969 404.096 4.08067 383.135 2.90605 353.212C-1.00419 253.617 -0.933016 154.008 2.90605 54.4082L2.91192 54.4179C4.08648 23.9459 23.6533 3.61952 54.9152 2.43521C85.8274 1.26666 219.968 0.45223 393.282 0Z" fill="#FFD432"/>
</mask>
<g mask="url(#mask0_246_140)">
<path d="M318.323 432.054C326.952 441.618 332.138 440.94 320.292 467.999C308.446 495.058 268.776 535.92 245.794 550.985C228.402 562.387 198.9 564.149 175.551 541.938C152.202 519.728 146.893 505.415 156.057 490.618C165.223 475.82 208.996 409.824 215.711 396.847C222.425 383.87 243.775 375.235 256.989 383.293C270.205 391.351 318.323 432.054 318.323 432.054Z" fill="#778292"/>
<path d="M242.987 390.994C249.817 381.222 270.64 383.987 289.498 397.167C308.357 410.349 318.107 428.957 311.277 438.728C304.447 448.499 283.624 445.735 264.766 432.554C245.908 419.372 236.157 400.765 242.987 390.994Z" fill="#080604"/>
<path d="M326.915 324.458C326.03 330.975 319.593 339.986 308.972 344.814C298.353 349.641 282.261 381.503 285.802 394.054C289.34 406.605 292.238 418.834 311.87 417.547C331.502 416.26 351.455 400.169 351.455 399.203C351.455 398.238 362.076 352.216 362.076 352.216L335.685 326.469L326.915 324.458Z" fill="#080604"/>
<path d="M377.924 356.722L343.408 324.137L326.914 324.458L355.96 354.79L373.339 366.377L377.924 356.722Z" fill="#AAB0C2"/>
<path d="M312.755 321.965L290.306 290.425C251.043 295.574 225.296 347.067 237.526 372.814C251.697 402.647 279.364 425.594 302.857 431.064C302.857 431.064 283.226 423.662 280.008 397.916C276.789 372.169 296.019 337.412 312.755 321.965Z" fill="#566576"/>
<path d="M367.373 355.941C364.744 401.318 325.723 437.13 294.168 416.584C268.275 399.722 275.106 358.98 318.624 330.669" stroke="#778292" stroke-width="21.9844" stroke-miterlimit="10"/>
<path d="M115.793 109.057C120.306 105.63 125.184 108.12 127.21 110.789L127.872 111.619L152.784 108.349C155.895 107.94 157.069 104.051 154.702 101.99L128.624 79.2909L134.939 45.2991C135.511 42.2131 132.174 39.896 129.484 41.5097L99.8365 59.2973L69.4592 42.7886C66.7013 41.2893 63.4672 43.746 64.1705 46.8051L71.9243 80.4974L46.8372 104.285C44.5589 106.446 45.8966 110.282 49.0231 110.557L83.4624 113.594L98.3339 144.806C99.685 147.638 103.747 147.552 104.974 144.665L114.93 121.253L114.4 120.521C112.372 117.853 111.282 112.485 115.793 109.057Z" fill="#FCD006"/>
<path d="M226.459 256.428L227.639 255.532C230.072 253.683 234.395 251.201 238.462 250.272L225.581 234.124C225.546 234.157 225.514 234.189 225.478 234.221L215.825 222.013C215.843 221.995 215.86 221.978 215.879 221.96L206.368 210.034C203.53 211.702 200.531 213.682 197.403 216.058C194.088 218.576 191.244 221.073 188.779 223.486L218.748 264.969C220.772 261.476 224.131 258.196 226.459 256.428Z" fill="#778292"/>
<path d="M164.784 157.899L161.417 153.677C161.385 153.707 161.358 153.736 161.325 153.766L154.374 144.996C154.397 144.972 154.416 144.952 154.439 144.929L147.338 136.026C145.094 137.325 142.711 138.881 140.221 140.774C137.552 142.802 135.282 144.813 133.342 146.744L149.714 169.408C151.967 167.34 154.456 165.252 157.219 163.154C159.815 161.182 162.336 159.443 164.784 157.899Z" fill="#778292"/>
<path d="M137.562 123.766L127.873 111.619L127.212 110.79C125.186 108.121 120.308 105.631 115.795 109.058C111.283 112.486 112.374 117.854 114.401 120.522L114.931 121.254L124.149 134.016C126.148 132.166 128.368 130.299 130.839 128.422C133.148 126.669 135.388 125.128 137.562 123.766Z" fill="#778292"/>
<path d="M193.858 194.345L192.416 192.54C192.393 192.562 192.374 192.582 192.351 192.604L184.139 182.17C184.141 182.168 184.143 182.168 184.143 182.166L175.874 171.801C173.343 173.277 170.663 175.038 167.863 177.165C164.881 179.429 162.335 181.675 160.143 183.841L177.018 207.201C179.542 204.899 182.317 202.575 185.391 200.24C188.294 198.036 191.116 196.085 193.858 194.345Z" fill="#778292"/>
<path d="M175.873 171.801C185.426 166.228 192.739 164.929 195.197 165.452C195.046 167.953 192.002 174.5 184.142 182.166C184.142 182.168 184.14 182.168 184.139 182.17L192.35 192.604C192.374 192.582 192.392 192.562 192.416 192.54C209.677 176.531 212.086 161.868 206.293 154.241C200.415 146.502 185.29 144.966 164.785 157.897C162.336 159.442 159.816 161.18 157.219 163.152C154.456 165.25 151.968 167.338 149.714 169.406C132.129 185.543 129.637 200.358 135.469 208.036C141.205 215.588 155.738 217.245 175.485 205.313L167.748 194.495C158.596 199.673 151.636 200.866 149.248 200.356C149.4 197.889 152.508 191.379 160.142 183.841C162.335 181.675 164.88 179.429 167.862 177.165C170.662 175.038 173.343 173.277 175.873 171.801Z" fill="#FCD006"/>
<path d="M206.369 210.031C217.436 203.528 225.918 202.015 228.757 202.622C228.582 205.495 224.932 213.141 215.879 221.956C215.861 221.975 215.844 221.992 215.826 222.01L225.479 234.218C225.514 234.186 225.546 234.154 225.582 234.12C245.547 215.692 248.348 198.796 241.682 190.021C234.919 181.118 217.485 179.369 193.858 194.345C191.115 196.085 188.294 198.035 185.391 200.24C182.317 202.575 179.542 204.899 177.018 207.201C156.636 225.794 153.728 242.884 160.445 251.726C167.06 260.436 183.882 262.31 206.726 248.369L197.589 235.753C186.934 241.844 178.818 243.247 176.052 242.655C176.227 239.803 179.853 232.227 188.78 223.482C191.245 221.069 194.089 218.572 197.404 216.055C200.532 213.679 203.53 211.699 206.369 210.031Z" fill="#FCD006"/>
<path d="M147.34 136.025C155.501 131.303 161.74 130.199 163.849 130.65C163.717 132.782 161.044 138.409 154.441 144.928C154.417 144.951 154.399 144.971 154.375 144.995L161.326 153.765C161.36 153.735 161.387 153.706 161.419 153.676C176.193 139.896 178.245 127.288 173.256 120.721C168.193 114.054 155.191 112.713 137.562 123.766C135.388 125.128 133.148 126.669 130.84 128.422C128.368 130.298 126.148 132.166 124.149 134.015C109.133 147.891 107.023 160.608 112.042 167.216C116.981 173.72 129.473 175.167 146.45 164.97L139.921 155.865C132.11 160.243 126.178 161.255 124.132 160.817C124.262 158.707 126.892 153.174 133.343 146.743C135.283 144.811 137.553 142.801 140.222 140.773C142.712 138.88 145.095 137.324 147.34 136.025Z" fill="#FCD006"/>
<path d="M249.366 316.686C256.998 306.347 267.209 297.705 279.122 293.253C257.953 267.985 242.898 250.004 242.898 250.004C241.538 249.779 240.019 249.914 238.464 250.27C234.397 251.199 230.074 253.681 227.641 255.53L226.461 256.426C224.132 258.194 220.774 261.474 218.75 264.967C217.849 266.522 217.21 268.117 217.045 269.641C217.045 269.641 230.51 289.231 249.366 316.686Z" fill="#AAB0C2"/>
<path d="M412.332 451.783C403.835 441.936 360.854 390.749 320.312 342.398C307.919 351.311 295.748 364.045 291.375 377.882C325.173 427.147 359.175 476.785 365.971 486.999C380.267 508.48 398.952 510.459 411.128 501.209L413.909 499.097C426.085 489.847 429.191 471.319 412.332 451.783Z" fill="#AAB0C2"/>
<path d="M463.463 350.628L461.817 371.867C461.639 374.179 462.881 376.368 464.957 377.401L477.838 383.809L463.767 383.331C461.373 383.249 459.184 384.677 458.292 386.9L450.202 407.082L451.953 385.428C452.147 383.042 450.824 380.79 448.647 379.794L435.684 373.869L449.916 374.129C452.263 374.171 454.397 372.769 455.287 370.595L463.463 350.628Z" fill="white"/>
<path d="M284.814 148.439L290.389 162.296C290.996 163.805 292.458 164.795 294.084 164.796L304.173 164.815L295.182 168.894C293.653 169.587 292.721 171.165 292.854 172.839L294.05 188.039L288.411 173.888C287.79 172.328 286.259 171.325 284.58 171.377L274.59 171.689L283.614 167.421C285.103 166.718 286.007 165.172 285.889 163.529L284.814 148.439Z" fill="#FCD006"/>
<path d="M69.2986 257.299C69.2986 260.587 66.6316 263.254 63.3437 263.254C60.0541 263.254 57.3887 260.587 57.3887 257.299C57.3887 254.009 60.0541 251.344 63.3437 251.344C66.6316 251.344 69.2986 254.009 69.2986 257.299Z" fill="white"/>
</g>
</g>
</g>
<defs>
<clipPath id="clip0_246_140">
<rect width="536" height="407.761" fill="white"/>
</clipPath>
</defs>
</svg>
