<svg xmlns="http://www.w3.org/2000/svg" viewBox="0 0 32 32"><title>file_type_log</title><rect x="3" y="5" width="25.9" height="22.1" style="fill:none;stroke:#00bd02;stroke-miterlimit:10"/><rect x="3" y="6" width="25.9" height="0.9" style="fill:none;stroke:#00bd02;stroke-miterlimit:10"/><line x1="11.333" y1="10" x2="19.5" y2="10" style="fill:none;stroke:#00bd02;stroke-miterlimit:10"/><line x1="11.333" y1="12.583" x2="23.833" y2="12.583" style="fill:none;stroke:#00bd02;stroke-miterlimit:10"/><line x1="11.333" y1="15.25" x2="21.95" y2="15.25" style="fill:none;stroke:#00bd02;stroke-miterlimit:10"/><line x1="11.333" y1="18.083" x2="25.5" y2="18.083" style="fill:none;stroke:#00bd02;stroke-miterlimit:10"/><line x1="11.333" y1="21" x2="21.167" y2="21" style="fill:none;stroke:#00bd02;stroke-miterlimit:10"/><line x1="11.5" y1="23.583" x2="23.667" y2="23.583" style="fill:none;stroke:#00bd02;stroke-miterlimit:10"/><line x1="5.5" y1="10" x2="9.833" y2="10" style="fill:none;stroke:#00bd02;stroke-miterlimit:10"/><line x1="5.5" y1="12.583" x2="9.833" y2="12.583" style="fill:none;stroke:#00bd02;stroke-miterlimit:10"/><line x1="5.5" y1="12.583" x2="9.833" y2="12.583" style="fill:none;stroke:#00bd02;stroke-miterlimit:10"/><line x1="5.5" y1="15.167" x2="9.833" y2="15.167" style="fill:none;stroke:#00bd02;stroke-miterlimit:10"/><line x1="5.5" y1="17.75" x2="9.833" y2="17.75" style="fill:none;stroke:#00bd02;stroke-miterlimit:10"/><line x1="5.5" y1="21" x2="9.833" y2="21" style="fill:none;stroke:#00bd02;stroke-miterlimit:10"/><line x1="5.5" y1="23.583" x2="9.833" y2="23.583" style="fill:none;stroke:#00bd02;stroke-miterlimit:10"/></svg>