<svg xmlns="http://www.w3.org/2000/svg" viewBox="0 0 32 32"><title>file_type_al</title><path style="fill:#3A95DC" d="M2,2h28v28H2V2z"/><path style="fill:#FFFFFF" d="M19.7,20c-0.386-0.353-0.722-0.757-1-1.2c-1.569,1.519-4.072,1.478-5.591-0.091c0,0-0.001-0.001-0.001-0.001	L13.1,18.7c-1.52-1.501-1.536-3.95-0.035-5.47c0.044-0.044,0.089-0.088,0.135-0.13c1.527-1.5,3.973-1.5,5.5,0	c0.303-0.424,0.638-0.825,1-1.2c-0.78-0.648-1.707-1.094-2.7-1.3V8.1c1.212-0.537,1.759-1.955,1.221-3.167s-1.955-1.759-3.167-1.221	C13.873,4.236,13.319,5.601,13.8,6.8c0.199,0.583,0.635,1.055,1.2,1.3v2.5c-2.229,0.429-3.971,2.171-4.4,4.4H8.2	c-0.592-1.186-2.033-1.668-3.219-1.076C3.886,14.47,3.378,15.752,3.8,16.9c0.449,1.178,1.768,1.77,2.946,1.321L6.8,18.2	c0.61-0.194,1.115-0.627,1.4-1.2h2.4c0.429,2.229,2.171,3.971,4.4,4.4v2.5c-1.212,0.537-1.759,1.955-1.221,3.167	s1.955,1.759,3.167,1.221c1.181-0.524,1.736-1.889,1.255-3.088c-0.227-0.591-0.651-1.085-1.2-1.4v-2.5	C18.02,21.181,18.971,20.723,19.7,20z M14.9,5.9c0-0.608,0.492-1.1,1.1-1.1s1.1,0.492,1.1,1.1S16.608,7,16,7l0,0	C15.395,6.995,14.905,6.505,14.9,5.9z M5.9,17.1c-0.608,0-1.1-0.492-1.1-1.1c0-0.608,0.492-1.1,1.1-1.1S7,15.392,7,16l0,0	C6.995,16.605,6.505,17.095,5.9,17.1z M17.1,26.1c0,0.608-0.492,1.1-1.1,1.1s-1.1-0.492-1.1-1.1S15.392,25,16,25h0l0,0	C16.605,25.005,17.095,25.495,17.1,26.1z"/><path style="fill:#FFFFFF" d="M28.4,15.7c-0.187-1.313-1.381-2.242-2.7-2.1c-0.841,0.086-1.569,0.622-1.9,1.4h-5.6	c-0.537-1.212-1.955-1.759-3.167-1.221s-1.759,1.955-1.221,3.167c0.524,1.181,1.889,1.736,3.088,1.255	c0.591-0.227,1.085-0.651,1.4-1.2h5.6c0.522,1.186,1.907,1.725,3.094,1.203c0.002-0.001,0.004-0.002,0.006-0.003l0,0	C28.011,17.816,28.601,16.762,28.4,15.7z M16,17.1c-0.608,0-1.1-0.492-1.1-1.1s0.492-1.1,1.1-1.1c0.608,0,1.1,0.492,1.1,1.1l0,0	C17.095,16.605,16.605,17.095,16,17.1z M26.1,17.1c-0.608,0-1.1-0.492-1.1-1.1s0.492-1.1,1.1-1.1s1.1,0.492,1.1,1.1l0,0	C27.195,16.605,26.705,17.095,26.1,17.1z"/></svg>