<svg xmlns="http://www.w3.org/2000/svg" viewBox="0 0 32 32" version="1.1">
<g id="surface1">
  <path style=" stroke:none;fill-rule:evenodd;fill:rgb(91.764706%,34.901961%,2.352941%);fill-opacity:1;" d="M 2.5 0 L 29.5 0 C 30.878906 0 32 1.121094 32 2.5 L 32 29.5 C 32 30.878906 30.878906 32 29.5 32 L 2.5 32 C 1.121094 32 0 30.878906 0 29.5 L 0 2.5 C 0 1.121094 1.121094 0 2.5 0 Z M 2.5 0 "/>
  <path style=" stroke:none;fill-rule:evenodd;fill:rgb(100%,100%,100%);fill-opacity:1;" d="M 4 8 L 4 24 L 3 24 L 3 8 Z M 21.5 8 C 25.917969 8 29.5 11.582031 29.5 16 C 29.5 20.417969 25.917969 24 21.5 24 C 17.082031 24 13.5 20.417969 13.5 16 C 13.5 11.582031 17.082031 8 21.5 8 Z M 13.5 8 L 7.054688 24 L 6 24 L 12.445312 8 Z M 21.5 9 C 17.632812 9 14.5 12.132812 14.5 16 C 14.5 19.867188 17.632812 23 21.5 23 C 25.367188 23 28.5 19.867188 28.5 16 C 28.5 12.132812 25.367188 9 21.5 9 Z M 21.5 9 "/>
</g>
</svg>