<svg viewBox="0 0 32 32" xmlns="http://www.w3.org/2000/svg"><path d="m2 2h28v28h-28z" fill="#f5de19"/><path d="m20.809 23.875a2.866 2.866 0 0 0 2.6 1.6c1.09 0 1.787-.545 1.787-1.3 0-.9-.716-1.222-1.916-1.747l-.658-.282c-1.9-.809-3.16-1.822-3.16-3.964 0-1.973 1.5-3.476 3.853-3.476a3.889 3.889 0 0 1 3.742 2.107l-2.057 1.315a1.789 1.789 0 0 0 -1.689-1.128 1.145 1.145 0 0 0 -1.259 1.128c0 .789.489 1.109 1.618 1.6l.658.282c2.236.959 3.5 1.936 3.5 4.133 0 2.369-1.861 3.667-4.36 3.667a5.055 5.055 0 0 1 -4.795-2.691zm-9.295.228c.413.733.789 1.353 1.693 1.353.864 0 1.41-.338 1.41-1.653v-8.947h2.631v8.982c0 2.724-1.6 3.964-3.929 3.964a4.085 4.085 0 0 1 -3.947-2.4z"/></svg>