<?xml version="1.0" encoding="utf-8"?><svg xmlns="http://www.w3.org/2000/svg" viewBox="0 0 32 32"><title>file_type_imba2</title><path style="fill:#FFDC00" d="M22.775,19.747L22.775,19.747c-0.856,0.074-8.464,1.539-14.01,3.447c-0.693,0.238-1.24,1.854-0.1,1.501	c0.222-0.069,4.382-1.409,8.33-2.375c3.245-0.795,6.357-1.233,6.92-1.386C24.498,20.775,23.754,19.662,22.775,19.747z"/><path style="fill:#FFDC00" d="M5.727,10.623c-0.307,1.409-3.306,8.064-3.692,9.573c-0.273,1.071,1.138,2.417,1.375,1.536	c0.693-2.588,3.782-8.74,3.955-10.021C7.512,10.605,5.878,9.935,5.727,10.623z"/><path style="fill:#FFDC00" d="M29.934,11.946c-0.169-0.55-0.984-1.309-2.123-1.312c-1.061-0.005-3.312,0.627-3.753,1.427	c-0.345,0.627,0.315,1.435,0.616,1.209c0.56-0.422,2.076-1.246,3.155-1.265c0.839-0.013,0.8,0.496,0.8,0.496	c-1.875,0.159-5.479,1.936-5.479,1.936c0.419-1.578-1.829-2.068-3.247-1.138c0.499-0.708,2.547-4.193,2.79-5.107	c0.228-0.856-1.092-1.701-1.342-1.063C20.75,8.668,15.24,17.874,15.24,17.874c0-0.107,1.774-4.185,1.756-4.474	c-0.02-0.299-1.079-0.892-1.25-0.801c-0.583,0.301-3.25,3.087-3.25,3.087c0.342-0.918,1.471-3.304,1.583-3.478	c0.299-0.458-1.113-1.274-1.37-1.063c-0.514,0.422-3.518,4.923-4.184,5.805c-0.003,0.005,2.833-6.103,2.879-6.787	c0.039-0.619-1.393-1.913-1.608-1.066l0,0c-0.53,2.084-5.308,12.406-5.465,14.023c-0.123,1.279,1.161,2.527,1.424,1.716	c0.79-2.437,3.799-7.397,4.789-8.249c-0.215,0.511-1.079,3.329-1.123,3.992c-0.069,1.003,1.207,1.583,1.476,0.79	c0.91-2.695,3.718-5.937,3.718-5.937s-0.821,3.055-0.839,3.503c-0.041,1.041,0.856,1.828,1.419,1.281	c0.544-0.529,1.981-2.761,2.623-3.533c1.844-2.219,3.344-2.531,3.922-2.421c0.066,0.255-0.552,1.194-0.861,1.444	c-1.122,0.645-2.25,1.884-2.432,2.503c-0.2,0.675,0.678,1.485,1.158,1.25c1.378-0.675,2.859-3.347,2.922-3.401	c0.678-0.563,2.286-1.084,2.286-1.084c-1.59,1.196-2.183,3.771-0.356,3.799c0.417,0.007,1.444-0.416,1.444-0.416	c0.02,0.02-0.425,0.966-0.504,1.253c-0.138,0.514,1.061,1.366,1.117,0.821c0.026-0.246,1.539-3.891,2.637-5.587	C29.824,13.804,30.15,12.644,29.934,11.946z M24.902,17.279c0.184-1.314,2.976-3.071,2.976-3.071	C27.774,14.937,25.649,17.239,24.902,17.279z"/></svg>