<svg viewBox="0 0 32 32" xmlns="http://www.w3.org/2000/svg"><path d="m2 2h28v28h-28z" fill="#dd4b39"/><path d="m9.051 17.527q2.537 0 5.072 0a4.947 4.947 0 0 1 2.977.973 3.29 3.29 0 0 1 1.128 2.267 4.117 4.117 0 0 1 -.778 3.022 3.6 3.6 0 0 1 -1.137.905l2.247 3.549h-3.061l-1.6-3.043h-2.154v3.032h-2.694zm2.69 2.128v3.438h1.989a2.184 2.184 0 0 0 1.468-.452 1.814 1.814 0 0 0 .482-1.544 1.469 1.469 0 0 0 -.705-1.18 2.768 2.768 0 0 0 -1.437-.269c-.598.006-1.797.007-1.797.007zm8.384-2.13h8.35v2.13h-5.66v2.145h5.11v2.119h-5.105v2.181h5.824v2.142h-8.519z" fill="#fff"/></svg>