<svg xmlns="http://www.w3.org/2000/svg" viewBox="0 0 32 32"><title>file_type_unibeautify</title><path d="M26.357,22.819c0-.014.008-.028.013-.042q.135-.375.241-.763c.018-.067.036-.135.053-.2.057-.225.11-.45.152-.68.026-.14.045-.28.065-.42.024-.17.052-.339.068-.512.032-.33.051-.661.051-.992a10.3,10.3,0,0,0-.063-1.082c-.015-.15-.038-.3-.06-.447q-.042-.281-.1-.559c-.04-.2-.081-.394-.131-.587-.021-.083-.05-.165-.073-.247A10.8,10.8,0,0,0,23,10.891V4.226a.325.325,0,0,0-.125-.255,11.04,11.04,0,0,0-3.424-1.822s-.007-.008-.013-.009c-.052-.017-.1-.031-.157-.047C19.186,2.064,19.095,2.026,19,2V14.042a3,3,0,0,1-6,0V2c-.1.027-.19.065-.285.1-.051.016-.1.029-.152.046-.005,0-.007.007-.012.009A11.022,11.022,0,0,0,9.125,3.971.325.325,0,0,0,9,4.226v6.665a10.693,10.693,0,0,0-4,8.315,10.865,10.865,0,0,0,9.035,10.612h0c.021,0,.041,0,.062.008.3.052.6.1.909.123.337.033.666.05.991.05a11.313,11.313,0,0,0,1.17-.063c.1-.011.2-.032.3-.045.283-.037.565-.078.841-.137.12-.026.237-.061.358-.09.252-.062.5-.126.745-.2.132-.042.26-.093.39-.14.224-.082.446-.166.664-.261.138-.06.272-.127.408-.193.2-.1.4-.2.594-.31.138-.078.272-.159.407-.243.185-.116.367-.237.544-.363.128-.091.257-.183.381-.28.179-.139.352-.286.522-.436.11-.1.222-.191.328-.293.192-.182.372-.375.549-.57.061-.068.129-.128.19-.2l0-.013a10.729,10.729,0,0,0,1.952-3.337Zm-.068-2.708c-.012.133-.031.266-.048.4s-.043.292-.068.437c-.033.181-.067.363-.11.543-.012.052-.028.1-.04.153-.056.219-.116.438-.188.655a3.286,3.286,0,0,1,0-6.179,10.163,10.163,0,0,1,.321,1.266c.031.165.06.33.083.5.017.126.034.253.046.379.03.313.052.627.052.947C26.335,19.512,26.315,19.813,26.289,20.111ZM9.668,4.384a10.35,10.35,0,0,1,2.667-1.47V14.043a3.668,3.668,0,0,0,7.334,0V2.915a10.35,10.35,0,0,1,2.667,1.47v9.5a6.335,6.335,0,0,1-12.668,0Zm-4,14.823A10.028,10.028,0,0,1,9,11.759v2.125a7,7,0,0,0,14,0V11.759a10.171,10.171,0,0,1,2.609,3.756,3.916,3.916,0,0,0,0,7.384,10.051,10.051,0,0,1-1.484,2.544A5.925,5.925,0,0,0,13.758,29.1,10.194,10.194,0,0,1,5.67,19.207Zm17.873,6.91c-.148.155-.3.306-.456.451-.1.1-.209.19-.316.282q-.233.2-.476.381c-.116.088-.232.175-.352.258-.167.116-.339.223-.513.329-.121.074-.242.15-.367.219-.185.1-.376.195-.567.286-.121.058-.239.119-.363.172-.209.09-.423.166-.637.242-.113.04-.224.086-.339.122-.234.074-.475.133-.714.19-.1.025-.2.056-.306.077-.26.054-.524.09-.789.124-.09.012-.177.031-.268.04-.324.033-.651.048-.98.051-.034,0-.065,0-.1,0-.3,0-.591-.02-.883-.044-.18-.016-.364-.039-.549-.065l-.151-.023a5.265,5.265,0,0,1,9.283-3.27C23.649,26,23.6,26.06,23.543,26.117Z" style="fill:#d2d2d2"/><path d="M10.337,21.1a1.75,1.75,0,1,0,1.783,1.75A1.769,1.769,0,0,0,10.337,21.1Zm0,2.845a1.1,1.1,0,1,1,1.117-1.095A1.107,1.107,0,0,1,10.337,23.941Z" style="fill:#d2d2d2"/></svg>