<svg version="1.1" viewBox="0 0 32 32" xmlns="http://www.w3.org/2000/svg"><g><path d="m7.3424 4.6351c-0.043876 0.12797-0.11334 0.21207-0.2011 0.31444-1.2322 1.4662-1.6527 3.4991-1.521 5.3638 0.12797 1.3748 0.52285 2.6655 1.3711 3.7697 0.06947 0.09872 0.06947 0.09872 0.06947 0.19013l0.13894 0.04753c0.076782 0.08409 0.076782 0.08409 0.15356 0.19378 0.3766 0.49726 0.85923 0.86655 1.3601 1.2285l0.080438 0.0585c0.12797 0.09141 0.25229 0.16819 0.39123 0.234l0.12066 0.06581v0.09141c0.080438 0.03291 0.15722 0.06581 0.234 0.09506 0.13894 0.06947 0.27422 0.14991 0.40951 0.22304 0.34735 0.19744 0.69836 0.39122 1.0676 0.54845 0.12797 0.05484 0.25229 0.117 0.38026 0.18282 0.17185 0.08775 0.34735 0.16088 0.53016 0.23035 0.32907 0.12432 0.65814 0.25594 0.9872 0.38757 0.41682 0.16819 0.8373 0.33638 1.2578 0.49726 0.6691 0.26326 1.3309 0.54113 1.989 0.8373 0.14625 0.06216 0.2925 0.12797 0.44241 0.19013 1.3528 0.58135 2.8007 1.5759 3.3748 2.9872 0.41316 1.1554 0.38391 2.607-0.13528 3.7258-0.14991 0.29982-0.3181 0.59232-0.5192 0.85923l-0.10238 0.13528c-0.36563 0.4607-0.80805 0.84095-1.3492 1.0823h-0.09506v0.09506c-0.12066 0.05119-0.12066 0.05119-0.28885 0.10969l-0.08775 0.02925c-0.29616 0.10238-0.58866 0.19378-0.88483 0.28154l-0.09872 0.02925c-0.09141 0.02559-0.18282 0.04387-0.27788 0.06216l-0.12797 0.02925c-0.93236 0.15356-1.9342 0.11334-2.8665-0.02925l-0.16819-0.02194c-0.40219-0.06581-0.78245-0.19378-1.17-0.32541l-0.15722-0.05484c-0.26325-0.09141-0.48263-0.17916-0.70567-0.34369-0.07678-0.03656-0.15722-0.06947-0.23766-0.10238-0.58501-0.25594-1.0786-0.68007-1.5393-1.1152l-0.12431-0.117c-0.31444-0.30713-0.58867-0.63254-0.85192-0.98355-0.043876-0.058501-0.091408-0.12066-0.13894-0.17916-0.1426-0.18282-0.25594-0.36563-0.36563-0.56673-0.047532-0.087751-0.095065-0.1755-0.14625-0.2596-0.62889-1.0603-1.0018-2.2157-1.2761-3.4186l-0.036564-0.16819c-0.22303-0.99452-0.22303-0.99452-0.17185-1.2614l-0.025594-0.11335c-0.234-0.08044-0.46801-0.10603-0.71298-0.04387-0.087751 0.03656-0.087751 0.03656-0.12797 0.12432-0.073126 0.29982-0.04022 0.61792-0.029251 0.92139 0.00366 0.10603 0.00366 0.20841 0.00731 0.31079 0.00366 0.27057 0.010969 0.54113 0.018282 0.8117 0.010968 0.33272 0.018281 0.66179 0.021937 0.99086 0.00366 0.2596 0.010969 0.51554 0.018281 0.77148l0.00366 0.1426c0.00366 0.08775 0.00731 0.17916 0.010969 0.26691 0 0.09506 0 0.19378-0.00366 0.28885h-0.095062c-0.076782-0.09141-0.076782-0.09141-0.16453-0.21938l-0.10238-0.13894c-0.036563-0.051188-0.069469-0.10238-0.10603-0.15357l-0.054844-0.08044c-0.12432-0.1755-0.24497-0.35101-0.36563-0.53017l-0.095064-0.13162c-0.11335-0.17916-0.21572-0.35832-0.31444-0.54479l-0.062157-0.10969c-0.062157-0.11335-0.12431-0.22304-0.18647-0.33638l-0.054845-0.09872c-0.17185-0.31444-0.33638-0.62157-0.4607-0.95795-0.047532-0.12432-0.10238-0.24863-0.15722-0.36929-0.44241-1.075-0.73858-2.2377-0.8702-3.3931l-0.014625-0.12431c-0.15722-1.4113-0.11335-2.8044 0.16819-4.1974 0.02925-0.14625 0.054845-0.29616 0.080439-0.44607 0.073126-0.43144 0.19744-0.8373 0.33638-1.2505 0.036564-0.11335 0.073126-0.22669 0.10969-0.33638 0.11335-0.36563 0.23766-0.70567 0.42048-1.042 0.058501-0.12066 0.10969-0.23766 0.15722-0.36198 0.095064-0.24497 0.21572-0.47532 0.34369-0.70932l0.069469-0.12066c0.1755-0.31444 0.36929-0.61792 0.57404-0.91408l0.080438-0.11335c0.67276-0.99086 1.4808-1.9598 2.4314-2.6984 0.117-0.091408 0.117-0.091408 0.23766-0.21572 0.10603-0.10603 0.10603-0.10603 0.2011-0.10603z" fill="#00f"/><path d="m19.324 2.4815 0.09872 0.02925c0.75686 0.21938 1.543 0.52651 2.1463 1.0457l0.23766 0.19013 0.117 0.095064c0.07313 0.058501 0.14625 0.11335 0.22304 0.16453l0.07678 0.065813v0.095064l0.08044 0.04022c0.52651 0.26325 0.96527 1.0896 1.2322 1.5978l0.08044 0.1426c0.41316 0.72761 0.70567 1.5247 0.92139 2.3327 0.01828 0.069469 0.04022 0.13894 0.0585 0.20841 0.10238 0.36198 0.17185 0.72395 0.234 1.0896l0.03291 0.18282c0.07678 0.48995 0.07678 0.48995 0.06216 0.58135-0.01828 0.11334-0.01828 0.11334 0.01462 0.28154 0.19013 0.117 0.43145 0.10238 0.64717 0.08044 0.10602-0.0256 0.10602-0.0256 0.19378-0.08044 0.17185-0.30713 0.09506-0.74954 0.08044-1.0859-0.0037-0.10969-0.0037-0.22304-0.0073-0.33272-0.0037-0.2925-0.01097-0.58867-0.02194-0.88117-0.01097-0.35832-0.01463-0.71298-0.02194-1.0713-0.0037-0.27788-0.01097-0.55576-0.01828-0.83364l-0.0037-0.15356c-0.0037-0.095064-0.0073-0.19378-0.01097-0.28885l-0.0037-0.12431-0.0037-0.11335 0.01097-0.076782h0.09506c0.06947 0.073126 0.06947 0.073126 0.15357 0.17185 0.09506 0.11335 0.18647 0.21938 0.28885 0.32176 1.0055 1.0055 1.0055 1.0055 1.0055 1.3309h0.09506c0.08044 0.11334 0.16088 0.23035 0.234 0.34735l0.06947 0.10603c0.65082 1.0311 1.1079 2.1024 1.521 3.2468l0.04022 0.10969c0.22304 0.62888 0.35101 1.2907 0.47532 1.9488l0.02559 0.13528c0.25594 1.3894 0.21206 2.9653-0.02559 4.3583l-0.01828 0.12066c-0.2011 1.1956-0.55942 2.4095-1.0932 3.4991-0.06216 0.12431-0.06216 0.12431-0.10603 0.27788l-0.04753 0.12432h-0.09141c-0.01828 0.09506-0.03291 0.18647-0.04753 0.28154l-0.04753 0.09506h-0.09141l-0.03656 0.10969c-0.08044 0.234-0.20841 0.43144-0.34369 0.63985l-0.08044 0.13163c-0.48263 0.76417-0.48263 0.76417-0.66545 0.99086h-0.09141c-0.01463 0.03291-0.02559 0.06581-0.03656 0.09872-0.06947 0.16819-0.17916 0.27788-0.29982 0.40585-0.04387 0.04753-0.08775 0.09141-0.13163 0.13894l-0.06947 0.07313c-0.07678 0.08409-0.14991 0.16819-0.22304 0.25594-0.20475 0.23035-0.41682 0.44973-0.6362 0.6691l-0.12065 0.12431-0.22304 0.22303-0.08409 0.06947-0.09506-0.04753c0.06581-0.09872 0.13163-0.19378 0.20475-0.28885 0.24132-0.32541 0.44607-0.66179 0.6362-1.0201l0.04753-0.08775c0.12066-0.234 0.20841-0.46801 0.28885-0.71664 0.02194-0.07313 0.04388-0.14625 0.06947-0.21938l0.02925-0.09506c0.02559-0.07313 0.05119-0.1426 0.08044-0.21207 0.04753-0.12066 0.07312-0.23035 0.09506-0.35466l0.02559-0.13528 0.02194-0.13528 0.02559-0.13894c0.35832-2.011 0.08044-4.2194-1.1042-5.9232l-0.09141-0.12432-0.08409-0.117c-0.77514-1.0201-1.8135-1.7112-2.9214-2.3181-0.07678-0.04022-0.14991-0.08409-0.22669-0.12797-0.2596-0.14991-0.52651-0.26325-0.80804-0.36929-0.20475-0.07678-0.40585-0.16088-0.60695-0.24863-0.38391-0.16453-0.77148-0.30713-1.1664-0.44241-0.27788-0.09506-0.55576-0.19744-0.82633-0.31079-0.17185-0.06581-0.34004-0.12432-0.51554-0.1755-0.32541-0.09872-0.64717-0.21207-0.96892-0.32541-0.09507-0.03291-0.18647-0.06581-0.28154-0.09872-0.36929-0.13163-0.73492-0.27422-1.0969-0.42779-0.06216-0.02559-0.12066-0.05119-0.18282-0.07678-0.27422-0.11335-0.53748-0.23035-0.79342-0.38391-0.10603-0.06216-0.10603-0.06216-0.25228-0.117-0.19378-0.08044-0.36563-0.18647-0.54479-0.29616l-0.09872-0.06216c-0.22291-0.1426-0.42401-0.29616-0.61414-0.47898-0.080439-0.076783-0.16088-0.1426-0.24863-0.20841-0.73858-0.63254-1.1664-1.5978-1.2761-2.5484-0.09141-1.2541 0.09872-2.5704 0.94333-3.5576 0.1426-0.16088 0.28885-0.31444 0.44607-0.4607h0.09506v-0.095064c0.09506-0.076782 0.09506-0.076782 0.21938-0.16453l0.12432-0.084095c0.12431-0.076783 0.12431-0.076783 0.24497-0.12797 0.11335-0.036564 0.11335-0.036564 0.19744-0.10969 0.15356-0.10969 0.32176-0.15722 0.50091-0.21572l0.117-0.036564c0.10969-0.032906 0.21938-0.069469 0.32907-0.10238l0.1426-0.047532c1.2139-0.34735 2.8665-0.33638 4.0695 0.047532z" fill="#f00"/><path d="m11.788 2.3864c0 0.1426 0 0.1426-0.12431 0.27422-0.05484 0.051188-0.10969 0.10603-0.16453 0.15722-0.22304 0.21938-0.42048 0.4351-0.59964 0.69104-0.05119 0.065813-0.10603 0.13163-0.15722 0.19744-0.39123 0.50457-0.70932 1.0274-1.0128 1.5868-0.040219 0.073125-0.080438 0.14625-0.12431 0.21572-0.2596 0.43876-0.3766 0.96527-0.51188 1.4516l-0.04022 0.13894-0.036563 0.12797c-0.036564 0.12066-0.036564 0.12066-0.084095 0.22669-0.10969 0.30713-0.10238 0.64717-0.10238 0.96892v0.117 0.23766 0.36929c-0.00366 0.076782-0.00366 0.15357-0.00366 0.234v0.10969c0 0.20841 0.02925 0.37294 0.10603 0.57039 0.014625 0.07313 0.029251 0.14625 0.043876 0.21938 0.04022 0.21938 0.098721 0.43144 0.16088 0.64717 0.02925 0.117 0.02925 0.117 0.025594 0.24863l0.00366 0.10238h0.095064c0.036564 0.09872 0.036564 0.09872 0.073127 0.23766 0.091407 0.28154 0.21207 0.53016 0.35832 0.78611 0.091408 0.15722 0.1426 0.29616 0.1755 0.47532h0.095064c0.13163 0.17185 0.18647 0.24497 0.18647 0.46801h0.09141c0.07678 0.09506 0.14625 0.19378 0.21572 0.29616l0.0585 0.08409c0.08409 0.12066 0.14991 0.22669 0.19378 0.36929 0.07678 0.07678 0.15722 0.15722 0.234 0.234 0.09141 0.09141 0.17916 0.19013 0.26691 0.28519l0.07313 0.08044c0.12066 0.12797 0.234 0.25594 0.35101 0.38391 0.22669 0.25228 0.45338 0.48263 0.71298 0.69836 0.08409 0.07312 0.17185 0.14625 0.25594 0.21572 0.0585 0.05119 0.117 0.10238 0.1755 0.15357l0.08044 0.06947 0.14625 0.12431 0.08775 0.07678 0.05118 0.06216c-0.24132-0.0073-0.37294-0.03291-0.56307-0.18647-0.08409-0.03291-0.16819-0.06216-0.25229-0.09141-0.42779-0.16819-0.84826-0.3766-1.2431-0.6106l-0.08044-0.04753c-0.87385-0.51554-0.87385-0.51554-1.042-0.65448v-0.09141l-0.09872-0.03656c-0.17916-0.076784-0.30713-0.19013-0.45338-0.3181l-0.087751-0.07678c-0.234-0.20476-0.45704-0.42048-0.67276-0.64717l-0.10969-0.10969c-0.6691-0.68373-1.1737-1.5137-1.4808-2.4168l-0.032907-0.09141c-0.40219-1.2505-0.20841-2.7971 0.31444-3.9817l0.047532-0.10969c0.2011-0.44973 0.41316-0.88848 0.70201-1.2943l0.087751-0.12432c0.29616-0.42048 0.59964-0.83364 0.99817-1.1627 0.14625-0.12066 0.27422-0.2596 0.40585-0.39854l0.098721-0.09872 0.091409-0.098721c0.10237-0.087751 0.2011-0.12431 0.32907-0.1755v-0.091409c0.08775-0.069469 0.08775-0.069469 0.20475-0.14991 0.04388-0.029251 0.0841-0.058501 0.13163-0.087751l0.13163-0.091408c0.076781-0.054844 0.15356-0.10969 0.23035-0.16819 0.20475-0.1426 0.41316-0.2596 0.63254-0.3766 0.12432-0.062158 0.12432-0.062158 0.25228-0.14991zm8.4241 13.386c0.31444 0.03656 0.5777 0.2596 0.82633 0.44241 0.10238 0.06947 0.17916 0.09141 0.29616 0.12066v0.09141c0.06216 0.03291 0.12431 0.06216 0.18647 0.09506 0.09872 0.06947 0.19378 0.1426 0.28885 0.21572l0.08044 0.06216c0.05484 0.04387 0.10969 0.08775 0.16453 0.13163 0.06581 0.04753 0.13163 0.09872 0.19744 0.14991 0.65082 0.50823 1.1883 1.0786 1.6746 1.7477l0.0585 0.08044c0.29616 0.42047 0.29616 0.42047 0.29616 0.60694h0.09506c0.18282 0.31444 0.29616 0.67276 0.41682 1.0165 0.02925 0.08775 0.0585 0.1755 0.09506 0.26326 0.34735 0.91773 0.28519 2.1353 0.05119 3.0713l-0.02559 0.10603c-0.27057 1.0713-0.71298 2.0439-1.426 2.8921l-0.13894 0.16819c-0.81901 0.99086-1.9123 1.7112-3.0896 2.2157l-0.10969 0.04753c-1.287 0.54845-1.287 0.54845-1.6929 0.50092l-0.06947-0.03291c0.06581-0.0585 0.06581-0.0585 0.19744-0.13163l0.13894-0.08409 0.15356-0.08775c0.36929-0.21572 0.72029-0.4351 1.053-0.70201 0.09506-0.06947 0.09506-0.06947 0.18647-0.06947v-0.09506c0.10238-0.08775 0.20841-0.1755 0.3181-0.25594l0.08775-0.07313c0.22669-0.17185 0.22669-0.17185 0.35101-0.234 0.11335-0.0585 0.12797-0.117 0.17916-0.23035 0.06216-0.06947 0.06216-0.06947 0.1426-0.1426l0.117-0.12066c0.117-0.11334 0.117-0.11334 0.25594-0.16088 0.03291-0.0585 0.06581-0.12066 0.09506-0.18647 0.05119-0.06947 0.10238-0.13894 0.15722-0.20841l0.08775-0.10969c0.0585-0.07678 0.12066-0.14991 0.17916-0.22303 0.10238-0.13163 0.18647-0.27057 0.27057-0.41316l0.05119-0.07313h0.09506l0.02194-0.10603c0.02925-0.14625 0.07678-0.2011 0.16453-0.3181 0.07313-0.14991 0.12797-0.30713 0.18647-0.46801l0.0585-0.14991c0.14625-0.39488 0.26691-0.79342 0.36563-1.2066l0.02925-0.12797c0.24863-1.1846 0.09506-2.9506-0.54479-3.989-0.02559-0.06216-0.05119-0.12066-0.07313-0.18282l-0.036543-0.10238c-0.01463-0.036561-0.02559-0.069471-0.04022-0.10603-0.19378-0.51188-0.4351-0.97989-0.73858-1.4333l-0.08409-0.14991c-0.13894-0.24497-0.31079-0.46801-0.47898-0.6947l-0.10238-0.13893c-0.27057-0.36929-0.55576-0.71298-0.88117-1.0311-0.09141-0.09141-0.09141-0.09141-0.13894-0.18647z" fill="#0f0"/><path d="m19.649 3.699 0.1426 0.043877v0.095064l0.10969 0.032906c0.39123 0.13894 0.69836 0.43145 0.99817 0.70932 0.10969 0.10238 0.10969 0.10238 0.23766 0.2011l0.10238 0.087751v0.091409l0.08409 0.04022c0.13528 0.069469 0.19378 0.16088 0.28154 0.28885l0.08409 0.12432c0.06581 0.10969 0.06581 0.10969 0.06581 0.2011-0.13893-0.043877-0.13893-0.043877-0.23033-0.16088-0.19013-0.24132-0.45338-0.40951-0.70567-0.58501-0.02925-0.025593-0.062158-0.047532-0.095064-0.069469-0.25228-0.17916-0.49726-0.2925-0.78976-0.38391l-0.13163-0.043877c-1.042-0.32176-2.1389-0.38026-3.1956-0.065813l-0.1426 0.04022c-0.78976 0.25594-1.5283 0.85923-1.9269 1.5868-0.33272 0.74223-0.38026 1.532-0.117 2.2998 0.28154 0.6947 0.77879 1.3931 1.4406 1.7697 0.02925 0.01828 0.0585 0.04022 0.09141 0.0585-0.13894 0.04753-0.13894 0.04753-0.24863-0.0037l-0.12066-0.080394c-0.15356-0.098721-0.30347-0.17185-0.47166-0.24132-0.28154-0.16819-0.52651-0.37294-0.76782-0.58867l-0.069471-0.062157c-0.15722-0.14625-0.27057-0.29616-0.38026-0.47166l-0.08409-0.12066c-0.50458-0.76782-0.70567-1.6197-0.54114-2.5338 0.17916-0.63254 0.5192-1.1591 0.99817-1.6051 0.06216-0.032907 0.12431-0.065813 0.18647-0.095064v-0.091408c0.36197-0.26691 0.7532-0.44973 1.17-0.6106l0.15356-0.06947c0.20475-0.087751 0.41316-0.12066 0.63254-0.14991l0.12797-0.018282c1.0859-0.13528 2.0841 0.021938 3.1115 0.38026zm-4.117 16.94c0.8702 0.06581 1.8172 0.65448 2.3985 1.2834 0.68008 0.82633 0.85923 1.6453 0.78245 2.6947-0.12432 0.83364-0.70201 1.5832-1.3601 2.0731-0.13894 0.09506-0.27788 0.18282-0.41682 0.26691l-0.12066 0.08044c-0.27788 0.17916-0.54113 0.26691-0.86289 0.34004l-0.28885 0.07678c-1.1152 0.28885-2.3547 0.19744-3.3602-0.35466-0.06216-0.02925-0.12431-0.05484-0.18647-0.08044-0.13528-0.0585-0.25594-0.117-0.3766-0.2011v-0.09506l-0.09506-0.03291c-0.19744-0.084091-0.32907-0.21937-0.48264-0.36563l-0.09141-0.08409c-0.16453-0.15356-0.16453-0.15356-0.21938-0.21938v-0.09141c0.14625 0.05484 0.26691 0.14991 0.39488 0.24497 0.50092 0.35101 1.0274 0.51188 1.6161 0.64351l0.08775 0.02559c1.1298 0.24497 2.3729-0.14625 3.3309-0.72761 0.09872-0.07313 0.18647-0.15356 0.27788-0.234h0.09507v-0.09506l0.29982-0.29982c0.48263-0.51188 0.70932-1.2102 0.70201-1.8976v-0.14259c-0.0037-0.71664-0.29982-1.3382-0.79342-1.8538-0.19744-0.19013-0.40951-0.36564-0.62889-0.53383l-0.09506-0.07313c-0.1426-0.09872-0.29982-0.14991-0.4607-0.20841-0.09872-0.04387-0.09872-0.04387-0.14625-0.13894z" fill="#fff"/></g><title>file_type_sino</title></svg>
