<svg xmlns="http://www.w3.org/2000/svg" viewBox="0 0 32 32"><title>file_type_ats</title><path d="M30,14.74v.49a.736.736,0,0,0,0,.49v.56a.736.736,0,0,0,0,.49v.56a15.66,15.66,0,0,1-.373,2.332,14.127,14.127,0,0,1-8.8,9.59,10.293,10.293,0,0,1-3.471.713A.141.141,0,0,0,17.26,30H16.7a.386.386,0,0,0-.35,0h-.7a.546.546,0,0,0-.42,0h-.56a14.528,14.528,0,0,1-2.366-.383,14.269,14.269,0,0,1-6.051-3.426A14.048,14.048,0,0,1,2.593,20.4a9.879,9.879,0,0,1-.558-2.9c0-.057.011-.117-.035-.165v-.56a.923.923,0,0,0,0-.56v-.42a.923.923,0,0,0,0-.56v-.56a12.974,12.974,0,0,1,.454-2.637A14.035,14.035,0,0,1,9.572,3.444a13.708,13.708,0,0,1,3.719-1.292c.456-.09.923-.065,1.379-.152h.56a1.521,1.521,0,0,0,.512.035h.645c.15-.016.307.036.453-.035h.42c.434.071.879.047,1.311.129a14.125,14.125,0,0,1,10.7,9.076,10.4,10.4,0,0,1,.7,3.37C29.966,14.632,29.955,14.692,30,14.74Z" style="fill:#fefe5f"/><path d="M10.2,17.448c-.133.05-.165.185-.23.286-1.316,2.049-2.634,4.1-3.937,6.155-.154.244-.263.245-.479.094-.42-.293-.848-.579-1.294-.83-.259-.145-.272-.251-.114-.5,1.939-3.007,3.863-6.023,5.8-9.029a.785.785,0,0,0,.1-.748,5.583,5.583,0,0,0-.482-1.12,1.121,1.121,0,0,0-1.4-.542,5.4,5.4,0,0,0-1.889,1.169c-.275.233-.54.481-.794.737-.133.135-.215.158-.358.007-.408-.433-.832-.85-1.253-1.27-.09-.09-.156-.154-.027-.278a10.267,10.267,0,0,1,3.391-2.42,3.388,3.388,0,0,1,4.336,1.582,8.088,8.088,0,0,1,.954,4.418,19.625,19.625,0,0,0,.179,4.67,4.31,4.31,0,0,0,.12.473,1.9,1.9,0,0,0,2.124,1.573q5.965,0,11.932-.007c.332,0,.406.1.391.405-.025.5-.023,1,0,1.5.013.273-.065.347-.342.346-2.3-.012-4.6-.007-6.894-.007H14.9A4.159,4.159,0,0,1,11.861,23a5.207,5.207,0,0,1-1.389-2.917,14.4,14.4,0,0,1-.225-2.435C10.247,17.583,10.278,17.507,10.2,17.448Z" style="fill:#fe0000"/><path d="M26.708,13.593c0-.276-.086-.322-.336-.32-1.482.012-2.963.006-4.445.006-.832,0-.822,0-.832-.825,0-.238.049-.313.3-.31,1.365.013,2.73,0,4.095.011.229,0,.323-.032.316-.294-.02-.746-.014-1.493,0-2.239,0-.2-.03-.278-.26-.278q-5.337.014-10.675,0c-.251,0-.276.094-.273.3.01.734.015,1.47,0,2.2-.006.242.052.311.3.308,1.2-.014,2.4-.006,3.605-.006.8,0,.789,0,.8.816.006.272-.078.321-.33.319-1.645-.012-3.29,0-4.935-.012-.269,0-.351.059-.349.342q.018,3.481,0,6.965c0,.259.06.328.324.327,2.065-.012,4.13-.007,6.195-.007s4.107,0,6.16.005c.241,0,.34-.028.338-.313Q26.688,17.093,26.708,13.593ZM19.043,18.1c-.548-.011-1.1,0-1.643,0s-1.1-.007-1.644,0c-.185,0-.266-.032-.26-.243.016-.512.015-1.026,0-1.538-.006-.207.068-.25.26-.248q1.643.012,3.287,0c.192,0,.265.043.259.249-.014.512-.015,1.026,0,1.538C19.31,18.074,19.228,18.107,19.043,18.1ZM24.9,16.339c-.017.5-.013,1,0,1.5,0,.185-.026.265-.24.263-1.107-.011-2.215-.008-3.322,0-.165,0-.251-.02-.245-.222.015-.524.013-1.049,0-1.573,0-.188.06-.237.24-.233.56.01,1.119,0,1.679,0,.536,0,1.072.009,1.608,0C24.831,16.069,24.912,16.112,24.9,16.339Z" style="fill:#0000fe"/></svg>