<svg viewBox="0 0 32 32" xmlns="http://www.w3.org/2000/svg" xmlns:xlink="http://www.w3.org/1999/xlink"><linearGradient id="a" gradientUnits="userSpaceOnUse" x1="4.494" x2="13.832" y1="7.914" y2="24.086"><stop offset="0" stop-color="#ca4c28"/><stop offset=".5" stop-color="#c5401e"/><stop offset="1" stop-color="#b62f14"/></linearGradient><path d="m18.93 17.3-1.953-14.3h-.146a12.9 12.9 0 0 0 -12.878 12.854v.146z" fill="#ed6c47"/><path d="m17.123 3h-.146v13l6.511 2.6 6.512-2.6v-.146a12.9 12.9 0 0 0 -12.877-12.854z" fill="#ff8f6b"/><path d="m30 16v.143a12.905 12.905 0 0 1 -12.88 12.857h-.287a12.907 12.907 0 0 1 -12.88-12.857v-.143z" fill="#d35230"/><path d="m17.628 9.389v13.871a1.2 1.2 0 0 1 -.742 1.1 1.16 1.16 0 0 1 -.45.091h-9.409c-.182-.208-.358-.429-.521-.65a12.735 12.735 0 0 1 -2.553-7.657v-.286a12.705 12.705 0 0 1 2.097-7.008c.143-.221.293-.442.456-.65h9.93a1.2 1.2 0 0 1 1.192 1.189z" opacity=".1"/><path d="m16.977 10.04v13.871a1.15 1.15 0 0 1 -.091.448 1.2 1.2 0 0 1 -1.1.741h-8.166q-.309-.314-.593-.65c-.182-.208-.358-.429-.521-.65a12.735 12.735 0 0 1 -2.553-7.657v-.286a12.705 12.705 0 0 1 2.097-7.007h9.735a1.2 1.2 0 0 1 1.192 1.19z" opacity=".2"/><path d="m16.977 10.04v12.571a1.2 1.2 0 0 1 -1.192 1.189h-9.279a12.735 12.735 0 0 1 -2.553-7.657v-.286a12.705 12.705 0 0 1 2.097-7.007h9.735a1.2 1.2 0 0 1 1.192 1.19z" opacity=".2"/><path d="m16.326 10.04v12.571a1.2 1.2 0 0 1 -1.192 1.189h-8.628a12.735 12.735 0 0 1 -2.553-7.657v-.286a12.705 12.705 0 0 1 2.097-7.007h9.084a1.2 1.2 0 0 1 1.192 1.19z" opacity=".2"/><path d="m3.194 8.85h11.938a1.193 1.193 0 0 1 1.194 1.191v11.918a1.193 1.193 0 0 1 -1.194 1.191h-11.938a1.192 1.192 0 0 1 -1.194-1.191v-11.918a1.192 1.192 0 0 1 1.194-1.191z" fill="url(#a)"/><path d="m9.293 12.028a3.287 3.287 0 0 1 2.174.636 2.27 2.27 0 0 1 .756 1.841 2.555 2.555 0 0 1 -.373 1.376 2.49 2.49 0 0 1 -1.059.935 3.607 3.607 0 0 1 -1.591.334h-1.513v2.8h-1.546v-7.922zm-1.607 3.912h1.331a1.735 1.735 0 0 0 1.177-.351 1.3 1.3 0 0 0 .4-1.025q0-1.309-1.525-1.31h-1.383z" fill="#fff"/></svg>