<svg xmlns="http://www.w3.org/2000/svg" viewBox="0 0 32 32"><title>file_type_light_unibeautify</title><path d="M26.357,22.819c0.005-0.014,0.008-0.028,0.013-0.042c0.09-0.25,0.17-0.504,0.241-0.763c0.018-0.067,0.036-0.135,0.053-0.203	c0.057-0.225,0.11-0.45,0.152-0.68c0.026-0.14,0.045-0.28,0.065-0.42c0.024-0.17,0.052-0.339,0.068-0.512	C26.981,19.869,27,19.538,27,19.207c0-0.362-0.025-0.722-0.063-1.082c-0.015-0.15-0.038-0.298-0.06-0.447	c-0.028-0.187-0.061-0.373-0.099-0.559c-0.04-0.197-0.081-0.394-0.131-0.587c-0.021-0.083-0.05-0.165-0.073-0.247	C25.957,14.146,24.7,12.271,23,10.891V4.226c0-0.099-0.046-0.193-0.125-0.255c-1.04-0.819-2.197-1.422-3.424-1.822	c-0.005-0.002-0.007-0.008-0.013-0.009c-0.052-0.017-0.105-0.031-0.157-0.047C19.186,2.064,19.095,2.026,18.999,2v0.009v0.673v11.36	c0,1.623-1.345,2.944-3,2.944s-3-1.32-3-2.944V2.681V2.008V2c-0.097,0.027-0.19,0.065-0.285,0.095	c-0.051,0.016-0.102,0.029-0.152,0.046c-0.005,0.002-0.007,0.007-0.012,0.009c-1.227,0.399-2.385,1.002-3.425,1.821	C9.046,4.033,9,4.127,9,4.226v6.665c-2.441,1.981-4,4.972-4,8.315c0,5.293,3.906,9.699,9.035,10.612	c0.001,0,0.001,0.001,0.002,0.001c0.021,0.004,0.041,0.005,0.062,0.008c0.3,0.052,0.601,0.096,0.909,0.123	C15.345,29.983,15.674,30,15.999,30c0.395,0,0.785-0.023,1.17-0.063c0.102-0.011,0.202-0.032,0.303-0.045	c0.283-0.037,0.565-0.078,0.841-0.137c0.12-0.026,0.237-0.061,0.358-0.09c0.252-0.062,0.501-0.126,0.745-0.204	c0.132-0.042,0.26-0.093,0.39-0.14c0.224-0.082,0.446-0.166,0.664-0.261c0.138-0.06,0.272-0.127,0.408-0.193	c0.202-0.098,0.4-0.2,0.594-0.31c0.138-0.078,0.272-0.159,0.407-0.243c0.185-0.116,0.367-0.237,0.544-0.363	c0.128-0.091,0.257-0.183,0.381-0.28c0.179-0.139,0.352-0.286,0.522-0.436c0.11-0.097,0.222-0.191,0.328-0.293	c0.192-0.182,0.372-0.375,0.549-0.57c0.061-0.068,0.129-0.128,0.19-0.197c0.003-0.004,0.002-0.009,0.005-0.013	c0.843-0.978,1.504-2.107,1.952-3.337C26.354,22.822,26.356,22.821,26.357,22.819z M26.289,20.111	c-0.012,0.133-0.031,0.266-0.048,0.398c-0.019,0.147-0.043,0.292-0.068,0.437c-0.033,0.181-0.067,0.363-0.11,0.543	c-0.012,0.052-0.028,0.102-0.04,0.153c-0.056,0.219-0.116,0.438-0.188,0.655c-1.289-0.486-2.166-1.715-2.166-3.089	s0.876-2.603,2.166-3.09c0.138,0.418,0.239,0.841,0.321,1.266c0.031,0.165,0.06,0.33,0.083,0.497	c0.017,0.126,0.034,0.253,0.046,0.379c0.03,0.313,0.052,0.627,0.052,0.947C26.335,19.512,26.315,19.813,26.289,20.111z M9.668,4.384	c0.822-0.628,1.72-1.116,2.667-1.47v11.129c0,1.984,1.645,3.598,3.667,3.598s3.667-1.614,3.667-3.598V2.915	c0.947,0.354,1.845,0.842,2.667,1.47v9.499c0,3.427-2.841,6.215-6.334,6.215s-6.334-2.788-6.334-6.215V4.384z M5.67,19.207	c0-2.942,1.286-5.594,3.333-7.448v2.125c0,3.787,3.14,6.869,7,6.869s7-3.082,7-6.87v-2.124c1.139,1.032,2.032,2.316,2.609,3.756	c-1.549,0.58-2.609,2.043-2.609,3.691c0,1.65,1.062,3.114,2.613,3.693c-0.369,0.922-0.87,1.776-1.484,2.544	c-1.126-1.283-2.726-2.018-4.464-2.018c-3.216,0-5.836,2.533-5.91,5.673C9.137,28.09,5.67,24.042,5.67,19.207z M23.543,26.117	c-0.148,0.155-0.3,0.306-0.456,0.451c-0.103,0.096-0.209,0.19-0.316,0.282c-0.155,0.132-0.314,0.259-0.476,0.381	c-0.116,0.088-0.232,0.175-0.352,0.258c-0.167,0.116-0.339,0.223-0.513,0.329c-0.121,0.074-0.242,0.15-0.367,0.219	c-0.185,0.103-0.376,0.195-0.567,0.286c-0.121,0.058-0.239,0.119-0.363,0.172c-0.209,0.09-0.423,0.166-0.637,0.242	c-0.113,0.04-0.224,0.086-0.339,0.122c-0.234,0.074-0.475,0.133-0.714,0.19c-0.103,0.025-0.203,0.056-0.306,0.077	c-0.26,0.054-0.524,0.09-0.789,0.124c-0.09,0.012-0.177,0.031-0.268,0.04c-0.324,0.033-0.651,0.048-0.98,0.051	c-0.034,0-0.065,0.005-0.099,0.005c-0.298,0-0.591-0.02-0.883-0.044c-0.18-0.016-0.364-0.039-0.549-0.065	c-0.05-0.007-0.101-0.015-0.151-0.023c0.009-2.832,2.361-5.134,5.249-5.134c1.577,0,3.031,0.677,4.034,1.864	C23.649,26.003,23.597,26.06,23.543,26.117z"/><path d="M10.337,21.096c-0.983,0-1.783,0.785-1.783,1.75s0.8,1.749,1.783,1.749s1.783-0.784,1.783-1.749	C12.12,21.881,11.32,21.096,10.337,21.096z M10.337,23.941c-0.617,0-1.116-0.49-1.117-1.095c0.001-0.605,0.5-1.095,1.117-1.096	c0.617,0.001,1.116,0.491,1.117,1.096C11.453,23.451,10.953,23.94,10.337,23.941z"/></svg>