<svg xmlns="http://www.w3.org/2000/svg" xmlns:xlink="http://www.w3.org/1999/xlink" viewBox="0 0 32 32"><defs><linearGradient id="a" x1="9.348" y1="-80.996" x2="9.348" y2="-78.788" gradientTransform="matrix(1, 0, 0, -1, 0, -59.52)" gradientUnits="userSpaceOnUse"><stop offset="0" stop-color="#fffa8f"/><stop offset="1" stop-color="#fb784b"/></linearGradient><linearGradient id="b" x1="25.805" y1="-71.31" x2="26.62" y2="-70.64" gradientTransform="matrix(1, 0, 0, -1, 0, -59.52)" gradientUnits="userSpaceOnUse"><stop offset="0" stop-color="#5bcb99"/><stop offset="1" stop-color="#85a8e8"/></linearGradient><linearGradient id="c" x1="10.383" y1="-79.402" x2="35.773" y2="-66.228" gradientTransform="matrix(1, 0, 0, -1, 0, -59.52)" gradientUnits="userSpaceOnUse"><stop offset="0" stop-color="#34e28b"/><stop offset="1"/></linearGradient><linearGradient id="d" x1="15.046" y1="-81.951" x2="17.043" y2="-81.951" gradientTransform="matrix(1, 0, 0, -1, 0, -59.52)" gradientUnits="userSpaceOnUse"><stop offset="0" stop-color="#c297ff"/><stop offset="1" stop-color="#ae31bb"/></linearGradient><linearGradient id="e" x1="6.91" y1="-91.574" x2="32.155" y2="-71.884" gradientTransform="matrix(1, 0, 0, -1, 0, -59.52)" gradientUnits="userSpaceOnUse"><stop offset="0"/><stop offset="1" stop-color="#d23de2"/></linearGradient><linearGradient id="f" x1="25.576" y1="-70.194" x2="24.554" y2="-73.644" gradientTransform="matrix(1, 0, 0, -1, 0, -59.52)" gradientUnits="userSpaceOnUse"><stop offset="0"/><stop offset="1" stop-opacity="0"/></linearGradient><linearGradient id="g" x1="16.239" y1="-83.545" x2="23.418" y2="-85.284" gradientTransform="matrix(1, 0, 0, -1, 0, -59.52)" gradientUnits="userSpaceOnUse"><stop offset="0" stop-color="#2db5f9"/><stop offset="1"/></linearGradient><linearGradient id="h" x1="10.627" y1="-65.468" x2="5.884" y2="-78.497" gradientTransform="matrix(1, 0, 0, -1, 0, -59.52)" gradientUnits="userSpaceOnUse"><stop offset="0"/><stop offset="0.21" stop-color="#48080a"/><stop offset="0.42" stop-color="#891014"/><stop offset="0.61" stop-color="#bc151b"/><stop offset="0.78" stop-color="#e01a21"/><stop offset="0.91" stop-color="#f71c24"/><stop offset="1" stop-color="#ff1d25"/></linearGradient></defs><title>file_type_dojo</title><path d="M5.4,18.871l.066.1a7.421,7.421,0,0,0,1.186,1.317A5.8,5.8,0,0,0,10.336,21.6h.253a8.638,8.638,0,0,0,2.706-.672,8.593,8.593,0,0,1-1.165.106,4.726,4.726,0,0,1-3.516-1.57A8.572,8.572,0,0,1,5.4,18.871Z" style="fill:url(#a)"/><path d="M10.333,9.964a5.816,5.816,0,0,1,4.984,2.809A4.741,4.741,0,0,0,10.8,11.734a12.313,12.313,0,0,0,4.521,1.044,3.644,3.644,0,0,0-2.537-2.9C9.373,8.487,8.9,8.762,8.038,7.316a3.852,3.852,0,0,0,.772,2.837A5.8,5.8,0,0,1,10.333,9.964Z" style="fill:#f15a24"/><path d="M12.787,9.876c-1.167-.465-1.988-.755-2.6-.977a4.307,4.307,0,0,0,.64,1.084,5.816,5.816,0,0,1,4.5,2.79,4.727,4.727,0,0,0-2.631-1.2,13.929,13.929,0,0,0,2.56,1.2h.075A3.649,3.649,0,0,0,12.787,9.876Z" style="fill:#ed1c24"/><path d="M15.319,12.778h.013a3.5,3.5,0,0,0-1.589-3.295C10.973,7.335,10.434,7.135,10.3,6a3.564,3.564,0,0,0-.117,2.9c.612.213,1.436.5,2.6.977a3.639,3.639,0,0,1,2.539,2.9Z" style="fill:#c1272d"/><path d="M23.723,10.9a4.311,4.311,0,0,1,2.829,1.054,3.823,3.823,0,0,1,2.437,1.02A5.647,5.647,0,0,0,22.558,11a5.285,5.285,0,0,0-1.049.514A4.306,4.306,0,0,1,23.723,10.9Z" style="fill:url(#b)"/><path d="M23.723,10.9a4.3,4.3,0,0,0-2.214.611l.119-.073c-3.315,1.952-7.38,7.952-13.014,8.026h0a4.73,4.73,0,0,0,3.516,1.56,8.6,8.6,0,0,0,1.165-.107c3.665-1.51,7.185-5.12,8.783-6.872a5.637,5.637,0,0,1,4.481-2.093A4.317,4.317,0,0,0,23.723,10.9Z" style="fill:url(#c)"/><path d="M15.164,22.532a2.7,2.7,0,0,0-.118.747,2.849,2.849,0,0,0,.133.864,2.132,2.132,0,0,1,.7-1.888l.017-.064a2.614,2.614,0,0,1,1.143-1.473h0a5.014,5.014,0,0,0-.51.2A2.672,2.672,0,0,0,15.164,22.532Z" style="fill:url(#d)"/><path d="M30,16.142a5.433,5.433,0,0,0-1.018-3.172,3.818,3.818,0,0,0-2.43-1.012,4.321,4.321,0,0,1,1.494,3.275,4.3,4.3,0,0,1-2.236,4.009c-2.488,1.3-6.3.683-8.784,1.494h0a2.609,2.609,0,0,0-1.141,1.47l-.017.064h0c.725-.641,2.157-1.095,4.949-.734a12.445,12.445,0,0,0,4.939-.064,5.284,5.284,0,0,0,3.233-2.179h0A5.434,5.434,0,0,0,30,16.142Z" style="fill:url(#e)"/><path d="M30,16.142a5.433,5.433,0,0,0-1.018-3.172,3.818,3.818,0,0,0-2.43-1.012,4.321,4.321,0,0,1,1.494,3.275,4.3,4.3,0,0,1-2.236,4.009c-2.488,1.3-6.3.683-8.784,1.494h0a2.609,2.609,0,0,0-1.141,1.47l-.017.064h0c.725-.641,2.157-1.095,4.949-.734a12.445,12.445,0,0,0,4.939-.064,5.284,5.284,0,0,0,3.233-2.179h0A5.434,5.434,0,0,0,30,16.142Z" style="opacity:0.49000000953674316;isolation:isolate;fill:url(#f)"/><path d="M17.641,25.465a2.62,2.62,0,0,1-1.754-3.217h0a2.134,2.134,0,0,0-.7,1.888,2.681,2.681,0,0,0,4.312,1.21A2.609,2.609,0,0,1,17.641,25.465Z" style="fill:url(#g)"/><path d="M18.55,25.276c.27-.792,1.149-2.012,2.09-1.453,0,0,.766.426.926-.783,0,0,.574,2.854-2.191,2.758,0,0,.623-.454.617-.921A3.174,3.174,0,0,1,18.55,25.276Z" style="fill:#2db5f9"/><path d="M19.655,23.528a1.006,1.006,0,0,1,1.034-.055c.391.173.882-.5.457-1.11,0,0,.028.626-.476.619A1.128,1.128,0,0,0,19.655,23.528Z" style="fill:#5fd2ff"/><path d="M22.432,14.446a20.938,20.938,0,0,1-1.747,1.843c-.113.186.192.783.64.826s.105-.173.066-.384.135.134.677.053-.2-.281-.145-.554.608-.792.83-1.313.6,0,.407.408c-.077.162.617-.454.267-.924S22.819,13.919,22.432,14.446Z" style="fill:#219058"/><path d="M10.8,11.734a5.333,5.333,0,0,1-1.991-1.568,5.82,5.82,0,0,0-3.413,8.7,8.543,8.543,0,0,0,3.215.6h0A4.742,4.742,0,0,1,10.8,11.734Z" style="fill:url(#h)"/><path d="M10.813,9.983a8.047,8.047,0,0,0,1.876,1.593,4.728,4.728,0,0,1,2.628,1.2A5.818,5.818,0,0,0,10.813,9.983Z" style="fill:#f7b852"/><path d="M10.813,9.983c-.157-.013-.317-.019-.477-.019a5.815,5.815,0,0,0-1.524.213A5.333,5.333,0,0,0,10.8,11.745a4.712,4.712,0,0,1,1.886-.156A8.349,8.349,0,0,1,10.813,9.983Z" style="fill:#ff8431"/><path d="M14.044,11.308a4.262,4.262,0,0,0-1.564-.935A1.442,1.442,0,0,0,14.044,11.308Z" style="fill:#fffb69"/><path d="M8.964,8.033a2.327,2.327,0,0,0,.853.48A2.424,2.424,0,0,1,9.7,7.542c0-.023-.736-.013-.854-.617A1.614,1.614,0,0,0,8.964,8.033Z" style="fill:#c1272d"/><path d="M7.4,22.529a3.177,3.177,0,0,1-.728.536,1.8,1.8,0,0,1,.2-.77,2.066,2.066,0,0,0-.9.4,3.9,3.9,0,0,1,.145-.689,1.068,1.068,0,0,0-.674.508v-.1c.045-.587.269-1.11,1.146-.979.027,0,.054.009.081.014a1.744,1.744,0,0,1,.86.331,2.424,2.424,0,0,1,.572.408C8.417,22.48,7.86,22.926,7.4,22.529Z" style="fill:#f15a24"/><path d="M4.084,17.473c.009.453-.665.312-.721-.388-.007-.089-.018-.17-.031-.246C3.1,16.474,2.4,16.5,2.4,16.5a1.854,1.854,0,0,1,.619-.36A.863.863,0,0,0,2.2,15.9a3.417,3.417,0,0,1,.553-.333A1.068,1.068,0,0,0,2,15.406a.863.863,0,0,1,.081-.062c.487-.33,1.033-.484,1.489.273a1.843,1.843,0,0,1,.09.162H3.644a3.984,3.984,0,0,1,.349,1A2.4,2.4,0,0,1,4.084,17.473Z" style="fill:#f15a24"/><path d="M10.961,12.11c-.815.179-.689.825-.689.825s.258-.311,1.676-.48A6.632,6.632,0,0,1,10.961,12.11Z" style="fill:#c1272d"/></svg>
