<svg version="1.1" id="prefix__Layer_1" xmlns="http://www.w3.org/2000/svg" x="0" y="0" viewBox="0 0 32 32" xml:space="preserve"><style>.prefix__st1{fill:#fc6d26}</style><g id="prefix__LOGO"><path d="M30.5 13v-.1L26.4 2.2c-.1-.2-.3-.4-.4-.5-.4-.2-.9-.2-1.2.1-.2.1-.3.3-.4.5l-2.8 8.4H10.4L7.7 2.3c-.1-.2-.2-.4-.4-.5-.4-.3-.9-.3-1.2-.1-.2.1-.4.3-.5.5L1.5 12.9v.1c-1.2 3.2-.2 6.7 2.5 8.8l6.2 4.7 3.1 2.3 1.9 1.4c.5.3 1.1.3 1.5 0l1.9-1.4 3.1-2.3 6.3-4.7c2.7-2.1 3.7-5.7 2.5-8.8z" fill="#e24329"/><path class="prefix__st1" d="M30.5 13v-.1c-2 .4-3.9 1.3-5.5 2.5l-9 6.8c3.1 2.3 5.7 4.3 5.7 4.3l6.3-4.7c2.7-2.1 3.7-5.7 2.5-8.8z"/><path d="M10.3 26.4l3.1 2.3 1.9 1.4c.5.3 1.1.3 1.5 0l1.9-1.4 3.1-2.3s-2.7-2-5.7-4.3c-3.2 2.3-5.8 4.3-5.8 4.3z" fill="#fca326"/><path class="prefix__st1" d="M7 15.3c-1.6-1.2-3.5-2.1-5.5-2.5v.1c-1.2 3.2-.2 6.7 2.5 8.8l6.2 4.7s2.7-2 5.7-4.3L7 15.3z"/></g></svg>
