<svg version="1.2" xmlns="http://www.w3.org/2000/svg" viewBox="0 0 32 32" width="32" height="32">
	<style>
		.s0 { fill: #fff100 } 
		.s1 { fill: #1d1d1b } 
	</style>
	<path fill-rule="evenodd" class="s0" d="m16 29.89c-7.68 0-13.89-6.21-13.89-13.89 0-7.68 6.21-13.89 13.89-13.89 7.68 0 13.89 6.21 13.89 13.89 0 7.68-6.21 13.89-13.89 13.89z"/>
	<g>
		<path fill-rule="evenodd" class="s1" d="m12.67 21.75c-3.18 0-5.74-2.57-5.74-5.75 0-3.18 2.56-5.75 5.74-5.75 3.18 0 5.74 2.57 5.74 5.75 0 3.18-2.56 5.75-5.74 5.75z"/>
		<path class="s1" d="m23.01 13.93h-2.73v4.14h2.73c1.14 0 2.06-0.93 2.06-2.07 0-1.14-0.92-2.07-2.06-2.07z"/>
	</g>
</svg>