<?xml version="1.0" encoding="UTF-8"?>
<!DOCTYPE svg PUBLIC "-//W3C//DTD SVG 1.1//EN" "http://www.w3.org/Graphics/SVG/1.1/DTD/svg11.dtd">
<svg xmlns="http://www.w3.org/2000/svg" version="1.1" width="534px" height="534px" style="shape-rendering:geometricPrecision; text-rendering:geometricPrecision; image-rendering:optimizeQuality; fill-rule:evenodd; clip-rule:evenodd" xmlns:xlink="http://www.w3.org/1999/xlink">
<g><path style="opacity:0.932" fill="#f5cd0f" d="M 358.5,46.5 C 352.161,44.2043 349.827,46.2043 351.5,52.5C 350.657,56.2017 348.823,59.2017 346,61.5C 345.228,61.3552 344.561,61.0219 344,60.5C 342.487,56.1113 340.32,52.1113 337.5,48.5C 332.55,47.5424 327.55,46.8757 322.5,46.5C 322.351,45.448 322.517,44.448 323,43.5C 325.957,40.5086 328.957,37.5086 332,34.5C 332.322,30.1033 331.822,25.7699 330.5,21.5C 330.22,19.3772 331.053,18.0439 333,17.5C 337.059,19.7261 341.226,21.7261 345.5,23.5C 348.957,21.9373 352.29,20.104 355.5,18C 357.112,17.2797 358.612,17.4464 360,18.5C 359.345,23.4494 359.011,28.4494 359,33.5C 362.799,36.2969 366.299,39.4636 369.5,43C 366.486,46.0341 362.819,47.2008 358.5,46.5 Z"/></g>
<g><path style="opacity:0.91" fill="#7a828e" d="M 358.5,46.5 C 359.167,47.8333 359.833,49.1667 360.5,50.5C 359.135,52.8598 357.135,54.5265 354.5,55.5C 353.728,54.3065 352.728,53.3065 351.5,52.5C 349.827,46.2043 352.161,44.2043 358.5,46.5 Z"/></g>
<g><path style="opacity:0.885" fill="#edca1d" d="M 371.5,63.5 C 369.738,62.7377 368.738,61.4044 368.5,59.5C 369.167,58.1667 369.833,56.8333 370.5,55.5C 368.847,55.6596 367.514,56.3263 366.5,57.5C 363.312,58.0284 360.979,59.6951 359.5,62.5C 356.693,65.0443 357.36,66.0443 361.5,65.5C 362.974,66.4363 363.974,67.7697 364.5,69.5C 359.8,72.7614 354.966,73.0947 350,70.5C 348.379,64.4752 349.879,59.4752 354.5,55.5C 357.135,54.5265 359.135,52.8598 360.5,50.5C 364.206,49.7103 367.872,48.7103 371.5,47.5C 376.378,48.5831 378.211,51.5831 377,56.5C 376.065,59.5952 374.231,61.9286 371.5,63.5 Z M 370.5,55.5 C 369.833,56.8333 369.167,58.1667 368.5,59.5C 367.5,59.1667 366.833,58.5 366.5,57.5C 367.514,56.3263 368.847,55.6596 370.5,55.5 Z"/></g>
<g><path style="opacity:0.948" fill="#79828f" d="M 366.5,57.5 C 366.833,58.5 367.5,59.1667 368.5,59.5C 368.738,61.4044 369.738,62.7377 371.5,63.5C 371.5,64.1667 371.833,64.5 372.5,64.5C 370.23,66.9748 367.563,68.9748 364.5,70.5C 364.5,70.1667 364.5,69.8333 364.5,69.5C 363.974,67.7697 362.974,66.4363 361.5,65.5C 361.068,64.2905 360.401,63.2905 359.5,62.5C 360.979,59.6951 363.312,58.0284 366.5,57.5 Z"/></g>
<g><path style="opacity:0.881" fill="#f0cb1a" d="M 399.5,97.5 C 397.14,96.135 395.473,94.135 394.5,91.5C 395.242,89.5742 396.242,87.7409 397.5,86C 395.179,85.992 393.179,86.8253 391.5,88.5C 386.983,89.0304 383.983,91.3638 382.5,95.5C 380.243,96.5618 379.077,98.2285 379,100.5C 380.725,99.536 382.559,98.8693 384.5,98.5C 386.89,99.8908 388.557,101.891 389.5,104.5C 385.841,106.751 381.841,108.084 377.5,108.5C 371.96,108.624 368.96,105.957 368.5,100.5C 368.858,96.7571 370.191,93.4238 372.5,90.5C 368.878,89.6747 365.211,89.1747 361.5,89C 358.152,85.5814 357.652,81.748 360,77.5C 361.511,75.1384 363.011,72.8051 364.5,70.5C 367.563,68.9748 370.23,66.9748 372.5,64.5C 377.259,62.2271 382.259,61.3938 387.5,62C 389.954,62.9425 390.954,64.7759 390.5,67.5C 390.603,71.6205 389.269,75.1205 386.5,78C 389.813,77.0449 393.313,76.5449 397,76.5C 402.874,75.2115 406.041,77.5448 406.5,83.5C 405.742,89.0156 403.409,93.6823 399.5,97.5 Z M 380.5,74.5 C 379.833,73.8333 379.167,73.1667 378.5,72.5C 385.199,68.1744 385.865,68.8411 380.5,74.5 Z M 370.5,78.5 C 371.401,79.2905 372.068,80.2905 372.5,81.5C 366.792,83.3334 366.126,82.3334 370.5,78.5 Z M 394.5,91.5 C 393.167,90.8333 392.167,89.8333 391.5,88.5C 393.179,86.8253 395.179,85.992 397.5,86C 396.242,87.7409 395.242,89.5742 394.5,91.5 Z"/></g>
<g><path style="opacity:0.958" fill="#7a828e" d="M 378.5,72.5 C 379.167,73.1667 379.833,73.8333 380.5,74.5C 380.933,77.1955 382.266,79.3621 384.5,81C 382.323,82.5149 380.156,84.0149 378,85.5C 376.019,84.3498 374.186,83.0165 372.5,81.5C 372.068,80.2905 371.401,79.2905 370.5,78.5C 371.701,74.6416 374.367,72.6416 378.5,72.5 Z"/></g>
<g><path style="opacity:0.939" fill="#788190" d="M 391.5,88.5 C 392.167,89.8333 393.167,90.8333 394.5,91.5C 395.473,94.135 397.14,96.135 399.5,97.5C 400.529,99.5168 401.529,101.517 402.5,103.5C 400.363,106.973 397.363,109.306 393.5,110.5C 392.585,108.246 391.252,106.246 389.5,104.5C 388.557,101.891 386.89,99.8908 384.5,98.5C 384.573,96.9731 383.906,95.9731 382.5,95.5C 383.983,91.3638 386.983,89.0304 391.5,88.5 Z"/></g>
<g><path style="opacity:0.928" fill="#a7aebf" d="M 402.5,103.5 C 403.766,104.09 405.099,104.59 406.5,105C 411.044,110.04 415.378,115.206 419.5,120.5C 415.835,124.85 411.502,128.517 406.5,131.5C 400.909,125.25 396.575,118.25 393.5,110.5C 397.363,109.306 400.363,106.973 402.5,103.5 Z"/></g>
<g><path style="opacity:0.97" fill="#596670" d="M 419.5,120.5 C 422.157,120.162 424.49,120.829 426.5,122.5C 429.104,126.054 431.438,129.721 433.5,133.5C 427.106,138.398 421.939,144.398 418,151.5C 416.756,154.564 415.923,157.731 415.5,161C 416.114,165.29 417.114,169.457 418.5,173.5C 414.167,169.5 409.833,165.5 405.5,161.5C 405.068,160.29 404.401,159.29 403.5,158.5C 399.705,149.051 400.705,140.051 406.5,131.5C 411.502,128.517 415.835,124.85 419.5,120.5 Z"/></g>
<g><path style="opacity:0.978" fill="#768090" d="M 433.5,133.5 C 434.833,134.833 436.167,136.167 437.5,137.5C 437.5,139.5 437.5,141.5 437.5,143.5C 435.139,144.435 432.972,145.768 431,147.5C 428.628,150.91 426.795,154.577 425.5,158.5C 423.237,166.264 426.237,170.597 434.5,171.5C 436.432,174.366 438.099,177.366 439.5,180.5C 438.167,180.833 438.167,181.167 439.5,181.5C 440.862,184.878 440.695,188.211 439,191.5C 431.805,207.365 420.972,220.198 406.5,230C 401.895,231.485 397.228,232.651 392.5,233.5C 387.544,232.192 382.877,230.025 378.5,227C 374.917,223.247 371.251,219.747 367.5,216.5C 366.624,213.201 366.457,209.868 367,206.5C 375.25,191.661 384.25,177.328 394,163.5C 396.602,160.617 399.768,158.95 403.5,158.5C 404.401,159.29 405.068,160.29 405.5,161.5C 403.891,163.601 403.391,165.935 404,168.5C 408.854,178.027 416.521,183.694 427,185.5C 430.215,185.812 432.382,184.478 433.5,181.5C 428.037,179.603 423.037,176.937 418.5,173.5C 417.114,169.457 416.114,165.29 415.5,161C 415.923,157.731 416.756,154.564 418,151.5C 421.939,144.398 427.106,138.398 433.5,133.5 Z"/></g>
<g><path style="opacity:0.886" fill="#a7aebe" d="M 460.5,147.5 C 457.794,147.575 455.127,147.908 452.5,148.5C 448.528,144.193 444.528,139.859 440.5,135.5C 442.628,134.371 444.961,134.204 447.5,135C 451.729,139.398 456.062,143.564 460.5,147.5 Z"/></g>
<g><path style="opacity:0.99" fill="#121111" d="M 440.5,135.5 C 444.528,139.859 448.528,144.193 452.5,148.5C 451.669,151.659 450.669,154.659 449.5,157.5C 445.155,153.153 441.155,148.486 437.5,143.5C 437.5,141.5 437.5,139.5 437.5,137.5C 438.5,136.833 439.5,136.167 440.5,135.5 Z"/></g>
<g><path style="opacity:0.966" fill="#a7aebf" d="M 437.5,143.5 C 441.155,148.486 445.155,153.153 449.5,157.5C 451.543,160.543 454.21,162.876 457.5,164.5C 463.178,172.502 469.345,180.168 476,187.5C 482.47,195.574 481.97,203.074 474.5,210C 469.104,212.267 464.104,211.6 459.5,208C 452.934,199.009 446.268,190.175 439.5,181.5C 439.5,181.167 439.5,180.833 439.5,180.5C 438.099,177.366 436.432,174.366 434.5,171.5C 431.857,166.868 428.857,162.535 425.5,158.5C 426.795,154.577 428.628,150.91 431,147.5C 432.972,145.768 435.139,144.435 437.5,143.5 Z"/></g>
<g><path style="opacity:0.993" fill="#f8b10d" d="M 363.5,221.5 C 364.433,225.965 365.766,230.298 367.5,234.5C 367.767,236.965 368.434,239.299 369.5,241.5C 370.942,246.519 372.942,251.186 375.5,255.5C 378.675,267.198 382.008,278.865 385.5,290.5C 385.376,291.107 385.043,291.44 384.5,291.5C 339.351,303.703 294.351,316.37 249.5,329.5C 230.738,274.524 209.072,220.857 184.5,168.5C 187.06,165.463 190.393,163.629 194.5,163C 237.19,149.806 280.857,143.806 325.5,145C 327.286,145.785 328.786,146.951 330,148.5C 341.73,172.624 352.897,196.957 363.5,221.5 Z"/></g>
<g><path style="opacity:0.929" fill="#778191" d="M 460.5,147.5 C 460.982,148.416 461.315,149.416 461.5,150.5C 460.16,155.197 458.827,159.864 457.5,164.5C 454.21,162.876 451.543,160.543 449.5,157.5C 450.669,154.659 451.669,151.659 452.5,148.5C 455.127,147.908 457.794,147.575 460.5,147.5 Z"/></g>
<g><path style="opacity:1" fill="#f9f9ef" d="M 308.5,158.5 C 327.888,169.996 333.555,186.329 325.5,207.5C 325.389,208.117 325.056,208.617 324.5,209C 321.854,209.497 319.187,209.664 316.5,209.5C 323.78,195.513 320.78,184.347 307.5,176C 291.702,174.978 285.035,182.478 287.5,198.5C 285.254,196.351 283.754,193.684 283,190.5C 280.359,181.823 281.026,173.49 285,165.5C 291.339,158.221 299.172,155.888 308.5,158.5 Z"/></g>
<g><path style="opacity:0.995" fill="#efcb26" d="M 308.5,158.5 C 316.391,157.862 322.557,160.862 327,167.5C 332.787,178.73 333.787,190.397 330,202.5C 328.951,204.618 327.451,206.284 325.5,207.5C 333.555,186.329 327.888,169.996 308.5,158.5 Z"/></g>
<g><path style="opacity:1" fill="#121211" d="M 425.5,158.5 C 428.857,162.535 431.857,166.868 434.5,171.5C 426.237,170.597 423.237,166.264 425.5,158.5 Z"/></g>
<g><path style="opacity:1" fill="#0d0c0b" d="M 405.5,161.5 C 409.833,165.5 414.167,169.5 418.5,173.5C 423.037,176.937 428.037,179.603 433.5,181.5C 432.382,184.478 430.215,185.812 427,185.5C 416.521,183.694 408.854,178.027 404,168.5C 403.391,165.935 403.891,163.601 405.5,161.5 Z"/></g>
<g><path style="opacity:0.997" fill="#efcb25" d="M 266.5,212.5 C 272.829,191.45 266.496,175.783 247.5,165.5C 249.366,164.986 251.2,164.32 253,163.5C 262.053,166.888 268.053,173.221 271,182.5C 273.495,192.432 272.828,202.098 269,211.5C 268.329,212.252 267.496,212.586 266.5,212.5 Z"/></g>
<g><path style="opacity:1" fill="#f9f8ee" d="M 247.5,165.5 C 266.496,175.783 272.829,191.45 266.5,212.5C 264.972,216.439 261.972,218.105 257.5,217.5C 266.888,202.146 263.555,190.312 247.5,182C 232.995,181.673 225.995,188.839 226.5,203.5C 220.034,193.431 219.867,183.098 226,172.5C 231.75,166.127 238.917,163.793 247.5,165.5 Z"/></g>
<g><path style="opacity:0.993" fill="#face08" d="M 184.5,168.5 C 209.072,220.857 230.738,274.524 249.5,329.5C 227.239,355.432 204.239,380.765 180.5,405.5C 176.139,392.748 171.806,380.081 167.5,367.5C 161.656,348.459 155.656,329.459 149.5,310.5C 150.167,308.833 150.833,307.167 151.5,305.5C 152.338,305.158 152.672,304.492 152.5,303.5C 154.05,302.559 155.716,301.893 157.5,301.5C 162.303,303.242 167.303,303.909 172.5,303.5C 184.883,302.073 192.717,295.407 196,283.5C 198.584,263.837 191.417,249.004 174.5,239C 170.572,237.675 166.572,237.342 162.5,238C 156.515,240.272 150.515,242.439 144.5,244.5C 142.948,243.378 141.282,242.878 139.5,243C 138.133,245.301 137.466,247.801 137.5,250.5C 136.241,254.025 134.241,257.025 131.5,259.5C 127.868,253.92 127.701,248.254 131,242.5C 148.61,217.589 166.443,192.923 184.5,168.5 Z"/></g>
<g><path style="opacity:1" fill="#0c0b08" d="M 316.5,209.5 C 302.749,216.112 293.082,212.446 287.5,198.5C 285.035,182.478 291.702,174.978 307.5,176C 320.78,184.347 323.78,195.513 316.5,209.5 Z"/></g>
<g><path style="opacity:1" fill="#0c0b08" d="M 257.5,217.5 C 254.279,218.111 251.279,219.278 248.5,221C 242.938,222.581 238.438,221.081 235,216.5C 231.918,212.266 229.084,207.933 226.5,203.5C 225.995,188.839 232.995,181.673 247.5,182C 263.555,190.312 266.888,202.146 257.5,217.5 Z"/></g>
<g><path style="opacity:0.997" fill="#f9b30c" d="M 181.5,183.5 C 184.238,182.965 186.072,183.965 187,186.5C 187.769,189.099 187.602,191.599 186.5,194C 184.633,194.711 183.133,194.211 182,192.5C 180.426,189.508 180.259,186.508 181.5,183.5 Z"/></g>
<g><path style="opacity:0.996" fill="#5a6772" d="M 376.5,207.5 C 384.772,208.552 387.105,212.719 383.5,220C 375.604,219.047 373.271,214.88 376.5,207.5 Z"/></g>
<g><path style="opacity:0.97" fill="#a7aebf" d="M 367.5,216.5 C 371.251,219.747 374.917,223.247 378.5,227C 382.877,230.025 387.544,232.192 392.5,233.5C 391.241,237.025 389.241,240.025 386.5,242.5C 383.695,241.681 380.695,241.181 377.5,241C 374.014,239.004 370.681,236.837 367.5,234.5C 365.766,230.298 364.433,225.965 363.5,221.5C 365.063,220.055 366.396,218.389 367.5,216.5 Z"/></g>
<g><path style="opacity:1" fill="#f9f8ed" d="M 314.5,238.5 C 312.99,239.836 311.323,241.003 309.5,242C 298.311,245.574 286.978,246.241 275.5,244C 271.493,242.663 267.827,240.83 264.5,238.5C 281.095,234.702 297.929,231.369 315,228.5C 315.833,228.833 316.667,229.167 317.5,229.5C 316.341,232.481 315.341,235.481 314.5,238.5 Z"/></g>
<g><path style="opacity:1" fill="#984d1b" d="M 262.5,238.5 C 260.62,238.229 259.287,238.896 258.5,240.5C 249.982,243.458 249.315,241.958 256.5,236C 260.091,233.195 264.091,232.195 268.5,233C 265.957,234.382 263.957,236.215 262.5,238.5 Z"/></g>
<g><path style="opacity:0.985" fill="#7d8593" d="M 367.5,234.5 C 370.681,236.837 374.014,239.004 377.5,241C 380.695,241.181 383.695,241.681 386.5,242.5C 386.167,243.167 385.833,243.833 385.5,244.5C 379.908,244.743 374.574,243.743 369.5,241.5C 368.434,239.299 367.767,236.965 367.5,234.5 Z"/></g>
<g><path style="opacity:0.999" fill="#5b6770" d="M 172.5,303.5 C 181.273,297.33 183.773,288.996 180,278.5C 174.219,259.874 161.719,249.541 142.5,247.5C 143.167,246.5 143.833,245.5 144.5,244.5C 150.515,242.439 156.515,240.272 162.5,238C 166.572,237.342 170.572,237.675 174.5,239C 191.417,249.004 198.584,263.837 196,283.5C 192.717,295.407 184.883,302.073 172.5,303.5 Z"/></g>
<g><path style="opacity:1" fill="#0f0d0a" d="M 262.5,238.5 C 263.167,238.5 263.833,238.5 264.5,238.5C 267.827,240.83 271.493,242.663 275.5,244C 286.978,246.241 298.311,245.574 309.5,242C 311.323,241.003 312.99,239.836 314.5,238.5C 314.493,246.689 310.827,252.522 303.5,256C 284.549,261.851 269.549,256.684 258.5,240.5C 259.287,238.896 260.62,238.229 262.5,238.5 Z"/></g>
<g><path style="opacity:0.911" fill="#a9aebd" d="M 369.5,241.5 C 374.574,243.743 379.908,244.743 385.5,244.5C 382.138,248.192 378.805,251.859 375.5,255.5C 372.942,251.186 370.942,246.519 369.5,241.5 Z"/></g>
<g><path style="opacity:0.992" fill="#c5a61e" d="M 144.5,244.5 C 143.833,245.5 143.167,246.5 142.5,247.5C 140.999,248.752 139.332,249.752 137.5,250.5C 137.466,247.801 138.133,245.301 139.5,243C 141.282,242.878 142.948,243.378 144.5,244.5 Z"/></g>
<g><path style="opacity:0.963" fill="#e4e7e8" d="M 132.5,270.5 C 133.87,272.25 134.87,274.25 135.5,276.5C 135.423,277.75 134.756,278.583 133.5,279C 126.684,279.876 120.017,279.21 113.5,277C 105.674,273.59 98.3405,269.423 91.5,264.5C 85.5566,267.276 81.0566,271.609 78,277.5C 69.2122,296.656 63.5455,316.656 61,337.5C 65.6902,321.407 70.6902,305.407 76,289.5C 79.3212,281.854 83.8212,275.021 89.5,269C 91.1667,268.333 92.8333,268.333 94.5,269C 105.211,277.683 117.545,282.016 131.5,282C 130.748,282.671 130.414,283.504 130.5,284.5C 124.237,289.349 120.237,295.683 118.5,303.5C 117.655,304.671 116.989,306.005 116.5,307.5C 115.609,308.11 114.609,308.443 113.5,308.5C 113.454,301.728 113.954,295.061 115,288.5C 109.333,295.833 103.667,303.167 98,310.5C 98.6936,301.373 100.027,292.373 102,283.5C 96.0319,290.469 89.6986,297.136 83,303.5C 82.3861,297.033 83.8861,291.033 87.5,285.5C 87.3333,285.167 87.1667,284.833 87,284.5C 81.8592,289.614 78.6925,295.781 77.5,303C 77.7485,306.082 79.4151,307.582 82.5,307.5C 78.3765,322.54 74.0432,337.54 69.5,352.5C 69.8333,352.833 70.1667,353.167 70.5,353.5C 75.7637,337.542 80.9304,321.542 86,305.5C 89.3493,302.318 92.516,298.985 95.5,295.5C 95.8333,296 96.1667,296.5 96.5,297C 94.9824,303.737 94.1491,310.57 94,317.5C 90.6875,327.753 88.0208,338.086 86,348.5C 90.0546,337.67 93.7212,326.67 97,315.5C 101.749,311.422 105.749,306.755 109,301.5C 109.498,304.817 109.665,308.15 109.5,311.5C 98.5637,328.812 93.5637,347.812 94.5,368.5C 91.0252,374.103 87.5252,379.769 84,385.5C 81.9746,387.879 79.4746,388.713 76.5,388C 75.9415,387.275 75.6082,386.442 75.5,385.5C 78.1383,377.95 79.9716,370.283 81,362.5C 78.6119,372.449 73.7785,380.949 66.5,388C 64.6547,389.128 62.6547,389.628 60.5,389.5C 60.3367,387.143 60.5034,384.81 61,382.5C 63.4406,375.194 65.4406,367.861 67,360.5C 63.5883,367.658 59.9216,374.658 56,381.5C 53.8345,384.507 51.0011,386.507 47.5,387.5C 45.8333,387.167 44.8333,386.167 44.5,384.5C 47.8671,375.57 50.7005,366.57 53,357.5C 49.2384,364.258 44.4051,370.091 38.5,375C 25.0058,381.405 22.8391,379.239 32,368.5C 35.6667,360.5 39.3333,352.5 43,344.5C 46.9985,328.51 50.9985,312.51 55,296.5C 59.4692,278.388 67.9692,262.555 80.5,249C 86.1957,245.743 91.8624,245.743 97.5,249C 106.25,260.917 117.917,268.084 132.5,270.5 Z"/></g>
<g><path style="opacity:0.993" fill="#76808f" d="M 142.5,247.5 C 161.719,249.541 174.219,259.874 180,278.5C 183.773,288.996 181.273,297.33 172.5,303.5C 167.303,303.909 162.303,303.242 157.5,301.5C 158.419,298.911 160.086,296.911 162.5,295.5C 168.28,296.425 171.613,293.759 172.5,287.5C 172.526,276.213 167.859,267.546 158.5,261.5C 153.796,257.601 148.463,256.601 142.5,258.5C 140.054,260.761 139.054,263.595 139.5,267C 139.547,269.295 140.213,271.129 141.5,272.5C 139.777,274.218 137.777,275.551 135.5,276.5C 134.87,274.25 133.87,272.25 132.5,270.5C 132.276,266.821 131.942,263.154 131.5,259.5C 134.241,257.025 136.241,254.025 137.5,250.5C 139.332,249.752 140.999,248.752 142.5,247.5 Z"/></g>
<g><path style="opacity:1" fill="#0d0d0c" d="M 158.5,261.5 C 153.601,262.283 149.601,264.617 146.5,268.5C 145.167,269.167 144.167,270.167 143.5,271.5C 142.833,271.833 142.167,272.167 141.5,272.5C 140.213,271.129 139.547,269.295 139.5,267C 139.054,263.595 140.054,260.761 142.5,258.5C 148.463,256.601 153.796,257.601 158.5,261.5 Z"/></g>
<g><path style="opacity:1" fill="#a5acbd" d="M 158.5,261.5 C 167.859,267.546 172.526,276.213 172.5,287.5C 170.999,288.752 169.332,289.752 167.5,290.5C 167.383,283.766 164.717,278.266 159.5,274C 155.045,272.029 150.712,270.195 146.5,268.5C 149.601,264.617 153.601,262.283 158.5,261.5 Z"/></g>
<g><path style="opacity:1" fill="#9a4e1b" d="M 304.5,263.5 C 305.675,263.281 306.675,263.614 307.5,264.5C 302.868,269.092 297.868,269.592 292.5,266C 296.609,265.056 300.609,264.222 304.5,263.5 Z"/></g>
<g><path style="opacity:0.998" fill="#7a8494" d="M 146.5,268.5 C 150.712,270.195 155.045,272.029 159.5,274C 164.717,278.266 167.383,283.766 167.5,290.5C 166.833,290.833 166.167,291.167 165.5,291.5C 164.174,278.468 156.841,271.801 143.5,271.5C 144.167,270.167 145.167,269.167 146.5,268.5 Z"/></g>
<g><path style="opacity:1" fill="#a8afc0" d="M 135.5,276.5 C 137.777,275.551 139.777,274.218 141.5,272.5C 142.167,272.167 142.833,271.833 143.5,271.5C 156.841,271.801 164.174,278.468 165.5,291.5C 164.5,292.833 163.5,294.167 162.5,295.5C 160.086,296.911 158.419,298.911 157.5,301.5C 155.716,301.893 154.05,302.559 152.5,303.5C 150.508,295.67 145.508,290.504 137.5,288C 135.19,287.503 132.857,287.337 130.5,287.5C 130.5,286.5 130.5,285.5 130.5,284.5C 130.414,283.504 130.748,282.671 131.5,282C 117.545,282.016 105.211,277.683 94.5,269C 92.8333,268.333 91.1667,268.333 89.5,269C 83.8212,275.021 79.3212,281.854 76,289.5C 70.6902,305.407 65.6902,321.407 61,337.5C 63.5455,316.656 69.2122,296.656 78,277.5C 81.0566,271.609 85.5566,267.276 91.5,264.5C 98.3405,269.423 105.674,273.59 113.5,277C 120.017,279.21 126.684,279.876 133.5,279C 134.756,278.583 135.423,277.75 135.5,276.5 Z"/></g>
<g><path style="opacity:1" fill="#acb3c3" d="M 113.5,308.5 C 112.564,309.974 111.23,310.974 109.5,311.5C 109.665,308.15 109.498,304.817 109,301.5C 105.749,306.755 101.749,311.422 97,315.5C 93.7212,326.67 90.0546,337.67 86,348.5C 88.0208,338.086 90.6875,327.753 94,317.5C 94.1491,310.57 94.9824,303.737 96.5,297C 96.1667,296.5 95.8333,296 95.5,295.5C 92.516,298.985 89.3493,302.318 86,305.5C 80.9304,321.542 75.7637,337.542 70.5,353.5C 70.1667,353.167 69.8333,352.833 69.5,352.5C 74.0432,337.54 78.3765,322.54 82.5,307.5C 79.4151,307.582 77.7485,306.082 77.5,303C 78.6925,295.781 81.8592,289.614 87,284.5C 87.1667,284.833 87.3333,285.167 87.5,285.5C 83.8861,291.033 82.3861,297.033 83,303.5C 89.6986,297.136 96.0319,290.469 102,283.5C 100.027,292.373 98.6936,301.373 98,310.5C 103.667,303.167 109.333,295.833 115,288.5C 113.954,295.061 113.454,301.728 113.5,308.5 Z"/></g>
<g><path style="opacity:0.994" fill="#7c8595" d="M 130.5,284.5 C 130.5,285.5 130.5,286.5 130.5,287.5C 132.857,287.337 135.19,287.503 137.5,288C 145.508,290.504 150.508,295.67 152.5,303.5C 152.672,304.492 152.338,305.158 151.5,305.5C 150.195,298.691 146.195,294.191 139.5,292C 136.724,290.963 133.89,290.13 131,289.5C 128.849,289.643 127.182,290.643 126,292.5C 123.637,296.345 121.137,300.011 118.5,303.5C 120.237,295.683 124.237,289.349 130.5,284.5 Z"/></g>
<g><path style="opacity:1" fill="#131212" d="M 172.5,287.5 C 171.613,293.759 168.28,296.425 162.5,295.5C 163.5,294.167 164.5,292.833 165.5,291.5C 166.167,291.167 166.833,290.833 167.5,290.5C 169.332,289.752 170.999,288.752 172.5,287.5 Z"/></g>
<g><path style="opacity:1" fill="#a7aebf" d="M 151.5,305.5 C 150.833,307.167 150.167,308.833 149.5,310.5C 148.326,311.514 147.66,312.847 147.5,314.5C 138.229,307.711 127.896,305.378 116.5,307.5C 116.989,306.005 117.655,304.671 118.5,303.5C 121.137,300.011 123.637,296.345 126,292.5C 127.182,290.643 128.849,289.643 131,289.5C 133.89,290.13 136.724,290.963 139.5,292C 146.195,294.191 150.195,298.691 151.5,305.5 Z"/></g>
<g><path style="opacity:0.982" fill="#94471c" d="M 384.5,291.5 C 384.392,293.783 383.559,295.783 382,297.5C 369.048,314.787 355.715,331.787 342,348.5C 337.631,353.037 333.131,357.37 328.5,361.5C 328.5,359.833 328.5,358.167 328.5,356.5C 332.544,353.457 335.877,349.791 338.5,345.5C 339.695,345.134 340.361,344.301 340.5,343C 339.594,338.616 338.094,334.449 336,330.5C 333.005,327.735 329.505,326.902 325.5,328C 315.246,329.647 305.246,331.813 295.5,334.5C 294.833,334.5 294.167,334.5 293.5,334.5C 278.319,337.361 263.319,340.861 248.5,345C 243.17,350.154 238.836,355.987 235.5,362.5C 236.938,368.159 238.938,373.493 241.5,378.5C 245.466,377.838 249.466,377.505 253.5,377.5C 253.5,380.833 253.5,384.167 253.5,387.5C 229.102,394.35 204.769,400.35 180.5,405.5C 204.239,380.765 227.239,355.432 249.5,329.5C 294.351,316.37 339.351,303.703 384.5,291.5 Z"/></g>
<g><path style="opacity:0.987" fill="#778190" d="M 147.5,314.5 C 148.291,317.789 148.958,321.122 149.5,324.5C 148.39,338.142 147.723,351.808 147.5,365.5C 147.547,371.194 145.547,376.027 141.5,380C 148.392,392.176 147.725,404.01 139.5,415.5C 136.923,414.057 134.59,412.39 132.5,410.5C 135.066,405.3 136.733,399.8 137.5,394C 136.019,385.534 131.019,382.201 122.5,384C 114.948,388.607 112.615,395.107 115.5,403.5C 118.981,411.758 116.315,415.092 107.5,413.5C 106.557,405.519 106.39,397.519 107,389.5C 110.633,381.02 116.8,375.687 125.5,373.5C 129.254,374.541 132.92,375.875 136.5,377.5C 137.641,375.579 137.808,373.579 137,371.5C 128.874,364.808 119.707,362.975 109.5,366C 108.167,367 106.833,368 105.5,369C 107.058,369.21 108.391,369.71 109.5,370.5C 104.736,369.51 100.069,370.177 95.5,372.5C 95.5674,371.041 95.2341,369.708 94.5,368.5C 93.5637,347.812 98.5637,328.812 109.5,311.5C 111.23,310.974 112.564,309.974 113.5,308.5C 114.609,308.443 115.609,308.11 116.5,307.5C 127.896,305.378 138.229,307.711 147.5,314.5 Z"/></g>
<g><path style="opacity:0.947" fill="#e4e6e6" d="M 149.5,310.5 C 155.656,329.459 161.656,348.459 167.5,367.5C 166.177,370.711 164.01,371.711 161,370.5C 159.915,365.563 159.248,360.563 159,355.5C 157.874,359.465 156.874,363.465 156,367.5C 155.208,369.587 154.041,371.421 152.5,373C 151.216,373.684 150.049,373.517 149,372.5C 148.814,369.964 148.314,367.631 147.5,365.5C 147.723,351.808 148.39,338.142 149.5,324.5C 148.958,321.122 148.291,317.789 147.5,314.5C 147.66,312.847 148.326,311.514 149.5,310.5 Z"/></g>
<g><path style="opacity:0.995" fill="#5a6771" d="M 129.5,314.5 C 134.223,313.553 138.056,314.886 141,318.5C 142.141,321.857 140.975,323.857 137.5,324.5C 131.215,323.591 128.549,320.258 129.5,314.5 Z"/></g>
<g><path style="opacity:0.998" fill="#c7a719" d="M 234.5,319.5 C 237.73,319.561 239.563,321.228 240,324.5C 240.738,327.212 240.071,329.545 238,331.5C 233.591,328.53 232.424,324.53 234.5,319.5 Z"/></g>
<g><path style="opacity:1" fill="#0b0906" d="M 338.5,345.5 C 325.791,347.952 313.124,350.618 300.5,353.5C 298.363,347.284 296.696,340.951 295.5,334.5C 305.246,331.813 315.246,329.647 325.5,328C 329.505,326.902 333.005,327.735 336,330.5C 338.094,334.449 339.594,338.616 340.5,343C 340.361,344.301 339.695,345.134 338.5,345.5 Z"/></g>
<g><path style="opacity:1" fill="#0b0906" d="M 293.5,334.5 C 295.358,340.749 297.025,347.082 298.5,353.5C 297.952,355.556 296.786,357.223 295,358.5C 294.508,357.451 294.674,356.451 295.5,355.5C 294.833,355.167 294.167,354.833 293.5,354.5C 280.486,357.269 267.486,360.103 254.5,363C 249.262,367.405 244.929,372.571 241.5,378.5C 238.938,373.493 236.938,368.159 235.5,362.5C 238.836,355.987 243.17,350.154 248.5,345C 263.319,340.861 278.319,337.361 293.5,334.5 Z"/></g>
<g><path style="opacity:0.983" fill="#a6adbe" d="M 328.5,356.5 C 328.5,358.167 328.5,359.833 328.5,361.5C 328.388,371.509 328.055,381.509 327.5,391.5C 322.061,386.721 316.394,386.387 310.5,390.5C 309.53,379.175 309.53,367.842 310.5,356.5C 316.131,353.923 322.131,352.256 328.5,351.5C 328.5,353.167 328.5,354.833 328.5,356.5 Z"/></g>
<g><path style="opacity:1" fill="#56626c" d="M 293.5,334.5 C 294.167,334.5 294.833,334.5 295.5,334.5C 296.696,340.951 298.363,347.284 300.5,353.5C 313.124,350.618 325.791,347.952 338.5,345.5C 335.877,349.791 332.544,353.457 328.5,356.5C 328.5,354.833 328.5,353.167 328.5,351.5C 322.131,352.256 316.131,353.923 310.5,356.5C 305.126,357.235 300.293,359.235 296,362.5C 295.505,364.473 295.338,366.473 295.5,368.5C 293.167,368.5 290.833,368.5 288.5,368.5C 289.716,366.52 290.549,364.52 291,362.5C 289.647,363.685 288.48,365.019 287.5,366.5C 286.548,364.955 286.215,363.288 286.5,361.5C 281.586,361.362 276.919,362.028 272.5,363.5C 266.308,363.636 260.475,364.969 255,367.5C 254.821,371.025 254.321,374.359 253.5,377.5C 249.466,377.505 245.466,377.838 241.5,378.5C 244.929,372.571 249.262,367.405 254.5,363C 267.486,360.103 280.486,357.269 293.5,354.5C 294.167,354.833 294.833,355.167 295.5,355.5C 294.674,356.451 294.508,357.451 295,358.5C 296.786,357.223 297.952,355.556 298.5,353.5C 297.025,347.082 295.358,340.749 293.5,334.5 Z"/></g>
<g><path style="opacity:0.978" fill="#0a0908" d="M 310.5,356.5 C 309.53,367.842 309.53,379.175 310.5,390.5C 316.394,386.387 322.061,386.721 327.5,391.5C 328.558,392.6 329.392,393.934 330,395.5C 330.499,400.155 330.666,404.821 330.5,409.5C 328.5,411.972 326.167,414.138 323.5,416C 320.544,417.663 317.544,417.829 314.5,416.5C 312.124,414.126 309.957,411.46 308,408.5C 304.347,407.144 301.347,408.144 299,411.5C 296.997,414.703 295.497,418.036 294.5,421.5C 294.083,406.676 294.083,391.676 294.5,376.5C 295.473,374.052 295.806,371.385 295.5,368.5C 295.338,366.473 295.505,364.473 296,362.5C 300.293,359.235 305.126,357.235 310.5,356.5 Z"/></g>
<g><path style="opacity:0.98" fill="#0b0a08" d="M 288.5,368.5 C 286.84,371.77 286.506,375.103 287.5,378.5C 286.956,394.5 285.956,410.5 284.5,426.5C 283.614,421.03 281.281,416.196 277.5,412C 271.835,409.494 267.501,410.994 264.5,416.5C 261.531,417.329 258.531,417.495 255.5,417C 253.297,414.628 250.963,412.461 248.5,410.5C 248.334,405.821 248.501,401.155 249,396.5C 250.012,393.798 251.512,391.465 253.5,389.5C 259.87,386.284 265.537,387.284 270.5,392.5C 271.216,382.805 271.883,373.139 272.5,363.5C 276.919,362.028 281.586,361.362 286.5,361.5C 286.215,363.288 286.548,364.955 287.5,366.5C 288.48,365.019 289.647,363.685 291,362.5C 290.549,364.52 289.716,366.52 288.5,368.5 Z"/></g>
<g><path style="opacity:0.998" fill="#a5acbc" d="M 272.5,363.5 C 271.883,373.139 271.216,382.805 270.5,392.5C 265.537,387.284 259.87,386.284 253.5,389.5C 253.5,388.833 253.5,388.167 253.5,387.5C 253.5,384.167 253.5,380.833 253.5,377.5C 254.321,374.359 254.821,371.025 255,367.5C 260.475,364.969 266.308,363.636 272.5,363.5 Z"/></g>
<g><path style="opacity:1" fill="#0e0e0d" d="M 125.5,373.5 C 120.355,371.548 115.022,370.548 109.5,370.5C 108.391,369.71 107.058,369.21 105.5,369C 106.833,368 108.167,367 109.5,366C 119.707,362.975 128.874,364.808 137,371.5C 137.808,373.579 137.641,375.579 136.5,377.5C 132.92,375.875 129.254,374.541 125.5,373.5 Z"/></g>
<g><path style="opacity:0.968" fill="#8f451b" d="M 288.5,368.5 C 290.833,368.5 293.167,368.5 295.5,368.5C 295.806,371.385 295.473,374.052 294.5,376.5C 291.99,376.927 289.657,377.593 287.5,378.5C 286.506,375.103 286.84,371.77 288.5,368.5 Z"/></g>
<g><path style="opacity:0.967" fill="#a7aebf" d="M 109.5,370.5 C 115.022,370.548 120.355,371.548 125.5,373.5C 116.8,375.687 110.633,381.02 107,389.5C 106.39,397.519 106.557,405.519 107.5,413.5C 102.068,411.285 96.7345,408.785 91.5,406C 89.1064,404.048 87.6064,401.548 87,398.5C 85.1664,388.169 87.9997,379.502 95.5,372.5C 100.069,370.177 104.736,369.51 109.5,370.5 Z"/></g>
<g><path style="opacity:0.996" fill="#f9b30c" d="M 184.5,375.5 C 187.238,374.965 189.072,375.965 190,378.5C 190.777,381.429 190.61,384.263 189.5,387C 186.702,387.561 184.869,386.394 184,383.5C 183.398,380.779 183.565,378.113 184.5,375.5 Z"/></g>
<g><path style="opacity:0.979" fill="#0b0a08" d="M 132.5,410.5 C 126.73,408.449 121.063,406.116 115.5,403.5C 112.615,395.107 114.948,388.607 122.5,384C 131.019,382.201 136.019,385.534 137.5,394C 136.733,399.8 135.066,405.3 132.5,410.5 Z"/></g>
<g><path style="opacity:0.991" fill="#768090" d="M 314.5,416.5 C 313.837,418.641 313.503,420.975 313.5,423.5C 314.174,437.345 315.174,451.012 316.5,464.5C 315.013,465.804 313.346,466.97 311.5,468C 305.185,469.239 299.185,471.072 293.5,473.5C 292.883,473.389 292.383,473.056 292,472.5C 291.36,474.265 291.527,475.932 292.5,477.5C 291.314,478.705 291.314,480.039 292.5,481.5C 292.167,481.5 291.833,481.5 291.5,481.5C 289.379,481.325 287.379,481.659 285.5,482.5C 279.643,480.606 273.643,478.773 267.5,477C 264.609,475.726 261.942,474.226 259.5,472.5C 262.368,454.093 264.035,435.427 264.5,416.5C 267.501,410.994 271.835,409.494 277.5,412C 281.281,416.196 283.614,421.03 284.5,426.5C 286.184,434.087 287.684,441.753 289,449.5C 291.157,440.226 292.99,430.893 294.5,421.5C 295.497,418.036 296.997,414.703 299,411.5C 301.347,408.144 304.347,407.144 308,408.5C 309.957,411.46 312.124,414.126 314.5,416.5 Z"/></g>
<g><path style="opacity:0.977" fill="#a7aebf" d="M 248.5,410.5 C 250.963,412.461 253.297,414.628 255.5,417C 258.531,417.495 261.531,417.329 264.5,416.5C 264.035,435.427 262.368,454.093 259.5,472.5C 257.833,471.5 256.5,470.167 255.5,468.5C 249.727,458.723 243.06,458.056 235.5,466.5C 238.58,447.415 242.913,428.749 248.5,410.5 Z"/></g>
<g><path style="opacity:0.976" fill="#a7aebf" d="M 330.5,409.5 C 332.992,426.29 335.992,442.957 339.5,459.5C 332.326,451.203 325.993,451.869 320.5,461.5C 319.205,462.488 317.872,463.488 316.5,464.5C 315.174,451.012 314.174,437.345 313.5,423.5C 313.503,420.975 313.837,418.641 314.5,416.5C 317.544,417.829 320.544,417.663 323.5,416C 326.167,414.138 328.5,411.972 330.5,409.5 Z"/></g>
<g><path style="opacity:0.99" fill="#5a6670" d="M 339.5,459.5 C 339.5,460.5 339.5,461.5 339.5,462.5C 335.792,461.066 331.959,460.066 328,459.5C 325.225,459.409 322.725,460.076 320.5,461.5C 325.993,451.869 332.326,451.203 339.5,459.5 Z"/></g>
<g><path style="opacity:1" fill="#a3abbc" d="M 297.5,455.5 C 299.911,455.137 301.411,456.137 302,458.5C 303.168,461.893 302.334,464.559 299.5,466.5C 298.522,466.023 297.689,465.357 297,464.5C 296.366,461.445 296.532,458.445 297.5,455.5 Z"/></g>
<g><path style="opacity:0.994" fill="#0c0b09" d="M 339.5,462.5 C 343.167,465.5 346.5,468.833 349.5,472.5C 351.898,475.571 353.898,478.905 355.5,482.5C 348.525,487.11 340.858,488.61 332.5,487C 318.882,484.186 305.882,479.686 293.5,473.5C 299.185,471.072 305.185,469.239 311.5,468C 313.346,466.97 315.013,465.804 316.5,464.5C 317.872,463.488 319.205,462.488 320.5,461.5C 322.725,460.076 325.225,459.409 328,459.5C 331.959,460.066 335.792,461.066 339.5,462.5 Z"/></g>
<g><path style="opacity:0.981" fill="#596670" d="M 255.5,468.5 C 252.512,467.839 249.512,467.172 246.5,466.5C 242.474,467.521 238.474,468.521 234.5,469.5C 234.557,468.391 234.89,467.391 235.5,466.5C 243.06,458.056 249.727,458.723 255.5,468.5 Z"/></g>
<g><path style="opacity:1" fill="#a6acbc" d="M 277.5,463.5 C 282.654,464.612 283.82,467.612 281,472.5C 277.661,475.057 275.828,474.057 275.5,469.5C 275.611,467.286 276.278,465.286 277.5,463.5 Z"/></g>
<g><path style="opacity:1" fill="#0b0a07" d="M 255.5,468.5 C 256.5,470.167 257.833,471.5 259.5,472.5C 261.942,474.226 264.609,475.726 267.5,477C 273.643,478.773 279.643,480.606 285.5,482.5C 271.947,488.295 257.947,492.795 243.5,496C 233.873,497.746 224.873,496.246 216.5,491.5C 221.09,483.582 226.757,476.582 233.5,470.5C 233.5,469.833 233.833,469.5 234.5,469.5C 238.474,468.521 242.474,467.521 246.5,466.5C 249.512,467.172 252.512,467.839 255.5,468.5 Z"/></g>
<g><path style="opacity:0.957" fill="#c4a51a" d="M 233.5,470.5 C 226.757,476.582 221.09,483.582 216.5,491.5C 216.5,492.833 216.5,494.167 216.5,495.5C 215.031,498.102 215.698,500.269 218.5,502C 220.769,504.023 223.436,504.856 226.5,504.5C 226.5,504.833 226.5,505.167 226.5,505.5C 208.947,504.075 191.614,501.241 174.5,497C 170.793,496.064 167.626,494.231 165,491.5C 164.333,489.5 164.333,487.5 165,485.5C 172.043,479.397 180.21,475.563 189.5,474C 204.029,471.179 218.696,470.013 233.5,470.5 Z"/></g>
<g><path style="opacity:0.958" fill="#c2a419" d="M 349.5,472.5 C 359.952,473.131 370.285,474.631 380.5,477C 385.529,478.229 390.196,480.229 394.5,483C 399.833,487 399.833,491 394.5,495C 384.68,499.706 374.347,502.706 363.5,504C 317.742,509.309 272.076,509.809 226.5,505.5C 226.5,505.167 226.5,504.833 226.5,504.5C 248.32,504.712 268.986,499.879 288.5,490C 290.607,488.736 291.607,486.903 291.5,484.5C 291.5,483.5 291.5,482.5 291.5,481.5C 291.833,481.5 292.167,481.5 292.5,481.5C 308.712,490.386 326.046,494.886 344.5,495C 348.405,494.392 352.072,493.225 355.5,491.5C 356.246,490.264 356.579,488.93 356.5,487.5C 356.634,485.708 356.301,484.042 355.5,482.5C 353.898,478.905 351.898,475.571 349.5,472.5 Z"/></g>
<g><path style="opacity:1" fill="#e4e3dc" d="M 293.5,473.5 C 305.882,479.686 318.882,484.186 332.5,487C 340.858,488.61 348.525,487.11 355.5,482.5C 356.301,484.042 356.634,485.708 356.5,487.5C 348.878,491.075 340.878,492.242 332.5,491C 318.851,487.337 305.517,482.837 292.5,477.5C 291.527,475.932 291.36,474.265 292,472.5C 292.383,473.056 292.883,473.389 293.5,473.5 Z"/></g>
<g><path style="opacity:1" fill="#15120b" d="M 292.5,477.5 C 305.517,482.837 318.851,487.337 332.5,491C 340.878,492.242 348.878,491.075 356.5,487.5C 356.579,488.93 356.246,490.264 355.5,491.5C 352.072,493.225 348.405,494.392 344.5,495C 326.046,494.886 308.712,490.386 292.5,481.5C 291.314,480.039 291.314,478.705 292.5,477.5 Z"/></g>
<g><path style="opacity:1" fill="#e5e4de" d="M 291.5,481.5 C 291.5,482.5 291.5,483.5 291.5,484.5C 276.672,491.076 261.339,496.243 245.5,500C 239.167,500.667 232.833,500.667 226.5,500C 222.73,499.278 219.397,497.778 216.5,495.5C 216.5,494.167 216.5,492.833 216.5,491.5C 224.873,496.246 233.873,497.746 243.5,496C 257.947,492.795 271.947,488.295 285.5,482.5C 287.379,481.659 289.379,481.325 291.5,481.5 Z"/></g>
<g><path style="opacity:1" fill="#14120f" d="M 291.5,484.5 C 291.607,486.903 290.607,488.736 288.5,490C 268.986,499.879 248.32,504.712 226.5,504.5C 223.436,504.856 220.769,504.023 218.5,502C 215.698,500.269 215.031,498.102 216.5,495.5C 219.397,497.778 222.73,499.278 226.5,500C 232.833,500.667 239.167,500.667 245.5,500C 261.339,496.243 276.672,491.076 291.5,484.5 Z"/></g>
</svg>
