<svg xmlns="http://www.w3.org/2000/svg" viewBox="0 0 32 32"><title>file_type_typescriptdef@2x</title><g id="typescriptdef"><path d="M24.08,8.94a4.26,4.26,0,0,1,2.14,1.23,5.63,5.63,0,0,1,.82,1.1s-1.48,1-2.38,1.6c0,0-.16-.12-.31-.34a1.94,1.94,0,0,0-1.61-1c-1-.07-1.71.47-1.7,1.38a1.25,1.25,0,0,0,.15.64c.23.47.65.75,2,1.33,2.45,1.05,3.5,1.75,4.15,2.74a5,5,0,0,1,.4,4.17,4.59,4.59,0,0,1-3.79,2.71,10.49,10.49,0,0,1-2.61,0,6.29,6.29,0,0,1-3.48-1.81A6,6,0,0,1,17,21.37a2.56,2.56,0,0,1,.31-.2l1.27-.73,1-.57.21.3A4.59,4.59,0,0,0,21,21.42a3.18,3.18,0,0,0,3.33-.17,1.49,1.49,0,0,0,.19-1.9c-.27-.38-.81-.7-2.35-1.37A8.47,8.47,0,0,1,19,16,4.51,4.51,0,0,1,18,14.29,6.85,6.85,0,0,1,18,12.11a4.17,4.17,0,0,1,3.51-3.25A8.67,8.67,0,0,1,24.08,8.94Zm-8,1.43v1.4H11.6V24.42H8.45V11.77H4V10.39A13.46,13.46,0,0,1,4,9s2.73,0,6,0l6,0Z" style="fill:#00a23c"/></g></svg>