<svg viewBox="0 0 960 960" xmlns="http://www.w3.org/2000/svg"><defs><clipPath id="prefix__b"><path d="M0 961.362h962.972V0H0z" fill="none"/></clipPath><clipPath id="prefix__c" clip-path="url(#prefix__a)"><path d="M-32768-32768h65535v65535h-65535z"/></clipPath><clipPath id="prefix__a"><path d="M863.843 625.615c17.602-46.23 26.527-94.993 26.527-144.933 0-180.916-116.369-337.831-289.571-390.466l19.227-63.261c201.248 61.157 336.46 243.496 336.46 453.727 0 58.01-10.378 114.687-30.85 168.459z" fill="none"/></clipPath><clipPath id="prefix__e"><path d="M0 961.362h962.972V0H0z" fill="none"/></clipPath><clipPath id="prefix__f"><path d="M6.486 480.682c0-57.552 10.222-113.815 30.382-167.229l61.861 23.349c-17.336 45.925-26.127 94.332-26.127 143.88 0 210.828 158.257 385.408 368.121 406.09l-6.486 65.801C190.379 928.54 6.486 725.672 6.486 480.682" fill="none"/></clipPath><clipPath id="prefix__h"><path d="M0 961.362h962.972V0H0z" fill="none"/></clipPath><clipPath id="prefix__i"><path d="M24.802 349.827c58-202.123 245.706-343.298 456.492-343.352h.12v.004c6.616 0 13.206.133 19.762.403 33.949 1.397 64.247 22.699 77.172 54.215l18.843 45.725-66.093 13.153-13.903-33.736c-3.174-7.741-10.527-12.955-18.733-13.294a416.495 416.495 0 00-17.061-.35C299.9 72.599 138.273 194.098 88.353 368.066z" fill="none"/></clipPath><linearGradient id="prefix__d" gradientUnits="userSpaceOnUse" x1="0" y1="0" x2="1" y2="0"><stop offset="0" stop-color="#69d3a7"/><stop offset=".1" stop-color="#69d3a7" stop-opacity=".9"/><stop offset=".2" stop-color="#69d3a7" stop-opacity=".8"/><stop offset=".3" stop-color="#69d3a7" stop-opacity=".7"/><stop offset=".4" stop-color="#69d3a7" stop-opacity=".6"/><stop offset=".5" stop-color="#69d3a7" stop-opacity=".5"/><stop offset=".6" stop-color="#69d3a7" stop-opacity=".4"/><stop offset=".7" stop-color="#69d3a7" stop-opacity=".3"/><stop offset=".8" stop-color="#69d3a7" stop-opacity=".2"/><stop offset=".9" stop-color="#69d3a7" stop-opacity=".1"/><stop offset="1" stop-color="#69d3a7" stop-opacity="0"/></linearGradient><linearGradient id="prefix__g" gradientUnits="userSpaceOnUse" x1="0" y1="0" x2="1" y2="0"><stop offset="0" stop-color="#69d3a7"/><stop offset=".1" stop-color="#62d0a3"/><stop offset=".2" stop-color="#5bcca0"/><stop offset=".3" stop-color="#53c89c"/><stop offset=".4" stop-color="#4bc598"/><stop offset=".5" stop-color="#44c194"/><stop offset=".6" stop-color="#3cbd90"/><stop offset=".7" stop-color="#34ba8b"/><stop offset=".8" stop-color="#2cb687"/><stop offset=".9" stop-color="#24b283"/><stop offset="1" stop-color="#1cae7f"/></linearGradient><linearGradient id="prefix__j" gradientUnits="userSpaceOnUse" x1="0" y1="0" x2="1" y2="0"><stop offset="0" stop-color="#1cae7f"/><stop offset=".1" stop-color="#1cac7e"/><stop offset=".2" stop-color="#1c9d75"/><stop offset=".3" stop-color="#1c896a"/><stop offset=".4" stop-color="#1c725d"/><stop offset=".5" stop-color="#1b5a50"/><stop offset=".6" stop-color="#1b3f41"/><stop offset=".7" stop-color="#1b2331"/><stop offset=".8" stop-color="#1b1e2e"/><stop offset=".9" stop-color="#1b1e2e"/><stop offset="1" stop-color="#1b1e2e"/></linearGradient></defs><circle cx="482" cy="480" r="473" fill="#fff" opacity=".8"/><g transform="matrix(1 0 0 -1 0 961.362)" clip-path="url(#prefix__b)"><path d="M340.433 578.553c38.36 0 69.567-20.464 85.614-56.147l1.245-2.769 64.367 21.894-1.349 3.291c-24.93 60.782-82.361 98.538-149.877 98.538-47.493 0-86.081-15.209-117.979-46.492-31.669-31.06-47.727-70.165-47.727-116.227 0-45.66 16.058-84.559 47.727-115.619 31.892-31.283 70.481-46.492 117.979-46.492 67.522 0 124.947 37.756 149.877 98.533l1.349 3.29-64.465 21.928-1.196-2.905c-14.377-35.096-46.362-56.044-85.565-56.044-26.697 0-49.277 9.329-67.114 27.736-18.053 18.647-27.208 42.053-27.208 69.573 0 27.719 8.915 50.686 27.208 70.17 17.837 18.413 40.417 27.742 67.114 27.742" fill="#1b1e2e"/></g><g transform="matrix(1 0 0 -1 0 961.362)" clip-path="url(#prefix__c)"><path d="M-.47-.761h2.634v2.633H-.47z" transform="scale(-505.25761 505.25761) rotate(-32.922 .617 3.798)" fill="url(#prefix__d)"/></g><g transform="matrix(1 0 0 -1 0 961.362)" clip-path="url(#prefix__e)"><path d="M872.543 600.27c-52.898 172.559-210.028 288.496-390.994 288.496-24.591 0-49.211-2.19-73.18-6.511l-11.73 65.069c27.829 5.018 56.396 7.562 84.91 7.562 210.206 0 392.737-134.721 454.21-335.236z" fill="#69d3a7"/></g><g transform="matrix(1 0 0 -1 0 961.362)" clip-path="url(#prefix__f)"><path d="M-.455-1.574h2.049l.33 1.686-2.379.364v-2.05z" transform="scale(-624.77188 624.77188) rotate(-64.756 .939 1.168)" fill="url(#prefix__g)"/></g><g transform="matrix(1 0 0 -1 0 961.362)" clip-path="url(#prefix__h)"><path d="M743.74 637.367l-91.781-232.418-92.371 232.418h-75.56l129.559-317.24-94.364-228.966 66.093-13.153 229.815 559.359z" fill="#1b1e2e"/></g><g transform="matrix(1 0 0 -1 0 961.362)" clip-path="url(#prefix__i)"><path d="M-.293-1.301h1.648V.345H-.293z" transform="scale(732.26489 -732.26489) rotate(17.424 1.178 -.154)" fill="url(#prefix__j)"/></g></svg>