<svg viewBox="0 0 32 32" xmlns="http://www.w3.org/2000/svg" xmlns:xlink="http://www.w3.org/1999/xlink"><radialGradient id="a" cx="22.737" cy="22.737" gradientTransform="matrix(.14780941 -.98901586 1.05923599 .15830388 -4.708 41.626)" gradientUnits="userSpaceOnUse" r="3.628"><stop offset="0" stop-color="#bedcdc"/><stop offset=".5" stop-color="#8e9e9e" stop-opacity=".74"/><stop offset="1" stop-color="#404f5c" stop-opacity=".84"/></radialGradient><radialGradient id="b" cx="11.336" cy="11.336" gradientTransform="matrix(.14780941 -.98901586 1.05923599 .15830388 -2.347 20.753)" r="5.201" xlink:href="#a"/><path d="m24.811 27.318 2.404-2.404 1.202 2.404-1.202 1.202z" fill="#c0c0c0"/><path d="m20.964 27.443h3.401l-.85 2.55h-1.7z" fill="#c0c0c0"/><path d="m18.157 24.811 2.404 2.404-2.404 1.202-1.203-1.202z" fill="#c0c0c0"/><path d="m18.032 20.964v3.401l-2.55-.85v-1.7z" fill="#c0c0c0"/><path d="m20.664 18.157-2.404 2.404-1.202-2.404 1.202-1.203z" fill="#c0c0c0"/><path d="m24.51 18.032h-3.4l.85-2.55h1.7z" fill="#c0c0c0"/><path d="m27.318 20.664-2.404-2.404 2.404-1.202 1.202 1.202z" fill="#c0c0c0"/><path d="m27.443 24.51v-3.4l2.55.85v1.7z" fill="#c0c0c0"/><path d="m27.776 22.737a5.039 5.039 0 1 1 -1.476-3.562 5.023 5.023 0 0 1 1.476 3.562zm-5.039-1.9a1.9 1.9 0 1 0 1.344.557 1.894 1.894 0 0 0 -1.344-.557z" fill="#c0c0c0"/><path d="m22.656 18.074a4.664 4.664 0 1 0 4.744 4.582 4.664 4.664 0 0 0 -4.744-4.582zm.15 8.61a3.947 3.947 0 1 1 3.877-4.015 3.947 3.947 0 0 1 -3.877 4.015z" fill="#a9a9a9"/><path d="m22.674 19.11a3.628 3.628 0 1 0 3.69 3.564 3.628 3.628 0 0 0 -3.69-3.564zm.1 5.7a2.073 2.073 0 1 1 2.037-2.11 2.073 2.073 0 0 1 -2.037 2.11z" fill="url(#a)"/><path d="m22.7 20.665a2.073 2.073 0 1 0 2.11 2.035 2.073 2.073 0 0 0 -2.11-2.035zm.067 3.826a1.754 1.754 0 1 1 1.723-1.784 1.754 1.754 0 0 1 -1.722 1.784z" fill="#a9a9a9"/><g fill="#c0c0c0"><path d="m6.563 16.976 2.275 1.262-1.464 1.568-1.365-.757z"/><path d="m4.382 13.834 1.34 2.23-2.052.626-.804-1.338z"/><path d="m4.065 10.023.045 2.601-2.09-.484-.027-1.561z"/><path d="m5.696 6.563-1.262 2.275-1.568-1.464.757-1.365z"/><path d="m8.838 4.382-2.23 1.34-.626-2.052 1.338-.804z"/><path d="m12.65 4.065-2.602.045.484-2.09 1.561-.027z"/><path d="m16.109 5.696-2.275-1.262 1.464-1.568 1.365.757z"/><path d="m18.29 8.838-1.34-2.23 2.052-.626.804 1.338z"/><path d="m18.607 12.65-.045-2.602 2.09.484.027 1.561z"/><path d="m16.976 16.109 1.262-2.275 1.568 1.464-.757 1.365z"/><path d="m13.834 18.29 2.23-1.34.626 2.052-1.338.804z"/><path d="m10.023 18.607 2.601-.045-.484 2.09-1.561.027z"/><path d="m11.467 18.831a7.5 7.5 0 1 1 5.261-2.288 7.473 7.473 0 0 1 -5.261 2.288zm2.682-7.544a2.814 2.814 0 1 0 -.789 2 2.8 2.8 0 0 0 .789-2z"/></g><path d="m11.218 4.6a6.737 6.737 0 1 0 6.854 6.619 6.737 6.737 0 0 0 -6.854-6.619zm.217 12.436a5.7 5.7 0 1 1 5.6-5.8 5.7 5.7 0 0 1 -5.599 5.8z" fill="#a9a9a9"/><path d="m11.245 6.136a5.2 5.2 0 1 0 5.29 5.109 5.2 5.2 0 0 0 -5.29-5.109zm.14 8.036a2.837 2.837 0 1 1 2.787-2.886 2.837 2.837 0 0 1 -2.786 2.886z" fill="url(#b)"/><path d="m11.282 8.227a3.109 3.109 0 1 0 3.163 3.055 3.109 3.109 0 0 0 -3.163-3.055zm.1 5.74a2.631 2.631 0 1 1 2.585-2.677 2.631 2.631 0 0 1 -2.585 2.677z" fill="#a9a9a9"/></svg>