<svg xmlns="http://www.w3.org/2000/svg" viewBox="0 0 32 32"><title>file_type_nest_module_ts</title><path d="M18.487,2a1.765,1.765,0,0,0-.564.1,1.6,1.6,0,0,1,.672.943c.007.051.022.087.029.138a.835.835,0,0,1,.015.131c.028.639-.167.719-.3,1.1a1.556,1.556,0,0,0,.1,1.43.9.9,0,0,0,.087.16c-.275-1.837,1.251-2.113,1.533-2.686a1.338,1.338,0,0,0-.716-1.067A1.591,1.591,0,0,0,18.487,2Zm2.3.414a.817.817,0,0,0-.014.21c-.008.058-.008.131-.015.189a1.625,1.625,0,0,1-.05.174,1.791,1.791,0,0,1-.058.175c-.029.058-.051.108-.08.166-.021.03-.036.059-.058.088l-.043.065c-.036.051-.072.1-.108.145a1.081,1.081,0,0,1-.131.131v.007c-.043.036-.086.08-.137.116-.152.116-.325.2-.484.312a1.144,1.144,0,0,0-.145.109,1.1,1.1,0,0,0-.137.116,1.312,1.312,0,0,0-.131.138,1.125,1.125,0,0,0-.108.146,1.74,1.74,0,0,0-.1.152c-.029.058-.051.109-.08.167a1.577,1.577,0,0,0-.058.167c-.021.065-.036.123-.05.181-.008.029-.008.066-.015.095s-.007.058-.014.087c0,.058-.007.123-.007.181a.816.816,0,0,0,.007.131.862.862,0,0,0,.021.182,1.542,1.542,0,0,0,.037.174c.021.058.036.116.057.174.015.036.037.073.051.1l-1.663-.646c-.282-.08-.557-.153-.839-.218l-.455-.109a13.254,13.254,0,0,0-1.316-.2c-.015,0-.022-.007-.037-.007a12.728,12.728,0,0,0-1.294-.066c-.318,0-.636.015-.947.037-.441.029-.882.087-1.324.159-.108.015-.216.037-.325.058-.224.044-.441.095-.651.146l-.325.087c-.109.043-.21.094-.311.138l-.239.108c-.014.008-.029.008-.036.015-.072.036-.137.065-.2.1a.378.378,0,0,0-.051.021c-.079.037-.159.08-.224.117-.051.021-.1.05-.145.072a.447.447,0,0,1-.065.036c-.065.037-.13.073-.188.109a1.946,1.946,0,0,0-.173.109c-.051.037-.1.066-.145.1-.007.007-.014.007-.022.014-.043.029-.094.066-.137.1L7.807,6.8,7.7,6.886c-.014.007-.029.021-.043.029-.036.029-.073.065-.109.094a.089.089,0,0,1-.029.029c-.043.044-.087.08-.13.124-.007,0-.007.007-.014.014-.044.036-.087.08-.13.123-.008.008-.008.015-.015.015-.036.036-.072.073-.108.116-.015.015-.037.029-.051.044-.036.043-.08.087-.123.13-.007.015-.022.022-.029.037-.058.058-.108.116-.166.174l-.022.022a4.419,4.419,0,0,1-.369.355,4.146,4.146,0,0,1-.405.32c-.144.1-.282.188-.433.276a4.559,4.559,0,0,1-.456.217c-.152.066-.311.124-.47.175a8.233,8.233,0,0,1-.882.21,1.6,1.6,0,0,0-.181.022c-.065.014-.123.029-.181.043l-.173.066c-.058.022-.116.051-.174.08s-.108.065-.159.1a1.231,1.231,0,0,0-.145.124,1.271,1.271,0,0,0-.144.13c-.044.051-.087.1-.123.146s-.08.108-.109.167a1.194,1.194,0,0,0-.1.167,1.881,1.881,0,0,0-.079.188c-.022.058-.044.124-.065.189a1.542,1.542,0,0,0-.037.174c0,.008-.007.015-.007.022-.014.065-.014.152-.022.2A1.017,1.017,0,0,0,2,11.35a.435.435,0,0,0,.007.1.821.821,0,0,0,.029.138,1,1,0,0,0,.051.13v.007a1.06,1.06,0,0,0,.079.131,1.524,1.524,0,0,0,.094.131c.036.036.08.08.123.116a1.021,1.021,0,0,0,.138.116,1.685,1.685,0,0,0,.441.32c.036.021.072.036.115.058.008,0,.015.007.022.007a.066.066,0,0,0,.007.036,1.542,1.542,0,0,0,.037.174,1,1,0,0,0,.057.175c.022.043.037.087.058.13a.171.171,0,0,0,.022.037c.029.058.058.108.087.159l.108.153c.036.043.08.094.123.138s.087.08.137.123a.029.029,0,0,0,.015.007,1.447,1.447,0,0,0,.13.1,1.188,1.188,0,0,0,.159.094,1.272,1.272,0,0,0,.166.08.8.8,0,0,0,.145.051c.007.007.015.007.029.015l.094.021a2.884,2.884,0,0,0,.029.893c.065.145.383-.3.7-.806a4.481,4.481,0,0,0,0,1.264c.08.181.514-.385.89-1.009a8.361,8.361,0,0,1,10.3,7.39,1.417,1.417,0,0,0-1.5-1.111,3.786,3.786,0,0,1-1.179,1.655,4.669,4.669,0,0,0-.072-1.452,4.7,4.7,0,0,1-.9,1.83h0a2.017,2.017,0,0,1-1.735-.784c-.029-.022-.036-.066-.058-.095a1.35,1.35,0,0,1-.058-.152.627.627,0,0,1-.043-.153,1.149,1.149,0,0,1-.007-.159V21.3a1.059,1.059,0,0,1,.036-.153,1.348,1.348,0,0,1,.05-.152,1.7,1.7,0,0,1,.087-.153c.123-.348.123-.631-.1-.8a.85.85,0,0,0-.137-.073c-.029-.007-.066-.021-.094-.029s-.037-.014-.058-.022a1.237,1.237,0,0,0-.152-.036.57.57,0,0,0-.152-.022,1.235,1.235,0,0,0-.159-.014c-.036,0-.072.007-.109.007a.55.55,0,0,0-.159.022,1.042,1.042,0,0,0-.152.029,1.118,1.118,0,0,0-.151.051l-.145.065c-.043.022-.087.051-.137.073-1.685,1.1-.68,3.688.47,4.435a3.615,3.615,0,0,0-1,.269l-.015.014a6.833,6.833,0,0,0,.976.487c.463.152.955.29,1.172.348v.008a7,7,0,0,0,1.822.13,6.89,6.89,0,0,0,6.306-5.895c.014.066.029.124.043.189h0c.022.131.051.269.065.407v.007a1.78,1.78,0,0,1,.029.189v.029a1.831,1.831,0,0,1,.014.189,2.377,2.377,0,0,1,.015.239v.116c0,.037.007.08.007.116s-.007.088-.007.131v.1c0,.051-.007.094-.007.145a.4.4,0,0,1-.008.094c0,.051-.007.1-.007.16a.209.209,0,0,0-.007.065c-.007.058-.015.109-.022.167a.212.212,0,0,1-.007.066c-.007.072-.022.138-.029.21v.015c-.014.065-.029.138-.043.2v.022l-.044.2c0,.007-.007.022-.007.029a1.827,1.827,0,0,1-.051.2v.022c-.021.072-.043.138-.057.2a.021.021,0,0,0-.008.014l-.065.218c-.029.073-.05.138-.079.211s-.051.145-.08.21-.058.138-.087.211H18.6c-.029.065-.058.138-.094.2h0a.277.277,0,0,1-.022.051c-.007.007-.007.014-.014.022a6.867,6.867,0,0,1-2.032,2.439h0c-.058.036-.116.08-.173.123h0c-.015.015-.037.022-.051.037-.051.036-.1.072-.159.108l.022.044h.007l.3-.044h.008c.188-.029.376-.065.564-.1a1.349,1.349,0,0,0,.159-.037l.1-.021c.051-.008.1-.022.152-.029s.087-.022.13-.037a13.534,13.534,0,0,0,2.1-.7A11.591,11.591,0,0,1,15.1,30a11.861,11.861,0,0,0,2.465-.428A11.567,11.567,0,0,0,24.4,24.091a11.626,11.626,0,0,1-1.945,4.668,11.389,11.389,0,0,0,1.93-1.612,11.528,11.528,0,0,0,3.045-6.171,11.62,11.62,0,0,1,.209,3.5c5.221-7.311.434-14.89-1.569-16.886-.007-.015-.014-.022-.014-.036-.008.007-.008.007-.008.014s0-.007-.007-.014c0,.087-.007.174-.014.261-.022.167-.044.327-.073.486s-.079.32-.123.479-.108.313-.173.465-.137.3-.217.443-.166.283-.26.414-.2.268-.3.392-.224.247-.34.363c-.072.065-.137.123-.209.181l-.167.145a3.9,3.9,0,0,1-.405.283,4.661,4.661,0,0,1-.426.247c-.152.073-.3.138-.456.2s-.311.108-.47.152-.325.08-.484.109-.333.043-.492.058c-.116.007-.231.014-.347.014-.166,0-.333-.014-.492-.029a4.727,4.727,0,0,1-.976-.2h-.007c.159-.014.318-.029.477-.058s.325-.065.484-.109a4.883,4.883,0,0,0,.471-.152,4.478,4.478,0,0,0,.455-.2c.152-.073.289-.153.434-.24s.275-.189.405-.29a4.1,4.1,0,0,0,.369-.327,3.947,3.947,0,0,0,.34-.356q.162-.195.3-.392c.015-.021.029-.05.044-.072.072-.116.144-.233.209-.349a4.886,4.886,0,0,0,.217-.442c.065-.153.123-.3.174-.465s.087-.312.123-.472.058-.327.072-.486.029-.334.029-.494c0-.116-.007-.232-.015-.348-.014-.167-.036-.327-.057-.487s-.065-.327-.109-.486-.1-.312-.159-.465-.13-.3-.2-.45-.159-.29-.246-.428-.188-.269-.289-.4-.217-.246-.333-.37c-.058-.058-.123-.123-.188-.181-.326-.254-.665-.494-1.005-.712a1.394,1.394,0,0,0-.145-.072,2.762,2.762,0,0,0-.687-.3Z" style="fill:#ea2845;fill-rule:evenodd"/></svg>