<svg viewBox="0 0 32 32" xmlns="http://www.w3.org/2000/svg" xmlns:xlink="http://www.w3.org/1999/xlink"><linearGradient id="a" gradientTransform="matrix(.994 .114 -.114 .994 21.345 -80.478)" gradientUnits="userSpaceOnUse" x1="15.699" x2="15.469" y1="102.24" y2="106.745"><stop offset=".365" stop-color="#961b1e"/><stop offset=".697" stop-color="#961b1e"/></linearGradient><linearGradient id="b" gradientTransform="matrix(.994 .114 -.114 .994 21.345 -80.478)" gradientUnits="userSpaceOnUse" x1="15.297" x2="15.297" y1="103.82" y2="105.61"><stop offset=".326" stop-color="#c0272d"/><stop offset=".82" stop-color="#c0272d"/></linearGradient><linearGradient id="c" gradientTransform="matrix(-1.071 .315 .248 .986 -3724.367 274.118)" x1="-3310.623" x2="-3310.854" xlink:href="#a" y1="803.906" y2="808.435"/><linearGradient id="d" gradientTransform="matrix(-1.071 .315 .248 .986 -3724.367 274.118)" x1="-3311.013" x2="-3311.013" xlink:href="#b" y1="805.472" y2="807.262"/><linearGradient id="e" gradientUnits="userSpaceOnUse" x1="22.94" x2="22.874" y1="23.821" y2="14.932"><stop offset="0" stop-color="#651116"/><stop offset=".053" stop-color="#6a1217"/><stop offset=".463" stop-color="#901b20"/><stop offset=".793" stop-color="#a72126"/><stop offset="1" stop-color="#b02328"/></linearGradient><radialGradient id="f" cx="22.753992" cy="19.602952" gradientUnits="userSpaceOnUse" r="4.842376"><stop offset=".478" stop-color="#ec1c24"/><stop offset=".775" stop-color="#961b1e"/><stop offset="1" stop-color="#d9383c"/></radialGradient><linearGradient id="g" gradientUnits="userSpaceOnUse" x1="24.269" x2="21.317" y1="22.368" y2="16.316"><stop offset=".006" stop-color="#ca4849"/><stop offset=".421" stop-color="#c0272d"/><stop offset="1" stop-color="#730b0d"/></linearGradient><radialGradient id="h" cx="22.739278" cy="20.293244" gradientUnits="userSpaceOnUse" r="4.593996"><stop offset=".618" stop-color="#6c0607"/><stop offset=".994" stop-color="#b12328"/></radialGradient><radialGradient id="i" cx="-127.767" cy="14.566" gradientTransform="matrix(-.027 0 0 -.027 19.287 19.73)" gradientUnits="userSpaceOnUse" r="120.907"><stop offset=".876" stop-color="#c0272d"/><stop offset="1" stop-color="#831416"/></radialGradient><linearGradient id="j" gradientUnits="userSpaceOnUse" x1="24.103" x2="21.475" y1="22.049" y2="16.617"><stop offset=".006" stop-color="#ca4849"/><stop offset=".421" stop-color="#c0272d"/><stop offset="1" stop-color="#651116"/></linearGradient><radialGradient id="k" cx="-95.684" cy="89.934" gradientTransform="matrix(-.027 0 0 -.027 19.287 19.73)" gradientUnits="userSpaceOnUse" r="191.556"><stop offset="0" stop-color="#c5263b"/><stop offset="1" stop-color="#910d10"/></radialGradient><linearGradient id="l" gradientUnits="userSpaceOnUse" x1="24.273" x2="21.218" y1="22.551" y2="16.168"><stop offset=".017" stop-color="#b12328"/><stop offset=".096" stop-color="#d9383c"/><stop offset=".994" stop-color="#651116"/></linearGradient><linearGradient id="m" gradientTransform="matrix(1 0 0 -1 -366.615 -37.7)" gradientUnits="userSpaceOnUse" x1="382.633" x2="382.575" y1="-41.131" y2="-64.593"><stop offset="0" stop-color="#ffe800"/><stop offset="1" stop-color="#dfb300"/></linearGradient><linearGradient id="n" gradientTransform="matrix(1 0 0 -1 -366.615 -37.7)" gradientUnits="userSpaceOnUse" x1="383.31" x2="382.426" y1="-58.563" y2="-58.563"><stop offset="0" stop-color="#ffe800" stop-opacity=".392"/><stop offset="1" stop-color="#dfb300" stop-opacity=".392"/></linearGradient><linearGradient id="o" gradientTransform="matrix(.707 .707 .707 -.707 -37.241 -222.037)" gradientUnits="userSpaceOnUse" x1="206.294" x2="197.914" y1="-130.964" y2="-122.585"><stop offset="0" stop-color="#dfb300"/><stop offset=".5" stop-color="#dfb300"/><stop offset="1" stop-color="#dfb300"/></linearGradient><linearGradient id="p" gradientTransform="matrix(0 -1.188 1.188 0 859.396 -852.482)" gradientUnits="userSpaceOnUse" x1="-722.753" x2="-727.648" y1="-709.665" y2="-709.665"><stop offset="0" stop-color="#fff"/><stop offset="1" stop-color="#fff" stop-opacity="0"/></linearGradient><path d="m6.354 3.748v24.5h19.265v-20.133h-4.8v-4.367zm16.195 1.084.011 1.544h1.669l-1.68-1.547z" fill="#808080"/><path d="m22.037 2h-15.663a1.755 1.755 0 0 0 -1.749 1.751v24.5a1.755 1.755 0 0 0 1.749 1.749h19.251a1.755 1.755 0 0 0 1.751-1.749v-21.395zm.525 2.844 1.663 1.531h-1.663zm-16.188 23.407v-24.5h14.437v4.374h4.812v20.126z" fill="#c5c5c5"/><path d="m27.047 28.749c-.062-.115-.089-.173-.126-.249-.015-.05-.032-.1-.048-.15a7.9 7.9 0 0 0 -.342-.889l-.048-.144-.186-.555-.007-.018-.06-.179c-.054-.177-.112-.341-.171-.508l-.151-.449-.013-.041-.069-.2-1.391-4.139-.152.063-1.877.809h-.017l-.044.019v.018l.006.04c.016.107.054.356.1.694l-1.771-.4-.174-.037s-.8 3.7-1.105 5.176c-.037.161-.071.326-.1.49-.007.039-.013.067-.015.085-.015.07-.029.139-.044.207l-.127.6c-.011.052-.022.1-.033.154a8.02 8.02 0 0 0 -.249.965c-.016.081-.04.2-.062.315a4.718 4.718 0 0 0 -.182.451c-.013.031-.026.063-.042.094l.01-.006-.01.026c.081-.059.162-.121.243-.182.165-.119.323-.244.5-.353l.013-.009.122-.1.031-.024a8.134 8.134 0 0 1 .9-.59l.1-.083.33-.263.143.115.159.127a9.578 9.578 0 0 1 .875.564 3 3 0 0 1 .229.2c.207.176.452.337.654.538-.022-.2-.045-.422-.082-.62 0-.1.006-.2.007-.307 0-.306-.011-.609-.013-.914 0-.053 0-.108 0-.162.012-.459.025-.964.037-1.481l.006-.222c.009-.367.025-1.051.028-1.106.005-.211.011-.418.016-.62.036.24.072.475.105.7l.014.1c.024.159.047.311.069.454.055.361.108.712.157 1.04l.007.042c.008.053.016.1.024.156.035.293.062.587.1.882.013.1.027.2.044.294.013.183.013.384.013.565.134-.161.291-.341.43-.51a.4.4 0 0 0 .1-.105 7.506 7.506 0 0 1 .877-.87l.126-.148.114-.133.328.2.1.063c.2.083.4.171.593.27.048.025.1.056.163.091.022.013.087.048.15.081.286.157.6.3.89.458-.073-.12-.118-.261-.202-.38z" fill="#d7d8da"/><path d="m22.534 21.04s.21 1.544.448 3.306c.013.077.024.154.041.232a3.188 3.188 0 0 1 .117.934c.011.078.021.156.032.234.074.544.146 1.075.211 1.558.007.058.015.115.023.171.035.322.06.644.1.967.013.108.027.215.043.323.013.2.013.421.013.62.132-.176.286-.374.424-.56a.431.431 0 0 0 .1-.116 7.866 7.866 0 0 1 .863-.954l.124-.162.112-.146.323.221.1.069c.2.091.394.188.584.3.047.027.1.062.161.1.022.014.085.052.148.089.281.172.59.327.876.5-.088-.132-.132-.286-.215-.417-.061-.126-.088-.19-.124-.273-.015-.055-.031-.11-.047-.165a9.435 9.435 0 0 0 -.337-.976l-.047-.158-.184-.609c-.021-.07-.044-.14-.064-.212-.1-.38-.225-.711-.331-1.1l-.068-.224-1.369-4.541z" fill="url(#a)"/><path d="m24.588 20.053 1.369 4.541c.023.075.442 1.465.463 1.535l.184.609.047.158a9.435 9.435 0 0 1 .337.976c.016.055.031.11.047.165.036.083.063.147.124.273s.127.263.193.395c-.286-.154-.573-.331-.854-.481-.062-.037-.126-.075-.148-.089-.058-.039-.113-.073-.161-.1-.19-.108-.385-.2-.584-.3l-.1-.069-.323-.221-.112.146-.124.162a7.866 7.866 0 0 0 -.863.954.427.427 0 0 1 -.1.116c-.137.185-.292.383-.424.56 0-.2 0-.418-.013-.62-.016-.108-.031-.215-.043-.323-.039-.323-.065-.645-.1-.967-.008-.056-.015-.113-.023-.171-.066-.483-.85-6.265-.85-6.265l.139-.065s.242 1.526.51 3.21c.013.076.244 1.537.256 1.612l.229 1.443c.008.05.016.1.023.146a8.56 8.56 0 0 0 .093 1.131c.211-.414.594-.626.867-.974l.084-.112.335-.448.549.339.114.071c.3.174.657.268.965.443-.107-.281-.234-.564-.338-.849-.012-.042-.024-.085-.037-.128l-.253-.907c-.018-.066-.335-1.2-.356-1.274l-1.27-4.553z" fill="#961b1e"/><path d="m22.576 21.015.507 3.184c.013.076.242 1.524.255 1.6l.228 1.432.023.144a13.248 13.248 0 0 0 .136 1.356c.2-.526.663-.75.985-1.139l.084-.11.338-.442-.11.021.539.341.113.071a7.905 7.905 0 0 1 1.137.579 11.365 11.365 0 0 0 -.393-1.1c-.023-.083-.047-.17-.072-.262l-.163-.589-.443-1.6-1.211-4.38-.172.061 1.21 4.38c.023.08.423 1.532.443 1.6l.163.59c.025.091.049.179.073.262.1.289.226.573.334.853l.126-.116c-.271-.17-.573-.212-.834-.393-.039-.023-.077-.047-.116-.071l-.651-.412-.063-.039-.042.057-.338.442-.084.11a10.4 10.4 0 0 0 -.877.971.289.289 0 0 0 .13.04c-.043-.36.014-.751-.06-1.116-.008-.047-.015-.1-.023-.144l-.228-1.432c-.012-.074-.2-1.293-.218-1.37-.28-1.758-.543-3.413-.543-3.413z" fill="url(#b)"/><path d="m23.1 21.977s-.036 1.61-.077 3.448c0 .081-.007.161-.016.244a3.1 3.1 0 0 0 -.012.973c0 .081 0 .163-.005.244-.013.567-.025 1.121-.037 1.625v.178c0 .334.014.667.012 1 0 .112 0 .224-.007.337.037.217.059.459.081.68-.2-.22-.441-.4-.644-.59a3.015 3.015 0 0 0 -.225-.218 9.252 9.252 0 0 0 -.862-.619l-.156-.14-.141-.126-.324.289-.1.091a7.961 7.961 0 0 0 -.886.648c-.035.03-.091.081-.15.134-.255.178-.5.4-.74.6.066-.2.132-.419.221-.621.022-.125.045-.257.061-.346a9.57 9.57 0 0 1 .246-1.058c.01-.056.021-.113.032-.17.04-.21.082-.429.125-.655.015-.075.029-.151.043-.228.056-.4.156-.819.225-1.182l.046-.242c.46-2.417.929-4.886.929-4.886z" fill="url(#c)"/><path d="m20.732 21.386s-1.144 5.907-1.2 6.31c-.015.076-.029.153-.043.228-.043.226-.085.445-.125.655-.011.057-.022.114-.032.17a9.57 9.57 0 0 0 -.246 1.058c-.016.089-.039.22-.061.346-.089.2-.133.4-.221.6.264-.176.485-.4.739-.575.059-.053.115-.1.15-.134a7.961 7.961 0 0 1 .886-.648l.1-.091.324-.289.141.126.156.14a9.252 9.252 0 0 1 .862.619 3.015 3.015 0 0 1 .225.218c.2.193.445.369.644.59-.022-.22-.044-.463-.081-.68 0-.113.007-.225.007-.337 0-.335-.01-.669-.012-1v-.178c.011-.5.024-1.058.037-1.625 0-.081.029-1.38.033-1.46.041-1.838.077-3.448.077-3.448l-.16-.038s-.074 1.6-.156 3.362c0 .08-.075 1.61-.078 1.688-.025.549-.049 1.068-.07 1.512l-.007.152a8.276 8.276 0 0 1 .039 1.167c-.282-.378-.727-.517-1.068-.816l-.105-.1-.422-.388-.556.454-.116.095c-.308.237-.684.4-1 .644.083-.307.185-.62.263-.93.008-.045.016-.09.024-.138.048-.288.1-.617.164-.972.012-.071.216-1.285.23-1.365.388-2.3.823-4.882.823-4.882z" fill="#961b1e"/><path d="m23.049 21.961s-.075 1.586-.157 3.335c0 .08-.075 1.6-.078 1.675-.026.544-.05 1.06-.07 1.5 0 .052 0 .1-.007.151a12.939 12.939 0 0 1 .02 1.405c-.286-.493-.818-.628-1.218-.96l-.106-.095-.424-.381h.122l-.546.454-.114.094a9.727 9.727 0 0 0 -1.17.816 11.9 11.9 0 0 1 .292-1.2c.015-.089.03-.183.046-.28l.1-.631.038-.228a6.69 6.69 0 0 1 .246-1.488c.371-2.244.776-4.691.776-4.691l.2.028s-.405 2.447-.776 4.691c-.015.087-.221 1.051-.246 1.488l-.038.228-.1.631q-.024.147-.046.281c-.074.314-.176.627-.259.934l-.151-.092c.274-.228.6-.331.861-.567.04-.031.079-.064.117-.1l.66-.549.064-.053.059.053.424.381.106.1a10.05 10.05 0 0 1 1.078.81.359.359 0 0 1 -.137.067c0-.375-.108-.761-.074-1.146 0-.049 0-.1.008-.151.021-.44.045-.955.07-1.5l.011-.235a8.828 8.828 0 0 1 .056-1.2c.086-1.842.168-3.575.168-3.575z" fill="url(#d)"/><path d="m21.841 23.424a1.793 1.793 0 0 0 1.857.318c.77-.182.86-.681 1.4-1.043.453-.272.951-.045 1.178-.59.136-.408-.181-.907.09-1.315.317-.59.86-.59.906-1.36.045-.816-.589-.907-.815-1.451-.271-.5.09-.816-.317-1.315a6.014 6.014 0 0 0 -2.168-1.652c-.679-.136-1.228.518-1.953.473s-1.323-.641-2.048-.369c-1.313.544-.624 2.138-1.031 3.181a2.393 2.393 0 0 0 .043 2.724 11.381 11.381 0 0 0 .727 1.494c.453.725.951.408 1.63.589a1.238 1.238 0 0 1 .501.316z" fill="url(#e)"/><path d="m21.827 23.3a1.75 1.75 0 0 0 1.815.311c.753-.178.841-.666 1.373-1.022.443-.266.93-.044 1.151-.577.133-.4-.177-.888.088-1.288.31-.577.842-.577.886-1.333.045-.8-.575-.888-.8-1.421-.265-.488.089-.8-.31-1.288a5.9 5.9 0 0 0 -2.17-1.555c-.664-.133-1.151.444-1.86.4s-1.24-.578-1.948-.311c-1.284.533-.664 2.043-1.063 3.065a2.346 2.346 0 0 0 .133 2.665 11.232 11.232 0 0 0 .62 1.466c.443.71.93.4 1.594.577a1.205 1.205 0 0 1 .491.311z" fill="url(#f)"/><circle cx="22.787" cy="19.331" fill="url(#g)" r="3.379"/><path d="m26.327 18.292c-.048-.159-.048-.335-.1-.51a1.514 1.514 0 0 0 -.354-.542 2.344 2.344 0 0 0 -.531-.59c-.209-.16-.354-.415-.579-.51a3.867 3.867 0 0 1 -.531-.239 4.4 4.4 0 0 0 -.531-.351 3.888 3.888 0 0 0 -1.421.027c-.933.143-2.043.143-2.557.908a9.276 9.276 0 0 0 -.525 1.457 4.456 4.456 0 0 0 -.225 1.116 4.613 4.613 0 0 0 .065 1.483c.161.638.74.989 1.158 1.467a4.4 4.4 0 0 0 1.03.845c.386.255.86.685 1.31.685a4.8 4.8 0 0 0 1.173-.255 3.2 3.2 0 0 0 1.2-.72c.384-.269.782-.2 1.008-.576s-.077-.554.444-1.654a2.247 2.247 0 0 0 .257-.957 2.861 2.861 0 0 0 -.291-1.084zm-3.539 4.576a3.5 3.5 0 1 1 3.531-3.5 3.516 3.516 0 0 1 -3.531 3.5z" fill="url(#h)"/><circle cx="22.787" cy="19.331" fill="url(#i)" r="3.313"/><circle cx="22.787" cy="19.331" fill="url(#j)" r="3.011"/><circle cx="22.787" cy="19.331" fill="url(#k)" r="2.951"/><path d="m26.065 18.324c-.045-.149-.045-.313-.09-.477a1.414 1.414 0 0 0 -.328-.506 2.167 2.167 0 0 0 -.491-.551c-.194-.149-.328-.387-.536-.477a3.611 3.611 0 0 1 -.491-.223 4.033 4.033 0 0 0 -.492-.328 3.506 3.506 0 0 0 -1.31-.03 3.1 3.1 0 0 0 -2.145 1.268 6.5 6.5 0 0 0 -.715 1 4.2 4.2 0 0 0 -.209 1.043 4.33 4.33 0 0 0 .06 1.385c.149.6.685.924 1.073 1.37a4.085 4.085 0 0 0 .953.789 2.054 2.054 0 0 0 1.126.448 5.647 5.647 0 0 0 1.24-.133 2.959 2.959 0 0 0 1.122-.65c.348-.247.73-.161 1.225-1.52a6.414 6.414 0 0 0 .277-1.392 2.689 2.689 0 0 0 -.269-1.016zm-3.278 4.276a3.27 3.27 0 1 1 3.27-3.27 3.27 3.27 0 0 1 -3.27 3.27z" fill="url(#l)"/><path d="m20.074 15.251s.326-.222 1.037.055a2.127 2.127 0 0 0 .576.177.8.8 0 0 1 -.716-.019 2.124 2.124 0 0 0 -.897-.213z" fill="#f48e84"/><path d="m22.749 15.428s.8-.436 1.211-.214a1.13 1.13 0 0 0 -.657.037 2.216 2.216 0 0 1 -.554.177z" fill="#fadae8"/><path d="m19.478 17.281a1.834 1.834 0 0 1 .385-.889 1.924 1.924 0 0 1 1.209-.588 5.586 5.586 0 0 0 -1.034.515 1.437 1.437 0 0 0 -.363.481c-.011.028-.092.2-.197.481z" fill="#9b1d20"/><path d="m21.487 15.99a3.746 3.746 0 0 1 2.156-.192s.376.207.008.133a2.388 2.388 0 0 0 -1.019-.14 3.6 3.6 0 0 0 -1.115.251s-.089.007-.03-.052z" fill="#54000d"/><path d="m26.189 21.5s.111.605-.258.819-.413.111-.413.111a.659.659 0 0 0 .509-.273 1.1 1.1 0 0 0 .162-.657z" fill="#ca4849"/><path d="m18.782 19.012a2.11 2.11 0 0 0 .207 1.668s-.155-.546-.2-.7a2.1 2.1 0 0 1 -.007-.968z" fill="#f8cce0"/><path d="m19.794 22.4a1.009 1.009 0 0 0 .833.472.72.72 0 0 1 -.833-.472z" fill="#f9d0e2"/><path d="m25.056 22.175s.109.023.341-.173a3.376 3.376 0 0 0 .422-.536 5.072 5.072 0 0 1 -.4.57c-.073.064-.252.194-.363.139z" fill="#651116"/><path d="m26.6 18.4a1.036 1.036 0 0 1 .5.841 1.333 1.333 0 0 0 -.393-.7s-.232-.158-.107-.141z" fill="#fadae8"/><path d="m26.182 17.359a.824.824 0 0 0 -.3-.753 1.04 1.04 0 0 1 .3.753z" fill="#fadae8"/><path d="m26.536 19.591c-.033.25-.122.594-.122.594a1.934 1.934 0 0 0 .168-.859c-.035-.157-.012.006-.046.265z" fill="#b12328"/><path d="m23.244 23.643a1.979 1.979 0 0 0 .923-.34 3.408 3.408 0 0 1 -.524.229c-.097.008-.384.068-.399.111z" fill="#db726f"/><path d="m22.971 22.927a2.591 2.591 0 0 0 1.285-.339 2.964 2.964 0 0 1 -1.285.339z" fill="#f8c9dd"/><path d="m23.607 23.153a3.013 3.013 0 0 1 -.767.107c-.161 0-.635-.148-.025-.145a7.377 7.377 0 0 0 .993-.139s.341-.131.346-.13c.191.041-.161.202-.547.307z" fill="#651116"/><path d="m16 5.5a5.1 5.1 0 0 0 -2.6 9.482v1.345l1.05 1.343-1.05 1.347 1.05 1.343-1.05 1.34 1.05 1.346-1.05 1.348 2.305 1.949.185.157.4-.336 2.093-1.754v-9.31a5.1 5.1 0 0 0 -2.383-9.6zm0 1.464a2.122 2.122 0 0 1 2.34 1.787 2.123 2.123 0 0 1 -2.34 1.789 2.121 2.121 0 0 1 -2.34-1.789 2.12 2.12 0 0 1 2.34-1.787z" fill="url(#m)"/><path d="m16 15.228a.712.712 0 0 0 -.662.439.729.729 0 0 0 -.057.28v10.036l.151.128.185.157.275.232.276-.231.4-.336.152-.128v-9.86a.729.729 0 0 0 -.057-.28.692.692 0 0 0 -.381-.381.729.729 0 0 0 -.282-.056z" fill="url(#n)"/><path d="m15.915 6.325c-.142 0-.282.015-.42.032a4.234 4.234 0 0 1 .528-.032zm.217 0a4.2 4.2 0 0 1 .737.084 4.214 4.214 0 0 0 -.736-.083zm-.748.047c-.066.01-.131.022-.2.035q.102-.019.201-.034zm-.207.037c-.068.014-.136.03-.2.047.066-.016.133-.032.201-.046zm-.2.047c-.135.035-.266.075-.395.123q.192-.07.394-.122zm-.395.123c-.129.047-.255.1-.377.16.121-.058.248-.112.376-.159zm-.377.16c-.122.059-.242.123-.357.193.114-.069.234-.132.352-.192zm-.357.193c-.047.029-.094.059-.14.089.045-.029.092-.059.139-.088zm3.126-.5c.068.016.135.033.2.052q-.1-.027-.202-.051zm.4.113c.065.022.128.046.192.071-.066-.024-.13-.048-.195-.07zm.744.336c.058.034.115.069.172.105-.06-.035-.117-.07-.175-.104zm.173.105c.056.036.112.074.167.113-.058-.037-.113-.075-.17-.111zm-4.611.055-.084.059zm-.084.059-.081.059zm-.161.12-.079.064zm-.156.129-.075.067zm5.572.067c.037.034.074.069.111.1-.04-.031-.077-.065-.114-.099zm.145.139.071.072zm-6.143.221c-.044.051-.088.1-.129.156.038-.052.082-.105.126-.155zm6.478.156c.042.053.082.106.121.161-.042-.054-.083-.107-.124-.16zm-6.731.162-.059.084zm-.059.084c-.019.028-.037.056-.055.084.019-.029.037-.056.056-.084zm-.16.257c-.017.03-.034.059-.051.089.017-.029.035-.06.052-.089zm-.1.179c-.015.03-.031.06-.045.091.018-.031.033-.061.049-.091zm-.045.091c-.014.029-.028.058-.041.088zm-.084.187c-.013.031-.026.063-.039.095.016-.033.029-.065.042-.096zm-.039.095c-.013.032-.026.064-.037.1.015-.038.024-.07.041-.101zm-.037.1c-.012.032-.022.065-.033.1.014-.041.025-.073.036-.105zm-.065.195c-.01.033-.02.066-.029.1.012-.039.018-.073.032-.106zm8.059.118c.015.053.029.106.041.16-.011-.06-.026-.11-.041-.16zm-8.137.18c-.007.03-.014.06-.02.091.006-.033.013-.063.02-.094zm-.027.121c-.006.031-.012.063-.017.095.005-.034.011-.066.017-.096zm-.035.2c-.01.068-.018.136-.025.205.007-.072.015-.141.025-.206zm8.319.093c.009.07.017.14.023.211-.006-.075-.013-.144-.023-.214zm-8.36.75a4.2 4.2 0 0 0 8.389 0c-.118 2.013-1.954.717-4.2.717s-4.071 1.293-4.189-.72z" fill="url(#o)"/><path d="m15.915 6.326a4.2 4.2 0 0 0 -4.09 4.2c0 2.318 1.881.934 4.2.934s4.2 1.384 4.2-.934a4.2 4.2 0 0 0 -4.2-4.2zm.085.638a2.121 2.121 0 0 1 2.339 1.788 2.121 2.121 0 0 1 -2.339 1.788 2.121 2.121 0 0 1 -2.339-1.788 2.121 2.121 0 0 1 2.339-1.788z" fill="url(#p)"/></svg>