<svg xmlns="http://www.w3.org/2000/svg" xmlns:xlink="http://www.w3.org/1999/xlink" viewBox="0 0 32 32"><title>file_type_libreoffice_base</title><defs><linearGradient xlink:href="#a" id="g" x1="386.63" x2="410.5" y1="1069" y2="1069" gradientTransform="matrix(-.43749 0 0 .43749 190.12 -449.39)" gradientUnits="userSpaceOnUse"/></defs><linearGradient xlink:href="#b" id="j" x1="117" x2="12.001" y1="127.88" y2=".077" gradientTransform="translate(2 2) scale(.21875)" gradientUnits="userSpaceOnUse"/><linearGradient id="b"><stop offset="0" stop-color="#8e03a3"/><stop offset="1" stop-color="#c254d2"/></linearGradient><radialGradient id="h" cx="518.85" cy="730.48" r="22.89" gradientTransform="matrix(.2199 0 0 .0619 -98.315 -28.669)" gradientUnits="userSpaceOnUse"><stop offset="0" stop-color="#dc85e9"/><stop offset="1" stop-color="#f2cbf8"/></radialGradient><linearGradient id="f" x1="38.001" x2="88.001" y1="79.981" y2="79.981" gradientTransform="translate(2 2) scale(.21875)" gradientUnits="userSpaceOnUse"><stop offset="0" stop-color="#9207a7"/><stop offset=".273" stop-color="#cd6cc4"/><stop offset=".51" stop-color="#ad3cbe"/><stop offset=".834" stop-color="#bc2ad2"/><stop offset="1" stop-color="#950ba8"/></linearGradient><linearGradient xlink:href="#b" id="e" x1="1273" x2="1169" y1="-1040.6" y2="-1168.6" gradientTransform="translate(-251.09 257.64) scale(.21875)" gradientUnits="userSpaceOnUse"/><linearGradient id="d" x1="108" x2="20.001" y1="122" y2="6" gradientTransform="translate(2 2) scale(.21875)" gradientUnits="userSpaceOnUse"><stop offset="0" stop-color="#e6e6e6"/><stop offset="1" stop-color="#fff"/></linearGradient><linearGradient xlink:href="#b" id="c" x1="122.75" x2="111.75" y1="991.62" y2="977.12" gradientTransform="matrix(1.7499 0 0 1.7495 -189.18 -1706.1)" gradientUnits="userSpaceOnUse"/><linearGradient id="a" x1="386.63" x2="410.5" y1="1069" y2="1069" gradientTransform="matrix(-2 0 0 2 860 -2063.5)" gradientUnits="userSpaceOnUse"><stop offset="0" stop-color="#e196fb"/><stop offset=".13" stop-color="#f4c7fa"/><stop offset=".314" stop-color="#e091f3"/><stop offset=".441" stop-color="#d764e9"/><stop offset=".684" stop-color="#e7adf0"/><stop offset=".756" stop-color="#e6a9f8"/><stop offset=".88" stop-color="#e595f2"/><stop offset="1" stop-color="#f2cbf8"/></linearGradient><g stroke-width=".219"><path fill="url(#c)" d="M5.774 2c-.055 0-.11.003-.164.008-.802.153-.999.496-.984 1.312v25.368c0 .916.396 1.312 1.312 1.312h20.124c.916 0 1.312-.396 1.312-1.312v-15.71a1.77 1.77 0 0 0-.492-1.257L17.66 2.5a1.772 1.772 0 0 0-1.258-.493H5.938A1.696 1.696 0 0 0 5.774 2zm15.314.003a.902.902 0 0 0-.137.01c-.582.187-.778 1.074-.33 1.49l5.271 5.299c.487.464 1.457.067 1.483-.607V2.897c0-.463-.419-.883-.879-.883h-5.27a.905.905 0 0 0-.138-.01z"/><path fill="url(#d)" d="M5.938 3.313v25.375h20.125v-15.75l-9.625-9.625z"/><path fill="url(#e)" d="M8.781 13.375v.656h3.063v-.656zm3.5 0v.656h3.281v-.656zm3.719 0v.656h3.281v-.656zm3.719 0v.656h3.062v-.656zM8.782 14.469v.875h3.062v-.875zm3.5 0v.875h3.28v-.875zm3.718 0v.875h3.282v-.875zm3.72 0v.875h3.062v-.875zM8.781 15.78v.875h3.063v-.875zm3.5 0v.875h3.281v-.875zm3.719 0v.875h3.281v-.875zm3.718 0v.875h3.063v-.875zM8.782 17.094v.875h3.063v-.875zm3.5 0v.875h3.282v-.875zm3.72 0v.875h3.28v-.875zm3.718 0v.875h3.062v-.875zM8.783 18.406v.875h3.062v-.875zm3.5 0v.875h3.281v-.875zm3.719 0v.875h3.28v-.875zm3.718 0v.875h3.063v-.875zM8.783 19.72v.875h3.063v-.875zm3.5 0v.875h3.281v-.875zm3.719 0v.875h3.281v-.875zm3.719 0v.875h3.062v-.875zM8.784 21.03v.875h3.062v-.875zm3.5 0v.875h3.28v-.875zm3.718 0v.875h3.282v-.875zm3.72 0v.875h3.062v-.875zM8.783 22.344v.875h3.063v-.875zm3.5 0v.875h3.281v-.875zm3.719 0v.875h3.281v-.875zm3.718 0v.875h3.063v-.875zM8.784 23.656v.875h3.063v-.875zm3.5 0v.875h3.282v-.875zm3.72 0v.875h3.28v-.875zm3.718 0v.875h3.062v-.875zM8.785 24.97v.656h3.062v-.656zm3.5 0v.656h3.281v-.656zm3.719 0v.656h3.28v-.656zm3.718 0v.656h3.063v-.656z" opacity=".6"/><path fill="url(#f)" d="M15.781 14.899c-1.464 0-2.792.16-3.767.424-.487.132-.88.283-1.175.471-.295.19-.52.436-.52.752h-.007v5.907c0 .305.217.548.513.738.296.19.7.346 1.19.478.977.265 2.3.424 3.766.424s2.79-.159 3.767-.424c.488-.132.893-.288 1.189-.478.296-.19.513-.433.513-.738v-5.907h-.007c0-.316-.225-.563-.52-.752-.294-.188-.688-.34-1.175-.471-.975-.264-2.303-.424-3.767-.424zm0 .451c1.435 0 2.739.16 3.664.41.463.126.83.273 1.066.424.237.152.308.287.308.362 0 .076-.071.211-.308.363-.236.151-.603.298-1.066.424-.925.25-2.229.41-3.664.41s-2.739-.16-3.664-.41c-.463-.126-.83-.273-1.066-.424-.237-.152-.308-.287-.308-.363 0-.075.071-.21.308-.362.236-.151.603-.298 1.066-.424.925-.25 2.229-.41 3.664-.41zm-5.031 1.88c.03.022.057.048.089.068.295.19.688.34 1.175.472.975.264 2.303.424 3.767.424s2.792-.16 3.767-.424c.487-.132.88-.283 1.175-.472.032-.02.06-.046.09-.068v1.285c0 .087-.08.219-.315.37-.235.15-.598.298-1.06.423-.923.25-2.223.41-3.657.41-1.434 0-2.734-.16-3.657-.41-.462-.125-.824-.273-1.06-.424-.235-.15-.314-.282-.314-.369v-.11zm0 1.969c.025.018.048.037.075.054.296.19.7.347 1.19.479.977.265 2.3.424 3.766.424s2.79-.16 3.767-.424c.488-.132.893-.289 1.189-.479.027-.017.05-.036.075-.054v1.285c0 .087-.08.218-.314.369-.235.15-.598.299-1.06.424-.923.25-2.223.41-3.657.41-1.434 0-2.734-.16-3.657-.41-.462-.125-.825-.273-1.06-.424-.235-.15-.314-.282-.314-.37v-.109zm0 1.968c.025.019.048.038.075.055.296.19.7.346 1.19.479.977.264 2.3.423 3.766.423s2.79-.159 3.767-.423c.488-.133.893-.29 1.189-.479.027-.017.05-.036.075-.055v1.286c0 .087-.08.218-.314.369-.235.15-.598.299-1.06.424-.923.25-2.223.41-3.657.41-1.434 0-2.734-.16-3.657-.41-.462-.125-.825-.274-1.06-.424-.235-.15-.314-.282-.314-.37v-.109z"/></g><path fill="none" stroke="#fff" stroke-width=".437" d="M15.781 14.899c-1.464 0-2.792.16-3.767.424-.487.132-.88.283-1.175.471-.295.19-.527.436-.527.752-.013 1.917 0 3.868 0 5.797v.11c0 .305.217.548.513.738.296.19.7.346 1.19.478.977.265 2.3.424 3.766.424s2.79-.159 3.767-.424c.488-.132.893-.288 1.189-.478.296-.19.513-.433.513-.738v-5.907c0-.296-.288-.596-.527-.752-.294-.188-.688-.34-1.175-.471-.975-.264-2.303-.424-3.767-.424zm0 .451c1.435 0 2.739.16 3.664.41.463.126.83.273 1.066.424.237.152.308.287.308.362 0 .076-.071.211-.308.363-.236.151-.603.298-1.066.424-.925.25-2.229.41-3.664.41s-2.739-.16-3.664-.41c-.463-.126-.83-.273-1.066-.424-.237-.152-.308-.287-.308-.363 0-.075.071-.21.308-.362.236-.151.603-.298 1.066-.424.925-.25 2.229-.41 3.664-.41zm-5.031 1.88c.03.022.057.048.089.068.295.19.688.34 1.175.472.975.264 2.303.424 3.767.424s2.792-.16 3.767-.424c.487-.132.88-.283 1.175-.472.032-.02.06-.046.09-.068v1.285c0 .087-.08.219-.315.37-.235.15-.598.298-1.06.423-.923.25-2.223.41-3.657.41-1.434 0-2.734-.16-3.657-.41-.462-.125-.824-.273-1.06-.424-.235-.15-.314-.282-.314-.369v-.11zm0 1.969c.025.018.048.037.075.054.296.19.7.347 1.19.479.977.265 2.3.424 3.766.424s2.79-.16 3.767-.424c.488-.132.893-.289 1.189-.479.027-.017.05-.036.075-.054v1.285c0 .087-.08.218-.314.369-.235.15-.598.299-1.06.424-.923.25-2.223.41-3.657.41-1.434 0-2.734-.16-3.657-.41-.462-.125-.825-.273-1.06-.424-.235-.15-.314-.282-.314-.37v-.109zm0 1.968c.025.019.048.038.075.055.296.19.7.346 1.19.479.977.264 2.3.423 3.766.423s2.79-.159 3.767-.423c.488-.133.893-.29 1.189-.479.027-.017.05-.036.075-.055v1.286c0 .087-.08.218-.314.369-.235.15-.598.299-1.06.424-.923.25-2.223.41-3.657.41-1.434 0-2.734-.16-3.657-.41-.462-.125-.825-.274-1.06-.424-.235-.15-.314-.282-.314-.37v-.109z" opacity=".5"/><g fill="url(#g)" stroke-width=".219"><path d="M10.531 20.593v1.86c0 .785 2.35 1.421 5.25 1.421s5.25-.636 5.25-1.422v-1.859z"/><path d="M10.531 18.625v1.86c0 .785 2.35 1.421 5.25 1.421s5.25-.636 5.25-1.422v-1.859z"/><path d="M21.031 16.765v1.75c0 .785-2.35 1.422-5.25 1.422s-5.25-.637-5.25-1.422v-1.75z"/></g><g stroke-width=".219"><path id="i" fill="none" stroke="#fff" stroke-width=".219" d="M10.859 17.422v.982c0 .666 2.154 1.205 4.812 1.205s5.032-.54 5.032-1.205v-.976c-.43.37-2.252.914-5.017.914-2.766 0-4.425-.55-4.827-.92z" opacity=".35"/><ellipse cx="15.781" cy="16.547" fill="url(#h)" rx="5.141" ry="1.313"/><path fill="#fff" d="M15.781 15.35c-1.435 0-2.739.16-3.664.41-.463.125-.83.273-1.066.424-.237.151-.308.286-.308.362 0 .076.071.211.308.363.236.151.603.298 1.066.423.925.251 2.229.41 3.664.41s2.739-.159 3.664-.41c.463-.125.83-.272 1.066-.423.237-.152.308-.287.308-.363 0-.076-.071-.21-.308-.362-.236-.151-.603-.299-1.066-.424-.925-.25-2.229-.41-3.664-.41zm0 .212c1.34 0 2.554.129 3.418.335.432.103.777.224.998.348.22.125.287.239.287.301 0 .063-.066.176-.287.301-.22.125-.566.246-.998.349-.864.206-2.078.335-3.418.335-1.34 0-2.554-.13-3.418-.335-.432-.103-.777-.224-.998-.349-.22-.125-.287-.238-.287-.3 0-.063.066-.177.287-.302.22-.124.566-.245.998-.348.864-.206 2.078-.335 3.418-.335z" opacity=".25"/></g><use xlink:href="#i" width="5033" height="1085" transform="translate(0 1.969)"/><use xlink:href="#i" width="5033" height="1085" transform="translate(0 3.937)"/><path fill="url(#j)" d="M15.781 14.899c-1.464 0-2.792.16-3.767.424-.487.132-.88.283-1.175.471-.295.19-.527.436-.527.752-.013 1.917 0 3.868 0 5.797v.11c0 .305.217.548.513.738.296.19.7.346 1.19.478.977.265 2.3.424 3.766.424s2.79-.159 3.767-.424c.488-.132.893-.288 1.189-.478.296-.19.513-.433.513-.738v-5.907c0-.296-.288-.596-.527-.752-.294-.188-.688-.34-1.175-.471-.975-.264-2.303-.424-3.767-.424zm0 .451c1.435 0 2.739.16 3.664.41.463.126.83.273 1.066.424.237.152.308.287.308.362 0 .076-.071.211-.308.363-.236.151-.603.298-1.066.424-.925.25-2.229.41-3.664.41s-2.739-.16-3.664-.41c-.463-.126-.83-.273-1.066-.424-.237-.152-.308-.287-.308-.363 0-.075.071-.21.308-.362.236-.151.603-.298 1.066-.424.925-.25 2.229-.41 3.664-.41zm-5.031 1.88c.03.022.057.048.089.068.295.19.688.34 1.175.472.975.264 2.303.424 3.767.424s2.792-.16 3.767-.424c.487-.132.88-.283 1.175-.472.032-.02.06-.046.09-.068v1.285c0 .087-.08.219-.315.37-.235.15-.598.298-1.06.423-.923.25-2.223.41-3.657.41-1.434 0-2.734-.16-3.657-.41-.462-.125-.824-.273-1.06-.424-.235-.15-.314-.282-.314-.369v-.11zm0 1.969c.025.018.048.037.075.054.296.19.7.347 1.19.479.977.265 2.3.424 3.766.424s2.79-.16 3.767-.424c.488-.132.893-.289 1.189-.479.027-.017.05-.036.075-.054v1.285c0 .087-.08.218-.314.369-.235.15-.598.299-1.06.424-.923.25-2.223.41-3.657.41-1.434 0-2.734-.16-3.657-.41-.462-.125-.825-.273-1.06-.424-.235-.15-.314-.282-.314-.37v-.109zm0 1.968c.025.019.048.038.075.055.296.19.7.346 1.19.479.977.264 2.3.423 3.766.423s2.79-.159 3.767-.423c.488-.133.893-.29 1.189-.479.027-.017.05-.036.075-.055v1.286c0 .087-.08.218-.314.369-.235.15-.598.299-1.06.424-.923.25-2.223.41-3.657.41-1.434 0-2.734-.16-3.657-.41-.462-.125-.825-.274-1.06-.424-.235-.15-.314-.282-.314-.37v-.109z"/></svg>