<svg xmlns="http://www.w3.org/2000/svg" fill="none" viewBox="0 0 32 32"><mask id="a"><path fill="#fff" d="M56.08.77c.95 0 1.48 1.12.86 1.86L46.5 15.16a2.26 2.26 0 0 0 1.74 3.71h10.1c.96 0 1.48 1.12.87 1.86L39 44.98c-.45.54-1.29.54-1.74 0l-20.2-24.25a1.13 1.13 0 0 1 .86-1.86h10.1a2.26 2.26 0 0 0 1.74-3.71L19.32 2.63a1.13 1.13 0 0 1 .86-1.86z"/></mask><g mask="url(#a)" transform="translate(1 6.8)scale(.393)"><path fill="#ff4100" d="M0 0h59v46H0z"/><g filter="url(#b)"><ellipse cx="59.88" cy=".93" fill="#ffe6e4" rx="5.4" ry="23.58" transform="rotate(210.3 59.88 .93)"/></g><g filter="url(#b)"><ellipse cx="58.73" cy="23.91" fill="#ffe6e4" rx="5.4" ry="23.58" transform="rotate(210.3 58.73 23.9)"/></g><g filter="url(#b)"><ellipse cx="17.46" cy="1.44" fill="#ff00b3" rx="3.72" ry="21.83" transform="rotate(-36.1 17.46 1.44)"/></g><g filter="url(#b)"><ellipse cx="23.2" cy="34.1" fill="#ff00b3" rx="3.72" ry="21.83" transform="rotate(-36.1 23.2 34.1)"/></g><g filter="url(#b)"><ellipse cx="58.82" cy="1.44" fill="#ff00b3" rx="3.72" ry="21.83" transform="rotate(216.1 58.82 1.44)"/></g><g filter="url(#b)"><ellipse cx="51.93" cy="34.1" fill="#ff00b3" rx="3.72" ry="21.83" transform="rotate(216.1 51.93 34.1)"/></g><g filter="url(#b)"><ellipse cx="55.37" cy="1.44" fill="#ff00b3" rx="3.72" ry="21.83" transform="rotate(216.1 55.37 1.44)"/></g><g filter="url(#b)"><ellipse cx="49.63" cy="34.1" fill="#ff00b3" rx="3.72" ry="21.83" transform="rotate(216.1 49.63 34.1)"/></g><g filter="url(#b)"><ellipse cx="19.58" cy="3.02" fill="#e23d14" rx="5.4" ry="23.58" transform="rotate(-41 19.58 3.02)"/></g><g filter="url(#b)"><ellipse cx="23.25" cy="28.5" fill="#e23d14" rx="5.4" ry="23.58" transform="rotate(-35.9 23.25 28.5)"/></g></g><path fill="#08060e" d="M3.72 6.8C.1 11.98.08 20 3.72 25.2h2.45c-3.64-5.2-3.62-13.22 0-18.4zm24.56 0h-2.45c3.62 5.18 3.64 13.2 0 18.4h2.45c3.64-5.2 3.62-13.22 0-18.4"/><defs><filter id="b" width="4" height="4" x="-2" y="-2" color-interpolation-filters="sRGB"><feGaussianBlur stdDeviation="3.45"/></filter></defs></svg>