<svg viewBox="0 0 32 32" xmlns="http://www.w3.org/2000/svg"><path d="m10.016 2h15.523a4.188 4.188 0 0 1 2.55 1.09 6.307 6.307 0 0 1 1.818 3.776c.04.282.063.567.093.851v.491a.927.927 0 0 1 -.409.655 1.6 1.6 0 0 1 -.9.138c-.731-.001-1.459-.001-2.191-.001q-.011 8.092 0 16.184a4.766 4.766 0 0 1 -.709 2.517 4.838 4.838 0 0 1 -2.512 2.027 5.812 5.812 0 0 1 -1.3.269h-14.752a5.38 5.38 0 0 1 -2.954-1.069 5.975 5.975 0 0 1 -2.131-3.6c-.072-.345-.1-.7-.142-1.046v-.547a.971.971 0 0 1 .405-.6 1.48 1.48 0 0 1 .853-.135q1.12 0 2.242 0 0-8.093 0-16.186a4.785 4.785 0 0 1 1.492-3.486 4.865 4.865 0 0 1 3.024-1.328" fill="#333"/><path d="m7.456 5.7a6.093 6.093 0 0 0 -.206 2.2q0 7.545 0 15.09c3.246.008 6.491 0 9.736 0a.866.866 0 0 1 .783.577 3.989 3.989 0 0 1 .068.762 4.555 4.555 0 0 0 1.384 3.038 3.549 3.549 0 0 0 2.408.87 3.059 3.059 0 0 0 3.117-3.061q0-9 0-17.992a2.6 2.6 0 0 1 .039-.622 6.1 6.1 0 0 1 .759-1.86 2.949 2.949 0 0 1 .9-.959q-8.068-.01-16.135 0a3.076 3.076 0 0 0 -2.853 1.957z" fill="#808080"/><g fill="#333"><path d="m12.678 11.092a.93.93 0 0 1 .81-.343.874.874 0 0 1 .764 1.039c-.06.342-.357.553-.583.788-.85.854-1.724 1.686-2.565 2.549.872.888 1.769 1.751 2.648 2.632a1.4 1.4 0 0 1 .5.706.877.877 0 0 1 -.622 1.014.865.865 0 0 1 -.838-.211c-1.18-1.154-2.342-2.326-3.52-3.482a.887.887 0 0 1 -.051-1.26q1.725-1.724 3.457-3.432z"/><path d="m17.749 11.568a.877.877 0 0 1 .766-.813.9.9 0 0 1 .729.25q1.729 1.715 3.46 3.431a.9.9 0 0 1 .014 1.391q-1.677 1.659-3.349 3.322a1.023 1.023 0 0 1 -.634.37.874.874 0 0 1 -.959-.639.885.885 0 0 1 .242-.861c.965-.963 1.941-1.912 2.9-2.883-.948-.951-1.907-1.89-2.861-2.834a.916.916 0 0 1 -.308-.734z"/></g></svg>