<svg viewBox="0 0 32 32" xmlns="http://www.w3.org/2000/svg"><path d="m16.129 2a12.348 12.348 0 0 0 -2.35 24.465v3.535c7.371-1.114 13.9-6.982 14.384-14.684a12.8 12.8 0 0 0 -5.9-11.667c-.223-.132-.449-.262-.682-.377s-.481-.231-.729-.33c-.079-.033-.156-.063-.235-.094-.216-.08-.435-.17-.658-.236a12.188 12.188 0 0 0 -3.83-.612z" fill="#00a818"/><path d="m18.68 6.563a1.345 1.345 0 0 0 -1.178.472 5.493 5.493 0 0 0 -.518.9 2.9 2.9 0 0 0 .377 3.023 3.317 3.317 0 0 0 2.402-1.958 2.388 2.388 0 0 0 .237-1 1.411 1.411 0 0 0 -1.32-1.437zm-5.488.071a1.441 1.441 0 0 0 -1.342 1.366 2.388 2.388 0 0 0 .235 1 3.427 3.427 0 0 0 2.473 1.96 3.141 3.141 0 0 0 -.212-3.85 1.322 1.322 0 0 0 -1.154-.472zm-3.7 3.637a1.3 1.3 0 0 0 -.73 2.338 5.663 5.663 0 0 0 .895.543 3.386 3.386 0 0 0 3.179-.307 3.492 3.492 0 0 0 -2.049-2.338 2.69 2.69 0 0 0 -1.06-.236 1.369 1.369 0 0 0 -.236 0zm11.611 4.582a3.44 3.44 0 0 0 -1.955.567 3.492 3.492 0 0 0 2.052 2.338 2.69 2.69 0 0 0 1.06.236 1.329 1.329 0 0 0 .966-2.362 5.47 5.47 0 0 0 -.895-.52 3.247 3.247 0 0 0 -1.225-.26zm-10.292.071a3.247 3.247 0 0 0 -1.225.26 2.575 2.575 0 0 0 -.895.543 1.34 1.34 0 0 0 1.039 2.338 2.426 2.426 0 0 0 1.06-.236 3.185 3.185 0 0 0 1.955-2.338 3.366 3.366 0 0 0 -1.931-.567zm3.815 2.314a3.317 3.317 0 0 0 -2.4 1.96 2.286 2.286 0 0 0 -.236.968 1.4 1.4 0 0 0 2.426.992 5.492 5.492 0 0 0 .518-.9 3.109 3.109 0 0 0 -.306-3.023zm2.8.071a3.141 3.141 0 0 0 .212 3.85 1.47 1.47 0 0 0 2.5-.9 2.388 2.388 0 0 0 -.236-.992 3.427 3.427 0 0 0 -2.473-1.96z" fill="#fff"/></svg>