<svg xmlns="http://www.w3.org/2000/svg" viewBox="0 0 32 32"><title>file_type_apache</title><path d="M22.219,6.585A28.021,28.021,0,0,1,29.454,4.25c-.063,1.463.441,3.231-.828,4.372-2.394,2.63-5.832,4.041-8.567,6.28A62.858,62.858,0,0,0,22.219,6.585Z" style="fill:#013af9"/><path d="M18.331,8.753c1.251-.793,2.565-1.5,3.888-2.169a62.858,62.858,0,0,1-2.16,8.318c-1.071.984-2.133,1.977-3.213,2.953C17.188,14.8,17.782,11.776,18.331,8.753Z" style="fill:#5527f3"/><path d="M14.929,11.3a29.105,29.105,0,0,1,3.4-2.535c-.54,3.022-1.143,6.045-1.485,9.1A21.546,21.546,0,0,1,13.3,20.416C13.165,17.272,14.479,14.354,14.929,11.3Z" style="fill:#9618ec"/><path d="M7.478,20.52c1.287-3.824,4.608-6.471,7.451-9.233-.45,3.066-1.764,5.984-1.638,9.119-1.062.235-2.142.418-3.2.653-3.222.392-4.4,3.8-5.975,6.088-.4.157-1.206.444-1.611.6v-.383C4.5,25.354,6.542,23.221,7.478,20.52Z" style="fill:#e107e6"/></svg>