<svg xmlns="http://www.w3.org/2000/svg" viewBox="0 0 32 32"><title>file_type_light_rehype</title><path d="M13.046,15.584a2.107,2.107,0,0,0-1.231-.3,2.176,2.176,0,0,0-1.751.859,3.588,3.588,0,0,0-.7,2.337V23H7V13.543H9.361v1.949H9.4a3.265,3.265,0,0,1,1.064-1.556,2.542,2.542,0,0,1,1.6-.559,2.163,2.163,0,0,1,.977.176Z" style="fill:#d8a303"/><path d="M25,23H22.639V17.828q0-2.806-2.067-2.807a2.237,2.237,0,0,0-1.75.813,3.03,3.03,0,0,0-.713,2.078V23H15.737V9h2.372v6.113h.041a3.809,3.809,0,0,1,3.379-1.791Q25,13.322,25,17.173Z"/></svg>