<svg xmlns="http://www.w3.org/2000/svg" viewBox="0 0 32 32"><title>file_type_apache@2x</title><g id="apache"><path d="M22.22,6.58a28,28,0,0,1,7.24-2.33c-.06,1.46.44,3.23-.83,4.37-2.39,2.63-5.83,4-8.57,6.28A62.86,62.86,0,0,0,22.22,6.58Z" style="fill:#013af9"/><path d="M18.33,8.75c1.25-.79,2.56-1.5,3.89-2.17a62.86,62.86,0,0,1-2.16,8.32c-1.07,1-2.13,2-3.21,3C17.19,14.8,17.78,11.78,18.33,8.75Z" style="fill:#5527f3"/><path d="M14.93,11.3a29.11,29.11,0,0,1,3.4-2.53c-.54,3-1.14,6-1.48,9.1a21.55,21.55,0,0,1-3.55,2.55C13.17,17.27,14.48,14.35,14.93,11.3Z" style="fill:#9618ec"/><path d="M7.48,20.52c1.29-3.82,4.61-6.47,7.45-9.23-.45,3.07-1.76,6-1.64,9.12-1.06.24-2.14.42-3.2.65-3.22.39-4.4,3.8-6,6.09l-1.61.6v-.38C4.5,25.35,6.54,23.22,7.48,20.52Z" style="fill:#e107e6"/></g></svg>