<?xml version="1.0" encoding="UTF-8"?>
<svg width="32px" height="32px" viewBox="0 0 32 32" version="1.1" xmlns="http://www.w3.org/2000/svg" xmlns:xlink="http://www.w3.org/1999/xlink">
    <!-- Generator: Sketch 52.5 (67469) - http://www.bohemiancoding.com/sketch -->
    <title>Artboard</title>
    <desc>Created with Sketch.</desc>
    <g id="Artboard" stroke="none" stroke-width="1" fill="none" fill-rule="evenodd">
        <g id="file_type_yandex" transform="translate(2.000000, 2.000000)">
            <rect id="rect2987" fill="#E7322B" x="0" y="0" width="28" height="28" rx="14"></rect>
            <path d="M18.6934323,3 L15.518036,3 C12.3979945,3 9.75189996,5.49332955 9.75189996,10.3335588 C9.75189996,13.2377115 11.0333159,15.3787132 13.3171999,16.4347963 L9.05586342,24.5312075 C8.91638683,24.7954495 9.05586342,25 9.27810496,25 L11.2559871,25 C11.4233558,25 11.5347254,24.9415075 11.5904469,24.7955265 L15.4623146,16.8454709 L16.8548853,16.8454709 L16.8548853,24.7955265 C16.8548853,24.883235 16.9386457,25 17.0495124,25 L18.7771193,25 C18.9442838,25 19,24.912517 19,24.7661675 L19,3.29330678 C19,3.08770741 18.8884942,3 18.6934323,3 Z M16.8548853,14.9685638 L15.6849752,14.9685638 C13.8466431,14.9685638 12.0641738,13.5600792 12.0641738,10.0402526 C12.0641738,6.37294904 13.7351372,4.87698189 15.4342024,4.87698189 L16.8548853,4.87698189 L16.8548853,14.9685638 Z" id="path9" fill="#FFFFFF" fill-rule="nonzero"></path>
        </g>
    </g>
</svg>