<svg xmlns="http://www.w3.org/2000/svg" viewBox="0 0 32 32"><title>file_type_bosque</title><path d="M30,3.937v5.9H19.782c-.327,0-.281-.042-.281.285q0,3.048,0,6.1c0,.669,0,1.339,0,2.008l0,4.371c0,.434,0,.869,0,1.3a1.367,1.367,0,0,1-1.336,1.36q-4.579,0-9.161,0L9,24.267c.07,0,.14,0,.21,0h7.629a2.249,2.249,0,0,0,.347-.024,1.351,1.351,0,0,0,1.14-1.308q0-6.931,0-13.862a1.217,1.217,0,0,0-.111-.508,1.321,1.321,0,0,0-1.263-.824Q12.973,7.73,9,7.734L9,4.15a.881.881,0,0,1,.017-.211A1.181,1.181,0,0,1,10.22,3H28.859a1.187,1.187,0,0,1,1.09.812C29.963,3.854,29.955,3.907,30,3.937Z" style="fill:#1c601c"/><path d="M19.7,22.592l-.2,0c0,.434,0,.869,0,1.3a1.367,1.367,0,0,1-1.336,1.36q-4.579,0-9.161,0,0,1.324,0,2.65a.611.611,0,0,0,.013.112A1.173,1.173,0,0,0,10.2,29H28.786a1.171,1.171,0,0,0,1.17-.854c.01-.029,0-.069.044-.082V22.592Z" style="fill:#288928"/><path d="M18.322,9.07a1.217,1.217,0,0,0-.111-.508,1.321,1.321,0,0,0-1.263-.824Q12.973,7.73,9,7.734l-5.613,0A1.361,1.361,0,0,0,2,9.132V22.853a1.363,1.363,0,0,0,1.4,1.412l5.6,0c.07,0,.14,0,.21,0h7.629a2.249,2.249,0,0,0,.347-.024,1.351,1.351,0,0,0,1.14-1.308Q18.325,16,18.322,9.07Z" style="fill:#107c10"/><path d="M19.5,16.215q0-3.048,0-6.1c0-.327-.046-.285.281-.285H30v6.379H25.465Z" style="fill:#206e20"/><path d="M19.5,16.215l5.962,0H30v6.379H19.7l-.2,0,0-4.371C19.5,17.554,19.5,16.884,19.5,16.215Z" style="fill:#247b24"/><path d="M27.911,27.168a1.158,1.158,0,0,0,1.247.539c.051-.014.082-.012.08.053,0,.089,0,.179,0,.269s-.053.079-.1.088a1.313,1.313,0,0,1-1.128-.283,4.768,4.768,0,0,1-.522-.532.225.225,0,0,0-.165-.086,1.615,1.615,0,0,1-1.549-1.539,2.665,2.665,0,0,1,.074-.982,1.641,1.641,0,0,1,1.845-1.215,1.612,1.612,0,0,1,1.439,1.493A2.542,2.542,0,0,1,29,26.2a1.477,1.477,0,0,1-.985.932C27.98,27.14,27.951,27.153,27.911,27.168Zm.8-1.812a2.2,2.2,0,0,0-.079-.615,1.107,1.107,0,0,0-.918-.863,1.179,1.179,0,0,0-1.242.494,1.878,1.878,0,0,0,.017,1.994,1.217,1.217,0,0,0,2.069-.21A1.92,1.92,0,0,0,28.712,25.356Z" style="fill:#fefefe"/><path d="M21.79,25.231a.291.291,0,0,0,.051.019.8.8,0,0,1,.661.58.973.973,0,0,1-.218.974,1.051,1.051,0,0,1-.745.347c-.372.016-.746,0-1.119.011-.1,0-.086-.059-.086-.12q0-.963,0-1.927c0-.486,0-.973,0-1.459,0-.1.029-.127.126-.125.307.006.615,0,.923,0a1.347,1.347,0,0,1,.346.046.8.8,0,0,1,.632.674.878.878,0,0,1-.463.909C21.861,25.18,21.815,25.182,21.79,25.231Zm-1.034.884c0,.189,0,.378,0,.567,0,.062.011.1.083.1a6,6,0,0,0,.671-.015.617.617,0,0,0,.565-.436.6.6,0,0,0-.466-.817,3.846,3.846,0,0,0-.781-.039c-.068,0-.072.04-.071.092C20.757,25.747,20.756,25.931,20.756,26.115Zm0-1.61c0,.042,0,.085,0,.127,0,.146-.061.34.023.424s.292.027.444.03a.727.727,0,0,0,.5-.16.6.6,0,0,0,.188-.63.457.457,0,0,0-.41-.353,4.168,4.168,0,0,0-.67-.025c-.068,0-.073.037-.072.091C20.757,24.174,20.756,24.339,20.756,24.505Z" style="fill:#fefefe"/><path d="M25.13,24.071a1.512,1.512,0,0,0-1.1-.179.524.524,0,0,0-.464.412.547.547,0,0,0,.285.6c.224.146.471.248.7.381a2.467,2.467,0,0,1,.445.317.9.9,0,0,1-.3,1.51,2.124,2.124,0,0,1-1.492-.042c-.048-.018-.094-.04-.092-.108,0-.135,0-.271,0-.431a1.746,1.746,0,0,0,.833.308,1.248,1.248,0,0,0,.512-.043.527.527,0,0,0,.223-.9,1.484,1.484,0,0,0-.367-.256c-.243-.131-.5-.244-.725-.4a.925.925,0,0,1-.468-.7.848.848,0,0,1,.482-.883,1.926,1.926,0,0,1,1.444-.09c.051.014.093.036.091.105C25.127,23.8,25.13,23.922,25.13,24.071Z" style="fill:#fefefe"/><path d="M13.785,21.26c-.421,0-.83,0-1.239,0-.084,0-.081-.069-.1-.116q-.523-1.4-1.043-2.8l-.954-2.557c-.011-.029-.024-.059-.035-.088-.056.008-.054.055-.068.085Q9.12,18.461,7.9,21.134a.18.18,0,0,1-.2.129c-.381-.008-.764,0-1.163,0,.175-.39.344-.767.514-1.143q1.353-3,2.706-5.991a.254.254,0,0,0,.006-.214c-.155-.41-.3-.822-.457-1.233a1.735,1.735,0,0,0-.219-.426.932.932,0,0,0-.786-.416c-.178,0-.355,0-.532,0-.088,0-.123-.015-.121-.115.008-.284,0-.567,0-.851,0-.049-.016-.105.07-.1a6.861,6.861,0,0,1,1.366.089,1.707,1.707,0,0,1,1.289,1.155c.691,1.891,1.392,3.778,2.089,5.666l1.269,3.436C13.75,21.159,13.765,21.2,13.785,21.26Z" style="fill:#fefefe"/></svg>