<svg xmlns="http://www.w3.org/2000/svg" fill="none" viewBox="0 0 32 32"><circle cx="16" cy="16" r="14" fill="#2dcc9f"/><path fill="#c8eeee" d="m23.35 19.54-1.83 3.87V12.12l1.83-1.58z"/><path fill="#9deeee" d="M21.68 19.16S23.79 17 23 18.74c-.22.48-.78.93-1.48 1.31v-.84z" opacity=".35"/><path fill="azure" d="M8.89 12.12h12.63v11.34H8.89z"/><g fill="#9deeee" opacity=".35"><path d="M17.03 21.73 17 21.7h.02zM21.52 20.05a21 21 0 0 1-4.5 1.63l-.2-.95 4.7-1.52zM11.4 20.68l1 .89h.04c-.58.11-1.18.03-1.7-.24q-.9-.38-1.85-.58v-.97l.11-.05z"/></g><path fill="#94b3ca" d="M13.62 15.86q.03-.54-.09-1.06-.05-.25-.21-.46a.5.5 0 0 0-.41-.18.6.6 0 0 0-.41.21q-.15.22-.21.46-.12.52-.09 1.06c0 .1-.07.11-.08 0a4 4 0 0 1 .06-1.1q.05-.29.23-.52a1 1 0 0 1 .23-.19.62.62 0 0 1 .81.17q.09.12.14.26.05.13.08.27.05.27.05.55v.55c0 .12-.07.11-.07 0zm3.17 0v-.55a3 3 0 0 1 .21-1.06.6.6 0 0 1 .58-.25q.15 0 .29.07a1 1 0 0 1 .23.19q.18.23.23.52.06.27.06.55v.55c0 .1-.09.09-.08 0q.03-.54-.09-1.06a1 1 0 0 0-.22-.46.55.55 0 0 0-.64-.17 1 1 0 0 0-.18.14q-.15.22-.21.46-.1.52-.09 1.06c0 .12-.06.13-.07 0z"/><path fill="#ff8aff" d="M15.35 18a.9.9 0 0 0-.89.54.9.9 0 0 0 .83.75 1.1 1.1 0 0 0 .86-.79 1 1 0 0 0-.8-.5"/><path fill="#733335" d="M14.24 16.58q-.04.98.21 1.93a.94.94 0 0 1 1.68 0q.31-.92.32-1.89a1.75 1.75 0 0 1-2.21-.04"/><path fill="#cdeeee" d="M12.77 18.37c1.07 0 .67 2.73.65 3.6s.16 1.66.18 2.24.31 2.3-1 2.29-.5-3.37-.49-4.07c.01 0-.41-4.09.66-4.06m3.63 0c-1.07 0-.67 2.73-.65 3.6s-.16 1.66-.18 2.24-.31 2.3 1 2.29.5-3.37.49-4.07c0 0 .42-4.09-.65-4.06z"/><g fill="#9deeee" opacity=".35"><path d="M12.7 18.38q-.2.91-.22 1.85a.77.77 0 0 0 1 .79l-.03.5-1.03.58a18 18 0 0 1-.16 2.31 2.4 2.4 0 0 0 .39 2.09h-.05c-1.31-.01-.5-3.37-.49-4.07 0-.05-.39-3.92.6-4.05M16.41 18.37h.09q-.15.93-.18 1.86a.8.8 0 0 0 .82.83l-.02.59-.86.45q-.03 1.16-.2 2.31a2.4 2.4 0 0 0 .37 2.08c-1.15-.11-.88-1.72-.86-2.28.02-.58.2-1.37.18-2.24s-.42-3.6.65-3.6z"/></g><path fill="#249e7c" d="M9.1 6.52h.19v4.39H9.1zM10.63 8h.18v1.57h-.18zm12.2-2.2H23v3.46h-.18V5.85zm-1.59 2.43h.18V10h-.18z"/><path fill="#ddf5f5" d="M21.94 17.34s.07-.87.76-.68a1.55 1.55 0 0 1 0 2.26c-1 1-2.3 1.67-3.7 1.89-1.41.34-1.35.7-2.68.85s-1.6-.46-1.59-1 .49-1.21 1.7-1.18 1.07.48 2.29.27a8 8 0 0 0 2.91-1.15c.42-.32.79-.76.31-1.26m-13.08.23A1.5 1.5 0 0 0 7.61 19c.12 1.13 1.1 1.37 2.23 1.63s.92.79 2.28.92 1.9-.49 1.77-1.29-1.48-.76-3-.77a2.3 2.3 0 0 1-2-.72v-1.2z"/><g fill="#c2f5f5" opacity=".35"><path d="m22.9 18.67-.2.25c-1 1-2.3 1.67-3.7 1.89-1.41.34-1.35.7-2.68.85s-1.6-.46-1.6-1l.02-.1c.12.22.43.49 1.24.46q.98.02 1.85-.43c1 0 1.99-.22 2.88-.66a7 7 0 0 0 2.2-1.26M8.89 17.57v1.05l-.07.08a.66.66 0 0 0 .21 1 14 14 0 0 1 1.92.85 3.4 3.4 0 0 0 2.95.1c-.09.6-.65 1-1.78.9-1.36-.13-1.15-.66-2.28-.92s-2.11-.5-2.23-1.63a1.5 1.5 0 0 1 1.25-1.43z"/></g><path fill="#d0f5f5" d="M8.92 12.11v.01h-.03v.01l-.01.01-.01-.05zM21.51 12.12H8.92l2.59-1.57h11.83z"/></svg>