<svg viewBox="0 0 32 32" xmlns="http://www.w3.org/2000/svg" xmlns:xlink="http://www.w3.org/1999/xlink"><linearGradient id="a" gradientUnits="userSpaceOnUse" x1="29.662" x2="21.419" y1="18.026" y2="20.234"><stop offset="0" stop-color="#f00"/><stop offset="1" stop-color="#ff6a6a"/></linearGradient><linearGradient id="b" x1="24.588" x2="18.776" xlink:href="#a" y1="9.748" y2="15.56"/><linearGradient id="c" gradientUnits="userSpaceOnUse" x1="18.466" x2="15.924" y1="6.619" y2="13.603"><stop offset="0" stop-color="#cfa40c"/><stop offset="1" stop-color="#edd480"/></linearGradient><linearGradient id="d" x1="13.17" x2="13.17" xlink:href="#c" y1="6.51" y2="12.997"/><linearGradient id="e" x1="8.808" x2="10.988" xlink:href="#c" y1="8.486" y2="13.161"/><linearGradient id="f" gradientUnits="userSpaceOnUse" x1="5.505" x2="8.546" y1="11.477" y2="14.519"><stop offset="0" stop-color="#11a119"/><stop offset="1" stop-color="#37ae3d"/></linearGradient><linearGradient id="g" x1="3.639" x2="6.883" xlink:href="#f" y1="14.285" y2="16.158"/><linearGradient id="h" x1="2.265" x2="5.379" xlink:href="#f" y1="17.799" y2="18.933"/><linearGradient id="i" x1="2" x2="4.833" xlink:href="#f" y1="21.614" y2="21.614"/><linearGradient id="j" gradientUnits="userSpaceOnUse" x1="20.662" x2="18.026" y1="18.949" y2="17.428"><stop offset=".5" stop-color="#646464"/><stop offset="1" stop-color="#cbcbcb"/></linearGradient><linearGradient id="k" x1="16.021" x2="16.021" xlink:href="#j" y1="25.264" y2="22.691"/><path d="m27.828 13.574a14.676 14.676 0 0 1 .835 1.542 14.964 14.964 0 0 1 1.257 7.784h-7.787a10.377 10.377 0 0 0 -.967-4.424z" fill="url(#a)"/><path d="m17.753 14.43a10.074 10.074 0 0 1 2.772 2.878l6.273-5.2a15.54 15.54 0 0 0 -4.988-4.15z" fill="url(#b)"/><path d="m14.781 13.086a8.827 8.827 0 0 1 2.376.966l3.509-6.622a12.7 12.7 0 0 0 -4.645-.952z" fill="url(#c)"/><path d="m14.364 13 .612-6.488a12.46 12.46 0 0 0 -3.611.813l.507 5.638a7.219 7.219 0 0 1 2.492.037" fill="url(#d)"/><path d="m10.948 13.179-.683-5.373a14.588 14.588 0 0 0 -2.492 1.573l1.74 4.42a7.518 7.518 0 0 1 1.435-.619" fill="url(#e)"/><path d="m8.86 14.206-2.386-3.695c-.453.44-.79.82-1.006 1.074q-.227.267-.436.538l2.448 3.264a8.87 8.87 0 0 1 1.38-1.182" fill="url(#f)"/><path d="m7.046 15.875-2.711-2.763a14.259 14.259 0 0 0 -1.25 2.429l3.007 1.71a9.826 9.826 0 0 1 .954-1.376" fill="url(#g)"/><path d="m5.527 18.393-2.77-1.945a15.452 15.452 0 0 0 -.63 2.83l2.906.607a10.343 10.343 0 0 1 .494-1.492" fill="url(#h)"/><path d="m4.833 20.9a10.684 10.684 0 0 0 -.1 2h-2.64a14.333 14.333 0 0 1 -.064-2.573z" fill="url(#i)"/><path d="m22.551 12.478-7.8 10.622a1.544 1.544 0 0 1 2.749 1.328z" fill="url(#j)"/><path d="m16.021 25.522a1.544 1.544 0 1 1 1.092-.452 1.533 1.533 0 0 1 -1.092.452z" fill="#646464"/><path d="m17.308 23.978a1.287 1.287 0 1 1 -.377-.91 1.283 1.283 0 0 1 .377.91z" fill="url(#k)"/></svg>