<svg viewBox="0 0 32 32" xmlns="http://www.w3.org/2000/svg"><g fill="#95538e"><path d="m14.188 19.163-2.967-5.218-6.388 11.248a1.679 1.679 0 0 0 1.459 2.507h3.952a1.683 1.683 0 0 0 1.46-.85l2.482-4.371a3.366 3.366 0 0 0 .002-3.316z"/><path d="m12.965 14.057a3.358 3.358 0 0 0 2.925 1.7h5.86l-7.332-12.907a1.677 1.677 0 0 0 -1.453-.85h-3.96a1.679 1.679 0 0 0 -1.679 1.678 1.661 1.661 0 0 0 .22.831z"/><path d="m27.171 25.191-3.528-6.262a3.355 3.355 0 0 0 -2.927-1.712h-5.851l5.42 9.623a1.675 1.675 0 0 0 1.462.854h3.96a1.679 1.679 0 0 0 1.464-2.5z"/><path d="m16.015 22.259-2.234 3.87a2.58 2.58 0 0 0 2.234 3.871 2.58 2.58 0 0 0 2.235-3.871z"/></g></svg>