<svg xmlns="http://www.w3.org/2000/svg" xmlns:xlink="http://www.w3.org/1999/xlink" viewBox="0 0 32 32"><defs><linearGradient id="a" x1="-611.348" y1="-67.488" x2="-600.272" y2="-65.335" gradientTransform="matrix(1.437, 0, 0, -1.437, 894.417, -82.292)" gradientUnits="userSpaceOnUse"><stop offset="0" stop-color="#0f6067"/><stop offset="0.5" stop-color="#05abac"/><stop offset="1" stop-color="#58bec4"/></linearGradient><linearGradient id="b" x1="-603.594" y1="-77.699" x2="-602.011" y2="-59.604" gradientTransform="matrix(1.437, 0, 0, -1.437, 894.417, -82.292)" gradientUnits="userSpaceOnUse"><stop offset="0" stop-color="#117c83"/><stop offset="0.5" stop-color="#21b5b5"/><stop offset="1" stop-color="#7ed4d4"/></linearGradient><linearGradient id="c" x1="-612.757" y1="-59.906" x2="-616.934" y2="-72.76" gradientTransform="matrix(1.437, 0, 0, -1.437, 894.417, -82.292)" gradientUnits="userSpaceOnUse"><stop offset="0" stop-color="#9accd3"/><stop offset="0.5" stop-color="#72aeb3"/><stop offset="1" stop-color="#317d7f"/></linearGradient><linearGradient id="d" x1="-621.851" y1="-74.579" x2="-614.84" y2="-72.301" gradientTransform="matrix(1.437, 0, 0, -1.437, 894.417, -82.292)" gradientUnits="userSpaceOnUse"><stop offset="0" stop-color="#21626e"/><stop offset="0.5" stop-color="#157c84"/><stop offset="1" stop-color="#03a3a5"/></linearGradient><linearGradient id="e" x1="-616.369" y1="-64.469" x2="-625.34" y2="-72.835" gradientTransform="matrix(1.437, 0, 0, -1.437, 894.417, -82.292)" gradientUnits="userSpaceOnUse"><stop offset="0" stop-color="#0b7c81"/><stop offset="0.5" stop-color="#068d90"/><stop offset="1" stop-color="#16b1b1"/></linearGradient><linearGradient id="f" x1="-608.072" y1="-74.678" x2="-603.488" y2="-70.966" gradientTransform="matrix(1.437, 0, 0, -1.437, 894.417, -82.292)" gradientUnits="userSpaceOnUse"><stop offset="0" stop-color="#0a8a8f"/><stop offset="0.5" stop-color="#0f7c82"/><stop offset="1" stop-color="#1a5964"/></linearGradient><linearGradient id="g" x1="-601.134" y1="-70.113" x2="-606.008" y2="-67.067" gradientTransform="matrix(1.437, 0, 0, -1.437, 894.417, -82.292)" gradientUnits="userSpaceOnUse"><stop offset="0" stop-color="#256a77"/><stop offset="0.5" stop-color="#0d9499"/><stop offset="1" stop-color="#06a0a2"/></linearGradient></defs><title>file_type_maya</title><path d="M21.6,3.462H30L18.767,24.211s-1.893-5.5-2.706-7.459" style="fill:url(#a)"/><path d="M23.669,29.118H30V3.462C29.995,16.869,24.36,29.118,23.669,29.118Z" style="fill:url(#b)"/><path d="M18.767,24.211H13.541L2,3.462c2.047-.26,6.135-.611,8.16-.776Z" style="fill:url(#c)"/><path d="M8.693,16.019C6.96,22.866,1.995,29.32,2,29.314c5.752,0,6.991-.835,6.991-1.276V16.54C8.89,16.37,8.794,16.194,8.693,16.019Z" style="fill:url(#d)"/><path d="M2,3.462V29.314c3.147-5.2,4.981-8.6,6.6-13.45C4.6,8.794,2,3.462,2,3.462Z" style="fill:url(#e)"/><polyline points="23.233 28.102 23.669 29.118 23.669 15.647 23.233 16.375" style="fill:url(#f)"/><path d="M23.647,15.673v13.4l.016.043c.452,0,6.332-14.5,6.332-25.656C29.995,3.462,26.406,10.947,23.647,15.673Z" style="fill:url(#g)"/></svg>