<svg xmlns="http://www.w3.org/2000/svg" xmlns:xlink="http://www.w3.org/1999/xlink" viewBox="0 0 32 32"><defs><linearGradient id="a" x1="16" y1="993" x2="16" y2="1021" gradientTransform="matrix(1, 0, 0, -1, 0, 1023)" gradientUnits="userSpaceOnUse"><stop offset="0" stop-color="#537895"/><stop offset="1" stop-color="#09203f"/></linearGradient></defs><title>file_type_nest_service_js</title><path d="M18.488,2a1.753,1.753,0,0,0-.564.1,1.6,1.6,0,0,1,.672.943c.007.051.022.087.029.138a.955.955,0,0,1,.015.131c.028.639-.167.719-.3,1.1a1.56,1.56,0,0,0,.1,1.43.951.951,0,0,0,.087.16c-.275-1.837,1.252-2.113,1.534-2.686a1.34,1.34,0,0,0-.716-1.067A1.594,1.594,0,0,0,18.488,2Zm2.3.414a.78.78,0,0,0-.014.21c-.008.058-.008.131-.015.189a1.73,1.73,0,0,1-.05.174c-.017.059-.036.118-.058.175s-.051.108-.08.166c-.021.03-.036.059-.058.088l-.043.065c-.036.051-.072.1-.108.145a1.246,1.246,0,0,1-.131.131v.007c-.043.036-.086.08-.137.116-.152.116-.325.2-.484.312a1.037,1.037,0,0,0-.145.109,1.091,1.091,0,0,0-.137.116,1.435,1.435,0,0,0-.132.138,1.411,1.411,0,0,0-.108.146c-.036.049-.069.1-.1.152s-.051.109-.08.167-.041.11-.058.167-.036.123-.05.181c-.008.029-.008.066-.015.095s-.007.058-.014.087c0,.058-.007.123-.007.181a.95.95,0,0,0,.007.131,1.015,1.015,0,0,0,.021.182,1.68,1.68,0,0,0,.037.174c.021.058.036.116.057.174.015.036.037.073.051.1l-1.663-.646c-.282-.08-.557-.153-.839-.218l-.455-.109a13.265,13.265,0,0,0-1.316-.2c-.015,0-.022-.007-.037-.007a12.713,12.713,0,0,0-1.294-.066c-.318,0-.636.015-.947.037-.441.029-.882.087-1.324.159-.108.015-.216.037-.325.058-.224.044-.441.095-.651.146l-.325.087c-.109.043-.21.094-.311.138l-.239.108c-.014.008-.029.008-.036.015-.072.036-.137.065-.2.1a.455.455,0,0,0-.051.021c-.079.037-.159.08-.224.117-.051.021-.1.05-.145.072a.413.413,0,0,1-.065.036c-.065.037-.13.073-.188.109a1.935,1.935,0,0,0-.173.109c-.051.037-.1.066-.145.1-.007.007-.014.007-.022.014-.043.029-.094.066-.137.1L7.808,6.8,7.7,6.886c-.014.007-.029.021-.043.029-.036.029-.073.065-.109.094a.081.081,0,0,1-.029.029c-.043.044-.087.08-.13.124-.007,0-.007.007-.014.014-.044.036-.087.08-.13.123-.008.008-.008.015-.015.015-.036.036-.072.073-.108.116-.015.015-.037.029-.051.044-.036.043-.08.087-.123.13-.007.015-.022.022-.029.037-.058.058-.108.116-.166.174l-.022.022a4.419,4.419,0,0,1-.369.355,4.154,4.154,0,0,1-.405.32c-.144.1-.282.188-.433.276a4.528,4.528,0,0,1-.456.217c-.152.066-.311.124-.47.175a8.373,8.373,0,0,1-.882.21,1.543,1.543,0,0,0-.181.022c-.065.014-.123.029-.181.043l-.173.066c-.058.022-.116.051-.174.08a1.291,1.291,0,0,0-.159.1,1.231,1.231,0,0,0-.145.124,1.271,1.271,0,0,0-.144.13c-.044.051-.087.1-.123.146a.958.958,0,0,0-.109.167,1.135,1.135,0,0,0-.1.167,1.625,1.625,0,0,0-.079.188c-.022.058-.044.124-.065.189a1.282,1.282,0,0,0-.037.174c0,.008-.007.015-.007.022-.014.065-.014.152-.022.2A.847.847,0,0,0,2,11.35a.375.375,0,0,0,.007.1.721.721,0,0,0,.029.138,1.03,1.03,0,0,0,.051.13v.007a1.035,1.035,0,0,0,.079.131,1.309,1.309,0,0,0,.094.131c.036.036.08.08.123.116a.963.963,0,0,0,.138.116,1.661,1.661,0,0,0,.441.32c.036.021.072.036.115.058.008,0,.015.007.022.007a.057.057,0,0,0,.007.036,1.282,1.282,0,0,0,.037.174.994.994,0,0,0,.057.175c.022.043.037.087.058.13a.139.139,0,0,0,.022.037c.029.058.058.108.087.159l.108.153c.036.043.08.094.123.138s.087.08.137.123a.026.026,0,0,0,.015.007,1.28,1.28,0,0,0,.13.1,1.146,1.146,0,0,0,.159.094,1.209,1.209,0,0,0,.166.08.734.734,0,0,0,.145.051c.007.007.015.007.029.015l.094.021a2.877,2.877,0,0,0,.029.893c.065.145.383-.3.7-.806a4.461,4.461,0,0,0,0,1.264c.08.181.514-.385.89-1.009a8.361,8.361,0,0,1,10.1,6.15v0a8.465,8.465,0,0,1,.2,1.236,1.417,1.417,0,0,0-1.5-1.111,3.782,3.782,0,0,1-1.179,1.655,4.657,4.657,0,0,0-.072-1.452,4.7,4.7,0,0,1-.9,1.83h0a2.018,2.018,0,0,1-1.735-.784c-.029-.022-.036-.066-.058-.095a1.323,1.323,0,0,1-.058-.152.622.622,0,0,1-.043-.153,1.209,1.209,0,0,1-.007-.159V21.3a1,1,0,0,1,.036-.153,1.351,1.351,0,0,1,.05-.152,1.437,1.437,0,0,1,.087-.153c.123-.348.123-.631-.1-.8a.855.855,0,0,0-.137-.073c-.029-.007-.066-.021-.094-.029a.577.577,0,0,1-.058-.022,1.341,1.341,0,0,0-.152-.036.559.559,0,0,0-.152-.022,1.219,1.219,0,0,0-.159-.014c-.036,0-.072.007-.109.007a.57.57,0,0,0-.159.022,1.131,1.131,0,0,0-.152.029.993.993,0,0,0-.151.051l-.145.065c-.043.022-.087.051-.137.073-1.685,1.1-.68,3.688.47,4.435a3.613,3.613,0,0,0-1,.269l-.015.014a6.832,6.832,0,0,0,.976.487c.463.152.955.29,1.172.348v.008a7.008,7.008,0,0,0,1.822.13,6.891,6.891,0,0,0,6.306-5.895c.014.066.029.124.043.189h0c.022.131.051.269.065.407v.007a1.514,1.514,0,0,1,.029.189v.029a1.5,1.5,0,0,1,.014.189,1.905,1.905,0,0,1,.015.239v.116c0,.037.007.08.007.116s-.007.088-.007.131v.1c0,.051-.007.094-.007.145a.37.37,0,0,1-.008.094c0,.051-.007.1-.007.16a.236.236,0,0,0-.007.065c-.007.058-.015.109-.022.167a.186.186,0,0,1-.007.066c-.007.072-.022.138-.029.21v.015c-.014.065-.029.138-.043.2v.022l-.044.2c0,.007-.007.022-.007.029a1.724,1.724,0,0,1-.051.2V23.2c-.021.072-.043.138-.057.2a.022.022,0,0,0-.008.014l-.065.218c-.029.073-.05.138-.079.211s-.051.145-.08.21-.058.138-.087.211h0a1.913,1.913,0,0,1-.094.2h0a.231.231,0,0,1-.022.051c-.007.007-.007.014-.014.022a6.852,6.852,0,0,1-2.032,2.439h0c-.058.036-.116.08-.173.123h0c-.015.015-.037.022-.051.037-.051.036-.1.072-.159.108l.022.044h.007l.3-.044h.008c.188-.029.376-.065.564-.1a1.223,1.223,0,0,0,.159-.037l.1-.021c.051-.008.1-.022.152-.029a.57.57,0,0,0,.13-.037,13.626,13.626,0,0,0,2.1-.7A11.6,11.6,0,0,1,15.1,30a11.839,11.839,0,0,0,2.465-.428A11.568,11.568,0,0,0,24.4,24.091a11.623,11.623,0,0,1-1.945,4.668,11.365,11.365,0,0,0,1.93-1.612,11.525,11.525,0,0,0,3.045-6.171,11.62,11.62,0,0,1,.209,3.5c5.221-7.311.434-14.89-1.569-16.886-.007-.015-.014-.022-.014-.036-.008.007-.008.007-.008.014s0-.007-.007-.014c0,.087-.007.174-.014.261-.022.167-.044.327-.073.486s-.079.32-.123.479a3.656,3.656,0,0,1-.173.465,4.9,4.9,0,0,1-.217.443,4.424,4.424,0,0,1-.26.414c-.094.131-.2.268-.3.392a4.865,4.865,0,0,1-.34.363c-.072.065-.137.123-.209.181l-.167.145a3.96,3.96,0,0,1-.4.283,4.761,4.761,0,0,1-.426.247c-.152.073-.3.138-.456.2a4.6,4.6,0,0,1-.47.152c-.159.044-.325.08-.484.109s-.333.043-.492.058c-.116.007-.231.014-.347.014-.166,0-.333-.014-.492-.029a4.7,4.7,0,0,1-.976-.2h-.012c.159-.014.318-.029.477-.058s.325-.065.484-.109.316-.093.471-.152a4.483,4.483,0,0,0,.455-.2c.152-.073.289-.153.434-.24a4.787,4.787,0,0,0,.774-.617,3.813,3.813,0,0,0,.34-.356q.162-.2.3-.392c.015-.021.029-.05.044-.072.072-.116.144-.233.209-.349.079-.144.152-.291.217-.442a4.812,4.812,0,0,0,.174-.465c.051-.165.087-.312.123-.472a3.982,3.982,0,0,0,.072-.486c.014-.159.029-.334.029-.494,0-.116-.007-.232-.015-.348-.014-.167-.036-.327-.057-.487a3.67,3.67,0,0,0-.109-.486c-.044-.159-.1-.312-.159-.465s-.13-.3-.2-.45a3.856,3.856,0,0,0-.246-.428c-.087-.138-.188-.269-.289-.4s-.217-.246-.333-.37c-.058-.058-.123-.123-.188-.181-.326-.254-.665-.494-1-.712a1.4,1.4,0,0,0-.145-.072,2.762,2.762,0,0,0-.687-.3Z" style="fill-rule:evenodd;fill:url(#a)"/><path d="M14.64,27.114l1.67-1a1.51,1.51,0,0,0,1.31,1.07c.67,0,1.1-.26,1.1-1.29v-7h2v7a2.78,2.78,0,0,1-2.435,3.087,2.839,2.839,0,0,1-.625,0,3.181,3.181,0,0,1-3.07-1.87m7.29-.22,1.67-1a2.23,2.23,0,0,0,2,1.24,1.181,1.181,0,0,0,1.431-.859h0c.007-.03.014-.06.019-.091,0-.7-.56-1-1.49-1.36L25,24.6c-1.48-.63-2.46-1.42-2.46-3.09A2.74,2.74,0,0,1,25.3,18.792h0c.081,0,.161,0,.242.012a3,3,0,0,1,2.91,1.64l-1.59,1a1.39,1.39,0,0,0-1.32-.88.889.889,0,0,0-.993.773.759.759,0,0,0-.007.107c0,.61.38.86,1.26,1.24l.51.22C28,23.654,29,24.414,29,26.134s-1.45,2.85-3.39,2.85a3.929,3.929,0,0,1-3.73-2.09" style="fill:#f7df1e"/></svg>