<svg width="150" height="150" viewBox="0 0 150 150" fill="none" xmlns="http://www.w3.org/2000/svg">
<path d="M108.615 74.9769C108.615 56.4548 93.5341 41.3728 75.0121 41.3726C66.4627 41.3726 58.6648 44.5767 52.7028 49.8709C48.9839 53.1735 43.2912 52.8357 39.9885 49.1168C36.6859 45.3977 37.0236 39.705 40.7427 36.4024C49.8511 28.3139 61.8584 23.3618 75.0121 23.3618C103.482 23.362 126.627 46.5073 126.627 74.9769C126.627 85.2451 123.601 94.828 118.421 102.872L125.414 109.483C129.028 112.9 129.187 118.601 125.77 122.215C122.353 125.829 116.654 125.988 113.04 122.572L100.149 110.384C96.5678 106.998 96.3736 101.363 99.713 97.7381C105.244 91.7345 108.615 83.7398 108.615 74.9769ZM23.3968 74.9884C23.3968 70.0146 27.4284 65.982 32.4022 65.982C37.376 65.982 41.4076 70.0146 41.4076 74.9884C41.4076 86.8427 47.5813 97.3129 56.9395 103.314C61.1262 105.999 62.3434 111.569 59.6586 115.756C56.9737 119.943 51.4035 121.16 47.2166 118.475C32.9265 109.313 23.397 93.2513 23.3968 74.9884Z" fill="#3E95FF"/>
<path d="M75.0116 90.5859C83.6259 90.5859 90.6093 83.6026 90.6093 74.9883C90.6093 66.3739 83.6259 59.3906 75.0116 59.3906C66.3973 59.3906 59.4139 66.3739 59.4139 74.9883C59.4139 83.6026 66.3973 90.5859 75.0116 90.5859Z" fill="#3E95FF"/>
</svg>
