<svg viewBox="0 0 32 32" xmlns="http://www.w3.org/2000/svg"><path d="m16 13.819 10.949 2.719c1.906-.746 3.051-1.692 3.051-2.719v-4.374c0-2.409-6.27-4.369-14-4.369s-14 1.959-14 4.369v4.375c0 2.411 6.267 4.369 14 4.369z" fill="#d33e44"/><path d="m26.948 16.538-10.948-2.72v4.37l10.949 2.72c1.905-.748 3.051-1.692 3.051-2.72v-4.37c0 1.028-1.146 1.973-3.052 2.72z" fill="#fff"/><path d="m2 13.818v4.37c0 2.411 6.267 4.366 14 4.366v-4.366c-7.733 0-14-1.96-14-4.37z" fill="#fff"/><g fill="#d33e44"><path d="m26.948 20.908-10.948-2.72v4.37l10.949 2.72c1.905-.747 3.051-1.692 3.051-2.72v-4.37c0 1.028-1.146 1.973-3.052 2.72z"/><path d="m2 18.188v4.37c0 2.411 6.267 4.366 14 4.366v-4.366c-7.733 0-14-1.958-14-4.37z"/></g></svg>