<svg viewBox="0 0 32 32" xmlns="http://www.w3.org/2000/svg"><path d="m24.053 7.707a2.306 2.306 0 0 1 2.314-2.3h-16.967a2.307 2.307 0 0 0 -2.315 2.3v18.885h14.653a2.307 2.307 0 0 0 2.315-2.3z" fill="#f2ebda"/><path d="m28.685 7.844h-4.632v16.449a2.307 2.307 0 0 1 -2.315 2.3h-17.014a2.345 2.345 0 0 1 -2.314-2.437h16.963a2.47 2.47 0 0 0 .942 1.978 2.291 2.291 0 0 0 .928-1.841v-16.586a2.306 2.306 0 0 1 2.314-2.3h2.814a2.344 2.344 0 0 1 2.314 2.437z" fill="#e2d9c5"/><path d="m17.816 19.8a11.156 11.156 0 0 1 1.917-4.122c2.21-2.507 6.642-3.244 9.857-3.162a28.516 28.516 0 0 0 -2.9 2.752 15.113 15.113 0 0 1 -4.821 3.22 25.123 25.123 0 0 0 -4.053 1.312z" fill="#dda064"/><path d="m17.816 19.8c.476-1.472 8.559-7.366 11.774-7.284a28.516 28.516 0 0 0 -2.9 2.752 15.113 15.113 0 0 1 -4.821 3.22 25.123 25.123 0 0 0 -4.053 1.312z" fill="#b57947"/><path d="m22.1 9.579a.409.409 0 0 0 -.41-.408h-8.74a.408.408 0 1 0 0 .816h8.737a.409.409 0 0 0 .413-.408zm-12.444.408h1.384a.408.408 0 1 0 0-.816h-1.384a.408.408 0 1 0 0 .816zm0 11.681a.408.408 0 1 0 0 .816h4.293a.408.408 0 1 0 0-.816zm6.426-3.758a.409.409 0 0 0 -.411-.407h-6.015a.408.408 0 1 0 0 .815h6.015a.41.41 0 0 0 .411-.408zm2.928-4.165a.409.409 0 0 0 -.411-.408h-8.943a.408.408 0 1 0 0 .815h8.944a.409.409 0 0 0 .41-.407zm5.043 5.2a.41.41 0 0 0 -.411.408v4.94a1.9 1.9 0 0 1 -1.9 1.892h-.051a1.943 1.943 0 0 1 -1.9-2.033.408.408 0 0 0 -.41-.4h-11.881v-16.045a1.9 1.9 0 0 1 1.9-1.892h15.019l-.035.038c-.014.015-.029.03-.043.046l-.043.049c-.014.016-.028.032-.041.049l-.041.051-.039.051c-.013.017-.026.035-.038.053s-.025.035-.037.052l-.036.055c-.011.018-.023.036-.034.055s-.022.037-.033.056-.022.038-.032.057-.02.038-.03.058l-.03.058-.027.057c-.009.02-.018.04-.026.06s-.017.041-.025.061l-.024.061-.021.063-.021.062c-.007.021-.013.044-.019.066s-.012.04-.017.061-.011.046-.016.069-.01.041-.014.061-.009.048-.013.072-.008.04-.011.06-.007.052-.01.078 0 .038-.007.056 0 .059-.007.088v.049.138 3.618a.411.411 0 0 0 .821 0v-3.072h4.222a.409.409 0 0 0 .292-.121.4.4 0 0 0 .118-.29 2.743 2.743 0 0 0 -2.735-2.84h-16.967a2.718 2.718 0 0 0 -2.72 2.707v16.042h-4.27a.41.41 0 0 0 -.41.411 2.742 2.742 0 0 0 2.724 2.84h17.014a2.719 2.719 0 0 0 2.725-2.707v-4.94a.409.409 0 0 0 -.41-.408zm.431-11.518.006-.037.01-.052.008-.039.011-.048.011-.041.013-.045.013-.041.015-.043.015-.042.014-.039.018-.042.016-.037.021-.043.016-.032.029-.046.01-.017a2.053 2.053 0 0 1 .125-.193l.045-.059.008-.009.046-.054.009-.01c.016-.018.032-.036.049-.053l.008-.011c.017-.018.035-.036.053-.053h.006c.019-.018.038-.036.058-.053a1.906 1.906 0 0 1 .9-.433l.085-.013c.027 0 .054-.007.082-.009h.016l.076-.005h.044.048a1.9 1.9 0 0 1 1.863 1.621h-3.748zm-19.76 18.758a1.9 1.9 0 0 1 -1.864-1.621h16.131c.006.042.012.084.02.126l.008.041c.005.027.01.055.016.082l.011.048c.006.025.011.049.018.073l.014.05c.006.023.012.046.019.069l.016.051.022.065.018.051.025.064.02.048c.009.022.018.043.028.064l.02.046c.01.022.021.044.032.066l.021.041c.013.026.027.051.041.076l.015.028c.02.034.04.067.061.1l.015.023c.016.026.032.051.049.075l.024.034.045.061.028.036.044.055.03.036c.015.018.031.035.046.052l.032.035.023.025zm25.276-13.671v-.014a.369.369 0 0 0 -.02-.11v-.006a.483.483 0 0 0 -.023-.052v-.006a.494.494 0 0 0 -.027-.042l-.006-.009c-.011-.014-.023-.027-.035-.04l-.009-.008a.276.276 0 0 0 -.037-.031.331.331 0 0 0 -.047-.029l-.009-.005a.461.461 0 0 0 -.051-.022.341.341 0 0 0 -.055-.014h-.012a.355.355 0 0 0 -.057-.006c-3.434-.088-7.912.733-10.176 3.3a10.578 10.578 0 0 0 -1.89 3.928c-.037.112-.073.225-.109.338v.014l-.693 2.447a.406.406 0 0 0 .284.5.387.387 0 0 0 .111.016.411.411 0 0 0 .395-.3l.643-2.269a12.791 12.791 0 0 1 2.275-.769c.444-.12.947-.256 1.556-.442a15.343 15.343 0 0 0 5-3.332 27.951 27.951 0 0 1 2.859-2.714.378.378 0 0 0 .041-.039.346.346 0 0 0 .034-.044l.006-.009a.4.4 0 0 0 .046-.1v-.01a.486.486 0 0 0 .006-.067.234.234 0 0 0 0-.038zm-9.959 3.433a8.73 8.73 0 0 1 4.352-2.427 16.519 16.519 0 0 1 1.634-.352 32.007 32.007 0 0 0 -3.579 2.069 32.733 32.733 0 0 0 -3.565 2.708 6.672 6.672 0 0 1 1.158-1.998zm6.349-.955a14.82 14.82 0 0 1 -4.64 3.108c-.6.182-1.092.316-1.53.434-.4.107-.756.2-1.112.317.159-.152.346-.322.566-.512a32.725 32.725 0 0 1 3.23-2.423 22.384 22.384 0 0 1 5.322-2.758c-.598.542-1.185 1.134-1.836 1.834z"/></svg>