<svg width="32" height="32" fill="none" version="1.1" viewBox="0 0 32 32" xmlns="http://www.w3.org/2000/svg"><g transform="matrix(.112 0 0 .11201 2 1.8944)" fill="#0dc09d"><path d="m0 47.02c39.45 2.6199 71.06 34.308 73.54 73.796h46.07c-2.56-64.956-54.68-117.17-119.61-119.87z"/><path d="m73.8 131.32c-2.62 39.447-34.31 71.055-73.8 73.535v46.067c64.96-2.56 117.18-54.677 119.88-119.6z"/><path d="m176.2 120.54c2.62-39.448 34.31-71.056 73.8-73.536v-46.067c-64.96 2.5598-117.18 54.676-119.88 119.6z"/><path d="m250 204.85c-39.45-2.62-71.06-34.307-73.54-73.795h-46.07c2.56 64.956 54.68 117.17 119.61 119.87z"/></g></svg>
