<svg xmlns="http://www.w3.org/2000/svg" viewBox="0 0 32 32"><title>file_type_poetry</title><path d="M10.49 30a27.854 27.854 0 0014.322-7.82L5 2v22.409L10.49 30z" fill="url(#prefix__paint0_radial_6_27)"/><path d="M5 24.409c12.15 0 22-10.033 22-22.409H5v22.409z" fill="url(#prefix__paint1_radial_6_27)"/><path style="mix-blend-mode:multiply" d="M5 24.409l.847.862c5.968-.223 11.359-2.784 15.315-6.812l-.603-.613a21.911 21.911 0 01-7.136 4.863A21.585 21.585 0 015 24.409z" fill="url(#prefix__paint2_linear_6_27)"/><path style="mix-blend-mode:multiply" d="M10.49 30a27.854 27.854 0 0014.322-7.82L5 2v22.409L10.49 30z" fill="url(#prefix__paint3_linear_6_27)"/><path style="mix-blend-mode:multiply" d="M24.812 22.18L5 2l18.01 21.857a28.51 28.51 0 001.802-1.677z" fill="url(#prefix__paint4_linear_6_27)"/><path style="mix-blend-mode:screen" d="M5 2l15.557 15.846c.138-.142.275-.285.41-.43L5 2z" fill="url(#prefix__paint5_radial_6_27)"/><defs><radialGradient id="prefix__paint0_radial_6_27" cx="0" cy="0" r="1" gradientUnits="userSpaceOnUse" gradientTransform="matrix(27.9775 0 0 28.497 23.754 33.95)"><stop stop-color="#6877EC"/><stop offset=".6" stop-color="#5362CF"/><stop offset="1" stop-color="#4352B9"/></radialGradient><radialGradient id="prefix__paint1_radial_6_27" cx="0" cy="0" r="1" gradientUnits="userSpaceOnUse" gradientTransform="matrix(36.6426 0 0 37.323 5.46 1.19)"><stop stop-color="#00D5FF"/><stop offset=".38" stop-color="#00B8EB"/><stop offset="1" stop-color="#0080C5"/></radialGradient><radialGradient id="prefix__paint5_radial_6_27" cx="0" cy="0" r="1" gradientUnits="userSpaceOnUse" gradientTransform="matrix(21.1753 0 0 21.5685 14.986 .264)"><stop stop-color="#fff"/><stop offset="1"/></radialGradient><linearGradient id="prefix__paint2_linear_6_27" x1="5.909" y1="5.365" x2="16.154" y2="27.494" gradientUnits="userSpaceOnUse"><stop stop-color="#294CA7"/><stop offset=".48" stop-color="#96A7D4"/><stop offset=".84" stop-color="#E1E6F3"/><stop offset="1" stop-color="#fff"/></linearGradient><linearGradient id="prefix__paint3_linear_6_27" x1="-8.99" y1="-5.215" x2="25.09" y2="33.975" gradientUnits="userSpaceOnUse"><stop stop-color="#6877EC"/><stop offset=".29" stop-color="#97A1F2"/><stop offset=".77" stop-color="#E2E4FB"/><stop offset="1" stop-color="#fff"/></linearGradient><linearGradient id="prefix__paint4_linear_6_27" x1="-5.184" y1="-12.295" x2="24.972" y2="22.985" gradientUnits="userSpaceOnUse"><stop stop-color="#8397CC"/><stop offset=".15" stop-color="#97A8D4"/><stop offset=".73" stop-color="#E2E6F3"/><stop offset="1" stop-color="#fff"/></linearGradient></defs></svg>