<svg xmlns="http://www.w3.org/2000/svg" viewBox="0 0 32 32"><title>file_type_vbproj</title><path d="M29.821,4.321,24.023,2,11.493,14.212,3.833,8.385l-1.654.837V22.8l1.644.827,7.65-5.827L24.023,30l5.8-2.321V4.321ZM4.65,19.192V12.818L8.2,15.985ZM16,15.985l7.082-5.3V21.324l-7.092-5.339Z" style="fill:#68217a"/><polygon points="15.995 15.985 23.077 10.686 23.077 21.324 15.985 15.985 15.995 15.985" style="fill:#fff"/><polygon points="4.65 19.192 4.65 12.818 8.196 15.985 4.65 19.192" style="fill:#fff"/><polygon points="17.631 32.03 11.87 32.03 7.511 15.53 14.216 15.53 14.749 18.269 15.282 15.53 21.985 15.53 17.631 32.03" style="fill:#efeef0"/><path d="M27.556,32.03H20.245V15.53l7.37.011a4.517,4.517,0,0,1,3.24,2.115,5.032,5.032,0,0,1,.69,2.592,5.164,5.164,0,0,1-.643,2.471c-.066.114-.137.225-.21.332a4.893,4.893,0,0,1,.6.771,5.041,5.041,0,0,1,.7,2.586,5.757,5.757,0,0,1-.623,2.89,5.328,5.328,0,0,1-3.7,2.713Z" style="fill:#efeef0"/><path d="M13,17.153l1.749,8.993L16.5,17.153H20L16.5,30.407H13L9.5,17.153Z" style="fill:#00519a"/><path d="M21.745,17.153h5.7a3.032,3.032,0,0,1,2.174,1.42,3.26,3.26,0,0,1,.428,1.656,3.437,3.437,0,0,1-.428,1.651,3.119,3.119,0,0,1-1.756,1.431,3.045,3.045,0,0,1,2.2,1.426,3.282,3.282,0,0,1,.435,1.7,4.041,4.041,0,0,1-.434,2.067,3.788,3.788,0,0,1-2.624,1.9h-5.69Zm3.5,5.207h.874a1.393,1.393,0,0,0,1.213-1.528,1.374,1.374,0,0,0-1.213-1.313h-.874Zm0,5.684H26.29A1.619,1.619,0,0,0,27.74,26.3a1.6,1.6,0,0,0-1.45-1.57H25.245Z" style="fill:#00519a"/></svg>