<svg viewBox="0 0 32 32" xmlns="http://www.w3.org/2000/svg"><path d="m4.5 2.375a2.562 2.562 0 0 1 1.361-.375h19.413.953a2.545 2.545 0 0 1 2.423 1.951 3.37 3.37 0 0 1 .072.862v11.176q-.786 0-1.573 0a1.814 1.814 0 0 0 -.22.022 5.236 5.236 0 0 0 -.581-.011c-.3.007-.61-.014-.914.014a2.275 2.275 0 0 0 -.4-.02h-4.739c-.2 0-.392.008-.587-.01l.1-.065q-3.177-1.907-6.353-3.813v3.889c-2.213-.005-4.427 0-6.64 0a2.274 2.274 0 0 0 -.251.021c-.212-.032-.427-.016-.642-.016-.284.006-.57-.015-.853.015a2.052 2.052 0 0 0 -.253-.022q-.771 0-1.541 0c.006-3.635 0-7.27 0-10.9a4.786 4.786 0 0 1 .071-1.131 2.541 2.541 0 0 1 1.154-1.587zm.54 2.188a.639.639 0 0 0 -.489.606v1.316a.639.639 0 0 0 .627.6h1.309a.638.638 0 0 0 .6-.608c.005-.426 0-.853 0-1.279a.644.644 0 0 0 -.329-.575.708.708 0 0 0 -.358-.078h-1.136a1.081 1.081 0 0 0 -.224.018zm20.341 0a.639.639 0 0 0 -.474.607v1.306a.638.638 0 0 0 .6.608c.436.005.872 0 1.308 0a.639.639 0 0 0 .627-.606c.006-.438 0-.876 0-1.314a.638.638 0 0 0 -.594-.621c-.348-.009-.7 0-1.045 0a1.98 1.98 0 0 0 -.422.024zm-20.339 3.817a.637.637 0 0 0 -.452.4 1.078 1.078 0 0 0 -.041.386v1.135a.637.637 0 0 0 .6.6c.4.008.795 0 1.192 0a.826.826 0 0 0 .395-.065.641.641 0 0 0 .36-.574c0-.426 0-.853 0-1.279a.638.638 0 0 0 -.6-.624c-.338-.008-.677 0-1.016 0a2.385 2.385 0 0 0 -.438.021zm20.338 0a.637.637 0 0 0 -.433.4 1.072 1.072 0 0 0 -.041.387v1.131a.638.638 0 0 0 .608.607c.406.006.812 0 1.218 0a.739.739 0 0 0 .38-.078.64.64 0 0 0 .335-.558c0-.428 0-.856 0-1.284a.637.637 0 0 0 -.593-.622c-.349-.009-.7 0-1.047 0a1.928 1.928 0 0 0 -.428.022zm-20.339 3.82a.639.639 0 0 0 -.491.608c0 .438-.005.877 0 1.315a.638.638 0 0 0 .627.6h1.3a.638.638 0 0 0 .608-.607c0-.436 0-.871 0-1.307a.638.638 0 0 0 -.605-.626c-.348-.007-.7 0-1.045 0a2.12 2.12 0 0 0 -.394.017zm20.335.006a.635.635 0 0 0 -.43.394 1.06 1.06 0 0 0 -.041.386v1.131a.638.638 0 0 0 .607.608c.435.005.87 0 1.306 0a.639.639 0 0 0 .628-.605c.006-.438 0-.876 0-1.313a.637.637 0 0 0 -.592-.622c-.349-.01-.7 0-1.046 0a1.908 1.908 0 0 0 -.431.015z" fill="#e75749"/><path d="m13.458 12.1q3.176 1.908 6.353 3.813l-.1.065q-3.127 1.872-6.251 3.748 0-1.868 0-3.736c-.001-1.295-.004-2.59-.002-3.89z" fill="#fff"/><path d="m3.275 15.988q.771 0 1.541 0a2.052 2.052 0 0 1 .253.022.645.645 0 0 0 -.409.273.883.883 0 0 0 -.111.518v1.045a.686.686 0 0 0 .685.689q.6 0 1.192 0a.68.68 0 0 0 .657-.569c.008-.447 0-.9 0-1.343a.632.632 0 0 0 -.521-.613 2.274 2.274 0 0 1 .251-.021h6.64q0 1.868 0 3.736 3.127-1.871 6.251-3.748c.2.018.391.007.587.01h4.741a2.275 2.275 0 0 1 .4.02.637.637 0 0 0 -.475.385.983.983 0 0 0 -.045.407v1.014a.677.677 0 0 0 .691.719q.58 0 1.16 0a.684.684 0 0 0 .686-.658c0-.328 0-.656 0-.984a1.074 1.074 0 0 0 -.1-.589.642.642 0 0 0 -.42-.292 1.814 1.814 0 0 1 .22-.022q.786 0 1.573 0c.011 1.721 0 3.443 0 5.165q0 3.147 0 6.293a2.567 2.567 0 0 1 -.612 1.651 2.539 2.539 0 0 1 -1.563.868 7.534 7.534 0 0 1 -.981.033h-18.842a9.27 9.27 0 0 1 -1.368-.048 2.557 2.557 0 0 1 -2-1.846 2.825 2.825 0 0 1 -.09-.746q0-5.233 0-10.466c.007-.3-.002-.602.009-.903zm1.795 3.843a.613.613 0 0 0 -.386.234.761.761 0 0 0 -.134.464v1.162a.685.685 0 0 0 .686.658h1.283a.687.687 0 0 0 .568-.716c0-.4 0-.794 0-1.191a.617.617 0 0 0 -.2-.458.712.712 0 0 0 -.487-.17h-1.136a1.039 1.039 0 0 0 -.194.017zm20.366 0a.62.62 0 0 0 -.522.58v1.222a.676.676 0 0 0 .69.718c.428 0 .857.005 1.285 0a.7.7 0 0 0 .562-.684q0-.507 0-1.013a.9.9 0 0 0 -.123-.568.661.661 0 0 0 -.532-.267c-.318 0-.636 0-.954 0a2.246 2.246 0 0 0 -.406.011zm-20.365 3.817a.609.609 0 0 0 -.4.249.766.766 0 0 0 -.124.448v1.132a.7.7 0 0 0 .6.688h1.376a.687.687 0 0 0 .567-.717c0-.4 0-.792 0-1.189a.617.617 0 0 0 -.2-.459.71.71 0 0 0 -.484-.17h-1.141a1.028 1.028 0 0 0 -.194.018zm20.362 0a.616.616 0 0 0 -.492.427.99.99 0 0 0 -.029.33v1.195a.681.681 0 0 0 .656.567h1.193a.689.689 0 0 0 .686-.719c0-.388 0-.776 0-1.164a.657.657 0 0 0 -.286-.545 1.461 1.461 0 0 0 -.787-.11c-.312.01-.629-.02-.94.018z" fill="#c0392b"/></svg>