<svg xmlns="http://www.w3.org/2000/svg" viewBox="0 0 32 32"><title>file_type_scss2@2x</title><g id="scss2"><path d="M16,2A14,14,0,1,1,2,16,14,14,0,0,1,16,2Z" style="fill:#c69;fill-rule:evenodd"/><path d="M24.78,8c-.63-2.49-4.76-3.3-8.66-1.92A19.61,19.61,0,0,0,9.48,9.89c-2.15,2-2.49,3.76-2.35,4.49.5,2.58,4,4.27,5.49,5.52h0c-.43.21-3.56,1.8-4.3,3.42s.12,2.94.72,3.11a4.4,4.4,0,0,0,4.75-1.92,4.82,4.82,0,0,0,.47-4.29,5.64,5.64,0,0,1,2.14-.12c2.46.29,2.94,1.82,2.85,2.46a1.62,1.62,0,0,1-.78,1.1c-.17.11-.22.14-.21.22s.1.11.25.09a1.91,1.91,0,0,0,1.34-1.71c.06-1.5-1.38-3.19-3.93-3.14a6.74,6.74,0,0,0-2.19.3l-.11-.12C12,17.61,9.11,16.42,9.23,14.15c0-.82.33-3,5.6-5.62,4.32-2.15,7.78-1.56,8.38-.25.85,1.88-1.85,5.36-6.33,5.86A3.37,3.37,0,0,1,14,13.44c-.24-.26-.27-.27-.36-.22s-.05.31,0,.45a2.66,2.66,0,0,0,1.62,1.27,8.59,8.59,0,0,0,5.26-.52C23.28,13.36,25.41,10.44,24.78,8ZM13.22,20.66a3.58,3.58,0,0,1,0,2.09l-.08.21-.09.2a3.91,3.91,0,0,1-.65.94c-.81.89-1.95,1.22-2.44.94s-.26-1.56.68-2.55a9.48,9.48,0,0,1,2.47-1.76h0Z" style="fill:#fff"/></g></svg>