<svg viewBox="0 0 32 32" xmlns="http://www.w3.org/2000/svg"><g fill="#ff931e"><path d="m8.533 12.742h3.733v3.734h-3.733z"/><path d="m14.133 12.742h3.733v3.734h-3.733z"/><path d="m19.733 12.742h3.733v3.734h-3.733z"/><path d="m8.533 18.342h3.733v3.734h-3.733z"/><path d="m14.133 18.342h3.733v3.734h-3.733z"/><path d="m19.733 18.342h3.733v3.734h-3.733z"/></g><path d="m27.367 4.92h-22.735a2.637 2.637 0 0 0 -2.632 2.632v16.9a2.637 2.637 0 0 0 2.632 2.628h22.735a2.637 2.637 0 0 0 2.633-2.632v-16.896a2.638 2.638 0 0 0 -2.633-2.632zm1.2 19.528a1.207 1.207 0 0 1 -1.2 1.2h-22.735a1.207 1.207 0 0 1 -1.2-1.2v-15.208h25.133v15.208z" fill="#675f58"/></svg>