<svg version="1.1" viewBox="0 0 32 32" xmlns="http://www.w3.org/2000/svg"><title>file_type_bruno</title><g transform="matrix(.96511 0 0 .96511 .075902 .47641)"><path d="m29.9 14.691c-0.57-2.2-1.39-4.31-2.65-6.23-0.65-0.99-1.42-1.89-2.47-2.46-0.51-0.27-1.12-0.34-1.68-0.53-0.29-0.1-0.6-0.19-0.85-0.36-2.25-1.52-4.68-2.25-7.4-1.81-1.33 0.22-2.57 0.69-3.7 1.43-0.15 0.1-0.3 0.23-0.47 0.25-1.72 0.21-2.86 1.32-3.88 2.57-1.77 2.16-2.84 4.69-3.66 7.32-0.48 1.53 0.07 3.01 0.76 4.37 0.69 1.34 1.53 2.6 2.34 3.87 0.33 0.52 0.72 0.48 0.97-0.08l0.88-2.09c0.1-0.31 0.04-0.7-0.03-1.04-0.4-2.02-0.69-4.04-0.41-6.1 0.09-0.68 0.27-1.37 0.48-2.02 0.06-0.19 0.39-0.3 0.59-0.44 0.12 0.24 0.38 0.54 0.32 0.73-0.87 2.71-0.44 5.39 0.09 8.08 0.08 0.4 0 0.88-0.14 1.27-0.14 0.38-0.12 0.67 0.08 1 0.83 1.37 1.73 2.67 3.27 3.37 0.55 0.25 0.51 0.72-0.03 1.07l1.2 0.44-0.23-2.91c-0.02-0.19-0.19-0.42-0.35-0.54-1.08-0.8-1.86-1.79-1.98-3.18-0.02-0.24-0.02-0.48 0-0.71 0.03-0.34 0.13-0.71 0.54-0.61 0.19 0.05 0.36 0.4 0.43 0.64 0.09 0.32 0.02 0.68 0.1 1 0.28 1.06 1 1.76 1.97 2.17 0.28 0.12 0.74 0 1.05-0.14 0.36-0.18 0.67-0.5 0.95-0.8 0.13-0.14 0.19-0.38 0.21-0.58 0.04-0.35-0.03-0.73 0.05-1.07 0.04-0.18 0.3-0.42 0.46-0.42s0.35 0.24 0.48 0.41c0.06 0.08 0.04 0.24 0.02 0.35-0.24 1.05 0.42 1.59 1.15 2.12 0.38 0.28 0.78 0.31 1.18 0.1 1.22-0.66 2.01-1.61 1.96-3.08-0.01-0.37 0.02-0.72 0.48-0.72 0.41 0 0.48 0.34 0.5 0.68 0.09 1.78-0.76 3.04-2.2 3.95-0.32 0.2-0.44 0.39-0.45 0.79 0 0.89-0.12 1.78-0.2 2.67l1.22-0.46c-0.51-0.5-0.47-0.84 0.14-1.14 1.62-0.8 2.44-2.28 3.23-3.79 0.07-0.14 0-0.39-0.07-0.56-0.28-0.59-0.28-1.17-0.15-1.8 0.49-2.27 0.78-4.55 0.28-6.86-0.07-0.31-0.24-0.61-0.24-0.92 0-0.24 0.2-0.48 0.31-0.72 0.2 0.14 0.51 0.24 0.6 0.44 0.52 1.26 0.66 2.59 0.56 3.93-0.11 1.52-0.38 3.03-0.57 4.55-0.03 0.21-0.05 0.45 0.02 0.64l0.91 2.14c0.23 0.49 0.6 0.55 0.91 0.13 1.41-1.92 2.67-3.92 3.14-6.3 0.13-0.65 0.16-1.37 0-2z" fill="#f1a842"/><path d="m20.84 26.951c-0.51-0.5-0.47-0.84 0.14-1.14 1.62-0.8 2.44-2.28 3.23-3.79 0.07-0.14 0-0.39-0.07-0.56-0.28-0.59-0.28-1.17-0.15-1.8 0.49-2.27 0.78-4.55 0.28-6.86-0.07-0.31-0.24-0.61-0.24-0.92 0-0.24-0.15-0.48 0.31-0.72 0.43-0.04 0.51 0.24 0.6 0.44 0.52 1.25 0.66 2.59 0.56 3.93-0.11 1.52-0.38 3.03-0.57 4.55-0.03 0.21-0.05 0.45 0.02 0.64l0.91 2.14c0.23 0.49 0.6 0.55 0.91 0.13 1.41-1.92 2.67-3.92 3.14-6.3 0.13-0.65 0.16-1.37 0-2-0.57-2.2-1.39-4.31-2.65-6.23-0.65-0.99-1.42-1.89-2.47-2.46-0.51-0.27-1.12-0.34-1.68-0.53-0.29-0.1-0.6-0.19-0.85-0.36-2.25-1.52-4.68-2.25-7.4-1.81-1.33 0.22-2.57 0.69-3.7 1.43-0.15 0.1-0.3 0.23-0.47 0.25-1.72 0.21-2.86 1.32-3.88 2.57-1.77 2.16-2.84 4.69-3.66 7.32-0.48 1.53 0.07 3.01 0.76 4.37 0.69 1.34 1.53 2.6 2.34 3.87 0.33 0.52 0.72 0.48 0.97-0.08l0.88-2.09c0.1-0.31 0.04-0.7-0.03-1.04-0.4-2.02-0.69-4.04-0.41-6.1 0.09-0.68 0.27-1.37 0.48-2.02 0.06-0.19 0.13-0.44 0.59-0.44 0.53 0.19 0.38 0.54 0.32 0.73-0.87 2.71-0.44 5.39 0.09 8.08 0.08 0.4 0 0.88-0.14 1.27-0.14 0.38-0.12 0.67 0.08 1 0.83 1.37 1.73 2.67 3.27 3.37 0.55 0.25 0.51 0.72-0.03 1.07-1.24-0.37-2.12-1.22-2.9-2.19l-1.11-1.54-0.45 0.8c-0.48 0.72-1.47 0.89-2 0.24-1.9-2.31-3.43-4.83-3.81-7.88-0.15-1.17 0.28-2.23 0.69-3.29 0.97-2.49 2.1-4.9 3.96-6.87 0.99-1.05 2.11-1.94 3.61-2.16 0.13-0.02 0.26-0.1 0.37-0.17 4-2.41 7.94-2.24 11.84 0.26 0.29 0.18 0.64 0.32 0.97 0.36 1.61 0.22 2.77 1.16 3.74 2.35 1.82 2.23 2.83 4.86 3.58 7.59 0.41 1.5 0.02 2.96-0.51 4.37-0.66 1.76-1.61 3.36-2.73 4.87-0.8 1.08-1.92 1.01-2.56-0.17-0.06-0.1-0.11-0.2-0.17-0.31-0.53 0.73-1 1.46-1.55 2.13-0.65 0.79-1.41 1.46-2.45 1.7zm-7.33 0.35-0.23-2.91c-0.02-0.19-0.19-0.42-0.35-0.54-1.08-0.8-1.86-1.79-1.98-3.18-0.02-0.24-0.02-0.48 0-0.71 0.03-0.34 0.13-0.71 0.54-0.61 0.19 0.05 0.36 0.4 0.43 0.64 0.09 0.32 0.02 0.68 0.1 1 0.28 1.06 1 1.76 1.97 2.17 0.28 0.12 0.74 0 1.05-0.14 0.36-0.18 0.67-0.5 0.95-0.8 0.13-0.14 0.19-0.38 0.21-0.58 0.04-0.35-0.03-0.73 0.05-1.07 0.04-0.18 0.3-0.42 0.46-0.42s0.35 0.24 0.48 0.41c0.06 0.08 0.04 0.24 0.02 0.35-0.24 1.05 0.42 1.59 1.15 2.12 0.38 0.28 0.78 0.31 1.18 0.1 1.22-0.66 2.01-1.61 1.96-3.08-0.01-0.37 0.02-0.72 0.48-0.72 0.41 0 0.48 0.34 0.5 0.68 0.09 1.78-0.76 3.04-2.2 3.95-0.32 0.2-0.44 0.39-0.45 0.79 0 0.89-0.12 1.78-0.2 2.67l-0.26 0.78c-0.51 1.53-1.34 2.02-2.99 1.85-1.43-0.14-2.34-0.84-2.69-2.25-0.04-0.17-0.11-0.33-0.17-0.49zm0.82-2.91c-0.04 1.26-0.01 2.47 0.48 3.6 0.12 0.29 0.38 0.64 0.65 0.71 0.62 0.17 1.28 0.22 1.92 0.25 0.43 0.02 0.72-0.25 0.89-0.66 0.47-1.12 0.61-2.29 0.56-3.49 0-0.16-0.14-0.36-0.27-0.45l-1.46-0.98c-0.31-0.25-0.5-0.28-0.79 0-0.54 0.53-1.11 1.03-1.97 1.03z"/><path d="m18.15 18.711c-1.09 0-1.88 0.09-2.63-0.03-0.58-0.09-1.14-0.42-1.68-0.69-0.11-0.05-0.13-0.31-0.16-0.48-0.01-0.07 0.03-0.15 0.06-0.23 0.8-2.42 0.57-2.19 2.87-2.18h1.55c0.44 0 0.77 0.2 0.93 0.61l0.58 1.5c0.06 0.18 0.05 0.52-0.07 0.6-0.54 0.38-1.12 0.7-1.45 0.89z" fill="#414141"/><path d="m21.54 11.181c0.56 0 1.01 0.5 1 1.1-0.01 0.54-0.39 1.01-0.82 1.01-0.56 0-1.05-0.41-1.05-0.88 0-0.83 0.28-1.23 0.86-1.24zm-8.16 1.18c0 0.52-0.46 0.93-1.05 0.93-0.43 0-0.8-0.46-0.8-1.01 0-0.62 0.43-1.11 1-1.1 0.57 0 0.84 0.38 0.86 1.18z"/><path d="m14.33 24.391c0.86 0 1.43-0.5 1.97-1.03 0.29-0.29 0.48-0.25 0.79 0 0.46 0.37 0.99 0.64 1.46 0.98 0.13 0.1 0.27 0.3 0.27 0.45 0.05 1.2-0.09 2.37-0.56 3.49-0.17 0.41-0.47 0.68-0.89 0.66-0.65-0.03-1.3-0.08-1.92-0.25-0.27-0.07-0.53-0.43-0.65-0.71-0.49-1.13-0.51-2.34-0.48-3.6z" fill="#e55947"/><path d="m20.02 17.051-0.62-1.56c-0.16-0.62-0.86-0.78-1.24-0.78h-2.88c-0.35 0.01-1.09 0.17-1.26 0.79-0.1 0.38-0.48 1.26-0.6 1.53-0.15 0.27-0.21 0.92 0.73 1.47l1.29 0.46 1-0.72-0.02-0.88h-0.79v0.48l-0.32 0.23-0.82-0.29c-0.33-0.2-0.38-0.36-0.36-0.4l0.66-1.69c0.04-0.13 0.34-0.19 0.49-0.19h2.88c0.15 0 0.45 0.06 0.49 0.19 0.14 0.52 0.64 1.64 0.66 1.69 0.01 0.04-0.03 0.2-0.3 0.36l-0.89 0.32-0.32-0.23v-0.47l-0.78-0.01v0.88l0.98 0.72 1.36-0.49c0.87-0.52 0.82-1.17 0.68-1.41z"/></g></svg>
