<?xml version="1.0" standalone="no"?><!-- Generator: Gravit.io --><svg xmlns="http://www.w3.org/2000/svg" xmlns:xlink="http://www.w3.org/1999/xlink" style="isolation:isolate" viewBox="0 0 190 200" width="190" height="200"><defs><clipPath id="_clipPath_lQKTdIgb2nTofT7zTNio5sdNnJcukdUa"><rect width="190" height="200"/></clipPath></defs><g clip-path="url(#_clipPath_lQKTdIgb2nTofT7zTNio5sdNnJcukdUa)"><g><path d=" M 10.78 107.58 C 10.78 68.07 46.631 35.993 90.789 35.993 C 134.947 35.993 170.798 68.07 170.798 107.58 C 170.798 147.09 134.947 179.167 90.789 179.167 C 46.631 179.167 10.78 147.09 10.78 107.58 Z " fill="rgb(81,139,164)"/><path d=" M 10.78 51.995 C 10.78 34.796 24.743 20.833 41.942 20.833 C 59.14 20.833 73.103 34.796 73.103 51.995 C 73.103 69.193 59.14 83.156 41.942 83.156 C 24.743 83.156 10.78 69.193 10.78 51.995 Z " fill="rgb(81,139,164)"/><path d=" M 125.319 53.258 C 125.319 40.94 137.395 30.94 152.269 30.94 C 167.144 30.94 179.22 40.94 179.22 53.258 C 179.22 65.576 167.144 75.576 152.269 75.576 C 137.395 75.576 125.319 65.576 125.319 53.258 Z " fill="rgb(81,139,164)"/><path d=" M 41.942 96.21 C 41.942 84.822 51.187 75.576 62.575 75.576 C 73.964 75.576 83.209 84.822 83.209 96.21 C 83.209 107.598 73.964 116.844 62.575 116.844 C 51.187 116.844 41.942 107.598 41.942 96.21 Z " fill="rgb(255,255,255)"/><path d=" M 111.002 97.473 C 111.002 89.571 117.417 83.156 125.319 83.156 C 133.221 83.156 139.636 89.571 139.636 97.473 C 139.636 105.375 133.221 111.791 125.319 111.791 C 117.417 111.791 111.002 105.375 111.002 97.473 Z " fill="rgb(255,255,255)"/><path d=" M 82.367 128.635 C 82.367 122.127 87.65 116.844 94.158 116.844 C 100.665 116.844 105.949 122.127 105.949 128.635 C 105.949 135.142 100.665 140.425 94.158 140.425 C 87.65 140.425 82.367 135.142 82.367 128.635 Z " fill="rgb(255,255,255)"/></g></g></svg>