<svg xmlns="http://www.w3.org/2000/svg" viewBox="0 0 32 32"><title>file_type_rmd</title><path d="M11.829,17.081l-.789,1.036a.453.453,0,0,1,0-.287A18.8,18.8,0,0,1,13.4,11.657a24.831,24.831,0,0,1,3.7-4.843,17.811,17.811,0,0,1,1.714-1.551,15.371,15.371,0,0,1,6.235-3A12.88,12.88,0,0,1,28.4,2.017c.193.008.385.042.6.066l-.2.837c-.221.739-.454,1.474-.656,2.218a.472.472,0,0,1-.469.4q-.968.095-1.931.217a2.539,2.539,0,0,0-.813.162l2.84.306-.046.247a2.5,2.5,0,0,0-.209.59,1.824,1.824,0,0,0-.185.45,25.087,25.087,0,0,1-2.872,5.664,17.47,17.47,0,0,1-2.325,2.681.747.747,0,0,1-.906.182,4.542,4.542,0,0,0-.555-.178,18.318,18.318,0,0,0-4.446-.658c-.2-.007-.394,0-.591,0,1.169.333,2.305.739,3.434,1.164l.117.042v0l1.391.642c-.208.189-.458.261-.65.42-.068.033-.137.063-.2.1a14.436,14.436,0,0,1-5.812,1.775c-.592.058-1.186.08-1.78.1-.154.006-.313.007-.4.154-.2.33-.4.666-.617,1.038h1.068c.4.006.8.009,1.192.02.419.011.524.122.537.551,0,.118.013.237.019.355-.006.087-.018.173-.019.26-.007.629-.048.678-.682.712-.135.007-.194.043-.189.188.008.273,0,.546,0,.819,0,.517,0,.517.512.461.388.043.776.009,1.164.019.1,0,.195,0,.292,0a1.151,1.151,0,0,1,1.226,1.058.5.5,0,0,0,.039.089c.008.141.009.284.026.424.136,1.126.278,2.252.413,3.379a.88.88,0,0,1-.79,1.011,3.148,3.148,0,0,1-.389.013Q9.962,30,4.4,30a5.143,5.143,0,0,1-.841-.053.9.9,0,0,1-.549-1c.059-.574.135-1.146.2-1.72.082-.692.151-1.386.251-2.075a1.122,1.122,0,0,1,1.2-1.113c.528-.03,1.058-.011,1.587-.013.086,0,.173,0,.259,0,.114,0,.151-.056.146-.162-.007-.152-.009-.305-.014-.457s.013-.32.014-.481c0-.4,0-.4-.391-.37-.424-.112-.462-.158-.469-.6,0-.284-.007-.568,0-.851s.125-.417.415-.436c.237-.015.476-.01.713-.01.941,0,1.882-.005,2.822.012a.6.6,0,0,0,.6-.328c.343-.581.718-1.142,1.079-1.712a.975.975,0,0,0,.162-.279,1.24,1.24,0,0,0,.234-.31A58.373,58.373,0,0,1,21.162,7.4c.672-.6,1.379-1.157,2.068-1.738a1.718,1.718,0,0,0,.428-.357,1.615,1.615,0,0,0-.492.311c-.092.056-.186.108-.275.168a32.242,32.242,0,0,0-2.755,2.133,52.625,52.625,0,0,0-6.553,6.853c-.594.736-1.186,1.474-1.718,2.258l-.033.053Z" style="fill:#a51e22"/><path d="M12.385,21.565a1.857,1.857,0,0,0,.02-.488c0-.041-.012-.106-.038-.117a.677.677,0,0,0-.442-.016c-.116.027-.056.148-.059.227,0,.131.008.262.012.392s-.013.283-.013.424c0,.269,0,.269.268.269s.269,0,.27-.269A1.33,1.33,0,0,0,12.385,21.565Z" style="fill:#fff"/><path d="M11.222,25.313a.7.7,0,0,0,.092-.465.813.813,0,0,0-1.023-.876,2.2,2.2,0,0,0-1.139.765,9.637,9.637,0,0,0-.662.928,3.061,3.061,0,0,0-.463,1.743.55.55,0,0,0,.3.572c.021-.132.044-.249.058-.368a8.469,8.469,0,0,1,.848-2.7.887.887,0,0,1,.6-.5c.1-.029.21-.052.315-.075a.562.562,0,0,1,.748.5l-.076.393a2.207,2.207,0,0,1-.929.914c-.143.073-.29.138-.435.207l-.665.147a1.455,1.455,0,0,0,.389.59,2.158,2.158,0,0,0,.908.716,1.241,1.241,0,0,0,.98.031.582.582,0,0,0,.383-.333,2.6,2.6,0,0,1-1.241-.1,4.016,4.016,0,0,1-.887-.534c-.052-.117-.2-.16-.238-.3.118-.049.254-.019.362-.087a2.462,2.462,0,0,0,1.564-.776A.673.673,0,0,0,11.222,25.313Z" style="fill:#fff"/></svg>