<svg viewBox="0 0 32 32" xmlns="http://www.w3.org/2000/svg"><path d="m3.654 13.112 10.227-8 .173-.026a12.111 12.111 0 0 1 1.794-.122 19.253 19.253 0 0 1 6.411 1.154 10.827 10.827 0 0 1 5.434 3.926l.109.166v5.31a2.067 2.067 0 0 1 -.177.945 1.181 1.181 0 0 1 -.43.484v7.638l-23.541 3.592z" fill="#4a1700"/><path d="m3.639 28.2v-15.095h.006l10.23-8 .176-.027a12.128 12.128 0 0 1 1.8-.123 19.268 19.268 0 0 1 6.416 1.155 10.841 10.841 0 0 1 5.433 3.931l.112.17v5.314a2.081 2.081 0 0 1 -.179.952 1.191 1.191 0 0 1 -.428.485v7.638h-.012zm.029-15.077v15.039l23.512-3.582v-7.634h.007a1.162 1.162 0 0 0 .425-.478 2.054 2.054 0 0 0 .176-.939v-5.31l-.107-.163a10.812 10.812 0 0 0 -5.427-3.92 19.238 19.238 0 0 0 -6.406-1.153 12.1 12.1 0 0 0 -1.791.122l-.169.026z"/><path d="m4.305 17.436 22.123-3.371v9.919l-22.123 3.37z" fill="#995700"/><path d="m26.37 14.116v9.831l-22.037 3.353v-9.827zm.087-.1-22.21 3.384v10l22.21-3.384v-10.001z" fill="#995700"/><g fill="#4a1700"><path d="m16.422 15.245v10.267l4.743-.719v-10.26z"/><path d="m16.45 25.512 5.581 3.322a12.3 12.3 0 0 0 4.028 1.166 1.7 1.7 0 0 0 1.821-1.65l-6.226-3.632z"/><path d="m26.059 30a4.746 4.746 0 0 1 -1.693-.328 2.406 2.406 0 0 1 -1.329-1.082c-2.912-5.894-7.806-15.8-7.857-15.931a6.928 6.928 0 0 0 -.466-.9c-.278-.142-.994-.511-1.718-.907-1.982-1.085-2.1-1.31-2.181-1.475l-.615-1.209v-1.216l.575-.08.061-.008-.355-2.034-.011-1.514a.5.5 0 0 1 .419-.575c.138-.019.877-.106.909-.11l.333-.039 1.883 3.825 1.51-.213-1.032-2.609-.015-1.377 1.636-.211a.722.722 0 0 1 .1-.007.787.787 0 0 1 .549.235l4.238 3.341.02.02a2.961 2.961 0 0 1 .5.786l.69 1.448v1.095l-.129.137c-.052.055-1.154 1.221-1.981 1.972 1.617 3.151 8.025 15.622 8.092 15.753v.007a1.581 1.581 0 0 1 .144.444l.025.039-.006 1.11-.005.035a1.663 1.663 0 0 1 -.556 1 2.4 2.4 0 0 1 -1.253.547 3.2 3.2 0 0 1 -.482.031z"/></g><path d="m21.729 7.879v.858a26.384 26.384 0 0 1 -2.605 2.473c-.638.386-.281-.772-.281-.772z" fill="#534741"/><path d="m18.907 11.3a.149.149 0 0 1 -.095-.03c-.193-.15.008-.81.017-.838l2.886-2.559.024.011v.863a26.483 26.483 0 0 1 -2.608 2.475.461.461 0 0 1 -.224.078zm-.051-.856c-.016.055-.2.67-.026.8.058.045.154.028.286-.052a26.133 26.133 0 0 0 2.6-2.466v-.82z" fill="#4a1700"/><path d="m27.88 28.35a1.5 1.5 0 0 1 -1.411 1.15c-.943.145-2.585-.26-3.006-1.116 0 0-7.79-15.766-7.841-15.9a8.008 8.008 0 0 0 -.572-1.089s-3.607-1.821-3.808-2.23l-.56-1.108v-.708l6.185 2.7 11.015 17.365z" fill="#534741"/><path d="m26.062 29.538a3.1 3.1 0 0 1 -2.612-1.152c-.318-.644-7.791-15.768-7.841-15.9a7.992 7.992 0 0 0 -.569-1.084c-.192-.1-3.611-1.829-3.811-2.234l-.561-1.111v-.73l.02.009 6.189 2.7 11.023 17.374v.938a1.516 1.516 0 0 1 -1.423 1.157 2.721 2.721 0 0 1 -.415.033zm-15.362-21.486.558 1.105c.2.4 3.765 2.205 3.8 2.223a8.079 8.079 0 0 1 .574 1.092c.05.128 7.763 15.737 7.84 15.895.431.876 2.086 1.247 2.991 1.108a1.489 1.489 0 0 0 1.4-1.132v-.931l-11.006-17.353-6.157-2.688z" fill="#4a1700"/><path d="m14.961 2.65v.854l1.647 4.141.261-1.153z" fill="#534741"/><path d="m16.594 7.651-1.647-4.144v-.857l.027-.006 1.91 3.847v.009l-.262 1.153zm-1.618-4.151 1.624 4.1.25-1.1-1.874-3.789z" fill="#4a1700"/><path d="m10.946 3.312.011 1.472.674 3.794h.23l-.064-1.371z" fill="#534741"/><path d="m11.876 8.592h-.257l-.676-3.806-.012-1.474h.029l.851 3.888zm-.233-.029h.2l-.064-1.356-.821-3.756.01 1.333z" fill="#4a1700"/><path d="m15.312 10.868s-3.868-1.986-4.069-2.394l-.559-1.108 6.19-.873-1.894-3.847 1.2-.169a.313.313 0 0 1 .26.108l4.24 3.346a2.662 2.662 0 0 1 .408.652l.637 1.295c.121.245-2.406 2.425-2.406 2.425a.2.2 0 0 0 -.014.224c.067.14 8.461 16.473 8.461 16.473.425.863-.41 1.669-1.3 1.806a3.1 3.1 0 0 1 -2.874-1.217s-7.975-16.36-8.037-16.489a.754.754 0 0 0 -.243-.232z" fill="#736357"/><path d="m26.117 28.848a3.027 3.027 0 0 1 -2.537-1.248c-.08-.164-7.977-16.365-8.037-16.489a.739.739 0 0 0 -.238-.229c-.165-.085-3.875-1.993-4.075-2.4l-.568-1.126h.02l6.17-.87-1.894-3.851 1.219-.172a.323.323 0 0 1 .273.112l4.238 3.345a2.693 2.693 0 0 1 .412.658l.637 1.294c.122.248-2.15 2.218-2.41 2.442a.181.181 0 0 0 -.011.207c.068.137 8.378 16.312 8.462 16.475a1.03 1.03 0 0 1 -.008.965 1.789 1.789 0 0 1 -1.3.861 2.324 2.324 0 0 1 -.353.026zm-15.412-21.471.55 1.09c.2.4 4.024 2.368 4.063 2.388a.758.758 0 0 1 .249.241c.061.124 7.958 16.325 8.037 16.489a3.063 3.063 0 0 0 2.858 1.209 1.759 1.759 0 0 0 1.281-.846 1 1 0 0 0 .008-.939c-.084-.163-8.395-16.338-8.462-16.476a.208.208 0 0 1 .017-.241 12.7 12.7 0 0 0 2.4-2.409l-.632-1.293a2.667 2.667 0 0 0 -.4-.649l-4.245-3.341a.3.3 0 0 0 -.247-.1l-1.182.158 1.895 3.842h-.02z" fill="#4a1700"/><path d="m13.743 6.934-1.887-3.834s-.764.09-.9.109.838 4 .838 4z" fill="#736357"/><path d="m11.786 7.225v-.013a40.286 40.286 0 0 1 -.842-4.005.022.022 0 0 1 .016-.01c.132-.019.89-.108.9-.109h.01l1.9 3.859zm-.822-4a38.1 38.1 0 0 0 .844 3.968l1.914-.27-1.873-3.8c-.091.005-.749.083-.885.102z" fill="#4a1700"/><path d="m17.414 7.564.705 1.346-3.278.434-.617-1.355z" fill="#4a1700"/><path d="m14.624 8.229.324-.047a.781.781 0 0 1 .47.313.844.844 0 0 1 .1.641l-.323.049a.72.72 0 0 0 -.069-.628 1.411 1.411 0 0 0 -.502-.328z" fill="#736357"/><path d="m15.486 8.11.324-.047a.781.781 0 0 1 .47.313.844.844 0 0 1 .1.641l-.323.049a.721.721 0 0 0 -.069-.628 1.41 1.41 0 0 0 -.502-.328z" fill="#736357"/><path d="m16.326 7.99.324-.047a.781.781 0 0 1 .47.313.844.844 0 0 1 .1.641l-.323.049a.721.721 0 0 0 -.069-.628 1.411 1.411 0 0 0 -.502-.328z" fill="#736357"/><path d="m16.429 15.654.34-.072v-4.04a15 15 0 0 1 -3.023-.827z" fill="#4a1700"/><path d="m14.017 6.416 1.51-.213-.227-.559a10.565 10.565 0 0 0 -1.166.1l-.32.256z" fill="#fff"/><path d="m21.574 6.609.574 1.222v1.094l-.1.137c-.052.055-1.139 1.221-1.966 1.972.046.089.1.186.15.29l6.843-.909a10.378 10.378 0 0 0 -5.501-3.806z" fill="#fff"/><path d="m26.457 14.015v2.463c.521-.02.607-.469.607-.953v-5.111l-6.838.909c.4.793 1.006 1.994 1.72 3.384z" fill="#ffe05c"/><path d="m13 10.849c-1.982-1.085-2.094-1.31-2.175-1.475l-.378-.742-6.154 4.8 12.14-1.602a22.719 22.719 0 0 1 -3.433-.981z" fill="#fff"/><path d="m16.436 15.654-.014-3.824-12.146 1.606v3.977z" fill="#ffe05c"/><path d="m21.946 14.694v-3.586s-1.2-.694-.7-1.2l-1.162 1.13z" fill="#ffe05c"/><path d="m5.438 13.288 7.025-.93s-2.519.51-4.462.749c-.917.113-2.563.181-2.563.181z" fill="#4a1700"/><path d="m24.438 10.772 2.7-.357.118.162c-1.177.123-2.818.195-2.818.195z" fill="#4a1700"/></svg>