<svg viewBox="0 0 32 32" xmlns="http://www.w3.org/2000/svg"><path d="m16.19 29.289c3.063-10.949 2.974-11 5.187-18.806l.532.308c.29.166.526.029.526-.3v-3.728c.588-2.057 1.047-3.647 1.183-4.123h2.4l3.982 3.689-2.617 2.261 1.979 2.14-13.04 18.559c-.063.105-.152.081-.132 0zm1.425-23.6c.119 0 .214.065.214.147v1.907c0 .08-.1.145-.214.145h-3.22c-.119 0-.215-.065-.215-.146v-1.908c0-.081.1-.147.214-.147h3.221zm3.976-2.113-3.543 2.045a.392.392 0 0 1 .066.213v1.909a.391.391 0 0 1 -.1.259l3.579 2.066c.244.141.444.026.444-.255v-5.981c-.003-.282-.202-.397-.446-.256zm-7.691 4.167v-1.909a.388.388 0 0 1 .066-.213l-3.549-2.047c-.244-.14-.444-.025-.444.256v5.982c0 .281.2.4.445.255l3.582-2.067a.391.391 0 0 1 -.1-.259zm1.783 21.546h.132c-3.062-10.949-2.974-11-5.187-18.806l-.532.308c-.289.166-.526.029-.526-.3v-3.728c-.594-2.055-1.053-3.647-1.189-4.123h-2.4l-3.981 3.689 2.616 2.261-1.979 2.141zm.217-17.416a.967.967 0 1 0 -.967-.967.967.967 0 0 0 .967.967zm0 5.75a.967.967 0 1 0 -.967-.967.967.967 0 0 0 .967.967zm0 5.752a.967.967 0 1 0 -.967-.967.967.967 0 0 0 .967.967z"/></svg>