<svg xmlns="http://www.w3.org/2000/svg" viewBox="0 0 32 32"><title>file_type_actionscript2</title><path d="M24.099 2H8.837v2.493H2.253v7.844h6.584V30h20.91V7.888L24.099 2zm4.648 27H9.837V12.337H21.56V4.493H9.837V3h13.679v5.415h5.231V29z" fill="#c7d7d8"/><path d="M9.728 5.336H8.243a.064.064 0 0 0-.064.062l-.015.466-.002.012-1.232 5.355a.064.064 0 0 0 .062.078h1.056c.03 0 .056-.021.062-.051l.258-1.236a.063.063 0 0 1 .062-.051h1.16c.029 0 .055.02.062.048l.313 1.242a.064.064 0 0 0 .062.048h1.151a.064.064 0 0 0 .062-.079L9.79 5.384a.063.063 0 0 0-.062-.048zM8.617 8.81l.401-2.243.423 2.243h-.824zM14.907 5.429v1.063a.045.045 0 0 1-.065.04c-.173-.087-.659-.311-1.076-.32-.517-.012-.771.276-.771.57 0 .888 2.187 1.004 2.187 2.799 0 1.576-1.282 1.727-1.893 1.727-.983 0-1.424-.304-1.512-.373a.044.044 0 0 1-.017-.035V9.737c0-.036.039-.057.069-.038.205.133.829.506 1.389.506.621 0 .633-.285.633-.496 0-.872-2.091-1-2.091-2.879 0-1.67 1.635-1.67 1.929-1.67.7 0 1.096.179 1.194.229a.048.048 0 0 1 .024.04z" fill="#fd3316"/><path d="M20.821 14.233c2.727 0 3.056 1.412 3.056 2.156 0 1.018-.227 1.857-.227 2.494 0 .862 1.151.664 1.151.664v1.547c-.824 0-1.131.221-1.131.841 0 .319.213 1.789.213 2.426 0 1.877-1.443 2.267-2.351 2.267h-.717l-.004-1.497c1.364 0 1.319-.558 1.319-1.001 0-.567-.159-1.293-.159-2.285s.832-1.505.832-1.505-.868-.549-.868-1.399.213-1.665.213-2.479c0-.939-1.324-.742-1.324-.742l-.003-1.487zM17.694 14.233c-2.727 0-3.056 1.412-3.056 2.156 0 1.018.227 1.857.227 2.494 0 .862-1.151.664-1.151.664v1.547c.824 0 1.131.221 1.131.841 0 .319-.213 1.789-.213 2.426 0 1.877 1.443 2.267 2.351 2.267h.717l.004-1.497c-1.364 0-1.319-.558-1.319-1.001 0-.567.159-1.293.159-2.285s-.832-1.505-.832-1.505.868-.549.868-1.399-.213-1.665-.213-2.479c0-.939 1.324-.742 1.324-.742l.003-1.487z" fill="#c7d7d8"/></svg>