<svg xmlns="http://www.w3.org/2000/svg" version="1.0" viewBox="0 0 32 32"><title>file_type_gpg</title><path fill="#0093dd" d="M16.14 2c-6.76.05-9.3 6.27-9.34 7.7v5.9H5.35v14.25h21.19V15.59h-1.42V9.78h-.04c-.07-.36-1.69-7.83-8.95-7.78zm-.2 4.22a4.75 4.75 0 0 1 4.59 3.56v5.81h-9.2V9.8a4.75 4.75 0 0 1 4.6-3.57z"/><path fill="#fff" d="M15.6 3.2a7.65 7.65 0 0 0-3.25.77c-3.48 1.7-3.88 5.66-3.88 5.66 3.45-7.05 8.3-6.07 11.1-5.63 0 0-1.74-.84-3.98-.8zm11.12 12.21s-1.4-.02-1.63.1c-2.7 1.4-3.26 1.84-5.03 2.2-5.01 1-8.04.71-10.52 1.62-1.9.7-4.26 3.33-4.26 3.33L5.32 30l3.35-.1s.88-.7 1.97-.79c0 0 10.4.64 13.22-4.03 0 0-5.03 2.52-11.22.83 0 0 10.67.32 13.68-6.07-1.3.2-4.47 3.28-10.42 2.48.58.03 7.62-1.78 10.7-5.02l.12-1.89z"/></svg>