<svg viewBox="0 0 32 32" xmlns="http://www.w3.org/2000/svg" xmlns:xlink="http://www.w3.org/1999/xlink"><mask id="a" height="29.091" maskUnits="userSpaceOnUse" width="29.091" x="1.455" y="1.455"><path d="m5.7 20.974 1.464-1.565 1.819 1.819-1.483 1.479 1.793 1.793 1.479-1.479 1.828 1.831-1.449 1.448 4.242 4.242h6.667a1.212 1.212 0 0 0 1.212-1.212v-9.7l6.195-4.129a2.425 2.425 0 0 0 1.078-2.016v-10.818a1.212 1.212 0 0 0 -1.212-1.212h-10.824a2.425 2.425 0 0 0 -2.016 1.078l-4.129 6.194h-9.7a1.212 1.212 0 0 0 -1.209 1.213v6.666z" fill="#fff"/><path d="m3.636 23.273h-2.181v7.273h7.272v-2.182h-5.091z" fill="#fff"/></mask><linearGradient id="b" gradientTransform="matrix(0 29.091 29.091 0 -902.364 -.545)" gradientUnits="userSpaceOnUse" x1=".069" x2="1.069" y1="31.569" y2="31.569"><stop offset="0" stop-color="#fff"/><stop offset="1" stop-color="#fff" stop-opacity="0"/></linearGradient><linearGradient id="c" x1=".069" x2="1.069" xlink:href="#b" y1="31.194" y2="31.194"/><g mask="url(#a)"><path d="m1.455 23.273h2.181v5.091h5.091v2.182h-7.272z" fill="#91b0f2"/><path d="m1.455 9.939v6.667l4.245 4.368 1.815-1.944 5.455 5.455-1.819 1.815 4.242 4.242h6.667a1.212 1.212 0 0 0 1.212-1.212v-9.7l-10.908-10.903h-9.7a1.212 1.212 0 0 0 -1.209 1.212z" fill="#0f46bd"/><path d="m6 18.249 11.212-16.794h13.333v13.333l-16.794 11.212z" fill="#062aa9"/><path d="m6.7 18.952a1.212 1.212 0 0 1 -.151-1.53l9.94-14.889a2.424 2.424 0 0 1 2.016-1.078h10.828a1.212 1.212 0 0 1 1.212 1.212v10.825a2.424 2.424 0 0 1 -1.078 2.016l-14.889 9.94a1.212 1.212 0 0 1 -1.53-.151z" fill="#2560e0"/><path d="m7.5 22.707 9.255-9.255 1.792 1.792-9.254 9.256z" fill="#0a44c2"/><path d="m7.5 22.707 9.255-9.255 1.792 1.792-9.254 9.256z" fill="#729af2"/><path d="m10.772 23.02-1.792-1.792 7.776-7.775 1.792 1.792z" fill="#4c80f0"/><path d="m23.273 12.364a3.636 3.636 0 1 0 -3.636-3.636 3.636 3.636 0 0 0 3.636 3.636z" fill="#0a44c2"/><path d="m23.273 12.364a3.636 3.636 0 1 0 -3.636-3.636 3.636 3.636 0 0 0 3.636 3.636z" fill="#91b0f2"/><g opacity=".2"><path d="m5.7 20.974 1.464-1.565 1.819 1.819-1.483 1.479 1.793 1.793 1.479-1.479 1.828 1.831-1.449 1.448 4.242 4.242h6.667a1.212 1.212 0 0 0 1.212-1.212v-9.7l6.195-4.129a2.425 2.425 0 0 0 1.078-2.016v-10.818a1.212 1.212 0 0 0 -1.212-1.212h-10.824a2.425 2.425 0 0 0 -2.016 1.078l-4.129 6.194h-9.7a1.212 1.212 0 0 0 -1.209 1.213v6.666z" fill="url(#b)"/><path d="m3.636 23.273h-2.181v7.273h7.272v-2.182h-5.091z" fill="url(#c)"/></g></g></svg>