<svg xmlns="http://www.w3.org/2000/svg" viewBox="0 0 32 32"><g fill="#fd3316"><path d="M16.531 14.811h-2.094a.087.087 0 0 0-.087.081l-.05.657a.047.047 0 0 1-.003.017l-2.895 10.105a.087.087 0 0 0 .084.111h1.518a.087.087 0 0 0 .084-.064l.815-2.99a.087.087 0 0 1 .084-.064h3.08c.039 0 .074.026.084.064l.834 2.991a.088.088 0 0 0 .084.064h1.678c.058 0 .1-.056.084-.112l-3.218-10.796a.084.084 0 0 0-.082-.064zm-2.165 6.199l1.134-4.63 1.2 4.63h-2.334zM20.671 25.782a.087.087 0 0 1-.087-.087l.009-6.521-.041-.884a.087.087 0 0 1 .054-.085c.299-.123 1.729-.682 3.125-.682 1.569 0 2.948.718 2.948 2.873v5.299a.087.087 0 0 1-.087.087h-1.627a.087.087 0 0 1-.087-.087v-5.324s.063-1.254-1.399-1.254c-.37 0-.85.11-1.027.162a.088.088 0 0 0-.063.084v6.332a.087.087 0 0 1-.087.087h-1.631z"/><path d="M24.099 2H8.837v2.493H2.253v7.844h6.584V30h20.91V7.888L24.099 2zM7.696 8.94a.056.056 0 0 0-.056.056v1.981a.056.056 0 0 1-.056.056H6.547a.056.056 0 0 1-.056-.056V5.633c0-.031.025-.056.056-.056h2.654c.029 0 .053.022.056.05l.108.962a.056.056 0 0 1-.056.063H7.696a.056.056 0 0 0-.056.056v1.129c0 .031.025.056.056.056h1.462c.031 0 .056.025.056.056v.934a.056.056 0 0 1-.056.056H7.696zM28.747 29H9.837V12.337H21.56V4.493H9.837V3h13.679v5.415h5.231V29zM11.207 9.996h1.657c.034 0 .061.031.056.065l-.14.925a.056.056 0 0 1-.056.048H10.04a.056.056 0 0 1-.056-.056V5.633c0-.031.025-.056.056-.056h1.055c.031 0 .056.025.056.056V9.94c0 .031.025.056.056.056zm2.14.967l1.125-4.892.001-.011.014-.427a.058.058 0 0 1 .058-.056h1.357c.027 0 .05.018.057.044l1.325 5.34a.058.058 0 0 1-.057.072h-1.051a.059.059 0 0 1-.057-.044l-.285-1.134a.059.059 0 0 0-.057-.044h-1.06a.058.058 0 0 0-.057.046l-.236 1.129a.058.058 0 0 1-.057.046h-.965c-.035.002-.063-.033-.055-.069z"/><path d="M15.254 6.701l-.366 2.05h.753z"/></g></svg>