<svg version="1.1" viewBox="0 0 32 32" xmlns="http://www.w3.org/2000/svg"><defs><linearGradient id="a" x1="4" x2="28" y1="31" y2="1" gradientUnits="userSpaceOnUse"><stop stop-color="#083fa6" offset="0"/><stop stop-color="#2dcbfd" offset="1"/></linearGradient></defs><title>file_type_libreoffice_writer</title><g transform="matrix(.875 0 0 .875 2 2)" fill-rule="evenodd" stroke-linecap="square"><path d="m7 0c-2.216 0-4 1.784-4 4v24c0 2.216 1.784 4 4 4h18c2.216 0 4-1.784 4-4v-16l-12-12zm13 0 9 9v-9z" fill="url(#a)"/><path d="m3 27v1c0 2.216 1.784 4 4 4h18c2.216 0 4-1.784 4-4v-1c0 2.216-1.784 4-4 4h-18c-2.216 0-4-1.784-4-4z" fill-opacity=".19862"/><path d="m20 0h1.4l7.6 7.6v1.4z" fill-opacity=".20149"/><g fill="#fafafa"><rect x="8" y="13" width="7" height="1" ry=".5"/><rect x="8" y="15" width="7" height="1" ry=".5"/><rect x="8" y="17" width="7" height="1" ry=".5"/><rect x="8" y="20" width="16" height="1" ry=".5"/><rect x="8" y="22" width="16" height="1" ry=".5"/><rect x="8" y="24" width="7" height="1" ry=".5"/></g><path d="m18 13c-0.554 0-1 0.446-1 1v3c0 0.554 0.446 1 1 1h5c0.554 0 1-0.446 1-1v-3c0-0.554-0.446-1-1-1zm4.5 1a0.5 0.5 0 0 1 0.5 0.5 0.5 0.5 0 0 1-0.5 0.5 0.5 0.5 0 0 1-0.5-0.5 0.5 0.5 0 0 1 0.5-0.5zm-3.1641 0.5293a0.61803 0.61803 0 0 1 0.37109 0.17773l2.293 2.293h-4l0.68359-2.0508a0.61803 0.61803 0 0 1 0.65234-0.41992z" fill="#9ae9f9"/></g></svg>
