<svg xmlns="http://www.w3.org/2000/svg" viewBox="0 0 254.5 225"><g id="Layer_1" data-name="Layer 1"><path d="M-46.93,89c-.62,0-.77-.31-.46-.78L-44.13,84a2.24,2.24,0,0,1,1.71-.78H13c.62,0,.77.47.46.93l-2.64,4a2.32,2.32,0,0,1-1.55.93Z" style="fill:#5cbc6a"/><path d="M-70.38,103.29c-.62,0-.78-.32-.47-.78l3.27-4.2a2.21,2.21,0,0,1,1.7-.77H5a.71.71,0,0,1,.81.6.93.93,0,0,1,0,.33L4.48,102.2a1.35,1.35,0,0,1-1.4.93Z" style="fill:#5cbc6a"/><path d="M-32.79,117.57c-.62,0-.78-.46-.47-.93l2.18-3.88a2,2,0,0,1,1.55-.93H1.53c.62,0,.93.46.93,1.08l-.31,3.73a1.15,1.15,0,0,1-1.08,1.09Z" style="fill:#5cbc6a"/><path d="M128.43,86.2c-9.79,2.48-16.47,4.35-26.1,6.83-2.33.62-2.48.78-4.5-1.55-2.33-2.64-4-4.35-7.3-5.9-9.78-4.81-19.26-3.42-28.11,2.33-10.56,6.83-16,16.93-15.84,29.51.15,12.43,8.7,22.68,21,24.39,10.56,1.4,19.41-2.33,26.4-10.26,1.4-1.7,2.64-3.57,4.19-5.74h-30c-3.26,0-4-2-3-4.66,2-4.82,5.75-12.89,7.92-16.93A4.21,4.21,0,0,1,77,101.73h56.53c-.31,4.2-.31,8.39-.93,12.59a66.19,66.19,0,0,1-12.74,30.44c-11.18,14.75-25.78,23.91-44.26,26.4-15.22,2-29.36-.93-41.78-10.25a48.81,48.81,0,0,1-19.73-34.48c-2-16.93,2.95-32.15,13.2-45.51,11-14.45,25.63-23.61,43.49-26.87,14.6-2.64,28.58-.93,41.16,7.61a48.71,48.71,0,0,1,18,21.9C130.91,85,130.29,85.74,128.43,86.2Z" style="fill:#5cbc6a"/><path d="M179.84,172.09c-14.14-.31-27-4.35-37.91-13.67a48.75,48.75,0,0,1-16.77-30c-2.8-17.56,2-33.09,12.58-46.91,11.34-14.91,25-22.68,43.49-25.94,15.84-2.8,30.75-1.24,44.26,7.92,12.27,8.39,19.88,19.73,21.9,34.64,2.64,21-3.41,38.05-17.86,52.65a71.1,71.1,0,0,1-37.27,19.88C188.07,171.47,183.87,171.62,179.84,172.09Zm37-62.75a44.08,44.08,0,0,0-.47-5.12c-2.8-15.38-16.93-24.08-31.68-20.66-14.44,3.26-23.76,12.43-27.18,27a25.58,25.58,0,0,0,14.29,29.35c8.54,3.73,17.08,3.26,25.32-.93C209.35,132.64,216,122.7,216.8,109.34Z" style="fill:#5cbc6a"/></g><g id="Layer_2" data-name="Layer 2"><path d="M120.81,127.74v7.44l-33,41.68h34.88v8H75.61V177.5l33-41.76H78v-8Z" style="fill:#fff;stroke:#5cbc6a;stroke-miterlimit:10"/><path d="M162.73,149.26c3.28,4.16,5,10,5,17.44h-31c.32,3.84,1.36,6.8,3.12,8.8a9.65,9.65,0,0,0,7.6,3,11.22,11.22,0,0,0,6.8-1.92,13.71,13.71,0,0,0,3.68-5h9.12a18.78,18.78,0,0,1-5.76,9.68A20.52,20.52,0,0,1,147.53,186c-6.16,0-11-1.92-14.64-5.68-3.84-3.92-5.76-9.28-5.76-16.16,0-6.16,1.76-11.28,5.44-15.44,3.52-4.24,8.4-6.32,14.56-6.32C153.93,142.38,159.13,144.62,162.73,149.26Zm-22.48,3.12a13.44,13.44,0,0,0-3.36,7.44h21.28c-.8-6.72-4.4-10-10.8-10A9.49,9.49,0,0,0,140.25,152.38Z" style="fill:#fff;stroke:#5cbc6a;stroke-miterlimit:10"/><path d="M199.61,143.42v9.12a19.68,19.68,0,0,0-5.92-.88,8.86,8.86,0,0,0-6.48,2.8,11.15,11.15,0,0,0-3.28,8.48v21.92h-9V143.5h9v5.92a14.08,14.08,0,0,1,3.92-4.8,9.89,9.89,0,0,1,6.56-2.24A11.61,11.61,0,0,1,199.61,143.42Z" style="fill:#fff;stroke:#5cbc6a;stroke-miterlimit:10"/><path d="M239.13,148.54c3.76,4.08,5.68,9.28,5.68,15.68s-1.92,11.52-5.6,15.52c-3.84,4.16-9,6.24-15.2,6.24s-11.36-2.08-15.2-6.24c-3.76-4-5.6-9.2-5.6-15.52s1.84-11.6,5.68-15.68,8.8-6.16,15.12-6.16S235.29,144.38,239.13,148.54Zm-23.92,5.76a17.27,17.27,0,0,0-2.64,9.92,17,17,0,0,0,2.64,9.84,10.88,10.88,0,0,0,17.6,0,19.3,19.3,0,0,0,0-19.76,10.88,10.88,0,0,0-17.6,0Z" style="fill:#fff;stroke:#5cbc6a;stroke-miterlimit:10"/></g></svg>