<svg xmlns="http://www.w3.org/2000/svg" fill="none" viewBox="0 0 32 32"><title>file_type_coderabbit</title><path fill="#ff4702" d="M30 17.85c0 4.07-1.74 7.75-4.52 10.3h-3.36c.07-.32-.1-.55-.33-.7a1.55 1.55 0 0 1-.7-1.44c.19-1.5 1.1-3.4 4.39-5.14 2.23-1.2 2.64-3.65 2.8-4 .22-.6.16-1.1-.31-1.59a9.86 9.86 0 0 0-2.9-2.18 5.92 5.92 0 0 0-4.77-.1c-.28.1-.22-.11-.24-.2a10.84 10.84 0 0 0-1.09-3c-1.03-1.88-2.48-3.25-4.64-3.72-.32-.07-.65-.09-.98-.13-.15-.02-.23.02-.2.2A9.1 9.1 0 0 0 14.73 10c.4.52.95.87 1.48 1.23.57.4 1.16.75 1.7 1.2.5.43.91.93 1.1 1.65l-.12-.12c-1.64-2.61-4.86-3.77-8.1-2.82-.3.08-.25.18-.1.4a9.56 9.56 0 0 0 3.73 3.26A10.8 10.8 0 0 0 18 16.02c.57.07.3.46.39.93.12.71.42.94.32.88a13.36 13.36 0 0 0-4.92-1.09c-5.56 0-6.47 5.3-6.43 5.36-.08-.03-1.41-.52-1.71.82-.31 1.35 1.5 2.24 1.5 2.24a2.4 2.4 0 0 1 1.86-2c-.15.08-1.08.63-1.37 2.12-.25 1.31.8 2.48 1.18 2.88h-2.3A14 14 0 1 1 30 17.86zm-10.17 10.3h-1.48a.55.55 0 0 0 .14-.28c.13-.72-.5-.86-.5-.86h-3.4s1.35-.07 2.6-.58a7.12 7.12 0 0 0 2.4-1.69 3.97 3.97 0 0 0-.06 3.08c.05.14.16.26.3.34z"/></svg>