<svg id="Layer_1" data-name="Layer 1" xmlns="http://www.w3.org/2000/svg" xmlns:xlink="http://www.w3.org/1999/xlink" viewBox="0 0 32 32"><defs><linearGradient id="linear-gradient" x1="305.54" y1="-376.22" x2="307.55" y2="-348.26" gradientTransform="matrix(1, 0, 0, -1, -290, -346)" gradientUnits="userSpaceOnUse"><stop offset="0" stop-color="#ffebc8"/><stop offset="1" stop-color="#ffa95f"/></linearGradient><linearGradient id="linear-gradient-2" x1="305.72" y1="-373.52" x2="306.69" y2="-359.77" gradientTransform="matrix(1, 0, 0, -1, -290, -346)" gradientUnits="userSpaceOnUse"><stop offset="0" stop-color="#fab743"/><stop offset="1" stop-color="#ee6f05"/></linearGradient></defs><title>Artboard 1</title><path d="M26.87,21.05c-.41,5.46-5.52,9.56-11.39,9.17S5.21,25.09,5.64,19.64c.57-7.52,12-17.37,12-17.37-3.66,10,10,8.82,9.23,18.78Z" style="fill:url(#linear-gradient)"/><path d="M10.81,23a5,5,0,0,0,4.83,5.19,5.1,5.1,0,0,0,5.58-4.49C21.51,20,16.7,14.5,16.7,14.5,17.73,19.6,11.19,18.13,10.81,23Z" style="fill:url(#linear-gradient-2)"/></svg>