<svg viewBox="0 0 32 32" xmlns="http://www.w3.org/2000/svg"><path d="m2.73 6.67 13.12-4.67v28l-11.08-6.12z" fill="#de3641"/><path d="m15.85 2 13.42 4.59-2.19 17.21-11.23 6.2z" fill="#b13138"/><path d="m15.85 5.14 8.53 18.23h-2.91l-1.82-4.16h-3.8v-2.48h2.77l-2.77-5.73-2.33 5.73h2.33v2.48h-3.47l-1.63 4.16h-3.14z" fill="#fff"/><path d="m22.65 15.29a7.35 7.35 0 1 1 -7.35 7.35 7.35 7.35 0 0 1 7.35-7.35z" fill="#c69"/><path d="m27.26 18.44c-.33-1.31-2.5-1.73-4.55-1a10.3 10.3 0 0 0 -3.49 2c-1.13 1.06-1.31 2-1.23 2.36.26 1.36 2.12 2.24 2.88 2.9-.22.11-1.87.95-2.26 1.8a1.19 1.19 0 0 0 .38 1.63 2.31 2.31 0 0 0 2.49-1 2.53 2.53 0 0 0 .25-2.25 3 3 0 0 1 1.13-.06c1.29.15 1.54 1 1.49 1.29a.85.85 0 0 1 -.41.58c-.09.06-.12.08-.11.12s.05.06.13 0a1 1 0 0 0 .7-.9 1.82 1.82 0 0 0 -1.966-1.662q-.052 0-.1.012a3.54 3.54 0 0 0 -1.15.16l-.06-.06c-.83-.88-2.36-1.51-2.3-2.7 0-.43.17-1.57 2.94-3 2.27-1.13 4.09-.82 4.4-.13.45 1-1 2.82-3.33 3.08a1.77 1.77 0 0 1 -1.49-.38c-.12-.14-.14-.14-.19-.12s0 .16 0 .23a1.4 1.4 0 0 0 .85.67 4.51 4.51 0 0 0 2.74-.2c1.466-.55 2.586-2.09 2.256-3.37zm-6.08 6.66a1.88 1.88 0 0 1 0 1.1v.22a2.05 2.05 0 0 1 -.34.5 1.251 1.251 0 0 1 -1.28.49c-.28-.15-.14-.82.36-1.34a5 5 0 0 1 1.3-.93z" fill="#fff"/></svg>