<svg xmlns="http://www.w3.org/2000/svg" viewBox="0 0 32 32"><style>.cyan{fill:#08b1d5}</style><g transform="translate(-3.16 -2.15)scale(.0413)"><path d="M757.23 277.9v-13.7l-12.26-6.85-.91-.48L475.5 106.89l-11.68-6.51-11.63 6.51-268.61 149.99-.91.48-12.25 6.85v13.69l-.91.53.91.48v338.65l12.45 6.8 261.62 143.33 3.3 1.82 16.08 8.81 16.04-8.81 3.3-1.82 261.62-143.33 12.4-6.8V278.95l.96-.53zM476.11 744.33V502.51a12 12 0 0 0-11.98-11.97h-.3a12 12 0 0 0-11.98 11.97v241.81L205.61 609.55l-11.26-6.17V290.06l196.06 107.42a11.83 11.83 0 0 0 15.97-4.63l.14-.25a11.86 11.86 0 0 0-4.67-16.1L208.33 270.47l243.55-136.03 11.94-6.67 11.99 6.7 243.5 136.01-193.67 106.1c-5.7 3.12-7.48 10.25-4.32 15.92l.16.29c3.1 5.62 10.02 7.85 15.65 4.77l196.16-107.5v313.33l-11.23 6.15z" style="fill:#031730"/><path d="M463.95 358.89h.12c6.43.01 11.75-4.93 11.75-11.36V134.47l-11.99-6.7-11.94 6.67v213.1c0 6.43 5.32 11.38 11.75 11.35z" class="cyan"/><path fill="#1904da" d="M392.02 455.6 194.35 588.27v15.11l11.26 6.17L405.34 475.5a11.3 11.3 0 0 0 3.09-15.52l-.42-.67c-3.43-5.53-10.59-7.33-15.99-3.71"/><path fill="#ffc900" d="m522.51 475.6 199.56 133.93 11.23-6.15v-15.14L535.83 455.71c-5.4-3.62-12.56-1.83-16 3.69l-.4.63a11.3 11.3 0 0 0 3.08 15.57"/><path d="M649.35 258.97 461.77 153.83a11.97 11.97 0 1 1 11.7-20.88L661.05 238.1a11.97 11.97 0 1 1-11.7 20.87m-82.2 8.12-105.38-59.07a11.97 11.97 0 1 1 11.7-20.88l105.38 59.07a11.97 11.97 0 1 1-11.7 20.88m34.52 19.35a11.97 11.97 0 1 1 11.7-20.88 11.97 11.97 0 0 1-11.7 20.88m-104.63-2.62-35-19.62a11.97 11.97 0 1 1 11.7-20.88l35 19.62a11.97 11.97 0 1 1-11.7 20.88m52.81 32.23-20.26-11.36a11.97 11.97 0 1 1 11.7-20.88l20.26 11.36a11.97 11.97 0 1 1-11.7 20.88" class="cyan"/><circle cx="463.95" cy="424.72" r="34.73" fill="#ff0036"/></g></svg>