<svg viewBox="0 0 32 32" xmlns="http://www.w3.org/2000/svg"><g fill="#e44f26"><path d="m10.04 18.875-7.991-4.116v-1.531l7.991-4.117v2.381l-4.988 2.501 4.988 2.5z"/><path d="m17.313 19.07h-2.283l4.543-11.803h2.299z"/><path d="m21.96 18.872v-2.38l5.023-2.499-5.023-2.499v-2.381l7.991 4.099v1.562z"/></g><path d="m12.633 24.733-1.666-1.665-1.667 1.664-1.678-1.666-1.675 1.665-1.673-1.665-1.074 1.068-1.2-.787 2.274-2.265 1.673 1.667 1.675-1.665 1.675 1.665 1.67-1.668 1.669 1.666 1.667-1.663 1.679 1.666 1.674-1.668 1.675 1.668 1.68-1.665 1.675 1.665 1.68-1.666 1.673 1.666 1.679-1.664 2.282 2.258-1.198.792-1.084-1.073-1.683 1.667-1.671-1.664-1.679 1.664-1.676-1.666-1.681 1.666-1.672-1.664-1.673 1.664-1.677-1.664z" fill="#c1272d"/></svg>