<svg viewBox="0 0 32 32" xmlns="http://www.w3.org/2000/svg"><path d="m2.75 6.668 13.1-4.668v27.987l-11.063-6.117z" fill="#f6ea1c"/><path d="m15.85 2 13.4 4.588-2.187 17.2-11.213 6.2z" fill="#7f8006"/><path d="m15.85 5.138 8.517 18.222h-2.907l-1.817-4.16h-3.793v-2.477h2.766l-2.766-5.723-2.326 5.727h2.326v2.473h-3.465l-1.628 4.16h-3.134z" fill="#fff"/><path d="m29.035 22.675-1.744-1.7-.009-.009a3.065 3.065 0 0 0 -1.585-.744l-.443-1.061a.262.262 0 0 0 -.059-.088l-1.421-1.415a.859.859 0 0 0 -.562-.247h-.034a.827.827 0 0 0 -.561.218l-3.6 2.071a.275.275 0 0 0 -.223.23l-2.062 3.554a.829.829 0 0 0 .028 1.152l1.77 1.763a.255.255 0 0 0 .094.061l.749.294a3.051 3.051 0 0 0 .717 1.42l.009.009 1.709 1.74a.279.279 0 0 0 .2.083h4.892a.276.276 0 0 0 .271-.223l.286-1.491 1.438-.273a.274.274 0 0 0 .224-.27v-4.873a.272.272 0 0 0 -.084-.201z" fill="#fff"/><path d="m19.094 19.968-2.136 3.68a.57.57 0 0 0 -.163.394.557.557 0 0 0 .166.4l1.77 1.764 6.921 2.713 1.565-.866-.043-.043h-.011l-4.343-4.33z" fill="#215896"/><path d="m23.178 17.69a.563.563 0 0 0 -.394.162l-3.7 2.129 3.687 3.674 4.429 4.425.845-1.517-3.045-7.289-1.421-1.415a.562.562 0 0 0 -.4-.166z" fill="#66c3fa"/><path d="m19.069 19.974 3.771 3.762 4.341 4.331 1.653-.314v-4.873l-1.744-1.7a2.807 2.807 0 0 0 -1.56-.693v-.019z" fill="#235997"/><path d="m19.1 19.994 3.773 3.76 4.342 4.328-.315 1.651h-4.892l-1.708-1.74a2.786 2.786 0 0 1 -.694-1.555h-.019z" fill="#58b6f0"/></svg>