<svg xmlns="http://www.w3.org/2000/svg" viewBox="0 0 32 32"><title>file_type_snyk@2x</title><g id="snyk"><path d="M22.58,8.65A34.51,34.51,0,0,0,20.32,4l-.18-.31-.35-.63L19.15,2l-.92,6,0,.22q-1-.05-2.19-.05t-2.2.05l0-.22-.32-2.09L12.86,2,12.2,3.11l-.47.84-.06.1A34.59,34.59,0,0,0,9.41,8.66a20,20,0,0,0-2.8.66V23.79L16,30l9.39-6.21V9.32A19.76,19.76,0,0,0,22.58,8.65Z" style="fill:#fff"/><path d="M20,19.89H16V13.57l-4.11,6.14L11.25,26l4.68,3.12.06,0L20.78,26Z" style="fill:#3b3b63"/><path d="M15.92,29.11,7.21,23.34V9.9a29,29,0,0,1,8.73-1.12,28.71,28.71,0,0,1,8.7,1.12V23.34Z" style="fill:#dbdbdb"/><path d="M16,8.78h0V29.11l8.72-5.76V9.9A28.76,28.76,0,0,0,16,8.78" style="fill:#c6c6c6"/><path d="M20.76,26,20,19.89H16v9.26Z" style="fill:#3b3b63"/><path d="M11.25,26,16,29.17V13.57l-4.11,6.14Z" style="fill:#53537a"/><path d="M18,24.21c0,1-1.05,1.56-2,1.56s-2-.52-2-1.56" style="fill:#bc9375"/><path d="M17.44,23.62c0,1.22-.71,1.55-1.43,1.55s-1.43-.33-1.43-1.55" style="fill:#073251"/><path d="M16,24.75c-.77,0-1.15-.53-1.15-1.61h.37c0,1.27.53,1.27.78,1.27s.78,0,.78-1.27h.37c0,1.08-.38,1.61-1.15,1.61" style="fill:#fff"/><path d="M22.15,10.68c0-1.32-2.4-5.47-2.4-5.47l-.81,5.27-.73,1.11L16,11.66v0l-2.19-.08-.73-1.11-.81-5.26S9.87,9.36,9.87,10.68l1,2.53s-.51,4.26-.28,4.82a19.81,19.81,0,0,0,1.85,2.42,8.72,8.72,0,0,0,.44,2.69,1.74,1.74,0,0,0,1.68,1.13A1.6,1.6,0,0,0,16,23.41a1.63,1.63,0,0,0,1.43.87,1.74,1.74,0,0,0,1.68-1.13,8.72,8.72,0,0,0,.44-2.69A19.88,19.88,0,0,0,21.41,18c.23-.56-.28-4.82-.28-4.82l1-2.54Z" style="fill:#c49a7e"/><path d="M16,11.67h0v0l-2.19-.08-.73-1.11-.81-5.26s-2.4,4.15-2.4,5.47l1,2.53s-.51,4.26-.28,4.82a19.89,19.89,0,0,0,1.85,2.42,8.75,8.75,0,0,0,.44,2.69,1.74,1.74,0,0,0,1.68,1.13A1.61,1.61,0,0,0,16,23.41h0Z" style="fill:#d8b7a0"/><path d="M21.16,13.46c-.19-.36.08-1.22.08-1.22-1.52-1.44-1.9-4.45-1.9-4.45-.28.95-.9,3.74-.9,3.74A8.37,8.37,0,0,0,16,11.14H15.8v11.8l.1.13V23H16v0h.12v0h.06v.06l1-1.42.23-4L18.72,19l1.68.46.63-.42a2.89,2.89,0,0,0,.42-.8c.23-.56-.29-4.83-.29-4.83" style="fill:#3b3b63"/><path d="M16,11.14h0a8.38,8.38,0,0,0-2.42.39S13,8.74,12.7,7.79c0,0-.38,3-1.9,4.45a2.32,2.32,0,0,1,.08,1.22s-.53,4.27-.29,4.83a2.92,2.92,0,0,0,.42.8l.63.42L13.32,19l1.31-1.38.23,4,1,1.42V23H16v0H16V11.14Z" style="fill:#53537a"/><path d="M19.07,16.13h-2v0a1.3,1.3,0,0,0,2.58,0v0h-.61Z" style="fill:#333152"/><path d="M17.59,16.13v0a.74.74,0,0,0,1.47,0v0H17.59Z" style="fill:#fff"/><path d="M18.56,16.13H18.2s.07.1.06.16a.19.19,0,0,1-.19.16.31.31,0,0,0,.27.23.32.32,0,0,0,.37-.25c0-.12,0-.29-.15-.29m-4.24,0h-2v0a1.3,1.3,0,0,0,2.58,0v0h-.62Z" style="fill:#333152"/><path d="M12.84,16.13v0a.74.74,0,0,0,1.47,0v0H12.84Z" style="fill:#fff"/><path d="M13.81,16.13h-.36s.07.1.06.16a.19.19,0,0,1-.19.16.31.31,0,0,0,.27.23.32.32,0,0,0,.37-.25c0-.12,0-.29-.15-.29" style="fill:#333152"/><path d="M18.92,15.59c.08-.08.78-.82-.15-.82a2.29,2.29,0,0,0-1.62.82h1.77Z" style="fill:#c49a7e"/><path d="M14.87,15.59a2.28,2.28,0,0,0-1.62-.82c-.94,0-.24.74-.15.82h1.77Z" style="fill:#d8b7a0"/><path d="M11.9,16.13h3.59v-.31H11.9Z" style="fill:#53537a"/><path d="M21.22,11.7a9.23,9.23,0,0,1-1.4-3.77L20,6.7a15.51,15.51,0,0,1,1.64,3.91ZM21,17.87a18.06,18.06,0,0,1-1.78,2.3l-.11.13v.16A8.28,8.28,0,0,1,18.66,23a1.27,1.27,0,0,1-1.22.83,1.13,1.13,0,0,1-1-.6l0-.54h-.83l0,.54a1.12,1.12,0,0,1-1,.6A1.26,1.26,0,0,1,13.36,23,8.33,8.33,0,0,1,13,20.46V20.3l-.11-.13a18.56,18.56,0,0,1-1.78-2.29,28,28,0,0,1,.31-4.61v-.11l-.18-.46a6.29,6.29,0,0,0,1.38-2.26l0,.2,1,1.53L14,12a6.27,6.27,0,0,1,2-.4,6.39,6.39,0,0,1,2,.4l.39.15,1-1.53,0-.25a6.39,6.39,0,0,0,1.38,2.3l-.19.48v.11a28.38,28.38,0,0,1,.31,4.6ZM15.4,24.58a2,2,0,0,0,.36-.19,1,1,0,0,0,.26,0,1,1,0,0,0,.25,0,2,2,0,0,0,.36.19,1.13,1.13,0,0,1-1.22,0Zm.62,1c-.54,0-1.31-.22-1.5-.81h.06l.3,0a1.36,1.36,0,0,0,1.13.46,1.36,1.36,0,0,0,1.13-.46l.29,0h.06a1.52,1.52,0,0,1-1.48.81ZM10.36,10.61A15.53,15.53,0,0,1,12,6.7L12.21,8a8.91,8.91,0,0,1-1.4,3.69l-.45-1.11Zm12.27.07c0-1.39-2.21-5.25-2.46-5.69l-.7-1.22-1,6.55L18,11a7.06,7.06,0,0,0-2-.34A7,7,0,0,0,14,11l-.47-.71L13.21,8h0l-.66-4.24L11.83,5c-.25.43-2.48,4.29-2.48,5.69v.08l1,2.51c-.16,1.37-.47,4.34-.23,4.92a10.44,10.44,0,0,0,1.23,1.72l-.67,5.75.92.6.48-4.19a6.32,6.32,0,0,0,.33,1.23,2.19,2.19,0,0,0,1.06,1.18,2.29,2.29,0,0,0,2.53,2,2.28,2.28,0,0,0,2.5-2,2.2,2.2,0,0,0,1.06-1.18A6.35,6.35,0,0,0,19.92,22l.49,4.2.92-.62-.66-5.72a10.37,10.37,0,0,0,1.22-1.7c.24-.58-.08-3.55-.24-4.92l1-2.51v-.08Z" style="fill:#333152"/><path d="M17.17,21.13H14.86a2.54,2.54,0,0,0-.31.66C14.55,22.28,16,23,16,23s1.5-.79,1.5-1.25a1.9,1.9,0,0,0-.3-.66" style="fill:#333152"/><path d="M16.72,22.6c-.13-.21-.29-.25-.37-.09a.83.83,0,0,0,.1.68c.13.21.29.25.37.09a.83.83,0,0,0-.1-.68" style="fill:#c49a7e"/><path d="M15.3,22.6a.82.82,0,0,0-.1.68c.08.16.24.12.37-.09a.82.82,0,0,0,.1-.68c-.08-.16-.24-.12-.37.09" style="fill:#d8b7a0"/></g></svg>