<svg viewBox="0 0 32 32" xmlns="http://www.w3.org/2000/svg"><g fill-rule="evenodd"><path d="m8.785 6.865a3.055 3.055 0 0 0 -.785.1v.035h.038a6.461 6.461 0 0 0 .612.785c.154.306.288.611.441.917.019-.019.038-.039.038-.039a1.074 1.074 0 0 0 .4-.957 4.314 4.314 0 0 1 -.23-.4c-.115-.191-.364-.287-.517-.44" fill="#5d87a1"/><path d="m27.78 23.553a8.849 8.849 0 0 0 -3.712.536c-.287.115-.745.115-.785.478.154.153.172.4.307.613a4.467 4.467 0 0 0 .995 1.167c.4.306.8.611 1.225.879.745.461 1.588.728 2.314 1.187.422.268.842.612 1.264.9.21.153.343.4.611.5v-.058a3.844 3.844 0 0 0 -.291-.613c-.191-.19-.383-.363-.575-.554a9.118 9.118 0 0 0 -1.99-1.932c-.613-.422-1.953-1-2.2-1.7l-.039-.039a7.69 7.69 0 0 0 1.321-.308c.65-.172 1.243-.133 1.912-.3.307-.077.862-.268.862-.268v-.3c-.342-.34-.587-.795-.947-1.116a25.338 25.338 0 0 0 -3.122-2.328c-.587-.379-1.344-.623-1.969-.946-.226-.114-.6-.17-.737-.36a7.594 7.594 0 0 1 -.776-1.457c-.548-1.04-1.079-2.193-1.551-3.293a20.236 20.236 0 0 0 -.965-2.157 19.078 19.078 0 0 0 -7.323-7.084 9.07 9.07 0 0 0 -2.421-.776c-.474-.02-.946-.057-1.419-.075a7.55 7.55 0 0 1 -.869-.664c-1.082-.685-3.862-2.157-4.658-.208-.51 1.231.758 2.441 1.193 3.066a8.866 8.866 0 0 1 .965 1.419c.133.322.171.663.3 1a22.556 22.556 0 0 0 .987 2.538 8.946 8.946 0 0 0 .7 1.172c.153.209.417.3.474.645a5.421 5.421 0 0 0 -.436 1.419 8.336 8.336 0 0 0 .549 6.358c.3.473 1.022 1.514 1.987 1.116.851-.34.662-1.419.908-2.364.056-.229.019-.379.132-.53v.184s.483 1.061.723 1.6a10.813 10.813 0 0 0 2.4 2.59 3.514 3.514 0 0 1 .876 1.167v.343h.427a1.054 1.054 0 0 0 -.427-.788 9.4 9.4 0 0 1 -.959-1.16 24.992 24.992 0 0 1 -2.064-3.519c-.3-.6-.553-1.258-.793-1.857-.11-.231-.11-.58-.295-.7a7.266 7.266 0 0 0 -.884 1.313 11.419 11.419 0 0 0 -.517 2.921c-.073.02-.037 0-.073.038-.589-.155-.792-.792-1.014-1.332a8.756 8.756 0 0 1 -.166-5.164c.128-.405.683-1.681.461-2.068-.111-.369-.48-.58-.682-.871a7.767 7.767 0 0 1 -.663-1.237c-.439-1.076-.661-2.276-1.139-3.36a10.4 10.4 0 0 0 -.921-1.489 9.586 9.586 0 0 1 -1.015-1.507c-.092-.213-.221-.561-.074-.793a.3.3 0 0 1 .259-.252c.238-.212.921.058 1.16.174a9.2 9.2 0 0 1 1.824.967c.258.194.866.685.866.685h.18c.612.133 1.3.037 1.876.21a12.247 12.247 0 0 1 2.755 1.32 16.981 16.981 0 0 1 5.969 6.545c.23.439.327.842.537 1.3.4.94.9 1.9 1.3 2.814a12.578 12.578 0 0 0 1.36 2.564c.286.4 1.435.612 1.952.822a13.7 13.7 0 0 1 1.32.535c.651.4 1.3.861 1.913 1.3.305.23 1.262.708 1.32 1.091" fill="#00758f"/></g></svg>