<svg viewBox="0 0 32 32" xmlns="http://www.w3.org/2000/svg"><path d="m23.942 30h-11.263-11.262v-14-14h11.262 11.263v14z" fill="#e6e6e6"/><path d="m2.132 3.202h21.135v.264h-21.135z" fill="#4ed1f8"/><path d="m2.132 7.42h21.135v.264h-21.135z" fill="#4ed1f8"/><path d="m2.132 11.638h21.135v.264h-21.135z" fill="#4ed1f8"/><path d="m2.132 15.856h21.135v.264h-21.135z" fill="#4ed1f8"/><path d="m2.132 20.074h21.135v.264h-21.135z" fill="#4ed1f8"/><path d="m2.132 24.293h21.135v.264h-21.135z" fill="#4ed1f8"/><path d="m2.132 28.511h21.135v.264h-21.135z" fill="#4ed1f8"/><path d="m2 3.202h.264v25.573h-.264z" fill="#4ed1f8"/><path d="m6.218 3.333h.264v25.331h-.264z" fill="#4ed1f8"/><path d="m10.436 3.333h.264v25.331h-.264z" fill="#4ed1f8"/><path d="m14.655 3.333h.264v25.331h-.264z" fill="#4ed1f8"/><path d="m18.873 3.333h.264v25.331h-.264z" fill="#4ed1f8"/><path d="m23.091 3.202h.264v25.573h-.264z" fill="#4ed1f8"/><g fill="#4ed1f8" opacity=".5"><path d="m2.132 27.456h21.135v.264h-21.135z"/><path d="m2.132 26.402h21.135v.264h-21.135z"/><path d="m2.132 25.347h21.135v.264h-21.135z"/><path d="m2.132 23.238h21.135v.264h-21.135z"/><path d="m2.132 22.184h21.135v.264h-21.135z"/><path d="m2.132 21.129h21.135v.264h-21.135z"/><path d="m2.132 19.02h21.135v.264h-21.135z"/><path d="m2.132 17.965h21.135v.264h-21.135z"/><path d="m2.132 16.911h21.135v.264h-21.135z"/><path d="m2.132 14.802h21.135v.264h-21.135z"/><path d="m2.132 13.747h21.135v.264h-21.135z"/><path d="m2.132 12.693h21.135v.264h-21.135z"/><path d="m2.132 10.583h21.135v.264h-21.135z"/><path d="m2.132 9.529h21.135v.264h-21.135z"/><path d="m2.132 8.474h21.135v.264h-21.135z"/><path d="m2.132 6.365h21.135v.264h-21.135z"/><path d="m2.132 5.311h21.135v.264h-21.135z"/><path d="m2.132 4.256h21.135v.264h-21.135z"/></g><g fill="#4ed1f8" opacity=".5"><path d="m22.036 3.333h.264v25.331h-.264z"/><path d="m20.982 3.333h.264v25.331h-.264z"/><path d="m19.927 3.333h.264v25.331h-.264z"/><path d="m17.818 3.333h.264v25.331h-.264z"/><path d="m16.764 3.333h.264v25.331h-.264z"/><path d="m15.709 3.333h.264v25.331h-.264z"/><path d="m13.6 3.333h.264v25.331h-.264z"/><path d="m12.545 3.333h.264v25.331h-.264z"/><path d="m11.491 3.333h.264v25.331h-.264z"/><path d="m9.382 3.333h.264v25.331h-.264z"/><path d="m8.327 3.333h.264v25.331h-.264z"/><path d="m7.273 3.333h.264v25.331h-.264z"/><path d="m5.164 3.333h.264v25.331h-.264z"/><path d="m4.109 3.333h.264v25.331h-.264z"/><path d="m3.055 3.333h.264v25.331h-.264z"/></g><path d="m13 8.976c-2.308 0-4.131-1.274-4.193-2.969a2.775 2.775 0 0 1 1.253-2.32 5.3 5.3 0 0 1 2.943-.963 5.294 5.294 0 0 1 3.006.743 2.775 2.775 0 0 1 1.421 2.221c.065 1.752-1.779 3.194-4.2 3.283-.072.003-.15.005-.23.005zm.232-5.2q-.095 0-.19 0a4.238 4.238 0 0 0 -2.354.756 1.761 1.761 0 0 0 -.828 1.435c.04 1.123 1.568 2.011 3.34 1.95s3.223-1.069 3.181-2.191a1.761 1.761 0 0 0 -.932-1.369 4.165 4.165 0 0 0 -2.215-.584z" fill="#656565"/><path d="m6.4 29.281a5.238 5.238 0 0 1 -2.8-.762 2.775 2.775 0 0 1 -1.41-2.229c-.056-1.752 1.8-3.185 4.213-3.262s4.356 1.236 4.412 2.988a2.775 2.775 0 0 1 -1.267 2.314 5.3 5.3 0 0 1 -2.948.948q-.1.003-.2.003zm.186-5.2h-.156c-1.766.056-3.229 1.052-3.193 2.174a1.761 1.761 0 0 0 .924 1.374 4.235 4.235 0 0 0 2.4.593 4.235 4.235 0 0 0 2.357-.744 1.761 1.761 0 0 0 .835-1.43c-.029-1.087-1.463-1.968-3.162-1.968z" fill="#656565"/><path d="m19.261 29.26a5.238 5.238 0 0 1 -2.807-.762 2.775 2.775 0 0 1 -1.41-2.229c-.055-1.752 1.8-3.185 4.213-3.262a5.3 5.3 0 0 1 3 .759 2.6 2.6 0 0 1 .143 4.544 5.3 5.3 0 0 1 -2.948.948q-.094.002-.191.002zm-3.161-3.024a1.761 1.761 0 0 0 .924 1.374 4.57 4.57 0 0 0 4.757-.151 1.558 1.558 0 0 0 -.089-2.8 4.226 4.226 0 0 0 -2.4-.593c-1.766.056-3.228 1.052-3.193 2.174z" fill="#656565"/><path d="m6.2 23.477a27.4 27.4 0 0 1 3.569-14.491l.687.391a26.609 26.609 0 0 0 -3.47 14.073z" fill="#656565"/><path d="m10.853 7.957a7.171 7.171 0 0 0 -.075 2.32l-.758-.93-1.178-.23a7.165 7.165 0 0 0 2.011-1.16z" fill="#656565"/><path d="m19.854 23.477-.79-.027a26.59 26.59 0 0 0 -.915-7.884 26.624 26.624 0 0 0 -2.554-6.189l.687-.391a27.423 27.423 0 0 1 2.63 6.373 27.372 27.372 0 0 1 .942 8.118z" fill="#656565"/><path d="m15.2 7.957a7.171 7.171 0 0 0 2.011 1.159l-1.178.23-.758.93a7.165 7.165 0 0 0 -.075-2.319z" fill="#656565"/><path d="m11.348 9.945h3.515v.791h-3.515z" fill="#656565" transform="matrix(.016 -1 1 .016 2.557 23.279)"/><path d="m13.054 13.529a7.171 7.171 0 0 0 -1.1-2.046l1.122.426 1.135-.39a7.165 7.165 0 0 0 -1.157 2.01z" fill="#656565"/><path d="m7.809 20.081h4.757v.791h-4.757z" fill="#656565" transform="matrix(.53578259 -.84435598 .84435598 .53578259 -12.56 18.108)"/><path d="m8.147 23.694a7.171 7.171 0 0 0 .133-2.317l.734.949 1.171.26a7.165 7.165 0 0 0 -2.038 1.108z" fill="#656565"/><path d="m15.418 18.051h.791v4.919h-.791z" fill="#656565" transform="matrix(.85978098 -.51066297 .51066297 .85978098 -8.257 10.951)"/><path d="m17.8 23.856a7.171 7.171 0 0 0 -2.006-1.168l1.179-.225.762-.927a7.165 7.165 0 0 0 .065 2.32z" fill="#656565"/><path d="m13.024 19.125a5.238 5.238 0 0 1 -2.807-.762 2.775 2.775 0 0 1 -1.41-2.229 2.775 2.775 0 0 1 1.266-2.314 5.3 5.3 0 0 1 2.948-.948 6.712 6.712 0 0 1 2.134.313l-.331 1a5.668 5.668 0 0 0 -1.769-.261 4.238 4.238 0 0 0 -2.358.744 1.761 1.761 0 0 0 -.835 1.43 1.761 1.761 0 0 0 .924 1.374 4.242 4.242 0 0 0 2.4.593 5.7 5.7 0 0 0 1.678-.378l.378.985a6.844 6.844 0 0 1 -2.022.448q-.099.005-.196.005z" fill="#656565"/><path d="m15.435 12.876a4.338 4.338 0 0 0 -.984 1.622 2.064 2.064 0 0 1 -.016 2.806 4.4 4.4 0 0 0 .982 1.6 3.932 3.932 0 0 0 .078-5.986c-.019-.018-.041-.025-.06-.042z" fill="#656565"/><path d="m19.525 15.278a27.931 27.931 0 0 0 -1.263-3.742 4.376 4.376 0 0 0 -1.777.517 26.063 26.063 0 0 1 1.253 3.685 26.038 26.038 0 0 1 .734 4.534 4.347 4.347 0 0 0 1.825-.351 27.9 27.9 0 0 0 -.772-4.643z" fill="#656565"/><path d="m16.153 12.229a4.437 4.437 0 1 0 6.147 1.271 4.437 4.437 0 0 0 -6.147-1.271zm4.812 7.332a4.346 4.346 0 1 1 1.249-6.018 4.346 4.346 0 0 1 -1.249 6.018z" fill="#2c2928"/><path d="m22.015 19.186a.822.822 0 0 0 -.192-.209 4.347 4.347 0 0 1 -.333.319 4.522 4.522 0 0 1 -.446.337 4.73 4.73 0 0 1 -.94.477.669.669 0 0 0 .031.1.64.64 0 0 0 .047.094l.487.8 1.831-1.12z" fill="#282828"/><path d="m20.793 20.784h2.147v.44h-2.147z" fill="#282828" transform="matrix(.85360535 -.52092025 .52092025 .85360535 -7.74 14.465)"/><path d="m22.868 20.96h2.147v6.887h-2.147z" fill="#282828" transform="matrix(.85360535 -.52092025 .52092025 .85360535 -9.207 16.044)"/><path d="m27.054 27.443-.236-.387-1.833 1.119.236.387a.924.924 0 0 0 1.279.159l.11-.067a.924.924 0 0 0 .444-1.211z" fill="#282828"/><g fill="#00ff80"><path d="m20.68 14.845a.315.315 0 0 1 .338.027 1.078 1.078 0 0 1 .294.578 1.1 1.1 0 0 1 .029.654.327.327 0 0 1 -.278.2.468.468 0 0 1 -.37-.1.922.922 0 0 1 -.262-.5.955.955 0 0 1 -.01-.585.466.466 0 0 1 .259-.274zm.06.227a.149.149 0 0 0 -.074.063.247.247 0 0 0 -.027.132 1.626 1.626 0 0 0 .064.355 1.592 1.592 0 0 0 .112.329.268.268 0 0 0 .094.11.142.142 0 0 0 .094.015.121.121 0 0 0 .078-.048.211.211 0 0 0 .028-.128 2.643 2.643 0 0 0 -.186-.722.235.235 0 0 0 -.093-.107.116.116 0 0 0 -.091.001z"/><path d="m21.694 14.4a.3.3 0 0 1 .346.057 1.493 1.493 0 0 1 .325.7 1.521 1.521 0 0 1 .06.771.31.31 0 0 1 -.27.228.446.446 0 0 1 -.379-.137 1.31 1.31 0 0 1 -.292-.617 1.341 1.341 0 0 1 -.041-.7.441.441 0 0 1 .251-.302zm.072.273a.136.136 0 0 0 -.072.069.315.315 0 0 0 -.021.155 2.351 2.351 0 0 0 .084.427 2.31 2.31 0 0 0 .131.4.347.347 0 0 0 .1.135.13.13 0 0 0 .1.021.11.11 0 0 0 .076-.054.275.275 0 0 0 .022-.15 3.773 3.773 0 0 0 -.224-.862.311.311 0 0 0 -.1-.132.1.1 0 0 0 -.096-.008z"/><path d="m23.472 15.934-.269.038-.379-1.439a.955.955 0 0 1 -.257.392l-.087-.331a.841.841 0 0 0 .169-.26.874.874 0 0 0 .075-.383l.2-.089z"/><path d="m24.455 15.794-.269.038-.429-1.625a1 1 0 0 1 -.247.429l-.1-.376a.874.874 0 0 0 .162-.284 1.028 1.028 0 0 0 .064-.424l.2-.089z"/><path d="m24.636 13.117c.127-.055.249-.008.369.144a3.11 3.11 0 0 1 .416 1.034 3.143 3.143 0 0 1 .151 1.11c-.029.19-.111.294-.247.312s-.272-.059-.4-.231a2.855 2.855 0 0 1 -.381-.95 2.871 2.871 0 0 1 -.132-1.039.437.437 0 0 1 .224-.38zm.107.4a.124.124 0 0 0 -.067.088.584.584 0 0 0 0 .221 5.218 5.218 0 0 0 .139.635 5.153 5.153 0 0 0 .184.6.66.66 0 0 0 .12.208.118.118 0 0 0 .1.04.1.1 0 0 0 .071-.072.528.528 0 0 0 0-.216 5.442 5.442 0 0 0 -.144-.653 5.447 5.447 0 0 0 -.189-.619.612.612 0 0 0 -.119-.205.093.093 0 0 0 -.095-.022z"/><path d="m26.638 15.488-.269.038-.54-2.039a1.151 1.151 0 0 1 -.229.513l-.126-.475a.99.99 0 0 0 .148-.337 1.436 1.436 0 0 0 .039-.515l.2-.088z"/><path d="m26.666 12.236c.127-.055.255.012.385.2a4.584 4.584 0 0 1 .478 1.268 4.62 4.62 0 0 1 .213 1.343c-.018.229-.1.352-.232.37s-.278-.081-.421-.3a4.284 4.284 0 0 1 -.443-1.179 4.283 4.283 0 0 1 -.194-1.272c.016-.228.087-.375.214-.43zm.131.5q-.046.018-.064.1a.829.829 0 0 0 .009.266 7.856 7.856 0 0 0 .178.779q.143.541.221.738a.947.947 0 0 0 .134.258.119.119 0 0 0 .1.052q.048-.009.068-.085a.762.762 0 0 0 -.008-.262 8.117 8.117 0 0 0 -.182-.8q-.148-.557-.227-.757a.892.892 0 0 0 -.133-.256q-.05-.055-.093-.037z"/><path d="m27.681 11.8c.127-.055.257.023.393.234a5.431 5.431 0 0 1 .509 1.385 5.467 5.467 0 0 1 .244 1.46c-.013.249-.088.381-.224.4s-.281-.092-.43-.328a5.11 5.11 0 0 1 -.473-1.294 5.1 5.1 0 0 1 -.225-1.388c.011-.261.08-.418.206-.469zm.144.542q-.046.018-.062.106a.97.97 0 0 0 .015.289q.04.259.2.851t.24.807a1.112 1.112 0 0 0 .14.284q.057.067.106.059t.066-.091a.9.9 0 0 0 -.014-.284q-.04-.26-.2-.867t-.245-.827a1.053 1.053 0 0 0 -.14-.281q-.06-.068-.106-.05z"/><path d="m29.915 15.034-.27.037-.706-2.661a1.478 1.478 0 0 1 -.192.636l-.166-.625a1.248 1.248 0 0 0 .127-.421 2.214 2.214 0 0 0 0-.653l.2-.088z"/><path d="m29.712 10.921c.127-.054.263.043.409.294a7.345 7.345 0 0 1 .572 1.619 7.382 7.382 0 0 1 .307 1.693c0 .288-.072.44-.209.458s-.286-.114-.447-.393a6.984 6.984 0 0 1 -.535-1.524 6.944 6.944 0 0 1 -.287-1.621c.001-.296.064-.472.19-.526zm.168.633q-.046.018-.059.119a1.287 1.287 0 0 0 .027.334q.051.3.235.994t.277.946a1.484 1.484 0 0 0 .154.334q.06.08.109.071t.063-.1a1.2 1.2 0 0 0 -.026-.33q-.051-.3-.239-1.011t-.282-.965a1.42 1.42 0 0 0 -.153-.332q-.06-.078-.106-.061z"/><path d="m21.167 16.362a.422.422 0 0 1 .318.185 1.005 1.005 0 0 1 -.277 1.03.42.42 0 0 1 -.366 0 .59.59 0 0 1 -.311-.261.808.808 0 0 1 .254-.893.561.561 0 0 1 .382-.061zm-.051.189a.175.175 0 0 0 -.192.087 1.487 1.487 0 0 0 -.155.567.216.216 0 0 0 .039.124.191.191 0 0 0 .084.058.145.145 0 0 0 .188-.069 1.666 1.666 0 0 0 .164-.6.189.189 0 0 0 -.04-.121.163.163 0 0 0 -.087-.046z"/><path d="m22.376 16.548a.382.382 0 0 1 .311.212 1.024 1.024 0 0 1 -.019.66 1.022 1.022 0 0 1 -.315.581.38.38 0 0 1 -.373.025.533.533 0 0 1 -.3-.29 1.189 1.189 0 0 1 .309-1.1.5.5 0 0 1 .387-.088zm-.062.23a.167.167 0 0 0 -.1.013.235.235 0 0 0 -.1.1 2.219 2.219 0 0 0 -.189.694.269.269 0 0 0 .033.147.167.167 0 0 0 .083.064.143.143 0 0 0 .1 0 .206.206 0 0 0 .094-.1 2.436 2.436 0 0 0 .2-.727.24.24 0 0 0 -.034-.144.141.141 0 0 0 -.087-.047z"/><path d="m23.37 18.541-.281-.11.328-1.225a1 1 0 0 1 -.442.152l.075-.281a.881.881 0 0 0 .292-.1.68.68 0 0 0 .259-.238l.242.037z"/><path d="m24.793 16.919a.348.348 0 0 1 .3.266 1.751 1.751 0 0 1 -.075.87 1.749 1.749 0 0 1 -.371.791.345.345 0 0 1 -.388.078.488.488 0 0 1 -.288-.348 1.587 1.587 0 0 1 .067-.79 1.577 1.577 0 0 1 .354-.727.457.457 0 0 1 .401-.14zm-.084.312a.143.143 0 0 0 -.107.025.353.353 0 0 0 -.106.141 4.126 4.126 0 0 0 -.257.948.408.408 0 0 0 .021.192.143.143 0 0 0 .08.075.12.12 0 0 0 .1-.011.318.318 0 0 0 .105-.137 4.418 4.418 0 0 0 .266-.981.374.374 0 0 0 -.022-.189.119.119 0 0 0 -.079-.063z"/><path d="m25.649 19.43-.281-.11.428-1.6a1.033 1.033 0 0 1 -.462.227l.1-.371a.9.9 0 0 0 .3-.151.93.93 0 0 0 .281-.321l.242.037z"/><path d="m27.211 17.291a.344.344 0 0 1 .282.319 2.692 2.692 0 0 1 -.131 1.08 2.69 2.69 0 0 1 -.427 1 .34.34 0 0 1 -.4.13.487.487 0 0 1 -.273-.405 2.494 2.494 0 0 1 .122-1 2.47 2.47 0 0 1 .41-.937.451.451 0 0 1 .417-.187zm-.106.394a.133.133 0 0 0 -.11.036.509.509 0 0 0 -.117.182 6.622 6.622 0 0 0 -.325 1.2.591.591 0 0 0 .009.237.133.133 0 0 0 .077.086.11.11 0 0 0 .107-.023.465.465 0 0 0 .116-.178 4.639 4.639 0 0 0 .2-.619 4.658 4.658 0 0 0 .136-.615.552.552 0 0 0 -.01-.235.11.11 0 0 0 -.083-.071z"/><path d="m27.927 20.32-.281-.11.528-1.971a1.134 1.134 0 0 1 -.482.3l.123-.46a.972.972 0 0 0 .317-.2 1.248 1.248 0 0 0 .3-.4l.242.037z"/><path d="m28.953 20.721-.281-.11.573-2.139a1.2 1.2 0 0 1 -.491.336l.134-.5a1.02 1.02 0 0 0 .323-.22 1.413 1.413 0 0 0 .314-.44l.242.037z"/><path d="m30.717 17.83c.151.023.238.155.262.4a4.436 4.436 0 0 1 -.213 1.385 4.434 4.434 0 0 1 -.509 1.307c-.14.195-.28.263-.422.207s-.226-.22-.25-.489a4.194 4.194 0 0 1 .2-1.3 4.143 4.143 0 0 1 .492-1.241c.143-.199.289-.292.44-.269zm-.137.513a.132.132 0 0 0 -.115.053.8.8 0 0 0 -.133.241 7.587 7.587 0 0 0 -.244.791 7.539 7.539 0 0 0 -.18.779.93.93 0 0 0 -.009.3.131.131 0 0 0 .073.1.108.108 0 0 0 .111-.039.742.742 0 0 0 .132-.237 7.8 7.8 0 0 0 .248-.806 7.835 7.835 0 0 0 .185-.8.884.884 0 0 0 .008-.3q-.023-.072-.076-.082z"/></g></svg>