<svg xmlns="http://www.w3.org/2000/svg" viewBox="103.3215 149.69 200.62 200.62"><path fill="#E04E39" d="M260.62 112.31c0 55.399-44.911 100.31-100.31 100.31-55.4 0-100.31-44.912-100.31-100.31C60 56.91 104.91 12 160.31 12c55.399 0 100.31 44.91 100.31 100.31" transform="matrix(1, 0, 0, 1, 43.321502685546875, 137.69000244140625)"/><path fill="#FFF" d="M121.62 122.003a8.926 8.926 0 0 1-6.232-2.524 8.956 8.956 0 0 1-.2-12.664l60.455-62.395a8.956 8.956 0 1 1 12.864 12.464l-60.454 62.395a8.931 8.931 0 0 1-6.434 2.724h.001zm39.427 2.38a8.929 8.929 0 0 1-6.411-15.141l47.746-49.28a8.93 8.93 0 0 1 12.825 12.425l-47.747 49.28a8.904 8.904 0 0 1-6.413 2.716zm-19.35 62.134a8.92 8.92 0 0 1-6.23-2.525 8.956 8.956 0 0 1-.202-12.664l83.514-86.195a8.957 8.957 0 0 1 12.864 12.465l-83.513 86.195a8.931 8.931 0 0 1-6.433 2.724zm-26.205-15.237a8.924 8.924 0 0 1-6.231-2.524 8.954 8.954 0 0 1-.2-12.664l22.767-23.499a8.957 8.957 0 0 1 12.865 12.464l-22.768 23.5a8.931 8.931 0 0 1-6.433 2.723zm-18.165-67.992A8.956 8.956 0 0 1 90.895 88.1l22.768-23.5a8.957 8.957 0 0 1 12.865 12.465l-22.768 23.499a8.932 8.932 0 0 1-6.433 2.724zm117.106 51.17a8.926 8.926 0 0 1-6.231-2.525 8.956 8.956 0 0 1-.2-12.664l10.778-11.124a8.955 8.955 0 0 1 12.664-.2 8.956 8.956 0 0 1 .2 12.664l-10.778 11.124a8.931 8.931 0 0 1-6.433 2.724v.001zm-20.987 22.207a8.956 8.956 0 0 1-8.957 8.956 8.956 8.956 0 1 1 8.957-8.956zm-85.595-40.12a8.957 8.957 0 1 1-17.913 0 8.957 8.957 0 0 1 17.913 0zm42.541-87.883a8.956 8.956 0 0 1-8.956 8.956 8.957 8.957 0 1 1 8.956-8.956z" transform="matrix(1, 0, 0, 1, 43.321502685546875, 137.69000244140625)"/></svg>
