<svg xmlns="http://www.w3.org/2000/svg" viewBox="0 0 32 32"><defs><linearGradient id="a" x2="1" gradientTransform="rotate(22.5 -23.4 38.96)scale(2.23)" gradientUnits="userSpaceOnUse"><stop offset=".4" stop-color="#c37a45"/><stop offset=".7" stop-color="#964d22"/></linearGradient><linearGradient id="b" x2="1" gradientTransform="rotate(113.5 5.45 11.85)scale(4.565)" gradientUnits="userSpaceOnUse"><stop offset=".1" stop-color="#af6938"/><stop offset=".7" stop-color="#8d4419"/></linearGradient></defs><path fill="#e8b57e" d="m28.38 7.89-1.2 2-5.14 2.18-4.37 4.08a1 1 0 0 0-.15.27q0 .03-.04.02-.05 0-.05-.02a.3.3 0 0 0-.15-.27l-2.2-1.42-1.59-1.04-8.25-2.11-2.39-3.7.04-.05 8.95-2.32h.02l3.05 4.57.06.09q.09.14.07.2h.06v-.05l.02-.06v-.02l.02-.05v-.02l.06-.1 2.75-4q.01-.02.03-.02l10.38 1.79z"/><path fill="url(#a)" d="m15.03 10.37-6.04 2.17 4.5 1.15 1.59 1.04-.03-4.36v-.03z"/><path fill="#e4ae76" d="M11.83 5.5 2.88 7.84l-.04.05 2.38 3.7 3.77.96 6.04-2.17q.02-.05-.07-.2l-.06-.09-3.05-4.57z"/><path fill="#d1a578" d="m5.31 11.59-.08-.02-2.38-3.7.03-.05z"/><path fill="url(#b)" d="m15.05 10.37.03 4.36 2.19 1.42a.3.3 0 0 1 .15.27q0 .02.04.02h.01q.03 0 .04-.02a1 1 0 0 1 .15-.27l4.37-4.08.27-.12-7.2-1.58-.05-.04z"/><path fill="#e4ae76" d="m17.94 6.06-2.75 4-.03.04-.08.27 7.22 1.58 4.86-2.07 1.21-2-.02-.05-10.39-1.78z"/><path fill="#bf9064" d="M17.33 26.49 6.84 22.58q-.08-.05-.07-.15l-.45-8.94.02-.05-.09-.18L2 10.84l.04-.08 11.45 2.94 3.78 2.45a.3.3 0 0 1 .15.27q.01.03.05.02.05.01.04-.01a1 1 0 0 1 .16-.27l4.37-4.09 7.91-3.37.05.07-4.27 3.76q-.12.14-.1.23l-.44 8.76q-.01.06-.1.1l-7.66 4.86q-.05.03-.1.01"/><path fill="#b6875b" d="m2 10.84 4.26 2.42.1.18-.03.05 11.06 3.06q.01-.1.08-.11-.03 0-.05-.02a.3.3 0 0 0-.15-.27l-3.78-2.45-11.45-2.94z"/><path fill="#976a40" d="M10.54 14.43c.1.07.11.2.12.29l.05 2.16.01.02 1.78.54.02-.01-.04-2.22c0-.08-.03-.23-.12-.29l-4.03-2.45-1.9-.49z"/><path fill="#d4a271" d="M17.47 16.43q-.07.02-.08.12c-.02-.12-.06-.26-.13-.3l-3.81-2.46.03-.1 3.79 2.45a.3.3 0 0 1 .15.27q.01.02.05.02"/><path fill="#deb37e" d="m13.49 13.69-.04.1L2 10.83l.04-.08z"/><path fill="#ce9c6b" d="M25.72 12.52c-.08.08-.12.19-.1.23l-8.06 3.8h-.02q-.01-.1-.07-.12l.03-.01.02-.05.01-.04.12-.18 4.37-4.09 7.92-3.37.05.07z"/><path fill="#d7a977" d="m22.1 12.15-4.33 4.03a.6.6 0 0 0-.2.38h-.02q-.01-.11-.07-.13.03.01.04-.01v-.04l.03-.05q.04-.1.12-.18l4.37-4.09z"/><path fill="#a9794b" d="m25.69 10.61-4.34 3.94a.5.5 0 0 0-.15.34l-.06 2.15q0 .02.02.01l1.3-.66v-.01l.07-2.13q.01-.2.16-.31l4.32-3.9z"/><path fill="#f8ce92" d="M22.1 12.15 30 8.77l-.05-.07-7.92 3.36z"/><path d="M22.62 21.8c.14-.63.68-1.04.8-.5q-.06-.08-.16.1c-.02-.05-.14-.02-.15.09-.04-.06-.15 0-.16.09-.02-.04-.14-.01-.16.1-.03-.05-.13 0-.17.12m.65-.96-.05.1q0 .05.01.04.02 0 .03-.02zm.1-.27c-.01 0-.06.08-.06.1v.04q.02 0 .03-.02zm-.2.22c-.01 0-.06.07-.06.1v.04q.02 0 .04-.03zm-.22.19-.05.1.01.04q.02 0 .03-.03zm-.17-.43.59-.35-.25.05.03-.42a.8.8 0 0 0 .3-.55l.02-.45-.52.3.03.27-.04.05.05.34-.13-.37.06-.05-.04-.2-.1.06-.02.41c-.01.18.12.34.28.25l-.02.42zm1.26.87-.04-.04.56-1.26.04.03zm-.03-.8-.03.66.05-.04.03-.66zm.56-.34-.03.65.04-.02.04-.66zm-.38.2.12.15.13-.3zm.31-.04-.02.42-.11-.13zm-.09.64-.25.16.13-.31zm-.31 0 .02-.4.11.14zm-.34-.08.06-.03v-.17l.14.17-.14.3v-.13l-.06.04zm1.06-.45.01-.18-.06.03v-.16l-.14.33.13.16v-.15zm-1.78.5L23 22.13q.01.08-.05.13-.06.04-.06-.08l-.04.03c-.01.13.08.12.11.1q.1-.06.08-.17l.05-1.11zm1.66-1.57-.73.43.01-.21.73-.43zm-.6.1.1-.06.04-.74.12-.07-.16-.34-.2.54.11-.07zm.38-.22.12-.07.03-.74.12-.07-.15-.33-.2.53.11-.07zm.03 1.76-.47-.64.04-.08.47.65zm.43-1.65-1.22.73.08-1.76 1.23-.69zm-.09 1.75-1.2.75.08-1.72 1.2-.72zm-2.49 1.55.06-1.75 1.27-.75L23.6 22zm.13-3.6 1.28-.72-.08 1.76-1.27.75zm-.03-.04-.13 3.71 2.55-1.59.17-3.56zm-9.36 4.29c.18-.53.97-.36 1.21.43q-.1-.18-.25-.11c-.04-.09-.16-.13-.23-.09-.06-.1-.19-.13-.24-.08-.03-.06-.15-.15-.24-.09-.06-.1-.18-.14-.25-.06m.95-.28c-.01 0-.08.02-.08.05q-.01.04.01.05t.05.01c.03-.02.03-.1.02-.1m.1-.2s-.07.02-.07.05q-.01.04.01.05t.05.01c.03-.02.03-.1.02-.1m-.3-.01c-.02-.01-.08.02-.09.04q0 .04.02.06h.04c.03-.01.03-.1.02-.1m-.3-.05c-.02 0-.08.02-.09.05q0 .04.02.05t.04 0c.03-.01.03-.1.02-.1m-.3-.67.89.31-.37-.23v-.45a.3.3 0 0 0 .44-.27v-.44l-.8-.27.06.32h-.07l.12.46-.23-.55h.08l-.07-.26-.16-.05.02.45c0 .18.18.49.44.56v.44zm2.06 2.49-.07-.08.84-.74.07.08zm-.1-.95v.72l.07.02v-.72zm.9.33v.72l.08.03v-.72zm-.63-.27.2.34.22-.18zm.53.36v.47l-.21-.3zm-.11.63-.41-.15.2-.18zm-.52-.4v-.46l.2.31zm-.56-.52.1.03v-.17l.23.35-.22.19v-.18l-.1-.02zm1.75.84v-.2l-.1-.04v-.18l-.23.2.23.34v-.16zm-2.9-1.65.02 1.14q0 .08-.08.05-.09 0-.07-.15h-.06q-.02.19.13.22t.15-.1v-1.14zm2.59.25-1.18-.41v-.23l1.18.4zm-1.02-.63.2.07v-.82l.19.06-.28-.56-.3.37.19.06zm.65.21.2.07v-.82l.19.07-.29-.57-.3.38.2.06zm.2 2.09-.85-1.36.06-.04.85 1.36zm.6-1.37-1.98-.7v-1.86l1.98.65zm0 1.94-1.97-.73v-1.83l1.97.69zm-3.9-1.44-.03-1.8 1.9.66v1.83zm-.07-3.71 1.92.63.02 1.87-1.9-.66zm-.04-.07.07 3.82 3.98 1.47.01-3.96z"/></svg>