<svg viewBox="0 0 32 32" xmlns="http://www.w3.org/2000/svg"><path d="m29.635 10.884-3.9-3.909a.506.506 0 0 0 -.717 0l-3.857 3.868a.506.506 0 0 0 0 .715l4.42 4.442s3.916-3.635 4.15-4.823a.325.325 0 0 0 -.096-.293z" fill="#59a5d2"/><path d="m25.574 16.341-4.589-4.61a.753.753 0 0 1 0-1.061l3.857-3.87a.746.746 0 0 1 .532-.221.747.747 0 0 1 .532.221l3.9 3.909a.573.573 0 0 1 .162.513c-.242 1.231-3.817 4.579-4.224 4.956zm-.2-9.269a.259.259 0 0 0 -.184.077l-3.857 3.868a.261.261 0 0 0 0 .368l4.254 4.274c1.548-1.454 3.748-3.745 3.9-4.529a.085.085 0 0 0 -.028-.072l-3.9-3.909a.259.259 0 0 0 -.185-.077z" fill="#337db8"/><path d="m29.74 11.07c0 1.086-4.159 4.93-4.159 4.93l-9.581 9.583s-4.683 4.508-5.418 3.755l.184.188a.875.875 0 0 0 .678.228h9.14a1.012 1.012 0 0 0 .716-.3l8.161-8.154a.935.935 0 0 0 .3-.716z" fill="#71c4f7"/><path d="m20.584 30h-9.14a1.115 1.115 0 0 1 -.839-.288l-.2-.2.349-.345s.366.257 2.652-1.612c1.241-1.015 2.409-2.137 2.42-2.148l9.577-9.579c1.585-1.465 4.088-4.044 4.087-4.756h.491l.019 9.509a1.168 1.168 0 0 1 -.362.883l-8.168 8.168a1.251 1.251 0 0 1 -.886.368zm-9.2-.492h9.2a.762.762 0 0 0 .542-.225l8.161-8.161a.684.684 0 0 0 .225-.542l-.016-8.43a31.454 31.454 0 0 1 -3.749 4.029l-9.574 9.576a21.351 21.351 0 0 1 -4.786 3.753z" fill="#337db8"/><path d="m16 25.583-9.587-9.583c-1.844 1.739-4.569 4.6-3.8 5.37l7.966 7.972c.748.749 5.421-3.759 5.421-3.759z" fill="#59a5d2"/><path d="m10.793 29.652a.519.519 0 0 1 -.386-.142l-7.965-7.97a.739.739 0 0 1 -.206-.548c.018-1.23 2.52-3.769 4.009-5.174l.174-.164 9.932 9.932-.18.174c-1.592 1.535-4.224 3.892-5.378 3.892zm-4.384-13.313c-2.299 2.189-3.671 3.923-3.682 4.661a.244.244 0 0 0 .062.194l7.967 7.972c.265.269 2.4-1.2 4.893-3.585z" fill="#337db8"/><path d="m6.413 16 13.58-13.582a.1.1 0 0 0 -.072-.173h-8.514a1.012 1.012 0 0 0 -.716.3l-8.152 8.155a1.012 1.012 0 0 0 -.3.716v9.343a.447.447 0 0 0 .167.392l.206.219c-.785-.826 2.1-3.662 3.801-5.37z" fill="#71c4f7"/><path d="m2.438 21.536-.009-.009-.2-.211a.675.675 0 0 1 -.229-.561v-9.343a1.25 1.25 0 0 1 .368-.889l8.153-8.154a1.25 1.25 0 0 1 .886-.369h8.514a.347.347 0 0 1 .245.592l-13.766 13.77c-1.253 1.259-4.185 4.2-3.608 4.83l.005.006zm8.969-19.045a.762.762 0 0 0 -.542.225l-8.153 8.154a.762.762 0 0 0 -.225.542v8.758a21.8 21.8 0 0 1 3.56-4.155l.191-.192 13.335-13.332z" fill="#337db8"/></svg>