<svg xmlns="http://www.w3.org/2000/svg" viewBox="0 0 32 32"><title>file_type_docz</title><path d="M24.053,7.707a2.306,2.306,0,0,1,2.314-2.3H9.4a2.307,2.307,0,0,0-2.315,2.3V26.592H21.738a2.307,2.307,0,0,0,2.315-2.3Z" style="fill:#f2ebda"/><path d="M28.685,7.844H24.053V24.293a2.307,2.307,0,0,1-2.315,2.3H4.724A2.345,2.345,0,0,1,2.41,24.156H19.373a2.47,2.47,0,0,0,.942,1.978,2.291,2.291,0,0,0,.928-1.841V7.707a2.306,2.306,0,0,1,2.314-2.3h2.814A2.344,2.344,0,0,1,28.685,7.844Z" style="fill:#e2d9c5"/><path d="M17.816,19.8a11.156,11.156,0,0,1,1.917-4.122c2.21-2.507,6.642-3.244,9.857-3.162a28.516,28.516,0,0,0-2.9,2.752,15.113,15.113,0,0,1-4.821,3.22A25.123,25.123,0,0,0,17.816,19.8Z" style="fill:#dda064"/><path d="M17.816,19.8c.476-1.472,8.559-7.366,11.774-7.284a28.516,28.516,0,0,0-2.9,2.752,15.113,15.113,0,0,1-4.821,3.22A25.123,25.123,0,0,0,17.816,19.8Z" style="fill:#b57947"/><path d="M22.1,9.579a.409.409,0,0,0-.41-.408H12.95a.408.408,0,1,0,0,.816h8.737A.409.409,0,0,0,22.1,9.579ZM9.656,9.987H11.04a.408.408,0,1,0,0-.816H9.656a.408.408,0,1,0,0,.816Zm0,11.681a.408.408,0,1,0,0,.816h4.293a.408.408,0,1,0,0-.816Zm6.426-3.758a.409.409,0,0,0-.411-.407H9.656a.408.408,0,1,0,0,.815h6.015A.41.41,0,0,0,16.082,17.91Zm2.928-4.165a.409.409,0,0,0-.411-.408H9.656a.408.408,0,1,0,0,.815H18.6A.409.409,0,0,0,19.01,13.745Zm5.043,5.2a.41.41,0,0,0-.411.408v4.94a1.9,1.9,0,0,1-1.9,1.892h-.051a1.943,1.943,0,0,1-1.9-2.033.408.408,0,0,0-.41-.4H7.5V7.707A1.9,1.9,0,0,1,9.4,5.815H24.419l-.035.038c-.014.015-.029.03-.043.046l-.043.049c-.014.016-.028.032-.041.049l-.041.051-.039.051c-.013.017-.026.035-.038.053s-.025.035-.037.052l-.036.055c-.011.018-.023.036-.034.055s-.022.037-.033.056-.022.038-.032.057-.02.038-.03.058l-.03.058L23.88,6.6c-.009.02-.018.04-.026.06s-.017.041-.025.061l-.024.061-.021.063-.021.062c-.007.021-.013.044-.019.066s-.012.04-.017.061-.011.046-.016.069-.01.041-.014.061-.009.048-.013.072-.008.04-.011.06-.007.052-.01.078,0,.038-.007.056,0,.059-.007.088l0,.049c0,.045,0,.091,0,.138v3.618a.411.411,0,0,0,.821,0V8.251h4.222a.409.409,0,0,0,.292-.121.4.4,0,0,0,.118-.29A2.743,2.743,0,0,0,26.367,5H9.4A2.718,2.718,0,0,0,6.68,7.707V23.749H2.41A.41.41,0,0,0,2,24.16,2.742,2.742,0,0,0,4.724,27H21.738a2.719,2.719,0,0,0,2.725-2.707v-4.94A.409.409,0,0,0,24.053,18.945Zm.431-11.518.006-.037.01-.052.008-.039.011-.048.011-.041.013-.045.013-.041.015-.043.015-.042L24.6,7l.018-.042.016-.037.021-.043.016-.032L24.7,6.8l.01-.017a2.053,2.053,0,0,1,.125-.193h0l.045-.059.008-.009.046-.054.009-.01c.016-.018.032-.036.049-.053L25,6.394c.017-.018.035-.036.053-.053l.006,0c.019-.018.038-.036.058-.053l0,0a1.906,1.906,0,0,1,.9-.433h0l.085-.013h0c.027,0,.054-.007.082-.009H26.2l.076-.005.044,0h.048a1.9,1.9,0,0,1,1.863,1.621H24.483ZM4.724,26.185A1.9,1.9,0,0,1,2.86,24.564H18.991c.006.042.012.084.02.126l.008.041c.005.027.01.055.016.082l.011.048c.006.025.011.049.018.073l.014.05c.006.023.012.046.019.069l.016.051.022.065.018.051.025.064.02.048c.009.022.018.043.028.064l.02.046c.01.022.021.044.032.066l.021.041c.013.026.027.051.041.076l.015.028c.02.034.04.067.061.1l.015.023c.016.026.032.051.049.075l.024.034.045.061.028.036.044.055.03.036c.015.018.031.035.046.052l.032.035.023.025ZM30,12.514V12.5a.369.369,0,0,0-.02-.11v-.006l0,0a.483.483,0,0,0-.023-.052l0-.006a.494.494,0,0,0-.027-.042l-.006-.009c-.011-.014-.023-.027-.035-.04l-.009-.008a.276.276,0,0,0-.037-.031l0,0a.331.331,0,0,0-.047-.029l-.009-.005a.461.461,0,0,0-.051-.022h0a.341.341,0,0,0-.055-.014l-.012,0a.355.355,0,0,0-.057-.006c-3.434-.088-7.912.733-10.176,3.3a10.578,10.578,0,0,0-1.89,3.928c-.037.112-.073.225-.109.338l0,.014-.693,2.447a.406.406,0,0,0,.284.5.387.387,0,0,0,.111.016.411.411,0,0,0,.395-.3l.643-2.269a12.791,12.791,0,0,1,2.275-.769c.444-.12.947-.256,1.556-.442a15.343,15.343,0,0,0,5-3.332,27.951,27.951,0,0,1,2.859-2.714l0,0a.378.378,0,0,0,.041-.039l0,0a.346.346,0,0,0,.034-.044l.006-.009a.4.4,0,0,0,.046-.1l0-.01A.486.486,0,0,0,30,12.568v0a.234.234,0,0,0,0-.038Zm-9.959,3.433a8.73,8.73,0,0,1,4.352-2.427,16.519,16.519,0,0,1,1.634-.352,32.007,32.007,0,0,0-3.579,2.069,32.733,32.733,0,0,0-3.565,2.708A6.672,6.672,0,0,1,20.041,15.947Zm6.349-.955A14.82,14.82,0,0,1,21.75,18.1c-.6.182-1.092.316-1.53.434-.4.107-.756.2-1.112.317.159-.152.346-.322.566-.512a32.725,32.725,0,0,1,3.23-2.423,22.384,22.384,0,0,1,5.322-2.758C27.628,13.7,27.041,14.292,26.39,14.992Z"/></svg>