<svg xmlns="http://www.w3.org/2000/svg" viewBox="0 0 32 32"><mask id="a"><path fill="#fff" d="M30.32 6.79a2.26 2.26 0 0 0 2.26 2.26h8.58c1 0 1.51 1.22.8 1.93L30.98 21.96c-.43.43-.67 1-.67 1.6v3.76c0 1.56 1.55 2.64 2.92 1.9a20 20 0 0 0 3.87-2.73 1.2 1.2 0 0 1 1.62.02l8 8a1.1 1.1 0 0 1-.01 1.59c-6.07 5.67-14.22 9.15-23.18 9.15S6.4 41.77.34 36.1a1.1 1.1 0 0 1-.01-1.59l8-8a1.2 1.2 0 0 1 1.62-.02 20 20 0 0 0 3.87 2.73c1.37.74 2.92-.34 2.92-1.9v-3.76c0-.6-.24-1.17-.66-1.6L5.09 10.98c-.71-.71-.2-1.93.8-1.93h8.58a2.26 2.26 0 0 0 2.27-2.26V1.13c0-.62.5-1.13 1.13-1.13h11.3c.63 0 1.14.5 1.14 1.13z"/></mask><g mask="url(#a)" transform="translate(2 2.54)scale(.595)"><path fill="#32f3ef" d="M0 0h48v46H0z"/><g filter="url(#b)"><ellipse cx="23.4" cy="45.98" fill="#aefffb" rx="4.62" ry="21.5" transform="rotate(-90 23.4 45.98)"/><ellipse cx="41.58" cy="44.01" fill="#0f8" rx="4.62" ry="21.5" transform="rotate(248.3 41.58 44.01)"/><ellipse cx="5.2" cy="44.01" fill="#195eff" rx="4.62" ry="21.5" transform="rotate(-68.3 5.2 44.01)"/><ellipse cx="31.93" cy="28.89" fill="#aefffb" rx="3.72" ry="6.27" transform="rotate(224.8 31.93 28.9)"/><ellipse cx="33.84" cy="25.45" fill="#195eff" rx="3.72" ry="6.27" transform="rotate(224.8 33.84 25.44)"/><ellipse cx="33.46" cy="6.3" fill="#aefffb" rx="3.72" ry="6.27" transform="rotate(224.8 33.46 6.3)"/><ellipse cx="34.61" cy="4.77" fill="#195eff" rx="3.72" ry="6.27" transform="rotate(224.8 34.6 4.77)"/><ellipse cx="15.46" cy="29.66" fill="#aefffb" rx="3.72" ry="6.27" transform="rotate(-44.8 15.46 29.66)"/><ellipse cx="12.78" cy="26.21" fill="#195eff" rx="3.72" ry="6.27" transform="rotate(-44.8 12.78 26.21)"/><ellipse cx="12.78" cy="6.3" fill="#aefffb" rx="3.72" ry="6.27" transform="rotate(-44.8 12.78 6.3)"/><ellipse cx="12.4" cy="4" fill="#195eff" rx="3.72" ry="6.27" transform="rotate(-44.8 12.4 4)"/><ellipse cx="9.16" cy="17.59" fill="#195eff" rx="3.72" ry="11.95" transform="rotate(-44.8 9.16 17.58)"/><ellipse cx="38.99" cy="14.52" fill="#0f8" rx="3.72" ry="11.95" transform="rotate(224.8 39 14.52)"/><ellipse cx="23.4" cy="47.89" fill="#195eff" rx="4.62" ry="21.5" transform="rotate(-90 23.4 47.9)"/></g></g><defs><filter id="b" width="55" height="55" x="0" y="0" filterUnits="userSpaceOnUse"><feGaussianBlur stdDeviation="4.6"/></filter></defs></svg>