<svg xmlns="http://www.w3.org/2000/svg" viewBox="0 0 32 32"><title>file_type_gcode</title><path d="M13.245,25.407l-2.272-1.085a5.256,5.256,0,0,0,1.35.432,6.984,6.984,0,0,0,3.159-.235,9.03,9.03,0,0,0,2.061-.864,8.2,8.2,0,0,0,1.713-1.315,9.3,9.3,0,0,0,1.392-1.81,13.644,13.644,0,0,0,1.1-2.35l2.272,1.085a13.535,13.535,0,0,1-1.1,2.35,9.3,9.3,0,0,1-1.392,1.81,8.2,8.2,0,0,1-1.713,1.316,9.12,9.12,0,0,1-2.061.864,7.012,7.012,0,0,1-3.159.235A5.27,5.27,0,0,1,13.245,25.407Z" style="fill:#bd0000"/><path d="M25.209,18.826l-1.19.439-6.558,1.874.947-.37Z" style="fill:#610000"/><path d="M17.461,21.139l-2.272-1.086.024-4.755,2.272,1.085Z" style="fill:#6b0000"/><path d="M17.485,16.383,15.213,15.3l11.392-3.255,2.272,1.086Z" style="fill:#a40000"/><path d="M18.427,17.009l-.942-.626,11.392-3.254.109.863Z" style="fill:#db0000"/><path d="M18.408,20.769l-.947.37.024-4.756.942.626Z" style="fill:#930000"/><path d="M24.818,8.74l-.535.466a7.731,7.731,0,0,0-1.492-1.138,6.114,6.114,0,0,0-3.35-.83,7.776,7.776,0,0,0-1.857.307,9.32,9.32,0,0,0-1.834.739l.414-.221A7.977,7.977,0,0,1,18.107,7.3a6.765,6.765,0,0,1,1.945-.321,4.612,4.612,0,0,1,1.823.183,5.389,5.389,0,0,1,1.689.686,5.9,5.9,0,0,1,1.254.9" style="fill:#600"/><path d="M9.907,21.035c-.025-.14-.046-.255-.065-.361a7.742,7.742,0,0,0,.4,1.438,6.22,6.22,0,0,0,1.742,2.468A5.383,5.383,0,0,0,14.6,25.84a7.017,7.017,0,0,0,3.16-.235,9.131,9.131,0,0,0,2.06-.864,8.2,8.2,0,0,0,1.713-1.316,9.3,9.3,0,0,0,1.393-1.81,13.608,13.608,0,0,0,1.1-2.35l1.191-.439a15.705,15.705,0,0,1-1.446,3.266,8.313,8.313,0,0,1-1.5,1.943,7.326,7.326,0,0,1-1.833,1.408,8.035,8.035,0,0,1-2.163.908,6.592,6.592,0,0,1-3.314.245,5.089,5.089,0,0,1-2.745-1.326,5.863,5.863,0,0,1-1.836-2.6A8.468,8.468,0,0,1,9.907,21.035Z" style="fill:#c90000"/><path d="M21.677,2.113A10.452,10.452,0,0,0,20.449,2.1h-.007c-.327.018-.662.068-1,.114-.152.022-.3.031-.455.058q-.682.121-1.388.32l-.016,0a14.683,14.683,0,0,0-5.124,2.624,16.4,16.4,0,0,0-2.168,2.07A20.057,20.057,0,0,0,8.388,9.865a21.016,21.016,0,0,0-1.31,2.41,18.864,18.864,0,0,0-.94,2.476,17.992,17.992,0,0,0-.57,2.541,18.207,18.207,0,0,0-.2,2.607,16.854,16.854,0,0,0,.091,1.864A14.269,14.269,0,0,0,5.753,23.5a11.99,11.99,0,0,0,1.189,3.113,9.087,9.087,0,0,0,1.882,2.4,7.52,7.52,0,0,0,1.784,1.188L8.336,29.123a7.581,7.581,0,0,1-1.784-1.188,9.087,9.087,0,0,1-1.882-2.4,12,12,0,0,1-1.189-3.113,14.269,14.269,0,0,1-.292-1.741A16.613,16.613,0,0,1,3.1,18.814a18.207,18.207,0,0,1,.2-2.607,17.992,17.992,0,0,1,.57-2.541,18.912,18.912,0,0,1,.939-2.476A21.026,21.026,0,0,1,6.116,8.78,20.088,20.088,0,0,1,8.021,6.205,16.457,16.457,0,0,1,10.19,4.136a14.683,14.683,0,0,1,5.124-2.624h0l.031-.007a13.983,13.983,0,0,1,1.372-.317c.156-.028.306-.037.46-.058.268-.038.537-.083.8-.1q.1-.008.2-.012h0a10.29,10.29,0,0,1,1.231.012c.063,0,.126,0,.189.011.045,0,.09,0,.135.007l.035.017a9.653,9.653,0,0,1,1.069.154,6.773,6.773,0,0,1,1.5.517L24.608,2.82a6.769,6.769,0,0,0-1.5-.518,9.779,9.779,0,0,0-1.239-.178C21.805,2.119,21.741,2.117,21.677,2.113Z" style="fill:#750000"/><path d="M27.336,4.813l-.067.4a12.317,12.317,0,0,0-1.757-1.332,8.165,8.165,0,0,0-2.052-.826,11.447,11.447,0,0,0-2.579-.195,14.725,14.725,0,0,0-2.776.482h0a17.083,17.083,0,0,0-2.613,1.028,17.049,17.049,0,0,0-2.344,1.508,19.021,19.021,0,0,0-2.085,1.99,23.241,23.241,0,0,0-1.84,2.486,25.359,25.359,0,0,0-1.265,2.327,22.588,22.588,0,0,0-.9,2.381,21.831,21.831,0,0,0-.548,2.445,22.048,22.048,0,0,0-.192,2.519c.014.594.026,1.222.088,1.8.076.55.156,1.14.282,1.681a13.347,13.347,0,0,0,1.148,3,10.106,10.106,0,0,0,1.814,2.317,8.45,8.45,0,0,0,2.37,1.418,9.432,9.432,0,0,0,2.842.487,13.994,13.994,0,0,0,1.567-.122c.539-.081,1.111-.225,1.666-.367a17.08,17.08,0,0,0,2.428-.952l-.532.265a14.01,14.01,0,0,1-2.42.936,13.714,13.714,0,0,1-1.714.378A10.956,10.956,0,0,1,14.235,31a8.483,8.483,0,0,1-2.947-.506A7.6,7.6,0,0,1,8.824,29.02a9.087,9.087,0,0,1-1.882-2.4A11.99,11.99,0,0,1,5.753,23.5a14.269,14.269,0,0,1-.292-1.741A16.854,16.854,0,0,1,5.37,19.9a18.207,18.207,0,0,1,.2-2.607,17.992,17.992,0,0,1,.57-2.541,18.864,18.864,0,0,1,.94-2.476,21.016,21.016,0,0,1,1.31-2.41,19.987,19.987,0,0,1,1.906-2.574,16.462,16.462,0,0,1,2.168-2.07A14.683,14.683,0,0,1,17.586,2.6a12.879,12.879,0,0,1,2.859-.5,10.1,10.1,0,0,1,2.662.2,7.134,7.134,0,0,1,2.14.86A10.918,10.918,0,0,1,27.336,4.813Z" style="fill:#8e0000"/><path d="M18.105,3.343a14.725,14.725,0,0,1,2.776-.482,11.447,11.447,0,0,1,2.579.195,8.217,8.217,0,0,1,2.052.826,12.241,12.241,0,0,1,1.757,1.333L24.818,8.74a5.9,5.9,0,0,0-1.254-.9,5.389,5.389,0,0,0-1.689-.686,4.612,4.612,0,0,0-1.823-.183,6.734,6.734,0,0,0-1.945.322A8.816,8.816,0,0,0,14.876,8.9a10.908,10.908,0,0,0-2.68,2.822,12.1,12.1,0,0,0-1.8,3.558,11,11,0,0,0-.616,3.807,8.537,8.537,0,0,0,.6,3.573,5.868,5.868,0,0,0,1.836,2.6A5.078,5.078,0,0,0,14.958,26.6a6.583,6.583,0,0,0,3.315-.244,8.062,8.062,0,0,0,2.163-.908,7.3,7.3,0,0,0,1.832-1.408,8.3,8.3,0,0,0,1.5-1.944,15.622,15.622,0,0,0,1.445-3.265l-6.8,1.943.019-3.76,10.559-3.017.014.635a18.459,18.459,0,0,1-.387,3.358A21.916,21.916,0,0,1,27.485,21.4a22.573,22.573,0,0,1-1.716,3.144,18.28,18.28,0,0,1-2.138,2.54A15.373,15.373,0,0,1,21.075,29a15.569,15.569,0,0,1-2.984,1.249c-.555.141-1.128.285-1.667.367a13.954,13.954,0,0,1-1.566.121,9.432,9.432,0,0,1-2.842-.487,8.427,8.427,0,0,1-2.37-1.418,10.1,10.1,0,0,1-1.814-2.316A13.373,13.373,0,0,1,6.684,23.51c-.126-.54-.206-1.13-.282-1.68-.062-.581-.075-1.209-.088-1.8a22.014,22.014,0,0,1,.192-2.518,21.733,21.733,0,0,1,.548-2.445,22.605,22.605,0,0,1,.9-2.382,25.359,25.359,0,0,1,1.265-2.327A23.221,23.221,0,0,1,11.062,7.87a19.13,19.13,0,0,1,2.086-1.991,17.144,17.144,0,0,1,2.344-1.508A16.981,16.981,0,0,1,18.105,3.343Z" style="fill:#ba0000"/></svg>