<svg xmlns="http://www.w3.org/2000/svg" viewBox="0 0 32 32"><title>file_type_docker@2x</title><g id="docker"><path d="M18.19,13.07H20.7v2.57H22a5.5,5.5,0,0,0,1.74-.29,4.46,4.46,0,0,0,.85-.38A3.15,3.15,0,0,1,24,13.34a3.43,3.43,0,0,1,.62-2.42l.26-.31.31.25a4,4,0,0,1,1.57,2.54,3.84,3.84,0,0,1,2.91.27l.34.2-.18.35A3.63,3.63,0,0,1,26.17,16c-2.17,5.41-6.9,8-12.64,8A8,8,0,0,1,6.3,20.21l0,0L6,19.71A7.28,7.28,0,0,1,5.47,16l0-.38H7.65V13.07h2.51V10.56h5V8.05h3v5Z" style="fill:#3a4e55"/><path d="M26.32,14a3.31,3.31,0,0,0-1.42-2.82A3.07,3.07,0,0,0,25.2,15a5.28,5.28,0,0,1-3.22,1H5.88a6.78,6.78,0,0,0,.67,3.74l.18.33a6.2,6.2,0,0,0,.38.57h0q1,.06,1.83,0h0a9,9,0,0,0,2.67-.39.19.19,0,1,1,.13.37l-.28.09h0a8.4,8.4,0,0,1-1.84.3H9.48c-.29,0-.6,0-.93,0s-.7,0-1.08,0h0a7.88,7.88,0,0,0,6.06,2.41c5.56,0,10.28-2.46,12.36-8,1.48.15,2.91-.23,3.55-1.49a3.5,3.5,0,0,0-3.12,0" style="fill:#00aada"/><path d="M26.32,14a3.31,3.31,0,0,0-1.42-2.82A3.07,3.07,0,0,0,25.2,15a5.28,5.28,0,0,1-3.22,1H6.84a5.22,5.22,0,0,0,2.11,4.69h0a9,9,0,0,0,2.67-.39.19.19,0,1,1,.13.37l-.28.09h0a8.83,8.83,0,0,1-1.89.31l0,0c1.89,1,4.64,1,7.78-.24A21.87,21.87,0,0,0,26.42,14l-.1,0" style="fill:#27b9ec"/><path d="M5.91,17.73a6.43,6.43,0,0,0,.64,2.06l.18.33a6.2,6.2,0,0,0,.38.57q1,.06,1.83,0a9,9,0,0,0,2.67-.39.19.19,0,1,1,.13.37l-.28.09h0a8.83,8.83,0,0,1-1.89.31h-.1l-.92,0c-.35,0-.71,0-1.1,0a7.91,7.91,0,0,0,6.08,2.41c4.76,0,8.9-1.81,11.3-5.8Z" style="fill:#088cb9"/><path d="M7,17.73a4.83,4.83,0,0,0,2,3,9,9,0,0,0,2.67-.39.19.19,0,1,1,.13.37l-.28.09h0a9,9,0,0,1-1.9.31c1.89,1,4.63,1,7.77-.25a20.55,20.55,0,0,0,5.38-3.13Z" style="fill:#039cc7"/><path d="M9.89,13.67h.17v1.81H9.89V13.67Zm-.33,0h.18v1.81H9.56V13.67Zm-.33,0h.18v1.81H9.23V13.67Zm-.33,0h.18v1.81H8.9V13.67Zm-.33,0h.18v1.81H8.57V13.67Zm-.32,0h.17v1.81H8.25V13.67Zm-.18-.18h2.18v2.18H8.07V13.49Z" style="fill:#00acd3"/><path d="M12.4,11.16h.17V13H12.4V11.16Zm-.33,0h.18V13h-.18V11.16Zm-.33,0h.18V13h-.18V11.16Zm-.33,0h.18V13h-.18V11.16Zm-.33,0h.18V13h-.18V11.16Zm-.32,0h.17V13h-.17V11.16ZM10.58,11h2.18v2.18H10.58V11Z" style="fill:#00acd3"/><path d="M12.4,13.67h.17v1.81H12.4V13.67Zm-.33,0h.18v1.81h-.18V13.67Zm-.33,0h.18v1.81h-.18V13.67Zm-.33,0h.18v1.81h-.18V13.67Zm-.33,0h.18v1.81h-.18V13.67Zm-.32,0h.17v1.81h-.17V13.67Zm-.18-.18h2.18v2.18H10.58V13.49Z" style="fill:#26c2ee"/><path d="M14.91,13.67h.17v1.81h-.17V13.67Zm-.33,0h.18v1.81h-.18V13.67Zm-.33,0h.18v1.81h-.18V13.67Zm-.33,0h.18v1.81h-.18V13.67Zm-.33,0h.18v1.81h-.18V13.67Zm-.32,0h.17v1.81h-.17V13.67Zm-.18-.18h2.18v2.18H13.09V13.49Z" style="fill:#00acd3"/><path d="M14.91,11.16h.17V13h-.17V11.16Zm-.33,0h.18V13h-.18V11.16Zm-.33,0h.18V13h-.18V11.16Zm-.33,0h.18V13h-.18V11.16Zm-.33,0h.18V13h-.18V11.16Zm-.32,0h.17V13h-.17V11.16ZM13.09,11h2.18v2.18H13.09V11Z" style="fill:#26c2ee"/><path d="M17.42,13.67h.17v1.81h-.17V13.67Zm-.33,0h.18v1.81h-.18V13.67Zm-.33,0h.18v1.81h-.18V13.67Zm-.33,0h.18v1.81h-.18V13.67Zm-.33,0h.18v1.81H16.1V13.67Zm-.32,0H16v1.81h-.17V13.67Zm-.18-.18h2.18v2.18H15.6V13.49Z" style="fill:#26c2ee"/><path d="M17.42,11.16h.17V13h-.17V11.16Zm-.33,0h.18V13h-.18V11.16Zm-.33,0h.18V13h-.18V11.16Zm-.33,0h.18V13h-.18V11.16Zm-.33,0h.18V13H16.1V11.16Zm-.32,0H16V13h-.17V11.16ZM15.6,11h2.18v2.18H15.6V11Z" style="fill:#00acd3"/><path d="M17.42,8.65h.17v1.81h-.17V8.65Zm-.33,0h.18v1.81h-.18V8.65Zm-.33,0h.18v1.81h-.18V8.65Zm-.33,0h.18v1.81h-.18V8.65Zm-.33,0h.18v1.81H16.1V8.65Zm-.32,0H16v1.81h-.17V8.65Zm-.18-.18h2.18v2.18H15.6V8.47Z" style="fill:#26c2ee"/><path d="M19.93,13.67h.17v1.81h-.17V13.67Zm-.33,0h.18v1.81H19.6V13.67Zm-.33,0h.18v1.81h-.18V13.67Zm-.33,0h.18v1.81h-.18V13.67Zm-.33,0h.18v1.81h-.18V13.67Zm-.32,0h.17v1.81h-.17V13.67Zm-.18-.18h2.18v2.18H18.11V13.49Z" style="fill:#00acd3"/><path d="M12.62,19.19a.6.6,0,1,1-.6.6.6.6,0,0,1,.6-.6" style="fill:#d5eef2"/><path d="M12.62,19.36a.43.43,0,0,1,.16,0,.18.18,0,1,0,.24.24.43.43,0,1,1-.4-.27" style="fill:#3a4e55"/><path d="M2,17.95H29.92c-.61-.15-1.92-.36-1.71-1.16-1.11,1.28-3.77.9-4.44.27-.75,1.09-5.11.67-5.41-.17-.94,1.1-3.85,1.1-4.79,0-.3.85-4.67,1.26-5.41.17-.67.63-3.34,1-4.44-.27.22.8-1.1,1-1.71,1.16" style="fill:#3a4e55"/><path d="M14.21,23.52a5.29,5.29,0,0,1-2.76-2.71,9.2,9.2,0,0,1-2,.3l-.92,0q-.55,0-1.17,0a7.94,7.94,0,0,0,6.14,2.43h.68" style="fill:#c0dbe1"/><path d="M12,21.77a5.21,5.21,0,0,1-.55-1,9.2,9.2,0,0,1-2,.3,6.32,6.32,0,0,0,2.54.66" style="fill:#d5eef2"/></g></svg>