<svg version="1.1" viewBox="0 0 32 32" xmlns="http://www.w3.org/2000/svg"><title>file_type_knip</title><g transform="matrix(.84007 0 0 .86636 4.2391 -17.788)"><path d="m23.976 23h-19.953c-3.3267 0-6.0235 2.6968-6.0235 6.0235v19.953c0 3.3267 2.6968 6.0235 6.0235 6.0235h19.953c3.3267 0 6.0235-2.6968 6.0235-6.0235v-19.953c0-3.3267-2.6968-6.0235-6.0235-6.0235z" fill="#f56e0f"/><path d="m16.902 29.19c1.3785-1.9978 2.9718-2.9049 4.7389-2.7833l-7.4526 12.996c-0.1789 0.502-0.5088 0.9363-0.9444 1.2433-0.4046 0.2657-0.6241 0.2341-1.0257 0.3778-0.3605 0.1197-0.6593 0.3767-0.8313 0.7154l-0.1383 0.4411c-0.1243 0.3936-0.3202 0.7873-0.0272 1.1713 0.1933 0.2526 0.56 0.3465 1.0448 0.3298 0.4208 0.0855 0.819 0.2583 1.1689 0.507 0.359 0.2665 0.6649 0.5979 0.9018 0.977 0.6916 1.342 0.7378 2.822-0.2318 4.5261-1.0674 2.0083-2.5523 2.7045-4.2588 2.6792-1.1058-0.1486-1.864-0.6568-2.3323-1.461-0.71966-1.2356-0.70814-2.5689-0.24042-3.8766 0.34673-0.881 0.77762-1.7263 1.2868-2.5244l1.3153-3.2968 0.1286 0.1215zm6.6437 11.407c2.4178-0.2134 3.993-1.1517 4.7591-2.7488l-12.381 0.0585-1.5791 2.697zm-13.116-1.4616c-0.1666 0.0536-0.3415 0.0773-0.5163 0.0697l-0.4519-0.0973c-0.4038-0.0861-0.843-0.11-1.0324-0.5543-0.1253-0.2945-0.026-0.6597 0.2287-1.0715 0.1317-0.4117 0.1752-0.8466 0.128-1.2763-0.0539-0.4404-0.1895-0.867-0.3998-1.2578-0.82625-1.2636-2.0917-2.0357-4.0513-2.0314-2.262-0.05067-3.6052 0.88889-4.4252 2.3856-0.42374 1.0303-0.35175 1.9474 0.11361 2.7465 0.71463 1.2269 1.885 1.8833 3.2524 2.1199 0.9372 0.1339 1.8852 0.1762 2.8306 0.1263l3.4119 0.4694 0.0684-0.1207-0.0078-0.037 0.0288 0.0017zm-3.2503-1.8347c0.41848-0.833 0.05527-1.6152-0.60529-2.178-0.52917-0.4521-1.2408-0.694-2.1155-0.7276-0.88091-0.0287-1.7491 0.2162-2.4852 0.701-1.3791 0.9812-0.89243 2.4356 0.39779 3.2025 0.59496 0.3464 1.2808 0.5044 1.9673 0.4534 0.53072-0.0258 1.0535-0.139 1.5474-0.335 0.55228-0.2025 1.0123-0.5985 1.2945-1.1145zm6.1158 1.6796c0.0712 0.1222 0.1045 0.2628 0.0958 0.4041-0.0088 0.1411-0.0593 0.2766-0.145 0.3891-0.0858 0.1125-0.2031 0.197-0.3369 0.2429-0.1339 0.0458-0.2783 0.0509-0.4151 0.0147-0.1367-0.0363-0.2596-0.1124-0.3531-0.2185-0.0935-0.1062-0.1535-0.2378-0.1722-0.378-0.0187-0.1403 0.0046-0.2829 0.0671-0.4099 0.0624-0.127 0.161-0.2326 0.2835-0.3035 0.081-0.0472 0.1706-0.0779 0.2635-0.0905 0.093-0.0125 0.1875-0.0065 0.2782 0.0175 0.0906 0.0241 0.1756 0.0658 0.2502 0.1227 0.0745 0.057 0.137 0.1281 0.184 0.2094zm-1.5998 6.0739c0.931 0.047 1.4312 0.7471 1.5948 1.5993 0.1333 0.6851-0.0085 1.4218-0.4058 2.2078-0.4138 0.7768-1.057 1.4072-1.8419 1.8054-1.5348 0.7137-2.5599-0.4272-2.5904-1.9278-0.0079-0.688 0.1935-1.3622 0.5773-1.9332 0.2836-0.4494 0.6401-0.8485 1.0549-1.1807 0.4491-0.38 1.0209-0.5841 1.6091-0.5743z" clip-rule="evenodd" fill="#fff" fill-rule="evenodd" opacity=".8"/></g></svg>
