<svg viewBox="0 0 32 32" xmlns="http://www.w3.org/2000/svg"><path d="m9.966 13.338a2 2 0 0 0 -1.215-.315 2.113 2.113 0 0 0 -1.728.887 3.826 3.826 0 0 0 -.693 2.414v4.676h-2.33v-9.771h2.33v2.013h.04a3.387 3.387 0 0 1 1.05-1.607 2.44 2.44 0 0 1 1.58-.578 2.048 2.048 0 0 1 .964.182z" fill="#d80303"/><path d="m28 21h-2.33v-5.324a4.142 4.142 0 0 0 -.457-2.224 1.714 1.714 0 0 0 -1.542-.687 1.878 1.878 0 0 0 -1.552.869 3.416 3.416 0 0 0 -.638 2.08v5.286h-2.34v-5.506q0-2.728-2.029-2.729a1.855 1.855 0 0 0 -1.552.821 3.485 3.485 0 0 0 -.608 2.128v5.286h-2.33v-9.771h2.33v1.546h.04a3.6 3.6 0 0 1 3.245-1.775 3.169 3.169 0 0 1 1.863.558 2.781 2.781 0 0 1 1.09 1.465 3.692 3.692 0 0 1 3.415-2.023q3.395 0 3.395 3.979z"/></svg>