<svg xmlns="http://www.w3.org/2000/svg" viewBox="0 0 32 32"><path fill="#c32c29" d="M2 2h28v28H2z"/><path d="M10.2 10.9c-.7.2-1 1.2-.4 1.7.2.2.7.2.2.5-.5 0-.5.5-.4 1 .6-.2 1.3-.5 1.7-1 .4-.6.5-1.6 0-2.1-.4-.2-.8-.2-1.1-.1zm.6.2c.6.2.6 1 .4 1.5-.2.5-.9 1-1.3 1 .4-.4.8-.7 1-1.3 0-.5-.5.4-.8.1-.6-.2-.4-1 .1-1.2h.6zm8.9 1.3-3.1.3V14c.3 0 1.2-.3 1.1.3v2.8L15.3 13h-1.5c-.8.2-1.6.2-2.5.3v1.2c.4.2 1.3-.3 1.2.4v4.4c-.2.5-1.2 0-1.2.6 0 .5-.1 1.2.6 1l3.4-.4v-1.3h-1.2v-3.4l2.6 4.6 2.5-.2c.3-.2 0-.9.1-1.3V14c.2-.5 1.1 0 1.2-.5 0-.5.2-1.3-.5-1h-.3zm.5.7c.1.6-.8.2-1 .6-.2.5-.1 1-.2 1.5v4.6l-2 .2-3-5.4c-.2 0-.1.7-.1 1v3.6c.1.5.7.3 1 .3.3-.1.2.2.2.3 0 .3 0 .4-.2.4l-3.2.3v-.7c.4-.1 1 0 1.2-.6v-4.7c0-.4-.5-.4-.8-.4-.1 0-.4.1-.3-.1-.2-.5.2-.7.6-.6l2.6-.2c.5.3.6 1 1 1.4l2.2 3.8V14c-.1-.5-.9-.3-1.3-.3 0-.4 0-.8.5-.7l2.9-.3v.4zM8.7 14c-.4-.2-.8.1-1 .4-.8-.6-1.9-.5-2.8-.2a4 4 0 0 0-2.7 3.1v2.2A3 3 0 0 0 4.8 22a6 6 0 0 0 2.1-.1c1-.2 2-1 2.3-2 .2-.4.3-.9.3-1.4-.2-.4-.8 0-1.1 0-.5 0-.3.5-.4.8-.2.6-.6 1.2-1.2 1.3-.6.1-1.1 0-1.4-.6-.5-.7-.4-1.6-.4-2.4 0-.8.3-1.7 1-2 .5-.2 1-.2 1.4 0 .6.3.6 1 .7 1.6l1.3-.1c.2-.5 0-1 0-1.4V14h-.6zm.4 1.5v1.2c-.4 0-1 .3-.9-.3 0-.7-.6-1.3-1.3-1.4a2 2 0 0 0-2 1.3c-.4 1-.4 2-.2 3 .2.8.7 1.5 1.5 1.5.8.1 1.7-.4 1.9-1.2.2-.4 0-1 .5-1 .3-.1.6.1.4.4a3 3 0 0 1-2 2.4c-.8.3-1.7.3-2.5.1-.9-.2-1.6-1-1.8-1.9a4 4 0 0 1 .3-3.4c.6-1.3 2.1-2 3.5-1.9.5 0 1 .1 1.3.5.1.3.4.2.3-.1 0-.5.7-.6 1-.4v1.2z"/><path d="M27.2 7.8h-.4l-4 .4-1.3.2-1.2.1h-.1v2l1.1-.2c.3 0 .3-.2.3 4v3.9l-.9.3h-.5v2l.4-.1 2.8-.3 2.6-.3v-2l-.2.1h-1.1v-1.6l-.1-1.3h.5l3-.6c.8-.4 1.5-1.3 1.7-2.2.2-.5.2-1.3.2-1.8-.1-.8-.3-1.4-.8-1.8-.5-.5-1.1-.7-2-.7zm0 .3h.9c1 .4 1.6 1.3 1.6 2.7a4 4 0 0 1-.5 2c-.3.5-1 1.1-1.5 1.3l-2.6.4h-.7l-.1.1v1.6c0 1.8 0 1.8.2 2h1.3v1.3h-.5l-2.6.3-2.2.3v-1.3h.4c.6-.1.8-.2.9-.4.1-.2.2-1.3.1-4.8v-3.3c-.2-.3-.3-.3-.8-.3h-.6V8.9h.3a2816.8 2816.8 0 0 0 6.5-.7zM26 9.5h-1l-.6.2v3.6h.3c1.5-.2 2-.3 2.3-.8.3-.4.3-.7.3-1.4v-.8l-.6-.6-.7-.2zm-.1.3h.5c.5.3.7.8.6 1.6 0 .7-.3 1-.7 1.3a5 5 0 0 1-1.4.3h-.2v-3l.4-.1h.8z"/><path fill="#fff" d="M5.3 21.6c-1.3 0-2.6-1-2.7-2.3-.4-1.7.2-3.7 1.8-4.5.8-.4 1.8-.6 2.6-.4.5 0 1.1 1 1.2 0 .5-.6 1.1.2.9.8-.2.5.3 1.7-.5 1.6-.7-.2-.3-1.2-1-1.4-.8-.8-2.2-.3-2.7.7s-.4 2.3-.2 3.4c.2.9 1.1 1.6 2 1.3.8-.1 1.5-.9 1.5-1.7.1-.9 1.2-.5.8.3a3 3 0 0 1-2.7 2.2h-1zm4.7-8.1c.3-.3.7-.6.8-1.1.1-.3-.2-.2-.2 0-.2 0-.5.2-.6 0-.2-.2-.3-.5-.2-.7.1-.4.5-.6.9-.6.2 0 .5.2.6.5.1.6-.1 1.2-.6 1.6a1 1 0 0 1-.7.3zm1.7 6.6c-.2-.7 1 0 1-.8.2-1.4.1-2.9.1-4.3 0-.5 0-1-.7-.9-.8.3-.5-1 .2-.7l2.6-.2c.6.4.7 1 1 1.6l2.2 3.6v-4.5c-.2-.6-1.3.1-1.3-.5 0-.7.9-.4 1.3-.5l2-.2c.3.6-.3.8-.7.8-.5.3-.3 1-.4 1.4v4.9c-.7 0-1.7.4-2.2 0l-3-5.2v4.7c.3.6 1.4-.2 1.2.6-.2.6-1 .2-1.5.4l-1.8.1v-.3zm8.8-.1c0-.5-.2-1.4.6-1.3.8 0 .9-.8.8-1.4v-6.7c0-.7-.7-.6-1.2-.6-.4-.1-.2-.8-.1-1.2.5-.2 1 0 1.6-.2l4.7-.5c.6 0 1.2 0 1.7.3.6.4 1 1.2 1 2 .2 1.1-.1 2.4-1.1 3.2a3 3 0 0 1-2 .7l-2.2.3V18c.3.8 1.3 0 1.4.5 0 .5.3 1.3-.5 1.1l-4.7.5zm4.3-6.7c.8-.1 1.7-.2 2.1-.9.4-.6.4-1.4.3-2-.2-.7-1-1-1.7-.9-.5 0-1.4 0-1.2.8v3h.5z"/></svg>