<svg xmlns="http://www.w3.org/2000/svg" viewBox="0 0 32 32"><title>file_type_search_result</title><path fill="#a074c4" d="M19.64 2.04V2q-2.7 0-5 1.52-2.32 1.52-3.42 4.03-1.1 2.52-.7 5.25.39 2.72 2.22 4.8L3.67 28l1.25 1.13 9.03-10.36q1.78 1.41 3.99 1.83 2.2.41 4.35-.23 2.14-.65 3.76-2.23 1.62-1.58 2.35-3.72t.42-4.37-1.62-4.08-3.31-2.89q-2-1.04-4.25-1.04zm0 17.02q-2.28 0-4.2-1.31-1.91-1.31-2.78-3.46-.88-2.14-.42-4.4.46-2.27 2.08-3.92t3.87-2.1q2.25-.46 4.37.44t3.39 2.83q1.27 1.93 1.27 4.22 0 1.54-.56 2.95-.57 1.42-1.63 2.5t-2.45 1.67q-1.4.58-2.94.58zM19.7 3.7q-2.25 0-4.16 1.22-1.92 1.23-2.85 3.31-.94 2.08-.59 4.33.36 2.24 1.86 3.95L6.4 25.09l1.09.96 7.44-8.53q1.5 1.16 3.33 1.5 1.83.33 3.6-.2T25 17q1.35-1.31 1.96-3.08.6-1.77.33-3.62t-1.35-3.37q-1.08-1.52-2.73-2.37-1.64-.85-3.51-.85zm0 14.02q-1.92 0-3.5-1.06t-2.3-2.83q-.74-1.77-.36-3.64t1.73-3.25q1.35-1.37 3.22-1.75 1.87-.37 3.62.38t2.83 2.33q1.25 1.87 1.02 4.12-.23 2.24-1.81 3.87-.88.87-2.04 1.35-1.17.48-2.41.48zM6.04 30 3.1 27.42l10.27-11.65 2.92 2.58z"/></svg>