<svg xmlns="http://www.w3.org/2000/svg" viewBox="0 0 32 32"><path fill="#2d1dff" d="M28.6 12.1a5.99 5.99 0 0 0 1.23-4.06.4.4 0 0 0-.42-.38.4.4 0 0 0-.38.42 5.18 5.18 0 0 1-1.06 3.53c.23.15.44.3.63.49zm-9.43 1.87s-2.01-2.49-3.26-2.86a1.9 1.9 0 0 0-1.97.48c.3-.17.66-.26 1.02-.26.79 0 1.86.34 4.21 2.64zm-8.94-2.38a2.07 2.07 0 0 1 1.43-.23s-.6-.47-1.5-.05c-1.61.76-1.6 3.26-1.6 3.26.23-1.24.66-2.4 1.67-2.99zm.52.32c-1.25.44-1.5 2.2-1.53 3.79.2-1.93.64-2.99 1.4-3.42.2-.1.4-.16.64-.16.26 0 .55.07.88.23 0 0-.57-.73-1.39-.44zm3.59.37c.8-.46 1.76.13 2.5.69.66.5 1.47 1.23 2.4 2.19 0 0-2.3-3.1-3.65-3.34a1.47 1.47 0 0 0-1.74.87c.14-.16.3-.3.49-.4zm11.4 1.78a.74.74 0 1 1 0-1.48.74.74 0 0 1 0 1.48zm-13.5 3.04c.13-.06.6.43 1.18 1.09l-1.61.3c.11-.73.25-1.31.43-1.4zm17.2-3.14a4.63 4.63 0 0 0-2.67-2.55c.38-.99.69-2.61-.15-4.57a.4.4 0 0 0-.73.31c.75 1.75.45 3.2.11 4.02a5.88 5.88 0 0 0-.4-.08 1.7 1.7 0 0 0-1.93 1.19l-1.03 3.52-3.3.8c-1.7-1.84-3.9-3.94-4.67-3.5-.45.25-.7.87-.82 1.7-1.22-1.15-2.37-2-2.87-1.7-.5.28-.8 1.2-.96 2.4l-.01.1v.03l-.02.13v.04l-.01.1v.03l-.02.13v.04l-.02.1V16.35l-.01.04-.01.13v.05l-.01.1v.05l-.02.13v.2l-.01.11v.04l-.01.13v.06l-.01.1v.05l-.01.14V17.89l-.01.11v.24l-.01.1v.26l-.01.09v.06l-.03 2.05s-.12-.91-.22-2c-4.36.59-7.62.59-7.62.59s-.71 2.97 5.29 3.04c.4.53 1.19.94 2.48 1.21l-.08.85h-.97a.46.46 0 1 0 0 .92h1.58c.23 0 .42-.16.46-.39l.2-1.2.25-1.52s.05.8 0 1.55a18.42 18.42 0 0 0 1.53.11c-.02.2-.03.37-.06.53h-.96a.46.46 0 1 0 0 .92h1.58c.23 0 .42-.16.46-.38.05-.34.1-.69.17-1.02 1.69.03 3.2-.04 4.54-.2.04.38.06.76.06 1.13 0 .26.22.48.48.48h1.6a.48.48 0 1 0 0-.96l-1.19.04-.08-.8a15.08 15.08 0 0 0-.61-3.15s.6 1.11.8 3.12a22.3 22.3 0 0 0 2.05-.41c.1.55.15 1.13.15 1.68 0 .26.22.48.48.48h1.6a.48.48 0 0 0 0-.96l-1.19.03s-.05-.65-.16-1.48c3.6-1.94 3.91-4.89 3.91-4.89-2.13-.65-2.39-2-2.39-2 .83 1.22 2.58 1.6 2.58 1.6 2.22.38 4.42-.31 2.92-3.78z"/></svg>