<svg xmlns="http://www.w3.org/2000/svg" viewBox="0 0 24 24" >
  <title>file_type_dartlang</title>
  <g transform="translate(.13166 .18096)">
    <path d="m12.486 1.3848c-.24574 0-.49211.095798-.68216.2813-.0029.00283-.0065.00415-.0094.00703l-6.388 3.6921 6.3716 6.3716v.0047l7.6585 7.6585 1.4604-2.6302-5.265-12.64-2.4567-2.4567c-.19117-.19117-.43971-.28834-.6892-.28834z" fill="#66C3FA"/>
    <path d="m5.4217 5.3504-3.6907 6.3824c-.00288.0029-.00415.0065-.00703.0094-.18554.19002-.28186.43853-.2819.68426-4.34e-5.24949.0966.4959.28774.6871l3.0589 3.0619 11.963 4.7059 2.7042-1.5026-.0726-.07271-.01876.0024-7.4996-7.5127-.0094-1.3e-5-6.4339-6.4452z" fill="#215896"/>
    <path d="m5.405 5.3535 6.5182 6.525.0094 7e-6 7.5022 7.5101 2.8555-.5447.0043-8.4485-3.0154-2.9553c-.66031-.64734-1.6753-1.0645-2.6951-1.2016l.0024-.032819-11.181-.85211z" fill="#235997"/>
    <path d="m5.4135 5.361 6.5216 6.5216v.0094l7.5061 7.5061-.5462 2.8552h-8.4485l-2.9537-3.017c-.647-.66076-1.0636-1.676-1.2002-2.6959l-.032814.0024-.84626-11.182z" fill="#58B6F0"/>
  </g>
</svg>