<?xml version="1.0" encoding="UTF-8"?>
<svg width="463px" height="407px" viewBox="0 0 463 407" version="1.1" xmlns="http://www.w3.org/2000/svg" xmlns:xlink="http://www.w3.org/1999/xlink">
    <!-- Generator: Sketch 41.2 (35397) - http://www.bohemiancoding.com/sketch -->
    <title>bower-logo</title>
    <desc>Created with Sketch.</desc>
    <defs></defs>
    <g id="Page-1" stroke="none" stroke-width="1" fill="none" fill-rule="evenodd">
        <g id="bower-logo">
            <g id="Layer_1">
                <g id="Group">
                    <path d="M453.689,198.606 C429.899,175.747 310.94,161.477 273.404,157.323 C275.222,153.029 276.77,148.588 278.048,144.015 C283.165,141.774 288.689,139.689 294.4,137.948 C295.096,140.001 298.374,147.867 300.242,151.6 C375.721,153.682 379.596,95.509 382.666,79.572 C385.668,63.989 385.515,48.932 411.405,21.406 C372.834,10.166 317.366,38.827 298.787,81.486 C291.805,78.87 284.808,76.938 277.887,75.743 C272.927,55.737 247.101,0 179.329,0 C93.522,0 0,70.789 0,190.621 C0,291.351 68.772,379.628 107.628,379.628 C124.597,379.628 139.194,366.921 142.621,355.53 C145.494,363.34 154.309,387.62 157.204,393.801 C161.483,402.941 181.272,410.85 189.932,401.365 C201.067,407.551 221.498,411.277 232.634,394.78 C254.079,399.316 273.038,386.528 273.452,371.269 C283.975,370.707 289.137,355.932 286.839,344.165 C285.145,335.502 267.05,304.417 259.992,293.687 C273.964,305.052 309.355,308.269 313.653,293.694 C336.18,311.376 371.286,302.095 374.07,287.715 C401.442,294.827 432.837,279.207 427.682,260.289 C471.655,257.248 466.027,210.462 453.689,198.606 Z" id="outline" fill="#543729"></path>
                    <g id="leaf" transform="translate(303.000000, 31.000000)" fill="#00ACEE">
                        <path d="M28.252,67.825 C37.723,49.034 49.624,28.516 64.656,15.822 C48.111,22.49 31.776,42.423 22.118,63.728 C17.195,60.599 12.197,57.808 7.157,55.367 C20.63,26.609 51.936,2.592 86.437,0.716 C63.328,21.674 71.531,65.234 52.531,88.294 C47.094,82.833 34.61,72.294 28.252,67.825 Z M13.314,98.424 C13.324,97.705 13.593,92.158 14.098,89.626 C12.773,89.314 4.537,87.703 0.243,87.804 C-0.07,93.197 2.509,102.372 5.058,107.895 C22.613,107.527 35.293,102.27 42.756,97.437 C36.402,94.475 25.56,91.842 17.316,90.267 C16.396,92.17 14.132,97.019 13.314,98.424 Z" id="Shape"></path>
                    </g>
                    <path d="M251.083,278.09 C251.087,278.115 251.098,278.149 251.101,278.174 C248.876,273.386 246.513,267.57 243.691,259.968 C254.679,275.962 289.117,267.713 287.311,253.381 C304.167,266.064 338.864,251.268 330.976,233.484 C347.861,241.352 367.133,225.521 362.811,218.623 C391.598,224.175 419.185,229.709 427.845,231.925 C422.092,241.305 408.99,247.929 389.24,243.326 C399.912,257.864 379.192,275.305 350.332,265.699 C356.685,279.971 330.989,292.82 301.784,277.944 C302.155,292.222 265.553,293.866 251.083,278.09 Z M308.188,205.923 C341.599,208.488 396.851,213.47 431.057,218.257 C428.896,207.125 422.993,203.945 404.424,198.957 C384.453,201.087 333.786,206.064 308.188,205.923 Z" id="wingtip" fill="#2BAF2B"></path>
                    <path d="M287.311,253.381 C304.167,266.064 338.864,251.268 330.976,233.484 C347.861,241.352 367.133,225.521 362.811,218.623 C328.777,212.061 293.064,205.475 284.963,204.324 C289.877,204.585 298.022,205.143 308.188,205.924 C333.787,206.065 384.454,201.088 404.424,198.958 C372.088,190.759 306.068,178.794 260.474,175.846 C258.361,178.934 254.477,184.171 247.712,189.736 C227.764,231.943 191.621,259.998 151.631,259.998 C139.977,259.998 126.938,258.032 112.323,253.36 C103.209,263.124 64.35,270.523 32.82,255.047 C57.83,313.609 115.83,352.701 180.031,352.701 C234.101,352.701 258.077,297.487 252.83,282.878 C251.557,279.331 246.512,267.57 243.689,259.969 C254.679,275.962 289.116,267.713 287.311,253.381 Z" id="body" fill="#FFCC2F"></path>
                    <path d="M254.543,142.258 C259.317,139.661 275.815,129.661 291.536,125.903 C291.288,124.162 291.101,122.406 290.985,120.64 C280.671,123.11 261.226,131.444 250.083,119.959 C273.592,127.053 285.33,113.638 302.609,113.638 C312.905,113.638 327.597,116.514 339.178,121.061 C329.863,112.456 299.317,86.486 261.497,86.396 C253.053,96.633 243.926,118.808 254.543,142.258 Z" id="beak" fill="#CECECE"></path>
                    <path d="M112.323,253.36 C126.938,258.032 139.977,259.998 151.631,259.998 C191.621,259.998 227.763,231.942 247.712,189.736 C232.958,202.052 207.316,212.59 167.271,212.59 C202.94,204.502 233.646,186.727 249.266,160.745 C238.286,143.269 226.377,104.607 256.535,74.043 C251.896,59.139 229.316,19.795 179.329,19.795 C92.093,19.795 19.796,92.792 19.796,190.62 C19.796,213.778 24.471,235.497 32.821,255.046 C64.35,270.523 103.209,263.124 112.323,253.36 Z" id="head" fill="#EF5734"></path>
                    <path d="M138.496,104.407 C138.496,126.659 156.535,144.7 178.788,144.7 C201.041,144.7 219.082,126.659 219.082,104.407 C219.082,82.154 201.041,64.114 178.788,64.114 C156.535,64.114 138.496,82.154 138.496,104.407 Z" id="eye_rim" fill="#FFCC2F"></path>
                    <path d="M154.664,104.407 C154.664,117.729 165.466,128.53 178.787,128.53 C192.111,128.53 202.911,117.729 202.911,104.407 C202.911,91.084 192.112,80.283 178.787,80.283 C165.466,80.283 154.664,91.084 154.664,104.407 Z" id="eye" fill="#543729"></path>
                    <ellipse id="pupil_highlight" fill="#FFFFFF" cx="178.787" cy="93.703" rx="14.057" ry="8.74"></ellipse>
                </g>
            </g>
        </g>
    </g>
</svg>