<svg viewBox="0 0 240 240" xmlns="http://www.w3.org/2000/svg"> <title>file_type_oxlint</title> <mask id="c" x="99" y="6" width="42" height="42" maskUnits="userSpaceOnUse"> <path d="M99 6h42v42H99z" fill="#fff"/> <path d="m120 44c9.389 0 17-7.611 17-17s-7.611-17-17-17-17 7.611-17 17 7.611 17 17 17zm0-7c5.523 0 10-4.477 10-10s-4.477-10-10-10-10 4.477-10 10 4.477 10 10 10z" clip-rule="evenodd" fill-rule="evenodd"/> </mask> <path d="m120 44c9.389 0 17-7.611 17-17s-7.611-17-17-17-17 7.611-17 17 7.611 17 17 17zm0-7c5.523 0 10-4.477 10-10s-4.477-10-10-10-10 4.477-10 10 4.477 10 10 10z" clip-rule="evenodd" fill="#FF915C" fill-rule="evenodd"/> <path d="M133 27c0 7.18-5.82 13-13 13v8c11.598 0 21-9.402 21-21h-8Zm-13-13c7.18 0 13 5.82 13 13h8c0-11.598-9.402-21-21-21v8Zm-13 13c0-7.18 5.82-13 13-13V6c-11.598 0-21 9.402-21 21h8Zm13 13c-7.18 0-13-5.82-13-13h-8c0 11.598 9.402 21 21 21v-8Zm6-13a6 6 0 0 1-6 6v8c7.732 0 14-6.268 14-14h-8Zm-6-6a6 6 0 0 1 6 6h8c0-7.732-6.268-14-14-14v8Zm-6 6a6 6 0 0 1 6-6v-8c-7.732 0-14 6.268-14 14h8Zm6 6a6 6 0 0 1-6-6h-8c0 7.732 6.268 14 14 14v-8Z" fill="#2B3C5A" mask="url(#c)"/> <g clip-path="url(#b)"> <rect x="20" y="20" width="200" height="200" rx="100" fill="#91EDE9"/> <path d="M20 20h200v200H20z" fill="#91EDE9"/> <path d="M229 223H13v-43.5s19.176-15.802 28.5-16.5c11.844-.886 14.777 3.594 26.5 5.5 12.326 2.004 20.245-10.898 32.5-8.5 12.493 2.444 28.672 11.859 39 11.5 21.843-.759 20.554-4.873 38.5-1 7.627 1.646 15.768-14.416 28.5-12 6.449 1.224 22.5 2.5 22.5 2.5v62Z" fill="#48ACBA"/> <mask id="a" x="46" y="6" width="148" height="178" maskUnits="userSpaceOnUse"> <path d="M46 6h148v178H46z" fill="#fff"/> <path d="M127.017 42.489C132.905 39.817 137 33.887 137 27c0-9.389-7.611-17-17-17s-17 7.611-17 17c0 6.887 4.095 12.817 9.983 15.489L112.552 55h-.052l-23.726 1.79A3 3 0 0 0 86 59.783v6.44a3 3 0 0 0 2.77 2.991L112 71l-1.104 41.769c-.333 12.612-2.388 28.067-14.71 30.774-1.365.3-2.767.457-4.186.457-7.386 0-15.91-9.093-21.37-18.417a62.702 62.702 0 0 1 6.636-2.443c1.297-.396 1.558-2.222.426-2.97-8.182-5.408-14.672-12.666-18.654-21.062-.547-1.154-2.2-1.238-2.751-.086a65.066 65.066 0 0 0-3.519 9.006c-2.761 9.002-3.465 18.391-2.073 27.631l.093.597c.193 1.203 1.683 1.629 2.559.782a55.43 55.43 0 0 1 5.236-4.466C68.627 164.191 102.218 180 120 180c17.786 0 51.39-15.817 61.424-47.452a55.379 55.379 0 0 1 5.231 4.478c.876.85 2.37.424 2.562-.781l.05-.316.041-.27c1.386-9.24.685-18.629-2.064-27.631a65.212 65.212 0 0 0-3.495-8.99c-.55-1.156-2.207-1.072-2.753.085-3.966 8.391-10.425 15.644-18.566 21.049-1.129.749-.868 2.571.427 2.968a61.983 61.983 0 0 1 6.533 2.411C163.929 134.886 155.395 144 148 144c-1.418 0-2.82-.157-4.184-.456-12.324-2.707-14.379-18.163-14.712-30.775L128 71l23.23-1.787a3 3 0 0 0 2.77-2.991v-6.44a3 3 0 0 0-2.774-2.991L127.5 55h-.052l-.431-12.511ZM130 27c0 5.523-4.477 10-10 10s-10-4.477-10-10 4.477-10 10-10 10 4.477 10 10Z" clip-rule="evenodd" fill-rule="evenodd"/> </mask> <path d="M127.017 42.489C132.905 39.817 137 33.887 137 27c0-9.389-7.611-17-17-17s-17 7.611-17 17c0 6.887 4.095 12.817 9.983 15.489L112.552 55h-.052l-23.726 1.79A3 3 0 0 0 86 59.783v6.44a3 3 0 0 0 2.77 2.991L112 71l-1.104 41.769c-.333 12.612-2.388 28.067-14.71 30.774-1.365.3-2.767.457-4.186.457-7.386 0-15.91-9.093-21.37-18.417a62.702 62.702 0 0 1 6.636-2.443c1.297-.396 1.558-2.222.426-2.97-8.182-5.408-14.672-12.666-18.654-21.062-.547-1.154-2.2-1.238-2.751-.086a65.066 65.066 0 0 0-3.519 9.006c-2.761 9.002-3.465 18.391-2.073 27.631l.093.597c.193 1.203 1.683 1.629 2.559.782a55.43 55.43 0 0 1 5.236-4.466C68.627 164.191 102.218 180 120 180c17.786 0 51.39-15.817 61.424-47.452a55.379 55.379 0 0 1 5.231 4.478c.876.85 2.37.424 2.562-.781l.05-.316.041-.27c1.386-9.24.685-18.629-2.064-27.631a65.212 65.212 0 0 0-3.495-8.99c-.55-1.156-2.207-1.072-2.753.085-3.966 8.391-10.425 15.644-18.566 21.049-1.129.749-.868 2.571.427 2.968a61.983 61.983 0 0 1 6.533 2.411C163.929 134.886 155.395 144 148 144c-1.418 0-2.82-.157-4.184-.456-12.324-2.707-14.379-18.163-14.712-30.775L128 71l23.23-1.787a3 3 0 0 0 2.77-2.991v-6.44a3 3 0 0 0-2.774-2.991L127.5 55h-.052l-.431-12.511ZM130 27c0 5.523-4.477 10-10 10s-10-4.477-10-10 4.477-10 10-10 10 4.477 10 10Z" clip-rule="evenodd" fill="#FF915C" fill-rule="evenodd"/> <path d="m127.017 42.489-1.653-3.643-2.437 1.106.092 2.675 3.998-.138Zm-14.034 0 3.998.138.092-2.675-2.437-1.106-1.653 3.643ZM112.552 55v4h3.864l.133-3.862-3.997-.138Zm-.052 0v-4h-.151l-.15.011L112.5 55Zm-23.726 1.79-.3-3.988.3 3.989Zm-.004 12.423-.307 3.988.307-3.988ZM112 71l3.999.106.1-3.802-3.792-.292L112 71Zm-1.104 41.769 3.999.106-3.999-.106Zm-14.71 30.774.858 3.907-.859-3.907Zm-25.557-17.96-1.593-3.669-4.14 1.797 2.282 3.894 3.451-2.022Zm6.637-2.443-1.169-3.825 1.169 3.825Zm.426-2.97 2.206-3.337v-.001l-2.206 3.338ZM59.038 99.108l-3.614 1.714 3.614-1.714Zm-2.751-.086 3.608 1.727-3.608-1.727Zm-3.519 9.006-3.824-1.173 3.824 1.173Zm-2.073 27.631-3.955.596 3.955-.596Zm.093.597-3.95.635 3.95-.635Zm2.559.782 2.78 2.875-2.78-2.875Zm5.236-4.466 3.812-1.211-1.707-5.377-4.509 3.391 2.404 3.197Zm122.841-.024 2.409-3.193-4.512-3.404-1.709 5.387 3.812 1.21Zm5.231 4.478-2.786 2.869v.001l2.786-2.87Zm2.562-.781-3.95-.631 3.95.631Zm.05-.316 3.953.611-3.953-.611Zm.041-.27-3.956-.593 3.956.593Zm-2.064-27.631-3.825 1.168 3.825-1.168Zm-3.495-8.99-3.611 1.719 3.611-1.719Zm-2.753.085-3.617-1.709 3.617 1.71Zm-18.566 21.049-2.213-3.333 2.213 3.333Zm.427 2.968-1.173 3.824 1.173-3.824Zm6.533 2.411 3.452 2.02 2.277-3.892-4.135-1.797-1.594 3.669Zm-25.574 17.993-.858 3.907.858-3.907Zm-14.712-30.775-3.999.105 3.999-.105ZM128 71l-.307-3.988-3.792.291.1 3.803L128 71Zm23.23-1.787.307 3.988-.307-3.988Zm-.004-12.422.301-3.989-.301 3.989ZM127.5 55l.301-3.989-.15-.011h-.151v4Zm-.052 0-3.997.138.133 3.862h3.864v-4Zm1.222-8.869C135.934 42.835 141 35.513 141 27h-8c0 5.26-3.125 9.8-7.636 11.846l3.306 7.285ZM141 27c0-11.598-9.402-21-21-21v8c7.18 0 13 5.82 13 13h8ZM120 6c-11.598 0-21 9.402-21 21h8c0-7.18 5.82-13 13-13V6ZM99 27c0 8.513 5.066 15.835 12.33 19.131l3.306-7.285C110.125 36.8 107 32.26 107 27h-8Zm9.986 15.351-.432 12.511 7.995.276.432-12.511-7.995-.276ZM112.552 51h-.052v8h.052v-8Zm-.353.011-23.726 1.791.602 7.977 23.726-1.79-.602-7.978Zm-23.726 1.791A7 7 0 0 0 82 59.782h8a1 1 0 0 1-.925.997l-.602-7.977ZM82 59.782v6.44h8v-6.44h-8Zm0 6.44a7 7 0 0 0 6.463 6.98l.614-7.977a1 1 0 0 1 .923.997h-8Zm6.463 6.98 23.23 1.786.614-7.976-23.23-1.787-.614 7.976Zm19.538-2.308-1.104 41.769 7.998.212 1.104-41.77-7.998-.21Zm-1.104 41.769c-.164 6.229-.756 12.703-2.621 17.844-1.83 5.046-4.618 8.178-8.949 9.13l1.717 7.813c7.991-1.755 12.392-7.705 14.753-14.216 2.327-6.416 2.929-13.975 3.098-20.359l-7.998-.212Zm-11.57 26.974A15.512 15.512 0 0 1 92 140v8c1.714 0 3.404-.19 5.044-.55l-1.717-7.813ZM92 140c-2.163 0-5.19-1.426-8.698-4.655-3.38-3.11-6.64-7.378-9.222-11.784l-6.902 4.044c2.88 4.918 6.612 9.859 10.706 13.626C81.85 144.88 86.777 148 92 148v-8Zm-19.778-10.748a58.4 58.4 0 0 1 6.212-2.286l-2.337-7.651a66.358 66.358 0 0 0-7.061 2.599l3.186 7.338Zm6.212-2.286c4.551-1.39 5.403-7.53 1.464-10.133l-4.411 6.674a2.371 2.371 0 0 1-1.056-2.288 2.374 2.374 0 0 1 1.666-1.904l2.337 7.651Zm1.464-10.134c-7.626-5.04-13.603-11.757-17.246-19.438l-7.228 3.428c4.32 9.11 11.325 16.91 20.063 22.685l4.41-6.675ZM62.652 97.394c-1.793-3.782-7.774-4.694-9.974-.099l7.217 3.454a2.567 2.567 0 0 1-2.385 1.448 2.419 2.419 0 0 1-2.086-1.375l7.228-3.428Zm-9.974-.099a69.057 69.057 0 0 0-3.734 9.56l7.648 2.346a61.062 61.062 0 0 1 3.303-8.452l-7.217-3.454Zm-3.734 9.56c-2.935 9.57-3.687 19.563-2.204 29.4l7.91-1.192c-1.302-8.643-.645-17.428 1.942-25.862l-7.648-2.346Zm-2.204 29.4.099.636 7.898-1.269c-.03-.186-.059-.373-.087-.559l-7.91 1.192Zm.099.636c.763 4.753 6.354 5.861 9.289 3.022l-5.562-5.75a2.439 2.439 0 0 1 2.388-.58 2.57 2.57 0 0 1 1.783 2.039l-7.898 1.269Zm9.289 3.022a51.551 51.551 0 0 1 4.86-4.145l-4.809-6.393a59.429 59.429 0 0 0-5.613 4.788l5.562 5.75Zm-1.357-6.13c5.36 16.875 16.963 29.41 29.403 37.69C96.537 179.702 110.14 184 120 184v-8c-7.921 0-20.006-3.607-31.394-11.187-11.312-7.53-21.527-18.709-26.21-33.452l-7.625 2.422ZM120 184c9.863 0 23.469-4.3 35.836-12.533 12.442-8.285 24.045-20.826 29.401-37.71l-7.625-2.419c-4.679 14.751-14.895 25.936-26.21 33.469C140.012 172.391 127.923 176 120 176v8Zm59.015-48.259a51.59 51.59 0 0 1 4.854 4.154l5.573-5.739a59.298 59.298 0 0 0-5.609-4.801l-4.818 6.386Zm4.854 4.155c2.934 2.848 8.538 1.743 9.298-3.02l-7.9-1.262a2.572 2.572 0 0 1 1.785-2.042 2.442 2.442 0 0 1 2.39.584l-5.573 5.74Zm9.298-3.02.053-.336-7.906-1.221a30.12 30.12 0 0 1-.047.295l7.9 1.262Zm.053-.336.044-.288-7.912-1.186-.038.253 7.906 1.221Zm.044-.288c1.475-9.833.727-19.824-2.194-29.392l-7.651 2.336c2.576 8.437 3.23 17.224 1.933 25.87l7.912 1.186Zm-2.194-29.392a69.195 69.195 0 0 0-3.709-9.541l-7.223 3.438a61.282 61.282 0 0 1 3.281 8.439l7.651-2.336Zm-3.709-9.541c-2.195-4.61-8.191-3.695-9.982.095l7.233 3.418a2.418 2.418 0 0 1-2.088 1.378 2.567 2.567 0 0 1-2.386-1.453l7.223-3.438Zm-9.982.095c-3.628 7.678-9.576 14.39-17.162 19.425l4.425 6.665c8.698-5.773 15.668-13.569 19.97-22.672l-7.233-3.418Zm-17.162 19.425c-3.927 2.607-3.074 8.732 1.467 10.125l2.346-7.648a2.376 2.376 0 0 1 1.664 1.903 2.37 2.37 0 0 1-1.052 2.285l-4.425-6.665Zm1.467 10.125a58.273 58.273 0 0 1 6.112 2.255l3.188-7.337a65.994 65.994 0 0 0-6.954-2.566l-2.346 7.648Zm4.253-3.433c-2.58 4.411-5.843 8.687-9.227 11.803-3.513 3.236-6.544 4.666-8.71 4.666v8c5.229 0 10.162-3.127 14.13-6.782 4.098-3.774 7.832-8.723 10.712-13.647l-6.905-4.04ZM148 140c-1.123 0-2.238-.124-3.326-.363l-1.716 7.814c1.639.36 3.328.549 5.042.549v-8Zm-3.326-.363c-4.331-.951-7.12-4.083-8.95-9.13-1.865-5.141-2.457-11.616-2.621-17.844l-7.998.211c.169 6.385.771 13.944 3.098 20.361 2.362 6.511 6.763 12.46 14.755 14.216l1.716-7.814Zm-11.571-26.974-1.104-41.769-7.998.212 1.104 41.768 7.998-.211Zm-4.796-37.675 23.23-1.787-.614-7.976-23.23 1.787.614 7.976Zm23.23-1.787a7 7 0 0 0 6.463-6.98h-8a1 1 0 0 1 .923-.996l.614 7.976Zm6.463-6.98v-6.439h-8v6.44h8Zm0-6.439a7 7 0 0 0-6.473-6.98l-.602 7.977a1 1 0 0 1-.925-.997h8Zm-6.473-6.98-23.726-1.79-.602 7.977 23.726 1.79.602-7.977ZM127.5 51h-.052v8h.052v-8Zm3.946 3.862-.432-12.511-7.995.276.432 12.51 7.995-.275ZM120 41c7.732 0 14-6.268 14-14h-8a6 6 0 0 1-6 6v8Zm-14-14c0 7.732 6.268 14 14 14v-8a6 6 0 0 1-6-6h-8Zm14-14c-7.732 0-14 6.268-14 14h8a6 6 0 0 1 6-6v-8Zm14 14c0-7.732-6.268-14-14-14v8a6 6 0 0 1 6 6h8Z" fill="#2B3C5A" mask="url(#a)"/> <path d="M86 67.148a2 2 0 0 0 1.847 1.994L112 71l6.634-6.634a.8.8 0 0 0-.565-1.366H86v4.148Z" fill="#8A380F"/> <path d="M182.124 98.814c.39-.585 1.264-.532 1.567.101a65.259 65.259 0 0 1 3.553 9.113c2.749 9.002 3.45 18.391 2.064 27.631-.029.195-.059.391-.091.586-.192 1.205-1.686 1.631-2.562.781a56.686 56.686 0 0 0-11.091-8.361 1.553 1.553 0 0 1-.642-1.971c3.368-7.583 5.849-16.672 7.053-27.47a.942.942 0 0 1 .149-.41Z" clip-rule="evenodd" fill="#8A380F" fill-rule="evenodd"/> <path d="m127 42 .5 13-5.818 5.43c-.639.596-1.682.143-1.682-.731V42h7Zm57 78c-4 40-44 60-64 60V64.5a1.5 1.5 0 0 1 1.5-1.5H154v3.285a3 3 0 0 1-2.701 2.985L128 71l1.104 41.769c.333 12.612 2.369 28.102 14.698 30.785 1.345.293 2.729.446 4.131.446-1.385.066-2.761.554-3.652 1.616-4.867 5.798-10.395 11.645-18.574 14.285 21.5 1 51.11-13.627 56.293-60.901l2 21Z" fill="#8A380F"/> <path d="M121.998 39.898C120.899 40.01 120 40.895 120 42s.898 2.012 1.995 1.883a17.007 17.007 0 0 0 10.026-4.862A17.003 17.003 0 0 0 137 27.08a.08.08 0 0 0-.081-.081.08.08 0 0 0-.079.069c-1.053 6.73-7.166 12.036-14.842 12.829Z" clip-rule="evenodd" fill="#8A380F" fill-rule="evenodd"/> <path d="M222 223H10v-40s19.676-10.802 29-11.5c11.844-.886 14.277 7.93 26 9.836 12.326 2.004 16.745-10.234 29-7.836 12.493 2.444 22.672 14.359 33 14 21.843-.759 23.054-11.373 41-7.5 7.627 1.646 9.5 5.5 27.5 1.336S222 183 222 183v40Z" fill="#2B3C5A"/> </g> <defs> <clipPath id="b"> <rect x="20" y="20" width="200" height="200" rx="100" fill="#fff"/> </clipPath> </defs> </svg>
