<svg version="1.1" viewBox="0 0 32 32" xmlns="http://www.w3.org/2000/svg"><title>file_type_pandacss</title><g transform="matrix(1.0026 0 0 1.0026 -.037932 -.11107)" stroke-width=".81831"><path d="m2.0853 5.3464c0.0081828-1.7463 1.4574-3.18 3.2217-3.1882h21.38c1.7667 8.183e-4 3.2209 1.4394 3.2209 3.1882v21.446c0 1.7487-1.4541 3.1873-3.2209 3.1882h-21.38c-1.7643-0.0082-3.2135-1.4419-3.2217-3.1882z" fill="#f6e458"/><path d="m19.536 8.5141c-1.4918-0.4288-3.0138-0.4869-4.5646-0.34778-0.86741 0.090014-1.7021 0.26186-2.5073 0.56464-1.7389 0.65301-3.0458 1.7847-3.824 3.4893-0.55891 1.2209-0.76103 2.5188-0.78149 3.8502-0.022094 1.4075 0.15384 2.7945 0.43371 4.1701 0.2545 1.2471 0.59246 2.4697 1.0761 3.6497 0.045828 0.11211 0.1031 0.15057 0.22504 0.14975 1.5278-0.0033 3.0556-0.0033 4.5826-0.0033h1.3576c0.03437 0 0.06955-0.0017 0.10883-4e-3l0.06546-0.0033-0.02455-0.06055c-0.01392-0.03355-0.02782-0.0671-0.04337-0.10065-0.11047-0.23646-0.2234-0.47131-0.33551-0.70698a38.025 38.025 0 0 1-0.71029-1.5418c-0.67102-1.5777-1.1849-3.2029-1.342-4.923-0.06874-0.7594-0.05891-1.5139 0.15139-2.2536 0.24058-0.84532 0.75694-1.4419 1.6137-1.6915a3.9647 3.9647 0 0 1 2.3649 0.02455c0.69884 0.22667 1.1538 0.70375 1.3478 1.4173a3.5597 3.5597 0 0 1 0.036 1.6554c-0.08674 0.42552-0.26186 0.8134-0.57528 1.1244-0.563 0.55645-1.2659 0.68493-2.0204 0.64238a7.4769 7.4769 0 0 1-0.40588-0.03764l-0.1964-0.02046 4e-3 0.05892c8.17e-4 0.03273 4e-3 0.06628 0.01067 0.09819 0.03273 0.12929 0.06301 0.25859 0.09329 0.3887 0.07365 0.31178 0.1473 0.62437 0.24304 0.93042 0.18576 0.60064 0.40261 1.1866 0.6481 1.7594 1.7512-0.13666 3.3641-0.572 5.076-1.5998l0.07201-0.04501c0.73569-0.45826 1.3306-1.0515 1.7414-1.8183 0.66447-1.2422 0.79376-2.5695 0.59655-3.9402-0.20454-1.4149-0.83873-2.6022-1.9312-3.5335-0.75776-0.64647-1.6342-1.0687-2.5859-1.342z"/></g></svg>
