<svg xmlns="http://www.w3.org/2000/svg" width="1784" height="1601"><path fill="#84CC16" fill-rule="evenodd" d="M852 .88c-4.12.42-14.02 1.29-22 1.93-14.7 1.17-40.54 4.19-51.5 6.03-43.43 7.25-76.94 15.14-113.5 26.71-7.98 2.52-15.4 4.94-16.5 5.36-1.1.42-8.98 3.33-17.5 6.45-57.24 20.99-115.52 50.96-164 84.32-11.44 7.88-30.31 21.38-31 22.19-.27.32-2.3 1.9-4.5 3.52-4.31 3.15-23.68 18.51-24.5 19.42-.27.3-3.43 3.02-7 6.03s-7.18 6.17-8 7c-.82.83-3.75 3.49-6.5 5.92-2.75 2.42-11.07 10.36-18.5 17.62-32.4 31.71-51.69 53.92-77.22 88.88-5.98 8.2-28.14 41.45-32.9 49.37-6.46 10.74-8.95 15.02-13.26 22.76-2.13 3.83-5.31 9.21-7.06 11.96-4.46 7.01-22.26 43.43-28.84 59-22.36 52.9-37.72 105.05-45.23 153.5-.89 5.78-1.81 11.44-2.03 12.59l-.42 2.08-51.18.67c-28.16.36-64.17.66-80.02.66H0v.9c0 1.72 19.73 26.52 23.94 30.1.32.28 3.96 4.33 8.07 9 4.12 4.68 7.73 8.73 8.04 9 .52.48 31.35 36.93 35.45 41.93a547.9 547.9 0 0 0 5.06 6c3.51 4.09 21.74 25.95 28.44 34.1 6.01 7.32 6.41 7.79 17.16 20.54 5.14 6.09 10.91 13.03 12.84 15.42 1.92 2.39 3.95 4.84 4.5 5.45.55.61 3.02 3.57 5.5 6.58 2.47 3.02 5.25 6.38 6.17 7.48.92 1.1 8.13 9.67 16 19.05 7.88 9.38 15.83 18.92 17.67 21.2 1.84 2.29 4.24 5.19 5.35 6.45 1.1 1.27 3.64 4.29 5.65 6.72 4.81 5.82 15.49 18.44 16.15 19.08.28.28 2.22 2.63 4.31 5.23 2.08 2.59 4.35 5.29 5.03 6 .68.7 5.03 5.77 9.67 11.27 13.75 16.29 31.38 36.96 31.99 37.5.31.28 4.16 4.77 8.54 9.99 4.38 5.21 11.79 13.79 16.47 19.06a3603.35 3603.35 0 0 1 14.5 16.43c3.3 3.78 6.45 7.35 7 7.94.56.6 5.04 5.58 9.96 11.08 19.04 21.27 40.1 42.82 46.86 47.95l3.82 2.89 2.18-2.52c8.18-9.5 13.66-15.81 16.75-19.29a1077.6 1077.6 0 0 0 6.61-7.53 1425.37 1425.37 0 0 1 7.93-9.02c2.69-3.04 7.01-7.99 9.6-11s5.68-6.6 6.88-7.98c1.19-1.37 6.5-7.67 11.79-14 5.29-6.33 10.18-12.09 10.87-12.82.69-.73 4.74-5.67 9-11 4.26-5.32 8.5-10.57 9.41-11.67.91-1.11 3.92-4.87 6.7-8.36 2.77-3.5 7.48-9.12 10.46-12.5 2.98-3.38 6.71-7.72 8.29-9.65 1.58-1.92 3.42-4.07 4.09-4.77.66-.71 2.92-3.41 5-6 2.09-2.6 4.05-4.95 4.35-5.23.31-.27 3.03-3.65 6.06-7.5 11.26-14.32 25.41-32.04 26.46-33.14.59-.63 3.97-4.63 7.5-8.89 3.54-4.25 8.01-9.61 9.93-11.89l8-9.51c2.48-2.94 9.16-10.79 14.86-17.46 5.7-6.66 11.1-13.01 12.01-14.11 3.38-4.09 18.69-22.2 23.67-28 2.83-3.3 6.23-7.3 7.56-8.88 1.32-1.59 2.86-3.39 3.43-4 .57-.62 5.74-6.74 11.5-13.61s11.01-13.07 11.67-13.77c.67-.71 2.92-3.41 5-6.01 2.09-2.6 4.37-5.33 5.06-6.06.69-.73 5.64-6.58 10.99-13 5.35-6.42 10.18-12.16 10.74-12.75.56-.6 2.59-3.04 4.51-5.42s3.95-4.82 4.5-5.41c.87-.94 3.51-4.13 11.65-14.07a674.19 674.19 0 0 1 5.5-6.55c6.86-8.07 30.89-38.39 32.67-41.22.95-1.51 1.38-2.76.95-2.78-.42-.02-41.38-.01-91.02.03l-90.25.06v-1.49c0-1.52 2.23-8.01 6.62-19.3 11.52-29.59 36.04-67.97 62.14-97.27 29.99-33.67 62.08-58.36 101.74-78.29 25.15-12.65 57.95-25.14 72.81-27.74 2.85-.5 11.54-2.24 19.3-3.86 25.6-5.35 51.29-8.11 75.39-8.09 21.54.01 55.14 3.75 76 8.44 3.58.81 10.55 2.19 15.5 3.08 18.75 3.36 53.77 16.48 79.5 29.77 36.95 19.09 66.54 41.91 98 75.62 6.26 6.7 26.61 31.98 32.27 40.07 17.61 25.2 30.38 48.59 34.38 62.96l1.73 6.21 2.92-3.33a599.88 599.88 0 0 0 7.06-8.28 674.61 674.61 0 0 1 7.69-9c1.96-2.23 7.13-8.33 11.49-13.56 4.36-5.22 8.47-10.07 9.15-10.77.67-.71 2.92-3.41 5.01-6 3.36-4.19 10.25-12.34 26.7-31.6 2.69-3.16 5.83-6.95 6.96-8.44 1.14-1.48 2.34-2.91 2.68-3.19.33-.27 6.57-7.7 13.86-16.5s14.61-17.54 16.29-19.42c4.55-5.09 26.5-31.53 33.07-39.83a4663.23 4663.23 0 0 0 11.42-14.5c6.89-8.79 22.33-24.75 23.94-24.75 2.17 0 27.41 27.71 57.4 63 6.31 7.42 12.49 14.63 13.72 16 1.24 1.38 6.19 7.26 11 13.08 9.23 11.14 18.42 22.08 19.26 22.92 1.23 1.23 11.8 13.77 13.66 16.21 1.13 1.49 4.62 5.61 7.75 9.15s7.98 9.29 10.78 12.79a569.42 569.42 0 0 0 10.25 12.35c2.83 3.3 10.74 12.52 17.56 20.5 46.06 53.82 62.73 71.9 65.01 70.49 1.39-.86-.84-24.6-4.1-43.49-9.74-56.61-36.89-137.33-64.92-193-16.64-33.05-49.29-84.96-73.66-117.11-12.07-15.92-10.91-14.49-25.84-31.89-18.32-21.36-51.75-55.86-71.59-73.88-6.42-5.83-29.85-25.4-34.88-29.12-5.31-3.93-9.49-7.43-9.85-8.25-.19-.41-.75-.75-1.26-.75-.52 0-5.09-3.07-10.17-6.82-18.85-13.91-43.8-29.84-72.24-46.12-13.3-7.62-52.75-26.92-70.5-34.5-8.53-3.64-16.4-7.02-17.5-7.51-15.01-6.64-57.5-21-83-28.05a4745 4745 0 0 1-14.5-4.02c-32.93-9.27-88.19-18.69-129-21.98-7.42-.6-18.23-1.52-24-2.05-12.16-1.11-66.95-1.05-78 .08m0 0"/><path fill="#365314" fill-rule="evenodd" d="m931.62,1590.65c4.12,-0.42 14.02,-1.29 22,-1.93c14.7,-1.17 40.54,-4.19 51.5,-6.03c43.43,-7.25 76.94,-15.14 113.5,-26.71c7.98,-2.52 15.4,-4.94 16.5,-5.36c1.1,-0.42 8.98,-3.33 17.5,-6.45c57.24,-20.99 115.52,-50.96 164,-84.32c11.44,-7.88 30.31,-21.38 31,-22.19c0.27,-0.32 2.3,-1.9 4.5,-3.52c4.31,-3.15 23.68,-18.51 24.5,-19.42c0.27,-0.3 3.43,-3.02 7,-6.03s7.18,-6.17 8,-7c0.82,-0.83 3.75,-3.49 6.5,-5.92c2.75,-2.42 11.07,-10.36 18.5,-17.62c32.4,-31.71 51.69,-53.92 77.22,-88.88c5.98,-8.2 28.14,-41.45 32.9,-49.37c6.46,-10.74 8.95,-15.02 13.26,-22.76c2.13,-3.83 5.31,-9.21 7.06,-11.96c4.46,-7.01 22.26,-43.43 28.84,-59c22.36,-52.9 37.72,-105.05 45.23,-153.5c0.89,-5.78 1.81,-11.44 2.03,-12.59l0.42,-2.08l51.18,-0.67c28.16,-0.36 64.17,-0.66 80.02,-0.66l28.84,0l0,-0.9c0,-1.72 -19.73,-26.52 -23.94,-30.1c-0.32,-0.28 -3.96,-4.33 -8.07,-9c-4.12,-4.68 -7.73,-8.73 -8.04,-9c-0.52,-0.48 -31.35,-36.93 -35.45,-41.93c-1.1,-1.33 -3.38,-4.04 -5.06,-6c-3.51,-4.09 -21.74,-25.95 -28.44,-34.1c-6.01,-7.32 -6.41,-7.79 -17.16,-20.54c-5.14,-6.09 -10.91,-13.03 -12.84,-15.42c-1.92,-2.39 -3.95,-4.84 -4.5,-5.45c-0.55,-0.61 -3.02,-3.57 -5.5,-6.58c-2.47,-3.02 -5.25,-6.38 -6.17,-7.48c-0.92,-1.1 -8.13,-9.67 -16,-19.05c-7.88,-9.38 -15.83,-18.92 -17.67,-21.2c-1.84,-2.29 -4.24,-5.19 -5.35,-6.45c-1.1,-1.27 -3.64,-4.29 -5.65,-6.72c-4.81,-5.82 -15.49,-18.44 -16.15,-19.08c-0.28,-0.28 -2.22,-2.63 -4.31,-5.23c-2.08,-2.59 -4.35,-5.29 -5.03,-6c-0.68,-0.7 -5.03,-5.77 -9.67,-11.27c-13.75,-16.29 -31.38,-36.96 -31.99,-37.5c-0.31,-0.28 -4.16,-4.77 -8.54,-9.99c-4.38,-5.21 -11.79,-13.79 -16.47,-19.06a-3603.35,-3603.35 0 0 1 -14.5,-16.43c-3.3,-3.78 -6.45,-7.35 -7,-7.94c-0.56,-0.6 -5.04,-5.58 -9.96,-11.08c-19.04,-21.27 -40.1,-42.82 -46.86,-47.95l-3.82,-2.89l-2.18,2.52c-8.18,9.5 -13.66,15.81 -16.75,19.29a-1077.6,-1077.6 0 0 0 -6.61,7.53a-1425.37,-1425.37 0 0 1 -7.93,9.02c-2.69,3.04 -7.01,7.99 -9.6,11c-2.59,3.01 -5.68,6.6 -6.88,7.98c-1.19,1.37 -6.5,7.67 -11.79,14c-5.29,6.33 -10.18,12.09 -10.87,12.82c-0.69,0.73 -4.74,5.67 -9,11c-4.26,5.32 -8.5,10.57 -9.41,11.67c-0.91,1.11 -3.92,4.87 -6.7,8.36c-2.77,3.5 -7.48,9.12 -10.46,12.5c-2.98,3.38 -6.71,7.72 -8.29,9.65c-1.58,1.92 -3.42,4.07 -4.09,4.77c-0.66,0.71 -2.92,3.41 -5,6c-2.09,2.6 -4.05,4.95 -4.35,5.23c-0.31,0.27 -3.03,3.65 -6.06,7.5c-11.26,14.32 -25.41,32.04 -26.46,33.14c-0.59,0.63 -3.97,4.63 -7.5,8.89c-3.54,4.25 -8.01,9.61 -9.93,11.89l-8,9.51c-2.48,2.94 -9.16,10.79 -14.86,17.46c-5.7,6.66 -11.1,13.01 -12.01,14.11c-3.38,4.09 -18.69,22.2 -23.67,28c-2.83,3.3 -6.23,7.3 -7.56,8.88c-1.32,1.59 -2.86,3.39 -3.43,4c-0.57,0.62 -5.74,6.74 -11.5,13.61s-11.01,13.07 -11.67,13.77c-0.67,0.71 -2.92,3.41 -5,6.01c-2.09,2.6 -4.37,5.33 -5.06,6.06c-0.69,0.73 -5.64,6.58 -10.99,13c-5.35,6.42 -10.18,12.16 -10.74,12.75c-0.56,0.6 -2.59,3.04 -4.51,5.42c-1.92,2.38 -3.95,4.82 -4.5,5.41c-0.87,0.94 -3.51,4.13 -11.65,14.07a-674.19,-674.19 0 0 1 -5.5,6.55c-6.86,8.07 -30.89,38.39 -32.67,41.22c-0.95,1.51 -1.38,2.76 -0.95,2.78c0.42,0.02 41.38,0.01 91.02,-0.03l90.25,-0.06l0,1.49c0,1.52 -2.23,8.01 -6.62,19.3c-11.52,29.59 -36.04,67.97 -62.14,97.27c-29.99,33.67 -62.08,58.36 -101.74,78.29c-25.15,12.65 -57.95,25.14 -72.81,27.74c-2.85,0.5 -11.54,2.24 -19.3,3.86c-25.6,5.35 -51.29,8.11 -75.39,8.09c-21.54,-0.01 -55.14,-3.75 -76,-8.44c-3.58,-0.81 -10.55,-2.19 -15.5,-3.08c-18.75,-3.36 -53.77,-16.48 -79.5,-29.77c-36.95,-19.09 -66.54,-41.91 -98,-75.62c-6.26,-6.7 -26.61,-31.98 -32.27,-40.07c-17.61,-25.2 -30.38,-48.59 -34.38,-62.96l-1.73,-6.21l-2.92,3.33a-599.88,-599.88 0 0 0 -7.06,8.28a-674.61,-674.61 0 0 1 -7.69,9c-1.96,2.23 -7.13,8.33 -11.49,13.56c-4.36,5.22 -8.47,10.07 -9.15,10.77c-0.67,0.71 -2.92,3.41 -5.01,6c-3.36,4.19 -10.25,12.34 -26.7,31.6c-2.69,3.16 -5.83,6.95 -6.96,8.44c-1.14,1.48 -2.34,2.91 -2.68,3.19c-0.33,0.27 -6.57,7.7 -13.86,16.5s-14.61,17.54 -16.29,19.42c-4.55,5.09 -26.5,31.53 -33.07,39.83a-4663.23,-4663.23 0 0 0 -11.42,14.5c-6.89,8.79 -22.33,24.75 -23.94,24.75c-2.17,0 -27.41,-27.71 -57.4,-63c-6.31,-7.42 -12.49,-14.63 -13.72,-16c-1.24,-1.38 -6.19,-7.26 -11,-13.08c-9.23,-11.14 -18.42,-22.08 -19.26,-22.92c-1.23,-1.23 -11.8,-13.77 -13.66,-16.21c-1.13,-1.49 -4.62,-5.61 -7.75,-9.15c-3.13,-3.54 -7.98,-9.29 -10.78,-12.79a-569.42,-569.42 0 0 0 -10.25,-12.35c-2.83,-3.3 -10.74,-12.52 -17.56,-20.5c-46.06,-53.82 -62.73,-71.9 -65.01,-70.49c-1.39,0.86 0.84,24.6 4.1,43.49c9.74,56.61 36.89,137.33 64.92,193c16.64,33.05 49.29,84.96 73.66,117.11c12.07,15.92 10.91,14.49 25.84,31.89c18.32,21.36 51.75,55.86 71.59,73.88c6.42,5.83 29.85,25.4 34.88,29.12c5.31,3.93 9.49,7.43 9.85,8.25c0.19,0.41 0.75,0.75 1.26,0.75c0.52,0 5.09,3.07 10.17,6.82c18.85,13.91 43.8,29.84 72.24,46.12c13.3,7.62 52.75,26.92 70.5,34.5c8.53,3.64 16.4,7.02 17.5,7.51c15.01,6.64 57.5,21 83,28.05a-4745,-4745 0 0 1 14.5,4.02c32.93,9.27 88.19,18.69 129,21.98c7.42,0.6 18.23,1.52 24,2.05c12.16,1.11 66.95,1.05 78,-0.08m0,0"/></svg>
