<svg viewBox="0 0 32 32" xmlns="http://www.w3.org/2000/svg"><path d="m21.346 24.019h-14.04a1.2 1.2 0 0 1 -1.249-1.15v-17.954a1.2 1.2 0 0 1 1.249-1.15h14.04a1.2 1.2 0 0 1 1.254 1.15v17.954a1.2 1.2 0 0 1 -1.254 1.15z" fill="#dcb67a"/><path d="m21.346 24.048h-14.04a1.232 1.232 0 0 1 -1.277-1.179v-17.954a1.232 1.232 0 0 1 1.277-1.179h14.04a1.232 1.232 0 0 1 1.277 1.179v17.954a1.232 1.232 0 0 1 -1.277 1.179zm-14.04-20.255a1.175 1.175 0 0 0 -1.22 1.122v17.954a1.176 1.176 0 0 0 1.22 1.122h14.04a1.176 1.176 0 0 0 1.22-1.122v-17.954a1.175 1.175 0 0 0 -1.22-1.122z" fill="#231f20"/><path d="m23.566 22.2h-14.026a1.2 1.2 0 0 1 -1.248-1.145v-17.882a1.2 1.2 0 0 1 1.248-1.145h14.026a1.2 1.2 0 0 1 1.249 1.145v17.88a1.2 1.2 0 0 1 -1.249 1.147zm-2.12-5.443a1.167 1.167 0 1 0 1.167 1.167 1.168 1.168 0 0 0 -1.167-1.169z" fill="#cccccb"/><path d="m23.566 22.226h-14.026a1.229 1.229 0 0 1 -1.276-1.173v-17.88a1.229 1.229 0 0 1 1.276-1.173h14.026a1.23 1.23 0 0 1 1.277 1.173v17.88a1.117 1.117 0 0 1 -.375.83 1.323 1.323 0 0 1 -.902.343zm-14.026-20.169a1.174 1.174 0 0 0 -1.22 1.116v17.88a1.173 1.173 0 0 0 1.22 1.116h14.026a1.273 1.273 0 0 0 .864-.327 1.063 1.063 0 0 0 .356-.789v-17.88a1.173 1.173 0 0 0 -1.22-1.116zm11.906 17.06a1.2 1.2 0 1 1 1.195-1.2 1.2 1.2 0 0 1 -1.195 1.2zm0-2.333a1.138 1.138 0 1 0 1.138 1.138 1.139 1.139 0 0 0 -1.138-1.138z" fill="#231f20"/><path d="m22.189 6.859h-11.383v-1.537h11.383zm0 1.594h-11.383v1.536h11.383zm0 3.415h-11.383v1.532h11.383zm-5.122 3.415h-6.261v1.536h6.261z" fill="#fff"/><path d="m17.1 16.848h-6.322v-1.594h6.322zm-6.261-.057h6.2v-1.48h-6.2zm11.383-3.358h-11.444v-1.594h11.44zm-11.383-.057h11.322v-1.476h-11.326zm11.383-3.358h-11.444v-1.594h11.44zm-11.387-.057h11.326v-1.48h-11.326zm11.383-3.073h-11.44v-1.594h11.44zm-11.383-.057h11.326v-1.48h-11.326z" fill="#231f20"/><path d="m19.242 24.019a1.336 1.336 0 0 0 -1.122 1.474v3.041a1.329 1.329 0 0 0 1.125 1.466h5.6a1.327 1.327 0 0 0 1.125-1.466l-.057-3.041c0-.808-.444-1.472-1.065-1.474v-3.519a3.034 3.034 0 0 0 -2.724-3.308.618.618 0 0 0 -.339.079.713.713 0 0 0 -.365.657.665.665 0 0 0 .4.622.578.578 0 0 0 .245.06c.819.015 1.532.974 1.518 2.794v2.614m-1.137 2.669v1.264a.256.256 0 0 1 -.511 0v-1.263a.734.734 0 0 1 -.51-.689.767.767 0 0 1 1.532 0 .735.735 0 0 1 -.51.689z" fill="#4778bc" fill-rule="evenodd"/></svg>