<svg xmlns="http://www.w3.org/2000/svg" xmlns:xlink="http://www.w3.org/1999/xlink" viewBox="0 0 32 32"><defs><linearGradient id="a" x1="9.728" y1="27.941" x2="16.258" y2="17.651" gradientTransform="matrix(1, 0, 0, -1, 0, 34)" gradientUnits="userSpaceOnUse"><stop offset="0" stop-color="#b518e0"/><stop offset="1" stop-color="#4807f1"/></linearGradient><linearGradient id="b" x1="16.123" y1="16.883" x2="10.648" y2="10.326" gradientTransform="matrix(1, 0, 0, -1, 0, 34)" gradientUnits="userSpaceOnUse"><stop offset="0" stop-color="#ad1a92"/><stop offset="1" stop-color="#ef27a3"/></linearGradient><linearGradient id="c" x1="18.783" y1="17.999" x2="29.999" y2="17.999" gradientTransform="matrix(1, 0, 0, -1, 0, 34)" gradientUnits="userSpaceOnUse"><stop offset="0" stop-color="#3eb1ea"/><stop offset="1" stop-color="#4c6cfb"/></linearGradient></defs><title>file_type_pm2</title><path d="M2,16.14H15.986L23.194,5.02A3.775,3.775,0,0,0,21.28,4.5L20.112,6.332a.652.652,0,0,1-.9.2h0a.628.628,0,0,1-.2-.86L19.734,4.5H18.055L14.829,9.867a3.992,3.992,0,0,1-3.382,1.79H10.6a.61.61,0,0,1-.432-.18.616.616,0,0,1-.179-.435v-.011a.593.593,0,0,1,.172-.418.587.587,0,0,1,.416-.173h.834a3.046,3.046,0,0,0,1.96-.788,2.616,2.616,0,0,0,.448-.571L16.539,4.5H14.905L13.28,7.217A4.291,4.291,0,0,1,9.342,9.141h-3.4l-.9,1.351H8.274a.61.61,0,0,1,.433.18.616.616,0,0,1,.179.435.566.566,0,0,1-.165.4.561.561,0,0,1-.4.165H4.288L3.354,13.13l9.726-.124a3.235,3.235,0,0,0,2.08-1l2.59-4.237a.628.628,0,0,1,.856-.215h0a.635.635,0,0,1,.221.871l-2.208,3.7a4.513,4.513,0,0,1-1.448,1.506,3.367,3.367,0,0,1-1.791.563c-1.736,0-10.8.131-10.8.131A3.049,3.049,0,0,0,2,16.14Z" style="fill:url(#a)"/><path d="M2,16.14H15.985L22.826,26.98a3.775,3.775,0,0,1-1.913.52l-1.168-1.831a.651.651,0,0,0-.9-.2h0a.628.628,0,0,0-.2.859l.722,1.175-2.074-.01L14.169,22.4a3.992,3.992,0,0,0-3.381-1.789h-.85a.62.62,0,0,0-.434.187.627.627,0,0,0-.178.439.593.593,0,0,0,.172.418.587.587,0,0,0,.416.173h.834a3.05,3.05,0,0,1,1.961.788,2.622,2.622,0,0,1,.448.572l2.614,4.3H14.138l-1.519-2.438a4.29,4.29,0,0,0-3.937-1.923l-2.745.011-.9-1.351,2.569-.011A.6.6,0,0,0,8.04,21.6a.607.607,0,0,0,.18-.43v-.011a.564.564,0,0,0-.347-.522.559.559,0,0,0-.215-.043l-3.379.011-.934-1.46,9.071.115a3.236,3.236,0,0,1,2.08,1L17.1,24.5a.627.627,0,0,0,.855.214h0a.635.635,0,0,0,.219-.871l-2.208-3.7a4.5,4.5,0,0,0-1.448-1.5,3.359,3.359,0,0,0-1.79-.563c-1.736,0-10.145-.123-10.145-.123A3.052,3.052,0,0,1,2,16.14Z" style="fill:url(#b)"/><path d="M22.824,26.981a3.722,3.722,0,0,0,1.5-1.4l5.206-8.07a2.929,2.929,0,0,0,.031-3.124L24.427,6.06a3.23,3.23,0,0,0-1.234-1.04l-.83,1.28,1.049,1.635a.684.684,0,0,1-.2.939h0a.677.677,0,0,1-.949-.214l-.7-1.138L20.739,8.8l3.275,5.309a3.783,3.783,0,0,1-.523,4.168l-.091.113a.662.662,0,0,1-1.166-.308.669.669,0,0,1,.1-.484l.358-.533a2.37,2.37,0,0,0,.065-2.537L19.968,10l-.849,1.314,1.615,2.643a3.36,3.36,0,0,1,.434,1.1c.006.03.011.059.016.089a3.4,3.4,0,0,1-.486,2.379l-1.915,3.049.856,1.357,1.509-2.377a.646.646,0,0,1,.888-.2h0a.653.653,0,0,1,.2.9L20.4,23.139l.836,1.324,4.811-7.542a2.086,2.086,0,0,0,0-2.164l-2.474-4.051a.644.644,0,0,1,.223-.892h0a.638.638,0,0,1,.865.214l2.625,4.21a3.189,3.189,0,0,1,0,3.078l-5.293,8.343Z" style="fill:url(#c)"/></svg>