<svg viewBox="0 0 32 32" xmlns="http://www.w3.org/2000/svg" xmlns:xlink="http://www.w3.org/1999/xlink"><linearGradient id="a" gradientUnits="userSpaceOnUse" x1="5.501" x2="26.5" y1="16" y2="16"><stop offset=".08" stop-color="#aa2237"/><stop offset=".982" stop-color="#b4313d"/></linearGradient><linearGradient id="b" gradientUnits="userSpaceOnUse" x1="10.099" x2="16.169" y1="5.601" y2="5.601"><stop offset=".037" stop-color="#b83a41"/><stop offset=".896" stop-color="#bf4a50"/></linearGradient><linearGradient id="c" gradientUnits="userSpaceOnUse" x1="7.851" x2="7.851" y1="20.836" y2="14.698"><stop offset=".037" stop-color="#a92237"/><stop offset=".939" stop-color="#972235"/></linearGradient><linearGradient id="d" gradientUnits="userSpaceOnUse" x1="13.133" x2="13.133" y1="29.442" y2="20.836"><stop offset=".037" stop-color="#bc4245"/><stop offset=".939" stop-color="#a42136"/></linearGradient><linearGradient id="e" gradientUnits="userSpaceOnUse" x1="19.212" x2="19.212" y1="8.696" y2="2.575"><stop offset=".037" stop-color="#cc5057"/><stop offset=".896" stop-color="#b73840"/></linearGradient><linearGradient id="f" gradientUnits="userSpaceOnUse" x1="21.776" x2="24.376" y1="7.866" y2="6.365"><stop offset=".08" stop-color="#d4575f"/><stop offset=".945" stop-color="#b63540"/></linearGradient><linearGradient id="g" gradientUnits="userSpaceOnUse" x1="22.256" x2="26.484" y1="11.733" y2="11.733"><stop offset="0" stop-color="#c04b51"/><stop offset="1" stop-color="#b83a41"/></linearGradient><linearGradient id="h" gradientUnits="userSpaceOnUse" x1="22.239" x2="26.475" y1="17.79" y2="17.79"><stop offset="0" stop-color="#ba4044"/><stop offset="1" stop-color="#b4303c"/></linearGradient><linearGradient id="i" gradientUnits="userSpaceOnUse" x1="21.349" x2="24.603" y1="23.257" y2="24.442"><stop offset="0" stop-color="#972136"/><stop offset="1" stop-color="#9f2236"/></linearGradient><linearGradient id="j" gradientUnits="userSpaceOnUse" x1="18.562" x2="24.103" y1="21.3" y2="27.904"><stop offset=".037" stop-color="#b22c3a"/><stop offset=".939" stop-color="#c04d53"/></linearGradient><linearGradient id="k" gradientUnits="userSpaceOnUse" x1="16.199" x2="16.199" y1="29.443" y2="23.313"><stop offset=".037" stop-color="#b22c3a"/><stop offset=".939" stop-color="#9b2135"/></linearGradient><linearGradient id="l" gradientUnits="userSpaceOnUse" x1="22.221" x2="25.29" y1="6.635" y2="6.635"><stop offset=".037" stop-color="#fff"/><stop offset=".742" stop-color="#f4e6d9"/></linearGradient><linearGradient id="m" gradientUnits="userSpaceOnUse" x1="17.162" x2="22.113" y1="4.552" y2="7.411"><stop offset=".037" stop-color="#fff"/><stop offset=".896" stop-color="#f4e6d9"/></linearGradient><path d="m27.007 26.836a3.163 3.163 0 0 1 -3.163 3.164h-18.851v-24.836a3.164 3.164 0 0 1 3.163-3.164h18.851z" fill="#80152a"/><path d="m26.5 26.539a2.876 2.876 0 0 1 -2.945 2.945h-18.055v-24.023a2.876 2.876 0 0 1 2.946-2.944h18.054z" fill="url(#a)"/><path d="m10.099 2.541.068 6.12-4.548 1.523z" fill="#8a2034"/><path d="m10.099 2.541.068 6.12 6.002-2.502z" fill="url(#b)"/><path d="m7.614 14.698 2.553-6.037-4.548 1.523z" fill="#ae2338"/><path d="m7.614 14.698 2.519 6.138-4.565-1.471z" fill="url(#c)"/><path d="m10.108 29.442.025-8.606-4.565-1.471z" fill="#8a2034"/><path d="m10.108 29.442-4.54.001v-10.078z" fill="#8c2033"/><path d="m10.108 29.442.025-8.606 6.025 2.479z" fill="url(#d)"/><path d="m22.188 2.575.068 6.121-6.087-2.537z" fill="url(#e)"/><path d="m22.188 2.575.068 6.121 4.228 1.505z" fill="url(#f)"/><path d="m24.737 14.77-2.481-6.074 4.228 1.505z" fill="url(#g)"/><path d="m24.737 14.77-2.498 6.04 4.236-1.513z" fill="url(#h)"/><path d="m22.29 29.426-.051-8.616 4.236-1.513z" fill="url(#i)"/><path d="m22.29 29.426-.051-8.616-6.077 2.503z" fill="url(#j)"/><path d="m22.29 29.426-12.181.017 6.053-6.13z" fill="url(#k)"/><path d="m16.786 16.577 1.37.628-.139-.976-1.249-.672zm-10.386 3.27 1.784.2.389-1.658-1.708-.3zm6.345-11.48-1.17-.867-.812 1.1 1.281.8zm3.576-2.9-.748-.976-1.052.621.875.952zm3.855-.685-.241-.8-1.268-.1.368.875zm4.287 1-1.065-.761v.494l1.027.635zm-14.398 7.086-1.458-.634-.495 1.445 1.5.558zm7.26-.654-.26.894.939.863.235-.831zm5.992-4 .78.038.007-.362-.812-.165zm-3.242-3.014c-3.751-.186-10.466 3.369-11.43 17.631h9.2c-2.062-5.343-1.823-9.374-.405-12.106 2.062-3.973 5.132-4.236 8-2.561.1-.241.241-.545.241-.545a7.821 7.821 0 0 0 -5.606-2.419zm.275 2.96.342.818.634-.342-.235-.755zm-2.08 1.858.7.958.431-.628-.611-.948zm1.065 11.147-.435-1.05-1.592-.3.419 1.2z" fill="#f7dee1"/><path d="m10.969 8.329 1.1-.46-.494-.366z" fill="#fff"/><path d="m15.392 6.059.292-.189-1.03-.614z" fill="#fff"/><path d="m6.862 18.089-.413 1.56.978.315.753.086.389-1.658z" fill="#d7c4c9"/><path d="m9.165 18.478q-.165.935-.292 1.952l1.26.406z" fill="#d7c4c9"/><path d="m6.449 19.649-.052.198 1.03.117z" fill="#c2c3c6"/><path d="m10.133 20.836-1.26-.406c-.094.765-.171 1.564-.228 2.4h1.482z" fill="#c2c3c6"/><path d="m10.127 22.831h4.854l-4.848-1.995z" fill="#ddc3c8"/><path d="m23.68 5.223-.286-.2v.494l.689.426zm.77 1.368a7.094 7.094 0 0 0 -2.229-1.069l.018 1.669a6.321 6.321 0 0 1 3.05.89zm-1.133 1.623.78.038.007-.362-.812-.165z" fill="url(#l)"/><path d="m22.221 5.522a9.532 9.532 0 0 0 -2.146-.322 7.357 7.357 0 0 0 -3.854.985l3.819 1.588a4.373 4.373 0 0 1 2.2-.581zm-2.05-.745-.241-.8-.087-.008-.913.543.1.237zm.5 3.258.538.225-.119-.382z" fill="url(#m)"/><path d="m10.218 26.044v-.678a1.081 1.081 0 0 0 -1.018-1.013h-2.153v4.067h1.1v-1.184l.888 1.184h1.319l-1.032-1.37a1.1 1.1 0 0 0 .896-1.006zm-1.082.2h-1v-.82h1zm4.269-1.911h-1a1.074 1.074 0 0 0 -1.023 1.057v3.01h1.082v-.794h.972v.794h1.1v-3.016a1.1 1.1 0 0 0 -1.131-1.049zm.033 2.181h-.972v-1.09h.972zm10.062-.714h-1.058v-.444h1.858v-1.005h-1.864a1.08 1.08 0 0 0 -1.1 1.04v.431a1.1 1.1 0 0 0 1.091 1.065h.983v.494h-2v1.027h1.97a1.082 1.082 0 0 0 1.123-.982v-.539a1.056 1.056 0 0 0 -1.003-1.087zm-4.433-1.458h-1.09v4.071h2.723v-1.089h-1.63zm-3.36 4.071h1.093v-4.069h-1.091z" fill="#fff"/></svg>