<svg xmlns="http://www.w3.org/2000/svg" viewBox="0 0 32 32"><title>file_type_blade@2x</title><g id="blade"><path d="M24.85,16l-2.39-3.28c-.07-.09-.12-.19,0-.21l3-.54c.12,0,.23-.06.38.15s2.22,2.83,2.3,2.93-.06.16-.23.2Zm2.51,5.16c-.23.08-7.75,2.62-7.89,2.68s-.26.08-.45-.19-2.63-4.5-2.63-4.5l8-2.07c.2-.06.26-.1.39.09s2.63,3.6,2.7,3.72S27.59,21,27.36,21.12ZM9.62,19.6c-.24.06-.24,0-.27-.06S3.9,8.3,3.83,8.16s-.07-.25,0-.25L8.3,7.52c.15,0,.13,0,.19.12l6.1,10.53c.1.18,0,.24-.06.26Zm16.69-8c-.44-.52-.65-.43-.92-.39l-3.76.63c-.36.06-.59.21-.37.52L24,16.16l-8.17,2L9.3,7.25C9,6.87,9,6.73,8.4,6.76s-5.1.4-5.42.43-.67.17-.35.93,5.44,11.8,5.59,12.12a1.1,1.1,0,0,0,1.38.63c.89-.21,4-1,5.67-1.46.89,1.61,2.71,4.89,3,5.36.45.63.76.52,1.45.31.54-.16,8.42-3,8.78-3.14s.57-.25.33-.61-2.26-3-3.35-4.5l3.68-1c.33-.09.37-.25.2-.45S26.75,12.1,26.31,11.57Z" style="fill:#fb503b;stroke:#fb503b;stroke-width:0.25px"/></g></svg>