<svg xmlns="http://www.w3.org/2000/svg" viewBox="0 0 32 32"><title>file_type_qml</title><path d="m5.8867 5-3.8867 3.957v17.043h17.701v-3.9004c6.5e-5 -0.64952 0.31969-1.1708 0.79297-1.5391-0.4122-0.75059-0.58465-1.6094-0.49414-2.4609v-4.0996h-1v-2h1v-3h2v3h2v2h-2v3.9004c-0.0056 0.07866-0.0089 0.15747-0.0098 0.23633 0.48764-0.58093 1.24-1.1035 2.2461-1.1035 0.57335 0 1.0547 0.1959 1.4648 0.45312 0.41019-0.25722 0.89149-0.45312 1.4648-0.45312 1.3604 0 2.2561 0.95562 2.6621 1.7188 0.07904 0.14858 0.13243 0.30378 0.17188 0.46289v-14.215h-2.6992zm5.918 3.8906c0.20533-0.00728 0.41091-1.012e-4 0.61523 0.021484 1.828 0 3.086 0.51592 3.832 1.5449 0.83545 1.4455 1.2185 3.1081 1.0996 4.7734 0.03576 1.1633-0.11659 2.3247-0.45117 3.4395-0.25982 0.80934-0.77694 1.5116-1.4727 2l1.4727 2.4004-1.8281 0.85156-1.5723-2.5918c-0.35404 0.08529-0.71813 0.12144-1.082 0.10742-1.845 0-3.1226-0.50023-3.8496-1.4902-0.83399-1.4191-1.2117-3.0603-1.082-4.7012-0.11846-1.6646 0.26454-3.3266 1.0996-4.7715 0.79749-0.96341 1.9689-1.5399 3.2188-1.584zm0.94531 1.709c-0.11151-0.0032-0.22311 0.0014-0.33398 0.01367-0.91073-0.09983-1.7988 0.32756-2.2891 1.1016-0.47319 1.1071-0.67862 2.3103-0.59961 3.5117-0.088867 1.1798 0.11719 2.3631 0.59961 3.4434 0.51765 0.74534 1.4062 1.1418 2.3066 1.0293 0.89142 0.11522 1.7732-0.27373 2.2891-1.0098 0.46943-1.084 0.67043-2.2652 0.58594-3.4434 0.07986-1.2074-0.12624-2.4166-0.60156-3.5293-0.42609-0.67454-1.1595-1.0932-1.957-1.1172z" fill="#41cd52"/><path d="m21.951 22.099h7.5v7.5h-7.5z" fill="#c8ab37"/><path d="m24.236 18.283c-0.77205 0-1.2865 0.54511-1.5586 1.0566-0.27212 0.51153-0.39844 1.102-0.39844 1.7422 0 0.0059-2.1e-5 0.01172 0 0.01758h-0.32812c-0.55226 5.5e-5 -0.99994 0.44774-1 1v7.5c5.5e-5 0.55226 0.44774 0.99994 1 1h7.5c0.55226-5.5e-5 0.99994-0.44774 1-1v-7.5c-5.5e-5 -0.55226-0.44774-0.99994-1-1h-0.32812c2.1e-5 -0.0059 0-0.01171 0-0.01758 0-0.64019-0.12632-1.2307-0.39844-1.7422-0.27212-0.51153-0.78654-1.0566-1.5586-1.0566-0.69099 0-1.1756 0.43611-1.4648 0.89453-0.28924-0.45842-0.77386-0.89453-1.4648-0.89453zm0 1a0.95636 1.7978 0 0 1 0.95703 1.7988 0.95636 1.7978 0 0 1 0 0.01758h-1.9141a0.95636 1.7978 0 0 1 0-0.01758 0.95636 1.7978 0 0 1 0.95703-1.7988zm2.9297 0a0.95636 1.7978 0 0 1 0.95703 1.7988 0.95636 1.7978 0 0 1 0 0.01758h-1.9141a0.95636 1.7978 0 0 1 0-0.01758 0.95636 1.7978 0 0 1 0.95703-1.7988zm-5.2148 2.8164h3.25v3.25h-3.25zm4.25 0h3.25v3.25h-3.25zm-4.25 4.25h3.25v3.25h-3.25zm4.25 0h3.25v3.25h-3.25z" fill="#502d16"/></svg>