<svg xmlns="http://www.w3.org/2000/svg" viewBox="0 0 32 32"><title>file_type_svgo</title><defs><linearGradient id="a" x1="29.49" x2="169.71" y1="29.48" y2="169.7" gradientTransform="matrix(.14 0 0 .14 2 2)" gradientUnits="userSpaceOnUse"><stop offset="0" stop-color="#45afe4"/><stop offset="1" stop-color="#364f9e"/></linearGradient></defs><path fill="url(#a)" d="M13.67 2c-.22.83-.39 1.66-.53 2.49A12.02 12.02 0 0 0 9.83 5.8c-.67-.47-1.36-.93-2.08-1.35l-3.3 3.3c.4.68.83 1.33 1.27 1.96a12.05 12.05 0 0 0-1.54 3.49c-.73.12-1.45.28-2.18.47v4.66c.68.18 1.35.32 2.03.45a12.05 12.05 0 0 0 1.5 3.8c-.38.54-.74 1.1-1.08 1.67l3.3 3.3c.56-.33 1.1-.67 1.61-1.03a12.06 12.06 0 0 0 3.9 1.62c.11.62.25 1.24.4 1.86h4.67c.17-.63.3-1.27.42-1.9a12.01 12.01 0 0 0 3.8-1.64c.55.38 1.12.75 1.7 1.09l3.3-3.3c-.37-.63-.76-1.23-1.17-1.82a12.06 12.06 0 0 0 1.4-3.63c.74-.13 1.48-.28 2.22-.47v-4.66c-.79-.2-1.58-.37-2.37-.5a12.11 12.11 0 0 0-1.45-3.33c.48-.68.94-1.37 1.37-2.1l-3.3-3.29c-.75.44-1.46.92-2.16 1.41a11.97 11.97 0 0 0-3.22-1.32A28.6 28.6 0 0 0 18.34 2h-4.67zm2.24 5.48a8.73 8.73 0 0 1 3.02.54c.22.08.44.17.65.27a8.86 8.86 0 0 1 4.25 4.14l.23.52a8.82 8.82 0 0 1 .17 6.27l-.1.29a8.86 8.86 0 0 1-4.63 4.84.53.53 0 0 1-.05.03 8.82 8.82 0 0 1-6.94.06.04.04 0 0 0 0-.01 8.86 8.86 0 0 1-4.82-4.93l-.05-.12a8.8 8.8 0 0 1 .17-6.58l.17-.35a8.88 8.88 0 0 1 4.46-4.26l.59-.23a8.82 8.82 0 0 1 2.88-.48zm3.42 2.31a1.2 1.2 0 0 0-1.43 1.92l-1.13 1.95a2.42 2.42 0 0 0-3.13 1.1l-2.4-.95v-.02a1.12 1.12 0 1 0-.2.54l2.4.95a2.42 2.42 0 0 0 .82 2.47l-1.12 1.75a1.5 1.5 0 1 0 .47.3l1.12-1.74a2.42 2.42 0 0 0 2.82-.51l1.4 1.04a1.77 1.77 0 1 0 3.31.46 1.77 1.77 0 0 0-2.98-.9l-1.4-1.05a2.42 2.42 0 0 0-.63-3.16l1.13-1.95a1.2 1.2 0 0 0 .95-2.2z"/></svg>