<svg xmlns="http://www.w3.org/2000/svg" viewBox="0 0 32 32"><title>file_type_csharp</title><path d="M14.727,24.111A10.488,10.488,0,0,1,10.061,25a7.674,7.674,0,0,1-6.035-2.416A8.506,8.506,0,0,1,2,16.668a9,9,0,0,1,2.426-6.552A8.347,8.347,0,0,1,10.7,7.621a11.542,11.542,0,0,1,4.032.62v3.645a7.018,7.018,0,0,0-3.734-1.008,4.917,4.917,0,0,0-3.62,1.395,5.572,5.572,0,0,0-1.5,4.127A5.521,5.521,0,0,0,7.2,20.283a4.643,4.643,0,0,0,3.589,1.45,7.488,7.488,0,0,0,3.938-1.08ZM30,11.966V9.483H27.455V7H24.909V9.483H22.364V7H19.818V9.483H17.273v2.483h2.545v2.482H17.273v2.483h2.545v2.483h2.546V16.931h2.545v2.483h2.546V16.931H30V14.448H27.455V11.966Zm-5.091,2.482H22.364V11.966h2.545Z" style="fill:#388a34"/></svg>