<svg xmlns="http://www.w3.org/2000/svg" viewBox="0 0 32 32"><title>file_type_storybook</title><path d="M7.529,29.063,6.319,3.457H5.411l.908,25.606Z" style="fill:#b57ee5"/><path d="M8.033,29.063,6.823,3.457,26.589,2V30Z" style="fill:#f1618c"/><path d="M21.546,5.851l.2-3.591,2.42-.156V5.851L22.976,4.738Z" style="fill:#fff"/><path d="M18.483,12.729l3.948-.1c.1-3.825-1.888-5.713-5.346-5.713s-5.395,1.962-5.395,4.9c0,5.125,6.621,5.223,6.621,8.018,0,.785-.368,1.251-1.177,1.251-1.054,0-1.471-.687-1.422-2.6H11.568c-.319,4.733,2.452,5.812,5.615,5.812,3.065,0,5.468-1.422,5.468-4.512,0-5.493-6.719-5.346-6.719-8.067a1.126,1.126,0,0,1,1.251-1.251C17.674,10.473,18.557,10.669,18.483,12.729Z" style="fill:#fff"/></svg>