<svg viewBox="0 0 32 32" xmlns="http://www.w3.org/2000/svg"><path d="m2.365 6.667 13.125-4.667v28l-11.084-6.125z" fill="#93000e"/><path d="m15.49 2 13.416 4.594-2.187 17.206-11.229 6.2z" fill="#4a0007"/><path d="m15.49 5.135 8.531 18.229h-2.921l-1.823-4.156h-3.787v-2.479h2.77l-2.77-5.729-2.333 5.731h2.333v2.479h-3.471l-1.633 4.155h-3.136z" fill="#fff"/><g fill="#f7df1e"><path d="m15.271 27.926 1.664-1.01c.322.57.614 1.053 1.316 1.053.673 0 1.1-.263 1.1-1.287v-6.962h2.049v6.991a2.781 2.781 0 0 1 -3.056 3.089 3.178 3.178 0 0 1 -3.072-1.872"/><path d="m22.513 27.706 1.667-.965a2.229 2.229 0 0 0 2.02 1.243c.848 0 1.39-.424 1.39-1.009 0-.7-.556-.951-1.492-1.36l-.512-.22c-1.477-.629-2.457-1.419-2.457-3.086a2.737 2.737 0 0 1 2.755-2.719q.123 0 .245.013a3.024 3.024 0 0 1 2.908 1.638l-1.594 1.024a1.394 1.394 0 0 0 -1.316-.878.891.891 0 0 0 -.976.8q0 .04 0 .081c0 .614.38.863 1.258 1.243l.512.219c1.74.747 2.72 1.507 2.72 3.219 0 1.843-1.448 2.852-3.393 2.852a3.933 3.933 0 0 1 -3.73-2.092"/></g></svg>