<svg id="svg" version="1.1" xmlns="http://www.w3.org/2000/svg" xmlns:xlink="http://www.w3.org/1999/xlink" width="400" height="398.1424148606811" viewBox="0, 0, 400,398.1424148606811"><g id="svgg"><path id="path0" d="M193.134 0.626 C 191.632 1.143,184.903 4.929,163.003 17.579 C 160.789 18.858,157.167 20.949,154.954 22.226 C 147.710 26.405,143.332 28.933,133.282 34.742 C 121.113 41.775,117.003 44.147,107.895 49.391 C 103.978 51.646,98.127 55.016,94.892 56.879 C 91.656 58.742,86.641 61.633,83.746 63.304 C 76.618 67.418,71.194 70.549,66.563 73.220 C 53.480 80.767,47.686 84.111,41.331 87.782 C 38.437 89.455,35.686 91.042,35.219 91.309 C 34.058 91.974,33.834 91.415,39.145 101.084 C 41.765 105.851,43.866 109.795,43.814 109.848 C 43.763 109.900,39.798 107.980,35.003 105.582 C 26.370 101.263,25.697 101.018,25.697 102.185 C 25.697 102.516,25.586 102.786,25.450 102.786 C 25.315 102.786,25.169 103.302,25.127 103.932 C 25.084 104.563,24.917 105.238,24.756 105.432 C 24.572 105.654,24.461 140.612,24.459 198.799 C 24.456 301.289,24.302 293.276,26.353 297.355 C 28.228 301.085,26.884 302.759,39.866 280.527 L 51.403 260.768 50.041 257.242 C 38.016 226.114,35.989 191.630,44.291 159.443 C 61.958 90.951,124.804 42.040,195.046 42.117 C 219.531 42.143,234.892 44.881,255.263 52.848 C 294.316 68.122,329.113 102.743,343.187 140.325 C 343.490 141.134,343.823 141.794,343.928 141.792 C 344.082 141.788,368.962 96.529,369.292 95.652 C 369.486 95.137,365.742 92.562,359.952 89.230 C 352.095 84.708,335.154 74.925,320.433 66.410 C 313.878 62.618,306.703 58.475,304.489 57.203 C 302.276 55.931,295.519 52.036,289.474 48.546 C 283.429 45.057,276.184 40.875,273.375 39.254 C 270.565 37.633,266.873 35.502,265.170 34.518 C 259.380 31.174,254.338 28.278,252.941 27.494 C 252.175 27.065,250.991 26.394,250.310 26.004 C 249.628 25.615,248.305 24.873,247.368 24.356 C 246.432 23.839,245.039 23.025,244.272 22.546 C 243.506 22.067,242.496 21.522,242.028 21.334 C 241.560 21.146,241.176 20.876,241.176 20.734 C 241.176 20.591,240.868 20.377,240.491 20.257 C 240.113 20.138,232.625 15.922,223.850 10.889 C 207.661 1.604,204.795 0.122,203.703 0.468 C 203.359 0.577,203.096 0.518,203.096 0.330 C 203.096 -0.301,195.143 -0.066,193.134 0.626 M182.663 56.235 C 182.283 56.339,182.212 56.914,182.276 59.373 C 182.657 74.186,185.568 141.383,185.957 144.357 C 186.184 146.095,186.111 146.032,188.221 146.312 L 189.873 146.531 189.671 143.002 C 189.412 138.454,189.012 128.879,188.237 108.669 C 187.894 99.729,187.411 87.748,187.164 82.043 C 186.917 76.339,186.619 68.154,186.502 63.854 L 186.290 56.037 184.708 56.073 C 183.839 56.093,182.918 56.166,182.663 56.235 M219.412 57.471 C 219.053 57.831,219.178 75.033,219.659 91.176 C 219.907 99.520,220.113 108.247,220.117 110.571 C 220.125 115.344,220.028 115.170,222.671 115.170 L 224.238 115.170 224.040 105.650 C 223.931 100.414,223.751 87.539,223.640 77.038 L 223.438 57.946 222.322 57.755 C 221.709 57.650,220.852 57.494,220.419 57.409 C 219.985 57.324,219.532 57.352,219.412 57.471 M131.966 71.129 C 130.672 71.773,130.585 69.486,132.979 97.712 C 137.184 147.305,136.732 143.570,138.425 142.707 C 140.091 141.857,140.054 142.223,139.340 133.710 C 138.992 129.558,138.004 117.523,137.145 106.966 C 135.390 85.388,134.105 71.228,133.868 70.845 C 133.641 70.478,133.116 70.556,131.966 71.129 M238.276 79.025 C 238.173 79.408,238.087 84.690,238.085 90.762 L 238.080 101.803 239.033 102.604 C 240.046 103.457,241.372 103.932,241.733 103.572 C 242.033 103.272,242.009 81.169,241.707 80.088 C 241.293 78.602,238.611 77.772,238.276 79.025 M166.502 78.932 C 164.740 79.274,164.313 79.775,164.523 81.252 C 164.621 81.942,165.195 90.101,165.798 99.381 C 167.064 118.862,166.775 117.028,168.573 117.028 C 170.817 117.028,170.765 117.851,169.824 97.478 C 168.833 76.010,169.260 78.395,166.502 78.932 M274.819 85.655 C 274.555 85.920,274.551 101.256,274.814 107.342 L 275.016 111.996 276.371 112.654 C 277.116 113.016,277.791 113.313,277.872 113.313 C 278.092 113.313,278.046 93.861,277.816 89.876 L 277.616 86.408 276.418 85.928 C 275.037 85.376,275.090 85.385,274.819 85.655 M201.666 96.313 C 202.176 110.808,202.830 124.315,203.032 124.495 C 203.152 124.603,203.982 124.783,204.876 124.895 L 206.502 125.099 206.502 119.245 C 206.502 111.007,205.881 91.223,205.613 90.946 C 205.491 90.820,204.505 90.623,203.422 90.510 L 201.454 90.304 201.666 96.313 M292.413 103.598 C 292.516 110.218,292.735 134.930,292.899 158.514 C 293.064 182.098,293.283 201.982,293.388 202.701 C 293.570 203.956,294.428 204.747,294.992 204.182 C 295.280 203.894,295.258 95.403,294.970 94.376 C 294.843 93.923,294.173 93.104,293.482 92.556 L 292.225 91.561 292.413 103.598 M257.585 133.674 L 257.585 166.496 258.830 166.994 C 259.514 167.268,260.211 167.492,260.378 167.492 C 260.724 167.492,260.809 116.933,260.477 107.782 C 260.258 101.721,260.156 101.356,258.591 101.049 L 257.585 100.851 257.585 133.674 M150.387 102.569 C 149.359 102.976,149.373 102.660,150.000 111.539 C 150.994 125.601,151.068 126.006,152.647 126.006 C 154.705 126.006,154.803 125.105,154.031 113.313 C 153.238 101.205,153.309 101.415,150.387 102.569 M86.926 107.416 C 84.735 109.976,84.698 108.994,88.073 137.671 C 89.215 147.370,88.977 146.673,90.829 145.773 C 92.612 144.907,92.658 147.159,90.401 124.768 C 89.380 114.637,88.545 106.313,88.545 106.270 C 88.545 105.875,87.784 106.414,86.926 107.416 M238.545 128.870 C 238.786 141.732,238.708 141.264,240.605 141.304 C 242.357 141.341,242.323 141.620,242.162 128.838 L 242.029 118.202 240.751 117.622 C 238.113 116.423,238.296 115.490,238.545 128.870 M102.863 119.272 L 101.573 120.588 103.238 137.461 C 104.154 146.741,105.429 159.600,106.072 166.035 L 107.241 177.737 108.703 176.252 L 110.166 174.768 108.040 151.703 C 104.514 113.432,105.085 117.007,102.863 119.272 M74.570 124.655 C 72.742 127.420,72.706 127.577,73.067 131.196 C 73.461 135.138,77.155 164.285,78.021 170.279 C 78.353 172.577,79.535 181.563,80.648 190.248 C 81.761 198.932,82.706 206.245,82.748 206.499 C 82.790 206.754,83.230 206.271,83.725 205.426 L 84.625 203.890 83.178 190.722 C 82.382 183.480,80.960 170.519,80.017 161.920 C 75.538 121.068,75.792 122.807,74.570 124.655 M63.980 146.363 C 63.848 146.576,63.416 147.703,63.020 148.866 L 62.300 150.982 65.474 172.880 C 68.793 195.774,68.767 195.646,69.901 194.789 L 70.607 194.256 70.127 190.859 C 69.863 188.990,68.607 179.450,67.335 169.659 C 64.229 145.736,64.255 145.919,63.980 146.363 M274.945 156.424 C 275.030 185.647,275.336 189.783,277.413 189.783 L 278.341 189.783 278.257 169.493 C 278.164 147.004,278.333 148.621,276.084 148.612 L 274.923 148.607 274.945 156.424 M173.529 155.435 C 147.854 157.817,116.541 175.188,107.591 192.012 C 100.168 205.965,102.035 217.959,112.779 225.338 C 130.039 237.191,155.803 238.469,185.147 228.927 C 188.041 227.986,191.849 226.601,193.611 225.848 C 195.372 225.096,197.449 224.310,198.225 224.102 C 202.715 222.902,206.948 228.528,203.780 231.486 C 202.621 232.568,194.967 236.234,190.974 237.619 C 186.458 239.186,185.677 239.683,186.077 240.735 C 189.819 250.578,191.603 289.637,189.928 325.077 C 189.683 330.271,189.480 336.296,189.478 338.467 L 189.474 342.415 196.207 342.414 C 219.420 342.410,241.028 337.715,259.668 328.626 C 265.204 325.926,264.885 326.445,264.596 320.617 C 263.441 297.355,262.884 288.655,261.436 271.207 C 256.346 209.912,250.014 191.173,227.587 171.031 C 214.755 159.507,194.043 153.531,173.529 155.435 M310.736 156.859 C 310.621 156.975,310.531 163.141,310.538 170.562 L 310.549 184.056 312.240 186.842 L 313.931 189.628 313.931 173.770 L 313.932 157.911 313.080 157.478 C 311.844 156.849,310.976 156.620,310.736 156.859 M129.977 174.830 C 135.055 178.592,130.783 186.263,124.990 183.784 C 121.063 182.104,121.002 176.386,124.892 174.566 C 126.466 173.830,128.789 173.951,129.977 174.830 M156.192 177.986 C 159.390 179.467,160.581 182.613,159.101 185.669 C 157.469 189.041,153.325 189.950,150.579 187.539 C 145.759 183.307,150.448 175.327,156.192 177.986 M94.959 185.309 L 93.808 186.090 93.835 188.324 C 93.849 189.552,94.024 191.881,94.223 193.498 L 94.585 196.440 95.662 194.272 C 96.701 192.181,96.737 191.990,96.697 188.804 C 96.644 184.587,96.487 184.270,94.959 185.309 M71.293 209.822 C 71.115 210.286,72.104 219.218,72.725 222.755 L 72.942 223.994 73.509 222.924 C 74.350 221.335,72.862 209.288,71.825 209.288 C 71.645 209.288,71.405 209.528,71.293 209.822 M129.721 245.157 C 129.721 247.813,130.372 255.151,130.680 255.960 C 130.964 256.709,132.887 256.985,133.290 256.334 C 133.817 255.480,132.485 244.027,131.808 243.597 C 130.452 242.736,129.721 243.283,129.721 245.157 M160.991 245.497 C 160.991 246.534,161.265 250.689,161.601 254.729 C 161.937 258.769,162.508 265.697,162.870 270.124 C 163.505 277.881,163.780 279.483,164.412 279.093 C 164.813 278.845,164.775 276.263,164.255 268.421 C 164.012 264.760,163.586 258.142,163.307 253.715 C 162.728 244.494,162.622 243.848,161.669 243.709 C 161.034 243.617,160.991 243.732,160.991 245.497 M358.204 264.825 C 358.204 264.940,374.011 292.063,374.178 292.234 C 374.247 292.305,374.303 287.912,374.303 282.471 L 374.303 272.579 372.214 271.538 C 367.727 269.303,358.204 264.740,358.204 264.825 M275.851 290.354 C 275.851 314.580,275.999 319.181,276.751 318.426 C 277.195 317.982,277.239 315.634,277.192 295.266 C 277.137 271.778,277.053 269.350,276.294 269.350 C 275.915 269.350,275.851 272.360,275.851 290.354 M149.123 284.428 C 150.455 300.423,150.689 301.813,151.981 301.403 C 152.857 301.125,152.842 299.712,151.837 287.685 C 150.870 276.120,150.916 276.344,149.508 276.224 L 148.432 276.132 149.123 284.428 M303.715 315.652 C 302.227 317.270,296.443 322.097,292.146 325.307 C 270.237 341.669,246.188 351.614,218.576 355.730 C 212.936 356.570,200.434 356.940,188.288 356.625 C 183.576 356.503,179.685 356.438,179.641 356.481 C 179.597 356.524,184.644 365.811,190.857 377.118 L 202.153 397.678 203.153 397.572 C 205.556 397.318,209.879 394.950,245.046 374.625 C 265.480 362.816,284.497 351.832,287.307 350.217 C 290.116 348.602,294.853 345.861,297.833 344.126 C 300.813 342.391,304.052 340.520,305.031 339.968 C 306.863 338.934,307.526 338.314,305.898 339.156 C 305.395 339.416,304.909 339.628,304.818 339.628 C 304.726 339.628,304.615 334.044,304.570 327.220 L 304.489 314.811 303.715 315.652 M307.972 337.948 C 306.815 338.576,306.885 338.837,308.050 338.235 C 308.560 337.971,308.978 337.689,308.978 337.608 C 308.978 337.409,308.945 337.420,307.972 337.948 " stroke="none" fill="#69a658" fill-rule="evenodd"></path><path id="path1" d="M203.096 0.310 C 203.096 0.697,203.425 0.697,204.025 0.310 C 204.400 0.067,204.356 0.009,203.793 0.005 C 203.409 0.002,203.096 0.139,203.096 0.310 M206.527 1.044 C 206.846 1.329,208.669 2.167,208.669 2.028 C 208.669 1.850,206.952 0.929,206.620 0.929 C 206.498 0.929,206.456 0.981,206.527 1.044 M208.978 2.282 C 208.978 2.356,209.779 2.867,210.759 3.415 C 211.738 3.964,213.131 4.757,213.854 5.177 C 214.578 5.597,215.170 5.870,215.170 5.784 C 215.170 5.698,214.091 5.008,212.771 4.251 C 209.683 2.481,208.978 2.115,208.978 2.282 M217.647 7.260 C 217.647 7.345,218.065 7.631,218.576 7.895 C 219.087 8.159,219.505 8.305,219.505 8.220 C 219.505 8.135,219.087 7.849,218.576 7.585 C 218.065 7.321,217.647 7.175,217.647 7.260 M219.814 8.498 C 219.814 8.583,220.232 8.869,220.743 9.133 C 221.254 9.397,221.672 9.544,221.672 9.459 C 221.672 9.373,221.254 9.088,220.743 8.824 C 220.232 8.559,219.814 8.413,219.814 8.498 M227.864 13.142 C 227.864 13.227,228.282 13.513,228.793 13.777 C 229.303 14.041,229.721 14.188,229.721 14.103 C 229.721 14.017,229.303 13.732,228.793 13.467 C 228.282 13.203,227.864 13.057,227.864 13.142 M205.035 42.327 C 205.506 42.399,206.202 42.397,206.583 42.323 C 206.964 42.250,206.579 42.191,205.728 42.194 C 204.876 42.196,204.565 42.256,205.035 42.327 M182.132 58.359 C 182.134 59.211,182.194 59.522,182.266 59.051 C 182.337 58.581,182.335 57.884,182.261 57.503 C 182.188 57.123,182.130 57.508,182.132 58.359 M186.477 62.848 C 186.477 63.955,186.533 64.408,186.602 63.854 C 186.670 63.301,186.670 62.396,186.602 61.842 C 186.533 61.289,186.477 61.741,186.477 62.848 M182.425 68.421 C 182.425 69.017,182.488 69.261,182.566 68.963 C 182.644 68.665,182.644 68.177,182.566 67.879 C 182.488 67.581,182.425 67.825,182.425 68.421 M223.652 75.232 C 223.652 77.701,223.701 78.711,223.759 77.477 C 223.818 76.242,223.818 74.222,223.759 72.988 C 223.701 71.753,223.652 72.763,223.652 75.232 M186.759 73.684 C 186.759 74.280,186.823 74.524,186.901 74.226 C 186.979 73.928,186.979 73.440,186.901 73.142 C 186.823 72.844,186.759 73.088,186.759 73.684 M182.734 76.471 C 182.734 77.067,182.798 77.310,182.876 77.012 C 182.954 76.714,182.954 76.227,182.876 75.929 C 182.798 75.631,182.734 75.875,182.734 76.471 M219.288 81.424 C 219.288 82.361,219.346 82.744,219.417 82.276 C 219.488 81.807,219.488 81.041,219.417 80.573 C 219.346 80.104,219.288 80.488,219.288 81.424 M237.900 87.771 C 237.900 91.006,237.946 92.288,238.002 90.619 C 238.058 88.950,238.057 86.302,238.001 84.736 C 237.945 83.170,237.900 84.536,237.900 87.771 M183.044 83.901 C 183.044 84.497,183.108 84.741,183.186 84.443 C 183.263 84.145,183.263 83.657,183.186 83.359 C 183.108 83.061,183.044 83.305,183.044 83.901 M308.204 87.926 C 309.730 89.458,311.047 90.712,311.133 90.712 C 311.218 90.712,310.039 89.458,308.514 87.926 C 306.989 86.393,305.671 85.139,305.586 85.139 C 305.501 85.139,306.679 86.393,308.204 87.926 M277.781 90.093 C 277.781 90.689,277.845 90.933,277.922 90.635 C 278.000 90.337,278.000 89.849,277.922 89.551 C 277.845 89.253,277.781 89.497,277.781 90.093 M183.354 91.331 C 183.354 91.927,183.417 92.171,183.495 91.873 C 183.573 91.575,183.573 91.087,183.495 90.789 C 183.417 90.491,183.354 90.735,183.354 91.331 M219.593 92.724 C 219.596 93.576,219.656 93.887,219.727 93.417 C 219.798 92.946,219.796 92.250,219.723 91.869 C 219.649 91.488,219.591 91.873,219.593 92.724 M292.022 92.570 C 292.022 93.166,292.086 93.409,292.164 93.111 C 292.242 92.813,292.242 92.326,292.164 92.028 C 292.086 91.730,292.022 91.974,292.022 92.570 M32.683 92.783 C 29.933 94.581,23.388 103.012,25.991 101.403 C 26.153 101.303,30.208 103.183,35.003 105.582 C 39.798 107.980,43.762 109.900,43.813 109.848 C 43.940 109.716,34.248 91.964,34.056 91.977 C 33.971 91.982,33.353 92.345,32.683 92.783 M187.688 95.666 C 187.688 96.262,187.752 96.505,187.830 96.207 C 187.907 95.909,187.907 95.422,187.830 95.124 C 187.752 94.826,187.688 95.070,187.688 95.666 M205.960 96.440 C 205.964 97.121,206.027 97.363,206.101 96.978 C 206.175 96.593,206.173 96.035,206.095 95.739 C 206.018 95.443,205.957 95.759,205.960 96.440 M368.798 96.665 C 368.462 97.222,362.787 107.570,356.186 119.659 C 349.586 131.749,344.076 141.684,343.943 141.736 C 343.809 141.789,343.918 142.346,344.185 142.975 C 348.410 152.940,353.090 173.062,353.911 184.799 C 354.483 192.959,354.081 215.253,353.267 220.588 C 347.869 255.972,333.693 284.997,309.884 309.413 L 304.644 314.786 304.644 327.207 C 304.644 334.039,304.721 339.628,304.814 339.628 C 304.908 339.628,305.378 339.425,305.858 339.176 C 306.339 338.928,306.820 338.812,306.927 338.918 C 307.033 339.025,307.121 338.954,307.121 338.759 C 307.121 338.374,308.806 337.392,309.050 337.636 C 309.132 337.718,309.376 337.574,309.591 337.314 C 309.807 337.054,310.175 336.842,310.409 336.842 C 310.644 336.842,310.836 336.703,310.836 336.533 C 310.836 336.362,310.940 336.247,311.068 336.277 C 311.440 336.364,313.003 335.530,313.003 335.244 C 313.003 335.101,313.156 334.985,313.344 334.985 C 313.629 334.985,317.559 332.813,320.691 330.926 C 321.145 330.652,322.060 330.121,322.723 329.745 C 324.459 328.762,333.885 323.342,338.235 320.825 C 343.096 318.013,359.802 308.365,363.122 306.452 C 368.252 303.497,370.747 301.023,372.684 296.971 C 374.711 292.733,375.160 293.998,366.130 278.509 C 361.771 271.031,358.239 264.882,358.281 264.844 C 358.324 264.807,361.899 266.501,366.225 268.611 C 370.552 270.720,374.139 272.446,374.197 272.446 C 374.626 272.446,374.261 105.539,373.829 103.880 C 373.216 101.528,371.815 98.647,370.471 96.975 L 369.408 95.653 368.798 96.665 M201.632 98.452 C 201.632 99.218,201.693 99.532,201.766 99.149 C 201.840 98.765,201.840 98.139,201.766 97.755 C 201.693 97.372,201.632 97.686,201.632 98.452 M295.155 100.000 C 295.155 101.447,295.208 102.039,295.273 101.316 C 295.338 100.592,295.338 99.408,295.273 98.684 C 295.208 97.961,295.155 98.553,295.155 100.000 M183.663 98.762 C 183.663 99.358,183.727 99.601,183.805 99.303 C 183.883 99.005,183.883 98.518,183.805 98.220 C 183.727 97.922,183.663 98.166,183.663 98.762 M223.949 101.703 C 223.948 103.235,224.000 103.901,224.065 103.183 C 224.130 102.464,224.131 101.210,224.067 100.396 C 224.003 99.582,223.950 100.170,223.949 101.703 M292.385 106.037 C 292.386 108.762,292.433 109.835,292.491 108.422 C 292.548 107.009,292.548 104.780,292.490 103.468 C 292.432 102.157,292.385 103.313,292.385 106.037 M219.903 103.870 C 219.905 104.721,219.965 105.033,220.036 104.562 C 220.108 104.092,220.106 103.395,220.032 103.014 C 219.959 102.634,219.900 103.019,219.903 103.870 M187.998 103.715 C 187.998 104.311,188.061 104.555,188.139 104.257 C 188.217 103.959,188.217 103.471,188.139 103.173 C 188.061 102.875,187.998 103.119,187.998 103.715 M24.731 104.576 C 24.629 105.192,24.674 105.480,24.846 105.309 C 25.002 105.153,25.078 104.695,25.015 104.293 C 24.917 103.673,24.874 103.717,24.731 104.576 M260.480 107.121 C 260.480 108.568,260.533 109.160,260.598 108.437 C 260.663 107.713,260.663 106.529,260.598 105.805 C 260.533 105.081,260.480 105.673,260.480 107.121 M183.973 105.882 C 183.973 106.478,184.036 106.722,184.114 106.424 C 184.192 106.126,184.192 105.639,184.114 105.341 C 184.036 105.043,183.973 105.286,183.973 105.882 M201.936 106.656 C 201.939 107.337,202.002 107.580,202.077 107.195 C 202.151 106.809,202.148 106.252,202.070 105.956 C 201.993 105.660,201.932 105.975,201.936 106.656 M206.285 107.430 C 206.285 108.367,206.343 108.750,206.414 108.282 C 206.485 107.813,206.485 107.047,206.414 106.579 C 206.343 106.111,206.285 106.494,206.285 107.430 M274.728 108.978 C 274.728 110.766,274.779 111.498,274.841 110.604 C 274.904 109.710,274.904 108.247,274.841 107.353 C 274.779 106.459,274.728 107.190,274.728 108.978 M188.307 111.765 C 188.307 112.361,188.371 112.604,188.449 112.307 C 188.527 112.009,188.527 111.521,188.449 111.223 C 188.371 110.925,188.307 111.169,188.307 111.765 M202.239 114.241 C 202.239 114.837,202.303 115.081,202.381 114.783 C 202.458 114.485,202.458 113.998,202.381 113.700 C 202.303 113.402,202.239 113.646,202.239 114.241 M167.145 117.114 C 167.295 117.264,167.817 117.336,168.306 117.275 C 169.124 117.173,169.103 117.151,168.034 117.003 C 167.369 116.911,166.989 116.959,167.145 117.114 M238.169 118.421 C 238.171 119.272,238.231 119.584,238.303 119.113 C 238.374 118.643,238.372 117.946,238.298 117.565 C 238.225 117.185,238.167 117.570,238.169 118.421 M188.617 119.814 C 188.617 120.410,188.680 120.654,188.758 120.356 C 188.836 120.058,188.836 119.570,188.758 119.272 C 188.680 118.974,188.617 119.218,188.617 119.814 M242.228 131.579 C 242.228 134.048,242.276 135.058,242.335 133.824 C 242.394 132.589,242.394 130.569,242.335 129.334 C 242.276 128.100,242.228 129.110,242.228 131.579 M238.483 129.721 C 238.483 130.658,238.541 131.041,238.612 130.573 C 238.683 130.104,238.683 129.338,238.612 128.870 C 238.541 128.402,238.483 128.785,238.483 129.721 M189.236 134.985 C 189.236 135.580,189.300 135.824,189.378 135.526 C 189.455 135.228,189.455 134.741,189.378 134.443 C 189.300 134.145,189.236 134.389,189.236 134.985 M292.705 146.285 C 292.705 150.882,292.748 152.806,292.801 150.560 C 292.854 148.314,292.854 144.553,292.801 142.201 C 292.749 139.850,292.705 141.687,292.705 146.285 M295.504 172.755 C 295.504 186.633,295.542 192.310,295.588 185.372 C 295.635 178.433,295.635 167.078,295.588 160.139 C 295.542 153.200,295.504 158.878,295.504 172.755 M275.310 148.511 C 275.608 148.588,276.095 148.588,276.393 148.511 C 276.691 148.433,276.447 148.369,275.851 148.369 C 275.255 148.369,275.012 148.433,275.310 148.511 M278.473 171.827 C 278.473 181.788,278.512 185.863,278.560 180.882 C 278.608 175.902,278.608 167.752,278.560 162.771 C 278.512 157.790,278.473 161.865,278.473 171.827 M314.072 169.659 C 314.072 176.045,314.113 178.657,314.164 175.464 C 314.214 172.272,314.214 167.047,314.164 163.854 C 314.113 160.662,314.072 163.274,314.072 169.659 M310.379 178.638 C 310.449 195.875,310.357 195.113,312.346 194.984 L 313.777 194.892 313.868 192.295 L 313.958 189.697 312.320 187.031 L 310.681 184.365 310.499 173.839 C 310.344 164.806,310.326 165.487,310.379 178.638 M275.050 173.065 C 275.050 176.045,275.096 177.264,275.153 175.774 C 275.210 174.284,275.210 171.846,275.153 170.356 C 275.096 168.866,275.050 170.085,275.050 173.065 M81.806 178.638 C 81.806 179.234,81.869 179.478,81.947 179.180 C 82.025 178.882,82.025 178.394,81.947 178.096 C 81.869 177.798,81.806 178.042,81.806 178.638 M327.442 183.978 C 326.764 206.507,326.629 259.752,327.250 259.752 C 327.628 259.752,329.401 255.083,329.725 253.239 C 330.044 251.418,330.521 225.651,330.768 196.853 L 330.921 178.999 329.696 178.509 C 327.538 177.646,327.641 177.398,327.442 183.978 M39.717 186.533 C 39.719 187.384,39.779 187.695,39.851 187.225 C 39.922 186.754,39.920 186.058,39.846 185.677 C 39.773 185.296,39.715 185.681,39.717 186.533 M293.008 191.641 C 293.008 194.791,293.054 196.080,293.110 194.505 C 293.166 192.930,293.166 190.352,293.110 188.777 C 293.054 187.202,293.008 188.491,293.008 191.641 M93.583 187.926 C 93.583 188.692,93.643 189.005,93.717 188.622 C 93.791 188.239,93.791 187.612,93.717 187.229 C 93.643 186.846,93.583 187.159,93.583 187.926 M39.437 199.226 C 39.438 201.269,39.488 202.065,39.548 200.994 C 39.609 199.923,39.609 198.251,39.547 197.279 C 39.486 196.306,39.436 197.183,39.437 199.226 M84.562 203.526 C 84.539 203.848,84.121 204.759,83.634 205.551 L 82.748 206.991 84.416 220.136 C 86.489 236.479,86.304 235.354,86.904 235.236 C 88.113 234.998,88.098 234.486,86.422 219.136 C 84.614 202.578,84.625 202.663,84.562 203.526 M103.180 206.502 C 103.180 207.268,103.241 207.581,103.314 207.198 C 103.388 206.815,103.388 206.188,103.314 205.805 C 103.241 205.422,103.180 205.735,103.180 206.502 M103.168 209.907 C 103.168 210.503,103.232 210.747,103.309 210.449 C 103.387 210.151,103.387 209.663,103.309 209.365 C 103.232 209.067,103.168 209.311,103.168 209.907 M71.017 209.734 C 70.923 209.980,70.900 210.432,70.967 210.740 C 71.042 211.090,71.148 210.922,71.249 210.294 C 71.417 209.240,71.308 208.975,71.017 209.734 M39.717 212.229 C 39.719 213.080,39.779 213.392,39.851 212.921 C 39.922 212.451,39.920 211.754,39.846 211.373 C 39.773 210.993,39.715 211.378,39.717 212.229 M73.499 222.826 L 72.849 224.143 74.501 235.678 C 77.883 259.301,78.551 263.369,78.979 262.941 C 79.330 262.589,78.692 256.730,76.322 238.570 C 75.231 230.213,74.296 222.955,74.244 222.441 L 74.149 221.508 73.499 222.826 M97.978 226.316 C 98.068 226.912,98.427 230.116,98.774 233.437 C 99.665 241.962,99.926 243.344,100.644 243.344 C 101.949 243.344,102.131 242.306,101.672 237.461 C 100.859 228.876,100.846 228.832,98.364 225.887 C 97.818 225.239,97.814 225.243,97.978 226.316 M149.923 235.520 C 150.561 235.586,151.606 235.586,152.245 235.520 C 152.883 235.453,152.361 235.398,151.084 235.398 C 149.807 235.398,149.284 235.453,149.923 235.520 M88.704 251.696 C 88.601 251.863,89.091 256.619,89.792 262.265 C 90.494 267.910,91.523 277.061,92.080 282.600 C 93.036 292.124,93.129 292.702,93.803 293.247 C 94.195 293.564,94.558 293.781,94.610 293.728 C 94.797 293.541,90.378 254.565,89.907 252.245 C 89.737 251.407,89.070 251.103,88.704 251.696 M311.610 253.015 L 310.062 254.419 309.962 269.392 C 309.836 288.162,309.857 288.337,311.881 285.549 L 312.931 284.101 313.151 269.218 C 313.272 261.032,313.323 253.722,313.265 252.973 L 313.158 251.611 311.610 253.015 M39.917 280.431 C 33.548 291.335,28.196 300.176,28.023 300.078 C 27.644 299.863,28.943 301.392,30.059 302.473 C 31.596 303.962,32.933 304.896,35.913 306.563 C 36.680 306.991,41.625 309.846,46.904 312.907 C 52.183 315.968,57.128 318.824,57.895 319.254 C 58.661 319.684,63.607 322.540,68.885 325.600 C 74.164 328.661,79.110 331.517,79.876 331.947 C 80.642 332.377,85.588 335.233,90.867 338.294 C 96.146 341.355,101.161 344.247,102.012 344.720 C 102.864 345.194,105.163 346.522,107.121 347.671 C 110.287 349.529,121.291 355.883,124.149 357.504 C 124.745 357.843,126.904 359.093,128.947 360.283 C 132.859 362.560,144.284 369.152,146.130 370.196 C 146.726 370.533,148.398 371.506,149.845 372.358 C 152.520 373.933,166.275 381.856,168.362 383.023 C 168.990 383.375,171.107 384.600,173.065 385.745 C 175.023 386.890,176.834 387.921,177.090 388.037 C 177.345 388.153,178.111 388.586,178.793 389.001 C 179.474 389.415,180.379 389.928,180.805 390.142 C 181.231 390.356,182.306 390.985,183.196 391.541 C 184.085 392.096,186.031 393.188,187.521 393.968 C 189.010 394.747,190.318 395.529,190.428 395.706 C 190.537 395.883,190.681 396.007,190.747 395.982 C 190.913 395.917,191.857 396.259,193.498 396.979 C 194.521 397.428,195.866 397.634,198.560 397.755 L 202.228 397.920 201.764 397.025 C 200.923 395.405,179.546 356.533,179.435 356.421 C 179.374 356.361,177.882 356.110,176.118 355.865 C 126.780 348.986,84.287 320.342,59.728 277.408 C 57.217 273.019,53.263 265.102,52.089 262.113 L 51.497 260.607 39.917 280.431 M275.684 282.972 C 275.684 290.379,275.724 293.409,275.774 289.706 C 275.823 286.002,275.823 279.942,275.774 276.238 C 275.724 272.535,275.684 275.565,275.684 282.972 M190.165 276.471 C 190.165 277.067,190.228 277.310,190.306 277.012 C 190.384 276.714,190.384 276.227,190.306 275.929 C 190.228 275.631,190.165 275.875,190.165 276.471 M277.211 281.734 C 277.211 284.033,277.260 284.973,277.319 283.824 C 277.379 282.674,277.379 280.793,277.319 279.644 C 277.260 278.495,277.211 279.435,277.211 281.734 M190.504 288.700 C 190.505 289.892,190.561 290.341,190.628 289.699 C 190.695 289.057,190.694 288.081,190.626 287.532 C 190.558 286.982,190.503 287.508,190.504 288.700 M118.888 293.091 C 118.889 294.081,119.023 296.076,119.186 297.523 C 119.348 298.971,119.698 302.732,119.963 305.882 C 121.029 318.551,121.316 320.506,122.236 321.339 L 123.065 322.091 123.169 320.875 C 123.279 319.601,121.176 294.446,120.804 292.570 C 120.379 290.432,118.885 290.839,118.888 293.091 M190.514 303.715 C 190.514 305.333,190.566 305.995,190.630 305.186 C 190.694 304.377,190.694 303.053,190.630 302.245 C 190.566 301.436,190.514 302.098,190.514 303.715 M263.855 306.347 C 263.859 307.028,263.922 307.270,263.996 306.885 C 264.070 306.500,264.067 305.943,263.990 305.647 C 263.912 305.351,263.852 305.666,263.855 306.347 M264.165 313.158 C 264.168 313.839,264.232 314.081,264.306 313.696 C 264.380 313.311,264.377 312.754,264.299 312.458 C 264.222 312.162,264.161 312.477,264.165 313.158 M275.955 316.099 C 275.955 317.376,276.010 317.899,276.077 317.260 C 276.144 316.622,276.144 315.577,276.077 314.938 C 276.010 314.300,275.955 314.822,275.955 316.099 M301.998 317.105 L 300.774 318.421 302.090 317.197 C 303.313 316.059,303.548 315.789,303.314 315.789 C 303.263 315.789,302.671 316.382,301.998 317.105 M136.225 317.240 C 136.228 318.546,136.644 322.598,137.185 326.585 C 137.539 329.198,138.294 330.628,139.068 330.149 C 139.560 329.845,139.170 318.222,138.629 317.089 C 137.924 315.611,136.222 315.718,136.225 317.240 M190.165 317.028 C 190.165 317.624,190.228 317.868,190.306 317.570 C 190.384 317.272,190.384 316.784,190.306 316.486 C 190.228 316.188,190.165 316.432,190.165 317.028 M264.790 323.839 C 264.790 324.605,264.851 324.919,264.924 324.536 C 264.998 324.152,264.998 323.526,264.924 323.142 C 264.851 322.759,264.790 323.073,264.790 323.839 M205.341 342.319 C 205.639 342.397,206.126 342.397,206.424 342.319 C 206.722 342.241,206.478 342.177,205.882 342.177 C 205.286 342.177,205.043 342.241,205.341 342.319 M196.053 356.878 C 196.521 356.949,197.287 356.949,197.755 356.878 C 198.224 356.807,197.841 356.749,196.904 356.749 C 195.967 356.749,195.584 356.807,196.053 356.878 " stroke="none" fill="#3b833b" fill-rule="evenodd"></path><path id="path2" d="M184.365 42.438 C 158.308 43.978,129.229 54.498,106.038 70.773 C 43.831 114.430,22.058 196.831,54.305 266.563 C 77.418 316.545,130.194 353.258,183.357 356.338 C 233.650 359.251,274.618 344.277,308.228 310.698 C 340.782 278.173,355.805 238.661,353.937 190.481 C 352.013 140.864,323.953 93.121,280.805 66.050 C 258.474 52.040,230.458 43.071,207.430 42.559 C 193.739 42.254,187.977 42.224,184.365 42.438 M186.791 65.867 C 186.902 71.443,187.130 78.723,187.297 82.043 C 187.464 85.364,187.953 97.206,188.383 108.359 C 189.382 134.249,189.735 142.400,189.964 144.845 L 190.149 146.811 189.269 146.646 C 188.786 146.555,187.881 146.399,187.259 146.297 C 186.637 146.196,186.050 145.910,185.955 145.662 C 185.573 144.667,182.043 65.489,182.043 57.919 L 182.043 56.073 183.359 55.954 C 184.083 55.889,185.105 55.811,185.631 55.782 L 186.588 55.728 186.791 65.867 M223.345 57.896 C 223.538 58.089,223.733 65.957,223.868 79.024 C 223.987 90.476,224.133 103.328,224.194 107.585 L 224.303 115.325 222.299 115.229 C 221.196 115.177,220.260 115.100,220.219 115.059 C 219.888 114.728,218.713 59.244,219.012 58.054 C 219.238 57.153,222.484 57.035,223.345 57.896 M134.181 71.440 C 134.417 72.586,135.594 85.974,137.306 106.966 C 138.083 116.502,138.994 127.598,139.329 131.624 C 140.188 141.950,140.191 141.895,138.837 142.694 C 136.740 143.931,136.932 144.442,136.064 135.294 C 135.645 130.874,130.650 72.507,130.650 72.028 C 130.650 70.822,133.942 70.273,134.181 71.440 M240.847 78.749 C 242.078 79.326,242.192 80.435,242.227 92.167 C 242.264 104.748,242.308 104.490,240.267 103.569 C 237.797 102.455,237.926 103.178,237.926 90.418 C 237.926 77.018,237.845 77.341,240.847 78.749 M169.160 80.882 C 170.304 95.769,170.782 116.593,169.989 117.017 C 169.187 117.447,167.273 117.425,167.000 116.983 C 166.817 116.686,164.429 83.039,164.404 80.403 C 164.395 79.357,165.687 78.669,167.698 78.650 L 168.987 78.638 169.160 80.882 M276.262 85.633 C 277.376 86.013,277.761 86.318,277.924 86.949 C 278.195 88.001,278.241 113.193,277.972 113.462 C 277.861 113.573,277.083 113.315,276.242 112.889 L 274.713 112.115 274.521 100.195 C 274.360 90.272,274.440 85.139,274.756 85.139 C 274.787 85.139,275.465 85.362,276.262 85.633 M205.145 90.603 C 205.698 90.734,205.832 91.060,205.992 92.670 C 206.200 94.764,206.909 125.087,206.753 125.233 C 206.622 125.356,202.998 124.773,202.827 124.602 C 202.533 124.308,201.548 101.149,201.548 94.537 L 201.548 90.023 203.019 90.235 C 203.827 90.351,204.784 90.517,205.145 90.603 M293.805 92.531 L 295.194 93.730 295.434 107.314 C 295.731 124.171,295.598 204.196,295.273 204.521 C 295.142 204.652,294.654 204.626,294.189 204.463 C 292.934 204.023,292.971 205.275,292.612 151.703 C 292.431 124.714,292.195 100.089,292.088 96.981 C 291.873 90.750,291.839 90.837,293.805 92.531 M259.811 101.282 C 260.117 101.439,260.416 102.095,260.531 102.865 C 260.779 104.519,260.900 167.375,260.656 167.620 C 260.557 167.719,259.826 167.578,259.031 167.307 L 257.585 166.815 257.585 133.711 L 257.585 100.607 258.437 100.811 C 258.905 100.923,259.523 101.135,259.811 101.282 M153.292 102.906 C 153.668 104.322,154.872 123.506,154.656 124.655 C 154.340 126.343,151.485 126.626,151.057 125.013 C 150.662 123.526,149.772 111.433,149.731 106.997 L 149.690 102.694 150.774 102.294 C 152.357 101.709,153.016 101.869,153.292 102.906 M88.694 106.579 C 88.783 106.962,89.686 115.695,90.703 125.986 C 92.711 146.318,92.705 145.226,90.799 146.023 C 89.043 146.757,88.985 146.689,88.579 143.421 C 88.206 140.418,85.338 114.872,85.042 111.920 C 84.766 109.156,88.147 104.210,88.694 106.579 M241.189 117.653 L 242.415 118.279 242.415 129.438 C 242.415 142.507,242.435 142.418,239.706 141.467 L 238.762 141.138 238.582 136.745 C 238.483 134.330,238.317 128.905,238.214 124.690 L 238.026 117.028 238.994 117.028 C 239.527 117.028,240.514 117.309,241.189 117.653 M105.086 119.118 C 105.316 120.553,106.247 130.337,108.549 155.514 L 110.326 174.960 108.750 176.537 L 107.173 178.114 106.988 176.750 C 106.664 174.369,101.548 122.118,101.548 121.192 C 101.548 118.981,104.761 117.097,105.086 119.118 M75.851 123.541 C 75.851 123.718,76.130 126.121,76.470 128.882 C 79.044 149.773,88.192 234.177,87.934 234.659 C 87.610 235.266,86.779 235.697,86.393 235.459 C 86.263 235.378,86.064 234.507,85.952 233.523 C 85.840 232.539,83.721 216.060,81.243 196.904 C 71.797 123.869,72.304 128.420,73.374 126.306 C 74.629 123.829,75.851 122.464,75.851 123.541 M64.396 145.649 C 64.396 145.724,64.668 147.640,65.000 149.906 C 65.332 152.171,66.443 160.573,67.469 168.576 C 68.496 176.579,69.681 185.635,70.104 188.700 L 70.872 194.272 70.231 194.814 C 68.480 196.296,68.864 197.978,65.173 172.660 L 62.006 150.929 62.945 148.220 C 63.700 146.041,64.396 144.808,64.396 145.649 M277.654 148.566 C 278.505 149.106,278.623 151.755,278.630 170.511 L 278.638 189.783 277.437 189.783 C 275.051 189.783,274.980 189.123,274.858 165.557 L 274.768 148.297 276.006 148.302 C 276.687 148.305,277.429 148.424,277.654 148.566 M190.337 155.434 C 218.378 158.473,239.753 175.730,250.761 204.219 C 256.925 220.170,261.575 256.371,264.237 309.133 C 264.495 314.241,264.795 319.955,264.904 321.829 C 265.166 326.355,265.120 326.410,258.598 329.409 C 245.519 335.424,228.914 340.059,214.241 341.791 C 211.180 342.153,189.507 342.861,189.254 342.608 C 189.098 342.452,189.338 335.191,190.095 317.183 C 191.305 288.394,189.577 255.045,186.181 241.672 C 185.593 239.357,185.489 239.454,190.557 237.617 C 203.081 233.079,206.485 230.189,203.751 226.415 C 201.717 223.607,199.818 223.523,193.784 225.974 C 184.282 229.834,171.572 233.297,160.526 235.035 C 150.637 236.592,133.907 234.948,125.218 231.565 C 107.095 224.509,101.517 217.308,103.373 203.361 C 106.252 181.730,138.686 159.418,173.220 155.312 C 175.425 155.049,187.590 155.136,190.337 155.434 M313.003 157.228 L 314.087 157.740 314.165 173.220 C 314.209 181.734,314.139 190.163,314.011 191.950 L 313.777 195.201 312.539 195.282 C 310.221 195.433,310.382 196.701,310.274 177.488 C 310.145 154.638,309.988 155.802,313.003 157.228 M124.896 174.726 C 123.696 175.271,122.705 176.515,122.242 178.060 C 120.905 182.524,127.022 186.113,130.452 182.878 C 134.614 178.953,130.121 172.359,124.896 174.726 M151.521 178.294 C 147.674 180.640,147.822 186.282,151.780 188.198 C 156.571 190.517,161.409 185.162,158.769 180.464 C 157.371 177.977,153.796 176.907,151.521 178.294 M329.489 178.233 L 330.960 178.760 330.949 189.612 C 330.928 210.014,330.367 248.448,330.046 251.476 C 329.603 255.649,327.656 260.790,326.911 259.752 C 326.504 259.184,327.000 181.532,327.429 178.715 C 327.608 177.542,327.579 177.548,329.489 178.233 M96.761 186.212 C 97.164 189.438,96.806 192.215,95.682 194.582 L 94.653 196.749 94.412 195.684 C 93.202 190.324,93.369 186.017,94.823 185.131 C 96.312 184.223,96.528 184.344,96.761 186.212 M72.722 210.139 C 72.887 210.778,73.384 214.226,73.828 217.802 C 74.271 221.378,75.525 231.200,76.615 239.628 C 79.506 261.986,79.652 263.467,78.966 263.467 C 78.348 263.467,78.132 262.158,73.971 233.127 C 70.744 210.612,70.633 209.645,71.238 209.263 C 72.045 208.752,72.421 208.974,72.722 210.139 M100.615 228.475 C 101.060 229.306,102.312 241.175,102.061 242.176 C 101.804 243.202,100.768 243.852,100.175 243.360 C 99.767 243.022,99.186 239.157,98.294 230.853 C 97.620 224.590,97.590 224.760,99.069 226.468 C 99.749 227.254,100.445 228.157,100.615 228.475 M131.853 243.576 C 132.681 244.263,133.143 247.398,133.224 252.884 L 133.282 256.811 132.314 256.905 C 130.454 257.086,130.335 256.708,129.696 248.537 C 129.254 242.884,129.722 241.806,131.853 243.576 M162.313 243.731 C 163.324 244.496,165.276 279.257,164.307 279.257 C 163.450 279.257,163.319 278.385,162.397 266.563 C 161.979 261.200,161.409 253.984,161.131 250.528 C 160.541 243.192,160.664 242.483,162.313 243.731 M89.745 251.501 C 90.322 252.197,95.091 293.248,94.646 293.692 C 94.536 293.802,94.100 293.665,93.677 293.388 C 92.797 292.811,92.755 292.608,92.260 286.533 C 91.806 280.951,90.968 273.255,89.621 262.292 C 89.029 257.474,88.545 253.074,88.545 252.514 C 88.545 251.091,89.050 250.664,89.745 251.501 M313.256 267.914 L 313.118 284.126 311.951 285.716 C 309.836 288.597,309.907 289.131,309.907 270.496 L 309.907 254.665 311.366 253.184 C 312.168 252.369,312.953 251.703,313.109 251.703 C 313.280 251.703,313.339 258.168,313.256 267.914 M277.145 271.325 C 277.261 272.492,277.400 283.457,277.455 295.692 L 277.554 317.937 276.866 318.626 C 276.488 319.005,276.088 319.225,275.977 319.114 C 275.712 318.849,275.391 270.189,275.650 269.515 C 276.147 268.220,276.932 269.171,277.145 271.325 M150.723 276.254 C 151.133 276.748,153.091 299.672,152.816 300.765 C 152.575 301.727,150.927 301.910,150.649 301.006 C 150.373 300.111,148.297 278.278,148.297 276.271 C 148.297 275.721,150.270 275.708,150.723 276.254 M120.524 291.466 C 120.775 291.717,121.050 292.830,121.156 294.020 C 121.259 295.181,121.855 301.814,122.482 308.762 C 123.713 322.416,123.704 322.695,122.064 321.470 C 121.142 320.782,121.060 320.275,120.130 309.598 C 119.944 307.469,119.504 302.767,119.151 299.149 C 118.381 291.266,118.676 289.618,120.524 291.466 M138.361 316.380 C 139.440 317.458,139.992 330.067,138.969 330.271 C 137.619 330.540,137.110 328.815,136.397 321.545 C 135.846 315.931,136.415 314.434,138.361 316.380 " stroke="none" fill="#242424" fill-rule="evenodd"></path><path id="path3" d="M200.542 42.332 C 201.265 42.397,202.450 42.397,203.173 42.332 C 203.897 42.267,203.305 42.213,201.858 42.213 C 200.410 42.213,199.818 42.267,200.542 42.332 M186.486 58.514 C 186.486 59.961,186.539 60.553,186.604 59.830 C 186.670 59.106,186.670 57.922,186.604 57.198 C 186.539 56.474,186.486 57.067,186.486 58.514 M219.011 63.313 C 219.011 66.037,219.059 67.110,219.116 65.697 C 219.174 64.284,219.173 62.055,219.115 60.744 C 219.057 59.432,219.010 60.588,219.011 63.313 M182.121 60.836 C 182.125 61.517,182.188 61.759,182.262 61.374 C 182.336 60.989,182.334 60.432,182.256 60.136 C 182.179 59.840,182.118 60.155,182.121 60.836 M223.645 67.647 C 223.646 69.520,223.697 70.246,223.759 69.261 C 223.820 68.276,223.820 66.743,223.757 65.856 C 223.695 64.968,223.645 65.774,223.645 67.647 M186.759 71.827 C 186.759 72.423,186.823 72.666,186.901 72.368 C 186.979 72.070,186.979 71.583,186.901 71.285 C 186.823 70.987,186.759 71.231,186.759 71.827 M237.843 81.115 C 237.843 81.711,237.906 81.954,237.984 81.656 C 238.062 81.358,238.062 80.871,237.984 80.573 C 237.906 80.275,237.843 80.519,237.843 81.115 M219.279 84.211 C 219.279 84.977,219.340 85.290,219.414 84.907 C 219.487 84.524,219.487 83.897,219.414 83.514 C 219.340 83.131,219.279 83.444,219.279 84.211 M242.225 92.260 C 242.225 94.389,242.274 95.259,242.334 94.195 C 242.395 93.131,242.395 91.389,242.334 90.325 C 242.274 89.261,242.225 90.132,242.225 92.260 M223.951 96.285 C 223.951 97.902,224.003 98.564,224.067 97.755 C 224.130 96.947,224.130 95.623,224.067 94.814 C 224.003 94.005,223.951 94.667,223.951 96.285 M237.883 96.285 C 237.883 97.902,237.935 98.564,237.998 97.755 C 238.062 96.947,238.062 95.623,237.998 94.814 C 237.935 94.005,237.883 94.667,237.883 96.285 M292.029 94.582 C 292.032 95.263,292.095 95.505,292.169 95.120 C 292.243 94.735,292.241 94.178,292.163 93.882 C 292.086 93.586,292.025 93.901,292.029 94.582 M219.589 95.356 C 219.589 96.122,219.649 96.436,219.723 96.053 C 219.797 95.670,219.797 95.043,219.723 94.659 C 219.649 94.276,219.589 94.590,219.589 95.356 M295.118 96.594 C 295.118 97.190,295.182 97.434,295.260 97.136 C 295.338 96.838,295.338 96.351,295.260 96.053 C 295.182 95.755,295.118 95.998,295.118 96.594 M278.146 101.238 C 278.146 104.218,278.192 105.437,278.249 103.947 C 278.306 102.457,278.306 100.019,278.249 98.529 C 278.192 97.039,278.146 98.259,278.146 101.238 M206.280 104.489 C 206.283 105.341,206.343 105.652,206.414 105.182 C 206.485 104.711,206.483 104.014,206.410 103.634 C 206.336 103.253,206.278 103.638,206.280 104.489 M219.903 106.656 C 219.905 107.508,219.965 107.819,220.036 107.349 C 220.108 106.878,220.106 106.181,220.032 105.801 C 219.959 105.420,219.900 105.805,219.903 106.656 M292.386 115.789 C 292.386 118.599,292.433 119.748,292.490 118.344 C 292.548 116.939,292.548 114.640,292.490 113.235 C 292.433 111.830,292.386 112.980,292.386 115.789 M242.104 122.693 L 242.258 127.399 242.345 122.935 C 242.393 120.479,242.324 118.361,242.191 118.228 C 242.059 118.095,242.020 120.104,242.104 122.693 M295.499 133.591 C 295.499 141.424,295.539 144.584,295.588 140.613 C 295.637 136.643,295.637 130.234,295.588 126.372 C 295.539 122.510,295.499 125.759,295.499 133.591 M238.165 121.053 C 238.165 121.819,238.225 122.132,238.299 121.749 C 238.373 121.366,238.373 120.739,238.299 120.356 C 238.225 119.973,238.165 120.286,238.165 121.053 M206.608 122.755 C 206.609 124.118,206.663 124.636,206.729 123.908 C 206.794 123.180,206.793 122.065,206.727 121.431 C 206.660 120.797,206.607 121.393,206.608 122.755 M238.483 132.817 C 238.483 133.754,238.541 134.137,238.612 133.669 C 238.683 133.200,238.683 132.434,238.612 131.966 C 238.541 131.498,238.483 131.881,238.483 132.817 M278.412 152.632 C 278.412 153.398,278.473 153.711,278.547 153.328 C 278.620 152.945,278.620 152.318,278.547 151.935 C 278.473 151.552,278.412 151.865,278.412 152.632 M292.706 163.313 C 292.706 168.251,292.749 170.228,292.801 167.706 C 292.853 165.183,292.853 161.143,292.801 158.727 C 292.749 156.311,292.706 158.375,292.706 163.313 M310.316 161.300 C 310.316 162.407,310.372 162.860,310.441 162.307 C 310.509 161.753,310.509 160.848,310.441 160.294 C 310.372 159.741,310.316 160.193,310.316 161.300 M275.029 180.650 C 275.030 182.012,275.084 182.531,275.150 181.803 C 275.215 181.075,275.214 179.960,275.148 179.326 C 275.081 178.692,275.028 179.288,275.029 180.650 M327.346 181.889 C 327.348 183.080,327.404 183.530,327.471 182.888 C 327.538 182.245,327.536 181.270,327.468 180.721 C 327.400 180.171,327.345 180.697,327.346 181.889 M314.048 184.365 C 314.048 186.238,314.099 186.965,314.161 185.979 C 314.223 184.994,314.222 183.462,314.160 182.574 C 314.097 181.686,314.047 182.492,314.048 184.365 M353.959 188.080 C 353.961 188.932,354.021 189.243,354.092 188.773 C 354.163 188.302,354.161 187.606,354.088 187.225 C 354.014 186.844,353.956 187.229,353.959 188.080 M39.713 189.164 C 39.713 189.930,39.773 190.244,39.847 189.861 C 39.921 189.478,39.921 188.851,39.847 188.467 C 39.773 188.084,39.713 188.398,39.713 189.164 M310.318 190.867 C 310.320 192.059,310.376 192.509,310.443 191.866 C 310.510 191.224,310.509 190.249,310.440 189.699 C 310.372 189.149,310.317 189.675,310.318 190.867 M330.781 195.356 C 330.781 198.847,330.826 200.275,330.881 198.529 C 330.936 196.784,330.936 193.928,330.881 192.183 C 330.826 190.437,330.781 191.865,330.781 195.356 M292.972 198.762 C 292.972 199.698,293.030 200.081,293.101 199.613 C 293.172 199.145,293.172 198.378,293.101 197.910 C 293.030 197.442,292.972 197.825,292.972 198.762 M295.458 199.845 C 295.459 201.037,295.515 201.487,295.582 200.844 C 295.649 200.202,295.648 199.227,295.579 198.677 C 295.511 198.128,295.456 198.653,295.458 199.845 M327.053 210.372 C 327.054 212.415,327.104 213.210,327.165 212.140 C 327.225 211.069,327.225 209.397,327.163 208.424 C 327.102 207.452,327.053 208.328,327.053 210.372 M39.713 209.598 C 39.713 210.364,39.773 210.677,39.847 210.294 C 39.921 209.911,39.921 209.284,39.847 208.901 C 39.773 208.518,39.713 208.831,39.713 209.598 M353.954 210.526 C 353.954 211.293,354.015 211.606,354.088 211.223 C 354.162 210.840,354.162 210.213,354.088 209.830 C 354.015 209.447,353.954 209.760,353.954 210.526 M330.470 230.495 C 330.470 233.731,330.516 235.012,330.572 233.343 C 330.627 231.674,330.627 229.027,330.571 227.461 C 330.515 225.894,330.469 227.260,330.470 230.495 M326.754 236.223 C 326.754 239.373,326.800 240.662,326.856 239.087 C 326.912 237.512,326.912 234.934,326.856 233.359 C 326.800 231.784,326.754 233.073,326.754 236.223 M147.295 235.513 C 147.680 235.587,148.237 235.584,148.533 235.507 C 148.829 235.429,148.514 235.369,147.833 235.372 C 147.152 235.376,146.910 235.439,147.295 235.513 M330.120 247.523 C 330.122 248.375,330.182 248.686,330.253 248.216 C 330.324 247.745,330.322 247.048,330.249 246.668 C 330.175 246.287,330.117 246.672,330.120 247.523 M309.985 255.573 C 309.989 256.254,310.052 256.496,310.126 256.111 C 310.200 255.726,310.197 255.169,310.120 254.873 C 310.042 254.577,309.982 254.892,309.985 255.573 M313.115 272.136 C 313.115 273.754,313.167 274.416,313.231 273.607 C 313.294 272.798,313.294 271.474,313.231 270.666 C 313.167 269.857,313.115 270.519,313.115 272.136 M277.191 275.697 C 277.193 276.889,277.249 277.338,277.316 276.696 C 277.383 276.054,277.382 275.078,277.313 274.529 C 277.245 273.979,277.190 274.505,277.191 275.697 M148.684 276.065 C 148.982 276.143,149.470 276.143,149.768 276.065 C 150.066 275.987,149.822 275.923,149.226 275.923 C 148.630 275.923,148.386 275.987,148.684 276.065 M190.165 278.328 C 190.165 278.924,190.228 279.168,190.306 278.870 C 190.384 278.572,190.384 278.084,190.306 277.786 C 190.228 277.488,190.165 277.732,190.165 278.328 M92.641 290.093 C 92.641 290.689,92.705 290.933,92.783 290.635 C 92.861 290.337,92.861 289.849,92.783 289.551 C 92.705 289.253,92.641 289.497,92.641 290.093 M190.529 295.820 C 190.529 298.715,190.575 299.941,190.633 298.545 C 190.690 297.148,190.690 294.780,190.633 293.281 C 190.576 291.783,190.530 292.926,190.529 295.820 M118.648 292.879 C 118.648 293.475,118.711 293.719,118.789 293.421 C 118.867 293.123,118.867 292.635,118.789 292.337 C 118.711 292.039,118.648 292.283,118.648 292.879 M275.662 300.155 C 275.663 302.368,275.712 303.233,275.772 302.077 C 275.831 300.920,275.831 299.109,275.771 298.052 C 275.710 296.995,275.662 297.941,275.662 300.155 M277.531 307.895 C 277.532 311.641,277.576 313.131,277.631 311.206 C 277.685 309.281,277.685 306.216,277.630 304.395 C 277.576 302.574,277.531 304.149,277.531 307.895 M81.269 306.811 C 81.934 307.492,82.548 308.050,82.633 308.050 C 82.719 308.050,82.244 307.492,81.579 306.811 C 80.914 306.130,80.300 305.573,80.215 305.573 C 80.130 305.573,80.604 306.130,81.269 306.811 M311.445 307.663 L 309.752 309.443 311.533 307.751 C 313.186 306.178,313.455 305.882,313.225 305.882 C 313.176 305.882,312.375 306.683,311.445 307.663 M305.254 313.854 L 303.251 315.944 305.341 313.941 C 306.490 312.839,307.430 311.899,307.430 311.851 C 307.430 311.623,307.115 311.913,305.254 313.854 M89.461 314.938 C 90.744 316.305,91.022 316.551,91.022 316.318 C 91.022 316.269,90.360 315.607,89.551 314.848 L 88.080 313.467 89.461 314.938 M190.171 315.015 C 190.174 315.697,190.238 315.939,190.312 315.554 C 190.386 315.169,190.383 314.611,190.306 314.315 C 190.228 314.019,190.168 314.334,190.171 315.015 M121.124 319.505 C 121.124 320.101,121.188 320.344,121.266 320.046 C 121.344 319.748,121.344 319.261,121.266 318.963 C 121.188 318.665,121.124 318.909,121.124 319.505 M139.425 327.399 C 139.426 328.762,139.481 329.280,139.546 328.552 C 139.611 327.824,139.610 326.709,139.544 326.075 C 139.477 325.441,139.424 326.037,139.425 327.399 M189.260 340.093 C 189.262 341.115,189.320 341.495,189.388 340.939 C 189.457 340.382,189.456 339.546,189.385 339.081 C 189.315 338.616,189.258 339.071,189.260 340.093 " stroke="none" fill="#395c34" fill-rule="evenodd"></path><path id="path4" d="M185.991 42.324 C 186.374 42.398,187.001 42.398,187.384 42.324 C 187.767 42.250,187.454 42.190,186.687 42.190 C 185.921 42.190,185.608 42.250,185.991 42.324 M193.589 42.335 C 194.745 42.395,196.556 42.394,197.613 42.334 C 198.671 42.274,197.724 42.225,195.511 42.226 C 193.297 42.226,192.432 42.275,193.589 42.335 M223.618 63.003 C 223.620 63.854,223.680 64.166,223.752 63.695 C 223.823 63.225,223.821 62.528,223.747 62.147 C 223.674 61.767,223.616 62.152,223.618 63.003 M218.985 69.969 C 218.985 71.076,219.041 71.529,219.109 70.975 C 219.178 70.422,219.178 69.516,219.109 68.963 C 219.041 68.409,218.985 68.862,218.985 69.969 M304.025 84.056 C 304.602 84.652,305.145 85.139,305.230 85.139 C 305.315 85.139,304.912 84.652,304.334 84.056 C 303.757 83.460,303.214 82.972,303.129 82.972 C 303.044 82.972,303.447 83.460,304.025 84.056 M242.198 86.997 C 242.198 87.933,242.256 88.317,242.327 87.848 C 242.398 87.380,242.398 86.614,242.327 86.146 C 242.256 85.677,242.198 86.060,242.198 86.997 M274.425 91.331 C 274.425 93.630,274.473 94.570,274.533 93.421 C 274.593 92.272,274.593 90.391,274.533 89.241 C 274.473 88.092,274.425 89.033,274.425 91.331 M223.923 92.260 C 223.923 93.026,223.984 93.340,224.058 92.957 C 224.131 92.574,224.131 91.947,224.058 91.563 C 223.984 91.180,223.923 91.494,223.923 92.260 M311.455 91.428 C 311.455 91.481,311.908 91.934,312.461 92.434 L 313.467 93.344 312.558 92.337 C 311.711 91.400,311.455 91.189,311.455 91.428 M278.090 95.046 C 278.090 95.642,278.154 95.886,278.232 95.588 C 278.310 95.290,278.310 94.803,278.232 94.505 C 278.154 94.207,278.090 94.450,278.090 95.046 M242.190 97.214 C 242.190 97.980,242.250 98.293,242.324 97.910 C 242.398 97.527,242.398 96.900,242.324 96.517 C 242.250 96.134,242.190 96.447,242.190 97.214 M278.111 108.050 C 278.111 108.986,278.169 109.369,278.240 108.901 C 278.311 108.433,278.311 107.666,278.240 107.198 C 278.169 106.730,278.111 107.113,278.111 108.050 M295.472 116.254 C 295.473 118.127,295.524 118.853,295.585 117.868 C 295.647 116.883,295.646 115.350,295.584 114.462 C 295.522 113.575,295.471 114.381,295.472 116.254 M206.594 118.885 C 206.594 119.822,206.652 120.205,206.723 119.737 C 206.794 119.269,206.794 118.502,206.723 118.034 C 206.652 117.566,206.594 117.949,206.594 118.885 M292.376 123.994 C 292.377 125.867,292.428 126.593,292.489 125.608 C 292.551 124.623,292.550 123.090,292.488 122.202 C 292.426 121.315,292.375 122.121,292.376 123.994 M260.826 143.653 C 260.826 153.274,260.865 157.210,260.913 152.399 C 260.961 147.589,260.961 139.717,260.913 134.907 C 260.865 130.097,260.826 134.033,260.826 143.653 M238.474 135.604 C 238.474 136.370,238.535 136.683,238.609 136.300 C 238.682 135.917,238.682 135.290,238.609 134.907 C 238.535 134.524,238.474 134.837,238.474 135.604 M274.717 150.464 C 274.717 151.741,274.772 152.264,274.839 151.625 C 274.905 150.987,274.905 149.942,274.839 149.303 C 274.772 148.665,274.717 149.187,274.717 150.464 M292.693 176.471 C 292.693 178.940,292.741 179.950,292.800 178.715 C 292.858 177.481,292.858 175.461,292.800 174.226 C 292.741 172.991,292.693 174.002,292.693 176.471 M231.424 174.613 C 232.607 175.805,233.644 176.780,233.730 176.780 C 233.815 176.780,232.917 175.805,231.734 174.613 C 230.551 173.421,229.514 172.446,229.428 172.446 C 229.343 172.446,230.241 173.421,231.424 174.613 M314.025 189.164 C 314.025 190.101,314.083 190.484,314.154 190.015 C 314.225 189.547,314.225 188.781,314.154 188.313 C 314.083 187.844,314.025 188.228,314.025 189.164 M353.954 190.712 C 353.954 191.478,354.015 191.792,354.088 191.409 C 354.162 191.026,354.162 190.399,354.088 190.015 C 354.015 189.632,353.954 189.946,353.954 190.712 M39.700 191.331 C 39.700 191.927,39.764 192.171,39.842 191.873 C 39.920 191.575,39.920 191.087,39.842 190.789 C 39.764 190.491,39.700 190.735,39.700 191.331 M330.768 205.108 C 330.769 207.152,330.819 207.947,330.880 206.876 C 330.940 205.805,330.940 204.134,330.879 203.161 C 330.817 202.189,330.768 203.065,330.768 205.108 M327.034 204.954 C 327.034 206.060,327.090 206.513,327.159 205.960 C 327.228 205.406,327.228 204.501,327.159 203.947 C 327.090 203.394,327.034 203.847,327.034 204.954 M353.948 208.204 C 353.951 208.885,354.015 209.128,354.089 208.743 C 354.163 208.357,354.160 207.800,354.083 207.504 C 354.005 207.208,353.945 207.523,353.948 208.204 M326.738 227.709 C 326.739 229.412,326.791 230.069,326.854 229.169 C 326.917 228.270,326.916 226.876,326.853 226.073 C 326.789 225.270,326.738 226.006,326.738 227.709 M330.440 238.080 C 330.440 239.187,330.496 239.640,330.565 239.087 C 330.633 238.533,330.633 237.628,330.565 237.074 C 330.496 236.521,330.440 236.974,330.440 238.080 M313.099 276.625 C 313.101 277.647,313.159 278.028,313.227 277.471 C 313.296 276.915,313.295 276.079,313.224 275.614 C 313.154 275.148,313.097 275.604,313.099 276.625 M277.511 298.452 C 277.511 300.070,277.563 300.731,277.627 299.923 C 277.691 299.114,277.691 297.790,277.627 296.981 C 277.563 296.173,277.511 296.834,277.511 298.452 M275.641 305.882 C 275.641 306.989,275.697 307.442,275.766 306.889 C 275.834 306.335,275.834 305.430,275.766 304.876 C 275.697 304.323,275.641 304.776,275.641 305.882 M85.294 310.836 C 86.820 312.368,88.137 313.622,88.222 313.622 C 88.308 313.622,87.129 312.368,85.604 310.836 C 84.078 309.303,82.761 308.050,82.675 308.050 C 82.590 308.050,83.769 309.303,85.294 310.836 M308.499 310.604 L 307.276 311.920 308.591 310.696 C 309.815 309.558,310.049 309.288,309.815 309.288 C 309.765 309.288,309.172 309.880,308.499 310.604 M189.236 337.461 C 189.236 338.057,189.300 338.301,189.378 338.003 C 189.455 337.705,189.455 337.217,189.378 336.920 C 189.300 336.622,189.236 336.865,189.236 337.461 M190.956 342.644 C 192.027 342.705,193.699 342.705,194.672 342.643 C 195.644 342.582,194.768 342.532,192.724 342.533 C 190.681 342.534,189.885 342.584,190.956 342.644 " stroke="none" fill="#2e3f2c" fill-rule="evenodd"></path></g></svg>