<?xml version="1.0" encoding="UTF-8"?>
<svg version="1.1" xmlns="http://www.w3.org/2000/svg" width="500" height="500">
<path d="M0 0 C0.56460938 0.49242188 1.12921875 0.98484375 1.7109375 1.4921875 C1.7109375 2.1521875 1.7109375 2.8121875 1.7109375 3.4921875 C2.3709375 3.4921875 3.0309375 3.4921875 3.7109375 3.4921875 C3.7109375 4.1521875 3.7109375 4.8121875 3.7109375 5.4921875 C4.3709375 5.4921875 5.0309375 5.4921875 5.7109375 5.4921875 C10.55930153 13.57279422 11.98764104 19.59971298 11.54492188 28.921875 C11.45030739 31.24243523 11.45030739 31.24243523 11.7109375 34.4921875 C13.1959375 35.4821875 13.1959375 35.4821875 14.7109375 36.4921875 C14.7109375 37.1521875 14.7109375 37.8121875 14.7109375 38.4921875 C15.24460937 38.71648437 15.77828125 38.94078125 16.328125 39.171875 C19.50326915 40.93121717 22.11171014 43.24571472 24.8359375 45.6171875 C25.99912361 46.61560526 27.16319448 47.61299313 28.328125 48.609375 C28.90143555 49.10018555 29.47474609 49.59099609 30.06542969 50.09667969 C34.7027926 54.02949369 39.47634743 57.80457172 44.328125 61.46875 C45.15570313 62.09523438 45.98328125 62.72171875 46.8359375 63.3671875 C47.58101563 63.92148438 48.32609375 64.47578125 49.09375 65.046875 C49.62742187 65.52382812 50.16109375 66.00078125 50.7109375 66.4921875 C50.7109375 67.1521875 50.7109375 67.8121875 50.7109375 68.4921875 C51.2265625 68.7190625 51.7421875 68.9459375 52.2734375 69.1796875 C55.60640755 70.97436368 58.85797421 72.99183765 61.7109375 75.4921875 C61.7109375 76.1521875 61.7109375 76.8121875 61.7109375 77.4921875 C62.3090625 77.7809375 62.9071875 78.0696875 63.5234375 78.3671875 C65.7109375 79.4921875 65.7109375 79.4921875 68.7109375 81.4921875 C68.7109375 82.1521875 68.7109375 82.8121875 68.7109375 83.4921875 C69.29230469 83.75386719 69.87367188 84.01554687 70.47265625 84.28515625 C72.8377009 85.56054682 74.54777299 86.98997325 76.5234375 88.8046875 C79.15270764 91.17251052 81.7873096 93.31211352 84.7109375 95.3046875 C85.7009375 96.0265625 86.6909375 96.7484375 87.7109375 97.4921875 C87.7109375 98.1521875 87.7109375 98.8121875 87.7109375 99.4921875 C88.28328125 99.7603125 88.855625 100.0284375 89.4453125 100.3046875 C91.78978384 101.53351386 93.83498688 102.91740926 95.9609375 104.4921875 C96.66734375 105.0078125 97.37375 105.5234375 98.1015625 106.0546875 C98.63265625 106.5290625 99.16375 107.0034375 99.7109375 107.4921875 C99.7109375 108.1521875 99.7109375 108.8121875 99.7109375 109.4921875 C100.25621094 109.729375 100.80148437 109.9665625 101.36328125 110.2109375 C104.31409183 111.82136324 106.69797967 113.83370856 109.2734375 115.9921875 C112.04005461 118.30458389 114.70970298 120.49136449 117.7109375 122.4921875 C117.7109375 123.1521875 117.7109375 123.8121875 117.7109375 124.4921875 C118.23429688 124.70746094 118.75765625 124.92273438 119.296875 125.14453125 C122.67889381 127.03255146 125.4242546 129.5167139 128.3359375 132.0546875 C132.26914681 135.63792428 132.26914681 135.63792428 136.7109375 138.4921875 C136.7109375 139.1521875 136.7109375 139.8121875 136.7109375 140.4921875 C137.3090625 140.7809375 137.9071875 141.0696875 138.5234375 141.3671875 C140.7109375 142.4921875 140.7109375 142.4921875 143.7109375 144.4921875 C143.7109375 145.1521875 143.7109375 145.8121875 143.7109375 146.4921875 C144.7009375 146.4921875 145.6909375 146.4921875 146.7109375 146.4921875 C146.7109375 145.8321875 146.7109375 145.1721875 146.7109375 144.4921875 C147.3709375 144.4921875 148.0309375 144.4921875 148.7109375 144.4921875 C148.7109375 114.4621875 148.7109375 84.4321875 148.7109375 53.4921875 C145.7409375 52.5021875 145.7409375 52.5021875 142.7109375 51.4921875 C136.19880828 46.61452549 131.50429947 39.41286955 129.7109375 31.4921875 C128.80295656 22.01341681 130.00469768 14.53092611 135.69921875 6.7890625 C141.4701318 -0.02838919 146.862048 -4.05520865 155.7109375 -5.5078125 C165.81584849 -6.303957 173.89715367 -4.6858952 181.859375 1.76953125 C188.81687999 8.24265298 192.62290985 15.92294939 193.0859375 25.4921875 C192.67295824 34.02709221 189.61450714 41.33880088 183.7109375 47.4921875 C176.82632212 53.4921875 176.82632212 53.4921875 173.7109375 53.4921875 C173.7109375 83.5221875 173.7109375 113.5521875 173.7109375 144.4921875 C174.3709375 144.4921875 175.0309375 144.4921875 175.7109375 144.4921875 C175.7109375 145.1521875 175.7109375 145.8121875 175.7109375 146.4921875 C177.3609375 147.1521875 179.0109375 147.8121875 180.7109375 148.4921875 C180.7109375 149.1521875 180.7109375 149.8121875 180.7109375 150.4921875 C181.3709375 150.4921875 182.0309375 150.4921875 182.7109375 150.4921875 C187.60183339 157.80145996 189.44857212 164.26957751 188.40625 173.0625 C186.72568974 180.40631811 182.45876902 185.74849522 176.7109375 190.4921875 C169.39801399 194.56893221 162.05820971 195.77220025 153.953125 193.83203125 C146.09645128 191.35942685 141.52630913 187.56962228 136.8984375 180.8671875 C135.7109375 177.4921875 135.7109375 177.4921875 135.48046875 174.54296875 C134.976759 167.73918512 134.976759 167.73918512 131.59765625 162 C128.72673843 159.66504224 125.77166738 157.57200877 122.7109375 155.4921875 C120.88994365 154.14956506 119.08821076 152.78481893 117.29223633 151.40893555 C116.12787848 150.51746653 114.95594701 149.6357896 113.77612305 148.76489258 C112.38450739 147.72102238 111.0423015 146.61188791 109.7109375 145.4921875 C109.7109375 144.8321875 109.7109375 144.1721875 109.7109375 143.4921875 C109.0509375 143.4921875 108.3909375 143.4921875 107.7109375 143.4921875 C107.7109375 142.8321875 107.7109375 142.1721875 107.7109375 141.4921875 C106.9375 141.151875 106.9375 141.151875 106.1484375 140.8046875 C102.81546745 139.01001132 99.56390079 136.99253735 96.7109375 134.4921875 C96.7109375 133.8321875 96.7109375 133.1721875 96.7109375 132.4921875 C96.0509375 132.4921875 95.3909375 132.4921875 94.7109375 132.4921875 C94.7109375 131.8321875 94.7109375 131.1721875 94.7109375 130.4921875 C93.9065625 130.1209375 93.9065625 130.1209375 93.0859375 129.7421875 C90.1285393 128.18566213 87.41369699 126.45783077 84.7109375 124.4921875 C84.7109375 123.8321875 84.7109375 123.1721875 84.7109375 122.4921875 C84.18113281 122.27175781 83.65132812 122.05132812 83.10546875 121.82421875 C79.85401475 120.01549801 77.18661135 117.61546772 74.3984375 115.1796875 C70.82973213 112.09741904 67.30303467 109.08609377 63.3984375 106.4296875 C62.5115625 105.7903125 61.6246875 105.1509375 60.7109375 104.4921875 C60.7109375 103.8321875 60.7109375 103.1721875 60.7109375 102.4921875 C60.1128125 102.2034375 59.5146875 101.9146875 58.8984375 101.6171875 C56.7109375 100.4921875 56.7109375 100.4921875 53.7109375 98.4921875 C53.7109375 97.8321875 53.7109375 97.1721875 53.7109375 96.4921875 C52.0609375 95.8321875 50.4109375 95.1721875 48.7109375 94.4921875 C49.3709375 96.1421875 50.0309375 97.7921875 50.7109375 99.4921875 C51.3709375 99.4921875 52.0309375 99.4921875 52.7109375 99.4921875 C54.11146839 101.16739148 55.42991462 102.91141842 56.7109375 104.6796875 C57.51474325 105.77798961 58.31946507 106.87562175 59.125 107.97265625 C59.54555664 108.54806152 59.96611328 109.1234668 60.39941406 109.71630859 C62.58459899 112.67517589 64.83554617 115.58278877 67.0859375 118.4921875 C68.62955483 120.49070599 70.17100048 122.49082531 71.7109375 124.4921875 C72.59652344 125.6059375 72.59652344 125.6059375 73.5 126.7421875 C74.7109375 128.4921875 74.7109375 128.4921875 74.7109375 130.4921875 C75.3709375 130.4921875 76.0309375 130.4921875 76.7109375 130.4921875 C78.4375 132.609375 78.4375 132.609375 80.3359375 135.3671875 C80.96757812 136.27210938 81.59921875 137.17703125 82.25 138.109375 C83.7109375 140.4921875 83.7109375 140.4921875 83.7109375 142.4921875 C84.3709375 142.4921875 85.0309375 142.4921875 85.7109375 142.4921875 C89.7109375 147.90395221 89.7109375 147.90395221 89.7109375 150.4921875 C90.3709375 150.4921875 91.0309375 150.4921875 91.7109375 150.4921875 C93.08003816 152.24744476 94.43592691 154.01389469 95.7421875 155.81640625 C98.14156902 159.07747042 100.63969923 162.2524633 103.1484375 165.4296875 C103.8604834 166.33533447 103.8604834 166.33533447 104.58691406 167.25927734 C106.70701469 169.9556665 108.83379692 172.64576178 110.9765625 175.32421875 C111.61078125 176.12214844 112.245 176.92007813 112.8984375 177.7421875 C113.44886719 178.42796875 113.99929688 179.11375 114.56640625 179.8203125 C115.7109375 181.4921875 115.7109375 181.4921875 115.7109375 183.4921875 C116.3709375 183.4921875 117.0309375 183.4921875 117.7109375 183.4921875 C118.94775391 184.83740234 118.94775391 184.83740234 120.3125 186.703125 C120.80234375 187.37085938 121.2921875 188.03859375 121.796875 188.7265625 C122.30476562 189.43296875 122.81265625 190.139375 123.3359375 190.8671875 C124.109375 191.91519531 124.109375 191.91519531 124.8984375 192.984375 C128.7109375 198.22908399 128.7109375 198.22908399 128.7109375 200.4921875 C129.3709375 200.4921875 130.0309375 200.4921875 130.7109375 200.4921875 C130.7109375 201.1521875 130.7109375 201.8121875 130.7109375 202.4921875 C131.25621094 202.275625 131.80148437 202.0590625 132.36328125 201.8359375 C140.52212243 198.8234423 147.44623699 198.43118731 155.7109375 201.4921875 C163.69981205 205.20130783 168.87229227 210.73796003 172.2109375 218.9296875 C174.87781883 227.22792339 173.0197204 234.60810193 169.7109375 242.4921875 C169.0509375 243.4821875 168.3909375 244.4721875 167.7109375 245.4921875 C167.0509375 245.4921875 166.3909375 245.4921875 165.7109375 245.4921875 C165.47375 246.09675781 165.2365625 246.70132813 164.9921875 247.32421875 C163.41273845 249.99676212 161.95074377 250.76975473 159.2109375 252.1796875 C158.01984375 252.80423828 158.01984375 252.80423828 156.8046875 253.44140625 C150.00074362 256.85607212 141.06283551 256.65382694 133.7109375 254.69140625 C126.25530924 251.30142527 120.07443937 245.18890097 116.7109375 237.6796875 C114.81698966 231.62148256 114.94815003 224.55906496 116.46875 218.4453125 C117.00744697 215.41576359 117.00744697 215.41576359 115.15625 212.921875 C114.39054688 212.07882812 113.62484375 211.23578125 112.8359375 210.3671875 C108.57605965 205.49780924 104.64872706 200.49740272 100.796875 195.30078125 C98.47439536 192.17369725 96.09974979 189.08919841 93.70703125 186.015625 C92.7109375 184.4921875 92.7109375 184.4921875 92.7109375 182.4921875 C92.0509375 182.4921875 91.3909375 182.4921875 90.7109375 182.4921875 C89.18962285 180.54502819 87.78714853 178.59416038 86.3984375 176.5546875 C82.33079865 170.71237042 78.11470006 165.00918002 73.7734375 159.3671875 C73.21809326 158.64539307 72.66274902 157.92359863 72.09057617 157.17993164 C71.56439697 156.49664795 71.03821777 155.81336426 70.49609375 155.109375 C70.0077002 154.47354492 69.51930664 153.83771484 69.01611328 153.18261719 C67.96541428 151.8217792 66.90088648 150.47162426 65.83203125 149.125 C64.7109375 147.4921875 64.7109375 147.4921875 64.7109375 145.4921875 C64.0509375 145.4921875 63.3909375 145.4921875 62.7109375 145.4921875 C61.07663999 143.3976907 59.56926516 141.31436659 58.0859375 139.1171875 C57.45558594 138.21226562 57.45558594 138.21226562 56.8125 137.2890625 C53.7109375 132.75755885 53.7109375 132.75755885 53.7109375 130.4921875 C53.0509375 130.4921875 52.3909375 130.4921875 51.7109375 130.4921875 C50.0390625 128.53515625 50.0390625 128.53515625 47.9609375 125.6796875 C47.58114746 125.16212891 47.20135742 124.64457031 46.81005859 124.11132812 C45.94142522 122.92685898 45.07558427 121.74033905 44.21191406 120.55224609 C41.89602179 117.37373292 39.5572171 114.21218706 37.22167969 111.0480957 C34.87545293 107.86805325 32.53432142 104.68427808 30.19384766 101.5 C29.16080972 100.10129997 28.1008682 98.72224161 27.02099609 97.359375 C25.7109375 95.4921875 25.7109375 95.4921875 25.7109375 93.4921875 C25.0509375 93.4921875 24.3909375 93.4921875 23.7109375 93.4921875 C19.7109375 88.08042279 19.7109375 88.08042279 19.7109375 85.4921875 C19.0509375 85.4921875 18.3909375 85.4921875 17.7109375 85.4921875 C16.07663999 83.3976907 14.56926516 81.31436659 13.0859375 79.1171875 C12.66570312 78.51390625 12.24546875 77.910625 11.8125 77.2890625 C8.7109375 72.75755885 8.7109375 72.75755885 8.7109375 70.4921875 C8.0509375 70.4921875 7.3909375 70.4921875 6.7109375 70.4921875 C6.0509375 68.8421875 5.3909375 67.1921875 4.7109375 65.4921875 C4.0509375 65.4921875 3.3909375 65.4921875 2.7109375 65.4921875 C1.0546875 63.375 1.0546875 63.375 -0.7890625 60.6171875 C-3.30602931 56.86343582 -3.30602931 56.86343582 -6.2890625 53.4921875 C-7.2790625 53.9871875 -7.2790625 53.9871875 -8.2890625 54.4921875 C-8.6190625 98.3821875 -8.9490625 142.2721875 -9.2890625 187.4921875 C-7.9690625 187.8221875 -6.6490625 188.1521875 -5.2890625 188.4921875 C-2.5390625 189.9296875 -2.5390625 189.9296875 -0.2890625 191.4921875 C-0.2890625 192.1521875 -0.2890625 192.8121875 -0.2890625 193.4921875 C0.2884375 193.6984375 0.8659375 193.9046875 1.4609375 194.1171875 C5.49711103 196.58373799 7.95050204 201.15880791 9.7109375 205.4921875 C11.48247008 213.10977759 11.17900135 220.08799595 8.7109375 227.4921875 C8.36957823 228.82348865 8.03167794 230.15576898 7.7109375 231.4921875 C7.0509375 231.4921875 6.3909375 231.4921875 5.7109375 231.4921875 C5.63230469 232.06839844 5.55367187 232.64460937 5.47265625 233.23828125 C3.62940367 238.69241837 -2.77944488 242.59222315 -7.5390625 245.4296875 C-16.70474595 248.97097429 -26.74298285 248.53871043 -35.75390625 244.8046875 C-44.05993033 240.5044963 -48.66051803 234.00482816 -52.2890625 225.4921875 C-54.7323229 215.65955417 -53.06732269 206.99981774 -47.98046875 198.23828125 C-46.6640625 196.3046875 -46.6640625 196.3046875 -44.2890625 193.4921875 C-43.6290625 193.4921875 -42.9690625 193.4921875 -42.2890625 193.4921875 C-42.2890625 192.8321875 -42.2890625 192.1721875 -42.2890625 191.4921875 C-36.99494485 187.4921875 -36.99494485 187.4921875 -33.2890625 187.4921875 C-33.2890625 142.9421875 -33.2890625 98.3921875 -33.2890625 52.4921875 C-34.2790625 52.4921875 -35.2690625 52.4921875 -36.2890625 52.4921875 C-36.2890625 51.8321875 -36.2890625 51.1721875 -36.2890625 50.4921875 C-36.9903125 50.3271875 -37.6915625 50.1621875 -38.4140625 49.9921875 C-44.54688498 46.79245403 -48.2559176 39.91264507 -50.2890625 33.4921875 C-51.89329352 24.72487844 -51.59979461 17.09342611 -46.99609375 9.3046875 C-41.45917808 1.46690875 -35.59717104 -3.1162652 -26.2890625 -5.5078125 C-25.63550781 -5.70117188 -24.98195312 -5.89453125 -24.30859375 -6.09375 C-16.04339597 -7.78835535 -6.85460497 -4.51514935 0 0 Z " fill="#27367E" transform="translate(181.2890625,125.5078125)"/>
<path d="M0 0 C7.71806038 6.25747127 11.75070972 13.52603792 13.09375 23.375 C13.48955287 31.554926 10.67949359 39.17951542 5.56640625 45.484375 C2.65148259 48.52264732 -0.56478677 51.1584543 -4.1875 53.3125 C-4.8475 53.3125 -5.5075 53.3125 -6.1875 53.3125 C-6.1875 83.3425 -6.1875 113.3725 -6.1875 144.3125 C-5.5275 144.3125 -4.8675 144.3125 -4.1875 144.3125 C-4.1875 144.9725 -4.1875 145.6325 -4.1875 146.3125 C-2.5375 146.9725 -0.8875 147.6325 0.8125 148.3125 C0.8125 148.9725 0.8125 149.6325 0.8125 150.3125 C1.4725 150.3125 2.1325 150.3125 2.8125 150.3125 C7.70339589 157.62177246 9.55013462 164.08989001 8.5078125 172.8828125 C6.82725224 180.22663061 2.56033152 185.56880772 -3.1875 190.3125 C-10.50042351 194.38924471 -17.84022779 195.59251275 -25.9453125 193.65234375 C-33.80198622 191.17973935 -38.37212837 187.38993478 -43 180.6875 C-44.1875 177.3125 -44.1875 177.3125 -44.41796875 174.36328125 C-44.9216785 167.55949762 -44.9216785 167.55949762 -48.30078125 161.8203125 C-51.17169907 159.48535474 -54.12677012 157.39232127 -57.1875 155.3125 C-59.00849385 153.96987756 -60.81022674 152.60513143 -62.60620117 151.22924805 C-63.77055902 150.33777903 -64.94249049 149.4561021 -66.12231445 148.58520508 C-67.51393011 147.54133488 -68.856136 146.43220041 -70.1875 145.3125 C-70.1875 144.6525 -70.1875 143.9925 -70.1875 143.3125 C-70.8475 143.3125 -71.5075 143.3125 -72.1875 143.3125 C-72.1875 142.6525 -72.1875 141.9925 -72.1875 141.3125 C-72.9609375 140.9721875 -72.9609375 140.9721875 -73.75 140.625 C-77.08297005 138.83032382 -80.33453671 136.81284985 -83.1875 134.3125 C-83.1875 133.6525 -83.1875 132.9925 -83.1875 132.3125 C-83.8475 132.3125 -84.5075 132.3125 -85.1875 132.3125 C-85.1875 131.6525 -85.1875 130.9925 -85.1875 130.3125 C-85.72375 130.065 -86.26 129.8175 -86.8125 129.5625 C-89.7698982 128.00597463 -92.48474051 126.27814327 -95.1875 124.3125 C-95.1875 123.6525 -95.1875 122.9925 -95.1875 122.3125 C-95.71859375 122.08820313 -96.2496875 121.86390625 -96.796875 121.6328125 C-99.9985886 119.86454584 -102.66897104 117.55200919 -105.4375 115.1875 C-106.26894531 114.48560547 -106.26894531 114.48560547 -107.1171875 113.76953125 C-108.47697326 112.62074672 -109.83265165 111.46710347 -111.1875 110.3125 C-109.52083333 110.3125 -107.85416667 110.3125 -106.1875 110.3125 C-106.1875 109.6525 -106.1875 108.9925 -106.1875 108.3125 C-106.8475 107.9825 -107.5075 107.6525 -108.1875 107.3125 C-106.99555531 101.78621099 -105.5883703 99.13430842 -101.1875 95.3125 C-99.8675 95.9725 -98.5475 96.6325 -97.1875 97.3125 C-99.23983685 95.0647025 -100.19417261 94.3102758 -103.1875 93.3125 C-103.1875 92.3225 -103.1875 91.3325 -103.1875 90.3125 C-104.8375 89.9825 -106.4875 89.6525 -108.1875 89.3125 C-107.8575 87.9925 -107.5275 86.6725 -107.1875 85.3125 C-106.69121094 85.75980469 -106.19492188 86.20710938 -105.68359375 86.66796875 C-102.29489167 89.6837207 -98.93659935 92.56426547 -95.1875 95.125 C-93.7025 96.2078125 -93.7025 96.2078125 -92.1875 97.3125 C-92.1875 97.9725 -92.1875 98.6325 -92.1875 99.3125 C-91.61515625 99.580625 -91.0428125 99.84875 -90.453125 100.125 C-88.10865366 101.35382636 -86.06345062 102.73772176 -83.9375 104.3125 C-83.23109375 104.828125 -82.5246875 105.34375 -81.796875 105.875 C-81.26578125 106.349375 -80.7346875 106.82375 -80.1875 107.3125 C-80.1875 107.9725 -80.1875 108.6325 -80.1875 109.3125 C-79.64222656 109.5496875 -79.09695313 109.786875 -78.53515625 110.03125 C-75.58434567 111.64167574 -73.20045783 113.65402106 -70.625 115.8125 C-67.85838289 118.12489639 -65.18873452 120.31167699 -62.1875 122.3125 C-62.1875 122.9725 -62.1875 123.6325 -62.1875 124.3125 C-61.40246094 124.63541016 -61.40246094 124.63541016 -60.6015625 124.96484375 C-57.21954369 126.85286396 -54.4741829 129.3370264 -51.5625 131.875 C-47.62929069 135.45823678 -47.62929069 135.45823678 -43.1875 138.3125 C-43.1875 138.9725 -43.1875 139.6325 -43.1875 140.3125 C-42.2903125 140.745625 -42.2903125 140.745625 -41.375 141.1875 C-39.1875 142.3125 -39.1875 142.3125 -36.1875 144.3125 C-36.1875 144.9725 -36.1875 145.6325 -36.1875 146.3125 C-35.1975 146.3125 -34.2075 146.3125 -33.1875 146.3125 C-33.1875 145.6525 -33.1875 144.9925 -33.1875 144.3125 C-32.5275 144.3125 -31.8675 144.3125 -31.1875 144.3125 C-31.1875 114.2825 -31.1875 84.2525 -31.1875 53.3125 C-33.1675 52.6525 -35.1475 51.9925 -37.1875 51.3125 C-43.69962922 46.43483799 -48.39413803 39.23318205 -50.1875 31.3125 C-51.09548094 21.83372931 -49.89373982 14.35123861 -44.19921875 6.609375 C-32.81504982 -6.83928053 -14.98864971 -10.41824705 0 0 Z " fill="#127CDE" transform="translate(361.1875,125.6875)"/>
<path d="M0 0 C0.33 0.66 0.66 1.32 1 2 C1.66 2 2.32 2 3 2 C4.40053089 3.67520398 5.71897712 5.41923092 7 7.1875 C7.80380575 8.28580211 8.60852757 9.38343425 9.4140625 10.48046875 C9.83461914 11.05587402 10.25517578 11.6312793 10.68847656 12.22412109 C12.87366149 15.18298839 15.12460867 18.09060127 17.375 21 C18.91861733 22.99851849 20.46006298 24.99863781 22 27 C22.59039062 27.7425 23.18078125 28.485 23.7890625 29.25 C25 31 25 31 25 33 C25.66 33 26.32 33 27 33 C28.7265625 35.1171875 28.7265625 35.1171875 30.625 37.875 C31.25664062 38.77992188 31.88828125 39.68484375 32.5390625 40.6171875 C34 43 34 43 34 45 C34.66 45 35.32 45 36 45 C40 50.41176471 40 50.41176471 40 53 C40.66 53 41.32 53 42 53 C43.36910066 54.75525726 44.72498941 56.52170719 46.03125 58.32421875 C48.43063152 61.58528292 50.92876173 64.7602758 53.4375 67.9375 C53.91219727 68.54126465 54.38689453 69.1450293 54.87597656 69.76708984 C56.99607719 72.463479 59.12285942 75.15357428 61.265625 77.83203125 C61.89984375 78.62996094 62.5340625 79.42789063 63.1875 80.25 C63.73792969 80.93578125 64.28835938 81.6215625 64.85546875 82.328125 C66 84 66 84 66 86 C66.66 86 67.32 86 68 86 C69.23681641 87.34521484 69.23681641 87.34521484 70.6015625 89.2109375 C71.09140625 89.87867188 71.58125 90.54640625 72.0859375 91.234375 C72.59382813 91.94078125 73.10171875 92.6471875 73.625 93.375 C74.3984375 94.42300781 74.3984375 94.42300781 75.1875 95.4921875 C79 100.73689649 79 100.73689649 79 103 C79.66 103 80.32 103 81 103 C81 103.66 81 104.32 81 105 C81.54527344 104.7834375 82.09054687 104.566875 82.65234375 104.34375 C90.81118493 101.3312548 97.73529949 100.93899981 106 104 C113.98887455 107.70912033 119.16135477 113.24577253 122.5 121.4375 C125.16688133 129.73573589 123.3087829 137.11591443 120 145 C119.34 145.99 118.68 146.98 118 148 C117.34 148 116.68 148 116 148 C115.7628125 148.60457031 115.525625 149.20914063 115.28125 149.83203125 C113.70180095 152.50457462 112.23980627 153.27756723 109.5 154.6875 C108.7059375 155.10386719 107.911875 155.52023437 107.09375 155.94921875 C100.28980612 159.36388462 91.35189801 159.16163944 84 157.19921875 C76.54437174 153.80923777 70.36350187 147.69671347 67 140.1875 C65.10605216 134.12929506 65.23721253 127.06687746 66.7578125 120.953125 C67.29650947 117.92357609 67.29650947 117.92357609 65.4453125 115.4296875 C64.67960937 114.58664062 63.91390625 113.74359375 63.125 112.875 C58.86512215 108.00562174 54.93778956 103.00521522 51.0859375 97.80859375 C48.76345786 94.68150975 46.38881229 91.59701091 43.99609375 88.5234375 C43 87 43 87 43 85 C42.34 85 41.68 85 41 85 C39.47868535 83.05284069 38.07621103 81.10197288 36.6875 79.0625 C32.61986115 73.22018292 28.40376256 67.51699252 24.0625 61.875 C23.50715576 61.15320557 22.95181152 60.43141113 22.37963867 59.68774414 C21.85345947 59.00446045 21.32728027 58.32117676 20.78515625 57.6171875 C20.2967627 56.98135742 19.80836914 56.34552734 19.30517578 55.69042969 C18.25447678 54.3295917 17.18994898 52.97943676 16.12109375 51.6328125 C15 50 15 50 15 48 C14.34 48 13.68 48 13 48 C11.36570249 45.9055032 9.85832766 43.82217909 8.375 41.625 C7.95476562 41.02171875 7.53453125 40.4184375 7.1015625 39.796875 C4 35.26537135 4 35.26537135 4 33 C3.34 33 2.68 33 2 33 C0.41179934 31.11549324 -1.05282461 29.23813233 -2.5 27.25 C-2.90347656 26.71117187 -3.30695313 26.17234375 -3.72265625 25.6171875 C-5.76621329 22.85197831 -7.59599048 20.14376045 -9 17 C-7.0625 17.375 -7.0625 17.375 -5 18 C-4.67 18.66 -4.34 19.32 -4 20 C-1.47266765 20.65555119 -1.47266765 20.65555119 1 21 C1.103125 21.598125 1.20625 22.19625 1.3125 22.8125 C2.08876455 25.28243264 3.07088921 26.32251235 5 28 C5 27.01 5 26.02 5 25 C7.97 24.67 10.94 24.34 14 24 C13.67 23.34 13.34 22.68 13 22 C12.01 22 11.02 22 10 22 C10.33 21.34 10.66 20.68 11 20 C10.34 19.67 9.68 19.34 9 19 C9.33 18.67 9.66 18.34 10 18 C7.69 17.67 5.38 17.34 3 17 C2.22597091 13.24142629 1.56160508 9.47373749 0.9375 5.6875 C0.76089844 4.61886719 0.58429688 3.55023438 0.40234375 2.44921875 C0.26957031 1.64097656 0.13679687 0.83273438 0 0 Z " fill="#06C6DF" transform="translate(231,223)"/>
<path d="M0 0 C0.33 0 0.66 0 1 0 C1 30.03 1 60.06 1 91 C1.66 91 2.32 91 3 91 C3.33 90.34 3.66 89.68 4 89 C6.984375 88.48046875 6.984375 88.48046875 10.75 88.1875 C12.59851563 88.02314453 12.59851563 88.02314453 14.484375 87.85546875 C18 88 18 88 23 91 C23.33 60.97 23.66 30.94 24 0 C24.33 0 24.66 0 25 0 C25 30.03 25 60.06 25 91 C25.66 91 26.32 91 27 91 C27 91.66 27 92.32 27 93 C28.65 93.66 30.3 94.32 32 95 C32 95.66 32 96.32 32 97 C32.66 97 33.32 97 34 97 C38.89089589 104.30927246 40.73763462 110.77739001 39.6953125 119.5703125 C38.01475224 126.91413061 33.74783152 132.25630772 28 137 C20.68707649 141.07674471 13.34727221 142.28001275 5.2421875 140.33984375 C-2.61448622 137.86723935 -7.18462837 134.07743478 -11.8125 127.375 C-13 124 -13 124 -13.23046875 121.05078125 C-13.7341785 114.24699762 -13.7341785 114.24699762 -17.11328125 108.5078125 C-19.98419907 106.17285474 -22.93927012 104.07982127 -26 102 C-27.82099385 100.65737756 -29.62272674 99.29263143 -31.41870117 97.91674805 C-32.58305902 97.02527903 -33.75499049 96.1436021 -34.93481445 95.27270508 C-36.32643011 94.22883488 -37.668636 93.11970041 -39 92 C-39 91.34 -39 90.68 -39 90 C-39.66 90 -40.32 90 -41 90 C-41 89.34 -41 88.68 -41 88 C-41.515625 87.773125 -42.03125 87.54625 -42.5625 87.3125 C-45.89547005 85.51782382 -49.14703671 83.50034985 -52 81 C-52 80.34 -52 79.68 -52 79 C-52.66 79 -53.32 79 -54 79 C-54 78.34 -54 77.68 -54 77 C-54.53625 76.7525 -55.0725 76.505 -55.625 76.25 C-58.5823982 74.69347463 -61.29724051 72.96564327 -64 71 C-64 70.34 -64 69.68 -64 69 C-64.53109375 68.77570313 -65.0621875 68.55140625 -65.609375 68.3203125 C-68.8110886 66.55204584 -71.48147104 64.23950919 -74.25 61.875 C-74.80429688 61.40707031 -75.35859375 60.93914062 -75.9296875 60.45703125 C-77.28947326 59.30824672 -78.64515165 58.15460347 -80 57 C-78.33333333 57 -76.66666667 57 -75 57 C-75 56.34 -75 55.68 -75 55 C-75.66 54.67 -76.32 54.34 -77 54 C-75.80805531 48.47371099 -74.4008703 45.82180842 -70 42 C-68.68 42.66 -67.36 43.32 -66 44 C-68.05233685 41.7522025 -69.00667261 40.9977758 -72 40 C-72 39.01 -72 38.02 -72 37 C-73.65 36.67 -75.3 36.34 -77 36 C-76.67 34.68 -76.34 33.36 -76 32 C-75.25556641 32.67095703 -75.25556641 32.67095703 -74.49609375 33.35546875 C-71.10739167 36.3712207 -67.74909935 39.25176547 -64 41.8125 C-63.01 42.534375 -62.02 43.25625 -61 44 C-61 44.66 -61 45.32 -61 46 C-60.42765625 46.268125 -59.8553125 46.53625 -59.265625 46.8125 C-56.92115366 48.04132636 -54.87595062 49.42522176 -52.75 51 C-52.04359375 51.515625 -51.3371875 52.03125 -50.609375 52.5625 C-50.07828125 53.036875 -49.5471875 53.51125 -49 54 C-49 54.66 -49 55.32 -49 56 C-48.45472656 56.2371875 -47.90945313 56.474375 -47.34765625 56.71875 C-44.39684567 58.32917574 -42.01295783 60.34152106 -39.4375 62.5 C-36.67088289 64.81239639 -34.00123452 66.99917699 -31 69 C-31 69.66 -31 70.32 -31 71 C-30.21496094 71.32291016 -30.21496094 71.32291016 -29.4140625 71.65234375 C-26.03204369 73.54036396 -23.2866829 76.0245264 -20.375 78.5625 C-16.44179069 82.14573678 -16.44179069 82.14573678 -12 85 C-12 85.66 -12 86.32 -12 87 C-11.401875 87.28875 -10.80375 87.5775 -10.1875 87.875 C-8 89 -8 89 -5 91 C-5 91.66 -5 92.32 -5 93 C-4.01 93 -3.02 93 -2 93 C-2 92.34 -2 91.68 -2 91 C-1.34 91 -0.68 91 0 91 C0 60.97 0 30.94 0 0 Z " fill="#14A7DE" transform="translate(330,179)"/>
<path d="M0 0 C0.33 0.66 0.66 1.32 1 2 C1.66 2 2.32 2 3 2 C4.40053089 3.67520398 5.71897712 5.41923092 7 7.1875 C7.80380575 8.28580211 8.60852757 9.38343425 9.4140625 10.48046875 C9.83461914 11.05587402 10.25517578 11.6312793 10.68847656 12.22412109 C12.87366149 15.18298839 15.12460867 18.09060127 17.375 21 C18.91861733 22.99851849 20.46006298 24.99863781 22 27 C22.59039062 27.7425 23.18078125 28.485 23.7890625 29.25 C25 31 25 31 25 33 C25.66 33 26.32 33 27 33 C28.7265625 35.1171875 28.7265625 35.1171875 30.625 37.875 C31.25664062 38.77992188 31.88828125 39.68484375 32.5390625 40.6171875 C34 43 34 43 34 45 C34.66 45 35.32 45 36 45 C40 50.41176471 40 50.41176471 40 53 C40.66 53 41.32 53 42 53 C43.3671875 54.57421875 43.3671875 54.57421875 44.875 56.6875 C46.6063768 59.09031316 48.31989463 61.3732104 50.25 63.625 C52.22953115 66.31150656 53.1074757 68.80178791 54 72 C51.525 72.495 51.525 72.495 49 73 C49 73.66 49 74.32 49 75 C48.401875 75.268125 47.80375 75.53625 47.1875 75.8125 C45.02775192 76.98493467 43.64209744 78.19369282 42 80 C36.19085267 79.01854588 34.08424725 76.03881143 30.83789062 71.50976562 C30.25201172 70.66091797 29.66613281 69.81207031 29.0625 68.9375 C27.8879467 67.27907756 26.71216737 65.62152274 25.53515625 63.96484375 C24.96039551 63.14612793 24.38563477 62.32741211 23.79345703 61.48388672 C21.40098855 58.17038627 18.85705213 54.98833858 16.28295898 51.81469727 C15 50 15 50 15 48 C14.34 48 13.68 48 13 48 C11.36570249 45.9055032 9.85832766 43.82217909 8.375 41.625 C7.95476562 41.02171875 7.53453125 40.4184375 7.1015625 39.796875 C4 35.26537135 4 35.26537135 4 33 C3.34 33 2.68 33 2 33 C0.41179934 31.11549324 -1.05282461 29.23813233 -2.5 27.25 C-2.90347656 26.71117187 -3.30695313 26.17234375 -3.72265625 25.6171875 C-5.76621329 22.85197831 -7.59599048 20.14376045 -9 17 C-7.0625 17.375 -7.0625 17.375 -5 18 C-4.67 18.66 -4.34 19.32 -4 20 C-1.47266765 20.65555119 -1.47266765 20.65555119 1 21 C1.103125 21.598125 1.20625 22.19625 1.3125 22.8125 C2.08876455 25.28243264 3.07088921 26.32251235 5 28 C5 27.01 5 26.02 5 25 C7.97 24.67 10.94 24.34 14 24 C13.67 23.34 13.34 22.68 13 22 C12.01 22 11.02 22 10 22 C10.33 21.34 10.66 20.68 11 20 C10.34 19.67 9.68 19.34 9 19 C9.33 18.67 9.66 18.34 10 18 C7.69 17.67 5.38 17.34 3 17 C2.22597091 13.24142629 1.56160508 9.47373749 0.9375 5.6875 C0.76089844 4.61886719 0.58429688 3.55023438 0.40234375 2.44921875 C0.26957031 1.64097656 0.13679687 0.83273438 0 0 Z " fill="#2278CE" transform="translate(231,223)"/>
<path d="M0 0 C1.9375 0.375 1.9375 0.375 4 1 C4.33 1.66 4.66 2.32 5 3 C7.52733235 3.65555119 7.52733235 3.65555119 10 4 C10.103125 4.598125 10.20625 5.19625 10.3125 5.8125 C11.08876455 8.28243264 12.07088921 9.32251235 14 11 C14 10.01 14 9.02 14 8 C15.32 8.33 16.64 8.66 18 9 C18 12.63 18 16.26 18 20 C18.66 20 19.32 20 20 20 C20.33 19.34 20.66 18.68 21 18 C21.45572917 20.01822917 21.91145833 22.03645833 22.3671875 24.0546875 C22.90474428 26.20719964 22.90474428 26.20719964 25 28 C24.34 28 23.68 28 23 28 C23.33 28.99 23.66 29.98 24 31 C23.34 31 22.68 31 22 31 C20.36570249 28.9055032 18.85832766 26.82217909 17.375 24.625 C16.95476562 24.02171875 16.53453125 23.4184375 16.1015625 22.796875 C13 18.26537135 13 18.26537135 13 16 C12.34 16 11.68 16 11 16 C9.41179934 14.11549324 7.94717539 12.23813233 6.5 10.25 C6.09652344 9.71117187 5.69304687 9.17234375 5.27734375 8.6171875 C3.23378671 5.85197831 1.40400952 3.14376045 0 0 Z " fill="#3462B6" transform="translate(222,240)"/>
<path d="M0 0 C0.66 0.33 1.32 0.66 2 1 C1.67 44.89 1.34 88.78 1 134 C2.32 134.33 3.64 134.66 5 135 C6.7074998 136.28062485 8.38263741 137.6072711 10 139 C8 140 8 140 5.9375 139.75 C4.9784375 139.37875 4.9784375 139.37875 4 139 C3.67 138.01 3.34 137.02 3 136 C1.68 135.34 0.36 134.68 -1 134 C-0.67 89.78 -0.34 45.56 0 0 Z " fill="#445189" transform="translate(171,179)"/>
<path d="M0 0 C3.63186394 2.04412873 6.62354904 4.30554088 9.6875 7.125 C12.62192394 9.88572044 12.62192394 9.88572044 16 12 C16 12.66 16 13.32 16 14 C16.57234375 14.268125 17.1446875 14.53625 17.734375 14.8125 C20.07884634 16.04132636 22.12404938 17.42522176 24.25 19 C24.95640625 19.515625 25.6628125 20.03125 26.390625 20.5625 C26.92171875 21.036875 27.4528125 21.51125 28 22 C28 22.66 28 23.32 28 24 C28.61875 24.226875 29.2375 24.45375 29.875 24.6875 C32.61410209 26.37929835 33.05024472 27.99244161 34 31 C33.01 31 32.02 31 31 31 C31 30.34 31 29.68 31 29 C30.01 29.33 29.02 29.66 28 30 C27.75121094 29.41734375 27.50242187 28.8346875 27.24609375 28.234375 C25.82428441 25.68492378 24.25850689 24.16383841 22.0625 22.25 C21.37285156 21.63640625 20.68320312 21.0228125 19.97265625 20.390625 C17.99359462 18.71191263 17.99359462 18.71191263 15 19 C15 19.66 15 20.32 15 21 C14.01 21 13.02 21 12 21 C12.04125 19.906875 12.0825 18.81375 12.125 17.6875 C12.32074666 13.91107771 12.32074666 13.91107771 10 11 C9.13375 10.505 8.2675 10.01 7.375 9.5 C6.59125 9.005 5.8075 8.51 5 8 C5 7.01 5 6.02 5 5 C3.35 4.67 1.7 4.34 0 4 C0 2.68 0 1.36 0 0 Z M21 24 C21.99 24.495 21.99 24.495 23 25 C22.01 25.495 22.01 25.495 21 26 C21 25.34 21 24.68 21 24 Z " fill="#407ECB" transform="translate(253,211)"/>
<path d="M0 0 C3.59634744 3.49359465 6.83451967 7.11098131 10 11 C9.67 11.66 9.34 12.32 9 13 C7.02 11.35 5.04 9.7 3 8 C2.67 8.66 2.34 9.32 2 10 C1.67 9.01 1.34 8.02 1 7 C0.34 7 -0.32 7 -1 7 C-1.0825 7.94875 -1.165 8.8975 -1.25 9.875 C-2 13 -2 13 -4.0625 14.375 C-4.701875 14.58125 -5.34125 14.7875 -6 15 C-6 15.66 -6 16.32 -6 17 C-5.34 17.66 -4.68 18.32 -4 19 C-4.33 19.99 -4.66 20.98 -5 22 C-4.01 21.67 -3.02 21.34 -2 21 C-2 21.99 -2 22.98 -2 24 C-1.34 24 -0.68 24 0 24 C-0.66 25.32 -1.32 26.64 -2 28 C-3.17249353 26.54634731 -4.33783816 25.08692581 -5.5 23.625 C-6.1496875 22.81289063 -6.799375 22.00078125 -7.46875 21.1640625 C-9 19 -9 19 -9 17 C-9.66 17 -10.32 17 -11 17 C-11.99 15.02 -12.98 13.04 -14 11 C-13.236875 11.0825 -12.47375 11.165 -11.6875 11.25 C-10.800625 11.1675 -9.91375 11.085 -9 11 C-7.36323743 9.0399719 -7.36323743 9.0399719 -6 7 C-5.01 7 -4.02 7 -3 7 C-3 6.34 -3 5.68 -3 5 C-1.68 4.34 -0.36 3.68 1 3 C0.67 2.01 0.34 1.02 0 0 Z " fill="#2EA5DC" transform="translate(283,291)"/>
<path d="M0 0 C2.3046875 -0.24609375 2.3046875 -0.24609375 5 0 C6.6953125 1.71484375 6.6953125 1.71484375 8.125 3.9375 C10.28425208 7.39098811 10.28425208 7.39098811 14 9 C14 9.66 14 10.32 14 11 C14.99 11.33 15.98 11.66 17 12 C17 12.66 17 13.32 17 14 C17.99 13.67 18.98 13.34 20 13 C22 15 22 15 22 17 C23.9600281 18.63676257 23.9600281 18.63676257 26 20 C27.32 19.34 28.64 18.68 30 18 C29.979375 18.928125 29.95875 19.85625 29.9375 20.8125 C29.84230396 24.02286011 29.84230396 24.02286011 31 27 C28.50638429 25.79618552 26.31856917 24.54571278 24 23 C24 22.34 24 21.68 24 21 C23.34 21 22.68 21 22 21 C22 20.34 22 19.68 22 19 C21.484375 18.773125 20.96875 18.54625 20.4375 18.3125 C17.10452995 16.51782382 13.85296329 14.50034985 11 12 C11 11.34 11 10.68 11 10 C10.34 10 9.68 10 9 10 C9 9.34 9 8.68 9 8 C8.443125 7.773125 7.88625 7.54625 7.3125 7.3125 C4.35437642 5.633565 2.29781283 3.48929723 0 1 C0 0.67 0 0.34 0 0 Z " fill="#48A1D7" transform="translate(267,248)"/>
<path d="M0 0 C2.67460177 1.9895539 5.33798085 3.99365059 8 6 C9.25490234 6.93392578 9.25490234 6.93392578 10.53515625 7.88671875 C11.34855469 8.50160156 12.16195312 9.11648437 13 9.75 C13.763125 10.32234375 14.52625 10.8946875 15.3125 11.484375 C15.869375 11.98453125 16.42625 12.4846875 17 13 C17 13.66 17 14.32 17 15 C17.99 15.33 18.98 15.66 20 16 C19.34 16.99 18.68 17.98 18 19 C15.0625 18.25 15.0625 18.25 12 17 C11.125 14.875 11.125 14.875 11 13 C10.34 13 9.68 13 9 13 C8.67 12.34 8.34 11.68 8 11 C7.34 11.66 6.68 12.32 6 13 C3.375 12.625 3.375 12.625 1 12 C1.3403125 10.3603125 1.3403125 10.3603125 1.6875 8.6875 C2.40146383 5.09468727 2.40146383 5.09468727 0.5625 3.0625 C0.046875 2.711875 -0.46875 2.36125 -1 2 C-0.67 1.34 -0.34 0.68 0 0 Z " fill="#2A4395" transform="translate(215,179)"/>
<path d="M0 0 C3.76767383 3.38667311 5.04292032 7.08944501 6 12 C6.24131276 21.69272914 3.28534417 27.86528499 -3 35 C-4.15941038 31.52176885 -3.70820884 29.54104422 -3 26 C-2.34 26 -1.68 26 -1 26 C-0.690625 25.360625 -0.38125 24.72125 -0.0625 24.0625 C1 22 1 22 2 21 C2.23481693 18.81707226 2.41363323 16.62796826 2.5625 14.4375 C2.64628906 13.23996094 2.73007812 12.04242188 2.81640625 10.80859375 C2.87699219 9.88175781 2.93757813 8.95492188 3 8 C2.34 8 1.68 8 1 8 C0.67 5.36 0.34 2.72 0 0 Z " fill="#49D0DC" transform="translate(364,278)"/>
<path d="M0 0 C0.33 0.66 0.66 1.32 1 2 C1.99 2 2.98 2 4 2 C4 1.34 4 0.68 4 0 C4.99 0.33 5.98 0.66 7 1 C3.88053984 5.67919024 -0.71708294 6.55792544 -6 8 C-13.27387632 9.22647998 -19.34223872 6.78754865 -26 4 C-26 3.67 -26 3.34 -26 3 C-23.03 3 -20.06 3 -17 3 C-17 3.66 -17 4.32 -17 5 C-11.72 5 -6.44 5 -1 5 C-0.67 3.35 -0.34 1.7 0 0 Z " fill="#47C6DC" transform="translate(353,312)"/>
<path d="M0 0 C1.33333333 0.66666667 2.66666667 1.33333333 4 2 C5.0828125 2.495 5.0828125 2.495 6.1875 3 C8 4 8 4 9 6 C9.763125 5.649375 10.52625 5.29875 11.3125 4.9375 C14 4 14 4 17 5 C17 6.98 17 8.96 17 11 C15.68 11.33 14.36 11.66 13 12 C13 11.34 13 10.68 13 10 C10.525 9.01 10.525 9.01 8 8 C8.33 8.99 8.66 9.98 9 11 C7.68 11.33 6.36 11.66 5 12 C3.23537317 8.91190305 3 7.76687864 3 4 C2.01 3.67 1.02 3.34 0 3 C0 2.01 0 1.02 0 0 Z " fill="#4B68B0" transform="translate(222,212)"/>
<path d="M0 0 C0.66 0.99 1.32 1.98 2 3 C2.99 3.33 3.98 3.66 5 4 C6.02104551 4.97850195 7.0206121 5.97980427 8 7 C8.99 7.66 9.98 8.32 11 9 C11.8125 11.5 11.8125 11.5 12 14 C11.34 14.66 10.68 15.32 10 16 C7.375 15.625 7.375 15.625 5 15 C5 12.69 5 10.38 5 8 C2.50935112 7.31292445 0.62113708 7 -2 7 C-2.66 6.67 -3.32 6.34 -4 6 C-3.34 4.68 -2.68 3.36 -2 2 C-1.34 2 -0.68 2 0 2 C0 1.34 0 0.68 0 0 Z " fill="#079FDB" transform="translate(284,296)"/>
<path d="M0 0 C0.33 0.66 0.66 1.32 1 2 C1.66 2 2.32 2 3 2 C6.49375674 5.82604339 9.43885552 10.0327221 11 15 C11.33 15.99 11.66 16.98 12 18 C9.03 17.67 6.06 17.34 3 17 C2.22597091 13.24142629 1.56160508 9.47373749 0.9375 5.6875 C0.76089844 4.61886719 0.58429688 3.55023438 0.40234375 2.44921875 C0.26957031 1.64097656 0.13679687 0.83273438 0 0 Z " fill="#3157AD" transform="translate(231,223)"/>
<path d="M0 0 C3.33333333 0 6.66666667 0 10 0 C11.125 3.75 11.125 3.75 10 6 C10.66 6 11.32 6 12 6 C12 6.66 12 7.32 12 8 C12.78375 7.979375 13.5675 7.95875 14.375 7.9375 C17 8 17 8 19 9 C18.67 10.32 18.34 11.64 18 13 C12.99971686 11.65846062 8.80932497 9.51629997 5 6 C5 5.34 5 4.68 5 4 C4.360625 3.71125 3.72125 3.4225 3.0625 3.125 C1 2 1 2 0 0 Z " fill="#5076BB" transform="translate(237,224)"/>
<path d="M0 0 C2 3 2 3 2 5 C1.34 5 0.68 5 0 5 C0.2302825 7.52401744 0.48354207 10.04225203 0.75 12.5625 C0.811875 13.26697266 0.87375 13.97144531 0.9375 14.69726562 C1.65240568 21.16120446 3.89687382 26.66234275 9 31 C8.505 32.485 8.505 32.485 8 34 C1.20495834 27.00017626 -2.09324904 21.74129323 -2.3125 11.875 C-2.20920021 7.57990327 -1.76668028 3.97503063 0 0 Z " fill="#4DC8DE" transform="translate(299,341)"/>
<path d="M0 0 C2.81813517 4.22720276 1.94316269 7.16248816 1 12 C-0.19323869 16.41220819 -1.45498427 20.18247641 -4 24 C-4.66 24 -5.32 24 -6 24 C-6.33 24.66 -6.66 25.32 -7 26 C-6.67 23.69 -6.34 21.38 -6 19 C-6.99 18.67 -7.98 18.34 -9 18 C-7.50260417 16.79557292 -6.00520833 15.59114583 -4.5078125 14.38671875 C-1.2957191 11.4325914 -0.70035852 8.98793434 -0.375 4.8125 C-0.30023438 3.91144531 -0.22546875 3.01039063 -0.1484375 2.08203125 C-0.09945313 1.39496094 -0.05046875 0.70789063 0 0 Z " fill="#21DAD8" transform="translate(353,347)"/>
<path d="M0 0 C2.875 0.25 2.875 0.25 6 1 C7.375 3.0625 7.375 3.0625 8 5 C8.99 4.67 9.98 4.34 11 4 C11.144375 5.216875 11.28875 6.43375 11.4375 7.6875 C11.82780953 10.82670377 12.32351856 13.9075134 13 17 C12.34 16.67 11.68 16.34 11 16 C11 15.34 11 14.68 11 14 C10.34 14 9.68 14 9 14 C5 8.58823529 5 8.58823529 5 6 C4.34 6 3.68 6 3 6 C0 2.53846154 0 2.53846154 0 0 Z " fill="#3F539C" transform="translate(196,205)"/>
<path d="M0 0 C1 3 1 3 1 6 C1.66 6 2.32 6 3 6 C3 7.98 3 9.96 3 12 C2.01 12 1.02 12 0 12 C-0.33 12.66 -0.66 13.32 -1 14 C-2.90454106 11.78229615 -4.63002859 9.58951458 -6 7 C-5.5625 4.1875 -5.5625 4.1875 -4 2 C-1.875 0.6875 -1.875 0.6875 0 0 Z " fill="#2590DC" transform="translate(269,288)"/>
<path d="M0 0 C1.38565995 3.84905542 0.66200147 7.02799121 0 11 C-0.72187269 15.52029804 -1.26152102 19.51459194 0 24 C-1.32 24.33 -2.64 24.66 -4 25 C-5.31707317 15.76461948 -5.31079062 7.96618593 0 0 Z " fill="#3E3F65" transform="translate(135,134)"/>
<path d="M0 0 C-0.33 0.66 -0.66 1.32 -1 2 C-3.5625 2.625 -3.5625 2.625 -6 3 C-5.01 4.485 -5.01 4.485 -4 6 C-5.25 7.5 -5.25 7.5 -7 9 C-8.32 9 -9.64 9 -11 9 C-12 8 -12 8 -14 5 C-14.61875 5.185625 -15.2375 5.37125 -15.875 5.5625 C-18 6 -18 6 -20 5 C-14.05880389 0.78366728 -7.18586686 -0.36850599 0 0 Z " fill="#43497B" transform="translate(165,119)"/>
<path d="M0 0 C2.475 0.495 2.475 0.495 5 1 C5 1.66 5 2.32 5 3 C5.66 3 6.32 3 7 3 C7.33 2.34 7.66 1.68 8 1 C8.45572917 3.01822917 8.91145833 5.03645833 9.3671875 7.0546875 C9.90474428 9.20719964 9.90474428 9.20719964 12 11 C11.34 11 10.68 11 10 11 C10.33 11.99 10.66 12.98 11 14 C10.34 14 9.68 14 9 14 C7.36951402 11.88389996 5.85923862 9.77726231 4.375 7.5625 C3.95476562 6.95083984 3.53453125 6.33917969 3.1015625 5.70898438 C0 1.1523057 0 1.1523057 0 0 Z " fill="#5C82C0" transform="translate(235,257)"/>
<path d="M0 0 C4.43456652 3.83832228 5.49941703 9.4425237 6.29296875 15.08203125 C6.53275153 20.68838095 4.80808938 25.74793084 3 31 C2.67 31 2.34 31 2 31 C2.165 29.906875 2.33 28.81375 2.5 27.6875 C3.67381498 17.86543055 2.7859401 9.5020457 0 0 Z " fill="#72ABDC" transform="translate(368,134)"/>
<path d="M0 0 C2.5 1.375 2.5 1.375 5 3 C5 3.66 5 4.32 5 5 C5.598125 5.28875 6.19625 5.5775 6.8125 5.875 C9 7 9 7 12 9 C12 9.66 12 10.32 12 11 C12.99 11.33 13.98 11.66 15 12 C12.13822943 13.43088528 10.06624227 12.59991697 7 12 C7 11.01 7 10.02 7 9 C6.01 9.33 5.02 9.66 4 10 C3.71125 9.195625 3.4225 8.39125 3.125 7.5625 C2.26737432 4.8673532 2.26737432 4.8673532 0 4 C0 2.68 0 1.36 0 0 Z " fill="#4F6AAE" transform="translate(238,198)"/>
<path d="M0 0 C2.46473348 3.69710022 2.18735487 6.42931736 2.0625 10.6875 C1.94166241 17.20602614 1.94166241 17.20602614 2.5625 23.6875 C3.19840588 28.50221598 2.68339954 30.97490069 0 35 C0 23.45 0 11.9 0 0 Z " fill="#2C3D88" transform="translate(149,263)"/>
<path d="M0 0 C0.66 0.33 1.32 0.66 2 1 C2 1.66 2 2.32 2 3 C2.66 3 3.32 3 4 3 C4 3.66 4 4.32 4 5 C3.01 5.495 3.01 5.495 2 6 C2 6.66 2 7.32 2 8 C1.01 7.67 0.02 7.34 -1 7 C-1 6.34 -1 5.68 -1 5 C-2.65 5.33 -4.3 5.66 -6 6 C-6 4.02 -6 2.04 -6 0 C-3.4832097 -1.25839515 -2.62168527 -0.81927665 0 0 Z " fill="#1EB4DE" transform="translate(360,273)"/>
<path d="M0 0 C0.55429688 0.42152344 1.10859375 0.84304687 1.6796875 1.27734375 C2.40414062 1.82519531 3.12859375 2.37304688 3.875 2.9375 C4.59429687 3.48277344 5.31359375 4.02804688 6.0546875 4.58984375 C7.94357079 6.03964624 7.94357079 6.03964624 10 7 C10 7.66 10 8.32 10 9 C10.99 9.33 11.98 9.66 13 10 C12.01 11.485 12.01 11.485 11 13 C8.0625 12.25 8.0625 12.25 5 11 C4.125 8.875 4.125 8.875 4 7 C3.34 7 2.68 7 2 7 C1.34 4.69 0.68 2.38 0 0 Z " fill="#4559A4" transform="translate(222,185)"/>
<path d="M0 0 C4.04820134 1.07952036 6.68529859 0.8295309 10.75 0 C9.625 2.5 9.625 2.5 7.75 5 C4.5625 5.3125 4.5625 5.3125 1.75 5 C1.75 4.34 1.75 3.68 1.75 3 C-0.56 3 -2.87 3 -5.25 3 C-5.58 2.01 -5.91 1.02 -6.25 0 C-3.25 -1 -3.25 -1 0 0 Z " fill="#06B8E5" transform="translate(334.25,312)"/>
<path d="M0 0 C0.66 0.33 1.32 0.66 2 1 C1.34 2.65 0.68 4.3 0 6 C-0.66 6 -1.32 6 -2 6 C-2.66 7.98 -3.32 9.96 -4 12 C-5.65 11.67 -7.3 11.34 -9 11 C-5.375 4.125 -5.375 4.125 -2 3 C-2 2.34 -2 1.68 -2 1 C-1.34 0.67 -0.68 0.34 0 0 Z " fill="#3A3F71" transform="translate(141,316)"/>
<path d="M0 0 C0.99 0.33 1.98 0.66 3 1 C3.66666667 3.33333333 4.33333333 5.66666667 5 8 C5.99 8.33 6.98 8.66 8 9 C8.33 10.98 8.66 12.96 9 15 C9.99 15.33 10.98 15.66 12 16 C11.34 16.66 10.68 17.32 10 18 C5.06835454 12.91972961 0 7.54796777 0 0 Z " fill="#418DD7" transform="translate(312,157)"/>
<path d="M0 0 C1.3823443 2.7646886 0.74413417 4.42206452 0.1875 7.4375 C-0.06966797 8.88962891 -0.06966797 8.88962891 -0.33203125 10.37109375 C-1 13 -1 13 -3 16 C-3.39387788 18.32387947 -3.73486085 20.65793749 -4 23 C-4.33 23 -4.66 23 -5 23 C-5.50869094 14.77616307 -4.84613658 8.36790019 -1 1 C-0.67 0.67 -0.34 0.34 0 0 Z " fill="#5499D8" transform="translate(316,134)"/>
<path d="M0 0 C6.4596331 1.32505294 10.38917374 5.59409935 15 10 C14.67 10.66 14.34 11.32 14 12 C12.35 11.67 10.7 11.34 9 11 C8.9175 10.38125 8.835 9.7625 8.75 9.125 C8.18741541 6.81562433 8.18741541 6.81562433 5.9375 5.75 C5.298125 5.5025 4.65875 5.255 4 5 C4 4.34 4 3.68 4 3 C2.68 2.67 1.36 2.34 0 2 C0 1.34 0 0.68 0 0 Z " fill="#5DA3DD" transform="translate(353,122)"/>
<path d="M0 0 C0.886875 0.185625 1.77375 0.37125 2.6875 0.5625 C5.85178811 0.98042484 7.94839642 0.80777742 11 0 C10.34 2.31 9.68 4.62 9 7 C5.625 6.3125 5.625 6.3125 2 5 C0.5625 2.375 0.5625 2.375 0 0 Z " fill="#09B5DA" transform="translate(310,327)"/>
<path d="M0 0 C1.9375 0.375 1.9375 0.375 4 1 C4.33 1.66 4.66 2.32 5 3 C7.52733235 3.65555119 7.52733235 3.65555119 10 4 C9.67 6.64 9.34 9.28 9 12 C5.45340661 8.71611723 2.60087007 5.06119467 0 1 C0 0.67 0 0.34 0 0 Z " fill="#5174B6" transform="translate(222,240)"/>
<path d="M0 0 C0.99 0 1.98 0 3 0 C3.66 1.98 4.32 3.96 5 6 C3.02 6 1.04 6 -1 6 C-1.33 6.99 -1.66 7.98 -2 9 C-2.66 9 -3.32 9 -4 9 C-2.25 2.25 -2.25 2.25 0 0 Z " fill="#2C305C" transform="translate(139,129)"/>
<path d="M0 0 C0.66 0 1.32 0 2 0 C2 1.32 2 2.64 2 4 C2.66 4 3.32 4 4 4 C3.67 5.65 3.34 7.3 3 9 C2.01 9 1.02 9 0 9 C0 8.34 0 7.68 0 7 C-0.99 6.67 -1.98 6.34 -3 6 C-1.125 1.125 -1.125 1.125 0 0 Z " fill="#07B8DD" transform="translate(292,322)"/>
<path d="M0 0 C5.80205656 5.64524422 5.80205656 5.64524422 8 9 C8 9.66 8 10.32 8 11 C8.66 11 9.32 11 10 11 C9.67 11.66 9.34 12.32 9 13 C8.01 12.01 7.02 11.02 6 10 C5.01 10.495 5.01 10.495 4 11 C4 10.34 4 9.68 4 9 C3.34 9 2.68 9 2 9 C2 8.01 2 7.02 2 6 C1.34 6 0.68 6 0 6 C0 4.02 0 2.04 0 0 Z " fill="#5E85C4" transform="translate(248,245)"/>
<path d="M0 0 C3.34373475 0.55728913 6.03312999 1.35173889 9 3 C9 3.99 9 4.98 9 6 C8.34 6 7.68 6 7 6 C6.67 7.32 6.34 8.64 6 10 C4.99421411 8.71283353 3.99553202 7.42011342 3 6.125 C2.443125 5.40570313 1.88625 4.68640625 1.3125 3.9453125 C0 2 0 2 0 0 Z " fill="#435FAA" transform="translate(215,230)"/>
<path d="M0 0 C1.65 0.33 3.3 0.66 5 1 C4.34 2.98 3.68 4.96 3 7 C1.68 7 0.36 7 -1 7 C-1.33 7.66 -1.66 8.32 -2 9 C-2.25 3.375 -2.25 3.375 0 0 Z " fill="#2C316B" transform="translate(132,327)"/>
<path d="M0 0 C2.29296875 -0.28125 2.29296875 -0.28125 5 0 C6.80078125 1.96875 6.80078125 1.96875 8.3125 4.5 C8.82425781 5.3353125 9.33601563 6.170625 9.86328125 7.03125 C10.23839844 7.6809375 10.61351562 8.330625 11 9 C7.03580912 7.50345143 4.14785513 5.88553387 1 3 C0.67 2.01 0.34 1.02 0 0 Z " fill="#4188CA" transform="translate(267,248)"/>
<path d="M0 0 C2.64 0.33 5.28 0.66 8 1 C5.0098979 4.33511388 2.10501426 6.21521119 -2 8 C-2.66 8 -3.32 8 -4 8 C-3.67 7.01 -3.34 6.02 -3 5 C-1.68 5 -0.36 5 1 5 C0.67 3.35 0.34 1.7 0 0 Z " fill="#43DFDF" transform="translate(338,372)"/>
<path d="M0 0 C2.81418562 4.22127844 1.95264998 7.1687037 1 12 C0.12569426 15.05086686 -0.883529 18.02976582 -2 21 C-3.07336426 17.50778671 -2.66950706 15.5637077 -1.546875 12.08203125 C-0.51055543 8.13661461 -0.31018147 4.05684708 0 0 Z " fill="#6AE3E4" transform="translate(353,347)"/>
<path d="M0 0 C0.66 0 1.32 0 2 0 C2.103125 0.7425 2.20625 1.485 2.3125 2.25 C3.04253504 5.17014018 4.06789398 6.73187554 6 9 C5.34 10.32 4.68 11.64 4 13 C4 12.34 4 11.68 4 11 C3.01 11.33 2.02 11.66 1 12 C-0.3271261 8.0186217 -0.06915913 4.14954773 0 0 Z " fill="#1E2459" transform="translate(129,338)"/>
<path d="M0 0 C0.66 0.33 1.32 0.66 2 1 C2.75 3.4375 2.75 3.4375 3 6 C2.34 6.66 1.68 7.32 1 8 C-1.625 7.625 -1.625 7.625 -4 7 C-3.6875 4.625 -3.6875 4.625 -3 2 C-2.01 1.34 -1.02 0.68 0 0 Z " fill="#0FABDC" transform="translate(293,304)"/>
<path d="M0 0 C1.1446875 0.2475 1.1446875 0.2475 2.3125 0.5 C5.30369741 1.05650184 7.23659881 1.38170059 10 0 C9.979375 0.928125 9.95875 1.85625 9.9375 2.8125 C9.84230396 6.02286011 9.84230396 6.02286011 11 9 C8.50638429 7.79618552 6.31856917 6.54571278 4 5 C4 4.34 4 3.68 4 3 C3.34 3 2.68 3 2 3 C2 2.34 2 1.68 2 1 C1.34 0.67 0.68 0.34 0 0 Z " fill="#4EAEDA" transform="translate(287,266)"/>
<path d="M0 0 C3.52238047 1.56367357 6.27123994 3.69495889 9.25 6.125 C10.14203125 6.84945313 11.0340625 7.57390625 11.953125 8.3203125 C12.62859375 8.87460937 13.3040625 9.42890625 14 10 C11.92446352 10.5534764 10.15634036 11 8 11 C7.9071875 10.1028125 7.9071875 10.1028125 7.8125 9.1875 C6.67922246 6.13636816 4.75400399 5.6120999 2 4 C0.6875 1.8125 0.6875 1.8125 0 0 Z " fill="#52B0DA" transform="translate(299,250)"/>
<path d="M0 0 C0.99 0.495 0.99 0.495 2 1 C2 1.66 2 2.32 2 3 C2.66 3 3.32 3 4 3 C5.5078125 4.6796875 5.5078125 4.6796875 7.125 6.875 C7.66382813 7.59429687 8.20265625 8.31359375 8.7578125 9.0546875 C10 11 10 11 10 13 C8.35 12.67 6.7 12.34 5 12 C4.67 10.02 4.34 8.04 4 6 C3.34 6 2.68 6 2 6 C1.34 4.02 0.68 2.04 0 0 Z " fill="#59C5DE" transform="translate(295,306)"/>
<path d="M0 0 C0.33 0.66 0.66 1.32 1 2 C1.639375 2.268125 2.27875 2.53625 2.9375 2.8125 C5.68156708 4.39241741 6.06890124 6.0515206 7 9 C6.01 9 5.02 9 4 9 C4 8.34 4 7.68 4 7 C3.01 7.33 2.02 7.66 1 8 C0.71125 7.38125 0.4225 6.7625 0.125 6.125 C-0.93720042 3.86674235 -0.93720042 3.86674235 -3 2 C-2.01 2 -1.02 2 0 2 C0 1.34 0 0.68 0 0 Z " fill="#3687D1" transform="translate(280,233)"/>
<path d="M0 0 C3.66415876 2.06312314 6.70548128 4.35872176 9.8125 7.1875 C10.60269531 7.90292969 11.39289063 8.61835938 12.20703125 9.35546875 C12.79871094 9.89816406 13.39039063 10.44085938 14 11 C13.34 11.66 12.68 12.32 12 13 C11.34 12.34 10.68 11.68 10 11 C9.13375 10.525625 8.2675 10.05125 7.375 9.5625 C6.59125 9.046875 5.8075 8.53125 5 8 C5 7.01 5 6.02 5 5 C3.35 4.67 1.7 4.34 0 4 C0 2.68 0 1.36 0 0 Z " fill="#6788C5" transform="translate(253,211)"/>
<path d="M0 0 C4.38894929 3.26720791 8.75259665 6.54898478 13 10 C12.67 10.66 12.34 11.32 12 12 C10.02 11.34 8.04 10.68 6 10 C6.33 9.01 6.66 8.02 7 7 C5.02 6.34 3.04 5.68 1 5 C0.67 3.35 0.34 1.7 0 0 Z " fill="#65ADDE" transform="translate(286,238)"/>
<path d="M0 0 C0.99 0 1.98 0 3 0 C3 0.66 3 1.32 3 2 C3.66 2 4.32 2 5 2 C5 2.99 5 3.98 5 5 C4.01 5 3.02 5 2 5 C2 6.32 2 7.64 2 9 C1.01 9 0.02 9 -1 9 C-1.09765625 2.84765625 -1.09765625 2.84765625 -1 1 C-0.67 0.67 -0.34 0.34 0 0 Z " fill="#3471C1" transform="translate(266,223)"/>
<path d="M0 0 C2.475 0.495 2.475 0.495 5 1 C4.67 2.32 4.34 3.64 4 5 C4.99 4.67 5.98 4.34 7 4 C7 4.99 7 5.98 7 7 C7.66 7 8.32 7 9 7 C8.34 8.32 7.68 9.64 7 11 C5.82750647 9.54634731 4.66216184 8.08692581 3.5 6.625 C2.52546875 5.40683594 2.52546875 5.40683594 1.53125 4.1640625 C0 2 0 2 0 0 Z " fill="#46B3DB" transform="translate(274,308)"/>
<path d="M0 0 C2.31 0.66 4.62 1.32 7 2 C7.33 4.97 7.66 7.94 8 11 C6.66666667 9.33333333 5.33333333 7.66666667 4 6 C3.2575 5.0925 2.515 4.185 1.75 3.25 C0 1 0 1 0 0 Z " fill="#595E8E" transform="translate(175,177)"/>
<path d="M0 0 C0.66 0 1.32 0 2 0 C2 0.66 2 1.32 2 2 C2.66 2 3.32 2 4 2 C4.99 4.31 5.98 6.62 7 9 C6.34 9.66 5.68 10.32 5 11 C4.01 10.67 3.02 10.34 2 10 C2.33 8.02 2.66 6.04 3 4 C2.01 4 1.02 4 0 4 C0 2.68 0 1.36 0 0 Z " fill="#4A5284" transform="translate(183,129)"/>
<path d="M0 0 C3.28788824 3.11016455 5.83735988 6.01618925 8 10 C5.69 10.33 3.38 10.66 1 11 C1.33 10.01 1.66 9.02 2 8 C1.34 7.67 0.68 7.34 0 7 C0.66 6.67 1.32 6.34 2 6 C1.34 4.02 0.68 2.04 0 0 Z " fill="#6183C2" transform="translate(240,235)"/>
<path d="M0 0 C2.97 0.495 2.97 0.495 6 1 C8.125 7.625 8.125 7.625 7 11 C6.34 9.35 5.68 7.7 5 6 C4.34 6 3.68 6 3 6 C0 2.53846154 0 2.53846154 0 0 Z " fill="#616EA8" transform="translate(196,205)"/>
<path d="M0 0 C1.37671875 -0.00386719 1.37671875 -0.00386719 2.78125 -0.0078125 C5.45004454 0.12255965 7.89865153 0.53121394 10.5 1.125 C10.5 1.455 10.5 1.785 10.5 2.125 C9.32630859 2.10759766 9.32630859 2.10759766 8.12890625 2.08984375 C7.11699219 2.08082031 6.10507812 2.07179688 5.0625 2.0625 C3.54849609 2.04509766 3.54849609 2.04509766 2.00390625 2.02734375 C-0.44021067 1.83887324 -0.44021067 1.83887324 -1.5 3.125 C-3.02519276 3.03562197 -4.54681929 2.87962854 -6.0625 2.6875 C-7.30193359 2.53474609 -7.30193359 2.53474609 -8.56640625 2.37890625 C-9.20449219 2.29511719 -9.84257812 2.21132812 -10.5 2.125 C-10.5 1.795 -10.5 1.465 -10.5 1.125 C-6.94075986 0.31256475 -3.64872305 -0.01024922 0 0 Z " fill="#5198DD" transform="translate(342.5,119.875)"/>
<path d="M0 0 C0.99 0 1.98 0 3 0 C3.33 1.98 3.66 3.96 4 6 C3.01 5.67 2.02 5.34 1 5 C1 4.34 1 3.68 1 3 C0.34 3 -0.32 3 -1 3 C-0.67 2.01 -0.34 1.02 0 0 Z M-4 2 C-2.02 2.99 -2.02 2.99 0 4 C-0.99 5.485 -0.99 5.485 -2 7 C-2.66 7 -3.32 7 -4 7 C-4 5.35 -4 3.7 -4 2 Z " fill="#202968" transform="translate(146,314)"/>
<path d="M0 0 C0.66 0 1.32 0 2 0 C4.79541463 2.79541463 6.20822838 5.17310382 7 9 C6.01 9.495 6.01 9.495 5 10 C5 9.34 5 8.68 5 8 C3.68 7.67 2.36 7.34 1 7 C1.33 5.68 1.66 4.36 2 3 C1.34 3 0.68 3 0 3 C0 2.01 0 1.02 0 0 Z " fill="#06A9DB" transform="translate(281,312)"/>
<path d="M0 0 C5.8997555 5.58924205 5.8997555 5.58924205 7 9 C6.625 11.25 6.625 11.25 6 13 C5.67 11.35 5.34 9.7 5 8 C4.01 8 3.02 8 2 8 C-0.1519437 4.77208445 -0.20086443 3.71599191 0 0 Z " fill="#48D1DA" transform="translate(346,334)"/>
<path d="M0 0 C3.03277933 2.90091936 3.97522854 4.11813594 4.09765625 8.4765625 C4.09100795 9.85940867 4.07908295 11.24223728 4.0625 12.625 C4.05798828 13.33140625 4.05347656 14.0378125 4.04882812 14.765625 C4.03703875 16.51045275 4.01910324 18.255237 4 20 C3.67 20 3.34 20 3 20 C3 16.04 3 12.08 3 8 C2.34 8 1.68 8 1 8 C0.67 5.36 0.34 2.72 0 0 Z " fill="#33C2D8" transform="translate(364,278)"/>
<path d="M0 0 C0.99 0 1.98 0 3 0 C2.67 2.97 2.34 5.94 2 9 C-2 7 -2 7 -4 4 C-3.01 3.34 -2.02 2.68 -1 2 C-0.67 1.34 -0.34 0.68 0 0 Z " fill="#2A479B" transform="translate(228,208)"/>
<path d="M0 0 C0.33 0.66 0.66 1.32 1 2 C1.99 2 2.98 2 4 2 C4 1.34 4 0.68 4 0 C4.99 0.33 5.98 0.66 7 1 C4.99020941 4.01468588 4.29263985 4.83789182 1 6 C-1.25 5.625 -1.25 5.625 -3 5 C-2.34 5 -1.68 5 -1 5 C-0.67 3.35 -0.34 1.7 0 0 Z " fill="#43D2DF" transform="translate(353,312)"/>
<path d="M0 0 C6.75 0.75 6.75 0.75 9 3 C8.01 4.485 8.01 4.485 7 6 C6.01 6 5.02 6 4 6 C4 4.68 4 3.36 4 2 C2.68 2 1.36 2 0 2 C0 1.34 0 0.68 0 0 Z " fill="#04B2E7" transform="translate(321,304)"/>
<path d="M0 0 C2.5 1.375 2.5 1.375 5 3 C5 3.66 5 4.32 5 5 C6.32 5.66 7.64 6.32 9 7 C7.02 7.99 7.02 7.99 5 9 C3 6 3 6 3 4 C2.01 4 1.02 4 0 4 C0 2.68 0 1.36 0 0 Z " fill="#49B7E0" transform="translate(313,261)"/>
<path d="M0 0 C2.96404505 2.80804268 5.44499019 5.18315774 7 9 C4.0625 8.1875 4.0625 8.1875 1 7 C0.67 6.01 0.34 5.02 0 4 C-0.66 3.67 -1.32 3.34 -2 3 C-1 1 -1 1 0 0 Z " fill="#568BCB" transform="translate(258,258)"/>
<path d="M0 0 C2.49361571 1.20381448 4.68143083 2.45428722 7 4 C7 4.66 7 5.32 7 6 C7.99 6.33 8.98 6.66 10 7 C7.13822943 8.43088528 5.06624227 7.59991697 2 7 C1.34 4.69 0.68 2.38 0 0 Z " fill="#637EC0" transform="translate(243,203)"/>
<path d="M0 0 C0.66 0 1.32 0 2 0 C2.33 0.33 2.66 0.66 3 1 C3.99 0.67 4.98 0.34 6 0 C6.59732819 2.76264289 7 5.16032769 7 8 C6.34 8 5.68 8 5 8 C4.34 6.35 3.68 4.7 3 3 C2.34 3 1.68 3 1 3 C0.67 2.01 0.34 1.02 0 0 Z " fill="#656BA0" transform="translate(183,188)"/>
<path d="M0 0 C2.57455698 2.57455698 2.41265954 4.47595722 3 8 C3.66 8.66 4.32 9.32 5 10 C4.34 10 3.68 10 3 10 C3.33 10.99 3.66 11.98 4 13 C3.34 13 2.68 13 2 13 C-1.08219178 7.57534247 -1.08219178 7.57534247 -0.6875 4.8125 C-0.3471875 3.9153125 -0.3471875 3.9153125 0 3 C0 2.01 0 1.02 0 0 Z " fill="#4E7FC6" transform="translate(242,258)"/>
<path d="M0 0 C1.98 0 3.96 0 6 0 C6.33 1.98 6.66 3.96 7 6 C2.32307692 4.52307692 2.32307692 4.52307692 0.6875 1.875 C0.460625 1.25625 0.23375 0.6375 0 0 Z " fill="#4E4F76" transform="translate(138,170)"/>
<path d="M0 0 C-0.33 0.99 -0.66 1.98 -1 3 C-3.64 3 -6.28 3 -9 3 C-9 2.01 -9 1.02 -9 0 C-5.62182575 -0.84454356 -3.32534757 -1.10844919 0 0 Z " fill="#222864" transform="translate(168,121)"/>
<path d="M0 0 C0.33 0.99 0.66 1.98 1 3 C-0.28965176 4.37562854 -1.62689293 5.70766393 -3 7 C-3.66 7 -4.32 7 -5 7 C-5 5.35 -5 3.7 -5 2 C-3.35 1.34 -1.7 0.68 0 0 Z " fill="#434984" transform="translate(183,360)"/>
<path d="M0 0 C1.32 0.66 2.64 1.32 4 2 C3.67 2.99 3.34 3.98 3 5 C3.66 5.33 4.32 5.66 5 6 C5 6.99 5 7.98 5 9 C2.50584728 8.00233891 1.21259665 7.31383315 -0.3125 5.0625 C-1 3 -1 3 0 0 Z " fill="#167FD7" transform="translate(275,248)"/>
<path d="M0 0 C2.31 1.65 4.62 3.3 7 5 C6.67 5.99 6.34 6.98 6 8 C4.0625 7.6875 4.0625 7.6875 2 7 C1.67 6.01 1.34 5.02 1 4 C0.34 3.34 -0.32 2.68 -1 2 C-0.67 1.34 -0.34 0.68 0 0 Z " fill="#6571AC" transform="translate(215,179)"/>
<path d="M0 0 C0.33 0 0.66 0 1 0 C1.19622241 4.21878192 0.80230168 7.17010894 -1 11 C-1.66 11 -2.32 11 -3 11 C-3.33 11.99 -3.66 12.98 -4 14 C-4.33 12.35 -4.66 10.7 -5 9 C-4.34 8.67 -3.68 8.34 -3 8 C-2.63451555 6.67511887 -2.3062434 5.33981486 -2 4 C-1.36345658 2.6520257 -0.70394612 1.31403276 0 0 Z " fill="#6B729E" transform="translate(190,346)"/>
<path d="M0 0 C0.99 0.33 1.98 0.66 3 1 C3 1.66 3 2.32 3 3 C3.99 3 4.98 3 6 3 C6.66 5.64 7.32 8.28 8 11 C5.07130346 8.17589976 2.41572077 5.27847819 0 2 C0 1.34 0 0.68 0 0 Z " fill="#6DD1E5" transform="translate(289,328)"/>
<path d="M0 0 C2.71928517 0.37507382 3.84218661 0.84218661 5.8125 2.8125 C7 5 7 5 6.57421875 7.13671875 C6.38472656 7.75160156 6.19523437 8.36648438 6 9 C4.99712471 7.68969568 3.99777175 6.37669473 3 5.0625 C2.443125 4.33160156 1.88625 3.60070312 1.3125 2.84765625 C0 1 0 1 0 0 Z " fill="#55C1DC" transform="translate(282,319)"/>
<path d="M0 0 C0.33 0.66 0.66 1.32 1 2 C1.78375 1.979375 2.5675 1.95875 3.375 1.9375 C6 2 6 2 8 3 C7.67 4.32 7.34 5.64 7 7 C4.525 6.01 4.525 6.01 2 5 C2 4.34 2 3.68 2 3 C1.01 2.67 0.02 2.34 -1 2 C-0.67 1.34 -0.34 0.68 0 0 Z " fill="#285CB7" transform="translate(248,230)"/>
<path d="M0 0 C0.86625 0.4640625 0.86625 0.4640625 1.75 0.9375 C4.21905868 2.19285032 4.21905868 2.19285032 8 3 C7.67 6.3 7.34 9.6 7 13 C6.67 13 6.34 13 6 13 C5.938125 11.783125 5.87625 10.56625 5.8125 9.3125 C5.28836874 4.84150148 3.49413605 2.86698342 0 0 Z " fill="#60C3E3" transform="translate(310,285)"/>
<path d="M0 0 C2.475 0.495 2.475 0.495 5 1 C5.33 3.31 5.66 5.62 6 8 C1.125 3.375 1.125 3.375 0 0 Z " fill="#5E74AD" transform="translate(209,222)"/>
<path d="M0 0 C0 2.33333333 0 4.66666667 0 7 C-1.65 7.33 -3.3 7.66 -5 8 C-5 7.34 -5 6.68 -5 6 C-4.34 6 -3.68 6 -3 6 C-3.33 5.01 -3.66 4.02 -4 3 C-3 1 -3 1 0 0 Z " fill="#27459B" transform="translate(222,208)"/>
<path d="M0 0 C0.33 0.99 0.66 1.98 1 3 C-0.28965176 4.37562854 -1.62689293 5.70766393 -3 7 C-3.66 7 -4.32 7 -5 7 C-5 5.35 -5 3.7 -5 2 C-3.35 1.34 -1.7 0.68 0 0 Z " fill="#4591D9" transform="translate(365,169)"/>
<path d="M0 0 C0.99 1.485 0.99 1.485 2 3 C2.66 3 3.32 3 4 3 C4.625 5.875 4.625 5.875 5 9 C4.34 9.66 3.68 10.32 3 11 C0.84694043 7.14243493 -0.39253254 4.44870215 0 0 Z " fill="#62668C" transform="translate(129,346)"/>
<path d="M0 0 C0.66 0.33 1.32 0.66 2 1 C1.34 1.66 0.68 2.32 0 3 C0.99 4.485 0.99 4.485 2 6 C1.01 6.33 0.02 6.66 -1 7 C-1.66 6.67 -2.32 6.34 -3 6 C-3 4.35 -3 2.7 -3 1 C-2.01 0.67 -1.02 0.34 0 0 Z " fill="#03B6E0" transform="translate(302,345)"/>
<path d="M0 0 C1.65 0 3.3 0 5 0 C5.33 1.32 5.66 2.64 6 4 C4.02 4 2.04 4 0 4 C0 2.68 0 1.36 0 0 Z " fill="#2750AA" transform="translate(226,240)"/>
<path d="M0 0 C3.04386724 -0.08226668 5.07175348 0.02391783 8 1 C7.67 1.99 7.34 2.98 7 4 C4.9375 4.6875 4.9375 4.6875 3 5 C2.01 3.35 1.02 1.7 0 0 Z " fill="#4B599E" transform="translate(192,200)"/>
<path d="M0 0 C1.0326802 2.78823655 1.04509293 3.8677274 0.0625 6.75 C-0.288125 7.4925 -0.63875 8.235 -1 9 C-1.66 9 -2.32 9 -3 9 C-3.33 9.99 -3.66 10.98 -4 12 C-3.5317879 7.22423661 -2.75668002 3.95523655 0 0 Z " fill="#666985" transform="translate(135,134)"/>
<path d="M0 0 C1.98 0.66 3.96 1.32 6 2 C5.67 3.98 5.34 5.96 5 8 C4.67 7.01 4.34 6.02 4 5 C3.01 4.67 2.02 4.34 1 4 C0.3125 1.9375 0.3125 1.9375 0 0 Z " fill="#1FBAD6" transform="translate(296,336)"/>
<path d="M0 0 C0.66 0.33 1.32 0.66 2 1 C1.34 2.65 0.68 4.3 0 6 C-1.65 5.67 -3.3 5.34 -5 5 C-4.67 4.34 -4.34 3.68 -4 3 C-3.34 3 -2.68 3 -2 3 C-2 2.34 -2 1.68 -2 1 C-1.34 0.67 -0.68 0.34 0 0 Z " fill="#464D7C" transform="translate(141,316)"/>
<path d="M0 0 C4.81430721 -0.56638908 7.20307814 1.17438373 11 4 C10.34 4.66 9.68 5.32 9 6 C6.9375 5.8125 6.9375 5.8125 5 5 C4.67 4.01 4.34 3.02 4 2 C1.99983534 0.79117904 1.99983534 0.79117904 0 0 Z " fill="#545C8E" transform="translate(170,313)"/>
<path d="M0 0 C-1.125 2 -1.125 2 -3 4 C-6.1875 4.25 -6.1875 4.25 -9 4 C-6.56225426 0.2214941 -6.56225426 0.2214941 -3.9375 -0.8125 C-2 -1 -2 -1 0 0 Z " fill="#00BFDF" transform="translate(345,313)"/>
<path d="M0 0 C3.77545388 1.09068668 6.47043472 1.9083091 9 5 C8.67 5.99 8.34 6.98 8 8 C6.66372225 6.85760183 5.33104612 5.71098945 4 4.5625 C3.2575 3.92441406 2.515 3.28632813 1.75 2.62890625 C1.1725 2.09136719 0.595 1.55382812 0 1 C0 0.67 0 0.34 0 0 Z " fill="#7B9AD0" transform="translate(250,235)"/>
<path d="M0 0 C2.96175123 0.61277612 4.38058783 1.25372522 7 3 C6.67 3.66 6.34 4.32 6 5 C5.236875 4.67 4.47375 4.34 3.6875 4 C1.00930865 2.82563314 1.00930865 2.82563314 -2 3 C-1.34 2.01 -0.68 1.02 0 0 Z " fill="#265EBF" transform="translate(258,219)"/>
<path d="M0 0 C0.33 0.66 0.66 1.32 1 2 C1.66 2.144375 2.32 2.28875 3 2.4375 C3.66 2.623125 4.32 2.80875 5 3 C5.33 3.99 5.66 4.98 6 6 C4.35 6.33 2.7 6.66 1 7 C0.67 4.69 0.34 2.38 0 0 Z " fill="#2D53AD" transform="translate(248,208)"/>
<path d="M0 0 C0.33 0.66 0.66 1.32 1 2 C1.66 2 2.32 2 3 2 C3.33 3.65 3.66 5.3 4 7 C2.68 6.67 1.36 6.34 0 6 C-0.38218767 4.34385343 -0.71395102 2.67542976 -1 1 C-0.67 0.67 -0.34 0.34 0 0 Z " fill="#333660" transform="translate(136,163)"/>
<path d="M0 0 C0.99 0.33 1.98 0.66 3 1 C3.73046875 2.84765625 3.73046875 2.84765625 4.1875 5.0625 C4.34605469 5.79597656 4.50460937 6.52945313 4.66796875 7.28515625 C4.83232422 8.13400391 4.83232422 8.13400391 5 9 C4.01 9.495 4.01 9.495 3 10 C2.49596232 8.70990357 1.99690074 7.41786211 1.5 6.125 C1.2215625 5.40570313 0.943125 4.68640625 0.65625 3.9453125 C0 2 0 2 0 0 Z " fill="#5297D7" transform="translate(312,157)"/>
<path d="M0 0 C-3.20336822 2.83374881 -5.78087253 3.5205537 -10 4 C-4.7704918 -1.59016393 -4.7704918 -1.59016393 0 0 Z " fill="#61A5E0" transform="translate(333,123)"/>
<path d="M0 0 C3.8063457 0.67170806 7.35206816 1.72746564 11 3 C10.67 3.66 10.34 4.32 10 5 C8.51800098 4.55090939 7.03944764 4.09043436 5.5625 3.625 C4.73878906 3.36976563 3.91507812 3.11453125 3.06640625 2.8515625 C1 2 1 2 0 0 Z " fill="#5CD8DF" transform="translate(308,375)"/>
<path d="M0 0 C1.32 0.33 2.64 0.66 4 1 C4.33 2.32 4.66 3.64 5 5 C4.01 5.33 3.02 5.66 2 6 C1.67 6.66 1.34 7.32 1 8 C0.67 7.01 0.34 6.02 0 5 C0.66 5 1.32 5 2 5 C2 4.34 2 3.68 2 3 C1.34 3 0.68 3 0 3 C0 2.01 0 1.02 0 0 Z " fill="#2884DA" transform="translate(257,281)"/>
<path d="M0 0 C1.32 0.33 2.64 0.66 4 1 C4 2.65 4 4.3 4 6 C4.66 6 5.32 6 6 6 C5.67 6.99 5.34 7.98 5 9 C4.16396622 7.68921847 3.3312426 6.37632511 2.5 5.0625 C2.0359375 4.33160156 1.571875 3.60070312 1.09375 2.84765625 C0 1 0 1 0 0 Z " fill="#55C0DC" transform="translate(317,302)"/>
<path d="M0 0 C2.475 0.99 2.475 0.99 5 2 C4.67 2.66 4.34 3.32 4 4 C3.34 3.67 2.68 3.34 2 3 C1.67 3.99 1.34 4.98 1 6 C0.34 5.67 -0.32 5.34 -1 5 C-0.67 3.35 -0.34 1.7 0 0 Z " fill="#216CCB" transform="translate(260,265)"/>
<path d="M0 0 C4.875 4.75 4.875 4.75 6 7 C4.68 7 3.36 7 2 7 C0.1875 4.625 0.1875 4.625 -1 2 C-0.67 1.34 -0.34 0.68 0 0 Z " fill="#108ED8" transform="translate(297,249)"/>
<path d="M0 0 C0.33 0.66 0.66 1.32 1 2 C1.66 2 2.32 2 3 2 C4.625 4 4.625 4 6 6 C5.67 6.66 5.34 7.32 5 8 C3.0625 7.375 3.0625 7.375 1 6 C0.25 2.875 0.25 2.875 0 0 Z " fill="#6077B2" transform="translate(231,223)"/>
<path d="M0 0 C2.31 1.65 4.62 3.3 7 5 C6.34 5.66 5.68 6.32 5 7 C4.01 7 3.02 7 2 7 C1.34 4.69 0.68 2.38 0 0 Z " fill="#5A70AB" transform="translate(222,185)"/>
<path d="M0 0 C1.32 0.66 2.64 1.32 4 2 C2.33333333 3.66666667 0.66666667 5.33333333 -1 7 C-1 6.01 -1 5.02 -1 4 C-1.66 3.67 -2.32 3.34 -3 3 C-2.01 2.01 -1.02 1.02 0 0 Z " fill="#434571" transform="translate(143,125)"/>
<path d="M0 0 C1.32 1.65 2.64 3.3 4 5 C2.35 5.66 0.7 6.32 -1 7 C-0.67 4.69 -0.34 2.38 0 0 Z " fill="#3799DE" transform="translate(274,279)"/>
<path d="M0 0 C2.64 1.98 5.28 3.96 8 6 C6.68 6.33 5.36 6.66 4 7 C3.34 5.68 2.68 4.36 2 3 C1.34 3 0.68 3 0 3 C0 2.01 0 1.02 0 0 Z " fill="#7176A5" transform="translate(202,168)"/>
<path d="M0 0 C1.875 0.25 1.875 0.25 4 1 C5.25 3.0625 5.25 3.0625 6 5 C3.03 4.505 3.03 4.505 0 4 C0 2.68 0 1.36 0 0 Z " fill="#549ADA" transform="translate(362,129)"/>
<path d="M0 0 C1.65 0.33 3.3 0.66 5 1 C4.67 2.32 4.34 3.64 4 5 C3.34 5 2.68 5 2 5 C2 4.34 2 3.68 2 3 C1.01 3 0.02 3 -1 3 C-0.67 2.01 -0.34 1.02 0 0 Z " fill="#1E2868" transform="translate(139,321)"/>
<path d="M0 0 C0.66 0.33 1.32 0.66 2 1 C1.67 2.65 1.34 4.3 1 6 C0.34 6 -0.32 6 -1 6 C-1.625 4.125 -1.625 4.125 -2 2 C-1.34 1.34 -0.68 0.68 0 0 Z " fill="#02ADE0" transform="translate(315,266)"/>
<path d="M0 0 C0.33 1.32 0.66 2.64 1 4 C-0.98 4.99 -2.96 5.98 -5 7 C-3.70700306 4.11562221 -2.34058637 2.12780579 0 0 Z " fill="#599EDC" transform="translate(322,127)"/>
<path d="M0 0 C2.00720923 0.28674418 4.0085944 0.61866701 6 1 C6 1.66 6 2.32 6 3 C4.02 3.33 2.04 3.66 0 4 C-0.33 3.01 -0.66 2.02 -1 1 C-0.67 0.67 -0.34 0.34 0 0 Z " fill="#212969" transform="translate(172,124)"/>
</svg>
