<svg xmlns="http://www.w3.org/2000/svg" xmlns:xlink="http://www.w3.org/1999/xlink" viewBox="0 0 32 32"><defs><linearGradient id="a" x1="15.997" y1="993" x2="15.997" y2="1021" gradientTransform="matrix(1, 0, 0, -1, 0, 1023)" gradientUnits="userSpaceOnUse"><stop offset="0" stop-color="#f6c765"/><stop offset="1" stop-color="#fda085"/></linearGradient></defs><title>file_type_nest_decorator_ts</title><path d="M18.488,2a1.753,1.753,0,0,0-.564.1c1.611,1.058-.28,2.594.6,3.9A2.234,2.234,0,0,1,19.6,3.765c.285-.237.467-.322.406-.714C19.91,2.409,19.054,2,18.488,2Zm2.3.414c-.222,1.123-.5,1.164-1.323,1.887a1.82,1.82,0,0,0-.528,2.191c-3.4-1.32-7.758-2.118-10.953.166-1.149.821-1.851,2-3.268,2.481C3.8,9.452,2.9,9.36,2.328,10.268A1.413,1.413,0,0,0,2.384,12.1c.17.175.5.287.636.465.079.1.077.2.152.333a2.586,2.586,0,0,0,.564.828c.146.121.652.239.738.368.107.161-.173.8.062.9.159.073.622-.744.667-.816-.092.643-.213,1.784.51.834.343-.451.364-.6.941-.7a8.36,8.36,0,0,1,9.739,7.506c-.108-.5-.761-1.3-1.369-1.11-.259.08-.355.527-.525.786a3.75,3.75,0,0,1-.785.868,4.657,4.657,0,0,0-.072-1.452c-.182.748-.547,1.989-1.466,1.788a1.652,1.652,0,0,1-1.328-1.142c-.119-.76.684-1.651-.607-1.714-2.59-.127-1.991,3.682-.462,4.675a3.272,3.272,0,0,0-1.015.283A6.893,6.893,0,0,0,19.04,19.889a7.046,7.046,0,0,1-.646,4.79,6.9,6.9,0,0,1-1.23,1.668c-.3.3-.894.63-1.089.941A13.427,13.427,0,0,0,19.6,26.32,11.647,11.647,0,0,1,15.1,30a11.59,11.59,0,0,0,9.3-5.909,11.657,11.657,0,0,1-1.945,4.668,11.531,11.531,0,0,0,4.975-7.783,11.655,11.655,0,0,1,.209,3.5A12.418,12.418,0,0,0,29.53,13.91a15.755,15.755,0,0,0-1.689-3.962A14.838,14.838,0,0,0,26.9,8.554c-.133-.173-.844-.806-.844-1q-.009.029-.015,0c0,3.266-3.5,5.311-6.431,4.463a5,5,0,0,0,4.56-4.288A4.988,4.988,0,0,0,20.789,2.414Z" style="fill-rule:evenodd;fill:url(#a)"/><path d="M26.4,18.6a2.82,2.82,0,0,1,1.41.81,3.8,3.8,0,0,1,.54.72s-1,.69-1.57,1.06a.49.49,0,0,1-.2-.22,1.283,1.283,0,0,0-1.06-.64.92.92,0,0,0-1.1.7.893.893,0,0,0-.022.212.818.818,0,0,0,.1.42,2.218,2.218,0,0,0,1.31.88c1.62.7,2.31,1.16,2.74,1.81a3.283,3.283,0,0,1,.26,2.76,3,3,0,0,1-2.51,1.84,6.875,6.875,0,0,1-1.72,0,4.142,4.142,0,0,1-2.3-1.2,3.958,3.958,0,0,1-.59-.87l.21-.13.84-.48.65-.38.14.2a2.987,2.987,0,0,0,.86.82,2.1,2.1,0,0,0,2.2-.11,1,1,0,0,0,.13-1.25,3.742,3.742,0,0,0-1.55-.9,5.584,5.584,0,0,1-2.18-1.38,2.988,2.988,0,0,1-.62-1.13,4.517,4.517,0,0,1,0-1.44,2.761,2.761,0,0,1,2.32-2.15A5.735,5.735,0,0,1,26.4,18.6Zm-5.31.94v.93H18.15v8.36H16.07v-8.36H13.13v-.91a8.486,8.486,0,0,1,0-.93h8v.92Z" style="fill:#007acc"/></svg>