<svg viewBox="0 0 32 32" xmlns="http://www.w3.org/2000/svg"><g fill="#00d8ff"><circle cx="16" cy="15.974" r="2.5"/><path d="m16 21.706a28.385 28.385 0 0 1 -8.88-1.2 11.3 11.3 0 0 1 -3.657-1.958 3.543 3.543 0 0 1 -1.463-2.574c0-1.653 1.816-3.273 4.858-4.333a28.755 28.755 0 0 1 9.142-1.348 28.674 28.674 0 0 1 9.022 1.324 11.376 11.376 0 0 1 3.538 1.866 3.391 3.391 0 0 1 1.44 2.491c0 1.718-2.03 3.459-5.3 4.541a28.8 28.8 0 0 1 -8.7 1.191zm0-10.217a27.948 27.948 0 0 0 -8.749 1.282c-2.8.977-4.055 2.313-4.055 3.2 0 .928 1.349 2.387 4.311 3.4a27.21 27.21 0 0 0 8.493 1.139 27.6 27.6 0 0 0 8.325-1.13c3.075-1.019 4.475-2.48 4.475-3.406a2.327 2.327 0 0 0 -1.01-1.573 10.194 10.194 0 0 0 -3.161-1.654 27.462 27.462 0 0 0 -8.629-1.258z"/><path d="m10.32 28.443a2.639 2.639 0 0 1 -1.336-.328c-1.432-.826-1.928-3.208-1.327-6.373a28.755 28.755 0 0 1 3.4-8.593 28.676 28.676 0 0 1 5.653-7.154 11.376 11.376 0 0 1 3.384-2.133 3.391 3.391 0 0 1 2.878 0c1.489.858 1.982 3.486 1.287 6.859a28.806 28.806 0 0 1 -3.316 8.133 28.385 28.385 0 0 1 -5.476 7.093 11.3 11.3 0 0 1 -3.523 2.189 4.926 4.926 0 0 1 -1.624.307zm1.773-14.7a27.948 27.948 0 0 0 -3.26 8.219c-.553 2.915-.022 4.668.75 5.114.8.463 2.742.024 5.1-2.036a27.209 27.209 0 0 0 5.227-6.79 27.6 27.6 0 0 0 3.181-7.776c.654-3.175.089-5.119-.713-5.581a2.327 2.327 0 0 0 -1.868.089 10.194 10.194 0 0 0 -3.01 1.918 27.464 27.464 0 0 0 -5.4 6.849z"/><path d="m21.677 28.456c-1.355 0-3.076-.82-4.868-2.361a28.756 28.756 0 0 1 -5.747-7.237 28.676 28.676 0 0 1 -3.374-8.471 11.376 11.376 0 0 1 -.158-4 3.391 3.391 0 0 1 1.434-2.487c1.487-.861 4.01.024 6.585 2.31a28.8 28.8 0 0 1 5.39 6.934 28.384 28.384 0 0 1 3.41 8.287 11.3 11.3 0 0 1 .137 4.146 3.543 3.543 0 0 1 -1.494 2.555 2.59 2.59 0 0 1 -1.315.324zm-9.58-10.2a27.949 27.949 0 0 0 5.492 6.929c2.249 1.935 4.033 2.351 4.8 1.9.8-.465 1.39-2.363.782-5.434a27.212 27.212 0 0 0 -3.271-7.911 27.6 27.6 0 0 0 -5.145-6.64c-2.424-2.152-4.39-2.633-5.191-2.169a2.327 2.327 0 0 0 -.855 1.662 10.194 10.194 0 0 0 .153 3.565 27.465 27.465 0 0 0 3.236 8.1z"/></g></svg>