<svg xmlns="http://www.w3.org/2000/svg" viewBox="0 0 32 32"><title>file_type_bats</title><path d="M18.59,26.976A6.491,6.491,0,0,1,22.847,25.4h0a6.508,6.508,0,0,1,4.635,1.92l2.135,2.134A18.712,18.712,0,0,0,27.4,18.231l-.034-.062-.241.242a6.567,6.567,0,0,1-9.265,0,.5.5,0,0,1,0-.712h0l2.187-2.186h-.01a4.525,4.525,0,0,1-3.553-3.553v-.011L14.3,14.135a.5.5,0,0,1-.713,0,6.568,6.568,0,0,1,0-9.263l.244-.241L13.768,4.6A18.73,18.73,0,0,0,2.547,2.378L4.682,4.513A6.507,6.507,0,0,1,6.6,9.148a6.5,6.5,0,0,1-1.576,4.257A9.544,9.544,0,0,1,7.091,23.849L6.328,25.67l1.817-.756A9.543,9.543,0,0,1,18.59,26.976Z" style="fill:#3d3d3d"/><path d="M29.812,30l-2.5-2.5a6.3,6.3,0,0,0-4.439-1.846h-.032a6.249,6.249,0,0,0-4.082,1.515l-.177.153-.166-.165a9.261,9.261,0,0,0-10.17-2.008l-2.384.992,1-2.386A9.258,9.258,0,0,0,4.847,13.583l-.166-.166.153-.177A6.238,6.238,0,0,0,6.349,9.149,6.3,6.3,0,0,0,4.5,4.691L2,2.188l.518-.06A18.879,18.879,0,0,1,13.89,4.374l.357.2-.482.478a6.33,6.33,0,0,0,0,8.906.253.253,0,0,0,.178.073h0a.25.25,0,0,0,.179-.074L16.74,11.34v.593a4.26,4.26,0,0,0,3.326,3.327h.593l-2.617,2.616a.253.253,0,0,0,0,.357,6.33,6.33,0,0,0,8.91,0l.474-.479.2.354a18.86,18.86,0,0,1,2.248,11.375Zm-6.945-4.853a6.807,6.807,0,0,1,4.8,1.994l1.76,1.759a18.351,18.351,0,0,0-2.114-10.314l0,0a6.835,6.835,0,0,1-9.621,0,.756.756,0,0,1,0-1.069l1.87-1.87a4.758,4.758,0,0,1-3.207-3.207l-1.87,1.869a.751.751,0,0,1-.534.222h0a.748.748,0,0,1-.534-.222,6.819,6.819,0,0,1,0-9.618l.006-.006A18.363,18.363,0,0,0,3.1,2.575l1.76,1.76A6.8,6.8,0,0,1,6.853,9.149a6.741,6.741,0,0,1-1.489,4.242A9.759,9.759,0,0,1,7.9,18.263a9.767,9.767,0,0,1-.574,5.684L6.8,25.2l1.251-.521A9.8,9.8,0,0,1,18.6,26.636a6.747,6.747,0,0,1,4.228-1.489Z" style="fill:#d2d2d2"/></svg>