<svg viewBox="0 0 32 32" xmlns="http://www.w3.org/2000/svg"><g fill="#007acc"><path d="m26.4 24.383c-2.306-.538-3.109-3.31-1.771-6.111a11.927 11.927 0 0 1 2.956-3.706l.415-.345.012.475a8.972 8.972 0 0 0 1 3.233 18.789 18.789 0 0 1 .833 2.175 4.255 4.255 0 0 1 -.1 2.611 3.561 3.561 0 0 1 -1.488 1.45 3.726 3.726 0 0 1 -1.857.218zm.468-4.753c.166-.191.207-.443.218-1.335l.014-1.1-.269.211a2.238 2.238 0 0 0 -.846 1.867c.093.285.382.6.548.594a.686.686 0 0 0 .336-.236z"/><path d="m6.165 29.08a5.136 5.136 0 0 1 -4.041-6.08c.339-1.427.269-1.344 7.635-9.049l6.941-7.26.984.938.984.938-4 4.176-4 4.176 3.345-.072 3.345-.072 2.364-2.466 2.364-2.466.98.943.98.943-6.951 7.24c-6.377 6.642-7.009 7.269-7.657 7.59a5.185 5.185 0 0 1 -3.27.524zm19.55-16.646c-.183-.11-2.061-1.862-4.173-3.895l-3.842-3.695-.012-.561a1.15 1.15 0 0 1 .259-.9 1.32 1.32 0 0 1 1.385-.494 91.788 91.788 0 0 1 8.37 8.031 1.339 1.339 0 0 1 -1.99 1.511z"/><path d="m4.1 23.621c-.353 2.277.959 3.823 3.439 3.486.255-.268 3.21-3.353 9.849-10.316-3.34.072-3.3-.074-6.641 0-6.681 6.926-6.814 6.876-6.647 6.83z"/><path d="m27.731 17.931a3.549 3.549 0 0 1 1.783 1.027 4.7 4.7 0 0 1 .683.914c.009.036-1.231.869-1.982 1.335-.027.018-.136-.1-.258-.281a1.616 1.616 0 0 0 -1.34-.806c-.864-.059-1.421.394-1.417 1.15a1.045 1.045 0 0 0 .122.534c.19.394.543.629 1.652 1.109 2.041.878 2.915 1.457 3.458 2.281a4.137 4.137 0 0 1 .33 3.476 3.822 3.822 0 0 1 -3.154 2.258 8.741 8.741 0 0 1 -2.172-.023 5.239 5.239 0 0 1 -2.9-1.512 5.037 5.037 0 0 1 -.742-1.1 2.13 2.13 0 0 1 .262-.167c.127-.072.606-.348 1.059-.611l.819-.475.172.253a3.827 3.827 0 0 0 1.082 1.036 2.647 2.647 0 0 0 2.774-.14 1.239 1.239 0 0 0 .158-1.579c-.222-.317-.674-.584-1.96-1.14a7.056 7.056 0 0 1 -2.684-1.652 3.76 3.76 0 0 1 -.783-1.426 5.709 5.709 0 0 1 -.05-1.819 3.475 3.475 0 0 1 2.924-2.706 7.222 7.222 0 0 1 2.164.064zm-6.693 1.19.009 1.168h-3.711v10.545h-2.625v-10.545h-3.711v-1.145a11.22 11.22 0 0 1 .032-1.177c.014-.018 2.272-.027 5.01-.023l4.983.014z" stroke="#000" stroke-miterlimit="10" stroke-width=".5"/></g></svg>