<svg xmlns="http://www.w3.org/2000/svg" viewBox="0 0 32 32"><title>file_type_typo3</title><path d="M23.093,21.3a3.847,3.847,0,0,1-1.18.165c-3.555,0-8.778-12.424-8.778-16.559,0-1.523.362-2.031.87-2.466C9.653,2.943,4.43,4.539,2.761,6.57a4.048,4.048,0,0,0-.58,2.321C2.181,15.348,9.072,30,13.933,30c2.248,0,6.041-3.7,9.16-8.7" style="fill:#ff8700"/><path d="M20.823,2c4.5,0,9,.725,9,3.264,0,5.151-3.264,11.389-4.933,11.389-2.974,0-6.673-8.269-6.673-12.4,0-1.886.725-2.249,2.611-2.249" style="fill:#ff8700"/></svg>