<svg xmlns="http://www.w3.org/2000/svg" viewBox="0 0 32 32"><title>file_type_toml@2x</title><g id="toml"><path d="M22.45,4.4a2.73,2.73,0,0,1-.87,2.12,2.87,2.87,0,0,0-.25-1.38,2.72,2.72,0,0,0-.92-.79,5.61,5.61,0,0,1-1.1.2c-.37,0-.7-.24-1.07-.25a1.7,1.7,0,0,0-1.41.84,1.63,1.63,0,0,0,.62,2.06c1.27.8,2.89.8,4.11,1.71a4.54,4.54,0,0,1,1.77,3.64,4.06,4.06,0,0,1-2.48,3.38,6.09,6.09,0,0,1-3.07.45A1.5,1.5,0,0,0,16,17.75c0,1.79,0,3.58,0,5.37a1.31,1.31,0,0,0,.33.82c0,.19,0,.38,0,.57a6.11,6.11,0,0,1,1.15.23,2.55,2.55,0,0,1,.37.66,15.84,15.84,0,0,1,.77,1.39,1.53,1.53,0,0,1-.33.74c-.36,0-.71.07-1.07.11s-.54-.26-.74-.47h.61a2.44,2.44,0,0,0-.05-1.56,2.45,2.45,0,0,0-1.05-.69c-.09,1.3,0,2.61,0,3.91a21,21,0,0,1,5.17.48.73.73,0,0,1-.43.32,16.39,16.39,0,0,1-2.83.31,46.45,46.45,0,0,1-5.39-.07,5.59,5.59,0,0,1-2.23-.47,3.42,3.42,0,0,1,1.08-.33,33.78,33.78,0,0,1,4-.24c0-1.09,0-2.17,0-3.26a3.35,3.35,0,0,0-.39-1.29A8,8,0,0,0,12.25,23c-.41,0-.46-.52-.56-.83a19.17,19.17,0,0,0,2-3,5,5,0,0,0,1-2.29,6.41,6.41,0,0,1-1.94-.29,7.31,7.31,0,0,1,3.28-3.5c-2.22.71-3.64,2.82-4.42,4.92A5.82,5.82,0,0,1,11,14.6a8.07,8.07,0,0,0-.32,1.88,6.38,6.38,0,0,0-1.78,2,8,8,0,0,1,1.73-7,7,7,0,0,1,5.16-2.27c1.83,1.11,3.6,2.34,5.41,3.49a1.46,1.46,0,0,0,.38-.94A2.57,2.57,0,0,0,20.31,10c-1.16-.72-2.6-.85-3.72-1.64a3.44,3.44,0,0,1-.49-4.85,4.23,4.23,0,0,1,3-1.49c.93.51,1.79,1.17,2.71,1.72C22.08,3.9,22.46,4,22.45,4.4ZM13.71,20.45A5.11,5.11,0,0,0,12.89,22c0,.33.24.56.5.7q1,.54,1.94,1a5.15,5.15,0,0,0,.13-1.44c0-1.53,0-3.06,0-4.59A28.52,28.52,0,0,0,13.71,20.45Zm2.39,8.76-.26.41c1.07,0,2.25.32,3.22-.26A7.66,7.66,0,0,0,16.09,29.22Zm-3.6.2a6.92,6.92,0,0,0,3.12.22l-.22-.45A6.11,6.11,0,0,0,12.49,29.42Z" style="fill:#fe668d"/><path d="M18.17,29.41a1.73,1.73,0,0,0-1.42,0A1.61,1.61,0,0,0,18.17,29.41Z" style="fill:#fd7799"/><path d="M14.78,29.42a1.49,1.49,0,0,0-1.34,0A1.6,1.6,0,0,0,14.78,29.42Z" style="fill:#ff749c"/><path d="M15.62,29.64a6.92,6.92,0,0,1-3.12-.22,6.11,6.11,0,0,1,2.9-.22Zm-2.18-.22a1.6,1.6,0,0,0,1.34,0A1.49,1.49,0,0,0,13.44,29.42Z" style="fill:#ffe5ea"/><path d="M15.83,29.63l.26-.41a7.66,7.66,0,0,1,3,.15C18.09,29.94,16.9,29.61,15.83,29.63Zm.91-.21a1.61,1.61,0,0,0,1.42,0A1.73,1.73,0,0,0,16.75,29.42Z" style="fill:#fff3f5"/></g></svg>