<svg xmlns="http://www.w3.org/2000/svg" viewBox="0 0 5120 5120"><path d="M2560 160c1847.52 0 3002.22 2000 2078.46 3600C4209.742 4502.563 3417.437 4960 2560 4960 712.478 4960-442.222 2960 481.538 1360 910.257 617.437 1702.562 160 2559.999 160z"/><path fill="#fff" d="M2466.25 1518.437c-697.5 0-1241.25 439.688-1241.25 986.25 0 515.625 499.687 844.688 1274.062 828.75l23.437-.937 85.313-2.813-21.563 56.25 2.813 5.625a626.19 626.19 0 0116.875 44.063l1.875 5.625 2.812 9.375 3.75 13.125 2.813 8.437 3.75 9.375 2.812 10.313 3.75 15 4.688 15.937 2.812 10.313 4.688 16.875 4.687 17.812 3.75 17.813 4.688 18.75 3.75 13.125 4.687 20.625 4.688 20.625 6.562 28.125 2.813 15 4.687 22.5 4.688 23.437 5.625 24.375 6.562 34.688L2702.5 3835l7.5 39.375 3.75 19.687 6.563 30.938 5.625 31.875 7.5 43.125 8.437 45 7.5 46.875 8.438 47.812 8.437 48.75 8.438 50.625 8.437 52.5 6.563 40.313 10.312 68.437 4.688 28.125 11.25 72.188 8.437 59.062 7.5 45 8.438 61.875 4.687 30.938c514.688-68.438 972.188-317.813 1305.938-682.5l10.312-11.25-47.812-178.125-126.563-473.438-78.75-294.375-69.375-258.75-43.125-157.5-27.187-99.375-15.938-60-15-52.5-5.625-22.5-3.75-12.187-1.875-6.563-1.875-5.625c-73.125-235.312-214.687-443.437-407.812-594.375-226.875-177.187-514.688-270-850.313-270zm-613.126 2502.188c-60.937-16.875-124.687 18.75-142.5 79.687l-.937 2.813-105 390a2144.213 2144.213 0 00201.562 87.187l15.938 6.563 113.437-422.813.938-2.812c15-61.875-21.563-124.688-83.438-140.625zm653.438-285.938c-61.875-16.875-125.625 18.75-143.438 79.688l-.937 2.812-159.375 590.625v2.813c-18.602 88.272 65.329 163.58 151.076 135.554a117.19 117.19 0 0074.861-74.617l.938-2.812 159.375-590.625v-2.813l2.812-13.125.938-4.687-3.75-19.688-5.625-27.187-3.75-16.875a117.19 117.19 0 00-73.125-59.063zM1395.624 3126.25l-7.5 17.812-.937 3.75-159.375 590.625-.938 2.813c-21.053 87.72 60.749 165.336 147.242 139.708a117.186 117.186 0 0078.696-77.833l.937-2.813 144.375-536.25c-75-39.375-143.437-86.25-202.5-137.812zm-379.687-679.688c-61.875-15.937-125.625 19.688-143.438 79.688l-.937 2.812-159.375 590.625v2.813c-21.053 87.72 60.748 165.336 147.242 139.708a117.186 117.186 0 0078.695-77.833l.938-2.813 159.375-590.625v-2.812c15-61.875-21.563-124.688-82.5-141.563zM4588.749 2312.5c-60.937-15.938-124.687 19.687-142.5 79.687l-.937 2.813-159.375 590.625-.938 2.812c-23.815 87.325 55.831 167.684 143.364 144.646 40.625-10.69 72.458-42.243 83.511-82.77v-2.813l160.313-590.625v-3.75c15-60.938-21.563-123.75-83.438-140.625zM668.124 1524.062a2141.26 2141.26 0 00-250.312 785.625 116.251 116.251 0 0058.125 35.625c60.937 15.938 124.687-19.687 142.5-79.687l.937-2.813 159.375-590.625.938-2.812c15-61.875-21.563-124.688-83.438-141.563a119.092 119.092 0 00-28.125-3.75zm3517.5 3.75c-61.875-15.937-124.687 19.688-143.437 79.688v2.812l-159.375 590.625-.938 2.813c-21.053 87.72 60.749 165.336 147.242 139.708a117.186 117.186 0 0078.696-77.833l.937-2.813 159.375-590.625.938-2.812c15-61.875-22.5-124.688-83.438-141.563z"/><path d="M2616.25 1913.125c115.47 0 187.638 125 129.903 225-26.794 46.41-76.314 75-129.904 75-115.47 0-187.638-125-129.903-225 26.794-46.41 76.314-75 129.903-75z"/><path fill="#fff" d="M1361.874 966.25c-60.937-15.938-124.687 19.687-142.5 79.687l-.937 2.813-159.375 590.625-.938 2.812c-21.053 87.72 60.749 165.336 147.242 139.709a117.186 117.186 0 0078.696-77.834l.937-2.812 159.375-590.625.938-3.75c15-60.938-21.563-123.75-83.438-140.625zm2048.438 111.562c-61.875-15.937-125.625 19.688-143.438 79.688l-.937 2.812-106.875 397.5a1311.553 1311.553 0 01197.812 120l10.313 8.438 125.625-464.063v-2.812c15-61.875-21.563-124.688-82.5-141.563zm-1042.5-665.625a2155.288 2155.288 0 00-223.125 31.875l-15.938 2.813-148.125 550.312-.937 2.813c-18.602 88.272 65.329 163.58 151.076 135.554a117.19 117.19 0 0074.861-74.617l.938-2.812L2365.937 467.5l.937-2.813a116.247 116.247 0 00.938-52.5zM3834.062 820l-30.938 116.25-.937 2.812c-18.602 88.273 65.329 163.58 151.076 135.554a117.19 117.19 0 0074.861-74.616l.938-2.813 3.75-12.187a2167.341 2167.341 0 00-184.688-154.688L3834.062 820zm-927.188-388.125l-56.25 209.062-.937 2.813c-18.602 88.272 65.329 163.58 151.076 135.554a117.19 117.19 0 0074.861-74.617l.938-2.812 59.062-220.313a2143.333 2143.333 0 00-211.875-46.875l-16.875-2.812z"/></svg>