<svg viewBox="0 0 32 32" xmlns="http://www.w3.org/2000/svg"><path d="m15.676 2.771.109-.272.387 1.191 2.8 8.636.177.128 10.4-.028-1.339.981-3.775 2.7-3.389 2.444.128.518 2.626 7.968.468 1.466-8.468-6.125-.252.143-7.266 5.279-1.025.729 3.108-9.429.171-.5-.172-.145-6.464-4.655-.568-.393-1.332-.981 10.232.026.317-.013z" fill="#be564a"/><g fill="#dce1e2"><path d="m16.191 3.471.129.271 2.826 8.712-.177-.128-2.8-8.636.019-.219z"/><path d="m2.447 13.4.886.011.567.389 6.463 4.647.172.145-.171.5z"/><path d="m24.436 16.109 3.775-2.7 1.789-.009-8.543 6.152 3.281 9.948-8.521-6.173-8.511 6.173.576-1.7 7.265-5.276.252-.143 8.465 6.119-.464-1.463-2.621-7.965-.128-.518 3.389-2.444z"/></g></svg>