<svg xmlns="http://www.w3.org/2000/svg" viewBox="0 0 32 32"><title>file_type_storybook</title><g fill="none" fill-rule="nonzero"><path fill="#FFF" d="M21.005 5.002l.185-3.715 2.88-.18.231 3.895z"/><path d="M21.195 1.288l-.141 3.4a.224.224 0 0 0 .36.189l1.315-1.003 1.112.879a.224.224 0 0 0 .363-.185l-.13-3.461 1.66-.104a1.505 1.505 0 0 1 1.597 1.505v26.984a1.506 1.506 0 0 1-1.57 1.506l-20.067-.904a1.506 1.506 0 0 1-1.435-1.45L3.332 3.881A1.506 1.506 0 0 1 4.741 2.32l16.454-1.031z" fill="#FF4785"/><path d="M16.828 12.458c0 .611 3.76.318 4.265-.111 0-4.16-2.04-6.347-5.775-6.347-3.735 0-5.828 2.22-5.828 5.55 0 5.802 7.152 5.913 7.152 9.077 0 .888-.397 1.415-1.271 1.415-1.14 0-1.59-.637-1.537-2.801 0-.47-4.344-.616-4.477 0C9.02 24.487 12.007 26 15.424 26c3.311 0 5.907-1.932 5.907-5.429 0-6.217-7.258-6.05-7.258-9.131 0-1.25.847-1.416 1.35-1.416.53 0 1.484.103 1.405 2.434z" fill="#FFF"/></g></svg>
