<svg xmlns="http://www.w3.org/2000/svg" viewBox="0 0 32 32"><title>file_type_sino</title>
<path style=" stroke:none;fill-rule:nonzero;fill:rgb(0%,0%,100%);fill-opacity:1;" d="M 6.800781 4.101562 C 6.753906 4.238281 6.679688 4.328125 6.585938 4.4375 C 5.269531 6.003906 4.820312 8.175781 4.960938 10.167969 C 5.097656 11.636719 5.519531 13.015625 6.425781 14.195312 C 6.5 14.300781 6.5 14.300781 6.5 14.398438 L 6.648438 14.449219 C 6.730469 14.539062 6.730469 14.539062 6.8125 14.65625 C 7.214844 15.1875 7.730469 15.582031 8.265625 15.96875 L 8.351562 16.03125 C 8.488281 16.128906 8.621094 16.210938 8.769531 16.28125 L 8.898438 16.351562 L 8.898438 16.449219 C 8.984375 16.484375 9.066406 16.519531 9.148438 16.550781 C 9.296875 16.625 9.441406 16.710938 9.585938 16.789062 C 9.957031 17 10.332031 17.207031 10.726562 17.375 C 10.863281 17.433594 10.996094 17.5 11.132812 17.570312 C 11.316406 17.664062 11.503906 17.742188 11.699219 17.816406 C 12.050781 17.949219 12.402344 18.089844 12.753906 18.230469 C 13.199219 18.410156 13.648438 18.589844 14.097656 18.761719 C 14.8125 19.042969 15.519531 19.339844 16.222656 19.65625 C 16.378906 19.722656 16.535156 19.792969 16.695312 19.859375 C 18.140625 20.480469 19.6875 21.542969 20.300781 23.050781 C 20.742188 24.285156 20.710938 25.835938 20.15625 27.03125 C 19.996094 27.351562 19.816406 27.664062 19.601562 27.949219 L 19.492188 28.09375 C 19.101562 28.585938 18.628906 28.992188 18.050781 29.25 L 17.949219 29.25 L 17.949219 29.351562 C 17.820312 29.40625 17.820312 29.40625 17.640625 29.46875 L 17.546875 29.5 C 17.230469 29.609375 16.917969 29.707031 16.601562 29.800781 L 16.496094 29.832031 C 16.398438 29.859375 16.300781 29.878906 16.199219 29.898438 L 16.0625 29.929688 C 15.066406 30.09375 13.996094 30.050781 13 29.898438 L 12.820312 29.875 C 12.390625 29.804688 11.984375 29.667969 11.570312 29.527344 L 11.402344 29.46875 C 11.121094 29.371094 10.886719 29.277344 10.648438 29.101562 C 10.566406 29.0625 10.480469 29.027344 10.394531 28.992188 C 9.769531 28.71875 9.242188 28.265625 8.75 27.800781 L 8.617188 27.675781 C 8.28125 27.347656 7.988281 27 7.707031 26.625 C 7.660156 26.5625 7.609375 26.496094 7.558594 26.433594 C 7.40625 26.238281 7.285156 26.042969 7.167969 25.828125 C 7.117188 25.734375 7.066406 25.640625 7.011719 25.550781 C 6.339844 24.417969 5.941406 23.183594 5.648438 21.898438 L 5.609375 21.71875 C 5.371094 20.65625 5.371094 20.65625 5.425781 20.371094 L 5.398438 20.25 C 5.148438 20.164062 4.898438 20.136719 4.636719 20.203125 C 4.542969 20.242188 4.542969 20.242188 4.5 20.335938 C 4.421875 20.65625 4.457031 20.996094 4.46875 21.320312 C 4.472656 21.433594 4.472656 21.542969 4.476562 21.652344 C 4.480469 21.941406 4.488281 22.230469 4.496094 22.519531 C 4.507812 22.875 4.515625 23.226562 4.519531 23.578125 C 4.523438 23.855469 4.53125 24.128906 4.539062 24.402344 L 4.542969 24.554688 C 4.546875 24.648438 4.550781 24.746094 4.554688 24.839844 C 4.554688 24.941406 4.554688 25.046875 4.550781 25.148438 L 4.449219 25.148438 C 4.367188 25.050781 4.367188 25.050781 4.273438 24.914062 L 4.164062 24.765625 C 4.125 24.710938 4.089844 24.65625 4.050781 24.601562 L 3.992188 24.515625 C 3.859375 24.328125 3.730469 24.140625 3.601562 23.949219 L 3.5 23.808594 C 3.378906 23.617188 3.269531 23.425781 3.164062 23.226562 L 3.097656 23.109375 C 3.03125 22.988281 2.964844 22.871094 2.898438 22.75 L 2.839844 22.644531 C 2.65625 22.308594 2.480469 21.980469 2.347656 21.621094 C 2.296875 21.488281 2.238281 21.355469 2.179688 21.226562 C 1.707031 20.078125 1.390625 18.835938 1.25 17.601562 L 1.234375 17.46875 C 1.066406 15.960938 1.113281 14.472656 1.414062 12.984375 C 1.445312 12.828125 1.472656 12.667969 1.5 12.507812 C 1.578125 12.046875 1.710938 11.613281 1.859375 11.171875 C 1.898438 11.050781 1.9375 10.929688 1.976562 10.8125 C 2.097656 10.421875 2.230469 10.058594 2.425781 9.699219 C 2.488281 9.570312 2.542969 9.445312 2.59375 9.3125 C 2.695312 9.050781 2.824219 8.804688 2.960938 8.554688 L 3.035156 8.425781 C 3.222656 8.089844 3.429688 7.765625 3.648438 7.449219 L 3.734375 7.328125 C 4.453125 6.269531 5.316406 5.234375 6.332031 4.445312 C 6.457031 4.347656 6.457031 4.347656 6.585938 4.214844 C 6.699219 4.101562 6.699219 4.101562 6.800781 4.101562 Z M 6.800781 4.101562 "/>
<path style=" stroke:none;fill-rule:nonzero;fill:rgb(100%,0%,0%);fill-opacity:1;" d="M 19.601562 1.800781 L 19.707031 1.832031 C 20.515625 2.066406 21.355469 2.394531 22 2.949219 L 22.253906 3.152344 L 22.378906 3.253906 C 22.457031 3.316406 22.535156 3.375 22.617188 3.429688 L 22.699219 3.5 L 22.699219 3.601562 L 22.785156 3.644531 C 23.347656 3.925781 23.816406 4.808594 24.101562 5.351562 L 24.1875 5.503906 C 24.628906 6.28125 24.941406 7.132812 25.171875 7.996094 C 25.191406 8.070312 25.214844 8.144531 25.234375 8.21875 C 25.34375 8.605469 25.417969 8.992188 25.484375 9.382812 L 25.519531 9.578125 C 25.601562 10.101562 25.601562 10.101562 25.585938 10.199219 C 25.566406 10.320312 25.566406 10.320312 25.601562 10.5 C 25.804688 10.625 26.0625 10.609375 26.292969 10.585938 C 26.40625 10.558594 26.40625 10.558594 26.5 10.5 C 26.683594 10.171875 26.601562 9.699219 26.585938 9.339844 C 26.582031 9.222656 26.582031 9.101562 26.578125 8.984375 C 26.574219 8.671875 26.566406 8.355469 26.554688 8.042969 C 26.542969 7.660156 26.539062 7.28125 26.53125 6.898438 C 26.527344 6.601562 26.519531 6.304688 26.511719 6.007812 L 26.507812 5.84375 C 26.503906 5.742188 26.5 5.636719 26.496094 5.535156 L 26.492188 5.402344 L 26.488281 5.28125 L 26.5 5.199219 L 26.601562 5.199219 C 26.675781 5.277344 26.675781 5.277344 26.765625 5.382812 C 26.867188 5.503906 26.964844 5.617188 27.074219 5.726562 C 28.148438 6.800781 28.148438 6.800781 28.148438 7.148438 L 28.25 7.148438 C 28.335938 7.269531 28.421875 7.394531 28.5 7.519531 L 28.574219 7.632812 C 29.269531 8.734375 29.757812 9.878906 30.199219 11.101562 L 30.242188 11.21875 C 30.480469 11.890625 30.617188 12.597656 30.75 13.300781 L 30.777344 13.445312 C 31.050781 14.929688 31.003906 16.613281 30.75 18.101562 L 30.730469 18.230469 C 30.515625 19.507812 30.132812 20.804688 29.5625 21.96875 C 29.496094 22.101562 29.496094 22.101562 29.449219 22.265625 L 29.398438 22.398438 L 29.300781 22.398438 C 29.28125 22.5 29.265625 22.597656 29.25 22.699219 L 29.199219 22.800781 L 29.101562 22.800781 L 29.0625 22.917969 C 28.976562 23.167969 28.839844 23.378906 28.695312 23.601562 L 28.609375 23.742188 C 28.09375 24.558594 28.09375 24.558594 27.898438 24.800781 L 27.800781 24.800781 C 27.785156 24.835938 27.773438 24.871094 27.761719 24.90625 C 27.6875 25.085938 27.570312 25.203125 27.441406 25.339844 C 27.394531 25.390625 27.347656 25.4375 27.300781 25.488281 L 27.226562 25.566406 C 27.144531 25.65625 27.066406 25.746094 26.988281 25.839844 C 26.769531 26.085938 26.542969 26.320312 26.308594 26.554688 L 26.179688 26.6875 L 25.941406 26.925781 L 25.851562 27 L 25.75 26.949219 C 25.820312 26.84375 25.890625 26.742188 25.96875 26.640625 C 26.226562 26.292969 26.445312 25.933594 26.648438 25.550781 L 26.699219 25.457031 C 26.828125 25.207031 26.921875 24.957031 27.007812 24.691406 C 27.03125 24.613281 27.054688 24.535156 27.082031 24.457031 L 27.113281 24.355469 C 27.140625 24.277344 27.167969 24.203125 27.199219 24.128906 C 27.25 24 27.277344 23.882812 27.300781 23.75 L 27.328125 23.605469 L 27.351562 23.460938 L 27.378906 23.3125 C 27.761719 21.164062 27.464844 18.804688 26.199219 16.984375 L 26.101562 16.851562 L 26.011719 16.726562 C 25.183594 15.636719 24.074219 14.898438 22.890625 14.25 C 22.808594 14.207031 22.730469 14.160156 22.648438 14.113281 C 22.371094 13.953125 22.085938 13.832031 21.785156 13.71875 C 21.566406 13.636719 21.351562 13.546875 21.136719 13.453125 C 20.726562 13.277344 20.3125 13.125 19.890625 12.980469 C 19.59375 12.878906 19.296875 12.769531 19.007812 12.648438 C 18.824219 12.578125 18.644531 12.515625 18.457031 12.460938 C 18.109375 12.355469 17.765625 12.234375 17.421875 12.113281 C 17.320312 12.078125 17.222656 12.042969 17.121094 12.007812 C 16.726562 11.867188 16.335938 11.714844 15.949219 11.550781 C 15.882812 11.523438 15.820312 11.496094 15.753906 11.46875 C 15.460938 11.347656 15.179688 11.222656 14.90625 11.058594 C 14.792969 10.992188 14.792969 10.992188 14.636719 10.933594 C 14.429688 10.847656 14.246094 10.734375 14.054688 10.617188 L 13.949219 10.550781 C 13.710938 10.398438 13.496094 10.234375 13.292969 10.039062 C 13.207031 9.957031 13.121094 9.886719 13.027344 9.816406 C 12.238281 9.140625 11.78125 8.109375 11.664062 7.09375 C 11.566406 5.753906 11.769531 4.347656 12.671875 3.292969 C 12.824219 3.121094 12.980469 2.957031 13.148438 2.800781 L 13.25 2.800781 L 13.25 2.699219 C 13.351562 2.617188 13.351562 2.617188 13.484375 2.523438 L 13.617188 2.433594 C 13.75 2.351562 13.75 2.351562 13.878906 2.296875 C 14 2.257812 14 2.257812 14.089844 2.179688 C 14.253906 2.0625 14.433594 2.011719 14.625 1.949219 L 14.75 1.910156 C 14.867188 1.875 14.984375 1.835938 15.101562 1.800781 L 15.253906 1.75 C 16.550781 1.378906 18.316406 1.390625 19.601562 1.800781 Z M 19.601562 1.800781 "/>
<path style=" stroke:none;fill-rule:nonzero;fill:rgb(0%,100%,0%);fill-opacity:1;" d="M 11.550781 1.699219 C 11.550781 1.851562 11.550781 1.851562 11.417969 1.992188 C 11.359375 2.046875 11.300781 2.105469 11.242188 2.160156 C 11.003906 2.394531 10.792969 2.625 10.601562 2.898438 C 10.546875 2.96875 10.488281 3.039062 10.433594 3.109375 C 10.015625 3.648438 9.675781 4.207031 9.351562 4.804688 C 9.308594 4.882812 9.265625 4.960938 9.21875 5.035156 C 8.941406 5.503906 8.816406 6.066406 8.671875 6.585938 L 8.628906 6.734375 L 8.589844 6.871094 C 8.550781 7 8.550781 7 8.5 7.113281 C 8.382812 7.441406 8.390625 7.804688 8.390625 8.148438 L 8.390625 8.273438 C 8.390625 8.359375 8.390625 8.445312 8.390625 8.527344 C 8.390625 8.660156 8.390625 8.789062 8.390625 8.921875 C 8.386719 9.003906 8.386719 9.085938 8.386719 9.171875 L 8.386719 9.289062 C 8.386719 9.511719 8.417969 9.6875 8.5 9.898438 C 8.515625 9.976562 8.53125 10.054688 8.546875 10.132812 C 8.589844 10.367188 8.652344 10.59375 8.71875 10.824219 C 8.75 10.949219 8.75 10.949219 8.746094 11.089844 L 8.75 11.199219 L 8.851562 11.199219 C 8.890625 11.304688 8.890625 11.304688 8.929688 11.453125 C 9.027344 11.753906 9.15625 12.019531 9.3125 12.292969 C 9.410156 12.460938 9.464844 12.609375 9.5 12.800781 L 9.601562 12.800781 C 9.742188 12.984375 9.800781 13.0625 9.800781 13.300781 L 9.898438 13.300781 C 9.980469 13.402344 10.054688 13.507812 10.128906 13.617188 L 10.191406 13.707031 C 10.28125 13.835938 10.351562 13.949219 10.398438 14.101562 C 10.480469 14.183594 10.566406 14.269531 10.648438 14.351562 C 10.746094 14.449219 10.839844 14.554688 10.933594 14.65625 L 11.011719 14.742188 C 11.140625 14.878906 11.261719 15.015625 11.386719 15.152344 C 11.628906 15.421875 11.871094 15.667969 12.148438 15.898438 C 12.238281 15.976562 12.332031 16.054688 12.421875 16.128906 C 12.484375 16.183594 12.546875 16.238281 12.609375 16.292969 L 12.695312 16.367188 L 12.851562 16.5 L 12.945312 16.582031 L 13 16.648438 C 12.742188 16.640625 12.601562 16.613281 12.398438 16.449219 C 12.308594 16.414062 12.21875 16.382812 12.128906 16.351562 C 11.671875 16.171875 11.222656 15.949219 10.800781 15.699219 L 10.714844 15.648438 C 9.78125 15.097656 9.78125 15.097656 9.601562 14.949219 L 9.601562 14.851562 L 9.496094 14.8125 C 9.304688 14.730469 9.167969 14.609375 9.011719 14.472656 L 8.917969 14.390625 C 8.667969 14.171875 8.429688 13.941406 8.199219 13.699219 L 8.082031 13.582031 C 7.367188 12.851562 6.828125 11.964844 6.5 11 L 6.464844 10.902344 C 6.035156 9.566406 6.242188 7.914062 6.800781 6.648438 L 6.851562 6.53125 C 7.066406 6.050781 7.292969 5.582031 7.601562 5.148438 L 7.695312 5.015625 C 8.011719 4.566406 8.335938 4.125 8.761719 3.773438 C 8.917969 3.644531 9.054688 3.496094 9.195312 3.347656 L 9.300781 3.242188 L 9.398438 3.136719 C 9.507812 3.042969 9.613281 3.003906 9.75 2.949219 L 9.75 2.851562 C 9.84375 2.777344 9.84375 2.777344 9.96875 2.691406 C 10.015625 2.660156 10.058594 2.628906 10.109375 2.597656 L 10.25 2.5 C 10.332031 2.441406 10.414062 2.382812 10.496094 2.320312 C 10.714844 2.167969 10.9375 2.042969 11.171875 1.917969 C 11.304688 1.851562 11.304688 1.851562 11.441406 1.757812 Z M 20.550781 16 C 20.886719 16.039062 21.167969 16.277344 21.433594 16.472656 C 21.542969 16.546875 21.625 16.570312 21.75 16.601562 L 21.75 16.699219 C 21.816406 16.734375 21.882812 16.765625 21.949219 16.800781 C 22.054688 16.875 22.15625 16.953125 22.257812 17.03125 L 22.34375 17.097656 C 22.402344 17.144531 22.460938 17.191406 22.519531 17.238281 C 22.589844 17.289062 22.660156 17.34375 22.730469 17.398438 C 23.425781 17.941406 24 18.550781 24.519531 19.265625 L 24.582031 19.351562 C 24.898438 19.800781 24.898438 19.800781 24.898438 20 L 25 20 C 25.195312 20.335938 25.316406 20.71875 25.445312 21.085938 C 25.476562 21.179688 25.507812 21.273438 25.546875 21.367188 C 25.917969 22.347656 25.851562 23.648438 25.601562 24.648438 L 25.574219 24.761719 C 25.285156 25.90625 24.8125 26.945312 24.050781 27.851562 L 23.902344 28.03125 C 23.027344 29.089844 21.859375 29.859375 20.601562 30.398438 L 20.484375 30.449219 C 19.109375 31.035156 19.109375 31.035156 18.675781 30.984375 L 18.601562 30.949219 C 18.671875 30.886719 18.671875 30.886719 18.8125 30.808594 L 18.960938 30.71875 L 19.125 30.625 C 19.519531 30.394531 19.894531 30.160156 20.25 29.875 C 20.351562 29.800781 20.351562 29.800781 20.449219 29.800781 L 20.449219 29.699219 C 20.558594 29.605469 20.671875 29.511719 20.789062 29.425781 L 20.882812 29.347656 C 21.125 29.164062 21.125 29.164062 21.257812 29.097656 C 21.378906 29.035156 21.394531 28.972656 21.449219 28.851562 C 21.515625 28.777344 21.515625 28.777344 21.601562 28.699219 L 21.726562 28.570312 C 21.851562 28.449219 21.851562 28.449219 22 28.398438 C 22.035156 28.335938 22.070312 28.269531 22.101562 28.199219 C 22.15625 28.125 22.210938 28.050781 22.269531 27.976562 L 22.363281 27.859375 C 22.425781 27.777344 22.492188 27.699219 22.554688 27.621094 C 22.664062 27.480469 22.753906 27.332031 22.84375 27.179688 L 22.898438 27.101562 L 23 27.101562 L 23.023438 26.988281 C 23.054688 26.832031 23.105469 26.773438 23.199219 26.648438 C 23.277344 26.488281 23.335938 26.320312 23.398438 26.148438 L 23.460938 25.988281 C 23.617188 25.566406 23.746094 25.140625 23.851562 24.699219 L 23.882812 24.5625 C 24.148438 23.296875 23.984375 21.410156 23.300781 20.300781 C 23.273438 20.234375 23.246094 20.171875 23.222656 20.105469 L 23.183594 19.996094 C 23.167969 19.957031 23.15625 19.921875 23.140625 19.882812 C 22.933594 19.335938 22.675781 18.835938 22.351562 18.351562 L 22.261719 18.191406 C 22.113281 17.929688 21.929688 17.691406 21.75 17.449219 L 21.640625 17.300781 C 21.351562 16.90625 21.046875 16.539062 20.699219 16.199219 C 20.601562 16.101562 20.601562 16.101562 20.550781 16 Z M 20.550781 16 "/>
<path style=" stroke:none;fill-rule:nonzero;fill:rgb(100%,100%,100%);fill-opacity:1;" d="M 19.949219 3.101562 L 20.101562 3.148438 L 20.101562 3.25 L 20.21875 3.285156 C 20.636719 3.433594 20.964844 3.746094 21.285156 4.042969 C 21.402344 4.152344 21.402344 4.152344 21.539062 4.257812 L 21.648438 4.351562 L 21.648438 4.449219 L 21.738281 4.492188 C 21.882812 4.566406 21.945312 4.664062 22.039062 4.800781 L 22.128906 4.933594 C 22.199219 5.050781 22.199219 5.050781 22.199219 5.148438 C 22.050781 5.101562 22.050781 5.101562 21.953125 4.976562 C 21.75 4.71875 21.46875 4.539062 21.199219 4.351562 C 21.167969 4.324219 21.132812 4.300781 21.097656 4.277344 C 20.828125 4.085938 20.566406 3.964844 20.253906 3.867188 L 20.113281 3.820312 C 19 3.476562 17.828125 3.414062 16.699219 3.75 L 16.546875 3.792969 C 15.703125 4.066406 14.914062 4.710938 14.488281 5.488281 C 14.132812 6.28125 14.082031 7.125 14.363281 7.945312 C 14.664062 8.6875 15.195312 9.433594 15.902344 9.835938 C 15.933594 9.855469 15.964844 9.878906 16 9.898438 C 15.851562 9.949219 15.851562 9.949219 15.734375 9.894531 L 15.605469 9.808594 C 15.441406 9.703125 15.28125 9.625 15.101562 9.550781 C 14.800781 9.371094 14.539062 9.152344 14.28125 8.921875 L 14.207031 8.855469 C 14.039062 8.699219 13.917969 8.539062 13.800781 8.351562 L 13.710938 8.222656 C 13.171875 7.402344 12.957031 6.492188 13.132812 5.515625 C 13.324219 4.839844 13.6875 4.277344 14.199219 3.800781 C 14.265625 3.765625 14.332031 3.730469 14.398438 3.699219 L 14.398438 3.601562 C 14.785156 3.316406 15.203125 3.121094 15.648438 2.949219 L 15.8125 2.875 C 16.03125 2.78125 16.253906 2.746094 16.488281 2.714844 L 16.625 2.695312 C 17.785156 2.550781 18.851562 2.71875 19.949219 3.101562 Z M 15.550781 21.199219 C 16.480469 21.269531 17.492188 21.898438 18.113281 22.570312 C 18.839844 23.453125 19.03125 24.328125 18.949219 25.449219 C 18.816406 26.339844 18.199219 27.140625 17.496094 27.664062 C 17.347656 27.765625 17.199219 27.859375 17.050781 27.949219 L 16.921875 28.035156 C 16.625 28.226562 16.34375 28.320312 16 28.398438 L 15.691406 28.480469 C 14.5 28.789062 13.175781 28.691406 12.101562 28.101562 C 12.035156 28.070312 11.96875 28.042969 11.902344 28.015625 C 11.757812 27.953125 11.628906 27.890625 11.5 27.800781 L 11.5 27.699219 L 11.398438 27.664062 C 11.1875 27.574219 11.046875 27.429688 10.882812 27.273438 L 10.785156 27.183594 C 10.609375 27.019531 10.609375 27.019531 10.550781 26.949219 L 10.550781 26.851562 C 10.707031 26.910156 10.835938 27.011719 10.972656 27.113281 C 11.507812 27.488281 12.070312 27.660156 12.699219 27.800781 L 12.792969 27.828125 C 14 28.089844 15.328125 27.671875 16.351562 27.050781 C 16.457031 26.972656 16.550781 26.886719 16.648438 26.800781 L 16.75 26.800781 L 16.75 26.699219 C 16.808594 26.640625 16.867188 26.582031 16.925781 26.523438 L 17.070312 26.378906 C 17.585938 25.832031 17.828125 25.085938 17.820312 24.351562 L 17.820312 24.199219 C 17.816406 23.433594 17.5 22.769531 16.972656 22.21875 C 16.761719 22.015625 16.535156 21.828125 16.300781 21.648438 L 16.199219 21.570312 C 16.046875 21.464844 15.878906 21.410156 15.707031 21.347656 C 15.601562 21.300781 15.601562 21.300781 15.550781 21.199219 Z M 15.550781 21.199219 "/>
</svg>
