<svg viewBox="0 0 32 32" xmlns="http://www.w3.org/2000/svg"><g fill="#4488d3"><path d="m18.787 27.148h-9.115l7.213-18.755h3.454l-5.902 15.345h5.683z"/><path d="m2 19.344 1.2-3.3a4.129 4.129 0 0 0 1.53 1.137 4.89 4.89 0 0 0 1.989.372 5.9 5.9 0 0 0 1.137-.109 3.6 3.6 0 0 0 .9-.306 1.8 1.8 0 0 0 .634-.481 1.685 1.685 0 0 0 .372-.59 1.172 1.172 0 0 0 .038-.767 1.66 1.66 0 0 0 -.437-.634 5.171 5.171 0 0 0 -.809-.568c-.328-.175-.678-.372-1.071-.546a3.814 3.814 0 0 1 -1.945-1.771 3.349 3.349 0 0 1 .066-2.514 6.006 6.006 0 0 1 1.18-1.989 6.879 6.879 0 0 1 1.773-1.378 8.121 8.121 0 0 1 2.143-.785 10.318 10.318 0 0 1 2.317-.262 13.481 13.481 0 0 1 2.011.131 5.655 5.655 0 0 1 1.486.437l-1.114 3.079a2.5 2.5 0 0 0 -.656-.459 4.246 4.246 0 0 0 -.787-.328 6 6 0 0 0 -.852-.2 6.317 6.317 0 0 0 -1.924.066 3.6 3.6 0 0 0 -.9.306 2.534 2.534 0 0 0 -.678.481 1.834 1.834 0 0 0 -.393.612.992.992 0 0 0 -.044.656 1.606 1.606 0 0 0 .35.568 3.877 3.877 0 0 0 .7.525 10.049 10.049 0 0 0 .984.525 7.434 7.434 0 0 1 1.311.787 3.531 3.531 0 0 1 .874.94 2.2 2.2 0 0 1 .328 1.2 4.528 4.528 0 0 1 -.306 1.574 5.876 5.876 0 0 1 -1.224 2.077 6.589 6.589 0 0 1 -1.771 1.355 7.771 7.771 0 0 1 -2.142.743 11.943 11.943 0 0 1 -2.339.219 12.16 12.16 0 0 1 -2.251-.2 5.027 5.027 0 0 1 -1.68-.603z"/><path d="m17.738 17.2-1.049 2.71h1.989a10.989 10.989 0 0 0 6.492-2.077 11.394 11.394 0 0 0 4.175-5.53q2.623-7.213-5.268-7.213h-5.246l-.984 2.71h4.984a3.319 3.319 0 0 1 2.995 1.224 3.706 3.706 0 0 1 .022 3.322 7.675 7.675 0 0 1 -2.514 3.541 6.179 6.179 0 0 1 -3.869 1.313z"/></g></svg>