<svg xmlns="http://www.w3.org/2000/svg" viewBox="0 0 32 32"><title>file_type_platformio</title><path d="M21.357,8.222,22.2,5.285a1.656,1.656,0,0,0,1.539-1.627,1.691,1.691,0,0,0-3.381,0,1.624,1.624,0,0,0,.821,1.4L20.35,7.94a18.632,18.632,0,0,0-4.361-.54l-.37.16V29.881l.37.119C18.219,30,27.976,23.484,28,16.491,28,11.481,24.556,9.232,21.357,8.222Z" style="fill:#d06e35"/><path d="M19.008,22.6c-1.9-2.94-1.1-9.783,3.873-10.761a3.241,3.241,0,0,1,3.524,2.579C27.646,18.5,20.341,24.213,19.008,22.6Z" style="fill:#fff"/><path d="M21.992,16.3a1.49,1.49,0,1,0,1.54,1.489A1.517,1.517,0,0,0,21.992,16.3Z" style="fill:#d06e35"/><path d="M22.452,17.674a.376.376,0,1,1,.389-.376.383.383,0,0,1-.389.375Z" style="fill:#fff"/><path d="M11.61,8.008l-.823-2.995a1.617,1.617,0,0,0,.784-1.378,1.691,1.691,0,0,0-3.381,0A1.662,1.662,0,0,0,9.872,5.269l.825,3C7.485,9.3,4,11.558,4,16.491,4.071,23.622,13.759,30,15.989,30V7.4A19.046,19.046,0,0,0,11.61,8.008Z" style="fill:#f17b36"/><path d="M13.31,22.6c-1.333,1.616-8.639-4.1-7.4-8.182a3.241,3.241,0,0,1,3.53-2.579c4.972.978,5.776,7.821,3.873,10.764Z" style="fill:#fff"/><path d="M10.23,16.345a1.49,1.49,0,1,0,1.54,1.489A1.517,1.517,0,0,0,10.23,16.345Z" style="fill:#f17b36"/><path d="M9.77,17.719a.376.376,0,1,1,.389-.376.382.382,0,0,1-.388.376Z" style="fill:#fff"/></svg>