<svg width="32" height="32" fill="none" xmlns="http://www.w3.org/2000/svg"><path d="M26.962 10.955c-.189.193-.327.363-.433.516.01 1.577.036 4.648.048 5.085.069 2.661-.971 4.94-3.18 6.964-.307.28-.624.54-.951.8.302-.24-.704.616-2.354 1.602a22.983 22.983 0 01-3.7 1.685c-2.741-.983-5.014-2.322-6.94-4.087-.349-.32-.666-.646-.957-.979l-.012-.014a9.88 9.88 0 01-1.023-1.393l.006-.004-.432-.592c-1.258-.253-2.337-.953-3.034-1.911.09.527.215 1.042.383 1.545.319.9.425 1.081.978 2.09.61 1 1.403 1.95 2.39 2.854 2.273 2.084 4.963 3.636 8.225 4.743l.416.141.416-.141c3.33-1.131 6.042-2.683 8.29-4.743 2.71-2.484 3.985-5.301 3.898-8.613-.008-.312-.015-4.686-.02-8.503a11.01 11.01 0 01-.407.87c-.37.698-.939 1.406-1.607 2.085z" fill="url(#prefix__paint0_linear)"/><path d="M28.996 3v1.506l.002.096v.51L29 6.847l-.012.035c-.141.39-.276.762-.3.82l-.052.126c-.176.418-.36.846-.58 1.243l-.043.078c-.356.622-.875 1.24-1.451 1.782l-.067.066a3.791 3.791 0 01-.133.129l-.074.07c-.671.624-1.39 1.198-2.245 1.622l-.141.07c-.334.168-.665.337-1.009.483l-.026.01c-.334.143-.36.144-.362.46v9.542l-.042.03A26.328 26.328 0 0120.162 25v-7.598l-.001-.348V15.262l-.001-.094v-.033c-.003-.139-.018-.281-.03-.48l-.047.017c-.166.066-.293.106-.409.165l-.859.44c-.573.295-1.144.59-1.718.882l-.88.447c-.881.445-1.764.888-2.642 1.338l-.008.004c-.228.116-1.439.742-2.939 1.517l-.002-.009-.08.046c-.24.133-.496.244-.765.334l-.008.003H9.77l-.08.025c-.438.135-.893.206-1.35.21h-.177a4.78 4.78 0 01-.716-.072l-.057-.011-.057-.013-.095-.02a5.374 5.374 0 01-.464-.13l-.056-.018-.057-.02v.001l-.051-.017C5.037 19.202 4 17.859 4 16.254v-.068c.002-.046.003-.09.007-.136v-.065h.005l.005-.055c.13-1.38 1.083-2.552 2.422-3.123l.069-.03a4.716 4.716 0 011.725-.342h.028l.027-.001h.066c1.4.02 2.638.637 3.405 1.577l.032.033c.073.077.135.163.181.256l.036.053.035.055-.02.009.013.038a.97.97 0 01.042.284v.03c-.019.58-.551 1.044-1.205 1.044h-.042a1.246 1.246 0 01-.966-.483l-.012.004-.027-.035a1.903 1.903 0 00-1.192-.686l-.056-.01a2.082 2.082 0 00-.29-.02h-.043c-.913.018-1.664.62-1.807 1.402l-.008.054a1.49 1.49 0 00-.012.111l-.001.187.002.037c.07.866.879 1.551 1.869 1.551h.063a2.14 2.14 0 00.537-.088l.007-.003.008-.003c.34-.13 7.005-3.466 7.403-3.668l-.009-.004c-.217-.084-2.057-.595-2.808-.94l-.108-.049c-1.034-.486-1.969-1.09-2.784-1.852l-.085-.081a9.89 9.89 0 01-1.715-2.134l-.014-.023c-.106-.166-.245-.244-.483-.241h-.02l-.718.002h-.693l-.036.001H6.41v1.633c-.018.57-.542 1.027-1.186 1.027h-.07c-.639-.016-1.151-.483-1.151-1.058V3h24.994zm-2.409 2.145H6.41v1.609h.035v.003h3.402c.35.002.35.02.494.35l.034.078c.65 1.452 1.627 2.676 3.083 3.589l.098.06c.644.39 1.332.685 2.066.925l.096.031c1.034.324 2.091.419 3.172.37l.107-.005a8.466 8.466 0 002.094-.383l.12-.04c.558-.183 1.089-.4 1.6-.673l.095-.051a8.295 8.295 0 001.687-1.254l.07-.066a6.702 6.702 0 001.268-1.636l.066-.122c.196-.364.389-.722.585-1.12v-.027l.007-1.638h-.002zM18.351 6.83h.29c2.32.003 4.553.023 4.745.065l-.023.07a4.278 4.278 0 01-1.029 1.643l-.05.051c-.967.964-2.204 1.505-3.643 1.596l-.078.004c-2.58.128-4.902-1.53-5.304-3.364.144-.038 2.073-.059 4.21-.063h.366l.22-.001.296-.001z" fill="#EF4922"/><defs><linearGradient id="prefix__paint0_linear" x1="29" y1="13.17" x2="7.343" y2="26.21" gradientUnits="userSpaceOnUse"><stop stop-color="#EF4922"/><stop offset="1" stop-color="#EF4922"/></linearGradient></defs></svg>