<svg xmlns="http://www.w3.org/2000/svg" xmlns:xlink="http://www.w3.org/1999/xlink" viewBox="0 0 32 32"><defs><clipPath id="a"><path d="M23.62,8.25a.64.64,0,0,0-.74-.51h0a.61.61,0,0,0-.34.17l-3.31,3.32-2.56-5A.63.63,0,0,0,15.82,6h0a.62.62,0,0,0-.27.26L14.13,9,10.55,2.33a.63.63,0,0,0-.86-.25.62.62,0,0,0-.32.46L5.88,24.59l9.22,5.17a2,2,0,0,0,1.86,0l9.34-5.17Z" style="fill:none"/></clipPath><linearGradient id="b" x1="9.89" y1="15.04" x2="8.62" y2="14.37" gradientTransform="translate(0 2)" gradientUnits="userSpaceOnUse"><stop offset="0" stop-color="#a52a22"/><stop offset="0.4" stop-color="#a52a22" stop-opacity="0.5"/><stop offset="0.8" stop-color="#a52a22" stop-opacity="0"/></linearGradient><linearGradient id="c" x1="15.29" y1="13.2" x2="14.71" y2="12.63" gradientTransform="translate(0 2)" gradientUnits="userSpaceOnUse"><stop offset="0" stop-color="#a52a22" stop-opacity="0.8"/><stop offset="0.5" stop-color="#a52a22" stop-opacity="0.21"/><stop offset="1" stop-color="#a52a22" stop-opacity="0"/></linearGradient><linearGradient id="d" x1="5.35" y1="4.94" x2="26.63" y2="26.21" gradientTransform="translate(0 2)" gradientUnits="userSpaceOnUse"><stop offset="0" stop-color="#fff" stop-opacity="0.1"/><stop offset="1" stop-color="#fff" stop-opacity="0"/></linearGradient></defs><title>file_type_light_firebasehosting</title><g style="clip-path:url(#a)"><path d="M5.88,24.59l3.49-22a.64.64,0,0,1,.7-.55h0a.62.62,0,0,1,.46.32L14.13,9l1.42-2.71A.63.63,0,0,1,16.4,6h0a.57.57,0,0,1,.27.26l9.62,18.33Z" style="fill:#f9a01b"/><path d="M17.7,2.16.83.73V31.27l5.05-6.68Z" style="opacity:0.11999999731779099;isolation:isolate;fill:url(#b)"/><path d="M17.83,16,14.1,9,5.88,24.59Z" style="fill:#f47d20"/><path d="M.83.73H31.39V31.27H.83Z" style="opacity:0.20000000298023224;isolation:isolate;fill:url(#c)"/><path d="M26.29,24.59,23.62,8.25a.64.64,0,0,0-.74-.51h0a.61.61,0,0,0-.34.17L5.88,24.59l9.22,5.17a1.87,1.87,0,0,0,1.86,0Z" style="fill:#ffcb2a"/><path d="M23.62,8.25a.64.64,0,0,0-.74-.51h0a.61.61,0,0,0-.34.17l-3.31,3.32-2.56-5A.63.63,0,0,0,15.82,6h0a.62.62,0,0,0-.27.26L14.13,9,10.55,2.33a.63.63,0,0,0-.86-.25.62.62,0,0,0-.32.46L5.88,24.59h0l.1,0L19.26,11.39l3.31-3.32A.64.64,0,0,1,23.46,8a.12.12,0,0,0,.05.05.68.68,0,0,1,.17.35L26.31,24.6h0ZM5.88,24.56,9.37,2.7a.64.64,0,0,1,.74-.52.62.62,0,0,1,.44.31l3.57,6.65,1.42-2.71a.62.62,0,0,1,.85-.26h0a.59.59,0,0,1,.28.26l2.54,4.85Z" style="fill:#fff;fill-opacity:0.20000000298023224"/><path d="M17,29.6a1.89,1.89,0,0,1-1.87,0L6,24.45v.14l9.21,5.17a2,2,0,0,0,1.87,0l9.33-5.17v-.14Z" style="fill:#a52a22;opacity:0.20000000298023224;isolation:isolate"/><path d="M23.62,8.25a.64.64,0,0,0-.74-.51h0a.61.61,0,0,0-.34.17l-3.31,3.32-2.56-5A.63.63,0,0,0,15.82,6h0a.62.62,0,0,0-.27.26L14.13,9,10.55,2.33a.63.63,0,0,0-.86-.25.62.62,0,0,0-.32.46L5.88,24.59l9.22,5.17a2,2,0,0,0,1.86,0l9.34-5.17Z" style="fill:url(#d)"/></g><circle cx="23.75" cy="23.63" r="6.37" style="fill:#767676"/><path d="M23.75,20.45a3.19,3.19,0,1,0,3.18,3.18h0A3.18,3.18,0,0,0,23.75,20.45Zm-.32,5.71a2.55,2.55,0,0,1-2.23-2.53,2.78,2.78,0,0,1,.07-.57l1.52,1.53v.32a.64.64,0,0,0,.64.64Zm2.2-.83a.65.65,0,0,0-.61-.44H24.7V24a.32.32,0,0,0-.32-.32H22.47V23h.64a.32.32,0,0,0,.32-.32v-.63h.64a.64.64,0,0,0,.63-.64v-.13a2.55,2.55,0,0,1,1.41,3.32,2.64,2.64,0,0,1-.47.75Z" style="fill:#fff;fill-rule:evenodd"/></svg>