<svg xmlns="http://www.w3.org/2000/svg" xmlns:xlink="http://www.w3.org/1999/xlink" viewBox="0 0 32 32"><defs><radialGradient id="a" cx="254.124" cy="-806.15" r="11.394" gradientTransform="matrix(1.783, 0.144, 0.098, -1.218, -355.706, -1000.523)" gradientUnits="userSpaceOnUse"><stop offset="0" stop-color="#0663b4"/><stop offset="1" stop-color="#16adff" stop-opacity="0.685"/></radialGradient><linearGradient id="b" x1="255.24" y1="-1199.517" x2="255.24" y2="-1195.084" gradientTransform="matrix(1, 0, 0, -1, -250.518, -1191.956)" gradientUnits="userSpaceOnUse"><stop offset="0" stop-color="#047fc7"/><stop offset="1" stop-color="#11abe8"/></linearGradient></defs><title>file_type_nuget</title><rect x="6.278" y="5.85" width="23.722" height="23.722" rx="7.7" ry="7.7" style="fill:#c7ebf1"/><rect x="6.744" y="6.55" width="22.789" height="22.556" rx="7.294" ry="7.294" style="opacity:0.823008835315704;isolation:isolate;fill:url(#a)"/><rect x="8.037" y="8.45" width="19.427" height="19.427" rx="6.087" ry="6.087" style="fill:#016fd2"/><path d="M29.505,13.284A7.289,7.289,0,0,0,22.239,6.55h-8.2a7.294,7.294,0,0,0-7.294,7.294v7.968c0,.165.014.326.025.489.521.028,1.046.043,1.574.043A29.191,29.191,0,0,0,29.505,13.284Z" style="fill:#5fffe6;opacity:0.172566369175911"/><path d="M26.5,21.872a4.978,4.978,0,1,1-9.956,0v0a4.978,4.978,0,1,1,9.956,0Z" style="fill:#fff"/><path d="M15.222,12.772a2.878,2.878,0,0,1-5.756,0v0a2.878,2.878,0,0,1,5.756,0Z" style="fill:#fff"/><path d="M7.444,5.15A2.722,2.722,0,1,1,2,5.15H2a2.722,2.722,0,1,1,5.444,0Z" style="fill:#cbedf2;fill-opacity:0.925490200519562"/><path d="M6.822,5.15a2.1,2.1,0,0,1-4.2,0h0a2.1,2.1,0,0,1,4.2,0Z" style="fill:url(#b)"/></svg>