<svg xmlns="http://www.w3.org/2000/svg" viewBox="0 0 32 32"><title>file_type_hy</title><path d="M15.093,3a7.334,7.334,0,0,0-4.837,1.4C8.6,5.706,7.174,7.988,5.7,12.076h0v0l-1.61,4.514h0v0A33.615,33.615,0,0,0,2.079,23.49a5.744,5.744,0,0,0,.5,3.623A4.093,4.093,0,0,0,6.121,29h9.117l-.993-2.889H6.177c-2.75,0-.728-4.789.6-8.538C10.017,8.206,10.657,6.1,15.093,5.889h1.85L15.913,3Zm0,3.611a4.328,4.328,0,0,0-3.9,2.14c-2.531,5.214-3.56,8.937-5.287,13.779-.358,1.347-.676,2.882.88,2.882l1.141-.023,3.435-9.632,2.146,6.021H16.55L12.909,11.564c.385-.909,1.13-2.038,2.184-2.064h3.14L17.2,6.611ZM16.907,29a7.334,7.334,0,0,0,4.837-1.4c1.661-1.31,3.082-3.592,4.557-7.68h0v0l1.61-4.514h0v0A33.615,33.615,0,0,0,29.921,8.51a5.744,5.744,0,0,0-.5-3.623A4.093,4.093,0,0,0,25.879,3H16.762l.993,2.889h8.068c2.75,0,.728,4.789-.6,8.538-3.237,9.367-3.877,11.471-8.313,11.684h-1.85L16.087,29Zm0-3.611a4.328,4.328,0,0,0,3.9-2.14c2.531-5.214,3.56-8.937,5.287-13.779.358-1.347.676-2.882-.88-2.882l-1.141.023-3.435,9.632-2.146-6.021H15.45l3.641,10.214c-.385.909-1.13,2.038-2.184,2.064h-3.14l1.03,2.889Z" style="fill:#324b64"/></svg>