<svg viewBox="0 0 32 32" xmlns="http://www.w3.org/2000/svg"><path d="m12.509 17.193c-.165-6.836-.325-12.455-.357-12.487a7.916 7.916 0 0 0 -2.273 1.168 7.606 7.606 0 0 0 -2.555 3.314 8.422 8.422 0 0 0 -.587 3.543 4.665 4.665 0 0 0 .2 1.962 3.417 3.417 0 0 1 .182.56c-.012.009-.338-.018-.724-.061-1.868-.207-2.786-1.05-3-2.757a6.312 6.312 0 0 1 1.455-4.716 15.134 15.134 0 0 1 8.414-5.163 12.891 12.891 0 0 1 2.542-.235l1.748-.05.059 2.506c.032 1.378.1 6.358.161 11.067s-.252 8.29-.219 8.4c1.945-6.365 4.445-11.171 6.812-17.991l1.427-3.983h2.746c-.022.063-2.751 6.5-5.514 13.916l-5.473 13.55h-4.577c0-1.83-.441-11.25-.467-12.543z" fill="#403757"/><path d="m17.732 30h-5.019v-.263c0-1.137-.17-5.192-.307-8.452-.081-1.929-.15-3.6-.161-4.087-.156-6.479-.286-11-.336-12.163a11.674 11.674 0 0 0 -1.874 1.049 7.348 7.348 0 0 0 -2.466 3.2 8.146 8.146 0 0 0 -.569 3.447 4.37 4.37 0 0 0 .185 1.869c.215.569.273.723.1.859-.093.073-.107.084-.916-.007-1.976-.219-3-1.167-3.234-2.986a6.568 6.568 0 0 1 1.505-4.905 15.439 15.439 0 0 1 8.56-5.261 13.176 13.176 0 0 1 2.6-.242l2.011-.058.065 2.77c.032 1.392.106 6.461.161 11.07.031 2.616-.052 4.915-.124 6.43.931-2.763 1.958-5.27 3.033-7.9 1.043-2.547 2.122-5.18 3.173-8.207l1.491-4.16h3.3l-.125.351c0 .007-.031.076-.084.2-1.1 2.622-3.259 7.889-5.43 13.717zm-4.495-.526h4.14l5.407-13.386c2.124-5.7 4.243-10.876 5.362-13.555h-2.167l-1.365 3.809c-1.055 3.038-2.137 5.678-3.183 8.231-1.311 3.2-2.55 6.226-3.626 9.747l-.255.831-.248-.833a3.274 3.274 0 0 1 .021-.839c.074-1.35.229-4.158.188-7.633-.055-4.607-.129-9.674-.161-11.064l-.05-2.241-1.484.043a12.729 12.729 0 0 0 -2.49.228 14.887 14.887 0 0 0 -8.266 5.065 6.071 6.071 0 0 0 -1.4 4.524c.2 1.58 1.028 2.336 2.77 2.529l.333.035c-.019-.054-.041-.114-.066-.179a4.893 4.893 0 0 1 -.219-2.055 8.7 8.7 0 0 1 .6-3.638 7.883 7.883 0 0 1 2.644-3.43c.022-.016 2.232-1.525 2.615-1.142.092.092.131.131.433 12.666.01.485.08 2.149.16 4.076.13 3.05.287 6.797.307 8.211z" fill="#c8c8c8"/></svg>