<svg xmlns="http://www.w3.org/2000/svg" viewBox="0 0 32 32"><title>file_type_libreoffice_draw</title><path fill="#D9AB0A" d="M5.77 2h-.16c-.8.16-1 .5-.98 1.32v25.37c0 .91.4 1.31 1.3 1.31h20.13c.92 0 1.31-.4 1.31-1.31V12.98c.01-.46-.17-.93-.49-1.26L17.66 2.5c-.33-.32-.8-.5-1.26-.5H5.77zM21.1 2a.9.9 0 0 0-.14.01c-.58.19-.78 1.08-.33 1.5l5.27 5.3c.49.46 1.46.06 1.48-.62V2.9a.91.91 0 0 0-.87-.88h-5.27a.9.9 0 0 0-.14 0z"/><path fill="#f3f3f3" d="M5.94 3.31V28.7h20.12V12.94L16.44 3.3z"/><circle cx="13.16" cy="18.19" r="4.16" fill="#f9cfb5" stroke="#d36118" stroke-width=".44"/><rect fill="#aadcf7" stroke="#1c99e0" stroke-width=".44" x="15.8" width="6.6" y="16.8" height="6.6" /><path fill="#fde9a9" stroke="#e9b913" stroke-width=".44" d="M18.6 25.2H9.8l4.4-6.6z"/><path fill="#ccf4c6" stroke="#43c330" stroke-linecap="square" stroke-width=".22" d="M18.08 24.86h1.1v1.1h-1.1zm-8.75 0h1.1v1.1h-1.1zm4.37-7h1.1v1.1h-1.1z"/></svg>