<svg xmlns="http://www.w3.org/2000/svg" viewBox="0 0 32 32"><title>file_type_ng_smart_component_dart</title><path style="fill:#93000E" d="M2.75,6.668L15.85,2v27.987L4.787,23.87L2.75,6.668z"/><path style="fill:#4A0007" d="M15.85,2l13.4,4.588l-2.187,17.203L15.85,29.988C15.85,29.988,15.85,2,15.85,2z"/><path style="fill:#FFFFFF" d="M15.85,5.138l8.517,18.222H21.46l-1.817-4.158H15.85v-2.479h2.766l-2.766-5.727l-2.326,5.727h2.326v2.479	h-3.465l-1.628,4.158H7.623L15.85,5.138z"/><path style="fill:#FFFFFF" d="M29.035,22.675l-1.744-1.704c-0.003-0.003-0.006-0.006-0.009-0.009c-0.448-0.398-0.994-0.655-1.585-0.744	l-0.443-1.061c-0.013-0.033-0.034-0.063-0.059-0.088l-1.421-1.415c-0.148-0.148-0.352-0.237-0.562-0.247	c-0.013-0.001-0.023-0.002-0.034-0.002h-0.001c-0.21,0.001-0.408,0.077-0.561,0.218l-3.596,2.071	c-0.087,0.016-0.163,0.073-0.201,0.156c-0.011,0.023-0.018,0.049-0.022,0.074l-2.062,3.554c-0.14,0.154-0.217,0.352-0.219,0.56	c0,0.222,0.091,0.437,0.247,0.592l1.77,1.763c0.027,0.027,0.058,0.048,0.094,0.061l0.749,0.294c0.11,0.528,0.355,1.017,0.717,1.42	c0.003,0.004,0.005,0.006,0.009,0.009l1.709,1.74C21.864,29.97,21.934,30,22.009,30h4.888c0.132,0,0.246-0.094,0.271-0.223	l0.286-1.491l1.438-0.273c0.13-0.024,0.224-0.138,0.224-0.27l0.002-4.873C29.118,22.797,29.088,22.726,29.035,22.675z"/><path style="fill:#215896" d="M19.094,19.968l-2.136,3.68l-0.004,0.005c-0.103,0.105-0.162,0.247-0.163,0.394	c0,0.149,0.06,0.291,0.166,0.396l1.77,1.764l6.921,2.713l1.565-0.866l-0.043-0.043h-0.011L22.82,23.68h-0.004L19.094,19.968z"/><path style="fill:#66C3FA" d="M23.178,17.69c-0.148,0.001-0.289,0.058-0.394,0.162l-0.005,0.005l-3.697,2.129l3.687,3.674v0.003	l4.432,4.417l0.845-1.517l-3.047-7.289l-1.421-1.415c-0.105-0.106-0.249-0.166-0.399-0.166L23.178,17.69z"/><path style="fill:#235997" d="M19.069,19.974l3.771,3.762h0.005l4.341,4.331l1.653-0.314l0.002-4.873l-1.744-1.704	c-0.434-0.387-0.98-0.629-1.56-0.693v-0.019L19.069,19.974z"/><path style="fill:#58B6F0" d="M19.097,19.994l3.773,3.76v0.005l4.342,4.328l-0.316,1.646h-4.888l-1.709-1.74	c-0.388-0.434-0.631-0.977-0.694-1.555h-0.019L19.097,19.994z"/></svg>