<svg xmlns="http://www.w3.org/2000/svg" viewBox="0 0 32 32"><title>file_type_ceylon</title><path d="M10.78,21.986a3.433,3.433,0,0,1-.62-.226A10.988,10.988,0,0,0,8.5,26h2.724A14.328,14.328,0,0,1,10.78,21.986Zm8.827-1.479a20.969,20.969,0,0,0-1.264,3.885c-.118.538.239,1.074.172,1.608h3.426c-.9-2.547-1.107-6.251-1.575-7.732C20.355,18.247,19.62,20.525,19.607,20.507Z" style="fill:#ab710a"/><path d="M29.359,11.748c-.779-1.131-2.557-2.081-2.971-3.372a1.958,1.958,0,0,1,.079-1.326c.2-.316-.119-.226-.119-.226-.443.174-.634-.323-.634-.323-.066-.174.025-.706-.356-.416-.687.527-.461,1.809-.332,2.325a5.392,5.392,0,0,0,1.306,2.338c.222.21,1.617,1.778,1.426,2.58a.642.642,0,0,1-.476.593c-1.016.208-1.346-1.065-1.346-1.065-.762-3.322-1.993-4.485-1.993-4.485A23.642,23.642,0,0,0,18,8.9,34.606,34.606,0,0,0,4.657,11C2.983,13.455,2,18.012,2,18.012s0,.023.016.025a.057.057,0,0,0,.057-.029,14.219,14.219,0,0,1,2.119-2.185A30.149,30.149,0,0,0,5.437,26H8.094a11.929,11.929,0,0,1,1.942-4.8c.988.765,3.22.538,3.22.538.394,1.525,1.2,4.257,1.2,4.257h3.2A21.026,21.026,0,0,1,19.4,19.973a13.077,13.077,0,0,0,.812-2.388,1.361,1.361,0,0,1,1.424-1.246c.483,0,2.68,1.253,4.321,1.169,2.858-.147,3.985-1.5,4.041-3.037A4.689,4.689,0,0,0,29.359,11.748Zm-9.187,3.263a.553.553,0,0,1-.06.122.328.328,0,0,1-.113.106.307.307,0,0,1-.162.037.493.493,0,0,1-.146-.034,1.4,1.4,0,0,1-.416-.3c-.06-.056-.115-.115-.169-.172l-.155-.165a.97.97,0,0,0-.327-.187A4.162,4.162,0,0,0,18.2,14.3c-.148-.036-.3-.074-.458-.128a1.2,1.2,0,0,1-.129-.053l-.064-.024a.563.563,0,0,1-.084-.061.547.547,0,0,1-.124-.159.672.672,0,0,1-.062-.167,1.119,1.119,0,0,1-.022-.3,1.925,1.925,0,0,1,.028-.262,4,4,0,0,1,.122-.482q.073-.225.162-.452c.029-.075.057-.147.091-.226a2.4,2.4,0,0,1,.115-.226,2.525,2.525,0,0,1,.646-.731,2.9,2.9,0,0,1,.4-.258,2.277,2.277,0,0,1,.443-.181,4.134,4.134,0,0,0-.682.613,2.8,2.8,0,0,0-.485.731,1.782,1.782,0,0,0-.075.2l-.069.226c-.044.147-.088.294-.124.441a4.25,4.25,0,0,0-.091.432,1.907,1.907,0,0,0-.02.2.686.686,0,0,0,.014.169.147.147,0,0,0,.035.077h0l.031.018.087.037c.128.049.276.088.425.135a3.873,3.873,0,0,1,.454.17,1.233,1.233,0,0,1,.443.316,2.055,2.055,0,0,1,.141.2l.135.183c.044.058.09.114.14.168a.879.879,0,0,0,.148.131.174.174,0,0,0,.135.038.246.246,0,0,0,.131-.115,1.068,1.068,0,0,0,.1-.2c.029-.073.051-.147.076-.227A1.4,1.4,0,0,1,20.172,15.011ZM23,12.994a.485.485,0,0,1-.609.316h0a.5.5,0,0,1-.308-.626.48.48,0,0,1,.6-.319.493.493,0,0,1,.127.06A.438.438,0,0,1,23,12.994Z" style="fill:#c18d30"/></svg>
