<svg xmlns="http://www.w3.org/2000/svg" viewBox="0 0 32 32"><title>file_type_befunge</title><path d="M27.807,29.494H4.193a1.692,1.692,0,0,1-1.687-1.687V4.193A1.692,1.692,0,0,1,4.193,2.506H27.807a1.692,1.692,0,0,1,1.687,1.687V27.807A1.692,1.692,0,0,1,27.807,29.494Z" style="fill:#1e1e1e"/><path d="M27.807,30H4.193A2.2,2.2,0,0,1,2,27.807V4.193A2.2,2.2,0,0,1,4.193,2H27.807A2.2,2.2,0,0,1,30,4.193V27.807A2.2,2.2,0,0,1,27.807,30ZM4.193,3.012A1.183,1.183,0,0,0,3.012,4.193V27.807a1.183,1.183,0,0,0,1.181,1.181H27.807a1.183,1.183,0,0,0,1.181-1.181V4.193a1.183,1.183,0,0,0-1.181-1.181Z" style="fill:#5b5b5b"/><path d="M9.973,8.687,7.848,13.581H6.8L4.678,8.687H6.257l1.068,2.842L8.394,8.687Z" style="fill:#ffc107"/><path d="M15.158,10.909h-2.15v2.15h-.753v-2.15h-2.15v-.753h2.15V8.007h.753v2.149h2.15Z" style="fill:#009688"/><path d="M17.47,5.881c1.506,0,2.453.741,2.453,1.943,0,1.154-1.263,1.846-1.433,1.968-.838.6-.8.6-.8,1.749H16.316c0-1.117-.109-1.737.668-2.356C17.591,8.7,18.3,8.529,18.3,7.946c0-.255-.292-.462-.838-.462a3.267,3.267,0,0,0-1.543.5l-.85-1.154A3.359,3.359,0,0,1,17.47,5.881Zm-1.19,6.182h1.457v1.482H16.28Z" style="fill:#1976d2"/><path d="M21.526,13.193l-.838,1.87-1.105.207.716-2.089Z" style="fill:#009688"/><path d="M26.648,13.545V14.3H22.555v-.753Z" style="fill:#1976d2"/><path d="M9.39,21.12v.413l-4,2.442v-.863l2.94-1.785-2.94-1.786v-.862Z" style="fill:#ffc107"/><path d="M10.331,19.845h1.458v1.482H10.331Zm0,3.012h1.458v1.482H10.331Z" style="fill:#512da8"/><path d="M13.418,16.979h.753v8.2h-.753Z" style="fill:#ffc107"/><path d="M16.561,17.477h.79l1.2,2.259h-.5L16.962,18.06l-1.105,1.676h-.5Z" style="fill:#ffc107"/><path d="M22.462,24.594v.85H21.43v-.826a3.445,3.445,0,0,1-2.138-1.02l.851-.959a2.746,2.746,0,0,0,1.663.57c.584,0,.924-.218.924-.595,0-.437-.9-.741-1.507-1-1.165-.522-1.834-1.02-1.773-2.077a2.05,2.05,0,0,1,1.943-1.822v-.837l1.033-.11v.96a4.456,4.456,0,0,1,1.761.728l-.7,1.033a2.844,2.844,0,0,0-1.446-.4c-.546-.012-.935.206-.935.534,0,.413.51.535,1.093.778,1.348.571,2.211,1.105,2.211,2.186A2.139,2.139,0,0,1,22.462,24.594Z" style="fill:#512da8"/><path d="M15.841,19.054h2.726a4.251,4.251,0,0,1,2.364.525,1.836,1.836,0,0,1,.773,1.633,2.233,2.233,0,0,1-.337,1.246,1.5,1.5,0,0,1-.887.664v.059a1.812,1.812,0,0,1,1.053.712,2.623,2.623,0,0,1-.473,3.152,3.26,3.26,0,0,1-2.178.679H15.841Zm2.111,3.327h.636a1.07,1.07,0,0,0,.7-.208.759.759,0,0,0,.248-.617q0-.729-.994-.729h-.593Zm0,1.713v1.821H18.7q.988,0,.989-.925a.835.835,0,0,0-.265-.664,1.127,1.127,0,0,0-.767-.232Z" style="fill:#e8e8e8"/><path d="M25.269,27.724H23.19v-8.67h4.617v1.88H25.269v1.654h2.34v1.88h-2.34Z" style="fill:#e8e8e8"/></svg>