<svg xmlns="http://www.w3.org/2000/svg" xmlns:xlink="http://www.w3.org/1999/xlink" viewBox="0 0 32 32"><defs><linearGradient id="linear-gradient" x1="-67.91" y1="-308.55" x2="-67.86" y2="-308.56" gradientTransform="matrix(87.82, 0, 0, -88.53, 5984.53, -27290.62)" gradientUnits="userSpaceOnUse"><stop offset="0" stop-color="#ffd441"/><stop offset="1" stop-color="#ffb047"/></linearGradient><linearGradient id="linear-gradient-2" x1="-67.67" y1="-310.12" x2="-67.65" y2="-310.06" gradientTransform="matrix(87.82, 0, 0, -88.53, 5964.67, -27443)" gradientUnits="userSpaceOnUse"><stop offset="0" stop-color="#ffd754"/><stop offset="1" stop-color="#ffb532"/></linearGradient><linearGradient id="linear-gradient-3" x1="-67.03" y1="-310.91" x2="-67.03" y2="-310.86" gradientTransform="matrix(87.82, 0, 0, -88.53, 5902.8, -27518.73)" gradientUnits="userSpaceOnUse"><stop offset="0" stop-color="#ffd642"/><stop offset="0" stop-color="#ffd441"/><stop offset="1" stop-color="#ffb532"/></linearGradient><linearGradient id="linear-gradient-4" x1="-66.25" y1="-310.38" x2="-66.32" y2="-310.36" gradientTransform="matrix(106.2, 0, 0, -88.55, 7048.43, -27474.17)" gradientUnits="userSpaceOnUse"><stop offset="0" stop-color="#ffd441"/><stop offset="1" stop-color="#ffa829"/></linearGradient></defs><title>file_type_flow@2x</title><g id="flow"><path d="M23.43,29.41V22.17H16.25l7.18,7.24" style="fill:#ffdf51;fill-opacity:0.699999988079071"/><path d="M24.23,25.31V17.48H16.47l7.77,7.83" style="fill:#ff8900;fill-opacity:0.699999988079071"/><path d="M19.52,22.17V30h7.77l-7.77-7.83" style="fill-opacity:0.699999988079071;fill:url(#linear-gradient)"/><path d="M22.61,18V11.81H16.47L22.61,18" style="fill:#ffdf4f;fill-opacity:0.699999988079071"/><path d="M25.52,16.53V8.7H17.76l7.77,7.83" style="fill-opacity:0.799999952316284;fill:url(#linear-gradient-2)"/><path d="M12.29,2V9.83h7.77L12.29,2" style="fill-opacity:0.800000011920929;fill:url(#linear-gradient-3)"/><path d="M14.11,14.26V6.43H4.72l7.73,7.83h1.66" style="fill-opacity:0.879999995231628;fill:url(#linear-gradient-4)"/><path d="M14.11,30V20.49H4.72L14.11,30" style="fill:#ffb700;fill-opacity:0.699999988079071"/><path d="M14.11,22.11V14.29H6.35l7.77,7.83" style="fill:#ffb700;fill-opacity:0.5"/><path d="M16.47,11.81v7.83h7.77l-7.77-7.83" style="fill:#ffcd25;fill-opacity:0.699999988079071"/><path d="M14.09,12.69V4.86H6.33l7.77,7.83" style="fill:#ff8900;fill-opacity:0.700000047683716"/><path d="M16.25,22.17V30H24l-7.77-7.83" style="fill:#ff8900;fill-opacity:0.699999988079071"/><polygon points="21.12 22.17 18.61 19.64 16.46 19.64 16.47 11.81 20.85 11.81 18.88 9.83 14.09 9.83 14.11 14.26 14.11 20.49 14.11 30 16.25 30 16.25 22.17 21.12 22.17" style="fill:#fff"/></g></svg>