<svg version="1.1" viewBox="0 0 32 32" xmlns="http://www.w3.org/2000/svg"><title>file_type_wdioi</title><g transform="matrix(.89948 0 0 .89948 3.857 2.0581)"><g fill="#e85705" fill-rule="evenodd"><path d="m6.8047 10.953h0.55859v-0.54688h-0.55859z"/><path d="m7.8086 10.953h0.55859v-0.54688h-0.55859z"/><path d="m8.7031 10.953h0.55859v-0.54688h-0.55859z"/><path d="m9.707 10.953h0.55859v-0.54688h-0.55859z"/><path d="m6.6875 5.8789v-3.4492c-0.97266 0-1.7617 0.76953-1.7617 1.7227s0.78906 1.7266 1.7617 1.7266"/><path d="m22.074 4.1523c0-0.95312-0.78906-1.7227-1.7617-1.7227v3.4492c0.97266 0 1.7617-0.77344 1.7617-1.7266"/><path d="m10.887 2.5938c0.80469 0 1.4609 0.64453 1.4609 1.4336 0 0.78906-0.65625 1.4336-1.4609 1.4336-0.80469 0-1.4609-0.64453-1.4609-1.4336 0-0.78906 0.65625-1.4336 1.4609-1.4336m0 3.1992c0.99219 0 1.8008-0.79297 1.8008-1.7656s-0.80859-1.7656-1.8008-1.7656c-0.99219 0-1.8008 0.79297-1.8008 1.7656s0.80859 1.7656 1.8008 1.7656"/><path d="m10.887 5.2266c0.67578 0 1.2227-0.53906 1.2227-1.1992s-0.54688-1.1992-1.2227-1.1992-1.2227 0.53906-1.2227 1.1992 0.54688 1.1992 1.2227 1.1992"/><path d="m16.113 2.5938c0.80469 0 1.4609 0.64453 1.4609 1.4336 0 0.78906-0.65625 1.4336-1.4609 1.4336-0.80469 0-1.4609-0.64453-1.4609-1.4336 0-0.78906 0.65625-1.4336 1.4609-1.4336m0 3.1992c0.99219 0 1.8008-0.79297 1.8008-1.7656s-0.80859-1.7656-1.8008-1.7656c-0.99219 0-1.8008 0.79297-1.8008 1.7656s0.80859 1.7656 1.8008 1.7656"/><path d="m16.113 5.2266c0.67578 0 1.2227-0.53906 1.2227-1.1992s-0.54688-1.1992-1.2227-1.1992-1.2227 0.53906-1.2227 1.1992 0.54688 1.1992 1.2227 1.1992"/><path d="m18.555 3.8516h0.57031v-0.55469h-0.57031z"/><path d="m18.555 4.6562h0.57031v-0.55859h-0.57031z"/><path d="m7.5 1.3242c0-0.54688 0.45312-0.98828 1.0117-0.98828h9.9766c0.55859 0 1.0117 0.44141 1.0117 0.98828v4.332c0 0.54688-0.45312 0.99219-1.0117 0.99219h-9.9766c-0.55859 0-1.0117-0.44531-1.0117-0.99219zm1.0117 5.6562h9.9766c0.74219 0 1.3516-0.59375 1.3516-1.3242v-4.332c0-0.72656-0.60938-1.3242-1.3516-1.3242h-9.9766c-0.74219 0-1.3516 0.59766-1.3516 1.3242v4.332c0 0.73047 0.60938 1.3242 1.3516 1.3242z"/><path d="m21.113 7.5c0.73047 0 1.332 0.57812 1.3516 1.293v0.16797c0.89844 0.14453 3.8945 1.1289 3.9531 4.2852l0.0039 0.09375v7.0312c0.35548 0.23047 0.57813 0.54688 0.57813 0.89844 0 0.26953-0.13281 0.52344-0.35547 0.73047-0.02344 0.5 0.11719 1.4844 0.1875 1.8945l0.0078 0.03125v0.02734c0 0.01953 0.0039 0.51562-0.32812 0.84375-0.1875 0.1875-0.44141 0.28125-0.75 0.28125-0.97656 0-1.0156-0.80469-1.0352-1.1875-0.0039-0.05078-0.0039-0.09375-0.0078-0.13281-0.01563-0.16016-0.07422-0.24219-0.17188-0.24219h-0.0078c-0.10547 0-0.17187 0.03125-0.28125 0.19531-0.30859 0.44531-0.86328 0.40234-1.1602 0.23047-0.17188-0.09766-0.28125-0.24219-0.32031-0.41797-0.05469-0.25 0.03906-0.54688 0.27734-0.87891 0.18359-0.25781 0.22266-0.48047 0.20703-0.64844-0.22266-0.20703-0.35547-0.45703-0.35547-0.72656 0-0.33984 0.21094-0.64844 0.55078-0.87891l0.03125-0.02344v-6.332c0-0.52734-0.16406-0.72656-0.50781-1.0273-0.13672-0.12109-0.30078-0.19141-0.47656-0.23047l-0.03906-0.0039v10.105c0 0.71875-0.58984 1.3086-1.3203 1.3242h-0.99219v3.7188h0.79688s0.01172 0.0039 0.03125 0.0078l0.01563 0.0039c0.23438 0.0625 1.2773 0.39062 1.4375 1.5938l0.0078 0.04687v1.4258h-4.7109l-1.4492-0.49609v-1.0781c-0.03516-0.54297 0.05859-0.94531 0.27344-1.1758l0.02344-0.02344v-4.0234h-6.1836v4.0234c0.22266 0.21875 0.32422 0.61719 0.30078 1.1484l-0.0039 0.05078v1.0781l-1.4492 0.4961h-4.7109v-1.4258c0.15625-1.3789 1.4492-1.6445 1.4922-1.6523h0.79687v-3.7188h-0.93359c-0.73047 0-1.332-0.57812-1.3516-1.293v-10.141c-0.19141 0.03516-0.36719 0.10938-0.51562 0.23828-0.33203 0.29297-0.5 0.48828-0.50781 0.98438v6.375c0.35938 0.23437 0.58203 0.55078 0.58203 0.90234 0 0.26953-0.13281 0.51953-0.35547 0.72656-0.015625 0.16797 0.023438 0.39062 0.20703 0.64844 0.23828 0.33203 0.33203 0.62891 0.27734 0.87891-0.039062 0.17578-0.14844 0.32031-0.31641 0.41797-0.30078 0.17188-0.85547 0.21484-1.1641-0.23047-0.10938-0.16406-0.17578-0.19531-0.28125-0.19531h-0.00781c-0.097656 0-0.15625 0.08203-0.17188 0.24219-0.00391 0.03906-0.00391 0.08203-0.00781 0.13281-0.019532 0.38281-0.058594 1.1875-1.0352 1.1875-0.30859 0-0.5625-0.09375-0.75-0.28125-0.3086-0.30859-0.32813-0.76172-0.32813-0.83594v-0.03516c0.070313-0.38672 0.21875-1.4141 0.19531-1.9258-0.22266-0.20703-0.35547-0.46094-0.35547-0.73047 0-0.33984 0.20703-0.64844 0.54688-0.87891l0.03125-0.01953v-7.0312c0-3.1953 2.9883-4.2109 3.9297-4.375l0.027344-0.003907v-0.13672c0-0.71484 0.58984-1.3047 1.3203-1.3242zm0.94922 21.879h-4.0664c0.0039 0.05078 0.0078 0.09766 0.0078 0.14844v0.04687h4.0938c-0.0078-0.06641-0.01953-0.13281-0.03516-0.19531zm-13.086 0h-4.0664c-0.011718 0.04687-0.019531 0.09375-0.027344 0.14453l-0.007812 0.050781h4.0938c-0.00391-0.06641 0-0.12891 0.00781-0.19531zm7.8438-0.91797c-0.125 0.12109-0.19531 0.36719-0.20312 0.69141l-0.0039 0.03906 1.0508 0.35938c0.0078-0.35547-0.16797-0.73828-0.35156-0.95312-0.12109-0.14844-0.23047-0.20703-0.29297-0.21094-0.07813-0.0039-0.14453 0.01953-0.19922 0.07422zm-6.8477-0.074219h-0.019531c-0.0625 0.0039-0.17188 0.0625-0.29297 0.21094-0.17578 0.20703-0.34766 0.57031-0.35156 0.91406v0.03906l1.0469-0.35938c0-0.34375-0.07422-0.60547-0.20312-0.73047-0.04687-0.04688-0.09766-0.07031-0.16016-0.07422zm10.926-0.13281h-3.4453c0.04297 0.03906 0.08203 0.08203 0.125 0.12891 0.15234 0.1875 0.29688 0.45703 0.375 0.75l0.0078 0.04688h4.0352c-0.28516-0.71875-0.99219-0.90234-1.0977-0.92578zm-11.379 0h-3.4453c-0.10547 0.02344-0.78906 0.20312-1.082 0.88672l-0.015626 0.03906h4.0312c0.070313-0.3125 0.22266-0.59766 0.38672-0.79688 0.042969-0.04687 0.082031-0.08984 0.125-0.12891zm-2.0664-4.0508h-0.42969v3.7188h0.42969zm2.6016 0h-0.46484v2.1914h0.15625v0.70312h-0.15625v0.82422h0.46484zm9.8945 0h-0.42969v3.7188h0.42969zm-2.5664 0h-0.46484v3.7188h0.46484v-0.82422h-0.16016v-0.70312h0.16016zm-16.684-1.9609c-0.019531 0.65625-0.17578 1.5859-0.19922 1.7227 0.003906 0.06641 0.023438 0.39453 0.23438 0.59766 0.12109 0.12109 0.28906 0.18359 0.50391 0.18359 0.23828 0 0.39453-0.06641 0.49609-0.17188-0.14453-0.03125-0.33203-0.10156-0.45312-0.26172-0.12891-0.16406-0.15625-0.37891-0.082031-0.63672 0.027343-0.09375 0.046875-0.16406 0.066406-0.22656 0.015625-0.05078 0.03125-0.09766 0.042969-0.14062l0.015625-0.05469c0.039062-0.14844 0.066406-0.3125 0.12891-0.74609-0.28125-0.05469-0.53906-0.14844-0.75391-0.26562zm25.602 0c-0.21484 0.11719-0.47266 0.21094-0.75391 0.26562 0.0625 0.43359 0.08984 0.59766 0.12891 0.74609l0.01563 0.05469c0.01172 0.04297 0.02734 0.08984 0.04297 0.14062 0.01953 0.0625 0.03906 0.13281 0.06641 0.22656 0.07422 0.25781 0.04687 0.47266-0.08203 0.63672-0.12109 0.16016-0.30859 0.23047-0.45312 0.26172 0.10156 0.10547 0.25781 0.17188 0.49609 0.17188 0.21875 0 0.38281-0.0625 0.50391-0.18359 0.21094-0.20312 0.23047-0.53125 0.23438-0.59766-0.01563-0.09375-0.09766-0.56641-0.14844-1.0664l-0.0078-0.08203c-0.01953-0.19531-0.03516-0.39844-0.04297-0.57422zm-1.8672 0.27734c-0.09375 0.14453-0.21094 0.27344-0.32812 0.39453-0.125 0.13672-0.24219 0.26172-0.3125 0.39844-0.02734 0.05078-0.03125 0.09766-0.01563 0.14453 0.02344 0.05859 0.07422 0.10938 0.125 0.14844 0.02734-0.02344 0.05078-0.04687 0.07031-0.07813 0.12109-0.18359 0.27734-0.34766 0.58203-0.34766 0.28125 0.0078 0.46875 0.21094 0.5 0.54687 0.0078 0.04297 0.0078 0.08984 0.01172 0.14453 0.0078 0.14062 0.01953 0.27344 0.04687 0.39062 0.09766-0.01172 0.25781-0.04687 0.33594-0.14844 0.05859-0.07813 0.06641-0.19531 0.02344-0.34766-0.02734-0.08984-0.04687-0.16016-0.06641-0.22266-0.08203-0.26953-0.10547-0.34766-0.19531-0.99219-0.08594 0.0078-0.17188 0.01172-0.25781 0.01172-0.17969 0-0.35547-0.01563-0.51953-0.04297zm-21.867 0c-0.16406 0.02734-0.33984 0.04297-0.51953 0.04297-0.085937 0-0.17188-0.0039-0.25781-0.01172-0.089843 0.64453-0.11328 0.72266-0.19531 0.99219-0.019531 0.0625-0.039062 0.13281-0.066406 0.22266-0.042969 0.15234-0.035156 0.26953 0.023437 0.34766 0.078125 0.10156 0.23828 0.13672 0.33594 0.14844 0.027343-0.11719 0.039062-0.25 0.046875-0.39062 0.00391-0.05469 0.00781-0.10156 0.011718-0.14453 0.03125-0.33594 0.21875-0.53906 0.50391-0.54687 0.30078 0 0.45703 0.16406 0.57812 0.34766 0.019531 0.03125 0.042968 0.05469 0.070312 0.07813 0.050782-0.03906 0.10156-0.08984 0.125-0.14844 0.015625-0.04687 0.011719-0.09375-0.015625-0.14453-0.070312-0.13672-0.1875-0.26172-0.3125-0.39844-0.11719-0.12109-0.23438-0.25-0.32812-0.39453zm21.027-0.28516c-0.02734 0.17969-0.10547 0.38281-0.26172 0.60156-0.17578 0.25-0.25391 0.46484-0.21875 0.61719 0.01563 0.08203 0.07031 0.15234 0.15625 0.19922 0.05469 0.03125 0.20312 0.08984 0.36328 0.07422-0.04687-0.05078-0.08594-0.10937-0.11328-0.18359-0.03906-0.11328-0.03125-0.23438 0.03125-0.35156 0.08594-0.16797 0.22266-0.31641 0.35547-0.45703 0.08203-0.08984 0.16797-0.17969 0.23828-0.27734-0.20312-0.05469-0.38672-0.12891-0.55078-0.22266zm-20.188 0c-0.16406 0.09375-0.34766 0.16797-0.55078 0.22266 0.070312 0.09766 0.15625 0.1875 0.23828 0.27734 0.13281 0.14062 0.26953 0.28906 0.35547 0.45703 0.0625 0.11719 0.070312 0.23828 0.03125 0.35156-0.027344 0.07422-0.066407 0.13281-0.11328 0.18359 0.16016 0.01563 0.3125-0.04297 0.36328-0.07422 0.085937-0.04687 0.14062-0.11719 0.15625-0.19922 0.035156-0.15234-0.042969-0.36718-0.21875-0.61718-0.15625-0.21875-0.23438-0.42188-0.26172-0.60156zm17.234-2.1875h-14.168v1.9648c0 0.71484 0.58594 1.3008 1.3125 1.3203h11.508c0.73047 0 1.3281-0.57422 1.3477-1.2852zm1.8242-10.613v2.0156c0.39844 0.11328 0.78516 0.29297 1.1094 0.57812 0.51953 0.45703 0.78906 1.1992 0.80078 1.957v5.9609h1.5664v-6.6055c0-1.3164-0.55469-2.3672-1.6562-3.125-0.71094-0.49219-1.457-0.71484-1.8203-0.78125zm-17.93 0c-0.36328 0.066406-1.1094 0.28906-1.8203 0.78125-1.082 0.74609-1.6406 1.7773-1.6562 3.0664v6.6641h1.5664v-5.9102c0-0.77734 0.26953-1.543 0.80078-2.0078 0.30859-0.26953 0.67578-0.44531 1.0547-0.5625l0.054687-0.01563zm16.105 4.2578h-7.4766v3.9453h7.4766zm-13.836 0.32812h-0.22266v3.2891h0.22266zm3.5703 0c-0.92188 0-1.6719 0.73828-1.6719 1.6445s0.75 1.6445 1.6719 1.6445c0.92578 0 1.6758-0.73828 1.6758-1.6445s-0.75-1.6445-1.6758-1.6445zm-1.6719 0h-0.21875l-1.3438 3.2891h0.21875zm1.6719 0.20703c0.80859 0 1.4648 0.64453 1.4648 1.4375 0 0.79297-0.65625 1.4375-1.4648 1.4375s-1.4648-0.64453-1.4648-1.4375c0-0.79297 0.65625-1.4375 1.4648-1.4375zm8.918-5.9023h-11.473c-0.73047 0-1.332 0.57422-1.3477 1.2852v1.6719h14.168v-1.6406c0-0.72266-0.60547-1.3164-1.3477-1.3164z"/></g><g fill="none" stroke="#e85705"><g stroke-width="2"><path transform="scale(.11157 .10954)" d="m117.99 150.74c6.6522-10.341 16.981-10.948 30.985-1.8187 21.007 13.694 12.989-28.421 36.027-6.4188" stroke-linecap="square"/><path transform="scale(.11157 .10954)" d="m87.004 197.99c0 6.6328-5.3918 12.018-12.009 12.018-6.6172 0-12.009-5.3847-12.009-12.018 0-6.5972 5.3918-11.982 12.009-11.982 6.6172 0 12.009 5.3847 12.009 11.982z"/><path transform="scale(.11157 .10954)" d="m117.01 197.99c0 6.6328-5.3918 12.018-12.009 12.018-6.6172 0-12.009-5.3847-12.009-12.018 0-6.5972 5.3918-11.982 12.009-11.982 6.6172 0 12.009 5.3847 12.009 11.982z"/></g><g stroke-linecap="round" stroke-width="4"><path transform="scale(.11157 .10954)" d="m74.995 209v-11.019"/><path transform="scale(.11157 .10954)" d="m105 197.99 6.9323-7.9166"/><path transform="scale(.11157 .10954)" d="m133.01 190.5h37.988"/><path transform="scale(.11157 .10954)" d="m133.01 197.49h37.988"/><path transform="scale(.11157 .10954)" d="m133.01 204.51h21.987"/></g></g></g></svg>
