<svg xmlns="http://www.w3.org/2000/svg" viewBox="0 0 28.267 33.667" height="127.245" width="106.835"><path d="M13.04 0C7.1.015-.08 6.902 0 14.174c-.013 7.178 5.698 13.51 14.27 13.89 4.866.213 6.652-2.243 8.693-1.7 2.04.543 2.253 2.339 2.15 3.709-.104 1.37-1.08 2.967-3 2.811-1.188-.604-.47-3.848-2.292-4.04-1.137.116-1.645 1.118-1.394 2.34.25 1.22 1.818 2.39 4.063 2.48 2.246.09 3.564-1.73 3.591-3.615.027-1.884-1.079-4.015-3.378-4.228-2.3-.214-5.215 2.572-9.568 1.771-4.352-.8-10.524-4.553-10.488-12.85.036-8.299 7.73-12.329 12.567-12.285 4.838.044 7.387 1.68 8.127 4.441.74 2.761-2.442 5.55-3.875 7.182-1.432 1.632-2.191 2.725-1.89 4.63.302 1.999 2.6 4.93 5.009 4.914 2.408-.018 5.915-2.712 5.67-9.26-.247-6.55-3.758-9.877-5.481-11.246C21.05 1.75 18.982-.014 13.04 0z" fill="#33879e"/></svg>