<svg xmlns="http://www.w3.org/2000/svg" viewBox="0 0 32 32"><path fill="#32322a" d="M14.61 15.5a.67.67 0 0 0-.09 1.31s1.64.54 4.42.77c2.24.18 4.77-.16 4.77-.16a.67.67 0 0 0-.04-1.34q-.07 0-.13.02s-2.48.3-4.5.14a19 19 0 0 1-4.1-.7q-.16-.06-.33-.04m0-3.33a.67.67 0 0 0-.09 1.31s1.64.54 4.42.77c2.24.18 4.77-.16 4.77-.16a.67.67 0 0 0-.04-1.34q-.07 0-.13.02s-2.48.3-4.5.14a19 19 0 0 1-4.1-.7 1 1 0 0 0-.33-.04m0-3.33a.67.67 0 0 0-.09 1.31s1.64.54 4.42.77c2.24.18 4.77-.16 4.77-.16a.67.67 0 0 0-.04-1.34q-.07 0-.13.02s-2.48.3-4.5.14a19 19 0 0 1-4.1-.7q-.16-.06-.33-.04m0-3.32a.67.67 0 0 0-.09 1.3s1.64.55 4.42.77c2.24.19 4.77-.15 4.77-.15a.67.67 0 0 0-.04-1.34l-.13.01s-2.48.3-4.5.14a19 19 0 0 1-4.1-.7 1 1 0 0 0-.33-.03M9.95 2c-3.5.03-4.8 1.1-4.8 1.1v26.12s1.26-1.1 5.36-.93 4.94 1.6 9.98 1.7 6.3-.77 6.3-.77l.07-26.63s-2.26.64-6.67.68c-4.41.03-5.47-1.13-9.52-1.26zm2.92 1.7s2.12.7 6.04.9c3.3.17 6.62-.32 6.62-.32v23.67s-1.68.88-5.88.58c-3.25-.23-6.83-1.46-6.83-1.46zm-2.04.62a.68.68 0 0 1 0 1.35s-1.1 0-1.77.08a5 5 0 0 0-1.88.52.67.67 0 0 1-.63-1.2s1-.52 2.38-.66c.8-.08 1.9-.09 1.9-.09m-.65 3.34h.65a.7.7 0 0 1 .6.76.7.7 0 0 1-.6.59s-1.1 0-1.76.07a6 6 0 0 0-1.89.52.68.68 0 0 1-.62-1.2s1-.52 2.38-.66c.4-.04.86-.07 1.24-.08m.65 3.33a.68.68 0 0 1 0 1.35s-1.1 0-1.77.06a5 5 0 0 0-1.88.52.68.68 0 0 1-.63-1.2s1-.53 2.39-.66c.8-.08 1.89-.07 1.89-.07"/></svg>