<svg id="Layer_1" data-name="Layer 1" xmlns="http://www.w3.org/2000/svg" viewBox="0 0 32 32"><path d="M15.91,2a14,14,0,1,1-14,14A14,14,0,0,1,15.91,2ZM13.22,22.3a1.5,1.5,0,1,1-1.06,1.83A1.5,1.5,0,0,1,13.22,22.3ZM21.29,6.57a.55.55,0,0,1,.38.66.53.53,0,0,1-.66.38l-.5-.13a44.09,44.09,0,0,0-.37,7.09c-2.13,1.84-5.81,7.36-5.81,7.36l1.93-7.21a1,1,0,0,0,.9-.65.9.9,0,1,0-1.75-.46,1,1,0,0,0,.45,1l-1.93,7.21a67.64,67.64,0,0,0-1.35-9.27,34.35,34.35,0,0,0,3.23-6.33l-.5-.14a.52.52,0,0,1-.38-.65A.54.54,0,0,1,15.59,5l5.7,1.53Z" style="fill:#484848;fill-rule:evenodd"/></svg>