<svg xmlns="http://www.w3.org/2000/svg" viewBox="0 0 32 32"><title>file_type_svelteconfig</title><path d="M26.47,5.7A9,9,0,0,0,14.68,3.25L8,7.4a7.46,7.46,0,0,0-3.48,5,7.67,7.67,0,0,0,.8,5.06,7.26,7.26,0,0,0-1.15,2.8,7.78,7.78,0,0,0,1.4,6,9,9,0,0,0,11.79,2.45L24,24.6a7.46,7.46,0,0,0,3.48-5,7.66,7.66,0,0,0-.8-5.06,7.17,7.17,0,0,0,1.15-2.8,7.77,7.77,0,0,0-1.4-6" style="fill:#ff3e00"/><path d="M14,26.64A5.4,5.4,0,0,1,8.3,24.58,4.68,4.68,0,0,1,7.45,21a4.21,4.21,0,0,1,.16-.61L7.74,20l.34.24a8.65,8.65,0,0,0,2.63,1.27l.24.08,0,.23a1.45,1.45,0,0,0,.27,1,1.62,1.62,0,0,0,1.74.64,1.57,1.57,0,0,0,.42-.18l6.7-4.15a1.38,1.38,0,0,0,.38-2,1.62,1.62,0,0,0-1.72-.62,1.15,1.15,0,0,0-.41.17l-2.58,1.59a5.12,5.12,0,0,1-1.36.58,5.44,5.44,0,0,1-5.73-2.06,4.7,4.7,0,0,1-.83-3.63,4.52,4.52,0,0,1,2.09-3l6.71-4.15A4.54,4.54,0,0,1,18,5.36,5.41,5.41,0,0,1,23.7,7.41,4.71,4.71,0,0,1,24.55,11a4.21,4.21,0,0,1-.16.61l-.13.37-.34-.23a8.92,8.92,0,0,0-2.63-1.28L21,10.44l0-.24a1.47,1.47,0,0,0-.27-1,1.59,1.59,0,0,0-2.14-.44l-6.72,4.14a1.35,1.35,0,0,0-.63.91,1.37,1.37,0,0,0,.24,1.09,1.59,1.59,0,0,0,2.14.44l2.56-1.58a5,5,0,0,1,1.37-.58,5.42,5.42,0,0,1,5.73,2.06,4.68,4.68,0,0,1,.84,3.62,4.54,4.54,0,0,1-2.09,3l-6.71,4.15a4.81,4.81,0,0,1-1.36.58" style="fill:#fff"/><path d="M26.67,27.39l.58-.57c2.68.08,2.72,0,2.83-.29l.74-1.79.06-.17-.06-.15c0-.07-.13-.31-1.8-1.9v-.84c1.92-1.86,1.88-1.95,1.77-2.22l-.73-1.81c-.11-.27-.15-.38-2.81-.3l-.58-.6a12.94,12.94,0,0,0-.09-2.64l-.07-.17L24.6,13.1c-.28-.13-.38-.17-2.19,1.79H21.6c-1.86-2-1.94-2-2.22-1.84l-1.78.72c-.28.12-.38.16-.27,2.86l-.57.57c-2.68-.09-2.72,0-2.84.28l-.73,1.79-.06.17.06.15c0,.08.12.31,1.8,1.9v.84c-1.93,1.86-1.89,1.95-1.78,2.22L14,26.35c.11.28.15.38,2.8.31l.58.6a13,13,0,0,0,.09,2.64l.08.17,1.92.84c.28.11.38.16,2.18-1.8h.81c1.86,2,1.95,1.95,2.23,1.84l1.77-.72C26.68,30.13,26.78,30.09,26.67,27.39ZM19.05,23.2A3.19,3.19,0,1,1,23.22,25,3.23,3.23,0,0,1,19.05,23.2Z" style="fill:#99b8c4"/></svg>