<svg width="200" height="200" xmlns="http://www.w3.org/2000/svg"><g fill="#44D860"><circle cx="173" cy="163" r="20"/><circle cx="183" cy="145.5" r="5"/><circle cx="190.5" cy="153" r="5"/><circle cx="193" cy="163" r="5"/><circle cx="183" cy="113" r="10"/><circle cx="188" cy="104" r="2.4"/><circle cx="192" cy="108" r="2.4"/><circle cx="193" cy="113" r="2.4"/><circle cx="192" cy="118" r="2.4"/><circle cx="188" cy="122" r="2.4"/></g><path fill="#FFF" d="M99 52h84v34H99z"/><g fill="#3ECC5F"><path d="M23 163c-7.4 0-13.843-4-17.3-10A19.9 19.9 0 003 163c0 11 9 20 20 20h20v-20H23zM143 183h30v-40h-30z"/><path d="M113 57.376L183 53V43c0-11-9-20-20-20H73c-3.6-8.25-5.4-8.25-10 0-3.6-8.25-5.4-8.25-10 0-3.6-8.25-5.4-8.25-10 0l-4.142-4.141c-1.6-1.6-4.2-.8-4.828 1.294l-1.369 5.104-5.192-1.392c-2-.5-4 1.4-3.535 3.536l1.39 5.193-5.102 1.367c-2 .5-2.8 3.25-1.3 4.8l4.142 4.142-4.33 2.5c-1.925 1.111-1.925 3.889 0 5L23 53c-8.25 3.6-8.25 5.4 0 10-8.25 3.6-8.25 5.4 0 10-8.25 3.6-8.25 5.4 0 10-8.25 3.6-8.25 5.4 0 10-8.25 3.6-8.25 5.4 0 10-8.25 3.6-8.25 5.4 0 10-8.25 3.6-8.25 5.4 0 10-8.25 3.6-8.25 5.4 0 10-8.25 3.6-8.25 5.4 0 10-8.25 3.6-8.25 5.4 0 10-8.25 3.6-8.25 5.4 0 10 0 11.046 8.954 20 20 20h120c11.046 0 20-8.954 20-20V83l-70.02-4.376A10.6 10.6 0 01103 68c0-5.6 4.4-10.3 10-10.6"/></g><path d="M103 183h60c11.046 0 20-8.954 20-20V93h-60c-11.046 0-20 8.954-20 20v70z" fill="#FFFF50"/><g fill="none" stroke="#000" stroke-width="2" stroke-linecap="round"><path d="M63 53a1 1 0 10-20 0" stroke-width="5"/><path d="M183 63c-.012 0-.022-.006-.034-.005-3.09.105-4.552 3.196-5.842 5.923-1.346 2.85-2.387 4.703-4.093 4.647-1.889-.068-2.969-2.202-4.113-4.46-1.314-2.594-2.814-5.536-5.963-5.426-3.046.104-4.513 2.794-5.807 5.167-1.377 2.528-2.314 4.065-4.121 3.994-1.927-.07-2.951-1.805-4.136-3.813-1.321-2.236-2.848-4.75-5.936-4.664-2.994.103-4.465 2.385-5.763 4.4-1.373 2.13-2.335 3.428-4.165 3.351-1.973-.07-2.992-1.51-4.171-3.177-1.324-1.873-2.816-3.993-5.895-3.89-2.928.1-4.399 1.97-5.696 3.618-1.232 1.564-2.194 2.802-4.229 2.724" stroke-linecap="butt"/><path d="M168 113h-50m50 10h-50m50 10h-50m50 10h-50m50 10h-50m50 10h-50"/></g><circle cx="143" cy="39" r="2.5"/><circle cx="163" cy="38" r="2.5"/><circle cx="113.5" cy="71.4" r="1"/><path fill="#3ECC5F" d="M83 183h40v-40H83zM83 123h40v-20H83z"/><g fill="#44D860"><circle cx="123" cy="113" r="10"/><circle cx="128" cy="104" r="2.4"/><circle cx="132" cy="108" r="2.4"/><circle cx="133" cy="113" r="2.4"/><circle cx="132" cy="118" r="2.4"/><circle cx="128" cy="122" r="2.4"/><circle cx="123" cy="163" r="20"/><circle cx="113" cy="145.5" r="5"/><circle cx="123" cy="143" r="5"/><circle cx="133" cy="145.5" r="5"/><circle cx="140.5" cy="153" r="5"/><circle cx="143" cy="163" r="5"/></g></svg>
