<svg xmlns="http://www.w3.org/2000/svg" viewBox="0 0 32 32"><title>file_type_wurst</title><path d="M2.006 14.146c0.103-1.915 0.481-3.725 1.385-5.417C3.854 7.86 4.541 7.42 5.533 7.463c0.363 0.016 0.734-0.035 1.088 0.026 0.811 0.139 1.672 1.087 1.881 1.886 0.128 0.497 0 0.958-0.041 1.435 -0.103 1.068-0.235 2.135-0.377 3.201 -0.124 0.96 0.133 1.792 0.805 2.482 0.239 0.238 0.51 0.441 0.807 0.604 0.5 0.276 0.982 0.226 1.35-0.205 0.526-0.614 1.008-1.27 1.478-1.931 0.497-0.689 1.105-1.291 1.801-1.779 1.081-0.771 2.369-0.777 3.456-0.01 0.955 0.675 1.676 1.565 2.327 2.523 0.278 0.411 0.587 0.8 0.923 1.165 0.394 0.427 0.942 0.494 1.458 0.205 0.988-0.566 1.528-1.415 1.563-2.562 0.042-1.435-0.194-2.838-0.486-4.235 -0.103-0.472 0.01-0.916 0.222-1.332 0.488-0.968 1.303-1.426 2.364-1.454 0.431-0.012 0.884-0.031 1.291 0.08 0.89 0.245 1.226 1.037 1.574 1.792 0.572 1.281 0.897 2.66 0.958 4.063 0.188 3.471-0.942 6.455-3.29 8.991 -0.819 0.886-1.862 1.452-3.009 1.834 -0.667 0.211-1.365 0.313-2.065 0.298 -1.373-0.002-2.411-0.584-3.175-1.699 -0.284-0.419-0.544-0.863-0.865-1.256 -0.248-0.308-0.535-0.615-0.872-0.794 -0.667-0.364-1.428-0.135-1.959 0.537 -0.532 0.673-1.019 1.355-1.526 2.033 -0.605 0.806-1.435 1.131-2.419 1.17 -2.997 0.128-5.06-1.382-6.661-3.733 -0.79-1.161-1.399-2.41-1.697-3.78C2.221 16.065 2.143 15.1 2.006 14.146z" fill="#8E4747"/></svg>
