<svg xmlns="http://www.w3.org/2000/svg" viewBox="0 0 32 32"><title>file_type_pm2</title><path d="M2.00024 16.6403H15.985L23.193 5.52029C22.6124 5.17931 21.952 4.99974 21.2796 5L20.1118 6.83154C20.0191 6.9786 19.8721 7.08265 19.7031 7.12084C19.5342 7.15902 19.357 7.12822 19.2106 7.03519V7.03519C19.0711 6.94742 18.9718 6.80769 18.9345 6.64656C18.8971 6.48543 18.9248 6.31598 19.0113 6.17526L19.7334 5H18.054L14.8283 10.3672C14.8283 10.3672 13.7938 12.1567 11.4465 12.1567H10.5969C10.5166 12.1567 10.4371 12.1408 10.3629 12.1099C10.2887 12.079 10.2212 12.0337 10.1644 11.9766C10.1076 11.9195 10.0626 11.8517 10.0318 11.7771C10.0011 11.7025 9.98527 11.6225 9.98527 11.5418V11.5306C9.98527 11.3738 10.0472 11.2234 10.1575 11.1125C10.2678 11.0017 10.4174 10.9394 10.5734 10.9394H11.4073C11.4073 10.9394 12.5182 10.9571 13.3678 10.151C13.5429 9.98265 13.6938 9.7905 13.8161 9.58016L16.5385 5.00131H14.9048L13.2795 7.71709C13.2795 7.71709 12.2895 9.6406 9.34158 9.6406H5.94342L5.04617 10.9913H8.27377C8.436 10.9913 8.59158 11.056 8.70629 11.1714C8.821 11.2867 8.88544 11.4431 8.88544 11.6062C8.88527 11.7558 8.82607 11.8992 8.72084 12.005C8.6156 12.1108 8.47292 12.1703 8.3241 12.1705H4.28747L3.35297 13.6295L13.0789 13.5054C13.0789 13.5054 14.5695 13.3654 15.159 12.5042L17.7494 8.2676C17.8357 8.12641 17.9736 8.02484 18.1335 7.98468C18.2934 7.94452 18.4627 7.96897 18.6049 8.05278V8.05278C18.6766 8.09511 18.7392 8.15131 18.7892 8.21812C18.8391 8.28493 18.8754 8.36103 18.896 8.44203C18.9165 8.52303 18.9209 8.60732 18.9088 8.69002C18.8968 8.77273 18.8685 8.85221 18.8257 8.92388L16.6182 12.6257C16.2595 13.2345 15.7637 13.7502 15.1707 14.1314C14.6858 14.4382 14.0735 14.6944 13.3795 14.6944C11.6438 14.6944 2.57858 14.8258 2.57858 14.8258C2.19726 15.3526 1.99451 15.9887 2.00024 16.6403V16.6403Z" fill="url(#paint0_linear_2_2)"/><path d="M2.00008 16.6403H15.9848L22.8256 27.4797C22.245 27.8207 21.5846 28.0003 20.9122 28L19.7444 26.1685C19.6516 26.0215 19.5045 25.9176 19.3356 25.8795C19.1666 25.8415 18.9895 25.8724 18.8432 25.9655V25.9655C18.7039 26.0532 18.6047 26.1928 18.5674 26.3538C18.5301 26.5148 18.5576 26.6841 18.6439 26.8247L19.366 28L17.2918 27.9901L14.1688 22.8995C14.1688 22.8995 13.1343 21.1107 10.7876 21.1107H9.93806C9.77472 21.1133 9.61896 21.1804 9.50448 21.2976C9.39001 21.4148 9.32603 21.5725 9.32639 21.7368C9.32639 21.8936 9.38836 22.044 9.49866 22.1548C9.60896 22.2657 9.75855 22.328 9.91454 22.328H10.7484C10.7484 22.328 11.8593 22.3109 12.7089 23.1163C12.884 23.285 13.0349 23.4773 13.1572 23.6879L15.7711 27.9869H14.1374L12.6187 25.549C12.6187 25.549 11.6287 23.6261 8.6814 23.6261L5.93673 23.6373L5.03948 22.2866L7.60836 22.2755C7.68809 22.2767 7.76726 22.262 7.84129 22.2322C7.91532 22.2024 7.98274 22.1582 8.03964 22.102C8.09653 22.0459 8.14178 21.9789 8.17274 21.9051C8.20371 21.8312 8.21978 21.7519 8.22003 21.6717V21.6606C8.22003 21.5864 8.20549 21.513 8.17724 21.4445C8.14899 21.376 8.10758 21.3137 8.05539 21.2613C8.00319 21.2089 7.94123 21.1673 7.87305 21.139C7.80486 21.1107 7.7318 21.0962 7.65803 21.0963L4.27947 21.1074L3.34497 19.6477L12.4161 19.7627C12.4161 19.7627 13.9067 19.9026 14.4962 20.7632L17.0958 25.0017C17.1819 25.1429 17.3198 25.2444 17.4796 25.2845C17.6395 25.3245 17.8086 25.2999 17.9505 25.2159V25.2159C18.0221 25.1734 18.0845 25.1171 18.1343 25.0502C18.1841 24.9833 18.2202 24.9072 18.2405 24.8262C18.2609 24.7452 18.2651 24.661 18.2529 24.5784C18.2407 24.4957 18.2123 24.4164 18.1695 24.3448L15.9613 20.6423C15.6029 20.0334 15.1071 19.5179 14.5138 19.1373C14.0289 18.8298 13.4173 18.5743 12.7233 18.5743C10.9876 18.5743 2.57842 18.4514 2.57842 18.4514C2.19798 17.9254 1.99528 17.2906 2.00008 16.6403V16.6403Z" fill="url(#paint1_linear_2_2)"/><path d="M22.823 27.481C23.4443 27.166 23.9651 26.6818 24.326 26.0837L29.5318 18.0133C29.8312 17.5492 29.9931 17.0091 29.9986 16.456C30.0042 15.9029 29.8531 15.3596 29.5631 14.8895L24.426 6.56022C24.426 6.56022 23.7921 5.69373 23.1916 5.52029L22.3616 6.8L23.4111 8.43512C23.508 8.58602 23.5418 8.76924 23.5051 8.94501C23.4684 9.12078 23.3642 9.27489 23.2151 9.37388V9.37388C23.1392 9.42373 23.0542 9.45779 22.965 9.47405C22.8758 9.4903 22.7843 9.48842 22.6958 9.46852C22.6074 9.44862 22.5238 9.4111 22.45 9.35817C22.3762 9.30524 22.3137 9.23799 22.2662 9.16038L21.5709 8.02256L20.7384 9.30096L24.013 14.6097C24.013 14.6097 25.1841 16.5555 23.4902 18.7779L23.3987 18.8909C23.2911 19.0238 23.1367 19.1098 22.9676 19.1309C22.7985 19.1521 22.6277 19.1068 22.491 19.0046C22.3543 18.9026 22.2618 18.7515 22.233 18.5828C22.2042 18.4141 22.2411 18.2407 22.3361 18.0987L22.6936 17.5659C22.6936 17.5659 23.5654 16.3795 22.759 15.0288L19.9672 10.4959L19.1177 11.8098L20.7325 14.4527C20.9414 14.7912 21.0885 15.1645 21.167 15.555C21.1729 15.5846 21.1782 15.6141 21.1834 15.6443C21.3194 16.4703 21.1465 17.3177 20.6978 18.0231L18.7824 21.0726L19.6385 22.4292L21.1474 20.0517C21.2392 19.9073 21.3838 19.805 21.5501 19.767C21.7163 19.729 21.8907 19.7584 22.0355 19.8487V19.8487C22.1084 19.8942 22.1716 19.9538 22.2213 20.024C22.2711 20.0943 22.3065 20.1737 22.3255 20.2578C22.3445 20.3419 22.3466 20.429 22.3318 20.5139C22.3171 20.5989 22.2857 20.68 22.2394 20.7527L20.4012 23.6386L21.2376 24.963L26.0486 17.4207C26.2465 17.0948 26.3512 16.7205 26.3512 16.3387C26.3512 15.957 26.2465 15.5826 26.0486 15.2567L23.5745 11.2061C23.5298 11.1331 23.5001 11.0518 23.4871 10.9671C23.4741 10.8824 23.4781 10.7959 23.4989 10.7128C23.5197 10.6297 23.5568 10.5516 23.608 10.4831C23.6593 10.4146 23.7237 10.3571 23.7974 10.314V10.314C23.9409 10.2298 24.1114 10.2051 24.2728 10.245C24.4342 10.285 24.5737 10.3865 24.6619 10.5281L27.2864 14.7378C27.2864 14.7378 28.1869 16.1975 27.2864 17.8162L21.9931 26.1593L22.823 27.481Z" fill="url(#paint2_linear_2_2)"/><defs><linearGradient id="paint0_linear_2_2" x1="9.74806" y1="6.54643" x2="16.2776" y2="16.8359" gradientUnits="userSpaceOnUse"><stop stop-color="#B518E0"/><stop offset="1" stop-color="#4807F1"/></linearGradient><linearGradient id="paint1_linear_2_2" x1="16.0985" y1="17.5974" x2="10.6243" y2="24.1549" gradientUnits="userSpaceOnUse"><stop stop-color="#AD1A92"/><stop offset="1" stop-color="#EF27A3"/></linearGradient><linearGradient id="paint2_linear_2_2" x1="18.7785" y1="16.501" x2="29.9977" y2="16.501" gradientUnits="userSpaceOnUse"><stop stop-color="#3EB1EA"/><stop offset="1" stop-color="#4C6CFB"/></linearGradient></defs></svg>