<svg viewBox="0 0 32 32" xmlns="http://www.w3.org/2000/svg"><g fill="#005a92"><path d="m13.4 20.7a4.808 4.808 0 0 0 1.251-6.683l-3.963 2.712a2.4 2.4 0 0 1 -2.712-3.971l3.621-2.479 2.324-1.593a4.808 4.808 0 0 0 1.247-6.686l-3.968 2.72-5.941 4.064-.008.008a7.212 7.212 0 0 0 8.149 11.908z"/><path d="m18.61 11.3a.107.107 0 0 0 -.031.023l.031-.023a4.808 4.808 0 0 0 -1.251 6.683l3.963-2.712a2.407 2.407 0 0 1 2.72 3.971l-3.621 2.479-2.331 1.596a4.808 4.808 0 0 0 -1.252 6.683l3.962-2.712 5.945-4.072a7.213 7.213 0 0 0 -8.135-11.916"/></g></svg>