<svg xmlns="http://www.w3.org/2000/svg" xmlns:xlink="http://www.w3.org/1999/xlink" viewBox="0 0 32 32"><defs><linearGradient id="a" x1="305.289" y1="875.967" x2="307.299" y2="848.006" gradientTransform="translate(-290 -846)" gradientUnits="userSpaceOnUse"><stop offset="0" stop-color="#ffebc8"/><stop offset="1" stop-color="#ffa95f"/></linearGradient><linearGradient id="b" x1="305.465" y1="873.262" x2="306.435" y2="859.512" gradientTransform="translate(-290 -846)" gradientUnits="userSpaceOnUse"><stop offset="0" stop-color="#fab743"/><stop offset="1" stop-color="#ee6f05"/></linearGradient></defs><title>file_type_flareact</title><path d="M26.614,20.792c-.41,5.46-5.52,9.56-11.39,9.17s-10.27-5.13-9.84-10.58c.57-7.52,12-17.37,12-17.37C13.724,12.012,27.384,10.832,26.614,20.792Z" style="fill:url(#a)"/><path d="M10.554,22.742a5,5,0,0,0,4.8,5.189h.026a5.1,5.1,0,0,0,5.58-4.49c.29-3.7-4.52-9.2-4.52-9.2C17.474,19.342,10.934,17.872,10.554,22.742Z" style="fill:url(#b)"/></svg>