<svg xmlns="http://www.w3.org/2000/svg" viewBox="0 0 32 32"><title>file_type_jake</title><path d="M29.936,17.569c-.176-.252-.5-.283-.773-.365-.7-.221-1.4-.473-2.093-.717a31.1,31.1,0,0,0-3.309-.994c-.2-.04-.411-.055-.615-.088-.078-1.251-.155-2.5-.182-3.758a11.176,11.176,0,0,0-.44-2.78,1.851,1.851,0,0,0-1.191-1.121,7.222,7.222,0,0,0-2.341-.278A.424.424,0,0,1,18.78,7.4,4.962,4.962,0,0,0,15.438,7a24.36,24.36,0,0,0-2.517.561,10.011,10.011,0,0,0-1.977.723,3.994,3.994,0,0,0-1.888,2.5c-.163.78-.3,1.566-.424,2.353-.527-.061-1.058-.075-1.587-.091a4.818,4.818,0,0,0-2.118.484,3.973,3.973,0,0,0-1.861,1.688A7.65,7.65,0,0,0,2,18.867a8.513,8.513,0,0,0,.409,2.042,7.1,7.1,0,0,0,1.445,2.656,4.623,4.623,0,0,0,2.227,1.308,6.678,6.678,0,0,0,2.312.22,11.762,11.762,0,0,0,3.06-.728c.993-.324,2-.594,3.009-.875,1.651-.437,3.288-.924,4.919-1.43a36.821,36.821,0,0,0,3.525-1.339c1.988-.8,3.939-1.7,5.982-2.353.292-.116.64-.04.9-.23A.416.416,0,0,0,29.936,17.569Z" style="fill:#553f3f"/><path d="M15.867,7.252a4.624,4.624,0,0,1,2.507.286,9.474,9.474,0,0,0-3.573.833c-.963.376-1.991.551-2.96.908a.714.714,0,0,0-.493.8.528.528,0,0,0,.642.372,2.968,2.968,0,0,0,.867-.421c.841-.544,1.64-1.158,2.528-1.626a7.912,7.912,0,0,1,3.02-.756c.194-.031.347.127.536.129a6.218,6.218,0,0,1,2.462.334,1.5,1.5,0,0,1,.861.967,11.581,11.581,0,0,1,.384,2.514c.025,1.312.113,2.622.188,3.932.016.059-.016.19.087.176a11.879,11.879,0,0,1,2.276.5c1.271.37,2.5.869,3.762,1.263a1.7,1.7,0,0,1,.77.32c-.183.206-.47.164-.712.223-.268.063-.527.158-.788.244-2.045.712-4.015,1.613-6.023,2.42-.814.33-1.623.674-2.46.94-1.259.408-2.532.774-3.8,1.146-1.484.419-2.98.8-4.451,1.261a10.916,10.916,0,0,1-3.752.783,5.429,5.429,0,0,1-3.251-1.071,6.154,6.154,0,0,1-1.779-2.918,6.385,6.385,0,0,1-.369-2.6,8.47,8.47,0,0,1,.974-2.8,3.724,3.724,0,0,1,1.89-1.669,4.629,4.629,0,0,1,1.674-.39,19.41,19.41,0,0,1,2.017.12c.135-.863.283-1.724.457-2.58a3.629,3.629,0,0,1,1.457-2.151,4.551,4.551,0,0,1,1.326-.617,22.427,22.427,0,0,1,3.73-.875m2.368,1.133A4.663,4.663,0,0,0,15.615,9.4a1.764,1.764,0,0,0-.745,1.338,1.677,1.677,0,0,0,.7,1.22A6.045,6.045,0,0,0,19.8,13.409a9.515,9.515,0,0,1-2.436-.722,2.235,2.235,0,0,1-.841-.662.944.944,0,0,1-.073-.933A1.763,1.763,0,0,1,17.2,10.4a4.69,4.69,0,0,1,1.953-.514c.434-.033.859.122,1.293.057A2.032,2.032,0,0,0,21.53,9.5c.11-.093.22-.286.078-.4a2.959,2.959,0,0,0-.733-.33,8.035,8.035,0,0,0-2.639-.379m-11.011,5.5a4.689,4.689,0,0,0-2.719,1.147,4.6,4.6,0,0,0-1.278,2.271,5.666,5.666,0,0,0-.218,1.178,8.2,8.2,0,0,1,1.227-2.639,2.766,2.766,0,0,1,1.264-1,7.785,7.785,0,0,1,1.711-.367,2.906,2.906,0,0,1,.97.062.788.788,0,0,1,.353.26c.03-.294.081-.585.121-.878a6.666,6.666,0,0,0-1.432-.036M23.073,16.6a1.426,1.426,0,0,1-.106.634,2.021,2.021,0,0,1-1.068.878,17.915,17.915,0,0,1-5.056,1.348,23.035,23.035,0,0,1-4.36.057,10.407,10.407,0,0,1-2.666-.573,5.5,5.5,0,0,1-1.065-.5A1.287,1.287,0,0,1,8.2,17.8a1.7,1.7,0,0,1-.044-.645,2.1,2.1,0,0,0-.185,1.427,1.2,1.2,0,0,0,.533.651,6.552,6.552,0,0,0,1.613.7,12.125,12.125,0,0,0,2.15.45,26.457,26.457,0,0,0,2.742.074,19.071,19.071,0,0,0,5.686-.98,7.872,7.872,0,0,0,1.968-.923,1.272,1.272,0,0,0,.577-.709,1.864,1.864,0,0,0-.17-1.247m3.5,1.274a47.72,47.72,0,0,0-8.215,2.713c-2,.815-3.991,1.672-5.923,2.643a18.694,18.694,0,0,1-2.643.9,4.771,4.771,0,0,1-2.1.179,7.54,7.54,0,0,1-2.643-.862,3.1,3.1,0,0,1-.745-.7,2.834,2.834,0,0,0,1.569,1.327,5.522,5.522,0,0,0,2.193.413,9.732,9.732,0,0,0,2.54-.393c.406-.116.8-.271,1.194-.415,1.288-.495,2.557-1.035,3.836-1.552a12.944,12.944,0,0,1,1.844-.64c1.186-.365,2.344-.815,3.518-1.219a28.6,28.6,0,0,1,2.9-.922c1.107-.289,2.2-.646,3.3-.947a3.655,3.655,0,0,0,.753-.215,3.12,3.12,0,0,0,.762-.626A15.375,15.375,0,0,0,26.571,17.871Z" style="fill:#a9867e"/></svg>