<svg viewBox="0 0 32 32" xmlns="http://www.w3.org/2000/svg" xmlns:xlink="http://www.w3.org/1999/xlink"><linearGradient id="a" gradientTransform="matrix(1 0 0 -1 0 -306)" gradientUnits="userSpaceOnUse" x1="17.249" x2="14.973" y1="-335.597" y2="-309.994"><stop offset="0" stop-color="#fff" stop-opacity="0"/><stop offset=".01" stop-color="#f7f6f8" stop-opacity=".04"/><stop offset=".09" stop-color="#aa9cb3" stop-opacity=".39"/><stop offset=".2" stop-color="#6f567e" stop-opacity=".66"/><stop offset=".32" stop-color="#452459" stop-opacity=".86"/><stop offset=".5" stop-color="#2d0843" stop-opacity=".97"/><stop offset="1" stop-color="#26003d"/></linearGradient><path d="m17.8 8.591c2.079 4.584 7.64 6.5 7.141 12.474-.582 7.017-5.551 8.784-8.316 8.909a8.815 8.815 0 0 1 -9.4-7.485c-1.607-7.443 5.43-18.857 9.484-20.489a15.083 15.083 0 0 0 1.091 6.591zm-.166 18.857a.423.423 0 0 0 -.057-.327c-.593-1.1-5.81-1.645-6.907-1.752a8.272 8.272 0 0 0 1.635 1.3 7.766 7.766 0 0 0 2.814 1.041c.803.121 2.348.223 2.516-.263z" fill="#7c648f"/><path d="m18.248 10.618c4.47 4.823 6.445 4.979 6.237 10.478-.249 6.476-4.543 8.191-7.058 8.42-4.2.551-7.495-1.528-8.358-5.686-1.757-6.767 3.909-17.807 7.568-19.47a15.323 15.323 0 0 0 1.621 6.24z" fill="#26003d" opacity=".25"/><path d="m17.385 9.921c2.984 4.079 6.934 3.779 7.615 9.72.094 6.923-3.6 9.283-6.237 9.948-4.5 1.279-8.514-.645-10.094-5-3.035-7 2.651-18.514 6.31-20.915a15.083 15.083 0 0 0 2.37 6.237z" fill="url(#a)" opacity=".75"/></svg>