<?xml version="1.0" encoding="UTF-8"?>

<svg xmlns:svg="http://www.w3.org/2000/svg" 
  xmlns="http://www.w3.org/2000/svg" viewBox="0 0 32 32" version="1.1">
  <g transform="translate(0,-43.966981)">
    <g transform="scale(0.76137177,1.3134188)" style="fill:#aa0000;">
      <path d="M 9.7055457,54.385273 H 6.5251841 Q 5.7885881,53.510024 5.1906454,52.582779 4.5927028,51.655535 4.159411,50.589637 3.7521167,49.593066 3.5181392,48.379849 3.2928274,47.166632 3.2928274,45.858091 q 0,-1.429863 0.2339776,-2.591085 0.2426434,-1.161222 0.6239402,-2.123129 0.4159601,-1.048566 1.0139027,-1.975811 0.6066085,-0.93591 1.3605362,-1.837157 h 3.1803616 v 0.251309 q -0.7019327,0.632606 -1.3432045,1.438529 -0.632606,0.797257 -1.1785536,1.87182 -0.5199502,1.031235 -0.8492519,2.287781 -0.3206359,1.256546 -0.3206359,2.677743 0,1.481858 0.3119701,2.686409 0.3206359,1.204551 0.8579177,2.279115 0.5199501,1.022568 1.1698878,1.854489 0.6586035,0.840586 1.3518703,1.45586 z" />
      <path d="m 38.31147,45.858091 q 0,1.308541 -0.233978,2.521758 -0.225311,1.204551 -0.632606,2.209788 -0.433291,1.065898 -1.031234,1.993142 -0.597943,0.927245 -1.334539,1.802494 h -3.180361 v -0.251309 q 0.693267,-0.615274 1.35187,-1.447194 0.658604,-0.831921 1.169888,-1.863155 0.537282,-1.074564 0.849252,-2.279115 0.320636,-1.204551 0.320636,-2.686409 0,-1.421197 -0.329302,-2.677743 -0.320636,-1.256546 -0.840586,-2.287781 -0.545948,-1.074563 -1.18722,-1.87182 -0.632606,-0.805923 -1.334538,-1.438529 v -0.251309 h 3.180361 q 0.753928,0.901247 1.351871,1.837157 0.606608,0.927245 1.022568,1.975811 0.381297,0.961907 0.615275,2.123129 0.242643,1.161222 0.242643,2.591085 z" />
    </g>
    <g transform="scale(0.93032933,1.0748882)" style="fill:#cc1111;">
      <path d="m 9.984743,53.974545 q -0.9602735,0 -1.6004559,-0.578627 -0.6401823,-0.590937 -0.6401823,-1.452721 0,-0.886406 0.6524935,-1.452722 0.6648048,-0.566315 1.6497007,-0.566315 0.997207,0 1.625078,0.578627 0.640183,0.566315 0.640183,1.44041 0,0.898717 -0.652494,1.465033 -0.640182,0.566315 -1.674323,0.566315 z m 0,9.011797 q -0.9602735,0 -1.6004559,-0.590937 -0.6401823,-0.590938 -0.6401823,-1.452722 0,-0.886406 0.6524935,-1.452721 0.6648048,-0.566315 1.6497007,-0.566315 0.997207,0 1.625078,0.578626 0.640183,0.566315 0.640183,1.44041 0,0.898718 -0.652494,1.477344 -0.640182,0.566315 -1.674323,0.566315 z" />
      <path d="m 25.583032,62.678562 h -3.681049 v -1.809746 h -0.04924 q -1.268054,2.117526 -3.754916,2.117526 -1.834369,0 -2.893132,-1.034141 -1.046452,-1.046451 -1.046452,-2.78233 0,-3.668738 4.345853,-4.235053 l 3.422514,-0.455514 q 0,-2.068282 -2.240638,-2.068282 -2.25295,0 -4.284298,1.341921 v -2.930065 q 0.81254,-0.418581 2.216016,-0.738672 1.415788,-0.320091 2.573041,-0.320091 5.392305,0 5.392305,5.379994 z M 21.926606,57.557103 V 56.707631 L 19.636723,57.0031 q -1.895925,0.246224 -1.895925,1.711256 0,0.664805 0.455515,1.095697 0.467825,0.418581 1.255742,0.418581 1.095696,0 1.785124,-0.750984 0.689427,-0.763294 0.689427,-1.920547 z" />
    </g>
  </g>
</svg>