<svg viewBox="0 0 32 32" xmlns="http://www.w3.org/2000/svg"><path d="m22.576 8.655a34.508 34.508 0 0 0 -2.251-4.609l-.177-.307c-.173-.316-.3-.543-.352-.628l-.643-1.111-.92 5.954-.031.216q-1.03-.055-2.19-.055t-2.2.055l-.029-.217-.322-2.087-.601-3.866-.66 1.11c-.058.1-.237.413-.47.838l-.056.1a34.589 34.589 0 0 0 -2.27 4.613 20.038 20.038 0 0 0 -2.8.663v14.469l9.396 6.207 9.392-6.206v-14.472a19.765 19.765 0 0 0 -2.816-.667z" fill="#fff"/><path d="m20.042 19.89h-4.051v-6.324l-4.106 6.139-.637 6.3 4.682 3.12.064.042 4.789-3.185z" fill="#3b3b63"/><path d="m15.924 29.105-8.716-5.762v-13.443a29 29 0 0 1 8.728-1.12 28.715 28.715 0 0 1 8.7 1.123v13.44z" fill="#dbdbdb"/><path d="m16.049 8.78h-.012v20.325l8.716-5.763v-13.442a28.76 28.76 0 0 0 -8.7-1.122" fill="#c6c6c6"/><path d="m20.758 25.973-.739-6.082h-4.049v9.264z" fill="#3b3b63"/><path d="m11.248 26.008 4.745 3.162v-15.6l-4.108 6.14z" fill="#53537a"/><path d="m18.036 24.212c0 1.042-1.051 1.559-2.014 1.559s-2.036-.516-2.036-1.56" fill="#bc9375"/><path d="m17.445 23.62c0 1.223-.71 1.55-1.434 1.55s-1.434-.328-1.434-1.55" fill="#073251"/><path d="m16.011 24.749c-.774 0-1.15-.525-1.15-1.607h.368c0 1.265.528 1.265.781 1.265s.781 0 .781-1.265h.369c0 1.082-.377 1.608-1.15 1.608" fill="#fff"/><path d="m22.151 10.677c0-1.32-2.4-5.472-2.4-5.472l-.814 5.266-.73 1.111-2.188.082-.009.018v-.018l-2.188-.082-.73-1.111-.813-5.265s-2.409 4.152-2.409 5.472l1.015 2.534s-.513 4.259-.279 4.816a19.809 19.809 0 0 0 1.855 2.422 8.721 8.721 0 0 0 .439 2.695 1.743 1.743 0 0 0 1.682 1.133 1.6 1.6 0 0 0 1.423-.869 1.627 1.627 0 0 0 1.433.87 1.745 1.745 0 0 0 1.684-1.131 8.723 8.723 0 0 0 .437-2.695 19.882 19.882 0 0 0 1.855-2.422c.234-.558-.279-4.816-.279-4.816l1.016-2.536z" fill="#c49a7e"/><path d="m16.011 11.673v.009-.018l-2.188-.082-.73-1.111-.814-5.265s-2.4 4.152-2.4 5.472l1.015 2.535s-.513 4.258-.279 4.816a19.892 19.892 0 0 0 1.854 2.422 8.751 8.751 0 0 0 .439 2.695 1.745 1.745 0 0 0 1.682 1.132 1.605 1.605 0 0 0 1.424-.869v.009z" fill="#d8b7a0"/><path d="m21.158 13.462c-.187-.362.078-1.218.078-1.218-1.517-1.443-1.9-4.452-1.9-4.452-.282.947-.9 3.744-.9 3.744a8.372 8.372 0 0 0 -2.422-.393h-.01c-.071 0-.141 0-.209 0v11.8l.1.129v-.064h.059.118.06v.064l1.05-1.42.228-3.992 1.307 1.384 1.683.456.628-.415a2.892 2.892 0 0 0 .422-.8c.234-.558-.291-4.829-.291-4.829" fill="#3b3b63"/><path d="m16.023 11.142a8.376 8.376 0 0 0 -2.424.393s-.616-2.795-.9-3.745c0 0-.38 3.01-1.9 4.452a2.321 2.321 0 0 1 .079 1.218s-.525 4.273-.291 4.83a2.922 2.922 0 0 0 .421.8l.63.415 1.684-.455 1.306-1.384.229 3.991 1.043 1.42v-.064h.06.059v-11.872z" fill="#53537a"/><path d="m19.065 16.133h-1.965v.018a1.3 1.3 0 0 0 2.581 0v-.018h-.615z" fill="#333152"/><path d="m17.591 16.133v.018a.739.739 0 0 0 1.475 0v-.018z" fill="#fff"/><path d="m18.556 16.133h-.346-.009c.043.009.066.1.057.158a.193.193 0 0 1 -.194.157.314.314 0 0 0 .273.234.321.321 0 0 0 .37-.255c.018-.121-.046-.295-.151-.295m-4.238 0h-1.967v.018a1.3 1.3 0 0 0 2.582 0v-.018z" fill="#333152"/><path d="m12.843 16.133v.018a.739.739 0 0 0 1.475 0v-.018z" fill="#fff"/><path d="m13.809 16.133h-.346-.009c.043.009.066.1.057.158a.194.194 0 0 1 -.195.157.315.315 0 0 0 .273.234.321.321 0 0 0 .37-.255c.018-.121-.046-.295-.15-.295" fill="#333152"/><path d="m18.917 15.59c.082-.085.783-.821-.155-.821a2.29 2.29 0 0 0 -1.618.819h1.773z" fill="#c49a7e"/><path d="m14.873 15.59a2.284 2.284 0 0 0 -1.619-.821c-.938 0-.237.737-.155.819h1.774z" fill="#d8b7a0"/><path d="m11.9 16.126h3.587v-.312h-3.587z" fill="#53537a"/><path d="m21.222 11.7a9.233 9.233 0 0 1 -1.4-3.767l.193-1.233a15.506 15.506 0 0 1 1.641 3.913zm-.266 6.177a18.058 18.058 0 0 1 -1.78 2.3l-.109.127v.16a8.284 8.284 0 0 1 -.409 2.536 1.265 1.265 0 0 1 -1.22.831 1.132 1.132 0 0 1 -.981-.6l-.038-.54h-.826l-.036.537a1.119 1.119 0 0 1 -.974.6 1.262 1.262 0 0 1 -1.22-.83 8.328 8.328 0 0 1 -.41-2.537v-.161l-.109-.126a18.561 18.561 0 0 1 -1.775-2.292 27.983 27.983 0 0 1 .307-4.609l.013-.107-.184-.459a6.287 6.287 0 0 0 1.382-2.264l.03.2 1 1.53.391-.155a6.271 6.271 0 0 1 1.994-.4 6.393 6.393 0 0 1 2 .4l.391.155 1-1.53.04-.255a6.393 6.393 0 0 0 1.382 2.3l-.193.483.013.107a28.384 28.384 0 0 1 .31 4.6zm-5.556 6.706a2.044 2.044 0 0 0 .355-.189.966.966 0 0 0 .257.025.953.953 0 0 0 .255-.025 2.044 2.044 0 0 0 .355.189 1.135 1.135 0 0 1 -1.222 0zm.623.971c-.54 0-1.307-.222-1.5-.813h.059a2.37 2.37 0 0 0 .3-.021 1.363 1.363 0 0 0 1.133.461 1.364 1.364 0 0 0 1.134-.461 2.328 2.328 0 0 0 .294.021h.061a1.517 1.517 0 0 1 -1.478.814zm-5.657-14.94a15.533 15.533 0 0 1 1.642-3.914l.206 1.335a8.912 8.912 0 0 1 -1.4 3.689l-.446-1.111zm12.266.073c0-1.393-2.205-5.25-2.458-5.686l-.7-1.223-1.011 6.546-.464.71a7.055 7.055 0 0 0 -1.987-.335 6.951 6.951 0 0 0 -1.979.334l-.466-.71-.353-2.294v-.012l-.656-4.24-.727 1.223c-.253.434-2.476 4.292-2.476 5.686v.082l1.02 2.51c-.164 1.369-.473 4.343-.23 4.924a10.44 10.44 0 0 0 1.233 1.715l-.668 5.753.92.6.484-4.186a6.32 6.32 0 0 0 .325 1.225 2.193 2.193 0 0 0 1.061 1.182 2.293 2.293 0 0 0 2.526 1.971 2.278 2.278 0 0 0 2.5-1.973 2.2 2.2 0 0 0 1.056-1.18 6.353 6.353 0 0 0 .334-1.275l.489 4.2.918-.621-.663-5.713a10.369 10.369 0 0 0 1.215-1.7c.244-.581-.079-3.554-.241-4.924l1-2.511v-.082z" fill="#333152"/><path d="m17.168 21.131h-2.306a2.537 2.537 0 0 0 -.311.665c0 .483 1.42 1.25 1.42 1.25s1.5-.792 1.5-1.252a1.9 1.9 0 0 0 -.3-.665" fill="#333152"/><path d="m16.724 22.6c-.129-.211-.295-.25-.371-.087a.827.827 0 0 0 .1.677c.127.212.295.25.371.087a.826.826 0 0 0 -.1-.677" fill="#c49a7e"/><path d="m15.3 22.6a.82.82 0 0 0 -.1.677c.076.164.241.125.371-.087a.82.82 0 0 0 .1-.677c-.076-.164-.241-.124-.371.087" fill="#d8b7a0"/></svg>