<svg xmlns="http://www.w3.org/2000/svg" viewBox="0 0 32 32"><title>file_type_awk</title><path d="M26.925,27.737C23.431,26.1,24.606,14.588,13.81,8.319,14.089,5.792,14.758-.5,7.961,3,6.845,3.128,4.907,2.331,4,4.831v.114C16.918,3.9.088,10.53,16.75,25.844c-.373.176-.674-.325-1.97.1l-.014.016c-1.722,1.135,1.933.768,4.154,1.274-1.611.417-5.594-1.137-6.3,1.645.877-.37,1,.329,1.076,1.077A26.277,26.277,0,0,1,22.379,27.5c1.1.285,4.118,2.049,5.122.551C27.519,27.93,27.221,27.876,26.925,27.737Z"/><path d="M10.446,2.97l-.121.088a.266.266,0,0,0-.011.377.211.211,0,0,0,.045.039.416.416,0,0,0,.521-.063.263.263,0,0,0,.078-.364l-.01-.014c-.076-.143-.163-.177-.34-.127C10.553,2.925,10.5,2.946,10.446,2.97Z" style="fill:#d2d2d2"/><path d="M18,26.368c.151-.041.318-.828.174-.949A6.29,6.29,0,0,0,19.4,26.485c1.023,1.007,2.665-.032,3.482.759a10.736,10.736,0,0,0,1.957,1.027c-.139-.151-.029-.144.179-.011-.13-.338-4.421-5.156-5.226-7.18.095.293-1.608-.824-2.076-1.419-.028.056-.092-.251-.228-.434-.041.05-.2-.433-.3-.728.037.187-.462-.5-.65-.818-.056.09-.719.372-.809.286-.729-.4,2.529,4.066.122,2.559.676.683.614.4-1.095-.852.364.452-.317.312-1.553-1.523.186.2-.218-.576-.218-.576a2.692,2.692,0,0,0-.133-.483c-.056-.32-.241-.723-.12-.65-1.444-1.556,1.314-3.3.719-3.671-.111,0-.027.017-.151-.106-.09,0-.468.285-.587-.234.006.132-.034.406-.153-.1-.023.052.015.1-.03.145-.225-.576-.772-1.6-1.217-2.539-.158.155-.138-.076-.193-1.092.053.144-.225,1.921-.2.13-.128.007.108,1.258-.343.21-.141.05-.305-.363-.341-1.178-.048.623-.29.187-.5-.923-.269.508-1.6,1.743-.333,7.622-.053-.313.186.341.755,2.427.021-.039-.022-.083.038-.131a6.324,6.324,0,0,0,.677,1.365c.544.658.995,2.074.8,1.277a11.867,11.867,0,0,0,2.554,3.249A34.423,34.423,0,0,0,18,26.368Z" style="fill:#d2d2d2"/><path d="M10.823,2.557a.291.291,0,0,0-.051-.022c-.221-.04-.429.153-.654.032-.145.085-.257-.036-.375-.073a.224.224,0,0,0-.2.014,5.823,5.823,0,0,0-.814.582,1.037,1.037,0,0,0-.273.449c-.021.048-.037.126.05.137a2.3,2.3,0,0,0,.682.045c.177-.028.277-.152.418-.221a1.2,1.2,0,0,0,.592-.68c.064-.175.161-.167.28-.2S10.7,2.62,10.823,2.557Z" style="fill:#d2d2d2"/><path d="M10.325,3.058l.121-.088a.117.117,0,0,1,.12.064c.044.1.106.112.193.047.033-.025.071-.058.118-.027a.119.119,0,0,1,.041.128.276.276,0,0,1-.187.248.266.266,0,0,1-.3-.03C10.341,3.308,10.26,3.2,10.325,3.058Z"/></svg>