<svg version="1.1" viewBox="0 0 32 32" xml:space="preserve" xmlns="http://www.w3.org/2000/svg" xmlns:xlink="http://www.w3.org/1999/xlink"><defs><linearGradient id="g" x1="-.10169" x2="2.2204e-16" y1="-5.691" y2="-100.83" gradientTransform="matrix(1 0 0 .137 1.07 29.95)" gradientUnits="userSpaceOnUse" spreadMethod="reflect"><stop stop-color="#0f0" offset="0"/><stop stop-color="#0f0" stop-opacity=".65" offset=".13"/><stop stop-color="#0f0" stop-opacity="0" offset=".82"/></linearGradient><linearGradient id="r" x1="12.01" x2="101.35" gradientTransform="matrix(.147 0 0 1 1.07 29.95)" gradientUnits="userSpaceOnUse" spreadMethod="reflect"><stop stop-color="#f00" offset="0"/><stop stop-color="#f00" stop-opacity=".55" offset=".26"/><stop stop-color="#f00" stop-opacity="0" offset=".82"/></linearGradient></defs><path id="d" d="m27.07 7.95c-1.9 6.7-5.9 17.8-11 17.7-4.5 0-8.2-8.1-11-17.7-6.5 8-0.3 21.8 11 21.7 12.3-0.2 16.8-13.8 11-21.7zm-11-5.6c-5.3 0-8 2.6-9.4 3.7 1.1 3.1 4.7 12.6 9.4 12.7 4.7-0.1 8.3-9.6 9.4-12.7-1.4-1.1-4.1-3.7-9.4-3.7z" fill="#191e99"/><path id="e" d="m27.07 7.95c-1.9 6.7-5.9 17.8-11 17.7-4.5 0-8.2-8.1-11-17.7-6.5 8-0.3 21.8 11 21.7 12.3-0.2 16.8-13.8 11-21.7zm-11-5.6c-5.3 0-8 2.6-9.4 3.7 1.1 3.1 4.7 12.6 9.4 12.7 4.7-0.1 8.3-9.6 9.4-12.7-1.4-1.1-4.1-3.7-9.4-3.7z" fill="url(#g)" style="mix-blend-mode:screen"/><path id="f" d="m27.07 7.95c-1.9 6.7-6 17.7-11 17.7-4.5 0-8.2-8.1-11-17.7-6.5 8-0.3 21.8 11 21.7 12.3-0.2 16.8-13.8 11-21.7zm-11-5.6c-5.3 0-8 2.6-9.4 3.7 1.1 3.1 4.7 12.6 9.4 12.7 4.7-0.1 8.3-9.6 9.4-12.7-1.4-1.1-4.1-3.7-9.4-3.7z" fill="url(#r)" style="mix-blend-mode:screen"/><path id="o" d="m6.81 6.45c2.26-2.25 5.62-3.7 9.19-3.7 3.62 0 6.92 1.48 9.3 3.8l0.27-0.77c-2.4-2.31-5.87-3.78-9.57-3.78s-6.99 1.41-9.47 3.69zm20.11 2.03c1.48 2.14 2.34 4.72 2.34 7.52 0 7.32-5.93 13.25-13.25 13.25s-13.25-5.93-13.25-13.25c0-2.87 0.89-5.49 2.44-7.66l-0.27-0.91c-1.9 2.46-2.93 5.41-2.93 8.57 0 7.73 6.27 14 14 14s14-6.27 14-14c0-3.17-1.05-6.09-2.83-8.44z"/></svg>
