<svg xmlns="http://www.w3.org/2000/svg" viewBox="0 0 32 32"><title>file_type_scss@2x</title><g id="scss"><path d="M16.17,18.7c-.48.22-1,.51-2.06,1.09l-1.21.66-.08-.09c-2.09-2.23-5.95-3.81-5.78-6.8.06-1.09.44-4,7.41-7.43,5.74-2.83,10.31-2,11.1-.31,1.13,2.48-2.45,7.09-8.38,7.76a4.47,4.47,0,0,1-3.75-.95c-.31-.34-.36-.36-.48-.29s-.07.41,0,.59a3.5,3.5,0,0,0,2.14,1.68,11.4,11.4,0,0,0,7-.69c3.59-1.39,6.4-5.26,5.58-8.5S21.34,1.05,16.17,2.89a26,26,0,0,0-8.79,5c-2.84,2.66-3.29,5-3.11,5.94.66,3.44,5.4,5.67,7.3,7.33l-.26.14c-.95.47-4.56,2.36-5.46,4.36-1,2.26.16,3.89.95,4.11a5.83,5.83,0,0,0,6.28-2.54,6.3,6.3,0,0,0,.56-5.8,5,5,0,0,1,.72-.48c.48-.29.95-.57,1.35-.79h0a10.48,10.48,0,0,1,4.48-1c3.25.38,3.89,2.41,3.76,3.26a2.16,2.16,0,0,1-1,1.46c-.23.14-.3.19-.28.29s.14.14.33.12a2.54,2.54,0,0,0,1.77-2.26c.1-2-1.81-4.19-5.18-4.17a7.75,7.75,0,0,0-2.95.59l-.44.2Zm-4.82,7.84c-1.08,1.17-2.58,1.62-3.23,1.24S7.7,25.65,9,24.4a17.18,17.18,0,0,1,2.53-1.89l.67-.4.08,0,.16-.1A4.66,4.66,0,0,1,11.35,26.54Z" style="fill:#cd6799"/></g></svg>