<svg xmlns="http://www.w3.org/2000/svg" viewBox="0 0 32 32"><path fill="#7c1900" d="M14.747 4.45c-3.37 1.289-3.5 6.005-.184 7.386.387.166.884.295 1.142.295s.516.074.571.184c.148.221.074.221-1.676-.018-1.529-.203-2.321-.037-2.653.59-.387.7-.294.718 4.145.718 2.947 0 4.329-.056 4.329-.203 0-.681-1.234-1.455-2.358-1.455h-.497l.57-.35c2.47-1.51 2.45-5.305-.018-6.742-.958-.571-2.468-.756-3.37-.406m-.83 5.545c.295.424.94.995 1.437 1.271.884.498.498.516-.46.037-1.106-.571-2.045-2.1-2.008-3.26.018-.553.037-.535.258.294.147.516.497 1.253.773 1.658m-.313 5.637c0 1.768-.037 1.953-.59 2.984-.589 1.105-1.344 1.824-2.136 2.082l-.442.129.387.405c.644.682.515 1.474-.424 2.468-.46.498-.903 1.106-1.013 1.364-.148.368-.369.515-1.16.7-1.29.294-5.545 1.676-5.453 1.75.037.055.515-.037 1.068-.185 1.953-.534 7.295-1.547 9.1-1.75 1.787-.184 8.732-.736 9.376-.736.277 0 .203-.166-.368-.83l-.7-.81-1.75-.037c-.958 0-2.155-.073-2.671-.166-.755-.11-.516-.147 1.29-.165 2.284-.037 3.739-.314 2.118-.406-.81-.036-.83-.036-.13-.11 1.327-.148.664-.424-1.012-.442-.94 0-2.082-.074-2.542-.148-.608-.11-.11-.165 1.86-.184 2.266-.018 2.745-.074 2.947-.331.203-.24.222-.314.019-.387-.682-.221-1.805-1.327-2.229-2.21-.35-.72-.553-.959-.792-.885-.258.055-.332-.037-.313-.405.018-.313.055-.387.11-.184.221.828.424.184.424-1.308v-1.621l-2.155-.11c-1.198-.038-2.321-.148-2.487-.222-.295-.129-.332.037-.332 1.75m1.032 1.695c-.074.516-.258 1.197-.424 1.51-.387.774-1.308 1.732-1.99 2.082-.515.258-.515.24.111-.295.921-.774 1.769-2.155 2.026-3.297.295-1.234.443-1.234.277 0m2.468 9.192c-2.395.129-7.147.792-7.35 1.031-.073.056.313.056.81 0 3.15-.368 9.82-.534 13.89-.331 2.358.129 4.33.184 4.366.147.147-.129-3.703-.681-5.508-.773-.921-.056-2.155-.13-2.708-.166-.552-.019-2.137.018-3.5.092"/></svg>