<svg xmlns="http://www.w3.org/2000/svg" xmlns:xlink="http://www.w3.org/1999/xlink" viewBox="0 0 32 32"><defs><linearGradient id="linear-gradient" x1="13.15" y1="-186.91" x2="20.7" y2="-188.68" gradientTransform="matrix(1, 0, 0, -1, 0, -170)" gradientUnits="userSpaceOnUse"><stop offset="0" stop-color="#ff6533"/><stop offset="0.16" stop-color="#ff5633"/><stop offset="0.43" stop-color="#ff4333"/><stop offset="0.71" stop-color="#ff3733"/><stop offset="1" stop-color="#f33"/></linearGradient><linearGradient id="linear-gradient-2" x1="11.96" y1="-184.41" x2="25.5" y2="-194.91" gradientTransform="matrix(1, 0, 0, -1, 0, -170)" gradientUnits="userSpaceOnUse"><stop offset="0" stop-color="#bf3338"/><stop offset="1" stop-color="#f33"/></linearGradient><linearGradient id="linear-gradient-3" x1="12.41" y1="-186.48" x2="14.37" y2="-188.54" xlink:href="#linear-gradient"/><linearGradient id="linear-gradient-4" x1="15.97" y1="-190.02" x2="15.39" y2="-181.58" xlink:href="#linear-gradient"/><linearGradient id="linear-gradient-5" x1="13.42" y1="-186.33" x2="16.21" y2="-188.23" gradientTransform="matrix(1, 0, 0, -1, 0, -170)" gradientUnits="userSpaceOnUse"><stop offset="0" stop-color="#fbb040"/><stop offset="1" stop-color="#fb8840"/></linearGradient><linearGradient id="linear-gradient-6" x1="16.28" y1="-175.61" x2="13.43" y2="-206.91" gradientTransform="matrix(1, 0, 0, -1, 0, -170)" gradientUnits="userSpaceOnUse"><stop offset="0" stop-color="#fff"/><stop offset="1" stop-color="#fff" stop-opacity="0"/></linearGradient></defs><title>file_type_rollup@2x</title><g id="rollupjs"><g id="_Group_" data-name="&lt;Group&gt;"><path id="_Path_" data-name="&lt;Path&gt;" d="M26.71,11.22a9.15,9.15,0,0,0-1.19-4.53c-2-2.08-6.4-2.56-7.49,0s1.88,5.51,3.19,5.28c1.67-.29-.29-4.12-.29-4.12,2.55,4.81,2,3.34-2.65,7.75S9,29.32,8.27,29.71l-.09,0H26.26a.43.43,0,0,0,.38-.62l-4.73-9.36a.43.43,0,0,1,.17-.56A9.21,9.21,0,0,0,26.71,11.22Z" style="fill:url(#linear-gradient)"/></g><g id="_Group_2" data-name="&lt;Group&gt;"><path id="_Path_2" data-name="&lt;Path&gt;" d="M26.71,11.22a9.15,9.15,0,0,0-1.19-4.53c-2-2.08-6.4-2.56-7.49,0s1.88,5.51,3.19,5.28c1.67-.29-.29-4.12-.29-4.12,2.55,4.81,2,3.34-2.65,7.75S9,29.32,8.27,29.71l-.09,0H26.26a.43.43,0,0,0,.38-.62l-4.73-9.36a.43.43,0,0,1,.17-.56A9.21,9.21,0,0,0,26.71,11.22Z" style="fill:url(#linear-gradient-2)"/></g><path id="_Path_3" data-name="&lt;Path&gt;" d="M8.27,29.71c.69-.39,5.4-9.71,10-14.13s5.2-2.94,2.65-7.75c0,0-9.76,13.69-13.3,20.46" style="fill:url(#linear-gradient-3)"/><g id="_Group_3" data-name="&lt;Group&gt;"><path id="_Path_4" data-name="&lt;Path&gt;" d="M9.64,17.45C16.23,5.33,17.1,4.1,20.53,4.1a6.25,6.25,0,0,1,4.8,2.26A9.21,9.21,0,0,0,17.64,2H6.44A.43.43,0,0,0,6,2.43V25A68,68,0,0,1,9.64,17.45Z" style="fill:url(#linear-gradient-4)"/></g><path id="_Path_5" data-name="&lt;Path&gt;" d="M18.27,15.58C13.66,20,9,29.32,8.27,29.71a2.08,2.08,0,0,1-2.45-.25c-.65-.73-1.67-1.91,3.83-12C16.23,5.33,17.1,4.1,20.53,4.1a6.25,6.25,0,0,1,4.8,2.26l.19.32c-2-2.08-6.4-2.56-7.49,0s1.88,5.51,3.19,5.28c1.67-.29-.29-4.12-.29-4.12C23.47,12.64,22.89,11.17,18.27,15.58Z" style="fill:url(#linear-gradient-5)"/><path id="_Path_6" data-name="&lt;Path&gt;" d="M10.18,18C16.77,5.87,17.64,4.64,21.07,4.64A6.3,6.3,0,0,1,25.19,6.2,6.25,6.25,0,0,0,20.53,4.1c-3.43,0-4.3,1.22-10.89,13.34-5.49,10.11-4.48,11.29-3.83,12a1.61,1.61,0,0,0,.31.26C5.55,28.9,5.3,27,10.18,18Z" style="opacity:0.300000011920929;isolation:isolate;fill:url(#linear-gradient-6)"/></g></svg>