<svg xmlns="http://www.w3.org/2000/svg" xmlns:xlink="http://www.w3.org/1999/xlink" viewBox="0 0 32 32"><defs><radialGradient id="radial-gradient" cx="254.12" cy="-806.15" r="11.39" gradientTransform="matrix(1.78, 0.14, 0.1, -1.22, -355.71, -1000.52)" gradientUnits="userSpaceOnUse"><stop offset="0" stop-color="#0663b4"/><stop offset="1" stop-color="#16adff" stop-opacity="0.68"/></radialGradient><linearGradient id="linear-gradient" x1="255.24" y1="-1199.52" x2="255.24" y2="-1195.08" gradientTransform="matrix(1, 0, 0, -1, -250.52, -1191.96)" gradientUnits="userSpaceOnUse"><stop offset="0" stop-color="#047fc7"/><stop offset="1" stop-color="#11abe8"/></linearGradient></defs><title>file_type_nuget@2x</title><g id="nuget"><rect x="6.28" y="5.85" width="23.72" height="23.72" rx="7.7" ry="7.7" style="fill:#c7ebf1"/><rect x="6.74" y="6.55" width="22.79" height="22.56" rx="7.29" ry="7.29" style="opacity:0.823008835315704;isolation:isolate;fill:url(#radial-gradient)"/><rect x="8.04" y="8.45" width="19.43" height="19.43" rx="6.09" ry="6.09" style="fill:#016fd2"/><path d="M29.51,13.28a7.29,7.29,0,0,0-7.27-6.73H14a7.29,7.29,0,0,0-7.29,7.29v8c0,.16,0,.33,0,.49.52,0,1,0,1.57,0A29.19,29.19,0,0,0,29.51,13.28Z" style="fill:#5fffe6;opacity:0.172566369175911"/><path d="M26.5,21.87a5,5,0,1,1-10,0h0a5,5,0,1,1,10,0Z" style="fill:#fff"/><path d="M15.22,12.77a2.88,2.88,0,0,1-5.76,0h0a2.88,2.88,0,0,1,5.76,0Z" style="fill:#fff"/><path d="M7.44,5.15A2.72,2.72,0,1,1,2,5.15H2a2.72,2.72,0,1,1,5.44,0Z" style="fill:#cbedf2;fill-opacity:0.925490200519562"/><path d="M6.82,5.15a2.1,2.1,0,0,1-4.2,0h0a2.1,2.1,0,0,1,4.2,0Z" style="fill:url(#linear-gradient)"/></g></svg>