<svg viewBox="0 0 32 32" xmlns="http://www.w3.org/2000/svg"><g fill="#1b1b1b"><path d="m28.042 23.172c4.989-8.3-1.054-21.751-12.1-20.384-9.987 1.234-10.148 11.742-1.349 14.238 7.614 2.162 1.573 6.992 1.749 10.208s6.62 4.382 11.7-4.063"/><circle cx="9.784" cy="24.257" r="4.332"/><circle cx="4.835" cy="15.099" r="2.835"/></g><path d="m28.231 22.835c4.989-8.3-1.054-21.751-12.1-20.384-9.987 1.235-10.148 11.743-1.35 14.239 7.614 2.162 1.573 6.992 1.749 10.208s6.62 4.382 11.7-4.063" fill="#bfbfbf"/><circle cx="9.972" cy="23.921" fill="#bfbfbf" r="4.332"/><circle cx="5.023" cy="14.762" fill="#bfbfbf" r="2.835"/><path d="m17.811 28.168a.669.669 0 0 1 .635-.994 7 7 0 0 0 3.7-.746c3.247-1.841 8.244-10.7 5.731-16.285a12.77 12.77 0 0 0 -2.828-4.443c-.236-.249-.1-.236.059-.152a10.08 10.08 0 0 1 2.857 3.676 14.578 14.578 0 0 1 1.1 10.279c-.494 1.817-2.2 5.928-4.691 7.706s-5.424 2.8-6.563.955m-2.263-11.491c-1.7-.5-3.894-1.208-5.163-2.867a8.088 8.088 0 0 1 -1.531-3.316c-.043-.27-.08-.5 0-.558a21.882 21.882 0 0 0 1.688 2.723 6.487 6.487 0 0 0 3.526 2.256 12.383 12.383 0 0 1 3.867 1.37c.739.629.8 1.989.552 2.142s-.759-1.1-2.938-1.749m-8.155 10.4c3.369 3.121 8.439-1.166 6.207-4.954-.251-.425-.576-.749-.469-.423.714 2.178.054 3.9-1.176 4.788a4.063 4.063 0 0 1 -4.192.328c-.39-.2-.551.092-.37.261m-3.93-10.16c.018.2.292.458.722.576a2.969 2.969 0 0 0 2.55-.413 2.759 2.759 0 0 0 .81-3.452c-.172-.308-.4-.533-.218-.041a2.68 2.68 0 0 1 -1.18 2.946 2.439 2.439 0 0 1 -2.1.164c-.391-.119-.6.016-.58.223"/><path d="m19.056 28.407c-.033.389.414.466 1.016.376a6.755 6.755 0 0 0 2.313-.648 9.54 9.54 0 0 0 3.314-2.63c2.662-3.473 3.6-7.582 3.46-8.173a16.172 16.172 0 0 1 -2.159 5.36c-1.888 2.968-3.256 4.548-6.413 5.314-.879.213-1.485-.112-1.529.4m-7-13.5a7.967 7.967 0 0 0 2.542 1.183 12.2 12.2 0 0 1 2.96 1.31c.378.253.618.819.642.317s-.285-.934-.976-1.164a15.274 15.274 0 0 0 -2.009-.674c-.485-.1-1.273-.285-1.949-.493-.371-.114-.748-.313-1.214-.483m-2.017 12.816c.429-.09 2.924-.736 3.51-2.788.183-.64.215-.511.164-.165a3.8 3.8 0 0 1 -3.358 3.123c-.289.03-.668-.1-.315-.17m-4.992-10.518a7.991 7.991 0 0 0 1.195-.336 2.383 2.383 0 0 0 1.232-1.741c.064-.505.083-.378.109-.1a2.627 2.627 0 0 1 -2.147 2.324c-.2.028-.56.011-.389-.143" fill="#fff"/><path d="m27.54 17.446c2.124-6.123-2.321-15.37-11.315-14.258-8.126 1-8.257 9.557-1.1 11.59 8.112 1.228 3.227 7.347 2.535 10.433-.621 2.766 6.555 3.221 9.876-7.765m-20.317 8.754a2.028 2.028 0 0 1 1.332.442 3.525 3.525 0 0 0 3.755-.983 4.154 4.154 0 0 0 .563-3.659c-.806-2.319-4.229-2.278-5.758-.353-1.654 2.15-.4 4.539.108 4.548m-4.543-10.744a1.166 1.166 0 0 0 .908.863c.731.1.88.434 1.743.263a2.464 2.464 0 0 0 1.773-1.661 1.771 1.771 0 0 0 -.824-2.14 2.689 2.689 0 0 0 -3.047.363 2.263 2.263 0 0 0 -.558 2.312" fill="#999"/><path d="m21.981 22.228c-2.2-.272-5.36 4.69-2.378 4.109a5.645 5.645 0 0 0 3.683-1.932 23.136 23.136 0 0 0 4.055-7.2c.5-1.861.251-4.745-.269-2.036-.533 2.781-2.893 7.336-5.091 7.064m-11.458 4.129a2.778 2.778 0 0 0 1.977-3.372c-.165-1.276-.861 1.584-2.15 2.012-1.953.648-1.733 1.861.176 1.361m-4.978-10.2c.663-.173 1.54-1.077 1.1-1.767-.537-.85-2.033-.122-2.084.824s.277 1.127.979.943" fill="#f3f3f3"/></svg>