<svg viewBox="0 0 32 32" xmlns="http://www.w3.org/2000/svg"><path d="m18.536 2.323v2.545c3.4.019 7.12-.035 10.521.019a.783.783 0 0 1 .912.861c.054 6.266-.013 12.89.032 19.157-.02.4.009 1.118-.053 1.517-.079.509-.306.607-.817.676-.286.039-.764.034-1.045.047-2.792-.014-5.582-.011-8.374-.01h-1.175v2.547l-16.537-2.549q0-11.133 0-22.26l16.536-2.551" fill="#283c82"/><g fill="#fff"><path d="m18.536 5.822h10.5v20.358h-10.5v-2.545h8.27v-1.272h-8.27v-1.59h8.27v-1.273h-8.27v-1.59h8.27v-1.273h-8.27v-1.59h8.27v-1.273h-8.27v-1.59h8.27v-1.273h-8.27v-1.59h8.27v-1.273h-8.27z"/><path d="m8.573 11.443c.6-.035 1.209-.06 1.813-.092.423 2.147.856 4.291 1.314 6.429.359-2.208.757-4.409 1.142-6.613.636-.022 1.272-.057 1.905-.1-.719 3.082-1.349 6.19-2.134 9.254-.531.277-1.326-.013-1.956.032-.423-2.106-.916-4.2-1.295-6.314-.372 2.061-.856 4.094-1.282 6.136q-.916-.048-1.839-.111c-.528-2.8-1.148-5.579-1.641-8.385.544-.025 1.091-.048 1.635-.067.328 2.026.7 4.043.986 6.072.448-2.08.907-4.161 1.352-6.241"/></g></svg>