<svg viewBox="0 0 32 32" xmlns="http://www.w3.org/2000/svg"><path d="m28.137 30a1.854 1.854 0 0 0 1.863-1.832v-18.714a1.854 1.854 0 0 0 -1.863-1.835h-18.181l7.297 22.381z" fill="#d9d9d9"/><path d="m22.041 24.715-4.755 5.288-1.731-5.288z" fill="#4352b8"/><path d="m28.233 15.373v-1.094h-5.274v-1.767h-1.712v1.767h-3.366v1.094h6.7a9.7 9.7 0 0 1 -1.922 3.38c-1.369-1.619-1.375-2.146-1.375-2.146h-1.422s.059.788 1.978 3.038a13.51 13.51 0 0 1 -1.1 1.016l.438 1.366s.659-.567 1.487-1.445c.828.9 1.9 1.978 3.279 3.265l.9-.9c-1.481-1.344-2.567-2.41-3.364-3.265a9.929 9.929 0 0 0 2.385-4.315h2.368z" fill="#617d8b"/><path d="m3.863 2a1.87 1.87 0 0 0 -1.863 1.863v18.992a1.869 1.869 0 0 0 1.863 1.863h18.181l-7.297-22.718z" fill="#4f8bf5"/><path d="m16.989 7.619h11.148a1.854 1.854 0 0 1 1.863 1.835v11.227z" fill="#fff" opacity=".2"/><path d="m7.055 13.808c.611-1.573 1.211-3.151 1.821-4.724h1.77c.1.242.189.487.282.73.447 1.153.887 2.309 1.334 3.463s.879 2.286 1.319 3.429l.356.923c-.419 0-.839 0-1.258 0h-.3q-.331-1.011-.658-2.024h-3.921q-.326 1.013-.658 2.024c-.518 0-1.036 0-1.554 0q.734-1.911 1.469-3.822m1.181.673h3.051c-.51-1.338-1.014-2.678-1.526-4.015-.514 1.335-1.017 2.678-1.528 4.016z" fill="#f2f2f2"/></svg>