<svg xmlns="http://www.w3.org/2000/svg" viewBox="0 0 32 32"><path fill="#166788" d="M28.811 12.219c-.628.746-1.466 1.432-2.503 2.031q-.417.239-.863.454a15 15 0 0 1-.42.193 18 18 0 0 1-.433.183c-2.123.861-4.642 1.327-7.281 1.327-2.641 0-5.16-.466-7.283-1.327a17 17 0 0 1-.433-.183 15 15 0 0 1-.42-.193 13 13 0 0 1-.862-.454c-1.038-.599-1.877-1.285-2.503-2.031-.404.682-.625 1.41-.625 2.167 0 .894.308 1.75.861 2.533a7 7 0 0 0 .218.289 7 7 0 0 0 .224.263c2 2.233 6.099 3.768 10.823 3.768 4.722 0 8.82-1.535 10.822-3.768a7 7 0 0 0 .223-.263 6 6 0 0 0 .217-.289c.555-.784.863-1.638.863-2.533 0-.757-.221-1.485-.625-2.167"/><path fill="#166788" d="M26.32 19.783c-2.41 1.391-5.604 2.157-8.997 2.157s-6.59-.766-8.998-2.157c-.911-.526-1.67-1.118-2.266-1.76-.554.784-.862 1.638-.862 2.533 0 3.778 5.44 6.853 12.126 6.853s12.125-3.075 12.125-6.853c0-.895-.308-1.75-.863-2.534-.596.643-1.354 1.235-2.265 1.761"/><path fill="#1a1a1a" d="M17.31 2C10.625 2 5.186 5.074 5.186 8.853c0 .757.221 1.485.625 2.167a5 5 0 0 0 .2.313 7 7 0 0 0 .21.287c.844 1.076 2.163 2.008 3.808 2.708a14 14 0 0 0 .475.193 17 17 0 0 0 .503.183c1.838.635 3.997 1.002 6.305 1.002 2.306 0 4.465-.367 6.304-1.002a18 18 0 0 0 .503-.183 14 14 0 0 0 .474-.193c1.645-.7 2.964-1.632 3.808-2.708a6 6 0 0 0 .211-.287 6 6 0 0 0 .2-.313c.404-.682.625-1.41.625-2.167C29.436 5.074 23.996 2 17.31 2m6.32 8.043a3 3 0 0 1-.11.173 3 3 0 0 1-.116.157c-.464.591-1.189 1.103-2.092 1.488a8 8 0 0 1-.261.106 10 10 0 0 1-.276.102c-1.01.348-2.197.55-3.464.55-1.268 0-2.455-.202-3.465-.55a10 10 0 0 1-.277-.102 7 7 0 0 1-.26-.106c-.904-.385-1.629-.897-2.093-1.488a4 4 0 0 1-.115-.157 3 3 0 0 1-.11-.173 2.3 2.3 0 0 1-.344-1.19c0-2.077 2.99-3.766 6.663-3.766s6.664 1.69 6.664 3.766c0 .416-.122.816-.344 1.19"/></svg>