<svg xmlns="http://www.w3.org/2000/svg" viewBox="0 0 32 32"><title>file_type_tsconfig</title><path d="M24.078,8.937a4.259,4.259,0,0,1,2.14,1.233,5.634,5.634,0,0,1,.82,1.1c.011.043-1.477,1.043-2.379,1.6-.033.022-.163-.119-.31-.337a1.939,1.939,0,0,0-1.608-.967c-1.037-.071-1.7.472-1.7,1.379a1.255,1.255,0,0,0,.147.641c.228.472.652.755,1.982,1.331,2.449,1.054,3.5,1.749,4.149,2.737a4.965,4.965,0,0,1,.4,4.171,4.586,4.586,0,0,1-3.785,2.71,10.489,10.489,0,0,1-2.607-.027,6.287,6.287,0,0,1-3.481-1.814,6.044,6.044,0,0,1-.891-1.32,2.556,2.556,0,0,1,.315-.2c.152-.087.728-.418,1.271-.733l.983-.57.206.3a4.593,4.593,0,0,0,1.3,1.244,3.177,3.177,0,0,0,3.329-.168,1.487,1.487,0,0,0,.19-1.9c-.266-.38-.809-.7-2.352-1.369A8.467,8.467,0,0,1,18.973,16a4.512,4.512,0,0,1-.94-1.711,6.85,6.85,0,0,1-.06-2.183,4.17,4.17,0,0,1,3.508-3.248A8.666,8.666,0,0,1,24.078,8.937Zm-8.032,1.428.011,1.4H11.6V24.421H8.453V11.767H4V10.393a13.464,13.464,0,0,1,.038-1.412c.016-.022,2.726-.033,6.012-.027l5.979.016Z" style="fill:#007acc"/><path d="M27.7,25.732l.363-.361c1.68.055,1.706,0,1.78-.177l.462-1.124.034-.107-.038-.093c-.02-.049-.081-.2-1.13-1.2v-.526c1.211-1.166,1.185-1.226,1.116-1.4l-.46-1.136c-.069-.17-.1-.237-1.763-.191L27.7,19.05a8.138,8.138,0,0,0-.057-1.657l-.047-.106-1.2-.525c-.177-.081-.239-.11-1.372,1.124l-.509-.008c-1.167-1.245-1.222-1.223-1.4-1.152L22,17.178c-.175.071-.236.1-.169,1.79l-.36.359c-1.68-.055-1.705,0-1.778.177l-.462,1.124-.036.108.038.094c.02.048.078.194,1.13,1.2v.525c-1.211,1.166-1.184,1.226-1.115,1.4l.459,1.137c.07.174.1.236,1.763.192l.363.377a8.169,8.169,0,0,0,.055,1.654l.047.107,1.208.528c.176.073.236.1,1.366-1.13l.509.006c1.168,1.247,1.228,1.223,1.4,1.154l1.113-.45C27.707,27.452,27.768,27.428,27.7,25.732ZM22.912,23.1a2,2,0,1,1,2.618,1.14A2.023,2.023,0,0,1,22.912,23.1Z" style="fill:#99b8c4"/></svg>