<svg xmlns="http://www.w3.org/2000/svg" viewBox="0 0 32 32"><title>file_type_grunt</title><path d="M6.957,8.805s.48,1.849.548,2.466-1.233,1.986-1.233,2.671a2.673,2.673,0,0,0,1.781,2.535,3.142,3.142,0,0,1,1.712,3.151,13.994,13.994,0,0,1-.548,2.808s-.342,4.589,1.507,5.411,1.438.822,1.849.822S16,29.9,17.779,29.424A4.875,4.875,0,0,0,20.04,28.4a2.324,2.324,0,0,0,2.329-1.439,18.57,18.57,0,0,0,.685-6.37c-.206-1.507-.479-3.493.753-4.178s2.535-1.507,2.329-2.192a5.292,5.292,0,0,0-1.3-1.644,6.786,6.786,0,0,1-.069-2.123c.205-.411,1.438-1.439.753-2.192A2.9,2.9,0,0,0,23.6,7.5l-1.575.137a9.65,9.65,0,0,0-6.165-2.26,9.275,9.275,0,0,0-5.685,2.26,3.513,3.513,0,0,0-2.192,0C6.956,8.052,6.752,7.641,6.957,8.805Z" style="fill:#fba919"/><path d="M13.216,19s-1.357,2.074-2.352,3.546c-.154.228,1,.243,1,.243L13.216,19Zm.646-4.3s-.409,1.02-.633,1.561c-.243.588-1.17.88-1.17.88a2.656,2.656,0,0,0,.481-1.781c0-.536.692-.749.692-.749l.631.088Z" style="fill:#e78724"/><path d="M13.449,15.281a2.14,2.14,0,0,1-2.393.439C9.5,15.161,9.34,13.166,9.34,12.608s2.952.558,3.351.8,1.156,1.2.758,1.875ZM7.573,4.624A3.3,3.3,0,0,1,9.966,5.1,4.376,4.376,0,0,1,11.2,6.459L9.589,7.739A2.072,2.072,0,0,1,8.57,6.34c-.239-1.037-.08-1.516-1-1.715Z" style="fill:#e78724"/><path d="M13.03,12.4a3.338,3.338,0,0,0-2.451-1.324,3.167,3.167,0,0,0-2.046.382s2.272.1,2.927.956c1.219,1.6,3,1.731,3.282,1.379a1.517,1.517,0,0,1-1.078-.513A5.962,5.962,0,0,1,13.03,12.4ZM9.195,15.5s-2.521-.867-2.042-1.744.1-1.356.1-1.356S5.843,13.454,6.2,14.571c.22.685.59,1.182,2.621,2.133.974,1.809.2,5.065.247,5.081.077.026,1.367-.638,1.279-3.684-.027-.935-.1-2.213-1.155-2.6Zm3.3-9.318c-1.057.537-2.5,1.285-2.5,1.285l.57.285c-.054.088-.081.141-.081.141l.585.266s1.428,1.034,2.3,1.7a14.835,14.835,0,0,0-1.148-2.309A1.535,1.535,0,0,1,12.5,6.185Zm3.511,21.887c-3.249,0-4.349-1.649-4.349-1.649l.508,1.236A5.687,5.687,0,0,0,16,29.859" style="fill:#e78724"/><path d="M12.016,25.309s.3,1.827,1.5,1.827c1.017,0,1.317-1.543,1.317-1.862l-2.812.035Zm-1.992-2.755a13.174,13.174,0,0,0,.6-2.553,28.739,28.739,0,0,0,.091-3.176s-.319,1.237-.6,1.436a6.394,6.394,0,0,0-.8,1.556s-.278,2.019-.41,2.7c.366.073.674-.142,1.117.04Zm-2.89-8s.678-.24.878-1.715a6.663,6.663,0,0,0-.239-2.753,9.535,9.535,0,0,1-.2,2.433c-.239.4-.439.518-.718,1.037a.771.771,0,0,0,.279,1Z" style="fill:#e78724"/><path d="M7.944,4.974l-.138-.088C7.4,4.9,7.944,4.974,7.944,4.974Z" style="fill:#fdc168"/><path d="M13.05,5.748a1.58,1.58,0,0,1-.957-.585A3.312,3.312,0,0,0,9.428,3.717,11.993,11.993,0,0,0,6.561,4.1l1.245.786c.132,0,.362,0,.742.01a1.908,1.908,0,0,1,1.8,1.6l5.5-.758" style="fill:#fba919"/><path d="M13.582,14.282a2.165,2.165,0,0,1-1.888.505c-1.144-.239-1.835-.745-1.888-1.622a1.8,1.8,0,0,1,.24-1.223,6.644,6.644,0,0,1,1.888.931c.612.532,1.064,1.383,1.649,1.409Z" style="fill:#fff"/><path d="M12.681,14.016a2.037,2.037,0,0,1-1.368.055,1.531,1.531,0,0,1-1.008-1.3s-.58,1.7,1.046,2.029a2.379,2.379,0,0,0,2.075-.493l-.745-.293Z" style="fill:#c9c9c9"/><path d="M13.139,5.387a2.894,2.894,0,0,1,1.541-2.671c.023.247-.023,1.212.391,1.508.121-.788.529-1.656,2.139-2.225a2.7,2.7,0,0,0,.1,2.037c1.1-1,1.841-.833,1.841-.833a3.374,3.374,0,0,0-.465,2.184c-2.208-.173-5.533.235-5.543,0ZM8.459,7.61c-.527-.437-.134-.843-.176-1.339a1.658,1.658,0,0,0-.131-.651,2.832,2.832,0,0,0-1.64-1l-.537-.105L6.331,4.1a3.783,3.783,0,0,1,3.763-.717,6.355,6.355,0,0,1,2.792,2.307l-.792.372A5,5,0,0,0,9.806,3.985a3.468,3.468,0,0,0-2.537.2,2.969,2.969,0,0,1,1.423,1.09,2.064,2.064,0,0,1,.228.939A1.492,1.492,0,0,0,9.31,7.331ZM7.052,13.99a5.072,5.072,0,0,0,.86-2.425,6.042,6.042,0,0,0-.279-2.354,9.623,9.623,0,0,1-.259,2.354,22.7,22.7,0,0,1-.322,2.425Z" style="fill:#463014"/><path d="M10.551,6.779a2.851,2.851,0,0,0-.8-1.4,2.085,2.085,0,0,0-1.857-.307l-.147-.455a2.732,2.732,0,0,1,2.279.37A2.563,2.563,0,0,1,11.24,6.5l-.689.275ZM9.136,13.4a1.725,1.725,0,0,1-.286-1.047.788.788,0,0,1,.381-.647c.416-.183.6.289.6.289s-.586.145-.7,1.405Z" style="fill:#463014"/><path d="M12.96,14.16l.022.042a1.88,1.88,0,0,1-2.2-.012,1.936,1.936,0,0,1-.357-2,3.582,3.582,0,0,1,1.214.528c-.425-.38-.8-.659-.8-.665l-.483-.137-.94-.322a3.4,3.4,0,0,0,.634,2.772c.438.485,2.494,1.572,3.47-.286l-.564.084Z" style="fill:#463014"/><path d="M12.858,14.279a1.183,1.183,0,0,0,2.128-.585,1.574,1.574,0,0,1-1.942-.479A4.745,4.745,0,0,0,8.5,11.478a8.691,8.691,0,0,1,4.36,2.8Z" style="fill:#463014"/><path d="M8.282,16.906a1.835,1.835,0,0,1,.666,1.426A30.168,30.168,0,0,1,8.708,22c.3.195.509.236.808.435a36.535,36.535,0,0,0,.207-4.346,2.287,2.287,0,0,0-1.043-1.87c-.149-.085-.3-.169-.46-.254-.812-.439-1.653-.893-1.653-1.669a1.07,1.07,0,0,1,.486-1l.027-.022a1.449,1.449,0,0,0,.464-.535,4.26,4.26,0,0,0,0-2.858,2.116,2.116,0,0,1-.511-1.454A.665.665,0,0,1,7.4,8a1.827,1.827,0,0,1,.825-.159,6.484,6.484,0,0,1,1.8.326,13.447,13.447,0,0,1,3.5,2.063l.023.018.3.211-.19-.318A6.988,6.988,0,0,0,10.3,7.415a6.833,6.833,0,0,0-2.049-.378,2.657,2.657,0,0,0-1.212.25,1.46,1.46,0,0,0-.772.93,2.84,2.84,0,0,0,.643,2.141,4.327,4.327,0,0,1-.091,2.057.823.823,0,0,1-.236.238c-.036.029-.076.059-.118.091a1.754,1.754,0,0,0-.845,1.521c0,1.209,1.226,1.865,2.21,2.392C7.988,16.743,8.142,16.826,8.282,16.906Z" style="fill:#463014"/><path d="M8.459,7.61c-.527-.437-.134-.843-.176-1.339a1.658,1.658,0,0,0-.131-.651,2.832,2.832,0,0,0-1.64-1l-.537-.105L6.331,4.1a3.783,3.783,0,0,1,3.763-.717,6.355,6.355,0,0,1,2.792,2.307l-.792.372A5,5,0,0,0,9.806,3.985a3.468,3.468,0,0,0-2.537.2,2.969,2.969,0,0,1,1.423,1.09,2.064,2.064,0,0,1,.228.939A1.492,1.492,0,0,0,9.31,7.331Z" style="fill:#463014"/><path d="M8.441,7.7l-.034-.028a.815.815,0,0,1-.254-.953,1.493,1.493,0,0,0,.05-.441,1.628,1.628,0,0,0-.118-.615A2.779,2.779,0,0,0,6.5,4.7l-.67-.131.444-.52A3.737,3.737,0,0,1,8.8,3.091a4.284,4.284,0,0,1,1.317.214,6.391,6.391,0,0,1,2.836,2.34L13,5.722l-.937.441-.038-.06A4.889,4.889,0,0,0,9.782,4.061a3.142,3.142,0,0,0-.966-.15,3.522,3.522,0,0,0-1.35.274,2.943,2.943,0,0,1,1.294,1.05A2.12,2.12,0,0,1,9,6.209a1.437,1.437,0,0,0,.363,1.06l.111.092L8.442,7.7Z" style="fill:#463014"/><path d="M10.551,6.779a2.851,2.851,0,0,0-.8-1.4,2.085,2.085,0,0,0-1.857-.307l-.147-.455a2.732,2.732,0,0,1,2.279.37A2.563,2.563,0,0,1,11.24,6.5l-.689.275Z" style="fill:#463014"/><path d="M10.494,6.887,10.474,6.8A2.769,2.769,0,0,0,9.7,5.441a1.8,1.8,0,0,0-1.151-.386,2.115,2.115,0,0,0-.63.092l-.076.025-.2-.608.076-.024a2.811,2.811,0,0,1,2.35.381,2.64,2.64,0,0,1,1.249,1.571l.01.063-.835.332ZM8.548,4.9a1.984,1.984,0,0,1,1.25.42,2.8,2.8,0,0,1,.807,1.355l.543-.216a2.68,2.68,0,0,0-1.17-1.4A2.523,2.523,0,0,0,8.5,4.594a2.71,2.71,0,0,0-.652.077l.1.3A2.373,2.373,0,0,1,8.548,4.9Zm4.914,21.8a1.006,1.006,0,0,1-.643-.23,2.836,2.836,0,0,1-.75-.992.377.377,0,0,1,.048-.431.7.7,0,0,1,.518-.157h1.609a.666.666,0,0,1,.485.145.329.329,0,0,1,.048.364,3.979,3.979,0,0,1-.713,1.057.811.811,0,0,1-.6.244Zm.247-12.364-.851-.055a4.45,4.45,0,0,1,.358.879,2.756,2.756,0,0,1-.146,1.381S14.206,15.255,13.709,14.334ZM12.646,28.945a4.573,4.573,0,0,1-4.095-3.691h.791a3.838,3.838,0,0,0,3.364,2.9l-.061.789Z" style="fill:#463014"/><path d="M11.8,23.817a1.987,1.987,0,0,1,.005-.788,3.6,3.6,0,0,0-.953-.338c-.253-.16-1.55.164-2.491-.974-1.179-1.426-.931-2.277-.931-2.277-.3.336-.6.208-1.056,1.774s.217,2.658,1.48,3.754a4.02,4.02,0,0,0,2.167.813c-.243-.244.415-.269.869-.438a1.214,1.214,0,0,1,.3-1.009,1.543,1.543,0,0,1,.6-.358l.034-.082A.7.7,0,0,1,11.8,23.817Z" style="fill:#fff"/><path d="M10.88,25.333c-.026-.077-.046-.155-.066-.234s-.125-.33,0-.052a1.033,1.033,0,0,1-.071-.219c-2.046,0-3.827-1.408-3.483-4.361-.268-.356-.643.717-.643.717S5.6,24.158,8.242,25.311a4.088,4.088,0,0,0,1.844.549.926.926,0,0,0,.858-.365c-.024-.054-.046-.108-.065-.163Z" style="fill:#c9c9c9"/><path d="M11.758,23.389a1.643,1.643,0,0,1,.175-.731c.008-.017.018-.032.027-.049a6.963,6.963,0,0,1-2.467-.391A3.86,3.86,0,0,1,7.4,19.351a3.978,3.978,0,0,0-1.129,3.874c.441,2.479,2.516,3.287,4.882,3.424a1.881,1.881,0,0,1-.182-.906A3.846,3.846,0,0,1,7.4,24.128a3.971,3.971,0,0,1-.2-3.23C7.861,23,10.257,23.425,11.758,23.389Z" style="fill:#463014"/><path d="M12.006,21.885a7.8,7.8,0,0,1-1.3,2.261s1.2-.054,1.262-.266a24.7,24.7,0,0,0,1.476-5.4c-.372.612-1.407,3.3-1.443,3.4Z" style="fill:#463014"/><path d="M18.784,19s1.356,2.074,2.352,3.546c.154.228-1,.243-1,.243L18.784,19Zm-.646-4.3s.409,1.02.633,1.561c.243.588,1.17.88,1.17.88a2.656,2.656,0,0,1-.48-1.781c0-.536-.692-.749-.692-.749l-.631.088Z" style="fill:#e78724"/><path d="M18.551,15.281a2.141,2.141,0,0,0,2.394.439c1.556-.558,1.715-2.553,1.715-3.112s-2.952.558-3.351.8-1.157,1.2-.758,1.875ZM24.427,4.624a3.305,3.305,0,0,0-2.394.479A4.384,4.384,0,0,0,20.8,6.459l1.614,1.279a2.073,2.073,0,0,0,1.019-1.4c.239-1.037.08-1.516,1-1.715Z" style="fill:#e78724"/><path d="M18.97,12.4a3.337,3.337,0,0,1,2.451-1.324,3.166,3.166,0,0,1,2.045.382s-2.272.1-2.927.956c-1.219,1.6-3,1.731-3.281,1.379a1.516,1.516,0,0,0,1.078-.513A5.962,5.962,0,0,0,18.97,12.4Zm3.835,3.1s2.52-.867,2.042-1.744-.1-1.356-.1-1.356,1.408,1.051,1.049,2.168c-.22.685-.59,1.182-2.621,2.133-.974,1.809-.2,5.065-.247,5.081-.077.026-1.367-.638-1.279-3.684C21.677,17.165,21.752,15.888,22.805,15.5ZM19.5,6.185c1.057.537,2.5,1.285,2.5,1.285l-.57.285c.054.088.081.141.081.141l-.585.266s-1.428,1.034-2.3,1.7a14.821,14.821,0,0,1,1.148-2.309A1.534,1.534,0,0,0,19.5,6.185ZM15.991,28.073c3.248,0,4.349-1.649,4.349-1.649l-.507,1.236A5.688,5.688,0,0,1,16,29.859" style="fill:#e78724"/><path d="M19.984,25.309s-.3,1.827-1.5,1.827c-1.017,0-1.317-1.543-1.317-1.862Zm1.992-2.755a13.193,13.193,0,0,1-.6-2.553,28.7,28.7,0,0,1-.091-3.176s.319,1.237.6,1.436a6.38,6.38,0,0,1,.8,1.556s.278,2.019.41,2.7c-.366.073-.674-.142-1.117.04Zm2.89-8s-.678-.24-.878-1.715a6.663,6.663,0,0,1,.239-2.753,9.524,9.524,0,0,0,.2,2.433c.239.4.439.518.718,1.037A.772.772,0,0,1,24.866,14.551Z" style="fill:#e78724"/><path d="M24.056,4.974l.139-.088C24.6,4.9,24.056,4.974,24.056,4.974Z" style="fill:#fdc168"/><path d="M18.95,5.748a1.58,1.58,0,0,0,.957-.585,3.312,3.312,0,0,1,2.665-1.447,11.993,11.993,0,0,1,2.867.383l-1.245.786c-.132,0-.362,0-.743.01a1.907,1.907,0,0,0-1.8,1.6l-5.5-.758" style="fill:#fba919"/><path d="M18.418,14.282a2.165,2.165,0,0,0,1.888.505c1.144-.239,1.835-.745,1.888-1.622a1.8,1.8,0,0,0-.239-1.223,6.639,6.639,0,0,0-1.888.931C19.456,13.4,19,14.256,18.418,14.282Z" style="fill:#fff"/><path d="M19.319,14.016a2.038,2.038,0,0,0,1.368.055,1.531,1.531,0,0,0,1.008-1.3s.579,1.7-1.046,2.029a2.379,2.379,0,0,1-2.075-.493l.745-.293Z" style="fill:#c9c9c9"/><path d="M23.541,7.61c.527-.437.135-.843.176-1.339a1.65,1.65,0,0,1,.13-.651,2.832,2.832,0,0,1,1.64-1l.537-.105L25.67,4.1a3.784,3.784,0,0,0-3.764-.717,6.355,6.355,0,0,0-2.792,2.307l.792.372a5,5,0,0,1,2.289-2.075,3.467,3.467,0,0,1,2.537.2,2.97,2.97,0,0,0-1.423,1.09,2.063,2.063,0,0,0-.227.939,1.492,1.492,0,0,1-.392,1.114l.852.279Zm1.407,6.38a5.074,5.074,0,0,1-.86-2.425,6.043,6.043,0,0,1,.279-2.354,9.614,9.614,0,0,0,.26,2.354A22.772,22.772,0,0,0,24.948,13.99Z" style="fill:#463014"/><path d="M21.449,6.779a2.85,2.85,0,0,1,.8-1.4,2.084,2.084,0,0,1,1.856-.307l.148-.455a2.733,2.733,0,0,0-2.28.37A2.565,2.565,0,0,0,20.76,6.5ZM22.864,13.4a1.724,1.724,0,0,0,.285-1.047.786.786,0,0,0-.38-.647c-.416-.183-.6.289-.6.289s.586.145.7,1.405Z" style="fill:#463014"/><path d="M19.041,14.16l-.022.042a1.879,1.879,0,0,0,2.2-.012,1.934,1.934,0,0,0,.357-2,3.585,3.585,0,0,0-1.214.528c.425-.38.8-.659.8-.665l.484-.137.939-.322a3.4,3.4,0,0,1-.635,2.772c-.438.485-2.494,1.572-3.469-.286l.565.084Z" style="fill:#463014"/><path d="M19.142,14.279a1.183,1.183,0,0,1-2.127-.585,1.574,1.574,0,0,0,1.941-.479A4.745,4.745,0,0,1,23.5,11.478a8.7,8.7,0,0,0-4.361,2.8Z" style="fill:#463014"/><path d="M23.719,16.906a1.834,1.834,0,0,0-.666,1.426A30.05,30.05,0,0,0,23.292,22c-.3.195-.509.236-.808.435a36.446,36.446,0,0,1-.207-4.346,2.287,2.287,0,0,1,1.043-1.87c.149-.085.3-.169.46-.254.812-.439,1.653-.893,1.653-1.669a1.07,1.07,0,0,0-.486-1l-.027-.022a1.446,1.446,0,0,1-.464-.535,4.26,4.26,0,0,1,0-2.858,2.116,2.116,0,0,0,.512-1.454A.666.666,0,0,0,24.6,8a1.826,1.826,0,0,0-.825-.159,6.482,6.482,0,0,0-1.8.326,13.457,13.457,0,0,0-3.5,2.063l-.023.018-.3.211.19-.318A6.991,6.991,0,0,1,21.7,7.415a6.834,6.834,0,0,1,2.049-.378,2.658,2.658,0,0,1,1.212.25,1.46,1.46,0,0,1,.772.93,2.839,2.839,0,0,1-.643,2.141,4.332,4.332,0,0,0,.091,2.057.824.824,0,0,0,.237.238c.036.029.075.059.118.091a1.753,1.753,0,0,1,.844,1.521c0,1.209-1.226,1.865-2.21,2.392-.162.087-.316.169-.455.25Z" style="fill:#463014"/><path d="M22.257,7.468A4.178,4.178,0,0,0,20.415,5.94,10,10,0,0,0,16,5H16a10,10,0,0,0-4.412.943A4.179,4.179,0,0,0,9.743,7.468l-.084.111.984.219.031-.039.016-.036c.015-.065.147-.416,1.244-.951A9.211,9.211,0,0,1,16,5.908a9.208,9.208,0,0,1,4.065.862c1.1.535,1.229.886,1.244.951l.016.036.031.039.984-.219-.083-.111Z" style="fill:#463014"/><path d="M23.541,7.61c.527-.437.135-.843.176-1.339a1.65,1.65,0,0,1,.13-.651,2.832,2.832,0,0,1,1.64-1l.537-.105L25.67,4.1a3.784,3.784,0,0,0-3.764-.717,6.355,6.355,0,0,0-2.792,2.307l.792.372a5,5,0,0,1,2.289-2.075,3.467,3.467,0,0,1,2.537.2,2.97,2.97,0,0,0-1.423,1.09,2.063,2.063,0,0,0-.227.939,1.492,1.492,0,0,1-.392,1.114l.852.279Z" style="fill:#463014"/><path d="M22.528,7.362l.111-.092A1.438,1.438,0,0,0,23,6.209a2.118,2.118,0,0,1,.239-.974,2.947,2.947,0,0,1,1.294-1.05,3.527,3.527,0,0,0-1.35-.274,3.137,3.137,0,0,0-.966.15A4.885,4.885,0,0,0,19.973,6.1l-.038.06L19,5.722l.048-.076a6.389,6.389,0,0,1,2.835-2.34A4.285,4.285,0,0,1,23.2,3.091a3.738,3.738,0,0,1,2.532.956l.444.52L25.5,4.7a2.779,2.779,0,0,0-1.589.965,1.636,1.636,0,0,0-.118.615,1.492,1.492,0,0,0,.05.441.815.815,0,0,1-.255.953l-.034.028-1.031-.338Z" style="fill:#463014"/><path d="M21.449,6.779a2.85,2.85,0,0,1,.8-1.4,2.084,2.084,0,0,1,1.856-.307l.148-.455a2.733,2.733,0,0,0-2.28.37A2.565,2.565,0,0,0,20.76,6.5Z" style="fill:#463014"/><path d="M20.672,6.555l.009-.063A2.643,2.643,0,0,1,21.93,4.922a2.812,2.812,0,0,1,2.35-.381l.076.024-.2.608-.076-.025a2.126,2.126,0,0,0-.63-.092,1.8,1.8,0,0,0-1.151.386A2.769,2.769,0,0,0,21.527,6.8l-.021.091-.835-.332Zm3.384-1.581.1-.3a2.705,2.705,0,0,0-.652-.077,2.523,2.523,0,0,0-1.48.458,2.679,2.679,0,0,0-1.17,1.4l.543.216A2.8,2.8,0,0,1,22.2,5.316a1.984,1.984,0,0,1,1.25-.42,2.377,2.377,0,0,1,.6.077Zm-6.12,21.48a3.991,3.991,0,0,1-.713-1.057.329.329,0,0,1,.049-.364.665.665,0,0,1,.484-.145h1.61a.7.7,0,0,1,.517.157.377.377,0,0,1,.048.431,2.834,2.834,0,0,1-.75.992,1.007,1.007,0,0,1-.643.23.811.811,0,0,1-.6-.244Zm.356-12.119.851-.055a4.462,4.462,0,0,0-.358.879,2.756,2.756,0,0,0,.146,1.381S17.795,15.255,18.292,14.334Z" style="fill:#463014"/><path d="M16,11.3a3.026,3.026,0,0,1-1.78-.4s.695,1.218,1.779,1.218v0c1.085,0,1.779-1.218,1.779-1.218A3.028,3.028,0,0,1,16,11.3Z" style="fill:#e78724"/><path d="M17.494,11.29a2.686,2.686,0,0,1-2.987,0s.792.967,1.489.974H16C16.7,12.256,17.494,11.29,17.494,11.29Zm1.86,17.655-.061-.789a3.838,3.838,0,0,0,3.364-2.9h.791A4.573,4.573,0,0,1,19.354,28.945Z" style="fill:#463014"/><path d="M20.2,23.817a1.982,1.982,0,0,0-.005-.788,3.6,3.6,0,0,1,.953-.338c.253-.16,1.551.164,2.492-.974,1.179-1.426.93-2.277.93-2.277.3.336.6.208,1.056,1.774s-.217,2.658-1.48,3.754a4.019,4.019,0,0,1-2.167.813c.243-.244-.415-.269-.869-.438a1.214,1.214,0,0,0-.3-1.009,1.542,1.542,0,0,0-.6-.358c-.012-.028-.023-.055-.034-.082a.712.712,0,0,0,.019-.076Z" style="fill:#fff"/><path d="M21.12,25.333c.027-.077.046-.155.066-.234s.126-.33,0-.052a1.034,1.034,0,0,0,.071-.219c2.046,0,3.827-1.408,3.482-4.361.268-.356.643.717.643.717s1.024,2.975-1.621,4.127a4.088,4.088,0,0,1-1.844.549.925.925,0,0,1-.858-.365c.024-.054.047-.108.065-.163Z" style="fill:#c9c9c9"/><path d="M20.241,23.389a1.644,1.644,0,0,0-.174-.731c-.009-.017-.018-.032-.027-.049a6.963,6.963,0,0,0,2.467-.391A3.86,3.86,0,0,0,24.6,19.351a3.978,3.978,0,0,1,1.129,3.874c-.441,2.479-2.516,3.287-4.882,3.424a1.88,1.88,0,0,0,.182-.906A3.847,3.847,0,0,0,24.6,24.128a3.971,3.971,0,0,0,.2-3.23c-.665,2.1-3.061,2.527-4.563,2.491Z" style="fill:#463014"/><path d="M21.2,24.01a2.49,2.49,0,0,0-2-.67l-3.192,0H16l-3.192,0a2.49,2.49,0,0,0-2,.67,1.685,1.685,0,0,0-.192,1.837C11.369,27.905,12.433,30,16,30H16c3.562,0,4.627-2.094,5.384-4.153A1.686,1.686,0,0,0,21.2,24.01ZM20.642,25.7A4.677,4.677,0,0,1,16,29.243a4.676,4.676,0,0,1-4.642-3.54,1.253,1.253,0,0,1,.047-1.261,1.72,1.72,0,0,1,1.347-.4h.864l2.385,0,2.385,0h.863a1.72,1.72,0,0,1,1.348.4,1.253,1.253,0,0,1,.047,1.261Z" style="fill:#463014"/><path d="M19.994,21.885a7.8,7.8,0,0,0,1.3,2.261s-1.2-.054-1.262-.266a24.725,24.725,0,0,1-1.476-5.4c.372.612,1.406,3.3,1.443,3.4Z" style="fill:#463014"/></svg>