<svg xmlns="http://www.w3.org/2000/svg" xmlns:xlink="http://www.w3.org/1999/xlink" width="32" height="32" viewBox="0 0 32 32"><defs><linearGradient id="a" x1="0.5" y1="-1.054" x2="0.5" y2="1.002" gradientUnits="objectBoundingBox"><stop offset="0" stop-color="#c8861c"/><stop offset="0.323" stop-color="#e6a345"/><stop offset="1" stop-color="#f6db9b"/></linearGradient><linearGradient id="b" x1="21.397" y1="-1.054" x2="21.397" y2="1.002" gradientUnits="objectBoundingBox"><stop offset="0" stop-color="#c78a28"/><stop offset="0.323" stop-color="#e6a345"/><stop offset="1" stop-color="#f6db9b"/></linearGradient><linearGradient id="c" x1="0.156" y1="-0.44" x2="0.754" y2="1.009" gradientUnits="objectBoundingBox"><stop offset="0" stop-color="#fcdd98"/><stop offset="0.232" stop-color="#fada94"/><stop offset="0.407" stop-color="#f6d48b"/><stop offset="0.564" stop-color="#efc87b"/><stop offset="0.709" stop-color="#e6b864"/><stop offset="0.847" stop-color="#d9a346"/><stop offset="0.975" stop-color="#c98922"/><stop offset="1" stop-color="#e6a345"/></linearGradient><clipPath id="e"><rect width="32" height="32"/></clipPath></defs><g id="d" clip-path="url(#e)"><g transform="translate(1.999 8.399)"><path d="M581.955,173.456c-.732-1.3-1.349-1.489-1.949-1.489-.882,0-1.495.815-1.887,1.539l-1.564,3.212.426.7a5.836,5.836,0,0,0,7.852,2.464l.407-.212Z" transform="translate(-557.239 -165.337)" fill="url(#a)"/><path d="M519.451,173.456c.732-1.3,1.348-1.489,1.95-1.489.882,0,1.494.815,1.886,1.539l1.564,3.212-.426.7a5.836,5.836,0,0,1-7.852,2.464l-.407-.212Z" transform="translate(-516.166 -165.337)" fill="url(#b)"/><path d="M546.924,152.989a3.231,3.231,0,0,0-5.725-.035l-1.686,3.23-1.687-3.23a3.231,3.231,0,0,0-5.725.035l-2.194,4.245c1.042-1.182,2.5-.486,3.137.717l2.366,4.356,1.21,2.315a3.208,3.208,0,0,0,1.378,1.4,3.349,3.349,0,0,0,3.026,0,3.209,3.209,0,0,0,1.378-1.4l1.21-2.315,2.366-4.356c.636-1.2,2.1-1.9,3.137-.717Z" transform="translate(-525.512 -151.239)" fill="url(#c)"/></g></g></svg>