<svg xmlns="http://www.w3.org/2000/svg" viewBox="0 0 32 32"><title>file_type_razzle</title><path d="M6.093,29.071V2.659H17.266A8.052,8.052,0,0,1,23.4,4.867a8.609,8.609,0,0,1,2.092,6.169,9.708,9.708,0,0,1-1.037,4.508A7.831,7.831,0,0,1,21.6,18.7l4.694,8.263v2.113H20.213l-5.24-9.659h-2.62v9.659Zm6.26-15.017H16.21a3.291,3.291,0,0,0,2.2-.641,2.873,2.873,0,0,0,.746-2.264,2.763,2.763,0,0,0-.746-2.189,3.3,3.3,0,0,0-2.2-.641H12.353Z" style="fill:#5099f9"/><path d="M6.093,2.659V10.4l6.26,2.276V8.319H16.21a3.3,3.3,0,0,1,2.2.641,2.763,2.763,0,0,1,.746,2.189,2.873,2.873,0,0,1-.746,2.264,3.291,3.291,0,0,1-2.2.641h-.061l7.51,2.731a8.442,8.442,0,0,0,.793-1.241,9.708,9.708,0,0,0,1.037-4.508,12.775,12.775,0,0,0-.107-1.652L7.73,2.659Z" style="fill:#415dd0"/><polygon points="16.466 22.164 20.213 29.071 26.29 29.071 26.29 27.386 16.466 22.164" style="fill:#4469da"/><polygon points="12.353 19.618 6.664 17.358 12.353 24.202 12.353 19.618" style="fill:#4469da"/></svg>