<svg width="150" height="150" viewBox="0 0 150 150" fill="none" xmlns="http://www.w3.org/2000/svg">
<path d="M117.742 76.7544C117.742 52.7024 98.1524 33.1125 74.1002 33.1123C62.9935 33.1123 52.8611 37.2646 45.1359 44.1367C40.311 48.4282 32.9204 47.996 28.6286 43.1714C24.3366 38.3466 24.7691 30.9561 29.5939 26.6641C41.4286 16.1363 57.037 9.72754 74.1002 9.72754C111.067 9.72773 141.127 39.7871 141.127 76.7544C141.127 90.0936 137.201 102.536 130.472 112.984L139.552 121.568C144.245 126.005 144.453 133.405 140.017 138.098C135.581 142.79 128.18 142.998 123.487 138.562L106.747 122.737C102.098 118.342 101.845 111.026 106.179 106.319C113.368 98.513 117.742 88.1378 117.742 76.7544Z" fill="#3E95FF"/>
<path d="M7.05762 76.7549C7.05762 70.2973 12.2924 65.0625 18.75 65.0625C25.2076 65.0625 30.4424 70.2973 30.4424 76.7549C30.4424 92.1523 38.461 105.742 50.6177 113.53C56.0548 117.013 57.6386 124.245 54.1553 129.683C50.6718 135.12 43.4398 136.704 38.0024 133.22C19.4393 121.328 7.05762 100.477 7.05762 76.7549Z" fill="#3E95FF"/>
<path d="M74.0996 97.0049C85.2833 97.0049 94.3496 87.9387 94.3496 76.7549C94.3496 65.5712 85.2833 56.5049 74.0996 56.5049C62.9159 56.5049 53.8496 65.5712 53.8496 76.7549C53.8496 87.9387 62.9159 97.0049 74.0996 97.0049Z" fill="#3E95FF"/>
</svg>
