<svg xmlns="http://www.w3.org/2000/svg" viewBox="0 0 32 32"><title>Artboard 7</title><path d="M12.285,3.539a3.167,3.167,0,0,1-.273,1.3,2.967,2.967,0,0,1-.825,1.078,3.936,3.936,0,0,1-1.3.694,5.689,5.689,0,0,1-1.742.245H7.593V4.765l.563.018A3.419,3.419,0,0,0,8.8,4.747a1.746,1.746,0,0,0,.453-.13.558.558,0,0,0,.205-.149.139.139,0,0,0,.028-.1.258.258,0,0,0-.009-.083.422.422,0,0,0-.06-.1c-.047-.055-.1-.11-.151-.163a2.683,2.683,0,0,1-.223-.25A1.465,1.465,0,0,1,8.816,3.4a1.412,1.412,0,0,1-.1-.542,1.545,1.545,0,0,1,.112-.575,1.509,1.509,0,0,1,.33-.5,1.575,1.575,0,0,1,.517-.348,1.717,1.717,0,0,1,.675-.13,1.76,1.76,0,0,1,.841.2,1.886,1.886,0,0,1,.616.529,2.244,2.244,0,0,1,.358.711A2.714,2.714,0,0,1,12.285,3.539Z" style="fill:#f3b276"/><rect x="14.175" y="4.931" width="10.75" height="2.282" style="fill:#f3b276"/><rect x="7.075" y="10.012" width="6.793" height="2.289" style="fill:#f3b276"/><rect x="7.075" y="13.349" width="6.793" height="2.288" style="fill:#f3b276"/><rect x="17.25" y="10.012" width="6.793" height="2.289" style="fill:#f3b276"/><rect x="17.25" y="13.349" width="6.793" height="2.288" style="fill:#f3b276"/><polygon points="10.801 20.605 10.801 27.49 13.892 27.49 13.892 29.753 8.216 29.753 8.216 18.341 13.892 18.341 13.892 20.605 10.801 20.605" style="fill:#f3b276"/><polygon points="22.685 18.341 22.685 29.753 17.022 29.753 17.022 27.49 20.099 27.49 20.099 20.605 17.022 20.605 17.022 18.341 22.685 18.341" style="fill:#f3b276"/></svg>