<svg xmlns="http://www.w3.org/2000/svg" viewBox="0 0 32 32"><title>file_type_jsp</title><path d="M2,2H30V30H2V2m9.807,4.789a2.442,2.442,0,0,0-.459-.019H6.771q0,2.439,0,4.878c.005.039.015.118.02.157Q4.7,13.908,2.6,16q2.094,2.1,4.189,4.193a6.906,6.906,0,0,0-.017.762q0,2.137,0,4.275h4.619a2.2,2.2,0,0,0,.42-.018Q13.907,27.3,16,29.4q2.1-2.1,4.193-4.191c.323.041.65.008.976.019q2.03,0,4.06,0,0-2.29,0-4.58a2.54,2.54,0,0,0-.018-.458Q27.3,18.094,29.4,16q-2.095-2.1-4.192-4.2a5.828,5.828,0,0,0,.02-.756V6.77q-2.287,0-4.575,0a2.7,2.7,0,0,0-.461.017Q18.091,4.7,16,2.6,13.9,4.693,11.807,6.789Z" style="fill:#fff"/><path d="M3.318,16,16,3.318Q22.342,9.658,28.681,16,22.342,22.342,16,28.682L3.318,16m10.143-4.259a2.241,2.241,0,0,0-.713,1.718,2.155,2.155,0,0,0,.6,1.61,6.692,6.692,0,0,0,1.879,1.083,1.743,1.743,0,0,1,.853.756,1.166,1.166,0,0,1-.166,1.247,1.4,1.4,0,0,1-1.039.389,1.644,1.644,0,0,1-1.229-.491,1.478,1.478,0,0,1-.391-.78h-.212c-.118.49-.24.979-.358,1.468a3.7,3.7,0,0,0,2.625.447,2.879,2.879,0,0,0,1.907-1.115,2.36,2.36,0,0,0,.341-1.835,2.189,2.189,0,0,0-.792-1.262,10.7,10.7,0,0,0-1.755-1.018,2.011,2.011,0,0,1-.768-.648,1.066,1.066,0,0,1-.031-.975.977.977,0,0,1,.716-.507,1.711,1.711,0,0,1,.933.045,1.329,1.329,0,0,1,.826.907h.177c.124-.386.247-.772.372-1.158a2.847,2.847,0,0,0-1.63-.534,2.911,2.911,0,0,0-2.15.654m-3.018-.307v7.02a5.252,5.252,0,0,1-.075,1.01,1.549,1.549,0,0,1-.344.77,1.887,1.887,0,0,1-.585.378c.052.179.111.356.16.535a3.035,3.035,0,0,0,1.969-.964,3.527,3.527,0,0,0,.629-2.2q0-3.273,0-6.547H10.443m7.647,0q0,3.93,0,7.86h1.731q0-1.679,0-3.359a6.93,6.93,0,0,0,1.77-.176,2.4,2.4,0,0,0,1.381-.835,2.66,2.66,0,0,0,.414-1.807,1.639,1.639,0,0,0-.675-1.243,3.529,3.529,0,0,0-1.93-.44H18.09m-5.4,8.658h-.524c.075.1.15.193.221.293l-.22.266c.207,0,.414,0,.622,0,0-.019.005-.058.006-.078h6.878l0,.078H20.3c-.073-.09-.146-.18-.22-.27l.218-.29h-.509c-.006-.084-.011-.21-.128-.2q-3.422,0-6.844,0C12.7,19.88,12.69,20.01,12.687,20.092Z" style="fill:#fff"/><path d="M19.823,12.124a2.322,2.322,0,0,1,1.19.163,1.3,1.3,0,0,1,.58,1.039,1.8,1.8,0,0,1-.364,1.437,1.88,1.88,0,0,1-1.407.475Q19.824,13.68,19.823,12.124Z" style="fill:#fff"/><path d="M11.807,6.789Q13.907,4.7,16,2.6q2.1,2.094,4.193,4.189L25.209,11.8Q27.3,13.907,29.4,16q-2.095,2.1-4.19,4.191L20.193,25.21Q18.094,27.3,16,29.4q-2.1-2.094-4.192-4.19Q9.3,22.705,6.788,20.193,4.7,18.091,2.6,16q2.095-2.1,4.191-4.195Q9.3,9.3,11.807,6.789M3.318,16,16,28.682Q22.342,22.342,28.681,16,22.342,9.658,16,3.318Z" style="fill:#222126"/><path d="M13.461,11.741a2.911,2.911,0,0,1,2.15-.654,2.847,2.847,0,0,1,1.63.534c-.125.386-.248.772-.372,1.158h-.177a1.329,1.329,0,0,0-.826-.907,1.711,1.711,0,0,0-.933-.045.977.977,0,0,0-.716.507,1.066,1.066,0,0,0,.031.975,2.011,2.011,0,0,0,.768.648,10.7,10.7,0,0,1,1.755,1.018,2.189,2.189,0,0,1,.792,1.262,2.36,2.36,0,0,1-.341,1.835,2.879,2.879,0,0,1-1.907,1.115,3.7,3.7,0,0,1-2.625-.447c.118-.49.24-.979.358-1.468h.212a1.478,1.478,0,0,0,.391.78,1.644,1.644,0,0,0,1.229.491,1.4,1.4,0,0,0,1.039-.389,1.166,1.166,0,0,0,.166-1.247,1.743,1.743,0,0,0-.853-.756,6.692,6.692,0,0,1-1.879-1.083,2.155,2.155,0,0,1-.6-1.61A2.241,2.241,0,0,1,13.461,11.741Z" style="fill:#222126"/><path d="M10.443,11.434H12.2q0,3.274,0,6.547a3.527,3.527,0,0,1-.629,2.2,3.035,3.035,0,0,1-1.969.964c-.049-.18-.109-.357-.16-.535a1.887,1.887,0,0,0,.585-.378,1.549,1.549,0,0,0,.344-.77,5.252,5.252,0,0,0,.075-1.01Z" style="fill:#222126"/><path d="M18.09,11.434h2.691a3.529,3.529,0,0,1,1.93.44,1.639,1.639,0,0,1,.675,1.243,2.66,2.66,0,0,1-.414,1.807,2.4,2.4,0,0,1-1.381.835,6.93,6.93,0,0,1-1.77.176q0,1.68,0,3.359H18.091q0-3.931,0-7.86m1.733.69q0,1.557,0,3.114a1.88,1.88,0,0,0,1.407-.475,1.8,1.8,0,0,0,.364-1.437,1.3,1.3,0,0,0-.58-1.039A2.322,2.322,0,0,0,19.823,12.124Z" style="fill:#222126"/><path d="M12.687,20.092c0-.082.012-.212.127-.2q3.421-.006,6.844,0c.117-.008.122.118.128.2h.509l-.218.29c.073.09.147.179.22.27h-.622l0-.078H12.793c0,.019,0,.058-.006.078-.207,0-.414,0-.622,0l.22-.266c-.072-.1-.146-.2-.221-.293Z" style="fill:#222126"/><path d="M6.771,6.77h4.577a2.442,2.442,0,0,1,.459.019Q9.3,9.3,6.79,11.805c0-.039-.015-.118-.02-.157Q6.772,9.21,6.771,6.77Z" style="fill:#c50009"/><path d="M20.193,6.788a2.7,2.7,0,0,1,.461-.017q2.287,0,4.575,0v4.278a5.828,5.828,0,0,1-.02.756Z" style="fill:#c50009"/><path d="M6.788,20.193Q9.3,22.7,11.809,25.212a2.2,2.2,0,0,1-.42.018H6.77q0-2.138,0-4.275A6.906,6.906,0,0,1,6.788,20.193Z" style="fill:#c50009"/><path d="M20.193,25.21l5.018-5.018a2.54,2.54,0,0,1,.018.458q0,2.29,0,4.58-2.03,0-4.06,0C20.844,25.218,20.516,25.252,20.193,25.21Z" style="fill:#c50009"/></svg>