<svg xmlns="http://www.w3.org/2000/svg" viewBox="0 0 32 32"><title>file_type_tauri</title><path d="M20.923,12.167A2.677,2.677,0,1,1,18.236,9.5h.02A2.667,2.667,0,0,1,20.923,12.167Z" style="fill:#ffc131"/><circle cx="13.763" cy="19.818" r="2.667" style="fill:#24c8db"/><path d="M23.791,20.731a10.388,10.388,0,0,1-3.52,1.434,7.23,7.23,0,0,0,.351-3.229A7.17,7.17,0,1,0,12.44,7.966,12.033,12.033,0,0,0,8.529,9.109,10.2,10.2,0,1,1,23.791,20.731ZM8.649,10.974l2.5.3a7.7,7.7,0,0,1,.321-1.424A10.228,10.228,0,0,0,8.649,10.974Z" style="fill:#ffc131"/><path d="M8.208,11.255a10.168,10.168,0,0,1,3.55-1.444,7.129,7.129,0,0,0-.4,3.239,7.17,7.17,0,1,0,8.222,10.96,12.153,12.153,0,0,0,3.911-1.123A10.208,10.208,0,1,1,8.208,11.255ZM23.349,21Z" style="fill:#24c8db"/></svg>