<svg xmlns="http://www.w3.org/2000/svg" fill="none" viewBox="0 0 32 32"><path fill="#fff" d="m11.11 21.53.02-.02c.14-.13-1.27-2.44-1.39-2.67-1.2.32-2.53.22-3.69-.28a5.3 5.3 0 0 1-2.84-3.04c-.52-1.41-.44-3 .21-4.33a5.4 5.4 0 0 1 4.6-2.91 5.5 5.5 0 0 1 3.62-5.8 5.4 5.4 0 0 1 5.42 1.25A6 6 0 0 1 20 2.27a5.8 5.8 0 0 1 6.32 3.65c.85 2.23.1 4.88-1.75 6.42l.57 1.36c1.93-.37 4.22.58 3.97 3.07a3.2 3.2 0 0 1-1.7 2.46c1 2.37.72 5.29-.74 7.4a7.3 7.3 0 0 1-4.98 3.12 7.5 7.5 0 0 1-6.73-2.76 3.25 3.25 0 0 1-4.8-1.63 3.7 3.7 0 0 1 .94-3.83"/><path stroke="#000" stroke-linecap="round" stroke-width=".82" d="M26.87 22.51a6.2 6.2 0 0 1-4.64 5.93c-3.62.95-6.35-1.98-6.96-3.26"/><path stroke="#000" stroke-linecap="round" stroke-width=".82" d="M15.73 24.45c-.27.4-1.33 2.24-2.83 1.84a2.1 2.1 0 0 1-1.58-2.65c.38-1.78 2.4-2.35 3.61-1.97"/><path stroke="#000" stroke-linecap="round" stroke-width=".82" d="m12.72 21.72-2.34-4.34c-1.57.84-5.13.69-6.1-2.56a4.2 4.2 0 0 1 2.78-5.18c2.66-.81 6.26.77 4.43 2-1.65 1.13-3.91-5.5-.17-7.65 4.44-2.57 8.33 4.13 5.92 4.13-2.27 0 1.36-7.29 6.42-3.87 2.89 1.96 2.24 6.02-.37 7.66"/><path stroke="#000" stroke-linecap="round" stroke-width=".82" d="M12.44 21.12c1.7-1.87 6.42-5.8 11.56-7.2m-1.14-2.87 1.61 3.94"/><path stroke="#000" stroke-linecap="round" stroke-linejoin="round" stroke-width=".82" d="M16.46 19.74c2.22-1.63 6.9-4.66 9.45-4.93 2.45-.27 2.57 2.43 1.15 3.26-1.9 1.1-4.04-.47-2.63-1.09 1.48-.64-.02 5.05-4.44 2.67m-7.01 3.75.96.15-.62 1.27m4.91-.94c.06-.74.86-1.87 2.3-1.29m2.4-.8c.28-.5 1.1-1.07 1.93-.22m-2.04 1.51c.86.37.57 1.72-.48 1.52m2.22.4a4.33 4.33 0 0 1-5.71 1.24m.33-.69-.7 1.28"/></svg>