<svg xmlns="http://www.w3.org/2000/svg" viewBox="0 0 32 32"><path d="M20.2,23.1l-7.7-3.71-5.11,1.57-5.06-2.44,5.42-6.95-.93-1.73,2.98-2.75,4.62-.19,5.35-2,9.52,10.24-4.5,6.82-4.59,1.13Z" style="fill:#ee2d2b; stroke-width:0px;"/><path d="M7.85,16.33c2.02.61,4.13.04,6.35-1.7l10.38,6.72-2.12,1.31h-3.46l-5.47-2.7-5,1.27-5.68-2.58,4.05-2.09.95-.23ZM11.53,8.37c.73-.19,2.24,1.57,2.31,2.01.27,1.5.38,2.51-1.46,3.98-1.1.94-2.56,1.34-3.99,1.11l.37-1.65-1.33-2.66c.97-1.41,2.43-2.41,4.1-2.8h0Z" style="fill:#bf2025; stroke-width:0px;"/><path d="M8.37,21.76l-.12.04-6.25-2.81.14-.32c1-2.3,2.47-4.32,4.4-6.06.27-.25.55-.49.83-.72l-.32-.61-.4-.74-.13-.25-.08-.16.08-.16c.87-1.77,2.22-2.75,4.43-3.35,1.35-.35,2.48-.33,3.39.1,1.68-.95,3.5-1.66,5.38-2.1h.07s10.2,10.93,10.2,10.93l-.11.21c-.86,1.72-1.74,3.43-2.64,5.13-1.22,2.3-3.25,3.14-5.88,2.75-1.98-.28-4.13-1.2-6.71-2.67l-.78-.43c-1.19.18-3.04.59-5.52,1.23h0ZM7.01,13.13c-1.72,1.53-3.11,3.4-4.07,5.49l4.32,1.95c1.44-.52,2.92-.95,4.41-1.29-1.5-.84-2.99-1.68-4.49-2.51l-.32-.18,1.65-2.58-.78-1.48c-.24.2-.47.41-.71.61h0ZM9.63,16.57h0c2.67-.47,4.76-2.59,5.51-3.93.14-.21.28-.43.41-.65l3.66-6.51c-1.86.5-3.65,1.27-5.28,2.29l-.76-.35c.13-.08.25-.16.38-.24-.81-.16-1.64-.12-2.42.13-1.95.52-3.12,1.36-3.9,2.82l.05.08.39.74,1.38,2.61c.44.09.9.09,1.34.01.68-.1,1.3-.35,1.8-.76,1-.81,1.53-1.41,1.57-1.95.05-.64-.37-1.49-1.53-3.11,1.65,1.1,2.77,2.87,1.86,4.14h0c-.09.15-.19.28-.3.4-.3.34-.66.67-1.15,1.07-.62.48-1.36.8-2.14.9-.45.07-.9.08-1.35.02l-1.31,2.05c1.17.65,2.33,1.3,3.5,1.95h0c3.6-.2,5.93-2.39,8.18-5.97-1.72,3.66-3.86,6-7.15,6.55.69.38,1.31.73,1.88,1.06,3.53-.23,5.66-2.17,7.9-5.71-1.7,3.62-3.67,5.75-6.85,6.3.34.19.69.38,1.04.56-.01-.01-.02-.02-.04-.04.13.07.26.14.39.21.19.1.39.19.59.28,3.52-.23,5.48-1.91,7.71-5.46-1.64,3.48-3.39,5.4-6.33,6,2.15.64,3.9.25,5.65-.85.6-.39,2.04-2.44,4.31-6.16l-8.73-9.36-3.71,6.62c-.58,1-1.29,1.91-2.13,2.71-1.24,1.02-2.8,1.56-4.41,1.52h0Z" style="fill:#361212; stroke-width:0px;"/></svg>