<svg viewBox="0 0 32 32" xmlns="http://www.w3.org/2000/svg"><path d="m5.114 27.944v-9.517h-2.454a.668.668 0 0 1 -.47-1.134l13.22-13.545a.819.819 0 0 1 1.166-.008l.007.007 6.9 7.037v-1.3a.553.553 0 0 1 .55-.556h2.292a.553.553 0 0 1 .549.556v4.78l2.938 3.036a.671.671 0 0 1 -.01.942.657.657 0 0 1 -.462.19h-2.464v9.517a.553.553 0 0 1 -.549.556h-20.663a.553.553 0 0 1 -.55-.561z" fill="#3dbcf3" fill-rule="evenodd"/><path d="m21.718 15.07a2.841 2.841 0 0 0 -2.826 2.857 2.876 2.876 0 0 0 .224 1.116l-2.061 2.083v-6.335a2.826 2.826 0 1 0 -2.12 0v6.335l-2.061-2.083a2.876 2.876 0 0 0 .224-1.116 2.826 2.826 0 1 0 -2.826 2.858 2.791 2.791 0 0 0 1.1-.227l3.559 3.6v4.342h2.12v-4.343l3.56-3.6a2.782 2.782 0 0 0 1.1.227 2.858 2.858 0 0 0 0-5.715zm-11.446 4a1.143 1.143 0 1 1 1.13-1.143 1.136 1.136 0 0 1 -1.13 1.143zm5.728-5.786a1.143 1.143 0 1 1 1.131-1.143 1.136 1.136 0 0 1 -1.131 1.143zm5.723 5.786a1.143 1.143 0 1 1 1.131-1.143 1.136 1.136 0 0 1 -1.136 1.143z" fill="#fff"/></svg>