<svg xmlns="http://www.w3.org/2000/svg" viewBox="0 0 32 32"><path fill="#25b76a" d="M2 2.03h6.72a10 10 0 0 1 3.84.56 6.4 6.4 0 0 1 2.39 1.92 10 10 0 0 1 1.72 3.52 20 20 0 0 1 .61 5.35 17 17 0 0 1-.65 5.02 10 10 0 0 1-1.65 3.38 6.4 6.4 0 0 1-2.42 1.88 9 9 0 0 1-3.64.62H2Zm3.67 3.76v14.72h2.76a7 7 0 0 0 2.58-.34 3 3 0 0 0 1.3-1 6 6 0 0 0 .84-2.14 18 18 0 0 0 .34-3.84 18 18 0 0 0-.35-3.89 5 5 0 0 0-1.05-2.24 3.4 3.4 0 0 0-1.76-1.08 15 15 0 0 0-2.99-.2Z"/><path fill="#26abb5" d="M9.46 17.94a14 14 0 0 1 1.02-5.7 8 8 0 0 1 2.67-3.34 7 7 0 0 1 4.01-1.1 7 7 0 0 1 5.56 2.6q2.14 2.6 2.14 7.42 0 4.85-2.27 7.59a6.6 6.6 0 0 1-5.42 2.42 6.7 6.7 0 0 1-5.44-2.4 11.4 11.4 0 0 1-2.27-7.5m3.3-.12a8.2 8.2 0 0 0 1.28 5 3.9 3.9 0 0 0 3.14 1.68 3.8 3.8 0 0 0 3.14-1.66 8.5 8.5 0 0 0 1.25-5.1 8.3 8.3 0 0 0-1.22-4.97 3.8 3.8 0 0 0-3.17-1.61A3.9 3.9 0 0 0 14 12.77a8.3 8.3 0 0 0-1.23 5.03z"/><path fill="#26abb5" d="M29.71 27.93v1.75h-5.43a5 5 0 0 1 .53-1.88 12 12 0 0 1 1.75-2.36 13 13 0 0 0 1.25-1.58 2.4 2.4 0 0 0 .35-1.2 1.5 1.5 0 0 0-.3-.96 1 1 0 0 0-.75-.34q-1.03 0-1.1 1.54l-1.55-.2a3.6 3.6 0 0 1 .84-2.2 2.5 2.5 0 0 1 1.85-.7 2.3 2.3 0 0 1 1.92.83 3 3 0 0 1 .64 1.88 4 4 0 0 1-.16 1.19 5 5 0 0 1-.5 1.13 10 10 0 0 1-1.15 1.47q-.75.84-.95 1.1a3 3 0 0 0-.31.53z"/><path fill="#99b8c4" d="m27.24 27.76.37-.35c1.66.06 1.68 0 1.76-.18l.45-1.1.03-.1-.03-.1c-.02-.06-.09-.2-1.12-1.2v-.52c1.2-1.15 1.17-1.2 1.1-1.39l-.45-1.11c-.07-.17-.1-.24-1.74-.2l-.37-.36a8 8 0 0 0-.05-1.64l-.05-.1-1.19-.52c-.18-.08-.24-.1-1.35 1.11h-.5c-1.17-1.24-1.22-1.21-1.4-1.14l-1.1.44c-.17.07-.23.1-.16 1.77l-.36.36c-1.66-.06-1.68 0-1.76.17l-.45 1.12-.04.1.04.1c.02.04.07.2 1.11 1.18v.52c-1.2 1.15-1.17 1.21-1.1 1.38l.45 1.13c.07.17.1.24 1.75.2l.36.36a8 8 0 0 0 .05 1.64l.05.1 1.19.53c.17.07.23.1 1.35-1.12h.5c1.16 1.24 1.22 1.22 1.4 1.15l1.1-.44c.17-.08.23-.1.17-1.79m-4.73-2.6a1.98 1.98 0 1 1 2.6 1.13 2 2 0 0 1-2.6-1.13"/></svg>