<svg xmlns="http://www.w3.org/2000/svg" viewBox="0 0 400 362.5">
  <g fill-rule="evenodd">
    <path fill="#3e5560" d="M137.526 124.425c-7.859 1.022-11.165 7.433-7.959 15.437 1.783 4.452 2.054 5.799 2.067 10.274.023 7.995 2.374 10.343 10.342 10.33 4.427-.007 5.503-.634 8.143-4.74 1.359-2.115 2.606-3.547 3.989-4.584 8.917-6.679 8.499-11.695-1.46-17.544-1.927-1.132-4.081-2.841-5.941-4.713-4.327-4.358-5.52-4.937-9.181-4.46m90.355 12.463c-1.651.757-2.832 2.35-3.961 5.342-1.515 4.016-2.455 5.717-4.989 9.038-2.684 3.518-2.995 4.076-4.772 8.572-.728 1.839-2.049 4.522-2.936 5.96-2.154 3.494-2.165 4.78-.072 8.973 1.971 3.948 4.249 6.335 6.507 6.816 4.822 1.029 6.428-1.255 5.38-7.649-.837-5.114.894-7.617 6.841-9.886 10.546-4.024 13.558-6.888 12.423-11.809-2.807-12.159-8.402-18.117-14.421-15.357m-73.232 34.05c-.277 1.104.526 2.899 1.37 3.062.788.151 1.242-1.472.78-2.791-.46-1.313-1.844-1.488-2.15-.271m21.921 9.428c-11.23 9.263-11.482 12.34-1.394 17.048 6.627 3.093 10.728 3.5 15.121 1.5 5.149-2.345 5.181-4.742.13-9.603-2.705-2.603-3.979-4.157-5.168-6.305-2.938-5.308-4.777-5.867-8.689-2.64m5.079 38.862c-6.03 1.904-13.102 8.878-13.102 12.921 0 7.979 10.488 9.601 23.757 3.674 6.078-2.715 6.881-10.935 1.405-14.392-3.205-2.023-9.174-3.114-12.06-2.203m-90.613 4.979c-3.636 3.688-4.268 8.61-1.267 9.864.65.272 2.986.759 5.19 1.082 5.689.834 9.846 2.569 9.846 4.108 0 2.466-1.361 7.355-3.235 11.627-3.123 7.114 1.661 14.251 9.184 13.702 8.709-.635 9.489-.641 12.121-.084 3.723.787 6.031 1.939 11.276 5.626 7.979 5.61 9.695 6.159 17.075 5.467 5.302-.497 5.838-.445 15.354 1.517 10.323 2.129 30.221-2.078 33.238-7.027 2.528-4.146-1.437-6.441-12.698-7.352-10.097-.817-13.874-2.429-18.126-7.738-4.583-5.721-9.079-6.573-18.717-3.548-12.076 3.789-20.394 2.885-28.26-3.072-1.588-1.203-4.846-3.176-7.239-4.384-7.823-3.95-9.63-5.453-10.165-8.456-.468-2.629-2.292-5.478-5.376-8.396-4.786-4.528-6.149-5.017-8.201-2.936m16.489 75.011c-5.263 3.103-5.532 8.294-.722 13.936 2.944 3.454 4.115 5.82 5.794 11.711 2.779 9.747 5.748 11.744 14.511 9.763 4.258-.963 6.957-1.075 11.423-.473 2.588.349 6.923.564 11.425.566 6.509.002 7.626.095 10.879.905 7.178 1.786 11.785.499 11.785-3.292 0-3.087-2.921-4.37-8.984-3.946-9.5.665-10.989-.029-14.093-6.569-1.653-3.481-3.574-5.446-6.664-6.813-8.119-3.594-10.292-4.875-14.439-8.508-6.439-5.642-17.288-9.418-20.915-7.28m290.48 13.991c-5.377.671-11.102 3.001-13.175 5.363-3.408 3.881.927 6.36 11.12 6.36H400v-5.984c0-4.574-.107-5.971-.453-5.929-.25.03-.943.115-1.542.19m-131.604 3.935c-4.251 2.217-6.26 11.673-3.78 17.797 2.85 7.04 6.579 9.955 9.478 7.409 8.113-7.123 3-29.742-5.698-25.206m73.841 8.391c-5.233 2.579-3.955 19.687 1.96 26.234 2.259 2.5 2.795 2.361 8.722-2.262 7.463-5.822 7.597-7.44 1.317-15.895-5.834-7.854-8.631-9.737-11.999-8.077"/>
    <path fill="#dbd7d9" d="M0 181.324v181.323h76.559l-.246-2.992c-.135-1.645-.391-3.27-.569-3.611-.178-.341-.291-.749-.253-.907.039-.158-.194-1.141-.518-2.186-2.214-7.145-2.966-20.662-1.578-28.382.589-3.271.64-4.548.367-9.066-.454-7.514-.335-10.888.538-15.34.907-4.625.964-7.744.227-12.325-.415-2.583-.528-6.38-.487-16.406.047-11.675-.029-13.564-.718-17.975-1.212-7.759-1.312-10.932-.602-19.187.857-9.975.881-20.482.057-25.022-.659-3.626-1.16-4.833-4.04-9.729-2.484-4.221-2.462-5.147.256-10.653 2.253-4.565 2.52-5.696 3.733-15.823 2.13-17.79 12.066-22.416 17.389-8.098 2.217 5.964 3.975 7.321 9.456 7.3 6.814-.027 11.273-1.514 13.806-4.605 7.071-8.629 7.227-11.904.827-17.411-5.413-4.658-5.75-6.446-2.546-13.494 2.465-5.423 3.819-7.606 6.762-10.902 1.333-1.493 3.609-4.509 5.059-6.703 3.163-4.787 4.482-6.081 8.525-8.364 1.695-.958 4.685-2.939 6.644-4.403 4.065-3.038 6.442-4.312 10.618-5.689 4.435-1.464 5.657-2.41 9.173-7.111 6.918-9.246 16.067-9.266 22.308-.048 4.711 6.959 12.852 7.228 19.253.636 4.569-4.705 5.991-5.135 18.132-5.473 13.954-.389 14.998-.004 20.322 7.503.675.952 2.609 2.59 4.998 4.233 3.651 2.512 4.045 2.906 6.243 6.25l2.346 3.569 3.479 1.67c6.77 3.249 7.623 4.787 8.121 14.633.438 8.638.888 9.748 5.27 12.989 6.691 4.948 3.146 12.392-5.919 12.43-5.554.023-4.473 8.685 1.559 12.49 8.253 5.205 11.763 17.161 6.37 21.699-3.125 2.629-6.617-.057-8.184-6.295-1.46-5.816-4.527-8.025-8.623-6.214-2.823 1.249-3.386 2.52-4.428 9.988-2.117 15.177-4.391 18.842-12.351 19.907-5.295.708-8.843-.38-14.126-4.331-6.725-5.03-13.627-5.995-15.534-2.172-2.207 4.423-1.655 8.112 1.969 13.159 3.695 5.145 4.611 9.258 2.986 13.403-1.047 2.669-7.178 13.346-9.371 16.318-3.582 4.855-3.634 6.538-.257 8.283 7.656 3.956 38.744 3.167 49.828-1.263 9.235-3.692 11.737-2.516 10.108 4.75-2.165 9.65-3.663 10.706-17.788 12.528-10.717 1.383-12.226 1.989-16.979 6.825-2.71 2.758-4.9 3.983-10.764 6.023-17.844 6.206-17.963 13.122-.421 24.42 10.764 6.933 13.461 7.473 24.174 4.845 8.586-2.107 13.12-2.753 23.384-3.334 14.457-.817 15.277-1.117 18.292-6.69 4.582-8.474 9.947-11.045 17.799-8.53 8.41 2.693 10.335 4.922 10.335 11.964 0 7.654-1.16 9.559-7.978 13.101-7.718 4.01-9.644 6.195-9.096 10.324.772 5.819.117 10.287-2.285 15.594-.579 1.277-1.659 4.281-2.4 6.675-1.425 4.597-3.407 10.031-3.772 10.335-.27.225-.374.655-.883 3.633-.051.303-.224.761-.382 1.018-.159.257-.189.866-.067 1.353l.222.886h50.394v-1.401c0-3.416-1.37-7.461-4.209-12.418-4.901-8.561-6.217-12.874-6.679-21.901-.459-8.95-.618-10.816-1.693-19.765-1.027-8.56-1.184-13.244-.694-20.696.409-6.22.242-6.945-3.598-15.568-5.149-11.561-7.102-19.302-11.432-45.308-1.607-9.652-3.474-19.8-4.15-22.551-2.712-11.046-2.858-17.524-.917-40.754 1.094-13.092 6.081-15.359 13.504-6.137 1.111 1.381 2.706 3.163 3.545 3.961 6.365 6.054 7.376 10.394 7.818 33.545.203 10.623.438 13.104 1.6 16.863.37 1.197 1.113 3.808 1.651 5.802.537 1.995 1.713 5.83 2.612 8.522 2.13 6.379 2.174 8.206.352 14.506-3.653 12.632-3.429 15.04 1.881 20.248 4.949 4.853 5.18 5.487 5.495 15.11.267 8.143.359 8.532 3.507 14.869 2.967 5.972 4.704 11.455 7.222 22.804 2.177 9.813 5.906 12.834 12.983 10.52 4.314-1.411 5.943-2.649 9.149-6.953 2.238-3.005 4.057-4.304 9.198-6.566 1.894-.834 4.669-2.204 6.165-3.045 4.755-2.674 6.554-3.355 9.882-3.743l2.085-.243V0H0v181.324M224.985 15.3c1.217.396 3.464 1.519 4.993 2.495 3.769 2.406 5.637 3.073 10.01 3.577 8.172.942 10.048 1.991 18.217 10.186 7.621 7.645 8.493 9.031 8.511 13.53.018 4.616-2.479 5.99-10.143 5.581-10.346-.552-19.91-6.666-26.899-17.195-2.431-3.663-4.243-4.419-12.811-5.348-21.735-2.358-24.393-3.053-26.019-6.807-1.52-3.508 2.355-5.278 11.695-5.341 4.15-.029 4.864-.103 9.066-.948 5.093-1.023 9.69-.93 13.38.27m58.787 36.406c1.476.498 2.52 1.332 5.621 4.494 2.094 2.136 4.893 4.726 6.219 5.757 2.923 2.271 4.188 4.172 6.341 9.527.905 2.252 2.029 4.851 2.497 5.775 1.244 2.455 2.236 5.909 2.702 9.414.563 4.23.987 6.065 2.472 10.698 1.938 6.046 1.913 10.655-.088 16.565l-1.434 4.236.613 1.929c.362 1.14 1.519 3.118 2.826 4.831 4.432 5.809 4.626 7.537 1.245 11.105-5.251 5.541-10.097 2.286-11.974-8.042-1.03-5.67-1.083-5.777-5.047-10.135-3.853-4.235-4.092-11.87-.518-16.533 4.638-6.051 4.524-6.637-2.075-10.665-2.58-1.575-4.81-4.495-6.157-8.062-1.689-4.475-3.254-7.236-5.761-10.167-6.717-7.851-11.05-16.473-9.62-19.144 1.222-2.283 7.595-3.115 12.138-1.583m-97.915 63.66c-3.284.408-5.201 2.161-4.652 4.253.228.873 8.829 6.546 10.843 7.152 5.366 1.615 10.963-5.62 7.233-9.349-1.877-1.877-7.695-2.768-13.424-2.056m43.402 1.831c.143.972 1.652 1.261 2.672.512.684-.502.673-.533-.314-.909-1.682-.643-2.491-.507-2.358.397m-45.612 19.876c-6.203 1.309-8.29 4.463-9.247 13.974-.792 7.864.277 9.134 8.374 9.95 2.095.212 4.715.515 5.824.675 6.74.973 9.213-6.249 6.353-18.553-1.161-4.992-5.444-7.283-11.304-6.046m-32.113 66.269c-6.162 1.576-8.89 4.009-10.604 9.458-2.65 8.421-5.043 10.287-16.179 12.613-7.59 1.585-7.628 6.359-.074 9.212 2.423.915 3.451 1.525 4.425 2.626 3.797 4.29 3.774 4.272 5.692 4.272 3.659 0 4.034-2.009 1.424-7.615-.568-1.221-.775-2.445-.823-4.855-.038-1.924-.228-3.324-.471-3.474-.47-.291-.124-1.463.433-1.463.206 0 .556-.215.777-.477.222-.263 1.313-.752 2.426-1.087 1.667-.502 2.556-1.125 5.04-3.527 3.222-3.115 4.729-3.979 9.8-5.618 9.68-3.129 11.631-6.569 5.342-9.417-2.378-1.077-4.711-1.287-7.208-.648m243.721 132.527c-4.744.707-22.465 4.972-24.468 5.888-2.021.926-2.762 1.732-5.693 6.203-1.608 2.452-2.379 3.225-4.981 4.997-4.96 3.377-6.895 5.927-6.895 9.088 0 .555 1.827.602 23.391.602H400V335.42l-1.571.105c-.865.058-2.293.212-3.174.344m-290.631 6.256c-2.53 1.083-2.913 4.825-.874 8.54 1.92 3.498 3.678 3.793 6.574 1.103.854-.793 1.659-1.444 1.789-1.446.348-.007 1.758-2.499 1.758-3.108 0-2.256-6.941-6.075-9.247-5.089"/>
    <path fill="#76848c" d="M242.329 30.664c-1.898 1.33-.103 4.996 2.446 4.996 2.199 0 3.289-2.271 1.908-3.977-1.283-1.583-2.981-1.98-4.354-1.019m-103.815 85.862c-13.294 5.059-19.08 17.798-13.949 30.709.515 1.296 1.332 4.333 1.814 6.747 1.993 9.972 3.46 11.52 11.486 12.129 8.693.66 10.335 3.277 7.367 11.737-2.336 6.662-1.092 8.718 6.806 11.251 4.841 1.553 4.98 1.631 8.055 4.533 3.305 3.12 4.872 4.168 10.253 6.864 10.778 5.399 10.733 9.177-.194 16.662-7.529 5.156-10.119 9.652-10.606 18.413-.354 6.367-.816 7.195-5.421 9.709-11.899 6.497-22.694 6.348-30.1-.415-1.496-1.366-4.351-3.555-6.346-4.865-4.201-2.759-5.024-3.771-7.912-9.719-1.439-2.962-2.679-4.906-4.28-6.709-3.036-3.418-3.915-5.446-4.361-10.067-.196-2.043-.712-5.835-1.144-8.428-1.698-10.179-.976-13.585 3.536-16.667 3.83-2.617 4.612-3.541 4.482-5.301-.195-2.653-1.081-3.019-7.843-3.241-7.21-.237-7.869-.526-13.001-5.704-3.99-4.026-5.108-4.534-6.629-3.014-3.87 3.87-3.951 15.511-.147 21.116 2.476 3.649 2.429 3.344 2.339 15.217-.085 11.303-.019 10.686-2.153 20.078-3.188 14.027-1.743 24.946 4.071 30.759 1.361 1.362 1.793 1.493 4.46 1.353 2.51-.131 5.457 1.448 8.436 4.521 4.439 4.577 5.069 7.071 3.39 13.413-.404 1.526-.539 3.312-.453 5.983.389 11.968.386 11.983-3.196 18.295-4.961 8.741-5.357 10.4-3.265 13.671 1.35 2.11 1.563 2.223 6.397 3.387 5.33 1.284 6.187 2.255 9.84 11.154 2.939 7.161 5.283 8.339 17.225 8.654 7.088.187 9.501.377 11.06.869 1.566.494 4.098.69 11.786.911 6.19.179 11.059.502 13.237.879 5.553.961 8.904.096 12.64-3.263 8.067-7.253 2.766-13.597-11.915-14.261-8.119-.368-8.773-.718-12.151-6.513-1.659-2.845-3.363-4.091-8.259-6.038-4.355-1.732-5.346-2.369-9.379-6.035-5.436-4.94-7.53-6.359-13.522-9.159-8.245-3.853-11.308-9.241-10.072-17.719 1.634-11.21 7.62-11.574 25.298-1.537 7.326 4.159 8.491 4.484 13.018 3.636 6.05-1.133 10.018-.798 15.26 1.289 6.475 2.579 17.436 1.234 30.645-3.76 4.793-1.812 14.731-7.375 16.116-9.021 4.162-4.946-6.626-10.365-21.931-11.016-7.356-.313-10.517-1.6-10.517-4.284 0-2.862 7.419-10.483 13.327-13.69 7.133-3.872 8.735-6.02 9.892-13.261 1.16-7.261.539-8.578-6.51-13.807-5.254-3.899-5.363-4.815-1.117-9.387 6.784-7.304 6.907-13.39.35-17.373-2.953-1.794-4.65-3.881-6.261-7.701-3.697-8.768-6.278-9.715-12.582-4.617-7.731 6.252-10.715 4.811-13.922-6.724-.307-1.103-1.357-3.335-2.334-4.96-2.955-4.918-2.848-5.667 1.399-9.774 7.72-7.464 6.482-17.016-3.035-23.415-4.542-3.054-5.646-4.156-8.371-8.356-3.756-5.789-5.279-6.357-11.107-4.138m4.287 8.786c.544.349 2.301 1.957 3.906 3.573 1.86 1.872 4.014 3.581 5.941 4.713 9.959 5.849 10.377 10.865 1.46 17.544-1.383 1.037-2.63 2.469-3.989 4.584-2.64 4.106-3.716 4.733-8.143 4.74-7.968.013-10.319-2.335-10.342-10.33-.013-4.475-.284-5.822-2.067-10.274-2.114-5.278-1.792-8.627 1.167-12.143 2.605-3.097 9.002-4.372 12.067-2.407m76.404 4.808c-2.828 1.337-4.155 4.025-4.155 8.416 0 2.374-1.14 5.296-3.11 7.972-.958 1.301-1.921 3.186-2.368 4.633-1.623 5.258-2.302 6.913-4.155 10.133-3.908 6.79-4.331 10.254-1.99 16.321 2.022 5.242 7.809 8.713 17.063 10.237 1.296.214 3.841.738 5.654 1.164 3.888.915 4.841.761 6.182-.997 1.164-1.526 1.598-5.997.86-8.851-2.401-9.284-2-10.007 8.67-15.623 6.684-3.518 7.675-6.727 4.916-15.924-.508-1.693-1.164-4.454-1.457-6.134-1.053-6.043-1.895-7.394-5.793-9.301-4.525-2.214-17.251-3.496-20.317-2.046m15.802 7.469c2.756 1.824 5.696 7.732 7.295 14.656 1.135 4.921-1.877 7.785-12.423 11.809-5.947 2.269-7.678 4.772-6.841 9.886 1.721 10.506-6.762 11.101-11.887.833-2.093-4.193-2.082-5.479.072-8.973.887-1.438 2.208-4.121 2.936-5.96 1.777-4.496 2.088-5.054 4.772-8.572 2.534-3.321 3.474-5.022 4.989-9.038 2.135-5.66 6.676-7.56 11.087-4.641m-78.208 33.62c.462 1.319.008 2.942-.78 2.791-.844-.163-1.647-1.958-1.37-3.062.306-1.217 1.69-1.042 2.15.271m25.857 8.079c.564.477 1.735 2.149 2.603 3.718 1.189 2.148 2.463 3.702 5.168 6.305 5.051 4.861 5.019 7.258-.13 9.603-4.393 2-8.494 1.593-15.121-1.5-10.088-4.708-9.836-7.785 1.394-17.048 2.765-2.281 4.333-2.558 6.086-1.078M316.043 214.8c-4.253 4.253-2.352 26.995 2.524 30.19 3.998 2.619 8.27-10.136 6.393-19.09-2.197-10.484-5.465-14.552-8.917-11.1m-126.047 5.04c8.823 2.713 10.229 12.445 2.308 15.983-6.79 3.033-14.606 4.495-17.731 3.316-9.053-3.415-7.993-10.636 2.573-17.534 4.722-3.082 7.378-3.447 12.85-1.765m-94.786 3.863c4.081 2.489 8.795 8.422 9.403 11.836.535 3.003 2.342 4.506 10.165 8.456 2.393 1.208 5.651 3.181 7.239 4.384 7.866 5.957 16.184 6.861 28.26 3.072 9.638-3.025 14.134-2.173 18.717 3.548 4.252 5.309 8.029 6.921 18.126 7.738 11.261.911 15.226 3.206 12.698 7.352-3.017 4.949-22.915 9.156-33.238 7.027-9.516-1.962-10.052-2.014-15.354-1.517-7.38.692-9.096.143-17.075-5.467-5.245-3.687-7.553-4.839-11.276-5.626-2.632-.557-3.412-.551-12.121.084-7.523.549-12.307-6.588-9.184-13.702 1.874-4.272 3.235-9.161 3.235-11.627 0-1.539-4.157-3.274-9.846-4.108-6.379-.936-7.575-1.84-7.018-5.304.755-4.686 4.487-7.842 7.269-6.146m-1.012 20.844c1.17.731.081 3.866-1.344 3.866-1.519 0-1.928-1.855-.741-3.364.724-.92 1.224-1.04 2.085-.502m236.644 40.886c-4.969 1.847-4.877 12.329.254 28.982l1.174 3.808-.221 5.87c-.308 8.212 1.533 16.603 6.114 27.856 1.847 4.54 2.072 5.375 2.124 7.885l.058 2.807 3.535.003 3.536.003v-1.03c0-3.774 2.411-7.438 7.454-11.332 4.288-3.31 5.2-4.462 6.456-8.156 1.788-5.256 1.998-5.45 7.849-7.26 2.294-.71 5.231-1.917 6.528-2.683 3.995-2.36 6.014-2.786 17.951-3.787.997-.084 2.833-.164 4.079-.178l2.267-.025v-3.264h-4.05c-17.783 0-15.728-9.011 2.69-11.795 1.34-.202 1.36-.23 1.36-1.837v-1.632l-1.179.188c-.648.104-1.949.278-2.891.388-2.223.259-5.71 1.346-9.445 2.942-5.95 2.542-7.487 4.02-9.691 9.322-1.396 3.357-2.195 4.001-7.075 5.705-1.795.626-4.476 1.804-5.957 2.616-4.965 2.723-6.532 2.128-13.333-5.067-2.62-2.772-6.069-6.311-7.666-7.864-4.388-4.271-4.536-4.732-4.658-14.539-.084-6.75-.211-8.342-.826-10.367-1.569-5.164-4.288-8.358-6.437-7.559m-214.167 14.462c4.553 1.106 7.165 2.572 11.765 6.603 4.147 3.633 6.32 4.914 14.439 8.508 3.09 1.367 5.011 3.332 6.664 6.813 3.104 6.54 4.593 7.234 14.093 6.569 6.063-.424 8.984.859 8.984 3.946 0 3.791-4.607 5.078-11.785 3.292-3.253-.81-4.37-.903-10.879-.905-4.502-.002-8.837-.217-11.425-.566-4.466-.602-7.165-.49-11.423.473-8.763 1.981-11.732-.016-14.511-9.763-1.679-5.891-2.85-8.257-5.794-11.711-3.726-4.37-4.338-6.807-2.578-10.265 2.146-4.215 4.797-4.852 12.45-2.994m-31.821 8.543c-.375.451-.337.684.205 1.283.783.865 1.355.274 1.01-1.045-.243-.928-.586-.995-1.215-.238m180.964 4.14c-7.148 2.175-11.714 14.699-8.072 22.145 7.068 14.453 9.911 17.338 14.8 15.018 5.197-2.466 9.486-13.697 7.979-20.896-2.686-12.839-7.709-18.395-14.707-16.267m5.337 4.726c4.799 2.926 6.627 14.917 3.303 21.669-3.386 6.877-8.066 5.283-11.837-4.032-3.736-9.228 2.201-21.499 8.534-17.637M83.59 325.598c-3.502 2.136-4.532 10.299-1.895 15.019 3.036 5.435 7.832-8.526 4.92-14.325-.767-1.528-1.413-1.676-3.025-.694m260.244-.297c4.024 1.118 13.445 13.821 12.876 17.36-.505 3.133-10.246 11.473-12.548 10.742-3.591-1.14-7.256-11.32-7.261-20.167-.003-6.062 2.668-9.12 6.933-7.935m-135.114 1.996c-9.558 1.553-13.044 4.688-10.208 9.181 2.163 3.426 6.613 4.173 15.422 2.586 8.367-1.506 11.633-3.577 11.633-7.377 0-4.067-7.233-5.952-16.847-4.39"/>
    <path fill="#848d94" d="M241.792 28.094c-5.289 1.831-3.37 8.713 2.923 10.479 4.062 1.139 5.665.051 5.453-3.704-.277-4.904-4.325-8.178-8.376-6.775m3.472 2.411c1.993 1.019 2.665 3.288 1.332 4.495-1.095.99-2.728.837-3.993-.375-2.456-2.352-.327-5.648 2.661-4.12m-77.882 64.952c-1.227 1.753-.367 3.908 1.561 3.908 2.196 0 3.469-2.718 1.926-4.114-.972-.88-2.802-.772-3.487.206m-24.318 17.316c-11.688 2.106-22.552 14.918-22.765 26.846-.06 3.371-.029 3.508 1.422 6.347 2.033 3.973 2.897 6.76 3.911 12.603 1.52 8.762 4.165 11.15 12.353 11.15 5.525 0 6.078 3.405.884 5.447-7.136 2.807-7.618 7.858-1.347 14.129 1.285 1.285 3.912 2.799 5.908 3.405.401.122 3.012.292 5.803.377 5.908.181 6.74.45 11.685 3.775 1.758 1.182 4.417 2.762 5.908 3.511 11.177 5.611 11.454 8.626 1.401 15.26-7.926 5.23-10.983 9.967-12.146 18.822-.726 5.528-1.062 6.549-2.759 8.39-5.082 5.513-19.246 7.82-24.756 4.031-.602-.414-2.156-1.76-3.453-2.991-1.296-1.231-4.037-3.345-6.09-4.698-4.86-3.201-5.727-4.357-7.745-10.329-1.009-2.983-2.177-4.984-4.836-8.283-1.86-2.307-2.177-3.877-1.705-8.416.226-2.164.27-4.435.103-5.259-.46-2.275-1.166-4.68-1.489-5.077-.614-.755-1.189-4.747-.931-6.468.314-2.093 1.766-3.856 5.193-6.301 4.778-3.409 5.444-7.999 1.489-10.263-1.512-.865-1.84-.903-7.923-.918-8.047-.019-9.902-.771-13.464-5.455-.872-1.147-2.219-2.793-2.992-3.657-6.472-7.229-11.223 11.162-6.762 26.172 1.993 6.704 2.736 21.462 1.453 28.83-2.592 14.884-2.746 20.548-.759 27.936.776 2.886 1.697 6.552 2.046 8.148.349 1.595 1.02 4.194 1.49 5.775 1.086 3.651 1.073 4.492-.127 8.219-2.269 7.046-.472 12.834 3.574 11.513 3.585-1.17 3.931-4.571 1.016-9.98-2.725-5.058-2.502-7.38.934-9.747 2.626-1.809 4.304-1.98 6.909-.705 4.401 2.152 5.26 6.05 2.873 13.036-1.384 4.049-1.384 3.922-.026 9.631 2.321 9.764-2.608 16.268-10.288 13.576-5.297-1.857-8.282 4.167-5.966 12.041 1.325 4.503 1.262 6.166-.384 10.115-2.797 6.71-3.173 9.366-2.208 15.583.936 6.027 2.564 8.885 5.061 8.885 2.618 0 4.036-2.489 6.184-10.858 2.61-10.174 4.105-12.09 10.199-13.082 3.852-.627 5.81.837 8.629 6.449 2.444 4.868 4.036 6.668 7.338 8.3l2.786 1.377 7.47.24c6.914.223 7.795.33 11.822 1.433 4.3 1.177 4.455 1.193 12.874 1.254 7.96.057 8.762.125 12.148 1.024 6.651 1.764 8.494 1.246 15.464-4.351 6.833-5.487 7.32-5.589 10.547-2.219 1.19 1.243 2.39 2.699 2.668 3.236 2.348 4.54 8.644 5.434 17.947 2.549 1.881-.583 5.297-1.582 7.591-2.22 8.586-2.386 11.969-5.028 11.966-9.343-.004-4.532-4.366-6.631-13.779-6.63-8.765.001-19.585 1.258-22.198 2.578-.74.374-1.603.68-1.919.68-.315 0-1.217.328-2.004.73-2.289 1.168-5.492.272-8.121-2.272-2.558-2.476-7.328-3.811-15.155-4.242-8.542-.471-8.957-.694-12.563-6.734-1.525-2.555-3.437-3.955-6.728-4.926-4.486-1.325-7.211-3.006-10.119-6.242-2.952-3.285-6.421-5.724-13.184-9.271-7.887-4.136-10.238-7.699-9.858-14.937.27-5.145 2.677-8.168 6.446-8.097 3.003.057 12.252 4.107 17.587 7.701 6.604 4.449 7.328 4.638 12.035 3.132 5.774-1.847 8.845-1.532 14.829 1.522 4.371 2.23 6.472 2.407 12.402 1.041 9.035-2.081 16.351-4.709 25.618-9.201 3.223-1.562 7.131-3.399 8.685-4.081 13.99-6.141 6.014-13.589-17.823-16.642-8.961-1.148-9.513-1.79-6.639-7.728 1.674-3.458 2.95-4.754 7.096-7.206 5.791-3.426 7.33-5.498 9.655-13 2.587-8.349 2.259-10.006-2.807-14.164-5.43-4.456-5.655-5.392-2.65-11.026 2.498-4.683 3.271-7.641 3.271-12.509 0-3.801-.381-4.438-3.036-5.069-4.668-1.11-6.405-2.814-8.76-8.593-3.654-8.964-7.615-10.306-13.77-4.662-6.371 5.841-9.661 4.522-12.122-4.86-.563-2.146-1.371-4.687-1.795-5.645-1.411-3.19-1.049-4.99 1.572-7.82 3.561-3.846 4.702-7.252 4.483-13.385-.233-6.523-1.997-9.045-9.48-13.554-3.977-2.395-5.363-3.892-7.474-8.069-2.024-4.005-4.29-6.209-6.088-5.921-.156.025-.937.163-1.735.307m2.959 3.364c.654.449 2.273 2.486 3.598 4.527 2.725 4.2 3.829 5.302 8.371 8.356 9.517 6.399 10.755 15.951 3.035 23.415-4.247 4.107-4.354 4.856-1.399 9.774.977 1.625 2.027 3.857 2.334 4.96 3.207 11.535 6.191 12.976 13.922 6.724 6.304-5.098 8.885-4.151 12.582 4.617 1.611 3.82 3.308 5.907 6.261 7.701 6.557 3.983 6.434 10.069-.35 17.373-4.246 4.572-4.137 5.488 1.117 9.387 7.049 5.229 7.67 6.546 6.51 13.807-1.157 7.241-2.759 9.389-9.892 13.261-5.908 3.207-13.327 10.828-13.327 13.69 0 2.684 3.161 3.971 10.517 4.284 15.305.651 26.093 6.07 21.931 11.016-1.385 1.646-11.323 7.209-16.116 9.021-13.209 4.994-24.17 6.339-30.645 3.76-5.242-2.087-9.21-2.422-15.26-1.289-4.527.848-5.692.523-13.018-3.636-17.678-10.037-23.664-9.673-25.298 1.537-1.236 8.478 1.827 13.866 10.072 17.719 5.992 2.8 8.086 4.219 13.522 9.159 4.033 3.666 5.024 4.303 9.379 6.035 4.896 1.947 6.6 3.193 8.259 6.038 3.378 5.795 4.032 6.145 12.151 6.513 14.681.664 19.982 7.008 11.915 14.261-3.736 3.359-7.087 4.224-12.64 3.263-2.178-.377-7.047-.7-13.237-.879-7.688-.221-10.22-.417-11.786-.911-1.559-.492-3.972-.682-11.06-.869-11.942-.315-14.286-1.493-17.225-8.654-3.653-8.899-4.51-9.87-9.84-11.154-4.834-1.164-5.047-1.277-6.397-3.387-2.092-3.271-1.696-4.93 3.265-13.671 3.582-6.312 3.585-6.327 3.196-18.295-.086-2.671.049-4.457.453-5.983 1.679-6.342 1.049-8.836-3.39-13.413-2.979-3.073-5.926-4.652-8.436-4.521-2.667.14-3.099.009-4.46-1.353-5.814-5.813-7.259-16.732-4.071-30.759 2.134-9.392 2.068-8.775 2.153-20.078.09-11.873.137-11.568-2.339-15.217-3.804-5.605-3.723-17.246.147-21.116 1.521-1.52 2.639-1.012 6.629 3.014 5.132 5.178 5.791 5.467 13.001 5.704 6.762.222 7.648.588 7.843 3.241.13 1.76-.652 2.684-4.482 5.301-4.512 3.082-5.234 6.488-3.536 16.667.432 2.593.948 6.385 1.144 8.428.446 4.621 1.325 6.649 4.361 10.067 1.601 1.803 2.841 3.747 4.28 6.709 2.888 5.948 3.711 6.96 7.912 9.719 1.995 1.31 4.85 3.499 6.346 4.865 7.406 6.763 18.201 6.912 30.1.415 4.605-2.514 5.067-3.342 5.421-9.709.487-8.761 3.077-13.257 10.606-18.413 10.927-7.485 10.972-11.263.194-16.662-5.381-2.696-6.948-3.744-10.253-6.864-3.075-2.902-3.214-2.98-8.055-4.533-7.898-2.533-9.142-4.589-6.806-11.251 2.968-8.46 1.326-11.077-7.367-11.737-8.026-.609-9.493-2.157-11.486-12.129-.482-2.414-1.299-5.451-1.814-6.747-3.934-9.898-2.239-17.495 5.733-25.695 4.485-4.613 12.739-7.449 15.725-5.403m107.146 8.389c-.446.474-1.099 1.4-1.452 2.058-1.724 3.216-5.745 4.001-13.027 2.543-19.304-3.863-24.269-2.671-27.283 6.553-.602 1.842-1.74 4.639-2.528 6.214-1.702 3.401-2.013 4.482-2.528 8.786-.485 4.049-1.088 5.95-3.291 10.362-3.27 6.55-3.652 10.049-2.008 18.393 1.063 5.396.956 5.256 4.655 6.056 1.642.354 3.885.956 4.985 1.338 1.101.381 4.367 1.345 7.259 2.143 5.176 1.427 7.11 2.209 10.698 4.322 6.784 3.996 11.663-6.655 7.613-16.622-2.109-5.19-.793-7.649 6.119-11.434 7.696-4.214 9.039-7.304 6.88-15.827-1.147-4.528-1.297-9.295-.349-11.061.322-.598.586-1.287.587-1.529.001-.243 1.046-1.467 2.321-2.72 2.764-2.717 3.531-4.096 3.884-6.983.406-3.32-.745-4.498-2.535-2.592m-18.939 5.993c3.968.843 6.653 2.059 8.493 3.846 1.408 1.368 1.761 2.333 2.592 7.102.293 1.68.949 4.441 1.457 6.134 2.759 9.197 1.768 12.406-4.916 15.924-6.998 3.683-9.507 5.739-9.962 8.161-.223 1.19-.007 2.438 1.292 7.462.738 2.854.304 7.325-.86 8.851-1.341 1.758-2.294 1.912-6.182.997-1.813-.426-4.358-.95-5.654-1.164-17.014-2.802-22.839-13.065-15.073-26.558 1.853-3.22 2.532-4.875 4.155-10.133.447-1.447 1.41-3.332 2.368-4.633 1.97-2.676 3.11-5.598 3.11-7.972 0-8.516 5.673-10.887 19.18-8.017m81.022 80.632c-4.071 4.291-4.195 19.716-.257 32.083 3.232 10.151 6.556 9.097 10.538-3.343 4.266-13.324-3.722-35.651-10.281-28.74m4.592 3.044c2.933 1.732 6.147 11.999 5.718 18.264-.325 4.742-3.215 11.869-5.175 12.762-5.567 2.536-9.532-25.233-4.344-30.421 1.336-1.336 2.303-1.49 3.801-.605M92.113 245.049c-.817 1.04-.941 2.279-.291 2.929 1.109 1.109 2.829-.119 2.829-2.02 0-1.836-1.41-2.342-2.538-.909m236.051 21.962c-1.802 1.383-1.844 3.932-.148 8.969 1.452 4.311 1.442 4.558-.404 9.678-2.56 7.098-2.505 10.21.445 25.101 1.316 6.645 1.683 9.386 1.947 14.536.402 7.858 1.753 13.182 6.35 25.022 2.097 5.402 2.721 7.825 2.721 10.562 0 1.542.098 1.802.635 1.693 1.432-.291.753-4.928-1.556-10.623-4.583-11.307-6.413-19.655-6.105-27.856l.221-5.87-1.174-3.808c-3.115-10.111-3.751-13.25-3.78-18.676-.066-12.442 6.47-14.245 9.963-2.747.615 2.025.742 3.617.826 10.367.122 9.807.27 10.268 4.658 14.539 1.597 1.553 5.046 5.092 7.666 7.864 6.801 7.195 8.368 7.79 13.333 5.067 1.481-.812 4.162-1.99 5.957-2.616 4.88-1.704 5.679-2.348 7.075-5.705 2.204-5.302 3.741-6.78 9.691-9.322 3.735-1.596 7.222-2.683 9.445-2.942 3.388-.395 4.07-.577 4.07-1.087 0-1.004-6.228.035-10.868 1.814-8.475 3.249-10.247 4.501-13.067 9.239-2.252 3.782-3.608 4.934-7.521 6.388-1.348.501-3.775 1.473-5.392 2.161-5.001 2.126-6.695 1.641-11.248-3.226-8.866-9.476-11.08-14.271-12.082-26.168-.462-5.48-.965-7.18-3.911-13.21-2.601-5.324-3.002-7.068-2.236-9.727 1.79-6.216-1.766-12.292-5.511-9.417M86.069 308.676c.345 1.319-.227 1.91-1.01 1.045-.542-.599-.58-.832-.205-1.283.629-.757.972-.69 1.215.238m177.588 2.89c-4.883 1.927-9.06 9.095-9.69 16.63-.268 3.194.218 4.7 2.812 8.72 1.216 1.886 3.106 5.201 4.199 7.367 6.643 13.164 15.972 10.763 20.938-5.389 1.897-6.17.775-13.14-3.504-21.759-2.737-5.512-8.953-7.858-14.755-5.569m7.655 1.094c4.067 1.219 7.253 6.816 9.213 16.185 1.507 7.199-2.782 18.43-7.979 20.896-4.889 2.32-7.732-.565-14.8-15.018-5.031-10.287 3.976-24.936 13.566-22.063M86.615 326.292c2.912 5.799-1.884 19.76-4.92 14.325-2.637-4.72-1.607-12.883 1.895-15.019 1.612-.982 2.258-.834 3.025.694m135.598 1.353c4.007 1.639 4.509 5.693 1.035 8.343-3.478 2.653-16.563 4.812-20.782 3.429-5.259-1.724-6.48-6.77-2.308-9.531 4.079-2.699 17.582-4.072 22.055-2.241m170.715.818c-10.931.893-13.303 1.406-17.225 3.723-1.297.766-4.234 1.973-6.528 2.683-5.851 1.81-6.061 2.004-7.849 7.26-1.256 3.694-2.168 4.846-6.456 8.156-5.043 3.894-7.454 7.558-7.454 11.332 0 2.058 1.331 1.318 1.608-.894.498-3.986 2.027-6.145 7.116-10.045 3.651-2.797 4.892-4.283 6.498-7.774 1.775-3.86 2.983-4.886 7.5-6.368 1.963-.644 5.515-1.98 7.891-2.969 5.38-2.238 8.664-3.078 13.993-3.576 2.294-.215 4.578-.449 5.077-.519.498-.071 1.355-.142 1.904-.158.651-.02.997-.228.997-.599 0-.551-2.375-.636-7.072-.252M172.62 355.757c0 .199-.449.382-.997.406l-.997.042 1.088.277c1.071.273 1.073.278.129.32-.527.024-1.052.288-1.167.587-.115.299-.622.544-1.127.544-1.135 0-1.231.714-.102.753.565.019.37.175-.635.506-.797.263-1.165.495-.816.516 1.047.063.718.719-.544 1.083-.648.187-.881.355-.518.373 1.037.051 1.872 1.022 1.062 1.233-.349.092 3.133.185 7.737.208 7.218.037 8.371-.033 8.371-.502 0-.299-.103-.544-.228-.544-.126 0-.269-.612-.318-1.36-.05-.748-.246-1.414-.437-1.48-.191-.067-.347-.282-.347-.48 0-.447-.746-1.209-1.457-1.488-.471-.185-.47-.215.007-.242.299-.017.076-.275-.495-.573-1.212-.632-8.209-.785-8.209-.179"/>
    <path fill="#90989f" d="M215.413 14.372c-.699.082-2.412.378-3.808.658-4.202.845-4.916.919-9.066.948-9.34.063-13.215 1.833-11.695 5.341 1.626 3.754 4.284 4.449 26.019 6.807 8.568.929 10.38 1.685 12.811 5.348 6.989 10.529 16.553 16.643 26.899 17.195 7.664.409 10.161-.965 10.143-5.581-.018-4.499-.89-5.885-8.511-13.53-8.169-8.195-10.045-9.244-18.217-10.186-4.373-.504-6.241-1.171-10.01-3.577-4.29-2.739-9.641-3.997-14.565-3.423m31.277 14.337c2.714 1.357 4.76 7.276 3.176 9.185-1.437 1.731-6.016 1.132-8.663-1.133-5.512-4.718-1.021-11.308 5.487-8.052m29.04 22.418c-6.067 1.29-5.985 4.534.361 14.267 1.515 2.323 3.838 5.49 5.163 7.039 2.507 2.931 4.072 5.692 5.761 10.167 1.347 3.567 3.577 6.487 6.157 8.062 6.599 4.028 6.713 4.614 2.075 10.665-3.574 4.663-3.335 12.298.518 16.533 3.964 4.358 4.017 4.465 5.047 10.135 1.877 10.328 6.723 13.583 11.974 8.042 3.381-3.568 3.187-5.296-1.245-11.105-1.307-1.713-2.464-3.691-2.826-4.831l-.613-1.929 1.434-4.236c2.001-5.91 2.026-10.519.088-16.565-1.485-4.633-1.909-6.468-2.472-10.698-.466-3.505-1.458-6.959-2.702-9.414-.468-.924-1.592-3.523-2.497-5.775-2.153-5.355-3.418-7.256-6.341-9.527-1.326-1.031-4.125-3.621-6.219-5.757-4.782-4.876-8.354-6.202-13.663-5.073M166.196 87.199c-3.226 1.008-4.737 2.259-7.914 6.553-3.416 4.617-4.417 5.374-9.278 7.018-4.22 1.428-6.248 2.523-10.359 5.596-1.958 1.462-4.946 3.442-6.641 4.4-4.043 2.283-5.362 3.577-8.525 8.364-1.45 2.194-3.726 5.21-5.059 6.703-2.943 3.296-4.297 5.479-6.762 10.902-3.204 7.048-2.867 8.836 2.546 13.494 6.4 5.507 6.244 8.782-.827 17.411-2.533 3.091-6.992 4.578-13.806 4.605-5.481.021-7.239-1.336-9.456-7.3-5.323-14.318-15.259-9.692-17.389 8.098-1.213 10.127-1.48 11.258-3.733 15.823-2.718 5.506-2.74 6.432-.256 10.653 2.88 4.896 3.381 6.103 4.04 9.729.824 4.54.8 15.047-.057 25.022-.71 8.255-.61 11.428.602 19.187.689 4.411.765 6.3.718 17.975-.041 10.026.072 13.823.487 16.406.737 4.581.68 7.7-.227 12.325-.873 4.452-.992 7.826-.538 15.34.273 4.518.222 5.795-.367 9.066-1.387 7.716-.638 21.211 1.576 28.382.322 1.045.607 2.063.633 2.262.026.2.152.771.281 1.269.228.878.607 4.237.625 5.531.009.637 88.953 1.036 91.292.409.951-.255.299-1.2-.868-1.258-.363-.018-.13-.186.518-.373 1.262-.364 1.591-1.02.544-1.083-.349-.021.019-.253.816-.516 1.005-.331 1.2-.487.635-.506-1.129-.039-1.033-.753.102-.753.505 0 1.012-.245 1.127-.544.115-.299.64-.563 1.167-.587.944-.042.942-.047-.129-.32l-1.088-.277.997-.042c.548-.024.997-.207.997-.406 0-.578 6.99-.456 8.144.143.644.334.811.57.495.696-.397.159-.397.197 0 .22.573.035 1.515.92 1.515 1.423 0 .198.156.413.347.48.191.066.387.732.437 1.48.049.748.22 1.36.378 1.36.159 0 .248.204.198.454-.072.36 10.171.472 50.053.545l50.143.092-.223-.887c-.122-.488-.092-1.098.067-1.355.158-.257.331-.715.382-1.018.509-2.978.613-3.408.883-3.633.365-.304 2.347-5.738 3.772-10.335.741-2.394 1.821-5.398 2.4-6.675 2.402-5.307 3.057-9.775 2.285-15.594-.548-4.129 1.378-6.314 9.096-10.324 6.818-3.542 7.978-5.447 7.978-13.101 0-7.042-1.925-9.271-10.335-11.964-7.852-2.515-13.217.056-17.799 8.53-3.015 5.573-3.835 5.873-18.292 6.69-10.264.581-14.798 1.227-23.384 3.334-10.713 2.628-13.41 2.088-24.174-4.845-17.542-11.298-17.423-18.214.421-24.42 5.864-2.04 8.054-3.265 10.764-6.023 4.753-4.836 6.262-5.442 16.979-6.825 14.125-1.822 15.623-2.878 17.788-12.528 1.629-7.266-.873-8.442-10.108-4.75-11.084 4.43-42.172 5.219-49.828 1.263-3.377-1.745-3.325-3.428.257-8.283 2.193-2.972 8.324-13.649 9.371-16.318 1.625-4.145.709-8.258-2.986-13.403-2.639-3.676-2.786-3.973-3.074-6.241-1.273-10.005 6.603-12.252 16.639-4.746 5.283 3.951 8.831 5.039 14.126 4.331 7.96-1.065 10.234-4.73 12.351-19.907 1.042-7.468 1.605-8.739 4.428-9.988 4.096-1.811 7.163.398 8.623 6.214 1.567 6.238 5.059 8.924 8.184 6.295 5.393-4.538 1.883-16.494-6.37-21.699-6.032-3.805-7.113-12.467-1.559-12.49 9.065-.038 12.61-7.482 5.919-12.43-4.382-3.241-4.832-4.351-5.27-12.989-.498-9.846-1.351-11.384-8.121-14.633l-3.479-1.67-2.346-3.569c-2.198-3.344-2.592-3.738-6.243-6.25-2.389-1.643-4.323-3.281-4.998-4.233-5.324-7.507-6.368-7.892-20.322-7.503-12.141.338-13.563.768-18.132 5.473-6.401 6.592-14.542 6.323-19.253-.636-3.726-5.504-9.345-7.943-14.551-6.316m4.673 8.052c1.543 1.396.27 4.114-1.926 4.114-1.928 0-2.788-2.155-1.561-3.908.685-.978 2.515-1.086 3.487-.206m-24.438 17.732c1.732.723 2.659 1.847 4.456 5.404 2.111 4.177 3.497 5.674 7.474 8.069 7.483 4.509 9.247 7.031 9.48 13.554.219 6.133-.922 9.539-4.483 13.385-2.621 2.83-2.983 4.63-1.572 7.82.424.958 1.232 3.499 1.795 5.645 2.461 9.382 5.751 10.701 12.122 4.86 6.155-5.644 10.116-4.302 13.77 4.662 2.355 5.779 4.092 7.483 8.76 8.593 2.655.631 3.036 1.268 3.036 5.069 0 4.868-.773 7.826-3.271 12.509-3.005 5.634-2.78 6.57 2.65 11.026 5.066 4.158 5.394 5.815 2.807 14.164-2.325 7.502-3.864 9.574-9.655 13-4.146 2.452-5.422 3.748-7.096 7.206-2.874 5.938-2.322 6.58 6.639 7.728 23.837 3.053 31.813 10.501 17.823 16.642-1.554.682-5.462 2.519-8.685 4.081-9.267 4.492-16.583 7.12-25.618 9.201-5.93 1.366-8.031 1.189-12.402-1.041-5.984-3.054-9.055-3.369-14.829-1.522-4.707 1.506-5.431 1.317-12.035-3.132-5.335-3.594-14.584-7.644-17.587-7.701-3.769-.071-6.176 2.952-6.446 8.097-.38 7.238 1.971 10.801 9.858 14.937 6.763 3.547 10.232 5.986 13.184 9.271 2.908 3.236 5.633 4.917 10.119 6.242 3.291.971 5.203 2.371 6.728 4.926 3.606 6.04 4.021 6.263 12.563 6.734 7.827.431 12.597 1.766 15.155 4.242 2.629 2.544 5.832 3.44 8.121 2.272.787-.402 1.689-.73 2.004-.73.316 0 1.179-.306 1.919-.68 2.613-1.32 13.433-2.577 22.198-2.578 9.413-.001 13.775 2.098 13.779 6.63.003 4.315-3.38 6.957-11.966 9.343-2.294.638-5.71 1.637-7.591 2.22-9.303 2.885-15.599 1.991-17.947-2.549-.278-.537-1.478-1.993-2.668-3.236-3.227-3.37-3.714-3.268-10.547 2.219-6.97 5.597-8.813 6.115-15.464 4.351-3.386-.899-4.188-.967-12.148-1.024-8.419-.061-8.574-.077-12.874-1.254-4.027-1.103-4.908-1.21-11.822-1.433l-7.47-.24-2.786-1.377c-3.302-1.632-4.894-3.432-7.338-8.3-2.819-5.612-4.777-7.076-8.629-6.449-6.094.992-7.589 2.908-10.199 13.082-2.148 8.369-3.566 10.858-6.184 10.858-2.497 0-4.125-2.858-5.061-8.885-.965-6.217-.589-8.873 2.208-15.583 1.646-3.949 1.709-5.612.384-10.115-2.316-7.874.669-13.898 5.966-12.041 7.68 2.692 12.609-3.812 10.288-13.576-1.358-5.709-1.358-5.582.026-9.631 2.387-6.986 1.528-10.884-2.873-13.036-2.605-1.275-4.283-1.104-6.909.705-3.436 2.367-3.659 4.689-.934 9.747 2.915 5.409 2.569 8.81-1.016 9.98-4.046 1.321-5.843-4.467-3.574-11.513 1.2-3.727 1.213-4.568.127-8.219-.47-1.581-1.141-4.18-1.49-5.775-.349-1.596-1.27-5.262-2.046-8.148-1.987-7.388-1.833-13.052.759-27.936 1.283-7.368.54-22.126-1.453-28.83-3.575-12.028-1.318-27.743 3.983-27.743 1.498 0 2.455.868 5.771 5.228 3.562 4.684 5.417 5.436 13.464 5.455 6.083.015 6.411.053 7.923.918 3.955 2.264 3.289 6.854-1.489 10.263-3.427 2.445-4.879 4.208-5.193 6.301-.258 1.721.317 5.713.931 6.468.323.397 1.029 2.802 1.489 5.077.167.824.123 3.095-.103 5.259-.472 4.539-.155 6.109 1.705 8.416 2.659 3.299 3.827 5.3 4.836 8.283 2.018 5.972 2.885 7.128 7.745 10.329 2.053 1.353 4.794 3.467 6.09 4.698 1.297 1.231 2.851 2.577 3.453 2.991 5.51 3.789 19.674 1.482 24.756-4.031 1.697-1.841 2.033-2.862 2.759-8.39 1.163-8.855 4.22-13.592 12.146-18.822 10.053-6.634 9.776-9.649-1.401-15.26-1.491-.749-4.15-2.329-5.908-3.511-4.945-3.325-5.777-3.594-11.685-3.775-2.791-.085-5.402-.255-5.803-.377-1.996-.606-4.623-2.12-5.908-3.405-6.271-6.271-5.789-11.322 1.347-14.129 5.194-2.042 4.641-5.447-.884-5.447-8.188 0-10.833-2.388-12.353-11.15-1.014-5.843-1.878-8.63-3.911-12.603-6.133-11.993 6.899-30.911 23.078-33.5.156-.025.89.208 1.632.517m50.177 2.937c4.557 1.639 5.155 6.049 1.281 9.45-3.105 2.726-5.434 2.314-12.042-2.134-4.554-3.065-4.938-3.492-4.621-5.146.514-2.689 10.156-4.049 15.382-2.17m35.009.88c.987.376.998.407.314.909-1.02.749-2.529.46-2.672-.512-.133-.904.676-1.04 2.358-.397m24.007 7.508c1.166 2.18-.547 6.592-3.804 9.793-1.275 1.253-2.32 2.477-2.321 2.72-.001.242-.265.931-.587 1.529-.948 1.766-.798 6.533.349 11.061 2.159 8.523.816 11.613-6.88 15.827-6.912 3.785-8.228 6.244-6.119 11.434 1.991 4.901 2.019 8.178.113 13.285-1.624 4.352-4.15 5.443-7.726 3.337-3.588-2.113-5.522-2.895-10.698-4.322-2.892-.798-6.158-1.762-7.259-2.143-1.1-.382-3.343-.984-4.985-1.338-3.699-.8-3.592-.66-4.655-6.056-1.644-8.344-1.262-11.843 2.008-18.393 2.203-4.412 2.806-6.313 3.291-10.362.515-4.304.826-5.385 2.528-8.786.788-1.575 1.926-4.372 2.528-6.214 3.014-9.224 7.979-10.416 27.283-6.553 7.282 1.458 11.303.673 13.027-2.543 1.415-2.639 3.166-3.659 3.907-2.276m-64.166 13.502c2.6 1.355 3.607 3.978 4.408 11.475.949 8.88-1.59 13.207-7.268 12.387-1.109-.16-3.729-.463-5.824-.675-8.097-.816-9.166-2.086-8.374-9.95.825-8.196 2.426-11.431 6.501-13.134 3.158-1.319 8.13-1.368 10.557-.103m114.024 13.384c-3.252 1.983-3.742 4.303-5.06 23.965-.845 12.614-.455 18.506 1.846 27.88.676 2.751 2.543 12.899 4.15 22.551 4.33 26.006 6.283 33.747 11.432 45.308 3.84 8.623 4.007 9.348 3.598 15.568-.49 7.452-.333 12.136.694 20.696 1.075 8.949 1.234 10.815 1.693 19.765.462 9.027 1.778 13.34 6.679 21.901 2.839 4.957 4.209 9.002 4.209 12.418v1.401h4.352v-1.795c0-2.709-.629-5.146-2.721-10.535-4.597-11.84-5.948-17.164-6.35-25.022-.264-5.15-.631-7.891-1.947-14.536-2.95-14.891-3.005-18.003-.445-25.101 1.846-5.12 1.856-5.367.404-9.678-2.126-6.313-1.471-9.391 2.003-9.423 3.454-.031 5.172 4.607 3.656 9.871-.766 2.659-.365 4.403 2.236 9.727 2.946 6.03 3.449 7.73 3.911 13.21 1.002 11.897 3.216 16.692 12.082 26.168 4.553 4.867 6.247 5.352 11.248 3.226 1.617-.688 4.044-1.66 5.392-2.161 3.913-1.454 5.269-2.606 7.521-6.388 3.181-5.344 11.745-10.175 19.583-11.048 1.097-.123 2.525-.303 3.173-.402l1.179-.18v-6.232l-2.085.243c-3.328.388-5.127 1.069-9.882 3.743-1.496.841-4.271 2.211-6.165 3.045-5.141 2.262-6.96 3.561-9.198 6.566-3.206 4.304-4.835 5.542-9.149 6.953-7.077 2.314-10.806-.707-12.983-10.52-2.518-11.349-4.255-16.832-7.222-22.804-3.148-6.337-3.24-6.726-3.507-14.869-.315-9.623-.546-10.257-5.495-15.11-5.31-5.208-5.534-7.616-1.881-20.248 1.822-6.3 1.778-8.127-.352-14.506-.899-2.692-2.075-6.527-2.612-8.522-.538-1.994-1.281-4.605-1.651-5.802-1.162-3.759-1.397-6.24-1.6-16.863-.442-23.151-1.453-27.491-7.818-33.545-.839-.798-2.429-2.574-3.535-3.948-4.374-5.434-6.645-6.636-9.383-4.967m-146.74 52.796c6.289 2.848 4.338 6.288-5.342 9.417-5.071 1.639-6.578 2.503-9.8 5.618-2.484 2.402-3.373 3.025-5.04 3.527-1.113.335-2.204.824-2.426 1.087-.221.262-.571.477-.777.477-.557 0-.903 1.172-.433 1.463.243.15.433 1.55.471 3.474.048 2.41.255 3.634.823 4.855 2.61 5.606 2.235 7.615-1.424 7.615-1.918 0-1.895.018-5.692-4.272-.974-1.101-2.002-1.711-4.425-2.626-7.554-2.853-7.516-7.627.074-9.212 11.136-2.326 13.529-4.192 16.179-12.613 2.446-7.776 10.882-11.948 17.812-8.81m161.807 7.362c5.38 5.118 7.887 19.472 4.984 28.539-3.297 10.3-5.524 12.441-8.432 8.107-4.359-6.498-6.58-28.397-3.508-34.58 1.825-3.673 4.448-4.452 6.956-2.066m-46.884 100.626c3.561 1.828 7.002 8.518 9.053 17.602 1.327 5.877-2.622 17.197-7.273 20.849-5.749 4.513-9.999 2.708-14.467-6.146-1.093-2.166-2.983-5.481-4.199-7.367-2.594-4.02-3.08-5.526-2.812-8.72 1.079-12.9 10.712-20.83 19.698-16.218m119.034 17.911c-5.821.563-9.249 1.423-14.665 3.676-2.379.99-5.933 2.327-7.896 2.971-4.517 1.482-5.725 2.508-7.5 6.368-1.606 3.491-2.847 4.977-6.498 7.774-5.082 3.895-6.593 6.031-7.119 10.065l-.248 1.904h2.223c1.83 0 2.222-.106 2.222-.602 0-3.161 1.935-5.711 6.895-9.088 2.602-1.772 3.373-2.545 4.981-4.997 4.14-6.313 3.993-6.234 17.158-9.28 5.274-1.221 9.752-2.257 9.951-2.303 1.447-.335 5.155-.819 6.8-.887l.997-.041v-6.195l-1.36.096c-.748.052-3.422.295-5.941.539M109.26 342.947c1.918.959 4.611 3.451 4.611 4.267 0 .609-1.41 3.101-1.758 3.108-.13.002-.935.653-1.789 1.446-2.896 2.69-4.654 2.395-6.574-1.103-3.422-6.237-.294-10.618 5.51-7.718"/>
  </g>
</svg>
