<?xml version="1.0" encoding="UTF-8"?>
<svg width="500px" height="350px" viewBox="0 0 500 350" version="1.1" xmlns="http://www.w3.org/2000/svg" xmlns:xlink="http://www.w3.org/1999/xlink">
    <!-- Generator: Sketch 41.2 (35397) - http://www.bohemiancoding.com/sketch -->
    <title>Laravel</title>
    <desc>Created with Sketch.</desc>
    <defs></defs>
    <g id="Page-1" stroke="none" stroke-width="1" fill="none" fill-rule="evenodd">
        <g id="Laravel" stroke="#FB503B" stroke-width="8" fill="#FB503B">
            <path d="M393.767376,174.30767 L354.921944,121.010488 C353.833894,119.469931 352.927863,117.928357 355.646972,117.566351 C358.366081,117.203329 402.508386,109.225987 404.502468,108.77348 C406.496549,108.320974 408.219126,107.776948 410.666731,111.130584 C413.113319,114.48422 446.701535,156.995466 447.970589,158.626525 C449.239642,160.258601 447.065575,161.255133 444.164446,161.889659 C441.263317,162.524186 393.767376,174.30767 393.767376,174.30767 Z M434.515371,258.136359 C430.787528,259.491846 308.762169,300.675061 306.389813,301.69193 C304.017456,302.7088 302.153534,303.047418 299.102926,298.641322 C296.052317,294.235226 256.351698,225.528404 256.351698,225.528404 L385.705635,191.870023 C388.92606,190.853154 389.94293,190.174902 391.976669,193.395327 C394.010408,196.615753 434.686205,251.864308 435.871875,253.729246 C437.057545,255.594185 438.243215,256.780872 434.515371,258.136359 Z M146.522672,233.492526 C142.557898,234.398557 142.557898,233.945033 142.105391,232.585478 C141.651867,231.225924 53.760785,49.9974058 52.5405416,47.7318206 C51.3192813,45.4662353 51.3833441,43.6714606 52.5405416,43.6714606 C53.6967222,43.6714606 122.712673,37.5021133 125.154177,37.3739877 C127.596697,37.2448453 127.339429,37.7593813 128.238342,39.3009554 C128.238342,39.3009554 225.58326,207.327457 227.282449,210.272311 C228.981638,213.216148 227.961718,214.123196 226.376418,214.46283 C224.790102,214.802464 150.487447,232.585478 146.522672,233.492526 Z M417.464503,103.15426 C410.395226,94.6339099 406.950072,96.1744672 402.598888,96.8089938 C398.247703,97.4435204 347.489645,105.96387 341.597903,106.960402 C335.706161,107.957951 331.99052,110.315055 335.615659,115.39025 C338.840153,119.904134 372.208726,167.211954 379.558658,177.630799 L246.896845,209.411022 L141.391549,33.0217862 C137.191878,26.7944773 136.319404,24.6183766 126.76083,25.0535967 C117.202257,25.4878 43.9957871,31.5696965 38.7822971,32.0049167 C33.5677902,32.4401368 27.8448486,34.7606331 33.0583386,47.0708554 C38.2728455,59.3810777 121.41108,238.536199 123.727509,243.749689 C126.044954,248.963179 132.069906,257.421499 146.176937,254.032273 C160.629703,250.559664 210.750185,237.477638 238.136514,230.305657 C252.607584,256.510384 282.120188,309.667238 287.577727,317.283591 C294.864614,327.452286 299.879814,325.770384 311.066396,322.381158 C319.800288,319.734246 447.734675,273.728019 453.497274,271.355662 C459.259874,268.983306 462.818917,267.288184 458.920239,261.525585 C456.053684,257.289306 422.304802,212.076237 404.627543,188.422836 C416.734391,185.200376 459.786612,173.73924 464.376761,172.494592 C469.724478,171.044536 470.450523,168.415928 467.549394,165.152794 C464.649282,161.889659 424.53378,111.674609 417.464503,103.15426 Z" id="laravel-icon"></path>
        </g>
    </g>
</svg>