
<svg fill="none" version="1.1" viewBox="0 0 32 32" xmlns="http://www.w3.org/2000/svg"><g transform="matrix(.98129 0 0 .97734 -.090478 -.082804)" stroke-width=".41001"><path d="m-4.8349 36.321h40.33v-39.976h-40.33z" fill="none"/><path d="m6.835 5.0456c2.4376-2.7188 9.7478-3.7062 11.623-2.7504 1.8754 0.95544 7.6454 8.2351 6.5617 10.022-1.8124 2.9878-4.8985 5.1781-5.4688 5.6127-0.65738-1.0378-4.7771 0.72437-3.8354 2.5985 0.07138 0.78674-4.0161 2.6932-5.8765 2.8511-0.15729 0.03838-0.30369 0.03998-0.43557-8e-4 -2.4222-0.29423-6.7545-5.2085-7.2756-7.1998-0.93042-3.5603 3.808-10.131 4.7065-11.133" fill="#bababa"/><path d="m6.835 5.0456c2.4376-2.7188 9.7478-3.7062 11.623-2.7504 1.8754 0.95544 7.6454 8.2351 6.5617 10.022m-18.185-7.2717c-0.89896 1.0022-5.6374 7.5731-4.7065 11.133 0.52026 1.9912 4.8529 6.9059 7.2756 7.1998m-2.569-18.333c4.4637 8.1532 9.284 10.934 8.8807 11.485m9.3042-4.2135c-1.8124 2.9878-4.8985 5.1781-5.4688 5.6127-0.65738-1.0378-4.7771 0.72437-3.8354 2.5985 0.07784 0.8559-4.767 3.0374-6.3117 2.8503m15.616-11.061-9.3042 4.2135m-6.3117 6.848c1.7286 0.53968 5.9084-6.2963 6.3117-6.848" stroke="rgba(107, 107, 107, 0.78)"/><path d="m15.723 20.518c-0.78402-1.9468 3.0832-3.5987 3.8314-2.5985l8.667 9.2026c-0.54244-0.96743-5.6454 1.8985-4.638 3.5979z" fill="#d1a656" stroke="rgba(122, 85, 15, 1)"/><path d="m23.383 30.321c0.31175 1.8413 5.9878-1.2441 4.8396-3.1981-0.14882-1.0138-5.0062 1.5307-4.8396 3.1981z" fill="#b87e44" stroke="rgba(122, 85, 15, 1)"/><path d="m10.895 6.6191c-0.54002-1.5979 6.9481-2.7448 6.9578-2.1032 0.90824 0.14751 4.792 5.8354 4.2564 5.7486 0.0254 1.0474-4.9642 3.2345-5.9564 2.8111-0.56785 0-4.2617-3.5083-5.2578-6.4562z" fill="#89a5e8" stroke="rgba(69, 106, 191, 1)"/><path d="m18.082 9.748 0.04114 0.13912q0.0093 0.029968 0.01532 0.045972l0.0096 0.025593 0.0078 0.018389 0.0096 0.023198a0.4033 0.39976 0 0 0 0.02662 0.05717 0.8066 0.79953 0 0 0 0.02823 0.05038 0.8066 0.79953 0 0 0 0.03429 0.05517l0.03468 0.05637 0.02419 0.03558a0.4033 0.39976 0 0 1 0.02582 0.03998l0.01372 0.02319a0.4033 0.39976 0 0 1 0.03146 0.05677q0.0078 0.01558 0.01694 0.03638l0.04032 0.08556 0.02017 0.04118q0.01022 0.01999 0.01814 0.03757l0.03226 0.07434a0.4033 0.39976 0 0 0 0.03026 0.05838 1.2099 1.1993 0 0 1 0.03226 0.06077l0.01614 0.03318a1.2099 1.1993 0 0 0 0.03065 0.06236l0.01452 0.02877 0.01452 0.02879q0.0073 0.01438 0.01493 0.02757a0.8066 0.79953 0 0 1 0.03227 0.05796 1.2099 1.1993 0 0 1 0.03389 0.06475l0.02541 0.04917 0.02621 0.04918a1.6132 1.5991 0 0 0 0.04637 0.08155l0.0039 0.0068q0.0012 0.0033 0.0036 6e-3l0.0039 0.0068 0.0036 0.0081 0.0039 0.0081a0.12099 0.11993 0 0 1 0.0081 0.01919q0.0028 0.0064 0.0039 0.01119l0.0031 0.0089 0.0039 0.01007q0.0028 0.0057 0.01136 0.02878l0.01412 0.04078m-1.7753-1.3592 0.12906-0.077557 0.05244-0.032392q0.02218-0.014792 0.0476-0.029189l0.04436-0.026371a1.2099 1.1993 0 0 1 0.09074-0.050377l0.04839-0.025189 0.09437-0.048771q0.02419-0.011934 0.04718-0.02438l0.04679-0.023986 0.08631-0.043186 0.04518-0.021996a4.033 3.9976 0 0 0 0.17907-0.093544l0.0855-0.043186a2.0165 1.9988 0 0 1 0.1714-0.075161l0.09034-0.035578 0.11937-0.044383 0.03146-0.013191 0.05848-0.022376 0.05121-0.019188a0.4033 0.39976 0 0 1 0.03106-0.010405l0.01776-0.00638 0.02097-0.00951 0.08066-0.040781m1.4721-0.47292a5.2429 5.1969 0 0 0-0.13684-0.06481l-0.02824-0.011994a0.49324 0.48891 0 0 0-0.08953-0.021996 0.4033 0.39976 0 0 0-0.06372-0.00235l-0.04072 4.006e-4a0.3791 0.37578 0 0 0-0.10647 0.027981 0.52429 0.51969 0 0 0-0.10083 0.055963 0.4033 0.39976 0 0 0-0.04154 0.033978 0.8066 0.79953 0 0 0-0.06856 0.073965q-0.01776 0.023182-0.0367 0.051968l-0.03589 0.053972a0.8066 0.79953 0 0 0-0.03186 0.051968 0.56462 0.55967 0 0 0-0.04679 0.10513 0.72594 0.71958 0 0 0-0.03469 0.1735 1.2099 1.1993 0 0 0-0.0039 0.066759 3.2264 3.1981 0 0 0-0.0024 0.13232q0 0.031193 6e-3 0.063963a0.48396 0.47972 0 0 0 0.06614 0.1639 1.2099 1.1993 0 0 0 0.05647 0.079961 0.4033 0.39976 0 0 0 0.0375 0.03997l0.01572 0.011934a0.23392 0.23186 0 0 0 0.04154 0.018783 0.4033 0.39976 0 0 0 0.06131 0.015196q0.01207 0.00187 0.02742 0.00276l0.03306 0.00118q0.01814 0 0.04276-0.00118a0.4033 0.39976 0 0 0 0.0476-0.0068 0.8066 0.79953 0 0 0 0.15446-0.051973l0.06292-0.028776 0.06614-0.029584a1.2099 1.1993 0 0 1 0.20084-0.071141 2.0165 1.9988 0 0 1 0.13027-0.022779l0.06009-0.00928a1.2099 1.1993 0 0 1 0.19681-0.015193l0.0254-3.994e-4h0.02461q0.0031 0 0.01371 0.00403a0.4033 0.39976 0 0 1 0.05404 0.025185 0.4033 0.39976 0 0 1 0.03831 0.023193 0.4033 0.39976 0 0 1 0.0242 0.019995l0.01169 0.010406a0.04033 0.039976 0 0 1 0.0096 0.011934l0.01046 0.019591 0.01331 0.026391q0.0081 0.014398 0.01493 0.030382a0.28231 0.27983 0 0 1 0.02097 0.072757q0.0024 0.017591 0.0036 0.036778a1.2099 1.1993 0 0 1 0.0021 0.081153 0.4033 0.39976 0 0 1-0.0036 0.04397 0.4033 0.39976 0 0 1-0.01046 0.04797 1.2099 1.1993 0 0 1-0.03267 0.10314 0.75417 0.74756 0 0 1-0.26376 0.35659 0.92759 0.91946 0 0 1-0.11494 0.06797 0.73885 0.73237 0 0 1-0.12301 0.04716 1.6132 1.5991 0 0 1-0.1214 0.02958 0.8066 0.79953 0 0 1-0.05364 0.0081l-0.11575 0.01074-0.0488 4e-3 -0.04114 0.0035-0.03871 0.0019-0.08672 0.0043a1.2099 1.1993 0 0 1-0.09276 0.0028 0.8066 0.79953 0 0 1-0.06696-0.0017l-0.02257-0.0012a0.12099 0.11993 0 0 1-0.03467-0.0093l-0.03912-0.01479" stroke="rgba(255, 255, 255, 1)" stroke-linecap="round"/><path d="m8.8302 12.272c0.47711-0.5137 2.1875 1.5315 1.8378 2.1407-0.55656 0.96943-2.177 2.3298-2.177 2.7352 0 0.40536 0.81346 0.65561 0.81346 1.406 0 0.39737-3.2345 0.03519-3.228-0.20188-0.25287-0.18389-0.74207-2.5501-0.6469-3.7698 0.094775-1.2197 1.3127 1.1053 1.5071 0.79993 1.1615-1.8237 1.4168-2.5961 1.8935-3.1102z" fill="#fcd056" stroke="rgba(184, 151, 61, 1)"/></g></svg>
