<?xml version="1.0" encoding="utf-8"?>
<!-- Generator: Adobe Illustrator 16.0.0, SVG Export Plug-In . SVG Version: 6.00 Build 0)  -->
<!DOCTYPE svg PUBLIC "-//W3C//DTD SVG 1.1//EN" "http://www.w3.org/Graphics/SVG/1.1/DTD/svg11.dtd">
<svg version="1.1" id="Layer_1" xmlns="http://www.w3.org/2000/svg" xmlns:xlink="http://www.w3.org/1999/xlink" x="0px" y="0px"
	 width="16382.881px" height="16382.881px" viewBox="0 0 16382.881 16382.881" enable-background="new 0 0 16382.881 16382.881"
	 xml:space="preserve">
<title>file_type_firebase</title>
<path fill="#FFC24A" d="M2969.397,12594.338l87.034-121.334L7162.39,4683.968l8.703-82.427L5361.297,1202.094
	c-87.241-163.687-290.659-225.656-454.347-138.414c-93.119,49.631-157.5,140.143-173.834,244.391L2969.397,12594.338z"/>
<path fill="#FFA712" d="M3020.593,12502.186l65.531-127.992l4063.467-7708.145L5344.403,1253.29
	c-76.062-151.644-260.653-212.916-412.298-136.854c-93.547,46.922-156.77,138.242-167.759,242.319L3020.593,12502.186z"/>
<path fill="#F4BD62" d="M8490.427,7172.63l1347.492-1382.306L8489.915,3219.748c-90.604-168.943-301.006-232.451-469.949-141.848
	c-60.214,32.291-109.557,81.635-141.849,141.848l-720.335,1373.09v117.24L8490.427,7172.63z"/>
<path fill="#FFA50E" d="M8466.364,7116.313l1310.119-1341.349L8466.364,3276.576c-61.385-154.814-236.648-230.553-391.462-169.168
	c-68.817,27.287-125.193,78.935-158.387,145.105l-723.919,1397.152l-21.503,71.163L8466.364,7116.313z"/>
<polygon fill="#F6820C" points="2970.421,12594.85 3009.842,12554.918 3152.68,12497.064 8405.44,7263.76 8471.997,7082.523 
	7161.878,4585.158 "/>
<path fill="#FDE068" d="M8658.353,15234.029l4755.131-2651.465l-1358.756-8360.9c-29.273-177.145-196.607-297.018-373.752-267.745
	c-66.875,11.052-128.625,42.729-176.609,90.604l-8534.969,8549.814l4726.973,2639.18c298.804,166.738,662.667,166.738,961.469,0"/>
<path fill="#FCCA3F" d="M13369.966,12560.549l-1347.492-8297.928c-6.641-157.353-139.584-279.527-296.936-272.887
	c-75.662,3.192-146.947,36.352-198.135,92.162l-8506.811,8496.57l4674.752,2611.023c296.428,165.367,657.365,165.367,953.791,0
	L13369.966,12560.549z"/>
<path fill="#EEAB37" d="M8658.353,15154.164c-298.805,166.736-662.667,166.736-961.47,0l-4688.576-2599.76l-38.909,39.934
	l4726.973,2639.18c298.804,166.738,662.667,166.738,961.469,0l4755.645-2650.953l-11.775-71.676L8658.353,15154.164z"/>
<polygon fill="#252525" points="11624.069,6738.581 7890.647,8430.995 7890.647,13731.735 10869.228,12382.111 10869.228,15358.571 
	15358.95,13319.786 15358.95,8430.96 "/>
<polygon fill="#FFFFFF" points="11624.096,7567.097 8646.922,8917.165 8646.922,10247.538 11624.096,8896.771 14602.676,10247.538 
	14602.676,8917.165 "/>
<polygon fill="#FFFFFF" points="11624.096,9881.896 8646.922,11231.259 8646.922,12560.931 11624.096,11210.163 
	14602.676,12560.931 14602.676,11231.259 "/>
<polygon fill="#FFFFFF" points="14212.422,13010.952 12749.149,12347.173 11624.096,12857.666 11624.096,14184.525 "/>
</svg>
