<svg xmlns="http://www.w3.org/2000/svg" viewBox="0 0 32 32"><title>file_type_gitlab@2x</title><g id="gitlab"><polygon points="16 28.9 16 28.9 21.16 13.03 10.84 13.03 16 28.9" style="fill:#e24329"/><polygon points="16 28.9 10.84 13.03 3.62 13.03 16 28.9" style="fill:#fc6d26"/><path d="M3.62,13h0L2.05,17.85A1.07,1.07,0,0,0,2.44,19L16,28.9,3.62,13Z" style="fill:#fca326"/><path d="M3.62,13h7.23L7.74,3.47a.53.53,0,0,0-1,0L3.62,13Z" style="fill:#e24329"/><polygon points="16 28.9 21.16 13.03 28.38 13.03 16 28.9" style="fill:#fc6d26"/><path d="M28.38,13h0l1.57,4.82A1.07,1.07,0,0,1,29.56,19L16,28.9,28.38,13Z" style="fill:#fca326"/><path d="M28.38,13H21.16l3.11-9.56a.53.53,0,0,1,1,0L28.38,13Z" style="fill:#e24329"/></g></svg>