<svg xmlns="http://www.w3.org/2000/svg" viewBox="0 0 32 32"><title>file_type_pyup</title><path d="M12.556,13.935h0l.031.029,3.434,2.012L19.47,13.93l.022-.026h0l-3.487-1.95Zm10.64-2.2h.047l4.726-2.768L28,8.922,23.2,6.147ZM16.015,2,4,9l.04.071,4.754,2.74.064-.011,7.166-4.142,3.466,2.09V4.007Z" style="fill:#4f859a"/><path d="M4,22.883l4.857,2.875V11.805h0L4,9.005Zm8.592,5.086L16.024,30l.046-.115V24.27l-.046-.1-3.432-1.807Zm-.036-14.033v4.057l3.467,1.993h0l.014-.032V15.958l-.013-.023Z" style="fill:#2e6371"/><path d="M23.2,11.735v8.421L16.024,24.17V30L28,22.883V8.922Zm-3.7,2.169-3.468,2.031v4.05l3.468-2Z" style="fill:#1bafce"/></svg>