<svg xmlns="http://www.w3.org/2000/svg" viewBox="0 0 32 32"><linearGradient id="SVGID_1_" gradientUnits="userSpaceOnUse" x1="285.0521" y1="-391.2263" x2="308.0703" y2="-382.8694" gradientTransform="matrix(1 0 0 -1 -281.5 -371)"><stop  offset="0" style="stop-color:#EB4A54"/><stop  offset="1" style="stop-color:#9E2990"/></linearGradient><path fill-rule="evenodd" clip-rule="evenodd" fill="url(#SVGID_1_)" d="M9.8,5.5C8.6,4,6.2,4.8,6,6.7L4.7,21.6c-0.2,2.3,1.5,4.3,3.8,4.5l13,1.1c2.3,0.2,4.3-1.5,4.5-3.8l1.3-14.8c0.2-1.9-2.1-3.1-3.6-1.9l-3.6,3c-0.4,0.3-0.6,0.5-0.7,0.7c-0.1,0.2-0.1,0.4-0.1,0.6c0.1,0.2,0.2,0.4,0.6,0.8l0.7,0.9c3.4,4,0.2,10-5,9.6L15,22.3c-5.2-0.5-7.2-7-3.3-10.3l0.9-0.7c0.4-0.3,0.6-0.5,0.7-0.7c0.1-0.2,0.1-0.4,0.1-0.6c-0.1-0.2-0.2-0.4-0.6-0.8L9.8,5.5z M17.8,6.9c-0.4,0.3-0.6,0.5-0.8,0.6c-0.2,0-0.4,0-0.6-0.1c-0.2-0.1-0.4-0.3-0.7-0.7l-3-3.6c-3.4-4-9.9-1.9-10.3,3.3L1,21.3c-0.4,4.3,2.8,8.1,7.1,8.5l13,1.1c4.3,0.4,8.1-2.8,8.5-7.1L31,8.9c0.5-5.2-5.6-8.3-9.6-5L17.8,6.9z M17.2,14.3c-0.3-0.4-0.5-0.6-0.7-0.7c-0.2-0.1-0.4-0.1-0.6-0.1c-0.2,0.1-0.4,0.2-0.8,0.6l-0.9,0.7c-1.5,1.2-0.7,3.7,1.2,3.8l0.7,0.1c1.9,0.2,3.1-2.1,1.9-3.6L17.2,14.3z"/></svg>
