<svg viewBox="0 0 32 32" xmlns="http://www.w3.org/2000/svg"><path d="m28.477 7.021a4.436 4.436 0 0 0 -6.169-.1.413.413 0 0 0 -.133.3.427.427 0 0 0 .123.307l.56.559a.423.423 0 0 0 .553.039 2.517 2.517 0 0 1 1.522-.508 2.545 2.545 0 0 1 1.8 4.343c-3.513 3.532-8.233-6.343-18.904-1.261a1.449 1.449 0 0 0 -.7 1.924 1.129 1.129 0 0 0 .057.109l1.827 3.167a1.452 1.452 0 0 0 1.962.54l.046-.026-.036.026.812-.456a18.635 18.635 0 0 0 2.557-1.9.443.443 0 0 1 .582-.019.417.417 0 0 1 .06.587.425.425 0 0 1 -.06.06 19.372 19.372 0 0 1 -2.674 2.017l-.029.016-.811.453a2.263 2.263 0 0 1 -1.122.294 2.324 2.324 0 0 1 -2.015-1.162l-1.733-2.988c-3.323 2.348-5.341 6.871-4.258 12.594a.424.424 0 0 0 .417.343h1.969a.421.421 0 0 0 .434-.369 2.89 2.89 0 0 1 5.732 0 .421.421 0 0 0 .411.369h1.92a.425.425 0 0 0 .421-.369 2.887 2.887 0 0 1 5.729 0 .42.42 0 0 0 .417.369h1.9a.419.419 0 0 0 .42-.414c.046-2.677.767-5.752 2.826-7.291 7.11-5.329 5.236-9.897 3.587-11.553zm-7.265 8.061-1.358-.682a.854.854 0 1 1 1.358.685z" fill="#02303a"/></svg>