<svg version="1.1" id="Layer_1" xmlns="http://www.w3.org/2000/svg" xmlns:xlink="http://www.w3.org/1999/xlink" x="0px" y="0px" viewBox="0 0 32 32" style="enable-background:new 0 0 32 32;" xml:space="preserve"><style type="text/css">.st0{fill:url(#SVGID_1_);}.st1{fill:#005892;}.st2{fill:#00418E;}.st3{fill:#002355;}.st4{fill:url(#SVGID_2_);}.st5{opacity:0.6;fill:#470000;enable-background:new    ;}.st6{fill:#670010;}.st7{fill:#730000;}</style><g transform="translate(4.065 2)"><linearGradient id="SVGID_1_" gradientUnits="userSpaceOnUse" x1="-1948.7595" y1="2039.6268" x2="-1948.6222" y2="2038.4675" gradientTransform="matrix(12.8672 0 0 -21.0233 25080.2754 42879.2422)"><stop offset="0" style="stop-color:#7AD852"/><stop offset="0.5358" style="stop-color:#3AB38B"/><stop  offset="1" style="stop-color:#00BFC9"/></linearGradient><path class="st0" d="M6.9,0.5c-2.4,1-7.9,6-7.9,10c0,4.1,5.5,9,7.9,10C7.5,20.7,8.3,21,9.2,21c0.8,0,1.5-0.4,2.2-1.2 c1.2-1.4,1-3.3-0.5-4.5C9,14,7.5,12.8,7.4,10.5c0-2.3,1.6-3.9,3.5-5.2c1.6-1.1,1.9-2.8,0.7-4.2C10.9,0.3,10.1,0,9.2,0 C8.3,0,7.5,0.3,6.9,0.5z"/><path class="st1" d="M11.4,19.9c1.1-1.1,1.2-3.4-0.5-4.5c-2.3-1.5-3.5-3-3.5-4.9c0-2.1,1.4-3.5,1.8-3.9c-5.3,5.7-6,12-0.9,14.3 C9.5,21.3,10.5,20.9,11.4,19.9z"/><path class="st2" d="M9,17.8c0.7-0.8,0.6-2.3-0.3-3.1c-1.5-1.3-1.7-2.7-1.7-4C7,9.2,7.9,8.3,8.1,8C4.7,11.9,3.7,17,7,18.6 C7.7,18.8,8.4,18.5,9,17.8z"/><path class="st3" d="M7.5,16.3c0.4-0.5,0.4-1.5-0.2-2c-0.9-0.8-1.1-1.8-1.1-2.6c0-0.9,0.3-1.8-0.2-0.7s-1.9,4.7,0.2,5.7 C6.7,16.9,7.1,16.7,7.5,16.3z"/><g transform="translate(12.121 6.925)"><linearGradient id="SVGID_2_" gradientUnits="userSpaceOnUse" x1="-1959.8219" y1="2032.6682" x2="-1960.4036" y2="2031.4799" gradientTransform="matrix(12.8047 0 0 -21.0116 25103.2969 42708.7578)"><stop offset="0" style="stop-color:#FF2953"/><stop  offset="1" style="stop-color:#EA3333"/></linearGradient><path class="st4" d="M2.6,21.1c-0.8,0-1.7-0.3-2.4-1.1c-1.2-1.4-0.9-3.1,0.7-4.2c1.9-1.3,3.4-2.9,3.5-5.2c0-2.3-1.6-3.8-3.5-5.2 c-1.4-1-1.9-2.9-0.7-4.3c0.7-0.8,1.6-1.1,2.4-1.1c0.9,0,1.8,0.3,2.3,0.5c2.4,1,7.8,5.9,7.9,10c0,3.9-5.5,9-7.9,10 C4.3,20.8,3.5,21.1,2.6,21.1z"/><path class="st5" d="M0.1,1.1c-1.1,1.1-0.9,3.2,0.8,4.3C3.2,7,4.3,8.7,4.3,10.6c0,2.1-1.4,3.5-1.8,3.9c5.5-3.9,6-12,0.9-14.3 C2.3-0.2,1,0.1,0.1,1.1z"/><path class="st6" d="M3.1,3.1C2.4,3.9,2.4,5.4,3.4,6.2c1.5,1.3,1.7,2.7,1.7,4c0,1.5-0.3,2.1-0.5,2.4C7.3,9.6,8.2,3.8,5,2.4 C4.3,2.1,3.6,2.4,3.1,3.1z"/><path class="st7" d="M4.6,4.6c-0.4,0.5-0.4,1.5,0.2,2C5.7,7.4,6,8.5,6.1,9.1c0,0.7,0,0.8-0.1,1.3c0.4-0.7,2.2-5.6-0.1-6.3 C5.4,4,5,4.2,4.6,4.6z"/></g></g></svg>