<svg xmlns="http://www.w3.org/2000/svg" viewBox="0 0 32 32"><title>file_type_yaml@2x</title><g id="yaml"><path d="M2,12.22c.75,0,1.51,0,2.26,0l.05,0L7.08,15c.89-.91,1.8-1.79,2.7-2.7.05-.05.11-.11.19-.1h1.82a1.4,1.4,0,0,1,.35,0c-.7.67-1.38,1.37-2.07,2.05L5.54,18.8c-.33.32-.65.66-1,1-.75,0-1.51,0-2.27,0,1.22-1.21,2.43-2.43,3.66-3.64C4.63,14.84,3.32,13.53,2,12.22Z" style="fill:#ffe885"/><path d="M12.7,12.22h1.84q0,3.78,0,7.57c-.61,0-1.22,0-1.83,0,0-1.66,0-3.33,0-5-1.6,1.61-3.21,3.2-4.81,4.8-.09.08-.17.22-.31.19H5.12Z" style="fill:#ffe885"/><path d="M15,12.22h1.41c.84.85,1.69,1.69,2.54,2.53l2.54-2.53h1.4q0,3.78,0,7.57H21.43q0-2.39,0-4.77c-.84.84-1.68,1.7-2.53,2.54-.86-.84-1.69-1.69-2.53-2.54,0,1.59,0,3.19,0,4.78H15Q15,16,15,12.22Z" style="fill:#ffe885"/><path d="M23.26,12.22h1.42q0,3.08,0,6.17h3.78c.06,0,.14,0,.19,0,.45.45.91.9,1.35,1.35H23.26Q23.27,16,23.26,12.22Z" style="fill:#ffe885"/></g></svg>