<svg xmlns="http://www.w3.org/2000/svg" viewBox="0 0 32 32"><title>file_type_js@2x</title><g id="js"><path d="M19.25,20.27a4.35,4.35,0,0,0,3.94,2.42c1.65,0,2.71-.83,2.71-2,0-1.37-1.09-1.85-2.91-2.65l-1-.43c-2.88-1.23-4.79-2.76-4.79-6,0-3,2.28-5.27,5.85-5.27a5.9,5.9,0,0,1,5.68,3.2l-3.11,2a2.72,2.72,0,0,0-2.57-1.71,1.74,1.74,0,0,0-1.91,1.71c0,1.2.74,1.68,2.45,2.42l1,.43c3.39,1.45,5.31,2.94,5.31,6.27,0,3.59-2.82,5.56-6.62,5.56s-6.1-1.77-7.28-4.08Zm-14.1.35c.63,1.11,1.2,2.05,2.57,2.05s2.14-.51,2.14-2.51V6.59h4V20.22c0,4.13-2.42,6-6,6a6.2,6.2,0,0,1-6-3.65Z" style="fill:#f5de19"/></g></svg>