<svg viewBox="0 0 32 32" xmlns="http://www.w3.org/2000/svg"><path d="m16 2a14 14 0 1 1 -14 14 14 14 0 0 1 14-14z" fill="#83cd29" fill-rule="evenodd"/><path d="m16 30a2.151 2.151 0 0 1 -1.076-.288l-3.424-2.027c-.511-.286-.262-.387-.093-.446a6.828 6.828 0 0 0 1.549-.7.263.263 0 0 1 .255.019l2.631 1.563a.34.34 0 0 0 .318 0l10.26-5.922a.323.323 0 0 0 .157-.278v-11.846a.331.331 0 0 0 -.159-.283l-10.26-5.917a.323.323 0 0 0 -.317 0l-10.254 5.919a.33.33 0 0 0 -.162.281v11.841a.315.315 0 0 0 .161.274l2.814 1.624c1.525.762 2.459-.136 2.459-1.038v-11.691a.3.3 0 0 1 .3-.3h1.3a.3.3 0 0 1 .3.3v11.692c0 2.035-1.108 3.2-3.038 3.2a4.389 4.389 0 0 1 -2.363-.642l-2.697-1.547a2.166 2.166 0 0 1 -1.076-1.872v-11.841a2.162 2.162 0 0 1 1.076-1.875l10.261-5.924a2.246 2.246 0 0 1 2.156 0l10.26 5.924a2.165 2.165 0 0 1 1.077 1.87v11.846a2.171 2.171 0 0 1 -1.077 1.872l-10.26 5.924a2.152 2.152 0 0 1 -1.078.288zm3.488-8.257c3.251 0 5.115-1.28 5.115-3.516 0-2.216-1.5-2.807-4.651-3.223-3.186-.422-3.51-.639-3.51-1.385 0-.616.274-1.438 2.634-1.438 2.108 0 2.885.454 3.2 1.875a.3.3 0 0 0 .288.232h1.336a.3.3 0 0 0 .295-.323c-.206-2.448-1.832-3.589-5.12-3.589-2.925 0-4.67 1.235-4.67 3.305 0 2.246 1.736 2.866 4.544 3.144 3.359.329 3.62.82 3.62 1.481 0 1.147-.92 1.636-3.082 1.636-2.715 0-3.313-.682-3.513-2.032a.3.3 0 0 0 -.295-.251h-1.328a.3.3 0 0 0 -.3.3c.003 1.723.944 3.784 5.434 3.784z" fill="#fff"/></svg>