<svg width="32" height="32" version="1.1" viewBox="0 0 32 32" xmlns="http://www.w3.org/2000/svg"><g transform="matrix(.048492 0 0 .048492 2.0124 5.1252)"><path d="m290 156c5-9 11-18 18-25 16-16 42-18 64-13 7 2 13 5 18 10l4 3 6 5h1l1-6 1-12c0-3-1-4-3-5l-18-4-28-2c-11-1-32-3-30-19 1-13 13-25 23-33a241 241 0 0 1 100-53l28-2c9 1 10 9 6 15-3 4-6 8-11 11l-27 24v1c11-1 21 0 30 2 13 3 24 10 24 24 1 10-6 22-13 30-8 8-18 16-28 23v1c9 0 16 2 22 8 12 9 19 22 22 37h1l23 3c7 3 17 7 23 12a85 85 0 0 1 28 84c-1 5-4 9-9 12l-1 1c-3 5-5 11-9 16l-4 7c-8 9-22 17-33 20l-3 2-4 5-5 15 4 5c9 4 16 11 21 21 2 4 4 8 3 12-1 5-5 7-10 7l-1 1c3 7 6 17 1 23-1 1-3 2-5 1l-1 1v4c1 4 3 11-1 15s-9 3-14 1l-30-10c-7-3-16-5-29-7l-20-1-23 1-16 1h-41l-19-2c-9-1-19-1-28 1l-21 3-9 2-13 3-28 6-34 7c-21 4-19-16-15-28l12-21v-1c-7 3-13 5-20 6-8 1-15-3-14-13 1-6 3-12 7-17l-1-1c-6 2-17 2-19-5-2-6 1-13 5-18 5-7 12-12 21-16v-1c-22-1-42-7-63-15-22-9-40-24-54-44l-12-17a172 172 0 0 1-14-28l-1-1c-8 1-15-1-20-8-4-6-6-13-5-22 0-11 4-21 8-31 8-23 22-47 41-64l15-13c20-16 47-29 73-30 13-1 25 0 37 1 25 3 47 13 66 28 12 10 23 22 33 37 7 9 13 19 17 30v0zm55-87c-5 5-9 10-11 16-1 3-2 5-1 6 1 5 15 7 20 7l43 2 33 4 2 2c0 3-3 4-5 4h-9c-2 0-5 2-5 5l-3 31h2l12-7 11-6c13-6 25-16 36-26 8-7 15-14 18-24s-4-18-14-20l-14-2-34 1c-3 0-4-1-3-4l3-5 18-15 18-16 11-12v-1a120 120 0 0 0-54 11c-23 10-45 23-64 40zm-315 149 14-4 39-17 6-1c9-1 9 12 10 18 0 9 2 18 6 25s12 9 20 9c11-1 22-2 33-5l36-7 12-3 6-1c6 1 8 7 9 12l1 13c0 3-1 4-4 5-2 0-5-2-5-4v-5l-1-5-1-6-1-1-3 1-52 11-25 3c-13 1-25 0-32-12-3-5-6-10-7-16l-2-9v-14h-1l-27 11-18 8v7l6 20c11 23 28 41 50 53l5 3a190 190 0 0 0 79 18 118 118 0 0 0 68-28l4-3c7-7 14-16 19-26l4-10c5-15 9-30 10-46l-1-23c-1-13-3-25-8-36l-15-25c-9-13-19-24-32-34l-6-5c-18-12-38-18-59-20l-20-1c-43 0-80 25-107 58-13 17-22 38-29 59-3 10-4 20 1 29 2 3 5 5 8 5zm287 32c-8-1-17-4-22-11 0 13 10 26 21 31l17 5c9 2 16 0 24-5 9-6 18-13 23-22a270 270 0 0 0 16-49c2-13 4-25 2-38-2-7-4-14-8-20-1-1-1 0-1 1 4 28-2 56-16 80l-9 11a62 62 0 0 1-47 17zm2-33-4 8v7l2 6 2 3 3 3c10 0 19-3 27-8s15-11 20-20a1 1 0 0 0-1-1l-2-3-3-1-2-2h-2v-1l-9-1-2 1h-2l-3 1h-2c9-10 12-22 11-36-2-18-20-32-37-19-9 6-13 16-15 26-3 15 3 34 19 37zm95 10c-3 4-6 8-7 13l-2 8v1c7 7 15 9 25 8 12-1 22-5 29-13l2-3 1-5 1-4v-6l-2-5-5-4-6-3c3-7 5-14 4-22-1-14-11-27-26-23-10 2-17 11-20 20-3 7-4 13-3 20s4 13 9 18zm66 25a167 167 0 0 0 11-72l-2-11h-1v26c-3 16-7 30-16 44a54 54 0 0 1-47 25c-9 0-17-4-24-11v1l4 12c4 9 16 16 26 19 5 2 10 2 15 0 17-5 26-18 34-33zm33 50v21c4-1 8-2 13-5 7-3 14-7 18-13 4-4 6-11 9-16v-1h-1l-9-5h-2l-2 4c-2 4-8 3-8-2 0-9 8-14 17-10 5 3 11 8 16 2 2-2 3-6 3-9v-25l-2-6c-3-13-9-23-17-32-5-7-12-11-21-14-4-3-8-4-11-4-7-1-11 4-14 9l-1 5-2 11c-1 11-4 22-7 31l1 1 3 4c9 13 14 27 16 43zm-184-19c-17-3-30-10-37-25h-1l-10 19c-7 12-16 21-27 30-10 7-21 14-33 19h-1c-1 5 0 10 2 13 4 5 9 10 14 13l5 5c7 7 17 15 26 18 5 2 9 5 13 9l11 12 10 12 5 2 42 10c15 3 31 3 47 2l24-5a135 135 0 0 0 44-24l19-20a111 111 0 0 0 21-55v-5c-1-21-5-40-14-59h-1c-8 19-20 34-41 40-13 4-26-1-37-9-14-9-17-22-19-38v0c-7 14-19 25-32 32-9 5-19 7-30 4zm-176 82h7l12-4 4-2c11-9 23-13 38-12l1-1c0-4-8-7-11-8-17-4-37 4-48 17-3 3-4 6-5 9v1zm23 7-7 9c-2 3-3 8-4 13 3 1 7 0 12-1 8-3 16-6 25-7h1c10-9 22-14 36-15v-1c-2-7-7-11-15-13a53 53 0 0 0-41 7l-3 3zm326-8-4 7h1l4 3 8 7 5 4 10 4v-1c0-3-2-5-4-8-5-7-11-13-20-16v0c-1 0-1 0 0 0zm-15 25-6 4v1l10 4 2 1c4 1 7 3 10 6l6 3 9 7h1l-1-6c-3-7-6-14-11-20-3-4-7-7-12-9h-1zm-276 2c-11 8-18 17-23 28-3 6-4 12-3 19l2 1h5l20-4 20-5 18-3 17-5c5-1 9-4 11-8 3-5 3-10 0-15s-6-9-11-12l-8-5-20-2c-10 1-19 4-28 11zm254 17-10 8a2 2 0 0 0 0 3l4 2 22 6 28 9h3l1-3c-1-13-8-21-19-25-3-1-5-2-6-1-7-1-17-2-23 1z" fill="#564341"/><path d="m474 63-1 1v1l-5 12-6 5-13 6-25 5h-17l-15-2-25-6-7-3-6-3-8-8-1-2 10-9a246 246 0 0 1 80-46c12-4 25-5 38-5v1l-11 12-18 16-18 15-3 5c-1 3 0 4 3 4l34-1z" fill="#ffe868"/><path d="m474 63c10 2 17 10 14 20s-10 17-18 24c-11 10-23 20-36 26l-11 6-12 7h-2l3-31c0-3 3-5 5-5h9c2 0 5-1 5-4l-2-2-33-4-43-2c-5 0-19-2-20-7-1-1 0-3 1-6 2-6 6-11 11-16l1 2 8 8 6 3 7 3 25 6 15 2h17l25-5 13-6 6-5 5-12v-1z" fill="#ffbb49"/><path d="m226 89-8 2h-1l-2 1-1 1h-2l-1 1-2 1h-1l-1 1h-1l-1 1h-1l-3 2h-3a1 1 0 0 1-1 1l-2 1h-8l-1 1h-17l-1 1h-8l-1 1h-5l-1 1c-9-13-24-16-39-14-17 3-36 11-47 24s-13 29-4 43c-2 0-3 1-3 2l-4 4v2l-4 3v2l-2 1v2l-2 1v2l-3 3v2l-1 1v1l-3 3v2l-1 1v1l-1 1v1c-1 1-2 1-1 2l-1 1v2c-1 1-2 1-1 2l-1 1v2l-1 2v1c-1 1-2 1-1 2v1l-1 2-1 1v1l-1 1v4l-10 1c-3 0-6-2-8-5-5-9-4-19-1-29 7-21 16-42 29-59 27-33 64-58 107-58l20 1c21 2 41 8 59 20z" fill="#ffc98a"/><path d="m226 89 6 5v1h1v1h-2l-2 1h-1l-3 1h-3l-1 1-4 1-1 1h-2l-1 1h-1l-2 3h-2l-3 3-2 1v1l-7 3h-2l-2 1h-6l-2 1h-17v1h-5l-3 1-2-5-4-7 1-1h5l1-1h8l1-1h17l1-1h8l2-1a1 1 0 0 0 1-1h3l3-2h1l1-1h1l1-1h1l2-1 1-1h2l1-1 2-1h1z" fill="#ffc293"/><path d="m153 105 4 7-4-1-4-2h-8l-9 2-1 1h-1l-2 1-6 2c-14 5-27 13-39 23l-12 12-2 3h1v6l8 7 2 2c1 1 2 2 1 3l-9-4-9-9c-9-14-7-30 4-43s30-21 47-24c15-2 30 1 39 14z" fill="#fffbd8"/><path d="m232 94c13 10 23 21 32 34 3 12 5 22 5 30v22c0 12-2 23-8 34l-15 23c-18 22-40 40-66 54-11 6-22 10-33 12l-35 3-8 1-5-3c-22-12-39-30-50-53l-6-20c9-2 19-3 28-2 5 0 11 0 15 4s8 10 11 17c3 5 7 8 14 9h25l68-12c3-1 4 0 5 2l4 4v5c0 2 3 4 5 4 3-1 4-2 4-5l-1-13c-1-5-3-11-9-12l-6 1-12 3-36 7c-11 3-22 4-33 5-8 0-16-2-20-9s-6-16-6-25c-1-6-1-19-10-18l-6 1-39 17v-1h1l1-1-1-1 1-1v-2l1-1v-1l1-1v-1l1-1v-1l1-1v-1l1-1v-1c1-1 2-1 1-2v-1l2-2v-2l1-1v-1l3-3v-2l1-1v-1l2-1v-2l2-1v-2l3-2v-2l3-2v-1l2-2h1l9 4 9 2c24 5 48-8 61-27 7-9 9-18 8-29l3-1h5v-1h17l2-1h6l2-1h2l7-3v-1l2-1 3-3h2l2-3h1l1-1h2l1-1 4-1 1-1h3l3-1h1l2-1h2v-1h-1zm-84 85c1 5 5 8 10 9 11 3 22-1 31-8s16-20 7-31l-8-4c-12-4-25 4-33 13l-5 7c-3 4-4 10-2 14z" fill="#ffbc9c"/><path d="m157 112 2 5c1 11-1 20-8 29l3-8v-2l2-5c1-1 0-3-1-4h-8l-2 1h-1l-2 1h-1l-2 1h-1v1h-1l-2 1h-1l-2 1h-1l-2 1h-1l-1 1h-2l-1 1-6 2-7 4-6 6h-2l-2 3h-2l-5 6h-2l-8 8v4l1 1 5 3-9-2c1-1 0-2-1-3l-2-2-8-7v-6h-1l2-3 12-12c12-10 25-18 39-23l6-2 2-1h1l1-1 9-2h8l4 2z" fill="#fffdeb"/><path d="m151 146c-13 19-37 32-61 27l-5-3-1-1v-4l8-8h2l5-6h2l2-3h2l6-6 7-4 6-2 1-1h2l1-1h1l2-1h1l2-1h1l2-1h1v-1h1l2-1h1l2-1h1l2-1h8c1 1 2 3 1 4l-2 5v2z" fill="#fff"/><path d="m264 128 15 25c5 11 7 23 8 36v11l-1 10c-2 15-6 30-11 44l-4 9h-3l-3 3h-2l-10 6-6 4-5 3-8 5-35 14-34 7-7 1h-2l-2 1h-9l-9 1h-17c-2 1-4 0-7-2l35-3c11-2 22-6 33-12 26-14 48-32 66-54l15-23c6-11 8-22 8-34v-22c0-8-2-18-5-30z" fill="#f28773"/><path d="m295 239c5 7 14 10 22 11 18 1 33-5 47-17l9-11c14-24 20-52 16-80 0-1 0-2 1-1 4 6 6 13 8 20 2 13 0 25-2 38a270 270 0 0 1-16 49c-5 9-14 16-23 22-8 5-15 7-24 5l-17-5c-11-5-21-18-21-31zm-147-60c-2-4-1-10 2-14l5-7c8-9 21-17 33-13l8 4c9 11 2 24-7 31s-20 11-31 8c-5-1-9-4-10-9z" fill="#fff"/><path d="m341 209c-6 7-13 9-22 8-16-3-22-22-19-37 2-10 6-20 15-26 17-13 35 1 37 19 1 14-2 26-11 36z" fill="#fff"/><path d="m63 158 9 9h-1l-2 2v1l-3 2v2l-3 2v2l-2 1v2l-2 1v1l-1 1v2l-3 3v1l-1 1v2l-2 2v1c1 1 0 1-1 2v1l-1 1v1l-1 1v1l-1 1v1l-1 1v1l-1 1v2l-1 1 1 1-1 1h-1v1l-14 4v-4l1-1v-1l1-1 1-2v-1c-1-1 0-1 1-2v-1l1-2v-2l1-1c-1-1 0-1 1-2v-2l1-1c-1-1 0-1 1-2v-1l1-1v-1l1-1v-2l3-3v-1l1-1v-2l3-3v-2l2-1v-2l2-1v-2l4-3v-2l4-4c0-1 1-2 3-2z" fill="#ffc293"/><path d="m450 214c-3 7-8 12-13 15-8 5-16 4-23-2-5-5-8-11-9-18s0-13 3-20c3-9 10-18 20-20 15-4 25 9 26 23 1 8-1 15-4 22z" fill="#fff"/><path d="m480 252c-8 15-17 28-34 33-5 2-10 2-15 0-10-3-22-10-26-19l-4-12v-1c7 7 15 11 24 11 20 0 36-9 47-25 9-14 13-28 16-44v-26h1l2 11v28c-2 14-5 31-11 44z" fill="#fff"/><path d="m527 191 4 5v2l3 2v2l4 3v2l3 2v2l3 2v2l2 1v2l2 1v2l4 3v2l2 2h2v2h1l8 7 2 6v25c0 3-1 7-3 9-5 6-11 1-16-2-9-4-17 1-17 10 0 5 6 6 8 2l2-4h2l9 5c-7 11-16 18-27 22h-4c-5-1-6-3-8-8l-1-11c-2-16-7-30-16-43l-3-4-1-1c3-9 6-20 7-31l2-11 1-5c3-5 7-10 14-9 3 0 7 1 11 4z" fill="#f28773"/><path d="m287 189 1 23c-1 16-5 31-10 46l-4 10c-5 10-12 19-19 26l-4 3c-9 8-20 14-31 19l12-9 4-4c13-10 26-24 35-40l4-9c5-14 9-29 11-44l1-10z" fill="#ad6560"/><path d="m527 191c9 3 16 7 21 14 8 9 14 19 17 32l-8-7h-1v-2h-2l-2-2v-2l-4-3v-2l-2-1v-2l-2-1v-2l-3-2v-2l-3-2v-2l-4-3v-2l-3-2v-2z" fill="#f4986e"/><path d="m89 219-1-4c-1-2-2-4-5-4l-9 2-13 3 27-11h1z" fill="#ad6560"/><path d="m319 217c9 1 16-1 22-8h2l3-1h2l2-1 9 1v1h2l2 2 3 1 2 3a1 1 0 0 1 1 1c-5 9-12 15-20 20s-17 8-27 8l-3-3-2-3-2-6v-7z" fill="#81564f"/><path d="m89 219 2 9c1 6 4 11 7 16 7 12 19 13 32 12l25-3 52-11c3 0 4 4 5 6l1 5-4-4c-1-2-2-3-5-2l-68 12h-25c-7-1-11-4-14-9-3-7-7-13-11-17s-10-4-15-4c-9-1-19 0-28 2v-7l18-8 13-3 9-2c3 0 4 2 5 4z" fill="#f28773"/><path d="m450 214 6 3 5 4 2 5v6l-1 4-1 5-2 3c-7 8-17 12-29 13-10 1-18-1-25-8v-1l2-8c1-5 4-9 7-13 7 6 15 7 23 2 5-3 10-8 13-15z" fill="#81564f"/><path d="m212 248c-1-2-2-6-5-6l3-1 1 1z" fill="#ad6560"/><path d="m447 294c1 11 9 18 18 22 7 3 14 4 21 5 6 1 12 0 17-3a111 111 0 0 1-21 55l-19 20a135 135 0 0 1-44 24l-24 5c-16 1-32 1-47-2a324 324 0 0 1-47-12l-10-12-11-12c-4-4-8-7-13-9-9-3-19-11-26-18l-5-5c-5-3-10-8-14-13-2-3-3-8-2-13h1c12-5 23-12 33-19l3 1c4 5 11 7 18 7 9 0 19-1 28-4 12-3 20-10 25-21v-4l1-3c11 3 21 1 30-4 13-7 25-18 32-32v0c2 16 5 29 19 38 11 8 24 13 37 9zm-62 1c-7-3-15-6-17-13l-1-1-3 2c-4 5 1 10 5 12 11 6 23 8 35 5v-1z" fill="#ffbc9c"/><path d="m503 318c-5 3-11 4-17 3-7-1-14-2-21-5-9-4-17-11-18-22 21-6 33-21 41-40h1c9 19 13 38 14 59zm-174-35-1 3v4c-5 11-13 18-25 21-9 3-19 4-28 4-7 0-14-2-18-7l-3-1c11-9 20-18 27-30l10-19h1c7 15 20 22 37 25z" fill="#f28773"/><path d="m271 263c-9 16-22 30-35 40l-4 4-12 9a104 104 0 0 1-73 5c-14-3-28-7-43-14l8-1c3 2 5 3 7 2h17l9-1h9l2-1h2l7-1 34-7 35-14 8-5 5-3 6-4 10-6h2l3-3z" fill="#f67954"/><path d="m385 295 19 4v1c-12 3-24 1-35-5-4-2-9-7-5-12l3-2 1 1c2 7 10 10 17 13z" fill="#564341"/><path d="m552 288h1v1c-3 5-5 12-9 16-4 6-11 10-18 13-5 3-9 4-13 5v-21c2 5 3 7 8 8h4c11-4 20-11 27-22z" fill="#ad6560"/><path d="m204 338-6 6-19 10-26 11h-2v-1c1-3 2-6 5-9 11-13 31-21 48-17z" fill="#f28773"/><path d="m204 338c3 1 11 4 11 8l-1 1c-15-1-27 3-38 12l-4 2-12 4h-7l26-11 19-10z" fill="#ad6560"/><path d="m224 357c-1 6-4 11-9 14l-14 10-6 3v-3l-1-1h-1l-1-1h-1l-1-1h-1l-1-1h-1c-1-1-1-2-2-1l-1-1h-1l-1-1h-3l-2-1h-1v-1l4-5 3-3c5-3 10-6 16-7 9-2 17-2 25 0z" fill="#f28773"/><path d="m224 357c8 2 13 6 15 13v1c-14 1-26 6-36 15h-1c-9 1-17 4-25 7-5 1-9 2-12 1l21-6 9-4 6-3 14-10c5-3 8-8 9-14z" fill="#ad6560"/><path d="m503 374-1-10c-1 0-1 0 0 0v0c9 3 15 9 20 16 2 3 4 5 4 8v1l-10-4-5-4z" fill="#f67954"/><path d="m502 364 1 10-4-3h-1z" fill="#ad6560"/><path d="m176 372v1h1l2 1h3l1 1h1l1 1c1-1 1 0 2 1h1l1 1h1l1 1h1l1 1h1l1 1v3l-9 4-21 6c1-5 2-10 4-13z" fill="#f4986e"/><path d="m507 389-2 2v1h-1l-4 3h-1l-2 2-4 2-2-1-4-9 7-9h1c5 2 9 5 12 9z" fill="#f67954"/><path d="m267 387 2 6v4c-2 6-6 11-11 15l-14 10-21-23h-2l-4-5h-2l-4-3c9-7 18-10 28-11l20 2z" fill="#f28773"/><path d="m267 387c5 3 8 7 11 12s3 10 0 15c-2 4-6 7-11 8l-17 5-18 3-20 5c11-3 21-8 32-13l14-10c5-4 9-9 11-15v-4zm220 2 4 9-10-4v-1z" fill="#ad6560"/><path d="m507 389c5 6 8 13 11 20l1 6h-1l-9-7-6-3c-3-3-6-5-10-6l4-2 2-2h1l4-3h1v-1zm-296 2 4 3h2l4 5h2l21 23c-11 5-21 10-32 13l-20 4h-5l-2-1c-1-7 0-13 3-19 5-11 12-20 23-28z" fill="#f4986e"/><path d="m488 407-15 15-7-8-1-6c6-3 16-2 23-1z" fill="#f67954"/><path d="m488 407c1-1 3 0 6 1 11 4 18 12 19 25l-1 3h-3l-28-9-8-5z" fill="#f4986e"/><path d="m465 408 1 6 7 8 8 5-22-6-4-2a2 2 0 0 1 0-3z" fill="#ad6560"/></g></svg>
