<svg xmlns="http://www.w3.org/2000/svg" stroke="#000" stroke-linecap="round" stroke-linejoin="round" stroke-width=".5" viewBox="0 0 32 32"><path fill="#d1d3d4" d="M14.39 7.1c.08-2.45-.75-3.9-3.12-4.85-.68 2.36 2.1 4.54 3.12 4.85"/><path fill="#d1d3d4" d="M20.83 11.26c.08-2.01-.43-2.83-.81-3.4-.4-.55-1.32-1.4-2.46-1.44-1.08-.03-1.34.56-2.34.6-.16-1.81 1.2-2.81 1.2-2.81s-.37-.53-.68-.66c-.44.4-1.67 1.72-1.38 3.42-.92-.18-1.57-.7-2.53-.51-1.31.26-2.4 1.05-3.01 2.79-.62 1.74.22 3.77.4 4.35s1.52 3.05 2.57 3.41 1.05.2 1.62-.02c.56-.22 1.41-.61 2.66-.16s1.42.56 2.2.05c.78-.5 1.79-2.08 2.03-2.53.23-.46.36-.7.43-.93.76-.38.03-.35.1-2.16"/><path fill="#fff" d="M22.86 25.98a1.9 1.9 0 0 0 1.89-1.88v-6.77a1.9 1.9 0 0 0-1.88-1.88h-1.55a.4.4 0 0 1-.42-.42v-.98H8.68l.03 14.44a.4.4 0 0 0 .2.35c.54.31 2.28.91 5.95.91 3.74 0 5.41-.8 5.89-1.16a.4.4 0 0 0 .15-.32V26.4a.4.4 0 0 1 .43-.42zm-1.96-8.34q0-.21.15-.36a.5.5 0 0 1 .37-.16h1.33q.21 0 .37.16a.5.5 0 0 1 .15.36v6.08a.5.5 0 0 1-.15.37.5.5 0 0 1-.37.15h-1.33a.5.5 0 0 1-.37-.15.5.5 0 0 1-.15-.37z"/><path fill="#fbb040" stroke="none" d="M9.89 13.93v12.95q0 .24.2.36c.53.25 2.07.86 4.76.86 2.7 0 4.19-.74 4.69-1.04a.4.4 0 0 0 .19-.35V13.93z"/><path stroke="#ffdb96" stroke-width="1.15" d="M11.33 16.12v10.01"/><path fill="#fff" d="M16.89 16.59c0-.2-.12-.46-.32-.58a2 2 0 0 1-.73-.87 23 23 0 0 1-6.34-.71 10 10 0 0 0-.96-.22 1.6 1.6 0 0 1-1.3-1.57c0-.86.68-1.55 1.53-1.58a1.94 1.94 0 1 1 3.73.98h0a1.85 1.85 0 0 1 3.53 0v-.21a2.01 2.01 0 0 1 3.93-.6l.17-.05a1.6 1.6 0 0 1 .78-.2 1.58 1.58 0 0 1 .22 3.14 2 2 0 0 0-.52.14q-.68.25-1.4.43a2 2 0 0 1-.2.65 2 2 0 0 0-.24 1.18v.18c0 .51-.42.83-.94.83a.94.94 0 0 1-.94-.94"/></svg>