<svg xmlns="http://www.w3.org/2000/svg" viewBox="0 0 32 32"><path fill="#f782d2" d="M3.7 19.12v-2.76h4.82q1.86 0 2.86-.94a3.5 3.5 0 0 0 1.02-2.68v-.02q0-1.74-1.02-2.68-1-.94-2.86-.94H3.7V6.32h5.66q1.93 0 3.39.8a5.7 5.7 0 0 1 2.3 2.23q.81 1.43.81 3.35v.03q0 1.9-.82 3.35a6 6 0 0 1-2.3 2.24q-1.45.8-3.38.8zM2 25.44V6.32h3.42v19.12zm21.2.24a7 7 0 0 1-3.62-.9 6 6 0 0 1-2.36-2.56 9 9 0 0 1-.82-3.95v-.02q0-2.28.83-3.93a6 6 0 0 1 2.36-2.57q1.53-.9 3.61-.9c2.08 0 2.6.3 3.61.9a6 6 0 0 1 2.36 2.57q.83 1.65.83 3.93v.02q0 2.27-.83 3.95a6 6 0 0 1-2.35 2.56q-1.52.9-3.62.9m0-2.21q1.3 0 2.24-.64a4 4 0 0 0 1.45-1.8q.5-1.18.5-2.76v-.02q0-1.6-.51-2.75a4 4 0 0 0-1.45-1.8 4 4 0 0 0-2.23-.64q-1.27 0-2.22.64a4 4 0 0 0-1.46 1.79Q19 16.65 19 18.25v.02q0 1.59.5 2.76.53 1.17 1.47 1.8c.94.63 1.37.64 2.22.64"/></svg>