<svg viewBox="0 0 32 32" xmlns="http://www.w3.org/2000/svg"><path d="m18.536 2.321v2.863c3.4.019 7.357-.035 10.754.016.642 0 .67.568.678 1.064.054 5.942-.013 12.055.032 18-.012.234-.006 1.1-.013 1.346-.022.823-.434.859-1.257.884-.132 0-.52.006-.648.012-3.181-.016-6.362-.009-9.546-.009v3.182l-16.536-2.545q0-11.134 0-22.261l16.536-2.551" fill="#d33922"/><path d="m18.536 6.138h10.5v19.4h-10.5v-2.538h7.634v-1.275h-7.634v-1.59h7.634v-1.272h-7.631c0-.624 0-1.247-.006-1.87a4.467 4.467 0 0 0 3.82-.375 4.352 4.352 0 0 0 1.959-3.474c-1.4-.01-2.793-.006-4.186-.006 0-1.384.016-2.767-.029-4.148-.522.1-1.043.21-1.562.321v-3.172" fill="#fff"/><path d="m20.766 8.324a4.476 4.476 0 0 1 4.186 4.167c-1.4.016-2.793.01-4.189.01 0-1.393 0-2.787 0-4.177" fill="#d33922"/><path d="m7.1 10.726c1.727.083 3.82-.684 5.252.611 1.371 1.664 1.008 4.724-1.024 5.719a4.7 4.7 0 0 1 -2.328.292c0 1.244-.006 2.488 0 3.731-.63-.054-1.263-.108-1.893-.159-.029-3.4-.035-6.8 0-10.2" fill="#fff"/><path d="m8.993 12.446c.627-.029 1.4-.143 1.826.445a2.308 2.308 0 0 1 .041 2.087c-.363.655-1.183.592-1.816.668-.067-1.066-.06-2.131-.051-3.2" fill="#d33922"/></svg>