<svg xmlns="http://www.w3.org/2000/svg" viewBox="0 0 32 32"><title>file_type_manifest_bak</title><path d="M20.736,21.466l.587-.583c2.715.089,2.756-.007,2.876-.286l.746-1.816L25,18.61l-.061-.151c-.032-.08-.13-.317-1.825-1.933v-.85c1.956-1.884,1.914-1.981,1.8-2.256l-.743-1.835c-.111-.275-.154-.383-2.849-.309l-.587-.606a13.147,13.147,0,0,0-.092-2.677l-.076-.171-1.939-.848c-.286-.13-.386-.177-2.217,1.816l-.823-.012C13.708,6.766,13.618,6.8,13.336,6.916l-1.8.729c-.282.114-.382.155-.273,2.893l-.582.58c-2.713-.089-2.755.008-2.873.286L7.059,13.22,7,13.394l.061.151c.032.078.126.313,1.825,1.931v.848c-1.956,1.884-1.913,1.981-1.8,2.257l.742,1.837c.113.281.154.381,2.848.31l.587.61a13.2,13.2,0,0,0,.089,2.673l.076.173,1.951.853c.284.119.382.161,2.207-1.825l.823.01c1.887,2.014,1.984,1.975,2.26,1.864l1.8-.727C20.751,24.245,20.85,24.205,20.736,21.466Zm-7.731-4.253a3.232,3.232,0,1,1,4.23,1.841A3.269,3.269,0,0,1,13.006,17.212Z" style="fill:#40535b"/><path d="M20.75,2H4.35V30h23.3V9Zm4.6,25.7H6.75V4.3h11.7v7h7V27.7Z" style="fill:#c5c5c5"/><path d="M16.057,4.857a10.742,10.742,0,0,1,7.893,3.25A10.742,10.742,0,0,1,27.2,16a10.742,10.742,0,0,1-3.25,7.893,10.742,10.742,0,0,1-7.893,3.25,10.7,10.7,0,0,1-6.789-2.321l1.74-1.74a8.834,8.834,0,0,0,5.049,1.568,8.337,8.337,0,0,0,6.123-2.526A8.337,8.337,0,0,0,24.706,16,8.337,8.337,0,0,0,22.18,9.877a8.343,8.343,0,0,0-6.123-2.526A8.337,8.337,0,0,0,9.934,9.877,8.347,8.347,0,0,0,7.408,16h3.714l-4.99,4.935L1.2,16H4.914a10.742,10.742,0,0,1,3.25-7.893,10.757,10.757,0,0,1,7.893-3.25Z" style="fill:#99b8c4"/><path d="M18.554,16a2.464,2.464,0,0,1-4.237,1.74A2.462,2.462,0,1,1,17.8,14.26,2.385,2.385,0,0,1,18.554,16Z" style="fill:#99b8c4"/></svg>