<svg xmlns="http://www.w3.org/2000/svg" xmlns:xlink="http://www.w3.org/1999/xlink" viewBox="0 0 32 32"><defs><linearGradient id="a" x1="-232.831" y1="265.938" x2="-232.767" y2="265.938" gradientTransform="matrix(-46.309, 168.23, 168.23, 46.309, -55491.824, 26870.755)" gradientUnits="userSpaceOnUse"><stop offset="0" stop-color="#58d09e"/><stop offset="1"/></linearGradient><linearGradient id="b" x1="-233.052" y1="267.716" x2="-232.988" y2="267.716" gradientTransform="matrix(137.06, 108.005, 108.005, -137.06, 3039.042, 61885.829)" gradientUnits="userSpaceOnUse"><stop offset="0" stop-color="#58d09e"/><stop offset="1" stop-color="#d2d2d2"/></linearGradient></defs><title>file_type_cypress_spec</title><path d="M6.152,28.65a5.144,5.144,0,0,1-4.046-6.087c.339-1.429.269-1.346,7.644-9.06L16.7,6.234l1.97,1.878-8.01,8.362,6.7-.144,4.734-4.938,1.962,1.888L17.1,20.529c-6.385,6.65-7.017,7.278-7.666,7.6a5.2,5.2,0,0,1-3.274.525l0,0ZM25.726,11.984c-.183-.11-2.063-1.864-4.178-3.9L17.7,4.385l-.012-.562a1.153,1.153,0,0,1,.259-.9,1.325,1.325,0,0,1,1.387-.495,91.845,91.845,0,0,1,8.38,8.041,1.34,1.34,0,0,1-1.992,1.513l0,0Z" style="fill:#58d09e"/><path d="M4.085,23.185c-.353,2.28.96,3.828,3.443,3.49.255-.268,3.214-3.357,9.861-10.328-3.344.072-3.3-.074-6.649,0-6.689,6.934-6.822,6.884-6.655,6.838Z" style="fill:#58d09e"/><path d="M19.6,9.539A10.04,10.04,0,1,1,9.933,19.93,10.048,10.048,0,0,1,19.6,9.539Z"/><path d="M25.345,16.388l-1.89,4.743-1.9-4.743H20l2.668,6.474-1.9,4.566,1.361.268,4.689-11.308H25.345Z" style="fill:#d2d2d2"/><path d="M17.039,17.588A1.874,1.874,0,0,1,18.8,18.734l.026.057,1.327-.447-.029-.067a3.265,3.265,0,0,0-3.087-2.011,3.315,3.315,0,0,0-2.429.949,3.338,3.338,0,0,0,0,4.732,3.319,3.319,0,0,0,2.429.949,3.265,3.265,0,0,0,3.087-2.01l.029-.068-1.329-.448-.025.06a1.839,1.839,0,0,1-1.762,1.143,1.866,1.866,0,0,1-1.383-.566,1.958,1.958,0,0,1-.561-1.42,1.99,1.99,0,0,1,.561-1.432,1.859,1.859,0,0,1,1.383-.569Z" style="fill:#d2d2d2"/><path d="M24.447,26.6a8.331,8.331,0,0,0,2.946-10.913l1.206-.624a9.675,9.675,0,0,1-3.42,12.676L24.447,26.6Z" style="fill:url(#a)"/><path d="M10.571,22.128a9.61,9.61,0,0,1-.347-2.564,9.743,9.743,0,0,1,6.254-9.029l.491,1.259a8.385,8.385,0,0,0-5.383,7.77,8.292,8.292,0,0,0,.3,2.206l-1.312.358Z" style="fill:#58d09e"/><path d="M16.412,10.566a9.806,9.806,0,0,1,12.242,4.615l-1.211.616a8.447,8.447,0,0,0-10.535-3.974Z" style="fill:#58d09e"/><path d="M21.031,26.789l-.331.8a.441.441,0,0,1-.386.271c-.111,0-.224.007-.338.007a8.453,8.453,0,0,1-8.21-6.49l-1.329.3a9.7,9.7,0,0,0,3.393,5.391,9.865,9.865,0,0,0,6.13,2.152h.02c.131,0,.26,0,.39-.008A1.805,1.805,0,0,0,21.959,28.1l.434-1.04-1.362-.268Z" style="fill:url(#b)"/></svg>