<svg viewBox="0 0 32 32" xmlns="http://www.w3.org/2000/svg"><path d="m3.979 20.059 7.273-13.859 7.155-3.835 2.128 1.074-7.112 4.018 7.348 22.088-2.364-1.375-5.5-12.677-7.22 5.479z" fill="#fff"/><ellipse cx="25.24" cy="13.967" fill="#fff" rx="2.686" ry="2.503"/><path d="m27.2 12.85a2.432 2.432 0 0 0 -4.157.3 2.188 2.188 0 0 0 .419 2.449 3.544 3.544 0 0 0 3.738-2.749zm-7.224-9.45-1.547-.849-6.736 3.749.537.29 1.021.537 1.849-1.027 4.877-2.718zm.623-.258a.24.24 0 0 1 .172.161l2.256 6.657a.223.223 0 0 1 -.107.29 4.362 4.362 0 0 0 -2.106 4.985 4.608 4.608 0 0 0 4.92 3.244.285.285 0 0 1 .28.172l2.331 6.833a.277.277 0 0 1 -.108.3l-7.165 4.189a.268.268 0 0 1 -.108.022.286.286 0 0 1 -.193-.032l-2.514-1.58a.251.251 0 0 1 -.107-.107l-4.91-11.29-7.477 4.254a.345.345 0 0 1 -.29.011l-1.7-.967a.247.247 0 0 1 -.107-.322l7.264-13.784a.26.26 0 0 1 .118-.107l7.241-4.039a.274.274 0 0 1 .258 0zm-8.981 3.702-.355-.182-7 13.332 1.278.72 6.038-7.9a.294.294 0 0 1 .247-.108.3.3 0 0 1 .215.161l6.575 15.148 1.757 1.085-7.058-20.633-.3-.86-1.407-.773zm10.829 7.95a2.727 2.727 0 0 1 1.343-3.115 2.965 2.965 0 0 1 3.481.43 2.719 2.719 0 0 1 .078 3.843l-.078.078a2.932 2.932 0 0 1 -4.824-1.236z"/></svg>