<svg width="32" height="32" viewBox="0 0 32 32" fill="none" xmlns="http://www.w3.org/2000/svg">
<path d="M2 10.9443C2 7.81347 2 6.24809 2.61036 5.05229C3.14725 4.00043 4.00395 3.14524 5.05766 2.60929C6.25556 2 7.82372 2 10.96 2H21.04C24.1763 2 25.7445 2 26.9424 2.60929C27.9961 3.14524 28.8528 4.00043 29.3897 5.05229C30.0001 6.24809 30 7.81347 30 10.9443V21.0066C30 24.1374 30.0001 25.7028 29.3897 26.8986C28.8528 27.9504 27.9961 28.8056 26.9424 29.3416C25.7445 29.9509 24.1763 29.9509 21.04 29.9509H10.96C7.82372 29.9509 6.25556 29.9509 5.05766 29.3416C4.00395 28.8056 3.14725 27.9504 2.61036 26.8986C2 25.7028 2 24.1374 2 21.0066V10.9443Z" fill="#4F51E5"/>
<path d="M16.56 16.9219C16.56 16.7079 16.7337 16.5345 16.948 16.5345H21.6C24.3835 16.5345 26.64 18.787 26.64 21.5656C26.64 24.3443 24.3835 26.5968 21.6 26.5968C18.8165 26.5968 16.56 24.3443 16.56 21.5656V16.9219Z" fill="white"/>
<path d="M16.56 15.029C16.56 15.243 16.7337 15.4164 16.948 15.4164H21.6C24.3835 15.4164 26.64 13.1639 26.64 10.3853C26.64 7.60663 24.3835 5.3541 21.6 5.3541C18.8165 5.3541 16.56 7.60663 16.56 10.3853V15.029Z" fill="white"/>
<path d="M15.44 16.9219C15.44 16.7079 15.2663 16.5345 15.0519 16.5345H10.4C7.61649 16.5345 5.36002 18.787 5.36002 21.5656C5.36002 24.3443 7.61649 26.5968 10.4 26.5968C13.1835 26.5968 15.44 24.3443 15.44 21.5656V16.9219Z" fill="white"/>
<path d="M15.44 15.029C15.44 15.243 15.2663 15.4164 15.0519 15.4164H10.4C7.61649 15.4164 5.36002 13.1639 5.36002 10.3853C5.36002 7.60663 7.61649 5.3541 10.4 5.3541C13.1835 5.3541 15.44 7.60663 15.44 10.3853V15.029Z" fill="white"/>
</svg>
