<svg width="36" height="36" version="1.1" viewBox="0 0 36 36" xmlns="http://www.w3.org/2000/svg" xmlns:xlink="http://www.w3.org/1999/xlink"><defs><path id="b" d="m29.2 2.1846s-21.064 10.567-22.462 11.231c-4.4923 2.2462-6.7385 4.4923-6.7385 10.108v26.954c0 5.6154 2.2462 7.8728 6.7385 10.119 5.9972 2.9959 22.462 11.22 22.462 11.22 4.4923 2.2462 8.9846 2.2462 13.477 0 4.497-2.2449 20.215-10.108 22.462-11.231 4.4923-2.2462 6.7385-4.4923 6.7385-10.108v-26.954c0-5.6694-2.2418-7.8731-6.7385-10.108 0 0-17.969-8.9846-22.462-11.231-4.4923-2.2462-8.9846-2.2462-13.477 0z"/></defs><g transform="matrix(.43836 0 0 .43836 2.246 1.7808)" fill-rule="evenodd"><mask id="a" fill="#ffffff"><use xlink:href="#b"/></mask><use fill="#ffffff" opacity="0" xlink:href="#b"/><path d="m30 6s-18.755 9.4089-20 10c-4 2-6 4-6 9v24c0 5 2 7.01 6 9.01 5.34 2.6675 20 9.99 20 9.99 4 2 8 2 12 0 4.0042-1.9989 18-9 20-10 4-2 6-4 6-9v-24c0-5.0481-1.9961-7.0103-6-9l-20-10c-4-2-8-2-12 0z" fill="#9013fe" mask="url(#a)"/><path d="m36 0.99634c0 2.0316-0.36319 2.9399-1.6644 4.8929-1.6988 2.5497-2.3356 4.1423-2.3356 7.1108 0 2.9686 0.63694 4.561 2.3359 7.1094 1.301 1.9516 1.6641 2.8592 1.6641 4.8906s-0.36306 2.939-1.6641 4.8906c-1.699 2.5484-2.3359 4.1408-2.3359 7.1094s0.63694 4.561 2.3359 7.1094c1.301 1.9516 1.6641 2.8592 1.6641 4.8906 0 2.0316-0.3632 2.9399-1.6644 4.8931-1.6988 2.5498-2.3356 4.1424-2.3356 7.1109 0 2.9688 0.63708 4.5609 2.3362 7.1079 1.3008 1.95 1.6638 2.8569 1.6638 4.8881h4c0-2.9688-0.63708-4.5609-2.3362-7.1079-1.3008-1.95-1.6638-2.8569-1.6638-4.8881 0-2.0316 0.3632-2.9399 1.6644-4.8931 1.6988-2.5498 2.3356-4.1424 2.3356-7.1109 0-2.9686-0.63694-4.561-2.3359-7.1094-1.301-1.9516-1.6641-2.8592-1.6641-4.8906s0.36306-2.939 1.6641-4.8906c1.699-2.5484 2.3359-4.1408 2.3359-7.1094s-0.63694-4.561-2.3359-7.1094c-1.301-1.9516-1.6641-2.8592-1.6641-4.8906 0-2.0316 0.36319-2.9399 1.6644-4.8929 1.6988-2.5497 2.3356-4.1423 2.3356-7.1108zm8 0c0 2.0316-0.36319 2.9399-1.6644 4.8929-1.6988 2.5497-2.3356 4.1423-2.3356 7.1108 0 2.9686 0.63694 4.561 2.3359 7.1094 1.301 1.9516 1.6641 2.8592 1.6641 4.8906s-0.36306 2.939-1.6641 4.8906c-1.699 2.5484-2.3359 4.1408-2.3359 7.1094s0.63694 4.561 2.3359 7.1094c1.301 1.9516 1.6641 2.8592 1.6641 4.8906 0 2.0316-0.3632 2.9399-1.6644 4.8931-1.6988 2.5498-2.3356 4.1424-2.3356 7.1109 0 2.9688 0.63708 4.5609 2.3362 7.1079 1.3008 1.95 1.6638 2.8569 1.6638 4.8881h4c0-2.9688-0.63708-4.5609-2.3362-7.1079-1.3008-1.95-1.6638-2.8569-1.6638-4.8881 0-2.0316 0.3632-2.9399 1.6644-4.8931 1.6988-2.5498 2.3356-4.1424 2.3356-7.1109 0-2.9686-0.63694-4.561-2.3359-7.1094-1.301-1.9516-1.6641-2.8592-1.6641-4.8906s0.36306-2.939 1.6641-4.8906c1.699-2.5484 2.3359-4.1408 2.3359-7.1094s-0.63694-4.561-2.3359-7.1094c-1.301-1.9516-1.6641-2.8592-1.6641-4.8906 0-2.0316 0.36319-2.9399 1.6644-4.8929 1.6988-2.5497 2.3356-4.1423 2.3356-7.1108zm8 0c0 2.0316-0.36319 2.9399-1.6644 4.8929-1.6988 2.5497-2.3356 4.1423-2.3356 7.1108 0 2.9686 0.63694 4.561 2.3359 7.1094 1.301 1.9516 1.6641 2.8592 1.6641 4.8906s-0.36306 2.939-1.6641 4.8906c-1.699 2.5484-2.3359 4.1408-2.3359 7.1094s0.63694 4.561 2.3359 7.1094c1.301 1.9516 1.6641 2.8592 1.6641 4.8906 0 2.0316-0.3632 2.9399-1.6644 4.8931-1.6988 2.5498-2.3356 4.1424-2.3356 7.1109 0 2.9688 0.63708 4.5609 2.3362 7.1079 1.3008 1.95 1.6638 2.8569 1.6638 4.8881h4c0-2.9688-0.63708-4.5609-2.3362-7.1079-1.3008-1.95-1.6638-2.8569-1.6638-4.8881 0-2.0316 0.3632-2.9399 1.6644-4.8931 1.6988-2.5498 2.3356-4.1424 2.3356-7.1109 0-2.9686-0.63694-4.561-2.3359-7.1094-1.301-1.9516-1.6641-2.8592-1.6641-4.8906s0.36306-2.939 1.6641-4.8906c1.699-2.5484 2.3359-4.1408 2.3359-7.1094s-0.63694-4.561-2.3359-7.1094c-1.301-1.9516-1.6641-2.8592-1.6641-4.8906 0-2.0316 0.36319-2.9399 1.6644-4.8929 1.6988-2.5497 2.3356-4.1423 2.3356-7.1108zm8 0c0 2.0316-0.36319 2.9399-1.6644 4.8929-1.6988 2.5497-2.3356 4.1423-2.3356 7.1108 0 2.9686 0.63694 4.561 2.3359 7.1094 1.301 1.9516 1.6641 2.8592 1.6641 4.8906s-0.36306 2.939-1.6641 4.8906c-1.699 2.5484-2.3359 4.1408-2.3359 7.1094s0.63694 4.561 2.3359 7.1094c1.301 1.9516 1.6641 2.8592 1.6641 4.8906 0 2.0316-0.3632 2.9399-1.6644 4.8931-1.6988 2.5498-2.3356 4.1424-2.3356 7.1109 0 2.9688 0.63708 4.5609 2.3362 7.1079 1.3008 1.95 1.6638 2.8569 1.6638 4.8881h4c0-2.9688-0.63708-4.5609-2.3362-7.1079-1.3008-1.95-1.6638-2.8569-1.6638-4.8881 0-2.0316 0.3632-2.9399 1.6644-4.8931 1.6988-2.5498 2.3356-4.1424 2.3356-7.1109 0-2.9686-0.63694-4.561-2.3359-7.1094-1.301-1.9516-1.6641-2.8592-1.6641-4.8906s0.36306-2.939 1.6641-4.8906c1.699-2.5484 2.3359-4.1408 2.3359-7.1094s-0.63694-4.561-2.3359-7.1094c-1.301-1.9516-1.6641-2.8592-1.6641-4.8906 0-2.0316 0.36319-2.9399 1.6644-4.8929 1.6988-2.5497 2.3356-4.1423 2.3356-7.1108zm8 0c0 2.0316-0.36319 2.9399-1.6644 4.8929-1.6988 2.5497-2.3356 4.1423-2.3356 7.1108 0 2.9686 0.63694 4.561 2.3359 7.1094 1.301 1.9516 1.6641 2.8592 1.6641 4.8906s-0.36306 2.939-1.6641 4.8906c-1.699 2.5484-2.3359 4.1408-2.3359 7.1094s0.63694 4.561 2.3359 7.1094c1.301 1.9516 1.6641 2.8592 1.6641 4.8906 0 2.0316-0.3632 2.9399-1.6644 4.8931-1.6988 2.5498-2.3356 4.1424-2.3356 7.1109 0 2.9688 0.63708 4.5609 2.3362 7.1079 1.3008 1.95 1.6638 2.8569 1.6638 4.8881h4c0-2.9688-0.63708-4.5609-2.3362-7.1079-1.3008-1.95-1.6638-2.8569-1.6638-4.8881 0-2.0316 0.3632-2.9399 1.6644-4.8931 1.6988-2.5498 2.3356-4.1424 2.3356-7.1109 0-2.9686-0.63694-4.561-2.3359-7.1094-1.301-1.9516-1.6641-2.8592-1.6641-4.8906s0.36306-2.939 1.6641-4.8906c1.699-2.5484 2.3359-4.1408 2.3359-7.1094s-0.63694-4.561-2.3359-7.1094c-1.301-1.9516-1.6641-2.8592-1.6641-4.8906 0-2.0316 0.36319-2.9399 1.6644-4.8929 1.6988-2.5497 2.3356-4.1423 2.3356-7.1108zm-40 0c0 2.0316-0.36319 2.9399-1.6644 4.8929-1.6988 2.5497-2.3356 4.1423-2.3356 7.1108 0 2.9686 0.63694 4.561 2.3359 7.1094 1.301 1.9516 1.6641 2.8592 1.6641 4.8906s-0.36306 2.939-1.6641 4.8906c-1.699 2.5484-2.3359 4.1408-2.3359 7.1094s0.63694 4.561 2.3359 7.1094c1.301 1.9516 1.6641 2.8592 1.6641 4.8906 0 2.0316-0.3632 2.9399-1.6644 4.8931-1.6988 2.5498-2.3356 4.1424-2.3356 7.1109 0 2.9688 0.63708 4.5609 2.3362 7.1079 1.3008 1.95 1.6638 2.8569 1.6638 4.8881h4c0-2.9688-0.63708-4.5609-2.3362-7.1079-1.3008-1.95-1.6638-2.8569-1.6638-4.8881 0-2.0316 0.3632-2.9399 1.6644-4.8931 1.6988-2.5498 2.3356-4.1424 2.3356-7.1109 0-2.9686-0.63694-4.561-2.3359-7.1094-1.301-1.9516-1.6641-2.8592-1.6641-4.8906s0.36306-2.939 1.6641-4.8906c1.699-2.5484 2.3359-4.1408 2.3359-7.1094s-0.63694-4.561-2.3359-7.1094c-1.301-1.9516-1.6641-2.8592-1.6641-4.8906 0-2.0316 0.36319-2.9399 1.6644-4.8929 1.6988-2.5497 2.3356-4.1423 2.3356-7.1108zm-8 0c0 2.0316-0.36319 2.9399-1.6644 4.8929-1.6988 2.5497-2.3356 4.1423-2.3356 7.1108 0 2.9686 0.63694 4.561 2.3359 7.1094 1.301 1.9516 1.6641 2.8592 1.6641 4.8906s-0.36306 2.939-1.6641 4.8906c-1.699 2.5484-2.3359 4.1408-2.3359 7.1094s0.63694 4.561 2.3359 7.1094c1.301 1.9516 1.6641 2.8592 1.6641 4.8906 0 2.0316-0.3632 2.9399-1.6644 4.8931-1.6988 2.5498-2.3356 4.1424-2.3356 7.1109 0 2.9688 0.63708 4.5609 2.3362 7.1079 1.3008 1.95 1.6638 2.8569 1.6638 4.8881h4c0-2.9688-0.63708-4.5609-2.3362-7.1079-1.3008-1.95-1.6638-2.8569-1.6638-4.8881 0-2.0316 0.3632-2.9399 1.6644-4.8931 1.6988-2.5498 2.3356-4.1424 2.3356-7.1109 0-2.9686-0.63694-4.561-2.3359-7.1094-1.301-1.9516-1.6641-2.8592-1.6641-4.8906s0.36306-2.939 1.6641-4.8906c1.699-2.5484 2.3359-4.1408 2.3359-7.1094s-0.63694-4.561-2.3359-7.1094c-1.301-1.9516-1.6641-2.8592-1.6641-4.8906 0-2.0316 0.36319-2.9399 1.6644-4.8929 1.6988-2.5497 2.3356-4.1423 2.3356-7.1108zm-8 0c0 2.0316-0.36319 2.9399-1.6644 4.8929-1.6988 2.5497-2.3356 4.1423-2.3356 7.1108 0 2.9686 0.63694 4.561 2.3359 7.1094 1.301 1.9516 1.6641 2.8592 1.6641 4.8906s-0.36306 2.939-1.6641 4.8906c-1.699 2.5484-2.3359 4.1408-2.3359 7.1094s0.63694 4.561 2.3359 7.1094c1.301 1.9516 1.6641 2.8592 1.6641 4.8906 0 2.0316-0.3632 2.9399-1.6644 4.8931-1.6988 2.5498-2.3356 4.1424-2.3356 7.1109 0 2.9688 0.63708 4.5609 2.3362 7.1079 1.3008 1.95 1.6638 2.8569 1.6638 4.8881h4c0-2.9688-0.63708-4.5609-2.3362-7.1079-1.3008-1.95-1.6638-2.8569-1.6638-4.8881 0-2.0316 0.3632-2.9399 1.6644-4.8931 1.6988-2.5498 2.3356-4.1424 2.3356-7.1109 0-2.9686-0.63694-4.561-2.3359-7.1094-1.301-1.9516-1.6641-2.8592-1.6641-4.8906s0.36306-2.939 1.6641-4.8906c1.699-2.5484 2.3359-4.1408 2.3359-7.1094s-0.63694-4.561-2.3359-7.1094c-1.301-1.9516-1.6641-2.8592-1.6641-4.8906 0-2.0316 0.36319-2.9399 1.6644-4.8929 1.6988-2.5497 2.3356-4.1423 2.3356-7.1108zm-8 0c0 2.0316-0.36319 2.9399-1.6644 4.8929-1.6988 2.5497-2.3356 4.1423-2.3356 7.1108 0 2.9686 0.63694 4.561 2.3359 7.1094 1.301 1.9516 1.6641 2.8592 1.6641 4.8906s-0.36306 2.939-1.6641 4.8906c-1.699 2.5484-2.3359 4.1408-2.3359 7.1094s0.63694 4.561 2.3359 7.1094c1.301 1.9516 1.6641 2.8592 1.6641 4.8906 0 2.0316-0.3632 2.9399-1.6644 4.8931-1.6988 2.5498-2.3356 4.1424-2.3356 7.1109 0 2.9688 0.63708 4.5609 2.3362 7.1079 1.3008 1.95 1.6638 2.8569 1.6638 4.8881h4c0-2.9688-0.63708-4.5609-2.3362-7.1079-1.3008-1.95-1.6638-2.8569-1.6638-4.8881 0-2.0316 0.3632-2.9399 1.6644-4.8931 1.6988-2.5498 2.3356-4.1424 2.3356-7.1109 0-2.9686-0.63694-4.561-2.3359-7.1094-1.301-1.9516-1.6641-2.8592-1.6641-4.8906s0.36306-2.939 1.6641-4.8906c1.699-2.5484 2.3359-4.1408 2.3359-7.1094s-0.63694-4.561-2.3359-7.1094c-1.301-1.9516-1.6641-2.8592-1.6641-4.8906 0-2.0316 0.36319-2.9399 1.6644-4.8929 1.6988-2.5497 2.3356-4.1423 2.3356-7.1108z" fill="#cf1bf4" fill-rule="nonzero" mask="url(#a)"/><path d="m36 47c-10 0-14-10-14-10s4-10 14-10 14 10 14 10-4 10-14 10zm0-3c3.866 0 7-3.134 7-7s-3.134-7-7-7-7 3.134-7 7 3.134 7 7 7zm0-3c-2.2091 0-4-1.7909-4-4s1.7909-4 4-4 4 1.7909 4 4-1.7909 4-4 4z" fill="#fff" mask="url(#a)"/></g></svg>
