<svg clip-rule="evenodd" fill-rule="evenodd" stroke-linejoin="round" stroke-miterlimit="2" version="1.1" viewBox="0 0 32 32" xml:space="preserve" xmlns="http://www.w3.org/2000/svg"><title>file_type_mvtjs</title><rect width="32" height="32" fill="none"/><rect x="3" y="2" width="22" height="22" fill="#f7394a"/><path d="m19.285 10.257-3.833 5.34c-0.176 0.247-0.393 0.437-0.65 0.568-0.256 0.132-0.533 0.198-0.828 0.198-0.296-0-0.572-0.068-0.829-0.203s-0.474-0.323-0.65-0.563l-3.854-5.34v8.37h-1.974v-11.254h0.918c0.479 0 0.937 0.113 1.373 0.338s0.799 0.537 1.088 0.935l3.959 5.52 3.928-5.509c0.282-0.405 0.643-0.721 1.083-0.946s0.902-0.338 1.388-0.338h0.929v11.254h-2.048v-8.37z" fill="#fff" fill-rule="nonzero"/><g fill-rule="nonzero"><rect x="16" y="15.788" width="14" height="14" fill="#f7df1e"/><path d="m17.617 25.205 1.249-0.756c0.242 0.428 0.461 0.789 0.987 0.789 0.505 0 0.823-0.197 0.823-0.964v-5.219h1.534v5.24c0 1.59-0.931 2.314-2.291 2.314-1.228-0-1.941-0.636-2.302-1.404m5.427-0.164 1.25-0.724c0.329 0.538 0.757 0.932 1.513 0.932 0.636 0 1.042-0.318 1.042-0.756-0-0.526-0.417-0.713-1.119-1.02l-0.383-0.164c-1.108-0.472-1.842-1.064-1.842-2.314-0-1.151 0.877-2.028 2.247-2.028 0.976-0 1.678 0.34 2.182 1.228l-1.195 0.767c-0.263-0.471-0.548-0.657-0.987-0.657-0.449-0-0.734 0.285-0.734 0.657-0 0.461 0.285 0.647 0.942 0.932l0.384 0.165c1.305 0.559 2.039 1.129 2.039 2.412 0 1.381-1.085 2.138-2.543 2.138-1.425-0-2.346-0.68-2.796-1.568"/></g></svg>