<svg fill="none" xmlns="http://www.w3.org/2000/svg" viewBox="0 0 32 32"><path fill-rule="evenodd" clip-rule="evenodd" d="M2.028 7.786A1.025 1.025 0 0 1 3.04 7c.084-.001.17.008.255.028l10.725 2.567a7.347 7.347 0 0 0 3.962 0l10.725-2.567c.085-.02.17-.03.255-.028a1.024 1.024 0 0 1 .252 2.019l-10.738 2.562a1.861 1.861 0 0 0-1.451 1.814v1.31c0 .618.18 1.224.516 1.744l4.081 6.305c.48.742 1.535.835 2.138.187l4.466-4.8a1.023 1.023 0 1 1 1.5 1.394l-4.465 4.8c-1.512 1.624-4.153 1.394-5.359-.469l-3.712-5.735a.225.225 0 0 0-.378 0l-3.712 5.735c-1.206 1.863-3.847 2.093-5.359.469l-4.466-4.8a1.023 1.023 0 1 1 1.5-1.393l4.467 4.799a1.362 1.362 0 0 0 2.138-.186l4.081-6.306a3.21 3.21 0 0 0 .516-1.744v-1.31a1.862 1.862 0 0 0-1.451-1.814L2.787 9.02a1.023 1.023 0 0 1-.759-1.233Z" fill="#FAC864"/></svg>