<svg xmlns="http://www.w3.org/2000/svg" viewBox="0 0 32 32"><title>file_type_bundlemon</title><path fill="#ea9d2d" d="m3.037 21.185 10.889 6.222V14.963L3.036 8.741z"/><path fill="#fbb540" d="M13.926 2.519 3.037 8.74l10.889 6.222v12.444l10.888-6.222V8.741z"/><path fill="#f7ba61" d="m13.926 27.407 4.666-2.592 6.223-3.63V8.74l-10.888 6.222z"/><path fill="#03cc00" d="M23.777 19.111a5.185 5.185 0 1 0 0 10.37 5.185 5.185 0 0 0 0-10.37z"/><path fill="#d9d9d9" d="m10.815 18.593-3.63-2.074V11.11l3.63 2.074z"/><path fill="#f0f0f0" d="m17.569 4.6-3.126 2.067 3.63 2.074 3.118-2.07zm-5.718 3.623L7.185 11.11l3.63 2.074 4.666-2.889z"/><path d="m21.446 13.402-4.666 2.667a.519.519 0 1 0 .516.9l4.666-2.667a.519.519 0 0 0-.516-.9m3.887-4.66a.501.501 0 0 0-.019-.136.42.42 0 0 0-.02-.052.496.496 0 0 0-.03-.073c-.012-.017-.027-.033-.04-.052a.534.534 0 0 0-.043-.056.497.497 0 0 0-.052-.039.542.542 0 0 0-.056-.043L14.185 2.069a.519.519 0 0 0-.514 0L2.783 8.29a.588.588 0 0 0-.056.043.501.501 0 0 0-.052.039.539.539 0 0 0-.044.056c-.012.018-.027.033-.038.052a.473.473 0 0 0-.03.073.496.496 0 0 0-.021.052.511.511 0 0 0-.022.135v12.444a.518.518 0 0 0 .259.45l10.885 6.22.006.003a.52.52 0 0 0 .077.032c.016.006.03.014.047.018a.509.509 0 0 0 .264 0c.015-.003.028-.011.043-.016a.489.489 0 0 0 .079-.031l4.054-2.253a5.7 5.7 0 0 0 11.095-2.619 5.7 5.7 0 0 0-3.994-4.175zm-13.46.088 2.622 1.499-3.522 2.348-2.623-1.499zm-3.305 3.89 1.728.989V17.7l-2.593-1.483v-3.99zm9.485-4.588-2.62-1.497 2.156-1.425 2.615 1.494zM16.58 4.634l-2.422 1.601a.518.518 0 0 0-.145.72.52.52 0 0 0 .173.162l3.63 2.074a.518.518 0 0 0 .544-.018l2.852-1.893 2.558 1.46-9.843 5.625-1.946-1.114 3.789-2.526a.519.519 0 0 0-.03-.881L12.11 7.77a.519.519 0 0 0-.545.018l-4.22 2.813-3.262-1.86 9.844-5.626zm-9.914 6.779v5.106a.52.52 0 0 0 .26.45l3.629 2.074a.518.518 0 0 0 .778-.45v-4.514l2.074 1.185v11.252l-9.852-5.631V9.635zm7.778 3.851 9.852-5.63v8.985a5.806 5.806 0 0 0-.519-.026 5.71 5.71 0 0 0-5.704 5.703c0 .07.008.138.011.207l-3.64 2.023zm4.666 9.032a4.667 4.667 0 0 1 9.334 0 4.672 4.672 0 0 1-4.667 4.667 4.667 4.667 0 0 1-4.667-4.667m4.734-.196a49.88 49.88 0 0 1-.749 1.553c-.01 0-.312-.467-.677-1.038-.459-.72-.686-1.052-.752-1.092-.127-.072-.399-.072-.52.003-.063.04-.203.243-.434.624l-.34.567h-1.613v.952l1.036-.01c.954-.009 1.045-.012 1.132-.069.06-.037.172-.187.293-.39.112-.18.21-.318.219-.302l.689 1.08c.471.735.699 1.07.767 1.113a.59.59 0 0 0 .53-.006c.122-.075.025.115 1.18-2.315l.823-1.743.078.137c.044.072.334.611.646 1.194.642 1.198.62 1.158.739 1.236.081.053.168.059 1.095.059h1.005v-.936h-.77l-.775-.003-.755-1.41c-.941-1.752-.926-1.724-1.038-1.784-.134-.069-.4-.06-.524.019-.116.075-.1.044-1.285 2.56z"/></svg>