<svg viewBox="0 0 32 32" xmlns="http://www.w3.org/2000/svg"><g fill-rule="evenodd"><path d="m29.935 26.485c-.482-.408-.958-.823-1.436-1.235-.828-.714-1.655-1.429-2.487-2.138-.122-.1-.115-.179-.031-.305a12.772 12.772 0 0 0 2.15-8.749 12.755 12.755 0 0 0 -4.81-8.739 12.976 12.976 0 0 0 -8.253-2.906c-.143.007-.353.018-.564.026a12.467 12.467 0 0 0 -3.591.672 12.748 12.748 0 0 0 -6.167 4.41 12.755 12.755 0 0 0 -2.3 11.3 12.635 12.635 0 0 0 4.754 7.105 13.09 13.09 0 0 0 12.407 1.874 12.873 12.873 0 0 0 3.269-1.758c.091-.068.159-.126.279-.024.754.643 1.516 1.277 2.275 1.914l1.87 1.574c.083.07.151.14.261.007q1.186-1.424 2.389-2.834c.07-.079.068-.124-.015-.194zm-14.819-2.935a8.045 8.045 0 1 1 8.055-8.042 8.05 8.05 0 0 1 -8.055 8.042z" fill="#6eb43f"/><path d="m15.106 20.671a5.161 5.161 0 1 1 5.172-5.171 5.167 5.167 0 0 1 -5.172 5.171z" fill="#5f6062"/></g></svg>