<svg xmlns="http://www.w3.org/2000/svg" viewBox="0 0 32 32"><path fill="#ff671d" d="M27.44 11.08c-1.23-2.12-2.8-4-4.6-5.5l-.03-.02c-.36-.3-.73-.58-1.1-.84A13.86 13.86 0 0 0 13.75 2c-3.42 0-6.51 1.82-8.72 5.14A17.97 17.97 0 0 0 3.4 23.38c1.58 3.8 5.7 6.26 11.02 6.58a19.1 19.1 0 0 0 8.27-1.32c2.74-1.14 4.85-2.87 6.07-5.02 1.83-3.2 1.33-8-1.3-12.55zm-12.42.7A4.38 4.38 0 0 1 18 19.42l-.1.09a4.4 4.4 0 0 1-5.22.39 6.1 6.1 0 0 1-1.28-1.24c-.26-.38-.46-.8-.58-1.22l-.03-.08v-.01a4.54 4.54 0 0 1 1.27-4.4l.1-.08a4.37 4.37 0 0 1 2.86-1.07zm-1.27-8.17c2.36 0 4.79.84 7.03 2.42.34.25.68.5 1 .78l.54.49c4.14 3.84 5.43 7.58 5.1 11.46-.2 2.55-1.83 4.58-4.15 6.15-2.22 1.5-5.6 1.93-8.02 1.67-2.38-.25-4.84-1.21-6.43-3.37a8.08 8.08 0 0 1-1.53-5.74c.18-2.05 1-3.96 2.33-5.29a6.31 6.31 0 0 1 4.05-1.85 5.97 5.97 0 0 0-4.57 6.78 5.62 5.62 0 0 0 1.44 3.06c.4.44.84.8 1.31 1.1 2.32 1.57 5.22 1.45 8.05-.43a6.83 6.83 0 0 0 2.85-4.86 8.92 8.92 0 0 0-2.2-7.04 9.98 9.98 0 0 0-7.17-3.49 8.79 8.79 0 0 0-6.63 2.82c-.57.59-1.08 1.22-1.55 1.9.34-.75.73-1.47 1.18-2.14 1.9-2.85 4.51-4.42 7.37-4.42z"/></svg>
