<svg xmlns="http://www.w3.org/2000/svg" viewBox="0 0 32 32"><title>file_type_gradle@2x</title><g id="gradle"><path d="M29.16,7.08a4.62,4.62,0,0,0-4-2.39c-1.54,0-2.8.84-2.56,1.41a9.09,9.09,0,0,0,.52,1c.26.38.71.08.88,0a2.55,2.55,0,0,1,1.58-.27,2.35,2.35,0,0,1,1.78,1.38c1.17,2.29-2.43,7-6.92,3.73A11.61,11.61,0,0,0,9.56,10.46c-2,.66-2.89,1.32-2.11,2.84a31.6,31.6,0,0,0,1.74,3.15c1.63,2.73,5.22-1.26,5.22-1.26-2.67,4-5,3-5.84,1.64A21.64,21.64,0,0,1,7.16,14.1C.4,16.54,2.22,27.22,2.22,27.22H5.58c.85-4,3.92-3.8,4.44,0h2.56c2.26-7.73,8,0,8,0h3.34c-.93-5.28,1.88-6.94,3.65-10S31.07,10.4,29.16,7.08ZM18.76,17.42A1.69,1.69,0,0,1,17.7,15.2l1.1.36a.65.65,0,0,0-.11.48.77.77,0,0,0,.85.67.79.79,0,0,0,.7-.67l.86.29A1.91,1.91,0,0,1,18.76,17.42Z" style="fill:#136a7d"/></g></svg>