<svg xmlns="http://www.w3.org/2000/svg" viewBox="0 0 32 32"><title>file_type_taplo</title><circle cx="16" cy="16" r="14" fill="#e9e9e9"/><path d="M19.27 15.18v1.57h-2.43v7.32h-1.7v-7.32h-2.42v-1.57z"/><path fill="#8f1e1c" d="M15.68 8.47c-2.21 0-4.22.27-5.7.7v3.7c1.48.43 3.49.7 5.7.7 2.53 0 4.79-.35 6.3-.9v-3.3c-1.51-.55-3.78-.9-6.3-.9M9.3 10.4l-.11.01a.42.42 0 0 0-.19.1s-.95.7-.2 1.9c0 .07 1.4 1.83 1.74 1.95.23.08-.18-1.55-.7-2.72h-.02a.9.9 0 0 0 .07-.6c-.07-.37-.32-.63-.59-.64zm13.2.28c-.19.03-.36.22-.44.5a1.1 1.1 0 0 0 .03.64c-.51 1.06-.95 2.59-.76 2.56.3-.04 1.56-1.52 1.58-1.58a1.67 1.67 0 0 0-.06-1.95h-.01a.36.36 0 0 0-.16-.14.3.3 0 0 0-.18-.03z"/><path fill="#e43a25" d="M15.76 3.56a.26.26 0 0 0-.22.13l-.47.78-.22.03-.6-.68a.25.25 0 0 0-.43.1l-.31.85-.2.07-.73-.54a.25.25 0 0 0-.25-.03.27.27 0 0 0-.15.2l-.15.92-.2.1-.8-.38a.25.25 0 0 0-.25.02.27.27 0 0 0-.11.24l.03.92-.17.15-.86-.22a.25.25 0 0 0-.24.08.28.28 0 0 0-.07.25l.2.9-.14.17-.88-.03a.26.26 0 0 0-.22.12.28.28 0 0 0-.02.26l.36.84-.1.2-.87.15a.26.26 0 0 0-.2.16.28.28 0 0 0 .03.26l.5.74a.86.86 0 0 0-.08.04h-.02s-1.74.84-.75 2.55c0 .09 1.98 2.61 2.53 2.8.36.13-.34-2.15-.96-3.78l.06-.06c.27.1.72.28 1.32.46a2.8 2.8 0 0 0 1.75 2.23c-.11.8.5 1.65 1.46 1.98.47.16.95.17 1.36.06-.62-.61-1.04-1.37-1.04-1.37s.93.12 2.2.16c.1-.8-.5-1.64-1.46-1.97a2.13 2.13 0 0 0-2.03.29 1.56 1.56 0 0 1-1.2-1.08c2.28.58 5.77 1.06 9.32-.01-.21.64-.64.91-1 1.03a1.8 1.8 0 0 0-1.04-.34c-.3 0-.63.05-.95.18-.9.37-1.42 1.2-1.3 1.94.7 0 1.45-.05 2.2-.16 0 0-.45.7-1.08 1.31.43.11.93.08 1.4-.12.93-.37 1.45-1.23 1.29-2a2.86 2.86 0 0 0 1.54-2.2c.34-.14.69-.3 1.03-.46.05 0 .1-.02.14-.04l.15.1c-.38 1.7-.8 4.08-.47 3.9.52-.27 2.08-3.05 2.08-3.15.6-1.5-.51-2.15-.95-2.34l.47-.69a.28.28 0 0 0 .03-.26.26.26 0 0 0-.2-.16l-.86-.15a7.6 7.6 0 0 0-.1-.2l.36-.84a.28.28 0 0 0-.02-.26.25.25 0 0 0-.23-.12l-.88.03a7.3 7.3 0 0 0-.14-.17l.2-.9c.02-.1 0-.19-.07-.25a.25.25 0 0 0-.24-.08l-.86.22-.17-.15.03-.92a.3.3 0 0 0-.1-.24.25.25 0 0 0-.26-.02l-.8.39a8.94 8.94 0 0 0-.2-.1l-.14-.92a.27.27 0 0 0-.16-.2.25.25 0 0 0-.25.02l-.7.54a7.37 7.37 0 0 0-.23-.07l-.3-.86a.25.25 0 0 0-.43-.09l-.6.68a7.7 7.7 0 0 0-.23-.03l-.46-.78a.26.26 0 0 0-.22-.13z"/><path fill="#030404" d="M17.07 9.88s.8-.89 1.61 0c0 0 .64 1.18 0 1.77 0 0-1.03.82-1.61 0 0 0-.7-.65 0-1.77m-3.6-.24s1.38-.62 1.76.75c0 0 .4 1.6-1.14 1.69 0 0-1.96-.38-.63-2.44z"/><path fill="#fff" d="M18 10.2c0 .35-.2.63-.45.63s-.45-.28-.45-.62c0-.35.2-.63.45-.63s.45.28.45.63m-3.84.02c0 .35-.21.64-.47.64s-.47-.29-.47-.64c0-.36.21-.65.47-.65s.47.3.47.65z"/><path fill="#7e7f7f" d="M9.2 12.84h3v1.5h-1.38V24.9h1.39v1.51h-3m13.57 0h-3.01v-1.5h1.39V14.34h-1.39v-1.5h3z"/></svg>