<svg viewBox="0 0 32 32" xmlns="http://www.w3.org/2000/svg"><path d="m12.761 13.89 6.644 3.027 6.7-5.874a7.017 7.017 0 0 0 .141-1.475 7.484 7.484 0 0 0 -13.66-4.233l-1.12 5.785z" fill="#fed10a"/><path d="m5.886 20.919a7.262 7.262 0 0 0 -.141 1.5 7.514 7.514 0 0 0 13.724 4.22l1.1-5.759-1.469-2.821-6.67-3.04z" fill="#24bbb1"/><path d="m5.848 9.426 4.552 1.074 1-5.169a3.594 3.594 0 0 0 -5.552 4.095" fill="#ef5098"/><path d="m5.45 10.517a5.016 5.016 0 0 0 -.218 9.453l6.388-5.77-1.167-2.5z" fill="#17a8e0"/><path d="m20.624 26.639a3.589 3.589 0 0 0 5.541-4.092l-4.541-1.065z" fill="#93c83e"/><path d="m21.547 20.29 5 1.167a5.016 5.016 0 0 0 .221-9.457l-6.541 5.733z" fill="#0779a1"/></svg>