<svg viewBox="0 0 32 32" xmlns="http://www.w3.org/2000/svg"><circle cx="16" cy="16" r="14"/><g fill="#fff"><path d="m14.651 7.525-.011-.011a1.556 1.556 0 0 0 -2.2 0l-7.38 7.38a1.556 1.556 0 0 0 0 2.2l7.38 7.38a1.556 1.556 0 0 0 2.2 0l.011-.011a1.556 1.556 0 0 0 0-2.2l-5.611-5.609a.933.933 0 0 1 0-1.32l5.61-5.609a1.556 1.556 0 0 0 .001-2.2z"/><path d="m17.221 7.519.011-.011a1.556 1.556 0 0 1 2.2 0l7.38 7.38a1.556 1.556 0 0 1 0 2.2l-7.38 7.38a1.556 1.556 0 0 1 -2.2 0l-.011-.011a1.556 1.556 0 0 1 0-2.2l5.611-5.609a.933.933 0 0 0 0-1.32l-5.611-5.609a1.556 1.556 0 0 1 0-2.2z"/></g></svg>