<svg xmlns="http://www.w3.org/2000/svg" width="219" height="219" fill="none" viewBox="0 0 219 219"><g clip-path="url(#clip0_15_7)"><g clip-path="url(#clip1_15_7)"><path fill="#50abf1" d="M99 192c-8-10-9-11-7-12L200 73c2-1 15 5 17 8a2343 2343 0 0 1-108 120zm462-1-1-20v-18l-6 4q-7 9-21 8-31-3-32-51 0-28 13-42a28 28 0 0 1 42 0l3 3 1-5 1-5h23v126l-11 1zm-11-51c13-7 14-41 2-51q-8-6-17-1-9 8-10 26c0 21 12 33 25 26M76 165l-8-9 62-54 16 13-62 59zm652-1q-12-2-21-12-12-14-12-38 1-34 24-47c6-3 7-4 16-4s11 1 16 3c14 7 23 27 23 49l-1 8-26 1-27 1c-2 1 3 11 6 14q12 10 28-1l4-4 4 5 6 8 2 3-4 4q-12 11-29 12zm21-58v-7c-3-13-14-19-23-11q-4 4-6 12v6zm-383 58c-13-5-19-20-17-36q3-16 16-22a51 51 0 0 1 34 0v-7q-1-8-7-11-9-3-23 1l-7 1c-2-1-6-16-6-18 0-3 16-8 29-8q23 0 32 13c6 9 6 10 6 50v36l-10 1-12-1-1-4-1-4-4 3c-5 5-8 6-17 7zm27-20q7-4 7-15c0-7-1-8-11-9-7 0-8 0-11 2q-6 4-5 13 0 11 12 11zm228 20q-9-4-15-16c-2-6-2-6-2-44V65h24v33c0 30 1 34 2 37 5 9 18 9 22-1 2-3 2-5 3-36V65h24v48l-1 50-12 1-11-1v-4l-1-5-5 3q-7 9-18 8zm187 0q-8-2-12-11l-2-6-1-30V87h-3q-8 2-6-12-1-12 3-10c7-1 6 0 6-12l1-13c2-2 22-2 23 0l1 13 1 11 8 1h9v11l-1 10-8 1h-9v25c0 32 0 31 16 29q1-3 2 9v10l-4 2c-5 3-19 4-24 2m-550-1V34h25c23 0 25 1 31 3q25 9 27 38 1 31-23 44-9 6-25 5l-10 1-2 20v18l-11 1zm47-65q11-5 11-19 0-20-22-21c-13-1-12-2-12 20v20c1 3 18 2 23 0m138 65-1-50 1-48h11l13 1v7q1 8 3 3c0-2 6-9 10-11l7-2h4v28h-4q-9 2-14 8c-5 7-6 11-6 38l-1 25c-1 2-2 2-11 2zM54 141l-6-8 30-22 14 13c0 1-29 25-31 25zm-18-20q-8-7-5-7l86-61c2 0 13 7 13 9l-87 66zm55-9-6-6 6-7 69-51c2 0 13 7 13 8l-74 62zm-72-9q-6-5-4-7l59-37c1 0 12 8 11 9 0 2-58 41-60 41zm124 1-7-7 42-37q0-2 9 3l7 5c0 2-40 40-42 41zM5 87l-5-5 2-1 55-32 52-31 5 3 5 3L10 93zm80-27-4-4 22-15 22-14 5 3 6 4c0 1-43 30-45 30zm44-6-5-4c0-2 15-12 17-13 1 0 11 5 12 7l-1 2-17 12z"/></g></g><defs><clipPath id="clip0_15_7"><path fill="#fff" d="M0 0h219v219H0z"/></clipPath><clipPath id="clip1_15_7"><path fill="#fff" d="M0 18h836v184H0z"/></clipPath></defs></svg>