<svg xmlns="http://www.w3.org/2000/svg" viewBox="0 0 120 120"><title>file_type_glitter</title><path d="M30.333,11.5c-8.363,2.517-11.575,5.8-13.03,7.2C14.657,21.246,13.6,24.58,12.833,30a88.824,88.824,0,0,0,3.833,39.667,73.843,73.843,0,0,0,9.5,18.667c3.909,5.439,7.518,10.331,14.167,13.167,1.6.681,5.988,5.554,11.667,5.333,3.623-.141,4.483-3.006,8-3,4.6.008,6.407.49,11.167,1.833,3.273.924,9.822,2.771,17,1a26.379,26.379,0,0,0,12.667-7.5,20.98,20.98,0,0,0,5.333-8.667c.833-2.845.623-4.737.167-11.167-.88-12.406-.45-10.354-.833-13.167a88.228,88.228,0,0,0-4.833-18.833A74.9,74.9,0,0,0,95.5,35.5a55.343,55.343,0,0,0-8.5-12c-3.047-3.229-5.551-5.051-9.833-8.167-4.638-3.374-6.068-2.806-7.167-3-2.88-.51-3.607-.413-9.5.667-3.907.716-7.1,1.3-11,.667-3.868-.63-3.965-1.737-7.333-2.167C39.6,11.172,36.741,9.572,30.333,11.5Z" style="stroke:#000;stroke-miterlimit:10;stroke-width:7px"/><path d="M83.333,35.833c-3.2-4.876-3.412-5.529-4.833-6.5s-2.811-1.407-3.5-3c-.078-.181-.907-2.175.167-3.5a3.363,3.363,0,0,1,2.667-1c1.6.027,2.867.939,4.333,2.333A40.064,40.064,0,0,1,87.5,30.833C90.74,35.368,90.707,34.865,92,37c1.2,1.981,1.124,2.241,3.5,7,2.477,4.961,2.472,4.5,3.5,6.833a46.947,46.947,0,0,1,3,9,46.049,46.049,0,0,1,.833,6.333,47.337,47.337,0,0,1,0,11.167,23.529,23.529,0,0,1-2.5,8.833A22.527,22.527,0,0,1,96,91.667a22.789,22.789,0,0,1-7.667,5.5c-2.909,1.145-6.217.874-12.833.333a48.141,48.141,0,0,1-11.167-1.833,45.276,45.276,0,0,1-7-2.833A48.94,48.94,0,0,1,49.667,88c-1.586-1.181-7.331-5.087-11.167-9.333-2.478-2.743-9.067-11.475-12.667-26.5-.9-3.756-2.465-9.184-1.156-15.167.8-3.674,1.685-5.991,2.822-7.333A27.553,27.553,0,0,1,34.167,26a19.833,19.833,0,0,1,9.5-1.833,40.962,40.962,0,0,1,9.833,2A47.366,47.366,0,0,1,63.333,30.5a51.613,51.613,0,0,1,9.5,7.667c3.394,3.488,4.285,6.7,5.333,8.5A34.8,34.8,0,0,1,82.333,56.5c.784,3.274.939,6.279.667,6.333s-.684-3.236-2.833-7.5a40.444,40.444,0,0,0-3.833-6A49.1,49.1,0,0,0,72.5,44.667a40.047,40.047,0,0,0-12.167-8.5,51.471,51.471,0,0,0-9.667-3.5c-6.923-1.892-9.982-1.469-10.833-1.333A11.756,11.756,0,0,0,33.667,35c-.417.451-1.655.909-2.167,5.5a35.218,35.218,0,0,0,1.167,12.833,45.6,45.6,0,0,0,3,8.833,47.713,47.713,0,0,0,6.333,10A44.6,44.6,0,0,0,49.333,80c3.68,2.986,6.948,4.42,13.333,7.167,5.579,2.4,8.368,3.6,11.5,4.167a21.883,21.883,0,0,0,16.333-4c3.073-2.376,4.369-3.658,4.833-4.833,1.052-2.665,1.09-4.777,1.167-9a60.378,60.378,0,0,0-1-12A47.483,47.483,0,0,0,93,52.167,51.384,51.384,0,0,0,88.833,44C87.049,40.99,87.363,41.982,83.333,35.833Z" style="fill:#3a96dd;isolation:isolate"/><path d="M87.333,41.667C76.958,27.924,62.167,21.5,62.167,21.5c-3.574-1.552-10.882-2.757-25.5-5.167a17.241,17.241,0,0,0-8.167.333,16.979,16.979,0,0,0-6.833,4.167,19.466,19.466,0,0,0-4.5,6.833c-2.837,6.9-3.575,20.371,1.167,35.5C20.695,70.7,21.212,68.428,28,84c0,0,1.41,3.234,6.333,9.5,1.351,1.719,3.22,3.931,5.667,4a3.251,3.251,0,0,0,2.5-.833,3.339,3.339,0,0,0,.667-2.5,5.237,5.237,0,0,0-.833-2.5,20.131,20.131,0,0,0-4.167-4.5c-2.65-2.478-4.237-5.456-4-5.667.359-.319,4.9,5.7,12.167,11A59.685,59.685,0,0,0,64.5,101.333a65.887,65.887,0,0,0,23.333,2.5c3.344-.276,6.365-.836,9-3a16.19,16.19,0,0,0,4.5-6.667,23.405,23.405,0,0,0,1.5-6.833c.269-2.419.746-6.719-.167-7-1.3-.4-2.294,8.275-8.833,13.333-6.7,5.184-16.085,4.14-21.833,3.5a40.235,40.235,0,0,1-11.167-2.833C59.27,93.665,56.306,92.268,49.5,87c-5.639-4.365-8.459-6.547-11.167-9.5C29.034,67.358,26.895,55.741,25.5,48.167c-1.613-8.757-.609-12.372.667-14.833A15.657,15.657,0,0,1,33,26.5c2.522-1.237,4.662-1.35,7.5-1.5a35.058,35.058,0,0,1,12.667,1.833,48.133,48.133,0,0,1,8,3.333,38.771,38.771,0,0,1,10.5,7.333c3.222,3.283,4.8,6.321,7.667,11.833,2.131,4.1,2.2,6.148,3,9.333A37.325,37.325,0,0,1,84,71c-.091,2.992-.3,3.164-1.167,4.167-.774.9-2.218,2.825-6.833,2.833a29.787,29.787,0,0,1-13.167-2.5,34.3,34.3,0,0,1-10.5-7.667A44.026,44.026,0,0,1,45,58.5a38.166,38.166,0,0,1-4.333-11.833c-.9-4.314-.649-6.412.167-8.167a7.484,7.484,0,0,1,2.833-3.333c1.751-1.064,3.578-1.019,5.667-.833,6.424.57,10.263,2.013,10.333,1.833.141-.364-13.98-10.3-22.333-5.333C32.47,33.726,31.39,39.584,31.167,41a27.281,27.281,0,0,0,1,13.5A53.405,53.405,0,0,0,40.5,71,54.046,54.046,0,0,0,52.167,82.333a46.632,46.632,0,0,0,14,7.167c4.355,1.341,7.862,2.491,12,2.667,4.575.195,6.388-1.233,7.667-1.667a16.839,16.839,0,0,0,6.333-4c.845-.845,2.6-1.637,3.667-4.5a23.73,23.73,0,0,0,.833-7.333,72.491,72.491,0,0,0-.833-11.5c-.739-4.682-1.181-7.485-2.5-11A42.346,42.346,0,0,0,87.333,41.667Z" style="fill:#0078d7;isolation:isolate"/><path d="M61.88,36.681a39.691,39.691,0,0,0-12.167-3.6c-5.692-.738-7.408.33-8.225,1.2-.5.535-1,1.345-1.371,4.286a34.781,34.781,0,0,0,.171,10.116,28.81,28.81,0,0,0,3.6,10.459,31.213,31.213,0,0,0,5.655,6.687,89.643,89.643,0,0,0,8.568,7.687A41.243,41.243,0,0,0,67.878,77.8a24.039,24.039,0,0,0,9.6,1.029,9.429,9.429,0,0,0,5.826-3.4c.713-.9,1.132-2.067,1.2-4.8a30.3,30.3,0,0,0-1.542-10.287A39.53,39.53,0,0,0,77.3,49.711,43.676,43.676,0,0,0,61.88,36.681Z" style="fill:#b4a0ff;isolation:isolate"/><path d="M62.5,45.5c-4.049-1.361-7.754-2.606-10.333-.667-2.551,1.918-2.513,5.834-2.5,7.167A14.324,14.324,0,0,0,52,59.167,20.089,20.089,0,0,0,56.833,65,18.2,18.2,0,0,0,64,68.5c2.444.564,4.829,1.114,7.167-.167a7.6,7.6,0,0,0,3.333-4c1.01-2.8,0-5.391-1.333-8.833a16.517,16.517,0,0,0-2.833-5.333C67.949,47.372,65.042,46.355,62.5,45.5Z" style="fill:#fff"/><path d="M71.735,16.382s-.151,2.577-1.928,2.674,1.729-.77,1.508,1.815-.5-1.857,2.092-1.765S72.648,19.832,71.735,16.382Z" style="fill:#0078d7"/><path d="M63.782,15.817s-.092,1.563-1.169,1.622,1.049-.467.915,1.1-.3-1.126,1.269-1.07S64.336,17.91,63.782,15.817Z" style="fill:#0078d7"/><path d="M46.236,37.645s-.044,3.03-2.566,3.027,2.41-.793,2.266,2.242S45.1,40.69,48.8,40.971,47.764,41.777,46.236,37.645Z" style="fill:#fff"/><path d="M54.848,37.645s-.061,1.462-1.148,1.5,1.05-.416.946,1.049-.328-1.061,1.26-.977S55.45,39.616,54.848,37.645Z" style="fill:#fff"/><path d="M78.318,82.3s-.151,2.577-1.928,2.674,1.729-.77,1.508,1.815-.5-1.857,2.092-1.765S79.231,85.749,78.318,82.3Z" style="fill:#b4a0ff;isolation:isolate"/><path d="M70.366,81.734S70.274,83.3,69.2,83.356s1.049-.467.915,1.1-.3-1.126,1.269-1.07S70.919,83.827,70.366,81.734Z" style="fill:#b4a0ff;isolation:isolate"/><path d="M21.986,28.312s-.044,3.03-2.566,3.027,2.41-.793,2.266,2.242-.833-2.224,2.861-1.943S23.514,32.443,21.986,28.312Z" style="fill:#3a96dd;isolation:isolate"/><path d="M23.636,24.787s-.022,1.5-1.271,1.5,1.194-.393,1.123,1.111-.413-1.1,1.417-.963S24.394,26.834,23.636,24.787Z" style="fill:#3a96dd;isolation:isolate"/></svg>