<svg xmlns="http://www.w3.org/2000/svg" viewBox="0 0 32 32"><title>file_type_gleamconfig</title><path d="M14.68,3.91a1.51,1.51,0,0,1,2.64,0l3.05,5.4a2.64,2.64,0,0,0,1.78,1.29l6.08,1.23a1.51,1.51,0,0,1,.82,2.51l-4.2,4.57A2.62,2.62,0,0,0,24.17,21l.71,6.15a1.52,1.52,0,0,1-2.14,1.56L17.1,26.13a2.64,2.64,0,0,0-2.2,0L9.26,28.71a1.52,1.52,0,0,1-2.14-1.56L7.83,21a2.62,2.62,0,0,0-.68-2.09L3,14.34a1.51,1.51,0,0,1,.82-2.51L9.85,10.6a2.64,2.64,0,0,0,1.78-1.29Z" style="fill:#ffaff3"/><path d="M16,2.6a2,2,0,0,0-1.81,1l-3,5.4a2.1,2.1,0,0,1-1.4,1L3.66,11.28a2.09,2.09,0,0,0-1.12,3.44l4.2,4.57a2.09,2.09,0,0,1,.53,1.64l-.71,6.16a2.1,2.1,0,0,0,2.93,2.13h0l5.64-2.58h0a2.11,2.11,0,0,1,1.74,0h0l5.64,2.58a2.1,2.1,0,0,0,2.93-2.13h0l-.71-6.16h0a2.09,2.09,0,0,1,.53-1.64h0l4.2-4.57h0a2.09,2.09,0,0,0-1.12-3.44l-6.08-1.23a2.1,2.1,0,0,1-1.4-1l-3.05-5.4A2,2,0,0,0,16,2.6m0,1.08a1,1,0,0,1,.84.51l3,5.4A3.2,3.2,0,0,0,22,11.15l6.08,1.23A.94.94,0,0,1,28.64,14l-4.2,4.57a3.18,3.18,0,0,0-.82,2.53l.71,6.16h0a.94.94,0,0,1-1.35,1h0l-5.65-2.58a3.17,3.17,0,0,0-2.66,0L9,28.2a.94.94,0,0,1-1.35-1l.71-6.16a3.18,3.18,0,0,0-.82-2.53L3.36,14a.94.94,0,0,1,.52-1.58L10,11.15a3.2,3.2,0,0,0,2.16-1.56h0l3-5.4A1,1,0,0,1,16,3.68" style="fill:#151515"/><path d="M26.08,26.79l.67-.67c3.13.1,3.17,0,3.31-.33l.86-2.09.06-.2-.07-.17c0-.1-.15-.37-2.1-2.23v-1c2.25-2.16,2.2-2.27,2.07-2.59L30,15.42c-.13-.32-.18-.44-3.28-.36l-.67-.7A15.13,15.13,0,0,0,26,11.28l-.09-.2-2.23-1c-.33-.15-.44-.2-2.55,2.09l-.94,0C18,9.87,17.89,9.91,17.57,10l-2.08.84c-.32.13-.43.18-.31,3.33l-.67.66c-3.12-.1-3.17,0-3.3.33l-.86,2.1-.07.2.07.17c0,.09.14.36,2.1,2.22v1c-2.25,2.17-2.2,2.28-2.07,2.6l.85,2.11c.13.33.18.44,3.28.36l.67.7a15.1,15.1,0,0,0,.1,3.08l.09.2,2.24,1c.33.13.44.18,2.54-2.1h1c2.17,2.31,2.28,2.27,2.6,2.14l2.07-.83C26.1,30,26.21,29.93,26.08,26.79Zm-8.9-4.89A3.72,3.72,0,1,1,22.05,24a3.77,3.77,0,0,1-4.87-2.12Z" style="fill:#40535b"/></svg>