<svg xmlns="http://www.w3.org/2000/svg" viewBox="0 0 32 32"><title>file_type_sst</title><path d="M6.048 5.162c-.459.216-.64.398-1.019 1.06-.182.31-.364.627-.411.7a145.687 145.687 0 0 1-1.16 2.024c-.534.925-1.087 1.897-1.215 2.153L2 11.572v4.554c0 4.284.007 4.574.121 4.81.183.358.567.73.918.884.297.129.445.135 3.333.135 1.882.007 3.016.027 3.016.068 0 .04-.418.681-.924 1.437-.513.756-.985 1.47-1.046 1.592-.31.574-.014 1.296.607 1.471.175.054 2.874.068 9.088.054l8.839-.02.398-.203c.546-.276.843-.593 1.295-1.363.21-.364.655-1.113.992-1.666.897-1.498 1.167-2.085 1.316-2.874.027-.128.047-2.24.047-4.69v-4.453l-.148-.283a1.673 1.673 0 0 0-.891-.756c-.175-.047-1.046-.074-2.625-.074-2.057 0-2.381-.013-2.469-.108-.06-.054-.108-.148-.108-.195 0-.054.459-.83 1.019-1.728.56-.89 1.052-1.727 1.093-1.848.142-.466-.135-1.026-.607-1.222C25.08 5.014 23.469 5 15.717 5H6.386l-.338.162zM24.11 6.417c.29.23.35.101-1.215 2.496-.425.648-.782 1.195-.802 1.215-.02.02-2.207.047-4.865.067-4.554.034-4.851.04-5.074.162-.452.243-.674.506-1.437 1.754-.047.075-.209.344-.364.594-.162.256-.29.472-.29.493 0 .013-.108.195-.236.398a4.45 4.45 0 0 0-.237.398c0 .013-.209.378-.458.796-.513.857-.54.87-1.134.742a1.775 1.775 0 0 1-1.093-.803l-.182-.317-.02-3.373c-.02-3.812-.027-3.732.492-4.251.513-.52-.054-.486 8.825-.486 7.415 0 7.955.007 8.09.115zm4.311 5.013c.425.29.419.169.419 4.311 0 3.509-.007 3.785-.122 3.995-.243.445-.337.465-2.186.472-.91.007-1.74-.014-1.849-.047-.398-.129-.492-.54-.216-.952a1.87 1.87 0 0 0 .17-.27c0-.013.242-.411.539-.883.297-.48.567-.959.6-1.073a1.144 1.144 0 0 0-.58-1.296c-.243-.114-.567-.121-7.287-.128-6.281 0-7.043-.013-7.138-.108-.216-.216-.182-.418.189-1.08.202-.35.573-1.025.83-1.504.52-.965.762-1.268 1.187-1.457.284-.129.506-.135 7.753-.135h7.462l.23.155zm-4.237 5.37c.155.122.142.324-.04.628-1.29 2.18-1.593 2.59-2.004 2.72-.095.033-2.672.06-5.735.06-6.167.007-5.742-.02-6.174.452l-.209.23-2.78-.007c-2.968-.007-3.029-.014-3.177-.345-.142-.303-.088-.465.31-.964.04-.054.236-.297.425-.54.189-.243.385-.486.432-.547.054-.06.283-.364.513-.668.236-.303.533-.62.668-.708.533-.35.627-.364 3.36-.371 1.396 0 2.55-.007 2.557-.02.006-.007 2.658-.014 5.883-.014 4.871 0 5.883.014 5.971.095zm3.542 4.595c.169.108.297.486.236.661-.047.129-1.241 2.065-1.632 2.645-.277.412-.574.641-.952.743-.162.047-3.103.06-8.366.053l-8.117-.02-.094-.141c-.081-.129-.06-.19.263-.675.196-.297.371-.547.398-.567.02-.02.203-.277.405-.573.202-.297.385-.554.405-.574.02-.02.236-.324.486-.681.25-.358.492-.689.553-.736.29-.243.405-.243 8.413-.243 6.842.007 7.867.02 8.002.108z" fill="#E27152" fill-rule="nonzero"/></svg>