<svg xmlns="http://www.w3.org/2000/svg" viewBox="0 0 32 32"><title>file_type_libreoffice_draw</title><linearGradient id="b" x1="108" x2="20" y1="122" y2="6" gradientTransform="translate(2 2) scale(.21875)" gradientUnits="userSpaceOnUse"><stop offset="0" stop-color="#e6e6e6"/><stop offset="1" stop-color="#fff"/></linearGradient><linearGradient id="a" x1="122.75" x2="111.75" y1="991.62" y2="977.12" gradientTransform="matrix(1.7499 0 0 1.7495 -189.18 -1706.1)" gradientUnits="userSpaceOnUse"><stop offset="0" stop-color="#c99c00"/><stop offset="1" stop-color="#e9b913"/></linearGradient><g stroke-width=".22"><path fill="url(#a)" d="M5.77 2h-.16c-.8.16-1 .5-.98 1.32v25.37c0 .91.4 1.31 1.3 1.31h20.13c.92 0 1.31-.4 1.31-1.31V12.98c.01-.46-.17-.93-.49-1.26L17.66 2.5c-.33-.32-.8-.5-1.26-.5H5.77zM21.1 2a.9.9 0 0 0-.14.01c-.58.19-.78 1.08-.33 1.5l5.27 5.3c.49.46 1.46.06 1.48-.62V2.9a.91.91 0 0 0-.87-.88h-5.27a.9.9 0 0 0-.14 0z"/><path fill="url(#b)" d="M5.94 3.31V28.7h20.12V12.94L16.44 3.3z"/><circle cx="13.15" cy="18.19" r="3.72" fill="#f09e6f" opacity=".6"/></g><circle cx="13.16" cy="18.19" r="4.16" fill="#f9cfb5" stroke="#d36118" stroke-width=".44"/><g stroke-width=".22"><path fill="#1c99e0" d="M15.56 23.88a.22.22 0 0 1-.22-.22v-7c0-.12.1-.22.22-.22h7c.12 0 .22.1.22.22v7c0 .12-.1.21-.22.21zm.22-.44h6.56v-6.56h-6.56z"/><path fill="#aadcf7" d="M15.78 23.44h6.56v-6.57h-6.56z"/><path fill="#e9b913" d="M14.16 18.2a.22.22 0 0 0-.11.1l-2.15 3.5-2.2 3.44c-.1.13-.04.4.23.38h8.56c.26 0 .3-.28.17-.52l-2.07-3.3-2.15-3.5a.24.24 0 0 0-.28-.1zm.09.64L16.2 22l1.97 3.18H10.3L12.27 22z"/><path fill="#fde9a9" d="M18.19 25.19H10.3l3.94-6.35 1.97 3.18z"/></g><path fill="#ccf4c6" stroke="#43c330" stroke-linecap="square" stroke-width=".22" d="M18.08 24.86h1.1v1.1h-1.1zm-8.75 0h1.1v1.1h-1.1zm4.37-7h1.1v1.1h-1.1z"/></svg>