<svg viewBox="0 0 32 32" xmlns="http://www.w3.org/2000/svg"><path d="m7.779 18.923a2.333 2.333 0 0 1 -2.379-1.763c.306 1.462 1.961 2.892 7.183 3.529a14.228 14.228 0 0 0 9.232-1.612s.733-.322.293.176c0 0-3.107 2.873-9.2 2.9s-10.938-3.046-10.908-6.153c-.029-3.107 4.806-6.185 10.9-6.155s9.2 2.9 9.2 2.9c.44.5-.293.176-.293.176-1.084-.7-4.286-2.089-9.232-1.612-4.866.469-6.453 2.122-6.981 3.235a3.254 3.254 0 0 0 -.318 1.24 2.424 2.424 0 0 1 2.5-2.316 2.507 2.507 0 0 1 2.524 2.727 2.506 2.506 0 0 1 -2.521 2.725zm19.647-1.074h2.574v.937h-3.656v-5.177h1.082zm-3.972-1.849h2.163v2.791h-.717l-.108-.649a1.9 1.9 0 0 1 -1.614.786 2.414 2.414 0 0 1 -2.379-2.711 2.485 2.485 0 0 1 2.531-2.74 2.053 2.053 0 0 1 2.27 1.74h-1.085a1.136 1.136 0 0 0 -1.132-.851c-.771 0-1.485.534-1.485 1.86 0 1.413.771 1.781 1.506 1.781a1.28 1.28 0 0 0 1.254-1.139h-1.2v-.868zm-15.673-1.9a1.86 1.86 0 0 0 -1.8 2.105 1.86 1.86 0 0 0 1.8 2.105 1.86 1.86 0 0 0 1.8-2.105 1.86 1.86 0 0 0 -1.8-2.105zm2.911 1.383h.525v.468h.013a1.12 1.12 0 0 1 .987-.563 1.565 1.565 0 0 1 1.506 1.677 1.675 1.675 0 0 1 -1.583 1.824 1 1 0 0 1 -.88-.443h-.013v1.654h-.557v-4.621zm1.408 2.917c.608 0 1.019-.527 1.019-1.254 0-.424-.171-1.264-1.032-1.264-.8 0-.893.867-.893 1.406 0 .88.551 1.114.905 1.114zm5-.652a1.378 1.378 0 0 1 -1.488 1.133 1.487 1.487 0 0 1 -1.482-1.658c0-1.025.494-1.842 1.588-1.842.956 0 1.424.76 1.424 1.931h-2.421c0 .69.323 1.089.962 1.089a.841.841 0 0 0 .854-.652h.563zm-.59-.88c-.032-.513-.247-.987-.924-.987a.972.972 0 0 0 -.918.987zm3.713 1.917h-.557v-2.034c0-.576-.165-.867-.709-.867-.317 0-.874.2-.874 1.1v1.8h-.557v-3.305h.525v.468h.013a1.2 1.2 0 0 1 1-.563 1.046 1.046 0 0 1 1.158 1.152v2.253" fill="#4386b5"/></svg>