<svg xmlns="http://www.w3.org/2000/svg" fill="none" viewBox="0 0 32 32"><mask id="a" width="139" height="32" x="0" y="0" maskUnits="userSpaceOnUse"><path fill="#fff" d="M139 0H0v32h139z"/></mask><g mask="url(#a)"><path fill="#fe6703" d="M28.805 3.167a3.9 3.9 0 0 1 1.19 2.38c0 .378-.101.634-.332 1.11-.23.48-3.035 5.336-3.874 6.68a5.1 5.1 0 0 0-.732 2.631c0 .91.256 1.846.732 2.632.833 1.344 3.644 6.222 3.874 6.711.23.48.332.71.332 1.089-.101.912-.502 1.745-1.168 2.354-.634.656-1.467 1.088-2.353 1.167-.379 0-.634-.1-1.089-.331-.454-.23-13.716-7.898-13.716-7.898.154 1.265.71 2.48 1.621 3.367.177.177.357.331.555.48-.154.075-6.7 3.9-7.186 4.13-.48.23-.71.331-1.11.331-.913-.101-1.745-.502-2.354-1.167a3.9 3.9 0 0 1-1.19-2.38c.023-.378.133-.757.332-1.088.23-.48 3.035-5.367 3.874-6.711.48-.79.732-1.698.732-2.632a5.1 5.1 0 0 0-.732-2.631c-.833-1.389-3.666-6.28-3.874-6.756-.202-.331-.3-.71-.332-1.088a3.84 3.84 0 0 1 1.168-2.38A3.9 3.9 0 0 1 5.55 2c.379.022.758.133 1.11.331.402.177 13.636 7.983 13.636 7.983a5.46 5.46 0 0 0-2.12-3.818c.094-.05 6.666-3.947 7.155-4.155.331-.202.71-.3 1.11-.332a3.83 3.83 0 0 1 2.354 1.168l.016-.006zM16.47 18.363l1.893-1.9a.653.653 0 0 0 0-.933l-1.893-1.9c-.262-.265-.656-.265-.93 0l-1.893 1.9a.653.653 0 0 0 0 .934l1.892 1.9c.234.233.657.233.931 0" style="stroke-width:.887422"/></g></svg>