<svg viewBox="0 0 32 32" xmlns="http://www.w3.org/2000/svg" xmlns:xlink="http://www.w3.org/1999/xlink"><linearGradient id="a" gradientTransform="matrix(-.897 .441 .441 .897 -292.36 -27.561)" gradientUnits="userSpaceOnUse" x1="-264.845" x2="-255.586" y1="181.772" y2="182.061"><stop offset="0" stop-color="#bd6316"/><stop offset="1" stop-color="#4e1500"/></linearGradient><linearGradient id="b" x1="-263.276" x2="-256.603" xlink:href="#a" y1="170.205" y2="171.772"/><linearGradient id="c" x1="-265.068" x2="-256.777" xlink:href="#a" y1="175.732" y2="178.801"/><linearGradient id="d" gradientTransform="matrix(-.947 -.323 -.323 .947 -558.144 -332.613)" gradientUnits="userSpaceOnUse" x1="-655.014" x2="-655.555" y1="147.549" y2="146.948"><stop offset="0" stop-color="#ffd436"/><stop offset="1" stop-color="#8b3f02"/></linearGradient><linearGradient id="e" gradientTransform="matrix(-.897 .441 .441 .897 -292.36 -27.561)" gradientUnits="userSpaceOnUse" x1="-258.899" x2="-253.843" y1="170.981" y2="171.325"><stop offset="0" stop-color="#fff8b7"/><stop offset="1" stop-color="#fcbf0e"/></linearGradient><linearGradient id="f" x1="-258.884" x2="-253.896" xlink:href="#a" y1="170.975" y2="171.314"/><linearGradient id="g" gradientTransform="matrix(-.897 .441 .441 .897 -292.36 -27.561)" x1="-257.805" x2="-257.726" xlink:href="#d" y1="172.266" y2="168.648"/><linearGradient id="h" x1="-258.935" x2="-256.173" xlink:href="#e" y1="181.92" y2="182.108"/><linearGradient id="i" gradientTransform="matrix(-1 0 0 1 -257.657 -155.509)" x1="-274.156" x2="-274.512" xlink:href="#d" y1="170.544" y2="173.778"/><linearGradient id="j" gradientTransform="matrix(-.615 -.789 -.789 .615 -644.695 -286.477)" gradientUnits="userSpaceOnUse" x1="-645.79" x2="-645.121" y1="-337.938" y2="-334.17"><stop offset="0" stop-color="#ffef94"/><stop offset="1" stop-color="#ffd200"/></linearGradient><linearGradient id="k" gradientTransform="matrix(-.897 .441 .441 .897 -305.235 -16.952)" x1="-276.128" x2="-274.754" xlink:href="#d" y1="178.682" y2="178.682"/><linearGradient id="l" gradientTransform="matrix(-.897 .441 .441 .897 -305.235 -16.952)" x1="-274.314" x2="-271.841" xlink:href="#d" y1="178.887" y2="178.987"/><linearGradient id="m" gradientTransform="matrix(-.897 .441 .441 .897 -305.235 -16.952)" gradientUnits="userSpaceOnUse" x1="-273.817" x2="-274.213" y1="189.281" y2="174.569"><stop offset="0" stop-color="#d89530"/><stop offset="1" stop-color="#772d00"/></linearGradient><linearGradient id="n" gradientTransform="matrix(-.897 .441 .441 .897 -305.235 -16.952)" x1="-274.075" x2="-273.917" xlink:href="#d" y1="174.09" y2="181.459"/><linearGradient id="o" x1="-272.919" x2="-273.315" xlink:href="#m" y1="189.281" y2="174.57"/><linearGradient id="p" gradientTransform="matrix(-.897 .441 .441 .897 -305.235 -16.952)" x1="-273.177" x2="-273.019" xlink:href="#d" y1="174.071" y2="181.44"/><linearGradient id="q" gradientTransform="matrix(-.615 -.789 -.789 .615 -644.695 -286.477)" gradientUnits="userSpaceOnUse" x1="-652.29" x2="-651.867" y1="-335.227" y2="-332.867"><stop offset="0" stop-color="#ffdb57"/><stop offset="1" stop-color="#b55c13"/></linearGradient><linearGradient id="r" gradientTransform="matrix(-.947 -.323 -.323 .947 -558.144 -332.613)" x1="-665.076" x2="-659.751" xlink:href="#m" y1="157.413" y2="150.922"/><linearGradient id="s" gradientTransform="matrix(-.947 -.323 -.323 .947 -558.144 -332.613)" x1="-665.161" x2="-664.822" xlink:href="#m" y1="156.114" y2="155.701"/><linearGradient id="t" gradientTransform="matrix(-.947 -.323 -.323 .947 -558.144 -332.613)" x1="-665.308" x2="-665.836" xlink:href="#m" y1="156.436" y2="155.32"/><linearGradient id="u" x1="-655.442" x2="-654.817" xlink:href="#d" y1="147.568" y2="146.776"/><linearGradient id="v" gradientTransform="matrix(-.897 .441 .441 .897 -292.36 -27.561)" x1="-253.999" x2="-254.134" xlink:href="#m" y1="175.1" y2="173.736"/><linearGradient id="w" gradientTransform="matrix(-.897 .441 .441 .897 -292.36 -27.561)" x1="-252.571" x2="-252.785" xlink:href="#m" y1="173.138" y2="170.963"/><linearGradient id="x" gradientTransform="matrix(-.897 .441 .441 .897 -292.36 -27.561)" x1="-257.206" x2="-259.174" xlink:href="#m" y1="169.107" y2="169.787"/><linearGradient id="y" gradientTransform="matrix(-.897 .441 .441 .897 -292.36 -27.561)" x1="-260.717" x2="-260.77" xlink:href="#m" y1="170.284" y2="171.228"/><linearGradient id="z" gradientTransform="matrix(-.897 .441 .441 .897 -292.36 -27.561)" x1="-257.835" x2="-257.782" xlink:href="#d" y1="174.993" y2="171.93"/><linearGradient id="A" gradientTransform="matrix(-.897 .441 .441 .897 -292.36 -27.561)" x1="-263.928" x2="-255.721" xlink:href="#d" y1="171.018" y2="171.018"/><linearGradient id="B" gradientTransform="matrix(-.947 -.323 -.148 .966 -476.554 -85.464)" x1="-514.299" x2="-505.041" xlink:href="#a" y1="-57.926" y2="-57.638"/><linearGradient id="C" gradientTransform="matrix(-.947 -.323 -.148 .966 -476.554 -85.464)" x1="-512.744" x2="-505.964" xlink:href="#a" y1="-69.496" y2="-67.904"/><linearGradient id="D" gradientTransform="matrix(-.947 -.323 -.148 .966 -476.554 -85.464)" x1="-514.521" x2="-506.23" xlink:href="#a" y1="-63.966" y2="-60.897"/><linearGradient id="E" gradientTransform="matrix(-.564 -.911 -.774 .455 -516.113 -497.612)" x1="-662.221" x2="-662.762" xlink:href="#d" y1="-197.167" y2="-197.768"/><linearGradient id="F" gradientTransform="matrix(-.947 -.323 -.148 .966 -476.554 -85.464)" x1="-508.354" x2="-503.297" xlink:href="#e" y1="-68.717" y2="-68.373"/><linearGradient id="G" gradientTransform="matrix(-.947 -.323 -.148 .966 -476.554 -85.464)" x1="-508.338" x2="-503.351" xlink:href="#a" y1="-68.723" y2="-68.384"/><linearGradient id="H" gradientTransform="matrix(-.947 -.323 -.148 .966 -476.554 -85.464)" x1="-507.26" x2="-507.18" xlink:href="#d" y1="-67.432" y2="-71.05"/><linearGradient id="I" gradientTransform="matrix(-.947 -.323 -.148 .966 -476.554 -85.464)" x1="-508.389" x2="-505.627" xlink:href="#e" y1="-57.779" y2="-57.591"/><linearGradient id="J" gradientTransform="matrix(-.947 -.323 -.148 .966 -492.49 -86.99)" x1="-523.609" x2="-523.966" xlink:href="#d" y1="-69.153" y2="-65.918"/><linearGradient id="K" x1="-645.333" x2="-642.973" xlink:href="#j" y1="-334.169" y2="-332.091"/><linearGradient id="L" gradientTransform="matrix(-.947 -.323 -.148 .966 -492.49 -86.99)" x1="-525.581" x2="-524.207" xlink:href="#d" y1="-61.015" y2="-61.015"/><linearGradient id="M" gradientTransform="matrix(-.947 -.323 -.148 .966 -492.49 -86.99)" x1="-523.768" x2="-521.294" xlink:href="#d" y1="-60.81" y2="-60.71"/><linearGradient id="N" gradientTransform="matrix(-.947 -.323 -.148 .966 -492.49 -86.99)" x1="-523.27" x2="-523.666" xlink:href="#m" y1="-50.416" y2="-65.127"/><linearGradient id="O" gradientTransform="matrix(-.947 -.323 -.148 .966 -492.49 -86.99)" x1="-523.528" x2="-523.37" xlink:href="#d" y1="-65.606" y2="-58.238"/><linearGradient id="P" gradientTransform="matrix(-.947 -.323 -.148 .966 -492.49 -86.99)" x1="-522.372" x2="-522.768" xlink:href="#m" y1="-50.416" y2="-65.127"/><linearGradient id="Q" gradientTransform="matrix(-.947 -.323 -.148 .966 -492.49 -86.99)" x1="-522.631" x2="-522.472" xlink:href="#d" y1="-65.626" y2="-58.257"/><linearGradient id="R" x1="-649.116" x2="-646.827" xlink:href="#j" y1="-328.591" y2="-326.795"/><linearGradient id="S" gradientTransform="matrix(-.564 -.911 -.774 .455 -516.113 -497.612)" x1="-672.284" x2="-666.958" xlink:href="#m" y1="-187.303" y2="-193.795"/><linearGradient id="T" gradientTransform="matrix(-.564 -.911 -.774 .455 -516.113 -497.612)" x1="-672.369" x2="-672.03" xlink:href="#m" y1="-188.603" y2="-189.016"/><linearGradient id="U" gradientTransform="matrix(-.564 -.911 -.774 .455 -516.113 -497.612)" x1="-672.516" x2="-673.044" xlink:href="#m" y1="-188.281" y2="-189.397"/><linearGradient id="V" gradientTransform="matrix(-.564 -.911 -.774 .455 -516.113 -497.612)" x1="-662.648" x2="-662.023" xlink:href="#d" y1="-197.148" y2="-197.94"/><linearGradient id="W" gradientTransform="matrix(-.947 -.323 -.148 .966 -476.554 -85.464)" x1="-503.367" x2="-503.501" xlink:href="#m" y1="-64.607" y2="-65.971"/><linearGradient id="X" gradientTransform="matrix(-.947 -.323 -.148 .966 -476.554 -85.464)" x1="-502.006" x2="-502.232" xlink:href="#m" y1="-66.361" y2="-68.654"/><linearGradient id="Y" gradientTransform="matrix(-.947 -.323 -.148 .966 -476.554 -85.464)" x1="-506.661" x2="-508.629" xlink:href="#m" y1="-70.591" y2="-69.911"/><linearGradient id="Z" gradientTransform="matrix(-.947 -.323 -.148 .966 -476.554 -85.464)" x1="-510.172" x2="-510.224" xlink:href="#m" y1="-69.414" y2="-68.47"/><linearGradient id="aa" gradientTransform="matrix(-.947 -.323 -.148 .966 -476.554 -85.464)" x1="-507.289" x2="-507.236" xlink:href="#d" y1="-64.705" y2="-67.768"/><linearGradient id="ab" gradientTransform="matrix(-.615 -.789 -.789 .615 -644.695 -286.477)" gradientUnits="userSpaceOnUse" x1="-642.337" x2="-640.048" y1="-337.231" y2="-335.435"><stop offset="0" stop-color="#ffdb57"/><stop offset="1" stop-color="#b66512"/></linearGradient><linearGradient id="ac" gradientTransform="matrix(-.79 -.614 -.614 .79 -612.222 -211.392)" x1="-628.479" x2="-627.663" xlink:href="#a" y1="-215.005" y2="-209.203"/><linearGradient id="ad" gradientTransform="matrix(-.79 -.614 -.614 .79 -612.222 -211.392)" x1="-633.006" x2="-622.552" xlink:href="#e" y1="-211.18" y2="-211.18"/><linearGradient id="ae" gradientTransform="matrix(-.79 -.614 -.614 .79 -612.222 -211.392)" x1="-627.491" x2="-627.755" xlink:href="#d" y1="-215.556" y2="-211.648"/><linearGradient id="af" gradientTransform="matrix(-.79 -.614 -.614 .79 -612.222 -211.392)" x1="-627.796" x2="-627.057" xlink:href="#d" y1="-210.705" y2="-205.186"/><linearGradient id="ag" gradientTransform="matrix(.99186781 .12727235 -.12727235 .99186781 -214.883 -165.485)" x1="245.815" x2="245.923" xlink:href="#e" y1="139.434" y2="136.367"/><linearGradient id="ah" gradientTransform="matrix(-.79 -.614 -.614 .79 -612.222 -211.392)" x1="-626.269" x2="-627.643" xlink:href="#d" y1="-215.112" y2="-213.078"/><path d="m13.372 16.416 5.013-2.464.93 1.893-.054.238-2.048 1.007 5.706 11.611-.221.359-1.543.758-.82-.45-5.459-11.109-.482.237z" fill="url(#a)"/><path d="m9.24 13.619 1.2 2.44c.072.146.416.252.617.292l2.634.683 4.609-2.268.867-2.342a.679.679 0 0 0 .036-.674l-1.2-2.44a.546.546 0 0 0 -.452-.3l-4.44.136a1.278 1.278 0 0 0 -1.018.541l-2.72 3.162a.916.916 0 0 0 -.133.77zm1.932.033a.356.356 0 0 1 .011-.334l1.84-2.215a.829.829 0 0 1 .66-.351l2.877-.088a.355.355 0 0 1 .293.2l.356.725a.242.242 0 0 1 -.139.339l-5.237 2.572a.224.224 0 0 1 -.3-.121z" fill="url(#b)"/><path d="m9.426 13.209 1.2 2.44c.072.146.416.252.617.292l2.7.547.782 1.591.375-.179 5.459 11.109.82.451 1.541-.76-.017-.683.868-1.458-.241-.49-.54.1-.31-.63.41-.366-.59-1.199-.593-.006-.277-.564.357-.473-.3-.607-.568.043-.432-.879.382-.423-.161-.327a.871.871 0 0 1 -.659-1.342l-.345-.7a1.347 1.347 0 0 1 -.962-1.956l-.29-.591.631-.31-.773-1.546.843-2.277a.68.68 0 0 0 .035-.674l-1.2-2.44a.546.546 0 0 0 -.453-.3l-4.435.131a1.278 1.278 0 0 0 -1.018.541l-2.84 3.419a.548.548 0 0 0 -.016.516zm1.932.033a.356.356 0 0 1 .011-.334l1.84-2.215a.828.828 0 0 1 .66-.351l2.877-.088a.354.354 0 0 1 .293.2l.356.725a.242.242 0 0 1 -.139.339l-5.238 2.574a.224.224 0 0 1 -.3-.121z" fill="url(#c)"/><path d="m14.47 18.381.276-.318.335-.164-.139.245z" fill="url(#d)"/><path d="m11.259 15.828 2.776.6 4.38-2.152.865-2.339a.576.576 0 0 0 .024-.567l-1.204-2.453a.441.441 0 0 0 -.367-.246l-4.438.13a1.169 1.169 0 0 0 -.938.5l-2.837 3.424a.447.447 0 0 0 -.011.414l1.206 2.453a1 1 0 0 0 .544.236zm.354-1.836-.358-.729a.463.463 0 0 1 .013-.434v-.008l1.853-2.221a.922.922 0 0 1 .739-.389l2.881-.084a.468.468 0 0 1 .392.257l.358.729c.005.009.19.3-.187.481l-5.244 2.577c-.272.129-.44-.164-.447-.179z" fill="url(#e)"/><path d="m11.246 15.738c.006 0 2.438.51 2.751.591l4.354-2.139c.028-.076.878-2.336.878-2.336a.472.472 0 0 0 .015-.458l-1.208-2.458a.337.337 0 0 0 -.282-.187l-4.454.141a1.083 1.083 0 0 0 -.864.46l-2.863 3.436a.341.341 0 0 0 -.008.313l1.206 2.454a1.118 1.118 0 0 0 .475.183zm.245-1.7-.355-.723a.568.568 0 0 1 .018-.535v-.008l.01-.015 1.865-2.241a1.033 1.033 0 0 1 .824-.43l2.9-.091a.575.575 0 0 1 .492.316l.359.73a.456.456 0 0 1 .027.338.484.484 0 0 1 -.265.286l-5.287 2.6a.415.415 0 0 1 -.331.025.486.486 0 0 1 -.258-.248z" fill="url(#f)"/><path d="m11.268 15.663c.009 0 2.53.528 2.722.577l4.3-2.113.878-2.314a.419.419 0 0 0 .01-.4l-1.2-2.436a.282.282 0 0 0 -.237-.156l-4.433.149a1.033 1.033 0 0 0 -.82.437l-2.353 2.823-.5.595a.285.285 0 0 0 0 .254l1.193 2.421a1.181 1.181 0 0 0 .44.163zm.14-1.529-.351-.715a.575.575 0 0 1 -.011-.56l1.959-2.36a1.082 1.082 0 0 1 .86-.447l2.887-.1a.628.628 0 0 1 .538.341l.356.724a.539.539 0 0 1 -.309.773l-5.267 2.588a.482.482 0 0 1 -.662-.243z" fill="url(#g)"/><path d="m18.463 14.345.7 1.433-.653.321.319.649a1.428 1.428 0 0 0 1 2.043l.3.619a.958.958 0 0 0 .706 1.436l.107.218-.39.428.5 1.011.577-.047.239.485-.366.478.336.683h.6l.523 1.065-.419.371.382.777.549-.1.181.368c-.042.088-.854 1.417-.854 1.417v.638l-1.342.659-.729-.414-5.488-11.176-.467.23-.7-1.433z" fill="url(#h)"/><path d="m14.289 15.413h4.622v1.4h-4.622z" fill="url(#i)" transform="matrix(.89748172 -.44105165 .44105165 .89748172 -5.405 8.973)"/><path d="m18.128 14.582-.8.392.617 1.256.8-.392zm-1.319.648.617 1.256.308-.152-.617-1.256z" fill="url(#j)"/><path d="m18.4 16.123.308.628a1.523 1.523 0 0 0 1.037 2.11l.263.535a1.052 1.052 0 0 0 .744 1.513l.054.111-.381.423.557 1.134.567-.043.177.36-.357.472.392.8.591.006.456.929-.409.366.45.917.539-.1.12.243-.874 1.473-1.027.5-5.525-11.235z" fill="url(#k)"/><path d="m17.141 16.745 5.528 11.248.046.511-1.247.613-.613-.349-5.483-11.154z" fill="url(#l)"/><path d="m22.287 28.694.427-.21-4.794-9.754-1.028-1.554.602 1.764z" fill="url(#m)"/><path d="m16.892 17.176 5.608 11.413-.213.105-4.793-9.754z" fill="url(#n)"/><path d="m21.481 29.09.427-.209-4.794-9.755-1.028-1.554.602 1.764z" fill="url(#o)"/><path d="m16.086 17.572 5.608 11.413-.213.105-4.793-9.754z" fill="url(#p)"/><path d="m18.27 16.189-.411.2 5.285 10.755.279-.47-.181-.369-.386.072-.45-.917.294-.26-.508-1.034h-.424l-.392-.8.256-.338-.237-.482-.407.031-.557-1.134.273-.3-.143-.291a1.038 1.038 0 0 1 -.619-1.259l-.391-.8a1.505 1.505 0 0 1 -.906-1.844zm-.68.334 5.371 10.929.108-.182-5.319-10.825z" fill="url(#q)"/><path d="m15.018 18.247 5.356 10.997.196-.273-5.391-11.032z" fill="url(#r)"/><path d="m20.436 29.315.211-.291.705.361-.203.294z" fill="url(#s)"/><path d="m21.446 29.41-.179.26 1.382-.659.131-.241z" fill="url(#t)"/><path d="m14.029 16.673-.225.388.601 1.293.297-.354z" fill="url(#u)"/><path d="m13.946 16.506-.239.432-2.944-.761.124-.345z" fill="url(#v)"/><path d="m9.359 13s-.145.444-.087.563l1.212 2.465.2-.384z" fill="url(#w)"/><path d="m16.683 10.624.1-.327-2.963.095a.914.914 0 0 0 -.51.251l-.007.165a1.871 1.871 0 0 1 .394-.1z" fill="url(#x)"/><path d="m16.83 10.309a.329.329 0 0 1 .17.137c.047.095.358.714.382.762l-.164.279-.341-.693c-.023-.047-.108-.145-.147-.149z" fill="url(#y)"/><path d="m11.237 13.786.171.348a.482.482 0 0 0 .661.248l5.267-2.588a.539.539 0 0 0 .309-.773l-.153-.31 1.08-.531.606 1.232a.419.419 0 0 1 -.01.4l-.878 2.314-4.3 2.113c-.191-.049-2.713-.575-2.722-.577a1.181 1.181 0 0 1 -.439-.16l-.6-1.222z" fill="url(#z)"/><path d="m13.377 8.968.532 1.084.539-.018-.532-1.084zm2.306-.077-1.395.047.533 1.084 1.4-.046zm1.471 2.994-1.142.561 1.106 2.25 1.142-.561zm-1.447.711-.441.217 1.106 2.251.441-.217z" fill="url(#A)"/><path d="m10.65 14.159 5.287 1.803-.314 2.038-.173.134-2.16-.737-1.921 12.501-.371.102-1.627-.555-.395-.913 1.838-11.961-.508-.173z" fill="url(#B)"/><path d="m8.951 9.175-.542 2.747a.567.567 0 0 0 .175.452l1.976 2.461 4.866 1.659 1.969-1.077a.535.535 0 0 0 .4-.463l.4-2.627a.659.659 0 0 0 -.188-.544l-3.554-3.083a1.313 1.313 0 0 0 -1.1-.337l-3.874.345a.707.707 0 0 0 -.528.467zm1.5 1.407a.281.281 0 0 1 .192-.234l2.633-.256a.928.928 0 0 1 .724.315l2.3 2a.426.426 0 0 1 .121.352l-.1.651s-.027.237-.3.146l-5.521-1.889a.269.269 0 0 1 -.172-.305z" fill="url(#C)"/><path d="m9.322 9.01-.4 2.627c-.024.157.188.481.324.653l1.817 2.33-.263 1.714.392.134-1.843 11.959.395.914 1.627.555.363-.507 1.483-.436.081-.528-.479-.314.1-.678.523.028.2-1.283-.461-.428.093-.608.54-.087.1-.653-.469-.375.145-.946.532-.034.054-.352a1.047 1.047 0 0 1 -.29-.859.688.688 0 0 1 .512-.585l.116-.756a1.6 1.6 0 0 1 -.364-1.232 1.07 1.07 0 0 1 .688-.874l.1-.636.666.227.246-1.674 1.915-1.047a.535.535 0 0 0 .4-.463l.4-2.627a.657.657 0 0 0 -.188-.544l-3.556-3.08a1.313 1.313 0 0 0 -1.1-.336l-4.109.445a.434.434 0 0 0 -.29.356zm1.5 1.407a.281.281 0 0 1 .192-.234l2.663-.289a.852.852 0 0 1 .711.218l2.3 2a.427.427 0 0 1 .122.352l-.12.781s-.027.237-.3.146l-5.519-1.891a.269.269 0 0 1 -.171-.3z" fill="url(#D)"/><path d="m10.428 16.37.392-.033.353.12-.244.078z" fill="url(#E)"/><path d="m9.317 12.221 1.846 2.421 4.619 1.575 1.967-1.076a.454.454 0 0 0 .331-.393l.406-2.641a.53.53 0 0 0 -.152-.441l-3.552-3.083a1.207 1.207 0 0 0 -1.011-.31l-4.109.453a.354.354 0 0 0 -.237.292l-.405 2.641a1.261 1.261 0 0 0 .297.562zm1.289-1.077.121-.785a.367.367 0 0 1 .25-.305h.008l2.675-.295a.953.953 0 0 1 .794.247l2.3 2a.563.563 0 0 1 .166.467l-.121.785c0 .01-.014.35-.411.215l-5.53-1.886a.423.423 0 0 1 -.252-.443z" fill="url(#F)"/><path d="m9.356 12.146c0 .005 1.63 2.115 1.831 2.4l4.591 1.566 1.974-1.065a.372.372 0 0 0 .264-.321l.406-2.646a.405.405 0 0 0 -.118-.338l-3.571-3.091a1.117 1.117 0 0 0 -.931-.285l-4.133.444a.271.271 0 0 0 -.179.221l-.406 2.642a1.421 1.421 0 0 0 .272.473zm1.126-1.054.12-.778a.451.451 0 0 1 .309-.375h.008.016l2.7-.29a1.07 1.07 0 0 1 .883.278l2.324 2.01a.694.694 0 0 1 .212.581l-.121.786a.38.38 0 0 1 -.165.265.417.417 0 0 1 -.365.018l-5.576-1.9a.5.5 0 0 1 -.273-.219.55.55 0 0 1 -.072-.377z" fill="url(#G)"/><path d="m9.415 12.108c.006.008 1.693 2.194 1.816 2.366l4.535 1.546 1.963-1.048a.33.33 0 0 0 .228-.282l.4-2.623a.339.339 0 0 0 -.1-.283l-3.557-3.065a1.066 1.066 0 0 0 -.884-.271l-3.4.359-.716.076a.226.226 0 0 0 -.142.183s-.4 2.594-.4 2.611a1.506 1.506 0 0 0 .257.431zm.952-1.007.118-.77a.463.463 0 0 1 .3-.414l2.836-.308a1.12 1.12 0 0 1 .921.292l2.316 2a.758.758 0 0 1 .234.632s-.1.633-.12.779c-.034.219-.191.5-.668.339l-5.555-1.894a.584.584 0 0 1 -.383-.657z" fill="url(#H)"/><path d="m15.781 16.3-.237 1.543-.689-.235-.107.7a1.158 1.158 0 0 0 -.7.917 1.723 1.723 0 0 0 .367 1.283l-.1.666a.765.765 0 0 0 -.527.634 1.154 1.154 0 0 0 .29.912l-.036.235-.542.031-.167 1.088.479.379-.08.522-.55.084-.113.736.471.432-.176 1.146-.532-.031-.128.837.488.317-.061.4c-.09.027-1.455.411-1.455.411l-.352.462-1.424-.483-.343-.822 1.843-12.03-.493-.168.237-1.543z" fill="url(#I)"/><path d="m11.056 16.181 4.374 1.491.208-1.352-4.374-1.492z" fill="url(#J)"/><path d="m15.388 16.234-.842-.287-.207 1.353.841.287zm-1.388-.474-.208 1.353.325.111.208-1.353z" fill="url(#K)"/><path d="m14.756 17.55-.1.676a1.251 1.251 0 0 0 -.7.957 1.845 1.845 0 0 0 .344 1.317l-.089.576a.844.844 0 0 0 -.525.678 1.256 1.256 0 0 0 .275.95l-.018.119-.531.034-.188 1.221.469.375-.06.388-.539.087-.132.858.46.427-.154 1-.522-.028-.152.987.478.314-.04.262-1.506.443-1.083-.369 1.86-12.1z" fill="url(#L)"/><path d="m13.423 17.1-1.86 12.1-.246.4-1.317-.44-.289-.692 1.845-12.009z" fill="url(#M)"/><path d="m10.877 29.44.45.154 1.614-10.501.049-1.863-.499 1.709z" fill="url(#N)"/><path d="m12.99 17.23-1.888 12.287-.225-.077 1.614-10.501z" fill="url(#O)"/><path d="m10.028 29.151.449.153 1.614-10.501.049-1.863-.499 1.71z" fill="url(#P)"/><path d="m12.14 16.94-1.887 12.287-.225-.076 1.613-10.501z" fill="url(#Q)"/><path d="m14.615 17.5-.433-.148-1.782 11.58.478-.14.061-.4-.339-.222.152-.987.374.02.171-1.113-.33-.306.132-.858.387-.062.08-.519-.336-.268.188-1.221.381-.024.048-.314a1.2 1.2 0 0 1 -.154-.766.85.85 0 0 1 .363-.59l.132-.856a1.79 1.79 0 0 1 -.231-1.123 1.261 1.261 0 0 1 .536-.861zm-.717-.244-1.808 11.768.185-.054 1.791-11.655z" fill="url(#R)"/><path d="m10.932 16.665-1.857 11.805.303-.058 1.85-11.855z" fill="url(#S)"/><path d="m9.085 28.566.325-.06.354.766-.321.068z" fill="url(#T)"/><path d="m9.823 29.357-.283.06 1.447.513.235-.081z" fill="url(#U)"/><path d="m11.024 14.816-.391.12-.241 1.367.429-.043z" fill="url(#V)"/><path d="m11.05 14.636-.425.141-2.084-2.606.483-.214z" fill="url(#W)"/><path d="m9.384 8.813s-.358.218-.378.346l-.546 2.773.51-.253z" fill="url(#X)"/><path d="m16.435 12.332.256-.168-2.375-2.052a.962.962 0 0 0 -.538-.183l-.1.115a2.143 2.143 0 0 1 .362.211z" fill="url(#Y)"/><path d="m16.724 12.208a.393.393 0 0 1 .058.221c-.016.1-.112.774-.12.825l-.283.085s.107-.7.115-.747a.4.4 0 0 0 -.033-.213z" fill="url(#Z)"/><path d="m10.424 10.725-.058.375a.584.584 0 0 0 .381.653l5.553 1.894c.478.163.634-.12.668-.339l.051-.334 1.139.388-.2 1.327a.33.33 0 0 1 -.228.282l-1.963 1.048-4.535-1.546c-.123-.173-1.81-2.359-1.816-2.366a1.506 1.506 0 0 1 -.257-.43l.2-1.315z" fill="url(#aa)"/><path d="m14.756 8.764-.179 1.166.432.373.179-1.167zm1.851 1.595-1.119-.965-.179 1.167 1.119.965zm-.5 3.223-1.2-.411-.372 2.423 1.2.411zm-1.526-.52-.461-.162-.372 2.423.465.159z" fill="url(#ab)"/><path d="m9.936 2.733c2.042-1.441 5.206-.715 7.065 1.8a6.169 6.169 0 0 1 1.269 4.567c-.219-.73-1.023-.427-1.664-.441a4.11 4.11 0 0 0 -.763-3.207c-1.243-1.674-3.433-2.352-4.773-1.358s-1.382 3.253-.143 4.929a3.68 3.68 0 0 0 3.69 1.742c.521.444 1 .871 1.507 1.329-1.84 1.134-4.8.334-6.51-1.982-1.86-2.512-1.93-5.789.322-7.379z" fill="url(#ac)"/><path d="m9.956 2.841c1.939-1.405 5.111-.606 6.892 1.8a6.587 6.587 0 0 1 1.38 4.159c-.293-.387-1.035-.264-1.466-.211a4.6 4.6 0 0 0 -.823-3.272c-1.317-1.78-3.546-2.373-4.97-1.32s-1.442 3.27-.125 5.051a4.034 4.034 0 0 0 3.842 1.905c.4.35.79.715 1.185 1.073-1.982 1.012-4.528.084-6.123-2.073-1.782-2.408-1.897-5.587.208-7.112z" fill="url(#ad)"/><path d="m10.1 2.918c1.855-1.345 4.971-.5 6.675 1.8a6.635 6.635 0 0 1 1.361 3.89 1.872 1.872 0 0 0 -1.148-.126 4.555 4.555 0 0 0 -.946-3.23c-1.394-1.885-3.6-2.472-5.1-1.357s-1.511 3.279-.171 5.2a4.075 4.075 0 0 0 3.976 1.973c.323.285.639.58.957.871-1.939.959-4.394-.1-5.893-2.131-1.711-2.297-1.711-5.445.289-6.89z" fill="url(#ae)"/><path d="m9.684 3.412c-1.084 1.557-.859 4.088.616 6.082 1.413 1.911 3.466 2.885 5.249 2.443-1.694.674-4.074-.233-5.554-2.235-1.54-2.081-1.66-4.783-.311-6.29z" fill="url(#af)"/><path d="m9.9 3.511c-.171.291.366.627.547.144a4.29 4.29 0 0 1 2.442-1.222 3.558 3.558 0 0 0 -2.989 1.078zm.077.506a.244.244 0 1 0 .211.273.243.243 0 0 0 -.213-.273z" fill="url(#ag)"/><path d="m11.035 3.763c1.4-1.181 3.664-.647 5.163 1.132a4.723 4.723 0 0 1 1.2 3.542c-.136.014-.273.03-.411.048a4.555 4.555 0 0 0 -.946-3.23c-1.394-1.885-3.6-2.472-5.1-1.357-.071.053-.136.11-.2.167a2.672 2.672 0 0 1 .294-.302z" fill="url(#ah)"/></svg>