<svg xmlns="http://www.w3.org/2000/svg" viewBox="0 0 32 32"><title>file_type_html</title><polygon points="5.902 27.201 3.655 2 28.345 2 26.095 27.197 15.985 30 5.902 27.201" style="fill:#e44f26"/><polygon points="16 27.858 24.17 25.593 26.092 4.061 16 4.061 16 27.858" style="fill:#f1662a"/><polygon points="16 13.407 11.91 13.407 11.628 10.242 16 10.242 16 7.151 15.989 7.151 8.25 7.151 8.324 7.981 9.083 16.498 16 16.498 16 13.407" style="fill:#ebebeb"/><polygon points="16 21.434 15.986 21.438 12.544 20.509 12.324 18.044 10.651 18.044 9.221 18.044 9.654 22.896 15.986 24.654 16 24.65 16 21.434" style="fill:#ebebeb"/><polygon points="15.989 13.407 15.989 16.498 19.795 16.498 19.437 20.507 15.989 21.437 15.989 24.653 22.326 22.896 22.372 22.374 23.098 14.237 23.174 13.407 22.341 13.407 15.989 13.407" style="fill:#fff"/><polygon points="15.989 7.151 15.989 9.071 15.989 10.235 15.989 10.242 23.445 10.242 23.445 10.242 23.455 10.242 23.517 9.548 23.658 7.981 23.732 7.151 15.989 7.151" style="fill:#fff"/><path d="M27.075,25.107l.363-.361c1.68.055,1.706,0,1.78-.177l.462-1.124.034-.107-.038-.093c-.02-.049-.081-.2-1.13-1.2v-.526c1.211-1.166,1.185-1.226,1.116-1.4l-.46-1.136c-.069-.17-.1-.237-1.763-.191l-.364-.367a8.138,8.138,0,0,0-.057-1.657l-.047-.106-1.2-.525c-.177-.081-.239-.11-1.372,1.124l-.509-.008c-1.167-1.245-1.222-1.223-1.4-1.152l-1.115.452c-.175.071-.236.1-.169,1.79l-.36.359c-1.68-.055-1.7,0-1.778.177L18.606,20l-.036.108.038.094c.02.048.078.194,1.13,1.2v.525c-1.211,1.166-1.184,1.226-1.115,1.4l.459,1.137c.07.174.1.236,1.763.192l.363.377a8.169,8.169,0,0,0,.055,1.654l.047.107,1.208.528c.176.073.236.1,1.366-1.13l.509.006c1.168,1.247,1.228,1.223,1.4,1.154l1.113-.45C27.082,26.827,27.143,26.8,27.075,25.107Zm-4.788-2.632a2,2,0,1,1,2.618,1.14A2.023,2.023,0,0,1,22.287,22.475Z" fill="#99b8c4"/></svg>