<svg xmlns="http://www.w3.org/2000/svg" viewBox="0 0 32 32"><path fill="#fe4a3c" d="M16 2.03a14 14 0 0 0-10.97 22.7 28 28 0 0 1 5.21-5.85q.1-.09.4-.27a4 4 0 0 0 1.6-2.64v-.03c.52-3.42 1.91-4.6 5.82-4.6.33 0 .73 0 1.1.02 2 .1 3.14.67 3.26.97.1.15.07.34.03.52l-.15-.03c-1.24-.15-3.12.21-3.4 1.57-.14.76.04 1.61.1 2.37q.15 1.2.15 2.4c0 .05-.06.36 0 .39-2.12-2.03-7.03.51-8.57 1.63l.48-.18c1.49-.52 5.94-1.85 7.67-.36 1.45 1.78.15 5.09-.94 6.72q-.98 1.46-2.3 2.61H16a14 14 0 0 0 14-14c0-7.73-6.24-13.94-14-13.94m1.6 7.58a2.77 2.77 0 0 1-2.75-2.76 2.77 2.77 0 0 1 2.76-2.76 2.77 2.77 0 0 1 2.75 2.76 2.75 2.75 0 0 1-2.75 2.76"/></svg>