<svg viewBox="0 0 32 32" xmlns="http://www.w3.org/2000/svg"><path d="m22.395 9.855a3.372 3.372 0 0 1 1.694.976 4.46 4.46 0 0 1 .649.868c.009.034-1.169.825-1.883 1.268-.026.017-.129-.095-.245-.267a1.535 1.535 0 0 0 -1.273-.765c-.821-.056-1.35.374-1.346 1.092a.993.993 0 0 0 .116.507c.181.374.516.6 1.569 1.053 1.939.834 2.769 1.384 3.285 2.167a3.93 3.93 0 0 1 .314 3.3 3.631 3.631 0 0 1 -3 2.145 8.3 8.3 0 0 1 -2.064-.021 4.977 4.977 0 0 1 -2.756-1.436 4.785 4.785 0 0 1 -.705-1.045 2.024 2.024 0 0 1 .25-.156c.12-.069.576-.331 1.006-.58l.778-.451.163.241a3.636 3.636 0 0 0 1.028.985 2.515 2.515 0 0 0 2.636-.133 1.177 1.177 0 0 0 .15-1.5c-.211-.3-.641-.555-1.862-1.083a6.7 6.7 0 0 1 -2.55-1.569 3.572 3.572 0 0 1 -.744-1.354 5.423 5.423 0 0 1 -.047-1.728 3.3 3.3 0 0 1 2.782-2.575 6.861 6.861 0 0 1 2.055.061zm-6.359 1.131.009 1.109h-3.526v10.017h-2.494v-10.017h-3.525v-1.088a10.659 10.659 0 0 1 .03-1.118c.013-.017 2.158-.026 4.759-.021l4.734.013z" fill="#007acc"/><path d="m2 15.17c1.844 0 2.1-1.223 2.1-2.322a22.044 22.044 0 0 0 -.209-2.633 22.058 22.058 0 0 1 -.203-2.605c0-2.886 1.559-4.11 3.767-4.11h.545v1.727h-.467c-1.533 0-2.051 1-2.051 2.7a16.225 16.225 0 0 0 .182 2.227 17.645 17.645 0 0 1 .182 2.383c.025 2.008-.7 3.011-1.872 3.389v.061c1.17.345 1.9 1.412 1.872 3.42a17.2 17.2 0 0 1 -.182 2.383 16.668 16.668 0 0 0 -.182 2.26c0 1.755.6 2.728 2.051 2.728h.467v1.722h-.546c-2.155 0-3.767-1.129-3.767-4.3a21.463 21.463 0 0 1 .207-2.572 20.586 20.586 0 0 0 .206-2.537c0-.973-.26-2.322-2.1-2.322z" fill="#33a9dc"/><path d="m29.937 16.815c-1.844 0-2.1 1.348-2.1 2.321a21 21 0 0 0 .207 2.541 21.076 21.076 0 0 1 .209 2.572c0 3.167-1.637 4.3-3.767 4.3h-.546v-1.728h.442c1.455-.031 2.077-.973 2.077-2.728 0-.753-.1-1.476-.182-2.26a17.087 17.087 0 0 1 -.207-2.383c0-2.007.728-3.075 1.87-3.42v-.06c-1.142-.378-1.87-1.382-1.87-3.389a17.582 17.582 0 0 1 .207-2.383 22.114 22.114 0 0 0 .182-2.227c0-1.693-.546-2.666-2.051-2.7h-.467v-1.723h.52c2.208 0 3.792 1.223 3.792 4.109a21.618 21.618 0 0 1 -.209 2.6 22.484 22.484 0 0 0 -.207 2.633c0 1.1.26 2.321 2.1 2.321z" fill="#33a9dc"/><path d="m13.595 26.5-1.19-1.368-1.191 1.367-1.198-1.369-1.197 1.368-1.195-1.368-.767.878-.857-.647 1.624-1.86 1.195 1.369 1.197-1.368 1.196 1.368 1.193-1.37 1.192 1.368 1.191-1.366 1.199 1.369 1.196-1.37 1.196 1.37 1.2-1.368 1.197 1.368 1.2-1.369 1.195 1.369 1.199-1.367 1.63 1.855-.856.65-.774-.881-1.202 1.369-1.194-1.367-1.199 1.367-1.197-1.368-1.201 1.368-1.194-1.367-1.195 1.367-1.198-1.367z" fill="#c1272d"/></svg>