<?xml version="1.0" encoding="UTF-8"?>
<svg width="1067px" height="415px" viewBox="0 0 1067 415" version="1.1" xmlns="http://www.w3.org/2000/svg" xmlns:xlink="http://www.w3.org/1999/xlink">
    <!-- Generator: Sketch 41.2 (35397) - http://www.bohemiancoding.com/sketch -->
    <title>Shape</title>
    <desc>Created with Sketch.</desc>
    <defs></defs>
    <g id="Page-1" stroke="none" stroke-width="1" fill="none" fill-rule="evenodd">
        <path d="M0,0 L1067,0 L1067,355.714286 L533.5,355.714286 L533.5,415 L296.388889,415 L296.388889,355.714286 L0,355.714286 L0,0 Z M59.2777778,296.428571 L177.833333,296.428571 L177.833333,118.571429 L237.111111,118.571429 L237.111111,296.428571 L296.388889,296.428571 L296.388889,59.2857143 L59.2777778,59.2857143 L59.2777778,296.428571 Z M355.666667,59.2857143 L355.666667,355.714286 L474.222222,355.714286 L474.222222,296.428571 L592.777778,296.428571 L592.777778,59.2857143 L355.666667,59.2857143 Z M474.222222,118.571429 L533.5,118.571429 L533.5,237.142857 L474.222222,237.142857 L474.222222,118.571429 Z M652.055556,59.2857143 L652.055556,296.428571 L770.611111,296.428571 L770.611111,118.571429 L829.888889,118.571429 L829.888889,296.428571 L889.166667,296.428571 L889.166667,118.571429 L948.444444,118.571429 L948.444444,296.428571 L1007.72222,296.428571 L1007.72222,59.2857143 L652.055556,59.2857143 Z" id="Shape" fill="#CB3837"></path>
    </g>
</svg>