<svg xmlns="http://www.w3.org/2000/svg" width="28.113" height="32" viewBox="0 0 7.4383 8.4666"><g fill="#222"><path fill="#69a658" d="m3.65 8-1.58-.97L.54 6.1v-.51l.01-1.92V2.26l1.34-.8L3.48.5l.26-.16.4.25 1.59.96 1.16.72V5.7l-.01.43-.38.22a6959.7 6959.7 0 0 0-2.8 1.68l-.05-.04z"/><path d="M2.5 3.9c-.06.04-.07.13 0 .16.04.02.09.01.11-.03a.09.09 0 0 0-.1-.12zm.45.07a.1.1 0 0 0 0 .17c.06.04.14-.01.14-.09 0-.07-.08-.12-.14-.08zm.57-2.56-.09.01a2.63 2.63 0 0 0-1.73.96A2.84 2.84 0 0 0 2 6.3a2.62 2.62 0 0 0 2.05.64 2.62 2.62 0 0 0 1.71-.96 2.84 2.84 0 0 0-.3-3.91 2.62 2.62 0 0 0-1.94-.65zm.03.3a12.1 12.1 0 0 0 .03.67l.03.82v.05h-.03a.1.1 0 0 1-.03-.01l-.01-.1-.05-1.33v-.15h.01a.6.6 0 0 1 .04 0h.01zm.63-.02a48.33 48.33 0 0 1 .01 1h-.07v-.2a41.97 41.97 0 0 0-.01-.8h.07zm-1.51.23a33.36 33.36 0 0 1 .08 1.26.11.11 0 0 1-.03.01v-.04a77.64 77.64 0 0 1-.09-1.23h.04zm1.8.13c.02.01.02.01.02.05v.4c-.02 0-.06-.03-.06-.04v-.21c0-.23 0-.21.04-.2zm-1.21.04.01.22.01.3c0 .12 0 .12-.03.12s-.03 0-.03-.03v-.14L3.2 2.3a7.47 7.47 0 0 0 0-.24h.04c.02 0 .02 0 .02.03zm1.81.09h.03v.49l-.03-.02-.02-.01v-.46h.02zm-1.19.09.01.5v.1h-.06l-.02-.56v-.05h.07zm1.5.05.02.98a6.27 6.27 0 0 1-.04.96l-.01-.9v-.99l-.01-.1.02.02a.2.2 0 0 1 .03.03zm-.58.14V3.62l-.02-.01-.02-.01V2.44h.02l.02.02zM3 2.49a2.44 2.44 0 0 1 .01.27c.01.12 0 .12-.03.12-.02 0-.02 0-.02-.02l-.03-.38.05-.02.01.03zm-1.09.18a66.76 66.76 0 0 1 .06.55s-.05.03-.06.02l-.07-.63c0-.02.05-.08.06-.08l.01.14zm2.57.07.02.01v.35c0 .06 0 .07-.04.06l-.02-.01v-.27l-.01-.15h.05zM2.2 3l.04.5.03.25-.03.02-.02.03v-.06a48.56 48.56 0 0 0-.08-.76l-.02-.2.03-.02c.02-.02.02-.02.03 0L2.2 3zm-.49.09.09.79.06.64a14.31 14.31 0 0 0 .02.28h-.02l-.01-.12a278.02 278.02 0 0 1-.12-.92l-.04-.34a83.23 83.23 0 0 1-.06-.5c0-.02.05-.09.05-.08l.03.25zm-.2.29.04.33.04.28v.1l-.02.01-.02-.06-.05-.38-.05-.34.02-.04c0-.03.02-.05.02-.05l.02.15zm3.59-.09.01.36v.36h-.02c-.04 0-.04 0-.04-.38v-.35h.02l.03.01zm-1.43.12c.15.02.27.07.4.14.08.04.12.07.22.16.13.14.22.26.3.42.1.25.15.46.2 1.04a21.04 21.04 0 0 1 .09 1.13c0 .12.01.1-.09.15-.14.07-.28.12-.45.17-.22.05-.36.07-.58.07H3.6v-.08l.01-.22a9.07 9.07 0 0 0-.07-1.5l.08-.04c.12-.04.22-.1.24-.12.03-.05-.02-.12-.09-.12a2.4 2.4 0 0 1-.68.2c-.12 0-.3 0-.43-.03-.07 0-.19-.06-.3-.11-.11-.07-.18-.15-.2-.25a.64.64 0 0 1 0-.23.74.74 0 0 1 .1-.22c.2-.25.58-.47.97-.55.13-.03.3-.03.44 0zm2.02.02c.02.01.02.02.02.04v.63h-.05l-.01-.34v-.34l.04.01zm.28.38H6v.57a3 3 0 0 1-.03.8c-.04.1-.04.12-.04-.32a38.96 38.96 0 0 1 .02-1.06h.03zm-3.93.17c0 .05 0 .06-.02.1L2 4.13v-.07c-.02-.11-.02-.12 0-.13l.03-.01v.06zm-.4.4a59.13 59.13 0 0 0 .06.7l-.1-.73c.02 0 .03 0 .04.04zm.47.32.02.22c0 .02-.02.04-.04.03l-.01-.13-.02-.16v-.03l.02.03.03.04zm.52.25c.01.01.02.04.02.11.01.13.01.12-.01.12-.03 0-.03 0-.04-.11v-.12h.03zm.52.01v.1a11.54 11.54 0 0 0 .03.52l-.03-.2a14.94 14.94 0 0 0-.03-.42h.03zm-1.23.14a11.84 11.84 0 0 1 .08.7v.04L2 5.83l-.02-.04a9.37 9.37 0 0 0-.07-.69c0-.01.02-.02.02 0zm3.78.28v.28l-.03.03c-.03.06-.03.07-.03-.25v-.3l.03-.02a.13.13 0 0 1 .03-.02v.28zm-.61.45v.44h-.02a25.88 25.88 0 0 1 0-.87c.02 0 .02.05.02.43zm-2.13-.27a16.42 16.42 0 0 1 .01.41h-.02l-.03-.39v-.06h.01c.02 0 .02 0 .03.04zm-.52.24v.04a5.62 5.62 0 0 0 .04.5l-.03-.04v-.07a3.51 3.51 0 0 1 0-.43zm.31.46v.12c.01.1.01.1-.02.09l-.02-.11c-.01-.14-.01-.14.01-.13.02 0 .03 0 .03.03z"/></g></svg>
