<svg viewBox="0 0 32 32" xmlns="http://www.w3.org/2000/svg" xmlns:xlink="http://www.w3.org/1999/xlink"><linearGradient id="a" gradientTransform="matrix(1 0 0 -1 0 -96)" gradientUnits="userSpaceOnUse" x1="23.325" x2="7.26" y1="-118.543" y2="-104.193"><stop offset="0" stop-color="#5391fe"/><stop offset="1" stop-color="#3e6dbf"/></linearGradient><linearGradient id="b" x1="7.1" x2="23.001" xlink:href="#a" y1="-104.002" y2="-118.292"/><g fill-rule="evenodd"><path d="m3.174 26.589a1.154 1.154 0 0 1 -.928-.423 1.234 1.234 0 0 1 -.21-1.052l4.197-18.334a1.8 1.8 0 0 1 1.681-1.37h20.912a1.157 1.157 0 0 1 .928.423 1.235 1.235 0 0 1 .21 1.052l-4.2 18.335a1.8 1.8 0 0 1 -1.681 1.37h-20.909z" fill="url(#a)"/><path d="m7.914 5.646h20.912a.913.913 0 0 1 .908 1.187l-4.2 18.334a1.575 1.575 0 0 1 -1.451 1.187h-20.909a.913.913 0 0 1 -.908-1.187l4.2-18.334a1.574 1.574 0 0 1 1.448-1.187z" fill="url(#b)"/><path d="m16.04 21.544h5.086a1.118 1.118 0 0 1 0 2.234h-5.086a1.118 1.118 0 0 1 0-2.234z" fill="#2c5591"/><path d="m19.339 16.578a1.762 1.762 0 0 1 -.591.6l-9.439 6.775a1.224 1.224 0 0 1 -1.438-1.977l8.512-6.164v-.126l-5.348-5.686a1.224 1.224 0 0 1 1.782-1.672l6.418 6.827a1.166 1.166 0 0 1 .104 1.423z" fill="#2c5591"/><g fill="#fff"><path d="m19.1 16.342a1.749 1.749 0 0 1 -.59.6l-9.436 6.776a1.225 1.225 0 0 1 -1.439-1.977l8.513-6.164v-.127l-5.348-5.689a1.224 1.224 0 0 1 1.783-1.672l6.417 6.827a1.162 1.162 0 0 1 .1 1.426z"/><path d="m15.9 21.412h5.086a1.059 1.059 0 1 1 0 2.118h-5.086a1.059 1.059 0 1 1 0-2.118z"/></g></g></svg>