<svg viewBox="0 0 32 32" xmlns="http://www.w3.org/2000/svg" xmlns:xlink="http://www.w3.org/1999/xlink"><linearGradient id="a" gradientUnits="userSpaceOnUse" x1="4.416" x2="13.909" y1="7.78" y2="24.221"><stop offset="0" stop-color="#b72c3f"/><stop offset=".5" stop-color="#b12334"/><stop offset="1" stop-color="#9d1623"/></linearGradient><path d="m8.512 20v6.667c0 1.84 4.81 3.333 10.744 3.333s10.744-1.493 10.744-3.333v-6.667z" fill="#881421"/><path d="m8.512 12.667v7.333c0 1.841 4.81 3.333 10.744 3.333s10.744-1.492 10.744-3.333v-7.333z" fill="#af2031"/><path d="m8.512 5.333v7.334c0 1.84 4.81 3.333 10.744 3.333s10.744-1.493 10.744-3.333v-7.334z" fill="#c94f60"/><ellipse cx="19.256" cy="5.333" fill="#e08095" rx="10.744" ry="3.333"/><path d="m16.434 8h-7.922v16.667h7.922a1.212 1.212 0 0 0 1.194-1.222v-14.223a1.212 1.212 0 0 0 -1.194-1.222z" opacity=".1"/><path d="m15.783 8.667h-7.271v16.666h7.271a1.212 1.212 0 0 0 1.194-1.222v-14.222a1.212 1.212 0 0 0 -1.194-1.222z" opacity=".2"/><path d="m15.783 8.667h-7.271v15.333h7.271a1.212 1.212 0 0 0 1.194-1.222v-12.889a1.212 1.212 0 0 0 -1.194-1.222z" opacity=".2"/><path d="m15.132 8.667h-6.62v15.333h6.62a1.213 1.213 0 0 0 1.194-1.222v-12.889a1.213 1.213 0 0 0 -1.194-1.222z" opacity=".2"/><path d="m3.194 8.667h11.938a1.208 1.208 0 0 1 1.194 1.222v12.222a1.208 1.208 0 0 1 -1.194 1.222h-11.938a1.208 1.208 0 0 1 -1.194-1.222v-12.222a1.208 1.208 0 0 1 1.194-1.222z" fill="url(#a)"/><path d="m8.305 12.027h1.758l2.825 7.945h-1.66l-.623-1.895h-2.905l-.611 1.895h-1.652zm1.926 4.826-.9-2.875a3.812 3.812 0 0 1 -.165-.649h-.036a3.729 3.729 0 0 1 -.162.671l-.912 2.859z" fill="#fff"/></svg>