<svg xmlns="http://www.w3.org/2000/svg" viewBox="0 0 32 32"><path d="M9.68,4.63A2.65,2.65,0,0,0,9.34,5s0,0,0,0S9,5.32,9,5.35s0,0,0,0-.21.15-.21.21,0,0,0,0-.11.06-.09.09,0,0,0,0a.39.39,0,0,0-.2.2s0,0,0,0a3.79,3.79,0,0,0-.65.6A14.27,14.27,0,0,1,6.67,7.61s0,0,0,0,0,0,0,0,0,0,0,.09,0,0,0,0,0,0,0,0,0,0,0,0-.11.06-.21.16c-.27.29-.62.64-.88.88l-.22.22s0,0-.08.09a3.59,3.59,0,0,0-.63.68A.09.09,0,0,1,4.4,10a0,0,0,0,0-.05.05s0,0,0,0a3.11,3.11,0,0,0-.61.59s0,0,0,0a.67.67,0,0,0-.2.17c-.44.45-.7.72-.71.72l-.29.28-.28.28v7.78c0,5.33,0,7.81,0,7.85s.1.08.21-.06.11-.12.13-.12,0,0,0,0,0-.05,0,0S5.12,25,6.87,23.27l1.2-1.19c.5-.51.91-.93.9-.95s0,0,0,0,.21-.13.18-.18,0,0,0,0,.17-.1.17-.16,0,0,0,0,.74-.72.72-.83,0-3.61,0-7.88,0-7.76,0-7.75a4,4,0,0,0-.37.34Zm11.68.07a3,3,0,0,0-.42.47s0,0,0,0-1.06,1-2.39,2.33L17.22,8.84,16,10v7.89c0,4.34,0,7.89,0,7.89s.18-.16.16-.18,0,0,0,0a.92.92,0,0,0,.26-.24c.12-.13.31-.32.43-.43l.67-.68.68-.67c.58-.57,1-1,1-1s.12-.13.28-.3a2.18,2.18,0,0,1,.33-.3s0,0,0,0,0,0,0,0,.12-.06.12-.11,0,0,0,0,.2-.14.18-.16,0,0,0,0,.1-.08.08-.1,0,0,0,0,.05,0,0,0,0,0,0,0,.36-.32.75-.71l.71-.7V12.2c0-4.3,0-7.84,0-7.87s0-.07-.48.37Z" style="fill:#d23e31"/><path d="M10.07,4.25s0,0,0,0,.05,0,.05,0,0,0-.05,0S10.07,4.23,10.07,4.25Zm.09,0s0,3.57,0,7.9v7.87l1.41,1.38c1.17,1.15,2.93,2.9,3.64,3.59l.45.47a2,2,0,0,0,.32.3s0-1.6,0-7.88V10l-.15-.14c-.09-.07-.24-.23-.36-.34L14.15,8.21l-.65-.66L13,7.1a2.39,2.39,0,0,1-.23-.22l-.73-.74L10.71,4.76c-.47-.47-.5-.5-.55-.46Zm11.75.06s0,3.58,0,7.88v7.81l3.87,3.87c3.07,3.06,3.89,3.86,3.95,3.86h.08V12.08l-3.9-3.9C23.75,6,22,4.28,22,4.28a.11.11,0,0,0-.05.08Z" style="fill:#3b3e43"/><path d="M21.86,4.27c0,2.82,0,15.77,0,15.75s0-15.77,0-15.77l0,0Zm-11.78,7.8c0,4.29,0,7.84,0,7.88s0-3.46,0-7.79c0-6.29,0-7.88,0-7.88S10.07,5.86,10.08,12.07ZM16,17.93v3.93c0-2.17,0-5.73,0-7.9ZM20.87,21l-.21.23.22-.22c.21-.19.24-.23.21-.23Z"/><path d="M5.75,8.53s0,.06,0,.06,0,0,.08-.06,0-.07,0-.07A.17.17,0,0,0,5.75,8.53ZM4.43,9.84s0,0,0,0l0,0s0,0,0,0a.07.07,0,0,0,.06,0c0-.06,0-.1,0-.05Zm15.1,12.47a2.23,2.23,0,0,0-.28.32,2.18,2.18,0,0,0,.33-.3,1.75,1.75,0,0,0,.28-.32A2.29,2.29,0,0,0,19.53,22.31Zm-14,2.36-.1.1.11-.09.11-.11S5.57,24.57,5.48,24.67Zm-3.06,3s0,.06,0,.06l.09-.06s.06-.07,0-.07A.21.21,0,0,0,2.42,27.69Z"/></svg>