<svg version="1.1" viewBox="0 0 32 32" xmlns="http://www.w3.org/2000/svg"><title>file_type_light_rome</title><g fill="#27272a"><path class="cls-1" transform="matrix(.077144 0 0 .077144 -3.7733 -3.5592)" d="m215.35 135.15a9.43 9.43 0 0 1-5.35 12.95c-47.87 17-82 60.94-82 112.47v9.43h-54v-9.43c0-73 47.88-135.3 115.35-160a9.43 9.43 0 0 1 11.76 4.79z"/><rect class="cls-1" transform="matrix(.077144 0 0 .077144 -3.7733 -3.5592)" x="74" y="288" width="54" height="144"/><path class="cls-1" transform="matrix(.077144 0 0 .077144 -3.7733 -3.5592)" d="m434 260.57v9.43h-54v-9.43c0-51.53-34.1-95.46-82-112.47a9.43 9.43 0 0 1-5.38-12.95l14.24-29.82a9.43 9.43 0 0 1 11.76-4.79c67.5 24.73 115.38 87.06 115.38 160.03z"/><rect class="cls-1" transform="matrix(.077144 0 0 .077144 -3.7733 -3.5592)" x="380" y="288" width="54" height="144"/></g><path class="cls-2" transform="matrix(.077144 0 0 .077144 -3.7733 -3.5592)" d="m288.26 74.32a9.45 9.45 0 0 1 7.26 13.42l-2.59 5.42-20.06 42a9.48 9.48 0 0 1-9.11 5.35q-4.85-0.27-9.76-0.27t-9.76 0.27a9.49 9.49 0 0 1-9.11-5.35l-20.06-42-2.59-5.42a9.45 9.45 0 0 1 7.26-13.42 254.12 254.12 0 0 1 68.52 0z" fill="#ffc905"/><path class="cls-2" transform="matrix(.077144 0 0 .077144 -3.7733 -3.5592)" d="m362 260.57v171.43h-54v-171.43c0-28.41-24.18-51.43-54-51.43s-54 23-54 51.43v171.43h-54v-171.43c0-56.81 48.36-102.86 108-102.86s108 46.05 108 102.86z" fill="#ffc905"/></svg>
