<?xml version="1.0" encoding="UTF-8" standalone="no"?>
<svg
   xmlns:dc="http://purl.org/dc/elements/1.1/"
   xmlns:cc="http://creativecommons.org/ns#"
   xmlns:rdf="http://www.w3.org/1999/02/22-rdf-syntax-ns#"
   xmlns:svg="http://www.w3.org/2000/svg"
   xmlns="http://www.w3.org/2000/svg"
   xmlns:sodipodi="http://sodipodi.sourceforge.net/DTD/sodipodi-0.dtd"
   xmlns:inkscape="http://www.inkscape.org/namespaces/inkscape"
   viewBox="0 0 32 32"
   version="1.1"
   id="svg3185"
   sodipodi:docname="file_type_fortran.svg"
   inkscape:version="1.0.2 (e86c8708, 2021-01-15)">
  <metadata
     id="metadata3191">
    <rdf:RDF>
      <cc:Work
         rdf:about="">
        <dc:format>image/svg+xml</dc:format>
        <dc:type
           rdf:resource="http://purl.org/dc/dcmitype/StillImage" />
      </cc:Work>
    </rdf:RDF>
  </metadata>
  <defs
     id="defs3189" />
  <sodipodi:namedview
     pagecolor="#ffffff"
     bordercolor="#666666"
     borderopacity="1"
     objecttolerance="10"
     gridtolerance="10"
     guidetolerance="10"
     inkscape:pageopacity="0"
     inkscape:pageshadow="2"
     inkscape:window-width="1255"
     inkscape:window-height="710"
     id="namedview3187"
     showgrid="false"
     inkscape:zoom="11.583937"
     inkscape:cx="26.595008"
     inkscape:cy="15.078576"
     inkscape:window-x="0"
     inkscape:window-y="25"
     inkscape:window-maximized="0"
     inkscape:current-layer="svg3185" />
  <title
     id="title3175">file_type_fortran</title>
  <g
     id="g3768"
     transform="matrix(0.11162682,0,0,0.11162682,48.348056,16.861907)"
     style="stroke-width:8.95839">
    <rect
       style="fill:#734f96;fill-opacity:1;stroke:none;stroke-width:11.9445;stroke-miterlimit:4;stroke-dasharray:none;stroke-opacity:1"
       id="rect881"
       width="283.46457"
       height="283.46457"
       x="-431.51978"
       y="-149.45361"
       ry="52.71888" />
    <path
       inkscape:connector-curvature="0"
       id="path1412"
       d="m -392.88423,90.772905 c 0,-11.27116 0.0877,-12.27526 1.07393,-12.2962 0.59065,-0.0113 6.41894,-0.27325 12.95175,-0.57971 10.52042,-0.49329 12.19988,-0.71864 14.69597,-1.97166 1.97354,-0.99068 3.19563,-2.150398 4.07762,-3.869364 1.25061,-2.437418 1.25947,-3.001136 1.25947,-80.0840731 0,-72.4344219 -0.0711,-77.7592189 -1.06166,-79.5696249 -1.34128,-2.451257 -3.66789,-4.292795 -6.52683,-5.166062 -1.22663,-0.374666 -7.68424,-0.828309 -14.35025,-1.008071 l -12.12,-0.326854 v -12.195076 -12.19509 h 103.09673 103.09672 v 45.718491 45.718489 l -10.89263,-0.06119 c -5.99097,-0.03364 -11.58305,-0.253191 -12.42686,-0.487857 -1.50857,-0.419562 -1.54644,-0.584952 -2.26946,-9.910981 -0.92798,-11.969553 -1.68657,-17.27015 -3.61096,-25.232038 -4.16058,-17.213712 -12.93944,-26.578117 -27.27488,-29.094095 -6.01459,-1.055602 -32.25552,-2.075544 -53.83256,-2.092376 l -14.88153,-0.01172 v 34.375302 34.3753 l 7.82431,-0.38808 c 8.94563,-0.443701 15.97765,-1.523979 19.37207,-2.976012 3.61516,-1.546455 7.43244,-5.453008 9.21948,-9.43505 1.86701,-4.160299 3.08863,-9.627492 4.069,-18.210688 0.38555,-3.37519 0.82859,-6.758054 0.98457,-7.517469 0.28233,-1.374945 0.33411,-1.380762 12.2385,-1.380762 h 11.95487 v 54.923554 54.923548 h -12.18304 -12.18302 l -0.40962,-6.335927 c -0.74181,-11.473512 -2.97585,-22.339426 -5.66038,-27.530683 -3.6695,-7.0961381 -10.89157,-10.28601911 -25.408,-11.22246111 -3.20643,-0.206853 -6.74591,-0.518108 -7.86551,-0.69169899 l -2.03564,-0.315629 0.23781,34.5545151 c 0.25081,36.44557 0.35955,37.86958 3.1252,40.923734 2.84356,3.14022 4.50158,3.35592 33.38626,4.34379 0.58722,0.0189 0.76709,2.90403 0.76709,12.29967 v 12.273414 h -59.21927 -59.21925 z"
       style="fill:#ffffff;stroke-width:11.9446" />
  </g>
</svg>
