<svg xmlns="http://www.w3.org/2000/svg" viewBox="0 0 32 32"><title>file_type_jbuilder</title><g id="jbuilder"><path d="M2.5,24.19V7.91H6.81V9.82h-2V22.27h2v1.91Z" style="fill:#735a00;stroke:#735a00"/><path d="M12.84,7.81h2.59v8a7.73,7.73,0,0,1-.29,2.39,3.65,3.65,0,0,1-1.34,1.82,4.33,4.33,0,0,1-2.59.67,3.91,3.91,0,0,1-2.87-1.05,4.23,4.23,0,0,1-1.05-3.06l2.39-.29A2.86,2.86,0,0,0,10,17.87a1.3,1.3,0,0,0,1.24.67,1.65,1.65,0,0,0,1.24-.48,4.29,4.29,0,0,0,.38-2Z" style="fill:#735a00;stroke:#735a00"/><path d="M15.52,20.64V7.81h2.39v4.6a3.39,3.39,0,0,1,2.68-1.24,3.45,3.45,0,0,1,2.78,1.24A5.09,5.09,0,0,1,24.52,16a5.35,5.35,0,0,1-1.15,3.64,3.45,3.45,0,0,1-2.78,1.24,2.81,2.81,0,0,1-1.53-.38,5,5,0,0,1-1.34-1.15v1.34Zm2.39-4.88a4,4,0,0,0,.48,2.11,1.82,1.82,0,0,0,1.72,1,1.55,1.55,0,0,0,1.34-.67A3.37,3.37,0,0,0,22,16a3.68,3.68,0,0,0-.57-2.3,1.87,1.87,0,0,0-2.87,0A3.45,3.45,0,0,0,17.91,15.76Z" style="fill:#735a00;stroke:#735a00"/><path d="M29.5,7.81V24.09H25.19V22.18h2V9.73h-2V7.81Z" style="fill:#735a00;stroke:#735a00"/></g></svg>