<svg id="svg" version="1.1" xmlns="http://www.w3.org/2000/svg" xmlns:xlink="http://www.w3.org/1999/xlink" width="400" height="400" viewBox="0, 0, 400,400"><g id="svgg"><path id="path0" d="M119.057 192.300 C 118.375 196.423,119.030 207.780,119.986 208.400 C 120.155 208.510,120.593 209.635,120.958 210.900 C 121.323 212.165,121.795 213.200,122.006 213.200 C 122.217 213.200,122.634 213.785,122.934 214.500 C 124.002 217.051,129.574 222.744,131.700 223.458 C 132.085 223.588,132.400 223.828,132.400 223.992 C 132.400 224.563,137.417 226.742,139.900 227.249 C 141.275 227.530,142.400 227.904,142.400 228.080 C 142.400 228.502,153.729 228.496,154.220 228.073 C 154.429 227.893,155.590 227.511,156.800 227.223 C 164.308 225.438,173.960 217.034,175.431 211.000 C 175.592 210.340,175.882 209.695,176.076 209.568 C 176.270 209.440,176.540 208.650,176.675 207.813 L 176.922 206.291 175.119 206.561 C 170.705 207.223,154.800 206.747,154.800 205.953 C 154.800 205.759,154.321 205.600,153.735 205.600 C 152.137 205.600,145.600 204.287,145.600 203.966 C 145.600 203.812,144.340 203.377,142.800 203.000 C 141.260 202.623,140.000 202.182,140.000 202.020 C 140.000 201.859,138.920 201.400,137.600 201.000 C 136.280 200.600,135.200 200.161,135.200 200.025 C 135.200 199.888,134.300 199.427,133.200 199.000 C 132.100 198.573,131.200 198.111,131.200 197.973 C 131.200 197.835,130.435 197.384,129.500 196.972 C 128.565 196.559,127.710 196.120,127.600 195.996 C 127.193 195.535,122.398 192.400,122.101 192.400 C 121.931 192.400,121.568 192.040,121.293 191.600 C 120.445 190.242,119.340 190.588,119.057 192.300 M279.123 191.500 C 278.835 191.885,277.970 192.551,277.200 192.980 C 276.430 193.409,275.451 194.084,275.025 194.480 C 274.598 194.876,274.116 195.200,273.953 195.200 C 273.790 195.200,273.411 195.425,273.110 195.700 C 271.852 196.851,264.571 200.536,262.300 201.172 C 261.255 201.465,260.400 201.834,260.400 201.993 C 260.400 202.151,259.185 202.607,257.700 203.005 C 256.215 203.402,254.910 203.856,254.800 204.013 C 254.690 204.169,252.800 204.615,250.600 205.002 C 248.400 205.390,246.420 205.841,246.200 206.005 C 245.170 206.774,229.554 207.202,225.379 206.576 C 223.659 206.318,223.600 206.344,223.600 207.355 C 223.600 207.930,223.750 208.400,223.934 208.400 C 224.118 208.400,224.569 209.480,224.936 210.800 C 225.303 212.120,225.780 213.200,225.996 213.200 C 226.212 213.200,226.634 213.785,226.934 214.500 C 228.002 217.051,233.574 222.744,235.700 223.458 C 236.085 223.588,236.400 223.828,236.400 223.992 C 236.400 224.563,241.417 226.742,243.900 227.249 C 245.275 227.530,246.400 227.904,246.400 228.080 C 246.400 228.502,257.729 228.496,258.220 228.073 C 258.429 227.893,259.590 227.511,260.800 227.223 C 265.251 226.165,269.915 223.377,273.600 219.574 C 276.637 216.438,279.063 212.833,279.437 210.900 C 279.576 210.185,279.835 209.600,280.012 209.600 C 281.165 209.600,282.130 197.060,281.343 192.300 C 281.067 190.631,280.046 190.263,279.123 191.500 " stroke="none" fill="#d4d4d4" fill-rule="evenodd"></path><path id="path1" d="M74.087 44.409 C 73.809 44.854,73.295 47.059,72.944 49.309 C 72.593 51.559,72.147 53.713,71.953 54.095 C 71.485 55.015,71.497 65.816,71.967 66.705 C 72.169 67.087,72.631 69.200,72.995 71.400 C 73.359 73.600,73.824 75.460,74.029 75.533 C 74.233 75.607,74.400 75.901,74.400 76.187 C 74.400 77.143,75.717 80.800,76.061 80.800 C 76.247 80.800,76.400 80.980,76.400 81.200 C 76.400 81.831,75.745 81.683,73.083 80.449 C 71.717 79.816,70.150 79.165,69.600 79.002 C 69.050 78.838,67.880 78.382,67.000 77.988 C 66.120 77.594,64.230 77.059,62.800 76.801 C 61.370 76.542,60.010 76.173,59.778 75.981 C 59.095 75.415,50.283 74.400,46.060 74.400 C 43.706 74.400,41.982 74.222,41.710 73.950 C 41.377 73.617,40.926 73.617,39.971 73.950 C 39.261 74.198,37.896 74.400,36.936 74.400 C 34.761 74.400,27.565 75.538,27.011 75.970 C 26.785 76.146,26.105 76.408,25.500 76.552 C 24.763 76.728,24.400 77.074,24.400 77.600 C 24.400 78.553,25.582 81.600,25.952 81.600 C 26.099 81.600,26.572 82.275,27.005 83.100 C 27.438 83.925,28.019 84.744,28.296 84.920 C 28.573 85.096,28.800 85.449,28.800 85.705 C 28.800 85.961,29.246 86.627,29.791 87.185 C 30.336 87.743,32.731 90.225,35.113 92.700 C 37.496 95.175,39.600 97.200,39.789 97.200 C 39.978 97.200,40.418 97.474,40.766 97.808 C 42.062 99.051,45.529 101.600,45.924 101.600 C 46.149 101.600,46.393 101.761,46.467 101.958 C 46.630 102.395,48.778 103.712,51.200 104.860 C 52.190 105.330,53.090 105.847,53.200 106.010 C 53.310 106.173,54.296 106.609,55.390 106.979 C 56.485 107.349,57.565 107.796,57.790 107.973 C 58.016 108.150,59.190 108.615,60.400 109.006 C 61.610 109.398,62.690 109.838,62.800 109.984 C 62.910 110.130,64.080 110.564,65.400 110.948 C 66.720 111.333,68.089 111.801,68.441 111.990 C 68.794 112.179,69.913 112.458,70.928 112.610 L 72.774 112.887 71.787 114.181 C 71.244 114.893,70.800 115.661,70.800 115.889 C 70.800 116.116,70.527 116.529,70.193 116.806 C 69.859 117.083,69.279 117.960,68.906 118.755 C 68.532 119.550,67.905 120.549,67.513 120.975 C 67.121 121.402,66.800 121.974,66.800 122.247 C 66.800 122.520,66.568 122.981,66.285 123.271 C 66.001 123.562,65.435 124.520,65.026 125.400 C 64.617 126.280,64.157 127.090,64.004 127.200 C 63.852 127.310,63.404 128.255,63.009 129.300 C 62.614 130.345,62.136 131.200,61.946 131.200 C 61.756 131.200,61.600 131.388,61.600 131.618 C 61.600 131.849,60.970 133.383,60.200 135.027 C 59.430 136.672,58.800 138.115,58.800 138.234 C 58.800 138.352,58.352 139.397,57.804 140.555 C 57.256 141.713,56.694 143.232,56.554 143.930 C 56.414 144.629,56.162 145.200,55.994 145.200 C 55.826 145.200,55.365 146.415,54.969 147.900 C 54.573 149.385,54.127 150.690,53.978 150.800 C 53.830 150.910,53.370 152.350,52.957 154.000 C 52.544 155.650,52.088 157.090,51.943 157.200 C 51.798 157.310,51.362 159.020,50.973 161.000 C 50.585 162.980,50.149 164.690,50.006 164.800 C 49.750 164.995,49.082 168.600,48.560 172.600 C 48.417 173.700,48.158 174.780,47.986 175.000 C 46.020 177.511,46.011 220.916,47.975 225.400 C 48.168 225.840,48.637 228.270,49.018 230.800 C 49.399 233.330,49.835 235.490,49.989 235.600 C 50.142 235.710,50.585 237.420,50.973 239.400 C 51.362 241.380,51.804 243.090,51.956 243.200 C 52.109 243.310,52.556 244.795,52.951 246.500 C 53.345 248.205,53.808 249.600,53.979 249.600 C 54.151 249.600,54.523 250.695,54.807 252.033 C 55.091 253.371,55.566 254.708,55.862 255.005 C 56.158 255.301,56.400 255.729,56.400 255.957 C 56.400 256.621,57.666 260.180,57.980 260.400 C 58.137 260.510,58.610 261.590,59.030 262.800 C 59.450 264.010,59.901 265.090,60.033 265.200 C 60.165 265.310,60.596 266.255,60.991 267.300 C 61.386 268.345,61.829 269.200,61.975 269.200 C 62.122 269.200,62.566 270.100,62.961 271.200 C 63.357 272.300,63.797 273.202,63.940 273.204 C 64.083 273.206,64.555 274.016,64.990 275.004 C 65.424 275.992,65.884 276.800,66.013 276.800 C 66.141 276.800,66.582 277.561,66.992 278.491 C 67.402 279.421,68.067 280.535,68.469 280.966 C 68.871 281.398,69.200 281.888,69.200 282.055 C 69.200 282.223,69.740 283.160,70.400 284.138 C 71.060 285.116,71.600 286.115,71.600 286.358 C 71.600 286.601,71.772 286.800,71.981 286.800 C 72.191 286.800,72.661 287.430,73.027 288.200 C 73.392 288.970,73.812 289.600,73.959 289.600 C 74.107 289.600,74.565 290.172,74.978 290.870 C 75.760 292.194,76.386 293.016,77.900 294.710 C 78.395 295.264,78.800 295.852,78.800 296.016 C 78.800 296.181,79.602 297.165,80.581 298.202 C 81.561 299.239,82.416 300.241,82.481 300.427 C 83.030 301.997,99.172 318.052,101.531 319.375 C 101.899 319.581,102.528 320.166,102.929 320.675 C 103.330 321.184,103.872 321.600,104.133 321.600 C 104.394 321.600,104.832 321.960,105.107 322.400 C 105.382 322.840,105.811 323.200,106.061 323.200 C 106.311 323.200,106.895 323.574,107.358 324.032 C 108.608 325.267,111.889 327.600,112.376 327.600 C 112.609 327.600,112.800 327.772,112.800 327.981 C 112.800 328.191,113.430 328.661,114.200 329.027 C 114.970 329.392,115.600 329.823,115.600 329.985 C 115.600 330.146,116.320 330.603,117.200 331.000 C 118.080 331.397,118.800 331.847,118.800 332.000 C 118.800 332.153,119.565 332.616,120.500 333.028 C 121.435 333.440,122.336 333.994,122.503 334.259 C 122.670 334.523,123.435 334.947,124.203 335.201 C 124.971 335.455,125.600 335.813,125.600 335.998 C 125.600 336.183,126.410 336.643,127.400 337.021 C 128.390 337.399,129.200 337.829,129.200 337.975 C 129.200 338.122,130.100 338.566,131.200 338.961 C 132.300 339.357,133.200 339.813,133.200 339.975 C 133.200 340.137,134.190 340.607,135.400 341.018 C 136.610 341.429,137.600 341.884,137.600 342.028 C 137.600 342.172,138.633 342.615,139.896 343.013 C 141.159 343.410,142.415 343.958,142.688 344.231 C 142.961 344.504,143.911 344.850,144.800 345.000 C 145.689 345.150,146.637 345.490,146.908 345.755 C 147.179 346.021,148.660 346.573,150.200 346.983 C 151.740 347.392,153.090 347.856,153.200 348.013 C 153.310 348.170,154.745 348.602,156.389 348.974 C 158.033 349.346,159.563 349.799,159.789 349.981 C 160.271 350.369,166.064 351.600,167.409 351.600 C 167.918 351.600,168.393 351.771,168.467 351.979 C 168.540 352.188,170.940 352.674,173.800 353.061 C 176.660 353.447,179.090 353.882,179.200 354.028 C 180.351 355.557,222.547 355.480,223.133 353.948 C 223.207 353.757,223.794 353.600,224.438 353.600 C 226.122 353.600,233.254 352.448,234.200 352.023 C 234.640 351.826,236.710 351.352,238.800 350.970 C 240.890 350.588,242.690 350.152,242.800 350.001 C 242.910 349.850,244.395 349.401,246.100 349.003 C 247.805 348.606,249.200 348.163,249.200 348.020 C 249.200 347.877,250.550 347.424,252.200 347.013 C 253.850 346.602,255.200 346.140,255.200 345.986 C 255.200 345.832,256.274 345.404,257.587 345.036 C 258.900 344.667,260.070 344.210,260.188 344.020 C 260.305 343.830,261.391 343.363,262.601 342.982 C 263.810 342.602,264.800 342.174,264.800 342.033 C 264.800 341.891,265.620 341.533,266.622 341.237 C 267.624 340.941,268.659 340.487,268.922 340.228 C 269.185 339.970,270.209 339.436,271.199 339.043 C 272.188 338.649,273.088 338.204,273.199 338.053 C 273.309 337.902,274.165 337.441,275.100 337.028 C 276.035 336.616,276.800 336.140,276.800 335.970 C 276.800 335.801,277.412 335.460,278.159 335.214 C 278.906 334.967,279.924 334.413,280.420 333.983 C 280.916 333.552,281.531 333.200,281.786 333.200 C 282.041 333.200,282.598 332.879,283.025 332.487 C 283.451 332.095,284.475 331.456,285.300 331.068 C 286.125 330.680,286.800 330.224,286.800 330.055 C 286.800 329.886,287.430 329.448,288.200 329.081 C 288.970 328.713,289.600 328.251,289.600 328.053 C 289.600 327.855,289.915 327.588,290.300 327.458 C 291.429 327.079,293.143 325.843,294.956 324.100 C 295.470 323.605,296.095 323.200,296.342 323.200 C 296.590 323.200,297.018 322.840,297.293 322.400 C 297.568 321.960,297.974 321.599,298.196 321.598 C 298.418 321.597,299.320 320.961,300.200 320.186 C 301.080 319.410,302.685 318.016,303.766 317.088 C 307.027 314.288,320.400 300.651,320.400 300.125 C 320.400 299.999,320.985 299.238,321.700 298.432 C 322.415 297.627,323.450 296.362,324.000 295.622 C 326.534 292.213,327.188 291.356,327.720 290.755 C 328.033 290.401,328.629 289.501,329.045 288.755 C 329.460 288.010,330.025 287.256,330.300 287.080 C 330.575 286.904,330.800 286.533,330.800 286.256 C 330.800 285.978,331.171 285.353,331.624 284.866 C 332.078 284.379,332.710 283.355,333.030 282.591 C 333.349 281.826,333.754 281.200,333.928 281.200 C 334.103 281.200,334.582 280.439,334.992 279.509 C 335.402 278.579,335.895 277.634,336.088 277.409 C 336.588 276.824,337.879 274.497,338.866 272.400 C 339.332 271.410,339.840 270.510,339.993 270.400 C 340.147 270.290,340.599 269.339,340.996 268.287 C 341.393 267.235,341.855 266.289,342.022 266.186 C 342.189 266.083,342.637 265.009,343.018 263.799 C 343.398 262.590,343.828 261.600,343.972 261.600 C 344.116 261.600,344.580 260.565,345.002 259.300 C 345.424 258.035,345.875 256.910,346.004 256.800 C 346.313 256.537,347.600 252.468,347.600 251.754 C 347.600 251.449,347.750 251.200,347.933 251.200 C 348.116 251.200,348.602 249.850,349.013 248.200 C 349.424 246.550,349.873 245.200,350.012 245.200 C 350.150 245.200,350.599 243.490,351.010 241.400 C 351.421 239.310,351.873 237.600,352.014 237.600 C 352.155 237.600,352.585 235.665,352.969 233.300 C 353.354 230.935,353.833 228.640,354.036 228.200 C 354.471 227.252,355.600 217.819,355.600 215.126 C 355.600 214.093,355.780 213.136,356.000 213.000 C 356.507 212.687,356.547 188.276,356.043 187.295 C 355.846 186.913,355.394 183.450,355.038 179.600 C 354.681 175.750,354.212 172.540,353.995 172.467 C 353.778 172.393,353.600 171.879,353.600 171.324 C 353.600 169.875,352.325 163.038,352.011 162.800 C 351.866 162.690,351.415 160.980,351.009 159.000 C 350.603 157.020,350.149 155.310,349.999 155.200 C 349.850 155.090,349.395 153.740,348.988 152.200 C 348.582 150.660,348.139 149.310,348.005 149.200 C 347.871 149.090,347.526 148.190,347.239 147.200 C 346.953 146.210,346.399 144.680,346.008 143.800 C 345.618 142.920,345.052 141.480,344.751 140.600 C 344.450 139.720,344.086 138.910,343.942 138.800 C 343.798 138.690,343.372 137.655,342.994 136.500 C 342.617 135.345,342.184 134.400,342.033 134.400 C 341.882 134.400,341.434 133.500,341.039 132.400 C 340.643 131.300,340.193 130.400,340.039 130.400 C 339.884 130.400,339.434 129.500,339.039 128.400 C 338.643 127.300,338.195 126.400,338.042 126.400 C 337.889 126.400,337.430 125.590,337.022 124.600 C 336.613 123.610,336.172 122.798,336.040 122.795 C 335.908 122.793,335.443 122.028,335.006 121.095 C 334.570 120.163,333.985 119.256,333.706 119.080 C 333.428 118.904,333.200 118.499,333.200 118.180 C 333.200 117.861,332.879 117.279,332.487 116.887 C 332.094 116.494,331.456 115.504,331.068 114.687 C 330.680 113.869,330.220 113.200,330.045 113.200 C 329.871 113.200,329.503 112.705,329.228 112.100 C 328.952 111.495,328.472 110.730,328.161 110.400 C 327.849 110.070,326.879 108.810,326.005 107.600 C 324.132 105.008,323.220 103.806,322.400 102.849 C 322.070 102.464,320.990 101.173,320.000 99.979 C 319.010 98.785,317.951 97.516,317.646 97.159 C 314.716 93.722,302.984 82.454,300.634 80.820 C 300.175 80.501,299.565 79.916,299.277 79.520 C 298.990 79.124,298.501 78.800,298.191 78.800 C 297.882 78.800,297.435 78.440,297.200 78.000 C 296.965 77.560,296.518 77.200,296.209 77.200 C 295.899 77.200,295.410 76.873,295.123 76.473 C 294.835 76.073,293.970 75.398,293.200 74.973 C 292.430 74.548,291.565 73.885,291.277 73.500 C 290.990 73.115,290.555 72.800,290.311 72.800 C 290.067 72.800,289.582 72.528,289.234 72.195 C 288.219 71.225,284.662 68.937,283.691 68.629 C 283.201 68.473,282.800 68.181,282.800 67.978 C 282.800 67.776,282.174 67.349,281.409 67.030 C 280.644 66.710,279.789 66.248,279.509 66.003 C 278.933 65.499,278.447 65.237,271.218 61.533 C 268.355 60.066,265.470 58.747,264.807 58.601 C 264.143 58.456,263.600 58.187,263.600 58.005 C 263.600 57.823,262.610 57.363,261.400 56.982 C 260.190 56.602,259.200 56.173,259.200 56.029 C 259.200 55.885,257.940 55.422,256.400 55.000 C 254.860 54.578,253.600 54.110,253.600 53.960 C 253.600 53.809,252.295 53.369,250.700 52.982 C 249.105 52.595,247.704 52.133,247.587 51.956 C 247.469 51.778,245.939 51.323,244.187 50.943 C 242.434 50.564,240.910 50.131,240.800 49.982 C 240.690 49.832,238.890 49.409,236.800 49.040 C 234.710 48.672,232.640 48.213,232.200 48.021 C 231.218 47.592,226.885 46.933,222.600 46.561 C 220.840 46.408,219.272 46.084,219.115 45.841 C 218.677 45.165,183.526 45.223,183.300 45.900 C 183.208 46.175,182.563 46.400,181.867 46.399 C 179.872 46.397,170.622 47.692,170.400 48.004 C 170.290 48.158,168.415 48.584,166.233 48.949 C 164.050 49.315,162.070 49.762,161.833 49.943 C 161.595 50.123,159.960 50.599,158.200 50.999 C 156.440 51.399,154.910 51.844,154.800 51.988 C 154.690 52.131,153.340 52.582,151.800 52.988 C 150.260 53.395,148.910 53.845,148.800 53.989 C 148.690 54.132,147.579 54.566,146.330 54.953 C 145.082 55.339,143.379 56.003,142.546 56.428 C 141.712 56.852,140.722 57.200,140.344 57.200 C 139.966 57.200,139.415 57.442,139.119 57.738 C 138.824 58.033,137.641 58.588,136.491 58.970 C 135.341 59.352,134.400 59.794,134.400 59.953 C 134.400 60.112,133.500 60.566,132.400 60.961 C 131.300 61.357,130.400 61.807,130.400 61.961 C 130.400 62.116,129.500 62.566,128.400 62.961 C 127.300 63.357,126.400 63.827,126.400 64.007 C 126.400 64.187,125.590 64.643,124.600 65.021 C 123.610 65.399,122.800 65.866,122.800 66.058 C 122.800 66.249,122.080 66.695,121.200 67.047 C 120.320 67.399,119.600 67.820,119.600 67.983 C 119.600 68.145,118.880 68.603,118.000 69.000 C 117.120 69.397,116.400 69.833,116.400 69.970 C 116.400 70.106,115.729 70.574,114.910 71.009 C 113.491 71.762,113.046 72.084,111.200 73.700 C 110.760 74.085,110.284 74.400,110.141 74.400 C 109.999 74.400,109.086 75.053,108.112 75.851 C 106.054 77.537,105.956 77.475,105.019 73.900 C 104.630 72.415,104.151 71.200,103.956 71.200 C 103.760 71.200,103.600 70.947,103.600 70.637 C 103.600 70.039,100.746 64.366,100.013 63.508 C 99.774 63.229,99.004 62.100,98.301 61.000 C 96.800 58.652,88.661 50.400,87.845 50.400 C 87.538 50.400,87.182 50.130,87.055 49.800 C 86.929 49.470,86.583 49.200,86.288 49.200 C 85.993 49.200,85.375 48.850,84.916 48.422 C 84.053 47.618,82.309 46.634,79.200 45.196 C 78.210 44.738,77.087 44.192,76.705 43.982 C 75.603 43.376,74.634 43.534,74.087 44.409 M84.620 175.953 C 84.829 176.146,87.970 176.600,91.600 176.960 C 95.230 177.320,99.010 177.782,100.000 177.987 C 100.990 178.192,105.490 178.674,110.000 179.058 C 114.510 179.443,118.290 179.875,118.400 180.018 C 118.615 180.298,127.422 181.026,135.700 181.448 C 138.505 181.591,140.800 181.831,140.800 181.981 C 140.800 182.131,146.065 182.565,152.500 182.945 C 158.935 183.325,164.740 183.732,165.400 183.849 C 169.880 184.646,211.122 185.563,222.375 185.117 C 244.034 184.257,268.897 182.650,270.016 182.036 C 270.354 181.850,272.694 181.578,275.216 181.432 C 284.983 180.864,291.033 180.347,291.800 180.015 C 292.240 179.824,296.110 179.373,300.400 179.011 C 304.690 178.650,308.830 178.190,309.600 177.990 C 313.992 176.847,324.778 176.226,325.565 177.070 C 326.381 177.946,327.600 181.127,327.600 182.381 C 327.600 182.795,327.777 183.193,327.993 183.267 C 329.145 183.657,329.032 196.840,327.856 199.358 C 327.537 200.041,327.042 201.410,326.757 202.400 C 326.472 203.390,326.120 204.290,325.975 204.400 C 325.830 204.510,325.391 205.230,325.000 206.000 C 324.609 206.770,324.178 207.490,324.044 207.600 C 323.910 207.710,323.460 208.410,323.045 209.155 C 322.629 209.901,321.999 210.834,321.645 211.230 C 321.290 211.626,320.190 212.895,319.200 214.052 C 318.210 215.208,317.017 216.524,316.550 216.977 C 313.867 219.575,312.031 221.200,311.779 221.200 C 311.621 221.200,311.070 221.605,310.556 222.100 C 309.100 223.500,308.260 224.137,306.774 224.970 C 306.018 225.393,305.310 225.864,305.200 226.016 C 305.090 226.168,304.220 226.722,303.266 227.246 C 299.841 229.130,299.202 229.500,298.705 229.891 C 298.427 230.109,297.345 230.607,296.300 230.998 C 295.255 231.389,294.400 231.829,294.400 231.975 C 294.400 232.122,293.455 232.574,292.300 232.980 C 291.145 233.386,290.016 233.860,289.790 234.033 C 289.565 234.207,288.485 234.651,287.390 235.021 C 286.296 235.391,285.310 235.826,285.200 235.986 C 285.090 236.147,283.695 236.595,282.100 236.982 C 280.505 237.369,279.200 237.820,279.200 237.983 C 279.200 238.147,277.805 238.589,276.100 238.966 C 274.395 239.342,272.726 239.795,272.390 239.972 C 272.055 240.149,270.255 240.619,268.390 241.017 C 266.526 241.415,264.908 241.874,264.797 242.037 C 264.685 242.201,262.345 242.640,259.597 243.014 C 256.848 243.388,254.510 243.824,254.400 243.982 C 254.140 244.356,242.482 245.899,233.800 246.709 C 220.996 247.903,175.716 247.402,168.800 245.990 C 167.810 245.788,164.304 245.332,161.009 244.977 C 157.714 244.622,154.744 244.184,154.408 244.004 C 154.073 243.825,151.461 243.377,148.604 243.008 C 145.747 242.640,143.317 242.205,143.205 242.043 C 143.092 241.880,141.380 241.414,139.400 241.007 C 137.420 240.600,135.530 240.133,135.200 239.968 C 134.870 239.804,133.520 239.457,132.200 239.197 C 130.880 238.938,129.268 238.468,128.618 238.153 C 127.968 237.837,126.348 237.298,125.018 236.954 C 123.688 236.610,122.420 236.188,122.200 236.017 C 121.980 235.846,120.810 235.385,119.600 234.994 C 118.390 234.602,117.310 234.155,117.200 233.999 C 117.090 233.843,116.303 233.489,115.451 233.211 C 114.599 232.933,112.915 232.187,111.710 231.553 C 110.505 230.919,109.267 230.400,108.959 230.400 C 108.652 230.400,108.400 230.257,108.400 230.082 C 108.400 229.907,107.590 229.430,106.600 229.022 C 105.610 228.613,104.800 228.144,104.800 227.979 C 104.800 227.814,103.991 227.346,103.001 226.940 C 102.012 226.533,101.202 226.070,101.201 225.910 C 101.201 225.751,100.632 225.327,99.938 224.968 C 99.243 224.609,98.309 223.974,97.862 223.557 C 97.415 223.141,96.929 222.800,96.783 222.800 C 96.637 222.800,96.051 222.395,95.482 221.900 C 94.912 221.405,93.508 220.190,92.360 219.200 C 89.641 216.854,88.958 216.172,86.800 213.652 C 85.810 212.495,84.710 211.226,84.355 210.830 C 84.001 210.434,83.371 209.504,82.955 208.763 C 82.540 208.021,81.986 207.184,81.724 206.903 C 81.463 206.622,81.022 205.763,80.744 204.996 C 80.466 204.228,80.112 203.600,79.957 203.600 C 79.802 203.600,79.358 202.565,78.972 201.300 C 78.585 200.035,78.126 198.810,77.950 198.578 C 76.932 197.230,76.972 183.209,77.995 182.868 C 78.218 182.794,78.400 182.395,78.400 181.981 C 78.400 180.853,79.598 177.545,80.239 176.904 C 80.547 176.595,80.800 176.176,80.800 175.971 C 80.800 175.499,84.113 175.482,84.620 175.953 " stroke="none" fill="#04b4c4" fill-rule="evenodd"></path></g></svg>