<svg xmlns="http://www.w3.org/2000/svg" width="16" height="16" viewBox="0 0 16 16">
  <path fill="#3F3D56"
    d="M7.56 9.48q-.22.01-.31-.11-.1-.13-.06-.4.04-.23.12-.35.08-.12.28-.14 1.44-.08 2.17-.46.97-.38 1.66-.97.7-.6 1.07-1.34.38-.76.37-1.59 0-.65-.3-.97-.3-.34-.86-.34-.49 0-1.03.26-.56.28-1.1.73-.53.47-1.05 1.13-.5.65-.95 1.45-.43.8-.76 1.7l-1.86 5.74q-.06.18-.19.25-.14.09-.42.09-.26 0-.4-.09-.12-.09-.07-.27l3.1-9.54q-.3.3-.63.58t-.71.55q-.36.26-.77.55-.25.17-.42.11t-.3-.28q-.1-.18-.1-.36.03-.18.26-.31.7-.44 1.3-.9.62-.47 1.12-.97.5-.52.88-1.07.14-.17.26-.28.12-.07.38-.07.28 0 .4.08.13.09.06.28l-.62 1.98q.55-.74 1.16-1.27.63-.53 1.27-.8.66-.27 1.32-.27.65 0 1.12.26.48.27.73.75.25.47.25 1.14 0 1.13-.47 2.1-.46.96-1.33 1.7-.86.73-2.02 1.14-.83.28-2.54.53z" />
</svg>