<svg xmlns="http://www.w3.org/2000/svg" xmlns:xlink="http://www.w3.org/1999/xlink" viewBox="0 0 32 32"><defs><linearGradient id="a" x1="-133.268" y1="-202.91" x2="-133.198" y2="-202.84" gradientTransform="translate(25243.061 38519.17) scale(189.38 189.81)" gradientUnits="userSpaceOnUse"><stop offset="0" stop-color="#387eb8"/><stop offset="1" stop-color="#366994"/></linearGradient><linearGradient id="b" x1="-133.575" y1="-203.203" x2="-133.495" y2="-203.133" gradientTransform="translate(25309.061 38583.42) scale(189.38 189.81)" gradientUnits="userSpaceOnUse"><stop offset="0" stop-color="#ffe052"/><stop offset="1" stop-color="#ffc331"/></linearGradient></defs><title>file_type_python</title><path d="M15.885,2.1c-7.1,0-6.651,3.07-6.651,3.07V8.36h6.752v1H6.545S2,8.8,2,16.005s4.013,6.912,4.013,6.912H8.33V19.556s-.13-4.013,3.9-4.013h6.762s3.772.06,3.772-3.652V5.8s.572-3.712-6.842-3.712h0ZM12.153,4.237a1.214,1.214,0,1,1-1.183,1.244v-.02a1.214,1.214,0,0,1,1.214-1.214h0Z" fill="url(#a)"/><path d="M16.085,29.91c7.1,0,6.651-3.08,6.651-3.08V23.65H15.985v-1h9.47S30,23.158,30,15.995s-4.013-6.912-4.013-6.912H23.64V12.4s.13,4.013-3.9,4.013H12.975S9.2,16.356,9.2,20.068V26.2s-.572,3.712,6.842,3.712h.04Zm3.732-2.147A1.214,1.214,0,1,1,21,26.519v.03a1.214,1.214,0,0,1-1.214,1.214h.03Z" fill="url(#b)"/><path d="M27.075,25.107l.363-.361c1.68.055,1.706,0,1.78-.177l.462-1.124.034-.107-.038-.093c-.02-.049-.081-.2-1.13-1.2v-.526c1.211-1.166,1.185-1.226,1.116-1.4l-.46-1.136c-.069-.17-.1-.237-1.763-.191l-.364-.367a8.138,8.138,0,0,0-.057-1.657l-.047-.106-1.2-.525c-.177-.081-.239-.11-1.372,1.124l-.509-.008c-1.167-1.245-1.222-1.223-1.4-1.152l-1.115.452c-.175.071-.236.1-.169,1.79l-.36.359c-1.68-.055-1.7,0-1.778.177L18.606,20l-.036.108.038.094c.02.048.078.194,1.13,1.2v.525c-1.211,1.166-1.184,1.226-1.115,1.4l.459,1.137c.07.174.1.236,1.763.192l.363.377a8.169,8.169,0,0,0,.055,1.654l.047.107,1.208.528c.176.073.236.1,1.366-1.13l.509.006c1.168,1.247,1.228,1.223,1.4,1.154l1.113-.45C27.082,26.827,27.143,26.8,27.075,25.107Zm-4.788-2.632a2,2,0,1,1,2.618,1.14A2.023,2.023,0,0,1,22.287,22.475Z" fill="#99b8c4"/></svg>