<svg xmlns="http://www.w3.org/2000/svg" viewBox="0 0 32 32"><title>file_type_firestore</title><path fill="#FEC24C" d="M3.899,24.601l0.17-0.237L12.09,9.149l0.017-0.162L8.572,2.348c-0.17-0.321-0.568-0.441-0.887-0.271	c-0.182,0.098-0.308,0.274-0.34,0.478L3.899,24.601z"/><path fill="#FAA71C" d="M4,24.42l0.128-0.25l7.938-15.056L8.539,2.448C8.39,2.151,8.03,2.031,7.733,2.181 c-0.183,0.091-0.306,0.27-0.328,0.473L4,24.42z"/><path fill="#F3BD63" d="M14.684,14.009l2.632-2.7l-2.633-5.02c-0.177-0.331-0.588-0.455-0.918-0.277	c-0.118,0.062-0.214,0.159-0.277,0.277l-1.408,2.682V9.2L14.684,14.009z"/><path fill="#FAA51A" d="M14.637,13.9l2.56-2.619L14.637,6.4c-0.12-0.302-0.462-0.45-0.765-0.331	c-0.134,0.054-0.244,0.155-0.309,0.285l-1.415,2.729l-0.042,0.139L14.637,13.9z"/><polygon fill="#F58220" points="3.901,24.602 3.979,24.524 4.258,24.411 14.518,14.188 14.648,13.834 12.089,8.957"/><path fill="#FCE069" d="M15.012,29.757l9.289-5.18L21.646,8.246c-0.058-0.346-0.385-0.58-0.73-0.523 c-0.131,0.022-0.251,0.084-0.345,0.178L3.899,24.601l9.233,5.155C13.716,30.081,14.427,30.081,15.012,29.757"/><path fill="#FCCB3F" d="M24.215,24.535L21.584,8.326c-0.014-0.307-0.273-0.546-0.581-0.532c-0.147,0.005-0.287,0.071-0.387,0.18 L4,24.569l9.131,5.101c0.579,0.323,1.284,0.323,1.863,0L24.215,24.535z"/><path fill="#EEAC38" d="M15.012,29.601c-0.584,0.325-1.294,0.325-1.878,0l-9.158-5.078l-0.076,0.078l9.233,5.155	c0.583,0.325,1.294,0.325,1.878,0l9.29-5.179l-0.023-0.14L15.012,29.601z"/><polygon fill="#252525" points="20.805,13.162 13.512,16.469 13.512,26.822 19.33,24.186 19.33,30 28.101,26.017 28.101,16.469"/><polygon fill="#FFFFFF" points="20.805,14.781 14.99,17.418 14.99,20.016 20.805,17.378 26.623,20.016 26.623,17.418"/><polygon fill="#FFFFFF" points="20.805,19.303 14.99,21.938 14.99,24.535 20.805,21.897 26.623,24.535 26.623,21.938"/><polygon fill="#FFFFFF" points="25.861,25.414 23.003,24.117 20.805,25.114 20.805,27.707"/></svg>