<svg version="1.1" viewBox="0 0 32 32" xmlns="http://www.w3.org/2000/svg"><defs><radialGradient id="a" cx="0" cy="0" r="1" gradientTransform="matrix(-17.412 0 0 -14.519 26.34 101.37)" gradientUnits="userSpaceOnUse"><stop offset="0" stop-color="#f0f8a0"/><stop offset=".75" stop-color="#c1e0a4"/><stop offset="1" stop-color="#5aab7b"/></radialGradient><linearGradient id="b" x1="3.14" x2="12.39" y1="21.22" y2="5.99" gradientUnits="userSpaceOnUse"><stop offset="0" stop-color="#0f5499"/><stop offset="1" stop-color="#0ed6ff"/></linearGradient></defs><path fill="url(#a)" d="M16.32 0h-5.44C5.44 0 0 2.72 0 10.88s5.44 10.93 10.94 10.9l5.38-.01v-5.45h-5.44s-5.22 0-5.33-5.38c-.1-5.5 5.33-5.5 5.33-5.5h5.44z" transform="translate(5.12 7.85)"/><path fill="#055f25" fill-rule="evenodd" d="M21.47 7.42q.16 0 .28.11t.11.28v5.45q0 .15-.11.28a.4.4 0 0 1-.28.11h-5.45q-.3 0-.78.09-.96.16-1.74.56-2.47 1.26-2.41 4.44.06 3.13 2.49 4.37a6 6 0 0 0 2.44.63h5.45q.16 0 .28.12t.11.28v5.44q0 .17-.11.28a.4.4 0 0 1-.28.12l-5.39.02q-4.8.02-7.79-2.48-3.55-2.95-3.55-8.82 0-5.85 3.54-8.81 2.97-2.48 7.74-2.48zm-.4 17.12v4.64l-5 .02q-4.5.02-7.27-2.29-3.26-2.72-3.26-8.21t3.26-8.2q2.75-2.28 7.22-2.29h5.05v4.65h-5.05q-.37 0-.91.09-1.08.18-1.98.64-2.91 1.48-2.84 5.17.07 3.6 2.92 5.06a7 7 0 0 0 2.81.72z"/><path fill="url(#b)" d="M15.66 0c.25 0 .54.29.54.54v20.68c0 .26-.29.55-.54.55H5.32s-5.19 0-5.32-5.5c-.12-5.39 5.32-5.39 5.32-5.39h5.44V.54c0-.25.29-.54.54-.54z" transform="translate(10.7 2.38)"/><path fill="#0d386b" fill-rule="evenodd" d="M21.97 2h4.35q.36 0 .65.3.3.28.3.64v20.68a1 1 0 0 1-.3.65 1 1 0 0 1-.65.3H15.98q-.36 0-.88-.1a7 7 0 0 1-1.91-.64q-2.85-1.48-2.92-5.15-.1-3.62 2.83-5.08a7 7 0 0 1 2.88-.72h5.04V2.94q0-.36.3-.65.29-.3.65-.29m0 .8q-.03 0-.09.06l-.06.08v10.74h-5.84q-.3 0-.78.08a6 6 0 0 0-1.75.55q-2.46 1.23-2.39 4.35.07 3.2 2.5 4.46a6 6 0 0 0 2.42.65h10.34q.03 0 .09-.06t.06-.09V2.94l-.06-.08q-.06-.06-.09-.06z"/></svg>