<svg viewBox="0 0 32 32" xmlns="http://www.w3.org/2000/svg" xmlns:xlink="http://www.w3.org/1999/xlink"><linearGradient id="a" gradientUnits="userSpaceOnUse" x1="15.996" x2="15.996" y1="2.953" y2="29.043"><stop offset="0" stop-color="#808dff"/><stop offset=".298" stop-color="#838fff"/><stop offset=".478" stop-color="#8b96ff"/><stop offset=".626" stop-color="#99a2ff"/><stop offset=".756" stop-color="#adb2ff"/><stop offset=".875" stop-color="#c7c8ff"/><stop offset=".9" stop-color="#cecdff"/></linearGradient><path d="m21.265 30a2.6 2.6 0 0 1 -.889-.157l-16.645-6.043a2.617 2.617 0 0 1 -1.566-3.358l6.108-16.723a2.621 2.621 0 0 1 3.351-1.562l16.646 6.043a2.617 2.617 0 0 1 1.566 3.358l-.525 1.437a1.157 1.157 0 0 1 -.888.748 1.138 1.138 0 0 1 -1.077-.379 3.507 3.507 0 0 0 -2.667-1.2h-.013a3.39 3.39 0 0 0 -3.446 3.322 3.389 3.389 0 0 0 3.456 3.3h.013a3.618 3.618 0 0 0 .672-.065 1.129 1.129 0 0 1 1.087.384 1.172 1.172 0 0 1 .209 1.16l-2.932 8.028a2.623 2.623 0 0 1 -2.46 1.707zm-10.531-27.128a1.749 1.749 0 0 0 -1.641 1.146l-6.109 16.728a1.745 1.745 0 0 0 1.044 2.238l16.646 6.038a1.747 1.747 0 0 0 2.234-1.042l2.932-8.028a.3.3 0 0 0 -.054-.295.264.264 0 0 0 -.258-.093 4.5 4.5 0 0 1 -.835.081h-.016a4.262 4.262 0 0 1 -4.328-4.167 4.263 4.263 0 0 1 4.315-4.2h.016a4.379 4.379 0 0 1 3.328 1.508.273.273 0 0 0 .26.09.291.291 0 0 0 .225-.189l.525-1.436a1.745 1.745 0 0 0 -1.044-2.239l-16.647-6.035a1.735 1.735 0 0 0 -.593-.105z"/><path d="m24.678 17.5a2.035 2.035 0 0 1 -.007-4.071 2 2 0 0 1 1.441.591 2.036 2.036 0 0 1 -1.427 3.48zm0-3.053a1.018 1.018 0 0 0 0 2.035 1.018 1.018 0 0 0 0-2.035z"/><path d="m21.29 29.224a1.77 1.77 0 0 1 -.606-.107l-16.724-6.075a1.781 1.781 0 0 1 -1.06-2.284l6.127-16.815a1.784 1.784 0 0 1 2.281-1.064l16.724 6.075a1.781 1.781 0 0 1 1.068 2.284l-.535 1.462a.326.326 0 0 1 -.554.1 4.376 4.376 0 0 0 -3.332-1.515 4.259 4.259 0 0 0 -4.325 4.18 4.259 4.259 0 0 0 4.325 4.18 4.492 4.492 0 0 0 .856-.082.326.326 0 0 1 .369.432l-2.939 8.06a1.785 1.785 0 0 1 -1.675 1.169zm-10.59-26.089a1.42 1.42 0 0 0 -1.333.932l-6.13 16.816a1.417 1.417 0 0 0 .847 1.817l16.724 6.075a1.419 1.419 0 0 0 1.816-.847l2.917-8a4.86 4.86 0 0 1 -.861.077 4.623 4.623 0 0 1 -4.689-4.543 4.623 4.623 0 0 1 4.689-4.542 4.741 4.741 0 0 1 3.566 1.594l.51-1.4a1.417 1.417 0 0 0 -.848-1.814l-16.724-6.08a1.411 1.411 0 0 0 -.484-.085z" fill="#6873cf"/><path d="m20.173 15.463a4.436 4.436 0 0 1 4.507-4.363 4.557 4.557 0 0 1 3.47 1.579.144.144 0 0 0 .245-.046l.532-1.459a1.6 1.6 0 0 0 -.956-2.051l-16.724-6.073a1.6 1.6 0 0 0 -2.047.95l-6.134 16.82a1.6 1.6 0 0 0 .956 2.051l16.724 6.075a1.6 1.6 0 0 0 2.049-.955l2.939-8.06a.145.145 0 0 0 -.163-.192 4.664 4.664 0 0 1 -.891.086 4.436 4.436 0 0 1 -4.507-4.362z" fill="url(#a)"/><path d="m27.715 16.2h1.163v1.649h-1.163z" transform="matrix(.43837115 -.89879405 .89879405 .43837115 .591 34.994)"/></svg>