<svg xmlns="http://www.w3.org/2000/svg" xmlns:xlink="http://www.w3.org/1999/xlink" viewBox="0 0 32 32"><defs><radialGradient id="a" cx="439.714" cy="531.717" r="48.27" gradientTransform="matrix(0.36, 0.402, -0.11, 0.081, -84.332, -207.753)" gradientUnits="userSpaceOnUse"><stop offset="0" stop-color="#fd2eff"/><stop offset="0.3" stop-color="#ff2ef5" stop-opacity="0"/></radialGradient><radialGradient id="b" cx="15345.554" cy="143.643" r="83.239" gradientTransform="matrix(0.031, 0.03, -0.075, 0.062, -452.157, -448.407)" gradientUnits="userSpaceOnUse"><stop offset="0" stop-color="#ff8bf5"/><stop offset="1" stop-color="#ff73fc" stop-opacity="0"/></radialGradient><radialGradient id="c" cx="-1212.07" cy="801.22" r="27.886" gradientTransform="matrix(-1.048, -0.5, 1.117, -0.527, -2147.582, -161.351)" gradientUnits="userSpaceOnUse"><stop offset="0" stop-color="#ff45fe" stop-opacity="0.8"/><stop offset="0.15" stop-color="#ff5cf1" stop-opacity="0"/></radialGradient><linearGradient id="d" x1="-113.501" y1="935.465" x2="-113.501" y2="964.611" gradientTransform="translate(129.5 -947.5)" gradientUnits="userSpaceOnUse"><stop offset="0" stop-color="#fff"/><stop offset="1" stop-color="#fff" stop-opacity="0"/></linearGradient></defs><title>file_type_powershell_psm</title><path d="M8.492,5.6H28.335a1.517,1.517,0,0,1,1.546,1.948L25.958,24.454a2.636,2.636,0,0,1-2.45,1.948H3.665a1.517,1.517,0,0,1-1.546-1.948L6.042,7.545A2.636,2.636,0,0,1,8.492,5.6Z" style="fill:#c58dff"/><path d="M23.508,26.471H3.665a1.653,1.653,0,0,1-1.333-.6,1.657,1.657,0,0,1-.279-1.436L5.976,7.53a2.71,2.71,0,0,1,2.516-2H28.335a1.584,1.584,0,0,1,1.612,2.031L26.024,24.47A2.71,2.71,0,0,1,23.508,26.471ZM8.492,5.664a2.568,2.568,0,0,0-2.384,1.9L2.185,24.47a1.525,1.525,0,0,0,.253,1.321,1.521,1.521,0,0,0,1.227.544H23.508a2.568,2.568,0,0,0,2.384-1.9l3.923-16.9a1.45,1.45,0,0,0-1.48-1.866Z" style="fill:#fd4bff;opacity:0.9451000094413757;isolation:isolate"/><path d="M23.541,26.359H3.7A1.57,1.57,0,0,1,2.433,25.8a1.574,1.574,0,0,1-.263-1.364L6.093,7.522A2.514,2.514,0,0,1,8.459,5.641H28.3a1.5,1.5,0,0,1,1.53,1.927L25.907,24.477A2.514,2.514,0,0,1,23.541,26.359ZM8.459,5.843A2.336,2.336,0,0,0,6.29,7.568L2.367,24.477a1.376,1.376,0,0,0,.224,1.192,1.372,1.372,0,0,0,1.107.487H23.541a2.336,2.336,0,0,0,2.168-1.725L29.633,7.522A1.3,1.3,0,0,0,28.3,5.843Z" style="fill:#f3a2ff;opacity:0.9451000094413757;isolation:isolate"/><path d="M18.558,15.816c.061-.183-7-7.561-7-7.561" style="fill:#ff4bfa;stroke-linecap:round;stroke-width:76.71700286865234px;stroke:url(#a)"/><path d="M8.558,22.835s9.942-6.825,10-7" style="fill:#2aa7c9;stroke-linecap:round;stroke-width:76.71700286865234px;stroke:url(#b)"/><path d="M8.73,23.121H9.854" style="fill:none;stroke-linecap:round;stroke-width:100px;stroke:url(#c)"/><path d="M8.817,24.052a1.226,1.226,0,0,1-.7-2.237c2.77-1.9,6.941-4.786,8.809-6.117-1.253-1.385-3.8-4.088-5.665-6.046a1.228,1.228,0,0,1,1.78-1.692c.017.017,1.674,1.756,3.3,3.493C17.3,12.475,18.065,13.3,18.61,13.9c.334.368.583.649.76.856a1.514,1.514,0,0,1,.494,1.539c-.165.492-.165.492-5.428,4.142-2.438,1.691-4.9,3.383-4.926,3.4A1.221,1.221,0,0,1,8.817,24.052Z" style="fill:#fff"/><path d="M19.925,23.929H15.043a1.226,1.226,0,1,1,0-2.453h4.882a1.226,1.226,0,0,1,0,2.453Z" style="fill:#fff;opacity:0.75;isolation:isolate"/><path d="M28.606,13.04c-10.079.433-19.226,2.533-25.181,5.78L2.118,24.454A1.514,1.514,0,0,0,3.664,26.4H23.507a2.629,2.629,0,0,0,2.45-1.948L28.6,13.04Z" style="opacity:0.10000000149011612;isolation:isolate"/><path d="M8.492,5.6a2.629,2.629,0,0,0-2.45,1.948L2.118,24.455A1.514,1.514,0,0,0,3.664,26.4H23.507a2.629,2.629,0,0,0,2.45-1.948L29.88,7.545A1.514,1.514,0,0,0,28.334,5.6Z" style="fill:url(#d)"/></svg>