<svg xmlns="http://www.w3.org/2000/svg" viewBox="0 0 32 32"><title>file_type_unlicense</title><path d="M23.627,14.143a7.763,7.763,0,0,0-.807-2.034l-2.034,2.034Z" style="fill:gray"/><path d="M11.714,16A4.286,4.286,0,0,1,16,11.714a4.225,4.225,0,0,1,1.174.184L19.891,9.18A7.849,7.849,0,0,0,9.18,19.891L11.9,17.174A4.225,4.225,0,0,1,11.714,16Z" style="fill:gray"/><path d="M16,20.286a4.225,4.225,0,0,1-1.174-.184L12.109,22.82a7.844,7.844,0,0,0,11.555-5.106h-3.74A4.283,4.283,0,0,1,16,20.286Z" style="fill:gray"/><path d="M16,2A14,14,0,1,0,30,16,14,14,0,0,0,16,2ZM4.857,16A11.13,11.13,0,0,1,22.522,6.978L6.978,22.522A11.083,11.083,0,0,1,4.857,16ZM16,27.143a11.083,11.083,0,0,1-6.522-2.121L25.022,9.478A11.13,11.13,0,0,1,16,27.143Z" style="fill:gray"/></svg>