<svg viewBox="0 0 32 32" xmlns="http://www.w3.org/2000/svg" xmlns:xlink="http://www.w3.org/1999/xlink"><radialGradient id="a" cx="16.637" cy="16" gradientUnits="userSpaceOnUse" r="12.46"><stop offset="0" stop-color="#d8ffff"/><stop offset=".113" stop-color="#afe9fa"/><stop offset=".239" stop-color="#87d3f4"/><stop offset=".339" stop-color="#6fc6f1"/><stop offset=".4" stop-color="#66c1f0"/><stop offset=".473" stop-color="#60b9e7"/><stop offset=".591" stop-color="#50a3cf"/><stop offset=".741" stop-color="#377fa7"/><stop offset=".915" stop-color="#134e70"/><stop offset="1" stop-color="#003453"/></radialGradient><linearGradient id="b" gradientUnits="userSpaceOnUse" x1="20.623" x2="11.589" y1="26.999" y2="11.352"><stop offset="0" stop-color="#003453"/><stop offset=".78" stop-color="#0f496a"/><stop offset=".887" stop-color="#66c1f0"/><stop offset="1" stop-color="#beffff"/></linearGradient><path d="m29.1 16a12.46 12.46 0 1 1 -12.463-12.46 12.46 12.46 0 0 1 12.463 12.46z" fill="url(#a)"/><path d="m23.67 13.111h6.33v7.155l-3.575 3.383v-4.714l-1.34 1.5a24.326 24.326 0 0 1 -8.524 5.841 27.81 27.81 0 0 1 -7.019 1.938 21.315 21.315 0 0 1 -3.035-.036c-2.257-.444-4-1.752-4.284-3.17a5.873 5.873 0 0 1 -.032-3.094 11.2 11.2 0 0 1 1.432-3.19 20.07 20.07 0 0 1 5.85-6.153 39.483 39.483 0 0 0 -2.757 4.669 9.646 9.646 0 0 0 -.906 2.732 2.392 2.392 0 0 0 .426 1.96 4.646 4.646 0 0 0 3.89 1.544 19.818 19.818 0 0 0 7.375-1.8 23.513 23.513 0 0 0 5.949-3.674l1.4-1.327-4.6.047z" fill="#fff"/><path d="m29.518 13.593v6.466l-2.611 2.471v-4.859l-.842.944-1.34 1.5a23.832 23.832 0 0 1 -8.353 5.718 27.166 27.166 0 0 1 -6.876 1.9c-.221.021-.693.035-1.232.035a13.929 13.929 0 0 1 -1.664-.06c-2.016-.4-3.659-1.571-3.9-2.792a5.463 5.463 0 0 1 -.034-2.916 10.708 10.708 0 0 1 1.359-3.007 23.1 23.1 0 0 1 3.559-4.35c-.535.895-.984 1.716-1.3 2.394a10.055 10.055 0 0 0 -.948 2.873 2.883 2.883 0 0 0 .515 2.31 5.1 5.1 0 0 0 4.278 1.741 20.182 20.182 0 0 0 7.571-1.839 24.034 24.034 0 0 0 6.082-3.763l1.4-1.328.889-.844-1.226.013-3.463.036 2.5-2.643h5.641m-20.05-1.019a20.07 20.07 0 0 0 -5.85 6.153 11.2 11.2 0 0 0 -1.432 3.19 5.873 5.873 0 0 0 .032 3.094c.286 1.418 2.027 2.726 4.284 3.17a14.391 14.391 0 0 0 1.757.073c.527 0 1.026-.013 1.278-.037a27.81 27.81 0 0 0 7.019-1.938 24.326 24.326 0 0 0 8.524-5.841l1.34-1.5v4.714l3.575-3.386v-7.155h-6.33l-3.422 3.618 4.6-.047-1.4 1.327a23.513 23.513 0 0 1 -5.948 3.674 19.818 19.818 0 0 1 -7.375 1.8 4.646 4.646 0 0 1 -3.89-1.544 2.392 2.392 0 0 1 -.426-1.96 9.646 9.646 0 0 1 .906-2.732 39.483 39.483 0 0 1 2.757-4.669z" fill="url(#b)"/></svg>