<svg xmlns="http://www.w3.org/2000/svg" viewBox="0 0 1270 1270">
  <title>Cap'n Proto</title>
  <rect width="100%" height="100%" fill="#c42727" />
  <g transform="translate(0,1025) scale(0.1,-0.1)" fill="#000" stroke="none">
    <path
      d="M9178 7781 c-69 -27 -123 -74 -152 -133 -69 -139 2 -318 133 -335 24
-3 40 -10 38 -17 -7 -21 -88 -75 -127 -86 l-40 -11 0 -94 c0 -52 4 -96 9 -99
15 -10 142 34 226 77 185 96 285 266 273 463 -10 156 -107 255 -250 254 -36
-1 -83 -9 -110 -19z"
      fill="white"
    />
    <path
      d="M9178 7781 c-69 -27 -123 -74 -152 -133 -69 -139 2 -318 133 -335 24
-3 40 -10 38 -17 -7 -21 -88 -75 -127 -86 l-40 -11 0 -94 c0 -52 4 -96 9 -99
15 -10 142 34 226 77 185 96 285 266 273 463 -10 156 -107 255 -250 254 -36
-1 -83 -9 -110 -19z m165 -66 c36 -7 75 -42 99 -88 30 -57 29 -169 -2 -250
-39 -104 -151 -213 -255 -251 -22 -7 -48 -17 -57 -21 -14 -5 -18 -2 -18 14 0
13 12 26 33 37 55 28 116 83 143 130 25 43 78 194 68 194 -3 0 -30 -20 -61
-45 -48 -39 -61 -45 -102 -45 -39 0 -52 5 -73 28 -36 38 -48 65 -48 108 0 85
67 166 158 190 44 11 56 11 115 -1z"
    />
    <path
      d="M8315 7404 c-22 -2 -150 -13 -285 -24 -135 -12 -419 -36 -632 -55
-212 -19 -391 -35 -397 -35 -8 0 -11 -51 -11 -160 l0 -159 138 2 137 2 8 -115
c9 -140 4 -1048 -7 -1072 -9 -19 -69 -34 -171 -43 -115 -10 -105 5 -105 -169
0 -84 2 -155 5 -157 2 -3 71 1 152 8 731 63 963 84 991 89 l32 5 0 159 0 160
-77 -8 c-43 -4 -105 -7 -137 -7 -55 0 -61 2 -67 25 -4 14 -7 115 -8 225 l-1
200 253 24 c138 12 281 29 316 37 241 56 421 219 476 431 22 84 20 246 -5 325
-44 143 -164 250 -326 292 -62 16 -211 27 -279 20z"
      fill="white"
    />
    <path
      d="M8315 7404 c-22 -2 -150 -13 -285 -24 -135 -12 -419 -36 -632 -55
-212 -19 -391 -35 -397 -35 -8 0 -11 -51 -11 -160 l0 -159 138 2 137 2 8 -115
c9 -140 4 -1048 -7 -1072 -9 -19 -69 -34 -171 -43 -115 -10 -105 5 -105 -169
0 -84 2 -155 5 -157 2 -3 71 1 152 8 731 63 963 84 991 89 l32 5 0 159 0 160
-77 -8 c-43 -4 -105 -7 -137 -7 -55 0 -61 2 -67 25 -4 14 -7 115 -8 225 l-1
200 253 24 c138 12 281 29 316 37 241 56 421 219 476 431 22 84 20 246 -5 325
-44 143 -164 250 -326 292 -62 16 -211 27 -279 20z m242 -88 c238 -63 343
-232 304 -485 -29 -184 -181 -347 -382 -409 -57 -18 -178 -32 -594 -70 l-80
-7 -3 -210 c-3 -254 6 -330 44 -363 25 -22 34 -23 136 -20 l109 3 -3 -85 -3
-85 -80 -7 c-76 -7 -368 -33 -725 -63 -91 -8 -178 -15 -193 -15 l-28 0 3 82 3
82 98 13 c104 13 135 26 164 70 17 25 18 73 21 613 2 400 0 597 -8 622 -6 20
-23 47 -38 59 -25 20 -34 21 -135 15 l-108 -6 3 82 3 83 100 12 c98 11 306 30
655 59 96 8 238 21 315 28 189 18 358 19 422 2z"
    />
    <path
      d="M8025 7134 c-6 -2 -57 -7 -115 -12 l-105 -7 -3 -297 -2 -298 38 0
c72 0 257 21 316 36 85 22 128 46 175 100 50 58 71 122 71 224 0 135 -57 212
-181 246 -50 13 -171 18 -194 8z"
      fill="#c42727"
    />
    <path
      d="M8025 7134 c-6 -2 -57 -7 -115 -12 l-105 -7 -3 -297 -2 -298 38 0
c72 0 257 21 316 36 85 22 128 46 175 100 50 58 71 122 71 224 0 135 -57 212
-181 246 -50 13 -171 18 -194 8z m215 -96 c103 -52 120 -232 32 -331 -58 -64
-128 -86 -314 -103 l-78 -6 0 221 0 221 23 5 c34 7 93 11 197 13 82 2 102 -1
140 -20z"
    />
    <path
      d="M11540 7395 c-461 -40 -653 -57 -715 -63 l-70 -7 -3 -163 c-2 -153
-1 -163 15 -158 10 2 74 8 142 12 100 5 125 4 132 -7 5 -8 8 -187 8 -399 0
-255 -3 -380 -10 -370 -5 8 -55 94 -110 190 -56 96 -134 231 -173 300 -40 69
-129 223 -197 342 -68 119 -128 219 -134 221 -5 2 -147 -8 -315 -24 -168 -15
-370 -32 -450 -38 -80 -7 -156 -15 -170 -19 l-25 -7 -2 -145 c-2 -80 1 -151 5
-158 7 -10 32 -10 131 -1 111 11 123 11 139 -5 16 -15 17 -63 17 -596 0 -512
-2 -581 -16 -595 -10 -10 -56 -21 -135 -31 -65 -8 -124 -17 -130 -19 -17 -5
-16 -305 1 -311 13 -5 941 73 963 81 9 3 12 45 12 160 l0 156 -150 -7 c-123
-6 -150 -5 -155 7 -3 8 -4 201 -3 429 l3 415 26 -45 c418 -730 613 -1067 622
-1076 9 -8 92 -4 315 16 166 16 309 31 317 34 13 5 15 105 15 764 0 666 2 761
15 772 8 7 69 19 135 26 66 7 125 16 131 20 7 4 9 58 7 158 -3 143 -4 151 -23
152 -11 1 -85 -4 -165 -11z"
      fill="white"
    />
    <path
      d="M11540 7395 c-461 -40 -653 -57 -715 -63 l-70 -7 -3 -163 c-2 -153
-1 -163 15 -158 10 2 74 8 142 12 100 5 125 4 132 -7 5 -8 8 -187 8 -399 0
-255 -3 -380 -10 -370 -5 8 -55 94 -110 190 -56 96 -134 231 -173 300 -40 69
-129 223 -197 342 -68 119 -128 219 -134 221 -5 2 -147 -8 -315 -24 -168 -15
-370 -32 -450 -38 -80 -7 -156 -15 -170 -19 l-25 -7 -2 -145 c-2 -80 1 -151 5
-158 7 -10 32 -10 131 -1 111 11 123 11 139 -5 16 -15 17 -63 17 -596 0 -512
-2 -581 -16 -595 -10 -10 -56 -21 -135 -31 -65 -8 -124 -17 -130 -19 -17 -5
-16 -305 1 -311 13 -5 941 73 963 81 9 3 12 45 12 160 l0 156 -150 -7 c-123
-6 -150 -5 -155 7 -3 8 -4 201 -3 429 l3 415 26 -45 c418 -730 613 -1067 622
-1076 9 -8 92 -4 315 16 166 16 309 31 317 34 13 5 15 105 15 764 0 666 2 761
15 772 8 7 69 19 135 26 66 7 125 16 131 20 7 4 9 58 7 158 -3 143 -4 151 -23
152 -11 1 -85 -4 -165 -11z m110 -150 c0 -61 -3 -85 -12 -85 -38 0 -198 -29
-216 -39 -12 -6 -30 -26 -39 -44 -17 -30 -18 -87 -21 -764 l-3 -732 -42 -5
c-69 -10 -398 -36 -443 -36 l-42 0 -348 608 c-191 334 -362 633 -379 664 -16
32 -34 58 -39 58 -5 0 -6 -246 -3 -570 7 -625 6 -615 67 -640 23 -9 60 -11
136 -7 l104 7 0 -84 0 -83 -67 -7 c-38 -3 -120 -10 -183 -16 -142 -11 -445
-38 -522 -45 l-58 -6 0 85 0 85 43 5 c23 3 68 8 99 11 77 8 118 37 135 95 11
35 13 171 11 633 l-3 589 -33 29 c-33 30 -35 30 -140 28 l-107 -2 -3 81 c-3
96 -21 86 178 102 131 10 367 31 560 50 72 7 98 6 107 -3 6 -7 43 -66 81 -132
248 -429 520 -899 583 -1010 l74 -130 3 70 c2 39 2 284 0 545 -3 444 -4 477
-22 502 -27 41 -76 52 -185 41 -51 -5 -94 -7 -96 -4 -3 2 -5 39 -5 82 0 71 2
77 23 82 12 3 150 17 307 31 157 14 326 30 375 35 50 4 98 9 108 10 15 1 17
-9 17 -84z"
    />
    <path
      d="M4811 6793 c-85 -7 -160 -18 -167 -24 -7 -6 -16 -31 -20 -55 -3 -24
-9 -44 -13 -44 -3 0 -26 14 -50 30 -96 65 -251 90 -434 71 -403 -44 -726 -282
-856 -631 -53 -142 -65 -224 -65 -430 0 -179 3 -203 27 -294 57 -213 161 -368
318 -472 145 -96 260 -126 478 -125 185 2 265 12 392 52 265 83 454 278 528
541 20 72 47 305 36 316 -4 4 -211 -13 -302 -25 l-42 -6 -6 -56 c-22 -198 -58
-295 -140 -377 -69 -69 -141 -97 -255 -98 -67 -1 -95 4 -131 21 -65 29 -120
88 -162 172 -59 117 -72 196 -72 426 1 228 11 286 74 419 50 106 112 174 193
212 57 26 73 29 168 29 97 0 109 -2 158 -29 95 -53 142 -143 162 -311 7 -55
13 -101 14 -102 3 -3 320 27 332 31 15 6 14 768 -1 771 -6 1 -79 -4 -164 -12z"
      fill="white"
    />
    <path
      d="M4811 6793 c-85 -7 -160 -18 -167 -24 -7 -6 -16 -31 -20 -55 -3 -24
-9 -44 -13 -44 -3 0 -26 14 -50 30 -96 65 -251 90 -434 71 -403 -44 -726 -282
-856 -631 -53 -142 -65 -224 -65 -430 0 -179 3 -203 27 -294 57 -213 161 -368
318 -472 145 -96 260 -126 478 -125 185 2 265 12 392 52 265 83 454 278 528
541 20 72 47 305 36 316 -4 4 -211 -13 -302 -25 l-42 -6 -6 -56 c-22 -198 -58
-295 -140 -377 -69 -69 -141 -97 -255 -98 -67 -1 -95 4 -131 21 -65 29 -120
88 -162 172 -59 117 -72 196 -72 426 1 228 11 286 74 419 50 106 112 174 193
212 57 26 73 29 168 29 97 0 109 -2 158 -29 95 -53 142 -143 162 -311 7 -55
13 -101 14 -102 3 -3 320 27 332 31 15 6 14 768 -1 771 -6 1 -79 -4 -164 -12z
m99 -382 l0 -308 -97 -11 c-53 -6 -100 -9 -105 -6 -4 3 -8 26 -8 52 0 144 -91
297 -208 353 -160 75 -378 34 -506 -94 -64 -64 -129 -185 -156 -293 -62 -242
-40 -601 47 -781 39 -80 130 -175 194 -202 109 -47 218 -47 342 -1 157 59 262
216 287 428 4 40 11 76 14 79 6 6 189 24 194 18 2 -1 -2 -42 -8 -90 -38 -303
-231 -534 -520 -619 -89 -27 -242 -46 -359 -46 -390 0 -650 214 -724 595 -22
109 -25 170 -17 310 27 449 279 761 708 877 62 17 109 21 242 22 205 1 245
-11 350 -110 37 -35 70 -64 72 -64 3 0 13 37 23 83 10 45 22 87 28 94 8 11 50
17 160 21 l47 2 0 -309z"
    />
    <path
      d="M6210 6799 c-47 -5 -188 -18 -315 -29 -148 -14 -232 -25 -237 -33 -4
-7 -118 -345 -253 -753 -183 -552 -253 -751 -275 -782 -32 -45 -58 -55 -167
-67 l-63 -7 0 -159 c0 -123 3 -159 13 -159 17 0 330 26 527 44 85 8 193 18
240 21 132 10 120 -8 120 176 l0 159 -77 -7 c-43 -4 -96 -8 -118 -8 -39 0 -40
1 -39 35 1 33 47 192 62 216 4 7 86 18 202 28 107 9 218 19 245 22 l51 6 32
-103 c49 -156 49 -154 -66 -164 -37 -3 -82 -8 -99 -11 l-33 -5 0 -160 0 -161
63 7 c63 6 471 42 807 71 102 9 195 19 208 23 23 6 23 8 23 161 l0 155 -113 0
-113 0 -26 50 c-15 28 -91 250 -169 495 -276 867 -303 945 -325 946 -11 1 -58
-2 -105 -7z"
      fill="white"
    />
    <path
      d="M6210 6799 c-47 -5 -188 -18 -315 -29 -148 -14 -232 -25 -237 -33 -4
-7 -118 -345 -253 -753 -183 -552 -253 -751 -275 -782 -32 -45 -58 -55 -167
-67 l-63 -7 0 -159 c0 -123 3 -159 13 -159 17 0 330 26 527 44 85 8 193 18
240 21 132 10 120 -8 120 176 l0 159 -77 -7 c-43 -4 -96 -8 -118 -8 -39 0 -40
1 -39 35 1 33 47 192 62 216 4 7 86 18 202 28 107 9 218 19 245 22 l51 6 32
-103 c49 -156 49 -154 -66 -164 -37 -3 -82 -8 -99 -11 l-33 -5 0 -160 0 -161
63 7 c63 6 471 42 807 71 102 9 195 19 208 23 23 6 23 8 23 161 l0 155 -113 0
-113 0 -26 50 c-15 28 -91 250 -169 495 -276 867 -303 945 -325 946 -11 1 -58
-2 -105 -7z m141 -284 c37 -115 131 -410 209 -655 78 -245 157 -477 175 -517
44 -95 65 -108 172 -108 l83 0 0 -82 0 -82 -32 -5 c-39 -7 -184 -20 -438 -42
-102 -8 -250 -21 -330 -28 -80 -7 -148 -11 -152 -9 -5 2 -8 40 -8 83 l0 79 33
5 c143 20 162 26 186 53 20 23 22 34 18 72 -7 54 -59 226 -82 271 -16 30 -19
32 -58 26 -23 -3 -123 -13 -222 -21 -99 -8 -212 -17 -252 -21 -40 -3 -76 -11
-81 -17 -13 -16 -82 -242 -88 -292 -8 -52 20 -88 78 -103 23 -6 44 -9 48 -7 3
2 29 5 59 6 l54 3 1 -84 1 -85 -250 -21 c-137 -12 -303 -27 -368 -34 -64 -6
-122 -8 -127 -5 -6 3 -10 42 -10 86 l0 79 28 0 c47 0 129 29 162 57 17 14 42
46 54 72 13 25 130 368 260 761 130 393 240 718 244 721 4 4 115 17 247 29
132 11 251 22 265 24 14 2 31 3 39 2 9 -1 38 -76 82 -211z"
    />
    <path
      d="M5751 6082 c-69 -207 -127 -381 -129 -386 -3 -5 23 -6 64 -3 38 4
152 14 254 23 102 9 186 17 187 18 4 4 -242 726 -247 726 -3 0 -61 -170 -129
-378z"
      fill="#c42727"
    />
    <path
      d="M5751 6082 c-69 -207 -127 -381 -129 -386 -3 -5 23 -6 64 -3 38 4
152 14 254 23 102 9 186 17 187 18 4 4 -242 726 -247 726 -3 0 -61 -170 -129
-378z m204 -68 c37 -113 64 -208 61 -211 -8 -9 -270 -31 -277 -24 -3 3 24 96
60 206 73 221 78 235 85 235 2 0 34 -93 71 -206z"
    />
    <path
      d="M11429 5014 c-213 -22 -367 -64 -544 -149 -411 -198 -655 -599 -673
-1107 -10 -302 55 -558 196 -765 88 -129 260 -259 428 -322 176 -66 307 -86
538 -78 245 7 427 48 622 137 233 107 450 313 558 529 63 126 125 324 127 403
0 33 2 38 9 23 5 -12 9 73 9 213 1 127 -3 232 -8 232 -4 0 -11 28 -15 61 -7
72 -62 241 -107 331 -143 286 -422 460 -798 498 -126 12 -179 11 -342 -6z"
      fill="white"
    />
    <path
      d="M11429 5014 c-213 -22 -367 -64 -544 -149 -411 -198 -655 -599 -673
-1107 -10 -302 55 -558 196 -765 88 -129 260 -259 428 -322 176 -66 307 -86
538 -78 245 7 427 48 622 137 233 107 450 313 558 529 63 126 125 324 127 403
0 33 2 38 9 23 5 -12 9 73 9 213 1 127 -3 232 -8 232 -4 0 -11 28 -15 61 -7
72 -62 241 -107 331 -143 286 -422 460 -798 498 -126 12 -179 11 -342 -6z
m471 -88 c208 -49 352 -127 471 -254 109 -116 179 -261 226 -465 22 -96 26
-137 26 -282 1 -97 -4 -202 -12 -245 -70 -406 -288 -705 -641 -876 -157 -76
-316 -117 -526 -135 -381 -33 -702 72 -917 300 -51 55 -79 97 -122 184 -169
345 -163 796 16 1150 182 360 498 566 969 632 132 18 415 13 510 -9z"
    />
    <path
      d="M11394 4685 c-214 -47 -345 -203 -403 -482 -45 -216 -52 -587 -16
-821 55 -359 217 -515 501 -483 154 18 259 81 344 208 89 132 127 308 136 628
11 339 -25 610 -98 748 -92 172 -261 246 -464 202z"
      fill="#c42727"
    />
    <path
      d="M11394 4685 c-214 -47 -345 -203 -403 -482 -45 -216 -52 -587 -16
-821 55 -359 217 -515 501 -483 154 18 259 81 344 208 89 132 127 308 136 628
11 339 -25 610 -98 748 -92 172 -261 246 -464 202z m231 -86 c102 -38 176
-137 214 -284 59 -233 65 -640 11 -915 -55 -288 -201 -429 -442 -430 -195 0
-312 134 -357 410 -42 260 -31 643 25 865 20 76 74 189 114 238 99 118 291
170 435 116z"
    />
    <path
      d="M10055 4883 c-22 -2 -294 -26 -605 -53 -1071 -93 -1495 -131 -1560
-138 l-65 -7 -3 -472 -2 -473 43 0 c52 0 368 30 377 35 4 2 10 51 13 107 18
283 132 453 325 484 l43 7 -3 -749 c-2 -574 -6 -754 -15 -771 -17 -29 -57 -40
-188 -53 -175 -17 -155 10 -155 -210 0 -105 2 -190 5 -190 4 0 450 40 1177
105 152 14 280 25 283 25 3 0 5 86 5 191 l0 192 -72 -7 c-220 -19 -253 -19
-271 -2 -16 16 -17 74 -17 776 l0 759 33 6 c49 9 145 -11 188 -40 98 -64 134
-159 143 -374 3 -68 7 -125 8 -127 3 -3 249 18 369 32 l59 7 0 473 0 474 -37
-2 c-21 -1 -56 -3 -78 -5z"
      fill="white"
    />
    <path
      d="M10055 4883 c-22 -2 -294 -26 -605 -53 -1071 -93 -1495 -131 -1560
-138 l-65 -7 -3 -472 -2 -473 43 0 c52 0 368 30 377 35 4 2 10 51 13 107 18
283 132 453 325 484 l43 7 -3 -749 c-2 -574 -6 -754 -15 -771 -17 -29 -57 -40
-188 -53 -175 -17 -155 10 -155 -210 0 -105 2 -190 5 -190 4 0 450 40 1177
105 152 14 280 25 283 25 3 0 5 86 5 191 l0 192 -72 -7 c-220 -19 -253 -19
-271 -2 -16 16 -17 74 -17 776 l0 759 33 6 c49 9 145 -11 188 -40 98 -64 134
-159 143 -374 3 -68 7 -125 8 -127 3 -3 249 18 369 32 l59 7 0 473 0 474 -37
-2 c-21 -1 -56 -3 -78 -5z m43 -470 l-3 -397 -30 -8 c-16 -4 -81 -11 -142 -14
l-113 -7 0 71 c0 39 -7 104 -15 144 -51 240 -191 340 -439 313 l-67 -7 3 -802
c3 -747 4 -804 21 -829 40 -61 87 -71 254 -54 l82 9 3 -112 c2 -62 -1 -114 -5
-117 -8 -5 -227 -26 -712 -68 -165 -14 -365 -32 -445 -40 -80 -7 -149 -10
-153 -6 -4 4 -6 57 -5 117 l3 109 112 11 c137 15 191 37 219 91 18 37 19 69
22 841 1 479 -1 802 -7 802 -42 0 -188 -37 -237 -60 -149 -72 -245 -243 -262
-470 l-7 -84 -40 -7 c-22 -4 -84 -10 -137 -14 l-98 -7 0 395 c0 233 4 398 9
402 5 3 112 14 238 25 452 41 801 71 978 85 99 8 223 19 275 25 52 5 205 18
340 30 135 11 256 22 270 24 14 2 40 4 58 5 l32 1 -2 -397z"
    />
    <path
      d="M6390 4566 c-557 -85 -900 -351 -1073 -833 -61 -169 -90 -440 -68
-632 56 -479 298 -782 721 -904 247 -72 623 -60 897 29 193 62 403 192 530
328 238 254 361 615 339 996 -17 300 -114 559 -270 727 -123 132 -274 220
-464 270 -87 23 -119 26 -312 29 -141 2 -244 -2 -300 -10z"
      fill="white"
    />
    <path
      d="M6390 4566 c-557 -85 -900 -351 -1073 -833 -61 -169 -90 -440 -68
-632 56 -479 298 -782 721 -904 247 -72 623 -60 897 29 193 62 403 192 530
328 238 254 361 615 339 996 -17 300 -114 559 -270 727 -123 132 -274 220
-464 270 -87 23 -119 26 -312 29 -141 2 -244 -2 -300 -10z m445 -66 c210 -24
394 -103 526 -228 124 -116 186 -218 243 -400 70 -223 75 -527 12 -768 -111
-428 -438 -733 -896 -839 -286 -66 -609 -51 -830 38 -147 60 -296 169 -373
275 -82 111 -153 292 -183 466 -20 113 -14 392 11 506 76 347 266 617 545 775
166 95 345 146 615 178 66 8 245 6 330 -3z"
    />
    <path
      d="M6410 4241 c-178 -46 -296 -171 -360 -381 -49 -159 -55 -227 -55
-565 1 -283 3 -319 23 -413 27 -125 61 -211 108 -275 98 -134 271 -186 452
-137 300 81 417 348 416 945 -1 451 -80 694 -254 789 -105 57 -209 69 -330 37z"
      fill="#c42727"
    />
    <path
      d="M6410 4241 c-178 -46 -296 -171 -360 -381 -49 -159 -55 -227 -55
-565 1 -283 3 -319 23 -413 27 -125 61 -211 108 -275 98 -134 271 -186 452
-137 300 81 417 348 416 945 -1 451 -80 694 -254 789 -105 57 -209 69 -330 37z
m271 -90 c116 -60 178 -171 216 -388 21 -124 24 -559 5 -703 -29 -208 -85
-344 -178 -430 -79 -72 -144 -94 -274 -95 -91 0 -111 3 -150 23 -163 85 -226
268 -237 682 -8 316 28 563 103 712 30 58 101 138 151 169 101 63 273 77 364
30z"
    />
    <path
      d="M1640 4483 c-41 -3 -873 -95 -980 -108 -25 -3 -169 -19 -320 -36
-151 -16 -290 -32 -307 -35 l-33 -6 0 -234 0 -234 23 4 c57 12 227 28 266 24
75 -5 72 43 69 -998 -3 -790 -5 -919 -18 -945 -18 -36 -59 -49 -197 -65 -54
-6 -108 -13 -120 -15 l-23 -5 0 -238 0 -238 107 18 c60 10 374 47 698 83 325
36 605 67 623 70 l32 6 0 231 0 231 -67 -7 c-38 -3 -114 -9 -169 -12 l-101 -7
-11 49 c-7 29 -13 187 -14 384 l-3 335 115 12 c471 50 621 78 737 134 206 101
376 312 442 548 34 122 47 299 33 437 -21 199 -78 332 -191 444 -145 143 -321
195 -591 173z"
      fill="White"
    />
    <path
      d="M1640 4483 c-41 -3 -873 -95 -980 -108 -25 -3 -169 -19 -320 -36
-151 -16 -290 -32 -307 -35 l-33 -6 0 -234 0 -234 23 4 c57 12 227 28 266 24
75 -5 72 43 69 -998 -3 -790 -5 -919 -18 -945 -18 -36 -59 -49 -197 -65 -54
-6 -108 -13 -120 -15 l-23 -5 0 -238 0 -238 107 18 c60 10 374 47 698 83 325
36 605 67 623 70 l32 6 0 231 0 231 -67 -7 c-38 -3 -114 -9 -169 -12 l-101 -7
-11 49 c-7 29 -13 187 -14 384 l-3 335 115 12 c471 50 621 78 737 134 206 101
376 312 442 548 34 122 47 299 33 437 -21 199 -78 332 -191 444 -145 143 -321
195 -591 173z m318 -98 c262 -83 392 -294 392 -637 0 -201 -40 -368 -121 -504
-74 -125 -239 -270 -357 -314 -104 -39 -220 -58 -647 -105 -77 -8 -155 -18
-173 -21 l-34 -7 4 -396 c4 -426 5 -439 58 -486 25 -22 107 -27 233 -12 l68 8
-3 -158 -3 -158 -105 -12 c-58 -6 -348 -39 -645 -72 -297 -33 -543 -57 -547
-53 -5 5 -7 75 -6 157 l3 149 116 16 c132 19 185 41 213 89 30 52 38 314 34
1171 -4 770 -4 775 -25 823 -31 67 -69 82 -183 72 -47 -5 -101 -8 -120 -9
l-35 -1 -3 144 c-1 88 1 148 8 156 5 7 38 15 73 18 67 7 1294 143 1442 160 17
2 87 5 157 6 110 1 137 -2 206 -24z"
    />
    <path
      d="M1165 4040 c-77 -10 -141 -18 -142 -19 -2 -1 -3 -204 -3 -452 l0
-451 68 7 c380 38 484 76 575 205 62 90 82 170 82 335 -1 123 -3 147 -24 199
-27 67 -79 129 -130 155 -87 45 -198 50 -426 21z"
      fill="#c42727"
    />
    <path
      d="M1165 4040 c-77 -10 -141 -18 -142 -19 -2 -1 -3 -204 -3 -452 l0
-451 68 7 c380 38 484 76 575 205 62 90 82 170 82 335 -1 123 -3 147 -24 199
-27 67 -79 129 -130 155 -87 45 -198 50 -426 21z m358 -76 c114 -39 172 -187
148 -380 -20 -158 -78 -255 -185 -307 -55 -27 -224 -62 -336 -69 l-55 -3 0
375 0 375 90 11 c139 17 284 17 338 -2z"
    />
    <path
      d="M4250 4164 c-82 -5 -381 -30 -890 -75 -672 -58 -792 -69 -822 -75
l-28 -6 0 -188 0 -189 53 5 c28 3 93 8 142 13 113 9 147 3 156 -29 9 -33 9
-1437 0 -1470 -9 -32 -50 -46 -182 -59 -57 -6 -119 -14 -136 -17 l-33 -5 0
-189 c0 -111 4 -190 9 -190 5 0 110 9 233 20 291 27 615 55 913 80 132 11 255
22 273 25 l32 6 0 191 0 191 -52 -6 c-29 -4 -100 -9 -158 -13 -153 -9 -143
-25 -151 248 -5 215 -5 366 3 373 6 6 246 25 315 25 116 0 135 -31 129 -209
-4 -146 10 -355 29 -426 74 -278 269 -400 584 -365 260 28 433 155 508 372 28
82 41 268 26 368 l-8 55 -75 -4 c-41 -2 -104 -6 -140 -10 l-65 -6 -6 -130 c-4
-71 -7 -140 -8 -153 -1 -23 -42 -72 -60 -72 -5 0 -17 7 -25 16 -13 13 -16 44
-16 182 -1 201 -14 358 -35 423 -28 84 -99 149 -215 196 -25 10 -25 10 20 33
242 123 376 367 340 621 -41 288 -303 465 -660 443z"
      fill="white"
    />
    <path
      d="M4250 4164 c-82 -5 -381 -30 -890 -75 -672 -58 -792 -69 -822 -75
l-28 -6 0 -188 0 -189 53 5 c28 3 93 8 142 13 113 9 147 3 156 -29 9 -33 9
-1437 0 -1470 -9 -32 -50 -46 -182 -59 -57 -6 -119 -14 -136 -17 l-33 -5 0
-189 c0 -111 4 -190 9 -190 5 0 110 9 233 20 291 27 615 55 913 80 132 11 255
22 273 25 l32 6 0 191 0 191 -52 -6 c-29 -4 -100 -9 -158 -13 -153 -9 -143
-25 -151 248 -5 215 -5 366 3 373 6 6 246 25 315 25 116 0 135 -31 129 -209
-4 -146 10 -355 29 -426 74 -278 269 -400 584 -365 260 28 433 155 508 372 28
82 41 268 26 368 l-8 55 -75 -4 c-41 -2 -104 -6 -140 -10 l-65 -6 -6 -130 c-4
-71 -7 -140 -8 -153 -1 -23 -42 -72 -60 -72 -5 0 -17 7 -25 16 -13 13 -16 44
-16 182 -1 201 -14 358 -35 423 -28 84 -99 149 -215 196 -25 10 -25 10 20 33
242 123 376 367 340 621 -41 288 -303 465 -660 443z m225 -89 c157 -40 268
-125 328 -253 30 -63 32 -73 32 -182 -1 -95 -5 -125 -24 -172 -51 -131 -145
-232 -276 -298 -55 -27 -246 -82 -387 -110 -32 -6 -58 -16 -58 -21 0 -5 45 -9
100 -9 204 0 360 -30 433 -84 15 -11 42 -50 60 -85 l32 -66 5 -265 c5 -288 7
-298 65 -336 39 -25 110 -14 147 23 24 25 31 42 38 99 5 38 9 102 10 142 0 81
-4 78 86 86 l62 5 7 -77 c29 -353 -218 -590 -595 -569 -212 12 -325 105 -382
314 -18 68 -21 109 -23 313 -3 253 -8 279 -57 332 -48 50 -86 54 -327 32
l-216 -19 2 -337 c1 -364 2 -372 56 -412 28 -21 80 -23 271 -13 l29 2 -2 -109
c0 -60 -3 -112 -6 -115 -3 -3 -119 -15 -258 -27 -139 -13 -358 -32 -487 -44
-456 -41 -552 -47 -556 -35 -3 6 -3 58 -2 116 l3 104 119 12 c177 19 218 46
236 158 12 74 13 1310 1 1414 -8 63 -13 78 -40 105 l-32 31 -144 -2 -145 -3 0
110 c0 129 -18 114 170 130 69 6 197 17 285 25 88 8 293 26 455 40 162 14 385
34 495 44 257 24 413 26 490 6z"
    />
    <path
      d="M3698 3812 l-168 -15 0 -354 0 -354 73 6 c374 32 462 52 533 117 113
104 145 329 68 485 -31 64 -74 96 -159 118 -70 18 -123 17 -347 -3z"
      fill="#c42727"
    />
    <path
      d="M3698 3812 l-168 -15 0 -354 0 -354 73 6 c374 32 462 52 533 117 113
104 145 329 68 485 -31 64 -74 96 -159 118 -70 18 -123 17 -347 -3z m382 -87
c21 -13 44 -40 60 -70 22 -43 25 -62 25 -150 0 -171 -56 -255 -191 -289 -55
-14 -354 -49 -361 -42 -6 6 -8 544 -2 550 10 11 196 24 314 23 101 -2 126 -5
155 -22z"
    />
    <path
      d="M5903 1581 c-24 -4 -45 -10 -49 -13 -9 -10 5 -28 22 -28 11 0 14 -23
14 -125 0 -114 -2 -125 -20 -135 -11 -6 -20 -15 -20 -20 0 -11 87 -11 134 -1
36 7 46 30 17 38 -19 5 -21 13 -23 146 -3 157 1 150 -75 138z"
    />
    <path
      d="M4830 1435 c0 -26 -22 -63 -46 -76 -30 -15 -32 -49 -4 -49 18 0 20
-7 20 -54 0 -105 27 -136 106 -122 29 6 38 14 50 43 17 39 11 87 -9 80 -7 -2
-13 -17 -15 -35 -4 -36 -28 -63 -37 -40 -3 9 -5 44 -3 79 3 62 4 64 31 67 37
4 33 36 -6 40 -24 3 -27 7 -27 43 0 37 -2 39 -30 39 -20 0 -30 -5 -30 -15z"
    />
    <path
      d="M5635 1431 c-45 -28 -63 -52 -70 -96 -9 -54 25 -106 76 -119 136 -34
245 116 152 208 -21 21 -35 26 -77 26 -32 0 -62 -7 -81 -19z m96 -48 c12 -31
4 -100 -13 -120 -13 -16 -44 -17 -54 -2 -12 20 -8 118 6 134 20 24 49 18 61
-12z"
    />
    <path
      d="M5361 1412 c-38 -21 -71 -73 -71 -113 0 -14 10 -41 23 -60 45 -67
154 -63 198 7 31 51 12 66 -32 25 -41 -40 -73 -41 -88 -3 -19 46 9 122 46 122
16 0 16 -5 3 -31 -26 -48 43 -82 74 -37 22 31 20 51 -9 82 -30 32 -92 36 -144
8z"
    />
    <path
      d="M5065 1391 c-53 -32 -68 -57 -69 -112 -1 -45 3 -54 33 -81 31 -27 39
-30 88 -26 62 5 99 29 127 79 24 45 15 101 -21 135 -33 31 -113 33 -158 5z
m95 -40 c28 -53 -1 -145 -43 -139 -36 5 -48 106 -16 144 16 20 47 17 59 -5z"
    />
    <path
      d="M4530 1328 c-37 -19 -47 -31 -59 -66 -15 -50 -10 -81 23 -119 22 -25
31 -28 84 -28 71 0 107 21 136 79 22 46 15 98 -19 132 -32 32 -103 33 -165 2z
m103 -55 c14 -48 1 -102 -29 -115 -18 -9 -27 -9 -36 0 -16 16 -14 117 2 137
21 25 53 14 63 -22z"
    />
    <path
      d="M4369 1325 c-3 -3 -3 -22 0 -43 5 -30 11 -38 32 -40 32 -4 51 18 47
55 -3 24 -8 28 -38 31 -20 2 -38 0 -41 -3z"
    />
    <path
      d="M4233 1310 c-15 -6 -21 -15 -17 -25 3 -8 11 -12 16 -9 17 11 28 -19
28 -78 0 -47 -4 -59 -20 -68 -33 -17 -25 -40 14 -40 106 0 155 24 105 51 -20
10 -21 16 -14 95 l7 84 -49 -1 c-26 0 -58 -4 -70 -9z"
    />
    <path
      d="M4040 1289 c-30 -5 -76 -11 -102 -14 -51 -7 -67 -32 -28 -42 19 -5
20 -14 20 -121 0 -115 0 -117 -27 -139 l-28 -22 80 0 c102 -1 115 7 80 45 -14
15 -25 37 -23 48 3 19 9 21 54 18 42 -3 56 0 79 20 53 46 45 187 -12 209 -13
5 -27 8 -31 8 -4 -1 -32 -6 -62 -10z m38 -51 c14 -14 16 -106 3 -126 -4 -8
-19 -12 -32 -10 -22 3 -24 8 -27 61 -4 75 22 109 56 75z"
    />
    <path
      d="M2987 1273 c-13 -12 -7 -64 8 -69 43 -17 92 29 65 61 -13 15 -61 20
-73 8z"
    />
    <path
      d="M3620 1253 c-8 -2 -22 -7 -30 -10 -8 -3 -45 -6 -82 -7 -77 -1 -92
-10 -60 -36 19 -16 22 -28 22 -83 0 -57 -3 -67 -20 -72 -11 -3 -20 -13 -20
-22 0 -14 11 -15 72 -10 76 7 106 21 76 38 -14 8 -18 23 -18 74 0 55 3 66 21
75 38 21 49 6 49 -69 0 -44 -4 -71 -12 -73 -6 -2 -9 -12 -5 -21 4 -12 14 -15
34 -12 15 2 45 7 66 10 38 6 51 30 22 41 -11 5 -15 23 -15 75 0 56 -4 73 -20
89 -19 19 -48 24 -80 13z"
    />
    <path
      d="M2770 1206 c-10 -25 -27 -47 -39 -51 -27 -8 -27 -35 -1 -42 17 -4 20
-14 20 -58 0 -104 27 -135 105 -121 37 7 49 22 59 71 8 37 -9 68 -24 45 -5 -8
-10 -27 -10 -41 0 -29 -27 -48 -36 -25 -3 7 -4 42 -2 77 3 62 4 64 31 67 36 4
34 37 -3 37 -22 0 -25 5 -28 43 -3 37 -6 42 -28 42 -20 0 -29 -9 -44 -44z"
    />
    <path
      d="M3203 1194 c-59 -29 -84 -97 -59 -157 21 -52 55 -71 117 -65 120 12
179 135 102 212 -21 21 -35 26 -77 26 -28 0 -65 -8 -83 -16z m98 -51 c13 -35
5 -101 -14 -120 -19 -20 -53 -9 -61 20 -9 34 -7 55 8 92 19 44 52 48 67 8z"
    />
    <path
      d="M2022 1172 c-8 -5 -12 -22 -10 -38 3 -26 7 -29 38 -29 33 0 35 2 35
35 0 30 -4 35 -25 38 -14 1 -31 -2 -38 -6z"
    />
    <path
      d="M2952 1168 c-17 -17 -15 -25 8 -31 18 -4 20 -14 20 -75 0 -61 -2 -70
-20 -75 -11 -3 -20 -12 -20 -21 0 -29 158 -17 168 12 2 8 -5 16 -17 19 -19 5
-21 12 -21 94 l0 89 -53 0 c-29 0 -58 -5 -65 -12z"
    />
    <path
      d="M1843 1161 c-24 -4 -45 -10 -49 -13 -9 -10 5 -28 22 -28 11 0 14 -23
14 -125 0 -114 -2 -125 -20 -135 -50 -27 -1 -38 104 -24 48 7 64 31 26 41 -18
5 -20 15 -22 146 -3 157 1 150 -75 138z"
    />
    <path
      d="M2478 1114 c-58 -31 -57 -89 1 -82 22 3 26 8 25 36 -2 27 1 32 21 32
12 0 28 -6 34 -14 20 -24 -4 -54 -52 -66 -66 -18 -87 -36 -87 -73 0 -18 5 -38
12 -45 19 -19 95 -15 117 7 17 17 20 17 34 4 11 -11 25 -14 49 -9 46 9 57 18
67 54 12 40 -5 54 -19 17 -16 -42 -28 -20 -29 50 0 95 -9 105 -84 105 -35 -1
-74 -7 -89 -16z m92 -132 c0 -23 -19 -42 -42 -42 -23 0 -24 36 0 49 26 16 42
13 42 -7z"
    />
    <path
      d="M2240 1103 c-79 -8 -80 -9 -80 -63 0 -60 15 -65 48 -15 12 19 29 35
37 35 8 0 15 -1 15 -3 0 -2 -22 -32 -50 -68 -33 -42 -50 -74 -50 -92 l0 -29
98 7 c53 4 103 12 110 18 16 13 12 102 -5 102 -6 0 -22 -16 -35 -35 -14 -20
-34 -36 -47 -38 -22 -3 -19 2 26 60 52 66 73 99 73 117 0 11 -61 12 -140 4z"
    />
    <path
      d="M2055 1083 c-55 -6 -75 -13 -75 -27 0 -8 7 -16 15 -20 22 -8 22 -146
-1 -146 -10 0 -14 -7 -12 -20 4 -25 1 -24 88 -16 60 6 70 10 70 27 0 12 -7 19
-20 19 -19 0 -20 7 -20 89 0 50 -3 91 -7 93 -5 2 -21 2 -38 1z"
    />
    <path
      d="M1553 1035 c-60 -26 -69 -85 -14 -85 32 0 61 33 41 45 -18 11 -10 25
15 25 28 0 48 -29 35 -50 -5 -8 -35 -23 -67 -34 -66 -24 -86 -55 -65 -101 10
-21 18 -25 55 -25 23 0 52 7 65 15 17 13 26 13 43 5 54 -29 134 24 111 73 -10
22 -10 22 -21 -6 -14 -36 -33 -25 -30 17 4 64 -1 105 -17 120 -19 20 -106 21
-151 1z m87 -121 c0 -27 -20 -54 -40 -54 -28 0 -26 35 2 54 28 20 38 20 38 0z"
    />
    <path
      d="M1280 992 c-46 -22 -75 -79 -65 -129 9 -51 54 -93 100 -93 49 0 97
22 118 53 34 52 9 64 -42 21 -39 -32 -76 -30 -76 6 0 24 4 25 69 33 38 4 71 9
73 11 10 10 -20 87 -40 101 -29 20 -94 19 -137 -3z m74 -28 c9 -3 16 -15 16
-25 0 -14 -7 -19 -30 -19 -31 0 -39 17 -18 38 14 14 12 14 32 6z"
    />
    <path
      d="M1118 978 c-2 -7 -2 -26 1 -43 5 -23 12 -31 32 -33 32 -4 51 18 47
55 -3 24 -8 28 -39 31 -23 2 -38 -2 -41 -10z"
    />
    <path
      d="M995 973 c-35 -9 -40 -22 -12 -32 25 -10 27 -14 27 -76 0 -54 -3 -67
-20 -77 -31 -20 -24 -38 14 -38 75 0 126 12 126 30 0 10 -9 20 -19 23 -17 4
-18 12 -14 91 l6 86 -44 -1 c-24 -1 -53 -3 -64 -6z"
    />
    <path
      d="M751 932 c-46 -25 -74 -76 -67 -125 9 -74 76 -112 151 -87 37 12 85
56 85 77 0 22 -35 14 -60 -12 -30 -32 -73 -31 -78 2 -4 24 2 26 87 38 59 8 61
10 50 48 -20 71 -96 98 -168 59z m87 -50 c3 -19 -1 -22 -27 -22 -35 0 -42 22
-13 39 23 14 36 9 40 -17z"
    />
    <path
      d="M480 912 c-69 -37 -87 -125 -39 -186 53 -67 199 -28 199 54 0 28 -11
25 -45 -10 -40 -42 -70 -40 -85 5 -10 30 -9 41 7 73 10 20 26 38 35 40 15 3
16 0 7 -28 -19 -52 21 -78 69 -44 29 20 28 59 -3 89 -30 31 -94 34 -145 7z"
    />
  </g>
</svg>
