<svg viewBox="0 0 32 32" xmlns="http://www.w3.org/2000/svg"><g fill="#808080"><path d="m10.242 17.981-.042-.011-.042-.022-.039-.028-.036-.036-.036-.045-.034-.05-.059-.126-.054-.155-.042-.179-.034-.2-.024-.229-.02-.509.02-.576.056-.632.1-.669.137-.663.159-.613.179-.548.193-.473.1-.2.1-.179.1-.151.1-.126.1-.1.05-.039.048-.028.048-.022.048-.014h.048.045l.045.011.042.022.039.028.039.036.034.045.034.05.062.126.05.154.042.179.034.2.025.224.02.509-.017.576-.059.632-.1.669-.134.663-.167.618-.179.548-.193.473-.1.2-.1.179-.1.154-.1.126-.1.1-.05.036-.048.031-.048.022-.048.011-.048.006z"/><path d="m11.361 23.548-.042.006h-.045l-.045-.008-.045-.014-.048-.022-.045-.031-.091-.079-.1-.1-.1-.12-.1-.145-.1-.165-.187-.383-.173-.448-.157-.5-.134-.546-.1-.554-.049-.528-.022-.481.011-.43.02-.187.031-.171.039-.154.048-.129.056-.109.031-.045.031-.039.036-.031.036-.028.039-.02.042-.011.042-.006h.045l.045.008.045.014.048.022.048.028.1.076.1.1.1.123.1.145.1.162.185.383.176.45.157.5.134.548.1.554.059.523.022.478-.014.428-.02.187-.031.171-.039.151-.048.131-.056.109-.031.045-.031.039-.036.031-.036.028-.039.02z"/><path d="m14.556 27.563-.034.02-.036.017-.042.008-.042.006h-.048l-.05-.008-.104-.026-.118-.045-.126-.064-.134-.084-.14-.1-.3-.243-.311-.3-.313-.355-.313-.4-.288-.42-.243-.406-.2-.389-.143-.355-.053-.165-.036-.151-.025-.14-.008-.126.008-.109.008-.048.014-.045.017-.042.022-.036.025-.031.031-.025.034-.02.039-.017.039-.008.045-.006h.045l.05.006.109.028.115.045.126.064.134.081.14.1.3.246.311.3.316.355.313.4.288.417.243.408.193.386.145.358.05.162.039.154.022.137.008.126-.008.112-.008.048-.014.045-.017.042-.022.036-.025.031z"/><path d="m19.967 28.657-.008.034-.017.034-.022.031-.028.031-.036.028-.042.025-.1.048-.126.042-.148.036-.168.028-.185.022-.422.022-.481-.006-.528-.032-.56-.067-.557-.1-.512-.115-.462-.129-.4-.143-.165-.074-.151-.073-.131-.076-.109-.076-.084-.076-.031-.039-.033-.032-.02-.036-.011-.036-.006-.036v-.034l.008-.034.017-.034.022-.031.028-.031.036-.028.042-.025.1-.048.126-.042.148-.036.165-.028.187-.022.422-.022.478.006.526.036.56.067.557.1.515.115.462.129.4.143.173.076.151.073.131.076.109.076.084.076.031.039.028.036.02.036.011.036.006.036z"/><path d="m20.185 28.45-.008-.028v-.031l.006-.031.008-.034.017-.036.022-.036.062-.078.081-.084.1-.087.255-.19.322-.2.38-.2.428-.2.467-.2.476-.173.453-.143.417-.106.372-.073.316-.036h.134l.118.006.1.017.039.011.036.017.031.017.025.02.02.022.014.025.008.028v.031l-.006.031-.008.034-.017.036-.022.036-.062.078-.081.084-.1.087-.255.19-.325.2-.378.2-.431.2-.467.2-.476.173-.45.143-.417.106-.372.073-.316.036h-.134l-.118-.006-.1-.017-.039-.011-.036-.017-.031-.017-.025-.02-.02-.022z"/><path d="m24.8 26.492-.006-.006-.006-.006-.006-.014-.006-.02v-.046-.028l.017-.059.025-.067.034-.078.1-.179.129-.2.159-.224.187-.241.21-.249.218-.241.213-.218.2-.187.185-.157.162-.118.073-.045.064-.034.056-.022.025-.008h.022.02.02l.014.006h.008l.006.006.006.006.006.006.006.014.006.02v.02.022.028l-.014.059-.025.067-.034.078-.1.179-.129.2-.159.224-.187.241-.21.249-.218.241-.213.218-.2.187-.185.157-.162.118-.073.045-.064.034-.059.022-.025.008h-.022-.02-.02l-.014-.006h-.008z"/><path d="m12.746 27.815v-.1-.1-.1l-.006-.1-.006-.1-.008-.1-.011-.1-.008-.092-.014-.09-.011-.087-.014-.087-.017-.081-.017-.081-.017-.076-.02-.076-.022-.07-.02-.064-.022-.064-.022-.059-.025-.053-.022-.05-.025-.048-.028-.039-.025-.036-.028-.034-.028-.028h-.03l-.028-.017-.028-.011-.028-.008h-.028-.028l-.028.008-.028.011-.028.017-.028.022-.028.028-.028.034-.025.036-.028.039-.025.048-.022.05-.025.053-.022.059-.022.064-.02.064-.022.07-.02.076-.017.076-.017.081-.017.081-.014.087-.011.087-.014.09-.008.092-.011.1-.008.1-.006.1-.006.1v.1.1.1.1.1.1l.006.1.006.1.008.1.011.1.008.092.014.09.011.087.014.087.017.081.017.081.017.076.02.076.022.07.02.064.022.064.022.059.025.053.022.05.025.048.028.039.025.036.028.034.028.028.028.022.028.017.028.011.028.008h.028.028l.028-.008.028-.011.028-.017.028-.022.028-.028.028-.034.025-.036.028-.039.025-.048.022-.05.025-.053.022-.059.022-.064.02-.064.022-.07.02-.076.017-.076.017-.081.017-.081.014-.087.011-.087.014-.09.008-.092.011-.1.008-.1.006-.1.006-.1v-.1-.1z"/><path d="m11.971 29.913-.017.022-.025.02-.025.017-.034.011-.034.008-.041.009h-.09l-.106-.011-.12-.022-.131-.034-.143-.045-.316-.126-.35-.165-.369-.2-.386-.238-.373-.259-.336-.257-.294-.252-.241-.238-.1-.115-.084-.106-.07-.1-.05-.092-.036-.082-.011-.039-.006-.036v-.034-.034l.008-.028.014-.025.02-.022.022-.02.028-.017.031-.011.036-.008.039-.006h.092l.106.011.12.022.131.034.143.045.316.123.35.165.369.2.386.238.372.257.336.257.291.252.243.238.1.115.084.106.07.1.053.092.034.084.011.039.008.036v.034.034l-.008.028z"/><path d="m8.152 27.448-.008.006-.008.006-.008.006h-.011-.011-.015-.028l-.034-.006-.036-.011-.039-.014-.042-.02-.09-.05-.1-.064-.1-.076-.1-.09-.1-.1-.092-.085-.076-.09-.054-.083-.022-.039-.02-.039-.014-.034-.011-.031-.01-.034v-.022-.011-.011l.006-.008.006-.008.008-.006.008-.008h.008.011.011.042l.034.008.034.011.039.014.042.02.092.048.1.064.1.078.1.087.1.1.087.092.073.092.059.084.025.039.02.036.014.036.011.031v.028.014.011.011.011l-.006.008z"/><path d="m26.964 23.929h-.006l-.008-.006-.011-.011-.011-.017-.008-.017-.006-.022-.006-.025v-.062-.073l.008-.087.034-.2.059-.235.081-.263.1-.288.12-.3.134-.3.134-.271.134-.243.126-.2.118-.165.056-.067.05-.05.048-.039.02-.017.022-.011.017-.006.02-.006h.017.006.008.006l.008.006.011.011.008.017.008.017.006.022.006.025.006.062v.073l-.008.087-.036.2-.059.235-.081.263-.1.288-.12.3-.131.3-.134.271-.134.243-.126.207-.118.162-.056.067-.05.05-.048.039-.02.017-.022.011-.017.006-.02.006h-.017-.006z"/><path d="m18.331 25.014v-.1-.1-.1l-.006-.1-.006-.1-.008-.1-.008-.1-.011-.092-.011-.09-.014-.087-.014-.087-.023-.058-.017-.081-.017-.076-.02-.076-.02-.07-.02-.064-.022-.064-.022-.059-.025-.053-.022-.05-.025-.048-.028-.039-.025-.036-.025-.034-.028-.028-.028-.022-.028-.017-.028-.011-.028-.008h-.028-.028l-.028.008-.028.011-.028.017-.028.022-.028.028-.025.034-.025.036-.028.039-.028.041-.022.05-.025.053-.022.059-.022.064-.02.064-.02.07-.02.076-.017.076-.017.081-.017.081-.014.087-.014.087-.011.09-.011.092-.008.1-.008.1-.006.1-.006.1v.1.1.1.1.1.1l.006.1.006.1.008.1.008.1.011.092.011.09.014.087.014.087.017.081.017.081.017.076.02.076.02.07.02.064.022.064.022.059.025.053.022.05.025.048.028.039.025.036.025.034.028.028.028.022.028.017.028.011.028.008h.028.028l.028-.008.028-.011.028-.017.028-.022.028-.028.025-.034.025-.036.028-.039.025-.048.022-.05.025-.053.022-.059.022-.064.02-.064.02-.07.02-.076.017-.076.017-.081.017-.081.014-.087.014-.087.011-.09.011-.092.008-.1.008-.1.006-.1.006-.1v-.1-.1z"/><path d="m17.572 27.113-.017.022-.025.02-.025.017-.034.011-.034.008-.037.009h-.09l-.106-.011-.12-.022-.131-.034-.143-.045-.316-.126-.35-.165-.369-.2-.386-.238-.372-.255-.336-.257-.294-.252-.241-.238-.1-.115-.084-.106-.07-.1-.05-.092-.036-.084-.011-.039-.006-.036v-.034-.034l.008-.028.014-.025.02-.022.022-.02.028-.017.031-.011.036-.008.039-.006h.092l.106.011.12.022.131.034.143.045.316.123.35.165.369.2.386.238.372.257.336.257.291.252.243.238.1.115.084.106.07.1.053.092.034.084.011.039.008.036v.034.034l-.008.028z"/><path d="m7.1 20.552-.028-.028-.022-.031-.02-.034-.014-.036-.014-.042-.002-.042-.006-.1.008-.1.02-.115.034-.123.045-.129.059-.134.067-.143.173-.291.213-.3.255-.3.277-.283.277-.241.274-.2.134-.081.129-.07.123-.059.118-.045.112-.031.1-.02h.1l.045.006.042.008.039.011.034.017.034.02.031.022.028.028.022.031.02.034.014.039.014.039.008.045.006.092-.006.106-.022.115-.031.12-.045.131-.059.134-.07.14-.177.288-.215.3-.252.3-.277.283-.28.241-.274.2-.131.081-.131.07-.123.059-.118.045-.112.031-.1.017h-.1-.045l-.042-.008-.039-.008-.033-.011-.034-.02z"/><path d="m6.614 20.42-.028.006h-.028l-.031-.006-.027-.02-.034-.017-.031-.022-.07-.062-.07-.078-.073-.1-.073-.115-.076-.129-.148-.3-.145-.358-.14-.4-.126-.436-.1-.439-.078-.417-.048-.38-.02-.339v-.148l.008-.134.014-.12.022-.1.031-.087.017-.036.02-.031.02-.025.025-.022.022-.014.028-.011.025-.01h.028l.031.006.031.014.034.017.031.022.07.059.07.081.073.1.073.115.076.129.148.3.145.355.14.4.126.436.1.439.078.417.048.38.02.339v.151l-.008.134-.017.12-.022.1-.028.087-.017.036-.02.031-.022.025-.022.022-.025.014z"/><path d="m14.223 20.871-.02-.022-.017-.022-.011-.028-.011-.034-.006-.034v-.036l.006-.084.017-.1.031-.1.045-.112.056-.12.143-.26.185-.283.221-.294.257-.3.274-.285.269-.249.263-.21.243-.168.115-.067.109-.056.1-.042.092-.028.084-.014h.073l.031.008.028.008.028.014.022.017.02.022.017.025.011.028.008.031.006.034v.039l-.006.081-.02.1-.031.1-.042.112-.056.12-.143.26-.185.283-.224.294-.255.3-.274.285-.269.249-.263.213-.243.168-.115.067-.109.053-.1.042-.092.028-.084.014h-.036-.036l-.031-.006-.028-.011-.028-.014z"/><path d="m14.044 21.467-.025.017-.028.008-.031.006h-.034-.036l-.039-.008-.09-.028-.1-.045-.106-.062-.112-.076-.12-.09-.257-.224-.266-.265-.283-.313-.285-.353-.269-.367-.229-.353-.193-.333-.148-.308-.056-.137-.045-.131-.034-.118-.02-.1v-.092-.039l.006-.036.008-.034.014-.028.017-.025.022-.02.025-.017.028-.008.031-.006h.034.036l.039.008.09.028.1.045.106.062.112.076.12.092.257.221.274.271.283.313.285.353.266.367.232.353.193.333.148.308.056.137.045.129.034.118.017.106.006.09v.042l-.006.036-.008.031-.014.028-.017.025z"/><path d="m8.482 27.255h-.008-.017-.011l-.011-.006-.011-.006-.024-.016-.025-.022-.025-.028-.028-.034-.031-.036-.059-.09-.062-.106-.062-.12-.059-.131-.049-.135-.044-.125-.031-.118-.025-.109v-.048l-.006-.042v-.073l.006-.028v-.014l.006-.008.006-.011.006-.006.006-.006.008-.006h.008.02.008l.011.006.011.006.025.017.025.022.025.028.028.034.028.036.062.09.062.106.059.12.059.131.053.134.042.129.034.118.02.106.008.048v.042.039.034l-.006.028v.014l-.006.008-.006.011-.006.006-.006.006z"/><path d="m6.731 27.387v-.008l.006-.008.006-.006.008-.006.008-.008.011-.006.028-.008.034-.008h.039l.1-.006.112.006.126.011.14.022.145.031.145.036.131.039.12.045.1.045.084.042.034.022.028.022.02.02.008.011.006.008.006.008v.011.017.008l-.006.008-.006.006-.008.008-.008.006-.011.006-.028.008-.034.008-.039.006h-.1-.112l-.124-.016-.14-.02-.145-.031-.145-.036-.131-.042-.12-.042-.1-.045-.084-.045-.035-.021-.028-.02-.02-.022-.008-.008-.006-.011-.006-.008v-.011-.017z"/><path d="m5.142 16.036-.008.006-.008.006-.008.006h-.011-.011-.016-.028l-.034-.006-.036-.011-.039-.014-.042-.02-.09-.05-.1-.064-.1-.076-.1-.09-.1-.1-.087-.092-.076-.09-.059-.084-.022-.039-.02-.039-.014-.034-.011-.031-.006-.031v-.022-.011-.011l.006-.008.006-.008.008-.006.008-.008h.008.011.011.042l.034.008.034.011.039.014.042.02.092.048.1.064.1.078.1.087.1.1.087.092.073.092.059.084.025.039.02.036.014.036.011.031v.028.014.011.011.011l-.006.008z"/><path d="m5.472 15.843h-.008-.017-.011l-.011-.006-.011-.006-.022-.017-.025-.022-.025-.028-.028-.034-.032-.03-.059-.09-.062-.11-.062-.12-.059-.131-.053-.134-.042-.129-.031-.118-.022-.106-.006-.048-.006-.042v-.072l.006-.028v-.014l.006-.008.006-.011.006-.006.006-.006.008-.006h.008.02.008l.011.006.011.006.024.015.025.022.025.028.028.034.028.036.062.09.062.106.059.12.059.131.053.134.042.129.034.118.02.106.008.048v.042.039.034l-.006.028v.014l-.006.008-.006.011-.006.006-.006.006z"/><path d="m3.718 15.975v-.008l.006-.008.006-.006.008-.006.008-.008.011-.006.028-.008.034-.008h.039l.1-.006.112.006.126.011.14.022.145.028.145.036.131.042.12.042.1.045.084.045.034.022.028.02.02.022.008.008.006.011.006.008v.011.01.008l-.006.008-.006.006-.008.006-.008.008-.011.006-.028.008-.034.008h-.039l-.1.006-.112-.006-.126-.011-.14-.022-.145-.025-.145-.036-.131-.039-.12-.045-.1-.042-.083-.038-.034-.022-.027-.028-.02-.02-.008-.011-.006-.008-.005-.011v-.011-.017z"/><path d="m17.393 17.8-.006-.008-.006-.008v-.011-.011-.011-.011-.031l.011-.031.014-.034.02-.039.025-.039.059-.084.073-.09.087-.092.1-.1.1-.087.1-.078.1-.064.09-.048.042-.02.039-.017.036-.011.031-.006h.028.014.011.011l.008.006.008.006.008.006.006.008.006.008v.008.011.011.014.028l-.011.031-.014.034-.02.039-.022.039-.062.084-.073.09-.087.092-.1.1-.1.087-.1.078-.1.064-.092.05-.039.017-.039.017-.036.011-.034.006h-.028-.025-.008l-.011-.006-.007.002z"/><path d="m17.046 17.612-.008-.006-.006-.006-.006-.006-.006-.011-.006-.008v-.014l-.006-.028v-.034-.036-.045l.008-.048.02-.1.034-.12.042-.126.053-.134.059-.131.062-.12.062-.106.059-.09.031-.039.028-.034.025-.028.025-.02.022-.017.011-.006.011-.006h.011.017.008.008l.006.006.006.008.006.008.006.011v.011l.006.028v.034.039.042l-.008.048-.02.106-.034.118-.042.129-.053.134-.059.131-.062.12-.062.106-.059.09-.028.039-.028.034-.028.028-.025.02-.022.017-.011.006-.011.006h-.011-.017z"/><path d="m18.809 17.749v.017.008.011l-.008.008-.006.011-.022.02-.028.022-.034.02-.081.045-.1.045-.13.044-.131.039-.145.036-.145.031-.14.02-.126.014h-.112-.1l-.039-.006-.034-.008-.028-.008-.011-.006-.008-.006-.008-.008-.006-.006-.006-.008v-.008-.017-.011l.006-.008.006-.011.008-.008.02-.022.028-.02.034-.022.039-.022.045-.022.1-.045.12-.042.134-.039.145-.036.145-.028.137-.022.126-.011h.112.1l.039.006.034.008.028.008.011.006.008.006.008.008.006.006.006.008z"/><path d="m17.354 22.944-.008.006-.008.006-.008.006h-.011-.011-.014-.028l-.034-.006-.034-.011-.039-.014-.042-.02-.092-.05-.1-.062-.1-.078-.1-.087-.1-.1-.087-.092-.076-.09-.059-.084-.022-.039-.02-.036-.017-.036-.008-.031-.006-.026v-.014-.011-.011-.011l.006-.008.006-.008.008-.006.008-.006.008-.006h.011.011.014.031l.031.006.036.011.039.017.042.02.092.048.1.064.1.076.1.087.1.1.087.092.073.09.062.084.022.039.02.039.014.034.011.031v.031.011.011.011.011l-.006.008z"/><path d="m17.687 22.754h-.008-.017-.011l-.008-.006-.011-.006-.022-.017-.025-.022-.028-.028-.057-.075-.059-.09-.062-.106-.062-.12-.059-.131-.053-.134-.042-.126-.031-.12-.022-.1-.011-.092v-.036-.034l.006-.028v-.014-.008l.006-.011.006-.006.006-.006.008-.006h.008.017.011l.011.006.011.006.022.017.025.022.025.028.028.034.031.039.059.09.062.106.059.12.059.131.053.134.042.126.034.12.022.1.006.048.006.045v.07l-.006.028v.014l-.006.008-.006.011-.006.006-.006.006z"/><path d="m15.936 22.882v-.008l.006-.008.006-.006.008-.006.008-.008.011-.006.028-.008.034-.008h.039l.1-.006.112.006.126.011.14.022.145.031.145.036.131.039.12.045.1.045.084.042.034.022.028.022.02.02.008.011.006.008.006.008v.011.017.008l-.006.008-.006.006-.008.008-.008.006-.011.006-.028.008-.034.008-.039.006h-.1-.112l-.126-.014-.14-.02-.145-.031-.145-.036-.131-.042-.12-.042-.1-.045-.083-.048-.034-.022-.028-.02-.02-.022-.008-.008-.006-.011-.006-.008v-.011-.017z"/><path d="m9.218 7.042-.025-.053-.014-.056v-.064l.006-.07.015-.074.025-.078.075-.171.118-.185.151-.2.187-.213.215-.227.52-.476.624-.5.716-.512.792-.509.817-.47.783-.4.733-.325.66-.243.3-.09.277-.064.246-.042.227-.02.187.006.081.014.073.02.064.025.053.031.045.042.036.045.025.053.014.056v.064l-.006.07-.017.073-.025.078-.081.171-.115.184-.151.2-.187.213-.215.227-.52.476-.624.5-.716.512-.787.51-.817.47-.783.4-.733.325-.66.243-.3.087-.277.067-.251.038-.221.02-.187-.006-.081-.014-.073-.02-.064-.025-.053-.027-.045-.042z"/><path d="m15.533 11.63-.064.078-.073.07-.081.064-.087.056-.092.05-.1.042-.215.064-.241.036-.257.008-.274-.017-.291-.042-.3-.07-.313-.1-.322-.118-.33-.145-.333-.168-.336-.19-.333-.215-.333-.238-.319-.255-.3-.263-.277-.269-.262-.267-.229-.277-.2-.277-.177-.277-.148-.271-.12-.269-.092-.26-.062-.249-.031-.241v-.227l.014-.106.02-.1.031-.1.039-.1.055-.087.056-.084.064-.078.073-.07.081-.064.087-.056.092-.05.1-.042.215-.064.241-.036.257-.011.274.017.291.045.3.07.313.092.322.12.33.143.338.168.336.19.333.215.333.238.319.255.3.263.277.269.252.274.229.277.2.277.179.277.148.271.12.269.092.26.062.249.031.241v.227l-.014.106-.02.1-.031.1-.039.1-.05.09z"/><path d="m12.122 9.339-.031-.028-.028-.036-.02-.042-.017-.048-.011-.056-.005-.059.006-.137.025-.159.045-.176.062-.193.081-.213.21-.462.277-.506.333-.537.386-.557.414-.537.411-.478.4-.417.378-.339.176-.14.168-.12.154-.092.143-.073.129-.045.059-.014.056-.006h.05l.048.008.042.014.036.022.031.028.028.036.022.042.014.048.011.056.006.059-.006.137-.025.157-.042.176-.064.2-.078.21-.213.464-.274.506-.333.537-.386.557-.414.534-.414.481-.4.414-.378.341-.176.14-.165.118-.157.1-.143.07-.129.048-.059.011-.056.008h-.05l-.049-.016-.042-.014z"/><path d="m15.27 11.795-.056-.017-.053-.028-.048-.042-.048-.053-.045-.064-.039-.073-.073-.182-.059-.221-.048-.26-.034-.291-.02-.327v-.739l.048-.837.1-.918.157-.976.2-.968.232-.892.255-.8.269-.688.134-.3.137-.26.137-.227.134-.185.131-.143.064-.056.064-.045.062-.031.062-.022.067-.005h.059l.056.017.053.028.05.042.045.053.045.064.042.076.07.179.062.221.045.26.034.294.022.325v.739l-.05.839-.1.915-.157.976-.2.968-.232.892-.255.8-.269.691-.134.3-.137.26-.137.227-.134.185-.131.143-.064.056-.064.045-.062.031-.062.022-.059.006z"/></g></svg>