<svg xmlns="http://www.w3.org/2000/svg" xmlns:xlink="http://www.w3.org/1999/xlink" viewBox="0 0 32 32"><defs><radialGradient id="radial-gradient" cx="16" cy="-119.28" r="13.5" gradientTransform="matrix(1, 0, 0, -0.95, 0, -96.73)" gradientUnits="userSpaceOnUse"><stop offset="0" stop-color="#575757"/><stop offset="1" stop-color="#2f2f2f"/></radialGradient></defs><title>file_type_jinja@2x</title><g id="jinja"><path d="M29.34,3.24a38.27,38.27,0,0,1-9.45,3C15.65,6.83,7.56,7.38,6,7A23.3,23.3,0,0,1,3.2,6.15l.33,1.13-1,.91.18.32.42,0,1.3.16.18.58.73.07.36,1.23s1.54.13,2,.13S9,10.65,9,10.65l0,.48.33.06v.55l-.73.65.18,0v.23a15.82,15.82,0,0,1-2.3,0c-.67-.1-.79-.1-.79-.1l-.06.06,0,.29h.15l.06,1.26,3.36-.13L9,18.44,9,19l-2.85-.16,0-1.16h.64l.06-.45.58-.13L7.47,17l-2.15-.52-1.64.48.27.23h.27l0,.39.58,0V18.7l-.64.16.12.26.15.1v.87h.39v4l-.64.1.09,1.16.39.07-.06,2.65,1.73,0L6,25.52l2.61-.06-.18,1.42-.24,1,2.64,0,0-2.59,1.82-.16-.09,1.65-.06,1h1.55L14,25.13l.21,0,.06-1.26H14L14,23.38,13.8,21.9l.06-1.71h.33v-1l-.42,0L13.83,18l.49,0,0-.4.28,0,.29-.22-1.73-.36-1.71.38.17.27.18,0H12l0,.5.48,0v1.08l-2.05,0,.07-1.16.07-1.05V15.45L10.7,14l4.11-.21,4.89-.28,0,.93-.17,2.23-.08,2.08-1.8,0V17.26l.67,0,0-.41.27,0V16.7l.27,0,.15-.2L17,16l-2,.44.14.25.23,0v.11h.28v.46h.6v1.28h-.61v.29l.21,0,0,1.11.45,0-.05,4.39-.59.12v.21h.21v1.12h.34l-.09,1.54L16,28.7l2.15.06-.07-1.16-.16-1,0-.84,1.83,0-.05,1.3v1.37l1,.08,1.4-.06.44-.13-.24-.74-.06-1.16-.11-.82,1.74-.06-.08,1v1.58l.7.06.69,0,.33-.11-.2-1.5-.07-1.13.3,0v-1l.08,0v-.22h-.34l-.07-.74,0-3.23h.26V19.13l.11,0v-.21l-.38,0V17.68l.64-.06,0-.41.28,0,0-.08.37-.19-1.89-.38-1.92.39.12.23.3,0,0,.1h.25v.48h.62l.05,1.19-2.2,0-.26-1.79-.21-.95-.17-1.7.1-1,4.38-.33V11.64l.22-.06v-.23l-.17-.1s-2.39.35-3.15.44l-.37,0,0-.27L21.18,11v-.55h.31l0-.76a24.81,24.81,0,0,0,2.54-.28c.69-.16,1.67-.32,1.67-.32l.46-1.25.92-.27.08-.21,2.07-.57.24-.19-.79-1.72.08-.39.4-.21.29-.88Zm-10,6.56v.63l.47,0,0,.59-.92.6-.06.17h.37V12l-2.81.14,0-.42.13-.21v-.42l.08-.19,0-.15v-.11l.12-.48Zm-5.88.53-.07.42.22.26v.45l.2.32-.05.37.15.22-2.87.11v-.1l.33,0,0-.12-.73-.39,0-.63.35,0,0-.68ZM17.74,20l1.74.11-.06,2.34.23,1.92-1.85-.06Zm-11.66.1,2.79.14L8.62,21.9v1.36l.2.76-2.73.13Zm17.84,0v4l-1.77.13-.06-2.12-.2-2Zm-13.42.09h2.06l0,3.72-1.92,0-.1-1.21V21.6Z" style="stroke:red;stroke-width:0.5px;fill:url(#radial-gradient)"/></g></svg>