<svg version="1.1" viewBox="0 0 32 32" xmlns="http://www.w3.org/2000/svg"><title>file_type_slint</title><g transform="translate(-.85688 -.018699)" fill="#2379f4" stroke-width=".96264"><path d="m10.251 29.937 16.355-10.98s0.73838-0.40867 0.73838-1.0573c0-0.86361-0.93356-1.1431-0.93356-1.1431l-8.9971-3.4506c-0.32208-0.12241-0.76434 0.21879-0.34996 0.65252l2.9785 2.8877s0.8278 0.78939 0.8278 1.3051c0 0.51759-0.50764 0.97638-0.50764 0.97638l-10.839 10.145c-0.38554 0.36144 0.13556 1.0149 0.72781 0.66409z" data-immersive-translate-walked="1948df4d-7920-48ea-a7d9-578193cf0091"/><path d="m23.462 2.1011-16.356 10.979s-0.73742 0.4106-0.73742 1.0593c0 0.86264 0.9326 1.1441 0.9326 1.1441l8.9981 3.4486c0.32112 0.12048 0.76434-0.22072 0.34996-0.65156l-2.9785-2.8973s-0.82972-0.78746-0.82972-1.305c0-0.51855 0.50956-0.97541 0.50956-0.97541l10.833-10.139c0.39227-0.36048-0.12787-1.0159-0.72108-0.66313z" data-immersive-translate-walked="1948df4d-7920-48ea-a7d9-578193cf0091"/></g></svg>
