<?xml version="1.0" encoding="UTF-8"?>
<svg width="289px" height="311px" viewBox="0 0 289 311" version="1.1" xmlns="http://www.w3.org/2000/svg" xmlns:xlink="http://www.w3.org/1999/xlink">
    <!-- Generator: Sketch 41.2 (35397) - http://www.bohemiancoding.com/sketch -->
    <title>Path</title>
    <desc>Created with Sketch.</desc>
    <defs></defs>
    <g id="Page-1" stroke="none" stroke-width="1" fill="none" fill-rule="evenodd">
        <g id="Artboard" transform="translate(-672.000000, -108.000000)" fill="#2188B6">
            <g id="logo-navbar-logo" transform="translate(0.000000, -558.000000)">
                <g id="Group">
                    <path d="M951.7808,914.495411 C935.7808,918.295411 927.6808,921.795411 907.8808,934.695411 C876.9808,954.695411 843.1808,963.995411 843.1808,963.995411 C843.1808,963.995411 840.3808,968.195411 832.2808,970.095411 C818.2808,973.495411 765.5808,976.395411 760.7808,976.495411 C747.8808,976.595411 739.9808,973.195411 737.7808,967.895411 C731.0808,951.895411 747.3808,944.895411 747.3808,944.895411 C747.3808,944.895411 743.7808,942.695411 741.6808,940.695411 C739.7808,938.795411 737.7808,934.995411 737.1808,936.395411 C734.6808,942.495411 733.3808,957.395411 726.6808,964.095411 C717.4808,973.395411 700.0808,970.295411 689.7808,964.895411 C678.4808,958.895411 690.5808,944.795411 690.5808,944.795411 C690.5808,944.795411 684.4808,948.395411 679.5808,940.995411 C675.1808,934.195411 671.0808,922.595411 672.1808,908.295411 C673.3808,891.995411 691.5808,876.195411 691.5808,876.195411 C691.5808,876.195411 688.3808,852.095411 698.8808,827.395411 C708.3808,804.895411 733.9808,786.795411 733.9808,786.795411 C733.9808,786.795411 712.4808,762.995411 720.4808,741.595411 C725.6808,727.595411 727.7808,727.695411 729.4808,727.095411 C735.4808,724.795411 741.2808,722.295411 745.5808,717.595411 C767.0808,694.395411 794.4808,698.795411 794.4808,698.795411 C794.4808,698.795411 807.4808,659.295411 819.4808,666.995411 C823.1808,669.395411 836.4808,698.995411 836.4808,698.995411 C836.4808,698.995411 850.6808,690.695411 852.2808,693.795411 C860.8808,710.495411 861.8808,742.395411 858.0808,761.795411 C851.6808,793.795411 835.6808,810.995411 829.2808,821.795411 C827.7808,824.295411 846.4808,832.195411 858.2808,864.895411 C869.1808,894.795411 859.4808,919.895411 861.1808,922.695411 C861.4808,923.195411 861.5808,923.395411 861.5808,923.395411 C861.5808,923.395411 874.0808,924.395411 899.1808,908.895411 C912.5808,900.595411 928.4808,891.295411 946.5808,891.095411 C964.0808,890.795411 964.9808,911.295411 951.7808,914.495411 L951.7808,914.495411 Z" id="Path"></path>
                </g>
            </g>
        </g>
    </g>
</svg>