<svg viewBox="0 0 32 32" xmlns="http://www.w3.org/2000/svg"><circle cx="16" cy="16" fill="#fff" r="14"/><path d="m18.291 16a2.29 2.29 0 0 1 -2.291 2.29 2.29 2.29 0 0 1 -2.29-2.29 2.29 2.29 0 0 1 4.581 0z" fill="#263238"/><path d="m26.168 10.129a11.741 11.741 0 0 0 -1.8-2.352l-2.647 1.528a8.82 8.82 0 0 0 -2.765-1.6 10.866 10.866 0 0 0 -2.14 3.053 12.959 12.959 0 0 1 8.818 3.074l1.666-.962a11.741 11.741 0 0 0 -1.133-2.739z" fill="#1976d2"/><path d="m26.169 21.869a11.741 11.741 0 0 0 1.137-2.734l-2.648-1.529a8.82 8.82 0 0 0 .005-3.2 10.866 10.866 0 0 0 -3.714-.327 12.959 12.959 0 0 1 1.751 9.179l1.666.962a11.741 11.741 0 0 0 1.803-2.351z" fill="#42a5f5"/><path d="m16 27.74a11.741 11.741 0 0 0 2.937-.382v-3.058a8.819 8.819 0 0 0 2.77-1.593 10.866 10.866 0 0 0 -1.574-3.38 12.959 12.959 0 0 1 -7.071 6.1v1.924a11.741 11.741 0 0 0 2.938.389z" fill="#1976d2"/><path d="m5.834 21.87a11.741 11.741 0 0 0 1.8 2.352l2.648-1.529a8.819 8.819 0 0 0 2.765 1.6 10.866 10.866 0 0 0 2.14-3.053 12.959 12.959 0 0 1 -8.818-3.074l-1.669.965a11.741 11.741 0 0 0 1.134 2.739z" fill="#42a5f5"/><path d="m5.833 10.13a11.741 11.741 0 0 0 -1.133 2.734l2.648 1.529a8.819 8.819 0 0 0 -.005 3.2 10.866 10.866 0 0 0 3.714.327 12.959 12.959 0 0 1 -1.752-9.179l-1.666-.962a11.741 11.741 0 0 0 -1.806 2.351z" fill="#1976d2"/><path d="m16 4.259a11.741 11.741 0 0 0 -2.937.382v3.059a8.819 8.819 0 0 0 -2.77 1.593 10.866 10.866 0 0 0 1.574 3.38 12.959 12.959 0 0 1 7.071-6.1v-1.925a11.741 11.741 0 0 0 -2.938-.389z" fill="#42a5f5"/></svg>