<svg xmlns="http://www.w3.org/2000/svg" xmlns:xlink="http://www.w3.org/1999/xlink" viewBox="0 0 32 32"><defs><linearGradient id="linear-gradient" x1="28.84" y1="29.55" x2="3.83" y2="3.16" gradientUnits="userSpaceOnUse"><stop offset="0" stop-color="#b42025"/><stop offset="1" stop-color="#d42027"/></linearGradient></defs><title>file_type_flash@2x</title><g id="flash"><rect x="2" y="2.33" width="28" height="27.34" style="fill:url(#linear-gradient)"/><path d="M21.56,10.89a4.65,4.65,0,0,1,1.55-.24V7.12A7.44,7.44,0,0,0,17,10a11.42,11.42,0,0,0-1.53,2.57l-1.15,2.8a23.24,23.24,0,0,1-1,2.52,9.84,9.84,0,0,1-1.06,1.88,4,4,0,0,1-1.39,1.15,4.53,4.53,0,0,1-1.95.4v3.56A7.49,7.49,0,0,0,15,22a13.44,13.44,0,0,0,1.25-2l1-2.22h4.08V14.21H18.62a11.3,11.3,0,0,1,.8-1.53,4.6,4.6,0,0,1,.94-1.09,3.61,3.61,0,0,1,1.2-.69Z" style="fill:#fff;fill-rule:evenodd"/></g></svg>