<svg xmlns="http://www.w3.org/2000/svg" viewBox="0 0 32 32"><title>Artboard 1</title><polygon points="2.729 6.667 15.854 2 29.271 6.594 27.083 23.802 15.854 30 4.771 23.875 2.729 6.667"/><path d="M2.729,6.667,15.854,2V30L4.771,23.875Z" style="fill:#93000e"/><path d="M15.854,2,29.271,6.594,27.083,23.8,15.854,30Z" style="fill:#4a0007"/><path d="M15.854,5.135l8.531,18.229H21.469l-1.823-4.156H15.854V16.729h2.771L15.854,11l-2.333,5.731h2.333v2.479H12.383L10.75,23.365H7.615Z" style="fill:#fff"/><path d="M27.408,19.648a2.814,2.814,0,0,1,1.414.815,3.723,3.723,0,0,1,.542.725c.007.029-.976.689-1.572,1.059-.022.014-.108-.079-.2-.222a1.281,1.281,0,0,0-1.062-.639c-.685-.047-1.127.312-1.123.912a.829.829,0,0,0,.1.423c.151.312.431.5,1.31.879,1.618.7,2.311,1.156,2.742,1.809a3.281,3.281,0,0,1,.262,2.756,3.031,3.031,0,0,1-2.5,1.791,6.931,6.931,0,0,1-1.723-.018,4.154,4.154,0,0,1-2.3-1.2,3.994,3.994,0,0,1-.589-.872,1.689,1.689,0,0,1,.208-.133c.1-.057.481-.276.84-.484l.65-.377.136.2a3.035,3.035,0,0,0,.858.822,2.1,2.1,0,0,0,2.2-.111.983.983,0,0,0,.126-1.252c-.176-.251-.535-.463-1.554-.9a5.6,5.6,0,0,1-2.128-1.31,2.981,2.981,0,0,1-.621-1.13,4.527,4.527,0,0,1-.039-1.443A2.756,2.756,0,0,1,25.693,19.6,5.727,5.727,0,0,1,27.408,19.648Z" style="fill:#007acc"/><path d="M22.1,20.592l.007.926H19.165v8.362H17.083V21.518H14.141V20.61a8.9,8.9,0,0,1,.025-.933c.011-.014,1.8-.022,3.973-.018l3.951.011Z" style="fill:#007acc"/><rect width="32" height="32" style="fill:#fff;opacity:0"/></svg>