<svg xmlns="http://www.w3.org/2000/svg" viewBox="0 0 32 32"><title>file_type_typescriptdef</title><path d="M24.078,8.937a4.259,4.259,0,0,1,2.14,1.233,5.634,5.634,0,0,1,.82,1.1c.011.043-1.477,1.043-2.379,1.6-.033.022-.163-.119-.31-.337a1.939,1.939,0,0,0-1.608-.967c-1.037-.071-1.705.472-1.7,1.379a1.255,1.255,0,0,0,.147.641c.228.472.652.755,1.982,1.331,2.449,1.054,3.5,1.749,4.149,2.737a4.965,4.965,0,0,1,.4,4.171,4.586,4.586,0,0,1-3.785,2.71,10.489,10.489,0,0,1-2.607-.027,6.287,6.287,0,0,1-3.481-1.814,6.044,6.044,0,0,1-.891-1.32,2.556,2.556,0,0,1,.315-.2c.152-.087.728-.418,1.271-.733l.983-.57.206.3a4.593,4.593,0,0,0,1.3,1.244,3.177,3.177,0,0,0,3.329-.168,1.487,1.487,0,0,0,.19-1.9c-.266-.38-.809-.7-2.352-1.369A8.467,8.467,0,0,1,18.973,16a4.512,4.512,0,0,1-.94-1.711,6.85,6.85,0,0,1-.06-2.183,4.17,4.17,0,0,1,3.508-3.248A8.666,8.666,0,0,1,24.078,8.937Zm-8.032,1.428.011,1.4H11.6V24.421H8.453V11.767H4V10.393a13.464,13.464,0,0,1,.038-1.412c.016-.022,2.726-.033,6.012-.027l5.979.016Z" style="fill:#00a23c"/></svg>