<svg xmlns="http://www.w3.org/2000/svg" viewBox="0 0 32 32"><title>file_type_ng_component_sass</title><path d="M2.73,6.67,15.85,2V30L4.77,23.88Z" style="fill:#de3641"/><path d="M15.85,2,29.27,6.59,27.08,23.8,15.85,30Z" style="fill:#b13138"/><path d="M15.85,5.14l8.53,18.23H21.47l-1.82-4.16h-3.8V16.73h2.77L15.85,11l-2.33,5.73h2.33v2.48H12.38l-1.63,4.16H7.61Z" style="fill:#fff"/><path d="M27.513,24.559a3.491,3.491,0,0,0-1.527.354,3.217,3.217,0,0,1-.342-.791,2.125,2.125,0,0,1-.031-.662,5.906,5.906,0,0,1,.2-.717c0-.031-.037-.176-.376-.181s-.631.064-.662.154a3.714,3.714,0,0,0-.141.5A11.85,11.85,0,0,1,23.6,25.2a1.918,1.918,0,0,1-.265-1.244,5.906,5.906,0,0,1,.2-.717c0-.031-.037-.176-.376-.181s-.631.064-.662.154-.071.3-.141.5-.893,2.038-1.108,2.512c-.111.241-.206.437-.274.569h0a.14.14,0,0,1-.012.025c-.06.114-.092.176-.092.176v0c-.046.083-.1.16-.12.16a1.03,1.03,0,0,1,.006-.523c.12-.637.415-1.628.412-1.663,0-.019.055-.191-.191-.28a.306.306,0,0,0-.348.06c-.022,0-.037.052-.037.052s.268-1.114-.511-1.114a2.32,2.32,0,0,0-1.49,1.013c-.209.114-.655.357-1.133.619-.181.1-.37.2-.545.3l-.037-.04c-.948-1.01-2.691-1.723-2.615-3.074.028-.492.2-1.785,3.346-3.356,2.592-1.277,4.655-.923,5.012-.138.511,1.121-1.105,3.2-3.783,3.5a2.017,2.017,0,0,1-1.693-.428c-.141-.154-.163-.163-.215-.132-.086.046-.031.185,0,.265a1.581,1.581,0,0,0,.967.76,5.146,5.146,0,0,0,3.14-.311c1.625-.628,2.889-2.373,2.518-3.835-.373-1.484-2.835-1.973-5.166-1.144a11.738,11.738,0,0,0-3.97,2.277c-1.284,1.2-1.487,2.244-1.4,2.682.3,1.552,2.438,2.561,3.294,3.311l-.117.064A6.073,6.073,0,0,0,13.725,28c-.462,1.023.074,1.755.428,1.853A2.633,2.633,0,0,0,16.988,28.7a2.844,2.844,0,0,0,.255-2.62.064.064,0,0,0-.012-.019l.335-.2c.218-.129.434-.249.619-.348a4.057,4.057,0,0,0-.218,1.121,2.339,2.339,0,0,0,.5,1.625.554.554,0,0,0,.406.132c.361,0,.527-.3.708-.659.222-.437.421-.945.421-.945s-.249,1.373.428,1.373c.246,0,.5-.32.607-.482v0l.019-.031.04-.064v-.006c.1-.172.32-.563.649-1.213.425-.837.834-1.884.834-1.884a5.35,5.35,0,0,0,.163.68,6.406,6.406,0,0,0,.351.788c-.1.138-.16.215-.16.215l0,0c-.08.1-.166.219-.262.329a9.811,9.811,0,0,0-.791.991.269.269,0,0,0,.074.361.672.672,0,0,0,.412.068,1.894,1.894,0,0,0,.619-.141,2.077,2.077,0,0,0,.533-.28,1.192,1.192,0,0,0,.511-1.05,2.119,2.119,0,0,0-.194-.742c.031-.043.06-.086.089-.129a14.1,14.1,0,0,0,.923-1.595,5.35,5.35,0,0,0,.163.68,4.557,4.557,0,0,0,.3.677,2.926,2.926,0,0,0-.9,1.157c-.194.56-.043.813.241.871a.858.858,0,0,0,.45-.092,2.047,2.047,0,0,0,.569-.293,1.28,1.28,0,0,0,.628-1.041,1.967,1.967,0,0,0-.141-.616,3.224,3.224,0,0,1,1.635-.188c1.465.172,1.755,1.086,1.7,1.472a.974.974,0,0,1-.465.659c-.1.064-.135.086-.126.132.012.068.06.064.147.052a1.144,1.144,0,0,0,.8-1.017c.046-.9-.816-1.893-2.34-1.884Zm-11.3,3.809c-.486.53-1.164.73-1.456.56-.314-.181-.191-.963.406-1.524a7.755,7.755,0,0,1,1.144-.853l.3-.181.034-.019h0l.074-.046A2.1,2.1,0,0,1,16.208,28.368Zm3.54-2.408c-.169.412-.523,1.469-.739,1.41-.185-.049-.3-.85-.037-1.641a3.728,3.728,0,0,1,.575-1.056c.265-.3.557-.394.628-.274A5.455,5.455,0,0,1,19.748,25.96Zm2.921,1.4c-.071.037-.138.06-.169.043s.031-.06.031-.06.367-.394.511-.572c.083-.1.181-.228.287-.367v.04c0,.471-.456.788-.659.917Zm2.254-.514c-.052-.037-.043-.16.132-.545a2.051,2.051,0,0,1,.5-.646.872.872,0,0,1,.049.284.931.931,0,0,1-.683.908Z" style="fill:#cd6799"/></svg>