<svg xmlns="http://www.w3.org/2000/svg" viewBox="0 0 32 32"><path fill="#8767ac" d="M30 2.78C14.54 2.78 2.78 14.54 2.78 30h13.25c0-7.71 6.26-13.97 13.97-13.97z"/><path fill="#eb2027" d="M2 30h2.37a25.63 25.63 0 0 1 25.6-25.63V2A28 28 0 0 0 2 30"/><path fill="#f19020" d="M4.4 30h2.33A23.3 23.3 0 0 1 30 6.7V4.37A25.63 25.63 0 0 0 4.4 30"/><path fill="#ffcb4c" d="M6.73 30h2.33A20.97 20.97 0 0 1 30 9.03V6.7A23.3 23.3 0 0 0 6.73 30"/><path fill="#5c903f" d="M9.06 30h2.34A18.63 18.63 0 0 1 30 11.37V9.03A20.97 20.97 0 0 0 9.06 30"/><path fill="#226798" d="M11.4 30h2.33c0-9 7.28-16.28 16.27-16.3v-2.33A18.63 18.63 0 0 0 11.4 30"/></svg>