<svg viewBox="0 0 32 32" xmlns="http://www.w3.org/2000/svg"><g fill="#ed6a54"><path d="m9.763 4.857a7.748 7.748 0 0 1 6.264-2.85c0 2.617.02 5.335-.008 7.953-2.219-.005-7.434.018-7.434.018a6.988 6.988 0 0 1 1.178-5.121m2.405.765a1.659 1.659 0 0 0 .038 2.658 1.688 1.688 0 1 0 -.038-2.658z"/><path d="m16.031 28.028a12.514 12.514 0 0 1 -2.185-.169c0 .1-.008.287-.012.383-.021.558-.034 1.758-.034 1.758h-4.968s.019-2.811-.015-4.214c.023-.367-.28-.609-.492-.863a7.959 7.959 0 0 1 -2-5.389c0-2.814 0-5.619 0-8.433h9.7q-.009 8.462.006 16.927z"/><path d="m5.541 12.644v6.6h-1.788v-6.6z"/></g><path d="m16.022 2a7.946 7.946 0 0 1 5.483 1.989 6.3 6.3 0 0 1 1.676 2.625 12.042 12.042 0 0 1 .276 3.362l-7.44-.018s.005-5.342 0-7.959m1.784 3.553a1.663 1.663 0 0 0 -.137 2.682 1.641 1.641 0 0 0 2.075.063 1.662 1.662 0 0 0 .39-2.25 1.634 1.634 0 0 0 -2.323-.492z" fill="#d7433f"/><path d="m16.022 11.1h9.7v8.433a7.959 7.959 0 0 1 -2 5.389c-.212.254-.515.5-.492.863-.03 1.404-.013 4.215-.013 4.215h-4.971s-.01-1.2-.03-1.758c0-.1-.01-.288-.012-.383a12.514 12.514 0 0 1 -2.185.169q.024-8.466.003-16.928z" fill="#d7433f"/><path d="m26.387 12.643h1.86v6.6h-1.879z" fill="#d7433f"/></svg>