<svg xmlns="http://www.w3.org/2000/svg" viewBox="0 0 32 32"><title>file_type_tsconfig_official</title><rect x="2" y="2" width="28" height="28" rx="1.312" style="fill:#3178c6"/><path d="M25.158,25.589l.391-.383c1.809.058,1.837,0,1.917-.188l.5-1.193L28,23.711l-.041-.1c-.021-.052-.087-.212-1.217-1.273V21.78c1.3-1.238,1.276-1.3,1.2-1.486l-.5-1.206c-.075-.18-.108-.252-1.9-.2l-.392-.389a8.482,8.482,0,0,0-.061-1.759l-.051-.113-1.292-.557c-.19-.086-.257-.117-1.477,1.193l-.548-.008c-1.257-1.322-1.316-1.3-1.508-1.223l-1.2.479c-.188.076-.254.107-.182,1.9l-.387.381c-1.809-.059-1.831,0-1.915.188l-.5,1.19L16,20.282l.041.1c.021.051.084.206,1.217,1.274v.557c-1.3,1.238-1.275,1.3-1.2,1.486l.494,1.207c.076.185.108.251,1.9.2l.391.4a8.522,8.522,0,0,0,.059,1.756l.05.114,1.3.56c.19.078.254.106,1.471-1.2l.548.006c1.258,1.324,1.323,1.3,1.508,1.225l1.2-.478C25.166,27.415,25.232,27.386,25.158,25.589ZM20,22.8a2.112,2.112,0,0,1,1.214-2.73l.028-.011a2.164,2.164,0,0,1,2.781,1.225,2.113,2.113,0,0,1-1.2,2.726A2.188,2.188,0,0,1,20,22.8Z" style="fill:#fff"/></svg>