<svg viewBox="0 0 32 32" xmlns="http://www.w3.org/2000/svg"><path d="m28.681 26.075h-25.362a1.317 1.317 0 0 1 -1.319-1.319v-17.512a1.317 1.317 0 0 1 1.319-1.319h25.362a1.317 1.317 0 0 1 1.319 1.319v17.516a1.316 1.316 0 0 1 -1.319 1.315z" fill="#ffe7ac"/><path d="m6.066 12.848a4.987 4.987 0 0 1 1.508-.659v-1.525a3.7 3.7 0 0 1 .743-.33 7.869 7.869 0 0 1 1.327-.347h.642v2.391h2.484v1.222h-2.484v4.848a3.172 3.172 0 0 0 .29 1.609 1.07 1.07 0 0 0 .971.448 7.127 7.127 0 0 0 .76-.048 3.338 3.338 0 0 0 .782-.18l.132.62a2.388 2.388 0 0 1 -.5.356 5.457 5.457 0 0 1 -.752.356 5.837 5.837 0 0 1 -.923.281 4.769 4.769 0 0 1 -1.046.11 2.385 2.385 0 0 1 -1.824-.637 2.947 2.947 0 0 1 -.6-2.062v-5.71h-1.51z"/><path d="m14.607 20.453a1.447 1.447 0 0 1 .431-1.09 1.591 1.591 0 0 1 1.147-.413 1.649 1.649 0 0 1 1.165.413 1.422 1.422 0 0 1 .453 1.09 1.369 1.369 0 0 1 -.453 1.081 1.692 1.692 0 0 1 -1.165.4 1.61 1.61 0 0 1 -1.147-.4 1.427 1.427 0 0 1 -.431-1.081z"/></svg>