<svg xmlns="http://www.w3.org/2000/svg" viewBox="0 0 32 32"><title>file_type_lnk</title><path d="M26.151,8.71a.539.539,0,0,0-.13-.355l-5.4-6.167,0,0a.532.532,0,0,0-.109-.092l-.036-.021a.561.561,0,0,0-.108-.045.176.176,0,0,0-.03-.01A.531.531,0,0,0,20.209,2H6.941a1.1,1.1,0,0,0-1.1,1.1V28.9a1.1,1.1,0,0,0,1.1,1.1H25.059a1.1,1.1,0,0,0,1.1-1.1V8.771A.42.42,0,0,0,26.151,8.71ZM11.86,28.241H7.938V21.962H9.363v5.087h2.5Zm6.036,0h-1.49L15.064,25.82a23.658,23.658,0,0,1-1.09-2.218l-.028.01c.038.829.056,1.714.056,2.739v1.891H12.7v-6.28h1.659l1.3,2.3a18.119,18.119,0,0,1,1.024,2.152h.029a23.109,23.109,0,0,1-.122-2.618V21.962h1.3v6.279Zm4.714,0-1.538-2.71-.54.661v2.049H19.125V21.962h1.407v2.777h.028c.14-.243.289-.466.429-.69l1.425-2.087h1.742l-2.078,2.674,2.19,3.605Zm-15.669-7.6V3.1H19.66V8.716a.549.549,0,0,0,.549.549h4.85V20.644Z" style="fill:#d31900"/><path d="M20.153,15.21,18.3,12.664a1.971,1.971,0,0,0-2.313-.67l-.076-.105a1.968,1.968,0,0,0,.074-2.406l-1.4-1.923a1.972,1.972,0,0,0-2.749-.434l-.2.145a1.969,1.969,0,0,0-.434,2.748l1.4,1.923a1.972,1.972,0,0,0,2.234.7l.1.138a1.971,1.971,0,0,0-.02,2.342l1.852,2.546a1.97,1.97,0,0,0,2.748.433l.2-.145A1.97,1.97,0,0,0,20.153,15.21Zm-6.011-4.639a.656.656,0,0,0-.145.916l.426.584a1.307,1.307,0,0,1-1.287-.515l-1.4-1.923A1.313,1.313,0,0,1,12.026,7.8l.2-.145a1.315,1.315,0,0,1,1.833.29l1.4,1.922a1.313,1.313,0,0,1,.052,1.464l-.449-.617A.655.655,0,0,0,14.142,10.571Zm5.191,6.857-.2.144a1.313,1.313,0,0,1-1.832-.288L15.45,14.738a1.311,1.311,0,0,1-.094-1.384l.426.585a.655.655,0,1,0,1.06-.771l-.449-.618a1.31,1.31,0,0,1,1.377.5L19.622,15.6A1.313,1.313,0,0,1,19.333,17.428Z" style="fill:#d31900"/></svg>