<svg xmlns="http://www.w3.org/2000/svg" xmlns:xlink="http://www.w3.org/1999/xlink" viewBox="0 0 32 32"><defs><clipPath id="a"><path d="M23.62,8.26a.65.65,0,0,0-.74-.52.57.57,0,0,0-.34.18l-3.31,3.31L16.64,6.29A.62.62,0,0,0,15.8,6h0a.55.55,0,0,0-.27.27L14.13,9,10.55,2.34a.64.64,0,0,0-.86-.26.66.66,0,0,0-.32.46L5.89,24.59l9.21,5.16a1.82,1.82,0,0,0,1.86,0l9.34-5.16Z" style="fill:none"/></clipPath><linearGradient id="b" x1="9.89" y1="15.04" x2="8.62" y2="14.37" gradientTransform="translate(0 2)" gradientUnits="userSpaceOnUse"><stop offset="0" stop-color="#a52a22"/><stop offset="0.4" stop-color="#a52a22" stop-opacity="0.5"/><stop offset="0.8" stop-color="#a52a22" stop-opacity="0"/></linearGradient><linearGradient id="c" x1="15.29" y1="13.2" x2="14.71" y2="12.63" gradientTransform="translate(0 2)" gradientUnits="userSpaceOnUse"><stop offset="0" stop-color="#a52a22" stop-opacity="0.8"/><stop offset="0.5" stop-color="#a52a22" stop-opacity="0.21"/><stop offset="1" stop-color="#a52a22" stop-opacity="0"/></linearGradient><linearGradient id="d" x1="5.35" y1="4.95" x2="26.62" y2="26.22" gradientTransform="translate(0 2)" gradientUnits="userSpaceOnUse"><stop offset="0" stop-color="#fff" stop-opacity="0.1"/><stop offset="1" stop-color="#fff" stop-opacity="0"/></linearGradient></defs><title>file_type_firebasehosting</title><g style="clip-path:url(#a)"><path d="M5.89,24.59l3.49-22A.63.63,0,0,1,10.09,2h0a.61.61,0,0,1,.45.33L14.13,9l1.42-2.7A.63.63,0,0,1,16.4,6h0a.59.59,0,0,1,.27.27l9.62,18.31Z" style="fill:#f9a01b"/><path d="M17.7,2.16.84.73V31.28l5.05-6.69Z" style="opacity:0.11999999731779099;isolation:isolate;fill:url(#b)"/><path d="M17.83,16,14.1,9,5.89,24.59Z" style="fill:#f47d20"/><path d="M.84.73H31.38V31.28H.84Z" style="opacity:0.20000000298023224;isolation:isolate;fill:url(#c)"/><path d="M26.29,24.59,23.62,8.26a.65.65,0,0,0-.74-.52.57.57,0,0,0-.34.18L5.89,24.59l9.21,5.16a1.82,1.82,0,0,0,1.86,0Z" style="fill:#ffcb2a"/><path d="M23.62,8.26a.65.65,0,0,0-.74-.52.57.57,0,0,0-.34.18l-3.31,3.31L16.64,6.29A.62.62,0,0,0,15.8,6h0a.55.55,0,0,0-.27.27L14.13,9,10.55,2.34a.64.64,0,0,0-.86-.26.66.66,0,0,0-.32.46L5.89,24.59h0l.09.05L19.26,11.39l3.31-3.31a.64.64,0,0,1,.91,0l0,0a.61.61,0,0,1,.17.34L26.3,24.6h0ZM5.89,24.57,9.38,2.7a.61.61,0,0,1,.7-.53h0a.61.61,0,0,1,.46.33l3.57,6.64,1.42-2.69a.63.63,0,0,1,.85-.28h0a.53.53,0,0,1,.27.28l2.55,4.83Z" style="fill:#fff;fill-opacity:0.20000000298023224"/><path d="M17,29.61a2,2,0,0,1-1.86,0L6,24.45v.14l9.21,5.16a1.84,1.84,0,0,0,1.87,0l9.33-5.16v-.14Z" style="fill:#a52a22;opacity:0.20000000298023224;isolation:isolate"/><path d="M23.62,8.26a.65.65,0,0,0-.74-.52.57.57,0,0,0-.34.18l-3.31,3.31L16.64,6.29A.62.62,0,0,0,15.8,6h0a.55.55,0,0,0-.27.27L14.13,9,10.55,2.34a.64.64,0,0,0-.86-.26.66.66,0,0,0-.32.46L5.89,24.59l9.21,5.16a1.82,1.82,0,0,0,1.86,0l9.34-5.16Z" style="fill:url(#d)"/></g><circle cx="23.75" cy="23.64" r="6.36" style="fill:#fff"/><path d="M23.75,20.46a3.18,3.18,0,1,0,3.18,3.18h0a3.17,3.17,0,0,0-3.16-3.18Zm-.32,5.7a2.53,2.53,0,0,1-2.23-2.52,2.3,2.3,0,0,1,.07-.58l1.52,1.53v.32a.64.64,0,0,0,.64.64Zm2.19-.83a.63.63,0,0,0-.6-.44H24.7V24a.32.32,0,0,0-.32-.32H22.47V23h.63a.32.32,0,0,0,.33-.32v-.63h.64a.66.66,0,0,0,.63-.64v-.13a2.55,2.55,0,0,1,1.4,3.32,2.44,2.44,0,0,1-.47.75Z" style="fill:#010101;fill-opacity:0.5400000214576721;fill-rule:evenodd"/></svg>