<svg width="32" height="32" version="1.1" viewBox="0 0 32 32" xmlns="http://www.w3.org/2000/svg"><title>file_type_eleventy</title><path class="prefix__st0" d="m10.611 24.027c-0.22172 0-0.33261-0.29562-0.33261-0.8893v-14.66c0-0.28328-0.0566-0.41632-0.17239-0.39907-0.6996 0.17735-1.0519 0.26609-1.0617 0.26609-0.19466 0.017248-0.29072-0.17735-0.29072-0.58381v-1.2735c0-0.35228 0.10593-0.55185 0.31778-0.59622l3.5029-0.90159c0.02712-0.00733 0.06659-0.012312 0.11827-0.012312 0.1946 0 0.29066 0.20689 0.29066 0.62321v17.539c0 0.59368-0.1158 0.88924-0.34484 0.88924zm9.0726 0.02712c-0.3547 0-0.66013-0.02471-0.92126-0.07391-0.26113-0.04928-0.53212-0.1601-0.81533-0.33261-0.28334-0.17238-0.51493-0.40888-0.69718-0.7094-0.18231-0.30053-0.33013-0.72182-0.44344-1.2613-0.1133-0.5395-0.17245-1.18-0.17245-1.9239v-6.8038c0-0.17735-0.04927-0.26609-0.14527-0.26609h-0.82284c-0.22166 0-0.33255-0.21185-0.33255-0.63556v-0.71672c0-0.43357 0.11088-0.65039 0.33255-0.65039h0.82278c0.09606 0 0.14533-0.11821 0.14533-0.35712l0.23897-5.1607c0.02707-0.46813 0.14043-0.70214 0.3449-0.70214h1.3277c0.22172 0 0.33261 0.23401 0.33261 0.70214v5.1607c0 0.23891 0.05169 0.35712 0.1601 0.35712h1.6923c0.22166 0 0.33255 0.21682 0.33255 0.65039v0.71685c0 0.4237-0.1109 0.63556-0.33255 0.63556h-1.6972c-0.06161 0-0.1035 0.01475-0.12566 0.04678-0.02222 0.02953-0.03208 0.10352-0.03208 0.21924v6.8457c0 0.51238 0.03208 0.94099 0.0986 1.281 0.06653 0.33993 0.16258 0.59119 0.29066 0.74887 0.12808 0.15762 0.25616 0.26602 0.3843 0.31778 0.12808 0.05418 0.2857 0.0788 0.4705 0.0788h0.94099c0.23897 0 0.35718 0.16507 0.35718 0.49023v0.79566c0 0.36208-0.12808 0.5444-0.38424 0.5444zm5.0919 1.5913c0.20198 0 0.37933-0.16506 0.52963-0.49755 0.15023-0.33261 0.22662-0.80311 0.22662-1.414 0-0.14285-0.08867-0.63314-0.26609-1.4731l-2.6013-10.812c-0.01725-0.12318-0.02712-0.22172-0.02712-0.29314 0-0.31778 0.06658-0.47788 0.19956-0.47788h1.6061c0.12318 0 0.2242 0.04188 0.30549 0.1256 0.08129 0.08377 0.14285 0.25374 0.18474 0.50996l1.7244 9.1268c0.03449 0.10592 0.05666 0.1601 0.06653 0.1601 0.03449 0 0.05417-0.04928 0.05417-0.14533l1.3524-9.1022c0.03449-0.26602 0.09117-0.44338 0.16506-0.53702 0.07384-0.09358 0.16997-0.14043 0.2857-0.14043h1.1135c0.15024 0 0.22662 0.17245 0.22662 0.51734 0 0.0788-0.0098 0.18225-0.02712 0.30543l-2.3624 12.3c-0.1848 1.0174-0.3892 1.7958-0.61092 2.3353-0.22172 0.5395-0.46807 0.90655-0.74391 1.1011-0.27347 0.1946-0.63556 0.29557-1.0889 0.30543h-0.13298c-0.71691 0-1.2021-0.18964-1.4583-0.57146-0.07142-0.07886-0.10592-0.28328-0.10592-0.61098 0-0.65523 0.10592-0.98288 0.31778-0.98288 0.01726 0 0.17735 0.04437 0.47788 0.13304 0.30543 0.09358 0.50003 0.13795 0.58877 0.13795zm-20.84-1.5939c-0.22172 0-0.33261-0.29563-0.33261-0.8893v-14.66c0-0.28328-0.056661-0.41626-0.17239-0.39901-0.6996 0.17735-1.0519 0.26603-1.0617 0.26603-0.19466 0.01725-0.29072-0.17735-0.29072-0.5838v-1.2735c0-0.35228 0.10593-0.55185 0.31778-0.59622l3.5054-0.90401c0.027112-0.00747 0.066524-0.012313 0.11821-0.012313 0.19466 0 0.29072 0.20695 0.29072 0.62321v17.539c0 0.59367-0.1158 0.8893-0.3449 0.8893h-2.0298z" fill="#d2d2d2" stroke-width=".060529"/></svg>
