<svg xmlns="http://www.w3.org/2000/svg" viewBox="0 0 32 32"><title>file_type_ng_smart_component_js</title><polygon points="2.729 6.667 15.854 2 29.271 6.594 27.083 23.802 15.854 30 4.771 23.875 2.729 6.667"/><path d="M2.729,6.667,15.854,2V30L4.771,23.875Z" style="fill:#93000e"/><path d="M15.854,2,29.271,6.594,27.083,23.8,15.854,30Z" style="fill:#4a0007"/><path d="M15.854,5.135l8.531,18.229H21.469l-1.823-4.156H15.854V16.729h2.771L15.854,11l-2.333,5.731h2.333v2.479H12.383L10.75,23.365H7.615Z" style="fill:#fff"/><path d="M15.636,27.926,17.3,26.916c.322.57.614,1.053,1.316,1.053.673,0,1.1-.263,1.1-1.287V19.72h2.048v6.991A2.781,2.781,0,0,1,18.708,29.8a3.178,3.178,0,0,1-3.072-1.872" style="fill:#f7df1e"/><path d="M22.877,27.706l1.667-.965a2.229,2.229,0,0,0,2.019,1.243c.848,0,1.39-.424,1.39-1.009,0-.7-.556-.951-1.492-1.36l-.512-.22c-1.477-.629-2.457-1.419-2.457-3.086a2.737,2.737,0,0,1,3-2.706A3.024,3.024,0,0,1,29.4,21.241l-1.594,1.024a1.394,1.394,0,0,0-1.316-.878.891.891,0,0,0-.98.878c0,.614.38.863,1.258,1.243l.512.219C29.02,24.474,30,25.234,30,26.946c0,1.843-1.448,2.852-3.393,2.852a3.933,3.933,0,0,1-3.73-2.092" style="fill:#f7df1e"/><rect width="32" height="32" style="fill:#fff;opacity:0"/></svg>