<svg viewBox="0 0 32 32" xmlns="http://www.w3.org/2000/svg"><circle cx="16" cy="16" fill="#fff" r="14"/><path d="m10.387 14.6a2.727 2.727 0 0 1 5.453 0 .99.99 0 1 1 -1.98 0 .746.746 0 0 0 -1.492 0 .99.99 0 1 1 -1.98 0m11.3 4.586a.991.991 0 0 1 -.992.992h-9.188a.992.992 0 0 1 0-1.984h9.184a.994.994 0 0 1 .992.992m-4.293-4.026a.992.992 0 0 1 .27-1.375l2.293-1.551a.989.989 0 1 1 1.109 1.637l-2.3 1.551a.965.965 0 0 1 -.551.172.994.994 0 0 1 -.824-.434m6.289 6.094a.707.707 0 0 1 -.207.5l-1.707 1.707a.707.707 0 0 1 -.5.207h-10.463a.707.707 0 0 1 -.5-.207l-1.7-1.707a.707.707 0 0 1 -.207-.5v-10.454a.707.707 0 0 1 .207-.5l1.7-1.706a.707.707 0 0 1 .5-.207h10.466a.707.707 0 0 1 .5.207l1.707 1.706a.707.707 0 0 1 .207.5zm1.452-12.094-2.229-2.23a1.807 1.807 0 0 0 -1.271-.53h-11.191a1.807 1.807 0 0 0 -1.273.527l-2.227 2.233a1.8 1.8 0 0 0 -.527 1.27v11.191a1.8 1.8 0 0 0 .527 1.273l2.227 2.23a1.81 1.81 0 0 0 1.273.523h11.191a1.8 1.8 0 0 0 1.273-.523l2.227-2.23a1.784 1.784 0 0 0 .527-1.273v-11.187a1.784 1.784 0 0 0 -.527-1.273"/></svg>