<svg xmlns="http://www.w3.org/2000/svg" viewBox="0 0 32 32"><defs><style>.cls-1{fill:#16171b;}.cls-2{fill:#fff;}</style></defs><title>file_type_purescript</title><g id="purescript"><rect class="cls-1" x="2" y="2" width="28" height="28"/><polygon class="cls-2" points="21.26 21.48 19.31 19.66 10.74 19.66 12.69 21.48 21.26 21.48"/><polygon class="cls-2" points="12.69 15.09 10.74 16.91 19.31 16.91 21.26 15.09 12.69 15.09"/><polygon class="cls-2" points="21.26 12.35 19.31 10.52 10.74 10.52 12.69 12.35 21.26 12.35"/><path class="cls-2" d="M9.84,14.15,8.55,12.86,3.77,17.64a.91.91,0,0,0,0,1.29l4.78,4.78,1.29-1.29L5.7,18.28Z"/><path class="cls-2" d="M28.23,13.07,23.45,8.29,22.17,9.58l4.13,4.14-4.13,4.14,1.29,1.29,4.78-4.78a.91.91,0,0,0,0-1.29Z"/></g></svg>