<svg viewBox="0 0 32 32" xmlns="http://www.w3.org/2000/svg"><path d="m3.979 20.059 7.273-13.859 7.155-3.835 2.127 1.074-7.112 4.018 7.349 22.088-2.364-1.375-5.5-12.677-7.22 5.479z" fill="#fff"/><ellipse cx="25.24" cy="13.967" fill="#fff" rx="2.686" ry="2.503"/><path d="m27.2 12.85a2.433 2.433 0 0 0 -4.158.3 2.19 2.19 0 0 0 .419 2.449 3.546 3.546 0 0 0 3.739-2.749zm-7.224-9.45-1.547-.849-6.736 3.749.537.29 1.02.537 1.85-1.027 4.878-2.718zm.623-.258a.24.24 0 0 1 .172.161l2.256 6.657a.223.223 0 0 1 -.108.29 4.361 4.361 0 0 0 -2.105 4.985 4.607 4.607 0 0 0 4.92 3.244.284.284 0 0 1 .279.172l2.331 6.833a.275.275 0 0 1 -.107.3l-7.166 4.189a.263.263 0 0 1 -.107.022.285.285 0 0 1 -.193-.032l-2.514-1.58a.253.253 0 0 1 -.108-.107l-4.909-11.29-7.478 4.254a.27.27 0 0 1 -.053.022.258.258 0 0 1 -.237-.011l-1.7-.967a.247.247 0 0 1 -.108-.322l7.266-13.784a.255.255 0 0 1 .118-.107l7.241-4.039a.274.274 0 0 1 .258 0zm-8.982 3.702-.354-.182-7 13.332 1.279.72 6.037-7.9a.3.3 0 0 1 .248-.108.3.3 0 0 1 .214.161l6.575 15.148 1.757 1.085-7.058-20.633-.3-.86-1.407-.773zm10.829 7.95a2.73 2.73 0 0 1 1.343-3.115 2.965 2.965 0 0 1 3.481.43 2.717 2.717 0 0 1 .078 3.843q-.037.039-.078.078a2.932 2.932 0 0 1 -4.824-1.236z" fill="#4630eb"/></svg>