<svg version="1.1" viewBox="0 0 32 32" xmlns="http://www.w3.org/2000/svg"><defs><linearGradient id="a" x1="36.036" x2="171.04" y1="171.21" y2="36.209" gradientTransform="translate(-67.797 -91.176)" gradientUnits="userSpaceOnUse"><stop stop-color="#F42929" offset="0"/><stop stop-color="#FF8A3F" offset=".49479"/><stop stop-color="#E5E938" offset="1"/></linearGradient></defs><title>file_type_shuttle</title><g transform="matrix(.16512 0 0 .16512 10.022 13.873)" clip-rule="evenodd" fill-rule="evenodd"><path d="m2.4393-20.883h33.764l33.765-33.764h33.764v33.764l-33.764 33.764v33.765l-33.765 33.764v-33.764h-33.764v-33.765h-33.764zm-35.768 50.646c-6.0553-0.717-11.329-4.648-13.702-10.376-2.6312-6.353-1.1767-13.665 3.6853-18.527l33.764-33.764c3.1881-3.1881 7.5121-4.9791 12.021-4.9791h26.722l28.786-28.785c3.188-3.1881 7.512-4.9791 12.021-4.9791h33.764c9.389 0 17 7.6112 17 17v33.764c0 4.5087-1.791 8.8327-4.979 12.021l-28.785 28.785v26.723c0 4.509-1.791 8.833-4.979 12.021l-33.765 33.764c-4.862 4.862-12.174 6.316-18.527 3.685-5.7291-2.373-9.6602-7.648-10.376-13.704-0.4471 3.771-2.1483 7.306-4.861 10.019-3.1881 3.188-7.5121 4.979-12.021 4.979h-33.764c-9.3888 0-17-7.611-17-17v-33.764c0-8.711 6.5515-15.891 14.996-16.883zm35.768 16.883h-33.764v33.764h33.764z" fill="#fff"/><path d="m69.968-54.647-33.765 33.764h-33.764l-33.764 33.764h33.764v33.765h-33.764v33.764h33.764v-33.764h33.764v33.764l33.765-33.764v-33.765l33.764-33.764v-33.764z" fill="url(#a)"/></g></svg>
