<svg xmlns="http://www.w3.org/2000/svg" viewBox="0 0 32 32"><title>file_type_hjson</title><path d="M17.632,21.158c.335-1.724,1.652-2.3,3.107-2.633,1.356-.315,2.735-.53,4.105-.785a5.912,5.912,0,0,0,1.658-.534,2.181,2.181,0,0,0,1.266-2.573c-.087-.461-.03-.654.5-.75,1.664-.3,1.7-.29,1.73,1.4a3.519,3.519,0,0,1-2.074,3.359,16.345,16.345,0,0,1-4.608,1.226c-.745.149-1.5.263-2.233.451-1.667.427-2.22,1.257-1.959,2.943.062.4-.022.581-.431.58a.776.776,0,0,0-.15.022c-1.289.265-1.289.265-1.7-.917a1.788,1.788,0,0,0-1.993-1.408,41.542,41.542,0,0,0-5.321.856,18.029,18.029,0,0,1-3.62.4A3.8,3.8,0,0,1,2,19.035c-.013-.206,0-.34.235-.382.5-.087,1-.188,1.493-.283.273-.052.348.1.379.339.281,2.185,2,2.448,3.717,2.163,2.024-.338,4.038-.733,6.061-1.078A3.532,3.532,0,0,1,17.632,21.158Z" style="fill:#01ca24"/><path d="M14.206,10.749C12.675,10.138,11.247,9.573,9.824,9c-.246-.1-.457-.271-.385-.578.082-.347.349-.384.657-.345q1.662.206,3.325.4c.243.029.419.085.459.39C13.958,9.461,14.083,10.052,14.206,10.749Zm2.5,2.541c-.063-.361-.317-.267-.525-.19s-.57-.066-.488.382c.281,1.545.564,3.09.828,4.638.071.414.319.269.557.246.273-.027.53-.046.44-.388C17.242,16.386,16.974,14.838,16.7,13.29Zm.933-5.3a1.155,1.155,0,0,0-1.2,1.193,1.26,1.26,0,0,0,1.177,1.4,1.109,1.109,0,0,0,1.147-1.146A1.281,1.281,0,0,0,17.638,7.99Z" style="fill:#d2d2d2"/></svg>