<svg xmlns="http://www.w3.org/2000/svg" viewBox="0 0 32 32"><title>file_type_csharp</title><path d="M28.5,10.232a2.467,2.467,0,0,0-.306-1.244,2.388,2.388,0,0,0-.9-.878Q22.3,5.242,17.3,2.377a2.46,2.46,0,0,0-2.657.026c-1.325.779-7.957,4.565-9.934,5.706A2.3,2.3,0,0,0,3.5,10.231q0,5.769,0,11.538a2.48,2.48,0,0,0,.292,1.22,2.377,2.377,0,0,0,.918.9c1.977,1.141,8.61,4.927,9.935,5.706a2.46,2.46,0,0,0,2.657.026q4.991-2.871,9.988-5.733a2.384,2.384,0,0,0,.918-.9,2.48,2.48,0,0,0,.292-1.22s0-7.69,0-11.536" style="fill:#9a4993"/><path d="M16.038,15.962,3.792,22.989a2.377,2.377,0,0,0,.918.9c1.977,1.141,8.61,4.927,9.935,5.706a2.46,2.46,0,0,0,2.657.026q4.991-2.871,9.988-5.733a2.384,2.384,0,0,0,.918-.9l-12.17-7.026" style="fill:#6a1577"/><path d="M28.5,10.232a2.467,2.467,0,0,0-.306-1.244L16.038,15.962l12.17,7.026a2.48,2.48,0,0,0,.292-1.22s0-7.69,0-11.536" style="fill:#813084"/><path d="M19.6,18.02a4.12,4.12,0,1,1-.027-4.087l3.614-2.073A8.308,8.308,0,0,0,7.7,16a8.215,8.215,0,0,0,1.1,4.117A8.319,8.319,0,0,0,23.21,20.1L19.6,18.02" style="fill:#fff"/><path d="M26.657,15.527v-.818H25.99v-.665h-.821v.665h-1v-.665h-.821v.665H22.68v.818h.667v1H22.68v.818h.667v.665h.821v-.665h1v.665h.821v-.665h.667v-.818H25.99v-1Zm-1.488,1h-1v-1h1Z" style="fill:#fff"/></svg>