<svg width="32" height="32" version="1.1" viewBox="0 0 8.4667 8.4667" xmlns="http://www.w3.org/2000/svg"><rect x="3.8652" y="3.8729" width="3.0271" height="3.0271" fill="#fff" fill-rule="evenodd" stroke="#fff" stroke-linecap="round" stroke-linejoin="bevel" stroke-width=".28018"/><path class="a" d="m7.6803 0.52917h-6.8939a0.25723 0.25723 0 0 0-0.25723 0.25723v6.8939a0.25723 0.25723 0 0 0 0.25723 0.25723h6.8939a0.25723 0.25723 0 0 0 0.25723-0.25723v-6.8939a0.25723 0.25723 0 0 0-0.25723-0.25723zm-0.66881 5.3456-0.37864 0.65273-0.95417-0.67524 0.1098 1.1592h-0.79135l0.10602-1.1592-0.95038 0.67524-0.38243-0.65273 1.064-0.48392-1.064-0.48392 0.38242-0.65273 0.95038 0.67524-0.10602-1.1592h0.79135l-0.1098 1.1592 0.95417-0.67524 0.37864 0.65273-1.0602 0.48392z" fill="#108938" stroke-width=".051447"/></svg>