<svg xmlns="http://www.w3.org/2000/svg" viewBox="0 0 32 32"><path fill="#ccc" d="M5.18 19.12q-.02.03-.07.04h-.79q-.06 0-.08-.06c-.73-2.14-1.56-4.47-2.23-6.37L2 12.69h.87q.06-.01.08.05l1.76 5.22c.67-1.73 1.16-3.56 1.84-5.23q.01-.03.05-.04h.9C6.6 15 6 17.04 5.17 19.12z"/><path fill="#ea4335" d="m12.17 18.29.24.36.3.44q.02.02.04.07h-.96l-.08-.04-1.66-2.5q-.05-.09-.16-.08h-.8v2.62h-.84v-6.47h2.36q.37 0 .7.16.4.17.68.48.37.38.46.9.04.3.03.59-.04.49-.35.89a3 3 0 0 1-.45.44q-.28.23-.64.3-.05 0-.12.04zm-3.07-4.8v2.27h1.36q.1 0 .19-.02.47-.09.76-.47.3-.4.19-.88a1 1 0 0 0-.36-.6q-.3-.3-.72-.29z"/><path id="a" fill="#fbbc05" d="M17.15 15.55q.23.34.32.74a4 4 0 0 1 .07.88 2.3 2.3 0 0 1-.6 1.44q-.26.27-.58.45-.34.19-.72.22-.27.04-.54.03a2.2 2.2 0 0 1-1.53-.72 2 2 0 0 1-.51-1q-.05-.27-.06-.53a2.4 2.4 0 0 1 .47-1.63 2.2 2.2 0 0 1 1.55-.83q.58-.07 1.12.14.36.13.64.4zM16 18.33q.25-.14.4-.36.24-.34.29-.76.04-.38-.04-.75-.13-.5-.53-.8a1.4 1.4 0 0 0-1.28-.23q-.4.13-.67.47-.3.38-.33.85-.02.3.03.59.1.6.6.96.36.24.8.24l.26-.03q.25-.03.47-.18"/><use href="#a" transform="translate(5.07)"/><path fill="#34a853" d="M27.06 19.16h-.84v-2.68q.01-.36-.14-.7a.7.7 0 0 0-.48-.38q-.39-.1-.76.04-.22.1-.38.3-.17.2-.26.46-.06.18-.07.36l-.02 2.54v.06h-.84v-4.42h.81v.6h.02l.05-.08q.2-.27.5-.44.27-.17.56-.2.22-.03.46-.02.28.01.53.14.29.12.47.36l.21.3q.13-.16.3-.34.36-.37.88-.44.24-.04.5-.03.43.01.8.26.34.23.5.63.14.4.14.86v2.82h-.84v-2.8q0-.32-.15-.62a.7.7 0 0 0-.53-.36 1 1 0 0 0-.57.02 1 1 0 0 0-.36.2q-.3.26-.4.63-.07.22-.08.45v2.48z"/></svg>