<svg viewBox="0 0 32 32" xmlns="http://www.w3.org/2000/svg"><circle cx="16" cy="16" fill="#ffe42e" r="14"/><path d="m21.052 21.433-2.889-2.889a1.293 1.293 0 0 1 0-1.829l4.28-4.28a.375.375 0 0 0 0-.53l-1.577-1.577a.374.374 0 0 0 -.53 0l-.963.963-.65-.649.963-.963a1.293 1.293 0 0 1 1.829 0l1.577 1.577a1.3 1.3 0 0 1 0 1.829l-4.28 4.279a.377.377 0 0 0 0 .53l2.89 2.889z" fill="#8bb5b5"/><path d="m24.738 23.879-.59.59a.833.833 0 0 1 -1.179 0l-3.538-3.538a.833.833 0 0 1 0-1.179l.59-.59a.835.835 0 0 1 1.179 0l3.538 3.538a.835.835 0 0 1 0 1.179z" fill="#d95612"/><path d="m8.549 15.058h1.922v1.922h-1.922z" fill="#24bfbe" transform="matrix(.70710678 -.70710678 .70710678 .70710678 -8.542 11.416)"/><path d="m18.679 9.566 1.769 1.769a.833.833 0 0 1 0 1.179l-7.665 7.666a.835.835 0 0 1 -1.179 0l-1.769-1.769a.834.834 0 0 1 0-1.18l7.665-7.665a.835.835 0 0 1 1.179 0z" fill="#25c4c3"/><path d="m9.908 13.699h1.922v1.922h-1.922z" fill="#1ddedd" transform="matrix(.70710678 -.70710678 .70710678 .70710678 -7.183 11.979)"/><path d="m11.248 12.359h1.922v1.922h-1.922z" fill="#24bfbe" transform="matrix(.70710678 -.70710678 .70710678 .70710678 -5.842 12.535)"/><path d="m12.608 10.999h1.922v1.922h-1.922z" fill="#1ddedd" transform="matrix(.70710678 -.70710678 .70710678 .70710678 -4.483 13.098)"/><path d="m13.967 9.64h1.922v1.922h-1.922z" fill="#1bcfce" transform="matrix(.70710678 -.70710678 .70710678 .70710678 -3.124 13.661)"/><path d="m15.326 8.281h1.922v1.922h-1.922z" fill="#24bfbe" transform="matrix(.70710678 -.70710678 .70710678 .70710678 -1.765 14.224)"/><path d="m7.189 13.699h1.922v1.922h-1.922z" fill="#1bcfce" transform="matrix(.70710678 -.70710678 .70710678 .70710678 -7.979 10.057)"/><path d="m9.889 10.999h1.922v1.922h-1.922z" fill="#1bcfce" transform="matrix(.70710678 -.70710678 .70710678 .70710678 -5.279 11.175)"/><path d="m12.608 8.281h1.922v1.922h-1.922z" fill="#34edeb" transform="matrix(.70710678 -.70710678 .70710678 .70710678 -2.561 12.301)"/><path d="m13.967 6.921h1.922v1.922h-1.922z" fill="#1bcfce" transform="matrix(.70710678 -.70710678 .70710678 .70710678 -1.202 12.864)"/><path d="m8.53 9.64h1.922v1.922h-1.922z" fill="#34edeb" transform="matrix(.70710678 -.70710678 .70710678 .70710678 -4.716 9.816)"/><path d="m12.608 5.562h1.922v1.922h-1.922z" fill="#34edeb" transform="matrix(.70710678 -.70710678 .70710678 .70710678 -.638 11.505)"/><path d="m4.471 10.98h1.922v1.922h-1.922z" fill="#98edeb" transform="matrix(.70710678 -.70710678 .70710678 .70710678 -6.853 7.339)"/><path d="m8.53 6.921h1.922v1.922h-1.922z" fill="#98edeb" transform="matrix(.70710678 -.70710678 .70710678 .70710678 -2.794 9.02)"/><path d="m19.829 10.716.619.619a.833.833 0 0 1 0 1.179l-7.665 7.666a.835.835 0 0 1 -1.179 0l-.619-.62a.833.833 0 0 0 1.179 0l7.665-7.66a.833.833 0 0 0 0-1.184z" fill="#00a3a2"/><path d="m19.3 10.185-.619-.619a.835.835 0 0 0 -1.179 0l-7.667 7.665a.834.834 0 0 0 0 1.18l.619.619a.836.836 0 0 1 0-1.18l7.665-7.665a.835.835 0 0 1 1.181 0z" fill="#39d9d8"/><path d="m21.748 19.71-.314-.314a1.252 1.252 0 0 0 -1.769 0 1.25 1.25 0 0 0 0 1.769l.314.314a.835.835 0 0 1 0-1.179l.59-.59a.835.835 0 0 1 1.179 0z" fill="#eb6e2d"/><path d="m12.194 20.791a1.194 1.194 0 0 1 -.85-.352l-1.769-1.769a1.2 1.2 0 0 1 0-1.7l7.665-7.664a1.2 1.2 0 0 1 1.7 0l1.769 1.769a1.2 1.2 0 0 1 0 1.7l-7.665 7.665a1.194 1.194 0 0 1 -.85.351zm5.9-11.1a.463.463 0 0 0 -.33.136l-7.664 7.664a.466.466 0 0 0 0 .66l1.769 1.769a.467.467 0 0 0 .659 0l7.666-7.665a.468.468 0 0 0 0-.66l-1.774-1.769a.464.464 0 0 0 -.33-.136z" fill="#13acbd"/><path d="m23.559 25.081a1.194 1.194 0 0 1 -.85-.352l-3.538-3.538a1.2 1.2 0 0 1 0-1.7l.59-.589a1.2 1.2 0 0 1 1.7 0l3.539 3.538a1.2 1.2 0 0 1 0 1.7l-.59.59a1.194 1.194 0 0 1 -.851.351zm-2.949-5.795a.462.462 0 0 0 -.329.136l-.59.59a.467.467 0 0 0 0 .66l3.538 3.537a.465.465 0 0 0 .659 0l.59-.589a.467.467 0 0 0 0-.66l-3.538-3.538a.464.464 0 0 0 -.33-.136z" fill="#bf4404"/></svg>