<svg width="32" height="32" viewBox="0 0 32 32" fill="none" xmlns="http://www.w3.org/2000/svg">
<path d="M0 0H32V32H0V0Z" fill="#E5E5E5"/>
<path d="M0 0H32V32H0V0Z" fill="white"/>
<path fill-rule="evenodd" clip-rule="evenodd" d="M18.0755 3.39439C18.8292 4.72097 18.371 6.41088 17.0521 7.16893L8.85144 11.8824C8.63467 12.0069 8.50087 12.239 8.50087 12.4903V19.8894C8.50087 20.1407 8.63467 20.3727 8.85144 20.4973L15.3429 24.2283C15.5564 24.3511 15.8186 24.3511 16.0321 24.2283L22.5236 20.4973C22.7403 20.3727 22.8741 20.1407 22.8741 19.8894V15.2878L17.0391 18.5992C15.7161 19.3501 14.0385 18.88 13.2921 17.5493C12.5456 16.2186 13.013 14.5312 14.3359 13.7804L22.6851 9.04211C25.2283 7.59879 28.375 9.44705 28.375 12.3842V20.4512C28.375 22.3407 27.3684 24.0853 25.7374 25.0227L18.2846 29.3063C16.6753 30.2312 14.6997 30.2312 13.0904 29.3063L5.63756 25.0227C4.00656 24.0852 3 22.3407 3 20.4512V11.9285C3 10.039 4.00656 8.29441 5.63756 7.35697L14.3229 2.36498C15.6418 1.60693 17.3219 2.06782 18.0755 3.39439Z" fill="url(#paint0_linear)"/>
<defs>
<linearGradient id="paint0_linear" x1="22.0987" y1="6.23415" x2="8.9662" y2="26.7606" gradientUnits="userSpaceOnUse">
<stop stop-color="#FFB45B"/>
<stop offset="1" stop-color="#FF8A00"/>
</linearGradient>
</defs>
</svg>
