<svg xmlns="http://www.w3.org/2000/svg" viewBox="0 0 32 32"><path fill="#25b76a" d="M2 2.03h6.79a10 10 0 0 1 3.88.57 6.5 6.5 0 0 1 2.41 1.94 10 10 0 0 1 1.74 3.55 20 20 0 0 1 .62 5.41 17 17 0 0 1-.66 5.07 10 10 0 0 1-1.67 3.41 6.5 6.5 0 0 1-2.44 1.9 9 9 0 0 1-3.68.63H2Zm3.71 3.8V20.7H8.5a7 7 0 0 0 2.6-.34 3 3 0 0 0 1.32-1.02 6 6 0 0 0 .85-2.15 18 18 0 0 0 .34-3.88 18 18 0 0 0-.35-3.93 5 5 0 0 0-1.07-2.27 3.4 3.4 0 0 0-1.77-1.09 15 15 0 0 0-3.02-.2Z"/><path fill="#26abb5" d="M9.54 18.1a14 14 0 0 1 1.03-5.76 8 8 0 0 1 2.7-3.37 7 7 0 0 1 4.05-1.11 7 7 0 0 1 5.61 2.63q2.17 2.63 2.17 7.49 0 4.9-2.3 7.67a6.7 6.7 0 0 1-5.47 2.45 6.8 6.8 0 0 1-5.5-2.42 11.5 11.5 0 0 1-2.29-7.58m3.34-.13a8.3 8.3 0 0 0 1.28 5.06 3.9 3.9 0 0 0 3.18 1.69 3.8 3.8 0 0 0 3.17-1.67 8.6 8.6 0 0 0 1.26-5.15 8.4 8.4 0 0 0-1.23-5.03 3.8 3.8 0 0 0-3.2-1.63 3.9 3.9 0 0 0-3.22 1.64 8.4 8.4 0 0 0-1.24 5.08Z"/><path fill="#26abb5" d="M30 28.2v1.77h-5.49a5 5 0 0 1 .54-1.9 12 12 0 0 1 1.76-2.39 13 13 0 0 0 1.27-1.59 2.4 2.4 0 0 0 .35-1.21 1.5 1.5 0 0 0-.3-.98 1 1 0 0 0-.76-.34q-1.04 0-1.12 1.56l-1.56-.2a3.6 3.6 0 0 1 .85-2.23 2.5 2.5 0 0 1 1.87-.7 2.3 2.3 0 0 1 1.94.83 3 3 0 0 1 .65 1.9 4 4 0 0 1-.17 1.2 5 5 0 0 1-.5 1.15 10 10 0 0 1-1.16 1.48q-.76.85-.96 1.12a3 3 0 0 0-.32.53Z"/><path fill="#99b8c4" d="m27.5 28.03.37-.36c1.68.06 1.7 0 1.78-.18l.46-1.12.03-.1-.03-.1c-.02-.05-.09-.2-1.13-1.2v-.53c1.2-1.16 1.18-1.22 1.11-1.4l-.46-1.13c-.07-.17-.1-.24-1.76-.2l-.37-.36a8 8 0 0 0-.05-1.66l-.05-.1-1.2-.53c-.18-.08-.24-.1-1.37 1.13l-.51-.01c-1.17-1.25-1.22-1.22-1.4-1.15l-1.11.45c-.18.07-.24.1-.17 1.79l-.36.36c-1.68-.06-1.7 0-1.78.17l-.46 1.13-.04.1.04.1c.02.05.08.2 1.13 1.2v.52c-1.21 1.17-1.19 1.23-1.12 1.4l.46 1.14c.07.17.1.24 1.77.2l.36.37a8 8 0 0 0 .05 1.65l.05.11 1.2.53c.18.07.24.1 1.37-1.13h.51c1.17 1.25 1.23 1.23 1.4 1.16l1.12-.45c.17-.08.23-.1.17-1.8m-4.78-2.63a2 2 0 1 1 2.62 1.14 2 2 0 0 1-2.62-1.14"/></svg>