<svg viewBox="0 0 512 512" xmlns="http://www.w3.org/2000/svg"><path class="prefix__st0" d="M166.975 388.612c-3.663 0-5.495-4.884-5.495-14.692V131.731c0-4.68-.935-6.878-2.848-6.593-11.558 2.93-17.378 4.396-17.54 4.396-3.216.285-4.803-2.93-4.803-9.645v-21.04c0-5.82 1.75-9.117 5.25-9.85l57.871-14.895c.448-.122 1.1-.203 1.954-.203 3.215 0 4.802 3.418 4.802 10.296v289.764c0 9.808-1.913 14.691-5.697 14.691l-33.494-.04zm149.887.448c-5.86 0-10.906-.408-15.22-1.221-4.314-.814-8.791-2.645-13.47-5.495-4.681-2.848-8.507-6.755-11.518-11.72-3.012-4.965-5.454-11.925-7.326-20.837-1.872-8.913-2.849-19.494-2.849-31.785V205.597c0-2.93-.814-4.396-2.4-4.396h-13.594c-3.662 0-5.494-3.5-5.494-10.5V178.86c0-7.163 1.832-10.745 5.494-10.745h13.593c1.587 0 2.401-1.953 2.401-5.9l3.948-85.26c.447-7.734 2.32-11.6 5.698-11.6h21.935c3.663 0 5.495 3.866 5.495 11.6v85.26c0 3.947.854 5.9 2.645 5.9h27.959c3.662 0 5.494 3.582 5.494 10.745v11.843c0 7-1.832 10.5-5.494 10.5h-28.04c-1.018 0-1.71.244-2.076.773-.367.488-.53 1.71-.53 3.622v113.097c0 8.465.53 15.546 1.629 21.163 1.099 5.616 2.686 9.767 4.802 12.372 2.116 2.604 4.232 4.395 6.349 5.25 2.116.895 4.72 1.302 7.773 1.302h15.546c3.948 0 5.901 2.727 5.901 8.099v13.145c0 5.982-2.116 8.994-6.348 8.994l-22.303.04zm84.122 26.29c3.337 0 6.267-2.727 8.75-8.22 2.482-5.495 3.744-13.268 3.744-23.361 0-2.36-1.465-10.46-4.396-24.337l-42.976-178.62c-.285-2.035-.448-3.663-.448-4.843 0-5.25 1.1-7.895 3.297-7.895h26.534c2.035 0 3.704.692 5.047 2.075 1.343 1.384 2.36 4.192 3.052 8.425l28.488 150.783c.57 1.75.936 2.645 1.099 2.645.57 0 .895-.814.895-2.401l22.343-150.376c.57-4.395 1.506-7.325 2.727-8.872 1.22-1.546 2.808-2.32 4.72-2.32h18.396c2.482 0 3.744 2.849 3.744 8.547 0 1.302-.163 3.011-.448 5.046l-39.028 203.201c-3.053 16.808-6.43 29.669-10.093 38.581-3.663 8.913-7.733 14.977-12.29 18.192-4.518 3.215-10.5 4.883-17.989 5.046h-2.197c-11.844 0-19.86-3.133-24.093-9.441-1.18-1.303-1.75-4.68-1.75-10.094 0-10.825 1.75-16.238 5.25-16.238.285 0 2.93.733 7.895 2.198 5.046 1.546 8.261 2.279 9.727 2.279zM56.686 389.018c-3.663 0-5.495-4.884-5.495-14.692V132.137c0-4.68-.936-6.877-2.848-6.592-11.558 2.93-17.378 4.395-17.54 4.395-3.216.285-4.803-2.93-4.803-9.645v-21.04c0-5.82 1.75-9.117 5.25-9.85L89.162 74.47c.448-.123 1.099-.204 1.953-.204 3.216 0 4.803 3.419 4.803 10.296v289.764c0 9.808-1.913 14.692-5.698 14.692H56.686z"/></svg>
