<svg xmlns="http://www.w3.org/2000/svg" xmlns:xlink="http://www.w3.org/1999/xlink" viewBox="0 0 32 32"><defs><style>.cls-1,.cls-4{fill:none;}.cls-1{clip-rule:evenodd;}.cls-2{fill:#231f20;}.cls-10,.cls-11,.cls-12,.cls-2,.cls-5,.cls-6,.cls-7,.cls-8,.cls-9{fill-rule:evenodd;}.cls-3{clip-path:url(#clip-path);}.cls-4{stroke:#231f20;stroke-miterlimit:10;stroke-width:0.22px;}.cls-5{fill:#29695d;}.cls-6{fill:#317367;}.cls-7{fill:#60c2ac;}.cls-8{fill:#43b54a;}.cls-9{fill:#3c8376;}.cls-10{fill:#fff;}.cls-11{fill:#929497;}.cls-12{fill:#d0d2d3;}</style><clipPath id="clip-path"><polygon class="cls-1" points="2 2 30 2 30 30 2 30 2 2 2 2"/></clipPath></defs><title>file_type_vim</title><g id="vim"><polygon class="cls-2" points="29.99 15.86 15.86 2.01 2.01 16.14 15.86 29.99 29.99 15.86 29.99 15.86"/><g class="cls-3"><polygon class="cls-4" points="29.99 15.86 15.86 2.01 2.01 16.14 15.86 29.99 29.99 15.86 29.99 15.86"/></g><polygon class="cls-5" points="28.57 15.86 29.42 15.86 15.86 29.42 15.86 28.57 28.57 15.86 28.57 15.86"/><polygon class="cls-4" points="28.57 15.86 29.42 15.86 15.86 29.42 15.86 28.57 28.57 15.86 28.57 15.86"/><polygon class="cls-6" points="2.58 16.14 3.42 16.14 15.86 28.57 15.86 29.42 2.58 16.14 2.58 16.14"/><polygon class="cls-4" points="2.58 16.14 3.42 16.14 15.86 28.57 15.86 29.42 2.58 16.14 2.58 16.14"/><polygon class="cls-7" points="15.86 3.42 15.86 2.58 2.58 16.14 3.42 16.14 15.86 3.42 15.86 3.42"/><polygon class="cls-4" points="15.86 3.42 15.86 2.58 2.58 16.14 3.42 16.14 15.86 3.42 15.86 3.42"/><polygon class="cls-8" points="15.86 2.58 15.86 3.42 28.57 15.86 29.42 15.86 15.86 2.58 15.86 2.58"/><polygon class="cls-4" points="15.86 2.58 15.86 3.42 28.57 15.86 29.42 15.86 15.86 2.58 15.86 2.58"/><polygon class="cls-9" points="15.86 28.57 28.57 15.86 15.86 3.42 3.42 16.14 15.86 28.57 15.86 28.57"/><polygon class="cls-4" points="15.86 28.57 28.57 15.86 15.86 3.42 3.42 16.14 15.86 28.57 15.86 28.57"/><polygon class="cls-2" points="18.5 6.25 19.34 7.1 13.5 13.03 13.5 7.1 14.07 7.1 14.92 6.25 14.92 3.99 14.07 3.14 4.65 3.14 3.81 3.99 3.81 6.25 4.65 7.1 5.31 7.1 5.31 26.31 6.35 27.16 9.27 27.16 29.52 6.25 29.52 3.99 28.67 3.14 19.44 3.14 18.5 3.99 18.5 6.25 18.5 6.25"/><polygon class="cls-4" points="18.5 6.25 19.34 7.1 13.5 13.03 13.5 7.1 14.07 7.1 14.92 6.25 14.92 3.99 14.07 3.14 4.65 3.14 3.81 3.99 3.81 6.25 4.65 7.1 5.31 7.1 5.31 26.31 6.35 27.16 9.27 27.16 29.52 6.25 29.52 3.99 28.67 3.14 19.44 3.14 18.5 3.99 18.5 6.25 18.5 6.25"/><polygon class="cls-10" points="4.93 6.53 4.37 5.97 4.37 4.27 4.93 3.71 13.79 3.7 14.35 4.27 13.79 4.54 13.5 4.27 4.93 5.68 4.93 6.53 4.93 6.53"/><polygon class="cls-4" points="4.93 6.53 4.37 5.97 4.37 4.27 4.93 3.71 13.79 3.7 14.35 4.27 13.79 4.54 13.5 4.27 4.93 5.68 4.93 6.53 4.93 6.53"/><polygon class="cls-10" points="6.63 26.59 5.97 26.03 5.97 6.53 6.63 5.97 6.63 26.59 6.63 26.59"/><polygon class="cls-4" points="6.63 26.59 5.97 26.03 5.97 6.53 6.63 5.97 6.63 26.59 6.63 26.59"/><polygon class="cls-10" points="20.76 6.53 21.33 5.97 21.33 7.1 11.9 16.7 12.94 14.44 20.76 6.53 20.76 6.53"/><polygon class="cls-4" points="20.76 6.53 21.33 5.97 21.33 7.1 11.9 16.7 12.94 14.44 20.76 6.53 20.76 6.53"/><polygon class="cls-11" points="6.82 5.69 6.63 5.97 5.97 6.53 4.93 6.53 4.93 5.4 6.82 5.69 6.82 5.69"/><polygon class="cls-4" points="6.82 5.69 6.63 5.97 5.97 6.53 4.93 6.53 4.93 5.4 6.82 5.69 6.82 5.69"/><polygon class="cls-11" points="12.94 6.53 12.94 14.44 11.9 16.7 11.9 5.96 13.5 5.96 13.79 5.68 13.5 4.27 14.35 4.27 14.35 5.97 13.79 6.53 12.94 6.53 12.94 6.53"/><polygon class="cls-4" points="12.94 6.53 12.94 14.44 11.9 16.7 11.9 5.96 13.5 5.96 13.79 5.68 13.5 4.27 14.35 4.27 14.35 5.97 13.79 6.53 12.94 6.53 12.94 6.53"/><polygon class="cls-10" points="19.63 6.53 19.07 5.97 19.07 4.27 19.72 3.71 28.3 3.71 28.96 4.27 28.01 5.12 19.63 5.68 19.63 6.53 19.63 6.53"/><polygon class="cls-4" points="19.63 6.53 19.07 5.97 19.07 4.27 19.72 3.71 28.3 3.71 28.96 4.27 28.01 5.12 19.63 5.68 19.63 6.53 19.63 6.53"/><polygon class="cls-11" points="28.96 5.97 9.07 26.59 6.63 26.59 6.63 25.75 8.42 25.75 28.3 5.4 28.01 4.27 28.96 4.27 28.96 5.97 28.96 5.97"/><polygon class="cls-4" points="28.96 5.97 9.07 26.59 6.63 26.59 6.63 25.75 8.42 25.75 28.3 5.4 28.01 4.27 28.96 4.27 28.96 5.97 28.96 5.97"/><polygon class="cls-11" points="21.51 5.69 21.32 5.97 20.76 6.53 19.63 6.53 19.63 5.4 21.51 5.69 21.51 5.69"/><polygon class="cls-4" points="21.51 5.69 21.32 5.97 20.76 6.53 19.63 6.53 19.63 5.4 21.51 5.69 21.51 5.69"/><polygon class="cls-12" points="11.9 16.7 11.9 5.96 13.5 5.96 13.79 5.68 13.79 4.54 13.5 4.26 5.21 4.26 4.93 4.54 4.93 5.68 5.21 5.96 6.63 5.96 6.63 25.75 6.99 26.03 8.61 26.03 28.39 5.4 28.39 4.59 28.1 4.26 19.91 4.26 19.63 4.54 19.63 5.69 19.91 5.97 21.33 5.97 21.33 7.1 11.9 16.7 11.9 16.7"/><polygon class="cls-4" points="11.9 16.7 11.9 5.96 13.5 5.96 13.79 5.68 13.79 4.54 13.5 4.26 5.21 4.26 4.93 4.54 4.93 5.68 5.21 5.96 6.63 5.96 6.63 25.75 6.99 26.03 8.61 26.03 28.39 5.4 28.39 4.59 28.1 4.26 19.91 4.26 19.63 4.54 19.63 5.69 19.91 5.97 21.33 5.97 21.33 7.1 11.9 16.7 11.9 16.7"/><polygon class="cls-2" points="17.04 16.71 17.7 16.14 19.39 16.14 19.87 16.71 19.3 18.41 18.65 18.97 16.95 18.97 16.47 18.41 17.04 16.71 17.04 16.71"/><polygon class="cls-4" points="17.04 16.71 17.7 16.14 19.39 16.14 19.87 16.71 19.3 18.41 18.65 18.97 16.95 18.97 16.47 18.41 17.04 16.71 17.04 16.71"/><polygon class="cls-2" points="17.61 26.03 19.31 20.95 18.74 20.95 19.31 19.25 21.84 19.25 22.41 19.82 22.79 19.82 23.35 19.25 25.24 19.25 25.8 19.82 26.18 19.82 26.75 19.25 28.81 19.25 29.57 20.39 28.33 24.41 28.89 24.41 28.35 26.03 24.95 26.03 26.28 22.08 25.43 22.08 24.65 24.39 25.21 24.39 24.68 26.03 21.28 26.03 22.6 22.08 21.76 22.08 20.97 24.41 21.53 24.41 21 26.03 17.61 26.03 17.61 26.03"/><polygon class="cls-4" points="17.61 26.03 19.31 20.95 18.74 20.95 19.31 19.25 21.84 19.25 22.41 19.82 22.79 19.82 23.35 19.25 25.24 19.25 25.8 19.82 26.18 19.82 26.75 19.25 28.81 19.25 29.57 20.39 28.33 24.41 28.89 24.41 28.35 26.03 24.95 26.03 26.28 22.08 25.43 22.08 24.65 24.39 25.21 24.39 24.68 26.03 21.28 26.03 22.6 22.08 21.76 22.08 20.97 24.41 21.53 24.41 21 26.03 17.61 26.03 17.61 26.03"/><polygon class="cls-12" points="28.55 19.82 28.99 20.44 27.6 24.91 28.16 24.91 27.97 25.47 25.71 25.47 27.03 21.51 25.05 21.51 23.92 24.91 24.48 24.91 24.3 25.47 22.04 25.47 23.36 21.51 21.38 21.51 20.25 24.91 20.82 24.91 20.62 25.47 18.36 25.47 20.06 20.39 19.5 20.39 19.68 19.82 21.76 19.82 22.32 20.39 22.88 20.39 23.45 19.82 25.14 19.82 25.71 20.39 26.28 20.39 26.84 19.82 28.55 19.82 28.55 19.82"/><polygon class="cls-4" points="28.55 19.82 28.99 20.44 27.6 24.91 28.16 24.91 27.97 25.47 25.71 25.47 27.03 21.51 25.05 21.51 23.92 24.91 24.48 24.91 24.3 25.47 22.04 25.47 23.36 21.51 21.38 21.51 20.25 24.91 20.82 24.91 20.62 25.47 18.36 25.47 20.06 20.39 19.5 20.39 19.68 19.82 21.76 19.82 22.32 20.39 22.88 20.39 23.45 19.82 25.14 19.82 25.71 20.39 26.28 20.39 26.84 19.82 28.55 19.82 28.55 19.82"/><path class="cls-2" d="M19,19.25,17.29,24.4h.59L17.32,26H13.93L15.63,21h-.57l4-1.7Zm-4,1.7.57-1.7H19l-4,1.7Z"/><path class="cls-4" d="M19,19.25,17.29,24.4h.59L17.32,26H13.93L15.63,21h-.57l4-1.7Zm-4,1.7.57-1.7H19l-4,1.7Z"/><polygon class="cls-12" points="16.95 25.47 17.13 24.91 16.57 24.91 18.27 19.82 15.91 19.82 15.72 20.39 16.38 20.39 14.69 25.47 16.95 25.47 16.95 25.47"/><polygon class="cls-4" points="16.95 25.47 17.13 24.91 16.57 24.91 18.27 19.82 15.91 19.82 15.72 20.39 16.38 20.39 14.69 25.47 16.95 25.47 16.95 25.47"/><polygon class="cls-12" points="18.83 18.13 19.21 16.99 19.02 16.71 17.89 16.71 17.51 16.99 17.13 18.13 17.33 18.41 18.46 18.41 18.83 18.13 18.83 18.13"/><polygon class="cls-4" points="18.83 18.13 19.21 16.99 19.02 16.71 17.89 16.71 17.51 16.99 17.13 18.13 17.33 18.41 18.46 18.41 18.83 18.13 18.83 18.13"/></g></svg>