<svg viewBox="0 0 32 32" xmlns="http://www.w3.org/2000/svg"><path d="m7.575 16-2.8 4.849 2.8 4.849 2.8-4.849z" fill="#303f9f"/><path d="m24.374 6.3-2.8 4.849 2.8 4.851 2.8-4.849z" fill="#3f51b5"/><path d="m27.174 11.151-8.399 14.549h5.6l5.6-9.7z" fill="#7986cb"/><path d="m18.775 6.3-11.201 19.4h5.6l11.2-19.4z" fill="#ff4081"/><path d="m7.575 6.3-5.6 9.7 2.8 4.849 8.401-14.549z" fill="#536dfe"/><path d="m18.775 6.3 2.8 4.849 2.8-4.849z" fill="#fff" fill-opacity=".2"/><path d="m15.975 11.151 2.8-4.849 2.8 4.849z" fill="#fff" fill-opacity=".1"/><path d="m15.975 11.151 2.8 4.849 2.8-4.849z" fill="none"/><path d="m13.175 16 2.8-4.849 2.8 4.849z" fill-opacity=".1"/><path d="m13.175 16 2.8 4.849 2.8-4.849z" fill-opacity=".2"/><path d="m10.376 20.849 2.8-4.849 2.8 4.849z" fill-opacity=".3"/><path d="m10.376 20.849 2.8 4.849 2.8-4.849z" fill-opacity=".4"/><path d="m7.575 25.7 2.8-4.849 2.8 4.849z" fill-opacity=".5"/><path d="m7.575 6.3 2.8 4.849 2.8-4.849z" fill="#fff" fill-opacity=".2"/><path d="m4.776 11.151 2.8-4.851 2.8 4.849z" fill="#fff" fill-opacity=".1"/><path d="m4.776 11.151 2.8 4.849 2.8-4.849z" fill="none"/><path d="m1.976 16 2.8-4.849 2.8 4.849z" fill-opacity=".1"/><path d="m1.976 16 2.8 4.849 2.8-4.849z" fill-opacity=".2"/><path d="m10.376 20.849-2.801-4.849-2.8 4.849z" fill="none"/><path d="m10.376 20.849-2.801 4.851-2.8-4.849zm16.8-9.7-2.802-4.849-2.8 4.849z" fill-opacity=".2"/><path d="m27.174 11.151-2.8 4.849-2.8-4.849z" fill="none"/><path d="m24.374 16 2.8-4.849 2.801 4.849z" fill="#fff" fill-opacity=".2"/><path d="m24.374 16 2.8 4.849 2.801-4.849z" fill="#fff" fill-opacity=".1"/><path d="m21.574 20.849 2.8-4.849 2.8 4.849z" fill="none"/><path d="m21.574 20.849 2.8 4.849 2.8-4.849z" fill-opacity=".1"/><path d="m18.775 25.7 2.8-4.849 2.8 4.849z" fill-opacity=".2"/></svg>