<svg viewBox="0 0 32 32" xmlns="http://www.w3.org/2000/svg"><path d="m2.73 6.67 13.12-4.67v28l-11.08-6.12z" fill="#de3641"/><path d="m15.85 2 13.42 4.59-2.19 17.21-11.23 6.2z" fill="#b13138"/><path d="m15.85 5.14 8.53 18.23h-2.91l-1.82-4.16h-3.8v-2.48h2.77l-2.77-5.73-2.33 5.73h2.33v2.48h-3.47l-1.63 4.16h-3.14z" fill="#fff"/><path d="m18.69 28.21-1.11-12.47h12.22l-1.11 12.47-5.01 1.39z" fill="#e44f26"/><path d="m23.69 28.54 4.05-1.12.95-10.66h-5z" fill="#f1662a"/><path d="m23.69 21.39h-2.02l-.14-1.57h2.16v-1.53h-3.84l.04.41.38 4.22h3.42z" fill="#ebebeb"/><path d="m23.69 25.36h-.01l-1.7-.46-.11-1.22h-.83-.7l.21 2.4 3.13.87h.01z" fill="#ebebeb"/><g fill="#fff"><path d="m23.69 21.39v1.53h1.88l-.18 1.98-1.7.46v1.59l3.13-.87.03-.26.35-4.02.04-.41h-.41z"/><path d="m23.69 18.29v.95.58h3.69l.03-.35.07-.77.04-.41z"/></g></svg>