<svg xmlns="http://www.w3.org/2000/svg" viewBox="0 0 32 32"><title>file_type_yarn@2x</title><g id="yarn"><path d="M28.21,24.41a10.49,10.49,0,0,0-4,1.82,23.74,23.74,0,0,1-5.83,2.64,1.63,1.63,0,0,1-1,.55A62.23,62.23,0,0,1,11,30c-1.16,0-1.88-.3-2.07-.78a1.57,1.57,0,0,1,.87-2.07,3.76,3.76,0,0,1-.51-.38c-.17-.17-.35-.51-.41-.39-.23.55-.34,1.89-.95,2.5-.83.84-2.4.56-3.33.07s.07-1.81.07-1.81a.73.73,0,0,1-1-.34A4.85,4.85,0,0,1,3,23.85,5.37,5.37,0,0,1,4.74,21a9.33,9.33,0,0,1,.66-4.4,10.44,10.44,0,0,1,3.17-3.66S6.63,10.75,7.35,8.82c.47-1.26.66-1.25.81-1.31a3.63,3.63,0,0,0,1.45-.86A5.26,5.26,0,0,1,14,5S15.2,1.4,16.28,2.09A18.35,18.35,0,0,1,17.81,5s1.28-.75,1.42-.47a11.33,11.33,0,0,1,.52,6.13A14,14,0,0,1,17.16,16c-.14.23,1.55.94,2.62,3.89,1,2.7.11,5,.26,5.21l0,.06s1.13.09,3.39-1.31a8.5,8.5,0,0,1,4.27-1.61,1.08,1.08,0,0,1,.47,2.11Z" style="fill:#2188b6"/></g></svg>