<svg xmlns="http://www.w3.org/2000/svg" width="100px" height="100px"
  viewBox="0 0 600.000000 600.000000">
  <g transform="translate(0.000000,200.000000) scale(0.100000,-0.100000)"
    fill="#ff0066" stroke="none">
    <path
      d="M415 1367 c-32 -10 -42 -20 -54 -50 -12 -33 -12 -45 4 -108 14 -60
15 -75 4 -102 -19 -45 -17 -127 5 -159 31 -48 77 -61 185 -55 90 5 102 9 196
56 l100 51 -1 100 -1 100 -39 31 c-21 17 -59 43 -84 57 -25 14 -52 31 -60 38
-23 20 -140 54 -180 53 -19 0 -53 -6 -75 -12z m155 -37 c30 -7 57 -15 60 -19
3 -3 31 -19 62 -35 33 -16 55 -33 51 -39 -3 -5 -1 -7 4 -4 6 4 24 -6 41 -21
29 -26 30 -30 30 -109 -1 -78 -2 -83 -27 -100 -82 -55 -156 -78 -264 -82 -77
-3 -77 -3 -113 33 -35 35 -36 37 -27 88 8 56 9 129 2 213 -8 90 34 107 181 75z" />
    <path
      d="M1401 1360 c-39 -10 -79 -24 -89 -33 -9 -9 -28 -20 -42 -26 -29 -13
-64 -35 -108 -70 -26 -20 -29 -27 -21 -44 11 -20 7 -144 -6 -183 -6 -19 3 -26
77 -62 167 -81 306 -86 369 -15 30 35 31 38 24 107 -9 98 -9 131 0 204 8 67
-3 104 -34 118 -43 18 -102 20 -170 4z m165 -45 c14 -13 15 -26 9 -73 -9 -65
-10 -114 -2 -191 2 -29 2 -65 -2 -79 -9 -34 -61 -62 -119 -63 -51 -1 -212 38
-212 51 0 5 -15 13 -33 19 l-33 11 1 103 0 102 35 32 c19 18 48 38 65 45 16 6
32 14 35 17 40 45 219 63 256 26z" />
    <path
      d="M933 1223 c-34 -7 -45 -28 -50 -97 -7 -83 1 -112 36 -130 27 -14 139
-15 161 -1 16 10 32 104 24 147 -4 24 -8 47 -8 52 -2 23 -101 41 -163 29z
m127 -49 c19 -16 19 -129 1 -147 -6 -6 -37 -11 -68 -11 -72 2 -85 17 -80 96 2
32 6 60 10 64 10 11 70 20 97 16 14 -3 32 -11 40 -18z" />
    <path
      d="M851 966 c-15 -18 -102 -62 -180 -92 -49 -18 -83 -24 -148 -24 -73 0
-89 -3 -113 -22 -15 -13 -43 -32 -61 -43 -86 -52 -103 -63 -106 -72 -4 -12
125 -15 188 -3 36 7 55 7 59 0 4 -6 1 -37 -6 -70 -7 -33 -15 -84 -19 -112 l-7
-52 73 64 c110 96 299 287 351 356 l47 61 -25 12 c-32 14 -39 14 -53 -3z m9
-46 c-8 -6 -11 -10 -7 -10 17 0 -260 -280 -334 -337 -16 -13 -17 -10 -3 85 5
34 2 48 -12 64 -17 19 -26 20 -104 13 l-84 -6 26 20 c14 12 33 21 42 21 9 0
19 6 22 14 8 20 30 27 104 32 105 7 133 11 165 25 17 7 34 11 38 10 5 -1 20 7
35 17 15 10 41 24 57 32 17 8 36 21 44 28 7 7 16 10 19 7 4 -3 0 -10 -8 -15z" />
    <path
      d="M1056 951 c-3 -5 17 -33 44 -62 27 -30 50 -57 50 -61 0 -13 215 -224
278 -272 34 -27 62 -53 62 -57 0 -5 7 -9 15 -9 18 0 17 -3 5 40 -11 36 -23
115 -24 160 -1 24 1 25 54 20 98 -8 195 -6 192 5 -2 6 -15 17 -30 25 -14 8
-55 34 -91 58 l-64 43 -111 3 c-121 3 -181 22 -282 86 -47 30 -88 38 -98 21z
m96 -54 c7 -7 29 -19 48 -27 19 -8 37 -17 40 -20 11 -14 152 -40 213 -40 66 0
88 -6 141 -38 45 -27 45 -43 -1 -37 -21 3 -48 8 -61 11 -23 5 -62 -11 -74 -30
-4 -6 -5 -20 -3 -31 2 -11 7 -42 10 -68 6 -47 5 -48 -16 -36 -52 27 -220 194
-311 307 -19 24 -8 30 14 9z" />
  </g>
</svg>