<svg xmlns="http://www.w3.org/2000/svg" viewBox="0 0 32 32"><title>file_type_gradle</title><path d="M29.16,7.083A4.62,4.62,0,0,0,25.143,4.7c-1.535-.027-2.8.836-2.563,1.412A9.092,9.092,0,0,0,23.1,7.138c.26.384.713.082.877,0a2.552,2.552,0,0,1,1.576-.274,2.352,2.352,0,0,1,1.782,1.384c1.165,2.289-2.426,6.991-6.922,3.729A11.606,11.606,0,0,0,9.558,10.456c-1.974.658-2.892,1.316-2.111,2.838a31.6,31.6,0,0,0,1.741,3.153c1.631,2.728,5.223-1.261,5.223-1.261C11.737,19.2,9.448,18.228,8.571,16.83A21.64,21.64,0,0,1,7.159,14.1C.4,16.542,2.224,27.22,2.224,27.22l3.358.014c.85-3.962,3.92-3.8,4.441.014l2.563.014c2.262-7.731,8.005.027,8.005.027l3.345.014c-.932-5.277,1.878-6.936,3.646-10.02C29.379,14.184,31.065,10.4,29.16,7.083Zm-10.4,10.336A1.691,1.691,0,0,1,17.7,15.2s.411.137,1.1.356a.648.648,0,0,0-.11.48.771.771,0,0,0,.85.672.787.787,0,0,0,.7-.672q.411.144.864.288A1.91,1.91,0,0,1,18.755,17.419Z" style="fill:#136a7d"/></svg>