<svg width="32" height="32" version="1.1" xmlns="http://www.w3.org/2000/svg">
  <g transform="scale(1.1667)" fill-rule="evenodd">

    <path d="M0 0h24v24H0z" />

    <path
      d="M24 0v24H0V0zm-13.067 15.89h-4.093v5.52h4.198v-.93H7.955v-1.503h2.77v-.93h-2.77v-1.224h2.978v-.934zm2.146 0h-1.084v5.52h1.035v-3.6l2.226 3.6h1.118v-5.52h-1.036v3.686l-2.259-3.687zm5.117 0h-1.208l1.973 5.52h1.19l1.976-5.52h-1.182l-1.352 4.085-1.397-4.086zm-12.796 3.79h-1.68v1.68h1.68z"
      fill="#ecd53f"
      fill-rule="nonzero"
    />

    <path
      d="M14 0H24V10H17Q14 10 14 7Z"
      fill="#546E7A"
      fill-rule="nonzero"
    />

    <polygon
      points="14,0 24,0 24,10"
      fill="#000000"
      opacity="0.1"
      fill-rule="nonzero"
    />

    <g
      transform="translate(15.1,1.1) scale(0.315)"
      stroke="white"
      stroke-width="2.15"
      stroke-linecap="round"
      stroke-linejoin="round"
      fill="none"
    >
      <path d="M15 8a1 1 0 0 1-1-1V2a2.4 2.4 0 0 1 1.704.706l3.588 3.588A2.4 2.4 0 0 1 20 8z" />
      <path d="M20 8v12a2 2 0 0 1-2 2h-4.182" />
      <path d="m3.305 19.53.923-.382" />
      <path d="M4 10.592V4a2 2 0 0 1 2-2h8" />
      <path d="m4.228 16.852-.924-.383" />
      <path d="m5.852 15.228-.383-.923" />
      <path d="m5.852 20.772-.383.924" />
      <path d="m8.148 15.228.383-.923" />
      <path d="m8.53 21.696-.382-.924" />
      <path d="m9.773 16.852.922-.383" />
      <path d="m9.773 19.148.922.383" />
      <circle cx="7" cy="18" r="3" />
    </g>

  </g>
</svg>