<svg viewBox="0 0 32 32" xmlns="http://www.w3.org/2000/svg"><ellipse cx="16" cy="16.001" fill="#fff" rx="14.438" ry="14.925"/><g fill="#4356e6"><path d="m4.712 17.65.014-.014.014-.014c.325-.321.649-.643.967-.964.221-.214.435-.436.649-.65-.214-.214-.435-.428-.649-.65-.318-.321-.642-.643-.967-.964l-.014-.014-.014-.014c-.311-.336-.622-.671-.933-1-.539-.578-1.071-1.15-1.589-1.714a15.459 15.459 0 0 0 0 8.727c.518-.564 1.05-1.136 1.589-1.714.311-.351.621-.68.933-1.015z"/><path d="m29.809 11.636c-.518.564-1.05 1.136-1.589 1.714-.311.329-.622.664-.933 1l-.014.014-.014.014c-.325.321-.649.643-.967.964-.221.214-.435.436-.649.65.214.214.435.428.649.65.318.321.642.643.967.964l.014.014.014.014c.311.336.622.671.933 1 .539.578 1.071 1.15 1.589 1.714a15.409 15.409 0 0 0 0-8.713z"/><path d="m24.835 16.793c-3.019 2.964-5.893 5.456-8.663 5.456h-.345c-2.77 0-5.644-2.492-8.663-5.456-.546.543-1.1 1.1-1.651 1.65-.981 1.057-1.983 2.107-2.908 3.135a14.456 14.456 0 0 0 13.395 9.348 14.456 14.456 0 0 0 13.395-9.348c-.926-1.028-1.92-2.078-2.908-3.135-.553-.558-1.099-1.108-1.652-1.65z"/><path d="m7.165 15.207c3.019-2.964 5.893-5.456 8.663-5.456h.345c2.77 0 5.644 2.492 8.663 5.456.546-.543 1.1-1.1 1.651-1.65.981-1.057 1.983-2.107 2.908-3.135a14.456 14.456 0 0 0 -13.395-9.348 14.456 14.456 0 0 0 -13.395 9.348c.926 1.028 1.92 2.078 2.908 3.135.553.558 1.099 1.108 1.652 1.65z"/><path d="m14.038 14.172a1.144 1.144 0 0 0 -.553.993v1.678a1.153 1.153 0 0 0 .553.993l1.409.843a1.061 1.061 0 0 0 1.105 0l1.409-.843a1.144 1.144 0 0 0 .553-.993v-1.679a1.153 1.153 0 0 0 -.553-.993l-1.409-.843a1.061 1.061 0 0 0 -1.105 0z"/><path d="m7.959 16c2.894 2.842 5.641 5.221 8.041 5.1 2.4.121 5.14-2.257 8.041-5.1-2.894-2.842-5.641-5.221-8.041-5.1-2.4-.121-5.14 2.258-8.041 5.1zm8.594-3.992 2.515 1.5a1.144 1.144 0 0 1 .553.993v3a1.153 1.153 0 0 1 -.553.993l-2.515 1.5a1.061 1.061 0 0 1 -1.105 0l-2.515-1.5a1.144 1.144 0 0 1 -.553-.993v-3a1.153 1.153 0 0 1 .553-.993l2.515-1.5a1.093 1.093 0 0 1 1.105 0z"/></g></svg>