<?xml version="1.0" encoding="utf-8"?>
<svg viewBox="0 0 32 32" xmlns="http://www.w3.org/2000/svg" xmlns:bx="https://boxy-svg.com">
  <g id="surface1" transform="matrix(0.81218, 0, 0, 0.823656, 2.993626, 2.002693)" bx:origin="0.5 0.500173">
    <path style=" stroke:none;fill-rule:nonzero;fill:rgb(4.705882%,27.843137%,61.176471%);fill-opacity:1;" d="M 28.675781 22.289062 C 28.472656 22.1875 28.234375 22.089844 28.03125 21.988281 L 28.199219 21.988281 C 28.199219 21.988281 26.773438 21.386719 26.671875 16.917969 C 26.535156 12.480469 28.03125 11.710938 28.03125 11.710938 C 29.148438 11.144531 30.101562 10.277344 30.710938 9.109375 C 32.339844 6.074219 31.1875 2.335938 28.097656 0.699219 C 24.738281 -0.867188 20.9375 0.265625 19.308594 3.304688 C 18.628906 4.539062 18.460938 5.90625 18.664062 7.207031 L 18.597656 7.105469 C 18.597656 7.105469 18.96875 8.707031 15.101562 11.078125 C 11.265625 13.445312 9.5 12.246094 9.5 12.246094 L 9.601562 12.414062 C 9.5 12.34375 9.398438 12.277344 9.265625 12.210938 C 6.210938 10.578125 2.375 11.746094 0.746094 14.78125 C -0.882812 17.816406 0.269531 21.554688 3.359375 23.1875 C 5.667969 24.390625 8.347656 24.058594 10.28125 22.554688 L 10.25 22.621094 C 10.25 22.621094 11.640625 21.488281 15.675781 23.625 C 18.867188 25.292969 19.34375 26.960938 19.410156 27.558594 C 19.34375 29.863281 20.53125 32.132812 22.734375 33.265625 C 25.824219 34.867188 29.625 33.734375 31.289062 30.695312 C 32.917969 27.660156 31.730469 23.921875 28.675781 22.289062 Z M 21.546875 23.121094 C 21.039062 23.289062 19.578125 23.488281 16.527344 21.886719 C 13.199219 20.121094 12.691406 18.652344 12.625 18.21875 C 12.65625 17.683594 12.65625 17.148438 12.554688 16.617188 L 12.589844 16.648438 C 12.589844 16.648438 12.316406 15.214844 16.117188 12.914062 C 19.511719 10.84375 21.074219 11.246094 21.34375 11.34375 C 21.515625 11.476562 21.71875 11.578125 21.921875 11.679688 C 22.292969 11.878906 22.703125 12.046875 23.109375 12.144531 C 23.585938 12.578125 24.433594 13.8125 24.535156 17.117188 C 24.636719 20.421875 23.652344 21.6875 23.109375 22.121094 C 22.53125 22.386719 21.988281 22.722656 21.546875 23.121094 Z M 21.546875 23.121094 "/>
    <path style=" stroke:none;fill-rule:nonzero;fill:rgb(100%,100%,100%);fill-opacity:1;" d="M 21.105469 2.703125 C 19.273438 4.671875 19.242188 7.574219 21.003906 9.242188 C 20.121094 8.410156 20.15625 6.671875 21.039062 5.039062 C 21.140625 4.90625 21.480469 4.539062 21.957031 4.703125 C 21.988281 4.703125 22.023438 4.738281 22.058594 4.738281 C 22.160156 4.769531 22.292969 4.769531 22.398438 4.769531 C 23.144531 4.738281 23.6875 4.136719 23.652344 3.402344 C 23.652344 3.070312 23.515625 2.804688 23.277344 2.570312 C 24.976562 1.46875 26.910156 1.335938 27.722656 2.070312 L 27.757812 2.070312 C 25.960938 0.402344 22.972656 0.699219 21.105469 2.703125 Z M 2.648438 14.378906 C 0.8125 16.347656 0.78125 19.253906 2.546875 20.921875 C 1.664062 20.085938 1.695312 18.351562 2.578125 16.714844 C 2.679688 16.582031 3.019531 16.214844 3.496094 16.382812 C 3.527344 16.382812 3.5625 16.417969 3.597656 16.417969 C 3.699219 16.449219 3.835938 16.449219 3.9375 16.449219 C 4.683594 16.417969 5.226562 15.816406 5.191406 15.082031 C 5.191406 14.746094 5.054688 14.480469 4.820312 14.246094 C 6.515625 13.144531 8.449219 13.011719 9.265625 13.746094 L 9.296875 13.746094 C 7.5 12.113281 4.511719 12.378906 2.648438 14.378906 Z M 22.191406 24.289062 C 20.359375 26.257812 20.328125 29.160156 22.089844 30.832031 C 21.207031 29.996094 21.242188 28.261719 22.125 26.625 C 22.226562 26.492188 22.566406 26.125 23.042969 26.292969 C 23.074219 26.292969 23.109375 26.324219 23.144531 26.324219 C 23.246094 26.359375 23.378906 26.359375 23.484375 26.359375 C 24.230469 26.324219 24.773438 25.726562 24.738281 24.992188 C 24.738281 24.65625 24.601562 24.390625 24.363281 24.15625 C 26.0625 23.054688 27.996094 22.921875 28.808594 23.65625 L 28.84375 23.65625 C 27.046875 21.988281 24.058594 22.289062 22.191406 24.289062 Z M 22.191406 24.289062 "/>
  </g>
</svg>