<?xml version="1.0" encoding="UTF-8" standalone="no"?>
<!DOCTYPE svg PUBLIC "-//W3C//DTD SVG 1.1//EN" "http://www.w3.org/Graphics/SVG/1.1/DTD/svg11.dtd">
<svg width="100%" height="100%" viewBox="0 0 32 32" version="1.1" xmlns="http://www.w3.org/2000/svg" xmlns:xlink="http://www.w3.org/1999/xlink" xml:space="preserve" style="fill-rule:evenodd;clip-rule:evenodd;stroke-linejoin:round;stroke-miterlimit:1.41421;">
    <g id="XMLID_81_" transform="matrix(0.285779,0,0,0.285779,34.6029,-97.4972)">
        <path d="M-15.6,410.7L-51.6,446.6C-51.7,446.7 -51.9,446.7 -52.2,446.7L-101.3,433.6C-101.4,433.6 -101.6,433.5 -101.7,433.2L-114.8,384.2C-114.8,384.1 -114.8,383.8 -114.7,383.6L-78.7,347.7C-78.6,347.6 -78.4,347.6 -78.1,347.6L-29,360.8C-28.9,360.8 -28.7,360.9 -28.6,361.2L-15.5,410.2C-15.3,410.4 -15.4,410.6 -15.6,410.7ZM-63.7,371.7L-111.9,384.7C-112,384.7 -112,384.8 -111.9,385L-76.6,420.3C-76.5,420.4 -76.5,420.3 -76.3,420.3L-63.3,372.2C-63.5,371.7 -63.7,371.7 -63.7,371.7Z" style="fill:rgb(1,1,1);fill-rule:nonzero;"/>
    </g>
</svg>
