<svg width="32" height="32" viewBox="0 0 32 32" shape-rendering="crispEdges" version="1.1" xmlns="http://www.w3.org/2000/svg"><g transform="matrix(.875 0 0 .875 2 2)"><path d="m8 24h21v8h-21z" fill="#fff"/><path d="m4 0h20v9h-20z" fill="#00006c"/><path d="m5 1h18v7h-18z" fill="#fc9000"/><path d="m8 16h17v1h-17z" fill="#00006c"/><path d="m6 2h16v5h-16z" fill="#fcfc48"/><path d="m7 3h15v4h-15z" fill="#fcd800"/><path d="m12 17h13v1h-13z" fill="#00006c"/><path d="m14 8h1v1h-1z" fill="#fcfc48"/><path d="m15 6h7v18h-7z" fill="#fcd800"/><path d="m20 10h2v3h-2z" fill="#00006c"/><path d="m15 7h1v1h-1z" fill="#fcfc48"/><path d="m21 8h1v2h-1z" fill="#fc9000"/><path d="m11 9h6v7h-6z" fill="#fcd800"/><path d="m10 9h3v1h-3z" fill="#00006c"/><path d="m13 9h1v1h-1z" fill="#fcfc48"/><path d="m20 9h1v2h-1z" fill="#fc9000"/><path d="m22 9h1v1h-1z" fill="#00006c"/><path d="m9 10h3v1h-3z" fill="#00006c"/><path d="m12 10h1v1h-1z" fill="#fcfc48"/><path d="m19 10h1v2h-1z" fill="#fc9000"/><path d="m8 11h3v1h-3z" fill="#00006c"/><path d="m11 11h1v1h-1z" fill="#fcfc48"/><path d="m20 11h1v1h-1z" fill="#00006c"/><path d="m8 12h2v4h-2z" fill="#00006c"/><path d="m10 12h1v3h-1z" fill="#fcfc48"/><path d="m20 12h1v1h-1z" fill="#fc9000"/><path d="m9 13h1v3h-1z" fill="#fc9000"/><path d="m22 13h1v1h-1z" fill="#00006c"/><path d="m22 14h1v1h-1z" fill="#fc9000"/><path d="m23 14h1v2h-1z" fill="#00006c"/><path d="m10 15h4v1h-4z" fill="#fc9000"/><path d="m22 15h1v9h-1z" fill="#fcd800"/><path d="m13 16h3v2h-3z" fill="#fc9000"/><path d="m12 17h3v1h-3z" fill="#00006c"/><path d="m23 16h1v2h-1z" fill="#fc9000"/><path d="m15 18h1v2h-1z" fill="#00006c"/><path d="m16 18h1v2h-1z" fill="#fc9000"/><path d="m23 18h1v3h-1z" fill="#fcd800"/><path d="m24 18h1v4h-1z" fill="#d84824"/><g fill="#00006c"><path d="m25 18h1v4h-1z"/><path d="m10 19h2v1h-2z"/><path d="m7 20h3v1h-3z"/></g><path d="m10 20h2v2h-2z" fill="#fc9000"/><path d="m11 20h1v1h-1z" fill="#00006c"/><path d="m14 20h1v2h-1z" fill="#00006c"/><path d="m15 20h1v2h-1z" fill="#fc9000"/><path d="m16 20h1v8h-1z" fill="#fcd800"/><path d="m5 21h3v1h-3z" fill="#00006c"/><path d="m8 21h1v1h-1z" fill="#fc9000"/><path d="m9 21h1v4h-1z" fill="#fcd800"/><path d="m12 21h2v1h-2z" fill="#00006c"/><path d="m23 21h1v2h-1z" fill="#fc9000"/><path d="m5 22h4v5h-4z" fill="#fcd800"/><path d="m3 22h3v1h-3z" fill="#00006c"/><path d="m6 22h1v1h-1z" fill="#fc9000"/><path d="m10 22h2v2h-2z" fill="#fcd800"/><path d="m12 22h2v1h-2z" fill="#fc9000"/><path d="m14 22h2v4h-2z" fill="#fcd800"/><path d="m24 22h1v2h-1z" fill="#00006c"/><path d="m2 23h2v2h-2z" fill="#00006c"/><path d="m4 23h1v3h-1z" fill="#fc9000"/><path d="m11 23h2v1h-2z" fill="#00006c"/><path d="m13 23h1v1h-1z" fill="#fcd800"/><g fill="#00006c"><path d="m17 23h1v5h-1z"/><path d="m18 23h2v1h-2z"/><path d="m23 23h1v1h-1z"/><path d="m25 23h3v1h-3z"/><path d="m10 24h1v1h-1z"/><path d="m13 24h1v2h-1z"/><path d="m21 24h2v5h-2z"/></g><path d="m20 24h1v8h-1z"/><path d="m21 24h1v1h-1z" fill="#fcd800"/><path d="m28 24h1v1h-1z" fill="#00006c"/><path d="m3 25h1v2h-1z" fill="#00006c"/><path d="m5 25h1v2h-1z" fill="#fc9000"/><path d="m6 25h1v2h-1z" fill="#fcd800"/><g fill="#00006c"><path d="m9 25h1v2h-1z"/><path d="m25 25h2v2h-2z"/><path d="m29 25h1v2h-1z"/><path d="m4 26h1v2h-1z"/><path d="m11 26h2v2h-2z"/><path d="m14 26h1v2h-1z"/></g><path d="m15 26h1v2h-1z" fill="#fcd800"/><path d="m5 27h1v3h-1z" fill="#00006c"/><path d="m6 27h1v1h-1z" fill="#fc9000"/><g fill="#00006c"><path d="m7 27h2v1h-2z"/><path d="m28 27h1v3h-1z"/><path d="m6 28h2v2h-2z"/><path d="m15 28h3v3h-3z"/></g><path d="m22 28h1v4h-1z"/><path d="m27 28h1v1h-1z" fill="#00006c"/><path d="m10 29h4v3h-4z"/><path d="m16 29h1v3h-1z" fill="#fff"/><path d="m25 29h1v3h-1z"/><path d="m7 30h1v1h-1z" fill="#00006c"/><path d="m9 30h1v2h-1z"/><path d="m26 30h1v2h-1z"/><path d="m29 28h1v3h-1z" fill="#00006c"/><path d="m8 31h21v1h-21z"/></g></svg>
