<svg viewBox="0 0 32 32" xmlns="http://www.w3.org/2000/svg" xmlns:xlink="http://www.w3.org/1999/xlink"><radialGradient id="a" cx="-2.176" cy="-818.913" gradientTransform="matrix(.36 .402 .222 -.163 197.796 -86.468)" gradientUnits="userSpaceOnUse" r="48.27"><stop offset="0" stop-color="#7ce1ff"/><stop offset=".3" stop-color="#7ce1ff" stop-opacity="0"/></radialGradient><radialGradient id="b" cx="4199.973" cy="-1187.763" gradientTransform="matrix(.031 .03 .075 -.062 -28.337 -144.76)" gradientUnits="userSpaceOnUse" r="83.239"><stop offset="0" stop-color="#7ce1ff"/><stop offset="1" stop-color="#7ce1ff" stop-opacity="0"/></radialGradient><radialGradient id="c" cx="-264.938" cy="-509.943" gradientTransform="matrix(-1.048 -.5 -1.117 .527 -829.648 192.721)" gradientUnits="userSpaceOnUse" r="27.886"><stop offset="0" stop-color="#7ce1ff" stop-opacity=".8"/><stop offset=".15" stop-color="#7ce1ff" stop-opacity="0"/></radialGradient><path d="m2 9.033 14-6.956 14 6.956v.919l-14 6.956-14-6.934z" fill="#0a6ec9"/><path d="m2 9.033 14 6.956 14-6.956v13.934l-14.044 6.956-13.956-6.956z" fill="#0568c1"/><path d="m16 29.9v-13.911l-13.913-6.912h-.087v13.89l13.956 6.956z" fill="#0663b4"/><path d="m7.709 6.211 13.978 6.956 2.844-1.4-14.022-6.956z" fill="#add4f7"/><path d="m21.687 13.167 2.844-1.4v4.375l-.766-.131-.809.989-1.269-.087z" fill="#99c7f2"/><path d="m13.112 21.545-4.725-2.362c-.262-.131-.481.022-.481.35v3.167a1 1 0 0 0 .481.831l4.747 2.369c.262.131.481-.022.481-.35v-3.195a1.039 1.039 0 0 0 -.503-.81zm-1.072 2.6-3.018-1.506a.526.526 0 0 1 -.241-.438c0-.175.109-.262.241-.2l3.019 1.509a.526.526 0 0 1 .241.438c-.001.179-.11.266-.241.2zm.438-1.094-3.456-1.751a.526.526 0 0 1 -.241-.438c0-.175.109-.262.241-.2l3.456 1.75a.526.526 0 0 1 .241.438c0 .205-.11.27-.241.205z" fill="#f2f2f2"/><g stroke-linecap="round"><path d="m18.558 49.816c.061-.183-7-7.561-7-7.561" fill="none" stroke="url(#a)" stroke-width="76.717003"/><path d="m8.558 56.835s9.942-6.825 10-7" fill="#2aa7c9" stroke="url(#b)" stroke-width="76.717003"/><path d="m8.73 57.121h1.124" fill="none" stroke="url(#c)" stroke-width="100"/></g></svg>