<svg xmlns="http://www.w3.org/2000/svg" viewBox="0 0 32 32"><title>file_type_gitpod</title><path d="M15.993,27.178,6.377,21.616V10.4H6.39L4,9V23H4l11.993,7h0Z" style="fill:#0087be"/><path d="M15.994,16h0L8.808,11.808H8.8v8.4l7.2,4.165Z" style="fill:#0087be"/><path d="M28,9,15.993,2,4,9H4l2.39,1.4,9.6-5.6,9.63,5.589L28,9Z" style="fill:#1aa6e4"/><path d="M23.205,11.8,16.007,7.6l-7.2,4.205L15.993,16Z" style="fill:#1aa6e4"/><path d="M28,9l-2.377,1.384L23.206,11.8,15.993,16h0v1.248h0v3.324h0v3.8h0l7.212-4.179V17.424L18.37,20.2V17.384l7.253-4.165v8.4l-9.63,5.562V30L28,23h0Z" style="fill:#0092cf"/></svg>
