<?xml version="1.0" encoding="UTF-8"?>
<svg width="36px" height="41px" viewBox="0 0 36 41" version="1.1" xmlns="http://www.w3.org/2000/svg" xmlns:xlink="http://www.w3.org/1999/xlink">
    <!-- Generator: Sketch 41.2 (35397) - http://www.bohemiancoding.com/sketch -->
    <title>Combined Shape</title>
    <desc>Created with Sketch.</desc>
    <defs></defs>
    <g id="Page-1" stroke="none" stroke-width="1" fill="none" fill-rule="evenodd">
        <path d="M17.78375,40.1164537 C17.24625,40.1164537 16.7125,39.9758287 16.2425,39.703855 L11.33375,36.7995562 C10.60125,36.3894063 10.95875,36.2443812 11.2,36.1599062 C12.17875,35.8205562 12.37625,35.7424312 13.42,35.1506312 C13.52875,35.0895937 13.6725,35.1125438 13.785,35.1784688 L17.555,37.4172313 C17.6925,37.4929188 17.885,37.4929188 18.01125,37.4172313 L32.71125,28.9323687 C32.84875,28.8542437 32.93625,28.6965312 32.93625,28.5344187 L32.93625,11.5690313 C32.93625,11.4030313 32.84875,11.2477813 32.70875,11.1637813 L18.01375,2.68578125 C17.8775,2.60665625 17.6975,2.60665625 17.56,2.68578125 L2.86875,11.1662813 C2.72625,11.2477813 2.63625,11.4079062 2.63625,11.5690313 L2.63625,28.5344188 C2.63625,28.6965313 2.72625,28.8503438 2.8675,28.9274938 L6.895,31.2541438 C9.08,32.3464313 10.41875,31.0598063 10.41875,29.7673313 L10.41875,13.0167813 C10.41875,12.7800313 10.60875,12.5930313 10.845,12.5930313 L12.71,12.5930313 C12.9425,12.5930313 13.135,12.7800313 13.135,13.0167813 L13.135,29.7673313 C13.135,32.6833438 11.5475,34.3557063 8.7825,34.3557063 C7.9325,34.3557063 7.26375,34.3557063 5.39625,33.4353063 L1.54125,31.2160563 C0.58875,30.6657688 0,29.6364687 0,28.5344188 L0,11.5690313 C0,10.4665313 0.58875,9.43778125 1.54125,8.88940625 L16.2425,0.39478125 C17.1725,-0.13159375 18.40875,-0.13159375 19.33125,0.39478125 L34.03125,8.88940625 C34.98375,9.44015625 35.575,10.4665312 35.575,11.5690313 L35.575,28.5344188 C35.575,29.6364687 34.98375,30.6618687 34.03125,31.2160563 L19.33125,39.703855 C18.86125,39.9758287 18.32875,40.1164537 17.78375,40.1164537 Z M15,22.856875 C15,22.6215 15.19,22.4335 15.425,22.4335 L17.32625,22.4335 C17.53875,22.4335 17.715,22.585875 17.74875,22.793375 C18.035,24.7285 18.89125,25.705 22.78125,25.705 C25.8775,25.705 27.19625,25.004375 27.19625,23.36125 C27.19625,22.414 26.8225,21.710875 22.01,21.23975 C17.9875,20.84175 15.5,19.953125 15.5,16.73525 C15.5,13.769 18,12 22.19125,12 C26.90125,12 29.23125,13.63475 29.52625,17.1415 C29.5375,17.262625 29.495,17.378375 29.415,17.46875 C29.33375,17.553125 29.22125,17.6045 29.10375,17.6045 L27.195,17.6045 C26.9975,17.6045 26.8225,17.463875 26.7825,17.272375 C26.325,15.23625 25.21125,14.585375 22.19125,14.585375 C18.81,14.585375 18.4175,15.763625 18.4175,16.646 C18.4175,17.71525 18.88125,18.02675 23.44625,18.63075 C27.96375,19.228 30.11,20.073625 30.11,23.249 C30.11,26.452125 27.43875,28.286575 22.78125,28.286575 C16.3475,28.286575 15,25.333875 15,22.856875 Z" id="Combined-Shape" fill="#83CD29"></path>
    </g>
</svg>