<svg xmlns="http://www.w3.org/2000/svg" viewBox="0 0 32 32"><title>file_type_bundler@2x</title><g id="bundler"><path d="M20.06,2.43s.09.1.21.16l2.25,1.23a9.79,9.79,0,0,0,1.26.63c.35,0,.2-.12-1-.81l-1.5-.83c-.67-.38-1.18-.54-1.18-.38m-1,.3a6,6,0,0,0-2.4,2.07,8.78,8.78,0,0,0-1.25,3.61c-.12.58-.21,1-.53,2.26a3.11,3.11,0,0,0-.11.54c.07.06,3.7,2,3.75,2s.07-.07.09-.15.09-.37.16-.63l.28-1,.28-1c.07-.26.19-.72.25-1a6.33,6.33,0,0,1,3.2-4.51l.33-.18-.19-.11L21.77,4l-.51-.28-.7-.38-.88-.48-.36-.2L19,2.73m5.51,1.9c-4.6.59-6.52,7.26-2.76,9.57,2.71,1.67,6.56-.54,7.23-4.14.59-3.18-1.57-5.8-4.46-5.43M25.68,6c2.8.73,2.94,5.07.23,6.8a3.5,3.5,0,0,1-2.89.43,1.74,1.74,0,0,0-.31-.12c-.26,0-1.06-.81-1.33-1.35C19.95,9,22.73,5.26,25.68,6M9.3,11c-.9.5-.94.53-.49.39a6.07,6.07,0,0,1,3.26.3c.62.2.58.15-.28-.32-1.81-1-1.47-.94-2.49-.37m10.13.19c0,.06-.06.24-.1.41s-.12.48-.18.69a1.81,1.81,0,0,0-.09.4s1.46.81,1.49.81,0-.06-.08-.13a4.73,4.73,0,0,1-.84-1.78c-.11-.46-.17-.57-.21-.41m-4.89.55s0,.09,0,.1a24.17,24.17,0,0,0,3.82,2c.06-.15.4,0-3.48-2.09-.28-.16-.29-.16-.33,0m-1.21,1.16c-1.6.88-1.57.79-.81,2.12l.78,1.39c.27.49.45.73.55.73s0-.05,0-.13a30.06,30.06,0,0,1-1.61-3c0-.23.18-.37,1.15-.91,1.21-.67,1.23-.68,1.14-.74s0-.1-1.18.53m14.39,1.43a1.25,1.25,0,0,1-.27.17l-.41.23-1.85,1L23,17.05l-4,2.26c-3.17,1.76-3.49,2-3.17,2.09A14.38,14.38,0,0,0,18,20.25l.45-.25,2-1.12,3.84-2.15,1.88-1.06.62-.35c1.16-.62,1.2-.66,1.15-.85s-.11-.19-.17-.1M4.75,15c-.11,0,0,.1.86.58l1.49.82A9.68,9.68,0,0,0,8.37,17c.36,0,.23-.11-3.09-1.93-.31-.17-.37-.18-.54-.11m-1.14.66c-.61.61-.82,1.08-.48,1.08a.27.27,0,0,1,.2.11.27.27,0,0,0,.22.11c.1,0,.16,0,.19.11s.08.11.2.11.17,0,.2.11.08.11.19.11a.26.26,0,0,1,.22.12c0,.07.11.1.16.09a.19.19,0,0,1,.18.08.34.34,0,0,0,.22.11.23.23,0,0,1,.19.11.23.23,0,0,0,.2.11.23.23,0,0,1,.2.11.23.23,0,0,0,.2.11.27.27,0,0,1,.21.11.26.26,0,0,0,.19.11.23.23,0,0,1,.18.11c.1.18.2.13.39-.2a4,4,0,0,1,.56-.69l.38-.38-1.13-.63-1.32-.73-.73-.39c-.65-.35-.54-.36-1,.09m11.5.24a1,1,0,0,1,.09.38c0,.16,0,.19.06.13a.58.58,0,0,0,0-.58c-.15-.14-.19-.11-.1.07m-5.88,1.5,1.15.63c1.43.79,1.47.8,1,.33a2.81,2.81,0,0,0-2-1.05H9.05l.17.09m13.16,2.1c-1.53.8-2.34,2-1.65,2.43a3.91,3.91,0,0,1,1.08,1.4,12.27,12.27,0,0,1,.74,2.1,8.12,8.12,0,0,0,.66,1.72s0,0,0-.1L23,25.76a14.83,14.83,0,0,0-1.24-4.08c-.43-.9-.13-1.64.93-2.31.2-.13,0-.07-.29.1M13,20.19a1,1,0,0,0-.42.49s0,.07.06,0a.14.14,0,0,0,.06-.11c0-.45.81-.44,2.88,0,.53.12.69.06.18-.08A9.65,9.65,0,0,0,13,20.19m9.33.16s.08.09.17.14.24,0,.1-.12-.27-.09-.27,0m-.22.36a.24.24,0,0,0,.24.21c.14,0,.13-.08,0-.19s-.2-.11-.2,0m4.62,4.44a3.2,3.2,0,0,1-.8,3c-.5.44.06.22.8-.31,1-.73,1-.79.39-2-.23-.46-.41-.76-.4-.67M25.1,26.38c-.07.07-.12.16-.11.2s.11,0,.21-.14.16-.2.11-.2a.42.42,0,0,0-.21.14m.25.31c-.11.12-.13.17-.08.17s.33-.22.33-.3-.1,0-.25.13" style="fill:#fff"/><path d="M19.9,2.31S22,3.52,23.27,4.21c.13.07.28.08.86.06l.7,0-.24-.14c-.32-.18-2.33-1.27-2.64-1.43-.56-.28-2-.54-2-.37M19,2.47l-.26.08.24.13c.87.46,3.41,1.89,3.42,1.92a1,1,0,0,0,.5-.16,4.41,4.41,0,0,0-.55-.32c-1.16-.61-3-1.64-3-1.68s0-.06-.35,0m4.44,3.79c-2.42.49-3.74,4.47-1.79,5.39,1.59.75,3.63-.63,3.9-2.63.21-1.57-.88-3-2.11-2.76m1.63.42c1.81,1.94-.18,5.77-2.78,5.35-.39-.06-.43,0-.19.1a2.44,2.44,0,0,0,1.79.24C26.5,11.7,27.4,8,25.29,6.69c-.3-.19-.39-.2-.21,0M23.92,7.8c.83.46,1.07.77,1.07,1.43,0,1.57-1.79,2.11-3,.91S22.43,7,23.92,7.8m-.55.45a1.4,1.4,0,0,0-.5,2.15c.7.67,1.93-.06,1.93-1.16a1,1,0,0,0-1.44-1m4.84.49c0,.1,0,.15,0,.09a.3.3,0,0,0,0-.19c0-.05,0,0,0,.09m-3.92.16c0,.14-.09.38-.16.31s0-.08,0-.12a.32.32,0,0,0,0-.26c0-.2,0-.14.1.07m-.55.1a.29.29,0,0,0-.08.17l0,.13,0-.15c0-.16,0-.28.15-.21s0,0,0,.06m.72.44c.07.33-.09.5-.67.69-.38.13-.43.14-.43.07a1.17,1.17,0,0,1,.39-.17c.49-.16.66-.32.62-.57s0-.25.1,0M8.66,10c-1.32.73-1.43.83-1.43,1.23s.14.44.17.06a1,1,0,0,1,.13-.41A14.59,14.59,0,0,1,9.91,9.51c.1,0,.16,0,.15-.08s-.4,0-1.39.55m15.25-.54s0,.06-.08.08-.1.06-.07.17,0,.14,0,.14-.11-.32,0-.38.15-.06.19,0m-15.05.7c-1.14.64-1.28.75-1.36,1s0,.38.18.31.07-.06,0-.15,0-.32,1.09-.91,1.21-.64,1.49-.47.32.07.09-.21-.35-.23-1.52.42m0,.3c-1.47.83-1.49.68.12,1.54l1.25.68c.94.52.87.5,1,.28a3.76,3.76,0,0,1,1-.69c1.07-.6,1-.54.59-.78-2.2-1.21-2.93-1.6-3-1.6s-.5.25-1,.56m1.53,0,1.69.91c.63.34.6.39-.12.16a10.26,10.26,0,0,0-1.39-.39,6.55,6.55,0,0,0-2,0c-.64.16-.61.13.48-.48l.51-.29c.37-.21.34-.21.84.06m3.76.68c0,.12,0,.2,0,.19a11.13,11.13,0,0,1,1.19.61c1.39.77,2,1.08,2.18,1.19a1.47,1.47,0,0,1,.25.16c.09.08.09.09.19-.27,0-.05,0-.09,0-.09a6.25,6.25,0,0,1-.66-.34l-1.53-.84-.82-.45c-.78-.44-.68-.41-.75-.15m-6.7.51-.29.12,1.18.64,1.74.95c.62.34.89.36,1,.07s0-.2-.67-.57L8.87,12c-1-.56-1-.54-1.37-.37m6,.07c-1.85.94-2.32,1.3-2.32,1.74a18.75,18.75,0,0,0,1.66,3.11c.21.25-.08-.27-1.09-2-.71-1.22-.67-1.31.94-2.21a11.92,11.92,0,0,1,1.16-.6.15.15,0,0,0,.11-.05c.06-.09-.26-.06-.46,0m-.7.65c-1.78,1-1.75.74-.36,3.18.87,1.54.94,1.58,1.86,1.07s.93-.75.72-1.79c-.56-2.72-.58-2.79-.74-2.93s-.37-.16-1.48.46m-5.77-.48a.27.27,0,0,0,.26.27.26.26,0,0,1,.21.11.26.26,0,0,0,.2.11.22.22,0,0,1,.19.11.23.23,0,0,0,.21.11c.11,0,.17,0,.19.11s.08.11.19.11a.23.23,0,0,1,.21.11.22.22,0,0,0,.19.11.28.28,0,0,1,.22.13.27.27,0,0,0,.24.13.2.2,0,0,1,.18.08.18.18,0,0,0,.17.08.28.28,0,0,1,.22.13.29.29,0,0,0,.2.13.37.37,0,0,1,.21.09c.1.09.29.06.25,0s-1.07-.64-2.82-1.59c-.66-.35-.73-.38-.73-.29m7.44,0a.45.45,0,0,0,.05.12,3.13,3.13,0,0,1,.15.52c.1.47.06.43.68.71,1.95.9,1.77,4.09-.29,5.36-.4.25-.24.23.2,0,1-.55,1.44-1.4,2.25-4.08l.24-.77c0-.1,0-.14,0-.12a2.44,2.44,0,0,1-.63-.29l-1.64-.89L14.78,12a1,1,0,0,0-.27-.13m-.29.21a6,6,0,0,1-1,.59,10.41,10.41,0,0,0-1.13.68c-.27.26-.29.2,1,2.52a5.11,5.11,0,0,1,.41.8c-.13.13-.33-.16-1.2-1.69s-.8-1.38-.7-1.61,2.47-1.55,2.55-1.3m9,.94a.4.4,0,0,0,.22,0c.05,0,0,0-.12,0s-.16,0-.09,0m-8.25.42c-.06.09.08.29.27.38,1.53.79,1.24,3.47-.47,4.3A2.05,2.05,0,0,1,12.5,18c-.53-.3-.6-.3-.43-.06a2.17,2.17,0,0,0,2.22.68c2-.61,2.91-3.35,1.48-4.71-.32-.31-.79-.55-.85-.45m4,.49c-1.09.62-1.08.61-1.12.83a13.77,13.77,0,0,1-1.14,2.91,3.76,3.76,0,0,1-1.86,1.45c-.22,0-.12.1.34.35a2.24,2.24,0,0,1,.57.4l.09.15s.41-.21.89-.49L19,18.22l1.73-1,3.6-2a.28.28,0,0,1,.21,0s0,0,0,0,.08-.12.25-.22.4-.2.33-.1,0,0,0,0a.07.07,0,0,0,0-.08,4,4,0,0,1,.78-.5c.9-.5.89-.49.5-.7l-.28-.16-.18.13A4.5,4.5,0,0,1,21,14c-1.27-.74-1-.73-2.15-.07m-7.94-.28c-.12,0-.33.28-.25.28s.41-.12.41-.22,0-.12-.16-.06m4,.2s.08.39.17.82c.27,1.26.14,1.59-.79,2.09s-1.33.37-2-.8c-.34-.61-.33-.6-.41-.28a1.94,1.94,0,0,0,2.12,2.56,2.57,2.57,0,0,0,1.52-4c-.17-.19-.63-.51-.63-.44m5.11.47c.2.2,0,.52-.46.61-.18,0-.39-.1-.39-.26s.66-.54.85-.35m-.47.06c-.23.08-.39.29-.25.34s.84-.2.65-.34-.16-.09-.4,0M5.15,14.5c.14.09,1.07.6,3,1.65a1,1,0,0,1,.34.24s.1,0,.24,0a2.18,2.18,0,0,1,.51,0c.34,0,.32,0-.13-.24l-1.58-.86c-1.34-.73-1.56-.82-2.13-.86l-.4,0,.16.1m-.86.12c-.16.07-.2.11-.13.14l1.8,1a18.72,18.72,0,0,1,1.71,1s.08,0,.18-.08a.79.79,0,0,1,.27-.13s-.1-.09-.32-.21c-1.26-.66-3.2-1.74-3.22-1.79s0-.06-.3.05m7.55.6A2.74,2.74,0,0,0,12,17.56c.14.13.13.06,0-.29a3,3,0,0,1-.1-1.73c.08-.3.08-.52,0-.32m3,.08c.16.16.16.31,0,.62s-.18.22-.14-.09a.65.65,0,0,0-.08-.49c-.15-.25,0-.28.23,0m7.05,0c.14.22,0,.44-.44.53s-.44,0-.44-.21.71-.57.87-.31m-.47,0c-.24.07-.38.24-.29.35s.18.1.44,0c.42-.22.31-.45-.14-.32m-7,.11a.42.42,0,0,1,.12.35.5.5,0,0,1-.84.41c-.4-.44.28-1.17.71-.76m-.57.19c-.15.19-.14.37,0,.48s.32.06.28-.06,0-.11.1,0,.13,0,.13-.06,0-.05-.08-.05-.08,0-.08-.05,0,0,.08,0,.1-.08,0-.24a.27.27,0,0,0-.45,0m5.41,1.26c.2.22-.11.54-.54.54s-.46-.36-.06-.54.48-.13.6,0m-.54,0c-.33.14-.37.35-.07.36s.69-.32.49-.4a.52.52,0,0,0-.43,0m-10,.34a1.19,1.19,0,0,0-.59.56c0,.18,0,.2,1.4,1l1.75,1c.75.42.87.46.87.28s.41-.59.81-.59a17.55,17.55,0,0,1,2.14.34c.42.1.39.05-.14-.24l-.42-.23h-.67c-.83,0-1-.05-2.26-.78l-1.54-.83-.65-.35a2,2,0,0,0-.71-.07m2.33.45a1.5,1.5,0,0,0,.24.22.94.94,0,0,0-.18-.22,1.5,1.5,0,0,0-.24-.22.94.94,0,0,0,.18.22m10.92.69c-1.65.82-2.21,1.35-2.37,2.27-.09.49,0,.63.26.82a4.56,4.56,0,0,1,1.52,2.67c.88,2.93,1.52,3.75,2.94,3.75,1.07,0,2.54-.94,2.69-1.72.07-.36-1.21-3.13-2.74-5.94-.28-.52-.67-1.25-.85-1.63-.4-.82-.27-.8-1.44-.21m.92-.05a1.54,1.54,0,0,1-.4.25c-1.46.75-1.8,1.43-1.28,2.52a15.1,15.1,0,0,1,1.11,3.62c0,.24.13.66.18.94.18.88.19.91.09.78A6.37,6.37,0,0,1,22,25a10.37,10.37,0,0,0-1.11-2.94,3.17,3.17,0,0,0-.81-.89c-.44-.24-.06-1.22.71-1.8a9.4,9.4,0,0,1,2.12-1.09m-1,1.31c.16.13.21.48.06.48a.09.09,0,0,0-.08.1c0,.18-.32.23-.53.08s-.12-.12-.1-.19,0-.09,0-.07,0,0,0-.05,0-.08.05-.08,0,0,0-.07c-.09-.24.4-.39.64-.2m-8.24.26c.06.06,1.35.76,1.4.76s0,0,0-.08.08-.14.17-.21.27-.15-.72-.35-1-.19-.88-.12m13,5.95c.07.42-.09.64-.87,1.2a2.4,2.4,0,0,1-1.07.47s.27-.33.35-.34a3,3,0,0,0,.62-1,4.78,4.78,0,0,0,.11-1.93l0-.32.43.84a7.34,7.34,0,0,1,.46,1m-1.92-.48a.34.34,0,0,1,.09.34.41.41,0,0,1-.8.09c0-.1,0-.11,0-.06s.08,0,.08,0a.14.14,0,0,0-.07-.13c-.05,0-.05,0,0-.11s.1-.08.12-.06,0,0,0,0,0-.13.18-.13a.4.4,0,0,1,.3.13" style="fill:#01afe2"/><path d="M20,2.38s-.07.06-.06.08l3,1.64a.88.88,0,0,0,.27.12s-1.5-.87-2.29-1.3-.82-.45-.82-.49.35,0,.5,0,.28.1.08,0A.73.73,0,0,0,20,2.38m-.93.28c-.12.06-.21.11-.19.11a1.38,1.38,0,0,0,.44-.19s0,0-.25.08m1.76-.09a1.24,1.24,0,0,0,.43.25s-.08-.08-.2-.15-.22-.11-.22-.1m-1.46.06a12.77,12.77,0,0,0,1.38.75,14.23,14.23,0,0,0-1.35-.77,0,0,0,0,0,0,0m-1.06.42a2.09,2.09,0,0,0-.34.25,5.58,5.58,0,0,0,.72-.45c.08-.08-.07,0-.38.2m3-.2a.79.79,0,0,0,.22.14c.12.06.22.1.22.09a.79.79,0,0,0-.22-.14c-.12-.06-.22-.1-.22-.09m.5.28a.79.79,0,0,0,.22.14c.12.06.22.1.22.09a.79.79,0,0,0-.22-.14c-.12-.06-.22-.1-.22-.09m-4.35.58c-.36.35-.36.35,0,.07.51-.45.51-.45.47-.45a3.63,3.63,0,0,0-.42.38m3.35-.3a1.24,1.24,0,0,0,.43.25s-.08-.08-.2-.15-.22-.11-.22-.1m1.51,0a.79.79,0,0,0,.22.14c.12.06.22.1.22.09a.79.79,0,0,0-.22-.14c-.12-.06-.22-.1-.22-.09m-1,.28a1.11,1.11,0,0,0,.43.24s-.08-.08-.2-.14a.69.69,0,0,0-.23-.09m1.51,0a.79.79,0,0,0,.22.14c.12.06.22.1.22.09a.79.79,0,0,0-.22-.14c-.12-.06-.22-.1-.22-.09m-1,.28a.79.79,0,0,0,.22.14c.12.06.22.1.22.09a.79.79,0,0,0-.22-.14C22,4,21.85,4,21.85,4m1.51,0a1.82,1.82,0,0,0,.34.21c.23.12.32.19.27.23s0,0,.05,0,.14-.09-.27-.3A1.91,1.91,0,0,0,23.36,4m-1,.28a.79.79,0,0,0,.22.14c.12.06.22.1.22.09a.79.79,0,0,0-.22-.14c-.12-.06-.22-.1-.22-.09m.9,0a.48.48,0,0,0,.17.11c.09,0,.17.07.17.06a.48.48,0,0,0-.17-.11c-.09,0-.17-.07-.17-.06m-6.65.49c-.17.24-.33.54-.27.49a5.73,5.73,0,0,0,.46-.72,1.27,1.27,0,0,0-.19.24M23,4.61l.13.1-.29.13a1.37,1.37,0,0,0-.32.18s.12,0,.31-.12c.38-.19.41-.24.19-.33l-.15-.07.13.1m1.27,0c-.1,0,0,0,.22,0a2.14,2.14,0,0,0,.42-.06s-.47,0-.64,0m.93,0a2.35,2.35,0,0,0,.44.07c.25,0,.35,0,.25,0s-.74-.1-.7,0m1.4.28a.62.62,0,0,0,.2.08s0,0-.08-.08a.62.62,0,0,0-.2-.08s0,0,.08.08m-3.29,0c-.19.08-.15.11,0,0a.45.45,0,0,0,.17-.08s-.07,0-.21,0m-1.43.57a2.32,2.32,0,0,0-.41.37s.08,0,.21-.14l.44-.37c.11-.08.18-.15.17-.15a3.41,3.41,0,0,0-.4.29m5.56-.17a3.29,3.29,0,0,0,.35.32c.19.16.29.23.21.14a2.6,2.6,0,0,0-.56-.47m-11.26.25a1.66,1.66,0,0,1-.09.2s0,0,0,0,.2-.37.15-.37-.05.07-.08.15m5.56.39a6.09,6.09,0,0,0-.57.6c-.12.16-.08.12.13-.1s.44-.45.61-.6a1.34,1.34,0,0,0,.27-.27,3.61,3.61,0,0,0-.43.37m3.06,0A.56.56,0,0,0,25,6c.07,0,0,0-.13,0s-.2,0-.13,0m3.46.19a1.06,1.06,0,0,0,.18.21S28.18,6,28.11,6s0,.05.09.17m-12.37.16a1.09,1.09,0,0,0-.07.32.76.76,0,0,0,.11-.27A1,1,0,0,0,15.95,6s-.06.11-.11.27M21,6.24a9.26,9.26,0,0,0-.75,1.07c-.11.22,0,.12.27-.35a6.45,6.45,0,0,1,.52-.69c.13-.14.21-.25.18-.25a.87.87,0,0,0-.22.21m4.74-.13c.26.1.36.1.14,0A.8.8,0,0,0,25.66,6s0,0,.11.08m.5.2c.19.13.3.17.17.06a.53.53,0,0,0-.2-.11s0,0,0,.06m2.21.28a.48.48,0,0,0,.11.17s0-.08-.06-.17a.48.48,0,0,0-.11-.17s0,.08.06.17m-1.57.22a2.36,2.36,0,0,0,.3.28A1.61,1.61,0,0,0,27,6.81a2.36,2.36,0,0,0-.3-.28,1.61,1.61,0,0,0,.25.28m-4.66.29a5.22,5.22,0,0,0-.46.55l-.13.2.16-.2c.09-.11.31-.35.49-.55a2.47,2.47,0,0,0,.3-.35,3.37,3.37,0,0,0-.36.35m6.43-.18a2.13,2.13,0,0,0,.1.31c.06.15.11.24.11.2s-.21-.56-.22-.5m-13.11.37a1.37,1.37,0,0,0-.06.3s0,0,.08-.19a1,1,0,0,0,.06-.3s0,.08-.08.19m5,0a3.3,3.3,0,0,0-.34.69,5.7,5.7,0,0,0,.44-.81.45.45,0,0,0-.1.13m6.74.07a.81.81,0,0,0,.14.2s-.14-.33-.2-.36,0,.05.06.16m-7.25.34C20,8,20,8,20.12,7.74a.6.6,0,0,0,.09-.24s-.06.07-.12.18m7.51.19c0,.12.1.21.11.2a1,1,0,0,0-.17-.43s0,.1.06.22m-6.12.28a.41.41,0,0,0-.07.2s.06-.07.12-.17.08-.26,0,0m7.58.19a2.11,2.11,0,0,0,.06.42c.05,0,0-.53,0-.67s0,0,0,.25m-9.22-.08a.45.45,0,0,0,0,.2s0-.06.08-.16a.45.45,0,0,0,0-.2s0,.06-.08.16m.22.14a1.37,1.37,0,0,0-.06.3s0,0,.08-.19a1,1,0,0,0,.06-.3s0,.08-.08.19m-4.79.25a.65.65,0,0,0,0,.26s0-.08.07-.21a.61.61,0,0,0,0-.26s0,.08-.07.21m12.59.53c0,.28,0,.4,0,.27a2.55,2.55,0,0,0,0-.5c0-.15,0,0,0,.24m-8.3.14a2.49,2.49,0,0,1,0,.28l0,.14.06-.14a.6.6,0,0,0,0-.28l0-.14v.14m9.52.08c0,.12,0,.32,0,.45l0,.22.06-.22a1.55,1.55,0,0,0,0-.45l0-.22v.22M15,9.67a.37.37,0,0,0,0,.2s0-.05.07-.15a.41.41,0,0,0,0-.2s0,.06-.07.15m4.68.65a4.54,4.54,0,0,0,.07.75c0,.15,0,0,0-.48,0-.84-.1-1-.09-.28m7.87.28c-.05.15-.07.24,0,.21a1.06,1.06,0,0,0,.15-.46s-.06.1-.11.24m-8.34-.06a.29.29,0,0,0,0,.17s0,0,.07-.13a.29.29,0,0,0,0-.17s0,0-.07.13m1.77.08c0,.11,0,.15,0,.1a.32.32,0,0,0,0-.2c0-.05,0,0,0,.1m-11.22.06-.53.3c-.93.52-1,.59-.84.59s.07,0,.05-.06,0,0,.12,0,.12,0,.06,0,.09-.15.69-.48.81-.43.93-.38.23.08.1,0-.24-.1-.58.09m.73,0a.79.79,0,0,0,.22.14c.12.06.22.1.22.09a.79.79,0,0,0-.22-.14c-.12-.06-.22-.1-.22-.09m4.18.29a.4.4,0,0,0,0,.25,15.18,15.18,0,0,0,1.51.82,5.69,5.69,0,0,0-.73-.44l-.76-.42,0-.21c0-.27,0-.28-.06,0m14.07-.12-.07.22c0,.06,0,0,.05,0a.4.4,0,0,0,.07-.22s0,0-.05,0M19.44,11a.76.76,0,0,1,0,.19c0,.08,0,.09,0,0s.07-.08.14.19c0,.06,0,0,0-.14s-.14-.46-.14-.27m-8.37,0a6.52,6.52,0,0,0,1,.53,5,5,0,0,0-.56-.32,1.91,1.91,0,0,0-.45-.21m16.24.24c0,.09-.07.17-.06.17a.48.48,0,0,0,.11-.17c0-.09.07-.17.06-.17a.48.48,0,0,0-.11.17M19,11.49a.83.83,0,0,0,0,.28s.05-.09.09-.24a.83.83,0,0,0,0-.28s-.05.09-.09.24m-9.91-.14c-.37.08-.35.12,0,.07a7.2,7.2,0,0,1,1.51,0c.29,0,.35,0,.22,0a7.34,7.34,0,0,0-1.76-.05m2.24.19a4.28,4.28,0,0,0,.87.24.81.81,0,0,0-.27-.11c-.39-.12-.64-.17-.6-.13m.83.05a.69.69,0,0,0,.21.15c.2.11.21.12,0,.09l-.17,0,.17.08c.51.23.63.14.15-.11s-.41-.21-.41-.17m14.76.25a4.94,4.94,0,0,1-.88.87l-.2.16.22-.15c.39-.27,1.21-1.15,1.07-1.15a1.59,1.59,0,0,0-.23.27m-12.38-.16s0,0,0,0a.1.1,0,0,1,.12,0,.13.13,0,0,0,.1.06s0,0,0-.08-.17-.1-.22,0m-.08.14a8.11,8.11,0,0,0,1.77,1.08,2.84,2.84,0,0,0-.52-.32,7.38,7.38,0,0,1-1.2-.75s0,0,0,0m.45,0a.79.79,0,0,0,.22.14c.12.06.22.1.22.09a.79.79,0,0,0-.22-.14c-.12-.06-.22-.1-.22-.09M19.2,12c-.05.23,0,.28.06,0a.37.37,0,0,0,0-.2s0,.05-.07.15M20,12a1,1,0,0,0,.09.22c0,.06,0,0,0-.06a1,1,0,0,0-.09-.22c0-.06,0,0,0,.06m8.31,0-.15.27c-.08.13-.08.14,0,0s.27-.42.23-.42-.06.06-.09.13m-12.88.12a.79.79,0,0,0,.22.14c.12.06.22.1.22.09a.79.79,0,0,0-.22-.14c-.12-.06-.22-.1-.22-.09m.9,0a1.24,1.24,0,0,0,.43.25s-.08-.08-.2-.15-.22-.11-.22-.1m5.6.44c.23.25.28.29.28.25l-.27-.27-.27-.25.25.27m-7.85-.07a.73.73,0,0,0-.21.14,2.22,2.22,0,0,0,.5-.23c.06-.06-.1,0-.29.09m.47-.08s0,.07-.07.14l-.13.11.16-.07c.15-.07.18-.17,0-.19s-.05,0,0,0m1.39,0a.79.79,0,0,0,.22.14c.12.06.22.1.22.09a.79.79,0,0,0-.22-.14c-.12-.06-.22-.1-.22-.09m.9,0a.48.48,0,0,0,.17.11c.09,0,.17.07.17.06a.48.48,0,0,0-.17-.11c-.09,0-.17-.07-.17-.06m11,.29c-.12.14-.19.25-.15.22a2.17,2.17,0,0,0,.39-.49,1.75,1.75,0,0,0-.24.26m-9.12-.06a.29.29,0,0,0,0,.17s0,0,.07-.13a.29.29,0,0,0,0-.17s0,0-.07.13m-5.15.14a.73.73,0,0,0-.21.14s.1,0,.22-.09a.81.81,0,0,0,.22-.14s0,0-.24.09m.5,0a.73.73,0,0,0-.21.14s.1,0,.22-.09a.81.81,0,0,0,.22-.14s0,0-.24.09m2.37-.09a.79.79,0,0,0,.22.14c.12.06.22.1.22.09a.79.79,0,0,0-.22-.14c-.12-.06-.22-.1-.22-.09m.9,0a.79.79,0,0,0,.22.14c.12.06.22.1.22.09a.79.79,0,0,0-.22-.14c-.12-.06-.22-.1-.22-.09m3.05.14a.48.48,0,0,0,.11.17s0-.08-.06-.17a.48.48,0,0,0-.11-.17s0,.08.06.17M13,13a.73.73,0,0,0-.21.14s.1,0,.22-.09a.81.81,0,0,0,.22-.14s0,0-.24.09m.5,0a.73.73,0,0,0-.21.14s.1,0,.22-.09a.81.81,0,0,0,.22-.14s0,0-.24.09m2.76-.1a1.24,1.24,0,0,0,.43.25s-.08-.08-.2-.15-.22-.11-.22-.1M17,13a6.52,6.52,0,0,0,1,.53,5,5,0,0,0-.56-.32A1.91,1.91,0,0,0,17,13m.87,0a.79.79,0,0,0,.22.14c.12.06.22.1.22.09A.79.79,0,0,0,18,13c-.12-.06-.22-.1-.22-.09m4.7.08a.48.48,0,0,0,.19.12c.07,0,.07,0-.16-.13l-.17-.1.13.12m3,0c-.11.06-.18.11-.15.11a1,1,0,0,0,.38-.2s0,0-.22.09m-6,0a.48.48,0,0,0,.17.11c.09,0,.17.07.17.06a.48.48,0,0,0-.17-.11c-.09,0-.17-.07-.17-.06m7.84.23a1.27,1.27,0,0,0-.22.25,1.94,1.94,0,0,0,.28-.25,1.27,1.27,0,0,0,.22-.25,1.94,1.94,0,0,0-.28.25m-6.77-.11a3.49,3.49,0,0,0,.67.74c.23.19.23.18-.06-.1s-.39-.39-.48-.5-.15-.17-.13-.14m-8,.17c-.21.11-.2.16,0,.05a.5.5,0,0,0,.17-.11s0,0-.18.06m.5,0c-.21.11-.2.16,0,.05a.5.5,0,0,0,.17-.11s0,0-.18.06m3.71-.06a.48.48,0,0,0,.17.11c.09,0,.17.07.17.06a.48.48,0,0,0-.17-.11c-.09,0-.17-.07-.17-.06m6.2,0a.63.63,0,0,0,.28.08c.12,0,.17,0,.11,0l-.28-.08c-.12,0-.15,0-.11,0m1.76,0c-.17,0-.21.07-.11.07a.88.88,0,0,0,.31-.07c.21-.09.14-.09-.2,0m-4.65.05a.48.48,0,0,0,.17.11c.09,0,.17.07.17.06a.48.48,0,0,0-.17-.11c-.09,0-.17-.07-.17-.06m-8,.21a.57.57,0,0,0-.21.58c.08.2.09.18.07-.09a.39.39,0,0,1,.14-.39c.17-.17.17-.2,0-.1m.5,0a.73.73,0,0,0-.42.51,2.53,2.53,0,0,0,.43.88,1.55,1.55,0,0,0-.17-.36c-.29-.52-.24-.74.22-1,.14-.08.09-.09-.06,0m4.68,0a.79.79,0,0,0,.22.14c.12.06.22.1.22.09a.79.79,0,0,0-.22-.14c-.12-.06-.22-.1-.22-.09m.73.05a.9.9,0,0,0,.21.14l.21.12-.16-.14c-.14-.13-.26-.18-.26-.12m-.22.23a.79.79,0,0,0,.22.14c.12.06.22.1.22.09a.79.79,0,0,0-.22-.14c-.12-.06-.22-.1-.22-.09m8.69.11c-.26.18-.3.24-.08.11a1.2,1.2,0,0,0,.24-.18c.08-.1,0-.08-.17.07m-.57.34c-.14.07-.23.14-.21.14a1.67,1.67,0,0,0,.49-.25s0,0-.28.11m-13.66.52c.13.24.28.5.33.57a1.55,1.55,0,0,1,.12.2,7.19,7.19,0,0,0,.48.81s0-.09-.61-1.13c-.27-.49-.51-.88-.53-.88a2.21,2.21,0,0,0,.21.43m15.6-.3a.22.22,0,0,1-.1.27c-.13.11-.13.11,0,0a.23.23,0,0,0,.13-.35c-.06-.11-.06-.11,0,0m-2.59.06c-.14.07-.14.08,0,0s.34-.13.25-.13a.89.89,0,0,0-.22.08m-2,.27a3.09,3.09,0,0,0,1.11,0c.13,0-.1-.05-.55-.05s-.68,0-.55.05m3.34.15a1.39,1.39,0,0,0-.29.2,2.7,2.7,0,0,0,.59-.33c.09-.09,0,0-.29.13M5.14,15a3.1,3.1,0,0,0,.69.34,5.06,5.06,0,0,0-.9-.48s.06.07.21.15M27.33,15c-.21.11-.2.16,0,.05a.5.5,0,0,0,.17-.11s0,0-.18.06M4.6,15a1.09,1.09,0,0,0,.39.28,1.74,1.74,0,0,0,.39.18A2.07,2.07,0,0,0,5,15.23c-.31-.17-.35-.22-.27-.25s.1,0,0,0S4.6,15,4.6,15m8.15.15a.48.48,0,0,0,.11.17s0-.08-.06-.17a.48.48,0,0,0-.11-.17s0,.08.06.17m-9.18.46c-.67.67-.87,1.16-.47,1.16a.36.36,0,0,1,.21.07c.07.06.07.06,0,0a.28.28,0,0,0-.2-.1c-.37,0,0-.72.67-1.26L4,15.25l.68.37a6,6,0,0,0,.7.35A11.88,11.88,0,0,0,4,15.21a2.76,2.76,0,0,0-.47.41m22.9-.17a3.8,3.8,0,0,0-.45.29,4.22,4.22,0,0,0,.78-.42c.33-.2,0-.09-.34.13M6,15.46a.79.79,0,0,0,.22.14c.12.06.22.1.22.09a.79.79,0,0,0-.22-.14c-.12-.06-.22-.1-.22-.09m19.59.06c-.21.11-.2.16,0,.05a.5.5,0,0,0,.17-.11s0,0-.18.06m-20.15,0s1.86,1,1.88,1-1.8-1-1.86-1a0,0,0,0,0,0,0m7.67.29c.27.48.62,1.1.72,1.26s.08.13,0,.1-.09,0-.07,0,.2.08.2,0-.9-1.62-1-1.68,0,.1.12.28m1.91.06a.67.67,0,0,1,.09.51c0,.42.16.24.26-.23a.45.45,0,0,0-.37-.47c-.1,0-.1,0,0,.2m-8.52-.12a.79.79,0,0,0,.22.14c.12.06.22.1.22.09a.79.79,0,0,0-.22-.14c-.12-.06-.22-.1-.22-.09m8.69.07a.58.58,0,0,1,0,.58c0,.06-.05,0-.06-.13a1,1,0,0,0-.09-.38c-.1-.18-.06-.21.1-.07m9.89,0c-.21.11-.2.16,0,.05a.5.5,0,0,0,.17-.11s0,0-.18.06M5.5,16a.48.48,0,0,0,.17.11c.09,0,.17.07.17.06a.48.48,0,0,0-.17-.11C5.57,16,5.5,16,5.5,16M7,16a8.85,8.85,0,0,0,.78.46c.85.47.84.46.66.53s-.09.05,0,.05c.24,0,.31-.15.11-.25l-.36-.19A10.88,10.88,0,0,0,7,16m17.57.07c-.21.11-.2.16,0,.05a.5.5,0,0,0,.17-.11s0,0-.18.06M6,16.3a.79.79,0,0,0,.22.14c.12.06.22.1.22.09a.79.79,0,0,0-.22-.14c-.12-.06-.22-.1-.22-.09m18.08.06c-.21.11-.2.16,0,.05a.5.5,0,0,0,.17-.11s0,0-.18.06m.67.06c-.21.11-.2.16,0,.05a.5.5,0,0,0,.17-.11s0,0-.18.06m-11.44.14a.48.48,0,0,0,.11.17s0-.08-.06-.17a.48.48,0,0,0-.11-.17s0,.08.06.17m-6.81,0a.79.79,0,0,0,.22.14c.12.06.22.1.22.09a.79.79,0,0,0-.22-.14c-.12-.06-.22-.1-.22-.09m.9,0a1.11,1.11,0,0,0,.43.24s-.08-.08-.2-.14a.69.69,0,0,0-.23-.09m16.85.12c-.21.11-.2.16,0,.05a.5.5,0,0,0,.17-.11s0,0-.18.06M7,16.85a2.19,2.19,0,0,0,.39.24c.38.21.39.21.29.33s-.1.11,0,0,.11-.13.08-.15a5,5,0,0,0-.8-.42m.9,0a.83.83,0,0,0,.37.18s-.07-.06-.17-.12-.2-.08-.2-.07m15.95.06c-.21.11-.2.16,0,.05a.5.5,0,0,0,.17-.11s0,0-.18.06M3.48,17a.56.56,0,0,1,.21.08c.05,0,.06,0,0,0S3.63,17,3.52,17s-.16,0,0,0m19,.26c-.3.18-.34.24-.06.1a1,1,0,0,0,.27-.17c0-.07,0-.07-.21.08m.84,0c-.21.11-.2.16,0,.05a.5.5,0,0,0,.17-.11s0,0-.18.06M9,17.28a.9.9,0,0,0,.42.05c.23,0,.38,0,.32,0s-.74-.07-.74,0m.22.14a.48.48,0,0,0,.17.11c.09,0,.17.07.17.06a.48.48,0,0,0-.17-.11c-.09,0-.17-.07-.17-.06m13.51.12a1,1,0,0,0-.24.17,1.82,1.82,0,0,0,.47-.27c.1-.09,0,0-.24.1M7.35,17.7c-.1.11-.17.19-.14.19s.4-.39.35-.39a1.44,1.44,0,0,0-.21.2m3.33,0c.18.18.54.47.42.33a2.06,2.06,0,0,0-.31-.27c-.09-.06-.14-.09-.11-.06m10.94,0c-.21.11-.2.16,0,.05a.5.5,0,0,0,.17-.11s0,0-.18.06m-16.7,0a.37.37,0,0,0,.19.07c.09,0,.15,0,.14,0a.37.37,0,0,0-.19-.07c-.09,0-.15,0-.14,0m5,0a.48.48,0,0,0,.17.11c.09,0,.17.07.17.06a.48.48,0,0,0-.17-.11c-.09,0-.17-.07-.17-.06m12.34.09A.74.74,0,0,0,22,18a1.32,1.32,0,0,0,.39-.2c.16-.11,0-.06-.21.06M5.3,18a.37.37,0,0,0,.19.07c.09,0,.15,0,.14,0A.37.37,0,0,0,5.44,18c-.09,0-.15,0-.14,0M7,18.14c-.15.21-.25.38-.17.29A2.38,2.38,0,0,0,7.16,18a.76.76,0,0,0-.16.18M21.11,18c-.21.11-.2.16,0,.05a.5.5,0,0,0,.17-.11s0,0-.18.06m.56.11c-.21.11-.2.16,0,.05a.5.5,0,0,0,.17-.11s0,0-.18.06m-16,.09a.24.24,0,0,0,.16,0,.23.23,0,0,1,.19.11.33.33,0,0,0,.22.13c.09,0,.15,0,.14,0a.21.21,0,0,0-.15,0,.25.25,0,0,1-.19-.11.37.37,0,0,0-.23-.13c-.09,0-.16,0-.14,0m14.91.08c-.21.11-.2.16,0,.05a.5.5,0,0,0,.17-.11s0,0-.18.06m-9.62,0a.48.48,0,0,0,.17.11c.09,0,.17.07.17.06a.48.48,0,0,0-.17-.11c-.09,0-.17-.07-.17-.06m9.12.23c-.21.11-.2.16,0,.05a.5.5,0,0,0,.17-.11s0,0-.18.06m-8.72,0,.27.14.25.12-.12-.13a.53.53,0,0,0-.27-.14c-.08,0-.14,0-.13,0m8.88.34c-.21.11-.2.16,0,.05a.5.5,0,0,0,.17-.11s0,0-.18.06m2.79.16c-.28.14-.47.25-.42.25s.07,0,0,.06-.18.07-.13,0c.16-.27-1.4.79-1.61,1.09-.08.12,0,.05.27-.19a4.22,4.22,0,0,1,1.29-.83s-.06.1-.18.19a2.52,2.52,0,0,0-.64.77s.09-.06.19-.22a3.93,3.93,0,0,1,1.35-1.06,1.6,1.6,0,0,0,.42-.26c0-.06,0-.08-.53.2m-4,.12c-.12.08-.2.14-.17.14a1.39,1.39,0,0,0,.43-.26s0,0-.25.12m.35.23c-.21.11-.2.16,0,.05a.5.5,0,0,0,.17-.11s0,0-.18.06m-.9.08a.73.73,0,0,0-.21.14s.1,0,.22-.09a.81.81,0,0,0,.22-.14s0,0-.24.09m.39.2c-.21.11-.2.16,0,.05a.5.5,0,0,0,.17-.11s0,0-.18.06M17.64,20c-.21.11-.2.16,0,.05a.5.5,0,0,0,.17-.11s0,0-.18.06m.59.09a.74.74,0,0,0-.18.14,1.32,1.32,0,0,0,.39-.2c.16-.11,0-.06-.21.06m-4.65.1a.32.32,0,0,0,.2,0c.05,0,0,0-.1,0s-.15,0-.1,0m-.9.2a.69.69,0,0,0-.17.31c0,.12.08.15.15,0s0,0,0,0-.06-.14.11-.33.16-.2.15-.2a1.09,1.09,0,0,0-.2.2m4.46-.11c-.21.11-.2.16,0,.05a.5.5,0,0,0,.17-.11s0,0-.18.06m-4.29.12c-.09.08-.1.1,0,0a1,1,0,0,1,.42-.15l.29,0h-.27a.46.46,0,0,0-.42.15m1.61-.1c.32.08.66.12.53.07a2.08,2.08,0,0,0-.42-.08c-.23,0-.26,0-.11,0m3.29.06c-.22.14-.27.2-.07.1s.35-.2.28-.2a.73.73,0,0,0-.21.1m4.51,0a.1.1,0,0,1-.14.05c-.06,0-.11,0-.11,0s.15.12.21.06.1,0,.18,0,.12.11,0,.17a.15.15,0,0,0-.06.15c0,.1-.15.11-.26,0s-.07-.06,0,0,.36.13.33,0a.21.21,0,0,1,.18-.24c.1,0,.07-.2,0-.3s-.28-.12-.33,0m-8.45,0a1.92,1.92,0,0,0,.36,0c.09,0,.06,0-.08-.05a1.92,1.92,0,0,0-.36,0c-.09,0-.06,0,.08.05m8.75,0c.14.14.08.22-.1.12s-.17-.12-.17-.14.19-.05.27,0m-7,.15a1.74,1.74,0,0,0,.31.08c.13,0,.16,0,.08,0a1.74,1.74,0,0,0-.31-.08c-.13,0-.16,0-.08,0m1,0c-.21.11-.2.16,0,.05a.5.5,0,0,0,.17-.11s0,0-.18.06m5.52,0c-.07,0-.13.1-.13.14s0,.07.05,0,.07-.07.13,0,.1,0,.18,0-.05-.21-.24-.12m-6.79.09a.92.92,0,0,0,.25.05c.09,0,.08,0,0-.05a.92.92,0,0,0-.25-.05c-.09,0-.08,0,0,.05m5.26.31a.81.81,0,0,0-.09.28s.08-.1.14-.26a.85.85,0,0,0,.09-.28,1,1,0,0,0-.14.26m.92,0c0,.15,0,.21,0,.13a.7.7,0,0,0,0-.28c0-.07,0,0,0,.15m-5.41-.11c-.21.11-.2.16,0,.05a.5.5,0,0,0,.17-.11s0,0-.18.06m-.43.27c-.14.17.08.48.23.33s0-.06-.05,0-.22-.12-.13-.27.05-.14,0,0m.6.06c-.21.11-.2.16,0,.05a.5.5,0,0,0,.17-.11s0,0-.18.06m4.17.4c0,.17,0,.24.08.27s.08,0,0,0a.66.66,0,0,1-.08-.27c0-.19,0-.19,0,0m1.17-.13c0,.08.17.39.21.35s0-.11-.09-.22-.12-.16-.12-.14m-.67.72a4.64,4.64,0,0,1,.77,1.08c0,.09.08.15.1.13a4.06,4.06,0,0,0-1-1.44c-.06,0,0,.07.17.23m.9-.26a2.45,2.45,0,0,0,.17.39c.09.18.15.27.13.2s-.3-.67-.29-.59m.36.88a2.68,2.68,0,0,0,.24.63,3.36,3.36,0,0,0-.26-.75s0,.06,0,.13m-.36.66a4.15,4.15,0,0,0,.16.45c.09.23.15.34.14.25a2.75,2.75,0,0,0-.3-.7m.65.23a3.13,3.13,0,0,0,.24.78,5,5,0,0,0-.24-.94s0,.05,0,.16m-.3.77a3.32,3.32,0,0,0,.25.72,3.35,3.35,0,0,0-.24-.82s0,0,0,.1m.57.35a5.29,5.29,0,0,0,.24,1,8.49,8.49,0,0,0-.25-1.22s0,.08,0,.21m3.83.17c0,.12,0,.17,0,.13s.19.23.45.75a4.83,4.83,0,0,0,.4.74A5.86,5.86,0,0,0,26.62,25m-4.14.32a3.33,3.33,0,0,0,.25.79,2,2,0,0,0-.11-.44c-.07-.23-.14-.39-.14-.35m4.26.64c0,.23,0,.51,0,.62l0,.19.06-.18a2.44,2.44,0,0,0,0-.62l0-.43v.43M23,26.11c.12.65.16.82.19.79A3.84,3.84,0,0,0,23,26s0,0,0,.14m2,.24L25,26.5l.14-.13c.24-.21.32-.15.11.08l-.19.21.21-.19a.92.92,0,0,0,.21-.24c0-.1-.21,0-.34.11m-2.29,0a2.21,2.21,0,0,0,.25.58,3,3,0,0,0-.23-.61s0,0,0,0m2.46.38c-.07.08-.12.16-.1.17s.32,0,.38-.16l.07-.13-.14.13c-.19.18-.33.16-.16,0s.12-.14.1-.14a.66.66,0,0,0-.16.14m2.25.14c0,.11,0,.15,0,.1a.32.32,0,0,0,0-.2c0-.05,0,0,0,.1m-1,.28c-.07.18-.1.32-.07.3a1.76,1.76,0,0,0,.22-.62,1.06,1.06,0,0,0-.14.31M23.09,27c0,.08.23.44.26.41s0-.06,0-.1a.42.42,0,0,1,0-.21c0-.12,0-.13,0,0s0,.11-.11,0-.06-.09-.07-.06m4.25.34a7.2,7.2,0,0,1-.62.49,4,4,0,0,0-.53.42,6.84,6.84,0,0,0,1.07-.78c.13-.11.21-.21.19-.21s-.07,0-.11.08m-1.18.44a2.38,2.38,0,0,1-.42.43c-.27.21-.28.3,0,.22s.29-.13.08-.08-.15,0,.11-.21.53-.6.45-.6a1.25,1.25,0,0,0-.2.24" style="fill:#7cd6f0"/><path d="M19.19,2.24a2,2,0,0,1-.34.14,1.26,1.26,0,0,0-.31.14,1.84,1.84,0,0,1-.29.16c-.12.05-.21.12-.21.15a3.39,3.39,0,0,0-.77.62.25.25,0,0,1-.16.11.08.08,0,0,0-.08.07.48.48,0,0,1-.15.21,3.28,3.28,0,0,0-.51.63.79.79,0,0,1-.13.17.66.66,0,0,0-.14.24c0,.07-.05.13-.07.13a.66.66,0,0,0-.14.27,3.29,3.29,0,0,1-.17.38,2,2,0,0,0-.14.36c0,.14-.1.33-.14.42a3.9,3.9,0,0,0-.14.62,2.51,2.51,0,0,1-.11.5,3.42,3.42,0,0,0-.14.59,4.84,4.84,0,0,1-.14.64,5.92,5.92,0,0,0-.22,1.08c0,.07,0,.13-.05.13s-.07.08-.09.18a6.76,6.76,0,0,1-.2.85c0,.06-.06.17-.08.23-.12.42-.47.5-.87.21a1.63,1.63,0,0,0-.28-.14.76.76,0,0,1-.23-.12s-.73-.42-1.29-.7a1.49,1.49,0,0,1-.27-.17.25.25,0,0,0-.13-.07s-.05-.06-.05-.14c0-.65-1.35-1.11-1.74-.59a1.28,1.28,0,0,1-.27.14c-.13.06-.24.13-.24.15s0,0-.07,0a3.66,3.66,0,0,0-.57.29l-.66.37c-.08,0-.15.1-.15.13s0,.05-.09.05-.42.68-.41.94a1.06,1.06,0,0,1-.08.41.61.61,0,0,0,.29.75c.26.07.35.3.17.43a2.86,2.86,0,0,0-.21,1.24c0,.62,0,.65-.45.35A1.79,1.79,0,0,0,6,14.65c-.08,0-.15,0-.15-.06s-.22-.06-.56-.06-.56,0-.56.06-.06.06-.13.06a1.33,1.33,0,0,0-.69.26.76.76,0,0,1-.22.13,2.39,2.39,0,0,0-.4.38c-.44.47-.47.51-.57.71a1.23,1.23,0,0,1-.15.24.25.25,0,0,0,0,.33,1.31,1.31,0,0,1,.15.25.34.34,0,0,0,.23.21.44.44,0,0,1,.21.1.34.34,0,0,0,.21.08.16.16,0,0,1,.17.11c0,.08.08.11.19.11s.17,0,.19.11a.15.15,0,0,0,.14.11c.17,0,.29.06.29.15s.06.08.16.08.18,0,.19.08a.19.19,0,0,0,.17.08.17.17,0,0,1,.17.11c0,.08.08.11.22.11s.19,0,.22.11.08.11.17.11a.23.23,0,0,1,.2.11.23.23,0,0,0,.18.11.45.45,0,0,1,.26.15c.09.1.15.13.17.08s.41-.1.41,0,.27,0,.37-.15a1.27,1.27,0,0,1,.13-.24,2.71,2.71,0,0,0,.2-.28c.27-.42.68-.71.48-.34a1.3,1.3,0,0,0,0,.73,2.85,2.85,0,0,0,.76.46l1.67.91a3.56,3.56,0,0,0,.54.27.36.36,0,0,0,.19.14,6.82,6.82,0,0,1,.67.34c.52.29,1,.41,1,.25a.25.25,0,0,1,.07-.13A1,1,0,0,0,13,20.8c.06-.14.53-.18.63-.05a5.17,5.17,0,0,0,.73.41,1.69,1.69,0,0,1,.28.16,1.73,1.73,0,0,0,1.46.39l.48-.26.5-.28a7.07,7.07,0,0,1,.68-.36,4.46,4.46,0,0,1,0,.5,2.14,2.14,0,0,0,.44,1.3c.37.52.68.25,1.05.8s.75,1.47,1.19,2.34c0,0,.71,1.4.8,1.59a1.26,1.26,0,0,1,0,.57,3.35,3.35,0,0,0,.07.57l1,1a.9.9,0,0,0,.15.1.54.54,0,0,1,.17.11,3,3,0,0,0,2.65-.06,1.54,1.54,0,0,1,.32-.16s.06,0,.08-.08a.13.13,0,0,1,.11-.08.38.38,0,0,0,.18-.1c.06-.05.26-.2.44-.32s.52-.37.76-.54c1-.74,1-.85,1-1.6a1.29,1.29,0,0,0-.09-.56.09.09,0,0,1-.06-.08,6.51,6.51,0,0,0-.52-1,.09.09,0,0,1,0-.07,6.51,6.51,0,0,0-.52-1,.1.1,0,0,1,0-.09c0-.08-1.52-3.1-1.64-3.25s-.1-.17-.89-1.73-.76-1.42-.27-1.64a.92.92,0,0,0,.22-.13A1.59,1.59,0,0,1,24.6,17l.45-.25.45-.26,1.4-.78.22-.12c1-.54,1.12-.62,1.15-.81s0-.57-.15-.61S28,14.06,28,14a.93.93,0,0,0-.31-.2l-.31-.15.25-.23a6.37,6.37,0,0,0,.88-1.1.26.26,0,0,1,.07-.12.84.84,0,0,0,.21-.4.22.22,0,0,1,.08-.14A1.19,1.19,0,0,0,29,11.3a2.2,2.2,0,0,1,.14-.38,4.75,4.75,0,0,0,.22-1.11.35.35,0,0,1,.06-.23,3.78,3.78,0,0,0,0-1.25,4.26,4.26,0,0,1-.14-.6,3.16,3.16,0,0,0-.14-.56A2.24,2.24,0,0,1,29,6.82a.81.81,0,0,0-.14-.29s-.05-.06-.07-.13a.92.92,0,0,0-.17-.29.73.73,0,0,1-.14-.2,5.51,5.51,0,0,0-1-.95.81.81,0,0,1-.22-.13,6.13,6.13,0,0,0-.62-.35,4.63,4.63,0,0,1-.51-.29,1.13,1.13,0,0,0-.25-.14.82.82,0,0,1-.21-.11,1.5,1.5,0,0,0-.28-.16l-.53-.28c-.31-.18-.54-.3-1.25-.67a5.66,5.66,0,0,1-.51-.29,1.26,1.26,0,0,0-.47-.22s-.09,0-.09,0A5.9,5.9,0,0,0,20.14,2,4,4,0,0,0,19.19,2.24Zm2.93.25a7.42,7.42,0,0,1,1,.44l1.46.79c1.2.65,1.17.62.48.62a5.91,5.91,0,0,0-5.41,4.9c0,.12-.08.4-.14.62-.5,1.84-.63,2.33-.68,2.52-.12.51-.81,2.8-1.14,3.81-.56,1.69-1.09,2.5-1.94,3-.46.26-.63.28-.21,0,2.15-1.31,2.33-4.64.3-5.57-.65-.3-.6-.25-.72-.79a1.16,1.16,0,0,0-.56-.91c-.1-.05-.1-.08,0-.21s.64-2.42.86-3.43A21.31,21.31,0,0,1,16,5.89c1.08-2.65,3.82-4.17,6.12-3.4M25.7,4.6c2.11.23,3.67,2.46,3.44,4.91-.45,4.69-5.95,7.1-8.49,3.73-2.31-3.06,0-8.25,3.92-8.67a4.16,4.16,0,0,1,1.13,0M24.07,6.09c-3.23.84-4.16,5.6-1.37,7,2.2,1.09,5-.89,5.12-3.65a3,3,0,0,0-3.75-3.32m1.07.45c2.26,1.09,1.33,5.09-1.33,5.64-1.55.32-2.47-.52-2.4-2.22.09-2.16,2.25-4.14,3.72-3.42m1,.32c2.19,1.4,1.26,5.21-1.44,5.91a2.53,2.53,0,0,1-1.86-.25c-.25-.15-.21-.17.2-.11,2.69.43,4.76-3.55,2.89-5.56-.19-.2-.1-.2.22,0m-2.71,1a1.67,1.67,0,0,0-.71,2.6c1.25,1.25,3.11.68,3.11-.95a2,2,0,0,0-2.4-1.65M25,8.46a1.32,1.32,0,0,1,.18,2.07,1.08,1.08,0,0,1-1.95-.8c.08-.92,1.07-1.64,1.77-1.27M25,9.09a.33.33,0,0,1,0,.27s-.05.1,0,.13.21-.18.17-.32-.15-.28-.1-.07m-.59.12c-.05,0-.06.09,0,.21l0,.16,0-.14a.3.3,0,0,1,.08-.18s0,0,0-.07a.14.14,0,0,0-.13,0m.76.53c0,.27-.14.43-.65.6a1.21,1.21,0,0,0-.4.17c0,.07.05.06.45-.08.61-.2.77-.37.7-.72s-.14-.21-.1,0m-14.86,0s-.05.06-.15.08a15.15,15.15,0,0,0-2.47,1.4,1,1,0,0,0-.14.43c0,.4-.18.35-.18-.06s.12-.52,1.49-1.28c1-.57,1.37-.7,1.45-.57m14.2,0c-.1.06-.08.39,0,.39s0-.06,0-.14,0-.15.08-.17.1-.05.08-.08-.08-.06-.2,0M10.62,10c.24.29.2.4-.09.22s-.42-.14-1.55.48-1.24.72-1.14.95,0,.14,0,.16-.26,0-.18-.32.23-.4,1.41-1.06,1.34-.71,1.58-.43m1,.9,1.69.93c.45.25.5.19-.62.81a3.91,3.91,0,0,0-1.08.71c-.15.23-.08.25-1.05-.29l-1.3-.71c-1.37-.73-1.42-.76-1.24-.94s2.11-1.24,2.2-1.24.66.33,1.4.73m8,.4a4.77,4.77,0,0,0,.85,2c.29.37.12.31-1.28-.47-.2-.11-.2-.05.07-1.13s.26-1,.35-.42M9.05,12.37l1.61.87c.72.38.74.4.69.59s-.35.28-1-.07l-1.8-1-1.22-.66.3-.13c.41-.18.36-.19,1.42.39M14.37,12a.15.15,0,0,1-.12.06,12.38,12.38,0,0,0-1.2.62c-1.67.93-1.71,1-1,2.29,1.06,1.83,1.35,2.37,1.14,2.11a19.47,19.47,0,0,1-1.72-3.23c0-.47.49-.83,2.41-1.81.21-.11.54-.14.48,0m.34.24c.17.14.18.21.76,3,.22,1.08.1,1.4-.74,1.86s-1,.49-1.93-1.11c-1.44-2.54-1.47-2.28.37-3.31,1.16-.64,1.3-.69,1.54-.48m-6.78.29c1.82,1,2.91,1.6,2.93,1.65s-.16.14-.26,0a.38.38,0,0,0-.22-.09.3.3,0,0,1-.21-.14.29.29,0,0,0-.23-.14.19.19,0,0,1-.17-.08.21.21,0,0,0-.19-.08.28.28,0,0,1-.25-.14.29.29,0,0,0-.23-.14.23.23,0,0,1-.2-.11.24.24,0,0,0-.22-.11c-.11,0-.17,0-.2-.11S8.41,13,8.3,13a.24.24,0,0,1-.22-.11.23.23,0,0,0-.2-.11.27.27,0,0,1-.21-.11.27.27,0,0,0-.22-.11.28.28,0,0,1-.27-.28c0-.09.07-.06.76.3m7.74,1.38c1.66.76,1.69,3.37.07,4.73a2.37,2.37,0,0,1-3.36-.15c-.18-.25-.11-.24.44.06a2.13,2.13,0,0,0,2.31.15c1.78-.87,2.08-3.65.49-4.47-.2-.1-.34-.3-.28-.4s0-.06.34.08m5.26.07.76.44A4.67,4.67,0,0,0,26.83,14l.18-.14.29.16c.41.23.43.2-.78.88l-1.36.76-1.89,1.06-2,1.11-1.79,1-2.37,1.34c-.5.29-.92.52-.93.51l-.1-.16a2.33,2.33,0,0,0-.6-.42c-.48-.26-.58-.37-.35-.37a3.91,3.91,0,0,0,1.93-1.5,14.3,14.3,0,0,0,1.18-3c0-.23,0-.22,1.17-.86s1-.61,1.48-.37m-9.56.14c0,.1-.24.23-.43.23s.13-.25.26-.3.17,0,.17.07m4.69.59a2.67,2.67,0,0,1-1.58,4.12,2,2,0,0,1-2.21-2.66c.09-.33.08-.34.43.29.67,1.21,1.06,1.36,2.05.83s1.1-.86.82-2.17c-.1-.45-.17-.84-.17-.86s.48.25.66.45m11.88-.26c0,.16-.06.27-.32.4l-2,1.1c-10.42,5.89-9.94,5.63-10,5.38a.32.32,0,0,1,0-.19c0-.05,2.19-1.3,3.81-2.19l1.74-1,1.74-1,2.3-1.29,2-1.11c.54-.31.72-.34.75-.13m-7.8.33c-.32.17-.38.34-.19.53s.84,0,.84-.33-.29-.38-.64-.19m.5,0c.2.14-.4.46-.67.35s.2-.41.51-.42a.35.35,0,0,1,.16.07M6.14,15c.15.05.83.4,1.51.77l1.64.89c.5.27.5.26,0,.25A2.82,2.82,0,0,0,6.83,18.5c-.14.26-.28.31-.38.13a.23.23,0,0,0-.2-.11A.27.27,0,0,1,6,18.4a.26.26,0,0,0-.19-.11.23.23,0,0,1-.18-.11.23.23,0,0,0-.19-.11A.37.37,0,0,1,5.24,18c-.06-.06-.14-.1-.18-.09s-.13,0-.19-.1a.25.25,0,0,0-.21-.11c-.06,0-.13,0-.2-.12s-.13-.14-.18-.12a.19.19,0,0,1-.18-.08.34.34,0,0,0-.22-.11.23.23,0,0,1-.19-.11.23.23,0,0,0-.2-.11.23.23,0,0,1-.2-.11.23.23,0,0,0-.2-.11c-.78,0,.5-1.5,1.59-1.85A3.92,3.92,0,0,1,6.14,15m6,1a3.15,3.15,0,0,0,.1,1.8c.18.37.19.44,0,.3a2.85,2.85,0,0,1-.14-2.43c.08-.21.07,0,0,.33m9.93-.32c-.57.21-.5.73.08.6.35-.08.5-.21.5-.42s-.26-.29-.57-.18m.4,0c.12.08,0,.21-.21.34s-.36.14-.45,0,.43-.52.67-.37m-8.27.09a.56.56,0,0,0-.15.83.52.52,0,0,0,.87-.43.45.45,0,0,0-.72-.4m.46.21c.11.16.11.29,0,.25s-.08,0-.08,0,0,.05.08.05.08,0,.08.05-.1.12-.14.06-.14-.07-.11,0-.13.17-.29.06-.18-.3,0-.5a.28.28,0,0,1,.47,0M10,17.36c.55.19,2,1.33,1.84,1.47a8.62,8.62,0,0,1-1.09-.55l-1.43-.78A1.48,1.48,0,0,1,9,17.27c0-.09.68,0,1.05.09m9.16,0c-.42.19-.38.56.06.56s.77-.33.56-.56-.32-.14-.62,0m.51,0c.13.05,0,.24-.22.34s-.36.1-.47,0,.41-.47.69-.36m-10.08.47.67.37,1.6.87c1.36.75,1.49.8,2.35.81h.7l.43.24c.55.31.58.35.14.25A18.23,18.23,0,0,0,13.28,20c-.41,0-.83.31-.84.61s-.13.14-.9-.29l-1.81-1c-1.48-.8-1.5-.81-1.46-1a1.24,1.24,0,0,1,.61-.58,2.06,2.06,0,0,1,.74.07m14.52,1.33c.19.39.59,1.15.89,1.69,1.59,2.92,2.92,5.79,2.84,6.17-.15.81-1.68,1.78-2.79,1.78-1.47,0-2.14-.85-3.05-3.89a4.74,4.74,0,0,0-1.58-2.77c-.69-.43-.2-1.73.94-2.53a20.58,20.58,0,0,1,2.32-1.17c.05,0,.22.27.43.71M14.4,20.26c.55.09,1,.19,1.55.31.18,0,.16.2,0,.2a6.67,6.67,0,0,1-.77-.14,16.87,16.87,0,0,0-2-.31c-.17,0-.48.26-.48.4a.1.1,0,0,1-.08.11c-.12,0-.1-.23,0-.4.28-.34.53-.36,1.78-.15m7.62,0a.32.32,0,0,0-.09.29c0,.15,0,.16,0,.06s-.05-.08,0,.06c.07.36.7.54.7.19a.1.1,0,0,1,.08-.11c.06,0,.08-.06.08-.19a.43.43,0,0,0-.72-.3m.56.05c.14.07.16.41,0,.35s-.08,0-.08,0,0,.05-.09,0-.09,0,0,.07.07.18-.09.18-.42-.32-.26-.42,0-.05,0-.08-.06-.06,0-.08.1,0,.18.05.26.12.12,0,0-.27.25-.15M15,20.65c1,.21,1,.18.75.36s-.18.18-.18.22,0,.08,0,.08-1.39-.73-1.45-.79-.06-.07.91.13m10,5.57c-.09.1-.11.16-.07.17a.15.15,0,0,1,.07.14c0,.09,0,.1-.08,0s-.07,0,0,.06a.43.43,0,0,0,.81.09c.05-.1,0-.1-.08,0s-.37.21-.37.11a.88.88,0,0,1,.19-.23c.11-.1.18-.22.16-.25s0,0,.06,0,.09.11.09,0c0-.33-.5-.47-.73-.21m.24,0c.07-.07.27-.1.27,0a1.34,1.34,0,0,1-.41.41s0-.08,0-.17,0-.16,0-.14,0,0,0-.06,0-.08.08,0,.06.06.12,0" style="fill:#00456a"/></g></svg>