<svg xmlns="http://www.w3.org/2000/svg" viewBox="0 0 32 32"><title>file_type_api_extractor</title><path d="M28.1,10.107,21.059,6.159A5.219,5.219,0,0,0,11.2,6.013L3.9,10.107a.576.576,0,0,0-.3.5v9.1a.577.577,0,0,0,.3.5l3.921,2.2a.613.613,0,0,0,.3.078.6.6,0,0,0,.517-.291l1.032-1.734a.572.572,0,0,0-.2-.783,4.224,4.224,0,0,1-1.247-5.863,4.694,4.694,0,0,1,3.99-2.331,4.085,4.085,0,0,1,.708.06,5.283,5.283,0,0,0,6.422-.036,4.235,4.235,0,0,1,.452-.024,4.694,4.694,0,0,1,3.99,2.331,4.224,4.224,0,0,1-1.247,5.863.572.572,0,0,0-.2.783L23.364,22.2a.6.6,0,0,0,.518.291.616.616,0,0,0,.3-.078l3.921-2.2a.577.577,0,0,0,.3-.5v-9.1A.576.576,0,0,0,28.1,10.107Z" style="fill:#acc5e7"/><path d="M28.4,9.6,21.555,5.767a5.828,5.828,0,0,0-10.844-.149L3.6,9.6A1.155,1.155,0,0,0,3,10.609v9.1a1.155,1.155,0,0,0,.6,1.006l3.921,2.2a1.216,1.216,0,0,0,1.634-.424h0l1.032-1.735a1.142,1.142,0,0,0-.4-1.565,3.657,3.657,0,0,1-1.047-5.081,4.094,4.094,0,0,1,3.473-2.04,3.436,3.436,0,0,1,.465.03,5.9,5.9,0,0,0,6.9-.024c.073,0,.146-.007.219-.006a4.094,4.094,0,0,1,3.473,2.04,3.658,3.658,0,0,1-1.047,5.081,1.142,1.142,0,0,0-.4,1.565l1.032,1.735a1.215,1.215,0,0,0,1.633.425h0l3.922-2.2a1.155,1.155,0,0,0,.6-1.006v-9.1A1.155,1.155,0,0,0,28.4,9.6ZM7.7,13.527a4.813,4.813,0,0,0,1.448,6.646L8.117,21.907,4.2,19.709v-9.1l6.162-3.453c-.012.146-.019.293-.019.442A5.466,5.466,0,0,0,11.5,10.965,5.274,5.274,0,0,0,7.7,13.527ZM19.09,10.959a4.623,4.623,0,0,1-2.476,1.049,4.732,4.732,0,0,1-.508.028,4.68,4.68,0,0,1-.705-.053,4.616,4.616,0,0,1-2.221-.976,4.346,4.346,0,0,1-.709-6.1A4.655,4.655,0,0,1,19.736,4.9a4.364,4.364,0,0,1,.81,1.64A4.285,4.285,0,0,1,20.678,7.6,4.374,4.374,0,0,1,19.09,10.959Zm8.714,8.75-3.922,2.2-1.031-1.734A4.813,4.813,0,0,0,24.3,13.527,5.262,5.262,0,0,0,20.687,11a5.468,5.468,0,0,0,1.187-3.4c0-.106,0-.212-.01-.318l5.94,3.329Z" style="fill:#5686ba"/><path d="M17.158,29.12H15.889l.17-1.576-1.524.918-.612-.887,1.705-.659-1.7-.658.612-.887,1.524.918-.17-1.577h1.269l-.176,1.577,1.529-.918.607.887-1.7.658,1.7.659-.607.887-1.529-.918Z" style="fill:#69bf62"/><path d="M23.992,29.12H22.723l.17-1.576-1.523.918-.613-.887,1.7-.659-1.7-.658.613-.887,1.523.918-.17-1.577h1.269l-.176,1.577,1.53-.918.607.887-1.7.658,1.7.659-.607.887-1.53-.918Z" style="fill:#69bf62"/><path d="M9.357,30H7.919l4.236-8.306H13.6Z" style="fill:#69bf62"/></svg>