<svg xmlns="http://www.w3.org/2000/svg" viewBox="0 0 32 32"><title>file_type_coverage</title><path fill="#ffebe3" d="M2.44 2h27.11v28H2.44z"/><path fill="#f20" d="M2.89 2.45v12.44H10V2.45H2.89zm18.44 6.78v4.18h4.19V9.23h-4.19zm0 10.73v2.52h4.19v-2.52h-4.19zm4.55 0v2.52h3.17v-2.52h-3.17zm-15.35 2.62v6.93h7.32v-6.93h-7.32zm10.8.3v3.18h3.18v-3.17h-3.18z"/><path fill="#00a302" d="M10.53 2.45V22.1h10.21V2.45H10.53zm15.35 6.78v4.18h3.17V9.23h-3.17zM21.33 14v5.66h7.72V14h-7.72zm-3.17 8.57v5.66h2.58v-5.66h-2.58zm6.6.3v4.2h4.3v-4.2h-4.3zm-3.43 3.58v1.78h3.18v-1.78h-3.18zm4.8.9v2.11h2.78v-2.12h-2.77z"/><path fill="#f9ff16" d="M21.33 2.45v6.22h7.72V2.45h-7.72zm-18.44 13V29.5H10V15.45H2.89zM24.77 27.3v.93h1.1v-.93h-1.1zm-6.61 1.27v.93h7.72v-.93h-7.72z"/></svg>