<svg xmlns="http://www.w3.org/2000/svg" viewBox="0 0 32 32"><title>file_type_light_objidconfig</title><path d="M6.337,3.126A3.4,3.4,0,0,0,6.146,4.9c.045.387.383.926.383,1.281a11.26,11.26,0,0,0-1.293-.4,6.425,6.425,0,0,0-1.473-.174c-.309,0-1.079-.081-1.337.141-.315.272-.12.439.128.776A5.947,5.947,0,0,0,6.228,8.815a13.113,13.113,0,0,0-.082,14.43,12.905,12.905,0,0,0,23.578-5.936,12.967,12.967,0,0,0-7.67-13.071,13.187,13.187,0,0,0-8.306-.687,12.623,12.623,0,0,0-3.163,1.264c-.279.155-1.4,1.076-1.616.967a7.916,7.916,0,0,1-.357-.859,4.231,4.231,0,0,0-.72-.932C7.7,3.8,6.54,2.8,6.337,3.126M7.709,14.074a76.3,76.3,0,0,0,11.11.67c1.761-.046,3.519-.18,5.271-.366a22.36,22.36,0,0,1,2.71-.322c.623.014.686.357.74.976.263,3.024-3.83,4.3-6.11,4.712a24.5,24.5,0,0,1-9.8-.259,7.691,7.691,0,0,1-4.494-2.534,2.758,2.758,0,0,1-.567-1.988c.1-.946.258-1,1.14-.89m2.423,1.318c-.282.456.084,1.467.331,1.86a2.429,2.429,0,0,0,1.389,1.038,2.4,2.4,0,0,0,1.652-.131c.37-.172,1.46-.979,1.305-1.509a16.333,16.333,0,0,1-2.472-.21,15.591,15.591,0,0,1-2.2-1.048m13.146.1a6.353,6.353,0,0,1-3.685,1.174c-.336,0-.694-.138-.743.151s.648.923.853,1.077a2.476,2.476,0,0,0,2.932-.042,2.362,2.362,0,0,0,.873-1.274c.067-.254.217-1.411-.23-1.086" style="fill:#242424"/><path d="M6.889,13.994c-.433.242-.381,1.441-.3,1.836A3.409,3.409,0,0,0,7.515,17.4a8.78,8.78,0,0,0,4.421,2.156A23.247,23.247,0,0,0,22.6,19.479c2.1-.553,5.367-1.96,4.9-4.683-.106-.625-.222-.778-.853-.722-1.153.1-2.3.283-3.453.394-1.883.181-3.773.29-5.666.3-2.2.006-4.4-.13-6.6-.339-.84-.08-1.68-.171-2.519-.266-.286-.033-1.253-.319-1.53-.164m3.679,1.633a6.311,6.311,0,0,0,2.239.927c.182.037,2.006.119,2,.1.167.57-.985,1.377-1.407,1.551a2.405,2.405,0,0,1-3.175-1.439,2.127,2.127,0,0,1-.12-1.181c.134-.29.1-.2.463.045m12.979,0c.407,2.451-2.851,3.625-4.32,1.79-.182-.228-.5-.579-.311-.772a9.13,9.13,0,0,1,1.384-.008,6.185,6.185,0,0,0,1.9-.52c.333-.15,1.267-.964,1.346-.491" style="fill:#04b3c3"/></svg>