<svg id="Layer_1" data-name="Layer 1" xmlns="http://www.w3.org/2000/svg" viewBox="0 0 32 32"><path d="M16,2.25a13.79,13.79,0,0,1,0,27.58A13.71,13.71,0,0,1,2.34,16,13.71,13.71,0,0,1,16,2.25" style="fill:#5e464d"/><path d="M11.68,28.27c.55.19,2.43.8,2.51.21,0-.33-.94-.67-2.28-1.37a21.58,21.58,0,0,1-5.17-3.82,11.87,11.87,0,0,1-3.55-8.24,11.7,11.7,0,0,1,4.2-9.72A13.74,13.74,0,0,0,2,15.88a12.87,12.87,0,0,0,2.35,7.87A9.12,9.12,0,0,0,6.1,25.44a21.25,21.25,0,0,0,5.58,2.83" style="fill:#fff"/><path d="M29.85,12.87c-.85-4-3.47-6.76-7-8.72,2.69,1.91,6.47,6,4.24,9.57-1.89,2.87-6.49,2.31-9,.95-3-1.63-6.72-5.27-3-8.84,2.38-2.3,10,.28,8.65,3.73-.78,2-3.82,1.56-5.19.58a3,3,0,0,1-1.4-3.25c.14-.42.12-1-.46-.58a2.33,2.33,0,0,0-.73,1.46c-.63,4.5,7.37,8,9.75,3.63,1.23-2.25-.77-5.53-3.28-6.87A11.12,11.12,0,0,0,16.14,3c-3.86.28-7.09,2.69-7.49,6.63s2.21,7.44,5.29,9.55c3.24,2.22,7.6,3.67,11.58,2.35,3.58-1.18,5.05-5.28,4.33-8.63" style="fill:#fff"/><path d="M24.76,9.84c.38-2.58-2-4.35-4.1-5.15-2.53-1-5.88-.53-7.73,1.57-1.36,1.54-1.26,3.78-.57,5.59a9.56,9.56,0,0,0,6.2,5.57,11,11,0,0,0,6.34.23c2.91-.94,3.85-4,3.25-6.74a8.11,8.11,0,0,0-.59-1.74c-.36-.77-1.49-2.33.06-.43a7.66,7.66,0,0,1,.45.66,7.24,7.24,0,0,1,.75,1.68,6.21,6.21,0,0,1-2.16,7.18,8.88,8.88,0,0,1-6.17,1,11.66,11.66,0,0,1-7.26-3.93c-1.67-2-2.81-4.82-2.12-7.43A5.8,5.8,0,0,1,15,4a8.71,8.71,0,0,1,7,.82,6.36,6.36,0,0,1,2.56,2.58A4,4,0,0,1,25,9a3,3,0,0,1,0,.67c0,.08-.19.31-.16.12" style="fill:#3fe0c5"/></svg>