<svg xmlns="http://www.w3.org/2000/svg" viewBox="0 0 32 32"><title>file_type_dartlang</title><path d="M9.715,9.623,7.9,7.813l.008,13.081.022.611a4.314,4.314,0,0,0,.151.949l14.34,5.056,3.584-1.588v0l-16.3-16.3" style="fill:#00d2b8"/><path d="M8.086,22.455h0a.134.134,0,0,1,0-.019.05.05,0,0,0,0,.018ZM26.01,25.923l-3.584,1.588L8.087,22.456a6.844,6.844,0,0,0,1.533,2.878l4.68,4.653L24.7,30l1.307-4.081v0Z" style="fill:#55ddca"/><path d="M2.332,16.231c-.463.495-.233,1.515.513,2.266l3.218,3.244,2.023.712a4.314,4.314,0,0,1-.151-.949l-.022-.611L7.9,7.813Z" style="fill:#0081c6"/><path d="M22.543,7.981a4.479,4.479,0,0,0-.952-.148l-.646-.022-13.04,0L26.013,25.919h0l1.59-3.588L22.543,7.981" style="fill:#0079b3"/><path d="M22.527,7.978l.017,0h0l-.016,0Zm2.893,1.54a6.75,6.75,0,0,0-2.876-1.536L27.6,22.331l-1.59,3.588h0L29.9,24.677l.008-10.655-4.488-4.5Z" style="fill:#00a4e4"/><path d="M21.834,5.97,18.591,2.75c-.75-.743-1.771-.974-2.264-.512L7.9,7.812l13.04,0,.646.022a4.479,4.479,0,0,1,.952.148L21.834,5.97Z" style="fill:#00d2b8"/></svg>