<svg xmlns="http://www.w3.org/2000/svg" viewBox="0 0 32 32"><title>file_type_tox</title><path d="M21.68 27.41c-.078-.083-.145-.223-.235-.24-2.108-.405-4.187-.962-6.326-1.194L15.826 30h2.144c.08-.214.292-.1.429-.176z" style="fill:#769788"/><path d="M15.119 25.976q-.009-.071-.015-.141c-1.86.009-3.713-.126-5.564-.286l-.013-.006c1.1 1.006 2.186 2.021 3.3 3.013a8 8 0 0 1 1.287 1.316.4.4 0 0 1 0 .128h1.715l-.707-4.024Z" style="fill:#8ba97b"/><path d="M30 15.335a.5.5 0 0 0-.037-.119q-2.682-.865-5.363-1.733c-1.027-.336-1.024-.342-.4-1.2l3.2-4.388a4.4 4.4 0 0 0-.969-1.181c-2.456.814-4.943 1.517-7.442 2.178l-.037-.009.018.148c1.59 1.3 3.092 2.707 4.553 4.153q-.229 2.184-.46 4.367c-.081.751-.168 1.5-.252 2.253h.028c2.371-.914 4.7-1.931 7.112-2.743l.049-.256z" style="fill:#555f61"/><path d="M10.819 8.455a1.38 1.38 0 0 0 .9.143 50 50 0 0 1 5.19.206 11.7 11.7 0 0 1 2.045.081l.037.009q-.579-2.155-1.156-4.312a16 16 0 0 1-.751-1.682.95.95 0 0 0-1.149-.767 6 6 0 0 1-.848-.015q.096-.019.2-.034a2 2 0 0 0-.2.034.13.13 0 0 0-.115.025l-3.78 5.709c-.131.194-.249.4-.373.603" style="fill:#7e813d"/><path d="m10.666 8.609.153-.154c.124-.2.242-.409.373-.607q1.889-2.856 3.78-5.709a7.2 7.2 0 0 0-2.3.293A13.08 13.08 0 0 0 5.5 6.859l5.162 1.75Z" style="fill:#abb130"/><path d="M6.963 14.968c.117.283.277.547.417.82l3-6.484c.089-.192.2-.373.3-.559a1 1 0 0 0-.016-.136L5.5 6.859a6 6 0 0 0-1.235 1.6z" style="fill:#c2ca37"/><path d="M26.005 22.915c-1.02-1.03-2.057-2.041-3.16-2.981a26 26 0 0 0-.437 3.175c-.176 1.273-.3 2.554-.445 3.832a.58.58 0 0 1-.283.469l-3.28 2.414a13.8 13.8 0 0 0 5.057-1.953 11.7 11.7 0 0 0 3.94-3.746 5.5 5.5 0 0 1-1.392-1.21" style="fill:#587789"/><path d="m9.527 25.543.013.006-.01-.143c-.623-2.251-1.033-4.551-1.56-6.823-.205-.881-.374-1.77-.559-2.656H7.38l-.121.009c-.374 1.388-1.022 2.671-1.522 4.01-.359.961-.779 1.9-1.165 2.851-.1.243-.151.511-.444.606A9.4 9.4 0 0 0 5.95 25.7c1.197.063 2.383-.131 3.577-.157" style="fill:#bcd05f"/><path d="M22.845 19.933c1.1.94 2.14 1.951 3.16 2.981a5.5 5.5 0 0 0 1.391 1.21 12.04 12.04 0 0 0 2.555-7.065c-2.41.812-4.741 1.829-7.112 2.743a1 1 0 0 0 .006.131" style="fill:#2e4880"/><path d="M24.6 13.483q2.679.873 5.363 1.733A12.52 12.52 0 0 0 27.4 7.9l-3.2 4.388c-.629.853-.632.859.4 1.195" style="fill:#364673"/><path d="M4.572 22.794c.386-.952.806-1.89 1.165-2.851.5-1.339 1.148-2.622 1.522-4.01L2 15.927A13.5 13.5 0 0 0 4.128 23.4c.293-.095.346-.363.444-.606" style="fill:#d4e64e"/><path d="m7.259 15.933.121-.009a1 1 0 0 0 0-.136c-.14-.273-.3-.537-.417-.82q-1.355-3.25-2.694-6.507A13.4 13.4 0 0 0 2 15.927Z" style="fill:#d5e238"/><path d="m17.833 4.582 1.156 4.312c2.5-.661 4.986-1.364 7.442-2.178a4.2 4.2 0 0 0-1.16-1.137l-5.753-.788c-.561-.076-1.118-.14-1.685-.209" style="fill:#5a614f"/><path d="M15.935 2.129a.95.95 0 0 1 1.149.767 16 16 0 0 0 .749 1.686c.562.069 1.124.133 1.685.209q2.877.39 5.753.788a12.07 12.07 0 0 0-5.92-3.141 10.7 10.7 0 0 0-4.068-.358q-.098.016-.2.034a6 6 0 0 0 .852.015" style="fill:#656945"/><path d="M12.823 28.556c-1.11-.992-2.2-2.007-3.3-3.013-1.194.026-2.38.22-3.577.161a13.45 13.45 0 0 0 8.16 4.168 8 8 0 0 0-1.283-1.316" style="fill:#9fb96e"/><path d="M22.688 19.8a10.5 10.5 0 0 1-2.028 1.668c-1.707 1.364-3.439 2.7-5.165 4.037a2 2 0 0 1-.378.186q-.002.07-.013.141.006.071.015.141c2.139.232 4.218.789 6.326 1.194.09.017.157.157.235.24a.58.58 0 0 0 .283-.469c.143-1.278.269-2.559.445-3.832a26 26 0 0 1 .437-3.175 1 1 0 0 1-.006-.13h-.028Z" style="fill:#6e897c"/><path d="M15.117 25.694a1.4 1.4 0 0 1-.146-.694c.1-2.342-.217-4.676-.136-7.016.039-1.128-.189-2.236-.159-3.359a41 41 0 0 0-1.912 3.919c-1.114 2.269-2.16 4.573-3.234 6.862l.01.143c1.851.16 3.7.3 5.564.286q.009-.07.013-.141" style="fill:#899f66"/><path d="M16.613 14.156c-.562.083-1.2-.047-1.642.474l7.084 4.709c.218.144.422.309.633.464h.123c.084-.751.171-1.5.252-2.253q.233-2.184.46-4.367c-2.304.324-4.609.633-6.91.973" style="fill:#647665"/><path d="M18.952 8.885a11.7 11.7 0 0 0-2.045-.085 50 50 0 0 0-5.19-.206 1.38 1.38 0 0 1-.9-.143l-.153.154a1 1 0 0 1 .016.136 32 32 0 0 1 2.241 3.1c.609.816 1.174 1.665 1.758 2.5 1.056-1.1 1.879-2.385 2.842-3.558q.722-.879 1.447-1.755l-.018-.148Z" style="fill:#869048"/><path d="M17.523 10.788c-.963 1.173-1.786 2.46-2.842 3.558l-.016.148h.033l.273.141c.443-.521 1.08-.391 1.642-.474 2.3-.34 4.606-.649 6.91-.97-1.461-1.446-2.963-2.848-4.553-4.153z" style="fill:#727f5f"/><path d="m14.665 14.494.016-.148c-.584-.834-1.149-1.683-1.758-2.5a32 32 0 0 0-2.241-3.1c-.1.186-.213.367-.3.559l-3 6.484a1 1 0 0 1 0 .136h.031Z" style="fill:#a5b14b"/><path d="M12.764 18.544a41 41 0 0 1 1.912-3.919q.01-.069.022-.136h-.033l-7.254 1.438c.185.886.354 1.775.559 2.656.527 2.272.937 4.572 1.56 6.823 1.07-2.289 2.12-4.593 3.234-6.862M14.698 14.489" style="fill:#a4b558"/><path d="M14.676 14.625c-.03 1.123.2 2.231.159 3.359-.081 2.34.237 4.674.136 7.016a1.4 1.4 0 0 0 .145.694 2 2 0 0 0 .378-.186c1.726-1.34 3.458-2.673 5.165-4.037a10.5 10.5 0 0 0 2.029-1.671c-.211-.155-.415-.32-.633-.464q-3.54-2.358-7.084-4.709l-.273-.141q-.012.071-.022.139" style="fill:#7b916e"/></svg>