<svg xmlns="http://www.w3.org/2000/svg" viewBox="0 0 32 32"><title>file_type_blade</title><path d="M24.851,15.957l-2.393-3.284c-.067-.095-.123-.19.045-.212s2.887-.514,3.01-.542.229-.061.38.145,2.22,2.826,2.3,2.926-.056.162-.235.2S24.851,15.957,24.851,15.957Zm2.511,5.165c-.23.084-7.748,2.621-7.894,2.684s-.261.084-.449-.188-2.634-4.5-2.634-4.5l7.97-2.074c.2-.063.261-.1.386.094s2.631,3.6,2.7,3.717S27.591,21.039,27.361,21.122ZM9.618,19.6c-.244.056-.244.028-.272-.056S3.9,8.3,3.827,8.159s-.071-.25,0-.25,4.323-.38,4.474-.388.135.024.19.119l6.1,10.534c.1.181.042.237-.056.258S9.862,19.548,9.618,19.6Zm16.693-8.03c-.436-.525-.648-.43-.916-.391s-3.4.564-3.758.625-.592.207-.369.519c.2.278,2.255,3.193,2.707,3.835L15.8,18.12,9.3,7.253c-.259-.384-.313-.518-.9-.491s-5.1.4-5.42.428-.674.17-.353.928,5.444,11.8,5.586,12.118a1.1,1.1,0,0,0,1.383.634c.89-.214,3.978-1.02,5.666-1.462.892,1.615,2.71,4.89,3.046,5.359.449.627.758.523,1.447.314.538-.163,8.42-3,8.775-3.144s.574-.251.334-.606c-.177-.261-2.256-3.047-3.345-4.5.746-.2,3.4-.9,3.681-.981.329-.089.374-.251.2-.452S26.746,12.1,26.311,11.573Z" style="fill:#fb503b;stroke:#fb503b;stroke-width:0.25px"/></svg>