<svg xmlns="http://www.w3.org/2000/svg" viewBox="0 0 32 32"><path fill="#0095ff" d="M18.95 16.87a.5.5 0 0 0-.44.75l3.9 6.75c.19.34.68.34.86 0l3.87-6.75a.5.5 0 0 0-.44-.75h-1.2c-.34 0-.58.35-.54.7q.07.56-.14 1.04c-.32.7-1.07 1.03-2 1.03s-1.68-.34-2.01-1.03q-.22-.48-.15-1.04c.05-.35-.19-.7-.54-.7zm2.68.28a.5.5 0 0 1 .43-.28h1.53q.32 0 .44.28.25.74.05 1.11c-.13.3-.5.56-1.26.56s-1.12-.26-1.26-.56c-.11-.24-.13-.62.06-1.1"/><path fill="#05e3fc" d="M20.1 12.55a.5.5 0 0 0 .02.52c.33.41.66.58.93.61.32.03.73-.15 1.11-.8s.34-1.1.15-1.37c-.16-.23-.48-.43-1-.5a.5.5 0 0 0-.47.23zm3.18-4.01a.5.5 0 0 0-.87 0l-.58 1.02c-.18.3.01.7.33.83q.53.22.83.64c.45.63.36 1.44-.1 2.25s-1.14 1.3-1.9 1.22a2 2 0 0 1-.98-.4c-.28-.2-.7-.17-.88.13l-.62 1.07a.5.5 0 0 0 .44.75h2.56a.4.4 0 0 1 .36.6c-.42.75-.45 1.29-.3 1.61.14.3.5.56 1.26.56s1.13-.26 1.27-.56c.15-.32.12-.86-.3-1.6a.4.4 0 0 1 .36-.61h2.57a.5.5 0 0 0 .43-.75z"/><g fill="url(#a)" transform="translate(2 7.37)scale(.07165)"><path d="M144 237a7 7 0 0 1-12 0L1 11C-2 6 2 0 7 0h262c5 0 9 6 6 11l-18 31a5.7 5.7 0 0 0 4.9 8.5c11.8.1 18.6 3.6 21.5 7.6 2.6 3.7 3.3 9.9-2 19.1s-11 11.7-15.5 11.3c-5-.4-11.4-4.5-17.3-14.7a5.7 5.7 0 0 0-9.9 0z"/><path d="m1 11 131 226.8c2.7 4.7 9.4 4.7 12.1 0l94.7-164a5.7 5.7 0 0 1 9.9 0c6 10.2 12.4 14.3 17.3 14.8 4.5.4 10.2-2.1 15.5-11.3s4.7-15.4 2-19.1c-2.8-4.1-9.6-7.5-21.4-7.6a5.7 5.7 0 0 1-4.9-8.6l17.9-31A7 7 0 0 0 269 0h-92.2c-4.9 0-8.2 4.9-7.6 9.8.6 5.2 0 10.1-2 14.5-4.5 9.7-14.9 14.4-28 14.4-13 0-23.4-4.7-28-14.4-2-4.4-2.6-9.3-2-14.5.6-4.9-2.7-9.8-7.6-9.8H7C1.6 0-1.7 5.8 1 11"/></g><path fill="#f70" d="m2.06 8.12 9.4 16.25a.5.5 0 0 0 .86 0l.83-1.43-9-15.57H2.5a.5.5 0 0 0-.44.75"/><path fill="#04a3ff" d="M27.16 11.3a.5.5 0 0 1-.43-.75l1.16-2.02a.5.5 0 0 1 .87 0l1.17 2.02a.5.5 0 0 1-.44.75zm1.57 3.59a.5.5 0 0 1-.86 0l-1.15-2.02a.5.5 0 0 1 .44-.75h2.33a.5.5 0 0 1 .43.76z"/><defs><linearGradient id="a" x1="206.5" x2="144.9" y1=".4" y2="223.5" gradientUnits="userSpaceOnUse"><stop stop-color="#ff5242"/><stop offset="1" stop-color="#fd0"/></linearGradient></defs></svg>