<?xml version="1.0" encoding="UTF-8" standalone="no"?>
<svg
   width="37.35751"
   height="38"
   viewBox="0 0 37.35751 38"
   fill="none"
   version="1.1"
   id="svg88"
   sodipodi:docname="circom.svg"
   inkscape:version="1.2.2 (b0a8486541, 2022-12-01)"
   xmlns:inkscape="http://www.inkscape.org/namespaces/inkscape"
   xmlns:sodipodi="http://sodipodi.sourceforge.net/DTD/sodipodi-0.dtd"
   xmlns="http://www.w3.org/2000/svg"
   xmlns:svg="http://www.w3.org/2000/svg">
  <sodipodi:namedview
     id="namedview90"
     pagecolor="#ffffff"
     bordercolor="#000000"
     borderopacity="0.25"
     inkscape:showpageshadow="2"
     inkscape:pageopacity="0.0"
     inkscape:pagecheckerboard="0"
     inkscape:deskcolor="#d1d1d1"
     showgrid="false"
     inkscape:zoom="6.21"
     inkscape:cx="86.47343"
     inkscape:cy="19.00161"
     inkscape:window-width="1920"
     inkscape:window-height="1176"
     inkscape:window-x="0"
     inkscape:window-y="0"
     inkscape:window-maximized="1"
     inkscape:current-layer="svg88" />
  <path
     fill-rule="evenodd"
     clip-rule="evenodd"
     d="m 13.283027,27.455197 c 0.05045,0.0051 0.09712,0.02317 0.136808,0.05071 l 0.03432,0.02343 c 1.51381,1.023133 3.334814,1.619926 5.293903,1.619926 4.427458,0 8.14919,-3.047703 9.21564,-7.176697 0.123711,-0.568384 0.625672,-0.993984 1.226227,-0.993984 l -0.005,-1.34e-4 h 1.803208 l 0.02882,0.0017 c 0.14856,0.01518 0.264481,0.141709 0.264481,0.295575 l 0.0023,6.8e-5 -0.0035,0.02533 c -0.001,0.01223 -0.0028,0.02418 -0.0052,0.03592 l 0.0086,-0.06125 c -0.837728,6.228491 -6.130826,11.029096 -12.535574,11.029096 -3.789093,0 -7.189121,-1.680235 -9.5077226,-4.342299 -0.054336,-0.054 -0.087982,-0.128882 -0.087982,-0.21176 0,-0.164073 0.1319048,-0.29712 0.2945687,-0.29712 l -0.00293,2.03e-4 2.016e-4,-2.03e-4 h 3.8091073 z m -7.0877148,-6.312604 3.1614791,6.8e-5 C 9.544641,22.273788 9.9283994,23.33782 10.4718,24.298157 l -3.4676405,1.34e-4 C 6.607527,23.302359 6.3318036,22.244304 6.1953122,21.142593 Z M 18.748058,6.7836258 c 3.738655,0 7.098522,1.6357749 9.41457,4.2364722 l 0.01436,0.01589 c 0.04198,0.05137 0.06723,0.117203 0.06723,0.189 0,0.164087 -0.131838,0.297113 -0.294569,0.297113 l 0.0014,-2.09e-4 -0.0014,2.09e-4 -3.871164,-4.43e-4 -0.0048,4.43e-4 c -0.06313,0 -0.121628,-0.02005 -0.169581,-0.05416 l -0.03383,-0.02227 c -1.479007,-0.953687 -3.236613,-1.5064834 -5.122226,-1.5064834 -4.372387,0 -8.056507,2.9723944 -9.1746051,7.0231604 l -0.00396,6.7e-5 c -0.1114913,0.583631 -0.6205718,1.024542 -1.2317448,1.024542 l 0.00396,-2.69e-4 -1.8143221,2.69e-4 c -0.1626846,0 -0.2945621,-0.133046 -0.2945621,-0.29712 0,-1.35e-4 0,-2.01e-4 0,-2.69e-4 h -0.00314 C 7.1201331,11.52108 12.385621,6.7836258 18.748058,6.7836258 Z M 30.44644,14.677334 c 0.40599,0.991835 0.691693,2.0466 0.838573,3.145689 l -3.166779,1.35e-4 C 27.915609,16.693577 27.517143,15.6327 26.95964,14.677603 Z"
     fill="#ffffff"
     id="path63"
     style="fill:#999999;stroke-width:0.671611" />
  <path
     d="m 12.323632,21.142326 6.7e-5,-3.36e-4 0.02175,-0.0012 c 0.08925,-0.01223 0.158029,-0.08939 0.158029,-0.182744 0,-0.01418 -0.0016,-0.02801 -0.0045,-0.0413 -0.0947,-0.442323 -0.144731,-0.901504 -0.144731,-1.372571 0,-3.561887 2.86274,-6.449431 6.39407,-6.449431 1.568546,0 3.005188,0.569681 4.117643,1.515107 0.0487,0.03626 0.108802,0.05755 0.173881,0.05755 h 12.367038 -1.34e-4 0.0048 c 0.152523,0 0.277913,0.116928 0.293025,0.266764 l 0.0016,0.03036 -6.8e-5,0.005 -3.36e-4,1.574793 4.04e-4,0.01323 c 0,0.681348 -0.53393,1.236906 -1.202721,1.26424 l -0.05172,10e-4 -12.758385,-6.7e-5 -0.02995,-0.0015 c -0.0857,-0.0087 -0.160514,-0.05461 -0.208534,-0.121292 l -4.04e-4,-2.68e-4 c -0.587055,-0.87464 -1.580031,-1.449538 -2.706121,-1.449538 -1.803544,0 -3.265572,1.474722 -3.265572,3.293847 0,1.819192 1.462028,3.293914 3.265572,3.293914 1.224883,0 2.292274,-0.680206 2.851122,-1.686615 0.04634,-0.102219 0.148627,-0.172939 0.267233,-0.172939 l 2.722576,6.6e-5 -1.34e-4,5.37e-4 0.01498,-6.03e-4 c 0.152523,0 0.277979,0.116926 0.293023,0.266763 l 0.0016,0.03036 c 0,0.03835 -0.0071,0.07495 -0.02029,0.1086 l 0.0056,-0.02015 -0.02465,0.08375 c -0.805195,2.632713 -3.236627,4.545797 -6.111053,4.545797 -1.627178,0 -3.112378,-0.613046 -4.241021,-1.622679 h -9.18e-4 c -0.05151,-0.04486 -0.118472,-0.072 -0.191744,-0.072 l -6.7e-5,-0.0011 -12.225001,1.35e-4 -2.317e-4,-4.03e-4 -0.00419,4.7e-4 c -0.1525161,0 -0.2779597,-0.116928 -0.2930443,-0.266697 l -0.00152,-0.03043 v -1.598231 l 0.00105,-0.04709 c 0.027028,-0.674543 0.5778166,-1.213108 1.2533058,-1.213108 z"
     fill="url(#paint0_linear_2_107)"
     id="path65"
     style="fill:url(#paint0_linear_2_107);stroke-width:0.671611" />
  <defs
     id="defs86">
    <linearGradient
       id="paint0_linear_2_107"
       x1="17.5"
       y1="1.5"
       x2="15.8795"
       y2="33.787498"
       gradientUnits="userSpaceOnUse"
       gradientTransform="matrix(0.67161065,0,0,0.67161065,1.7904933,6.7836258)">
      <stop
         stop-color="#C6C6C6"
         id="stop81" />
      <stop
         offset="1"
         stop-color="#4E4E4E"
         id="stop83" />
    </linearGradient>
  </defs>
</svg>
