<svg xmlns="http://www.w3.org/2000/svg" viewBox="0 0 32 32"><title>file_type_jest</title><g id="jest"><path d="M27.09,15.79a2.61,2.61,0,0,0-2.61-2.61h-.27L27.79,2.64H12.58l3.57,10.55H16a2.61,2.61,0,0,0-.79,5.09,11.38,11.38,0,0,1-2,2.58A10.44,10.44,0,0,1,9.5,23.12a3.32,3.32,0,0,1-1.66-4.23l.23-.54A2.61,2.61,0,1,0,6,17.94a20.13,20.13,0,0,0-1.89,4.79c-.35,2.14,0,4.4,1.85,5.68,4.3,3,9-1.85,13.89-3.06,1.78-.44,3.74-.37,5.31-1.28A4.45,4.45,0,0,0,27.31,21a4.64,4.64,0,0,0-.83-3.52,2.6,2.6,0,0,0,.61-1.67Zm-8.49,0h0a2.6,2.6,0,0,0-1.26-2.23L20.19,7.8,23,13.62a2.6,2.6,0,0,0-1.16,2.17s0,0,0,.06l-3.28,0Z" style="fill:#c63d14"/><path d="M27.73,15.79a3.25,3.25,0,0,0-2.64-3.19L28.68,2h-17l3.6,10.62a3.24,3.24,0,0,0-1,5.92,10.86,10.86,0,0,1-1.57,1.85,9.83,9.83,0,0,1-3.16,2,2.66,2.66,0,0,1-1.13-3.28l0-.09.07-.18a3.24,3.24,0,1,0-3.34-.75l-.34.71a14,14,0,0,0-1.4,3.8c-.46,2.8.28,5,2.11,6.31A5.75,5.75,0,0,0,8.93,30c2.13,0,4.29-1.07,6.4-2.12A23.67,23.67,0,0,1,20,26c.58-.14,1.17-.23,1.8-.32a10,10,0,0,0,3.68-1,5.09,5.09,0,0,0,2.49-3.53,5.25,5.25,0,0,0-.69-3.61,3.22,3.22,0,0,0,.48-1.69Zm-1.27,0a2,2,0,1,1-2-2,2,2,0,0,1,2,2ZM26.9,3.27l-3.17,9.36-.4.12-3.14-6.4L17,12.72a3.2,3.2,0,0,0-.42-.11L13.46,3.27ZM16,13.82a2,2,0,1,1-2,2,2,2,0,0,1,2-2Zm-8.52,0a2,2,0,1,1-2,2,2,2,0,0,1,2-2Zm19.22,7a3.82,3.82,0,0,1-1.87,2.65,8.9,8.9,0,0,1-3.22.87c-.63.09-1.29.19-1.92.34a24.59,24.59,0,0,0-4.9,2c-3.16,1.57-5.9,2.93-8.47,1.14-1.89-1.31-1.8-3.73-1.58-5.05A12.82,12.82,0,0,1,6,19.38l.27-.56a3.21,3.21,0,0,0,.84.21,4,4,0,0,0,2.1,4.66l.24.13.26-.09a11,11,0,0,0,3.88-2.4A12.08,12.08,0,0,0,15.51,19a3.24,3.24,0,0,0,2.64-5.63l2-4.12,2.06,4.2a3.24,3.24,0,0,0,4.09,5,4,4,0,0,1,.36,2.42Z" style="fill:#fff"/></g></svg>