<svg xmlns="http://www.w3.org/2000/svg" viewBox="0 0 32 32"><title>file_type_light_xorg</title><defs><linearGradient id="a" x1="319.21" x2="657.65" y1="235.15" y2="269.49" gradientUnits="userSpaceOnUse"><stop offset="0" stop-color="#e54c18"/><stop offset="1" stop-color="#fec350"/></linearGradient></defs><path fill="#000" d="m4.854 27.775 8.578-11.216L4.601 4.228l5.676.004 7.037 9.697L6.792 27.775zm16.79.007-6.989-9.713L25.264 4.217h1.89l-8.612 11.268 8.778 12.297z"/><path fill="url(#a)" d="M486.41 143.83c-8.851 0-18.307.685-26.82 1.502 15.166 19.78 27.75 36.53 42.233 55.553-8.129-17.493-24.836-34.268-19.06-42.895 5.717-8.54 16.251-7.103 17.053-7.103 16.888 0 33.145 1.908 48.344 5.438l3.563-4.906c-20.271-5.219-42.288-7.59-65.312-7.59zm91.469 15.964-3.281 4.688c46.826 18.337 78.5 53.36 78.5 93.5 0 59.105-68.665 107.06-153.28 107.06-84.616 0-153.31-47.956-153.31-107.06 0-32.189 20.372-61.08 52.594-80.72l-9.906-15.094c-50.546 21.432-84.094 59.05-84.094 101.87 0 66.634 81.222 120.69 181.31 120.69 100.09 0 181.34-54.054 181.34-120.69 0-44.433-36.123-83.292-89.875-104.25z" transform="translate(-21.557 -2.391) scale(.07721)"/></svg>