<svg viewBox="0 0 32 32" xmlns="http://www.w3.org/2000/svg"><path d="m17.229 4a.9.9 0 0 0 -.569.232l-7.6 6.32a1.158 1.158 0 0 1 -.955.328h-4.897a1.2 1.2 0 0 0 -1.208 1.208v7.826a1.2 1.2 0 0 0 1.208 1.206h4.892a1.158 1.158 0 0 1 .955.328l7.6 6.32c.521.433 1.081.224 1.081-.289v-22.957a.494.494 0 0 0 -.507-.522zm9.771 2.3-1.791 1.793a14.708 14.708 0 0 1 0 15.844l1.785 1.776a17.19 17.19 0 0 0 .006-19.413zm-4.333 4.323-1.762 1.777a6.035 6.035 0 0 1 0 7.237l1.756 1.756a8.554 8.554 0 0 0 .01-10.769z" fill="#00007f"/></svg>