<svg viewBox="0 0 32 32" xmlns="http://www.w3.org/2000/svg"><path d="m12.556 13.935.031.029 3.434 2.012 3.449-2.046.022-.026-3.487-1.95zm10.64-2.2h.047l4.726-2.768.031-.045-4.8-2.775zm-7.181-9.735-12.015 7 .04.071 4.754 2.74.064-.011 7.166-4.142 3.466 2.09v-5.741z" fill="#4f859a"/><path d="m4 22.883 4.857 2.875v-13.953l-4.857-2.8zm8.592 5.086 3.432 2.031.046-.115v-5.615l-.046-.1-3.432-1.807zm-.036-14.033v4.057l3.467 1.993.014-.032v-3.996l-.013-.023z" fill="#2e6371"/><path d="m23.2 11.735v8.421l-7.176 4.014v5.83l11.976-7.117v-13.961zm-3.7 2.169-3.468 2.031v4.05l3.468-2z" fill="#1bafce"/></svg>