<svg xmlns="http://www.w3.org/2000/svg" width="16" height="16"><defs><linearGradient id="prefix__a" gradientUnits="userSpaceOnUse" x1="11.328" y1="8.203" x2="90.301" y2="10.761" gradientTransform="matrix(.1724 0 0 .1724 -.62 -.587)"><stop offset="0" stop-color="#69F0AE"/><stop offset="1" stop-color="#4FC3F7"/></linearGradient><linearGradient id="prefix__b" gradientUnits="userSpaceOnUse" x1="11.328" y1="8.203" x2="90.301" y2="10.761" gradientTransform="matrix(.1724 0 0 .1724 -.62 -.587)"><stop offset="0" stop-color="#69F0AE"/><stop offset="1" stop-color="#4FC3F7"/></linearGradient><linearGradient id="prefix__c" gradientUnits="userSpaceOnUse" x1="11.328" y1="8.203" x2="90.301" y2="10.761" gradientTransform="matrix(.1724 0 0 .1724 -.62 -.587)"><stop offset="0" stop-color="#69F0AE"/><stop offset="1" stop-color="#4FC3F7"/></linearGradient></defs><path fill="url(#prefix__a)" d="M8.719 9.668c0-.563.398-1.246.886-1.527l4.176-2.395c.489-.281.887-.055.887.508v4.875c0 .559-.398 1.242-.887 1.523l-4.176 2.399c-.488.281-.886.054-.886-.508zm0 0"/><path fill="url(#prefix__b)" d="M1.332 6.254c0-.563.398-.79.887-.508l4.176 2.395c.488.28.886.964.886 1.527v4.875c0 .562-.398.789-.886.508l-4.176-2.399c-.489-.28-.887-.964-.887-1.527zm0 0"/><path fill="url(#prefix__c)" d="M2.86 4.453c-.489-.281-.489-.738 0-1.016L7.034 1.04c.488-.281 1.281-.281 1.77 0l4.246 2.438c.488.28.488.734 0 1.015L8.875 6.891c-.488.28-1.281.28-1.773 0zm0 0"/></svg>