<svg xmlns="http://www.w3.org/2000/svg" viewBox="0 0 32 32"><defs><linearGradient id="a" x1="16" y1="-182.072" x2="16" y2="-209.928" gradientTransform="matrix(1, 0, 0, -1, 0, -180)" gradientUnits="userSpaceOnUse"><stop offset="0" stop-color="#fff"/><stop offset="1" stop-color="#fff" stop-opacity="0"/></linearGradient></defs><title>file_type_sln</title><path d="M6.045,23.991a1.166,1.166,0,0,1-1.208.191L2.718,23.3A1.168,1.168,0,0,1,2,22.222V9.778A1.165,1.165,0,0,1,2.718,8.7l2.119-.883a1.169,1.169,0,0,1,1.208.191l.476.408A.646.646,0,0,0,5.5,8.942V23.058a.646.646,0,0,0,1.021.525Z" style="fill:#52218a"/><path d="M2.718,23.3A1.169,1.169,0,0,1,2,22.222v-.1a.674.674,0,0,0,1.174.452L21.25,2.583a1.743,1.743,0,0,1,1.99-.338l5.769,2.778A1.749,1.749,0,0,1,30,6.6v.067a1.1,1.1,0,0,0-1.8-.854L6.521,23.583l-.476.408a1.166,1.166,0,0,1-1.208.191Z" style="fill:#6c33af"/><path d="M2.718,8.7A1.168,1.168,0,0,0,2,9.778v.1a.674.674,0,0,1,1.174-.452L21.25,29.416a1.743,1.743,0,0,0,1.99.338l5.769-2.778A1.747,1.747,0,0,0,30,25.4v-.068a1.1,1.1,0,0,1-1.8.855L6.521,8.417l-.476-.408a1.166,1.166,0,0,0-1.208-.191Z" style="fill:#854cc7"/><path d="M23.24,29.755a1.743,1.743,0,0,1-1.99-.338A1.025,1.025,0,0,0,23,28.692V3.308a1.025,1.025,0,0,0-1.75-.725,1.743,1.743,0,0,1,1.99-.338l5.768,2.774A1.749,1.749,0,0,1,30,6.6V25.405a1.751,1.751,0,0,1-.991,1.577Z" style="fill:#b179f1"/><g style="opacity:0.25"><path d="M22.093,29.883a1.74,1.74,0,0,0,1.147-.128l5.768-2.774A1.749,1.749,0,0,0,30,25.4V6.6a1.75,1.75,0,0,0-.992-1.577L23.24,2.245a1.742,1.742,0,0,0-1.99.339l-9.3,10.284L6.521,8.416l-.476-.408a1.168,1.168,0,0,0-1.207-.191L2.719,8.7A1.167,1.167,0,0,0,2,9.689c0,.029,0,.059,0,.088V22.221c0,.03,0,.059,0,.088a1.167,1.167,0,0,0,.715.989l2.119.883a1.226,1.226,0,0,0,.155.052,1.165,1.165,0,0,0,1.052-.243l.476-.408,5.43-4.452,9.3,10.285A1.733,1.733,0,0,0,22.093,29.883ZM23,10.072,15.77,16,23,21.927ZM5.5,12l3.619,4L5.5,20Z" style="fill-rule:evenodd;fill:url(#a)"/></g></svg>