<svg viewBox="0 0 32 32" xmlns="http://www.w3.org/2000/svg" xmlns:xlink="http://www.w3.org/1999/xlink"><linearGradient id="a" gradientTransform="matrix(7.886 0 0 -8.589 578.084 -327.095)" gradientUnits="userSpaceOnUse" x1="-73.299" x2="-69.112" y1="-36.757" y2="-40.601"><stop offset="0" stop-color="#c06fbb"/><stop offset="1" stop-color="#6e4d9b"/></linearGradient><linearGradient id="b" gradientTransform="matrix(15.701 0 0 -16.956 1213.064 -480.525)" gradientUnits="userSpaceOnUse" x1="-75.72" x2="-76.857" y1="-29.976" y2="-28.423"><stop offset="0" stop-color="#6e4d9b"/><stop offset=".14" stop-color="#77327a"/><stop offset=".29" stop-color="#b31777"/><stop offset=".84" stop-color="#cd0f7e"/><stop offset="1" stop-color="#ed2c89"/></linearGradient><linearGradient id="c" gradientTransform="matrix(8.637 0 0 -7.94 632.817 -284.546)" x1="-74.781" x2="-70.958" xlink:href="#a" y1="-34.695" y2="-40.015"/><linearGradient id="d" x1="-3.96" x2="31.012" xlink:href="#a" y1="41.901" y2="13.213"/><linearGradient id="e" gradientTransform="matrix(6.504 0 0 -6.517 478.263 -265.393)" x1="-72.241" x2="-69.334" xlink:href="#a" y1="-41.388" y2="-43.773"/><linearGradient id="f" gradientTransform="matrix(10.02 0 0 -10.013 732.69 -346.247)" x1="-74.154" x2="-70.411" xlink:href="#a" y1="-34.519" y2="-37.816"/><linearGradient id="g" gradientTransform="matrix(15.678 0 0 -16.922 1195.287 -503.63)" x1="-74.562" x2="-75.704" xlink:href="#b" y1="-31.575" y2="-30.013"/><linearGradient id="h" gradientTransform="matrix(7.887 0 0 -8.589 578.148 -327.094)" x1="-73.124" x2="-68.938" xlink:href="#a" y1="-36.529" y2="-41.164"/><linearGradient id="i" gradientTransform="matrix(37.627 7.508 7.477 -37.474 3130.474 -328.745)" gradientUnits="userSpaceOnUse" x1="-78.108" x2="-77.58" y1="-25.063" y2="-24.54"><stop offset="0" stop-color="#6e4d9b"/><stop offset=".14" stop-color="#77327a"/><stop offset=".53" stop-color="#b31777"/><stop offset=".79" stop-color="#cd0f7e"/><stop offset="1" stop-color="#ed2c89"/></linearGradient><path d="m20.336 7.408-2.6 1.734-2.676-4.011 2.6-1.734 2.677 4.012z" fill="url(#a)"/><path d="m22.449 19.461 4.44 6.654-5.289 3.529-4.44-6.654-.775-1.161 5.289-3.53.775 1.161z" fill="url(#b)"/><path d="m15.787 23.907.978 1.465-4.026 2.687-1.752-2.626.88-.587 3.147-2.1.775 1.161z" fill="url(#c)"/><path d="m24.648 16.316 1.129-.754 1.752 2.626-2.599 1.734-.977-1.465 1.47-.981z" fill="url(#d)"/><path d="m23.953 18.457-.775-1.161 1.47-.98.775 1.16z" fill="url(#e)"/><path d="m6.424 16.692-.879.587-2.677-4.012 4.026-2.687 1.876 2.813-3.146 2.1 3.146-2.1.8 1.2-3.147 2.1z" fill="url(#f)"/><path d="m15.432 8.947.8 1.2-5.289 3.53-.8-1.2-4.4-6.591 5.289-3.53z" fill="url(#g)"/><path d="m19.207 8.162-1.47.981-.8-1.2-1.877-2.812 2.6-1.734 2.677 4.012-1.129.754z" fill="url(#h)"/><path d="m12.64 26.006-.775-1.161 3.147-2.1.775 1.161-3.146 2.1z" fill="#714896"/><path d="m23.953 18.457-.775-1.157 1.47-.981.775 1.161-1.47.981z" fill="#6f4795"/><path d="m6.424 16.692-.8-1.2 3.146-2.1.8 1.2-3.147 2.1z" fill="#88519f"/><path d="m17.737 9.143-.8-1.2 1.47-.981.8 1.2z" fill="#85509e"/><path d="m22.449 19.461-5.289 3.53-.775-1.161 5.289-3.53z" fill="#8d166a"/><path d="m15.432 8.947.8 1.2-5.289 3.53-.8-1.2z" fill="#a70d6f"/><path d="m3.776 8.336h1.799v1.799h-1.799z" fill="#9e61ad" transform="matrix(.83179915 -.55507673 .55507673 .83179915 -4.34 4.149)"/><path d="m9.168 26.271h1.799v1.799h-1.799z" fill="#8053a3" transform="matrix(.83179915 -.55507673 .55507673 .83179915 -13.388 10.158)"/><path d="m6.38 27.43-4.38-6.617 23.407-15.656 4.593 6.511z" fill="url(#i)"/></svg>