<svg xmlns="http://www.w3.org/2000/svg" width="616" height="452" viewBox="0 0 462 339">
  <path fill="#41cd52" d="M63.5 0H462v274.79c-21.4 21.47-42.87 42.87-64.39 64.21H0V63.39C21.08 42.18 42.34 21.13 63.5 0z"/>
  <path d="M122.37 71.33C137.5 61.32 156.21 58.79 174 58.95c16.94.21 34.72 3.18 48.76 13.29 10.2 7.17 16.83 18.24 21.25 29.69 7.15 18.8 9.25 39.1 9.49 59.08.03 20.12-.88 40.68-7.54 59.85a67.1 67.1 0 0 1-24.15 32.66c8.06 13.06 16.28 26.02 24.34 39.08-10.13 4.67-20.23 9.37-30.37 14.02-8.63-14.24-17.22-28.51-25.88-42.73-11.71 1.92-23.69 1.77-35.46.47-14.1-1.69-28.47-5.99-39.35-15.48-8.36-7.24-13.61-17.37-17.2-27.67-5.88-17.42-7.46-35.96-7.73-54.24-.14-19.76 1.12-39.83 7.08-58.79 4.61-14.26 12.24-28.49 25.13-36.85zM294.13 70.69h31.8c.03 14.02-.01 28.03.02 42.05 13.55.02 27.1 0 40.65.01-.23 9.1-.48 18.2-.74 27.3-13.54.03-27.07-.01-40.61.02.03 22.98-.07 45.96.05 68.94.26 6.29.12 12.93 2.89 18.74 2.02 4.48 7.46 5.63 11.89 5.78 8.35-.03 16.69-.52 25.04-.67.51 8.36 1 16.73 1.48 25.09-16.61 2.79-34.04 6.13-50.54.91-6.95-2.06-13.43-6.67-16.25-13.54-5.05-11.69-5.46-24.7-5.68-37.25-.02-22.67 0-45.33-.01-68-7.39-.02-14.78.01-22.17-.02-.02-9.09-.02-18.19 0-27.29 7.39-.03 14.77.01 22.16-.02.03-14.02-.01-28.03.02-42.05z" fill="#fff"/>
  <path fill="#41cd52" d="M160.51 87.7c10.29-1.34 21.09-.98 30.83 2.91a33.58 33.58 0 0 1 18.13 16.97c5.43 11.73 7.51 24.68 8.56 37.47 1.14 17.02.98 34.2-1.37 51.12-1.65 10.07-4 20.68-10.82 28.62-6.92 7.97-17.59 11.39-27.83 12.19-10.8.79-22.19 0-31.94-5.11a30.97 30.97 0 0 1-13.34-13.6c-3.42-6.97-5.3-14.58-6.62-22.2-3.98-24.16-4.94-49.16.5-73.18 2.24-9.06 5.5-18.36 12.12-25.19 5.76-5.85 13.78-8.87 21.78-10z"/>
</svg>
