<svg xmlns="http://www.w3.org/2000/svg" viewBox="0 0 32 32"><title>file_type_applescript@2x</title><g id="applescript"><path d="M17.18,4.44A6,6,0,0,1,21.58,2a6,6,0,0,1-1.45,4.48,4.73,4.73,0,0,1-4.17,2A5.2,5.2,0,0,1,17.18,4.44Z" style="fill:#a8c2ab"/><path d="M16.2,10c.95,0,2.7-1.3,5-1.3a6.25,6.25,0,0,1,5.48,2.8,6.08,6.08,0,0,0-3,5.3,6.23,6.23,0,0,0,3.77,5.7S24.78,30,21.21,30c-1.64,0-2.91-1.1-4.63-1.1S13.08,30,11.95,30C8.7,30,4.59,23,4.59,17.3s3.48-8.49,6.74-8.49C13.45,8.81,15.09,10,16.2,10Z" style="fill:#a8c2ab"/></g></svg>