<svg xmlns="http://www.w3.org/2000/svg" viewBox="0 0 32 32"><title>file_type_composer@2x</title><g id="composer"><path d="M20.66,27.15l4-1.64.07-1.42.7-1.44.15-1.6.79-2.41.88-2-.07-.48-.13-.44.09-.5L27,14.6l.09-.41-.79-1-3.5,1.23.15.46-.33.55.31.94-.48.94.68,2,1.44.77c-.07,0-1.84-.15-1.84-.15l.41.85-.48,1.34-.57.28-.48.15-.94,1.09L20,25.44l.59,1.71ZM5.84,15.06l3.57.41.46,2.27L9.1,19.57l.43.31L10.29,22l.87,1,.6.36,1.06,1,1.23.92-.44.94.07.7-.15.39-.27.75-2.58-.75.07-.44-.36-.48.12-.46L7,23.3l-.27-.65L6,22.4l0-5.53-.32-.8Z" style="fill:#7d6a4c"/><path d="M24,19.14l-.2,0h-.06a.13.13,0,0,0-.12.09.6.6,0,0,0,0,.08.09.09,0,0,0,0,0l.53.19h0C24.15,19.35,24.2,19.19,24,19.14Zm-.13,1.8,0,0,0,0a2.83,2.83,0,0,1,.22.28h0c0-.07,0-.25,0-.32S24,20.94,23.88,20.95Zm1.53-1.87a0,0,0,1,0,0,.06A0,0,0,0,0,25.41,19.07Zm0-3.3c0,.18,0,.28.2.28s.34,0,.35-.21,0-.23,0-.29-.18,0-.25,0C25.45,15.5,25.4,15.54,25.41,15.77Zm-.68,1.45s0-.16,0-.22,0-.21,0-.26-.36-.05-.43,0-.11.44,0,.48S24.68,17.28,24.73,17.22ZM13.24,26.29s0,0,0,0a.15.15,0,0,0,0-.06s0-.06,0-.09a.51.51,0,0,0,0-.07v0h0a.33.33,0,0,0,0-.05,1.44,1.44,0,0,0,0-.16h-.09a.92.92,0,0,0-.35,0c-.06,0-.07.1-.07.17s0,.08,0,.12v0c0,.11,0,.18.12.21a.8.8,0,0,0,.35,0,0,0,0,0,1,0,0Zm.35-.45h0a.77.77,0,0,1-.22,0s0,.05,0,.08a.63.63,0,0,1,0,.08,0,0,0,0,1,0,0,.69.69,0,0,1,0,.07h0a.08.08,0,0,0,0,0v0s0,0,0,.08,0,0,0,.06h.05a.33.33,0,0,1,0-.15c0-.1.12-.21.16-.3h0Zm-.22.61v0h0c0,.09,0,.18,0,.27a.91.91,0,0,0,0,.09c0,.05.06.06.1.07h.13a2.09,2.09,0,0,0-.1-.45Zm0,.57-.06,0c0,.05,0,.19,0,.26v0a.39.39,0,0,0,.13-.1.39.39,0,0,0,.08-.23l-.12,0Zm7.36-.68c.12,0,.25,0,.32,0a.44.44,0,0,0,0-.24.45.45,0,0,0,0-.24,1,1,0,0,0-.45,0,.2.2,0,0,0-.06.17s0,.08,0,.11a.55.55,0,0,1,0,.1v0l0,.11s0,0,0,0h.11S20.76,26.32,20.77,26.33Zm5-7.2c-.1,0-.31,0-.37.06a.77.77,0,0,0,0,.43c.06.07.23.06.36,0h.06l0-.05v0a.31.31,0,0,1,0-.15v0h0C25.82,19.28,26,19.16,25.78,19.13ZM7.35,16c.09,0,.42,0,.46-.05s-.09-.44.08-.47a.2.2,0,0,0-.12,0c-.13.09-.36-.06-.46.06S7.26,16,7.35,16Zm16.76,9.2a.16.16,0,0,0-.09,0c-.1,0-.3,0-.37.05a.61.61,0,0,0,0,.43.18.18,0,0,0,.14.05h.32l0,0v-.11C24.11,25.46,24.11,25.34,24.11,25.22Zm-1.57-.66h0c-.17,0-.13.17-.13.29s0,.24.17.24.28,0,.35-.07,0-.25,0-.37a.1.1,0,0,1,0,0s0-.07-.07-.07h0A1.07,1.07,0,0,1,22.54,24.56Zm-12.44,0c-.09,0-.32,0-.37,0s0,.32,0,.43l0,0a.06.06,0,0,0,0,0v0h0l.07,0a1.06,1.06,0,0,1,.31,0c.16,0,.12-.16.12-.27S10.27,24.59,10.1,24.58Zm13.23-9.76h.13a.11.11,0,0,1,.08-.05.34.34,0,0,0,0-.06.06.06,0,0,1,0,0,1.66,1.66,0,0,0,0-.21h0c-.14.09-.22,0-.18.25A.42.42,0,0,1,23.33,14.82Zm.09.61c.12,0,.1-.25.1-.32s0-.07,0-.1a.11.11,0,0,1-.08-.08h-.14a2.05,2.05,0,0,1-.32.43.58.58,0,0,1,0,.07C23.12,15.45,23.29,15.42,23.42,15.43Zm1.31,3.73a.71.71,0,0,0-.45,0c-.11.09,0,.28-.07.4l.13.08.06,0h0a.05.05,0,0,1,.07,0c.08,0,.2,0,.26-.06A.75.75,0,0,0,24.72,19.16ZM6.57,21.57c-.09-.08-.31,0-.42,0a2.41,2.41,0,0,0-.08.41.64.64,0,0,0,0,.15h0c.14,0,.55.08.53-.15S6.66,21.65,6.57,21.57Zm18.14-.12c.08-.07,0-.31,0-.4s-.35-.14-.45-.09-.05.29-.11.42a.22.22,0,0,0,.07.1C24.37,21.48,24.63,21.53,24.72,21.45Zm1.14-7.22c.08,0,.12-.1.12-.2a.36.36,0,0,0,0,.1h0c0,.1.14.08.19.08s.28,0,.32-.08a1.73,1.73,0,0,0,0-.4l-.06,0a.61.61,0,0,0-.18,0c-.08,0-.22,0-.27.06a.3.3,0,0,0,0,.15.42.42,0,0,0,0-.13c-.08-.14-.27,0-.35-.11l-.05,0a.12.12,0,0,1-.12.09c0,.06,0,.16,0,.24a.36.36,0,0,0,0,.16C25.51,14.28,25.76,14.23,25.86,14.23ZM11.08,26.93c.12,0,.26,0,.34-.05a.72.72,0,0,0,0-.44c0-.07-.36-.07-.44,0s-.06.25-.09.37.11.12.16.15ZM21.3,24c-.08,0-.1.07-.1.15s0,.11,0,.15v0s0,0,0,.07,0,.12.16.13.27,0,.33,0l0,0a.7.7,0,0,0,.06-.23c0-.08,0-.16,0-.24H21.3Zm-13-.62c-.09,0-.33,0-.4,0s0,.26,0,.36,0,0,0,0l.15.12h.07c.14,0,.29.05.31-.15S8.48,23.37,8.33,23.37Zm16.4-2.83a.74.74,0,0,1,0-.12,1.53,1.53,0,0,0-.38-.1h-.09a.85.85,0,0,0,0,.45c0,.08.1.09.19.1s.25,0,.31,0,0-.18,0-.27A0,0,0,0,1,24.73,20.54Zm-1.8,5.56c0-.08,0-.19,0-.25s-.27-.08-.37-.07h0s-.07,0-.09,0h0a.75.75,0,0,0,0,.45.12.12,0,0,0,.05.08s.08,0,.12,0l.08,0,.17,0L23,26.2h0A.11.11,0,0,1,22.94,26.1ZM21.1,24.59h0a2,2,0,0,0-.38,0l-.15.31c0,.08,0,.16.09.21a.81.81,0,0,0,.33,0c.22,0,.1-.29.16-.46l0,0ZM9,18.79c0-.09,0-.26-.09-.26s-.3,0-.38,0-.06.17-.06.26,0,.18,0,.25a.59.59,0,0,0,.28.07L9,18.95H9L9,18.79ZM13.21,27a.65.65,0,0,0-.36,0c-.1,0-.11.05-.12.16s0,.29,0,.34.29,0,.37,0h0c0-.09.11-.12.17-.17v0C13.26,27.23,13.31,27.07,13.21,27Zm10.94-6.24c0-.1,0-.36-.06-.42a.76.76,0,0,0-.43,0c-.06.05,0,.14,0,.21v0a.61.61,0,0,1,0,.15l.15.14,0,0C24,20.83,24.1,20.94,24.15,20.77Zm-17.08.78c-.24,0-.36,0-.38.24,0,.08,0,.21,0,.26a.12.12,0,0,0,.1,0h0a.16.16,0,0,1,.12,0H7c.06,0,.19-.16.21,0a.06.06,0,0,1,0,0C7.25,22,7.31,21.53,7.07,21.55Zm16.55-6.84c0,.08.05.1.14.12s.32,0,.38,0a.89.89,0,0,0,0-.35c0-.1,0-.16-.15-.16l-.24.08-.16.07a1.3,1.3,0,0,1,0,.24A0,0,0,0,1,23.62,14.71ZM10.4,25.19c-.12,0-.08.16-.09.27s0,0,0,0v0l.06.06h0l.17.12h.07l.07,0a.18.18,0,0,0,.15,0c.05-.06,0-.31,0-.39S10.5,25.15,10.4,25.19ZM11.92,27a.9.9,0,0,0-.32,0c-.12.05-.08.25-.08.38v0a5.3,5.3,0,0,0,.53.14.13.13,0,0,1,0,0c0-.05,0-.11,0-.17S12.11,27,11.92,27Zm10.48-1.75a1.55,1.55,0,0,0,.12.51.7.7,0,0,1,.28,0c.09,0,.11,0,.12-.12a.91.91,0,0,0,0-.34C22.88,25.12,22.51,25.17,22.41,25.23Zm-1-1.33a.73.73,0,0,1,.22,0,.22.22,0,0,1,.12.05c0-.16-.06-.32-.07-.48s.07-.34,0-.37-.06,0-.1.08-.3.45-.35.5S21.18,23.93,21.37,23.91Zm5.7-7.74-.09,0h-.16a.51.51,0,0,1-.18.08,1.11,1.11,0,0,0,0,.25c0,.08,0,.15.06.19a.49.49,0,0,0,.25,0l.12,0v.08h-.15a.47.47,0,0,0-.23,0c-.1.05,0,.18,0,.27s0,.2.06.23l.14,0c.07-.18.22-.34.22-.55a.16.16,0,0,0,0-.1c0-.13.06-.27.09-.4A.28.28,0,0,1,27.07,16.16Zm-3.66,1.15a1.19,1.19,0,0,1-.25,0,3.06,3.06,0,0,0-.1.43.33.33,0,0,1,.1.11c.12,0,.32,0,.37-.05a.48.48,0,0,0,0-.2C23.54,17.48,23.58,17.32,23.41,17.32Zm-1.67,9.17v0h0c0-.11-.12-.09-.21-.09s-.24,0-.3,0a.52.52,0,0,0,0,.43.17.17,0,0,0,.08.09h0l.48-.21a.14.14,0,0,1-.05-.11S21.74,26.54,21.74,26.49Zm1.68-3.72a.78.78,0,0,1-.33,0,2,2,0,0,0,0,.61c0-.15.37,0,.45-.11a.86.86,0,0,0,0-.33C23.55,22.81,23.54,22.75,23.42,22.77Zm.12-7.21c0-.05-.51-.12-.55.08a1.4,1.4,0,0,0,.24.42l.12,0a0,0,0,0,1,.05,0,.15.15,0,0,0,.12,0C23.6,15.91,23.52,15.66,23.54,15.55Zm1.4,4.19c-.18,0,0,.18-.11.28l0,0,.15.05a.21.21,0,0,1,.12.16c.08,0,.18,0,.23,0a.89.89,0,0,0,0-.45C25.27,19.7,25,19.72,24.93,19.74ZM9.37,22.26a1.57,1.57,0,0,1-.27,0,1.24,1.24,0,0,0,0,.3c0,.12.11.11.22.11s.33,0,.34-.17-.13-.18-.18-.29Zm-.63-1.34a3.35,3.35,0,0,0-.26.44c0,.12.12.12.22.12s.27,0,.33-.06A.88.88,0,0,0,9,21C9,20.89,8.84,21,8.74,20.92Zm1.8,2.19,0,0s0,0-.06.06-.13,0-.18,0h0c0,.14.33.17.43.12s.09-.13.09-.22a.1.1,0,0,1-.09-.12.2.2,0,0,1,0,0,3.24,3.24,0,0,1-.46-.47h0C10.33,22.69,10.29,23,10.54,23.11Zm12.89.24a1.25,1.25,0,0,1-.34,0v.13a1.8,1.8,0,0,0,0,.4c.15,0,.4.07.43-.12a1.52,1.52,0,0,0,0-.19C23.56,23.47,23.53,23.35,23.42,23.35Zm0,1.75c.13,0,.1-.15.1-.27s0-.26-.1-.26a.58.58,0,0,1-.26,0c0,.11,0,.22,0,.35l-.13-.12L23,24.69a.2.2,0,0,1,0,0c0,.11,0,.31,0,.36A1,1,0,0,0,23.44,25.11Zm-.06-2.94c-.08,0-.17,0-.22-.06a1.85,1.85,0,0,0-.07.6c.19-.09.45.08.46-.2,0,0,0-.13,0-.2a.21.21,0,0,0,0-.1C23.51,22.15,23.44,22.17,23.38,22.17ZM8,20.35c-.09.05-.06.21-.06.3,0,.25.11.21.33.21h0a2.1,2.1,0,0,0,.16-.5h0A.75.75,0,0,0,8,20.35ZM26.4,18h-.08a.05.05,0,0,1-.05-.05h0c-.14,0-.28,0-.29.15s0,.06,0,.1a.53.53,0,0,0,0,.25.13.13,0,0,0,.08.05l0,0h.17s0,0-.08,0,.08,0,.09,0h0a4,4,0,0,0,.2-.44l-.14,0ZM12.77,24.56h0c0,.12-.1.52.07.55a1,1,0,0,0,.37,0c.12,0,0-.12.09-.21A1.47,1.47,0,0,0,12.77,24.56ZM24.9,14.41a.47.47,0,0,1,.07-.09h-.11a.17.17,0,0,0,0,.11S24.85,14.4,24.9,14.41Zm0-.2h.47a.84.84,0,0,0,0-.35h-.13v-.1l-.15.06,0,0a.73.73,0,0,1-.25.16v.15h0Zm.14.61c.12,0,.32,0,.35-.11a1.23,1.23,0,0,0,0-.28.32.32,0,0,0,0-.12h-.15l-.05,0a.06.06,0,0,0,0,0H25s-.06.06-.07.09,0,0-.07,0C24.83,14.64,24.77,14.82,25,14.83Zm-3.1,10.26H22c-.06-.18-.13-.35-.2-.53a.67.67,0,0,0,0,.16.61.61,0,0,0,0,.28A.17.17,0,0,0,21.91,25.09Zm.1.1h-.11a.1.1,0,0,0-.07,0c-.06.07,0,.27,0,.35a.39.39,0,0,0,0,.07.14.14,0,0,1,0,.05.34.34,0,0,0,.16,0c.1,0,.22,0,.31,0l0,0-.28-.46Zm-13-9.52-.57-.09-.58-.07a1.6,1.6,0,0,0,0,.4c0,.17.1.13.25.12s.22,0,.26-.08,0-.23.05-.35c.09.21-.08.43.22.44.08,0,.24,0,.3,0s0-.28.06-.35h0ZM6.42,21.48c.23,0,.2-.17.2-.36s-.18-.17-.36-.17a2.89,2.89,0,0,0-.1.53C6.24,21.48,6.33,21.47,6.42,21.48ZM8.78,24h0c-.22,0-.23,0-.29.2a.11.11,0,0,0,0,0h0c.15.11.3.23.48.34H9a.47.47,0,0,0,.08-.3A.54.54,0,0,0,9,24C9,23.94,8.89,24,8.78,24Zm.73-6.1c0-.07,0-.14,0-.21l-.06-.33H9.23c-.08,0-.1,0-.12.1a1.36,1.36,0,0,0,0,.33C9.15,17.9,9.37,17.86,9.51,17.85ZM21,26.39h-.25l0,0h-.08a2,2,0,0,0,.15.48l.1,0c.07,0,.19,0,.23-.1h0a.87.87,0,0,0,0-.17C21.15,26.51,21.12,26.39,21,26.39ZM23.44,24h-.32c0,.18,0,.37.08.56.13-.06.31,0,.36-.12S23.6,24,23.44,24Zm.1-2.25a.18.18,0,0,1,0-.06.05.05,0,0,0-.06-.06h0a.41.41,0,0,0-.27.28v0l0,.19c.1,0,.29,0,.37-.06a1.21,1.21,0,0,1,0-.23Zm1.58-1.38h0c.05.06.24.26.12.28s-.13-.07-.16-.08a1.4,1.4,0,0,0-.24-.08h0a.15.15,0,0,0,0,0,0,0,0,0,1,0,0c0,.11,0,.25.06.3a.64.64,0,0,0,.42,0c.08-.06.07-.32,0-.41S25.23,20.34,25.11,20.34Zm-18.81,0a.66.66,0,0,1-.08.18l0,.33v0h0c.21,0,.36,0,.36-.19s0-.27,0-.33S6.39,20.35,6.3,20.34Zm3.53,2.41,0,0h0c-.12.06-.18.45-.06.54s.16,0,.21,0,.28,0,.31-.15a4.11,4.11,0,0,1-.45-.41Zm3.73,2.41h0c-.06,0-.14,0-.18.06s0,.22,0,.28c0,.22.07.18.19.21h0l.08,0h0a.52.52,0,0,0,.1-.28A.46.46,0,0,0,13.56,25.16ZM27,15l0,0h0c-.05,0-.15,0-.19,0s0,.11,0,.15l0,.08v0c.11,0,.27.11.33.06s0-.18.05-.22a.74.74,0,0,0,0-.11.38.38,0,0,1,0-.13h0A.05.05,0,0,1,27,15ZM12.59,25.1c.08-.11.09-.39,0-.43l-.06,0h-.19l-.14.19a.13.13,0,0,1,0,.15.11.11,0,0,1,0,.06h0C12.22,25.15,12.53,25.19,12.59,25.1Zm10.85-8.38h-.11a.11.11,0,0,1-.08.06v0h0a1.57,1.57,0,0,1-.07.43c.14,0,.31,0,.36-.1S23.59,16.71,23.44,16.71Zm.1-.28c0-.07,0-.23,0-.29a.18.18,0,0,0-.14,0h0l-.08,0a.46.46,0,0,1,0,.48h.1C23.51,16.6,23.54,16.57,23.54,16.44Zm3-1.42c0-.1-.12-.12-.22-.12h-.16c-.14,0-.18.15-.16.28a.38.38,0,0,0,0,.13c.16-.15.34-.07.53,0l0-.05A1.05,1.05,0,0,1,26.57,15ZM22.8,24.51h.07a1.85,1.85,0,0,1-.23-.56l-.07,0h0a.06.06,0,0,1-.06,0c-.08,0-.1.12-.1.22a1.79,1.79,0,0,0,0,.21C22.45,24.55,22.65,24.52,22.8,24.51Zm.49-6c.08,0,.16,0,.23-.06s0-.29,0-.38-.22-.1-.35-.1,0,0,0,0a.11.11,0,0,1,0,.07Zm1.47,3.21a0,0,0,0,1,0,0c0-.18-.32-.12-.44-.11h0a4.2,4.2,0,0,1,.22.53h0c.07,0,.18,0,.22,0S24.76,21.79,24.76,21.69Zm-15.49-5c-.21,0-.16.22-.16.36s.18.12.36.2l-.12-.63A.07.07,0,0,1,9.27,16.71Zm11.81,7.77c.07-.05,0-.17,0-.25h0c0-.12,0-.19,0-.22l0,0h-.14c-.07.18-.12.34-.17.51h0C20.82,24.5,21,24.54,21.07,24.48ZM11.44,27.1s0,.05,0,0,0,0,0,0c0-.13-.22-.12-.36-.11A.06.06,0,0,1,11,27h0a1.65,1.65,0,0,0,0,.17,0,0,0,0,0,0,0h0a.17.17,0,0,0,.07.12,1.52,1.52,0,0,0,.41.1v0A.76.76,0,0,1,11.44,27.1ZM9.14,22h.2l.09,0c0-.12,0-.23-.06-.34l-.06-.07,0,0c-.07,0-.15,0-.18.08a.81.81,0,0,0,0,.32A.19.19,0,0,0,9.14,22Zm14.31,3.75c-.09,0-.32,0-.4,0s0,.16,0,.26,0,.1,0,.12l.47-.21a.24.24,0,0,1,.06-.12v0A.09.09,0,0,0,23.44,25.78Zm3.24-11a.24.24,0,0,0,.16,0l0,0,.06,0h0a.34.34,0,0,1-.05-.2.28.28,0,0,1,.07-.25l0,0h-.22c-.12,0-.11.1-.11.22S26.62,14.73,26.69,14.8ZM9.15,16h.1a1.48,1.48,0,0,0,0-.18.36.36,0,0,0-.06-.11l0,0a1.37,1.37,0,0,1,0,.19A.28.28,0,0,0,9.15,16Zm0,.4h0a.61.61,0,0,0,0,.07s0,0,0,0c0,.22,0,.22.24.22,0,0,0,0,0,0s0-.31-.07-.51h-.1s-.05.05-.06.08a.67.67,0,0,0,0,.21ZM8.5,19.5h0c0,.08,0,.13.08.15a.29.29,0,0,1,0-.09v0a1.29,1.29,0,0,1,.16-.35c-.1,0-.2,0-.2.17,0,0,0,0,0,0v0h0a.45.45,0,0,0,0,.18l0,0a.46.46,0,0,1,0-.22c0-.1.12-.09.2-.11l0,0a.93.93,0,0,0-.26,0,.08.08,0,0,0,0,0A.83.83,0,0,0,8.5,19.5Zm.78,5.08c-.06,0-.12,0-.16,0h0a6.12,6.12,0,0,0,.5.38l0,0h0c0-.05,0-.13,0-.19a.32.32,0,0,0,0-.18C9.54,24.55,9.38,24.57,9.28,24.57Zm-.1-6.07h0a1.92,1.92,0,0,1,.31-.5v-.06a1,1,0,0,0-.28,0c-.18,0-.13.42,0,.55ZM12,25.2c-.15.18-.3.34-.46.51.12,0,.38.05.47,0s0-.32,0-.45Zm11.62-3.56h0s0,.1,0,.15a1,1,0,0,0,0,.22.11.11,0,0,0,.11.07h.36A1.91,1.91,0,0,0,23.65,21.64Zm-1.24,2.21,0,0,0,0h0l0,0,0,0a.27.27,0,0,1-.08-.1.22.22,0,0,1,0-.09.2.2,0,0,0,0,.08.29.29,0,0,0,.08.11h0a3.78,3.78,0,0,1-.08-.94h0l-.08.42,0,.18v.1a.17.17,0,0,1,0-.05C22.48,23.63,22.37,23.77,22.41,23.85Zm-.16,2.55h0c-.11,0-.34-.06-.42.05a.24.24,0,0,0,0,.15,1,1,0,0,1,0,.13l.53-.24S22.3,26.41,22.25,26.4Zm1.29-7.64c0-.21-.06-.19-.24-.25a2.14,2.14,0,0,1,.1.52.58.58,0,0,0,0,.21.12.12,0,0,0,.08.07.16.16,0,0,0,0,0s0,0,0,0a.22.22,0,0,1,0-.17s.06-.08.07-.13A.79.79,0,0,0,23.54,18.76ZM9.27,20.92a.24.24,0,0,0-.18.28c0,.18,0,.26.18.28a.21.21,0,0,1,.05-.17Zm17.5-6.71h.11l.12,0,0,0a2.91,2.91,0,0,0-.39-.45.24.24,0,0,1,0,.08c0,.07,0,.14,0,.2h0C26.63,14.19,26.69,14.21,26.77,14.21ZM7.68,23.41H7.45a.66.66,0,0,1,.1.14l0,.09.21.14a.28.28,0,0,1,0,.06s0-.08,0-.13S7.83,23.41,7.68,23.41Zm-.52-1.28a3.64,3.64,0,0,0-.21.56c.06,0,.18,0,.23,0s0-.16,0-.25h0C7.21,22.33,7.24,22.19,7.17,22.13Zm2.12-1.81h0c-.05,0-.11,0-.15.07s0,.18,0,.25,0,.2.15.26c0-.08-.1-.13-.1-.23,0,.09.06.15.1.22h0A5.11,5.11,0,0,1,9.29,20.33ZM6.11,22.16h0c0,.07.24.2.39.24l0,0a.29.29,0,0,0,.07-.1l0,0C6.56,22.09,6.23,22.16,6.11,22.16Zm20-3.63h0c-.05,0-.08.06-.08.18h0v.1a1.84,1.84,0,0,0,0,.31l.24-.6ZM7.08,22.76s-.1,0-.13,0a.13.13,0,0,0,0,.11A.45.45,0,0,0,7,23l.1.12,0,0,.07.07C7.23,23,7.28,22.74,7.08,22.76ZM13,27.6h0a.24.24,0,0,0-.27.13v0c.06,0,.25.14.32.11s.09-.21.11-.28h0A.35.35,0,0,1,13,27.6Zm-2-4.31a.72.72,0,0,0,.32,0l0,0h0l0-.08L11,23l0,0a.29.29,0,0,0,.28.19.31.31,0,0,1-.29-.18h0C10.91,23.16,10.92,23.25,11,23.29Zm.56,1.18s.06.06.08.1h0c-.12,0-.09.11-.09.22a1.26,1.26,0,0,0,0,.23.11.11,0,0,0,.07.1h0a.21.21,0,0,0,0-.08c0-.1,0-.26,0-.37s0-.07,0-.09a.07.07,0,0,0,0-.05h0v0a2,2,0,0,0,0-.27c0-.05,0-.11,0-.17a.11.11,0,0,1-.08-.08.13.13,0,0,0-.06.08.15.15,0,0,0,0,0v0s0,.1,0,.14A.37.37,0,0,0,11.56,24.46Zm13-10.24h0c.13,0,.18,0,.21-.09V14l-.2,0-.15.05-.17.07h0a1.08,1.08,0,0,0,.31,0Zm0,8h0a1.11,1.11,0,0,1,.12.51.42.42,0,0,0,.08-.39C24.72,22.27,24.65,22.26,24.54,22.26ZM6.18,15.33h0c0,.1.18.08.26.08s.17-.09.27-.1a.1.1,0,0,0,.1.1,1.89,1.89,0,0,0,.41,0h0a2.62,2.62,0,0,0-.46-.06h0c-.18-.05-.36,0-.54-.09A.14.14,0,0,1,6.18,15.33Zm17.24,5h-.28l.4.31v-.06a.05.05,0,0,1,0,0C23.55,20.45,23.55,20.34,23.42,20.34ZM10.09,25.22a.82.82,0,0,1-.19,0h0l0,0h0l.21.19.07,0a.15.15,0,0,0,0,0h0a.06.06,0,0,1,0,0C10.23,25.28,10.2,25.21,10.09,25.22Zm16.18-11.6h.25a.44.44,0,0,0-.2-.16.35.35,0,0,0-.31.06A.26.26,0,0,0,26.27,13.62ZM8.77,20.88c.16,0,.26,0,.27-.16v-.25H9C8.92,20.61,8.84,20.74,8.77,20.88Zm15.46,1.48a.39.39,0,0,0,0,.24.2.2,0,0,0,.14.08l.1,0a1.42,1.42,0,0,0-.22-.41A.54.54,0,0,1,24.23,22.36Zm0,3c0,.07,0,.15,0,.22s0,.07,0,.1l.05-.05,0,0a.27.27,0,0,1,0-.05c0-.12,0-.29,0-.35A.2.2,0,0,0,24.22,25.33Zm2.42-7.88s0,0,0,.06h0s0,0,0,0,0,.14,0,.21a2.77,2.77,0,0,0,.18-.38.32.32,0,0,0-.14,0S26.64,17.38,26.64,17.44ZM12.52,27.6h-.27a3.16,3.16,0,0,0,.41.15v0C12.66,27.62,12.61,27.59,12.52,27.6Zm12.05-7.86h-.08a1.66,1.66,0,0,0,.27.22C24.78,19.77,24.75,19.74,24.57,19.74ZM8.27,24h0l0,0,0,0a.82.82,0,0,0,.18.15.16.16,0,0,1,0,0h0a.49.49,0,0,0,0-.1C8.41,24.05,8.37,24,8.27,24Zm5.24,1.08-.09-.1a.13.13,0,0,1-.07-.06h0C13.34,25.1,13.35,25.11,13.51,25.11Zm-2.32,1.21h0c.24,0,.25-.05.27-.28v0c0-.18-.06-.19-.26-.19s-.27,0-.27.22v.06a.38.38,0,0,0,0,.16.12.12,0,0,0,.1.07Zm-2.41-9.6h0c-.19,0-.23,0-.23.26h0c0,.21,0,.26.26.26S9,17.22,9,17,9,16.72,8.77,16.71ZM8.51,23.1c0,.12,0,.16.11.19a1.06,1.06,0,0,0,.29,0c.15,0,.12-.15.12-.28s0-.24-.18-.25-.25,0-.32,0S8.51,23,8.51,23.1Zm-.35-.93c-.23,0-.25,0-.25.25s0,.25.17.27.24,0,.31,0,.05-.18.06-.26v0C8.44,22.19,8.36,22.17,8.16,22.17Zm4.33,3.62c-.07,0-.26,0-.32,0s0,.25,0,.34.14.18.31.17.21,0,.22-.16S12.71,25.79,12.49,25.79ZM7.29,17c0,.24.12.22.34.22s.19-.06.19-.18h0s0-.06,0-.1c0-.24,0-.24-.26-.24h0c-.23,0-.26.05-.26.25Zm.27,3.85c.22,0,.26,0,.26-.24v0c0-.2,0-.25-.26-.25s-.25,0-.26.25a.6.6,0,0,0,0,.07C7.31,20.85,7.35,20.86,7.56,20.88Zm4.5,5.18c0-.17,0-.27-.18-.27s-.23,0-.3,0a.18.18,0,0,0,0,.14s0,.08,0,.11v.05c0,.17,0,.2.21.2h.06C12,26.32,12.06,26.29,12.06,26.06ZM8.5,18.25c0,.23.12.21.32.2s.21,0,.21-.23,0-.31-.26-.3S8.49,18,8.5,18.25ZM7.82,21.2c0-.22,0-.25-.27-.25s-.26,0-.26.26,0,.25.22.26h0C7.81,21.48,7.84,21.44,7.82,21.2Zm.33-3.94c.24,0,.27,0,.27-.27s0-.27-.28-.27-.25.06-.25.28S7.91,17.26,8.15,17.26Zm4.25,8.45c.22,0,.25,0,.25-.26s0-.27-.22-.27h-.09c-.18,0-.24,0-.24.26h0C12.12,25.68,12.16,25.71,12.41,25.71Zm-4.25-9.6c-.25,0-.26.07-.27.3v0c0,.22.1.21.31.21s.22-.07.22-.24v-.08C8.43,16.11,8.37,16.11,8.16,16.11Zm5.09,9.11c0-.07-.15,0-.22,0-.23,0-.34,0-.34.23s0,.29.29.29h0c.18,0,.23,0,.23-.22,0,0,0-.12,0-.18A.21.21,0,0,0,13.25,25.23Zm-1.8.16v.07c0-.24,0-.28-.27-.28s-.26,0-.26.27,0,.27.22.27h.07c.2,0,.25,0,.25-.26C11.45,25.42,11.45,25.4,11.45,25.38Zm-2.07-2c-.24,0-.27,0-.27.27s.06.27.31.26.22-.07.22-.27S9.6,23.37,9.38,23.37ZM10,24H9.89c-.14,0-.18,0-.18.21s0,.33.25.33c.06,0,.2,0,.25,0s0-.23,0-.3C10.26,24,10.2,24,10,24ZM7.5,19.66h.14c.15,0,.18,0,.18-.22s0-.32-.3-.32-.23.07-.23.28S7.31,19.66,7.5,19.66Zm1.28,3.72c-.24,0-.27,0-.28.26v0c0,.21.05.22.28.22s.25-.05.25-.28v0C9,23.4,9,23.35,8.78,23.38ZM9,22.2a.44.44,0,0,0-.19,0c-.2,0-.28,0-.27.22s0,.3.26.3.28,0,.27-.28v0a.43.43,0,0,0,0-.12A.1.1,0,0,1,9,22.2ZM8.5,16.26a.9.9,0,0,0,0,.32c.06.1.27.07.38.06s.15-.17.15-.32-.07-.22-.28-.2S8.52,16.06,8.5,16.26Zm2,7.64c.19,0,.33,0,.35-.18s0-.33-.23-.35-.29,0-.3.17S10.28,23.89,10.5,23.9ZM8.84,21.55H8.76c-.25,0-.28.13-.25.37s.16.16.33.16S9,22.09,9,22a.64.64,0,0,0,0-.3C9,21.57,9,21.55,8.84,21.55Zm2.22,1.81c-.17,0-.13.1-.13.23s0,.25.08.3a.91.91,0,0,0,.37,0c.11,0,.07-.15.06-.25a1.19,1.19,0,0,0,0-.12h0a.05.05,0,0,1,0,0,.08.08,0,0,0,0,0l-.07-.09A1.12,1.12,0,0,0,11.06,23.37ZM12.29,27c-.2,0-.18.18-.16.36s.15.18.32.18.23-.09.21-.3S12.53,27,12.29,27ZM8.77,17.32c-.22,0-.26,0-.27.25,0,0,0,.05,0,.08s0,.2.26.2.27,0,.27-.27H9C9,17.36,9,17.32,8.77,17.32ZM7.56,19.06c.23,0,.26,0,.26-.26s0-.27-.25-.27-.27,0-.27.27S7.34,19.06,7.56,19.06ZM11.2,24c-.08,0-.18,0-.24,0a.62.62,0,0,0,0,.27c0,.26.13.2.35.2s.18,0,.18-.22S11.45,24,11.2,24ZM6.9,21.47H7c.11,0,.19,0,.21-.16s0-.37-.18-.37h-.2a.21.21,0,0,0-.12,0c-.05,0,0,.16,0,.23h0C6.69,21.41,6.69,21.47,6.9,21.47Zm.19-2.34c-.09,0-.26,0-.35,0s0,.18,0,.27,0,.25.22.25.24,0,.29-.09S7.28,19.13,7.09,19.13Zm6.13,7.29h0a.22.22,0,0,0-.12,0H13c-.08,0-.22,0-.26.08a1.3,1.3,0,0,0,0,.29c0,.17.08.18.23.17a.49.49,0,0,0,.25,0,1.1,1.1,0,0,1,0-.17C13.21,26.61,13.22,26.52,13.22,26.42ZM9.39,22.76c-.25,0-.27.06-.28.3s.06.23.26.23.27,0,.27-.22S9.63,22.76,9.39,22.76Zm-1.82.53c.22,0,.24-.06.25-.28s0-.25-.25-.25-.28.07-.28.33S7.35,23.3,7.57,23.29Zm.86-5.23c0-.08,0-.13-.13-.13s-.35-.08-.4.08a.28.28,0,0,0,0,.09c0,.06,0,.13,0,.18s0,0,0,0a.14.14,0,0,0,0,.12.68.68,0,0,0,.41,0,.12.12,0,0,0,.08-.13s0-.07,0-.12h0S8.43,18.11,8.43,18.06Zm-.88-1.42H7.6c.21,0,.22,0,.22-.26s-.06-.27-.31-.27-.22.07-.22.27S7.33,16.64,7.54,16.64Zm.25,4.93c-.06-.05-.21,0-.28,0s-.23,0-.22.23,0,.23,0,.28.17,0,.23,0h.08c.19,0,.21-.07.2-.29C7.83,21.73,7.84,21.61,7.79,21.57Zm-.5-4c0,.06,0,.18.08.22s.16,0,.23,0h0a0,0,0,0,1,0,0h.1a1.26,1.26,0,0,0,.06-.2.44.44,0,0,0,0-.24c-.07-.12-.24-.09-.36-.07S7.28,17.46,7.29,17.62Zm.09.84c.1,0,.38,0,.44-.06a.51.51,0,0,0,0-.2.43.43,0,0,0-.06-.27H7.65c-.12,0-.3,0-.35.08a.39.39,0,0,0,0,.16C7.27,18.28,7.3,18.43,7.38,18.45ZM10,23.37c-.12,0-.23,0-.27.11a.59.59,0,0,0,0,.39c.06.06.28,0,.37,0s.13-.13.12-.26C10.26,23.32,10.23,23.37,10,23.37Zm.6,1.73c.22,0,.27,0,.28-.25s0-.27-.25-.27-.28,0-.29.24S10.33,25.1,10.57,25.1ZM7.93,18.55a.64.64,0,0,0-.08.37c0,.15,0,.15.18.15v0h.23c.12,0,.14-.11.14-.2s.05-.26,0-.31A.73.73,0,0,0,7.93,18.55ZM7.82,20c0-.12,0-.23-.12-.22s-.39-.06-.4.22,0,.31.24.31c.06,0,.21,0,.26,0S7.82,20,7.82,20Zm3.41,5.16c.21,0,.22-.08.22-.25V24.8c0-.22,0-.22-.26-.22s-.24,0-.25.27c0,0,0,.1,0,.15a.13.13,0,0,0,0,.11C11,25.15,11.16,25.13,11.23,25.12ZM8.18,22.76c-.17,0-.29,0-.28.18s0,.1,0,.15,0,.09,0,.12.25.09.36.08.16-.11.16-.28S8.41,22.76,8.18,22.76ZM6.84,18.45c.12,0,.35,0,.38-.1a1.58,1.58,0,0,0,0-.29c0-.08,0-.13-.08-.13a1.32,1.32,0,0,1-.27,0c-.17,0-.19.05-.18.2S6.64,18.44,6.84,18.45Zm5.64,7.94c-.08,0-.24,0-.3,0s0,.21,0,.31,0,.06,0,.07v0c0,.23.13.19.35.18s.16-.07.17-.25S12.66,26.4,12.48,26.39ZM7.07,17.32a2.14,2.14,0,0,0-.28,0c-.13,0-.11.17-.1.28s0,.24.2.24.29.07.33-.09S7.26,17.3,7.07,17.32Zm-.39-1.51a1,1,0,0,0,0,.12c0,.11.08.13.17.13h0c.27,0,.31,0,.31-.28,0-.11,0-.19-.11-.23s-.3-.08-.37,0A.52.52,0,0,0,6.68,15.81Zm.51,1.28h0c0-.12,0-.28-.09-.32s-.39-.05-.42,0a1,1,0,0,0,0,.24.46.46,0,0,0,0,.16c0,.08.11.09.2.09h0C7.12,17.27,7.19,17.35,7.19,17.08Zm-.43,3.78a.74.74,0,0,0,.41,0c.09-.07,0-.33,0-.43s-.19-.08-.28-.08-.19,0-.24,0S6.67,20.81,6.76,20.86ZM6.13,16a.21.21,0,0,0,.12,0c.08,0,.25,0,.32,0s0-.2,0-.28,0-.18-.06-.22a1.21,1.21,0,0,0-.42,0,.17.17,0,0,0,0,.09.93.93,0,0,1,0,.22C6.1,15.88,6.12,15.94,6.13,16Zm4.72,8.14c0-.17-.07-.19-.26-.19s-.28,0-.28.2v0c0,.23,0,.29.27.3.06,0,.2,0,.24,0a.23.23,0,0,0,0-.14s0-.09,0-.12v0S10.85,24.15,10.85,24.14ZM8.43,19.46c0-.2,0-.32-.2-.33s-.3-.05-.32.15,0,.34.21.37S8.42,19.7,8.43,19.46ZM7,19.75c-.27,0-.25.06-.27.3a.69.69,0,0,0,0,.08c0,.16.07.17.28.17s.25,0,.25-.21v0c0-.23,0-.3-.26-.3H7Zm.45,2.94c.12,0,.28,0,.34-.08a.59.59,0,0,0,0-.28c0-.18-.22-.17-.37-.17s-.19.26-.19.4S7.3,22.69,7.42,22.69ZM6.74,19.1a.61.61,0,0,0,.42,0c.1-.08.12-.53-.06-.52h0a1,1,0,0,0-.37.06c-.07,0,0,.22,0,.31h0C6.69,19,6.66,19,6.74,19.1Zm1.6-1.77c-.08,0-.37,0-.42,0a.78.78,0,0,0,0,.32c0,.08,0,.16.12.16a1.21,1.21,0,0,0,.35,0c.08,0,.06-.18.07-.27S8.44,17.37,8.34,17.33ZM8.43,20c0-.15,0-.23-.22-.24s-.33,0-.33.17,0,.35.26.36h.14a.15.15,0,0,0,.11,0,.27.27,0,0,0,0-.18S8.43,20,8.43,20Zm3.44,6.42h0c-.2,0-.28,0-.31.22s0,.33.17.32.32,0,.35-.17S12.09,26.39,11.87,26.39ZM9.11,24.25c0,.22.08.24.29.25s.25,0,.24-.25S9.59,24,9.36,24,9.09,24,9.11,24.25ZM6.33,16.62a.32.32,0,0,0,.21,0c.1,0,.12-.52,0-.52a.9.9,0,0,0-.39,0l.12.21C6.33,16.43,6.25,16.56,6.33,16.62Zm.12,1.91c-.21,0-.17.12-.17.3s0,.27.22.23.12-.19.12-.33S6.6,18.53,6.45,18.53Zm.05.61H6.45c-.08,0-.14,0-.17.1s0,.36,0,.43a.19.19,0,0,0,.3-.11C6.63,19.42,6.67,19.16,6.5,19.13Zm-.07,1.14c.25,0,.18-.21.18-.41s-.21-.19-.3-.11,0,.15,0,.24a.38.38,0,0,1,0,.26ZM6.61,18c0-.11-.14-.13-.22-.09s-.08.13-.12.22v.09c0,.15,0,.21.19.2S6.61,18.21,6.61,18Zm-.27-.75a.34.34,0,0,0,.21,0s.07-.15.07-.27,0-.23-.08-.25,0,0,0,0v0h0c-.18,0-.2.16-.2.33S6.27,17.24,6.35,17.28Zm.14,0c-.11,0-.17,0-.19.12s0,.37.07.41a.18.18,0,0,0,.24-.12C6.64,17.6,6.67,17.32,6.49,17.32ZM7.91,22c.06.07.38.07.45,0s.07-.43,0-.55L8.16,22h0v0c0-.31,0-.61,0-.92l0-.09h0l0,0s0,0,0,0H7.88s0,0,0,0a.76.76,0,0,0,0,.43c0,.09.17.07.26.07s-.1,0-.16.07,0,0,0,.08S7.83,22,7.91,22Zm16-6a.05.05,0,0,1,0,0H24c.11,0,.12-.05.12-.16a1,1,0,0,0,0-.28c0-.1-.09-.08-.19-.08s-.33-.07-.33.14,0,.26,0,.35Zm.19.12s-.16,0-.23,0h-.21a.21.21,0,0,0,0,.22c0,.16-.07.29.15.31s.35.05.38-.12S24.19,16.18,24.11,16.12Zm1.72,2.41h-.25a.18.18,0,0,0-.12,0c-.06.06,0,.24,0,.31s0,.06,0,.06,0-.12,0-.16h0c0-.17,0-.23-.18-.24h-.13c-.1,0-.19,0-.22.12s0,.35.07.41.44-.08.63,0a1.08,1.08,0,0,0,.37,0c.08,0,.07-.11.07-.2s0-.22,0-.28A.17.17,0,0,0,25.83,18.53Zm-.41-3.27a.34.34,0,0,1,0,0,.08.08,0,0,0,0,0h0c0,.09,0,.15.08.17h.11l.21,0a.17.17,0,0,0,.13-.14h0A1.95,1.95,0,0,0,26,15a.13.13,0,0,0-.14-.13l-.2,0c-.16,0-.17.11-.2.24S25.43,15.22,25.43,15.26Zm-.33,6.22c.22,0,.26,0,.26-.25h0c0-.24,0-.28-.27-.28s-.26.05-.26.25v.07C24.83,21.47,24.9,21.48,25.1,21.48Zm-.57-6c-.18,0-.3,0-.31.17,0,0,0,.09,0,.14s0,.23.2.23.33,0,.34-.22c0,0,0-.08,0-.12S24.73,15.51,24.53,15.51ZM25,19.67a.68.68,0,0,0,.31,0c.09-.06,0-.18.05-.27s0,0,0-.07v0c0-.12,0-.18-.19-.18s-.31,0-.35.12S24.79,19.65,25,19.67Zm-1.25-4.24h0c.12,0,.36,0,.37-.12h0s0,0,0-.06,0-.29,0-.33a.47.47,0,0,0-.4,0h0l-.05,0h0a.13.13,0,0,1,0,.06h0a1.59,1.59,0,0,0,0,.34C23.54,15.47,23.66,15.43,23.75,15.43Zm1.93.68c-.09,0-.18,0-.22.07a.67.67,0,0,0,0,.3c0,.2.18.17.36.16s.18-.15.18-.34S25.88,16.11,25.68,16.11Zm-1,2.43-.23,0a.21.21,0,0,0-.16,0,.64.64,0,0,0,0,.4c0,.1.11.11.19.11h.22a.12.12,0,0,0,.09,0s0-.19,0-.25a.63.63,0,0,0,0-.07h0s0,0,0,0S24.76,18.56,24.64,18.54Zm.52-2.5c.18,0,.2-.06.2-.19v-.1c0-.24,0-.25-.26-.25s-.27,0-.27.27c0,0,0,.06,0,.1a.18.18,0,0,0,.05.15C24.94,16.07,25.09,16,25.16,16Zm-1.09,1.28a.78.78,0,0,0-.3,0c-.11,0-.13,0-.15.14s0,.11,0,.18a.44.44,0,0,0,0,.14c0,.07.07.08.13.08h.06c.12,0,.3.05.34-.11a0,0,0,0,0,0,0,1,1,0,0,0,0-.14C24.17,17.47,24.14,17.36,24.07,17.33Zm.19,1.11c.07.06.43.07.48,0a.5.5,0,0,0,0-.2.44.44,0,0,1,0,.19,1.11,1.11,0,0,0,0-.42,1.1,1.1,0,0,0-.46,0C24.18,18,24.14,18.39,24.26,18.44Zm.83-.52c-.26,0-.27.07-.26.32s.09.22.3.22.23,0,.23-.26S25.33,17.92,25.09,17.92ZM25.35,15c0-.08-.14-.05-.22-.08-.24,0-.28,0-.3.23,0,0,0,.08,0,.1s0,.19.21.19.32,0,.33-.16c0,0,0-.11,0-.17A.28.28,0,0,0,25.35,15Zm-1.63,3.47a.23.23,0,0,0,.14,0h.09c.08,0,.15,0,.18-.11a.75.75,0,0,0,0-.38.26.26,0,0,0-.18,0l-.2,0c-.13,0-.12.15-.12.28h0C23.6,18.43,23.6,18.46,23.72,18.46Zm2.72-4.15h-.06c-.2,0-.33,0-.34.19s0,.33.24.32c.07,0,.22,0,.27,0s0-.24,0-.31S26.54,14.31,26.44,14.31Zm-2.19,1.84c-.06.06,0,.19,0,.26s0,.23.1.24.38.08.41-.12,0-.34,0-.4A.76.76,0,0,0,24.25,16.14ZM26,17.49c0-.19-.09-.17-.27-.17s-.26,0-.27.26v0c0,.15,0,.23.18.24s.25,0,.32,0a.24.24,0,0,0,.05-.18C26,17.58,26,17.53,26,17.49Zm-.86-.17c-.24,0-.27,0-.28.27s0,.26.28.26.25-.05.25-.28S25.35,17.32,25.11,17.32Zm-1-.57c0-.06-.19,0-.25,0s-.25,0-.26.19,0,.33.19.34c.07,0,.26,0,.31,0s0-.24,0-.29S24.17,16.81,24.13,16.75Zm-.2,1.78c-.19,0-.3,0-.31.22s0,.32.27.32.27,0,.27-.27S24.14,18.52,23.93,18.53Zm.57-1.21c-.21,0-.26,0-.27.21s0,.33.26.32.27-.06.27-.31S24.71,17.32,24.49,17.32Zm0-3c-.07,0-.2,0-.25,0s0,.22,0,.29,0,.2.18.2a.63.63,0,0,0,.26,0c.12-.06.08-.25.08-.36S24.67,14.3,24.5,14.29Zm1.93,3c-.22,0-.37-.07-.38.2s0,.33.26.33h.15a.13.13,0,0,0,.12-.12,1.13,1.13,0,0,0,0-.17C26.59,17.44,26.56,17.31,26.43,17.32ZM24.59,14.9c-.29,0-.35,0-.35.33h0c0,.2.07.21.25.21h.05c.12,0,.21,0,.22-.18s0-.12,0-.17S24.74,14.91,24.59,14.9Zm.9,3.54a.78.78,0,0,0,.41,0,.13.13,0,0,0,.07-.14.58.58,0,0,1,0-.07v-.08c0-.23,0-.23-.27-.23s-.22,0-.25.17a1.06,1.06,0,0,0,0,.18A.17.17,0,0,0,25.49,18.44Zm-.64-1.82c.06.06.33,0,.4,0s.1-.15.1-.28,0-.17,0-.22-.13,0-.21,0-.26,0-.29.11S24.8,16.57,24.85,16.62Zm1.09-1.83c.05-.06,0-.24,0-.3s0-.2-.15-.19-.29,0-.35.1-.06.36,0,.42A.62.62,0,0,0,25.94,14.79Zm-.12,1.92c-.09,0-.25,0-.32,0s-.06.2-.05.29.09.22.31.22.2,0,.21-.13S26,16.68,25.82,16.71Zm-.62,4.84c-.15,0-.34-.05-.37.12a.84.84,0,0,0,0,.35c.07.14.47.1.5-.05a.55.55,0,0,0,0-.27C25.34,21.58,25.32,21.55,25.2,21.55Zm.15-4.75c0-.15-.22-.1-.35-.09s-.19.08-.16.22V17c0,.12-.06.21.09.25a.9.9,0,0,0,.35,0C25.38,17.19,25.37,16.9,25.35,16.81Zm.71.39a.55.55,0,0,0,.44,0c.12-.06.07-.32.06-.44s-.41-.14-.5-.05A.58.58,0,0,0,26.06,17.19Zm.44-1c-.13,0-.27,0-.4,0H26a1.09,1.09,0,0,0,0,.31c0,.16.11.13.25.13s.21,0,.25-.08a1.78,1.78,0,0,0,0-.22.25.25,0,0,0,0-.13Zm-1.54,6c-.18,0-.12.19-.13.3,0,.26.11.21.33.23a.86.86,0,0,0,.15-.53A1.68,1.68,0,0,1,25,22.16Zm1.12-6.65A.69.69,0,0,0,26,16l0,0h.23c.05,0,.16,0,.2,0l0,0h0l0-.09A3.87,3.87,0,0,0,26.08,15.51Zm-.22,4.23h-.09a.57.57,0,0,0-.29,0c-.08.05,0,.14,0,.23s0,.21,0,.27a.21.21,0,0,0,.19,0l.06,0,.15-.46h0Zm-.44.79c0,.1,0,.41.1.29l0,0a1.89,1.89,0,0,1,.12-.43h0C25.48,20.31,25.43,20.35,25.43,20.53Zm-.68,2.74s0-.05,0-.08,0-.25,0-.38a.12.12,0,0,0-.05,0c0,.11,0,.22,0,.33S24.6,23,24.58,23a1.28,1.28,0,0,0-.09-.21h-.08c-.13,0-.18,0-.19.22s0,.25,0,.3a.85.85,0,0,0,.48,0h0v0Zm.08-.44q0,.2,0,.39h0l0,0a3.56,3.56,0,0,0,.22-.41H25A.12.12,0,0,0,24.84,22.83Zm-.94,1.07c.22,0,.25,0,.25-.26s0-.26-.26-.26-.27,0-.27.26S23.66,23.9,23.91,23.9Zm-.61,1.28c-.09,0-.21,0-.26.07a.59.59,0,0,0,0,.29c0,.16.08.17.21.18h.06c.14,0,.24,0,.26-.12a.91.91,0,0,0,0-.33C23.5,25.15,23.39,25.18,23.29,25.18Zm.59-1.89c.23,0,.26-.05.26-.25V23c0-.21-.07-.22-.27-.22s-.25,0-.25.26h0C23.63,23.26,23.65,23.29,23.89,23.29Zm.06-1.13c-.25,0-.3,0-.32.25s0,.28.21.28H24c.18,0,.2,0,.2-.25S24.17,22.16,23.95,22.16ZM24,24.57h-.2a.24.24,0,0,0-.14,0c-.09.07,0,.24,0,.34h0v0c0,.21.23.18.39.17s.13-.14.13-.29S24.17,24.58,24,24.57Zm0-.6h-.1c-.17,0-.29,0-.29.17a1,1,0,0,0,0,.27c0,.09.07.08.17.08s.34.06.35-.14S24.19,24,24,24Zm.64-.59c-.22,0-.42-.08-.43.19v0c0,.24,0,.31.29.31a3.91,3.91,0,0,0,.24-.46C24.74,23.39,24.7,23.38,24.65,23.38Zm-.43.76c0,.15-.06.4.17.34a1.49,1.49,0,0,1,.08-.51h-.06C24.29,24,24.23,24,24.22,24.14Zm.06.44c-.11,0-.14.53.06.52a2.23,2.23,0,0,0,0-.43S24.35,24.58,24.29,24.58Zm-2.57.65c0-.07-.15-.05-.22-.05h0c-.22,0-.28,0-.28.23s0,.3.25.3a.79.79,0,0,0,.18,0,.1.1,0,0,1,.08-.08.46.46,0,0,0,0-.13C21.73,25.43,21.76,25.29,21.72,25.23Zm-.07.57a.47.47,0,0,0-.19,0c-.23,0-.26,0-.26.26s0,.26.29.26.24-.05.25-.27a.46.46,0,0,0,0-.2A.12.12,0,0,1,21.65,25.8Zm.07-1.17c-.05-.08-.15-.05-.24-.05-.26,0-.29.05-.28.31s0,.2.14.22.41.05.4-.15S21.77,24.7,21.72,24.63Zm-.61.59c-.06-.06-.12,0-.19,0s-.28,0-.31.08a.73.73,0,0,0,0,.41c.06.06.33,0,.4,0s.1-.15.1-.28S21.16,25.27,21.1,25.22Zm1.12.57c-.1,0-.32,0-.38,0s0,.23,0,.3.06.18.22.19.25,0,.3-.08S22.39,25.78,22.22,25.79ZM7,16.11c-.24,0-.27.08-.27.28,0,0,0,0,0,0,0,.24.12.21.34.21s.19-.07.2-.27v0C7.23,16.14,7.18,16.11,7,16.11Z" style="fill:#644d31"/><path d="M12.3,24l-.07-.07-.08-.08a.22.22,0,0,0-.23-.05.21.21,0,0,0-.13.18c0,.11,0,.22,0,.32a2.14,2.14,0,0,1,0,.42l-.05.22H12l0-.1.14-.28.14-.28h0a.24.24,0,0,0,0-.27Zm9.88-1.36-.06,0a.31.31,0,0,0-.29,0l0,0a.26.26,0,0,0-.2.27,7.11,7.11,0,0,0,.09.86l.09.57.25-.52a.65.65,0,0,0,.06-.2v0l.07-.43,0-.2v0a.33.33,0,0,0,0-.26Zm-.35-2.51-.23,0a1.65,1.65,0,0,1-.6,0h-.91l.64.35a1.13,1.13,0,0,0,.59.19l.21,0h.09l.35,0a4.68,4.68,0,0,0,.7-.06l.51-.08-.45-.26A1.46,1.46,0,0,0,21.83,20.11ZM9.92,19.95a.23.23,0,0,0,.13,0l0,0,0,0h0a3.07,3.07,0,0,1,1.32-.58l.63-.11c.5-.09,1-.18,1.52-.3a1.86,1.86,0,0,0,.37-.1l1.42-.59-2.17.36-.36,0-1.14.13h0a3.17,3.17,0,0,0-1,.23l-.32.15-.36.17a.48.48,0,0,0-.31.52v.2Zm13.8-.28a1.11,1.11,0,0,0-.52-.2l-.39-.05a.2.2,0,0,0,.1,0,.3.3,0,0,0,.12-.16l0-.05v-.05L23,19,23,19v0l-1-1.47-.31-.27h0l.19.1.18.1a.26.26,0,0,0,.2,0l.24-.07-.14-.2a5.07,5.07,0,0,0-1.06-.89,5.25,5.25,0,0,1-.52-.4l0,0h0l0,0h0a3,3,0,0,0-.39-.14h0a1.66,1.66,0,0,1,.38.11,7.39,7.39,0,0,1,.82.43,1.16,1.16,0,0,0,.25.14l.74.32-.53-.6a8.17,8.17,0,0,0-2.36-1.93h0a1.35,1.35,0,0,0-.86,0h0a.25.25,0,0,0-.18.33,2.33,2.33,0,0,1,.07.72v.11a.27.27,0,0,0,.17.27l-.08.06a.32.32,0,0,0-.08.24V16l-.06-.11v.57a.42.42,0,0,0,0,.18v0h0v.06l0,0,0,0h0l0,.09h0a.2.2,0,0,0-.18,0,.21.21,0,0,0-.1.08.81.81,0,0,0-.07-.57l0,0h.06l.07-.08a.79.79,0,0,0,.12-.35v0a2.17,2.17,0,0,0,0-1,2.45,2.45,0,0,0-.89-1.42,4.13,4.13,0,0,0-1.56-.75,3.9,3.9,0,0,0-1.88.24l-.15,0-.32.11a1.74,1.74,0,0,0-.27.14,6.48,6.48,0,0,0-1,.75l0,0,0,0h0l-.22.19-.1.09-.06.06A9.42,9.42,0,0,0,11,15.6a4.23,4.23,0,0,0-.35.62c0,.1-.1.19-.15.29a3.42,3.42,0,0,0-.19.37l-.27.67.55-.46c.23-.19.44-.4.65-.6l0,0,0,0,0,0a1.67,1.67,0,0,1,.27-.23l.22-.14a4.89,4.89,0,0,1,1-.55l0,0,.25-.1,0,0a1.77,1.77,0,0,1,.41-.14l.31-.05.49-.09a4.65,4.65,0,0,1,1-.11,5,5,0,0,1,.92.12,2.64,2.64,0,0,0-.49,0l-.83,0a4,4,0,0,0-.76.09,6.52,6.52,0,0,0-2.67,1.32,11.34,11.34,0,0,0-1,.95l-.29.29-.08.1-.82,1.29a1,1,0,0,0-.13.3L9,19.89l.4-.31,0,0,.1-.08a3,3,0,0,1,1.13-.58h0a5.91,5.91,0,0,1,1.52-.3,13.23,13.23,0,0,0,2.26-.4,4.43,4.43,0,0,0,1.36-.55,5.31,5.31,0,0,0,.58-.44.7.7,0,0,1-.13.38,1.92,1.92,0,0,1-.75.55h0a8.91,8.91,0,0,1-1.76.68c-.24.07-.49.12-.73.17l-.64.14-.47.11a4.56,4.56,0,0,0-1.23.38,1.64,1.64,0,0,0-.75.77.85.85,0,0,0-.06.57l.12.46.22-.43.06-.12a1.11,1.11,0,0,1,.12-.21,1.17,1.17,0,0,1,.75-.45c.19,0,.39-.06.59-.08l.28,0c.36,0,.73-.07,1.08-.1s.88-.07,1.33-.13a4.52,4.52,0,0,0,1.89-.63l.3-.19a4.61,4.61,0,0,0,.86-.65,3.18,3.18,0,0,0,.66-.9,1.38,1.38,0,0,0,.37,1.26l.05.05a4.06,4.06,0,0,0,1.14.77,7.23,7.23,0,0,0,1.15.41,1.42,1.42,0,0,0,.49,0h.06a8.48,8.48,0,0,1,1.13-.08h.22a6.6,6.6,0,0,1,.86.05l.7.1ZM19.58,18l.5.37.17.12a2.71,2.71,0,0,0,.71.42l.32.12.46.17.12,0,.08,0h0l.52.1a10.82,10.82,0,0,1-1.24-.22,1.69,1.69,0,0,1-.71-.33L19.58,18Z" style="fill:#885630"/><path d="M20.38,26.87l-.32-.8L20,25.93v0a.17.17,0,0,0-.05-.08l0,0-.11.13a2.91,2.91,0,0,1-.5.6l-.06.08a2.36,2.36,0,0,1-.54.33l-.35.18-.13.08h.33a3.45,3.45,0,0,1,1.21.29c.13.06.14.17.16.31s0,.05,0,.05h-.09a10.75,10.75,0,0,0-1.41-.4l-.4-.1h-.07a.09.09,0,0,0-.07.08.14.14,0,0,0,.11.2l.22.07.43.14a4,4,0,0,1,1.12.48.22.22,0,0,0,.12,0A.39.39,0,0,0,20,28.3a.46.46,0,0,0,.25-.62.6.6,0,0,1,.09-.58A.21.21,0,0,0,20.38,26.87Zm-5,.65a3,3,0,0,1-.46,0,1.86,1.86,0,0,1-.34,0s0,0,0-.05a0,0,0,0,1,0,0h0l.33-.07a4.5,4.5,0,0,1,.92-.15v0h0a.16.16,0,0,1,0,0v0h0a1,1,0,0,1-.38-.16l-.13-.08a1.91,1.91,0,0,1-.82-.81,2,2,0,0,0-.22-.3l-.1-.12-.05-.07,0,.08,0,.14a3.71,3.71,0,0,1-.13.37.71.71,0,0,0,0,.65.19.19,0,0,1,0,.23l-.21.23-.14.16h0a.13.13,0,0,0,0,.13.68.68,0,0,1,0,.1.33.33,0,0,0,.14.28s0,0,0,0v.62a.15.15,0,0,0,0,.13.86.86,0,0,0,.35.12h0a.17.17,0,0,0,.09-.11l0,0,0,0v0a2.7,2.7,0,0,0,.3-.2,1.94,1.94,0,0,1,.39-.24l.46-.22a3.54,3.54,0,0,1,1-.38l.28,0-.28,0A2.91,2.91,0,0,0,15.39,27.52Zm2.27-.17a.12.12,0,0,0,0-.09.11.11,0,0,0-.08,0h0a1.62,1.62,0,0,1-.32,0h-.39a.08.08,0,0,0-.06.07.14.14,0,0,0,.12.16,1.39,1.39,0,0,0,.34,0h0l.35,0a.12.12,0,0,0,.11-.14Z" style="fill:#fff"/><path d="M26.83,12.9a.16.16,0,0,0,.12-.16c0-.22,0-.45.05-.68s.05-.61.08-.94H27c-1.79.52-3.7,1-5.49,1.54-.09,0,0,.17,0,.23.28.49.58.95.86,1.44,0,0,0,.06.08.07l.08,0,4.25-1.48Zm-.26-1.29c.19,0,.29.1.3.31a.38.38,0,0,1-.34.38A.33.33,0,0,1,26.2,12,.37.37,0,0,1,26.56,11.61ZM7.73,15.07l.85.12,1.31.18h0c.05,0,.06,0,.07-.09.12-.38.23-.77.35-1.15,0-.08,0-.11-.08-.13l-2.44-.64-2.44-.65h0a0,0,0,0,0,0,0v0a.15.15,0,0,0,0,0c-.06.6-.12,1.2-.19,1.8,0,.08,0,.11.06.12h0Zm-2-1.6A.39.39,0,0,1,6,13.4a.31.31,0,0,1,.34.24.57.57,0,0,1-.12.68.36.36,0,0,1-.48,0,.59.59,0,0,1,0-.84Z" style="fill:#fff"/><path d="M26.56,11.61a.38.38,0,0,0-.36.37.33.33,0,0,0,.32.32.39.39,0,0,0,.34-.38C26.85,11.7,26.75,11.6,26.56,11.61ZM6,13.4a.39.39,0,0,0-.27.07.58.58,0,0,0,0,.84.36.36,0,0,0,.48,0,.56.56,0,0,0,.12-.68A.31.31,0,0,0,6,13.4Z" style="fill:#1a1a1a"/><path d="M26.62,13.26c.18-.06.35-.14.53-.19a.17.17,0,0,0,.13-.18c.06-.76.12-1.53.18-2.29,0-.11,0-.13-.12-.09L25.62,11c-.18.05-.18.05-.26-.12-.29-.65-.52-1.33-.76-2a.5.5,0,0,1,0-.4,1.89,1.89,0,0,0,0-.71,12,12,0,0,0-.33-2,7.59,7.59,0,0,0-.63-1.6c-.29-.55-.6-1.08-.93-1.61a1.27,1.27,0,0,0-.55-.54A.89.89,0,0,0,21.92,2a.26.26,0,0,0-.25.12.52.52,0,0,0-.09.54c.24.52.46,1,.67,1.58l0,.08a.09.09,0,0,1-.08-.05,8.48,8.48,0,0,0-1.26-1,16.16,16.16,0,0,0-1.9-1.1.73.73,0,0,0-.27-.08L18.31,2a.37.37,0,0,0-.45.37c0,.14-.06.17-.17.18a.34.34,0,0,0-.25.24.88.88,0,0,0,.29.78c.56.52,1.1,1.07,1.64,1.61a.12.12,0,0,1,.05.06s-.06,0-.07,0l-.24-.15L18,4.33a1.19,1.19,0,0,0-.58-.22.57.57,0,0,0-.49.18.35.35,0,0,0-.11.32.56.56,0,0,0,.28.39,10.31,10.31,0,0,1,1.72,1.48l.15.14a1.42,1.42,0,0,1,.33.45c0,.08,0,.09-.05.09a7.64,7.64,0,0,0-1.57.26.57.57,0,0,0-.5.35c-.08.26-.12.41.2.49a12.08,12.08,0,0,1,1.88.65.6.6,0,0,1,.15.1,4.17,4.17,0,0,0,.46.38,4.91,4.91,0,0,0,1.54.74l.19.06a.15.15,0,0,1,.12.12.5.5,0,0,0,.38.41l.08,0a.18.18,0,0,1,.12.14c.08.3.17.6.27.9,0,.1,0,.13-.09.15l-1.4.42c-.17.05-.17.05-.08.21l1.15,2.06c.16.29.17.29.46.14,0,0,.07-.07.1,0s.08.11,0,.16a5.66,5.66,0,0,0-.36.53.11.11,0,0,0,0,.15l.38.63a1.86,1.86,0,0,1-.12.54,3.2,3.2,0,0,0-.4-.9,12.69,12.69,0,0,0-.78-1l-.14-.15a4.09,4.09,0,0,0-.88-.6A1.29,1.29,0,0,0,20,14a2.75,2.75,0,0,0-1.41,0,.16.16,0,0,1-.21-.08,2.21,2.21,0,0,0-.36-.47,4.14,4.14,0,0,0-1.24-.74,3.72,3.72,0,0,0-1.09-.21,5.38,5.38,0,0,0-.58,0,3.07,3.07,0,0,0-1.44.37c-.09.05-.19.08-.28.14a5.48,5.48,0,0,0-1.28.86c-.39.38-.78.77-1.13,1.19a7.69,7.69,0,0,0-1,1.6.2.2,0,0,1-.09.12l-.15-.94c0-.06,0-.05.07,0l.33,0c.08,0,.13,0,.15-.1l.08-.39c.1-.5.25-1,.38-1.48,0-.09,0-.13-.09-.15l-1.44-.36c-.09,0-.13-.05-.11-.15A11.45,11.45,0,0,1,9.39,12a.22.22,0,0,1,.07-.11.43.43,0,0,0,.2-.38.26.26,0,0,1,.18-.27c.23-.11.45-.24.67-.36a1.06,1.06,0,0,0,.41-.42,23.39,23.39,0,0,1,1.24-2.28A1.36,1.36,0,0,1,12.28,8a11.91,11.91,0,0,1,1-1,.45.45,0,0,0,.15-.36.59.59,0,0,0-.19-.38.39.39,0,0,0-.35-.18l-.11,0s.06-.06.1-.08l1.28-.83,1.55-1c.07,0,.1-.08,0-.14s-.15-.18-.3-.09l-4.34,2.7c-.13.08-.13.08-.19-.06a10,10,0,0,1-.33-1,.14.14,0,0,1,.06-.17c.36-.29.7-.62,1-.94A.76.76,0,0,0,11.86,4c0-.22-.12-.33-.31-.25l-.28.13A13.15,13.15,0,0,1,8.57,5c-.05,0-.1,0-.15,0a1.67,1.67,0,0,0-.35-.26.09.09,0,0,0-.08,0,.53.53,0,0,0-.34.18c-.2.29-.45.55-.64.86s-.42.71-.66,1c0,.06-.06.07-.11,0l-.8-1.41a3.58,3.58,0,0,0-.28-.43.48.48,0,0,0-.45-.2s-.08,0-.09,0a1.38,1.38,0,0,0-.07.42,8.26,8.26,0,0,0,.19,1c.15.58.31,1.15.48,1.72S5.57,9,5.75,9.57c0,0,0,.09,0,.13s-.22.07-.24.16.06.19.1.28.05.2.11.23.14-.06.21-.1.08,0,.11,0l.48,1.11a.23.23,0,0,1,0,.17,5.22,5.22,0,0,0-.24.91c0,.09,0,.09-.12.07l-1.05-.27c-.15,0-.15,0-.17.12-.08.85-.15,1.69-.23,2.53,0,.08,0,.11.08.12l.73.11s.08,0,.07.08c-.05.28-.1.57-.16.85a.22.22,0,0,0,0,.21l.25.33a.24.24,0,0,1,0,.26.25.25,0,0,0,0,.15c0,.52,0,1,0,1.57,0,.25,0,.51,0,.76,0,.68.05,1.35.08,2,0,.33,0,.66,0,1,0,.08,0,.13.11.15l.6.21a.35.35,0,0,1,.23.2.55.55,0,0,1,0,.28.21.21,0,0,0,.1.2l.93.68,2.47,1.82c.08.06.09.1,0,.18s-.07.17-.11.25a.11.11,0,0,0,0,.17l.3.24a.25.25,0,0,1,.06.26c0,.06-.11,0-.17,0l-.12,0c-.39-.06-.78-.16-1.18-.2a17.37,17.37,0,0,0-1.91-.09s-.08,0-.09,0,0,.11,0,.15l.1,0a6.05,6.05,0,0,1,1,.49,4.05,4.05,0,0,0,.65.34s.08,0,.14,0l-1.05-.84a.15.15,0,0,1,.12,0,8.21,8.21,0,0,1,1.25.19q1.35.32,2.68.72a3,3,0,0,1,.86.31.17.17,0,0,1,.09.16,4.56,4.56,0,0,1-.67,0,13.61,13.61,0,0,0-1.76-.12c-.44,0-.88,0-1.32,0-.62,0-1.25.12-1.87.19,0,0-.08,0-.08,0a.1.1,0,0,0,.08.11l.14,0,.94,0c.78,0,1.57,0,2.35.05.28,0,.57,0,.84.06,1.3.24,2.59.5,3.88.78a1.93,1.93,0,0,1,.45.13c-.07.06.43,0,1.34.44a.18.18,0,0,1,.08-.17,7.14,7.14,0,0,0,.77-.71,7.61,7.61,0,0,1,.76-.67s.05-.06.1,0l.71.28-1.37.83-.07,0a1,1,0,0,0-.43.25c-.47.47,1.35-.28,1.27-.36A16.36,16.36,0,0,1,22.4,28c1.31-.45,2.65-.81,4-1.16l-.09,0-.26,0a6.43,6.43,0,0,0-1.1.17.31.31,0,0,1-.14,0c0-.08.26-.33.32-.31s.08-.09.13-.1a.88.88,0,0,1,.25-.24l.2-.11c.2,0,.4-.24.61-.33a3.11,3.11,0,0,0-.91.18c-.62.23-1.26.41-1.87.68-.94.41-1.87.82-2.77,1.31l-.1,0c0-.22,0-.43-.07-.64,0,0,0-.06.05-.08.8-.42,1.6-.84,2.43-1.18s1.36-.59,2.05-.87a5.85,5.85,0,0,0-.47.86.07.07,0,0,0,.08,0l.42-.45a5.23,5.23,0,0,1,.89-.81c0-.1,0-.08,0-.07l-.93.19c-.1,0-.1,0-.1-.08,0-.25,0-.49,0-.74A.8.8,0,0,1,25.1,24l.38-.85a1.77,1.77,0,0,0,.12-.45c0-.24.07-.49.09-.73s.17-.73.24-1.1a7.17,7.17,0,0,1,.32-1.4c.16-.4.31-.8.47-1.2a10.72,10.72,0,0,0,.64-1.63.84.84,0,0,0,0-.58,2.49,2.49,0,0,1-.1-.34.49.49,0,0,1,0-.26,1.24,1.24,0,0,0-.08-.9c0-.08,0-.13.05-.18s.12-.17,0-.29-.22-.28-.34-.41l-.29-.33C26.53,13.32,26.54,13.29,26.62,13.26Zm-4.09-2.78c0-.08-.07-.13-.16-.11s-.17,0-.22-.12a1.26,1.26,0,0,0-.27-.45,1.4,1.4,0,0,0-.51-.15c-.13,0-.26-.07-.39-.09a1.8,1.8,0,0,1-.77-.35c-.38-.28-.78-.54-1.18-.79a2.36,2.36,0,0,1-.38-.08l-1.05-.22c-.08,0-.1-.08-.11-.14a.17.17,0,0,1,.08-.18,1,1,0,0,1,.37-.1,12.23,12.23,0,0,1,1.7-.16,1.45,1.45,0,0,1,.39.08.23.23,0,0,0,.21,0l.82-.53s.12,0,.09-.12l0,0-.05,0H21a1.46,1.46,0,0,0-.84.25.36.36,0,0,1-.39-.07,8.48,8.48,0,0,0-1.62-1.63c-.26-.22-.51-.46-.78-.66a.21.21,0,0,1-.05-.25c.06-.09.14-.05.21,0a3.77,3.77,0,0,1,.67.37,24.81,24.81,0,0,0,2.24,1.37l.06,0c.12,0,.18,0,.16-.13A.34.34,0,0,0,20.57,6c-.61-.72-1.26-1.42-1.9-2.12a5.54,5.54,0,0,0-.44-.4,1.08,1.08,0,0,1-.28-.35.2.2,0,0,1,0-.24.12.12,0,0,1,.17,0,3.47,3.47,0,0,1,.61.37l1,.76,1,.76.08.06.18.18,0,0a.45.45,0,0,0,.08.08c.07,0,.14.08.22,0a.12.12,0,0,0,0-.07.08.08,0,0,0,0,0h0a.22.22,0,0,0-.05-.09l-.23-.24c-.13-.13-.25-.26-.39-.38-.44-.37-.89-.72-1.34-1.07a6.88,6.88,0,0,0-.75-.44.92.92,0,0,1-.22-.2.18.18,0,0,1,0-.19c0-.07.09-.06.15-.07a.46.46,0,0,1,.25.06c.58.29,1.16.6,1.72.93l.14.08c.31.2.61.43.9.66a2.5,2.5,0,0,1,.36.41c0,.06,0,.12,0,.16a.51.51,0,0,1-.11.07s-.09.05-.08.11.07.06.12.07a.34.34,0,0,0,.2,0c.21-.09.39.06.53.21s.05.12.12.09.08-.1.07-.17a3.88,3.88,0,0,0-.11-.56,8.76,8.76,0,0,0-.53-1.35l-.21-.48A.23.23,0,0,1,22,2.37c0-.05.1,0,.15,0a.84.84,0,0,1,.39.42c.1.19.22.37.33.55a10.51,10.51,0,0,1,.55,1A9.31,9.31,0,0,1,24,5.81a12.26,12.26,0,0,1,.32,1.41c0,.18,0,.36,0,.53a1.85,1.85,0,0,1-.15,1,.3.3,0,0,0,0,.26c.32.67.58,1.37.85,2.06,0,.09,0,.13-.08.15l-1.83.55c-.09,0-.12,0-.14-.08-.15-.41-.3-.81-.45-1.22Zm-3.82,3.84a1.2,1.2,0,0,1,.76,0h0a6.91,6.91,0,0,1,1,.33.35.35,0,0,1,.14.1,2.56,2.56,0,0,1,.54.51c.24.31.48.62.7,1l0,0h0a1.28,1.28,0,0,1-.23-.13,8.14,8.14,0,0,0-.85-.45,1.85,1.85,0,0,0-.42-.13,4.17,4.17,0,0,0-1.15-.05h-.32a.1.1,0,0,1-.12-.12,2.89,2.89,0,0,0-.08-.88c0-.06,0-.08.07-.1Zm-.08,2.18v-.26a0,0,0,0,1,0,0,.05.05,0,0,1,0,0v-.34c0-.1,0-.14.14-.14h.56a2.82,2.82,0,0,1,.48,0,1.27,1.27,0,0,1,.69.21l.35.18.84.51a.49.49,0,0,1,.15.14l.28.4s0,0,0,.07l0,0h0a.09.09,0,0,1-.06,0l-.38-.21a6,6,0,0,0-1.37-.55l-.13,0a2.53,2.53,0,0,0-.41-.1l-.19,0s0,0,0,0l0,0,.05,0h0c.29.15.77.24,1.13.4h0l-.12-.05,0,0h0l0,0,.12.05h0l.08,0a3.91,3.91,0,0,1,.55.37l.34.26a2.51,2.51,0,0,1,1,1.48v.07a.16.16,0,0,1,0,.12v0c0,.09-.08.05-.12.05a3.16,3.16,0,0,1-.77-.14h0L21.77,19l-.78-.3a3.51,3.51,0,0,1-.84-.52,9.81,9.81,0,0,1-1.26-1,.43.43,0,0,1-.1-.13l-.08-.19,0-.12,0-.08h0a.21.21,0,0,1,0-.13Zm1.91.19h0Zm0,0h0l-.06,0h0l.06,0Zm-.6-.2Zm-.15,0s0,0,0,0h0s0,0,0,0Zm-1.2-2a.11.11,0,0,0,0,0,.1.1,0,0,1,0,0Zm-.14,2.68s0,0,0,0h0l0,0a1.94,1.94,0,0,0,.38.5c.16.15.33.29.49.44q.51.46,1,.9a1.91,1.91,0,0,0,.78.36,17.74,17.74,0,0,0,2,.32.91.91,0,0,1,.47.2h0l0,0a9.22,9.22,0,0,0-1.12-.06,9,9,0,0,0-1.21.08,1.24,1.24,0,0,1-.42,0,6.76,6.76,0,0,1-1.12-.4,3.89,3.89,0,0,1-1.09-.74l-.07-.07a1.26,1.26,0,0,1-.26-.35h0a1.35,1.35,0,0,1,0-.89l.08-.26Zm3.29,5.31h-.08l-.15,0a.11.11,0,0,0-.11.07l-.07.14v0a1.94,1.94,0,0,1-.4.61l-.12.11-.32.26a2.46,2.46,0,0,1-.59.28l0,0,0,0h-.06s-.08,0-.06.12a.14.14,0,0,0,.15.1h.05l.19,0,.18-.08.13-.05a3.89,3.89,0,0,1-.11.43l0,.07-.11.24-.08.16a4.75,4.75,0,0,1-.51.83l-.13.15a2.13,2.13,0,0,1-.32.28l-.13.09-.26.15-.22.11-.08,0-.07,0-.05,0-.15.06,0,0-.16.05-.51.13-.21,0h0l-.21,0-.22,0a2.72,2.72,0,0,1-.74,0h-.06l-.18-.08-.23-.13-.16-.09-.2-.13a.8.8,0,0,1-.29-.35,2.27,2.27,0,0,0-.12-.25l0-.07a3.43,3.43,0,0,0-.35-.46l-.16-.18-.08-.09-.33-.35-.08-.08a3.52,3.52,0,0,0-.36-.31l-.1-.07-.31-.2-.08,0-.08,0a2,2,0,0,1-.78-.94v0a.26.26,0,0,0-.28-.16.79.79,0,0,1-.32-.06h0a.58.58,0,0,1-.17-.11l0,0-.07-.11a6.68,6.68,0,0,1-.49-.83h0v0h0l-.09-.25,0-.11a.48.48,0,0,1,0-.13.44.44,0,0,1,0-.06v-.06l0,0a.58.58,0,0,1,.16-.18l.08-.06.18-.12.28-.15a5.19,5.19,0,0,1,1.08-.4l.07,0,.13,0h.33l.45,0,.68-.05.68-.07a4.42,4.42,0,0,0,1.19-.3l.23-.11.14-.07.08,0,.54-.29a.12.12,0,0,1,.07,0h0v0a.08.08,0,0,1,0,0l0,0a4.84,4.84,0,0,1-.63.57l-.06.06-.21.17a2.67,2.67,0,0,0,.75-.1,2.09,2.09,0,0,0,.92-.55l.18-.21a3.06,3.06,0,0,0,.35-.61,2.11,2.11,0,0,0,.47.72l0,0,0,0,.08.08.06,0,.06,0,0,0,.4.31.28.19.41.29a4.06,4.06,0,0,0,.59.34l.15.07.48.18h0a2.14,2.14,0,0,0,.31,0h.12l.08,0,.08.06a.57.57,0,0,1,.19.28.09.09,0,0,1,0,0h0l0,.06c0,.06-.08.13-.11.19l0,0a.39.39,0,0,0,0,.33,2.05,2.05,0,0,0,.37-.48l.07-.15,0-.11s0-.07,0-.11,0-.09,0-.11h.13l.18,0s0,.06,0,.09h0a1,1,0,0,1-.09.31l0,.07a2.11,2.11,0,0,1-.24.47.79.79,0,0,1-.6.39ZM22,23c0,.21-.07.42-.11.63a.56.56,0,0,1-.06.21v-.05l0,0a6.69,6.69,0,0,1-.09-.89c0-.07,0-.08.08-.1s.16-.1.2-.07l0,0h0c.05,0,0,.14,0,.21Zm-4.48,4.5-.35,0a1.55,1.55,0,0,1-.35,0,.09.09,0,0,1-.08-.11s0,0,.05,0h.38a1.44,1.44,0,0,0,.3,0h.05s.07,0,.07.07,0,.1-.08.12ZM11.9,24.75h0A7,7,0,0,0,12,24c0-.05,0,0,.06,0l.14.14h0l0,0a.06.06,0,0,1,0,.08l-.28.57h0v0Zm9.75-4.2a2.26,2.26,0,0,0-.32,0,1.15,1.15,0,0,1-.57-.2h0l0,0h.09l.11,0a2.82,2.82,0,0,0,.89-.05,1.34,1.34,0,0,1,.83.22h0l0,0a4,4,0,0,1-1,0ZM10.3,16.68a5.85,5.85,0,0,1,.33-.55l.18-.26.1-.13.3-.37.31-.36.31-.36.15-.12,0,0c.1-.09.19-.17.3-.27h0l.08-.08a6.49,6.49,0,0,1,1-.74l.11-.06.14-.06,0,0,.22-.08.15,0L14.6,13a3.13,3.13,0,0,1,1-.15h.14a2.08,2.08,0,0,1,.72.21l.3.14.07,0,.22.12.14.08.14.09a2.45,2.45,0,0,1,.26.21,2.09,2.09,0,0,1,.58.91,3.46,3.46,0,0,1,.16.78,2.19,2.19,0,0,1-.12.75s0,0,0,0,0,0,0,0l-.27-.31A2.66,2.66,0,0,0,16.54,15a5.25,5.25,0,0,0-1.25-.19,4.83,4.83,0,0,0-1,.12l-.8.14a2.14,2.14,0,0,0-.49.18l-.23.1h0a6.28,6.28,0,0,0-1.29.72,2,2,0,0,0-.31.27h0L11,16.4c-.19.18-.38.37-.58.54a2.74,2.74,0,0,1-.34.34,1.78,1.78,0,0,1,.18-.6Zm-.08,1.21.05-.07a15.3,15.3,0,0,1,1.29-1.22,6.39,6.39,0,0,1,2.59-1.29,3.38,3.38,0,0,1,.72-.09l.83,0a2.6,2.6,0,0,1,1.47.41,2.56,2.56,0,0,1,.46.36l0,0a2.72,2.72,0,0,1,.41.52.7.7,0,0,1,0,.52,2.39,2.39,0,0,1-.75,1.24,6.69,6.69,0,0,1-1.14.82,4.29,4.29,0,0,1-1.81.6c-.8.12-1.61.13-2.41.24-.29,0-.58.06-.88.11a1.35,1.35,0,0,0-.86.52,2.94,2.94,0,0,0-.2.38v0a.67.67,0,0,1,0-.45,1.41,1.41,0,0,1,.67-.68,7.29,7.29,0,0,1,1.67-.47c.45-.12.92-.18,1.37-.31a9.13,9.13,0,0,0,1.8-.69,2.16,2.16,0,0,0,.83-.61.92.92,0,0,0,.15-.7s0-.06,0-.07,0,0-.06,0a6.25,6.25,0,0,1-.72.57,4.2,4.2,0,0,1-1.31.53,13.23,13.23,0,0,1-2.23.39,6.11,6.11,0,0,0-1.56.31,3.24,3.24,0,0,0-1.21.62l-.16.12v0l0,0h0l0,0a.76.76,0,0,1,.11-.25l.81-1.29Zm3,.8.66-.11.12,0a1.57,1.57,0,0,1-.43.14c-.71.18-1.43.28-2.14.41a3.28,3.28,0,0,0-1.39.61l-.08.05s0,0-.05,0a.06.06,0,0,1,0,0,.3.3,0,0,1,.21-.35l.68-.32a2.92,2.92,0,0,1,.94-.21l1.5-.18Zm0,0h0ZM10.63,6.85s0,.06,0,.08l-.32.2-.06,0,0-.06-.68-.78s-.06-.07,0-.1c.22-.13.39-.33.63-.44.06,0,.08,0,.11,0,.15.34.25.7.38,1ZM8.78,5.26c.32-.12.64-.25,1-.37A13,13,0,0,0,11,4.21l.13-.08s.07-.07.12,0,0,.1,0,.17,0,.14-.1.2c-.44.41-.89.79-1.36,1.16A3.9,3.9,0,0,1,9.27,6s-.07,0-.09,0l-.45-.58c-.06-.07,0-.07.06-.08ZM6,9.4c-.35-1.07-.71-2.13-1-3.22-.07-.25-.09-.51-.14-.77A.13.13,0,0,1,5,5.26c.07,0,.07,0,.09.08A19.43,19.43,0,0,1,6.26,7.45c.12.21.25.42.37.63,0,0,0,.07.1.05s.05-.07,0-.12a4.2,4.2,0,0,0-.24-.62.23.23,0,0,1,0-.2c.17-.36.42-.67.61-1s.4-.59.57-.91a.26.26,0,0,1,.42-.06,1.3,1.3,0,0,1,.23.29,5.17,5.17,0,0,0,.81.93c.21.21.41.41.63.59a.66.66,0,0,1,.12.24,0,0,0,0,1,0,.07l0,0a.45.45,0,0,1-.56,0,4,4,0,0,1-1.09-.81l0,0C8,6.42,8,6.43,8,6.6s-.11.35-.18.51,0,.12.06.16.08.12.17.11a.08.08,0,0,0,.07-.07L8.16,7a11.37,11.37,0,0,0,1.06.74l-.35.2L6.17,9.44c-.07,0-.1,0-.13,0Zm.31.7c0-.07,0-.1,0-.14l3.26-2c.06,0,.11,0,.17,0a1.66,1.66,0,0,0,.54-.21l0,0A1.06,1.06,0,0,1,11,7.21a7.74,7.74,0,0,0,1.5-.8.23.23,0,0,1,.3,0,.27.27,0,0,1,.1.28.7.7,0,0,1-.2.37A7,7,0,0,0,11.6,8.44a10.42,10.42,0,0,0-.79,1.4,1,1,0,0,1-.18.26,3.24,3.24,0,0,1-1.08.81.22.22,0,0,0-.14.2c0,.08,0,.15,0,.22a.61.61,0,0,1-.24.48.29.29,0,0,0-.08.16l-.35,1.15a.06.06,0,0,1,0,0s0,0,0,0a.2.2,0,0,1-.14,0C8,13,7.43,12.89,6.87,12.75l-.21,0c-.11,0-.12-.07-.07-.15a2.5,2.5,0,0,1,.38-1,.15.15,0,0,0,0-.19c-.24-.4-.42-.83-.62-1.25ZM5.18,14.72h0c-.05,0-.07,0-.06-.12q.1-.9.19-1.8v-.06a0,0,0,0,1,0,0h0l2.44.65,2.44.64c.08,0,.1,0,.08.13L10,15.28s0,.09-.07.09h0l-1.31-.18-.85-.12-2.55-.35Zm.67,1.16a.15.15,0,0,1,0-.11l0-.05v0a.35.35,0,0,1,0,.14Zm7.48,11.31h0s0,0,0,0l0,0,0,0a.24.24,0,0,0-.1.11h0s0,0,0,0h0v0c0,.09,0,.15-.06.2v.07l0,0h0l-.06,0-.17-.06h0l0,0h0l-.26-.08-.15-.05a.87.87,0,0,0-.19,0c-.18-.06-.35-.09-.52-.15h-.05l-.33-.08A.15.15,0,0,1,11,27a1.16,1.16,0,0,0,0-.15s0,0,0-.05l-.07-.11,0,0s0,0,0,0,0,0,0,0-.07-.21-.05-.32,0,0,0,0v-.1c0-.19.06-.37-.14-.48l-.07-.05h0l-.28-.21s0,0,0,0a1.79,1.79,0,0,1-.39-.29L9.78,25h0s0,0-.05,0l-.08,0c-.15-.13-.36-.25-.52-.4a.45.45,0,0,1-.14-.1H9l-.48-.34h0s0,0,0,0a1.74,1.74,0,0,1-.26-.18.08.08,0,0,0-.07,0c-.07-.06-.14-.09-.2-.14l-.08-.05a2.75,2.75,0,0,1-.5-.36l0,0,0,0,0-.05,0,0v0A4,4,0,0,1,7,22.78v0a.14.14,0,0,1,0,0,.15.15,0,0,1,0-.07v0a2.49,2.49,0,0,1,.21-.55v0a.23.23,0,0,0,0,0v0h0l-.07,0L7.05,22l0,0,0,0H7a1.84,1.84,0,0,1-.23.19s0,0,0,0h0a.07.07,0,0,1-.09,0l-.39-.17a.11.11,0,0,1-.05-.08V22h0a1.19,1.19,0,0,1,.07-.55.24.24,0,0,0,0,0,4.47,4.47,0,0,1,.09-.53v-.08h0c0-.19,0-.38,0-.58,0,0,0-.07,0-.1,0-.36,0-.72-.05-1.08,0-.75-.09-1.51-.07-2.26a.8.8,0,0,0-.06-.32l0-.07L6,16.19a.33.33,0,0,1-.06-.3c0-.18.08-.36.11-.54s0-.13.14-.1h.12c.16,0,.33,0,.49.08h0a2.74,2.74,0,0,1,.46.06h0l.55.08a.2.2,0,0,1,.12,0H8l.56.07h0l.29,0a2,2,0,0,0,.29,0h.05a.09.09,0,0,1,.09.09c0,.29.09.58.15.86,0,0,0,0,0,.06l0,.14.08.42a.2.2,0,0,0,0,0h0c0,.18.06.35.09.52v.06a2.16,2.16,0,0,0-.16.2,2,2,0,0,0-.22.38l-.13.28h0A1.94,1.94,0,0,1,9,19H9l0,0h0a4.29,4.29,0,0,1-.17.4l-.07.13s0,0,0,.07a1.47,1.47,0,0,1-.12.34,1,1,0,0,1-.09.28,2.65,2.65,0,0,1-.16.5.21.21,0,0,0,0,.07h0V21h0c0,.31,0,.62,0,.94h0l.12-.23.11-.23a.46.46,0,0,0,.06-.16c.09-.15.17-.3.27-.44s0,0,0-.05.17-.28.26-.42l.1-.15h0c0-.06.05-.07.08-.1a.28.28,0,0,1,.1-.08.51.51,0,0,1,0,.07h0a.16.16,0,0,1,0,0h0v0a.07.07,0,0,0,0,0s0,0,0,0v0h0a4.53,4.53,0,0,0,0,.58v0h0c0,.18.05.36.08.55h0a.21.21,0,0,1,0,.05c0,.18.07.37.09.55v0a.13.13,0,0,1,0,0,1.49,1.49,0,0,0,.21.37l.15.21h0a5.59,5.59,0,0,0,.45.39s0,0,.07,0h0v0c.06,0,.11.05.18,0l0,0,0,0s0,0,0-.05c-.25-.16-.21-.42-.24-.66h0a2.06,2.06,0,0,1,.15.18l0,0,.06.07.14.13a1,1,0,0,0,.16.11l.07,0h0l.51.26a.19.19,0,0,1,.1,0,1.4,1.4,0,0,1,.12.58s0,0,0,0a.08.08,0,0,1,0,0,2.07,2.07,0,0,1,0,.53.06.06,0,0,1,0,0v0h0a2,2,0,0,1,0,.52c0,.17-.06.34-.08.51v0s0,.07,0,.06h0c.16-.17.33-.34.48-.53h0a.17.17,0,0,1,.07-.12,2,2,0,0,0,.19-.25l.19-.26v0a.09.09,0,0,1,0-.06h0l.06,0,.1.06a1.53,1.53,0,0,1,.52.34s0,0,0,0a.49.49,0,0,1,.17.17l0,0h0c.24.2.26.31.08.58l0,0,0,.07,0,0v0a.75.75,0,0,0-.11.23.56.56,0,0,0,0,.21c0,.12.06.24.09.36a1.76,1.76,0,0,1,0,.22.33.33,0,0,1-.21.36Zm.81,1.48s0,.15-.11.14h0a.79.79,0,0,1-.34-.11s0-.07,0-.11V28s0-.08,0-.11-.1-.23-.13-.35,0-.07,0-.1l.35-.39a.23.23,0,0,0,.05-.28.67.67,0,0,1,0-.61c.07-.16.12-.34.18-.53l0,0h0a2.94,2.94,0,0,1,.31.42,1.93,1.93,0,0,0,.84.83,1.52,1.52,0,0,0,.52.24h0s.05,0,0,0,0,0,0,0h0a3.46,3.46,0,0,0-.62.08l-.32.07-.29.06h0s-.06,0-.05.07a.09.09,0,0,0,.08.09,1.65,1.65,0,0,0,.33,0h0a3.16,3.16,0,0,0,.45,0,3.06,3.06,0,0,1,.5,0,3.29,3.29,0,0,1,.48,0,6.63,6.63,0,0,0-1.48.6c-.25.11-.45.31-.69.44l0,.08Zm1.57.4h0l0,0-1.09-.27c.12-.1.22-.16.37-.1s.48.23.72.35h0s0,0,0,0Zm2.48-.45c-.28.22-.55.45-.81.7a.13.13,0,0,1-.18,0,11.78,11.78,0,0,0-1.38-.69c-.21-.09-.43-.12-.65-.2,0,0,.07,0,.11-.06.46-.17.94-.33,1.39-.53a.6.6,0,0,1,.35,0,.78.78,0,0,0,.5-.06.1.1,0,0,1,.09,0l1.07.44-.47.38Zm2.17-1.54a.63.63,0,0,0-.1.62.41.41,0,0,1-.23.57.29.29,0,0,1-.15,0,.16.16,0,0,1-.11,0,6.31,6.31,0,0,0-1.57-.62L18,27.57c-.09,0-.08-.08-.07-.15s0-.05.06,0,.06,0,.08,0a14.85,14.85,0,0,1,1.8.5l.05,0s.05,0,0-.1,0-.27-.18-.34a3.53,3.53,0,0,0-1.23-.29h-.19a6,6,0,0,0,.9-.51l.09-.08.5-.61.06-.1h0A.14.14,0,0,1,20,26l.38.94a.17.17,0,0,1,0,.19Zm6.48-12.87,0,0a0,0,0,0,1,0,0l0,0v0h0a.34.34,0,0,0,0,.52.1.1,0,0,1,0,0c.12.16,0,.32,0,.48s0,0,0,0h-.06l-.32-.1h0a.36.36,0,0,1-.15,0,.32.32,0,0,0-.37.06v0a.36.36,0,0,0,.21.12,5.72,5.72,0,0,1,.86.44.18.18,0,0,1,.07.19,1.1,1.1,0,0,1,0,.13l-.09.39a.16.16,0,0,1,0,.1c0,.21-.15.37-.22.55a.16.16,0,0,0,0,.05,4.07,4.07,0,0,1-.16.38l0,0h0a.33.33,0,0,1-.07.17,2.41,2.41,0,0,1-.24.55.09.09,0,0,0,0,0c-.08.18-.16.4-.24.6l-.05.22v0h0v0a.57.57,0,0,1,0,.24l0,.15v0l-.25,1.15c-.07.31-.1.64-.15,1s-.06.6-.13.89a3.08,3.08,0,0,1-.27.61,5.85,5.85,0,0,1-.26.56v0l0,0v.06a.23.23,0,0,0,0,0,.23.23,0,0,1,0,0v0a.91.91,0,0,1,0,.09,8.08,8.08,0,0,0-.05,1,.1.1,0,0,1-.07.12l-.07,0-.14.06-.08,0-.12,0h0l-.17.07-.12,0a.8.8,0,0,1-.27.12l0,0-.57.26h0a2.36,2.36,0,0,0-.31.14l-.33.14-.53.23h0c-.16.06-.33.15-.48.22l-.22.1c-.14.05-.17,0-.2-.09s-.1-.18-.13-.27-.06-.19-.09-.28,0,0,0,0a.41.41,0,0,1,0-.12v0s0,0,0,0v0h0c0-.13-.09-.25-.12-.38a1.64,1.64,0,0,1-.1-.25.22.22,0,0,1,0-.09v-.06a2,2,0,0,1,.09-.18l.06-.15.06-.15c0-.09.08-.2.14-.3a.34.34,0,0,1,0-.07c.05-.18.12-.37.19-.55,0,0,0,0,0,0s.12-.15.18-.21h0l.06,0a.27.27,0,0,1,.05-.06l.09-.12,0-.06c.06-.08.11-.17.17-.26s0-.07.07-.07h0s0,.07,0,.11a1.11,1.11,0,0,0,0,.41c0,.11,0,.21,0,.32s0,0,0,0a.73.73,0,0,1,0,.24c0,.1,0,.2.08.31a4.12,4.12,0,0,1,.22.57h0c.1.15.21.33.31.49l.09.11h0v0s0,.07.09,0,0,0,0,0a.57.57,0,0,1,0-.1l0-.06,0-.06v0a.36.36,0,0,0,0-.06l0-.09,0-.09a0,0,0,0,1,0,0v0s0-.07,0-.11l0-.22s0-.07,0-.11a4.59,4.59,0,0,1,0-1.19h0c0-.18.07-.39.11-.59h0a3.79,3.79,0,0,0,.09,1,.05.05,0,0,1,0,0c0,.12.09.25.13.38l0,.08,0,.07,0,0s0,0,0,0l.07.08.05.07.21.2c0-.06,0-.12,0-.18s0-.11,0-.17l0,0a1,1,0,0,0,0-.14l-.05-.42a.12.12,0,0,1,0,0,.31.31,0,0,1,0,0,3.42,3.42,0,0,1,0-.52v0a.12.12,0,0,1,0,0,1.42,1.42,0,0,1,0-.42s0-.09,0-.13v0A2,2,0,0,1,23,22v0l0-.3c0-.1,0-.2,0-.3s0-.06,0-.06l.05,0,.06,0,.09.06.09.07h0l0,0h0a1.56,1.56,0,0,1,.47.45l.07.06a.39.39,0,0,1,.07.13,1.37,1.37,0,0,1,.21.41v0s0,0,0,0a.44.44,0,0,1,.05.11l0,.11,0,.05,0,0,.05,0c0-.11,0-.22,0-.32h0s0,0,0,0a2.16,2.16,0,0,0-.14-.57.36.36,0,0,1,0,0,2.79,2.79,0,0,0-.22-.53.13.13,0,0,1,0-.08.33.33,0,0,1-.07-.1l0-.08v0h0a3.48,3.48,0,0,0-.28-.35h0s0,0,0,0a1.06,1.06,0,0,1-.22-.18l0,0s0,0,0,0-.26-.23-.4-.32-.05,0-.07-.06a9.37,9.37,0,0,1,1.16,0v0h0a2.23,2.23,0,0,1,.55.14h0a1.72,1.72,0,0,1,.35.14s.05.05.08,0,0-.06,0-.08l-.14-.19s0,0,0,0-.16-.19-.24-.28l-.08-.08a1.46,1.46,0,0,1-.26-.22l0,0s-.08,0-.12-.07L24,19.5l0,0-.55-.2h0a.14.14,0,0,1-.09,0l0,0v0a.17.17,0,0,1,0-.08,1.22,1.22,0,0,0,0-.28.74.74,0,0,0,0-.08l0-.08,0-.08,0-.11h0A4.56,4.56,0,0,0,23,17.9l0-.07a.47.47,0,0,1-.07-.21.53.53,0,0,1,0-.07s0,0,0,0a.64.64,0,0,1,0-.1l0-.14v0h0a4.82,4.82,0,0,1,.18-.59h0a.33.33,0,0,0,.07-.23.41.41,0,0,0,0-.13l-.08-.16,0,0h0a1.51,1.51,0,0,1-.26-.45l0,0v0h0v0h0l0-.05,0,0,0,0h0c.08-.12.16-.24.25-.36a.33.33,0,0,0,.06-.32c-.05-.17,0-.18.13-.24l.55-.2.09,0h0l.07,0,.57-.21h0a4.14,4.14,0,0,1,.56-.21l.08,0s.12,0,.15-.07.27-.12.41-.15.36-.09.5.1l.05,0,.07.08.39.42Zm-4.26.17h0s-.07,0-.1-.07l-.84-1.48c0-.06,0-.1,0-.12L27,11.14l.08,0h0c0,.32-.05.63-.08.93l-.05.68a.16.16,0,0,1-.12.16Zm-8.81,6.8c.5,0,1,.14,1.5.21a.56.56,0,0,1,.2,0,.64.64,0,0,1,.28.37,2.37,2.37,0,0,1,.13.71.52.52,0,0,1-.18.48.7.7,0,0,0-.25.35.55.55,0,0,1,.49.2,2,2,0,0,0,.28.28.48.48,0,0,0,.74-.1c.07-.12.14-.24.22-.35a.91.91,0,0,1,.41-.4c.12,0,.07-.1,0-.15a.26.26,0,0,0-.35,0,2,2,0,0,0-.48.47.81.81,0,0,1-.14.15.14.14,0,0,1-.2,0,2.92,2.92,0,0,0-.22-.21.13.13,0,0,1,0-.18.92.92,0,0,0,.1-.52,1.79,1.79,0,0,0-.38-1.09s0-.05,0-.08a1.19,1.19,0,0,0,.51-.88c0-.09,0-.17-.08-.2s-.12.05-.16.11a4.52,4.52,0,0,1-.26.37.51.51,0,0,1-.53.19c-.72-.11-1.44-.18-2.17-.23,0,0-.07,0-.1,0a2,2,0,0,0-.61.59h.09A3.55,3.55,0,0,1,13.76,21.18Zm6.73.28-.52.28a.4.4,0,0,1-.14.06,5.09,5.09,0,0,1-.91.09.86.86,0,0,1-.46-.16.36.36,0,0,1-.18-.25.27.27,0,0,1,.13,0,2.6,2.6,0,0,0,.48.07A4.29,4.29,0,0,0,20,21.29l.36-.13c.05,0,.07,0,0-.09a.18.18,0,0,0-.18,0A7.1,7.1,0,0,1,17.85,21c-.23,0-.47-.06-.56-.34a2,2,0,0,1-.06-.23.47.47,0,0,0-.12-.22.11.11,0,0,0-.12,0s0,.06,0,.1,0,.25,0,.38a.8.8,0,0,0,.14.39,1.06,1.06,0,0,0,.64.42c.2,0,.2,0,.22.25a.24.24,0,0,0,.1.22,1,1,0,0,0,.46.18.55.55,0,0,1,.31.08.74.74,0,0,0,.4.12l.32,0a.23.23,0,0,0,.2-.06c.3-.25.6-.5.88-.78A.11.11,0,0,0,20.5,21.46ZM18,23.91a.06.06,0,0,0-.1,0,2,2,0,0,1-.77.17c-.11,0-.25,0-.33.06s-.37.12-.55,0l0,0a.7.7,0,0,0-.79,0,.43.43,0,0,1-.34.08.23.23,0,0,0-.24,0l-.13.09c-.12.08-.12.09,0,.18l.08,0a.89.89,0,0,0,.71-.1.56.56,0,0,1,.65,0,.58.58,0,0,0,.61.06,3.75,3.75,0,0,1,.82-.27s.08,0,.12,0,.24,0,.35,0,.05-.05,0-.1S18.05,24,18,23.91Zm-1.1.79a3,3,0,0,0-.89.15c-.23.08-.49.13-.61.4a3.93,3.93,0,0,0-.11.48.83.83,0,0,0,.09.35s0,.08.08.08.07,0,.09-.08a2.53,2.53,0,0,0,.1-.37.62.62,0,0,1,.35-.44l.65-.26a.23.23,0,0,1,.13,0,1.82,1.82,0,0,1,.79.18.1.1,0,0,0,.08,0c.09,0,.1-.05,0-.12A.91.91,0,0,0,16.91,24.7ZM14.8,21.95l.54-.07s.12,0,.14,0-.06-.1-.1-.14a.21.21,0,0,0-.09,0,1,1,0,0,0-.55,0,2.64,2.64,0,0,1-1.12,0,3.11,3.11,0,0,0-.33,0,2.47,2.47,0,0,0-.45.13c-.1,0-.11.11,0,.18A.17.17,0,0,0,13,22a.59.59,0,0,1,.62.12.64.64,0,0,0,.66.11,2.36,2.36,0,0,0,.37-.19A.4.4,0,0,1,14.8,21.95Zm-3.24.34a.41.41,0,0,0-.16-.4.44.44,0,0,1-.18-.25.91.91,0,0,0-.17-.39s-.05-.1-.11-.08a.2.2,0,0,0-.14.15.62.62,0,0,0,.35.7.62.62,0,0,1,.28.29s0,.13.09.12S11.55,22.32,11.56,22.28Z" style="fill:#1a1a1a"/><path d="M5.87,15.74v0l0,.05a.19.19,0,0,0,0,.11.27.27,0,0,0,0-.14" style="fill:#2e2e2e"/><path d="M22.3,22a2.11,2.11,0,0,0,.24-.47l0-.07a.89.89,0,0,0,.09-.31h0s0-.08,0-.09l-.18,0h-.13s0,.08,0,.11,0,.07,0,.11l0,.11-.07.15a2.13,2.13,0,0,1-.37.48.39.39,0,0,1,0-.33l0,0c0-.07.07-.13.11-.19l0-.06h0a.05.05,0,0,0,0,0,.55.55,0,0,0-.19-.28L21.76,21l-.08,0h-.12a1.55,1.55,0,0,1-.32,0h0l-.48-.18-.15-.07a3.8,3.8,0,0,1-.59-.34L19.59,20l-.28-.19-.4-.31,0,0-.06,0-.06,0-.08-.08,0,0,0,0a2.16,2.16,0,0,1-.47-.72,2.92,2.92,0,0,1-.35.61l-.18.21a2,2,0,0,1-.92.55,2.68,2.68,0,0,1-.75.1l.21-.17.06-.06a4.83,4.83,0,0,0,.63-.57l0,0a.06.06,0,0,0,0,0v0h0a.13.13,0,0,0-.07,0l-.54.29-.08,0-.14.07-.23.11a4.3,4.3,0,0,1-1.19.3l-.68.07-.68.05-.45,0h-.33l-.13,0-.07,0a5.37,5.37,0,0,0-1.08.4l-.28.15-.18.12-.08.06a.55.55,0,0,0-.16.18l0,0v.06a.45.45,0,0,0,0,.06.72.72,0,0,0,.06.24,6,6,0,0,0,.58,1.08.68.68,0,0,0,.11.13l.17.11a.79.79,0,0,0,.32.06.26.26,0,0,1,.29.19,2,2,0,0,0,.78.94l.08,0,.08,0,.31.2.1.07a4,4,0,0,1,.36.31l.08.08.33.35.08.09.16.18a3.43,3.43,0,0,1,.35.46l0,.07a1.5,1.5,0,0,1,.12.25.8.8,0,0,0,.29.35l.2.13.16.09.23.13.18.08H16a2.85,2.85,0,0,0,.74,0l.22,0,.21,0h0l.21,0,.51-.13.16-.05,0,0,.15-.06.05,0,.07,0,.08,0,.22-.11.26-.15.13-.09a2.33,2.33,0,0,0,.32-.28l.13-.15A4.86,4.86,0,0,0,20,24.9l.08-.16.11-.24,0-.07a3.31,3.31,0,0,0,.11-.43l-.13.05-.18.08-.19,0H19.8a.13.13,0,0,1-.15-.1c0-.07,0-.1.06-.12h.06l0,0,0,0a2.22,2.22,0,0,0,.91-.54l.12-.11a1.92,1.92,0,0,0,.4-.61v0l.07-.14a.11.11,0,0,1,.11-.07l.15,0h.08a.76.76,0,0,0,.6-.39Zm-10.77.41c-.07,0-.07-.07-.09-.12a.59.59,0,0,0-.28-.29.61.61,0,0,1-.35-.7.2.2,0,0,1,.14-.15c.06,0,.08,0,.11.08a.91.91,0,0,1,.17.39.44.44,0,0,0,.18.25.41.41,0,0,1,.16.4s0,.12,0,.13Zm1-1.14h0a2,2,0,0,1,.61-.59s.07,0,.1,0c.73,0,1.45.12,2.17.23a.51.51,0,0,0,.53-.19,3.87,3.87,0,0,0,.26-.37c0-.06.08-.14.16-.11s.1.1.08.2a1.19,1.19,0,0,1-.51.88s0,0,0,.08a1.79,1.79,0,0,1,.38,1.09,1,1,0,0,1-.1.52.13.13,0,0,0,0,.18l.22.21a.14.14,0,0,0,.2,0,.92.92,0,0,0,.14-.15,2,2,0,0,1,.48-.47.26.26,0,0,1,.35,0s.09.11,0,.15a.88.88,0,0,0-.41.4c-.08.12-.15.24-.22.35a.48.48,0,0,1-.74.1,2.21,2.21,0,0,1-.28-.28.55.55,0,0,0-.49-.2.74.74,0,0,1,.25-.35.52.52,0,0,0,.18-.48,2.46,2.46,0,0,0-.13-.71.62.62,0,0,0-.28-.37.56.56,0,0,0-.2,0c-.5-.07-1-.17-1.5-.21a3.81,3.81,0,0,0-1.17.08l-.06,0Zm1.77.91a.66.66,0,0,1-.66-.11A.59.59,0,0,0,13,22a.17.17,0,0,1-.18,0c-.09-.07-.08-.13,0-.18a2.54,2.54,0,0,1,.45-.13,3,3,0,0,1,.33,0,2.69,2.69,0,0,0,1.12,0,1,1,0,0,1,.55,0,.33.33,0,0,1,.09,0s.11.08.1.14-.09,0-.14,0l-.54.07a.38.38,0,0,0-.14.05,2.36,2.36,0,0,1-.37.19Zm3.38,3a.1.1,0,0,1-.08,0A1.79,1.79,0,0,0,16.8,25a.26.26,0,0,0-.13,0l-.65.26a.61.61,0,0,0-.35.44,2.64,2.64,0,0,1-.1.37s0,.08-.09.08-.06,0-.08-.08a.8.8,0,0,1-.09-.35,4,4,0,0,1,.11-.48c.12-.27.38-.32.61-.4a3.05,3.05,0,0,1,.89-.15.92.92,0,0,1,.81.38c.05.07,0,.1,0,.12Zm.41-1c-.12,0-.23.12-.35,0s-.08,0-.12,0a3.74,3.74,0,0,0-.82.27.58.58,0,0,1-.61-.06.55.55,0,0,0-.65,0,.89.89,0,0,1-.71.1l-.08,0c-.11-.09-.11-.1,0-.18l.13-.09a.24.24,0,0,1,.24,0,.43.43,0,0,0,.34-.08.7.7,0,0,1,.79,0l0,0c.18.14.34.22.55,0s.22,0,.33-.06a2.11,2.11,0,0,0,.77-.17.06.06,0,0,1,.1,0c0,.08.12.13.12.23s0,.08,0,.1Zm1.69-2a.23.23,0,0,1-.2.06l-.32,0a.76.76,0,0,1-.4-.12.57.57,0,0,0-.31-.08,1.07,1.07,0,0,1-.46-.18.24.24,0,0,1-.1-.22c0-.2,0-.21-.22-.25a1.06,1.06,0,0,1-.64-.42.8.8,0,0,1-.14-.39c0-.13,0-.25,0-.38s0-.09,0-.1a.11.11,0,0,1,.12,0,.5.5,0,0,1,.12.22,2,2,0,0,0,.06.23c.09.28.33.3.56.34a7.09,7.09,0,0,0,2.36.06c.07,0,.13,0,.18,0s0,.07,0,.09l-.36.13a4.29,4.29,0,0,1-1.13.27,2.6,2.6,0,0,1-.48-.07.31.31,0,0,0-.13,0,.37.37,0,0,0,.18.25.85.85,0,0,0,.46.16,4.85,4.85,0,0,0,.91-.09.42.42,0,0,0,.14-.06c.17-.1.35-.19.52-.28a.12.12,0,0,1,.15,0A10.69,10.69,0,0,1,19.77,22.25ZM10.14,5.76c-.24.11-.41.32-.63.44-.06,0,0,.07,0,.1l.68.78,0,.06.06,0,.32-.2s0,0,0-.08c-.13-.35-.23-.71-.38-1.05C10.22,5.73,10.2,5.73,10.14,5.76Zm-1,.17s0,.05.09,0a4.32,4.32,0,0,0,.62-.33c.47-.37.92-.75,1.36-1.16.07-.06.12-.13.1-.2s0-.14,0-.17-.08,0-.12,0l-.13.08a14.07,14.07,0,0,1-1.31.67c-.32.12-.63.26-1,.37,0,0-.11,0-.05.09Zm0,1.79A11,11,0,0,1,8.16,7l-.08.32A.08.08,0,0,1,8,7.38c-.09,0-.12-.06-.17-.11a.15.15,0,0,1-.06-.16c.08-.16.12-.34.18-.51s.07-.17.22-.06l0,0a4,4,0,0,0,1.09.81.45.45,0,0,0,.56,0l0,0a0,0,0,0,0,0-.07A.66.66,0,0,0,9.81,7c-.22-.19-.43-.39-.63-.59a5.17,5.17,0,0,1-.81-.93,1.51,1.51,0,0,0-.23-.29.26.26,0,0,0-.42.06c-.17.31-.39.59-.57.91s-.43.65-.61,1a.23.23,0,0,0,0,.2A3.78,3.78,0,0,1,6.78,8s0,.09,0,.12-.08,0-.1-.05c-.12-.21-.25-.41-.37-.63A19.43,19.43,0,0,0,5.08,5.34S5,5.23,5,5.26a.13.13,0,0,0-.08.14c0,.26.08.52.14.77.29,1.09.65,2.15,1,3.22,0,.09.06.08.13,0l2.7-1.52ZM7,11.54a2.46,2.46,0,0,0-.38,1c0,.08,0,.14.07.15l.21,0q.84.23,1.68.42a.2.2,0,0,0,.14,0s0,0,0,0a.06.06,0,0,1,0,0L9.07,12a.29.29,0,0,1,.08-.16.6.6,0,0,0,.24-.48c0-.08,0-.15,0-.22a.22.22,0,0,1,.14-.2,3.24,3.24,0,0,0,1.08-.81,1,1,0,0,0,.18-.26,10.41,10.41,0,0,1,.79-1.4,6.86,6.86,0,0,1,1.11-1.38.71.71,0,0,0,.2-.37.27.27,0,0,0-.1-.28.24.24,0,0,0-.3,0,7.74,7.74,0,0,1-1.5.8c-.23.11-.5.2-.62.47l0,0a1.66,1.66,0,0,1-.54.21c-.05,0-.11,0-.17,0L6.4,10c-.06,0-.08.07,0,.14A12.93,12.93,0,0,0,7,11.34.17.17,0,0,1,7,11.54Zm1.74,1.61v0Zm14.39-1.37,1.83-.55c.1,0,.11-.06.08-.15-.26-.69-.53-1.39-.85-2.06a.3.3,0,0,1,0-.26,1.85,1.85,0,0,0,.15-1c0-.18,0-.35,0-.53A11.76,11.76,0,0,0,24,5.8a9,9,0,0,0-.61-1.48,10.45,10.45,0,0,0-.55-1c-.11-.19-.23-.36-.33-.55a.85.85,0,0,0-.39-.42s-.12-.07-.15,0a.23.23,0,0,0-.06.23l.21.48a9,9,0,0,1,.53,1.35,3.2,3.2,0,0,1,.11.56c0,.07,0,.15-.07.17s-.08-.05-.12-.09-.31-.3-.53-.21a.35.35,0,0,1-.2,0s-.1,0-.12-.07,0-.08.08-.11l.11-.07s.08-.1,0-.16a2.48,2.48,0,0,0-.36-.41c-.29-.23-.59-.46-.9-.66l-.14-.08c-.56-.34-1.13-.64-1.72-.93a.49.49,0,0,0-.25-.06c-.06,0-.12,0-.15.07a.18.18,0,0,0,0,.19.86.86,0,0,0,.22.2,6,6,0,0,1,.75.44c.45.35.91.7,1.34,1.07a4.6,4.6,0,0,1,.39.38l.23.24A.19.19,0,0,1,21.4,5h0V5a.13.13,0,0,1,0,.07c-.07.07-.15,0-.22,0A.36.36,0,0,1,21.08,5l0,0-.18-.18-.08-.06-1-.76-1-.76a3.48,3.48,0,0,0-.61-.37.12.12,0,0,0-.17,0,.2.2,0,0,0,0,.24,1.12,1.12,0,0,0,.28.35,4.27,4.27,0,0,1,.44.4c.64.71,1.28,1.4,1.9,2.12a.34.34,0,0,1,.08.17c0,.12,0,.17-.16.13l-.06,0a24.78,24.78,0,0,1-2.24-1.37,3.78,3.78,0,0,0-.67-.37c-.07,0-.15-.07-.21,0a.22.22,0,0,0,.05.25c.27.21.52.44.78.66a8.4,8.4,0,0,1,1.62,1.63.36.36,0,0,0,.39.07A1.46,1.46,0,0,1,21,6.9h.07l.05,0,0,0c0,.07,0,.09-.09.12l-.82.53a.24.24,0,0,1-.21,0,1.45,1.45,0,0,0-.39-.08,11.4,11.4,0,0,0-1.7.16,1,1,0,0,0-.37.1.17.17,0,0,0-.08.18c0,.06,0,.12.11.14l1.05.22a2.29,2.29,0,0,0,.38.08c.4.25.8.51,1.18.79a1.8,1.8,0,0,0,.77.35c.13,0,.26.06.39.09a1.47,1.47,0,0,1,.51.15,1.33,1.33,0,0,1,.27.45c0,.1.11.15.22.12s.13,0,.16.11c.14.41.29.81.43,1.21C23,11.78,23,11.8,23.11,11.77Z" style="fill:#f6e5cc"/></g></svg>