<svg viewBox="0 0 32 32" xmlns="http://www.w3.org/2000/svg"><path d="m23.376 30h-9.065a6.721 6.721 0 0 1 -6.623-6.8v-9.067a6.722 6.722 0 0 1 6.623-6.8h9.065a6.722 6.722 0 0 1 6.624 6.8v9.067a6.722 6.722 0 0 1 -6.624 6.8z" fill="#004880"/><path d="m27.331 22.813a4.691 4.691 0 1 1 -4.69-4.782 4.726 4.726 0 0 1 4.69 4.782z" fill="#fff"/><path d="m13.353 10.733a2.987 2.987 0 1 1 -2.953 2.983 2.965 2.965 0 0 1 2.957-2.983z" fill="#fff"/><path d="m2 4.444a2.407 2.407 0 1 0 2.406-2.444 2.426 2.426 0 0 0 -2.406 2.444" fill="#004880"/></svg>