<svg xmlns="http://www.w3.org/2000/svg" viewBox="0 0 32 32"><title>file_type_pyscript</title><path fill="#fda703" d="M23.64 11.64c-.02.32 0 .7.01.99 1.44.75 3.02 1.53 4.33 2.18v.03c-1.54.7-2.98 1.47-4.33 2.15-.03.33-.01.67-.01 1 2.16-1.05 4.4-2.18 6.36-3.16-2.1-1.12-4.4-2.22-6.36-3.2zM2 14.8c2.14 1.08 4.43 2.24 6.38 3.19.01-.33-.01-.66-.02-1-1.46-.76-3-1.51-4.34-2.19 1.46-.73 3.02-1.49 4.34-2.17.02-.34.02-.67.02-1-2.16 1.02-4.44 2.2-6.38 3.17zm14.31-3.36c1.03 2.19 1.81 3.79 2.78 5.81.07.15.2.32.22.48.01.08-.05.17-.08.24-.08.22-.19.43-.3.62-.13.2-.25.42-.41.6-.12.12-.25.25-.4.34-.6.39-1.27.3-1.92.15v.96c.76.1 1.54.16 2.26-.2s1.15-1.07 1.5-1.76a183.3 183.3 0 0 0 3.06-7.24c-.35-.01-.75 0-1.08.01-.72 1.69-1.38 3.31-2.01 4.89h-.03c-.88-1.81-1.62-3.35-2.41-4.89-.4-.02-.79-.01-1.18-.01zm-3.12-.18c-.7.01-1.4.4-1.89.89-.2.2-.45.47-.57.75h-.02v-1.46h-1.1v9.1h1.1V18c.34 0 .69.07 1.03.09.58.02 1.17-.07 1.7-.34 1.38-.69 1.9-2.32 1.89-3.76a3 3 0 0 0-.65-2.03 2.42 2.42 0 0 0-.56-.46c-.3-.17-.61-.24-.93-.24zm-.24 1.06c.23 0 .46.09.66.29.38.37.49.89.52 1.4.08 1.05-.22 2.23-1.17 2.83-.7.45-1.48.34-2.25.18V14.7c0-.15-.03-.35.02-.5.07-.2.24-.4.37-.58.09-.13.18-.25.28-.36.37-.43.98-.95 1.57-.94z"/></svg>