<svg xmlns="http://www.w3.org/2000/svg" viewBox="0 0 32 32"><path fill="#fdfbba" d="M5.9 7.3V4h20.3v6.3h-4.9l-2.6-1.8L16 7l-2.7 1.7-2.6 1.8H6Z"/><path fill="#bfdffd" d="m4.4 27.8 3-6.2h3.3l2.6 1.8L16 25l.3-.2 2.6-1.7 2.4-1.6h6.3l-1.5 3.2-1.5 3z"/><path fill="#fdb7b9" d="m14.6 23.4-6.2-4L3.6 16V16l6.2-4.1 6-4.1h.2l5.4 3.5 6 4 1 .8v.1l-1.8 1.2-1.7 1.1-.1.1-.9.6-.8.5-.2.2-.3.1-1 .7-1.1.8-2.2 1.4-2.3 1.5z"/><path fill="#1b325f" d="m5 24.8 2-4h2.3l.7.3.7.5v.1H7.6l-1.4 2.8-1.6 3-.1.3h20l1.5-3 1.5-3-3-.1h-3.1q-.1-.1.6-.5l.7-.5q.1 0 0 0l3.1.1H29l-4 7.9H3.2z"/><path fill="#3f4122" d="m9.2 11.3-2-.1H5V3.3h21.8v7.9h-4.2q.1.1 0 .1l-.7-.4-.6-.5H26V4.1H5.9v6.1h4.8l-.7.6zq-.2 0 0 0"/><path fill="#3d1f1f" d="m13.1 23.4-4.3-3L6.5 19l-2.6-1.7L2.2 16l.3-.2 7.3-5 5-3.2 1.2-.8 5.4 3.5L27 14l3 2-.2.1-7.6 5-.6.6h-.1l-5 3.3-.4.3zm5.1-.6 2.2-1.5 1-.7 1.1-.7.3-.2.2-.2.9-.5.8-.6 1.8-1.2 1.7-1.2h.1l-1.3-.9-11-7.3-6.1 4L3.7 16l4.8 3.2 6.2 4.2 1.3.8z"/></svg>