<svg viewBox="0 0 32 32" xmlns="http://www.w3.org/2000/svg" xmlns:xlink="http://www.w3.org/1999/xlink"><linearGradient id="a" gradientTransform="matrix(1.437 0 0 -1.437 894.417 -82.292)" gradientUnits="userSpaceOnUse" x1="-611.348" x2="-600.272" y1="-67.488" y2="-65.335"><stop offset="0" stop-color="#0f6067"/><stop offset=".5" stop-color="#05abac"/><stop offset="1" stop-color="#58bec4"/></linearGradient><linearGradient id="b" gradientTransform="matrix(1.437 0 0 -1.437 894.417 -82.292)" gradientUnits="userSpaceOnUse" x1="-603.594" x2="-602.011" y1="-77.699" y2="-59.604"><stop offset="0" stop-color="#117c83"/><stop offset=".5" stop-color="#21b5b5"/><stop offset="1" stop-color="#7ed4d4"/></linearGradient><linearGradient id="c" gradientTransform="matrix(1.437 0 0 -1.437 894.417 -82.292)" gradientUnits="userSpaceOnUse" x1="-612.757" x2="-616.934" y1="-59.906" y2="-72.76"><stop offset="0" stop-color="#9accd3"/><stop offset=".5" stop-color="#72aeb3"/><stop offset="1" stop-color="#317d7f"/></linearGradient><linearGradient id="d" gradientTransform="matrix(1.437 0 0 -1.437 894.417 -82.292)" gradientUnits="userSpaceOnUse" x1="-621.851" x2="-614.84" y1="-74.579" y2="-72.301"><stop offset="0" stop-color="#21626e"/><stop offset=".5" stop-color="#157c84"/><stop offset="1" stop-color="#03a3a5"/></linearGradient><linearGradient id="e" gradientTransform="matrix(1.437 0 0 -1.437 894.417 -82.292)" gradientUnits="userSpaceOnUse" x1="-616.369" x2="-625.34" y1="-64.469" y2="-72.835"><stop offset="0" stop-color="#0b7c81"/><stop offset=".5" stop-color="#068d90"/><stop offset="1" stop-color="#16b1b1"/></linearGradient><linearGradient id="f" gradientTransform="matrix(1.437 0 0 -1.437 894.417 -82.292)" gradientUnits="userSpaceOnUse" x1="-608.072" x2="-603.488" y1="-74.678" y2="-70.966"><stop offset="0" stop-color="#0a8a8f"/><stop offset=".5" stop-color="#0f7c82"/><stop offset="1" stop-color="#1a5964"/></linearGradient><linearGradient id="g" gradientTransform="matrix(1.437 0 0 -1.437 894.417 -82.292)" gradientUnits="userSpaceOnUse" x1="-601.134" x2="-606.008" y1="-70.113" y2="-67.067"><stop offset="0" stop-color="#256a77"/><stop offset=".5" stop-color="#0d9499"/><stop offset="1" stop-color="#06a0a2"/></linearGradient><path d="m21.6 3.462h8.4l-11.233 20.749s-1.893-5.5-2.706-7.459" fill="url(#a)"/><path d="m23.669 29.118h6.331v-25.656c-.005 13.407-5.64 25.656-6.331 25.656z" fill="url(#b)"/><path d="m18.767 24.211h-5.226l-11.541-20.749c2.047-.26 6.135-.611 8.16-.776z" fill="url(#c)"/><path d="m8.693 16.019c-1.733 6.847-6.698 13.301-6.693 13.295 5.752 0 6.991-.835 6.991-1.276v-11.498c-.101-.17-.197-.346-.298-.521z" fill="url(#d)"/><path d="m2 3.462v25.852c3.147-5.2 4.981-8.6 6.6-13.45-4-7.07-6.6-12.402-6.6-12.402z" fill="url(#e)"/><path d="m23.233 28.102.436 1.016v-13.471l-.436.728" fill="url(#f)"/><path d="m23.647 15.673v13.4l.016.043c.452 0 6.332-14.5 6.332-25.656 0 .002-3.589 7.487-6.348 12.213z" fill="url(#g)"/></svg>