<?xml version="1.0" encoding="UTF-8"?>
<svg width="497px" height="609px" viewBox="0 0 497 609" version="1.1" xmlns="http://www.w3.org/2000/svg" xmlns:xlink="http://www.w3.org/1999/xlink">
    <!-- Generator: Sketch 41.2 (35397) - http://www.bohemiancoding.com/sketch -->
    <title>Combined Shape</title>
    <desc>Created with Sketch.</desc>
    <defs></defs>
    <g id="Page-1" stroke="none" stroke-width="1" fill="none" fill-rule="evenodd">
        <path d="M273.8095,52.9731 C313.8055,0.2581 369.4105,0.0001 369.4105,0.0001 C369.4105,0.0001 377.6795,49.5621 337.9475,97.3061 C295.5215,148.2861 247.2975,139.9441 247.2975,139.9441 C247.2975,139.9441 238.2435,99.8501 273.8095,52.9731 Z M252.3847,174.6626 C272.9617,174.6626 311.1487,146.3786 360.8557,146.3786 C446.4177,146.3786 480.0767,207.2616 480.0767,207.2616 C480.0767,207.2616 414.2437,240.9196 414.2437,322.5916 C414.2437,414.7256 496.2527,446.4756 496.2527,446.4756 C496.2527,446.4756 438.9247,607.8346 361.4917,607.8346 C325.9257,607.8346 298.2777,583.8666 260.8037,583.8666 C222.6167,583.8666 184.7197,608.7286 160.0387,608.7286 C89.3297,608.7286 -0.0003,455.6656 -0.0003,332.6296 C-0.0003,211.5766 75.6127,148.0746 146.5327,148.0746 C192.6377,148.0746 228.4157,174.6626 252.3847,174.6626 Z" id="Combined-Shape" fill="#A8C2AB"></path>
    </g>
</svg>