<?xml version="1.0" encoding="UTF-8"?>
<svg fill="none" viewBox="0 0 32 32" xmlns="http://www.w3.org/2000/svg">
<path d="m19.97 27.37-15.531-0.0364c-1.0387-0.3429-1.3583-0.446-1.9176-1.7476l0.0381-14.922c-0.01585-0.95771 1.3001-2.4683 2.0606-2.8672l5.9858-2.6371c0.4858-0.12913 1.1287-0.25602 1.7573-0.29783l16.044-0.00576c0.537 0.09396 0.8822 0.71526 0.8919 1.8639v15.94c-0.1237 0.9139-0.3073 1.4525-0.7892 1.8648l-5.2654 2.2669c-1.2831 0.6721-1.7033 0.6251-3.2741 0.5782z" fill="#fff"/>
<path d="m25.379 6.5453c-4.4768 1.983-2.4365 1.7074-12.78 1.7261-10.343 0.01875-9.5356 0.28917-5.0588-1.6938 4.4768-1.983 2.4365-1.7074 12.78-1.7261 10.343-0.01875 9.5356-0.28917 5.0588 1.6938z" fill="url(#e)"/>
<path d="m29.32 14.749c0.0383 10.874 0.5915 9.1338-3.4649 10.899-4.0565 1.7654-3.4927 3.0194-3.5311-7.8545-0.0383-10.874-0.5915-9.1338 3.4649-10.899 4.0565-1.7655 3.4927-3.0195 3.5311 7.8545z" fill="url(#d)"/>
<g clip-path="url(#f)">
<path d="m2.5604 15.595c0.03366-0.5099 0.01115-1.0321 0.01113-1.5435l0.01092-1.7405c0.00125-0.4295-0.00683-0.8598 1.8e-4 -1.2892 0.01069-0.655 0.24939-1.3122 0.72861-1.7717 0.37023-0.35503 0.83292-0.57514 1.3378-0.65507 0.28376-0.04492 0.56938-0.0394 0.85567-0.03896l0.84809 4.7e-4 3.1271-2.7e-4 6.4973-7e-5c1.1092-7e-5 2.2223-0.01933 3.3311 0.00172 0.7053 0.01339 1.3543 0.23142 1.8512 0.75127 0.5082 0.53174 0.6827 1.166 0.6631 1.8884 0.0251 0.2297 0.013 0.4705 0.013 0.7018l-1e-4 1.161 5e-4 1.9831c2e-4 0.3674 0.0078 0.7362-0.0024 1.1034 0.0163 0.3783 0.0032 0.7623 0.0033 1.1411l3e-4 2.1943-1e-4 1.229c4e-4 0.1964 0.0207 0.4126-0.0033 0.6061 0.021 0.6067 0.0035 1.2196 0.0038 1.827 2e-4 0.4118 0.0262 0.9547-0.0161 1.3558 0.0025 0.1147 0.0257 0.6856-0.0295 0.7466-0.0028 0.0032-0.0062 0.0058-0.0093 0.0087-0.0114 0.0693-0.0419 0.1431-0.0636 0.2105-0.1223 0.3806-0.3107 0.714-0.5946 0.9973-0.3665 0.3656-0.8181 0.5943-1.3287 0.6774-0.5376 0.0873-1.1641 0.049-1.7129 0.049l-2.7825-1e-4 -10.03 5e-4c-0.75074-1e-3 -1.444-0.1801-1.9868-0.7303-0.78969-0.8005-0.70433-1.7016-0.7028-2.7358 0.01406-0.283-0.00219-0.5709-0.00691-0.8543-0.0042-0.364-0.00586-0.728-0.00499-1.092-4.8e-4 -0.1326 0.04793-0.3277 0.03938-0.4337-0.03781-0.0641-0.04327-0.1302-0.04762-0.2028-0.01608-0.2683-0.00736-0.5412-0.00746-0.81l-2.4e-4 -1.3828c-3e-5 -1.1167-0.01906-2.2372 0.00729-3.3534z" fill="url(#c)"/>
<path d="m21.792 16.536-0.0031-2.9407c-5e-3 -0.417-0.0051-0.834-4e-4 -1.251 4e-4 -0.2509-0.0063-0.5038 0.0068-0.7542l0.0021 0.1182c0.0161-0.1384-0.0279-0.3914 0.0251-0.5103 0.0251 0.2297 0.0129 0.4705 0.013 0.7019l-1e-4 1.1609 5e-4 1.9831c1e-4 0.3674 0.0078 0.7362-0.0025 1.1035-0.0065-0.0292-0.0125-0.0578-0.0164-0.0874l-0.0121 0.0063c-6e-4 0.1568-0.0176 0.313-0.0129 0.4697z" fill="#FA8D27"/>
<path d="m21.792 16.536c-0.0047-0.1567 0.0123-0.3129 0.0129-0.4697l0.0121-0.0063c0.0039 0.0296 0.0099 0.0582 0.0164 0.0873 0.0164 0.3783 0.0032 0.7623 0.0034 1.1411l3e-4 2.1943-1e-4 1.229c4e-4 0.1964 0.0206 0.4127-0.0033 0.6061 0.021 0.6067 0.0034 1.2196 0.0038 1.827 2e-4 0.4118 0.0261 0.9547-0.0161 1.3558-0.0201-0.1381-0.0155-0.2888-0.0207-0.4287-0.0048 0.077-0.0058 0.1533-0.0054 0.2305-0.0164-0.1089-0.0053-0.2325-0.0049-0.343 2e-4 -0.1903-8e-4 -0.3805-0.0029-0.5708-0.0061-0.7688-0.0191-1.5437 0.0031-2.3122-0.0101-0.1748-0.0023-0.354-0.0027-0.5293l-0.0017-0.9752 0.0058-3.0359z" fill="#F87D29"/>
<path d="m2.5604 15.595c0.23072-0.0535 0.90133-0.25 1.0677-0.3821 0.14854-0.118 0.246-0.3193 0.3454-0.4776 0.17297-0.2756 0.55911-0.892 0.90155-0.9412 0.13848-0.0199 0.27672 0.0418 0.39141 0.1134 0.14583 0.091 0.2783 0.206 0.42962 0.2873 0.33289 0.1789 0.90234 0.2965 1.2756 0.2133 0.13153-0.0294 0.23367-0.0968 0.30577-0.2113 0.18086-0.2871 0.15567-0.5622 0.47714-0.769 0.06424-0.0413 0.13486-0.0825 0.21015-0.0992 0.23666-0.0526 0.77166 0.1864 0.96409 0.3155 0.364 0.2441 0.50395 0.6302 0.797 0.9308 0.17957 0.1842 0.41872 0.2934 0.60612 0.4695 0.1998 0.1878 0.365 0.4102 0.5677 0.5951 0.1348 0.1229 0.2866 0.2256 0.4302 0.3376 0.1651 0.1288 0.3244 0.2691 0.4824 0.4069 0.5583 0.487 0.9436 0.9683 1.6946 1.1741 0.2023 0.0555 0.4297 0.085 0.6375 0.0438 0.1058-0.021 0.2123-0.0616 0.3012-0.1236 0.2246-0.1567 0.5004-0.5513 0.6538-0.7835 0.1655-0.2505 0.306-0.5495 0.3946-0.836 0.0418-0.1352 0.0634-0.2841 0.1188-0.4138 0.0518-0.1211 0.1343-0.2289 0.2014-0.3418 0.0817-0.1373 0.1767-0.4359 0.3591-0.4751 0.4806-0.1033 0.943 0.0638 1.4113 0.1375 0.5202 0.082 1.2142 0.0769 1.6604 0.3836 0.2296 0.1578 0.343 0.4138 0.391 0.6814 0.0338 0.1884-0.046 0.1582-0.0653 0.2714-0.0116 0.0686 0.0346 0.154 0.0137 0.2244-0.177 0.074-0.4072-0.0837-0.5982-0.0744-0.236 0.0115-0.4645 0.1296-0.6844 0.2084-0.1726 0.0618-0.3486 0.1147-0.5159 0.1903-0.0971 0.044-0.1972 0.0954-0.2818 0.161-0.1029 0.0798-0.1718 0.1901-0.2206 0.3093-0.0773 0.1889-0.1237 0.3926-0.2401 0.5631-0.1275 0.1868-0.3434 0.3076-0.5047 0.4634-0.167 0.1612-0.2975 0.3544-0.4542 0.5246-0.3016 0.3275-0.7481 0.5686-1.1533 0.7412-0.9853 0.4198-2.0666 0.2793-3.1065 0.2926-0.0168 0.1645 0.0067 0.3258 0.0143 0.49 0.0072 0.1562-0.0047 0.3127 0.0063 0.4688 0.0151 0.2157 0.0653 0.4252 0.1027 0.6376 0.0584 0.3305 0.0715 0.592 0.2078 0.9107 0.0496 0.1158 0.1126 0.2296 0.1817 0.3348 0.0741 0.113 0.1846 0.2301 0.2226 0.3614 0.0377 0.13 0.0203 0.291 0.0314 0.4265 0.0142 0.1723 0.0445 0.3476 0.0818 0.5164 0.062 0.2802 0.1435 0.5639 0.246 0.8321 0.0732 0.192 0.162 0.3768 0.2224 0.5735 0.5682-0.1549 1.1484-0.2876 1.7369-0.3301 0.5188-0.0376 1.0353-0.0207 1.5538-0.0409 0.3758-0.0147 0.7559-0.0582 1.1311-0.0612 0.3154-0.0026 0.6274 0.0322 0.9392 0.0765 0.8816 0.1253 1.6901 0.4595 2.5989 0.4331 0.2327-0.0067 0.4519-0.0495 0.6811-0.0796-0.0114 0.0693-0.0419 0.1431-0.0636 0.2105-0.1223 0.3806-0.3107 0.714-0.5946 0.9973-0.3665 0.3656-0.8181 0.5943-1.3287 0.6774-0.5376 0.0873-1.1641 0.049-1.7129 0.049l-2.7825-1e-4 -10.03 5e-4c-0.75074-1e-3 -1.444-0.1801-1.9868-0.7303-0.78969-0.8005-0.70433-1.7016-0.7028-2.7358 0.01406-0.283-0.00219-0.5709-0.00691-0.8543-0.0042-0.364-0.00586-0.728-0.00499-1.092-4.8e-4 -0.1326 0.04793-0.3277 0.03938-0.4337-0.03781-0.0641-0.04327-0.1302-0.04762-0.2028-0.01608-0.2683-0.00736-0.5412-0.00746-0.81l-2.4e-4 -1.3828c-3e-5 -1.1167-0.01906-2.2372 0.00729-3.3534z" fill="#FEFEFE"/>
<path d="m12.598 25.252c0.0031 8e-4 0.0061 0.0017 0.0092 0.0024 0.0733 0.0174 0.4652-0.0109 0.4844 0.0145-0.0605 0.0501-0.2427 0.0555-0.3197 0.0491-0.0621-0.0052-0.1197-0.0158-0.1766-0.0417-0.0104-0.0047-0.0212-0.0089-0.0316-0.0135l0.0343-0.0108z" fill="#FFC79D"/>
<path d="m6.8366 24.486 0.04636 0.0173c-0.15767 0.0654-0.29688 0.0606-0.46492 0.062-0.04372 4e-4 -0.09056-0.0036-0.133 0.0078l-0.00936-0.0298c0.14562-0.0615 0.46327 0.0109 0.56092-0.0573z" fill="#FFC79D"/>
<path d="m6.8367 24.486c0.03408-0.1012 0.08045-0.1975 0.12061-0.2965 0.09382-0.2311 0.17839-0.4661 0.31659-0.6758 0.11-0.1668 0.25466-0.311 0.34657-0.4897 0.11652-0.2264 0.14685-0.4976 0.25095-0.7327 0.13067-0.2951 0.32929-0.5578 0.49714-0.8321 0.27857-0.455 0.49038-1.0663 1.0007-1.3168 0.11343-0.0557 0.24738-0.1004 0.37186-0.0573 0.1119 0.0388 0.22009 0.1239 0.31459 0.1946 0.4011 0.3006 0.7782 0.6868 0.9863 1.1475 0.1837 0.407 0.3239 0.8415 0.4401 1.2723 0.0535 0.1985 0.0804 0.4194 0.1573 0.609 0.0792 0.1955 0.2545 0.3397 0.3573 0.5227 0.1439 0.2566 0.2443 0.5254 0.3542 0.7971 0.0834 0.2065 0.1742 0.4131 0.2475 0.6234l-0.0343 0.0108c-0.1794-0.0637-0.3609-0.0923-0.5385-0.1712-0.4402-0.1957-0.8081-0.5368-1.2136-0.792-0.2846-0.1792-0.5866-0.3033-0.91199-0.3875-0.86919-0.2251-1.2428-0.0108-2.0202 0.2887-0.32546 0.1233-0.65771 0.2243-0.99675 0.3029l-0.04635-0.0174z" fill="url(#b)"/>
<path d="m2.6084 21.344 0.0162 0.0084c0.06491-0.0956 0.11613-0.1975 0.18556-0.2913 0.23815-0.3218 0.43756-0.5297 0.63738-0.8891 0.12138-0.2182 0.13714-0.5322 0.27652-0.7196 0.07465-0.1004 0.19465-0.1646 0.3165-0.1871 0.11758-0.0218 0.21955 0.0149 0.31336 0.0834 0.15083 0.1102 0.27171 0.2575 0.43296 0.3546 0.11004 0.0663 0.2447 0.1106 0.36499 0.155 0.61794 0.2278 1.3179 0.3808 1.973 0.4563 0.266 0.0306 0.53571 0.0287 0.80067 0.0654-0.15481 0.1357-0.284 0.2694-0.38372 0.4523-0.22676 0.4158-0.29914 0.8918-0.49586 1.3194-0.11718 0.2547-0.40881 0.472-0.42558 0.7603-0.01094 0.1881 0.03089 0.3745 0.00666 0.564-0.04502 0.3523-0.26253 0.7302-0.35148 1.0675l0.00936 0.0298c-0.08542 0.0296-0.22392 0.0125-0.31533 0.0131-0.95965 0.0058-1.7897-0.4514-2.6914-0.7124-0.22342-0.0646-0.46388-0.1395-0.69735-0.15 0.01406-0.283-0.00219-0.5709-0.00691-0.8543-0.00419-0.364-0.00586-0.728-0.00499-1.092-4.7e-4 -0.1326 0.04793-0.3277 0.03938-0.4337z" fill="url(#a)"/>
</g>
<defs>
<linearGradient id="e" x1="11.284" x2="11.285" y1="8.2676" y2="4.8153" gradientUnits="userSpaceOnUse">
<stop stop-color="#F6901E" offset="0"/>
<stop stop-color="#fff" offset=".45341"/>
<stop stop-color="#F5851E" offset=".53441"/>
<stop stop-color="#F47B1F" offset="1"/>
</linearGradient>
<linearGradient id="d" x1="45.323" x2="52.781" y1="-8.3063" y2="-8.0264" gradientUnits="userSpaceOnUse">
<stop stop-color="#F6901E" offset="0"/>
<stop stop-color="#F47B1F" offset="1"/>
</linearGradient>
<linearGradient id="c" x1="12.214" x2="12.198" y1="25.318" y2="8.588" gradientUnits="userSpaceOnUse">
<stop stop-color="#F27022" offset="0"/>
<stop stop-color="#F7921E" offset="1"/>
</linearGradient>
<linearGradient id="b" x1="9.7011" x2="9.7184" y1="25.193" y2="20.083" gradientUnits="userSpaceOnUse">
<stop stop-color="#F37022" offset="0"/>
<stop stop-color="#F7911E" offset="1"/>
</linearGradient>
<linearGradient id="a" x1="5.2066" x2="5.2266" y1="24.558" y2="19.278" gradientUnits="userSpaceOnUse">
<stop stop-color="#F27021" offset="0"/>
<stop stop-color="#F7911E" offset="1"/>
</linearGradient>
<clipPath id="f">
<rect transform="translate(2.25 8.25)" width="20" height="20" fill="#fff"/>
</clipPath>
</defs>
</svg>
