<svg xmlns="http://www.w3.org/2000/svg" viewBox="0 0 32 32"><title>file_type_eslint@2x</title><g id="eslint"><path d="M29.83,16.7,23.48,27.42a1.26,1.26,0,0,1-1.12.58H9.65a1.26,1.26,0,0,1-1.12-.59L2.17,16.71a1.26,1.26,0,0,1,0-1.27L8.53,4.68A1.34,1.34,0,0,1,9.65,4H22.36a1.34,1.34,0,0,1,1.12.68l6.35,10.79a1.2,1.2,0,0,1,0,1.24Zm-5.26,4.2V11.29L16,6.47,7.44,11.29V20.9L16,25.72Z" style="fill:#4b32c3"/><polygon points="21.8 19.19 16.05 22.42 10.31 19.19 10.31 12.72 16.05 9.48 21.8 12.72 21.8 19.19" style="fill:#8080f2"/></g></svg>