<svg xmlns="http://www.w3.org/2000/svg" viewBox="0 0 32 32"><title>file_type_storybook</title><g fill="none" fill-rule="nonzero"><path d="M4.876 27.801L4 4.69a1.412 1.412 0 0 1 1.33-1.458l19.823-1.228a1.415 1.415 0 0 1 1.509 1.405v25.184A1.414 1.414 0 0 1 25.179 30l-18.948-.844A1.414 1.414 0 0 1 4.876 27.8z" fill="#FFF"/><path d="M20.868 2.268l-.133 3.174a.209.209 0 0 0 .043.135c.07.093.203.11.296.04l1.243-.934 1.05.82a.21.21 0 0 0 .343-.172L23.588 2.1l1.566-.097a1.415 1.415 0 0 1 1.509 1.405v25.184A1.414 1.414 0 0 1 25.179 30l-18.948-.844A1.414 1.414 0 0 1 4.876 27.8L4 4.69a1.412 1.412 0 0 1 1.33-1.458l15.537-.963z" fill="#FF4785"/><path d="M17.253 12.554c0 .547 3.72.285 4.22-.1 0-3.73-2.018-5.69-5.714-5.69-3.695 0-5.766 1.99-5.766 4.976 0 5.2 7.077 5.3 7.077 8.136 0 .796-.394 1.27-1.258 1.27-1.127 0-1.573-.572-1.52-2.512 0-.421-4.299-.553-4.43 0-.334 4.703 2.621 6.06 6.002 6.06 3.276 0 5.845-1.733 5.845-4.868 0-5.573-7.182-5.423-7.182-8.185 0-1.12.839-1.269 1.337-1.269.524 0 1.468.092 1.389 2.182z" fill="#FFF"/></g></svg>
