<svg width="32" height="32" xmlns="http://www.w3.org/2000/svg">
  <path d="M5.85 6H30v16.65l-3.9 3.9H2V9.85C3.28 8.54 4.57 7.27 5.85 6zM6 16.45c0 2.27 1.1 3.6 2.83 3.6.7 0 1.38-.36 1.89-.84l-.06 1.14v2.25h1.61v-9.59H11l-.14.66h-.04a2.54 2.54 0 0 0-1.9-.83c-1.5 0-2.92 1.37-2.92 3.61zm1.67-.01c0-1.44.71-2.27 1.6-2.27.45 0 .92.16 1.4.58v3.2c-.47.53-.92.77-1.45.77-1 0-1.55-.8-1.55-2.28zm5.9 3.44h1.28l.14-.7h.04c.57.56 1.25.87 1.88.87 1.52 0 2.94-1.36 2.94-3.72 0-2.12-1-3.49-2.72-3.49-.7 0-1.41.35-1.99.86l.04-1.15V10h-1.6v9.88zm1.61-1.73v-3.2c.54-.53 1.01-.78 1.52-.78 1.03 0 1.48.81 1.48 2.19 0 1.55-.7 2.36-1.61 2.36-.4 0-.9-.15-1.39-.57zm4.85.95c.67.55 1.66.95 2.6.95 1.74 0 2.68-.95 2.68-2.13 0-1.28-1.04-1.73-1.98-2.08-.74-.27-1.43-.5-1.43-1.02 0-.44.33-.76 1.01-.76.55 0 1.04.24 1.51.59l.75-.98a3.71 3.71 0 0 0-2.29-.83c-1.54 0-2.5.86-2.5 2.06 0 1.15 1.02 1.67 1.93 2 .73.28 1.47.53 1.47 1.1 0 .48-.35.83-1.1.83-.7 0-1.28-.29-1.9-.77l-.75 1.04z" fill="#A653D9" fill-rule="nonzero"/>
</svg>
