<svg xmlns="http://www.w3.org/2000/svg" viewBox="0 0 32 32"><title>file_type_tm</title><path fill="#c6c6c6" fill-rule="evenodd" d="M7.293 4.415c.176.123.28.326.28.543v7.596c0 .588-.699.883-1.109.467L3.191 9.703A.67.67 0 0 1 3 9.236V2.66c0-.532.588-.845 1.02-.543zm9.197 17.663a.643.643 0 0 1-.926.007l-6.828-6.923a.67.67 0 0 1-.19-.467V6.54c0-.533.588-.846 1.019-.544l2.537 1.78a.64.64 0 0 0 .369.117h7.155c.132 0 .26-.04.37-.117l2.469-1.733c.431-.302 1.02.011 1.02.543v7.92a.67.67 0 0 1-.185.46zM28.816 9.387a.67.67 0 0 0 .184-.46V2.732c0-.533-.588-.846-1.02-.544L24.74 4.462a.66.66 0 0 0-.28.543v7.306c0 .592.709.885 1.115.46zM3.204 25.86a.67.67 0 0 1-.205-.48v-5.532c0-.585.695-.88 1.106-.47l3.006 3a.67.67 0 0 1 .194.475l-.035 5.373c-.004.577-.682.872-1.095.476zm13.025-2.307a.24.24 0 0 1-.088.058.4.4 0 0 1-.122.025.24.24 0 0 1-.172-.072l-1.506-1.527c-.41-.415-1.11-.12-1.11.468v4.691c0 .177.07.347.195.47l2.145 2.144a.643.643 0 0 0 .92-.008l1.925-1.991a.67.67 0 0 0 .186-.463V22.7c0-.593-.709-.885-1.116-.46zm9.557-3.342c-.406.42-1.11.13-1.113-.459l-.03-4.699a.67.67 0 0 1 .183-.464l3.056-3.191c.407-.425 1.116-.133 1.116.46v4.767c0 .173-.067.34-.187.463zM7.353 15.229a.67.67 0 0 0-.19-.471l-3.055-3.096c-.41-.415-1.109-.12-1.109.467v4.846c0 .177.07.347.195.47l3.023 3.017c.41.409 1.101.117 1.105-.466zm17.337 7.422a.67.67 0 0 1 .187-.467l3.008-3.104c.408-.422 1.113-.128 1.113.463v5.907a.67.67 0 0 1-.204.48l-2.972 2.843c-.413.396-1.092.1-1.096-.476z" clip-rule="evenodd"/></svg>