<svg xmlns="http://www.w3.org/2000/svg" viewBox="0 0 32 32"><title>file_type_ng_component_html</title><path d="M2.73,6.67,15.85,2V30L4.77,23.88Z" style="fill:#de3641"/><path d="M15.85,2,29.27,6.59,27.08,23.8,15.85,30Z" style="fill:#b13138"/><path d="M15.85,5.14l8.53,18.23H21.47l-1.82-4.16h-3.8V16.73h2.77L15.85,11l-2.33,5.73h2.33v2.48H12.38l-1.63,4.16H7.61Z" style="fill:#fff"/><polygon points="17.714 28.68 16.655 16.8 28.295 16.8 27.234 28.679 22.468 30 17.714 28.68" style="fill:#e44f26"/><polygon points="22.475 28.99 26.326 27.922 27.232 17.772 22.475 17.772 22.475 28.99" style="fill:#f1662a"/><polygon points="22.475 22.178 20.547 22.178 20.414 20.685 22.475 20.685 22.475 19.228 22.47 19.228 18.821 19.228 18.856 19.62 19.214 23.635 22.475 23.635 22.475 22.178" style="fill:#ebebeb"/><polygon points="22.475 25.962 22.468 25.964 20.846 25.526 20.742 24.364 19.953 24.364 19.279 24.364 19.483 26.651 22.468 27.48 22.475 27.478 22.475 25.962" style="fill:#ebebeb"/><polygon points="22.47 22.178 22.47 23.635 24.264 23.635 24.095 25.525 22.47 25.963 22.47 27.479 25.457 26.651 25.479 26.405 25.821 22.569 25.857 22.178 25.464 22.178 22.47 22.178" style="fill:#fff"/><polygon points="22.47 19.228 22.47 20.133 22.47 20.682 22.47 20.685 25.985 20.685 25.985 20.685 25.989 20.685 26.019 20.358 26.085 19.62 26.12 19.228 22.47 19.228" style="fill:#fff"/></svg>