<svg xmlns="http://www.w3.org/2000/svg" viewBox="0 0 32 32"><title>file_type_tt</title><path d="M8.907,23.021H8.878a3.305,3.305,0,0,1-2.011-.661A2.561,2.561,0,0,1,5.83,20.334V16.1H4.288a3.05,3.05,0,0,1-2.738-1.69,3.3,3.3,0,0,1,.441-3.53,2.265,2.265,0,0,1,1.815-.9h9.65a3.05,3.05,0,0,1,2.738,1.69,3.3,3.3,0,0,1-.441,3.53,2.265,2.265,0,0,1-1.815.9H11.955v4.231a2.561,2.561,0,0,1-1.037,2.026A3.305,3.305,0,0,1,8.907,23.021ZM4.264,11.636a1.39,1.39,0,0,0-1.388,1.388v.033a1.39,1.39,0,0,0,1.388,1.388H7.487v5.881c0,.572.624,1.037,1.39,1.037h.029c.767,0,1.39-.465,1.39-1.037V14.446h3.223a1.39,1.39,0,0,0,1.388-1.388v-.033a1.39,1.39,0,0,0-1.388-1.388Z" style="fill:#015d9a"/><path d="M14.981,12.953v.033a1.533,1.533,0,0,1-1.533,1.533H10.37v5.737a1.393,1.393,0,0,1-1.535,1.181H8.806a1.393,1.393,0,0,1-1.535-1.181V14.518H4.192A1.533,1.533,0,0,1,2.66,12.986v-.033A1.533,1.533,0,0,1,4.192,11.42h9.257A1.533,1.533,0,0,1,14.981,12.953Zm-4.223,9.222a2.418,2.418,0,0,0,.98-1.912V15.888h2.127a2.114,2.114,0,0,0,1.7-.846,2.992,2.992,0,0,0-2.18-4.99H3.735a2.114,2.114,0,0,0-1.7.846,2.992,2.992,0,0,0,2.18,4.99H5.9v4.375a2.418,2.418,0,0,0,.98,1.912,3.16,3.16,0,0,0,1.923.631h.029A3.16,3.16,0,0,0,10.758,22.174Z" style="fill:#3bcefc"/><path d="M23.607,23.021h-.029a3.305,3.305,0,0,1-2.011-.661,2.561,2.561,0,0,1-1.037-2.026V16.1H18.988a3.05,3.05,0,0,1-2.738-1.69,3.3,3.3,0,0,1,.441-3.53,2.265,2.265,0,0,1,1.815-.9h9.65a3.05,3.05,0,0,1,2.738,1.69,3.3,3.3,0,0,1-.441,3.53,2.265,2.265,0,0,1-1.815.9H26.655v4.231a2.561,2.561,0,0,1-1.037,2.026A3.305,3.305,0,0,1,23.607,23.021ZM18.964,11.636a1.39,1.39,0,0,0-1.388,1.388v.033a1.39,1.39,0,0,0,1.388,1.388h3.223v5.881c0,.572.624,1.037,1.39,1.037h.029c.767,0,1.39-.465,1.39-1.037V14.446h3.223a1.39,1.39,0,0,0,1.388-1.388v-.033a1.39,1.39,0,0,0-1.388-1.388Z" style="fill:#015d9a"/><path d="M29.681,12.953v.033a1.533,1.533,0,0,1-1.533,1.533H25.07v5.737a1.393,1.393,0,0,1-1.535,1.181h-.029a1.393,1.393,0,0,1-1.535-1.181V14.518H18.892a1.533,1.533,0,0,1-1.533-1.533v-.033a1.533,1.533,0,0,1,1.533-1.533h9.257A1.533,1.533,0,0,1,29.681,12.953Zm-4.223,9.222a2.418,2.418,0,0,0,.98-1.912V15.888h2.127a2.114,2.114,0,0,0,1.7-.846,2.992,2.992,0,0,0-2.18-4.99h-9.65a2.114,2.114,0,0,0-1.7.846,2.992,2.992,0,0,0,2.18,4.99H20.6v4.375a2.418,2.418,0,0,0,.98,1.912,3.16,3.16,0,0,0,1.923.631h.029A3.16,3.16,0,0,0,25.458,22.174Z" style="fill:#3bcefc"/></svg>