<svg xmlns="http://www.w3.org/2000/svg" viewBox="0 0 32 32"><title>file_type_powerpoint2</title><path d="M18.536,2.321V5.184c3.4.019,7.357-.035,10.754.016.642,0,.67.568.678,1.064.054,5.942-.013,12.055.032,18-.012.234-.006,1.1-.013,1.346-.022.823-.434.859-1.257.884-.132,0-.52.006-.648.012-3.181-.016-6.362-.009-9.546-.009v3.182L2,27.134Q2,16,2,4.873L18.536,2.322" style="fill:#d33922"/><path d="M18.536,6.138h10.5v19.4h-10.5V23H26.17V21.725H18.536V20.135H26.17V18.863H18.539c0-.624,0-1.247-.006-1.87a4.467,4.467,0,0,0,3.82-.375,4.352,4.352,0,0,0,1.959-3.474c-1.4-.01-2.793-.006-4.186-.006,0-1.384.016-2.767-.029-4.148-.522.1-1.043.21-1.562.321V6.139" style="fill:#fff"/><path d="M20.766,8.324a4.476,4.476,0,0,1,4.186,4.167c-1.4.016-2.793.01-4.189.01,0-1.393,0-2.787,0-4.177" style="fill:#d33922"/><path d="M7.1,10.726c1.727.083,3.82-.684,5.252.611,1.371,1.664,1.008,4.724-1.024,5.719A4.7,4.7,0,0,1,9,17.348c0,1.244-.006,2.488,0,3.731-.63-.054-1.263-.108-1.893-.159-.029-3.4-.035-6.8,0-10.2" style="fill:#fff"/><path d="M8.993,12.446c.627-.029,1.4-.143,1.826.445a2.308,2.308,0,0,1,.041,2.087c-.363.655-1.183.592-1.816.668-.067-1.066-.06-2.131-.051-3.2" style="fill:#d33922"/></svg>