<svg xmlns="http://www.w3.org/2000/svg" viewBox="0 0 32 32"><title>file_type_light_mdx</title><path d="M20.3,16.5l-3.9,3.9-4-3.9,1.1-1.1,2.1,2.1V11.8h1.5v5.8l2.1-2.1ZM3.5,15.7l2.7,2.7L9,15.7v4.4h1.5V12L6.2,16.3,2,12v8.1H3.5Z"/><path d="M28.8,20l-3.1-3.1L22.6,20l-1-1.1,3.1-3.1-3.2-3.2,1.1-1,3.1,3.2,3.2-3.2,1.1,1-3.2,3.2,3.1,3.1Z" style="fill:#f9ac00"/><path d="M27.075,25.107l.363-.361c1.68.055,1.706,0,1.78-.177l.462-1.124.034-.107-.038-.093c-.02-.049-.081-.2-1.13-1.2v-.526c1.211-1.166,1.185-1.226,1.116-1.4l-.46-1.136c-.069-.17-.1-.237-1.763-.191l-.364-.367a8.138,8.138,0,0,0-.057-1.657l-.047-.106-1.2-.525c-.177-.081-.239-.11-1.372,1.124l-.509-.008c-1.167-1.245-1.222-1.223-1.4-1.152l-1.115.452c-.175.071-.236.1-.169,1.79l-.36.359c-1.68-.055-1.7,0-1.778.177L18.606,20l-.036.108.038.094c.02.048.078.194,1.13,1.2v.525c-1.211,1.166-1.184,1.226-1.115,1.4l.459,1.137c.07.174.1.236,1.763.192l.363.377a8.169,8.169,0,0,0,.055,1.654l.047.107,1.208.528c.176.073.236.1,1.366-1.13l.509.006c1.168,1.247,1.228,1.223,1.4,1.154l1.113-.45C27.082,26.827,27.143,26.8,27.075,25.107Zm-4.788-2.632a2,2,0,1,1,2.618,1.14A2.023,2.023,0,0,1,22.287,22.475Z" style="fill:#99b8c4"/></svg>