<svg viewBox="0 0 32 32" xmlns="http://www.w3.org/2000/svg"><g fill="#45d339"><path d="m16 30a14 14 0 1 1 14-14 14 14 0 0 1 -14 14zm0-26.82a12.82 12.82 0 1 0 12.82 12.82 12.82 12.82 0 0 0 -12.82-12.82z"/><path d="m2.78 15.41h26.43v1.18h-26.43z"/><path d="m16.32 10.47a44.78 44.78 0 0 1 -11.9-1.55l.34-1.13c.11 0 11.28 3.32 22.43 0l.33 1.13a39.37 39.37 0 0 1 -11.2 1.55z"/><path d="m4.79 23.91-.34-1.13c11.5-3.42 22.63-.14 23.1 0l-.34 1.13c-.11-.04-11.27-3.32-22.42 0z"/><path d="m11.47 28.76a35.45 35.45 0 0 1 -.74-25.71l1.08.46a34.23 34.23 0 0 0 .74 24.79z"/><path d="m20.44 28.76-1.08-.46a34.23 34.23 0 0 0 .74-24.78l1.08-.46a35.46 35.46 0 0 1 -.74 25.7z"/><path d="m15.41 2.78h1.18v26.92h-1.18z"/></g></svg>