<svg viewBox="0 0 32 32" xmlns="http://www.w3.org/2000/svg"><g fill="#984c93"><path d="m2.395 25.5v-19h2.332v6.817a5.212 5.212 0 0 1 4.121-1.892 5.558 5.558 0 0 1 2.657.6 3.539 3.539 0 0 1 1.614 1.665 7.677 7.677 0 0 1 .486 3.085v8.725h-2.332v-8.722a3.6 3.6 0 0 0 -.758-2.547 2.819 2.819 0 0 0 -2.145-.8 3.782 3.782 0 0 0 -1.951.538 3.038 3.038 0 0 0 -1.3 1.458 6.7 6.7 0 0 0 -.389 2.54v7.533z"/><path d="m16.727 14.829v-2.344h2.344v2.344h2.344v2.343h-2.344v2.343h-2.344v-2.343h-2.342v-2.344z"/><path d="m24.928 14.829v-2.344h2.344v2.344h2.343v2.343h-2.343v2.343h-2.344v-2.343h-2.343v-2.344z"/></g></svg>