<svg viewBox="0 0 32 32" xmlns="http://www.w3.org/2000/svg"><path d="m21.714 8.571h1.143a.571.571 0 0 1 .571.571.571.571 0 0 1 -.571.571h-1.143a.571.571 0 0 1 -.571-.571.571.571 0 0 1 .571-.571z" fill="#56b3b4"/><path d="m4.571 26.857h5.714a.571.571 0 0 1 .571.571.571.571 0 0 1 -.571.571h-5.714a.571.571 0 0 1 -.571-.57.571.571 0 0 1 .571-.572z" fill="#ea5e5e"/><path d="m18.286 17.714h3.429a.571.571 0 0 1 .571.571.571.571 0 0 1 -.571.571h-3.429a.571.571 0 0 1 -.571-.571.571.571 0 0 1 .571-.571z" fill="#bf85bf"/><path d="m11.429 17.714h4.571a.571.571 0 0 1 .571.571.571.571 0 0 1 -.571.571h-4.571a.571.571 0 0 1 -.571-.571.571.571 0 0 1 .571-.571z" fill="#ea5e5e"/><path d="m4.571 17.714h4.572a.571.571 0 0 1 .571.571.571.571 0 0 1 -.571.571h-4.572a.571.571 0 0 1 -.571-.57.571.571 0 0 1 .571-.572z" fill="#56b3b4"/><path d="m4.571 22.286h5.714a.571.571 0 0 1 .571.571.571.571 0 0 1 -.571.571h-5.714a.571.571 0 0 1 -.571-.571.571.571 0 0 1 .571-.571z" fill="#bf85bf"/><path d="m4.571 13.143h5.714a.571.571 0 0 1 .571.571.571.571 0 0 1 -.571.571h-5.714a.571.571 0 0 1 -.571-.571.571.571 0 0 1 .571-.571z" fill="#bf85bf"/><path d="m10.286 6.286h11.428a.571.571 0 0 1 .571.571.571.571 0 0 1 -.571.571h-11.428a.571.571 0 0 1 -.571-.571.571.571 0 0 1 .571-.571z" fill="#f7ba3e"/><path d="m4.571 6.286h3.429a.571.571 0 0 1 .571.571.571.571 0 0 1 -.571.572h-3.429a.571.571 0 0 1 -.571-.572.571.571 0 0 1 .571-.571z" fill="#ea5e5e"/><path d="m9.143 24.571h1.143a.571.571 0 0 1 .571.571.571.571 0 0 1 -.571.571h-1.143a.571.571 0 0 1 -.571-.571.571.571 0 0 1 .571-.571z" fill="#f7ba3e"/><path d="m9.143 10.857h1.143a.571.571 0 0 1 .571.571.571.571 0 0 1 -.571.571h-1.143a.571.571 0 0 1 -.571-.571.571.571 0 0 1 .571-.571z" fill="#56b3b4"/><path d="m4.571 24.571h2.286a.571.571 0 0 1 .571.571.571.571 0 0 1 -.571.571h-2.286a.571.571 0 0 1 -.571-.57.571.571 0 0 1 .571-.572z" fill="#56b3b4"/><path d="m4.571 10.857h2.286a.571.571 0 0 1 .571.571.571.571 0 0 1 -.571.572h-2.286a.571.571 0 0 1 -.571-.571.571.571 0 0 1 .571-.572z" fill="#f7ba3e"/><path d="m19.429 24.571h1.143a.571.571 0 0 1 .571.571.571.571 0 0 1 -.571.571h-1.143a.571.571 0 0 1 -.571-.571.571.571 0 0 1 .571-.571z" fill="#d0d4d8" opacity=".5"/><path d="m12.571 24.571h4.571a.571.571 0 0 1 .571.571.571.571 0 0 1 -.571.571h-4.571a.571.571 0 0 1 -.571-.57.571.571 0 0 1 .571-.572z" fill="#d0d4d8" opacity=".5"/><path d="m22.857 24.571h4.571a.571.571 0 0 1 .571.571.571.571 0 0 1 -.571.571h-4.571a.571.571 0 0 1 -.571-.571.571.571 0 0 1 .571-.571z" fill="#d0d4d8" opacity=".5"/><path d="m13.714 15.429h9.143a.571.571 0 0 1 .571.571.571.571 0 0 1 -.571.571h-9.143a.571.571 0 0 1 -.571-.571.571.571 0 0 1 .571-.571z" fill="#56b3b4"/><path d="m8 15.429h3.429a.571.571 0 0 1 .571.571.571.571 0 0 1 -.571.571h-3.429a.571.571 0 0 1 -.571-.571.571.571 0 0 1 .571-.571z" fill="#f7ba3e"/><path d="m4.571 15.429h1.143a.571.571 0 0 1 .572.571.571.571 0 0 1 -.571.571h-1.144a.571.571 0 0 1 -.571-.571.571.571 0 0 1 .571-.571z" fill="#ea5e5e"/><path d="m14.857 8.571h4.571a.571.571 0 0 1 .572.572.571.571 0 0 1 -.571.571h-4.572a.571.571 0 0 1 -.571-.571.571.571 0 0 1 .571-.572z" fill="#bf85bf"/><path d="m4.571 8.571h8a.571.571 0 0 1 .571.571.571.571 0 0 1 -.571.571h-8a.571.571 0 0 1 -.571-.57.571.571 0 0 1 .571-.572z" fill="#56b3b4"/><path d="m8 20h10.286a.571.571 0 0 1 .571.571.571.571 0 0 1 -.571.571h-10.286a.571.571 0 0 1 -.571-.571.571.571 0 0 1 .571-.571z" fill="#f7ba3e"/><path d="m4.571 20h1.143a.571.571 0 0 1 .571.571.571.571 0 0 1 -.571.571h-1.143a.571.571 0 0 1 -.571-.571.571.571 0 0 1 .571-.571z" fill="#bf85bf"/><path d="m18.286 10.857h5.714a.571.571 0 0 1 .571.571.571.571 0 0 1 -.571.572h-5.714a.571.571 0 0 1 -.571-.571.571.571 0 0 1 .571-.572z" fill="#ea5e5e"/><path d="m18.286 13.143h5.714a.571.571 0 0 1 .571.571.571.571 0 0 1 -.571.571h-5.714a.571.571 0 0 1 -.571-.571.571.571 0 0 1 .571-.571z" fill="#f7ba3e"/><path d="m4.571 4h13.715a.571.571 0 0 1 .571.571.571.571 0 0 1 -.571.571h-13.715a.571.571 0 0 1 -.571-.571.571.571 0 0 1 .571-.571z" fill="#56b3b4"/><g fill="#d0d4d8"><path d="m20.571 4h6.857a.571.571 0 0 1 .572.571.571.571 0 0 1 -.571.571h-6.858a.571.571 0 0 1 -.571-.571.571.571 0 0 1 .571-.571z" opacity=".5"/><path d="m20.571 20h2.286a.571.571 0 0 1 .571.571.571.571 0 0 1 -.571.571h-2.286a.571.571 0 0 1 -.571-.571.571.571 0 0 1 .571-.571z" opacity=".5"/><path d="m25.143 20h2.286a.571.571 0 0 1 .571.571.571.571 0 0 1 -.571.571h-2.286a.571.571 0 0 1 -.571-.571.571.571 0 0 1 .571-.571z" opacity=".5"/><path d="m24 17.714h3.429a.571.571 0 0 1 .571.571.571.571 0 0 1 -.571.571h-3.429a.571.571 0 0 1 -.571-.571.571.571 0 0 1 .571-.571z" opacity=".5"/><path d="m24 6.286h3.429a.571.571 0 0 1 .571.571.571.571 0 0 1 -.571.571h-3.429a.571.571 0 0 1 -.571-.571.571.571 0 0 1 .571-.571z" opacity=".5"/><path d="m25.143 15.429h2.286a.571.571 0 0 1 .571.571.571.571 0 0 1 -.571.571h-2.286a.571.571 0 0 1 -.572-.571.571.571 0 0 1 .572-.571z" opacity=".5"/><path d="m25.143 8.571h2.286a.571.571 0 0 1 .571.572.571.571 0 0 1 -.571.571h-2.286a.571.571 0 0 1 -.571-.571.571.571 0 0 1 .571-.572z" opacity=".5"/><path d="m26.286 10.857h1.143a.571.571 0 0 1 .571.571.571.571 0 0 1 -.571.571h-1.143a.571.571 0 0 1 -.571-.571.571.571 0 0 1 .571-.571z" opacity=".5"/><path d="m26.286 13.143h1.143a.571.571 0 0 1 .571.571.571.571 0 0 1 -.571.571h-1.143a.571.571 0 0 1 -.571-.571.571.571 0 0 1 .571-.571z" opacity=".5"/><path d="m17.143 22.286h10.286a.571.571 0 0 1 .571.571.571.571 0 0 1 -.571.571h-10.286a.571.571 0 0 1 -.571-.571.571.571 0 0 1 .571-.571z" opacity=".5"/><path d="m12.571 22.286h2.286a.571.571 0 0 1 .571.571.571.571 0 0 1 -.571.571h-2.286a.571.571 0 0 1 -.571-.571.571.571 0 0 1 .571-.571z" opacity=".5"/><path d="m21.714 26.857h5.714a.571.571 0 0 1 .571.571.571.571 0 0 1 -.571.571h-5.714a.571.571 0 0 1 -.571-.571.571.571 0 0 1 .571-.571z" opacity=".5"/><path d="m12.571 26.857h6.857a.571.571 0 0 1 .571.571.571.571 0 0 1 -.571.571h-6.857a.571.571 0 0 1 -.571-.57.571.571 0 0 1 .571-.572z" opacity=".5"/><path d="m12.571 10.857h3.429a.571.571 0 0 1 .571.571.571.571 0 0 1 -.571.572h-3.429a.571.571 0 0 1 -.571-.571.571.571 0 0 1 .571-.572z" opacity=".5"/><path d="m12.571 13.143h3.429a.571.571 0 0 1 .571.571.571.571 0 0 1 -.571.571h-3.429a.571.571 0 0 1 -.571-.571.571.571 0 0 1 .571-.571z" opacity=".5"/></g></svg>