<?xml version="1.0" encoding="utf-8"?>
<!-- Generator: Adobe Illustrator 21.0.0, SVG Export Plug-In . SVG Version: 6.00 Build 0)  -->
<svg version="1.1" xmlns="http://www.w3.org/2000/svg" xmlns:xlink="http://www.w3.org/1999/xlink" x="0px" y="0px"
	 viewBox="0 0 32 32" style="enable-background:new 0 0 32 32;" xml:space="preserve">
<style type="text/css">
	.st0{display:none;}
	.st1{display:inline;opacity:0.4021;fill:url(#SVGID_1_);enable-background:new    ;}
	.st2{display:inline;opacity:0.4021;fill:url(#SVGID_2_);enable-background:new    ;}
	.st3{display:inline;opacity:0.4021;fill:url(#SVGID_3_);enable-background:new    ;}
	.st4{display:inline;fill:url(#SVGID_4_);stroke:url(#SVGID_5_);stroke-width:1;stroke-linecap:round;stroke-linejoin:round;}
	.st5{display:inline;fill:url(#SVGID_6_);stroke:url(#SVGID_7_);stroke-width:0.995;stroke-linecap:round;stroke-linejoin:round;}
	.st6{display:inline;opacity:0.2557;}
	.st7{fill:none;stroke:#181F10;stroke-width:1.0007;}
	
		.st8{display:inline;opacity:0.7637;fill:none;stroke:url(#SVGID_8_);stroke-width:1;stroke-linecap:round;stroke-linejoin:round;enable-background:new    ;}
	.st9{display:inline;fill:#FFFFFF;stroke:#6ED66E;stroke-opacity:0.2787;}
	.st10{display:inline;opacity:0.5314;fill:url(#SVGID_9_);enable-background:new    ;}
	
		.st11{display:inline;opacity:0.7143;fill:none;stroke:#000000;stroke-width:2;stroke-linecap:round;stroke-linejoin:round;enable-background:new    ;}
	.st12{display:inline;fill:url(#SVGID_10_);stroke:url(#SVGID_11_);stroke-width:1;stroke-linecap:round;}
	.st13{display:inline;fill:#93D94C;}
	.st14{display:inline;fill:#FFFFFF;}
	.st15{display:inline;fill:#CCCCCC;stroke:#343100;stroke-width:0.25;stroke-miterlimit:10;}
	.st16{display:inline;fill:url(#SVGID_12_);stroke:#130B19;stroke-width:0.25;stroke-miterlimit:10;}
	.st17{display:inline;}
	.st18{display:inline;fill:none;stroke:#2BE300;stroke-miterlimit:10;}
	.st19{fill:none;stroke:#D9B400;stroke-miterlimit:10;}
</style>
<g id="Layer_1" class="st0">
	<title>file_type_shell</title>
	
		<linearGradient id="SVGID_1_" gradientUnits="userSpaceOnUse" x1="2089.8088" y1="4311.1372" x2="2089.8088" y2="4447.582" gradientTransform="matrix(6.800000e-02 0 0 4.100000e-02 -126.107 -154.817)">
		<stop  offset="0" style="stop-color:#000000;stop-opacity:0"/>
		<stop  offset="0.5" style="stop-color:#000000"/>
		<stop  offset="1" style="stop-color:#000000;stop-opacity:0"/>
	</linearGradient>
	<rect x="6.8" y="22.4" class="st1" width="18.5" height="5.6"/>
	
		<radialGradient id="SVGID_2_" cx="2223.978" cy="4378.5571" r="65.815" gradientTransform="matrix(6.800000e-02 0 0 4.100000e-02 -126.093 -154.817)" gradientUnits="userSpaceOnUse">
		<stop  offset="0" style="stop-color:#000000"/>
		<stop  offset="1" style="stop-color:#000000;stop-opacity:0"/>
	</radialGradient>
	<path class="st2" d="M25.2,22.4V28c2,0,4.8-1.3,4.8-2.8S27.8,22.4,25.2,22.4z"/>
	
		<radialGradient id="SVGID_3_" cx="-1496.798" cy="4378.5571" r="65.815" gradientTransform="matrix(-6.800000e-02 0 0 4.100000e-02 -95.282 -154.817)" gradientUnits="userSpaceOnUse">
		<stop  offset="0" style="stop-color:#000000"/>
		<stop  offset="1" style="stop-color:#000000;stop-opacity:0"/>
	</radialGradient>
	<path class="st3" d="M6.8,22.4V28c-2,0-4.8-1.3-4.8-2.8S4.2,22.4,6.8,22.4z"/>
	
		<linearGradient id="SVGID_4_" gradientUnits="userSpaceOnUse" x1="22.8786" y1="367.2067" x2="20.0526" y2="357.0217" gradientTransform="matrix(0.957 0 0 0.952 -4.727 -329.8)">
		<stop  offset="0" style="stop-color:#777973"/>
		<stop  offset="1" style="stop-color:#CBCCCA"/>
	</linearGradient>
	
		<linearGradient id="SVGID_5_" gradientUnits="userSpaceOnUse" x1="15.9044" y1="352.0604" x2="23.1114" y2="365.1124" gradientTransform="matrix(0.957 0 0 0.952 -4.727 -329.8)">
		<stop  offset="0" style="stop-color:#A2A59C"/>
		<stop  offset="1" style="stop-color:#535750"/>
	</linearGradient>
	<path class="st4" d="M5.9,4h19.8c1.5,0,2.7,1.2,2.7,2.7v16.5c0,1.5-1.2,2.7-2.7,2.7H5.9c-1.5,0-2.7-1.2-2.7-2.7V6.7
		C3.2,5.2,4.4,4,5.9,4z"/>
	
		<linearGradient id="SVGID_6_" gradientUnits="userSpaceOnUse" x1="22.6609" y1="351.414" x2="22.2799" y2="365.259" gradientTransform="matrix(0.95 0 0 0.966 -5.495 -331.952)">
		<stop  offset="0" style="stop-color:#748F48"/>
		<stop  offset="1" style="stop-color:#1F2816"/>
	</linearGradient>
	
		<linearGradient id="SVGID_7_" gradientUnits="userSpaceOnUse" x1="10.1017" y1="345.7704" x2="18.7487" y2="357.8844" gradientTransform="matrix(0.998 0 0 0.99 -0.222 -336.232)">
		<stop  offset="0" style="stop-color:#616161"/>
		<stop  offset="1" style="stop-color:#A0A0A0"/>
	</linearGradient>
	<path class="st5" d="M6.4,6.2h19c0.5,0,0.9,0.4,0.9,0.9v14.5c0,0.5-0.4,0.9-0.9,0.9h-19c-0.5,0-0.9-0.4-0.9-0.9V7.2
		C5.4,6.7,5.8,6.2,6.4,6.2z"/>
	<g class="st6">
		<path class="st7" d="M6.8,8.5h18"/>
		<path class="st7" d="M6.8,9.6h18"/>
		<path class="st7" d="M6.8,10.8h18"/>
		<path class="st7" d="M6.8,11.9h18"/>
		<path class="st7" d="M6.8,13h18"/>
		<path class="st7" d="M6.8,14.1h18"/>
		<path class="st7" d="M6.8,15.2h18"/>
		<path class="st7" d="M6.8,16.4h18"/>
		<path class="st7" d="M6.8,17.5h18"/>
		<path class="st7" d="M6.8,18.6h18"/>
		<path class="st7" d="M6.8,19.7h18"/>
		<path class="st7" d="M6.8,20.9h18"/>
	</g>
	
		<linearGradient id="SVGID_8_" gradientUnits="userSpaceOnUse" x1="20.0724" y1="359.7474" x2="36.3074" y2="376.8864" gradientTransform="matrix(0.954 0 0 0.948 -5.135 -327.989)">
		<stop  offset="0" style="stop-color:#FFFFFF"/>
		<stop  offset="1" style="stop-color:#FFFFFF;stop-opacity:0"/>
	</linearGradient>
	<path class="st8" d="M5.9,4.6h19.9c1.2,0,2.1,1,2.1,2.1v16.5c0,1.2-1,2.1-2.1,2.1H5.9c-1.2,0-2.1-1-2.1-2.1V6.7
		C3.8,5.5,4.7,4.6,5.9,4.6z"/>
	<path class="st9" d="M8.9,13.7v-1.7l5,2.3v1l-5,2.3v-1.7l3.9-1L8.9,13.7z M19.5,19.3v1.1h-6.1v-1.1H19.5"/>
	
		<linearGradient id="SVGID_9_" gradientUnits="userSpaceOnUse" x1="-14.1012" y1="358.7584" x2="-10.8942" y2="372.8464" gradientTransform="matrix(1.236 0 0 0.896 30.799 -317.6)">
		<stop  offset="0" style="stop-color:#FFFFFF"/>
		<stop  offset="1" style="stop-color:#FCFCFF;stop-opacity:0"/>
	</linearGradient>
	<path class="st10" d="M6.6,6.5c-0.3,0-0.9,0.1-0.9,0.6l0.1,9.3c9.9-0.5,7.9-4.6,20.1-6.7l0-2.4c0-0.6-0.3-0.7-0.9-0.7L6.6,6.5z"/>
	<path class="st11" d="M6.3,7.1h19c0,0,0.1,0,0.1,0.1v14.5c0,0,0,0.1-0.1,0.1h-19c0,0-0.1,0-0.1-0.1L6.3,7.1
		C6.3,7.1,6.3,7.1,6.3,7.1z"/>
	
		<radialGradient id="SVGID_10_" cx="23.407" cy="417.185" r="1.41" gradientTransform="matrix(1 0 0 0.738 0 -283.849)" gradientUnits="userSpaceOnUse">
		<stop  offset="0" style="stop-color:#777973"/>
		<stop  offset="1" style="stop-color:#777973;stop-opacity:0"/>
	</radialGradient>
	
		<linearGradient id="SVGID_11_" gradientUnits="userSpaceOnUse" x1="25.1096" y1="417.0419" x2="22.7086" y2="414.3129" gradientTransform="matrix(1 0 0 0.745 0 -285.302)">
		<stop  offset="0" style="stop-color:#A9AAA7"/>
		<stop  offset="1" style="stop-color:#676964"/>
	</linearGradient>
	<path class="st12" d="M22.5,23.1h1.9c0.1,0,0.2,0.1,0.2,0.3v1c0,0.2-0.1,0.3-0.2,0.3h-1.9c-0.1,0-0.2-0.1-0.2-0.3v-1
		C22.3,23.3,22.4,23.1,22.5,23.1z"/>
	<path class="st13" d="M20.6,23.4h0.5c0.2,0,0.3,0.1,0.3,0.3v0.5c0,0.2-0.1,0.3-0.3,0.3h-0.5c-0.2,0-0.3-0.1-0.3-0.3v-0.5
		C20.3,23.5,20.5,23.4,20.6,23.4z"/>
	<path class="st14" d="M21,23.8c0,0.2-0.1,0.3-0.3,0.3s-0.3-0.1-0.3-0.3s0.1-0.3,0.3-0.3l0,0C20.9,23.5,21,23.6,21,23.8z"/>
</g>
<g id="Layer_2" class="st0">
	<path class="st15" d="M26.1,27H5.9C4.3,27,3,25.7,3,24.1V7.9C3,6.3,4.3,5,5.9,5h20.2C27.7,5,29,6.3,29,7.9v16.3
		C29,25.7,27.7,27,26.1,27z"/>
	<linearGradient id="SVGID_12_" gradientUnits="userSpaceOnUse" x1="2.8924" y1="20.4294" x2="29.1232" y2="11.5653">
		<stop  offset="0" style="stop-color:#000000"/>
		<stop  offset="0.152" style="stop-color:#404041"/>
		<stop  offset="0.273" style="stop-color:#58595B"/>
		<stop  offset="0.388" style="stop-color:#404041"/>
		<stop  offset="0.539" style="stop-color:#000000"/>
		<stop  offset="0.824" style="stop-color:#000000"/>
		<stop  offset="0.945" style="stop-color:#58595B"/>
	</linearGradient>
	<path class="st16" d="M25.1,26.2H6.9c-1.6,0-2.9-1.3-2.9-2.9V8.7c0-1.6,1.3-2.9,2.9-2.9h18.2c1.6,0,2.9,1.3,2.9,2.9v14.6
		C28,24.9,26.7,26.2,25.1,26.2z"/>
	<g id="Layer_3" class="st17">
	</g>
	<polyline class="st18" points="6.8,9.6 13.8,14.8 6.8,18.9 	"/>
	<line class="st18" x1="15.7" y1="18.7" x2="24.6" y2="18.7"/>
</g>
<g id="Layer_2_copy">
	<g id="Layer_3_copy">
	</g>
	<g>
		<rect x="3" y="5" class="st19" width="25.9" height="22.1"/>
		<polyline class="st19" points="5.8,10.8 11.2,15.3 5.8,18.9 		"/>
		<line class="st19" x1="12.7" y1="18.7" x2="20.5" y2="18.7"/>
		<rect x="3" y="6" class="st19" width="25.9" height="0.9"/>
	</g>
</g>
</svg>
