<svg xmlns="http://www.w3.org/2000/svg" viewBox="0 0 32 32"><g transform="matrix(.13536 0 0 .13475 -9.5 -11)"><path d="M202.6 162.4h22.5q.9 0 1 .7v20.4q.1 1.9-1 3.3l-44.4 44.7q-1.4 1.2-3.1 1.4h-21.1q-1 0-1-.9l.1-22.4q0-1.6 1.3-2.8l42.8-42.8q1.3-1.5 3-1.6z" fill="#00db80"/><path d="M207.3 263.5a8 8 0 0 1-5.5 2.3h-75.4a3.7 3.7 0 0 1-3.8-4v-73.5q.1-3 2.5-5.4l25.6-25.2h-46.2l-16.8 16.7a8 8 0 0 0-2.7 5.8v116.7q0 3 1.8 4.7a7 7 0 0 0 4.6 1.8h117.7c2 0 4.2-.9 5.8-2.5l16-16.3V242Z" fill="#00db80"/><path d="M285.6 96.5H167.8q-3 .1-5.7 2.6l-29.6 30.4h121c3.3 0 5.6 2.4 5.6 5.9l-.4 121.2 30.6-29.8a9 9 0 0 0 2.5-5.8V103a6 6 0 0 0-6.2-6.5" fill="#00db80"/></g></svg>