<svg version="1.1" viewBox="0 0 32 32" xmlns="http://www.w3.org/2000/svg"><title>file_type_poetry</title><path d="M10.49 30a27.854 27.854 0 0014.322-7.82L5 2v22.409L10.49 30z" fill="url(#f)"/><path d="M5 24.409c12.15 0 22-10.033 22-22.409H5v22.409z" fill="url(#e)"/><path d="M5 24.409l.847.862c5.968-.223 11.359-2.784 15.315-6.812l-.603-.613a21.911 21.911 0 01-7.136 4.863A21.585 21.585 0 015 24.409z" fill="url(#d)" style="mix-blend-mode:multiply"/><path d="M10.49 30a27.854 27.854 0 0014.322-7.82L5 2v22.409L10.49 30z" fill="url(#c)" style="mix-blend-mode:multiply"/><path d="M24.812 22.18L5 2l18.01 21.857a28.51 28.51 0 001.802-1.677z" fill="url(#b)" style="mix-blend-mode:multiply"/><path d="M5 2l15.557 15.846c.138-.142.275-.285.41-.43L5 2z" fill="url(#a)" style="mix-blend-mode:screen"/><defs><radialGradient id="f" cx="0" cy="0" r="1" gradientTransform="matrix(27.978 0 0 28.497 23.754 33.95)" gradientUnits="userSpaceOnUse"><stop stop-color="#6877EC" offset="0"/><stop stop-color="#5362CF" offset=".6"/><stop stop-color="#4352B9" offset="1"/></radialGradient><radialGradient id="e" cx="0" cy="0" r="1" gradientTransform="matrix(36.643 0 0 37.323 5.46 1.19)" gradientUnits="userSpaceOnUse"><stop stop-color="#00D5FF" offset="0"/><stop stop-color="#00B8EB" offset=".38"/><stop stop-color="#0080C5" offset="1"/></radialGradient><radialGradient id="a" cx="0" cy="0" r="1" gradientTransform="matrix(21.175 0 0 21.568 14.986 .264)" gradientUnits="userSpaceOnUse"><stop stop-color="#fff" offset="0"/><stop offset="1"/></radialGradient><linearGradient id="d" x1="5.909" x2="16.154" y1="5.365" y2="27.494" gradientUnits="userSpaceOnUse"><stop stop-color="#294CA7" offset="0"/><stop stop-color="#96A7D4" offset=".48"/><stop stop-color="#E1E6F3" offset=".84"/><stop stop-color="#fff" offset="1"/></linearGradient><linearGradient id="c" x1="-8.99" x2="25.09" y1="-5.215" y2="33.975" gradientUnits="userSpaceOnUse"><stop stop-color="#6877EC" offset="0"/><stop stop-color="#97A1F2" offset=".29"/><stop stop-color="#E2E4FB" offset=".77"/><stop stop-color="#fff" offset="1"/></linearGradient><linearGradient id="b" x1="-5.184" x2="24.972" y1="-12.295" y2="22.985" gradientUnits="userSpaceOnUse"><stop stop-color="#8397CC" offset="0"/><stop stop-color="#97A8D4" offset=".15"/><stop stop-color="#E2E6F3" offset=".73"/><stop stop-color="#fff" offset="1"/></linearGradient></defs></svg>
