<svg viewBox="0 0 32 32" xmlns="http://www.w3.org/2000/svg" xmlns:xlink="http://www.w3.org/1999/xlink"><clipPath id="a"><circle cx="16" cy="16" r="14"/></clipPath><linearGradient id="b" gradientUnits="userSpaceOnUse" x1="6.4965" x2="25.5035" y1="14.3469" y2="14.3469"><stop offset="0" stop-color="#b7b7b7"/><stop offset=".5" stop-color="#fff"/><stop offset="1" stop-color="#b2b2b2"/></linearGradient><linearGradient id="c" gradientUnits="userSpaceOnUse" x1="8.3491" x2="19.4678" y1="12.2681" y2="17.6298"><stop offset=".1" stop-color="#323232"/><stop offset=".5" stop-color="#636363"/><stop offset="1" stop-color="#272727"/></linearGradient><linearGradient id="d" gradientUnits="userSpaceOnUse" x1="7.1192" x2="12.7632" y1="14.5879" y2="14.5879"><stop offset=".1" stop-color="#fff"/><stop offset="1" stop-color="#fff" stop-opacity=".4"/></linearGradient><linearGradient id="e"><stop offset=".1" stop-color="#fff"/><stop offset="1" stop-color="#fff" stop-opacity="0"/></linearGradient><linearGradient id="f" gradientUnits="userSpaceOnUse" x1="23.3234" x2="23.154" xlink:href="#e" y1="20.4617" y2="13.689"/><linearGradient id="g" gradientUnits="userSpaceOnUse" x1="5.4038" x2="22.4206" xlink:href="#e" y1="24.0844" y2="23.8842"/><circle cx="16" cy="16" fill="#65d1ff" r="14"/><g clip-path="url(#a)"><path d="m16 7.27c-9.71 0-9.51 7.65-9.51 7.65v6.51l3.93-.1v-6.41c0-3.96 5.39-3.93 5.57-3.93.18 0 5.57-.04 5.57 3.93v6.41l3.93.1v-6.51c.01 0 .22-7.65-9.49-7.65z" fill="url(#b)"/><path d="m25.86 21.8-4.65-.12v-6.76c0-.87-.29-1.59-.85-2.15-1.33-1.32-3.79-1.41-4.27-1.42h-.01-.09c-.2 0-2.92 0-4.35 1.42-.57.56-.85 1.28-.85 2.15v6.76l-4.65.12v-6.88c0-.11-.06-3.03 2.19-5.33 1.72-1.77 4.3-2.67 7.67-2.67h.01c3.37 0 5.95.9 7.67 2.67 2.24 2.3 2.19 5.22 2.19 5.34zm-9.87-14.17c-3.15 0-5.56.82-7.14 2.45-2.03 2.08-1.99 4.8-1.99 4.83v6.15l3.2-.08v-6.05c0-1.07.36-1.96 1.07-2.66 1.63-1.61 4.62-1.63 4.86-1.62h.01.01c.2 0 3.22 0 4.86 1.62.71.7 1.07 1.6 1.07 2.66v6.05l3.2.08v-6.14c0-.04.04-2.76-1.99-4.84-1.58-1.62-3.99-2.45-7.15-2.45z" fill="url(#c)"/><path d="m7.12 20.68v-5.77s-.07-5.44 5.64-6.65c0 0-4.2 2.21-4.2 6.65v5.99z" fill="url(#d)"/><path d="m22.41 13.16h1.65v7.34h-1.65z" fill="url(#f)"/><path d="m22.98 37.8h-13.85c-3.07 0-5.58-2.51-5.58-5.58v-6.72c0-3.07 2.51-5.58 5.58-5.58h13.85c3.07 0 5.58 2.51 5.58 5.58v6.72c-.01 3.07-2.52 5.58-5.58 5.58z" fill="#0ccc06"/><path d="m23.52 38.16h-14.94c-2.97 0-5.39-2.42-5.39-5.39v-7.81c0-2.97 2.42-5.39 5.39-5.39h14.94c2.97 0 5.39 2.42 5.39 5.39v7.81c.01 2.97-2.41 5.39-5.39 5.39zm-14.94-17.87c-2.57 0-4.67 2.09-4.67 4.67v7.81c0 2.57 2.09 4.67 4.67 4.67h14.94c2.57 0 4.67-2.09 4.67-4.67v-7.81c0-2.57-2.09-4.67-4.67-4.67z" fill="#337c00"/><path d="m5.98 27.07h-.83v-2.99c.05-.95.68-2.79 2.75-3.01h.04 14.46v.83h-14.43c-.78.09-1.34.48-1.69 1.17-.25.5-.29.98-.3 1.05z" fill="url(#g)"/></g></svg>