<svg xmlns="http://www.w3.org/2000/svg" viewBox="0 0 32 32"><title>file_type_imba</title><path style="fill:#FFDC00" d="M27.072,9.219c-0.548,2.446-5.879,14.001-6.564,16.619c-0.486,1.861,2.024,4.197,2.443,2.668	c1.232-4.496,6.725-15.177,7.032-17.401C30.246,9.188,27.34,8.024,27.072,9.219L27.072,9.219z M20.384,17.698	c0.334-0.083,0.689,0.03,0.909,0.29s0.268,0.62,0.123,0.927c0.004,0.002,0.004,0.002,0.004,0.003	c-0.465,0.976-1.38,1.675-2.462,1.877c-0.614,0.114-1.304,0.208-2.073,0.279c-2.759,0.256-5.719-2.992-3.715-2.9	C16.151,18.309,18.528,18.095,20.384,17.698L20.384,17.698z M23.312,14.646c-0.298,0.733-0.952,1.272-1.743,1.435	c-3.645,0.747-8.887,0.455-11.471-0.156c-2.512-0.596-4.162-4.164-2.531-3.632c3.787,1.236,10.832,1.646,14.818,1.203	c0.305-0.041,0.609,0.079,0.8,0.315c0.19,0.236,0.238,0.553,0.126,0.832C23.313,14.644,23.313,14.644,23.312,14.646z M24.825,10.458	c-0.245,0.786-0.957,1.348-1.797,1.414c-7.322,0.515-16.725-1.138-19.441-3.875C1.546,5.94,1.676,1.985,2.837,3.242	c4.399,4.763,15.212,6.135,21.101,6.073c0.29-0.006,0.566,0.124,0.741,0.35C24.854,9.893,24.909,10.187,24.825,10.458L24.825,10.458	z"/></svg>