<svg xmlns="http://www.w3.org/2000/svg" viewBox="0 0 32 32"><defs><linearGradient id="a" x1="146.49" x2="146.49" y1="175.44" y2="102.15" gradientTransform="scale(.98983 1.01027)" gradientUnits="userSpaceOnUse"><stop offset="0%" stop-color="#803fa5"/><stop offset="100%" stop-color="#4b114a"/></linearGradient></defs><g fill="none" fill-rule="evenodd"><path fill="#c4baff" d="M16.25 8.03 22.13 30H10.37z"/><path fill="#6750e5" fill-opacity=".5" d="M23.7 2 10.34 30h18.24z"/><path fill="#6750e5" fill-opacity=".5" d="m9.04 2 13.12 28H3.4z"/><path fill="url(#a)" d="M85.73 220H64.31L93.19 72.48l47.1 106.64 48.79-106.64L215.03 220h-21.24l-13.24-82.82-40.61 89.13-39.46-89.22z" transform="translate(-2.7 -1.8)scale(.13592)"/><path stroke="#a28bca" stroke-linecap="square" stroke-opacity=".36" stroke-width=".27" d="m7.83 26.13 2.45-13.19m5.91 12.3L10.35 12.6m6.11 12.5 5.98-12.5m2.25 13.8-2.25-13.53"/><g fill="#dcc6ff" transform="translate(7.76 10.7)scale(.13592)"><circle cx="19" cy="16" r="3"/><circle cx="63" cy="110" r="3"/><circle cx="108" cy="16" r="3"/><circle cx="125" cy="116" r="3"/><circle cy="116" r="3"/></g></g></svg>