<svg xmlns="http://www.w3.org/2000/svg" viewBox="0 0 32 32"><title>file_type_xo</title><path fill="#e271a5" d="m2.53 8.76 5.59 7.01 5.58-7.01h.51L8.36 16.1l5.7 7.14h-.52l-5.42-6.81-5.43 6.8h-.53l5.7-7.13L2 8.76z"/><path fill="#64d8c7" d="M16.52 16c0-3.85 2.94-7.34 6.75-7.34 4 0 6.73 3.73 6.73 7.34 0 3.87-2.94 7.28-6.73 7.34-4-.12-6.75-3.63-6.75-7.34zm6.75 6.93c3.77 0 6.32-3.52 6.32-6.93 0-3.61-2.73-6.93-6.32-6.93-3.77 0-6.34 3.5-6.34 6.93.1 3.61 2.67 6.93 6.34 6.93z"/><path fill="#d5efea" d="M24.44 14.45c.27 0 .56.2.72.47.18.32.18.7 0 1.08-.34.68-1.58 1.37-1.9 1.54-.32-.17-1.57-.86-1.9-1.54a1.12 1.12 0 0 1 0-1.08c.15-.28.45-.47.71-.47.6 0 1.04.59 1.04.6l.14.19.14-.2c.01 0 .45-.59 1.05-.59m0-.19c-.7 0-1.18.67-1.18.67s-.49-.67-1.18-.67c-.63 0-1.37.82-.88 1.83.42.85 2.06 1.66 2.06 1.66s1.63-.81 2.05-1.66c.5-1-.24-1.83-.87-1.83z"/></svg>