<svg xmlns="http://www.w3.org/2000/svg" fill="none" viewBox="0 0 32 32"><path fill="#fff" d="M8.9 11.54a2.75 2.75 0 1 1 0 5.5 2.75 2.75 0 0 1 0-5.5"/><path fill="#45239b" fill-rule="evenodd" d="M8.9 13.01a1.28 1.28 0 1 1 0 2.56 1.28 1.28 0 0 1 0-2.56m-.14.28c-.28.02-.63.18-.76.49-.02.05-.13.34.03.53.11.13.28.13.31.13a.5.5 0 0 0 .38-.2c.1-.16 0-.29.07-.42.06-.11.24-.22.8-.18l-.08-.08c-.13-.11-.4-.3-.75-.27" clip-rule="evenodd"/><path fill="#7b48d5" d="M5.13 22.15c1.96-.88 3.9.42 4.04.51q-.19.36-.36.98c-.11.43-.42 1.73.13 3.21a5.2 5.2 0 0 0 2.23 2.63 6 6 0 0 0 2.1.73 12.9 12.9 0 0 1-9.76-6.61c.23-.37.73-1.05 1.62-1.45M12.13 5.18c1.02-.2 2.08-.33 3.11-.23l-.04.54c-.14 2.2-.2 3.3.1 3.7.8 1.06 2.96-.82 5.38.27 1.65.74 2.21 2.3 3.39 2.09.56-.1.95-.55 1.19-.9.55.84 1.08 1.85 1.46 3.03l.03.08a5 5 0 0 1-.86 1.75c-1.28 1.67-3.18 1.8-3.3 2.99-.1 1.18 1.7 1.62 2.32 3.34.48 1.3.07 2.7-.5 3.83-.37.39-1.7 1.77-2.67 2.42q.11-.26.06-.55c-.06-.3-.27-.66-.58-.8-.77-.33-2.81 1.82-2.18 1.08a6.88 6.88 0 0 0 .19-8.73c.33-.89.39-1.85.03-2.69-.1-.2-.47-1-1.3-1.47-.67-.37-1.05-.2-1.91-.44-1.4-.39-1.54-1.26-2.36-1.34h-.43a4.85 4.85 0 0 0-1.45-2.18 5 5 0 0 0 .65-.96c.19-.36.82-1.64.45-3.2a4 4 0 0 0-.78-1.63"/><path fill="#7b48d5" d="M13.64 17.03c1.3-.03 2.57.33 3.66 1.02.25.17 2 1.34 2.62 3.61q.19.7.23 1.43a3.1 3.1 0 0 1-2.23 1.07 3 3 0 0 1-1.92-.63q.12-.24.25-.64.3-1.14.04-2.28a4.8 4.8 0 0 0-2.09-2.94 4 4 0 0 0-1.45-.55 6 6 0 0 1 .9-.1"/><path fill="#7b48d5" fill-rule="evenodd" d="M11.62 5.29a4.7 4.7 0 0 1 .89 2.85c-.04.57-.19.99-.27 1.2a3.95 3.95 0 0 1-1.07 1.6c.26.2 1.43 1.1 1.7 2.73a4.3 4.3 0 0 1-2.9 4.67 4.1 4.1 0 0 1-4.46-1.38c-.15.07-.53.22-.98.13a1.6 1.6 0 0 1-.75-.4c-.81-.68-.94-1.7-.98-2.05-.05-.36-.1-.75.08-1.2a2 2 0 0 1 .54-.76A7.7 7.7 0 0 1 5.87 8.5a13 13 0 0 1 5.75-3.21M8.9 11.54a2.75 2.75 0 1 0 0 5.5 2.75 2.75 0 0 0 0-5.5" clip-rule="evenodd"/><path fill="#7b48d5" d="M14.02 4.22c1.17-2 3.04-2.86 4.28-2.36.22.09.78.37 1.2 1.25 2.48-1.12 5.04-.65 6.2.89.67.89.72 1.94.68 2.56a3.6 3.6 0 0 1 2.74 2.47 3.7 3.7 0 0 1-.53 2.99 3.6 3.6 0 0 1-1.3 1.11 13.6 13.6 0 0 0-7.3-7.8 14 14 0 0 0-5.97-1.11"/><path fill="#f89e53" d="M18.88 28c1-.76 1.7-1.54 2.34-1.26.31.14.52.5.58.8q.05.29-.06.56a13 13 0 0 1-4.18 1.85 13 13 0 0 1-3.7.3 7.5 7.5 0 0 0 4.88-2.1zM26.76 13.8a12.8 12.8 0 0 1-1.78 11.14l-.56.73c.56-1.14.97-2.53.5-3.83-.64-1.73-2.43-2.16-2.32-3.34.1-1.2 2-1.32 3.3-2.99q.59-.8.85-1.75zM6.34 16.09q.2 0 .36.1a.38.38 0 0 1 .04.6q0 .03-.03.04a2 2 0 0 0-.66.92L6 17.9l-.06.25a1 1 0 0 0 .03.44 1 1 0 0 0 .26.36c.2.15.42.22.47.23.18.04.32.04.55.03.25 0 .37-.04.7-.05h.36q.17 0 .35.02.37.02.72.12.37.11.64.34.28.23.4.53.08.15.09.3.01.17-.02.32t-.1.3a1 1 0 0 1-.34.36 1 1 0 0 1-.85-.04 1 1 0 0 1-.24-.22s.09.12.25.2c.04.01.16.07.32.08a.89.89 0 0 0 .46-.1l.06-.05.06-.05q.19-.21.2-.5a1 1 0 0 0-.11-.53q-.15-.24-.38-.41a2 2 0 0 0-.55-.23c-.4-.09-.84-.06-1.29-.02-.32.02-.32.06-.65.1-.34.03-.54.05-.8 0a2 2 0 0 1-.74-.29 2 2 0 0 1-.3-.26 1 1 0 0 1-.22-.33 1.5 1.5 0 0 1-.13-.71q0-.18.03-.33l.03-.16q.01-.07.04-.17.21-.67.75-1.19.15-.14.34-.14M13.69 13.15c.82.08.96.95 2.36 1.34.86.23 1.24.07 1.91.44.83.47 1.2 1.26 1.3 1.47.36.84.3 1.8-.03 2.7a6.8 6.8 0 0 0-6.41-2.53 4.2 4.2 0 0 0 .44-3.42zM15.24 4.95a12.8 12.8 0 0 1 10.02 5.7c-.24.35-.63.8-1.2.9-1.17.2-1.73-1.36-3.38-2.1-2.42-1.08-4.58.8-5.39-.26-.3-.4-.23-1.5-.09-3.7z"/></svg>