<svg xmlns="http://www.w3.org/2000/svg" viewBox="0 0 32 32"><title>file_type_bak</title><path d="M20.414,2H5V30H27V8.586ZM7,28V4H19v6h6V28Z" fill="#c5c5c5"/><path d="M20.856,9.659a10.743,10.743,0,0,1,7.893,3.249A10.739,10.739,0,0,1,32,20.8a10.739,10.739,0,0,1-3.25,7.891,10.743,10.743,0,0,1-7.893,3.249,10.7,10.7,0,0,1-6.789-2.321l1.74-1.74a8.835,8.835,0,0,0,5.049,1.568A8.624,8.624,0,0,0,29.505,20.8a8.624,8.624,0,0,0-8.649-8.647A8.624,8.624,0,0,0,12.207,20.8h3.714l-4.99,4.934L6,20.8H9.713a10.739,10.739,0,0,1,3.25-7.891A10.758,10.758,0,0,1,20.856,9.659Z" fill="#99b8c4"/></svg>