<svg viewBox="0 0 32 32" xmlns="http://www.w3.org/2000/svg" xmlns:xlink="http://www.w3.org/1999/xlink"><linearGradient id="a" gradientTransform="matrix(202.935 0 0 -202.78 47910.461 -62541.16)" gradientUnits="userSpaceOnUse" x1="-235.957" x2="-235.986" y1="-308.579" y2="-308.527"><stop offset="0" stop-color="#fb7655"/><stop offset=".41" stop-color="#e42b1e"/><stop offset=".99" stop-color="#900"/><stop offset="1" stop-color="#900"/></linearGradient><linearGradient id="b" gradientTransform="matrix(60.308 0 0 -111.778 14236.351 -34525.395)" gradientUnits="userSpaceOnUse" x1="-235.571" x2="-235.697" y1="-309.087" y2="-309.041"><stop offset="0" stop-color="#871101"/><stop offset=".99" stop-color="#911209"/><stop offset="1" stop-color="#911209"/></linearGradient><linearGradient id="c" gradientTransform="matrix(188.32 0 0 -21.986 44447.30200000001 -6856.882)" x1="-235.896" x2="-235.937" xlink:href="#b" y1="-313.362" y2="-313.129"/><linearGradient id="d" gradientTransform="matrix(65.222 0 0 -97.1 15237.802 -29991.814)" gradientUnits="userSpaceOnUse" x1="-233.515" x2="-233.497" y1="-309.082" y2="-309.161"><stop offset="0" stop-color="#fff"/><stop offset=".23" stop-color="#e57252"/><stop offset=".46" stop-color="#de3b20"/><stop offset=".99" stop-color="#a60003"/><stop offset="1" stop-color="#a60003"/></linearGradient><linearGradient id="e" gradientTransform="matrix(105.32 0 0 -106.825 24798.925 -33053.152)" gradientUnits="userSpaceOnUse" x1="-235.314" x2="-235.31" y1="-309.534" y2="-309.607"><stop offset="0" stop-color="#fff"/><stop offset=".23" stop-color="#e4714e"/><stop offset=".56" stop-color="#be1a0d"/><stop offset=".99" stop-color="#a80d00"/><stop offset="1" stop-color="#a80d00"/></linearGradient><linearGradient id="f" gradientTransform="matrix(94.321 0 0 -66.418 22271.499 -20707.004)" gradientUnits="userSpaceOnUse" x1="-235.882" x2="-235.869" y1="-311.851" y2="-311.935"><stop offset="0" stop-color="#fff"/><stop offset=".18" stop-color="#e46342"/><stop offset=".4" stop-color="#c82410"/><stop offset=".99" stop-color="#a80d00"/><stop offset="1" stop-color="#a80d00"/></linearGradient><linearGradient id="g" gradientTransform="matrix(70.767 0 0 -24.301 16678.116 -7798.647)" gradientUnits="userSpaceOnUse" x1="-235.412" x2="-235.333" y1="-321.074" y2="-320.958"><stop offset="0" stop-color="#fff"/><stop offset=".54" stop-color="#c81f11"/><stop offset=".99" stop-color="#bf0905"/><stop offset="1" stop-color="#bf0905"/></linearGradient><linearGradient id="h" gradientTransform="matrix(18.177 0 0 -72.645 4071.017 -22510.233)" gradientUnits="userSpaceOnUse" x1="-223.821" x2="-223.796" y1="-310.116" y2="-310.18"><stop offset="0" stop-color="#fff"/><stop offset=".31" stop-color="#de4024"/><stop offset=".99" stop-color="#bf190b"/><stop offset="1" stop-color="#bf190b"/></linearGradient><linearGradient id="i" gradientTransform="matrix(158.162 0 0 -157.937 37256.313 -48819.382)" gradientUnits="userSpaceOnUse" x1="-235.561" x2="-235.424" y1="-309.258" y2="-309.116"><stop offset="0" stop-color="#bd0012"/><stop offset=".07" stop-color="#fff"/><stop offset=".17" stop-color="#fff"/><stop offset=".27" stop-color="#c82f1c"/><stop offset=".33" stop-color="#820c01"/><stop offset=".46" stop-color="#a31601"/><stop offset=".72" stop-color="#b31301"/><stop offset=".99" stop-color="#e82609"/><stop offset="1" stop-color="#e82609"/></linearGradient><linearGradient id="j" gradientTransform="matrix(127.074 0 0 -97.409 29932.229 -30086.947)" gradientUnits="userSpaceOnUse" x1="-235.424" x2="-235.476" y1="-309.143" y2="-309.126"><stop offset="0" stop-color="#8c0c01"/><stop offset=".54" stop-color="#990c00"/><stop offset=".99" stop-color="#a80d0e"/><stop offset="1" stop-color="#a80d0e"/></linearGradient><linearGradient id="k" gradientTransform="matrix(94.011 0 0 -105.603 22198.743 -32676.856)" gradientUnits="userSpaceOnUse" x1="-235.839" x2="-235.901" y1="-309.604" y2="-309.555"><stop offset="0" stop-color="#7e110b"/><stop offset=".99" stop-color="#9e0c00"/><stop offset="1" stop-color="#9e0c00"/></linearGradient><linearGradient id="l" gradientTransform="matrix(79.702 0 0 -81.791 18827.397 -25447.905)" gradientUnits="userSpaceOnUse" x1="-235.854" x2="-235.891" y1="-311.24" y2="-311.202"><stop offset="0" stop-color="#79130d"/><stop offset=".99" stop-color="#9e120b"/><stop offset="1" stop-color="#9e120b"/></linearGradient><radialGradient id="m" cx="-235.882" cy="-312.543" gradientTransform="matrix(93.113 0 0 -48.655 21986.073 -15193.61)" gradientUnits="userSpaceOnUse" r=".076"><stop offset="0" stop-color="#a80d00"/><stop offset=".99" stop-color="#7e0e08"/><stop offset="1" stop-color="#7e0e08"/></radialGradient><radialGradient id="n" cx="-235.282" cy="-309.704" gradientTransform="matrix(97.434 0 0 -75.848 22937.057 -23467.84)" gradientUnits="userSpaceOnUse" r=".097"><stop offset="0" stop-color="#a30c00"/><stop offset=".99" stop-color="#800e08"/><stop offset="1" stop-color="#800e08"/></radialGradient><linearGradient id="o" gradientTransform="matrix(40.137 0 0 -81.143 9286.998 -25078.589)" gradientUnits="userSpaceOnUse" x1="-231.241" x2="-231.299" y1="-309.435" y2="-309.337"><stop offset="0" stop-color="#8b2114"/><stop offset=".43" stop-color="#9e100a"/><stop offset=".99" stop-color="#b3100c"/><stop offset="1" stop-color="#b3100c"/></linearGradient><linearGradient id="p" gradientTransform="matrix(78.099 0 0 -32.624 18447.361 -10353.553)" gradientUnits="userSpaceOnUse" x1="-235.898" x2="-235.831" y1="-317.466" y2="-317.537"><stop offset="0" stop-color="#b31000"/><stop offset=".44" stop-color="#910f08"/><stop offset=".99" stop-color="#791c12"/><stop offset="1" stop-color="#791c12"/></linearGradient><path d="m23.693 20.469-15.986 9.492 20.7-1.4 1.593-20.876z" fill="url(#a)"/><path d="m28.44 28.542-1.779-12.279-4.846 6.4z" fill="url(#b)"/><path d="m28.464 28.542-13.034-1.023-7.654 2.415z" fill="url(#c)"/><path d="m7.794 29.937 3.256-10.667-7.165 1.53z" fill="url(#d)"/><path d="m21.813 22.7-3-11.735-8.57 8.035z" fill="url(#e)"/><path d="m29.32 11.127-8.1-6.619-2.257 7.3z" fill="url(#f)"/><path d="m25.53 2.148-4.767 2.634-3.007-2.67z" fill="url(#g)"/><path d="m2 24.38 2-3.642-1.618-4.338z" fill="url(#h)"/><path d="m2.274 16.263 1.626 4.61 7.062-1.584 8.062-7.489 2.276-7.231-3.583-2.53-6.091 2.28c-1.92 1.781-5.644 5.316-5.778 5.381s-2.459 4.464-3.574 6.562z" fill="#fff"/><path d="m7.981 7.981c4.159-4.123 9.519-6.56 11.578-4.481s-.124 7.121-4.283 11.244-9.455 6.69-11.511 4.614.057-7.258 4.216-11.377z" fill="url(#i)"/><path d="m7.794 29.933 3.231-10.7 10.729 3.447c-3.879 3.638-8.194 6.713-13.96 7.254z" fill="url(#j)"/><path d="m19.038 11.774 2.754 10.91c3.24-3.407 6.149-7.07 7.573-11.6l-10.328.691z" fill="url(#k)"/><path d="m29.337 11.139c1.1-3.327 1.357-8.1-3.841-8.985l-4.265 2.355 8.106 6.629z" fill="url(#l)"/><path d="m2 24.332c.153 5.49 4.114 5.572 5.8 5.62l-3.9-9.1z" fill="#9e1209"/><path d="m19.053 11.791c2.49 1.531 7.509 4.6 7.61 4.661a17.552 17.552 0 0 0 2.619-5.343l-10.229.683z" fill="url(#m)"/><path d="m11.021 19.232 4.319 8.332a27.924 27.924 0 0 0 6.385-4.88l-10.7-3.452z" fill="url(#n)"/><path d="m3.887 20.861-.612 7.287c1.155 1.577 2.743 1.714 4.409 1.591-1.205-3-3.614-9-3.8-8.878z" fill="url(#o)"/><path d="m21.206 4.528 8.58 1.2c-.458-1.94-1.864-3.192-4.261-3.584l-4.319 2.38z" fill="url(#p)"/></svg>