<svg viewBox="0 0 32 32" xmlns="http://www.w3.org/2000/svg"><g fill="#f3b276"><path d="m12.67 5.042a2.939 2.939 0 0 1 -.245 1.188 2.693 2.693 0 0 1 -.739.985 3.5 3.5 0 0 1 -1.165.635 5.013 5.013 0 0 1 -1.562.223h-.495v-1.911l.5.017a3.1 3.1 0 0 0 .577-.033 1.553 1.553 0 0 0 .406-.119.494.494 0 0 0 .184-.136.125.125 0 0 0 .025-.091.24.24 0 0 0 -.008-.076.4.4 0 0 0 -.054-.092c-.042-.05-.089-.1-.135-.149a2.417 2.417 0 0 1 -.2-.228 1.261 1.261 0 0 1 -.293-.835 1.429 1.429 0 0 1 .1-.526 1.41 1.41 0 0 1 .76-.775 1.512 1.512 0 0 1 .61-.119 1.547 1.547 0 0 1 .753.183 1.7 1.7 0 0 1 .553.483 2.075 2.075 0 0 1 .32.65 2.513 2.513 0 0 1 .108.726z"/><path d="m14.364 6.314h9.636v2.086h-9.636z"/><path d="m8 10.958h6.089v2.092h-6.089z"/><path d="m8 14.008h6.089v2.091h-6.089z"/><path d="m17.12 10.958h6.089v2.092h-6.089z"/><path d="m17.12 14.008h6.089v2.091h-6.089z"/><path d="m11.34 20.639v6.293h2.77v2.068h-5.087v-10.43h5.087v2.069z"/><path d="m21.992 18.57v10.43h-5.076v-2.068h2.758v-6.293h-2.758v-2.069z"/></g></svg>