<svg viewBox="0 0 32 32" xmlns="http://www.w3.org/2000/svg" xmlns:xlink="http://www.w3.org/1999/xlink"><linearGradient id="a" gradientUnits="userSpaceOnUse" x1="16" x2="16" y1="3" y2="29"><stop offset="0" stop-color="#1c4c70"/><stop offset="1" stop-color="#0c2b42"/></linearGradient><path d="m15.922 19.962a13 13 0 0 1 -1.647-.077v5.552a27.76 27.76 0 0 1 3.332.461v3.102h-11.639v-3.1a27.988 27.988 0 0 1 3.332-.462v-18.723a28.215 28.215 0 0 1 -3.331-.46v-3.1h2.986c1.225-.002 4.594-.155 7.275-.155 6.318 0 9.8 2.948 9.8 8 .001 5.018-3.83 8.962-10.108 8.962zm.078-12.904c-.613 0-1.149 0-1.723.038v8.615a9.694 9.694 0 0 0 1.455.115c3.025-.038 5.13-1.723 5.13-4.519 0-2.607-1.455-4.249-4.862-4.249z" fill="url(#a)"/></svg>