<svg xmlns="http://www.w3.org/2000/svg" viewBox="0 0 32 32"><title>file_type_light_ada</title><path d="M24.554,20.075c.209.27,1.356.961,1.37,1.246a6.921,6.921,0,0,0-1.4-.324c-.468-.142-.951-.293-1.412-.48a9.2,9.2,0,0,1-2.375-1.3A3.146,3.146,0,0,1,19.3,16.75a1.722,1.722,0,0,1,1.767-1.822,3.584,3.584,0,0,1,1.593.321c.146.066,1.31.606,1.256.809a5.5,5.5,0,0,0-1.41-.112c-.649.244-.4.828-.168,1.311a7.877,7.877,0,0,0,1.078,1.554C23.58,19.005,24.3,20.082,24.554,20.075Z" style="fill:#0f23c3"/><path d="M24.141,16.276c.128-.59.819-1.384,1.344-.773a4.2,4.2,0,0,1,.578,1.918c.12.656.2,1.327.261,1.982.038.379.34,1.794.123,2.075a23.24,23.24,0,0,1-2.922-2.838,3.763,3.763,0,0,1-.925-1.7C22.5,15.867,23.479,16.21,24.141,16.276Z" style="fill:#1a1978"/><path d="M26.3,17.781c.141-.732-.406-2.592-1.067-2.949a.06.06,0,0,0,.044-.007c-.156-.444-1.359,1.116-1.228,1.174-.316-.138.774-1.984.988-2.16.7-.578,1.372-.086,1.845.543a6.036,6.036,0,0,1,.733,4.434,4.5,4.5,0,0,1-.421,1.312c-.1.22-.45,1.1-.682,1.174A14.754,14.754,0,0,0,26.3,17.781Z" style="fill:#0f23c3"/><path d="M3.687,8.4c.179-.188-.041-1.527.324-1.548.262-.015.553,1.741.627,1.968a9.2,9.2,0,0,0,1.127,2.329,7.529,7.529,0,0,0,4.016,2.978,4.55,4.55,0,0,0,2.366.2c.931-.208,1.82-.577,2.757-.765,1.35-.27,3.342-.352,4.438.647.7.641.376.76.043,1.421a2.445,2.445,0,0,0,.178,2.562c.235.342,1.033.827.675,1.094-.567.424-1.277-.452-1.636-.776-1.4-1.264-2.711-1.313-4.492-1.074a8.987,8.987,0,0,1-4.883-.708A9.469,9.469,0,0,1,3.687,8.4Z" style="fill:#010101"/><path d="M19.941,30a3.615,3.615,0,0,1-2.325-.817c.469-.092,1.021.025,1.508-.044a9.7,9.7,0,0,0,1.754-.43A10.537,10.537,0,0,0,23.9,27.155a6.55,6.55,0,0,0,2.757-5.214c.149-.088.316,1.034.319,1.091a5.789,5.789,0,0,1-.19,1.727,6.867,6.867,0,0,1-1.423,2.774A7.286,7.286,0,0,1,19.941,30Z" style="fill:#010101"/><path d="M18.962,19.109a5.76,5.76,0,0,1-2.05.859,13.38,13.38,0,0,1-2.224.549,8.861,8.861,0,0,1-4.435-.51,9.939,9.939,0,0,1-3.849-2.4C6.052,17.24,4.3,15.19,4.856,14.557c.248-.282.875.846,1,.992a5,5,0,0,0,1.357,1.11,10.917,10.917,0,0,0,4.035,1.456,6.693,6.693,0,0,0,2.34-.094,12.743,12.743,0,0,1,1.694-.485,4,4,0,0,1,2.113.457C17.739,18.163,18.918,18.736,18.962,19.109Z" style="fill:#010101"/><path d="M28.313,15.078a19.277,19.277,0,0,1-.453,3.774c-.176-.242.016-1.47,0-1.792a6.032,6.032,0,0,0-.384-2.087A4.925,4.925,0,0,0,26.1,13.312a14.728,14.728,0,0,1-1.27-1.536c-1.837-2.382-3.245-5.211-2.9-8.3.034-.308.069-1.448.411-1.445.152,0,.266,1.561.29,1.718a12.527,12.527,0,0,0,1.224,4.116c.67,1.222,1.947,2.023,2.825,3.1A6.579,6.579,0,0,1,28.313,15.078Z" style="fill:#010101"/><path d="M15.7,26.935a10.845,10.845,0,0,0,6.436-.687,6.941,6.941,0,0,0,4.278-4.418c.319.2-.048,1.529-.128,1.781a5.726,5.726,0,0,1-1.01,1.813,8.933,8.933,0,0,1-3.257,2.514C20.316,28.71,16.357,29.59,15.7,26.935Z" style="fill:#010101"/><path d="M19.151,19.376c.367,2.107-2.957,3.124-4.478,3.213-1.859.11-4.929-.292-6.06-2.031-.673-1.035.781-.09,1.188.058a8.663,8.663,0,0,0,3.06.5,11.6,11.6,0,0,0,3.305-.5,13.725,13.725,0,0,0,1.533-.576C18,19.908,18.823,19.349,19.151,19.376Z" style="fill:#010101"/><path d="M24.142,23.46c.4-.945-1.883-1.578-2.445-1.858a4.857,4.857,0,0,1-1.315-.867c-.181-.181-.872-.92-.807-1.219a4.912,4.912,0,0,1,1.087-.175,5.93,5.93,0,0,1,.855.588,10.323,10.323,0,0,0,.964.5A15.615,15.615,0,0,0,24.6,21.2c.308.09,1.549.208,1.727.428C26.287,21.924,24.357,23.649,24.142,23.46Z" style="fill:#010101"/><path d="M26.1,22.172c.265.43-1.08,1.831-1.363,2.105a9.34,9.34,0,0,1-2.566,1.728,7.748,7.748,0,0,1-2.56.753c-.679.058-1.966-.124-2.141-.979a6.951,6.951,0,0,1,1.177-.086c.462-.059.921-.149,1.376-.246a13.065,13.065,0,0,0,2.184-.645,11.506,11.506,0,0,0,2.084-1.11,10.872,10.872,0,0,0,1.078-.822C25.474,22.781,25.986,22.168,26.1,22.172Z" style="fill:#010101"/><path d="M18.758,11.965c-.1-1.308,2.612-1.3,3.271-1.092a5.976,5.976,0,0,1,2.982,2.475c-1.082.8-2.449.094-3.3-.654a4.324,4.324,0,0,0-1.481-1.029C19.421,11.4,19.412,11.759,18.758,11.965Z" style="fill:#010101"/><path d="M25.783,13.341c-.444-.029-.316.071-.647-.212-.358-.307-.614-.795-.945-1.141-.534-.558-1.242-.895-1.723-1.485a7.269,7.269,0,0,1-1.624-4.848c.018-1.489.407.187.551.675a12.276,12.276,0,0,0,1.126,2.708,46.055,46.055,0,0,0,3.4,4.321C25.882,13.361,25.824,13.338,25.783,13.341Z" style="fill:#010101"/><path d="M20.068,14.756c.033-.625-.911-.792-1.211-1.42-.164-.343-.211-.569.029-.7.082-.045.383.012.5-.02.271-.076.335-.273.581-.4A1.193,1.193,0,0,1,21.6,13.237,1.821,1.821,0,0,1,20.068,14.756Z" style="fill:#010101"/><path d="M20.5,14.745a1.931,1.931,0,0,0,1.323-1.7c.524.139.928.658,1.521.771a2.584,2.584,0,0,0,1.029-.017c.207-.045.54-.274.721-.259-.033.163-.464.546-.565.717a4.242,4.242,0,0,0-.388.9c-.229.741-.061.739-.709.311a4.284,4.284,0,0,0-1.957-.72C21.209,14.722,20.594,14.767,20.5,14.745Z" style="fill:#010101"/><path d="M19.905,20.734a2.008,2.008,0,0,1-1.4,1.712c-.205.091-2.018.733-2.032.348-.007-.2,1.624-.954,1.809-1.11a3.355,3.355,0,0,0,.867-1.071c.055-.112.232-.925.271-.943C19.644,19.564,19.908,20.6,19.905,20.734Z" style="fill:#010101"/><path d="M11.373,12.532a10.625,10.625,0,0,1,3.71-.914,10.282,10.282,0,0,1,1.865.024c.366.039,1.469.054,1.74.343a.255.255,0,0,1-.273.173c-.037.077.251.371.3.425-.034.034-1.445-.4-1.572-.424a10.632,10.632,0,0,0-2.282-.134,16,16,0,0,0-1.841.194A6.224,6.224,0,0,1,11.373,12.532Z" style="fill:#010101"/><path d="M22.512,10.731a1.888,1.888,0,0,1-1.517-.6c-.247-.349-.737-1.692-.385-2.021.209-.2.384.662.484.846A10.822,10.822,0,0,0,22.512,10.731Z" style="fill:#010101"/><path d="M27.788,19.2a19.212,19.212,0,0,1-.749,3.313c-.173-.077-.275-.778-.562-.95a4.07,4.07,0,0,0,.76-1.154C27.389,20.107,27.54,19.363,27.788,19.2Z" style="fill:#010101"/><path d="M19.981,11.843c-.132.268-.932,1.1-1.118.481C18.756,11.968,19.739,11.483,19.981,11.843Zm-.747.45c.228.006.012-.248.012-.266C19.245,11.984,18.878,12.293,19.234,12.293Z" style="fill:#010101"/></svg>