<svg xmlns="http://www.w3.org/2000/svg" viewBox="0 0 32 32"><title>file_type_light_quasar</title><path id="center" d="M18,16a2,2,0,1,1-2-2,2,2,0,0,1,2,2Z" style="fill:#050a14"/><g id="bottom_triangle_blades"><path id="bottom" d="M16,26.42a10.38,10.38,0,0,0,2.61-.34V23.37A7.78,7.78,0,0,0,21.07,22a9.65,9.65,0,0,0-1.4-3,11.5,11.5,0,0,1-6.27,5.41v1.71A10.46,10.46,0,0,0,16,26.42Z" style="fill:#050a14"/><path id="right" d="M25,10.8a10.37,10.37,0,0,0-1.6-2.09l-2.35,1.36a7.83,7.83,0,0,0-2.45-1.42,9.55,9.55,0,0,0-1.9,2.71,11.48,11.48,0,0,1,7.82,2.73L26,13.23A10.3,10.3,0,0,0,25,10.8Z" style="fill:#050a14"/><path id="left" d="M7,10.8a10.23,10.23,0,0,0-1,2.43l2.35,1.36a7.81,7.81,0,0,0,0,2.83,9.59,9.59,0,0,0,3.29.29,11.48,11.48,0,0,1-1.55-8.14L8.59,8.72A10.32,10.32,0,0,0,7,10.8Z" style="fill:#050a14"/></g><g id="top_triangle_blades"><path id="right-2" data-name="right" d="M25,21.22a10.23,10.23,0,0,0,1-2.43l-2.34-1.36a7.81,7.81,0,0,0,0-2.83,9.59,9.59,0,0,0-3.29-.29A11.48,11.48,0,0,1,22,22.45l1.48.85A10.29,10.29,0,0,0,25,21.22Z" style="fill:#00b4ff"/><path id="left-2" data-name="left" d="M7,21.22a10.37,10.37,0,0,0,1.6,2.09l2.35-1.36a7.83,7.83,0,0,0,2.45,1.42,9.55,9.55,0,0,0,1.9-2.71,11.48,11.48,0,0,1-7.82-2.73L6,18.78A10.33,10.33,0,0,0,7,21.22Z" style="fill:#00b4ff"/><path id="top" d="M16,5.59a10.37,10.37,0,0,0-2.61.34V8.64a7.78,7.78,0,0,0-2.46,1.41,9.65,9.65,0,0,0,1.4,3,11.5,11.5,0,0,1,6.27-5.41V5.94A10.43,10.43,0,0,0,16,5.59Z" style="fill:#00b4ff"/></g><path id="outer_circle" d="M16,3.81A12.2,12.2,0,1,1,3.81,16,12.22,12.22,0,0,1,16,3.81M16,2a14,14,0,1,0,0,28h0A14,14,0,0,0,16,2Z" style="fill:#00b4ff"/></svg>