<svg xmlns="http://www.w3.org/2000/svg" viewBox="0 0 32 32"><title>file_type_actionscript@2x</title><g id="actionscript"><path d="M2,15.28c1.92,0,2.11-1.05,2.11-1.92a17.12,17.12,0,0,0-.19-2.21A18.72,18.72,0,0,1,3.73,9c0-2.4,1.63-3.45,3.84-3.45h.58V6.94H7.66c-1.53,0-2.11.77-2.11,2.21a14.41,14.41,0,0,0,.19,1.92,14.31,14.31,0,0,1,.19,2C5.93,14.8,5.26,15.57,4,16V16c1.15.29,1.92,1.15,1.92,2.88a14.31,14.31,0,0,1-.19,2,13,13,0,0,0-.19,1.92c0,1.44.58,2.3,2.11,2.3h.48V26.6H7.56c-2.21,0-3.84-1-3.84-3.64a18.72,18.72,0,0,1,.19-2.21,15.68,15.68,0,0,0,.19-2.11c0-.86-.29-1.92-2.11-1.92Z" style="fill:#c41718"/><path d="M9.48,18.06,8.23,21.8H6.6l4-11.89h1.82l4,11.89H14.95L13.7,18.06Zm3.93-1.15-1.15-3.45a9.36,9.36,0,0,1-.58-2.21h0c-.19.67-.38,1.44-.58,2.11L10,16.82h3.45Z" style="fill:#c41718"/><path d="M17.92,20a5.94,5.94,0,0,0,2.78.77c1.53,0,2.49-.86,2.49-2S22.52,17,21,16.34c-1.92-.67-3.16-1.73-3.16-3.36,0-1.82,1.53-3.26,3.84-3.26a5.14,5.14,0,0,1,2.59.58l-.38,1.25a5.52,5.52,0,0,0-2.3-.48c-1.63,0-2.21,1-2.21,1.82,0,1.15.77,1.63,2.4,2.3,2,.77,3.07,1.73,3.07,3.45s-1.34,3.45-4.12,3.45a5.81,5.81,0,0,1-3.07-.77Z" style="fill:#c41718"/><path d="M30,16.62c-1.92,0-2.11,1.15-2.11,1.92a15.68,15.68,0,0,0,.19,2.11,15.74,15.74,0,0,1,.19,2.21c0,2.68-1.63,3.64-3.84,3.64h-.58V25.06h.48c1.44,0,2.11-.86,2.11-2.3a13,13,0,0,0-.19-1.92,14.31,14.31,0,0,1-.19-2c0-1.73.77-2.59,1.92-2.88v-.1c-1.15-.29-1.92-1.15-1.92-2.88a14.31,14.31,0,0,1,.19-2A13,13,0,0,0,26.45,9c0-1.44-.58-2.21-2.11-2.3h-.48V5.4h.58c2.21,0,3.84,1.05,3.84,3.45a17.12,17.12,0,0,1-.19,2.21,17.12,17.12,0,0,0-.19,2.21c0,1,.29,1.92,2.11,1.92Z" style="fill:#c41718"/></g></svg>