<svg xmlns="http://www.w3.org/2000/svg" viewBox="0 0 32 32"><title>file_type_al</title><rect width="32" height="32" style="fill:#3a95dc"/><path d="M20.249,20.582a6.248,6.248,0,0,1-1.109-1.364,4.5,4.5,0,1,1,0-6.433,6.258,6.258,0,0,1,1.11-1.365A6.244,6.244,0,0,0,17,9.831V7.006a2.733,2.733,0,1,0-2,0V9.835A6.249,6.249,0,0,0,9.831,15h-2.8a2.731,2.731,0,1,0,0,2h2.8A6.251,6.251,0,0,0,15,22.166V25a2.733,2.733,0,1,0,2,0V22.17A6.237,6.237,0,0,0,20.249,20.582ZM14.75,4.5A1.25,1.25,0,1,1,16,5.75,1.25,1.25,0,0,1,14.75,4.5ZM4.5,17.25A1.25,1.25,0,1,1,5.75,16,1.25,1.25,0,0,1,4.5,17.25ZM17.25,27.5A1.25,1.25,0,1,1,16,26.25,1.25,1.25,0,0,1,17.25,27.5Z" style="fill:#fff"/><path d="M30.221,15.679A2.729,2.729,0,0,0,24.971,15H18.529a2.731,2.731,0,1,0,0,2h6.442a2.729,2.729,0,0,0,5.25-1.321ZM16,17.25A1.25,1.25,0,1,1,17.25,16,1.25,1.25,0,0,1,16,17.25Zm11.5,0A1.25,1.25,0,1,1,28.75,16,1.25,1.25,0,0,1,27.5,17.25Z" style="fill:#fff"/></svg>