<svg version="1.1" viewBox="0 0 32 32" xmlns="http://www.w3.org/2000/svg"><g transform="matrix(.097 0 0 .097 -3.4 -3.3)" fill="#54a706"><path d="m105 55c7.8 3 15 6.3 22 10 3.1 1.7 3.1 1.7 6.2 3.5 2.2 1.3 4.4 2.5 6.7 3.8 2.4 1.3 4.7 2.7 7.1 4 21 12 41 24 62 36 21 13 43 25 65 38 4.6 2.7 9.2 5.3 14 8 6 3.6 6 3.6 12 6.3 7.5 3.8 12 6.3 15 14 2.7 15 4.2 37-4.7 50-8.1 7.6-18 12-28 16-12 5.5-22 12-33 18-5.6 3.3-11 6.4-17 9.6-17 9.7-34 20-51 30-11 6.7-23 13-34 20-3.1 1.8-3.1 1.8-6.3 3.7-5.3 3.1-11 6.2-16 9.3-2.2 1.3-2.2 1.3-4.5 2.7-4.1 2.3-4.1 2.3-11 5.4-9.8-3.3-12-10-17-19-0.86-1.5-1.7-3.1-2.6-4.7-2.1-3.8-4.2-7.7-6.3-12 9-9.9 18-16 30-22 3.8-2.1 7.6-4.1 11-6.2 3-1.6 3-1.6 6.1-3.3 18-10 36-21 54-32 7.3-4.3 15-8.5 22-13 6.3-3.6 13-7.3 19-11 3.1-1.8 6.1-3.6 9.2-5.3 4.3-2.5 8.6-5 13-7.5 2.5-1.4 4.9-2.9 7.5-4.3 5.8-3.1 5.8-3.1 7.9-8.3-1.7-0.63-3.4-1.3-5.1-1.9-6.6-2.8-13-6-19-9.6-3.6-2.1-3.6-2.1-7.2-4.2-2.6-1.5-5.1-3-7.7-4.5-2.7-1.6-5.4-3.1-8.1-4.7-22-13-44-26-66-39-22-13-45-26-67-39 3.5-9.4 8-18 13-26 1.5-2.5 3-5 4.5-7.6 1.1-1.9 2.3-3.8 3.4-5.7z" fill="#54a706" stroke-width="2.3"/></g><script/><link/></svg>
