<svg xmlns="http://www.w3.org/2000/svg" xmlns:xlink="http://www.w3.org/1999/xlink" viewBox="0 0 32 32"><defs><radialGradient id="a" cx="-36.176" cy="-852.913" r="48.27" gradientTransform="matrix(0.36, 0.402, 0.222, -0.163, 183.598, -112.345)" gradientUnits="userSpaceOnUse"><stop offset="0" stop-color="#7ce1ff"/><stop offset="0.3" stop-color="#7ce1ff" stop-opacity="0"/></radialGradient><radialGradient id="b" cx="4165.973" cy="-1221.763" r="83.239" gradientTransform="matrix(0.031, 0.03, 0.075, -0.062, -58.724, -179.88)" gradientUnits="userSpaceOnUse"><stop offset="0" stop-color="#7ce1ff"/><stop offset="1" stop-color="#7ce1ff" stop-opacity="0"/></radialGradient><radialGradient id="c" cx="-298.938" cy="-543.943" r="27.886" gradientTransform="matrix(-1.048, -0.5, -1.117, 0.527, -937.241, 159.626)" gradientUnits="userSpaceOnUse"><stop offset="0" stop-color="#7ce1ff" stop-opacity="0.8"/><stop offset="0.15" stop-color="#7ce1ff" stop-opacity="0"/></radialGradient><linearGradient id="d" x1="-134.907" y1="-173.946" x2="-134.896" y2="-173.946" gradientTransform="translate(207495 100343.75) scale(1538 576.75)" gradientUnits="userSpaceOnUse"><stop offset="0" stop-color="#4f4f4f"/><stop offset="1"/></linearGradient><linearGradient id="e" x1="-134.907" y1="-172.628" x2="-134.896" y2="-172.628" gradientTransform="translate(207495 99574.75) scale(1538 576.75)" xlink:href="#d"/><linearGradient id="f" x1="-134.907" y1="-172.572" x2="-134.896" y2="-172.572" gradientTransform="translate(207495 165901) scale(1538 961.25)" gradientUnits="userSpaceOnUse"><stop offset="0" stop-color="#c40000"/><stop offset="1" stop-color="red"/></linearGradient><linearGradient id="g" x1="-134.907" y1="-171.781" x2="-134.896" y2="-171.781" gradientTransform="translate(207495 165132) scale(1538 961.25)" xlink:href="#f"/><linearGradient id="h" x1="-134.907" y1="-173.363" x2="-134.896" y2="-173.363" gradientTransform="translate(207495 166670) scale(1538 961.25)" xlink:href="#f"/></defs><title>file_type_scala</title><path d="M-15.442,15.816c.061-.183-7-7.561-7-7.561" style="fill:none;stroke-linecap:round;stroke-width:76.71700286865234px;stroke:url(#a)"/><path d="M-25.442,22.835s9.942-6.825,10-7" style="fill:#2aa7c9;stroke-linecap:round;stroke-width:76.71700286865234px;stroke:url(#b)"/><path d="M-25.27,23.121h1.124" style="fill:none;stroke-linecap:round;stroke-width:100px;stroke:url(#c)"/><path d="M7.385,19.231v2.154c0,.363,7.833.971,12.937,2.154,2.465-.571,4.294-1.277,4.294-2.154V19.231c0-.877-1.829-1.582-4.294-2.154-5.1,1.183-12.937,1.791-12.937,2.154" style="fill:url(#d)"/><path d="M7.385,10.615v2.154c0,.363,7.833.971,12.937,2.154,2.465-.571,4.294-1.277,4.294-2.154V10.615c0-.877-1.829-1.582-4.294-2.154-5.1,1.183-12.937,1.791-12.937,2.154" style="fill:url(#e)"/><path d="M7.385,14.923v6.462c0-.538,17.231-1.615,17.231-4.308V10.615c0,2.692-17.231,3.769-17.231,4.308" style="fill:url(#f)"/><path d="M7.385,6.308v6.462c0-.538,17.231-1.615,17.231-4.308V2c0,2.692-17.231,3.769-17.231,4.308" style="fill:url(#g)"/><path d="M7.385,23.538V30c0-.538,17.231-1.615,17.231-4.308V19.231c0,2.692-17.231,3.769-17.231,4.308" style="fill:url(#h)"/></svg>