<?xml version="1.0" encoding="utf-8"?><svg xmlns="http://www.w3.org/2000/svg" viewBox="0 0 32 32"><title>file_type_ng_routing_dt</title><path style="fill:#FFD273" d="M2.75,6.67L15.85,2v28L4.787,23.88L2.75,6.67z"/><path style="fill:#80693A" d="M15.85,2l13.4,4.59L27.063,23.8L15.85,30C15.85,30,15.85,2,15.85,2z"/><path style="fill:#FFFFFF" d="M15.85,5.14l8.517,18.23h-2.906l-1.817-4.16H15.85v-2.48h2.766L15.85,11l-2.326,5.73h2.326v2.48h-3.465	l-1.628,4.16H7.623L15.85,5.14z"/><path style="fill:#FFFFFF" d="M28.909,20.857l-1.938-1.894c-0.003-0.003-0.007-0.007-0.01-0.01c-0.498-0.443-1.105-0.728-1.761-0.827	l-0.492-1.179c-0.015-0.037-0.038-0.07-0.066-0.098l-1.578-1.573c-0.164-0.165-0.391-0.264-0.625-0.274	C22.425,15.001,22.413,15,22.401,15H22.4c-0.233,0.001-0.453,0.086-0.624,0.242l-3.995,2.302c-0.097,0.018-0.181,0.081-0.223,0.173	c-0.012,0.026-0.02,0.054-0.025,0.082l-2.291,3.951c-0.156,0.171-0.241,0.391-0.243,0.623c0,0.247,0.101,0.486,0.275,0.658	l1.966,1.96c0.03,0.03,0.065,0.053,0.104,0.068l0.833,0.327c0.122,0.587,0.395,1.13,0.797,1.579c0.003,0.004,0.006,0.007,0.01,0.01	l1.899,1.934c0.058,0.059,0.136,0.092,0.219,0.092h5.432c0.147,0,0.273-0.104,0.301-0.248l0.318-1.657l1.597-0.304	c0.144-0.027,0.249-0.153,0.249-0.3l0.002-5.417C29.001,20.993,28.968,20.914,28.909,20.857z"/><path style="fill:#215896" d="M17.864,17.848l-2.373,4.091l-0.005,0.006c-0.115,0.117-0.18,0.274-0.181,0.438	c0,0.166,0.067,0.324,0.185,0.44l1.967,1.961l7.69,3.016l1.739-0.963l-0.048-0.048h-0.012l-4.821-4.815H22L17.864,17.848z"/><path style="fill:#66C3FA" d="M22.401,15.315c-0.164,0.001-0.321,0.065-0.438,0.18L21.957,15.5l-4.107,2.367l4.096,4.084v0.003l4.925,4.91	l0.939-1.686l-3.386-8.103l-1.578-1.573c-0.117-0.118-0.277-0.185-0.443-0.185L22.401,15.315z"/><path style="fill:#235997" d="M17.836,17.854l4.19,4.182h0.006l4.823,4.815l1.836-0.349l0.002-5.417l-1.938-1.894	c-0.483-0.43-1.089-0.699-1.733-0.77V18.4L17.836,17.854z"/><path style="fill:#58B6F0" d="M17.867,17.877l4.192,4.18v0.006l4.825,4.811l-0.351,1.83h-5.432l-1.899-1.934	c-0.431-0.482-0.701-1.086-0.772-1.728h-0.021L17.867,17.877z"/></svg>