<svg viewBox="0 0 32 32" xmlns="http://www.w3.org/2000/svg"><g fill="#c2c2c2"><path d="m11.29 15.976a8.892 8.892 0 0 0 1.039 4.557 4.818 4.818 0 0 0 5.579 2.13 3.789 3.789 0 0 0 2.734-3.181c.095-.535.1-.54.1-.54 1.537.222 4.014.582 5.55.8l-.1.389a9.958 9.958 0 0 1 -2.392 4.769 8.35 8.35 0 0 1 -4.747 2.378 12.925 12.925 0 0 1 -7.322-.725 8.98 8.98 0 0 1 -5.106-5.524 14.353 14.353 0 0 1 .017-10.129 9.323 9.323 0 0 1 7.929-6.24 11.812 11.812 0 0 1 5.9.491 8.467 8.467 0 0 1 5.456 6.1c.083.311.1.369.1.369-1.709.311-3.821.705-5.518 1.075-.323-1.695-1.122-3.029-2.831-3.445a4.656 4.656 0 0 0 -5.853 3.158 9.28 9.28 0 0 0 -.341 1.273 10.89 10.89 0 0 0 -.194 2.295z"/><path d="m2.033 30v-28h5.934v2.227h-3.244v23.546h3.244v2.227z"/><path d="m29.967 29.999h-5.934v-2.228h3.244v-23.545h-3.244v-2.227h5.934z"/></g></svg>