<svg width="60" height="60" viewBox="0 0 60 60" fill="none" xmlns="http://www.w3.org/2000/svg">
<rect x="15.8579" y="5.5051" width="40" height="40" transform="rotate(15 15.8579 5.5051)" fill="#00A2FF"/>
<rect x="40.6438" y="17.3228" width="8" height="8" transform="rotate(15 40.6438 17.3228)" fill="white"/>
<path d="M13.2989 39.8636L18.1804 41.1716L17.8828 42.2824L11.6359 40.6085L14.396 30.3078L15.7614 30.6737L13.2989 39.8636ZM23.8444 43.0684C23.1745 43.5309 22.3467 43.6301 21.361 43.366C20.5451 43.1474 19.9857 42.7447 19.6829 42.1581C19.386 41.568 19.3597 40.8077 19.604 39.8773L20.9385 34.8968L22.2473 35.2475L20.9223 40.1926C20.6114 41.3529 20.9276 42.0594 21.8709 42.3121C22.8707 42.5801 23.6356 42.3857 24.1654 41.7289L25.6573 36.1612L26.9661 36.5119L24.915 44.1666L23.6699 43.833L23.8444 43.0684ZM31.6359 45.9675C31.6009 45.7964 31.6116 45.5111 31.6681 45.1117C30.8903 45.5807 30.0793 45.7021 29.2351 45.4758C28.4805 45.2736 27.9171 44.8952 27.5451 44.3406C27.179 43.7825 27.0838 43.1756 27.2595 42.52C27.473 41.723 27.9404 41.186 28.6617 40.9091C29.3889 40.6288 30.302 40.6359 31.4009 40.9303L32.6743 41.2716L32.8355 40.6702C32.958 40.2127 32.9186 39.8129 32.7171 39.4708C32.5168 39.1239 32.1502 38.8791 31.6172 38.7363C31.1503 38.6112 30.7272 38.6242 30.3481 38.7753C29.9689 38.9265 29.7344 39.1695 29.6447 39.5044L28.3288 39.1518C28.4312 38.7697 28.6642 38.4379 29.0278 38.1562C29.3974 37.871 29.8411 37.6866 30.3589 37.6029C30.8814 37.5205 31.421 37.5539 31.9775 37.703C32.8595 37.9393 33.491 38.3461 33.8722 38.9234C34.2546 39.496 34.3516 40.1716 34.1632 40.9502L33.2192 44.4733C33.0309 45.1761 32.9707 45.759 33.0388 46.2221L33.0084 46.3353L31.6359 45.9675ZM29.7313 44.388C30.1416 44.498 30.5592 44.4961 30.9839 44.3824C31.4087 44.2688 31.7491 44.0643 32.0052 43.7689L32.426 42.1983L31.4002 41.9235C29.7966 41.4938 28.869 41.7482 28.6176 42.6868C28.5076 43.0971 28.5584 43.4545 28.7701 43.7589C28.9817 44.0633 29.3021 44.273 29.7313 44.388ZM39.7199 47.3223C39.0501 47.7848 38.2223 47.8839 37.2365 47.6198C36.4206 47.4012 35.8612 46.9986 35.5584 46.4119C35.2615 45.8218 35.2352 45.0616 35.4795 44.1312L36.814 39.1506L38.1228 39.5013L36.7978 44.4465C36.4869 45.6067 36.8031 46.3132 37.7464 46.566C38.7463 46.8339 39.5111 46.6395 40.0409 45.9827L41.5328 40.415L42.8416 40.7657L40.7905 48.4205L39.5454 48.0868L39.7199 47.3223Z" fill="white"/>
</svg>