<svg xmlns="http://www.w3.org/2000/svg" viewBox="0 0 32 32"><title>file_type_json_schema</title><g stroke-width=".353" fill="#d2d2d2"><path d="M9.18 29.796c-1.807-.393-3.164-1.452-3.637-2.838-.329-.967-.282-2.535.14-4.654.202-1.017.368-2.232.367-2.699 0-1.551-.714-2.393-2.128-2.51l-.816-.068V15.03l.773-.105c1.128-.153 1.563-.43 1.91-1.214.255-.577.287-.863.211-1.867a24.119 24.119 0 0 0-.386-2.584c-.413-1.954-.396-3.541.049-4.496.655-1.405 2.269-2.443 4.145-2.663l.807-.095v2.101h-.543c-.74 0-1.773.527-2.038 1.039-.253.49-.273 1.195-.066 2.421.327 1.938.437 3.797.282 4.767-.177 1.11-.824 2.419-1.535 3.108l-.493.478.674.827c.831 1.02 1.154 1.732 1.354 2.981.158.988.035 3.04-.28 4.68-.44 2.289.068 3.193 1.945 3.466l.7.102v1.022c0 1.165.071 1.125-1.436.798zM21.382 28.986v-1.014l.856-.176c.944-.196 1.691-.778 1.86-1.45.053-.212-.047-1.321-.222-2.464-.573-3.727-.256-5.65 1.19-7.219l.62-.67-.464-.529c-1.66-1.89-1.948-3.569-1.316-7.666.319-2.064.319-2.084.036-2.577-.332-.579-1.37-1.158-2.076-1.158h-.484v-1.03c0-1.174-.024-1.158 1.355-.866 1.654.351 2.84 1.191 3.454 2.448.353.721.406 1.001.396 2.091-.006.692-.149 1.954-.317 2.804-.626 3.157-.57 3.997.32 4.813.412.38.684.49 1.406.571l.895.102v2.023h-.7c-.898 0-1.64.38-2.019 1.03-.397.684-.372 2.173.072 4.344.379 1.845.44 3.53.162 4.477-.292 1-1.594 2.21-2.815 2.62-.527.176-1.239.363-1.583.416l-.626.095z"/><path d="M12.831 27.325c-.426-.542-.364-1.476.159-2.392.387-.678 2.007-2.9 3.176-4.357l.472-.588-.752-2.181c-.844-2.446-.839-2.493.274-2.66l.613-.09.684 1.398c.377.769.739 1.398.805 1.398.066 0 .74-.733 1.5-1.628 1.318-1.555 1.4-1.624 1.847-1.541.269.05.508.019.565-.073.133-.214.513.103.513.43 0 .133-.19.472-.421.754-.946 1.15-2.965 3.87-2.965 3.994 0 .074.407 1.024.904 2.111l.905 1.977-.275.411c-.151.226-.276.47-.279.542-.002.072-.115.202-.252.288-.348.22-.604-.048-1.665-1.733-.486-.771-.932-1.404-.99-1.406-.131-.005-1.582 2.142-2.704 3.998-.99 1.637-.81 1.428-1.363 1.586-.4.115-.499.083-.751-.238zM12.935 17.062c-.897-1.606-2.511-3.935-3.162-4.565-.331-.32-.602-.657-.602-.75 0-.25.675-.508 1.332-.508.709 0 1.459.617 2.128 1.75.243.41.483.748.533.75.05.001.337-.69.639-1.535.645-1.812 2.346-5.333 3.015-6.24.572-.777 1.43-1.195 2.463-1.2 1.35-.006 1.353.054.085 1.376-1.934 2.017-2.822 3.677-4.695 8.78-.52 1.416-.998 2.703-1.061 2.859-.096.236-.208.117-.675-.717z"/></g></svg>