<svg viewBox="0 0 32 32" xmlns="http://www.w3.org/2000/svg"><path d="m20.735 5.442.133-3.173 2.72-.168.122 3.23a.216.216 0 0 1 -.047.143.21.21 0 0 1 -.3.029l-1.05-.82-1.243.934a.212.212 0 0 1 -.3-.04.206.206 0 0 1 -.035-.135z" fill="#fff"/><path d="m20.868 2.268-.133 3.174a.206.206 0 0 0 .043.135.212.212 0 0 0 .3.04l1.243-.934 1.05.82a.21.21 0 0 0 .3-.029.216.216 0 0 0 .047-.143l-.13-3.231 1.566-.1a1.415 1.415 0 0 1 1.506 1.321q0 .043 0 .087v25.184a1.414 1.414 0 0 1 -1.415 1.408h-.066l-18.948-.844a1.414 1.414 0 0 1 -1.355-1.356l-.876-23.11a1.412 1.412 0 0 1 1.33-1.458l15.537-.963z" fill="#ff4785"/><path d="m17.253 12.554c0 .547 3.72.285 4.22-.1 0-3.73-2.018-5.69-5.714-5.69s-5.766 1.99-5.766 4.976c0 5.2 7.077 5.3 7.077 8.136a1.127 1.127 0 0 1 -1.258 1.27c-1.127 0-1.573-.572-1.52-2.512 0-.421-4.3-.553-4.43 0-.334 4.7 2.621 6.06 6 6.06 3.276 0 5.845-1.733 5.845-4.868 0-5.573-7.182-5.423-7.182-8.185a1.18 1.18 0 0 1 1.337-1.269c.526 0 1.47.092 1.391 2.182z" fill="#fff"/></svg>