<svg id="Layer_1" data-name="Layer 1" xmlns="http://www.w3.org/2000/svg" viewBox="0 0 32 32"><path d="M17.58,4.24a2.1,2.1,0,1,1-2.1-2.1,2.1,2.1,0,0,1,2.1,2.1M15.48,8a2.19,2.19,0,1,0,2.19,2.18A2.19,2.19,0,0,0,15.48,8m0,5.86a2.27,2.27,0,1,0,2.27,2.27,2.26,2.26,0,0,0-2.27-2.27m0,6a2.18,2.18,0,1,0,2.19,2.18,2.18,2.18,0,0,0-2.19-2.18m0,6a2.1,2.1,0,1,0,2.1,2.1,2.1,2.1,0,0,0-2.1-2.1M21.27,7.72a2.47,2.47,0,1,0,2.46,2.46,2.47,2.47,0,0,0-2.46-2.46m0,5.86a2.55,2.55,0,1,0,2.55,2.55,2.55,2.55,0,0,0-2.55-2.55m0,6a2.46,2.46,0,1,0,2.46,2.46,2.47,2.47,0,0,0-2.46-2.46M27.2,13.3A2.83,2.83,0,1,0,30,16.13,2.82,2.82,0,0,0,27.2,13.3m-17.57-5a1.91,1.91,0,1,0,1.9,1.9,1.9,1.9,0,0,0-1.9-1.9m0,5.86a2,2,0,1,0,2,2,2,2,0,0,0-2-2m0,6a1.9,1.9,0,1,0,1.9,1.9,1.9,1.9,0,0,0-1.9-1.9M3.77,14.42a1.71,1.71,0,1,0,1.7,1.71,1.7,1.7,0,0,0-1.7-1.71" style="fill:#00a9b9"/></svg>