<svg viewBox="0 0 32 32" xmlns="http://www.w3.org/2000/svg"><path d="m30 25.583h-4.243v-10.205a8.271 8.271 0 0 0 -.832-4.261 3.061 3.061 0 0 0 -2.807-1.317 3.383 3.383 0 0 0 -2.826 1.664 6.791 6.791 0 0 0 -1.161 3.987v10.132h-4.262v-10.552q0-5.231-3.694-5.231a3.332 3.332 0 0 0 -2.826 1.573 6.935 6.935 0 0 0 -1.106 4.078v10.132h-4.243v-18.727h4.243v2.962h.073a6.488 6.488 0 0 1 5.907-3.4 5.569 5.569 0 0 1 3.393 1.07 5.328 5.328 0 0 1 1.984 2.806 6.683 6.683 0 0 1 6.218-3.877q6.182 0 6.182 7.626z"/></svg>