<svg clip-rule="evenodd" fill-rule="evenodd" stroke-linecap="round" stroke-linejoin="round" stroke-miterlimit="1.5" version="1.1" viewBox="0 0 32 32" xml:space="preserve" xmlns="http://www.w3.org/2000/svg"><title>file_type_mivascript</title><rect width="32" height="32" fill="none"/><rect x="4" y="4" width="24" height="24" fill="#fff" stroke="#f7394a" stroke-width=".75px"/><path d="m21.765 13.008-4.181 5.825c-0.192 0.27-0.428 0.477-0.709 0.62-0.28 0.144-0.581 0.215-0.904 0.215-0.322 0-0.624-0.073-0.904-0.221-0.28-0.147-0.516-0.352-0.708-0.614l-4.205-5.825v9.13h-2.154v-12.276h1.002c0.522-0 1.022 0.122 1.498 0.368s0.871 0.586 1.186 1.02l4.32 6.022 4.285-6.009c0.307-0.443 0.701-0.787 1.181-1.033s0.984-0.368 1.514-0.368h1.014v12.276h-2.235v-9.13z" fill="#f7394a" fill-rule="nonzero"/></svg>