<svg viewBox="0 0 32 32" xmlns="http://www.w3.org/2000/svg"><g fill="#c40804"><path d="m24.241 21.152a1.442 1.442 0 1 1 -2.879.11l.055-5.133c0-1.783 1.877-3.727 4.427-3.755a1.469 1.469 0 0 0 0-2.938h-14.387a1.774 1.774 0 0 0 -2.023 1.878v8.515a1.441 1.441 0 1 1 -2.879 0s-.055-6.489-.055-8.68a4.763 4.763 0 0 1 4.869-4.715h14.409a4.1 4.1 0 0 1 4.222 4.252 4.408 4.408 0 0 1 -3.92 4.609c-1.264 0-1.8.71-1.8 1.891z"/><path d="m2.025 10.989-.025 10.073a4.476 4.476 0 0 0 4.361 4.5l9.357-.09a4.12 4.12 0 0 0 4.028-4.289 4.137 4.137 0 0 0 -4.319-4.283 1.47 1.47 0 1 1 0-2.938h4.239c1.928 0 1.879-3.055 0-3.055l-4.522.055a4.285 4.285 0 0 0 -4.221 4.3 4.334 4.334 0 0 0 4.309 4.531 1.462 1.462 0 1 1 .019 2.922h-8.311a1.807 1.807 0 0 1 -1.972-1.987l-.055-9.714a1.453 1.453 0 1 0 -2.888-.025z"/></g></svg>