<svg width="35" height="35" viewBox="0 0 35 35" fill="none" xmlns="http://www.w3.org/2000/svg">
<mask id="path-1-outside-1_1081_2" maskUnits="userSpaceOnUse" x="7" y="4" width="24" height="28" fill="black">
<rect fill="white" x="7" y="4" width="24" height="28"/>
<path d="M16.3638 20.706C16.0998 20.7207 15.9092 20.6547 15.7918 20.508C15.6745 20.3467 15.6378 20.1047 15.6818 19.782C15.7112 19.5033 15.7845 19.2907 15.9018 19.144C16.0338 18.9827 16.2025 18.8947 16.4078 18.88C17.8745 18.7773 19.2018 18.4987 20.3898 18.044C21.5778 17.5747 22.5898 16.9807 23.4258 16.262C24.2765 15.5287 24.9292 14.7073 25.3838 13.798C25.8385 12.874 26.0658 11.906 26.0658 10.894C26.0658 10.102 25.8825 9.508 25.5158 9.112C25.1492 8.70133 24.6212 8.496 23.9318 8.496C23.3305 8.496 22.6998 8.65733 22.0398 8.98C21.3798 9.288 20.7125 9.73533 20.0378 10.322C19.3778 10.894 18.7325 11.5833 18.1018 12.39C17.4858 13.182 16.9065 14.0693 16.3638 15.052C15.8358 16.02 15.3738 17.054 14.9778 18.154L11.5678 28.692C11.5092 28.8973 11.3918 29.0513 11.2158 29.154C11.0398 29.2567 10.7832 29.308 10.4458 29.308C10.1232 29.308 9.88118 29.2567 9.71984 29.154C9.55851 29.0513 9.51451 28.8827 9.58784 28.648L15.2858 11.158C14.9192 11.5247 14.5305 11.8767 14.1198 12.214C13.7092 12.5513 13.2765 12.8887 12.8218 13.226C12.3818 13.5487 11.9125 13.886 11.4138 14.238C11.1058 14.4433 10.8492 14.5093 10.6438 14.436C10.4385 14.3627 10.2552 14.194 10.0938 13.93C9.94718 13.6953 9.88851 13.4753 9.91784 13.27C9.94718 13.05 10.1012 12.8593 10.3798 12.698C11.2452 12.1553 12.0445 11.6053 12.7778 11.048C13.5258 10.476 14.2078 9.882 14.8238 9.266C15.4398 8.63533 15.9752 7.98267 16.4298 7.308C16.6058 7.05867 16.7672 6.89 16.9138 6.802C17.0605 6.714 17.2952 6.67 17.6178 6.67C17.9552 6.67 18.1972 6.72133 18.3438 6.824C18.5052 6.92667 18.5418 7.09533 18.4538 7.33L17.3098 10.96C17.9845 10.0507 18.6958 9.27333 19.4438 8.628C20.2065 7.98267 20.9838 7.49867 21.7758 7.176C22.5825 6.83866 23.3892 6.67 24.1958 6.67C24.9878 6.67 25.6698 6.83133 26.2418 7.154C26.8285 7.47667 27.2758 7.93133 27.5838 8.518C27.8918 9.10467 28.0458 9.80133 28.0458 10.608C28.0458 11.9867 27.7598 13.27 27.1878 14.458C26.6158 15.6313 25.8018 16.6727 24.7458 17.582C23.7045 18.4767 22.4652 19.1953 21.0278 19.738C19.6052 20.2807 18.0505 20.6033 16.3638 20.706Z"/>
</mask>
<path d="M16.3638 20.706C16.0998 20.7207 15.9092 20.6547 15.7918 20.508C15.6745 20.3467 15.6378 20.1047 15.6818 19.782C15.7112 19.5033 15.7845 19.2907 15.9018 19.144C16.0338 18.9827 16.2025 18.8947 16.4078 18.88C17.8745 18.7773 19.2018 18.4987 20.3898 18.044C21.5778 17.5747 22.5898 16.9807 23.4258 16.262C24.2765 15.5287 24.9292 14.7073 25.3838 13.798C25.8385 12.874 26.0658 11.906 26.0658 10.894C26.0658 10.102 25.8825 9.508 25.5158 9.112C25.1492 8.70133 24.6212 8.496 23.9318 8.496C23.3305 8.496 22.6998 8.65733 22.0398 8.98C21.3798 9.288 20.7125 9.73533 20.0378 10.322C19.3778 10.894 18.7325 11.5833 18.1018 12.39C17.4858 13.182 16.9065 14.0693 16.3638 15.052C15.8358 16.02 15.3738 17.054 14.9778 18.154L11.5678 28.692C11.5092 28.8973 11.3918 29.0513 11.2158 29.154C11.0398 29.2567 10.7832 29.308 10.4458 29.308C10.1232 29.308 9.88118 29.2567 9.71984 29.154C9.55851 29.0513 9.51451 28.8827 9.58784 28.648L15.2858 11.158C14.9192 11.5247 14.5305 11.8767 14.1198 12.214C13.7092 12.5513 13.2765 12.8887 12.8218 13.226C12.3818 13.5487 11.9125 13.886 11.4138 14.238C11.1058 14.4433 10.8492 14.5093 10.6438 14.436C10.4385 14.3627 10.2552 14.194 10.0938 13.93C9.94718 13.6953 9.88851 13.4753 9.91784 13.27C9.94718 13.05 10.1012 12.8593 10.3798 12.698C11.2452 12.1553 12.0445 11.6053 12.7778 11.048C13.5258 10.476 14.2078 9.882 14.8238 9.266C15.4398 8.63533 15.9752 7.98267 16.4298 7.308C16.6058 7.05867 16.7672 6.89 16.9138 6.802C17.0605 6.714 17.2952 6.67 17.6178 6.67C17.9552 6.67 18.1972 6.72133 18.3438 6.824C18.5052 6.92667 18.5418 7.09533 18.4538 7.33L17.3098 10.96C17.9845 10.0507 18.6958 9.27333 19.4438 8.628C20.2065 7.98267 20.9838 7.49867 21.7758 7.176C22.5825 6.83866 23.3892 6.67 24.1958 6.67C24.9878 6.67 25.6698 6.83133 26.2418 7.154C26.8285 7.47667 27.2758 7.93133 27.5838 8.518C27.8918 9.10467 28.0458 9.80133 28.0458 10.608C28.0458 11.9867 27.7598 13.27 27.1878 14.458C26.6158 15.6313 25.8018 16.6727 24.7458 17.582C23.7045 18.4767 22.4652 19.1953 21.0278 19.738C19.6052 20.2807 18.0505 20.6033 16.3638 20.706Z" fill="white"/>
<path d="M16.3638 20.706L16.4748 22.7029L16.4854 22.7023L16.3638 20.706ZM15.7918 20.508L14.1744 21.6843L14.2014 21.7215L14.2301 21.7574L15.7918 20.508ZM15.6818 19.782L17.6635 20.0522L17.6676 20.0219L17.6709 19.9914L15.6818 19.782ZM15.9018 19.144L14.3539 17.8775L14.347 17.886L14.3401 17.8946L15.9018 19.144ZM16.4078 18.88L16.2682 16.8849L16.2654 16.8851L16.4078 18.88ZM20.3898 18.044L21.1047 19.9119L21.1147 19.908L21.1247 19.9041L20.3898 18.044ZM23.4258 16.262L24.7296 17.7786L24.7317 17.7768L23.4258 16.262ZM25.3838 13.798L27.1727 14.6924L27.1784 14.681L25.3838 13.798ZM25.5158 9.112L24.024 10.444L24.036 10.4575L24.0483 10.4708L25.5158 9.112ZM22.0398 8.98L22.8856 10.7924L22.902 10.7847L22.9183 10.7768L22.0398 8.98ZM20.0378 10.322L21.3477 11.8334L21.3502 11.8312L20.0378 10.322ZM18.1018 12.39L16.5262 11.1582L16.5231 11.1621L18.1018 12.39ZM16.3638 15.052L14.613 14.0851L14.6081 14.0943L16.3638 15.052ZM14.9778 18.154L13.0961 17.4766L13.085 17.5072L13.075 17.5383L14.9778 18.154ZM11.5678 28.692L9.66499 28.0763L9.65432 28.1092L9.6448 28.1426L11.5678 28.692ZM9.71984 29.154L8.64609 30.8413L8.64609 30.8413L9.71984 29.154ZM9.58784 28.648L7.68622 28.0285L7.68248 28.0399L7.67888 28.0515L9.58784 28.648ZM15.2858 11.158L17.1875 11.7775L13.8716 9.74379L15.2858 11.158ZM14.1198 12.214L12.8504 10.6685L14.1198 12.214ZM12.8218 13.226L14.0046 14.8388L14.0135 14.8322L12.8218 13.226ZM11.4138 14.238L12.5232 15.9021L12.5454 15.8873L12.5672 15.8719L11.4138 14.238ZM10.6438 14.436L11.3165 12.5525L11.3165 12.5525L10.6438 14.436ZM10.0938 13.93L11.8004 12.8871L11.7952 12.8785L11.7898 12.87L10.0938 13.93ZM9.91784 13.27L11.8977 13.5528L11.8991 13.5436L11.9003 13.5343L9.91784 13.27ZM10.3798 12.698L11.3819 14.4288L11.4125 14.4111L11.4424 14.3924L10.3798 12.698ZM12.7778 11.048L13.988 12.6403L13.9927 12.6367L12.7778 11.048ZM14.8238 9.266L16.2381 10.6802L16.2464 10.6719L16.2546 10.6635L14.8238 9.266ZM16.4298 7.308L14.7959 6.15463L14.7834 6.17233L14.7713 6.19029L16.4298 7.308ZM16.9138 6.802L15.8848 5.08702L15.8848 5.08702L16.9138 6.802ZM18.3438 6.824L17.1969 8.46246L17.233 8.4877L17.2701 8.51132L18.3438 6.824ZM18.4538 7.33L16.5812 6.62775L16.5624 6.67783L16.5463 6.72884L18.4538 7.33ZM17.3098 10.96L15.4023 10.3588L18.916 12.1517L17.3098 10.96ZM19.4438 8.628L18.152 7.10123L18.1446 7.10742L18.1374 7.11369L19.4438 8.628ZM21.7758 7.176L22.5304 9.02818L22.539 9.02471L22.5475 9.02116L21.7758 7.176ZM26.2418 7.154L25.2592 8.89596L25.2686 8.90124L25.278 8.90643L26.2418 7.154ZM27.5838 8.518L29.3546 7.58833L29.3546 7.58833L27.5838 8.518ZM27.1878 14.458L28.9856 15.3344L28.9898 15.3256L27.1878 14.458ZM24.7458 17.582L26.0492 19.099L26.0509 19.0975L24.7458 17.582ZM21.0278 19.738L20.3214 17.8669L20.3151 17.8693L21.0278 19.738ZM16.2529 18.7091C16.3039 18.7062 16.4634 18.7036 16.6771 18.7775C16.911 18.8585 17.1587 19.015 17.3536 19.2586L14.2301 21.7574C14.9005 22.5954 15.8475 22.7378 16.4748 22.7029L16.2529 18.7091ZM17.4093 19.3317C17.5772 19.5625 17.6348 19.7809 17.6538 19.9059C17.6717 20.0242 17.6593 20.0827 17.6635 20.0522L13.7002 19.5118C13.6283 20.0391 13.6106 20.9092 14.1744 21.6843L17.4093 19.3317ZM17.6709 19.9914C17.6733 19.9677 17.6727 19.9986 17.6496 20.0655C17.6259 20.134 17.5731 20.2565 17.4636 20.3934L14.3401 17.8946C13.8935 18.4528 13.7438 19.0888 13.6928 19.5726L17.6709 19.9914ZM17.4498 20.4105C17.361 20.5189 17.2299 20.6376 17.0525 20.7302C16.8745 20.823 16.6983 20.8643 16.5503 20.8749L16.2654 16.8851C15.5035 16.9395 14.8293 17.2965 14.3539 17.8775L17.4498 20.4105ZM16.5475 20.8751C18.1811 20.7608 19.7062 20.4471 21.1047 19.9119L19.675 16.1761C18.6975 16.5502 17.5679 16.7939 16.2682 16.8849L16.5475 20.8751ZM21.1247 19.9041C22.4879 19.3656 23.7 18.6637 24.7296 17.7786L22.1221 14.7454C21.4797 15.2976 20.6678 15.7838 19.655 16.1839L21.1247 19.9041ZM24.7317 17.7768C25.7618 16.8888 26.5878 15.8621 27.1727 14.6924L23.595 12.9036C23.2705 13.5525 22.7912 14.1685 22.12 14.7472L24.7317 17.7768ZM27.1784 14.681C27.7657 13.4873 28.0658 12.2177 28.0658 10.894H24.0658C24.0658 11.5943 23.9113 12.2607 23.5893 12.915L27.1784 14.681ZM28.0658 10.894C28.0658 9.83029 27.8228 8.65977 26.9834 7.75318L24.0483 10.4708C23.9993 10.4179 24.0006 10.3902 24.0173 10.4443C24.0364 10.5063 24.0658 10.646 24.0658 10.894H28.0658ZM27.0077 7.77997C26.1696 6.84132 25.0365 6.496 23.9318 6.496V10.496C24.0807 10.496 24.1312 10.5184 24.12 10.514C24.1138 10.5116 24.0975 10.5043 24.0764 10.4898C24.0551 10.4751 24.0371 10.4587 24.024 10.444L27.0077 7.77997ZM23.9318 6.496C22.966 6.496 22.0354 6.75597 21.1614 7.18323L22.9183 10.7768C23.3643 10.5587 23.695 10.496 23.9318 10.496V6.496ZM21.1941 7.16763C20.332 7.56995 19.5102 8.13047 18.7255 8.81279L21.3502 11.8312C21.9149 11.3402 22.4277 11.006 22.8856 10.7924L21.1941 7.16763ZM18.728 8.81062C17.9557 9.47997 17.2231 10.2668 16.5262 11.1582L19.6775 13.6218C20.2419 12.8998 20.8 12.308 21.3477 11.8334L18.728 8.81062ZM16.5231 11.1621C15.836 12.0455 15.2004 13.0217 14.6131 14.0852L18.1146 16.0188C18.6127 15.117 19.1356 14.3185 19.6805 13.6179L16.5231 11.1621ZM14.6081 14.0943C14.0281 15.1576 13.5247 16.2858 13.0961 17.4766L16.8596 18.8314C17.2229 17.8222 17.6436 16.8824 18.1196 16.0097L14.6081 14.0943ZM13.075 17.5383L9.66499 28.0763L13.4707 29.3077L16.8807 18.7697L13.075 17.5383ZM9.6448 28.1426C9.67688 28.0303 9.73778 27.8901 9.84498 27.7494C9.9533 27.6072 10.0819 27.5001 10.2081 27.4264L12.2236 30.8816C12.8684 30.5054 13.298 29.9165 13.4909 29.2414L9.6448 28.1426ZM10.2081 27.4264C10.3565 27.3399 10.4693 27.3143 10.4991 27.3083C10.5307 27.302 10.5184 27.308 10.4458 27.308V31.308C10.9307 31.308 11.6024 31.2439 12.2236 30.8816L10.2081 27.4264ZM10.4458 27.308C10.3844 27.308 10.388 27.3026 10.4374 27.313C10.485 27.3231 10.623 27.3581 10.7936 27.4667L8.64609 30.8413C9.28014 31.2448 9.97544 31.308 10.4458 31.308V27.308ZM10.7936 27.4667C11.0941 27.6579 11.3827 27.9919 11.5011 28.4457C11.6048 28.8433 11.5281 29.1444 11.4968 29.2445L7.67888 28.0515C7.57427 28.3862 7.48287 28.889 7.63061 29.4553C7.79297 30.0777 8.18421 30.5474 8.64609 30.8413L10.7936 27.4667ZM11.4895 29.2675L17.1875 11.7775L13.3842 10.5385L7.68622 28.0285L11.4895 29.2675ZM13.8716 9.74379C13.5522 10.0632 13.2119 10.3716 12.8504 10.6685L15.3893 13.7595C15.8491 13.3818 16.2862 12.9861 16.7001 12.5722L13.8716 9.74379ZM12.8504 10.6685C12.4667 10.9837 12.0601 11.3008 11.6302 11.6198L14.0135 14.8322C14.4929 14.4765 14.9516 14.119 15.3893 13.7595L12.8504 10.6685ZM11.6391 11.6132C11.2099 11.9279 10.7504 12.2582 10.2605 12.6041L12.5672 15.8719C13.0746 15.5138 13.5538 15.1694 14.0046 14.8388L11.6391 11.6132ZM10.3044 12.5739C10.269 12.5975 10.3354 12.5448 10.4923 12.5045C10.6664 12.4597 10.9686 12.4283 11.3165 12.5525L9.97116 16.3195C11.0873 16.7181 12.0504 16.2173 12.5232 15.9021L10.3044 12.5739ZM11.3165 12.5525C11.6904 12.686 11.8212 12.9211 11.8004 12.8871L8.38728 14.9729C8.68915 15.4669 9.18664 16.0393 9.97117 16.3195L11.3165 12.5525ZM11.7898 12.87C11.809 12.9007 11.9546 13.1548 11.8977 13.5528L7.93795 12.9872C7.82242 13.7959 8.08532 14.49 8.39785 14.99L11.7898 12.87ZM11.9003 13.5343C11.8615 13.8252 11.74 14.0593 11.6112 14.2187C11.4943 14.3634 11.3917 14.4232 11.3819 14.4288L9.37777 10.9671C8.81544 11.2927 8.07874 11.9306 7.93539 13.0057L11.9003 13.5343ZM11.4424 14.3924C12.3531 13.8213 13.2022 13.2375 13.988 12.6403L11.5677 9.45567C10.8868 9.97315 10.1373 10.4894 9.31727 11.0036L11.4424 14.3924ZM13.9927 12.6367C14.8054 12.0153 15.5548 11.3635 16.2381 10.6802L13.4096 7.85179C12.8609 8.4005 12.2463 8.93671 11.5629 9.45928L13.9927 12.6367ZM16.2546 10.6635C16.9479 9.95371 17.561 9.20821 18.0884 8.42571L14.7713 6.19029C14.3893 6.75712 13.9318 7.31696 13.3931 7.86852L16.2546 10.6635ZM18.0638 8.46137C18.111 8.39452 18.133 8.37181 18.1281 8.37694C18.1247 8.38058 18.1093 8.3964 18.0815 8.41956C18.054 8.44248 18.0079 8.47793 17.9428 8.51698L15.8848 5.08702C15.3806 5.38957 15.026 5.82869 14.7959 6.15463L18.0638 8.46137ZM17.9428 8.51698C17.8421 8.57744 17.7549 8.61332 17.6946 8.63422C17.634 8.6552 17.5897 8.66476 17.5684 8.66874C17.5304 8.67587 17.5402 8.67 17.6178 8.67V4.67C17.2032 4.67 16.5126 4.71034 15.8848 5.08702L17.9428 8.51698ZM17.6178 8.67C17.6936 8.67 17.6918 8.67653 17.6373 8.66497C17.5893 8.65477 17.4106 8.61205 17.1969 8.46246L19.4908 5.18554C18.8213 4.7169 18.0554 4.67 17.6178 4.67V8.67ZM17.2701 8.51132C16.9539 8.31011 16.6458 7.94817 16.538 7.45236C16.4456 7.02725 16.548 6.71635 16.5812 6.62775L20.3265 8.03224C20.4477 7.70898 20.5758 7.19641 20.4467 6.60264C20.3022 5.93816 19.8951 5.44056 19.4176 5.13668L17.2701 8.51132ZM16.5463 6.72884L15.4023 10.3588L19.2174 11.5612L20.3614 7.93115L16.5463 6.72884ZM18.916 12.1517C19.5154 11.3438 20.1286 10.6787 20.7503 10.1423L18.1374 7.11369C17.2631 7.86797 16.4536 8.75753 15.7036 9.7683L18.916 12.1517ZM20.7357 10.1548C21.364 9.62318 21.9632 9.25928 22.5304 9.02818L21.0213 5.32381C20.0045 5.73805 19.0491 6.34215 18.152 7.10123L20.7357 10.1548ZM22.5475 9.02116C23.1304 8.77738 23.6756 8.67 24.1958 8.67V4.67C23.1027 4.67 22.0346 4.89995 21.0042 5.33084L22.5475 9.02116ZM24.1958 8.67C24.7143 8.67 25.0432 8.7741 25.2592 8.89596L27.2245 5.41204C26.2965 4.88856 25.2614 4.67 24.1958 4.67V8.67ZM25.278 8.90643C25.5246 9.04207 25.6895 9.21235 25.813 9.44767L29.3546 7.58833C28.8622 6.65032 28.1324 5.91126 27.2057 5.40157L25.278 8.90643ZM25.813 9.44767C25.9412 9.69169 26.0458 10.0556 26.0458 10.608H30.0458C30.0458 9.54709 29.8425 8.51765 29.3546 7.58833L25.813 9.44767ZM26.0458 10.608C26.0458 11.7003 25.8215 12.6854 25.3858 13.5904L28.9898 15.3256C29.6981 13.8546 30.0458 12.273 30.0458 10.608H26.0458ZM25.3901 13.5816C24.9451 14.4944 24.305 15.3223 23.4408 16.0665L26.0509 19.0975C27.2987 18.023 28.2866 16.7683 28.9856 15.3344L25.3901 13.5816ZM23.4425 16.065C22.5977 16.7908 21.5664 17.3969 20.3214 17.8669L21.7343 21.6091C23.3639 20.9938 24.8113 20.1626 26.0492 19.099L23.4425 16.065ZM20.3151 17.8693C19.1014 18.3323 17.7486 18.618 16.2423 18.7097L16.4854 22.7023C18.3525 22.5887 20.1089 22.2291 21.7406 21.6067L20.3151 17.8693Z" fill="#3F3D56" mask="url(#path-1-outside-1_1081_2)"/>
</svg>
