<svg xmlns="http://www.w3.org/2000/svg" xmlns:xlink="http://www.w3.org/1999/xlink" viewBox="0 0 32 32"><defs><linearGradient id="a" x1="-232.595" y1="266.492" x2="-232.531" y2="266.492" gradientTransform="matrix(-63.168, 263.614, 263.614, 63.168, -84915.315, 44492.821)" gradientUnits="userSpaceOnUse"><stop offset="0" stop-color="#58d09e"/><stop offset="1" stop-color="#d2d2d2" stop-opacity="0"/></linearGradient><linearGradient id="b" x1="-232.6" y1="267.638" x2="-232.537" y2="267.638" gradientTransform="matrix(214.83, 128.221, 128.221, -214.83, 15657.593, 87341.949)" gradientUnits="userSpaceOnUse"><stop offset="0" stop-color="#58d09e"/><stop offset="1"/></linearGradient></defs><title>file_type_light_cypress</title><path d="M15.5,2.071A13.938,13.938,0,1,1,2.076,16.495,13.949,13.949,0,0,1,15.5,2.071Z" style="fill:#fafafa"/><path d="M23.471,11.58l-2.624,6.584-2.64-6.584h-2.16l3.7,8.986L17.115,26.9,19,27.276l6.508-15.7H23.471Z"/><path d="M11.942,13.245a2.6,2.6,0,0,1,2.448,1.592l.036.079,1.841-.62-.04-.094a4.533,4.533,0,0,0-4.285-2.792,4.6,4.6,0,0,0-3.372,1.318A4.423,4.423,0,0,0,7.2,16.02,4.4,4.4,0,0,0,8.569,19.3a4.6,4.6,0,0,0,3.372,1.319,4.534,4.534,0,0,0,4.285-2.792l.04-.094-1.844-.621-.035.083a2.552,2.552,0,0,1-2.446,1.588,2.589,2.589,0,0,1-1.92-.786,2.717,2.717,0,0,1-.778-1.97,2.762,2.762,0,0,1,.778-1.988,2.577,2.577,0,0,1,1.92-.789Z"/><path d="M2.961,19.547a13.349,13.349,0,0,1-.482-3.559A13.524,13.524,0,0,1,11.161,3.455L11.842,5.2A11.639,11.639,0,0,0,4.369,15.988a11.49,11.49,0,0,0,.414,3.062Z" style="fill:#58d09e"/><path d="M11.07,3.5A13.611,13.611,0,0,1,28.062,9.9l-1.681.855A11.715,11.715,0,0,0,11.758,5.243L11.07,3.5Z" style="fill:#58d09e"/><path d="M22.225,25.756a11.567,11.567,0,0,0,4.088-15.149l1.675-.866a13.426,13.426,0,0,1-4.748,17.6l-1.015-1.581Z" style="fill:url(#a)"/><path d="M17.5,25.949l-.46,1.105a.611.611,0,0,1-.536.377c-.155.006-.312.01-.471.01a11.736,11.736,0,0,1-11.4-9.009l-1.843.413A13.461,13.461,0,0,0,7.5,26.327a13.7,13.7,0,0,0,8.51,2.987h.028c.182,0,.361,0,.542-.012a2.5,2.5,0,0,0,2.206-1.536l.6-1.444L17.5,25.949Z" style="fill:url(#b)"/></svg>