<svg viewBox="0 0 32 32" xmlns="http://www.w3.org/2000/svg"><path d="m26.211 26.365a2.223 2.223 0 0 0 2.229-2.873l-.358-1.508-1.434-5.984" fill="#c6093b"/><path d="m5.23 16v8.651a3.625 3.625 0 0 0 .234 1.3c.062.143.124.286.2.429a3.529 3.529 0 0 0 .437.635 3.139 3.139 0 0 0 .935.714 2.619 2.619 0 0 0 1.156.271h15.508a2.619 2.619 0 0 0 1.154-.27 2.757 2.757 0 0 0 .935-.714 2.48 2.48 0 0 0 .421-.635 2.16 2.16 0 0 0 .2-.429 3.562 3.562 0 0 0 .234-1.3v-8.652z" fill="#d2d2d2"/><path d="m26.648 16 3.117-4.317c.655-.9-.109-1.635-1.668-1.667" fill="#c6093b"/><path d="m26.648 16 1.434-5.984.358-1.508a2.223 2.223 0 0 0 -2.229-2.873" fill="#d2d2d2"/><path d="m26.648 16v-8.651a3.625 3.625 0 0 0 -.234-1.3c-.063-.143-.125-.286-.2-.429a4.511 4.511 0 0 0 -.421-.635 3.139 3.139 0 0 0 -.935-.714 2.619 2.619 0 0 0 -1.158-.271h-15.524a2.849 2.849 0 0 0 -1.154.254 2.976 2.976 0 0 0 -.935.714 3.038 3.038 0 0 0 -.436.635 2.16 2.16 0 0 0 -.2.429 3.566 3.566 0 0 0 -.234 1.3v8.651q10.729.025 21.431.017z" fill="#c6093b"/><path d="m28.082 21.984c1.574-.032 2.322-.762 1.667-1.651l-3.101-4.333" fill="#d2d2d2"/><path d="m26.648 16-1.435-5.984-.358-1.508a3.924 3.924 0 0 0 -3.648-2.873h-15.416a2.223 2.223 0 0 0 -2.229 2.873l2.038 7.508" fill="#d2d2d2"/><path d="m26.648 16-1.435 5.984-.358 1.508a3.939 3.939 0 0 1 -3.648 2.889h-15.432a2.223 2.223 0 0 1 -2.229-2.873l.359-1.508h.095l1.6-5.984" fill="#c6093b"/><path d="m26.648 16-3.1-4.317a5.666 5.666 0 0 0 -4.148-1.667h-15.495c-1.574.032-2.323.762-1.668 1.667l3.102 4.317" fill="#c6093b"/><path d="m5.339 16-3.1 4.333c-.655.905.109 1.635 1.668 1.651h15.493a5.638 5.638 0 0 0 4.147-1.667l3.101-4.317" fill="#d2d2d2"/></svg>