<svg viewBox="0 0 32 32" xmlns="http://www.w3.org/2000/svg"><path d="m8.907 23.021h-.029a3.305 3.305 0 0 1 -2.011-.661 2.561 2.561 0 0 1 -1.037-2.026v-4.234h-1.542a3.05 3.05 0 0 1 -2.738-1.69 3.3 3.3 0 0 1 .441-3.53 2.265 2.265 0 0 1 1.815-.9h9.65a3.05 3.05 0 0 1 2.738 1.69 3.3 3.3 0 0 1 -.441 3.53 2.265 2.265 0 0 1 -1.815.9h-1.983v4.231a2.561 2.561 0 0 1 -1.037 2.026 3.305 3.305 0 0 1 -2.011.664zm-4.643-11.385a1.39 1.39 0 0 0 -1.388 1.388v.033a1.39 1.39 0 0 0 1.388 1.388h3.223v5.881c0 .572.624 1.037 1.39 1.037h.029c.767 0 1.39-.465 1.39-1.037v-5.88h3.223a1.39 1.39 0 0 0 1.388-1.388v-.033a1.39 1.39 0 0 0 -1.388-1.388z" fill="#015d9a"/><path d="m14.981 12.953v.033a1.533 1.533 0 0 1 -1.533 1.533h-3.078v5.737a1.393 1.393 0 0 1 -1.535 1.181h-.029a1.393 1.393 0 0 1 -1.535-1.181v-5.738h-3.079a1.533 1.533 0 0 1 -1.532-1.532v-.033a1.533 1.533 0 0 1 1.532-1.533h9.257a1.533 1.533 0 0 1 1.532 1.533zm-4.223 9.222a2.418 2.418 0 0 0 .98-1.912v-4.375h2.127a2.114 2.114 0 0 0 1.7-.846 2.992 2.992 0 0 0 -2.18-4.99h-9.65a2.114 2.114 0 0 0 -1.7.846 2.992 2.992 0 0 0 2.18 4.99h1.685v4.375a2.418 2.418 0 0 0 .98 1.912 3.16 3.16 0 0 0 1.923.631h.029a3.16 3.16 0 0 0 1.926-.632z" fill="#3bcefc"/><path d="m23.607 23.021h-.029a3.305 3.305 0 0 1 -2.011-.661 2.561 2.561 0 0 1 -1.037-2.026v-4.234h-1.542a3.05 3.05 0 0 1 -2.738-1.69 3.3 3.3 0 0 1 .441-3.53 2.265 2.265 0 0 1 1.815-.9h9.65a3.05 3.05 0 0 1 2.738 1.69 3.3 3.3 0 0 1 -.441 3.53 2.265 2.265 0 0 1 -1.815.9h-1.983v4.231a2.561 2.561 0 0 1 -1.037 2.026 3.305 3.305 0 0 1 -2.011.664zm-4.643-11.385a1.39 1.39 0 0 0 -1.388 1.388v.033a1.39 1.39 0 0 0 1.388 1.388h3.223v5.881c0 .572.624 1.037 1.39 1.037h.029c.767 0 1.39-.465 1.39-1.037v-5.88h3.223a1.39 1.39 0 0 0 1.388-1.388v-.033a1.39 1.39 0 0 0 -1.388-1.388z" fill="#015d9a"/><path d="m29.681 12.953v.033a1.533 1.533 0 0 1 -1.533 1.533h-3.078v5.737a1.393 1.393 0 0 1 -1.535 1.181h-.029a1.393 1.393 0 0 1 -1.535-1.181v-5.738h-3.079a1.533 1.533 0 0 1 -1.533-1.533v-.033a1.533 1.533 0 0 1 1.533-1.533h9.257a1.533 1.533 0 0 1 1.532 1.534zm-4.223 9.222a2.418 2.418 0 0 0 .98-1.912v-4.375h2.127a2.114 2.114 0 0 0 1.7-.846 2.992 2.992 0 0 0 -2.18-4.99h-9.65a2.114 2.114 0 0 0 -1.7.846 2.992 2.992 0 0 0 2.18 4.99h1.685v4.375a2.418 2.418 0 0 0 .98 1.912 3.16 3.16 0 0 0 1.923.631h.029a3.16 3.16 0 0 0 1.926-.632z" fill="#3bcefc"/></svg>