<svg xmlns="http://www.w3.org/2000/svg" viewBox="0 0 32 32"><title>file_type_ttcn</title><path d="M12.338,2c-.658,0-.748.016-.346.062a18.728,18.728,0,0,1,2.19.4,14.654,14.654,0,0,1,7.073,3.825,12.72,12.72,0,0,1,3.47,7.4,16.33,16.33,0,0,1,.159,2.621,11.784,11.784,0,0,1-.036,1.305,15.079,15.079,0,0,1-.544,2.767,12.959,12.959,0,0,1-1.952,3.965,12.639,12.639,0,0,1-4.978,4,19.03,19.03,0,0,1-5.85,1.542c-.176.019-.319.038-.317.038.019.017.644.057,1.051.067v0c5.187.133,9.482-1.764,12.1-5.347a14.1,14.1,0,0,0,1.225-2.031,16.075,16.075,0,0,0,1.28-4.548,15.655,15.655,0,0,0-2.6-10.887,6.742,6.742,0,0,0-.843-1.041,13.2,13.2,0,0,0-5.184-3.214A17.981,17.981,0,0,0,12.338,2Z" style="fill:#00adee"/><path d="M5.614,23.428a1.055,1.055,0,0,1-.468-.391A1.344,1.344,0,0,1,5,22.348a1.9,1.9,0,0,1,.414-1.255,1.97,1.97,0,0,1,.916-.678l.212-.079,3.541-.015,3.541-.015.177-.095c.443-.237.669-.682.751-1.479.064-.62-.085-.961-.5-1.157a9.059,9.059,0,0,0-2.252-.081l-2.12-.019L9.546,17.4a1.031,1.031,0,0,1-.4-.47,1.151,1.151,0,0,1-.086-.557,2.035,2.035,0,0,1,.187-1.052,1.528,1.528,0,0,1,.565-.624c.315-.175.3-.174,2.667-.2l2.175-.02.193-.1a1.545,1.545,0,0,0,.764-1.074,2.609,2.609,0,0,0,.014-1.111,1.12,1.12,0,0,0-.66-.712l-.166-.068L11.537,11.4l-3.262-.016-.137-.065A1.277,1.277,0,0,1,7.5,10.074a1.726,1.726,0,0,1,.637-1.459l.127-.076,4.914,0c3.858,0,4.94,0,5.035.033a.87.87,0,0,1,.466.4,1.55,1.55,0,0,1,.042,1.022c-.132.663-.075,1.006.212,1.271.215.2.332.228,1.01.26,1.169.056,1.319.089,1.473.328s.166.126-.459,3.214c-.686,3.389-.876,4.28-.987,4.63a1.1,1.1,0,0,1-.519.521,2.518,2.518,0,0,1-.992.132,1.519,1.519,0,0,0-1.1.334,1.826,1.826,0,0,0-.525.836,4.659,4.659,0,0,1-.479.962,2.439,2.439,0,0,1-1.042.93c-.114.045-.55.05-4.842.055-4.027.005-4.736,0-4.851-.037Z" style="fill:#949494"/></svg>