<svg viewBox="0 0 32 32" xmlns="http://www.w3.org/2000/svg"><path d="m27.573 23.545-10.822 6.255a1.493 1.493 0 0 1 -1.5 0l-10.824-6.255a1.5 1.5 0 0 1 -.751-1.293v-12.504a1.484 1.484 0 0 1 .751-1.293l10.822-6.255a1.493 1.493 0 0 1 1.5 0l10.824 6.255a1.5 1.5 0 0 1 .751 1.293v12.5a1.57 1.57 0 0 1 -.751 1.293z" fill="#8d6748"/><g fill="#fff"><path d="m22.772 12.994a.653.653 0 0 0 -.651-.651h-12.242a.653.653 0 0 0 -.651.651c0 2.214.326 9.833 3.581 13.544a.591.591 0 0 0 .456.2h5.47a.591.591 0 0 0 .456-.2c3.256-3.647 3.581-11.265 3.581-13.544zm-4.819 11.851h-3.841a.591.591 0 0 1 -.456-.2c-2.214-2.6-2.474-7.814-2.54-9.637a.653.653 0 0 1 .651-.651h8.6a.653.653 0 0 1 .651.651c0 1.823-.326 6.967-2.54 9.637a.866.866 0 0 1 -.525.2z"/><path d="m17.237 11.04a2.716 2.716 0 0 0 .912-3.84c-.847-1.3-1.237-2.409-.912-2.865-.847 1.042-2.279 2.149-.716 4.493a3.673 3.673 0 0 1 .716 2.212z"/><path d="m14.633 11.236a1.831 1.831 0 0 0 .586-2.6c-.586-.847-.847-1.628-.586-1.888-.586.716-1.5 1.433-.456 3.06a2.632 2.632 0 0 1 .456 1.428z"/><path d="m19.972 18.789a10.453 10.453 0 0 1 -1.888 5.079.563.563 0 0 1 -.391.2h-3.256a.464.464 0 0 1 -.391-.2 9.335 9.335 0 0 1 -1.628-3.647s3.777.521 5.926-.26c1.563-.586 1.628-1.172 1.628-1.172z"/></g></svg>