<svg viewBox="0 0 32 32" xmlns="http://www.w3.org/2000/svg"><path d="m12.534 3.733v12.267h-1.427v11.553l4.893 2.447 2.956-14-2.956-14z" fill="#9d5025"/><path d="m16 2v14 14l3.466-1.733v-12.267h1.427v-11.553z" fill="#f58536"/><path d="m26.092 12.432-6.184.578-2.039-.238 6.456-6.592z" fill="#6b3a19"/><path d="m24.325 6.18 1.767.883v5.369l-1.767-.374z" fill="#f58536"/><path d="m17.869 12.772 6.456-.714v-5.878l-6.456 1.733z" fill="#9d5025"/><path d="m5.908 19.568 6.184-.578 2.039.238-6.456 6.592z" fill="#fbbf93"/><path d="m7.675 25.82-1.767-.883v-5.369l1.767.374z" fill="#9d5025"/><path d="m14.131 19.228-6.456.714v5.878l6.456-1.733z" fill="#f58536"/></svg>