<svg viewBox="0 0 32 32" xmlns="http://www.w3.org/2000/svg" xmlns:xlink="http://www.w3.org/1999/xlink"><linearGradient id="a" gradientTransform="matrix(1 0 0 -1 0 -180)" gradientUnits="userSpaceOnUse" x1="16" x2="16" y1="-182.072" y2="-209.928"><stop offset="0" stop-color="#fff"/><stop offset="1" stop-color="#fff" stop-opacity="0"/></linearGradient><path d="m6.045 23.991a1.166 1.166 0 0 1 -1.208.191l-2.119-.882a1.168 1.168 0 0 1 -.718-1.078v-12.444a1.165 1.165 0 0 1 .718-1.078l2.119-.883a1.169 1.169 0 0 1 1.208.191l.476.408a.646.646 0 0 0 -1.021.526v14.116a.646.646 0 0 0 1.021.525z" fill="#52218a"/><path d="m2.718 23.3a1.169 1.169 0 0 1 -.718-1.078v-.1a.674.674 0 0 0 1.174.452l18.076-19.991a1.743 1.743 0 0 1 1.99-.338l5.769 2.778a1.749 1.749 0 0 1 .991 1.577v.067a1.1 1.1 0 0 0 -1.8-.854l-21.679 17.77-.476.408a1.166 1.166 0 0 1 -1.208.191z" fill="#6c33af"/><path d="m2.718 8.7a1.168 1.168 0 0 0 -.718 1.078v.1a.674.674 0 0 1 1.174-.452l18.076 19.99a1.743 1.743 0 0 0 1.99.338l5.769-2.778a1.747 1.747 0 0 0 .991-1.576v-.068a1.1 1.1 0 0 1 -1.8.855l-21.679-17.77-.476-.408a1.166 1.166 0 0 0 -1.208-.191z" fill="#854cc7"/><path d="m23.24 29.755a1.743 1.743 0 0 1 -1.99-.338 1.025 1.025 0 0 0 1.75-.725v-25.384a1.025 1.025 0 0 0 -1.75-.725 1.743 1.743 0 0 1 1.99-.338l5.768 2.774a1.749 1.749 0 0 1 .992 1.581v18.805a1.751 1.751 0 0 1 -.991 1.577z" fill="#b179f1"/><path d="m22.093 29.883a1.74 1.74 0 0 0 1.147-.128l5.768-2.774a1.749 1.749 0 0 0 .992-1.581v-18.8a1.75 1.75 0 0 0 -.992-1.577l-5.768-2.778a1.742 1.742 0 0 0 -1.99.339l-9.3 10.284-5.429-4.452-.476-.408a1.168 1.168 0 0 0 -1.207-.191l-2.119.883a1.167 1.167 0 0 0 -.719.989v.088 12.444.088a1.167 1.167 0 0 0 .715.989l2.119.883a1.226 1.226 0 0 0 .155.052 1.165 1.165 0 0 0 1.052-.243l.476-.408 5.43-4.452 9.3 10.285a1.733 1.733 0 0 0 .846.468zm.907-19.811-7.23 5.928 7.23 5.927zm-17.5 1.928 3.619 4-3.619 4z" fill="url(#a)" fill-rule="evenodd" opacity=".25"/></svg>