<svg viewBox="0 0 32 32" xmlns="http://www.w3.org/2000/svg"><g fill="#888" fill-rule="evenodd"><path d="m16.014 8.375h3.948c-1.455 2.38-3.062 5-4.668 7.627h-3.951c1.607-2.622 3.213-5.247 4.671-7.627z"/><path d="m6.67 8.375h3.951q-1.172 1.91-2.338 3.816t-2.335 3.809q1.168 1.911 2.332 3.817t2.338 3.81h-3.95q-1.172-1.9-2.338-3.81t-2.33-3.817q1.164-1.9 2.332-3.81t2.338-3.815z"/><path d="m6.669 8.372c1.609 2.628 3.219 5.25 4.675 7.628h3.951l-4.674-7.625z"/><path d="m19.962 8.375h-3.948q1.168 1.91 2.335 3.816t2.338 3.809q-1.172 1.911-2.338 3.817l-2.335 3.81h3.951q1.168-1.9 2.335-3.81t2.338-3.817c-.784-1.269-1.559-2.538-2.338-3.81s-1.56-2.54-2.338-3.815z"/><path d="m18.326 11.058h-3.954l-1.512 2.471q-.76 1.236-1.517 2.471h3.951q.76-1.238 1.52-2.474t1.512-2.468z"/><path d="m12.987 13.319h3.951l1.512-2.471 1.512-2.473h-3.948q-.76 1.238-1.515 2.473z"/><path d="m22.994 13.319h-3.95q-.76-1.236-1.518-2.471l-1.512-2.473h3.948q.756 1.238 1.515 2.473c.505.822 1.011 1.652 1.517 2.471z"/><path d="m25.321 8.375h-3.951q1.168 1.913 2.332 3.816t2.342 3.809q-1.172 1.911-2.338 3.817t-2.335 3.81h3.951q1.168-1.9 2.335-3.81t2.337-3.817l-2.338-3.81q-1.168-1.902-2.335-3.815z"/><path d="m28.351 13.32h-3.951q-.764-1.233-1.518-2.471t-1.512-2.474h3.951q.756 1.238 1.512 2.474t1.518 2.471z"/><path d="m23.017 20.945h3.951q.756-1.233 1.512-2.47t1.52-2.475h-3.956q-.76 1.238-1.515 2.473z"/><path d="m17.66 20.945h3.951l1.512-2.471q.756-1.235 1.515-2.473h-3.951q-.76 1.238-1.515 2.473z"/><path d="m8.975 11.063h-3.951c-.507.824-1.011 1.65-1.515 2.473s-1.009 1.645-1.509 2.464h3.948c.5-.821 1.008-1.646 1.512-2.468s1.008-1.646 1.515-2.469z"/><path d="m3.644 13.314h3.95c.507-.824 1.011-1.65 1.515-2.473s1.008-1.641 1.51-2.466h-3.949c-.5.821-1.008 1.646-1.512 2.468s-1.007 1.647-1.514 2.471z"/><path d="m3.641 18.691h3.951c.5.825 1.008 1.649 1.512 2.471s1.008 1.647 1.515 2.468h-3.951q-.761-1.23-1.518-2.468c-.505-.822-1.005-1.648-1.509-2.471z"/><path d="m13.648 13.314h-3.948c-.507-.824-1.011-1.65-1.515-2.473s-1.011-1.641-1.512-2.466h3.948c.5.821 1.008 1.646 1.512 2.468s1.008 1.647 1.515 2.471z"/></g></svg>