<svg xmlns="http://www.w3.org/2000/svg" viewBox="0 0 32 32"><title>file_type_csproj</title><path d="M29.821,4.321,24.023,2,11.493,14.212,3.833,8.385l-1.654.837V22.8l1.644.827,7.65-5.827L24.023,30l5.8-2.321V4.321ZM4.65,19.192V12.818L8.2,15.985ZM16,15.985l7.082-5.3V21.324l-7.092-5.339Z" style="fill:#68217a"/><polygon points="15.995 15.985 23.077 10.686 23.077 21.324 15.985 15.985 15.995 15.985" style="fill:#fff"/><polygon points="4.65 19.192 4.65 12.818 8.196 15.985 4.65 19.192" style="fill:#fff"/><polygon points="30.089 28.175 21.345 28.174 21.345 26.259 19.43 26.257 19.43 17.516 21.344 17.517 21.342 15.604 30.087 15.604 30.087 17.519 32.001 17.519 31.999 21.346 32 21.346 32 26.261 30.088 26.261 30.089 28.175" style="fill:#efeef0"/><path d="M15.527,32A7.159,7.159,0,0,1,10,29.758a8.1,8.1,0,0,1-2-5.683,8.56,8.56,0,0,1,2.213-6.063A7.608,7.608,0,0,1,16,15.6a9.836,9.836,0,0,1,3.558.581l.956.372v6.56l-2.3-1.458a3.6,3.6,0,0,0-1.989-.544,2.117,2.117,0,0,0-1.672.662,2.957,2.957,0,0,0-.658,2.091,2.877,2.877,0,0,0,.615,2,1.9,1.9,0,0,0,1.562.614,3.968,3.968,0,0,0,2.153-.6l2.292-1.426v6.28l-.815.419A9.144,9.144,0,0,1,15.527,32Z" style="fill:#efeef0"/><path d="M22.844,17.1h1.915v1.915h1.914V17.1h1.914v1.915H30.5v1.914H28.587v1.913H30.5V24.76H28.587v1.914H26.673V24.762l-1.912,0,0,1.914H22.845V24.761l-1.915,0V22.844h1.915V20.935H20.93V19.017h1.915Zm1.915,5.744h1.914V20.932H24.759Z" style="fill:#368832"/><path d="M19.017,29.81a7.65,7.65,0,0,1-3.49.686,5.7,5.7,0,0,1-4.417-1.752A6.629,6.629,0,0,1,9.5,24.076a7.077,7.077,0,0,1,1.809-5.039A6.136,6.136,0,0,1,16,17.1a8.329,8.329,0,0,1,3.013.479v2.809a5.108,5.108,0,0,0-2.792-.777,3.6,3.6,0,0,0-2.775,1.147,4.409,4.409,0,0,0-1.055,3.107,4.331,4.331,0,0,0,1,2.994,3.413,3.413,0,0,0,2.681,1.115,5.466,5.466,0,0,0,2.945-.831Z" style="fill:#368832"/></svg>