<svg version="1.1" viewBox="0 0 32 32" xmlns="http://www.w3.org/2000/svg"><title>file_type_juice</title><ellipse cx="16" cy="16.054" rx="13.163" ry="13.109" fill="#fce494"/><path d="m15.659 2c0.22525 0 0.4505 0 0.69482 0.00748 0.13139 0.00925 0.2437 0.011027 0.36745 0.014533 0.35035 0.029528 0.69037 0.047946 1.028 0.087117 0.65661 0.076182 1.3037 0.20536 1.9418 0.37873 0.80687 0.21921 1.5885 0.50719 2.3428 0.867 0.66831 0.31878 1.3077 0.68827 1.918 1.1084 0.62042 0.42709 1.2052 0.89825 1.7453 1.422 0.31278 0.30333 0.61339 0.62091 0.90039 0.94874 1.0011 1.1435 1.7862 2.4229 2.3675 3.8264 0.3373 0.81438 0.59365 1.6546 0.76746 2.5189 0.11927 0.59315 0.21336 1.1902 0.23572 1.807 7e-3 0.07052 0.01539 0.13034 0.02376 0.19017 0 0.5412 0 1.0824-0.0072 1.6429-0.02592 0.27122-0.03992 0.52366-0.06424 0.77508-0.05632 0.58233-0.16501 1.1558-0.30279 1.7241-0.36807 1.5183-0.98008 2.9323-1.8234 4.2463-0.48082 0.74914-1.0318 1.4446-1.6458 2.0891-0.33529 0.35201-0.68995 0.68438-1.0605 0.9996-0.79383 0.67523-1.6518 1.256-2.5748 1.7393-0.92662 0.48523-1.896 0.8621-2.9078 1.1295-0.79251 0.20948-1.5976 0.3453-2.414 0.41546-0.16081 0.01382-0.32177 0.0263-0.49428 0.03855-0.06539-8.39e-4 -0.11941-0.0044-0.17288-2.8e-4 -0.0557 0.0042-0.11088 0.01567-0.16624 0.02378-0.22528 0-0.45053 0-0.6937-0.0087-0.13005-0.01147-0.24222-0.01455-0.3649-0.02143-0.22175-0.01782-0.43365-0.02493-0.64401-0.04661-0.82763-0.0853-1.6445-0.23068-2.4454-0.45846-0.97838-0.27821-1.9163-0.65598-2.8135-1.1364-1.1203-0.59995-2.1371-1.3419-3.0573-2.2162-0.45498-0.43235-0.87665-0.89629-1.2682-1.3873-0.81252-1.019-1.4745-2.1271-1.977-3.3299-0.32205-0.7708-0.57311-1.5636-0.75164-2.38-0.13039-0.59623-0.22616-1.197-0.27264-1.8055-0.010075-0.1319-0.023061-0.26358-0.035245-0.406-0.00163-0.05947 8.022e-4 -0.10868-0.00501-0.15694-4e-3 -0.03321-0.019433-0.06504-0.029755-0.09749-1e-7 -0.36653-1e-7 -0.73306 0.00779-1.1181 0.017789-0.11685 0.032602-0.21502 0.036941-0.3136 0.017854-0.40583 0.067738-0.80803 0.12525-1.2098 0.10189-0.71174 0.26428-1.4097 0.47877-2.0952 0.33876-1.0827 0.80337-2.1088 1.3936-3.0786 0.53106-0.87265 1.149-1.6784 1.8555-2.415 0.26716-0.27855 0.54979-0.54336 0.83755-0.80087 1.0126-0.90619 2.1396-1.6404 3.3719-2.2137 0.87567-0.4074 1.7832-0.72173 2.7246-0.9389 0.81527-0.1881 1.6398-0.30728 2.4876-0.34199 0.08792 0.00143 0.16437 0.00398 0.24054 5.031e-4 0.03325-0.00152 0.06595-0.015374 0.09892-0.023627zm1.1443 15.514c-0.08501-0.07461-0.1502-0.17219-0.25509-0.23253-0.02525 0.14732-0.01982 11.538 0.0071 11.644 1.6449-0.06672 3.2213-0.43381 4.7267-1.1038 1.2945-0.57609 2.4624-1.3441 3.5158-2.3183-2.6693-2.6676-5.3258-5.3225-7.9948-7.9897zm-6.0804-6.0767c-1.3924-1.3904-2.7849-2.7808-4.1775-4.1711-0.00862-0.00862-0.020238-0.014323-0.030735-0.020953-0.00339-0.00213-0.00761-0.00347-0.011589-4e-3 -0.00406-5.316e-4 -0.00829 3.636e-4 -0.031687 0.00187-1.3084 1.4256-2.2555 3.0722-2.8356 4.9312-0.30847 0.98844-0.63536 2.9715-0.53764 3.2943 0.022906 0.0022 0.047374 0.0065 0.071839 0.0065 3.8453-0.0012 7.6905-0.0028 11.536-0.0046 0.0034 0 0.0075-0.0029 0.01-0.0056 0.0027-3e-3 0.0038-0.0073 0.01237-0.02521-1.3284-1.3276-2.6606-2.6589-4.0051-4.0027zm8.1507-8.0711c-0.79033-0.18793-2.112-0.3446-2.3322-0.27428-0.0025 0.017929-0.0076 0.038063-0.0076 0.058196 0.0011 3.8463 0.0025 7.6926 0.0043 11.539 0 0.0031 0.0037 0.0069 0.0066 0.0091 0.0032 0.0025 0.0075 0.0034-0.0086-0.0034 2.7467-2.7451 5.4878-5.4845 8.2375-8.2325-0.47846-0.44863-1.0044-0.86031-1.5614-1.232-1.3251-0.88423-2.7645-1.505-4.3388-1.8641zm6.3861 4.1235c-2.6548 2.6531-5.3095 5.3063-7.9665 7.9617 0.02043 0.01388 0.02673 0.0219 0.03303 0.0219 3.8315 0.0012 7.6631 0.0018 11.495 0.0022 0.03306 0 0.06614-0.0043 0.09917-0.0071 0.0035-3.08e-4 0.0066-0.0046 0.0098-0.0072s0.0062-0.0055 0.01699-0.01513c0-0.03421 0.0025-0.07556-3.92e-4 -0.11649-0.01528-0.21541-0.02978-0.43093-0.04848-0.64606-0.04826-0.55564-0.14436-1.1036-0.27102-1.6464-0.26223-1.1239-0.67108-2.192-1.2203-3.2071-0.49719-0.9187-1.1002-1.7623-1.8018-2.5358-0.02108-0.023247-0.04809-0.041095-0.08037-0.068175-0.08795 0.08759-0.17 0.16933-0.26452 0.26355zm-14.578 2.4418c1.5444 1.5435 3.0889 3.087 4.6332 4.6304 0.02942 0.0294 0.05769 0.0602 0.08913 0.08728 0.01993 0.01718 0.04476 0.02867 0.06796 0.04305 0.0088-0.01609 0.01512-0.02274 0.01601-0.03007 0.0025-0.02059 0.0038-0.0414 0.0038-0.06213-1.12e-4 -3.8172-3.92e-4 -7.6341-1e-3 -11.451-2.8e-5 -0.016279-0.0051-0.032608-0.0084-0.048794-7.56e-4 -0.00375-0.0036-0.00723-0.0061-0.010412-0.0025-0.00328-0.0057-0.00605-0.01912-0.019913-0.03037 0-0.0713-0.00246-0.11183 4.113e-4 -0.21557 0.015294-0.43122 0.029835-0.6465 0.048503-0.58926 0.051096-1.1697 0.15579-1.7442 0.29452-1.2336 0.29791-2.3965 0.77177-3.4917 1.4116-0.74576 0.43577-1.4384 0.94516-2.0824 1.5206-0.048118 0.042998-0.092569 0.090135-0.14542 0.14192 1.1516 1.1509 2.2927 2.2913 3.4464 3.4443zm12.206 6.5848c-1.7934 0-3.5869 2.8e-5 -5.3803 2.8e-5 -0.03745 0-0.07505-2e-3 -0.11228 8.68e-4 -0.02598 2e-3 -0.05139 0.01077-0.06544 0.0139 2.7397 2.738 5.4772 5.4739 8.2243 8.2193 0.11818-0.13506 0.24896-0.2795 0.37428-0.42855 1.3188-1.5685 2.2136-3.3506 2.6923-5.3421 0.16647-0.6926 0.26598-1.3954 0.31782-2.1052 0.0083-0.1138 0.02038-0.22959-2e-3 -0.35828h-6.0485zm-9.0772 2.4156c-2.1848 2.186-4.3696 4.3719-6.5543 6.5582-0.00258 0.0026-0.00353 0.0074-0.00403 0.01139-5.039e-4 4e-3 4.759e-4 0.0083 0.00176 0.02473 1.2966 1.1926 2.7829 2.0862 4.4513 2.6775 1.2185 0.43193 2.4742 0.66964 3.7635 0.72192 0.03104-0.12088 0.03143-11.527-0.0011-11.65-0.55295 0.55259-1.0987 1.098-1.657 1.6559zm0.84978-2.3198c0.01968-0.02423 0.03936-0.04848 0.06203-0.07643-0.13386-0.03041-11.539-0.02523-11.647 0.0071 0.071004 1.7119 0.46657 3.3475 1.1902 4.9037 0.56807 1.2216 1.3077 2.3283 2.2324 3.3232l8.1625-8.1575z" fill="#ffc108" stroke-width=".27984"/></svg>
