<svg viewBox="0 0 32 32" xmlns="http://www.w3.org/2000/svg"><path d="m16.245 24.187a8.352 8.352 0 1 1 8.355-8.352 8.362 8.362 0 0 1 -8.355 8.352zm0-14.762a6.41 6.41 0 1 0 6.41 6.41 6.417 6.417 0 0 0 -6.41-6.41z"/><path d="m29.132 8.551-3.681-2.02v.943h-9.63v1.95h9.63v1.147z" fill="#262692"/><path d="m8.984 2-2.02 3.687h.942v9.641h1.951v-9.641h1.147z" fill="#262693"/><path d="m23.705 30-2.02-3.757h.943v-9.826h1.95v9.826h1.147z" fill="#262693"/><path d="m2.868 23.32 3.766-2.02v.942h9.85v1.95h-9.85v1.148z" fill="#262692"/></svg>