<svg xmlns="http://www.w3.org/2000/svg" viewBox="0 0 32 32"><title>file_type_pyret</title><path d="M27.97,24.6a1.73,1.73,0,0,0-.924.2,3.942,3.942,0,0,1-1.545.353c-.4-.007-1.006-.244-3.622-3-1.9-2-4.093-4.532-5.594-6.3-1.908-2.246-3.853-4.615-5.335-6.5-2.463-3.134-2.542-3.5-2.58-3.682C8.183,4.793,7.726,3.337,6.778,3.5c-.416.07-.506.245-.536.3a1.915,1.915,0,0,0,.174,1.346L6.961,6.27l-1.2-.342C5.3,5.8,3.879,5.542,3.343,6.041c-.225.209-.282.59-.171,1.132a.843.843,0,0,0,.284.554c.281.184.89.054,1.478-.072A3.158,3.158,0,0,1,7.5,7.811c1.367.986,5.278,5.217,8.548,8.973,1.564,1.8,6.7,7.765,7.095,9.137a9.341,9.341,0,0,1,.289,1.512,2.255,2.255,0,0,0,.181.809c.03.044.121.179.657.254a1.137,1.137,0,0,0,.93-.189,1.613,1.613,0,0,0,.449-1.056l.012-.489.486-.049a4.86,4.86,0,0,0,2.671-.958.292.292,0,0,0,.065-.19C28.553,24.991,28.247,24.666,27.97,24.6Z" style="fill:#fff"/><path d="M29.964,25.257l-.018-.079-.039-.071a2.852,2.852,0,0,0-1.672-1.594,2.575,2.575,0,0,0-1.593.247,3.093,3.093,0,0,1-1.08.278c-.145-.061-.8-.448-3.077-2.867-1.479-1.571-3.353-3.686-5.417-6.118A109.6,109.6,0,0,1,9.457,5.419C8.824,2.477,7.392,2.262,6.593,2.4a1.73,1.73,0,0,0-1.346.9A2.184,2.184,0,0,0,5.1,4.667a3.216,3.216,0,0,0-2.516.554,2.186,2.186,0,0,0-.5,2.179,1.883,1.883,0,0,0,.767,1.264,3.031,3.031,0,0,0,2.322.086c.653-.14,1.329-.284,1.68-.031a90.159,90.159,0,0,1,8.359,8.8c4.47,5.134,6.691,8.116,6.864,8.714a8.268,8.268,0,0,1,.254,1.342c.117.93.228,1.808,1.789,2.029a3.087,3.087,0,0,0,.433.032,2.067,2.067,0,0,0,1.379-.477,2.487,2.487,0,0,0,.779-1.394c.8-.131,2.4-.494,3.021-1.356A1.4,1.4,0,0,0,29.964,25.257Zm-1.146.5a4.86,4.86,0,0,1-2.671.958l-.486.049-.012.489a1.613,1.613,0,0,1-.449,1.056,1.137,1.137,0,0,1-.93.189c-.536-.076-.627-.21-.657-.254a2.255,2.255,0,0,1-.181-.809,9.341,9.341,0,0,0-.289-1.512c-.4-1.372-5.53-7.341-7.095-9.137C12.779,13.028,8.868,8.8,7.5,7.811a3.158,3.158,0,0,0-2.566-.156c-.588.126-1.2.255-1.478.072a.843.843,0,0,1-.284-.554,1.179,1.179,0,0,1,.171-1.132c.536-.5,1.962-.242,2.418-.113l1.2.342L6.416,5.146A1.915,1.915,0,0,1,6.242,3.8c.03-.057.12-.232.536-.3.948-.16,1.4,1.3,1.592,2.177.038.178.117.548,2.58,3.682,1.482,1.886,3.427,4.255,5.335,6.5,1.5,1.767,3.69,4.293,5.594,6.3,2.616,2.755,3.224,2.993,3.622,3a3.942,3.942,0,0,0,1.545-.353,1.73,1.73,0,0,1,.924-.2c.276.068.583.393.913.966a.292.292,0,0,1-.065.183Z"/><path d="M12.3,17.068c-.448.7-1.312,2.04-2.226,3.394-2.741,4.063-3.241,4.3-3.482,4.411a5.439,5.439,0,0,1-1.256.352c-.445.088-1.055.208-1.133.407a.568.568,0,0,0,0,.52,2.546,2.546,0,0,0,1.457.83l.471.1-.032.481a1.14,1.14,0,0,0,.2.737c.029.028.107.1.342.082.739-.066.853-.2.857-.2a1.532,1.532,0,0,0,.011-.391,3.244,3.244,0,0,1,.213-1.477l.04-.1c1.051-2.524,1.07-2.569,5.688-8.331Z" style="fill:#fff"/><path d="M11.986,15.474l-.316.5c-.012.019-1.188,1.88-2.477,3.792C6.8,23.32,6.208,23.8,6.107,23.867a4.758,4.758,0,0,1-.989.264c-.776.153-1.655.326-1.957,1.094a1.691,1.691,0,0,0,.058,1.457A3.127,3.127,0,0,0,5,27.958,1.929,1.929,0,0,0,5.512,29.1a1.45,1.45,0,0,0,1.047.406q.086,0,.178-.008a2.264,2.264,0,0,0,1.6-.582A1.543,1.543,0,0,0,8.62,27.75a2.194,2.194,0,0,1,.128-1l.04-.1c1.01-2.424,1.01-2.424,5.787-8.384l.48-.6ZM7.718,26.317a3.244,3.244,0,0,0-.213,1.477,1.532,1.532,0,0,1-.011.391s-.119.135-.857.2c-.236.021-.313-.054-.342-.082a1.14,1.14,0,0,1-.2-.737l.032-.481-.471-.1a2.546,2.546,0,0,1-1.457-.83.568.568,0,0,1,0-.52c.078-.2.688-.319,1.133-.407a5.439,5.439,0,0,0,1.256-.352c.24-.113.741-.349,3.482-4.411.914-1.355,1.779-2.695,2.226-3.394l1.149.821C8.828,23.651,8.809,23.7,7.758,26.22Z"/><path d="M15.146,8.486c-6.375.048-6.658,4.521-6.751,5.993,0,.076-.009.141-.013.2-.1,1.186.492,1.555,1.236,2.022a2.453,2.453,0,0,1,1.31,1.459v.008l.054.259c.764,3.686,1.349,5.775,4.49,5.844h.039c2.89,0,3.384-2.013,4.005-5.561q.044-.253.09-.508a2.624,2.624,0,0,1,1.212-1.683,2.085,2.085,0,0,0,1.09-1.88C21.889,11.851,20.7,8.528,15.146,8.486Z" style="fill:#ee1e10"/><path d="M22,10.6a6.08,6.08,0,0,0-2.4-2.251,9.594,9.594,0,0,0-4.425-.975H15.12C12.005,7.4,9.77,8.4,8.476,10.357a8.136,8.136,0,0,0-1.2,4.051c0,.068-.008.128-.012.177a2.99,2.99,0,0,0,1.755,3.057c.464.291.751.484.814.754l.053.253A14.468,14.468,0,0,0,11.332,23.2a4.571,4.571,0,0,0,4.121,2.188h.057a4.081,4.081,0,0,0,3.856-2.07A13.863,13.863,0,0,0,20.617,18.9q.045-.255.09-.513v-.016c.057-.383.325-.608.8-.974a3.19,3.19,0,0,0,1.521-2.77A7.861,7.861,0,0,0,22,10.6Zm-1.178,5.919A2.624,2.624,0,0,0,19.607,18.2q-.046.256-.09.508c-.622,3.548-1.116,5.561-4.005,5.561h-.039c-3.14-.069-3.725-2.158-4.49-5.844l-.054-.259v-.008A2.453,2.453,0,0,0,9.618,16.7c-.744-.467-1.331-.836-1.236-2.022,0-.055.009-.121.013-.2.093-1.471.377-5.944,6.751-5.993,5.553.042,6.743,3.365,6.763,6.148a2.085,2.085,0,0,1-1.09,1.881Z"/><path d="M21.818,14.556a7.3,7.3,0,0,0-1.094-3.48l-.041-.067a5.479,5.479,0,0,0-1.527-1.442A6.7,6.7,0,0,0,15.2,8.478a8.442,8.442,0,0,0-2.929.415c.783,1.213,3.4,5.155,4.952,6.207a10.765,10.765,0,0,0,2.972,1.582l.02-.008A2.589,2.589,0,0,0,21.818,14.556Z" style="fill:#0c46ff"/><path d="M22.933,14.5a8.47,8.47,0,0,0-1.257-4l-.039-.064a7.545,7.545,0,0,0-6.474-3.067c-2.188.064-3.48.369-3.95.933a.788.788,0,0,0-.2.621l.017.114.061.1c.141.225,3.471,5.523,5.5,6.9a19.158,19.158,0,0,0,2.284,1.347,3.433,3.433,0,0,0,1.367.429.814.814,0,0,0,.443-.116,3.665,3.665,0,0,0,2.248-3.13V14.5Zm-2.742,2.187A10.765,10.765,0,0,1,17.219,15.1c-1.555-1.052-4.169-4.994-4.952-6.207A8.442,8.442,0,0,1,15.2,8.478a6.7,6.7,0,0,1,3.96,1.088,5.479,5.479,0,0,1,1.527,1.442l.041.067a7.3,7.3,0,0,1,1.094,3.48,2.589,2.589,0,0,1-1.606,2.119Z"/></svg>