<svg viewBox="0 0 32 32" xmlns="http://www.w3.org/2000/svg"><path d="m30 19.152v1.273c0 2.307-2.545 4.693-5.648 4.693h-16.704c-3.142 0-5.648-2.347-5.648-4.694v-1.272z" fill="#9d5125"/><path d="m12.778 6.782a7.112 7.112 0 0 1 6.522 4.218 3.638 3.638 0 0 1 2.068-.636 3.583 3.583 0 0 1 3.619 3.5 5.69 5.69 0 0 1 5.013 5.129v.477c0 2.347-2.545 4.693-5.688 4.693h-16.664c-3.142 0-5.648-2.347-5.648-4.693v-.477a5.527 5.527 0 0 1 3.619-4.853v-.2a7.129 7.129 0 0 1 7.159-7.158z" fill="#f58535"/><g fill="#fff"><path d="m9 15.095-1.869 6.523h1.113l.438-1.591h1.909l.4 1.591h1.109l-1.75-6.523zm-.159 4.1.8-3.222.756 3.222z"/><path d="m16.795 20.226h-.039l-.875-5.131h-1.114l-.835 5.091h-.04l-.875-5.091h-1.034l1.273 6.562h1.193l.835-4.931h.04l.835 4.931h1.233l1.313-6.562h-1.074z"/><path d="m22.085 18.078-.716-.239c-.716-.278-.994-.6-.994-1.153a.9.9 0 1 1 1.79 0v.119h1.035v-.159c0-.676-.159-1.71-1.869-1.71a1.8 1.8 0 0 0 -2.031 1.869 1.729 1.729 0 0 0 1.392 1.79l.716.239a1.1 1.1 0 0 1 .955 1.153.928.928 0 0 1 -.994.955q-1.074 0-1.074-1.193v-.159h-1.034v.159a1.786 1.786 0 0 0 1.989 1.989c1.312 0 2.187-.557 2.187-1.949a1.728 1.728 0 0 0 -1.352-1.711z"/></g></svg>