<svg viewBox="0 0 32 32" xmlns="http://www.w3.org/2000/svg"><path d="m16 2a14 14 0 1 1 -14 14 14 14 0 0 1 14-14z" fill="#c69" fill-rule="evenodd"/><path d="m24.782 7.992c-.634-2.486-4.757-3.3-8.659-1.918a19.605 19.605 0 0 0 -6.644 3.811c-2.149 2.01-2.492 3.76-2.351 4.491.5 2.58 4.033 4.266 5.486 5.517v.007c-.428.211-3.564 1.8-4.3 3.42-.774 1.712.123 2.94.718 3.105a4.4 4.4 0 0 0 4.748-1.925 4.824 4.824 0 0 0 .472-4.288 5.639 5.639 0 0 1 2.143-.123c2.456.287 2.938 1.82 2.846 2.462a1.62 1.62 0 0 1 -.779 1.1c-.172.107-.225.143-.21.223.021.115.1.111.247.086a1.915 1.915 0 0 0 1.336-1.707c.059-1.5-1.382-3.186-3.934-3.143a6.736 6.736 0 0 0 -2.189.3c-.035-.04-.071-.08-.108-.12-1.578-1.683-4.494-2.874-4.371-5.137.045-.823.331-2.989 5.6-5.617 4.32-2.153 7.778-1.56 8.376-.247.854 1.876-1.848 5.361-6.334 5.864a3.37 3.37 0 0 1 -2.833-.718c-.236-.26-.271-.271-.359-.223-.143.079-.052.309 0 .445a2.659 2.659 0 0 0 1.621 1.274 8.592 8.592 0 0 0 5.258-.52c2.721-1.049 4.843-3.974 4.22-6.419zm-11.564 12.671a3.584 3.584 0 0 1 -.029 2.092q-.035.106-.077.21t-.091.2a3.911 3.911 0 0 1 -.647.943c-.813.887-1.95 1.223-2.437.94-.526-.305-.263-1.556.68-2.553a9.478 9.478 0 0 1 2.474-1.762z" fill="#fff"/></svg>