<svg viewBox="0 0 32 32" xmlns="http://www.w3.org/2000/svg"><path d="m26.461 16.315c-.846-2.81-5.227-5.27-10.461-5.27-5.338 0-9.614 2.459-10.461 5.27l-1.009.865-1.43-2.753-1.1-4.64 1.888.787a7.6 7.6 0 0 1 2.2-1.652l1.258-2.6 2.126 1.656a15.88 15.88 0 0 1 4.483-.629l2.045-1.967 2.045 1.966a15.88 15.88 0 0 1 4.483.629l2.124-1.652 1.258 2.6a7.6 7.6 0 0 1 2.2 1.652l1.89-.79-1.1 4.64-1.43 2.753z" fill="#efc743"/><path d="m27.64 16.551-1.18-.315-2.124 2.753-2.91.865-5.426-3.067-5.427 3.067-2.91-.865-2.124-2.753-1.18.315-1.259-2.203 2.439 6.922c1.723 3.585 7.029 5.348 10.461 5.348s8.738-1.763 10.461-5.348l2.439-6.922z"/></svg>