<?xml version="1.0" encoding="UTF-8" standalone="no"?><!DOCTYPE svg PUBLIC "-//W3C//DTD SVG 1.1//EN" "http://www.w3.org/Graphics/SVG/1.1/DTD/svg11.dtd">
<svg width="100%" height="100%" viewBox="0 0 200 200" version="1.1"
   xmlns="http://www.w3.org/2000/svg"
   xmlns:xlink="http://www.w3.org/1999/xlink" xml:space="preserve"
   xmlns:serif="http://www.serif.com/" style="fill-rule:evenodd;clip-rule:evenodd;stroke-linejoin:round;stroke-miterlimit:2;">
   <path d="M100,10c49.672,0 90,40.328 90,90c0,49.672 -40.328,90 -90,90c-49.672,0 -90,-40.328 -90,-90c0,-49.672 40.328,-90 90,-90Zm-17.275,130.794c5.143,-1.378 10.436,1.678 11.814,6.821c1.378,5.142 -1.678,10.436 -6.821,11.814c-5.142,1.378 -10.436,-1.678 -11.814,-6.821c-1.378,-5.142 1.678,-10.436 6.821,-11.814Zm51.93,-101.248c1.847,0.495 2.945,2.397 2.45,4.244c-0.495,1.847 -2.396,2.944 -4.243,2.449l-3.228,-0.864c-0.587,4.746 -3.673,30.841 -2.389,45.669c-13.697,11.83 -37.37,47.413 -37.37,47.413l12.44,-46.426c2.429,-0.155 5.097,-1.699 5.761,-4.179c0.833,-3.109 -1.015,-6.31 -4.124,-7.143c-3.109,-0.833 -6.31,1.015 -7.143,4.124c-0.664,2.48 0.874,5.151 2.9,6.499l-12.44,46.427c0,0 -3.294,-40.774 -8.657,-59.747c8.716,-11.292 18.966,-36.244 20.779,-40.741l-3.241,-0.868c-1.847,-0.495 -2.944,-2.397 -2.449,-4.244c0.495,-1.847 2.396,-2.944 4.243,-2.449l36.711,9.836Z" style="fill:#484848;"/>
</svg>
