<svg xmlns="http://www.w3.org/2000/svg" xmlns:xlink="http://www.w3.org/1999/xlink" viewBox="0 0 32 32"><title>file_type_lilypond</title><path opacity="0.75" d="M16.0002 29.5C23.7323 29.5 30.0004 24.9928 30.0004 19.4328C30.0004 13.8729 23.7323 9.36564 16.0002 9.36564C8.2681 9.36564 2 13.8729 2 19.4328C2 24.9928 8.2681 29.5 16.0002 29.5Z" fill="black"/><path d="M15.8774 29.1129C23.5417 29.1129 29.7548 24.6056 29.7548 19.0457C29.7548 13.4857 23.5417 8.9785 15.8774 8.9785C8.21312 8.9785 2 13.4857 2 19.0457C2 24.6056 8.21312 29.1129 15.8774 29.1129Z" fill="#80B48E"/><path opacity="0.75" d="M5.23482 21.858C6.01572 18.8174 10.2291 14.4363 10.2291 14.4363C10.2291 14.4363 8.01717 6.70498 9.10611 4.77521C11.4088 4.6067 17.4552 10.9424 17.4552 10.9424C17.4552 10.9424 24.0912 7.65913 26.872 8.61285C26.592 11.5161 22.5742 13.6485 22.5742 13.6485C22.5742 13.6485 23.5236 22.3365 22.2162 25.0734C20.0043 25.4947 15.2221 20.3057 15.2221 20.3057C15.2221 20.3057 7.4695 24.5852 5.23482 21.858Z" fill="black"/><path d="M5.48485 21.4991C6.24255 18.5503 10.3279 14.3023 10.3279 14.3023C10.3279 14.3023 8.18319 6.80566 9.23933 4.93444C11.4724 4.77057 17.2944 10.1399 17.2944 10.1399C17.2944 10.1399 23.77 7.73074 26.4667 8.65582C26.1959 11.4711 22.2994 13.5386 22.2994 13.5386C22.2994 13.5386 23.2195 21.9637 21.9522 24.6176C19.8071 25.0263 15.1697 19.9927 15.1697 19.9927C15.1697 19.9927 7.65193 24.1437 5.48485 21.4991Z" fill="#94A39D"/><path opacity="0.75" d="M14.0275 24.5557C16.8579 23.214 19.6611 19.7555 19.6611 19.7555C19.6611 19.7555 25.7419 17.6071 27.4297 15.3593C23.5648 11.2234 19.6611 9.97014 19.6611 9.97014C19.6611 9.97014 19.5011 4.55573 17.8264 2.5C16.0218 3.83033 13.3067 9.60575 13.3067 9.60575C13.3067 9.60575 7.04505 8.5029 4.88117 9.31508C6.30296 13.4274 10.7171 16.9356 10.7171 16.9356C10.7171 16.9356 12.6058 22.2316 14.0275 24.5557Z" fill="black"/><path d="M14.0051 24.1437C16.7295 22.8522 19.4286 19.4328 19.4286 19.4328C19.4286 19.4328 25.2814 17.4529 26.906 15.291C23.1855 11.3093 19.439 10.2473 19.439 10.2473C19.439 10.2473 19.2754 4.89147 17.6616 2.91241C15.9246 4.19303 13.3111 9.75277 13.3111 9.75277C13.3111 9.75277 7.28348 8.6912 5.19881 9.47305C6.56939 13.4312 10.8183 16.8092 10.8183 16.8092C10.8183 16.8092 12.6362 21.9064 14.0051 24.1437Z" fill="#C8E5DA"/><path opacity="0.75" d="M22.7211 15.3702C22.059 13.0146 18.6121 10.6319 18.6121 10.6319C18.6121 10.6319 15.6001 5.60381 13.2258 5.03933C10.4051 9.56362 11.7997 17.6096 11.7997 17.6096C11.7997 17.6096 19.7507 18.6173 22.7211 15.3702Z" fill="black"/><path d="M22.401 15.195C21.7677 12.9362 18.4585 10.6564 18.4585 10.6564C18.4585 10.6564 15.5713 5.83677 13.2903 5.30009C10.5731 9.64535 11.9009 17.3607 11.9009 17.3607C11.9009 17.3607 19.5431 18.314 22.401 15.195Z" fill="#EFE7E4"/><path opacity="0.75" d="M19.8311 22.0813L19.9887 5.98548C19.989 5.95909 19.9826 5.9331 19.97 5.91025C19.9575 5.88739 19.9393 5.86851 19.9175 5.85558C19.8956 5.84266 19.8709 5.83616 19.8458 5.83678C19.8208 5.8374 19.7963 5.84511 19.7751 5.8591L6.02612 14.9136C5.90708 14.9921 5.81041 15.103 5.74636 15.2347C5.6823 15.3663 5.65325 15.5137 5.66227 15.6614C5.67129 15.809 5.71805 15.9513 5.79759 16.0732C5.87714 16.1951 5.98651 16.2921 6.11413 16.3539L19.0462 22.6061C19.1302 22.6468 19.2225 22.6647 19.3148 22.6581C19.407 22.6515 19.4962 22.6208 19.5743 22.5686C19.6523 22.5164 19.7167 22.4444 19.7616 22.3593C19.8064 22.2742 19.8303 22.1786 19.8311 22.0813V22.0813Z" fill="black"/><path d="M19.5087 21.8125L19.6611 6.26814C19.6613 6.24272 19.655 6.21772 19.6429 6.19573C19.6308 6.17374 19.6133 6.15558 19.5922 6.14314C19.5712 6.1307 19.5474 6.12444 19.5232 6.12501C19.4991 6.12559 19.4755 6.13297 19.455 6.1464L6.17814 14.89C6.06321 14.9657 5.96987 15.0728 5.90802 15.1999C5.84616 15.3269 5.8181 15.4692 5.82679 15.6117C5.83548 15.7542 5.88061 15.8915 5.95739 16.0092C6.03418 16.1269 6.13976 16.2205 6.26295 16.2801L18.7506 22.318C18.8316 22.3572 18.9206 22.3744 19.0096 22.3682C19.0986 22.3619 19.1846 22.3323 19.26 22.282C19.3353 22.2318 19.3975 22.1625 19.441 22.0805C19.4844 21.9985 19.5077 21.9064 19.5087 21.8125V21.8125Z" fill="#F8ECE7"/><path d="M15.2905 18.2209C17.2611 18.2209 18.8586 16.5387 18.8586 14.4637C18.8586 12.3886 17.2611 10.7065 15.2905 10.7065C13.3199 10.7065 11.7225 12.3886 11.7225 14.4637C11.7225 16.5387 13.3199 18.2209 15.2905 18.2209Z" fill="url(#paint0_radial_3_2)"/><defs><radialGradient id="paint0_radial_3_2" cx="0" cy="0" r="1" gradientUnits="userSpaceOnUse" gradientTransform="translate(15.2905 14.4637) scale(3.56806 3.75718)"><stop stop-color="#FF9D18"/><stop offset="0.22" stop-color="#FFA117"/><stop offset="0.44" stop-color="#FFAC14"/><stop offset="0.65" stop-color="#FFC00E"/><stop offset="0.86" stop-color="#FFDB06"/><stop offset="1" stop-color="#FFF100"/></radialGradient></defs></svg>