<svg viewBox="0 0 32 32" xmlns="http://www.w3.org/2000/svg"><path d="m5.504 2.007 3.482-.007v19.746l1.773-1.759v-16.232h1.738v14.485l1.756-1.753v-12.732h1.744v10.974l1.738-1.767v-9.207h1.726v7.47l1.784-1.764v-5.706h1.727v3.968l1.766-1.748.001-2.22h1.744v1.727h1.726v1.785l-2.298.001-1.727 1.725h4.025v1.726h-5.771l-1.74 1.785h7.511v1.726h-9.248l-1.756 1.784h11.004v1.727h-12.754l-1.74 1.755h14.494v1.756h-16.229l-1.738 1.726h19.74l.007 3.511h-21.003v3.511h-3.482v-3.511h-3.493v-3.511h3.493l-.001-20.978z" fill="#317eac"/></svg>