<svg viewBox="0 0 32 32" xmlns="http://www.w3.org/2000/svg"><path d="m16.51 2.383 12.989 4.363-1.347 15.36-11.447 7.465-12.213-7.687-.998-15.073z" fill="#fff"/><path d="m16.708 30-12.568-7.908-1.027-15.542 13.396-4.55 13.379 4.492-1.388 15.82zm-11.866-8.325 11.858 7.466 11.1-7.243 1.312-14.898-12.6-4.232-12.636 4.298z" fill="#515151"/><path d="m16.483 28.04v-15.246l11.712-5.218-1.048 13.784z" fill="#1d79bf"/><path d="m16.483 28.04-10.562-6.543-1.123-13.932 11.685 5.229z" fill="#383838"/><path d="m7.589 11.228.095 2.788 6.536 3.184.021 2.571-6.475-3.19.287 6.492-2.553-1.573-.879-14.1 11.863 5.4v2.7z" fill="#fff"/><path d="m26.9 17.885a6.977 6.977 0 0 1 -2.935 5.8l-7.49 4.888v-15.773l7.4-3.3a1.546 1.546 0 0 1 2.17.544 3.983 3.983 0 0 1 .5 2.137 6.246 6.246 0 0 1 -.793 3.117c.748.352 1.161 1.148 1.148 2.587zm-2.259-4.727c0-.812-.35-1.213-.861-.954l-5.08 2.534-.014 3.012 5.152-2.728a2.23 2.23 0 0 0 .8-1.864zm.376 5.642c0-1-.423-1.442-1.146-1.038l-5.18 2.9v3.427l5.134-3.055a2.5 2.5 0 0 0 1.189-2.234z" fill="#fff"/><path d="m15.263 10.936 8.711-1.481 4.221-1.879-11.712-4.033-11.671 4.017 19.21.416-14.704 1.612 7.165 3.206 3.633-1.619z" fill="#383838"/></svg>