<svg width="32" height="32" fill="none" version="1.1" viewBox="0 0 32 32" xmlns="http://www.w3.org/2000/svg"><path d="m10.052 12.36-5.893-3.4463c-0.12642-0.07356-0.23109-0.17916-0.30335-0.30604-0.07227-0.12691-0.10958-0.27061-0.10816-0.41651 0.00142-0.14591 0.04155-0.28885 0.11628-0.41432 0.07474-0.12547 0.18143-0.22902 0.30927-0.30012l11.388-6.3529c0.146-0.08103 0.3104-0.12356 0.4774-0.12356 0.1671 0 0.3314 0.04253 0.4775 0.12356l11.39 6.3545c0.1276 0.07108 0.234 0.17446 0.3086 0.29968 0.0747 0.12524 0.1148 0.2679 0.1164 0.41354 0.0015 0.14564-0.0355 0.28912-0.1074 0.41593-0.0719 0.12683-0.176 0.23247-0.302 0.30628l-5.8946 3.4463-5.5607-3.2084c-0.1299-0.07495-0.2774-0.11442-0.4275-0.11442s-0.2975 0.03947-0.4274 0.11442l-5.5591 3.2084zm-0.64754 8.5318c-0.19141-0.1101-0.35004-0.2691-0.45969-0.4602-0.10965-0.1913-0.16638-0.4083-0.1644-0.6285v-5.4805l-5.5326-3.2379c-0.12627-0.0728-0.26953-0.1113-0.41542-0.1115-0.14588-2e-4 -0.28925 0.0379-0.4157 0.1104-0.12648 0.0724-0.23159 0.1768-0.3048 0.3026-0.0732 0.1257-0.11193 0.2685-0.11227 0.4139v12.034c1.4e-4 0.1724 0.04631 0.342 0.13377 0.4909s0.21305 0.272 0.36394 0.3566l11.135 6.213c0.1263 0.0705 0.2689 0.1069 0.4137 0.1055 0.1447-0.0014 0.2866-0.0405 0.4115-0.1134 0.1249-0.073 0.2285-0.1773 0.3005-0.3025s0.1099-0.2669 0.11-0.4112v-6.1321l-5.4639-3.1492zm13.808-1.1555c2e-3 0.2202-0.0548 0.4371-0.1645 0.6284-0.1095 0.1911-0.2682 0.3501-0.4596 0.4602l-5.4608 3.1492v6.1321c0 0.1444 0.0379 0.286 0.11 0.4112 0.0719 0.1252 0.1755 0.2296 0.3005 0.3025 0.1249 0.073 0.2668 0.112 0.4116 0.1134s0.2874-0.035 0.4136-0.1055l11.138-6.2129c0.1532-0.0856 0.2803-0.2108 0.3679-0.3625 0.0877-0.1517 0.1324-0.3241 0.1298-0.4991v-12.034c-2e-4 -0.1454-0.0387-0.2883-0.112-0.4141-0.0732-0.1258-0.1784-0.2302-0.3049-0.3026-0.1267-0.0724-0.2701-0.1102-0.4161-0.1097-0.1459 5e-4 -0.2891 0.0393-0.4152 0.1126l-5.5388 3.2379v5.493z" fill="#FF4500"/></svg>
