<svg viewBox="0 0 32 32" xmlns="http://www.w3.org/2000/svg"><g fill="#f75d3c"><path d="m4.365 3.769a6.056 6.056 0 0 1 1.926-.158q5.875.007 11.745 0a3.366 3.366 0 0 1 3.151 2.011 3.3 3.3 0 0 1 -3.151 4.549q-6.325-.007-12.65 0a3.3 3.3 0 0 1 -3.357-2.928 3.227 3.227 0 0 1 2.336-3.474z"/><path d="m25.81 3.746a3.338 3.338 0 0 1 3.975 2.081 3.214 3.214 0 0 1 -2.014 4.12 3.309 3.309 0 0 1 -4.429-2.734 3.227 3.227 0 0 1 2.468-3.467z"/><path d="m12.941 13.033a9.045 9.045 0 0 1 1.93-.111c3.923.009 7.849 0 11.772.007a3.248 3.248 0 1 1 -.014 6.494c-4.3 0-8.6.009-12.9 0a3.2 3.2 0 0 1 -3.172-2.941 3.24 3.24 0 0 1 2.384-3.449z"/><path d="m4.539 21.956a7.361 7.361 0 0 1 1.318-.079c4.142.016 8.282-.007 12.422.011a3.255 3.255 0 0 1 3.176 3.4 3.3 3.3 0 0 1 -3.2 3.093q-6.545.007-13.09 0a3.25 3.25 0 0 1 -.63-6.418z"/><path d="m25.589 22.031a3.363 3.363 0 0 1 4.163 1.937 3.305 3.305 0 1 1 -6.418 1.1 3.18 3.18 0 0 1 2.255-3.037z"/></g><path d="m4.361 13a3.322 3.322 0 1 1 -1.91 4.851 3.338 3.338 0 0 1 1.91-4.851z" fill="#f93748"/></svg>