<svg xmlns="http://www.w3.org/2000/svg" viewBox="0 0 105.1 105.1"><title>file_type_light_rust_toolchain</title><path d="M62.1,50l4.5-4.5a13.1,13.1,0,0,0,10.1-.2,1.245,1.245,0,0,0,.638-1.642A1.217,1.217,0,0,0,77.1,43.3l-8-8a2.416,2.416,0,0,1-.084-3.416c.027-.028.055-.057.084-.084l8-8a1.238,1.238,0,0,0-.4-2A12.944,12.944,0,0,0,59.2,38.1l-4.6,4.6Z"/><path d="M53.5,43.7l-6.2-6.2-7.4,7.4,6.2,6.2,7.4,7.4L76.3,81.3a1.69,1.69,0,0,0,2.39.01l.01-.01,5.1-5.1a1.634,1.634,0,0,0,.091-2.309c-.029-.032-.059-.062-.091-.091L60.9,51.2Z"/><path d="M80.5,27.8l-6.7,6.7a1.391,1.391,0,0,0,0,1.9l5.1,5.1a1.335,1.335,0,0,0,1.889.022A1.164,1.164,0,0,0,80.9,41.4a12.913,12.913,0,0,0,1.7-13.2,1.333,1.333,0,0,0-2.1-.4Z"/><path d="M29.4,59.4l8,8a2.416,2.416,0,0,1,.084,3.416c-.027.028-.055.057-.084.084l-8,8a1.238,1.238,0,0,0,.4,2A12.916,12.916,0,0,0,47.3,64.7l5-5-7.4-7.4L40,57.2a13.349,13.349,0,0,0-10.2.2,1.245,1.245,0,0,0-.638,1.642A1.217,1.217,0,0,0,29.4,59.4Z"/><path d="M25.6,61.3a12.913,12.913,0,0,0-1.7,13.2,1.329,1.329,0,0,0,2.2.4l6.7-6.7a1.391,1.391,0,0,0,0-1.9l-5.1-5.1a1.444,1.444,0,0,0-2.042.036C25.638,61.257,25.619,61.278,25.6,61.3Z"/><path d="M27.3,39h.5l-.5-.5Z"/><path d="M31.9,46l1.5-1.5L27.9,39h-.5a.9.9,0,0,1,.1-.5l-1.1-1.1-1.5,1.5-.9-.8a2.052,2.052,0,0,0-2.9,0l-.4.4a2.052,2.052,0,0,0,0,2.9l8.7,8.7a2.052,2.052,0,0,0,2.9,0l.4-.4a2.052,2.052,0,0,0,0-2.9Z"/><path d="M40.4,23.7l7,7c8.1-5.4,12.6-.9,6.4-7.1C49.5,19.3,44.1,21.3,40.4,23.7Z"/><path d="M46.9,32.6l-.8-.8L39,24.6l-.8-.8a1.933,1.933,0,0,0-2.733-.067c-.023.022-.045.044-.067.067l-8.7,8.7a2.052,2.052,0,0,0,0,2.9l.6.6h0l.1.1.7.7c1.6-2.4,4.7-4.8,2.3-7.1,2.4,2.4-.7,4.8-2.3,7.1l2.1,2.1h0l4.4,4.4.8.8a1.977,1.977,0,0,0,1.4.6h.4a2.013,2.013,0,0,0,.8-.4c.1-.1.2-.1.2-.2l.4-.4L46,36.3l.6-.6.3-.3a1.382,1.382,0,0,0,.3-.4A1.846,1.846,0,0,0,46.9,32.6Z"/><path d="M52.5.3a1.456,1.456,0,0,0-1.3.7L48.5,5.4l-1.3.1L43.7,1.7a1.522,1.522,0,0,0-2.151-.024A1.543,1.543,0,0,0,41.2,2.2L39.4,7l-1.2.4L34,4.4a1.64,1.64,0,0,0-2.4,1l-.8,5.1-1.2.5L24.9,8.9a1.528,1.528,0,0,0-2.1,1.4l.2,5.2-1,.8-5-1.2a1.553,1.553,0,0,0-1.8,1.8l1.2,5-.8,1-5.2-.2a1.542,1.542,0,0,0-1.5,1.579A1.525,1.525,0,0,0,9,24.8l2.1,4.7-.6,1.1-5.1.8a1.618,1.618,0,0,0-1.181,1.96,1.6,1.6,0,0,0,.181.44l3,4.2L7,39.4,2.2,41.2a1.53,1.53,0,0,0-.5,2.5l3.8,3.5-.1,1.3L1,51.2a1.589,1.589,0,0,0-.386,2.214A1.573,1.573,0,0,0,1,53.8l4.4,2.7.1,1.3L1.7,61.3a1.522,1.522,0,0,0-.024,2.151A1.543,1.543,0,0,0,2.2,63.8L7,65.7l.4,1.2-3,4.2a1.618,1.618,0,0,0,.56,2.219,1.6,1.6,0,0,0,.44.181l5.1.8.6,1.1L9,80.1a1.528,1.528,0,0,0,1.4,2.1l5.2-.2.8,1-1.2,5A1.553,1.553,0,0,0,17,89.8l5-1.2,1,.8-.2,5.2a1.542,1.542,0,0,0,1.579,1.5A1.525,1.525,0,0,0,24.9,96l4.7-2.1,1.1.6.8,5.1a1.618,1.618,0,0,0,1.96,1.181,1.6,1.6,0,0,0,.44-.181l4.2-3,1.2.4,1.8,4.8a1.53,1.53,0,0,0,2.5.5l3.5-3.8,1.3.1,2.7,4.4a1.589,1.589,0,0,0,2.214.386A1.573,1.573,0,0,0,53.7,104l2.7-4.4,1.3-.1,3.5,3.8a1.522,1.522,0,0,0,2.151.024,1.543,1.543,0,0,0,.349-.524L65.5,98l1.2-.4,4.2,3a1.64,1.64,0,0,0,2.4-1l.8-5.1,1.1-.6L79.9,96A1.528,1.528,0,0,0,82,94.6l-.2-5.2,1-.8,5,1.2A1.553,1.553,0,0,0,89.6,88l-1.2-5,.8-1,5.2.2a1.542,1.542,0,0,0,1.5-1.579,1.525,1.525,0,0,0-.1-.521L94,75.4l.6-1.1,5.1-.8a1.618,1.618,0,0,0,1.181-1.96,1.6,1.6,0,0,0-.181-.44l-3-4.2.4-1.2,4.8-1.8a1.53,1.53,0,0,0,.5-2.5l-3.8-3.5.1-1.3,4.4-2.7a1.589,1.589,0,0,0,.386-2.214,1.573,1.573,0,0,0-.386-.386l-4.4-2.7-.1-1.3,3.8-3.5a1.522,1.522,0,0,0,.024-2.151,1.543,1.543,0,0,0-.524-.349l-4.8-1.8-.4-1.2,3-4.2a1.64,1.64,0,0,0-1-2.4l-5.1-.8L94,29.6l2.1-4.7a1.528,1.528,0,0,0-1.4-2.1l-5.1.2-.8-1L90,17a1.553,1.553,0,0,0-1.8-1.8l-5,1.2-1-.8.2-5.2a1.542,1.542,0,0,0-1.579-1.5A1.525,1.525,0,0,0,80.3,9l-4.8,2-1.1-.6-.8-5.1a1.618,1.618,0,0,0-1.96-1.181,1.6,1.6,0,0,0-.44.181L67,7.3,65.7,7,63.9,2.2a1.53,1.53,0,0,0-2.5-.5L57.9,5.5l-1.3-.1L53.9,1A1.514,1.514,0,0,0,52.5.3Zm0,9.2h0a3.032,3.032,0,0,1,3,3.061V12.6c0,4.1-6.2,4.1-6.2,0a3.019,3.019,0,0,1,2.931-3.1C52.321,9.493,52.411,9.495,52.5,9.5Zm7.1,5.1A38.489,38.489,0,0,1,85.8,33.3l-3.7,8.3a2.826,2.826,0,0,0,1.4,3.7l7.1,3.1c.2,2.2,0,6.6,0,6.6a38.731,38.731,0,0,1-7.4,19.9A51.648,51.648,0,0,1,79.8,79l-6.6-1.4a2.9,2.9,0,0,0-3.4,2.2l-1.6,7.3a38.214,38.214,0,0,1-31.9-.2l-1.6-7.3a2.879,2.879,0,0,0-3.4-2.2l-6.4,1.4c-1.2-1.2-3.3-3.9-3.3-3.9a37.545,37.545,0,0,1-6-12.2s-.4-1.5-.6-2.2c-.1-.3-.1-.6-.2-.9a23.285,23.285,0,0,1-.4-2.6c-.1-.4-.1-.8-.2-1.3-.1-.7-.2-3.1-.2-3.5V50.9c0-.5.1-1,.1-1.5,0-.4.1-.9.1-1.3l6.7-3a2.823,2.823,0,0,0,1.434-3.726c-.011-.025-.022-.049-.034-.074l-3.4-7.7a37.432,37.432,0,0,1,4.9-6.9s.9-1,1.2-1.3c.6-.6,1.2-1.2,1.9-1.8l.2-.2h0a38.076,38.076,0,0,1,18-8.8l4.8,5a2.839,2.839,0,0,0,4,.1Zm-44.2,23h0a3.021,3.021,0,0,1,1.6.5h0a3.106,3.106,0,0,1-1.8,5.7h0a3.1,3.1,0,0,1-3-3.1,3.137,3.137,0,0,1,3.175-3.1Zm74.1.1h0a3.032,3.032,0,0,1,3,3.061V40.8c0,4.1-6.2,4.1-6.2,0A3.2,3.2,0,0,1,89.5,37.7ZM29.4,81.4h0a3.032,3.032,0,0,1,3,3.061V84.5c0,4.1-6.2,4.1-6.2,0A3.2,3.2,0,0,1,29.4,81.4Zm46.1.1h0a3.032,3.032,0,0,1,3,3.061V84.6c0,4.1-6.2,4.1-6.2,0a3.137,3.137,0,0,1,3.175-3.1Z"/></svg>