<svg xmlns="http://www.w3.org/2000/svg" viewBox="0 0 32 32"><path d="M13.496 6.965h7.923l3.997 6.887h4.564C28.941 7.14 23.11 2 16.073 2c-1.78 0-3.481.332-5.049.932l2.472 4.033" fill="#006533"/><path d="M25.628 18l-4.209 7.252H10.806L5.5 16.108l4.239-7.305-2.342-3.822C4.113 7.544 2 11.525 2 16c0 7.732 6.301 14 14.073 14C23.162 30 29.024 24.784 30 18h-4.372" fill="#82b816"/><path d="M21.061 15.963c0 2.761-2.25 5-5.026 5-2.775 0-5.026-2.239-5.026-5 0-2.762 2.251-5 5.026-5 2.776 0 5.026 2.238 5.026 5" fill="#006532"/></svg>