<svg version="1.1" id="Layer_1" xmlns="http://www.w3.org/2000/svg" xmlns:xlink="http://www.w3.org/1999/xlink" x="0px" y="0px"
	 width="100%" viewBox="0 0 128 128" enable-background="new 0 0 128 128" xml:space="preserve">
<path fill="#766F00" opacity="1.000000" stroke="none" 
	d="
M129.000000,75.000000 
	C129.000000,92.956390 129.000000,110.912781 129.000000,129.000000 
	C86.979187,129.000000 44.958252,129.000000 2.304173,128.831177 
	C1.445344,128.443619 1.221668,128.222839 1.000000,128.000000 
	C1.000000,125.629440 1.000000,123.258888 1.127370,120.052353 
	C1.502128,116.909988 1.961630,114.603920 1.964998,112.297180 
	C2.013392,79.157166 2.022985,46.017017 1.958734,12.877064 
	C1.953642,10.250766 1.334026,7.625660 1.000000,5.000000 
	C1.000000,4.250000 1.000000,3.500000 1.166998,2.208628 
	C1.561289,1.450118 1.783290,1.227700 2.000000,1.000000 
	C44.239124,1.000000 86.478249,1.000000 129.000000,1.000000 
	C129.000000,24.020123 129.000000,47.041405 128.715302,70.324020 
	C126.612328,68.103554 125.217400,65.059723 122.864632,63.287529 
	C120.152664,61.244789 116.423637,60.606487 113.470001,58.809711 
	C111.747650,57.761963 110.678398,55.640591 109.315308,54.002266 
	C111.348244,53.002422 113.312691,51.791313 115.445610,51.099934 
	C116.384605,50.795555 117.850410,51.267967 118.761810,51.867168 
	C123.940628,55.272030 125.641487,51.859154 127.271255,47.967018 
	C122.249985,43.375153 116.158936,41.786972 109.554138,43.223515 
	C103.877426,44.458195 99.833557,48.331219 99.050476,53.283409 
	C98.209236,58.603397 100.475746,62.496933 106.409203,65.531883 
	C109.365074,67.043808 112.618774,68.035110 115.403740,69.791519 
	C116.653198,70.579521 117.932655,72.860870 117.647530,74.110756 
	C117.358444,75.377991 115.197296,76.985832 113.782745,77.060783 
	C111.234085,77.195854 108.461098,76.715538 106.084076,75.748947 
	C100.430428,73.449966 99.713219,73.658875 97.567719,79.966064 
	C107.807816,89.207878 121.529839,87.039902 129.000000,75.000000 
M39.859261,69.616539 
	C39.848392,55.983852 39.814713,42.351120 39.845177,28.718525 
	C39.851562,25.860254 39.880219,23.456926 35.807812,23.556467 
	C31.912878,23.651667 32.213310,26.099506 32.213669,28.637672 
	C32.215481,41.439144 32.224030,54.240654 32.192024,67.042053 
	C32.187748,68.752129 31.966278,70.461655 31.790709,72.944771 
	C28.294950,70.127960 25.559813,67.924049 21.408838,64.579277 
	C20.952057,68.368477 19.559895,71.600639 20.583536,72.844154 
	C25.389339,78.682236 30.859121,83.973755 36.122169,89.492210 
	C40.591801,84.658905 44.959785,79.702286 49.587894,75.001785 
	C53.567001,70.960434 53.646442,70.153961 48.692131,65.900787 
	C46.787540,67.600243 44.928326,69.482002 42.807816,70.998375 
	C42.261448,71.389084 40.893322,70.630630 39.859261,69.616539 
M78.097305,83.294258 
	C78.036003,87.834671 78.535179,92.533623 71.772987,93.049080 
	C70.727562,93.128769 69.394524,96.331375 69.238121,98.178154 
	C69.163414,99.060341 71.429703,100.822350 72.813751,101.036880 
	C82.437202,102.528549 88.580666,97.257057 88.861252,86.814774 
	C89.200623,74.184624 88.846298,61.536976 89.082199,48.902313 
	C89.165787,44.425797 87.038208,43.796761 83.285500,43.765266 
	C79.450623,43.733089 77.974762,44.946159 78.043190,48.911270 
	C78.235420,60.050156 78.103905,71.194633 78.097305,83.294258 
M78.602913,35.006676 
	C81.627914,37.762806 85.216019,38.236977 87.844475,35.266735 
	C89.141045,33.801575 89.509232,29.346174 88.435425,28.432684 
	C86.570992,26.846596 82.968384,25.932774 80.625214,26.600092 
	C77.066536,27.613583 76.557610,30.997389 78.602913,35.006676 
z"/>
<path fill="#060600" opacity="1.000000" stroke="none" 
	d="
M129.000000,74.600006 
	C121.529839,87.039902 107.807816,89.207878 97.567719,79.966064 
	C99.713219,73.658875 100.430428,73.449966 106.084076,75.748947 
	C108.461098,76.715538 111.234085,77.195854 113.782745,77.060783 
	C115.197296,76.985832 117.358444,75.377991 117.647530,74.110756 
	C117.932655,72.860870 116.653198,70.579521 115.403740,69.791519 
	C112.618774,68.035110 109.365074,67.043808 106.409203,65.531883 
	C100.475746,62.496933 98.209236,58.603397 99.050476,53.283409 
	C99.833557,48.331219 103.877426,44.458195 109.554138,43.223515 
	C116.158936,41.786972 122.249985,43.375153 127.271255,47.967018 
	C125.641487,51.859154 123.940628,55.272030 118.761810,51.867168 
	C117.850410,51.267967 116.384605,50.795555 115.445610,51.099934 
	C113.312691,51.791313 111.348244,53.002422 109.315308,54.002266 
	C110.678398,55.640591 111.747650,57.761963 113.470001,58.809711 
	C116.423637,60.606487 120.152664,61.244789 122.864632,63.287529 
	C125.217400,65.059723 126.612328,68.103554 128.715302,70.792679 
	C129.000000,72.066673 129.000000,73.133339 129.000000,74.600006 
z"/>
<path fill="#7D760A" opacity="1.000000" stroke="none" 
	d="
M1.000000,5.468657 
	C1.334026,7.625660 1.953642,10.250766 1.958734,12.877064 
	C2.022985,46.017017 2.013392,79.157166 1.964998,112.297180 
	C1.961630,114.603920 1.502128,116.909988 1.127370,119.608185 
	C1.000000,81.979103 1.000000,43.958210 1.000000,5.468657 
z"/>
<path fill="#7D760A" opacity="1.000000" stroke="none" 
	d="
M1.500000,1.000000 
	C1.783290,1.227700 1.561289,1.450118 1.166998,1.833628 
	C1.000000,1.666667 1.000000,1.333333 1.500000,1.000000 
z"/>
<path fill="#7D760A" opacity="1.000000" stroke="none" 
	d="
M1.000000,128.500000 
	C1.221668,128.222839 1.445344,128.443619 1.835515,128.831177 
	C1.666667,129.000000 1.333333,129.000000 1.000000,128.500000 
z"/>
<path fill="#090800" opacity="1.000000" stroke="none" 
	d="
M39.880974,70.008301 
	C40.893322,70.630630 42.261448,71.389084 42.807816,70.998375 
	C44.928326,69.482002 46.787540,67.600243 48.692131,65.900787 
	C53.646442,70.153961 53.567001,70.960434 49.587894,75.001785 
	C44.959785,79.702286 40.591801,84.658905 36.122169,89.492210 
	C30.859121,83.973755 25.389339,78.682236 20.583536,72.844154 
	C19.559895,71.600639 20.952057,68.368477 21.408838,64.579277 
	C25.559813,67.924049 28.294950,70.127960 31.790709,72.944771 
	C31.966278,70.461655 32.187748,68.752129 32.192024,67.042053 
	C32.224030,54.240654 32.215481,41.439144 32.213669,28.637672 
	C32.213310,26.099506 31.912878,23.651667 35.807812,23.556467 
	C39.880219,23.456926 39.851562,25.860254 39.845177,28.718525 
	C39.814713,42.351120 39.848392,55.983852 39.880974,70.008301 
z"/>
<path fill="#070600" opacity="1.000000" stroke="none" 
	d="
M78.098694,82.815582 
	C78.103905,71.194633 78.235420,60.050156 78.043190,48.911270 
	C77.974762,44.946159 79.450623,43.733089 83.285500,43.765266 
	C87.038208,43.796761 89.165787,44.425797 89.082199,48.902313 
	C88.846298,61.536976 89.200623,74.184624 88.861252,86.814774 
	C88.580666,97.257057 82.437202,102.528549 72.813751,101.036880 
	C71.429703,100.822350 69.163414,99.060341 69.238121,98.178154 
	C69.394524,96.331375 70.727562,93.128769 71.772987,93.049080 
	C78.535179,92.533623 78.036003,87.834671 78.098694,82.815582 
z"/>
<path fill="#080800" opacity="1.000000" stroke="none" 
	d="
M78.376236,34.699516 
	C76.557610,30.997389 77.066536,27.613583 80.625214,26.600092 
	C82.968384,25.932774 86.570992,26.846596 88.435425,28.432684 
	C89.509232,29.346174 89.141045,33.801575 87.844475,35.266735 
	C85.216019,38.236977 81.627914,37.762806 78.376236,34.699516 
z"/>
</svg>