<svg xmlns="http://www.w3.org/2000/svg" xmlns:xlink="http://www.w3.org/1999/xlink" viewBox="0 0 236 236"><g transform="translate(0.000000,236.000000) scale(0.100000,-0.100000)" fill="#516CB3" stroke="none"><path d="M536 2165 c-79 -20 -155 -65 -234 -139 -273 -255 -369 -635 -242 -956 22 -56 99 -180 111 -180 4 0 13 16 19 36 16 49 66 103 115 125 70 32 150 22 228 -29 40 -26 43 -37 26 -76 l-11 -24 -51 36 c-123 88 -252 17 -251 -138 1 -68 32 -163 83 -253 l38 -68 -30 -74 c-28 -67 -29 -76 -17 -105 16 -38 67 -64 105 -54 14 3 36 20 49 37 l24 30 43 -35 c143 -116 324 -139 463 -58 57 33 153 127 214 210 110 152 242 419 322 650 43 125 48 135 73 138 41 5 44 -21 14 -105 -14 -40 -21 -73 -16 -73 6 0 37 26 68 58 85 84 92 114 91 354 -1 106 -1 198 -1 204 1 18 30 25 52 14 18 -10 19 -24 19 -225 0 -194 -2 -219 -21 -267 -24 -62 -78 -130 -130 -167 -44 -30 -47 -50 -17 -100 90 -151 238 -201 386 -131 119 56 214 184 263 355 32 111 33 303 1 421 -46 171 -133 315 -265 440 -169 161 -313 196 -475 118 l-53 -26 41 -29 c30 -22 40 -36 38 -52 -5 -33 -39 -32 -91 3 -63 42 -158 76 -255 90 -140 21 -291 -12 -412 -90 -52 -33 -72 -37 -89 -16 -16 19 -1 47 33 66 14 7 26 17 26 21 0 16 -126 69 -175 73 -28 3 -76 -1 -109 -9z m468 -424 c65 -28 125 -88 158 -156 39 -82 40 -197 3 -271 -73 -147 -236 -217 -391 -168 -80 25 -172 114 -200 194 -60 177 38 367 216 417 58 17 158 9 214 -16z m-127 -796 c2 0 -13 -46 -33 -101 -19 -54 -43 -123 -53 -152 l-18 -52 46 -37 c75 -59 81 -71 55 -97 -21 -22 -24 -20 -258 166 -170 136 -201 164 -201 187 0 42 36 39 87 -6 71 -64 145 -123 154 -123 8 0 27 41 89 192 l15 37 57 -6 c32 -3 59 -7 60 -8z" /><path d="M817 1606 c-70 -26 -107 -80 -107 -156 0 -81 56 -148 137 -165 106 -22 211 88 189 197 -20 98 -126 158 -219 124z" /></g></svg>