<svg xmlns="http://www.w3.org/2000/svg" viewBox="0 0 32 32"><title>file_type_jsp</title><path d="M11.406,7.889a5.973,5.973,0,0,1,6.159.119c-.235.737-.472,1.476-.727,2.208-.628-.928-1.425-2-2.692-1.89a1.963,1.963,0,0,0-2,2.732c1.138,1.7,3.449,1.875,4.837,3.3a4.289,4.289,0,0,1-.684,6.512,7.138,7.138,0,0,1-6.835.207,12.189,12.189,0,0,1,.8-2.785,5.551,5.551,0,0,0,1.226,1.791,3.28,3.28,0,0,0,2.823.366,2.08,2.08,0,0,0,.727-3.386c-1.254-1.2-3.118-1.481-4.342-2.725A4.262,4.262,0,0,1,11.406,7.889Z" style="fill:#e56f14"/><path d="M3.584,7.379a19.669,19.669,0,0,0,3.361,0c-.237,4.027-.161,8.061-.119,12.093a5.362,5.362,0,0,1-1.176,3.858A6.349,6.349,0,0,1,2.3,24.911L2,23.98c.54-.371,1.249-.676,1.415-1.38a19.088,19.088,0,0,0,.31-3.373A113.17,113.17,0,0,0,3.584,7.379Z" style="fill:#e56f14"/><path d="M20.451,7.382c2.478.328,5.048-.474,7.46.341,2.77,1.087,2.7,5.447.288,6.88a8.469,8.469,0,0,1-4.554.843c0,2.021.035,4.044.156,6.063-1.115-.018-2.23-.02-3.343,0a115.781,115.781,0,0,0-.008-14.129M23.693,8.5c-.033,1.975-.053,3.951-.038,5.924.966-.126,2.119-.278,2.644-1.221a4.081,4.081,0,0,0-.03-3.825C25.736,8.484,24.593,8.54,23.693,8.5Z" style="fill:#e56f14"/></svg>