<svg viewBox="0 0 105.1 105.1" xmlns="http://www.w3.org/2000/svg" xmlns:xlink="http://www.w3.org/1999/xlink"><radialGradient id="a" cx="66.024" cy="35.312" gradientUnits="userSpaceOnUse" r="13.158"><stop offset="0" stop-color="#7d7d7d"/><stop offset=".267" stop-color="#7e7c7a"/><stop offset=".45" stop-color="#817871"/><stop offset=".608" stop-color="#867162"/><stop offset=".753" stop-color="#8d684c"/><stop offset=".886" stop-color="#965c30"/><stop offset="1" stop-color="#a04f12"/></radialGradient><radialGradient id="b" cx="62.112" cy="59.65" r="22.181" xlink:href="#a"/><radialGradient id="c" cx="78.557" cy="34.677" r="6.267" xlink:href="#a"/><radialGradient id="d" cx="40.676" cy="67.188" r="13.356" xlink:href="#a"/><radialGradient id="e" cx="27.993" cy="68.059" r="6.308" xlink:href="#a"/><radialGradient id="f" cx="27.55" cy="38.75" r=".25" xlink:href="#a"/><radialGradient id="g" cx="26.75" cy="44.05" r="6.65" xlink:href="#a"/><radialGradient id="h" cx="48.549" cy="25.889" r="6.691" xlink:href="#a"/><radialGradient id="i" cx="36.806" cy="33.95" r="10.728" xlink:href="#a"/><radialGradient id="j" cx="52.55" cy="52.488" r="52.206" xlink:href="#a"/><path d="m62.1 50 4.5-4.5a13.1 13.1 0 0 0 10.1-.2 1.246 1.246 0 0 0 .4-2l-8-8a2.416 2.416 0 0 1 0-3.5l8-8a1.237 1.237 0 0 0 -.4-2 12.944 12.944 0 0 0 -17.5 16.3l-4.6 4.6z" fill="url(#a)"/><path d="m53.5 43.7-6.2-6.2-7.4 7.4 6.2 6.2 7.4 7.4 22.8 22.8a1.69 1.69 0 0 0 2.4 0l5.1-5.1a1.634 1.634 0 0 0 0-2.4l-22.9-22.6z" fill="url(#b)"/><path d="m80.5 27.8-6.7 6.7a1.391 1.391 0 0 0 0 1.9l5.1 5.1a1.336 1.336 0 0 0 2-.1 12.914 12.914 0 0 0 1.7-13.2 1.333 1.333 0 0 0 -2.1-.4z" fill="url(#c)"/><path d="m29.4 59.4 8 8a2.416 2.416 0 0 1 0 3.5l-8 8a1.237 1.237 0 0 0 .4 2 12.916 12.916 0 0 0 17.5-16.2l5-5-7.4-7.4-4.9 4.9a13.349 13.349 0 0 0 -10.2.2 1.246 1.246 0 0 0 -.4 2z" fill="url(#d)"/><path d="m25.6 61.3a12.914 12.914 0 0 0 -1.7 13.2 1.329 1.329 0 0 0 2.2.4l6.7-6.7a1.391 1.391 0 0 0 0-1.9l-5.1-5.1a1.444 1.444 0 0 0 -2.1.1z" fill="url(#e)"/><path d="m27.3 39h.5l-.5-.5z" fill="url(#f)"/><path d="m31.9 46 1.5-1.5-5.5-5.5h-.5a.9.9 0 0 1 .1-.5l-1.1-1.1-1.5 1.5-.9-.8a2.052 2.052 0 0 0 -2.9 0l-.4.4a2.052 2.052 0 0 0 0 2.9l8.7 8.7a2.052 2.052 0 0 0 2.9 0l.4-.4a2.052 2.052 0 0 0 0-2.9z" fill="url(#g)"/><path d="m40.4 23.7 7 7c8.1-5.4 12.6-.9 6.4-7.1-4.3-4.3-9.7-2.3-13.4.1z" fill="url(#h)"/><path d="m46.9 32.6-.8-.8-7.1-7.2-.8-.8a1.933 1.933 0 0 0 -2.8 0l-8.7 8.7a2.052 2.052 0 0 0 0 2.9l.6.6.1.1.7.7c1.6-2.4 4.7-4.8 2.3-7.1 2.4 2.4-.7 4.8-2.3 7.1l2.1 2.1 4.4 4.4.8.8a1.974 1.974 0 0 0 1.4.6h.4a2.01 2.01 0 0 0 .8-.4c.1-.1.2-.1.2-.2l.4-.4 7.4-7.4.6-.6.3-.3a1.38 1.38 0 0 0 .3-.4 1.846 1.846 0 0 0 -.3-2.4z" fill="url(#i)"/><path d="m52.5.3a1.457 1.457 0 0 0 -1.3.7l-2.7 4.4-1.3.1-3.5-3.8a1.521 1.521 0 0 0 -2.5.5l-1.8 4.8-1.2.4-4.2-3a1.639 1.639 0 0 0 -2.4 1l-.8 5.1-1.2.5-4.7-2.1a1.528 1.528 0 0 0 -2.1 1.4l.2 5.2-1 .8-5-1.2a1.553 1.553 0 0 0 -1.8 1.8l1.2 5-.8 1-5.2-.2a1.542 1.542 0 0 0 -1.4 2.1l2.1 4.7-.6 1.1-5.1.8a1.618 1.618 0 0 0 -1 2.4l3 4.2-.4 1.4-4.8 1.8a1.53 1.53 0 0 0 -.5 2.5l3.8 3.5-.1 1.3-4.4 2.7a1.589 1.589 0 0 0 0 2.6l4.4 2.7.1 1.3-3.8 3.5a1.521 1.521 0 0 0 .5 2.5l4.8 1.9.4 1.2-3 4.2a1.618 1.618 0 0 0 1 2.4l5.1.8.6 1.1-2.1 4.7a1.528 1.528 0 0 0 1.4 2.1l5.2-.2.8 1-1.2 5a1.553 1.553 0 0 0 1.8 1.8l5-1.2 1 .8-.2 5.2a1.542 1.542 0 0 0 2.1 1.4l4.7-2.1 1.1.6.8 5.1a1.618 1.618 0 0 0 2.4 1l4.2-3 1.2.4 1.8 4.8a1.53 1.53 0 0 0 2.5.5l3.5-3.8 1.3.1 2.7 4.4a1.589 1.589 0 0 0 2.6 0l2.7-4.4 1.3-.1 3.5 3.8a1.521 1.521 0 0 0 2.5-.5l1.8-4.8 1.2-.4 4.2 3a1.639 1.639 0 0 0 2.4-1l.8-5.1 1.1-.6 4.7 2.1a1.528 1.528 0 0 0 2.1-1.4l-.2-5.2 1-.8 5 1.2a1.553 1.553 0 0 0 1.8-1.8l-1.2-5 .8-1 5.2.2a1.542 1.542 0 0 0 1.4-2.1l-1.8-4.7.6-1.1 5.1-.8a1.618 1.618 0 0 0 1-2.4l-3-4.2.4-1.2 4.8-1.8a1.53 1.53 0 0 0 .5-2.5l-3.8-3.5.1-1.3 4.4-2.7a1.589 1.589 0 0 0 0-2.6l-4.4-2.7-.1-1.3 3.8-3.5a1.521 1.521 0 0 0 -.5-2.5l-4.8-1.8-.4-1.2 3-4.2a1.639 1.639 0 0 0 -1-2.4l-5.1-.8-.6-1.3 2.1-4.7a1.528 1.528 0 0 0 -1.4-2.1l-5.1.2-.8-1 1.2-5a1.553 1.553 0 0 0 -1.8-1.8l-5 1.2-1-.8.2-5.2a1.542 1.542 0 0 0 -2.1-1.4l-4.8 2-1.1-.6-.8-5.1a1.618 1.618 0 0 0 -2.4-1l-4.2 3-1.3-.3-1.8-4.8a1.53 1.53 0 0 0 -2.5-.5l-3.5 3.8-1.3-.1-2.7-4.4a1.513 1.513 0 0 0 -1.4-.7zm0 9.2a3.031 3.031 0 0 1 3 3.1c0 4.1-6.2 4.1-6.2 0a3.019 3.019 0 0 1 3.2-3.1zm7.1 5.1a38.488 38.488 0 0 1 26.2 18.7l-3.7 8.3a2.826 2.826 0 0 0 1.4 3.7l7.1 3.1c.2 2.2 0 6.6 0 6.6a38.724 38.724 0 0 1 -7.4 19.9 51.709 51.709 0 0 1 -3.4 4.1l-6.6-1.4a2.9 2.9 0 0 0 -3.4 2.2l-1.6 7.3a38.217 38.217 0 0 1 -31.9-.2l-1.6-7.3a2.88 2.88 0 0 0 -3.4-2.2l-6.4 1.4c-1.2-1.2-3.3-3.9-3.3-3.9a37.54 37.54 0 0 1 -6-12.2s-.4-1.5-.6-2.2c-.1-.3-.1-.6-.2-.9a23.356 23.356 0 0 1 -.4-2.6c-.1-.4-.1-.8-.2-1.3-.1-.7-.2-3.1-.2-3.5v-1.3c0-.5.1-1 .1-1.5 0-.4.1-.9.1-1.3l6.7-3a2.823 2.823 0 0 0 1.4-3.8l-3.4-7.7a37.465 37.465 0 0 1 4.9-6.9s.9-1 1.2-1.3c.6-.6 1.2-1.2 1.9-1.8l.2-.2a38.074 38.074 0 0 1 18-8.8l4.8 5a2.839 2.839 0 0 0 4 .1zm-44.2 23a3.022 3.022 0 0 1 1.6.5 3.106 3.106 0 0 1 -1.8 5.7 3.1 3.1 0 0 1 -3-3.1 3.138 3.138 0 0 1 3.2-3.1zm74.1.1a3.031 3.031 0 0 1 3 3.1c0 4.1-6.2 4.1-6.2 0a3.2 3.2 0 0 1 3.2-3.1zm-60.1 43.7a3.031 3.031 0 0 1 3 3.1c0 4.1-6.2 4.1-6.2 0a3.2 3.2 0 0 1 3.2-3.1zm46.1.1a3.031 3.031 0 0 1 3 3.1c0 4.1-6.2 4.1-6.2 0a3.138 3.138 0 0 1 3.2-3.1z" fill="url(#j)"/></svg>