<svg xmlns="http://www.w3.org/2000/svg" viewBox="0 0 32 32" role="img" aria-labelledby="css-logo-title css-logo-description">
  <title id="css-logo-title">CSS Logo</title>
  <desc id="css-logo-description">A purple square with rounded corners and the letters CSS inside in white</desc>
  <path fill="#639" d="M.023-.028h26.88a5.12 5.12 0 0 1 5.12 5.12v21.76a5.12 5.12 0 0 1-5.12 5.12H5.143a5.12 5.12 0 0 1-5.12-5.12Z"/>
  <path fill="#fff" d="M8.12 26.116V20.74c0-2.144 1.375-3.296 3.455-3.296 2.048-.032 3.328 1.312 3.264 3.584h-2.368c.064-.864-.32-1.504-.96-1.472-.8 0-1.024.544-1.024 1.568v4.672c0 .992.32 1.472 1.024 1.504.736 0 1.024-.736.96-1.568h2.368c.128 2.336-1.344 3.712-3.424 3.68-2.016 0-3.296-1.12-3.296-3.296zm7.583-.384h2.208c.032 1.024.352 1.664 1.056 1.664.704 0 .96-.416.96-1.376 0-.8-.352-1.248-1.216-1.664l-.832-.384c-1.472-.704-2.08-1.568-2.08-3.296 0-1.92 1.216-3.264 3.2-3.264 1.984 0 3.04 1.376 3.072 3.616h-2.144c0-.928-.192-1.568-.896-1.568-.64 0-.96.32-.96 1.12s.288 1.12 1.056 1.44l.768.352c1.632.768 2.336 1.76 2.336 3.616 0 2.208-1.248 3.424-3.296 3.424s-3.2-1.408-3.232-3.68zm7.232 0h2.24c0 1.024.352 1.664 1.024 1.664s.96-.416.96-1.376c0-.8-.32-1.248-1.216-1.664l-.832-.384c-1.472-.704-2.048-1.568-2.048-3.296 0-1.92 1.184-3.264 3.2-3.264s3.008 1.376 3.072 3.616h-2.144c-.032-.928-.224-1.568-.928-1.568-.64 0-.928.32-.928 1.12s.256 1.12 1.024 1.44l.8.352c1.6.768 2.304 1.76 2.304 3.616 0 2.208-1.248 3.424-3.296 3.424s-3.2-1.408-3.232-3.68z"/>
</svg>
