<svg xmlns="http://www.w3.org/2000/svg" viewBox="0 0 32 32"><title>file_type_fantasticon</title><path d="M30,3.27A1.27,1.27,0,0,0,28.73,2H3.27A1.27,1.27,0,0,0,2,3.27H2V28.73H2A1.27,1.27,0,0,0,3.27,30H28.73A1.27,1.27,0,0,0,30,28.73h0V3.27Z"/><circle cx="15.92" cy="8.75" r="1.87" style="fill:#21ffc9"/><circle cx="8.38" cy="16" r="1.87" style="fill:#fff"/><circle cx="15.92" cy="23.3" r="1.87" style="fill:#f37"/><rect x="6.51" y="6.87" width="3.75" height="3.75" style="fill:#f37"/><rect x="21.59" y="14.15" width="3.75" height="3.75" style="fill:#21ffc9"/><rect x="21.59" y="21.42" width="3.75" height="3.75" style="fill:#fff"/><path d="M13.8,17.86l2.13-3.75,2.14,3.75Z" style="fill:#fff"/><path d="M21.34,10.62l2.13-3.75,2.13,3.75Z" style="fill:#f37"/><path d="M6.25,25.17l2.13-3.75,2.14,3.75Z" style="fill:#21ffc9"/></svg>