<svg version="1.1" id="Layer_1" xmlns="http://www.w3.org/2000/svg" x="0" y="0" viewBox="0 0 1000 1000" style="enable-background:new 0 0 1000 1000" xml:space="preserve"><style>.st3{fill:#d2d2d2}</style><path d="M188.36 281.28c-51.78-13.02-94.02-38.55-121.23-87.56 46.12-13.74 89-6.19 131.83 14.73-15.23-32.18-17.91-64.2-7.13-98.1 39.14 16.12 63.93 44.44 75.8 85.06C369.86 119.34 482.3 94.5 605.09 128.1c89.88 24.6 161.26 77.38 213.66 155.45 105.08 156.55 82.11 369.06-53.22 497.88-137.87 131.24-347.13 141.68-495.61 25.54-157.26-122.99-198.07-354.89-81.56-525.69zm17.38 155.01c-2.52 6.01-5.14 10.74-6.53 15.81-12.84 46.97 11.46 93.16 69.99 121.51 121.18 58.7 249.3 55.75 377.65 34.95 62.94-10.2 122.96-31.52 160.77-89.89 16.76-25.88 14.85-53.15 1.1-81.71-201.14 33.95-401.52 30.45-602.98-.67z" style="fill:#00b7c3"/><path class="st3" d="M698.68 478.48c5.61 27.34.04 50.38-18.3 69.22-20.92 21.49-46.45 27.68-74.72 18.27-23.08-7.69-38.13-24.12-46.03-48.62 51.53 5.76 97.26-7.11 139.05-38.87zM441.63 517.34c-8.04 24.75-23.26 41.25-46.65 48.83-28.35 9.18-53.82 2.72-74.57-18.92-18.03-18.8-23.35-41.72-17.94-68.75 41.65 31.59 87.48 44.68 139.16 38.84z"/></svg>