<svg xmlns="http://www.w3.org/2000/svg" viewBox="0 0 32 32"><title>file_type_browserslist</title><circle cx="16" cy="16" r="14" style="fill:#ffd539"/><path d="M21.247,7.264q.093-.026.185-.045l.182.223q-.02.078-.037.157a2.458,2.458,0,0,0-.432.12Q21.186,7.493,21.247,7.264Zm-3.938,4.221c-1.26,2-1.955,4.067-1.751,5.183a17.109,17.109,0,0,0,6.554-.142A13.775,13.775,0,0,0,26.06,15a2.466,2.466,0,0,0,.56-.44A8.435,8.435,0,0,1,22.8,12.442a5.117,5.117,0,0,1-1.651-4.724A9.283,9.283,0,0,0,17.309,11.485Zm4.378-4.3c-1.294,4.238,3.292,6.695,5.105,7.009.727.126.09.795-.531,1.159a16.1,16.1,0,0,1-11.026,1.67C14.383,14.51,18.565,7.481,21.688,7.18Z"/><path d="M20.382,12.652A.8.8,0,1,0,21,12.038a.5.5,0,1,1-.614.615Zm5.782,2.368a1.2,1.2,0,1,0-1.2-1.2C25.776,14.407,26.949,14.288,26.165,15.02Z"/><path d="M15.283,27.935c.276-3.157-.747-4.589-2.56-7.451s-1.04-8.122,3.885-7.691C24.581,13.491,21.419,25.291,15.283,27.935Z"/><path d="M11.065,26.748c1.389-2.848.948-4.552.28-7.874s1.94-7.955,6.383-5.788c7.194,3.509.013,13.393-6.663,13.662Z"/><path d="M7.562,24.141c2.317-2.161,2.516-3.91,3.083-7.251s4.662-6.731,8.033-3.116c5.459,5.854-4.787,12.508-11.117,10.366Z"/><path d="M5.2,20.479c2.938-1.187,3.75-2.749,5.477-5.664s6.764-4.614,8.616-.03c3,7.422-8.951,9.962-14.093,5.694Z"/><path d="M4.341,16.167c3.168-.055,4.486-1.222,7.143-3.325s7.968-1.883,8.055,3.06c.14,8-11.927,6.091-15.2.265Z"/><path d="M5.036,11.86c2.977,1.084,4.626.466,7.86-.545s8.114,1.1,6.423,5.743C16.582,24.58,6,18.471,5.036,11.86Z"/><path d="M7.281,8.1c2.392,2.079,4.152,2.093,7.534,2.308S22,14.338,18.753,18.069C13.5,24.11,5.813,14.615,7.281,8.1Z"/><path d="M10.679,5.363c1.488,2.8,3.126,3.442,6.206,4.855s5.3,6.245.93,8.566C10.748,22.542,6.973,10.923,10.679,5.363Z"/><path d="M14.868,4.056c.386,3.145,1.685,4.334,4.054,6.756s2.706,7.728-2.2,8.33C8.776,20.118,9.416,7.918,14.868,4.056Z"/><path d="M19.224,4.337c-.767,3.075.02,4.649,1.363,7.76s-.243,8.184-5.04,6.988C7.78,17.149,12.749,5.988,19.224,4.337Z"/><path d="M23.212,6.144c-4.288,3.251-1.826,5.6-1.826,11.811,0,5.689-2.842,3.476-6.892.64C7.937,14,16.576,5.366,23.212,6.144Z"/><path d="M21.365,16.5c-.013-.088-.037-.353-.053-.591-.026-.389-.172-1.651-.242-2.091l-.028-.173.224-.025a.816.816,0,0,0,.561-1.279A1.07,1.07,0,0,0,21.155,12h-.161l.171.162a.408.408,0,0,1,.171.314.527.527,0,0,1-.258.472c-.115.052-.123.047-.149-.1a11.32,11.32,0,0,1-.152-3.175,5.357,5.357,0,0,1,.17-.7l.094-.264,0,.216a4.774,4.774,0,0,0,.094.647,6.329,6.329,0,0,0,3.122,4.017,10.415,10.415,0,0,0,1.719.819,2.071,2.071,0,0,1,.4.163c.082.082-.012.2-.312.39A13.576,13.576,0,0,1,22.3,16.453C21.317,16.685,21.393,16.681,21.365,16.5Z" style="fill:#fff"/></svg>