<svg id="Layer_8" data-name="Layer 8" xmlns="http://www.w3.org/2000/svg" viewBox="0 0 32 32">
  <title>file_type_nsi@2x</title>
  <path d="M27.43,16L22,21.46l5.42,5.42" style="fill: #00577b"/>
  <path d="M26.88,15.49H16l5.42,5.42" style="fill: #0079aa"/>
  <path d="M26.88,14.72L21.46,9.3,16,14.72" style="fill: #0096d3"/>
  <path d="M20.53,9.13H9.68l5.42,5.42M27.43,3.33L22,8.75l5.42,5.42" style="fill: #01b0f0"/>
  <path d="M20.53,8.36L15.1,2.94,9.68,8.36" style="fill: #27bcf3"/>
  <path d="M14.17,2.78H3.33L8.75,8.2" style="fill: #4fc9f5"/>
  <path d="M4.57,16L10,10.54,4.57,5.12" style="fill: #79201b"/>
  <path d="M10.54,11.09L5.12,16.51H16" style="fill: #a42d26"/>
  <path d="M5.12,17.28l5.42,5.42L16,17.28" style="fill: #cc382f"/>
  <path d="M4.57,17.83V28.67L10,23.25,8.4,21.67m13.92,1.2L16.9,17.45l-5.42,5.42" style="fill: #f0453f"/>
  <path d="M11.47,23.64l5.42,5.42,5.42-5.42" style="fill: #f2625d"/>
  <path d="M17.83,29.22H28.67L23.25,23.8" style="fill: #f47f7d"/>
  <path d="M29.89,29.34l-1.68-1.68V2.39a0.39,0.39,0,0,0-.66-0.27L21.46,8.2,15.38,2.11,15.3,2h0a0.38,0.38,0,0,0-.16,0H2.4a0.39,0.39,0,0,0-.29.66L3.79,4.34V29.61a0.39,0.39,0,0,0,.66.27l6.08-6.08,6.08,6.08L16.7,30h0a0.38,0.38,0,0,0,.16,0H29.61a0.39,0.39,0,0,0,.27-0.66h0Zm-2.45-26V14.17L22,8.75l5.42-5.42h0ZM10,10.54L4.57,16V5.12L10,10.54h0Zm-0.3-1.4H20.53L15.1,14.56,9.68,9.13h0Zm0.85,2L16,16.51H5.12l5.42-5.42h0Zm6.36,6.36,5.42,5.42H11.47l5.42-5.42h0Zm-0.85-2H26.88l-5.42,5.42L16,15.49h0Zm6,6L27.43,16V26.88L22,21.46h0Zm4.87-6.75H16L21.46,9.3l5.42,5.42h0ZM20.53,8.36H9.68L15.1,2.94l5.42,5.42h0ZM3.33,2.78H14.17L8.75,8.2Zm1.24,25.9V17.83L8.4,21.67,10,23.25,4.57,28.67h0ZM5.12,17.28H16l-5.42,5.42L5.12,17.28h0ZM16.9,29.06l-5.42-5.42H22.32L16.9,29.06h0Zm0.94,0.16,5.42-5.42,5.42,5.42H17.83Z" style="fill: #464049"/>
  <rect width="32" height="32" style="fill: #fff;opacity: 0"/>
</svg>
