<svg xmlns="http://www.w3.org/2000/svg" width="150" height="150" fill="none" viewBox="0 0 150 150"><path fill="#3e95ff" d="M108.615 74.977c0-18.522-15.08-33.604-33.603-33.604-8.55 0-16.347 3.204-22.31 8.498a9.007 9.007 0 0 1-11.96-13.469c9.11-8.088 21.116-13.04 34.27-13.04 28.47 0 51.615 23.145 51.615 51.615a51.4 51.4 0 0 1-8.206 27.895l6.993 6.611a9.007 9.007 0 0 1-12.374 13.089l-12.891-12.188a9.006 9.006 0 0 1-.436-12.646c5.531-6.004 8.902-13.998 8.902-22.761m-85.218.011a9.006 9.006 0 1 1 18.01 0c0 11.855 6.174 22.325 15.533 28.326a9.005 9.005 0 1 1-9.723 15.161c-14.29-9.162-23.82-25.224-23.82-43.487"/><path fill="#3e95ff" d="M75.012 90.586c8.614 0 15.597-6.983 15.597-15.598 0-8.614-6.983-15.597-15.597-15.597s-15.598 6.983-15.598 15.597 6.983 15.598 15.598 15.598"/></svg>