<svg viewBox="0 0 32 32" xmlns="http://www.w3.org/2000/svg"><path d="m27.072 9.219c-.548 2.446-5.879 14-6.564 16.619-.486 1.861 2.024 4.2 2.443 2.668 1.232-4.5 6.725-15.177 7.032-17.4.263-1.917-2.643-3.081-2.911-1.886zm-6.688 8.481a.907.907 0 0 1 .909.29.861.861 0 0 1 .123.927 3.414 3.414 0 0 1 -2.458 1.883q-.921.171-2.073.279c-2.759.256-5.719-2.992-3.715-2.9a28.552 28.552 0 0 0 7.214-.476zm2.928-3.052a2.4 2.4 0 0 1 -1.743 1.435 32.079 32.079 0 0 1 -11.469-.158c-2.512-.6-4.162-4.164-2.531-3.632 3.787 1.236 10.832 1.646 14.818 1.2a.879.879 0 0 1 .8.315.831.831 0 0 1 .126.832zm1.513-4.188a2.041 2.041 0 0 1 -1.8 1.414c-7.319.513-16.725-1.14-19.438-3.874-2.041-2.06-1.911-6.015-.75-4.758 4.4 4.763 15.212 6.135 21.1 6.073a.913.913 0 0 1 .741.35.875.875 0 0 1 .146.793z" fill="#ffdc00"/></svg>