<svg viewBox="0 0 32 32" xmlns="http://www.w3.org/2000/svg"><path d="m20.375 3.291a.874.874 0 0 1 1.463.647v6.312l-8.36 6.624-4.306-3.266z" fill="#009a7c"/><path d="m6.013 16.669-3.633 3.131a1.166 1.166 0 0 0 -.08 1.647c.025.027.05.053.077.077l1.541 1.4a1.166 1.166 0 0 0 1.489.066l4.193-3.055z" fill="#009a7c"/><path d="m21.838 21.749-16.426-12.742a1.165 1.165 0 0 0 -1.489.066l-1.541 1.4a1.166 1.166 0 0 0 -.077 1.647c.025.027.05.053.077.077l17.99 16.5a.875.875 0 0 0 1.466-.645z" fill="#00b294"/><path d="m23.244 29.747a1.745 1.745 0 0 1 -1.989-.338 1.025 1.025 0 0 0 1.745-.725v-25.368a1.025 1.025 0 0 0 -1.749-.725 1.745 1.745 0 0 1 1.989-.338l5.765 2.772a1.748 1.748 0 0 1 .995 1.575v18.8a1.748 1.748 0 0 1 -.991 1.576z" fill="#24bfa5"/></svg>