<svg xmlns="http://www.w3.org/2000/svg" viewBox="0 0 32 32"><title>file_type_reactjs@2x</title><g id="reactjs"><circle cx="16" cy="15.97" r="2.5" style="fill:#00d8ff"/><path d="M16,21.71a28.39,28.39,0,0,1-8.88-1.2,11.3,11.3,0,0,1-3.66-2A3.54,3.54,0,0,1,2,16c0-1.65,1.82-3.27,4.86-4.33A28.76,28.76,0,0,1,16,10.29a28.67,28.67,0,0,1,9,1.32,11.38,11.38,0,0,1,3.54,1.87A3.39,3.39,0,0,1,30,16c0,1.72-2,3.46-5.3,4.54A28.8,28.8,0,0,1,16,21.71Zm0-10.22a28,28,0,0,0-8.75,1.28c-2.8,1-4.06,2.31-4.06,3.2s1.35,2.39,4.31,3.4A27.21,27.21,0,0,0,16,20.51a27.6,27.6,0,0,0,8.33-1.13c3.08-1,4.48-2.48,4.48-3.41a2.33,2.33,0,0,0-1-1.57,10.19,10.19,0,0,0-3.16-1.65A27.46,27.46,0,0,0,16,11.49Z" style="fill:#00d8ff"/><path d="M10.32,28.44A2.64,2.64,0,0,1,9,28.11c-1.43-.83-1.93-3.21-1.33-6.37a28.76,28.76,0,0,1,3.4-8.59h0A28.68,28.68,0,0,1,16.71,6a11.38,11.38,0,0,1,3.38-2.13,3.39,3.39,0,0,1,2.88,0c1.49.86,2,3.49,1.29,6.86a28.81,28.81,0,0,1-3.32,8.13,28.39,28.39,0,0,1-5.48,7.09,11.3,11.3,0,0,1-3.52,2.19A4.93,4.93,0,0,1,10.32,28.44Zm1.77-14.7A28,28,0,0,0,8.83,22c-.55,2.91,0,4.67.75,5.11s2.74,0,5.1-2a27.21,27.21,0,0,0,5.23-6.79,27.6,27.6,0,0,0,3.18-7.78c.65-3.17.09-5.12-.71-5.58A2.33,2.33,0,0,0,20.51,5a10.19,10.19,0,0,0-3,1.91,27.46,27.46,0,0,0-5.4,6.85Z" style="fill:#00d8ff"/><path d="M21.68,28.46c-1.35,0-3.08-.82-4.87-2.36a28.76,28.76,0,0,1-5.75-7.24h0a28.68,28.68,0,0,1-3.37-8.47,11.38,11.38,0,0,1-.16-4A3.39,3.39,0,0,1,9,3.9c1.49-.86,4,0,6.58,2.31a28.8,28.8,0,0,1,5.39,6.93,28.38,28.38,0,0,1,3.41,8.29,11.3,11.3,0,0,1,.14,4.15A3.54,3.54,0,0,1,23,28.13,2.59,2.59,0,0,1,21.68,28.46ZM12.1,18.26a28,28,0,0,0,5.49,6.93c2.25,1.93,4,2.35,4.8,1.9s1.39-2.36.78-5.43a27.21,27.21,0,0,0-3.27-7.92A27.6,27.6,0,0,0,14.75,7.1c-2.42-2.15-4.39-2.63-5.19-2.17a2.33,2.33,0,0,0-.86,1.66,10.19,10.19,0,0,0,.15,3.56,27.46,27.46,0,0,0,3.24,8.1Z" style="fill:#00d8ff"/></g></svg>