<svg xmlns="http://www.w3.org/2000/svg" viewBox="0 0 32 32"><title>file_type_protobuf</title><polygon points="16 30 3.875 23 3.875 9 16 2 28.125 9 28.125 23 16 30"/><polygon points="4.87 22.426 16 28.852 27.13 22.426 27.13 9.574 16 3.148 4.87 9.574 4.87 22.426" style="fill:#fff"/><polygon points="16.007 15.85 6.192 21.341 6.192 10.204 16.007 4.618 16.007 15.85" style="fill:#33b0ff"/><polygon points="20.88 18.635 11.065 24.126 11.065 12.988 20.88 7.403 20.88 18.635" style="fill:#76ff33"/><polygon points="25.853 21.519 16.038 27.01 16.038 15.872 25.853 10.287 25.853 21.519" style="fill:#f35"/><polygon points="16.038 15.872 11.065 18.615 11.065 12.988 16.008 10.17 16.038 15.872" style="fill:#4def33"/><polygon points="20.88 18.661 16.038 21.344 16.038 15.872 20.88 13.117 20.88 18.661" style="fill:#e4332c"/></svg>