<svg xmlns="http://www.w3.org/2000/svg" viewBox="0 0 32 32"><title>file_type_precommit</title><path d="M29.3,17.7,17.7,29.3a2.42,2.42,0,0,1-3.41,0L2.7,17.7a2.42,2.42,0,0,1,0-3.41L14.3,2.7a2.42,2.42,0,0,1,3.41,0L29.3,14.3A2.42,2.42,0,0,1,29.3,17.7Z" style="fill:#f8b424"/><path d="M16,5.5a1.807,1.807,0,0,1,1.279.527l8.694,8.694a1.815,1.815,0,0,1,0,2.558l-8.694,8.694a1.816,1.816,0,0,1-2.558,0L6.027,17.279a1.815,1.815,0,0,1,0-2.558l8.694-8.694A1.807,1.807,0,0,1,16,5.5m0-1.286a3.073,3.073,0,0,0-2.188.9L5.118,13.812a3.1,3.1,0,0,0,0,4.376l8.694,8.694a3.1,3.1,0,0,0,4.376,0l8.694-8.694a3.1,3.1,0,0,0,0-4.376L18.188,5.118A3.073,3.073,0,0,0,16,4.214Z"/><path d="M13.062,21.062V10.938h3.28a11.914,11.914,0,0,1,2.431.152,2.652,2.652,0,0,1,1.457.991,3.145,3.145,0,0,1,.587,1.971,3.309,3.309,0,0,1-.338,1.568,2.785,2.785,0,0,1-.86,1,2.974,2.974,0,0,1-1.06.48,11.641,11.641,0,0,1-2.12.145H15.106v3.819Zm2.044-8.411v2.872h1.119a5.3,5.3,0,0,0,1.616-.158,1.333,1.333,0,0,0,.87-1.285,1.3,1.3,0,0,0-.325-.911,1.409,1.409,0,0,0-.822-.449,9.831,9.831,0,0,0-1.471-.069Z"/></svg>