<svg xmlns="http://www.w3.org/2000/svg" viewBox="0 0 32 32"><g clip-path="url(#a)" transform="translate(2 2)scale(.69998)"><path fill="url(#b)" fill-rule="evenodd" d="M35.22 7.02A20 20 0 1 0 4.79 32.98 20 20 0 0 0 35.22 7.02m-9.97 10.5a1 1 0 0 1 .88 1.5l-.11.2-7.55 12.4a.8.8 0 0 1-.66.38h-.72a.76.76 0 0 1-.73-.94l2.05-7.92a1 1 0 0 0-.97-1.25h-3.15a1 1 0 0 1-.97-1.25l3.1-11.96c.1-.4.47-.68.89-.68h3.3a1 1 0 0 1 1 1.14l-.03.14-1.2 7.07a1 1 0 0 0 .98 1.17z" clip-rule="evenodd"/><mask id="e" width="40" height="41" x="0" y="0" maskUnits="userSpaceOnUse"><circle cx="20" cy="20" r="20" fill="url(#c)"/></mask><g filter="url(#d)" mask="url(#e)"><path fill="#fff" d="M1.11 13.43a20 20 0 1 0 37.96.54l-5.82 1.84a13.9 13.9 0 1 1-26.38-.38z"/></g></g><defs><radialGradient id="b" cx="0" cy="0" r="1" gradientTransform="matrix(39.001 0 0 397.71 4 20)" gradientUnits="userSpaceOnUse"><stop offset="0" stop-color="#31b2f3"/><stop offset=".47" stop-color="#f27cec"/><stop offset="1" stop-color="#fd6641"/></radialGradient><radialGradient id="c" cx="0" cy="0" r="1" gradientTransform="matrix(39 0 0 397.7 4 20)" gradientUnits="userSpaceOnUse"><stop offset="0" stop-color="#f27cec"/><stop offset=".48" stop-color="#31b2f3"/><stop offset="1" stop-color="#7d7573"/></radialGradient><clipPath id="a"><path fill="#fff" d="M0 0h146v40H0z"/></clipPath><filter id="d" width="60" height="46.57" x="-10" y="3.43" color-interpolation-filters="sRGB" filterUnits="userSpaceOnUse"><feFlood flood-opacity="0" result="BackgroundImageFix"/><feBlend in="SourceGraphic" in2="BackgroundImageFix" result="shape"/><feGaussianBlur result="effect1_foregroundBlur_115_108" stdDeviation="5"/></filter></defs></svg>