<svg xmlns="http://www.w3.org/2000/svg" xmlns:xlink="http://www.w3.org/1999/xlink" viewBox="0 0 32 32"><title>file_type_libreoffice_calc</title><linearGradient id="a"><stop offset="0" stop-color="#18a303"/><stop offset="1" stop-color="#43c330"/></linearGradient><linearGradient xlink:href="#a" id="d" x1="546" x2="458" y1="122" y2="6" gradientTransform="translate(-93.811 2.438) scale(.21875)" gradientUnits="userSpaceOnUse"/><linearGradient id="e" x1="508.06" x2="508.06" y1="110" y2="83.998" gradientTransform="translate(-93.811 2.438) scale(.21875)" gradientUnits="userSpaceOnUse"><stop offset="0" stop-color="#727272"/><stop offset="1" stop-color="#9a9a9a"/></linearGradient><linearGradient id="f" x1="829.36" x2="829.36" y1="-1064.8" y2="-1082.3" gradientTransform="matrix(.20753 0 0 .28438 -156.9 328.75)" gradientUnits="userSpaceOnUse"><stop offset="0" stop-color="#e4e4e4"/><stop offset="1" stop-color="#f9f9f9"/></linearGradient><linearGradient id="g" x1="525.64" x2="525.64" y1="-1078.6" y2="-1068.8" gradientTransform="matrix(.15625 0 0 -.34029 -66.452 -341.24)" gradientUnits="userSpaceOnUse"><stop offset="0" stop-color="#63bbee"/><stop offset="1" stop-color="#aadcf7"/></linearGradient><linearGradient id="h" x1="512.66" x2="512.66" y1="95.03" y2="85.999" gradientTransform="translate(-93.811 2.438) scale(.21875)" gradientUnits="userSpaceOnUse"><stop offset="0" stop-color="#a33e03"/><stop offset="1" stop-color="#c15414"/></linearGradient><linearGradient id="i" x1="525.64" x2="525.64" y1="-1078.6" y2="-1068.8" gradientTransform="matrix(.15625 0 0 -.4618 -64.702 -472.27)" gradientUnits="userSpaceOnUse"><stop offset="0" stop-color="#f09e6f"/><stop offset="1" stop-color="#f9cfb5"/></linearGradient><linearGradient id="j" x1="525.64" x2="525.64" y1="-1078.6" y2="-1068.8" gradientTransform="matrix(.15625 0 0 -.19444 -62.952 -184.01)" gradientUnits="userSpaceOnUse"><stop offset="0" stop-color="#f5ce53"/><stop offset="1" stop-color="#fde9a9"/></linearGradient><linearGradient id="k" x1="525.64" x2="525.64" y1="-1078.6" y2="-1068.8" gradientTransform="matrix(.15625 0 0 -.29166 -61.202 -288.83)" gradientUnits="userSpaceOnUse"><stop offset="0" stop-color="#8ee780"/><stop offset="1" stop-color="#ccf4c6"/></linearGradient><linearGradient id="c" x1="108" x2="20.001" y1="122" y2="6" gradientTransform="translate(2 2) scale(.21875)" gradientUnits="userSpaceOnUse"><stop offset="0" stop-color="#e6e6e6"/><stop offset="1" stop-color="#fff"/></linearGradient><linearGradient xlink:href="#a" id="b" x1="122.75" x2="111.75" y1="991.62" y2="977.12" gradientTransform="matrix(1.7499 0 0 1.7495 -189.18 -1706.1)" gradientUnits="userSpaceOnUse"/><g stroke-width=".219"><path fill="url(#b)" d="M5.774 2c-.055 0-.11.003-.164.008-.802.153-.999.496-.984 1.312v25.368c0 .916.396 1.312 1.312 1.312h20.124c.916 0 1.312-.396 1.312-1.312v-15.71a1.77 1.77 0 0 0-.492-1.257L17.66 2.5a1.772 1.772 0 0 0-1.258-.493H5.938A1.696 1.696 0 0 0 5.774 2zm15.314.003a.902.902 0 0 0-.137.01c-.582.187-.778 1.074-.33 1.49l5.271 5.299c.487.464 1.457.067 1.483-.607V2.897c0-.463-.419-.883-.879-.883h-5.27a.905.905 0 0 0-.138-.01z"/><path fill="url(#c)" d="M5.938 3.313v25.375h20.125v-15.75l-9.625-9.625z"/><path fill="url(#d)" d="M8.783 14.25v11.375h13.125V14.25H9.22z"/></g><path fill="#92e285" d="M9.22 14.687h3.719v1.75H9.22zm4.156 0h3.938v1.75h-3.938zm4.375 0h3.72v1.75h-3.72z"/><path fill="#ccf4c6" d="M9.22 16.875h3.719v1.75H9.22zm8.531 0h3.72v1.75h-3.72zm-4.375 2.187h3.938v1.75h-3.938zm4.375 0h3.72v1.75h-3.72zm-8.531 0h3.719v1.75H9.22zm4.156 2.188h3.938V23h-3.938zm-4.156 0h3.719V23H9.22zm4.156 2.187h3.938v1.75h-3.938zm-4.156 0h3.719v1.75H9.22z"/><g stroke-width=".219"><path fill="url(#e)" d="M14.252 20.375h8.531V26.5h-8.531z"/><path fill="url(#f)" d="M14.689 20.812h7.656v5.25H14.69z"/><path fill="#18a303" d="M15.126 22.344h1.531v3.5h-1.531z"/><path fill="url(#g)" d="M15.345 25.625h1.094v-3.063h-1.094z"/><path fill="url(#h)" d="M16.876 21.25h1.531v4.594h-1.531z"/><path fill="url(#i)" d="M17.095 25.625h1.094v-4.156h-1.094z"/><path fill="#c99c00" d="M18.626 23.656h1.531v2.188h-1.531z"/><path fill="url(#j)" d="M18.845 25.625h1.094v-1.75h-1.094z"/><path fill="#43c330" d="M20.376 22.781h1.531v3.063h-1.531z"/><path fill="url(#k)" d="M20.595 25.625h1.094V23h-1.094z"/><path fill="#ccf4c6" d="M13.376 16.875h3.938v1.75h-3.938z"/></g></svg>