<svg height="32" viewBox="0 0 48 48" width="32" xmlns="http://www.w3.org/2000/svg"><path d="m24 4c-11.046875 0-20 8.953125-20 20 0 7.394531 4.023438 13.832031 9.988281 17.296875l4.503907-7.785156c-3.28125-1.902344-5.492188-5.445313-5.492188-9.511719 0-6.074219 4.925781-11 11-11s11 4.925781 11 11c0 4.066406-2.210937 7.609375-5.492187 9.511719l4.503906 7.785156c5.964844-3.464844 9.988281-9.902344 9.988281-17.296875 0-11.046875-8.953125-20-20-20z" fill="#ff9100"/><path d="m30 24c0-3.3125-2.6875-6-6-6s-6 2.6875-6 6c0 2.554688 1.601563 4.734375 3.851563 5.597656l-2.558594 13.820313c1.511719.367187 3.082031.582031 4.707031.582031s3.195313-.214844 4.707031-.578125l-2.558593-13.824219c2.25-.863281 3.851562-3.042968 3.851562-5.597656z" fill="#1a237e"/></svg>