<svg viewBox="0 0 32 32" xmlns="http://www.w3.org/2000/svg"><circle cx="16" cy="16" fill="#ffd539" r="14"/><path d="m21.247 7.264q.093-.026.185-.045l.182.223q-.02.078-.037.157a2.458 2.458 0 0 0 -.432.12q.041-.226.102-.455zm-3.938 4.221c-1.26 2-1.955 4.067-1.751 5.183a17.109 17.109 0 0 0 6.554-.142 13.775 13.775 0 0 0 3.948-1.526 2.466 2.466 0 0 0 .56-.44 8.435 8.435 0 0 1 -3.82-2.118 5.117 5.117 0 0 1 -1.651-4.724 9.283 9.283 0 0 0 -3.84 3.767zm4.378-4.3c-1.294 4.238 3.292 6.695 5.105 7.009.727.126.09.795-.531 1.159a16.1 16.1 0 0 1 -11.026 1.67c-.852-2.513 3.33-9.542 6.453-9.843z"/><path d="m20.382 12.652a.8.8 0 1 0 .618-.614.5.5 0 1 1 -.614.615zm5.782 2.368a1.2 1.2 0 1 0 -1.2-1.2c.812.587 1.985.468 1.201 1.2z"/><path d="m15.283 27.935c.276-3.157-.747-4.589-2.56-7.451s-1.04-8.122 3.885-7.691c7.973.698 4.811 12.498-1.325 15.142z"/><path d="m11.065 26.748c1.389-2.848.948-4.552.28-7.874s1.94-7.955 6.383-5.788c7.194 3.509.013 13.393-6.663 13.662z"/><path d="m7.562 24.141c2.317-2.161 2.516-3.91 3.083-7.251s4.662-6.731 8.033-3.116c5.459 5.854-4.787 12.508-11.117 10.366z"/><path d="m5.2 20.479c2.938-1.187 3.75-2.749 5.477-5.664s6.764-4.614 8.616-.03c3 7.422-8.951 9.962-14.093 5.694z"/><path d="m4.341 16.167c3.168-.055 4.486-1.222 7.143-3.325s7.968-1.883 8.055 3.06c.14 8-11.927 6.091-15.2.265z"/><path d="m5.036 11.86c2.977 1.084 4.626.466 7.86-.545s8.114 1.1 6.423 5.743c-2.737 7.522-13.319 1.413-14.283-5.198z"/><path d="m7.281 8.1c2.392 2.079 4.152 2.093 7.534 2.308s7.185 3.93 3.938 7.661c-5.253 6.041-12.94-3.454-11.472-9.969z"/><path d="m10.679 5.363c1.488 2.8 3.126 3.442 6.206 4.855s5.3 6.245.93 8.566c-7.067 3.758-10.842-7.861-7.136-13.421z"/><path d="m14.868 4.056c.386 3.145 1.685 4.334 4.054 6.756s2.706 7.728-2.2 8.33c-7.946.976-7.306-11.224-1.854-15.086z"/><path d="m19.224 4.337c-.767 3.075.02 4.649 1.363 7.76s-.243 8.184-5.04 6.988c-7.767-1.936-2.798-13.097 3.677-14.748z"/><path d="m23.212 6.144c-4.288 3.251-1.826 5.6-1.826 11.811 0 5.689-2.842 3.476-6.892.64-6.557-4.595 2.082-13.229 8.718-12.451z"/><path d="m21.365 16.5c-.013-.088-.037-.353-.053-.591-.026-.389-.172-1.651-.242-2.091l-.028-.173.224-.025a.816.816 0 0 0 .561-1.279 1.07 1.07 0 0 0 -.672-.341h-.161l.171.162a.408.408 0 0 1 .171.314.527.527 0 0 1 -.258.472c-.115.052-.123.047-.149-.1a11.32 11.32 0 0 1 -.152-3.175 5.357 5.357 0 0 1 .17-.7l.094-.264v.216a4.774 4.774 0 0 0 .094.647 6.329 6.329 0 0 0 3.122 4.017 10.415 10.415 0 0 0 1.719.819 2.071 2.071 0 0 1 .4.163c.082.082-.012.2-.312.39a13.576 13.576 0 0 1 -3.764 1.492c-.983.232-.907.228-.935.047z" fill="#fff"/></svg>