<svg xmlns="http://www.w3.org/2000/svg" viewBox="0 0 32 32"><title>file_type_nimble</title><polygon points="2 22.488 15.988 28 15.988 13.313 2 8.587 2 22.488" style="fill:#b79c00"/><polygon points="15.988 28 29.977 22.488 29.977 8.587 15.988 13.313 15.988 28" style="fill:#ccae00"/><polygon points="2.023 8.587 16.012 13.313 30 8.587 16.012 4 2.023 8.587" style="fill:#f3d400"/><path d="M24.776,10.352h0L10.789,5.714l-2.507.821,14.006,4.654,0,0v3.675s.439-.51.595-.464c.405.121.971.359,1.187.155a2.8,2.8,0,0,1,.717-.479Z" style="fill:#fff"/><path d="M12.22,16.18l-.56.2a3.3,3.3,0,0,0-.639-.788l-.358-1.09-.593.535a3.639,3.639,0,0,0-1.208-.469l-.532-.835-.52.64a2.558,2.558,0,0,0-1.1.022l-.5-.688-.294.872a1.544,1.544,0,0,0-.506.481L4.977,14.7l.247,1.679.019.063.537,2.5A4.445,4.445,0,0,0,8.33,21.69a2.268,2.268,0,0,0,2.849-1.169l.687-2.482.026-.06Zm-1.646,3.27-.806.111L8.33,18.006l-1.357.766-.7-.507-.49-1.1a1.984,1.984,0,0,1,2.544-1.31,3.879,3.879,0,0,1,2.842,2.682Z" style="fill:#fff"/></svg>