<svg xmlns="http://www.w3.org/2000/svg" data-name="Layer 1" viewBox="0 0 32 32"><defs><style>.cls-2{fill:#fff}</style></defs><title>sub-project-brand-logos-FINAL-with-wordmark</title><g transform="translate(2 4.535)scale(.20591)"><rect width="135.98" height="111.36" rx="14.392" style="fill:#22ad5f"/><path d="M108.73 68.407c-.32-.707-.63-1.417-.958-2.122a192 192 0 0 0-20.115-33.688q-2.869-3.847-5.931-7.55v49.29H111.3q-1.23-2.982-2.571-5.93zm-21.073 0V42.829a187 187 0 0 1 14.554 25.578zM70.044 14.804a192.5 192.5 0 0 0-28.08 53.603 191 191 0 0 0-1.903 5.931h35.914V7.254q-3.061 3.703-5.93 7.55zm0 53.603H48.225a187.1 187.1 0 0 1 21.819-43.371z" class="cls-2"/><path d="M30.85 74.338h6.166A186.9 186.9 0 0 1 68.31 12.104l-7.49 4.549a204 204 0 0 0-5.423 3.415 193.2 193.2 0 0 0-24.547 54.27M21.745 74.338h6.125a186.5 186.5 0 0 1 11.471-31.862q3.988-8.553 8.772-16.591-6.058 4.398-11.8 9.239-1.202 2.404-2.348 4.845a192.3 192.3 0 0 0-12.22 34.37zM111.55 86.708v7.13l-62.095.131-4.46-7.14zm5.93-5.942-83.171.15L46.17 99.909l71.31-.151zM43.109 99.908 31.247 80.917h-6.993l11.862 18.991zM33.15 99.908 21.288 80.917h-6.993l11.862 18.991z" class="cls-2"/></g></svg>