<?xml version="1.0" encoding="utf-8"?>
<svg viewBox="6.85 9.267 32.488 31.648" xmlns="http://www.w3.org/2000/svg">
  <path d="M 16.057 39.67 L 33.068 28.278 C 33.068 28.278 33.836 27.854 33.836 27.181 C 33.836 26.285 32.865 25.995 32.865 25.995 L 23.507 22.415 C 23.172 22.288 22.712 22.642 23.143 23.092 L 26.241 26.088 C 26.241 26.088 27.102 26.907 27.102 27.442 C 27.102 27.979 26.574 28.455 26.574 28.455 L 15.3 38.981 C 14.899 39.356 15.441 40.034 16.057 39.67 Z" fill="#2379F4" data-immersive-translate-walked="1948df4d-7920-48ea-a7d9-578193cf0091" style="" transform="matrix(1, 0, 0, 1, 7.105427357601002e-15, 0)"/>
  <path d="M 29.798 10.79 L 12.786 22.181 C 12.786 22.181 12.019 22.607 12.019 23.28 C 12.019 24.175 12.989 24.467 12.989 24.467 L 22.348 28.045 C 22.682 28.17 23.143 27.816 22.712 27.369 L 19.614 24.363 C 19.614 24.363 18.751 23.546 18.751 23.009 C 18.751 22.471 19.281 21.997 19.281 21.997 L 30.548 11.478 C 30.956 11.104 30.415 10.424 29.798 10.79 Z" fill="#2379F4" data-immersive-translate-walked="1948df4d-7920-48ea-a7d9-578193cf0091" style="" transform="matrix(1, 0, 0, 1, 7.105427357601002e-15, 0)"/>
</svg>