<svg xmlns="http://www.w3.org/2000/svg" viewBox="0 0 32 32"><title>file_type_objidconfig</title><path d="M10.073,15.412c-.5,3.024,4.139,4.325,4.807,1.162a6,6,0,0,1-2.917-.3,6.116,6.116,0,0,1-.9-.41c-.186-.1-.953-.667-.988-.455m13.3-.066A4.828,4.828,0,0,1,20.7,16.533a14.126,14.126,0,0,0-1.66.078c-.313.1-.21-.125-.215.2a1.332,1.332,0,0,0,.306.6,2.552,2.552,0,0,0,2.506.975,2.486,2.486,0,0,0,1.81-1.535,2.426,2.426,0,0,0,.123-.69c0-.037.022-1.107-.2-.814" style="fill:#d4d4d4"/><path d="M6.337,3.126A3.4,3.4,0,0,0,6.146,4.9c.045.387.383.926.383,1.281a11.26,11.26,0,0,0-1.293-.4,6.425,6.425,0,0,0-1.473-.174c-.309,0-1.079-.081-1.337.141-.315.272-.12.439.128.776A5.947,5.947,0,0,0,6.228,8.815a13.113,13.113,0,0,0-.082,14.43,12.905,12.905,0,0,0,23.578-5.936,12.967,12.967,0,0,0-7.67-13.071,13.187,13.187,0,0,0-8.306-.687,12.623,12.623,0,0,0-3.163,1.264c-.279.155-1.4,1.076-1.616.967a7.916,7.916,0,0,1-.357-.859,4.231,4.231,0,0,0-.72-.932C7.7,3.8,6.54,2.8,6.337,3.126m.875,10.928c.214.2,1.078.146,1.362.181.5.061,1.008.115,1.509.171,1.068.121,2.148.185,3.22.257,1.644.11,3.289.183,4.939.161a57.347,57.347,0,0,0,6.076-.412c.432-.052.867-.1,1.3-.15.4-.048,1.08-.3,1.46-.142.507.215.474,1.224.382,1.7-.483,2.523-4.045,3.523-6.168,3.89a23.644,23.644,0,0,1-10.212-.426,8.358,8.358,0,0,1-3.225-1.64,3.558,3.558,0,0,1-1.231-1.853c-.026-.136.026-2.262.588-1.74" style="fill:#04b4c4"/></svg>