<svg clip-rule="evenodd" fill-rule="evenodd" stroke-linejoin="round" stroke-miterlimit="2" version="1.1" viewBox="0 0 32 32" xml:space="preserve" xmlns="http://www.w3.org/2000/svg"><title>file_type_mvtcss</title><rect width="32" height="32" fill="none"/><rect x="3" y="2" width="22" height="22" fill="#f7394a"/><path d="m19.285 10.257-3.833 5.34c-0.176 0.247-0.393 0.437-0.65 0.568-0.256 0.132-0.533 0.198-0.828 0.198-0.296-0-0.572-0.068-0.829-0.203s-0.474-0.323-0.65-0.563l-3.854-5.34v8.37h-1.974v-11.254h0.918c0.479 0 0.937 0.113 1.373 0.338s0.799 0.537 1.088 0.935l3.959 5.52 3.928-5.509c0.282-0.405 0.643-0.721 1.083-0.946s0.902-0.338 1.388-0.338h0.929v11.254h-2.048v-8.37z" fill="#fff" fill-rule="nonzero"/><g fill-rule="nonzero"><path d="m17.992 29.292-1.274-14.291h14l-1.275 14.288-5.734 1.59-5.717-1.587z" fill="#1572b6"/><path d="m23.718 29.664 4.633-1.284 1.09-12.211h-5.723v13.495z" fill="#33a9dc"/><path d="m23.718 21.347h2.319l0.16-1.795h-2.479v-1.753h4.395l-0.042 0.47-0.431 4.831h-3.922v-1.753z" fill="#fff"/><path d="m23.729 25.899-8e-3 2e-3 -1.952-0.527-0.125-1.398h-1.759l0.245 2.752 3.59 0.997 9e-3 -3e-3v-1.823z" fill="#ebebeb"/><path d="m25.888 23.025-0.211 2.347-1.955 0.528v1.824l3.593-0.996 0.027-0.296 0.305-3.407h-1.759z" fill="#fff"/><path d="m23.724 17.799v1.753h-4.234l-0.035-0.394-0.08-0.889-0.042-0.47h4.391z" fill="#ebebeb"/><path d="m23.718 21.347v1.753h-1.928l-0.035-0.394-0.079-0.889-0.042-0.47h2.084z" fill="#ebebeb"/></g></svg>