<svg version="1.1" viewBox="0 0 32 32" xml:space="preserve" xmlns="http://www.w3.org/2000/svg"><title>file_type_light_safetensors</title><path d="m19.901 15.342 9.0132 3.5802c0.25914 0.10292 0.48126 0.2799 0.63826 0.50834 0.157 0.22857 0.24168 0.49807 0.24312 0.77446 0.0017 0.27626-0.08021 0.5468-0.23459 0.77693-0.15451 0.23013-0.37479 0.40945-0.63275 0.51523l-12.431 5.0942c-0.34394 0.14099-0.73042 0.14099-1.0745 0l-12.432-5.0929c-0.25793-0.10565-0.47818-0.28497-0.63267-0.5151-0.15449-0.23026-0.23618-0.50067-0.23468-0.77706 0.0015-0.27626 0.08616-0.54589 0.24315-0.77433 0.15698-0.22844 0.37919-0.40542 0.63825-0.50834l9.172-3.6428c0.52533-0.20843 2.1856 0.40321 3.7825 0.4088 1.7067 0.0057 3.3529-0.58111 3.9414-0.3476zm-12.651 4.8913 8.7099 3.569 8.7114-3.569-8.7114-3.4607zm9.2338-14.59 12.431 4.9371c0.25914 0.10292 0.48126 0.27991 0.63826 0.50839s0.24168 0.49809 0.24312 0.7744c0.0017 0.27631-0.08021 0.5468-0.23459 0.77694-0.15451 0.23014-0.37479 0.4095-0.63275 0.51519l-12.431 5.0942c-0.34394 0.14099-0.73042 0.14099-1.0745 0l-12.432-5.0928c-0.25793-0.10568-0.47818-0.28504-0.63267-0.51519-0.15449-0.23014-0.23618-0.50063-0.23468-0.77695 0.0015-0.27631 0.08616-0.5459 0.24315-0.77438 0.15698-0.22848 0.37919-0.40549 0.63825-0.5084l12.431-4.9385c0.3362-0.13379 0.71151-0.13379 1.0477 0zm-9.2338 6.2482 8.7099 3.5691 8.7114-3.5691-8.7114-3.4606z" stroke-width="1.3061" style="mix-blend-mode:normal"/></svg>
