<svg xmlns="http://www.w3.org/2000/svg" viewBox="0 0 32 32"><title>file_type_slang</title><path d="M28,11.294c-.453-2.033-.89-4.069-1.335-6.1a4.935,4.935,0,0,0-1.2-2.237,2.983,2.983,0,0,0-2.112-.947c-3.646-.006-7.291,0-10.936,0a15.278,15.278,0,0,0-1.541.031,2.811,2.811,0,0,0-1.695.795,8.065,8.065,0,0,0-1.347,1.9q-2.014,3.3-4.021,6.6A8.525,8.525,0,0,0,3.24,19.5c.238.442.509.865.762,1.3.283,1.239.542,2.488.824,3.729.346,1.381.449,2.891,1.306,4.08A3.255,3.255,0,0,0,8.355,30q6.25.009,12.5,0a3.66,3.66,0,0,0,1.125-.245,4.218,4.218,0,0,0,1.837-1.917q2.276-3.725,4.541-7.455A8.334,8.334,0,0,0,28,11.294Z" style="fill:#b7162c"/><path d="M11.128,3.414a13.611,13.611,0,0,1,1.54-.036q5.312,0,10.624,0a2.189,2.189,0,0,1,1.454.543A3.551,3.551,0,0,1,25.8,5.936c.452,2.014.884,4.033,1.324,6.05a6.667,6.667,0,0,1,.665,7.2c-1.675,2.778-3.371,5.543-5.062,8.311a2.306,2.306,0,0,1-2.248,1.126q-5.625,0-11.249,0c-.4-.044-.832.1-1.2-.094A2.838,2.838,0,0,1,6.292,26.5c-.488-2.127-.943-4.262-1.412-6.394-.038-.234-.257-.373-.372-.566a7.956,7.956,0,0,1-.744-1.523,8.52,8.52,0,0,1-.344-1.952,6.449,6.449,0,0,1,.955-3.481Q6.728,8.72,9.086,4.86a2.477,2.477,0,0,1,2.042-1.445m-.189,2.3c-.147.074-.332.108-.391.293-.638.957-1.2,1.96-1.811,2.938-.99,1.615-1.973,3.236-2.963,4.851a3.656,3.656,0,0,0-.441,3.414,2.478,2.478,0,0,0,1.711,1.665q4.249.007,8.5,0c1-.041,2,.115,3,.064q-1.8,2.926-3.574,5.868l-.106,0c-.144-.905-.39-1.792-.564-2.692a2.9,2.9,0,0,0-1.4-2.156,2.469,2.469,0,0,0-.978-.151c-1.772,0-3.543,0-5.313,0a4.079,4.079,0,0,0,.156.975q.51,2.356,1.032,4.709c.059.424.386.892.874.809q6.094.007,12.187,0a.6.6,0,0,0,.609-.263c1.565-2.56,3.119-5.127,4.687-7.685a4.222,4.222,0,0,0,.765-2.048,3.749,3.749,0,0,0-.561-2.127,2,2,0,0,0-1.627-1.058c-3.752-.01-7.506.006-11.258-.007.268-.617.687-1.155,1.012-1.743.87-1.418,1.722-2.848,2.606-4.257.256,1.087.454,2.192.736,3.271a2.2,2.2,0,0,0,1.845,1.787c1.915.022,3.831.007,5.746.007a5.737,5.737,0,0,0-.166-.89q-.539-2.462-1.08-4.924a.832.832,0,0,0-.753-.684C19.258,5.708,15.1,5.66,10.938,5.713Z" style="fill:#f4c207"/></svg>