<svg version="1.1" viewBox="0 0 32 32" xmlns="http://www.w3.org/2000/svg"><title>file_type_circom</title><path d="m11.479 22.846c1.7514 1.2152 3.9483 1.7661 6.0268 1.3143 2.9972-0.57567 5.4852-3.1447 6.1699-6.2372 0.35535-0.90894 1.3452-0.64256 2.0836-0.68212 0.47103-0.11766 0.77824 0.25775 0.55533 0.63424-0.67811 4.553-4.3594 8.4036-8.7322 9.0421-3.4978 0.59202-7.2427-0.85366-9.5012-3.7146-0.059198-0.55306 0.61052-0.30431 0.93304-0.35813 0.82159 9.47e-4 1.6433-0.0019 2.4648 0.0014zm-5.8631-5.4629c0.87175 2e-5 1.7435 3.9e-5 2.6153 5.9e-5 -0.029939 0.90366 0.87913 2.2295 0.74456 2.7308-0.89689 3.7e-5 -1.7938 7.3e-5 -2.6907 1.09e-4 -0.33348-0.87539-0.55852-1.7958-0.66914-2.7309zm10.384-12.426c2.9654-0.01485 5.9307 1.3784 7.8407 3.7552 0.03514 0.54123-0.61983 0.28918-0.94004 0.34544-0.83171 1.566e-4 -1.6635-7.123e-4 -2.4952 8.48e-5 -1.2455-0.76654-2.6463-1.339-4.1143-1.3643-3.5027-0.20208-6.8902 2.3873-7.8357 5.9087-0.072749 0.81402-0.85028 1.1573-1.5379 1.0501-0.39532-0.041087-0.83337 0.088182-1.199-0.07516-0.16696-0.75772 0.27872-1.605 0.44395-2.3527 1.3924-4.2166 5.4432-7.2748 9.714-7.2667l0.12318-7.493e-4zm9.6768 6.8312c0.22326 0.79909 0.88167 2.1656 0.51589 2.7223-0.81395 3.6e-5 -1.6279 7.3e-5 -2.4419 1.09e-4 0.01855-0.90391-0.90802-2.2237-0.78063-2.7222 0.9022-6.4e-5 1.8044-1.28e-4 2.7066-1.92e-4z" clip-rule="evenodd" fill="#999" fill-rule="evenodd" stroke-width=".8461"/><path d="m10.686 17.383c0.30346-0.56436-0.16839-1.5219 0.08627-2.233 0.33773-2.7254 2.8399-4.9144 5.4703-4.7256 1.2535-0.0072 2.364 0.70573 3.3671 1.3552h10.175c0.43062 0.12826 0.17462 0.71719 0.2435 1.0644 0.08462 0.71776-0.15266 1.6515-0.99468 1.6654-3.5404 0.0011-7.0809 2e-3 -10.621-4.9e-4 -0.62591-0.67884-1.4047-1.432-2.4114-1.3596-1.7128-0.06166-3.0989 1.8513-2.6163 3.5629 0.36651 1.7765 2.5378 2.7436 4.0022 1.7349 0.69826-0.30099 0.85373-1.4484 1.725-1.206 0.60658 0.014 1.2196-0.02664 1.8224 0.01782 0.44211 0.73533-0.59224 1.8145-1.0022 2.4751-1.7138 2.115-4.9918 2.4582-7.0759 0.75403-0.36223-0.55956-0.99604-0.32829-1.5267-0.37445-3.0667-0.01197-6.1384 0.02398-9.2021-0.01767-0.30465-0.27492-0.090252-0.78669-0.15432-1.1658-0.11524-0.751 0.31782-1.6537 1.1557-1.5472 2.519 1e-5 5.0381 2.2e-5 7.5571 3.3e-5z" fill="#7b7b7b" stroke-width=".8461"/></svg>
