<svg viewBox="0 0 32 32" xmlns="http://www.w3.org/2000/svg" xmlns:xlink="http://www.w3.org/1999/xlink"><linearGradient id="a" gradientUnits="userSpaceOnUse" x1="11.813" x2="19.304" y1="29.627" y2="1.668"><stop offset=".162" stop-color="#ccb37e"/><stop offset=".171" stop-color="#c8ad7f"/><stop offset=".199" stop-color="#c1a282"/><stop offset=".239" stop-color="#bc9b84"/><stop offset=".35" stop-color="#bb9984"/><stop offset=".356" stop-color="#b89580"/><stop offset=".397" stop-color="#aa826a"/><stop offset=".445" stop-color="#9f7359"/><stop offset=".505" stop-color="#97684e"/><stop offset=".588" stop-color="#926247"/><stop offset=".82" stop-color="#916045"/><stop offset=".825" stop-color="#875f48"/><stop offset=".837" stop-color="#765c4d"/><stop offset=".852" stop-color="#6b5a50"/><stop offset=".872" stop-color="#645952"/><stop offset=".93" stop-color="#625953"/></linearGradient><path d="m19.659 20.747c.01-.018 2.27-3.474 1.328-4.934.13.256-3.24 2.235-4.351 2.784.085-.042 4.946-2.9 4.512-3.68a18.68 18.68 0 0 0 -4.134 2.014h-.02a11.822 11.822 0 0 1 3.775-2.031c1.424-1.283 2.817-5.766 2.172-6.965a5.9 5.9 0 0 1 -2.6.993c.886-.356 2.759-.928 2.425-2.094 0 0-1.519 1-2.263.871 2.588-1.147 2.28-1.3 2.256-1.842-.063-1.393-1.3-4.4-2.721-3.781-2.747 1.192-4.469 3.218-2.292 4.262-1.331-.219-1.705-.749-1.616-.885-1.853 2.082-3.389 2.345-.475 3.853a2.971 2.971 0 0 1 -1.946-.9s-5.815 4.957-.777 7.457a5.207 5.207 0 0 1 -2.1-1.461 3.522 3.522 0 0 0 -1.356 1.341c.38.43.391.795 1.143 1.367l-.02.008a2.939 2.939 0 0 1 -1.199-1.144c-.12.56.158 1.222 1.2 2.022a1.93 1.93 0 0 1 -1.3-.7 5.171 5.171 0 0 0 -.4 2.218 11.349 11.349 0 0 1 1.175 1.27.483.483 0 0 0 .227.261l-.019.008a.6.6 0 0 1 -.291-.252c-.2-.288-.763-.6-1.068-.993a3.938 3.938 0 0 0 1.413 2.631.955.955 0 0 1 -.719-.141 2.4 2.4 0 0 0 2.39 2.074h.126c-.168 1.3-.367 4.594.952 5.58.132.1.587.015.521-.1-.674-1.185-.857-2.01-.68-5.518.14-.01.171-.014.278-.028 4.365-1.065 6.035-2.791 6.454-3.565zm-3.824 1.807-.017-.006c1.847-1.064 2.472-1.671 3.3-2.146h.02a14.181 14.181 0 0 1 -3.303 2.152zm4.832-4.754.018.006a18.071 18.071 0 0 1 -2.949 1.894l-.017-.006c1.402-.826 1.981-1.453 2.948-1.894zm-1.759 2.264.017.006a11.513 11.513 0 0 1 -3.442 1.83l-.011-.009c1.808-.649 2.147-1.304 3.436-1.827zm-8.16-5.042h.023c.473.415.573.957 1.847 1.452l-.017.01c-1.208-.363-1.846-.969-1.854-1.462zm-1.327 5.714s0-.007.011-.008a.033.033 0 0 1 .017 0h.006a.145.145 0 0 1 .011.028 5.491 5.491 0 0 0 1.582 1.715l-.019.009a2.7 2.7 0 0 1 -1.608-1.744zm1.9 3.169s-.043-.011-.114-.033a1.753 1.753 0 0 1 -1.232-1.242h.024c.32.607.637.715 1.274 1.215.043.034.065.055.065.055z" fill="url(#a)"/><g fill="#fff"><path d="m20.322 11.523a1.5 1.5 0 1 1 -.439-1.061 1.5 1.5 0 0 1 .439 1.061z"/><path d="m17.047 11.523a1.5 1.5 0 1 1 -.439-1.061 1.5 1.5 0 0 1 .439 1.061z"/></g></svg>