<svg fill="none" version="1.1" viewBox="0 0 32 32" xmlns="http://www.w3.org/2000/svg"><title>file_type_tsdown</title><g stroke-width=".39308"><path d="m-3.795 35.294h39.7v-38.921h-39.7z" fill="none"/><path d="m7.6926 4.8445c2.3995-2.647 9.5955-3.6084 11.442-2.6778 1.8461 0.93021 7.5259 8.0177 6.4592 9.7575-1.7841 2.909-4.822 5.0414-5.3833 5.4645-0.64711-1.0104-4.7025 0.70525-3.7755 2.5299 0.07027 0.76596-3.9533 2.6221-5.7847 2.7758-0.15483 0.03737-0.29894 0.03892-0.42876-7.78e-4 -2.3844-0.28646-6.649-5.071-7.1619-7.0097-0.91588-3.4663 3.7485-9.8638 4.633-10.84" fill="#bababa"/><path d="m7.6926 4.8445c2.3995-2.647 9.5955-3.6084 11.442-2.6778 1.8461 0.93021 7.5259 8.0177 6.4592 9.7575m-17.901-7.0797c-0.88492 0.97575-5.5493 7.3732-4.633 10.84 0.51213 1.9387 4.7771 6.7236 7.1619 7.0097m-2.5289-17.849c4.394 7.9379 9.139 10.645 8.742 11.182m9.1588-4.1023c-1.7841 2.909-4.822 5.0414-5.3833 5.4645-0.64711-1.0104-4.7025 0.70525-3.7755 2.5299 0.0766 0.8333-4.6926 2.9572-6.2131 2.7751m15.372-10.769-9.1588 4.1023m-6.2131 6.6672c1.7015 0.52544 5.8161-6.1301 6.2131-6.6672" stroke="rgba(107, 107, 107, 0.78)"/><path d="m16.441 19.909c-0.77177-1.8955 3.0351-3.5037 3.7715-2.5299l8.5316 8.9596c-0.53397-0.94189-5.5572 1.8484-4.5655 3.5029z" fill="#d1a656" stroke="rgba(122, 85, 15, 1)"/><path d="m23.982 29.452c0.30688 1.7927 5.8943-1.2112 4.764-3.1137-0.1465-0.98703-4.928 1.4903-4.764 3.1137z" fill="#b87e44" stroke="rgba(122, 85, 15, 1)"/><path d="m11.689 6.3764c-0.53158-1.5557 6.8395-2.6723 6.8491-2.0476 0.89405 0.14362 4.7172 5.6813 4.1899 5.5968 0.02499 1.0197-4.8867 3.1491-5.8633 2.7369-0.55898 0-4.1951-3.4157-5.1757-6.2857z" fill="#89a5e8" stroke="rgba(69, 106, 191, 1)"/><path d="m18.763 9.4228 0.0405 0.13545q9e-3 0.029181 0.01508 0.044773l0.0094 0.024902 0.0074 0.017909 0.0094 0.022575a0.397 0.38921 0 0 0 0.02621 0.055651 0.794 0.77842 0 0 0 0.02779 0.049058 0.794 0.77842 0 0 0 0.03374 0.053715l0.03413 0.054892 0.0238 0.034659a0.397 0.38921 0 0 1 0.0254 0.038943l0.0135 0.022568a0.397 0.38921 0 0 1 0.03096 0.055248q0.0074 0.01519 0.01665 0.03542l0.03971 0.08326 0.01984 0.04011q0.01014 0.01947 0.01788 0.03657l0.03178 0.07238a0.397 0.38921 0 0 0 0.02976 0.05682 1.191 1.1676 0 0 1 0.03177 0.05915l0.01586 0.03231a1.191 1.1676 0 0 0 0.03017 0.06072l0.0143 0.02803 0.0143 0.02804q0.0071 0.01401 0.01469 0.02685a0.794 0.77842 0 0 1 0.03177 0.05643 1.191 1.1676 0 0 1 0.03334 0.06305l0.025 0.04787 0.02578 0.04787a1.588 1.5568 0 0 0 0.04565 0.0794l0.0039 0.0069q0.0012 0.0031 0.0036 0.0058l4e-3 0.0069 0.0036 0.0078 0.0039 0.0077a0.1191 0.11676 0 0 1 8e-3 0.01869q0.0026 0.0061 0.0039 0.01093l0.0031 0.0087 4e-3 0.0097q0.0026 0.0055 0.01115 0.02803l0.01391 0.03973m-1.7476-1.3233 0.12704-0.075507 0.05162-0.031526q0.02184-0.014402 0.04686-0.028417l0.04365-0.025677a1.191 1.1676 0 0 1 0.08934-0.049029l0.04763-0.024523 0.0929-0.047491q0.02379-0.011651 0.04645-0.023751l0.04605-0.023349 0.08496-0.042033 0.04444-0.021397a3.97 3.8921 0 0 0 0.17601-0.091163l0.08415-0.042032a1.985 1.9461 0 0 1 0.16873-0.073169l0.08891-0.034642 0.11752-0.043201 0.03095-0.01284 0.05757-0.021794 0.05042-0.018687a0.397 0.38921 0 0 1 0.03056-0.010059l0.01747-0.00624 0.02065-0.00928 0.0794-0.039706m1.4486-0.46049a5.161 5.0597 0 0 0-0.13466-0.063072l-0.02779-0.011671a0.48553 0.476 0 0 0-0.08814-0.02141 0.397 0.38921 0 0 0-0.06271-0.0023l-0.04009 3.894e-4a0.37318 0.36586 0 0 0-0.10482 0.027243 0.5161 0.50597 0 0 0-0.09925 0.054491 0.397 0.38921 0 0 0-0.0409 0.033081 0.794 0.77842 0 0 0-0.06749 0.072q-0.01745 0.022567-0.03613 0.0506l-0.03532 0.052544a0.794 0.77842 0 0 0-0.03137 0.0506 0.5558 0.54489 0 0 0-0.04604 0.10236 0.7146 0.70058 0 0 0-0.03414 0.16892 1.191 1.1676 0 0 0-0.0039 0.065004 3.176 3.1137 0 0 0-0.0024 0.12883q0 0.030361 6e-3 0.062274a0.4764 0.46705 0 0 0 0.0651 0.15958 1.191 1.1676 0 0 0 0.05558 0.077851 0.397 0.38921 0 0 0 0.03693 0.038916l0.01548 0.011651a0.23026 0.22574 0 0 0 0.04089 0.018287 0.397 0.38921 0 0 0 0.06036 0.014779q0.01198 0.00204 0.027 0.0026l0.03257 0.00126q0.01788 0 0.04209-0.00126a0.397 0.38921 0 0 0 0.04686-0.00669 0.794 0.77842 0 0 0 0.15205-0.050595l0.06192-0.028019 0.0651-0.028811a1.191 1.1676 0 0 1 0.19765-0.069276 1.985 1.9461 0 0 1 0.12823-0.022183l0.05915-0.00896a1.191 1.1676 0 0 1 0.19398-0.014798l0.02501-3.901e-4h0.02422q0.0031 0 0.0135 0.00392a0.397 0.38921 0 0 1 0.05319 0.024525 0.397 0.38921 0 0 1 0.03771 0.022567 0.397 0.38921 0 0 1 0.02379 0.019462l0.01148 0.010059a0.0397 0.038921 0 0 1 0.0094 0.011651l0.0104 0.01907 0.0131 0.025699q8e-3 0.014019 0.01468 0.029586a0.2779 0.27245 0 0 1 0.02065 0.07084q0.0024 0.017122 0.0036 0.035801a1.191 1.1676 0 0 1 0.0022 0.079007 0.397 0.38921 0 0 1-0.0036 0.042794 0.397 0.38921 0 0 1-0.0104 0.046711 1.191 1.1676 0 0 1-0.03216 0.10042 0.74239 0.72782 0 0 1-0.25964 0.34717 0.9131 0.89518 0 0 1-0.11314 0.06617 0.72731 0.71303 0 0 1-0.12108 0.04593 1.588 1.5568 0 0 1-0.1195 0.02881 0.794 0.77842 0 0 1-0.0528 0.0078l-0.11394 0.01061-0.04805 4e-3 -0.04049 0.0034-0.03811 0.0018-0.08535 0.0042a1.191 1.1676 0 0 1-0.09132 0.0025 0.794 0.77842 0 0 1-0.06591-0.0014l-0.02225-0.0012a0.1191 0.11676 0 0 1-0.03412-9e-3l-0.03865-0.01436" stroke="rgba(255, 255, 255, 1)" stroke-linecap="round"/><path d="m9.6565 11.88c0.46965-0.50014 2.1533 1.4911 1.8091 2.0842-0.54786 0.94384-2.143 2.2683-2.143 2.663 0 0.39466 0.80075 0.6383 0.80075 1.3689 0 0.38687-3.1839 0.03425-3.1776-0.19655-0.24892-0.17903-0.73048-2.4828-0.63679-3.6703 0.093295-1.1875 1.2922 1.0762 1.4836 0.77881 1.1434-1.7756 1.3947-2.5275 1.8639-3.0281z" fill="#fcd056" stroke="rgba(184, 151, 61, 1)"/></g></svg>
