<?xml version="1.0" encoding="UTF-8" standalone="no"?>
<svg
   xmlns:dc="http://purl.org/dc/elements/1.1/"
   xmlns:cc="http://creativecommons.org/ns#"
   xmlns:rdf="http://www.w3.org/1999/02/22-rdf-syntax-ns#"
   xmlns:svg="http://www.w3.org/2000/svg"
   xmlns="http://www.w3.org/2000/svg"
   xmlns:sodipodi="http://sodipodi.sourceforge.net/DTD/sodipodi-0.dtd"
   xmlns:inkscape="http://www.inkscape.org/namespaces/inkscape"
   viewBox="0 0 32 32"
   version="1.1"
   id="svg3750"
   sodipodi:docname="file_type_anyscript.svg"
   inkscape:version="0.92.1 r15371">
  <metadata
     id="metadata3756">
    <rdf:RDF>
      <cc:Work
         rdf:about="">
        <dc:format>image/svg+xml</dc:format>
        <dc:type
           rdf:resource="http://purl.org/dc/dcmitype/StillImage" />
        <dc:title>file_type_anyscript</dc:title>
      </cc:Work>
    </rdf:RDF>
  </metadata>
  <defs
     id="defs3754" />
  <sodipodi:namedview
     pagecolor="#ffffff"
     bordercolor="#666666"
     borderopacity="1"
     objecttolerance="10"
     gridtolerance="10"
     guidetolerance="10"
     inkscape:pageopacity="0"
     inkscape:pageshadow="2"
     inkscape:window-width="1920"
     inkscape:window-height="1017"
     id="namedview3752"
     showgrid="false"
     inkscape:zoom="20.100741"
     inkscape:cx="26.5625"
     inkscape:cy="16.295696"
     inkscape:window-x="-8"
     inkscape:window-y="-8"
     inkscape:window-maximized="1"
     inkscape:current-layer="svg3750"
     showguides="true"
     inkscape:guide-bbox="true"
     inkscape:measure-start="-2.33962,15.5094"
     inkscape:measure-end="-2.37736,15.3585">
    <sodipodi:guide
       position="-7.8125,52.734375"
       orientation="0,1"
       id="guide3855"
       inkscape:locked="false" />
  </sodipodi:namedview>
  <title
     id="title3746">file_type_anyscript</title>
  <path
     style="fill:#96092b;fill-opacity:1;fill-rule:evenodd;stroke:none;stroke-width:0.07631322;stroke-miterlimit:4;stroke-dasharray:none"
     d="m 19.678589,11.250362 h -1.36183 c -0.07819,0 -0.130319,0.04561 -0.182446,0.07819 -0.05865,0.05213 -0.07819,0.110772 -0.07819,0.182448 l 0.05212,7.890887 -3.681504,-7.975595 c -0.01954,-0.05865 -0.03258,-0.117289 -0.09123,-0.13032 -0.01954,-0.04561 -0.07168,-0.04561 -0.130318,-0.04561 h -1.713692 c -0.07819,0 -0.130318,0.04561 -0.169413,0.07819 -0.05212,0.05213 -0.09122,0.110772 -0.09122,0.182448 v 10.77748 c 0,0.05865 0.03909,0.13032 0.09122,0.188964 0.03909,0.05213 0.09123,0.07168 0.169413,0.07168 h 1.381379 c 0.07168,0 0.130318,-0.01954 0.182446,-0.07168 0.03909,-0.05865 0.07819,-0.13032 0.07819,-0.188964 l -0.07819,-7.851791 3.688019,7.969079 c 0,0.04561 0.05865,0.07168 0.07168,0.0847 0.05865,0.03909 0.110771,0.05865 0.162899,0.05865 h 1.70066 c 0.09122,0 0.130318,-0.01954 0.182446,-0.07168 0.05864,-0.05865 0.07819,-0.13032 0.07819,-0.188964 V 11.511001 c 0,-0.07168 -0.01954,-0.13032 -0.07819,-0.182448 -0.05212,-0.03258 -0.09122,-0.07819 -0.182446,-0.07819"
     id="path2993"
     inkscape:connector-curvature="0" />
  <path
     style="fill:#96092b;fill-opacity:1;fill-rule:evenodd;stroke:none;stroke-width:0.07631322;stroke-miterlimit:4;stroke-dasharray:none"
     d="m 5.3296426,16.709955 1.2510605,-5.173711 1.2119627,5.173711 z m 0.260638,-8.2492674 c -0.052126,0.045609 -0.071674,0.07819 -0.1042548,0.1563833 L 1.9999997,22.287658 v 0.162901 c 0.00651,0.01303 0.013031,0.02607 0.019549,0.04561 0.032579,0.03258 0.091224,0.09123 0.1628987,0.09123 l 1.3618297,0.390961 c 0.039096,0 0.071675,0.03258 0.1303185,0 0.039097,0 0.078192,-0.01955 0.1303193,-0.07168 0.039095,-0.02607 0.058644,-0.07819 0.058644,-0.117289 L 4.9061082,18.456248 H 8.242266 l 1.0555818,4.333145 c 0,0.03909 0.019547,0.09123 0.039096,0.117289 0.032579,0.05212 0.091222,0.07168 0.1303185,0.07168 0.03258,0.03258 0.091222,0.03258 0.1303186,0 l 1.3553151,-0.35838 c 0.07168,-0.03258 0.130319,-0.09122 0.149867,-0.123805 0.05212,-0.07819 0.05212,-0.130319 0.05212,-0.208513 L 7.6623482,8.6170709 C 7.6427996,8.5388809 7.6037035,8.5062988 7.5646085,8.4606876 7.5189962,8.4346207 7.4603537,8.4150786 7.4082257,8.4150786 H 7.4017117 5.746664 5.7336316 c -0.065159,0 -0.1172859,0.019542 -0.1433501,0.045609"
     id="path2997"
     inkscape:connector-curvature="0" />
  <g
     id="g3820"
     transform="matrix(1.0929551,0,0,1.0929551,-3.8121458,-0.46832599)">
    <path
       inkscape:connector-curvature="0"
       id="path2995"
       d="m 24.49775,10.602787 c -0.05366,-0.06558 -0.08347,-0.0775 -0.137122,-0.119237 -0.06558,-0.01192 -0.119235,-0.01192 -0.184814,0.04173 l -1.192351,0.608106 c -0.06558,0.01789 -0.119236,0.07154 -0.119236,0.137122 -0.01789,0.07154 -0.01789,0.119236 0.03577,0.190779 l 3.147808,5.633926 v 3.726142 c 0,0.05366 0.01788,0.119236 0.06558,0.172893 0.03577,0.0477 0.08943,0.06558 0.155005,0.06558 h 1.263894 c 0.06558,0 0.119235,-0.01788 0.166929,-0.06558 0.05365,-0.05366 0.07154,-0.119237 0.07154,-0.172893 v -3.726142 l 3.165693,-5.633926 c 0.01789,-0.03577 0.01789,-0.08943 0.01789,-0.119237 0,-0.03577 0,-0.08943 -0.01789,-0.119237 -0.01788,-0.03577 -0.06558,-0.07154 -0.10135,-0.08943 l -1.192353,-0.608106 c -0.05366,-0.05366 -0.119234,-0.05366 -0.17289,-0.04173 -0.06558,0.04173 -0.119235,0.05366 -0.13712,0.119237 l -2.414511,4.668111 z"
       style="fill:#96092b;fill-opacity:1;fill-rule:evenodd;stroke:none;stroke-width:0.06982283;stroke-miterlimit:4;stroke-dasharray:none" />
    <path
       style="fill:#ffffff;fill-opacity:1;fill-rule:evenodd;stroke:none;stroke-width:0.08727854"
       d="m 26.848183,9.5832597 c -1.013121,-0.00562 -1.625486,1.2869163 -1.047343,2.0946853 0.491777,0.822137 1.822627,0.776239 2.269242,-0.06 C 28.599024,10.71483 27.92099,9.5064656 26.848183,9.5832637 Z"
       id="path3001-5"
       inkscape:connector-curvature="0" />
    <path
       inkscape:connector-curvature="0"
       id="path3001"
       d="m 26.918224,9.7562073 c -0.339821,0 -0.596176,0.1192365 -0.834646,0.3398247 -0.208663,0.238473 -0.327897,0.506755 -0.327897,0.81677 0,0.339823 0.119234,0.631954 0.327897,0.834655 0.23847,0.238474 0.494825,0.35771 0.834646,0.35771 0.304048,0 0.596176,-0.119236 0.834645,-0.35771 0.202699,-0.202701 0.321934,-0.494832 0.321934,-0.834655 0,-0.310015 -0.119235,-0.578297 -0.321934,-0.81677 C 27.5144,9.8754438 27.222272,9.7562073 26.918224,9.7562073"
       style="fill:#a7a6a6;fill-opacity:1;fill-rule:evenodd;stroke:none;stroke-width:0.08727854" />
  </g>
</svg>
