<svg viewBox="0 0 32 32" xmlns="http://www.w3.org/2000/svg"><path d="m2.73 6.67 13.12-4.67v28l-11.08-6.12z" fill="#1dbf34"/><path d="m15.85 2 13.42 4.59-2.19 17.21-11.23 6.2z" fill="#168f27"/><path d="m15.85 5.14 8.53 18.23h-2.91l-1.82-4.16h-3.8v-2.48h2.77l-2.77-5.73-2.33 5.73h2.33v2.48h-3.47l-1.63 4.16h-3.14z" fill="#fff"/><path d="m15.64 27.93 1.67-1a1.51 1.51 0 0 0 1.31 1.07c.67 0 1.1-.26 1.1-1.29v-7h2v7a2.78 2.78 0 0 1 -3.06 3.09 3.18 3.18 0 0 1 -3.07-1.87m7.29-.22 1.67-1a2.23 2.23 0 0 0 2 1.24 1.18 1.18 0 0 0 1.431-.859q.011-.045.019-.091c0-.7-.56-1-1.49-1.36l-.51-.22c-1.48-.63-2.46-1.42-2.46-3.09a2.74 2.74 0 0 1 2.76-2.722q.121 0 .242.012a3 3 0 0 1 2.91 1.64l-1.59 1a1.39 1.39 0 0 0 -1.32-.88.89.89 0 0 0 -1 .88c0 .61.38.86 1.26 1.24l.51.22c1.688.75 2.688 1.51 2.688 3.23s-1.45 2.85-3.39 2.85a3.93 3.93 0 0 1 -3.73-2.09" fill="#f7df1e"/></svg>