<svg xmlns="http://www.w3.org/2000/svg" viewBox="0 0 32 32"><title>file_type_falcon</title><path d="M20.81,4.58c-1.24.78-3,2-5.37,3.51a60,60,0,0,0-5.83,4.18c-.81.84-1.45,3-2.94,4.82a23.7,23.7,0,0,1-3.2,3.29,9.75,9.75,0,0,0,3.2-1.23A12.56,12.56,0,0,0,10,16.35a17.63,17.63,0,0,1,1.35-1.86c1.18-1.12,5.31-2.8,7.83-3.6s3.1-.31,5.6-.78a9.72,9.72,0,0,0,3.37-1L30,3.4,20.81,6.79Z" style="fill:#e24329"/><path d="M30,10.55l-3.51,6.12h-2.8L16,15.12v-1L19.57,12l2.62-.42ZM12.88,16.73l-.31,3.09-1.63.48-1.71-.57Z" style="fill:#fc6d26"/><path d="M3.47,21a2.34,2.34,0,0,0-.28,1c0,.45-1.19.7-1.19,2.11a3.65,3.65,0,0,0,1.87,2.9L6.34,28.6A3.53,3.53,0,0,1,6,26.87a1.5,1.5,0,0,1,.79-1.35c.67-.53,6.77-1.59,8.59-1.33a5.92,5.92,0,0,1,3.37,1.87L27,20l-2.13-1.94H23.47l-1.94-.93H15.92l-2.36,4.93q-4.72-.23-5.67-.34C7.25,21.64,5.79,21.43,3.47,21Z" style="fill:#fca326"/></svg>
