<svg xmlns="http://www.w3.org/2000/svg" viewBox="0 0 32 32"><title>file_type_sas</title><path d="M16.018,30A14,14,0,1,1,30,16.2,14,14,0,0,1,16.018,30Z" style="fill:#002bb5"/><path d="M9.17,22.63c.026.061.046.124.077.183,2.215,4.206,7.738,4.616,10.756,2.454a6.017,6.017,0,0,0,1.731-8.583,15.7,15.7,0,0,0-1.318-1.731c-.881-1.067-1.755-2.14-2.636-3.207-.366-.443-.767-.835-1.416-.683a1.393,1.393,0,0,0-.816,2.311c.888,1.106,1.819,2.177,2.7,3.286a3.874,3.874,0,0,1,.589,4.4,5.423,5.423,0,0,1-5,3.134A6.6,6.6,0,0,1,9.17,22.63Z" style="fill:#fff"/><path d="M22.494,9.609c.08-.248-.066-.37-.141-.509A7.477,7.477,0,0,0,12.6,6.237c-3.3,1.63-5.1,5.352-2.637,9.147a56.53,56.53,0,0,0,4.135,5.12,1.012,1.012,0,0,0,.709.345,1.384,1.384,0,0,0,1.428-.765,1.247,1.247,0,0,0-.173-1.507c-.876-1.051-1.769-2.088-2.615-3.162a4.13,4.13,0,0,1,.323-5.771A6.054,6.054,0,0,1,19.984,8.13,5.19,5.19,0,0,1,22.494,9.609Z" style="fill:#fff"/></svg>