<svg viewBox="0 0 32 32" xmlns="http://www.w3.org/2000/svg"><g fill="#fbc02d"><path d="m2 12.217c.755 0 1.51-.008 2.264 0l.053.038 2.761 2.758c.891-.906 1.8-1.794 2.7-2.7.053-.052.11-.113.192-.1h1.823a1.4 1.4 0 0 1 .353.019c-.7.67-1.377 1.369-2.069 2.05l-4.533 4.518c-.331.324-.648.663-.989.975-.754.022-1.511.007-2.266.007 1.223-1.209 2.431-2.433 3.658-3.637-1.321-1.305-2.63-2.621-3.947-3.928z"/><path d="m12.7 12.217h1.839q0 3.783 0 7.566c-.611 0-1.222.012-1.832-.008v-4.994c-1.6 1.607-3.209 3.2-4.811 4.8-.089.08-.166.217-.3.194-.824-.006-1.649 0-2.474 0q3.794-3.775 7.578-7.558z"/><path d="m14.957 12.219c.47-.009.939 0 1.409 0 .836.853 1.69 1.689 2.536 2.532q1.268-1.267 2.539-2.532h1.4q-.008 3.784 0 7.567c-.471 0-.943.006-1.414 0q.008-2.387 0-4.773c-.844.843-1.676 1.7-2.526 2.536-.856-.835-1.687-1.695-2.532-2.541 0 1.594-.006 3.188.006 4.781-.472 0-.943 0-1.415 0q-.003-3.789-.003-7.57z"/><path d="m23.259 12.216c.472 0 .944-.007 1.416 0q-.007 3.083 0 6.166h3.782c.063.006.144-.012.191.045.448.454.907.9 1.353 1.354q-3.371.007-6.741 0 .007-3.781-.001-7.565z"/></g><path d="m12.633 24.6-1.666-1.368-1.668 1.367-1.677-1.369-1.676 1.368-1.673-1.368-1.074.878-1.2-.647 2.274-1.86 1.673 1.369 1.676-1.368 1.675 1.368 1.67-1.37 1.669 1.368 1.667-1.366 1.679 1.369 1.674-1.37 1.675 1.37 1.68-1.368 1.676 1.368 1.68-1.369 1.673 1.369 1.678-1.367 2.283 1.855-1.199.65-1.084-.881-1.682 1.369-1.672-1.367-1.679 1.367-1.676-1.368-1.681 1.368-1.672-1.367-1.673 1.367-1.677-1.367z" fill="#c1272d"/></svg>