<svg viewBox="0 0 32 32" xmlns="http://www.w3.org/2000/svg" xmlns:xlink="http://www.w3.org/1999/xlink"><clipPath id="a"><path d="m21.45 12.09 1.92-1.61v9.03l-1.87 3.94-.98-8.57z"/></clipPath><clipPath id="b"><path d="m8.89 12.12h12.63v11.34h-12.63z"/></clipPath><clipPath id="c"><path d="m23.26 10.6h-11.75l-2.59 1.58v11.24h12.62v-.13l1.83-3.86v-8.95z"/></clipPath><clipPath id="d"><path d="m15.35 18a.94.94 0 0 0 -.89.54.89.89 0 0 0 .83.75 1.06 1.06 0 0 0 .86-.79 1.06 1.06 0 0 0 -.8-.51z"/></clipPath><clipPath id="e"><path d="m12.77 18.37c1.07 0 .67 2.73.65 3.6s.16 1.66.18 2.24.31 2.3-1 2.29-.5-3.37-.49-4.07c.01 0-.41-4.09.66-4.06zm3.63 0c-1.07 0-.67 2.73-.65 3.6s-.16 1.66-.18 2.24-.31 2.3 1 2.29.5-3.37.49-4.07c0 0 .42-4.09-.65-4.06z"/></clipPath><clipPath id="f"><path d="m21.94 17.34s.07-.87.76-.68a1.55 1.55 0 0 1 .069 2.191q-.033.036-.069.069a6.66 6.66 0 0 1 -3.7 1.89c-1.41.34-1.35.7-2.68.85s-1.6-.46-1.59-1 .49-1.21 1.7-1.18 1.07.48 2.29.27a7.86 7.86 0 0 0 2.91-1.15c.42-.32.79-.76.31-1.26zm-13.08.23a1.49 1.49 0 0 0 -1.25 1.43c.12 1.13 1.1 1.37 2.23 1.63s.92.79 2.28.92 1.9-.49 1.77-1.29-1.48-.76-3-.77a2.3 2.3 0 0 1 -2-.72v-1.2z"/></clipPath><circle cx="16" cy="16" fill="#2dcc9f" r="14"/><path d="m8.88 12.14 2.63-1.59h11.84l-1 2.74-8.76.8-4.72-2z" fill="#d0f5f5"/><path d="m21.49 12.14 1.86-1.6v9l-1.85 3.91-1-8.57z" fill="#c8eeee"/><g clip-path="url(#a)"><path d="m17 21.69s5.21-1.21 6-2.95-1.32.42-1.32.42l-4.86 1.57.21 1zm-4.56-.12a2.64 2.64 0 0 1 -1.7-.24 10.36 10.36 0 0 0 -2.18-.65l-.14-.68.58-.27 2.4.95 1 .89z" fill="#9deeee" opacity=".35"/></g><path d="m8.89 12.12h12.63v11.33h-12.63z" fill="#f0ffff"/><g clip-path="url(#b)"><path d="m17 21.69s5.21-1.21 6-2.95-1.32.42-1.32.42l-4.86 1.57.21 1zm-4.56-.12a2.64 2.64 0 0 1 -1.7-.24 10.36 10.36 0 0 0 -2.18-.65l-.14-.68.58-.27 2.4.95 1 .89z" fill="#9deeee" opacity=".35"/></g><g clip-path="url(#c)" fill="#d0f5f5"><circle cx="10.3" cy="14.44" opacity=".35" r=".13"/><circle cx="10.3" cy="14.44" opacity=".35" r=".12"/><circle cx="10.3" cy="14.44" opacity=".35" r=".12"/><circle cx="10.44" cy="13.51" opacity=".35" r=".13"/><circle cx="10.44" cy="13.51" opacity=".35" r=".12"/><circle cx="10.44" cy="13.51" opacity=".35" r=".12"/><circle cx="11.67" cy="11.24" opacity=".35" r=".13"/><circle cx="11.67" cy="11.24" opacity=".35" r=".12"/><circle cx="11.67" cy="11.24" opacity=".35" r=".12"/><circle cx="11.15" cy="12.22" opacity=".35" r=".13"/><circle cx="11.15" cy="12.22" opacity=".35" r=".12"/><circle cx="11.15" cy="12.22" opacity=".35" r=".12"/><circle cx="7.27" cy="13.22" opacity=".35" r=".13"/><circle cx="7.27" cy="13.22" opacity=".35" r=".12"/><circle cx="7.27" cy="13.22" opacity=".35" r=".12"/><circle cx="9.76" cy="9.65" opacity=".35" r=".13"/><circle cx="9.76" cy="9.65" opacity=".35" r=".12"/><circle cx="9.76" cy="9.65" opacity=".35" r=".12"/><circle cx="10.39" cy="10.91" opacity=".35" r=".13"/><circle cx="10.39" cy="10.91" opacity=".35" r=".12"/><circle cx="10.39" cy="10.91" opacity=".35" r=".12"/><circle cx="7.66" cy="12.37" opacity=".35" r=".13"/><circle cx="7.66" cy="12.37" opacity=".35" r=".12"/><circle cx="7.66" cy="12.37" opacity=".35" r=".12"/><circle cx="11.8" cy="8.49" opacity=".35" r=".13"/><circle cx="11.8" cy="8.49" opacity=".35" r=".12"/><circle cx="11.8" cy="8.49" opacity=".35" r=".12"/><circle cx="7.65" cy="13.81" opacity=".35" r=".13"/><circle cx="7.65" cy="13.81" opacity=".35" r=".12"/><circle cx="7.65" cy="13.81" opacity=".35" r=".12"/><circle cx="12.35" cy="9.39" opacity=".35" r=".13"/><circle cx="12.35" cy="9.39" opacity=".35" r=".12"/><circle cx="12.35" cy="9.39" opacity=".35" r=".12"/><circle cx="11.08" cy="13.97" opacity=".35" r=".13"/><circle cx="11.08" cy="13.97" opacity=".35" r=".12"/><circle cx="11.08" cy="13.97" opacity=".35" r=".12"/><circle cx="9.1" cy="14.94" opacity=".35" r=".13"/><circle cx="9.1" cy="14.94" opacity=".35" r=".12"/><circle cx="9.1" cy="14.94" opacity=".35" r=".12"/><circle cx="15.36" cy="8.32" opacity=".35" r=".13"/><circle cx="15.36" cy="8.32" opacity=".35" r=".12"/><circle cx="15.36" cy="8.32" opacity=".35" r=".12"/><circle cx="7.52" cy="17.54" opacity=".35" r=".13"/><circle cx="7.52" cy="17.54" opacity=".35" r=".12"/><circle cx="7.52" cy="17.54" opacity=".35" r=".12"/><circle cx="16.23" cy="9.25" opacity=".35" r=".13"/><circle cx="16.23" cy="9.25" opacity=".35" r=".12"/><circle cx="16.23" cy="9.25" opacity=".35" r=".12"/><circle cx="10.97" cy="16.97" opacity=".35" r=".13"/><circle cx="10.97" cy="16.97" opacity=".35" r=".12"/><circle cx="10.97" cy="16.97" opacity=".35" r=".12"/><circle cx="15.77" cy="11.57" opacity=".35" r=".13"/><circle cx="15.77" cy="11.57" opacity=".35" r=".12"/><circle cx="15.77" cy="11.57" opacity=".35" r=".12"/><circle cx="15.73" cy="12.3" opacity=".35" r=".13"/><circle cx="15.73" cy="12.3" opacity=".35" r=".12"/><circle cx="15.73" cy="12.3" opacity=".35" r=".12"/><circle cx="12.09" cy="15.13" opacity=".35" r=".13"/><circle cx="12.09" cy="15.13" opacity=".35" r=".12"/><circle cx="12.09" cy="15.13" opacity=".35" r=".12"/><circle cx="14.49" cy="10.25" opacity=".35" r=".13"/><circle cx="14.49" cy="10.25" opacity=".35" r=".12"/><circle cx="14.49" cy="10.25" opacity=".35" r=".12"/><circle cx="14.59" cy="9.69" opacity=".35" r=".13"/><circle cx="14.59" cy="9.69" opacity=".35" r=".12"/><circle cx="14.59" cy="9.69" opacity=".35" r=".12"/><circle cx="14.55" cy="11.03" opacity=".35" r=".13"/><circle cx="14.55" cy="11.03" opacity=".35" r=".12"/><circle cx="14.55" cy="11.03" opacity=".35" r=".12"/><circle cx="14.02" cy="10.82" opacity=".35" r=".13"/><circle cx="14.02" cy="10.82" opacity=".35" r=".12"/><circle cx="14.02" cy="10.82" opacity=".35" r=".12"/><circle cx="14.24" cy="11.53" opacity=".35" r=".13"/><circle cx="14.24" cy="11.53" opacity=".35" r=".12"/><circle cx="14.24" cy="11.53" opacity=".35" r=".12"/><circle cx="13.35" cy="10.95" opacity=".35" r=".13"/><circle cx="13.35" cy="10.95" opacity=".35" r=".12"/><circle cx="13.35" cy="10.95" opacity=".35" r=".12"/><circle cx="12.4" cy="11.5" opacity=".35" r=".13"/><circle cx="12.4" cy="11.5" opacity=".35" r=".12"/><circle cx="12.4" cy="11.5" opacity=".35" r=".12"/><circle cx="10.82" cy="11.71" opacity=".35" r=".13"/><circle cx="10.82" cy="11.71" opacity=".35" r=".12"/><circle cx="10.82" cy="11.71" opacity=".35" r=".12"/><circle cx="10.21" cy="12.01" opacity=".35" r=".13"/><circle cx="10.21" cy="12.01" opacity=".35" r=".12"/><circle cx="10.21" cy="12.01" opacity=".35" r=".12"/><circle cx="9.37" cy="11.83" opacity=".35" r=".13"/><circle cx="9.37" cy="11.83" opacity=".35" r=".12"/><circle cx="9.37" cy="11.83" opacity=".35" r=".12"/><circle cx="8.97" cy="11.34" opacity=".35" r=".13"/><circle cx="8.97" cy="11.34" opacity=".35" r=".12"/><circle cx="8.97" cy="11.34" opacity=".35" r=".12"/><circle cx="8.79" cy="11.92" opacity=".35" r=".13"/><circle cx="8.79" cy="11.92" opacity=".35" r=".12"/><circle cx="8.79" cy="11.92" opacity=".35" r=".12"/><circle cx="8.82" cy="12.82" opacity=".35" r=".13"/><circle cx="8.82" cy="12.82" opacity=".35" r=".12"/><circle cx="8.82" cy="12.82" opacity=".35" r=".12"/><circle cx="8.96" cy="13.48" opacity=".35" r=".13"/><circle cx="8.96" cy="13.48" opacity=".35" r=".12"/><circle cx="8.96" cy="13.48" opacity=".35" r=".12"/><circle cx="12.22" cy="13.31" opacity=".35" r=".13"/><circle cx="12.22" cy="13.31" opacity=".35" r=".12"/><circle cx="12.22" cy="13.31" opacity=".35" r=".12"/><circle cx="14.59" cy="12.31" opacity=".35" r=".13"/><circle cx="14.59" cy="12.31" opacity=".35" r=".12"/><circle cx="14.59" cy="12.31" opacity=".35" r=".12"/><circle cx="15.99" cy="10.38" opacity=".35" r=".13"/><circle cx="15.99" cy="10.38" opacity=".35" r=".12"/><circle cx="15.99" cy="10.38" opacity=".35" r=".12"/><circle cx="17.2" cy="9.41" opacity=".35" r=".13"/><circle cx="17.2" cy="9.41" opacity=".35" r=".12"/><circle cx="17.2" cy="9.41" opacity=".35" r=".12"/><circle cx="18.18" cy="8.94" opacity=".35" r=".13"/><circle cx="18.18" cy="8.94" opacity=".35" r=".12"/><circle cx="18.18" cy="8.94" opacity=".35" r=".12"/><circle cx="20.09" cy="8.74" opacity=".35" r=".13"/><circle cx="20.09" cy="8.74" opacity=".35" r=".12"/><circle cx="20.09" cy="8.74" opacity=".35" r=".12"/><circle cx="22.86" cy="9.68" opacity=".35" r=".13"/><circle cx="22.86" cy="9.68" opacity=".35" r=".12"/><circle cx="22.86" cy="9.68" opacity=".35" r=".12"/><circle cx="23.23" cy="10.24" opacity=".35" r=".13"/><circle cx="23.23" cy="10.24" opacity=".35" r=".12"/><circle cx="23.23" cy="10.24" opacity=".35" r=".12"/><circle cx="20.42" cy="11.15" opacity=".35" r=".13"/><circle cx="20.42" cy="11.15" opacity=".35" r=".12"/><circle cx="20.42" cy="11.15" opacity=".35" r=".12"/><circle cx="18.13" cy="11.67" opacity=".35" r=".13"/><circle cx="18.13" cy="11.67" opacity=".35" r=".12"/><circle cx="18.13" cy="11.67" opacity=".35" r=".12"/><circle cx="17.45" cy="11.38" opacity=".35" r=".13"/><circle cx="17.45" cy="11.38" opacity=".35" r=".12"/><circle cx="17.45" cy="11.38" opacity=".35" r=".12"/><circle cx="17.51" cy="11.97" opacity=".35" r=".13"/><circle cx="17.51" cy="11.97" opacity=".35" r=".12"/><circle cx="17.51" cy="11.97" opacity=".35" r=".12"/><circle cx="22.46" cy="10.34" opacity=".35" r=".13"/><circle cx="22.46" cy="10.34" opacity=".35" r=".12"/><circle cx="22.46" cy="10.34" opacity=".35" r=".12"/><circle cx="22.04" cy="9.69" opacity=".35" r=".13"/><circle cx="22.04" cy="9.69" opacity=".35" r=".12"/><circle cx="22.04" cy="9.69" opacity=".35" r=".12"/><circle cx="19.9" cy="9.25" opacity=".35" r=".13"/><circle cx="19.9" cy="9.25" opacity=".35" r=".12"/><circle cx="19.9" cy="9.25" opacity=".35" r=".12"/><circle cx="19.15" cy="9.07" opacity=".35" r=".13"/><circle cx="19.15" cy="9.07" opacity=".35" r=".12"/><circle cx="19.15" cy="9.07" opacity=".35" r=".12"/><circle cx="18.63" cy="10.1" opacity=".35" r=".13"/><circle cx="18.63" cy="10.1" opacity=".35" r=".12"/><circle cx="18.63" cy="10.1" opacity=".35" r=".12"/><circle cx="18.74" cy="9.62" opacity=".35" r=".13"/><circle cx="18.74" cy="9.62" opacity=".35" r=".12"/><circle cx="18.74" cy="9.62" opacity=".35" r=".12"/><circle cx="21.48" cy="10.68" opacity=".35" r=".13"/><circle cx="21.48" cy="10.68" opacity=".35" r=".12"/><circle cx="21.48" cy="10.68" opacity=".35" r=".12"/><circle cx="21.72" cy="11.35" opacity=".35" r=".13"/><circle cx="21.72" cy="11.35" opacity=".35" r=".12"/><circle cx="21.72" cy="11.35" opacity=".35" r=".12"/><circle cx="20.82" cy="12.27" opacity=".35" r=".13"/><circle cx="20.82" cy="12.27" opacity=".35" r=".12"/><circle cx="20.82" cy="12.27" opacity=".35" r=".12"/><circle cx="17.31" cy="13.38" opacity=".35" r=".13"/><circle cx="17.31" cy="13.38" opacity=".35" r=".12"/><circle cx="17.31" cy="13.38" opacity=".35" r=".12"/><circle cx="15.87" cy="13.65" opacity=".35" r=".13"/><circle cx="15.87" cy="13.65" opacity=".35" r=".12"/><circle cx="15.87" cy="13.65" opacity=".35" r=".12"/><circle cx="15" cy="13.8" opacity=".35" r=".13"/><circle cx="15" cy="13.8" opacity=".35" r=".12"/><circle cx="15" cy="13.8" opacity=".35" r=".12"/><circle cx="13.97" cy="15.51" opacity=".35" r=".13"/><circle cx="13.97" cy="15.51" opacity=".35" r=".12"/><circle cx="13.97" cy="15.51" opacity=".35" r=".12"/><circle cx="13.09" cy="15.72" opacity=".35" r=".13"/><circle cx="13.09" cy="15.72" opacity=".35" r=".12"/><circle cx="13.09" cy="15.72" opacity=".35" r=".12"/><circle cx="16.39" cy="16.06" opacity=".35" r=".13"/><circle cx="16.39" cy="16.06" opacity=".35" r=".12"/><circle cx="16.39" cy="16.06" opacity=".35" r=".12"/><circle cx="17.28" cy="15.39" opacity=".35" r=".13"/><circle cx="17.28" cy="15.39" opacity=".35" r=".12"/><circle cx="17.28" cy="15.39" opacity=".35" r=".12"/><circle cx="18.42" cy="13.97" opacity=".35" r=".13"/><circle cx="18.42" cy="13.97" opacity=".35" r=".12"/><circle cx="18.42" cy="13.97" opacity=".35" r=".12"/><circle cx="22.92" cy="12.64" opacity=".35" r=".13"/><circle cx="22.92" cy="12.64" opacity=".35" r=".12"/><circle cx="22.92" cy="12.64" opacity=".35" r=".12"/><circle cx="23.79" cy="11.87" opacity=".35" r=".13"/><circle cx="23.79" cy="11.87" opacity=".35" r=".12"/><circle cx="23.79" cy="11.87" opacity=".35" r=".12"/><circle cx="24" cy="12.36" opacity=".35" r=".13"/><circle cx="24" cy="12.36" opacity=".35" r=".12"/><circle cx="24" cy="12.36" opacity=".35" r=".12"/><circle cx="23.55" cy="12.94" opacity=".35" r=".13"/><circle cx="23.55" cy="12.94" opacity=".35" r=".12"/><circle cx="23.55" cy="12.94" opacity=".35" r=".12"/><circle cx="21.95" cy="14.97" opacity=".35" r=".13"/><circle cx="21.95" cy="14.97" opacity=".35" r=".12"/><circle cx="21.95" cy="14.97" opacity=".35" r=".12"/><circle cx="21.04" cy="15.68" opacity=".35" r=".13"/><circle cx="21.04" cy="15.68" opacity=".35" r=".12"/><circle cx="21.04" cy="15.68" opacity=".35" r=".12"/><circle cx="20.25" cy="16.2" opacity=".35" r=".13"/><circle cx="20.25" cy="16.2" opacity=".35" r=".12"/><circle cx="20.25" cy="16.2" opacity=".35" r=".12"/><circle cx="19.1" cy="17.12" opacity=".35" r=".13"/><circle cx="19.1" cy="17.12" opacity=".35" r=".12"/><circle cx="19.1" cy="17.12" opacity=".35" r=".12"/><circle cx="18.54" cy="17.96" opacity=".35" r=".13"/><circle cx="18.54" cy="17.96" opacity=".35" r=".12"/><circle cx="18.54" cy="17.96" opacity=".35" r=".12"/><circle cx="17.41" cy="19.06" opacity=".35" r=".13"/><circle cx="17.41" cy="19.06" opacity=".35" r=".12"/><circle cx="17.41" cy="19.06" opacity=".35" r=".12"/><circle cx="17.21" cy="19.91" opacity=".35" r=".13"/><circle cx="17.21" cy="19.91" opacity=".35" r=".12"/><circle cx="17.21" cy="19.91" opacity=".35" r=".12"/><circle cx="17.24" cy="21.15" opacity=".35" r=".13"/><circle cx="17.24" cy="21.15" opacity=".35" r=".12"/><circle cx="17.24" cy="21.15" opacity=".35" r=".12"/><circle cx="18.96" cy="22.46" opacity=".35" r=".13"/><circle cx="18.96" cy="22.46" opacity=".35" r=".12"/><circle cx="18.96" cy="22.46" opacity=".35" r=".12"/><circle cx="19.53" cy="23.26" opacity=".35" r=".13"/><circle cx="19.53" cy="23.26" opacity=".35" r=".12"/><circle cx="19.53" cy="23.26" opacity=".35" r=".12"/><circle cx="20.36" cy="23.38" opacity=".35" r=".13"/><circle cx="20.36" cy="23.38" opacity=".35" r=".12"/><circle cx="20.36" cy="23.38" opacity=".35" r=".12"/><circle cx="21.92" cy="22.56" opacity=".35" r=".13"/><circle cx="21.92" cy="22.56" opacity=".35" r=".12"/><circle cx="21.92" cy="22.56" opacity=".35" r=".12"/><circle cx="22.42" cy="20.25" opacity=".35" r=".13"/><circle cx="22.42" cy="20.25" opacity=".35" r=".12"/><circle cx="22.42" cy="20.25" opacity=".35" r=".12"/><circle cx="21.09" cy="18.32" opacity=".35" r=".13"/><circle cx="21.09" cy="18.32" opacity=".35" r=".12"/><circle cx="21.09" cy="18.32" opacity=".35" r=".12"/><circle cx="19.68" cy="17.62" opacity=".35" r=".13"/><circle cx="19.68" cy="17.62" opacity=".35" r=".12"/><circle cx="19.68" cy="17.62" opacity=".35" r=".12"/><circle cx="17.97" cy="17.6" opacity=".35" r=".13"/><circle cx="17.97" cy="17.6" opacity=".35" r=".12"/><circle cx="17.97" cy="17.6" opacity=".35" r=".12"/><circle cx="17.32" cy="17.52" opacity=".35" r=".13"/><circle cx="17.32" cy="17.52" opacity=".35" r=".12"/><circle cx="17.32" cy="17.52" opacity=".35" r=".12"/><circle cx="17.88" cy="16.49" opacity=".35" r=".13"/><circle cx="17.88" cy="16.49" opacity=".35" r=".12"/><circle cx="17.88" cy="16.49" opacity=".35" r=".12"/><circle cx="19.04" cy="15.25" opacity=".35" r=".13"/><circle cx="19.04" cy="15.25" opacity=".35" r=".12"/><circle cx="19.04" cy="15.25" opacity=".35" r=".12"/><circle cx="19.83" cy="14.91" opacity=".35" r=".13"/><circle cx="19.83" cy="14.91" opacity=".35" r=".12"/><circle cx="19.83" cy="14.91" opacity=".35" r=".12"/><circle cx="21.16" cy="13.58" opacity=".35" r=".13"/><circle cx="21.16" cy="13.58" opacity=".35" r=".12"/><circle cx="21.16" cy="13.58" opacity=".35" r=".12"/><circle cx="21.96" cy="13.43" opacity=".35" r=".13"/><circle cx="21.96" cy="13.43" opacity=".35" r=".12"/><circle cx="21.96" cy="13.43" opacity=".35" r=".12"/><circle cx="21.64" cy="13.02" opacity=".35" r=".13"/><circle cx="21.64" cy="13.02" opacity=".35" r=".12"/><circle cx="21.64" cy="13.02" opacity=".35" r=".12"/><circle cx="21.32" cy="14.29" opacity=".35" r=".13"/><circle cx="21.32" cy="14.29" opacity=".35" r=".12"/><circle cx="21.32" cy="14.29" opacity=".35" r=".12"/><circle cx="20.46" cy="13.95" opacity=".35" r=".13"/><circle cx="20.46" cy="13.95" opacity=".35" r=".12"/><circle cx="20.46" cy="13.95" opacity=".35" r=".12"/><circle cx="19.56" cy="13.43" opacity=".35" r=".13"/><circle cx="19.56" cy="13.43" opacity=".35" r=".12"/><circle cx="19.56" cy="13.43" opacity=".35" r=".12"/><circle cx="19.02" cy="13.09" opacity=".35" r=".13"/><circle cx="19.02" cy="13.09" opacity=".35" r=".12"/><circle cx="19.02" cy="13.09" opacity=".35" r=".12"/><circle cx="19.58" cy="12.68" opacity=".35" r=".13"/><circle cx="19.58" cy="12.68" opacity=".35" r=".12"/><circle cx="19.58" cy="12.68" opacity=".35" r=".12"/><circle cx="21.24" cy="11.68" opacity=".35" r=".13"/><circle cx="21.24" cy="11.68" opacity=".35" r=".12"/><circle cx="21.24" cy="11.68" opacity=".35" r=".12"/><circle cx="21.03" cy="11" opacity=".35" r=".13"/><circle cx="21.03" cy="11" opacity=".35" r=".12"/><circle cx="21.03" cy="11" opacity=".35" r=".12"/><circle cx="19.84" cy="10.08" opacity=".35" r=".13"/><circle cx="19.84" cy="10.08" opacity=".35" r=".12"/><circle cx="19.84" cy="10.08" opacity=".35" r=".12"/><circle cx="18.83" cy="10.79" opacity=".35" r=".13"/><circle cx="18.83" cy="10.79" opacity=".35" r=".12"/><circle cx="18.83" cy="10.79" opacity=".35" r=".12"/><circle cx="15.29" cy="10.43" opacity=".35" r=".13"/><circle cx="15.29" cy="10.43" opacity=".35" r=".12"/><circle cx="15.29" cy="10.43" opacity=".35" r=".12"/><circle cx="12.18" cy="10.31" opacity=".35" r=".13"/><circle cx="12.18" cy="10.31" opacity=".35" r=".12"/><circle cx="12.18" cy="10.31" opacity=".35" r=".12"/><circle cx="11.17" cy="10.42" opacity=".35" r=".13"/><circle cx="11.17" cy="10.42" opacity=".35" r=".12"/><circle cx="11.17" cy="10.42" opacity=".35" r=".12"/><circle cx="11.19" cy="9.81" opacity=".35" r=".13"/><circle cx="11.19" cy="9.81" opacity=".35" r=".12"/><circle cx="11.19" cy="9.81" opacity=".35" r=".12"/><circle cx="10.66" cy="9.75" opacity=".35" r=".13"/><circle cx="10.66" cy="9.75" opacity=".35" r=".12"/><circle cx="10.66" cy="9.75" opacity=".35" r=".12"/><circle cx="10.43" cy="10.28" opacity=".35" r=".13"/><circle cx="10.43" cy="10.28" opacity=".35" r=".12"/><circle cx="10.43" cy="10.28" opacity=".35" r=".12"/><circle cx="9.71" cy="14.28" opacity=".35" r=".13"/><circle cx="9.71" cy="14.28" opacity=".35" r=".12"/><circle cx="9.71" cy="14.28" opacity=".35" r=".12"/><circle cx="9.24" cy="16.57" opacity=".35" r=".13"/><circle cx="9.24" cy="16.57" opacity=".35" r=".12"/><circle cx="9.24" cy="16.57" opacity=".35" r=".12"/><circle cx="9.18" cy="17.25" opacity=".35" r=".13"/><circle cx="9.18" cy="17.25" opacity=".35" r=".12"/><circle cx="9.18" cy="17.25" opacity=".35" r=".12"/><circle cx="8.97" cy="18.12" opacity=".35" r=".13"/><circle cx="8.97" cy="18.12" opacity=".35" r=".12"/><circle cx="8.97" cy="18.12" opacity=".35" r=".12"/><circle cx="9.51" cy="18.43" opacity=".35" r=".13"/><circle cx="9.51" cy="18.43" opacity=".35" r=".12"/><circle cx="9.51" cy="18.43" opacity=".35" r=".12"/><circle cx="10.19" cy="20.13" opacity=".35" r=".13"/><circle cx="10.19" cy="20.13" opacity=".35" r=".12"/><circle cx="10.19" cy="20.13" opacity=".35" r=".12"/><circle cx="10.46" cy="21.63" opacity=".35" r=".13"/><circle cx="10.46" cy="21.63" opacity=".35" r=".12"/><circle cx="10.46" cy="21.63" opacity=".35" r=".12"/><circle cx="10.21" cy="22.77" opacity=".35" r=".13"/><circle cx="10.21" cy="22.77" opacity=".35" r=".12"/><circle cx="10.21" cy="22.77" opacity=".35" r=".12"/><circle cx="9.96" cy="23.65" opacity=".35" r=".13"/><circle cx="9.96" cy="23.65" opacity=".35" r=".12"/><circle cx="9.96" cy="23.65" opacity=".35" r=".12"/><circle cx="9.41" cy="23.68" opacity=".35" r=".13"/><circle cx="9.41" cy="23.68" opacity=".35" r=".12"/><circle cx="9.41" cy="23.68" opacity=".35" r=".12"/><circle cx="8.57" cy="21.99" opacity=".35" r=".13"/><circle cx="8.57" cy="21.99" opacity=".35" r=".12"/><circle cx="8.57" cy="21.99" opacity=".35" r=".12"/><circle cx="9.02" cy="20.14" opacity=".35" r=".13"/><circle cx="9.02" cy="20.14" opacity=".35" r=".12"/><circle cx="9.02" cy="20.14" opacity=".35" r=".12"/><circle cx="11.24" cy="18.08" opacity=".35" r=".13"/><circle cx="11.24" cy="18.08" opacity=".35" r=".12"/><circle cx="11.24" cy="18.08" opacity=".35" r=".12"/><circle cx="12.39" cy="17.13" opacity=".35" r=".13"/><circle cx="12.39" cy="17.13" opacity=".35" r=".12"/><circle cx="12.39" cy="17.13" opacity=".35" r=".12"/><circle cx="12.66" cy="17.94" opacity=".35" r=".13"/><circle cx="12.66" cy="17.94" opacity=".35" r=".12"/><circle cx="12.66" cy="17.94" opacity=".35" r=".12"/><circle cx="12.69" cy="20.81" opacity=".35" r=".13"/><circle cx="12.69" cy="20.81" opacity=".35" r=".12"/><circle cx="12.69" cy="20.81" opacity=".35" r=".12"/><circle cx="12.83" cy="21.93" opacity=".35" r=".13"/><circle cx="12.83" cy="21.93" opacity=".35" r=".12"/><circle cx="12.83" cy="21.93" opacity=".35" r=".12"/><circle cx="12.94" cy="22.68" opacity=".35" r=".13"/><circle cx="12.94" cy="22.68" opacity=".35" r=".12"/><circle cx="12.94" cy="22.68" opacity=".35" r=".12"/><circle cx="13.52" cy="22.96" opacity=".35" r=".13"/><circle cx="13.52" cy="22.96" opacity=".35" r=".12"/><circle cx="13.52" cy="22.96" opacity=".35" r=".12"/><circle cx="15.73" cy="23.4" opacity=".35" r=".13"/><circle cx="15.73" cy="23.4" opacity=".35" r=".12"/><circle cx="15.73" cy="23.4" opacity=".35" r=".12"/><circle cx="16.68" cy="23.92" opacity=".35" r=".13"/><circle cx="16.68" cy="23.92" opacity=".35" r=".12"/><circle cx="16.68" cy="23.92" opacity=".35" r=".12"/><circle cx="16.56" cy="23.43" opacity=".35" r=".13"/><circle cx="16.56" cy="23.43" opacity=".35" r=".12"/><circle cx="16.56" cy="23.43" opacity=".35" r=".12"/><circle cx="14.96" cy="22.26" opacity=".35" r=".13"/><circle cx="14.96" cy="22.26" opacity=".35" r=".12"/><circle cx="14.96" cy="22.26" opacity=".35" r=".12"/><circle cx="14.29" cy="21.32" opacity=".35" r=".13"/><circle cx="14.29" cy="21.32" opacity=".35" r=".12"/><circle cx="14.29" cy="21.32" opacity=".35" r=".12"/><circle cx="14.4" cy="20.78" opacity=".35" r=".13"/><circle cx="14.4" cy="20.78" opacity=".35" r=".12"/><circle cx="14.4" cy="20.78" opacity=".35" r=".12"/><circle cx="13.69" cy="20.5" opacity=".35" r=".13"/><circle cx="13.69" cy="20.5" opacity=".35" r=".12"/><circle cx="13.69" cy="20.5" opacity=".35" r=".12"/><circle cx="13.18" cy="20.15" opacity=".35" r=".13"/><circle cx="13.18" cy="20.15" opacity=".35" r=".12"/><circle cx="13.18" cy="20.15" opacity=".35" r=".12"/><circle cx="12.52" cy="19.53" opacity=".35" r=".13"/><circle cx="12.52" cy="19.53" opacity=".35" r=".12"/><circle cx="12.52" cy="19.53" opacity=".35" r=".12"/><circle cx="13.35" cy="19.36" opacity=".35" r=".13"/><circle cx="13.35" cy="19.36" opacity=".35" r=".12"/><circle cx="13.35" cy="19.36" opacity=".35" r=".12"/><circle cx="15.91" cy="19.88" opacity=".35" r=".13"/><circle cx="15.91" cy="19.88" opacity=".35" r=".12"/><circle cx="15.91" cy="19.88" opacity=".35" r=".12"/><circle cx="16.66" cy="20.39" opacity=".35" r=".13"/><circle cx="16.66" cy="20.39" opacity=".35" r=".12"/><circle cx="16.66" cy="20.39" opacity=".35" r=".12"/><circle cx="18.15" cy="21.06" opacity=".35" r=".13"/><circle cx="18.15" cy="21.06" opacity=".35" r=".12"/><circle cx="18.15" cy="21.06" opacity=".35" r=".12"/><circle cx="18.44" cy="21.72" opacity=".35" r=".13"/><circle cx="18.44" cy="21.72" opacity=".35" r=".12"/><circle cx="18.44" cy="21.72" opacity=".35" r=".12"/><circle cx="17.99" cy="22.6" opacity=".35" r=".13"/><circle cx="17.99" cy="22.6" opacity=".35" r=".12"/><circle cx="17.99" cy="22.6" opacity=".35" r=".12"/><circle cx="17.99" cy="23.32" opacity=".35" r=".13"/><circle cx="17.99" cy="23.32" opacity=".35" r=".12"/><circle cx="17.99" cy="23.32" opacity=".35" r=".12"/><circle cx="18.74" cy="23.22" opacity=".35" r=".13"/><circle cx="18.74" cy="23.22" opacity=".35" r=".12"/><circle cx="18.74" cy="23.22" opacity=".35" r=".12"/><circle cx="20.26" cy="22.49" opacity=".35" r=".13"/><circle cx="20.26" cy="22.49" opacity=".35" r=".12"/><circle cx="20.26" cy="22.49" opacity=".35" r=".12"/><circle cx="22.21" cy="21.71" opacity=".35" r=".13"/><circle cx="22.21" cy="21.71" opacity=".35" r=".12"/><circle cx="22.21" cy="21.71" opacity=".35" r=".12"/><circle cx="22.92" cy="20.98" opacity=".35" r=".13"/><circle cx="22.92" cy="20.98" opacity=".35" r=".12"/><circle cx="22.92" cy="20.98" opacity=".35" r=".12"/><circle cx="23.45" cy="20.14" opacity=".35" r=".13"/><circle cx="23.45" cy="20.14" opacity=".35" r=".12"/><circle cx="23.45" cy="20.14" opacity=".35" r=".12"/><circle cx="23.59" cy="19.53" opacity=".35" r=".13"/><circle cx="23.59" cy="19.53" opacity=".35" r=".12"/><circle cx="23.59" cy="19.53" opacity=".35" r=".12"/><circle cx="24.06" cy="19.21" opacity=".35" r=".13"/><circle cx="24.06" cy="19.21" opacity=".35" r=".12"/><circle cx="24.06" cy="19.21" opacity=".35" r=".12"/><circle cx="23.71" cy="18.55" opacity=".35" r=".13"/><circle cx="23.71" cy="18.55" opacity=".35" r=".12"/><circle cx="23.71" cy="18.55" opacity=".35" r=".12"/><circle cx="23.52" cy="17.55" opacity=".35" r=".13"/><circle cx="23.52" cy="17.55" opacity=".35" r=".12"/><circle cx="23.52" cy="17.55" opacity=".35" r=".12"/><circle cx="23.9" cy="16.47" opacity=".35" r=".13"/><circle cx="23.9" cy="16.47" opacity=".35" r=".12"/><circle cx="23.9" cy="16.47" opacity=".35" r=".12"/><circle cx="23.39" cy="16.69" opacity=".35" r=".13"/><circle cx="23.39" cy="16.69" opacity=".35" r=".12"/><circle cx="23.39" cy="16.69" opacity=".35" r=".12"/><circle cx="22.21" cy="18.79" opacity=".35" r=".13"/><circle cx="22.21" cy="18.79" opacity=".35" r=".12"/><circle cx="22.21" cy="18.79" opacity=".35" r=".12"/><circle cx="21.68" cy="20.54" opacity=".35" r=".13"/><circle cx="21.68" cy="20.54" opacity=".35" r=".12"/><circle cx="21.68" cy="20.54" opacity=".35" r=".12"/><circle cx="21.5" cy="21.4" opacity=".35" r=".13"/><circle cx="21.5" cy="21.4" opacity=".35" r=".12"/><circle cx="21.5" cy="21.4" opacity=".35" r=".12"/><circle cx="21.29" cy="22.27" opacity=".35" r=".13"/><circle cx="21.29" cy="22.27" opacity=".35" r=".12"/><circle cx="21.29" cy="22.27" opacity=".35" r=".12"/><circle cx="20.92" cy="21.91" opacity=".35" r=".13"/><circle cx="20.92" cy="21.91" opacity=".35" r=".12"/><circle cx="20.92" cy="21.91" opacity=".35" r=".12"/><circle cx="20.71" cy="20.95" opacity=".35" r=".13"/><circle cx="20.71" cy="20.95" opacity=".35" r=".12"/><circle cx="20.71" cy="20.95" opacity=".35" r=".12"/><circle cx="20.38" cy="20.42" opacity=".35" r=".13"/><circle cx="20.38" cy="20.42" opacity=".35" r=".12"/><circle cx="20.38" cy="20.42" opacity=".35" r=".12"/><circle cx="20.73" cy="20.02" opacity=".35" r=".13"/><circle cx="20.73" cy="20.02" opacity=".35" r=".12"/><circle cx="20.73" cy="20.02" opacity=".35" r=".12"/><circle cx="19.89" cy="21.15" opacity=".35" r=".13"/><circle cx="19.89" cy="21.15" opacity=".35" r=".12"/><circle cx="19.89" cy="21.15" opacity=".35" r=".12"/><circle cx="19.76" cy="20.69" opacity=".35" r=".13"/><circle cx="19.76" cy="20.69" opacity=".35" r=".12"/><circle cx="19.76" cy="20.69" opacity=".35" r=".12"/><circle cx="19.21" cy="20.21" opacity=".35" r=".13"/><circle cx="19.21" cy="20.21" opacity=".35" r=".12"/><circle cx="19.21" cy="20.21" opacity=".35" r=".12"/><circle cx="19.68" cy="19.35" opacity=".35" r=".13"/><circle cx="19.68" cy="19.35" opacity=".35" r=".12"/><circle cx="19.68" cy="19.35" opacity=".35" r=".12"/><circle cx="18.57" cy="19.41" opacity=".35" r=".13"/><circle cx="18.57" cy="19.41" opacity=".35" r=".12"/><circle cx="18.57" cy="19.41" opacity=".35" r=".12"/><circle cx="19.08" cy="19.51" opacity=".35" r=".13"/><circle cx="19.08" cy="19.51" opacity=".35" r=".12"/><circle cx="19.08" cy="19.51" opacity=".35" r=".12"/><circle cx="19.15" cy="18.92" opacity=".35" r=".13"/><circle cx="19.15" cy="18.92" opacity=".35" r=".12"/><circle cx="19.15" cy="18.92" opacity=".35" r=".12"/><circle cx="20.01" cy="18.41" opacity=".35" r=".13"/><circle cx="20.01" cy="18.41" opacity=".35" r=".12"/><circle cx="20.01" cy="18.41" opacity=".35" r=".12"/><circle cx="21.45" cy="17.2" opacity=".35" r=".13"/><circle cx="21.45" cy="17.2" opacity=".35" r=".12"/><circle cx="21.45" cy="17.2" opacity=".35" r=".12"/><circle cx="22.09" cy="16.7" opacity=".35" r=".13"/><circle cx="22.09" cy="16.7" opacity=".35" r=".12"/><circle cx="22.09" cy="16.7" opacity=".35" r=".12"/><circle cx="22.53" cy="16.16" opacity=".35" r=".13"/><circle cx="22.53" cy="16.16" opacity=".35" r=".12"/><circle cx="22.53" cy="16.16" opacity=".35" r=".12"/><circle cx="22.85" cy="15.64" opacity=".35" r=".13"/><circle cx="22.85" cy="15.64" opacity=".35" r=".12"/><circle cx="22.85" cy="15.64" opacity=".35" r=".12"/><circle cx="23.46" cy="15.62" opacity=".35" r=".13"/><circle cx="23.46" cy="15.62" opacity=".35" r=".12"/><circle cx="23.46" cy="15.62" opacity=".35" r=".12"/><circle cx="23.63" cy="15.06" opacity=".35" r=".13"/><circle cx="23.63" cy="15.06" opacity=".35" r=".12"/><circle cx="23.63" cy="15.06" opacity=".35" r=".12"/><circle cx="22.82" cy="14.46" opacity=".35" r=".13"/><circle cx="22.82" cy="14.46" opacity=".35" r=".12"/><circle cx="22.82" cy="14.46" opacity=".35" r=".12"/><circle cx="20.85" cy="14.47" opacity=".35" r=".13"/><circle cx="20.85" cy="14.47" opacity=".35" r=".12"/><circle cx="20.85" cy="14.47" opacity=".35" r=".12"/><circle cx="19.82" cy="14.12" opacity=".35" r=".13"/><circle cx="19.82" cy="14.12" opacity=".35" r=".12"/><circle cx="19.82" cy="14.12" opacity=".35" r=".12"/><circle cx="17.54" cy="14.22" opacity=".35" r=".13"/><circle cx="17.54" cy="14.22" opacity=".35" r=".12"/><circle cx="17.54" cy="14.22" opacity=".35" r=".12"/><circle cx="16.3" cy="14.27" opacity=".35" r=".13"/><circle cx="16.3" cy="14.27" opacity=".35" r=".12"/><circle cx="16.3" cy="14.27" opacity=".35" r=".12"/><circle cx="14.38" cy="14.23" opacity=".35" r=".13"/><circle cx="14.38" cy="14.23" opacity=".35" r=".12"/><circle cx="14.38" cy="14.23" opacity=".35" r=".12"/><circle cx="13.7" cy="14.91" opacity=".35" r=".13"/><circle cx="13.7" cy="14.91" opacity=".35" r=".12"/><circle cx="13.7" cy="14.91" opacity=".35" r=".12"/><circle cx="13.5" cy="16" opacity=".35" r=".13"/><circle cx="13.5" cy="16" opacity=".35" r=".12"/><circle cx="13.5" cy="16" opacity=".35" r=".12"/><circle cx="13.77" cy="16.59" opacity=".35" r=".13"/><circle cx="13.77" cy="16.59" opacity=".35" r=".12"/><circle cx="13.77" cy="16.59" opacity=".35" r=".12"/><circle cx="14.9" cy="16.63" opacity=".35" r=".13"/><circle cx="14.9" cy="16.63" opacity=".35" r=".12"/><circle cx="14.9" cy="16.63" opacity=".35" r=".12"/><circle cx="15.52" cy="15.96" opacity=".35" r=".13"/><circle cx="15.52" cy="15.96" opacity=".35" r=".12"/><circle cx="15.52" cy="15.96" opacity=".35" r=".12"/><circle cx="15.28" cy="15.01" opacity=".35" r=".13"/><circle cx="15.28" cy="15.01" opacity=".35" r=".12"/><circle cx="15.28" cy="15.01" opacity=".35" r=".12"/><circle cx="14.63" cy="14.78" opacity=".35" r=".13"/><circle cx="14.63" cy="14.78" opacity=".35" r=".12"/><circle cx="14.63" cy="14.78" opacity=".35" r=".12"/><circle cx="12.83" cy="14.81" opacity=".35" r=".13"/><circle cx="12.83" cy="14.81" opacity=".35" r=".12"/><circle cx="12.83" cy="14.81" opacity=".35" r=".12"/><circle cx="11.1" cy="15.4" opacity=".35" r=".13"/><circle cx="11.1" cy="15.4" opacity=".35" r=".12"/><circle cx="11.1" cy="15.4" opacity=".35" r=".12"/><circle cx="9.56" cy="15.79" opacity=".35" r=".13"/><circle cx="9.56" cy="15.79" opacity=".35" r=".12"/><circle cx="9.56" cy="15.79" opacity=".35" r=".12"/><circle cx="8.02" cy="16.07" opacity=".35" r=".13"/><circle cx="8.02" cy="16.07" opacity=".35" r=".12"/><circle cx="8.02" cy="16.07" opacity=".35" r=".12"/><circle cx="7.72" cy="15.44" opacity=".35" r=".13"/><circle cx="7.72" cy="15.44" opacity=".35" r=".12"/><circle cx="7.72" cy="15.44" opacity=".35" r=".12"/><circle cx="8.05" cy="14.29" opacity=".35" r=".13"/><circle cx="8.05" cy="14.29" opacity=".35" r=".12"/><circle cx="8.05" cy="14.29" opacity=".35" r=".12"/><circle cx="9.73" cy="12.8" opacity=".35" r=".13"/><circle cx="9.73" cy="12.8" opacity=".35" r=".12"/><circle cx="9.73" cy="12.8" opacity=".35" r=".12"/><circle cx="12.02" cy="12.07" opacity=".35" r=".13"/><circle cx="12.02" cy="12.07" opacity=".35" r=".12"/><circle cx="12.02" cy="12.07" opacity=".35" r=".12"/><circle cx="13.13" cy="12.33" opacity=".35" r=".13"/><circle cx="13.13" cy="12.33" opacity=".35" r=".12"/><circle cx="13.13" cy="12.33" opacity=".35" r=".12"/><circle cx="13.48" cy="11.76" opacity=".35" r=".13"/><circle cx="13.48" cy="11.76" opacity=".35" r=".12"/><circle cx="13.48" cy="11.76" opacity=".35" r=".12"/><circle cx="13.68" cy="9.57" opacity=".35" r=".13"/><circle cx="13.68" cy="9.57" opacity=".35" r=".12"/><circle cx="13.68" cy="9.57" opacity=".35" r=".12"/><circle cx="13.65" cy="10.1" opacity=".35" r=".13"/><circle cx="13.65" cy="10.1" opacity=".35" r=".12"/><circle cx="13.65" cy="10.1" opacity=".35" r=".12"/><circle cx="16.35" cy="11.85" opacity=".35" r=".13"/><circle cx="16.35" cy="11.85" opacity=".35" r=".12"/><circle cx="16.35" cy="11.85" opacity=".35" r=".12"/><circle cx="16.34" cy="12.74" opacity=".35" r=".13"/><circle cx="16.34" cy="12.74" opacity=".35" r=".12"/><circle cx="16.34" cy="12.74" opacity=".35" r=".12"/><circle cx="13.45" cy="13.02" opacity=".35" r=".13"/><circle cx="13.45" cy="13.02" opacity=".35" r=".12"/><circle cx="13.45" cy="13.02" opacity=".35" r=".12"/><circle cx="11.55" cy="12.97" opacity=".35" r=".13"/><circle cx="11.55" cy="12.97" opacity=".35" r=".12"/><circle cx="11.55" cy="12.97" opacity=".35" r=".12"/><circle cx="12.04" cy="12.72" opacity=".35" r=".13"/><circle cx="12.04" cy="12.72" opacity=".35" r=".12"/><circle cx="12.04" cy="12.72" opacity=".35" r=".12"/><circle cx="16.37" cy="11.03" opacity=".35" r=".13"/><circle cx="16.37" cy="11.03" opacity=".35" r=".12"/><circle cx="16.37" cy="11.03" opacity=".35" r=".12"/><circle cx="19.35" cy="10.72" opacity=".35" r=".13"/><circle cx="19.35" cy="10.72" opacity=".35" r=".12"/><circle cx="19.35" cy="10.72" opacity=".35" r=".12"/><circle cx="19.96" cy="10.65" opacity=".35" r=".13"/><circle cx="19.96" cy="10.65" opacity=".35" r=".12"/><circle cx="19.96" cy="10.65" opacity=".35" r=".12"/><circle cx="20.53" cy="9.37" opacity=".35" r=".13"/><circle cx="20.53" cy="9.37" opacity=".35" r=".12"/><circle cx="20.53" cy="9.37" opacity=".35" r=".12"/><circle cx="21.04" cy="9.08" opacity=".35" r=".13"/><circle cx="21.04" cy="9.08" opacity=".35" r=".12"/><circle cx="21.04" cy="9.08" opacity=".35" r=".12"/><circle cx="20.88" cy="9.77" opacity=".35" r=".13"/><circle cx="20.88" cy="9.77" opacity=".35" r=".12"/><circle cx="20.88" cy="9.77" opacity=".35" r=".12"/><circle cx="17.32" cy="10.27" opacity=".35" r=".13"/><circle cx="17.32" cy="10.27" opacity=".35" r=".12"/><circle cx="17.32" cy="10.27" opacity=".35" r=".12"/><circle cx="17.49" cy="10.74" opacity=".35" r=".13"/><circle cx="17.49" cy="10.74" opacity=".35" r=".12"/><circle cx="17.49" cy="10.74" opacity=".35" r=".12"/><circle cx="19.37" cy="11.52" opacity=".35" r=".13"/><circle cx="19.37" cy="11.52" opacity=".35" r=".12"/><circle cx="19.37" cy="11.52" opacity=".35" r=".12"/><circle cx="19.95" cy="11.52" opacity=".35" r=".13"/><circle cx="19.95" cy="11.52" opacity=".35" r=".12"/><circle cx="19.95" cy="11.52" opacity=".35" r=".12"/><circle cx="22.39" cy="11.28" opacity=".35" r=".13"/><circle cx="22.39" cy="11.28" opacity=".35" r=".12"/><circle cx="22.39" cy="11.28" opacity=".35" r=".12"/><circle cx="23.07" cy="12.02" opacity=".35" r=".13"/><circle cx="23.07" cy="12.02" opacity=".35" r=".12"/><circle cx="23.07" cy="12.02" opacity=".35" r=".12"/><circle cx="23.98" cy="13.56" opacity=".35" r=".13"/><circle cx="23.98" cy="13.56" opacity=".35" r=".12"/><circle cx="23.98" cy="13.56" opacity=".35" r=".12"/><circle cx="24.44" cy="14.87" opacity=".35" r=".13"/><circle cx="24.44" cy="14.87" opacity=".35" r=".12"/><circle cx="24.44" cy="14.87" opacity=".35" r=".12"/><circle cx="24.66" cy="15.93" opacity=".35" r=".13"/><circle cx="24.66" cy="15.93" opacity=".35" r=".12"/><circle cx="24.66" cy="15.93" opacity=".35" r=".12"/><circle cx="24.78" cy="17.2" opacity=".35" r=".13"/><circle cx="24.78" cy="17.2" opacity=".35" r=".12"/><circle cx="24.78" cy="17.2" opacity=".35" r=".12"/><circle cx="24.87" cy="18.53" opacity=".35" r=".13"/><circle cx="24.87" cy="18.53" opacity=".35" r=".12"/><circle cx="24.87" cy="18.53" opacity=".35" r=".12"/><circle cx="24.93" cy="19.56" opacity=".35" r=".13"/><circle cx="24.93" cy="19.56" opacity=".35" r=".12"/><circle cx="24.93" cy="19.56" opacity=".35" r=".12"/><circle cx="24.68" cy="20.51" opacity=".35" r=".13"/><circle cx="24.68" cy="20.51" opacity=".35" r=".12"/><circle cx="24.68" cy="20.51" opacity=".35" r=".12"/><circle cx="24.32" cy="21.56" opacity=".35" r=".13"/><circle cx="24.32" cy="21.56" opacity=".35" r=".12"/><circle cx="24.32" cy="21.56" opacity=".35" r=".12"/><circle cx="22.88" cy="23.4" opacity=".35" r=".13"/><circle cx="22.88" cy="23.4" opacity=".35" r=".12"/><circle cx="22.88" cy="23.4" opacity=".35" r=".12"/><circle cx="20.82" cy="24.58" opacity=".35" r=".13"/><circle cx="20.82" cy="24.58" opacity=".35" r=".12"/><circle cx="20.82" cy="24.58" opacity=".35" r=".12"/><circle cx="17.73" cy="25.2" opacity=".35" r=".13"/><circle cx="17.73" cy="25.2" opacity=".35" r=".12"/><circle cx="17.73" cy="25.2" opacity=".35" r=".12"/><circle cx="16.23" cy="25.31" opacity=".35" r=".13"/><circle cx="16.23" cy="25.31" opacity=".35" r=".12"/><circle cx="16.23" cy="25.31" opacity=".35" r=".12"/><circle cx="14.87" cy="25.61" opacity=".35" r=".13"/><circle cx="14.87" cy="25.61" opacity=".35" r=".12"/><circle cx="14.87" cy="25.61" opacity=".35" r=".12"/><circle cx="13.34" cy="25.97" opacity=".35" r=".13"/><circle cx="13.34" cy="25.97" opacity=".35" r=".12"/><circle cx="13.34" cy="25.97" opacity=".35" r=".12"/><circle cx="12.71" cy="25.94" opacity=".35" r=".13"/><circle cx="12.71" cy="25.94" opacity=".35" r=".12"/><circle cx="12.71" cy="25.94" opacity=".35" r=".12"/><circle cx="10.86" cy="25.57" opacity=".35" r=".13"/><circle cx="10.86" cy="25.57" opacity=".35" r=".12"/><circle cx="10.86" cy="25.57" opacity=".35" r=".12"/><circle cx="10.29" cy="25.38" opacity=".35" r=".13"/><circle cx="10.29" cy="25.38" opacity=".35" r=".12"/><circle cx="10.29" cy="25.38" opacity=".35" r=".12"/><circle cx="10.9" cy="24.36" opacity=".35" r=".13"/><circle cx="10.9" cy="24.36" opacity=".35" r=".12"/><circle cx="10.9" cy="24.36" opacity=".35" r=".12"/><circle cx="11.17" cy="23.12" opacity=".35" r=".13"/><circle cx="11.17" cy="23.12" opacity=".35" r=".12"/><circle cx="11.17" cy="23.12" opacity=".35" r=".12"/><circle cx="11.16" cy="21.4" opacity=".35" r=".13"/><circle cx="11.16" cy="21.4" opacity=".35" r=".12"/><circle cx="11.16" cy="21.4" opacity=".35" r=".12"/><circle cx="11.02" cy="20.37" opacity=".35" r=".13"/><circle cx="11.02" cy="20.37" opacity=".35" r=".12"/><circle cx="11.02" cy="20.37" opacity=".35" r=".12"/><circle cx="11.19" cy="19.54" opacity=".35" r=".13"/><circle cx="11.19" cy="19.54" opacity=".35" r=".12"/><circle cx="11.19" cy="19.54" opacity=".35" r=".12"/></g><path d="m13.62 15.86a3.89 3.89 0 0 0 -.09-1.06 1.22 1.22 0 0 0 -.21-.46.47.47 0 0 0 -.41-.18.56.56 0 0 0 -.41.21 1.17 1.17 0 0 0 -.21.46 3.62 3.62 0 0 0 -.09 1.06c0 .1-.07.11-.08 0a4.13 4.13 0 0 1 0-.55 2.8 2.8 0 0 1 .06-.55 1.25 1.25 0 0 1 .23-.52.63.63 0 0 1 .23-.19.69.69 0 0 1 .27-.08.62.62 0 0 1 .54.25.88.88 0 0 1 .14.26 1.36 1.36 0 0 1 .08.27 2.79 2.79 0 0 1 .05.55 4.13 4.13 0 0 1 0 .55c0 .12-.07.11-.07 0zm3.17 0a4.13 4.13 0 0 1 0-.55 2.79 2.79 0 0 1 .05-.55 1.36 1.36 0 0 1 .08-.27 1 1 0 0 1 .08-.24.64.64 0 0 1 .58-.25.8.8 0 0 1 .29.07.7.7 0 0 1 .23.19 1.25 1.25 0 0 1 .23.52 2.8 2.8 0 0 1 .06.55 4.13 4.13 0 0 1 0 .55c0 .1-.09.09-.08 0a3.82 3.82 0 0 0 -.09-1.06 1.17 1.17 0 0 0 -.22-.46.55.55 0 0 0 -.41-.21.47.47 0 0 0 -.41.18 1.23 1.23 0 0 0 -.21.46 4.41 4.41 0 0 0 -.09 1.06c0 .12-.06.13-.07 0z" fill="#94b3ca"/><path d="m15.35 18a.94.94 0 0 0 -.89.54.89.89 0 0 0 .83.75 1.06 1.06 0 0 0 .86-.79 1.06 1.06 0 0 0 -.8-.5z" fill="#ff8aff"/><g clip-path="url(#d)"><path d="m15 17.78a1 1 0 0 0 .62 1.38c1.12.48-.26.75-.41.66s-1.13-1-1.13-1l-.15-.6z" fill="#ff8aff" opacity=".35"/></g><path d="m14.24 16.58a6.12 6.12 0 0 0 .21 1.93.946.946 0 0 1 1.68 0 5.87 5.87 0 0 0 .32-1.89 1.75 1.75 0 0 1 -2.21-.04z" fill="#733335"/><path d="m12.77 18.37c1.07 0 .67 2.73.65 3.6s.16 1.66.18 2.24.31 2.3-1 2.29-.5-3.37-.49-4.07c.01 0-.41-4.09.66-4.06zm3.63 0c-1.07 0-.67 2.73-.65 3.6s-.16 1.66-.18 2.24-.31 2.3 1 2.29.5-3.37.49-4.07c0 0 .42-4.09-.65-4.06z" fill="#cdeeee"/><g clip-path="url(#e)"><path d="m13.49 21.5-1.07.6a18 18 0 0 1 -.16 2.31 2.42 2.42 0 0 0 .47 2.19c.52.4-1 .18-1 .18a4.3 4.3 0 0 1 -1.09-1.23c0-.28-.21-3.68-.15-4.13s.57-3.2.57-3.2l1.29-.22.4.16a10.33 10.33 0 0 0 -.27 2.07.77.77 0 0 0 1 .79v.48zm3.9 0-1.13.6a20.21 20.21 0 0 1 -.2 2.31 2.42 2.42 0 0 0 .45 2.19c.52.4-1 .18-1 .18a4.21 4.21 0 0 1 -1.09-1.23c0-.28-.21-3.68-.15-4.13s.56-3.2.56-3.2l1.3-.22.4.16a14.75 14.75 0 0 0 -.21 2.07.82.82 0 0 0 1.07.79z" fill="#9deeee" opacity=".35"/></g><path d="m21.94 17.34s.07-.87.76-.68a1.55 1.55 0 0 1 .069 2.191q-.033.036-.069.069a6.66 6.66 0 0 1 -3.7 1.89c-1.41.34-1.35.7-2.68.85s-1.6-.46-1.59-1 .49-1.21 1.7-1.18 1.07.48 2.29.27a7.86 7.86 0 0 0 2.91-1.15c.42-.32.79-.76.31-1.26zm-13.08.23a1.49 1.49 0 0 0 -1.25 1.43c.12 1.13 1.1 1.37 2.23 1.63s.92.79 2.28.92 1.9-.49 1.77-1.29-1.48-.76-3-.77a2.3 2.3 0 0 1 -2-.72v-1.2z" fill="#ddf5f5"/><g clip-path="url(#f)"><path d="m8.82 18.7a.66.66 0 0 0 .21 1 14 14 0 0 1 1.92.85 3.42 3.42 0 0 0 3.15 0c1.12-.68.35 1.56.35 1.56l-4.11-.09s-2.52-1.24-2.52-1.32-.52-2.62-.52-2.62a19.831 19.831 0 0 0 2-1.1 7.8 7.8 0 0 1 1.13-.13zm5.84 1.62s0 .75 1.32.7a3.71 3.71 0 0 0 1.85-.43 6.36 6.36 0 0 0 2.88-.66 6.5 6.5 0 0 0 2.63-1.66l-.4 1.48-4.82 2.14h-2.44s-.53-.18-.7-.21a1.92 1.92 0 0 1 -.53-.41l.2-1z" fill="#c2f5f5" opacity=".35"/></g><path d="m9.1 6.52h.19v4.39h-.19zm1.53 1.48h.18v1.57h-.18zm12.2-2.2h.17v3.46h-.18v-3.41zm-1.59 2.43h.18v1.77h-.18z" fill="#249e7c"/></svg>