<svg xmlns="http://www.w3.org/2000/svg" viewBox="0 0 357 357"><path fill="#c32c29" d="M0-1h357v357H0z"/><path d="m105 111-8 7c-3 8 0 17 7 18l2 1c0 1-4 4-6 4l-3 1v5l1 5c1 1 7-2 12-4 10-5 15-14 14-24 0-8-5-14-13-14l-6 1m9 4c5 1 8 9 5 18a25 25 0 0 1-16 14l-1-1 1-2c3-1 6-4 8-7l3-10-3 3c-2 2-3 2-5 2s-3 0-4-2c-2-2-2-3-2-5 0-5 3-9 8-10h6"/><path fill="#fff" d="M248 224v-7h4l10-3c3-2 3-1 3-50l-1-46c-2-3-3-3-10-3h-6v-14h1l75-8c8 0 11 0 16 3 5 2 9 6 11 11 3 5 3 10 3 19s-1 13-4 19c-3 7-12 15-19 17a433 433 0 0 0-39 6 688 688 0 0 0 3 42l6 1h6l2-1v15l-14 1-46 5h-1zm53-71c12-2 17-4 20-8 4-4 6-10 5-19l-1-9c-4-7-9-9-23-7l-9 1h-1v21l1 22 8-1"/><path d="m86 145-9 1-1 3-1 2-3-1c-5-4-13-5-22-4a53 53 0 0 0-49 56c0 9 0 10 2 15 3 11 8 19 16 25 8 5 14 7 25 7l21-3c14-5 24-15 28-29l2-16-16 1h-2l-1 3c-1 11-3 16-7 20s-7 5-13 5l-7-1c-4-1-7-4-9-9-3-6-4-10-4-22s1-15 4-22c3-6 6-9 10-11 3-2 4-2 9-2s6 0 9 2c5 2 7 7 8 16l1 5 17-1v-41l-8 1m5 20v16l-5 1h-6v-3c0-7-5-15-11-18-9-4-20-2-27 5-3 3-7 9-8 15-3 13-2 32 3 41 2 4 6 9 10 11 5 2 11 2 18 0 8-3 13-12 15-23v-4l11-1-1 5c-2 16-12 28-27 32-5 2-13 3-19 3-20 0-34-11-38-31l-1-17a48 48 0 0 1 50-47c11 0 13 1 18 6l4 3 1-4 2-5 8-1h3zm138-33-37 3h-4v9l1 8a112 112 0 0 1 14 0 262 262 0 0 1 0 40 905 905 0 0 1-32-55l-17 1a2235 2235 0 0 1-32 3l-2 1v16h15l1 31-1 31c-1 1-3 2-7 2l-7 1v16l50-4 1-8v-8h-16v-45l1 3 33 56 17-1 16-2 1-40 1-40 7-2 7-1v-8l-1-8-9 1m97-43h-5l-46 5-15 2-14 2h-2v22h1c3-1 11-2 13-1 3 0 3-2 3 47l-1 44c-1 2-3 2-9 3l-6 1h-1v22h5l33-4 29-4h2v-22l-3 1h-8l-5 1-1-3v-34h5l35-6c9-5 17-15 21-26 1-6 2-14 1-21-1-9-4-15-9-21-6-6-13-8-23-8zm1 4 9 1c13 4 19 14 19 30 0 9-2 17-6 23-3 6-11 13-17 15-5 2-10 3-30 5l-8 1h-2v19c0 20 0 21 3 23l11 1 3-1v15l-5 1-30 3-26 2v-14l5-1c6-1 9-2 10-4 2-2 2-15 2-55l-1-39c-2-3-4-3-9-3h-7v-14l3-1a32689 32689 0 0 0 76-7zm-17 16-11 1-7 1v42h3c18-2 23-4 27-10 3-4 4-8 4-15l-1-10c-1-3-4-6-6-7l-9-2zm-1 4 7 1c5 1 8 8 7 17-1 8-4 12-9 15-3 1-10 3-16 3h-2v-35h4l9-1z"/><path fill="#fff" d="M35 244c-17-4-27-16-29-36-1-6 0-16 1-22 3-9 9-19 16-25a54 54 0 0 1 45-9l5 4c3 3 4 3 5 3l1-5 1-4 6-1h4v32h-2l-5 1h-3v-5c-1-5-3-9-6-13-4-3-7-5-13-5-8-1-14 2-19 7-8 8-11 21-10 38 1 12 4 19 9 25 5 4 8 5 14 5 14 1 22-8 25-23l1-5h5l4-1v2c0 2-1 9-3 13-4 10-13 19-25 22-8 2-20 3-27 2zm67-98 1-1 7-6 5-11c0-1-1-1-4 1-4 4-7 3-10 0-2-4-1-8 2-11 3-2 5-3 8-3 4 0 7 2 8 6 3 9-4 21-14 25h-3zm22 85c1-1-1-5 1-4 5-1 10-1 13-4 2-5 1-10 1-16v-51c-2-3-6-3-9-3h-5c0-3-2-9 3-8l40-4 14 24 25 42c2 2 0-6 1-8l-1-49c-2-4-7-2-11-3-2 0-5 1-4-1v-6l42-4 1 7c-3 2-7 1-10 2-6 2-4 9-5 14v68l-28 2-40-70v19c0 14-1 28 1 42 1 5 7 3 11 3 2 0 5-1 4 2v6l-44 4v-4z"/></svg>