<svg viewBox="0 0 32 32" xmlns="http://www.w3.org/2000/svg" xmlns:xlink="http://www.w3.org/1999/xlink"><linearGradient id="a" gradientUnits="userSpaceOnUse" x1="17.649" x2="28.104" y1="8.845" y2="19.301"><stop offset="0" stop-color="#387eb8"/><stop offset="1" stop-color="#366994"/></linearGradient><linearGradient id="b" gradientTransform="matrix(1 0 0 -1 0 32.257)" gradientUnits="userSpaceOnUse" x1="10.011" x2="20.363" y1="22.109" y2="11.758"><stop offset="0" stop-color="#ffe052"/><stop offset="1" stop-color="#ffc331"/></linearGradient><linearGradient id="c" x1="-.155" x2="10.301" xlink:href="#a" y1="8.846" y2="19.301"/><path d="m24.989 7.936-.028-.009c-5.58 0-5.15 2.794-5.15 2.794v10.605s-.006 2.749 2.562 2.749h.018c2.513 0 2.51-2.747 2.51-2.747v-4.808h2.972c2.127 0 2.127-1.361 2.127-1.361v-4.913s.333-2.31-5.011-2.31zm3.7 2.541a.914.914 0 1 1 -.89-.936l-.024.007a.914.914 0 0 1 .914.914z" fill="url(#a)"/><path d="m16.01 24.073h-.017c-2.561 0-2.561-3.585-2.561-3.585v-8.78s-.007-3.531 2.561-3.524h.018c2.51 0 2.51 3.524 2.51 3.524v8.78s0 3.584-2.511 3.585zm.947-2.3a.914.914 0 1 0 -.89.937l-.024-.007a.914.914 0 0 0 .914-.914z" fill="url(#b)"/><path d="m7.186 7.936-.028-.012c-5.58 0-5.15 2.794-5.15 2.794v10.608s-.008 2.75 2.56 2.75h.018c2.513 0 2.51-2.747 2.51-2.747v-4.809h2.971c2.129 0 2.124-1.361 2.124-1.361v-4.913s.335-2.31-5.005-2.31zm3.7 2.541a.914.914 0 1 1 -.886-.937l-.024.007a.914.914 0 0 1 .914.914v.015z" fill="url(#c)"/></svg>