<svg viewBox="0 0 32 32" xmlns="http://www.w3.org/2000/svg" xmlns:xlink="http://www.w3.org/1999/xlink"><radialGradient id="a" cx="12.278" cy="24.557" gradientTransform="matrix(1 0 0 -1 -.001 34.001)" gradientUnits="userSpaceOnUse" r="18.371"><stop offset="0" stop-color="#d3e9ff"/><stop offset=".155" stop-color="#d3e9ff"/><stop offset=".75" stop-color="#4074ae"/><stop offset="1" stop-color="#36486c"/></radialGradient><radialGradient id="b" cx="10.657" cy="26.746" gradientTransform="matrix(1 0 0 -1 -.001 34.001)" gradientUnits="userSpaceOnUse" r="26.66"><stop offset="0" stop-color="#fff"/><stop offset="1" stop-color="#fff" stop-opacity=".165"/></radialGradient><radialGradient id="c" cx="-45.05" cy="9.285" gradientTransform="matrix(-.80627945 .59153483 -.59153483 -.80627945 -21.971 41.942)" gradientUnits="userSpaceOnUse" r="4.115"><stop offset="0" stop-color="#fff"/><stop offset="1" stop-color="#fff" stop-opacity="0"/></radialGradient><radialGradient id="d" cx="-41.456" cy="32.154" gradientTransform="matrix(-1.04574444 .76722067 -.76722067 -1.04574444 3.571 87.075)" r="4.115" xlink:href="#c"/><radialGradient id="e" cx="-48.485" cy="13.239" gradientTransform="matrix(-.80627945 .59153483 -.59153483 -.80627945 -23.084 55.413)" r="4.115" xlink:href="#c"/><radialGradient id="f" cx="-40.883" cy="16.036" gradientTransform="matrix(-.87 .639 -.638 -.87 -9.351 47.706)" r="4.115" xlink:href="#c"/><linearGradient id="g" gradientTransform="matrix(.939 -.879 -.683 -.73 84.81 -33.628)" x1="-66.502" x2="-64.626" xlink:href="#c" y1="2.219" y2="6.749"/><linearGradient id="h" gradientTransform="matrix(1.131 .613 .477 -.879 21.648 69.071)" x1="-26.791" x2="-24.999" xlink:href="#c" y1="39.159" y2="44.683"/><linearGradient id="i" gradientTransform="matrix(.918 -.859 -.668 -.713 77.857 -36.493)" x1="-63.384" x2="-63.57" xlink:href="#c" y1="8.177" y2="4.69"/><linearGradient id="j" gradientTransform="matrix(-1.28 -.126 -.098 .995 -101.637 -93.015)" x1="-99.259" x2="-98.825" xlink:href="#c" y1="89.545" y2="93.023"/><radialGradient id="k" cx="-20.712" cy="57.61" gradientTransform="matrix(0 -.843 -.721 0 26.625 -21.696)" gradientUnits="userSpaceOnUse" r="2.836"><stop offset="0" stop-color="#729fcf"/><stop offset="1" stop-color="#3b61a6"/></radialGradient><radialGradient id="l" cx="-20.712" cy="39.858" gradientTransform="matrix(0 .843 -.721 0 26.625 63.096)" gradientUnits="userSpaceOnUse" r="2.836"><stop offset="0" stop-color="#729fcf"/><stop offset="1" stop-color="#509e2f"/></radialGradient><path d="m28.026 14.2a11.877 11.877 0 1 1 -11.877-11.875 11.878 11.878 0 0 1 11.877 11.875z" fill="url(#a)"/><path d="m16.149 26.386a12.183 12.183 0 1 1 12.184-12.186 12.2 12.2 0 0 1 -12.184 12.186zm0-23.754a11.571 11.571 0 1 0 11.571 11.568 11.584 11.584 0 0 0 -11.571-11.568z" fill="#39396c"/><g fill="#204a87" fill-opacity=".71345"><path d="m27.693 12.424-.328.371a7 7 0 0 0 -.656-.644l-.5.074-.46-.519v.643l.394.3.262.3.35-.4c.088.165.175.33.263.5v.495l-.394.445-.722.5-.546.545-.35-.4.175-.445-.35-.4-.591-1.262-.5-.569-.14.142.2.718.371.421a17.069 17.069 0 0 0 .7 1.783 9.979 9.979 0 0 0 1.268-.1v.347l-.525 1.287-.481.544-.394.843v1.387l.132.545-.219.247-.482.3-.5.421.416.47-.569.5.109.321-.853.966h-.573l-.481.3h-.307v-.4l-.13-.793c-.169-.5-.346-.991-.525-1.484 0-.364.022-.725.044-1.089l.219-.495-.307-.595.022-.817-.416-.47.208-.68-.338-.384h-.589l-.2-.223-.591.372-.24-.273-.547.47-1.111-1.269-.437-1.04.394-.593-.219-.247.481-1.139c.395-.491.807-.963 1.225-1.436l.744-.2.831-.1.569.149.809.816.284-.321.393-.049.744.247h.571l.394-.347.175-.247-.394-.247-.656-.049a6.6 6.6 0 0 0 -.568-.743l-.219.1-.088.644-.394-.445-.087-.5-.437-.346h-.176l.438.495-.175.445-.35.1.219-.445-.394-.2-.349-.4-.657.148-.087.2-.394.248-.219.545-.546.272-.241-.272h-.265v-.885l.569-.3h.437l-.088-.346-.348-.344.59-.124.328-.371.262-.446h.482l-.132-.346.307-.2v.4l.656.148.656-.544.044-.248.568-.4a4.353 4.353 0 0 0 -.612.1v-.444l.219-.5h-.219l-.48.445-.132.248.132.347-.219.593-.35-.2-.306-.346-.482.346-.175-.792.831-.544v-.3l.525-.346.831-.2.569.2 1.049.2-.262.3h-.57l.569.594.437-.495.133-.218a15.53 15.53 0 0 1 2.635 3.147 11.452 11.452 0 0 1 1.409 3.982z"/><path d="m16.861 5.517-.044.3.307.2.524-.346-.262-.3-.35.2-.174-.05"/><path d="m17.343 3.488-1.138-.446-1.312.148-1.619.445-.306.3 1.006.693v.4l-.394.4.525 1.04.349-.2.438-.693a15.053 15.053 0 0 0 1.924-.743l.525-1.337"/><path d="m18.524 7.647-.175-.447-.307.1.088.544.394-.2"/><path d="m18.7 7.547-.088.595.481-.1.35-.346-.306-.3c-.1-.274-.221-.529-.35-.792h-.262v.3l.174.2v.445"/><path d="m12.225 16.953-.35-.693-.656-.148-.35-.94-.875.1-.743-.544-.788.693v.109a3 3 0 0 1 -.743-.209l-.175-.495v-.546l-.525.049q.066-.52.131-1.039h-.306l-.306.4-.306.148-.433-.251-.044-.545.088-.594.656-.495h.52l.087-.3.656.148.481.595.088-.991.831-.693.306-.743.612-.247.35-.495.787-.149.394-.593h-1.18l.744-.347h.524l.744-.248.088-.3-.263-.248-.306-.1.088-.3-.219-.445-.525.2.088-.4-.612-.347-.483.85.044.3-.481.2-.306.643-.131-.594-.832-.349-.131-.445 1.094-.644.481-.445.044-.544-.262-.149-.35-.05-.219.545s-.366.072-.46.095a12.5 12.5 0 0 0 -4.191 8.008 6.789 6.789 0 0 0 .409.711l.918.544.918.248.394.5.612.445.35-.049.262.118v.08l-.35.94-.263.4.088.2-.219.742.787 1.436.787.693.35.495-.043 1.026.263.593-.263 1.144s-.021-.007.013.107a5.278 5.278 0 0 0 1.488.809l.161-.123-.087-.247.35-.347.131-.347.569-.2.437-1.089-.131-.3.306-.445.656-.149.35-.792-.088-.99.525-.743.088-.743c-.718-.356-1.43-.723-2.143-1.089"/><path d="m11.263 5.715.437.3h.35v-.349l-.437-.2-.35.247"/><path d="m10.126 5.319-.219.544h.438l.219-.5c.189-.133.376-.268.568-.4l.438.149.875.594.438-.4-.482-.2-.219-.446-.831-.1-.044-.248-.394.1-.175.346-.219-.446-.087.2.044.5-.35.3"/><path d="m11.7 4.081.219-.2.438-.1a6.9 6.9 0 0 1 .918-.347l-.174-.3-.565.081-.267.266-.44.064-.391.184-.19.092-.116.155.568.1"/><path d="m12.444 8.785.263-.4-.394-.3.131.693"/></g><path d="m16.149 25.783a11.58 11.58 0 1 1 11.58-11.583 11.593 11.593 0 0 1 -11.58 11.583zm0-22.548a10.968 10.968 0 1 0 10.968 10.965 10.98 10.98 0 0 0 -10.968-10.965z" fill="url(#b)" opacity=".395604"/><path d="m5.541 10.241a4.115 4.115 0 1 0 6.636-4.866 4.115 4.115 0 0 0 -6.637 4.865z" fill="url(#c)"/><path d="m7.836 8.558a1.268 1.268 0 1 0 2.046-1.5 1.268 1.268 0 0 0 -2.046 1.5z" fill="#fff"/><path d="m17.952 24.8a5.337 5.337 0 1 0 8.607-6.312 5.337 5.337 0 0 0 -8.609 6.312z" fill="url(#d)"/><path d="m20.928 22.616a1.645 1.645 0 1 0 2.653-1.946 1.645 1.645 0 0 0 -2.653 1.946z" fill="#fff"/><path d="m4.859 18.493a4.115 4.115 0 1 0 6.641-4.867 4.115 4.115 0 0 0 -6.636 4.866z" fill="url(#e)"/><path d="m7.154 16.809a1.268 1.268 0 1 0 2.046-1.5 1.268 1.268 0 0 0 -2.046 1.5z" fill="#fff"/><path d="m12.408 10.269a4.441 4.441 0 1 0 7.162-5.253 4.441 4.441 0 1 0 -7.162 5.253z" fill="url(#f)"/><path d="m14.885 8.452a1.369 1.369 0 1 0 2.208-1.619 1.369 1.369 0 1 0 -2.208 1.619z" fill="#fff"/><path d="m12.68 26.238a3.83 3.83 0 0 1 -2.909-1.087c-1.133-1.21-1.2-3.255-.2-5.757a21.542 21.542 0 0 1 5.307-7.326c5.186-4.853 11.067-6.712 13.392-4.229 1.133 1.211 1.2 3.255.2 5.757a21.553 21.553 0 0 1 -5.308 7.326 21.551 21.551 0 0 1 -7.662 4.811 9.229 9.229 0 0 1 -2.82.505zm12.662-18.958c-2.7 0-6.6 1.908-10.1 5.183a21 21 0 0 0 -5.171 7.137c-.921 2.3-.887 4.138.094 5.187s2.817 1.2 5.169.437a21 21 0 0 0 7.46-4.692 21 21 0 0 0 5.175-7.132c.921-2.3.888-4.138-.095-5.187a3.34 3.34 0 0 0 -2.532-.933z" fill="url(#g)"/><path d="m21.681 22.094a20.633 20.633 0 0 1 -9.339-2.759c-6.242-3.385-9.869-8.378-8.248-11.367.79-1.458 2.7-2.175 5.4-2.012a21.542 21.542 0 0 1 8.626 2.718 21.545 21.545 0 0 1 6.987 5.746c1.6 2.167 2.051 4.163 1.261 5.621-.746 1.375-2.453 2.053-4.687 2.053zm-12.922-15.62c-2.1 0-3.572.612-4.19 1.751-1.452 2.675 2.151 7.449 8.031 10.635s11.843 3.6 13.294.924c.685-1.263.251-3.054-1.22-5.042a21 21 0 0 0 -6.81-5.593 21 21 0 0 0 -8.405-2.649q-.359-.026-.7-.026z" fill="url(#h)"/><path d="m10 24.078a3.757 3.757 0 0 1 -2.851-1.065c-1.11-1.187-1.181-3.189-.2-5.639a21.062 21.062 0 0 1 5.189-7.163c5.073-4.747 10.83-6.563 13.1-4.132 2.275 2.431.083 8.053-4.99 12.8a21.059 21.059 0 0 1 -7.491 4.7 9.024 9.024 0 0 1 -2.757.499zm12.373-18.525c-2.63 0-6.439 1.864-9.856 5.062a20.5 20.5 0 0 0 -5.054 6.965c-.9 2.239-.866 4.034.09 5.055s2.745 1.172 5.038.424a20.513 20.513 0 0 0 7.284-4.582c4.766-4.46 6.994-9.853 4.965-12.02a3.256 3.256 0 0 0 -2.467-.904z" fill="url(#i)"/><path d="m17.512 19.413c-.86 0-1.748-.043-2.659-.133-7.069-.696-12.346-3.892-12.013-7.28.333-3.383 6.133-5.49 13.2-4.791s12.345 3.892 12.012 7.275c-.289 2.952-4.728 4.929-10.54 4.929zm-14.134-7.356c-.3 3.031 4.873 6.03 11.528 6.686s12.312-1.277 12.611-4.308-4.873-6.029-11.529-6.685-12.311 1.277-12.61 4.307z" fill="url(#j)"/><path d="m6.251 29.966h6.674v-9.157h2.981l-6.358-9.375-6.253 9.348 2.958.031z" fill="url(#k)"/><path d="m12.924 30.045h-6.673a.049.049 0 0 1 -.039-.023c-.01-.015-.016-3.135-.016-3.156v-5.975l-2.9-.03a.06.06 0 0 1 -.051-.048.1.1 0 0 1 .011-.085l6.252-9.348a.056.056 0 0 1 .041-.025.05.05 0 0 1 .04.024l6.357 9.375a.1.1 0 0 1 .011.086.059.059 0 0 1 -.051.048h-2.926v9.078c0 .044-.025.079-.056.079zm-6.618-.158h6.562v-9.078c0-.044.025-.079.056-.079h2.85l-6.225-9.181-6.125 9.151 2.83.03c.031 0 .055.036.055.079z" fill="#183868"/><path d="m19.053 20.587-2.958.031 6.254 9.348 6.357-9.375h-2.982v-9.157h-6.673z" fill="url(#l)"/><path d="m25.78 11.434v9.078h2.925a.059.059 0 0 1 .051.048.1.1 0 0 1 -.011.086l-6.357 9.375a.05.05 0 0 1 -.04.024.056.056 0 0 1 -.041-.025l-6.254-9.348a.1.1 0 0 1 -.011-.085.06.06 0 0 1 .051-.048l2.9-.03v-5.975c0-.021.006-3.141.016-3.156a.049.049 0 0 1 .039-.023h6.674c.033 0 .058.035.058.079zm-6.672 9.153c0 .043-.025.079-.055.079l-2.83.03 6.125 9.156 6.226-9.181h-2.85c-.031 0-.056-.035-.056-.079v-9.079h-6.561z" fill="#183868"/></svg>