<svg xmlns="http://www.w3.org/2000/svg" viewBox="0 0 32 32"><title>file_type_ng2_directive_ts@2x</title><g id="ng2_directive_ts"><polygon points="15.63 2 15.63 2 15.63 2 2.6 6.65 4.58 23.88 15.63 30 15.63 30 15.63 30 26.68 23.88 28.66 6.65 15.63 2" style="fill:#00d131"/><polygon points="15.63 2 15.63 5.11 15.63 5.09 15.63 19.28 15.63 19.28 15.63 30 15.63 30 26.68 23.88 28.66 6.65 15.63 2" style="fill:#00ba30"/><path d="M15.63,5.09,7.48,23.36h3l1.64-4.09h6.92l1.64,4.09h3L15.63,5.09ZM18,16.76H13.25L15.63,11Z" style="fill:#fff"/><path d="M28.39,20.52a2.84,2.84,0,0,1,1.43.82,3.76,3.76,0,0,1,.55.73s-1,.7-1.59,1.07c0,0-.11-.08-.21-.22a1.29,1.29,0,0,0-1.07-.64c-.69,0-1.14.31-1.13.92a.84.84,0,0,0,.1.43c.15.31.43.5,1.32.89,1.63.7,2.33,1.17,2.77,1.82a3.31,3.31,0,0,1,.26,2.78,3.06,3.06,0,0,1-2.52,1.81,7,7,0,0,1-1.74,0,4.19,4.19,0,0,1-2.32-1.21,4,4,0,0,1-.59-.88l.21-.13.85-.49.66-.38.14.2a3.06,3.06,0,0,0,.87.83,2.12,2.12,0,0,0,2.22-.11,1,1,0,0,0,.13-1.26c-.18-.25-.54-.47-1.57-.91A5.64,5.64,0,0,1,25,25.24a3,3,0,0,1-.63-1.14,4.57,4.57,0,0,1,0-1.46,2.78,2.78,0,0,1,2.34-2.17A5.78,5.78,0,0,1,28.39,20.52Zm-5.35,1v.93h-3v8.44H18V22.41H15V21.5a9,9,0,0,1,0-.94s1.82,0,4,0h4Z" style="fill:#007acc"/></g></svg>