<svg xmlns="http://www.w3.org/2000/svg" viewBox="0 0 32 32"><title>file_type_mediawiki</title><polygon points="5.527 22.349 2 22.349 2 9.651 5.527 9.651 5.527 10.395 3.938 10.395 3.938 21.605 5.527 21.605 5.527 22.349" style="fill:#02296b"/><polygon points="10.665 22.349 7.138 22.349 7.138 9.651 10.665 9.651 10.665 10.395 9.075 10.395 9.075 21.605 10.665 21.605 10.665 22.349" style="fill:#02296b"/><polygon points="21.335 21.605 22.925 21.605 22.925 10.395 21.335 10.395 21.335 9.651 24.862 9.651 24.862 22.349 21.335 22.349 21.335 21.605" style="fill:#02296b"/><polygon points="26.473 21.605 28.062 21.605 28.062 10.395 26.473 10.395 26.473 9.651 30 9.651 30 22.349 26.473 22.349 26.473 21.605" style="fill:#02296b"/><path d="M14.993,12.126c-.178-1.225-.673-2.917-.73-3.724a1.49,1.49,0,0,1,.972-1.5,1.923,1.923,0,0,1,1.528,0,1.49,1.49,0,0,1,.975,1.5c-.057.807-.551,2.5-.73,3.724" style="fill:#ffd800"/><path d="M17.161,12.148l-.307-.045c.085-.582.237-1.258.385-1.911a14.926,14.926,0,0,0,.344-1.8A1.34,1.34,0,0,0,16.7,7.039a1.769,1.769,0,0,0-1.4,0A1.34,1.34,0,0,0,14.42,8.39a14.936,14.936,0,0,0,.344,1.8c.148.653.3,1.328.385,1.911l-.307.045c-.083-.57-.235-1.239-.381-1.887a15.033,15.033,0,0,1-.35-1.849,1.632,1.632,0,0,1,1.063-1.656,2.078,2.078,0,0,1,1.656,0,1.632,1.632,0,0,1,1.063,1.656,15.041,15.041,0,0,1-.35,1.849C17.4,10.908,17.245,11.577,17.161,12.148Z"/><path d="M13.193,13.147c-.767-.972-2.042-2.191-2.494-2.86a1.49,1.49,0,0,1,.09-1.788,1.923,1.923,0,0,1,1.323-.764,1.49,1.49,0,0,1,1.594.816c.354.727.771,2.44,1.23,3.591" style="fill:#ffd800"/><path d="M13.071,13.243c-.357-.453-.823-.956-1.274-1.444a15.026,15.026,0,0,1-1.227-1.426,1.632,1.632,0,0,1,.093-1.966A2.078,2.078,0,0,1,12.1,7.58a1.632,1.632,0,0,1,1.749.9,15.032,15.032,0,0,1,.621,1.776c.2.634.4,1.289.613,1.825l-.289.115c-.218-.547-.423-1.211-.621-1.847a14.93,14.93,0,0,0-.605-1.732,1.34,1.34,0,0,0-1.439-.73,1.769,1.769,0,0,0-1.211.7,1.34,1.34,0,0,0-.088,1.614,14.93,14.93,0,0,0,1.2,1.389c.455.492.925,1,1.289,1.462Z"/><path d="M12.143,14.933c-1.151-.458-2.863-.874-3.591-1.23a1.49,1.49,0,0,1-.816-1.594A1.923,1.923,0,0,1,8.5,10.787a1.49,1.49,0,0,1,1.788-.09c.673.453,1.888,1.727,2.86,2.494" style="fill:#ffd800"/><path d="M12.086,15.078c-.538-.213-1.191-.417-1.825-.613a15.032,15.032,0,0,1-1.776-.621,1.632,1.632,0,0,1-.9-1.749,2.078,2.078,0,0,1,.828-1.435,1.632,1.632,0,0,1,1.966-.093A15.03,15.03,0,0,1,11.8,11.795c.487.451.991.916,1.443,1.274l-.192.241c-.462-.365-.97-.835-1.462-1.289a14.935,14.935,0,0,0-1.389-1.2,1.34,1.34,0,0,0-1.614.088,1.769,1.769,0,0,0-.7,1.211,1.34,1.34,0,0,0,.73,1.439,14.93,14.93,0,0,0,1.732.605c.64.2,1.3.4,1.847.621Z"/><path d="M12.127,17.009c-1.225.178-2.917.673-3.724.73a1.49,1.49,0,0,1-1.5-.972,1.923,1.923,0,0,1,0-1.528,1.49,1.49,0,0,1,1.5-.976c.807.057,2.5.551,3.724.73" style="fill:#ffd800"/><path d="M8.282,17.9a1.638,1.638,0,0,1-1.524-1.068,2.078,2.078,0,0,1,0-1.656,1.632,1.632,0,0,1,1.656-1.063,15.033,15.033,0,0,1,1.849.35c.647.147,1.316.3,1.887.381l-.045.307c-.582-.085-1.258-.237-1.911-.385a14.936,14.936,0,0,0-1.8-.344A1.34,1.34,0,0,0,7.04,15.3a1.769,1.769,0,0,0,0,1.4,1.339,1.339,0,0,0,1.352.882,14.926,14.926,0,0,0,1.8-.344c.653-.148,1.328-.3,1.911-.385l.045.307c-.57.083-1.239.235-1.886.381a15.041,15.041,0,0,1-1.849.35Q8.348,17.9,8.282,17.9Z"/><path d="M13.149,18.808c-.972.767-2.19,2.042-2.86,2.494a1.49,1.49,0,0,1-1.788-.09,1.923,1.923,0,0,1-.764-1.324A1.49,1.49,0,0,1,8.553,18.3c.727-.354,2.44-.771,3.591-1.23" style="fill:#ffd800"/><path d="M9.484,21.716a1.847,1.847,0,0,1-1.076-.379A2.078,2.078,0,0,1,7.579,19.9a1.632,1.632,0,0,1,.9-1.749,15.023,15.023,0,0,1,1.776-.621c.634-.2,1.289-.4,1.825-.613l.115.289c-.547.218-1.211.423-1.847.621a14.938,14.938,0,0,0-1.732.605,1.34,1.34,0,0,0-.73,1.439,1.769,1.769,0,0,0,.7,1.211,1.34,1.34,0,0,0,1.614.088,14.941,14.941,0,0,0,1.389-1.2c.492-.455,1-.925,1.462-1.289l.192.243c-.453.357-.956.823-1.444,1.274a15.032,15.032,0,0,1-1.426,1.227A1.579,1.579,0,0,1,9.484,21.716Z"/><path d="M14.936,19.858c-.458,1.151-.874,2.863-1.23,3.591a1.49,1.49,0,0,1-1.594.816,1.923,1.923,0,0,1-1.324-.764,1.49,1.49,0,0,1-.09-1.788c.453-.673,1.727-1.888,2.494-2.86" style="fill:#ffd800"/><path d="M12.331,24.43q-.114,0-.233-.011a2.078,2.078,0,0,1-1.435-.828,1.632,1.632,0,0,1-.093-1.966A15.029,15.029,0,0,1,11.8,20.2c.451-.487.917-.991,1.274-1.444l.243.192c-.365.462-.835.97-1.289,1.462a14.93,14.93,0,0,0-1.2,1.389,1.34,1.34,0,0,0,.088,1.614,1.768,1.768,0,0,0,1.211.7,1.339,1.339,0,0,0,1.439-.73,14.93,14.93,0,0,0,.605-1.732c.2-.64.4-1.3.621-1.847l.289.115c-.213.538-.417,1.191-.613,1.825a15.032,15.032,0,0,1-.621,1.776A1.589,1.589,0,0,1,12.331,24.43Z"/><path d="M17.01,19.874c.178,1.225.673,2.917.73,3.724a1.49,1.49,0,0,1-.972,1.5,1.923,1.923,0,0,1-1.528,0,1.49,1.49,0,0,1-.975-1.5c.057-.807.551-2.5.73-3.724" style="fill:#ffd800"/><path d="M16,25.415a2.014,2.014,0,0,1-.828-.172,1.632,1.632,0,0,1-1.063-1.656,15.027,15.027,0,0,1,.35-1.849c.147-.647.3-1.316.381-1.887l.307.045c-.085.582-.237,1.258-.385,1.911a14.936,14.936,0,0,0-.344,1.8,1.34,1.34,0,0,0,.882,1.352,1.769,1.769,0,0,0,1.4,0,1.34,1.34,0,0,0,.882-1.352,14.944,14.944,0,0,0-.344-1.8c-.148-.653-.3-1.328-.385-1.911l.307-.045c.083.57.235,1.24.381,1.887a15.036,15.036,0,0,1,.35,1.849,1.632,1.632,0,0,1-1.063,1.656A2.014,2.014,0,0,1,16,25.415Z"/><path d="M18.81,18.852c.767.972,2.042,2.19,2.494,2.86a1.49,1.49,0,0,1-.09,1.788,1.923,1.923,0,0,1-1.324.764,1.49,1.49,0,0,1-1.594-.816c-.354-.727-.771-2.44-1.23-3.591" style="fill:#ffd800"/><path d="M19.672,24.431a1.589,1.589,0,0,1-1.515-.914,15.021,15.021,0,0,1-.621-1.776c-.2-.634-.4-1.289-.613-1.825l.289-.115c.218.547.423,1.211.621,1.847a14.93,14.93,0,0,0,.605,1.732,1.339,1.339,0,0,0,1.439.73,1.769,1.769,0,0,0,1.211-.7,1.34,1.34,0,0,0,.088-1.614,14.925,14.925,0,0,0-1.2-1.389c-.455-.492-.925-1-1.289-1.462l.243-.192c.357.453.823.956,1.273,1.443a15.017,15.017,0,0,1,1.228,1.426,1.632,1.632,0,0,1-.093,1.965,2.078,2.078,0,0,1-1.435.829A1.908,1.908,0,0,1,19.672,24.431Z"/><path d="M19.861,17.066c1.151.458,2.863.874,3.591,1.23a1.49,1.49,0,0,1,.816,1.594,1.923,1.923,0,0,1-.764,1.324,1.49,1.49,0,0,1-1.788.09c-.673-.453-1.888-1.727-2.86-2.494" style="fill:#ffd800"/><path d="M22.521,21.716a1.579,1.579,0,0,1-.893-.286A15.031,15.031,0,0,1,20.2,20.2c-.487-.451-.991-.916-1.443-1.273l.192-.239c.462.365.97.835,1.462,1.289a14.94,14.94,0,0,0,1.389,1.2,1.34,1.34,0,0,0,1.614-.088,1.769,1.769,0,0,0,.7-1.211,1.34,1.34,0,0,0-.73-1.439,14.945,14.945,0,0,0-1.732-.605c-.64-.2-1.3-.4-1.847-.621l.115-.289c.538.213,1.191.417,1.825.613a15.027,15.027,0,0,1,1.776.621,1.632,1.632,0,0,1,.9,1.749,2.078,2.078,0,0,1-.828,1.435A1.847,1.847,0,0,1,22.521,21.716Z"/><path d="M19.876,15c1.225-.178,2.917-.673,3.724-.73a1.49,1.49,0,0,1,1.5.972,1.923,1.923,0,0,1,0,1.528,1.49,1.49,0,0,1-1.5.972c-.807-.057-2.5-.551-3.724-.73" style="fill:#ffd800"/><path d="M23.721,17.9a1.317,1.317,0,0,1-.135,0,15.036,15.036,0,0,1-1.849-.35c-.647-.147-1.316-.3-1.887-.381l.045-.307c.582.085,1.258.237,1.911.385a14.944,14.944,0,0,0,1.8.344A1.339,1.339,0,0,0,24.96,16.7a1.769,1.769,0,0,0,0-1.4,1.339,1.339,0,0,0-1.352-.882,14.94,14.94,0,0,0-1.8.344c-.653.148-1.328.3-1.911.385l-.045-.307c.57-.083,1.239-.235,1.887-.381a15.03,15.03,0,0,1,1.849-.35,1.632,1.632,0,0,1,1.656,1.063,2.078,2.078,0,0,1,0,1.656A1.638,1.638,0,0,1,23.721,17.9Z"/><path d="M18.855,13.192c.972-.767,2.19-2.041,2.863-2.494a1.49,1.49,0,0,1,1.788.09,1.923,1.923,0,0,1,.764,1.324,1.49,1.49,0,0,1-.816,1.594c-.727.354-2.44.771-3.591,1.23" style="fill:#ffd800"/><path d="M19.918,15.079l-.115-.289c.547-.218,1.211-.423,1.847-.621a14.93,14.93,0,0,0,1.732-.605,1.34,1.34,0,0,0,.73-1.439,1.768,1.768,0,0,0-.7-1.211,1.34,1.34,0,0,0-1.614-.088,14.924,14.924,0,0,0-1.389,1.2c-.492.455-1,.925-1.462,1.289l-.192-.243c.453-.357.956-.823,1.443-1.274a15.04,15.04,0,0,1,1.426-1.228,1.632,1.632,0,0,1,1.966.093,2.078,2.078,0,0,1,.831,1.438,1.632,1.632,0,0,1-.9,1.749,15.032,15.032,0,0,1-1.776.621C21.113,14.663,20.454,14.866,19.918,15.079Z"/><path d="M17.068,12.142c.458-1.151.874-2.863,1.23-3.591a1.49,1.49,0,0,1,1.594-.816,1.923,1.923,0,0,1,1.324.764,1.49,1.49,0,0,1,.09,1.788c-.453.673-1.727,1.888-2.494,2.86" style="fill:#ffd800"/><path d="M17.068,12.142c.458-1.151.874-2.863,1.23-3.591a1.49,1.49,0,0,1,1.594-.816,1.923,1.923,0,0,1,1.324.764,1.49,1.49,0,0,1,.09,1.788c-.453.673-1.727,1.888-2.494,2.86" style="fill:#ffd800"/><path d="M18.932,13.243l-.24-.19c.365-.462.835-.97,1.289-1.462a14.93,14.93,0,0,0,1.2-1.389,1.34,1.34,0,0,0-.088-1.614,1.768,1.768,0,0,0-1.211-.7,1.34,1.34,0,0,0-1.439.73,14.947,14.947,0,0,0-.605,1.732c-.2.64-.4,1.3-.621,1.847l-.289-.115c.213-.538.417-1.191.613-1.825a15.031,15.031,0,0,1,.621-1.776,1.632,1.632,0,0,1,1.749-.9,2.078,2.078,0,0,1,1.435.828,1.632,1.632,0,0,1,.093,1.966A15.034,15.034,0,0,1,20.208,11.8C19.755,12.288,19.289,12.792,18.932,13.243Z"/><path d="M16,20.153A4.153,4.153,0,1,1,20.155,16h0A4.158,4.158,0,0,1,16,20.153Z" style="fill:#020000"/><path d="M19.783,16A3.781,3.781,0,1,1,16,12.219h0A3.781,3.781,0,0,1,19.783,16Z" style="fill:#db9e2a"/><path d="M19.345,16A3.343,3.343,0,1,1,16,12.657h0A3.343,3.343,0,0,1,19.345,16Z" style="fill:#da8703"/><path d="M16,13.585A2.413,2.413,0,1,0,18.414,16,2.413,2.413,0,0,0,16,13.585Z" style="fill:#987d17"/><path d="M16,14.9A1.1,1.1,0,1,0,17.1,16,1.1,1.1,0,0,0,16,14.9Z" style="fill:#987d17"/></svg>