<svg xmlns="http://www.w3.org/2000/svg" viewBox="0 0 32 32"><title>file_type_polymer@2x</title><g id="polymer"><path d="M7.58,16l-2.8,4.85,2.8,4.85,2.8-4.85Z" style="fill:#303f9f"/><path d="M24.37,6.3l-2.8,4.85L24.37,16l2.8-4.85Z" style="fill:#3f51b5"/><path d="M27.17,11.15,18.78,25.7h5.6L30,16Z" style="fill:#7986cb"/><path d="M18.78,6.3,7.57,25.7h5.6L24.37,6.3Z" style="fill:#ff4081"/><path d="M7.58,6.3,2,16l2.8,4.85L13.18,6.3Z" style="fill:#536dfe"/><path d="M18.78,6.3l2.8,4.85,2.8-4.85Z" style="fill:#fff;fill-opacity:0.200000002980232"/><path d="M16,11.15l2.8-4.85,2.8,4.85Z" style="fill:#fff;fill-opacity:0.100000001490116"/><path d="M16,11.15,18.78,16l2.8-4.85Z" style="fill:#fff;fill-opacity:0"/><path d="M13.17,16,16,11.15,18.78,16Z" style="fill-opacity:0.100000001490116"/><path d="M13.17,16,16,20.85,18.78,16Z" style="fill-opacity:0.200000002980232"/><path d="M10.38,20.85,13.18,16,16,20.85Z" style="fill-opacity:0.300000011920929"/><path d="M10.38,20.85l2.8,4.85L16,20.85Z" style="fill-opacity:0.400000005960465"/><path d="M7.58,25.7l2.8-4.85,2.8,4.85Z" style="fill-opacity:0.5"/><path d="M7.58,6.3l2.8,4.85,2.8-4.85Z" style="fill:#fff;fill-opacity:0.200000002980232"/><path d="M4.78,11.15,7.58,6.3l2.8,4.85Z" style="fill:#fff;fill-opacity:0.100000001490116"/><path d="M4.78,11.15,7.58,16l2.8-4.85Z" style="fill:#fff;fill-opacity:0"/><path d="M2,16l2.8-4.85L7.58,16Z" style="fill-opacity:0.100000001490116"/><path d="M2,16l2.8,4.85L7.58,16Z" style="fill-opacity:0.200000002980232"/><path d="M10.38,20.85,7.58,16l-2.8,4.85Z" style="fill:#fff;fill-opacity:0"/><path d="M10.38,20.85,7.58,25.7l-2.8-4.85Zm16.8-9.7L24.37,6.3l-2.8,4.85Z" style="fill-opacity:0.200000002980232"/><path d="M27.17,11.15,24.37,16l-2.8-4.85Z" style="fill:#fff;fill-opacity:0"/><path d="M24.37,16l2.8-4.85L30,16Z" style="fill:#fff;fill-opacity:0.200000002980232"/><path d="M24.37,16l2.8,4.85L30,16Z" style="fill:#fff;fill-opacity:0.100000001490116"/><path d="M21.57,20.85,24.37,16l2.8,4.85Z" style="fill:#fff;fill-opacity:0"/><path d="M21.57,20.85l2.8,4.85,2.8-4.85Z" style="fill-opacity:0.100000001490116"/><path d="M18.78,25.7l2.8-4.85,2.8,4.85Z" style="fill-opacity:0.200000002980232"/></g></svg>