<svg xmlns="http://www.w3.org/2000/svg" viewBox="0 0 32 32"><title>file_type_ng2_directive_js@2x</title><g id="ng2_directive_js"><polygon points="15.6 2 15.6 2 15.6 2 2.57 6.65 4.56 23.88 15.6 30 15.6 30 15.6 30 26.65 23.88 28.64 6.65 15.6 2" style="fill:#00d131"/><polygon points="15.6 2 15.6 5.11 15.6 5.09 15.6 19.28 15.6 19.28 15.6 30 15.6 30 26.65 23.88 28.64 6.65 15.6 2" style="fill:#00ba30"/><path d="M15.6,5.09,7.46,23.36h3l1.64-4.09H19l1.64,4.09h3L15.6,5.09ZM18,16.76H13.22L15.6,11Z" style="fill:#fff"/><path d="M24.82,27.57A2.48,2.48,0,0,0,27.07,29c.95,0,1.55-.47,1.55-1.13S28,26.77,27,26.32l-.57-.24c-1.65-.7-2.74-1.58-2.74-3.44a3,3,0,0,1,3.34-3,3.37,3.37,0,0,1,3.24,1.83l-1.78,1.14a1.55,1.55,0,0,0-1.47-1,1,1,0,0,0-1.09,1c0,.68.42,1,1.4,1.39l.57.24c1.94.83,3,1.68,3,3.58S29.29,31,27.12,31A4.38,4.38,0,0,1,23,28.65Zm-8.06.2c.36.64.68,1.17,1.47,1.17s1.22-.29,1.22-1.43V19.75h2.28v7.79A3.1,3.1,0,0,1,18.32,31a3.54,3.54,0,0,1-3.42-2.08Z" style="fill:#f5de19"/></g></svg>