<svg viewBox="0 0 32 32" xmlns="http://www.w3.org/2000/svg" xmlns:xlink="http://www.w3.org/1999/xlink"><radialGradient id="a" cx="-2.176" cy="-852.913" gradientTransform="matrix(.36 .402 .222 -.163 205.356 -126.01)" gradientUnits="userSpaceOnUse" r="48.27"><stop offset="0" stop-color="#7ce1ff"/><stop offset=".3" stop-color="#7ce1ff" stop-opacity="0"/></radialGradient><radialGradient id="b" cx="4199.973" cy="-1221.763" gradientTransform="matrix(.031 .03 .075 -.062 -25.785 -180.883)" gradientUnits="userSpaceOnUse" r="83.239"><stop offset="0" stop-color="#7ce1ff"/><stop offset="1" stop-color="#7ce1ff" stop-opacity="0"/></radialGradient><radialGradient id="c" cx="-264.938" cy="-543.943" gradientTransform="matrix(-1.048 -.5 -1.117 .527 -867.609 176.63)" gradientUnits="userSpaceOnUse" r="27.886"><stop offset="0" stop-color="#7ce1ff" stop-opacity=".8"/><stop offset=".15" stop-color="#7ce1ff" stop-opacity="0"/></radialGradient><linearGradient id="d" gradientTransform="matrix(1 0 0 -1 129.5 -387.5)" gradientUnits="userSpaceOnUse" x1="-113.501" x2="-113.501" y1="-375.465" y2="-404.611"><stop offset="0" stop-color="#fff"/><stop offset="1" stop-color="#fff" stop-opacity="0"/></linearGradient><path d="m8.492 5.6h19.843a1.517 1.517 0 0 1 1.546 1.948l-3.923 16.906a2.636 2.636 0 0 1 -2.45 1.948h-19.843a1.517 1.517 0 0 1 -1.546-1.948l3.923-16.909a2.636 2.636 0 0 1 2.45-1.945z" fill="#2a80c9"/><path d="m23.508 26.471h-19.843a1.653 1.653 0 0 1 -1.333-.6 1.657 1.657 0 0 1 -.279-1.436l3.923-16.905a2.71 2.71 0 0 1 2.516-2h19.843a1.584 1.584 0 0 1 1.612 2.031l-3.923 16.909a2.71 2.71 0 0 1 -2.516 2.001zm-15.016-20.807a2.568 2.568 0 0 0 -2.384 1.9l-3.923 16.906a1.525 1.525 0 0 0 .253 1.321 1.521 1.521 0 0 0 1.227.544h19.843a2.568 2.568 0 0 0 2.384-1.9l3.923-16.905a1.45 1.45 0 0 0 -1.48-1.866z" fill="#1f5e93" opacity=".9451"/><path d="m23.541 26.359h-19.841a1.57 1.57 0 0 1 -1.267-.559 1.574 1.574 0 0 1 -.263-1.364l3.923-16.914a2.514 2.514 0 0 1 2.366-1.881h19.841a1.5 1.5 0 0 1 1.53 1.927l-3.923 16.909a2.514 2.514 0 0 1 -2.366 1.882zm-15.082-20.516a2.336 2.336 0 0 0 -2.169 1.725l-3.923 16.909a1.376 1.376 0 0 0 .224 1.192 1.372 1.372 0 0 0 1.107.487h19.843a2.336 2.336 0 0 0 2.168-1.725l3.924-16.909a1.3 1.3 0 0 0 -1.333-1.679z" fill="#bbd8f1" opacity=".9451"/><g stroke-linecap="round"><path d="m18.558 15.816c.061-.183-7-7.561-7-7.561" fill="none" stroke="url(#a)" stroke-width="76.717003"/><path d="m8.558 22.835s9.942-6.825 10-7" fill="#2aa7c9" stroke="url(#b)" stroke-width="76.717003"/><path d="m8.73 23.121h1.124" fill="none" stroke="url(#c)" stroke-width="100"/></g><path d="m8.817 24.052a1.226 1.226 0 0 1 -.7-2.237c2.77-1.9 6.941-4.786 8.809-6.117-1.253-1.385-3.8-4.088-5.665-6.046a1.226 1.226 0 1 1 1.78-1.692c.017.017 1.674 1.756 3.3 3.493.959 1.022 1.724 1.847 2.269 2.447.334.368.583.649.76.856a1.514 1.514 0 0 1 .494 1.539c-.165.492-.165.492-5.428 4.142-2.438 1.691-4.9 3.383-4.926 3.4a1.221 1.221 0 0 1 -.693.215z" fill="#fff"/><path d="m19.925 23.929h-4.882a1.226 1.226 0 0 1 0-2.453h4.882a1.226 1.226 0 1 1 0 2.453z" fill="#fff" opacity=".75"/><path d="m28.606 13.04c-10.079.433-19.226 2.533-25.181 5.78l-1.307 5.634a1.514 1.514 0 0 0 1.546 1.946h19.843a2.629 2.629 0 0 0 2.45-1.948l2.648-11.412z" opacity=".1"/><path d="m8.492 5.6a2.629 2.629 0 0 0 -2.45 1.948l-3.924 16.907a1.514 1.514 0 0 0 1.546 1.945h19.843a2.629 2.629 0 0 0 2.45-1.948l3.923-16.907a1.514 1.514 0 0 0 -1.546-1.945z" fill="url(#d)"/></svg>