<svg xmlns="http://www.w3.org/2000/svg" viewBox="0 0 32 32"><title>file_type_ttcn</title><path d="M 12.005704,1.0000014 c -0.718127,0 -0.815724,0.016719 -0.376953,0.066408 0.713991,0.080439 1.617473,0.2428506 2.388672,0.4296998 3.154813,0.7643664 5.770495,2.1533402 7.714843,4.0977727 2.071523,2.0715609 3.327962,4.7050772 3.785157,7.9299132 0.135352,0.954778 0.173545,1.560542 0.173828,2.808673 2.8e-4,0.863182 -0.008,1.116562 -0.03906,1.398478 -0.11897,1.081344 -0.302348,2.000399 -0.59375,2.964927 -0.467224,1.546358 -1.197312,3.002755 -2.128906,4.248168 -1.370936,1.832771 -3.19701,3.274342 -5.429687,4.285279 -1.8386,0.832524 -4.031763,1.401415 -6.38086,1.65239 -0.192179,0.02062 -0.348503,0.04102 -0.345703,0.04102 0.02025,0.01781 0.702391,0.06104 1.146484,0.07227 v -0.002 c 5.658524,0.142317 10.343276,-1.889877 13.201172,-5.728679 0.483583,-0.649611 1.021284,-1.525291 1.335938,-2.175843 C 27.1035,21.751376 27.633837,19.90078 27.853363,18.215293 28.392971,14.072383 27.429467,10.102857 25.019376,6.5509404 24.728019,6.1214591 24.499364,5.8454677 24.099454,5.4356744 22.657241,3.9579431 20.688155,2.7584585 18.445157,1.9922171 16.520421,1.3346351 14.34791,0.99990771 12.005704,1.0000014 Z m 6.765625,11.5667346 -0.002,0.002 c 0.03642,0.02583 0.07512,0.05271 0.107422,0.07617 -0.04373,-0.03023 -0.06997,-0.05442 -0.105469,-0.07813 z m 0.203125,0.187506 c 0.0058,0.0051 0.01499,0.01164 0.01953,0.01563 v -0.002 c -0.0066,-0.0044 -0.01301,-0.009 -0.01953,-0.01367 z m 0.207031,3.45713 -0.002,0.002 c -5.48e-4,0.0065 -0.0014,0.01305 -0.002,0.01953 l 0.002,-0.002 c 8.23e-4,-0.0064 0.0011,-0.01308 0.002,-0.01953 z m -1.542969,3.920032 c -0.0031,0.0056 -0.0046,0.012 -0.0078,0.01758 -0.0018,0.0059 -0.004,0.01169 -0.0059,0.01758 0.0047,-0.0086 0.0043,-0.01159 0.0078,-0.01758 0.0018,-0.0059 0.004,-0.01165 0.0059,-0.01758 z m -6.296874,1.111361 c -0.01019,0.0079 -0.01302,0.01181 -0.02539,0.02148 -0.0061,0.0062 -0.01338,0.01134 -0.01953,0.01758 l 0.02734,-0.01953 c 0.0058,-0.0064 0.0079,-0.0096 0.01758,-0.01953 z" style="fill:#00adee;fill-opacity:1;stroke-width:0.02151843" /><path d="M 4.6535181,23.741033 C 4.492139,23.690592 4.2568617,23.498421 4.155311,23.334104 4.0524721,23.167702 4.0008318,22.927699 4.0010215,22.617028 c 3.214e-4,-0.526396 0.1331646,-0.920536 0.440075,-1.305682 0.2739049,-0.343728 0.569143,-0.557649 0.9737542,-0.705556 l 0.2258823,-0.08257 3.765625,-0.01563 3.765624,-0.01563 0.188008,-0.09832 c 0.471542,-0.246615 0.711943,-0.709641 0.798712,-1.538361 0.06756,-0.6452 -0.08991,-1.000277 -0.533595,-1.203225 -0.136445,-0.06241 -0.207632,-0.06491 -2.395197,-0.08394 l -2.2545717,-0.01962 -0.1395794,-0.0818 C 8.6561533,17.361434 8.5115073,17.195332 8.4099073,16.977669 8.3385158,16.824722 8.3277583,16.756634 8.3183395,16.398101 8.3054535,15.907573 8.3558125,15.630037 8.5168423,15.304128 8.6460864,15.042552 8.8901089,14.778973 9.117737,14.65508 9.4528492,14.472683 9.438618,14.473709 11.95394,14.450573 l 2.313207,-0.02128 0.205294,-0.101094 c 0.397777,-0.195878 0.666748,-0.565882 0.812498,-1.117691 0.0889,-0.336586 0.09664,-0.928214 0.01512,-1.156282 -0.129368,-0.36194 -0.357504,-0.602738 -0.701436,-0.74037 l -0.176642,-0.07069 -3.46875,-0.01636 -3.468749,-0.01636 -0.1461147,-0.06753 C 6.9015052,10.941019 6.656358,10.475628 6.656358,9.848184 c 0,-0.6668614 0.2742295,-1.2814222 0.6771694,-1.5175674 l 0.1355221,-0.079423 5.2264665,-0.00479 c 4.10246,-0.00376 5.25406,0.00361 5.354774,0.034268 0.191095,0.058167 0.392192,0.2276402 0.495827,0.417856 0.129919,0.238458 0.144285,0.5771725 0.04509,1.0631317 -0.140864,0.6901177 -0.0799,1.0469497 0.225822,1.3218317 0.228408,0.205364 0.352741,0.236694 1.0737,0.270554 1.243336,0.05839 1.402211,0.09296 1.56624,0.340839 0.159855,0.241564 0.176049,0.130732 -0.488583,3.3438 -0.729347,3.525926 -0.931124,4.452361 -1.049203,4.817303 -0.05861,0.181151 -0.317963,0.435862 -0.551809,0.541938 -0.209705,0.09512 -0.56116,0.140992 -1.05477,0.137651 -0.543307,-0.0037 -0.809396,0.07512 -1.174943,0.347973 -0.210757,0.157309 -0.360656,0.390591 -0.55882,0.869664 -0.211906,0.512296 -0.298414,0.682413 -0.509184,1.001306 -0.295351,0.446862 -0.721723,0.819184 -1.108006,0.967545 -0.121401,0.04663 -0.585292,0.05181 -5.149046,0.05752 -4.2822365,0.0054 -5.0366026,-2.82e-4 -5.1590899,-0.03856 z" style="fill:#949494;fill-opacity:1;stroke-width:0.03125044" /></svg>