<svg viewBox="0 0 32 32" xmlns="http://www.w3.org/2000/svg" xmlns:xlink="http://www.w3.org/1999/xlink"><linearGradient id="a" gradientTransform="matrix(247.636 0 0 -153.765 33318.948 -31686.704)" gradientUnits="userSpaceOnUse" x1="-134.514" x2="-134.455" y1="-206.113" y2="-206.235"><stop offset="0" stop-color="#8a9fe0"/><stop offset=".588" stop-color="#7182b8"/><stop offset="1" stop-color="#576490"/></linearGradient><path d="m14.486 20.381a17.345 17.345 0 0 1 -.046 3.133.835.835 0 0 1 -.439.709c-.831.617-3.616.765-3.963-.546-.128-.005-.026-.429-.148-.413a1.561 1.561 0 0 1 -1.2-.735c.005-1.434.163-6.607-2.4-5.214a2.506 2.506 0 0 0 -1.168 1.429 4.91 4.91 0 0 0 -.24 1.643c-.02.714.158 1.495.184 2.352.01.383.071.48-.214.806-.459.525-1.26.082-1.693-.495a1.893 1.893 0 0 1 -.291-.969 31.065 31.065 0 0 1 1-11.148c.367-1.23.495-1.408 1.663-1.684a12.948 12.948 0 0 1 4.05-.24c1.051-.342 3.545-2.194 4.621-.724a12.527 12.527 0 0 1 9.579 1.75 37.083 37.083 0 0 0 4.259.077c.2-.128.434-.265.638-.383a1.381 1.381 0 0 1 .495-.209c.23-.036.53-.046.6.24a3.292 3.292 0 0 1 .061.893.808.808 0 0 1 -.643.76 4.02 4.02 0 0 1 -1.148-.372c-1.3.036-2.1-.036-3.4 0 .209.224.2.372.352.668a6.381 6.381 0 0 1 -.775 5.979c-.092 1.49.02 2.995.031 4.49.005.515.041 1.005-.444 1.347a3.263 3.263 0 0 1 -2.867.24 2.523 2.523 0 0 1 -.668-.556 2.807 2.807 0 0 1 -.5.01 1.213 1.213 0 0 1 -.689-.505 3.606 3.606 0 0 1 -.235-.525c0-.7-.026-.974-.026-1.673a10.67 10.67 0 0 1 -4.346-.122z" fill="#ccc"/><path d="m12.095 24.839a3.748 3.748 0 0 1 -1.217-.184 1.452 1.452 0 0 1 -.972-.864.46.46 0 0 1 -.1-.322v-.045a1.8 1.8 0 0 1 -1.25-.811l-.024-.039v-.26c.009-1.182.032-4.323-1.034-4.962a1.1 1.1 0 0 0 -1.128.1 2.356 2.356 0 0 0 -1.1 1.349 4.783 4.783 0 0 0 -.228 1.588 8.525 8.525 0 0 0 .085 1.2c.043.366.087.746.1 1.145 0 .059 0 .11.007.156a.849.849 0 0 1 -.26.76.817.817 0 0 1 -.665.288 1.849 1.849 0 0 1 -1.276-.792 1.973 1.973 0 0 1 -.322-1.053 31.068 31.068 0 0 1 1.008-11.206c.375-1.255.54-1.5 1.779-1.793a13.117 13.117 0 0 1 4.068-.247 8.378 8.378 0 0 0 .875-.4c1.232-.616 2.91-1.453 3.831-.334a12.633 12.633 0 0 1 9.567 1.768 36.054 36.054 0 0 0 4.161.072c.2-.123.412-.251.606-.363l.056-.032a1.366 1.366 0 0 1 .494-.2c.444-.069.7.053.777.361a3.477 3.477 0 0 1 .065.939.97.97 0 0 1 -.791.909h-.026l-.025-.007c-.085-.022-.171-.042-.26-.062a3.127 3.127 0 0 1 -.896-.298c-.633.016-1.155.007-1.659 0-.433-.007-.878-.015-1.394-.007.032.063.055.124.08.186a2.467 2.467 0 0 0 .112.256 6.533 6.533 0 0 1 -.761 6.126c-.056.966-.027 1.957 0 2.916.015.491.03 1 .033 1.5v.086a1.448 1.448 0 0 1 -.513 1.393 3.4 3.4 0 0 1 -3.02.257 1.8 1.8 0 0 1 -.564-.437c-.035-.036-.07-.072-.106-.106-.049 0-.1.006-.145.011a.952.952 0 0 1 -.33-.006 1.375 1.375 0 0 1 -.783-.571 1.779 1.779 0 0 1 -.171-.361c-.023-.061-.047-.123-.076-.188l-.014-.031v-.034c0-.347-.006-.594-.013-.832-.005-.2-.01-.4-.012-.659a10.815 10.815 0 0 1 -4-.092 17.55 17.55 0 0 1 -.065 2.931.984.984 0 0 1 -.5.813 3.748 3.748 0 0 1 -2.004.488zm-1.969-1.318h.036l.03.114a1.106 1.106 0 0 0 .791.718 3.912 3.912 0 0 0 2.922-.259.687.687 0 0 0 .375-.6 17.157 17.157 0 0 0 .055-2.976l-.085-.024.35-.694.041.463a10.678 10.678 0 0 0 4.169.088l.181-.024v.182c0 .347.006.594.013.832s.012.473.013.807c.025.059.047.116.069.171a1.524 1.524 0 0 0 .139.3 1.057 1.057 0 0 0 .6.44.729.729 0 0 0 .216 0 1.888 1.888 0 0 1 .244-.013h.06l.044.041c.054.05.108.105.162.16a1.537 1.537 0 0 0 .46.366 3.1 3.1 0 0 0 2.712-.224c.388-.274.383-.65.377-1.127v-.087c0-.5-.018-1-.033-1.492-.029-.987-.059-2.008 0-3.009v-.066l.05-.044a6.184 6.184 0 0 0 .739-5.785 2.755 2.755 0 0 1 -.126-.287.911.911 0 0 0 -.2-.346l-.241-.259.353-.01c.654-.018 1.188-.009 1.706 0s1.045.018 1.691 0h.047l.04.025a2.716 2.716 0 0 0 .835.289c.082.019.163.037.242.057a.671.671 0 0 0 .471-.609 3.141 3.141 0 0 0 -.058-.847c-.014-.061-.041-.176-.416-.117a1.065 1.065 0 0 0 -.384.158l-.056.032c-.2.114-.429.253-.631.379l-.037.023h-.043a36.326 36.326 0 0 1 -4.278-.077h-.042l-.035-.024a12.347 12.347 0 0 0 -9.461-1.725l-.1.018-.059-.08c-.747-1.02-2.334-.227-3.493.352a7.889 7.889 0 0 1 -.95.43l-.032.01h-.033a12.792 12.792 0 0 0 -4 .236c-1.121.264-1.2.4-1.547 1.574a30.75 30.75 0 0 0 -1 11.09 1.683 1.683 0 0 0 .258.884 1.551 1.551 0 0 0 1.033.666.5.5 0 0 0 .413-.179.552.552 0 0 0 .182-.532c0-.049-.006-.1-.007-.164-.011-.386-.055-.758-.1-1.118a8.754 8.754 0 0 1 -.087-1.243 5.022 5.022 0 0 1 .251-1.7 2.67 2.67 0 0 1 1.24-1.509 1.4 1.4 0 0 1 1.444-.1c1.223.733 1.2 3.89 1.19 5.238v.167a1.4 1.4 0 0 0 1.028.622.2.2 0 0 1 .15.045.4.4 0 0 1 .1.3c.009.023.01.052.012.073z" fill="#ccc"/><path d="m13.891 19.981a17.345 17.345 0 0 1 -.046 3.133.835.835 0 0 1 -.439.709c-.831.617-3.616.765-3.963-.546-.128-.005-.026-.429-.148-.413a1.561 1.561 0 0 1 -1.2-.735c.005-1.434.163-6.607-2.4-5.214a2.506 2.506 0 0 0 -1.168 1.429 4.91 4.91 0 0 0 -.24 1.643c-.02.714.158 1.495.184 2.352.01.383.071.48-.214.806-.459.525-1.26.082-1.693-.495a1.893 1.893 0 0 1 -.291-.969 31.065 31.065 0 0 1 1-11.148c.367-1.23.495-1.408 1.663-1.684a12.948 12.948 0 0 1 4.05-.24c1.051-.342 3.545-2.194 4.621-.724a12.527 12.527 0 0 1 9.579 1.75 37.083 37.083 0 0 0 4.259.077c.2-.128.434-.265.638-.383a1.381 1.381 0 0 1 .495-.209c.23-.036.53-.046.6.24a3.292 3.292 0 0 1 .061.893.808.808 0 0 1 -.643.76 4.02 4.02 0 0 1 -1.148-.372c-1.3.036-2.1-.036-3.4 0 .209.224.2.372.352.668a6.381 6.381 0 0 1 -.775 5.979c-.092 1.49.02 2.995.031 4.49.005.515.041 1.005-.444 1.347a3.263 3.263 0 0 1 -2.867.24 2.523 2.523 0 0 1 -.668-.556 2.807 2.807 0 0 1 -.5.01 1.213 1.213 0 0 1 -.689-.505 3.606 3.606 0 0 1 -.235-.525c0-.7-.026-.974-.026-1.673a10.67 10.67 0 0 1 -4.346-.122z" fill="#373435"/><path d="m11.5 24.439a3.748 3.748 0 0 1 -1.217-.184 1.452 1.452 0 0 1 -.972-.864.46.46 0 0 1 -.1-.322v-.045a1.8 1.8 0 0 1 -1.25-.811l-.024-.039v-.26c.009-1.182.032-4.323-1.034-4.962a1.1 1.1 0 0 0 -1.128.1 2.356 2.356 0 0 0 -1.1 1.349 4.783 4.783 0 0 0 -.228 1.588 8.522 8.522 0 0 0 .085 1.2c.043.367.087.746.1 1.146 0 .059 0 .11.007.156a.849.849 0 0 1 -.26.76.816.816 0 0 1 -.665.288 1.849 1.849 0 0 1 -1.276-.792 1.974 1.974 0 0 1 -.322-1.053 31.068 31.068 0 0 1 1.008-11.207c.375-1.255.54-1.5 1.779-1.793a13.115 13.115 0 0 1 4.068-.247 8.378 8.378 0 0 0 .875-.4c1.232-.616 2.91-1.454 3.831-.334a12.634 12.634 0 0 1 9.567 1.769 36.037 36.037 0 0 0 4.156.074c.195-.121.413-.252.606-.363l.056-.032a1.366 1.366 0 0 1 .494-.2c.444-.069.7.053.777.361a3.476 3.476 0 0 1 .065.939.97.97 0 0 1 -.791.909h-.026l-.025-.007c-.085-.022-.171-.042-.26-.062a3.127 3.127 0 0 1 -.889-.3c-.633.016-1.155.007-1.659 0-.433-.007-.878-.015-1.394-.007.032.063.055.124.08.186a2.467 2.467 0 0 0 .112.256 6.534 6.534 0 0 1 -.761 6.126c-.056.966-.027 1.957 0 2.915.014.492.029 1 .033 1.5v.086a1.448 1.448 0 0 1 -.512 1.393 3.4 3.4 0 0 1 -3.02.257 1.8 1.8 0 0 1 -.564-.437c-.035-.036-.07-.072-.106-.106-.049 0-.1.006-.145.011a.95.95 0 0 1 -.33-.006 1.375 1.375 0 0 1 -.783-.571 1.769 1.769 0 0 1 -.171-.361c-.023-.061-.047-.123-.076-.188l-.014-.031v-.034c0-.347-.006-.594-.013-.832-.005-.2-.011-.4-.012-.659a10.817 10.817 0 0 1 -4-.092 17.56 17.56 0 0 1 -.072 2.928.984.984 0 0 1 -.5.813 3.748 3.748 0 0 1 -2 .491zm-1.969-1.318h.036l.03.114a1.106 1.106 0 0 0 .791.718 3.911 3.911 0 0 0 2.922-.259.687.687 0 0 0 .375-.6 17.162 17.162 0 0 0 .055-2.976l-.085-.024.345-.689.041.463a10.679 10.679 0 0 0 4.169.088l.181-.024v.182c0 .347.006.594.013.832s.012.473.013.807c.025.059.047.116.069.172a1.514 1.514 0 0 0 .139.3 1.057 1.057 0 0 0 .6.44.722.722 0 0 0 .216 0 1.888 1.888 0 0 1 .244-.013h.06l.044.041c.054.05.108.1.162.16a1.539 1.539 0 0 0 .46.366 3.1 3.1 0 0 0 2.712-.224c.388-.274.383-.65.377-1.127v-.087c0-.5-.018-1-.033-1.493-.029-.987-.059-2.007 0-3.008v-.066l.05-.044a6.185 6.185 0 0 0 .739-5.785 2.755 2.755 0 0 1 -.126-.287.911.911 0 0 0 -.2-.346l-.241-.259.353-.01c.654-.018 1.188-.009 1.706 0s1.045.018 1.691 0h.047l.04.025a2.716 2.716 0 0 0 .835.289c.082.019.163.037.242.057a.671.671 0 0 0 .471-.609 3.144 3.144 0 0 0 -.058-.847c-.014-.061-.041-.175-.416-.117a1.064 1.064 0 0 0 -.384.158l-.057.032c-.2.115-.431.254-.631.379l-.028.02h-.043a36.353 36.353 0 0 1 -4.278-.077h-.042l-.037-.026a12.347 12.347 0 0 0 -9.461-1.725l-.1.018-.059-.08c-.747-1.02-2.334-.227-3.493.352a7.889 7.889 0 0 1 -.95.43l-.032.01h-.033a12.788 12.788 0 0 0 -4 .236c-1.121.264-1.2.4-1.547 1.574a30.75 30.75 0 0 0 -1 11.09 1.683 1.683 0 0 0 .258.884 1.551 1.551 0 0 0 1.033.666.493.493 0 0 0 .413-.179.552.552 0 0 0 .182-.532c0-.049-.006-.1-.007-.164-.011-.386-.055-.758-.1-1.118a8.743 8.743 0 0 1 -.087-1.243 5.022 5.022 0 0 1 .251-1.7 2.67 2.67 0 0 1 1.24-1.509 1.4 1.4 0 0 1 1.444-.1c1.223.733 1.2 3.89 1.19 5.238v.167a1.4 1.4 0 0 0 1.038.618.2.2 0 0 1 .15.045.4.4 0 0 1 .1.3c-.002.026-.001.055.001.076z" fill="#373435"/><path d="m18.572 19.946a4.782 4.782 0 0 0 .946-.189 11.582 11.582 0 0 1 .137 2.749 1.177 1.177 0 0 1 -1.134-.663 8.774 8.774 0 0 1 .051-1.897z" fill="#6978ab"/><path d="m19.622 22.666a1.33 1.33 0 0 1 -1.242-.749l-.015-.028v-.032a8.978 8.978 0 0 1 .052-1.932l.016-.124.124-.014a4.7 4.7 0 0 0 .915-.182l.164-.053.04.168a10.177 10.177 0 0 1 .147 2.484l-.008.459h-.154zm-.944-.87a1 1 0 0 0 .821.545v-.144a10.985 10.985 0 0 0 -.1-2.238 5.036 5.036 0 0 1 -.683.13 8.609 8.609 0 0 0 -.039 1.711z" fill="#373435"/><path d="m4.052 22.683c-.225-1.474-.454-4.075.6-5.315a3.452 3.452 0 0 1 .27-.321c1.663-1.566 3.112-.219 3.505 1.515a27.314 27.314 0 0 1 .051 3.295 1.109 1.109 0 0 0 1.051.6c.153.316.112.551.286.76a2.5 2.5 0 0 0 2.7.694 8.441 8.441 0 0 0 .913-.454 10.14 10.14 0 0 0 -.1-4.045c0-.184-.061-.306-.061-.49a.626.626 0 0 1 .311.138c-.2.734 2.556 1.239 5.771.352.036-.128-.026-.286.051-.332a.4.4 0 0 1 .337-.041c.015.235.02.464.036.7a4.654 4.654 0 0 0 .75.01.838.838 0 0 1 -.6.214c.056 0-.031.107.02.117.148.036.429-.02.546.031-.219.128-.464.056-.612.2.036.78.056 1.617.087 2.4a2.591 2.591 0 0 0 3.311-.148 28.633 28.633 0 0 0 -.1-4.7c-.117-.015-.235-.036-.352-.051 1.827-2.458 2.179-4.973.648-7.243-.015-.1-.082-.2-.1-.3 1.332-.051 2.7.087 4.036.036a6.478 6.478 0 0 0 1.112.311c.393-.138.464-1.229.077-1.107s-.6.367-1.015.52c-1.531 0-3.23-.061-4.76-.061a9.5 9.5 0 0 0 -9-1.551 8.371 8.371 0 0 1 .26 6.427c-.087.286-1.408 1.122-.327.209 1.092-.928.408-7.375-.934-7.386a6.327 6.327 0 0 0 -4.25 1.7c-.209-.224-.194-.133-.1-.449a9.863 9.863 0 0 0 -3.4.3 1.428 1.428 0 0 0 -1.3.949 33.949 33.949 0 0 0 -1.2 11.094 4.574 4.574 0 0 0 .352 1.3c.6.658.924.469 1.123.122z" fill="url(#a)"/><g fill="#373435"><path d="m6.446 10.422a2.187 2.187 0 0 0 -1.063-.149.144.144 0 0 0 -.153.1.2.2 0 0 0 -.02.154c.031.087.036.082.112.1a.648.648 0 0 0 .3-.026.883.883 0 0 1 .746-.036c.112-.005.123-.051.087-.139z"/><path d="m5.406 10.791a.566.566 0 0 1 -.118-.012h-.013a.246.246 0 0 1 -.217-.2.367.367 0 0 1 .031-.284.294.294 0 0 1 .283-.18 2.335 2.335 0 0 1 1.1.149h.082l.041.1a.237.237 0 0 1 -.227.359h-.024l-.027-.008a.722.722 0 0 0 -.62.022l-.018.011-.02.005a.989.989 0 0 1 -.253.038zm-.044-.323a.5.5 0 0 0 .2-.02l.054-.027c-.07 0-.141 0-.213.011h-.026l-.006.012a.075.075 0 0 0 -.009.024z"/><path d="m5.622 11.687a.549.549 0 0 1 .507-.311c.02-.128 0-.2-.164-.2a1.535 1.535 0 0 0 -.578.51 1.051 1.051 0 0 0 -.077.6.538.538 0 0 0 .2.352.666.666 0 0 0 .752-.031c.358-.209.716-.806.087-1.031a.963.963 0 0 0 -.732.153c-.01.005-.015-.015 0-.041z"/><path d="m5.816 12.906a.622.622 0 0 1 -.408-.142.7.7 0 0 1 -.256-.458 1.154 1.154 0 0 1 .1-.7 1.7 1.7 0 0 1 .635-.568l.035-.021h.038a.338.338 0 0 1 .269.095.348.348 0 0 1 .058.289.683.683 0 0 1 .564.524.975.975 0 0 1 -.508.823 1.067 1.067 0 0 1 -.527.158zm-.323-1.066a1.082 1.082 0 0 0 -.024.432.38.38 0 0 0 .145.248c.193.161.506-.011.567-.047a.674.674 0 0 0 .352-.518c-.009-.1-.089-.172-.237-.225a.824.824 0 0 0 -.593.138l-.013.007-.107.054-.088-.089z"/></g><path d="m5.9 12.381a.4.4 0 0 0 .021.107.211.211 0 0 0 .021.046.215.215 0 0 1 -.2.02c-.221-.1-.205-.41-.092-.578a.671.671 0 0 1 .529-.292c.118.061.154.118.092.133a.337.337 0 0 0 -.1.036.183.183 0 0 0 -.1.113c.051.015.077 0 .123.02v.159a.24.24 0 0 0 -.159-.02c-.1.031-.139.174-.139.261z" fill="#fefefe"/><path d="m6.323 16.459a2.19 2.19 0 0 0 1.677-2.625 1.1 1.1 0 0 1 -.511-.138c-.01-.066-.015-.133-.026-.2.414.2 1 .26.924-.373.056-.015.143-.02.2-.036-.02.444-.1.485-.373.674a3.01 3.01 0 0 1 -.9 2.666.881.881 0 0 0 .036.414 1.233 1.233 0 0 0 -1.026-.373z" fill="#373435"/><path d="m7.632 17.391-.4-.442a1.081 1.081 0 0 0 -.906-.32h-.162v-.28l.113-.045a2.02 2.02 0 0 0 1.584-2.327 1.028 1.028 0 0 1 -.458-.147l-.062-.039-.011-.071c-.005-.035-.01-.07-.014-.105s-.007-.062-.012-.094l-.046-.3.273.132a.734.734 0 0 0 .625.08c.064-.045.088-.143.071-.291l-.015-.136.132-.036a.994.994 0 0 1 .119-.022.721.721 0 0 0 .08-.014l.212-.058-.01.219c-.021.456-.121.571-.361.742a3.172 3.172 0 0 1 -.925 2.669.941.941 0 0 0 .035.252zm-.7-1.008a1.2 1.2 0 0 1 .21.09.431.431 0 0 1 .021-.1l.011-.032.023-.025q.128-.137.237-.275a2.643 2.643 0 0 1 -.502.342z" fill="#373435"/><path d="m22.157 23.213c-.025-.377-.071-.708-.082-1.086-.025-.866-.683-1.055-.719-.189-.02.454 0 .882 0 1.31a2.244 2.244 0 0 0 .801-.035z" fill="#8093d0"/><path d="m21.739 23.32c-.1 0-.194-.006-.289-.012l-.15-.008v-.05c0-.142 0-.283 0-.425 0-.286-.009-.582 0-.887.019-.453.2-.614.361-.614.213 0 .447.283.463.8.006.231.026.442.046.665.013.136.025.274.035.418v.043l-.041.012a1.523 1.523 0 0 1 -.425.058zm-.329-.12h.048a1.993 1.993 0 0 0 .643-.029c-.009-.128-.021-.251-.032-.372-.021-.225-.04-.437-.047-.672-.013-.431-.2-.7-.357-.7-.108 0-.239.134-.255.512-.014.3-.009.6 0 .881-.002.128 0 .253 0 .38z" fill="#373435"/><path d="m21.368 23.257a6.358 6.358 0 0 1 -.081-1.317c.056-.8-.7-1.643-.751-.158a7.955 7.955 0 0 0 .051 1.3 5.155 5.155 0 0 0 .781.175z" fill="#8093d0"/><path d="m21.429 23.321-.069-.011a5.145 5.145 0 0 1 -.79-.175l-.032-.011v-.033a7.975 7.975 0 0 1 -.051-1.31c.016-.479.1-.763.263-.845a.221.221 0 0 1 .234.023 1.2 1.2 0 0 1 .361.985 5.475 5.475 0 0 0 .055 1.156zm-.794-.277a5 5 0 0 0 .671.15l-.01-.083a5.645 5.645 0 0 1 -.063-1.174 1.1 1.1 0 0 0 -.313-.889.119.119 0 0 0 -.126-.018c-.055.028-.185.159-.206.754a7.9 7.9 0 0 0 .047 1.26z" fill="#373435"/><path d="m20.588 23.15-.107-1.7c-.077-1.269-.587-1.121-.628-.076-.02.494.02.764-.026 1.259.24.163.49.484.761.51z" fill="#8093d0"/><path d="m20.583 23.2a1.1 1.1 0 0 1 -.555-.331 2.5 2.5 0 0 0 -.23-.188l-.026-.018v-.031a6.217 6.217 0 0 0 .021-.72c0-.162 0-.329 0-.536.021-.533.162-.879.359-.881.2 0 .338.357.374.956l.107 1.7h-.054zm-.7-.589c.072.052.144.116.215.178a1.28 1.28 0 0 0 .432.293l-.1-1.624c-.038-.629-.181-.856-.268-.856-.09 0-.233.249-.253.779-.009.2-.006.371 0 .531a6.444 6.444 0 0 1 -.026.697z" fill="#373435"/><path d="m11.865 24.028a7.005 7.005 0 0 0 -.061-1.191c-.214-.92-.484-1.033-.8-.353v1.528a3.474 3.474 0 0 0 .862.01z" fill="#8093d0"/><path d="m11.542 24.1c-.166 0-.332-.015-.495-.03l-.1-.009v-1.6c.153-.329.3-.482.448-.466.182.019.326.282.453.829l.01.087a6.605 6.605 0 0 1 .053 1.118h-.052l.007.046a2.073 2.073 0 0 1 -.324.025zm-.486-.136a3.437 3.437 0 0 0 .757.013 6.638 6.638 0 0 0 -.054-1.053l-.009-.081c-.146-.627-.288-.734-.359-.741-.055 0-.168.039-.335.395z" fill="#373435"/><path d="m10.3 23.776c.005-.586.01-.974.01-1.56.214-.862.433-.775.647.26.005.556.01.918.01 1.473a1.647 1.647 0 0 1 -.673-.173z" fill="#8093d0"/><path d="m11.017 24.009-.09-.01a1.627 1.627 0 0 1 -.663-.177l-.175-.1h.154v-.3c0-.41.007-.749.007-1.211v-.013c.108-.434.214-.628.345-.628.1 0 .241.105.4.89v.346c0 .385.007.7.007 1.139zm-.667-.262a1.517 1.517 0 0 0 .561.142c0-.406 0-.711-.007-1.078v-.335c-.157-.753-.277-.794-.3-.794s-.109.012-.241.54c0 .459 0 .8-.007 1.206z" fill="#373435"/><path d="m9.5 22.623c.031-.49.133-.985.163-1.475-.2-.97-.418-1.143-.647-.51-.01.628-.015 1.261-.025 1.889a.711.711 0 0 0 .51.1z" fill="#8093d0"/><path d="m9.373 22.7a.8.8 0 0 1 -.348-.1l-.084-.038v-.035q.008-.471.013-.944t.013-.945v-.017c.1-.287.206-.416.326-.408s.259.121.424.926v.014c-.015.247-.049.5-.082.741s-.066.49-.081.732v.046l-.042.009a.679.679 0 0 1 -.139.019zm-.324-.2.02.009a.61.61 0 0 0 .385.082c.016-.235.048-.474.08-.705s.065-.486.081-.727c-.157-.763-.289-.831-.326-.834-.02 0-.1.017-.215.33q-.008.466-.013.935t-.012.902z" fill="#373435"/><path d="m19.021 22.468c.041-.521-.015-.955 0-1.465.015-.618.626-.439.652.128s.056.858.087 1.424a1.309 1.309 0 0 1 -.733-.087z" fill="#8093d0"/><path d="m19.463 22.618a.922.922 0 0 1 -.451-.1h-.044v-.057a7.342 7.342 0 0 0 .006-.836c-.006-.2-.013-.407-.006-.626.008-.322.167-.438.313-.439.2 0 .427.215.442.566.015.289.03.5.044.721s.028.423.043.7v.054l-.155.006c-.063.008-.128.011-.192.011zm-.387-.184a1.1 1.1 0 0 0 .579.072h.048c-.014-.253-.027-.451-.04-.648-.014-.217-.028-.433-.044-.723s-.183-.465-.336-.465c-.125 0-.2.127-.208.336s0 .421.006.62a7.778 7.778 0 0 1 -.005.808z" fill="#373435"/><path d="m18.989 22.487c-.015-.382-.01-.841-.025-1.223.036-.525-.326-1.3-.468-.438a8.571 8.571 0 0 0 -.081.963 4.066 4.066 0 0 0 .574.698z" fill="#b9c5ea"/><path d="m19.046 22.595-.089-.064a2.556 2.556 0 0 1 -.457-.531c-.048-.067-.092-.128-.128-.174l-.013-.016v-.02c.007-.1.012-.2.016-.28a5.486 5.486 0 0 1 .066-.688c.018-.112.074-.452.253-.43.2.024.343.558.321.88.008.186.01.4.013.607s.005.42.013.61zm-.578-.822c.035.045.075.1.119.162a3.567 3.567 0 0 0 .345.433c0-.158-.007-.327-.009-.491 0-.206-.005-.42-.013-.61.025-.372-.14-.763-.227-.773-.019-.006-.088.054-.136.341a5.4 5.4 0 0 0 -.065.676c-.004.08-.008.165-.014.261z" fill="#373435"/><path d="m14.443 15.459c.26-1.24.515-2.48.775-3.725.041-.291.117-.551.423-.577h.372c.224 0 .352.133.372.4l-.076.551c.01.225.148.352.423.373.372.015.75.036 1.122.051.561.036.938.276.9.975-.117.617-.235 1.235-.352 1.847a.725.725 0 0 1 -.474.648c-.168-.01-.357.01-.525 0-.291.015-.459-.092-.352-.475.107-.485.24-1.092.352-1.577.041-.577-.173-.607-.4-.648-.194-.026-.382 0-.576-.026-.286.041-.393.316-.474.623-.122.515-.25 1.031-.372 1.551-.056.281-.117.464-.326.551h-.622q-.352-.077-.2-.551z" fill="#373435"/><path d="m17.509 16.11c-.037 0-.073 0-.109 0a.468.468 0 0 1 -.415-.137.511.511 0 0 1 -.039-.473l.061-.278c.093-.422.2-.893.288-1.286.031-.465-.094-.488-.3-.526-.186-.025-.365 0-.565-.024-.2.036-.291.235-.373.542-.054.227-.11.458-.166.689-.069.286-.138.572-.206.86s-.123.514-.389.625l-.02.008h-.666a.4.4 0 0 1 -.276-.185.616.616 0 0 1 0-.5l.033-.1q.2-.969.4-1.939.172-.83.345-1.661c.028-.2.087-.625.519-.661h.381c.164 0 .445.064.478.5v.011l-.077.552c.007.113.054.242.324.262l.561.025.557.025a.928.928 0 0 1 1 1.087v.014c-.117.618-.235 1.235-.352 1.848a.829.829 0 0 1 -.543.728l-.02.007h-.022c-.079 0-.164 0-.253 0-.051-.015-.104-.013-.156-.013zm-.108-.216h.006.253s.168 0 .25 0a.625.625 0 0 0 .385-.557q.176-.92.351-1.844c.031-.562-.208-.818-.8-.855l-.556-.025-.563-.026c-.44-.033-.518-.311-.525-.474v-.013l.076-.549c-.023-.256-.154-.289-.265-.289h-.372c-.184.016-.27.143-.318.485-.117.562-.232 1.115-.347 1.668q-.214 1.033-.43 2.064l-.04.193-.012-.012a.261.261 0 0 0 .023.151.187.187 0 0 0 .126.081h.587c.143-.068.192-.2.244-.466.069-.292.138-.579.207-.865q.084-.346.166-.691c.061-.228.172-.648.563-.7h.014.015c.182.024.372 0 .576.026h.014c.286.052.519.145.476.759v.017c-.091.394-.2.868-.289 1.292l-.063.284c-.04.143-.04.241 0 .289s.157.061.243.057z" fill="#fefefe"/><path d="m9.624 16.894c.255-1.322.515-2.644.771-3.961a.426.426 0 0 1 .449-.449h2.348a1.231 1.231 0 0 1 1.107.623 1.587 1.587 0 0 1 .189.934 2.35 2.35 0 0 1 -.694 1.465 2.186 2.186 0 0 1 -1.148.5c-.4.01-.8.015-1.2.026-.23-.02-.459.041-.515.225-.071.25-.122.5-.194.745a.42.42 0 0 1 -.265.23c-.23.005-.464.005-.694.01-.246.004-.195-.142-.154-.348zm1.638-2.266c.066-.347.148-.74.209-1.046a.452.452 0 0 1 .449-.3 1.825 1.825 0 0 1 .715.092.766.766 0 0 1 .383 1.082 1.437 1.437 0 0 1 -.852.7 1.651 1.651 0 0 1 -.51.051c-.439-.046-.475-.163-.4-.582z" fill="#373435"/><path d="m9.766 17.348a.283.283 0 0 1 -.232-.085c-.076-.091-.05-.214-.023-.344l.009-.045q.211-1.092.425-2.184.172-.882.343-1.762a.5.5 0 0 1 .138-.377.559.559 0 0 1 .423-.173h2.343a1.327 1.327 0 0 1 1.2.681 1.693 1.693 0 0 1 .2.99 2.458 2.458 0 0 1 -.724 1.532l-.012.011a2.288 2.288 0 0 1 -1.2.521c-.206.006-.407.009-.607.013l-.6.013h-.012c-.161-.014-.364.016-.4.15s-.065.244-.1.367-.062.25-.1.377a.509.509 0 0 1 -.326.3l-.019.008h-.02l-.345.005-.349.005zm-.067-.22a.226.226 0 0 0 .076.007l.352-.005h.322c.108-.048.17-.1.187-.154.035-.123.065-.245.1-.368s.062-.25.1-.376c.065-.214.3-.329.621-.3l.594-.013.6-.013a2.083 2.083 0 0 0 1.08-.474 2.246 2.246 0 0 0 .659-1.392 1.487 1.487 0 0 0 -.178-.879 1.144 1.144 0 0 0 -1.018-.564h-2.35a.343.343 0 0 0 -.263.107.285.285 0 0 0 -.08.226v.015.015q-.172.887-.346 1.777-.213 1.091-.425 2.184l-.01.047a.541.541 0 0 0 -.02.166zm2.052-1.812c-.035 0-.07 0-.106 0a.636.636 0 0 1 -.458-.179c-.089-.119-.081-.277-.035-.528l.036-.2.007.007c.035-.179.073-.363.108-.536l.073-.343a.555.555 0 0 1 .552-.36 1.889 1.889 0 0 1 .745.1.806.806 0 0 1 .472.449.99.99 0 0 1 -.03.776l-.007.013a1.536 1.536 0 0 1 -.911.745 2.067 2.067 0 0 1 -.447.056zm-.413-.512a.307.307 0 0 0 .021.2c.035.046.133.076.308.095a1.579 1.579 0 0 0 .476-.049 1.322 1.322 0 0 0 .781-.645.775.775 0 0 0 .025-.6.6.6 0 0 0 -.351-.331 1.712 1.712 0 0 0 -.674-.085.34.34 0 0 0 -.35.23l-.061.3c-.048.236-.1.493-.145.729z" fill="#fefefe"/><path d="m18.545 16.894c.255-1.322.515-2.644.771-3.961a.426.426 0 0 1 .449-.449h2.348a1.231 1.231 0 0 1 1.107.623 1.587 1.587 0 0 1 .189.934 2.35 2.35 0 0 1 -.694 1.465 2.186 2.186 0 0 1 -1.148.5c-.4.01-.8.015-1.2.026-.23-.02-.459.041-.515.225-.071.25-.122.5-.194.745a.42.42 0 0 1 -.265.23c-.23.005-.464.005-.694.01-.246.004-.199-.142-.154-.348zm1.638-2.266c.066-.347.148-.74.209-1.046a.452.452 0 0 1 .449-.3 1.825 1.825 0 0 1 .715.092.766.766 0 0 1 .383 1.082 1.437 1.437 0 0 1 -.852.7 1.651 1.651 0 0 1 -.51.051c-.439-.046-.475-.163-.4-.582z" fill="#373435"/><path d="m18.687 17.348a.284.284 0 0 1 -.232-.085c-.076-.091-.05-.214-.023-.344l.009-.045q.21-1.089.423-2.176.173-.886.345-1.77a.5.5 0 0 1 .138-.377.559.559 0 0 1 .423-.173h2.343a1.327 1.327 0 0 1 1.2.681 1.694 1.694 0 0 1 .2.99 2.459 2.459 0 0 1 -.724 1.532l-.012.011a2.288 2.288 0 0 1 -1.2.521c-.206.006-.407.009-.607.013l-.6.013h-.012c-.162-.014-.364.016-.4.15s-.065.244-.1.366-.062.251-.1.377a.509.509 0 0 1 -.326.3l-.019.008h-.02l-.345.005-.349.005zm-.067-.22a.238.238 0 0 0 .076.007l.352-.005h.322c.108-.048.17-.1.187-.154.035-.123.066-.246.1-.368s.062-.249.1-.375c.065-.214.3-.329.621-.3l.594-.013.6-.013a2.083 2.083 0 0 0 1.08-.474 2.246 2.246 0 0 0 .659-1.392 1.486 1.486 0 0 0 -.178-.879 1.144 1.144 0 0 0 -1.018-.564h-2.35a.341.341 0 0 0 -.263.107.285.285 0 0 0 -.08.226v.015.015q-.173.891-.347 1.785-.212 1.087-.423 2.176l-.01.047a.541.541 0 0 0 -.02.166zm2.052-1.812c-.035 0-.07 0-.106 0a.636.636 0 0 1 -.458-.179c-.089-.119-.081-.277-.035-.528l.036-.2.007.007c.035-.18.073-.365.108-.539l.073-.341a.552.552 0 0 1 .552-.36 1.9 1.9 0 0 1 .745.1.806.806 0 0 1 .472.449.99.99 0 0 1 -.03.776l-.007.013a1.536 1.536 0 0 1 -.911.745 2.067 2.067 0 0 1 -.446.057zm-.414-.511a.307.307 0 0 0 .021.2c.035.046.133.076.308.095a1.58 1.58 0 0 0 .476-.049 1.322 1.322 0 0 0 .781-.645.775.775 0 0 0 .025-.6.6.6 0 0 0 -.351-.331 1.709 1.709 0 0 0 -.674-.085.341.341 0 0 0 -.35.23l-.061.3c-.048.237-.1.495-.145.731z" fill="#fefefe"/><path d="m3.425 22.906a1.615 1.615 0 0 1 -.3-.393 1.41 1.41 0 0 1 -.173-.735c-.26-4.433-.031-8.31 1.382-11.478.173-.388.2-.505.561-.684a7.429 7.429 0 0 1 3.452-.4c.036-.1.107-.2.076-.3a9.955 9.955 0 0 0 -3.146.25c-.7.112-1.382.235-1.55 1.347-1.412 3.739-1.31 7.28-1.163 10.759a2.433 2.433 0 0 0 .112.74c.275.877.541.847.75.893z" fill="#ebefff"/><path d="m8.848 22.351c0-.923-.076-1.846-.076-2.773a5.413 5.413 0 0 0 -.341-1.545 7.481 7.481 0 0 0 -.7-1.025 7.387 7.387 0 0 1 .7 4.92c.142.142.269.285.417.423z" fill="#ebefff"/><path d="m8.924 22.534-.071-.027a1.536 1.536 0 0 1 -.66-.542l-.069-.087h.065c.015-.331.009-.634 0-.928-.006-.31-.013-.63.005-.982v-.059l.059.009a.788.788 0 0 1 .69.6v.008.008c-.005.344-.009.65-.013.955s-.008.622-.013.97zm-.631-.614a1.519 1.519 0 0 0 .526.458c0-.316.008-.6.012-.891 0-.3.008-.607.013-.947a.672.672 0 0 0 -.544-.505c-.014.324-.008.623 0 .913 0 .307.01.624-.007.972z" fill="#373435"/><path d="m10.252 23.657a1.022 1.022 0 0 1 -.5-.423c-.036-1.648-.067-3.3-.1-4.949l.251.25a6.049 6.049 0 0 1 .077 1.051l.077.2a37.7 37.7 0 0 0 .195 3.871z" fill="#ebefff"/><path d="m10.335 24.023-.07-.023a1.209 1.209 0 0 1 -.673-.586l-.007-.014v-.02c0-.549.01-1.117.01-1.673v-.014l.007-.012c.151-.275.281-.452.423-.424.111.022.236.151.32.935 0 .583-.01 1.177-.01 1.758zm-.643-.65a1.124 1.124 0 0 0 .537.5c0-.557.005-1.124.01-1.674-.078-.729-.19-.829-.234-.838s-.13.047-.3.359c-.005.55-.005 1.111-.013 1.654z" fill="#373435"/><path d="m8.5 18.057a.708.708 0 0 0 -.036-.25c.041.01.082.015.122.026l.647.526a.377.377 0 0 0 .2-.2.27.27 0 0 1 .214.1c.01.419-.02.832-.01 1.25a.356.356 0 0 1 .122.225 7.181 7.181 0 0 1 .8.077c.015.066.036.107.051.174a4.038 4.038 0 0 0 -.9 0v.189a2.838 2.838 0 0 1 .7.051c.01.056.015.082.025.138a2.831 2.831 0 0 0 -.749.01c.031 1.031.041 2.052 0 3.088-.082-.194-.239-.383-.326-.577a19.57 19.57 0 0 0 .061-3.976 2.746 2.746 0 0 0 -.921-.851z" fill="#373435"/><path d="m9.544 23.524a1.979 1.979 0 0 0 -.155-.274 2.414 2.414 0 0 1 -.17-.3l-.019-.041.006-.045a19.407 19.407 0 0 0 .062-3.9 2.7 2.7 0 0 0 -.852-.767l-.09-.058.02-.106a.343.343 0 0 0 -.018-.113c-.007-.027-.013-.053-.018-.079l-.046-.245.242.06.052.011c.023 0 .047.009.07.015l.034.009.584.474a.156.156 0 0 0 .039-.057l.039-.1h.111a.427.427 0 0 1 .345.171l.027.039v.048c.005.213 0 .427-.005.633 0 .183-.009.372-.006.558a.572.572 0 0 1 .086.131c.166.007.33.029.49.049l.206.025.112.013.025.11a.73.73 0 0 0 .021.072c.01.031.021.063.03.1l.049.212-.217-.017h-.039l.073.4-.211-.022a2.894 2.894 0 0 0 -.569-.009c.032 1.14.03 2.082 0 2.954zm-.014-.664.019.036q0-.108 0-.219-.007.092-.019.183zm-.215-4.36a1.989 1.989 0 0 1 .175.215c0-.115 0-.231 0-.346a.62.62 0 0 1 -.175.131z" fill="#373435"/><path d="m9.121 8.964a3.473 3.473 0 0 0 1.307-.449 5.948 5.948 0 0 1 2.593-.75 1.8 1.8 0 0 0 -1.2-.1 7.176 7.176 0 0 0 -2.7 1.299z" fill="#ebefff"/><path d="m14.114 8.41a10.412 10.412 0 0 1 6.65.3 9.77 9.77 0 0 0 -6.624-.447c-.001.102-.026.051-.026.147z" fill="#ebefff"/></svg>