<svg viewBox="0 0 32 32" xmlns="http://www.w3.org/2000/svg" xmlns:xlink="http://www.w3.org/1999/xlink"><linearGradient id="a" gradientTransform="matrix(240 0 0 -205.6 32295 -35312.585)" gradientUnits="userSpaceOnUse" x1="-134.494" x2="-134.497" y1="-171.82" y2="-171.89"><stop offset="0" stop-color="#f88535"/><stop offset="1" stop-color="#fd2221"/></linearGradient><path d="m19.422 4.007s6.217 3.554 7.844 9.2c1.466 5.1.292 7.534.292 7.534a8.915 8.915 0 0 1 1.742 2.8 4.825 4.825 0 0 1 .29 4.453s-.1-2.08-3.2-2.511c-2.841-.4-3.874 2.366-9.3 2.232a18.435 18.435 0 0 1 -15.09-8.361c2.651 1.446 6.124 3.691 10.449 3.346s5.228-1.674 5.228-1.674a66.9 66.9 0 0 1 -12.786-13.383c3.4 2.845 11.822 8.507 11.626 8.363a75.826 75.826 0 0 1 -8.425-9.766s12.636 10.389 13.653 10.323c.418-.861 2.579-5.318-2.324-12.557z" fill="url(#a)"/></svg>