<svg xmlns="http://www.w3.org/2000/svg" viewBox="0 0 32 32"><title>file_type_quasar</title><circle cx="16" cy="16" r="14" style="fill:#fff"/><path d="M18.291,16A2.29,2.29,0,0,1,16,18.29h0A2.29,2.29,0,0,1,13.71,16h0a2.29,2.29,0,0,1,4.581,0Z" style="fill:#263238"/><path d="M26.168,10.129a11.741,11.741,0,0,0-1.8-2.352L21.721,9.305a8.82,8.82,0,0,0-2.765-1.6,10.866,10.866,0,0,0-2.14,3.053,12.959,12.959,0,0,1,8.818,3.074l1.666-.962a11.741,11.741,0,0,0-1.133-2.739Z" style="fill:#1976d2"/><path d="M26.169,21.869a11.741,11.741,0,0,0,1.137-2.734l-2.648-1.529a8.82,8.82,0,0,0,.005-3.2,10.866,10.866,0,0,0-3.714-.327A12.959,12.959,0,0,1,22.7,23.258l1.666.962A11.741,11.741,0,0,0,26.169,21.869Z" style="fill:#42a5f5"/><path d="M16,27.74a11.741,11.741,0,0,0,2.937-.382V24.3a8.819,8.819,0,0,0,2.77-1.593,10.866,10.866,0,0,0-1.574-3.38,12.959,12.959,0,0,1-7.071,6.1v1.924A11.741,11.741,0,0,0,16,27.74Z" style="fill:#1976d2"/><path d="M5.834,21.87a11.741,11.741,0,0,0,1.8,2.352l2.648-1.529a8.819,8.819,0,0,0,2.765,1.6,10.866,10.866,0,0,0,2.14-3.053,12.959,12.959,0,0,1-8.818-3.074L4.7,19.131A11.741,11.741,0,0,0,5.834,21.87Z" style="fill:#42a5f5"/><path d="M5.833,10.13A11.741,11.741,0,0,0,4.7,12.864l2.648,1.529a8.819,8.819,0,0,0-.005,3.2,10.866,10.866,0,0,0,3.714.327A12.959,12.959,0,0,1,9.305,8.741L7.639,7.779A11.741,11.741,0,0,0,5.833,10.13Z" style="fill:#1976d2"/><path d="M16,4.259a11.741,11.741,0,0,0-2.937.382V7.7a8.819,8.819,0,0,0-2.77,1.593,10.866,10.866,0,0,0,1.574,3.38,12.959,12.959,0,0,1,7.071-6.1V4.648A11.741,11.741,0,0,0,16,4.259Z" style="fill:#42a5f5"/></svg>