<svg xmlns="http://www.w3.org/2000/svg" viewBox="0 0 32 32"><title>file_type_fossa</title><path d="M6.369,16.952a.175.175,0,0,1,.069-.191c.138-.1.313-.2.413-.084l.008.008h0l.008.008h0a.338.338,0,0,0,.26.115,1,1,0,0,0,.5-.2.769.769,0,0,0,.405-.68v-.015c0-.008,0-.122.1-.145a.143.143,0,0,1,.107.038.608.608,0,0,1,.153.482,1.418,1.418,0,0,1-.52.956c-.023.023-.046.038-.069.061-.191.153-.375.29-.543.405-.237.13-.451-.069-.558-.2-.046-.061-.084-.115-.145-.206l-.015-.031a3.235,3.235,0,0,1-.168-.321ZM5.6,19.268l.069.046a.412.412,0,0,0,.1.054.451.451,0,0,0,.313-.015l.115-.023a1.771,1.771,0,0,1-.42-.589.946.946,0,0,1-.176.527ZM7.775,5.73c0-.008-.008-.008,0,0a2.242,2.242,0,0,1-.229-.344c.023.206.061.413.1.6.015.069.023.13.038.191.069-.076.138-.145.2-.214a.57.57,0,0,0-.107-.229ZM4.465,17.548a.17.17,0,0,0,.008-.069v-.023a1.608,1.608,0,0,1,.008-.268,1.962,1.962,0,0,1,.061-.359h0a.028.028,0,0,1,.008-.023.2.2,0,0,0,.008-.092h0a1.908,1.908,0,0,0-.275-.168,3.231,3.231,0,0,1,0,.474v.054a.5.5,0,0,0,.161.436c0,.015.015.023.023.038ZM21.473,9.621a1.671,1.671,0,0,0,.275-.023c.145-.046.245-.069.26-.076a2.866,2.866,0,0,0,1.773-1.368,2.762,2.762,0,0,0,.168-1.292,1.863,1.863,0,0,1-.008-.206A4.046,4.046,0,0,1,24.737,5a2.516,2.516,0,0,0,.482-1.965,1.01,1.01,0,0,0-.512-.589H24.7a2.765,2.765,0,0,0-.42-.153,2.822,2.822,0,0,0-.726-.092A4.177,4.177,0,0,0,20.64,3.575c0,.008-.008.015-.015.023a2.636,2.636,0,0,0-.566,2.125,2.5,2.5,0,0,0,1.078,1.552.228.228,0,0,1,.1.229.234.234,0,0,1-.153.191c-.008,0-.734.275-.887.741a.681.681,0,0,0,.122.6,1.615,1.615,0,0,0,1.154.581ZM5.535,15.163a1.076,1.076,0,0,0,.489-.206,2.775,2.775,0,0,1,.986-.382h.015a.23.23,0,0,0,.183-.229v-.023a.223.223,0,0,0-.145-.191c-.008,0-.015-.008-.023-.008a.8.8,0,0,0-.275-.046H6.758a.757.757,0,0,0-.29.054.618.618,0,0,1-.206.038H6.216a.578.578,0,0,1-.183-.054.376.376,0,0,0-.153-.038.168.168,0,0,0-.061.008.84.84,0,0,0-.352.214.027.027,0,0,1-.015.008H5.444c-.092.076-.191.161-.29.237l-.046.046A.027.027,0,0,0,5.1,14.6l-.015.023a.235.235,0,0,0,.046.268l.023.023h0l.023.023c.168.153.245.222.359.222ZM16.787,29.037c.008,0,.015-.008.023-.008a19.282,19.282,0,0,0,3.34-1.735l.046-.031a.247.247,0,0,0,.107-.191h0v-.023a.069.069,0,0,0-.008-.038c0-.008-.008-.015-.008-.023l-.008-.015a8.37,8.37,0,0,1-.153-4.4,9.083,9.083,0,0,0,.183-1.636v-.054a.238.238,0,0,0-.229-.214.228.228,0,0,0-.183.092l-.008.015v.008l-.015.015a7.235,7.235,0,0,1-.451.719c-1.827,2.622-3.2,4.823-2.943,7.331a.231.231,0,0,0,.229.206.272.272,0,0,0,.076-.015Zm-3.409.948.038-.008a14.614,14.614,0,0,0,2.416-.589h0l.015-.008h.008c.008,0,.015-.008.023-.008h0a.235.235,0,0,0,.138-.214h0v-.015l-.008-.031c-.375-2.752,1.078-5.091,3-7.858,1.231-1.766.9-2.622.543-3.111a1.681,1.681,0,0,0-1.353-.627,2.736,2.736,0,0,0-.818.138q-.378.126-.78.229c-.268.061-.55.115-.841.161-.191.031-.382.054-.566.076a7.889,7.889,0,0,0-2.9.787l-.015.015h-.015c-.084.038-.161.084-.245.122H12.01c-.008.008-.023.008-.031.015h-.008a.179.179,0,0,0-.054.054.027.027,0,0,0-.008.015v.008l-.015.015a.235.235,0,0,0-.023.1.244.244,0,0,0,.084.183h.054v.038a3.57,3.57,0,0,1,1.3,2.782,26.322,26.322,0,0,1-.176,4.365v.015a9.735,9.735,0,0,0-.038,3.157v.015a.142.142,0,0,0,.015.054.235.235,0,0,0,.214.138.132.132,0,0,1,.054-.015ZM6.927,6.93l.015-.015h0V6.907c.107-.13.206-.252.306-.359l.015-.015a.241.241,0,0,0,.054-.145V6.342c-.015-.092-.031-.191-.054-.275a2.826,2.826,0,0,1,0-1.613,6.392,6.392,0,0,1,.076-.787V3.651c.023-.145.046-.29.061-.436a1.372,1.372,0,0,0-.229-1.047A.515.515,0,0,0,6.774,2H6.751a.387.387,0,0,0-.3.107,1.209,1.209,0,0,0-.183.489,3.708,3.708,0,0,0-.046.887c.076.772.061.871,0,1.04a1.7,1.7,0,0,0-.084.619A4.091,4.091,0,0,0,6.4,6.365v.008c.046.145.092.3.13.451h0c0,.008.008.023.008.031v.008a.24.24,0,0,0,.222.153.3.3,0,0,0,.168-.084Zm.283,2.729c0-.008.008-.023.008-.031h0V9.621c.038-.275.069-.642.092-1.192a4.232,4.232,0,0,1,.061-.512h0l.023-.1c0-.015.008-.031.008-.046V7.748a.238.238,0,0,0-.229-.214A.217.217,0,0,0,7,7.618a.027.027,0,0,0-.008.015v.008c-.084.107-.138.176-.153.191l-.008.008a1.393,1.393,0,0,0-.206.313,3.128,3.128,0,0,0-.222.589V8.75q-.046.183-.092.39a.448.448,0,0,0,.069.237,1.2,1.2,0,0,0,.489.428l.008.008c.008.008.015.008.023.015A.212.212,0,0,0,7,9.85a.262.262,0,0,0,.214-.191Zm1.124-4.25h0l.015-.015A4.092,4.092,0,0,1,9.067,4.9h.008A.225.225,0,0,0,9.189,4.7V4.675a.277.277,0,0,0-.054-.13,4.893,4.893,0,0,1-.619-1.063L8.5,3.452c-.054-.107-.107-.214-.153-.313h0l-.023-.046a.239.239,0,0,0-.206-.13.228.228,0,0,0-.183.092.027.027,0,0,0-.008.015v.008l-.015.015a.174.174,0,0,0-.023.084l-.008.076c-.015.161-.038.313-.061.459a5.506,5.506,0,0,0-.076.764A1.519,1.519,0,0,0,8,5.325v.008c0,.008.008.008.015.015A.232.232,0,0,0,8.2,5.44a.123.123,0,0,0,.13-.031ZM8.4,14.238h0a10.126,10.126,0,0,1,1.3-2.2c.183-.26.367-.5.489-.711a18.875,18.875,0,0,0,1.521-3.1c0-.008.008-.015.008-.023a4.712,4.712,0,0,1,1.7-2.156,4.706,4.706,0,0,1,2.3-.665h.015a1.452,1.452,0,0,0,.841-.283V5.1h.008l.015-.015h.008c.015-.015.038-.031.046-.046a.241.241,0,0,0,.054-.145V4.867A.228.228,0,0,0,16.5,4.66l-.069-.008a8.56,8.56,0,0,0-.917-.046,13.037,13.037,0,0,0-2.179.2,4.818,4.818,0,0,1-.78.061c-.229,0-.451-.015-.673-.023s-.436-.023-.65-.023c-.092,0-.168,0-.245.008a3.2,3.2,0,0,0-.7.107h0l-.061.015h-.008a3.491,3.491,0,0,0-2.087,2.1.007.007,0,0,1-.008.008A4.2,4.2,0,0,0,7.8,8.436a6.2,6.2,0,0,1-.283,1.972v.015l-.015.015c-.076.191-.168.375-.283.612l-.023.054c-.161.313-.375.68-.589,1.04l-.061.1c-.031.046-.054.092-.084.138-.183.313-.367.634-.482.879v.015l-.015.015a.027.027,0,0,1-.008.015h0a.272.272,0,0,0-.015.076.226.226,0,0,0,.145.214c.008,0,.015.008.023.008l.015.008c.031.015.061.023.092.038a.158.158,0,0,0,.046.015.142.142,0,0,0,.054-.015h.008a1.328,1.328,0,0,1,.443-.069h.008a1.283,1.283,0,0,1,.68.191,3.006,3.006,0,0,1,.558.52.233.233,0,0,0,.183.084.2.2,0,0,0,.206-.138Zm.665,2.454h0c.015,0,.023-.008.031-.008h.008a1.435,1.435,0,0,0,1.177-.879,14.048,14.048,0,0,0,.657-2.224L11,13.336a7.383,7.383,0,0,1,1.269-3.119l.008-.008a.837.837,0,0,1,.076-.084h0l.015-.015.015-.015a1.764,1.764,0,0,1,1.231-.436,2.962,2.962,0,0,1,.757.107h.008c.046.015.092.023.138.038a2.879,2.879,0,0,0,.8.153h0a1.414,1.414,0,0,0,.734-.2h.008A6.817,6.817,0,0,0,18.8,5.845V5.837c.008-.015.008-.038.015-.054h0l.015-.038V5.738l.008-.015c.008-.023.015-.038.023-.061l.015-.038a.168.168,0,0,0,.008-.061V5.539a.227.227,0,0,0-.352-.168l-.015.008a3.391,3.391,0,0,1-1.987.466c-.268,0-.5.008-.726.023h-.015a3.758,3.758,0,0,0-3.6,2.53,19.236,19.236,0,0,1-1.559,3.18c-.13.214-.313.466-.5.726l-.038.015c-.688.956-1.621,2.27-1.368,3.272v.015a2.069,2.069,0,0,1,.076.7h0v.015a.516.516,0,0,1-.015.107h0v.031a.238.238,0,0,0,.237.237.1.1,0,0,1,.046-.008Zm10.511-6.13h0l.015-.008h.015a6.892,6.892,0,0,1,.719-.4h0c.008,0,.015-.008.031-.015a.225.225,0,0,0,.115-.206V9.912a.232.232,0,0,0-.092-.161h0a1.926,1.926,0,0,1-.451-.443,1.162,1.162,0,0,1-.183-1.024,1.45,1.45,0,0,1,.55-.7H20.3c.008,0,.008-.008.015-.008h0A.229.229,0,0,0,20.4,7.4V7.381a.245.245,0,0,0-.076-.153l-.061-.054.008-.008a2.741,2.741,0,0,1-.581-.948h0l-.023-.092a.236.236,0,0,0-.222-.168.228.228,0,0,0-.183.092.167.167,0,0,0-.023.038c-.008.008-.008.023-.015.031s0,.008-.008.015v.015a8.127,8.127,0,0,0-.054,2.561v.008a14.56,14.56,0,0,1,.076,1.636v.031a.232.232,0,0,0,.237.229.412.412,0,0,1,.1-.054ZM7.92,20.858a2.8,2.8,0,0,0,1.942-.894l.031-.023c.092-.076.183-.153.283-.229h.008l.107-.084.008-.008h.008a10.016,10.016,0,0,1,1.8-1.139,6.741,6.741,0,0,1,1.59-.6,12,12,0,0,1,1.468-.245l.031-.008c.176-.023.359-.046.543-.076a7.923,7.923,0,0,0,1.536-.367A4.811,4.811,0,0,0,20.693,13.4a4.885,4.885,0,0,1,1.154-2.721c.046-.054.1-.115.168-.191a.247.247,0,0,0,.061-.161V10.3a.238.238,0,0,0-.229-.214.325.325,0,0,0-.084.015l-.107.038v-.008c-.757.252-2.3.864-2.66,1.72-.008.031-.023.054-.031.084a3.423,3.423,0,0,1-.68,1.085,5.049,5.049,0,0,1-2.79,1.506A4.3,4.3,0,0,0,13,15.9l-.008.008A11.218,11.218,0,0,0,11.651,17.9a4.134,4.134,0,0,1-2.27,1.827,4.281,4.281,0,0,1-1.437.252,3.046,3.046,0,0,1-1.154-.206H6.766l-.015-.015a.717.717,0,0,0-.275-.061,1.493,1.493,0,0,0-.275.038,1.1,1.1,0,0,1-.283.046H5.841a.233.233,0,0,0-.168.092.027.027,0,0,0-.008.015v.008l-.015.015a.235.235,0,0,0-.023.1.244.244,0,0,0,.084.183l.008.008a1.439,1.439,0,0,0,.176.122,3.73,3.73,0,0,0,2,.52H7.92v.015Zm9.9-15.922a2.878,2.878,0,0,0-.436-.168c-.023-.008-.046-.015-.076-.023a1.708,1.708,0,0,1-.069.168.36.36,0,0,0-.031.13.31.31,0,0,0,.313.313.168.168,0,0,0,.061-.008c.015,0,.023-.008.038-.008a2.247,2.247,0,0,0,.512-.206,2.011,2.011,0,0,0-.313-.2ZM21,26.713h0c.008-.008.015-.015.023-.015l.015-.008c.39-.283.78-.589,1.147-.9a20.361,20.361,0,0,0,3.96-4.5v-.008c.008-.008.015-.023.023-.031a.249.249,0,0,0,.031-.107v-.023a.238.238,0,0,0-.122-.183h-.008a2.49,2.49,0,0,1-.65-.466A6.669,6.669,0,0,1,23.9,16.294l-.015-.13a7.321,7.321,0,0,0-.871-3.188h0c-.3-.436-.589-.894-.848-1.368l-.008-.015a.231.231,0,0,0-.2-.107.228.228,0,0,0-.183.092h0c0,.008-.008.008-.008.015l-.015.023a5.524,5.524,0,0,0-.6,1.857A5.014,5.014,0,0,1,19.1,16.791c-.008,0-.008.008-.015.008l-.008.008a.259.259,0,0,0-.046.046.027.027,0,0,0-.008.015v.008L19,16.891a.235.235,0,0,0-.023.1.23.23,0,0,0,.145.214l.046.023a2.221,2.221,0,0,1,.787.6c.826.978,1.063,2.744.65,4.839a8.86,8.86,0,0,0-.076,3.34,5.572,5.572,0,0,0,.138.566c0,.008,0,.008.008.015a.229.229,0,0,0,.222.161.424.424,0,0,0,.1-.038Zm5.649-6.26.008-.015.008-.015a17.06,17.06,0,0,0,1.284-2.775.027.027,0,0,1,.008-.015.212.212,0,0,0,.008-.069V17.54a.238.238,0,0,0-.122-.183,11.172,11.172,0,0,1-3.18-2.347l-.031-.031a.22.22,0,0,0-.153-.054.228.228,0,0,0-.183.092.027.027,0,0,0-.008.015v.008l-.015.015a.235.235,0,0,0-.023.1v.031l.008.023c.054.359.084.68.107.91l.015.13A6.6,6.6,0,0,0,25.723,20.1a2.07,2.07,0,0,0,.581.42l.069.031a.194.194,0,0,0,.092.015.315.315,0,0,0,.183-.115ZM5.459,18.641h0V18.61h0a.321.321,0,0,0-.222-.268.028.028,0,0,1-.023-.008,1.74,1.74,0,0,1-.275-.1H4.931a3.433,3.433,0,0,1-.359-.2,1.7,1.7,0,0,1-.183-.13L4.381,17.9a.266.266,0,0,0-.13-.046.224.224,0,0,0-.176.092h0c-.008.008-.008.015-.015.023h0a.244.244,0,0,0-.023.107.113.113,0,0,0,.008.054c0,.008,0,.008.008.015.008.023.015.054.023.076A1.8,1.8,0,0,0,4.6,19h0a.793.793,0,0,0,.512.214c.015,0,.031-.008.046-.008a.286.286,0,0,0,.176-.107.644.644,0,0,0,.13-.459Zm2.477-3.356V15.27a.229.229,0,0,0-.161-.2H7.767a1.516,1.516,0,0,0-.39-.046.925.925,0,0,0-.145.008,2.184,2.184,0,0,0-.956.336,1.48,1.48,0,0,1-.757.275.968.968,0,0,1-.673-.367.42.42,0,0,0-.306-.138A.574.574,0,0,0,4.3,15.2a1.2,1.2,0,0,0-.1.076c-.015.015-.023.031-.038.046h0l-.008.008a.027.027,0,0,0-.008.015v.008l-.015.015a.235.235,0,0,0-.023.1.226.226,0,0,0,.206.229h.015a.671.671,0,0,1,.344.145.714.714,0,0,1,.29.925c-.015.046-.023.092-.038.145l-.008.023a1.975,1.975,0,0,0-.046.283c-.008.084-.008.161-.008.229a.441.441,0,0,0,.245.42l.046.023a.144.144,0,0,0,.061.015.151.151,0,0,0,.138-.092c0-.008.008-.015.008-.023s.008-.015.015-.023v-.008c0-.008.008-.008.008-.015l.015-.015c.008-.008.015-.015.023-.015s.015-.008.023-.015.008-.008.015-.008.008-.008.015-.008h.008c.008,0,.008-.008.015-.008h.122a.028.028,0,0,1,.023.008h.008l.015.008c.008,0,.015.008.031.015s.008.008.015.008.015.008.023.015l.015.015.015.015c.008.008.015.015.015.023h0c0,.008.008.008.008.015v.008c0,.008.008.008.008.015l.008.008c0,.008.008.008.008.015A.27.27,0,0,0,5.94,18a.522.522,0,0,0,.26.061.934.934,0,0,0,.2-.023c.076-.023.115-.061.115-.084a.182.182,0,0,0-.054-.13l-.008-.008a.324.324,0,0,1-.038-.054c-.046-.069-.092-.122-.153-.214l-.023-.038a2.006,2.006,0,0,1-.206-.375l-.023-.054a1.1,1.1,0,0,1,.023-1.009.7.7,0,0,1,.589-.313h.008a.514.514,0,0,1,.474.436h0a.191.191,0,0,0,.191.138.163.163,0,0,0,.092-.023c.008-.008.015-.008.023-.015s.015-.008.023-.015c.168-.115.214-.145.229-.375a.563.563,0,0,1,.191-.42c.008-.008.015-.008.023-.015a.229.229,0,0,0,.084-.176c-.023,0-.023,0-.023-.008Zm10.74-6.551c-.008-.138-.023-.275-.031-.413V8.306a.238.238,0,0,0-.229-.214.228.228,0,0,0-.183.092.027.027,0,0,0-.008.015v.008l-.015.015A6.151,6.151,0,0,1,16.39,10.11a3.027,3.027,0,0,1-1.322,1.85L15,12.006a.16.16,0,0,0-.046.031,3.62,3.62,0,0,1-2.087.5h0a1.125,1.125,0,0,0-1.4.91l-.061.245A14.009,14.009,0,0,1,10.718,16a2,2,0,0,1-1.643,1.185,2.307,2.307,0,0,0-.925.367.3.3,0,0,1-.076.061c-.191.153-.375.29-.55.405l-.054.038a2.977,2.977,0,0,1-.948.428l-.038.008a.028.028,0,0,0-.023.008H6.445a.23.23,0,0,0-.176.229.258.258,0,0,0,.038.13h0a.106.106,0,0,1,.023.031.007.007,0,0,0,.008.008,1.477,1.477,0,0,0,.6.436l.015.008a2.626,2.626,0,0,0,.978.176,3.94,3.94,0,0,0,3.295-1.842,11.668,11.668,0,0,1,1.406-2.079,4.751,4.751,0,0,1,2.737-1.521A4.591,4.591,0,0,0,17.926,12.7a2.7,2.7,0,0,0,.581-.933c.008-.031.023-.061.031-.084a7.437,7.437,0,0,0,.138-2.951ZM6.048,12.266a.046.046,0,0,0-.008-.031v-.008a2.119,2.119,0,0,1-.161-.436v-.015a.174.174,0,0,0-.153-.115.163.163,0,0,0-.13.061h0a.027.027,0,0,1-.008.015h0a.007.007,0,0,1-.008.008.046.046,0,0,0-.008.031,6.217,6.217,0,0,1-.237.619c-.054.115-.107.214-.161.313h0a.007.007,0,0,1-.008.008h0v.008h0c0,.008-.008.015-.008.031a.069.069,0,0,0,.008.038.007.007,0,0,0,.008.008.324.324,0,0,1,.038.054h0a.327.327,0,0,0,.252.183.364.364,0,0,0,.283-.2c0-.008.008-.008.008-.015.084-.161.183-.336.283-.5a.027.027,0,0,1,.008-.015h0a.069.069,0,0,0,.008-.038c-.008.008-.008.008-.008,0Zm-.986.994c0-.008-.008-.008-.008-.015a.007.007,0,0,0-.008-.008.131.131,0,0,0-.1-.054.123.123,0,0,0-.1.046h0a.007.007,0,0,1-.008.008v.008h0a.007.007,0,0,1-.008.008h0a2.336,2.336,0,0,0-.245.956v.015h0a.121.121,0,0,0,.122.122.123.123,0,0,0,.069-.023l.008-.008a.812.812,0,0,0,.084-.069l.008-.008a1.935,1.935,0,0,0,.214-.2l.008-.008h0l.008-.008h0c.2-.183.115-.466-.046-.764Z" style="fill:#90a1b8"/></svg>