<svg xmlns="http://www.w3.org/2000/svg" viewBox="0 0 32 32"><title>file_type_typescript@2x</title><g id="typescript"><path d="M25.42,7.64a5,5,0,0,1,2.5,1.44,6.57,6.57,0,0,1,1,1.28c0,.05-1.72,1.22-2.78,1.87,0,0-.19-.14-.36-.39a2.26,2.26,0,0,0-1.88-1.13c-1.21-.08-2,.55-2,1.61a1.46,1.46,0,0,0,.17.75c.27.55.76.88,2.31,1.55,2.86,1.23,4.08,2,4.84,3.19a5.79,5.79,0,0,1,.46,4.87,5.35,5.35,0,0,1-4.42,3.16,12.24,12.24,0,0,1-3,0,7.33,7.33,0,0,1-4.06-2.12,7.05,7.05,0,0,1-1-1.54,3,3,0,0,1,.37-.23L19,21.06l1.15-.67.24.35a5.36,5.36,0,0,0,1.51,1.45,3.71,3.71,0,0,0,3.88-.2A1.74,1.74,0,0,0,26,19.8c-.31-.44-.94-.82-2.74-1.6a9.88,9.88,0,0,1-3.76-2.31,5.26,5.26,0,0,1-1.1-2,8,8,0,0,1-.07-2.55A4.86,4.86,0,0,1,22.4,7.56,10.11,10.11,0,0,1,25.42,7.64ZM16.05,9.31v1.63h-5.2V25.71H7.2V10.94H2V9.34A15.71,15.71,0,0,1,2,7.69s3.18,0,7,0l7,0Z" style="fill:#007acc"/></g></svg>