<svg xmlns="http://www.w3.org/2000/svg" viewBox="0 0 32 32"><title>file_type_gcloud</title><path d="M19.77,10.94h.85L23.06,8.5l.11-1A10.92,10.92,0,0,0,5.38,12.81a1.31,1.31,0,0,1,.85-.05L11.1,12s.25-.41.37-.38a6.06,6.06,0,0,1,8.31-.63Z" style="fill:#ea4335"/><path d="M26.52,12.81a11,11,0,0,0-3.3-5.33L19.8,10.9A6,6,0,0,1,22,15.71v.61a3,3,0,0,1,0,6.08H16l-.61.61v3.65l.61.61H22a7.91,7.91,0,0,0,4.49-14.46Z" style="fill:#4285f4"/><path d="M9.86,27.23h6.08V22.36H9.86a3,3,0,0,1-1.25-.27l-.86.27L5.3,24.79l-.21.85A7.82,7.82,0,0,0,9.86,27.23Z" style="fill:#34a853"/><path d="M9.86,11.44A7.91,7.91,0,0,0,5.09,25.62l3.52-3.53a3,3,0,1,1,4-4l3.52-3.53A7.9,7.9,0,0,0,9.86,11.44Z" style="fill:#fbbc05"/></svg>