<svg id="Layer_1" data-name="Layer 1" xmlns="http://www.w3.org/2000/svg" viewBox="0 0 32 32"><path d="M14.18,7.28a2.07,2.07,0,0,1,2.78-1,1.35,1.35,0,0,1,.26.15A3.63,3.63,0,0,1,18.2,8c1.36,3.12,2.9,6.17,4.12,9.35.64,1.5,1.43,2.94,2,4.47A1.44,1.44,0,0,1,23,23.45a1.41,1.41,0,0,1-1-.24c-2.8-1.57-5.63-3.09-8.39-4.73,2,0,4,0,6,0a19.89,19.89,0,0,0-1.28-2.92c-.78-1.85-1.6-3.69-2.36-5.56a9.31,9.31,0,0,0-1,2.13c-1.3,3.18-2.87,6.24-4.14,9.43-.28.59-.42,1.34-1,1.69a1.45,1.45,0,0,1-2-.51,1.63,1.63,0,0,1-.11-.23c-.24-.61.15-1.2.38-1.74.78-1.73,1.65-3.41,2.29-5.2C11.65,12.8,12.92,10,14.18,7.28Z" style="fill:#fefefe"/><path d="M17.45,10.29l-3.19,5.48h0l-3.11-5.39Z" style="fill:#83ff50;stroke:#83ff50;stroke-miterlimit:1.3176000118255615;stroke-width:0.0867941603064537px"/><path d="M17.45,10.29h0l-6.21.09H4.86v-.09L8,4.82h6.3Z" style="fill:#96ff5b;fill-opacity:0.6470000147819519"/><path d="M14.26,15.77h0l-3.11,5.47H4.86L1.75,15.77l3.11-5.48L8,15.58l6.3.19Z" style="fill:#00d6ff;stroke:#00d6ff;stroke-miterlimit:1.3176000118255615;stroke-width:0.0867941603064537px"/><path d="M14.26,15.77H8l-3.1-5.48,6.29.09Z" style="fill:#7dffff;stroke:#7dffff;stroke-miterlimit:1.3176000118255615;stroke-width:0.0867941603064537px"/><path d="M17.45,21.15,15,21.24H11.15l3.11-5.47,6.2.09Z" style="fill:#32e6ff;stroke:#32e6ff;stroke-miterlimit:1.3176000118255615;stroke-width:0.0867941603064537px"/><path d="M20.64,26.53l-.09.19H14.16l-3.1-5.48h0l3.1-5.38h0l-3,5.38H15l2.37-.09.09.09,3.19,5.29Z" style="fill:#00d5ff;fill-opacity:0.5450000166893005"/><path d="M17.45,21.06h0l-3.19-5.29h6.2Z" style="fill:#20e6ff;stroke:#20e6ff;stroke-miterlimit:1.3176000118255615;stroke-width:0.0867941603064537px"/><path d="M23.65,21.24h-6.2l-.09-.09,3.1-5.47.09.09Z" style="fill:#2af0ff;stroke:#2af0ff;stroke-miterlimit:1.3176000118255615;stroke-width:0.0867941603064537px"/><path d="M23.65,21.24l-3,5.29-.09-.18-3.1-5.2,6.11-.09Z" style="fill:#29efff;fill-opacity:0.800000011920929"/><path d="M26.76,15.68l-3.11,5.47h0l-3.1-5.38h-6.2v-.09h0l3.1-5.39h6.3l3,5.39Z" style="fill:#32f8b9;stroke:#32f8b9;stroke-miterlimit:1.3176000118255615;stroke-width:0.0867941603064537px"/><path d="M30,21.15l-3.19,5.57H20.55l3-5.39v-.09h0l3.11-5.47v-.09h.09Z" style="fill:#32f6b8;fill-opacity:0.5649999976158142"/></svg>