<svg xmlns="http://www.w3.org/2000/svg" viewBox="0 0 32 32"><title>file_type_ansible@2x</title><g id="ansible"><path d="M16,30A14,14,0,1,1,16.19,2,14,14,0,0,1,16,30ZM13.78,16.82c.1.1.1.1.19.1,2,1.64,4.05,3.19,6,4.83a10.93,10.93,0,0,0,1.26,1A1,1,0,0,0,22.76,22a1.64,1.64,0,0,0-.1-.68l-3.77-9c-.58-1.35-1.16-2.8-1.74-4.15a.87.87,0,0,0-.58-.58c-.58-.19-1,.1-1.26.68-2,4.73-4,9.56-6,14.29,0,.1-.1.19-.1.29h1.93c.19,0,.19-.1.29-.19.39-.87.68-1.83,1.06-2.7A31.23,31.23,0,0,1,13.78,16.82Z"/><path d="M13.78,16.82c-.39,1.06-.87,2.12-1.26,3.19-.39.87-.77,1.83-1.06,2.7a.35.35,0,0,1-.29.1H9.24c0-.1.1-.19.1-.29,2-4.73,4-9.56,6-14.29.29-.58.68-.87,1.26-.68a.87.87,0,0,1,.58.58c.58,1.35,1.16,2.8,1.74,4.15l3.77,9a3,3,0,0,1,.1.87,1,1,0,0,1-1.54.68,14.19,14.19,0,0,1-1.26-1c-2-1.64-4.05-3.19-6-4.83C13.88,16.82,13.88,16.82,13.78,16.82Zm2.51-6.28c-.58,1.54-1.16,3-1.83,4.44-.1.1,0,.19.1.29,1.45,1.16,2.9,2.22,4.34,3.38.29.19.58.48.87.68h0C18.61,16.44,17.45,13.54,16.29,10.55Z" style="fill:#fff"/><path d="M16.29,10.55c1.16,3,2.41,5.89,3.57,8.79h0c-.29-.19-.58-.48-.87-.68-1.45-1.16-2.9-2.22-4.34-3.38-.1-.1-.19-.1-.1-.29C15,13.54,15.61,12.09,16.29,10.55Z"/></g></svg>