<svg xmlns="http://www.w3.org/2000/svg" xmlns:xlink="http://www.w3.org/1999/xlink" viewBox="0 0 32 32"><defs><linearGradient id="linear-gradient" x1="5.5" y1="16" x2="26.5" y2="16" gradientUnits="userSpaceOnUse"><stop offset="0.08" stop-color="#aa2237"/><stop offset="0.98" stop-color="#b4313d"/></linearGradient><linearGradient id="linear-gradient-2" x1="10.1" y1="5.6" x2="16.17" y2="5.6" gradientUnits="userSpaceOnUse"><stop offset="0.04" stop-color="#b83a41"/><stop offset="0.9" stop-color="#bf4a50"/></linearGradient><linearGradient id="linear-gradient-3" x1="7.85" y1="20.84" x2="7.85" y2="14.7" gradientUnits="userSpaceOnUse"><stop offset="0.04" stop-color="#a92237"/><stop offset="0.94" stop-color="#972235"/></linearGradient><linearGradient id="linear-gradient-4" x1="13.13" y1="29.44" x2="13.13" y2="20.84" gradientUnits="userSpaceOnUse"><stop offset="0.04" stop-color="#bc4245"/><stop offset="0.94" stop-color="#a42136"/></linearGradient><linearGradient id="linear-gradient-5" x1="19.21" y1="8.7" x2="19.21" y2="2.57" gradientUnits="userSpaceOnUse"><stop offset="0.04" stop-color="#cc5057"/><stop offset="0.9" stop-color="#b73840"/></linearGradient><linearGradient id="linear-gradient-6" x1="21.78" y1="7.87" x2="24.38" y2="6.36" gradientUnits="userSpaceOnUse"><stop offset="0.08" stop-color="#d4575f"/><stop offset="0.94" stop-color="#b63540"/></linearGradient><linearGradient id="linear-gradient-7" x1="22.26" y1="11.73" x2="26.48" y2="11.73" gradientUnits="userSpaceOnUse"><stop offset="0" stop-color="#c04b51"/><stop offset="1" stop-color="#b83a41"/></linearGradient><linearGradient id="linear-gradient-8" x1="22.24" y1="17.79" x2="26.47" y2="17.79" gradientUnits="userSpaceOnUse"><stop offset="0" stop-color="#ba4044"/><stop offset="1" stop-color="#b4303c"/></linearGradient><linearGradient id="linear-gradient-9" x1="21.35" y1="23.26" x2="24.6" y2="24.44" gradientUnits="userSpaceOnUse"><stop offset="0" stop-color="#972136"/><stop offset="1" stop-color="#9f2236"/></linearGradient><linearGradient id="linear-gradient-10" x1="18.56" y1="21.3" x2="24.1" y2="27.9" gradientUnits="userSpaceOnUse"><stop offset="0.04" stop-color="#b22c3a"/><stop offset="0.94" stop-color="#c04d53"/></linearGradient><linearGradient id="linear-gradient-11" x1="16.2" y1="29.44" x2="16.2" y2="23.31" gradientUnits="userSpaceOnUse"><stop offset="0.04" stop-color="#b22c3a"/><stop offset="0.94" stop-color="#9b2135"/></linearGradient><linearGradient id="linear-gradient-12" x1="22.22" y1="6.64" x2="25.29" y2="6.64" gradientUnits="userSpaceOnUse"><stop offset="0.04" stop-color="#fff"/><stop offset="0.74" stop-color="#f4e6d9"/></linearGradient><linearGradient id="linear-gradient-13" x1="17.16" y1="4.55" x2="22.11" y2="7.41" gradientUnits="userSpaceOnUse"><stop offset="0.04" stop-color="#fff"/><stop offset="0.9" stop-color="#f4e6d9"/></linearGradient></defs><title>file_type_rails@2x</title><g id="rails"><path d="M27,26.84A3.16,3.16,0,0,1,23.84,30H5V5.16A3.16,3.16,0,0,1,8.16,2H27Z" style="fill:#80152a"/><path d="M26.5,26.54a2.88,2.88,0,0,1-2.95,2.94H5.5v-24A2.88,2.88,0,0,1,8.45,2.52H26.5Z" style="fill:url(#linear-gradient)"/><polygon points="10.1 2.54 10.17 8.66 5.62 10.18 10.1 2.54" style="fill:#8a2034"/><polygon points="10.1 2.54 10.17 8.66 16.17 6.16 10.1 2.54" style="fill:url(#linear-gradient-2)"/><polygon points="7.61 14.7 10.17 8.66 5.62 10.18 7.61 14.7" style="fill:#ae2338"/><polygon points="7.61 14.7 10.13 20.84 5.57 19.36 7.61 14.7" style="fill:url(#linear-gradient-3)"/><polygon points="10.11 29.44 10.13 20.84 5.57 19.36 10.11 29.44" style="fill:#8a2034"/><polygon points="10.11 29.44 5.57 29.44 5.57 19.36 10.11 29.44" style="fill:#8c2033"/><polygon points="10.11 29.44 10.13 20.84 16.16 23.32 10.11 29.44" style="fill:url(#linear-gradient-4)"/><polygon points="22.19 2.58 22.26 8.7 16.17 6.16 22.19 2.58" style="fill:url(#linear-gradient-5)"/><polygon points="22.19 2.58 22.26 8.7 26.48 10.2 22.19 2.58" style="fill:url(#linear-gradient-6)"/><polygon points="24.74 14.77 22.26 8.7 26.48 10.2 24.74 14.77" style="fill:url(#linear-gradient-7)"/><polygon points="24.74 14.77 22.24 20.81 26.48 19.3 24.74 14.77" style="fill:url(#linear-gradient-8)"/><polygon points="22.29 29.43 22.24 20.81 26.48 19.3 22.29 29.43" style="fill:url(#linear-gradient-9)"/><polygon points="22.29 29.43 22.24 20.81 16.16 23.31 22.29 29.43" style="fill:url(#linear-gradient-10)"/><polygon points="22.29 29.43 10.11 29.44 16.16 23.31 22.29 29.43" style="fill:url(#linear-gradient-11)"/><path d="M16.79,16.58l1.37.63-.14-1-1.25-.67ZM6.4,19.85l1.78.2.39-1.66-1.71-.3ZM12.74,8.37,11.57,7.5l-.81,1.1,1.28.8Zm3.58-2.9-.75-1-1.05.62.87,1Zm3.85-.68L19.93,4l-1.27-.1.37.87Zm4.29,1L23.39,5v.49l1,.63ZM10.07,12.87l-1.46-.63-.49,1.45,1.5.56Zm7.26-.65-.26.89L18,14l.23-.83Zm6-4,.78,0V7.89l-.81-.16Zm-3.24-3C16.32,5,9.61,8.57,8.64,22.83h9.2c-2.06-5.34-1.82-9.37-.41-12.11,2.06-4,5.13-4.24,8-2.56.1-.24.24-.55.24-.55A7.82,7.82,0,0,0,20.07,5.2Zm.28,3,.34.82.63-.34-.23-.75ZM18.27,10l.7,1,.43-.63-.61-.95Zm1.07,11.15-.43-1-1.59-.3.42,1.2Z" style="fill:#f7dee1"/><polygon points="10.97 8.33 12.07 7.87 11.57 7.5 10.97 8.33" style="fill:#fff"/><polygon points="15.39 6.06 15.68 5.87 14.65 5.26 15.39 6.06" style="fill:#fff"/><polygon points="6.86 18.09 6.45 19.65 7.43 19.96 8.18 20.05 8.57 18.39 6.86 18.09" style="fill:#d7c4c9"/><path d="M9.17,18.48q-.17.94-.29,2l1.26.41Z" style="fill:#d7c4c9"/><polygon points="6.45 19.65 6.4 19.85 7.43 19.96 6.45 19.65" style="fill:#c2c3c6"/><path d="M10.13,20.84l-1.26-.41c-.09.76-.17,1.56-.23,2.4h1.48Z" style="fill:#c2c3c6"/><polygon points="10.13 22.83 14.98 22.83 10.13 20.84 10.13 22.83" style="fill:#ddc3c8"/><path d="M23.68,5.22,23.39,5v.49l.69.43Zm.77,1.37a7.09,7.09,0,0,0-2.23-1.07l0,1.67a6.32,6.32,0,0,1,3.05.89ZM23.32,8.21l.78,0V7.89l-.81-.16Z" style="fill:url(#linear-gradient-12)"/><path d="M22.22,5.52a9.53,9.53,0,0,0-2.15-.33,7.36,7.36,0,0,0-3.85,1L20,7.77a4.37,4.37,0,0,1,2.2-.58Zm-2-.75L19.93,4h-.09l-.91.54.1.24ZM20.67,8l.54.22-.12-.38Z" style="fill:url(#linear-gradient-13)"/><path d="M10.22,26v-.68a1.08,1.08,0,0,0-1-1H7v4.07h1.1V27.24L9,28.42h1.32L9.32,27A1.09,1.09,0,0,0,10.22,26Zm-1.08.2h-1v-.82h1Zm4.27-1.91h-1a1.07,1.07,0,0,0-1,1.06v3h1.08v-.79h1v.79h1.1v-3A1.1,1.1,0,0,0,13.41,24.34Zm0,2.18h-1V25.43h1ZM23.5,25.8H22.44v-.44H24.3v-1H22.44a1.08,1.08,0,0,0-1.1,1v.43a1.1,1.1,0,0,0,1.09,1.07h1v.49h-2v1h2a1.08,1.08,0,0,0,1.12-1v-.54A1.06,1.06,0,0,0,23.5,25.8Zm-4.43-1.46H18v4.07H20.7V27.32H19.07Zm-3.36,4.07H16.8V24.34H15.71Z" style="fill:#fff"/></g></svg>