<svg id="ts" xmlns="http://www.w3.org/2000/svg" viewBox="0 0 32 32">
  <title>file_type_typescript@2x</title>
  <polygon points="2.1 16 2.1 29.91 16 29.91 29.91 29.91 29.91 16 29.91 2.1 16 2.1 2.1 2.1 2.1 16" style="fill: #007acc"/>
  <path d="M24.51,14.89a3.46,3.46,0,0,1,1.74,1,4.58,4.58,0,0,1,.67.89s-1.2.85-1.93,1.3a0.62,0.62,0,0,1-.25-0.27A1.58,1.58,0,0,0,23.42,17,1.13,1.13,0,0,0,22,18.15a1,1,0,0,0,.12.52c0.19,0.38.53,0.61,1.61,1.08,2,0.86,2.84,1.42,3.37,2.22a4,4,0,0,1,.32,3.39,3.73,3.73,0,0,1-3.08,2.2,8.53,8.53,0,0,1-2.12,0,5.11,5.11,0,0,1-2.83-1.47A4.91,4.91,0,0,1,18.71,25L19,24.84l1-.6,0.8-.46L21,24A3.73,3.73,0,0,0,22,25a2.58,2.58,0,0,0,2.71-.14,1.21,1.21,0,0,0,.15-1.54A4.57,4.57,0,0,0,23,22.25a6.88,6.88,0,0,1-2.62-1.61,3.67,3.67,0,0,1-.76-1.39,5.57,5.57,0,0,1,0-1.77,3.39,3.39,0,0,1,2.85-2.64A7,7,0,0,1,24.51,14.89Z" style="fill: #fff"/>
  <path d="M18,16.05v1.14H14.37V27.48H11.81V17.19H8.19V16.08a10.94,10.94,0,0,1,0-1.15s2.22,0,4.89,0H18v1.13Z" style="fill: #fff"/>
  <rect width="32" height="32" style="fill: #fff;opacity: 0"/>
</svg>
