<svg xmlns="http://www.w3.org/2000/svg" viewBox="0 0 32 32"><path fill="#121317" d="M4.1 2v28H13q4.6 0 7.94-1.8a13 13 0 0 0 5.15-4.93q1.8-3.16 1.81-7.27c.01-4.11-.6-5.16-1.81-7.27s-2.93-3.76-5.15-4.93A16.5 16.5 0 0 0 13 2z"/><path fill="#33cb9a" d="M8.86 7.6h9.21c.78 0 1.43.76 1.43 1.68s-.65 1.68-1.43 1.68H8.86z"/><path fill="#d22f43" d="M8.86 21.04H19.8c.75 0 1.38.76 1.38 1.68s-.63 1.68-1.38 1.68H8.86z"/><path fill="#f3cb51" d="M8.86 14.32h5.95c.73 0 1.33.76 1.33 1.68s-.6 1.68-1.33 1.68H8.86z"/></svg>