<svg viewBox="0 0 32 32" xmlns="http://www.w3.org/2000/svg"><g fill="#ffb13b"><path d="m7.674 14.488a2.218 2.218 0 1 0 0 3.137h16.652a2.218 2.218 0 1 0 0-3.137z" stroke="#000" stroke-width="3.73"/><path d="m11.222 9.06a2.218 2.218 0 1 0 -2.222 2.218l11.778 11.774a2.218 2.218 0 1 0 2.222-2.218z" stroke="#000" stroke-width="3.73"/><path d="m17.568 7.73a2.218 2.218 0 1 0 -3.137 0v16.652a2.218 2.218 0 1 0 3.137 0z" stroke="#000" stroke-width="3.73"/><path d="m23 11.278a2.218 2.218 0 1 0 -2.222-2.218l-11.778 11.774a2.218 2.218 0 1 0 2.218 2.218z" stroke="#000" stroke-width="3.73"/><path d="m7.674 14.488a2.218 2.218 0 1 0 0 3.137h16.652a2.218 2.218 0 1 0 0-3.137z"/><path d="m11.222 9.06a2.218 2.218 0 1 0 -2.222 2.218l11.778 11.774a2.218 2.218 0 1 0 2.222-2.218z"/><path d="m17.568 7.73a2.218 2.218 0 1 0 -3.137 0v16.652a2.218 2.218 0 1 0 3.137 0z"/><path d="m23 11.278a2.218 2.218 0 1 0 -2.222-2.218l-11.778 11.774a2.218 2.218 0 1 0 2.218 2.218z"/></g><path d="m2 16.056h28v9.894a4.035 4.035 0 0 1 -4.106 4.106h-19.788a4.035 4.035 0 0 1 -4.106-4.106z"/><path d="m6.2 23.045a3.628 3.628 0 1 1 6.2-2.565h-2.13a1.5 1.5 0 1 0 -2.57 1.061 1.6 1.6 0 0 0 1.062.441 4.118 4.118 0 0 1 2.566 1.063 3.628 3.628 0 1 1 -6.194 2.565h2.13a1.5 1.5 0 1 0 2.566-1.06 1.948 1.948 0 0 0 -1.063-.44 4.465 4.465 0 0 1 -2.567-1.065z" fill="#fff"/><path d="m19.651 16.852-2.566 12.388h-2.125l-2.56-12.388h2.12l1.5 7.255 1.5-7.255z" fill="#fff"/><path d="m23.28 21.983h3.628v3.628a3.628 3.628 0 1 1 -7.257 0v-5.131a3.628 3.628 0 0 1 7.257 0h-2.125a1.5 1.5 0 1 0 -3.005 0v5.13a1.5 1.5 0 0 0 3.005 0v-1.5h-1.5v-2.127z" fill="#fff"/></svg>