<svg xmlns="http://www.w3.org/2000/svg" viewBox="0 0 32 32"><svg width="28" height="28" x="2" y="2" viewBox="0 0 152 128"><g fill="#7c1900"><path d="M69.2 1.3c-18.3 7-19 32.6-1 40.1 2.1.9 4.8 1.6 6.2 1.6s2.8.4 3.1 1c.8 1.2.4 1.2-9.1-.1-8.3-1.1-12.6-.2-14.4 3.2-2.1 3.8-1.6 3.9 22.5 3.9 16 0 23.5-.3 23.5-1.1 0-3.7-6.7-7.9-12.8-7.9h-2.7l3.1-1.9c13.4-8.2 13.3-28.8-.1-36.6C82.3.4 74.1-.6 69.2 1.3m-4.5 30.1c1.6 2.3 5.1 5.4 7.8 6.9 4.8 2.7 2.7 2.8-2.5.2-6-3.1-11.1-11.4-10.9-17.7.1-3 .2-2.9 1.4 1.6.8 2.8 2.7 6.8 4.2 9M63 62c0 9.6-.2 10.6-3.2 16.2-3.2 6-7.3 9.9-11.6 11.3l-2.4.7 2.1 2.2c3.5 3.7 2.8 8-2.3 13.4-2.5 2.7-4.9 6-5.5 7.4-.8 2-2 2.8-6.3 3.8-7 1.6-30.1 9.1-29.6 9.5.2.3 2.8-.2 5.8-1 10.6-2.9 39.6-8.4 49.4-9.5 9.7-1 47.4-4 50.9-4 1.5 0 1.1-.9-2-4.5l-3.8-4.4-9.5-.2c-5.2 0-11.7-.4-14.5-.9-4.1-.6-2.8-.8 7-.9 12.4-.2 20.3-1.7 11.5-2.2-4.4-.2-4.5-.2-.7-.6 7.2-.8 3.6-2.3-5.5-2.4-5.1 0-11.3-.4-13.8-.8-3.3-.6-.6-.9 10.1-1 12.3-.1 14.9-.4 16-1.8 1.1-1.3 1.2-1.7.1-2.1-3.7-1.2-9.8-7.2-12.1-12-1.9-3.9-3-5.2-4.3-4.8-1.4.3-1.8-.2-1.7-2.2.1-1.7.3-2.1.6-1 1.2 4.5 2.3 1 2.3-7.1v-8.8l-11.7-.6c-6.5-.2-12.6-.8-13.5-1.2-1.6-.7-1.8.2-1.8 9.5m5.6 9.2c-.4 2.8-1.4 6.5-2.3 8.2-2.1 4.2-7.1 9.4-10.8 11.3-2.8 1.4-2.8 1.3.6-1.6 5-4.2 9.6-11.7 11-17.9 1.6-6.7 2.4-6.7 1.5 0M82 121.1c-13 .7-38.8 4.3-39.9 5.6-.4.3 1.7.3 4.4 0 17.1-2 53.3-2.9 75.4-1.8 12.8.7 23.5 1 23.7.8.8-.7-20.1-3.7-29.9-4.2-5-.3-11.7-.7-14.7-.9-3-.1-11.6.1-19 .5"/></g></svg></svg>