<svg viewBox="0 0 32 32" xmlns="http://www.w3.org/2000/svg"><path d="m17.25 11.04v-4.387l6.406 3.241v6.343l-2.548-1.229v-1.995z" fill="#4396b9"/><path d="m25.722 15.2 1.66.849-6.258 3.129-.016-4.175 2.548 1.229z" fill="#b8dde8"/><path d="m17.25 8.407-2.612 1.293 2.612 1.34z" fill="#75bed5"/><path d="m14.764 22.4-.053-6.32-6.355-3.168-6.356-3.138v6.412l.061 6.21 6.146 3.073.184.092.013.006 6.359 3.172v-6.339" fill="#4396b9"/><path d="m27.382 16.053-6.274 3.137v-6.177l-6.4 3.062.055 6.453v6.21l6.343-3.172v-.035l6.276-3.131v-6.348" fill="#75bed5"/><path d="m30 13.065-6.343 3.171v-6.343l6.343-3.172v6.343" fill="#75bed5"/><path d="m17.25 6.653 6.406 3.241 6.344-3.173-6.47-3.309-4.372 2.256-4.7-2.407-6.383 3.321-6.075 3.192 6.356 3.139 6.355 3.163 6.4-3.062-6.473-3.314-.083.043-.016-.008.1-.035 2.612-1.3v-1.747" fill="#b8dde8"/></svg>