<svg xmlns="http://www.w3.org/2000/svg" viewBox="0 0 32 32"><title>file_type_agda</title><path fill="#d2d2d2" d="M8.46 10.79a.61.61 0 0 1-.62.61.61.61 0 0 1-.6-.61.61.61 0 0 1 .6-.61.61.61 0 0 1 .62.61zm2.26 0a.61.61 0 0 1-.61.61.61.61 0 0 1-.61-.61.61.61 0 0 1 .61-.61.61.61 0 0 1 .61.61z"/><path fill="none" stroke="#d2d2d2" stroke-linecap="round" stroke-linejoin="round" stroke-width=".82" d="M25.06 4.67 16 13.73m13.6-6.8-4.54 4.54m4.53-6.8L25.06 9.2M13.73 4.67 9.2 9.2M16 4.67 11.47 9.2m0-4.53L2.4 13.73h4.53v4.54c0 4.98 4.08 9.06 9.06 9.06s9.06-4.08 9.06-9.06v-4.54l4.53-4.53"/></svg>