<svg viewBox="0 0 32 32" xmlns="http://www.w3.org/2000/svg" xmlns:xlink="http://www.w3.org/1999/xlink"><linearGradient id="a" gradientTransform="matrix(721.094 0 0 -482.937 97213.595 -49874.512)" gradientUnits="userSpaceOnUse" x1="-134.811" x2="-134.772" y1="-103.284" y2="-103.323"><stop offset="0" stop-color="#cbced0"/><stop offset="1" stop-color="#84838b"/></linearGradient><linearGradient id="b" gradientTransform="matrix(398 0 0 -406.124 53893 -41812.83600000001)" gradientUnits="userSpaceOnUse" x1="-135.378" x2="-135.339" y1="-102.985" y2="-103.024"><stop offset="0" stop-color="#276dc3"/><stop offset="1" stop-color="#165caa"/></linearGradient><path d="m16 23.956c-7.732 0-14-4.2-14-9.376s6.268-9.38 14-9.38 14 4.2 14 9.38-6.268 9.376-14 9.376zm2.143-15.086c-5.877 0-10.643 2.87-10.643 6.41s4.764 6.41 10.641 6.41 10.214-1.962 10.214-6.41-4.335-6.41-10.212-6.41z" fill="url(#a)"/><path d="m23.321 19.726a10.545 10.545 0 0 1 1.34.5 2.591 2.591 0 0 1 .68.485 1.835 1.835 0 0 1 .311.447l3.339 5.63h-5.4l-2.524-4.74a6.1 6.1 0 0 0 -.835-1.145.879.879 0 0 0 -.641-.291h-1.28v6.173h-4.776v-15.759h9.591s4.374.074 4.374 4.235-4.179 4.465-4.179 4.465zm-2.077-5.28h-2.891v2.681h2.893a1.323 1.323 0 0 0 1.34-1.364 1.247 1.247 0 0 0 -1.342-1.316z" fill="url(#b)"/></svg>