<svg viewBox="0 0 32 32" xmlns="http://www.w3.org/2000/svg"><path d="m21.357 8.222.843-2.937a1.656 1.656 0 0 0 1.539-1.627 1.691 1.691 0 0 0 -3.381 0 1.624 1.624 0 0 0 .821 1.4l-.829 2.882a18.632 18.632 0 0 0 -4.361-.54l-.37.16v22.321l.37.119c2.23 0 11.987-6.516 12.011-13.509 0-5.01-3.444-7.259-6.643-8.269z" fill="#d06e35"/><path d="m19.008 22.6c-1.9-2.94-1.1-9.783 3.873-10.761a3.241 3.241 0 0 1 3.524 2.579c1.241 4.082-6.064 9.795-7.397 8.182z" fill="#fff"/><path d="m21.992 16.3a1.49 1.49 0 1 0 1.54 1.489 1.517 1.517 0 0 0 -1.54-1.489z" fill="#d06e35"/><path d="m22.452 17.674a.376.376 0 1 1 .389-.376.383.383 0 0 1 -.389.375z" fill="#fff"/><path d="m11.61 8.008-.823-2.995a1.617 1.617 0 0 0 .784-1.378 1.691 1.691 0 0 0 -3.381 0 1.662 1.662 0 0 0 1.682 1.634l.825 3c-3.212 1.031-6.697 3.289-6.697 8.222.071 7.131 9.759 13.509 11.989 13.509v-22.6a19.046 19.046 0 0 0 -4.379.608z" fill="#f17b36"/><path d="m13.31 22.6c-1.333 1.616-8.639-4.1-7.4-8.182a3.241 3.241 0 0 1 3.53-2.579c4.972.978 5.776 7.821 3.873 10.764z" fill="#fff"/><path d="m10.23 16.345a1.49 1.49 0 1 0 1.54 1.489 1.517 1.517 0 0 0 -1.54-1.489z" fill="#f17b36"/><path d="m9.77 17.719a.376.376 0 1 1 .389-.376.382.382 0 0 1 -.388.376z" fill="#fff"/></svg>