<svg xmlns="http://www.w3.org/2000/svg" viewBox="0 0 32 32"><path d="M1,20.965V7.471a.3.3,0,0,1,.339-.339H6.347a6.922,6.922,0,0,1,5.091,2.121,7.069,7.069,0,0,1,0,10.1,6.977,6.977,0,0,1-5.091,2.122H1.339a.311.311,0,0,1-.254-.085C1.085,21.219,1,21.134,1,20.965Zm3.225-2.631H6.177a3.714,3.714,0,0,0,2.8-1.188,4.033,4.033,0,0,0,1.1-2.971,3.917,3.917,0,0,0-3.9-4.073H4.225Z" style="fill:#13adc7"/><path d="M15.6,24.784,9.232,11.035c-.085-.169-.085-.254,0-.339a.441.441,0,0,1,.339-.17h2.716c.17,0,.255.085.34.255l3.394,7.468h.085L19.5,10.781c.085-.17.169-.255.339-.255h2.716a.439.439,0,0,1,.339.17.257.257,0,0,1,0,.339L16.53,24.784c-.084.169-.169.254-.339.254h-.17C15.767,24.953,15.6,24.868,15.6,24.784Z" style="fill:#945dd6"/><path d="M20.689,19.437a6.979,6.979,0,0,1-2.122-5.177,6.979,6.979,0,0,1,2.122-5.177,6.982,6.982,0,0,1,5.177-2.121,7,7,0,0,1,4.922,1.867c.17.17.17.339,0,.594l-1.613,1.612a.318.318,0,0,1-.509,0,4,4,0,0,0-2.715-1.018,3.8,3.8,0,0,0-2.886,1.273,4.167,4.167,0,0,0-1.1,2.97,4.041,4.041,0,0,0,1.188,2.886,3.608,3.608,0,0,0,2.885,1.188,4,4,0,0,0,2.716-1.019.319.319,0,0,1,.509,0l1.613,1.7a.319.319,0,0,1,0,.509,6.588,6.588,0,0,1-4.923,1.952A6.78,6.78,0,0,1,20.689,19.437Z" style="fill:#f46737"/></svg>