<svg viewBox="0 0 32 32" xmlns="http://www.w3.org/2000/svg" xmlns:xlink="http://www.w3.org/1999/xlink"><linearGradient id="a" gradientTransform="matrix(1 0 0 -1 0 34)" gradientUnits="userSpaceOnUse" x1="14.989" x2="15.124" y1="17.164" y2="17.091"><stop offset="0" stop-opacity=".03"/><stop offset=".085" stop-color="#090909" stop-opacity=".027"/><stop offset=".224" stop-color="#212121" stop-opacity=".023"/><stop offset=".398" stop-color="#494949" stop-opacity=".018"/><stop offset=".603" stop-color="#808080" stop-opacity=".012"/><stop offset=".83" stop-color="#c6c6c6" stop-opacity=".005"/><stop offset="1" stop-color="#fff" stop-opacity="0"/></linearGradient><circle cx="16" cy="16" fill="#3f4142" r="14"/><path d="m26.469 12.631-8.992 1.019 4.146 4.14 4.948-4.942c.145-.148.097-.241-.102-.217z" fill="#ebeded"/><path d="m20.273 17.76-3.785-3.785-3.007 5.665 2.441 2.441a.994.994 0 0 0 .705.289.994.994 0 0 0 .705-.289l2.935-2.917a.98.98 0 0 0 .289-.7.964.964 0 0 0 -.283-.704z" fill="#ebeded"/><g fill="#f9f9f9"><path d="m12.1 9.588v7.407a3.618 3.618 0 0 0 .892 2.158l.488.488 3.007-5.665z"/><path d="m7.906 19.074 3.266 3.266v-7.75l-3.266 3.266a.869.869 0 0 0 0 1.218z"/><path d="m10.377 12.866-3.266-3.266v7.744l3.266-3.266a.862.862 0 0 0 0-1.212z"/></g><path d="m16.488 13.975.115.115-3.007 5.665-.115-.115z" fill="url(#a)"/></svg>