<svg xmlns="http://www.w3.org/2000/svg" viewBox="0 0 32 32"><title>file_type_ng_component_html</title><path d="M2.73,6.67,15.85,2V30L4.77,23.88Z" style="fill:#de3641"/><path d="M15.85,2,29.27,6.59,27.08,23.8,15.85,30Z" style="fill:#b13138"/><path d="M15.85,5.14l8.53,18.23H21.47l-1.82-4.16h-3.8V16.73h2.77L15.85,11l-2.33,5.73h2.33v2.48H12.38l-1.63,4.16H7.61Z" style="fill:#fff"/><polygon points="18.69 28.21 17.58 15.74 29.8 15.74 28.69 28.21 23.68 29.6 18.69 28.21" style="fill:#e44f26"/><polygon points="23.69 28.54 27.74 27.42 28.69 16.76 23.69 16.76 23.69 28.54" style="fill:#f1662a"/><polygon points="23.69 21.39 21.67 21.39 21.53 19.82 23.69 19.82 23.69 18.29 23.69 18.29 19.85 18.29 19.89 18.7 20.27 22.92 23.69 22.92 23.69 21.39" style="fill:#ebebeb"/><polygon points="23.69 25.36 23.68 25.36 21.98 24.9 21.87 23.68 21.04 23.68 20.34 23.68 20.55 26.08 23.68 26.95 23.69 26.95 23.69 25.36" style="fill:#ebebeb"/><polygon points="23.69 21.39 23.69 22.92 25.57 22.92 25.39 24.9 23.69 25.36 23.69 26.95 26.82 26.08 26.85 25.82 27.2 21.8 27.24 21.39 26.83 21.39 23.69 21.39" style="fill:#fff"/><polygon points="23.69 18.29 23.69 19.24 23.69 19.82 23.69 19.82 27.38 19.82 27.38 19.82 27.38 19.82 27.41 19.47 27.48 18.7 27.52 18.29 23.69 18.29" style="fill:#fff"/></svg>