<svg viewBox="0 0 32 32" xmlns="http://www.w3.org/2000/svg" xmlns:xlink="http://www.w3.org/1999/xlink"><linearGradient id="a" gradientTransform="matrix(561.015 0 0 -1011.593 1365.643 33384.042)" gradientUnits="userSpaceOnUse" x1="-2.413" x2="-2.401" y1="32.987" y2="32.984"><stop offset="0" stop-color="#919191"/><stop offset="1" stop-color="#fff"/></linearGradient><linearGradient id="b" gradientTransform="matrix(373.691 0 0 -614.108 1582.079 20634.253)" gradientUnits="userSpaceOnUse" x1="-4.202" x2="-4.191" y1="33.569" y2="33.566"><stop offset="0" stop-color="#900"/><stop offset="1" stop-color="#e80000"/></linearGradient><path d="m16.884 2.57a.326.326 0 0 0 0 .161 4.485 4.485 0 0 1 -.027 1.648l-8.257 21.478a3.077 3.077 0 0 0 5.748 2.2l8.257-21.481a5.661 5.661 0 0 1 1.085-1.232.863.863 0 0 0 .107-.121v-.013c0-.013.013-.013.013-.027.214-.549-1.166-1.594-3.068-2.331s-3.63-.885-3.842-.322a.059.059 0 0 0 -.016.04z" opacity=".5"/><path d="m16.643 2.383a.326.326 0 0 0 0 .161 4.482 4.482 0 0 1 -.027 1.648l-8.254 21.477a3.077 3.077 0 0 0 5.748 2.2l8.254-21.48a5.665 5.665 0 0 1 1.085-1.233.865.865 0 0 0 .107-.121v-.013c0-.013.013-.013.013-.027.215-.549-1.169-1.595-3.069-2.331s-3.631-.884-3.845-.322a.049.049 0 0 1 -.013.04z" fill="url(#a)"/><path d="m19.242 12.1-5.962 15.485a2.217 2.217 0 0 1 -2.854 1.246 2.268 2.268 0 0 1 -1.326-2.854l3.805-9.9a4.356 4.356 0 0 1 1.407-1.313c.938-.549 1.7-.429 2.733-.884a8.088 8.088 0 0 0 2.2-1.782z" fill="url(#b)"/><path d="m22.133 4.547c.119-.31-.736-.928-1.909-1.381s-2.224-.566-2.339-.259.736.928 1.909 1.381 2.221.569 2.339.259z" fill="#333"/><g fill="#fff"><path d="m16.587 2.542a4.487 4.487 0 0 1 -.027 1.643l-8.199 21.415a3.059 3.059 0 0 0 1.77 3.928 2.555 2.555 0 0 0 .825.187 3.092 3.092 0 0 1 -1.024-3.525l8.04-20.99a5.141 5.141 0 0 1 -1.384-2.659z" opacity=".3"/><g opacity=".5"><circle cx="13.952" cy="16.357" r=".24"/><circle cx="15.509" cy="18.08" r=".359"/><circle cx="13.126" cy="20.138" r=".679"/><circle cx="12.035" cy="21.394" r=".359"/><circle cx="13.459" cy="24.066" r=".24"/></g></g></svg>