<?xml version="1.0" encoding="UTF-8"?>
<svg width="300px" height="277px" viewBox="0 0 300 277" version="1.1" xmlns="http://www.w3.org/2000/svg" xmlns:xlink="http://www.w3.org/1999/xlink">
    <!-- Generator: Sketch 41.2 (35397) - http://www.bohemiancoding.com/sketch -->
    <title>api-blueprint-69eb89fa</title>
    <desc>Created with Sketch.</desc>
    <defs></defs>
    <g id="Page-1" stroke="none" stroke-width="1" fill="none" fill-rule="evenodd">
        <g id="api-blueprint-69eb89fa">
            <g id="api-blueprint">
                <g id="Page-1">
                    <g id="Desktop-HD">
                        <g id="Group">
                            <g id="api-blueprint">
                                <path d="M171.855061,97.8403806 L222.624291,177.993618 L226.346594,183.8703 L238.021088,176.375402 L234.298786,170.49872 L183.529555,90.3454824 L179.807252,84.4688006 L168.132758,91.9636988 L171.855061,97.8403806 L171.855061,97.8403806 L171.855061,97.8403806 Z M116.470445,90.3454824 L65.7012141,170.49872 L61.9789118,176.375402 L73.6534065,183.8703 L77.3757088,177.993618 L128.144939,97.8403806 L131.867242,91.9636988 L120.192748,84.4688006 L116.470445,90.3454824 L116.470445,90.3454824 L116.470445,90.3454824 Z" id="Shape-Copy" fill="#5E9CFF"></path>
                                <path d="M150,106.870984 C179.313575,106.870984 203.076923,82.9470988 203.076923,53.4354918 C203.076923,23.9238846 179.313575,0 150,0 C120.686425,0 96.9230771,23.9238846 96.9230771,53.4354918 C96.9230771,82.9470988 120.686425,106.870984 150,106.870984 Z M150,92.93129 C128.333445,92.93129 110.769231,75.2484188 110.769231,53.4354918 C110.769231,31.6225648 128.333445,13.9396935 150,13.9396935 C171.666555,13.9396935 189.230769,31.6225648 189.230769,53.4354918 C189.230769,75.2484188 171.666555,92.93129 150,92.93129 Z" id="Path" fill="#5E9CFF"></path>
                                <ellipse id="Oval-4-Copy-2" fill="#FFFFFF" cx="52.9411765" cy="223.529412" rx="17.6470588" ry="17.6470588"></ellipse>
                                <path d="M246.923077,276.470588 C276.236652,276.470588 300,252.546704 300,223.035096 C300,193.523489 276.236652,169.599605 246.923077,169.599605 C217.609502,169.599605 193.846154,193.523489 193.846154,223.035096 C193.846154,252.546704 217.609502,276.470588 246.923077,276.470588 Z M246.923077,262.530895 C225.256521,262.530895 207.692308,244.848024 207.692308,223.035096 C207.692308,201.222169 225.256521,183.539298 246.923077,183.539298 C268.589632,183.539298 286.153846,201.222169 286.153846,223.035096 C286.153846,244.848024 268.589632,262.530895 246.923077,262.530895 Z" id="Path" fill="#5E9CFF"></path>
                                <path d="M53.0769231,276.470588 C82.3904982,276.470588 106.153846,252.546704 106.153846,223.035096 C106.153846,193.523489 82.3904982,169.599605 53.0769231,169.599605 C23.7633479,169.599605 0,193.523489 0,223.035096 C0,252.546704 23.7633479,276.470588 53.0769231,276.470588 Z M53.0769231,262.530895 C31.4103675,262.530895 13.8461538,244.848024 13.8461538,223.035096 C13.8461538,201.222169 31.4103675,183.539298 53.0769231,183.539298 C74.7434788,183.539298 92.3076924,201.222169 92.3076924,223.035096 C92.3076924,244.848024 74.7434788,262.530895 53.0769231,262.530895 Z" id="Path" fill="#5E9CFF"></path>
                            </g>
                        </g>
                    </g>
                </g>
            </g>
        </g>
    </g>
</svg>