<svg xmlns="http://www.w3.org/2000/svg" fill="none" viewBox="0 0 32 32" clip-rule="evenodd" fill-rule="evenodd"><path fill="#cecfcb" d="M2.13 5.39s1.23-.99 2.49-.15c.01 0 .88-.2 1.43.29l.1-.19c.97-.37 2.26-.27 2.98.55q.08.08.13.18c1.19-.22 3.38-.47 4.48.43.92-.5 2.46-.83 4.37.73q.57.47 1 1.04c.8-.38 1.8-.67 2.96-.69 3.44-.04 4.7 1.04 5.82 2.2 1.17 1.2 2.38 3.96 2.55 6.4.18 2.5-.86 6.68-1.48 8.68-.1 2.66-2.56 4.79-5.56 4.79-3.07 0-5.56-2.23-5.56-4.96q0-.86.3-1.63l-.09-.02-.34.74c-1.12 2.3-2.56 4.99-6.6 1.83-2.47-1.92-3.54-4.94-4-7a4 4 0 0 1-.68-.63c-1.5-1.7-1.51-3.7-1.44-5.43-.4-1.12-.36-2.5-.36-2.5-.11.96-1.7-.59-1.2-1.78l.05-.11-.02-.01c-.1-.05-.52-.38-1.33-2.76"/><path fill="#000" d="M11.44 20.22c1.06.97 2.2 1.87 3.33 2.75a6.4 6.4 0 0 1-3.33-2.75m2.02-2.24q1.61 1.45 3.34 2.74a6 6 0 0 1-3.05-2.3zm1.48-2.73c1.18.8 2.46 1.53 3.71 2.2-1.52-.32-2.7-1-3.71-2.2m3.89-1.96c-.87-.7-1.98-1.1-2.92-1.71 1.08.24 2.37.65 2.92 1.71m-.71-3.5a14 14 0 0 1-2.21-.73c.88-.04 1.6.07 2.21.73m4.09 7.52a5 5 0 0 1 2 .01 4 4 0 0 1 1.8 1.04q.45.45.77.73.48.45.8.67c.46.33.76.4 1.26.52-.54-.04-.85-.05-1.38-.32q-.35-.16-.9-.57-.64-.46-1.26-.96a4.4 4.4 0 0 0-3.32-.87l-1.03.14c.36-.12.78-.28 1.26-.39m.26-2.56a5 5 0 0 1 1.98.23 4 4 0 0 1 1.69 1.24l.68.81q.43.5.72.76c.43.38.72.48 1.2.66-.52-.1-.84-.15-1.33-.47q-.34-.21-.84-.68-.6-.53-1.14-1.1a7 7 0 0 0-1.16-.78 4.5 4.5 0 0 0-2.05-.46l-1.05.02q.57-.14 1.3-.23m.78-2.37q.69-.07 1.42.1a3.6 3.6 0 0 1 2 1.35q.63.85 1.38 1.6.65.6 1.13.82a5 5 0 0 1-1.55-.86q-.6-.46-1.3-1.26a4 4 0 0 0-1.05-.85 4 4 0 0 0-1.26-.48 6 6 0 0 0-2.78.1s.88-.43 2.01-.52m-1.11-3.04a3.7 3.7 0 0 1 3.7 1.02q.33.4.61.7.55.6 1 .93c.5.37.9.54 1.34.68a4 4 0 0 1-1.47-.47 9.8 9.8 0 0 1-1.84-1.48 4 4 0 0 0-3.3-1.22q-.5.06-.9.27.38-.3.86-.43M7.04 14.9a6.2 6.2 0 0 0 4.24 1.38 3.6 3.6 0 0 1-4.24-1.39m3.15-3.76.33.13c.41.19.8.46 1.05.85q.3.5.38 1.18a10 10 0 0 0-1.77-2.16m.27-1.7.48.13c1.2.44 2.14 1.2 2.53 2.47-.63-1.1-1.96-1.96-3.01-2.6m2.71-.95q.16.25.3.58a4.2 4.2 0 0 0-3.01-1.37s.2-.08.52-.14c.83-.14 1.74.2 2.19.93M5.43 10.5l.3.1c.78.39 1.12 1.02 1.3 1.83-.38-.55-.87-1-1.26-1.55l-.35-.38m.81-1.73q0-.02.3.06c.6.2.87.67 1.05 1.23-.5-.4-.9-.85-1.35-1.29m.63-2.6.32.05c.84.24 1.27.78 1.61 1.56-.47-.46-1.01-.9-1.53-1.3q-.38-.32-.4-.31"/><path fill="#000" fill-rule="evenodd" d="M2.8 4.65c.5-.15 1.18-.2 1.88.2l.01.01c.42-.05.89-.03 1.27.18a3 3 0 0 1 3.44.6l.02.02q.5-.08 1.1-.14a8 8 0 0 1 1.84.04c.5.08 1 .23 1.4.5l.39-.15c1.05-.36 2.51-.34 4.18 1.03q.51.41.9.88A9 9 0 0 1 26 7.9a7 7 0 0 1 2.14 1.62 9 9 0 0 1 1.73 2.85c.48 1.17.83 2.5.92 3.77.1 1.47-.19 3.46-.57 5.25-.3 1.36-.64 2.64-.91 3.53-.15 2.85-2.77 5.07-5.91 5.07-3.12 0-5.73-2.19-5.9-5.02q-.2.36-.42.7a4 4 0 0 1-1.4 1.37c-1.2.68-2.73.46-4.8-1.16-2.1-1.64-3.22-4.04-3.8-5.99q-.17-.57-.29-1.09a5 5 0 0 1-.63-.59 6.2 6.2 0 0 1-1.51-3.72c-.05-.64-.03-1.26-.03-1.9a8 8 0 0 1-.34-1.9c-.31 0-.62-.32-.79-.55-.35-.44-.67-1.18-.45-1.89L2.84 8c-.24-.4-.58-1.12-1.04-2.5-.16-.46.7-.75 1.01-.85m20.6 15.43c-2.92 0-5.21 2.1-5.21 4.6 0 2.51 2.3 4.61 5.2 4.61 2.93 0 5.22-2.1 5.22-4.6 0-2.51-2.3-4.61-5.21-4.61M17.88 7.5c-1.49-1.21-2.69-1.19-3.5-.9l-.04.01c.28.4.46.95.56 1.54.14.8.15 1.76.05 2.74-.2 1.97-.87 4.15-1.96 5.6a8.6 8.6 0 0 1-2.95 2.64 3.2 3.2 0 0 1-1.93.29q-.23-.05-.45-.13l.1.4c.57 1.88 1.63 4.11 3.57 5.63 1.97 1.54 3.18 1.55 4 1.1q.64-.4 1.15-1.16a31 31 0 0 0 3.47-9.09c.6-3.28.4-6.66-2.07-8.67m4.2.42c-.92.02-1.73.21-2.41.48 1.49 2.25 1.49 5.21.99 7.9-.3 1.62-.8 3.17-1.28 4.48a6.3 6.3 0 0 1 4.02-1.42c2.65 0 4.94 1.59 5.67 3.8q.24-.9.46-1.92c.38-1.78.66-3.69.56-5.05a12 12 0 0 0-.87-3.55 9 9 0 0 0-1.58-2.63 6 6 0 0 0-1.94-1.47 8 8 0 0 0-3.62-.62M12.25 6.3a7 7 0 0 0-1.68-.03l-.82.1q.1.69.02 1.38c-.09.82-.26 1.69-.28 2.62a5 5 0 0 1-.96 2.9c-.58.79-1.46 1.32-2.5.97q-.4-.15-.7-.44l.04.64a5.5 5.5 0 0 0 1.33 3.31c.53.6 1.05.88 1.54.98q.75.13 1.5-.24a8 8 0 0 0 2.67-2.41 11 11 0 0 0 1.82-5.24c.1-.94.08-1.83-.04-2.54q-.2-1.11-.65-1.49a2.6 2.6 0 0 0-1.3-.51m-3.7-.44a2.5 2.5 0 0 0-1.99-.26c.15.3.12.62.04.9-.1.36-.32.75-.54 1.13-.46.8-.97 1.63-1.07 2.46v.48c.05.76.14 1.64.55 2.31q.28.51.73.68c.62.2 1.2-.07 1.69-.72.48-.64.8-1.6.8-2.48.03-.98.21-1.95.3-2.68q.05-.58.02-.97a1.1 1.1 0 0 0-.54-.85m-3.56-.29q0 .32-.08.83a3.3 3.3 0 0 1-1.14 2c-.18.4-.02.93.28 1.31l.22.22.01.01q.12-.65.39-1.26v-.01l-.1-.15a2 2 0 0 0-.35-.38l.3.1.29.15.49-.89-.49-.42.32.06.3.11c.18-.24.31-.54.42-.82l-.55-.49c.15-.05.5.11.64.18 0-.44-.59-.57-.95-.55m-2.42-.02c.19.53.44 1.75.93 2.12.2-.2.32-.44.47-.67l-.23-.24-.39-.32q0 0 .31.06.19.04.44.17c.1-.4.19-.8.19-1.22-.58-.18-1.19-.24-1.72.1"/><path fill="#bfbfec" fill-opacity=".71" d="M13.95 14.73a6.27 6.27 0 1 0 0-12.54 6.27 6.27 0 0 0 0 12.54"/><path fill="#c48c00" d="M9.23 13.1q.81.83 1.88 1.34L4.43 26.1l-2-1.14z"/><path fill="#000" d="M13.95 1.47a7 7 0 1 1-2.7 13.44l-6.5 11.37a.36.36 0 0 1-.5.13l-2-1.14a.36.36 0 0 1-.13-.5l6.66-11.62a7 7 0 0 1 5.18-11.68M2.93 24.82l1.37.79 6.3-11.02a7 7 0 0 1-1.3-.91zM13.95 2.2a6.27 6.27 0 1 0 .01 0"/></svg>