<svg xmlns="http://www.w3.org/2000/svg" viewBox="0 0 32 32"><title>file_type_purgecss</title><path fill="#272525" d="m15.67 2-.67.03A14.05 14.05 0 0 0 3.95 8.88c-1.8 3-2.38 6.72-1.61 10.19a13.83 13.83 0 0 0 3.77 6.82 13.95 13.95 0 0 0 7.23 3.86c.07 0 .09-1.5.09-11.7V6.36h1.35c1.51 0 1.98.07 2.78.38a5.83 5.83 0 0 1 3.12 3.01c.32.73.42 1.2.45 2.03a5.62 5.62 0 0 1-5.27 5.9l-.66.04-.01 6.12-.01 6.11.42.04a14.02 14.02 0 0 0 14.06-17.06A14.06 14.06 0 0 0 15.66 2zm-.5 5.08v9.8l1.07-.8c2-1.53 2.76-2.3 3.22-3.29.24-.52.28-1.18.1-1.68-.39-1.06-1.22-1.87-3.51-3.43l-.87-.6z"/></svg>