<svg xmlns="http://www.w3.org/2000/svg" fill="none" viewBox="0 0 32 32" clip-rule="evenodd" fill-rule="evenodd"><path fill="#cecfcb" d="M2.13 5.39s1.23-.99 2.49-.15c.01 0 .88-.2 1.43.29l.1-.19c.97-.37 2.26-.27 2.98.55q.08.08.13.18c1.19-.22 3.38-.47 4.48.43.92-.5 2.46-.83 4.37.73q.57.47 1 1.04c.8-.38 1.8-.67 2.96-.69 3.44-.04 4.7 1.04 5.82 2.2 1.17 1.2 2.38 3.96 2.55 6.4.18 2.5-.86 6.68-1.48 8.68-.1 2.66-2.56 4.79-5.56 4.79-3.07 0-5.56-2.23-5.56-4.96q0-.86.3-1.63l-.09-.02-.34.74c-1.12 2.3-2.56 4.99-6.6 1.83-2.47-1.92-3.54-4.94-4-7a4 4 0 0 1-.68-.63c-1.5-1.7-1.51-3.7-1.44-5.43-.4-1.12-.36-2.5-.36-2.5-.11.96-1.7-.59-1.2-1.78l.05-.11-.02-.01c-.1-.05-.52-.38-1.33-2.76"/><path fill="#000" d="M11.44 20.22q.48.44.97.8.15.15.32.26l.32.26.2.17.32.27a23 23 0 0 0 1.2.99 9 9 0 0 1-1.65-.83 4 4 0 0 1-.9-.84 8 8 0 0 1-.78-1.08M13.46 17.98a16 16 0 0 0 1.28 1.05l.33.26.2.17.31.27a23 23 0 0 0 1.22.99 9 9 0 0 1-1.2-.55 6 6 0 0 1-.94-.67 6 6 0 0 1-.91-1.08zM14.94 15.25q.53.36 1.07.65l.36.2.36.2.23.15.35.22a23 23 0 0 0 1.34.78 9 9 0 0 1-1.76-.56 4 4 0 0 1-1.02-.7 8 8 0 0 1-.93-.94M16.32 11.67a7 7 0 0 1 1.24.43 3 3 0 0 1 .57.4q.18.14.31.29.26.25.39.5a3 3 0 0 0-.51-.33q-.26-.14-.54-.27-.19-.08-.37-.18l-.34-.2-.46-.28-.7-.45zM16.64 9.03a3 3 0 0 1 .48.08 2 2 0 0 1 .44.21 3 3 0 0 1 .56.47l-.41-.11-.27-.06-.27-.05a3 3 0 0 1-.6-.21l-.66-.3.3-.03zM22.21 17.31a5 5 0 0 1 2 .01 4 4 0 0 1 1.8 1.04q.45.44.77.73.48.45.8.67c.46.33.76.4 1.26.52-.54-.04-.85-.05-1.38-.32q-.35-.17-.9-.57a23 23 0 0 1-1.26-.96 6 6 0 0 0-1.22-.65 4.4 4.4 0 0 0-2.1-.22q-.57.07-1.03.14c.36-.12.78-.28 1.26-.39M22.47 14.75a5 5 0 0 1 1.98.23 4 4 0 0 1 1.69 1.24l.68.81q.43.5.72.76c.43.38.72.48 1.2.66-.52-.1-.84-.15-1.33-.47q-.34-.21-.84-.68a23 23 0 0 1-1.14-1.1 7 7 0 0 0-1.16-.78 4.5 4.5 0 0 0-2.05-.46l-1.05.02q.57-.14 1.3-.23M23.25 12.38q.69-.07 1.42.1a3.6 3.6 0 0 1 1.6.88q.22.21.4.47a14 14 0 0 0 1.38 1.6q.65.6 1.13.82a5 5 0 0 1-1.55-.86q-.59-.46-1.3-1.26a4 4 0 0 0-1.05-.85 4 4 0 0 0-1.26-.48 6 6 0 0 0-2.78.1s.88-.43 2.01-.52M22.14 9.34a3.7 3.7 0 0 1 3.7 1.02q.33.4.61.7.56.6 1 .93c.5.37.9.54 1.34.68a4 4 0 0 1-1.47-.47 7 7 0 0 1-1.15-.83q-.32-.27-.69-.65a3 3 0 0 0-.69-.57 4 4 0 0 0-2.61-.65q-.5.06-.9.27.38-.3.86-.43M7.04 14.9a5 5 0 0 0 1.5.89l.5.18.34.1a6 6 0 0 0 1.9.21 5 5 0 0 1-1.4.24 4 4 0 0 1-.97-.14l-.28-.11a4 4 0 0 1-1.24-.92 3 3 0 0 1-.35-.46M10.19 11.13q0-.01.33.13a3 3 0 0 1 .79.52 2 2 0 0 1 .26.33 3 3 0 0 1 .28.66q.07.24.1.52-.14-.24-.29-.43l-.2-.26-.3-.35-.2-.23-.28-.36c-.29-.34-.5-.53-.5-.53M10.45 9.43q.02-.01.48.13a6 6 0 0 1 1.4.73 3 3 0 0 1 .58.61 4 4 0 0 1 .55 1.13 3 3 0 0 0-.79-.9q-.25-.24-.51-.43l-.34-.27q-.28-.23-.53-.42c-.48-.36-.84-.58-.84-.58M11.53 7.53a2 2 0 0 1 .73.17l.27.15a2 2 0 0 1 .63.63q.17.25.3.58a4 4 0 0 0-1.14-.86l-.24-.1a5 5 0 0 0-.6-.25c-.58-.18-1.03-.16-1.03-.16s.2-.08.52-.14q.24-.04.56-.02M5.43 10.5l.3.1a3 3 0 0 1 .82.6l.12.18a2 2 0 0 1 .26.6l.1.45q-.23-.33-.47-.56l-.22-.25-.21-.26L6 11.2l-.23-.32q-.33-.38-.35-.38M6.23 8.77q0-.02.3.06a2 2 0 0 1 .61.34l.1.13a2 2 0 0 1 .23.42l.11.34-.28-.21-.18-.14-.18-.14-.1-.1q-.08-.07-.14-.16l-.1-.11a3 3 0 0 0-.37-.43M6.86 6.17q0-.01.32.05a3 3 0 0 1 .91.44l.15.15a2 2 0 0 1 .36.53l.19.44q-.3-.29-.57-.48l-.27-.2-.25-.22-.14-.13q-.16-.16-.3-.27c-.24-.22-.4-.31-.4-.31"/><path fill="#000" fill-rule="evenodd" d="M2.8 4.65c.5-.15 1.18-.2 1.88.2l.01.01a3 3 0 0 1 .51-.02c.23.02.5.06.76.2L6.03 5c1.05-.4 2.52-.33 3.37.64l.02.02q.49-.08 1.1-.14a8 8 0 0 1 1.84.04c.5.08 1 .23 1.4.5l.39-.15c1.05-.36 2.51-.34 4.18 1.03q.51.41.9.88a8 8 0 0 1 2.84-.6 9 9 0 0 1 3.93.68 7 7 0 0 1 2.14 1.62 9 9 0 0 1 1.73 2.85c.48 1.17.83 2.5.92 3.77.1 1.47-.19 3.46-.57 5.25-.3 1.36-.64 2.64-.91 3.53-.15 2.85-2.77 5.07-5.91 5.07-3.12 0-5.73-2.19-5.9-5.02q-.2.36-.42.7a4 4 0 0 1-1.4 1.37c-1.2.68-2.73.46-4.8-1.16-2.1-1.64-3.22-4.04-3.8-5.99q-.17-.57-.29-1.09a5 5 0 0 1-.63-.59 6.2 6.2 0 0 1-1.51-3.72q-.07-.94-.03-1.8v-.1a8.41 8.41 0 0 1-.34-1.9h-.05c-.28-.07-.55-.3-.74-.55-.35-.44-.67-1.18-.45-1.89L2.84 8C2.6 7.6 2.26 6.88 1.8 5.5c-.05-.14 0-.3.11-.4l.03-.01.23-.16a3 3 0 0 1 .64-.28m20.6 15.43c-2.92 0-5.21 2.1-5.21 4.6 0 2.51 2.3 4.61 5.2 4.61 2.93 0 5.22-2.1 5.22-4.6 0-2.51-2.3-4.61-5.21-4.61M17.88 7.5c-1.49-1.21-2.69-1.19-3.5-.9l-.04.01c.28.4.46.95.56 1.54.14.8.15 1.76.05 2.74-.2 1.97-.87 4.15-1.96 5.6a8.6 8.6 0 0 1-2.95 2.64c-.6.28-1.26.41-1.93.29q-.23-.05-.45-.13l.1.4c.57 1.88 1.63 4.11 3.57 5.63 1.97 1.54 3.18 1.55 4 1.1q.64-.39 1.15-1.16a31.1 31.1 0 0 0 3.47-9.09c.6-3.28.4-6.66-2.07-8.67m4.2.42c-.92.02-1.73.21-2.41.48 1.49 2.25 1.49 5.21.99 7.9-.3 1.62-.8 3.17-1.28 4.48a6.3 6.3 0 0 1 4.02-1.42c2.65 0 4.94 1.59 5.67 3.8q.24-.9.46-1.92c.38-1.78.66-3.69.56-5.05a12 12 0 0 0-.87-3.55 9 9 0 0 0-1.58-2.63 6 6 0 0 0-1.94-1.47 8 8 0 0 0-3.62-.62M12.25 6.3a7 7 0 0 0-1.68-.03l-.82.1.04.25q.06.54-.02 1.13c-.09.82-.26 1.69-.28 2.62a5 5 0 0 1-.96 2.9c-.58.79-1.46 1.32-2.5.97q-.4-.15-.7-.44l.04.64a5.5 5.5 0 0 0 1.33 3.31c.53.6 1.05.88 1.54.98q.75.13 1.5-.24a8 8 0 0 0 2.67-2.41 11 11 0 0 0 1.82-5.24c.1-.94.08-1.83-.04-2.54q-.2-1.11-.65-1.49-.47-.39-1.3-.51m-3.7-.44a2.5 2.5 0 0 0-1.99-.26c.15.3.12.62.04.9-.1.36-.32.75-.54 1.13-.46.8-.97 1.63-1.07 2.46v.48q.03.46.13 1.09l.01.04a6 6 0 0 0 .23.8q.07.2.18.38.28.51.73.68c.62.2 1.2-.07 1.69-.72.48-.64.8-1.6.8-2.48.03-.98.21-1.95.3-2.68q.05-.58.02-.97-.04-.4-.22-.57-.14-.16-.32-.28m-3.56-.29q0 .32-.08.83a3.3 3.3 0 0 1-1.14 2c-.18.4-.02.93.28 1.31q.13.15.22.22l.01.01q.08-.47.25-.92l.03-.08.11-.26v-.01l-.1-.15q-.32-.38-.35-.38.02-.01.3.1l.29.15.02-.04.22-.42.01-.02.24-.41-.09-.09-.4-.33q.03 0 .32.06l.3.11.06-.08q.24-.43.36-.74l-.15-.16-.4-.33q.03-.01.32.07.15.03.32.11v-.1a.3.3 0 0 0-.06-.15 1 1 0 0 0-.3-.2 1.3 1.3 0 0 0-.59-.1m-.83-.16a1.6 1.6 0 0 0-1.15-.05q-.27.08-.44.19c.4 1.14.69 1.74.87 2.04l.02.02q0 .03.04.06a2 2 0 0 0 .43-.61L3.95 7q-.12-.14-.23-.24l-.39-.32q.01-.01.31.06.19.04.44.17l.12-.42v-.03q.07-.4.07-.67v-.1z"/><path fill="#bfbfec" fill-opacity=".71" d="M13.95 14.73a6.27 6.27 0 1 0 0-12.54 6.27 6.27 0 0 0 0 12.54"/><path fill="#c48c00" d="M9.23 13.1q.81.83 1.88 1.34L4.43 26.1l-2-1.14z"/><path fill="#000" d="M13.95 1.47a7 7 0 1 1-2.7 13.44l-6.5 11.37a.36.36 0 0 1-.5.13l-2-1.14a.36.36 0 0 1-.13-.5l6.66-11.62a7 7 0 0 1 5.18-11.68M2.93 24.82l1.37.79 6.3-11.02q-.7-.38-1.3-.91zM13.95 2.2a6.27 6.27 0 1 0 .01 12.54 6.27 6.27 0 0 0 0-12.54"/></svg>