<svg version="1.1" viewBox="0 0 32 32" xmlns="http://www.w3.org/2000/svg"><defs><linearGradient id="a" x1="4" x2="28" y1="31" y2="1" gradientUnits="userSpaceOnUse"><stop stop-color="#7324a9" offset="0"/><stop stop-color="#fa51fd" offset="1"/></linearGradient></defs><title>file_type_libreoffice_base</title><g transform="matrix(.875 0 0 .875 2 2)" fill-rule="evenodd"><path d="m7 0c-2.216 0-4 1.784-4 4v24c0 2.216 1.784 4 4 4h18c2.216 0 4-1.784 4-4v-16l-12-12zm13 0 9 9v-9z" fill="url(#a)" stroke-linecap="square"/><g stroke-linecap="square"><path d="m3 27v1c0 2.216 1.784 4 4 4h18c2.216 0 4-1.784 4-4v-1c0 2.216-1.784 4-4 4h-18c-2.216 0-4-1.784-4-4z" fill-opacity=".19862"/><path d="m20 0h1.4l7.6 7.6v1.4z" fill-opacity=".20149"/></g><path d="m12 13a4 1 0 0 0-4 1v1a4 1 0 0 0 4 1 4 1 0 0 0 4-1v-1a4 1 0 0 0-4-1zm-4 3v2a4 1 0 0 0 4 1 4 1 0 0 0 4-1v-2a4 1 0 0 1-4 1 4 1 0 0 1-4-1zm0 3v2a4 1 0 0 0 4 1 4 1 0 0 0 4-1v-2a4 1 0 0 1-4 1 4 1 0 0 1-4-1zm0 3v2a4 1 0 0 0 4 1 4 1 0 0 0 4-1v-2a4 1 0 0 1-4 1 4 1 0 0 1-4-1z" fill="#fa9bfd"/><path d="m18 15c-0.554 0-1 0.446-1 1v8c0 0.554 0.446 1 1 1h5c0.554 0 1-0.446 1-1v-8c0-0.554-0.446-1-1-1zm0 1h2v2h-2zm3 0h2v2h-2zm-3 3h2v2h-2zm3 0h2v2h-2zm-3 3h2v2h-2zm3 0h2v2h-2z" fill="#fafafa"/></g></svg>
