<svg viewBox="0 0 32 32" xmlns="http://www.w3.org/2000/svg"><path d="m2 8.132999h28v15.734h-28z" fill="#fff" stroke-width="1.094348"/><path d="m6.388 23.867a11.012 11.012 0 0 1 -3.441-8.234 10.765 10.765 0 0 1 2.864-7.5h-3.811v15.73zm20.066 0a16.44 16.44 0 0 0 2.537-3.136l-4.218-1.873a8.306 8.306 0 0 1 -6.641 4.12c-4.359-.014-6.072-3.329-6.063-7.584h16.291a6.465 6.465 0 0 0 0-.935 9.057 9.057 0 0 0 -2.029-6.326h3.669v15.73h-3.544zm-14.122-12.125a3.723 3.723 0 0 1 3.9-3.23 3.29 3.29 0 0 1 3.532 3.23z" fill="#a2003e"/></svg>