<svg viewBox="0 0 32 32" xmlns="http://www.w3.org/2000/svg"><path d="m20.929 2h-16.4v28h23.3v-21zm5.114 26.35h-19.634v-24.7h13.406l6.333 6.333v18.367zm-14.566-12.957c1.584 0 2.563-1.463 2.563-3.663 0-2.145-.8-3.443-2.4-3.443s-2.572 1.463-2.572 3.663c0 2.15.803 3.443 2.409 3.443zm-1.243-3.663c0-1.562.429-2.453 1.32-2.453.649 0 1.045.55 1.221 1.474l-2.53 1.309a3.2 3.2 0 0 1 -.011-.33zm1.331 2.67c-.638 0-1.045-.528-1.221-1.43l2.53-1.309v.286c0 1.565-.418 2.453-1.309 2.453zm10.27.847.1-1.023h-1.65v-6.014l-1.177.1v.8l-1.694.176.022.891 1.672-.044v4.092h-1.849v1.025zm-7.85 9.5.1-1.023h-1.65v-6.014l-1.177.1v.8l-1.694.176.022.891 1.672-.044v4.092h-1.849v1.025zm5.442.143c1.584 0 2.563-1.463 2.563-3.663 0-2.145-.8-3.443-2.4-3.443s-2.574 1.463-2.574 3.663c.002 2.148.805 3.446 2.411 3.446zm-1.243-3.66c0-1.562.429-2.453 1.32-2.453.649 0 1.045.55 1.221 1.474l-2.53 1.309a3.2 3.2 0 0 1 -.011-.33zm1.331 2.67c-.638 0-1.045-.528-1.221-1.43l2.53-1.309v.286c0 1.565-.418 2.453-1.309 2.453z" fill="#9f4246"/></svg>