<svg xmlns="http://www.w3.org/2000/svg" viewBox="0 0 32 32"><title>file_type_yamllint</title><path d="M2,12.217c.755,0,1.51-.008,2.264,0l.053.038,2.761,2.758c.891-.906,1.8-1.794,2.7-2.7.053-.052.11-.113.192-.1h1.823a1.4,1.4,0,0,1,.353.019c-.7.67-1.377,1.369-2.069,2.05L5.544,18.8c-.331.324-.648.663-.989.975-.754.022-1.511.007-2.266.007,1.223-1.209,2.431-2.433,3.658-3.637C4.626,14.84,3.317,13.524,2,12.217Z" style="fill:#fbc02d"/><path d="M12.7,12.217h1.839q0,3.783,0,7.566c-.611,0-1.222.012-1.832-.008V14.781c-1.6,1.607-3.209,3.2-4.811,4.8-.089.08-.166.217-.3.194-.824-.006-1.649,0-2.474,0Q8.916,16,12.7,12.217Z" style="fill:#fbc02d"/><path d="M14.957,12.219c.47-.009.939,0,1.409,0,.836.853,1.69,1.689,2.536,2.532q1.268-1.267,2.539-2.532h1.4q-.008,3.784,0,7.567c-.471,0-.943.006-1.414,0q.008-2.387,0-4.773c-.844.843-1.676,1.7-2.526,2.536-.856-.835-1.687-1.695-2.532-2.541,0,1.594-.006,3.188.006,4.781-.472,0-.943,0-1.415,0Q14.957,16,14.957,12.219Z" style="fill:#fbc02d"/><path d="M23.259,12.216c.472,0,.944-.007,1.416,0q-.007,3.083,0,6.166h3.782c.063.006.144-.012.191.045.448.454.907.9,1.353,1.354q-3.371.007-6.741,0Q23.267,16,23.259,12.216Z" style="fill:#fbc02d"/><polygon points="12.633 24.6 10.967 23.232 9.299 24.599 7.622 23.23 5.946 24.598 4.273 23.23 3.199 24.108 1.999 23.461 4.273 21.601 5.946 22.97 7.622 21.602 9.297 22.97 10.967 21.6 12.636 22.968 14.303 21.602 15.982 22.971 17.656 21.601 19.331 22.971 21.011 21.603 22.687 22.971 24.367 21.602 26.04 22.971 27.718 21.604 30.001 23.459 28.802 24.109 27.718 23.228 26.036 24.597 24.364 23.23 22.685 24.597 21.009 23.229 19.328 24.597 17.656 23.23 15.983 24.597 14.306 23.23 12.633 24.6" style="fill:#c1272d"/></svg>