<svg xmlns="http://www.w3.org/2000/svg" viewBox="0 0 32 32"><path fill="#e16426" d="m29.8 17.6-3.5-1.65 3.31-1.56q.39-.29.2-.68l-.3-.39q-.39-.49-.78-.39l-2.43.97h-.2l-.97-.29h-.1l-.97.98a10 10 0 0 0-1.56-3.41h1.46l.2-.1.48-.98.1-.1 2.43-.97.2-.68v-.68q-.3-.4-.68-.3l-3.6 1.27 1.26-3.4a.5.5 0 0 0-.4-.69h-.48q-.49 0-.78.3l-.97 2.33-.2.1-.87.49v.2l-.1 1.35a10 10 0 0 0-3.51-1.36L18 7l.1-.3-.3-.97v-.2l.98-2.43q0-.3-.2-.49l-.48-.58q-.58 0-.68.2l-1.66 3.4-1.46-3.21a1 1 0 0 0-.68-.2l-.4.3q-.48.29-.38.77l.97 2.44v.1l-.29.97v.1l.98.97a10 10 0 0 0-3.41 1.56V8.06l-.2-.2-.97-.48v-.2l-.98-2.24q-.39-.39-.68-.3h-.68q-.4.3-.3.6l1.27 3.6-3.4-1.27q-.5-.2-.7.3v.58q0 .49.3.68L7.1 10.2l.1.1.48.97h1.56a10 10 0 0 0-1.36 3.6l-.98-.97-.29-.1-.97.3h-.2l-2.43-.97q-.3 0-.49.29l-.49.48q-.1.4.1.59l3.41 1.66-3.22 1.56a1 1 0 0 0-.19.68l.3.39q.28.39.77.29l2.44-.97h.1l.97.38.2-.1.97-.97a10 10 0 0 0 1.56 3.51H7.98l-.2.1-.49.97H7.1l-2.34 1.07q-.3.2-.2.59v.68q.3.4.5.4l3.7-1.28-1.17 3.42q-.2.39.29.68h.58q.5 0 .69-.3l1.07-2.33.1-.2.97-.39v-1.56a10 10 0 0 0 3.6 1.37l-.97.97-.1.2.3 1.07v.2l-.98 2.33q0 .4.2.59l.58.48.59-.1 1.65-3.5 1.56 3.31q.2.4.68.2l.4-.3q.48-.39.29-.78l-.88-2.43v-.2l.3-.97v-.1l-.98-.97a10 10 0 0 0 3.4-1.56v1.46l.1.2.98.48v.1l1.07 2.44.59.19h.68q.39-.2.39-.58l-1.27-3.61 3.41 1.27q.4.1.68-.4v-.48q0-.49-.29-.78l-2.34-.97-.2-.2-.38-.88h-.2l-1.36-.1a10 10 0 0 0 1.36-3.5l.98.97h.2l1.06-.2h.2l2.34.98q.39 0 .58-.29l.49-.58Zm-7.99-2.43h-1.75l-.58-1.65 1.17-1.17q.97 1.26 1.26 2.72m-3.6-2.63-1.56-.58V10.1a10 10 0 0 1 2.82 1.17zm-.2 3.6a2.05 2.05 0 1 1-4.1 0 2.05 2.05 0 0 1 4.1 0M15.2 10.2v1.66a4 4 0 0 0-1.66.78l-1.17-1.27a10 10 0 0 1 2.73-1.17m-2.63 3.51a4 4 0 0 0-.59 1.66h-1.75a10 10 0 0 1 1.17-2.93zm-2.24 3.22h1.65a4 4 0 0 0 .78 1.55l-1.26 1.27a10 10 0 0 1-1.17-2.82m3.4 2.63a4 4 0 0 0 1.67.68v1.66a10 10 0 0 1-2.83-1.08zm3.22 2.34v-1.76l1.66-.58 1.27 1.17a10 10 0 0 1-2.83 1.26m2.54-3.7.68-1.56h1.65a10 10 0 0 1-1.07 2.83z" style="stroke-width:9.74482"/></svg>