<svg xmlns="http://www.w3.org/2000/svg" version="1.2" viewBox="0 0 32 32">
  <g clip-path="url(#cp1)">
    <path fill="#50abf1"
      d="M14.82 26.51c-1.1-1.26-1.14-1.32-.94-1.56.32-.37 13.69-13.55 13.88-13.67.16-.11 1.8.75 2.16 1.12.14.15-.93 1.37-6.74 7.76-3.8 4.17-6.97 7.6-7.06 7.62s-.68-.55-1.3-1.27m59.07-.13c-.1-.11-.15-.81-.15-2.5 0-1.28-.03-2.33-.07-2.33-.03 0-.34.25-.68.57-.79.75-1.49 1-2.67.94-2.61-.14-4.17-2.57-4.17-6.5 0-2.46.54-4.16 1.69-5.33a3.6 3.6 0 0 1 4.3-.82c.39.2.87.54 1.06.76s.39.4.44.4.11-.27.13-.6l.03-.61 1.52-.04 1.51-.03-.03 8.09-.03 8.09-1.37.03c-.96.03-1.41-.01-1.51-.12m-1.43-6.45c1.68-.92 1.84-5.23.23-6.55-.58-.48-1.58-.53-2.15-.12-.83.6-1.31 1.81-1.31 3.28 0 2.69 1.55 4.32 3.23 3.39m-60.68 3.22c-.59-.64-.97-1.14-.93-1.25.07-.19 7.76-6.88 7.9-6.87.18.01 1.99 1.49 1.99 1.62 0 .15-7.73 7.58-7.88 7.58-.05 0-.53-.48-1.08-1.08m83.36-.14a4.7 4.7 0 0 1-2.58-1.61c-1.1-1.24-1.6-2.75-1.6-4.82.01-2.82 1.13-5.03 3.08-6.07.73-.38.85-.41 2.08-.41 1.17 0 1.38.04 1.99.35 1.86.93 3.01 3.4 2.92 6.25l-.04 1.07-3.38.04c-1.86.02-3.42.08-3.48.14-.17.18.38 1.39.82 1.8.94.89 2.29.84 3.57-.15l.54-.42.47.58c.26.31.61.77.78 1l.32.44-.53.51a5.7 5.7 0 0 1-3.73 1.49 8 8 0 0 1-1.23-.19m2.74-7.51c.18-.14.18-.22.03-.85-.42-1.7-1.86-2.41-2.93-1.45-.42.38-.63.81-.83 1.63-.11.5-.11.62.03.72.26.18 3.47.14 3.7-.05M48.9 22.9c-1.58-.63-2.45-2.51-2.1-4.56.24-1.42.83-2.28 1.95-2.82.81-.39 2.7-.49 3.66-.19l.71.21c.16 0 .19-.47.08-.94q-.22-.89-1-1.34c-.54-.3-1.87-.26-2.9.1-.49.17-.9.25-.95.18-.13-.16-.72-2.03-.72-2.28 0-.49 2.06-1.11 3.73-1.12 1.97-.02 3.26.51 4.04 1.66.81 1.19.83 1.35.83 6.48v4.61l-1.35.03c-.75.02-1.4-.01-1.46-.07a1.4 1.4 0 0 1-.16-.54 1 1 0 0 0-.11-.48c-.03-.03-.24.12-.48.33-.72.69-1.1.84-2.25.88q-1.07.04-1.52-.14m3.52-2.54q.91-.55.9-1.91c0-.91-.14-1.02-1.48-1.1-.85-.04-.99-.02-1.36.26-.57.41-.74.8-.68 1.6.07 1.04.48 1.42 1.57 1.43q.59.01 1.05-.28m29.06 2.56a3.8 3.8 0 0 1-1.82-1.99c-.27-.72-.28-.81-.28-5.65v-4.92l1.51-.04 1.51-.03.04 4.25c.03 3.79.05 4.3.24 4.67a1.56 1.56 0 0 0 2.85-.02c.26-.5.27-.68.3-4.71l.04-4.19 1.51.03 1.5.04.03 6.12c.03 4.49 0 6.17-.1 6.3-.11.14-.45.17-1.52.14l-1.38-.03-.03-.58a2 2 0 0 0-.14-.68c-.05-.06-.33.13-.62.43-.74.79-1.28 1.02-2.35 1-.49 0-1.07-.07-1.29-.14m23.94.04a2.3 2.3 0 0 1-1.48-1.39l-.34-.73-.04-3.87-.03-3.86h-.46c-.65 0-.73-.18-.69-1.56.04-1.17.04-1.19.33-1.23.88-.1.83-.01.83-1.6q0-1.44.15-1.6c.2-.21 2.77-.21 2.9.01a8 8 0 0 1 .16 1.63l.06 1.47 1.1.04 1.1.03-.03 1.37-.03 1.37-1.1.04-1.1.04v3.25c0 4.1-.08 3.96 1.96 3.62.22-.04.24.04.27 1.21l.03 1.25-.56.28c-.62.3-2.42.44-3.03.23M35.1 22.8c-.03-.09-.05-3.82-.03-8.29l.03-8.12 3.21.01c3 .01 3.25.03 3.97.3q3.18 1.19 3.42 4.94c.15 2.53-.92 4.61-2.86 5.55a6.4 6.4 0 0 1-3.22.65c-.87 0-1.26.05-1.36.17-.08.1-.14 1.05-.16 2.52l-.03 2.36-1.46.03c-1.1.03-1.47 0-1.51-.12m6.06-8.27c.87-.44 1.37-1.31 1.36-2.41-.02-1.77-.83-2.54-2.83-2.68-1.63-.12-1.56-.24-1.56 2.57 0 1.3.03 2.45.07 2.56.11.31 2.31.28 2.96-.04m17.64 8.25c-.1-.13-.13-1.89-.1-6.3l.03-6.12 1.47-.04c1.1-.03 1.5.01 1.57.13.06.09.1.47.1.83 0 .66.16.9.29.45.09-.32.87-1.16 1.28-1.39.19-.1.61-.22.93-.26l.59-.08v3.6l-.51.09c-.83.15-1.37.44-1.81.99-.68.86-.77 1.4-.77 4.79 0 1.81-.05 3.08-.12 3.23-.11.23-.26.25-1.47.25-.99 0-1.38-.04-1.48-.17M8.97 20.07c-.46-.56-.75-1.01-.69-1.07a53 53 0 0 1 3.78-2.82c.18 0 1.79 1.49 1.79 1.65 0 .2-3.62 3.2-3.86 3.2-.12 0-.58-.43-1.02-.96m-2.3-2.55c-.66-.72-.74-.86-.59-1.01.21-.21 10.84-7.6 11.06-7.68.17-.07 1.64.89 1.64 1.07 0 .12-10.89 8.34-11.16 8.41-.11.03-.5-.3-.95-.79m7.09-1.16c-.44-.39-.8-.78-.8-.87.01-.08.39-.44.87-.79.47-.36 2.58-1.98 4.68-3.62a55 55 0 0 1 4.03-2.96c.28 0 1.72.89 1.67 1.04-.06.22-9.28 7.91-9.47 7.91-.1 0-.54-.32-.98-.71m-9.23-1.15c-.52-.6-.6-.74-.46-.88.12-.12 6.7-4.3 7.49-4.77a4 4 0 0 1 1.49 1.15c-.06.19-7.48 5.21-7.7 5.21-.11 0-.47-.32-.82-.71m15.91.04a5 5 0 0 1-.91-.81c-.04-.1 4.33-4.01 5.32-4.76.19-.15.34-.1 1.17.37.52.3.95.61.95.68a69 69 0 0 1-5.45 5.16c-.11.02-.59-.26-1.08-.64M2.76 13.18l-.63-.69.28-.19c.15-.11 3.29-1.95 6.97-4.1l6.69-3.9.64.34c.35.19.64.4.64.48 0 .1-13.76 8.75-13.92 8.75-.02 0-.32-.31-.67-.69M13.05 9.7c-.31-.25-.57-.52-.56-.6s1.25-.94 2.78-1.92l2.79-1.76.71.41c.4.22.72.45.72.51 0 .15-5.46 3.83-5.68 3.82-.11 0-.45-.21-.76-.46m5.58-.76c-.38-.25-.68-.52-.68-.61 0-.14 1.9-1.5 2.21-1.59.14-.04 1.42.68 1.52.86.03.06-.03.19-.15.3-.38.37-1.96 1.5-2.09 1.5a4 4 0 0 1-.81-.46"
      class="s1" />
  </g>
</svg>
