<svg xmlns="http://www.w3.org/2000/svg" xmlns:xlink="http://www.w3.org/1999/xlink" viewBox="0 0 32 32"><defs><linearGradient id="a" x1="-232.823" y1="266.13" x2="-232.759" y2="266.13" gradientTransform="matrix(-45.332, 189.18, 189.18, 45.332, -60871.885, 31997.264)" gradientUnits="userSpaceOnUse"><stop offset="0" stop-color="#58d09e"/><stop offset="1" stop-color="#d2d2d2" stop-opacity="0"/></linearGradient><linearGradient id="b" x1="-233.048" y1="267.755" x2="-232.984" y2="267.755" gradientTransform="matrix(154.171, 92.016, 92.016, -154.171, 11303.228, 62747.666)" gradientUnits="userSpaceOnUse"><stop offset="0" stop-color="#58d09e"/><stop offset="1"/></linearGradient></defs><title>file_type_light_cypress_spec</title><path d="M6.151,28.651A5.145,5.145,0,0,1,2.1,22.563c.339-1.429.269-1.346,7.645-9.061l6.95-7.27,1.971,1.878-8.01,8.363,6.7-.144,4.734-4.938,1.963,1.888L17.1,20.53c-6.385,6.651-7.018,7.279-7.667,7.6a5.2,5.2,0,0,1-3.274.525l0,0ZM25.727,11.984c-.183-.11-2.064-1.864-4.178-3.9L17.7,4.384l-.012-.562a1.153,1.153,0,0,1,.259-.9,1.325,1.325,0,0,1,1.387-.495,91.854,91.854,0,0,1,8.381,8.042,1.341,1.341,0,0,1-1.993,1.513l0,0Z" style="fill:#58d09e"/><path d="M4.084,23.185c-.353,2.28.96,3.828,3.444,3.491.255-.268,3.214-3.357,9.862-10.33-3.344.072-3.3-.074-6.65,0-6.69,6.935-6.823,6.885-6.656,6.839Z" style="fill:#58d09e"/><path d="M19.6,9.538A10.041,10.041,0,1,1,9.932,19.93,10.049,10.049,0,0,1,19.6,9.538Z" style="fill:#fafafa"/><path d="M25.346,16.388l-1.89,4.743-1.9-4.743H20l2.668,6.474-1.9,4.566,1.361.268,4.689-11.309H25.346Z"/><path d="M17.04,17.588A1.874,1.874,0,0,1,18.8,18.734l.026.057,1.327-.447-.029-.067a3.265,3.265,0,0,0-3.087-2.012,3.315,3.315,0,0,0-2.429.949,3.338,3.338,0,0,0,0,4.732,3.319,3.319,0,0,0,2.429.949,3.266,3.266,0,0,0,3.087-2.011l.029-.068-1.329-.448-.025.06a1.839,1.839,0,0,1-1.762,1.143,1.866,1.866,0,0,1-1.383-.566,1.958,1.958,0,0,1-.561-1.42,1.991,1.991,0,0,1,.561-1.432,1.859,1.859,0,0,1,1.383-.569Z"/><path d="M10.57,22.129a9.611,9.611,0,0,1-.347-2.564,9.744,9.744,0,0,1,6.254-9.03l.491,1.259a8.386,8.386,0,0,0-5.383,7.771,8.293,8.293,0,0,0,.3,2.206l-1.312.358Z" style="fill:#58d09e"/><path d="M16.412,10.566a9.807,9.807,0,0,1,12.243,4.615l-1.212.616a8.448,8.448,0,0,0-10.536-3.974Z" style="fill:#58d09e"/><path d="M24.448,26.6a8.332,8.332,0,0,0,2.946-10.914l1.207-.624a9.676,9.676,0,0,1-3.42,12.678L24.448,26.6Z" style="fill:url(#a)"/><path d="M21.041,26.741l-.331.8a.438.438,0,0,1-.386.271c-.112.005-.225.007-.339.007a8.454,8.454,0,0,1-8.21-6.49l-1.329.3a9.7,9.7,0,0,0,3.393,5.391,9.866,9.866,0,0,0,6.131,2.152h.02c.13,0,.26,0,.39-.008a1.806,1.806,0,0,0,1.59-1.107l.434-1.04Z" style="fill:url(#b)"/></svg>