<svg xmlns="http://www.w3.org/2000/svg" viewBox="0 0 32 32"><title>file_type_git2@2x</title><g id="git2"><path d="M29.47,14.75,17.25,2.53a1.8,1.8,0,0,0-2.55,0L12.16,5.07l3.22,3.22A2.14,2.14,0,0,1,18.09,11l3.1,3.1a2.14,2.14,0,1,1-1.28,1.21L17,12.44v7.62A2.14,2.14,0,1,1,15.25,20V12.3a2.15,2.15,0,0,1-1.16-2.81L10.91,6.31,2.53,14.7a1.8,1.8,0,0,0,0,2.55L14.75,29.47a1.8,1.8,0,0,0,2.55,0L29.47,17.3a1.8,1.8,0,0,0,0-2.55"/><path d="M12.16,5.07l3.22,3.22A2.14,2.14,0,0,1,18.09,11l3.1,3.1a2.14,2.14,0,1,1-1.28,1.21L17,12.44v7.62A2.14,2.14,0,1,1,15.25,20V12.3a2.15,2.15,0,0,1-1.16-2.81L10.91,6.31" style="fill:#dd4c35"/></g></svg>