<svg width="32" height="32" version="1.1" xmlns="http://www.w3.org/2000/svg">
  <g transform="scale(1.1667)" fill-rule="evenodd">

    <path d="M0 0h24v24H0z" />

    <path
      d="M24 0v24H0V0zm-13.067 15.89h-4.093v5.52h4.198v-.93H7.955v-1.503h2.77v-.93h-2.77v-1.224h2.978v-.934zm2.146 0h-1.084v5.52h1.035v-3.6l2.226 3.6h1.118v-5.52h-1.036v3.686l-2.259-3.687zm5.117 0h-1.208l1.973 5.52h1.19l1.976-5.52h-1.182l-1.352 4.085-1.397-4.086zm-12.796 3.79h-1.68v1.68h1.68z"
      fill="#ecd53f"
      fill-rule="nonzero"
    />

    <path
      d="M14 0H24V10H17Q14 10 14 7Z"
      fill="#43A047"
      fill-rule="nonzero"
    />

    <polygon
      points="14,0 24,0 24,10"
      fill="#000000"
      opacity="0.1"
      fill-rule="nonzero"
    />

    <g
      transform="translate(15.05,1.15) scale(0.32)"
      stroke="white"
      stroke-width="2.3"
      stroke-linecap="round"
      stroke-linejoin="round"
      fill="none"
    >
      <path
        d="M20 13c0 5-3.5 7.5-7.66 8.95a1 1 0 0 1-.67-.01C7.5 20.5 4 18 4 13V6a1 1 0 0 1 1-1c2 0 4.5-1.2 6.24-2.72a1.17 1.17 0 0 1 1.52 0C14.51 3.81 17 5 19 5a1 1 0 0 1 1 1z" />
      <path d="m9 12 2 2 4-4" />
    </g>

  </g>
</svg>