<svg viewBox="0 0 32 32" xmlns="http://www.w3.org/2000/svg"><g fill="#737373"><path d="m6.151 6.8h5.337q3.2 7.236 6.394 14.471c.09.2.175.4.269.6-1.777.012-3.554 0-5.331.005q-3.335-7.533-6.669-15.076z"/><path d="m14.156 10.114h5.056a2.553 2.553 0 0 1 .28.006c.968 2.21 1.949 4.414 2.922 6.622q1.869 4.225 3.736 8.452c-1.779 0-3.558 0-5.337 0-.857-1.957-1.728-3.909-2.59-5.864l-3.807-8.609c-.086-.204-.186-.4-.26-.607z"/><path d="m4.4 11.51a2.753 2.753 0 0 1 2.888 1.662 2.726 2.726 0 0 1 -1.124 3.4 2.764 2.764 0 0 1 -3.357-.407 2.724 2.724 0 0 1 -.407-3.365 2.756 2.756 0 0 1 2-1.29z"/><path d="m27.057 14.809a2.762 2.762 0 0 1 2.33 1.008 2.727 2.727 0 0 1 -1 4.209 2.781 2.781 0 0 1 -2.517-.126 2.733 2.733 0 0 1 1.187-5.094z"/></g></svg>