<svg xmlns="http://www.w3.org/2000/svg" xmlns:xlink="http://www.w3.org/1999/xlink" viewBox="0 0 32 32"><title>file_type_libreoffice_math</title><path fill="#696969" d="M5.77 2h-.16c-.8.16-1 .5-.98 1.32v25.37c0 .91.4 1.31 1.3 1.31h20.13c.92 0 1.31-.4 1.31-1.31V12.98c.01-.46-.17-.93-.49-1.26L17.66 2.5c-.33-.32-.8-.5-1.26-.5H5.77zM21.1 2a.9.9 0 0 0-.14.01c-.58.19-.78 1.08-.33 1.5l5.27 5.3c.49.46 1.46.06 1.48-.62V2.9a.91.91 0 0 0-.87-.88h-5.27a.9.9 0 0 0-.14 0z"/><path fill="#f3f3f3" d="M5.94 3.31V28.7h20.12V12.94L16.44 3.3z"/><rect width="13.56" height="8.75" x="9" y="13.81" fill="#fcede4" rx=".11"/><path fill="#f09e6f" d="M9.88 14.25v.22h-.22v.22h.22v.22h.24v-.22h.2v-.22h-.2v-.22zm5.68 0v.22h-.65v.22h.65v.22h.24v-.22h.64v-.22h-.64v-.22zm5.69 0v.22h-.22v.22h.22v.22h.24v-.22h.2v-.22h-.2v-.22zm-10.72.22v.22h.66v-.22zm.88 0v.22h.65v-.22zm.87 0v.22h.66v-.22zm.88 0v.22h.65v-.22zm.87 0v.22h.66v-.22zm2.63 0v.22h.65v-.22zm.87 0v.22h.66v-.22zm.88 0v.22h.65v-.22zm.87 0v.22h.66v-.22zm.88 0v.22h.65v-.22zm-10.29.65v.66h.25v-.66zm5.7 0v.66h.23v-.66zm5.68 0v.66h.24v-.66zM9.87 16v.66h.25V16zm5.7 0v.66h.23V16zm5.68 0v.66h.24V16zm-11.6.87v.22h.22v.44h.24v-.44h.2v-.22h-.44zm.88 0v.22h.66v-.22zm.88 0v.22h.65v-.22zm.87 0v.22h.66v-.22zm.88 0v.22h.65v-.22zm.87 0v.22h.66v-.22zm.88 0v.22h.65v.44h.24v-.44h.64v-.22h-.88zm1.75 0v.22h.65v-.22zm.87 0v.22h.66v-.22zm.88 0v.22h.65v-.22zm.87 0v.22h.66v-.22zm.88 0v.22h.65v-.22zm.87 0v.22h.22v.44h.24v-.44h.2v-.22h-.44zm-11.16.88v.66h.24v-.66zm5.7 0v.66h.23v-.66zm5.68 0v.66h.24v-.66zm-11.38.87v.66h.24v-.66zm5.7 0v.66h.23v-.66zm5.68 0v.66h.24v-.66zm-11.38.88v.66h.24v-.66zm5.7 0v.66h.23v-.66zm5.68 0v.66h.24v-.66zm-11.38.87v.66h.24v-.66zm5.7 0v.66h.23v-.66zm5.68 0v.66h.24v-.66zm-11.38.88v.22h-.22v.22h.22v.22h.24v-.22h.2v-.22h-.2v-.22zm5.7 0v.22h-.67v.22h.66v.22h.24v-.22h.64v-.22h-.64v-.22zm5.68 0v.22h-.22v.22h.22v.22h.24v-.22h.2v-.22h-.2v-.22zm-10.72.22v.22h.66v-.22zm.87 0v.22h.66v-.22zm.88 0v.22h.66v-.22zm.87 0v.22h.66v-.22zm.88 0v.22h.66v-.22zm2.62 0v.22h.66v-.22zm.88 0v.22h.66v-.22zm.87 0v.22h.66v-.22zm.88 0v.22h.66v-.22zm.87 0v.22h.66v-.22z"/><path fill="#696969" d="M8.78 13.6v12.03h14V13.59zm.66.43h12.68c.13 0 .22.1.22.22v7.88c0 .12-.1.21-.22.21H9.44a.22.22 0 0 1-.22-.21v-7.88c0-.12.1-.22.22-.22zM9.22 23h13.12v2.19H9.22z" opacity=".6"/><path fill="#696969" d="m14.9 14.47-2.32 5.47-1.38-2.6-1.32.48.23.8.64-.32 1.64 3.39h.39l2.67-6.35h5.37v.44h.65v-1.31h-6.56zm.77 2.4 2.11 2.35v.03L15.6 21.7h1.08l1.7-1.82h.03l1.86 1.82h1.18l-2.4-2.48v-.03l2.24-2.3H20.2l-1.77 1.67h-.03l-1.56-1.68zm1.84 6.33c-.16 0-.26.02-.31.07-.06.04-.08.13-.08.27v.23a.3.3 0 0 1-.05.19c-.03.04-.1.05-.18.05h-.06v.14h.06a.3.3 0 0 1 .18.05c.03.04.05.1.05.2v.22c0 .14.02.23.08.28.05.04.15.07.3.07h.07v-.14h-.07c-.08 0-.14-.01-.17-.04a.3.3 0 0 1-.04-.17v-.24c0-.1-.01-.16-.04-.2a.24.24 0 0 0-.14-.1.28.28 0 0 0 .14-.09.4.4 0 0 0 .04-.21v-.23c0-.1.02-.15.04-.18.03-.03.09-.04.17-.04h.07v-.13zm1.52 0v.13h.07c.08 0 .14.01.17.04s.04.09.04.18v.23c0 .1.01.17.04.21.03.04.08.07.15.09-.07.02-.12.05-.15.1a.41.41 0 0 0-.04.2v.24c0 .08-.01.14-.04.17s-.09.04-.17.04h-.07v.14h.06c.16 0 .26-.03.31-.07.06-.05.08-.14.08-.28v-.22c0-.1.02-.16.05-.2a.3.3 0 0 1 .18-.05h.06V24h-.06c-.08 0-.14-.01-.18-.05-.03-.04-.05-.1-.05-.2v-.22c0-.14-.02-.23-.08-.27-.05-.05-.15-.07-.3-.07zm-3.23.19v.3h-.28v.13h.28v.57c0 .13.03.22.08.27.06.05.15.08.28.08h.2v-.14h-.19c-.07 0-.12-.02-.15-.05-.03-.03-.05-.08-.05-.16v-.57h.4v-.13h-.4v-.3zm-3.34.24a.45.45 0 0 0-.29.09.28.28 0 0 0-.1.23c0 .08.02.14.07.19.04.04.11.07.21.1h.07v.01c.16.03.23.09.23.16 0 .06-.02.1-.06.14a.3.3 0 0 1-.17.04c-.06 0-.11 0-.17-.02a1.02 1.02 0 0 1-.19-.08v.18a1.44 1.44 0 0 0 .35.07c.13 0 .23-.03.3-.1a.3.3 0 0 0 .12-.24.27.27 0 0 0-.07-.19.34.34 0 0 0-.2-.1h-.06a.59.59 0 0 1-.22-.07c-.02-.03-.04-.06-.04-.1 0-.06.02-.1.06-.12.04-.03.1-.04.17-.04.06 0 .1 0 .16.02l.15.06v-.16a.8.8 0 0 0-.32-.07zm1.1 0a.35.35 0 0 0-.3.16c-.07.1-.1.23-.1.4s.03.3.1.4c.07.1.17.15.3.15.06 0 .12-.01.17-.04a.3.3 0 0 0 .1-.12v.53h.18v-1.45h-.17v.14a.3.3 0 0 0-.12-.12.32.32 0 0 0-.16-.04zm1.46.02a.35.35 0 0 0-.34.23v-.2h-.18v1.05h.18v-.52c0-.13.03-.23.08-.3.06-.06.14-.1.25-.1l.12.02.12.07v-.18a.38.38 0 0 0-.23-.07zm2.78.01.38.5-.42.55h.2l.31-.42.3.42h.2l-.4-.55.37-.5h-.2l-.27.38-.28-.38zm-4.21.12a.2.2 0 0 1 .18.1c.05.08.07.18.07.3 0 .14-.02.24-.07.31a.2.2 0 0 1-.18.1.2.2 0 0 1-.2-.1.59.59 0 0 1-.05-.3c0-.14.02-.24.06-.3a.2.2 0 0 1 .19-.1z"/></svg>