<svg viewBox="0 0 32 32" xmlns="http://www.w3.org/2000/svg"><path d="m16.018 30a14 14 0 1 1 13.982-13.8 14 14 0 0 1 -13.982 13.8z" fill="#002bb5"/><g fill="#fff"><path d="m9.17 22.63c.026.061.046.124.077.183 2.215 4.206 7.738 4.616 10.756 2.454a6.017 6.017 0 0 0 1.731-8.583 15.7 15.7 0 0 0 -1.318-1.731c-.881-1.067-1.755-2.14-2.636-3.207-.366-.443-.767-.835-1.416-.683a1.393 1.393 0 0 0 -.816 2.311c.888 1.106 1.819 2.177 2.7 3.286a3.874 3.874 0 0 1 .589 4.4 5.423 5.423 0 0 1 -5 3.134 6.6 6.6 0 0 1 -4.667-1.564z"/><path d="m22.494 9.609c.08-.248-.066-.37-.141-.509a7.477 7.477 0 0 0 -9.753-2.863c-3.3 1.63-5.1 5.352-2.637 9.147a56.53 56.53 0 0 0 4.135 5.12 1.012 1.012 0 0 0 .709.345 1.384 1.384 0 0 0 1.428-.765 1.247 1.247 0 0 0 -.173-1.507c-.876-1.051-1.769-2.088-2.615-3.162a4.13 4.13 0 0 1 .323-5.771 6.054 6.054 0 0 1 6.214-1.514 5.19 5.19 0 0 1 2.51 1.479z"/></g></svg>