<svg xmlns="http://www.w3.org/2000/svg" viewBox="0 0 32 32"><title>file_type_light_font</title><path d="M12.89,18.719H6.682L5.594,21.25a4.006,4.006,0,0,0-.4,1.4.807.807,0,0,0,.349.642,3.043,3.043,0,0,0,1.508.363v.437H2V23.65a2.721,2.721,0,0,0,1.3-.461,7.243,7.243,0,0,0,1.336-2.306l5.64-13.2h.414l5.581,13.337A6.065,6.065,0,0,0,17.5,23.11a2.5,2.5,0,0,0,1.531.54v.437H12.7V23.65A2.372,2.372,0,0,0,14,23.331a.823.823,0,0,0,.337-.662,4.9,4.9,0,0,0-.473-1.644Zm-.331-.875-2.719-6.48-2.79,6.48Z" style="fill:#1a1a1a"/><path d="M26.193,22.527a17.851,17.851,0,0,1-2.093,1.49,3.2,3.2,0,0,1-1.36.3,2.441,2.441,0,0,1-1.852-.769,2.82,2.82,0,0,1-.725-2.022,2.575,2.575,0,0,1,.355-1.372A4.688,4.688,0,0,1,22.2,18.637a26.259,26.259,0,0,1,3.993-1.726v-.426a3.529,3.529,0,0,0-.516-2.223,1.853,1.853,0,0,0-1.494-.6,1.68,1.68,0,0,0-1.182.4,1.21,1.21,0,0,0-.449.922l.024.686a1.18,1.18,0,0,1-.28.839.948.948,0,0,1-.725.3.925.925,0,0,1-.717-.307,1.2,1.2,0,0,1-.276-.839,2.419,2.419,0,0,1,1.041-1.868,4.493,4.493,0,0,1,2.921-.851,5.066,5.066,0,0,1,2.365.485,2.229,2.229,0,0,1,1.029,1.147,6.463,6.463,0,0,1,.213,2.081v3.677a16.8,16.8,0,0,0,.059,1.9.8.8,0,0,0,.193.469.468.468,0,0,0,.315.118.645.645,0,0,0,.331-.083A7.386,7.386,0,0,0,30,21.865v.662Q28.676,24.3,27.47,24.3a1.15,1.15,0,0,1-.922-.4A2.171,2.171,0,0,1,26.193,22.527Zm0-.769V17.632a23.347,23.347,0,0,0-2.306,1.005,3.982,3.982,0,0,0-1.336,1.088,2.1,2.1,0,0,0-.4,1.242,2.021,2.021,0,0,0,.508,1.411,1.543,1.543,0,0,0,1.171.564A4.29,4.29,0,0,0,26.193,21.758Z" style="fill:#1a1a1a"/></svg>