<svg viewBox="0 0 32 32" xmlns="http://www.w3.org/2000/svg"><path d="m18.191 13.071h2.509v2.566h1.27a5.5 5.5 0 0 0 1.744-.292 4.462 4.462 0 0 0 .848-.383 3.149 3.149 0 0 1 -.589-1.623 3.427 3.427 0 0 1 .616-2.416l.264-.305.314.253a4 4 0 0 1 1.575 2.538 3.837 3.837 0 0 1 2.913.271l.345.2-.181.354a3.629 3.629 0 0 1 -3.648 1.74c-2.173 5.413-6.9 7.976-12.642 7.976a7.958 7.958 0 0 1 -7.229-3.739l-.025-.043-.226-.459a7.28 7.28 0 0 1 -.579-3.693l.035-.38h2.143v-2.565h2.51v-2.51h5.02v-2.51h3.012v5.02z" fill="#3a4e55"/><path d="m26.324 14.021a3.311 3.311 0 0 0 -1.418-2.821 3.072 3.072 0 0 0 .289 3.821 5.279 5.279 0 0 1 -3.225 1.037h-16.087a6.779 6.779 0 0 0 .667 3.737l.183.335a6.2 6.2 0 0 0 .379.569q.992.064 1.829.045a8.972 8.972 0 0 0 2.669-.389.193.193 0 1 1 .126.365c-.09.031-.184.061-.281.088a8.4 8.4 0 0 1 -1.845.3c.044 0-.046.007-.046.007l-.082.007c-.291.016-.6.02-.925.02-.351 0-.7-.007-1.083-.026l-.01.007a7.882 7.882 0 0 0 6.063 2.41c5.56 0 10.276-2.465 12.365-8 1.482.152 2.906-.226 3.553-1.49a3.5 3.5 0 0 0 -3.122-.022" fill="#00aada"/><path d="m26.324 14.021a3.311 3.311 0 0 0 -1.418-2.821 3.072 3.072 0 0 0 .289 3.821 5.279 5.279 0 0 1 -3.225 1.037h-15.134a5.223 5.223 0 0 0 2.106 4.686 8.972 8.972 0 0 0 2.669-.389.193.193 0 1 1 .126.365c-.09.031-.184.061-.281.088a8.83 8.83 0 0 1 -1.894.314l-.019-.022c1.892.971 4.636.967 7.782-.241a21.868 21.868 0 0 0 9.1-6.889l-.1.048" fill="#27b9ec"/><path d="m5.913 17.732a6.431 6.431 0 0 0 .637 2.061l.183.335a6.2 6.2 0 0 0 .379.569q.992.064 1.829.045a8.972 8.972 0 0 0 2.669-.389.193.193 0 1 1 .126.365c-.09.031-.184.061-.281.088a8.826 8.826 0 0 1 -1.891.307h-.1c-.291.016-.6.026-.922.026-.351 0-.709-.007-1.1-.026a7.913 7.913 0 0 0 6.076 2.413c4.76 0 8.9-1.807 11.3-5.8z" fill="#088cb9"/><path d="m6.98 17.732a4.832 4.832 0 0 0 1.961 3.01 8.972 8.972 0 0 0 2.669-.389.193.193 0 1 1 .126.365c-.09.031-.184.061-.281.088a8.959 8.959 0 0 1 -1.9.307c1.892.971 4.628.957 7.773-.252a20.545 20.545 0 0 0 5.377-3.13z" fill="#039cc7"/><path d="m9.889 13.671h.172v1.813h-.172zm-.33 0h.179v1.813h-.179zm-.33 0h.179v1.813h-.178v-1.813zm-.33 0h.179v1.813h-.178v-1.813zm-.33 0h.179v1.813h-.178v-1.813zm-.323 0h.172v1.813h-.17v-1.813zm-.181-.181h2.175v2.176h-2.174v-2.176z" fill="#00acd3"/><path d="m12.4 11.161h.172v1.813h-.172zm-.33 0h.179v1.813h-.179zm-.33 0h.179v1.813h-.179zm-.33 0h.179v1.813h-.179zm-.33 0h.178v1.813h-.178zm-.323 0h.172v1.813h-.172zm-.181-.181h2.176v2.176h-2.175v-2.177z" fill="#00acd3"/><path d="m12.4 13.671h.172v1.813h-.172zm-.33 0h.179v1.813h-.179zm-.33 0h.179v1.813h-.179zm-.33 0h.179v1.813h-.179zm-.33 0h.178v1.813h-.178zm-.323 0h.172v1.813h-.172zm-.181-.181h2.176v2.176h-2.175v-2.176z" fill="#26c2ee"/><path d="m14.909 13.671h.172v1.813h-.172zm-.33 0h.179v1.813h-.178v-1.813zm-.33 0h.179v1.813h-.178v-1.813zm-.33 0h.181v1.813h-.179v-1.813zm-.33 0h.179v1.813h-.179zm-.323 0h.172v1.813h-.172zm-.181-.181h2.176v2.176h-2.174v-2.176z" fill="#00acd3"/><path d="m14.909 11.161h.172v1.813h-.172zm-.33 0h.179v1.813h-.178v-1.813zm-.33 0h.179v1.813h-.178v-1.813zm-.33 0h.181v1.813h-.179v-1.813zm-.33 0h.179v1.813h-.179zm-.323 0h.172v1.813h-.172zm-.181-.181h2.176v2.176h-2.174v-2.177z" fill="#26c2ee"/><path d="m17.42 13.671h.172v1.813h-.172zm-.33 0h.179v1.813h-.179zm-.33 0h.179v1.813h-.179zm-.33 0h.179v1.813h-.179zm-.33 0h.179v1.813h-.179zm-.323 0h.172v1.813h-.172zm-.177-.181h2.176v2.176h-2.176z" fill="#26c2ee"/><path d="m17.42 11.161h.172v1.813h-.172zm-.33 0h.179v1.813h-.179zm-.33 0h.179v1.813h-.179zm-.33 0h.179v1.813h-.179zm-.33 0h.179v1.813h-.179zm-.323 0h.172v1.813h-.172zm-.181-.181h2.176v2.176h-2.172v-2.177z" fill="#00acd3"/><path d="m17.42 8.65h.172v1.813h-.172zm-.33 0h.179v1.813h-.179zm-.33 0h.179v1.813h-.179zm-.33 0h.179v1.813h-.179zm-.33 0h.179v1.813h-.179zm-.323 0h.172v1.813h-.172zm-.177-.181h2.176v2.176h-2.176z" fill="#26c2ee"/><path d="m19.93 13.671h.17v1.813h-.17zm-.33 0h.178v1.813h-.178zm-.33 0h.179v1.813h-.179zm-.33 0h.179v1.813h-.179zm-.33 0h.179v1.813h-.179zm-.323 0h.172v1.813h-.172zm-.181-.181h2.176v2.176h-2.175v-2.176z" fill="#00acd3"/><path d="m12.616 19.193a.6.6 0 1 1 -.6.6.6.6 0 0 1 .6-.6" fill="#d5eef2"/><path d="m12.616 19.363a.431.431 0 0 1 .156.029.175.175 0 1 0 .241.236.43.43 0 1 1 -.4-.265" fill="#3a4e55"/><path d="m2 17.949h27.92c-.608-.154-1.923-.362-1.707-1.159-1.105 1.279-3.771.9-4.444.267-.749 1.087-5.111.674-5.415-.173-.939 1.1-3.85 1.1-4.789 0-.3.847-4.666 1.26-5.415.173-.673.631-3.338 1.012-4.444-.267.217.8-1.1 1.005-1.707 1.159" fill="#3a4e55"/><path d="m14.211 23.518a5.287 5.287 0 0 1 -2.756-2.711 9.2 9.2 0 0 1 -1.987.3q-.436.024-.917.025-.554 0-1.168-.033a7.942 7.942 0 0 0 6.145 2.43q.344 0 .683-.013" fill="#c0dbe1"/><path d="m12.007 21.773a5.206 5.206 0 0 1 -.552-.966 9.2 9.2 0 0 1 -1.987.3 6.325 6.325 0 0 0 2.539.664" fill="#d5eef2"/></svg>