<svg xmlns="http://www.w3.org/2000/svg" viewBox="0 0 32 32"><g><circle fill="#65D1FF" cx="16" cy="16" r="14"/><g><clipPath id="clip"><circle cx="16" cy="16" r="14"/></clipPath><g clip-path="url(#clip)"><linearGradient id="linearGradient1" gradientUnits="userSpaceOnUse" x1="6.4965" y1="14.3469" x2="25.5035" y2="14.3469"><stop offset="0" style="stop-color:#B7B7B7"/><stop offset="0.5" style="stop-color:#FFFFFF"/><stop offset="1" style="stop-color:#B2B2B2"/></linearGradient><path fill="url(#linearGradient1)" d="M16,7.27L16,7.27C16,7.27,16,7.27,16,7.27C16,7.27,16,7.27,16,7.27L16,7.27c-9.71,0-9.51,7.65-9.51,7.65v6.51l3.93-0.1v-6.41c0-3.96,5.39-3.93,5.57-3.93l0,0c0,0,0,0,0,0c0,0,0,0,0,0l0,0c0.18,0,5.57-0.04,5.57,3.93v6.41l3.93,0.1v-6.51C25.5,14.92,25.71,7.27,16,7.27z"/><linearGradient id="linearGradient2" gradientUnits="userSpaceOnUse" x1="8.3491" y1="12.2681" x2="19.4678" y2="17.6298"><stop offset="0.1" style="stop-color:#323232"/><stop offset="0.5" style="stop-color:#636363"/><stop offset="1" style="stop-color:#272727"/></linearGradient><path fill="url(#linearGradient2)" d="M25.86,21.8l-4.65-0.12v-6.76c0-0.87-0.29-1.59-0.85-2.15c-1.33-1.32-3.79-1.41-4.27-1.42l-0.01,0l-0.09,0c-0.2,0-2.92,0-4.35,1.42c-0.57,0.56-0.85,1.28-0.85,2.15v6.76L6.14,21.8v-6.88c0-0.11-0.06-3.03,2.19-5.33c1.72-1.77,4.3-2.67,7.67-2.67l0,0l0.01,0c3.37,0,5.95,0.9,7.67,2.67c2.24,2.3,2.19,5.22,2.19,5.34L25.86,21.8z M15.99,7.63c-3.15,0-5.56,0.82-7.14,2.45c-2.03,2.08-1.99,4.8-1.99,4.83l0,6.15l3.2-0.08v-6.05c0-1.07,0.36-1.96,1.07-2.66c1.63-1.61,4.62-1.63,4.86-1.62l0.01,0l0.01,0c0.2,0,3.22,0,4.86,1.62c0.71,0.7,1.07,1.6,1.07,2.66v6.05l3.2,0.08v-6.14c0-0.04,0.04-2.76-1.99-4.84C21.57,8.46,19.16,7.63,16,7.63l0,0L15.99,7.63z"/><linearGradient id="linearGradient3" gradientUnits="userSpaceOnUse" x1="7.1192" y1="14.5879" x2="12.7632" y2="14.5879"><stop offset="0.1" style="stop-color:#FFFFFF"/><stop offset="1" style="stop-color:#FFFFFF;stop-opacity:0.4"/></linearGradient><path fill="url(#linearGradient3)" d="M7.12,20.68v-5.77c0,0-0.07-5.44,5.64-6.65c0,0-4.2,2.21-4.2,6.65v5.99L7.12,20.68z"/><linearGradient id="linearGradient4" gradientUnits="userSpaceOnUse" x1="23.3234" y1="20.4617" x2="23.154" y2="13.689"><stop offset="0.1" style="stop-color:#FFFFFF"/><stop offset="1" style="stop-color:#FFFFFF;stop-opacity:0"/></linearGradient><rect x="22.41" y="13.16" fill="url(#linearGradient4)" width="1.65" height="7.34"/><path fill="#0CCC06" d="M22.98,37.8H9.13c-3.07,0-5.58-2.51-5.58-5.58V25.5c0-3.07,2.51-5.58,5.58-5.58h13.85c3.07,0,5.58,2.51,5.58,5.58v6.72C28.55,35.29,26.04,37.8,22.98,37.8z"/><path fill="#337C00" d="M23.52,38.16H8.58c-2.97,0-5.39-2.42-5.39-5.39v-7.81c0-2.97,2.42-5.39,5.39-5.39h14.94c2.97,0,5.39,2.42,5.39,5.39v7.81C28.92,35.74,26.5,38.16,23.52,38.16z M8.58,20.29c-2.57,0-4.67,2.09-4.67,4.67v7.81c0,2.57,2.09,4.67,4.67,4.67h14.94c2.57,0,4.67-2.09,4.67-4.67v-7.81c0-2.57-2.09-4.67-4.67-4.67H8.58z"/><g><linearGradient id="linearGradient5" gradientUnits="userSpaceOnUse" x1="5.4038" y1="24.0844" x2="22.4206" y2="23.8842"><stop offset="0.1" style="stop-color:#FFFFFF"/><stop offset="1" style="stop-color:#FFFFFF;stop-opacity:0"/></linearGradient><path fill="url(#linearGradient5)" d="M5.98,27.07H5.15l0-2.99c0.05-0.95,0.68-2.79,2.75-3.01l0.04,0h14.46v0.83H7.97c-0.78,0.09-1.34,0.48-1.69,1.17c-0.25,0.5-0.29,0.98-0.3,1.05V27.07z"/></g></g></g></g></svg>
