<svg xmlns="http://www.w3.org/2000/svg" xmlns:xlink="http://www.w3.org/1999/xlink" viewBox="0 0 32 32"><title>file_type_libreoffice_writer</title><linearGradient id="a"><stop offset="0" stop-color="#666"/><stop offset="1" stop-color="#333"/></linearGradient><linearGradient id="b"><stop offset="0" stop-color="#0369a3"/><stop offset="1" stop-color="#1c99e0"/></linearGradient><linearGradient id="k" x1="445.7" x2="441.39" y1="1103.6" y2="1099.8" gradientTransform="matrix(0 .17305 -.28 0 330.04 -59.69)" gradientUnits="userSpaceOnUse"><stop offset="0" stop-color="#e9b913"/><stop offset="1" stop-color="#ff0"/></linearGradient><linearGradient id="j" x2="0" y1="1173" y2="1178" gradientTransform="matrix(.91871 0 0 .85555 -302.71 -986.11)" gradientUnits="userSpaceOnUse"><stop offset="0" stop-color="#0369a3"/><stop offset="1" stop-color="#023f62"/></linearGradient><linearGradient id="i" x2="0" y1="-629.67" y2="-635.55" gradientTransform="matrix(.26249 0 0 .26736 -59.51 189.81)" gradientUnits="userSpaceOnUse"><stop offset="0" stop-color="#18a303"/><stop offset="1" stop-color="#106802"/></linearGradient><linearGradient xlink:href="#a" id="h" x2="0" y1="1173" y2="1178" gradientTransform="matrix(.91871 0 0 .85555 -302.71 -987.18)" gradientUnits="userSpaceOnUse"/><linearGradient xlink:href="#a" id="g" x2="0" y1="1173" y2="1178" gradientTransform="matrix(-.91871 0 0 .85555 339.08 -987.44)" gradientUnits="userSpaceOnUse"/><linearGradient id="f" x2="0" y1="-581.64" y2="-578.64" gradientTransform="matrix(.98435 0 0 .80208 -204.28 483.17)" gradientUnits="userSpaceOnUse"><stop offset="0" stop-color="#63bbee"/><stop offset="1" stop-color="#aadcf7"/></linearGradient><linearGradient xlink:href="#b" id="e" x1="108" x2="20" y1="130" y2="14" gradientTransform="translate(2 2) scale(.21875)" gradientUnits="userSpaceOnUse"/><linearGradient id="d" x1="108" x2="20" y1="122" y2="6" gradientTransform="translate(2 2) scale(.21875)" gradientUnits="userSpaceOnUse"><stop offset="0" stop-color="#e6e6e6"/><stop offset="1" stop-color="#fff"/></linearGradient><linearGradient xlink:href="#b" id="c" x1="122.75" x2="111.75" y1="991.62" y2="977.12" gradientTransform="matrix(1.7499 0 0 1.7495 -189.18 -1706.2)" gradientUnits="userSpaceOnUse"/><g stroke-width=".22"><path fill="url(#c)" d="M5.77 2h-.16c-.8.16-1 .5-.98 1.32v25.37c0 .91.4 1.31 1.3 1.31h20.13c.92 0 1.32-.4 1.32-1.31V12.98c0-.46-.18-.93-.5-1.26L17.66 2.5c-.33-.32-.8-.5-1.26-.5H5.77zM21.1 2a.9.9 0 0 0-.14.01c-.58.19-.78 1.08-.33 1.5l5.27 5.3c.49.46 1.46.06 1.49-.62V2.9a.91.91 0 0 0-.88-.88h-5.27a.9.9 0 0 0-.14 0z"/><path fill="url(#d)" d="M5.94 3.31V28.7h20.12V12.94L16.44 3.3z"/><path fill="url(#e)" d="M8.78 14.25v.87h3.94v-.87zm4.81 0v6.12h9.2v-6.12zm.66.66h7.88v4.8h-7.88zM8.78 16v.87h3.94V16zm0 1.75v.87h3.94v-.87zm0 1.75v.87h3.94v-.87zm0 1.75v.87h14v-.87zm0 1.75v.87h14V23zm0 1.75v.87h9.19v-.87z"/><path fill="url(#f)" d="M14.25 14.9h7.87v4.82h-7.87z"/><path fill="url(#g)" d="M20.02 16.24c.53.27 1.44 1.2 2.1 1.87v.8H16.1a9.45 9.45 0 0 1 3.94-2.67z"/><path fill="#333" d="m18.1 17.8.04-.38.7-.3.38-.37.68-.28-.18.45-.26.48-.16.51-.11.3z"/><path fill="url(#h)" d="M18.32 17.45a8.07 8.07 0 0 1-1.7-2c-.16.04-.15.02-.27 0l-1.05 1.6c-.35.54-1.05 1.33-1.05 1.33v.54h6.04s-1.44-1.06-1.97-1.47z"/><path fill="url(#i)" d="M22.13 18.38h-.34l-1.5.27s-1.48-.4-1.7-.4c-.23 0-.93.13-1.06.13-.1 0-.65-.27-.79-.27-.22 0-.47.29-1.13.4 0 0-.19-.42-.31-.4-.79.31-1.05.27-1.05.27v1.34h7.87v-1.34z"/><path fill="url(#j)" d="M14.25 18.65v1.07h6.82l.27-.27-.27-.27-.52-.26-1.31-.27-1.32-.13-1.18.13h-2.49z"/><path fill="#333" d="m14.78 18.11.37-.6.44-.54.34-.63.42-.63-.28.8-.21.65-.1.42-.2.44c-.07-.05-.16-.06-.25-.09l-.25.1z"/><path fill="gray" d="m18.45 18.11-.38-.59-.68-.75-.56-.75-.22-.31.24.8.26.5.22.74.07.36.24.08.36-.08c.15-.02.3 0 .45 0z"/><path fill="#666" d="m15.74 18.13.28-.73.14-.75.2-.46.12-.48.17.5.05.46.21.42.2.49.05.34-.35.1-.33-.13-.37.24h-.37z"/><path fill="gray" d="m19.12 18.25-.46-.34-.3-.24.3.45z"/><path fill="#666" d="m19.5 17.93.17-.54.2-.46.12-.48.18.5.22.42.16.42-.03.45.22.22-.45-.02-.9-.2.12-.31z"/><path fill="gray" d="m22.02 18.22-.31-.19-.43-.6-.64-.56-.5-.42.1.35.44.7.05.64.26.2.6-.1.43-.02z"/><path fill="#0369a3" d="m14.51 18.92-.26.8h6.56v-.27l-.26-.27-1.31-.26-1.31-.14-1.32.14-1.42.04z"/><path fill="#1c99e0" d="m17.14 19.45.26-.27h1.05l.79.27.26.27h-.52z" opacity=".5"/><path fill="url(#k)" d="M22.13 16.22c-.73 0-1.32-.59-1.32-1.31h1.32z" opacity=".74"/></g></svg>
