<svg xmlns="http://www.w3.org/2000/svg" xml:space="preserve" fill-rule="evenodd" clip-rule="evenodd" image-rendering="optimizeQuality" shape-rendering="geometricPrecision" text-rendering="geometricPrecision" viewBox="0 0 32 32"><path fill="#d2d2d2" d="M16.05 30h-.1l-.14-.04-11.75-6.84a.3.3 0 0 1-.14-.25V9.17q0-.18.15-.28L15.8 2.04q.08-.04.15-.04h.1q.08 0 .14.04l11.75 6.84q.13.08.14.25v13.71q0 .17-.15.27L16.2 29.96a.3.3 0 0 1-.15.04M12.12 5.92c-.09 1.85-.08 1.94.67 3.73q.24.57.54 1.14.36.68.62 1.32a.28.28 0 0 1-.42.34q-.51-.35-1-.73l-.36-.29c-.41-.31-1.09-.85-1.65-1.36a7 7 0 0 1-.92-.96A10 10 0 0 1 8.98 8l-.1-.2-3.5 2.03v4.4l.33.22.01.01.7.4c1.15.57 2.4.65 3.73.73q.66.04 1.39.11a.28.28 0 0 1 .11.53l-.33.19-.05.02c-.5.2-1.31.55-2.08.84h-.02c-.8.3-1.6.58-2.05.66-.46.07-.86.04-1.24.02l-.5-.03v4.24c.33.21 1.42.84 1.96 1.15l.28.16 1.19.69.02.01c.17.1.35-.02.75-.27l.2-.12c1.17-.72 2.05-2.1 2.68-3.08q.44-.72.75-1.07a.28.28 0 0 1 .48.22 23 23 0 0 1-.96 5.14q-.22.43-.46.78l-.18.27 3.92 2.3.14-.08.13-.08 1.34-.79c.78-.47 1.6-.96 2.23-1.29a5 5 0 0 0-.01-1.63 7 7 0 0 0-.5-1.6 51 51 0 0 0-1.31-2.84.28.28 0 0 1 .38-.37c.36.2 1.37.98 2.27 1.73.75.62 1.43 1.24 1.63 1.53a10 10 0 0 1 .74 1.3l3.56-2.05v-4.35a6 6 0 0 0-2.51-1.14c-.88-.15-1.79-.21-2.7-.27l-1-.08a.28.28 0 0 1-.12-.52c.37-.25 2.35-1 2.88-1.19l.1-.04.77-.27q.45-.15.84-.22c.47-.07.87-.04 1.26-.01l.49.02V9.85l-2.83-1.67-.22-.13-.32-.2c-.13-.05-.69.3-.95.47l-.1.06a8 8 0 0 0-2.33 2.51l-.27.4-.2.29-.17.27-.35.5-.08.08-.06.06a.28.28 0 0 1-.46-.24c.03-.64.18-1.92.41-3.09.17-.87.38-1.68.62-2.13s.38-.66.54-.87l.12-.17-3.96-2.34c-.05 0-.28.14-.52.29l-.29.17-.53.31-.54.32zm1.47 8.25A3 3 0 0 1 15.62 13h.03A3.05 3.05 0 0 1 19 15.58v.03a3 3 0 0 1-2.58 3.38l-.04.01a3.03 3.03 0 0 1-3.37-2.58l-.01-.04c-.1-.86.14-1.62.6-2.21m2.2.21c-.76.1-1.2.58-1.35 1.13a1.8 1.8 0 0 0 .18 1.36v.01c.3.5.83.83 1.6.74a1.64 1.64 0 0 0 1.4-1.84v-.02c-.06-.4-.28-.77-.6-1.03l-.01-.01a1.6 1.6 0 0 0-1.2-.34z"/></svg>