<svg xmlns="http://www.w3.org/2000/svg" xmlns:xlink="http://www.w3.org/1999/xlink" viewBox="0 0 32 32"><defs><radialGradient id="a" cx="-347.632" cy="388.446" r="1" gradientTransform="matrix(3.568, 0, 0, -3.757, 1255.663, 1473.926)" gradientUnits="userSpaceOnUse"><stop offset="0" stop-color="#ff9d18"/><stop offset="0.22" stop-color="#ffa117"/><stop offset="0.44" stop-color="#ffac14"/><stop offset="0.65" stop-color="#ffc00e"/><stop offset="0.86" stop-color="#ffdb06"/><stop offset="1" stop-color="#fff100"/></radialGradient></defs><title>file_type_lilypond</title><path d="M16,29.5c7.732,0,14-4.507,14-10.067S23.732,9.366,16,9.366,2,13.873,2,19.433,8.268,29.5,16,29.5Z" style="opacity:0.75;isolation:isolate"/><path d="M15.877,29.113c7.664,0,13.877-4.507,13.877-10.067S23.542,8.979,15.877,8.979,2,13.486,2,19.046,8.213,29.113,15.877,29.113Z" style="fill:#80b48e"/><path d="M5.235,21.858c.781-3.041,4.994-7.422,4.994-7.422S8.017,6.7,9.106,4.775c2.3-.169,8.349,6.167,8.349,6.167s6.636-3.283,9.417-2.33c-.28,2.9-4.3,5.036-4.3,5.036s.949,8.688-.358,11.425c-2.212.421-6.994-4.768-6.994-4.768S7.47,24.585,5.235,21.858Z" style="opacity:0.75;isolation:isolate"/><path d="M5.485,21.5c.758-2.949,4.843-7.2,4.843-7.2s-2.145-7.5-1.089-9.368c2.233-.164,8.055,5.205,8.055,5.205s6.476-2.409,9.172-1.484C26.2,11.471,22.3,13.539,22.3,13.539s.92,8.425-.347,11.079c-2.145.409-6.783-4.625-6.783-4.625S7.652,24.144,5.485,21.5Z" style="fill:#94a39d"/><path d="M14.028,24.556c2.83-1.342,5.634-4.8,5.634-4.8s6.081-2.148,7.769-4.4A20.456,20.456,0,0,0,19.661,9.97S19.5,4.556,17.826,2.5c-1.8,1.33-4.52,7.106-4.52,7.106S7.045,8.5,4.881,9.315c1.422,4.112,5.836,7.621,5.836,7.621A57.349,57.349,0,0,0,14.028,24.556Z" style="opacity:0.75;isolation:isolate"/><path d="M14.005,24.144c2.724-1.292,5.424-4.711,5.424-4.711s5.853-1.98,7.477-4.142a18.229,18.229,0,0,0-7.467-5.044s-.164-5.356-1.777-7.335c-1.737,1.281-4.351,6.84-4.351,6.84S7.283,8.691,5.2,9.473c1.371,3.958,5.619,7.336,5.619,7.336A55.174,55.174,0,0,0,14.005,24.144Z" style="fill:#c8e5da"/><path d="M22.721,15.37c-.662-2.356-4.109-4.738-4.109-4.738S15.6,5.6,13.226,5.039C10.405,9.564,11.8,17.61,11.8,17.61S19.751,18.617,22.721,15.37Z" style="opacity:0.75;isolation:isolate"/><path d="M22.4,15.195c-.633-2.259-3.942-4.539-3.942-4.539S15.571,5.837,13.29,5.3C10.573,9.645,11.9,17.361,11.9,17.361S19.543,18.314,22.4,15.195Z" style="fill:#efe7e4"/><path d="M19.831,22.081l.158-16.1a.152.152,0,0,0-.019-.075.143.143,0,0,0-.052-.055.134.134,0,0,0-.142,0L6.026,14.914a.806.806,0,0,0-.28.321.857.857,0,0,0,.051.839.791.791,0,0,0,.317.281l12.932,6.252a.529.529,0,0,0,.269.052.535.535,0,0,0,.26-.09.573.573,0,0,0,.187-.209.608.608,0,0,0,.069-.278Z" style="opacity:0.75;isolation:isolate"/><path d="M19.509,21.813l.152-15.544a.148.148,0,0,0-.018-.072.138.138,0,0,0-.051-.053.129.129,0,0,0-.137,0L6.178,14.89a.777.777,0,0,0-.27.31.827.827,0,0,0,.049.809.762.762,0,0,0,.306.271l12.488,6.038a.511.511,0,0,0,.509-.036.553.553,0,0,0,.181-.2.587.587,0,0,0,.068-.268Z" style="fill:#f8ece7"/><path d="M15.29,18.221a3.666,3.666,0,0,0,3.568-3.757,3.666,3.666,0,0,0-3.568-3.757,3.666,3.666,0,0,0-3.568,3.757A3.666,3.666,0,0,0,15.29,18.221Z" style="fill:url(#a)"/></svg>