<?xml version="1.0" encoding="utf-8"?>
<!DOCTYPE svg PUBLIC "-//W3C//DTD SVG 1.1//EN" "http://www.w3.org/Graphics/SVG/1.1/DTD/svg11.dtd">
<svg version="1.1" id="Layer_1" xmlns="http://www.w3.org/2000/svg" xmlns:xlink="http://www.w3.org/1999/xlink" x="0px" y="0px"
	 width="256px" height="256px" viewBox="0 0 256 256" enable-background="new 0 0 256 256" xml:space="preserve">
<title>x_wurstfile_03c</title>
<path fill="#8E4747" d="M3.452,112.82c0.909-16.931,4.251-32.929,12.238-47.875c4.102-7.678,10.171-11.572,18.94-11.188
	c3.209,0.142,6.485-0.309,9.612,0.226c7.161,1.233,14.78,9.612,16.623,16.672c1.142,4.394,0,8.47-0.359,12.68
	c-0.909,9.445-2.076,18.874-3.334,28.293c-1.092,8.486,1.175,15.839,7.11,21.933c2.11,2.112,4.514,3.909,7.137,5.336
	c4.417,2.45,8.669,2.001,11.929-1.81c4.651-5.434,8.903-11.229,13.063-17.064c4.39-6.095,9.769-11.412,15.915-15.731
	c9.553-6.811,20.94-6.869,30.544-0.083c8.445,5.96,14.807,13.83,20.572,22.299c2.464,3.627,5.188,7.068,8.154,10.295
	c3.476,3.77,8.335,4.369,12.887,1.81c8.729-5.001,13.506-12.504,13.807-22.641c0.375-12.68-1.709-25.076-4.293-37.431
	c-0.909-4.167,0.083-8.094,1.96-11.771c4.317-8.553,11.52-12.604,20.897-12.846c3.803-0.1,7.804-0.275,11.404,0.709
	c7.869,2.159,10.838,9.169,13.914,15.839c5.064,11.326,7.94,23.508,8.468,35.904c1.668,30.678-8.336,57.054-29.077,79.463
	c-7.243,7.836-16.456,12.845-26.592,16.215c-5.899,1.872-12.067,2.766-18.258,2.642c-12.136-0.017-21.308-5.169-28.066-15.021
	c-2.502-3.712-4.804-7.638-7.637-11.105c-2.192-2.717-4.735-5.437-7.712-7.026c-5.885-3.21-12.62-1.186-17.313,4.76
	c-4.694,5.944-9.003,11.971-13.488,17.964c-5.344,7.138-12.68,10.004-21.375,10.355c-26.493,1.133-44.724-12.231-58.871-33.012
	c-6.985-10.255-12.362-21.301-15.005-33.406C5.353,129.784,4.661,121.248,3.452,112.82z"/>
</svg>
