<svg xmlns="http://www.w3.org/2000/svg" fill="none" viewBox="0 0 32 32"><path fill="#0a0e1a" d="M16.0001 31.36c8.4831 0 15.36-6.8769 15.36-15.36S24.4832.64 16.0001.64.6401 7.517.6401 16s6.877 15.36 15.36 15.36"/><path fill="#d4af37" fill-rule="evenodd" d="M16 1.3594C24.0853 1.3595 30.6395 7.9147 30.6396 16 30.6395 24.0853 24.0853 30.6395 16 30.6396S1.3595 24.0853 1.3594 16C1.3595 7.9147 7.9146 1.3594 16 1.3594M24 16l-8 11.2002L8 16 7.041 5.4512C4.055 7.9897 2.1602 11.7735 2.1602 16c0 7.6435 6.1963 13.8398 13.8398 13.8398C23.6434 29.8397 29.8397 23.6434 29.8398 16c0-4.2267-1.8953-8.0103-4.8818-10.5488zm-8-4.627a2.7199 2.7199 0 0 0-1.8398 4.7227l-.7198 6.3047h5.1192l-.7198-6.3047a2.719 2.719 0 0 0-.3046-4.248A2.72 2.72 0 0 0 16 11.373m0-9.2128c-3.4138 0-6.5388 1.2362-8.9521 3.2851l6.0722 3.835h5.7598l6.0713-3.835C22.5379 3.3967 19.4135 2.1603 16 2.1602" clip-rule="evenodd"/><path fill="#0a0e1a" d="m9.92 12.8 2.5599.96-1.6 1.28zM22.08 12.8l-2.56.96 1.6 1.28z"/></svg>