<svg viewBox="0 0 32 32" xmlns="http://www.w3.org/2000/svg"><path d="m4.574 5.463c.262.4 2.5-1.608 4.454-1.161 2.061.472 4.014 3.724 4.848 13.7a40.18 40.18 0 0 1 3.541 3.61q.53.614 1.013 1.22a11.847 11.847 0 0 1 .229-1.4 12.3 12.3 0 0 1 1.981-4.4 19.151 19.151 0 0 0 -3.368-9.132c-1.03-1.445-4.6-6.478-8.546-5.843-2.544.408-4.426 2.997-4.152 3.406z" fill="#63bf6a"/><path d="m24.4 30c-.32-2.567-.448-4.76-.5-6.449-.094-3.232.1-4.541.9-5.756.193-.295 1.288-1.975 2.58-1.863 1.466.128 2.213 2.414 2.362 2.337.175-.09-.36-3.543-2.532-4.431-2.6-1.063-6.312 2.07-7.8 5.154a12.223 12.223 0 0 0 -.857 2.81 32.555 32.555 0 0 0 -.71 8.2z" fill="#74d74d"/><path d="m2.238 13.935c.145-.447 2.468-.259 4.54.293 2.5.666 7 2.344 11.651 8.606a12.544 12.544 0 0 1 1.85 7.166h-9.893a21.875 21.875 0 0 0 -.175-4.62 14.9 14.9 0 0 0 -2.459-7.158c-2.311-3.063-5.697-3.722-5.514-4.287z" fill="#78dc50"/><g fill="#fff"><path d="m17.3 21.323a1.753 1.753 0 1 1 -.513-1.24 1.748 1.748 0 0 1 .513 1.24z"/><path d="m21.975 21.323a1.753 1.753 0 1 1 -.513-1.24 1.748 1.748 0 0 1 .513 1.24z"/></g></svg>