<svg xmlns="http://www.w3.org/2000/svg" xmlns:xlink="http://www.w3.org/1999/xlink" viewBox="0 0 32 32"><title>file_type_libreoffice_calc</title><path fill="#2EB31A" d="M5.77 2h-.16c-.8.16-1 .5-.98 1.32v25.37c0 .91.4 1.31 1.3 1.31h20.13c.92 0 1.31-.4 1.31-1.31V12.98a1.77 1.77 0 0 0-.49-1.26L17.66 2.5A1.77 1.77 0 0 0 16.4 2H5.94a1.7 1.7 0 0 0-.17 0zM21.1 2a.9.9 0 0 0-.14.01c-.58.19-.78 1.08-.33 1.5l5.27 5.3c.49.46 1.46.06 1.49-.62V2.9a.92.92 0 0 0-.88-.88h-5.27a.9.9 0 0 0-.14 0z"/><path fill="#f3f3f3" d="M5.94 3.31V28.7h20.12V12.94L16.44 3.3z"/><path fill="#2EB31A" d="M8.78 14.25v11.38h13.13V14.24H9.22z"/><path fill="#92e285" d="M9.22 14.69h3.72v1.75H9.22zm4.16 0h3.93v1.75h-3.93zm4.37 0h3.72v1.75h-3.72z"/><path fill="#ccf4c6" d="M9.22 16.88h3.72v1.75H9.22zm8.53 0h3.72v1.75h-3.72zm-4.37 2.18h3.93v1.75h-3.93zm4.37 0h3.72v1.75h-3.72zm-8.53 0h3.72v1.75H9.22zm4.16 2.19h3.93V23h-3.93zm-4.16 0h3.72V23H9.22zm4.16 2.19h3.93v1.75h-3.93zm-4.16 0h3.72v1.75H9.22z"/><path fill="#868686" d="M14.25 20.38h8.53v6.12h-8.53z"/><path fill="#f3f3f3" d="M14.69 20.81h7.66v5.25h-7.66z"/><path fill="#18a303" d="M15.13 22.34h1.53v3.5h-1.53z"/><path fill="#87CCF3" d="M15.35 25.63h1.09v-3.07h-1.1z"/><path fill="#B2490C" d="M16.88 21.25h1.53v4.6h-1.53z"/><path fill="#F5B792" d="M17.1 25.63h1.09v-4.16h-1.1z"/><path fill="#c99c00" d="M18.63 23.66h1.53v2.18h-1.53z"/><path fill="#F9DC7E" d="M18.84 25.63h1.1v-1.75h-1.1z"/><path fill="#43c330" d="M20.38 22.78h1.53v3.06h-1.53z"/><path fill="#ADEEA3" d="M20.6 25.63h1.09V23h-1.1z"/><path fill="#ccf4c6" d="M13.38 16.88h3.93v1.75h-3.93z"/></svg>