<svg xmlns="http://www.w3.org/2000/svg" viewBox="0 0 32 32"><title>file_type_light_nx</title><path d="M15.985 18.494L12.433 12.942L12.427 17.607L6.306 7.301H2V24.699H6.258L6.272 14.406L12.33 24.237L15.985 18.494Z" fill="#143055"/><path d="M12.434 11.773H16.687L16.696 11.724V7.301H12.438L12.433 11.724L12.434 11.773Z" fill="#143055"/><path d="M23.259 16.6C22.7613 16.5892 22.2725 16.7335 21.8604 17.0128C21.4484 17.2921 21.1333 17.6927 20.959 18.159C21.2485 17.7258 21.677 17.4043 22.1739 17.2474C22.6707 17.0905 23.2062 17.1076 23.692 17.296C24.159 17.5736 24.7045 17.6895 25.244 17.626C25.0185 17.3095 24.7208 17.0513 24.3756 16.8729C24.0304 16.6944 23.6476 16.6009 23.259 16.6Z" fill="#96D8E9"/><path d="M28.085 18.69C28.085 18.169 27.801 18.048 27.212 17.834C26.71 17.7083 26.2589 17.4311 25.92 17.04C25.849 16.947 25.784 16.84 25.714 16.73C25.5579 16.4419 25.3465 16.1874 25.092 15.981C24.6853 15.7103 24.2018 15.5788 23.714 15.606C23.1406 15.6064 22.5801 15.7771 22.1039 16.0965C21.6276 16.4159 21.257 16.8696 21.039 17.4C21.3165 17.015 21.6902 16.7094 22.1226 16.5139C22.5551 16.3183 23.0312 16.2395 23.5036 16.2853C23.976 16.3311 24.4282 16.5 24.815 16.7751C25.2017 17.0501 25.5097 17.4218 25.708 17.853C25.806 18.0152 25.9542 18.1409 26.1302 18.2111C26.3062 18.2813 26.5003 18.2922 26.683 18.242C27.257 18.119 27.218 18.663 28.083 18.847L28.085 18.69Z" fill="#48C4E5"/><path d="M29.98 18.578V18.567C29.9804 16.8926 29.3245 15.2847 28.1531 14.0882C26.9817 12.8918 25.3881 12.2021 23.714 12.167C22.6761 12.1665 21.6543 12.424 20.7407 12.9164C19.8271 13.4089 19.0502 14.1207 18.48 14.988L18.458 14.95L16.685 12.167H12.434L16.474 18.494L12.531 24.7H16.661L18.461 21.94L20.29 24.7H24.42L20.675 18.8C20.6127 18.6853 20.5784 18.5575 20.575 18.427C20.5749 18.0147 20.656 17.6065 20.8137 17.2256C20.9714 16.8447 21.2026 16.4986 21.4941 16.2071C21.7856 15.9156 22.1317 15.6844 22.5126 15.5267C22.8935 15.369 23.3017 15.2879 23.714 15.288C24.2226 15.2636 24.7263 15.3971 25.156 15.6703C25.5857 15.9436 25.9204 16.3431 26.114 16.814C26.854 17.777 28.331 17.356 28.331 18.614C28.3326 18.7222 28.3556 18.829 28.3985 18.9284C28.4414 19.0277 28.5035 19.1176 28.5812 19.193C28.6589 19.2683 28.7506 19.3277 28.8512 19.3676C28.9518 19.4075 29.0593 19.4271 29.1675 19.4255C29.2757 19.4239 29.3825 19.4009 29.4819 19.358C29.5812 19.3151 29.6711 19.253 29.7465 19.1753C29.8218 19.0976 29.8812 19.0059 29.9211 18.9053C29.961 18.8047 29.9806 18.6972 29.979 18.589V18.589V18.576L29.98 18.578Z" fill="#143055"/><path d="M29.984 19.467C30.0263 19.7602 29.9847 20.0594 29.864 20.33C29.629 20.875 29.236 20.693 29.236 20.693C29.192 20.6742 29.1529 20.6457 29.1214 20.6097C29.0899 20.5737 29.067 20.531 29.0542 20.485C29.0414 20.4389 29.0392 20.3905 29.0476 20.3434C29.0561 20.2963 29.075 20.2518 29.103 20.213C29.331 19.861 29.782 19.9 29.984 19.467Z" fill="#143055"/></svg>