<svg viewBox="0 0 32 32" xmlns="http://www.w3.org/2000/svg"><path d="m7.339 27.544c-2.369-1.6-2.987-3.863-1.545-6.077 1.082-1.648 1.545-1.133 2.266 2.42a11.472 11.472 0 0 0 1.391 3.657c1.339 1.493.049 1.493-2.112 0z" fill="#d45500"/><path d="m17.433 27.7c-1.184-1.493-1.339-2.575-.566-4.532.515-1.442 3.3-3.09 4.429-2.678.618.258.618.1 0-1.133-1.236-2.42-2.627-3.3-5.974-3.656-2.627-.309-3.348-.618-4.378-1.906a7.871 7.871 0 0 1 -1.287-1.854c0-.618-1.8-.463-2.472.206a3.165 3.165 0 0 0 -.618 1.953c0 2.112-.567 2.215-2.421.412-2.42-2.369-2.368-4.635.258-7.107a34.041 34.041 0 0 0 3.244-3.605l1.391-1.8h4.532a47.087 47.087 0 0 1 6.54.412c2.369.515 5.459 3.193 7.365 6.437 1.287 2.163 1.442 2.987 1.545 7.313a24.658 24.658 0 0 0 .463 5.82c.567 1.39-.721 3.862-2.523 4.789a23.6 23.6 0 0 1 -7.361 2.266 3.46 3.46 0 0 1 -2.167-1.337zm4.584-6.128a.258.258 0 1 0 -.258.257.244.244 0 0 0 .258-.259z" fill="#d45500"/><path d="m9.451 28.471c-1.7-1.6-1.957-2.215-2.884-7.056-1.339-6.952-1.339-8.394.154-9.785 1.7-1.6 2.524-1.442 4.378.876 1.442 1.8 1.854 2.008 4.48 2.214 2.369.206 3.142.515 4.635 1.957a13.365 13.365 0 0 1 2.369 3.193c.515 1.288.464 1.648-.257 2.369-.876.824-.979.824-1.494.052-.412-.721-.772-.773-1.751-.309-1.39.618-2.06 3.347-1.236 4.944.515.875.412 1.184-.618 1.854a10.739 10.739 0 0 1 -3.553 1.081c-2.163.309-2.524.206-4.223-1.39z" fill="#deaa87"/></svg>