<?xml version="1.0" encoding="UTF-8" standalone="no"?>
<svg version="1.0" id="svg2" width="84.130821pt" height="90.748108pt" xmlns:xlink="http://www.w3.org/1999/xlink" xmlns="http://www.w3.org/2000/svg" xmlns:svg="http://www.w3.org/2000/svg" xmlns:rdf="http://www.w3.org/1999/02/22-rdf-syntax-ns#" xmlns:cc="http://creativecommons.org/ns#" xmlns:dc="http://purl.org/dc/elements/1.1/">
  <metadata id="metadata371">
    <rdf:RDF>
      <cc:Work rdf:about="">
        <dc:format>image/svg+xml</dc:format>
        <dc:type rdf:resource="http://purl.org/dc/dcmitype/StillImage" />
      </cc:Work>
    </rdf:RDF>
  </metadata>
  <defs id="defs4">
    <linearGradient id="linearGradient1172">
      <stop style="stop-color:#e94475;stop-opacity:1;" offset="0" id="stop1168" />
      <stop style="stop-color:#e94475;stop-opacity:0;" offset="1" id="stop1170" />
    </linearGradient>
    <linearGradient id="linearGradient1164">
      <stop style="stop-color:#2298d3;stop-opacity:1;" offset="0" id="stop1160" />
      <stop style="stop-color:#2298d3;stop-opacity:0;" offset="1" id="stop1162" />
    </linearGradient>
    <linearGradient id="linearGradient2795">
      <stop style="stop-color:#b8b8b8;stop-opacity:0.49803922;" offset="0" id="stop2797" />
      <stop style="stop-color:#7f7f7f;stop-opacity:0;" offset="1" id="stop2799" />
    </linearGradient>
    <linearGradient id="linearGradient2787">
      <stop style="stop-color:#7f7f7f;stop-opacity:0.5;" offset="0" id="stop2789" />
      <stop style="stop-color:#7f7f7f;stop-opacity:0;" offset="1" id="stop2791" />
    </linearGradient>
    <linearGradient id="linearGradient3676">
      <stop style="stop-color:#b2b2b2;stop-opacity:0.5;" offset="0" id="stop3678" />
      <stop style="stop-color:#b3b3b3;stop-opacity:0;" offset="1" id="stop3680" />
    </linearGradient>
    <linearGradient id="linearGradient3236">
      <stop style="stop-color:#f4f4f4;stop-opacity:1" offset="0" id="stop3244" />
      <stop style="stop-color:white;stop-opacity:1" offset="1" id="stop3240" />
    </linearGradient>
    <linearGradient id="linearGradient4671">
      <stop style="stop-color:#ffd43b;stop-opacity:1;" offset="0" id="stop4673" />
      <stop style="stop-color:#ffe873;stop-opacity:1" offset="1" id="stop4675" />
    </linearGradient>
    <linearGradient id="linearGradient4689">
      <stop style="stop-color:#5a9fd4;stop-opacity:1;" offset="0" id="stop4691" />
      <stop style="stop-color:#306998;stop-opacity:1;" offset="1" id="stop4693" />
    </linearGradient>
    <linearGradient x1="224.23996" y1="144.75717" x2="-65.308502" y2="144.75717" id="linearGradient2987" xlink:href="#linearGradient4671" gradientUnits="userSpaceOnUse" gradientTransform="translate(100.2702,99.61116)" />
    <linearGradient x1="172.94208" y1="77.475983" x2="26.670298" y2="76.313133" id="linearGradient2990" xlink:href="#linearGradient4689" gradientUnits="userSpaceOnUse" gradientTransform="translate(100.2702,99.61116)" />
    <linearGradient xlink:href="#linearGradient4689" id="linearGradient2587" gradientUnits="userSpaceOnUse" gradientTransform="translate(100.2702,99.61116)" x1="172.94208" y1="77.475983" x2="26.670298" y2="76.313133" />
    <linearGradient xlink:href="#linearGradient4671" id="linearGradient2589" gradientUnits="userSpaceOnUse" gradientTransform="translate(100.2702,99.61116)" x1="224.23996" y1="144.75717" x2="-65.308502" y2="144.75717" />
    <linearGradient xlink:href="#linearGradient4689" id="linearGradient2248" gradientUnits="userSpaceOnUse" gradientTransform="translate(100.2702,99.61116)" x1="172.94208" y1="77.475983" x2="26.670298" y2="76.313133" />
    <linearGradient xlink:href="#linearGradient4671" id="linearGradient2250" gradientUnits="userSpaceOnUse" gradientTransform="translate(100.2702,99.61116)" x1="224.23996" y1="144.75717" x2="-65.308502" y2="144.75717" />
    <linearGradient xlink:href="#linearGradient4671" id="linearGradient2255" gradientUnits="userSpaceOnUse" gradientTransform="matrix(0.562541,0,0,0.567972,-11.5974,-7.60954)" x1="224.23996" y1="144.75717" x2="-65.308502" y2="144.75717" />
    <linearGradient xlink:href="#linearGradient4689" id="linearGradient2258" gradientUnits="userSpaceOnUse" gradientTransform="matrix(0.562541,0,0,0.567972,-11.5974,-7.60954)" x1="172.94208" y1="76.176224" x2="26.670298" y2="76.313133" />
    <radialGradient xlink:href="#linearGradient2795" id="radialGradient2801" cx="61.518883" cy="132.28575" fx="61.518883" fy="132.28575" r="29.036913" gradientTransform="matrix(1,0,0,0.177966,0,108.7434)" gradientUnits="userSpaceOnUse" />
    <radialGradient xlink:href="#linearGradient2795" id="radialGradient1480" gradientUnits="userSpaceOnUse" gradientTransform="matrix(1.7490565e-8,-0.23994696,1.054668,3.7915457e-7,-87.13872,142.58739)" cx="61.518883" cy="132.28575" fx="61.518883" fy="132.28575" r="29.036913" />
    <linearGradient xlink:href="#linearGradient1164" id="linearGradient1166" x1="59.208981" y1="60.169907" x2="-6.5998244" y2="-9.742218" gradientUnits="userSpaceOnUse" gradientTransform="translate(4.4510023,8.4830954)" />
    <linearGradient xlink:href="#linearGradient1172" id="linearGradient1176" gradientUnits="userSpaceOnUse" x1="62.819145" y1="80.242294" x2="85.994324" y2="141.19186" gradientTransform="translate(-4.5782886,2.2114161)" />
  </defs>
  <path style="fill:url(#linearGradient1176);fill-opacity:1" d="m 86.650617,37.265639 v 11.90625 c 0,9.230755 -7.825895,16.999999 -16.75,17 h -26.78125 c -7.335833,0 -13.406249,6.278483 -13.40625,13.625 v 25.531251 c 0,7.26634 6.318588,11.54032 13.40625,13.625 8.487331,2.49561 16.626237,2.94663 26.78125,0 6.750155,-1.95439 13.406253,-5.88761 13.40625,-13.625 V 95.109391 h -26.78125 v -3.406252 h 26.78125 13.406252 c 7.792461,0 10.696251,-5.435408 13.406241,-13.59375 2.79933,-8.398886 2.68022,-16.475776 0,-27.25 -1.92578,-7.757441 -5.60387,-13.59375 -13.406241,-13.59375 z m -15.0625,64.656251 c 2.779478,0 5.03125,2.27742 5.03125,5.09375 -2e-6,2.82635 -2.251775,5.125 -5.03125,5.125 -2.76955,0 -5.03125,-2.29865 -5.03125,-5.125 2e-6,-2.81633 2.261697,-5.09375 5.03125,-5.09375 z" id="path1950" />
  <path style="opacity:0.44382;fill:url(#radialGradient1480);fill-opacity:1;fill-rule:nonzero;stroke:none;stroke-width:15.4174;stroke-miterlimit:4;stroke-dasharray:none;stroke-opacity:1" id="path1894" cx="52.378834" cy="127.82616" rx="35.930977" ry="6.9673119" d="" />
  <g id="g1737" transform="translate(-9.0292909,-6.2716793)">
    <g id="g1730" transform="translate(4.4510023,8.4830954)">
      <path id="path1948-3" style="fill:url(#linearGradient1166);fill-opacity:1" d="m 99.685547,6.2734375 c -0.102952,-0.00718 -0.220188,0.00722 -0.353516,0.050781 -1.70378,1.918513 -3.703162,3.9667245 -6.375,4.3222655 -2.143806,0.362582 -4.232714,1.032974 -6.408203,1.208985 -3.048499,0.214732 -6.201762,1.378832 -8.148437,3.835937 l 0.207031,0.236328 c -1.064258,-0.173925 -2.121572,-0.321452 -3.158203,-0.451172 -0.145922,-0.01752 0.745122,-1.605633 0.0332,-1.458984 l -0.859375,0.177734 c 0,0 0.420096,-0.986768 0.257812,-1.298828 -0.445426,0.133937 -1.310547,1.484375 -1.310547,1.484375 0,0 -0.492542,-0.726562 -0.849609,-0.726562 -0.23784,0.415971 0.0957,1.548828 0.0957,1.548828 -2.395946,-0.21208 -4.763638,-0.298739 -6.99414,-0.322266 -0.287915,-0.0016 -0.57485,-0.0013 -0.861328,0 -4.583653,0.0213 -8.960939,0.412218 -12.8125,1.09375 -11.346213,2.004504 -13.406249,6.200102 -13.40625,13.9375 v 10.21875 h 26.8125 v 3.40625 h -26.8125 -10.0625 c -4.494483,0 -8.660959,1.567226 -11.796876,4.595703 -0.842013,-0.954064 -1.944249,-1.658525 -3.138671,-2.126953 0.29901,1.064606 0.578258,2.136123 0.96289,3.173829 -2.018313,-0.0049 -4.051367,0.427645 -5.6777341,1.693359 1.2506111,0.281525 2.5428411,0.571822 3.8203121,0.236328 -1.121609,0.539076 -1.953468,1.496565 -2.324218,2.679687 0.850844,0.11162 1.72264,0.140946 2.546875,-0.07617 -0.45977,1.062203 -0.849748,2.195458 -1.142578,3.417968 -2.4618205,10.212966 -2.5710155,16.586022 0,27.25 1.905927,7.937852 6.457543,13.593747 14.25,13.59375 h 9.21875 v -12.25 c 0,-8.849903 7.657144,-16.656249 16.75,-16.65625 h 26.78125 c 7.454953,0 13.40625,-6.138164 13.40625,-13.625 V 31.623047 l 0.05664,0.06445 c -0.03783,-0.07436 -0.04133,-0.134224 -0.05664,-0.199219 v -0.285156 c 0.168668,-0.56624 1.31413,-0.722842 1.748046,-1.142578 0.432986,-0.932855 -0.797368,-1.23764 -1.318359,-1.730469 1.175749,-0.443547 2.380438,-0.94026 3.302734,-1.820312 0.366105,-0.288657 0.510473,-0.858848 0.267579,-1.263672 -0.461147,-0.401304 -1.038376,-0.626586 -1.566407,-0.908203 1.788266,-1.084224 2.446548,-3.150623 3.597657,-4.773438 0.436505,-0.577314 -0.01,-1.083889 -0.457032,-1.457031 0.865971,-1.158148 1.732185,-2.320299 2.51367,-3.53125 -0.088,-0.214733 -0.2616,-0.650502 -0.34961,-0.865234 -0.499867,0.17249 -0.993111,0.35483 -1.482419,0.544921 1.481959,-1.805866 0.413459,-4.249023 1.476559,-6.1992184 0.3419,-0.5636732 0.33785,-1.7329576 -0.382809,-1.7832031 z M 97.40625,11.478516 c 0.320338,1.721381 -1.524248,2.635657 -2.101562,4.050781 -0.550844,3.427123 -1.522388,7.085387 -3.882813,9.720703 -0.294443,0.328733 -0.607605,0.645081 -0.947266,0.939453 -0.18481,0.12321 -0.372894,0.311584 -0.576171,0.447266 -0.152458,0.101761 -0.312427,0.174339 -0.488282,0.166015 -0.05862,-0.0028 -0.119596,-0.01467 -0.18164,-0.03711 -0.9575,-0.46819 -1.742503,-1.322912 -2.101563,-2.326172 0.04908,-0.138909 0.114472,-0.261611 0.191406,-0.371094 0,0 0,-0.002 0,-0.002 0.231747,-0.329042 0.574293,-0.542044 0.931641,-0.740234 0.08732,-0.04841 0.171997,-0.100281 0.259766,-0.148438 0.2718,-0.149128 0.543852,-0.299018 0.765625,-0.503906 0.09782,-0.09036 0.187106,-0.191161 0.263671,-0.304687 -0.97158,-0.0352 -1.895274,0.275526 -2.828124,0.472656 -0.119691,-0.10561 -0.35492,-0.314312 -0.47461,-0.419922 0.536491,-0.74544 1.052598,-1.506825 1.527344,-2.294922 0.117117,-0.194418 0.246107,-0.380858 0.355469,-0.580078 -0.240472,0.06971 -0.474567,0.159639 -0.707032,0.257813 -0.0045,0.0019 -0.0091,0.0039 -0.01367,0.0059 -0.443564,0.188207 -0.877181,0.410506 -1.3125,0.625 -0.116227,0.05716 -0.232744,0.113471 -0.34961,0.167969 -0.09587,0.0448 -0.192447,0.08706 -0.289062,0.128906 -0.26793,0.115787 -0.540584,0.215149 -0.81836,0.292969 -0.121174,0.03401 -0.243306,0.06419 -0.367187,0.08789 -0.05594,0.01069 -0.1114,0.02294 -0.167969,0.03125 -0.188928,0.0278 -0.381083,0.04586 -0.578125,0.04297 -0.143447,-0.229692 -0.181681,-0.449832 -0.146484,-0.658203 0.01739,-0.104271 0.05378,-0.205165 0.103515,-0.302735 0,0 0,-0.002 0,-0.002 0.04965,-0.09703 0.114027,-0.189816 0.1875,-0.279297 0.147841,-0.179703 0.336765,-0.344593 0.53125,-0.488281 0.194486,-0.143687 0.395183,-0.266862 0.570313,-0.367187 0.172784,-0.123786 0.375762,-0.220081 0.585937,-0.308594 0.137006,-0.05852 0.275408,-0.116736 0.414063,-0.173828 0,0 0.002,0 0.002,0 0.516354,-0.212693 1.001808,-0.457447 1.148437,-1.029297 -0.81994,-0.05819 -1.597319,0.08329 -2.353515,0.318359 -0.283564,0.08815 -0.56319,0.191355 -0.841797,0.300782 -0.769837,0.302023 -1.5277,0.644832 -2.291016,0.953125 l -0.93164,-1.064453 c 0.0087,-0.0352 0.01427,-0.07046 0.02539,-0.105469 0.01453,-0.04768 0.03217,-0.09533 0.05078,-0.142578 0.185558,-0.453649 0.548556,-0.882505 0.935547,-1.228516 0.0034,-0.003 0.0064,-0.0068 0.0098,-0.0098 0.134061,-0.119264 0.266889,-0.252431 0.398437,-0.347656 3.653976,-2.752802 8.487097,-2.320298 12.697266,-3.53125 1.01382,-0.239374 1.710698,-1.221066 2.794922,-1.242187 z M 50.460938,23.099609 c 2.769547,0 5.03125,2.298645 5.03125,5.125 -3e-6,2.816335 -2.261704,5.09375 -5.03125,5.09375 -2.779477,-2e-6 -5.03125,-2.277417 -5.03125,-5.09375 -10e-7,-2.826354 2.251774,-5.125001 5.03125,-5.125 z" transform="translate(-4.4510023,-8.4830954)" />
    </g>
    <g id="#ff85a9ff" style="fill:#71c7f2;fill-opacity:1" transform="matrix(-0.1693243,-0.30862258,0.30862258,-0.1693243,53.012806,331.96602)" />
  </g>
  <path fill="#fcaecb" opacity="1" d="m 47.040605,27.685851 c 0.883033,-0.318546 1.138199,1.220923 0.374207,1.478022 -1.051411,0.530587 -2.213064,0.825477 -3.219462,1.451041 -0.472973,0.214943 -0.929213,0.661073 -1.485282,0.537967 -0.395136,-0.323442 -0.553878,-0.830385 -0.7383,-1.284502 -0.101805,-0.294394 -0.198547,-0.587833 -0.29529,-0.881272 -1.390197,0.367163 -2.564716,1.272963 -3.92993,1.660559 -0.715067,-0.517389 -0.670659,-1.56008 -1.018589,-2.314972 -0.962745,0.463416 -1.890344,1.0881 -2.968652,1.246667 -0.658818,0.130131 -1.00723,-0.983941 -0.373469,-1.231499 0.933324,-0.474201 1.920504,-0.830792 2.841355,-1.336175 0.469633,-0.197225 1.06733,-0.642917 1.546402,-0.222409 0.320342,0.636989 0.437451,1.351018 0.637503,2.028251 1.291769,-0.54035 2.543954,-1.232316 3.902016,-1.581943 0.761028,0.245591 0.65664,1.300572 0.909737,1.932755 0.01086,0.06757 0.03512,0.203196 0.04597,0.270769 1.267265,-0.563313 2.515892,-1.166833 3.771784,-1.753259 z" id="path32-9-7" style="stroke-width:0.257578" />
  <style type="text/css" id="style1355">
	.st0{fill:#FF592E;}
</style>
  <g id="Page-1" transform="matrix(-0.03744933,0.30867339,-0.30867339,-0.03744933,30.261693,29.854125)" style="fill:#e94475;fill-opacity:1">
    <g id="iPhone-8" transform="translate(-175,-452)" style="fill:#e94475;fill-opacity:1">
      <path id="Path" class="st0" d="m 181.7,453 c 0,0 8.6,13.6 5.7,30.5 -0.8,4.4 -5.7,15.4 -12.5,19.7 0,0 10.35492,-1.49404 11.8,-9.1 0.1,5.8 -0.35733,10.56771 -3.44598,16.50782 0,0 5.82793,-3.96089 6.13358,-10.59476 C 189.86305,494.53871 190.1,488 191.4,482.5 195.1,465.8 188,452.2 188,452.2 Z" style="fill:#e94475;fill-opacity:1" />
    </g>
  </g>
  <g id="#ff85a9ff-2" style="fill:#71c7f2;fill-opacity:1" transform="matrix(0.35202076,0,0,0.35202076,56.004329,-372.10777)" />
  <path fill="#e94475" opacity="1" d="m 85.58094,6.4501887 c 1.01382,-0.23937 1.71083,-1.22151 2.79505,-1.24263 0.32034,1.72138 -1.52425,2.63663 -2.10156,4.05176 -0.61956,3.8546203 -1.76715,8.0049503 -4.82973,10.6591803 -0.36962,0.24642 -0.7498,0.75685 -1.24615,0.57732 -0.9575,-0.46819 -1.74251,-1.3236 -2.10157,-2.32686 0.39427,-1.1159 1.79883,-1.16167 2.41135,-2.06988 -0.97158,-0.0352 -1.89388,0.27458 -2.82673,0.47171 -0.11969,-0.10561 -0.35554,-0.3133 -0.47523,-0.41891 0.66884,-0.92933 1.250771,-1.895815 1.88331,-2.87601 -1.508665,0.503848 -2.92177,1.66506 -4.60443,1.64042 -0.57379,-0.91877 0.54563,-1.69674 1.24615,-2.09804 0.70757,-0.50691 1.841712,-0.572855 2.15085,-1.51017 -2.18253,-0.15489 -4.06584,1.09478 -6.04068,1.80234 -1.08422,-1.07718 0.0986,-2.44654 1.04199,-3.1294603 3.65397,-2.7528 8.48722,-2.31982 12.69738,-3.53077 z" id="path5-1-4" style="fill:#3873a3;fill-opacity:1;stroke-width:0.352021" />
</svg>