<svg xmlns="http://www.w3.org/2000/svg" viewBox="0 0 32 32"><title>file_type_glyphs</title><path d="M18.254,30C6.676,30,2,25.952,2,16.028,2,6.214,6.9,2,18.366,2a66.407,66.407,0,0,1,9.964.721L30,2.943,28.942,13.588h.835V28.78l-1.391.277A56.94,56.94,0,0,1,18.254,30Z" style="fill:#d2d2d2"/><path d="M18.032,18.523h-.724c-1.447,0-2.115-.776-2.115-2.717,0-2.107.89-2.661,4.787-2.661,2.115,0,4.4.166,7.181.443l.891-9.2a66.537,66.537,0,0,0-9.686-.665c-10.688,0-14.64,3.437-14.64,12.309,0,9.037,3.9,12.253,14.473,12.253a50.2,50.2,0,0,0,9.8-.942V15.307H17.976v3.216Z" style="fill:#18944a"/></svg>