<svg xmlns="http://www.w3.org/2000/svg" viewBox="0 0 32 32"><title>file_type_njsproj</title><path d="M29.821,4.321,24.023,2,11.493,14.212,3.833,8.385l-1.654.837V22.8l1.644.827,7.65-5.827L24.023,30l5.8-2.321V4.321ZM4.65,19.192V12.818L8.2,15.985ZM16,15.985l7.082-5.3V21.324l-7.092-5.339Z" style="fill:#68217a"/><polygon points="15.995 15.985 23.077 10.686 23.077 21.324 15.985 15.985 15.995 15.985" style="fill:#fff"/><polygon points="4.65 19.192 4.65 12.818 8.196 15.985 4.65 19.192" style="fill:#fff"/><path d="M25.9,32.029a6.842,6.842,0,0,1-6.4-3.658l-.6-1.189,3.826-2.223A5.233,5.233,0,0,1,20.2,20.305c0-2.976,2.329-5.135,5.539-5.135a5.568,5.568,0,0,1,5.236,2.971l.661,1.163-3.277,2.105c1.895.938,3.628,2.324,3.628,5.28C31.983,29.884,29.538,32.029,25.9,32.029Zm-1.549-6.216a1.587,1.587,0,0,0,1.484.891,1.52,1.52,0,0,0,.374-.041,11.343,11.343,0,0,0-1.078-.515l-.7-.3Zm-9.319,6.21a5.77,5.77,0,0,1-5.505-3.383L8.983,27.49l4.629-2.8.716,1.268c.413.732.477.732.584.732l.075,0a2.385,2.385,0,0,0,.023-.358v-11h5.642V26.365C20.652,29.855,18.5,32.024,15.032,32.024Z" style="fill:#efeef0"/><path d="M13.1,26.649c.443.786.846,1.45,1.814,1.45.926,0,1.51-.362,1.51-1.771V16.743h2.818v9.622c0,2.918-1.711,4.247-4.209,4.247A4.375,4.375,0,0,1,10.8,28.038Z" style="fill:#83cd29"/><path d="M23.055,26.4a3.07,3.07,0,0,0,2.78,1.712c1.168,0,1.914-.584,1.914-1.39,0-.966-.767-1.309-2.052-1.871l-.7-.3c-2.034-.866-3.385-1.952-3.385-4.247,0-2.114,1.611-3.723,4.128-3.723a4.166,4.166,0,0,1,4.009,2.257l-2.195,1.409a1.917,1.917,0,0,0-1.814-1.208,1.226,1.226,0,0,0-1.349,1.208c0,.846.524,1.188,1.733,1.712l.7.3c2.395,1.027,3.747,2.074,3.747,4.428,0,2.538-1.993,3.928-4.671,3.928a5.415,5.415,0,0,1-5.136-2.882Z" style="fill:#83cd29"/></svg>