<svg xmlns="http://www.w3.org/2000/svg" viewBox="0 0 32 32"><title>file_type_falcon</title><path d="M21.15,3.76c-1.33.84-3.24,2.1-5.75,3.77A63.58,63.58,0,0,0,9.15,12C8.29,12.9,7.6,15.2,6,17.17a25.46,25.46,0,0,1-3.43,3.52A10.5,10.5,0,0,0,6,19.38a13.49,13.49,0,0,0,3.56-3,19.52,19.52,0,0,1,1.45-2c1.26-1.2,5.69-3,8.39-3.85s3.32-.34,6-.84a10.54,10.54,0,0,0,3.61-1.11L31,2.5,21.15,6.13Z" style="fill:#e24329"/><path d="M31,10.16l-3.76,6.56h-3L16,15.06V14l3.83-2.34,2.8-.45ZM12.66,16.78l-.33,3.31-1.75.52L8.75,20Z" style="fill:#fc6d26"/><path d="M2.57,21.4a2.72,2.72,0,0,0-.3,1.11C2.27,23,1,23.26,1,24.78a3.9,3.9,0,0,0,2,3.1L5.65,29.5a3.79,3.79,0,0,1-.33-1.85,1.62,1.62,0,0,1,.84-1.45c.72-.57,7.26-1.7,9.21-1.42a6.26,6.26,0,0,1,3.61,2l8.77-6.5L25.47,18.2H24l-2.07-1H15.91l-2.52,5.28c-3.38-.16-5.4-.28-6.08-.36S5.06,21.82,2.57,21.4Z" style="fill:#fca326"/></svg>
