<svg xmlns="http://www.w3.org/2000/svg" viewBox="0 0 32 32"><title>file_type_databricks</title><path d="M3.082,9.3v0.844L16.003,17.432l11.539-6.518,0,2.635L16.003,20.106,3.733,13.134l-0.651,.362V18.539L16.003,25.811l11.539-6.494,0,2.612L16.003,28.488,3.733,21.515l-0.651,.362v.855L16.003,30.003l12.919-7.27V17.685l-0.659-.359L16.003,24.297,4.461,17.739V15.14L16.003,21.626,28.924,14.356V9.379l-0.659-.361L16.003,15.993,5.054,9.769,16.003,3.585l9.019,5.096,.789-.443V7.542L16.003,2.004Z" style="fill:#ff3621"/></svg>