<svg xmlns="http://www.w3.org/2000/svg" viewBox="0 0 32 32"><title>file_type_coffeescript</title><path d="M12.8,5.877a1.688,1.688,0,0,0-.641-.226c-.664-.105-1.7-.094-2.031.418-.224.345.1.611.341.753a3.194,3.194,0,0,0,2.044.038,4.446,4.446,0,0,0,1.433-.581c.665-.44,1.769-1.065,1.738-1.067a8.087,8.087,0,0,1,3.908-.741,8.764,8.764,0,0,1,1.906.209,3.389,3.389,0,0,1,1.565.876,1.527,1.527,0,0,1,.427,1.252c-.071.565-.507.969-1.237,1.24a7.606,7.606,0,0,1-2.96.305c-2-.169-2.455-1.519-.811-1.724.808,1.677,5.117.369,3.009-.664-1.225-.563-3.67.089-3.67.089a20.69,20.69,0,0,0-2.821,1.367,4.465,4.465,0,0,1-1.625.56,6.362,6.362,0,0,1-1.071.072,4.649,4.649,0,0,1-.936-.1c-2.684-.6-2.085-2.005-2.085-2.005s0-.7,1.486-.932a4.153,4.153,0,0,1,1.883.044.861.861,0,0,1,.414.262c.232.244-.254.552-.262.549ZM3.657,10.743a29.755,29.755,0,0,0,1.035,4.224,5.707,5.707,0,0,0-1.609,1.472,5.466,5.466,0,0,0-.9,4.547,4.059,4.059,0,0,0,2.4,2.784A4.3,4.3,0,0,0,8.3,23.588a5.39,5.39,0,0,1-3.467-1.964,4.781,4.781,0,0,1-.851-2.406,3.794,3.794,0,0,1,1.076-3.137l.028-.028a22.869,22.869,0,0,0,1.033,2.276H6.1l2.971,4.317a9.559,9.559,0,0,1,.9,2.376c.015,0,.534,1.234,2.864,1.964a12.3,12.3,0,0,0,4.251.539c5.97-.22,6.455-2.587,6.691-2.5a7.645,7.645,0,0,1,.874-2.478l2.622-3.78L27.8,17.74a25.611,25.611,0,0,0,1.956-5.79c.14-.621.258-1.23.141-1.106-.617.653-1.388,1.461-5.373,2.081a40.713,40.713,0,0,1-7.76.627C4.58,13.3,3.656,10.744,3.656,10.744ZM8.3,23.728c.179-.044.235-.191.146-.187C8.425,23.541,8.373,23.615,8.3,23.728ZM5.655,6.5a1.076,1.076,0,0,0,.1,1.967,12.534,12.534,0,0,0,3.97,1.277,45.885,45.885,0,0,0,9.912.485c.886-.033,6.1-.524,7.865-1.456C28.93,8.02,29.08,7.6,28.526,6.809c2.909,1.4.753,2.575-.05,2.963a11.855,11.855,0,0,1-2.447.766,33.334,33.334,0,0,1-8.489.971A40.523,40.523,0,0,1,6.878,10.385c-1.4-.472-3.137-.8-3.421-2.12.067-.9,1.158-1.325,2.2-1.762Z" style="fill:#28334c"/></svg>