<svg id="Layer_2" data-name="Layer 2" xmlns="http://www.w3.org/2000/svg" xmlns:xlink="http://www.w3.org/1999/xlink" viewBox="0 0 32 32"><defs><linearGradient id="linear-gradient" x1="6.61" y1="28.32" x2="22.87" y2="2.68" gradientTransform="matrix(1, 0, 0, -1, 0, 31.89)" gradientUnits="userSpaceOnUse"><stop offset="0.08" stop-color="#54c8f1"/><stop offset="0.57" stop-color="#41a2ef"/><stop offset="1" stop-color="#3386ee"/></linearGradient><linearGradient id="linear-gradient-2" x1="4.13" y1="26.75" x2="20.39" y2="1.11" xlink:href="#linear-gradient"/><linearGradient id="linear-gradient-3" x1="8.72" y1="29.65" x2="24.97" y2="4.01" xlink:href="#linear-gradient"/><linearGradient id="linear-gradient-4" x1="-2.71" y1="22.41" x2="13.54" y2="-3.23" xlink:href="#linear-gradient"/></defs><path d="M16.58,6.91A4.93,4.93,0,0,0,11.66,2,4.35,4.35,0,0,0,7.08,6.21H9.9A1.58,1.58,0,0,1,11.66,4.8a2.12,2.12,0,0,1,2.11,2.11c0,1.17-.85,2.12-3,2.12H3.11v2.81h7.66C14.39,11.84,16.58,9.63,16.58,6.91Zm0,0A4.93,4.93,0,0,0,11.66,2,4.35,4.35,0,0,0,7.08,6.21H9.9A1.58,1.58,0,0,1,11.66,4.8a2.12,2.12,0,0,1,2.11,2.11c0,1.17-.85,2.12-3,2.12H3.11v2.81h7.66C14.39,11.84,16.58,9.63,16.58,6.91Z" style="fill:url(#linear-gradient)"/><path d="M22.83,25.09A4.93,4.93,0,0,1,17.9,30a4.35,4.35,0,0,1-4.57-4.22h2.81A1.59,1.59,0,0,0,17.9,27.2,2.11,2.11,0,0,0,20,25.09C20,23.92,18.94,23,17,23H8.51V20.16H17C20.64,20.16,22.83,22.37,22.83,25.09Zm0,0A4.93,4.93,0,0,1,17.9,30a4.35,4.35,0,0,1-4.57-4.22h2.81A1.59,1.59,0,0,0,17.9,27.2,2.11,2.11,0,0,0,20,25.09C20,23.92,18.94,23,17,23H8.51V20.16H17C20.64,20.16,22.83,22.37,22.83,25.09Z" style="fill:url(#linear-gradient-2)"/><path d="M23.57,6.33a5.22,5.22,0,0,0-5.3,5.47h2.49a2.62,2.62,0,0,1,2.81-2.67,2.39,2.39,0,0,1,2.52,2.67c0,1.54-1.09,2.81-4.06,2.81H3.11v2.82H22.45c4.4,0,6.44-2.83,6.44-5.63A5.17,5.17,0,0,0,23.57,6.33Z" style="fill:url(#linear-gradient-3)"/><path d="M6.8,20.16H3.11V23H6.8Z" style="fill:url(#linear-gradient-4)"/></svg>