<svg xmlns="http://www.w3.org/2000/svg" viewBox="0 0 32 32"><title>file_type_mariadb</title><path d="M29.386,6.7c-.433.014-.3.139-1.231.369a18.911,18.911,0,0,0-3.114.588c-3.035,1.273-3.644,5.624-6.4,7.182-2.063,1.165-4.143,1.258-6.014,1.844a11,11,0,0,0-3.688,2.136c-.865.745-.887,1.4-1.791,2.336-.966,1-3.841.017-5.143,1.547.42.424.6.543,1.431.433-.171.325-1.18.6-.983,1.075.208.5,2.648.843,4.866-.5,1.033-.624,1.856-1.523,3.465-1.737a26.674,26.674,0,0,1,6.89.526,10.738,10.738,0,0,1-1.65,2.623c-.178.192.357.213.968.1a9.644,9.644,0,0,0,2.72-.973c1.019-.593,1.173-2.114,2.423-2.443a2.8,2.8,0,0,0,3.766.467c-1.031-.292-1.316-2.487-.968-3.455.33-.916.656-2.381.988-3.591.357-1.3.488-2.939.92-3.6a8.517,8.517,0,0,1,1.99-1.9A2.792,2.792,0,0,0,30,7.336c-.006-.414-.22-.645-.614-.632Z" style="fill:#002b64"/><path d="M2.9,24.122a6.216,6.216,0,0,0,3.809-.55,34.319,34.319,0,0,1,3.4-1.842c1.872-.6,3.924,0,5.925.121a8.616,8.616,0,0,0,1.449-.022c.745-.458.73-2.172,1.455-2.329a8.263,8.263,0,0,1-2.038,5.24,5.835,5.835,0,0,0,4.351-3.319,12.259,12.259,0,0,0,.7-1.63c.311.239.135.965.291,1.358,1.5-.834,2.353-2.736,2.921-4.66.656-2.227.925-4.481,1.349-5.14A5.608,5.608,0,0,1,28.142,9.9,2.625,2.625,0,0,0,29.507,8.05c-.7-.065-.866-.228-.97-.582a2.1,2.1,0,0,1-1.042.252c-.317.01-.666,0-1.092.039-3.523.362-3.971,4.245-6.229,6.447a5.3,5.3,0,0,1-.53.45,11.107,11.107,0,0,1-2.653,1.352c-1.444.552-2.817.591-4.172,1.067A12.5,12.5,0,0,0,10,18.49c-.2.14-.4.283-.574.428a5.62,5.62,0,0,0-1.1,1.275,8.473,8.473,0,0,1-1.079,1.389c-.749.735-3.546.214-4.531.9a.8.8,0,0,0-.256.276c.537.244.9.094,1.514.163.081.587-1.275.935-1.075,1.205Z" style="fill:#c49a6c"/><path d="M25.231,9.216a.832.832,0,0,0,1.358-.776C25.814,8.375,25.365,8.638,25.231,9.216Z" style="fill:#002b64"/><path d="M28.708,8.209a2.594,2.594,0,0,0-.387,1.345c0,.122-.092.2-.094.017a2.649,2.649,0,0,1,.385-1.385C28.7,8.026,28.757,8.092,28.708,8.209Z" style="fill:#002b64"/><path d="M28.574,8.1a3.2,3.2,0,0,0-.6,1.455c-.012.121-.11.2-.095.009a3.263,3.263,0,0,1,.6-1.495C28.585,7.921,28.634,7.992,28.574,8.1Z" style="fill:#002b64"/><path d="M28.453,7.965a3.785,3.785,0,0,0-.88,1.531c-.022.119-.126.186-.1,0a3.928,3.928,0,0,1,.885-1.57C28.479,7.784,28.521,7.859,28.453,7.965Z" style="fill:#002b64"/><path d="M28.344,7.81A5.223,5.223,0,0,0,27.223,9.45c-.039.115-.151.167-.095-.012A5.193,5.193,0,0,1,28.26,7.76c.135-.126.167-.045.084.051Z" style="fill:#002b64"/></svg>