<svg fill="none" version="1.1" viewBox="0 0 32 32" xmlns="http://www.w3.org/2000/svg"><g stroke-width=".5"><path d="m25 22h2c0.552 0 1 0.448 1 1v3c0 0.552-0.448 1-1 1h-2z" fill="url(#g)"/><path d="m25 16h2c0.552 0 1 0.448 1 1v3c0 0.552-0.448 1-1 1h-2z" fill="url(#f)"/><path d="m25 10h2c0.552 0 1 0.448 1 1v3c0 0.552-0.448 1-1 1h-2z" fill="url(#e)"/><path d="m25 4h2c0.552 0 1 0.448 1 1v3c0 0.552-0.448 1-1 1h-2z" fill="url(#d)"/><path d="m4 22v6c0 1.1 0.9 2 2 2h18c1.1 0 2-0.9 2-2v-6z" fill="url(#c)"/></g><path d="m4.5 28v-5.5h21v5.5c0 0.8238-0.6762 1.5-1.5 1.5h-18c-0.8238 0-1.5-0.6762-1.5-1.5z" stroke="url(#b)"/><path d="m26 5v19c0 1.1-0.9 2-2 2h-18c-1.1 0-2 0.9-2 2v-23c0-1.66 1.34-3 3-3h16c1.66 0 3 1.34 3 3z" fill="url(#a)" stroke-width=".5"/><rect x="8.5" y="6" width="13.5" height="4.5" rx="1" fill="#fff" stroke-width=".5"/><defs><linearGradient id="g" x1="60" x2="56" y1="52.5" y2="52.5" gradientTransform="matrix(.5 0 0 .5 -3 -2)" gradientUnits="userSpaceOnUse"><stop stop-color="#0078D4" offset="0"/><stop stop-color="#0050AC" offset="1"/></linearGradient><linearGradient id="f" x1="60" x2="56" y1="41" y2="41" gradientTransform="matrix(.5 0 0 .5 -3 -2)" gradientUnits="userSpaceOnUse"><stop stop-color="#107C10" offset="0"/><stop stop-color="#005400" offset="1"/></linearGradient><linearGradient id="e" x1="60" x2="56" y1="28.5" y2="28.5" gradientTransform="matrix(.5 0 0 .5 -3 -2)" gradientUnits="userSpaceOnUse"><stop stop-color="#E25A01" offset="0"/><stop stop-color="#BA3200" offset="1"/></linearGradient><linearGradient id="d" x1="60" x2="56" y1="17" y2="17" gradientTransform="matrix(.5 0 0 .5 -3 -2)" gradientUnits="userSpaceOnUse"><stop stop-color="#D70A0A" offset="0"/><stop stop-color="#A50000" offset=".7276"/></linearGradient><linearGradient id="c" x1="48" x2="41.37" y1="48" y2="51.04" gradientTransform="matrix(.5 0 0 .5 -3 -2)" gradientUnits="userSpaceOnUse"><stop stop-color="#D7D4D4" offset="0"/><stop stop-color="#EAE8E8" offset="1"/></linearGradient><linearGradient id="b" x1="36" x2="36" y1="48" y2="64" gradientTransform="matrix(.5 0 0 .5 -3 -2)" gradientUnits="userSpaceOnUse"><stop stop-opacity=".35" offset="0"/><stop stop-opacity=".3" offset="1"/></linearGradient><linearGradient id="a" x1="14" x2="58" y1="3.5" y2="65" gradientTransform="matrix(.5 0 0 .5 -3 -2)" gradientUnits="userSpaceOnUse"><stop stop-color="#A35CFF" offset="0"/><stop stop-color="#4931DE" offset="1"/></linearGradient></defs><script/><link/></svg>
