<svg viewBox="0 0 32 32" xmlns="http://www.w3.org/2000/svg">
  <g transform="translate(0 3.92)" fill="none" fill-rule="evenodd">
    <path d="M9.82 23.14a1.68 1.68 0 0 1-.18-1.08H2.02L13.34 2.13l4.77 8.5 1.5-1.12-4.71-8.47C14.8.88 14.26 0 13.32 0c-.43 0-1.04.18-1.54 1.06L.31 21.24c-.1.17-.58 1.09-.1 1.9.21.37.67.81 1.67.81h9.61c-1 0-1.46-.43-1.67-.8z" fill="#00C58E"/>
    <path d="M31.6 21.28L22.37 4.89c-.1-.17-.62-1.04-1.55-1.04-.42 0-1.02.18-1.5 1.04L18.1 6.84v3.78l2.72-4.67 9.12 16.14h-3.47a1.58 1.58 0 0 1-.14.96l-.03.06c-.47.8-1.48.84-1.67.84h5.43c.2 0 1.2-.04 1.67-.84.2-.37.35-.98-.14-1.83z" fill="#108775"/>
    <path d="M26.55 23.1l.03-.06.08-.16c.1-.26.12-.54.07-.8a2.42 2.42 0 0 0-.31-.83l-7.21-12.5-1.09-1.9h-.02L17 8.74l-7.2 12.5a2.5 2.5 0 0 0-.28.82 1.65 1.65 0 0 0 .17 1.08c.22.37.68.8 1.7.8h13.43c.21 0 1.25-.04 1.73-.85zM18.1 10.64l6.6 11.43H11.5l6.6-11.43z" fill="#2F495E" fill-rule="nonzero"/>
  </g>
</svg>
