<svg viewBox="0 0 32 32" xmlns="http://www.w3.org/2000/svg"><title>file_type_blade</title><path d="m29.98 8.33c0.01 0.04 0.02 0.08 0.02 0.12v6.01c0 0.16-0.08 0.3-0.22 0.38l-5.1 2.9v5.76c0 0.16-0.08 0.3-0.22 0.38l-10.65 6.06c-0.02 0.01-0.05 0.02-0.08 0.03-0.01 0-0.02 0.01-0.03 0.01-0.07 0.02-0.15 0.02-0.23 0-0.01 0-0.02-0.01-0.03-0.01-0.02-0.01-0.05-0.02-0.07-0.03l-10.64-6.06c-0.14-0.08-0.23-0.22-0.23-0.38v-18.03c0-0.04 0.01-0.08 0.02-0.12 0-0.01 0.01-0.02 0.02-0.04s0.02-0.05 0.03-0.07c0.01-0.01 0.02-0.03 0.03-0.04 0.01-0.02 0.02-0.04 0.04-0.05 0.01-0.01 0.03-0.02 0.04-0.03s0.03-0.02 0.04-0.03l5.32-3.03c0.14-0.08 0.31-0.08 0.44 0l5.32 3.03c0.02 0.01 0.03 0.02 0.05 0.04 0.01 0.01 0.03 0.02 0.04 0.03 0.02 0.02 0.03 0.03 0.04 0.05 0.01 0.01 0.02 0.02 0.03 0.04s0.02 0.04 0.03 0.07c0 0.01 0.01 0.02 0.02 0.04 0.01 0.04 0.02 0.08 0.02 0.11v11.26l4.43-2.53v-5.75c0-0.04 0.01-0.08 0.02-0.11 0-0.01 0.01-0.02 0.02-0.04s0.02-0.05 0.03-0.07c0.01-0.01 0.02-0.03 0.03-0.04 0.01-0.02 0.02-0.04 0.04-0.05 0.01-0.01 0.03-0.02 0.04-0.03 0.02-0.01 0.03-0.03 0.05-0.04l5.32-3.03c0.14-0.08 0.31-0.08 0.44 0l5.32 3.03c0.02 0.01 0.03 0.02 0.05 0.04 0.01 0.01 0.03 0.02 0.04 0.03 0.02 0.02 0.03 0.03 0.04 0.05 0.01 0.01 0.02 0.02 0.03 0.04s0.02 0.04 0.03 0.07c0.01 0.01 0.02 0.02 0.02 0.03zm-0.87 5.88v-5l-1.86 1.06-2.57 1.47v5l4.43-2.53zm-5.32 9.04v-5l-2.53 1.43-7.23 4.08v5.05c0-0.01 9.76-5.56 9.76-5.56zm-20.4-17.02v17.02l9.76 5.56v-5.05l-5.1-2.85c-0.02-0.02-0.04-0.03-0.05-0.05-0.01-0.01-0.03-0.02-0.04-0.03s-0.02-0.03-0.04-0.05c-0.01-0.01-0.02-0.03-0.03-0.04-0.01-0.02-0.02-0.04-0.02-0.05-0.01-0.02-0.02-0.03-0.02-0.05-0.01-0.02-0.01-0.04-0.01-0.06s-0.01-0.03-0.01-0.05v-11.78l-2.58-1.46-1.86-1.06zm4.88-3.29l-4.44 2.53 4.43 2.52 4.43-2.53-4.42-2.52zm2.3 15.76l2.57-1.46v-11.01l-1.86 1.06-2.57 1.46v11.01l1.86-1.06zm13.66-12.78l-4.43 2.53 4.43 2.52 4.43-2.53c0.01 0.01-4.43-2.52-4.43-2.52zm-0.44 5.81l-2.57-1.47-1.86-1.06v5l2.57 1.46 1.86 1.06v-4.99zm-10.2 11.27l6.5-3.67 3.25-1.84-4.43-2.52-5.1 2.9-4.65 2.65 4.43 2.48z" fill="#EF382C"/></svg>
