<svg xmlns="http://www.w3.org/2000/svg" viewBox="0 0 32 32"><g fill="#fd3316"><path d="M16.531 14.811h-2.094a.087.087 0 0 0-.087.081l-.05.657a.047.047 0 0 1-.003.017l-2.895 10.105a.087.087 0 0 0 .084.111h1.518a.087.087 0 0 0 .084-.064l.815-2.99a.087.087 0 0 1 .084-.064h3.08c.039 0 .074.026.084.064l.834 2.991a.088.088 0 0 0 .084.064h1.678c.058 0 .1-.056.084-.112l-3.218-10.796a.084.084 0 0 0-.082-.064zm-2.165 6.199l1.134-4.63 1.2 4.63h-2.334zM20.671 25.782a.087.087 0 0 1-.087-.087l.009-6.521-.041-.884a.087.087 0 0 1 .054-.085c.299-.123 1.729-.682 3.125-.682 1.569 0 2.948.718 2.948 2.873v5.299a.087.087 0 0 1-.087.087h-1.627a.087.087 0 0 1-.087-.087v-5.324s.063-1.254-1.399-1.254c-.37 0-.85.11-1.027.162a.088.088 0 0 0-.063.084v6.332a.087.087 0 0 1-.087.087h-1.631z"/><path d="M24.099 2H8.837v2.493H2.253v7.844h6.584V30h20.91V7.888L24.099 2zM9.126 11.173l-.695-1.775c-.02-.05-.091-.05-.11 0l-.688 1.774a.06.06 0 0 1-.055.038h-1.18a.059.059 0 0 1-.053-.085l1.298-2.659a.056.056 0 0 0 .001-.049L6.436 5.572a.059.059 0 0 1 .054-.082h1.211c.025 0 .047.016.055.039l.632 1.733a.059.059 0 0 0 .111 0l.632-1.733a.063.063 0 0 1 .057-.039h1.207c.043 0 .072.045.053.084L9.174 8.272a.056.056 0 0 0-.001.049l1.247 2.807a.06.06 0 0 1-.054.083H9.181a.06.06 0 0 1-.055-.038zM28.747 29H9.837V12.337H21.56V4.493H9.837V3h13.679v5.415h5.231V29zM12.25 7.918h1.533c.033 0 .059.026.059.059v.979a.058.058 0 0 1-.059.059H12.25a.058.058 0 0 0-.059.059v2.077a.058.058 0 0 1-.059.059h-1.086a.058.058 0 0 1-.059-.059V5.549c0-.033.026-.059.059-.059h2.782a.06.06 0 0 1 .059.052L14 6.551a.06.06 0 0 1-.059.066H12.25a.058.058 0 0 0-.059.059v1.183a.058.058 0 0 0 .059.059zm3.68 2.205h1.737c.036 0 .064.032.058.068l-.147.97a.058.058 0 0 1-.058.05h-2.814a.058.058 0 0 1-.059-.059V5.549c0-.033.026-.059.059-.059h1.106c.033 0 .059.026.059.059v4.515a.06.06 0 0 0 .059.059z"/></g></svg>