<svg xmlns="http://www.w3.org/2000/svg" viewBox="0 0 32 32"><title>file_type_pythowo</title><path d="M23.082,10.625v2.755a3.979,3.979,0,0,1-3.875,3.933h-6.2a3.164,3.164,0,0,0-3.1,3.152v5.907c0,1.681,1.462,2.67,3.1,3.152a10.379,10.379,0,0,0,6.2,0c1.562-.452,3.1-1.362,3.1-3.152V24.008h-6.2v-.788h9.3c1.8,0,2.475-1.258,3.1-3.145a10.646,10.646,0,0,0,0-6.3c-.446-1.795-1.3-3.145-3.1-3.145ZM19.6,25.584a1.182,1.182,0,1,1-1.164,1.178A1.171,1.171,0,0,1,19.6,25.584ZM3.034,2" style="fill:#e94475"/><path d="M24.008,2a.215.215,0,0,0-.082.012,2.57,2.57,0,0,1-1.475,1c-.5.084-.979.239-1.483.28a2.612,2.612,0,0,0-1.885.887l.048.055c-.246-.04-.491-.074-.731-.1-.034,0,.172-.371.008-.338l-.2.041s.1-.228.06-.3c-.1.031-.3.343-.3.343s-.114-.168-.2-.168c-.055.1.022.358.022.358-.554-.049-1.1-.069-1.618-.075h-.2a17.713,17.713,0,0,0-2.964.253c-2.625.464-3.1,1.434-3.1,3.225V9.837h6.2v.788H7.58a3.872,3.872,0,0,0-2.729,1.063,1.875,1.875,0,0,0-.726-.492c.069.246.134.494.223.734a2.094,2.094,0,0,0-1.314.392,1.857,1.857,0,0,0,.884.055A1.024,1.024,0,0,0,3.38,13a1.534,1.534,0,0,0,.589-.018,4.8,4.8,0,0,0-.264.791,11.6,11.6,0,0,0,0,6.3C4.146,21.911,5.2,23.219,7,23.219H9.135V20.385a3.942,3.942,0,0,1,3.875-3.854h6.2a3.125,3.125,0,0,0,3.1-3.152V7.868l.013.015a.174.174,0,0,1-.013-.046V7.771c.039-.131.3-.167.4-.264.1-.216-.184-.286-.305-.4a2.2,2.2,0,0,0,.764-.421.234.234,0,0,0,.062-.292,1.85,1.85,0,0,0-.362-.21c.414-.251.566-.729.832-1.1.1-.134,0-.251-.106-.337.2-.268.4-.537.582-.817l-.081-.2q-.173.06-.343.126c.343-.418.1-.983.342-1.434C24.176,2.286,24.175,2.015,24.008,2Zm-.527,1.2c.074.4-.353.61-.486.937a4.366,4.366,0,0,1-.9,2.249,2.443,2.443,0,0,1-.219.217c-.043.029-.086.072-.133.1a.188.188,0,0,1-.113.038.144.144,0,0,1-.042-.009.979.979,0,0,1-.486-.538.353.353,0,0,1,.044-.086h0a.612.612,0,0,1,.216-.171l.06-.034A.878.878,0,0,0,21.6,5.8a.4.4,0,0,0,.061-.07,2.7,2.7,0,0,0-.654.109l-.11-.1c.124-.172.244-.349.353-.531.027-.045.057-.088.082-.134a1.483,1.483,0,0,0-.164.06h0c-.1.044-.2.095-.3.145l-.081.039-.067.03a1.493,1.493,0,0,1-.189.068c-.028.008-.056.015-.085.02l-.039.007a.832.832,0,0,1-.134.01.213.213,0,0,1-.034-.152.242.242,0,0,1,.024-.07h0a.365.365,0,0,1,.043-.065.694.694,0,0,1,.123-.113,1.364,1.364,0,0,1,.132-.085.7.7,0,0,1,.136-.071l.1-.04h0c.119-.049.232-.106.266-.238a1.467,1.467,0,0,0-.545.074c-.066.02-.13.044-.195.07-.178.07-.353.149-.53.221l-.216-.246.006-.024.012-.033a.825.825,0,0,1,.216-.284l0,0c.031-.028.062-.058.092-.08.845-.637,1.964-.537,2.938-.817.235-.055.4-.283.647-.287ZM12.62,5.9a1.182,1.182,0,1,1-1.164,1.186A1.177,1.177,0,0,1,12.62,5.9Z" style="fill:#2298d3"/></svg>