<svg xmlns="http://www.w3.org/2000/svg" fill="none" viewBox="0 0 32 32" fill-rule="evenodd" clip-rule="evenodd"><path fill="#2a486b"  d="M5.2 5.52A3.2 3.2 0 0 0 2 8.72v14.91a3.2 3.2 0 0 0 3.2 3.2h7.63c.5 0 1.19-.53 1.94-1.19q-.21-.3-.36-.64c-.64-1.35.7-4.04 2.76-4.3q.84 1.15 1.63 2.33c.7-.2.63-.12 1.48-.12 0-.66-.06-2.82-.07-3.87 0-.82.65-1.43 1.48-1.43q.66.02 1.09.44.39.31.67.72c.22.3.45.6.78.8q.89.6 2.05.6c2.07 0 3.73-1.5 3.73-3.75 0-1.15-.4-2.1-1.09-2.75a4 4 0 0 0-2.77-1.05c-1.44 0-2.09.65-2.91 1.48l-.44.43q-.42.45-1.1.46c-.8 0-1.49-.62-1.49-1.43 0-1.33-.06-3.62 0-5.21a3.1 3.1 0 0 1 2.33-2.83q-8.67.01-17.35 0"/><path fill="#aab0c2" d="m20.3 23.75-.03-.98-.33-.32-.86.02c.65.15 1.1.62 1.2 1.27z" /><path fill="#778292" d="M14.46 18.6c-.41.09-.82.4-1.03.76l-1.57-2.16q.42-.41.92-.7zM12.13 15.67c-.3.2-.63.44-.88.68l-.88-1.22c.22-.22.54-.47.82-.63zM10.6 13.77c-.26.17-.55.4-.78.6l-.85-1.18c.2-.2.48-.42.73-.56zM8.05 11.22c.23-.18.49-.05.6.09l.54.68c-.24.14-.5.35-.7.53l-.51-.7c-.11-.14-.17-.42.07-.6"/><path fill="#aab0c2" d="M15.03 22.06c.4-.54.93-.99 1.55-1.22l-1.9-2.26c-.53-.09-1.29.5-1.34 1.03z"/><path fill="#fff" d="m26.21 23.84-.09 1.1q0 .2.17.3l.67.33-.73-.02a.3.3 0 0 0-.29.18l-.42 1.06.09-1.13a.3.3 0 0 0-.17-.3l-.68-.3h.74a.3.3 0 0 0 .28-.18z"/><path fill="#fcd006" d="M14.62 15.45c.35.46.2 1.34-.84 2.3l-.5-.63c.47-.46.66-.86.67-1.01-.19-.04-.84.09-1.64.7-.8.6-1.1 1.2-1.11 1.39.14.03.57-.04 1.12-.36l.48.66c-1.2.72-2.07.63-2.42.17-.4-.52-.15-1.58 1.3-2.69 1.46-1.1 2.55-1.05 2.94-.53M12.78 13.58c.3.4.17 1.16-.73 2l-.43-.54c.41-.4.57-.75.58-.88-.17-.03-.73.09-1.43.62s-.96 1.04-.97 1.2c.12.03.49-.03.96-.3l.4.57c-1.02.62-1.78.53-2.08.14-.35-.45-.14-1.38 1.13-2.35 1.27-.96 2.22-.91 2.57-.46M17.17 14q.05.13.2.13h.52l-.47.21a.2.2 0 0 0-.12.21l.06.8-.3-.74a.2.2 0 0 0-.2-.14l-.52.02.48-.22a.2.2 0 0 0 .11-.2l-.05-.8zM11.05 11.83c.26.34.15 1-.62 1.72l-.37-.45c.35-.34.5-.64.5-.75-.14-.03-.63.07-1.24.53-.6.45-.83.9-.84 1.04.11.02.42-.03.83-.26l.34.48c-.89.53-1.54.46-1.8.12-.3-.4-.11-1.2.99-2.03s1.91-.8 2.21-.4M8.76 7.69a.2.2 0 0 1 .29.2l-.33 1.77 1.36 1.19c.12.1.06.31-.1.33l-1.3.17c-.16-.2-.4-.3-.63-.13s-.2.44-.05.64l-.52 1.22a.19.19 0 0 1-.34 0l-.78-1.62-1.8-.16a.2.2 0 0 1-.11-.33l1.3-1.24-.4-1.76a.19.19 0 0 1 .28-.21l1.58.86z"/><path fill="#fff" d="M5.62 18.96a.31.31 0 1 1-.62 0 .31.31 0 0 1 .62 0"/><path fill="#778292" d="m14.61 25.4.25.39a1 1 0 0 0-.17.16q-.22.34 0 .87-.95-.02-1.76 0l.34-.57c.23-.44.8-.8 1.34-.86"/><path fill="#080604" d="M14.7 25.95q.06-.1.16-.16.4.57.88 1.03h-1.05q-.22-.52 0-.87"/><path fill="#080604" d="M17.88 26.82h.4l-.98-1.45c-.17.59.02 1.18.58 1.45"/><path fill="#778292" d="m20.43 24.77-.15.48.92 1.1.09-.16q-.62-.57-.86-1.42"/><path fill="#2a486b" d="m21.2 26.35.09-.16q.48.44 1.19.63h-.88z"/><path fill="#aab0c2" d="M18.73 23.4a4 4 0 0 0-1.5 1.86l1.06 1.56h3.3l-.4-.47z"/><path fill="#080604" d="M20.31 23.98q0-.14-.02-.24a1.5 1.5 0 0 0-1.21-1.27q-.04.27-.28.56l.2.31-.2.14 1.48 1.77.15-.48a4 4 0 0 1-.12-.8"/><path fill="#566576" d="M15.74 26.82h.4A2.6 2.6 0 0 1 16 25.1a5 5 0 0 1 2.26-2.86l-1.1-1.56c-2.06.27-3.4 2.96-2.76 4.3.33.7.8 1.33 1.33 1.83"/><path fill="#778292" d="M18.27 22.25c-1.54 1.01-2.39 2.38-2.35 3.65q.01.48.21.92h1.74c-.56-.27-.73-.87-.57-1.45l-.08-.1a4 4 0 0 1 1.51-1.86l.07.07.2-.14-.71-1.1z"/></svg>