<svg xmlns="http://www.w3.org/2000/svg" viewBox="0 0 32 32"><path d="M18.22 2.28c1.1.33 2.88 1.33 2.88 1.6 0 .08-.23.24-.52.36-.95.4-.98.58-.36 1.86a5 5 0 0 1 .56 1.65c-.01.7.63 2.3 1.33 3.29.81 1.16.42 3.34-.57 3.18-.2-.03-.67-.08-1.06-.1-.57-.05-.77-.17-1.03-.62-.24-.4-.54-.6-1.07-.73a5 5 0 0 1-1.87-.83l-.42-.3.42.82c.23.46 1.27 1.7 2.3 2.75 2.73 2.78 3.35 4.37 2.1 5.38-.53.44-.6.58-.56 1.3.05 1.16-.05 1.18-4.35 1.18-4.2 0-4.45-.06-4.25-1.06.1-.51.04-.65-.48-1.12l-.6-.54.34-.82c.2-.44.39-1.25.43-1.79l.07-.97-.38 1.2-.38 1.2-.42-1.18c-.55-1.58-.53-2.14.12-2.9.3-.34.53-.74.53-.88s-.26.07-.57.48c-.72.93-.76.93-1.02-.07-.25-1-.15-1.32.62-2.17.85-.91.77-1.07-.16-.31l-.78.64-.2-.8c-.2-.82.07-1.7.54-1.7.2 0 1.04-.88 1.04-1.1 0-.08-.16-.01-.35.16s-.58.46-.86.63l-.53.31-.12-.62Q8.32 8.25 9.74 7.8c.92-.31 1.24-.5 1.24-.72 0-.08-.26-.05-.58.08-1.4.57-1.53.54-1.35-.3q.31-1.35 1.46-1.39c1.06-.02 1.35-.31.33-.33-1.68-.02-.22-1.78 1.5-1.8 1.03-.01 1.03-.01.44-.23-2.07-.75 3.1-1.54 5.44-.83m-3.07 1.11c.2.11.58.39.86.62s.59.41.69.41c.32 0-.25-.54-.95-.9-.71-.36-1.2-.47-.6-.13m-.44.38c0 .12.12.38.26.57.24.32.25.3.07-.23-.2-.6-.33-.74-.33-.34m-.68 4.56a4.5 4.5 0 0 0-.5 4.46c.26.58.27.58.15.07-.3-1.25-.14-2.85.34-3.49.8-1.04.8-2.04.01-1.04m4.98-.19c.23.37.62.53 1 .4q.24-.08-.27-.4c-.68-.46-1.02-.46-.73 0m-3.58 4.54c0 .17 1.72 2.4 2.55 3.29A5.7 5.7 0 0 1 19.33 19c0 .79.4.93.5.17.18-1.2-.38-2.2-2.46-4.42a36 36 0 0 1-1.63-1.84c-.17-.22-.3-.33-.3-.23m3.7 10.92c.2.1.38.47.45.86q.12.69.92 1.6c1.3 1.48 1.38 1.45-4.46 1.45h-5.07v-.4c0-.24.24-.65.55-.94.67-.64 1.05-1.33 1.05-1.93 0-.24.14-.52.3-.62.41-.23 5.83-.25 6.27-.02m-2.49.54c0 .1.47.18 1.06.18.58 0 1.1-.08 1.16-.18.07-.11-.32-.18-1.05-.18-.66 0-1.17.08-1.17.18m5.42 4c.74.36 1.1.75 1.25 1.37l.12.49h-7.39c-8.08 0-7.78.04-7.09-1 .68-1.04 1.21-1.12 7.13-1.13 4.54 0 5.49.04 5.98.28m-3.46.25c-.31.2.08.3 1.3.34 1.14.04 1.78-.1 1.62-.36-.12-.2-2.6-.18-2.92.02"/></svg>