<svg viewBox="0 0 32 32" xmlns="http://www.w3.org/2000/svg"><path d="m18 3.1c0.76 0.21 1.2 0.39 1.7 0.76l-9.3 11c2.5 1.7 5.2 5.9 3.7 9.4 0.71-4.7-4-8.2-6.8-8.6zm-7.4 26c1.7 0.079 3.5 0.1 5.2 0.1 3.9 0 7.6-0.18 11-0.52 1.3-0.13 2.3-1.2 2.5-2.5 0.29-2.4 0.42-4.9 0.42-7.5s-0.13-5.1-0.42-7.5c-0.16-1.4-1.2-2.4-2.5-2.5-1.6-0.16-3.1-0.29-4.7-0.37 0 0-6.7 15-7.3 16-1 2.3-2.4 3.9-4.3 4.5zm-5.9-0.42c-1.3-0.24-2.3-0.99-2.5-2.5-0.26-2.4-0.39-4.9-0.39-7.5s0.13-5.1 0.39-7.5c0.18-1.4 1.2-2.4 2.5-2.5 1.8-0.18 3.7-0.31 5.6-0.42l3.4-3.9c-0.026 0 0.79-0.16 1.5 0.026l-12 14c2.6-1.3 10 0.71 10 5.3 0 4.9-5.2 5.4-8.7 4.9z" fill="#cc2131"/></svg>