<svg xmlns="http://www.w3.org/2000/svg" xmlns:xlink="http://www.w3.org/1999/xlink" viewBox="0 0 32 32"><title>file_type_libreoffice_impress</title><path fill="#BB500E" d="M5.77 2h-.16c-.8.16-1 .5-.98 1.32v25.37c0 .91.4 1.31 1.3 1.31h20.13c.92 0 1.31-.4 1.31-1.31V12.98c.01-.46-.17-.93-.49-1.26L17.66 2.5c-.33-.32-.8-.5-1.26-.5H5.77zM21.1 2a.9.9 0 0 0-.14.01c-.58.19-.78 1.08-.33 1.5l5.27 5.3c.49.46 1.46.06 1.48-.62V2.9a.91.91 0 0 0-.87-.88h-5.27a.9.9 0 0 0-.14 0z"/><path fill="#f3f3f3" d="M5.94 3.31V28.7h20.12V12.94L16.44 3.3z"/><path fill="#646464" d="M15.13 23.66v.45l-2.63 1.73h1.29l1.93-1.53h.12l1.91 1.53h1.31l-2.62-1.75v-.43z"/><path fill="#BB500E" d="M9 14.03v9.63h13.56v-9.63zm.66.44H21.9c.12 0 .22.1.22.22V23c0 .12-.1.22-.22.22H9.66a.22.22 0 0 1-.22-.22v-8.31c0-.12.1-.22.22-.22zm.43.65V16h11.38v-.88zm2.2 1.54v.87h7v-.87zm-.66 1.75v.87h3.28v-.87zm-1.1 0a.44.44 0 1 0 0 .87.44.44 0 0 0 0-.87zm1.1 1.53v.87h3.28v-.87zm-1.1 0a.44.44 0 1 0 0 .87.44.44 0 0 0 0-.87zm1.1 1.53v.87h3.28v-.87zm-1.1 0a.44.44 0 1 0 0 .87.44.44 0 0 0 0-.87z"/><path fill="#8F8F8F" d="M15.78 18.4v3.94h5.69v-3.93zm.44.44h4.81v3.07h-4.81zm.22.44v.22h4.37v-.22zm0 .66v.22h4.37v-.22zm0 .65v.22h4.37v-.22zm0 .66v.22h4.37v-.22z"/><path fill="#148603" d="M20.48 19.06a.33.33 0 0 0-.23.1l-1.4 1.4-.65-.64a.33.33 0 0 0-.46 0l-1.2 1.2a.33.33 0 1 0 .46.47l.97-.97.64.64a.33.33 0 0 0 .47 0l1.64-1.64a.33.33 0 0 0-.24-.56z"/></svg>