<svg viewBox="0 0 32 32" xmlns="http://www.w3.org/2000/svg"><path d="m10.457 11.092 5.557 2.747v4.468l-5.557-2.925z" fill="#6483c0"/><path d="m16.2 18.613-5.926-3.12v-4.693l5.926 2.924zm-5.558-3.343 5.188 2.73v-4.047l-5.188-2.564z"/><path d="m16.371 13.839v4.468l4.944-2.493v-4.46z" fill="#6483c0"/><path d="m16.186 18.607v-4.882l5.313-2.67v4.873zm.369-4.655v4.055l4.575-2.307v-4.047z"/><path d="m10.703 10.797 5.483 2.783 4.896-2.516-5.305-2.675z" fill="#6483c0"/><path d="m16.187 13.788-5.9-3 5.5-2.608 5.709 2.879zm-5.065-2.988 5.064 2.57 4.49-2.308-4.9-2.471z"/><path d="m18.957 15.829 5.558 2.746v4.468l-5.558-2.925z" fill="#952781"/><path d="m24.7 23.349-5.926-3.12v-4.7l5.926 2.931zm-5.557-3.343 5.188 2.731v-4.048l-5.188-2.564z"/><path d="m24.871 18.575v4.468l4.944-2.493v-4.46z" fill="#952781"/><path d="m24.687 23.343v-4.882l5.313-2.67v4.873zm.369-4.655v4.055l4.575-2.308v-4.046z"/><path d="m19.203 15.546 5.484 2.783 4.896-2.517-5.219-2.466z" fill="#952781"/><path d="m24.687 18.536-5.92-3.005 5.6-2.387 5.633 2.661zm-5.047-2.976 5.046 2.561 4.479-2.3-4.806-2.27z"/><path d="m2.19 15.496 5.558 2.747v4.468l-5.558-2.925z" fill="#d87b30"/><path d="m7.932 23.017-5.926-3.117v-4.7l5.926 2.929zm-5.557-3.343 5.188 2.731v-4.048l-5.188-2.564z"/><path d="m8.104 18.243v4.468l4.944-2.493v-4.46z" fill="#d87b30"/><path d="m7.92 23.011v-4.882l5.313-2.67v4.873zm.369-4.655v4.055l4.575-2.311v-4.043z"/><path d="m2.436 15.213 5.484 2.784 4.896-2.517-5.219-2.466z" fill="#d87b30"/><path d="m7.92 18.2-5.92-3 5.6-2.387 5.632 2.661zm-5.047-2.972 5.046 2.561 4.479-2.3-4.806-2.27z"/><path d="m10.875 16.296 5.557 2.746v4.469l-5.557-2.926z" fill="#e0d400"/><path d="m16.617 23.816-5.926-3.116v-4.7l5.926 2.929zm-5.557-3.342 5.188 2.731v-4.048l-5.188-2.564z"/><path d="m16.789 19.042v4.469l4.944-2.494v-4.46z" fill="#e0d400"/><path d="m16.6 23.811v-4.882l5.313-2.67v4.873zm.369-4.655v4.055l4.58-2.311v-4.043z"/><path d="m11.121 16.001 5.484 2.783 4.896-2.517-5.305-2.674z" fill="#e0d400"/><path d="m16.605 18.991-5.9-3 5.5-2.608 5.709 2.879zm-5.065-2.985 5.064 2.57 4.49-2.308-4.9-2.471z"/></svg>