<svg xmlns="http://www.w3.org/2000/svg" xmlns:xlink="http://www.w3.org/1999/xlink" viewBox="0 0 32 32"><defs><radialGradient id="radial-gradient" cx="-287.01" cy="-397.69" r="0.01" gradientTransform="matrix(2291.67, 0, 0, -2218.75, 657755.25, -882368.62)" gradientUnits="userSpaceOnUse"><stop offset="0" stop-color="#423325" stop-opacity="0.98"/><stop offset="1" stop-color="#1c0a00"/></radialGradient></defs><title>file_type_ai</title><g id="ai"><path d="M3.17,3.52H28.84v25H3.17Z" style="fill:url(#radial-gradient)"/><path d="M3.17,3.52H28.84v25H3.17ZM2,29.65H30V2.35H2ZM20.34,12.08c0-.09,0-.14.14-.14h1.83c.09,0,.14,0,.14.14v9.21c0,.09,0,.14-.14.14H20.51c-.12,0-.15-.06-.15-.15V12.08h0Zm-.13-2.65a1.19,1.19,0,0,1,2.38,0,1.11,1.11,0,0,1-1.21,1.19A1.1,1.1,0,0,1,20.21,9.43ZM15,15.92c-.33-1.3-1.1-4.12-1.39-5.48h0c-.25,1.37-.86,3.67-1.35,5.48Zm-3.24,1.89-.92,3.5c0,.09-.06.12-.17.12H8.91c-.12,0-.14,0-.12-.17l3.31-11.6a3.78,3.78,0,0,0,.12-1c0-.08,0-.12.09-.12h2.45c.08,0,.12,0,.14.12l3.71,12.59c0,.09,0,.15-.09.15H16.59c-.09,0-.15,0-.17-.1l-1-3.51H11.72Z" style="fill:#ff7f18"/></g></svg>