<svg viewBox="0 0 32 32" xmlns="http://www.w3.org/2000/svg"><g fill="#e6522c"><path d="m16 30c-2.506 0-4.539-1.674-4.539-3.739h9.077c.001 2.064-2.031 3.739-4.538 3.739z"/><path d="m23.496 25.023h-14.993v-2.719h14.994v2.719z"/><path d="m23.443 20.9h-14.897c-.05-.057-.1-.113-.148-.171a10.867 10.867 0 0 1 -2.248-3.824c-.006-.033 1.861.381 3.185.679 0 0 .681.158 1.677.339a6.225 6.225 0 0 1 -1.524-4c0-3.2 2.452-5.992 1.568-8.25.861.07 1.782 1.817 1.844 4.549a9.769 9.769 0 0 0 1.3-4.992c0-1.467.966-3.17 1.933-3.229-.862 1.42.223 2.638 1.188 5.658.362 1.134.316 3.044.595 4.254.093-2.515.525-6.184 2.12-7.45-.7 1.6.1 3.591.657 4.551a8.623 8.623 0 0 1 1.432 4.94 6.17 6.17 0 0 1 -1.476 3.983c1.053-.2 1.781-.376 1.781-.376l3.421-.667a9.7 9.7 0 0 1 -2.408 4.006z"/></g></svg>