<svg xmlns="http://www.w3.org/2000/svg" viewBox="0 0 32 32"><title>file_type_clojurescript</title><path d="M10.183,19.363a2.345,2.345,0,0,1-1.848-.71A2.956,2.956,0,0,1,7.7,16.62a2.983,2.983,0,0,1,.659-2.078,2.446,2.446,0,0,1,1.911-.728,3.541,3.541,0,0,1,1.522.313l-.346.914a3.475,3.475,0,0,0-1.189-.281c-.927,0-1.387.614-1.387,1.841a2.23,2.23,0,0,0,.345,1.355,1.2,1.2,0,0,0,1.017.454,2.95,2.95,0,0,0,1.438-.377v.991a2.2,2.2,0,0,1-.652.255,3.5,3.5,0,0,1-.837.084Z" style="fill:#96ca4b"/><path d="M14.811,19.267H13.673V11.736h1.138v7.531Z" style="fill:#96ca4b"/><path d="M16.633,21.645a2.49,2.49,0,0,1-.85-.122v-.9a2.634,2.634,0,0,0,.671.089q.729,0,.729-.824V13.91h1.138v6.053a1.683,1.683,0,0,1-.435,1.253,1.712,1.712,0,0,1-1.253.429Z" style="fill:#5f7fbf"/><path d="M17.112,12.5a.629.629,0,0,1,.167-.467.647.647,0,0,1,.479-.166.577.577,0,0,1,.633.633.646.646,0,0,1-.166.46.64.64,0,0,1-.467.166.668.668,0,0,1-.479-.166.614.614,0,0,1-.167-.46Z" style="fill:#5f7fbf"/><path d="M24.279,17.745a1.408,1.408,0,0,1-.569,1.2,2.732,2.732,0,0,1-1.637.416,3.859,3.859,0,0,1-1.72-.326v-.985a4.247,4.247,0,0,0,1.758.435c.7,0,1.049-.211,1.049-.633a.512.512,0,0,0-.115-.339,1.368,1.368,0,0,0-.384-.281,6.422,6.422,0,0,0-.741-.326,3.465,3.465,0,0,1-1.253-.716,1.322,1.322,0,0,1-.326-.927A1.221,1.221,0,0,1,20.9,14.2a2.614,2.614,0,0,1,1.508-.377,4.258,4.258,0,0,1,1.784.384l-.371.856a4.007,4.007,0,0,0-1.457-.358c-.6,0-.9.173-.9.512a.522.522,0,0,0,.237.428,5.219,5.219,0,0,0,1.023.479,5.062,5.062,0,0,1,.965.467,1.5,1.5,0,0,1,.448.492,1.412,1.412,0,0,1,.147.665Z" style="fill:#5f7fbf"/><path d="M14.994,4.825l.175-.016V3.141l-.207.017a12.917,12.917,0,0,0,0,25.748l.207.017V27.248l-.175-.015a11.249,11.249,0,0,1,0-22.408Z" style="fill:#96ca4b"/><path d="M25.465,7.254a12.875,12.875,0,0,0-8.427-4.1l-.207-.017V4.809l.175.016a11.252,11.252,0,0,1,0,22.414l-.175.016v1.668l.207-.017A12.911,12.911,0,0,0,25.465,7.254Z" style="fill:#5f7fbf"/></svg>