<svg xmlns="http://www.w3.org/2000/svg" viewBox="0 0 32 32"><title>file_type_meteor@2x</title><g id="meteor"><path d="M2,2.27l24,25.4a1.12,1.12,0,0,0,1.44-.1,1.06,1.06,0,0,0,.14-1.34L2,2.27Z" style="fill:#df4f4f"/><path d="M9.59,4.67,27.85,24.36a1.12,1.12,0,0,0,1.44-.1,1.06,1.06,0,0,0,.14-1.34L9.59,4.67Z" style="fill:#df4f4f"/><path d="M4.26,9.81,22.52,29.5A1.12,1.12,0,0,0,24,29.4a1.06,1.06,0,0,0,.14-1.34L4.26,9.81Z" style="fill:#df4f4f"/><path d="M16,6.74,28.77,20.49a.78.78,0,0,0,1-.07.74.74,0,0,0,.1-.94L16,6.74Z" style="fill:#df4f4f"/><path d="M6,15.77,18.77,29.52a.78.78,0,0,0,1-.07.74.74,0,0,0,.1-.94L6,15.77Z" style="fill:#df4f4f"/><path d="M22.57,9.72,28.35,16a.4.4,0,0,0,.5,0,.33.33,0,0,0,0-.44L22.57,9.72Z" style="fill:#df4f4f"/><path d="M9.21,22.1,15,28.36a.4.4,0,0,0,.5,0,.33.33,0,0,0,0-.44L9.21,22.1Z" style="fill:#df4f4f"/></g></svg>