<svg viewBox="0 0 32 32" xmlns="http://www.w3.org/2000/svg"><g fill="#68217a"><path d="m10.175 18.342a8.171 8.171 0 1 1 8.171-8.171 8.181 8.181 0 0 1 -8.171 8.171zm0-11.673a3.5 3.5 0 1 0 3.5 3.5 3.506 3.506 0 0 0 -3.5-3.5z"/><path d="m28.089 24.023a4.2 4.2 0 1 1 -1.231-2.971 4.189 4.189 0 0 1 1.231 2.971z"/><path d="m30 6.21a4.2 4.2 0 1 1 -1.231-2.971 4.189 4.189 0 0 1 1.231 2.971z"/><path d="m10.416 25.8a4.2 4.2 0 1 1 -1.231-2.971 4.189 4.189 0 0 1 1.231 2.971z"/><path d="m15.758 6.37h8.189v2.801h-8.189z" transform="matrix(.9693039 -.24586571 .24586571 .9693039 -1.301 5.119)"/><path d="m3.834 18.591h7.601v2.802h-7.601z" transform="matrix(.24574728 -.96933393 .96933393 .24574728 -13.621 22.479)"/><path d="m17.171 14.085h2.801v9.292h-2.801z" transform="matrix(.71068898 -.70350635 .70350635 .71068898 -7.805 18.485)"/></g></svg>