<svg id="Layer_2" data-name="Layer 2" xmlns="http://www.w3.org/2000/svg" xmlns:xlink="http://www.w3.org/1999/xlink" viewBox="0 0 32 32"><defs><radialGradient id="radial-gradient" cx="-859.41" cy="653.31" r="1" gradientTransform="matrix(0, 6.25, 9.79, 0, -6381.77, 5391.66)" gradientUnits="userSpaceOnUse"><stop offset="0.47" stop-color="#7a4c33"/><stop offset="1" stop-color="#52423c"/></radialGradient><linearGradient id="linear-gradient" x1="6.39" y1="18.69" x2="25.13" y2="18.69" gradientTransform="matrix(1, 0, 0, -1, 0, 34)" gradientUnits="userSpaceOnUse"><stop offset="0" stop-color="#ff85ae"/><stop offset="0.32" stop-color="#ff7da9"/><stop offset="0.82" stop-color="#ff669a"/><stop offset="1" stop-color="#ff5c93"/></linearGradient><linearGradient id="linear-gradient-2" x1="6.15" y1="22.04" x2="24.5" y2="22.04" gradientTransform="matrix(1, 0, 0, -1, 0, 34)" gradientUnits="userSpaceOnUse"><stop offset="0" stop-color="#ffb0cb"/><stop offset="0.79" stop-color="#f383a9"/><stop offset="1" stop-color="#f0769f"/></linearGradient><linearGradient id="linear-gradient-3" x1="14.12" y1="27.56" x2="21.6" y2="27.56" gradientTransform="matrix(1, 0, 0, -1, 0, 34)" gradientUnits="userSpaceOnUse"><stop offset="0" stop-color="#f697b7"/><stop offset="0.34" stop-color="#f78fb2"/><stop offset="0.86" stop-color="#f878a3"/><stop offset="1" stop-color="#f9719f"/></linearGradient><linearGradient id="linear-gradient-4" x1="6.82" y1="23.72" x2="23.52" y2="23.72" gradientTransform="matrix(1, 0, 0, -1, 0, 34)" gradientUnits="userSpaceOnUse"><stop offset="0" stop-color="#f78fb2"/><stop offset="0.27" stop-color="#f887ad"/><stop offset="0.7" stop-color="#fc709f"/><stop offset="1" stop-color="#ff5c93"/></linearGradient><linearGradient id="linear-gradient-5" x1="16.2" y1="13.76" x2="16.2" y2="5.18" gradientTransform="matrix(1, 0, 0, -1, 0, 34)" gradientUnits="userSpaceOnUse"><stop offset="0" stop-color="#4fe8ff"/><stop offset="0.5" stop-color="#4bddf3"/><stop offset="1" stop-color="#45cee3"/></linearGradient></defs><path d="M27,17l-.16.09a1,1,0,0,0-.31-.68,1.22,1.22,0,0,0-2.13.26c-.05.11.71,1.1.68,1.21A2,2,0,0,0,24,19.07c.1-.47-.25-.69-.78-.52a1.68,1.68,0,0,0-1.11,1.15c.07-.47-.31-.72-.85-.59a1.41,1.41,0,0,0-1.08,1.06c.05-.46-.36-.76-.91-.67a1.17,1.17,0,0,0-1,1c0-.47-.41-.8-1-.77a1,1,0,0,0-1,.88,1,1,0,0,0-1-.85c-.55,0-1,.32-1,.78a1.18,1.18,0,0,0-1.06-1c-.55-.07-1,.23-.89.7a1.41,1.41,0,0,0-1.1-1.05c-.54-.12-.92.15-.83.62A1.7,1.7,0,0,0,9.25,18.7c-.53-.17-.88.06-.77.53-.11-.47-1.29-2.45-1.42-2.74-.35-.81-1-1.06-1.59-.54a1.2,1.2,0,0,0-.26,1.17c-.37-.1-.56.08-.42.47.74,2.18,1.48,4.38,2.09,6.6a6.13,6.13,0,0,0,1.29,2.89,6.45,6.45,0,0,0,1.89,1.14,16,16,0,0,0,6.18,1.12,14.8,14.8,0,0,0,6.87-1.61A3.61,3.61,0,0,0,24.86,26c.53-1.34.92-2.75,1.33-4.09.47-1.53.82-3.15,1.42-4.58C27.76,16.89,27.48,16.73,27,17Z" style="fill:#48a2ad"/><path d="M16.17,23.14c5.82,0,10.55-1.9,10.55-4.24S22,14.66,16.17,14.66,5.62,16.56,5.62,18.9,10.34,23.14,16.17,23.14Z" style="fill:url(#radial-gradient)"/><path d="M25.13,12.85a3.25,3.25,0,0,0-.73-.55S17.68,14.48,13,14.25,9,13.5,6.64,15c0,0-.65.93.14,1.5a14.42,14.42,0,0,0,3.78,1.81.89.89,0,0,1,.49-.21C15.51,16.56,24.19,18.53,25.13,12.85Z" style="fill:url(#linear-gradient)"/><path d="M25.12,12.85c-.94,5.67-9.61,3.71-14.07,5.26a.92.92,0,0,0-.5.21c3.6,1.16,8,1.4,10.94.42C25.18,17.51,26.85,14.6,25.12,12.85Z" style="fill:#eb5e8e"/><path d="M23.22,8.66a3.12,3.12,0,0,1,1.28,2.71c0,2-1.63,4.48-8.84,3.76s-9-.11-9-.11-2.19-3,2.38-3c4.1,0,10.19.5,11.62-.41C22.81,10.29,22.89,10.25,23.22,8.66Z" style="fill:url(#linear-gradient-2)"/><path d="M14.9,7.21c2.21-1.38,2.1-3.4,1-5.11a.28.28,0,0,0-.13.35,2,2,0,0,1,.07,1.87c-.64.9-1.81,1.13-3.74,2.2s-2.54,2-2.67,3.22a.31.31,0,0,0,.16.28,6.28,6.28,0,0,0,1.2.42C11.48,8.84,13.42,8,14.9,7.21Z" style="fill:#f77ca5"/><path d="M19.74,4.64a10.79,10.79,0,0,0-3.52-2.55.3.3,0,0,0-.28,0c1.06,1.71,1.18,3.72-1,5.11-1.47.73-3.42,1.63-4.07,3.23a12.4,12.4,0,0,0,2.69.36c2.83.08,6.63-.07,7.28-1.18S20.91,5.9,19.74,4.64Z" style="fill:url(#linear-gradient-3)"/><path d="M23,8.28a2.77,2.77,0,0,0,.12-.41,4.47,4.47,0,0,0-2.53-1.52c1.92,4.1-8.1,3.21-10.95,3.38a2.81,2.81,0,0,0-2.3,1.19,13.54,13.54,0,0,1,2-.71C13.83,9.14,21.1,13.63,23,8.28Z" style="fill:#f79ebc"/><path d="M23.43,8.51a2,2,0,0,0-.28-.64,2,2,0,0,1-.13.41c-1.92,5.35-9.19.86-13.67,1.93a13.67,13.67,0,0,0-2,.71,3.32,3.32,0,0,0-.54,1.69c2.92-.89,5.08,0,10.7.09S23.83,10.19,23.43,8.51Z" style="fill:url(#linear-gradient-4)"/><path d="M27,18.6a2.38,2.38,0,0,0-1.18,1.25c.14-.46-.18-.65-.7-.46a2,2,0,0,0-1.17,1.15c.11-.45-.23-.67-.77-.52A1.6,1.6,0,0,0,22,21.07c.08-.44-.29-.69-.84-.59a1.35,1.35,0,0,0-1.09,1c.05-.43-.35-.72-.9-.66a1.12,1.12,0,0,0-1.05.88c0-.43-.4-.75-.95-.74s-1,.37-1,.8a1,1,0,0,0-1-.82c-.55,0-1,.29-1,.72a1.14,1.14,0,0,0-1-.9c-.55-.07-1,.21-.91.65a1.35,1.35,0,0,0-1.08-1c-.54-.11-.92.13-.84.57a1.63,1.63,0,0,0-1.12-1.07c-.53-.16-.88.05-.78.5a2,2,0,0,0-1.14-1.17c-.52-.2-.84,0-.71.45a2.41,2.41,0,0,0-1.16-1.27c-.51-.25-.8-.09-.65.38.61,1.42,1,3,1.43,4.49a40.38,40.38,0,0,0,1.34,3.88,3,3,0,0,0,1.75,1.49,17.25,17.25,0,0,0,6.85,1.22A19,19,0,0,0,22.33,29a6.06,6.06,0,0,0,1.89-.93,5.16,5.16,0,0,0,1.3-2.68c.62-2.17,1.36-4.28,2.09-6.41C27.77,18.53,27.49,18.37,27,18.6Z" style="fill:url(#linear-gradient-5)"/></svg>