<svg viewBox="0 0 32 32" xmlns="http://www.w3.org/2000/svg"><path d="m24.612 10.929v10.087l-8.571 5.071-.077.07v3.77l.077.073 12.071-6.972v-14.056l-.112-.027-3.4 1.9.017.082" fill="#2f406a"/><path d="m7.443 21.1 8.6 4.988v3.912l-12.155-7v-14l.125-.019 3.393 1.973.037.113z" fill="#2379bd"/><path d="m7.443 11.067-3.555-2.067 12.126-7 12.1 6.972-3.5 1.957-8.6-4.906z" fill="#03afef"/><path d="m15.894 19.945-.093-.1v-3.783l.093-.048.023-.093 3.247-1.894.1.022v3.9l-3.369 1.993" fill="#2f406a"/><path d="m12.469 18.073v-4.052h.094l3.3 1.922.028.076v3.931l-3.425-1.872" fill="#2379bd"/><path d="m15.838 12.027-3.369 1.993 3.425 1.993 3.369-1.965z" fill="#03afef"/><path d="m11.7 22.415-.093-.1v-3.782l.093-.048.023-.093 3.248-1.892.1.022v3.9z" fill="#2f406a"/><path d="m8.276 20.544v-4.053h.094l3.3 1.922.028.076v3.931z" fill="#2379bd"/><path d="m11.645 14.5-3.369 1.991 3.424 1.994 3.37-1.965z" fill="#03afef"/><path d="m20.386 22.509-.093-.1v-3.783l.093-.048.023-.093 3.247-1.894.1.022v3.9l-3.369 1.993" fill="#2f406a"/><path d="m16.961 20.637v-4.052h.094l3.3 1.922.028.076v3.931l-3.425-1.872" fill="#2379bd"/><path d="m20.33 14.592-3.369 1.993 3.425 1.993 3.369-1.965z" fill="#03afef"/><path d="m16.193 24.98-.093-.1v-3.78l.093-.048.023-.093 3.247-1.894.1.022v3.9z" fill="#2f406a"/><path d="m12.768 23.108v-4.052h.094l3.3 1.922.028.076v3.926l-3.425-1.872" fill="#2379bd"/><path d="m16.137 17.062-3.369 1.993 3.425 1.993 3.369-1.965-3.425-2.022" fill="#03afef"/><path d="m15.894 14.573-.093-.1v-3.783l.093-.048.023-.093 3.247-1.894.1.022v3.9l-3.369 1.993" fill="#2f406a"/><path d="m12.469 12.7v-4.051h.094l3.3 1.922.028.076v3.931z" fill="#2379bd"/><path d="m15.838 6.656-3.369 1.993 3.425 1.993 3.369-1.965z" fill="#03afef"/><path d="m11.7 17.044-.093-.1v-3.783l.093-.048.023-.093 3.247-1.894.1.022v3.9z" fill="#2f406a"/><path d="m8.276 15.172v-4.052h.094l3.3 1.922.028.076v3.931z" fill="#2379bd"/><path d="m11.645 9.126-3.369 1.994 3.424 1.993 3.369-1.965z" fill="#03afef"/><path d="m20.386 17.137-.093-.1v-3.782l.093-.048.023-.093 3.247-1.894.1.022v3.9l-3.369 1.993" fill="#2f406a"/><path d="m16.961 15.266v-4.053h.094l3.3 1.922.028.076v3.931l-3.425-1.872" fill="#2379bd"/><path d="m20.33 9.22-3.369 1.993 3.425 1.993 3.369-1.965z" fill="#03afef"/><path d="m16.193 19.608-.093-.1v-3.783l.093-.048.023-.093 3.247-1.894.1.022v3.9l-3.369 1.993" fill="#2f406a"/><path d="m12.768 17.736v-4.052h.094l3.3 1.922.028.076v3.931l-3.425-1.872" fill="#2379bd"/><path d="m16.137 11.691-3.369 1.993 3.425 1.993 3.369-1.965-3.425-2.022" fill="#03afef"/></svg>