<svg xmlns="http://www.w3.org/2000/svg" viewBox="0 0 32 32"><title>file_type_babel@2x</title><g id="babel"><path d="M26.88,11.23a1.51,1.51,0,0,1-.35.74l-.11-.07a2.47,2.47,0,0,0,.18-.54l0-.05s-.1.11-.16.33h-.06a.26.26,0,0,0,0-.11h0c-.54,1.5-.78,2.2-1.28,3.36-.09.3-.17.46-.24.49a0,0,0,0,0,.06,0,.74.74,0,0,1-.1.43A4.45,4.45,0,0,1,24.26,17l.05.32a0,0,0,0,1-.05.05H24.2q0-.13-.1-.12h0a1.33,1.33,0,0,0-.16.38H24a.18.18,0,0,0,.1-.17h.11l.06,0a.32.32,0,0,0-.07.19l0,.05-.07.16v0a.34.34,0,0,1,.21.06.39.39,0,0,0,.16-.06h.69l.2-.07c.25,0,.28,0,.5,0H26l0,0v0a1.31,1.31,0,0,1,.41,0v0h-.12v.05a.18.18,0,0,0,.1,0s.05,0,.05.05l-.17,0-.05,0-.12,0-.09,0a0,0,0,0,1,0,0s0,.05.05,0h.11l0,0s0,0,0,0l.45,0,.17,0a0,0,0,0,0,0,0l.08,0h.16c.12,0,.12,0,.38-.06,0,0,0,0,0,0v0a2.32,2.32,0,0,0,.56-.11l0-.05a.92.92,0,0,1-.21,0l-.38,0v0l.21,0h.08l0,0v0a7.33,7.33,0,0,0,1.79-.24c.07,0,.07-.07.11-.2l-.07,0a2.05,2.05,0,0,1-.39.06s0,0,0-.05v0h.21a.52.52,0,0,0,.23-.07s0,0,0,0h0s0,0,0-.05l0-.05a.68.68,0,0,0-.32.08v0l-.17,0c0-.05,0-.08,0-.08H29c-.11,0-.16,0-.21,0s0,0,0,0h-.1l-.06,0s0,0,0,0l0,0v0h-.17v.05l.07,0h.06l.08,0,.06,0v0a4.74,4.74,0,0,1-.55.11l-.05,0s0,0,0,0a0,0,0,0,1-.06,0h.11l.08,0c.09,0,.1-.06.15-.07v-.05a3,3,0,0,1-.59.05h0v-.05c.52-.06.34,0,.52-.08,0,0,0,0,0,0a.11.11,0,0,1,.07,0h0a1.83,1.83,0,0,0,.6-.08v0l.06,0h.05c0-.05.08-.06.1-.06v-.05c-.63.13-.79.09-1,.14v0a.72.72,0,0,1-.21,0l-.05,0s0,0,0,0,0,0,0,0l0,0-.54.09a0,0,0,0,0,0,0,2.54,2.54,0,0,1-.57.1l-.07,0s0,0,0,0l-.23,0-.15,0s0,0,0,0l-.22,0h0s0,0,0,0l0,0h-.26l-.4.06h-.15s0,0,0,0q-.25,0-.26-.08c0-.16.06-.24.12-.25h0l0,.05h0c.05,0,.08-.05.08-.08v-.05h-.05v-.05a.2.2,0,0,1,0-.11l.12-.2v.05h.06v-.05l0-.05a.19.19,0,0,1,.11-.06v0h-.08v-.08a2.39,2.39,0,0,0,.23-.57l.05,0s.05,0,.05-.06h-.05v0a.21.21,0,0,1,0-.11.33.33,0,0,0,.11-.27,0,0,0,0,1,0,0c.07,0,.13-.15.17-.33a10.56,10.56,0,0,0,.55-1.39,7.88,7.88,0,0,0,.5-1.65h-.05a.17.17,0,0,1,0,.11l-.09,0v0a.63.63,0,0,1,.14-.38h0l0,.18H27s0-.08,0-.21,0,0-.06,0l-.05,0s0-.13,0-.29Zm-.66.79h0c0,.07-.07.11-.11.12v-.08Zm-.23.55c.05-.22.11-.35.16-.38v0c0,.21-.07.32-.14.32v.13a.26.26,0,0,0-.07.16h0v-.18s.05,0,.07-.09Zm-.09.3a.65.65,0,0,1-.06.21h0V13C25.85,12.92,25.88,12.87,25.91,12.87Zm-1.5,3.32,0,.05s.06,0,.05-.05v0h0l-.05,0Zm.72.6v0s.08-.08.12-.22l-.05,0a1,1,0,0,0-.06.21Zm4.62.16v0l0,.05.09,0h0v-.05h0l0,0s.1,0,0-.05S29.79,16.94,29.75,16.94Zm.18.16H30s-.08,0-.11,0h0v.05Zm-2.18,0,0,0s0,0,0,0l0,.05h-.11S27.72,17.16,27.74,17.15Zm-.37,0a.06.06,0,0,1,.07.06h-.13v0Zm.29,0v0h-.11v0Zm-1.06.11s0,0,0,0l.23,0s0,0,0,0l-.47,0,0,0v0H26.3v0h.16l.15,0Zm.48,0v0s0,0,0,0a.91.91,0,0,0-.18,0v0Zm.12,0v0h-.09v0Zm-2.92.47v.08s-.05,0-.06-.05v0Zm3.91-.07v.05h.09l0,0v0l.09,0c.63-.07.7,0,.69-.11v0a3.76,3.76,0,0,1-.84.13Zm1-.09.09,0v-.05l-.09,0Zm-2.7.18s0,0,0,0l.32,0v0a.36.36,0,0,0-.17,0,0,0,0,0,0,0,0h-.14v0s0,0,0,0Zm1.48,0,0,.05c.11,0,0,0,.07,0s0,0,0,0h.07v-.05h-.19v0Zm-1.81.2h0v-.05h0Zm-1.43.17v0l.84-.07V18l-.67.05-.14,0Zm.94-.05h0V18h0ZM12.86,13.6a10.26,10.26,0,0,0-.92,1.17c-.24.25-.36.4-.35.45s-.09.08-.08.13a0,0,0,0,1,0,0,.71.71,0,0,1-.46.32l-.21.05s0,0,0,.06v0l.08,0v0l-.18.07-.32.07h-.17s.13,0,.07,0L10,16c-.13,0-.2,0-.21,0h0c0,.05,0,.08,0,.09h0l0-.08-.38.09,0,0s0,0-.06,0l-.05,0H9.27l-.1.05H9.11c-.16.09,0,.09-.05.09v.05l.09,0h.14v.06c-.52.14-.14.06-.28.09H9v.05l.08,0v0a.38.38,0,0,0-.18.07v0a.79.79,0,0,0-.41.31c0,.1-.27.22,1.12-.1h.16s0,0,0,0,.08,0,.18,0l.3-.07-.06,0s0,0,0,0a.24.24,0,0,0,.11,0l0,.08L9.17,18.57l-.26.33-.13.43h0l.13-.05,0,.17v.05l0,0s0,0,0,0v0H9c.08-.07.11-.13.1-.19h.17v0q-.08,0-.08.12v0h0c.43-.47,1.49-2.08,2.34-3.18q0-.18,1.33-.49h0a2.85,2.85,0,0,1-.21,1,3.16,3.16,0,0,0-.16.54,4,4,0,0,0-.21.72L12,19.27A9.42,9.42,0,0,0,11.52,21h.09l0,0s0,0,0,0l0-.08h.14s.08-.06.11-.16,0-.22.09-.24a2.29,2.29,0,0,1,.16-.52,2.29,2.29,0,0,1,.18-.58c.12-.44.21-.67.27-.68v.05l-.09.23a11.35,11.35,0,0,1-.47,1.64l0,.2h0a42.59,42.59,0,0,0,1.67-4.93.65.65,0,0,1,.31-.5l0,0v0a.28.28,0,0,0,.17-.1s-.08,0-.22-.08l.43-1.84a12.32,12.32,0,0,0,.26-1.45v0a1,1,0,0,1-.25-.23V11.5h0c-.26.4-.79,1.1-1.58,2.1Zm.61.42a1.17,1.17,0,0,1-.11.53c0,.33-.15.52-.35.57v0l-.18.07-.08,0a.19.19,0,0,1-.11,0l0-.07A10.6,10.6,0,0,1,13.4,14ZM13,15.15h.06v.05l-.48.14-.08,0s0,0-.11,0,.19-.12.6-.22Zm-2.84.77h.06v-.05h-.06ZM11,15.7v.05h-.14v0l.13,0Zm-1.6.53v0l-.09,0v0Zm-.16.33v0l-.11,0v-.05Zm.25-.05v0l-.19,0v0Zm.33-.05v0l-.5.11v-.05c.29-.05.26,0,.51-.09Zm2.52-.58,0,0a.28.28,0,0,0-.13.05h-.06L12,16h-.05a.05.05,0,0,1-.07,0l.38-.09.13-.06Zm.27-.06.27-.06v0a1.51,1.51,0,0,0-.34.11v0Zm-2.83.77.13,0v.05c-.05,0,0,0-.08,0a1.31,1.31,0,0,0-.32,0v0Zm.35-.06s.06,0,.06,0l-.08,0s-.05,0-.07,0l.08,0ZM8.74,19.4v0s.05,0,0-.06v0A.05.05,0,0,0,8.74,19.4Zm.11.46a0,0,0,0,0,.06,0s.05,0,0-.06v0H8.9l0,0ZM24.14,12l.21-.06c.08,0,.12,0,.12.05a1,1,0,0,1,.26-.05v0h-.21l-.41.07h-.18s0,0,.05.06ZM11.76,20.64a0,0,0,0,1,.06,0v0l-.11,0a.18.18,0,0,0,0-.08ZM16,12.19a8.91,8.91,0,0,1-.81.51v.05l.08,0a0,0,0,0,1,.06,0l.05,0h0v0a2.89,2.89,0,0,1-.56.44l0,.05h0l-.06,0s0,0-.08,0v0l.06.07-.09,0a.54.54,0,0,0-.36.26l0,.05a.74.74,0,0,1,.18-.15v.08l-.08,0,.07.1a2.07,2.07,0,0,1,.41-.35c.07,0,.11,0,.11.07h.05a4.43,4.43,0,0,1,1.21-.65v.05c-.07.11-.12.16-.15.17a.26.26,0,0,0,0,.1,9.75,9.75,0,0,1-.54,1.37,38,38,0,0,1-2.1,4.35.16.16,0,0,0,0,.08.68.68,0,0,0,.26-.1h0v.05h.06l.05,0s0,0,.05,0v.05a.52.52,0,0,1-.09.24,1.17,1.17,0,0,0-.19.41v0h.05a3.25,3.25,0,0,0,.52-.75,8.53,8.53,0,0,0,1.52-.57,1.44,1.44,0,0,0,.8-.27v0l-.14,0h0v0a1.15,1.15,0,0,0,.53-.17c.5-.39.88-.66,1.14-.82.79-.58,1.17-1.14,1.12-1.68a3.13,3.13,0,0,0-.53-.66q0-.11.36-.32l.69-.6a1.74,1.74,0,0,0,.27-1v-.1c0-.31-.25-.55-.67-.74a2.7,2.7,0,0,0-1.34-.28,7.61,7.61,0,0,0-2.08.57Zm3.72,0,0,.05L18.92,12c.52,0,.78.11.79.27ZM16.6,14.37c.05-.29.11-.45.18-.48l.58-1.3c0-.08.11-.14.37-.19h.08v.08l.46-.07c.46,0,.69.05.71.27H19v-.12h.05a.35.35,0,0,1,.21.26.46.46,0,0,1-.11.27s-.05,0-.06-.07h-.05l0,.16c-.23.35-.4.53-.5.54s-.15.19-.18.19a3.08,3.08,0,0,1-.59.44,7.62,7.62,0,0,0-1.2.47h-.11v-.05a.66.66,0,0,1,.13-.37Zm3.19-1.6v.05s-.08-.08-.16-.25v-.05C19.67,12.52,19.73,12.61,19.78,12.77Zm-5.06.62v0l-.08,0h0V13.4Zm1.68,0v.08s-.06,0-.1.11v-.05a.27.27,0,0,0,.07-.14Zm-.26.54V14h0v-.1Zm-.06.19q0,.13-.07.14h0a.25.25,0,0,0,0-.14Zm-.12.27v0l0,.08h-.05v0c.05,0,.08,0,.08-.09Zm-.11.24,0,.13h0v-.13Zm2.81.1.11.07a0,0,0,0,1-.05.05.18.18,0,0,0-.11,0v-.08Zm-2.2.29V15h-.11V15Zm1.78.19c.08,0,.11.07.12.1v0a.24.24,0,0,1-.21-.11Zm-2.29.56a6.07,6.07,0,0,0,1.47-.44h.17a1,1,0,0,1,.76.2v.1q-.18.53-.41.63l-.69.56a6.49,6.49,0,0,1-.84.51,6.27,6.27,0,0,1-1.53.7h0q0-.14,1.1-2.25Zm.74-.3v0h-.11v0Zm2.49-.11,0,.21c0,.05-.05.08-.08.08l0-.36C19.14,15.27,19.18,15.29,19.18,15.31ZM15,17.1c0,.17-.07.26-.11.26v0A.27.27,0,0,1,15,17.1Zm.69,1a8.4,8.4,0,0,0,1.66-.87v.05s-.07.09-.23.2a5,5,0,0,0-.81.46c-.5.17-.74.28-.74.32a7.54,7.54,0,0,0-.87.38.26.26,0,0,1-.14,0,.22.22,0,0,1,.12-.21.5.5,0,0,1,.22,0,2.56,2.56,0,0,1,.43-.14v-.05h-.17a1.9,1.9,0,0,1,.47-.22h.08v0c-.14,0-.22.05-.24.13a0,0,0,0,0,.06,0c.11-.05.16-.1.16-.11Zm-.85-.63v0a0,0,0,0,1-.05.06v0s0,0,.05-.05Zm1.3.36a1.23,1.23,0,0,0-.37.16h0v-.05a.55.55,0,0,0,.34-.16s.05,0,.06,0Zm-1.34.37h.08v0l-.08,0H14.7s0,0,.05-.05Zm-.55.31.05,0c0,.16-.07.24-.14.25a.35.35,0,0,0-.17,0v-.08s0,0,.05-.05.05,0,.06.07A1.09,1.09,0,0,1,14.2,18.49ZM5.24,12a9.76,9.76,0,0,1-1.06.67v.07a.28.28,0,0,0,.11,0s.07,0,.07.06l.07,0h0v0a4.1,4.1,0,0,1-.74.58l0,.06h0l-.08,0s0,0-.11,0v0l.08.09-.11,0a.71.71,0,0,0-.47.35l0,.06a1,1,0,0,1,.24-.19v.1l-.11,0,.09.13a2.56,2.56,0,0,1,.54-.45c.1,0,.15.05.15.09h.07a5.79,5.79,0,0,1,1.59-.86v.07c-.1.15-.16.22-.2.22a.28.28,0,0,0,.05.13A12.24,12.24,0,0,1,4.82,15,50.86,50.86,0,0,1,2,20.72a.27.27,0,0,0,0,.1,1,1,0,0,0,.35-.13h0v.07h.07l.07,0s0,0,.07,0v.07a.61.61,0,0,1-.12.32,1.64,1.64,0,0,0-.24.53v0h.07a4.39,4.39,0,0,0,.68-1,10.92,10.92,0,0,0,2-.75,1.87,1.87,0,0,0,1.05-.36v0L6,19.59h0v0a1.58,1.58,0,0,0,.7-.23c.66-.51,1.16-.87,1.5-1.09,1-.77,1.54-1.51,1.48-2.21a4.13,4.13,0,0,0-.69-.86c0-.1.15-.23.47-.42l.91-.8a2.36,2.36,0,0,0,.37-1.26v-.14c0-.41-.33-.74-.89-1A3.44,3.44,0,0,0,8,11.22,10.82,10.82,0,0,0,5.24,12Zm4.9.06,0,.07-1-.42q1,0,1,.36ZM6,14.84c.07-.37.15-.59.23-.64L7,12.5c0-.11.15-.19.48-.24h.11v.1l.61-.09c.6-.05.91.07.94.37h.07v-.17h.07a.45.45,0,0,1,.28.36.53.53,0,0,1-.16.36s-.07,0-.08-.1H9.28l0,.21c-.31.46-.53.69-.66.7q-.18.25-.23.26a4.18,4.18,0,0,1-.79.58A10.24,10.24,0,0,0,6,15.42a.26.26,0,0,0-.15,0v-.06a.85.85,0,0,1,.18-.5Zm4.2-2.1v.06s-.11-.11-.21-.32v-.06C10.09,12.4,10.16,12.51,10.23,12.74Zm-6.67.81v0l-.11,0h0v-.06Zm2.21-.05v.1s-.08.05-.13.15v-.07a.34.34,0,0,0,.1-.18Zm-.34.71v.14h0v-.14Zm-.09.25c0,.11,0,.17-.1.18h0a.35.35,0,0,0,.06-.17Zm-.15.36v0L5.14,15H5.07v0a.09.09,0,0,0,.1-.11ZM5,15.13l0,.17H5v-.17Zm3.7.12.15.09a.06.06,0,0,1-.06.08.3.3,0,0,0-.15-.06v-.1Zm-2.9.39v.06H5.71v-.06Zm2.34.24c.1,0,.15.09.16.13v0a.3.3,0,0,1-.26-.15Zm-3,.74A8,8,0,0,0,7.11,16l.21,0a1.24,1.24,0,0,1,1,.26v.14c-.16.47-.35.75-.54.84L6.88,18a8.93,8.93,0,0,1-1.1.68,8.17,8.17,0,0,1-2,.93h0c0-.13.52-1.11,1.45-3Zm1-.39v0H6v0Zm3.28-.15,0,.27c0,.07-.06.11-.1.11l0-.47C9.39,16,9.43,16.05,9.43,16.09ZM3.88,18.44c0,.23-.1.35-.15.36v0a.39.39,0,0,1,.15-.32Zm.91,1.29A11.7,11.7,0,0,0,7,18.59v.06s-.1.11-.31.26a5.55,5.55,0,0,0-1.07.61c-.66.23-1,.37-1,.42a11,11,0,0,0-1.15.51.42.42,0,0,1-.19-.05.3.3,0,0,1,.16-.29.58.58,0,0,1,.29,0A2.82,2.82,0,0,1,4.31,20v-.07l-.21,0a3.07,3.07,0,0,1,.63-.29h.11v0c-.18,0-.29.07-.31.17a.06.06,0,0,0,.07.06.88.88,0,0,0,.2-.16ZM3.67,18.9v0a.06.06,0,0,1-.06.08v0A.07.07,0,0,1,3.67,18.9Zm1.71.47a1.62,1.62,0,0,0-.49.21h0v-.07a.69.69,0,0,0,.45-.21C5.34,19.31,5.37,19.33,5.37,19.37Zm-1.77.49h.11v0a.28.28,0,0,0-.11,0H3.54S3.56,19.88,3.6,19.86Zm-.73.41.08,0c0,.21-.09.31-.19.32a.47.47,0,0,0-.22,0v-.1s0-.06.07-.08.07,0,.08.1a1.5,1.5,0,0,1,.2-.22Zm20.26-9-.06,0-1,.15a.25.25,0,0,0-.13,0l-.26.05-.47.2,0,.06.1,0h.16l0,.16a.41.41,0,0,0-.26.3q-.34.15-.34.22v0h0l.06,0,.07.09v.12s-.38.85-1.16,2.45-1,2.37-1.06,2.53c-.23.06-.37.16-.4.28s.07.06.21.08V18l-.06.1v.12c0,.06.17.11.5.15,0,0,0,0,0,0a1.85,1.85,0,0,1-.06.44h0a.79.79,0,0,0,.2-.39h0s.07,0,.11.12a5,5,0,0,0-.43,1l0,.06h0a7.63,7.63,0,0,1,.58-1.28L21.77,18l.06,0s0,0,0,0h.06l.06,0s0,0,0,0l.74-.06c.2,0,.29-.08.28-.18s.11-.06.35-.09l.1,0s.11,0,.35-.06c0-.12,0-.19.12-.2v-.06l-.23.05a1.2,1.2,0,0,1-.3,0l-.1,0-.52,0-.06,0s0,0,0,0h0l-.07,0s-.05,0-.16,0l-.06,0h-.13v0c.67-.07,1-.16,1-.27s.06,0,.07.06l.2-.05V17.1l-1.6,0s0,0,0,0l-.2,0a.21.21,0,0,0-.12,0l-.07,0a2.31,2.31,0,0,0-.45.07,3.08,3.08,0,0,0-.46,0l-.36,0-.16,0a8.14,8.14,0,0,1,.62-1.56,1.37,1.37,0,0,1,.34-.58l.1,0,.26-.09.13,0a3.09,3.09,0,0,0,.77-.19.42.42,0,0,1,.16,0l.2,0,.58-.05a4.12,4.12,0,0,0,.8-.16v-.06c-.11,0-.16,0-.17-.05s-.09-.11-.24-.1v-.06l.16,0,.42,0v-.06h-.26v-.06h.16s.06,0,.06-.06c-.22,0-.33,0-.33,0a14.32,14.32,0,0,1-2.28,0l-.1,0,0-.06a5,5,0,0,1,.71-1.29.34.34,0,0,1-.05.16v0h.06c.16-.38.29-.58.41-.59.47,0-.07-.07,1-.23l.09,0c.4-.08,1-.16,1.68-.25v-.06l-.38,0v-.06a.2.2,0,0,0,.11,0v0a.16.16,0,0,0,.09,0,.3.3,0,0,1,.15,0,2.05,2.05,0,0,1,.32-.06l.24,0c.06,0,.09-.07.08-.1v0h-.21s0-.05.05-.06l.44,0,.21-.05s0,0,0,0a.16.16,0,0,0,.09,0h.18a.89.89,0,0,1,.28-.18.22.22,0,0,1-.07-.11l-.3,0a.27.27,0,0,0,0-.09s.06-.05.2-.08l.06,0,.05,0a0,0,0,0,0,0,0l.05,0a0,0,0,0,0,0,0h0v-.06h-.32l-.05,0v0l-2.37.2h-.29s0,0-.06,0l-.06,0-.21.05h-.24a.23.23,0,0,1-.11,0s1.11-.06,1.07-.08l-.18.05h0a1.46,1.46,0,0,1-.27,0,.28.28,0,0,1-.15,0,.2.2,0,0,1-.12,0l-.44.1Zm.07.18s0,0,.06,0v.06h-.06a.2.2,0,0,1-.12,0,.21.21,0,0,1-.11,0h0l-.16,0v0a1.45,1.45,0,0,0,.38-.07Zm.15,0h0v.06H23.3A.06.06,0,0,1,23.36,11.46Zm.35,0v0l-.26.05h0l0-.06.26,0Zm-2.59.3h.1v-.06h-.1Zm.72-.06h0l.07,0a.05.05,0,0,1-.06.06h-.1v0S21.79,11.67,21.83,11.66Zm2.3.13v0l-.21,0v0Zm-.59.09v0h-.12v0Zm.16.14s.06,0,.06.05l-.17,0V12Zm.44-.06L24,12l0,0-.64,0v0L24.41,12v0Zm-.74.12v0l-.23,0v0Zm-1.53,1.21v0h.07a.24.24,0,0,1,0-.1v-.06s-.07,0-.09.13Zm-2.35,3.42v0s0,.06-.06.07v0S19.48,16.72,19.52,16.71Zm-.06.13a1.68,1.68,0,0,1-.12.44h-.1a1.94,1.94,0,0,1,.16-.44Zm1.1,1s-.05.07-.16.11h-.26v-.06l.42,0Zm.2,0v0H20.6v0Z" style="fill:#f4d44b"/></g></svg>