<svg id="Layer_1" data-name="Layer 1" xmlns="http://www.w3.org/2000/svg" viewBox="0 0 28 28">
  <title>file_type_purescript@2x</title>
  <g id="purescript">
    <rect width="28" height="28" style="fill: #16171b"/>
    <polygon points="19.26 19.48 17.31 17.66 8.74 17.66 10.69 19.48 19.26 19.48" style="fill: #fff"/>
    <polygon points="10.69 13.09 8.74 14.91 17.31 14.91 19.26 13.09 10.69 13.09" style="fill: #fff"/>
    <polygon points="19.26 10.35 17.31 8.52 8.74 8.52 10.69 10.35 19.26 10.35" style="fill: #fff"/>
    <path d="M9.84,14.15L8.55,12.86,3.77,17.64a0.91,0.91,0,0,0,0,1.29h0l4.78,4.78,1.29-1.29L5.7,18.28Z" transform="translate(-2 -2)" style="fill: #fff"/>
    <path d="M28.23,13.07L23.45,8.29,22.17,9.58l4.13,4.14-4.13,4.14,1.29,1.29,4.78-4.78a0.91,0.91,0,0,0,0-1.29h0Z" transform="translate(-2 -2)" style="fill: #fff"/>
  </g>
</svg>
