<svg viewBox="0 0 32 32" xmlns="http://www.w3.org/2000/svg" xmlns:xlink="http://www.w3.org/1999/xlink"><radialGradient id="a" cx="26.508" cy="-543.31" gradientTransform="matrix(1.293 .001 .001 -1.234 -20.084 -658.573)" gradientUnits="userSpaceOnUse" r="12.833"><stop offset="0" stop-color="#576e71" stop-opacity=".98"/><stop offset="1" stop-color="#26424e"/></radialGradient><path d="m3.167 3.517h25.667v24.967h-25.667z" fill="url(#a)"/><path d="m2 2.35v27.3h28v-27.3zm1.167 1.167h25.667v24.966h-25.667zm10.669 17.549a.194.194 0 0 1 -.135.212 6.028 6.028 0 0 1 -2.125.288c-3 0-5.653-1.961-5.653-6.576 0-3.961 2.346-6.615 5.922-6.615a5.234 5.234 0 0 1 1.991.269c.1.038.115.1.115.212v1.654c0 .154-.077.154-.135.135a4.529 4.529 0 0 0 -1.953-.365c-2.25 0-3.75 1.711-3.75 4.653 0 3.634 2.057 4.711 3.75 4.711a5.239 5.239 0 0 0 1.836-.25c.077-.038.135-.038.135.1v1.577zm.746-6.975c-.077 0-.076-.038-.076-.135v-1.585c0-.1.019-.115.1-.115h1.069v-.6a3.946 3.946 0 0 1 .385-1.842 2.521 2.521 0 0 1 2.481-1.423 2.126 2.126 0 0 1 .777.1.15.15 0 0 1 .115.173v1.536c0 .1-.038.135-.135.115a2.45 2.45 0 0 0 -.526-.058c-.673 0-1 .481-1 1.4v.593h1.528c.1 0 .133.019.133.1v1.6c0 .1-.019.115-.115.135h-1.548v7.183c0 .077-.019.129-.135.129h-1.829a.121.121 0 0 1 -.135-.135v-7.171h-1.088zm11.5 6.881a.169.169 0 0 1 -.082.168 4.416 4.416 0 0 1 -2.066.247c-2.654 0-4.012-2.1-4.012-4.731 0-2.758 1.782-4.806 4.338-4.806a4.085 4.085 0 0 1 1.7.227c.065.037.081.075.081.186l-.016 1.509c0 .112-.049.13-.114.093a3.352 3.352 0 0 0 -1.521-.227c-1.465 0-2.393 1.209-2.393 2.961 0 2.068 1.14 2.942 2.344 2.942a3.943 3.943 0 0 0 1.626-.173c.081-.019.114.019.114.093v1.509" fill="#e5f3fc"/></svg>