<svg xmlns="http://www.w3.org/2000/svg" viewBox="0 0 32 32"><title>file_type_light_gradle</title><path d="M28.477,7.021a4.436,4.436,0,0,0-6.169-.1.413.413,0,0,0-.133.3.427.427,0,0,0,.123.307l.56.559a.423.423,0,0,0,.553.039,2.517,2.517,0,0,1,1.522-.508,2.545,2.545,0,0,1,1.8,4.343C23.22,15.493,18.5,5.618,7.829,10.7a1.449,1.449,0,0,0-.7,1.924,1.129,1.129,0,0,0,.057.109L9.013,15.9a1.452,1.452,0,0,0,1.962.54l.046-.026-.036.026.812-.456a18.635,18.635,0,0,0,2.557-1.9.443.443,0,0,1,.582-.019.417.417,0,0,1,.06.587.425.425,0,0,1-.06.06,19.372,19.372,0,0,1-2.674,2.017l-.029.016-.811.453a2.263,2.263,0,0,1-1.122.294A2.324,2.324,0,0,1,8.285,16.33L6.552,13.342C3.229,15.69,1.211,20.213,2.294,25.936a.424.424,0,0,0,.417.343H4.68a.421.421,0,0,0,.434-.369,2.89,2.89,0,0,1,5.732,0,.421.421,0,0,0,.411.369h1.92a.425.425,0,0,0,.421-.369,2.887,2.887,0,0,1,5.729,0,.42.42,0,0,0,.417.369h1.9a.419.419,0,0,0,.42-.414c.046-2.677.767-5.752,2.826-7.291C32,13.245,30.126,8.677,28.477,7.021Zm-7.265,8.061v0L19.854,14.4a.854.854,0,1,1,1.358.685Z" style="fill:#02303a"/></svg>