<svg xmlns="http://www.w3.org/2000/svg" viewBox="0 0 32 32"><title>file_type_lighthouse</title><path d="M3,24.967c2.25,0,2.25-1.485,4.5-1.485s2.25,1.485,4.5,1.485,2.25-1.485,4.5-1.485,2.251,1.485,4.5,1.485,2.25-1.485,4.5-1.485c2.132,0,2.239,1.332,4.147,1.474A14.264,14.264,0,0,0,19.094,7.885,14,14,0,0,0,2.347,18.632a14.606,14.606,0,0,0-.011,6.281,4.8,4.8,0,0,0,.675.054Z" style="fill:#304ffe"/><path d="M14.626,9.316h3.643v3.44H14.626Z" style="fill:#ffd54f"/><path d="M14.626,9.316h1.286v3.44H14.626Z" style="fill:#fff176"/><ellipse cx="15.88" cy="10.167" rx="0.857" ry="1.092" style="fill:#fff176"/><path d="M14.541,8.922a1.886,1.886,0,1,1,3.771,0" style="fill:#f4511e"/><path d="M14.412,8.857h4.007a.251.251,0,0,1,0,.5H14.412a.244.244,0,0,1-.246-.251A.251.251,0,0,1,14.412,8.857Z" style="fill:#f4511e"/><path d="M14.1,23.351l.525-10.628h3.643l.472,10.1Z" style="fill:#c5cae9"/><path d="M18.323,13.542l.139,2.818" style="fill:none"/><path d="M14.487,15.367l-.139,2.949,4.114-1.956-.139-2.818Z" style="fill:#ff7043"/><path d="M18.6,19.124l.139,2.818" style="fill:none"/><path d="M14.2,21.221l-.15,2.949,4.693-2.228L18.6,19.124Z" style="fill:#ff7043"/><path d="M14.069,11.161h4.7v1.573h-4.7Z" style="fill:#e64a19"/><path d="M14.069,11.161h3.086v1.573H14.069Z" style="fill:#f4511e"/><path d="M22.352,10.725a.925.925,0,0,1,.353.076,1.484,1.484,0,0,1,2.872-.393,1.016,1.016,0,0,1,0,2.031H22.352a.85.85,0,0,1-.847-.863.84.84,0,0,1,.847-.851Z" style="fill:#2979ff"/><path d="M12.762,18.938a.706.706,0,0,1,.3.066,1.253,1.253,0,0,1,2.432-.339.864.864,0,0,1,.086,1.726H12.773a.717.717,0,0,1-.686-.754.7.7,0,0,1,.675-.7Z" style="fill:#448aff"/><circle cx="19.769" cy="9.042" r="0.15" style="fill:#fdd835"/><circle cx="4.576" cy="21.363" r="0.15" style="fill:#fdd835"/><circle cx="5.979" cy="18.239" r="0.15" style="fill:#fdd835"/><circle cx="6.922" cy="17.431" r="0.15" style="fill:#fdd835"/><circle cx="10.897" cy="13.816" r="0.15" style="fill:#fdd835"/><circle cx="23.466" cy="14.252" r="0.15" style="fill:#fdd835"/><circle cx="29.434" cy="20.718" r="0.15" style="fill:#fdd835"/><circle cx="8.379" cy="13.346" r="0.15" style="fill:#fdd835"/><circle cx="21.795" cy="20.784" r="0.15" style="fill:#fdd835"/><circle cx="26.391" cy="16.907" r="0.15" style="fill:#fdd835"/><path d="M14.691,9.261S7.565,8.245,7.544,8.245a15.735,15.735,0,0,0-4.715,4.806L14.68,11.282Z" style="fill:#ffe082;opacity:0.5;isolation:isolate"/><path d="M12.033,25c2.25,0,2.25-1.485,4.5-1.485S18.784,25,21.034,25c1.907,0,2.2-1.07,3.621-1.4a17.155,17.155,0,0,0-8.068-1.769,17.2,17.2,0,0,0-8.111,1.791C9.847,23.962,10.147,25,12.033,25Z" style="fill:#00c853"/><path d="M12.044,24.978c2.25,0,2.25-1.485,4.5-1.485h.043l-.021-1.639A17.2,17.2,0,0,0,8.529,23.6C9.869,23.951,10.18,24.978,12.044,24.978Z" style="fill:#64dd17"/></svg>