
<svg xmlns:svg="http://www.w3.org/2000/svg" xmlns="http://www.w3.org/2000/svg" viewBox="0 0 32 32" version="1.1">
<style>
.X{
	fill:#68b;
	stroke-linejoin:round;
	stroke-width:0.1;
	stroke:#67c;
}
.Y{
	fill:#78c;
	stroke-linejoin:round;
	stroke-width:0.1;
	stroke:#67c;
}
.Z{
	fill:#fd5;
	stroke-linejoin:round;
	stroke-width:0.1;
	stroke:#67c;
}
</style>
  <title>
    file_type_numpy
  </title>
  <path d="m8.76 8.184-0.083-4.167 4.108 0.724 0.083 4.167z" class="X"/>
  <path d="M10.71 2.439 14.817 3.163 12.784 4.741 8.676 4.017zM14.817 3.163l0.083 4.167-2.033 1.578-0.084-4.167M14.817 3.163l0.083 4.167-2.033 1.578-0.084-4.167" class="Y"/>
  <path d="m14.817 3.163 0.083 4.167-2.033 1.578-0.084-4.167z" class="Y"/>
  <path d="M17.414 9.752 13.307 9.028 13.223 4.861 17.331 5.585z" class="X"/>
  <path d="m13.223 4.861 2.033-1.578 4.108 0.724-2.033 1.578zM17.331 5.585l2.033-1.578 0.083 4.167-2.033 1.578M17.331 5.585l2.033-1.578 0.083 4.167-2.033 1.578" class="Y"/>
  <path d="m17.331 5.585 2.033-1.578 0.083 4.167-2.033 1.578z" class="Y"/>
  <path d="M22.052 10.596 17.945 9.872 17.861 5.705 21.969 6.429z" class="X"/>
  <path d="m17.861 5.705 2.033-1.578 4.108 0.724-2.033 1.578zM21.969 6.429l2.033-1.578 0.083 4.167-2.033 1.578M21.969 6.429l2.033-1.578 0.083 4.167-2.033 1.578" class="Y"/>
  <path d="m21.969 6.429 2.033-1.578 0.083 4.167-2.033 1.578z" class="Y"/>
  <path d="m26.882 25.241-4.108-0.725-0.083-4.167 4.108 0.724z" class="X"/>
  <path d="m22.691 20.35 2.033-1.578 4.108 0.724-2.033 1.578zM26.799 21.074l2.033-1.578 0.083 4.167-2.033 1.578M26.799 21.074l2.033-1.578 0.083 4.167-2.033 1.578" class="Y"/>
  <path d="m26.799 21.074 2.033-1.578 0.083 4.167-2.033 1.578z" class="Y"/>
  <path d="m26.792 20.638-4.108-0.725-0.083-4.167 4.108 0.724z" class="X"/>
  <path d="m22.601 15.747 2.033-1.578 4.108 0.724-2.033 1.578zM26.709 16.471l2.033-1.578 0.083 4.167-2.033 1.578M26.709 16.471l2.033-1.578 0.083 4.167-2.033 1.578" class="Y"/>
  <path d="m26.709 16.471 2.033-1.578 0.083 4.167-2.033 1.578z" class="Y"/>
  <path d="m26.755 16.02-4.108-0.725-0.083-4.167 4.108 0.724z" class="X"/>
  <path d="m22.564 11.129 2.033-1.578 4.108 0.724-2.033 1.578zM26.672 11.853l2.033-1.578 0.083 4.167-2.033 1.578M26.672 11.853l2.033-1.578 0.083 4.167-2.033 1.578" class="Y"/>
  <path d="m26.672 11.853 2.033-1.578 0.083 4.167-2.033 1.578z" class="Y"/>
  <path d="m26.582 7.25 0.083 4.167-4.108-0.725-0.083-4.167z" class="X"/>
  <path d="m26.582 7.25-4.108-0.724 2.033-1.578 4.108 0.724zM26.665 11.417l-0.084-4.167 2.033-1.578 0.083 4.167M26.665 11.417l-0.084-4.167 2.033-1.578 0.083 4.167" class="Y"/>
  <path d="m26.665 11.417-0.084-4.167 2.033-1.578 0.083 4.167z" class="Y"/>
  <path d="M5.964 10.344 5.88 6.177 9.988 6.901 10.071 11.068z" class="X"/>
  <path d="M7.914 4.599 12.021 5.323 9.988 6.901 5.88 6.177zM12.021 5.323l0.083 4.167-2.033 1.578-0.084-4.167M12.021 5.323l0.083 4.167-2.033 1.578-0.084-4.167" class="Y"/>
  <path d="m12.021 5.323 0.083 4.167-2.033 1.578-0.084-4.167z" class="Y"/>
  <path d="m14.618 11.912-4.108-0.725-0.083-4.167 4.108 0.724z" class="X"/>
  <path d="m10.427 7.021 2.033-1.578 4.108 0.724-2.033 1.578zM14.535 7.745l2.033-1.578 0.083 4.167-2.033 1.578M14.535 7.745l2.033-1.578 0.083 4.167-2.033 1.578" class="Y"/>
  <path d="m14.535 7.745 2.033-1.578 0.083 4.167-2.033 1.578z" class="Y"/>
  <path d="m19.256 12.756-4.108-0.725-0.083-4.167 4.108 0.724z" class="X"/>
  <path d="m15.065 7.865 2.033-1.578 4.108 0.724-2.033 1.578zM19.173 8.589l2.033-1.578 0.083 4.167-2.033 1.578M19.173 8.589l2.033-1.578 0.083 4.167-2.033 1.578" class="Y"/>
  <path d="m19.173 8.589 2.033-1.578 0.083 4.167-2.033 1.578z" class="Y"/>
  <path d="m24.086 27.401-4.108-0.725-0.083-4.167 4.108 0.724z" class="X"/>
  <path d="m19.895 22.51 2.033-1.578 4.108 0.724-2.033 1.578zM24.003 23.234l2.033-1.578 0.083 4.167-2.033 1.578M24.003 23.234l2.033-1.578 0.083 4.167-2.033 1.578" class="Y"/>
  <path d="m24.003 23.234 2.033-1.578 0.083 4.167-2.033 1.578z" class="Y"/>
  <path d="m23.996 22.798-4.108-0.725-0.083-4.167 4.108 0.724z" class="X"/>
  <path d="m19.805 17.907 2.033-1.578 4.108 0.724-2.033 1.578zM23.913 18.631l2.033-1.578 0.083 4.167-2.033 1.578M23.913 18.631l2.033-1.578 0.083 4.167-2.033 1.578" class="Y"/>
  <path d="m23.913 18.631 2.033-1.578 0.083 4.167-2.033 1.578z" class="Y"/>
  <path d="m23.959 18.18-4.108-0.725-0.083-4.167 4.108 0.724z" class="X"/>
  <path d="m19.768 13.289 2.033-1.578 4.108 0.724-2.033 1.578zM23.876 14.013l2.033-1.578 0.083 4.167-2.033 1.578M23.876 14.013l2.033-1.578 0.083 4.167-2.033 1.578" class="Y"/>
  <path d="m23.876 14.013 2.033-1.578 0.083 4.167-2.033 1.578z" class="Y"/>
  <path d="m23.786 9.41 0.083 4.167-4.108-0.725-0.083-4.167z" class="X"/>
  <path d="M23.786 9.41 19.678 8.686 21.712 7.108 25.819 7.832zM23.869 13.577l-0.084-4.167 2.033-1.578 0.083 4.167M23.869 13.577l-0.084-4.167 2.033-1.578 0.083 4.167" class="Y"/>
  <path d="m23.869 13.577-0.084-4.167 2.033-1.578 0.083 4.167z" class="Y"/>
  <path d="m3.386 26.329-0.083-4.167 4.108 0.724 0.083 4.167z" class="Z"/>
  <path d="M5.336 20.584 9.443 21.308 7.41 22.886 3.302 22.162zM9.443 21.308l0.083 4.167-2.033 1.578-0.084-4.167M9.443 21.308l0.083 4.167-2.033 1.578-0.084-4.167" class="Y"/>
  <path d="m9.443 21.308 0.083 4.167-2.033 1.578-0.084-4.167z" class="Y"/>
  <path d="m7.32 18.283 0.083 4.167-4.108-0.725-0.083-4.167z" class="Z"/>
  <path d="M7.32 18.283 3.212 17.559 5.246 15.981 9.353 16.705z" class="Y"/>
  <path d="M7.403 22.45 7.32 18.283 9.353 16.705 9.437 20.872z" class="Y"/>
  <path d="M7.282 13.664 7.365 17.831 3.258 17.107 3.174 12.94z" class="Z"/>
  <path d="M7.282 13.664 3.174 12.94 5.208 11.362 9.315 12.086zM7.365 17.831l-0.084-4.167 2.033-1.578 0.083 4.167M7.365 17.831l-0.084-4.167 2.033-1.578 0.083 4.167" class="Y"/>
  <path d="m7.365 17.831-0.084-4.167 2.033-1.578 0.083 4.167z" class="Y"/>
  <path d="M3.168 12.504 3.084 8.337 7.192 9.061 7.275 13.228z" class="Z"/>
  <path d="M5.118 6.759 9.225 7.483 7.192 9.061 3.084 8.337zM9.225 7.483l0.083 4.167-2.033 1.578-0.084-4.167M9.225 7.483l0.083 4.167-2.033 1.578-0.084-4.167" class="Y"/>
  <path d="m9.225 7.483 0.083 4.167-2.033 1.578-0.084-4.167z" class="Y"/>
  <path d="M12.04 27.897 7.933 27.173 7.849 23.006 11.957 23.73z" class="X"/>
  <path d="m7.849 23.006 2.033-1.578 4.108 0.724-2.033 1.578zM11.957 23.73l2.033-1.578 0.083 4.167-2.033 1.578M11.957 23.73l2.033-1.578 0.083 4.167-2.033 1.578" class="Y"/>
  <path d="m11.957 23.73 2.033-1.578 0.083 4.167-2.033 1.578z" class="Y"/>
  <path d="m7.759 18.403 4.108 0.724 0.083 4.167-4.108-0.725z" class="X"/>
  <path d="M13.9 17.549 11.867 19.127 7.759 18.403 9.793 16.825zM13.984 21.716l-2.033 1.578-0.084-4.167 2.033-1.578M13.984 21.716l-2.033 1.578-0.084-4.167 2.033-1.578" class="Y"/>
  <path d="m13.984 21.716-2.033 1.578-0.084-4.167 2.033-1.578z" class="Y"/>
  <path d="M7.722 13.784 11.83 14.508 11.913 18.675 7.806 17.951z" class="Z"/>
  <path d="M13.863 12.93 11.83 14.508 7.722 13.784 9.756 12.206zM13.947 17.097l-2.033 1.578-0.084-4.167 2.033-1.578M13.947 17.097l-2.033 1.578-0.084-4.167 2.033-1.578" class="Y"/>
  <path d="m13.947 17.097-2.033 1.578-0.084-4.167 2.033-1.578z" class="Y"/>
  <path d="M11.822 14.072 7.715 13.348 7.631 9.181 11.739 9.905z" class="X"/>
  <path d="M7.631 9.181 9.665 7.603 13.772 8.327 11.739 9.905zM11.739 9.905l2.033-1.578 0.083 4.167-2.033 1.578M11.739 9.905l2.033-1.578 0.083 4.167-2.033 1.578" class="Y"/>
  <path d="m11.739 9.905 2.033-1.578 0.083 4.167-2.033 1.578z" class="Y"/>
  <path d="m16.595 24.574 0.083 4.167-4.108-0.725-0.083-4.167z" class="X"/>
  <path d="m16.595 24.574-4.108-0.724 2.033-1.578 4.108 0.724zM16.678 28.741l-0.084-4.167 2.033-1.578 0.083 4.167M16.678 28.741l-0.084-4.167 2.033-1.578 0.083 4.167" class="Y"/>
  <path d="m16.678 28.741-0.084-4.167 2.033-1.578 0.083 4.167z" class="Y"/>
  <path d="m12.397 19.247 4.108 0.724 0.083 4.167-4.108-0.725z" class="Z"/>
  <path d="m18.538 18.393-2.033 1.578-4.108-0.724 2.033-1.578zM18.622 22.56l-2.033 1.578-0.084-4.167 2.033-1.578M18.622 22.56l-2.033 1.578-0.084-4.167 2.033-1.578" class="Y"/>
  <path d="m18.622 22.56-2.033 1.578-0.084-4.167 2.033-1.578z" class="Y"/>
  <path d="m16.467 15.352 0.083 4.167-4.108-0.725-0.083-4.167z" class="X"/>
  <path d="m16.467 15.352-4.108-0.724 2.033-1.578 4.108 0.724zM16.55 19.519l-0.084-4.167 2.033-1.578 0.083 4.167M16.55 19.519l-0.084-4.167 2.033-1.578 0.083 4.167" class="Y"/>
  <path d="m16.55 19.519-0.084-4.167 2.033-1.578 0.083 4.167z" class="Y"/>
  <path d="m16.46 14.916-4.108-0.725-0.083-4.167 4.108 0.724z" class="X"/>
  <path d="M12.269 10.025 14.303 8.447 18.41 9.171 16.377 10.749zM16.377 10.749l2.033-1.578 0.083 4.167-2.033 1.578M16.377 10.749l2.033-1.578 0.083 4.167-2.033 1.578" class="Y"/>
  <path d="m16.377 10.749 2.033-1.578 0.083 4.167-2.033 1.578z" class="Y"/>
  <path d="m21.29 29.561-4.108-0.725-0.083-4.167 4.108 0.724z" class="Z"/>
  <path d="m17.099 24.67 2.033-1.578 4.108 0.724-2.033 1.578zM21.207 25.394l2.033-1.578 0.083 4.167-2.033 1.578M21.207 25.394l2.033-1.578 0.083 4.167-2.033 1.578" class="Y"/>
  <path d="m21.207 25.394 2.033-1.578 0.083 4.167-2.033 1.578z" class="Y"/>
  <path d="m21.2 24.958-4.108-0.725-0.083-4.167 4.108 0.724z" class="Z"/>
  <path d="m17.009 20.067 2.033-1.578 4.108 0.724-2.033 1.578zM21.117 20.791l2.033-1.578 0.083 4.167-2.033 1.578M21.117 20.791l2.033-1.578 0.083 4.167-2.033 1.578" class="Y"/>
  <path d="m21.117 20.791 2.033-1.578 0.083 4.167-2.033 1.578z" class="Y"/>
  <path d="m21.163 20.34-4.108-0.725-0.083-4.167 4.108 0.724z" class="Z"/>
  <path d="m16.972 15.449 2.033-1.578 4.108 0.724-2.033 1.578zM21.08 16.173l2.033-1.578 0.083 4.167-2.033 1.578M21.08 16.173l2.033-1.578 0.083 4.167-2.033 1.578" class="Y"/>
  <path d="m21.08 16.173 2.033-1.578 0.083 4.167-2.033 1.578z" class="Y"/>
  <path d="m20.99 11.57 0.083 4.167-4.108-0.725-0.083-4.167z" class="Z"/>
  <path d="m20.99 11.57-4.108-0.724 2.033-1.578 4.108 0.724zM21.073 15.737l-0.084-4.167 2.033-1.578 0.083 4.167M21.073 15.737l-0.084-4.167 2.033-1.578 0.083 4.167" class="Y"/>
  <path d="m21.073 15.737-0.084-4.167 2.033-1.578 0.083 4.167z" class="Y"/>
</svg>
