<svg viewBox="0 0 32 32" xmlns="http://www.w3.org/2000/svg"><path d="m26.233 3.588a1.69 1.69 0 1 1 -1.76-1.588 1.67 1.67 0 0 1 1.76 1.585z" fill="#767677"/><path d="m16.375 23.111c-4.487 0-8.43-1.61-10.469-3.988a11.162 11.162 0 0 0 20.938 0c-2.034 2.377-5.962 3.988-10.469 3.988z" fill="#f37726"/><path d="m16.375 7.648c4.487 0 8.43 1.61 10.469 3.988a11.162 11.162 0 0 0 -20.938 0c2.039-2.383 5.963-3.988 10.469-3.988z" fill="#f37726"/><path d="m10.2 27.739a2.109 2.109 0 1 1 -.2-.8 2.129 2.129 0 0 1 .2.8z" fill="#9e9e9e"/><path d="m6.416 7.106a1.226 1.226 0 1 1 1.192-1.276 1.241 1.241 0 0 1 -1.192 1.276z" fill="#616262"/></svg>