<svg xmlns="http://www.w3.org/2000/svg" viewBox="0 0 32 32"><title>file_type_mypy</title><path fill="#2a6db2" d="M15.9 2.07c-7.1 0-6.67 3.09-6.67 3.09l.01 3.19h6.79v.96H6.55S2 8.79 2 15.96c0 7.18 3.97 6.92 3.97 6.92h2.37v-3.33s-.13-3.97 3.9-3.97h6.73s3.78.06 3.78-3.65V5.8s.58-3.72-6.85-3.72zm-3.74 2.15a1.22 1.22 0 1 1 0 2.44 1.22 1.22 0 0 1 0-2.44z"/><path fill="#d2d2d2" d="M16.1 29.93c7.1 0 6.67-3.09 6.67-3.09l-.01-3.19h-6.79v-.96h9.48s4.55.52 4.55-6.65c0-7.18-3.97-6.92-3.97-6.92h-2.37v3.33s.13 3.97-3.9 3.97h-6.73s-3.78-.06-3.78 3.65v6.14s-.58 3.72 6.85 3.72zm3.74-2.15a1.22 1.22 0 1 1 0-2.44 1.22 1.22 0 0 1 0 2.44z"/></svg>