<svg viewBox="0 0 32 32" xmlns="http://www.w3.org/2000/svg"><g fill="#33a9dc"><path d="m16 30a14 14 0 1 1 14-14 14.016 14.016 0 0 1 -14 14zm0-26.824a12.824 12.824 0 1 0 12.824 12.824 12.84 12.84 0 0 0 -12.824-12.824z"/><path d="m2.784 15.412h26.432v1.176h-26.432z"/><path d="m16.317 10.474a44.779 44.779 0 0 1 -11.897-1.554l.34-1.126c.111.034 11.277 3.32 22.427 0l.335 1.127a39.374 39.374 0 0 1 -11.205 1.553z"/><path d="m4.785 23.907-.335-1.126c11.5-3.422 22.634-.14 23.1 0l-.34 1.126c-.11-.034-11.274-3.319-22.425 0z"/><path d="m11.468 28.764a35.454 35.454 0 0 1 -.742-25.71l1.082.461a34.228 34.228 0 0 0 .742 24.785z"/><path d="m20.441 28.764-1.081-.464a34.229 34.229 0 0 0 .74-24.785l1.082-.461a35.461 35.461 0 0 1 -.741 25.71z"/><path d="m15.412 2.783h1.175v26.919h-1.175z"/></g><path d="m14.127 28.901-1.685-18.901h18.516l-1.686 18.898-7.583 2.102z" fill="#1572b6"/><path d="m21.7 29.393 6.127-1.699 1.442-16.149h-7.569z" fill="#33a9dc"/><path d="m21.7 18.393h3.068l.211-2.374h-3.279v-2.318h.008 5.805l-.056.622-.57 6.388h-5.187z" fill="#fff"/><path d="m21.714 24.413-.01.003-2.582-.697-.165-1.849h-1.254-1.073l.325 3.64 4.748 1.318.011-.003z" fill="#ebebeb"/><path d="m24.57 20.613-.279 3.105-2.585.697v2.412l4.752-1.317.035-.392.403-4.505z" fill="#fff"/><path d="m21.708 13.701v1.44.873.005h-5.592-.007l-.047-.521-.105-1.175-.056-.622z" fill="#ebebeb"/><path d="m21.7 18.393v1.44.873.006h-2.542-.007l-.046-.521-.106-1.176-.055-.622z" fill="#ebebeb"/></svg>