<svg xmlns="http://www.w3.org/2000/svg" viewBox="0 0 32 32"><title>file_type_unity</title><path d="M28.143,16.132l1.795-3.039a.637.637,0,0,0,.027-.483L26.41,2.428a.638.638,0,0,0-.751-.41L15.212,4.563a.644.644,0,0,0-.44.384L13.661,7.728H10.273a.636.636,0,0,0-.467.2L2.17,16.2A.636.636,0,0,0,2.2,17.1l8.009,7.636a.625.625,0,0,0,.437.177H14.3l1.113,2.781a.635.635,0,0,0,.483.39L27,29.99a.635.635,0,0,0,.729-.49l2.254-10.328a.633.633,0,0,0-.079-.467Zm-14.482-8.4L22.63,6.085l-4.721,9.279H7.2ZM14.3,24.91l-7.1-7H17.909l5.568,8.379Zm11.5-.065-5.337-8.208L25.12,7.358l3.023,8.777Z" style="fill:#d2d2d2"/></svg>