<svg xmlns="http://www.w3.org/2000/svg" viewBox="0 0 32 32"><path fill="#2e1915" d="M24.099 2H8.837v28h20.91V7.888l-5.579-5.816L24.099 2"/><path fill="#fd3316" d="M2.253 3.493H22.56v7.844H2.253zM24.099 2v5.888h5.648zM16.531 14.811h-2.094a.087.087 0 0 0-.087.081l-.05.657a.047.047 0 0 1-.003.017l-2.895 10.105a.087.087 0 0 0 .084.111h1.518a.087.087 0 0 0 .084-.064l.815-2.99a.087.087 0 0 1 .084-.064h3.08c.039 0 .074.026.084.064l.834 2.991a.088.088 0 0 0 .084.064h1.678c.058 0 .1-.056.084-.112l-3.218-10.796a.084.084 0 0 0-.082-.064zm-2.165 6.199l1.134-4.63 1.2 4.63h-2.334zM20.671 25.782a.087.087 0 0 1-.087-.087l.009-6.521-.041-.884a.087.087 0 0 1 .054-.085c.299-.123 1.729-.682 3.125-.682 1.569 0 2.948.718 2.948 2.873v5.299a.087.087 0 0 1-.087.087h-1.627a.087.087 0 0 1-.087-.087v-5.324s.063-1.254-1.399-1.254c-.37 0-.85.11-1.027.162a.088.088 0 0 0-.063.084v6.332a.087.087 0 0 1-.087.087h-1.631z"/><path d="M11.265 5.131h-.996a.05.05 0 0 0-.046.032l-.522 1.43a.049.049 0 0 1-.092 0l-.522-1.43a.047.047 0 0 0-.045-.032h-1a.049.049 0 0 0-.045.068l.998 2.349a.047.047 0 0 1-.001.04L7.922 9.783a.049.049 0 0 0 .044.07h.975c.02 0 .038-.012.045-.031l.568-1.464c.016-.041.075-.042.091 0l.573 1.465a.048.048 0 0 0 .045.031h.978a.05.05 0 0 0 .045-.069l-1.029-2.317a.049.049 0 0 1 0-.041l1.052-2.226a.05.05 0 0 0-.044-.07zM11.802 5.131h2.296c.025 0 .046.019.048.043l.093.832a.048.048 0 0 1-.048.054h-1.396a.05.05 0 0 0-.049.049v.977a.05.05 0 0 0 .049.049h1.265a.05.05 0 0 1 .049.049v.808a.05.05 0 0 1-.049.049h-1.265a.05.05 0 0 0-.049.049v1.714a.05.05 0 0 1-.049.049h-.896a.05.05 0 0 1-.049-.049V5.18a.05.05 0 0 1 .05-.049zM14.824 5.131h.913a.05.05 0 0 1 .049.049v3.726a.05.05 0 0 0 .049.049h1.434c.03 0 .053.027.048.056l-.121.8a.048.048 0 0 1-.048.041h-2.322a.05.05 0 0 1-.049-.049V5.18a.046.046 0 0 1 .047-.049z" fill="#2e1915"/></svg>