<svg xmlns="http://www.w3.org/2000/svg" viewBox="0 0 32 32"><title>file_type_paket</title><path d="M9.069,5.293c1.728-.016,3.459,0,5.188-.007-.41,1.766-.8,3.536-1.212,5.3q-3.946,0-7.893,0c-.25,0-.5.008-.749-.01C5.954,8.812,7.522,7.061,9.069,5.293Z" style="fill:#cbedf2"/><path d="M17.846,5.287q2.586,0,5.172,0c1.553,1.767,3.123,3.52,4.671,5.291-1,.021-2,0-2.992.009q-2.826,0-5.651,0C18.652,8.819,18.233,7.057,17.846,5.287Z" style="fill:#cbedf2"/><path d="M14.257,5.287q1.794,0,3.589,0c.388,1.769.806,3.532,1.2,5.3-2,0-4,0-6,0C13.453,8.823,13.847,7.053,14.257,5.287Z" style="fill:#016fd2"/><path d="M4.4,10.578c.249.018.5.009.749.01q3.946,0,7.893,0c0,1.867,0,3.734.006,5.6a2.029,2.029,0,0,0,.213.015h5.608c.056,0,.111-.006.167-.011.016-1.868,0-3.738.007-5.606q2.825,0,5.651,0c1-.005,2,.012,2.992-.009q0,8.094,0,16.188-11.641,0-23.283,0Q4.4,18.672,4.4,10.578Z" style="fill:#016fd2"/><path d="M13.045,10.589c2,0,4,0,6,0-.007,1.868.009,3.738-.007,5.606-.056.006-.111.01-.167.011H13.264a2.029,2.029,0,0,1-.213-.015C13.041,14.324,13.049,12.456,13.045,10.589Z" style="fill:#0663b4"/><rect x="6.104" y="21.5" width="7.792" height="3" style="fill:#cbedf2"/></svg>