<svg xmlns="http://www.w3.org/2000/svg" viewBox="0 0 32 32"><defs><linearGradient id="a" x1="11.08" x2="11.08" y1="31.2" y2="15.71" gradientTransform="matrix(1 0 0 .99 0 -14.32)" gradientUnits="userSpaceOnUse"><stop offset="0" stop-color="#949494"/><stop offset=".33" stop-color="#9b9b9b"/><stop offset=".82" stop-color="#aeafb0"/><stop offset="1" stop-color="#b6b8b9"/></linearGradient></defs><title>Icon-analytics-147</title><path fill="url(#a)" d="M18 9.69V7.9l-.1-.09-1.84-.62L15.59 6l.91-1.88.1-.21-.6-.61-.7-.69-.24.12-1.8.91-1.21-.34-.78-2H9.48l-.09.09-.62 1.83-1.26.47-2.08-1-1.28 1.25.12.24L5.23 6a6 6 0 0 1 3.2-.86A6.26 6.26 0 0 1 12 6.28a3 3 0 0 1 .36.26 3.25 3.25 0 0 1 .93 1.35A3 3 0 0 1 13.5 9a3.23 3.23 0 0 1-3.25 3.23 3.27 3.27 0 0 1-1.87-.59 6.3 6.3 0 0 1-4 1.75l-.19.39 1.28 1.29.26-.07 1.8-1 1.24.51.79 2.16h1.8l.07-.25.64-1.91 1.22-.51 2.11 1 1.27-1.26-.12-.24-.93-1.79.38-1.25Z" transform="translate(1.993 2.02)scale(1.55592)"/><path fill="#50e6ff" d="M8.217 18.59a5.6 5.6 0 0 1-3.983-1.633.716.716 0 1 1 1.011-.934 4.12 4.12 0 0 0 2.972 1.136 4.08 4.08 0 0 0 2.925-1.136 5.52 5.52 0 0 1 3.968-1.556 5.66 5.66 0 0 1 3.999 1.556.716.716 0 1 1-1.012 1.012 4.18 4.18 0 0 0-2.94-1.214 4.06 4.06 0 0 0-2.926 1.214 5.62 5.62 0 0 1-4.014 1.556"/><path fill="#50e6ff" d="M8.217 15.743a2.79 2.79 0 0 1-1.96-.809.716.716 0 0 1 1.011-1.011 1.3 1.3 0 0 0 .95.389 1.7 1.7 0 0 0 .933-.39 8.495 8.495 0 0 1 11.934 0 .716.716 0 0 1-1.012 1.012 7.08 7.08 0 0 0-9.973 0 3.02 3.02 0 0 1-1.883.81"/><path fill="#32bedd" d="M8.217 21.438a8.42 8.42 0 0 1-6.021-2.474.73.73 0 0 1 0-.996.73.73 0 0 1 1.027 0 6.96 6.96 0 0 0 4.994 2.054 7 7 0 0 0 4.979-2.07 3.02 3.02 0 0 1 1.883-.762 2.85 2.85 0 0 1 1.945.81.716.716 0 0 1 0 1.01.73.73 0 0 1-1.027 0 1.3 1.3 0 0 0-.918-.388 1.56 1.56 0 0 0-.934.404 8.42 8.42 0 0 1-5.928 2.412"/></svg>