<svg viewBox="0 0 32 32" xmlns="http://www.w3.org/2000/svg"><path d="m27.807 29.494h-23.614a1.692 1.692 0 0 1 -1.687-1.687v-23.614a1.692 1.692 0 0 1 1.687-1.687h23.614a1.692 1.692 0 0 1 1.687 1.687v23.614a1.692 1.692 0 0 1 -1.687 1.687z" fill="#1e1e1e"/><path d="m27.807 30h-23.614a2.2 2.2 0 0 1 -2.193-2.193v-23.614a2.2 2.2 0 0 1 2.193-2.193h23.614a2.2 2.2 0 0 1 2.193 2.193v23.614a2.2 2.2 0 0 1 -2.193 2.193zm-23.614-26.988a1.183 1.183 0 0 0 -1.181 1.181v23.614a1.183 1.183 0 0 0 1.181 1.181h23.614a1.183 1.183 0 0 0 1.181-1.181v-23.614a1.183 1.183 0 0 0 -1.181-1.181z" fill="#5b5b5b"/><path d="m9.973 8.687-2.125 4.894h-1.048l-2.122-4.894h1.579l1.068 2.842 1.069-2.842z" fill="#ffc107"/><path d="m15.158 10.909h-2.15v2.15h-.753v-2.15h-2.15v-.753h2.15v-2.149h.753v2.149h2.15z" fill="#009688"/><path d="m17.47 5.881c1.506 0 2.453.741 2.453 1.943 0 1.154-1.263 1.846-1.433 1.968-.838.6-.8.6-.8 1.749h-1.374c0-1.117-.109-1.737.668-2.356.607-.485 1.316-.656 1.316-1.239 0-.255-.292-.462-.838-.462a3.267 3.267 0 0 0 -1.543.5l-.85-1.154a3.359 3.359 0 0 1 2.401-.949zm-1.19 6.182h1.457v1.482h-1.457z" fill="#1976d2"/><path d="m21.526 13.193-.838 1.87-1.105.207.716-2.089z" fill="#009688"/><path d="m26.648 13.545v.755h-4.093v-.753z" fill="#1976d2"/><path d="m9.39 21.12v.413l-4 2.442v-.863l2.94-1.785-2.94-1.786v-.862z" fill="#ffc107"/><path d="m10.331 19.845h1.458v1.482h-1.458zm0 3.012h1.458v1.482h-1.458z" fill="#512da8"/><path d="m13.418 16.979h.753v8.2h-.753z" fill="#ffc107"/><path d="m16.561 17.477h.79l1.2 2.259h-.5l-1.089-1.676-1.105 1.676h-.5z" fill="#ffc107"/><path d="m22.462 24.594v.85h-1.032v-.826a3.445 3.445 0 0 1 -2.138-1.02l.851-.959a2.746 2.746 0 0 0 1.663.57c.584 0 .924-.218.924-.595 0-.437-.9-.741-1.507-1-1.165-.522-1.834-1.02-1.773-2.077a2.05 2.05 0 0 1 1.943-1.822v-.837l1.033-.11v.96a4.456 4.456 0 0 1 1.761.728l-.7 1.033a2.844 2.844 0 0 0 -1.446-.4c-.546-.012-.935.206-.935.534 0 .413.51.535 1.093.778 1.348.571 2.211 1.105 2.211 2.186a2.139 2.139 0 0 1 -1.948 2.007z" fill="#512da8"/><g fill="#e8e8e8"><path d="m15.841 19.054h2.726a4.251 4.251 0 0 1 2.364.525 1.836 1.836 0 0 1 .773 1.633 2.233 2.233 0 0 1 -.337 1.246 1.5 1.5 0 0 1 -.887.664v.059a1.812 1.812 0 0 1 1.053.712 2.623 2.623 0 0 1 -.473 3.152 3.26 3.26 0 0 1 -2.178.679h-3.041zm2.111 3.327h.636a1.07 1.07 0 0 0 .7-.208.759.759 0 0 0 .248-.617q0-.729-.994-.729h-.593zm0 1.713v1.821h.748q.988 0 .989-.925a.835.835 0 0 0 -.265-.664 1.127 1.127 0 0 0 -.767-.232z"/><path d="m25.269 27.724h-2.079v-8.67h4.617v1.88h-2.538v1.654h2.34v1.88h-2.34z"/></g></svg>