<?xml version="1.0" encoding="UTF-8"?>
<svg width="32px" height="32px" viewBox="0 0 32 32" version="1.1" xmlns="http://www.w3.org/2000/svg" xmlns:xlink="http://www.w3.org/1999/xlink">
    <!-- Generator: Sketch 48.2 (47327) - http://www.bohemiancoding.com/sketch -->
    <title>solidarity-mark</title>
    <desc>Created with Sketch.</desc>
    <defs></defs>
    <g id="Page-1" stroke="none" stroke-width="1" fill="none" fill-rule="evenodd">
        <g id="solidarity-mark" fill-rule="nonzero">
            <g transform="translate(6.000000, 2.000000)">
                <path d="M9.42834008,0 C4.23285446,0 0,4.09362619 0,9.16959064 C0,10.6165121 1.1890737,11.7894737 2.65587045,11.7894737 C4.12266719,11.7894737 5.31174089,10.6165121 5.31174089,9.16959064 C5.31174089,7.01094785 7.1431623,5.23976608 9.42834008,5.23976608 C10.8951368,5.23976608 12.0842105,4.06680449 12.0842105,2.61988304 C12.0842105,1.17296159 10.8951368,0 9.42834008,0 Z" id="Oval-2" fill="#E73536" opacity="0.799999952"></path>
                <path d="M18.8631579,9.16959064 C18.8631579,4.09362619 14.6303034,0 9.43481781,0 C7.96802107,0 6.77894737,1.17296159 6.77894737,2.61988304 C6.77894737,4.06680449 7.96802107,5.23976608 9.43481781,5.23976608 C11.7199956,5.23976608 13.551417,7.01094785 13.551417,9.16959064 C13.551417,10.6165121 14.7404907,11.7894737 16.2072874,11.7894737 C17.6740842,11.7894737 18.8631579,10.6165121 18.8631579,9.16959064 Z" id="Oval-2" fill="#938B98" opacity="0.700000048"></path>
                <path d="M16.2072874,16.2105263 C11.0118018,16.2105263 6.77894737,20.3041525 6.77894737,25.380117 C6.77894737,26.8270384 7.96802107,28 9.43481781,28 C10.9016146,28 12.0906883,26.8270384 12.0906883,25.380117 C12.0906883,23.2214742 13.9221097,21.4502924 16.2072874,21.4502924 C17.6740842,21.4502924 18.8631579,20.2773308 18.8631579,18.8304094 C18.8631579,17.3834879 17.6740842,16.2105263 16.2072874,16.2105263 Z" id="Oval-2-Copy" fill="#E73536" opacity="0.799999952" transform="translate(12.821053, 22.105263) scale(-1, -1) translate(-12.821053, -22.105263) "></path>
                <path d="M12.0842105,25.380117 C12.0842105,20.3041525 7.85135606,16.2105263 2.65587045,16.2105263 C1.1890737,16.2105263 0,17.3834879 0,18.8304094 C0,20.2773308 1.1890737,21.4502924 2.65587045,21.4502924 C4.94104822,21.4502924 6.77246964,23.2214742 6.77246964,25.380117 C6.77246964,26.8270384 7.96154334,28 9.42834008,28 C10.8951368,28 12.0842105,26.8270384 12.0842105,25.380117 Z" id="Oval-2-Copy-2" fill="#938B98" opacity="0.700000048" transform="translate(6.042105, 22.105263) scale(-1, -1) translate(-6.042105, -22.105263) "></path>
                <path d="M1.12457094,11.3602765 L14.6769524,21.0246936 C15.8751075,21.8791169 17.5317743,21.5901548 18.3772213,20.3792788 C19.2226684,19.1684027 18.936742,17.4941468 17.738587,16.6397235 L4.1862055,6.97530637 C2.98805044,6.12088309 1.33138362,6.40984516 0.485936577,7.62072122 C-0.35951046,8.83159728 -0.0735841164,10.5058532 1.12457094,11.3602765 Z" id="Path-2" fill="#4C3E54" opacity="0.700000048"></path>
            </g>
        </g>
    </g>
</svg>