<svg viewBox="0 0 32 32" xmlns="http://www.w3.org/2000/svg"><path d="m2.571 2.571h26.812v26.813h-26.812z" fill="#eaeaea"/><path d="m5.032 29.691a.5.5 0 0 1 -.367-.838l13.985-15.153a.448.448 0 0 1 .376-.161.5.5 0 0 1 .37.173l4.287 4.976 5.348-6.095a.5.5 0 1 1 .752.659l-5.728 6.527a.5.5 0 0 1 -.376.17.5.5 0 0 1 -.377-.174l-4.3-4.985-13.602 14.74a.5.5 0 0 1 -.368.161z" fill="#0303fe"/><path d="m6.321 21.577a.5.5 0 0 1 -.38-.177l-3.69-4.344a.5.5 0 0 1 .763-.648l3.309 3.9 7.654-8.952a.5.5 0 0 1 .378-.175.5.5 0 0 1 .378.172l1.588 1.832 7.919-10.718a.5.5 0 0 1 .805.595l-8.288 11.217a.5.5 0 0 1 -.383.2.474.474 0 0 1 -.4-.171l-1.614-1.863-7.66 8.955a.5.5 0 0 1 -.379.177z" fill="#03fe03"/><path d="m29.407 28.839a.5.5 0 0 1 -.377-.172l-7.322-8.407-4.978 5.678a.5.5 0 0 1 -.376.169.5.5 0 0 1 -.376-.172l-13.719-15.843a.5.5 0 1 1 .756-.654l13.342 15.409 4.976-5.677a.5.5 0 0 1 .376-.17.5.5 0 0 1 .376.172l7.7 8.839a.5.5 0 0 1 -.377.828z" fill="#fd0303"/><path d="m29 3v26h-26v-26zm1-1h-28v28h28z"/></svg>