<svg xmlns="http://www.w3.org/2000/svg" fill="none" viewBox="0 0 32 32"><mask id="a"><path fill="#fff" d="M44.92 7.56a2.26 2.26 0 0 0 2.26 2.26h8.58c1 0 1.51 1.22.8 1.93L45.58 22.73c-.43.42-.67 1-.67 1.6v3.76c0 1.56 1.55 2.64 2.92 1.9a20 20 0 0 0 3.87-2.73 1.2 1.2 0 0 1 1.62.02l8 8a1.1 1.1 0 0 1-.01 1.59c-6.07 5.67-14.22 9.15-23.18 9.15S21 42.54 14.94 36.87a1.1 1.1 0 0 1-.01-1.59l8-8a1.2 1.2 0 0 1 1.62-.02 20 20 0 0 0 3.87 2.73c1.37.74 2.92-.34 2.92-1.9v-3.76c0-.6-.24-1.18-.66-1.6L19.69 11.75c-.71-.71-.2-1.93.8-1.93h8.58a2.26 2.26 0 0 0 2.27-2.26V1.9c0-.63.5-1.13 1.13-1.13h11.3c.63 0 1.14.5 1.14 1.13z"/></mask><g mask="url(#a)" transform="translate(1 6.8)scale(.393)"><path fill="#00f7f1" d="M0 0h62v46H0z"/><g filter="url(#b)"><ellipse cx="38" cy="46.74" fill="#93fffc" rx="4.62" ry="21.5" transform="rotate(-90 38 46.74)"/></g><g filter="url(#b)"><ellipse cx="56.18" cy="44.78" fill="#00ff79" rx="4.62" ry="21.5" transform="rotate(248.3 56.18 44.78)"/></g><g filter="url(#b)"><ellipse cx="19.8" cy="44.78" fill="#0060ff" rx="4.62" ry="21.5" transform="rotate(-68.3 19.8 44.78)"/></g><g filter="url(#b)"><ellipse cx="46.53" cy="29.66" fill="#93fffc" rx="3.72" ry="6.27" transform="rotate(224.8 46.53 29.66)"/></g><g filter="url(#b)"><ellipse cx="48.44" cy="26.21" fill="#0060ff" rx="3.72" ry="6.27" transform="rotate(224.8 48.44 26.21)"/></g><g filter="url(#b)"><ellipse cx="48.06" cy="7.07" fill="#93fffc" rx="3.72" ry="6.27" transform="rotate(224.8 48.06 7.07)"/></g><g filter="url(#b)"><ellipse cx="49.21" cy="5.53" fill="#0060ff" rx="3.72" ry="6.27" transform="rotate(224.8 49.2 5.53)"/></g><g filter="url(#b)"><ellipse cx="30.06" cy="30.43" fill="#93fffc" rx="3.72" ry="6.27" transform="rotate(-44.8 30.06 30.43)"/></g><g filter="url(#b)"><ellipse cx="27.38" cy="26.98" fill="#0060ff" rx="3.72" ry="6.27" transform="rotate(-44.8 27.38 26.98)"/></g><g filter="url(#b)"><ellipse cx="27.38" cy="7.07" fill="#93fffc" rx="3.72" ry="6.27" transform="rotate(-44.8 27.38 7.07)"/></g><g filter="url(#b)"><ellipse cx="27" cy="4.77" fill="#0060ff" rx="3.72" ry="6.27" transform="rotate(-44.8 27 4.77)"/></g><g filter="url(#b)"><ellipse cx="23.76" cy="18.35" fill="#0060ff" rx="3.72" ry="11.95" transform="rotate(-44.8 23.76 18.35)"/></g><g filter="url(#b)"><ellipse cx="53.59" cy="15.29" fill="#00ff79" rx="3.72" ry="11.95" transform="rotate(224.8 53.6 15.29)"/></g><g filter="url(#b)"><ellipse cx="38" cy="48.66" fill="#0060ff" rx="4.62" ry="21.5" transform="rotate(-90 38 48.66)"/></g></g><path fill="#08060e" d="M3.72 6.8C.1 11.98.08 20 3.72 25.2h2.45c-3.64-5.2-3.62-13.22 0-18.4zm24.56 0h-2.45c3.62 5.18 3.64 13.2 0 18.4h2.45c3.64-5.2 3.62-13.22 0-18.4"/><defs><filter id="b" width="6" height="6" x="-3" y="-3"><feGaussianBlur stdDeviation="4.6"/></filter></defs></svg>