<svg xmlns="http://www.w3.org/2000/svg" viewBox="0 0 32 32"><title>file_type_graphql_config</title><path d="M27.237,19.592l0,0a2.46,2.46,0,0,0-.655-.251V12.673a2.465,2.465,0,0,0,.666-.252l.005,0a2.5,2.5,0,1,0-3.067-3.875L18.394,5.212a2.435,2.435,0,0,0,.114-.713,2.507,2.507,0,1,0-4.9.709L7.815,8.544A2.5,2.5,0,0,0,7.263,8.1l0,0a2.5,2.5,0,1,0-1.831,4.586v6.655a2.459,2.459,0,0,0-.664.254,2.5,2.5,0,1,0,2.506,4.329l0,0a2.443,2.443,0,0,0,.547-.442L13.606,26.8A2.465,2.465,0,0,0,16,30h.014a2.469,2.469,0,0,0,2.357-3.278l5.748-3.309a2.5,2.5,0,1,0,3.117-3.821ZM8.443,21.165a2.235,2.235,0,0,0-.7-1.21L15.311,6.89A2.464,2.464,0,0,0,16,7h.014a2.423,2.423,0,0,0,.68-.107l7.566,13.063a2.249,2.249,0,0,0-.7,1.211ZM23.585,9.57a2.488,2.488,0,0,0,1.8,3.106v6.657c-.033.008-.065.015-.1.024L17.731,6.305c.023-.022.047-.042.069-.065ZM14.2,6.237c.023.023.048.045.072.068L6.717,19.356l-.1-.028V12.68a2.487,2.487,0,0,0,1.8-3.11ZM17.85,25.825a2.493,2.493,0,0,0-3.653-.053L8.421,22.448l.027-.1h15.1c.014.056.033.109.05.163Z" style="fill:#e10098"/><path d="M26.21,26.791l.522-.511c2.413.078,2.45-.006,2.556-.25l.663-1.592L30,24.287l-.054-.132c-.028-.069-.116-.277-1.622-1.694v-.745c1.738-1.651,1.7-1.736,1.6-1.978l-.66-1.608c-.1-.241-.137-.335-2.533-.271l-.521-.531a11.361,11.361,0,0,0-.082-2.346l-.067-.151-1.724-.742c-.253-.115-.343-.156-1.97,1.592l-.731-.011c-1.676-1.764-1.755-1.732-2.006-1.632l-1.6.639c-.251.1-.34.136-.242,2.536l-.518.508c-2.412-.078-2.449.007-2.554.25l-.664,1.592L14,19.716l.054.133c.029.068.113.274,1.623,1.692v.743c-1.738,1.651-1.7,1.736-1.6,1.978l.659,1.61c.1.246.137.334,2.532.272l.522.534a11.4,11.4,0,0,0,.079,2.343l.067.152,1.735.747c.252.1.339.141,1.962-1.6l.731.009c1.678,1.766,1.764,1.732,2.009,1.634l1.6-.637C26.223,29.227,26.311,29.192,26.21,26.791Zm-6.872-3.728A2.821,2.821,0,0,1,21,19.405,2.885,2.885,0,0,1,24.7,21.038,2.82,2.82,0,0,1,23.1,24.677,2.92,2.92,0,0,1,19.338,23.063Z" style="fill:#99b8c4"/></svg>