<svg xmlns="http://www.w3.org/2000/svg" viewBox="0 0 32 32"><title>file_type_light_eas-metadata</title><path d="M2.26015 27.9785C1.66636 27.111 1.43881 26.4643 1.38651 25.8212V25.4403C1.45185 25.2404 1.76242 24.5984 2.24096 23.6569H8.18008L7.93653 24.0597C6.44371 26.529 5.29753 28.4248 5.06239 28.6664C4.17777 29.574 2.96585 29.0086 2.26015 27.9785V27.9785ZM17.745 13.9823C17.384 13.4459 17.0465 12.9601 16.7412 12.5416C16.6558 12.4196 16.5422 12.3201 16.4101 12.2514C16.2778 12.1827 16.131 12.1468 15.9819 12.1468C15.8329 12.1468 15.686 12.1827 15.5538 12.2514C15.4216 12.3201 15.3081 12.4196 15.2226 12.5416C14.9174 12.9601 14.5799 13.4459 14.2188 13.9823H7.35455C9.71822 9.5938 11.9833 5.47038 12.4362 4.77522C13.4108 3.28164 13.7077 2.95768 15.354 2.9043H16.6098C18.2561 2.95768 18.553 3.28284 19.5264 4.77522C19.9797 5.47059 22.2451 9.59389 24.6089 13.9823H17.745ZM23.7837 23.6569L24.0273 24.0597C25.5201 26.529 26.6663 28.4248 26.9014 28.6664C27.786 29.574 28.9979 29.0086 29.7037 27.9785C30.3974 26.9654 30.5896 26.2556 30.5896 25.4961C30.5896 25.4029 30.2633 24.7212 29.7224 23.6569H23.7837V23.6569Z"/><path fill-rule="evenodd" clip-rule="evenodd" d="M3.0765 14.9975C1.97822 14.9975 1.08789 15.92 1.08789 17.0579V20.5814C1.08789 21.7192 1.97822 22.6417 3.0765 22.6417H28.8995C29.9978 22.6417 30.8881 21.7192 30.8881 20.5814V17.0579C30.8881 15.92 29.9978 14.9975 28.8995 14.9975H3.0765ZM3.0765 16.7891H28.8995C29.0427 16.7891 29.1589 16.9095 29.1589 17.0579V20.5814C29.1589 20.7298 29.0427 20.8501 28.8995 20.8501H24.7494V19.1481C24.7494 18.8512 24.5171 18.6106 24.2306 18.6106H23.4236C23.1371 18.6106 22.9049 18.8512 22.9049 19.1481V20.8501H16.9102V19.1481C16.9102 18.8512 16.678 18.6106 16.3915 18.6106H15.5845C15.298 18.6106 15.0658 18.8512 15.0658 19.1481V20.8501H9.07111V19.1481C9.07111 18.8512 8.83885 18.6106 8.55235 18.6106H7.74537C7.45888 18.6106 7.22661 18.8512 7.22661 19.1481V20.8501H3.0765C2.93324 20.8501 2.81711 20.7298 2.81711 20.5814V17.0579C2.81711 16.9095 2.93324 16.7891 3.0765 16.7891Z"/></svg>
