<svg xmlns="http://www.w3.org/2000/svg" viewBox="0 0 32 32"><title>file_type_testjs@2x</title><g id="test_js"><path d="M26.4,24.38c-2.31-.54-3.11-3.31-1.77-6.11a11.93,11.93,0,0,1,3-3.71l.42-.35v.48a9,9,0,0,0,1,3.23,18.79,18.79,0,0,1,.83,2.18,4.25,4.25,0,0,1-.1,2.61,3.56,3.56,0,0,1-1.49,1.45A3.73,3.73,0,0,1,26.4,24.38Zm.47-4.75c.17-.19.21-.44.22-1.34V17.2l-.27.21A2.24,2.24,0,0,0,26,19.27c.09.29.38.6.55.59A.69.69,0,0,0,26.87,19.63Z" style="fill:#f5de19"/><path d="M6.16,29.08a5.14,5.14,0,0,1-4-6.08c.34-1.43.27-1.34,7.63-9L16.7,6.69l1,.94,1,.94-4,4.18-4,4.18L14,16.85l3.34-.07,2.36-2.47,2.36-2.47,1,.94,1,.94-7,7.24c-6.38,6.64-7,7.27-7.66,7.59a5.18,5.18,0,0,1-3.27.52ZM25.71,12.43c-.18-.11-2.06-1.86-4.17-3.89L17.7,4.84V4.28a1.15,1.15,0,0,1,.26-.9,1.32,1.32,0,0,1,1.39-.49,91.79,91.79,0,0,1,8.37,8,1.34,1.34,0,0,1-2,1.51Z" style="fill:#f5de19"/><path d="M4.1,23.62c-.35,2.28,1,3.82,3.44,3.49l9.85-10.32c-3.34.07-3.3-.07-6.64,0C4.07,23.72,3.93,23.67,4.1,23.62Z" style="fill:#f5de19"/><path d="M23.4,26.74a3.11,3.11,0,0,0,2.81,1.73c1.18,0,1.94-.59,1.94-1.41,0-1-.78-1.32-2.08-1.89l-.71-.31c-2.06-.88-3.42-2-3.42-4.3,0-2.14,1.63-3.77,4.18-3.77a4.22,4.22,0,0,1,4.06,2.28l-2.22,1.43a1.94,1.94,0,0,0-1.84-1.22,1.24,1.24,0,0,0-1.36,1.22c0,.86.53,1.2,1.75,1.73l.71.31c2.42,1,3.79,2.1,3.79,4.48,0,2.57-2,4-4.73,4a5.48,5.48,0,0,1-5.2-2.92ZM13.32,27c.45.79.86,1.47,1.84,1.47s1.53-.37,1.53-1.79V17h2.85V26.7c0,3-1.73,4.3-4.26,4.3A4.43,4.43,0,0,1,11,28.39Z" style="fill:#f5de19;stroke:#000;stroke-miterlimit:10;stroke-width:0.5px"/></g></svg>