<svg viewBox="0 0 32 32" xmlns="http://www.w3.org/2000/svg"><path d="m26.881 11.231a1.512 1.512 0 0 1 -.352.744l-.114-.073a2.473 2.473 0 0 0 .178-.543l-.032-.05c-.041 0-.1.114-.164.333h-.059a.258.258 0 0 0 -.032-.105h-.027c-.539 1.5-.781 2.2-1.279 3.357-.091.3-.169.461-.237.493a.048.048 0 0 0 .059.046.736.736 0 0 1 -.1.429 4.451 4.451 0 0 1 -.461 1.092l.05.315a.045.045 0 0 1 -.05.055h-.055q-.014-.13-.1-.123h-.027a1.328 1.328 0 0 0 -.16.384h.055a.178.178 0 0 0 .1-.169l.11-.009.059.023a.324.324 0 0 0 -.069.187l.027.05-.069.164v.027a.34.34 0 0 1 .206.059.394.394 0 0 0 .164-.064c.064 0 .292-.009.694-.009l.2-.069c.247 0 .283 0 .5-.014l.087-.009.046-.032v.027a1.309 1.309 0 0 1 .411.018v.027l-.123.009v.05a.177.177 0 0 0 .1-.037c.032 0 .05.014.055.05a.946.946 0 0 0 -.169.037l-.055-.018a.537.537 0 0 1 -.123.032l-.087-.018a.025.025 0 0 1 -.018.027c0 .032.018.05.05.046l.105-.009-.046-.018c0 .014.009.023.027.023l.452-.041.192-.025a.022.022 0 0 0 .023.023l.082-.032.155-.014c.123-.009.119-.018.379-.059 0-.014 0-.023.018-.023v.023a2.32 2.32 0 0 0 .557-.114l-.023-.055a.915.915 0 0 1 -.21.023l-.379.018v-.027l.21-.027h.078l.041-.032v.027a7.333 7.333 0 0 0 1.786-.242c.073 0 .069-.069.114-.2a.134.134 0 0 1 -.073-.018 2.052 2.052 0 0 1 -.393.059c-.018 0-.032-.014-.041-.05v-.023l.21.009a.524.524 0 0 0 .228-.073c.023.014-.018.027 0 .023h.037c.023 0 .032-.018.032-.055l-.023-.05a.683.683 0 0 0 -.324.082v-.027l-.174.018c0-.055-.018-.078-.041-.078l-.091.009c-.105.009-.155 0-.206.046 0-.018-.009-.027-.018-.027l-.1.009-.059.032c0-.018-.009-.027-.018-.027l-.037.032v-.027l-.14-.013h-.032v.05l.073.018h.064a.15.15 0 0 0 .078.018l.059-.027v.023a4.743 4.743 0 0 1 -.548.105.111.111 0 0 0 -.055-.023c-.023.023.027 0 .014 0a.048.048 0 0 1 -.059-.046l.114-.014a.684.684 0 0 0 .078.023c.091-.046.1-.064.146-.069v-.05a2.986 2.986 0 0 1 -.594.055h-.018v-.05c.516-.064.343-.027.516-.078 0 .018.009.027.018.027a.108.108 0 0 1 .073-.032h.037a1.83 1.83 0 0 0 .6-.078v.023l.059-.027h.055c0-.055.078-.059.1-.064v-.055c-.626.128-.79.091-.964.142v-.023a.72.72 0 0 1 -.21.018.091.091 0 0 0 -.05.032c0-.018-.009-.027-.023-.027s-.014.009-.037.032l.037-.032-.543.087a.022.022 0 0 0 -.023-.023 2.542 2.542 0 0 1 -.571.1.133.133 0 0 0 -.069.027c0-.014-.009-.023-.027-.023l-.228.018-.151.037c0-.014-.009-.023-.027-.023a1.274 1.274 0 0 1 -.219.041c-.037 0 .018-.009-.009-.023l-.064.025c-.069 0-.032 0-.26 0-.4.05-.356.055-.4.059l-.151-.009c0 .014 0 .023-.023.027q-.253-.034-.26-.082c.023-.16.059-.242.119-.251h.027l-.027.055h.027c.055-.027.078-.055.078-.082v-.055h-.055v-.05a.2.2 0 0 1 .014-.105l.123-.2v.05h.059v-.05l-.032-.05a.192.192 0 0 1 .105-.059v-.027h-.078v-.078a2.393 2.393 0 0 0 .228-.571l.055.023c.037 0 .055-.023.05-.059h-.055v-.02a.214.214 0 0 1 .018-.11.335.335 0 0 0 .114-.274.024.024 0 0 1 .027.027c.073-.041.128-.151.169-.333a10.563 10.563 0 0 0 .548-1.393 7.884 7.884 0 0 0 .5-1.649h-.055a.17.17 0 0 1 -.023.105.3.3 0 0 0 -.087-.023v-.023a.633.633 0 0 1 .137-.384h.008l.046.178h.055c0-.014.014-.082.041-.215 0-.027-.023-.041-.064-.046l-.05.032c0-.037 0-.132 0-.292l-.05.009zm-.658.79h.027c-.041.073-.073.114-.105.119v-.078a.207.207 0 0 0 .078-.041zm-.228.548c.055-.224.11-.352.16-.384v.027c-.027.21-.073.315-.137.324l.009.132a.262.262 0 0 0 -.069.164h-.027l-.014-.183c.027 0 .055-.032.073-.087zm-.087.3a.653.653 0 0 1 -.059.215h-.027v-.078c.026-.09.058-.136.086-.14zm-1.5 3.32.027.05q.062-.007.055-.055v-.027h-.027l-.05.027zm.722.6v.023c.041 0 .082-.078.119-.219l-.055-.018a.963.963 0 0 0 -.064.215zm4.622.16v.023l-.046.055.087-.032h.007v-.05h-.018l-.032.027c0-.014.1-.041.023-.055-.02.018.017.022-.024.027zm.178.164.123-.009c0-.032-.082-.041-.11-.041h-.018v.05zm-2.183.046.037.046c0-.014 0-.023.018-.023l.027.05-.114-.014c-.015-.041.001-.059.029-.064zm-.374.041a.058.058 0 0 1 .069.059h-.132v-.023a.147.147 0 0 0 .059-.036zm.292-.014v.027l-.105.009v-.027zm-1.06.11c0 .014.009.023.027.023.169-.032.151-.037.233-.046.027 0 .041.014.046.046l-.47.041.046.023v-.027l-.178.014v-.027l.16-.014.146-.032zm.484-.041v.023c-.014 0 .046 0 .018.027a.909.909 0 0 0 -.178-.014v-.023zm.119-.014v.023l-.087.009v-.023zm-2.923.466v.078c-.027 0-.05-.014-.059-.05v-.023h.055zm3.909-.069v.05l.091-.009-.037-.023v.027l.091-.037c.626-.069.7-.041.69-.114v-.023a3.757 3.757 0 0 1 -.845.128zm.977-.087.091.018v-.05l-.091-.018zm-2.7.178c.027.014-.032.027 0 .023l.32-.027v.027a.357.357 0 0 0 -.169.041.024.024 0 0 0 -.027-.027l-.137.014v-.027c.037 0-.018 0 .009-.023zm1.48-.037.027.05c.105-.023.046-.018.073-.041 0 .018.009.027.018.027h.073v-.055h-.192v.027zm-1.809.2h-.018v-.05h.018zm-1.429.174v.027l.84-.069v-.05l-.671.055-.148-.029zm.936-.05h.009v-.05h-.009zm-12.794-4.416a10.257 10.257 0 0 0 -.923 1.174c-.242.251-.361.4-.347.452-.064.041-.091.082-.082.128a.028.028 0 0 1 -.037-.023.713.713 0 0 1 -.461.324l-.215.05c-.027 0-.041.027-.041.064v.027l.082-.018v.023l-.183.069-.324.073-.169.009c-.023.023.132 0 .073.014l-.21.05c-.128.032-.2.018-.21-.032h-.023c.014.05 0 .082-.037.091l.041-.009-.018-.078-.384.091.041.018c0-.018-.023-.023-.059-.014l-.05.041-.059-.014a.447.447 0 0 1 -.1.05l-.059-.014c-.16.091-.041.091-.05.091l.014.05.091-.023.142-.009-.014.059c-.521.137-.142.059-.283.091h-.027l.014.05.082-.018v.027a.383.383 0 0 0 -.183.069v-.027a.793.793 0 0 0 -.411.311c.023.1-.274.224 1.123-.1.1 0 .151 0 .164-.009 0-.018 0-.027.023-.032.155-.018.082.009.178-.014l.3-.069-.064.037c0-.014 0-.023.018-.027a.244.244 0 0 0 .114 0l.018.078-1.18 1.893-.27.326-.128.434h.023l.128-.055-.041.169.014.05.037.046c-.018 0-.023.014-.018.032v.027l.055-.014c.078-.069.11-.132.1-.187a.666.666 0 0 0 .169.014v.027q-.075.021-.082.123v.027h.027c.434-.47 1.489-2.083 2.338-3.179q-.041-.178 1.329-.493h.027a2.85 2.85 0 0 1 -.21 1.041 3.159 3.159 0 0 0 -.16.543 4.04 4.04 0 0 0 -.206.717l-.302 1.051a9.418 9.418 0 0 0 -.48 1.717.213.213 0 0 1 .08.01l.046-.041c0 .018.014.023.037.023l-.018-.078h.142c.041-.009.078-.064.105-.16 0-.142.023-.219.087-.237a2.292 2.292 0 0 1 .16-.516 2.3 2.3 0 0 1 .183-.58c.123-.438.21-.667.269-.68l.014.055-.087.233a11.35 11.35 0 0 1 -.475 1.64l.046.2h.027a42.59 42.59 0 0 0 1.667-4.932.647.647 0 0 1 .311-.5l-.041-.041v-.023a.277.277 0 0 0 .174-.1q-.007-.027-.219-.082l.429-1.836a12.323 12.323 0 0 0 .26-1.448v-.027a.99.99 0 0 1 -.251-.233v-.11-.023h-.023c-.265.4-.795 1.1-1.576 2.1zm.607.416a1.169 1.169 0 0 1 -.105.534c-.027.329-.146.516-.352.566v-.027l-.183.069-.082.018a.193.193 0 0 1 -.114 0l-.018-.073a10.6 10.6 0 0 1 .792-1.103l.064.009zm-.42 1.142.059-.014.014.05c-.288.087-.448.132-.48.142a.207.207 0 0 0 -.078.046c0-.018-.041-.018-.114 0-.014-.05.187-.123.6-.219zm-2.836.767.064-.014-.014-.055-.064.014zm.836-.219.014.05-.137.009v-.027l.128-.032zm-1.6.525v.027l-.087.018v-.027zm-.16.333v.023l-.105.023-.014-.05h.114zm.251-.055v.023l-.192.046v-.023zm.333-.055v.027l-.5.114-.014-.05c.292-.05.26-.032.511-.091zm2.516-.585.041.046a.28.28 0 0 0 -.128.055l-.059-.009a1.565 1.565 0 0 1 -.237.078l-.055.014a.053.053 0 0 1 -.069-.037l.379-.087.128-.059zm.269-.059.269-.064v.027a1.513 1.513 0 0 0 -.343.11v-.027a.189.189 0 0 0 .077-.049zm-2.832.767.128-.027.014.05c-.055.014-.014.014-.082.046a1.305 1.305 0 0 0 -.315.046v-.027zm.347-.059c.037-.009.059 0 .064.041l-.078.018q-.048.014-.069-.041l.082-.018zm-1.425 2.882v.027c.037-.009.05-.027.041-.064v-.027a.051.051 0 0 0 -.041.064zm.11.457a.046.046 0 0 0 .064.037c.037-.009.05-.027.041-.064v-.027l-.055.014-.046.041zm15.294-7.9.206-.058c.082.009.123.027.123.05a1 1 0 0 1 .26-.055v-.032l-.21-.009-.411.069-.178-.014q0 .021.054.057zm-12.38 8.683a.046.046 0 0 1 .064.037v.027l-.105.023a.176.176 0 0 0 0-.082h.032zm4.229-8.449a8.912 8.912 0 0 1 -.808.511v.05a.194.194 0 0 0 .082-.037.048.048 0 0 1 .059.046l.05-.027h.023v.023a2.885 2.885 0 0 1 -.562.438l.027.055h-.023l-.059-.023c0 .018-.023.032-.078.037v.023l.059.073a.2.2 0 0 1 -.087-.023.536.536 0 0 0 -.361.265l.027.05a.74.74 0 0 1 .183-.146v.078a.194.194 0 0 0 -.082.037l.069.1a2.075 2.075 0 0 1 .406-.347c.073.023.114.046.114.069h.055a4.427 4.427 0 0 1 1.21-.649v.05c-.073.11-.123.164-.151.169a.259.259 0 0 0 .032.1 9.748 9.748 0 0 1 -.539 1.37 37.954 37.954 0 0 1 -2.1 4.352.162.162 0 0 0 .037.078.678.678 0 0 0 .265-.1h.023v.05h.059l.05-.027c0 .014.018.023.055.018v.055a.517.517 0 0 1 -.087.237 1.165 1.165 0 0 0 -.187.406v.027h.055a3.247 3.247 0 0 0 .516-.749 8.532 8.532 0 0 0 1.516-.571 1.442 1.442 0 0 0 .8-.274v-.027l-.137.041h-.027v-.027a1.146 1.146 0 0 0 .534-.174c.5-.388.881-.662 1.142-.822.795-.585 1.169-1.142 1.123-1.681a3.132 3.132 0 0 0 -.525-.658q-.007-.11.356-.315l.694-.6a1.736 1.736 0 0 0 .274-.959l-.009-.1c-.027-.306-.251-.553-.671-.744a2.7 2.7 0 0 0 -1.343-.279 7.608 7.608 0 0 0 -2.083.566zm3.718.037-.027.055-.767-.324c.516.023.781.11.795.269zm-3.112 2.14c.055-.288.114-.448.178-.484l.58-1.3c0-.078.114-.142.365-.187l.082-.009v.078c.247-.041.4-.064.461-.069.457-.041.694.055.712.274h.055l-.009-.123h.055a.345.345 0 0 1 .21.265.463.463 0 0 1 -.11.274c-.037 0-.055-.023-.059-.073h-.055l-.018.155c-.233.352-.4.53-.5.539q-.137.192-.178.192a3.082 3.082 0 0 1 -.594.443 7.621 7.621 0 0 0 -1.2.466.221.221 0 0 0 -.11-.014v-.05a.66.66 0 0 1 .132-.374zm3.188-1.6v.055c-.027 0-.078-.082-.16-.247v-.05c.046-.003.101.079.155.244zm-5.06.621v.027a.241.241 0 0 0 -.082.032h-.023v-.05zm1.672-.039v.078c-.027 0-.059.041-.1.11v-.05a.266.266 0 0 0 .069-.137zm-.26.539.009.1h-.027l-.009-.1zm-.064.187q-.007.13-.069.137h-.027a.248.248 0 0 0 .041-.137zm-.119.269v.027l-.046.082h-.055v-.027c.055 0 .082-.032.078-.087zm-.114.242-.018.132h-.025l-.009-.132zm2.813.1.114.069a.045.045 0 0 1 -.05.055.182.182 0 0 0 -.114-.041v-.078h.05zm-2.2.292v.05l-.11.009v-.05zm1.777.187c.078.037.114.069.119.1v.023a.242.242 0 0 1 -.206-.114zm-2.288.562a6.072 6.072 0 0 0 1.471-.438l.169-.014a.946.946 0 0 1 .758.2l.009.1q-.185.534-.411.63l-.69.557a6.493 6.493 0 0 1 -.84.511 6.267 6.267 0 0 1 -1.534.7h-.027q.027-.144 1.1-2.252zm.744-.3v.027l-.11.009v-.027zm2.489-.114.018.21c-.027.05-.05.078-.078.082l-.032-.356c.058.018.09.041.09.064zm-4.217 1.786c-.037.174-.073.265-.11.265v-.023a.267.267 0 0 1 .11-.242zm.69.977a8.4 8.4 0 0 0 1.658-.868v.05c0 .023-.073.091-.233.2a5 5 0 0 0 -.813.457c-.5.174-.744.283-.74.324a7.544 7.544 0 0 0 -.872.384.26.26 0 0 1 -.142-.041.216.216 0 0 1 .119-.215.5.5 0 0 1 .219.032 2.557 2.557 0 0 1 .429-.142v-.05l-.169.014a1.9 1.9 0 0 1 .475-.222l.082-.009v.023c-.142.014-.219.055-.237.128a.048.048 0 0 0 .059.046c.114-.055.164-.1.164-.11zm-.854-.626v.023a.047.047 0 0 1 -.05.059v-.027c0-.023.018-.046.055-.055zm1.3.356a1.232 1.232 0 0 0 -.37.16h-.027v-.05a.554.554 0 0 0 .343-.155c.037 0 .055.009.059.041zm-1.343.374.082-.009v.027a.241.241 0 0 0 -.082.032h-.055c0-.027.014-.046.05-.055zm-.553.306.055.023c-.018.16-.069.242-.142.247a.354.354 0 0 0 -.169-.037v-.078c0-.027.014-.046.05-.055s.055.023.059.073a1.092 1.092 0 0 1 .146-.168zm-8.959-6.521a9.761 9.761 0 0 1 -1.064.671v.069a.285.285 0 0 0 .105-.041c.046 0 .073.014.073.059l.073-.041h.037v.032a4.1 4.1 0 0 1 -.744.58l.041.064h-.037l-.078-.027c0 .023-.032.037-.105.041v.037l.082.091a.292.292 0 0 1 -.11-.023.711.711 0 0 0 -.475.352l.041.064a.976.976 0 0 1 .237-.187l.009.1a.318.318 0 0 0 -.105.041l.087.128a2.556 2.556 0 0 1 .543-.452c.1.027.151.055.151.091h.073a5.792 5.792 0 0 1 1.589-.859v.069c-.1.146-.164.219-.2.224a.277.277 0 0 0 .05.132 12.236 12.236 0 0 1 -.712 1.8 50.859 50.859 0 0 1 -2.753 5.735.271.271 0 0 0 .041.1.956.956 0 0 0 .352-.132h.041v.069h.069l.077-.053c0 .023.027.032.073.027v.069a.614.614 0 0 1 -.119.315 1.643 1.643 0 0 0 -.242.534v.032h.069a4.388 4.388 0 0 0 .68-.982 10.922 10.922 0 0 0 2-.754 1.874 1.874 0 0 0 1.055-.361v-.037l-.174.05h-.041v-.037a1.584 1.584 0 0 0 .7-.228c.662-.511 1.16-.872 1.5-1.087 1.046-.767 1.539-1.507 1.48-2.21a4.134 4.134 0 0 0 -.69-.863c-.009-.1.151-.233.47-.416l.909-.8a2.361 2.361 0 0 0 .365-1.26l-.014-.137c-.037-.406-.329-.735-.886-.986a3.438 3.438 0 0 0 -1.765-.352 10.815 10.815 0 0 0 -2.754.749zm4.9.059-.027.069-1.015-.425q1.014.041 1.041.356zm-4.1 2.813c.069-.374.146-.589.233-.639l.758-1.7c-.009-.105.151-.187.484-.242l.11-.009.009.1c.329-.05.53-.078.607-.087.6-.05.913.069.941.365h.069l-.014-.174h.073a.455.455 0 0 1 .283.356.533.533 0 0 1 -.155.356c-.046 0-.073-.027-.078-.1h-.073l-.018.206c-.306.457-.525.69-.662.7q-.185.253-.233.26a4.18 4.18 0 0 1 -.786.585 10.239 10.239 0 0 0 -1.576.612.261.261 0 0 0 -.146-.023v-.064a.846.846 0 0 1 .178-.5zm4.2-2.1v.064c-.037 0-.105-.105-.206-.324v-.064c.056-.014.125.1.198.324zm-6.668.813v.032a.318.318 0 0 0 -.105.041h-.037v-.064zm2.198-.051.009.1c-.032 0-.078.05-.132.146v-.069a.339.339 0 0 0 .1-.178zm-.338.712.014.137h-.037l-.011-.136zm-.087.247c-.009.114-.037.174-.1.178h-.037a.349.349 0 0 0 .059-.174zm-.151.356v.032l-.064.11h-.069v-.032a.091.091 0 0 0 .1-.11h.037zm-.155.32-.018.169h-.037l-.014-.169zm3.7.123.151.091a.064.064 0 0 1 -.064.078.3.3 0 0 0 -.151-.059l-.009-.1zm-2.9.388v.064l-.142.014v-.064zm2.338.237c.1.046.151.091.155.128v.032a.3.3 0 0 1 -.265-.151zm-3.014.74a8.029 8.029 0 0 0 1.941-.575l.215-.018a1.243 1.243 0 0 1 1 .256l.014.137c-.164.475-.347.749-.543.836l-.913.726a8.928 8.928 0 0 1 -1.1.676 8.172 8.172 0 0 1 -2.019.927h-.041c.037-.128.516-1.114 1.448-2.969zm.986-.388v.032l-.146.014v-.032zm3.279-.146.023.269c-.032.073-.064.11-.1.11l-.041-.475c.082.028.118.06.123.092zm-5.553 2.353c-.046.233-.1.352-.146.356v-.032a.389.389 0 0 1 .151-.324zm.913 1.288a11.7 11.7 0 0 0 2.183-1.142v.064c0 .027-.1.114-.306.265a5.55 5.55 0 0 0 -1.069.607c-.658.228-.982.37-.977.425a11 11 0 0 0 -1.151.507.421.421 0 0 1 -.187-.05.3.3 0 0 1 .16-.292.581.581 0 0 1 .292.046 2.82 2.82 0 0 1 .566-.183v-.069l-.215.018a3.074 3.074 0 0 1 .626-.292l.11-.009v.032c-.183.014-.288.073-.311.169a.06.06 0 0 0 .073.059.883.883 0 0 0 .2-.155zm-1.123-.83v.032a.064.064 0 0 1 -.064.078v-.032a.068.068 0 0 1 .064-.078zm1.708.466a1.621 1.621 0 0 0 -.489.215h-.037v-.069a.693.693 0 0 0 .448-.206c.046-.001.073.022.078.063zm-1.775.496.11-.009v.037a.285.285 0 0 0 -.105.041h-.069c.003-.031.021-.055.064-.069zm-.726.406.078.032c-.027.206-.087.311-.192.32a.468.468 0 0 0 -.224-.046l-.009-.1c0-.041.018-.064.069-.078s.073.027.078.1a1.5 1.5 0 0 1 .2-.224zm20.259-8.974-.059-.023-.973.151a.246.246 0 0 0 -.132-.023 1.782 1.782 0 0 0 -.26.055l-.47.2.037.059a.232.232 0 0 0 .1-.037l.164.014-.023.155a.413.413 0 0 0 -.265.3q-.343.151-.343.219v.027h.037l.064-.032.073.087.009.119q.007.055-1.16 2.448-1.007 2.3-1.06 2.526c-.228.064-.365.16-.4.283 0 .041.073.064.206.078v.059l-.059.1.009.119c0 .064.174.11.5.146 0-.023.009-.032.032-.037a1.85 1.85 0 0 1 -.064.438h.037a.791.791 0 0 0 .2-.388h.027c.032 0 .069.037.11.119a4.958 4.958 0 0 0 -.434.991l.037.059h.037a7.626 7.626 0 0 1 .575-1.283c.4-.037 1.092-.105 2.078-.21l.059-.037c0 .023.014.032.037.027h.064l.059-.037c0 .023.014.032.037.027l.744-.064c.2-.018.292-.078.283-.178 0-.027.114-.059.352-.091a.359.359 0 0 1 .1.018c0-.018.114-.037.352-.059 0-.123.046-.192.119-.2v-.059a1.043 1.043 0 0 0 -.228.05 1.2 1.2 0 0 1 -.3-.037.232.232 0 0 1 -.1.037l-.521.018-.064.032c0-.018-.014-.027-.037-.023h-.027l-.069.032c0-.018-.055-.032-.164-.046l-.064.037-.128.009v-.032c.667-.073 1-.164.991-.274.041 0 .064.018.069.059l.2-.05v-.059l-1.6.046c0 .023-.009.032-.032.037l-.2-.018a.212.212 0 0 0 -.123.046l-.073-.027a2.312 2.312 0 0 0 -.452.073 3.084 3.084 0 0 0 -.457 0l-.361.032-.164-.018a8.135 8.135 0 0 1 .621-1.562 1.374 1.374 0 0 1 .343-.585.27.27 0 0 1 .1.023l.256-.087.132.023a3.094 3.094 0 0 0 .767-.187.421.421 0 0 1 .164.014l.2-.046.58-.05a4.125 4.125 0 0 0 .8-.164v-.059c-.11.009-.164-.009-.169-.05-.009-.082-.087-.114-.237-.1v-.059l.16-.046.42-.037v-.059c-.018 0-.1 0-.26 0v-.064l.164-.014c.041 0 .064-.027.059-.064-.219 0-.329 0-.329-.032a14.318 14.318 0 0 1 -2.283.041.2.2 0 0 0 -.1.041l-.053-.081a4.964 4.964 0 0 1 .708-1.292.335.335 0 0 1 -.05.16v.027h.064c.16-.384.292-.58.406-.589.475-.041-.069-.073.954-.233a.173.173 0 0 0 .091.023c.4-.082.959-.164 1.676-.251v-.059l-.384.037v-.059a.2.2 0 0 0 .114-.046v.032a.161.161 0 0 0 .087-.041.3.3 0 0 1 .151.018 2.052 2.052 0 0 1 .32-.064l.237-.023c.059-.037.087-.069.082-.1v-.027a.879.879 0 0 1 -.21-.014c0-.032.014-.055.055-.064l.443-.041.206-.05c0 .023.014.032.027.032a.161.161 0 0 0 .087-.041.845.845 0 0 0 .183.014.887.887 0 0 1 .283-.183.223.223 0 0 1 -.073-.114l-.3.027a.272.272 0 0 0 -.032-.091c0-.027.064-.055.2-.082l.059.023.055-.032a.023.023 0 0 0 .032.023l.055-.032a.023.023 0 0 0 .032.023h.027v-.059c-.041 0-.151 0-.324 0l-.055.037v-.032c-1.393.114-2.183.178-2.37.2-.023 0-.123 0-.292 0 0 .023-.018.037-.059.037l-.059-.027-.206.05a1.683 1.683 0 0 1 -.242-.009.232.232 0 0 1 -.114.046c-.046 0 1.105-.064 1.069-.082l-.178.05h-.027a1.458 1.458 0 0 1 -.274-.009.276.276 0 0 1 -.146.046.2.2 0 0 1 -.119-.023c-.05.014-.2.05-.443.1zm.073.183c0 .023.023.032.059.027v.059h-.059a.2.2 0 0 1 -.119-.023.21.21 0 0 1 -.114.046h.027l-.164-.018v-.027a1.449 1.449 0 0 0 .379-.069zm.151-.014h.032v.059l-.091.009a.06.06 0 0 1 .061-.067zm.352-.037v.032a1.21 1.21 0 0 0 -.26.055h-.032l.027-.064.26-.027zm-2.594.3.1-.009v-.059l-.1.009zm.717-.064h.037l.069.027a.053.053 0 0 1 -.059.064l-.1.009v-.032c-.009-.038.014-.056.055-.07zm2.3.132v.027l-.206.018v-.027zm-.589.087v.032l-.119.009v-.032zm.16.137c.041 0 .059.014.064.055l-.174.018v-.059l.114-.014zm.442-.056-.118.033-.042-.026-.643.03v.032l1.069-.05v-.032zm-.739.12v.027l-.233.023v-.032zm-1.53 1.21v.032h.069a.235.235 0 0 1 .023-.1v-.059c-.037 0-.069.046-.091.128zm-2.352 3.416v.027c0 .041-.018.064-.064.069v-.027c-.005-.039.017-.057.063-.071zm-.059.128a1.68 1.68 0 0 1 -.119.443l-.1.009a1.943 1.943 0 0 1 .155-.443zm1.1.954c0 .032-.05.069-.155.105l-.2-.014h-.064v-.059l.425-.037zm.2.018v.027l-.164.014v-.027z" fill="#f4d44b"/></svg>