<svg xmlns="http://www.w3.org/2000/svg" viewBox="0 0 32 32"><title>file_type_robotframework</title><circle cx="16" cy="16" r="14" style="fill:#333"/><path d="M21.32,5.267c0,.354-.588.674-1.539.905a16.475,16.475,0,0,1-3.717.373,16.475,16.475,0,0,1-3.717-.373c-.951-.231-1.539-.552-1.539-.905s.588-.674,1.539-.905a16.475,16.475,0,0,1,3.717-.373,16.475,16.475,0,0,1,3.717.373C20.734,4.59,21.32,4.91,21.32,5.267Z" style="fill:#fff"/><path d="M16.066,7.126a15.316,15.316,0,0,1-4-.471c-1.2-.34-1.837-.821-1.837-1.388s.635-1.052,1.837-1.392a15.316,15.316,0,0,1,4-.475,15.318,15.318,0,0,1,4,.471c1.2.341,1.837.822,1.837,1.392s-.635,1.051-1.837,1.392A15.318,15.318,0,0,1,16.066,7.126Zm0-3.143a14.733,14.733,0,0,0-3.843.449c-1.12.316-1.413.671-1.413.832s.3.515,1.413.832a14.733,14.733,0,0,0,3.843.449,14.737,14.737,0,0,0,3.843-.449c1.12-.316,1.413-.671,1.413-.832s-.3-.515-1.413-.832A14.737,14.737,0,0,0,16.066,3.982Z"/><path d="M27.8,21.133H20.284l-1.751,2.286-3.648-4.76-1.892,2.465-8.182.009H4.217l.045.212a9.312,9.312,0,0,0,3.183,5.4c2.209,1.743,4.753,1.856,7.9,1.856h.711c3.5-.008,6.263-.015,8.617-1.912a9.174,9.174,0,0,0,3.063-5.267h.007v-.026a.237.237,0,0,1,.015-.056C27.785,21.238,27.8,21.133,27.8,21.133Zm-3.488,5.1c-2.2,1.773-4.869,1.773-8.253,1.784s-6.032.012-8.253-1.738a8.651,8.651,0,0,1-2.919-4.861l8.253-.007,1.746-2.281,3.648,4.76,1.9-2.477h6.71a8.43,8.43,0,0,1-2.826,4.815Z"/><path d="M18.533,23.9l-3.648-4.76-1.746,2.276-8.253.007a8.651,8.651,0,0,0,2.919,4.863c2.218,1.75,4.876,1.743,8.254,1.734s6.057-.015,8.253-1.784a8.43,8.43,0,0,0,2.827-4.812h-6.71Z" style="fill:#fff"/><path d="M27.975,20.2a30.922,30.922,0,0,0,.225-4.238c0-5.237-1.623-7.9-2.32-8.8-.407-.526-1.658-2.127-2.931-1.879a1.626,1.626,0,0,0-1.027.816,4.123,4.123,0,0,1-.6.712c-.822.747-2.206.782-5.257.8-2.586.017-3.939-.2-4.767-.8a5.923,5.923,0,0,1-.861-.712,2.065,2.065,0,0,0-1.278-.816C7.82,5.095,6.645,6.585,6.2,7.169c-.715.947-2.387,3.7-2.4,8.806a28.414,28.414,0,0,0,.252,4.271h.011l8.916,0,1.766-2.289,3.69,4.78,1.92-2.485h7.618ZM20.2,19.955l-1.773,2.293-3.69-4.78-1.91,2.481-8.231,0a30.469,30.469,0,0,1-.214-3.979c.013-4.929,1.6-7.554,2.285-8.455C7,7.082,7.979,5.8,8.933,5.79a1.637,1.637,0,0,1,1.075.62,6.378,6.378,0,0,0,.942.855c.951.693,2.333.933,5.113.933,2.98-.016,4.622-.025,5.644-.949a4.667,4.667,0,0,0,.686-.805c.252-.354.386-.527.667-.582.616-.123,1.41.438,2.36,1.665.659.853,2.191,3.382,2.2,8.44a28.73,28.73,0,0,1-.2,3.991Z"/><path d="M27.415,19.955H20.2l-1.773,2.293-3.69-4.78-1.91,2.482-8.231,0a30.469,30.469,0,0,1-.214-3.979c.013-4.929,1.6-7.554,2.285-8.455C7,7.082,7.979,5.79,8.933,5.79a1.685,1.685,0,0,1,1.075.62,6.378,6.378,0,0,0,.942.855c.951.693,2.333.933,5.113.933,2.98-.016,4.622-.025,5.644-.949a4.667,4.667,0,0,0,.686-.805c.252-.354.386-.527.667-.582.616-.123,1.41.438,2.36,1.665.659.853,2.191,3.382,2.2,8.44A28.73,28.73,0,0,1,27.415,19.955Zm-9.03-5.973V12.819H9.063v2.333h9.322Zm4.667,0V12.819h-3.5v2.333h3.5Z" style="fill:#fff"/></svg>