<svg xmlns="http://www.w3.org/2000/svg" viewBox="0 0 32 32"><title>file_type_buckbuild</title><g id="buckbuild"><path d="M9.93,3.81h-2V9.56L10.38,12h-3L4.16,8.79v-5H2v5.9l4.41,4.41h5.95l2.13,2.13H8.79l4.81,5-7,7H9.33l7-7.09L13.7,18.43H27.92v.89L21.77,23l-5.15,5.2h2.92l3.52-3.57L30,20.46V16.25H23.46L21.23,14l2.53-2.53V5.84H21.65v4.71l-2.06,2-1.83-1.92V5.84h-2v5.75l4.63,4.66H17.58L9.93,8.67V3.81" style="fill:#4a69a5"/><path d="M20.68,19.72H17.91l1.34,1.44,1.44-1.44" style="fill:#4a69a5"/></g></svg>