<svg xmlns="http://www.w3.org/2000/svg" xmlns:xlink="http://www.w3.org/1999/xlink" viewBox="0 0 32 32"><defs><linearGradient id="linear-gradient" x1="-134.51" y1="-206.11" x2="-134.46" y2="-206.23" gradientTransform="matrix(247.64, 0, 0, -153.77, 33318.95, -31686.7)" gradientUnits="userSpaceOnUse"><stop offset="0" stop-color="#8a9fe0"/><stop offset="0.59" stop-color="#7182b8"/><stop offset="1" stop-color="#576490"/></linearGradient></defs><title>file_type_php2@2x</title><g id="php2"><path d="M14.49,20.38a17.35,17.35,0,0,1,0,3.13.83.83,0,0,1-.44.71c-.83.62-3.62.77-4-.55-.13,0,0-.43-.15-.41a1.56,1.56,0,0,1-1.2-.73c0-1.43.16-6.61-2.4-5.21a2.51,2.51,0,0,0-1.17,1.43,4.91,4.91,0,0,0-.24,1.64c0,.71.16,1.49.18,2.35,0,.38.07.48-.21.81-.46.53-1.26.08-1.69-.49a1.89,1.89,0,0,1-.29-1,31.06,31.06,0,0,1,1-11.15c.37-1.23.49-1.41,1.66-1.68a13,13,0,0,1,4-.24c1.05-.34,3.54-2.19,4.62-.72A12.53,12.53,0,0,1,23.78,10a37.08,37.08,0,0,0,4.26.08l.64-.38a1.38,1.38,0,0,1,.49-.21c.23,0,.53,0,.6.24a3.29,3.29,0,0,1,.06.89.81.81,0,0,1-.64.76A4,4,0,0,1,28,11c-1.3,0-2.1,0-3.4,0,.21.22.2.37.35.67a6.38,6.38,0,0,1-.78,6c-.09,1.49,0,3,0,4.49,0,.52,0,1-.44,1.35a3.26,3.26,0,0,1-2.87.24,2.52,2.52,0,0,1-.67-.56,2.81,2.81,0,0,1-.5,0,1.21,1.21,0,0,1-.69-.51,3.61,3.61,0,0,1-.23-.53c0-.7,0-1,0-1.67a10.67,10.67,0,0,1-4.35-.12Z" style="fill:#ccc"/><path d="M12.09,24.84a3.75,3.75,0,0,1-1.22-.18,1.45,1.45,0,0,1-1-.86.46.46,0,0,1-.1-.32v0a1.8,1.8,0,0,1-1.25-.81l0,0v-.26c0-1.18,0-4.32-1-5a1.1,1.1,0,0,0-1.13.1,2.36,2.36,0,0,0-1.1,1.35A4.78,4.78,0,0,0,5,20.39a8.53,8.53,0,0,0,.08,1.2c0,.37.09.75.1,1.15,0,.06,0,.11,0,.16a.85.85,0,0,1-.26.76.82.82,0,0,1-.67.29A1.85,1.85,0,0,1,3,23.15a2,2,0,0,1-.32-1.05,31.07,31.07,0,0,1,1-11.21c.37-1.25.54-1.5,1.78-1.79a13.12,13.12,0,0,1,4.07-.25,8.38,8.38,0,0,0,.88-.4c1.23-.62,2.91-1.45,3.83-.33a12.63,12.63,0,0,1,9.57,1.77A36.05,36.05,0,0,0,28,10l.61-.36.06,0a1.37,1.37,0,0,1,.49-.2c.44-.07.7.05.78.36a3.48,3.48,0,0,1,.07.94,1,1,0,0,1-.79.91h-.05l-.26-.06a3.13,3.13,0,0,1-.89-.3c-.63,0-1.15,0-1.66,0s-.88,0-1.39,0c0,.06.06.12.08.19a2.47,2.47,0,0,0,.11.26,6.53,6.53,0,0,1-.76,6.13c-.06,1,0,2,0,2.92,0,.49,0,1,0,1.5v.09a1.45,1.45,0,0,1-.51,1.39,3.4,3.4,0,0,1-3,.26,1.8,1.8,0,0,1-.56-.44l-.11-.11h-.15a1,1,0,0,1-.33,0A1.37,1.37,0,0,1,19,22.8a1.78,1.78,0,0,1-.17-.36l-.08-.19v-.07c0-.35,0-.59,0-.83s0-.4,0-.66a10.82,10.82,0,0,1-4-.09,17.55,17.55,0,0,1-.06,2.93,1,1,0,0,1-.5.81A3.75,3.75,0,0,1,12.09,24.84Zm-2-1.32h0l0,.11a1.11,1.11,0,0,0,.79.72,3.91,3.91,0,0,0,2.92-.26.69.69,0,0,0,.38-.6,17.16,17.16,0,0,0,.06-3l-.09,0,.34-.69,0,.46a10.68,10.68,0,0,0,4.17.09l.18,0v.18c0,.35,0,.59,0,.83s0,.47,0,.81l.07.17a1.52,1.52,0,0,0,.14.3,1.06,1.06,0,0,0,.6.44.73.73,0,0,0,.22,0h.3l0,0,.16.16a1.54,1.54,0,0,0,.46.37,3.1,3.1,0,0,0,2.71-.22c.39-.27.38-.65.38-1.13v-.09c0-.5,0-1,0-1.49,0-1-.06-2,0-3v-.07l0,0a6.18,6.18,0,0,0,.74-5.79,2.76,2.76,0,0,1-.13-.29.91.91,0,0,0-.2-.35l-.24-.26h.35c.65,0,1.19,0,1.71,0s1,0,1.69,0h0l0,0a2.72,2.72,0,0,0,.83.29l.24.06a.67.67,0,0,0,.47-.61,3.14,3.14,0,0,0-.06-.85c0-.06,0-.18-.42-.12a1.06,1.06,0,0,0-.38.16l-.06,0-.63.38,0,0h0a36.33,36.33,0,0,1-4.28-.08h0l0,0a12.35,12.35,0,0,0-9.46-1.72l-.1,0-.06-.08c-.75-1-2.33-.23-3.49.35a7.89,7.89,0,0,1-1,.43H9.57a12.79,12.79,0,0,0-4,.24C4.45,9.67,4.37,9.81,4,11A30.75,30.75,0,0,0,3,22.07a1.68,1.68,0,0,0,.26.88,1.55,1.55,0,0,0,1,.67.5.5,0,0,0,.41-.18.55.55,0,0,0,.18-.53s0-.1,0-.16c0-.39-.05-.76-.1-1.12a8.75,8.75,0,0,1-.09-1.24A5,5,0,0,1,5,18.68a2.67,2.67,0,0,1,1.24-1.51,1.4,1.4,0,0,1,1.44-.1c1.22.73,1.2,3.89,1.19,5.24v.17a1.4,1.4,0,0,0,1,.62.2.2,0,0,1,.15,0,.4.4,0,0,1,.1.3Zm-.22-.1h0Z" style="fill:#ccc"/><path d="M13.89,20a17.35,17.35,0,0,1,0,3.13.83.83,0,0,1-.44.71c-.83.62-3.62.77-4-.55-.13,0,0-.43-.15-.41a1.56,1.56,0,0,1-1.2-.73c0-1.43.16-6.61-2.4-5.21a2.51,2.51,0,0,0-1.17,1.43A4.91,4.91,0,0,0,4.29,20c0,.71.16,1.49.18,2.35,0,.38.07.48-.21.81-.46.53-1.26.08-1.69-.49a1.89,1.89,0,0,1-.29-1,31.06,31.06,0,0,1,1-11.15c.37-1.23.49-1.41,1.66-1.68a13,13,0,0,1,4-.24c1.05-.34,3.54-2.19,4.62-.72a12.53,12.53,0,0,1,9.58,1.75,37.08,37.08,0,0,0,4.26.08l.64-.38a1.38,1.38,0,0,1,.49-.21c.23,0,.53,0,.6.24a3.29,3.29,0,0,1,.06.89.81.81,0,0,1-.64.76,4,4,0,0,1-1.15-.37c-1.3,0-2.1,0-3.4,0,.21.22.2.37.35.67a6.38,6.38,0,0,1-.78,6c-.09,1.49,0,3,0,4.49,0,.52,0,1-.44,1.35a3.26,3.26,0,0,1-2.87.24,2.52,2.52,0,0,1-.67-.56,2.81,2.81,0,0,1-.5,0,1.21,1.21,0,0,1-.69-.51,3.61,3.61,0,0,1-.23-.53c0-.7,0-1,0-1.67A10.67,10.67,0,0,1,13.89,20Z" style="fill:#373435"/><path d="M11.5,24.44a3.75,3.75,0,0,1-1.22-.18,1.45,1.45,0,0,1-1-.86.46.46,0,0,1-.1-.32v0A1.8,1.8,0,0,1,8,22.21l0,0v-.26c0-1.18,0-4.32-1-5a1.1,1.1,0,0,0-1.13.1,2.36,2.36,0,0,0-1.1,1.35A4.78,4.78,0,0,0,4.45,20a8.52,8.52,0,0,0,.08,1.2c0,.37.09.75.1,1.15,0,.06,0,.11,0,.16a.85.85,0,0,1-.26.76.82.82,0,0,1-.67.29,1.85,1.85,0,0,1-1.28-.79,2,2,0,0,1-.32-1.05,31.07,31.07,0,0,1,1-11.21C3.5,9.23,3.66,9,4.9,8.69A13.12,13.12,0,0,1,9,8.45,8.38,8.38,0,0,0,9.85,8c1.23-.62,2.91-1.45,3.83-.33a12.63,12.63,0,0,1,9.57,1.77,36,36,0,0,0,4.16.07L28,9.19l.06,0a1.37,1.37,0,0,1,.49-.2c.44-.07.7.05.78.36a3.48,3.48,0,0,1,.06.94,1,1,0,0,1-.79.91h-.05l-.26-.06a3.13,3.13,0,0,1-.89-.3c-.63,0-1.15,0-1.66,0s-.88,0-1.39,0c0,.06.06.12.08.19a2.47,2.47,0,0,0,.11.26,6.53,6.53,0,0,1-.76,6.13c-.06,1,0,2,0,2.92,0,.49,0,1,0,1.5v.09a1.45,1.45,0,0,1-.51,1.39,3.4,3.4,0,0,1-3,.26,1.8,1.8,0,0,1-.56-.44L19.62,23h-.15a1,1,0,0,1-.33,0,1.37,1.37,0,0,1-.78-.57,1.77,1.77,0,0,1-.17-.36l-.08-.19v-.07c0-.35,0-.59,0-.83s0-.4,0-.66a10.82,10.82,0,0,1-4-.09A17.56,17.56,0,0,1,14,23.13a1,1,0,0,1-.5.81A3.75,3.75,0,0,1,11.5,24.44Zm-2-1.32h0l0,.11a1.11,1.11,0,0,0,.79.72,3.91,3.91,0,0,0,2.92-.26.69.69,0,0,0,.38-.6,17.16,17.16,0,0,0,.06-3l-.09,0,.34-.69,0,.46a10.68,10.68,0,0,0,4.17.09l.18,0v.18c0,.35,0,.59,0,.83s0,.47,0,.81l.07.17a1.51,1.51,0,0,0,.14.3,1.06,1.06,0,0,0,.6.44.72.72,0,0,0,.22,0h.3l0,0,.16.16a1.54,1.54,0,0,0,.46.37A3.1,3.1,0,0,0,23.12,23c.39-.27.38-.65.38-1.13v-.09c0-.5,0-1,0-1.49,0-1-.06-2,0-3v-.07l0,0a6.19,6.19,0,0,0,.74-5.79,2.76,2.76,0,0,1-.13-.29.91.91,0,0,0-.2-.35l-.24-.26H24c.65,0,1.19,0,1.71,0s1,0,1.69,0h0l0,0a2.72,2.72,0,0,0,.83.29l.24.06a.67.67,0,0,0,.47-.61A3.14,3.14,0,0,0,29,9.39c0-.06,0-.18-.42-.12a1.06,1.06,0,0,0-.38.16l-.06,0-.63.38,0,0h0a36.35,36.35,0,0,1-4.28-.08h0l0,0A12.35,12.35,0,0,0,13.64,8l-.1,0L13.48,8c-.75-1-2.33-.23-3.49.35a7.89,7.89,0,0,1-1,.43H9A12.79,12.79,0,0,0,5,9c-1.12.26-1.2.4-1.55,1.57a30.75,30.75,0,0,0-1,11.09,1.68,1.68,0,0,0,.26.88,1.55,1.55,0,0,0,1,.67A.49.49,0,0,0,4.14,23a.55.55,0,0,0,.18-.53s0-.1,0-.16c0-.39-.05-.76-.1-1.12A8.74,8.74,0,0,1,4.13,20a5,5,0,0,1,.25-1.7,2.67,2.67,0,0,1,1.24-1.51,1.4,1.4,0,0,1,1.44-.1c1.22.73,1.2,3.89,1.19,5.24v.17a1.4,1.4,0,0,0,1,.62.2.2,0,0,1,.15,0,.4.4,0,0,1,.1.3ZM9.32,23h0Z" style="fill:#373435"/><path d="M18.57,19.95a4.78,4.78,0,0,0,.95-.19,11.58,11.58,0,0,1,.14,2.75,1.18,1.18,0,0,1-1.13-.66A8.77,8.77,0,0,1,18.57,19.95Z" style="fill:#6978ab"/><path d="M19.62,22.67a1.33,1.33,0,0,1-1.24-.75v-.06a9,9,0,0,1,.05-1.93l0-.12h.12a4.7,4.7,0,0,0,.91-.18l.16-.05,0,.17a10.18,10.18,0,0,1,.15,2.48v.46h-.19Zm-.94-.87a1,1,0,0,0,.82.55V22.2A11,11,0,0,0,19.4,20a5,5,0,0,1-.68.13A8.61,8.61,0,0,0,18.68,21.8Z" style="fill:#373435"/><path d="M4.05,22.68c-.22-1.47-.45-4.08.6-5.31A3.45,3.45,0,0,1,4.92,17c1.66-1.57,3.11-.22,3.51,1.51a27.31,27.31,0,0,1,.05,3.29,1.11,1.11,0,0,0,1.05.6c.15.32.11.55.29.76a2.5,2.5,0,0,0,2.7.69,8.44,8.44,0,0,0,.91-.45,10.14,10.14,0,0,0-.1-4c0-.18-.06-.31-.06-.49a.63.63,0,0,1,.31.14c-.2.73,2.56,1.24,5.77.35,0-.13,0-.29.05-.33a.4.4,0,0,1,.34,0c0,.23,0,.46,0,.7a4.65,4.65,0,0,0,.75,0,.84.84,0,0,1-.6.21c.06,0,0,.11,0,.12s.43,0,.55,0c-.22.13-.46.06-.61.2,0,.78.06,1.62.09,2.4a2.59,2.59,0,0,0,3.31-.15,28.63,28.63,0,0,0-.1-4.7l-.35-.05c1.83-2.46,2.18-5,.65-7.24,0-.1-.08-.2-.1-.3,1.33-.05,2.7.09,4,0a6.48,6.48,0,0,0,1.11.31c.39-.14.46-1.23.08-1.11s-.6.37-1,.52C26,10,24.34,10,22.81,10a9.5,9.5,0,0,0-9-1.55,8.37,8.37,0,0,1,.26,6.43c-.09.29-1.41,1.12-.33.21s.41-7.38-.93-7.39a6.33,6.33,0,0,0-4.25,1.7c-.21-.22-.19-.13-.1-.45a9.86,9.86,0,0,0-3.4.3,1.43,1.43,0,0,0-1.3.95,34,34,0,0,0-1.2,11.09,4.57,4.57,0,0,0,.35,1.3c.6.66.92.47,1.12.12Z" style="fill:url(#linear-gradient)"/><path d="M6.45,10.42a2.19,2.19,0,0,0-1.06-.15.14.14,0,0,0-.15.1.2.2,0,0,0,0,.15c0,.09,0,.08.11.1a.65.65,0,0,0,.3,0,.88.88,0,0,1,.75,0c.11,0,.12-.05.09-.14Z" style="fill:#373435"/><path d="M5.41,10.79H5.28a.25.25,0,0,1-.22-.2.37.37,0,0,1,0-.28.29.29,0,0,1,.28-.18,2.33,2.33,0,0,1,1.1.15h.08l0,.1a.24.24,0,0,1-.23.36H6.32a.72.72,0,0,0-.62,0h0A1,1,0,0,1,5.41,10.79Zm0-.32a.5.5,0,0,0,.2,0l.05,0H5.37Z" style="fill:#373435"/><path d="M5.62,11.69a.55.55,0,0,1,.51-.31c0-.13,0-.2-.16-.2a1.53,1.53,0,0,0-.58.51,1.05,1.05,0,0,0-.08.6.54.54,0,0,0,.2.35.67.67,0,0,0,.75,0c.36-.21.72-.81.09-1a1,1,0,0,0-.73.15s0,0,0,0Z" style="fill:#373435"/><path d="M5.82,12.91a.62.62,0,0,1-.41-.14.7.7,0,0,1-.26-.46,1.15,1.15,0,0,1,.1-.7A1.7,1.7,0,0,1,5.88,11l0,0H6a.34.34,0,0,1,.27.09.35.35,0,0,1,.06.29h0l.12,0a.59.59,0,0,1,.45.5,1,1,0,0,1-.51.82A1.07,1.07,0,0,1,5.82,12.91Zm-.32-1.07a1.08,1.08,0,0,0,0,.43.38.38,0,0,0,.14.25c.19.16.51,0,.57,0A.67.67,0,0,0,6.53,12c0-.1-.09-.17-.24-.23a.82.82,0,0,0-.59.14h0l-.11.05-.09-.09Z" style="fill:#373435"/><path d="M5.9,12.38a.4.4,0,0,0,0,.11.21.21,0,0,0,0,0,.21.21,0,0,1-.2,0c-.22-.1-.21-.41-.09-.58a.67.67,0,0,1,.53-.29c.12.06.15.12.09.13l-.1,0a.18.18,0,0,0-.1.11c.05,0,.08,0,.12,0v.16a.24.24,0,0,0-.16,0c-.1,0-.14.17-.14.26Z" style="fill:#fefefe"/><path d="M6.32,16.46A2.19,2.19,0,0,0,8,13.83a1.1,1.1,0,0,1-.51-.14c0-.07,0-.13,0-.2.41.2,1,.26.92-.37l.2,0c0,.44-.1.49-.37.67a3,3,0,0,1-.9,2.67.88.88,0,0,0,0,.41,1.23,1.23,0,0,0-1-.37Z" style="fill:#373435"/><path d="M7.63,17.39l-.4-.44a1.08,1.08,0,0,0-.91-.32H6.16v-.28l.11,0A2,2,0,0,0,7.86,14a1,1,0,0,1-.46-.15l-.06,0v-.27l0-.3.27.13a.73.73,0,0,0,.63.08c.06,0,.09-.14.07-.29l0-.14.13,0,.12,0h.08l.21-.06v.22c0,.46-.12.57-.36.74a3.17,3.17,0,0,1-.92,2.67.94.94,0,0,0,0,.25Zm-.7-1,.21.09a.43.43,0,0,1,0-.1v0l0,0L7.43,16A2.64,2.64,0,0,1,6.93,16.38Z" style="fill:#373435"/><path d="M22.16,23.21c0-.38-.07-.71-.08-1.09,0-.87-.68-1.06-.72-.19,0,.45,0,.88,0,1.31A2.24,2.24,0,0,0,22.16,23.21Z" style="fill:#8093d0"/><path d="M21.74,23.32H21.3v-.05c0-.14,0-.28,0-.43s0-.58,0-.89.2-.61.36-.61h0c.21,0,.45.28.46.8,0,.23,0,.44,0,.67s0,.27,0,.42v0h0A1.52,1.52,0,0,1,21.74,23.32Zm-.33-.12h0a2,2,0,0,0,.64,0c0-.13,0-.25,0-.37s0-.44,0-.67c0-.43-.2-.7-.36-.7h0c-.11,0-.24.13-.25.51s0,.6,0,.88C21.41,22.95,21.41,23.07,21.41,23.2Z" style="fill:#373435"/><path d="M21.37,23.26a6.36,6.36,0,0,1-.08-1.32c.06-.8-.7-1.64-.75-.16a8,8,0,0,0,.05,1.3A5.16,5.16,0,0,0,21.37,23.26Z" style="fill:#8093d0"/><path d="M21.43,23.32h-.07a5.14,5.14,0,0,1-.79-.18h0v0a8,8,0,0,1-.05-1.31c0-.48.1-.76.26-.84A.22.22,0,0,1,21,21a1.2,1.2,0,0,1,.36,1,5.47,5.47,0,0,0,.06,1.15ZM20.63,23a5,5,0,0,0,.67.15v-.08a5.65,5.65,0,0,1-.06-1.17,1.1,1.1,0,0,0-.31-.89.12.12,0,0,0-.13,0c-.05,0-.19.16-.21.75A7.89,7.89,0,0,0,20.63,23Z" style="fill:#373435"/><path d="M20.59,23.15l-.11-1.7c-.08-1.27-.59-1.12-.63-.08,0,.49,0,.76,0,1.26.24.16.49.48.76.51Z" style="fill:#8093d0"/><path d="M20.58,23.2a1.1,1.1,0,0,1-.56-.33,2.5,2.5,0,0,0-.23-.19l0,0v0a6.22,6.22,0,0,0,0-.72c0-.16,0-.33,0-.54,0-.53.16-.88.36-.88h0c.2,0,.34.36.37,1l.11,1.7h-.05Zm-.7-.59.21.18a1.28,1.28,0,0,0,.43.29l-.1-1.62c0-.63-.18-.86-.27-.86h0c-.09,0-.23.25-.25.78,0,.2,0,.37,0,.53A6.44,6.44,0,0,1,19.88,22.61Z" style="fill:#373435"/><path d="M11.87,24a7,7,0,0,0-.06-1.19c-.21-.92-.48-1-.8-.35V24a3.47,3.47,0,0,0,.86,0Z" style="fill:#8093d0"/><path d="M11.54,24.1l-.49,0h-.1v-1.6c.15-.33.3-.48.45-.47s.33.28.45.83v.09A6.61,6.61,0,0,1,11.92,24h-.05v0ZM11.06,24h0a3.44,3.44,0,0,0,.76,0,6.64,6.64,0,0,0-.05-1.05v-.08c-.15-.63-.29-.73-.36-.74s-.17,0-.34.39Z" style="fill:#373435"/><path d="M10.3,23.78c0-.59,0-1,0-1.56.21-.86.43-.77.65.26,0,.56,0,.92,0,1.47a1.65,1.65,0,0,1-.67-.17Z" style="fill:#8093d0"/><path d="M11,24h-.09a1.63,1.63,0,0,1-.66-.18l-.18-.1h.15v-.3c0-.41,0-.75,0-1.21h0c.11-.43.21-.63.35-.63h0c.1,0,.24.11.4.89v.35c0,.39,0,.7,0,1.14Zm-.67-.26a1.52,1.52,0,0,0,.56.14c0-.41,0-.71,0-1.08v-.34c-.16-.75-.28-.79-.3-.79s-.11,0-.24.54,0,.8,0,1.21Z" style="fill:#373435"/><path d="M9.5,22.62c0-.49.13-1,.16-1.48-.2-1-.42-1.14-.65-.51,0,.63,0,1.26,0,1.89a.71.71,0,0,0,.51.1Z" style="fill:#8093d0"/><path d="M9.37,22.7A.8.8,0,0,1,9,22.6l-.08,0v0q0-.47,0-.94t0-.94v0c.1-.29.21-.42.33-.41s.26.12.42.93h0c0,.25,0,.5-.08.74s-.07.49-.08.73v0h0ZM9,22.49h0a.61.61,0,0,0,.38.08c0-.24,0-.47.08-.71s.07-.49.08-.73c-.16-.76-.29-.83-.33-.83s-.1,0-.21.33,0,.62,0,.94S9.05,22.19,9,22.49Z" style="fill:#373435"/><path d="M19,22.47c0-.52,0-1,0-1.46s.63-.44.65.13.06.86.09,1.42a1.31,1.31,0,0,1-.73-.09Z" style="fill:#8093d0"/><path d="M19.46,22.62a.92.92,0,0,1-.45-.1h0v-.06a7.34,7.34,0,0,0,0-.84c0-.2,0-.41,0-.63s.17-.44.31-.44h0c.2,0,.43.22.44.57s0,.5,0,.72,0,.42,0,.7v.05h-.35Zm-.39-.18a1.1,1.1,0,0,0,.58.07h0c0-.25,0-.45,0-.65s0-.43,0-.72-.18-.46-.34-.46h0c-.12,0-.2.13-.21.34s0,.42,0,.62A7.78,7.78,0,0,1,19.08,22.43Z" style="fill:#373435"/><path d="M19,22.49c0-.38,0-.84,0-1.22s-.33-1.3-.47-.44a8.57,8.57,0,0,0-.08,1A4.07,4.07,0,0,0,19,22.49Z" style="fill:#b9c5ea"/><path d="M19,22.59,19,22.53A2.56,2.56,0,0,1,18.5,22l-.13-.17v0c0-.1,0-.2,0-.28a5.49,5.49,0,0,1,.07-.69c0-.11.07-.45.25-.43s.34.56.32.88,0,.4,0,.61,0,.42,0,.61Zm-.58-.82.12.16a3.57,3.57,0,0,0,.34.43c0-.16,0-.33,0-.49s0-.42,0-.61c0-.37-.14-.76-.23-.77s-.09.05-.14.34a5.4,5.4,0,0,0-.06.68C18.48,21.59,18.47,21.68,18.47,21.77Z" style="fill:#373435"/><path d="M14.44,15.46l.78-3.73c0-.29.12-.55.42-.58H16c.22,0,.35.13.37.4l-.08.55c0,.22.15.35.42.37l1.12.05c.56,0,.94.28.9,1l-.35,1.85a.73.73,0,0,1-.47.65c-.17,0-.36,0-.53,0s-.46-.09-.35-.47.24-1.09.35-1.58-.17-.61-.4-.65-.38,0-.58,0-.39.32-.47.62c-.12.52-.25,1-.37,1.55-.06.28-.12.46-.33.55h-.62q-.35-.08-.2-.55Z" style="fill:#373435"/><path d="M17.51,16.11H17.4A.47.47,0,0,1,17,16a.51.51,0,0,1,0-.47l.06-.28c.09-.42.2-.89.29-1.29s-.09-.49-.3-.53-.37,0-.56,0-.29.24-.37.54l-.17.69-.21.86c-.05.27-.12.51-.39.63h-.69a.4.4,0,0,1-.28-.19.62.62,0,0,1,0-.5l0-.1.4-1.94.35-1.66c0-.2.09-.63.52-.66H16c.16,0,.45.06.48.5h0l-.08.55c0,.11.05.24.32.26l.56,0,.56,0a.93.93,0,0,1,1,1.09h0l-.35,1.85a.83.83,0,0,1-.54.73h-.45Zm-.11-.22h.51a.63.63,0,0,0,.39-.56l.35-1.84c0-.56-.21-.82-.8-.86l-.56,0-.56,0c-.44,0-.52-.31-.53-.47h0l.08-.55c0-.26-.15-.29-.27-.29h-.37c-.18,0-.27.14-.32.48L15,13.42l-.43,2.06,0,.19h0a.26.26,0,0,0,0,.15.19.19,0,0,0,.13.08h.59c.14-.07.19-.2.24-.47l.21-.86.17-.69c.06-.23.17-.65.56-.7h0c.18,0,.37,0,.58,0h0c.29.05.52.14.48.76v0c-.09.39-.2.87-.29,1.29l-.06.28c0,.14,0,.24,0,.29s.16.06.24.06Z" style="fill:#fefefe"/><path d="M9.62,16.89c.26-1.32.52-2.64.77-4a.43.43,0,0,1,.45-.45h2.35a1.23,1.23,0,0,1,1.11.62,1.59,1.59,0,0,1,.19.93,2.35,2.35,0,0,1-.69,1.47,2.19,2.19,0,0,1-1.15.5l-1.2,0c-.23,0-.46,0-.52.22s-.12.5-.19.75a.42.42,0,0,1-.27.23H9.78C9.53,17.25,9.58,17.1,9.62,16.89Zm1.64-2.27c.07-.35.15-.74.21-1a.45.45,0,0,1,.45-.3,1.82,1.82,0,0,1,.71.09A.77.77,0,0,1,13,14.45a1.44,1.44,0,0,1-.85.7,1.65,1.65,0,0,1-.51.05c-.44,0-.47-.16-.4-.58Z" style="fill:#373435"/><path d="M9.77,17.35a.28.28,0,0,1-.23-.09c-.08-.09-.05-.21,0-.34v0l.42-2.18.34-1.76a.5.5,0,0,1,.14-.38.56.56,0,0,1,.42-.17h2.34a1.33,1.33,0,0,1,1.2.68,1.69,1.69,0,0,1,.2,1,2.46,2.46,0,0,1-.72,1.53h0a2.29,2.29,0,0,1-1.2.52H11.44c-.16,0-.36,0-.4.15s-.07.24-.1.37-.06.25-.1.38a.51.51,0,0,1-.33.3H9.77Zm-.07-.22h.75c.11,0,.17-.1.19-.15s.07-.25.1-.37.06-.25.1-.38.3-.33.62-.3h1.19a2.08,2.08,0,0,0,1.08-.47A2.25,2.25,0,0,0,14.38,14a1.49,1.49,0,0,0-.18-.88,1.14,1.14,0,0,0-1-.56H10.84a.34.34,0,0,0-.26.11.28.28,0,0,0-.08.23v0l-.35,1.78-.42,2.18v0a.54.54,0,0,0,0,.17Zm2.05-1.81h-.11a.64.64,0,0,1-.46-.18c-.09-.12-.08-.28,0-.53l0-.2h0l.11-.54.07-.34a.56.56,0,0,1,.55-.36,1.89,1.89,0,0,1,.74.1.81.81,0,0,1,.47.45,1,1,0,0,1,0,.78h0a1.54,1.54,0,0,1-.91.74A2.07,2.07,0,0,1,11.75,15.32Zm-.41-.51a.31.31,0,0,0,0,.2s.13.08.31.09a1.58,1.58,0,0,0,.48,0,1.32,1.32,0,0,0,.78-.65.77.77,0,0,0,0-.6.6.6,0,0,0-.35-.33,1.71,1.71,0,0,0-.67-.08.34.34,0,0,0-.35.23l-.06.3-.15.73Z" style="fill:#fefefe"/><path d="M18.55,16.89c.26-1.32.52-2.64.77-4a.43.43,0,0,1,.45-.45h2.35a1.23,1.23,0,0,1,1.11.62,1.59,1.59,0,0,1,.19.93,2.35,2.35,0,0,1-.69,1.47,2.19,2.19,0,0,1-1.15.5l-1.2,0c-.23,0-.46,0-.52.22s-.12.5-.19.75a.42.42,0,0,1-.27.23H18.7C18.45,17.25,18.5,17.1,18.55,16.89Zm1.64-2.27c.07-.35.15-.74.21-1a.45.45,0,0,1,.45-.3,1.82,1.82,0,0,1,.71.09.77.77,0,0,1,.38,1.08,1.44,1.44,0,0,1-.85.7,1.65,1.65,0,0,1-.51.05c-.44,0-.47-.16-.4-.58Z" style="fill:#373435"/><path d="M18.69,17.35a.28.28,0,0,1-.23-.09c-.08-.09-.05-.21,0-.34v0l.42-2.18.34-1.77a.49.49,0,0,1,.14-.38.56.56,0,0,1,.42-.17h2.34a1.33,1.33,0,0,1,1.2.68,1.69,1.69,0,0,1,.2,1,2.46,2.46,0,0,1-.72,1.53h0a2.29,2.29,0,0,1-1.2.52H20.36c-.16,0-.36,0-.4.15s-.06.24-.1.37-.06.25-.1.38a.51.51,0,0,1-.33.3h-.75Zm-.07-.22h.75c.11,0,.17-.1.19-.15s.07-.25.1-.37.06-.25.1-.38.3-.33.62-.3h1.19a2.08,2.08,0,0,0,1.08-.47A2.25,2.25,0,0,0,23.3,14a1.49,1.49,0,0,0-.18-.88,1.14,1.14,0,0,0-1-.56H19.76a.34.34,0,0,0-.26.11.28.28,0,0,0-.08.23v0l-.35,1.78-.42,2.18h0v0a.54.54,0,0,0,0,.17Zm2.05-1.81h-.11a.64.64,0,0,1-.46-.18c-.09-.12-.08-.28,0-.53l0-.2h0l.11-.54.07-.34a.55.55,0,0,1,.55-.36,1.9,1.9,0,0,1,.74.1.81.81,0,0,1,.47.45,1,1,0,0,1,0,.78h0a1.54,1.54,0,0,1-.91.74A2.07,2.07,0,0,1,20.67,15.32Zm-.41-.51a.31.31,0,0,0,0,.2s.13.08.31.09a1.58,1.58,0,0,0,.48,0,1.32,1.32,0,0,0,.78-.65.78.78,0,0,0,0-.6.6.6,0,0,0-.35-.33,1.71,1.71,0,0,0-.67-.08.34.34,0,0,0-.35.23l-.06.3-.15.73Z" style="fill:#fefefe"/><path d="M3.42,22.91a1.62,1.62,0,0,1-.3-.39A1.41,1.41,0,0,1,3,21.78c-.26-4.43,0-8.31,1.38-11.48.17-.39.2-.51.56-.68a7.43,7.43,0,0,1,3.45-.4c0-.1.11-.2.08-.3a10,10,0,0,0-3.15.25c-.7.11-1.38.23-1.55,1.35-1.41,3.74-1.31,7.28-1.16,10.76a2.43,2.43,0,0,0,.11.74c.28.88.54.85.75.89Z" style="fill:#ebefff"/><path d="M8.85,22.35c0-.92-.08-1.85-.08-2.77A5.41,5.41,0,0,0,8.43,18a7.48,7.48,0,0,0-.7-1,7.39,7.39,0,0,1,.7,4.92C8.57,22.07,8.7,22.21,8.85,22.35Z" style="fill:#ebefff"/><path d="M8.92,22.53l-.07,0A1.54,1.54,0,0,1,8.19,22l-.07-.09h.07c0-.33,0-.63,0-.93s0-.63,0-1v-.06h.06a.79.79,0,0,1,.69.6H9c0,.34,0,.65,0,1s0,.62,0,1Zm-.63-.61a1.52,1.52,0,0,0,.53.46c0-.32,0-.6,0-.89s0-.61,0-.95A.67.67,0,0,0,8.3,20c0,.32,0,.62,0,.91S8.31,21.57,8.29,21.92Z" style="fill:#373435"/><path d="M10.25,23.66a1,1,0,0,1-.5-.42c0-1.65-.07-3.3-.1-4.95l.25.25A6,6,0,0,1,10,19.59l.08.2A37.7,37.7,0,0,0,10.25,23.66Z" style="fill:#ebefff"/><path d="M10.33,24l-.07,0a1.21,1.21,0,0,1-.67-.59h0v0c0-.55,0-1.12,0-1.67h0c.15-.28.28-.45.42-.42s.24.15.32.93c0,.58,0,1.18,0,1.76Zm-.64-.65a1.12,1.12,0,0,0,.54.5c0-.56,0-1.12,0-1.67-.08-.73-.19-.83-.23-.84s-.13,0-.3.36C9.7,22.27,9.7,22.83,9.69,23.37Zm0,0h0Z" style="fill:#373435"/><path d="M8.5,18.06a.71.71,0,0,0,0-.25l.12,0,.65.53a.38.38,0,0,0,.2-.2.27.27,0,0,1,.21.1c0,.42,0,.83,0,1.25a.36.36,0,0,1,.12.22,7.18,7.18,0,0,1,.8.08c0,.07,0,.11.05.17a4,4,0,0,0-.9,0v.19a2.84,2.84,0,0,1,.7.05l0,.14a2.83,2.83,0,0,0-.75,0c0,1,0,2.05,0,3.09-.08-.19-.24-.38-.33-.58a19.57,19.57,0,0,0,.06-4A2.75,2.75,0,0,0,8.5,18.06Z" style="fill:#373435"/><path d="M9.54,23.52a2,2,0,0,0-.15-.27,2.41,2.41,0,0,1-.17-.3l0,0v0A19.41,19.41,0,0,0,9.27,19a2.7,2.7,0,0,0-.85-.77l-.09-.06,0-.11a.34.34,0,0,0,0-.11l0-.08,0-.24.24.06h.16l.58.47,0-.06,0-.1h.11a.43.43,0,0,1,.35.17l0,0v0c0,.21,0,.43,0,.63s0,.37,0,.56a.57.57,0,0,1,.09.13l.49,0,.21,0h.11l0,.11,0,.07,0,.1,0,.21-.22,0h0l.07.4-.21,0a2.89,2.89,0,0,0-.57,0c0,1.14,0,2.08,0,3Zm0-.66,0,0q0-.11,0-.22ZM9.31,18.5a2,2,0,0,1,.17.21c0-.11,0-.23,0-.35A.62.62,0,0,1,9.31,18.5Z" style="fill:#373435"/><path d="M9.12,9a3.47,3.47,0,0,0,1.31-.45A6,6,0,0,1,13,7.77a1.8,1.8,0,0,0-1.2-.1A7.18,7.18,0,0,0,9.12,9Z" style="fill:#ebefff"/><path d="M14.11,8.41a10.41,10.41,0,0,1,6.65.3,9.77,9.77,0,0,0-6.62-.45C14.14,8.36,14.11,8.31,14.11,8.41Z" style="fill:#ebefff"/></g></svg>