<svg xmlns="http://www.w3.org/2000/svg" viewBox="0 0 32 32"><title>file_type_rest@2x</title><g id="rest"><path d="M16,30A13.86,13.86,0,0,1,2.29,16a14.15,14.15,0,0,1,4-9.9,13.52,13.52,0,0,1,19.39,0,14.15,14.15,0,0,1,4,9.9A13.86,13.86,0,0,1,16,30Z" style="fill:#ce3f31"/><path d="M11.87,23h-.4a4.26,4.26,0,0,1-1-.11,1.39,1.39,0,0,1-.77-.55,2.2,2.2,0,0,1-.41-1,13.28,13.28,0,0,1-.08-1.73,12.78,12.78,0,0,0-.08-1.69A1.77,1.77,0,0,0,8.67,17a1.33,1.33,0,0,0-1-.39V15.4a1.33,1.33,0,0,0,1-.39,1.77,1.77,0,0,0,.41-.92,12.78,12.78,0,0,0,.08-1.69,13.28,13.28,0,0,1,.08-1.73,2.2,2.2,0,0,1,.41-1,1.39,1.39,0,0,1,.77-.55,4.26,4.26,0,0,1,1-.11h.4v1.14h-.23q-.76,0-.93.4a7.72,7.72,0,0,0-.17,2.17A4.88,4.88,0,0,1,10.12,15a2.12,2.12,0,0,1-1.26,1,2.09,2.09,0,0,1,1.26,1,4.88,4.88,0,0,1,.42,2.32,7.72,7.72,0,0,0,.17,2.17q.17.4.93.4h.23Zm1.6-3.14h1V16.42H16l2,3.45h1.18L17,16.31A2.24,2.24,0,0,0,18.87,14c0-1.7-1.2-2.29-2.86-2.29H13.47Zm1-4.3v-3h1.36c1.27,0,2,.39,2,1.46s-.7,1.58-2,1.58ZM20.07,9h.4a4.26,4.26,0,0,1,1,.11,1.39,1.39,0,0,1,.77.55,2.2,2.2,0,0,1,.41,1,13.28,13.28,0,0,1,.08,1.73,12.78,12.78,0,0,0,.08,1.69,1.77,1.77,0,0,0,.41.92,1.33,1.33,0,0,0,1,.39v1.19a1.33,1.33,0,0,0-1,.39,1.77,1.77,0,0,0-.41.92,12.78,12.78,0,0,0-.08,1.69,13.28,13.28,0,0,1-.08,1.73,2.2,2.2,0,0,1-.41,1,1.39,1.39,0,0,1-.77.55,4.26,4.26,0,0,1-1,.11h-.4V21.88h.23q.76,0,.93-.4a7.72,7.72,0,0,0,.17-2.17A4.88,4.88,0,0,1,21.81,17a2.09,2.09,0,0,1,1.26-1,2.12,2.12,0,0,1-1.26-1,4.88,4.88,0,0,1-.42-2.32,7.72,7.72,0,0,0-.17-2.17q-.17-.4-.93-.4h-.23Z" style="fill:#fff"/></g></svg>