<svg xmlns="http://www.w3.org/2000/svg" fill="none" viewBox="0 0 32 32"><g stroke-width=".41"><path d="M-4.835 35.415h39.576v-39.07H-4.835z"/><path fill="#bababa" d="M6.617 4.848c2.392-2.657 9.565-3.622 11.405-2.688s7.503 8.049 6.44 9.795c-1.78 2.92-4.808 5.061-5.367 5.486-.645-1.014-4.688.708-3.764 2.54.07.768-3.941 2.632-5.767 2.786a.8.8 0 0 1-.427 0c-2.377-.288-6.628-5.091-7.14-7.038-.912-3.48 3.737-9.9 4.619-10.88"/><path stroke="rgba(107, 107, 107, 0.78)" d="M6.835 5.046c2.438-2.72 9.748-3.707 11.623-2.75 1.875.955 7.645 8.234 6.562 10.021M6.835 5.045c-.9 1.003-5.638 7.574-4.707 11.133.52 1.992 4.853 6.906 7.276 7.2M6.834 5.045C11.3 13.2 16.12 15.98 15.716 16.53m9.305-4.213c-1.813 2.988-4.899 5.178-5.47 5.613-.656-1.038-4.776.724-3.835 2.598.078.856-4.767 3.037-6.311 2.85m15.616-11.06-9.304 4.213m-6.312 6.848c1.728.54 5.908-6.296 6.312-6.848" transform="matrix(.98129 0 0 .97734 -.09 -.083)"/><path fill="#d1a656" stroke="rgba(122, 85, 15, 1)" d="M15.723 20.518c-.784-1.947 3.083-3.599 3.831-2.598l8.667 9.202c-.542-.967-5.645 1.899-4.638 3.598z" transform="matrix(.98129 0 0 .97734 -.09 -.083)"/><path fill="#b87e44" stroke="rgba(122, 85, 15, 1)" d="M23.383 30.321c.312 1.841 5.988-1.244 4.84-3.198-.15-1.014-5.007 1.53-4.84 3.198z" transform="matrix(.98129 0 0 .97734 -.09 -.083)"/><path fill="#89a5e8" stroke="rgba(69, 106, 191, 1)" d="M10.895 6.62c-.54-1.599 6.948-2.746 6.958-2.104.908.147 4.792 5.835 4.256 5.749.026 1.047-4.964 3.234-5.956 2.81-.568 0-4.262-3.508-5.258-6.456z" transform="matrix(.98129 0 0 .97734 -.09 -.083)"/><path stroke="rgba(255, 255, 255, 1)" stroke-linecap="round" d="m18.082 9.748.041.14.015.045.01.026.008.018.01.023a.403.4 0 0 0 .026.057.807.8 0 0 0 .028.05.807.8 0 0 0 .035.056l.034.056.024.036a.403.4 0 0 1 .026.04l.014.023a.403.4 0 0 1 .031.057l.017.036.04.086.02.041.019.038.032.074a.403.4 0 0 0 .03.058 1.21 1.2 0 0 1 .033.061l.016.033a1.21 1.2 0 0 0 .03.063l.015.028.015.03.015.027a.807.8 0 0 1 .032.058 1.21 1.2 0 0 1 .034.064l.025.05.026.049a1.613 1.6 0 0 0 .047.081l.004.007q0 .003.003.006l.004.007.004.008.004.008a.121.12 0 0 1 .008.02l.004.01.003.01.004.01.011.028.014.041m-1.775-1.36.129-.077.052-.032q.022-.015.048-.03l.044-.026a1.21 1.2 0 0 1 .091-.05l.048-.025.095-.049.047-.024.047-.024.086-.044.045-.022a4.033 3.998 0 0 0 .18-.093l.085-.043a2.017 1.999 0 0 1 .171-.075l.09-.036.12-.044.031-.014.059-.022.051-.02a.403.4 0 0 1 .031-.01l.018-.006.02-.01.082-.04m1.472-.473a5.243 5.197 0 0 0-.137-.065l-.028-.012a.493.489 0 0 0-.09-.022.403.4 0 0 0-.064-.002h-.04a.38.376 0 0 0-.107.028.524.52 0 0 0-.1.056.403.4 0 0 0-.042.034.807.8 0 0 0-.069.074q-.018.023-.037.052l-.035.054a.807.8 0 0 0-.032.052.565.56 0 0 0-.047.105.726.72 0 0 0-.035.174 1.21 1.2 0 0 0-.004.066 3.226 3.198 0 0 0-.002.133q0 .03.006.064a.484.48 0 0 0 .066.163 1.21 1.2 0 0 0 .057.08.403.4 0 0 0 .037.04l.016.012a.234.232 0 0 0 .041.02.403.4 0 0 0 .062.014l.027.003.033.001h.043a.403.4 0 0 0 .047-.008.807.8 0 0 0 .155-.052l.063-.028.066-.03a1.21 1.2 0 0 1 .2-.071 2.017 1.999 0 0 1 .131-.023l.06-.01a1.21 1.2 0 0 1 .197-.014h.05l.014.003a.403.4 0 0 1 .054.025.403.4 0 0 1 .038.024.403.4 0 0 1 .024.02l.012.01.01.012.01.02.013.026.015.03a.282.28 0 0 1 .021.073q.003.018.004.037a1.21 1.2 0 0 1 .002.08.403.4 0 0 1-.004.045.403.4 0 0 1-.01.048 1.21 1.2 0 0 1-.033.103.754.748 0 0 1-.264.357.928.92 0 0 1-.115.068.739.732 0 0 1-.123.047 1.613 1.6 0 0 1-.12.03.807.8 0 0 1-.055.007l-.115.011-.05.004-.04.004-.039.002-.087.004a1.21 1.2 0 0 1-.092.003.807.8 0 0 1-.067-.002l-.023-.001a.121.12 0 0 1-.035-.01l-.039-.014" transform="matrix(.98129 0 0 .97734 -.09 -.083)"/><path fill="#fcd056" stroke="rgba(184, 151, 61, 1)" d="M8.83 12.272c.477-.514 2.188 1.532 1.838 2.14-.557.97-2.177 2.33-2.177 2.736 0 .405.813.656.813 1.406 0 .397-3.234.035-3.228-.202-.252-.184-.742-2.55-.646-3.77.094-1.22 1.312 1.106 1.507.8 1.161-1.824 1.416-2.596 1.893-3.11z" transform="matrix(.98129 0 0 .97734 -.09 -.083)"/></g></svg>