<svg viewBox="0 0 32 32" xmlns="http://www.w3.org/2000/svg"><g fill="#c5c5c5"><path d="m27.05 13.9v-.9a1.793 1.793 0 0 0 -1.8-1.8h-18.6a1.793 1.793 0 0 0 -1.8 1.8v.9a1.525 1.525 0 0 0 -.7 1.2v2.4a1.387 1.387 0 0 0 .7 1.2v.9a1.793 1.793 0 0 0 1.8 1.8h18.7a1.793 1.793 0 0 0 1.8-1.8v-.9a1.525 1.525 0 0 0 .7-1.2v-2.4a1.742 1.742 0 0 0 -.8-1.2z"/><path d="m15.95 2a9.925 9.925 0 0 0 -9.8 8.6h19.6a9.925 9.925 0 0 0 -9.8-8.6z"/><path d="m13.05 24h5.8l.6.7.9-.7-.9-1.1h-7l-.9 1.1.9.7z"/></g><path d="m23.55 17.6h-15.2a1.3 1.3 0 1 1 0-2.6h15.3a1.324 1.324 0 0 1 1.3 1.3 1.493 1.493 0 0 1 -1.4 1.3z" fill="#ec1c24"/><path d="m23.05 22v3.8a1.967 1.967 0 0 1 -1.9 1.9h-1a.864.864 0 0 1 -.6-.3l-1.2-1.6a.6.6 0 0 0 -.6-.3h-3.6a.764.764 0 0 0 -.5.2l-1.3 1.6a.6.6 0 0 1 -.6.3h-1a1.967 1.967 0 0 1 -1.9-1.9v-3.7h-2.3v3.8a4.225 4.225 0 0 0 4.2 4.2h10.4a4.225 4.225 0 0 0 4.2-4.2v-3.8z" fill="#c5c5c5"/></svg>