<svg xmlns="http://www.w3.org/2000/svg" viewBox="0 0 32 32"><title>file_type_glide</title><path d="M4.615,9.863c.024-.107.3-.108.321,0C4.829,9.865,4.722,9.864,4.615,9.863Z" style="fill:#bebdbc"/><path d="M4.32,9.924c.036-.093.093-.106.17-.039A.216.216,0,0,1,4.32,9.924Z" style="fill:#b5b2b0"/><path d="M4.49,9.886l.126-.022c.107,0,.214,0,.321,0l.12.014.116.043a.475.475,0,0,1,.3.137.444.444,0,0,0,.211.108,1.6,1.6,0,0,1,.387.178l.018.011c.091.055.182.112.272.17l.022.014.145.1.027.018.148.1.028.017.147.093.022.014.268.165.018.01c.091.054.183.106.275.158l.02.011c.136.074.268.153.4.233l.027.016.035.019.029.016a2.152,2.152,0,0,1,.487.3.509.509,0,0,0,.284.147.443.443,0,0,1,.249.127.332.332,0,0,0,.184.108l.041.014.028.01a6.836,6.836,0,0,1,.654.341l.028.016.035.019.029.015c.222.115.444.228.659.355l.028.016.034.019.029.015c.213.115.43.222.643.34l.02.011q.26.145.519.292l.033.018L12,13.69l.042.021.048.024.034.017a4.522,4.522,0,0,1,.409.23l.023.015.146.092.022.014c.091.055.182.108.269.169l.019.014.114.1a.293.293,0,0,0,.179.1l.077.044.1.065a1.418,1.418,0,0,1,.4.194l.029.019.042.027.036.023.046.031a.624.624,0,0,0,.261.111l.052.016.125.035.054.017a.442.442,0,0,0,.231.041h.059a.818.818,0,0,0,.282-.031l.185-.025a.212.212,0,0,0,.168-.039L15.566,15a.207.207,0,0,0,.167-.038l.177-.024.117-.043.18-.012a.2.2,0,0,0,.167-.036l.119-.02a.225.225,0,0,0,.171-.041l.052-.014a.228.228,0,0,0,.172-.04l.121-.021a.211.211,0,0,0,.169-.036l.114-.022.117-.044.178-.015.118-.043.115-.011a.21.21,0,0,0,.168-.038l.118-.02a.215.215,0,0,0,.17-.038l.122-.017a.517.517,0,0,0,.217-.035l.193-.023a.929.929,0,0,0,.267-.029l.116-.024a.406.406,0,0,1-.231.207,7.856,7.856,0,0,1-1.244.264,15.416,15.416,0,0,1-3.423.446,5.709,5.709,0,0,0-1-.118,1.635,1.635,0,0,0-.7-.555c-.241-.112-.483-.334-.767-.228l.017-.183c-.354-.174-.694-.373-1.038-.562a.463.463,0,0,0-.335-.027c-.213-.281-.548-.611-.933-.515l-.205-.284a2.34,2.34,0,0,0,.774.1c-.3-.179-.645-.274-.95-.448-.391-.219-.759-.478-1.151-.694a18.815,18.815,0,0,1-1.932-1.071,1.657,1.657,0,0,0-.955-.343l.11.2a3.032,3.032,0,0,0-1.451-.337,2.145,2.145,0,0,1,.584.2c-.41-.01-.8-.163-1.214-.149.2.076.412.141.62.209-.534.012-1.068-.018-1.6.031a1.054,1.054,0,0,1,.589.335c.269.389.77.534,1.024.936a1.984,1.984,0,0,1-.464-.269l-.018-.013c-.144-.1-.3-.182-.443-.275l-.019-.012c-.133-.086-.264-.176-.389-.274l-.017-.013c-.165-.159-.4-.3-.427-.546l.146,0a1.39,1.39,0,0,0,.381-.036l.118-.017a.22.22,0,0,0,.167-.046l.181-.023.118-.042.115-.012a.206.206,0,0,0,.167-.039l.114-.025.12-.039.118-.013A.212.212,0,0,0,3.913,10l.119-.019a.213.213,0,0,0,.17-.038l.118-.02a.216.216,0,0,0,.17-.039m5.447,3.089a2.841,2.841,0,0,0,.743.445c.907.49,1.792,1.019,2.7,1.512a2.043,2.043,0,0,0,.887.241c-.072-.184-.287-.2-.445-.275a22.142,22.142,0,0,1-2.5-1.357C10.879,13.305,10.467,12.923,9.936,12.975Z" style="fill:#26211d"/><path d="M22.852,9.933a3.238,3.238,0,0,1,.534,0l-.067.106-.024.124-.02.047a.209.209,0,0,0-.04.169c-.005.03-.015.091-.02.121a.227.227,0,0,0-.042.172l-.013.055a.242.242,0,0,0-.042.176l-.016.055a.24.24,0,0,0-.043.175l-.014.054a.231.231,0,0,0-.043.172l-.007.052-.043.117a.472.472,0,0,1-.084.3l-.035.119-.014.05-.044.118-.014.053-.043.119-.014.054-.042.121-.014.054-.052.115-.021.04a.555.555,0,0,0-.091.236.47.47,0,0,1-.076.2l-.048.12-.019.056-.016.04-.02.048-.017.039-.025.059-.184.086c.064-.241.133-.482.215-.717.207-.6.365-1.206.56-1.8a7.287,7.287,0,0,0,.267-.854,1.138,1.138,0,0,0-.558.793,9.955,9.955,0,0,1-.475,1.249c.148-.526.331-1.041.521-1.553a1.386,1.386,0,0,1,.578-.641,2.442,2.442,0,0,0-1.076.207,2.918,2.918,0,0,0-.625.989c-.42.756-.872,1.494-1.315,2.236a3.287,3.287,0,0,1-.361-.051c-.271-.185-.593-.268-.868-.445a6.757,6.757,0,0,0,1.255.339,7.409,7.409,0,0,0-1.308-.5l0,.168-.306-.166c-.318.175-.686.212-1.017.356a2,2,0,0,0,.351.228.868.868,0,0,0,.269-.02.983.983,0,0,0,.261.3c.165.081.354.1.516.185a.558.558,0,0,1,.216.352,1.214,1.214,0,0,1-.326-.16.511.511,0,0,0-.236-.11l-.043-.012-.031-.01a2.133,2.133,0,0,1-.227-.1l-.021-.01c-.13-.07-.256-.145-.382-.221l-.019-.011-.272-.163-.019-.011q-.147-.084-.3-.159c0-.042,0-.126-.006-.168l.111-.014a.172.172,0,0,1,.183-.085l.115-.046.05-.012.119-.044.054-.014.12-.043.054-.009a.227.227,0,0,0,.171-.039l.118-.02a.205.205,0,0,0,.166-.037.875.875,0,0,1,.359-.026l.095,0a1.238,1.238,0,0,1,.3.013l.113.046a1.176,1.176,0,0,1,.666.3l.017.013.112.084.089-.057.053-.11.017-.042a.972.972,0,0,0,.1-.258l.012-.043.009-.029a3.445,3.445,0,0,1,.4-.747l.015-.024.09-.145.014-.024a1.992,1.992,0,0,1,.286-.4.318.318,0,0,0,.108-.175l.063-.149.011-.021.073-.118a4.046,4.046,0,0,0,.356-.663.266.266,0,0,1,.226-.1L22.256,10l.093-.022C22.516,9.963,22.684,9.952,22.852,9.933Z" style="fill:#26211d"/><path d="M5.057,9.877,5.1,9.849l.059.022.013.05Z" style="fill:#ababab;opacity:0.8700000047683716;isolation:isolate"/><path d="M4.032,9.982q.054-.14.17-.038A.213.213,0,0,1,4.032,9.982Z" style="fill:#b7b5b6"/><path d="M22.349,9.978a.859.859,0,0,1,.5-.044C22.684,9.952,22.516,9.963,22.349,9.978Z" style="fill:#cbbfb5"/><path d="M5.47,10.057c.064-.08.255.006.211.108A.444.444,0,0,1,5.47,10.057Z" style="fill:#cbbfb5"/><path d="M21.559,10.8a1.56,1.56,0,0,1,.356-.663A4.046,4.046,0,0,1,21.559,10.8Z" style="fill:#cbbfb5"/><path d="M23.235,10.378a.209.209,0,0,1,.04-.169Q23.375,10.326,23.235,10.378Z" style="fill:#cbbfb5"/><path d="M2.146,10.331c.038-.125.285-.1.381-.036A1.39,1.39,0,0,1,2.146,10.331Z" style="fill:#cbbfb5"/><path d="M21.3,11.264c-.074-.062.018-.216.108-.175A.318.318,0,0,1,21.3,11.264Z" style="fill:#cbbfb5"/><path d="M8.456,11.8c.087-.061.306.036.284.147A.509.509,0,0,1,8.456,11.8Z" style="fill:#cbbfb5"/><path d="M20.384,12.939c-.076-.074-.013-.261.1-.258A.972.972,0,0,1,20.384,12.939Z" style="fill:#cbbfb5"/><path d="M22.484,12.907a.555.555,0,0,1,.091-.236C22.651,12.735,22.59,12.933,22.484,12.907Z" style="fill:#cbbfb5"/><path d="M9.936,12.975c.53-.051.943.331,1.378.566a22.142,22.142,0,0,0,2.5,1.357c.158.07.373.091.445.275a2.043,2.043,0,0,1-.887-.241c-.9-.493-1.789-1.022-2.7-1.512A2.841,2.841,0,0,1,9.936,12.975Z" style="fill:#cbbfb5"/><path d="M22.67,13.59l.165.087c-.01.1-.013.2-.018.3L22.8,13.94A2.442,2.442,0,0,0,22.67,13.59Z" style="fill:#cbbfb5"/><path d="M18.616,13.942a.511.511,0,0,1,.236.11C18.779,14.123,18.6,14.045,18.616,13.942Z" style="fill:#cbbfb5"/><path d="M18.809,14.368c0-.115.214-.112.267-.029A.929.929,0,0,1,18.809,14.368Z" style="fill:#cbbfb5"/><path d="M13.124,14.39c.06-.072.217.012.179.1A.293.293,0,0,1,13.124,14.39Z" style="fill:#cbbfb5"/><path d="M23.915,14.5c.071-.08.266,0,.239.108A1.274,1.274,0,0,1,23.915,14.5Z" style="fill:#cbbfb5"/><path d="M13.38,14.536l.049-.021.052.033,0,.052Z" style="fill:#cbbfb5"/><path d="M24.194,14.63c.061-.084.267-.03.242.081A.889.889,0,0,1,24.194,14.63Z" style="fill:#cbbfb5"/><path d="M24.78,14.853c.062-.079.26-.016.232.091A.538.538,0,0,1,24.78,14.853Z" style="fill:#cbbfb5"/><path d="M14.034,14.9c.083-.054.26,0,.261.111A.624.624,0,0,1,14.034,14.9Z" style="fill:#cbbfb5"/><path d="M8.479,15.236c.07.042.066.08-.013.117C8.394,15.311,8.4,15.272,8.479,15.236Z" style="fill:#cbbfb5"/><path d="M8.81,15.335c.15.089.294.187.438.285A.851.851,0,0,1,8.81,15.335Z" style="fill:#cbbfb5"/><path d="M9.361,15.674a1.135,1.135,0,0,1,.3.162C9.564,15.89,9.334,15.8,9.361,15.674Z" style="fill:#cbbfb5"/><path d="M23.993,15.909a.573.573,0,0,1,.234.1C24.159,16.087,23.97,16.014,23.993,15.909Z" style="fill:#cbbfb5"/><path d="M19.663,16.185a.609.609,0,0,1,.242-.114A.16.16,0,0,1,19.663,16.185Z" style="fill:#cbbfb5"/><path d="M9.4,16.508c-.015-.1.027-.138.124-.1A.192.192,0,0,1,9.4,16.508Z" style="fill:#cbbfb5"/><path d="M8.594,17.2c-.012-.1.03-.137.126-.1A.184.184,0,0,1,8.594,17.2Z" style="fill:#cbbfb5"/><path d="M7.955,17.6l.054-.031.048.023-.1.06Z" style="fill:#cbbfb5"/><path d="M20.511,17.622c.062-.08.26-.015.231.091A.532.532,0,0,1,20.511,17.622Z" style="fill:#cbbfb5"/><path d="M21.9,18.143c.06-.078.255-.014.227.089A.4.4,0,0,1,21.9,18.143Z" style="fill:#cbbfb5"/><path d="M16.155,18.69a.378.378,0,0,1,.227.082C16.324,18.853,16.13,18.793,16.155,18.69Z" style="fill:#cbbfb5"/><path d="M6.3,18.755l.05.005-.077.089Z" style="fill:#cbbfb5"/><path d="M11.46,19.011a.93.93,0,0,1,.3-.1C11.752,19.03,11.543,19.085,11.46,19.011Z" style="fill:#cbbfb5"/><path d="M10.779,19.239a.985.985,0,0,1,.284-.1C11.07,19.255,10.856,19.321,10.779,19.239Z" style="fill:#cbbfb5"/><path d="M8.422,19.753a.881.881,0,0,1,.266-.03C8.686,19.838,8.475,19.836,8.422,19.753Z" style="fill:#cbbfb5"/><path d="M7.119,19.792c.355.006.712.01,1.067-.009l-.005.061A5.162,5.162,0,0,1,7.119,19.792Z" style="fill:#cbbfb5"/><path d="M29.267,20.858c.057-.07.218,0,.183.094A.267.267,0,0,1,29.267,20.858Z" style="fill:#cbbfb5"/><path d="M3.744,10.04c.035-.094.092-.107.168-.039A.212.212,0,0,1,3.744,10.04Z" style="fill:#afabaa"/><path d="M22.156,9.985l.06-.018.04.033-.115.035Z" style="fill:#aaa6a4"/><path d="M22.474,18.352l.107-.005.015.05Z" style="fill:#aaa6a4"/><path d="M3.523,10.042l.1.01-.12.039Z" style="fill:#aca8a5"/><path d="M22.111,10.239a2.442,2.442,0,0,1,1.076-.207,1.386,1.386,0,0,0-.578.641c-.19.512-.373,1.027-.521,1.553a9.955,9.955,0,0,0,.475-1.249,1.138,1.138,0,0,1,.558-.793,7.287,7.287,0,0,1-.267.854c-.2.6-.353,1.209-.56,1.8-.082.235-.151.476-.215.717l.184-.086c.061.052.125.1.188.152a2.219,2.219,0,0,0-.808.241c.341-.006.678-.063,1.018-.088,0,.117,0,.233,0,.349-.592.218-1.174.467-1.782.642a4,4,0,0,0-.607.237l.313.006c0,.146-.005.291,0,.437q-.407.116-.806.254a13.611,13.611,0,0,1-1.728.538,2.144,2.144,0,0,1-.577.07c-.241-.016-.469-.11-.709-.133a1.421,1.421,0,0,0-.553.1c-.767.257-1.485.652-2.274.846a1.548,1.548,0,0,1-.449.05c.046-.136.205-.146.322-.183.84-.184,1.583-.655,2.417-.86a1.2,1.2,0,0,0,.413-.19,5.375,5.375,0,0,0-1.024.214.741.741,0,0,1-.383-.028c0,.043.006.087.01.13-.56.157-1.12.319-1.676.49-.27.076-.543.245-.83.146a3.736,3.736,0,0,1-.61.331,3.548,3.548,0,0,0,.894.272,10.355,10.355,0,0,0,1.243.445l-.094.126c-.181-.066-.362-.131-.542-.2a3.343,3.343,0,0,0-.576-.169c-.321-.087-.621-.232-.932-.348a1.837,1.837,0,0,0-1.048.145c0,.036.013.108.017.144.3-.1.6-.208.908-.29-.025.195-.057.389-.091.583a3.648,3.648,0,0,1-.738.265l-.227.033c.008.036.017.073.025.109-.3.048-.594.1-.888.171q-.594.055-1.189.064c-.016-.1-.032-.192-.048-.287a3.877,3.877,0,0,1-1.078.017c-.163-.032-.322-.081-.483-.122.3-.227.707-.254,1.014-.472.227-.275.443-.558.69-.816.256-.141.49-.317.743-.463.361-.184.609-.538,1.009-.656a3.922,3.922,0,0,0-.877-.438c-.136-.078-.272-.156-.412-.225-.253-.108-.545.012-.79-.122a6.124,6.124,0,0,1-.649-.4,6.487,6.487,0,0,0-.871-.679c-.58-.4-1.175-.79-1.769-1.174a3.1,3.1,0,0,0-.84-.483,1.562,1.562,0,0,1-.467-.282,1.174,1.174,0,0,1-.284-.238c-.254-.4-.755-.546-1.024-.936a1.054,1.054,0,0,0-.589-.335c.533-.048,1.068-.018,1.6-.031-.207-.069-.415-.133-.62-.209.412-.014.8.138,1.214.149a2.145,2.145,0,0,0-.584-.2,3.032,3.032,0,0,1,1.451.337c.108.06.214.122.322.181l0,.207.219-.116q.093.156.2.305c.1-.012.218-.064.315,0s.115.156.162.239a1.152,1.152,0,0,1,.2-.017c.232.159.437.353.668.514a1.722,1.722,0,0,1,.217-.015,1.294,1.294,0,0,1,.232.247,1.082,1.082,0,0,1,.868.421.668.668,0,0,0,.327.152c.127.042.25.094.377.137l.205.284c.385-.1.719.234.933.515a.463.463,0,0,1,.335.027c.344.19.685.388,1.038.562l-.017.183c.283-.106.526.115.767.228a1.635,1.635,0,0,1,.7.555,5.709,5.709,0,0,1,1,.118,15.416,15.416,0,0,0,3.423-.446,7.856,7.856,0,0,0,1.244-.264.406.406,0,0,0,.231-.207l-.014-.1a.558.558,0,0,0-.216-.352c-.163-.087-.351-.1-.516-.185a.983.983,0,0,1-.261-.3.868.868,0,0,1-.269.02,2,2,0,0,1-.351-.228c.331-.144.7-.181,1.017-.356l.306.166,0-.168a7.409,7.409,0,0,1,1.308.5,6.757,6.757,0,0,1-1.255-.339c.275.177.6.261.868.445a3.287,3.287,0,0,0,.361.051c.443-.742.895-1.48,1.315-2.236a2.918,2.918,0,0,1,.625-.989m-17.035.326c-.03.093,0,.126.1.1q.045-.141-.1-.1M3.469,11.2c-.069.085.081.176.138.093s-.081-.175-.138-.093m.4.23q-.045.141.1.1c.03-.094,0-.126-.1-.1m.4.288q-.045.141.1.1c.03-.093,0-.126-.1-.1m.75.535c-.025.081,0,.109.084.082.024-.081,0-.108-.084-.082m3.117,0c-.023.081.006.108.086.08.022-.082-.006-.108-.086-.08m-1.895.788c-.022.081.006.108.086.08.023-.082-.006-.108-.086-.08m.393.291q-.045.141.1.1c.03-.093,0-.126-.1-.1m14.826.547c.165-.112.175-.322.215-.5a1.776,1.776,0,0,0-.215.5m-14.483-.32c.007.047.021.14.029.187a.271.271,0,0,1,.158-.158l-.187-.029m12.577.754a.946.946,0,0,0,.394-.67c-.249.127-.309.429-.394.67m.334-.05c.232-.046.294-.294.345-.49a.753.753,0,0,0-.345.49m-12.5-.41c-.068.085.082.174.14.092s-.083-.175-.14-.092m13.008.322a2.81,2.81,0,0,0,.807-.117.19.19,0,0,0,.144-.152,3.073,3.073,0,0,0-.951.269m-9.033-.152q-.046.141.1.1c.031-.094,0-.126-.1-.1m-3.571.119c-.069.086.082.175.139.092s-.083-.175-.139-.092m.4.288c-.068.085.082.175.139.092s-.082-.175-.139-.092m4.088.114c-.031.094,0,.126.1.1.03-.094,0-.126-.1-.1m-3.634.173c-.031.093,0,.126.1.1.03-.094,0-.126-.1-.1m11.306,0c-.031.094,0,.126.1.1.03-.094,0-.126-.1-.1m-.4.115c-.031.093,0,.126.1.1.03-.094,0-.126-.1-.1m-.461.173q-.045.141.1.1c.03-.094,0-.126-.1-.1m-.406.122c-.078.051,0,.188.082.123s0-.188-.082-.123m-5.345.122c-.451.062-.9.152-1.349.213-.119.024-.278.025-.321.166a8.856,8.856,0,0,0,.991-.136,9.491,9.491,0,0,0,.951-.173.383.383,0,0,0-.272-.07m4.423.16c-.03.094,0,.126.1.1q.044-.141-.1-.1m.6.051c.037.065.052.17.15.163.118.05.147-.089.2-.159l-.352,0m-7.5.409a1.339,1.339,0,0,0,.663-.287c-.225.061-.56.036-.663.287m2.573.073c.007-.1.014-.206.023-.309a1.169,1.169,0,0,0-.679.508.6.6,0,0,0,.012.445c.138-.1.274-.2.41-.3.218-.136.462-.224.677-.368L14,16.03a.594.594,0,0,0,.131-.4c-.088.036-.175.074-.262.113-.005-.057-.01-.113-.015-.17a1.964,1.964,0,0,1-.411.374m-1.9-.256a6.517,6.517,0,0,1-.445,1.007,1.2,1.2,0,0,1-1.172.489c-.272-.054-.374-.343-.581-.494a.85.85,0,0,0,.1.722c-.333.061-.741,0-.985.28A5.013,5.013,0,0,0,9.9,17.53a2.628,2.628,0,0,0,1.224-.569,3.393,3.393,0,0,0,.539-1.131c.063-.087-.037-.166-.124-.142m5.138.012c-.069.084.08.179.137.093s-.08-.178-.137-.093m-.986.23c-.03.093,0,.126.1.1.03-.094,0-.126-.1-.1m-3.4.414-.032-.209a.986.986,0,0,0-.42.206.888.888,0,0,0-.194.355l.151.047c0,.05,0,.1,0,.148a2.166,2.166,0,0,1,.641-.3,4.674,4.674,0,0,0,.149-.489c-.1.078-.2.159-.294.241m2.424-.126q-.045.141.1.1.045-.141-.1-.1m-4.674,1.324c0,.041-.007.124-.01.165H10.2c0-.043,0-.127,0-.17l-.16.006m-.519.183c-.077.052.006.187.084.124s-.006-.189-.084-.124m-.573.167c0,.039,0,.118.006.158l.1-.048.047-.1Z" style="fill:#cfbdb1"/><path d="M23.3,10.162l.024-.124.036.04-.012.063Z" style="fill:#bbbab8"/><path d="M3.226,10.156q.051-.141.167-.039A.206.206,0,0,1,3.226,10.156Z" style="fill:#a5a5a5"/><path d="M26.4,15.471l.107-.007.017.049Z" style="fill:#a5a5a5"/><path d="M3.007,10.159l.1.008-.118.042Z" style="fill:#a4a4a4"/><path d="M2.645,10.278c.031-.1.087-.111.167-.046A.22.22,0,0,1,2.645,10.278Z" style="fill:#bbb"/><path d="M5.117,10.3a1.657,1.657,0,0,1,.955.343A18.815,18.815,0,0,0,8,11.716c.392.216.76.475,1.151.694.305.174.647.269.95.448a2.34,2.34,0,0,1-.774-.1c-.126-.043-.25-.1-.377-.137a.611.611,0,0,0-.332-.318c-.709-.4-1.412-.82-2.124-1.219a5.794,5.794,0,0,0-1.271-.579Z" style="fill:#c4b9ae"/><path d="M6.069,10.344l.018.011Z" style="fill:#cfcace"/><path d="M5.227,10.507a5.794,5.794,0,0,1,1.271.579c.712.4,1.415.814,2.124,1.219a.611.611,0,0,1,.332.318.668.668,0,0,1-.327-.152,1.082,1.082,0,0,0-.868-.421,1.294,1.294,0,0,0-.232-.247,1.722,1.722,0,0,0-.217.015c-.231-.161-.436-.355-.668-.514a1.152,1.152,0,0,0-.2.017c-.047-.084-.072-.192-.162-.239s-.211-.007-.315,0q-.1-.15-.2-.305l-.219.116,0-.207C5.441,10.629,5.335,10.567,5.227,10.507Z" style="fill:#281f16"/><path d="M6.358,10.524l.022.014Z" style="fill:#e1e0de"/><path d="M23.172,10.672a.227.227,0,0,1,.042-.172Q23.313,10.615,23.172,10.672Z" style="fill:#aeaaa8;opacity:0.9100000262260437;isolation:isolate"/><path d="M5.077,10.564q.141-.045.1.1C5.079,10.69,5.047,10.658,5.077,10.564Z" style="fill:#5a4c3f"/><path d="M6.525,10.634l.027.018Z" style="fill:#d9d5d2"/><path d="M6.7,10.749l.028.017Z" style="fill:#dfdeda"/><path d="M23.117,10.9a.242.242,0,0,1,.042-.176Q23.256,10.846,23.117,10.9Z" style="fill:#b8b4b3"/><path d="M2.427,10.873l.017.013Z" style="fill:#d9d8d6"/><path d="M2.832,11.16l.019.012Z" style="fill:#d9d8d6"/><path d="M21.021,17.792l.027.013Z" style="fill:#d9d8d6"/><path d="M6.874,10.86l.022.014Z" style="fill:#c9c8c4"/><path d="M21.475,10.941l.011-.021Z" style="fill:#d2cccc"/><path d="M23.059,11.133a.24.24,0,0,1,.043-.175Q23.2,11.077,23.059,11.133Z" style="fill:#b5b3b1"/><path d="M7.165,11.039l.018.01Z" style="fill:#dfdfdf"/><path d="M3.469,11.2c.057-.082.207.007.138.093S3.4,11.286,3.469,11.2Z" style="fill:#3d2d23"/><path d="M7.457,11.208l.02.011Z" style="fill:#d2d2d2"/><path d="M12.53,13.983l.023.015Z" style="fill:#d2d2d2"/><path d="M23,11.359a.231.231,0,0,1,.043-.172C23.109,11.267,23.1,11.324,23,11.359Z" style="fill:#bdbdbc"/><path d="M3.294,11.446l.018.013Z" style="fill:#cdcccc"/><path d="M3.865,11.43c.093-.03.126,0,.1.1Q3.82,11.571,3.865,11.43Z" style="fill:#412e27"/><path d="M7.878,11.452l.027.016Z" style="fill:#d0cbc8"/><path d="M22.951,11.528l.043-.117c0,.026.006.078.007.1Z" style="fill:#bebebe"/><path d="M7.939,11.487l.029.016Z" style="fill:#dbd7d1"/><path d="M20.9,11.862l.015-.024Z" style="fill:#e1e1e1"/><path d="M21,11.693l.014-.024Z" style="fill:#e1dddc"/><path d="M4.269,11.719c.094-.03.126,0,.1.1Q4.223,11.86,4.269,11.719Z" style="fill:#645249"/><path d="M22.833,11.948l.035-.119.033.041-.017.061Z" style="fill:#bdbdbd"/><path d="M22.775,12.116,22.819,12c0,.026,0,.078.006.1Z" style="fill:#aeafb0"/><path d="M8.988,12.075c.065-.072.212.018.184.108A.332.332,0,0,1,8.988,12.075Z" style="fill:#b0afaf;opacity:0.9599999785423279;isolation:isolate"/><path d="M9.213,12.2l.028.01Z" style="fill:#e8e4e1"/><path d="M22.718,12.288l.043-.119.007.1Z" style="fill:#9fa0a2"/><path d="M4.528,12.247a3.1,3.1,0,0,1,.84.483c.594.385,1.189.77,1.769,1.174a6.487,6.487,0,0,1,.871.679l.044.121a.815.815,0,0,1-.457-.287l-.1-.065c-.192-.11-.362-.253-.546-.374a8.546,8.546,0,0,1-.763-.541l-.072-.052c-.132-.075-.252-.167-.376-.254l-.018-.013A9.527,9.527,0,0,1,4.528,12.247Z" style="fill:#56514d"/><path d="M5.019,12.254c.08-.027.108,0,.084.082C5.022,12.363,4.994,12.335,5.019,12.254Z" style="fill:#5d4a3e"/><path d="M8.135,12.255c.08-.029.108,0,.086.08C8.141,12.363,8.112,12.337,8.135,12.255Z" style="fill:#5b4a40"/><path d="M22.661,12.462l.042-.121.007.1Z" style="fill:#b1b1b1"/><path d="M26.747,15.782l.115-.02-.02.045Z" style="fill:#b1b1b1"/><path d="M27.675,20.256l.046-.027.058.025.009.051Z" style="fill:#b1b1b1"/><path d="M9.895,12.549l.028.016Z" style="fill:#d6cfcc"/><path d="M22.6,12.631l.052-.115.027.046-.027.058Z" style="fill:#bab9b7"/><path d="M9.958,12.584l.029.015Z" style="fill:#d2d1d1"/><path d="M20.492,12.638l.009-.029Z" style="fill:#d2d1cf"/><path d="M17.6,13.406l.019.011Z" style="fill:#d2d1cf"/><path d="M18.917,12.687q.049-.135.095,0Z" style="fill:#bbb8b7;opacity:0.8199999928474426;isolation:isolate"/><path d="M18.393,12.751c.034-.095.089-.107.166-.037A.205.205,0,0,1,18.393,12.751Z" style="fill:#b6b2af"/><path d="M25.142,19.34l.043-.031.059.021.012.051Z" style="fill:#b6b2af"/><path d="M19.315,12.7l.044-.029.058.023.011.051Z" style="fill:#c2bebd"/><path d="M18.1,12.81c.037-.094.094-.107.171-.039A.227.227,0,0,1,18.1,12.81Z" style="fill:#c3bebb"/><path d="M17.944,12.813l.1.007-.12.043Z" style="fill:#c0bbb8"/><path d="M17.771,12.87l.1.006-.119.044Z" style="fill:#c1bdba"/><path d="M10.645,12.954l.028.016Z" style="fill:#dad9d7"/><path d="M17.6,12.927l.059-.023.044.028-.115.046Z" style="fill:#a3a2a1;opacity:0.8700000047683716;isolation:isolate"/><path d="M10.707,12.989l.029.015Z" style="fill:#d5d5d3"/><path d="M20.315,12.989l.051-.009-.053.11-.025-.046Z" style="fill:#bcb8b7"/><path d="M6.24,13.043c.08-.029.109,0,.086.08C6.247,13.151,6.218,13.125,6.24,13.043Z" style="fill:#5d4b3f"/><path d="M17.3,13.078l.079-.051.032.037Z" style="fill:#a9abaa"/><path d="M20.094,13.05l.017.013Z" style="fill:#cecfd3"/><path d="M5.719,13.118l.018.013Z" style="fill:#e5e4e2"/><path d="M22.36,13.23l.048-.12.028.044Z" style="fill:#adacaa"/><path d="M22.325,13.326l.016-.04Z" style="fill:#dad6d3"/><path d="M6.634,13.335c.094-.03.126,0,.1.1Q6.589,13.475,6.634,13.335Z" style="fill:#46372d"/><path d="M11.379,13.344l.02.011Z" style="fill:#d3d2d0"/><path d="M11.917,13.647l.033.018Z" style="fill:#d3d2d0"/><path d="M6.113,13.385l.072.052C6.108,13.5,6.084,13.478,6.113,13.385Z" style="fill:#d8d5d1;opacity:0.9200000166893005;isolation:isolate"/><path d="M21.46,13.881a1.776,1.776,0,0,1,.215-.5C21.635,13.559,21.625,13.77,21.46,13.881Z" style="fill:#2f1e18"/><path d="M18.688,15.129c.078-.065.162.073.082.123S18.611,15.179,18.688,15.129Z" style="fill:#2f1e18"/><path d="M16.677,15.7c.057-.085.2.009.137.093S16.608,15.784,16.677,15.7Z" style="fill:#2f1e18"/><path d="M11.072,17.495a1.837,1.837,0,0,1,1.048-.145c.31.117.61.262.932.348a3.031,3.031,0,0,1-.819-.084c-.115.1-.209.221-.327.317.034-.194.066-.388.091-.583-.307.082-.607.186-.908.29C11.085,17.6,11.076,17.531,11.072,17.495Z" style="fill:#2f1e18"/><path d="M8.944,17.892,9.1,17.9l-.047.1-.1.048C8.949,18.011,8.946,17.932,8.944,17.892Z" style="fill:#2f1e18"/><path d="M22.288,13.414l.017-.039Z" style="fill:#d5d0cc"/><path d="M6.977,13.561l.187.029a.271.271,0,0,0-.158.158C7,13.7,6.983,13.608,6.977,13.561Z" style="fill:#50423a"/><path d="M16.585,16.521l.4-.089-.148.175c1.3.407,2.534.98,3.813,1.438q.549.194,1.086.419a9.719,9.719,0,0,0,1.014.286c.2.21.506.213.767.3.425.134.827.328,1.242.488.489.2,1,.325,1.494.524.7.268,1.391.577,2.112.8-.018.058-.035.117-.052.175a.706.706,0,0,0-.662-.285c-.245-.172-.573-.117-.815-.295-.317-.167-.673-.428-1.046-.3,0-.048,0-.1,0-.145-.2-.032-.41-.061-.615-.089.012-.051.025-.1.037-.151a.977.977,0,0,1-.7-.234c-.172-.017-.371.018-.509-.109a1.056,1.056,0,0,0-.471-.232,9.923,9.923,0,0,0-1.013-.329,3.848,3.848,0,0,1-.731-.264,1.757,1.757,0,0,1-.524-.168c-.113-.063-.194-.172-.312-.226a1.8,1.8,0,0,0-.305.029,1.455,1.455,0,0,0-.224-.2,1.054,1.054,0,0,0-.3.019.922.922,0,0,0-.332-.3l-.216.123c-.006-.053-.012-.106-.018-.159a1.034,1.034,0,0,1-.641-.249c-.114-.123-.28-.063-.421-.04a3.043,3.043,0,0,1-.857-.461l-.2.1v-.181a1.93,1.93,0,0,1-.541-.049A1.678,1.678,0,0,1,16.585,16.521Z" style="fill:#50423a"/><path d="M17.892,13.58l.019.011Z" style="fill:#d2d4d3"/><path d="M21.643,13.866a2.219,2.219,0,0,1,.808-.241l.219-.036a2.442,2.442,0,0,1,.134.35c.008.036.025.108.033.144l.008.044.088.013a.56.56,0,0,1,.369.127l.115.042.047.007.115.044a.2.2,0,0,1,.185.078l.114.048.037.017a1.274,1.274,0,0,0,.239.108l.04.017a.889.889,0,0,0,.242.081.483.483,0,0,1,.195.073l.112.049.036.02a.538.538,0,0,0,.232.091.392.392,0,0,1,.189.071l.115.041a.175.175,0,0,1,.171.073l.113.043a.723.723,0,0,1,.264.084l.026.014.038.025.119.043a.907.907,0,0,1,.279.091l.028.015.042.027.124.042.057.017.12.044.049.024.116.017c0,.036,0,.11,0,.147l-.115.02L26.7,15.8l-.117.046-.052.013-.118.044-.05.015-.121.032a1.693,1.693,0,0,1-.284.086c.039-.095.075-.19.111-.287-.1-.051-.2-.1-.3-.149a4.239,4.239,0,0,0,.513-.009c-.118-.032-.2-.127-.321-.149a13.045,13.045,0,0,1-1.849-.681,3.947,3.947,0,0,0-1.07-.368c.01.053.02.107.03.16a1.639,1.639,0,0,0-1.264.161,3.448,3.448,0,0,1-1.013.257c.244.059.484.134.73.186s.5-.016.7.139l-.179.04c-.11.02-.22.034-.33.055-.007-.085-.039-.089-.1-.014l-.115.012a.183.183,0,0,0-.159.046,2.488,2.488,0,0,1-.373.162l-.021.009c-.256.1-.5.243-.75.351l-.035.016L20.112,16l-.045.018-.059.022-.045.016-.058.018a.609.609,0,0,0-.242.114,1.29,1.29,0,0,1-.32.172l-.029.009-.047.009-.121.047-.058.016-.12.044-.054.015-.119.043-.118.013a.2.2,0,0,0-.166.034l-.16.038a2.575,2.575,0,0,1-.915-.156c-.237-.087-.477-.247-.74-.167-.717.17-1.361.549-2.061.77-.292.089-.6.137-.888.227l-.123.034a2.7,2.7,0,0,1-.328-.316,2.386,2.386,0,0,0-.805.2c.175.093.349.19.529.276a3.548,3.548,0,0,1-.894-.272,3.736,3.736,0,0,0,.61-.331c.287.1.56-.07.83-.146.556-.171,1.116-.332,1.676-.49,0-.044-.006-.087-.01-.13a.741.741,0,0,0,.383.028,5.375,5.375,0,0,1,1.024-.214,1.2,1.2,0,0,1-.413.19c-.834.2-1.577.675-2.417.86-.117.037-.277.047-.322.183a1.548,1.548,0,0,0,.449-.05c.789-.194,1.507-.588,2.274-.846a1.421,1.421,0,0,1,.553-.1c.24.022.468.117.709.133a2.144,2.144,0,0,0,.577-.07c-.057.085-.115.17-.173.254a1.555,1.555,0,0,0,.656-.024,6.341,6.341,0,0,0,1.564-.682l-.32-.087q.4-.138.806-.254c0-.146,0-.291,0-.437l-.313-.006a4,4,0,0,1,.607-.237c.607-.175,1.189-.424,1.782-.642,0-.116,0-.232,0-.349C22.321,13.8,21.984,13.861,21.643,13.866Z" style="fill:#26201d"/><path d="M12,13.69l.042.021Z" style="fill:#d7d4d2"/><path d="M19.553,14.315c.085-.242.145-.543.394-.67A.946.946,0,0,1,19.553,14.315Z" style="fill:#23160e"/><path d="M20.4,14.177a3.073,3.073,0,0,1,.951-.269.19.19,0,0,1-.144.152A2.81,2.81,0,0,1,20.4,14.177Z" style="fill:#23160e"/><path d="M13.344,15.251a.383.383,0,0,1,.272.07,9.491,9.491,0,0,1-.951.173,8.856,8.856,0,0,1-.991.136c.043-.141.2-.142.321-.166C12.446,15.4,12.893,15.313,13.344,15.251Z" style="fill:#23160e"/><path d="M12.087,13.736l.034.017Z" style="fill:#dfdbd8"/><path d="M18.293,13.812l.021.01Z" style="fill:#e3dfde"/><path d="M19.887,14.265a.753.753,0,0,1,.345-.49C20.181,13.971,20.119,14.219,19.887,14.265Z" style="fill:#24110b"/><path d="M10.871,15.871c.1-.252.438-.226.663-.287A1.339,1.339,0,0,1,10.871,15.871Z" style="fill:#24110b"/><path d="M12.286,16.343c.1-.082.193-.163.294-.241a4.674,4.674,0,0,1-.149.489,2.166,2.166,0,0,0-.641.3c0-.05,0-.1,0-.148L11.64,16.7a.888.888,0,0,1,.194-.355.986.986,0,0,1,.42-.206l.032.209m-.541.28a.656.656,0,0,0,.423-.352C11.994,16.341,11.789,16.417,11.745,16.623Z" style="fill:#24110b"/><path d="M9.517,17.725c.077-.065.162.072.084.124S9.44,17.777,9.517,17.725Z" style="fill:#24110b"/><path d="M7.391,13.855c.057-.082.208.006.14.092S7.323,13.94,7.391,13.855Z" style="fill:#311f13"/><path d="M18.541,13.92l.031.01Z" style="fill:#dfdcdd"/><path d="M11.365,14.025c.093-.029.126,0,.1.1Q11.319,14.166,11.365,14.025Z" style="fill:#635146"/><path d="M12.7,14.09l.022.014Z" style="fill:#d4d5d7"/><path d="M22.837,14.083l.1.008v.048l-.088-.013Z" style="fill:#bfbfbe"/><path d="M7.795,14.144c.056-.083.207.006.139.092S7.726,14.23,7.795,14.144Z" style="fill:#332316"/><path d="M12.991,14.273l.019.014Z" style="fill:#ddd9d8"/><path d="M23.3,14.267l.043-.03.059.021.013.051Z" style="fill:#9b9795"/><path d="M23.465,14.316l.044-.029.059.022.012.051Z" style="fill:#c0bcb9"/><path d="M7.494,14.353l.1.065-.048.021-.052-.033Z" style="fill:#cfcbc6"/><path d="M18.4,14.427c0-.1.177-.119.217-.035A.517.517,0,0,1,18.4,14.427Z" style="fill:#b4b6b5"/><path d="M8.2,14.432c.057-.083.207.007.139.092S8.131,14.517,8.2,14.432Z" style="fill:#46322c"/><path d="M18.107,14.481q.054-.14.17-.038A.215.215,0,0,1,18.107,14.481Z" style="fill:#b2b2b3"/><path d="M23.039,14.4a3.947,3.947,0,0,1,1.07.368,13.045,13.045,0,0,0,1.849.681c.12.021.2.117.321.149a4.239,4.239,0,0,1-.513.009c-.328-.111-.641-.257-.966-.374a11.363,11.363,0,0,1-1.732-.673C23.058,14.5,23.048,14.45,23.039,14.4Z" style="fill:#ab9e92"/><path d="M11.745,16.623c.044-.207.249-.282.423-.352A.656.656,0,0,1,11.745,16.623Z" style="fill:#ab9e92"/><path d="M23.764,14.439l.044-.028.058.024.012.052Z" style="fill:#a6a6a4"/><path d="M17.82,14.539q.053-.141.168-.038A.21.21,0,0,1,17.82,14.539Z" style="fill:#b0afad"/><path d="M17.181,19.034l.118.045-.1.005Z" style="fill:#b0afad"/><path d="M21.8,14.717a1.639,1.639,0,0,1,1.264-.161,11.363,11.363,0,0,0,1.732.673c.325.117.638.264.966.374.1.047.2.1.3.149-.036.1-.072.192-.111.287-.037.078-.151.067-.218.109.051-.077.107-.15.163-.223l-.247,0q.027.138.055.277l.01.047-.13-.081,0-.075c0-.025,0-.076-.006-.1-.122.06-.246.17-.39.12-.31-.079-.607-.2-.914-.292a8.4,8.4,0,0,1-1.061-.328c-.042.036-.084.071-.125.108a1.237,1.237,0,0,0-.867-.3c-.2-.155-.467-.091-.7-.139s-.486-.126-.73-.186a3.448,3.448,0,0,0,1.013-.257m1.9.232q-.045.141.1.1c.03-.094,0-.126-.1-.1m1.1.4q-.045.141.1.1C24.93,15.355,24.9,15.323,24.8,15.354Z" style="fill:#cfbba9"/><path d="M12.287,14.545c.094-.029.126,0,.1.1C12.289,14.671,12.256,14.639,12.287,14.545Z" style="fill:#54443a"/><path d="M17.6,14.542l.1.007-.118.043Z" style="fill:#a4a3a1"/><path d="M8.009,14.584a6.124,6.124,0,0,0,.649.4c.245.134.537.014.79.122l-.181.148a1.985,1.985,0,0,0,.8.562,1.134,1.134,0,0,0,.344-.013,3.191,3.191,0,0,0-.556-.471,3.922,3.922,0,0,1,.877.438c-.4.118-.648.472-1.009.656-.253.147-.487.322-.743.463l.036-.046.057-.072.014-.017a.98.98,0,0,1,.313-.25.192.192,0,0,0,.124-.1.77.77,0,0,1,.171-.159l.019-.013c.073-.076.24-.1.239-.222-.079-.049-.162-.091-.241-.14l-.024-.015-.031-.021a1.135,1.135,0,0,0-.3-.162l-.113-.054c-.145-.1-.288-.2-.438-.285-.064-.04-.127-.082-.189-.126L8.6,15.2q-.109-.081-.215-.164l-.017-.013c-.092-.072-.186-.141-.271-.222l-.012-.014-.036-.078Z" style="fill:#26201c"/><path d="M17.307,14.6l.1.006-.117.044Z" style="fill:#b1adac"/><path d="M17.01,14.711q.055-.139.169-.036A.211.211,0,0,1,17.01,14.711Z" style="fill:#b6b6b6"/><path d="M8.653,14.718c.093-.03.126,0,.1.1C8.655,14.844,8.622,14.812,8.653,14.718Z" style="fill:#4a392e"/><path d="M16.717,14.772c.037-.093.095-.107.172-.04A.228.228,0,0,1,16.717,14.772Z" style="fill:#c6c5c3"/><path d="M19.959,14.718c.093-.03.126,0,.1.1C19.961,14.844,19.929,14.812,19.959,14.718Z" style="fill:#443427"/><path d="M8.088,14.784,8.1,14.8Z" style="fill:#dbd8d3"/><path d="M13.88,14.8l.029.019Z" style="fill:#cacac8"/><path d="M16.493,14.827c.035-.093.092-.107.171-.041A.225.225,0,0,1,16.493,14.827Z" style="fill:#a5a4a2"/><path d="M24.631,14.784l.044-.028.058.025.011.052Z" style="fill:#a9a8a5"/><path d="M13.952,14.842l.036.023Z" style="fill:#cecdca"/><path d="M16.207,14.884q.053-.14.167-.036A.2.2,0,0,1,16.207,14.884Z" style="fill:#a2a2a2"/><path d="M26.879,19.978l.043-.031.059.021.014.051Z" style="fill:#a2a2a2"/><path d="M19.555,14.834c.093-.03.126,0,.1.1C19.557,14.96,19.525,14.927,19.555,14.834Z" style="fill:#46382b"/><path d="M15.924,14.888l.1.007-.117.043Z" style="fill:#a7a7a7"/><path d="M29.75,21.014l.044-.028.055.025.006.057Z" style="fill:#a7a7a7"/><path d="M15.566,15c.035-.094.091-.107.167-.038A.207.207,0,0,1,15.566,15Z" style="fill:#b4b5ad"/><path d="M23.709,14.95c.093-.031.126,0,.1.1Q23.664,15.091,23.709,14.95Z" style="fill:#44301f"/><path d="M8.371,15.02l.017.013Z" style="fill:#dfdbdc"/><path d="M14.348,15.022l.106-.014.019.049Z" style="fill:#c8c5c6"/><path d="M15.283,15.059q.052-.141.168-.039A.212.212,0,0,1,15.283,15.059Z" style="fill:#b7b7b9"/><path d="M19.094,15.007c.093-.03.126,0,.1.1Q19.049,15.148,19.094,15.007Z" style="fill:#423226"/><path d="M25.2,15.014l.043-.031L25.3,15l.013.051Z" style="fill:#a4a5a2"/><path d="M14.526,15.074c.052-.072.221-.058.231.041A.442.442,0,0,1,14.526,15.074Z" style="fill:#b0aeaf"/><path d="M14.816,15.115c.021-.11.219-.107.282-.031A.818.818,0,0,1,14.816,15.115Z" style="fill:#c2c0c1"/><path d="M9.448,15.111c.14.069.276.147.412.225a3.191,3.191,0,0,1,.556.471,1.134,1.134,0,0,1-.344.013,1.985,1.985,0,0,1-.8-.562Z" style="fill:#ac2822"/><path d="M25.488,15.129l.043-.03.058.022.012.051Z" style="fill:#a0a19c"/><path d="M8.6,15.2l.018.013Z" style="fill:#dbd7d4"/><path d="M25.865,15.256l.026.014Z" style="fill:#c7c4bf"/><path d="M22.221,15.3a1.237,1.237,0,0,1,.867.3l0,.053a5.6,5.6,0,0,0-1.106-.3l.062-.016Z" style="fill:#756c6c"/><path d="M7.8,18.54c.271-.187.628-.078.935-.071l.1.168c-.02.26-.033.521-.044.782-.015-.082-.029-.164-.044-.246a1.3,1.3,0,0,1-.442.385,2.5,2.5,0,0,1-.76.119A2.116,2.116,0,0,1,7.8,18.54Z" style="fill:#756c6c"/><path d="M25.929,15.3l.106-.007.013.05Z" style="fill:#bcb9b4"/><path d="M21.616,15.381c.057-.076.089-.071.1.014Z" style="fill:#bebab9"/><path d="M24.8,15.354c.093-.031.126,0,.1.1Q24.76,15.494,24.8,15.354Z" style="fill:#6c5b4a"/><path d="M17.767,15.411q.14-.045.1.1C17.769,15.536,17.737,15.5,17.767,15.411Z" style="fill:#433125"/><path d="M21.342,15.439a.183.183,0,0,1,.159-.046Q21.459,15.538,21.342,15.439Z" style="fill:#7e7c7e;opacity:0.8100000023841858;isolation:isolate"/><path d="M26.327,15.429l.028.015Z" style="fill:#c9c8c6"/><path d="M18.366,15.462l.352,0c-.055.07-.085.209-.2.159C18.418,15.632,18.4,15.527,18.366,15.462Z" style="fill:#726054"/><path d="M23.088,15.6c.041-.037.083-.073.125-.108a8.4,8.4,0,0,0,1.061.328c.307.089.6.213.914.292.144.05.268-.06.39-.12,0,.025,0,.076.006.1-.072.049-.136.13-.231.123l-.377,0-.125-.022a.221.221,0,0,0-.17-.04l-.051-.007-.117-.043a.4.4,0,0,1-.288-.087.573.573,0,0,0-.234-.1l-.049-.015-.122-.028a.259.259,0,0,1-.246-.081l-.115-.043-.05-.01-.118-.044-.05-.018-.115-.035-.042.016Z" style="fill:#25221d"/><path d="M26.578,15.529l.106-.006.014.05Z" style="fill:#b2b2b2"/><path d="M6.22,19.244c-.111.008-.108-.256,0-.245A1.923,1.923,0,0,1,6.22,19.244Z" style="fill:#b2b2b2"/><path d="M13.444,15.944a1.964,1.964,0,0,0,.411-.374c0,.057.01.113.015.17.087-.039.174-.077.262-.113a.594.594,0,0,1-.131.4l-.114-.114c-.215.144-.459.232-.677.368-.136.1-.272.2-.41.3a.6.6,0,0,1-.012-.445,1.169,1.169,0,0,1,.679-.508c-.009.1-.016.206-.023.309m-.178-.127c-.1-.035-.181.134-.067.166S13.381,15.848,13.266,15.816Z" style="fill:#4e2e26"/><path d="M20.947,15.609l.021-.009Z" style="fill:#d0cbcf"/><path d="M26.747,15.6l.095-.028.021.044Z" style="fill:#b4b4b4;opacity:0.9800000190734863;isolation:isolate"/><path d="M23.128,15.634l.115.035-.1.013Z" style="fill:#bbb6b1"/><path d="M11.539,15.688c.087-.024.187.055.124.142a3.393,3.393,0,0,1-.539,1.131A2.628,2.628,0,0,1,9.9,17.53a5.013,5.013,0,0,1-1.448.162c.244-.283.652-.219.985-.28a.85.85,0,0,1-.1-.722c.207.152.309.441.581.494a1.2,1.2,0,0,0,1.172-.489A6.517,6.517,0,0,0,11.539,15.688Z" style="fill:#28150e"/><path d="M18.049,16.242a13.611,13.611,0,0,0,1.728-.538l.32.087a6.341,6.341,0,0,1-1.564.682,1.555,1.555,0,0,1-.656.024C17.934,16.412,17.993,16.328,18.049,16.242Z" style="fill:#9e211b"/><path d="M23.293,15.688l.118.044-.044.028-.059-.022Z" style="fill:#a9a7a2"/><path d="M23.46,15.742l.115.043-.043.029-.059-.022Z" style="fill:#9f9d98"/><path d="M13.266,15.816c.115.032.032.2-.067.166S13.167,15.781,13.266,15.816Z" style="fill:#96706a"/><path d="M26.581,15.849,26.7,15.8l-.013.05Z" style="fill:#b3b3b3"/><path d="M9.694,15.856l.024.015Z" style="fill:#cfcfcd"/><path d="M23.821,15.866l.122.028-.041.035-.062-.014Z" style="fill:#9b9a9a"/><path d="M26.41,15.906l.118-.044-.014.05Z" style="fill:#afb1b0"/><path d="M15.691,15.93c.093-.031.126,0,.1.1C15.692,16.056,15.661,16.023,15.691,15.93Z" style="fill:#3a291f"/><path d="M20.162,15.975l.035-.016Z" style="fill:#cfcfcf"/><path d="M25.654,15.921l.247,0c-.056.073-.112.147-.163.223l-.028.05Q25.681,16.06,25.654,15.921Z" style="fill:#100806"/><path d="M26.239,15.953l.121-.032-.018.05-.061.016Z" style="fill:#afafad"/><path d="M20.067,16.015,20.112,16Z" style="fill:#d7d8d8"/><path d="M19.963,16.053l.045-.016Z" style="fill:#d6dad6"/><path d="M24.514,16.1l.117.043-.1.007Z" style="fill:#a6a7a2"/><path d="M24.681,16.146a.221.221,0,0,1,.17.04C24.774,16.253,24.717,16.24,24.681,16.146Z" style="fill:#b4b4b2"/><path d="M9.7,16.245l.019-.013Z" style="fill:#e2e0e1"/><path d="M14.71,16.218q.141-.045.1.1Q14.665,16.358,14.71,16.218Z" style="fill:#2f261f"/><path d="M24.977,16.208l.377,0C25.314,16.322,25.017,16.317,24.977,16.208Z" style="fill:#b6b7b8"/><path d="M16.7,16.3c.262-.08.5.081.74.167a2.575,2.575,0,0,0,.915.156,2.729,2.729,0,0,0-.326.084c.175.009.33.1.5.121-.113.007-.225.021-.337.036.468.245.977.4,1.455.623.641.3,1.327.477,1.986.726a5.734,5.734,0,0,0,1.186.361l-.068.174a9.719,9.719,0,0,1-1.014-.286q-.537-.224-1.086-.419c-1.279-.459-2.516-1.031-3.813-1.438l.148-.175-.4.089a1.678,1.678,0,0,0,.3.316,1.93,1.93,0,0,0,.541.049v.181l.2-.1a3.043,3.043,0,0,0,.857.461c.141-.024.307-.084.421.04a1.034,1.034,0,0,0,.641.249c.006.052.012.106.018.159l.216-.123a.922.922,0,0,1,.332.3,1.054,1.054,0,0,1,.3-.019,1.455,1.455,0,0,1,.224.2,1.8,1.8,0,0,1,.305-.029c.118.054.2.163.312.226a1.757,1.757,0,0,0,.524.168,3.848,3.848,0,0,0,.731.264,9.923,9.923,0,0,1,1.013.329,1.056,1.056,0,0,1,.471.232c.138.127.337.092.509.109a.977.977,0,0,0,.7.234c-.013.05-.025.1-.037.151.205.028.41.057.615.089,0,.048,0,.1,0,.145.374-.132.73.129,1.046.3.242.178.57.122.815.295a.706.706,0,0,1,.662.285c.017-.058.034-.117.052-.175.067.008.134.012.2.014l-.163.051a3.214,3.214,0,0,1,.632.043c.177.067.174.283.221.436l-.164-.026a.551.551,0,0,0-.472-.344c.036.192.072.384.091.579a.77.77,0,0,1-.318-.48l-.285.044a3.807,3.807,0,0,1-.028.622,1.033,1.033,0,0,1-.2-.456c-.114.021-.228.041-.343.059a4.369,4.369,0,0,1,.035.62c-.191-.093-.216-.311-.265-.493l-.3.055c.017.166.016.333.018.5a1.112,1.112,0,0,1-.256-.362c-.077.014-.154.029-.231.042-.07-.061-.138-.123-.212-.177a.946.946,0,0,0-.191.168,17.349,17.349,0,0,1-2.719-.881c-1.534-.485-3.062-.985-4.6-1.463-.606-.191-1.2-.421-1.806-.615-.306-.1-.628-.14-.936-.233a.6.6,0,0,1,.385-.245,4.5,4.5,0,0,0-.616-.265c-.7-.255-1.388-.539-2.1-.753.292-.089.6-.137.888-.227.7-.221,1.343-.6,2.061-.77m-.4.419a1.957,1.957,0,0,0,.067.193.856.856,0,0,0,.306.111c-.01-.209-.2-.275-.374-.3m.55,1.866c-.068.085.082.175.139.092s-.082-.176-.139-.092m1.789.577c-.069.085.081.175.138.092s-.082-.175-.138-.092m3.108.98c-.031.093,0,.126.1.1q.044-.141-.1-.1m1.219.4c-.068.085.081.176.138.093S23.023,20.463,22.966,20.546Z" style="fill:#d1beb0"/><path d="M10.84,19.049a1.783,1.783,0,0,0,.7-.7c-.049.153-.1.307-.138.461.44-.11.868-.264,1.31-.365a1.025,1.025,0,0,1-.29.16C11.9,18.767,11.372,18.919,10.84,19.049Z" style="fill:#d1beb0"/><path d="M19.314,16.366l.029-.009Z" style="fill:#d3ccc6"/><path d="M19.146,16.422l.121-.047-.076.074Z" style="fill:#c0beb9"/><path d="M18.969,16.481l.12-.044-.015.05Z" style="fill:#c1adb8"/><path d="M18.8,16.539l.119-.043-.015.05Z" style="fill:#cecac5"/><path d="M18.512,16.586a.2.2,0,0,1,.166-.034C18.642,16.646,18.587,16.658,18.512,16.586Z" style="fill:#c6beb6"/><path d="M9.078,16.775l.014-.017Z" style="fill:#d7d6d4"/><path d="M16.3,16.72c.177.028.363.094.374.3a.856.856,0,0,1-.306-.111A1.957,1.957,0,0,1,16.3,16.72Z" style="fill:#7b695f"/><path d="M8.72,17.1a.791.791,0,0,1,.3-.249l-.036.046c-.247.258-.463.542-.69.816-.307.217-.71.245-1.014.472.161.041.32.091.483.122a3.877,3.877,0,0,0,1.078-.017c.016.1.032.192.048.287q.6-.009,1.189-.064a4.483,4.483,0,0,1-1.247.128l-.1-.168c-.307-.007-.664-.116-.935.071a2.116,2.116,0,0,0-.256,1.138,2.5,2.5,0,0,0,.76-.119,1.3,1.3,0,0,0,.442-.385c.014.081.029.163.044.246a3.738,3.738,0,0,0,.59-.044,12.028,12.028,0,0,0,1.462-.325c.531-.13,1.057-.282,1.579-.442a1.025,1.025,0,0,0,.29-.16c.293-.085.58-.192.868-.293l.05-.286c.181.067.362.133.542.2l.094-.126a8.22,8.22,0,0,0,1.67.4c-.016-.046-.032-.092-.046-.138l-.039-.155a4.5,4.5,0,0,1,.616.265.6.6,0,0,0-.385.245c.308.093.63.133.936.233.606.194,1.2.424,1.806.615,1.536.478,3.064.979,4.6,1.463a17.349,17.349,0,0,0,2.719.881,1.572,1.572,0,0,0,.4.009c.077-.012.153-.027.231-.042a1.112,1.112,0,0,0,.256.362c0-.167,0-.334-.018-.5l.3-.055c.049.182.074.4.265.493a4.369,4.369,0,0,0-.035-.62c.114-.018.228-.038.343-.059a1.033,1.033,0,0,0,.2.456,3.807,3.807,0,0,0,.028-.622l.285-.044a.77.77,0,0,0,.318.48c-.02-.195-.055-.387-.091-.579a.551.551,0,0,1,.472.344l.164.026c-.047-.153-.044-.369-.221-.436a3.214,3.214,0,0,0-.632-.043l.163-.051.192-.046c-.295-.152-.626-.2-.93-.327-1.257-.513-2.565-.894-3.808-1.443a2.4,2.4,0,0,0-1.27-.306l.068-.174a5.734,5.734,0,0,1-1.186-.361c-.659-.249-1.345-.427-1.986-.726-.478-.225-.986-.378-1.455-.623.112-.016.224-.029.337-.036l.151.031.114.042a.586.586,0,0,1,.407.132l.114.04a.492.492,0,0,1,.306.139l.119.048.056.017.039.013.044.017.032.013a1.963,1.963,0,0,1,.45.234l.114.047.037.019a.532.532,0,0,0,.231.091,1.463,1.463,0,0,1,.279.08l.027.013.038.025.118.047a.58.58,0,0,1,.363.136l.114.04a.363.363,0,0,1,.22.089.4.4,0,0,0,.227.089.954.954,0,0,1,.28.078l.027.014.04.027.122.045.055.014.117.045a.664.664,0,0,1,.272.086l.028.016.042.028.125.043.062.021.125.046.055.017.037.016.049.025.119.049a.682.682,0,0,1,.37.138l.115.042.047.008.114.046a.2.2,0,0,1,.185.077l.115.043.047.007.114.047a.543.543,0,0,1,.353.132l.114.042a.193.193,0,0,1,.18.076l.116.043.05.01.117.045.05.008.113.049a.612.612,0,0,1,.361.134l.115.042.047.006.112.05a.6.6,0,0,1,.36.133l.117.041.049.01.117.045.048.012.115.046a.192.192,0,0,1,.189.075l.115.044.047,0,.112.05a.61.61,0,0,1,.359.132l.115.042.047.006.112.051a2.141,2.141,0,0,1,.652.249.2.2,0,0,0,.157.054l.037.018a.267.267,0,0,0,.183.094l.035,0,.039.1.051.129.151.05c0-.085,0-.171,0-.256l.023.039.1.054L30,21.1l-.036.185a.241.241,0,0,0-.209.032l-.051.019-.12.046-.055.015-.119.044-.052.008-.116.044a.177.177,0,0,1-.175.077l-.117.037a1.517,1.517,0,0,1-.189.106l-.022.01a1.741,1.741,0,0,1-.366.133l-.114.042a.582.582,0,0,1-.355.132l-.114.045-.108.012-.117.042a.7.7,0,0,1-.2.027c-.173,0-.346,0-.519-.006l-.092-.029a.2.2,0,0,0-.163-.036l-.112-.01-.116-.042a1.1,1.1,0,0,1-.326-.08L26,21.945l-.119-.051-.036-.018L25.8,21.85l-.122-.041a.209.209,0,0,1-.19-.079l-.115-.042a.178.178,0,0,1-.171-.073l-.114-.043a.829.829,0,0,1-.264-.087l-.028-.015-.042-.027-.123-.042-.059-.016-.121-.044-.055-.014-.119-.044-.053-.013-.118-.044-.051-.011-.116-.044a.469.469,0,0,1-.3-.083l-.119-.035-.05-.013L23.351,21l-.053-.013-.119-.044-.053-.013-.118-.045-.051-.012-.115-.046a.91.91,0,0,1-.471-.143l-.121-.03-.05-.016-.119-.043-.053-.014-.119-.044-.051-.013-.118-.044-.118-.017-.118-.044-.052-.012-.119-.043-.054-.014-.119-.043L21.1,20.29l-.118-.044-.051-.012-.116-.043a.444.444,0,0,1-.291-.08l-.117-.036a.441.441,0,0,1-.235-.082l-.119-.035-.051-.012-.119-.045-.053-.013-.119-.044-.054-.014-.12-.043-.053-.014-.118-.045-.051-.011-.114-.047a1.65,1.65,0,0,1-.645-.2l-.119-.034-.05-.013-.117-.045-.05-.011-.115-.045a.907.907,0,0,1-.471-.143l-.12-.031-.05-.014-.118-.044-.052-.013-.118-.045-.051-.01-.115-.047a1.377,1.377,0,0,1-.632-.2.378.378,0,0,0-.227-.082c-.085-.011-.186,0-.247-.077l-.114-.042a.185.185,0,0,1-.178-.073l-.115-.044-.048-.007-.115-.045a.19.19,0,0,1-.181-.075l-.116-.042-.11-.014-.119-.04L14.7,18.2a.186.186,0,0,0-.164-.039,2.006,2.006,0,0,1-.312,0,.193.193,0,0,0-.166.04l-.048.02-.119.042-.113.017-.117.039a.408.408,0,0,1-.291.078l-.115.039-.077.09c.008-.084-.023-.1-.093-.035l-.051.021-.12.032a1.785,1.785,0,0,1-.583.194l-.115.04a1.152,1.152,0,0,1-.314.106l-.03.006-.118.02a.93.93,0,0,0-.3.1l-.044.017-.118.048-.056.019-.126.029-.052.014a.985.985,0,0,0-.284.1.573.573,0,0,1-.3.087l-.119.04-.054,0a.216.216,0,0,0-.167.048l-.05.021-.12.041-.117.018-.119.042-.117.012a.206.206,0,0,0-.168.039l-.118.02a.211.211,0,0,0-.169.038l-.117.02a.209.209,0,0,0-.168.037l-.19.019a.881.881,0,0,0-.266.03,1.713,1.713,0,0,1-.236.03c-.355.02-.712.016-1.067.009l-.147-.028-.117-.035a.707.707,0,0,1-.509-.24c-.063-.067-.143-.142-.125-.245a1.923,1.923,0,0,0,0-.245c0-.035,0-.1-.006-.139l.053-.011.077-.089c.066-.192.263-.312.412-.441l.022-.016.144-.1.027-.018.147-.094.023-.015a2.79,2.79,0,0,1,.605-.3l.111-.05.115-.069.1-.06a1.789,1.789,0,0,1,.252-.2l.018-.013a2.312,2.312,0,0,1,.267-.181.184.184,0,0,0,.126-.1M6.482,18.841a.363.363,0,0,0-.058.2c.124-.1.253-.2.378-.3a2.441,2.441,0,0,0-.3.674,1.528,1.528,0,0,0,.8.126c.082-.016.082-.122.121-.182a2.094,2.094,0,0,0,.192-.789c0-.258-.354-.23-.493-.095a1.225,1.225,0,0,0,.111-.236A1.643,1.643,0,0,0,6.482,18.841Z" style="fill:#26201e"/><path d="M18.679,16.86l.043-.031.058.021.013.051Z" style="fill:#c0bdbc"/><path d="M12.492,17.219a2.386,2.386,0,0,1,.805-.2,2.7,2.7,0,0,0,.328.316c.264.255.654.234.981.348a8.331,8.331,0,0,1,1.281.527c.014.046.03.092.046.138a8.22,8.22,0,0,1-1.67-.4,10.355,10.355,0,0,1-1.243-.445C12.841,17.409,12.667,17.312,12.492,17.219Z" style="fill:#ba261b"/><path d="M19.2,17.034,19.242,17l.059.021.013.051Z" style="fill:#acacaa;opacity:0.9200000166893005;isolation:isolate"/><path d="M19.619,17.213l.044-.028.076.076Z" style="fill:#b1b0b1"/><path d="M19.795,17.279l.039.013Z" style="fill:#d5d4d2"/><path d="M13.625,17.332l.123-.034c.712.214,1.4.5,2.1.753l.039.155a8.331,8.331,0,0,0-1.281-.527C14.279,17.566,13.889,17.587,13.625,17.332Z" style="fill:#451806"/><path d="M19.878,17.309l.032.013Z" style="fill:#cecdcb"/><path d="M8.309,17.392l.018-.013Z" style="fill:#d4d0cf"/><path d="M10.036,17.542l.16-.006c0,.043,0,.127,0,.17h-.173C10.029,17.666,10.034,17.583,10.036,17.542Z" style="fill:#3f2d25"/><path d="M20.36,17.556l.044-.029.058.024.012.052Z" style="fill:#a9a9a9"/><path d="M11.906,17.932c.118-.1.212-.217.327-.317a3.031,3.031,0,0,0,.819.084,3.343,3.343,0,0,1,.576.169l-.05.286c-.288.1-.575.208-.868.293-.442.1-.87.255-1.31.365.043-.155.089-.309.138-.461-.122-.053-.245-.108-.37-.153A3.648,3.648,0,0,0,11.906,17.932Z" style="fill:#5c1005"/><path d="M7.736,17.723l.057-.025.044.028-.111.05Z" style="fill:#979f9f;opacity:0.8199999928474426;isolation:isolate"/><path d="M21.085,17.831l.106,0,.012.05Z" style="fill:#b5b4b2"/><path d="M21.566,18.013l.043-.031.059.021.013.051Z" style="fill:#aaaaa8"/><path d="M7.1,18.094l.023-.015Z" style="fill:#e4e0e1"/><path d="M6.925,18.206l.027-.018Z" style="fill:#c4cbc4"/><path d="M10.941,18.229l.227-.033c.125.046.247.1.37.153a1.783,1.783,0,0,1-.7.7,12.028,12.028,0,0,1-1.462.325,3.738,3.738,0,0,1-.59.044c.01-.261.024-.521.044-.782a4.483,4.483,0,0,0,1.247-.128c.294-.066.59-.122.888-.171C10.958,18.3,10.949,18.266,10.941,18.229Z" style="fill:#b01912"/><path d="M14.061,18.207a.193.193,0,0,1,.166-.04C14.194,18.26,14.139,18.274,14.061,18.207Z" style="fill:#abaeae"/><path d="M14.538,18.166a.186.186,0,0,1,.164.039C14.624,18.273,14.57,18.26,14.538,18.166Z" style="fill:#c4b8b9"/><path d="M13.894,18.268l.119-.042-.016.05-.06.021Z" style="fill:#bfbebc"/><path d="M14.813,18.23l.119.04-.1.009Z" style="fill:#c7c3bf"/><path d="M6.759,18.32l.022-.016Z" style="fill:#dfe4e0"/><path d="M6.482,18.841a1.643,1.643,0,0,1,.755-.594,1.225,1.225,0,0,1-.111.236c-.108.087-.217.174-.323.265-.125.1-.254.2-.378.3A.363.363,0,0,1,6.482,18.841Z" style="fill:#724d43"/><path d="M13.664,18.323l.117-.039-.015.05-.059.02Z" style="fill:#a5a9a2"/><path d="M15.042,18.285l.116.042-.043.029-.059-.021Z" style="fill:#a89593"/><path d="M22.408,18.311l.027.014Z" style="fill:#cdc9c6"/><path d="M7.125,18.483c.139-.136.491-.164.493.095a2.094,2.094,0,0,1-.192.789c-.038.059-.039.166-.121.182a1.528,1.528,0,0,1-.8-.126,2.441,2.441,0,0,1,.3-.674C6.907,18.657,7.016,18.57,7.125,18.483Z" style="fill:#b11812"/><path d="M13.257,18.44l.115-.039-.014.05Z" style="fill:#aba2a4"/><path d="M15.339,18.4l.115.045-.044.028-.059-.022Z" style="fill:#bbb3b0"/><path d="M22.651,18.411l.1-.005.012.05Z" style="fill:#bab6b4"/><path d="M13.087,18.5c.07-.061.1-.049.093.035Z" style="fill:#b4b4b0"/><path d="M15.5,18.454l.115.044-.043.029-.059-.022Z" style="fill:#a49799"/><path d="M12.915,18.548l.12-.032-.018.05-.062.016Z" style="fill:#bfbdb9"/><path d="M23.039,18.542l.028.016Z" style="fill:#ccc"/><path d="M15.795,18.571l.114.042-.043.031-.059-.021Z" style="fill:#aaa7ac"/><path d="M16.851,18.585c.057-.084.207.006.139.092S16.783,18.67,16.851,18.585Z" style="fill:#423126"/><path d="M23.109,18.585l.108-.006.017.049Z" style="fill:#bababa"/><path d="M23.3,18.649l.045-.027.08.072Z" style="fill:#bebcb8;opacity:0.9200000166893005;isolation:isolate"/><path d="M23.476,18.711l.037.016Z" style="fill:#cfcec9"/><path d="M12.218,18.782l.115-.04-.013.051-.059.02Z" style="fill:#c4c4c4"/><path d="M22.75,18.75a2.4,2.4,0,0,1,1.27.306c1.243.549,2.551.929,3.808,1.443.3.127.636.175.93.327l-.192.046c-.068,0-.136-.006-.2-.014-.72-.219-1.409-.528-2.112-.8-.49-.2-1.005-.322-1.494-.524-.415-.16-.817-.354-1.242-.488C23.257,18.964,22.952,18.96,22.75,18.75Z" style="fill:#bcb2ac"/><path d="M10.141,19.418a.216.216,0,0,1,.167-.048Q10.259,19.514,10.141,19.418Z" style="fill:#bcb2ac"/><path d="M29.524,21.053l.2-.078c0,.085,0,.171,0,.256l-.151-.05Z" style="fill:#bcb2ac"/><path d="M23.562,18.752h.107l.012.05Z" style="fill:#c3c0bb"/><path d="M11.874,18.895l.03-.006Z" style="fill:#cdc5c3"/><path d="M24.051,18.939l.043-.031.059.021.013.051Z" style="fill:#b3b1af"/><path d="M17.015,18.977l.115.047-.045.028-.058-.024Z" style="fill:#a39f9c"/><path d="M24.214,18.988l.045-.028.058.023.011.051Z" style="fill:#c4c2be"/><path d="M11.3,19.077l.118-.048-.013.051-.06.024Z" style="fill:#9ca5a4"/><path d="M11.115,19.124l.126-.029-.021.048Z" style="fill:#a2a2a1"/><path d="M17.351,19.093l.118.044-.1.006Z" style="fill:#b0aeae"/><path d="M24.513,19.111l.043-.03.059.022.013.051Z" style="fill:#aba7a4"/><path d="M17.519,19.151l.12.031-.04.034-.062-.016Z" style="fill:#bfbdbb"/><path d="M18.64,19.162c.057-.083.207.007.138.092S18.571,19.247,18.64,19.162Z" style="fill:#46362c"/><path d="M24.675,19.161l.045-.028.058.024.011.051Z" style="fill:#b9b8b6"/><path d="M10.362,19.366l.119-.04-.015.05-.06.02Z" style="fill:#a6a3a3"/><path d="M18.11,19.325l.115.045-.044.028-.059-.022Z" style="fill:#a49f9e"/><path d="M18.276,19.381l.117.045-.044.028-.059-.022Z" style="fill:#b6b5b3"/><path d="M9.971,19.48l.12-.041-.016.05Z" style="fill:#c0b7b8"/><path d="M18.443,19.439l.119.034-.042.033-.061-.017Z" style="fill:#bdbab9"/><path d="M25.436,19.457l.043-.029.059.022.013.051Z" style="fill:#a09c99"/><path d="M9.735,19.539l.119-.042-.015.05Z" style="fill:#acb9b8"/><path d="M25.6,19.511l.044-.028.059.022.013.051Z" style="fill:#a6a6a6"/><path d="M27.513,20.207l.043-.029.059.022.013.051Z" style="fill:#a6a6a6"/><path d="M9.451,19.59a.206.206,0,0,1,.168-.039Q9.567,19.691,9.451,19.59Z" style="fill:#aaa"/><path d="M6.855,19.73l.117.035L6.93,19.8l-.06-.018Z" style="fill:#aaa"/><path d="M25.769,19.564l.046-.027.058.025.01.051Z" style="fill:#babab8"/><path d="M9.163,19.648a.211.211,0,0,1,.169-.038C9.3,19.7,9.24,19.716,9.163,19.648Z" style="fill:#a0a0a0"/><path d="M8.878,19.7a.209.209,0,0,1,.168-.037C9.01,19.761,8.953,19.773,8.878,19.7Z" style="fill:#adadad"/><path d="M19.207,19.668l.114.047-.044.028-.059-.024Z" style="fill:#9e9c9d"/><path d="M19.372,19.726l.118.045-.1.006Z" style="fill:#a7a2a0"/><path d="M20.82,20.19l.116.043-.044.029-.059-.022Z" style="fill:#a7a2a0"/><path d="M26.244,19.747l.043-.031.059.021.013.051Z" style="fill:#acaba9"/><path d="M19.543,19.785l.12.043-.1.007Z" style="fill:#bab5b2"/><path d="M26.406,19.8l.046-.027.057.025.01.051Z" style="fill:#b2b1af"/><path d="M19.716,19.843l.119.044-.1.006Z" style="fill:#beb9b5"/><path d="M19.889,19.9l.119.045-.1.006Z" style="fill:#bab6b3"/><path d="M20.058,19.957l.119.035-.041.032-.061-.018Z" style="fill:#b6b6b6;opacity:0.9200000166893005;isolation:isolate"/><path d="M27.044,20.03,27.089,20l.059.022.013.051Z" style="fill:#b5b3b4"/><path d="M20.413,20.074l.117.036-.042.032-.059-.018Z" style="fill:#cac8c8;opacity:0.9800000190734863;isolation:isolate"/><path d="M27.209,20.086l.044-.028.059.023.012.051Z" style="fill:#989797;opacity:0.8199999928474426;isolation:isolate"/><path d="M21.748,20.141q.14-.045.1.1C21.749,20.267,21.717,20.235,21.748,20.141Z" style="fill:#53433b"/><path d="M20.987,20.246l.118.044L21,20.3Z" style="fill:#b3afb0"/><path d="M21.159,20.3l.119.043-.1.007Z" style="fill:#b6b5b6"/><path d="M21.332,20.362l.119.043-.1.007Z" style="fill:#babab9"/><path d="M21.5,20.417l.118.044-.1.007Z" style="fill:#c5c2c0;opacity:0.9800000190734863;isolation:isolate"/><path d="M28.147,20.438l.043-.03.059.021.013.051Z" style="fill:#acacac"/><path d="M21.739,20.478l.118.044-.1.006Z" style="fill:#9e9e9e"/><path d="M28.309,20.486l.046-.026.057.026.009.051Z" style="fill:#b4b3b3;opacity:0.9200000166893005;isolation:isolate"/><path d="M21.909,20.535l.119.044-.1.006Z" style="fill:#a1a4a5"/><path d="M22.966,20.546c.057-.084.207.007.138.093S22.9,20.632,22.966,20.546Z" style="fill:#4e3831"/><path d="M22.081,20.593l.119.043-.1.007Z" style="fill:#b1b1b0"/><path d="M22.249,20.651l.121.03-.04.035-.062-.016Z" style="fill:#c5c3bf"/><path d="M29.072,20.786q.12-.1.157.054A.2.2,0,0,1,29.072,20.786Z" style="fill:#8f8e8d;opacity:0.8399999737739563;isolation:isolate"/><path d="M22.841,20.824l.115.046-.045.028-.059-.023Z" style="fill:#aba7a7"/><path d="M23.007,20.881l.118.045-.1.005Z" style="fill:#b8b6b7"/><path d="M23.178,20.939l.119.044-.1.006Z" style="fill:#c4c1c0"/><path d="M23.351,21l.118.044-.1.006Z" style="fill:#c6c1bf;opacity:0.9800000190734863;isolation:isolate"/><path d="M23.518,21.053l.119.035-.041.032-.061-.018Z" style="fill:#d1ccc9"/><path d="M23.937,21.172l.116.044-.044.029-.059-.022Z" style="fill:#9d9894"/><path d="M24.1,21.227l.118.044-.1.006Z" style="fill:#a59f9b"/><path d="M24.275,21.284l.119.044-.1.006Z" style="fill:#aaa39d"/><path d="M29.754,21.321a.241.241,0,0,1,.209-.032C29.965,21.385,29.8,21.392,29.754,21.321Z" style="fill:#a1a1a1;opacity:0.9599999785423279;isolation:isolate"/><path d="M24.449,21.342l.121.044-.106.005Z" style="fill:#b6aca5"/><path d="M29.584,21.385l.12-.046-.014.05Z" style="fill:#b8b8b8"/><path d="M24.629,21.4l.123.042-.107.007Z" style="fill:#999;opacity:0.8700000047683716;isolation:isolate"/><path d="M29.409,21.444l.119-.044-.015.05Z" style="fill:#bcbcbc"/><path d="M24.794,21.471l.028.015Z" style="fill:#cbc6c1"/><path d="M29.241,21.5l.116-.044-.013.051-.059.022Z" style="fill:#989695;opacity:0.8199999928474426;isolation:isolate"/><path d="M25.086,21.573l.114.043-.043.03-.058-.022Z" style="fill:#c3beba"/><path d="M26.139,21.754a.946.946,0,0,1,.191-.168c.074.054.142.117.212.177A1.572,1.572,0,0,1,26.139,21.754Z" style="fill:#8b7d77"/><path d="M28.949,21.611l.117-.037-.015.05-.059.019Z" style="fill:#b5b1ae"/><path d="M25.371,21.688l.115.042-.043.03-.059-.021Z" style="fill:#b9b5b0"/><path d="M28.738,21.727l.022-.01Z" style="fill:#e4e3e1"/><path d="M25.676,21.809l.122.041-.107.008Z" style="fill:#bbbbb9;opacity:0.9800000190734863;isolation:isolate"/><path d="M25.845,21.876l.036.018Z" style="fill:#c9c9c7"/><path d="M28.258,21.9l.114-.042-.013.051-.058.021Z" style="fill:#acb3b4"/><path d="M26,21.945l.032.012Z" style="fill:#c4c2c3"/><path d="M26.358,22.036l.116.042-.043.03-.059-.021Z" style="fill:#bebdbb"/><path d="M27.789,22.079l.114-.045-.012.051-.058.023Z" style="fill:#c4c4c5"/><path d="M26.587,22.088a.2.2,0,0,1,.163.036Q26.636,22.231,26.587,22.088Z" style="fill:#9a9a98"/><path d="M27.565,22.133l.117-.042-.013.051-.059.021Z" style="fill:#c3c3c1"/><path d="M26.841,22.154c.173.005.346.005.519.006A.581.581,0,0,1,26.841,22.154Z" style="fill:#c4c2c0"/></svg>