<svg viewBox="0 0 34 34">
  <path d="M0 3.896C.01 1.762 1.781.01 3.937 0h26.127C32.223.001 34 1.759 34 3.896v26.208c0 2.137-1.777 3.895-3.936 3.896H3.937C1.781 33.99.01 32.238 0 30.104V3.896Z" fill="#f6e458" />
  <path d="M21.325 7.767c-1.823-.524-3.683-.595-5.578-.425-1.06.11-2.08.32-3.064.69-2.125.798-3.722 2.181-4.673 4.264-.683 1.492-.93 3.078-.955 4.705-.027 1.72.188 3.415.53 5.096.311 1.524.724 3.018 1.315 4.46.056.137.126.184.275.183 1.867-.004 3.734-.004 5.6-.004h1.659c.042 0 .085-.002.133-.005l.08-.004-.03-.074c-.017-.041-.034-.082-.053-.123-.135-.289-.273-.576-.41-.864a46.467 46.467 0 0 1-.868-1.884c-.82-1.928-1.448-3.914-1.64-6.016-.084-.928-.072-1.85.185-2.754.294-1.033.925-1.762 1.972-2.067a4.845 4.845 0 0 1 2.89.03c.854.277 1.41.86 1.647 1.732a4.35 4.35 0 0 1 .044 2.023c-.106.52-.32.994-.703 1.374-.688.68-1.547.837-2.469.785a9.137 9.137 0 0 1-.496-.046l-.24-.025.005.072c.001.04.005.081.013.12.04.158.077.316.114.475.09.381.18.763.297 1.137.227.734.492 1.45.792 2.15 2.14-.167 4.111-.699 6.203-1.955l.088-.055c.899-.56 1.626-1.285 2.128-2.222.812-1.518.97-3.14.729-4.815-.25-1.729-1.025-3.18-2.36-4.318-.926-.79-1.997-1.306-3.16-1.64Z" />
</svg>
