<svg viewBox="0 0 32 32" xmlns="http://www.w3.org/2000/svg"><path d="m29.472 14.753-12.225-12.225a1.8 1.8 0 0 0 -2.55 0l-2.539 2.539 3.22 3.22a2.141 2.141 0 0 1 2.712 2.73l3.1 3.1a2.143 2.143 0 1 1 -1.285 1.21l-2.895-2.895v7.617a2.141 2.141 0 1 1 -1.764-.062v-7.687a2.146 2.146 0 0 1 -1.165-2.814l-3.17-3.172-8.383 8.386a1.8 1.8 0 0 0 0 2.551l12.225 12.221a1.8 1.8 0 0 0 2.55 0l12.169-12.172a1.8 1.8 0 0 0 0-2.551" fill="#dd4c35"/><path d="m12.158 5.067 3.22 3.22a2.141 2.141 0 0 1 2.712 2.73l3.1 3.1a2.143 2.143 0 1 1 -1.285 1.21l-2.895-2.895v7.617a2.141 2.141 0 1 1 -1.764-.062v-7.687a2.146 2.146 0 0 1 -1.165-2.814l-3.17-3.172" fill="#fff"/></svg>