<?xml version="1.0" encoding="UTF-8"?>
<svg width="300px" height="300px" viewBox="0 0 300 300" version="1.1" xmlns="http://www.w3.org/2000/svg" xmlns:xlink="http://www.w3.org/1999/xlink">
    <!-- Generator: Sketch 41.2 (35397) - http://www.bohemiancoding.com/sketch -->
    <title>ansible</title>
    <desc>Created with Sketch.</desc>
    <defs></defs>
    <g id="Page-1" stroke="none" stroke-width="1" fill="none" fill-rule="evenodd">
        <g id="ansible" fill="#1A1918">
            <path d="M300,149.999412 C300,232.844438 232.84679,299.997648 149.999412,299.997648 C67.1602654,299.997648 0,232.844438 0,149.999412 C-1.09658963e-14,67.1602654 67.1602654,0 149.999412,0 C232.845614,0 300,67.1602654 300,149.999412 Z M152.645091,92.1248917 L191.461316,187.929041 L132.829544,141.743718 L152.645091,92.1260676 L152.645091,92.1248917 Z M221.602066,209.998707 L161.894384,66.306593 C160.189391,62.1628719 156.781757,59.9687222 152.645091,59.9687222 C148.500194,59.9687222 144.844454,62.1628719 143.139461,66.306593 L77.6065817,223.918505 L100.024301,223.918505 L125.966065,158.934752 L203.384509,221.478601 C206.497004,223.996112 208.744067,225.135518 211.66372,225.135518 C217.512435,225.135518 222.625062,220.74957 222.625062,214.422282 C222.625062,213.392231 222.260546,211.756613 221.602066,209.998707 L221.602066,209.998707 Z" id="ansible-icon"></path>
        </g>
    </g>
</svg>