<svg xmlns="http://www.w3.org/2000/svg" viewBox="0 0 32 32"><title>file_type_gulpfile@2x</title><g id="gulp"><path d="M15.94,24.09a15.35,15.35,0,0,1-3.52-.39,6.76,6.76,0,0,1-1-.31l.81,1.39.32,4.34c0,.49,1.55.88,3.45.88s3.45-.39,3.45-.88l.25-4.39.77-1.35a6.69,6.69,0,0,1-1,.32A15.35,15.35,0,0,1,15.94,24.09ZM20.5,10a34.28,34.28,0,0,1-4.5.26A34.28,34.28,0,0,1,11.5,10a8.43,8.43,0,0,1-1.4-.29,2,2,0,0,1-.34-.14l.75,6.87q.05-.18.12-.35a6.71,6.71,0,0,1,.3-.71,6.26,6.26,0,0,1,.38-.65,5,5,0,0,1,.43-.57,3.45,3.45,0,0,1,.47-.44,2.24,2.24,0,0,1,.49-.29,1.23,1.23,0,0,1,.49-.1,1.05,1.05,0,0,1,.54.15,1.54,1.54,0,0,1,.49.49.39.39,0,0,1,.07.15.84.84,0,0,1,0,.15.39.39,0,0,1-.08.26.23.23,0,0,1-.18.09.24.24,0,0,1-.18-.1,2,2,0,0,1-.19-.29.71.71,0,0,0-.22-.25.45.45,0,0,0-.26-.08.79.79,0,0,0-.46.18,2.65,2.65,0,0,0-.48.47,5.13,5.13,0,0,0-.46.67,7,7,0,0,0-.39.77,5.48,5.48,0,0,0-.27.77,2.75,2.75,0,0,0-.1.69,1.64,1.64,0,0,0,0,.21.7.7,0,0,0,.05.19.39.39,0,0,0,.1.14.25.25,0,0,0,.17.06.56.56,0,0,0,.26-.08,1.93,1.93,0,0,0,.3-.2,3.74,3.74,0,0,0,.31-.28l.29-.31.24-.31a1.81,1.81,0,0,0,.16-.26l.28-.85a.4.4,0,0,1,.14-.2.3.3,0,0,1,.17-.06h.09l.08,0a.22.22,0,0,1,.05.08.3.3,0,0,1,0,.11,1.65,1.65,0,0,1,0,.33,2.59,2.59,0,0,1-.08.3l-.11.29-.11.31,0,.11-.08.24-.1.32-.11.37-.11.37-.09.32-.07.24,0,.12a.75.75,0,0,1,0,.13l-.08.13a.49.49,0,0,1-.1.1.19.19,0,0,1-.11,0,.16.16,0,0,1-.14-.07.45.45,0,0,1,0-.24v-.05a.51.51,0,0,1,0-.05,1.28,1.28,0,0,1,0-.22l.1-.36.13-.42.12-.39L12.3,18a3.79,3.79,0,0,1-.39.32,2.3,2.3,0,0,1-.4.23,1,1,0,0,1-.39.09.69.69,0,0,1-.37-.09l-.05,0,.42,4.35c.11.27,2.14.94,4.82.94s4.72-.67,4.82-.94l.6-5.17-.14.13a6.25,6.25,0,0,1-.48.41,2.18,2.18,0,0,1-.44.27,1.15,1.15,0,0,1-.46.09.56.56,0,0,1-.36-.1.34.34,0,0,1-.13-.28v-.06a.66.66,0,0,1,.09-.25,2.87,2.87,0,0,1,.2-.29l.25-.31.24-.29.18-.25a.38.38,0,0,0,.07-.19.09.09,0,0,0,0-.07.16.16,0,0,0-.1,0,.57.57,0,0,0-.25.06,1.25,1.25,0,0,0-.26.17,2.32,2.32,0,0,0-.25.24l-.23.29q-.11.15-.19.3l-.15.28-.05.11-.07.16-.08.19-.08.18-.07.15,0,.09-.05.12L18.4,19l-.1.26-.09.25-.08.21,0,.12a1.32,1.32,0,0,1-.07.18.73.73,0,0,1-.09.15.43.43,0,0,1-.12.1.31.31,0,0,1-.15,0,.3.3,0,0,1-.18-.05.24.24,0,0,1-.07-.2.63.63,0,0,1,0-.15,1.32,1.32,0,0,1,0-.15l.06-.14.05-.14.34-.73.33-.72.06-.15,0,0a4.05,4.05,0,0,1-.4.34,2.1,2.1,0,0,1-.39.23.92.92,0,0,1-.38.09.49.49,0,0,1-.21,0,.35.35,0,0,1-.13-.11.43.43,0,0,1-.07-.16v-.07l-.11.08a2.19,2.19,0,0,1-.37.22.82.82,0,0,1-.33.08.31.31,0,0,1-.24-.1.48.48,0,0,1-.09-.33,1.82,1.82,0,0,1,0-.39,2,2,0,0,1-.2.29,1.74,1.74,0,0,1-.27.26,1.36,1.36,0,0,1-.34.19,1.12,1.12,0,0,1-.41.07l-.19,0a.41.41,0,0,1-.16-.09.44.44,0,0,1-.11-.16.68.68,0,0,1,0-.26v-.11a2.36,2.36,0,0,1,.08-.34q.07-.23.2-.6t.39-.89a.49.49,0,0,1,.15-.2.31.31,0,0,1,.18-.06H15l.09,0a.22.22,0,0,1,.06.07.19.19,0,0,1,0,.1.25.25,0,0,1,0,.07.82.82,0,0,1-.07.16l-.12.23-.14.28q-.07.15-.14.31a3.07,3.07,0,0,0-.11.32,1.39,1.39,0,0,0-.05.32.24.24,0,0,0,0,.12.11.11,0,0,0,.1.05.64.64,0,0,0,.38-.13,1.68,1.68,0,0,0,.33-.32,3.11,3.11,0,0,0,.28-.42q.12-.22.21-.41a2.06,2.06,0,0,0,.1-.26,2.63,2.63,0,0,1,.1-.26.8.8,0,0,1,.12-.2.21.21,0,0,1,.17-.08.21.21,0,0,1,.17.08.32.32,0,0,1,.06.2.57.57,0,0,1,0,.18l-.1.26-.14.31q-.07.17-.14.34a3.35,3.35,0,0,0-.1.34,1.26,1.26,0,0,0,0,.31.12.12,0,0,0,.13.13.59.59,0,0,0,.24-.07,1.61,1.61,0,0,0,.29-.18l.08-.06a2.51,2.51,0,0,1,.1-.33l.22-.56.2-.51L18.17,14a.39.39,0,0,1,.15-.2.35.35,0,0,1,.19-.06.27.27,0,0,1,.17.06.24.24,0,0,1,.08.2.41.41,0,0,1,0,.14l-.07.16-.18.42-.23.54-.25.6-.25.61-.23.56-.18.46a2,2,0,0,0-.07.19.71.71,0,0,0,0,.2.18.18,0,0,0,0,.09.07.07,0,0,0,.07,0,.4.4,0,0,0,.16,0l.21-.12.23-.17.24-.2.23-.21.19-.19,0,0,.09-.3.07-.18a2.54,2.54,0,0,1,.1-.24,1,1,0,0,1,.12-.2.19.19,0,0,1,.15-.09.24.24,0,0,1,.18.06.23.23,0,0,1,.05.16.6.6,0,0,1,0,.07l0,.1,0,.1,0,.07.24-.24a2.51,2.51,0,0,1,.27-.22,1.57,1.57,0,0,1,.29-.16.75.75,0,0,1,.29-.06l.2,0a.58.58,0,0,1,.18.08.44.44,0,0,1,.13.14.39.39,0,0,1,0,.2.78.78,0,0,1-.07.32,2.29,2.29,0,0,1-.19.34q-.11.17-.24.33l-.25.29-.19.22A.34.34,0,0,0,20,18,.1.1,0,0,0,20,18a.13.13,0,0,0,.09,0,.35.35,0,0,0,.15-.06l.28-.2.46-.38.45-.39.81-7.48a2,2,0,0,1-.35.14A8.43,8.43,0,0,1,20.5,10ZM16,8.2c-3.49,0-6.32.39-6.32.87s2.83.87,6.32.87,6.32-.39,6.32-.87S19.49,8.2,16,8.2Zm2.52,1.13c0,.11-.34.2-.75.2S17,9.44,17,9.32s.34-.2.75-.2S18.52,9.21,18.52,9.32Z" style="fill:#da4648"/><path d="M17.17,9.23v0c0,.07.27.13.6.13s.6-.06.6-.13L19.16,6l3.14-3.32h0c.07-.08-.07-.31-.29-.51S21.55,2,21.48,2h0L18.12,5.56Z" style="fill:#da4648"/></g></svg>