<svg viewBox="0 0 32 32" xmlns="http://www.w3.org/2000/svg" xmlns:xlink="http://www.w3.org/1999/xlink"><linearGradient id="a" gradientUnits="userSpaceOnUse" x1="13.859" x2="18.106" y1="29.219" y2="29.219"><stop offset=".034" stop-color="#636361"/><stop offset=".178" stop-color="#6c6d70"/><stop offset=".219" stop-color="#6f7175"/><stop offset=".309" stop-color="#616366"/><stop offset=".481" stop-color="#3c3d3f"/><stop offset=".716" stop-color="#010101"/><stop offset=".719"/><stop offset="1" stop-color="#636a6e"/></linearGradient><linearGradient id="b" x1="15.178" x2="16.787" xlink:href="#a" y1="29.734" y2="29.734"/><linearGradient id="c" gradientUnits="userSpaceOnUse" x1="15.277" x2="16.688" y1="29.881" y2="29.881"><stop offset=".034" stop-color="#9b9b98"/><stop offset=".131" stop-color="#a4a5a7"/><stop offset=".219" stop-color="#aeb1b8"/><stop offset=".352" stop-color="#9fa4ab"/><stop offset=".605" stop-color="#788188"/><stop offset=".719" stop-color="#657076"/><stop offset="1" stop-color="#8b949a"/></linearGradient><radialGradient id="d" cx="25.129376" cy="19.549736" gradientUnits="userSpaceOnUse" r="20.429682"><stop offset=".034" stop-color="#70706e"/><stop offset=".112" stop-color="#616261"/><stop offset=".219" stop-color="#46474a"/><stop offset=".408" stop-color="#48494c"/><stop offset=".487" stop-color="#4e5053"/><stop offset=".544" stop-color="#5a5c5f"/><stop offset=".592" stop-color="#6a6e71"/><stop offset=".633" stop-color="#7f8588"/><stop offset=".667" stop-color="#979ea1"/><stop offset=".719" stop-color="#3d4447"/><stop offset="1" stop-color="#656c70"/></radialGradient><linearGradient id="e" gradientUnits="userSpaceOnUse" x1="16.126" x2="16.05" y1="28.108" y2="26.893"><stop offset=".034" stop-color="#9b9b98"/><stop offset=".109" stop-color="#a5a6a7"/><stop offset=".219" stop-color="#babcc4"/><stop offset=".311" stop-color="#abaeb5"/><stop offset=".487" stop-color="#84898f"/><stop offset=".719" stop-color="#485054"/><stop offset="1" stop-color="#8b949a"/></linearGradient><linearGradient id="f" x1="16.013" x2="15.895" xlink:href="#e" y1="26.542" y2="24.635"/><linearGradient id="g" x1="16.023" x2="15.887" xlink:href="#e" y1="25.546" y2="23.355"/><linearGradient id="h" x1="16.013" x2="15.895" xlink:href="#e" y1="27.627" y2="25.72"/><linearGradient id="i" gradientUnits="userSpaceOnUse" x1="13.68" x2="18.284" y1="28.805" y2="28.805"><stop offset=".034" stop-color="#545453"/><stop offset=".071" stop-color="#616262"/><stop offset=".143" stop-color="#848589"/><stop offset=".219" stop-color="#aeb1b8"/><stop offset=".352" stop-color="#9fa4ab"/><stop offset=".605" stop-color="#788188"/><stop offset=".719" stop-color="#657076"/><stop offset="1" stop-color="#505659"/></linearGradient><linearGradient id="j" gradientUnits="userSpaceOnUse" x1="12.159" x2="19.475" y1="25.813" y2="25.813"><stop offset="0" stop-color="#e5e1df"/><stop offset="0" stop-color="#dddad6"/><stop offset=".038" stop-color="#ceccc9"/><stop offset=".112" stop-color="#a7a9a8"/><stop offset=".212" stop-color="#697072"/><stop offset=".264" stop-color="#465054"/><stop offset=".303" stop-color="#636c6f"/><stop offset=".398" stop-color="#a5aaac"/><stop offset=".478" stop-color="#d5d7d9"/><stop offset=".539" stop-color="#f3f4f5"/><stop offset=".573" stop-color="#fefeff"/><stop offset=".62" stop-color="#f4f5f6"/><stop offset=".699" stop-color="#dadcdf"/><stop offset=".8" stop-color="#b0b4b9"/><stop offset=".876" stop-color="#8b9298"/><stop offset="1" stop-color="#d1d3d4"/><stop offset="1" stop-color="#a7a9ac"/></linearGradient><linearGradient id="k" x1="12.159" x2="19.475" xlink:href="#j" y1="24.728" y2="24.728"/><linearGradient id="l" x1="12.159" x2="19.475" xlink:href="#j" y1="23.548" y2="23.548"/><linearGradient id="m" x1="12.159" x2="19.475" xlink:href="#j" y1="26.898" y2="26.898"/><linearGradient id="n" gradientUnits="userSpaceOnUse" x1="12.159" x2="19.475" y1="25.967" y2="25.967"><stop offset="0" stop-color="#e5e1df"/><stop offset="0" stop-color="#dde8d0"/><stop offset="0" stop-color="#d2f3ba"/><stop offset=".036" stop-color="#c5e4b1"/><stop offset=".105" stop-color="#a4bd98"/><stop offset=".199" stop-color="#6e7f71"/><stop offset=".264" stop-color="#465054"/><stop offset=".303" stop-color="#636c6f"/><stop offset=".398" stop-color="#a5aaac"/><stop offset=".478" stop-color="#d5d7d9"/><stop offset=".539" stop-color="#f3f4f5"/><stop offset=".573" stop-color="#fefeff"/><stop offset=".62" stop-color="#f4f5f6"/><stop offset=".699" stop-color="#dadcdf"/><stop offset=".8" stop-color="#b0b4b9"/><stop offset=".876" stop-color="#8b9298"/><stop offset="1" stop-color="#d1d3d4"/><stop offset="1" stop-color="#a7a9ac"/></linearGradient><linearGradient id="o" x1="12.159" x2="19.475" xlink:href="#n" y1="24.883" y2="24.883"/><linearGradient id="p" x1="12.159" x2="19.475" xlink:href="#n" y1="27.05" y2="27.05"/><linearGradient id="q" x1="11.902" x2="19.884" xlink:href="#e" y1="23.201" y2="23.201"/><radialGradient id="r" cx="16.141918" cy="12.875808" gradientUnits="userSpaceOnUse" r="11.296772"><stop offset="0" stop-color="#ffffd1"/><stop offset=".505" stop-color="#ff0"/><stop offset=".568" stop-color="#fdf700"/><stop offset=".664" stop-color="#f6e200"/><stop offset=".782" stop-color="#ebbf00"/><stop offset=".906" stop-color="#de9200"/><stop offset="1" stop-color="#da9819"/></radialGradient><path d="m13.859 28.776a.242.242 0 0 0 .128.191 12 12 0 0 0 1.392.622 4.3 4.3 0 0 0 .578.072h.052a4.3 4.3 0 0 0 .578-.072 12.014 12.014 0 0 0 1.392-.622.243.243 0 0 0 .128-.191l-2.137.192z" fill="url(#a)"/><path d="m16.014 30a1.123 1.123 0 0 0 .688-.247.175.175 0 0 0 .085-.126v-.105a3.235 3.235 0 0 0 -.773-.053h-.063a3.237 3.237 0 0 0 -.773.053v.105a.175.175 0 0 0 .085.126 1.122 1.122 0 0 0 .688.247z" fill="url(#b)"/><path d="m15.951 29.807a4.732 4.732 0 0 1 -.674-.044 1.105 1.105 0 0 0 .674.237h.063a1.106 1.106 0 0 0 .675-.237 4.733 4.733 0 0 1 -.675.044z" fill="url(#c)"/><path d="m19.809 26.838a1 1 0 0 0 -.234.389c-.036.181-.1.585-1.326 1.406l-.025.017a.435.435 0 0 1 -.086.037 9.968 9.968 0 0 1 -2.155.209 9.968 9.968 0 0 1 -2.156-.209.436.436 0 0 1 -.085-.036l-.025-.017a4.579 4.579 0 0 1 -1.12-.957c-.164-.219-.373-.257-.39-.345a21.055 21.055 0 0 0 3.855.057 13.049 13.049 0 0 0 3.761-.654.692.692 0 0 1 -.014.103z" fill="url(#d)"/><path d="m19.772 26.88a.985.985 0 0 1 -.246.129c-.076.028-.245.078-.245.078a25.15 25.15 0 0 1 -6.458.436c-.136-.009-.32-.028-.32-.028a1.062 1.062 0 0 1 -.14-.028 1.016 1.016 0 0 1 .14.107c.16.013.319.019.319.019a26.864 26.864 0 0 0 6.743-.323l.009-.042a.885.885 0 0 1 .198-.348z" fill="url(#e)"/><path d="m19.439 25.382s.245-.07.245-.162a.114.114 0 0 0 -.013-.065.214.214 0 0 1 -.061-.144.437.437 0 0 1 .119-.27 1.069 1.069 0 0 1 -.2.1c-.076.028-.245.078-.245.078a25.151 25.151 0 0 1 -6.458.436c-.136-.009-.32-.028-.32-.028a1.055 1.055 0 0 1 -.181-.041.377.377 0 0 1 .078.217.716.716 0 0 1 -.254.432.673.673 0 0 1 .368-.079 26.2 26.2 0 0 0 6.922-.474z" fill="url(#f)"/><path d="m19.439 24.229s.245-.078.245-.182a.143.143 0 0 0 -.013-.073.254.254 0 0 1 -.061-.162.514.514 0 0 1 .119-.3 1.026 1.026 0 0 1 -.2.111c-.076.032-.245.088-.245.088a22.507 22.507 0 0 1 -6.458.489c-.136-.01-.32-.032-.32-.032a.953.953 0 0 1 -.181-.046.455.455 0 0 1 .078.243.825.825 0 0 1 -.254.484.614.614 0 0 1 .368-.089c.497-.002 4.418.281 6.922-.531z" fill="url(#g)"/><path d="m19.439 26.467s.245-.07.245-.163a.115.115 0 0 0 -.013-.065.214.214 0 0 1 -.061-.144.435.435 0 0 1 .119-.27 1.07 1.07 0 0 1 -.2.1c-.076.028-.245.078-.245.078a25.162 25.162 0 0 1 -6.458.436c-.136-.009-.32-.028-.32-.028a1.042 1.042 0 0 1 -.181-.041.377.377 0 0 1 .078.217.717.717 0 0 1 -.254.432.67.67 0 0 1 .368-.079 26.207 26.207 0 0 0 6.922-.473z" fill="url(#h)"/><path d="m19.439 26.467s.245-.07.245-.163a.115.115 0 0 0 -.013-.065.214.214 0 0 1 -.061-.144.435.435 0 0 1 .119-.27 1.07 1.07 0 0 1 -.2.1c-.076.028-.245.078-.245.078a25.168 25.168 0 0 1 -6.458.436c-.136-.009-.32-.028-.32-.028a1.042 1.042 0 0 1 -.181-.041.376.376 0 0 1 .078.217.717.717 0 0 1 -.254.432.67.67 0 0 1 .368-.079 26.207 26.207 0 0 0 6.922-.473z" fill="url(#h)"/><path d="m18.224 28.65a.435.435 0 0 1 -.086.037 9.968 9.968 0 0 1 -2.155.209 9.968 9.968 0 0 1 -2.156-.209.436.436 0 0 1 -.085-.036l-.025-.017-.029-.019a.112.112 0 0 0 0 .073c.024.073.147.1.147.1a9.943 9.943 0 0 0 2.15.209 9.942 9.942 0 0 0 2.15-.209s.126-.029.147-.1a.118.118 0 0 0 0-.073l-.029.019z" fill="url(#i)"/><path d="m19.944 25.5s.041.252-.418.423c-.076.028-.245.078-.245.078a25.162 25.162 0 0 1 -6.458.436c-.136-.009-.32-.028-.32-.028-.276-.038-.467-.16-.455-.308 0 0-.033-.249.466-.249a26.2 26.2 0 0 0 6.925-.472s.245-.07.245-.162a.111.111 0 0 0 -.013-.066s.273.16.273.348z" fill="url(#j)"/><path d="m19.944 24.416s.041.252-.418.423c-.076.028-.245.078-.245.078a25.151 25.151 0 0 1 -6.458.436c-.136-.009-.32-.028-.32-.028-.276-.038-.467-.16-.455-.308 0 0-.033-.248.466-.248a26.193 26.193 0 0 0 6.925-.472s.245-.07.245-.162a.11.11 0 0 0 -.013-.065s.273.157.273.346z" fill="url(#k)"/><path d="m19.893 24.406v-.021c-.012.076-.078.236-.417.355-.076.026-.245.073-.245.073a22.372 22.372 0 0 1 -5.1.5 22.155 22.155 0 0 0 5.1-.441s.169-.047.245-.073c.457-.156.417-.393.417-.393z" fill="#fff"/><path d="m19.893 25.491v-.021c-.012.076-.078.236-.417.355-.076.027-.245.073-.245.073a22.38 22.38 0 0 1 -5.1.5 22.171 22.171 0 0 0 5.1-.441s.169-.047.245-.073c.457-.156.417-.393.417-.393z" fill="#fff"/><path d="m19.944 23.034s.041.329-.418.552c-.076.037-.245.1-.245.1a19.409 19.409 0 0 1 -6.458.569c-.136-.012-.32-.037-.32-.037-.276-.05-.467-.209-.455-.4 0 0-.033-.324.466-.324a18.283 18.283 0 0 0 6.925-.461 1.014 1.014 0 0 0 .444-.238.53.53 0 0 1 .061.239z" fill="url(#l)"/><path d="m19.944 26.586s.041.252-.418.423c-.076.028-.245.078-.245.078a25.15 25.15 0 0 1 -6.458.436c-.136-.009-.32-.028-.32-.028-.276-.038-.467-.16-.455-.308 0 0-.033-.248.466-.248a26.207 26.207 0 0 0 6.925-.472s.245-.07.245-.163a.111.111 0 0 0 -.013-.065s.273.161.273.347z" fill="url(#m)"/><path d="m19.893 26.576v-.021c-.012.076-.078.236-.417.355-.076.026-.245.073-.245.073a22.372 22.372 0 0 1 -5.1.5 22.163 22.163 0 0 0 5.1-.441s.169-.047.245-.073c.457-.156.417-.393.417-.393z" fill="#fff"/><path d="m19.893 23.321v-.021c-.012.076-.078.236-.417.355-.076.027-.245.073-.245.073a22.372 22.372 0 0 1 -5.1.5 22.156 22.156 0 0 0 5.1-.441s.169-.047.245-.073c.457-.156.417-.393.417-.393z" fill="#fff"/><path d="m12.417 25.881s-.236 0-.241.08.246.085.246.085.175 0 .3.005c.619-.013 1.993-.038 3.437-.166-1.775.073-3.436-.002-3.742-.004z" fill="url(#n)"/><path d="m12.417 24.8s-.236 0-.241.08.246.085.246.085.175 0 .3.005c.619-.012 1.993-.038 3.437-.166-1.775.07-3.436-.004-3.742-.004z" fill="url(#o)"/><path d="m12.417 26.965s-.236 0-.241.08.246.085.246.085.175 0 .3.005c.619-.012 1.993-.038 3.437-.166-1.775.073-3.436-.003-3.742-.004z" fill="url(#p)"/><path d="m11.965 22.779s-.274.315.319.711c0 0 5.775.587 7.6-.695 0 0-6.261.525-7.919-.016z" fill="url(#q)"/><path d="m20.035 22.779a4.449 4.449 0 0 0 .81-1.155 3.386 3.386 0 0 0 .2-1.115 6.733 6.733 0 0 1 .632-2.91c.534-1.014 2.81-4.447 2.81-7.462a8.012 8.012 0 0 0 -8.487-8.137 8.012 8.012 0 0 0 -8.483 8.136c0 3.015 2.276 6.448 2.81 7.462a6.731 6.731 0 0 1 .632 2.91 3.384 3.384 0 0 0 .2 1.115 4.453 4.453 0 0 0 .81 1.155 13.866 13.866 0 0 0 3.987.37 15.151 15.151 0 0 0 4.079-.369z" fill="url(#r)"/></svg>