<svg xmlns="http://www.w3.org/2000/svg" viewBox="0 0 32 32"><title>file_type_wxt</title><path d="M21.05,30H16.34V28.23a2.46,2.46,0,1,0-4.92,0V30H2V20.58H3.77a2.46,2.46,0,1,0,0-4.92H2V11A4.71,4.71,0,0,1,6.71,6.24H9.2a4.71,4.71,0,0,1,9.37,0h2.48A4.71,4.71,0,0,1,25.76,11v2.48a4.71,4.71,0,0,1,0,9.37v2.49A4.71,4.71,0,0,1,21.05,30Zm-2.48-2.24h2.48a2.48,2.48,0,0,0,2.47-2.47V20.58h1.77a2.46,2.46,0,1,0,0-4.92H23.52V11a2.48,2.48,0,0,0-2.47-2.47H16.34V6.71a2.46,2.46,0,1,0-4.92,0V8.48H6.71A2.48,2.48,0,0,0,4.24,11v2.48a4.71,4.71,0,0,1,0,9.37v5h5a4.71,4.71,0,0,1,9.37,0Z" style="fill:#67d55e"/></svg>