<svg viewBox="0 0 32 32" xmlns="http://www.w3.org/2000/svg" xmlns:xlink="http://www.w3.org/1999/xlink"><linearGradient id="a" gradientTransform="matrix(37.134 26.001 13.575 -19.387 4673.473 -3982.019)" gradientUnits="userSpaceOnUse" x1="-33.423" x2="-33.353" y1="-250.911" y2="-250.858"><stop offset="0" stop-color="#767676"/><stop offset="1"/></linearGradient><linearGradient id="b" gradientTransform="matrix(81.081 56.774 17.306 -24.715 6804.021 -4149.644)" gradientUnits="userSpaceOnUse" x1="-32.107" x2="-32.028" y1="-242.563" y2="-242.586"><stop offset="0" stop-color="#0079b9"/><stop offset="1"/></linearGradient><linearGradient id="c" gradientTransform="matrix(60.003 42.015 34.184 -48.82 10343.005 -10469.084)" x1="-33.282" x2="-33.224" xlink:href="#b" y1="-243.423" y2="-243.455"/><linearGradient id="d" gradientUnits="userSpaceOnUse" x1="12.356" x2="14.011" y1="26.268" y2="26.268"><stop offset="0" stop-color="#595959"/><stop offset=".087" stop-color="#6e6e6e"/><stop offset=".242" stop-color="#8c8c8c"/><stop offset=".405" stop-color="#a4a4a4"/><stop offset=".577" stop-color="#b5b5b5"/><stop offset=".765" stop-color="#bfbfbf"/><stop offset="1" stop-color="#c2c2c2"/></linearGradient><linearGradient id="e" x1="18.291" x2="19.946" xlink:href="#d" y1="26.171" y2="26.171"/><linearGradient id="f" x1="24.44" x2="26.096" xlink:href="#d" y1="26.171" y2="26.171"/><path d="m20.305 17.872 6.855 4.546-5.44 3.075-6.859-4.494z" fill="#1c0a42"/><path d="m21.716 25.619-.055-.036-7.005-4.59 5.653-3.247 7.056 4.68zm-6.65-4.613 6.658 4.362 5.231-2.957-6.655-4.411z"/><path d="m26.401 11.909 3.017 1.683-2.348 1.496-2.857-1.841z" fill="url(#a)"/><path d="m27.069 15.215-3.058-1.97 2.387-1.46 3.228 1.8zm-2.654-1.966 2.655 1.711 2.138-1.36-2.8-1.565z"/><path d="m14.498 17.807 6.856 4.547-5.44 3.075-6.859-4.494z" fill="#ffbd3f"/><path d="m15.91 25.554-.055-.036-7.005-4.589 5.65-3.248 7.056 4.68zm-6.65-4.613 6.658 4.359 5.231-2.957-6.654-4.413z"/><path d="m7.99 17.966 6.964 4.4-5.377 3.138-7.359-4.655z" fill="#a11f40"/><path d="m9.575 25.629-7.575-4.791 6-3 7.164 4.527zm-7.139-4.769 7.144 4.518 5.168-3.016-6.764-4.273z"/><path d="m2.111 21.021 7.332 4.494v3.548l-7.332-4.731z" fill="url(#b)"/><path d="m9.55 29.26-7.55-4.869v-3.562l7.55 4.626zm-7.332-4.986 7.118 4.592v-3.291l-7.118-4.362z"/><path d="m24.071 13.343 2.938 1.879v6.909l-2.938-1.884z" fill="url(#c)"/><path d="m27.063 22.229-3.045-1.953v-7.031l3.045 1.947zm-2.938-2.012 2.831 1.815v-6.781l-2.831-1.81z"/><path d="m27.149 22.526v-7.332l2.365-1.419v15.374h-1.183-18.685v-3.548l5.44-3.075.699 3.075h.011l5.676-3.075.419 3.075h.054z" fill="#fff"/><path d="m29.621 29.256h-20.082v-3.718l5.62-3.177.7 3.083 5.7-3.087.422 3.1 5.061-2.991v-7.333l2.58-1.548zm-19.868-.215h19.654v-15.077l-2.151 1.29v7.332l-.053.031-5.229 3.09h-.174l-.411-3.014-5.564 3.014h-.125l-.686-3.018-5.26 2.973z"/><rect fill="url(#d)" height="1.656" rx=".215" width="1.656" x="12.356" y="25.44"/><path d="m13.8 27.2h-1.23a.322.322 0 0 1 -.322-.322v-1.223a.322.322 0 0 1 .322-.322h1.23a.322.322 0 0 1 .322.322v1.226a.322.322 0 0 1 -.322.319zm-1.23-1.653a.108.108 0 0 0 -.107.107v1.226a.108.108 0 0 0 .107.107h1.23a.108.108 0 0 0 .107-.107v-1.225a.108.108 0 0 0 -.107-.107z"/><rect fill="url(#e)" height="1.656" rx=".215" width="1.656" x="18.291" y="25.343"/><path d="m19.732 27.106h-1.227a.322.322 0 0 1 -.322-.322v-1.226a.322.322 0 0 1 .322-.322h1.226a.322.322 0 0 1 .322.322v1.226a.322.322 0 0 1 -.321.322zm-1.226-1.656a.108.108 0 0 0 -.107.107v1.226a.108.108 0 0 0 .107.107h1.226a.108.108 0 0 0 .107-.107v-1.225a.108.108 0 0 0 -.107-.107z"/><rect fill="url(#f)" height="1.656" rx=".215" width="1.656" x="24.44" y="25.343"/><path d="m25.881 27.106h-1.226a.322.322 0 0 1 -.322-.322v-1.226a.322.322 0 0 1 .322-.322h1.226a.322.322 0 0 1 .322.322v1.226a.322.322 0 0 1 -.322.322zm-1.226-1.656a.108.108 0 0 0 -.107.107v1.226a.108.108 0 0 0 .107.107h1.226a.108.108 0 0 0 .107-.107v-1.225a.108.108 0 0 0 -.107-.107z"/><path d="m27.215 11.23c-.052.069-.417-.262-.653-.526a4.408 4.408 0 0 1 -.516-.73 2.6 2.6 0 0 1 -.346-.774 2.358 2.358 0 0 1 -.052-.682 2.959 2.959 0 0 1 .129-.749 3.142 3.142 0 0 1 .787-1.207 15.532 15.532 0 0 0 1.283-1.4 3.062 3.062 0 0 0 .479-.927 3.979 3.979 0 0 0 .151-.855c.019-.364-.025-.593.023-.613s.215.274.287.564a3.167 3.167 0 0 1 -.458 2.1 6.9 6.9 0 0 1 -1.094 1.448 2.8 2.8 0 0 0 -.849 1.234 2.466 2.466 0 0 0 -.086.687 3.465 3.465 0 0 0 .476 1.542c.288.572.48.833.439.888z" fill="#ea2d2e"/><path d="m27.193 11.266c-.124 0-.492-.365-.651-.544a4.478 4.478 0 0 1 -.52-.734 2.628 2.628 0 0 1 -.346-.781 2.375 2.375 0 0 1 -.053-.69 2.978 2.978 0 0 1 .13-.756 3.208 3.208 0 0 1 .793-1.216c.294-.331.5-.528.659-.686a4.393 4.393 0 0 0 .622-.711 3.052 3.052 0 0 0 .476-.919 3.951 3.951 0 0 0 .15-.849c.008-.159 0-.294 0-.393 0-.159-.006-.225.038-.243a.05.05 0 0 1 .043 0 1.226 1.226 0 0 1 .28.579 3.167 3.167 0 0 1 -.46 2.121 6.928 6.928 0 0 1 -1.1 1.453c-.055.06-.109.116-.162.171a2.3 2.3 0 0 0 -.681 1.052 2.47 2.47 0 0 0 -.082.673 3.458 3.458 0 0 0 .473 1.53c.114.231.215.415.289.549.129.235.178.323.142.369a.051.051 0 0 1 -.04.02zm1.319-8.466a.863.863 0 0 0 0 .19c0 .1.007.236 0 .4a4.021 4.021 0 0 1 -.152.861 3.106 3.106 0 0 1 -.483.934 4.437 4.437 0 0 1 -.629.719c-.162.158-.364.354-.657.683a3.168 3.168 0 0 0 -.782 1.2 2.933 2.933 0 0 0 -.128.743 2.325 2.325 0 0 0 .052.675 2.59 2.59 0 0 0 .341.767 4.422 4.422 0 0 0 .513.725 2.035 2.035 0 0 0 .611.526 1.183 1.183 0 0 0 -.147-.31c-.074-.134-.175-.318-.29-.551a3.5 3.5 0 0 1 -.483-1.562 2.53 2.53 0 0 1 .084-.688 2.375 2.375 0 0 1 .694-1.075c.052-.055.106-.111.161-.171a6.879 6.879 0 0 0 1.09-1.442 3.119 3.119 0 0 0 .456-2.083 1.281 1.281 0 0 0 -.251-.541z"/><path d="m29.972 6.087c-.019-.088-.432-.04-.766.073a2.6 2.6 0 0 0 -1.059.722 2.8 2.8 0 0 0 -.916 1.855 2.972 2.972 0 0 0 .258 1.06c.221.572.455.773.444 1.225-.007.3-.114.484-.048.549s.314-.1.462-.313a1.8 1.8 0 0 0 .259-1.022c-.046-.815-.6-1.015-.608-1.8a1.858 1.858 0 0 1 .129-.676c.443-1.251 1.881-1.508 1.845-1.673z" fill="#ea2d2e"/><path d="m27.934 11.617a.094.094 0 0 1 -.069-.026c-.046-.046-.03-.122-.005-.237a1.718 1.718 0 0 0 .045-.331 1.374 1.374 0 0 0 -.214-.72 5 5 0 0 1 -.228-.495 2.98 2.98 0 0 1 -.259-1.07 2.81 2.81 0 0 1 .923-1.874 2.64 2.64 0 0 1 1.07-.729 1.482 1.482 0 0 1 .766-.1.065.065 0 0 1 .037.046c.015.07-.092.121-.306.224a2.73 2.73 0 0 0 -1.542 1.463 1.827 1.827 0 0 0 -.127.667 1.645 1.645 0 0 0 .291.885 1.889 1.889 0 0 1 .317.914 1.814 1.814 0 0 1 -.264 1.039.809.809 0 0 1 -.421.342zm1.889-5.549a2.117 2.117 0 0 0 -.608.117 2.588 2.588 0 0 0 -1.048.715 2.764 2.764 0 0 0 -.909 1.837 2.935 2.935 0 0 0 .256 1.05 4.955 4.955 0 0 0 .225.49 1.433 1.433 0 0 1 .22.745 1.765 1.765 0 0 1 -.047.341c-.019.091-.035.163-.009.188a.046.046 0 0 0 .038.01.769.769 0 0 0 .382-.32 1.793 1.793 0 0 0 .254-1.005 1.844 1.844 0 0 0 -.31-.89 1.711 1.711 0 0 1 -.3-.911 1.877 1.877 0 0 1 .13-.686 2.776 2.776 0 0 1 1.573-1.492c.126-.061.283-.136.277-.164l-.008-.007a.264.264 0 0 0 -.116-.018z"/></svg>