<svg width="32" height="32" version="1.1" viewBox="0 0 32 32" xml:space="preserve" xmlns="http://www.w3.org/2000/svg"><title>file_type_markuplint</title><g><path d="m4.1929 26.809c-1.489 0-2.544-1.478-2.084-2.919l3.832-12.002c0.293-0.91901 1.135-1.541 2.084-1.541 1.489 0 2.544 1.478 2.084 2.919l-3.832 12.002c-0.293 0.91901-1.135 1.541-2.084 1.541z" fill="#fff"/><path d="m21.548 4c-0.97301 0-1.855 0.583-2.25 1.487l-5.653 12.921-2.04-4.663s-2e-3 9e-3 -4e-3 0.014l-2.271 7.1121 1.971 4.506c0.396 0.90401 1.277 1.487 2.25 1.487 0.031 0 0.062-2e-3 0.093-3e-3 0.031 1e-3 0.061 3e-3 0.092 3e-3 0.97301 0 1.855-0.583 2.25-1.487l7.8121-17.851c0.72501-1.658-0.467-3.526-2.25-3.526z" fill="#1572eb"/><path d="m29.891 23.89-4.867-15.243-2.664 6.0891 3.363 10.532c0.293 0.91901 1.135 1.541 2.084 1.541 1.489 0 2.544-1.478 2.084-2.919z" fill="#fff"/></g></svg>
