<svg version="1.1" viewBox="0 0 32 32" xmlns="http://www.w3.org/2000/svg"><title>file_type_typescript</title><g fill="#007acc"><path d="m5.448 21.432h2.24v-8.912h3.104v-1.968h-8.448v1.968h3.104z"/><path d="m15.496 21.576c2.128 0 3.712-1.104 3.712-3.12 0-1.872-1.072-2.704-2.976-3.52l-0.56-0.24c-0.96-0.416-1.376-0.688-1.376-1.36 0-0.544 0.416-0.96 1.072-0.96 0.64 0 1.056 0.272 1.44 0.96l1.744-1.12c-0.736-1.296-1.76-1.792-3.184-1.792-2 0-3.28 1.28-3.28 2.96 0 1.824 1.072 2.688 2.688 3.376l0.56 0.24c1.024 0.448 1.632 0.72 1.632 1.488 0 0.64-0.592 1.104-1.52 1.104-1.104 0-1.728-0.576-2.208-1.36l-1.824 1.056c0.656 1.296 2 2.288 4.08 2.288z"/><path d="m19.928 21.432h2.352l1.68-2.896c0.336-0.576 0.672-1.536 0.672-1.536s0.416 0.976 0.752 1.536l1.712 2.896h2.56l-3.616-5.968 2.912-4.912h-2.384l-1.056 1.872c-0.32 0.56-0.624 1.488-0.624 1.488s-0.4-0.944-0.72-1.488l-1.104-1.872h-2.544l2.96 4.896z"/></g></svg>
