<svg version="1.1" viewBox="0 0 32 32" xmlns="http://www.w3.org/2000/svg"><title>file_type_cloudflare</title><g transform="matrix(.5809 0 0 .5809 -27.625 9.6681)"><path class="a" d="m94.7 10.6-5.6-1.3-1-0.4-25.7 0.2v12.4l32.3 0.1z" fill="#fff"/><path class="b" d="m84.2 20.4a2.8555 2.8555 0 0 0-0.3-2.6 3.0943 3.0943 0 0 0-2.1-1.1l-17.4-0.2c-0.1 0-0.2-0.1-0.3-0.1a0.1875 0.1875 0 0 1 0-0.3c0.1-0.2 0.2-0.3 0.4-0.3l17.5-0.2a6.2922 6.2922 0 0 0 5.1-3.8l1-2.6c0-0.1 0.1-0.2 0-0.3a11.396 11.396 0 0 0-21.9-1.2 5.4594 5.4594 0 0 0-3.6-1 5.2094 5.2094 0 0 0-4.6 4.6 5.4626 5.4626 0 0 0 0.1 1.8 7.3018 7.3018 0 0 0-7.1 7.3 4.102 4.102 0 0 0 0.1 1.1 0.3193 0.3193 0 0 0 0.3 0.3h32.1c0.2 0 0.4-0.1 0.4-0.3z" fill="#f48120"/><path class="c" d="m89.7 9.2h-0.5c-0.1 0-0.2 0.1-0.3 0.2l-0.7 2.4a2.8555 2.8555 0 0 0 0.3 2.6 3.0943 3.0943 0 0 0 2.1 1.1l3.7 0.2c0.1 0 0.2 0.1 0.3 0.1a0.1875 0.1875 0 0 1 0 0.3c-0.1 0.2-0.2 0.3-0.4 0.3l-3.8 0.2a6.2922 6.2922 0 0 0-5.1 3.8l-0.2 0.9c-0.1 0.1 0 0.3 0.2 0.3h13.2a0.26517 0.26517 0 0 0 0.3-0.3 10.872 10.872 0 0 0 0.4-2.6 9.5604 9.5604 0 0 0-9.5-9.5" fill="#faad3f"/></g></svg>
