<svg xmlns="http://www.w3.org/2000/svg" viewBox="0 0 32 32"><path d="M20.9,12.19a2.67,2.67,0,1,1-2.66-2.66A2.66,2.66,0,0,1,20.9,12.19Z" style="fill:#ffc131"/><circle cx="13.76" cy="19.82" r="2.66" style="fill:#24c8db"/><path d="M23.76,20.73a10.36,10.36,0,0,1-3.51,1.43,7.21,7.21,0,0,0,.35-3.22A7.15,7.15,0,1,0,12.44,8a12,12,0,0,0-3.9,1.14A10.17,10.17,0,1,1,23.76,20.73ZM8.66,11l2.49.3a7.68,7.68,0,0,1,.32-1.42A10.2,10.2,0,0,0,8.66,11Z" style="fill:#ffc131;fill-rule:evenodd"/><path d="M8.22,11.28a10.14,10.14,0,0,1,3.54-1.44,7.11,7.11,0,0,0-.4,3.23A7.15,7.15,0,1,0,19.56,24a12.12,12.12,0,0,0,3.9-1.12A10.18,10.18,0,1,1,8.22,11.28ZM23.32,21l0,0Z" style="fill:#24c8db;fill-rule:evenodd"/></svg>