<svg width="32" height="32" version="1.1" xmlns="http://www.w3.org/2000/svg"><path id="a" d="m3.1532 3.0791v1.0854h-1.1532v3.2562h1.1532v2.1878h1.0854v2.103h1.0176v2.1878l1.0854-0.01694v2.1369l1.1269 0.0137v2.1063h0.9761v2.1877h1.1532l-0.03392 2.1708h1.0684l0.03392 2.086h1.0345v2.2047h1.1532v1.1023h1.0515l3e-3 1.0305h4.2708v-1.0814h1.0684v-1.0684h1.1363v-2.1878h1.0176v-2.103h1.1024v-2.1708h1.1363v-2.103h0.98364v-2.1708h1.0515v-2.1708h1.0854v-2.1369h1.0854v-2.1708h1.0854v-2.1199h1.0685v-3.2392h-1.0685v-1.1193h-3.2223l0.0091 0.98332h-1.0606v1.1875h-1.1532v2.1708h-1.0515v2.1708h-1.0345v2.0351h-1.1024v2.2386h-1.0176v2.103l-1.1144 0.02015v2.1505h-1.0564v2.2387h-2.2386v-2.1708h-1.0175v-2.3065h-1.0345v-2.0351h-1.0006v-2.1708h-1.2211v-2.1369h-0.98364v-2.1369h-1.0854v-2.1708h-1.1193v-1.0176h-1.1532v-1.1532z" fill="#51e7f4" stroke-width=".26862"/><script/><link/></svg>
