<svg viewBox="0 0 32 32" xmlns="http://www.w3.org/2000/svg"><path d="m17.866 15.509-.98.98-.98-.978-1.957-1.957.977-.977 1.957 1.957 4.891-4.894.98.977z" fill="#008000"/><path d="m14.454 21.443h8.303v1.383h-8.303z" fill="#c00000"/><path d="m2 5.74v23.709h24.909v-23.709zm23.477 22.449-22.083-.058.023-20.974h22.077zm-19.326-17.238v5.534h5.534v-5.534zm4.149 4.149h-2.766v-2.766h2.766zm-4.151 4.22v5.534h5.534v-5.531zm4.151 4.154h-2.766v-2.765h2.766zm19.7-20.923v23.689h-1.431l-.02-22.24-22.4-.029v-1.42z" fill="#cfcfcf"/></svg>