<svg xmlns="http://www.w3.org/2000/svg" viewBox="0 0 32 32">
	<title>file_type_netin</title>
	<path d="M8.2,12.2c-0.8-0.1-1.3,0.3-1.4,1c-0.1,0.9,0.3,1.3,1.1,1.4c0.8,0.1,1.2-0.3,1.4-1C9.4,12.9,9,12.3,8.2,12.2z" style="fill:#3790b0"/>
	<path d="M16,2c-1.4,0-2.8,0.2-4.1,0.6c0.2,0.7,0.5,1.3,0.9,1.9c0.9,1.5,2.3,2.2,4,2.3c0.8,0.1,1.6,0.1,2.4,0.1c2.1,0,3.8,2.4,2.9,4.6c-0.5,1.2-1.1,1.9-2.4,2.1c-1.6,0.2-2.8-0.3-3.6-1.7c-0.1-0.3-0.3-0.6-0.4-0.9c-0.2-0.6-0.4-1.3-0.7-1.9C14.2,6.8,11.6,5.5,9.3,6C8.5,6.1,7.5,5.9,6.8,5.5C3.8,8.1,2,11.8,2,16c0,7.7,6.3,14,14,14s14-6.3,14-14C30,8.3,23.7,2,16,2zM21.8,23.3c-0.5,1.2-1.1,1.9-2.4,2.1c-1.6,0.2-2.8-0.3-3.6-1.7c-0.1-0.3-0.3-0.6-0.4-0.9c-0.2-0.6-0.4-1.3-0.7-1.9c-0.9-2.4-3.5-3.6-5.8-3.2c-1.3,0.2-3.2-0.5-3.8-1.6c-0.8-1.3-0.7-3.1,0.1-4.1c0.5-0.6,1.3-1,2.1-1.2h0c0.3,0,0.6,0,0.9,0c1.5,0.2,2.4,0.9,2.9,2.4c0.3,1.1,0.7,2.1,1.3,3.1c0.9,1.5,2.3,2.2,4,2.3c0.8,0.1,1.6,0.1,2.4,0.1C20.9,18.7,22.6,21.2,21.8,23.3z" style="fill:#3790b0"/>
	<path d="M18.4,21.8c-0.6,0.1-0.8,0.6-0.8,1.1c0,0.5,0.4,1,0.7,1.3c0.5,0.3,1.1,0.3,1.5-0.3c0.1-0.1,0.4-1,0.2-1.3C19.8,22.1,18.6,21.8,18.4,21.8z" style="fill:#3790b0"/>
	<path d="M20.1,12.1c0.1-0.1,0.4-1,0.2-1.3c-0.2-0.4-1.4-0.7-1.6-0.7c-0.6,0.1-0.8,0.6-0.8,1.1c0,0.5,0.4,1,0.7,1.3C19.1,12.8,19.8,12.8,20.1,12.1z" style="fill:#3790b0"/>
</svg>
