<svg xmlns="http://www.w3.org/2000/svg" viewBox="0 0 32 32"><title>file_type_yacc</title><path d="M28.5,14.574c-.737-.281-1.5-.487-2.255-.7-.212-.06-.566-.028-.6-.2-.041-.2.277-.34.443-.5a9.022,9.022,0,0,0,2.235-3.059,3.773,3.773,0,0,0-.516-3.977,7.7,7.7,0,0,0-2.4-1.946A24.206,24.206,0,0,0,19.67,2.029c-.069-.019-.15-.061-.235.057.1.069.193.14.292.207.605.412,1.222.806,1.813,1.237a12.124,12.124,0,0,1,2.993,2.851,2.9,2.9,0,0,1,.512,1.2,1.908,1.908,0,0,1-.8,1.858,9.382,9.382,0,0,1-3.048,1.41c-.184.061-.27-.043-.353-.173a1.175,1.175,0,0,0-1.021-.557c-.483-.017-.966-.071-1.449-.073q-2.5-.014-5,.005c-.482,0-.965.062-1.447.1-.217.019-.468.07-.562.264-.282.579-.687.426-1.118.244-.134-.057-.277-.094-.414-.145A7.913,7.913,0,0,1,7.821,9.5a1.965,1.965,0,0,1-.677-2.539A5.3,5.3,0,0,1,8.188,5.479a21.486,21.486,0,0,1,4.063-3.174.807.807,0,0,0,.344-.273.368.368,0,0,0-.3.007,29.778,29.778,0,0,0-3.38,1.066,13.662,13.662,0,0,0-3.88,2.154,4.046,4.046,0,0,0-1.1,5.4,10.718,10.718,0,0,0,2.278,2.783c.07.066.2.108.168.226-.028.1-.152.079-.237.1a24.721,24.721,0,0,0-2.584.783c-.461.171-.487.283-.09.552a7.285,7.285,0,0,0,2.777,1.181A4.993,4.993,0,0,0,8.3,16.02c.084-.02.176-.1.254-.026s.013.178-.027.247a.424.424,0,0,0,.08.55,3.48,3.48,0,0,1,.3.409,13.823,13.823,0,0,1,2.016,5.365,2.15,2.15,0,0,1-.478,1.946,1.052,1.052,0,0,0-.231.916,6.519,6.519,0,0,0,.435,1.347c.29.728.676,1.355,1.582,1.395a.974.974,0,0,1,.344.133.774.774,0,0,1,.444.523,1.306,1.306,0,0,0,.906.92,4.6,4.6,0,0,0,1.395.225A7.821,7.821,0,0,0,17.87,29.8a1.256,1.256,0,0,0,1.011-.756A1.249,1.249,0,0,1,20,28.117a1.254,1.254,0,0,0,1.029-.714,10.85,10.85,0,0,0,.7-1.75,1.176,1.176,0,0,0-.233-1.2,1.907,1.907,0,0,1-.436-1.795c.071-.3.1-.6.162-.9a12.3,12.3,0,0,1,2.2-5.031.384.384,0,0,0,.063-.432c-.04-.095-.154-.2-.042-.3.086-.079.192.01.286.032a5.153,5.153,0,0,0,1.858.277,6.908,6.908,0,0,0,2.97-1.226C28.91,14.849,28.891,14.723,28.5,14.574ZM12.764,26.883A1.082,1.082,0,1,1,13.845,25.8,1.083,1.083,0,0,1,12.764,26.883Zm-.946-10.341a3.3,3.3,0,0,1-1.758-1.487,2.782,2.782,0,0,1,2.636-.2c1.352.676,1.419,1.42,1.419,1.42A3.425,3.425,0,0,1,11.818,16.542Zm-2.7-3.109s4.055-1.757,6.015,2.163C15.129,15.6,12.358,13.1,9.114,13.433Zm10.07,13.45A1.082,1.082,0,1,1,20.266,25.8,1.082,1.082,0,0,1,19.184,26.883Zm.584-10.355a3.428,3.428,0,0,1-2.3-.271s.067-.743,1.419-1.419a2.779,2.779,0,0,1,2.636.2A3.3,3.3,0,0,1,19.768,16.528Zm-3.311-.947c1.96-3.92,6.015-2.162,6.015-2.162C19.228,13.081,16.457,15.581,16.457,15.581Z" style="fill:#9c04a0"/></svg>