<svg viewBox="0 0 32 32" xmlns="http://www.w3.org/2000/svg"><path d="m16 5.5-10.5 10.5 10.5 10.5 10.5-10.5z" fill="#f68712"/><path d="m2 2 14 3.5-10.5 10.5z" fill="#fab20b"/><path d="m30 2-3.5 14-10.5-10.5z" fill="#f47216"/><path d="m30 30-14-3.5 10.5-10.5z" fill="#f25c19"/><path d="m2 30 3.5-14 10.5 10.5z" fill="#f89c0e"/><path d="m16 5.5-14-3.5h7z" fill="#fbc707"/><path d="m16 5.5 14-3.5h-7z" fill="#fbc707"/><path d="m16 26.5 14 3.5h-7z" fill="#f68712"/><path d="m16 26.5-14 3.5h7z" fill="#f25c19"/><path d="m5.5 16-3.5 14v-7z" fill="#fff200"/><path d="m5.5 16-3.5-14v7z" fill="#fff200"/><g fill="#f1471d"><path d="m26.5 16 3.5-14v7z"/><path d="m26.5 16 3.5 14v-7z"/></g></svg>