<svg xmlns="http://www.w3.org/2000/svg" viewBox="0 0 32 32"><title>file_type_biml</title><path d="M26.211,26.365a2.223,2.223,0,0,0,2.229-2.873l-.358-1.508L26.648,16" style="fill:#c6093b"/><path d="M5.23,16h0v8.651a3.625,3.625,0,0,0,.234,1.3c.062.143.124.286.2.429a3.529,3.529,0,0,0,.437.635,3.139,3.139,0,0,0,.935.714A2.619,2.619,0,0,0,8.192,28H23.7a2.619,2.619,0,0,0,1.154-.27,2.757,2.757,0,0,0,.935-.714,2.48,2.48,0,0,0,.421-.635,2.16,2.16,0,0,0,.2-.429,3.562,3.562,0,0,0,.234-1.3V16H5.23Z" style="fill:#d2d2d2"/><path d="M26.648,16h0l3.117-4.317c.655-.9-.109-1.635-1.668-1.667" style="fill:#c6093b"/><path d="M26.648,16l1.434-5.984.358-1.508a2.223,2.223,0,0,0-2.229-2.873" style="fill:#d2d2d2"/><path d="M26.648,16V7.349a3.625,3.625,0,0,0-.234-1.3c-.063-.143-.125-.286-.2-.429a4.511,4.511,0,0,0-.421-.635,3.139,3.139,0,0,0-.935-.714A2.619,2.619,0,0,0,23.7,4H8.176a2.849,2.849,0,0,0-1.154.254,2.976,2.976,0,0,0-.935.714,3.038,3.038,0,0,0-.436.635,2.16,2.16,0,0,0-.2.429,3.566,3.566,0,0,0-.234,1.3v8.651Q15.946,16.008,26.648,16Z" style="fill:#c6093b"/><path d="M28.082,21.984c1.574-.032,2.322-.762,1.667-1.651L26.648,16h0" style="fill:#d2d2d2"/><path d="M26.648,16l-1.435-5.984-.358-1.508a3.924,3.924,0,0,0-3.648-2.873H5.791A2.223,2.223,0,0,0,3.562,8.508L5.6,16.016" style="fill:#d2d2d2"/><path d="M26.648,16l-1.435,5.984-.358,1.508a3.939,3.939,0,0,1-3.648,2.889H5.775a2.223,2.223,0,0,1-2.229-2.873L3.905,22H4L5.6,16.016" style="fill:#c6093b"/><path d="M26.648,16h0l-3.1-4.317A5.666,5.666,0,0,0,19.4,10.016H3.905c-1.574.032-2.323.762-1.668,1.667L5.339,16h0" style="fill:#c6093b"/><path d="M5.339,16l-3.1,4.333c-.655.905.109,1.635,1.668,1.651H19.4a5.638,5.638,0,0,0,4.147-1.667L26.648,16" style="fill:#d2d2d2"/></svg>