<svg version="1.1" viewBox="0 0 32 32" xmlns="http://www.w3.org/2000/svg"><defs><linearGradient id="c" x1="11.328" x2="90.301" y1="8.203" y2="10.761" gradientTransform="matrix(.15939 0 0 .16254 6.386 6.0386)" gradientUnits="userSpaceOnUse"><stop stop-color="#69F0AE" offset="0"/><stop stop-color="#4FC3F7" offset="1"/></linearGradient><linearGradient id="b" x1="11.328" x2="90.301" y1="8.203" y2="10.761" gradientTransform="matrix(.15939 0 0 .16253 6.715 6.0396)" gradientUnits="userSpaceOnUse"><stop stop-color="#69F0AE" offset="0"/><stop stop-color="#4FC3F7" offset="1"/></linearGradient><linearGradient id="a" x1="11.328" x2="90.301" y1="8.203" y2="10.761" gradientTransform="matrix(.15784 0 0 .16493 6.67 6.5406)" gradientUnits="userSpaceOnUse"><stop stop-color="#69F0AE" offset="0"/><stop stop-color="#4FC3F7" offset="1"/></linearGradient></defs><title>file_type_babel</title><g transform="matrix(2.1596 0 0 2.1596 -15.199 -15.044)"><path d="m15.02 15.707c0-0.53 0.368-1.174 0.82-1.44l3.86-2.257c0.452-0.265 0.82-0.052 0.82 0.479v4.596c0 0.527-0.368 1.17-0.82 1.436l-3.86 2.261c-0.452 0.265-0.82 0.051-0.82-0.479z" fill="url(#c)"/><path d="m8.52 12.489c0-0.53 0.368-0.745 0.82-0.479l3.86 2.258c0.452 0.264 0.82 0.909 0.82 1.44v4.595c0 0.53-0.368 0.744-0.82 0.48l-3.86-2.262c-0.452-0.264-0.82-0.909-0.82-1.44z" fill="url(#b)"/><path d="m9.856 11.363c-0.448-0.27-0.448-0.706 0-0.972l3.821-2.293c0.447-0.27 1.173-0.27 1.62 0l3.888 2.332c0.447 0.268 0.447 0.702 0 0.971l-3.822 2.294c-0.447 0.268-1.173 0.268-1.624 0z" fill="url(#a)"/></g></svg>
