<svg xmlns="http://www.w3.org/2000/svg" viewBox="0 0 32 32"><title>file_type_rust_toolchain</title><path d="M29.991,16.081a.416.416,0,0,0,0-.079.428.428,0,0,0,0-.08.453.453,0,0,0-.029-.074.4.4,0,0,0-.033-.076l-.006-.013a.425.425,0,0,0-.1-.1l-1.176-.728-.034-.343,1.011-.942h0l.005-.009a.414.414,0,0,0,.074-.111l0-.01a.46.46,0,0,0,.024-.11.453.453,0,0,0,.008-.049.4.4,0,0,0-.02-.113c0-.015,0-.03-.009-.044a.507.507,0,0,0-.055-.087.41.41,0,0,0-.035-.05l-.009-.013a.42.42,0,0,0-.12-.08L28.2,12.484l-.1-.334.807-1.121a.422.422,0,0,0-.263-.636l-1.364-.222-.164-.306.573-1.257a.418.418,0,0,0-.235-.544.409.409,0,0,0-.147-.029l-1.383.048L25.7,7.819l.318-1.348a.357.357,0,0,0,0-.073.433.433,0,0,0,0-.072l0-.006a.432.432,0,0,0-.046-.119.354.354,0,0,0-.016-.034.445.445,0,0,0-.07-.074.437.437,0,0,0-.044-.042.446.446,0,0,0-.063-.028.421.421,0,0,0-.091-.036l-.008,0a.45.45,0,0,0-.11,0c-.013,0-.024,0-.037,0L24.184,6.3l-.266-.219L23.967,4.7a.385.385,0,0,0-.016-.069.382.382,0,0,0-.014-.075l0,0a.411.411,0,0,0-.064-.1.352.352,0,0,0-.027-.037.412.412,0,0,0-.074-.052.57.57,0,0,0-.061-.039.4.4,0,0,0-.062-.014.476.476,0,0,0-.1-.018h-.009a.421.421,0,0,0-.127.025l-.016,0-1.257.572-.3-.163L21.61,3.362a.415.415,0,0,0-.041-.091.307.307,0,0,0-.017-.042l0,0a.405.405,0,0,0-.1-.1c-.007-.006-.012-.013-.019-.018a.406.406,0,0,0-.1-.045.414.414,0,0,0-.049-.019,1.711,1.711,0,0,0-.167,0h-.009a.39.39,0,0,0-.1.04.25.25,0,0,0-.038.015l-1.121.8-.333-.1L19.5,3.754l-.464-1.243a.414.414,0,0,0-.334-.24.434.434,0,0,0-.052-.009.4.4,0,0,0-.046.008.422.422,0,0,0-.121.026h0a.143.143,0,0,0-.022.015.417.417,0,0,0-.1.064l-.942,1.012-.338-.032-.728-1.178a.416.416,0,0,0-.242-.16.18.18,0,0,0-.021-.008,1.765,1.765,0,0,0-.168,0,.18.18,0,0,0-.021.008.416.416,0,0,0-.242.16l-.728,1.178-.338.032-.942-1.012a.417.417,0,0,0-.1-.064.143.143,0,0,0-.022-.015h0A.422.422,0,0,0,13.4,2.27a.4.4,0,0,0-.046-.008.434.434,0,0,0-.052.009.414.414,0,0,0-.334.24L12.5,3.754l-.017.045-.333.1-1.121-.8a.25.25,0,0,0-.038-.015.39.39,0,0,0-.1-.04h-.009a1.711,1.711,0,0,0-.167,0,.4.4,0,0,0-.048.019.413.413,0,0,0-.1.045c-.007,0-.012.012-.019.018a.405.405,0,0,0-.1.1l0,0c-.008.013-.01.028-.017.042a.415.415,0,0,0-.041.091l-.222,1.363-.3.163L8.607,4.316l-.016,0a.421.421,0,0,0-.127-.025H8.455a.476.476,0,0,0-.1.018.4.4,0,0,0-.062.014.57.57,0,0,0-.061.039.412.412,0,0,0-.074.052.352.352,0,0,0-.027.037.411.411,0,0,0-.064.1l0,0a.382.382,0,0,0-.014.075.385.385,0,0,0-.016.069L8.082,6.08,7.816,6.3,6.47,5.983c-.013,0-.024,0-.037,0a.45.45,0,0,0-.11,0l-.008,0a.421.421,0,0,0-.091.036.446.446,0,0,0-.063.028.437.437,0,0,0-.044.042.445.445,0,0,0-.07.074.354.354,0,0,0-.016.034.432.432,0,0,0-.046.119l0,.006a.433.433,0,0,0,0,.072.357.357,0,0,0,0,.073L6.3,7.819l-.224.264L4.692,8.035a.409.409,0,0,0-.147.029.418.418,0,0,0-.235.544l.573,1.257-.164.306-1.364.222a.422.422,0,0,0-.263.636L3.9,12.15l-.1.334-1.289.483a.42.42,0,0,0-.12.08l-.009.013a.41.41,0,0,0-.035.05.507.507,0,0,0-.055.087c0,.014,0,.03-.009.044a.44.44,0,0,0-.02.113.417.417,0,0,0,.008.049.45.45,0,0,0,.024.11l0,.01a.414.414,0,0,0,.074.111l0,.009h0l1.011.942-.034.343-1.176.728a.425.425,0,0,0-.1.1l-.006.013a.4.4,0,0,0-.033.076.453.453,0,0,0-.029.074.428.428,0,0,0,0,.08.416.416,0,0,0,0,.079.392.392,0,0,0,.029.074.406.406,0,0,0,.033.077l.006.013a.421.421,0,0,0,.1.1l1.177.729.033.342-1.011.943a.414.414,0,0,0-.081.121l0,.014a.43.43,0,0,0-.016.073.376.376,0,0,0-.014.087.332.332,0,0,0,.011.063.417.417,0,0,0,.02.093.515.515,0,0,0,.037.058.4.4,0,0,0,.054.077l.007.01a.415.415,0,0,0,.119.08l1.294.483.1.334L3.1,20.972a.454.454,0,0,0-.056.135s0,.01,0,.015a.385.385,0,0,0,0,.076.525.525,0,0,0,.063.232.4.4,0,0,0,.057.06.422.422,0,0,0,.057.055l.011.01a.433.433,0,0,0,.133.056l1.364.222.163.305L4.316,23.4a.428.428,0,0,0-.029.142c0,.005,0,.01,0,.015a.413.413,0,0,0,.013.077.434.434,0,0,0,.019.081.427.427,0,0,0,.046.073.413.413,0,0,0,.041.059.452.452,0,0,0,.078.055.41.41,0,0,0,.056.036l.014.009a.438.438,0,0,0,.143.028l1.382-.048.217.264-.238,1.026-.076.324a.364.364,0,0,0,0,.081.311.311,0,0,0,0,.061l0,0a.418.418,0,0,0,.337.341.447.447,0,0,0,.146,0l1.345-.32.266.219L8.034,27.3a.417.417,0,0,0,.244.367l.012.008a.383.383,0,0,0,.089.02.406.406,0,0,0,.076.014h.009a.426.426,0,0,0,.116-.023c.01,0,.02,0,.03,0l1.255-.572.3.163.222,1.362a.41.41,0,0,0,.056.124l0,.01h0a.416.416,0,0,0,.11.115l.006.006a.465.465,0,0,0,.114.05.279.279,0,0,0,.037.014.355.355,0,0,0,.073,0,.343.343,0,0,0,.1,0h.007a.379.379,0,0,0,.084-.034.308.308,0,0,0,.053-.021L12.15,28.1l.332.1.483,1.292a.393.393,0,0,0,.068.1c.006.007.009.016.015.023h0a.435.435,0,0,0,.118.083c.007,0,.013.009.021.012a.424.424,0,0,0,.1.023.4.4,0,0,0,.06.01.525.525,0,0,0,.055-.009.418.418,0,0,0,.11-.025h0a.417.417,0,0,0,.056-.037.434.434,0,0,0,.068-.043l.942-1.01.34.033.728,1.177a.38.38,0,0,0,.065.062c.014.012.024.027.039.038l0,0a.433.433,0,0,0,.114.051c.014,0,.027.012.041.015a1.723,1.723,0,0,0,.166,0c.014,0,.027-.011.041-.015a.433.433,0,0,0,.114-.051l0,0c.015-.011.025-.026.039-.038a.38.38,0,0,0,.065-.062l.728-1.177.34-.033.942,1.01a.434.434,0,0,0,.068.043.417.417,0,0,0,.056.037h0a.418.418,0,0,0,.11.025.525.525,0,0,0,.055.009.4.4,0,0,0,.06-.01.424.424,0,0,0,.1-.023c.008,0,.014-.009.021-.012a.435.435,0,0,0,.118-.083h0c.006-.007.009-.016.015-.023a.393.393,0,0,0,.068-.1l.483-1.292.332-.1,1.119.806a.308.308,0,0,0,.053.021.379.379,0,0,0,.084.034h.007a.343.343,0,0,0,.1,0,.355.355,0,0,0,.073,0,.279.279,0,0,0,.037-.014.465.465,0,0,0,.114-.05l.006-.006a.416.416,0,0,0,.11-.115h0l0-.01a.41.41,0,0,0,.056-.124l.222-1.362.3-.163,1.255.572c.01,0,.02,0,.03,0a.426.426,0,0,0,.116.023h.009a.406.406,0,0,0,.076-.014.383.383,0,0,0,.089-.02l.012-.008a.417.417,0,0,0,.244-.367l-.049-1.382.266-.219,1.345.32a.447.447,0,0,0,.146,0,.418.418,0,0,0,.337-.341l0,0a.3.3,0,0,0,0-.06.373.373,0,0,0,0-.082l-.076-.324L25.7,24.186l.217-.264,1.382.048a.438.438,0,0,0,.143-.028l.014-.009a.347.347,0,0,0,.057-.037.425.425,0,0,0,.077-.054.489.489,0,0,0,.041-.06.419.419,0,0,0,.046-.072.434.434,0,0,0,.019-.081.413.413,0,0,0,.013-.077s0-.01,0-.015a.428.428,0,0,0-.029-.142l-.573-1.257.163-.305,1.364-.222a.433.433,0,0,0,.133-.056l.011-.01a.422.422,0,0,0,.057-.055.4.4,0,0,0,.057-.06.33.33,0,0,0,.063-.232.385.385,0,0,0,0-.076s0-.01,0-.015a.454.454,0,0,0-.056-.135L28.1,19.853l.1-.334,1.294-.483a.415.415,0,0,0,.119-.08l.007-.01a.4.4,0,0,0,.054-.077.515.515,0,0,0,.037-.058.417.417,0,0,0,.02-.093.332.332,0,0,0,.011-.063.376.376,0,0,0-.014-.087.43.43,0,0,0-.016-.073l0-.014a.414.414,0,0,0-.081-.121l-1.011-.943.033-.342,1.177-.729a.421.421,0,0,0,.1-.1l.006-.013a.406.406,0,0,0,.033-.077A.392.392,0,0,0,29.991,16.081Zm-3.785.592a10.151,10.151,0,0,1-.552,2.607c-.035.1-.064.206-.1.306a10.162,10.162,0,0,1-.476,1.039c-.066.128-.137.254-.209.379q-.242.42-.52.815c-.041.058-.077.12-.119.178h.018c-.184.249-.395.476-.6.708-.1.111-.188.233-.293.34l-1.717-.369h0a.9.9,0,0,0-.987.624l-.417,1.943c-.16.073-.325.132-.488.2s-.333.139-.5.2-.361.1-.542.151-.346.1-.521.141-.366.061-.549.091-.355.064-.534.084-.366.022-.549.032-.362.026-.543.026-.362-.017-.543-.026-.367-.013-.549-.032-.356-.055-.534-.084-.367-.052-.549-.091-.348-.093-.521-.141-.364-.092-.542-.151-.336-.13-.5-.2-.328-.123-.488-.2L11.353,23.3a.9.9,0,0,0-.987-.624h0l-1.717.369c-.105-.107-.193-.229-.293-.34-.206-.232-.417-.459-.6-.708h.018c-.042-.058-.078-.12-.119-.178q-.279-.394-.52-.815c-.072-.125-.143-.251-.209-.379a10.162,10.162,0,0,1-.476-1.039c-.038-.1-.067-.2-.1-.306a10.151,10.151,0,0,1-.552-2.607h-.01c-.013-.174-.016-.349-.019-.523,0-.153-.01-.306-.007-.459.006-.267.021-.533.048-.8l1.885-.837a.76.76,0,0,0,.386-1l-.963-2.174A10.216,10.216,0,0,1,8.4,9.079H8.366c.1-.108.2-.208.3-.312.125-.127.249-.255.38-.376.116-.107.236-.21.357-.312q.2-.171.417-.332c.118-.09.236-.18.357-.264.2-.141.415-.273.629-.4.13-.077.263-.15.4-.221.207-.11.416-.215.631-.311.12-.053.241-.1.363-.15q.3-.119.6-.218c.115-.039.23-.078.347-.112.3-.088.614-.167.929-.227l.024-.006,1.282,1.344A.746.746,0,0,0,16,7.4a.746.746,0,0,0,.618-.221L17.9,5.839l.024.006c.315.06.624.139.929.227.117.034.232.073.347.112q.3.1.6.218c.122.049.243.1.363.15.215.1.425.2.632.312.133.07.265.142.394.219.215.126.426.258.631.4.121.084.239.174.357.264q.213.161.417.332c.121.1.241.205.357.312s.255.249.38.376c.1.1.2.2.3.312H23.6a10.216,10.216,0,0,1,1.285,1.8l-.963,2.174a.76.76,0,0,0,.386,1l1.885.837c.027.266.042.532.048.8,0,.154,0,.309-.007.463,0,.173-.006.346-.019.519Zm-4,8.723a.826.826,0,0,1-.369-1.568.817.817,0,0,1,.28-.057.826.826,0,0,1,.368,1.569A.811.811,0,0,1,22.211,25.4ZM9.046,24.6a.833.833,0,0,1,.832-.832.751.751,0,0,1,.743.793.831.831,0,0,1-.832.832.811.811,0,0,1-.279-.056A.826.826,0,0,1,9.046,24.6ZM6.49,12.159l0-.011a.823.823,0,0,1,.448.726.833.833,0,0,1-.832.832.862.862,0,0,1-.091-.018l0-.023a.824.824,0,0,1-.289-.06.82.82,0,0,1,.629-1.513A1.182,1.182,0,0,1,6.49,12.159Zm10.3-6.86A.789.789,0,1,1,16,4.476.827.827,0,0,1,16.788,5.3Zm8.722,6.86a1.182,1.182,0,0,1,.127-.067.818.818,0,0,1,.252-.05.813.813,0,1,1,.088,1.623l0,.023a.862.862,0,0,1-.091.018.833.833,0,0,1-.832-.832.823.823,0,0,1,.448-.726Z" style="fill:#a04f12"/><path d="M25.02,16.845v.483c0,1.136-.641,1.384-1.2,1.447-.535.06-1.128-.224-1.2-.551a3.618,3.618,0,0,0-1.671-2.809c1.03-.654,2.1-1.619,2.1-2.911a3.3,3.3,0,0,0-1.608-2.7,4.559,4.559,0,0,0-2.2-.724H8.4a9.689,9.689,0,0,0-.683.855L7.7,9.953a10.856,10.856,0,0,0-.589.928l.575,1.3H9.073v6.546H6.189c.054.184.094.375.157.555.035.1.064.206.1.306a10.162,10.162,0,0,0,.476,1.039c.021.041.045.081.067.121.047.087.093.173.142.258.161.28.333.552.519.814.042.059.078.121.12.179h8.357c.095,0,.158-.017.158-.1V18.93c0-.086-.063-.1-.158-.1h-2.45V16.949h2.649a1.665,1.665,0,0,1,1.629,1.412c.105.413.336,1.757.494,2.187.157.483.8,1.448,1.482,1.448h4.3c.042-.057.078-.119.119-.176.131-.186.248-.382.367-.576.049-.081.106-.158.153-.24.072-.125.143-.251.209-.379a10.162,10.162,0,0,0,.476-1.039c.038-.1.067-.2.1-.306h0a10.944,10.944,0,0,0,.357-1.264,10.245,10.245,0,0,0,.2-1.343H25.168C25.063,16.673,25.02,16.742,25.02,16.845Zm-8.135-2.67H13.679V12.246h3.458c.179,0,1.261.206,1.261,1.016C18.4,13.934,17.568,14.175,16.885,14.175Z" style="fill:#e43717"/></svg>