<svg viewBox="0 0 32 32" xmlns="http://www.w3.org/2000/svg" xmlns:xlink="http://www.w3.org/1999/xlink"><linearGradient id="a" gradientTransform="matrix(.427 0 0 .427 -62.523 -666.646)" gradientUnits="userSpaceOnUse" x1="185.455" x2="181.955" y1="1601.641" y2="1630.224"><stop offset="0" stop-color="#fff"/><stop offset="1" stop-color="#fff" stop-opacity="0"/></linearGradient><linearGradient id="b" x1="176.136" x2="172.636" xlink:href="#a" y1="1600.5" y2="1629.083"/><g fill="#b03931"><path d="m3.978 15.462-.009-6.953a.588.588 0 0 1 .531-.562.658.658 0 0 1 .076 0l6.074-.009a15.7 15.7 0 0 1 6.067.95 8.9 8.9 0 0 1 2.244 1.359 4.469 4.469 0 0 1 2.946-1.083 4.11 4.11 0 0 1 4.276 3.92 4.11 4.11 0 0 1 -4.276 3.916c-.089 0-.177-.008-.265-.012a6.617 6.617 0 0 1 -.232.953 85.383 85.383 0 0 1 8.59 2.6v-18.541h-28v13.4q.992.02 1.978.062zm22.8-7.944a1.32 1.32 0 0 1 1.374 1.259 1.379 1.379 0 0 1 -2.747 0 1.32 1.32 0 0 1 1.375-1.26z"/><path d="m17.861 15.787a4.114 4.114 0 0 0 -1.748-3.458 5.814 5.814 0 0 0 -1.508-.822 7.354 7.354 0 0 0 -1.629-.438 21.629 21.629 0 0 0 -2.588-.1h-2.619l.006 4.737a88.827 88.827 0 0 1 9.91 1.408 4.919 4.919 0 0 0 .176-1.327z"/><path d="m20.993 18.979a7.906 7.906 0 0 1 -2.128 2.582 9.739 9.739 0 0 1 -3.256 1.71 11.558 11.558 0 0 1 -1.971.472h-.015a31.857 31.857 0 0 1 -3.326.111l-5.625.022a.616.616 0 0 1 -.686-.681l-.01-7.734q-.984-.041-1.976-.061v14.6h28v-9.456a85.383 85.383 0 0 0 -8.59-2.6 6.985 6.985 0 0 1 -.417 1.035z"/></g><path d="m20.993 18.979a7.906 7.906 0 0 1 -2.128 2.582 9.739 9.739 0 0 1 -3.256 1.71 11.558 11.558 0 0 1 -1.971.472h-.015a31.857 31.857 0 0 1 -3.326.111l-5.625.022a.616.616 0 0 1 -.686-.681l-.01-7.734q-.984-.041-1.976-.061v14.6h28v-9.456a85.383 85.383 0 0 0 -8.59-2.6 6.985 6.985 0 0 1 -.417 1.035z" fill="url(#a)" opacity=".3"/><path d="m10.477 20.835a16.014 16.014 0 0 0 2.877-.2 7.633 7.633 0 0 0 1.628-.5 5.628 5.628 0 0 0 1.187-.748 4.457 4.457 0 0 0 1.518-2.271 88.691 88.691 0 0 0 -9.91-1.408l.006 5.133z" fill="#b03931"/><path d="m10.477 20.835a16.014 16.014 0 0 0 2.877-.2 7.633 7.633 0 0 0 1.628-.5 5.628 5.628 0 0 0 1.187-.748 4.457 4.457 0 0 0 1.518-2.271 88.691 88.691 0 0 0 -9.91-1.408l.006 5.133z" fill="url(#b)" opacity=".3"/><path d="m20.383 11.746a6.993 6.993 0 0 1 1.36 4.148 6.618 6.618 0 0 1 -.1 1.1c.088 0 .176.012.265.012a4.11 4.11 0 0 0 4.276-3.92 4.11 4.11 0 0 0 -4.276-3.92 4.47 4.47 0 0 0 -2.946 1.083 8.123 8.123 0 0 1 1.421 1.497z" fill="#fff"/><ellipse cx="26.78" cy="8.777" fill="#fff" rx="1.374" ry="1.259"/><path d="m4.673 23.877 5.625-.022a31.871 31.871 0 0 0 3.326-.111h.015a11.49 11.49 0 0 0 1.971-.472 9.739 9.739 0 0 0 3.256-1.71 7.906 7.906 0 0 0 2.128-2.582 6.985 6.985 0 0 0 .417-1.034 7.056 7.056 0 0 0 .332-2.051 6.992 6.992 0 0 0 -1.36-4.148 8.1 8.1 0 0 0 -1.421-1.5 8.878 8.878 0 0 0 -2.244-1.359 15.686 15.686 0 0 0 -6.067-.95l-6.074.009a.658.658 0 0 0 -.076 0 .588.588 0 0 0 -.532.562l.009 6.952.01 7.734a.616.616 0 0 0 .685.682zm3.1-12.908h2.619a21.623 21.623 0 0 1 2.588.1 7.354 7.354 0 0 1 1.629.438 5.814 5.814 0 0 1 1.508.822 4.116 4.116 0 0 1 1.748 3.458 4.905 4.905 0 0 1 -.175 1.327 4.457 4.457 0 0 1 -1.518 2.271 5.613 5.613 0 0 1 -1.187.748 7.666 7.666 0 0 1 -1.628.5 16.009 16.009 0 0 1 -2.877.2h-2.694l-.006-5.133z" fill="#fff"/></svg>