<svg width="32" height="32" viewBox="0 0 32 32" fill="none" xmlns="http://www.w3.org/2000/svg"><title>file_type_astro</title><path fill-rule="evenodd" clip-rule="evenodd" d="M5.90399 18.8466C5.48799 20.176 5.28132 20.84 5.33199 21.4706C5.37999 22.0266 5.56932 22.5613 5.88266 23.024C6.23732 23.5466 6.81599 23.9333 7.97599 24.7053L13.0947 28.1186C14.128 28.8066 14.6453 29.152 15.204 29.2866C15.6973 29.4066 16.2133 29.4066 16.708 29.2906C17.268 29.1573 17.788 28.8146 18.8253 28.1306L24 24.7106C25.1707 23.936 25.7573 23.5506 26.1173 23.0226C26.4327 22.5581 26.622 22.0196 26.6667 21.46C26.7187 20.824 26.504 20.156 26.08 18.8173L21.5467 4.55062C21.3267 3.85729 21.2173 3.51195 21.0067 3.25462C20.8211 3.02856 20.5811 2.85331 20.3093 2.74529C20.0027 2.62262 19.64 2.62262 18.9133 2.62262H13.0053C12.276 2.62262 11.9093 2.62262 11.6013 2.74795C11.3286 2.85622 11.0881 3.03248 10.9027 3.25995C10.692 3.51862 10.584 3.86662 10.368 4.56262L5.90399 18.848V18.8466ZM19.144 5.65062C19.3173 5.86662 19.408 6.16129 19.5853 6.74395L23.4773 19.528C22.0152 18.77 20.4461 18.2394 18.824 17.9546L16.2907 9.39062C16.2698 9.32307 16.2279 9.26396 16.171 9.22198C16.1142 9.17999 16.0453 9.15734 15.9747 9.15734C15.904 9.15734 15.8351 9.17999 15.7783 9.22198C15.7214 9.26396 15.6795 9.32307 15.6587 9.39062L13.1547 17.948C11.5253 18.2321 9.9492 18.7645 8.48132 19.5266L12.3933 6.74262C12.5707 6.15729 12.66 5.86529 12.8347 5.64929C12.9893 5.45862 13.1907 5.31062 13.4173 5.21862C13.676 5.11462 13.9813 5.11462 14.592 5.11462H17.3853C17.996 5.11462 18.3027 5.11462 18.5613 5.21862C18.788 5.31062 18.988 5.45862 19.144 5.65062V5.65062ZM16.1267 21.06C17.6013 21.06 18.8827 20.6866 19.524 20.1373C19.638 20.4961 19.6784 20.8742 19.6429 21.249C19.6074 21.6238 19.4967 21.9876 19.3173 22.3186C18.9067 23.0786 18.3107 23.456 17.7733 23.796C17.0987 24.224 16.5187 24.5933 16.5187 25.5826C16.5187 25.9093 16.5933 26.2213 16.728 26.4973C16.2736 26.3084 15.8853 25.9891 15.6122 25.5798C15.3391 25.1705 15.1933 24.6894 15.1933 24.1973V24.136C15.1933 23.4533 15.1947 22.612 14.2307 22.612C14.0967 22.6118 13.964 22.638 13.8402 22.6891C13.7164 22.7402 13.6039 22.8152 13.509 22.9098C13.4142 23.0044 13.3389 23.1167 13.2875 23.2404C13.2361 23.3641 13.2095 23.4967 13.2093 23.6306C12.1267 22.5466 12.2213 20.9866 12.2213 20.9866C12.2213 20.668 12.2533 20.172 12.396 19.7386C12.7987 20.496 14.316 21.0586 16.1267 21.0586V21.06Z" fill="#FF5D01"/></svg>
