<svg fill="none" viewBox="0 0 32 32" xmlns="http://www.w3.org/2000/svg">
<g clip-path="url(#b)">
<path d="M30 30V7.63281L2 10.3672V30H30Z" fill="#84421D"/>
<path d="m30 30v-8.7227c0-2.4882-3.0624-8.9755-5.6601-8.5859-3.2813 0.4922-8.0391 5.5781-7.7656 12.988 0.0871 2.3618 3.2539 4.3203 4.8398 4.3203h8.5859z" fill="#8A421E"/>
<path d="m25.742 10.477c-0.0624-0.51957 0.9889-1.3946 0.934-1.9141l3.3239 0.875v7.9844c-1.2637-4.7305-4.1563-5.5235-4.2579-6.9453z" fill="#815021"/>
<path d="m30 5.4023c-5.8057-2.6347-8.1737-3.1319-9.5156-2.3085-1.3419 0.85079 5.3804 4.9981 6.0651 5.4372 0.6846 0.43912 2.0286 0.9065 3.4505 1.0706v-4.1993z" fill="#B76F29"/>
<path d="m20.484 3.0938-18.484 7.1914v18.676c5.0039-0.082 8.3125-3.0898 10.5-7.9297 2.2148-5.1406 5.4141-6.7141 8.8594-8.75 3.6094-2.1328 5.414-2.707 5.414-4.3476 0-0.71093-1.2344-1.5967-3.3086-2.5976-2.7604-1.3321-3.2812-1.9414-2.9804-2.2422z" fill="#B0A788"/>
<mask id="a" x="2" y="3" width="25" height="26" style="mask-type:alpha" maskUnits="userSpaceOnUse">
<path d="m20.484 3.0938-18.484 7.1914v18.676c5.0039-0.082 8.3125-3.0898 10.5-7.9297 2.2148-5.1406 5.4141-6.7141 8.8594-8.75 3.6094-2.1328 5.414-2.707 5.414-4.3476 0-0.71093-1.2344-1.5967-3.3086-2.5976-2.7604-1.3321-3.2812-1.9414-2.9804-2.2422z" fill="#B0A788"/>
</mask>
<g mask="url(#a)">
<path d="m11.898 16.164c3.1172-2.9532 6.5352-2.5704 7.7383-2.2696 0 15.34 0 15.34-17.691 15.34v-8.0118c0.09115-0.0455 0.6722-0.6603 2.8438-1.5859 1.668-0.7109 4.4297-0.934 7.1093-3.4726z" fill="#ACA486"/>
</g>
</g>
<defs>
<clipPath id="b">
<rect transform="translate(2 2)" width="28" height="28" fill="#fff"/>
</clipPath>
</defs>
</svg>
