<svg xmlns="http://www.w3.org/2000/svg" viewBox="0 0 32 32"><title>Artboard 1</title><path d="M29,17c0,5.65-5.82,10.23-13,10.23S3,22.61,3,17c0-3.5,2.24-6.6,5.66-8.44S14.21,4.81,16,4.81s3.32,1.54,7.34,3.71C26.76,10.36,29,13.46,29,17Z" style="fill:#fbf0df"/><path d="M16,27.65C23.32,27.65,29.46,23,29.46,17c0-3.72-2.37-7-5.89-8.85-1.39-.75-2.46-1.41-3.37-2l-1.13-.69A6.14,6.14,0,0,0,16,4.35a6.88,6.88,0,0,0-3.3,1.23c-.42.24-.86.51-1.32.8-.87.54-1.83,1.13-3,1.73C4.91,10,2.54,13.24,2.54,17,2.54,23,8.68,27.65,16,27.65Z" style="fill:none;stroke:#000"/><path d="M14.93,5.75a6.09,6.09,0,0,1-2.09,4.62c-.1.09,0,.27.11.22,1.25-.49,2.94-1.94,2.23-4.88C15.15,5.56,14.93,5.6,14.93,5.75Zm.85,0a6,6,0,0,1,.57,5c0,.13.12.24.21.13.83-1,1.54-3.11-.59-5.31C15.87,5.46,15.7,5.61,15.78,5.74Zm1-.06a6.09,6.09,0,0,1,2.53,4.38c0,.14.21.17.24,0,.34-1.3.15-3.51-2.66-4.66C16.77,5.39,16.68,5.59,16.8,5.68ZM9.94,9.55a6.27,6.27,0,0,0,3.89-3.33c.07-.13.28-.08.25.07-.64,3-2.79,3.59-4.13,3.51C9.81,9.79,9.81,9.59,9.94,9.55Z" style="fill:#ccbea7;fill-rule:evenodd"/><path d="M26.08,26.79l.67-.67c3.13.1,3.17,0,3.31-.33l.86-2.09.06-.2-.07-.17c0-.1-.15-.37-2.1-2.23v-1c2.25-2.16,2.2-2.27,2.07-2.59L30,15.42c-.13-.32-.18-.44-3.28-.36l-.67-.7A15.13,15.13,0,0,0,26,11.28l-.09-.2-2.23-1c-.33-.15-.44-.2-2.55,2.09l-.94,0C18,9.87,17.89,9.91,17.57,10l-2.08.84c-.32.13-.43.18-.31,3.33l-.67.66c-3.12-.1-3.17,0-3.3.33l-.86,2.1-.07.2.07.17c0,.09.14.36,2.1,2.22v1c-2.25,2.17-2.2,2.28-2.07,2.6l.85,2.11c.13.33.18.44,3.28.36l.67.7a15.1,15.1,0,0,0,.1,3.08l.09.2,2.24,1c.33.13.44.18,2.54-2.1h1c2.17,2.31,2.28,2.27,2.6,2.14l2.07-.83C26.1,30,26.21,29.93,26.08,26.79Zm-8.9-4.89A3.72,3.72,0,1,1,22.05,24a3.77,3.77,0,0,1-4.87-2.12Z" style="fill:#40535b"/></svg>