<svg viewBox="0 0 32 32" xmlns="http://www.w3.org/2000/svg"><path d="m5.902 27.201-2.246-25.201h24.688l-2.249 25.197-10.11 2.803z" fill="#1572b6"/><path d="m16 27.858 8.17-2.265 1.922-21.532h-10.092z" fill="#33a9dc"/><path d="m7.347 14.714c2.254 0 2.572-.913 2.572-1.734a10.229 10.229 0 0 0 -.256-1.966 10.236 10.236 0 0 1 -.253-1.945c-.001-2.156 1.904-3.069 4.603-3.069h.667v1.289h-.571c-1.874 0-2.507.749-2.507 2.014a7.538 7.538 0 0 0 .222 1.663 8.183 8.183 0 0 1 .222 1.779c.031 1.5-.858 2.248-2.288 2.531v.046a2.4 2.4 0 0 1 2.288 2.554 7.98 7.98 0 0 1 -.222 1.779 7.74 7.74 0 0 0 -.222 1.688c0 1.31.729 2.037 2.507 2.037h.571v1.287h-.667c-2.634 0-4.6-.843-4.6-3.208a9.964 9.964 0 0 1 .253-1.92 9.565 9.565 0 0 0 .256-1.9c0-.727-.318-1.734-2.572-1.734z" fill="#ebebeb"/><path d="m24.68 15.906c-2.254 0-2.572 1.007-2.572 1.733a9.752 9.752 0 0 0 .253 1.9 9.788 9.788 0 0 1 .256 1.92c0 2.365-2 3.209-4.6 3.209h-.667v-1.29h.54c1.778-.023 2.538-.727 2.538-2.037a10.532 10.532 0 0 0 -.222-1.688 7.96 7.96 0 0 1 -.253-1.779 2.445 2.445 0 0 1 2.285-2.553v-.046a2.44 2.44 0 0 1 -2.285-2.53 8.189 8.189 0 0 1 .253-1.779 10.266 10.266 0 0 0 .219-1.666c0-1.264-.667-1.991-2.507-2.014h-.571v-1.286h.636c2.7 0 4.635.913 4.635 3.068a10.035 10.035 0 0 1 -.256 1.945 10.43 10.43 0 0 0 -.253 1.966c0 .82.318 1.733 2.572 1.733z" fill="#fff"/></svg>