<svg xmlns="http://www.w3.org/2000/svg" viewBox="0 0 32 32"><title>file_type_vueconfig</title><path d="M24.4,3.925H30L16,28.075,2,3.925H12.71L16,9.525l3.22-5.6Z" style="fill:#41b883"/><path d="M2,3.925l14,24.15L30,3.925H24.4L16,18.415,7.53,3.925Z" style="fill:#41b883"/><path d="M7.53,3.925,16,18.485l8.4-14.56H19.22L16,9.525l-3.29-5.6Z" style="fill:#35495e"/><path d="M26.684,27.192l.456-.447c2.112.068,2.144-.005,2.237-.219l.58-1.393L30,25l-.047-.115c-.025-.061-.1-.243-1.42-1.483v-.652c1.521-1.445,1.489-1.519,1.4-1.73l-.577-1.407c-.087-.211-.12-.294-2.216-.237l-.457-.465a10,10,0,0,0-.071-2.053l-.059-.132-1.508-.65c-.222-.1-.3-.136-1.724,1.393l-.64-.009c-1.466-1.543-1.535-1.515-1.755-1.428l-1.4.559c-.219.088-.3.119-.212,2.219l-.453.445c-2.11-.068-2.142.006-2.234.219l-.581,1.393L16,21l.048.116c.025.06.1.24,1.419,1.481v.65c-1.521,1.445-1.488,1.519-1.4,1.731l.577,1.409c.089.215.12.292,2.216.238l.456.467a9.967,9.967,0,0,0,.07,2.05l.058.133,1.518.654c.221.091.3.124,1.717-1.4l.64.008c1.468,1.545,1.543,1.515,1.757,1.43l1.4-.558C26.7,29.323,26.773,29.293,26.684,27.192ZM20.671,23.93a2.469,2.469,0,0,1,1.449-3.2,2.525,2.525,0,0,1,3.246,1.429,2.467,2.467,0,0,1-1.405,3.184A2.554,2.554,0,0,1,20.671,23.93Z" style="fill:#99b8c4"/></svg>