<svg id="Layer_1" data-name="Layer 1" xmlns="http://www.w3.org/2000/svg" viewBox="0 0 32 32"><rect x="4.91" y="4.52" width="22.52" height="22.52" transform="translate(-3.26 27.32) rotate(-75)" style="fill:#00a2ff"/><rect x="21.5" y="9.15" width="4.5" height="4.5" transform="translate(6.59 31.4) rotate(-75)" style="fill:#fff"/><path d="M6.77,21.34l2.75.73-.17.63-3.52-.94L7.39,16l.76.2Zm5.93,1.8a1.6,1.6,0,0,1-1.39.17,1.4,1.4,0,0,1-1-.68,1.77,1.77,0,0,1,0-1.28l.75-2.81.74.2-.75,2.78c-.18.66,0,1.05.53,1.2a1.15,1.15,0,0,0,1.3-.33l.84-3.14.73.2-1.15,4.31-.7-.19Zm4.39,1.63a1.67,1.67,0,0,1,0-.48,1.71,1.71,0,0,1-1.37.21,1.64,1.64,0,0,1-1-.64,1.21,1.21,0,0,1-.16-1,1.23,1.23,0,0,1,.79-.9,2.44,2.44,0,0,1,1.54,0l.72.19.09-.34a.84.84,0,0,0-.07-.67.94.94,0,0,0-.62-.42,1.07,1.07,0,0,0-.71,0,.59.59,0,0,0-.4.41l-.74-.2a1.07,1.07,0,0,1,.39-.56,1.58,1.58,0,0,1,.75-.31,2.17,2.17,0,0,1,.91.05,1.71,1.71,0,0,1,1.07.69A1.35,1.35,0,0,1,18.51,22l-.53,2a2.62,2.62,0,0,0-.1,1l0,.06ZM16,23.89a1.28,1.28,0,0,0,.7,0,1.13,1.13,0,0,0,.58-.34l.24-.89L17,22.5c-.9-.24-1.43-.1-1.57.43a.69.69,0,0,0,.09.6A1,1,0,0,0,16,23.89Zm5.62,1.65a1.62,1.62,0,0,1-1.4.16A1.4,1.4,0,0,1,19.3,25a1.77,1.77,0,0,1,0-1.28l.75-2.8.73.19L20,23.92c-.18.65,0,1,.53,1.19a1.14,1.14,0,0,0,1.29-.33l.84-3.13.74.2-1.15,4.31L21.54,26Z" style="fill:#fff"/></svg>