<svg xmlns="http://www.w3.org/2000/svg" viewBox="0 0 32 32"><title>file_type_reason_interface</title><polyline points="2 2 30 2 30 30 2 30 2 2" style="fill:#DD4B39"/><path style="fill:#FFFFFF" d="M13.408,23.733c1.161-0.599,1.791-1.712,1.791-3.224c0-2.225-1.519-3.509-4.185-3.509H6.5v10h2.623v-2.768	h1.949L12.534,27H15.5L13.408,23.733z M11.029,22.15H9.123v-3.067h1.906c1.06,0,1.677,0.528,1.677,1.512	C12.705,21.608,12.089,22.15,11.029,22.15z M16.5,17h7.858v2.083H19.1v1.868h4.746v2.069L19.1,23.034v1.883h5.4V27h-8V17z M25.5,27	V17h3v10H25.5z"/></svg>