<svg viewBox="0 0 32 32" xmlns="http://www.w3.org/2000/svg"><path d="m7.39 27.464h-2.422q-.561-1.151-1.016-2.364a21.746 21.746 0 0 1 -.785-2.618 24.177 24.177 0 0 1 -.488-2.9 30.77 30.77 0 0 1 -.172-3.312 29.46 29.46 0 0 1 .178-3.4 27.087 27.087 0 0 1 .475-2.789 20.648 20.648 0 0 1 .772-2.595q.462-1.229 1.036-2.413h2.422v.33a15.312 15.312 0 0 0 -1.023 1.89 18.265 18.265 0 0 0 -.9 2.458 23.094 23.094 0 0 0 -.647 3 24.01 24.01 0 0 0 -.244 3.517 23.936 23.936 0 0 0 .237 3.528 23.767 23.767 0 0 0 .654 2.994 18.625 18.625 0 0 0 .89 2.435 14.494 14.494 0 0 0 1.03 1.913z" fill="#a00"/><path d="m29.169 16.264a29.746 29.746 0 0 1 -.178 3.312 23.94 23.94 0 0 1 -.482 2.9 21.389 21.389 0 0 1 -.785 2.618q-.454 1.218-1.016 2.368h-2.421v-.33a14.7 14.7 0 0 0 1.029-1.9 17.511 17.511 0 0 0 .891-2.447 22.932 22.932 0 0 0 .646-2.994 23.211 23.211 0 0 0 .245-3.528 23.441 23.441 0 0 0 -.251-3.517 22.491 22.491 0 0 0 -.64-3 17.693 17.693 0 0 0 -.9-2.458 14.924 14.924 0 0 0 -1.016-1.89v-.33h2.421q.575 1.183 1.03 2.413a20 20 0 0 1 .778 2.595 25.862 25.862 0 0 1 .469 2.789 28.523 28.523 0 0 1 .184 3.4z" fill="#a00"/><g fill="#c11"><path d="m9.289 14.05a1.98 1.98 0 0 1 -1.489-.622 2.2 2.2 0 0 1 -.595-1.562 2.081 2.081 0 0 1 2.141-2.166 1.978 1.978 0 0 1 1.512.622 2.123 2.123 0 0 1 .6 1.548 2.138 2.138 0 0 1 -.607 1.575 2.083 2.083 0 0 1 -1.562.605zm0 9.686a1.955 1.955 0 0 1 -1.489-.636 2.2 2.2 0 0 1 -.595-1.561 2.081 2.081 0 0 1 2.141-2.171 1.981 1.981 0 0 1 1.512.622 2.124 2.124 0 0 1 .6 1.549 2.183 2.183 0 0 1 -.607 1.588 2.086 2.086 0 0 1 -1.562.609z"/><path d="m23.8 23.405h-3.424v-1.945h-.046a3.752 3.752 0 0 1 -3.493 2.276 3.413 3.413 0 0 1 -2.692-1.111 4.411 4.411 0 0 1 -.973-2.991q0-3.944 4.043-4.552l3.184-.49q0-2.223-2.085-2.223a6.471 6.471 0 0 0 -3.985 1.442v-3.149a8.163 8.163 0 0 1 2.061-.794 9.567 9.567 0 0 1 2.394-.344q5.016 0 5.017 5.783zm-3.4-5.505v-.913l-2.13.318q-1.764.264-1.764 1.839a1.675 1.675 0 0 0 .424 1.178 1.549 1.549 0 0 0 1.168.45 2.026 2.026 0 0 0 1.661-.807 3.254 3.254 0 0 0 .641-2.065z"/></g></svg>