<svg viewBox="0 0 32 32" xmlns="http://www.w3.org/2000/svg"><path d="m16.043 2 7.314 4.249.001 7.371 6.319 3.642v8.64l-7.236 4.098-6.398-3.632-6.397 3.632-7.323-4.182v-8.556l6.34-3.623.009-7.38z" fill="#666"/><path d="m16.019 3.07v7.399l-6.398-3.7" fill="#cde"/><path d="m22.417 6.769-6.398 3.7v-7.399" fill="#b2cde5"/><path d="m22.417 6.769v7.4l-6.398-3.7" fill="#3379ba"/><path d="m9.621 6.769v7.4l6.398-3.7" fill="#0057a9"/><path d="m16.019 10.469v7.4l-6.398-3.7" fill="#ccc"/><path d="m16.022 10.469-.003 7.4 6.398-3.697" fill="#e5e5e5"/><path d="m22.417 14.169v7.4l-6.398-3.7" fill="#4c4c4c"/><path d="m9.621 14.169v7.4l6.398-3.7"/><path d="m16.019 17.869v7.4l-6.398-3.7" fill="#191919"/><path d="m16.022 17.869-.003 7.4 6.398-3.697" fill="#666"/><path d="m9.621 14.169v7.4l-6.397-3.7" fill="#cde"/><path d="m3.224 17.869v7.4l6.397-3.7" fill="#0057a9"/><path d="m9.621 21.569v7.4l-6.397-3.7" fill="#3379ba"/><path d="m9.624 21.569-.003 7.4 6.398-3.697" fill="#4c89c3"/><path d="m28.815 17.872-6.398 3.697.003-7.4" fill="#b2cde5"/><path d="m28.815 17.869v7.4l-6.398-3.7" fill="#3379ba"/><path d="m22.417 21.569v7.4l-6.398-3.7" fill="#3379ba"/><path d="m22.42 21.569-.003 7.4 6.398-3.697" fill="#4c89c3"/></svg>