<svg xmlns="http://www.w3.org/2000/svg" viewBox="0 0 32 32"><title>file_type_fsproj</title><path d="M29.821,4.321,24.023,2,11.493,14.212,3.833,8.385l-1.654.837V22.8l1.644.827,7.65-5.827L24.023,30l5.8-2.321V4.321ZM4.65,19.192V12.818L8.2,15.985ZM16,15.985l7.082-5.3V21.324l-7.092-5.339Z" style="fill:#68217a"/><polygon points="15.995 15.985 23.077 10.686 23.077 21.324 15.985 15.985 15.995 15.985" style="fill:#fff"/><polygon points="4.65 19.192 4.65 12.818 8.196 15.985 4.65 19.192" style="fill:#fff"/><polygon points="30.02 28.201 21.622 28.2 21.622 26.318 19.739 26.317 19.739 17.92 21.622 17.921 21.62 16.039 30.018 16.039 30.018 17.922 31.9 17.922 31.899 21.686 31.9 21.686 31.9 26.319 30.019 26.319 30.02 28.201" style="fill:#efeef0"/><polygon points="15.64 31.96 9.9 31.96 9.9 16.039 20.324 16.039 20.324 21.204 15.64 21.204 15.64 21.688 19.946 21.688 19.946 26.844 15.64 26.844 15.64 31.96" style="fill:#efeef0"/><polygon points="18.95 19.83 14.265 19.83 14.265 23.062 18.571 23.062 18.571 25.469 14.265 25.469 14.265 30.585 11.275 30.585 11.275 17.414 18.95 17.414 18.95 19.83" style="fill:#378bba"/><path d="M23,17.414h1.883V19.3h1.882V17.414h1.882V19.3h1.881v1.882H28.643v1.881h1.881v1.883H28.643v1.882H26.761V24.945l-1.881,0,0,1.882H23V24.945l-1.883,0V23.06H23V21.182H21.114V19.3H23Zm1.883,5.648h1.882V21.179H24.879Z" style="fill:#30b9db"/></svg>