<?xml version="1.0" encoding="utf-8"?>
<svg viewBox="0 0 32 32" xmlns="http://www.w3.org/2000/svg">
  <defs>
    <linearGradient id="paint0_linear" x1="303.038" y1="0" x2="303.038" y2="74.4325" gradientUnits="userSpaceOnUse" gradientTransform="matrix(0.376182, 0, 0, 0.376182, -95.226662, 2.000251)">
      <stop stop-color="#1E90FF"/>
      <stop offset="1" stop-color="#FF1E56"/>
    </linearGradient>
    <linearGradient id="paint1_linear" x1="303.038" y1="0" x2="303.038" y2="74.4325" gradientUnits="userSpaceOnUse" gradientTransform="matrix(0.376182, 0, 0, 0.376182, -95.226662, 2.000251)">
      <stop stop-color="#1E90FF"/>
      <stop offset="1" stop-color="#FF1E56"/>
    </linearGradient>
    <linearGradient id="paint2_linear" x1="303.038" y1="0" x2="303.038" y2="74.4325" gradientUnits="userSpaceOnUse" gradientTransform="matrix(0.376182, 0, 0, 0.376182, -95.226662, 2.000251)">
      <stop stop-color="#1E90FF"/>
      <stop offset="1" stop-color="#FF1E56"/>
    </linearGradient>
    <linearGradient id="paint3_linear" x1="303.038" y1="0" x2="303.038" y2="74.4325" gradientUnits="userSpaceOnUse" gradientTransform="matrix(0.376182, 0, 0, 0.376182, -95.226662, 2.000251)">
      <stop stop-color="#1E90FF"/>
      <stop offset="1" stop-color="#FF1E56"/>
    </linearGradient>
    <linearGradient id="paint4_linear" x1="303.038" y1="0" x2="303.038" y2="74.4325" gradientUnits="userSpaceOnUse" gradientTransform="matrix(0.376182, 0, 0, 0.376182, -95.226662, 2.000251)">
      <stop stop-color="#1E90FF"/>
      <stop offset="1" stop-color="#FF1E56"/>
    </linearGradient>
    <linearGradient id="paint5_linear" x1="303.038" y1="0" x2="303.038" y2="74.4325" gradientUnits="userSpaceOnUse" gradientTransform="matrix(0.376182, 0, 0, 0.376182, -95.226662, 2.000251)">
      <stop stop-color="#1E90FF"/>
      <stop offset="1" stop-color="#FF1E56"/>
    </linearGradient>
  </defs>
  <path fill-rule="evenodd" clip-rule="evenodd" d="M 16.606 2.008 C 13.386 1.897 10.166 2.897 7.5 5.006 L 9.277 6.006 C 11.386 4.451 14.052 3.785 16.606 3.896 L 16.606 2.008 Z" fill="url(#paint0_linear)"/>
  <path fill-rule="evenodd" clip-rule="evenodd" d="M 26.044 6.228 C 23.824 3.896 20.936 2.453 17.827 2.119 L 17.827 4.008 C 20.493 4.451 22.824 5.673 24.713 7.561 L 26.044 6.228 Z" fill="url(#paint1_linear)"/>
  <path fill-rule="evenodd" clip-rule="evenodd" d="M 30.042 15.334 C 29.931 12.447 28.821 9.559 26.933 7.117 L 25.6 8.448 C 27.155 10.559 28.044 12.891 28.155 15.334 L 30.042 15.334 Z" fill="url(#paint2_linear)"/>
  <path fill-rule="evenodd" clip-rule="evenodd" d="M 26.933 24.884 C 28.821 22.44 29.931 19.553 30.042 16.666 L 28.155 16.666 C 28.044 19.109 27.155 21.441 25.6 23.551 L 26.933 24.884 Z" fill="url(#paint3_linear)"/>
  <path fill-rule="evenodd" clip-rule="evenodd" d="M 17.827 29.881 C 20.825 29.547 23.824 28.104 26.044 25.772 L 24.713 24.439 C 22.824 26.439 20.381 27.659 17.827 27.993 L 17.827 29.881 Z" fill="url(#paint4_linear)"/>
  <path fill-rule="evenodd" clip-rule="evenodd" d="M 7.5 26.994 C 10.166 29.103 13.386 30.103 16.606 29.992 L 16.606 28.104 C 14.052 28.215 11.497 27.549 9.277 25.994 L 7.5 26.994 Z" fill="url(#paint5_linear)"/>
  <path d="M 11.952 16.067 C 11.952 16.654 12.063 17.196 12.284 17.691 C 12.505 18.187 12.806 18.617 13.184 18.982 C 13.562 19.348 14 19.634 14.494 19.843 C 15.003 20.039 15.538 20.137 16.099 20.137 C 16.66 20.137 17.188 20.039 17.684 19.843 C 18.192 19.634 18.636 19.348 19.014 18.982 C 19.405 18.617 19.711 18.187 19.933 17.691 C 20.154 17.196 20.265 16.654 20.265 16.067 C 20.265 15.481 20.154 14.94 19.933 14.444 C 19.711 13.949 19.405 13.518 19.014 13.153 C 18.636 12.788 18.192 12.508 17.684 12.312 C 17.188 12.103 16.66 11.999 16.099 11.999 C 15.538 11.999 15.003 12.103 14.494 12.312 C 14 12.508 13.562 12.788 13.184 13.153 C 12.806 13.518 12.505 13.949 12.284 14.444 C 12.063 14.94 11.952 15.481 11.952 16.067 Z M 7.941 16.067 C 7.941 14.972 8.144 13.955 8.548 13.016 C 8.952 12.064 9.513 11.236 10.23 10.532 C 10.948 9.828 11.802 9.28 12.793 8.889 C 13.797 8.484 14.9 8.282 16.099 8.282 C 17.286 8.282 18.381 8.484 19.385 8.889 C 20.389 9.28 21.25 9.828 21.968 10.532 C 22.698 11.236 23.265 12.064 23.669 13.016 C 24.073 13.955 24.276 14.972 24.276 16.067 C 24.276 17.163 24.073 18.187 23.669 19.139 C 23.265 20.078 22.698 20.899 21.968 21.604 C 21.25 22.308 20.389 22.862 19.385 23.266 C 18.381 23.657 17.286 23.853 16.099 23.853 C 14.9 23.853 13.797 23.657 12.793 23.266 C 11.802 22.862 10.948 22.308 10.23 21.604 C 9.513 20.899 8.952 20.078 8.548 19.139 C 8.144 18.187 7.941 17.163 7.941 16.067 Z" style="fill: rgb(245, 245, 245);"/>
</svg>