<svg xmlns="http://www.w3.org/2000/svg" xmlns:xlink="http://www.w3.org/1999/xlink" viewBox="0 0 32 32"><defs><clipPath id="a"><path d="M25.573,24.978v-.034H8.239v0a1.956,1.956,0,0,0-1.88,1.971,1.9,1.9,0,0,0,1.92,1.929c.133,0,.258.006.408,0H25.536c-.884-.183-1.236-.979-1.236-1.934S24.671,25.147,25.573,24.978Z" style="fill:none"/></clipPath></defs><title>file_type_chef_cookbook</title><path d="M24.591,5.907H8.219c-.024,0-.047,0-.07,0V29.255c.023,0,.046,0,.07,0H24.591a1.4,1.4,0,0,0,1.4-1.39V7.3A1.4,1.4,0,0,0,24.591,5.907Z" style="fill:#f18b21"/><path d="M25.573,24.978v-.034H8.239v0a1.956,1.956,0,0,0-1.88,1.971,1.9,1.9,0,0,0,1.92,1.929c.133,0,.277.01.408,0H25.536c-.884-.183-1.236-.979-1.236-1.934S24.671,25.147,25.573,24.978Z" style="fill:#fff"/><g style="clip-path:url(#a)"><rect x="6.281" y="25.434" width="19.455" height="0.189" style="fill:#ccd4d3"/><rect x="6.281" y="26.391" width="19.455" height="0.189" style="fill:#ccd4d3"/><rect x="6.281" y="27.348" width="19.455" height="0.189" style="fill:#ccd4d3"/><rect x="6.281" y="27.827" width="19.455" height="0.189" style="fill:#ccd4d3"/><rect x="6.281" y="28.305" width="19.455" height="0.189" style="fill:#ccd4d3"/><rect x="6.281" y="26.87" width="19.455" height="0.189" style="fill:#ccd4d3"/><rect x="6.281" y="25.913" width="19.455" height="0.189" style="fill:#ccd4d3"/></g><path d="M24.644,2H8.272c-.024,0-.047,0-.07,0V25.348c.023,0,.046,0,.07,0H24.644a1.4,1.4,0,0,0,1.4-1.39V3.39A1.4,1.4,0,0,0,24.644,2Z" style="fill:#edce8a"/><path d="M8.154,28.848c-.016,0-.05-.009-.066-.01a2.008,2.008,0,0,1-1.7-1.805,1.662,1.662,0,0,1,1.716-1.7c.016,0,.09.009.106.01L8.2,2.005C8.168,2,8.135,2,8.1,2A2.04,2.04,0,0,0,6.034,3.579,6.719,6.719,0,0,0,6,4.419s-.045,22.6-.045,22.69a2.154,2.154,0,0,0,.02.277v.06h.009A2.144,2.144,0,0,0,8.1,29.254l.047,0Z" style="fill:#3f5364"/><polygon points="9.87 30 9.065 29.366 8.26 30 8.26 28.442 8.26 26.885 9.065 26.885 9.87 26.885 9.87 28.442 9.87 30" style="fill:#efb422"/><path d="M14.445,16.578a3.7,3.7,0,0,0,2.589,1.076v-1.53a2.087,2.087,0,0,1-1.508-.624Z" style="fill:#3f5364"/><path d="M18.366,10.6,17.8,12.016a2.29,2.29,0,0,1,1.083.907h1.649A3.687,3.687,0,0,0,18.366,10.6Z" style="fill:#3f5364"/><path d="M13.362,14a3.712,3.712,0,0,0,.311,1.474l1.4-.624A2.07,2.07,0,0,1,14.9,14a2.146,2.146,0,0,1,2.13-2.125v-1.53A3.67,3.67,0,0,0,13.362,14Z" style="fill:#f18b21"/><path d="M17.794,15.983,18.36,17.4a3.672,3.672,0,0,0,2.186-2.351H18.9A2.178,2.178,0,0,1,17.794,15.983Z" style="fill:#f18b21"/><path d="M17.029,17.825a3.825,3.825,0,1,1,3.694-4.873H22.2a5.256,5.256,0,1,0,0,2.125H20.723A3.825,3.825,0,0,1,17.029,17.825Z" style="fill:#3f5364"/><path d="M17.029,8.56h0V7.115h0A6.876,6.876,0,0,0,10.6,11.506l1.336.51A5.493,5.493,0,0,1,17.029,8.56Z" style="fill:#3f5364"/><path d="M17.029,19.44v1.445a6.9,6.9,0,0,0,6.822-5.808H22.372A5.425,5.425,0,0,1,17.029,19.44Z" style="fill:#3f5364"/><path d="M22.4,12.951h1.45A6.921,6.921,0,0,0,19.528,7.6l-.51,1.331A5.532,5.532,0,0,1,22.4,12.951Z" style="fill:#f18b21"/><path d="M11.572,14H10.121a6.9,6.9,0,0,0,4.352,6.4l.539-1.331A5.482,5.482,0,0,1,11.572,14Z" style="fill:#f18b21"/><path d="M24.021,12.951h1.45a8.781,8.781,0,0,0-1.224-3.428l-1.224.765A6.351,6.351,0,0,1,24.021,12.951Z" style="fill:#3f5364"/><path d="M8.5,14.005a8.949,8.949,0,0,0,.753,3.672l1.406-.578a7.558,7.558,0,0,1-.7-3.1" style="fill:#3f5364"/><path d="M17.029,21.055a7.062,7.062,0,0,1-5-2.069L11,20.006A8.406,8.406,0,0,0,17.029,22.5,8.55,8.55,0,0,0,25.5,15.048H24.05A7.115,7.115,0,0,1,17.029,21.055Z" style="fill:#f18b21"/><path d="M17.029,6.945a6.909,6.909,0,0,1,4.233,1.416L22.146,7.2A8.559,8.559,0,0,0,9.067,10.911l1.365.539A7.1,7.1,0,0,1,17.029,6.945Z" style="fill:#f18b21"/></svg>