<svg viewBox="0 0 32 32" xmlns="http://www.w3.org/2000/svg"><path d="m24.099 2h-15.262v28h.072 20.838v-22.112l-5.579-5.816z" fill="#070444"/><path d="m2.253 3.493h20.307v7.844h-20.307z" fill="#5bc3f6"/><path d="m24.099 2v5.888h5.648z" fill="#5bc3f6"/><g fill="#070444"><path d="m7.1 4.987a6 6 0 0 1 1.242-.1 1.576 1.576 0 0 1 1.187.392 1.714 1.714 0 0 1 .429 1.207 1.946 1.946 0 0 1 -.358 1.226 1.565 1.565 0 0 1 -1.254.518 2.084 2.084 0 0 1 -.246-.015v1.7h-1zm1 2.206a1.61 1.61 0 0 0 .228.015.621.621 0 0 0 .641-.7.546.546 0 0 0 -.569-.618 1.166 1.166 0 0 0 -.3.03z"/><path d="m11.083 8.578a1.845 1.845 0 0 0 .975.311c.345 0 .513-.156.513-.407s-.171-.382-.591-.582a1.594 1.594 0 0 1 -1.053-1.5 1.454 1.454 0 0 1 1.5-1.562 1.925 1.925 0 0 1 1.02.259l-.207 1.067a1.576 1.576 0 0 0 -.819-.237c-.306 0-.474.148-.474.37 0 .252.2.355.674.592a1.543 1.543 0 0 1 .981 1.5 1.494 1.494 0 0 1 -1.6 1.6 2.117 2.117 0 0 1 -1.1-.311z"/><path d="m15.62 8.98h-.1v-3.225h.014a1.117 1.117 0 0 1 .629.113 1.262 1.262 0 0 1 .341.422 1.369 1.369 0 0 1 .149.553c.01.231 0 .417 0 .578a3.079 3.079 0 0 1 -.035.539 1.846 1.846 0 0 1 -.178.529 1.187 1.187 0 0 1 -.382.379.707.707 0 0 1 -.437.111m.192-4.141c-.117 0-.23.009-.31.012l-.247.007h-.82v5.054h.964a2.815 2.815 0 0 0 1.082-.184 1.8 1.8 0 0 0 .718-.517 2.04 2.04 0 0 0 .392-.788 3.921 3.921 0 0 0 .12-1 4.644 4.644 0 0 0 -.092-1.186 1.868 1.868 0 0 0 -.425-.771 1.712 1.712 0 0 0 -.563-.422 2.537 2.537 0 0 0 -.577-.188 1.349 1.349 0 0 0 -.24-.018"/></g><path d="m16 19.651a7.218 7.218 0 0 1 -.9-.031v-3.49c.111-.016.5-.031 1.04-.031 1.3 0 1.873.546 1.873 1.791 0 1.556-.916 1.761-2.012 1.761m.139-5.031c-1.054 0-2.095.016-2.622.031-.069 0-.083.031-.083.109v9.93c0 .078.028.109.1.109h1.465c.069 0 .1-.031.1-.125v-3.544h.86c2.039 0 3.718-.658 3.718-3.132-.014-1.805-.818-3.378-3.538-3.378" fill="#5bc3f6"/><path d="m23.075 17.218a2.266 2.266 0 0 0 -2.539 2.257c0 1.136.5 1.743 1.928 2.4 1 .451 1.249.685 1.249 1.089 0 .342-.222.7-.86.7a4.067 4.067 0 0 1 -2.247-.841.056.056 0 0 0 -.034-.012c-.033 0-.063.032-.063.09v1.432a.159.159 0 0 0 .083.156 3.942 3.942 0 0 0 2.15.607 2.317 2.317 0 0 0 2.594-2.4c0-1.121-.61-1.7-2.039-2.35-1.04-.467-1.221-.669-1.221-1.043 0-.3.18-.654.86-.654a3.8 3.8 0 0 1 1.928.591.094.094 0 0 0 .052.018c.043 0 .073-.043.073-.112v-1.274a.224.224 0 0 0 -.083-.2 3.365 3.365 0 0 0 -1.831-.451" fill="#5bc3f6"/></svg>