<svg xmlns="http://www.w3.org/2000/svg" viewBox="0 0 32 32"><title>file_type_stylish_haskell</title><path d="M14.188,19.163l-2.967-5.218h0L4.833,25.193A1.679,1.679,0,0,0,6.292,27.7h3.952a1.683,1.683,0,0,0,1.46-.85l2.482-4.371A3.366,3.366,0,0,0,14.188,19.163Z" style="fill:#95538e"/><path d="M12.965,14.057a3.358,3.358,0,0,0,2.925,1.7h5.86L14.418,2.85A1.677,1.677,0,0,0,12.965,2H9.005A1.679,1.679,0,0,0,7.326,3.678a1.661,1.661,0,0,0,.22.831Z" style="fill:#95538e"/><path d="M27.171,25.191l-3.528-6.262a3.355,3.355,0,0,0-2.927-1.712H14.865l5.42,9.623a1.675,1.675,0,0,0,1.462.854h3.96a1.679,1.679,0,0,0,1.464-2.5Z" style="fill:#95538e"/><path d="M16.015,22.259l-2.234,3.87A2.58,2.58,0,0,0,16.015,30h0a2.58,2.58,0,0,0,2.235-3.871Z" style="fill:#95538e"/></svg>