<svg xmlns="http://www.w3.org/2000/svg" xmlns:xlink="http://www.w3.org/1999/xlink" viewBox="0 0 32 32"><defs><linearGradient id="a" x1="19.283" y1="19.676" x2="21.602" y2="19.676" gradientUnits="userSpaceOnUse"><stop offset="0" stop-color="#4d4d4d"/><stop offset="0.5" stop-color="#fff"/><stop offset="1" stop-color="#4d4d4d"/></linearGradient><linearGradient id="b" x1="19.283" y1="18.13" x2="21.602" y2="18.13" xlink:href="#a"/><linearGradient id="c" x1="19.283" y1="16.584" x2="21.602" y2="16.584" xlink:href="#a"/><linearGradient id="d" x1="19.283" y1="15.039" x2="21.602" y2="15.039" xlink:href="#a"/><linearGradient id="e" x1="19.283" y1="13.493" x2="21.602" y2="13.493" xlink:href="#a"/><linearGradient id="f" x1="19.283" y1="11.947" x2="21.602" y2="11.947" xlink:href="#a"/><linearGradient id="g" x1="19.283" y1="10.401" x2="21.602" y2="10.401" xlink:href="#a"/><linearGradient id="h" x1="19.283" y1="8.855" x2="21.602" y2="8.855" xlink:href="#a"/><linearGradient id="i" x1="19.283" y1="7.309" x2="21.602" y2="7.309" xlink:href="#a"/><linearGradient id="j" x1="18.334" y1="20.457" x2="20.652" y2="20.457" xlink:href="#a"/><linearGradient id="k" x1="18.334" y1="18.911" x2="20.652" y2="18.911" xlink:href="#a"/><linearGradient id="l" x1="18.334" y1="17.365" x2="20.652" y2="17.365" xlink:href="#a"/><linearGradient id="m" x1="18.334" y1="15.819" x2="20.652" y2="15.819" xlink:href="#a"/><linearGradient id="n" x1="18.334" y1="14.273" x2="20.652" y2="14.273" xlink:href="#a"/><linearGradient id="o" x1="19.283" y1="21.222" x2="21.602" y2="21.222" xlink:href="#a"/><linearGradient id="p" x1="18.334" y1="12.728" x2="20.652" y2="12.728" xlink:href="#a"/><linearGradient id="q" x1="18.334" y1="11.182" x2="20.652" y2="11.182" xlink:href="#a"/><linearGradient id="r" x1="18.334" y1="9.636" x2="20.652" y2="9.636" xlink:href="#a"/><linearGradient id="s" x1="18.334" y1="8.09" x2="20.652" y2="8.09" xlink:href="#a"/><linearGradient id="t" x1="18.334" y1="22" x2="20.652" y2="22" xlink:href="#a"/><linearGradient id="u" x1="19.283" y1="22.766" x2="21.602" y2="22.766" xlink:href="#a"/><linearGradient id="v" x1="18.334" y1="23.53" x2="20.652" y2="23.53" xlink:href="#a"/><linearGradient id="w" x1="19.283" y1="24.294" x2="21.602" y2="24.294" xlink:href="#a"/><linearGradient id="x" x1="18.288" y1="25.07" x2="20.672" y2="25.07" xlink:href="#a"/><linearGradient id="y" x1="19.264" y1="25.823" x2="21.648" y2="25.823" xlink:href="#a"/><linearGradient id="z" x1="18.288" y1="26.588" x2="20.672" y2="26.588" xlink:href="#a"/><linearGradient id="aa" x1="19.264" y1="27.352" x2="21.648" y2="27.352" xlink:href="#a"/><linearGradient id="ab" x1="18.288" y1="28.117" x2="20.652" y2="28.117" xlink:href="#a"/><linearGradient id="ac" x1="19.264" y1="28.9" x2="21.648" y2="28.9" xlink:href="#a"/><linearGradient id="ad" x1="18.288" y1="29.664" x2="20.652" y2="29.664" xlink:href="#a"/><linearGradient id="ae" x1="18.539" y1="8.257" x2="20.892" y2="8.257" xlink:href="#a"/><linearGradient id="af" x1="19.294" y1="4.267" x2="20.138" y2="4.267" xlink:href="#a"/><linearGradient id="ag" x1="17.889" y1="4.445" x2="21.543" y2="4.445" xlink:href="#a"/></defs><title>file_type_zip</title><path d="M27.667,27.667V17.333L23,15V2H4.333V30H27.667Zm-4.667,0V18.556l2.333,1.222v7.889Z" style="fill:#c09553"/><rect x="19.283" y="19.342" width="2.319" height="0.668" style="fill:url(#a)"/><rect x="19.283" y="17.796" width="2.319" height="0.668" style="fill:url(#b)"/><rect x="19.283" y="16.251" width="2.319" height="0.668" style="fill:url(#c)"/><rect x="19.283" y="14.705" width="2.319" height="0.668" style="fill:url(#d)"/><rect x="19.283" y="13.159" width="2.319" height="0.668" style="fill:url(#e)"/><rect x="19.283" y="11.613" width="2.319" height="0.668" style="fill:url(#f)"/><rect x="19.283" y="10.067" width="2.319" height="0.668" style="fill:url(#g)"/><rect x="19.283" y="8.521" width="2.319" height="0.668" style="fill:url(#h)"/><rect x="19.283" y="6.976" width="2.319" height="0.668" style="fill:url(#i)"/><rect x="18.334" y="20.123" width="2.319" height="0.668" style="fill:url(#j)"/><rect x="18.334" y="18.577" width="2.319" height="0.668" style="fill:url(#k)"/><rect x="18.334" y="17.031" width="2.319" height="0.668" style="fill:url(#l)"/><rect x="18.334" y="15.485" width="2.319" height="0.668" style="fill:url(#m)"/><rect x="18.334" y="13.94" width="2.319" height="0.668" style="fill:url(#n)"/><rect x="19.283" y="20.888" width="2.319" height="0.668" style="fill:url(#o)"/><rect x="18.334" y="12.394" width="2.319" height="0.668" style="fill:url(#p)"/><rect x="18.334" y="10.848" width="2.319" height="0.668" style="fill:url(#q)"/><rect x="18.334" y="9.302" width="2.319" height="0.668" style="fill:url(#r)"/><rect x="18.334" y="7.756" width="2.319" height="0.667" style="fill:url(#s)"/><rect x="18.334" y="21.667" width="2.319" height="0.668" style="fill:url(#t)"/><rect x="19.283" y="22.432" width="2.319" height="0.668" style="fill:url(#u)"/><rect x="18.334" y="23.196" width="2.319" height="0.668" style="fill:url(#v)"/><rect x="19.283" y="23.961" width="2.319" height="0.668" style="fill:url(#w)"/><rect x="18.288" y="24.727" width="2.384" height="0.686" style="fill:url(#x)"/><rect x="19.264" y="25.48" width="2.384" height="0.686" style="fill:url(#y)"/><rect x="18.288" y="26.245" width="2.384" height="0.686" style="fill:url(#z)"/><rect x="19.264" y="27.009" width="2.384" height="0.686" style="fill:url(#aa)"/><rect x="18.288" y="27.783" width="2.365" height="0.668" style="fill:url(#ab)"/><rect x="19.264" y="28.557" width="2.384" height="0.686" style="fill:url(#ac)"/><rect x="18.288" y="29.331" width="2.365" height="0.668" style="fill:url(#ad)"/><path d="M20.657,4.663a.377.377,0,0,0-.373-.361h-.006v.379h.062l.14,1.71H18.95l.14-1.71h.064V4.3h-.03a.375.375,0,0,0-.372.361l-.214,7.187a.349.349,0,0,0,.35.361h1.654a.348.348,0,0,0,.349-.361ZM19.716,11.8a.8.8,0,1,1,.8-.8A.8.8,0,0,1,19.716,11.8Z" style="fill:url(#ae)"/><rect x="19.294" y="3.229" width="0.843" height="2.077" style="fill:url(#af)"/><path d="M21.543,3.744A1.733,1.733,0,0,0,19.81,2.011h-.187a1.734,1.734,0,0,0-1.656,2.244h0v0h0A5.43,5.43,0,0,1,18.138,6h0a1.232,1.232,0,0,0,.436.864l.074-2.34a.4.4,0,0,1,.411-.375h.092V3.083h1.124V4.15h.066a.405.405,0,0,1,.412.375l.082,2.354A1.233,1.233,0,0,0,21.29,6h0V5.9a5.231,5.231,0,0,1,.16-1.6A1.729,1.729,0,0,0,21.543,3.744Z" style="fill:url(#ag)"/></svg>