<svg viewBox="0 0 32 32" xmlns="http://www.w3.org/2000/svg"><path d="m7.62 19.85v-7.7h2.264l2.266 2.831 2.264-2.831h2.265v7.7h-2.265v-4.416l-2.264 2.831-2.266-2.831v4.416z" fill="#755838"/><path d="m21.775 19.85-3.397-3.737h2.264v-3.963h2.265v3.963h2.264z" fill="#755838"/><g fill="#fbc02d"><path d="m2 15.042a2.345 2.345 0 0 0 1.464-.484 2.221 2.221 0 0 0 .752-1.269 14.257 14.257 0 0 0 .2-2.75q.011-1.948.07-2.566a4.891 4.891 0 0 1 .39-1.573 2.826 2.826 0 0 1 .705-.951 2.846 2.846 0 0 1 1.076-.542 6.317 6.317 0 0 1 1.443-.118h.654v1.831h-.362a2.184 2.184 0 0 0 -1.61.437 3.176 3.176 0 0 0 -.4 1.954 33.682 33.682 0 0 1 -.128 3.861 4.423 4.423 0 0 1 -.714 1.928 4.267 4.267 0 0 1 -1.592 1.2 3.558 3.558 0 0 1 1.861 1.639 8.278 8.278 0 0 1 .577 3.611q0 2.275.047 2.709a1.64 1.64 0 0 0 .471 1.1 2.465 2.465 0 0 0 1.487.315h.362v1.834h-.653a5.283 5.283 0 0 1 -1.656-.187 2.775 2.775 0 0 1 -1.237-.869 3.132 3.132 0 0 1 -.636-1.523 22.584 22.584 0 0 1 -.154-3.021 15.385 15.385 0 0 0 -.2-2.9 2.25 2.25 0 0 0 -.752-1.271 2.325 2.325 0 0 0 -1.465-.49z"/><path d="m30 16.944a2.325 2.325 0 0 0 -1.464.49 2.25 2.25 0 0 0 -.752 1.271 15.386 15.386 0 0 0 -.2 2.9 22.585 22.585 0 0 1 -.158 3.021 3.132 3.132 0 0 1 -.636 1.523 2.775 2.775 0 0 1 -1.237.869 5.283 5.283 0 0 1 -1.656.187h-.654v-1.83h.362a2.465 2.465 0 0 0 1.487-.315 1.64 1.64 0 0 0 .473-1.108q.047-.432.047-2.709a8.278 8.278 0 0 1 .577-3.611 3.558 3.558 0 0 1 1.862-1.632 4.267 4.267 0 0 1 -1.588-1.2 4.423 4.423 0 0 1 -.717-1.924 33.682 33.682 0 0 1 -.128-3.861 3.176 3.176 0 0 0 -.4-1.954 2.184 2.184 0 0 0 -1.61-.437h-.362v-1.835h.654a6.317 6.317 0 0 1 1.439.117 2.846 2.846 0 0 1 1.073.543 2.826 2.826 0 0 1 .705.951 4.891 4.891 0 0 1 .39 1.575q.058.618.07 2.566a14.257 14.257 0 0 0 .2 2.753 2.221 2.221 0 0 0 .752 1.266 2.345 2.345 0 0 0 1.464.484z"/></g></svg>