<svg xmlns="http://www.w3.org/2000/svg" viewBox="0 0 32 32"><title>file_type_nsi</title><g id="nsi"><path d="M27.43,16,22,21.46l5.42,5.42" style="fill:#00577b"/><path d="M26.88,15.5H16l5.42,5.42" style="fill:#0079aa"/><path d="M26.88,14.71,21.46,9.29,16,14.71" style="fill:#0096d3"/><path d="M20.53,9.13H9.68l5.42,5.42M27.43,3.33,22,8.75l5.42,5.42" style="fill:#01b0f0"/><path d="M20.53,8.36,15.11,2.93,9.68,8.36" style="fill:#27bcf3"/><path d="M14.17,2.77H3.33L8.75,8.2" style="fill:#4fc9f5"/><path d="M4.57,16,10,10.54,4.57,5.12" style="fill:#79201b"/><path d="M10.54,11.09,5.12,16.51H16" style="fill:#a42d26"/><path d="M5.12,17.29l5.42,5.42L16,17.29" style="fill:#cc382f"/><path d="M4.57,17.83V28.67L10,23.25,8.4,21.67m13.92,1.2L16.9,17.45l-5.42,5.42" style="fill:#f0453f"/><path d="M11.47,23.64l5.42,5.42,5.42-5.42" style="fill:#f2625d"/><path d="M17.84,29.23H28.69L23.26,23.8" style="fill:#f47f7d"/><path d="M29.89,29.34l-1.68-1.68V2.39A.37.37,0,0,0,28,2a.26.26,0,0,0-.14,0,.36.36,0,0,0-.27.11L21.47,8.2,15.39,2.11,15.3,2h0a.31.31,0,0,0-.16,0H2.4a.43.43,0,0,0-.29.11A.38.38,0,0,0,2,2.39a.36.36,0,0,0,.11.27L3.79,4.34V29.62A.37.37,0,0,0,4,30a.39.39,0,0,0,.15,0,.36.36,0,0,0,.27-.11l6.09-6.09,6.09,6.09.08.07h0a.25.25,0,0,0,.15,0H29.61a.39.39,0,0,0,.28-.66Zm-2.45-26V14.17L22,8.75l5.42-5.42ZM10,10.54,4.57,16V5.12L10,10.54ZM9.68,9.13H20.53l-5.42,5.42L9.68,9.13Zm.86,2L16,16.51H5.12l5.42-5.42Zm6.36,6.36,5.42,5.42H11.47l5.42-5.42Zm-.85-2H26.89l-5.42,5.42L16,15.5Zm6,6L27.43,16V26.88L22,21.46Zm4.87-6.75H16l5.42-5.42,5.41,5.42ZM20.53,8.36H9.68l5.42-5.42,5.42,5.42ZM3.33,2.77H14.17L8.75,8.2Zm1.24,25.9V17.83L8.4,21.67,10,23.25,4.57,28.67Zm.55-11.39H16l-5.42,5.42L5.12,17.29ZM16.9,29.07l-5.42-5.42H22.32L16.9,29.07Zm.94.16,5.42-5.42,5.42,5.42Z" style="fill:#464049"/></g></svg>