<svg id="Layer_2" data-name="Layer 2" xmlns="http://www.w3.org/2000/svg" xmlns:xlink="http://www.w3.org/1999/xlink" viewBox="0 0 32 32"><defs><radialGradient id="radial-gradient" cx="-280.55" cy="436.76" r="0.04" gradientTransform="matrix(550.5, 601.5, 467.21, -427.59, -49609.89, 355512.47)" gradientUnits="userSpaceOnUse"><stop offset="0" stop-color="#0029ff"/><stop offset="1" stop-color="#bd00ff"/></radialGradient></defs><rect id="rect531" x="5.1" y="11" width="21.49" height="12.52" style="fill:#fff"/><path id="path95" d="M11.13,16.06a.85.85,0,1,1-.84-.9A.87.87,0,0,1,11.13,16.06Z" style="fill:url(#radial-gradient)"/><path id="path97" d="M20.8,16.06a.85.85,0,1,0,.85-.9A.88.88,0,0,0,20.8,16.06Z" style="fill:url(#radial-gradient)"/><path id="path99" d="M3.52,14.8C3.4,7.28,5.06,1.91,6.37,1.91c1,0,3,1.23,4.83,4.11a14.45,14.45,0,0,1,9.54,0c1.85-2.86,3.82-4.09,4.82-4.09,1.29,0,2.92,5.18,2.86,12.5a9.74,9.74,0,0,1,.16,1.72c0,6-.87,14-12.58,14s-12.58-7.92-12.58-14A9.68,9.68,0,0,1,3.52,14.8Zm6.35,3.95a2.79,2.79,0,0,0,2.65-2.9A2.79,2.79,0,0,0,9.87,13a2.79,2.79,0,0,0-2.64,2.9A2.79,2.79,0,0,0,9.87,18.75Zm5.66,2.38a.28.28,0,0,1,.12-.16c-.88-.32-1.56-1.5-1.15-1.67a5.07,5.07,0,0,1,3.13,0c.32.13-.36,1.48-1.3,1.71a.36.36,0,0,1,.08.12,1.3,1.3,0,0,0,1.37.78,2.08,2.08,0,0,0,.84-.21,1,1,0,0,0,.47-.41.37.37,0,0,1,.49-.17.38.38,0,0,1,.17.5,1.74,1.74,0,0,1-.8.74,2.75,2.75,0,0,1-1.15.28A2.14,2.14,0,0,1,16,21.85a2.17,2.17,0,0,1-1.84.79A2.7,2.7,0,0,1,13,22.36a1.77,1.77,0,0,1-.81-.74.39.39,0,0,1,.17-.5.38.38,0,0,1,.5.17,1,1,0,0,0,.46.41,2.09,2.09,0,0,0,.85.21A1.32,1.32,0,0,0,15.53,21.13Zm6.53-2.38a2.78,2.78,0,0,1-2.64-2.9A2.78,2.78,0,0,1,22.06,13a2.78,2.78,0,0,1,2.64,2.9A2.78,2.78,0,0,1,22.06,18.75Z" style="fill-rule:evenodd;fill:url(#radial-gradient)"/></svg>