<svg xmlns="http://www.w3.org/2000/svg" viewBox="0 0 32 32"><title>file_type_light_deno</title><path d="M16,2A14,14,0,1,1,6.1,6.1,14,14,0,0,1,16,2Z"/><path d="M15.453,9.924c-4.069,0-7.241,2.565-7.241,5.753,0,3.008,2.915,4.927,7.432,4.834l.137-.005.5-.016-.126.328.016.033q.054.127.1.257l.011.033.016.055.022.077.016.049.022.055.016.06.022.087.027.093.016.06.027.1.027.1.022.1.027.109.022.076.027.12.027.12.038.164.017.087.027.131.027.137.033.142.038.2.033.164.044.23.022.115.038.181.033.186.044.252.049.263.044.273.049.279.049.284.049.3.049.306.038.235.06.4.027.164.066.421.049.345.044.262.049.361.027.18a12.567,12.567,0,0,0,7.618-3.981l.06-.066-.279-1.039-.738-2.762L23.864,18.9l-.4-1.509-.252-.919-.159-.58-.093-.35-.087-.306-.033-.131-.022-.071L22.8,15l-.011-.033A7.049,7.049,0,0,0,20.413,11.5,7.878,7.878,0,0,0,15.453,9.924Zm-3.576,14.6a.68.68,0,0,0-.831.465L11.04,25l-.612,2.275a12.534,12.534,0,0,0,1.176.509l.093.038.662-2.466.006-.016A.679.679,0,0,0,11.877,24.52Zm3.812-1.668a.683.683,0,0,0-.837.465l-.005.016-.93,3.445V26.8a.684.684,0,0,0,1.318.356l.005-.016.93-3.445v-.016l.016-.077.006-.027-.022-.115-.033-.159-.022-.1a.684.684,0,0,0-.426-.345ZM9.208,19.3l-.044.1-.005.022-.93,3.445-.005.016a.684.684,0,0,0,1.318.361l.005-.016.842-3.128A6.144,6.144,0,0,1,9.208,19.3ZM6.993,15.338a.692.692,0,0,0-.837.465l-.005.016-.93,3.445v.016a.684.684,0,0,0,1.318.361l.005-.016.93-3.445v-.016A.688.688,0,0,0,6.993,15.338Zm20.841-.782a.689.689,0,0,0-.831.465L27,15.038l-.93,3.445-.006.016a.686.686,0,0,0,1.323.361v-.017l.935-3.445v-.022A.684.684,0,0,0,27.834,14.556Zm-22.87-4.6A12.491,12.491,0,0,0,3.5,14.54a.679.679,0,0,0,.339.208.689.689,0,0,0,.831-.465l.005-.016.93-3.445.005-.016a.687.687,0,0,0-.487-.826.694.694,0,0,0-.164-.022Zm20.519.022a.7.7,0,0,0-.837.465v.017l-.93,3.445-.006.016a.684.684,0,0,0,1.318.361l.006-.016.93-3.445.005-.016A.691.691,0,0,0,25.483,9.979Z" style="fill:#fff"/><path d="M16.328,12.227a.875.875,0,1,1-.619.256A.875.875,0,0,1,16.328,12.227Z"/><path d="M9.011,6.7a.689.689,0,0,0-.831.465l-.005.016-.93,3.445-.005.016a.684.684,0,0,0,1.318.361l.005-.016.93-3.445L9.5,7.523A.684.684,0,0,0,9.011,6.7Zm11.949.651a.692.692,0,0,0-.837.465l-.005.016-.624,2.319a7.646,7.646,0,0,1,1.154.7l.06.049L21.441,8.2V8.18A.688.688,0,0,0,20.96,7.354ZM14.879,3.471a12.577,12.577,0,0,0-1.3.186l-.093.016-.864,3.21-.005.016a.684.684,0,0,0,1.318.355l.005-.016.93-3.445.005-.016a.677.677,0,0,0,.005-.306ZM23.432,5.85l-.18.678-.006.016a.684.684,0,0,0,1.318.355l.005-.016.022-.071a12.651,12.651,0,0,0-1.077-.9ZM18.023,3.586,17.7,4.805l-.005.016a.684.684,0,0,0,1.318.355l.006-.016.344-1.285A12.5,12.5,0,0,0,18.122,3.6Z" style="fill:#fff"/></svg>