<svg xmlns="http://www.w3.org/2000/svg" fill="none" viewBox="0 0 32 32"><path fill="#d2d2d2" d="M29.95 8.631q-.008-.142-.021-.284-.001-.036-.006-.071l-.023-.172q-.012-.09-.023-.177-.01-.063-.023-.122l-.039-.22-.04-.173-.037-.166q-.024-.086-.05-.172-.021-.08-.046-.16l-.06-.175-.05-.149q-.041-.11-.083-.214l-.042-.104a7 7 0 0 0-.101-.226l-.038-.083c-.033-.071-.071-.14-.106-.208l-.048-.094q-.063-.115-.131-.228-.017-.032-.035-.062a6 6 0 0 0-.149-.233l-.032-.05a7 7 0 0 0-.386-.519q-.005-.009-.015-.019a6.98 6.98 0 0 0-5.393-2.546V2l-.007.004h.002a7.05 7.05 0 0 0-2.721.548 6.989 6.989 0 0 0-4.199 5.46h-.005a9.3 9.3 0 0 1-.895 2.837h.014a9.31 9.31 0 0 1-8.323 5.128 9.3 9.3 0 0 1-4.48-1.144.232.232 0 0 0-.344.203v.941H2v13.971h13.979v-6.987h.014v-3.493a3.494 3.494 0 0 1 3.495-3.493h3.495A6.9 6.9 0 0 0 26 15.287a6.995 6.995 0 0 0 3.95-6.656"/></svg>