<svg xmlns="http://www.w3.org/2000/svg" viewBox="0 0 32 32"><title>file_type_rake@2x</title><g id="rake"><polygon points="16.04 2 23.36 6.25 23.36 13.62 29.68 17.26 29.68 25.9 22.44 30 16.04 26.37 9.65 30 2.32 25.82 2.32 17.26 8.66 13.64 8.67 6.26 16.04 2" style="fill:#666"/><polyline points="16.02 3.07 16.02 10.47 9.62 6.77" style="fill:#cde"/><polyline points="22.42 6.77 16.02 10.47 16.02 3.07" style="fill:#b2cde5"/><polyline points="22.42 6.77 22.42 14.17 16.02 10.47" style="fill:#3379ba"/><polyline points="9.62 6.77 9.62 14.17 16.02 10.47" style="fill:#0057a9"/><polyline points="16.02 10.47 16.02 17.87 9.62 14.17" style="fill:#ccc"/><polyline points="16.02 10.47 16.02 17.87 22.42 14.17" style="fill:#e5e5e5"/><polyline points="22.42 14.17 22.42 21.57 16.02 17.87" style="fill:#4c4c4c"/><polyline points="9.62 14.17 9.62 21.57 16.02 17.87"/><polyline points="16.02 17.87 16.02 25.27 9.62 21.57" style="fill:#191919"/><polyline points="16.02 17.87 16.02 25.27 22.42 21.57" style="fill:#666"/><polyline points="9.62 14.17 9.62 21.57 3.22 17.87" style="fill:#cde"/><polyline points="3.22 17.87 3.22 25.27 9.62 21.57" style="fill:#0057a9"/><polyline points="9.62 21.57 9.62 28.97 3.22 25.27" style="fill:#3379ba"/><polyline points="9.62 21.57 9.62 28.97 16.02 25.27" style="fill:#4c89c3"/><polyline points="28.82 17.87 22.42 21.57 22.42 14.17" style="fill:#b2cde5"/><polyline points="28.82 17.87 28.82 25.27 22.42 21.57" style="fill:#3379ba"/><polyline points="22.42 21.57 22.42 28.97 16.02 25.27" style="fill:#3379ba"/><polyline points="22.42 21.57 22.42 28.97 28.82 25.27" style="fill:#4c89c3"/></g></svg>