<svg xmlns="http://www.w3.org/2000/svg" viewBox="0 0 32 32"><title>file_type_lnk</title><path d="M27.076,22.2l-4.584-6.08a4.982,4.982,0,0,0-5.723-1.6l-.188-.251a4.57,4.57,0,0,0,.183-5.745L13.3,3.932A5,5,0,0,0,6.5,2.9L6,3.242A4.6,4.6,0,0,0,4.929,9.8L8.393,14.4a4.983,4.983,0,0,0,5.528,1.671l.247.33a4.574,4.574,0,0,0-.049,5.592l4.582,6.08A4.989,4.989,0,0,0,25.5,29.1l.5-.346A4.6,4.6,0,0,0,27.076,22.2ZM12.2,11.122a1.531,1.531,0,0,0-.359,2.187L12.9,14.7a3.29,3.29,0,0,1-3.184-1.23L6.251,8.882a3.065,3.065,0,0,1,.717-4.377l.5-.346A3.329,3.329,0,0,1,12,4.851l3.464,4.59a3.046,3.046,0,0,1,.129,3.5L14.48,11.463a1.659,1.659,0,0,0-2.263-.351ZM25.048,27.5l-.495.344a3.326,3.326,0,0,1-4.533-.688l-4.58-6.08a3.041,3.041,0,0,1-.233-3.3l1.054,1.4a1.661,1.661,0,0,0,2.266.346,1.531,1.531,0,0,0,.357-2.187l-1.111-1.475a3.3,3.3,0,0,1,3.407,1.194l4.583,6.089A3.065,3.065,0,0,1,25.048,27.5Z" style="fill:#d31900"/></svg>