<svg viewBox="0 0 32 32" xmlns="http://www.w3.org/2000/svg"><g fill="#00aeef"><path d="m19.5 17.479h-7a1.479 1.479 0 1 1 0-2.958h7a1.479 1.479 0 0 1 0 2.958z"/><path d="m26.106 16.3c0-.789.592-5.028-6.507-8.972a14.823 14.823 0 0 1 -2.169 2.165c.1.1 1.282.789 1.38.887 4.437 2.268 4.338 5.423 4.338 5.718v.3c0 .3-.2 2.662-4.338 5.028-5.324 3.155-6.31 5.817-6.408 6.31l2.958.789v.1a4.826 4.826 0 0 1 1.183-1.577l4.831 2.752a1.857 1.857 0 0 0 .789.2 1.421 1.421 0 0 0 1.282-.789 1.5 1.5 0 0 0 -.592-2.07l-3.845-2.169a5.59 5.59 0 0 1 1.282-.789c5.521-3.352 5.816-7 5.816-7.883z"/><path d="m5.9 15.7c0 .789-.592 5.028 6.507 8.972a14.823 14.823 0 0 1 2.169-2.169c-.1-.1-1.282-.789-1.38-.887-4.442-2.264-4.343-5.416-4.343-5.716v-.3c0-.3.2-2.662 4.338-5.028 5.324-3.155 6.31-5.817 6.408-6.31l-2.958-.789v-.1a4.826 4.826 0 0 1 -1.183 1.577l-4.83-2.75a1.857 1.857 0 0 0 -.789-.2 1.421 1.421 0 0 0 -1.282.789 1.5 1.5 0 0 0 .592 2.07l3.845 2.169a5.59 5.59 0 0 1 -1.282.789c-5.62 3.352-5.912 7-5.812 7.883z"/></g></svg>