<svg viewBox="0 0 32 32" xmlns="http://www.w3.org/2000/svg"><path d="m16 30a14 14 0 0 1 -14-14 14 14 0 0 1 14-14 14 14 0 0 1 14 14 14 14 0 0 1 -14 14zm.043-2.574a2.389 2.389 0 0 0 2.151-3.426l2.833-1.925a2.394 2.394 0 1 0 -.476-.664l-2.833 1.924a2.364 2.364 0 0 0 -.3-.252l4.668-9.335a2.387 2.387 0 1 0 -.728-.374l-4.68 9.358a2.654 2.654 0 0 0 -.265-.056v-4.442a2.388 2.388 0 0 0 0-4.721v-4.188a2.391 2.391 0 1 0 -.818-.015v4.214a2.389 2.389 0 0 0 0 4.694v4.472a2.3 2.3 0 0 0 -.254.063l-4.691-9.38a2.392 2.392 0 1 0 -.728.372l4.691 9.38a2.517 2.517 0 0 0 -.29.256l-2.926-1.95a2.384 2.384 0 1 0 -.455.678l2.924 1.95a2.39 2.39 0 0 0 2.181 3.367zm9.149-2.234a13 13 0 1 0 -9.192 3.808 13 13 0 0 0 9.192-3.808zm-9.192-21.374a12.106 12.106 0 0 1 8.614 3.568l.061.061a12.182 12.182 0 1 1 -8.675-3.629z" fill="#3cb773"/></svg>