<svg xmlns="http://www.w3.org/2000/svg" xml:space="preserve" viewBox="0 0 32 32"><title>file_type_vbproj</title><path fill="#5e438f" d="m7.143 25.58-4.63-3.477a1.16 1.16 0 0 1-.463-.924V10.74a1.16 1.16 0 0 1 .462-.924l4.631-3.476a1.04 1.04 0 0 0-.311.924v17.392a1.05 1.05 0 0 0 .311.924"/><path fill="#7252aa" d="M29.352 6.882a1.155 1.155 0 0 0-1.443.127l-.081.08L8.726 25.406l-.081.081a1.155 1.155 0 0 1-1.502.092l-4.63-3.476a1.155 1.155 0 0 0 1.57-.173c5.601-6.48 11.18-12.981 16.77-19.472.23-.265.542-.404.888-.404.231 0 .45.058.636.185z"/><path fill="#ae7fe2" d="M29.364 25.037 22.4 29.679a1.17 1.17 0 0 1-1.525-.208L4.095 9.988a1.155 1.155 0 0 0-1.583-.173l4.643-3.476a1.16 1.16 0 0 1 .693-.231c.3 0 .589.115.808.323l.07.081 19.102 18.317.08.08a1.155 1.155 0 0 0 1.444.128z"/><path fill="#d59dff" d="M29.872 7.84v16.226a1.16 1.16 0 0 1-.52.97L22.4 29.68a1.16 1.16 0 0 0 .508-.97V3.21a1.18 1.18 0 0 0-.531-.97l6.975 4.643a1.17 1.17 0 0 1 .52.958"/><path fill="#efeef0" d="m14.045 14.956.533 2.739.533-2.74h6.703l-4.354 16.5h-5.761l-4.36-16.5z"/><path fill="#efeef0" d="M27.385 31.456h-7.311v-16.5l7.37.01a4.52 4.52 0 0 1 3.24 2.116 5.03 5.03 0 0 1 .69 2.592 5.16 5.16 0 0 1-.643 2.47 5 5 0 0 1-.21.333 5 5 0 0 1 .6.77 5.04 5.04 0 0 1 .7 2.587 5.76 5.76 0 0 1-.623 2.89 5.33 5.33 0 0 1-3.7 2.713z"/><path fill="#00519a" d="m12.829 16.579 1.749 8.993 1.75-8.993h3.5l-3.5 13.254h-3.5l-3.5-13.254zM21.574 16.579h5.7a3.03 3.03 0 0 1 2.174 1.42 3.26 3.26 0 0 1 .428 1.656 3.44 3.44 0 0 1-.428 1.65 3.12 3.12 0 0 1-1.756 1.432 3.05 3.05 0 0 1 2.2 1.426 3.3 3.3 0 0 1 .435 1.7 4.04 4.04 0 0 1-.434 2.067 3.79 3.79 0 0 1-2.624 1.9h-5.69zm3.5 5.207h.874a1.393 1.393 0 0 0 1.213-1.528 1.374 1.374 0 0 0-1.213-1.313h-.874zm0 5.684h1.045a1.62 1.62 0 0 0 1.45-1.744 1.6 1.6 0 0 0-1.45-1.57h-1.045z"/></svg>