<svg viewBox="0 0 32 32" xmlns="http://www.w3.org/2000/svg"><path d="m30 16a14 14 0 1 1 -14-14 14 14 0 0 1 14 14z" fill="#0064bd"/><g fill-rule="evenodd"><path d="m20.086 22.537-3.269-1.637v-3.266l3.269 1.634z" fill="#fff"/><path d="m7.012 12.732 3.268-1.632 3.269 1.635-3.269 1.631zm3.268-1.632 3.269-1.634 3.268 1.634-3.268 1.635zm3.269 4.9 3.268-1.634 3.269 1.634-3.269 1.634zm3.268-4.9 3.269-1.634 3.268 1.634-3.268 1.635zm0 6.537 3.269-1.637 3.268 1.634-3.268 1.634z" fill="#bfbfbf"/><path d="m13.549 22.537v-3.269l3.268-1.634v3.266zm6.537-6.537v-3.268l3.268-1.632v3.269zm0 6.537v-3.269l3.268-1.634v3.266zm-3.269-1.637v-3.266l3.269-1.634v3.268zm-3.268-4.9v-3.268l3.268-1.632v3.269z" fill="#808080"/><path d="m7.012 16 3.268 1.634v3.266l3.269 1.634v-3.266l3.268 1.632v-3.266l-3.268-1.634v-3.268l-3.269-1.632v3.269l-3.268-1.637zm13.074 0-3.269-1.634v-3.266l3.269 1.635z" fill="#fff"/></g></svg>