<svg xmlns="http://www.w3.org/2000/svg" viewBox="0 0 32 32"><title>file_type_ng_component_js2</title><polygon points="15.604 2 15.604 2 15.604 2 2.57 6.648 4.558 23.882 15.604 30 15.604 30 15.604 30 26.65 23.882 28.638 6.648 15.604 2" style="fill:#dd0031"/><polygon points="15.604 2 15.604 5.108 15.604 5.094 15.604 19.276 15.604 19.276 15.604 30 15.604 30 26.65 23.882 28.638 6.648 15.604 2" style="fill:#c3002f"/><path d="M15.6,5.094,7.456,23.364h3.038l1.638-4.088h6.916l1.638,4.088h3.038L15.6,5.094Zm2.38,11.662h-4.76L15.6,11.03Z" style="fill:#fff"/><path d="M24.816,27.57a2.485,2.485,0,0,0,2.251,1.385c.945,0,1.549-.472,1.549-1.125,0-.782-.62-1.059-1.661-1.514l-.57-.245c-1.646-.7-2.74-1.58-2.74-3.437a3.048,3.048,0,0,1,3.341-3.014,3.372,3.372,0,0,1,3.245,1.827l-1.777,1.141a1.551,1.551,0,0,0-1.468-.978.993.993,0,0,0-1.092.978c0,.684.424.961,1.4,1.385l.57.244C29.806,25.048,30.9,25.9,30.9,27.8c0,2.054-1.614,3.179-3.78,3.179a4.383,4.383,0,0,1-4.157-2.333Zm-8.059.2c.358.636.684,1.173,1.468,1.173.75,0,1.222-.293,1.222-1.434V19.75h2.281v7.788a3.1,3.1,0,0,1-3.407,3.437A3.542,3.542,0,0,1,14.9,28.892Z" style="fill:#f5de19"/></svg>