<?xml version="1.0" encoding="UTF-8"?>
<svg version="1.1" viewBox="0 0 32 32" xml:space="preserve" xmlns="http://www.w3.org/2000/svg" xmlns:cc="http://creativecommons.org/ns#" xmlns:dc="http://purl.org/dc/elements/1.1/" xmlns:rdf="http://www.w3.org/1999/02/22-rdf-syntax-ns#"><title>file_type_godot</title><metadata><rdf:RDF><cc:Work rdf:about=""><dc:title>file_type_godot</dc:title></cc:Work></rdf:RDF></metadata><path d="m14.145 3.0137-1.0482 4.189a9.2759 9.2759 0 0 0-1.2782 0.51945l-3.6881-2.2169-2.6232 2.6251 2.2169 3.6992a9.2759 9.2759 0 0 0-0.52873 1.2708l-4.1816 1.0445v3.7104l4.189 1.0463a9.2759 9.2759 0 0 0 0.5176 1.2764l-2.2132 3.6918 2.6232 2.6232 3.6992-2.2169a9.2759 9.2759 0 0 0 1.2708 0.52873l1.0445 4.1816h3.7104l1.0463-4.189a9.2759 9.2759 0 0 0 1.2764-0.51945l3.6918 2.2151 2.6232-2.6232-2.2169-3.6992a9.2759 9.2759 0 0 0 0.52873-1.2708l4.1816-1.0445v-3.7104l-4.189-1.0463a9.2759 9.2759 0 0 0-0.51945-1.2764l2.2151-3.6918-2.6232-2.6232-3.6992 2.2169a9.2759 9.2759 0 0 0-1.2727-0.52873l-1.0426-4.1816zm1.8552 9.2759a3.7104 3.7104 0 0 1 0 7.4207 3.7104 3.7104 0 0 1 0-7.4207z" fill="#e0e0e0" stroke-width="1.8552"/></svg>
