<svg xmlns="http://www.w3.org/2000/svg" viewBox="0 0 32 32"><title>file_type_tcl@2x</title><g id="tcl"><path d="M21.94,2.88c0,2.47,0,4.91-2.17,7.23l-.08.09h1c-1.42,2.95-2.34,5.89-4.38,8.83l-.07.11.13,0,1.08-.2A5.85,5.85,0,0,1,14,22.57c-.39-5.46,2.33-10.27,4.64-15.07h0l-.09-.06c-3.79,4.23-5.49,10.2-6.14,15.13a4.58,4.58,0,0,1-2.15-3l.9.38.09,0,0-.1c-.68-3,.38-5.2,1.4-8.06l.74.49.09.06v-.1C13.37,10,14.93,7.62,17,5.54l.29.77,0,.1.06-.1L18,5.27h0A6.1,6.1,0,0,1,21.94,2.88Z" style="fill:#c3b15f"/><path d="M21.95,2.87A6.13,6.13,0,0,0,18,5.26h0l-.63,1.05-.06.1,0-.1L17,5.54c-2.07,2.08-3.63,4.41-3.58,6.73v.1l-.09-.06-.74-.49c-1,2.86-2.08,5-1.4,8.06l0,.1-.09,0-.89-.37v.05a4.53,4.53,0,0,0,2.13,2.93c0-.38.11-.77.17-1.16-1.54-3.61-.2-6.27.41-8.66l.94.54c-.13-2.24,1.18-4.65,2.89-6.76l.5.87C18.55,4.77,19.56,3.72,21.95,2.87Z" style="fill:#eff1cb;stroke:#eff1cb"/><path d="M22.52,2h-.06c-2.08.36-4.12,1.13-5,3l-.38-.66,0-.06,0,0A20.85,20.85,0,0,0,14,7.8,5.94,5.94,0,0,0,12.83,11l-.53-.66-.05-.07,0,.08A27.54,27.54,0,0,0,10.52,15a6.73,6.73,0,0,0-.16,3.72l-.88-.51-.07,0v.09a5.53,5.53,0,0,0,2,4.84l-1,.24-.2,0,.2.05a4.26,4.26,0,0,1,1.45.6,1.33,1.33,0,0,1,.52,1.3h0V28.1h0l1.22,1.75.1.14V25.72a3.47,3.47,0,0,1,.62-1.48,1.64,1.64,0,0,1,1.13-.54l.18,0-.17-.08-.64-.3A9.11,9.11,0,0,0,18.56,18l0-.09-.08,0-.79.21a11.67,11.67,0,0,0,2.09-3.5c.72-1.62,1.38-3.46,1.93-4.92l0-.08h-.08l-.61,0a6.66,6.66,0,0,0,1.38-3.53,17,17,0,0,0,.08-4.09Zm-.58.88c0,2.47,0,4.91-2.17,7.23l-.08.09h1c-1.42,2.95-2.34,5.89-4.38,8.83l-.07.11.13,0,1.08-.2A5.85,5.85,0,0,1,14,22.57c-.39-5.46,2.33-10.27,4.64-15.07h0l-.09-.06c-3.79,4.23-5.49,10.2-6.14,15.13a4.58,4.58,0,0,1-2.15-3l.9.38.09,0,0-.1c-.68-3,.38-5.2,1.4-8.06l.74.49.09.06v-.1C13.37,10,14.93,7.62,17,5.54l.29.77,0,.1.06-.1L18,5.27h0A6.1,6.1,0,0,1,21.94,2.88Z"/></g></svg>