<svg xmlns="http://www.w3.org/2000/svg" viewBox="0 0 32 32"><title>file_type_light_symfony</title><path d="M16,2A14,14,0,1,1,2,16,14,14,0,0,1,16,2Zm6.121,5.18A5.022,5.022,0,0,0,18.533,9.1a12.09,12.09,0,0,0-2.194,4.038,7.827,7.827,0,0,0-2.962-2.056,3.621,3.621,0,0,0-3.281.6,2.943,2.943,0,0,0-1,1.462,3.31,3.31,0,0,0,.837,3.034l.86.922a1.306,1.306,0,0,1,.4,1.328,1.588,1.588,0,0,1-2.021.93c-.406-.124-.989-.426-.858-.852a3.937,3.937,0,0,1,.245-.455,2.136,2.136,0,0,0,.109-.283,1.138,1.138,0,0,0-.641-1.427A.954.954,0,0,0,6.708,17c-.244.792.135,2.231,2.167,2.857,2.38.731,4.393-.565,4.679-2.255.18-1.059-.3-1.845-1.174-2.857l-.713-.789a1.3,1.3,0,0,1-.133-1.733,1.531,1.531,0,0,1,1.8-.441c1.285.349,1.858,1.241,2.814,1.96-.395,1.295-.653,2.594-.886,3.759l-.142.869c-.683,3.584-1.2,5.552-2.56,6.681a2.195,2.195,0,0,1-1.252.505.36.36,0,0,1-.412-.3c-.007-.217.175-.316.3-.413a.75.75,0,0,0,.437-.788,1.188,1.188,0,0,0-1.276-1.134,1.48,1.48,0,0,0-1.373,1.5c.033.99.956,1.732,2.347,1.685a5.621,5.621,0,0,0,4.041-2.274A14.159,14.159,0,0,0,18.2,17.184l.447-2.47c.248.03.514.05.8.057,2.373.05,3.559-1.179,3.577-2.073a.969.969,0,0,0-.868-1.061.99.99,0,0,0-.94.763c-.108.5.755.949.08,1.386a3.762,3.762,0,0,1-2.549.351l.22-1.216c.449-2.306,1-5.143,3.1-5.212.153-.008.713.007.726.377,0,.124-.027.155-.172.439a1,1,0,0,0-.2.625.984.984,0,0,0,1.116.952,1.207,1.207,0,0,0,1.1-1.306c-.035-1.018-1.109-1.662-2.53-1.615Z" style="fill:#1a171b"/></svg>