<svg xmlns="http://www.w3.org/2000/svg" viewBox="0 0 32 32"><title>file_type_docker2@2x</title><g id="docker2"><path d="M16.54,12.66H19.4v2.92h1.45a6.27,6.27,0,0,0,2-.33,5.09,5.09,0,0,0,1-.44A3.58,3.58,0,0,1,23.13,13a3.91,3.91,0,0,1,.7-2.75l.3-.35.36.29A4.56,4.56,0,0,1,26.29,13a4.38,4.38,0,0,1,3.32.31l.39.23-.21.4a4.14,4.14,0,0,1-4.16,2c-2.48,6.17-7.87,9.09-14.41,9.09C7.85,25.06,4.75,23.8,3,20.8l0,0-.26-.52A8.32,8.32,0,0,1,2,16l0-.43H4.53V12.66H7.39V9.8h5.72V6.94h3.43v5.72Z" style="fill:#0096e6"/><path d="M12,24.57a6,6,0,0,1-3.14-3.09,10.33,10.33,0,0,1-2.26.34l-1,0q-.63,0-1.33,0a9.05,9.05,0,0,0,7,2.77Z" style="fill:#fff"/><path d="M7.08,13.35h.2v2.07h-.2Zm-.38,0h.2v2.07H6.7V13.35Zm-.38,0h.2v2.07h-.2Zm-.38,0h.2v2.07H6Zm-.38,0h.2v2.07h-.2Zm-.37,0h.2v2.07h-.2V13.35ZM5,13.14H7.48v2.48H5Zm2.86-2.86h2.48v2.48H7.86Zm2.08.21h.2v2.07h-.2Zm-.38,0h.2v2.07h-.2Zm-.38,0h.2v2.07h-.2V10.49Zm-.38,0H9v2.07h-.2Zm-.38,0h.2v2.07h-.2Zm-.37,0h.2v2.07h-.2Zm-.21,2.65h2.48v2.48H7.86V13.14Zm2.08.21h.2v2.07h-.2Zm-.38,0h.2v2.07h-.2Zm-.38,0h.2v2.07h-.2V13.35Zm-.38,0H9v2.07h-.2Zm-.38,0h.2v2.07h-.2Zm-.37,0h.2v2.07h-.2Zm2.65-.21H13.2v2.48H10.72V13.14Zm2.08.21H13v2.07h-.2Zm-.38,0h.2v2.07h-.2Zm-.38,0h.2v2.07H12Zm-.38,0h.2v2.07h-.2Zm-.38,0h.2v2.07h-.2Zm-.37,0h.2v2.07h-.2Zm-.21-3.07H13.2v2.48H10.72V10.28Zm2.08.21H13v2.07h-.2Zm-.38,0h.2v2.07h-.2Zm-.38,0h.2v2.07H12Zm-.38,0h.2v2.07h-.2Zm-.38,0h.2v2.07h-.2Zm-.37,0h.2v2.07h-.2Zm2.65,2.65h2.48v2.48H13.58V13.14Zm2.08.21h.2v2.07h-.2Zm-.38,0h.2v2.07h-.2Zm-.38,0h.2v2.07h-.2Zm-.38,0h.2v2.07h-.2Zm-.38,0h.2v2.07h-.2Zm-.37,0H14v2.07h-.2V13.35Zm-.21-3.07h2.48v2.48H13.58V10.28Zm2.08.21h.2v2.07h-.2Zm-.38,0h.2v2.07h-.2Zm-.38,0h.2v2.07h-.2Zm-.38,0h.2v2.07h-.2Zm-.38,0h.2v2.07h-.2Zm-.37,0H14v2.07h-.2V10.49Zm-.21-3.07h2.48V9.9H13.58V7.42Zm2.08.21h.2V9.69h-.2Zm-.38,0h.2V9.69h-.2Zm-.38,0h.2V9.69h-.2Zm-.38,0h.2V9.69h-.2Zm-.38,0h.2V9.69h-.2Zm-.37,0H14V9.69h-.2V7.62Zm2.65,5.51h2.48v2.48H16.45V13.14Zm2.08.21h.19v2.07h-.2V13.35Zm-.38,0h.21v2.07h-.21Zm-.38,0H18v2.07h-.2Zm-.38,0h.2v2.07h-.2Zm-.38,0h.2v2.07H17V13.35Zm-.37,0h.2v2.07h-.19V13.35Z" style="fill:#fff"/><path d="M10.19,19.64a.68.68,0,1,1-.68.68A.68.68,0,0,1,10.19,19.64Zm0,.19a.49.49,0,0,1,.18,0,.2.2,0,1,0,.28.27.49.49,0,1,1-.45-.3Z" style="fill:#fff"/></g></svg>