<svg viewBox="0 0 32 32" xmlns="http://www.w3.org/2000/svg" xmlns:xlink="http://www.w3.org/1999/xlink"><mask id="a" height="28" maskUnits="userSpaceOnUse" width="27.544" x="2.228" y="2"><path d="m29.769 2c-.363 7.372-1.439 14.182-4.31 20.593-2.2 4.921-7.243 7.483-12.926 6.762a12.347 12.347 0 0 1 -10-9.325c-1.16-5.285 1.023-10.814 5.712-13.221 6.619-3.398 13.855-4.365 21.524-4.809" fill="#fff"/></mask><g mask="url(#a)"><path d="m14.481 10.193s-.635 3.516-.887 5.3c-1.285-1-3.829-2.824-3.829-2.824s2 2.684 2.938 3.882c-1.79.2-5.379.762-5.379.762s3.67.59 5.379.788c-.991 1.255-2.947 3.8-2.947 3.8s2.658-1.836 3.852-2.756c.244 1.708.873 5.345.873 5.345s.576-3.634.8-5.405c1.181.92 3.673 2.842 3.673 2.842s-1.737-2.6-2.687-3.827c1.727-.2 5.237-.787 5.237-.787s-3.544-.564-5.225-.759c.87-1.179 2.692-3.887 2.692-3.887s-2.553 1.98-3.692 2.892c-.211-1.76-.793-5.364-.793-5.364m15.286-8.145c-.363 7.372-1.439 14.182-4.31 20.593-2.2 4.921-7.243 7.483-12.926 6.762a12.347 12.347 0 0 1 -10-9.325c-1.161-5.285 1.023-10.815 5.712-13.222 6.619-3.397 13.852-4.364 21.524-4.808" fill="#e21708"/><g fill-opacity=".3"><path d="m2.9 13.188a11.576 11.576 0 0 1 1.824-3.4c.3-.368.632-.736 1-1.116a10.552 10.552 0 0 1 1.038-.885c.336-.245.707-.487 1.105-.721q.189-.107.384-.207a35.826 35.826 0 0 1 4.914-2.068 56.7 56.7 0 0 1 13.635-2.538c1.169-.089 2.182-.148 2.974-.2a80.813 80.813 0 0 0 -17.574 5.732c-5.221 2.283-9.678 7.243-9.914 8.664a17.75 17.75 0 0 1 .614-3.261z" fill="#fa524a"/><path d="m12.674 29.9a11.818 11.818 0 0 1 -1.565-.305 12.652 12.652 0 0 1 -5.646-3.539 12.061 12.061 0 0 1 -2.924-5.5 13.141 13.141 0 0 1 -.308-2.868c.059 8.611 10.121 9.942 12.812 9.942 4.272 0 4.218-.851 10.853-5.517q-.211.506-.434 1.005a11.437 11.437 0 0 1 -8.12 6.566 13.531 13.531 0 0 1 -2.932.316 14.859 14.859 0 0 1 -1.736-.1z" fill="#ae0e10"/></g></g></svg>