<svg xmlns="http://www.w3.org/2000/svg" viewBox="0 0 32 32"><path fill="#E04E39" d="M30 16c0 7.732-6.268 14-14 14S2 23.732 2 16 8.268 2 16 2s14 6.268 14 14Z"/><path fill="#fff" d="M10.561 17.211c-.32 0-.626-.122-.855-.343a1.216 1.216 0 0 1-.027-1.726l8.293-8.5a1.229 1.229 0 0 1 1.337-.29 1.23 1.23 0 0 1 .677.652 1.213 1.213 0 0 1-.25 1.336l-8.293 8.5a1.225 1.225 0 0 1-.882.371Zm5.409.325a1.23 1.23 0 0 1-1.128-.742 1.209 1.209 0 0 1 .248-1.321l6.55-6.713a1.23 1.23 0 0 1 1.715-.01 1.212 1.212 0 0 1 .044 1.702l-6.55 6.714a1.223 1.223 0 0 1-.88.37ZM13.315 26a1.228 1.228 0 0 1-1.228-1.2c-.005-.324.12-.637.346-.87L23.889 12.19a1.233 1.233 0 0 1 1.726-.016 1.216 1.216 0 0 1 .039 1.714L14.198 25.629a1.227 1.227 0 0 1-.883.371ZM9.72 23.924a1.23 1.23 0 0 1-1.127-.735 1.213 1.213 0 0 1 .245-1.334l3.123-3.2a1.233 1.233 0 0 1 1.727-.017 1.216 1.216 0 0 1 .038 1.714l-3.123 3.201a1.226 1.226 0 0 1-.883.371ZM7.23 14.662a1.234 1.234 0 0 1-1.132-.744 1.212 1.212 0 0 1 .25-1.325l3.122-3.201a1.233 1.233 0 0 1 1.73-.02 1.216 1.216 0 0 1 .035 1.718l-3.123 3.2a1.226 1.226 0 0 1-.882.372Zm16.064 6.97a1.23 1.23 0 0 1-.855-.343 1.216 1.216 0 0 1-.027-1.726l1.478-1.515a1.229 1.229 0 0 1 1.335-.285 1.215 1.215 0 0 1 .43 1.983l-1.479 1.515a1.225 1.225 0 0 1-.882.372Zm-2.88 3.026a1.213 1.213 0 0 1-.758 1.127 1.235 1.235 0 0 1-1.605-.66 1.213 1.213 0 0 1 .267-1.33 1.23 1.23 0 0 1 1.338-.264 1.226 1.226 0 0 1 .759 1.127Zm-11.74-5.466a1.213 1.213 0 0 1-.356.872 1.23 1.23 0 0 1-1.347.267 1.23 1.23 0 0 1-.665-.668 1.213 1.213 0 0 1 .274-1.325 1.233 1.233 0 0 1 1.729 0c.23.226.36.533.364.854ZM14.507 7.22a1.212 1.212 0 0 1-.36.863 1.229 1.229 0 0 1-.869.357 1.235 1.235 0 0 1-1.135-.753 1.212 1.212 0 0 1 .266-1.33 1.232 1.232 0 0 1 2.098.863Z"/></svg>