<svg xmlns="http://www.w3.org/2000/svg" viewBox="0 0 32 32"><title>file_type_neo4j</title><path fill="#d2d2d2" d="M18.79 2.97a8.64 8.64 0 0 0-4.8 2.34c-1.43 1.44-2.17 3.17-2.42 5.73a55.24 55.24 0 0 0-.07 5.77l.52-.2a4.54 4.54 0 0 1 2.61-.01l.52.18.07-3c.06-3.19.13-3.67.73-4.87.41-.8 1.4-1.72 2.25-2.1.97-.46 2.39-.63 3.48-.46A4.89 4.89 0 0 1 26 10.27c.23.9.24 1.38.24 6.38v5.38H30l-.06-5.88c-.04-5.56-.06-5.93-.33-6.92-.7-2.76-2.42-4.77-4.82-5.67-1.28-.49-2.5-.68-4.18-.66-.83 0-1.65.05-1.83.07z"/><path fill="#018bff" d="M3.64 12.16A2.91 2.91 0 0 0 2 14.95c0 .4.07.93.17 1.16.24.59.91 1.3 1.5 1.6.7.38 2.05.38 2.74.02l.51-.26 1.6 1.08 1.59 1.1v1.65l-1.6 1.1-1.6 1.09-.4-.25a3.35 3.35 0 0 0-2.47-.15 3.5 3.5 0 0 0-1.8 1.62 3.77 3.77 0 0 0 0 2.6c.26.6.87 1.24 1.41 1.52.23.11.76.23 1.21.26a2.94 2.94 0 0 0 2.56-1.02c.51-.6.85-1.64.76-2.36l-.06-.5 3.2-2.17.58.26c.87.37 2.16.29 2.98-.21a2.85 2.85 0 0 0 1.4-2.48c.03-.78 0-.95-.32-1.56a3.08 3.08 0 0 0-4.15-1.36l-.46.23-1.58-1.09-1.58-1.08-.04-.87a2.78 2.78 0 0 0-1.05-2.32 3.2 3.2 0 0 0-3.46-.4z"/></svg>