<svg viewBox="0 0 32 32" xmlns="http://www.w3.org/2000/svg"><path d="m26.636 7.23c-.01 3.7-.028 7.408 0 11.112a5.923 5.923 0 0 1 -1.136 3.567 17.163 17.163 0 0 1 -4.125 3.923 36.942 36.942 0 0 1 -5.162 3.068.4.4 0 0 1 -.4.02 31.29 31.29 0 0 1 -7.69-5.134 9.278 9.278 0 0 1 -2.5-3.525 4.273 4.273 0 0 1 -.254-1.477v-5.6-5.971a.376.376 0 0 1 .3-.415q5.031-1.866 10.067-3.761a.656.656 0 0 1 .507 0q5.036 1.889 10.075 3.756a.4.4 0 0 1 .318.437z" fill="#18665f"/><path d="m27.421 6.222q-5.61-2.078-11.211-4.179a.552.552 0 0 0 -.426 0q-5.584 2.093-11.184 4.17a.353.353 0 0 0 -.267.406v6.181 5.871a5.508 5.508 0 0 0 .367 1.984 10.509 10.509 0 0 0 2.758 3.863 32.027 32.027 0 0 0 8.359 5.444.431.431 0 0 0 .413-.033 36.641 36.641 0 0 0 4.644-2.576 20.693 20.693 0 0 0 5.026-4.327 7.02 7.02 0 0 0 1.765-4.426v-12.017a.311.311 0 0 0 -.244-.361zm-2.37 15.4a16.31 16.31 0 0 1 -3.93 3.734 35.028 35.028 0 0 1 -4.921 2.918.382.382 0 0 1 -.386.02 29.806 29.806 0 0 1 -7.323-4.883 8.85 8.85 0 0 1 -2.381-3.357 4.093 4.093 0 0 1 -.243-1.408v-5.338-5.681a.36.36 0 0 1 .288-.4q4.8-1.78 9.593-3.578a.625.625 0 0 1 .484 0q4.793 1.8 9.6 3.578a.374.374 0 0 1 .3.419c-.009 3.526-.025 7.054 0 10.577a5.63 5.63 0 0 1 -1.077 3.393z" fill="#054f42"/><path d="m23.964 16a7.965 7.965 0 1 0 -7.964 7.964 7.964 7.964 0 0 0 7.964-7.964zm-1.876-3.1-7.5 7.5-.536.535-4.141-4.148 1.83-1.829 2.318 2.318 6.2-6.2z" fill="#45ad49"/></svg>