<?xml version="1.0" encoding="UTF-8"?>
<svg width="614px" height="237px" viewBox="0 0 614 237" version="1.1" xmlns="http://www.w3.org/2000/svg" xmlns:xlink="http://www.w3.org/1999/xlink">
    <!-- Generator: Sketch 41.2 (35397) - http://www.bohemiancoding.com/sketch -->
    <title>babel</title>
    <desc>Created with Sketch.</desc>
    <defs></defs>
    <g id="Page-1" stroke="none" stroke-width="1" fill="none" fill-rule="evenodd">
        <g id="babel" fill="#F4D44B">
            <path d="M544.2,7.3 C542.6,14.6 540,20 536.5,23.6 L534,22 C536.7,15.1 538,11.1 537.9,10.1 L537.2,9 C536.3,9.1 535.1,11.5 533.6,16.3 L532.3,16.4 C532.2,15.5 532,14.8 531.6,14.1 L531,14.2 C519.2,47.1 513.9,62.4 503,87.7 C501,94.2 499.3,97.8 497.8,98.5 C497.9,99.2 498.3,99.6 499.1,99.5 C499.4,102.7 498.6,105.8 496.9,108.9 C491.8,123.4 488.5,131.4 486.8,132.8 L487.9,139.7 C488,140.4 487.6,140.9 486.8,140.9 L485.6,141 C485.4,139.1 484.7,138.2 483.5,138.3 L482.9,138.4 C481.4,140.8 480.2,143.6 479.4,146.8 L480.6,146.7 C482.2,145.7 482.9,144.5 482.8,143 L485.2,142.8 L486.5,143.3 C485.4,145 484.9,146.4 485,147.4 L485.6,148.5 L484.1,152.1 L484.2,152.7 C485.6,152.6 487.1,153 488.7,154 C489.8,153.9 491,153.4 492.3,152.6 C493.7,152.5 498.7,152.4 507.5,152.4 L511.9,150.9 C517.3,150.8 518.1,151 522.8,150.6 L524.7,150.4 L525.7,149.7 L525.8,150.3 C530.6,149.9 531,150.2 534.8,150.7 L534.9,151.3 L532.2,151.5 L532.3,152.6 C533.1,152.5 533.8,152.3 534.4,151.8 C535.1,151.7 535.5,152.1 535.6,152.9 C534.5,153 533.3,153.3 531.9,153.7 L530.7,153.3 C528.8,153.8 529.2,153.9 528,154 L526.1,153.6 C526.1,153.9 526,154.1 525.7,154.2 C525.8,154.9 526.1,155.3 526.8,155.2 L529.1,155 L528.1,154.6 C528.1,154.9 528.3,155.1 528.7,155.1 L538.6,154.2 L542.4,153.4 C542.4,153.7 542.6,153.9 542.9,153.9 L544.7,153.2 L548.1,152.9 C550.8,152.7 550.7,152.5 556.4,151.6 C556.4,151.3 556.5,151.1 556.8,151.1 L556.8,151.6 C567.7,149.8 566.7,149.9 569,149.1 L568.5,147.9 C565.4,148.6 565.5,148.2 563.9,148.4 L555.6,148.8 L555.5,148.2 L560.1,147.6 L561.8,147.5 L562.7,146.8 L562.8,147.4 C569.3,146.8 571.6,148.5 601.9,142.1 C603.5,142 603.4,140.6 604.4,137.8 C603.8,137.8 603.3,137.7 602.8,137.4 C600.3,138.4 599,137.9 594.2,138.7 C593.8,138.7 593.5,138.4 593.3,137.6 L593.3,137.1 L597.9,137.3 C598.7,137.2 600.5,137.1 602.9,135.7 C603.4,136 602.5,136.3 603,136.2 L603.8,136.1 C604.3,136.1 604.5,135.7 604.5,134.9 L604,133.8 C600.9,134.1 599.4,134.2 596.9,135.6 L596.8,135 L593,135.4 C592.9,134.2 592.6,133.7 592.1,133.7 L590.1,133.9 C587.8,134.1 586.7,134 585.6,134.9 C585.6,134.5 585.4,134.3 585.2,134.3 L583,134.5 L581.7,135.2 C581.7,134.8 581.5,134.6 581.3,134.6 L580.5,135.3 L580.4,134.7 L577.4,134.5 L576.7,134.6 L576.8,135.7 L578.4,136.1 L579.8,136 C580.3,136.3 580.9,136.4 581.5,136.4 L582.8,135.8 L582.8,136.3 C575.7,138.1 575.7,137.7 570.8,138.6 C570.2,138.2 569.8,138.1 569.6,138.1 C569.1,138.6 570.2,138.2 569.9,138.2 C569.1,138.3 568.7,137.9 568.6,137.2 L571.1,136.9 C571.3,136.9 571.4,137.1 572.8,137.4 C574.8,136.4 574.9,136 576,135.9 L575.9,134.8 C568.9,136.2 571.7,135.3 562.9,136 L562.5,136 L562.4,134.9 C573.7,133.5 569.9,134.3 573.7,133.2 C573.7,133.6 573.9,133.8 574.1,133.8 C574.5,133.4 575.1,133.1 575.7,133.1 L576.5,133 C580.4,132.7 581.8,133.5 589.6,131.3 L589.6,131.8 L590.9,131.2 L592.1,131.1 C592,129.9 593.8,129.8 594.3,129.7 L594.2,128.5 C580.5,131.3 576.9,130.5 573.1,131.6 L573.1,131.1 C569.5,131.8 569.4,131.4 568.5,131.5 C568.2,131.5 567.8,131.8 567.4,132.2 C567.4,131.8 567.2,131.6 566.9,131.6 C566.3,131.6 566.6,131.8 566.1,132.3 L566.9,131.6 L555,133.5 C555,133.2 554.8,133 554.5,133 C548.5,134.3 550.1,134.5 542,135.2 C541.6,135.2 541.1,135.4 540.5,135.8 C540.5,135.5 540.3,135.3 539.9,135.3 L534.9,135.7 L531.6,136.5 C531.6,136.2 531.4,136 531,136 C529.1,136.5 527.5,136.8 526.2,136.9 L526.1,136.9 C525.3,137 526.5,136.7 525.9,136.4 L524.9,137 C523.4,137.1 524.2,136.9 519.2,137 C510.4,138.1 511.4,138.2 510.4,138.3 L507.1,138.1 C507.1,138.4 507,138.6 506.6,138.7 C502.9,138.2 501,137.6 500.9,136.9 C501.4,133.4 502.2,131.6 503.5,131.4 L504.1,131.3 L503.5,132.5 L504.1,132.4 C505.3,131.8 505.8,131.2 505.8,130.6 L505.7,129.4 L504.5,129.5 L504.4,128.4 C504.3,127.5 504.4,126.8 504.7,126.1 L507.4,121.8 L507.5,122.9 L508.8,122.8 L508.7,121.7 L508,120.6 C508.9,119.8 509.7,119.3 510.3,119.3 L510.2,118.7 L508.5,118.8 L508.4,117.1 C511.8,109.9 513.5,105.7 513.4,104.6 L514.6,105.1 C515.4,105 515.8,104.6 515.7,103.8 L514.5,103.9 L514.5,103.4 C514.4,102.5 514.6,101.7 514.9,101 C516.8,99.1 517.6,97.1 517.4,95 C517.8,95 518,95.2 518,95.6 C519.6,94.7 520.8,92.3 521.7,88.3 C524.5,83.2 528.5,73 533.7,57.8 C543.7,30.9 543.3,28 544.7,21.7 L543.5,21.8 C543.6,22.6 543.4,23.4 543,24.1 C542.2,23.8 541.5,23.6 541.1,23.6 L541.1,23.1 C540.9,20.8 541.9,18 544.1,14.7 L544.6,14.7 L545.6,18.6 L546.8,18.5 C546.8,18.2 547.1,16.7 547.7,13.8 C547.6,13.2 547.2,12.9 546.3,12.8 L545.2,13.5 C545.1,12.7 545.2,10.6 545.3,7.1 L544.2,7.3 L544.2,7.3 Z M529.8,24.6 L530.4,24.5 C529.5,26.1 528.8,27 528.1,27.1 L528,25.4 C528.5,25.3 529.1,25.1 529.8,24.6 Z M524.8,36.6 C526,31.7 527.2,28.9 528.3,28.2 L528.4,28.8 C527.8,33.4 526.8,35.7 525.4,35.9 L525.6,38.8 C524.5,40.3 524,41.5 524.1,42.4 L523.5,42.5 L523.2,38.5 C523.8,38.4 524.4,37.8 524.8,36.6 L524.8,36.6 Z M522.9,43.1 C523,43.8 522.5,45.4 521.6,47.8 L521,47.9 L520.9,46.2 C521.6,44.2 522.3,43.2 522.9,43.1 Z M490,115.8 L490.6,116.9 C491.5,116.8 491.9,116.4 491.8,115.7 L491.7,115.1 L491.1,115.2 L490,115.8 L490,115.8 Z M505.8,128.9 L505.8,129.4 C506.7,129.3 507.6,127.7 508.4,124.6 L507.2,124.2 C506.2,126.9 505.8,128.4 505.8,128.9 L505.8,128.9 Z M607,132.4 L607,132.9 L606,134.1 L607.9,133.4 L608.1,133.4 L608,132.3 L607.6,132.3 L606.9,132.9 C606.9,132.6 609,132 607.4,131.7 C607.1,132.2 607.9,132.3 607,132.4 Z M610.9,136 L613.6,135.8 C613.5,135.1 611.8,134.9 611.2,134.9 L610.8,134.9 L610.9,136 L610.9,136 Z M563.1,137 L563.9,138 C563.9,137.7 564,137.5 564.3,137.5 L564.9,138.6 L562.4,138.3 C562.2,137.5 562.5,137.1 563.1,137 Z M554.9,137.9 C555.8,137.8 556.4,138.4 556.4,139.2 L553.6,139.2 L553.6,138.7 C553.9,138.6 554.4,138.4 554.9,137.9 Z M561.3,137.6 L561.4,138.2 L559.1,138.4 L559,137.8 L561.3,137.6 Z M538.1,140 C538.1,140.3 538.3,140.5 538.7,140.5 C542.4,139.8 542,139.7 543.8,139.5 C544.4,139.4 544.7,139.8 544.8,140.5 L534.5,141.4 L535.5,141.9 L535.4,141.3 L531.5,141.6 L531.4,141 L534.9,140.7 L538.1,140 L538.1,140 Z M548.7,139.1 L548.7,139.6 C548.4,139.6 549.7,139.7 549.1,140.2 C546.9,140 546.8,139.8 545.2,139.9 L545.2,139.4 L548.7,139.1 Z M551.3,138.8 L551.3,139.3 L549.4,139.5 L549.4,139 L551.3,138.8 Z M487.3,149 L487.4,150.7 C486.8,150.8 486.3,150.4 486.1,149.6 L486.1,149.1 L487.3,149 L487.3,149 Z M572.9,147.5 L573,148.6 L575,148.4 L574.2,147.9 L574.3,148.5 L576.3,147.7 C590,146.2 591.6,146.8 591.4,145.2 L591.4,144.7 C577.6,147.8 575.8,147.2 572.9,147.5 L572.9,147.5 Z M594.3,145.6 L596.3,146 L596.2,144.9 L594.2,144.5 L594.3,145.6 Z M535.1,149.5 C535.7,149.8 534.4,150.1 535.2,150 L542.2,149.4 L542.3,150 C540.3,150.2 539,150.5 538.6,150.9 C538.6,150.5 538.4,150.3 538,150.3 L535,150.6 L534.9,150 C535.7,149.9 534.5,149.9 535.1,149.5 L535.1,149.5 Z M567.5,148.7 L568.1,149.8 C570.4,149.3 569.1,149.4 569.7,148.9 C569.7,149.3 569.9,149.5 570.1,149.5 L571.7,149.4 L571.6,148.2 L567.4,148.1 L567.5,148.7 L567.5,148.7 Z M527.9,153 L527.5,153 L527.4,151.9 L527.8,151.9 L527.9,153 Z M496.6,156.8 L496.7,157.4 L515.1,155.9 L515,154.8 L500.3,156 L497.2,155.6 L496.6,156.8 Z M517.1,155.7 L517.3,155.7 L517.2,154.6 L517,154.6 L517.1,155.7 Z M237.1,59.1 C224.1,74.6 217.4,83.1 216.9,84.8 C211.6,90.3 209,93.6 209.3,94.7 C207.9,95.6 207.3,96.5 207.5,97.5 C207.1,97.6 206.8,97.4 206.7,97 C204.4,100.7 201.1,103 196.6,104.1 L191.9,105.2 C191.3,105.3 191,105.8 191,106.6 L191.1,107.2 L192.9,106.8 L193,107.3 L189,108.8 L181.9,110.4 L178.2,110.6 C177.7,111.1 181.1,110.5 179.8,110.9 L175.2,112 C172.4,112.7 170.8,112.4 170.6,111.3 L170.1,111.4 C170.4,112.5 170.1,113.2 169.3,113.4 L170.2,113.2 L169.8,111.5 L161.4,113.5 L162.3,113.9 C162.2,113.5 161.8,113.4 161,113.6 L159.9,114.5 L158.6,114.2 C157.4,114.9 156.6,115.3 156.4,115.3 L155.1,115 C151.6,117 154.2,117 154,117 L154.3,118.1 L156.3,117.6 L159.4,117.4 L159.1,118.7 C147.7,121.7 156,120 152.9,120.7 L152.3,120.8 L152.6,121.9 L154.4,121.5 L154.5,122.1 C152.2,122.6 150.9,123.1 150.5,123.6 L150.4,123 C147.4,123.7 144.4,126 141.4,129.8 C141.9,132 135.4,134.7 166,127.6 C168.1,127.5 169.3,127.5 169.6,127.4 C169.5,127 169.7,126.8 170.1,126.7 C173.5,126.3 171.9,126.9 174,126.4 L180.6,124.9 L179.2,125.7 C179.1,125.4 179.3,125.2 179.6,125.1 C180.4,125.3 181.2,125.2 182.1,125 L182.5,126.7 L156.4,168.1 L150.6,175.3 L147.8,184.8 L148.3,184.7 L151.1,183.5 L150.2,187.2 L150.5,188.3 L151.3,189.3 C150.9,189.4 150.8,189.6 150.9,190 L151,190.6 L152.2,190.3 C153.9,188.8 154.6,187.4 154.4,186.2 C156.3,186.5 157.5,186.6 158.1,186.5 L158.2,187.1 C157.1,187.4 156.5,188.3 156.4,189.8 L156.5,190.4 L157.1,190.3 C166.6,180 189.7,144.7 208.3,120.7 C207.7,118.1 217.4,114.5 237.4,109.9 L238,109.8 C238.7,112.9 237.2,120.5 233.4,132.6 C230.9,139.9 229.8,143.9 229.9,144.5 C226.7,154.2 225.2,159.4 225.4,160.2 L218.3,183.4 C213.7,195.3 210.2,207.8 207.8,221 C208.2,220.9 208.9,221 209.7,221.2 L210.7,220.3 C210.8,220.7 211,220.8 211.5,220.8 L211.1,219.1 L214.2,219 C215.1,218.8 215.9,217.6 216.5,215.5 C216.4,212.4 217,210.7 218.4,210.3 C220.3,202.9 221.5,199.1 221.9,199 C223.7,191.6 225,187.4 225.9,186.3 C228.6,176.7 230.5,171.7 231.8,171.4 L232.1,172.6 L230.2,177.7 C226.8,192.8 223.3,204.8 219.8,213.6 L220.8,218 L221.4,217.9 C229.9,199.7 242,163.7 257.9,109.9 C258.4,105.2 260.6,101.5 264.7,98.9 L263.8,98 L263.7,97.5 C265.5,97.1 266.8,96.4 267.5,95.4 C267.4,95 265.8,94.4 262.7,93.6 L272.1,53.4 C274.9,41.4 276.8,30.9 277.8,21.7 L277.7,21.1 C275.8,19.9 273.9,18.2 272.2,16 L272.2,13.6 L272.1,13.1 L271.6,13.2 C265.8,22 254.2,37.3 237.1,59.1 L237.1,59.1 Z M250.4,68.2 C250.9,70.3 250.1,74.2 248.1,79.9 C247.5,87.1 244.9,91.2 240.4,92.3 L240.3,91.7 L236.3,93.2 L234.5,93.6 C233.6,93.8 232.8,93.8 232,93.5 L231.6,91.9 C231.5,91.3 237.2,83.3 249,68 L250.4,68.2 L250.4,68.2 Z M241.2,93.2 L242.5,92.9 L242.8,94 C236.5,95.9 233,96.9 232.3,97.1 C231.9,97.2 231.3,97.5 230.6,98.1 C230.5,97.7 229.7,97.7 228.1,98 C227.8,96.9 232.2,95.3 241.2,93.2 L241.2,93.2 Z M179.1,110 L180.5,109.7 L180.2,108.5 L178.8,108.8 L179.1,110 Z M197.4,105.2 L197.7,106.3 L194.7,106.5 L194.6,105.9 L197.4,105.2 L197.4,105.2 Z M162.4,116.7 L162.5,117.3 L160.6,117.7 L160.5,117.1 L162.4,116.7 Z M158.9,124 L159,124.5 L156.7,125 L156.4,123.9 L158.9,124 L158.9,124 Z M164.4,122.8 L164.5,123.3 L160.3,124.3 L160.2,123.8 L164.4,122.8 Z M171.7,121.6 L171.8,122.2 L160.8,124.7 L160.5,123.6 C166.9,122.5 166.2,122.9 171.7,121.6 L171.7,121.6 Z M226.8,108.8 L227.7,109.8 C226.4,110.1 225.4,110.5 224.9,111 L223.6,110.8 C221.6,111.6 219.8,112.2 218.4,112.5 L217.2,112.8 C216.5,113 216,112.7 215.7,112 L224,110.1 L226.8,108.8 L226.8,108.8 Z M232.7,107.5 L238.6,106.1 L238.7,106.7 C235.5,107.4 233,108.2 231.2,109.1 L231.1,108.5 C231.6,108.4 232.1,108 232.7,107.5 Z M170.7,124.3 L173.5,123.7 L173.8,124.8 C172.6,125.1 173.5,125.1 172,125.8 C169.1,126.1 169.7,125.7 165.1,126.8 L165,126.2 L170.7,124.3 Z M178.3,123 C179.1,122.8 179.6,123.1 179.7,123.9 L178,124.3 C177.3,124.5 176.8,124.2 176.5,123.4 L178.3,123 L178.3,123 Z M147,186.2 L147.1,186.8 C147.9,186.6 148.2,186.2 148,185.4 L147.9,184.8 C147.2,185 146.9,185.4 147,186.2 Z M149.4,196.2 C149.6,196.9 150,197.2 150.8,197 C151.6,196.8 151.9,196.4 151.7,195.6 L151.6,195 L150.4,195.3 L149.4,196.2 L149.4,196.2 Z M484.278507,23.2736599 L488.8,22 C490.6,22.2 491.5,22.6 491.5,23.1 C493.1,22.5 495,22.1 497.2,21.9 L497.1,21.2 L492.5,21 L483.5,22.5 L483.5,22.5 L479.6,22.2 C479.6,22.5000998 479.994012,22.9127744 480.782036,23.4380239 L484.278507,23.2736599 Z M213.2,213.4 C214,213.2 214.4,213.5 214.6,214.2 L214.7,214.8 L212.4,215.3 C212.6,214.5 212.6,213.9 212.5,213.5 L213.2,213.4 L213.2,213.4 Z M305.8,28.4 C300.6,32.1 294.7,35.9 288.1,39.6 L288.2,40.7 C288.6,40.7 289.2,40.4 290,39.9 C290.8,39.8 291.2,40.2 291.3,40.9 L292.4,40.3 L292.9,40.3 L292.9,40.8 C293,41.4 288.8,44.6 280.6,50.4 L281.2,51.6 L280.7,51.6 L279.4,51.1 C279.4,51.5 278.9,51.8 277.7,51.9 L277.7,52.4 L279,54 C278.6,54 277.9,53.9 277.1,53.5 C274.4,53.7 271.8,55.7 269.2,59.3 L269.8,60.4 C272.1,58.3 273.4,57.2 273.8,57.2 L273.9,58.9 C273.5,58.9 272.9,59.2 272.1,59.7 L273.6,61.8 C276.3,58.8 279.3,56.3 282.5,54.2 C284.1,54.7 285,55.2 285,55.7 L286.2,55.6 C295.2,49 304,44.3 312.7,41.4 L312.8,42.5 C311.2,44.9 310.1,46.1 309.5,46.2 C309.6,47 309.8,47.7 310.2,48.4 C310.3,49.9 306.4,59.9 298.4,78.4 C280.1,121.3 264.8,153.1 252.4,173.7 C252.4,174.1 252.7,174.7 253.2,175.4 C256.3,174.7 258.2,173.9 259,173.2 L259.5,173.2 L259.6,174.3 L260.9,174.2 L262,173.6 C262,173.9 262.4,174.1 263.2,174 L263.3,175.2 C263.4,176.3 262.7,178 261.4,180.4 C260.1,181.8 258.7,184.8 257.3,189.3 L257.4,189.9 L258.6,189.8 C263.6,184.2 267.3,178.8 269.9,173.4 C284.4,169.1 295.4,165 303.1,160.9 C310.9,160.2 316.7,158.2 320.7,154.9 L320.6,154.3 L317.6,155.2 L317,155.3 L316.9,154.7 C322.6,153.9 326.5,152.6 328.6,150.9 C339.6,142.4 347.9,136.4 353.6,132.9 C371,120.1 379.2,107.9 378.2,96.1 C378.1,94.9 374.3,90.1 366.7,81.7 C366.6,80.1 369.2,77.8 374.5,74.8 L389.7,61.6 C393.1,57.3 395.1,50.3 395.7,40.6 L395.5,38.4 C394.9,31.7 390,26.3 380.8,22.1 C375.3,18.4 365.5,16.4 351.4,16 C340,16.8 324.7,21 305.8,28.4 L305.8,28.4 Z M387.2,29.2 L386.6,30.4 L369.8,23.3 C381.1,23.8 386.9,25.7 387.2,29.2 L387.2,29.2 Z M319,76 C320.2,69.7 321.5,66.2 322.9,65.4 L335.6,37 C335.5,35.3 338.1,33.9 343.6,32.9 L345.4,32.7 L345.5,34.4 C350.9,33.5 354.2,33 355.6,32.9 C365.6,32 370.8,34.1 371.2,38.9 L372.4,38.8 L372.2,36.1 L373.4,36 C376.3,37.6 377.8,39.5 378,41.8 C378.1,43.4 377.3,45.4 375.6,47.8 C374.8,47.9 374.4,47.3 374.3,46.2 L373.1,46.3 L372.7,49.7 C367.6,57.4 364,61.3 361.7,61.5 C359.7,64.3 358.4,65.7 357.8,65.7 C356.2,67.6 351.9,70.9 344.8,75.4 C342.4,75.6 333.7,79 318.6,85.6 C317.9,85.3 317,85.2 316.2,85.3 L316.1,84.2 C315.9,82.1 316.9,79.4 319,76 L319,76 Z M388.8,41 L388.9,42.2 C388.3,42.2 387.2,40.4 385.4,36.8 L385.3,35.7 C386.4,35.6 387.6,37.4 388.8,41 Z M278,54.6 L278.1,55.2 C277.7,55.2 277.1,55.5 276.3,55.9 L275.8,55.9 L275.7,54.8 L278,54.6 Z M314.7,53.7 L314.8,55.4 C314.2,55.4 313.5,56.3 312.6,57.8 L312.5,56.7 C313.5,55.4 314,54.4 314,53.7 L314.7,53.7 L314.7,53.7 Z M309,65.5 L309.2,67.7 L308.6,67.8 L308.4,65.6 L309,65.5 Z M307.6,69.6 C307.5,71.5 307,72.5 306.1,72.6 L305.5,72.7 C306.2,71.4 306.5,70.4 306.4,69.7 L307.6,69.6 L307.6,69.6 Z M305,75.5 L305.1,76.1 L304.1,77.9 L302.9,78 L302.8,77.4 C304,77.3 304.6,76.7 304.5,75.5 L305,75.5 L305,75.5 Z M302.5,80.8 L302.1,83.7 L301.6,83.7 L301.4,80.8 L302.5,80.8 L302.5,80.8 Z M364.1,82.9 L366.6,84.4 C366.7,85.1 366.3,85.6 365.5,85.6 C364.4,84.9 363.6,84.6 363,84.7 L363,83 L364.1,82.9 L364.1,82.9 Z M315.9,89.3 L316,90.4 L313.6,90.6 L313.5,89.5 L315.9,89.3 Z M354.8,93.4 C356.5,94.2 357.3,94.9 357.4,95.5 L357.4,96 C355.8,96.1 354.3,95.3 352.9,93.5 L354.8,93.4 Z M304.7,105.7 C311.5,105.1 322.2,101.9 336.9,96.1 L340.6,95.8 C348,95.2 353.5,96.6 357.2,100.1 L357.4,102.3 C354.7,110.1 351.7,114.7 348.4,116.1 L333.3,128.3 C322,135.7 315.9,139.4 314.9,139.5 C296.9,149.4 285.7,154.5 281.3,154.9 L280.7,155 C281.1,152.9 289.1,136.5 304.7,105.7 L304.7,105.7 Z M321,99.2 L321.1,99.8 L318.7,100 L318.6,99.4 L321,99.2 Z M375.5,96.7 L375.9,101.3 C375.3,102.4 374.8,103 374.2,103.1 L373.5,95.3 C374.8,95.7 375.5,96.2 375.5,96.7 Z M283.2,135.9 C282.4,139.7 281.6,141.7 280.8,141.7 L280.8,141.2 C280.5,139.4 281.3,137.6 283.2,135.9 Z M298.3,157.3 C302.7,156.5 314.8,150.2 334.6,138.3 L334.7,139.4 C334.7,139.9 333.1,141.4 329.6,143.8 C319.6,148.8 313.6,152.1 311.8,153.8 C300.9,157.6 295.5,160 295.6,160.9 C285.9,164.7 279.6,167.5 276.5,169.3 C275.8,169.4 274.7,169.1 273.4,168.4 C273.2,166.4 274.1,164.9 276,163.7 C277.7,163.6 279.3,163.8 280.8,164.4 C282.6,163.5 285.7,162.5 290.2,161.3 L290.1,160.2 L286.4,160.5 C286.8,159.8 290.3,158.2 296.8,155.6 L298.6,155.4 L298.6,155.9 C295.5,156.2 293.8,157.1 293.4,158.7 C293.5,159.4 293.9,159.8 294.7,159.7 C297.2,158.5 298.3,157.6 298.3,157.3 L298.3,157.3 Z M279.6,143.6 L279.6,144.1 C279.7,144.9 279.3,145.4 278.5,145.4 L278.4,144.8 C278.4,144.3 278.8,143.8 279.6,143.6 L279.6,143.6 Z M308,151.4 C306.6,151.5 303.9,152.7 299.9,154.9 L299.3,155 L299.2,153.9 C302.1,153.6 304.7,152.5 306.7,150.5 C307.5,150.4 307.9,150.7 308,151.4 L308,151.4 Z M278.6,159.6 L280.4,159.4 L280.5,160 C280.1,160 279.5,160.3 278.7,160.7 L277.5,160.8 C277.4,160.2 277.8,159.8 278.6,159.6 L278.6,159.6 Z M266.5,166.3 L267.7,166.8 C267.3,170.3 266.2,172.1 264.6,172.2 C263.2,171.6 262,171.3 260.9,171.4 L260.8,169.7 C260.7,169.1 261.1,168.7 261.9,168.5 C262.7,168.4 263.1,169 263.2,170.1 C265.2,167.6 266.3,166.3 266.5,166.3 Z M70.4,23.4 C63.6,28.4 55.8,33.3 47.1,38.1 L47.2,39.6 C47.8,39.6 48.5,39.2 49.5,38.7 C50.5,38.6 51.1,39 51.1,40 L52.7,39.1 L53.5,39 L53.6,39.7 C53.7,40.4 48.2,44.7 37.3,52.4 L38.2,53.8 L37.4,53.9 L35.7,53.3 C35.7,53.8 35,54.1 33.4,54.2 L33.5,55 L35.3,57 C34.7,57 33.9,56.9 32.9,56.5 C29.4,56.8 25.9,59.4 22.5,64.2 L23.4,65.6 C26.4,62.9 28.1,61.5 28.6,61.5 L28.8,63.7 C28.3,63.7 27.5,64.1 26.5,64.6 L28.4,67.4 C32,63.5 35.9,60.2 40.3,57.5 C42.5,58.1 43.6,58.7 43.6,59.5 L45.2,59.4 C56.9,50.7 68.5,44.5 80,40.6 L80.1,42.1 C78,45.3 76.5,46.9 75.7,47 C75.8,48.1 76.2,49 76.8,49.9 C77,51.9 71.8,65 61.2,89.4 C37,146 16.8,187.8 0.5,215 C0.5,215.5 0.9,216.3 1.4,217.2 C5.4,216.2 8,215.3 9.1,214.3 L10,214.2 L10.1,215.7 L11.6,215.6 L13.2,214.7 C13.2,215.2 13.8,215.4 14.8,215.3 L14.9,216.8 C15,218.3 14.2,220.6 12.3,223.7 C10.6,225.6 8.9,229.5 7,235.4 L7.1,236.1 L8.6,236 C15.1,228.7 20.1,221.5 23.5,214.5 C42.6,208.9 57.1,203.4 67.2,198 C77.3,197.1 85.1,194.5 90.3,190.1 L90.2,189.3 L86.4,190.4 L85.5,190.5 L85.4,189.7 C92.8,188.6 98,186.9 100.8,184.7 C115.3,173.5 126.2,165.6 133.6,160.9 C156.5,144.1 167.3,127.9 166,112.5 C165.9,110.9 160.8,104.6 150.9,93.6 C150.7,91.5 154.2,88.5 161.2,84.5 L181.1,67 C185.5,61.3 188.2,52.1 189.1,39.4 L188.8,36.4 C188,27.5 181.6,20.3 169.4,14.8 C162.2,9.9 149.3,7.3 130.7,7 C115.4,8.4 95.2,13.8 70.4,23.4 L70.4,23.4 Z M177.6,24.7 L177,26.2 L154.8,16.9 C169.6,17.5 177.2,20.1 177.6,24.7 L177.6,24.7 Z M87.8,86.3 C89.3,78.1 91,73.4 92.9,72.3 L109.5,35 C109.3,32.7 112.8,30.9 120.1,29.7 L122.5,29.5 L122.7,31.6 C129.9,30.5 134.3,29.9 136,29.7 C149.2,28.6 156,31.2 156.6,37.7 L158.1,37.6 L157.8,33.8 L159.4,33.7 C163.3,35.8 165.4,38.4 165.6,41.5 C165.8,43.6 164.7,46.2 162.2,49.3 C161.2,49.4 160.6,48.7 160.5,47.2 L158.9,47.3 L158.5,51.8 C151.8,61.8 147,66.9 144,67.2 C141.3,70.9 139.6,72.8 138.9,72.9 C136.8,75.4 131.1,79.7 121.7,85.7 C118.6,86 107.1,90.4 87.2,99.1 C86.2,98.6 85.2,98.5 84,98.6 L83.9,97.2 C83.7,94.3 84.9,90.7 87.8,86.3 L87.8,86.3 Z M179.7,40.3 L179.8,41.7 C179,41.8 177.5,39.4 175.3,34.6 L175.2,33.2 C176.6,33 178.1,35.4 179.7,40.3 Z M33.7,58.1 L33.8,58.8 C33.3,58.8 32.5,59.2 31.5,59.7 L30.7,59.8 L30.6,58.4 L33.7,58.1 Z M82,56.9 L82.2,59.1 C81.5,59.2 80.5,60.2 79.3,62.3 L79.2,60.8 C80.6,59.1 81.3,57.8 81.3,56.9 L82,56.9 Z M74.6,72.5 L74.9,75.5 L74.1,75.6 L73.8,72.6 L74.6,72.5 Z M72.7,77.9 C72.5,80.4 71.9,81.7 70.6,81.8 L69.8,81.9 C70.7,80.2 71.2,79 71.1,78.1 L72.7,77.9 Z M69.4,85.7 L69.5,86.4 L68.1,88.8 L66.6,88.9 L66.5,88.2 C68,88.1 68.7,87.3 68.6,85.8 L69.4,85.7 L69.4,85.7 Z M66,92.7 L65.6,96.4 L64.8,96.5 L64.5,92.8 L66,92.7 Z M147.1,95.4 L150.4,97.4 C150.5,98.4 150,99 149,99.1 C147.6,98.2 146.5,97.8 145.7,97.8 L145.5,95.6 L147.1,95.4 Z M83.6,103.9 L83.7,105.3 L80.6,105.6 L80.5,104.2 L83.6,103.9 Z M134.8,109.1 C137,110.1 138.1,111.1 138.2,111.9 L138.3,112.6 C136.2,112.8 134.3,111.7 132.5,109.3 L134.8,109.1 Z M68.8,125.3 C77.8,124.5 92,120.3 111.3,112.7 L116,112.3 C125.8,111.5 133.1,113.3 137.9,117.9 L138.2,120.9 C134.6,131.3 130.6,137.3 126.3,139.2 L106.3,155.1 C91.4,164.9 83.4,169.8 82.2,169.9 C58.5,183 43.7,189.7 38,190.2 L37.1,190.3 C37.9,187.5 48.4,165.9 68.8,125.3 L68.8,125.3 Z M90.4,116.8 L90.5,117.5 L87.3,117.8 L87.2,117.1 L90.4,116.8 Z M162.2,113.6 L162.7,119.5 C162,121.1 161.3,121.9 160.5,121.9 L159.6,111.5 C161.3,112.2 162.1,112.9 162.2,113.6 Z M40.5,165.2 C39.5,170.3 38.4,172.9 37.3,173 L37.2,172.3 C37,169.7 38.1,167.4 40.5,165.2 L40.5,165.2 Z M60.5,193.4 C66.3,192.3 82.2,183.9 108.3,168.4 L108.4,169.8 C108.5,170.4 106.2,172.3 101.7,175.6 C88.4,182.1 80.6,186.6 78.3,188.9 C63.9,193.9 56.8,197 56.9,198.2 C44.1,203.3 35.7,207 31.7,209.3 C30.8,209.4 29.4,209 27.6,208.2 C27.4,205.6 28.5,203.5 31.1,201.8 C33.3,201.6 35.5,201.9 37.5,202.8 C39.9,201.6 44,200.2 49.9,198.8 L49.8,197.3 L45.1,197.7 C45.7,196.9 50.2,194.8 58.8,191.3 L61.2,191.1 L61.3,191.8 C57.3,192.1 55,193.4 54.5,195.5 C54.6,196.4 55.1,196.9 56.1,196.8 C59,194.8 60.5,193.7 60.5,193.4 L60.5,193.4 Z M35.9,175.3 L36,176 C36.1,177 35.6,177.6 34.6,177.7 L34.5,177 C34.4,176.1 34.9,175.5 35.9,175.3 Z M73.3,185.5 C71.4,185.7 67.9,187.2 62.6,190.2 L61.8,190.3 L61.7,188.8 C65.5,188.5 68.8,187 71.5,184.3 C72.6,184.1 73.2,184.6 73.3,185.5 Z M34.5,196.3 L36.9,196.1 L37,196.9 C36.4,196.9 35.7,197.3 34.7,197.8 L33.2,197.9 C33.1,197.2 33.5,196.6 34.5,196.3 Z M18.6,205.2 L20.3,205.9 C19.7,210.4 18.4,212.7 16.1,212.9 C14.3,212.1 12.7,211.8 11.2,211.9 L11,209.7 C10.9,208.8 11.4,208.3 12.5,208 C13.5,207.9 14.1,208.6 14.2,210.1 C16.9,206.8 18.4,205.2 18.6,205.2 L18.6,205.2 Z M462.2,8.7 L460.9,8.2 L439.6,11.5 C438.8,11.1 437.8,10.9 436.7,11 C435.5,11.1 433.7,11.5 431,12.2 L420.7,16.5 L421.5,17.8 C422,17.8 422.7,17.5 423.6,17 L427.2,17.3 L426.7,20.7 C423.4,22.2 421.4,24.4 420.9,27.3 C415.9,29.5 413.4,31.1 413.4,32.1 L413.5,32.7 L414.3,32.6 L415.7,31.9 L417.3,33.8 L417.5,36.4 C417.6,37.2 409.1,55.1 392.1,90 C377.4,123.6 369.7,142 368.9,145.3 C363.9,146.7 360.9,148.8 360.1,151.5 C360.2,152.4 361.7,152.9 364.6,153.2 L364.7,154.5 L363.4,156.7 L363.6,159.3 C363.7,160.7 367.4,161.7 374.6,162.5 C374.6,162 374.8,161.8 375.3,161.7 C375.4,163.3 375,166.5 373.9,171.3 L374.7,171.2 C377.7,167.1 379.1,164.3 379,162.7 L379.6,162.6 C380.3,162.5 381.1,163.4 382,165.2 C381.1,165.6 377.9,172.8 372.5,186.9 L373.3,188.2 L374.1,188.1 C380.8,171.2 385,161.8 386.7,160 C395.5,159.2 410.6,157.7 432.2,155.4 L433.5,154.6 C433.5,155.1 433.8,155.3 434.3,155.2 L435.7,155.1 L437,154.3 C437,154.8 437.3,155 437.8,154.9 L454.1,153.5 C458.4,153.1 460.5,151.8 460.3,149.6 C460.2,149 462.8,148.3 468,147.6 C468.5,147.6 469.2,147.7 470.2,148 C470.2,147.6 472.7,147.2 477.9,146.7 C478,144 478.9,142.5 480.5,142.4 L480.4,141.1 C479,141.2 477.3,141.6 475.4,142.2 C472,142 469.8,141.8 468.9,141.4 C468,141.9 467.3,142.2 466.8,142.2 L455.4,142.6 L454,143.3 C454,142.9 453.7,142.7 453.2,142.8 L452.6,142.9 L451.1,143.6 C451.1,143.2 449.9,142.9 447.5,142.6 L446.1,143.4 L443.3,143.6 L443.2,142.9 C457.8,141.3 465.1,139.3 464.9,136.9 C465.8,136.8 466.3,137.3 466.4,138.2 L470.7,137.1 L470.6,135.8 L435.6,136.8 C435.6,137.3 435.4,137.5 434.9,137.6 L430.6,137.2 C429.5,137.3 428.6,137.6 427.9,138.2 L426.3,137.6 C421.9,138 418.6,138.5 416.4,139.2 C413.4,139 410.1,139 406.4,139.3 L398.5,140 L394.9,139.6 C394.7,137.3 399.2,125.9 408.5,105.4 C411.2,98.5 413.7,94.2 416,92.6 C416.5,92.6 417.2,92.7 418.2,93.1 L423.8,91.2 L426.7,91.7 C431.5,91.3 437.1,89.9 443.5,87.6 C445.1,87.5 446.3,87.6 447.1,87.9 L451.4,86.9 L464.1,85.8 C469.5,85.3 475.4,84.1 481.7,82.2 L481.6,80.9 C479.2,81.1 478,80.7 477.9,79.8 C477.7,78 476,77.3 472.7,77.6 L472.6,76.3 L476.1,75.3 L485.3,74.5 L485.2,73.2 C484.8,73.2 483,73.2 479.5,73.1 L479.4,71.7 L483,71.4 C483.9,71.3 484.4,70.8 484.3,70 C479.5,70.1 477.1,69.9 477.1,69.3 C443.8,70.9 427.2,71.2 427.1,70.2 C426.6,70.2 425.9,70.5 425,71.1 L424.1,69.7 C432.9,51 438.1,41.5 439.6,41.4 C439.7,42.1 439.3,43.3 438.5,44.9 L438.6,45.5 L440,45.4 C443.5,37 446.4,32.7 448.9,32.5 C459.3,31.6 447.4,30.9 469.8,27.4 C470.7,27.8 471.4,28 471.8,27.9 C480.6,26.1 492.8,24.3 508.5,22.4 L508.4,21.1 L500,21.9 L499.9,20.6 C500.9,20.5 501.7,20.2 502.4,19.6 L502.5,20.3 C503,20.3 503.6,20 504.4,19.4 C505.8,19.3 506.9,19.4 507.7,19.8 C510.6,19 512.9,18.6 514.7,18.4 L519.9,17.9 C521.2,17.1 521.8,16.4 521.7,15.7 L521.7,15.1 C520.4,15.2 518.9,15.1 517.1,14.8 C517,14.1 517.4,13.6 518.3,13.4 L528,12.5 L532.5,11.4 C532.5,11.9 532.8,12.1 533.1,12.1 C533.6,12.1 534.2,11.8 535,11.2 C537.3,11.5 538.7,11.6 539,11.5 C540.8,9.8 542.9,8.4 545.2,7.5 C544.2,6.5 543.7,5.7 543.6,5 L537.1,5.6 C537.1,5.1 536.8,4.5 536.4,3.6 C536.4,3 537.8,2.4 540.8,1.8 L542.1,2.3 L543.3,1.6 C543.3,2 543.6,2.2 544,2.1 L545.2,1.4 C545.2,1.8 545.5,2 545.9,1.9 L546.5,1.8 L546.4,0.5 C545.5,0.6 543.1,0.6 539.3,0.5 L538.1,1.3 L538,0.6 C507.5,3.1 490.2,4.5 486.1,4.9 C485.6,4.9 483.4,4.9 479.7,4.8 C479.7,5.3 479.3,5.6 478.4,5.6 L477.1,5 L472.6,6.1 C471.6,6.2 469.8,6.1 467.3,5.9 C466.6,6.4 465.8,6.8 464.8,6.9 C463.8,7 489,5.5 488.2,5.1 L484.3,6.2 L483.7,6.3 C482.1,6.4 480.1,6.4 477.7,6.1 C477,6.6 476,7 474.5,7.1 C473.5,7.2 472.6,7 471.9,6.6 C470.8,6.9 467.6,7.7 462.2,8.7 L462.2,8.7 Z M463.8,12.7 C463.8,13.2 464.3,13.4 465.1,13.3 L465.2,14.6 L463.9,14.7 C462.9,14.8 462,14.6 461.3,14.2 C460.6,14.8 459.7,15.1 458.8,15.2 L459.2,15.2 L455.6,14.8 L455.5,14.2 C459.9,13.9 461.3,13.4 463.8,12.7 L463.8,12.7 Z M467.1,12.4 L467.8,12.3 L467.9,13.6 L465.9,13.8 C465.9,13.1 466.2,12.6 467.1,12.4 Z M474.8,11.6 L474.9,12.3 C473.4,12.4 471.5,12.8 469.2,13.5 L468.5,13.6 L469.1,12.2 L474.8,11.6 L474.8,11.6 Z M418,18.1 L420.2,17.9 L420.1,16.6 L417.9,16.8 L418,18.1 Z M433.7,16.7 L434.5,16.6 L436,17.2 C436.1,18.1 435.6,18.6 434.7,18.6 L432.5,18.8 L432.4,18.1 C432.3,17.4 432.8,17 433.7,16.7 Z M484,19.6 L484,20.2 L479.5,20.6 L479.5,20 L484,19.6 Z M471.1,21.5 L471.2,22.2 L468.6,22.4 L468.5,21.7 L471.1,21.5 Z M474.6,24.5 C475.5,24.4 475.9,24.8 476,25.7 L472.2,26.1 L472.1,24.8 L474.6,24.5 L474.6,24.5 Z M484.278507,23.2736599 L481.7,24 C481.350349,23.8001996 481.044361,23.6128742 480.782036,23.4380239 L466.7,24.1 L466.8,24.8 L490.2,23.7 L490.1,23 L484.278507,23.2736599 Z M468.1,25.9 L468.1,26.5 L463,27 L463,26.4 L468.1,25.9 Z M434.6,52.4 L434.7,53.1 L436.2,53 C436.2,52.5 436.3,51.8 436.7,50.9 L436.6,49.6 C435.8,49.7 435.1,50.6 434.6,52.4 L434.6,52.4 Z M383.1,127.2 L383.2,127.8 C383.3,128.7 382.8,129.2 381.8,129.3 L381.7,128.7 C381.6,127.9 382.1,127.5 383.1,127.2 Z M381.8,130 C381.9,131.3 381,134.5 379.2,139.7 L377,139.9 C376.9,139 378.1,135.8 380.4,130.2 L381.8,130 L381.8,130 Z M405.9,150.9 C406,151.6 404.8,152.4 402.5,153.2 L398.1,152.9 L396.7,153 L396.6,151.7 L405.9,150.9 L405.9,150.9 Z M410.2,151.3 L410.3,151.9 L406.7,152.2 L406.6,151.6 L410.2,151.3 Z" id="babel-icon"></path>
        </g>
    </g>
</svg>