<svg viewBox="0 0 32 32" xmlns="http://www.w3.org/2000/svg"><defs><linearGradient id="a" x1="66.248" y1="-2.76" x2="7.594" y2="75.91" gradientUnits="userSpaceOnUse" gradientTransform="matrix(.33735 0 0 .33735 2 2)"><stop offset=".036" stop-color="#409FF8"/><stop offset=".5" stop-color="#1673FF"/><stop offset="1" stop-color="#516FF7"/></linearGradient></defs><path fill-rule="evenodd" clip-rule="evenodd" d="M2.514 2a.282.282 0 00-.235.436l5.02 7.857a2.258 2.258 0 001.902 1.043h6.789c2.489 0 4.045 2.2 4.035 4.664-.009 2.464-1.666 4.642-4.035 4.642H8.741a.751.751 0 00-.751.754v7.852a.75.75 0 00.751.752H18c8.012 0 11.995-7.602 12-14 .006-6.398-3.931-14-12-14H2.514zm3.294 18.664H4.005C2.898 20.664 2 21.708 2 22.997v6.798c0 .111.091.201.203.201h1.802c1.108 0 2.006-1.044 2.006-2.333v-6.797a.202.202 0 00-.203-.202z" fill="url(#a)"/></svg>