<svg xmlns="http://www.w3.org/2000/svg" viewBox="0 0 32 32"><title>file_type_light_objidconfig</title><path d="M6.337,3.126a1.93,1.93,0,0,0-.095.407,2.7,2.7,0,0,1-.082.4,4.709,4.709,0,0,0,0,1.048,2.557,2.557,0,0,1,.085.39,1.206,1.206,0,0,0,.086.343.06.06,0,0,1,.031.054,1.024,1.024,0,0,0,.138.383.031.031,0,0,1,.028.033c0,.052-.054.04-.276-.062C6.14,6.067,6.01,6.013,5.964,6a2.261,2.261,0,0,1-.216-.084,1.872,1.872,0,0,0-.349-.1,1.009,1.009,0,0,1-.251-.068,5.282,5.282,0,0,0-1.14-.131.968.968,0,0,1-.361-.037c-.028-.028-.065-.028-.144,0a.926.926,0,0,1-.252.037,4.069,4.069,0,0,0-.825.13A.429.429,0,0,1,2.3,5.8c-.061.015-.091.043-.091.087a.737.737,0,0,0,.129.332.347.347,0,0,1,.087.125.536.536,0,0,0,.107.151.091.091,0,0,1,.042.065.3.3,0,0,0,.082.123l.442.458a3.811,3.811,0,0,0,.388.374.18.18,0,0,1,.081.051A2.363,2.363,0,0,0,4,7.877a.051.051,0,0,1,.045.03,1.353,1.353,0,0,0,.393.241.782.782,0,0,1,.166.1.692.692,0,0,0,.182.081,1.134,1.134,0,0,1,.2.083,1.246,1.246,0,0,0,.217.086.894.894,0,0,1,.2.081.965.965,0,0,0,.216.08,2.115,2.115,0,0,1,.253.087.9.9,0,0,0,.207.052l.153.023-.082.108a.444.444,0,0,0-.082.142.134.134,0,0,1-.05.076.589.589,0,0,0-.107.162.9.9,0,0,1-.116.184.219.219,0,0,0-.059.106.151.151,0,0,1-.043.085.858.858,0,0,0-.1.177A.693.693,0,0,1,5.5,10a.753.753,0,0,0-.083.174c-.033.087-.073.158-.088.158a.032.032,0,0,0-.029.035,1.919,1.919,0,0,1-.116.283c-.064.137-.116.257-.116.266a1.663,1.663,0,0,1-.083.193,1.59,1.59,0,0,0-.1.28c-.012.058-.033.106-.047.106a.635.635,0,0,0-.085.224,1.1,1.1,0,0,1-.082.241,1.28,1.28,0,0,0-.085.266A1.314,1.314,0,0,1,4.5,12.5a1.647,1.647,0,0,0-.081.316,1.663,1.663,0,0,1-.08.316,3.525,3.525,0,0,0-.12.648.68.68,0,0,1-.048.2,17.943,17.943,0,0,0,0,4.187,3.639,3.639,0,0,1,.087.449,2.233,2.233,0,0,0,.081.4,1.548,1.548,0,0,1,.082.316,1.563,1.563,0,0,0,.082.316,1.269,1.269,0,0,1,.083.274.779.779,0,0,0,.085.258.488.488,0,0,1,.069.2.731.731,0,0,0,.088.247.148.148,0,0,1,.045.079A1.389,1.389,0,0,0,5,21.07a.858.858,0,0,1,.087.2,1.061,1.061,0,0,0,.083.2.9.9,0,0,1,.08.174.429.429,0,0,0,.082.158.456.456,0,0,1,.082.166.473.473,0,0,0,.081.166.433.433,0,0,1,.087.15.462.462,0,0,0,.085.149.418.418,0,0,1,.081.14.917.917,0,0,0,.123.206.243.243,0,0,1,.061.09.859.859,0,0,0,.1.173.705.705,0,0,1,.1.184.035.035,0,0,0,.032.037c.017,0,.056.052.087.116s.065.116.077.116.05.048.085.106a1.781,1.781,0,0,0,.243.319.347.347,0,0,1,.075.108.936.936,0,0,0,.148.182,1.491,1.491,0,0,1,.158.185,13.782,13.782,0,0,0,1.583,1.574.505.505,0,0,1,.116.108.2.2,0,0,0,.1.077c.022,0,.058.03.081.066s.058.066.079.066a.237.237,0,0,1,.108.069,1.82,1.82,0,0,0,.417.3.034.034,0,0,1,.035.032c0,.017.052.056.116.087s.116.066.116.08.06.051.133.084a.339.339,0,0,1,.133.083.37.37,0,0,0,.141.085.527.527,0,0,1,.166.1.34.34,0,0,0,.141.078c.064.021.116.051.116.066s.067.054.15.085a.391.391,0,0,1,.15.079.456.456,0,0,0,.166.082.424.424,0,0,1,.166.084.489.489,0,0,0,.183.087.537.537,0,0,1,.183.084.565.565,0,0,0,.191.082.865.865,0,0,1,.232.1.42.42,0,0,0,.175.064.429.429,0,0,1,.175.063,1.036,1.036,0,0,0,.273.1,1.1,1.1,0,0,1,.249.086,1.148,1.148,0,0,0,.265.08,1.442,1.442,0,0,1,.282.084,3,3,0,0,0,.633.135c.042,0,.082.014.088.031a1.854,1.854,0,0,0,.443.09,2.885,2.885,0,0,1,.449.08,17.5,17.5,0,0,0,3.65-.007c.006-.016.055-.029.108-.029a5.036,5.036,0,0,0,.811-.131,3.06,3.06,0,0,1,.382-.087,1.694,1.694,0,0,0,.332-.081,1.289,1.289,0,0,1,.274-.083.913.913,0,0,0,.258-.082.873.873,0,0,1,.249-.084.817.817,0,0,0,.249-.085.552.552,0,0,1,.2-.079.73.73,0,0,0,.216-.084.679.679,0,0,1,.2-.086.53.53,0,0,0,.183-.079.369.369,0,0,1,.151-.066.64.64,0,0,0,.191-.084.813.813,0,0,1,.189-.1.734.734,0,0,0,.166-.082.736.736,0,0,1,.158-.085c.078-.034.141-.074.141-.088s.051-.042.113-.063a.657.657,0,0,0,.188-.1.263.263,0,0,1,.113-.065.22.22,0,0,0,.1-.059.923.923,0,0,1,.189-.118c.069-.032.125-.07.125-.084s.052-.05.116-.081.116-.069.116-.085.026-.039.058-.049a1.264,1.264,0,0,0,.387-.279.271.271,0,0,1,.115-.075c.021,0,.056-.03.079-.066s.057-.067.075-.067a.6.6,0,0,0,.166-.117l.3-.257c.271-.233,1.382-1.366,1.382-1.409a.731.731,0,0,1,.108-.141c.059-.067.145-.172.191-.233.211-.283.265-.354.309-.4a1.2,1.2,0,0,0,.11-.166.514.514,0,0,1,.1-.139.094.094,0,0,0,.042-.068.251.251,0,0,1,.068-.115.765.765,0,0,0,.117-.189c.027-.064.06-.116.075-.116s.054-.063.088-.14a1.1,1.1,0,0,1,.091-.174,2.837,2.837,0,0,0,.231-.416.836.836,0,0,1,.094-.166.748.748,0,0,0,.083-.176.658.658,0,0,1,.085-.175.731.731,0,0,0,.083-.2.522.522,0,0,1,.079-.183.578.578,0,0,0,.086-.191,1.139,1.139,0,0,1,.083-.208,1.8,1.8,0,0,0,.133-.419c0-.025.012-.046.028-.046a.7.7,0,0,0,.09-.249.9.9,0,0,1,.083-.249,1.352,1.352,0,0,0,.083-.316,1.324,1.324,0,0,1,.083-.316,1.641,1.641,0,0,0,.079-.357,3.217,3.217,0,0,1,.089-.424,7.453,7.453,0,0,0,.13-1.086.317.317,0,0,1,.033-.177,18.088,18.088,0,0,0,0-2.136,5.089,5.089,0,0,1-.083-.639,3,3,0,0,0-.087-.593c-.018-.006-.033-.049-.033-.095a3.894,3.894,0,0,0-.132-.708,1.666,1.666,0,0,1-.083-.316,1.608,1.608,0,0,0-.084-.316,1.16,1.16,0,0,1-.084-.249,1.307,1.307,0,0,0-.082-.249.673.673,0,0,1-.064-.166,2.661,2.661,0,0,0-.1-.282c-.032-.073-.079-.193-.1-.266a.575.575,0,0,0-.067-.15.851.851,0,0,1-.079-.191.468.468,0,0,0-.08-.174.446.446,0,0,1-.083-.166.441.441,0,0,0-.083-.166.438.438,0,0,1-.083-.166.444.444,0,0,0-.083-.166.394.394,0,0,1-.085-.15.449.449,0,0,0-.082-.15.432.432,0,0,1-.086-.141.549.549,0,0,0-.108-.167.1.1,0,0,1-.042-.075.2.2,0,0,0-.059-.107.806.806,0,0,1-.118-.183c-.032-.068-.07-.124-.085-.124s-.045-.041-.068-.091a.633.633,0,0,0-.089-.141c-.026-.027-.107-.132-.179-.233-.156-.215-.231-.315-.3-.395l-.2-.238-.2-.234a17.112,17.112,0,0,0-1.413-1.357.565.565,0,0,1-.113-.108.141.141,0,0,0-.09-.06.12.12,0,0,1-.082-.066.12.12,0,0,0-.082-.066.141.141,0,0,1-.09-.06.591.591,0,0,0-.16-.125.616.616,0,0,1-.16-.122.139.139,0,0,0-.08-.058.176.176,0,0,1-.089-.05,2.261,2.261,0,0,0-.46-.3c-.041-.013-.074-.037-.074-.054s-.052-.052-.116-.079A.767.767,0,0,1,23.4,4.92a4.738,4.738,0,0,0-.689-.371,4.458,4.458,0,0,0-.533-.244c-.055-.012-.1-.034-.1-.05A.435.435,0,0,0,21.9,4.17a.522.522,0,0,1-.183-.079.781.781,0,0,0-.233-.085.753.753,0,0,1-.233-.086.776.776,0,0,0-.241-.081,1.008,1.008,0,0,1-.259-.085,1.132,1.132,0,0,0-.282-.084,1.33,1.33,0,0,1-.281-.08,1.7,1.7,0,0,0-.332-.078,3.1,3.1,0,0,1-.382-.085,4.433,4.433,0,0,0-.8-.121.767.767,0,0,1-.29-.06,26.268,26.268,0,0,0-2.975,0c-.008.023-.061.042-.119.041a6.6,6.6,0,0,0-.953.133,1.744,1.744,0,0,1-.346.079,2.038,2.038,0,0,0-.366.083,1.691,1.691,0,0,1-.3.088,1.42,1.42,0,0,0-.282.082,1.211,1.211,0,0,1-.249.083,1.209,1.209,0,0,0-.249.083.936.936,0,0,1-.205.08,2.433,2.433,0,0,0-.314.123.589.589,0,0,1-.183.064.168.168,0,0,0-.1.045.79.79,0,0,1-.218.1.45.45,0,0,0-.174.082.429.429,0,0,1-.166.084.441.441,0,0,0-.166.083.438.438,0,0,1-.166.083c-.091.033-.166.072-.166.087s-.067.053-.15.084-.15.07-.15.086-.06.053-.133.082-.133.064-.133.078-.06.052-.133.084a.367.367,0,0,0-.133.081.364.364,0,0,1-.124.086,1.281,1.281,0,0,0-.308.224.265.265,0,0,1-.088.058.924.924,0,0,0-.169.121c-.171.14-.179.135-.257-.162a.559.559,0,0,0-.088-.224c-.016,0-.03-.021-.03-.047a3.278,3.278,0,0,0-.3-.592c-.02-.023-.084-.117-.142-.208a5.243,5.243,0,0,0-.869-.881.079.079,0,0,1-.066-.05.078.078,0,0,0-.064-.05.235.235,0,0,1-.114-.065,2.027,2.027,0,0,0-.475-.268c-.082-.038-.176-.083-.207-.1a.149.149,0,0,0-.217.035M7.709,14.074a65.345,65.345,0,0,0,18.8.018c.777-.1.78-.1.914.353.667,2.246-1.36,4.24-5.227,5.143a25.08,25.08,0,0,1-11.83-.474c-2.1-.769-3.434-1.928-3.773-3.284-.161-.643.108-1.949.382-1.852.019.007.349.05.733.1m2.423,1.318a2.554,2.554,0,0,0-.039.441,2.407,2.407,0,0,0,4.166,1.776c.357-.374.7-1.058.487-.977a4.01,4.01,0,0,1-.507.041,6.256,6.256,0,0,1-3.67-1.046l-.374-.248a.045.045,0,0,0-.063.014m13.146.1a6.448,6.448,0,0,1-2.617,1.1,8.086,8.086,0,0,1-1.745.052c-.356-.1.354.981.865,1.314a2.434,2.434,0,0,0,3.767-2.333c-.047-.281-.056-.285-.27-.13" style="fill:#242424"/><path d="M6.889,13.994a2.626,2.626,0,0,0-.3,1.836c.474,1.889,2.86,3.363,6.357,3.927a32.573,32.573,0,0,0,5.974.283c5.79-.352,9.359-2.7,8.5-5.594-.134-.452-.137-.453-.914-.353a62.291,62.291,0,0,1-15.754.315c-1.286-.124-3.691-.4-3.781-.43a.127.127,0,0,0-.086.016m3.679,1.633a6.256,6.256,0,0,0,3.67,1.046,4.01,4.01,0,0,0,.507-.041c.211-.081-.129.6-.487.977a2.407,2.407,0,0,1-4.166-1.776c.015-.413.034-.5.1-.454l.374.248m12.979,0a2.434,2.434,0,0,1-3.767,2.333c-.51-.334-1.221-1.414-.865-1.314a8.086,8.086,0,0,0,1.745-.052,6.448,6.448,0,0,0,2.617-1.1c.214-.156.223-.151.27.13" style="fill:#04b3c3"/></svg>