<svg xmlns="http://www.w3.org/2000/svg" viewBox="0 0 32 32"><g clip-path="url(#a)"><path fill="#91EDE9" d="M2.67 2.67h26.66v26.66H2.67z"/><path fill="#48ACBA" d="M30.53 29.73H1.73v-5.8s2.56-2.1 3.8-2.2c1.58-.12 1.97.48 3.54.74 1.64.26 2.7-1.46 4.33-1.14 1.67.33 3.82 1.58 5.2 1.54 2.91-.1 2.74-.65 5.13-.14 1.02.22 2.1-1.92 3.8-1.6.86.17 3 .34 3 .34z"/><path fill="#2B3C5A" d="M29.6 29.73H1.33V24.4s2.63-1.44 3.87-1.53c1.58-.12 1.9 1.05 3.47 1.3 1.64.28 2.23-1.36 3.86-1.04 1.67.33 3.03 1.92 4.4 1.87 2.92-.1 3.08-1.51 5.47-1 1.02.22 1.27.73 3.67.18s3.53.22 3.53.22z"/></g><path fill="#FF915C" stroke="#2B3C5A" stroke-width="1.07" d="M16.94 5.67a2.27 2.27 0 1 0-1.88 0l-.05 1.66H15l-3.16.24a.4.4 0 0 0-.37.4v.86a.4.4 0 0 0 .37.4l3.1.24-.15 5.57c-.05 1.68-.32 3.74-1.96 4.1a2.6 2.6 0 0 1-.56.06c-.99 0-2.12-1.21-2.85-2.46a8.4 8.4 0 0 1 .88-.32c.17-.05.2-.3.06-.4a6.99 6.99 0 0 1-2.49-2.8c-.07-.16-.3-.17-.37-.02a8.67 8.67 0 0 0-.47 1.2 8.32 8.32 0 0 0-.27 3.69l.01.08c.03.16.22.21.34.1a7.33 7.33 0 0 1 .7-.6C9.15 21.9 13.63 24 16 24c2.37 0 6.85-2.1 8.19-6.33a7.33 7.33 0 0 1 .7.6c.11.11.31.06.34-.1v-.05l.01-.03a8.35 8.35 0 0 0-.27-3.69 8.67 8.67 0 0 0-.47-1.2c-.07-.15-.3-.14-.37.02a7 7 0 0 1-2.47 2.8c-.15.1-.12.34.05.4a8.27 8.27 0 0 1 .88.32c-.73 1.24-1.87 2.46-2.86 2.46a2.59 2.59 0 0 1-.55-.06c-1.65-.36-1.92-2.42-1.97-4.1l-.14-5.57 3.1-.24a.4.4 0 0 0 .36-.4v-.86a.4.4 0 0 0-.37-.4L17 7.33zm.4-2.07a1.33 1.33 0 1 1-2.67 0 1.33 1.33 0 0 1 2.66 0Z" paint-order="stroke"/><path fill="#8A380F" d="M11.47 8.95a.27.27 0 0 0 .24.27l3.22.25.89-.89a.1.1 0 0 0-.08-.18h-4.27zm12.81 4.22a.12.12 0 0 1 .21.02 8.67 8.67 0 0 1 .48 1.21 8.35 8.35 0 0 1 .26 3.77c-.03.16-.23.21-.34.1a7.56 7.56 0 0 0-1.48-1.12.2.2 0 0 1-.09-.26c.45-1.01.78-2.22.94-3.66a.13.13 0 0 1 .02-.06Z"/><path fill="#8A380F" d="M16.93 5.6 17 7.33l-.78.73a.13.13 0 0 1-.22-.1V5.6zm7.6 10.4c-.53 5.33-5.86 8-8.53 8V8.6a.2.2 0 0 1 .2-.2h4.33v.44a.4.4 0 0 1-.36.4l-3.1.23.14 5.57c.05 1.68.32 3.74 1.96 4.1a2.53 2.53 0 0 0 .55.06.67.67 0 0 0-.48.22 5.51 5.51 0 0 1-2.48 1.9c2.87.13 6.81-1.82 7.5-8.12z"/><path fill="#8A380F" d="M16.27 5.32c-.15.01-.27.13-.27.28s.12.27.27.25a2.27 2.27 0 0 0 1.33-.65 2.27 2.27 0 0 0 .67-1.59.01.01 0 0 0-.01-.01.01.01 0 0 0-.02 0c-.13.9-.95 1.61-1.97 1.72"/><clipPath id="a"><path d="M16 2.67A13.33 13.33 0 0 1 29.33 16 13.33 13.33 0 0 1 16 29.33 13.33 13.33 0 0 1 2.67 16 13.33 13.33 0 0 1 16 2.67z"/></clipPath></svg>