<svg xmlns="http://www.w3.org/2000/svg" viewBox="0 0 32 32"><title>file_type_vscode-insiders</title><path d="M20.375,3.291a.874.874,0,0,1,1.463.647V10.25l-8.36,6.624L9.172,13.608Z" style="fill:#009a7c"/><path d="M6.013,16.669,2.38,19.8A1.166,1.166,0,0,0,2.3,21.447c.025.027.05.053.077.077l1.541,1.4a1.166,1.166,0,0,0,1.489.066L9.6,19.935Z" style="fill:#009a7c"/><path d="M21.838,21.749,5.412,9.007a1.165,1.165,0,0,0-1.489.066l-1.541,1.4a1.166,1.166,0,0,0-.077,1.647c.025.027.05.053.077.077l17.99,16.5a.875.875,0,0,0,1.466-.645Z" style="fill:#00b294"/><path d="M23.244,29.747a1.745,1.745,0,0,1-1.989-.338A1.025,1.025,0,0,0,23,28.684V3.316a1.025,1.025,0,0,0-1.749-.725,1.745,1.745,0,0,1,1.989-.338l5.765,2.772A1.748,1.748,0,0,1,30,6.6V25.4a1.748,1.748,0,0,1-.991,1.576Z" style="fill:#24bfa5"/></svg>