<svg viewBox="0 0 32 32" xmlns="http://www.w3.org/2000/svg"><path d="m28.5 14.574c-.737-.281-1.5-.487-2.255-.7-.212-.06-.566-.028-.6-.2-.041-.2.277-.34.443-.5a9.022 9.022 0 0 0 2.235-3.059 3.773 3.773 0 0 0 -.516-3.977 7.7 7.7 0 0 0 -2.4-1.946 24.206 24.206 0 0 0 -5.737-2.163c-.069-.019-.15-.061-.235.057.1.069.193.14.292.207.605.412 1.222.806 1.813 1.237a12.124 12.124 0 0 1 2.993 2.851 2.9 2.9 0 0 1 .512 1.2 1.908 1.908 0 0 1 -.8 1.858 9.382 9.382 0 0 1 -3.048 1.41c-.184.061-.27-.043-.353-.173a1.175 1.175 0 0 0 -1.021-.557c-.483-.017-.966-.071-1.449-.073q-2.5-.014-5 .005c-.482 0-.965.062-1.447.1-.217.019-.468.07-.562.264-.282.579-.687.426-1.118.244-.134-.057-.277-.094-.414-.145a7.913 7.913 0 0 1 -2.012-1.014 1.965 1.965 0 0 1 -.677-2.539 5.3 5.3 0 0 1 1.044-1.482 21.486 21.486 0 0 1 4.063-3.174.807.807 0 0 0 .344-.273.368.368 0 0 0 -.3.007 29.778 29.778 0 0 0 -3.38 1.066 13.662 13.662 0 0 0 -3.88 2.154 4.046 4.046 0 0 0 -1.1 5.4 10.718 10.718 0 0 0 2.278 2.783c.07.066.2.108.168.226-.028.1-.152.079-.237.1a24.721 24.721 0 0 0 -2.584.783c-.461.171-.487.283-.09.552a7.285 7.285 0 0 0 2.777 1.181 4.993 4.993 0 0 0 2.053-.264c.084-.02.176-.1.254-.026s.013.178-.027.247a.424.424 0 0 0 .08.55 3.48 3.48 0 0 1 .3.409 13.823 13.823 0 0 1 2.016 5.365 2.15 2.15 0 0 1 -.478 1.946 1.052 1.052 0 0 0 -.231.916 6.519 6.519 0 0 0 .435 1.347c.29.728.676 1.355 1.582 1.395a.974.974 0 0 1 .344.133.774.774 0 0 1 .444.523 1.306 1.306 0 0 0 .906.92 4.6 4.6 0 0 0 1.395.225 7.821 7.821 0 0 0 2.55-.17 1.256 1.256 0 0 0 1.011-.756 1.249 1.249 0 0 1 1.119-.927 1.254 1.254 0 0 0 1.029-.714 10.85 10.85 0 0 0 .7-1.75 1.176 1.176 0 0 0 -.233-1.2 1.907 1.907 0 0 1 -.436-1.795c.071-.3.1-.6.162-.9a12.3 12.3 0 0 1 2.2-5.031.384.384 0 0 0 .063-.432c-.04-.095-.154-.2-.042-.3.086-.079.192.01.286.032a5.153 5.153 0 0 0 1.858.277 6.908 6.908 0 0 0 2.97-1.226c.353-.229.334-.355-.057-.504zm-15.736 12.309a1.082 1.082 0 1 1 1.081-1.083 1.083 1.083 0 0 1 -1.081 1.083zm-.946-10.341a3.3 3.3 0 0 1 -1.758-1.487 2.782 2.782 0 0 1 2.636-.2c1.352.676 1.419 1.42 1.419 1.42a3.425 3.425 0 0 1 -2.297.267zm-2.7-3.109s4.055-1.757 6.015 2.163c-.004.004-2.775-2.496-6.019-2.163zm10.07 13.45a1.082 1.082 0 1 1 1.078-1.083 1.082 1.082 0 0 1 -1.082 1.083zm.584-10.355a3.428 3.428 0 0 1 -2.3-.271s.067-.743 1.419-1.419a2.779 2.779 0 0 1 2.636.2 3.3 3.3 0 0 1 -1.759 1.49zm-3.311-.947c1.96-3.92 6.015-2.162 6.015-2.162-3.248-.338-6.019 2.162-6.019 2.162z" fill="#9c04a0"/></svg>