<?xml version="1.0" encoding="UTF-8"?>
<svg width="900px" height="900px" viewBox="0 0 900 900" version="1.1" xmlns="http://www.w3.org/2000/svg" xmlns:xlink="http://www.w3.org/1999/xlink">
    <!-- Generator: Sketch 41.2 (35397) - http://www.bohemiancoding.com/sketch -->
    <title>Fill 1</title>
    <desc>Created with Sketch.</desc>
    <defs></defs>
    <g id="Page-1" stroke="none" stroke-width="1" fill="none" fill-rule="evenodd">
        <path d="M882.926136,409.869307 L490.021582,16.9745462 C467.40844,-5.65818207 430.712277,-5.65818207 408.059962,16.9745462 L326.480288,98.5738071 L429.967973,202.071285 C454.020755,193.942698 481.608984,199.397666 500.774821,218.563503 C520.058179,237.856655 525.454386,265.670133 517.129929,289.811057 L616.876505,389.557633 C641.017429,381.233177 668.850495,386.609796 688.133853,405.922535 C715.065918,432.844807 715.065918,476.49434 688.133853,503.436198 C661.182201,530.387851 617.542462,530.387851 590.581016,503.436198 C570.31831,483.163698 565.313842,453.391524 575.577408,428.437742 L482.539364,335.409492 L482.539364,580.207274 C489.100995,583.458709 495.300266,587.79722 500.774821,593.252187 C527.706886,620.184253 527.706886,663.823992 500.774821,690.795231 C473.842755,717.717503 430.173636,717.717503 403.261158,690.795231 C376.329092,663.823992 376.329092,620.184253 403.261158,593.252187 C409.910929,586.602416 417.62819,581.568568 425.844918,578.199611 L425.844918,331.129742 C417.62819,327.770579 409.930516,322.775905 403.261158,316.086959 C382.861342,295.696937 377.95481,265.748481 388.414245,240.696764 L286.385788,138.64872 L16.9672011,408.04772 C-5.6557337,430.700035 -5.6557337,467.396198 16.9672011,490.028927 L409.891342,882.923687 C432.514277,905.546622 469.200647,905.546622 491.862755,882.923687 L882.926136,491.850514 C905.568658,469.217785 905.568658,432.492242 882.926136,409.869307" id="Fill-1" fill="#DE4C36"></path>
    </g>
</svg>