<svg id="Layer_1" data-name="Layer 1" xmlns="http://www.w3.org/2000/svg" viewBox="0 0 128 128"><path d="M9.4,0H118.63A15.4,15.4,0,0,1,128,9.34V118.65a14.49,14.49,0,0,1-9.35,9.35H9.35A15.38,15.38,0,0,1,0,118.64V9.42A16.09,16.09,0,0,1,9.4,0m1,8.45c-2.06,1-2.48,3.4-2.37,5.48C8,47.65,8,81.36,8,115.08A4.33,4.33,0,0,0,11.67,120a4.43,4.43,0,0,0,1.26,0c34.37,0,68.74,0,103.1,0,2.64.21,4.36-2.49,4-4.89,0-34.37.06-68.73,0-103.1.15-2.59-2.55-4.17-4.88-3.94C81.71,8,48.34,8.05,15,8A15.17,15.17,0,0,0,10.36,8.45Z" style="fill:#96231e"/><path d="M80,16H96c0,8,0,16,0,24,5.82,0,11.64-.08,17.46.06-8.18,8.8-16.89,17.12-25.41,25.6-8.52-8.48-17.21-16.82-25.42-25.6C68.42,39.93,74.21,40,80,40,80,32,80,24,80,16Z" style="fill:#96231e"/><path d="M16,24.9c-.38-3.11,3.26-6.14,6-4.08C27,24.94,31.16,30,36,34.3c4.63-4.16,8.68-8.91,13.34-13C51.6,18.88,56,20.71,55.92,24c.19,13.34,0,26.7.08,40H48c0-10,.07-20.09,0-30.14-3.37,3-6.25,6.49-9.69,9.4a3.83,3.83,0,0,1-5.07-.47c-3.18-2.83-6-6.08-9.13-8.93C23.92,43.91,24,54,24,64H16C16,51,15.94,37.93,16,24.9Z" style="fill:#96231e"/><path d="M16,72h8c0,10.67,0,21.33,0,32,2.67,0,5.33,0,8,0v8H16Z" style="fill:#755838"/><path d="M40,72h8v8H40Z" style="fill:#755838"/><path d="M96,76h8c0,4,0,8,0,12,2.66,0,5.33,0,8,0v8l-8,0c0,5.33,0,10.66,0,16H96V96l-8,0V88c2.67,0,5.33,0,8,0C96,84,96,80,96,76Z" style="fill:#755838"/><path d="M40,88h8v24H40Z" style="fill:#755838"/><path d="M56,88H80v24H72V96H64v16H56Z" style="fill:#755838"/></svg>