<?xml version="1.0" encoding="UTF-8" standalone="no"?>
<!DOCTYPE svg PUBLIC "-//W3C//DTD SVG 1.1//EN" "http://www.w3.org/Graphics/SVG/1.1/DTD/svg11.dtd">
<svg width="100%" height="100%" viewBox="0 0 32 32" version="1.1" xmlns="http://www.w3.org/2000/svg" xmlns:xlink="http://www.w3.org/1999/xlink" xml:space="preserve" xmlns:serif="http://www.serif.com/" style="fill-rule:evenodd;clip-rule:evenodd;stroke-linejoin:round;stroke-miterlimit:2;">
    <g transform="matrix(1.2507,0,0,1.2507,0.991591,0.684744)">
        <path d="M12.077,2.563C12.027,2.547 11.973,2.547 11.923,2.563L3.673,5.24C3.57,5.273 3.5,5.369 3.5,5.477L3.5,10.5C3.5,15.961 6.78,19.983 11.93,21.926C11.975,21.943 12.025,21.943 12.07,21.926C17.22,19.983 20.5,15.961 20.5,10.5L20.5,5.476C20.5,5.368 20.43,5.272 20.327,5.239L12.077,2.563ZM11.46,1.137C11.811,1.023 12.189,1.023 12.54,1.137L20.79,3.812C21.509,4.045 22,4.72 22,5.476L22,10.5C22,16.69 18.23,21.205 12.599,23.33C12.213,23.475 11.787,23.475 11.401,23.33C5.771,21.204 2,16.69 2,10.5L2,5.476C2,4.716 2.49,4.046 3.21,3.812L11.46,1.137ZM13,12.232C13.618,11.875 14,11.214 14,10.5C14,9.403 13.097,8.5 12,8.5C10.903,8.5 10,9.403 10,10.5C10,11.214 10.382,11.875 11,12.232L11,15C11,15.549 11.451,16 12,16C12.549,16 13,15.549 13,15L13,12.232Z" style="fill:rgb(87,96,106);"/>
    </g>
</svg>