<svg xmlns="http://www.w3.org/2000/svg" viewBox="0 0 32 32"><title>file_type_nsri</title><path d="M26.636,7.23c-.01,3.7-.028,7.408,0,11.112A5.923,5.923,0,0,1,25.5,21.909a17.163,17.163,0,0,1-4.125,3.923A36.942,36.942,0,0,1,16.213,28.9a.4.4,0,0,1-.4.02,31.29,31.29,0,0,1-7.69-5.134,9.278,9.278,0,0,1-2.5-3.525,4.273,4.273,0,0,1-.254-1.477v-5.6h0V7.213a.376.376,0,0,1,.3-.415Q10.7,4.932,15.736,3.037a.656.656,0,0,1,.507,0q5.036,1.889,10.075,3.756A.4.4,0,0,1,26.636,7.23Z" style="fill:#18665f"/><path d="M27.421,6.222Q21.811,4.144,16.21,2.043a.552.552,0,0,0-.426,0Q10.2,4.136,4.6,6.213a.353.353,0,0,0-.267.406V12.8h0v5.871A5.508,5.508,0,0,0,4.7,20.655a10.509,10.509,0,0,0,2.758,3.863,32.027,32.027,0,0,0,8.359,5.444.431.431,0,0,0,.413-.033,36.641,36.641,0,0,0,4.644-2.576A20.693,20.693,0,0,0,25.9,23.026,7.02,7.02,0,0,0,27.665,18.6V6.583A.311.311,0,0,0,27.421,6.222Zm-2.37,15.4a16.31,16.31,0,0,1-3.93,3.734A35.028,35.028,0,0,1,16.2,28.274a.382.382,0,0,1-.386.02,29.806,29.806,0,0,1-7.323-4.883A8.85,8.85,0,0,1,6.11,20.054a4.093,4.093,0,0,1-.243-1.408V13.308h0V7.627a.36.36,0,0,1,.288-.4q4.8-1.78,9.593-3.578a.625.625,0,0,1,.484,0q4.793,1.8,9.6,3.578a.374.374,0,0,1,.3.419c-.009,3.526-.025,7.054,0,10.577a5.63,5.63,0,0,1-1.077,3.393Z" style="fill:#054f42"/><path d="M23.964,16A7.965,7.965,0,1,0,16,23.964,7.964,7.964,0,0,0,23.964,16Zm-1.876-3.1-7.5,7.5h0l-.536.535L9.911,16.787l1.83-1.829,2.318,2.318,6.2-6.2L22.088,12.9Z" style="fill:#45ad49"/></svg>