<svg viewBox="0 0 32 32" xmlns="http://www.w3.org/2000/svg" xmlns:xlink="http://www.w3.org/1999/xlink"><linearGradient id="a" gradientTransform="matrix(87.822 0 0 -88.533 5984.532 -27290.617)" gradientUnits="userSpaceOnUse" x1="-67.907" x2="-67.857" y1="-308.551" y2="-308.564"><stop offset="0" stop-color="#ffd441"/><stop offset="1" stop-color="#ffb047"/></linearGradient><linearGradient id="b" gradientTransform="matrix(87.822 0 0 -88.533 5964.667 -27443)" gradientUnits="userSpaceOnUse" x1="-67.674" x2="-67.647" y1="-310.121" y2="-310.063"><stop offset="0" stop-color="#ffd754"/><stop offset="1" stop-color="#ffb532"/></linearGradient><linearGradient id="c" gradientTransform="matrix(87.822 0 0 -88.533 5902.8 -27518.733)" gradientUnits="userSpaceOnUse" x1="-67.029" x2="-67.029" y1="-310.91" y2="-310.86"><stop offset="0" stop-color="#ffd642"/><stop offset="0" stop-color="#ffd441"/><stop offset="1" stop-color="#ffb532"/></linearGradient><linearGradient id="d" gradientTransform="matrix(106.198 0 0 -88.551 7048.428 -27474.167)" gradientUnits="userSpaceOnUse" x1="-66.252" x2="-66.32" y1="-310.377" y2="-310.362"><stop offset="0" stop-color="#ffd441"/><stop offset="1" stop-color="#ffa829"/></linearGradient><g fill-opacity=".7"><path d="m23.426 29.41v-7.238h-7.18z" fill="#ffdf51"/><path d="m24.231 25.306v-7.829h-7.765l7.766 7.829" fill="#ff8900"/><path d="m19.515 22.171v7.829h7.766z" fill="url(#a)"/><path d="m22.608 18v-6.191h-6.142z" fill="#ffdf4f"/></g><path d="m25.524 16.525v-7.825h-7.765l7.766 7.829" fill="url(#b)" fill-opacity=".8"/><path d="m12.288 2v7.829h7.766z" fill="url(#c)" fill-opacity=".8"/><path d="m14.11 14.262v-7.829h-9.391l7.732 7.83h1.659" fill="url(#d)" fill-opacity=".88"/><path d="m14.11 29.958v-9.471h-9.391z" fill="#ffb700" fill-opacity=".7"/><path d="m14.112 22.114v-7.829h-7.766z" fill="#ffb700" fill-opacity=".5"/><path d="m16.465 11.809v7.829h7.766z" fill="#ffcd25" fill-opacity=".7"/><path d="m14.092 12.691v-7.829h-7.766z" fill="#ff8900" fill-opacity=".7"/><path d="m16.246 22.171v7.829h7.766z" fill="#ff8900" fill-opacity=".7"/><path d="m21.122 22.172-2.513-2.534h-2.144l.001-7.829h4.381l-1.965-1.98h-4.79l.018 4.433v6.225 9.513h2.136v-7.828z" fill="#fff"/></svg>