<svg xmlns="http://www.w3.org/2000/svg" viewBox="0 0 32 32"><title>file_type_gleam</title><path d="M14.68,3.91a1.51,1.51,0,0,1,2.64,0l3.05,5.4a2.64,2.64,0,0,0,1.78,1.29l6.08,1.23a1.51,1.51,0,0,1,.82,2.51l-4.2,4.57A2.62,2.62,0,0,0,24.17,21l.71,6.15a1.52,1.52,0,0,1-2.14,1.56L17.1,26.13a2.64,2.64,0,0,0-2.2,0L9.26,28.71a1.52,1.52,0,0,1-2.14-1.56L7.83,21a2.62,2.62,0,0,0-.68-2.09L3,14.34a1.51,1.51,0,0,1,.82-2.51L9.85,10.6a2.64,2.64,0,0,0,1.78-1.29Z" style="fill:#ffaff3"/><path d="M16,2.6a2,2,0,0,0-1.81,1l-3,5.4a2.1,2.1,0,0,1-1.4,1L3.66,11.28a2.09,2.09,0,0,0-1.12,3.44l4.2,4.57a2.09,2.09,0,0,1,.53,1.64l-.71,6.16a2.1,2.1,0,0,0,2.93,2.13h0l5.64-2.58h0a2.11,2.11,0,0,1,1.74,0h0l5.64,2.58a2.1,2.1,0,0,0,2.93-2.13h0l-.71-6.16h0a2.09,2.09,0,0,1,.53-1.64h0l4.2-4.57h0a2.09,2.09,0,0,0-1.12-3.44l-6.08-1.23a2.1,2.1,0,0,1-1.4-1l-3.05-5.4A2,2,0,0,0,16,2.6m0,1.08a1,1,0,0,1,.84.51l3,5.4A3.2,3.2,0,0,0,22,11.15l6.08,1.23A.94.94,0,0,1,28.64,14l-4.2,4.57a3.18,3.18,0,0,0-.82,2.53l.71,6.16h0a.94.94,0,0,1-1.35,1h0l-5.65-2.58a3.17,3.17,0,0,0-2.66,0L9,28.2a.94.94,0,0,1-1.35-1l.71-6.16a3.18,3.18,0,0,0-.82-2.53L3.36,14a.94.94,0,0,1,.52-1.58L10,11.15a3.2,3.2,0,0,0,2.16-1.56h0l3-5.4A1,1,0,0,1,16,3.68" style="fill:#151515"/><circle cx="11.5" cy="16.69" r="1.1" style="fill:#151515"/><circle cx="20.5" cy="16.69" r="1.1" style="fill:#151515"/><path d="M15,18.17a.55.55,0,0,0-.44.65h0a1.44,1.44,0,0,0,.21.53h0a1.6,1.6,0,0,0,.41.41h0a1.6,1.6,0,0,0,.52.22h0a1.82,1.82,0,0,0,.57,0h0a1.46,1.46,0,0,0,.53-.22h0a1.39,1.39,0,0,0,.4-.4,1.3,1.3,0,0,0,.22-.53.56.56,0,0,0-.44-.66.57.57,0,0,0-.66.44h0a.18.18,0,0,1,0,.12h0a.28.28,0,0,1-.09.1l-.12.05h0a.66.66,0,0,1-.14,0l-.12-.05h0a.2.2,0,0,1-.09-.09h0a.31.31,0,0,1-.05-.12.56.56,0,0,0-.66-.44h0" style="fill:#151515"/></svg>