<svg xmlns="http://www.w3.org/2000/svg" viewBox="0 0 32 32"><title>file_type_pgsql</title><path d="M29.507,18.773a1.378,1.378,0,0,0-1.144-.921,2.619,2.619,0,0,0-.913.051,8.2,8.2,0,0,1-1.406.185,27.125,27.125,0,0,0,2.872-6.83c.953-3.689.444-5.369-.151-6.13A8.239,8.239,0,0,0,22.121,2a11.773,11.773,0,0,0-3.453.484A12.858,12.858,0,0,0,16.648,2.3a6.565,6.565,0,0,0-3.518.867,16.039,16.039,0,0,0-2.484-.624,7.694,7.694,0,0,0-5.819.924C3.093,4.691,2.289,6.819,2.438,9.792A36.351,36.351,0,0,0,3.844,16.33a22.579,22.579,0,0,0,1.514,3.863A4.786,4.786,0,0,0,7.8,22.742a2.4,2.4,0,0,0,2.379-.516,2.08,2.08,0,0,0,.5.43,3.328,3.328,0,0,0,.944.4,5.069,5.069,0,0,0,3.3-.2c.006.171.011.335.014.477.006.229.013.454.021.665a11.641,11.641,0,0,0,.441,3.3c.016.043.037.107.059.176a3.975,3.975,0,0,0,.991,1.745,2.955,2.955,0,0,0,2.09.777,4.7,4.7,0,0,0,.977-.109A4.592,4.592,0,0,0,22.607,28.1c.811-1.155,1.206-2.894,1.277-5.635.009-.078.018-.152.026-.222l.017-.145.191.017.049,0a7.562,7.562,0,0,0,3.163-.548c.631-.293,2.654-1.361,2.177-2.8"/><path d="M27.689,19.053c-3.163.652-3.38-.418-3.38-.418C27.648,13.68,29.044,7.39,27.839,5.851c-3.286-4.2-8.975-2.213-9.07-2.162l-.031.006a11.28,11.28,0,0,0-2.11-.22,5.212,5.212,0,0,0-3.34,1S3.14.294,3.612,9.733c.1,2.008,2.878,15.194,6.191,11.211,1.211-1.456,2.381-2.688,2.381-2.688a3.071,3.071,0,0,0,2.006.512l.057-.048a2.21,2.21,0,0,0,.023.567c-.854.954-.6,1.121-2.309,1.472-1.726.356-.712.989-.05,1.155a3.508,3.508,0,0,0,3.915-1.272l-.05.2c.334.268.569,1.742.53,3.079a8.481,8.481,0,0,0,.2,2.971c.264.717.526,2.329,2.769,1.849a3.307,3.307,0,0,0,2.98-3.179c.1-1.234.313-1.052.326-2.155l.174-.522c.2-1.673.032-2.213,1.186-1.962l.281.025a6.4,6.4,0,0,0,2.615-.44c1.406-.652,2.239-1.742.853-1.455h0" style="fill:#336791"/><path d="M13.882,10.631a.981.981,0,0,0-.674.1.247.247,0,0,0-.1.164.48.48,0,0,0,.117.314.881.881,0,0,0,.559.349.637.637,0,0,0,.09.006.725.725,0,0,0,.687-.467c.035-.248-.326-.414-.676-.463m9.442.008c-.027-.195-.374-.25-.7-.2s-.647.194-.62.389a.667.667,0,0,0,.62.411.592.592,0,0,0,.083-.006.8.8,0,0,0,.451-.247.5.5,0,0,0,.169-.343" style="fill:#fff"/><path d="M28.741,18.979c-.121-.365-.509-.482-1.154-.349-1.915.4-2.6.121-2.826-.044a26.327,26.327,0,0,0,3.373-7.565,14.374,14.374,0,0,0,.5-3.253,3.513,3.513,0,0,0-.509-2.2,7.482,7.482,0,0,0-6.049-2.825,10.363,10.363,0,0,0-3.5.551,8.717,8.717,0,0,0-1.968-.253,5.684,5.684,0,0,0-3.372.929,15.051,15.051,0,0,0-2.74-.718,6.978,6.978,0,0,0-5.242.805c-1.5,1.064-2.2,2.966-2.061,5.653a35.489,35.489,0,0,0,1.373,6.348c1.07,3.505,2.233,5.49,3.457,5.9a1.548,1.548,0,0,0,.491.081,2.049,2.049,0,0,0,1.563-.886q1.042-1.25,2.155-2.438a3.472,3.472,0,0,0,1.55.417l0,.042q-.14.166-.273.338c-.375.475-.452.574-1.658.823-.343.071-1.254.259-1.267.9-.014.7,1.077.991,1.2,1.022a5.144,5.144,0,0,0,1.249.162,3.634,3.634,0,0,0,2.5-.934,23.674,23.674,0,0,0,.381,5.684,2.854,2.854,0,0,0,2.729,2.1,4.378,4.378,0,0,0,.917-.1,3.462,3.462,0,0,0,3.156-3.212c.177-1.026.481-3.475.624-4.789a3.859,3.859,0,0,0,1.11.137,6.6,6.6,0,0,0,2.519-.48c.712-.331,2-1.141,1.763-1.846ZM24.051,10.1a7.968,7.968,0,0,1-.116,1.107,10.229,10.229,0,0,0-.14,1.3,9.859,9.859,0,0,0,.1,1.47,5.236,5.236,0,0,1-.229,2.986,3.882,3.882,0,0,1-.207-.426c-.058-.141-.185-.368-.359-.681-.68-1.22-2.274-4.078-1.458-5.244.243-.347.86-.7,2.408-.512ZM22.174,3.531a6.617,6.617,0,0,1,5.334,2.522c.975,1.245-.1,6.912-3.205,11.8l-.094-.119-.039-.049a5.524,5.524,0,0,0,.506-3.8,9.114,9.114,0,0,1-.1-1.352,9.572,9.572,0,0,1,.131-1.206,7.614,7.614,0,0,0,.123-1.493.619.619,0,0,0,.013-.21,8.381,8.381,0,0,0-1.912-3.6,8.61,8.61,0,0,0-3.039-2.284,10.246,10.246,0,0,1,2.28-.214ZM9.479,20.654c-.627.754-1.061.61-1.2.562-.928-.31-2.006-2.272-2.955-5.384a35.167,35.167,0,0,1-1.34-6.159c-.12-2.4.462-4.074,1.73-4.974,2.063-1.463,5.456-.587,6.819-.143-.02.019-.04.037-.059.057-2.237,2.259-2.184,6.119-2.178,6.355,0,.091.007.22.018.4a15.969,15.969,0,0,1-.081,3.226A4.08,4.08,0,0,0,11.3,18.007q.133.138.278.262c-.383.41-1.216,1.318-2.1,2.385Zm2.39-3.19a3.3,3.3,0,0,1-.865-2.764,16.7,16.7,0,0,0,.087-3.381c-.006-.095-.011-.178-.014-.243A4.3,4.3,0,0,1,14,10.223a1.188,1.188,0,0,1,.918,1.026c.646,2.989.085,4.234-.365,5.235-.093.206-.181.4-.255.6l-.058.156a10.218,10.218,0,0,0-.368,1.109,2.788,2.788,0,0,1-2-.887Zm.113,4.03a1.733,1.733,0,0,1-.523-.225,2.553,2.553,0,0,1,.557-.166c1.418-.292,1.637-.5,2.116-1.105.11-.139.234-.3.406-.489h0c.256-.287.374-.238.586-.15a.829.829,0,0,1,.408.525.585.585,0,0,1-.05.491A3.1,3.1,0,0,1,11.983,21.495ZM19.406,28.4a2.113,2.113,0,0,1-2.754-1.526,31.129,31.129,0,0,1-.3-6.853.392.392,0,0,0-.017-.124,1.643,1.643,0,0,0-.048-.23,1.589,1.589,0,0,0-.862-1.034,1.216,1.216,0,0,0-.793-.1,9.586,9.586,0,0,1,.342-1.022l.058-.157c.066-.177.148-.36.235-.554.471-1.047,1.117-2.482.416-5.722a2.044,2.044,0,0,0-2.468-1.669A5.694,5.694,0,0,0,11.328,10c-.078.04-.15.078-.216.115A8.244,8.244,0,0,1,13.03,5.163,4.711,4.711,0,0,1,16.6,3.827,7.567,7.567,0,0,1,22.381,6.59,8.774,8.774,0,0,1,23.963,9.3c-1.463-.149-2.458.14-2.962.861-1.1,1.568.6,4.612,1.416,6.075.15.268.279.5.319.6a5.432,5.432,0,0,0,.861,1.387c.077.1.152.189.208.271-.443.128-1.239.423-1.166,1.9-.058.74-.474,4.205-.686,5.43-.279,1.617-.874,2.22-2.548,2.579Zm7.242-8.288a5.714,5.714,0,0,1-1.931.4,2.422,2.422,0,0,1-1.3-.167c-.045-.919.3-1.015.66-1.117.057-.016.112-.032.166-.05a1.353,1.353,0,0,0,.11.08c.639.422,1.78.467,3.39.135l.018,0a4.334,4.334,0,0,1-1.116.72Z" style="fill:#fff"/></svg>