<svg xmlns="http://www.w3.org/2000/svg" viewBox="0 0 32 32"><title>file_type_rexx</title><path d="M9.831,20.254c0,.174-.132.139-.238.139-.644,0-1.289,0-1.934.007a.326.326,0,0,1-.322-.186Q5.9,17.819,4.456,15.43a.707.707,0,0,1-.084-.392c0-.755.006-1.509-.006-2.264a.444.444,0,0,1,.258-.456c.4-.218.766-.482,1.163-.7.245-.132.254-.247.111-.471-.354-.553-.7-1.111-1.008-1.693-.176-.338-.448-.282-.7-.248s-.134.291-.134.441q-.012,5.064-.006,10.126c0,.57,0,.571-.59.57-.37,0-.742-.018-1.111,0C2.089,20.363,2,20.3,2,20.017q.013-6.279,0-12.556c0-.25.064-.327.322-.323q1.707.019,3.416,0A.456.456,0,0,1,6.19,7.4c.919,1.539,1.85,3.071,2.778,4.605.012.2-.168.232-.287.3-.776.458-1.546.928-2.341,1.352-.313.167-.264.308-.121.546.627,1.041,1.241,2.09,1.864,3.134Q8.953,18.8,9.831,20.254Z" style="fill:#f70000"/><path d="M15.173,19.343a1.052,1.052,0,0,0-.159.236c-.22.655-.665.824-1.337.783-1.033-.063-2.073-.015-3.11-.016-.147,0-.3.035-.42-.1a.774.774,0,0,0-.054-.151c-1.154-1.926-2.3-3.855-3.47-5.774-.162-.266-.156-.39.139-.544.751-.393,1.483-.82,2.216-1.245a1.116,1.116,0,0,1,.584-.154c1.565.006,3.129.01,4.694,0a.456.456,0,0,1,.461.249c.422.72.839,1.446,1.3,2.139.238.354.146.487-.19.675-1.41.785-2.8,1.6-4.2,2.406-.1.055-.27.073-.228.24s.191.168.335.167c.314,0,.629-.018.941.009.288.025.357-.095.333-.353-.017-.185-.036-.367.189-.492.785-.437,1.558-.9,2.416-1.392C15.451,17.18,15.885,18.327,15.173,19.343Zm-2.207-4.754-.012-.066H9.226c.316.525.612,1,.887,1.482.1.175.2.1.3.043Q11.692,15.322,12.966,14.589Z" style="fill:#f70000"/><path d="M21.4,14.4c-.3.567-.594,1.138-.9,1.7-.13.236-.032.409.088.6.73,1.185,1.453,2.375,2.223,3.635-.852,0-1.637,0-2.421,0-.142,0-.156-.133-.211-.222-.471-.766-.943-1.532-1.446-2.348-.442.769-.876,1.495-1.277,2.238a.576.576,0,0,1-.612.344c-.628-.024-1.256-.007-1.915-.007.115-.392.428-.642.51-1.006.543-.928,1.078-1.861,1.634-2.782a.5.5,0,0,0,0-.615c-.722-1.151-1.415-2.322-2.121-3.491.214-.128.432-.011.62-.1.506.009,1.013.043,1.516.018a.587.587,0,0,1,.589.331c.333.533.68,1.057,1.017,1.587.121.189.206.266.353,0,.339-.608.705-1.2,1.061-1.8a.156.156,0,0,1,.174-.006l0,.011c.03.059.056.119.088.177A15.857,15.857,0,0,1,21.4,14.4Z" style="fill:#f70000"/><path d="M29.573,10.941A6.791,6.791,0,0,1,30,10.362V6.077c-.193-.058-.245.111-.311.217-.237.384-.455.781-.685,1.17q-1.347,2.275-2.7,4.551l-.123.162c-.29.725-.78,1.338-1.136,2.026-.107.206-.235.4-.367.625a2.111,2.111,0,0,1-.468-.656c-.345-.528-.679-1.062-1.01-1.6-.076-.122-.137-.218-.309-.216-.727.009-1.455,0-2.182,0-.1,0-.2-.007-.183.141a11.325,11.325,0,0,1,1.144,1.814c.39.611.775,1.224,1.171,1.831a.384.384,0,0,1-.023.455c-.27.461-.533.925-.8,1.39-.05.089-.164.164-.083.292l1.262,2,1.471-2.441,1.983,3.313.992,1.627a1.286,1.286,0,0,1,.075.109c.36.615.738,1.22,1.106,1.83l0,.006,0-.006c.119.2.237.4.353.6a1.256,1.256,0,0,0,.816.618V22.309c-.672-1.094-1.347-2.186-2.016-3.283-.477-.783-.94-1.576-1.423-2.356a.484.484,0,0,1-.019-.566C27.555,14.385,28.559,12.66,29.573,10.941Z" style="fill:#f70000"/></svg>