<svg viewBox="0 0 32 32" xmlns="http://www.w3.org/2000/svg" xmlns:xlink="http://www.w3.org/1999/xlink"><clipPath id="a"><path d="m23.62 8.26a.65.65 0 0 0 -.74-.52.57.57 0 0 0 -.34.18l-3.31 3.31-2.59-4.94a.62.62 0 0 0 -.84-.29.55.55 0 0 0 -.27.27l-1.4 2.73-3.58-6.66a.64.64 0 0 0 -.86-.26.66.66 0 0 0 -.32.46l-3.48 22.05 9.21 5.16a1.82 1.82 0 0 0 1.86 0l9.34-5.16z"/></clipPath><linearGradient id="b" gradientUnits="userSpaceOnUse" x1="9.89" x2="8.62" y1="17.04" y2="16.37"><stop offset="0" stop-color="#a52a22"/><stop offset=".4" stop-color="#a52a22" stop-opacity=".5"/><stop offset=".8" stop-color="#a52a22" stop-opacity="0"/></linearGradient><linearGradient id="c" gradientUnits="userSpaceOnUse" x1="15.29" x2="14.71" y1="15.2" y2="14.63"><stop offset="0" stop-color="#a52a22" stop-opacity=".8"/><stop offset=".5" stop-color="#a52a22" stop-opacity=".21"/><stop offset="1" stop-color="#a52a22" stop-opacity="0"/></linearGradient><linearGradient id="d" gradientUnits="userSpaceOnUse" x1="5.35" x2="26.62" y1="6.95" y2="28.22"><stop offset="0" stop-color="#fff" stop-opacity=".1"/><stop offset="1" stop-color="#fff" stop-opacity="0"/></linearGradient><g clip-path="url(#a)"><path d="m5.89 24.59 3.49-22a.63.63 0 0 1 .71-.59.61.61 0 0 1 .45.33l3.59 6.67 1.42-2.7a.63.63 0 0 1 .85-.3.59.59 0 0 1 .27.27l9.62 18.31z" fill="#f9a01b"/><path d="m17.7 2.16-16.86-1.43v30.55l5.05-6.69z" fill="url(#b)" opacity=".12"/><path d="m17.83 16-3.73-7-8.21 15.59z" fill="#f47d20"/><path d="m.84.73h30.54v30.55h-30.54z" fill="url(#c)" opacity=".2"/><path d="m26.29 24.59-2.67-16.33a.65.65 0 0 0 -.74-.52.57.57 0 0 0 -.34.18l-16.65 16.67 9.21 5.16a1.82 1.82 0 0 0 1.86 0z" fill="#ffcb2a"/><path d="m23.62 8.26a.65.65 0 0 0 -.74-.52.57.57 0 0 0 -.34.18l-3.31 3.31-2.59-4.94a.62.62 0 0 0 -.84-.29.55.55 0 0 0 -.27.27l-1.4 2.73-3.58-6.66a.64.64 0 0 0 -.86-.26.66.66 0 0 0 -.32.46l-3.48 22.05.09.05 13.28-13.25 3.31-3.31a.64.64 0 0 1 .91 0 .61.61 0 0 1 .17.34l2.65 16.18zm-17.73 16.31 3.49-21.87a.61.61 0 0 1 .7-.53.61.61 0 0 1 .46.33l3.57 6.64 1.42-2.69a.63.63 0 0 1 .85-.28.53.53 0 0 1 .27.28l2.55 4.83z" fill="#fff" fill-opacity=".2"/><path d="m17 29.61a2 2 0 0 1 -1.86 0l-9.14-5.16v.14l9.21 5.16a1.84 1.84 0 0 0 1.87 0l9.33-5.16v-.14z" fill="#a52a22" opacity=".2"/><path d="m23.62 8.26a.65.65 0 0 0 -.74-.52.57.57 0 0 0 -.34.18l-3.31 3.31-2.59-4.94a.62.62 0 0 0 -.84-.29.55.55 0 0 0 -.27.27l-1.4 2.73-3.58-6.66a.64.64 0 0 0 -.86-.26.66.66 0 0 0 -.32.46l-3.48 22.05 9.21 5.16a1.82 1.82 0 0 0 1.86 0l9.34-5.16z" fill="url(#d)"/></g><circle cx="23.75" cy="23.64" fill="#fff" r="6.36"/><path d="m23.75 20.46a3.18 3.18 0 1 0 3.18 3.18 3.17 3.17 0 0 0 -3.16-3.18zm-.32 5.7a2.53 2.53 0 0 1 -2.23-2.52 2.3 2.3 0 0 1 .07-.58l1.52 1.53v.32a.64.64 0 0 0 .64.64zm2.19-.83a.63.63 0 0 0 -.6-.44h-.32v-.89a.32.32 0 0 0 -.32-.32h-1.91v-.68h.63a.32.32 0 0 0 .33-.32v-.63h.64a.66.66 0 0 0 .63-.64v-.13a2.55 2.55 0 0 1 1.4 3.32 2.44 2.44 0 0 1 -.47.75z" fill="#010101" fill-opacity=".54" fill-rule="evenodd"/></svg>