<?xml version="1.0" encoding="UTF-8" standalone="no"?><!DOCTYPE svg PUBLIC "-//W3C//DTD SVG 1.1//EN" "http://www.w3.org/Graphics/SVG/1.1/DTD/svg11.dtd"><svg width="100%" height="100%" viewBox="0 0 32 32" version="1.1" xmlns="http://www.w3.org/2000/svg" xmlns:xlink="http://www.w3.org/1999/xlink" xml:space="preserve" xmlns:serif="http://www.serif.com/" style="fill-rule:evenodd;clip-rule:evenodd;stroke-linejoin:round;stroke-miterlimit:2;"><path d="M6.165,29.08c-2.4,-0.471 -4.147,-2.594 -4.147,-5.04c-0,-0.349 0.035,-0.698 0.106,-1.04c0.339,-1.427 0.269,-1.344 7.635,-9.049l6.941,-7.26l1.968,1.876l-8,8.352l6.69,-0.144l4.728,-4.932l1.96,1.886l-6.951,7.24c-6.377,6.642 -7.009,7.269 -7.657,7.59c-1.003,0.527 -2.152,0.711 -3.27,0.524l-0.003,-0.003Zm19.55,-16.646c-0.183,-0.11 -2.061,-1.862 -4.173,-3.895l-3.842,-3.695l-0.012,-0.561c-0.045,-0.323 0.049,-0.65 0.259,-0.9c0.318,-0.429 0.867,-0.625 1.385,-0.494c2.957,2.498 5.752,5.18 8.37,8.031c0.035,0.121 0.053,0.246 0.053,0.372c-0,0.734 -0.605,1.339 -1.339,1.339c-0.249,-0 -0.493,-0.069 -0.704,-0.2l0.003,0.003Z" style="fill:#58d09e;fill-rule:nonzero;"/><path d="M4.1,23.621c-0.353,2.277 0.959,3.823 3.439,3.486c0.255,-0.268 3.21,-3.353 9.849,-10.316c-3.34,0.072 -3.3,-0.074 -6.641,-0c-6.681,6.926 -6.814,6.876 -6.647,6.83Z" style="fill:#58d09e;fill-rule:nonzero;"/><g id="Cy-Logo" serif:id="Cy Logo"><g id="Light"><path id="light" d="M19.598,9.992c5.53,-0.197 10.18,4.134 10.379,9.666c0.2,5.531 -4.128,10.181 -9.657,10.377c-5.529,0.197 -10.18,-4.134 -10.379,-9.665c-0.199,-5.532 4.128,-10.182 9.657,-10.378Z" style="fill:#fafafa;"/><g><g><g id="light1" serif:id="light"><path d="M25.335,16.833l-1.888,4.737l-1.9,-4.737l-1.554,0l2.665,6.466l-1.896,4.56l1.359,0.268l4.683,-11.294l-1.469,0Z" style="fill-rule:nonzero;"/><g><path d="M17.039,18.031c0.789,0 1.431,0.418 1.761,1.145l0.026,0.057l1.325,-0.446l-0.029,-0.067c-0.513,-1.239 -1.694,-2.009 -3.083,-2.009c-0.977,-0 -1.771,0.31 -2.426,0.948c-0.653,0.633 -0.982,1.43 -0.982,2.369c-0,0.931 0.329,1.723 0.982,2.357c0.655,0.637 1.449,0.948 2.426,0.948c1.389,-0 2.57,-0.77 3.083,-2.008l0.029,-0.068l-1.327,-0.447l-0.025,0.06c-0.296,0.715 -0.954,1.142 -1.76,1.142c-0.549,0 -1.013,-0.19 -1.381,-0.565c-0.372,-0.38 -0.56,-0.857 -0.56,-1.418c0,-0.565 0.184,-1.033 0.56,-1.43c0.367,-0.377 0.832,-0.568 1.381,-0.568Z" style="fill-rule:nonzero;"/></g></g></g></g><g><path d="M10.578,22.566c-0.23,-0.83 -0.347,-1.693 -0.347,-2.561c-0,-3.964 2.51,-7.589 6.246,-9.018l0.49,1.257c-3.216,1.231 -5.376,4.349 -5.376,7.761c-0,0.748 0.1,1.489 0.297,2.203l-1.31,0.358Z" style="fill:#58d09e;fill-rule:nonzero;"/><path d="M16.412,11.018c0.808,-0.314 1.661,-0.519 2.531,-0.61c3.975,-0.414 7.872,1.683 9.696,5.219l-1.21,0.615c-1.57,-3.044 -4.923,-4.849 -8.343,-4.492c-0.751,0.078 -1.483,0.254 -2.179,0.523l-0.495,-1.255Z" style="fill:#58d09e;fill-rule:nonzero;"/><path d="M24.438,27.033c2.654,-1.678 4.132,-4.656 3.858,-7.77c-0.098,-1.103 -0.407,-2.157 -0.916,-3.13l1.205,-0.623c0.593,1.131 0.952,2.354 1.065,3.636c0.319,3.617 -1.398,7.076 -4.481,9.025l-0.731,-1.138Z" style="fill:url(#_Linear1);fill-rule:nonzero;"/><path d="M21.035,27.172l-0.331,0.795c-0.065,0.158 -0.216,0.264 -0.385,0.271c-0.112,0.005 -0.225,0.007 -0.339,0.007c-3.897,-0.002 -7.345,-2.727 -8.199,-6.482l-1.327,0.297c0.48,2.107 1.683,4.018 3.389,5.384c1.725,1.382 3.899,2.145 6.123,2.149l0.02,0c0.13,0 0.26,-0.003 0.389,-0.008c0.698,-0.029 1.322,-0.463 1.588,-1.106l0.433,-1.039l-1.361,-0.268Z" style="fill:url(#_Linear2);fill-rule:nonzero;"/></g></g></g><defs><linearGradient id="_Linear1" x1="0" y1="0" x2="1" y2="0" gradientUnits="userSpaceOnUse" gradientTransform="matrix(-2.90124,12.1075,-12.1075,-2.90124,27.8028,16.3205)"><stop offset="0" style="stop-color:#58d09e;stop-opacity:1"/><stop offset="1" style="stop-color:#d2d2d2;stop-opacity:0"/></linearGradient><linearGradient id="_Linear2" x1="0" y1="0" x2="1" y2="0" gradientUnits="userSpaceOnUse" gradientTransform="matrix(9.86692,5.88905,-5.88905,9.86692,11.7025,24.1462)"><stop offset="0" style="stop-color:#58d09e;stop-opacity:1"/><stop offset="1" style="stop-color:#000;stop-opacity:1"/></linearGradient></defs></svg>