<svg xmlns="http://www.w3.org/2000/svg" viewBox="0 0 32 32"><path fill="#fdfbba" d="M5.85 7.25V4.1h20.3v6.3h-4.84l-2.64-1.76c-1.45-.97-2.65-1.76-2.67-1.76s-1.22.8-2.66 1.76l-2.63 1.76H5.85Z"/><path fill="#bfdffd" d="M4.39 27.8c.01-.1 3-6.08 3.08-6.16.03-.03.26-.04 1.64-.04h1.6l2.63 1.75 2.65 1.76c.02.01.15-.07.3-.17l2.64-1.76 2.37-1.59h6.32v.1c0 .06-.42.94-1.52 3.14l-1.53 3.05H4.38z"/><path fill="#fdb7b9" d="m14.57 23.4-6.13-4.09c-4.61-3.08-4.81-3.22-4.82-3.3l.04-.13c.03-.03 2.79-1.88 6.14-4.11l6.09-4.07.13.01c.12.01.51.26 5.34 3.48l6.13 4.09c.87.58.92.62.92.7q.01.09-.07.14l-1.77 1.18-1.7 1.15-.08.06c-.04.01-.42.26-.85.55l-.83.55-.25.17-.24.16-1.07.71-1.07.71-2.2 1.47c-2.05 1.36-2.18 1.44-2.29 1.44s-.23-.08-1.43-.88"/><path fill="#1b325f" d="m5.07 24.75 1.98-3.94h1.13c1-.01 1.13-.01 1.08-.04q-.09-.05.05-.04c.08 0 .2.06.72.41.5.34.62.43.63.49l.01.07-1.51-.01-1.58.01c-.05.01-.33.56-1.43 2.76l-1.53 3.05-.17.3h20.04l1.52-3.03 1.52-3.06a63 63 0 0 0-3.08-.03h-3.09v-.06c0-.06.1-.14.62-.48.5-.33.64-.42.72-.42q.1 0 .05.04c-.03.04.32.05 3.07.05h3.11l-3.95 7.88H3.1l1.98-3.94Z"/><path fill="#3f4122" d="m9.23 11.26.04-.05c0-.01-.94-.02-2.1-.02H5.06V3.31h21.88v7.88h-2.1l-2.09.02q0 .02.03.05.04.04-.06.04c-.07 0-.22-.09-.71-.42-.53-.36-.63-.44-.63-.5v-.06h4.68V4.19H5.94v6.12l2.38-.01c2.36 0 2.38 0 2.38.05 0 .04-.18.17-.67.5-.54.37-.67.44-.75.44q-.13.01-.05-.04Z"/><path fill="#3d1f1f" d="m13.14 23.37-4.36-2.92-2.3-1.54-2.55-1.7c-.97-.65-1.77-1.2-1.77-1.21l.32-.24 7.35-4.92 4.92-3.28c.66-.44 1.21-.8 1.25-.8.03 0 1.23.78 2.66 1.74s2.65 1.76 2.7 1.78l.11.06c.02.04 1.1.77 5.4 3.65l3 2-.17.13-7.55 5.06-.69.47-.07.05-4.94 3.29-.44.29-2.86-1.9Zm5.06-.6 2.21-1.48 1.07-.71 1.06-.71.25-.16.25-.17.82-.55c.43-.29.81-.54.85-.55l.08-.06 1.7-1.15 1.76-1.18.07-.05-1.27-.85a1304 1304 0 0 0-11.03-7.34c-.03-.01-2.05 1.32-6.16 4.06l-6.14 4.12c-.02.02 1.22.86 4.82 3.26l6.13 4.1c.7.47 1.3.85 1.32.85s1.01-.64 2.2-1.43Z"/></svg>