<svg xmlns="http://www.w3.org/2000/svg" xmlns:xlink="http://www.w3.org/1999/xlink" viewBox="0 0 32 32"><defs><linearGradient id="linear-gradient" x1="-134.49" y1="-171.82" x2="-134.5" y2="-171.89" gradientTransform="matrix(240, 0, 0, -205.6, 32295, -35312.59)" gradientUnits="userSpaceOnUse"><stop offset="0" stop-color="#f88535"/><stop offset="1" stop-color="#fd2221"/></linearGradient></defs><title>file_type_swift@2x</title><g id="swift"><path d="M19.42,4s6.22,3.55,7.84,9.2c1.47,5.1.29,7.53.29,7.53a8.91,8.91,0,0,1,1.74,2.8A4.82,4.82,0,0,1,29.59,28s-.1-2.08-3.2-2.51c-2.84-.4-3.87,2.37-9.3,2.23A18.43,18.43,0,0,1,2,19.35C4.65,20.8,8.12,23,12.45,22.7S17.68,21,17.68,21A66.9,66.9,0,0,1,4.89,7.64c3.4,2.84,11.82,8.51,11.63,8.36A75.83,75.83,0,0,1,8.09,6.24S20.73,16.63,21.75,16.56c.42-.86,2.58-5.32-2.32-12.56Z" style="fill:url(#linear-gradient)"/></g></svg>