<svg version="1.1" viewBox="0 0 32 32" xmlns="http://www.w3.org/2000/svg" xmlns:xlink="http://www.w3.org/1999/xlink"><defs><linearGradient id="a" x1="-5602.7" x2="-5598.7" y1="768.54" y2="763.92" gradientTransform="matrix(.423 -.906 -.906 -.423 3082.9 -4748.6)" gradientUnits="userSpaceOnUse"><stop stop-color="#f69923" offset="0"/><stop stop-color="#f79a23" offset=".312"/><stop stop-color="#e97826" offset=".838"/></linearGradient><linearGradient id="b" x1="-5632" x2="-5603.7" y1="769.05" y2="769.05" gradientTransform="matrix(.423 -.906 -.906 -.423 3082.9 -4748.6)" gradientUnits="userSpaceOnUse"><stop stop-color="#9e2064" offset=".323"/><stop stop-color="#c92037" offset=".63"/><stop stop-color="#cd2335" offset=".751"/><stop stop-color="#e97826" offset="1"/></linearGradient><linearGradient id="c" x1="-5628.5" x2="-5611.7" y1="766.22" y2="766.22" gradientTransform="matrix(.423 -.906 -.906 -.423 3082.9 -4748.6)" gradientUnits="userSpaceOnUse"><stop stop-color="#282662" offset="0"/><stop stop-color="#662e8d" offset=".095"/><stop stop-color="#9f2064" offset=".788"/><stop stop-color="#cd2032" offset=".949"/></linearGradient><linearGradient id="d" x1="-5630.4" x2="-5602.2" y1="769.32" y2="769.32" xlink:href="#b"/><linearGradient id="e" x1="-5628.3" x2="-5613.5" y1="768.93" y2="768.93" xlink:href="#c"/><linearGradient id="f" x1="-5630.4" x2="-5602.2" y1="766.39" y2="766.39" xlink:href="#b"/><linearGradient id="g" x1="-5632.1" x2="-5603.9" y1="766.54" y2="766.54" xlink:href="#b"/></defs><title>file_type_apache</title><path d="m19.993 2.133a10.267 10.267 0 0 0-2.04 2.056l0.8 1.51a19.733 19.733 0 0 1 1.708-2.144c0.044-0.049 0.068-0.072 0.068-0.072l-0.068 0.072a17.865 17.865 0 0 0-1.6 2.174 30.1 30.1 0 0 0 3.111-0.385 3.288 3.288 0 0 0-0.3-2.5s-0.772-1.244-1.679-0.711z" fill="url(#a)"/><path d="m16.394 9.6q0.365-0.682 0.739-1.332 0.388-0.674 0.784-1.305l0.046-0.075q0.392-0.62 0.79-1.191l-0.8-1.51-0.182 0.225c-0.231 0.288-0.47 0.6-0.716 0.925-0.277 0.37-0.562 0.764-0.851 1.179-0.267 0.383-0.538 0.784-0.809 1.2-0.231 0.353-0.462 0.717-0.692 1.09l-0.026 0.042 1.041 2.052q0.334-0.656 0.676-1.3z" fill="url(#b)"/><path d="m11.651 21.192q-0.207 0.568-0.415 1.159l-6e-3 0.017-0.059 0.167c-0.093 0.266-0.175 0.5-0.361 1.049a2.107 2.107 0 0 1 0.786 0.926 1.68 1.68 0 0 0-0.544-1.154 3.621 3.621 0 0 0 3.489-1.42 2.791 2.791 0 0 0 0.165-0.313 1.451 1.451 0 0 1-1.4 0.513 4.059 4.059 0 0 0 2.046-1.672c0.111-0.178 0.218-0.372 0.328-0.587a3.3 3.3 0 0 1-3.109 1.01l-0.842 0.092c-0.029 0.071-0.052 0.142-0.078 0.213z" fill="url(#c)"/><path d="m12.044 19.306q0.273-0.706 0.562-1.426 0.276-0.69 0.567-1.387t0.594-1.4q0.308-0.711 0.629-1.419t0.645-1.389q0.118-0.248 0.238-0.495 0.207-0.426 0.417-0.845c7e-3 -0.015 0.015-0.03 0.023-0.045l-1.042-2.053-0.051 0.083c-0.242 0.4-0.484 0.8-0.721 1.216s-0.475 0.844-0.7 1.276q-0.291 0.547-0.568 1.1l-0.11 0.225c-0.227 0.467-0.432 0.918-0.617 1.352q-0.315 0.737-0.556 1.406c-0.107 0.293-0.2 0.576-0.292 0.847-0.073 0.232-0.142 0.464-0.208 0.7q-0.234 0.818-0.4 1.631l1.046 2.065q0.208-0.554 0.426-1.124z" fill="url(#d)"/><path d="m10.435 18.755a16.07 16.07 0 0 0-0.272 1.974c0 0.023 0 0.046-5e-3 0.069a4.15 4.15 0 0 0-1.2-1.029 5.825 5.825 0 0 1 1.172 2.693 2.642 2.642 0 0 1-1.325-0.226 2.662 2.662 0 0 0 1.13 0.686 3.247 3.247 0 0 0-1.571 0.783 3.359 3.359 0 0 1 1.861-0.342c-0.715 2.026-1.432 4.263-2.149 6.637a0.625 0.625 0 0 0 0.425-0.413c0.128-0.43 0.976-3.251 2.306-6.959l0.115-0.318 0.032-0.089q0.211-0.583 0.437-1.19l0.1-0.277v-5e-3l-1.041-2.065c-5e-3 0.023-0.011 0.047-0.015 0.071z" fill="url(#e)"/><path d="m15.88 11.078-0.09 0.185q-0.135 0.279-0.274 0.57-0.15 0.315-0.3 0.645c-0.052 0.111-0.1 0.222-0.155 0.335q-0.234 0.508-0.474 1.049-0.3 0.666-0.6 1.384-0.291 0.685-0.59 1.418-0.284 0.7-0.575 1.436-0.259 0.661-0.523 1.357c-9e-3 0.023-0.017 0.045-0.025 0.068q-0.262 0.693-0.529 1.422l-0.012 0.033 0.842-0.092-0.05-9e-3a6 6 0 0 0 3.21-1.807 7.984 7.984 0 0 0 1.1-1.524 13.139 13.139 0 0 0 0.706-1.467c0.195-0.472 0.382-0.982 0.562-1.536a3.053 3.053 0 0 1-0.788 0.274c-0.051 0.011-0.1 0.021-0.156 0.03s-0.107 0.018-0.161 0.025a3.668 3.668 0 0 0 1.962-1.913 3.344 3.344 0 0 1-1.13 0.495c-0.066 0.015-0.132 0.026-0.2 0.036l-0.05 7e-3a3.821 3.821 0 0 0 0.839-0.469c0.051-0.038 0.1-0.078 0.148-0.12 0.073-0.063 0.142-0.129 0.208-0.2 0.042-0.044 0.083-0.09 0.123-0.138a3.27 3.27 0 0 0 0.263-0.362c0.025-0.04 0.05-0.08 0.074-0.122 0.031-0.06 0.061-0.119 0.09-0.178 0.131-0.264 0.236-0.5 0.319-0.706 0.042-0.1 0.078-0.2 0.109-0.288 0.013-0.035 0.025-0.07 0.036-0.1 0.033-0.1 0.06-0.187 0.081-0.265a2.605 2.605 0 0 0 0.062-0.275 1.01 1.01 0 0 1-0.109 0.075 3.965 3.965 0 0 1-1.162 0.4l0.773-0.085-0.773 0.085h-0.018l-0.119 0.019 0.021-9e-3 -2.645 0.29z" fill="url(#f)"/><path d="m18.858 5.73c-0.235 0.361-0.492 0.771-0.768 1.236l-0.044 0.074q-0.358 0.6-0.759 1.327-0.346 0.626-0.719 1.347-0.326 0.629-0.672 1.336l2.645-0.29a3.216 3.216 0 0 0 1.449-1.14c0.089-0.128 0.178-0.262 0.267-0.4 0.272-0.424 0.538-0.891 0.776-1.355a14.074 14.074 0 0 0 0.588-1.294 6.8 6.8 0 0 0 0.233-0.7c0.048-0.184 0.086-0.358 0.115-0.524a30.152 30.152 0 0 1-3.111 0.383z" fill="url(#g)"/></svg>
