<svg xmlns="http://www.w3.org/2000/svg" viewBox="0 0 32 32"><path fill="#41cd52" d="M5.89 5 2 8.96V26h17.7v-3.9c0-.65.32-1.17.8-1.54a4.2 4.2 0 0 1-.5-2.46V14h-1v-2h1V9h2v3h2v2h-2v3.9l-.01.24a3 3 0 0 1 2.25-1.1c.57 0 1.05.19 1.46.45.41-.26.9-.46 1.47-.46 1.36 0 2.25.96 2.66 1.72a2 2 0 0 1 .17.46V5h-2.7zm5.91 3.9q.32-.02.62.01 2.73 0 3.83 1.55a8.4 8.4 0 0 1 1.1 4.77q.05 1.76-.45 3.44a4 4 0 0 1-1.47 2l1.47 2.4-1.83.85-1.57-2.59q-.53.13-1.08.1-2.76 0-3.85-1.48a8 8 0 0 1-1.08-4.7 8.4 8.4 0 0 1 1.1-4.78A4.4 4.4 0 0 1 11.8 8.9m.95 1.7-.33.01a2.4 2.4 0 0 0-2.3 1.1 8 8 0 0 0-.6 3.52 7 7 0 0 0 .6 3.44 2.4 2.4 0 0 0 2.31 1.03c.9.11 1.78-.27 2.3-1.01.46-1.08.66-2.27.58-3.44a8 8 0 0 0-.6-3.53 2.4 2.4 0 0 0-1.96-1.12"/><path fill="#c8ab37" d="M21.95 22.1h7.5v7.5h-7.5z"/><path fill="#502d16" d="M24.24 18.28c-.78 0-1.29.55-1.56 1.06q-.4.77-.4 1.74v.02h-.33a1 1 0 0 0-1 1v7.5a1 1 0 0 0 1 1h7.5a1 1 0 0 0 1-1v-7.5a1 1 0 0 0-1-1h-.33v-.02q.01-.97-.4-1.74c-.27-.51-.78-1.06-1.55-1.06-.7 0-1.18.44-1.47.9-.29-.46-.77-.9-1.46-.9m0 1a.96 1.8 0 0 1 .95 1.8.96 1.8 0 0 1 0 .02h-1.91a.96 1.8 0 0 1 0-.02.96 1.8 0 0 1 .96-1.8m2.93 0a.96 1.8 0 0 1 .95 1.8.96 1.8 0 0 1 0 .02h-1.91a.96 1.8 0 0 1 0-.02.96 1.8 0 0 1 .96-1.8m-5.22 2.82h3.25v3.25h-3.25zm4.25 0h3.25v3.25H26.2zm-4.25 4.25h3.25v3.25h-3.25zm4.25 0h3.25v3.25H26.2z"/></svg>