<svg viewBox="0 0 32 32" xmlns="http://www.w3.org/2000/svg"><path d="m29.465 15.715c-1.44-1.384-8.642-2.248-10.914-2.5a6.669 6.669 0 0 0 .281-.806 9.094 9.094 0 0 1 .99-.367c.042.124.241.6.354.826 4.569.126 4.8-3.4 4.99-4.36a5.447 5.447 0 0 1 1.74-3.521c-2.335-.68-5.693 1.055-6.818 3.637a7.015 7.015 0 0 0 -1.265-.348 6.137 6.137 0 0 0 -5.966-4.585 11.154 11.154 0 0 0 -10.857 11.541c0 6.1 4.163 11.442 6.515 11.442a2.316 2.316 0 0 0 2.118-1.459c.174.473.708 1.943.883 2.317.259.553 1.457 1.032 1.981.458a1.93 1.93 0 0 0 2.585-.4 1.914 1.914 0 0 0 2.471-1.423c.637-.034.95-.928.81-1.641a17.5 17.5 0 0 0 -1.625-3.056c.846.688 2.988.883 3.248 0 1.364 1.07 3.489.509 3.657-.362 1.657.431 3.558-.515 3.245-1.66 2.664-.183 2.324-3.015 1.577-3.733z" fill="#543729"/><path d="m22.053 9.675a10.185 10.185 0 0 1 2.2-3.148 5.71 5.71 0 0 0 -2.575 2.9 9.019 9.019 0 0 0 -.906-.506 5.878 5.878 0 0 1 4.8-3.308c-1.4 1.269-.9 3.906-2.053 5.3a15.066 15.066 0 0 0 -1.466-1.238zm-.9 1.852a4.627 4.627 0 0 1 .047-.533 4.837 4.837 0 0 0 -.839-.11 3.157 3.157 0 0 0 .291 1.216 4.378 4.378 0 0 0 2.282-.633 7.638 7.638 0 0 0 -1.54-.434c-.059.116-.194.409-.245.494z" fill="#00acee"/><path d="m17.2 20.527v.005c-.135-.29-.278-.642-.449-1.1.665.968 2.75.469 2.641-.4 1.02.768 3.121-.128 2.643-1.2 1.022.476 2.189-.482 1.927-.9 1.743.336 3.413.671 3.937.805a2.032 2.032 0 0 1 -2.337.69c.646.88-.608 1.936-2.355 1.354.385.864-1.171 1.642-2.939.741.023.861-2.192.96-3.068.005zm3.457-4.369c2.023.155 5.367.457 7.438.747-.131-.674-.488-.866-1.612-1.168-1.209.129-4.277.43-5.826.421z" fill="#2baf2b"/><path d="m19.393 19.031c1.02.768 3.121-.128 2.643-1.2 1.022.476 2.189-.482 1.927-.9-2.06-.4-4.222-.8-4.713-.866.3.016.791.05 1.406.1 1.55.009 4.617-.293 5.826-.422a58.716 58.716 0 0 0 -8.714-1.4 3.964 3.964 0 0 1 -.773.841c-1.208 2.555-3.4 4.253-5.816 4.253a7.8 7.8 0 0 1 -2.38-.4c-.552.591-2.9 1.039-4.813.1a9.737 9.737 0 0 0 8.914 5.907c3.273 0 4.725-3.342 4.407-4.227-.077-.215-.382-.927-.553-1.387.663.97 2.746.47 2.639-.399z" fill="#ffcc2f"/><path d="m17.409 12.3a9.482 9.482 0 0 1 2.239-.99c-.015-.105-.026-.212-.033-.319-.624.15-1.8.654-2.476-.041 1.423.429 2.134-.383 3.18-.383a6.724 6.724 0 0 1 2.214.449 7.469 7.469 0 0 0 -4.7-2.1 3.29 3.29 0 0 0 -.424 3.384z" fill="#cecece"/><path d="m8.8 19.03a7.8 7.8 0 0 0 2.38.4c2.421 0 4.609-1.7 5.816-4.253a7.485 7.485 0 0 1 -4.87 1.384 7.621 7.621 0 0 0 4.964-3.139 4.221 4.221 0 0 1 .44-5.249 4.931 4.931 0 0 0 -4.674-3.284c-5.281.002-9.656 4.421-9.656 10.343a9.893 9.893 0 0 0 .788 3.9c1.912.937 4.26.489 4.812-.102z" fill="#ef5734"/><path d="m10.384 10.013a2.439 2.439 0 1 0 2.439-2.439 2.439 2.439 0 0 0 -2.439 2.439z" fill="#ffcc2f"/><path d="m11.363 10.013a1.46 1.46 0 1 0 1.46-1.46 1.46 1.46 0 0 0 -1.46 1.46z" fill="#543729"/><ellipse cx="12.823" cy="9.365" fill="#fff" rx=".851" ry=".529"/></svg>