<svg xmlns="http://www.w3.org/2000/svg" xmlns:xlink="http://www.w3.org/1999/xlink" viewBox="0 0 32 32"><defs><linearGradient id="a" x1="16" y1="32" x2="16" y2="4" gradientTransform="matrix(1, 0, 0, -1, 0, 34)" gradientUnits="userSpaceOnUse"><stop offset="0" stop-color="#fefefe"/><stop offset="1" stop-color="#b8b8b8"/></linearGradient></defs><title>file_type_ink</title><path d="M16,2A14,14,0,1,0,30,16,14,14,0,0,0,16,2Z" style="fill:url(#a)"/><path d="M15.122,12.234a.5.5,0,0,0,.5-.5c0-.276-.108-.6-.384-.6a.7.7,0,0,0-.614.6A.5.5,0,0,0,15.122,12.234Zm-1.286,5.04a1.834,1.834,0,0,0,1.327-.55.438.438,0,1,0,.871.064A.4.4,0,0,0,15.8,16.4c-.22-.125-.246-.416-.134-.406s.279.192.463.283a1.42,1.42,0,0,0,.665.171c.994,0,2.167-.766,2.167-1.76a1.633,1.633,0,0,0-1.72-1.678A1.734,1.734,0,0,0,15.583,14.3a4.474,4.474,0,0,0-.032.5c0,.122-.01.22-.114.236s-.2-.082-.344-.268a1.253,1.253,0,0,0-1.1-.487,1.539,1.539,0,0,0-1.5,1.5A1.364,1.364,0,0,0,13.836,17.274Zm9.2.309a.612.612,0,0,0,.638-.746c-.05-.422-.188-.693-.617-.693a.693.693,0,0,0-.693.693h0A.723.723,0,0,0,23.033,17.583Zm2.655.254a4,4,0,0,0-3.529,2.138c-.267.483-.2,1.272-.427,1.375-.27.122-.925-1.087-.975-2.131a1.828,1.828,0,0,0-1.8-1.768c-1.195-.045-1.608,1.318-2.058,1.393-.26.043-.627-.819-2.044-1.075a1.894,1.894,0,0,0-2.075,1.869c-.056,1.919,1.784,2.528,1.719,3.112-.031.281-.406.344-.488,1.294-.084.977.75,1.239.731,1.581-.016.289-.755.65-1.347.24-.243-.168-.709-.846-1.531-.852A1.788,1.788,0,0,0,10.258,26a11.538,11.538,0,0,0,17.024-7.6A1.877,1.877,0,0,0,25.688,17.837Z" style="fill:#040404"/><path d="M12.075,23.05A1.989,1.989,0,0,0,10.981,21.5a.413.413,0,0,1-.256-.435c.05-.408-.188-.7-.759-.653a.744.744,0,0,1-.875-.706,1.056,1.056,0,0,1,.562-.811,1.873,1.873,0,0,0,.923-1.373,2.278,2.278,0,0,0-1.6-1.931,2.056,2.056,0,0,0-1.6.558c-.3.268-.63,1.026-1.338,1.1A5.716,5.716,0,0,1,4.5,16.838l0,.006a11.52,11.52,0,0,0,4.658,8.44s.579-.116.844-.166C11.136,24.9,12.131,24.127,12.075,23.05ZM25.086,8.9c-.048.684-.338,1.154-.2,1.552.193.553-.45.794-.438,1.441.023,1.213,1.087,1.319,1.062,1.613-.029.338-1.488.156-1.488,1.978a1.875,1.875,0,0,0,1.855,1.926,1.763,1.763,0,0,0,1.636-.789A11.465,11.465,0,0,0,25.086,8.9Z" style="fill:#040404"/><path d="M18.144,14.033c0,.14-.122.253-.324.253s-.3-.113-.3-.253.093-.253.3-.253S18.144,13.893,18.144,14.033Zm-3,1.183c0,.14-.132.174-.257.174s-.2-.035-.2-.174a.187.187,0,0,1,.212-.2C15.022,15.016,15.139,15.076,15.139,15.216Zm5.448,5.159c.056.244.354.517-.027.733-.221.125-.492-.183-.619-.656-.059-.218-.1-.573.217-.677S20.535,20.146,20.587,20.375Zm6.563-3.717c-.157.292-.522.5-.757.369s-.119-.465.038-.757.371-.554.606-.427A.621.621,0,0,1,27.15,16.658Zm-.765-1.581c.028.1-.034.2-.175.241a.185.185,0,0,1-.257-.118c-.028-.1.014-.195.155-.236S26.357,14.98,26.385,15.077ZM10.036,16.805c0,.111-.1.2-.258.2s-.235-.09-.235-.2.074-.2.235-.2S10.036,16.693,10.036,16.805Zm16.509-4.776c.055.09-.015.17-.24.312s-.42.2-.465.1.014-.243.243-.377C26.362,11.9,26.471,11.908,26.545,12.029Z" style="fill:#fefefe"/></svg>