<svg xmlns="http://www.w3.org/2000/svg" viewBox="0 0 32 32"><title>file_type_ra_syntax_tree</title><path stroke="#fff" stroke-width=".64" d="M7.71 2.68a2.26 2.26 0 0 0-1.8.94c-.23.27-.38.64-.53.9L5 2.92H2.32v1.43h.98V8.7h-.98v1.47h4.56V8.71H5.45V6.64c.26-.76.68-1.55 1.43-1.92.23-.16.46-.2.38.15v1.05h1.36L9 2.91a3.17 3.17 0 0 0-1.25-.23zm5.96 4.68a1.5 1.5 0 0 0-1.5 1.5 1.5 1.5 0 0 0 1.5 1.51 1.5 1.5 0 0 0 1.51-1.5 1.5 1.5 0 0 0-1.5-1.51z" paint-order="stroke"/><path fill="#30363b" stroke="#20262b" stroke-width=".53" d="M16 13.05h13.74v16.33H16z"/><path fill="#fff" d="M26.08 23q0 .38.11.6.11.2.38.27l-.45 1.44q-.65-.08-1.1-.3t-.68-.65q-.41.5-1.09.76-.64.22-1.32.22-1.13 0-1.81-.64-.64-.64-.64-1.66 0-1.17.9-1.85.95-.64 2.64-.64H24v-.26q0-.57-.37-.83-.38-.26-1.06-.26l-.9.07-1.14.3-.49-1.43q.76-.3 1.51-.41.76-.16 1.36-.16 1.62 0 2.38.68.75.64.75 1.89zm-3.4.76q.38 0 .76-.19t.56-.6v-1.13h-.56q-.9 0-1.36.26-.41.26-.41.8 0 .4.26.63.26.27.72.27z"/></svg>