<svg xmlns="http://www.w3.org/2000/svg" viewBox="0 0 32 32"><title>file_type_go@2x</title><g id="go"><path d="M6,17.15c0,.83.87.44,1.24.19s.46,0,.49-.53a7.94,7.94,0,0,0,0-1,2.34,2.34,0,0,0-1.56.4c-.23.16-.65.69-.21.9" style="fill:#f6d2a2;fill-rule:evenodd"/><path d="M6.42,17.73a.53.53,0,0,1-.24-.05.54.54,0,0,1-.27-.48.36.36,0,0,1-.2-.28,1,1,0,0,1,.43-.73,2.4,2.4,0,0,1,1.61-.41h.07v.07a5.67,5.67,0,0,1,0,.75l0,.22c0,.34-.09.39-.26.46a1,1,0,0,0-.26.13A1.79,1.79,0,0,1,6.42,17.73Zm1.11-1.81a2.2,2.2,0,0,0-1.29.39c-.16.12-.39.39-.37.58a.22.22,0,0,0,.15.18l0,0v0c0,.21.07.34.19.39s.62-.06.93-.27a1.13,1.13,0,0,1,.3-.15c.12,0,.14,0,.16-.32l0-.22a6.15,6.15,0,0,0,0-.66Z"/><path d="M6,17.15A.65.65,0,0,0,6.32,17" style="fill:#c6b198;fill-rule:evenodd"/><path d="M6,17.23a.08.08,0,0,1,0-.15l.05,0a.47.47,0,0,0,.24-.14.08.08,0,1,1,.13.09.61.61,0,0,1-.31.19l-.05,0Z"/><path d="M7.89,7.31C4.73,6.42,7.08,2.4,9.62,4.05Z" style="fill:#6ad7e5;fill-rule:evenodd"/><path d="M7.93,7.4l-.06,0a1.93,1.93,0,0,1-1.56-1.5,2.09,2.09,0,0,1,1-2A2.12,2.12,0,0,1,9.67,4l.06,0Zm.45-3.67a1.85,1.85,0,0,0-1,.3,1.93,1.93,0,0,0-.91,1.82A1.75,1.75,0,0,0,7.85,7.22L9.52,4.08A2.17,2.17,0,0,0,8.38,3.74Z"/><path d="M21.94,3.75C24.45,2,26.71,6,23.8,7Z" style="fill:#6ad7e5;fill-rule:evenodd"/><path d="M23.76,7.05,21.84,3.73l.06,0a2.07,2.07,0,0,1,2.29-.19,2.12,2.12,0,0,1,1,2A1.88,1.88,0,0,1,23.83,7ZM22,3.77l1.79,3.09a1.71,1.71,0,0,0,1.25-1.42,2,2,0,0,0-1-1.81A1.86,1.86,0,0,0,22,3.77Z"/><path d="M22.48,27.32c.64.39,1.8,1.58.84,2.16-.92.84-1.43-.92-2.23-1.16A2.23,2.23,0,0,1,22.48,27.32Z" style="fill:#f6d2a2;fill-rule:evenodd"/><path d="M22.84,29.78h0c-.36,0-.66-.37-1-.71a2,2,0,0,0-.79-.68l-.11,0,.07-.09a2.32,2.32,0,0,1,1.44-1h0l0,0c.41.25,1.25,1,1.24,1.65a.73.73,0,0,1-.39.64A.79.79,0,0,1,22.84,29.78Zm-1.63-1.5A2.51,2.51,0,0,1,22,29c.28.33.55.64.84.66a.63.63,0,0,0,.46-.2h0a.58.58,0,0,0,.32-.51c0-.53-.67-1.2-1.14-1.5A2.06,2.06,0,0,0,21.22,28.28Z"/><path d="M23.33,29.56a.08.08,0,0,1-.07,0,2.92,2.92,0,0,1-.12-.3,1.31,1.31,0,0,0-.29-.52.08.08,0,0,1,.11-.11,1.45,1.45,0,0,1,.32.58,2.81,2.81,0,0,0,.12.28.08.08,0,0,1,0,.11Z"/><path d="M11.12,28.66c-.75.12-1.17.79-1.79,1.13s-.81-.11-.86-.21-.08,0-.23-.1c-.54-.86.57-1.48,1.14-1.91C10.19,27.41,10.7,28.11,11.12,28.66Z" style="fill:#f6d2a2;fill-rule:evenodd"/><path d="M8.94,30,8.8,30a.65.65,0,0,1-.38-.33h0c-.07,0-.11,0-.21-.11h0c-.52-.83.37-1.45,1-1.87l.21-.15h0c.83-.17,1.35.52,1.77,1.07l.12.16-.13,0a2.26,2.26,0,0,0-1.11.63,4,4,0,0,1-.66.49A.86.86,0,0,1,8.94,30Zm-.53-.51.09,0h0l0,0a.51.51,0,0,0,.29.27.6.6,0,0,0,.46-.1,3.91,3.91,0,0,0,.63-.47A2.63,2.63,0,0,1,11,28.61c-.4-.53-.86-1.09-1.56-1l-.2.14c-.6.42-1.35,1-.92,1.65.06.06.08.06.09.06Z"/><path d="M8.47,29.67h0a.08.08,0,0,1-.07-.09A1.2,1.2,0,0,1,8.65,29a1.85,1.85,0,0,0,.16-.28A.08.08,0,0,1,9,28.8a2,2,0,0,1-.18.3,1.07,1.07,0,0,0-.23.5A.08.08,0,0,1,8.47,29.67Z"/><path d="M8,6.2c-.42-.22-.72-.52-.47-1S8.23,4.8,8.65,5Z" style="fill-rule:evenodd"/><path d="M23.14,5.78c.42-.22.72-.52.47-1s-.68-.4-1.09-.18Z" style="fill-rule:evenodd"/><path d="M26,17c0,.83-.87.44-1.24.19s-.46,0-.49-.53a7.94,7.94,0,0,1,0-1,2.34,2.34,0,0,1,1.56.4c.23.16.65.69.21.9" style="fill:#f6d2a2;fill-rule:evenodd"/><path d="M25.58,17.63a1.79,1.79,0,0,1-.85-.33,1,1,0,0,0-.26-.13c-.18-.06-.24-.11-.26-.46l0-.22a5.68,5.68,0,0,1,0-.75v-.07h.07a2.4,2.4,0,0,1,1.61.41,1,1,0,0,1,.43.73.36.36,0,0,1-.2.28.54.54,0,0,1-.27.48A.53.53,0,0,1,25.58,17.63Zm-1.26-1.8a6.15,6.15,0,0,0,0,.66l0,.22c0,.27,0,.28.16.32a1.13,1.13,0,0,1,.3.15c.31.21.71.38.93.27s.18-.19.19-.39v0l0,0a.22.22,0,0,0,.15-.18c0-.19-.21-.47-.37-.58A2.23,2.23,0,0,0,24.32,15.82Z"/><path d="M26,17a.65.65,0,0,1-.33-.19" style="fill:#c6b198;fill-rule:evenodd"/><path d="M26,17.12h0l-.05,0a.61.61,0,0,1-.31-.19.08.08,0,1,1,.13-.09A.47.47,0,0,0,26,17L26,17a.08.08,0,0,1,0,.15Z"/><path d="M15.68,2.08c3.17,0,6.13.45,7.68,3.49,1.39,3.41.89,7.09,1.11,10.69.18,3.09.59,6.67-.85,9.54s-5.28,3.78-8.39,3.66c-2.44-.09-5.39-.88-6.77-3.11-1.62-2.62-.85-6.51-.73-9.42.14-3.45-.93-6.91.2-10.28s4.35-4.29,7.76-4.56" style="fill:#6ad7e5;fill-rule:evenodd"/><path d="M15.77,29.55h-.54c-1.5-.05-5.18-.47-6.83-3.15-1.31-2.12-1.07-5-.87-7.62.05-.65.1-1.26.12-1.84a29.67,29.67,0,0,0-.16-3.67,16.22,16.22,0,0,1,.36-6.64,5.81,5.81,0,0,1,3.08-3.54A13,13,0,0,1,15.68,2h0c3.09,0,6.17.43,7.75,3.54h0a20.52,20.52,0,0,1,1,7.76c0,1,0,2,.07,3,0,.3,0,.6.06.9.18,2.84.39,6.06-.91,8.67C22.06,29.09,17.95,29.55,15.77,29.55ZM15.69,2.16c-3.29.26-6.5,1-7.69,4.51a16.1,16.1,0,0,0-.35,6.58,29.79,29.79,0,0,1,.16,3.69c0,.58-.07,1.2-.12,1.85-.2,2.56-.43,5.45.85,7.53,1.62,2.62,5.23,3,6.71,3.08,1.92.07,6.58-.15,8.32-3.62,1.29-2.57,1.08-5.77.9-8.59,0-.3,0-.61-.06-.9-.06-1-.06-2-.07-3a20.41,20.41,0,0,0-1-7.7C21.75,2.58,18.73,2.16,15.69,2.16Z"/><path d="M16.24,6.33c.57,3.3,6,2.43,5.19-.9-.7-3-5.38-2.16-5.19.9" style="fill:#fff;fill-rule:evenodd"/><path d="M18.81,8.49a3,3,0,0,1-1-.16,2.44,2.44,0,0,1-1.65-2h0a2.67,2.67,0,0,1,2.42-2.81,2.48,2.48,0,0,1,2.93,1.89,2.31,2.31,0,0,1-.67,2.34A3.07,3.07,0,0,1,18.81,8.49ZM16.32,6.32a2.3,2.3,0,0,0,1.55,1.86,3,3,0,0,0,2.86-.54,2.17,2.17,0,0,0,.63-2.2A2.34,2.34,0,0,0,18.6,3.67,2.52,2.52,0,0,0,16.32,6.32Z"/><path d="M9.79,6.86C10.52,9.74,15.13,9,15,6.12c-.21-3.46-5.87-2.79-5.17.75" style="fill:#fff;fill-rule:evenodd"/><path d="M12.25,8.76a2.83,2.83,0,0,1-1.34-.33A2.38,2.38,0,0,1,9.72,6.88h0a2.41,2.41,0,0,1,.83-2.47A3.11,3.11,0,0,1,13.63,4,2.34,2.34,0,0,1,15,6.11a2.53,2.53,0,0,1-2.29,2.61A3.2,3.2,0,0,1,12.25,8.76ZM9.86,6.85a2.4,2.4,0,0,0,2.86,1.73,2.39,2.39,0,0,0,2.17-2.45,2.19,2.19,0,0,0-1.31-2,3,3,0,0,0-2.93.37A2.27,2.27,0,0,0,9.86,6.85Z"/><path d="M16.89,10.29a7.45,7.45,0,0,1,0,1.37c-.11.21-.32.23-.51.31a.75.75,0,0,1-.57-.45,9.72,9.72,0,0,1,0-1.55Z" style="fill:#fff;fill-rule:evenodd"/><path d="M16.41,12.06h0a.83.83,0,0,1-.64-.5h0a5.2,5.2,0,0,1,0-1.06c0-.16,0-.33,0-.5v-.1l1.18.36v.06c0,.14,0,.29,0,.44a3.75,3.75,0,0,1,0,.94h0a.66.66,0,0,1-.41.3l-.13.05Zm-.51-.55a.67.67,0,0,0,.49.39l.12,0a.52.52,0,0,0,.32-.21,3.68,3.68,0,0,0,0-.89c0-.14,0-.27,0-.4l-.88-.27c0,.14,0,.27,0,.4A5,5,0,0,0,15.9,11.51Z"/><ellipse cx="11.06" cy="6.39" rx="0.78" ry="0.84"/><ellipse cx="11.41" cy="6.58" rx="0.18" ry="0.21" style="fill:#fff"/><ellipse cx="17.57" cy="6.18" rx="0.76" ry="0.84"/><ellipse cx="17.92" cy="6.37" rx="0.18" ry="0.21" style="fill:#fff"/><path d="M14.67,10.25c-.34.82.19,2.47,1.11,1.25a9.72,9.72,0,0,1,0-1.55Z" style="fill:#fff;fill-rule:evenodd"/><path d="M15.17,12a.45.45,0,0,1-.23-.06,1.6,1.6,0,0,1-.34-1.73l0,0,1.29-.33V10c0,.17,0,.34,0,.5a5,5,0,0,0,0,1v0l0,0C15.57,11.9,15.34,12,15.17,12Zm-.44-1.7a1.46,1.46,0,0,0,.29,1.5c.24.14.5-.1.68-.34a5.35,5.35,0,0,1,0-1c0-.13,0-.26,0-.39Z"/><path d="M14.79,8.66a1,1,0,0,0-.82,1.4c.44.79,1.41-.07,2,0s1.27.74,1.83.13-.27-1.33-1-1.62Z" style="fill:#f6d2a2;fill-rule:evenodd"/><path d="M17.31,10.53a1.73,1.73,0,0,1-.64-.18,1.93,1.93,0,0,0-.69-.19h0a1.75,1.75,0,0,0-.71.15c-.49.17-1,.36-1.36-.2a1,1,0,0,1,0-.92,1.12,1.12,0,0,1,.87-.6h0l2.07-.08h0c.52.22,1.11.62,1.21,1.08a.84.84,0,0,1-.77.93ZM16,10a2.06,2.06,0,0,1,.74.21c.39.16.7.29,1,0a.58.58,0,0,0,.18-.53c-.09-.4-.64-.77-1.1-1l-2,.08a1,1,0,0,0-.74.52A.79.79,0,0,0,14,10c.25.45.7.29,1.17.13A1.86,1.86,0,0,1,16,10Z" style="fill:#231f20"/><path d="M14.71,8.63c0-1.1,2-1.23,2.29-.32s-2.19,1.13-2.29.32Z" style="fill-rule:evenodd"/></g></svg>