<svg viewBox="0 0 32 32" xmlns="http://www.w3.org/2000/svg"><path d="m4.615 9.863c.024-.107.3-.108.321 0-.107.002-.214.001-.321 0z" fill="#bebdbc"/><path d="m4.32 9.924c.036-.093.093-.106.17-.039a.216.216 0 0 1 -.17.039z" fill="#b5b2b0"/><path d="m4.49 9.886.126-.022h.321l.12.014.116.043a.475.475 0 0 1 .3.137.444.444 0 0 0 .211.108 1.6 1.6 0 0 1 .387.178l.018.011c.091.055.182.112.272.17l.022.014.145.1.027.018.148.1.028.017.147.093.022.014.268.165.018.01c.091.054.183.106.275.158l.02.011c.136.074.268.153.4.233l.027.016.035.019.029.016a2.152 2.152 0 0 1 .487.3.509.509 0 0 0 .284.147.443.443 0 0 1 .249.127.332.332 0 0 0 .184.108l.041.014.028.01a6.836 6.836 0 0 1 .654.341l.028.016.035.019.029.015c.222.115.444.228.659.355l.028.016.034.019.029.015c.213.115.43.222.643.34l.02.011q.26.145.519.292l.033.018.044.018.042.021.048.024.034.017a4.522 4.522 0 0 1 .409.23l.023.015.146.092.022.014c.091.055.182.108.269.169l.019.014.114.1a.293.293 0 0 0 .179.1l.077.044.1.065a1.418 1.418 0 0 1 .4.194l.029.019.042.027.036.023.046.031a.624.624 0 0 0 .261.111l.052.016.125.035.054.017a.442.442 0 0 0 .231.041h.059a.818.818 0 0 0 .282-.031l.185-.025a.212.212 0 0 0 .168-.039l.114-.014a.207.207 0 0 0 .167-.038l.177-.024.117-.043.18-.012a.2.2 0 0 0 .167-.036l.119-.02a.225.225 0 0 0 .171-.041l.052-.014a.228.228 0 0 0 .172-.04l.121-.021a.211.211 0 0 0 .169-.036l.114-.022.117-.044.178-.015.118-.043.115-.011a.21.21 0 0 0 .168-.038l.118-.02a.215.215 0 0 0 .17-.038l.122-.017a.517.517 0 0 0 .217-.035l.193-.023a.929.929 0 0 0 .267-.029l.116-.024a.406.406 0 0 1 -.231.207 7.856 7.856 0 0 1 -1.244.264 15.416 15.416 0 0 1 -3.423.446 5.709 5.709 0 0 0 -1-.118 1.635 1.635 0 0 0 -.7-.555c-.241-.112-.483-.334-.767-.228l.017-.183c-.354-.174-.694-.373-1.038-.562a.463.463 0 0 0 -.335-.027c-.213-.281-.548-.611-.933-.515l-.205-.284a2.34 2.34 0 0 0 .774.1c-.3-.179-.645-.274-.95-.448-.391-.219-.759-.478-1.151-.694a18.815 18.815 0 0 1 -1.932-1.071 1.657 1.657 0 0 0 -.955-.343l.11.2a3.032 3.032 0 0 0 -1.451-.337 2.145 2.145 0 0 1 .584.2c-.41-.01-.8-.163-1.214-.149.2.076.412.141.62.209-.534.012-1.068-.018-1.6.031a1.054 1.054 0 0 1 .589.335c.269.389.77.534 1.024.936a1.984 1.984 0 0 1 -.464-.269l-.018-.013c-.144-.1-.3-.182-.443-.275l-.019-.012c-.133-.086-.264-.176-.389-.274l-.017-.013c-.165-.159-.4-.3-.427-.546h.146a1.39 1.39 0 0 0 .381-.036l.118-.017a.22.22 0 0 0 .167-.046l.181-.023.118-.042.115-.012a.206.206 0 0 0 .167-.039l.114-.025.12-.039.118-.013a.212.212 0 0 0 .165-.036l.119-.019a.213.213 0 0 0 .17-.038l.118-.02a.216.216 0 0 0 .17-.039m5.447 3.089a2.841 2.841 0 0 0 .743.445c.907.49 1.792 1.019 2.7 1.512a2.043 2.043 0 0 0 .887.241c-.072-.184-.287-.2-.445-.275a22.142 22.142 0 0 1 -2.5-1.357c-.443-.234-.855-.616-1.386-.564z" fill="#26211d"/><path d="m22.852 9.933a3.238 3.238 0 0 1 .534 0l-.067.106-.024.124-.02.047a.209.209 0 0 0 -.04.169c-.005.03-.015.091-.02.121a.227.227 0 0 0 -.042.172l-.013.055a.242.242 0 0 0 -.042.176l-.016.055a.24.24 0 0 0 -.043.175l-.014.054a.231.231 0 0 0 -.043.172l-.007.052-.043.117a.472.472 0 0 1 -.084.3l-.035.119-.014.05-.044.118-.014.053-.043.119-.014.054-.042.121-.014.054-.052.115-.021.04a.555.555 0 0 0 -.091.236.47.47 0 0 1 -.076.2l-.048.12-.019.056-.016.04-.02.048-.017.039-.025.059-.184.086c.064-.241.133-.482.215-.717.207-.6.365-1.206.56-1.8a7.287 7.287 0 0 0 .267-.854 1.138 1.138 0 0 0 -.558.793 9.955 9.955 0 0 1 -.475 1.249c.148-.526.331-1.041.521-1.553a1.386 1.386 0 0 1 .578-.641 2.442 2.442 0 0 0 -1.076.207 2.918 2.918 0 0 0 -.625.989c-.42.756-.872 1.494-1.315 2.236a3.287 3.287 0 0 1 -.361-.051c-.271-.185-.593-.268-.868-.445a6.757 6.757 0 0 0 1.255.339 7.409 7.409 0 0 0 -1.308-.5v.168l-.306-.166c-.318.175-.686.212-1.017.356a2 2 0 0 0 .351.228.868.868 0 0 0 .269-.02.983.983 0 0 0 .261.3c.165.081.354.1.516.185a.558.558 0 0 1 .216.352 1.214 1.214 0 0 1 -.326-.16.511.511 0 0 0 -.236-.11l-.043-.012-.031-.01a2.133 2.133 0 0 1 -.227-.1l-.021-.01c-.13-.07-.256-.145-.382-.221l-.019-.011-.272-.163-.019-.011q-.147-.084-.3-.159c0-.042 0-.126-.006-.168l.111-.014a.172.172 0 0 1 .183-.085l.115-.046.05-.012.119-.044.054-.014.12-.043.054-.009a.227.227 0 0 0 .171-.039l.118-.02a.205.205 0 0 0 .166-.037.875.875 0 0 1 .359-.026h.095a1.238 1.238 0 0 1 .3.013l.113.046a1.176 1.176 0 0 1 .666.3l.017.013.112.084.089-.057.053-.11.017-.042a.972.972 0 0 0 .1-.258l.012-.043.009-.029a3.445 3.445 0 0 1 .4-.747l.015-.024.09-.145.014-.024a1.992 1.992 0 0 1 .286-.4.318.318 0 0 0 .108-.175l.063-.149.011-.021.073-.118a4.046 4.046 0 0 0 .356-.663.266.266 0 0 1 .226-.1l.114-.037.093-.022c.167-.015.335-.026.503-.045z" fill="#26211d"/><path d="m5.057 9.877.043-.028.059.022.013.05z" fill="#ababab" opacity=".87"/><path d="m4.032 9.982q.054-.14.17-.038a.213.213 0 0 1 -.17.038z" fill="#b7b5b6"/><g fill="#cbbfb5"><path d="m22.349 9.978a.859.859 0 0 1 .5-.044c-.165.018-.333.029-.5.044z"/><path d="m5.47 10.057c.064-.08.255.006.211.108a.444.444 0 0 1 -.211-.108z"/><path d="m21.559 10.8a1.56 1.56 0 0 1 .356-.663 4.046 4.046 0 0 1 -.356.663z"/><path d="m23.235 10.378a.209.209 0 0 1 .04-.169q.1.117-.04.169z"/><path d="m2.146 10.331c.038-.125.285-.1.381-.036a1.39 1.39 0 0 1 -.381.036z"/><path d="m21.3 11.264c-.074-.062.018-.216.108-.175a.318.318 0 0 1 -.108.175z"/><path d="m8.456 11.8c.087-.061.306.036.284.147a.509.509 0 0 1 -.284-.147z"/><path d="m20.384 12.939c-.076-.074-.013-.261.1-.258a.972.972 0 0 1 -.1.258z"/><path d="m22.484 12.907a.555.555 0 0 1 .091-.236c.076.064.015.262-.091.236z"/><path d="m9.936 12.975c.53-.051.943.331 1.378.566a22.142 22.142 0 0 0 2.5 1.357c.158.07.373.091.445.275a2.043 2.043 0 0 1 -.887-.241c-.9-.493-1.789-1.022-2.7-1.512a2.841 2.841 0 0 1 -.736-.445z"/><path d="m22.67 13.59.165.087c-.01.1-.013.2-.018.3l-.017-.037a2.442 2.442 0 0 0 -.13-.35z"/><path d="m18.616 13.942a.511.511 0 0 1 .236.11c-.073.071-.252-.007-.236-.11z"/><path d="m18.809 14.368c0-.115.214-.112.267-.029a.929.929 0 0 1 -.267.029z"/><path d="m13.124 14.39c.06-.072.217.012.179.1a.293.293 0 0 1 -.179-.1z"/><path d="m23.915 14.5c.071-.08.266 0 .239.108a1.274 1.274 0 0 1 -.239-.108z"/><path d="m13.38 14.536.049-.021.052.033v.052z"/><path d="m24.194 14.63c.061-.084.267-.03.242.081a.889.889 0 0 1 -.242-.081z"/><path d="m24.78 14.853c.062-.079.26-.016.232.091a.538.538 0 0 1 -.232-.091z"/><path d="m14.034 14.9c.083-.054.26 0 .261.111a.624.624 0 0 1 -.261-.111z"/><path d="m8.479 15.236c.07.042.066.08-.013.117-.072-.042-.066-.081.013-.117z"/><path d="m8.81 15.335c.15.089.294.187.438.285a.851.851 0 0 1 -.438-.285z"/><path d="m9.361 15.674a1.135 1.135 0 0 1 .3.162c-.097.054-.327-.036-.3-.162z"/><path d="m23.993 15.909a.573.573 0 0 1 .234.1c-.068.078-.257.005-.234-.1z"/><path d="m19.663 16.185a.609.609 0 0 1 .242-.114.16.16 0 0 1 -.242.114z"/><path d="m9.4 16.508c-.015-.1.027-.138.124-.1a.192.192 0 0 1 -.124.1z"/><path d="m8.594 17.2c-.012-.1.03-.137.126-.1a.184.184 0 0 1 -.126.1z"/><path d="m7.955 17.6.054-.031.048.023-.1.06z"/><path d="m20.511 17.622c.062-.08.26-.015.231.091a.532.532 0 0 1 -.231-.091z"/><path d="m21.9 18.143c.06-.078.255-.014.227.089a.4.4 0 0 1 -.227-.089z"/><path d="m16.155 18.69a.378.378 0 0 1 .227.082c-.058.081-.252.021-.227-.082z"/><path d="m6.3 18.755.05.005-.077.089z"/><path d="m11.46 19.011a.93.93 0 0 1 .3-.1c-.008.119-.217.174-.3.1z"/><path d="m10.779 19.239a.985.985 0 0 1 .284-.1c.007.116-.207.182-.284.1z"/><path d="m8.422 19.753a.881.881 0 0 1 .266-.03c-.002.115-.213.113-.266.03z"/><path d="m7.119 19.792c.355.006.712.01 1.067-.009l-.005.061a5.162 5.162 0 0 1 -1.062-.052z"/><path d="m29.267 20.858c.057-.07.218 0 .183.094a.267.267 0 0 1 -.183-.094z"/></g><path d="m3.744 10.04c.035-.094.092-.107.168-.039a.212.212 0 0 1 -.168.039z" fill="#afabaa"/><path d="m22.156 9.985.06-.018.04.033-.115.035z" fill="#aaa6a4"/><path d="m22.474 18.352.107-.005.015.05z" fill="#aaa6a4"/><path d="m3.523 10.042.1.01-.12.039z" fill="#aca8a5"/><path d="m22.111 10.239a2.442 2.442 0 0 1 1.076-.207 1.386 1.386 0 0 0 -.578.641c-.19.512-.373 1.027-.521 1.553a9.955 9.955 0 0 0 .475-1.249 1.138 1.138 0 0 1 .558-.793 7.287 7.287 0 0 1 -.267.854c-.2.6-.353 1.209-.56 1.8-.082.235-.151.476-.215.717l.184-.086c.061.052.125.1.188.152a2.219 2.219 0 0 0 -.808.241c.341-.006.678-.063 1.018-.088v.349c-.592.218-1.174.467-1.782.642a4 4 0 0 0 -.607.237l.313.006c0 .146-.005.291 0 .437q-.407.116-.806.254a13.611 13.611 0 0 1 -1.728.538 2.144 2.144 0 0 1 -.577.07c-.241-.016-.469-.11-.709-.133a1.421 1.421 0 0 0 -.553.1c-.767.257-1.485.652-2.274.846a1.548 1.548 0 0 1 -.449.05c.046-.136.205-.146.322-.183.84-.184 1.583-.655 2.417-.86a1.2 1.2 0 0 0 .413-.19 5.375 5.375 0 0 0 -1.024.214.741.741 0 0 1 -.383-.028c0 .043.006.087.01.13-.56.157-1.12.319-1.676.49-.27.076-.543.245-.83.146a3.736 3.736 0 0 1 -.61.331 3.548 3.548 0 0 0 .894.272 10.355 10.355 0 0 0 1.243.445l-.094.126c-.181-.066-.362-.131-.542-.2a3.343 3.343 0 0 0 -.576-.169c-.321-.087-.621-.232-.932-.348a1.837 1.837 0 0 0 -1.048.145c0 .036.013.108.017.144.3-.1.6-.208.908-.29-.025.195-.057.389-.091.583a3.648 3.648 0 0 1 -.738.265l-.227.033c.008.036.017.073.025.109-.3.048-.594.1-.888.171q-.594.055-1.189.064c-.016-.1-.032-.192-.048-.287a3.877 3.877 0 0 1 -1.078.017c-.163-.032-.322-.081-.483-.122.3-.227.707-.254 1.014-.472.227-.275.443-.558.69-.816.256-.141.49-.317.743-.463.361-.184.609-.538 1.009-.656a3.922 3.922 0 0 0 -.877-.438c-.136-.078-.272-.156-.412-.225-.253-.108-.545.012-.79-.122a6.124 6.124 0 0 1 -.649-.4 6.487 6.487 0 0 0 -.871-.679c-.58-.4-1.175-.79-1.769-1.174a3.1 3.1 0 0 0 -.84-.483 1.562 1.562 0 0 1 -.467-.282 1.174 1.174 0 0 1 -.284-.238c-.254-.4-.755-.546-1.024-.936a1.054 1.054 0 0 0 -.589-.335c.533-.048 1.068-.018 1.6-.031-.207-.069-.415-.133-.62-.209.412-.014.8.138 1.214.149a2.145 2.145 0 0 0 -.584-.2 3.032 3.032 0 0 1 1.451.337c.108.06.214.122.322.181v.207l.219-.116q.093.156.2.305c.1-.012.218-.064.315 0s.115.156.162.239a1.152 1.152 0 0 1 .2-.017c.232.159.437.353.668.514a1.722 1.722 0 0 1 .217-.015 1.294 1.294 0 0 1 .232.247 1.082 1.082 0 0 1 .868.421.668.668 0 0 0 .327.152c.127.042.25.094.377.137l.205.284c.385-.1.719.234.933.515a.463.463 0 0 1 .335.027c.344.19.685.388 1.038.562l-.017.183c.283-.106.526.115.767.228a1.635 1.635 0 0 1 .7.555 5.709 5.709 0 0 1 1 .118 15.416 15.416 0 0 0 3.423-.446 7.856 7.856 0 0 0 1.244-.264.406.406 0 0 0 .231-.207l-.014-.1a.558.558 0 0 0 -.216-.352c-.163-.087-.351-.1-.516-.185a.983.983 0 0 1 -.261-.3.868.868 0 0 1 -.269.02 2 2 0 0 1 -.351-.228c.331-.144.7-.181 1.017-.356l.306.166v-.168a7.409 7.409 0 0 1 1.308.5 6.757 6.757 0 0 1 -1.255-.339c.275.177.6.261.868.445a3.287 3.287 0 0 0 .361.051c.443-.742.895-1.48 1.315-2.236a2.918 2.918 0 0 1 .625-.989m-17.035.326c-.03.093 0 .126.1.1q.045-.141-.1-.1m-1.606.63c-.069.085.081.176.138.093s-.081-.175-.138-.093m.4.23q-.045.141.1.1c.03-.094 0-.126-.1-.1m.4.288q-.045.141.1.1c.03-.093 0-.126-.1-.1m.75.535c-.025.081 0 .109.084.082.024-.081 0-.108-.084-.082m3.117 0c-.023.081.006.108.086.08.022-.082-.006-.108-.086-.08m-1.895.788c-.022.081.006.108.086.08.023-.082-.006-.108-.086-.08m.393.291q-.045.141.1.1c.03-.093 0-.126-.1-.1m14.826.547c.165-.112.175-.322.215-.5a1.776 1.776 0 0 0 -.215.5m-14.483-.32c.007.047.021.14.029.187a.271.271 0 0 1 .158-.158zm12.577.754a.946.946 0 0 0 .394-.67c-.249.127-.309.429-.394.67m.334-.05c.232-.046.294-.294.345-.49a.753.753 0 0 0 -.345.49m-12.5-.41c-.068.085.082.174.14.092s-.083-.175-.14-.092m13.008.322a2.81 2.81 0 0 0 .807-.117.19.19 0 0 0 .144-.152 3.073 3.073 0 0 0 -.951.269m-9.033-.152q-.046.141.1.1c.031-.094 0-.126-.1-.1m-3.571.119c-.069.086.082.175.139.092s-.083-.175-.139-.092m.4.288c-.068.085.082.175.139.092s-.082-.175-.139-.092m4.088.114c-.031.094 0 .126.1.1.03-.094 0-.126-.1-.1m-3.634.173c-.031.093 0 .126.1.1.03-.094 0-.126-.1-.1m11.306 0c-.031.094 0 .126.1.1.03-.094 0-.126-.1-.1m-.4.115c-.031.093 0 .126.1.1.03-.094 0-.126-.1-.1m-.461.173q-.045.141.1.1c.03-.094 0-.126-.1-.1m-.406.122c-.078.051 0 .188.082.123s0-.188-.082-.123m-5.345.122c-.451.062-.9.152-1.349.213-.119.024-.278.025-.321.166a8.856 8.856 0 0 0 .991-.136 9.491 9.491 0 0 0 .951-.173.383.383 0 0 0 -.272-.07m4.423.16c-.03.094 0 .126.1.1q.044-.141-.1-.1m.6.051c.037.065.052.17.15.163.118.05.147-.089.2-.159h-.352m-7.5.409a1.339 1.339 0 0 0 .663-.287c-.225.061-.56.036-.663.287m2.573.073c.007-.1.014-.206.023-.309a1.169 1.169 0 0 0 -.679.508.6.6 0 0 0 .012.445c.138-.1.274-.2.41-.3.218-.136.462-.224.677-.368l.123.108a.594.594 0 0 0 .131-.4c-.088.036-.175.074-.262.113-.005-.057-.01-.113-.015-.17a1.964 1.964 0 0 1 -.411.374m-1.9-.256a6.517 6.517 0 0 1 -.445 1.007 1.2 1.2 0 0 1 -1.172.489c-.272-.054-.374-.343-.581-.494a.85.85 0 0 0 .1.722c-.333.061-.741 0-.985.28a5.013 5.013 0 0 0 1.44-.165 2.628 2.628 0 0 0 1.224-.569 3.393 3.393 0 0 0 .539-1.131c.063-.087-.037-.166-.124-.142m5.138.012c-.069.084.08.179.137.093s-.08-.178-.137-.093m-.986.23c-.03.093 0 .126.1.1.03-.094 0-.126-.1-.1m-3.4.414-.032-.209a.986.986 0 0 0 -.42.206.888.888 0 0 0 -.194.355l.151.047v.148a2.166 2.166 0 0 1 .641-.3 4.674 4.674 0 0 0 .149-.489c-.1.078-.2.159-.294.241m2.424-.126q-.045.141.1.1.045-.141-.1-.1m-4.674 1.324c0 .041-.007.124-.01.165h.168c0-.043 0-.127 0-.17l-.16.006m-.519.183c-.077.052.006.187.084.124s-.006-.189-.084-.124m-.573.167c0 .039 0 .118.006.158l.1-.048.047-.1z" fill="#cfbdb1"/><path d="m23.3 10.162.024-.124.036.04-.012.063z" fill="#bbbab8"/><path d="m3.226 10.156q.051-.141.167-.039a.206.206 0 0 1 -.167.039z" fill="#a5a5a5"/><path d="m26.4 15.471.107-.007.017.049z" fill="#a5a5a5"/><path d="m3.007 10.159.1.008-.118.042z" fill="#a4a4a4"/><path d="m2.645 10.278c.031-.1.087-.111.167-.046a.22.22 0 0 1 -.167.046z" fill="#bbb"/><path d="m5.117 10.3a1.657 1.657 0 0 1 .955.343 18.815 18.815 0 0 0 1.928 1.073c.392.216.76.475 1.151.694.305.174.647.269.95.448a2.34 2.34 0 0 1 -.774-.1c-.126-.043-.25-.1-.377-.137a.611.611 0 0 0 -.332-.318c-.709-.4-1.412-.82-2.124-1.219a5.794 5.794 0 0 0 -1.271-.579z" fill="#c4b9ae"/><path d="m6.069 10.344.018.011z" fill="#cfcace"/><path d="m5.227 10.507a5.794 5.794 0 0 1 1.271.579c.712.4 1.415.814 2.124 1.219a.611.611 0 0 1 .332.318.668.668 0 0 1 -.327-.152 1.082 1.082 0 0 0 -.868-.421 1.294 1.294 0 0 0 -.232-.247 1.722 1.722 0 0 0 -.217.015c-.231-.161-.436-.355-.668-.514a1.152 1.152 0 0 0 -.2.017c-.047-.084-.072-.192-.162-.239s-.211-.007-.315 0q-.1-.15-.2-.305l-.219.116v-.207c-.105-.057-.211-.119-.319-.179z" fill="#281f16"/><path d="m6.358 10.524.022.014z" fill="#e1e0de"/><path d="m23.172 10.672a.227.227 0 0 1 .042-.172q.099.115-.042.172z" fill="#aeaaa8" opacity=".91"/><path d="m5.077 10.564q.141-.045.1.1c-.098.026-.13-.006-.1-.1z" fill="#5a4c3f"/><path d="m6.525 10.634.027.018z" fill="#d9d5d2"/><path d="m6.7 10.749.028.017z" fill="#dfdeda"/><path d="m23.117 10.9a.242.242 0 0 1 .042-.176q.097.122-.042.176z" fill="#b8b4b3"/><path d="m2.427 10.873.017.013z" fill="#d9d8d6"/><path d="m2.832 11.16.019.012z" fill="#d9d8d6"/><path d="m21.021 17.792.027.013z" fill="#d9d8d6"/><path d="m6.874 10.86.022.014z" fill="#c9c8c4"/><path d="m21.475 10.941.011-.021z" fill="#d2cccc"/><path d="m23.059 11.133a.24.24 0 0 1 .043-.175q.098.119-.043.175z" fill="#b5b3b1"/><path d="m7.165 11.039.018.01z" fill="#dfdfdf"/><path d="m3.469 11.2c.057-.082.207.007.138.093s-.207-.007-.138-.093z" fill="#3d2d23"/><path d="m7.457 11.208.02.011z" fill="#d2d2d2"/><path d="m12.53 13.983.023.015z" fill="#d2d2d2"/><path d="m23 11.359a.231.231 0 0 1 .043-.172c.066.08.057.137-.043.172z" fill="#bdbdbc"/><path d="m3.294 11.446.018.013z" fill="#cdcccc"/><path d="m3.865 11.43c.093-.03.126 0 .1.1q-.145.041-.1-.1z" fill="#412e27"/><path d="m7.878 11.452.027.016z" fill="#d0cbc8"/><path d="m22.951 11.528.043-.117c0 .026.006.078.007.1z" fill="#bebebe"/><path d="m7.939 11.487.029.016z" fill="#dbd7d1"/><path d="m20.9 11.862.015-.024z" fill="#e1e1e1"/><path d="m21 11.693.014-.024z" fill="#e1dddc"/><path d="m4.269 11.719c.094-.03.126 0 .1.1q-.146.041-.1-.1z" fill="#645249"/><path d="m22.833 11.948.035-.119.033.041-.017.061z" fill="#bdbdbd"/><path d="m22.775 12.116.044-.116c0 .026 0 .078.006.1z" fill="#aeafb0"/><path d="m8.988 12.075c.065-.072.212.018.184.108a.332.332 0 0 1 -.184-.108z" fill="#b0afaf" opacity=".96"/><path d="m9.213 12.2.028.01z" fill="#e8e4e1"/><path d="m22.718 12.288.043-.119.007.1z" fill="#9fa0a2"/><path d="m4.528 12.247a3.1 3.1 0 0 1 .84.483c.594.385 1.189.77 1.769 1.174a6.487 6.487 0 0 1 .871.679l.044.121a.815.815 0 0 1 -.457-.287l-.1-.065c-.192-.11-.362-.253-.546-.374a8.546 8.546 0 0 1 -.763-.541l-.072-.052c-.132-.075-.252-.167-.376-.254l-.018-.013a9.527 9.527 0 0 1 -1.192-.871z" fill="#56514d"/><path d="m5.019 12.254c.08-.027.108 0 .084.082-.081.027-.109-.001-.084-.082z" fill="#5d4a3e"/><path d="m8.135 12.255c.08-.029.108 0 .086.08-.08.028-.109.002-.086-.08z" fill="#5b4a40"/><path d="m22.661 12.462.042-.121.007.1z" fill="#b1b1b1"/><path d="m26.747 15.782.115-.02-.02.045z" fill="#b1b1b1"/><path d="m27.675 20.256.046-.027.058.025.009.051z" fill="#b1b1b1"/><path d="m9.895 12.549.028.016z" fill="#d6cfcc"/><path d="m22.6 12.631.052-.115.027.046-.027.058z" fill="#bab9b7"/><path d="m9.958 12.584.029.015z" fill="#d2d1d1"/><path d="m20.492 12.638.009-.029z" fill="#d2d1cf"/><path d="m17.6 13.406.019.011z" fill="#d2d1cf"/><path d="m18.917 12.687q.049-.135.095 0z" fill="#bbb8b7" opacity=".82"/><path d="m18.393 12.751c.034-.095.089-.107.166-.037a.205.205 0 0 1 -.166.037z" fill="#b6b2af"/><path d="m25.142 19.34.043-.031.059.021.012.051z" fill="#b6b2af"/><path d="m19.315 12.7.044-.029.058.023.011.051z" fill="#c2bebd"/><path d="m18.1 12.81c.037-.094.094-.107.171-.039a.227.227 0 0 1 -.171.039z" fill="#c3bebb"/><path d="m17.944 12.813.1.007-.12.043z" fill="#c0bbb8"/><path d="m17.771 12.87.1.006-.119.044z" fill="#c1bdba"/><path d="m10.645 12.954.028.016z" fill="#dad9d7"/><path d="m17.6 12.927.059-.023.044.028-.115.046z" fill="#a3a2a1" opacity=".87"/><path d="m10.707 12.989.029.015z" fill="#d5d5d3"/><path d="m20.315 12.989.051-.009-.053.11-.025-.046z" fill="#bcb8b7"/><path d="m6.24 13.043c.08-.029.109 0 .086.08-.079.028-.108.002-.086-.08z" fill="#5d4b3f"/><path d="m17.3 13.078.079-.051.032.037z" fill="#a9abaa"/><path d="m20.094 13.05.017.013z" fill="#cecfd3"/><path d="m5.719 13.118.018.013z" fill="#e5e4e2"/><path d="m22.36 13.23.048-.12.028.044z" fill="#adacaa"/><path d="m22.325 13.326.016-.04z" fill="#dad6d3"/><path d="m6.634 13.335c.094-.03.126 0 .1.1q-.145.04-.1-.1z" fill="#46372d"/><path d="m11.379 13.344.02.011z" fill="#d3d2d0"/><path d="m11.917 13.647.033.018z" fill="#d3d2d0"/><path d="m6.113 13.385.072.052c-.077.063-.101.041-.072-.052z" fill="#d8d5d1" opacity=".92"/><path d="m21.46 13.881a1.776 1.776 0 0 1 .215-.5c-.04.178-.05.389-.215.5z" fill="#2f1e18"/><path d="m18.688 15.129c.078-.065.162.073.082.123s-.159-.073-.082-.123z" fill="#2f1e18"/><path d="m16.677 15.7c.057-.085.2.009.137.093s-.206-.009-.137-.093z" fill="#2f1e18"/><path d="m11.072 17.495a1.837 1.837 0 0 1 1.048-.145c.31.117.61.262.932.348a3.031 3.031 0 0 1 -.819-.084c-.115.1-.209.221-.327.317.034-.194.066-.388.091-.583-.307.082-.607.186-.908.29-.004-.038-.013-.107-.017-.143z" fill="#2f1e18"/><path d="m8.944 17.892.156.008-.047.1-.1.048c-.004-.037-.007-.116-.009-.156z" fill="#2f1e18"/><path d="m22.288 13.414.017-.039z" fill="#d5d0cc"/><path d="m6.977 13.561.187.029a.271.271 0 0 0 -.158.158c-.006-.048-.023-.14-.029-.187z" fill="#50423a"/><path d="m16.585 16.521.4-.089-.148.175c1.3.407 2.534.98 3.813 1.438q.549.194 1.086.419a9.719 9.719 0 0 0 1.014.286c.2.21.506.213.767.3.425.134.827.328 1.242.488.489.2 1 .325 1.494.524.7.268 1.391.577 2.112.8-.018.058-.035.117-.052.175a.706.706 0 0 0 -.662-.285c-.245-.172-.573-.117-.815-.295-.317-.167-.673-.428-1.046-.3 0-.048 0-.1 0-.145-.2-.032-.41-.061-.615-.089.012-.051.025-.1.037-.151a.977.977 0 0 1 -.7-.234c-.172-.017-.371.018-.509-.109a1.056 1.056 0 0 0 -.471-.232 9.923 9.923 0 0 0 -1.013-.329 3.848 3.848 0 0 1 -.731-.264 1.757 1.757 0 0 1 -.524-.168c-.113-.063-.194-.172-.312-.226a1.8 1.8 0 0 0 -.305.029 1.455 1.455 0 0 0 -.224-.2 1.054 1.054 0 0 0 -.3.019.922.922 0 0 0 -.332-.3l-.216.123c-.006-.053-.012-.106-.018-.159a1.034 1.034 0 0 1 -.641-.249c-.114-.123-.28-.063-.421-.04a3.043 3.043 0 0 1 -.857-.461l-.2.1v-.181a1.93 1.93 0 0 1 -.541-.049 1.678 1.678 0 0 1 -.312-.321z" fill="#50423a"/><path d="m17.892 13.58.019.011z" fill="#d2d4d3"/><path d="m21.643 13.866a2.219 2.219 0 0 1 .808-.241l.219-.036a2.442 2.442 0 0 1 .134.35c.008.036.025.108.033.144l.008.044.088.013a.56.56 0 0 1 .369.127l.115.042.047.007.115.044a.2.2 0 0 1 .185.078l.114.048.037.017a1.274 1.274 0 0 0 .239.108l.04.017a.889.889 0 0 0 .242.081.483.483 0 0 1 .195.073l.112.049.036.02a.538.538 0 0 0 .232.091.392.392 0 0 1 .189.071l.115.041a.175.175 0 0 1 .171.073l.113.043a.723.723 0 0 1 .264.084l.026.014.038.025.119.043a.907.907 0 0 1 .279.091l.028.015.042.027.124.042.057.017.12.044.049.024.116.017v.147l-.115.02-.046.02-.117.046-.052.013-.118.044-.05.015-.121.032a1.693 1.693 0 0 1 -.284.086c.039-.095.075-.19.111-.287-.1-.051-.2-.1-.3-.149a4.239 4.239 0 0 0 .513-.009c-.118-.032-.2-.127-.321-.149a13.045 13.045 0 0 1 -1.849-.681 3.947 3.947 0 0 0 -1.07-.368c.01.053.02.107.03.16a1.639 1.639 0 0 0 -1.264.161 3.448 3.448 0 0 1 -1.013.257c.244.059.484.134.73.186s.5-.016.7.139l-.179.04c-.11.02-.22.034-.33.055-.007-.085-.039-.089-.1-.014l-.115.012a.183.183 0 0 0 -.159.046 2.488 2.488 0 0 1 -.373.162l-.021.009c-.256.1-.5.243-.75.351l-.035.016-.051.027-.045.018-.059.022-.045.016-.058.018a.609.609 0 0 0 -.242.114 1.29 1.29 0 0 1 -.32.172l-.029.009-.047.009-.121.047-.058.016-.12.044-.054.015-.119.043-.118.013a.2.2 0 0 0 -.166.034l-.16.038a2.575 2.575 0 0 1 -.915-.156c-.237-.087-.477-.247-.74-.167-.717.17-1.361.549-2.061.77-.292.089-.6.137-.888.227l-.123.034a2.7 2.7 0 0 1 -.328-.316 2.386 2.386 0 0 0 -.805.2c.175.093.349.19.529.276a3.548 3.548 0 0 1 -.894-.272 3.736 3.736 0 0 0 .61-.331c.287.1.56-.07.83-.146.556-.171 1.116-.332 1.676-.49 0-.044-.006-.087-.01-.13a.741.741 0 0 0 .383.028 5.375 5.375 0 0 1 1.024-.214 1.2 1.2 0 0 1 -.413.19c-.834.2-1.577.675-2.417.86-.117.037-.277.047-.322.183a1.548 1.548 0 0 0 .449-.05c.789-.194 1.507-.588 2.274-.846a1.421 1.421 0 0 1 .553-.1c.24.022.468.117.709.133a2.144 2.144 0 0 0 .577-.07c-.057.085-.115.17-.173.254a1.555 1.555 0 0 0 .656-.024 6.341 6.341 0 0 0 1.564-.682l-.32-.087q.4-.138.806-.254c0-.146 0-.291 0-.437l-.313-.006a4 4 0 0 1 .607-.237c.607-.175 1.189-.424 1.782-.642 0-.116 0-.232 0-.349-.337.023-.674.084-1.015.089z" fill="#26201d"/><path d="m12 13.69.042.021z" fill="#d7d4d2"/><path d="m19.553 14.315c.085-.242.145-.543.394-.67a.946.946 0 0 1 -.394.67z" fill="#23160e"/><path d="m20.4 14.177a3.073 3.073 0 0 1 .951-.269.19.19 0 0 1 -.144.152 2.81 2.81 0 0 1 -.807.117z" fill="#23160e"/><path d="m13.344 15.251a.383.383 0 0 1 .272.07 9.491 9.491 0 0 1 -.951.173 8.856 8.856 0 0 1 -.991.136c.043-.141.2-.142.321-.166.451-.064.898-.151 1.349-.213z" fill="#23160e"/><path d="m12.087 13.736.034.017z" fill="#dfdbd8"/><path d="m18.293 13.812.021.01z" fill="#e3dfde"/><path d="m19.887 14.265a.753.753 0 0 1 .345-.49c-.051.196-.113.444-.345.49z" fill="#24110b"/><path d="m10.871 15.871c.1-.252.438-.226.663-.287a1.339 1.339 0 0 1 -.663.287z" fill="#24110b"/><path d="m12.286 16.343c.1-.082.193-.163.294-.241a4.674 4.674 0 0 1 -.149.489 2.166 2.166 0 0 0 -.641.3c0-.05 0-.1 0-.148l-.15-.043a.888.888 0 0 1 .194-.355.986.986 0 0 1 .42-.206l.032.209m-.541.28a.656.656 0 0 0 .423-.352c-.174.065-.379.141-.423.347z" fill="#24110b"/><path d="m9.517 17.725c.077-.065.162.072.084.124s-.161-.072-.084-.124z" fill="#24110b"/><path d="m7.391 13.855c.057-.082.208.006.14.092s-.208-.007-.14-.092z" fill="#311f13"/><path d="m18.541 13.92.031.01z" fill="#dfdcdd"/><path d="m11.365 14.025c.093-.029.126 0 .1.1q-.146.041-.1-.1z" fill="#635146"/><path d="m12.7 14.09.022.014z" fill="#d4d5d7"/><path d="m22.837 14.083.1.008v.048l-.088-.013z" fill="#bfbfbe"/><path d="m7.795 14.144c.056-.083.207.006.139.092s-.208-.006-.139-.092z" fill="#332316"/><path d="m12.991 14.273.019.014z" fill="#ddd9d8"/><path d="m23.3 14.267.043-.03.059.021.013.051z" fill="#9b9795"/><path d="m23.465 14.316.044-.029.059.022.012.051z" fill="#c0bcb9"/><path d="m7.494 14.353.1.065-.048.021-.052-.033z" fill="#cfcbc6"/><path d="m18.4 14.427c0-.1.177-.119.217-.035a.517.517 0 0 1 -.217.035z" fill="#b4b6b5"/><path d="m8.2 14.432c.057-.083.207.007.139.092s-.208-.007-.139-.092z" fill="#46322c"/><path d="m18.107 14.481q.054-.14.17-.038a.215.215 0 0 1 -.17.038z" fill="#b2b2b3"/><path d="m23.039 14.4a3.947 3.947 0 0 1 1.07.368 13.045 13.045 0 0 0 1.849.681c.12.021.2.117.321.149a4.239 4.239 0 0 1 -.513.009c-.328-.111-.641-.257-.966-.374a11.363 11.363 0 0 1 -1.732-.673c-.01-.06-.02-.11-.029-.16z" fill="#ab9e92"/><path d="m11.745 16.623c.044-.207.249-.282.423-.352a.656.656 0 0 1 -.423.352z" fill="#ab9e92"/><path d="m23.764 14.439.044-.028.058.024.012.052z" fill="#a6a6a4"/><path d="m17.82 14.539q.053-.141.168-.038a.21.21 0 0 1 -.168.038z" fill="#b0afad"/><path d="m17.181 19.034.118.045-.1.005z" fill="#b0afad"/><path d="m21.8 14.717a1.639 1.639 0 0 1 1.264-.161 11.363 11.363 0 0 0 1.732.673c.325.117.638.264.966.374.1.047.2.1.3.149-.036.1-.072.192-.111.287-.037.078-.151.067-.218.109.051-.077.107-.15.163-.223h-.247q.027.138.055.277l.01.047-.13-.081v-.075c0-.025 0-.076-.006-.1-.122.06-.246.17-.39.12-.31-.079-.607-.2-.914-.292a8.4 8.4 0 0 1 -1.061-.328c-.042.036-.084.071-.125.108a1.237 1.237 0 0 0 -.867-.3c-.2-.155-.467-.091-.7-.139s-.486-.126-.73-.186a3.448 3.448 0 0 0 1.013-.257m1.9.232q-.045.141.1.1c.03-.094 0-.126-.1-.1m1.1.4q-.045.141.1.1c.026-.096-.004-.128-.104-.097z" fill="#cfbba9"/><path d="m12.287 14.545c.094-.029.126 0 .1.1-.098.026-.131-.006-.1-.1z" fill="#54443a"/><path d="m17.6 14.542.1.007-.118.043z" fill="#a4a3a1"/><path d="m8.009 14.584a6.124 6.124 0 0 0 .649.4c.245.134.537.014.79.122l-.181.148a1.985 1.985 0 0 0 .8.562 1.134 1.134 0 0 0 .344-.013 3.191 3.191 0 0 0 -.556-.471 3.922 3.922 0 0 1 .877.438c-.4.118-.648.472-1.009.656-.253.147-.487.322-.743.463l.036-.046.057-.072.014-.017a.98.98 0 0 1 .313-.25.192.192 0 0 0 .124-.1.77.77 0 0 1 .171-.159l.019-.013c.073-.076.24-.1.239-.222-.079-.049-.162-.091-.241-.14l-.024-.015-.031-.021a1.135 1.135 0 0 0 -.3-.162l-.113-.054c-.145-.1-.288-.2-.438-.285-.064-.04-.127-.082-.189-.126l-.017-.007q-.109-.081-.215-.164l-.017-.013c-.092-.072-.186-.141-.271-.222l-.012-.014-.036-.078z" fill="#26201c"/><path d="m17.307 14.6.1.006-.117.044z" fill="#b1adac"/><path d="m17.01 14.711q.055-.139.169-.036a.211.211 0 0 1 -.169.036z" fill="#b6b6b6"/><path d="m8.653 14.718c.093-.03.126 0 .1.1-.098.026-.131-.006-.1-.1z" fill="#4a392e"/><path d="m16.717 14.772c.037-.093.095-.107.172-.04a.228.228 0 0 1 -.172.04z" fill="#c6c5c3"/><path d="m19.959 14.718c.093-.03.126 0 .1.1-.098.026-.13-.006-.1-.1z" fill="#443427"/><path d="m8.088 14.784.012.016z" fill="#dbd8d3"/><path d="m13.88 14.8.029.019z" fill="#cacac8"/><path d="m16.493 14.827c.035-.093.092-.107.171-.041a.225.225 0 0 1 -.171.041z" fill="#a5a4a2"/><path d="m24.631 14.784.044-.028.058.025.011.052z" fill="#a9a8a5"/><path d="m13.952 14.842.036.023z" fill="#cecdca"/><path d="m16.207 14.884q.053-.14.167-.036a.2.2 0 0 1 -.167.036z" fill="#a2a2a2"/><path d="m26.879 19.978.043-.031.059.021.014.051z" fill="#a2a2a2"/><path d="m19.555 14.834c.093-.03.126 0 .1.1-.098.026-.13-.007-.1-.1z" fill="#46382b"/><path d="m15.924 14.888.1.007-.117.043z" fill="#a7a7a7"/><path d="m29.75 21.014.044-.028.055.025.006.057z" fill="#a7a7a7"/><path d="m15.566 15c.035-.094.091-.107.167-.038a.207.207 0 0 1 -.167.038z" fill="#b4b5ad"/><path d="m23.709 14.95c.093-.031.126 0 .1.1q-.145.041-.1-.1z" fill="#44301f"/><path d="m8.371 15.02.017.013z" fill="#dfdbdc"/><path d="m14.348 15.022.106-.014.019.049z" fill="#c8c5c6"/><path d="m15.283 15.059q.052-.141.168-.039a.212.212 0 0 1 -.168.039z" fill="#b7b7b9"/><path d="m19.094 15.007c.093-.03.126 0 .1.1q-.145.041-.1-.1z" fill="#423226"/><path d="m25.2 15.014.043-.031.057.017.013.051z" fill="#a4a5a2"/><path d="m14.526 15.074c.052-.072.221-.058.231.041a.442.442 0 0 1 -.231-.041z" fill="#b0aeaf"/><path d="m14.816 15.115c.021-.11.219-.107.282-.031a.818.818 0 0 1 -.282.031z" fill="#c2c0c1"/><path d="m9.448 15.111c.14.069.276.147.412.225a3.191 3.191 0 0 1 .556.471 1.134 1.134 0 0 1 -.344.013 1.985 1.985 0 0 1 -.8-.562z" fill="#ac2822"/><path d="m25.488 15.129.043-.03.058.022.012.051z" fill="#a0a19c"/><path d="m8.6 15.2.018.013z" fill="#dbd7d4"/><path d="m25.865 15.256.026.014z" fill="#c7c4bf"/><path d="m22.221 15.3a1.237 1.237 0 0 1 .867.3v.053a5.6 5.6 0 0 0 -1.106-.3l.062-.016z" fill="#756c6c"/><path d="m7.8 18.54c.271-.187.628-.078.935-.071l.1.168c-.02.26-.033.521-.044.782-.015-.082-.029-.164-.044-.246a1.3 1.3 0 0 1 -.442.385 2.5 2.5 0 0 1 -.76.119 2.116 2.116 0 0 1 .255-1.137z" fill="#756c6c"/><path d="m25.929 15.3.106-.007.013.05z" fill="#bcb9b4"/><path d="m21.616 15.381c.057-.076.089-.071.1.014z" fill="#bebab9"/><path d="m24.8 15.354c.093-.031.126 0 .1.1q-.14.04-.1-.1z" fill="#6c5b4a"/><path d="m17.767 15.411q.14-.045.1.1c-.098.025-.13-.011-.1-.1z" fill="#433125"/><path d="m21.342 15.439a.183.183 0 0 1 .159-.046q-.042.145-.159.046z" fill="#7e7c7e" opacity=".81"/><path d="m26.327 15.429.028.015z" fill="#c9c8c6"/><path d="m18.366 15.462h.352c-.055.07-.085.209-.2.159-.1.011-.118-.094-.152-.159z" fill="#726054"/><path d="m23.088 15.6c.041-.037.083-.073.125-.108a8.4 8.4 0 0 0 1.061.328c.307.089.6.213.914.292.144.05.268-.06.39-.12 0 .025 0 .076.006.1-.072.049-.136.13-.231.123h-.377l-.125-.022a.221.221 0 0 0 -.17-.04l-.051-.007-.117-.043a.4.4 0 0 1 -.288-.087.573.573 0 0 0 -.234-.1l-.049-.015-.122-.028a.259.259 0 0 1 -.246-.081l-.115-.043-.05-.01-.118-.044-.05-.018-.115-.035-.042.016z" fill="#25221d"/><path d="m26.578 15.529.106-.006.014.05z" fill="#b2b2b2"/><path d="m6.22 19.244c-.111.008-.108-.256 0-.245a1.923 1.923 0 0 1 0 .245z" fill="#b2b2b2"/><path d="m13.444 15.944a1.964 1.964 0 0 0 .411-.374c0 .057.01.113.015.17.087-.039.174-.077.262-.113a.594.594 0 0 1 -.131.4l-.114-.114c-.215.144-.459.232-.677.368-.136.1-.272.2-.41.3a.6.6 0 0 1 -.012-.445 1.169 1.169 0 0 1 .679-.508c-.009.1-.016.206-.023.309m-.178-.127c-.1-.035-.181.134-.067.166s.182-.128.067-.16z" fill="#4e2e26"/><path d="m20.947 15.609.021-.009z" fill="#d0cbcf"/><path d="m26.747 15.6.095-.028.021.044z" fill="#b4b4b4" opacity=".98"/><path d="m23.128 15.634.115.035-.1.013z" fill="#bbb6b1"/><path d="m11.539 15.688c.087-.024.187.055.124.142a3.393 3.393 0 0 1 -.539 1.131 2.628 2.628 0 0 1 -1.224.569 5.013 5.013 0 0 1 -1.448.162c.244-.283.652-.219.985-.28a.85.85 0 0 1 -.1-.722c.207.152.309.441.581.494a1.2 1.2 0 0 0 1.172-.489 6.517 6.517 0 0 0 .449-1.007z" fill="#28150e"/><path d="m18.049 16.242a13.611 13.611 0 0 0 1.728-.538l.32.087a6.341 6.341 0 0 1 -1.564.682 1.555 1.555 0 0 1 -.656.024c.057-.085.116-.169.172-.255z" fill="#9e211b"/><path d="m23.293 15.688.118.044-.044.028-.059-.022z" fill="#a9a7a2"/><path d="m23.46 15.742.115.043-.043.029-.059-.022z" fill="#9f9d98"/><path d="m13.266 15.816c.115.032.032.2-.067.166s-.032-.201.067-.166z" fill="#96706a"/><path d="m26.581 15.849.119-.049-.013.05z" fill="#b3b3b3"/><path d="m9.694 15.856.024.015z" fill="#cfcfcd"/><path d="m23.821 15.866.122.028-.041.035-.062-.014z" fill="#9b9a9a"/><path d="m26.41 15.906.118-.044-.014.05z" fill="#afb1b0"/><path d="m15.691 15.93c.093-.031.126 0 .1.1-.099.026-.13-.007-.1-.1z" fill="#3a291f"/><path d="m20.162 15.975.035-.016z" fill="#cfcfcf"/><path d="m25.654 15.921h.247c-.056.073-.112.147-.163.223l-.028.05q-.029-.134-.056-.273z" fill="#100806"/><path d="m26.239 15.953.121-.032-.018.05-.061.016z" fill="#afafad"/><path d="m20.067 16.015.045-.015z" fill="#d7d8d8"/><path d="m19.963 16.053.045-.016z" fill="#d6dad6"/><path d="m24.514 16.1.117.043-.1.007z" fill="#a6a7a2"/><path d="m24.681 16.146a.221.221 0 0 1 .17.04c-.077.067-.134.054-.17-.04z" fill="#b4b4b2"/><path d="m9.7 16.245.019-.013z" fill="#e2e0e1"/><path d="m14.71 16.218q.141-.045.1.1-.145.04-.1-.1z" fill="#2f261f"/><path d="m24.977 16.208h.377c-.04.114-.337.109-.377 0z" fill="#b6b7b8"/><path d="m16.7 16.3c.262-.08.5.081.74.167a2.575 2.575 0 0 0 .915.156 2.729 2.729 0 0 0 -.326.084c.175.009.33.1.5.121-.113.007-.225.021-.337.036.468.245.977.4 1.455.623.641.3 1.327.477 1.986.726a5.734 5.734 0 0 0 1.186.361l-.068.174a9.719 9.719 0 0 1 -1.014-.286q-.537-.224-1.086-.419c-1.279-.459-2.516-1.031-3.813-1.438l.148-.175-.4.089a1.678 1.678 0 0 0 .3.316 1.93 1.93 0 0 0 .541.049v.181l.2-.1a3.043 3.043 0 0 0 .857.461c.141-.024.307-.084.421.04a1.034 1.034 0 0 0 .641.249c.006.052.012.106.018.159l.216-.123a.922.922 0 0 1 .332.3 1.054 1.054 0 0 1 .3-.019 1.455 1.455 0 0 1 .224.2 1.8 1.8 0 0 1 .305-.029c.118.054.2.163.312.226a1.757 1.757 0 0 0 .524.168 3.848 3.848 0 0 0 .731.264 9.923 9.923 0 0 1 1.013.329 1.056 1.056 0 0 1 .471.232c.138.127.337.092.509.109a.977.977 0 0 0 .7.234c-.013.05-.025.1-.037.151.205.028.41.057.615.089v.145c.374-.132.73.129 1.046.3.242.178.57.122.815.295a.706.706 0 0 1 .662.285c.017-.058.034-.117.052-.175.067.008.134.012.2.014l-.163.051a3.214 3.214 0 0 1 .632.043c.177.067.174.283.221.436l-.164-.026a.551.551 0 0 0 -.472-.344c.036.192.072.384.091.579a.77.77 0 0 1 -.318-.48l-.285.044a3.807 3.807 0 0 1 -.028.622 1.033 1.033 0 0 1 -.2-.456c-.114.021-.228.041-.343.059a4.369 4.369 0 0 1 .035.62c-.191-.093-.216-.311-.265-.493l-.3.055c.017.166.016.333.018.5a1.112 1.112 0 0 1 -.256-.362c-.077.014-.154.029-.231.042-.07-.061-.138-.123-.212-.177a.946.946 0 0 0 -.191.168 17.349 17.349 0 0 1 -2.719-.881c-1.534-.485-3.062-.985-4.6-1.463-.606-.191-1.2-.421-1.806-.615-.306-.1-.628-.14-.936-.233a.6.6 0 0 1 .385-.245 4.5 4.5 0 0 0 -.616-.265c-.7-.255-1.388-.539-2.1-.753.292-.089.6-.137.888-.227.7-.221 1.343-.6 2.061-.77m-.4.419a1.957 1.957 0 0 0 .067.193.856.856 0 0 0 .306.111c-.01-.209-.2-.275-.374-.3m.55 1.866c-.068.085.082.175.139.092s-.082-.176-.139-.092m1.789.577c-.069.085.081.175.138.092s-.082-.175-.138-.092m3.108.98c-.031.093 0 .126.1.1q.044-.141-.1-.1m1.219.4c-.068.085.081.176.138.093s-.06-.174-.117-.091z" fill="#d1beb0"/><path d="m10.84 19.049a1.783 1.783 0 0 0 .7-.7c-.049.153-.1.307-.138.461.44-.11.868-.264 1.31-.365a1.025 1.025 0 0 1 -.29.16c-.522.162-1.05.314-1.582.444z" fill="#d1beb0"/><path d="m19.314 16.366.029-.009z" fill="#d3ccc6"/><path d="m19.146 16.422.121-.047-.076.074z" fill="#c0beb9"/><path d="m18.969 16.481.12-.044-.015.05z" fill="#c1adb8"/><path d="m18.8 16.539.119-.043-.015.05z" fill="#cecac5"/><path d="m18.512 16.586a.2.2 0 0 1 .166-.034c-.036.094-.091.106-.166.034z" fill="#c6beb6"/><path d="m9.078 16.775.014-.017z" fill="#d7d6d4"/><path d="m16.3 16.72c.177.028.363.094.374.3a.856.856 0 0 1 -.306-.111 1.957 1.957 0 0 1 -.068-.189z" fill="#7b695f"/><path d="m8.72 17.1a.791.791 0 0 1 .3-.249l-.036.046c-.247.258-.463.542-.69.816-.307.217-.71.245-1.014.472.161.041.32.091.483.122a3.877 3.877 0 0 0 1.078-.017c.016.1.032.192.048.287q.6-.009 1.189-.064a4.483 4.483 0 0 1 -1.247.128l-.1-.168c-.307-.007-.664-.116-.935.071a2.116 2.116 0 0 0 -.256 1.138 2.5 2.5 0 0 0 .76-.119 1.3 1.3 0 0 0 .442-.385c.014.081.029.163.044.246a3.738 3.738 0 0 0 .59-.044 12.028 12.028 0 0 0 1.462-.325c.531-.13 1.057-.282 1.579-.442a1.025 1.025 0 0 0 .29-.16c.293-.085.58-.192.868-.293l.05-.286c.181.067.362.133.542.2l.094-.126a8.22 8.22 0 0 0 1.67.4c-.016-.046-.032-.092-.046-.138l-.039-.155a4.5 4.5 0 0 1 .616.265.6.6 0 0 0 -.385.245c.308.093.63.133.936.233.606.194 1.2.424 1.806.615 1.536.478 3.064.979 4.6 1.463a17.349 17.349 0 0 0 2.719.881 1.572 1.572 0 0 0 .4.009c.077-.012.153-.027.231-.042a1.112 1.112 0 0 0 .256.362c0-.167 0-.334-.018-.5l.3-.055c.049.182.074.4.265.493a4.369 4.369 0 0 0 -.035-.62c.114-.018.228-.038.343-.059a1.033 1.033 0 0 0 .2.456 3.807 3.807 0 0 0 .028-.622l.285-.044a.77.77 0 0 0 .318.48c-.02-.195-.055-.387-.091-.579a.551.551 0 0 1 .472.344l.164.026c-.047-.153-.044-.369-.221-.436a3.214 3.214 0 0 0 -.632-.043l.163-.051.192-.046c-.295-.152-.626-.2-.93-.327-1.257-.513-2.565-.894-3.808-1.443a2.4 2.4 0 0 0 -1.27-.306l.068-.174a5.734 5.734 0 0 1 -1.186-.361c-.659-.249-1.345-.427-1.986-.726-.478-.225-.986-.378-1.455-.623.112-.016.224-.029.337-.036l.151.031.114.042a.586.586 0 0 1 .407.132l.114.04a.492.492 0 0 1 .306.139l.119.048.056.017.039.013.044.017.032.013a1.963 1.963 0 0 1 .45.234l.114.047.037.019a.532.532 0 0 0 .231.091 1.463 1.463 0 0 1 .279.08l.027.013.038.025.118.047a.58.58 0 0 1 .363.136l.114.04a.363.363 0 0 1 .22.089.4.4 0 0 0 .227.089.954.954 0 0 1 .28.078l.027.014.04.027.122.045.055.014.117.045a.664.664 0 0 1 .272.086l.028.016.042.028.125.043.062.021.125.046.055.017.037.016.049.025.119.049a.682.682 0 0 1 .37.138l.115.042.047.008.114.046a.2.2 0 0 1 .185.077l.115.043.047.007.114.047a.543.543 0 0 1 .353.132l.114.042a.193.193 0 0 1 .18.076l.116.043.05.01.117.045.05.008.113.049a.612.612 0 0 1 .361.134l.115.042.047.006.112.05a.6.6 0 0 1 .36.133l.117.041.049.01.117.045.048.012.115.046a.192.192 0 0 1 .189.075l.115.044h.047l.112.05a.61.61 0 0 1 .359.132l.115.042.047.006.112.051a2.141 2.141 0 0 1 .652.249.2.2 0 0 0 .157.054l.037.018a.267.267 0 0 0 .183.094h.035l.039.1.051.129.151.05c0-.085 0-.171 0-.256l.023.039.1.054.152.031-.036.185a.241.241 0 0 0 -.209.032l-.051.019-.12.046-.055.015-.119.044-.052.008-.116.044a.177.177 0 0 1 -.175.077l-.117.037a1.517 1.517 0 0 1 -.189.106l-.022.01a1.741 1.741 0 0 1 -.366.133l-.114.042a.582.582 0 0 1 -.355.132l-.114.045-.108.012-.117.042a.7.7 0 0 1 -.2.027c-.173 0-.346 0-.519-.006l-.092-.029a.2.2 0 0 0 -.163-.036l-.112-.01-.116-.042a1.1 1.1 0 0 1 -.326-.08l-.037-.008-.119-.051-.036-.018-.045-.026-.122-.041a.209.209 0 0 1 -.19-.079l-.115-.042a.178.178 0 0 1 -.171-.073l-.114-.043a.829.829 0 0 1 -.264-.087l-.028-.015-.042-.027-.123-.042-.059-.016-.121-.044-.055-.014-.119-.044-.053-.013-.118-.044-.051-.011-.116-.044a.469.469 0 0 1 -.3-.083l-.119-.035-.05-.013-.119-.04-.053-.013-.119-.044-.053-.013-.118-.045-.051-.012-.115-.046a.91.91 0 0 1 -.471-.143l-.121-.03-.05-.016-.119-.043-.053-.014-.119-.044-.051-.013-.118-.044-.118-.017-.118-.044-.052-.012-.119-.043-.054-.014-.119-.043-.06-.017-.118-.044-.051-.012-.116-.043a.444.444 0 0 1 -.291-.08l-.117-.036a.441.441 0 0 1 -.235-.082l-.119-.035-.051-.012-.119-.045-.053-.013-.119-.044-.054-.014-.12-.043-.053-.014-.118-.045-.051-.011-.114-.047a1.65 1.65 0 0 1 -.645-.2l-.119-.034-.05-.013-.117-.045-.05-.011-.115-.045a.907.907 0 0 1 -.471-.143l-.12-.031-.05-.014-.118-.044-.052-.013-.118-.045-.051-.01-.115-.047a1.377 1.377 0 0 1 -.632-.2.378.378 0 0 0 -.227-.082c-.085-.011-.186 0-.247-.077l-.114-.042a.185.185 0 0 1 -.178-.073l-.115-.044-.048-.007-.115-.045a.19.19 0 0 1 -.181-.075l-.116-.042-.11-.014-.119-.04-.108-.034a.186.186 0 0 0 -.164-.039 2.006 2.006 0 0 1 -.312 0 .193.193 0 0 0 -.166.04l-.048.02-.119.042-.113.017-.117.039a.408.408 0 0 1 -.291.078l-.115.039-.077.09c.008-.084-.023-.1-.093-.035l-.051.021-.12.032a1.785 1.785 0 0 1 -.583.194l-.115.04a1.152 1.152 0 0 1 -.314.106l-.03.006-.118.02a.93.93 0 0 0 -.3.1l-.044.017-.118.048-.056.019-.126.029-.052.014a.985.985 0 0 0 -.284.1.573.573 0 0 1 -.3.087l-.119.04h-.054a.216.216 0 0 0 -.167.048l-.05.021-.12.041-.117.018-.119.042-.117.012a.206.206 0 0 0 -.168.039l-.118.02a.211.211 0 0 0 -.169.038l-.117.02a.209.209 0 0 0 -.168.037l-.19.019a.881.881 0 0 0 -.266.03 1.713 1.713 0 0 1 -.236.03c-.355.02-.712.016-1.067.009l-.147-.028-.117-.035a.707.707 0 0 1 -.509-.24c-.063-.067-.143-.142-.125-.245a1.923 1.923 0 0 0 0-.245c0-.035 0-.1-.006-.139l.053-.011.077-.089c.066-.192.263-.312.412-.441l.022-.016.144-.1.027-.018.147-.094.023-.015a2.79 2.79 0 0 1 .605-.3l.111-.05.115-.069.1-.06a1.789 1.789 0 0 1 .252-.2l.018-.013a2.312 2.312 0 0 1 .267-.181.184.184 0 0 0 .126-.1m-2.225 1.742a.363.363 0 0 0 -.058.2c.124-.1.253-.2.378-.3a2.441 2.441 0 0 0 -.3.674 1.528 1.528 0 0 0 .8.126c.082-.016.082-.122.121-.182a2.094 2.094 0 0 0 .192-.789c0-.258-.354-.23-.493-.095a1.225 1.225 0 0 0 .111-.236 1.643 1.643 0 0 0 -.751.602z" fill="#26201e"/><path d="m18.679 16.86.043-.031.058.021.013.051z" fill="#c0bdbc"/><path d="m12.492 17.219a2.386 2.386 0 0 1 .805-.2 2.7 2.7 0 0 0 .328.316c.264.255.654.234.981.348a8.331 8.331 0 0 1 1.281.527c.014.046.03.092.046.138a8.22 8.22 0 0 1 -1.67-.4 10.355 10.355 0 0 1 -1.243-.445c-.179-.094-.353-.191-.528-.284z" fill="#ba261b"/><path d="m19.2 17.034.042-.034.059.021.013.051z" fill="#acacaa" opacity=".92"/><path d="m19.619 17.213.044-.028.076.076z" fill="#b1b0b1"/><path d="m19.795 17.279.039.013z" fill="#d5d4d2"/><path d="m13.625 17.332.123-.034c.712.214 1.4.5 2.1.753l.039.155a8.331 8.331 0 0 0 -1.281-.527c-.327-.113-.717-.092-.981-.347z" fill="#451806"/><path d="m19.878 17.309.032.013z" fill="#cecdcb"/><path d="m8.309 17.392.018-.013z" fill="#d4d0cf"/><path d="m10.036 17.542.16-.006v.17h-.173c.006-.04.011-.123.013-.164z" fill="#3f2d25"/><path d="m20.36 17.556.044-.029.058.024.012.052z" fill="#a9a9a9"/><path d="m11.906 17.932c.118-.1.212-.217.327-.317a3.031 3.031 0 0 0 .819.084 3.343 3.343 0 0 1 .576.169l-.05.286c-.288.1-.575.208-.868.293-.442.1-.87.255-1.31.365.043-.155.089-.309.138-.461-.122-.053-.245-.108-.37-.153a3.648 3.648 0 0 0 .738-.266z" fill="#5c1005"/><path d="m7.736 17.723.057-.025.044.028-.111.05z" fill="#979f9f" opacity=".82"/><path d="m21.085 17.831h.106l.012.05z" fill="#b5b4b2"/><path d="m21.566 18.013.043-.031.059.021.013.051z" fill="#aaaaa8"/><path d="m7.1 18.094.023-.015z" fill="#e4e0e1"/><path d="m6.925 18.206.027-.018z" fill="#c4cbc4"/><path d="m10.941 18.229.227-.033c.125.046.247.1.37.153a1.783 1.783 0 0 1 -.7.7 12.028 12.028 0 0 1 -1.462.325 3.738 3.738 0 0 1 -.59.044c.01-.261.024-.521.044-.782a4.483 4.483 0 0 0 1.247-.128c.294-.066.59-.122.888-.171-.007-.037-.016-.071-.024-.108z" fill="#b01912"/><path d="m14.061 18.207a.193.193 0 0 1 .166-.04c-.033.093-.088.107-.166.04z" fill="#abaeae"/><path d="m14.538 18.166a.186.186 0 0 1 .164.039c-.078.068-.132.055-.164-.039z" fill="#c4b8b9"/><path d="m13.894 18.268.119-.042-.016.05-.06.021z" fill="#bfbebc"/><path d="m14.813 18.23.119.04-.1.009z" fill="#c7c3bf"/><path d="m6.759 18.32.022-.016z" fill="#dfe4e0"/><path d="m6.482 18.841a1.643 1.643 0 0 1 .755-.594 1.225 1.225 0 0 1 -.111.236c-.108.087-.217.174-.323.265-.125.1-.254.2-.378.3a.363.363 0 0 1 .057-.207z" fill="#724d43"/><path d="m13.664 18.323.117-.039-.015.05-.059.02z" fill="#a5a9a2"/><path d="m15.042 18.285.116.042-.043.029-.059-.021z" fill="#a89593"/><path d="m22.408 18.311.027.014z" fill="#cdc9c6"/><path d="m7.125 18.483c.139-.136.491-.164.493.095a2.094 2.094 0 0 1 -.192.789c-.038.059-.039.166-.121.182a1.528 1.528 0 0 1 -.8-.126 2.441 2.441 0 0 1 .3-.674c.102-.092.211-.179.32-.266z" fill="#b11812"/><path d="m13.257 18.44.115-.039-.014.05z" fill="#aba2a4"/><path d="m15.339 18.4.115.045-.044.028-.059-.022z" fill="#bbb3b0"/><path d="m22.651 18.411.1-.005.012.05z" fill="#bab6b4"/><path d="m13.087 18.5c.07-.061.1-.049.093.035z" fill="#b4b4b0"/><path d="m15.5 18.454.115.044-.043.029-.059-.022z" fill="#a49799"/><path d="m12.915 18.548.12-.032-.018.05-.062.016z" fill="#bfbdb9"/><path d="m23.039 18.542.028.016z" fill="#ccc"/><path d="m15.795 18.571.114.042-.043.031-.059-.021z" fill="#aaa7ac"/><path d="m16.851 18.585c.057-.084.207.006.139.092s-.207-.007-.139-.092z" fill="#423126"/><path d="m23.109 18.585.108-.006.017.049z" fill="#bababa"/><path d="m23.3 18.649.045-.027.08.072z" fill="#bebcb8" opacity=".92"/><path d="m23.476 18.711.037.016z" fill="#cfcec9"/><path d="m12.218 18.782.115-.04-.013.051-.059.02z" fill="#c4c4c4"/><path d="m22.75 18.75a2.4 2.4 0 0 1 1.27.306c1.243.549 2.551.929 3.808 1.443.3.127.636.175.93.327l-.192.046c-.068 0-.136-.006-.2-.014-.72-.219-1.409-.528-2.112-.8-.49-.2-1.005-.322-1.494-.524-.415-.16-.817-.354-1.242-.488-.261-.082-.566-.086-.768-.296z" fill="#bcb2ac"/><path d="m10.141 19.418a.216.216 0 0 1 .167-.048q-.049.144-.167.048z" fill="#bcb2ac"/><path d="m29.524 21.053.2-.078v.256l-.151-.05z" fill="#bcb2ac"/><path d="m23.562 18.752h.107l.012.05z" fill="#c3c0bb"/><path d="m11.874 18.895.03-.006z" fill="#cdc5c3"/><path d="m24.051 18.939.043-.031.059.021.013.051z" fill="#b3b1af"/><path d="m17.015 18.977.115.047-.045.028-.058-.024z" fill="#a39f9c"/><path d="m24.214 18.988.045-.028.058.023.011.051z" fill="#c4c2be"/><path d="m11.3 19.077.118-.048-.013.051-.06.024z" fill="#9ca5a4"/><path d="m11.115 19.124.126-.029-.021.048z" fill="#a2a2a1"/><path d="m17.351 19.093.118.044-.1.006z" fill="#b0aeae"/><path d="m24.513 19.111.043-.03.059.022.013.051z" fill="#aba7a4"/><path d="m17.519 19.151.12.031-.04.034-.062-.016z" fill="#bfbdbb"/><path d="m18.64 19.162c.057-.083.207.007.138.092s-.207-.007-.138-.092z" fill="#46362c"/><path d="m24.675 19.161.045-.028.058.024.011.051z" fill="#b9b8b6"/><path d="m10.362 19.366.119-.04-.015.05-.06.02z" fill="#a6a3a3"/><path d="m18.11 19.325.115.045-.044.028-.059-.022z" fill="#a49f9e"/><path d="m18.276 19.381.117.045-.044.028-.059-.022z" fill="#b6b5b3"/><path d="m9.971 19.48.12-.041-.016.05z" fill="#c0b7b8"/><path d="m18.443 19.439.119.034-.042.033-.061-.017z" fill="#bdbab9"/><path d="m25.436 19.457.043-.029.059.022.013.051z" fill="#a09c99"/><path d="m9.735 19.539.119-.042-.015.05z" fill="#acb9b8"/><path d="m25.6 19.511.044-.028.059.022.013.051z" fill="#a6a6a6"/><path d="m27.513 20.207.043-.029.059.022.013.051z" fill="#a6a6a6"/><path d="m9.451 19.59a.206.206 0 0 1 .168-.039q-.052.14-.168.039z" fill="#aaa"/><path d="m6.855 19.73.117.035-.042.035-.06-.018z" fill="#aaa"/><path d="m25.769 19.564.046-.027.058.025.01.051z" fill="#babab8"/><path d="m9.163 19.648a.211.211 0 0 1 .169-.038c-.032.09-.092.106-.169.038z" fill="#a0a0a0"/><path d="m8.878 19.7a.209.209 0 0 1 .168-.037c-.036.098-.093.11-.168.037z" fill="#adadad"/><path d="m19.207 19.668.114.047-.044.028-.059-.024z" fill="#9e9c9d"/><path d="m19.372 19.726.118.045-.1.006z" fill="#a7a2a0"/><path d="m20.82 20.19.116.043-.044.029-.059-.022z" fill="#a7a2a0"/><path d="m26.244 19.747.043-.031.059.021.013.051z" fill="#acaba9"/><path d="m19.543 19.785.12.043-.1.007z" fill="#bab5b2"/><path d="m26.406 19.8.046-.027.057.025.01.051z" fill="#b2b1af"/><path d="m19.716 19.843.119.044-.1.006z" fill="#beb9b5"/><path d="m19.889 19.9.119.045-.1.006z" fill="#bab6b3"/><path d="m20.058 19.957.119.035-.041.032-.061-.018z" fill="#b6b6b6" opacity=".92"/><path d="m27.044 20.03.045-.03.059.022.013.051z" fill="#b5b3b4"/><path d="m20.413 20.074.117.036-.042.032-.059-.018z" fill="#cac8c8" opacity=".98"/><path d="m27.209 20.086.044-.028.059.023.012.051z" fill="#989797" opacity=".82"/><path d="m21.748 20.141q.14-.045.1.1c-.099.026-.131-.006-.1-.1z" fill="#53433b"/><path d="m20.987 20.246.118.044-.105.01z" fill="#b3afb0"/><path d="m21.159 20.3.119.043-.1.007z" fill="#b6b5b6"/><path d="m21.332 20.362.119.043-.1.007z" fill="#babab9"/><path d="m21.5 20.417.118.044-.1.007z" fill="#c5c2c0" opacity=".98"/><path d="m28.147 20.438.043-.03.059.021.013.051z" fill="#acacac"/><path d="m21.739 20.478.118.044-.1.006z" fill="#9e9e9e"/><path d="m28.309 20.486.046-.026.057.026.009.051z" fill="#b4b3b3" opacity=".92"/><path d="m21.909 20.535.119.044-.1.006z" fill="#a1a4a5"/><path d="m22.966 20.546c.057-.084.207.007.138.093s-.204-.007-.138-.093z" fill="#4e3831"/><path d="m22.081 20.593.119.043-.1.007z" fill="#b1b1b0"/><path d="m22.249 20.651.121.03-.04.035-.062-.016z" fill="#c5c3bf"/><path d="m29.072 20.786q.12-.1.157.054a.2.2 0 0 1 -.157-.054z" fill="#8f8e8d" opacity=".84"/><path d="m22.841 20.824.115.046-.045.028-.059-.023z" fill="#aba7a7"/><path d="m23.007 20.881.118.045-.1.005z" fill="#b8b6b7"/><path d="m23.178 20.939.119.044-.1.006z" fill="#c4c1c0"/><path d="m23.351 21 .118.044-.1.006z" fill="#c6c1bf" opacity=".98"/><path d="m23.518 21.053.119.035-.041.032-.061-.018z" fill="#d1ccc9"/><path d="m23.937 21.172.116.044-.044.029-.059-.022z" fill="#9d9894"/><path d="m24.1 21.227.118.044-.1.006z" fill="#a59f9b"/><path d="m24.275 21.284.119.044-.1.006z" fill="#aaa39d"/><path d="m29.754 21.321a.241.241 0 0 1 .209-.032c.002.096-.163.103-.209.032z" fill="#a1a1a1" opacity=".96"/><path d="m24.449 21.342.121.044-.106.005z" fill="#b6aca5"/><path d="m29.584 21.385.12-.046-.014.05z" fill="#b8b8b8"/><path d="m24.629 21.4.123.042-.107.007z" fill="#999" opacity=".87"/><path d="m29.409 21.444.119-.044-.015.05z" fill="#bcbcbc"/><path d="m24.794 21.471.028.015z" fill="#cbc6c1"/><path d="m29.241 21.5.116-.044-.013.051-.059.022z" fill="#989695" opacity=".82"/><path d="m25.086 21.573.114.043-.043.03-.058-.022z" fill="#c3beba"/><path d="m26.139 21.754a.946.946 0 0 1 .191-.168c.074.054.142.117.212.177a1.572 1.572 0 0 1 -.403-.009z" fill="#8b7d77"/><path d="m28.949 21.611.117-.037-.015.05-.059.019z" fill="#b5b1ae"/><path d="m25.371 21.688.115.042-.043.03-.059-.021z" fill="#b9b5b0"/><path d="m28.738 21.727.022-.01z" fill="#e4e3e1"/><path d="m25.676 21.809.122.041-.107.008z" fill="#bbbbb9" opacity=".98"/><path d="m25.845 21.876.036.018z" fill="#c9c9c7"/><path d="m28.258 21.9.114-.042-.013.051-.058.021z" fill="#acb3b4"/><path d="m26 21.945.032.012z" fill="#c4c2c3"/><path d="m26.358 22.036.116.042-.043.03-.059-.021z" fill="#bebdbb"/><path d="m27.789 22.079.114-.045-.012.051-.058.023z" fill="#c4c4c5"/><path d="m26.587 22.088a.2.2 0 0 1 .163.036q-.114.107-.163-.036z" fill="#9a9a98"/><path d="m27.565 22.133.117-.042-.013.051-.059.021z" fill="#c3c3c1"/><path d="m26.841 22.154c.173.005.346.005.519.006a.581.581 0 0 1 -.519-.006z" fill="#c4c2c0"/></svg>