<svg xmlns="http://www.w3.org/2000/svg" viewBox="0 0 32 32"><title>file_type_excalidraw</title><path fill="#6965db" d="M29.937 25.078a.192.192 0 0 0-.185-.042c-1.464-2.162-3.325-4.213-5.128-6.193l-.297-.325a.173.173 0 0 0-.042-.105.191.191 0 0 0-.118-.07l-.06-.063-.042-.031c-.052-.112-.185-.196-.332-.122-.551.283-1.047.688-1.536 1.062-.654.5-1.293 1.02-1.894 1.579a5.912 5.912 0 0 0-.688.73c-.098.129-.024.251.095.303-.427.42-.856.856-1.286 1.307a.21.21 0 0 0-.056.154.197.197 0 0 0 .077.143l.755.576s.003.01.01.014c1.08 1.065 2.973 2.543 4.978 4.108.297.234.597.468.897.702.137.164.266.328.392.49a.2.2 0 0 0 .279.038c.045.034.09.073.136.108a.2.2 0 0 0 .28-.035.203.203 0 0 0 .038-.108c.014 0 .025.01.035.01a.201.201 0 0 0 .147-.063l3.556-3.884a.196.196 0 0 0-.014-.28zm-10.21-1.345c.024.032.049.06.073.088.406.342.839.712 1.279 1.09l-1.789-1.366-.181-.126a2.032 2.032 0 0 1-.108-.084l-.133-.112s.024-.024.035-.038l.122-.123c.6-.607 1.631-1.62 2.162-2.116-.562.566-1.7 2.225-1.456 2.787zm6.123 4.824-1.474-1.125a36.49 36.49 0 0 0-1.83-1.757c.796.615 1.477 1.135 1.579 1.226.772.689.737.563 1.268 1.017l.639.464c-.063.056-.126.116-.185.172zm.37.283-.027-.02c.056-.046.115-.088.17-.134l-.139.154zM2.843 6.031l.14.737c.24 1.292.464 2.456.89 3.34l.168.67c.066.255.16.573.248.64.995.88 2.522 2.193 4.153 3.43a.2.2 0 0 0 .245-.004c.003.007.01.01.014.014a.194.194 0 0 0 .132.052.187.187 0 0 0 .147-.066c2.089-2.323 3.643-4.234 4.75-5.834a.442.442 0 0 0 .102-.293c.07-.084.143-.168.21-.237a.195.195 0 0 0-.035-.3.202.202 0 0 0-.06-.127 94.716 94.716 0 0 0-1.208-1.145 103.734 103.734 0 0 1-2.715-2.624L10 4.264a.194.194 0 0 0-.077-.05c-.388-.136-1.184-.272-2.186-.447-1.475-.251-3.493-.6-5.31-1.142h-.014v-.003s-.007 0-.01.007h-.004l.014-.007s-.108.003-.13.014a.201.201 0 0 0-.065.052c-.018.021-.032.042-.165.07-.132.028.028 0 .039 0h-.039v.01c.025.12.018.203.056.34-.007.034.074.356.084.387l.64 2.536zm10.81 2.284-.013.018-.224-.248c.077.073.154.147.238.23zm-2.476 3.28-.035.042-.007-.007c.014-.01.028-.024.045-.034zm-1.415-7.02c.123.122.608.576.72.688-.507-.231-1.768-.818-2.354-1.006.576.1 1.372.23 1.634.317zm-6.7-.968c.294.503.525 2.267.755 3.982-.13-.552-.24-1.09-.346-1.607-.181-.894-.349-1.694-.583-2.403.049.003.108.01.171.017 0 .004 0 .007.007.01zm-.1-.423c-.081-.007-.154-.014-.217-.017-.007-.014-.01-.028-.014-.042l.23.063zm-.776.157v-.007zm27.434-.412c.014-.08-.384-.433-.259-.44.297-.014.3-.471 0-.458-.394.021-.793.112-1.177.186-.691.129-1.38.272-2.068.422a85.393 85.393 0 0 0-4.576 1.087c-.475.129-.999.244-1.435.475-.147.076-.14.234-.06.331a.248.248 0 0 1-.097.032c-.13.024-.259.045-.388.066a.198.198 0 0 0-.136.3c-.81 1.084-1.733 2.25-2.732 3.476a350.61 350.61 0 0 0-3.046 3.543c-3.287 3.863-7.014 8.243-11.143 12.1a.198.198 0 0 0-.01.279.174.174 0 0 0 .066.045 6.684 6.684 0 0 1-.168.154.18.18 0 0 0-.056.112l-.08.087a.198.198 0 0 0 .01.28.2.2 0 0 0 .28-.01l.042-.046a.293.293 0 0 1 .426 0l.681.73-.482-.402a.2.2 0 0 0-.28.024.2.2 0 0 0 .025.28l5.177 4.342a.202.202 0 0 0 .269-.014l.126-.126a.196.196 0 0 0 .22-.042c7.017-7.049 12.669-12.376 19.142-17.137a.194.194 0 0 0 .08-.178.2.2 0 0 0 .168-.136c1.194-3.654 1.425-6.889 1.495-8.478a.05.05 0 0 1 .007-.024c.007-.018.01-.035.014-.05l.017-.065a.954.954 0 0 0-.052-.751zM17.072 8.647c.314-.36.625-.712.933-1.055-2.012 2.648-5.345 6.728-10.063 11.576 3.213-3.555 6.451-7.24 9.13-10.52zM5.702 27.094l-.01-.01.07.014a.164.164 0 0 0-.06 0zm2.41 2.243-.017-.014.01-.01c.007 0 .01.006.014.006 0 .007-.007.01-.01.018zm2.92-2.519.482-.503a.05.05 0 0 1 .01.018c-.163.16-.328.325-.495.485zm.783-.772.304-.356c.003-.003.007-.01.014-.014a201.388 201.388 0 0 1 3.555-3.58l.025-.021.95-.727a519.553 519.553 0 0 0-4.848 4.702zm7.562-19.519c-.65.846-1.362 1.942-1.966 2.82-1.908 2.762-8.048 9.528-8.185 9.657-.946.916-3.8 3.654-5.62 5.37a1.257 1.257 0 0 0-.119.122.277.277 0 0 1 .01-.395c8.67-8.174 13.93-14.982 16.069-17.947-.046.115-.084.24-.192.38zm5.767 2.48-.003.007c0-.007-.007-.024.003-.007zm-2.375 1.51c-.79-.458-1.16-1.143-.947-1.834l.067-.23c.028-.067.06-.134.098-.2.206-.342.52-.646.88-.824.017-.007.035-.01.052-.014a.278.278 0 0 1-.014-.15c.018-.109.088-.203.23-.203.235 0 .961.216 1.237.454.084.066.164.14.238.22.105.122.258.321.335.465.046.02.08.216.133.317.049.161.07.325.063.49 0 .006 0 .006.003.01-.01.024 0 .13-.014.14-.035.251-.126.5-.262.716-.014.017-.024.038-.038.056 0 .003-.007.007-.01.014a1.56 1.56 0 0 1-.378.394c-.44.311-.953.406-1.467.276a2.211 2.211 0 0 1-.2-.087zm5.683-.57c-.171.716-.38 1.464-.629 2.229-.01.028-.01.055-.01.08a.187.187 0 0 0-.094.038 105.866 105.866 0 0 0-4.535 3.532 249.502 249.502 0 0 1 3.923-3.476 2.239 2.239 0 0 0 .737-1.306l.196-1.178.01-.035c.088-.248.468-.14.409.116z"/></svg>