<svg xmlns="http://www.w3.org/2000/svg" viewBox="0 0 32 32"><title>file_type_godot</title><path fill="#af47bf" d="M28.166 21.029v1.652a.37.37 0 0 1-.26.357l-2.6.841a.37.37 0 0 1-.335-.054.37.37 0 0 1-.155-.3v-1.8l-2.438.464v1.831a.375.375 0 0 1-.325.371l-3.525.483h-.051a.374.374 0 0 1-.377-.374v-1.943l-1.819.008h-.267l-1.819-.008V24.5a.375.375 0 0 1-.375.376h-.052l-3.525-.483a.375.375 0 0 1-.324-.371v-1.838L7.48 21.72v1.8a.37.37 0 0 1-.154.3.37.37 0 0 1-.336.054l-2.6-.841a.37.37 0 0 1-.259-.357v-1.647l-1.608-.541a4.6 4.6 0 0 0-.124 1.04c0 4.317 6.082 7.65 13.6 7.674h.019c7.517-.024 13.6-3.356 13.6-7.674a4.5 4.5 0 0 0-.1-.95Z"/><path fill="#af47bf" d="M3.711 13.373V20.1l.907.306a.37.37 0 0 1 .256.355v1.65l1.855.6v-1.744a.376.376 0 0 1 .445-.369l3.189.609a.374.374 0 0 1 .305.368v1.818l2.775.379v-1.89a.374.374 0 0 1 .376-.375l2.327.009 2.326-.009a.374.374 0 0 1 .377.375v1.89l2.775-.379v-1.819a.37.37 0 0 1 .3-.368l3.189-.609a.377.377 0 0 1 .446.369v1.741l1.855-.6V20.76a.37.37 0 0 1 .255-.355l.618-.208v-6.824h.017A27 27 0 0 0 30 10.931a19 19 0 0 0-2.509-3.288A25 25 0 0 0 25 9.091a13 13 0 0 0-1.279-1.052 15 15 0 0 0-1.375-.894 28 28 0 0 0 .232-3.071A16 16 0 0 0 18.847 2.8a26 26 0 0 0-1.385 2.7 9.5 9.5 0 0 0-1.453-.116h-.018a9.5 9.5 0 0 0-1.454.116 26 26 0 0 0-1.385-2.7 16 16 0 0 0-3.73 1.275 28 28 0 0 0 .232 3.071 15 15 0 0 0-1.376.894A13 13 0 0 0 7 9.091a25 25 0 0 0-2.49-1.448A19 19 0 0 0 2 10.931a27 27 0 0 0 1.694 2.443Z"/><path fill="#fff" d="M12.462 16.6a2.739 2.739 0 1 1-2.74-2.738 2.74 2.74 0 0 1 2.74 2.738"/><path fill="#414042" d="M11.8 16.764a1.819 1.819 0 1 1-1.819-1.819 1.817 1.817 0 0 1 1.819 1.819"/><path fill="#fff" d="M16.166 19.59a.844.844 0 0 1-.882-.8v-2.523a.886.886 0 0 1 1.764 0v2.522a.845.845 0 0 1-.883.8M19.871 16.6a2.739 2.739 0 1 0 2.74-2.738 2.74 2.74 0 0 0-2.74 2.738"/><path fill="#414042" d="M20.531 16.764a1.818 1.818 0 1 0 1.817-1.819 1.817 1.817 0 0 0-1.817 1.819"/></svg>