<svg xmlns="http://www.w3.org/2000/svg" viewBox="0 0 32 32"><defs><linearGradient id="a" x1="11.08" x2="11.08" y1="31.2" y2="15.71" gradientTransform="matrix(1 0 0 .99 0 -14.32)" gradientUnits="userSpaceOnUse"><stop offset="0" stop-color="#949494"/><stop offset=".33" stop-color="#9b9b9b"/><stop offset=".82" stop-color="#aeafb0"/><stop offset="1" stop-color="#b6b8b9"/></linearGradient></defs><title>Icon-analytics-147</title><path fill="url(#a)" d="M18 9.69V7.9l-.1-.09-1.84-.62L15.59 6l.91-1.88.1-.21-.6-.61-.7-.69-.24.12-1.8.91-1.21-.34-.78-2H9.48l-.09.09-.62 1.83-1.26.47-2.08-1-1.28 1.25.12.24L5.23 6a6 6 0 0 1 3.2-.86A6.3 6.3 0 0 1 12 6.28l.36.26a3 3 0 0 1 .93 1.35A3 3 0 0 1 13.5 9a3.23 3.23 0 0 1-3.25 3.23 3.3 3.3 0 0 1-1.87-.59 6.3 6.3 0 0 1-4 1.75l-.19.39 1.28 1.29.26-.07 1.8-1 1.24.51.79 2.16h1.8l.07-.25.64-1.91 1.22-.51 2.11 1 1.27-1.26-.12-.24-.93-1.79.38-1.25Z" transform="translate(2 2.02)scale(1.55592)"/><path fill="#50e6ff" d="M8.22 18.59a5.6 5.6 0 0 1-3.99-1.63.72.72 0 1 1 1.01-.94 4.1 4.1 0 0 0 2.98 1.14 4 4 0 0 0 2.92-1.14 5.5 5.5 0 0 1 3.97-1.55 5.7 5.7 0 0 1 4 1.55.72.72 0 1 1-1.01 1.02 4.2 4.2 0 0 0-2.94-1.22 4 4 0 0 0-2.93 1.21 5.6 5.6 0 0 1-4.01 1.56"/><path fill="#50e6ff" d="M8.22 15.74a2.8 2.8 0 0 1-1.96-.8.72.72 0 0 1 1-1.02 1.3 1.3 0 0 0 .96.4 1.7 1.7 0 0 0 .93-.4 8.5 8.5 0 0 1 11.93 0 .72.72 0 0 1-1 1.01 7.1 7.1 0 0 0-9.98 0 3 3 0 0 1-1.88.81"/><path fill="#32bedd" d="M8.22 21.44a8.4 8.4 0 0 1-6.02-2.48.73.73 0 0 1 0-1 .73.73 0 0 1 1.02 0 7 7 0 0 0 5 2.06 7 7 0 0 0 4.98-2.07 3 3 0 0 1 1.88-.76 2.9 2.9 0 0 1 1.94.81.7.7 0 0 1 0 1.01.73.73 0 0 1-1.02 0 1.3 1.3 0 0 0-.92-.39 1.6 1.6 0 0 0-.93.4 8.4 8.4 0 0 1-5.93 2.42"/></svg>