<svg version="1.1" viewBox="0 0 32 32" xmlns="http://www.w3.org/2000/svg"><defs><linearGradient id="a" x1="17.5" x2="15.88" y1="1.5" y2="33.787" gradientTransform="matrix(.67161 0 0 .67161 1.7905 6.7836)" gradientUnits="userSpaceOnUse"><stop stop-color="#C6C6C6" offset="0"/><stop stop-color="#4E4E4E" offset="1"/></linearGradient></defs><title>file_type_circom</title><g transform="matrix(.82722 0 0 .8654 .49104 -.91356)" stroke-width=".67161"><path d="m13.283 27.455c0.05045 0.0051 0.09712 0.02317 0.13681 0.05071l0.03432 0.02343c1.5138 1.0231 3.3348 1.6199 5.2939 1.6199 4.4275 0 8.1492-3.0477 9.2156-7.1767 0.12371-0.56838 0.62567-0.99398 1.2262-0.99398l-5e-3 -1.34e-4h1.8032l0.02882 0.0017c0.14856 0.01518 0.26448 0.14171 0.26448 0.29558l0.0023 6.8e-5 -0.0035 0.02533c-1e-3 0.01223-0.0028 0.02418-0.0052 0.03592l0.0086-0.06125c-0.83773 6.2285-6.1308 11.029-12.536 11.029-3.7891 0-7.1891-1.6802-9.5077-4.3423-0.054336-0.054-0.087982-0.12888-0.087982-0.21176 0-0.16407 0.1319-0.29712 0.29457-0.29712l-0.00293 2.03e-4 2.016e-4 -2.03e-4h3.8091zm-7.0877-6.3126 3.1615 6.8e-5c0.18785 1.1311 0.57161 2.1952 1.115 3.1555l-3.4676 1.34e-4c-0.39663-0.99593-0.67236-2.054-0.80885-3.1557zm12.553-14.359c3.7387 0 7.0985 1.6358 9.4146 4.2365l0.01436 0.01589c0.04198 0.05137 0.06723 0.1172 0.06723 0.189 0 0.16409-0.13184 0.29711-0.29457 0.29711l0.0014-2.09e-4 -0.0014 2.09e-4 -3.8712-4.43e-4 -0.0048 4.43e-4c-0.06313 0-0.12163-0.02005-0.16958-0.05416l-0.03383-0.02227c-1.479-0.95369-3.2366-1.5065-5.1222-1.5065-4.3724 0-8.0565 2.9724-9.1746 7.0232l-0.00396 6.7e-5c-0.11149 0.58363-0.62057 1.0245-1.2317 1.0245l0.00396-2.69e-4 -1.8143 2.69e-4c-0.16268 0-0.29456-0.13305-0.29456-0.29712v-2.69e-4h-0.00314c0.89046-6.1685 6.1559-10.906 12.518-10.906zm11.698 7.8937c0.40599 0.99184 0.69169 2.0466 0.83857 3.1457l-3.1668 1.35e-4c-0.20262-1.1296-0.60109-2.1905-1.1586-3.1456z" clip-rule="evenodd" fill="#999" fill-rule="evenodd"/><path d="m12.324 21.142 6.7e-5 -3.36e-4 0.02175-0.0012c0.08925-0.01223 0.15803-0.08939 0.15803-0.18274 0-0.01418-0.0016-0.02801-0.0045-0.0413-0.0947-0.44232-0.14473-0.9015-0.14473-1.3726 0-3.5619 2.8627-6.4494 6.3941-6.4494 1.5685 0 3.0052 0.56968 4.1176 1.5151 0.0487 0.03626 0.1088 0.05755 0.17388 0.05755h12.367-1.34e-4 0.0048c0.15252 0 0.27791 0.11693 0.29302 0.26676l0.0016 0.03036-6.8e-5 5e-3 -3.36e-4 1.5748 4.04e-4 0.01323c0 0.68135-0.53393 1.2369-1.2027 1.2642l-0.05172 1e-3 -12.758-6.7e-5 -0.02995-0.0015c-0.0857-0.0087-0.16051-0.05461-0.20853-0.12129l-4.04e-4 -2.68e-4c-0.58706-0.87464-1.58-1.4495-2.7061-1.4495-1.8035 0-3.2656 1.4747-3.2656 3.2938 0 1.8192 1.462 3.2939 3.2656 3.2939 1.2249 0 2.2923-0.68021 2.8511-1.6866 0.04634-0.10222 0.14863-0.17294 0.26723-0.17294l2.7226 6.6e-5 -1.34e-4 5.37e-4 0.01498-6.03e-4c0.15252 0 0.27798 0.11693 0.29302 0.26676l0.0016 0.03036c0 0.03835-0.0071 0.07495-0.02029 0.1086l0.0056-0.02015-0.02465 0.08375c-0.8052 2.6327-3.2366 4.5458-6.1111 4.5458-1.6272 0-3.1124-0.61305-4.241-1.6227h-9.18e-4c-0.05151-0.04486-0.11847-0.072-0.19174-0.072l-6.7e-5 -0.0011-12.225 1.35e-4 -2.317e-4 -4.03e-4 -0.00419 4.7e-4c-0.15252 0-0.27796-0.11693-0.29304-0.2667l-0.00152-0.03043v-1.5982l0.00105-0.04709c0.027028-0.67454 0.57782-1.2131 1.2533-1.2131z" fill="url(#a)"/></g></svg>
