<svg xmlns="http://www.w3.org/2000/svg" xmlns:xlink="http://www.w3.org/1999/xlink" viewBox="0 0 32 32"><defs><linearGradient id="a" x1="-792.28" y1="633.265" x2="-793.365" y2="632.418" gradientTransform="matrix(12.821, 0, 0, -12.821, 10188.143, 8132.963)" gradientUnits="userSpaceOnUse"><stop offset="0.18" stop-color="#0052cc"/><stop offset="1" stop-color="#2684ff"/></linearGradient></defs><title>file_type_bitbucketpipeline</title><path d="M2.909,3.41A.9.9,0,0,0,2,4.3a.8.8,0,0,0,.012.155L5.82,27.568a1.22,1.22,0,0,0,1.193,1.018H25.282a.9.9,0,0,0,.9-.754L29.987,4.454a.9.9,0,0,0-.737-1.033.911.911,0,0,0-.147-.012ZM18.944,20.119H13.113l-1.579-8.244h8.823Z" style="fill:#2684ff"/><path d="M28.776,11.874H20.357l-1.413,8.244H13.113L6.228,28.3a1.21,1.21,0,0,0,.785.3H25.287a.9.9,0,0,0,.9-.754Z" style="fill:url(#a)"/></svg>