<svg xmlns="http://www.w3.org/2000/svg" viewBox="0 0 32 32"><title>file_type_node@2x</title><g id="node"><path d="M16,30a2.15,2.15,0,0,1-1.08-.29l-3.43-2c-.51-.29-.26-.39-.09-.45a6.83,6.83,0,0,0,1.55-.7.26.26,0,0,1,.25,0l2.63,1.56a.34.34,0,0,0,.32,0l10.26-5.92a.32.32,0,0,0,.16-.28V10.07a.33.33,0,0,0-.16-.28L16.16,3.87a.32.32,0,0,0-.32,0L5.59,9.79a.33.33,0,0,0-.16.28V21.92a.32.32,0,0,0,.16.27L8.4,23.81c1.53.76,2.46-.14,2.46-1V11.09a.3.3,0,0,1,.3-.3h1.3a.3.3,0,0,1,.3.3V22.78c0,2-1.11,3.2-3,3.2a4.39,4.39,0,0,1-2.36-.64L4.66,23.79a2.17,2.17,0,0,1-1.08-1.87V10.07A2.16,2.16,0,0,1,4.66,8.2L14.92,2.28a2.25,2.25,0,0,1,2.16,0L27.34,8.2a2.17,2.17,0,0,1,1.08,1.87V21.92a2.17,2.17,0,0,1-1.08,1.87L17.08,29.71A2.15,2.15,0,0,1,16,30Z" style="fill:#83cd29"/><path d="M14.05,18a.3.3,0,0,1,.3-.3h1.33a.3.3,0,0,1,.29.25c.2,1.35.8,2,3.51,2,2.16,0,3.08-.49,3.08-1.64,0-.66-.26-1.15-3.62-1.48-2.81-.28-4.54-.9-4.54-3.14,0-2.07,1.74-3.31,4.67-3.31,3.29,0,4.91,1.14,5.12,3.59a.3.3,0,0,1-.29.32H22.57a.3.3,0,0,1-.29-.23c-.32-1.42-1.1-1.88-3.2-1.88-2.36,0-2.63.82-2.63,1.44s.32,1,3.51,1.39,4.65,1,4.65,3.22-1.86,3.52-5.12,3.52C15,21.74,14.05,19.68,14.05,18Z" style="fill:#83cd29"/></g></svg>