<svg version="1.1" viewBox="0 0 32 32" xmlns="http://www.w3.org/2000/svg"><title>file_type_tm</title><path d="m7.293 4.415c0.17568 0.12326 0.28055 0.3263 0.28055 0.54316v7.596c0 0.5878-0.69953 0.8825-1.1092 0.4672l-3.2735-3.3184c-0.12217-0.12384-0.19082-0.29195-0.19082-0.46725v-6.5744c0-0.53224 0.5883-0.84568 1.0194-0.54316zm9.1966 17.663c-0.2526 0.2638-0.6687 0.2669-0.9252 0.0069l-6.8283-6.9228c-0.12215-0.1238-0.19079-0.2919-0.19079-0.4672v-8.1553c0-0.53221 0.58825-0.84566 1.0194-0.54319l2.5369 1.7797c0.1086 0.07617 0.2375 0.11697 0.3694 0.11697h7.155c0.132 0 0.2609-0.04081 0.3695-0.11702l2.4695-1.7328c0.4311-0.30255 1.0194 0.01089 1.0194 0.54314v7.9192c0 0.1719-0.066 0.337-0.184 0.4603zm12.326-12.691c0.1181-0.12324 0.1841-0.28839 0.1841-0.46033v-6.1951c0-0.53219-0.5882-0.84564-1.0194-0.54322l-3.2413 2.2734c-0.1757 0.12326-0.2806 0.32632-0.2806 0.54322v7.3057c0 0.5925 0.7091 0.885 1.1159 0.4603zm-25.612 16.473c-0.13039-0.1247-0.20431-0.2986-0.20431-0.4805v-5.5313c0-0.5853 0.69449-0.8811 1.1056-0.4708l3.0061 3.0002c0.12544 0.1252 0.19557 0.2966 0.19441 0.4752l-0.03514 5.3735c-0.00377 0.5766-0.68243 0.8715-1.0957 0.4761zm13.025-2.3073c-0.0249 0.0257-0.0548 0.0453-0.0876 0.0579-0.0329 0.0126-0.0678 0.0206-0.1028 0.0241-0.0065 6e-4 -0.013 1e-3 -0.0196 0.0012-0.0319 0-0.0635-0.0064-0.093-0.0188s-0.0563-0.0306-0.0788-0.0535l-1.5057-1.5262c-0.4097-0.4152-1.1092-0.1206-1.1092 0.4673v4.6916c0 0.1769 0.07 0.3464 0.1941 0.4705l2.1445 2.1435c0.2561 0.2559 0.6679 0.2523 0.9197-8e-3l1.9257-1.9913c0.1194-0.1234 0.1863-0.2895 0.1863-0.4626v-4.6485c0-0.5925-0.7091-0.885-1.1159-0.4603zm9.5575-3.342c-0.4064 0.4196-1.1094 0.13-1.1133-0.4586l-0.0307-4.6988c-0.0011-0.1735 0.065-0.3404 0.184-0.4647l3.056-3.1909c0.4068-0.4247 1.1159-0.1322 1.1159 0.4603v4.7669c0 0.1732-0.067 0.3395-0.1866 0.463zm-18.433-4.9814c0.00115-0.1768-0.06759-0.3467-0.19081-0.4716l-3.054-3.0958c-0.40966-0.4153-1.1092-0.1206-1.1092 0.4673v4.8457c0 0.1771 0.07007 0.3468 0.19447 0.4709l3.023 3.0164c0.40963 0.4087 1.1017 0.1167 1.1055-0.4666zm17.337 7.4222c-0.0012-0.1747 0.066-0.3428 0.1866-0.4673l3.0082-3.1046c0.4079-0.4211 1.1133-0.1277 1.1133 0.463v5.9075c0 0.182-0.074 0.3559-0.2044 0.4806l-2.9718 2.8425c-0.4133 0.3954-1.0919 0.1003-1.0956-0.4762z" clip-rule="evenodd" fill="#c6c6c6" fill-rule="evenodd"/></svg>
