<svg xmlns="http://www.w3.org/2000/svg" viewBox="0 0 32 32"><title>file_type_craco</title><circle cx="16" cy="16" r="14" fill="#272827"/><path fill="#1ab090" d="M16.32 26.9H14v-2.73c0-.17-.04-.25-.2-.32-.62-.23-1.22-.48-1.82-.75-.17-.08-.26-.04-.37.08-.58.7-1.32 1.13-1.74 1.85l-2.8-2.8c.33-.45 1.8-1.6 1.9-1.97.03-.2-.23-.47-.33-.71-.18-.47-.37-.93-.52-1.4-.06-.22-.15-.3-.38-.3-.95.02-1.8.01-2.64.01v-3.85h2.87c.35-.78.69-1.5 1-2.22.03-.07-.04-.23-.1-.3-.7-.62-1.15-1.3-1.84-1.77L9.8 6.97l1.94 1.96 2.33-.95V5.09h3.87v2.65c-.01.22.05.31.27.4.6.21 1.2.45 1.78.73.21.1.33.07.48-.08.57-.6 1.15-1.17 1.7-1.72l2.74 2.75c-.58.58-1.2 1.22-1.75 1.75-.13.13-.13.22-.05.4.27.58.52 1.17.74 1.77.07.2.15.26.35.26.96.02 1.86-.05 2.7.01v3.83c-.89.03-1.86.03-2.64.01-.23 0-.3.09-.38.3-.24.64-.5 1.27-.8 1.89-.08.19-.07.29.08.42.7.57 1.12 1.33 1.84 1.72l-2.8 2.8a62.78 62.78 0 0 1-1.81-1.8c-.13-.14-.23-.14-.4-.07a32 32 0 0 1-1.84.76c-.2.07-.28.14-.28.36v2.67h-1.55m2.7-6.62a5.14 5.14 0 0 0 2.17-5.03 5.23 5.23 0 0 0-10.42.5 5.02 5.02 0 0 0 2.72 4.82 5.07 5.07 0 0 0 5.52-.3m-3.15-4.95.7.64-2.61 2.54-.87-.91 1.61-1.56-1.67-1.64.9-.92 1.94 1.85m3.64.64-2.63 2.55-.87-.87 1.62-1.6-1.68-1.64.93-.93c.94.9 1.76 1.7 2.63 2.49z"/></svg>