<svg xmlns="http://www.w3.org/2000/svg" viewBox="0 0 32 32"><title>file_type_stylus</title><path d="M5.474,13.414a1.918,1.918,0,0,1,.771.13q.293.13.293.326a1.513,1.513,0,0,1-.119.543,4.313,4.313,0,0,1-.228.5.086.086,0,0,1-.109.011.122.122,0,0,1-.065-.119,1.137,1.137,0,0,0,.065-.434.753.753,0,0,0-.163-.5.549.549,0,0,0-.445-.2.807.807,0,0,0-.6.228.866.866,0,0,0-.228.64,1.288,1.288,0,0,0,.185.662q.184.316.413.63a6.237,6.237,0,0,1,.423.673,1.673,1.673,0,0,1,.2.814,1.394,1.394,0,0,1-.63,1.216,2.851,2.851,0,0,1-1.65.434,2.374,2.374,0,0,1-1.162-.239Q2,18.5,2,18.214a.661.661,0,0,1,.065-.239,2.432,2.432,0,0,1,.174-.326q.108-.173.239-.348a1.3,1.3,0,0,1,.282-.282.081.081,0,0,1,.119.022.1.1,0,0,1,.011.13.95.95,0,0,0-.2.271.92.92,0,0,0-.065.38.847.847,0,0,0,.261.64.931.931,0,0,0,.673.25,1.189,1.189,0,0,0,.88-.315,1.049,1.049,0,0,0,.315-.771,1.66,1.66,0,0,0-.185-.771q-.185-.358-.4-.7t-.4-.684a1.547,1.547,0,0,1-.185-.738,1.162,1.162,0,0,1,.478-.944A2.235,2.235,0,0,1,5.474,13.414Z" style="fill:#606060"/><path d="M11.4,13.523c.072.029.1.069.087.119s-.08.09-.2.119q-.326,0-.749.022t-.9.065a19.045,19.045,0,0,0-.717,2.074,6.388,6.388,0,0,0-.282,1.64q0,.738.565.738t1.26-.977a.092.092,0,0,1,.119,0,.146.146,0,0,1,.033.152,3.933,3.933,0,0,1-.934,1.053,1.8,1.8,0,0,1-1.108.445,1.137,1.137,0,0,1-.836-.271,1.012,1.012,0,0,1-.271-.749,7.028,7.028,0,0,1,.3-1.737,19.067,19.067,0,0,1,.782-2.259,9.872,9.872,0,0,0-1.042.174c-.073-.014-.091-.05-.054-.109a.688.688,0,0,1,.2-.185,1.613,1.613,0,0,1,.337-.174,1.024,1.024,0,0,1,.369-.076h.174a.716.716,0,0,0,.174-.022q.282-.63.586-1.216T9.9,11.286a1.2,1.2,0,0,1,.358-.271,2.568,2.568,0,0,1,.445-.185,1.782,1.782,0,0,1,.358-.076c.094-.007.134.018.119.076a14.184,14.184,0,0,0-.728,1.26q-.358.7-.684,1.455.413-.021.836-.022Z" style="fill:#606060"/><path d="M24.579,2.657a.835.835,0,0,1,.532.163.82.82,0,0,1,.282.434,1.461,1.461,0,0,1,.022.619,2.065,2.065,0,0,1-.25.695c-.029.029-.065.029-.109,0a.209.209,0,0,1-.087-.109.428.428,0,0,0-.185-.434,1.166,1.166,0,0,0-.706-.174,3.02,3.02,0,0,0-1.792.662A9.076,9.076,0,0,0,20.54,6.262a16.45,16.45,0,0,0-1.585,2.5,23.63,23.63,0,0,0-1.281,2.91,22.487,22.487,0,0,0-.858,2.975,13.014,13.014,0,0,0-.315,2.693q0,.651.369.651a.775.775,0,0,0,.51-.217,4.28,4.28,0,0,0,.576-.651.086.086,0,0,1,.119.011.14.14,0,0,1,.033.141,4.312,4.312,0,0,1-1.021,1.086,1.85,1.85,0,0,1-1.064.434.646.646,0,0,1-.575-.239,1.056,1.056,0,0,1-.163-.608,9.688,9.688,0,0,1,.434-2.552,27.117,27.117,0,0,1,1.162-3.236,34.4,34.4,0,0,1,1.683-3.4,26.768,26.768,0,0,1,1.987-3.051,12.806,12.806,0,0,1,2.074-2.2A3.182,3.182,0,0,1,24.579,2.657Z" style="fill:#b3d107"/><path d="M5.3,29.343a.834.834,0,0,1-.532-.163.819.819,0,0,1-.282-.434,1.463,1.463,0,0,1-.022-.619,2.071,2.071,0,0,1,.25-.695c.029-.029.065-.029.109,0a.208.208,0,0,1,.087.109.428.428,0,0,0,.185.434,1.166,1.166,0,0,0,.706.174,3.02,3.02,0,0,0,1.792-.662,9.066,9.066,0,0,0,1.748-1.748,16.443,16.443,0,0,0,1.585-2.5A23.622,23.622,0,0,0,12.2,20.33a22.507,22.507,0,0,0,.858-2.975,13.013,13.013,0,0,0,.315-2.693q0-.652-.369-.651a.774.774,0,0,0-.51.217,4.291,4.291,0,0,0-.576.652.086.086,0,0,1-.119-.011.14.14,0,0,1-.033-.141,4.319,4.319,0,0,1,1.021-1.086,1.851,1.851,0,0,1,1.064-.434.646.646,0,0,1,.575.239,1.058,1.058,0,0,1,.163.608,9.69,9.69,0,0,1-.434,2.552A27.117,27.117,0,0,1,13,19.842a34.4,34.4,0,0,1-1.683,3.4,26.785,26.785,0,0,1-1.987,3.051,12.789,12.789,0,0,1-2.074,2.2A3.183,3.183,0,0,1,5.3,29.343Z" style="fill:#b3d107"/><path d="M19.967,18.974q-.912,0-.912-1a4.934,4.934,0,0,1,.076-.8,6.232,6.232,0,0,1,.239-.945q.163-.489.38-.988a6.086,6.086,0,0,1,.521-.955q-.239.152-.456.315a3.632,3.632,0,0,0-.391.337c-.043.029-.083.018-.119-.032a.115.115,0,0,1-.011-.141,5.022,5.022,0,0,1,1.053-.8,8.206,8.206,0,0,1,1.314-.651.222.222,0,0,1,.163.054.112.112,0,0,1,.011.141,8.33,8.33,0,0,0-1.119,1.976,5.57,5.57,0,0,0-.423,2.063q0,.63.391.63a1.154,1.154,0,0,0,.695-.38,7.048,7.048,0,0,0,.869-1q.456-.619.923-1.4t.858-1.586a.735.735,0,0,1,.38-.26,1.658,1.658,0,0,1,.641-.13q.326,0,.2.174-.3.565-.532,1.053a8.05,8.05,0,0,0-.38.966,6.425,6.425,0,0,0-.228.966,6.976,6.976,0,0,0-.076,1.075q0,.7.369.695t.825-.651a.11.11,0,0,1,.13,0,.111.111,0,0,1,.043.13,2.916,2.916,0,0,1-.814.858,1.515,1.515,0,0,1-.814.293q-.912,0-.912-1.064a6.433,6.433,0,0,1,.391-2.194,9.97,9.97,0,0,1-1.737,2.378A2.515,2.515,0,0,1,19.967,18.974Z" style="fill:#606060"/><path d="M28.936,13.414a1.918,1.918,0,0,1,.771.13q.293.13.293.326a1.515,1.515,0,0,1-.119.543,4.31,4.31,0,0,1-.228.5.086.086,0,0,1-.109.011.121.121,0,0,1-.065-.119,1.14,1.14,0,0,0,.065-.434.753.753,0,0,0-.163-.5.549.549,0,0,0-.445-.2.807.807,0,0,0-.6.228.866.866,0,0,0-.228.64,1.288,1.288,0,0,0,.185.662q.184.316.413.63a6.237,6.237,0,0,1,.423.673,1.673,1.673,0,0,1,.2.814,1.394,1.394,0,0,1-.63,1.216,2.85,2.85,0,0,1-1.65.434,2.373,2.373,0,0,1-1.162-.239q-.424-.239-.423-.521a.661.661,0,0,1,.065-.239,2.433,2.433,0,0,1,.174-.326q.108-.173.239-.348a1.3,1.3,0,0,1,.282-.282.081.081,0,0,1,.119.022.1.1,0,0,1,.011.13.95.95,0,0,0-.2.271.92.92,0,0,0-.065.38.847.847,0,0,0,.261.64.931.931,0,0,0,.673.25,1.19,1.19,0,0,0,.88-.315,1.049,1.049,0,0,0,.315-.771,1.662,1.662,0,0,0-.185-.771q-.185-.358-.4-.7t-.4-.684a1.547,1.547,0,0,1-.185-.738,1.162,1.162,0,0,1,.478-.944A2.235,2.235,0,0,1,28.936,13.414Z" style="fill:#606060"/></svg>