<svg version="1.1" viewBox="0 0 32 32" xmlns="http://www.w3.org/2000/svg"><title>file_type_prisma</title><path d="M25.21,24.21,12.739,27.928a.525.525,0,0,1-.667-.606L16.528,5.811a.43.43,0,0,1,.809-.094l8.249,17.661A.6.6,0,0,1,25.21,24.21Zm2.139-.878L17.8,2.883h0A1.531,1.531,0,0,0,16.491,2a1.513,1.513,0,0,0-1.4.729L4.736,19.648a1.592,1.592,0,0,0,.018,1.7l5.064,7.909a1.628,1.628,0,0,0,1.83.678l14.7-4.383a1.6,1.6,0,0,0,1-2.218Z" fill="#d2d2d2" fill-rule="evenodd"/><path d="m27.036 27.786 0.363-0.361c1.68 0.055 1.706 0 1.78-0.177l0.462-1.124 0.034-0.107-0.038-0.093c-0.02-0.049-0.081-0.2-1.13-1.2v-0.526c1.211-1.166 1.185-1.226 1.116-1.4l-0.46-1.136c-0.069-0.17-0.1-0.237-1.763-0.191l-0.364-0.367a8.138 8.138 0 0 0-0.057-1.657l-0.047-0.106-1.2-0.525c-0.177-0.081-0.239-0.11-1.372 1.124l-0.509-8e-3c-1.167-1.245-1.222-1.223-1.4-1.152l-1.115 0.452c-0.175 0.071-0.236 0.1-0.169 1.79l-0.36 0.359c-1.68-0.055-1.7 0-1.778 0.177l-0.462 1.121-0.036 0.108 0.038 0.094c0.02 0.048 0.078 0.194 1.13 1.2v0.525c-1.211 1.166-1.184 1.226-1.115 1.4l0.459 1.137c0.07 0.174 0.1 0.236 1.763 0.192l0.363 0.377a8.169 8.169 0 0 0 0.055 1.654l0.047 0.107 1.208 0.528c0.176 0.073 0.236 0.1 1.366-1.13l0.509 6e-3c1.168 1.247 1.228 1.223 1.4 1.154l1.113-0.45c0.176-0.075 0.237-0.102 0.169-1.795zm-4.788-2.632a2 2 0 1 1 2.618 1.14 2.023 2.023 0 0 1-2.618-1.14z" fill="#99b8c4"/></svg>
