<svg xmlns="http://www.w3.org/2000/svg" fill="none" viewBox="0 0 32 32"><path fill="#0a0e1a" d="M16 30c7.732 0 14-6.268 14-14S23.732 2 16 2 2 8.268 2 16s6.268 14 14 14"/><path fill="#d4af37" fill-rule="evenodd" d="M16.0001 2.6557c7.3694 0 13.3433 5.975 13.3434 13.3443-.0001 7.3694-5.974 13.3433-13.3434 13.3434-7.3695 0-13.3442-5.974-13.3443-13.3434S8.6306 2.6557 16 2.6557M23.2918 16l-7.2917 10.2085L8.7084 16l-.874-9.6148C5.1125 8.6989 3.3856 12.1477 3.3855 16c.0002 6.9667 5.6477 12.6144 12.6145 12.6144C22.9668 28.6143 28.6144 22.9667 28.6145 16c0-3.8525-1.7275-7.301-4.4496-9.6148zm-7.2917-4.2173a2.479 2.479 0 0 0-2.4148 3.0397 2.48 2.48 0 0 0 .7378 1.2648l-.656 5.7465h4.6659l-.656-5.7465a2.4784 2.4784 0 0 0-.2777-3.8719 2.48 2.48 0 0 0-1.3992-.4326m0-8.3971c-3.1116 0-5.9599 1.1268-8.1595 2.9942l5.5346 3.4954h5.2498l5.5337-3.4954c-2.1996-1.8672-5.0474-2.9942-8.1586-2.9943" clip-rule="evenodd"/><path fill="#0a0e1a" d="m10.4585 13.0833 2.3333.875-1.4583 1.1667zM21.5423 13.0833l-2.3333.875 1.4583 1.1667z"/></svg>