<svg xmlns="http://www.w3.org/2000/svg" viewBox="0 0 32 32"><path fill="#0222a9" d="m5.97 25.75 3.72-1.65-3.72-7.22zm20.07 0-5.84-7.61V28.2L16 29.98V12.8l4.2-1.6 5.84 8.33V8.92L30 7.4v16.7zM16 5.04l-3.23 5.76L16 9.57l3.08 1.18.83-.93v-6.3z"/><path fill="#069330" d="M5.97 8.92 2 7.39v16.7l3.97 1.66v-8.87L11.8 28.2l4.2 1.78v-17.2l-4.2-1.6v8.72zm3.96-1.53 1.87 3.79.97-.37L16 5.04l-3.9-1.52zm9.15 3.36 2.99-3.36 3.96 1.53v10.6l-5.83-8.34z"/><path fill="#fe2015" d="M11.8 11.18v8.73l-5.83-11L9.93 7.4zm14.23 14.57-5.83-7.61v4.16l1.19 1.67z"/><path fill="#ffc001" d="m20.2 11.18-4.2 1.6-4.2-1.6 4.2-1.6zm1.87-3.8 3.96-1.52L30 7.4l-3.97 1.53zM2 7.39l3.96-1.52L9.93 7.4 5.96 8.92zm17.9-3.85L16 2.03l-3.91 1.5 3.9 1.52z"/></svg>
