<svg viewBox="0 0 32 32" xmlns="http://www.w3.org/2000/svg" xmlns:xlink="http://www.w3.org/1999/xlink"><linearGradient id="a" gradientTransform="matrix(.048 0 0 -.045 -82.539 -54.65)" gradientUnits="userSpaceOnUse" x1="1925.785" x2="2302.351" y1="-1383.075" y2="-1868.557"><stop offset="0" stop-color="#8381c5"/><stop offset=".566" stop-color="#7e55b3" stop-opacity=".996"/><stop offset="1" stop-color="#a52ecb" stop-opacity=".992"/></linearGradient><linearGradient id="b" gradientTransform="matrix(.054 0 0 -.054 -95.188 -68.487)" gradientUnits="userSpaceOnUse" x1="2214.187" x2="1930.974" y1="-1750.225" y2="-1408.342"><stop offset="0" stop-color="#411f5d"/><stop offset="1" stop-color="#5b2a85"/></linearGradient><path d="m29.363 16a13.364 13.364 0 1 1 -13.363-13.5 13.432 13.432 0 0 1 13.363 13.5z" fill="url(#a)" stroke="url(#b)" stroke-width=".75"/><path d="m11.406 25.483a18.157 18.157 0 0 0 2.587-.048 41.728 41.728 0 0 0 4.5-.639 30.671 30.671 0 0 0 3.132-.839c1.142-.421 1.764-.778 2.043-1.284a.62.62 0 0 0 -.441-.692c-1.347-.565-2.908-.463-6-.528-3.427-.118-4.567-.691-5.174-1.153-.582-.469-.29-1.765 2.206-2.907a54.266 54.266 0 0 1 6.184-1.73c-1.659-.82-4.753-2.262-5.389-2.573-.558-.273-1.451-.684-1.644-1.182-.219-.478.518-.889.93-1.007a20.3 20.3 0 0 1 4.9-.647 4.308 4.308 0 0 0 1-.069 1.767 1.767 0 0 0 1.639-2.285 2.775 2.775 0 0 0 -3.286-1.81c-1.373.248-4.685 1.21-4.685 1.21 4.093-.035 4.779.033 5.085.461.181.253-.082.6-1.174.777-1.189.194-3.659.428-3.659.428-2.37.141-4.04.15-4.54 1.21-.327.693.349 1.3.645 1.688a12.728 12.728 0 0 0 4.225 2.7c.438.208 1.723.6 1.723.6a11.52 11.52 0 0 0 -8.1 2.287c-1.807 1.672-1.008 3.665 2.695 4.891a12.755 12.755 0 0 0 6.534.772c1.922-.1 2.224-.042 2.244.116.027.222-2.134.773-2.724.944-1.5.433-5.436 1.307-5.456 1.312z" fill="#fff"/></svg>