<svg viewBox="0 0 32 32" xmlns="http://www.w3.org/2000/svg"><path d="m30 16a14 14 0 1 1 -14-14 14 14 0 0 1 14 14" fill="#ed163a"/><path d="m23.227 9.243-4.762-.043-2.783-2.784-3.268 2.17.564.564-1.324-.012-4.494 7.562h-1.76l1.1 1.106-1.111 1.875 10.311 10.311h.3a14 14 0 0 0 14-13.98z" fill="#d51c2f"/><path d="m9.1 17.019a6.9 6.9 0 0 1 13.794 0zm15.5.318v-.637h2a10.567 10.567 0 0 0 -2.88-6.954l-1.491 1.491-.45-.451 1.493-1.486a10.567 10.567 0 0 0 -6.954-2.88v1.991h-.636v-2a10.564 10.564 0 0 0 -6.954 2.889l1.491 1.491-.451.45-1.491-1.495a10.566 10.566 0 0 0 -2.877 6.954h1.992v.636h-2v2.335h21.219v-2.334h-2" fill="#f5f5f5"/></svg>