<svg xmlns="http://www.w3.org/2000/svg" version="1.2" viewBox="0 0 32 32"><g clip-path="url(#cp1)"><path fill="#50abf1" d="M14.8 26.5c-1-1.2-1.1-1.3-1-1.5l14-13.7c.1-.1 1.8.7 2.1 1.1.2.2-1 1.4-6.7 7.8l-7 7.6s-.8-.6-1.4-1.3m59-.1v-2.5l-.1-2.3-.7.5q-1 1.1-2.7 1-4-.5-4.2-6.5 0-3.7 1.7-5.4a4 4 0 0 1 4.3-.8q.8.4 1.1.8l.4.4.2-.6v-.6h1.5l1.5-.1v16.2h-1.4zm-1.4-6.5c1.6-.9 1.8-5.2.2-6.5q-1.1-.7-2.2-.1-1.2 1-1.3 3.2c0 2.7 1.6 4.4 3.3 3.4m-60.7 3.3-1-1.3c.1-.2 7.8-6.9 8-6.9.1 0 2 1.5 2 1.7s-7.8 7.5-8 7.5zM95 23a5 5 0 0 1-2.5-1.6 7 7 0 0 1-1.6-4.8q0-4.4 3-6c.8-.5.9-.5 2.1-.5s1.4 0 2 .4c1.9.9 3 3.4 3 6.2l-.1 1-3.4.1c-1.9 0-3.4 0-3.5.2-.1.1.4 1.3.8 1.8q1.6 1.3 3.6-.2l.6-.4.4.6.8 1 .3.4-.5.5a6 6 0 0 1-3.7 1.5zm2.8-7.5q.3 0 0-.8c-.4-1.7-1.9-2.5-3-1.5q-.5.5-.8 1.6v.8c.3.1 3.5 0 3.8-.1m-49 7.4c-1.6-.6-2.4-2.5-2.1-4.6q.3-2 2-2.8c.8-.4 2.7-.5 3.6-.2l.7.2q.3 0 .1-.9t-1-1.3c-.5-.3-1.9-.3-2.9 0q-.8.3-1 .2l-.7-2.2c0-.5 2-1.1 3.8-1.2q2.9 0 4 1.7c.8 1.2.8 1.4.8 6.5v4.6h-2.8l-.1-.6-.2-.5-.4.4c-.8.7-1.1.8-2.3.8zm3.5-2.5q1-.6 1-2c0-.9-.2-1-1.6-1q-1 0-1.3.2-.9.5-.7 1.6 0 1.4 1.6 1.4.6 0 1-.2m29 2.5a4 4 0 0 1-1.7-2c-.3-.7-.3-.8-.3-5.6v-5h3v4.2c0 3.8 0 4.3.3 4.7a1.6 1.6 0 0 0 2.8 0c.3-.5.3-.7.3-4.7v-4.2H89v12.5l-1.6.1H86v-.6l-.2-.7-.6.5q-1 1-2.3 1zm24 0a2 2 0 0 1-1.6-1.3l-.3-.8v-7.7h-.5c-.7 0-.8-.2-.7-1.6 0-1.1 0-1.1.3-1.2.9 0 .8 0 .8-1.6q0-1.4.2-1.6a7 7 0 0 1 2.9 0l.2 1.7v1.4h1.1l1.1.1V13h-1.1l-1.1.1v3.3c0 4-.1 4 2 3.6.1 0 .2 0 .2 1.2v1.2l-.5.3c-.7.3-2.5.5-3 .3M35 22.8V6.4h3.2c3 0 3.3 0 4 .3q3.2 1.2 3.4 5 .1 4-2.9 5.5a6 6 0 0 1-3.2.6q-1.2 0-1.3.2t-.2 2.5V23h-1.5zm6-8.3q1.4-.7 1.4-2.4.1-2.5-2.8-2.7C38 9.4 38 9.2 38 12l.1 2.6c.1.3 2.3.3 3 0m17.6 8.2-.1-6.3v-6.1h3.1v.9q0 1 .4.4a4 4 0 0 1 1.2-1.4l1-.2.6-.1v3.6h-.5q-1.2.3-1.9 1c-.6 1-.7 1.5-.7 4.9l-.1 3.2c-.2.2-.3.3-1.5.3q-1.4 0-1.5-.2M9 20q-.8-1-.7-1.1l3.8-2.8 1.7 1.6c0 .2-3.6 3.2-3.8 3.2q-.3 0-1-1m-2.3-2.5q-1-.9-.6-1l11-7.7c.2 0 1.7 1 1.7 1.1L7.6 18.3zm7.2-1.1q-.8-.7-.8-1l.8-.7 4.7-3.6 4-3c.3 0 1.8 1 1.7 1 0 .3-9.3 8-9.5 8zm-9.2-1.2q-.7-.7-.4-.9l7.5-4.7a4 4 0 0 1 1.4 1.1A79 79 0 0 1 5.3 16zm16 0-1-.8L25 9.6q.1-.3 1.2.3l1 .7a69 69 0 0 1-5.5 5.2zM3 13.1l-.7-.7.3-.2 7-4.1L16 4.3l.6.3.7.5c0 .1-13.8 8.8-14 8.8zm10-3.4q-.6-.4-.6-.6.2-.4 2.8-2L18 5.5l.7.4.7.5c0 .2-5.5 3.9-5.7 3.9zm5.6-.8-.7-.6 2.3-1.6 1.5.9-.2.3c-.3.4-2 1.5-2 1.5z" class="s1"/></g></svg>