<svg xmlns="http://www.w3.org/2000/svg" viewBox="0 0 32 32"><title>file_type_vapi</title><path d="M12.511,17.189c-.164-6.811-.324-12.408-.356-12.44A7.886,7.886,0,0,0,9.891,5.913a7.578,7.578,0,0,0-2.545,3.3,8.39,8.39,0,0,0-.585,3.529,4.647,4.647,0,0,0,.2,1.955,3.4,3.4,0,0,1,.182.558c-.012.009-.337-.018-.722-.061-1.861-.206-2.776-1.046-2.991-2.747a6.288,6.288,0,0,1,1.449-4.7,15.077,15.077,0,0,1,8.383-5.144A12.843,12.843,0,0,1,15.8,2.373l1.741-.05.058,2.5c.032,1.373.1,6.334.16,11.025s-.251,8.259-.219,8.368c1.938-6.341,4.427-11.129,6.787-17.922l1.422-3.968h2.736c-.022.063-2.74,6.477-5.493,13.864l-5.452,13.5h-4.56C12.977,27.861,12.537,18.478,12.511,17.189Z" style="fill:#9e90c1"/><path d="M17.749,30H12.662v-.314c0-1.13-.17-5.171-.306-8.418-.082-1.949-.15-3.587-.16-4.074-.152-6.317-.28-10.771-.332-12.038a11.753,11.753,0,0,0-1.786,1.009A7.264,7.264,0,0,0,7.639,9.328a8.076,8.076,0,0,0-.564,3.417,4.315,4.315,0,0,0,.182,1.844c.219.58.285.756.081.915-.108.086-.123.1-.95,0-2-.221-3.035-1.18-3.268-3.02A6.6,6.6,0,0,1,4.63,7.562,15.433,15.433,0,0,1,13.192,2.3a13.143,13.143,0,0,1,2.594-.242L17.844,2l.065,2.813c.032,1.387.105,6.437.161,11.029.029,2.4-.039,4.537-.106,6.039.9-2.616,1.878-5.014,2.9-7.519,1.039-2.536,2.113-5.159,3.16-8.173l1.5-4.179h3.4l-.15.42c0,.007-.031.077-.085.2C27.6,5.245,25.447,10.492,23.284,16.3Zm-4.461-.628h4.037L22.7,16.07c2.1-5.63,4.19-10.742,5.312-13.432H25.967L24.62,6.4c-1.051,3.027-2.128,5.658-3.171,8.2-1.306,3.189-2.54,6.2-3.611,9.706l-.3.993-.3-1a3.121,3.121,0,0,1,.018-.854c.074-1.344.228-4.14.187-7.6-.055-4.589-.129-9.637-.161-11.022L17.23,2.646,15.8,2.687a12.667,12.667,0,0,0-2.471.226,14.78,14.78,0,0,0-8.2,5.027,6,6,0,0,0-1.388,4.469c.195,1.545,1.006,2.285,2.713,2.474l.249.027-.037-.1a4.909,4.909,0,0,1-.221-2.066A8.707,8.707,0,0,1,7.053,9.1,7.9,7.9,0,0,1,9.7,5.66c.023-.016,2.256-1.555,2.674-1.132.114.114.145.145.446,12.653h0c.01.485.078,2.116.16,4.059C13.11,24.244,13.265,27.924,13.288,29.372Z" style="fill:#c8c8c8"/></svg>