<svg version="1.1" viewBox="0 0 32 32" xml:space="preserve" xmlns="http://www.w3.org/2000/svg"><title>file_type_cursorrules</title><path d="m15.422 2.1532-11.184 6.4716a0.97735 0.98001 0 0 0-0.48867 0.84701v13.053c0 0.35 0.18849 0.67084 0.48867 0.84468l11.18 6.4751a1.1635 1.1667 0 0 0 1.1612 0l11.181-6.4751a0.97735 0.98001 0 0 0 0.48867-0.84468v-13.053a0.97735 0.98001 0 0 0-0.48867-0.84701l-11.182-6.4716a1.1751 1.1783 0 0 0-1.1589 0m-10.29 7.2416h21.583c0.306 0 0.50031 0.33484 0.34556 0.60084l-10.79 18.743c-0.07214 0.12484-0.26644 0.07467-0.26644-0.07v-12.277a0.68647 0.68834 0 0 0-0.34324-0.59501l-10.6-6.1332c-0.12682-0.0735-0.074464-0.26834 0.070974-0.26834" fill="#fff" stroke-width="1.1651"/></svg>
