<svg xmlns="http://www.w3.org/2000/svg" width="6" height="6" viewBox="0 0 6 6"><defs><linearGradient id="a" x1="763.061" x2="328.579" y1="470.916" y2="542.31" gradientUnits="userSpaceOnUse"><stop offset="0" stop-color="#c1531c"/><stop offset="1" stop-color="#ff6518"/></linearGradient></defs><path fill="url(#a)" d="M489.641 266.348c8.742-1.734 19.056-1.001 28.113-1.239 114.878-3.024 220.392 81.822 244.213 193.734 13.876 65.189.458 136.31-37.528 191.11-33.289 48.897-90.211 89.436-148.516 101.813-19.044 4.042-41.353 3.053-60.574.985-1.131-.211-2.94-.297-4.259-.476-3.531 1.998-.962 1.819 2.161 2.15 8.04 1.457 18.139 1.514 24.386 2.805.793.494.753.42 1.753.612-4.001.657-8.028 1.15-12.07 1.479a247.2 247.2 0 0 1-182.224-58.503c-49.131-42.247-82.449-101.253-87.303-166.378-5.149-69.08 14.633-131.658 60.339-184.056 32.352-37.089 76.035-64.624 124.26-76.17 10.78-2.581 23.879-3.378 35.052-4.198 2.175.076 4.296-.001 6.419.103l.831.165c1.38-.122 1.587-.292 2.882-.811 1.146-1.039 4.582-.509 6.719-.571-1.912-.504-3.379-.672-5.362-.752l-.527-.721-.423.351c.173-.463.708-.626 1.058-.921zM329.693 547.625c1.637 1.767 5.413 17.078 6.632 20.561 31.315 90.029 130.91 153.181 225.357 122.906 47.552-15.961 86.013-52.293 108.902-96.173 24.555-47.076 35.249-109.124 18.496-160.389-.981 2.322-2.358 4.378-3.714 6.491-6.078 9.472-12.229 18.724-17.832 28.496-16.675.616-33.909-.059-50.599.139-6.474.076-16.129-.384-22.356.231q-.116 12.181-.092 24.362l51.24-.14c8.762-.016 20.33-.378 28.877.14-5.62 10.438-12.401 23.945-18.173 33.992-19.893.073-42.283-.771-61.869-.049l-.036 24.528c20.219.436 40.643-.074 60.863.2 6.662.09 20.641-.335 26.781.447-3.707 5.754-7.493 11.205-11.162 17.026-3.976 6.307-8.157 14.177-12.466 20.071l-45.879-.018c-16.885-.022-34.954 2.404-47.988-10.544a30.4 30.4 0 0 1-8.195-14.697c-1.509-6.374-.906-27.784-.888-35.198l-.091-50.282c.035-9.065.838-12.531 4.376-20.788l-1.409-.693c-2.178 4.366-3.739 9.063-5.274 13.7-10.406-.036-24.091-.483-34.28.029-.518 7.288-.249 16.716-.233 24.243l.251 42.948c.057 7.515.621 22.176-1.056 28.823a28.1 28.1 0 0 1-8.883 14.407c-8.663 7.51-18.624 8.247-29.496 8.064q-.92-.017-1.843-.017c-21.709-.355-43.704.253-65.409.026-7.836-.082-24.854.543-31.83-1.007a34.2 34.2 0 0 1-16.601-8.929c-12.253-12.157-10.339-26.327-10.333-42.106l.03-32.305c.018-24.123-.707-48.524-.968-72.716 11.495-.558 26.839.201 39.097-.073.345 13.02.048 27.426.057 40.58l.061 80.154 62.181.271c6.45.089 12.87.086 19.319.027 2.324-.021 3.744 1.034 5.044 2.772l1.169.018c1.661-4.532.555-75.056.521-85.104-18.149-.528-38.662-.034-56.997-.016l.133-.416c4.957-13.589 12.842-27.912 26.297-34.604 3.36-1.671 11.414-3.475 14.625-3.465 12.144.035 116.609-1.22 120.311.107l-.513.568c.032.576.043 1.422.166 1.965 10.683-4.184 41.482-2.838 54.216-2.796q22.589.129 45.176-.087c-1.492-3.653-11.581-17.517-14.275-21.144-23.156-31.174-54.591-58.195-90.711-73.364a168.23 168.23 0 0 0-130.282-1.258c-49.354 20.109-90.012 67.654-108.322 117.019-10.291 27.749-16.04 62.31-12.227 91.727a47 47 0 0 0 2.104 1.34m4.713 29.17q-.891 1.001-1.76 2.023c.146.636.281 1.3.426 1.927l.874 3.611 1.919-.993q-.658-3.3-1.459-6.568m206.222-296.659c1.502.395 2.717.76 4.12 1.444 64.431 21.218 117.387 76.56 138.456 140.469 1.237 3.754 1.998 7.755 3.58 11.36l2.018.239c-.309-7.413-10.779-32.151-14.283-39.261-27.084-54.951-70.797-93.676-127.908-114.354-1.324-.25-2.85-.816-4.067-1.41l-.769-.26c-11.701-3.889-20.545-5.682-32.586-7.597-2.685-.302-5.485-.695-8.153-.851l-.586.192c.805 2.44 4.889 1.872 7.427 2.403 11.044 2.418 21.929 3.713 32.751 7.626M330.76 568.946l1.384-2.338a43 43 0 0 1-.671-3.24c-.017-1.296-.139-1.904-.354-3.189-.731.948-1.173 1.524-1.819 2.547.117.357.252.563.43.887a70 70 0 0 0 1.03 5.333m5.807 24.52c1.059 2.286.873 2.316 2.916 3.526-.302-2.744-.424-2.895-1.303-5.57a80 80 0 0 0-1.613 2.044m4.962 7.891c-.941 1.351-1.54 1.819-.947 3.58 22.871 67.984 81.505 125.02 150.649 144.716 3.34.952 9.65 3.068 12.504 2.527.269-.404.635-.904.843-1.323-16.07-3.725-26.383-7.131-41.408-13.913a228.5 228.5 0 0 1-102.31-92.837c-8.396-14.703-13.39-27.02-19.331-42.75" transform="scale(.00586)"/><path fill="#cd571b" d="M4.004 2.539h.02l.012.002.002.005q-.01.02-.022.038-.055.083-.105.167c-.097.004-.198 0-.296 0-.038.001-.095-.001-.131.002v.143h.3c.05 0 .119-.003.169 0-.033.061-.073.14-.107.2-.116 0-.247-.005-.362-.001v.144q.178.001.356 0c.04.001.121-.001.157.003l-.065.1c-.024.037-.048.083-.073.118h-.27c-.098 0-.204.014-.28-.062a.2.2 0 0 1-.048-.086c-.01-.038-.006-.163-.006-.206V2.81a.25.25 0 0 1 .026-.122l.007-.014a.3.3 0 0 1 .125-.115l.009-.004c.063-.025.243-.017.318-.017z"/><path fill="#fefdfd" fill-opacity=".153" d="M2.936 1.582q.023.001.048.005l-.008.01c-.015-.003-.039 0-.044-.014z"/><path fill="#fefdfd" fill-opacity=".455" d="m1.95 3.392.01-.012.008.038-.011.006-.005-.021z"/><path fill="#fefdfd" fill-opacity=".322" d="m3.179 1.633.024.008-.011.009-.024-.009z"/><path fill="#fefdfd" fill-opacity=".392" d="M1.932 3.302c.005-.002.005-.002.01-.001l.004.019-.008.014z"/><path fill="#fefdfd" fill-opacity=".271" d="M1.982 3.465c.005.016.005.017.007.033-.012-.007-.01-.007-.017-.02z"/><path fill="#fefdfd" fill-opacity=".573" d="m1.94 3.282.002.019c-.005 0-.005-.001-.01.001l-.003-.005z"/><defs><linearGradient id="b" x1="322.85" x2="618.655" y1="681.054" y2="325.875" gradientUnits="userSpaceOnUse"><stop offset="0" stop-color="#743476"/><stop offset="1" stop-color="#4a3b86"/></linearGradient></defs><path fill="url(#b)" d="M487.576 269.473c1.146-1.039 4.582-.509 6.719-.571 2.253.207 4.544.464 6.741 1.013l-.586.192c.805 2.44 4.889 1.872 7.427 2.403 11.044 2.418 21.929 3.713 32.751 7.626 1.502.395 2.717.76 4.12 1.444 64.431 21.218 117.387 76.56 138.456 140.469 1.237 3.754 1.998 7.755 3.58 11.36l-3.378-.104c-1.492-3.653-11.581-17.517-14.275-21.144-23.156-31.174-54.591-58.195-90.711-73.364a168.23 168.23 0 0 0-130.282-1.258c-49.354 20.109-90.012 67.654-108.322 117.019-10.291 27.749-16.04 62.31-12.227 91.727a47 47 0 0 0 2.104 1.34c-.149 3.801.991 8.681 1.426 12.554-.731.948-1.173 1.524-1.819 2.547.117.357.252.563.43.887a70 70 0 0 0 1.03 5.333c.537 3.403.843 6.523 1.886 9.872.146.636.281 1.3.426 1.927l.874 3.611 1.919-.993.215.632c.795 2.223 1.504 5.12 2.1 7.427a80 80 0 0 0-1.613 2.044c1.059 2.286.873 2.316 2.916 3.526-.638 1.895-.817 1.236-.385 2.689 2.027.882 1.458.212 2.431 1.676-.941 1.351-1.54 1.819-.947 3.58 22.871 67.984 81.505 125.02 150.649 144.716 3.34.952 9.65 3.068 12.504 2.527.269-.404.635-.904.843-1.323l6.512 1.418c-3.531 1.998-.962 1.819 2.161 2.15 8.04 1.457 18.139 1.514 24.386 2.805.793.494.753.42 1.753.612-4.001.657-8.028 1.15-12.07 1.479a247.2 247.2 0 0 1-182.224-58.503c-49.131-42.247-82.449-101.253-87.303-166.378-5.149-69.08 14.633-131.658 60.339-184.056 32.352-37.089 76.035-64.624 124.26-76.17 10.78-2.581 23.879-3.378 35.052-4.198 2.175.076 4.296-.001 6.419.103l.831.165c1.38-.122 1.587-.292 2.882-.811" transform="scale(.00586)"/><path fill="#fefdfd" d="m1.92 3.2.012.009c-.001.022.006.05.008.073l-.01.015c-.001-.03-.01-.064-.01-.096"/><path fill="#fefdfd" d="M2.857 1.579c.007-.006.027-.003.04-.003l.039.006h-.004l-.005.004.002.003c-.003.004-.078-.005-.089-.005.008-.001.01-.002.017-.005"/><path fill="#fefdfd" d="m1.968 3.418.001.004q.007.021.013.043l-.01.012q-.008-.026-.015-.053z"/><path fill="#fefdfd" d="m1.946 3.32.003.012.003.015.003.013.004.02-.01.012q-.008-.029-.011-.058z"/><path fill="#633277" d="m2.478 2.766.001-.003c.03-.08.076-.163.154-.202.02-.01.067-.02.086-.02.071 0 .683-.008.705 0l-.003.003-.016.009a.3.3 0 0 0-.133.132 1 1 0 0 0-.03.08c-.062 0-.142-.003-.201 0-.004.043-.002.098-.002.143l.002.251c0 .044.003.13-.007.17a.17.17 0 0 1-.052.083c-.05.044-.109.049-.172.048v-.003a2 2 0 0 0 0-.19v-.002c.01-.027.003-.44.002-.5-.106-.002-.226 0-.334 0"/><path fill="#633277" d="M2.066 2.54c.067-.004.157 0 .229 0 .002.075 0 .16 0 .237v.47l.365.001h.113q.02 0 .03.016h.006l.002.002-.004.002q-.005 0-.008.004v.078c.001-.006.002-.03.008-.032.004.04-.001.103.003.14v.002h-.011c-.127-.002-.256.001-.383 0-.046 0-.146.003-.187-.006a.2.2 0 0 1-.097-.052c-.072-.072-.06-.155-.06-.247v-.19c0-.14-.005-.284-.006-.426"/><path fill="#fefdfd" d="M2.799 3.35c.001-.006.002-.03.008-.032.004.04-.001.103.003.14v.002h-.011c0-.034-.002-.077 0-.11"/><path fill="#fefdfd" fill-opacity=".933" d="M2.81 3.266c.003.016.004.174 0 .191-.004-.036.001-.1-.002-.138l-.001-.001c-.006.001-.007.026-.008.032v-.078c0-.002.006-.003.008-.004z"/><path fill="#f06823" d="M2.802 1.571a.4.4 0 0 1 .067-.01l-.004.003q-.004.001-.006.005l.003-.002.003.004q.015 0 .031.005c-.012 0-.032-.003-.04.003l-.02-.004-.016.001z"/><path fill="#fefdfd" fill-opacity=".235" d="M2.995 4.408q.013 0 .025.003c-.007.003-.007.004-.013.01-.018-.002-.033-.001-.012-.013"/><path fill="#fefdfd" fill-opacity=".035" d="M2.82 1.576h.016v.007h-.038v-.007z"/><path fill="#fefdfd" fill-opacity=".373" d="m3.28 2.673.008.002-.007.014-.009-.004z"/><path fill="#fefdfd" fill-opacity=".318" d="m3.421 2.544.001.012-.009.004-.008-.007z"/><path fill="#fefdfd" fill-opacity=".337" d="m2.836 1.575.02.004c-.007.003-.008.004-.016.005l-.005-.001z"/><path fill="#e69f79" fill-opacity=".698" d="m2.798 1.576-.001-.002.005-.003.018.005z"/><path fill="#7c5d6f" fill-opacity=".561" d="M3.15 4.437c.003 0 .016-.003.01.003-.005 0-.005 0-.01-.003"/></svg>