<svg viewBox="0 0 32 32" xmlns="http://www.w3.org/2000/svg"><path d="m18.467 2.028-9.14 1.687a.787.787 0 0 0 -.527 1.357l8.934 11.853a2.45 2.45 0 0 0 2.194.854l9.14-1.687a.787.787 0 0 0 .528-1.357l-8.934-11.852a2.45 2.45 0 0 0 -2.195-.855z" fill="#2d9bbd"/><path d="m28.878 17.144-9.636 1.672a3.714 3.714 0 0 0 -2 1.322l-6.561 8.932c-.452.616-.289 1.024.365.911l9.636-1.672a3.714 3.714 0 0 0 2-1.322l6.557-8.933c.461-.616.293-1.023-.361-.91z" fill="#4a4bcd"/><path d="m5.065 15.183c-.151.4-2.957 2.615-2.9 3.068s3.353 1.8 3.6 2.14 1.186 4.687 1.53 4.78 2.118-3.518 2.424-3.7 3.69.282 3.841-.114-2.044-3.976-2.106-4.429 1.095-4.512.844-4.85-3.381 1.06-3.725.967-3.005-3.075-3.311-2.889-.046 4.631-.197 5.027z" fill="#2e5bc1"/></svg>