<svg viewBox="0 0 32 32" xmlns="http://www.w3.org/2000/svg" xmlns:xlink="http://www.w3.org/1999/xlink"><clipPath id="a"><path clip-rule="evenodd" d="m2 2h28v28h-28z"/></clipPath><path d="m29.989 15.856-14.133-13.845-13.845 14.125 13.845 13.853z" fill="#231f20" fill-rule="evenodd"/><g clip-path="url(#a)"><path d="m29.989 15.856-14.133-13.845-13.845 14.125 13.845 13.853z" fill="none" stroke="#231f20" stroke-miterlimit="10" stroke-width=".216"/></g><path d="m28.575 15.856h.847l-13.566 13.566v-.847z" fill="#29695d" fill-rule="evenodd"/><path d="m28.575 15.856h.847l-13.566 13.566v-.847z" fill="none" stroke="#231f20" stroke-miterlimit="10" stroke-width=".216"/><path d="m2.578 16.136h.847l12.431 12.439v.847z" fill="#317367" fill-rule="evenodd"/><path d="m2.578 16.136h.847l12.431 12.439v.847z" fill="none" stroke="#231f20" stroke-miterlimit="10" stroke-width=".216"/><path d="m15.856 3.418v-.84l-13.278 13.558h.847z" fill="#60c2ac" fill-rule="evenodd"/><path d="m15.856 3.418v-.84l-13.278 13.558h.847z" fill="none" stroke="#231f20" stroke-miterlimit="10" stroke-width=".216"/><path d="m15.856 2.578v.84l12.719 12.438h.847z" fill="#43b54a" fill-rule="evenodd"/><path d="m15.856 2.578v.84l12.719 12.438h.847z" fill="none" stroke="#231f20" stroke-miterlimit="10" stroke-width=".216"/><path d="m15.856 28.575 12.719-12.719-12.719-12.438-12.431 12.718z" fill="#3c8376" fill-rule="evenodd"/><path d="m15.856 28.575 12.719-12.719-12.719-12.438-12.431 12.718z" fill="none" stroke="#231f20" stroke-miterlimit="10" stroke-width=".216"/><path d="m18.498 6.246.847.854-5.843 5.928v-5.928h.567l.847-.854v-2.254l-.847-.854h-9.417l-.847.854v2.254l.847.854h.66v19.214l1.034.847h2.921l20.249-20.915v-2.254l-.847-.854h-9.231l-.94.854z" fill="#231f20" fill-rule="evenodd"/><path d="m18.498 6.246.847.854-5.843 5.928v-5.928h.567l.847-.854v-2.254l-.847-.854h-9.417l-.847.854v2.254l.847.854h.66v19.214l1.034.847h2.921l20.249-20.915v-2.254l-.847-.854h-9.231l-.94.854z" fill="none" stroke="#231f20" stroke-miterlimit="10" stroke-width=".216"/><path d="m4.932 6.533-.567-.567v-1.694l.567-.567 8.857-.007.56.574-.56.272-.287-.272-8.57 1.407z" fill="#fff" fill-rule="evenodd"/><path d="m4.932 6.533-.567-.567v-1.694l.567-.567 8.857-.007.56.574-.56.272-.287-.272-8.57 1.407z" fill="none" stroke="#231f20" stroke-miterlimit="10" stroke-width=".216"/><path d="m6.626 26.594-.66-.567v-19.501l.66-.56z" fill="#fff" fill-rule="evenodd"/><path d="m6.626 26.594-.66-.567v-19.501l.66-.56z" fill="none" stroke="#231f20" stroke-miterlimit="10" stroke-width=".216"/><path d="m20.759 6.533.567-.567v1.134l-9.424 9.603 1.04-2.261z" fill="#fff" fill-rule="evenodd"/><path d="m20.759 6.533.567-.567v1.134l-9.424 9.603 1.04-2.261z" fill="none" stroke="#231f20" stroke-miterlimit="10" stroke-width=".216"/><path d="m6.82 5.686-.194.28-.66.567h-1.034v-1.134z" fill="#929497" fill-rule="evenodd"/><path d="m6.82 5.686-.194.28-.66.567h-1.034v-1.134z" fill="none" stroke="#231f20" stroke-miterlimit="10" stroke-width=".216"/><path d="m12.942 6.533v7.909l-1.04 2.254v-10.738h1.6l.287-.28-.287-1.406h.847v1.694l-.56.567z" fill="#929497" fill-rule="evenodd"/><path d="m12.942 6.533v7.909l-1.04 2.254v-10.738h1.6l.287-.28-.287-1.406h.847v1.694l-.56.567z" fill="none" stroke="#231f20" stroke-miterlimit="10" stroke-width=".216"/><path d="m19.625 6.533-.56-.567v-1.694l.653-.567h8.577l.661.567-.948.847-8.383.56z" fill="#fff" fill-rule="evenodd"/><path d="m19.625 6.533-.56-.567v-1.694l.653-.567h8.577l.661.567-.948.847-8.383.56z" fill="none" stroke="#231f20" stroke-miterlimit="10" stroke-width=".216"/><path d="m28.956 5.966-19.882 20.628h-2.448v-.847h1.794l19.875-20.348-.287-1.127h.948z" fill="#929497" fill-rule="evenodd"/><path d="m28.956 5.966-19.882 20.628h-2.448v-.847h1.794l19.875-20.348-.287-1.127h.948z" fill="none" stroke="#231f20" stroke-miterlimit="10" stroke-width=".216"/><path d="m21.512 5.686-.193.28-.56.567h-1.134v-1.134z" fill="#929497" fill-rule="evenodd"/><path d="m21.512 5.686-.193.28-.56.567h-1.134v-1.134z" fill="none" stroke="#231f20" stroke-miterlimit="10" stroke-width=".216"/><path d="m11.902 16.696v-10.738h1.6l.287-.279v-1.135l-.287-.279h-8.29l-.28.279v1.135l.28.279h1.414v19.789l.366.28h1.615l19.782-20.628v-.811l-.287-.323h-8.19l-.287.279v1.142l.287.28h1.414v1.134z" fill="#d0d2d3" fill-rule="evenodd"/><path d="m11.902 16.696v-10.738h1.6l.287-.279v-1.135l-.287-.279h-8.29l-.28.279v1.135l.28.279h1.414v19.789l.366.28h1.615l19.782-20.628v-.811l-.287-.323h-8.19l-.287.279v1.142l.287.28h1.414v1.134z" fill="none" stroke="#231f20" stroke-miterlimit="10" stroke-width=".216"/><path d="m17.041 16.711.66-.567h1.694l.474.567-.567 1.694-.653.567h-1.694l-.481-.567z" fill="#231f20" fill-rule="evenodd"/><path d="m17.041 16.711.66-.567h1.694l.474.567-.567 1.694-.653.567h-1.694l-.481-.567z" fill="none" stroke="#231f20" stroke-miterlimit="10" stroke-width=".216"/><path d="m17.608 26.034 1.701-5.081h-.567l.567-1.702h2.534l.567.568h.38l.56-.568h1.888l.567.568h.373l.567-.568h2.067l.754 1.135-1.235 4.019h.56l-.545 1.629h-3.395l1.327-3.955h-.847l-.782 2.312h.56l-.531 1.643h-3.395l1.32-3.955h-.847l-.789 2.326h.567l-.531 1.629z" fill="#231f20" fill-rule="evenodd"/><path d="m17.608 26.034 1.701-5.081h-.567l.567-1.702h2.534l.567.568h.38l.56-.568h1.888l.567.568h.373l.567-.568h2.067l.754 1.135-1.235 4.019h.56l-.545 1.629h-3.395l1.327-3.955h-.847l-.782 2.312h.56l-.531 1.643h-3.395l1.32-3.955h-.847l-.789 2.326h.567l-.531 1.629z" fill="none" stroke="#231f20" stroke-miterlimit="10" stroke-width=".216"/><path d="m28.554 19.819.438.624-1.393 4.464h.56l-.187.56h-2.261l1.321-3.955h-1.981l-1.127 3.395h.56l-.187.56h-2.261l1.321-3.955h-1.981l-1.127 3.395h.567l-.194.56h-2.261l1.702-5.081h-.568l.187-.567h2.074l.567.567h.56l.567-.567h1.694l.567.567h.567l.567-.567z" fill="#d0d2d3" fill-rule="evenodd"/><path d="m28.554 19.819.438.624-1.393 4.464h.56l-.187.56h-2.261l1.321-3.955h-1.981l-1.127 3.395h.56l-.187.56h-2.261l1.321-3.955h-1.981l-1.127 3.395h.567l-.194.56h-2.261l1.702-5.081h-.568l.187-.567h2.074l.567.567h.56l.567-.567h1.694l.567.567h.567l.567-.567z" fill="none" stroke="#231f20" stroke-miterlimit="10" stroke-width=".216"/><path d="m19.022 19.251-1.73 5.149h.589l-.56 1.637h-3.388l1.694-5.082h-.567l3.962-1.7zm-3.962 1.7.567-1.7h3.4l-3.962 1.7z" fill="#231f20" fill-rule="evenodd"/><path d="m19.022 19.251-1.73 5.149h.589l-.56 1.637h-3.388l1.694-5.082h-.567l3.962-1.7zm-3.962 1.7.567-1.7h3.4l-3.962 1.7z" fill="none" stroke="#231f20" stroke-miterlimit="10" stroke-width=".216"/><path d="m16.947 25.467.187-.56h-.567l1.701-5.088h-2.354l-.194.567h.66l-1.694 5.081z" fill="#d0d2d3" fill-rule="evenodd"/><path d="m16.947 25.467.187-.56h-.567l1.701-5.088h-2.354l-.194.567h.66l-1.694 5.081z" fill="none" stroke="#231f20" stroke-miterlimit="10" stroke-width=".216"/><path d="m18.828 18.125.38-1.134-.186-.28h-1.134l-.374.28-.38 1.134.194.28h1.134z" fill="#d0d2d3" fill-rule="evenodd"/><path d="m18.828 18.125.38-1.134-.186-.28h-1.134l-.374.28-.38 1.134.194.28h1.134z" fill="none" stroke="#231f20" stroke-miterlimit="10" stroke-width=".216"/></svg>