<svg xmlns="http://www.w3.org/2000/svg" viewBox="0 0 32 32"><title>file_type_bower@2x</title><g id="bower"><path d="M29.46,15.72c-1.44-1.38-8.64-2.25-10.91-2.5a6.67,6.67,0,0,0,.28-.81,9.09,9.09,0,0,1,1-.37c0,.12.24.6.35.83,4.57.13,4.8-3.4,5-4.36A5.45,5.45,0,0,1,26.91,5C24.57,4.31,21.21,6,20.09,8.63a7,7,0,0,0-1.27-.35,6.14,6.14,0,0,0-6-4.59A11.15,11.15,0,0,0,2,15.23c0,6.1,4.16,11.44,6.52,11.44a2.32,2.32,0,0,0,2.12-1.46c.17.47.71,1.94.88,2.32.26.55,1.46,1,2,.46a1.93,1.93,0,0,0,2.59-.4,1.91,1.91,0,0,0,2.47-1.42c.64,0,.95-.93.81-1.64a17.5,17.5,0,0,0-1.63-3.06c.85.69,3,.88,3.25,0,1.36,1.07,3.49.51,3.66-.36,1.66.43,3.56-.52,3.25-1.66C30.55,19.27,30.21,16.43,29.46,15.72Z" style="fill:#543729"/><path id="Shape" d="M22.05,9.68a10.19,10.19,0,0,1,2.2-3.15,5.71,5.71,0,0,0-2.58,2.9,9,9,0,0,0-.91-.51,5.88,5.88,0,0,1,4.8-3.31c-1.4,1.27-.9,3.91-2.05,5.3A15.07,15.07,0,0,0,22.05,9.68Zm-.9,1.85a4.63,4.63,0,0,1,0-.53,4.84,4.84,0,0,0-.84-.11,3.16,3.16,0,0,0,.29,1.22,4.38,4.38,0,0,0,2.28-.63A7.64,7.64,0,0,0,21.39,11C21.34,11.15,21.2,11.44,21.15,11.53Z" style="fill:#00acee"/><path d="M17.2,20.53h0c-.13-.29-.28-.64-.45-1.1.67,1,2.75.47,2.64-.4,1,.77,3.12-.13,2.64-1.2,1,.48,2.19-.48,1.93-.9,1.74.34,3.41.67,3.94.81a2,2,0,0,1-2.34.69c.65.88-.61,1.94-2.36,1.35.38.86-1.17,1.64-2.94.74C20.29,21.38,18.08,21.48,17.2,20.53Zm3.46-4.37c2,.16,5.37.46,7.44.75-.13-.67-.49-.87-1.61-1.17C25.27,15.87,22.21,16.17,20.66,16.16Z" style="fill:#2baf2b"/><path d="M19.39,19c1,.77,3.12-.13,2.64-1.2,1,.48,2.19-.48,1.93-.9-2.06-.4-4.22-.8-4.71-.87l1.41.1c1.55,0,4.62-.29,5.83-.42a58.72,58.72,0,0,0-8.71-1.4,4,4,0,0,1-.77.84c-1.21,2.56-3.4,4.25-5.82,4.25A7.8,7.8,0,0,1,8.8,19c-.55.59-2.9,1-4.81.1A9.74,9.74,0,0,0,12.9,25c3.27,0,4.72-3.34,4.41-4.23-.08-.21-.38-.93-.55-1.39C17.42,20.4,19.5,19.9,19.39,19Z" style="fill:#ffcc2f"/><path d="M17.41,12.3a9.48,9.48,0,0,1,2.24-1c0-.11,0-.21,0-.32-.62.15-1.8.65-2.48,0,1.42.43,2.13-.38,3.18-.38a6.72,6.72,0,0,1,2.21.45,7.47,7.47,0,0,0-4.7-2.1A3.29,3.29,0,0,0,17.41,12.3Z" style="fill:#cecece"/><path d="M8.8,19a7.8,7.8,0,0,0,2.38.4c2.42,0,4.61-1.7,5.82-4.25a7.48,7.48,0,0,1-4.87,1.38,7.62,7.62,0,0,0,5-3.14,4.22,4.22,0,0,1,.44-5.25,4.93,4.93,0,0,0-4.67-3.28C7.58,4.89,3.2,9.31,3.2,15.23A9.89,9.89,0,0,0,4,19.13C5.9,20.07,8.25,19.62,8.8,19Z" style="fill:#ef5734"/><path d="M10.38,10a2.44,2.44,0,1,0,2.44-2.44A2.44,2.44,0,0,0,10.38,10Z" style="fill:#ffcc2f"/><path d="M11.36,10a1.46,1.46,0,1,0,1.46-1.46A1.46,1.46,0,0,0,11.36,10Z" style="fill:#543729"/><ellipse cx="12.82" cy="9.36" rx="0.85" ry="0.53" style="fill:#fff"/></g></svg>