<svg xmlns="http://www.w3.org/2000/svg" viewBox="0 0 32 32"><title>file_type_toml</title><path d="M22.448,4.4a2.729,2.729,0,0,1-.87,2.12,2.873,2.873,0,0,0-.253-1.379,2.715,2.715,0,0,0-.921-.792,5.61,5.61,0,0,1-1.1.2c-.371-.011-.7-.243-1.067-.255a1.7,1.7,0,0,0-1.408.843,1.628,1.628,0,0,0,.616,2.057c1.266.8,2.892.8,4.108,1.706a4.541,4.541,0,0,1,1.773,3.638,4.062,4.062,0,0,1-2.482,3.377,6.086,6.086,0,0,1-3.07.451,1.5,1.5,0,0,0-1.735,1.391c0,1.788-.008,3.578,0,5.367a1.31,1.31,0,0,0,.329.818c.017.189.034.379.049.571a6.108,6.108,0,0,1,1.145.232,2.547,2.547,0,0,1,.373.662,15.838,15.838,0,0,1,.772,1.392,1.531,1.531,0,0,1-.327.737c-.358.006-.711.071-1.068.106-.336.045-.543-.256-.741-.471.154,0,.461.008.614.011a2.444,2.444,0,0,0-.054-1.564,2.445,2.445,0,0,0-1.052-.689c-.088,1.3-.026,2.608-.041,3.913a21.027,21.027,0,0,1,5.173.484.725.725,0,0,1-.433.319,16.392,16.392,0,0,1-2.834.315,46.449,46.449,0,0,1-5.391-.068,5.59,5.59,0,0,1-2.229-.474,3.419,3.419,0,0,1,1.084-.335,33.784,33.784,0,0,1,4.037-.239c0-1.087.006-2.174,0-3.261a3.355,3.355,0,0,0-.387-1.291,7.975,7.975,0,0,0-2.806-1.242c-.411-.035-.456-.522-.556-.831a19.17,19.17,0,0,0,2.032-2.99,4.977,4.977,0,0,0,1.021-2.287,6.41,6.41,0,0,1-1.942-.29,7.312,7.312,0,0,1,3.284-3.5c-2.224.709-3.644,2.817-4.421,4.915a5.816,5.816,0,0,1-.712-3.459,8.066,8.066,0,0,0-.321,1.882,6.376,6.376,0,0,0-1.778,1.993A8.034,8.034,0,0,1,10.586,11.5a6.972,6.972,0,0,1,5.158-2.272c1.834,1.11,3.6,2.343,5.411,3.489a1.463,1.463,0,0,0,.384-.944,2.568,2.568,0,0,0-1.227-1.793c-1.161-.72-2.6-.849-3.723-1.638A3.443,3.443,0,0,1,16.1,3.492,4.226,4.226,0,0,1,19.128,2c.935.513,1.788,1.17,2.706,1.716C22.08,3.9,22.456,4.032,22.448,4.4ZM13.706,20.454a5.105,5.105,0,0,0-.82,1.593c-.043.332.239.556.5.7q.958.541,1.939,1.045a5.151,5.151,0,0,0,.129-1.438c-.026-1.532.032-3.064-.035-4.595A28.52,28.52,0,0,0,13.706,20.454Zm2.389,8.762c-.064.1-.195.307-.261.41,1.067-.015,2.252.318,3.222-.263A7.658,7.658,0,0,0,16.094,29.216Zm-3.6.2a6.916,6.916,0,0,0,3.122.224c-.072-.149-.144-.3-.218-.445A6.113,6.113,0,0,0,12.493,29.417Z" style="fill:#fe668d"/><path d="M18.168,29.407a1.73,1.73,0,0,0-1.423.014A1.615,1.615,0,0,0,18.168,29.407Z" style="fill:#fd7799"/><path d="M14.78,29.42a1.488,1.488,0,0,0-1.345,0A1.6,1.6,0,0,0,14.78,29.42Z" style="fill:#ff749c"/><path d="M15.615,29.641a6.916,6.916,0,0,1-3.122-.224,6.113,6.113,0,0,1,2.9-.221C15.471,29.344,15.543,29.492,15.615,29.641Zm-2.18-.218a1.6,1.6,0,0,0,1.345,0A1.488,1.488,0,0,0,13.435,29.423Z" style="fill:#ffe5ea"/><path d="M15.833,29.626c.066-.1.2-.307.261-.41a7.658,7.658,0,0,1,2.961.147C18.085,29.944,16.9,29.611,15.833,29.626Zm.912-.206a1.615,1.615,0,0,0,1.423-.014A1.73,1.73,0,0,0,16.745,29.42Z" style="fill:#fff3f5"/></svg>