<svg xmlns="http://www.w3.org/2000/svg" viewBox="0 0 32 32"><title>file_type_ogone</title><path d="M2,15.935A14,14,0,1,1,15.928,30,13.983,13.983,0,0,1,2,15.935Zm19.861-.745a.838.838,0,0,0-.2-.531q-1.712-2.076-3.42-4.154a.632.632,0,0,0-.875-.228c-.375.223-.343.558-.178.917.514,1.116,1,2.248,1.535,3.352a1.283,1.283,0,0,1-.063,1.353c-2.129,3.663-4.231,7.341-6.346,11.012-.182.317-.281.618.027.9s.6.173.906-.029q2.3-1.523,4.6-3.032a1.314,1.314,0,0,0,.542-.647q1.662-4.262,3.337-8.519C21.781,15.448,21.823,15.3,21.861,15.19ZM15.237,4.138a.606.606,0,0,0-.576.9,2.507,2.507,0,0,0,.346.421q4.254,4.7,8.516,9.4a1.007,1.007,0,0,1,.254,1c-.28,1.244-.54,2.492-.807,3.739-.1.48.021.8.377.9.426.119.644-.144.816-.48.788-1.541,1.572-3.085,2.375-4.618a.89.89,0,0,0-.064-1.013q-2.553-3.805-5.083-7.625a1.324,1.324,0,0,0-.66-.528q-2.553-.972-5.1-1.954C15.489,4.215,15.343,4.173,15.237,4.138Zm-.609,3.928c-.45-.013-.678.364-.567.968.222,1.21.441,2.421.686,3.626a1.119,1.119,0,0,1-.325,1.108Q9.961,18.373,5.523,23c-.253.263-.421.537-.193.887s.539.321.887.2c1.745-.621,3.493-1.232,5.24-1.848a1.071,1.071,0,0,0,.557-.374q2.732-3.851,5.469-7.7a.712.712,0,0,0,.07-.773Q16.376,10.925,15.2,8.459A.634.634,0,0,0,14.628,8.066Z" style="fill:#b4aff8"/><path d="M21.861,15.19c-.038.113-.08.258-.135.4q-1.669,4.259-3.337,8.519a1.314,1.314,0,0,1-.542.647q-2.307,1.509-4.6,3.032c-.3.2-.6.315-.906.029s-.209-.588-.027-.9c2.115-3.671,4.217-7.349,6.346-11.012a1.283,1.283,0,0,0,.063-1.353c-.539-1.1-1.021-2.236-1.535-3.352-.165-.359-.2-.694.178-.917a.632.632,0,0,1,.875.228q1.707,2.08,3.42,4.154A.838.838,0,0,1,21.861,15.19Z" style="fill:#343435"/><path d="M15.237,4.138c.106.035.252.077.393.131q2.55.976,5.1,1.954a1.324,1.324,0,0,1,.66.528q2.532,3.819,5.083,7.625a.89.89,0,0,1,.064,1.013c-.8,1.533-1.587,3.077-2.375,4.618-.172.336-.39.6-.816.48-.356-.1-.48-.416-.377-.9.267-1.247.527-2.5.807-3.739a1.007,1.007,0,0,0-.254-1q-4.269-4.687-8.516-9.4a2.507,2.507,0,0,1-.346-.421A.606.606,0,0,1,15.237,4.138Z" style="fill:#343435"/><path d="M14.628,8.066a.634.634,0,0,1,.57.393q1.179,2.466,2.355,4.935a.712.712,0,0,1-.07.773q-2.736,3.846-5.469,7.7a1.071,1.071,0,0,1-.557.374c-1.747.616-3.5,1.227-5.24,1.848-.348.124-.662.149-.887-.2s-.06-.624.193-.887q4.449-4.617,8.9-9.234a1.119,1.119,0,0,0,.325-1.108c-.245-1.2-.464-2.416-.686-3.626C13.95,8.43,14.178,8.053,14.628,8.066Z" style="fill:#343435"/></svg>