<svg xmlns="http://www.w3.org/2000/svg" viewBox="0 0 32 32"><title>file_type_libreoffice_writer</title><path fill="#1081C2" d="M5.77 2h-.16c-.8.16-1 .5-.98 1.32v25.37c0 .91.4 1.31 1.3 1.31h20.13c.92 0 1.32-.4 1.32-1.31V12.98c0-.46-.18-.93-.5-1.26L17.66 2.5c-.33-.32-.8-.5-1.26-.5H5.77zM21.1 2a.9.9 0 0 0-.14.01c-.58.19-.78 1.08-.33 1.5l5.27 5.3c.49.46 1.46.06 1.49-.62V2.9a.91.91 0 0 0-.88-.88h-5.27a.9.9 0 0 0-.14 0z"/><path fill="#f3f3f3" d="M5.94 3.31V28.7h20.12V12.94L16.44 3.3z"/><path fill="#1081C2" d="M8.78 14.25v.87h3.94v-.87zm4.81 0v6.12h9.2v-6.12zm.66.66h7.88v4.8h-7.88zM8.78 16v.87h3.94V16zm0 1.75v.87h3.94v-.87zm0 1.75v.87h3.94v-.87zm0 1.75v.87h14v-.87zm0 1.75v.87h14V23zm0 1.75v.87h9.19v-.87z"/><path fill="#63bbee" d="M14.25 14.9h7.87v4.82h-7.87z"/><path fill="#4D4D4D" d="M20.02 16.24c.53.27 1.44 1.2 2.1 1.87v.8H16.1a9.45 9.45 0 0 1 3.94-2.67z"/><path fill="#333" d="m18.1 17.8.04-.38.7-.3.38-.37.68-.28-.18.45-.26.48-.16.51-.11.3z"/><path fill="#4D4D4D" d="M18.32 17.45a8.07 8.07 0 0 1-1.7-2c-.16.04-.15.02-.27 0l-1.05 1.6c-.35.54-1.05 1.33-1.05 1.33v.54h6.04s-1.44-1.06-1.97-1.47z"/><path fill="#106802" d="M22.13 18.38h-.34l-1.5.27s-1.48-.4-1.7-.4c-.23 0-.93.13-1.06.13-.1 0-.65-.27-.79-.27-.22 0-.47.29-1.13.4 0 0-.19-.42-.31-.4-.79.31-1.05.27-1.05.27v1.34h7.87v-1.34z"/><path fill="#035483" d="M14.25 18.65v1.07h6.82l.27-.27-.27-.27-.52-.26-1.31-.27-1.32-.13-1.18.13h-2.49z"/><path fill="#333" d="m14.78 18.11.37-.6.44-.54.34-.63.42-.63-.28.8-.21.65-.1.42-.2.44c-.07-.05-.16-.06-.25-.09l-.25.1z"/><path fill="gray" d="m16.6 15.71.25.8.26.5.22.74.07.36.24.08.36-.08c.15-.02.3 0 .45 0l-.38-.59-.68-.75-.56-.75-.22-.3zm3.54.74.1.35.44.7.05.64.26.2.6-.1.43-.02-.3-.2-.44-.59-.64-.56-.5-.42zm-1.78 1.22.3.45.46.13-.46-.34-.3-.24z"/><path fill="#666" d="m16.48 15.71-.12.48-.2.46-.14.75-.28.73h.37l.37-.24.33.13.35-.1-.05-.34-.2-.49-.21-.42-.05-.46-.17-.5zm3.51.74-.12.48-.2.46-.17.54-.11.31.9.2.45.02-.22-.22.03-.45-.16-.42-.22-.42-.18-.5z"/><path fill="#0369a3" d="m14.51 18.92-.26.8h6.56v-.27l-.26-.27-1.31-.26-1.31-.14-1.32.14-1.42.04z"/><path fill="#1c99e0" d="m17.14 19.45.26-.27h1.05l.79.27.26.27h-.52z" opacity=".5"/><path fill="#ff0" d="M22.13 16.22c-.73 0-1.32-.59-1.32-1.31h1.32z" opacity=".74"/></svg>