<svg viewBox="0 0 32 32" xmlns="http://www.w3.org/2000/svg"><path d="m27.089 15.786a2.606 2.606 0 0 0 -2.606-2.606 2.633 2.633 0 0 0 -.274.014l3.58-10.558h-15.213l3.575 10.549c-.052 0-.105-.005-.158-.005a2.606 2.606 0 0 0 -.791 5.09 11.383 11.383 0 0 1 -2.049 2.579 10.436 10.436 0 0 1 -3.653 2.267 3.323 3.323 0 0 1 -1.665-4.23c.077-.18.155-.362.229-.544a2.607 2.607 0 1 0 -2.09-.4 20.134 20.134 0 0 0 -1.889 4.787c-.354 2.135 0 4.4 1.845 5.681 4.3 2.981 8.969-1.848 13.891-3.061 1.784-.44 3.742-.369 5.313-1.279a4.45 4.45 0 0 0 2.179-3.088 4.639 4.639 0 0 0 -.831-3.522 2.6 2.6 0 0 0 .606-1.671zm-8.489.014v-.009a2.6 2.6 0 0 0 -1.256-2.23l2.844-5.761 2.85 5.814a2.6 2.6 0 0 0 -1.161 2.169v.057z" fill="#c63d14"/><path d="m27.726 15.786a3.247 3.247 0 0 0 -2.643-3.186l3.594-10.6h-16.988l3.6 10.621a3.241 3.241 0 0 0 -1 5.918 10.865 10.865 0 0 1 -1.568 1.846 9.827 9.827 0 0 1 -3.16 2.03 2.656 2.656 0 0 1 -1.134-3.28l.04-.093.074-.175a3.245 3.245 0 1 0 -3.34-.754c-.108.231-.222.465-.339.706a14 14 0 0 0 -1.4 3.8c-.465 2.8.285 5.043 2.111 6.308a5.751 5.751 0 0 0 3.361 1.073c2.132 0 4.289-1.071 6.4-2.119a23.672 23.672 0 0 1 4.642-1.918c.577-.142 1.171-.228 1.8-.319a9.977 9.977 0 0 0 3.68-1.028 5.09 5.09 0 0 0 2.487-3.53 5.255 5.255 0 0 0 -.691-3.613 3.223 3.223 0 0 0 .475-1.688zm-1.273 0a1.97 1.97 0 1 1 -1.97-1.97 1.972 1.972 0 0 1 1.97 1.97zm.447-12.513-3.174 9.36a3.2 3.2 0 0 0 -.4.125l-3.135-6.4-3.145 6.362a3.2 3.2 0 0 0 -.419-.114l-3.163-9.333zm-10.907 10.543a1.97 1.97 0 1 1 -1.97 1.97 1.972 1.972 0 0 1 1.97-1.97zm-8.522.019a1.97 1.97 0 1 1 -1.971 1.965 1.972 1.972 0 0 1 1.97-1.97zm19.217 7.034a3.82 3.82 0 0 1 -1.871 2.646 8.9 8.9 0 0 1 -3.223.869c-.632.091-1.285.185-1.924.343a24.587 24.587 0 0 0 -4.9 2.013c-3.164 1.571-5.9 2.928-8.472 1.143-1.887-1.308-1.8-3.728-1.58-5.054a12.82 12.82 0 0 1 1.282-3.453c.092-.189.182-.375.27-.559a3.215 3.215 0 0 0 .838.21 3.965 3.965 0 0 0 2.1 4.655l.245.126.259-.092a11.029 11.029 0 0 0 3.875-2.4 12.078 12.078 0 0 0 1.918-2.319 3.241 3.241 0 0 0 2.64-5.627l2.038-4.121 2.059 4.2a3.24 3.24 0 0 0 4.088 5 3.957 3.957 0 0 1 .355 2.422z" fill="#fff"/></svg>