<svg xmlns="http://www.w3.org/2000/svg" viewBox="0 0 32 32"><title>file_type_svg@2x</title><g id="svg"><path d="M7.67,14.49a2.22,2.22,0,1,0,0,3.14H24.33a2.22,2.22,0,1,0,0-3.14Z" style="fill:#ffb13b;stroke:#000;stroke-width:3.73000001907349px"/><path d="M11.22,9.06A2.22,2.22,0,1,0,9,11.28L20.78,23.05A2.22,2.22,0,1,0,23,20.83Z" style="fill:#ffb13b;stroke:#000;stroke-width:3.73000001907349px"/><path d="M17.57,7.73a2.22,2.22,0,1,0-3.14,0V24.38a2.22,2.22,0,1,0,3.14,0Z" style="fill:#ffb13b;stroke:#000;stroke-width:3.73000001907349px"/><path d="M23,11.28a2.22,2.22,0,1,0-2.22-2.22L9,20.83a2.22,2.22,0,1,0,2.22,2.22Z" style="fill:#ffb13b;stroke:#000;stroke-width:3.73000001907349px"/><path d="M7.67,14.49a2.22,2.22,0,1,0,0,3.14H24.33a2.22,2.22,0,1,0,0-3.14Z" style="fill:#ffb13b"/><path d="M11.22,9.06A2.22,2.22,0,1,0,9,11.28L20.78,23.05A2.22,2.22,0,1,0,23,20.83Z" style="fill:#ffb13b"/><path d="M17.57,7.73a2.22,2.22,0,1,0-3.14,0V24.38a2.22,2.22,0,1,0,3.14,0Z" style="fill:#ffb13b"/><path d="M23,11.28a2.22,2.22,0,1,0-2.22-2.22L9,20.83a2.22,2.22,0,1,0,2.22,2.22Z" style="fill:#ffb13b"/><path id="base" d="M2,16.06H30v9.89a4,4,0,0,1-4.11,4.11H6.11A4,4,0,0,1,2,25.95Z"/><path id="S" d="M6.2,23a3.63,3.63,0,1,1,6.19-2.56H10.27A1.5,1.5,0,1,0,7.7,21.54h0A1.6,1.6,0,0,0,8.77,22h0A4.12,4.12,0,0,1,11.33,23h0a3.63,3.63,0,1,1-6.19,2.56H7.26a1.5,1.5,0,1,0,2.57-1.06h0a2,2,0,0,0-1.06-.44h0A4.46,4.46,0,0,1,6.2,23Z" style="fill:#fff"/><path id="V" d="M19.65,16.85,17.08,29.24H15L12.4,16.85h2.13L16,24.11l1.5-7.25Z" style="fill:#fff"/><path id="G" d="M23.28,22h3.63v3.63h0a3.63,3.63,0,1,1-7.26,0h0V20.48h0a3.63,3.63,0,0,1,7.26,0H24.78a1.5,1.5,0,1,0-3,0v5.13h0a1.5,1.5,0,0,0,3,0h0v-1.5h-1.5V22Z" style="fill:#fff"/></g></svg>