<svg xmlns="http://www.w3.org/2000/svg" xmlns:xlink="http://www.w3.org/1999/xlink" viewBox="0 0 32 32"><defs><linearGradient id="linear-gradient" x1="9.95" y1="22.9" x2="16.68" y2="8.68" gradientUnits="userSpaceOnUse"><stop offset="0" stop-color="#1011a1"/><stop offset="1" stop-color="#6969e1"/></linearGradient><linearGradient id="linear-gradient-2" x1="16.23" y1="12.34" x2="25.62" y2="28.22" gradientUnits="userSpaceOnUse"><stop offset="0" stop-color="#b40e0e"/><stop offset="1" stop-color="#ff5959"/></linearGradient><linearGradient id="linear-gradient-3" x1="21.66" y1="27.18" x2="8.38" y2="26.06" gradientUnits="userSpaceOnUse"><stop offset="0" stop-color="#01a300"/><stop offset="1" stop-color="#01df00"/></linearGradient><linearGradient id="linear-gradient-4" x1="14.64" y1="23.63" x2="14.47" y2="17.85" gradientUnits="userSpaceOnUse"><stop offset="0" stop-color="#848484"/><stop offset="1" stop-color="#d2d2d2"/></linearGradient></defs><title>file_type_cmake@2x</title><g id="cmake"><path d="M17.26,16.92l-15,12.83L16,2.28Z" style="stroke:#000;stroke-width:0.050000000745058px;fill:url(#linear-gradient)"/><path d="M18,24.93,16,2.28,29.77,29.75Z" style="stroke:#000;stroke-width:0.050000000745058px;fill:url(#linear-gradient-2)"/><path d="M11.16,22.09l18.62,7.65H2.25Z" style="stroke:#000;stroke-width:0.050000000745058px;fill:url(#linear-gradient-3)"/><path d="M11.19,22.11l6.06-5.17.84,8Z" style="stroke:#000;stroke-width:0.100000001490116px;fill:url(#linear-gradient-4)"/><path d="M29.69,29.84H2.29c-.17,0-.13-.1-.09-.19L15.93,2.22c.05-.08.1-.07.14,0L29.8,29.64C29.87,29.78,29.83,29.84,29.69,29.84Z" style="fill:none;stroke:#000;stroke-width:0.150000005960464px"/></g></svg>