<svg xmlns="http://www.w3.org/2000/svg" viewBox="0 0 32 32"><title>file_type_locale@2x</title><g id="locale"><path d="M28.14,30A1.85,1.85,0,0,0,30,28.17V9.45a1.85,1.85,0,0,0-1.86-1.83H10L17.25,30Z" style="fill:#d9d9d9"/><polygon points="22.04 24.71 17.29 30 15.55 24.71 22.04 24.71" style="fill:#4352b8"/><path d="M28.23,15.37V14.28H23V12.51H21.25v1.77H17.88v1.09h6.7a9.7,9.7,0,0,1-1.92,3.38c-1.37-1.62-1.37-2.15-1.37-2.15H19.86s.06.79,2,3a13.51,13.51,0,0,1-1.1,1L21.18,22s.66-.57,1.49-1.44c.83.9,1.9,2,3.28,3.27l.9-.9c-1.48-1.34-2.57-2.41-3.36-3.27a9.93,9.93,0,0,0,2.38-4.31h2.37Z" style="fill:#617d8b"/><path d="M3.86,2A1.87,1.87,0,0,0,2,3.86v19a1.87,1.87,0,0,0,1.86,1.86H22L14.75,2Z" style="fill:#4f8bf5"/><path d="M17,7.62H28.14A1.85,1.85,0,0,1,30,9.45V20.68Z" style="fill:#fff;opacity:0.200000002980232;isolation:isolate"/><path d="M7.05,13.81c.61-1.57,1.21-3.15,1.82-4.72h1.77l.28.73,1.33,3.46,1.32,3.43.36.92H12.38l-.66-2H7.8l-.66,2H5.59l1.47-3.82m1.18.67h3.05c-.51-1.34-1-2.68-1.53-4C9.25,11.8,8.75,13.14,8.24,14.48Z" style="fill:#f2f2f2"/></g></svg>