<svg xmlns="http://www.w3.org/2000/svg" viewBox="0 0 32 32"><title>file_type_word</title><path d="M18.536,2.323V4.868c3.4.019,7.12-.035,10.521.019a.783.783,0,0,1,.912.861c.054,6.266-.013,12.89.032,19.157-.02.4.009,1.118-.053,1.517-.079.509-.306.607-.817.676-.286.039-.764.034-1.045.047-2.792-.014-5.582-.011-8.374-.01l-1.175,0v2.547L2,27.133Q2,16,2,4.873L18.536,2.322" style="fill:#283c82"/><path d="M18.536,5.822h10.5V26.18h-10.5V23.635h8.27V22.363h-8.27v-1.59h8.27V19.5h-8.27v-1.59h8.27V16.637h-8.27v-1.59h8.27V13.774h-8.27v-1.59h8.27V10.911h-8.27V9.321h8.27V8.048h-8.27V5.822" style="fill:#fff"/><path d="M8.573,11.443c.6-.035,1.209-.06,1.813-.092.423,2.147.856,4.291,1.314,6.429.359-2.208.757-4.409,1.142-6.613.636-.022,1.272-.057,1.905-.1-.719,3.082-1.349,6.19-2.134,9.254-.531.277-1.326-.013-1.956.032-.423-2.106-.916-4.2-1.295-6.314C8.99,16.1,8.506,18.133,8.08,20.175q-.916-.048-1.839-.111c-.528-2.8-1.148-5.579-1.641-8.385.544-.025,1.091-.048,1.635-.067.328,2.026.7,4.043.986,6.072.448-2.08.907-4.161,1.352-6.241" style="fill:#fff"/></svg>