<svg viewBox="0 0 32 32" xmlns="http://www.w3.org/2000/svg" xmlns:xlink="http://www.w3.org/1999/xlink"><filter id="a" name="softGlow"><feGaussianBlur in="SourceAlpha" result="blur" stdDeviation="4"/><feOffset dx=".1" dy=".1" in="blur" result="offsetBlur"/><feFlood flood-color="#c4c7ce" result="offsetColor"/><feComposite in="offsetColor" in2="offsetBlur" operator="in" result="offsetBlur"/></filter><g filter="url(#a)"><path d="m12.481 24.606a4.468 4.468 0 0 1 -6.273-.595 4.469 4.469 0 0 1 1.33-6.155 4.467 4.467 0 0 1 6.269.591 4.468 4.468 0 0 1 -1.326 6.159z"/><path d="m9.508 25.671q-.222 0-.444-.021a3.928 3.928 0 0 1 -3.553-4.85 5.194 5.194 0 0 1 5.706-3.953 3.92 3.92 0 0 1 3.29 4.821 5.048 5.048 0 0 1 -1.988 2.994 5.109 5.109 0 0 1 -3.011 1.009zm1.012-8.75a5.013 5.013 0 0 0 -2.943.987 4.921 4.921 0 0 0 -1.938 2.915 3.8 3.8 0 0 0 3.438 4.7c.143.014.288.02.431.02a4.978 4.978 0 0 0 2.934-.988 4.918 4.918 0 0 0 1.937-2.916 3.79 3.79 0 0 0 -3.179-4.666 4.453 4.453 0 0 0 -.68-.052z"/><path d="m11.322 7.644c2.61 1.909 3.349 5.337 1.648 7.655s-5.189 2.648-7.8.739-3.345-5.338-1.648-7.66 5.19-2.647 7.8-.734z"/><path d="m8.868 17.388a6.376 6.376 0 0 1 -3.758-1.262 6.312 6.312 0 0 1 -2.483-3.741 4.911 4.911 0 0 1 4.444-6.069 6.315 6.315 0 0 1 4.315 1.24 6.31 6.31 0 0 1 2.543 4.067 4.9 4.9 0 0 1 -4.506 5.739c-.185.017-.37.026-.555.026zm-1.249-10.876a4.889 4.889 0 0 0 -4.009 1.931 4.791 4.791 0 0 0 -.771 3.9 6.094 6.094 0 0 0 2.4 3.611 6.16 6.16 0 0 0 3.63 1.221q.268 0 .534-.025a4.686 4.686 0 0 0 4.312-5.489 6.09 6.09 0 0 0 -2.456-3.924 6.18 6.18 0 0 0 -3.64-1.225z"/><path d="m24.788 17.89a4.471 4.471 0 0 1 1.322 6.159 4.472 4.472 0 0 1 -6.273.6 4.471 4.471 0 0 1 -1.322-6.159 4.468 4.468 0 0 1 6.273-.6z"/><path d="m22.808 25.71a5.113 5.113 0 0 1 -3.008-1.01 4.541 4.541 0 0 1 -1.336-6.25 4.009 4.009 0 0 1 2.909-1.6 5.194 5.194 0 0 1 5.44 3.985 3.935 3.935 0 0 1 -3.557 4.857q-.225.018-.448.018zm-.989-8.754q-.218 0-.435.021a3.88 3.88 0 0 0 -2.816 1.55 4.411 4.411 0 0 0 1.308 6.073 4.994 4.994 0 0 0 2.935.982 3.957 3.957 0 0 0 3.247-1.566 3.873 3.873 0 0 0 .626-3.151 4.92 4.92 0 0 0 -1.934-2.917 4.972 4.972 0 0 0 -2.931-.992z"/><path d="m16.091 21.468a5.1 5.1 0 0 1 -3.184-1.055 3.3 3.3 0 0 1 -1.333-2.583c0-2.006 2.026-3.638 4.517-3.638s4.517 1.632 4.517 3.638a3.3 3.3 0 0 1 -1.333 2.583 5.1 5.1 0 0 1 -3.184 1.055zm0-7.015c-2.347 0-4.256 1.515-4.256 3.377s1.909 3.377 4.256 3.377 4.256-1.515 4.256-3.377-1.91-3.378-4.256-3.378z"/><path d="m13.083 17.94a1.906 1.906 0 1 1 1.91-1.906 1.909 1.909 0 0 1 -1.91 1.906zm0-3.508a1.6 1.6 0 1 0 1.6 1.6 1.6 1.6 0 0 0 -1.6-1.599z"/><path d="m26.845 16.25c-2.591 1.9-6.061 1.568-7.746-.735s-.955-5.708 1.636-7.61 6.061-1.568 7.746.735.955 5.712-1.636 7.61z"/><path d="m23.175 17.592q-.277 0-.553-.026a4.885 4.885 0 0 1 -4.417-6.03 6.449 6.449 0 0 1 6.753-4.948 4.886 4.886 0 0 1 4.417 6.032 6.273 6.273 0 0 1 -2.465 3.716 6.337 6.337 0 0 1 -3.735 1.256zm1.225-10.812a6.119 6.119 0 0 0 -3.6 1.213c-2.539 1.863-3.263 5.209-1.613 7.458a4.756 4.756 0 0 0 3.456 1.9 6.053 6.053 0 0 0 4.138-1.187c2.539-1.86 3.263-5.205 1.613-7.458a4.756 4.756 0 0 0 -3.456-1.9q-.266-.026-.538-.026z"/><path d="m18.89 17.94a1.906 1.906 0 1 1 1.91-1.906 1.91 1.91 0 0 1 -1.91 1.906zm0-3.508a1.6 1.6 0 1 0 1.6 1.6 1.6 1.6 0 0 0 -1.6-1.599z"/><path d="m15.393 14.3a7.155 7.155 0 0 1 .027-1.053 3.464 3.464 0 0 0 -.171-1.812v-.008l-.25-.6-.212.357.155.03-.059.3-.367-.072a.153.153 0 0 1 -.1-.228l.477-.8a.153.153 0 0 1 .272.019l.366.871a3.747 3.747 0 0 1 .2 1.965 6.826 6.826 0 0 0 -.031 1.011z"/><path d="m16.766 14.3-.3-.023a6.77 6.77 0 0 0 -.028-1.01 3.73 3.73 0 0 1 .2-1.963l.362-.867a.153.153 0 0 1 .272-.019l.477.8a.153.153 0 0 1 -.1.228l-.367.072-.059-.3.155-.03-.212-.357-.25.6v.008a3.446 3.446 0 0 0 -.168 1.808 7.1 7.1 0 0 1 .018 1.053z"/><path d="m15.691 23.605-.621-1.03a.131.131 0 0 1 -.019-.068v-1.132h.262v1.1l.6 1z"/><path d="m17.074 23.609-.621-1.03a.131.131 0 0 1 -.019-.068v-1.136h.266v1.1l.6 1z"/></g><path d="m11.248 16.782h.174v.14h-.174z"/><path d="m11.437 16.937h-.2v-.17h.2zm-.174-.03h.144v-.107h-.144z"/><path d="m12.481 24.606a4.468 4.468 0 0 1 -6.273-.595 4.469 4.469 0 0 1 1.33-6.155 4.467 4.467 0 0 1 6.269.591 4.468 4.468 0 0 1 -1.326 6.159z"/><path d="m9.508 25.671q-.222 0-.444-.021a3.928 3.928 0 0 1 -3.553-4.85 5.194 5.194 0 0 1 5.706-3.953 3.92 3.92 0 0 1 3.29 4.821 5.048 5.048 0 0 1 -1.988 2.994 5.109 5.109 0 0 1 -3.011 1.009zm1.012-8.75a5.013 5.013 0 0 0 -2.943.987 4.921 4.921 0 0 0 -1.938 2.915 3.8 3.8 0 0 0 3.438 4.7c.143.014.288.02.431.02a4.978 4.978 0 0 0 2.934-.988 4.918 4.918 0 0 0 1.937-2.916 3.79 3.79 0 0 0 -3.179-4.666 4.453 4.453 0 0 0 -.68-.052z"/><path d="m11.322 7.644c2.61 1.909 3.349 5.337 1.648 7.655s-5.189 2.648-7.8.739-3.345-5.338-1.648-7.66 5.19-2.647 7.8-.734z"/><path d="m8.868 17.388a6.376 6.376 0 0 1 -3.758-1.262 6.312 6.312 0 0 1 -2.483-3.741 4.911 4.911 0 0 1 4.444-6.069 6.315 6.315 0 0 1 4.315 1.24 6.31 6.31 0 0 1 2.543 4.067 4.9 4.9 0 0 1 -4.506 5.739c-.185.017-.37.026-.555.026zm-1.249-10.876a4.889 4.889 0 0 0 -4.009 1.931 4.791 4.791 0 0 0 -.771 3.9 6.094 6.094 0 0 0 2.4 3.611 6.16 6.16 0 0 0 3.63 1.221q.268 0 .534-.025a4.686 4.686 0 0 0 4.312-5.489 6.09 6.09 0 0 0 -2.456-3.924 6.18 6.18 0 0 0 -3.64-1.225z"/><path d="m9.038 13.439a2.462 2.462 0 0 1 -.125-3.462 2.456 2.456 0 0 1 3.42-.553 2.454 2.454 0 0 1 .125 3.462 2.459 2.459 0 0 1 -3.42.553z" fill="#0f0"/><path d="m9.038 13.439a2.462 2.462 0 0 1 -.125-3.462 2.456 2.456 0 0 1 3.42-.553 2.454 2.454 0 0 1 .125 3.462 2.459 2.459 0 0 1 -3.42.553z" fill="none"/><path d="m8.219 13.238a2.463 2.463 0 0 1 -.129-3.466 2.464 2.464 0 0 1 3.424-.553 2.459 2.459 0 0 1 .125 3.466 2.459 2.459 0 0 1 -3.42.553z"/><path d="m8.219 13.238a2.463 2.463 0 0 1 -.129-3.466 2.464 2.464 0 0 1 3.424-.553 2.459 2.459 0 0 1 .125 3.466 2.459 2.459 0 0 1 -3.42.553z" fill="none"/><path d="m10.08 15.942c-.475-.316-1.023-.62-1.553-.914a9.055 9.055 0 0 1 -3.227-2.442c-.146-.218-.3-.406-.44-.587-.521-.655-1.013-1.273-.2-2.281.184-.226.351-.458.512-.682a3.192 3.192 0 0 1 2.038-1.628.327.327 0 0 1 .094 0l.056.007c1.247.167 2.324.311 3.188 1.813a.327.327 0 0 1 .041.2c-.018.161-.02.369-.023.609-.011.935-.025 2.217-.973 2.95a.328.328 0 0 1 -.041.027l-1.646.913c.307.181.624.357.938.531.541.3 1.1.611 1.6.941zm-2.813-7.881c-.679.127-1.07.672-1.562 1.357-.167.232-.339.472-.536.713-.484.6-.311.816.2 1.462.146.183.311.39.471.631a5.564 5.564 0 0 0 1.716 1.492l-.146-.263 1.8-1a3.062 3.062 0 0 0 .7-2.426c0-.2 0-.394.017-.563-.691-1.14-1.479-1.245-2.656-1.4z" fill="#00f"/><path d="m7.587 12.3a1.6 1.6 0 1 1 1.633-1.6 1.617 1.617 0 0 1 -1.633 1.6z" fill="#f36"/><path d="m7.587 12.3a1.6 1.6 0 1 1 1.633-1.6 1.617 1.617 0 0 1 -1.633 1.6z" fill="none"/><path d="m8.314 11.606a.806.806 0 1 1 .1-1.125.8.8 0 0 1 -.1 1.125z" fill="#00f"/><path d="m8.314 11.606a.806.806 0 1 1 .1-1.125.8.8 0 0 1 -.1 1.125z" fill="none"/><path d="m10.22 16.048a8.671 8.671 0 0 0 -2.131-.9 5.106 5.106 0 0 1 -2.861-1.641c-.1-.145-.2-.295-.315-.453a7.6 7.6 0 0 1 -.938-1.581 1.7 1.7 0 0 1 .186-1.754 3.887 3.887 0 0 1 3.2-2.175h.042a5.854 5.854 0 0 1 1.875.538 2.26 2.26 0 0 1 1.227 1.318.327.327 0 0 1 .013.132c-.015.138-.022.3-.03.464a3.236 3.236 0 0 1 -1.067 2.671l-1.714 1.361-.407-.511 1.716-1.367a2.631 2.631 0 0 0 .816-2.185c.007-.151.013-.295.026-.431-.245-.662-1.178-1.158-2.515-1.334a3.315 3.315 0 0 0 -2.643 1.883.328.328 0 0 1 -.023.032c-.519.639-.01 1.465.765 2.562.115.163.224.316.325.468a4.6 4.6 0 0 0 2.523 1.382 9.147 9.147 0 0 1 2.292.978z" fill="#00f"/><path d="m11.11 16.185c-.11.193-.58.129-1.045-.14s-.758-.644-.648-.837.58-.129 1.049.14.757.644.644.837z" fill="#00f"/><path d="m11.11 16.185c-.11.193-.58.129-1.045-.14s-.758-.644-.648-.837.58-.129 1.049.14.757.644.644.837z" fill="none"/><path d="m24.788 17.89a4.471 4.471 0 0 1 1.322 6.159 4.472 4.472 0 0 1 -6.273.6 4.471 4.471 0 0 1 -1.322-6.159 4.468 4.468 0 0 1 6.273-.6z"/><path d="m22.808 25.71a5.113 5.113 0 0 1 -3.008-1.01 4.541 4.541 0 0 1 -1.336-6.25 4.009 4.009 0 0 1 2.909-1.6 5.194 5.194 0 0 1 5.44 3.985 3.935 3.935 0 0 1 -3.557 4.857q-.225.018-.448.018zm-.989-8.754q-.218 0-.435.021a3.88 3.88 0 0 0 -2.816 1.55 4.411 4.411 0 0 0 1.308 6.073 4.994 4.994 0 0 0 2.935.982 3.957 3.957 0 0 0 3.247-1.566 3.873 3.873 0 0 0 .626-3.151 4.92 4.92 0 0 0 -1.934-2.917 4.972 4.972 0 0 0 -2.931-.992z"/><path d="m16.091 21.337c-2.424 0-4.386-1.568-4.386-3.508s1.962-3.508 4.386-3.508 4.386 1.572 4.386 3.508-1.962 3.508-4.386 3.508z" fill="#ff0"/><path d="m16.091 21.468a5.1 5.1 0 0 1 -3.184-1.055 3.3 3.3 0 0 1 -1.333-2.583c0-2.006 2.026-3.638 4.517-3.638s4.517 1.632 4.517 3.638a3.3 3.3 0 0 1 -1.333 2.583 5.1 5.1 0 0 1 -3.184 1.055zm0-7.015c-2.347 0-4.256 1.515-4.256 3.377s1.909 3.377 4.256 3.377 4.256-1.515 4.256-3.377-1.91-3.378-4.256-3.378z"/><path d="m13.083 17.788a1.754 1.754 0 1 1 1.758-1.754 1.755 1.755 0 0 1 -1.758 1.754z" fill="#fff"/><path d="m13.083 17.94a1.906 1.906 0 1 1 1.91-1.906 1.909 1.909 0 0 1 -1.91 1.906zm0-3.508a1.6 1.6 0 1 0 1.6 1.6 1.6 1.6 0 0 0 -1.6-1.599z"/><path d="m26.845 16.25c-2.591 1.9-6.061 1.568-7.746-.735s-.955-5.708 1.636-7.61 6.061-1.568 7.746.735.955 5.712-1.636 7.61z"/><path d="m23.175 17.592q-.277 0-.553-.026a4.885 4.885 0 0 1 -4.417-6.03 6.449 6.449 0 0 1 6.753-4.948 4.886 4.886 0 0 1 4.417 6.032 6.273 6.273 0 0 1 -2.465 3.716 6.337 6.337 0 0 1 -3.735 1.256zm1.225-10.812a6.119 6.119 0 0 0 -3.6 1.213c-2.539 1.863-3.263 5.209-1.613 7.458a4.756 4.756 0 0 0 3.456 1.9 6.053 6.053 0 0 0 4.138-1.187c2.539-1.86 3.263-5.205 1.613-7.458a4.756 4.756 0 0 0 -3.456-1.9q-.266-.026-.538-.026z"/><path d="m27.417 14.776a2.447 2.447 0 0 1 -3.4-.553 2.446 2.446 0 0 1 .121-3.443 2.444 2.444 0 0 1 3.4.553 2.446 2.446 0 0 1 -.121 3.443z" fill="#0f0"/><path d="m27.417 14.776a2.447 2.447 0 0 1 -3.4-.553 2.446 2.446 0 0 1 .121-3.443 2.444 2.444 0 0 1 3.4.553 2.446 2.446 0 0 1 -.121 3.443z" fill="none"/><path d="m26.606 14.776a2.447 2.447 0 0 1 -3.4-.553 2.441 2.441 0 0 1 .121-3.439 2.446 2.446 0 0 1 3.4.549 2.449 2.449 0 0 1 -.121 3.443z"/><path d="m26.606 14.776a2.447 2.447 0 0 1 -3.4-.553 2.441 2.441 0 0 1 .121-3.439 2.446 2.446 0 0 1 3.4.549 2.449 2.449 0 0 1 -.121 3.443z" fill="none"/><path d="m21.985 15.774a1.5 1.5 0 0 1 -1.2-.724 4.2 4.2 0 0 1 -.894-1.855 2.615 2.615 0 0 1 .365-1.963l.162-.243a4.438 4.438 0 0 1 1.836-1.819l.387-.257a5.009 5.009 0 0 1 3.928-.648 2.241 2.241 0 0 1 1.431 1.509l-.624.193a1.57 1.57 0 0 0 -1.027-1.086 4.414 4.414 0 0 0 -3.349.576l-.389.258-.092.061 1.02.7.014.01a7.112 7.112 0 0 1 1.547 1.566 2.374 2.374 0 0 1 .451 2.074c-.36 1.167-.878 1.235-2.13 1.4h-.011a7.427 7.427 0 0 0 -.733.141 3.163 3.163 0 0 1 -.692.107zm.1-5.7a3.56 3.56 0 0 0 -1.127 1.278l-.163.244a2.665 2.665 0 0 0 .493 3.045c.463.573.613.539 1.242.393a8.082 8.082 0 0 1 .794-.152h.011c1.2-.158 1.354-.179 1.591-.945.337-1.093-.957-2.3-1.763-2.92l-1.171-.817z" fill="#00f"/><path d="m22.519 14.394a1.459 1.459 0 1 1 1.432-1.458 1.445 1.445 0 0 1 -1.432 1.458z" fill="#f36"/><path d="m22.519 14.394a1.459 1.459 0 1 1 1.432-1.458 1.445 1.445 0 0 1 -1.432 1.458z" fill="none"/><path d="m23.023 13.772a.8.8 0 1 1 .095-1.121.8.8 0 0 1 -.095 1.121z" fill="#00f"/><path d="m23.023 13.772a.8.8 0 1 1 .095-1.121.8.8 0 0 1 -.095 1.121z" fill="none"/><path d="m22.18 15.995a1.909 1.909 0 0 1 -1.6-.85 5.476 5.476 0 0 1 -1.012-2.093 2.876 2.876 0 0 1 .24-2.23l.243-.366a4.393 4.393 0 0 1 1.842-1.775l.271-.18a4.776 4.776 0 0 1 1.957-.615 5.53 5.53 0 0 1 2.437.208 2.5 2.5 0 0 1 1.652 1.612l-.624.193a1.846 1.846 0 0 0 -1.25-1.19 5.153 5.153 0 0 0 -3.813.334l-.272.181a3.878 3.878 0 0 0 -1.659 1.591l-.244.369c-.57.854-.07 2.555.736 3.548.58.717.939.665 1.9.525.125-.018.253-.037.393-.055l.293-.037c.987-.124 1.192-.15 1.408-.842a2.972 2.972 0 0 0 -.753-3.138l-2.27-.949.252-.6 2.311.966a.326.326 0 0 1 .074.043 3.072 3.072 0 0 1 1.1 1.8 4.109 4.109 0 0 1 -.092 2.078c-.341 1.094-.912 1.166-1.95 1.3l-.289.037c-.135.018-.261.036-.384.054a6.351 6.351 0 0 1 -.897.081z" fill="#00f"/><path d="m18.89 17.788a1.754 1.754 0 1 1 1.754-1.754 1.758 1.758 0 0 1 -1.754 1.754z" fill="#fff"/><path d="m18.89 17.94a1.906 1.906 0 1 1 1.91-1.906 1.91 1.91 0 0 1 -1.91 1.906zm0-3.508a1.6 1.6 0 1 0 1.6 1.6 1.6 1.6 0 0 0 -1.6-1.599z"/><path d="m13.136 16.905a.879.879 0 1 1 .875-.879.879.879 0 0 1 -.875.879z"/><path d="m13.136 16.905a.879.879 0 1 1 .875-.879.879.879 0 0 1 -.875.879z" fill="none"/><path d="m18.955 16.807a.875.875 0 1 1 .875-.875.876.876 0 0 1 -.875.875z"/><path d="m18.955 16.807a.875.875 0 1 1 .875-.875.876.876 0 0 1 -.875.875z" fill="none"/><path d="m16.518 20.245a2.893 2.893 0 0 1 -1.429-.409 1.164 1.164 0 0 1 -.689-1.1l.388.056c-.049.336.336.61.5.712a1.958 1.958 0 0 0 1.831.2.605.605 0 0 0 .174-.689.2.2 0 0 1 0-.043v-.1h.392v.081a.96.96 0 0 1 -.332 1.071 1.423 1.423 0 0 1 -.835.221z" fill="#f36"/><path d="m15.393 14.3a7.155 7.155 0 0 1 .027-1.053 3.464 3.464 0 0 0 -.171-1.812v-.008l-.25-.6-.212.357.155.03-.059.3-.367-.072a.153.153 0 0 1 -.1-.228l.477-.8a.153.153 0 0 1 .272.019l.366.871a3.747 3.747 0 0 1 .2 1.965 6.826 6.826 0 0 0 -.031 1.011z"/><path d="m16.766 14.3-.3-.023a6.77 6.77 0 0 0 -.028-1.01 3.73 3.73 0 0 1 .2-1.963l.362-.867a.153.153 0 0 1 .272-.019l.477.8a.153.153 0 0 1 -.1.228l-.367.072-.059-.3.155-.03-.212-.357-.25.6v.008a3.446 3.446 0 0 0 -.168 1.808 7.1 7.1 0 0 1 .018 1.053z"/><path d="m7.818 23.712a2.591 2.591 0 0 1 -.076-3.636 2.59 2.59 0 0 1 3.583-.633 2.584 2.584 0 0 1 .072 3.633 2.583 2.583 0 0 1 -3.579.636z" fill="#f36"/><path d="m7.818 23.712a2.591 2.591 0 0 1 -.076-3.636 2.59 2.59 0 0 1 3.583-.633 2.584 2.584 0 0 1 .072 3.633 2.583 2.583 0 0 1 -3.579.636z" fill="none"/><path d="m15.691 23.605-.621-1.03a.131.131 0 0 1 -.019-.068v-1.132h.262v1.1l.6 1z"/><path d="m17.074 23.609-.621-1.03a.131.131 0 0 1 -.019-.068v-1.136h.266v1.1l.6 1z"/><path d="m9 22.367c-.455-.371-.383-1.212.163-1.875s1.352-.9 1.811-.527.379 1.212-.163 1.879-1.357.898-1.811.523z" fill="#00f"/><path d="m9 22.367c-.455-.371-.383-1.212.163-1.875s1.352-.9 1.811-.527.379 1.212-.163 1.879-1.357.898-1.811.523z" fill="none"/><path d="m24.314 23.716a2.588 2.588 0 0 1 -3.583-.636 2.587 2.587 0 0 1 .076-3.633 2.59 2.59 0 0 1 3.583.633 2.591 2.591 0 0 1 -.076 3.636z" fill="#f36"/><path d="m24.314 23.716a2.588 2.588 0 0 1 -3.583-.636 2.587 2.587 0 0 1 .076-3.633 2.59 2.59 0 0 1 3.583.633 2.591 2.591 0 0 1 -.076 3.636z" fill="none"/><path d="m23 22.473c-.455.371-1.265.136-1.807-.523s-.617-1.5-.159-1.875 1.261-.14 1.807.523.61 1.502.159 1.875z" fill="#00f"/><path d="m23 22.473c-.455.371-1.265.136-1.807-.523s-.617-1.5-.159-1.875 1.261-.14 1.807.523.61 1.502.159 1.875z" fill="none"/><path d="m28.322 10.53c-.231.159-.731-.163-1.121-.724s-.523-1.14-.3-1.3.731.163 1.121.723.527 1.142.3 1.301z" fill="#00f"/><path d="m28.322 10.53c-.231.159-.731-.163-1.121-.724s-.523-1.14-.3-1.3.731.163 1.121.723.527 1.142.3 1.301z" fill="none"/><path d="m20.523 16.922h.174v.14h-.174z"/><path d="m20.712 17.077h-.2v-.17h.2zm-.174-.03h.144v-.11h-.144z"/></svg>