<svg xmlns="http://www.w3.org/2000/svg" viewBox="0 0 32 32"><title>file_type_cspell</title><path d="M2 20.87H30V27C30 27.7956 29.6839 28.5587 29.1213 29.1213C28.5587 29.6839 27.7956 30 27 30H5C4.20435 30 3.44129 29.6839 2.87868 29.1213C2.31607 28.5587 2 27.7956 2 27V20.87Z" fill="#B4301C"/><path d="M2 18.94H30V20.94H2V18.94Z" fill="black"/><path d="M10.7 2H12.88V30H10.7V2Z" fill="black"/><path d="M12.88 2H27C27.7956 2 28.5587 2.31607 29.1213 2.87868C29.6839 3.44129 30 4.20435 30 5V19H12.88V2Z" fill="#F6F200"/><path d="M5 2H10.67V19H2V5C2 4.20435 2.31607 3.44129 2.87868 2.87868C3.44129 2.31607 4.20435 2 5 2V2Z" fill="#D2D2D2"/></svg>