<svg viewBox="0 0 128 128" xmlns="http://www.w3.org/2000/svg"><path d="m9.4 0h109.23a15.4 15.4 0 0 1 9.37 9.34v109.31a14.49 14.49 0 0 1 -9.35 9.35h-109.3a15.4 15.4 0 0 1 -9.35-9.36v-109.22a16.094 16.094 0 0 1 9.4-9.42m.96 8.45c-2.06 1.02-2.48 3.4-2.37 5.48.03 33.72-.02 67.43.03 101.15a4.33 4.33 0 0 0 4.91 4.92c34.37-.03 68.74.05 103.1-.04 2.64.21 4.36-2.49 3.97-4.89-.03-34.37.06-68.73-.04-103.1.15-2.59-2.55-4.17-4.88-3.94-33.37-.08-66.74.02-100.12-.05a15.167 15.167 0 0 0 -4.6.47z" fill="#755838"/><path d="m80 16c5.33-.01 10.66 0 16 0 .01 8-.01 16 0 24 5.82.04 11.64-.08 17.46.06-8.18 8.8-16.89 17.12-25.41 25.6-8.52-8.48-17.21-16.82-25.42-25.6 5.79-.13 11.58-.02 17.37-.06.01-8-.01-16 0-24z" fill="#755838"/><path d="m16.04 24.9c-.38-3.11 3.26-6.14 6.03-4.08 4.97 4.12 9.09 9.19 13.93 13.48 4.63-4.16 8.68-8.91 13.34-13.03 2.26-2.39 6.63-.56 6.58 2.69.19 13.34.02 26.7.08 40.04h-8c-.04-10.05.07-20.09-.05-30.14-3.37 2.99-6.25 6.49-9.69 9.4a3.84 3.84 0 0 1 -5.07-.47c-3.18-2.83-5.96-6.08-9.13-8.93-.14 10.05-.02 20.09-.06 30.14h-8c.03-13.03-.06-26.07.04-39.1z" fill="#755838"/><g fill="#c1272d"><path d="m16 72h8c.01 10.67-.01 21.33 0 32 2.67-.01 5.33.01 8 0v8h-16z"/><path d="m40 72h8v8h-8z"/><path d="m96 76h8c-.02 4 .02 8 0 11.99 2.66 0 5.33.02 8 .01v7.99c-2.67 0-5.33.02-8 .02-.01 5.33 0 10.66 0 15.99h-8v-15.99c-2.67 0-5.33-.02-8-.02v-7.99c2.67.01 5.33-.01 8-.01-.02-3.99.02-7.99 0-11.99z"/><path d="m40 88h8v24h-8z"/><path d="m56 88h24v24h-8v-16h-8v16h-8z"/></g></svg>