<svg viewBox="0 0 32 32" xmlns="http://www.w3.org/2000/svg" xmlns:xlink="http://www.w3.org/1999/xlink"><radialGradient id="a" cx="671.86" cy="-14.544" gradientTransform="matrix(0 -.24 -1.055 0 .793 187.085)" gradientUnits="userSpaceOnUse" r="3.927"><stop offset="0" stop-color="#b8b8b8" stop-opacity=".498"/><stop offset="1" stop-color="#7f7f7f" stop-opacity="0"/></radialGradient><linearGradient id="b" gradientTransform="matrix(.623 0 0 -.629 32.079 44.592)" gradientUnits="userSpaceOnUse" x1="-38.426" x2="-23.684" y1="58.045" y2="45.361"><stop offset="0" stop-color="#5a9fd4"/><stop offset="1" stop-color="#306998"/></linearGradient><linearGradient id="c" gradientTransform="matrix(.623 0 0 -.629 32.079 44.592)" gradientUnits="userSpaceOnUse" x1="-17.985" x2="-23.249" y1="37.685" y2="45.133"><stop offset="0" stop-color="#ffd43b"/><stop offset="1" stop-color="#ffe873"/></linearGradient><path d="m20.991 25.874c0 .52-2.175.942-4.858.942s-4.859-.422-4.859-.942c0-.52 2.175-.942 4.858-.942s4.859.422 4.859.942z" fill="url(#a)" opacity=".44382"/><path d="m16.549 2.74a14.888 14.888 0 0 0 -10.7 3.879 11.874 11.874 0 0 0 -3.849 8.975 13.2 13.2 0 0 0 3.562 9.44q3.932 4.22 10.915 4.226 7.053 0 11.055-4.226a12.926 12.926 0 0 0 1.826-2.388h-5.435q-2.111 3.914-7.34 3.947a7.6 7.6 0 0 1 -7.011-3.685 13.582 13.582 0 0 1 -1.826-7.315q0-9.551 8.73-9.96 4.725.174 6.981 3.347a8.984 8.984 0 0 1 .756 1.251h5.787a12.38 12.38 0 0 0 -2.683-3.613 15.152 15.152 0 0 0 -10.768-3.878z" fill="#646464"/><path d="m16.763 7.579a11.473 11.473 0 0 0 -1.92.164c-1.7.3-2.009.929-2.009 2.089v1.531h4.018v.51h-5.526a2.509 2.509 0 0 0 -2.51 2.037 7.51 7.51 0 0 0 0 4.083c.286 1.189.968 2.037 2.135 2.037h1.381v-1.83a2.553 2.553 0 0 1 2.51-2.5h4.013a2.024 2.024 0 0 0 2.009-2.042v-3.826a2.243 2.243 0 0 0 -2.009-2.089 12.532 12.532 0 0 0 -2.092-.164zm-2.173 1.232a.766.766 0 1 1 -.754.768.762.762 0 0 1 .754-.768z" fill="url(#b)"/><path d="m21.366 11.874v1.784a2.577 2.577 0 0 1 -2.51 2.547h-4.013a2.05 2.05 0 0 0 -2.009 2.042v3.826c0 1.089.947 1.729 2.009 2.042a6.722 6.722 0 0 0 4.013 0c1.012-.293 2.009-.882 2.009-2.042v-1.532h-4.013v-.51h6.022c1.168 0 1.6-.814 2.009-2.037a6.9 6.9 0 0 0 0-4.083c-.289-1.162-.84-2.037-2.009-2.037zm-2.257 9.689a.766.766 0 1 1 -.754.763.758.758 0 0 1 .754-.764z" fill="url(#c)"/></svg>