<svg xmlns="http://www.w3.org/2000/svg" viewBox="0 0 32 32"><title>file_type_wikitext</title><path d="M3.672,8.553a.842.842,0,0,1,.179.025A2.583,2.583,0,0,1,5.845,9.913a11.311,11.311,0,0,1,.537,1.074q2.244,5.284,4.474,10.572.559,1.321,1.116,2.644a.347.347,0,0,0,.313.248.371.371,0,0,0,.376-.2c.028-.049.054-.1.08-.149l3.528-6.618c.026-.048.053-.1.09-.161.032.064.056.108.077.153l1.681,3.622L19.557,24.2a.379.379,0,0,0,.374.255c.179,0,.259-.107.327-.264q2.852-6.634,5.713-13.262a11.5,11.5,0,0,1,.679-1.311,2.121,2.121,0,0,1,1.717-1.058.405.405,0,0,0,.34-.5c-.022-.111-.075-.173-.2-.166-.336.02-.673.022-1.007.054A11.77,11.77,0,0,1,25.46,8c-.57-.045-1.141-.073-1.713-.1-.164-.008-.227.057-.241.226a1.677,1.677,0,0,0,0,.217c.006.142.073.2.216.217a3.7,3.7,0,0,1,.8.186.956.956,0,0,1,.618.893,2.8,2.8,0,0,1-.264,1.276L20.671,20.995c-.023.055-.05.108-.084.181-.027-.048-.046-.077-.06-.107Q19.114,18.1,17.7,15.141a.227.227,0,0,1,.01-.229c.454-.858.9-1.721,1.355-2.577.418-.776.835-1.556,1.287-2.313a4.415,4.415,0,0,1,.739-.913,2.382,2.382,0,0,1,1.44-.559.268.268,0,0,0,.282-.293,1.146,1.146,0,0,0,0-.2c-.011-.106-.06-.168-.177-.161-.356.02-.712.024-1.067.053a13.048,13.048,0,0,1-2.1.053c-.575-.047-1.152-.068-1.728-.107a.223.223,0,0,0-.25.174.889.889,0,0,0-.03.273c0,.14.07.2.217.215a3.27,3.27,0,0,1,.663.121.991.991,0,0,1,.745,1.162,2.82,2.82,0,0,1-.351,1.016q-.751,1.45-1.506,2.9c-.027.052-.056.1-.09.167-.027-.049-.049-.083-.066-.12-.524-1.094-1.051-2.186-1.568-3.283a5.413,5.413,0,0,1-.307-.807.689.689,0,0,1,.431-.937,4.243,4.243,0,0,1,.813-.207c.329-.062.352-.08.326-.432a.138.138,0,0,0,0-.031c-.016-.136-.073-.217-.223-.21-.561.031-1.123.049-1.684.086a15.288,15.288,0,0,1-2.421-.007c-.48-.044-.962-.056-1.443-.075a.213.213,0,0,0-.164.072.385.385,0,0,0-.028.366.374.374,0,0,0,.116.147.359.359,0,0,0,.171.069A1.967,1.967,0,0,1,12.72,9.607c.138.258.3.5.422.769q1.335,2.856,2.662,5.716a.284.284,0,0,1-.005.285q-1.237,2.4-2.468,4.795l-.117.225c-.03-.065-.053-.11-.073-.155L8.722,10.95a7.978,7.978,0,0,1-.311-.805,1.069,1.069,0,0,1,.422-1.236,2.131,2.131,0,0,1,1-.352c.231-.031.252-.051.259-.3a1.113,1.113,0,0,0-.014-.186.186.186,0,0,0-.217-.181c-.642.031-1.284.049-1.925.086a19.381,19.381,0,0,1-2.693-.006c-.56-.045-1.122-.058-1.684-.074a.232.232,0,0,0-.183.115C3.268,8.311,3.424,8.572,3.672,8.553Z"/><path d="M2,2V30H30V2ZM29.153,29.126H2.847V2.874H29.153Z"/></svg>