<svg viewBox="0 0 32 32" xmlns="http://www.w3.org/2000/svg"><path d="m15.842 2h.021c1.378 3.321 2.7 6.664 4.073 9.986 3.356.113 6.709.3 10.065.407v.6q-3.759 3.209-7.556 6.373c1.014 3.45 1.956 6.92 2.94 10.378-3.062-1.893-6.112-3.8-9.176-5.694-2.96 1.994-5.939 3.961-8.9 5.949h-.07c.869-3.475 1.746-6.951 2.583-10.434q-3.915-3.088-7.822-6.187v-.531c3.374-.287 6.756-.456 10.129-.741 1.231-3.371 2.506-6.726 3.713-10.106m-3.083 10.93c-3.046.179-6.086.462-9.132.648 2.394 1.876 4.76 3.787 7.165 5.646-.69 2.96-1.481 5.9-2.192 8.852.3-.172.6-.347.882-.543q3.347-2.26 6.72-4.483c2.272 1.376 4.509 2.8 6.777 4.186l.973.6q-1.231-4.383-2.489-8.756c2.327-1.973 4.672-3.927 7-5.9-3.039-.125-6.079-.214-9.118-.353-1.13-2.836-2.285-5.66-3.434-8.488-1.063 2.861-2.143 5.714-3.152 8.591z" fill="#ff1f29"/><g fill="none"><path d="m15.409 14.856c.539-.384 1.27-.554 1.639-1.137-.871.487-1.779.916-2.607 1.48.366.167.659-.204.968-.343z"/><path d="m16.781 15.734a4 4 0 0 1 .406.178c.259.315.132.764.321 1.11s.382.651.566.98c.336-.19.666-.388 1-.585-.657-1.134-1.316-2.267-1.963-3.406-.316.207-.634.412-.958.609a10.036 10.036 0 0 0 .628 1.114z"/><path d="m11.834 13.771a.946.946 0 0 0 -.864.955 5.438 5.438 0 0 0 .434 1.949c.809-.477 1.628-.935 2.432-1.424a3.536 3.536 0 0 0 -2.002-1.48z"/><path d="m16.83 13.535a4.074 4.074 0 0 0 -1.814-1.469.827.827 0 0 0 -1.016.717 4.537 4.537 0 0 0 .351 2.145c.849-.428 1.656-.928 2.479-1.393z"/><path d="m15.019 22.474c-.406-.223-.115.455 0 0z"/><path d="m17.016 16.092c-.2-.062-.367.116-.545.167a1.5 1.5 0 0 0 .49.665c-.035-.139-.106-.417-.143-.557.157.13.315.259.479.381a1.032 1.032 0 0 0 -.281-.656z"/><path d="m18.576 21.373a.857.857 0 0 0 -.375.431 23.833 23.833 0 0 0 2.636-1.537.778.778 0 0 0 -.566.115c-.571.326-1.127.666-1.695.991z"/><path d="m20.6 20.7c-.158.119-.319.238-.475.361l.287.155a2.127 2.127 0 0 0 -.049 1.191c-.377-.287-.756-.568-1.12-.871l-.4.286a4.187 4.187 0 0 0 1.285 1.267c.379.218.713.505 1.074.752-.032-.472-.1-.939-.167-1.406l.294.314c-.222-.687-.451-1.376-.729-2.049z"/><path d="m20.353 19.636-.5.293a2.985 2.985 0 0 0 .433-.585c-.2.077-.392.16-.585.246l.461-.517-.7.14c.16-.094.319-.185.48-.274-.277-.47-.536-.953-.818-1.421-.328.2-.658.388-.987.58.417.749.889 1.471 1.25 2.25l-.3.153c-.489-.7-.858-1.477-1.316-2.2l-.413.293.056-.28.323-.077c-.252-.413-.473-.841-.738-1.245a.978.978 0 0 1 -.559-.305c-.221-.218-.1-.531-.063-.794-.179-.326-.367-.65-.549-.974l-.336.045c-.287.168-.581.326-.874.484.316.178.722.27.909.615.3.514.752 1.068.491 1.694.214.365.428.729.647 1.092l.434-.374.223.172q-.321.124-.636.26c.27.47.547.938.825 1.4.193-.088.385-.176.578-.263-.186.181-.371.363-.546.556l.692-.228a1.549 1.549 0 0 0 -.489.55c.22-.071.438-.146.657-.224-.162.122-.325.242-.489.363l.227.423c.826-.465 1.628-.973 2.457-1.435-.082-.135-.163-.275-.245-.413z"/><path d="m14.347 16.539a5.338 5.338 0 0 0 .741 1.2c.385.258.739-.111.848-.465a10.531 10.531 0 0 0 -.773-1.292c-.347-.398-1.045.106-.816.557z"/></g><path d="m26.731 13.768c-2.612-.085-5.222-.23-7.836-.266-1.011-2.416-1.954-4.859-2.979-7.27-.871 2.461-1.788 4.906-2.7 7.35l-1.45.035s-.956.118-1.232.13c-1.688.157-3.381.26-5.072.379 1.975 1.683 4.082 3.206 6.086 4.858q-.9 3.814-1.863 7.61c1.763-1.173 3.514-2.362 5.289-3.514l.088-.305c.137-.127.274-.255.41-.384l-.451.081c-.115.455-.406-.223 0 0l.231-.372c-.245.091-.489.182-.735.267.19-.2.395-.381.6-.567-.213.074-.423.151-.631.23-.265-.466-.511-.941-.783-1.4.228-.1.456-.2.687-.29-.07-.06-.139-.119-.21-.176-.167.139-.339.273-.512.4-.654-1.123-1.319-2.239-1.946-3.377.111-.1.225-.2.333-.305-.2.024-.4.074-.6.106a16.391 16.391 0 0 1 2.618-1.56c-.024.056-.074.168-.1.224-.524.416-1.166.654-1.705 1.051 0 .025-.013.077-.018.1.2.017.358-.136.521-.23.188.374.392.739.6 1.1a3.43 3.43 0 0 0 -.038.655l.395.118c-.08-.178-.153-.358-.22-.539.228-.035.542-.224.616.118l.332.146a1.031 1.031 0 0 0 -.746-.741c-.207-.364-.416-.728-.634-1.085a12.138 12.138 0 0 1 1.134-.615c-.049.322-.234.68-.042.993.323.539.557 1.3 1.295 1.355.206.342.4.692.6 1.035-.112.077-.336.23-.447.307.2.052.368-.08.536-.167.258.452.531.9.769 1.359-.153.132-.305.263-.456.4q.355-.128.713-.241c-.16.2-.34.381-.515.567.232-.092.466-.182.706-.26a6.741 6.741 0 0 1 -.573.61c.2-.1.4-.2.595-.307.069.146.136.293.206.438a3.928 3.928 0 0 0 -1.088.708 9.459 9.459 0 0 0 1.242-.669c.07.5-.638.531-.942.77.069.041.2.122.272.161.175-.09.353-.176.533-.258q.155.389.3.78c1.641 1.026 3.275 2.065 4.935 3.058-.753-2.509-1.4-5.047-2.136-7.563 2.034-1.638 4.019-3.346 6.018-5.038zm-7.659 3.648c-.332.2-.662.395-1 .585-.183-.329-.388-.648-.566-.98s-.062-.8-.321-1.11a4 4 0 0 0 -.406-.178 10.036 10.036 0 0 1 -.63-1.114c.323-.2.641-.4.958-.609.649 1.14 1.308 2.273 1.965 3.407zm-2.11-.493a1.5 1.5 0 0 1 -.49-.665c.178-.05.349-.228.545-.167a1.032 1.032 0 0 1 .281.655c-.164-.122-.322-.251-.479-.381.036.142.108.42.143.559zm-1.553-2.068c-.307.139-.6.51-.967.343.827-.564 1.736-.993 2.607-1.48-.37.582-1.101.755-1.64 1.138zm-4.009 1.82a5.438 5.438 0 0 1 -.434-1.949.946.946 0 0 1 .864-.955 3.536 3.536 0 0 1 2 1.48c-.798.489-1.617.949-2.43 1.424zm2.6-3.892a.827.827 0 0 1 1.012-.717 4.074 4.074 0 0 1 1.814 1.469c-.823.468-1.631.965-2.475 1.393a4.537 4.537 0 0 1 -.351-2.145zm1.084 4.955a5.338 5.338 0 0 1 -.741-1.2c-.228-.451.469-.955.816-.559a10.531 10.531 0 0 1 .773 1.292c-.106.356-.46.724-.845.466zm2.827 3.328c.164-.12.326-.241.489-.363-.218.078-.437.153-.657.224a1.549 1.549 0 0 1 .489-.55l-.692.228c.175-.193.36-.375.546-.556-.193.087-.385.175-.578.263-.277-.466-.554-.934-.825-1.4q.315-.137.636-.26l-.223-.172-.434.374c-.218-.363-.433-.727-.647-1.092.26-.626-.19-1.18-.491-1.694-.186-.344-.592-.437-.909-.615.293-.158.587-.316.874-.484l.336-.045c.182.325.37.648.549.974-.035.263-.158.575.063.794a.978.978 0 0 0 .559.305c.265.4.486.832.738 1.245l-.323.077-.056.28.413-.293c.458.721.827 1.5 1.316 2.2l.3-.153c-.361-.778-.833-1.5-1.25-2.25.329-.192.659-.384.987-.58.281.468.54.951.818 1.421-.161.09-.321.181-.48.274l.7-.14-.461.517c.193-.087.388-.169.585-.246a2.985 2.985 0 0 1 -.433.585l.5-.293c.083.139.164.279.245.417-.829.462-1.631.97-2.457 1.435zm3.289 2.778c-.361-.246-.694-.533-1.074-.752a4.187 4.187 0 0 1 -1.285-1.267l.4-.286c.364.3.743.584 1.12.871a2.127 2.127 0 0 1 .049-1.191l-.287-.155c.155-.123.316-.242.475-.361.276.671.505 1.359.725 2.05l-.294-.314c.071.461.138.933.171 1.405zm-.363-3.577a23.833 23.833 0 0 1 -2.637 1.533.857.857 0 0 1 .375-.431c.568-.325 1.128-.665 1.7-.991a.778.778 0 0 1 .562-.111z" fill="#ff1f29"/><path d="m15.922 13.521c.182.085.181.179 0 .281-.187-.088-.185-.182 0-.281z" fill="#ff1f29"/><path d="m15.331 13.844c.227-.081.309-.01.248.217q-.343.124-.248-.217z" fill="#ff1f29"/><path d="m13.257 15.031q.336-.1.224.244-.336.101-.224-.244z" fill="#ff1f29"/><path d="m12.818 15.283q.342-.111.235.23c-.228.073-.307-.003-.235-.23z" fill="#ff1f29"/><path d="m12.354 15.574c.2-.059.263.008.2.2-.2.062-.265-.005-.2-.2z" fill="#ff1f29"/><path d="m11.846 15.836q.34-.111.238.231c-.227.073-.305-.004-.238-.231z" fill="#ff1f29"/><path d="m14.671 16.367c.165-.179.307-.151.423.087a.216.216 0 0 1 -.423-.087z" fill="#ff1f29"/><path d="m14.2 18.3c.3.462.55.958.829 1.435l.462-.293c.01.038.028.115.038.153a2.874 2.874 0 0 0 -.547.559c.354-.14.444.287.694.431l-.172.238.347-.045c-.027.05-.078.154-.105.2a4.516 4.516 0 0 1 .577 1.063c-.02.183-.213.19-.344.251a5.344 5.344 0 0 0 -.6-.994.424.424 0 0 1 .074-.6l-.276.182q-.216-.42-.44-.837l-.365.213a2.512 2.512 0 0 1 .272-.358c-.235-.391-.435-.8-.678-1.186l-.447-.074c.224-.12.455-.227.68-.346" fill="#ff1f29"/><path d="m12.552 15.779c.066-.2 0-.263-.2-.2-.063.19.002.257.2.2z" fill="none"/><path d="m11.433 16.147c.006.469.426-.2 0 0z" fill="none"/><path d="m12.818 15.283c-.071.227.007.3.235.23.071-.227-.007-.304-.235-.23z" fill="none"/><path d="m15.85 20.778-.347.045.172-.238c-.251-.144-.34-.571-.694-.431a2.875 2.875 0 0 1 .547-.559c-.01-.038-.028-.115-.038-.153l-.462.293c-.279-.477-.525-.973-.829-1.435-.225.119-.456.225-.68.346.112.018.335.055.447.074.242.385.442.8.678 1.186a2.51 2.51 0 0 0 -.272.358l.365-.213q.223.418.44.837l.276-.182a.424.424 0 0 0 -.074.595 5.345 5.345 0 0 1 .6.994c.132-.06.325-.067.344-.251a4.515 4.515 0 0 0 -.577-1.063c.026-.049.078-.152.104-.203z" fill="none"/><path d="m11.846 15.836c-.067.227.011.3.238.231q.103-.342-.238-.231z" fill="none"/><path d="m13.481 15.275q.111-.347-.224-.244c-.074.23 0 .311.224.244z" fill="none"/><path d="m26.731 13.768c-2.612-.085-5.222-.23-7.836-.266-1.011-2.416-1.954-4.859-2.979-7.27-.871 2.461-1.788 4.906-2.7 7.35l-1.45.035s-.949.118-1.232.13c-1.688.157-3.381.26-5.072.379 1.975 1.683 4.082 3.206 6.086 4.858q-.9 3.814-1.863 7.61c1.763-1.173 3.514-2.362 5.289-3.514l.088-.305c.137-.127.274-.255.41-.384l-.451.081.231-.372c-.245.091-.489.182-.735.267.19-.2.395-.381.6-.567-.213.074-.423.151-.631.23-.265-.466-.511-.941-.783-1.4.228-.1.456-.2.687-.29-.07-.06-.139-.119-.21-.176-.167.139-.339.273-.512.4-.654-1.123-1.319-2.239-1.946-3.377.111-.1.225-.2.333-.305-.2.024-.4.074-.6.106a16.391 16.391 0 0 1 2.618-1.56c-.024.056-.074.168-.1.224-.524.416-1.166.654-1.705 1.051 0 .025-.013.077-.018.1.2.017.358-.136.521-.23.188.374.392.739.6 1.1a3.43 3.43 0 0 0 -.038.655l.395.118c-.08-.178-.153-.358-.22-.539.228-.035.542-.224.616.118l.332.146a1.031 1.031 0 0 0 -.746-.741c-.207-.364-.416-.728-.634-1.085a12.138 12.138 0 0 1 1.134-.615c-.049.322-.234.68-.042.993.323.539.557 1.3 1.295 1.355.206.342.4.692.6 1.035-.112.077-.336.23-.447.307.2.052.368-.08.536-.167.258.452.531.9.769 1.359-.153.132-.305.263-.456.4q.355-.128.713-.241c-.16.2-.34.381-.515.567.232-.092.466-.182.706-.26a6.741 6.741 0 0 1 -.573.61c.2-.1.4-.2.595-.307.069.146.136.293.206.438a3.928 3.928 0 0 0 -1.088.708 9.459 9.459 0 0 0 1.242-.669c.07.5-.638.531-.942.77.069.041.2.122.272.161.175-.09.353-.176.533-.258q.155.389.3.78c1.641 1.026 3.275 2.065 4.935 3.058-.753-2.509-1.4-5.047-2.136-7.563 2.034-1.638 4.019-3.346 6.018-5.038zm-15.331 2.907a5.438 5.438 0 0 1 -.434-1.949.946.946 0 0 1 .864-.955 3.536 3.536 0 0 1 2 1.48c-.798.489-1.617.949-2.43 1.424z" fill="none"/><path d="m28.459 13.18c-3.039-.125-6.079-.214-9.118-.353-1.13-2.836-2.285-5.66-3.434-8.488-1.058 2.86-2.138 5.713-3.147 8.59-3.046.179-6.086.462-9.132.648 2.394 1.876 4.76 3.787 7.165 5.646-.69 2.96-1.481 5.9-2.192 8.852.3-.172.6-.347.882-.543q3.347-2.26 6.72-4.483c2.272 1.376 7.435 4.595 7.75 4.789q-1.231-4.383-2.489-8.756c2.326-1.97 4.671-3.925 6.995-5.902zm-12.481 9.12a5.345 5.345 0 0 0 -.6-.994.424.424 0 0 1 .074-.595l-.276.182q-.216-.42-.44-.837l-.365.213a2.51 2.51 0 0 1 .272-.358c-.235-.391-.435-.8-.678-1.186-.112-.02-.335-.056-.447-.074.224-.12.455-.227.68-.346.3.462.55.958.829 1.435l.462-.293c.01.038.028.115.038.153a2.875 2.875 0 0 0 -.547.559c.354-.14.444.287.694.431l-.172.238.347-.045c-.027.05-.078.154-.105.2a4.515 4.515 0 0 1 .577 1.063c-.021.183-.212.19-.343.254zm6.87 4.082c-1.66-.993-3.294-2.031-4.935-3.058q-.147-.391-.3-.78c-.181.081-.358.168-.533.258-.069-.039-.2-.12-.272-.161.3-.239 1.012-.27.942-.77a9.459 9.459 0 0 1 -1.242.669 3.928 3.928 0 0 1 1.088-.708c-.07-.146-.137-.293-.206-.438-.2.1-.395.207-.595.307a6.741 6.741 0 0 0 .573-.61c-.239.078-.473.168-.706.26.175-.186.356-.368.515-.567q-.357.113-.713.241c.151-.134.3-.266.456-.4-.238-.463-.511-.907-.769-1.359-.168.087-.336.218-.536.167.111-.077.335-.23.447-.307-.2-.343-.4-.693-.6-1.035-.738-.05-.972-.816-1.295-1.355-.192-.312-.007-.671.042-.993a12.138 12.138 0 0 0 -1.134.615c.218.357.427.721.634 1.085a1.031 1.031 0 0 1 .746.741l-.332-.146c-.074-.342-.388-.153-.616-.118.067.181.14.361.22.539l-.395-.118a3.43 3.43 0 0 1 .038-.655c-.206-.364-.41-.729-.6-1.1-.162.094-.319.246-.521.23.006-.027.014-.078.018-.1.539-.4 1.182-.636 1.705-1.051.025-.056.076-.168.1-.224a16.391 16.391 0 0 0 -2.618 1.56c.2-.032.4-.083.6-.106-.108.105-.223.2-.333.305.627 1.138 1.292 2.254 1.946 3.377.174-.132.346-.266.512-.4.071.057.14.116.21.176-.231.092-.459.193-.687.29.272.462.518.937.783 1.4.209-.078.419-.155.631-.23-.2.186-.4.37-.6.567.246-.085.49-.176.735-.267l-.231.372.451-.081c-.136.129-.273.256-.41.384l-.088.305c-1.773 1.14-3.529 2.329-5.291 3.507q.962-3.8 1.863-7.61c-2-1.652-4.11-3.175-6.086-4.858 1.691-.119 3.384-.223 5.072-.379.283-.012 1.232-.13 1.232-.13l1.45-.035c.914-2.444 1.831-4.889 2.7-7.35 1.025 2.411 1.968 4.854 2.979 7.27 2.614.036 5.223.181 7.836.266-2 1.691-3.984 3.4-6.02 5.047.735 2.51 1.386 5.048 2.139 7.557z" fill="#fffdb9"/><path d="m11.834 13.771a.946.946 0 0 0 -.864.955 5.438 5.438 0 0 0 .434 1.949c.809-.477 1.628-.935 2.432-1.424a3.536 3.536 0 0 0 -2.002-1.48zm-.4 2.376c.426-.2.006.469 0 0zm.413-.311q.34-.111.238.231c-.228.073-.306-.004-.239-.231zm.706-.057c-.2.057-.263-.01-.2-.2.199-.063.265.004.199.2zm.266-.5c.228-.074.307 0 .235.23-.229.077-.308.001-.236-.226zm.664-.008c-.224.067-.3-.014-.224-.244q.334-.099.222.248z" fill="#fffdb9"/><path d="m14 12.783a.827.827 0 0 1 1.012-.717 4.074 4.074 0 0 1 1.814 1.469c-.823.468-1.631.965-2.475 1.393a4.537 4.537 0 0 1 -.351-2.145m1.917.738c-.185.1-.186.193 0 .281.183-.1.185-.2 0-.281m-.591.323q-.095.34.248.217c.062-.227-.021-.3-.248-.217m-.434.276c-.193.426.473-.008 0 0m-.428.253c-.207.422.473.013.004 0z" fill="#fffdb9"/><path d="m14.442 15.2c.827-.564 1.736-.993 2.607-1.48-.37.582-1.1.753-1.639 1.137-.31.138-.603.509-.968.343z" fill="#fffdb9"/><path d="m16.151 14.62c.323-.2.641-.4.958-.609.647 1.14 1.306 2.272 1.963 3.406-.332.2-.662.395-1 .585-.183-.329-.388-.648-.566-.98s-.062-.8-.321-1.11a4.007 4.007 0 0 0 -.406-.178 10.028 10.028 0 0 1 -.63-1.114" fill="#fffdb9"/><path d="m14.618 15.448c.293-.158.587-.316.874-.484l.336-.045c.182.325.37.648.549.974-.035.263-.158.575.063.794a.978.978 0 0 0 .559.305c.265.4.486.832.738 1.245l-.323.077-.056.28.413-.293c.458.721.827 1.5 1.316 2.2l.3-.153c-.361-.778-.833-1.5-1.25-2.25.329-.192.659-.384.987-.58.281.468.54.951.818 1.421-.161.09-.321.181-.48.274l.7-.14-.461.517c.193-.087.388-.169.585-.246a2.984 2.984 0 0 1 -.433.585l.5-.293c.083.139.164.279.245.417-.829.462-1.631.97-2.457 1.435l-.227-.423q.246-.181.489-.363-.328.118-.657.224a1.549 1.549 0 0 1 .489-.55l-.692.228c.175-.193.36-.375.546-.556-.193.087-.385.175-.578.263-.277-.466-.554-.934-.825-1.4q.315-.136.636-.26l-.223-.172-.434.374c-.218-.363-.433-.727-.647-1.092.26-.626-.19-1.18-.491-1.694-.186-.348-.592-.441-.909-.619z" fill="#fffdb9"/><path d="m14.347 16.539c-.228-.451.469-.955.816-.559a10.54 10.54 0 0 1 .773 1.292c-.109.354-.463.722-.848.465a5.338 5.338 0 0 1 -.741-1.2m.325-.172a.216.216 0 0 0 .423.087c-.117-.236-.258-.264-.424-.085z" fill="#fffdb9"/><path d="m16.472 16.259c.178-.05.349-.228.545-.167a1.033 1.033 0 0 1 .281.655c-.164-.122-.322-.251-.479-.381.036.14.108.419.143.557a1.5 1.5 0 0 1 -.49-.664z" fill="#fffdb9"/><path d="m20.271 20.382a.778.778 0 0 1 .566-.115 23.829 23.829 0 0 1 -2.637 1.533.857.857 0 0 1 .375-.431c.569-.321 1.125-.661 1.696-.987z" fill="#fffdb9"/><path d="m20.127 21.064c.155-.123.316-.242.475-.361.276.671.505 1.359.725 2.05l-.294-.314c.071.466.134.934.167 1.406-.361-.246-.694-.533-1.074-.752a4.186 4.186 0 0 1 -1.285-1.267l.4-.286c.364.3.743.584 1.12.871a2.127 2.127 0 0 1 .049-1.191z" fill="#fffdb9"/></svg>