<svg viewBox="0 0 32 32" xmlns="http://www.w3.org/2000/svg"><path d="m15.855 2-13.148 6.294 13.148 7.9 13.438-7.366z" fill="#afd4e5"/><path d="m15.856 30-13.149-9.322v-12.384l13.148 7.9z" fill="#69c"/><path d="m29.293 21.485-13.437 8.515-.001-13.806 13.438-7.366z" fill="#7da7d3"/><path d="m23.394 25.223-.353.224-.226-13.068.389-.213z" fill="#386a9d"/><path d="m11.631 6.95a9.7 9.7 0 0 1 6.239-1.642 9.087 9.087 0 0 1 1.75.408 10.335 10.335 0 0 1 3.644 2.244 3.394 3.394 0 0 1 .618.646c-.029.134-.188.178-.287.251-.608.325-1.2.676-1.818.988a6.321 6.321 0 0 1 -1.135.568 2.187 2.187 0 0 0 .146-1.43 3.251 3.251 0 0 0 -1.975-1.739 6.173 6.173 0 0 0 -3.9 0 3.681 3.681 0 0 0 -2.045 1.58 1.631 1.631 0 0 0 .306 1.97 5.126 5.126 0 0 0 3.1 1.009 7.716 7.716 0 0 0 1.662-.07.348.348 0 0 1 .327.081c-1.049.452-2.056 1-3.1 1.472a3.256 3.256 0 0 1 -1.562-.2 5.556 5.556 0 0 1 -3.242-2.2 2.572 2.572 0 0 1 -.274-2.224 3.388 3.388 0 0 1 1.546-1.712z" fill="#69c"/></svg>