<svg xmlns="http://www.w3.org/2000/svg" xmlns:xlink="http://www.w3.org/1999/xlink" viewBox="0 0 32 32"><title>file_type_ghidra</title><defs><linearGradient id="a" x1="-155.04" x2="25.14" y1="232.49" y2="122.49" gradientTransform="rotate(-.72 -95.15 47.05)scale(.18955)" gradientUnits="userSpaceOnUse"><stop offset="0" stop-color="#ce0e2d"/><stop offset=".53" stop-color="#ff9e18"/><stop offset=".99" stop-color="#f7be00"/></linearGradient><linearGradient xlink:href="#a" id="d" x1="-166.11" x2="7.81" y1="235.52" y2="129.33"/><linearGradient xlink:href="#a" id="f" x1="-172.52" x2="1.41" y1="242.02" y2="135.84"/><linearGradient xlink:href="#a" id="g" x1="-166.11" x2="7.81" y1="242.02" y2="135.84"/><linearGradient xlink:href="#a" id="h" x1="-166.11" x2="7.81" y1="248.52" y2="142.34"/><linearGradient xlink:href="#a" id="i" x1="-159.91" x2="14.02" y1="242.02" y2="135.84"/><linearGradient xlink:href="#a" id="j" x1="-185.27" x2="-11.34" y1="248.52" y2="142.34"/><linearGradient xlink:href="#a" id="k" x1="-185.27" x2="-11.34" y1="254.67" y2="148.48"/><linearGradient xlink:href="#a" id="l" x1="-191.55" x2="-17.62" y1="260.51" y2="154.32"/><linearGradient xlink:href="#a" id="m" x1="-172.52" x2="1.41" y1="254.67" y2="148.48"/><linearGradient xlink:href="#a" id="n" x1="-159.91" x2="14.02" y1="235.52" y2="129.33"/><linearGradient xlink:href="#a" id="o" x1="-171.91" x2="8.27" y1="244.25" y2="134.25"/><linearGradient xlink:href="#a" id="p" x1="-188.7" x2="-14.77" y1="248.01" y2="141.82"/><linearGradient xlink:href="#a" id="q" x1="-188.7" x2="-14.77" y1="254.5" y2="148.32"/><linearGradient xlink:href="#a" id="r" x1="-181.97" x2="-8.04" y1="254.5" y2="148.32"/><linearGradient xlink:href="#a" id="s" x1="-188.7" x2="-14.77" y1="260.65" y2="154.46"/><linearGradient xlink:href="#a" id="t" x1="-188.7" x2="-14.77" y1="266.49" y2="160.3"/><linearGradient xlink:href="#a" id="u" x1="-194.72" x2="-20.79" y1="266.49" y2="160.3"/><clipPath id="c"><circle cx="15.92" cy="15.92" r="13.6" fill="none"/></clipPath><clipPath id="b"><path d="M2 2h28v28H2z"/></clipPath></defs><g clip-path="url(#b)"><path fill="#d2d2d2" d="M21.08 13.67s.15-1.37-.12-2.33-.38-.94-.38-.94.43.54.7 1.65c.2.82.03 1.18.03 1.18Z"/><g clip-path="url(#c)"><path fill="#672f25" d="M19.67 45.13c3.65-.04 7.3-1.08 10.33-3.14a19 19 0 0 0 4.22-3.44 12 12 0 0 0 1.57-2.22q.34-.58.66-1.2c.32-.61.41-.81.6-1.22a23 23 0 0 0 1.71-5.17 17 17 0 0 0 .2-5.42L38.9 23l-.06-.33-.13-.67q-.07-.33-.17-.66l-.2-.65-.46-1.27q-.26-.63-.59-1.23a14 14 0 0 0-1.42-2.3 9 9 0 0 0-.9-1 8 8 0 0 0-1.04-.82l-.25-.16.22-.2a1 1 0 0 1 .66-.3 1.4 1.4 0 0 1 .69.15l.53.28a2 2 0 0 0 .48.17l-.21.4a7 7 0 0 0-2.4-1.76 9 9 0 0 0-2.92-.74l-.6-.06.46-.4a2 2 0 0 1 .97-.47 4 4 0 0 1 1.03-.07 5 5 0 0 1 1 .17 5 5 0 0 1 .94.34l-.33.41-.17-.19-.08-.06h.11l.06-.03.06-.07a.2.2 0 0 0 .04-.2l-.02-.04.08.05.22.1-.29.46a10 10 0 0 0-3.77-2.25 14 14 0 0 0-4.4-.66h-.65l.42-.5.15-.18.06-.04.02-.03.04-.03.05-.02.08-.04a.3.3 0 0 1 .18 0l.06.02.09.06a.3.3 0 0 1 .09.15l.01.11v.07l-.02.08-.07.1-.14.14a1 1 0 0 1-.33.12l-1.08.1.87-.66a3 3 0 0 1 1.17-.55 5 5 0 0 1 1.26-.14 8 8 0 0 1 2.42.5l-.3.56-.72-.5-.35-.25-.18-.11-.09-.05-.03-.02h.17a.3.3 0 0 0 .18-.1.3.3 0 0 0 .07-.27v-.07l-.03-.03-.01-.02-.02-.02.03.03.08.06.16.13.35.25a4 4 0 0 0 .7.4l-.33.56a10 10 0 0 0-5.1-2.09 9 9 0 0 0-5.38.96l-.94.5.43-.97a3 3 0 0 1 .72-.96 5 5 0 0 1 .94-.65 6 6 0 0 1 1.05-.42 5 5 0 0 1 1.13-.19l-.12.75a7 7 0 0 0-2.66-.44 8 8 0 0 0-2.63.59 8.4 8.4 0 0 0-4.04 3.51l-.15.25-.29-.05-.96-.2a2 2 0 0 0-.81-.03 1 1 0 0 0-.3.12 1 1 0 0 0-.25.24 2 2 0 0 0-.3.72q-.01.1-.06.25l-.06.25-.2.52-.11.25-.14.23-.31.45a5 5 0 0 1-1.7 1.27 10 10 0 0 1-1.92.7l-.24.06-.12.03-.08.03-.38.17a2 2 0 0 0-.63.5l-.22.32-.08.17-.07.2a4 4 0 0 0-.18.86 2.2 2.2 0 0 0 .4 1.53l-.85.22a4 4 0 0 1 .43-1.37 2 2 0 0 1 .52-.62 1.6 1.6 0 0 1 .82-.35l.74-.09-.22.71a1 1 0 0 0-.05.36.4.4 0 0 0 .1.25 1.2 1.2 0 0 0 .68.33l-.5.78a2 2 0 0 1-.3-.65 2 2 0 0 1-.05-.7 2.3 2.3 0 0 1 .53-1.23l.57-.67.29.84a1 1 0 0 0 .38.52.7.7 0 0 0 .53.14l-.22.92a1.2 1.2 0 0 1-.47-.58 1.3 1.3 0 0 1-.03-.7l.13-.48.1-.36.13-.82.67.5a2 2 0 0 0 .64.35.5.5 0 0 0 .46-.05.4.4 0 0 0 .15-.15l.13-.3a3 3 0 0 1 .2-.51 2 2 0 0 1 .45-.52l.04-.03.03-.01a3 3 0 0 1 1.34-.3c.42-.02.81.02 1.17.02l.02 1.06h-.56l-.08-.03-.05-.03-.2-.19a1 1 0 0 1-.07-.33l.06-.17.09-.12.11-.1.09-.04.05-.01.06-.01h.5v1.05a2 2 0 0 0-.5.11 1 1 0 0 0-.33.22q-.2.26 0 .8c.2.53.4.72.61 1.2l.14.4.08.42a5 5 0 0 1 .02.77l-.13 1.38-.05.7a2 2 0 0 1-.24.86 1 1 0 0 1-.38.43l-.25.14-.12.05-.12.03a4 4 0 0 1-.79.11 10 10 0 0 1-1.45-.07l.46-.86a6 6 0 0 0 1.15 1.05 3 3 0 0 0 1.35.57l.17.05.04.03h.02-.06l.13-.18.2-.48.24-.5q.45-.96.86-1.95l.81-1.99.8-2.01.18-.48.45.19a1 1 0 0 0 .6.05 2 2 0 0 0 .6-.3 3 3 0 0 0 .93-1.23 5 5 0 0 0 .36-1.6 2.3 2.3 0 0 0-.32-1.43l.71-.53a3 3 0 0 1 .36.64 4 4 0 0 1 .22.66 4 4 0 0 1 .1.69 3 3 0 0 1-.03.73l-.48-.5a7 7 0 0 1 2.89.2A9 9 0 0 1 25 14.33a14 14 0 0 1 2.14 1.83l.48.51.45.53.44.54c.22.27.28.38.42.57a10 10 0 0 1 1.7 5.32 12.5 12.5 0 0 1-1.1 5.44l.02-.06-.14.79v.03l-.01.03a13 13 0 0 1-1.8 2.8 11 11 0 0 1-1.17 1.2 10 10 0 0 1-1.34.99 11 11 0 0 1-3.06 1.27 10 10 0 0 1-1.62.33 5 5 0 0 1-1.66-.1l.02-.1a5 5 0 0 0 1.62.05 10 10 0 0 0 1.58-.38l.78-.25.76-.3a9 9 0 0 0 1.42-.77 10 10 0 0 0 1.27-1 10 10 0 0 0 1.1-1.18 13 13 0 0 0 1.66-2.75l-.02.05.14-.78v-.06a12 12 0 0 0 .95-5.22 9.3 9.3 0 0 0-1.68-4.93A16 16 0 0 0 24.56 15a8 8 0 0 0-2.34-1.1 6 6 0 0 0-2.53-.16l-.6.1.1-.61a3 3 0 0 0-.51-2.03l.71-.53a3 3 0 0 1 .43.98 4 4 0 0 1 .08 1 6 6 0 0 1-.4 1.9 4 4 0 0 1-.5.9 4 4 0 0 1-.7.73 2.5 2.5 0 0 1-.99.5 2 2 0 0 1-1.17-.1l.63-.26-.75 2-.81 2.03a37 37 0 0 1-.86 2l-.23.48-.22.5-.19.32a1 1 0 0 1-.35.33 1 1 0 0 1-.57.12l-.25-.05-.19-.09.17.06a4.4 4.4 0 0 1-1.78-.74 7 7 0 0 1-1.37-1.24l-.84-1 1.3.14a9 9 0 0 0 1.29.06 3 3 0 0 0 .57-.08l.04-.01.04-.01.04-.03.08-.1a1 1 0 0 0 .11-.45l.04-.66q.08-.73.12-1.36a4 4 0 0 0-.02-.6 2 2 0 0 0-.14-.5c-.15-.36-.42-.76-.62-1.25a2 2 0 0 1-.18-.87q0-.12.03-.25l.05-.24.1-.24.15-.23a2 2 0 0 1 .78-.57 3 3 0 0 1 .83-.17v1.06h-.3.06l.05-.02.08-.04.11-.1.09-.1.03-.07.02-.1a.5.5 0 0 0-.26-.54l-.04-.02-.08-.03h-.06.3l.02 1.05c-.41 0-.79-.04-1.14-.03a2 2 0 0 0-.89.19l.06-.04a.4.4 0 0 0-.13.16l-.13.34a2 2 0 0 1-.24.53 1.5 1.5 0 0 1-1.13.7 2 2 0 0 1-.64-.11 3 3 0 0 1-.95-.52l.81-.32-.12.48-.12.38v.17l.09.09 1.02.75-1.25.16a2 2 0 0 1-.67-.05 2 2 0 0 1-.6-.29 2 2 0 0 1-.72-1l.86.16a1.3 1.3 0 0 0-.3.68 1 1 0 0 0 .16.65l.76 1.04-1.26-.25a3 3 0 0 1-.65-.21 2 2 0 0 1-.6-.48 1.4 1.4 0 0 1-.31-.77 2 2 0 0 1 .1-.74l.5.64a1 1 0 0 0-.32.13 1 1 0 0 0-.28.35 3 3 0 0 0-.34 1.03l-.19 1.14-.67-.95a3 3 0 0 1-.48-1.04 3 3 0 0 1-.07-1.14 5 5 0 0 1 .22-1.05l.09-.26.13-.27a3 3 0 0 1 .34-.49 3 3 0 0 1 .9-.68l.5-.23.16-.04.12-.03.24-.06a9 9 0 0 0 1.76-.62 4 4 0 0 0 1.42-1.05l.25-.34.11-.2.1-.18.15-.4.05-.21.05-.24a3 3 0 0 1 .48-1.06 2 2 0 0 1 .46-.43 2 2 0 0 1 .6-.23 3 3 0 0 1 1.14.03l.95.21-.45.2a9.2 9.2 0 0 1 4.45-3.84 8 8 0 0 1 2.92-.62 7 7 0 0 1 2.95.5l1.74.7-1.88.04a4 4 0 0 0-.93.15 5 5 0 0 0-.9.36 4 4 0 0 0-.8.53 2 2 0 0 0-.54.7l-.5-.46a9 9 0 0 1 2.84-.95 10 10 0 0 1 2.97-.06 10.7 10.7 0 0 1 5.43 2.28l1.8 1.46-2.13-.9a5 5 0 0 1-.83-.47l-.38-.26-.2-.15-.08-.08-.06-.05-.03-.03-.03-.04-.02-.03-.02-.05v-.07a.3.3 0 0 1 .07-.27.4.4 0 0 1 .19-.1h.19l.05.03.06.03.1.07.2.12.37.26.71.51 1.87 1.35-2.17-.78a7 7 0 0 0-2.2-.47 3.2 3.2 0 0 0-2.05.55l-.21-.55.03-.01v.02l-.02.04v.04l.01.09.08.12.08.05.05.02h.13l.04-.01h-.01l-.02.02-.11.11-.24-.5a14 14 0 0 1 4.58.73 10 10 0 0 1 3.98 2.4l.9.9-1.19-.44-.32-.14-.16-.13-.1-.1-.04-.1a.3.3 0 0 1 .03-.28l.08-.08.08-.04h.1l.11.01.13.06.16.12.24.26.69.9-1.03-.48a5 5 0 0 0-1.75-.46 3 3 0 0 0-.87.05 2 2 0 0 0-.75.34l-.15-.46a10 10 0 0 1 3.07.8 8 8 0 0 1 2.55 1.9l.43.48-.64-.1a2 2 0 0 1-.63-.21l-.5-.27a1 1 0 0 0-.46-.11.7.7 0 0 0-.4.19l-.02-.37a9 9 0 0 1 1.1.89 10 10 0 0 1 .94 1.05A14 14 0 0 1 37.67 18q.3.61.58 1.26c.28.65.32.87.48 1.3l.19.68q.1.33.17.67l.12.68.07.35.03.34a17 17 0 0 1-.23 5.52 24 24 0 0 1-1.76 5.23l-.62 1.24c-.32.62-.44.8-.68 1.2a12 12 0 0 1-1.62 2.24 19 19 0 0 1-4.3 3.44q-.58.37-1.18.7a14 14 0 0 1-1.22.65 19 19 0 0 1-2.59.96 20 20 0 0 1-2.69.57 21 21 0 0 1-2.75.2Z"/><path fill="#e1251b" d="M37.96 19.05c-1.7-3.6-3.84-5.2-3.84-5.2s-.25-.2.64-.12a3 3 0 0 1 1.47.5 8 8 0 0 0-2.7-1.95c-1.17-.5-2.76-.64-2.76-.64s.04-.42 1.24-.4a8 8 0 0 1 2.42.41s-.9-1.26-3.78-2.27c-2.72-.95-4.58-.76-4.58-.76s.3-.48 1.59-.58a7 7 0 0 1 2.96.45s-2.77-2.06-5.69-2.25c-2.77-.17-5.17 1.05-5.17 1.05s.17-.52 1.31-1.25a4.4 4.4 0 0 1 2.2-.73s-2.27-.95-5.35.02c-2.47.78-3.95 2.95-4.43 3.77l-1.4-.18c-.34-.07-1.12-.29-1.57 1.01s-.42 1.97-1.49 2.87-3.87 1.03-4.43 1.82-.91 2.03-.82 2.59a5 5 0 0 0 .48 1.25 4 4 0 0 1 .46-1.3 1.2 1.2 0 0 1 .9-.63s-.21.61.05 1.02 1.05.55 1.05.55a1.4 1.4 0 0 1-.25-.92 1.4 1.4 0 0 1 .41-1.04c.4 1.19 1.45 1 1.45 1a1.2 1.2 0 0 1-.33-.81c-.03-.4.12-.53.3-.77 0 0 .97.62 1.55.42s.53-1.62 1.53-1.75a9 9 0 0 0 1.31-.26c-.35.14-1.08.54-.9 1.52.22 1.26.92 1.74.86 2.42s-.03 2.98-.35 3.5-2.54.3-2.54.3.8.98 1.68 1.36 1.56.7 1.88.17 3-7.1 3-7.1.61.3 1.7-.33 1.33-2.44 1.33-2.44l.03-.02a6 6 0 0 0-.06-1.58 5 5 0 0 0-.19-.7l-.1-.15s.04 0 .1.15a5 5 0 0 1 .46 1.36 2 2 0 0 1 .03.86c.65-.13 2.5-.24 5.39 1.7l-.03-.06c4.86 3.46 6.69 8.12 4.22 14.5-1.12 2.91-4.83 7.46-10.75 6.83.28 2.97.51 5.95.8 8.92a19 19 0 0 0 10.53-3.02c5.58-3.57 7.11-7.71 7.11-7.71s4.35-8.46 1.07-15.4"/><path fill="#672f25" d="m4.99 15.1 1.23-.53-.03.41zm14.23-4.43s.9.7 1.33 1.34a5 5 0 0 1 .55 1.46l-1.9.62a5 5 0 0 0 .15-2.05c-.1-.66-1.11-1.98-1.11-1.98Zm2.02-4.7S19.5 7.1 19.07 7.5a6 6 0 0 0-.76.96s.83-.62 1.33-.95 2.13-.94 2.13-.94l-1.1.14Z"/><path fill="#f2b131" d="M29.74 20.85c.8 2.43.76 5.24-.5 8.49-1.12 2.92-4.84 7.49-10.8 6.82l.13 1.37c6.23.98 10.12-3.76 11.27-6.75 1.51-3.9 1.32-7.19-.1-9.93"/><path fill="#ff7f40" d="M18.31 11.28s.85 1.22.68 2.25-.57 1.81-1.24 2.02a6 6 0 0 1-1.4.23 3.6 3.6 0 0 0 1.77-1.91 4.4 4.4 0 0 0 .2-2.59"/><path fill="#672f25" d="M11.92 16.05c-.16-.8-.32-1.88.53-1.95a7 7 0 0 1 1.56.06 2.5 2.5 0 0 0-1.44-.3 5 5 0 0 0-1.44.5l.44.67s.4 1.26.35 1.02m-3.62-.5s1.2.34 1.42.25.9-1 .9-1l-.37 1.44-.95.07Zm3.45 6.09s-1.17.05-1.26.32 1.07 1.39 1.07 1.39l-2.26-1.8Z"/><path fill="#ff7f40" d="M11.08 22.13s.1.23.85.65 1 .36 1.23.11 2.58-6.67 2.58-6.67-2.32 5.95-3.15 6.04a5 5 0 0 1-1.5-.13"/><path fill="#672f25" d="M18.3 8.47s.45-1.6 2.27-2.69c.95-.57 2.7-.47 2.7-.47s-1.54.5-2.21 1.02Zm7.77.16s.8-1.16 2.07-1.11 3.04 1.23 3.04 1.23-1.64-.58-2.72-.42-2.4.3-2.4.3"/><path fill="#ff7f40" d="M14.67 7.54s2.37-2.55 4.6-2.63 3.36.12 3.36.12S20 5 18.09 5.64a13 13 0 0 0-3.42 1.9m3.63.93s3.13-2.54 6.27-2.22a13 13 0 0 1 5.3 1.68S26.3 6.43 23 6.96s-4.71 1.62-4.71 1.62m7.78.05s2.22-.33 4.97.91 3.23 1.9 3.23 1.9a19 19 0 0 0-3.9-1.73 44 44 0 0 0-4.3-1.08"/><path fill="#672f25" d="M6.05 18.38s.83.25 1.16.32a2 2 0 0 0 .7.02s-.85-.58-.94-.8-.38.23-.38.23Zm2.09-.8 1.05-.29-.6-.54zm2.4-5.52a7 7 0 0 0 .79-1.16 13 13 0 0 0 .53-1.3l.08 1.9Z"/><path fill="url(#a)" d="M10.22 18.84a.3.3 0 0 1-.17-.03l-.13-.1-.09-.16-.03-.19.03-.19.08-.16.13-.1.17-.04.17.03.13.1.09.16.03.18-.03.2-.08.15-.13.1zm0-.15.1-.02.07-.08.05-.1.02-.14-.02-.13-.05-.11-.08-.07-.1-.03-.1.03-.08.07-.04.11-.02.13.02.13.05.11.08.08z"/><path fill="url(#d)" d="m6.75 20.3-.16-.04-.13-.1-.08-.15-.03-.2.02-.18.09-.15.12-.1a.3.3 0 0 1 .17-.04l.16.03.13.1.08.15.03.19-.02.19-.08.15a.4.4 0 0 1-.3.15m0-.15.1-.03.07-.07.05-.1.01-.14-.02-.13-.05-.1-.07-.07-.1-.03-.1.03-.07.07-.04.1-.02.13.02.13.05.1.08.08z"/><path fill="url(#f)" d="m5.55 21.54-.16-.04-.13-.1-.08-.15-.03-.19.02-.18.08-.16.13-.1.16-.04.17.04.12.1.09.14.03.2-.03.18-.08.15a.4.4 0 0 1-.29.15m0-.15.1-.02.07-.08.05-.1.01-.13-.02-.13-.05-.1-.07-.07a.2.2 0 0 0-.19 0l-.07.07-.05.1-.01.13.01.13.05.1.08.08z"/><path fill="url(#g)" d="m6.77 21.52-.17-.03-.12-.1-.09-.15-.03-.19.03-.19.08-.15a.4.4 0 0 1 .29-.15l.16.04.13.1.08.15.03.19-.02.19-.08.15a.4.4 0 0 1-.3.14m0-.14.1-.03.08-.07.04-.1.02-.13-.02-.13-.05-.1-.08-.08-.1-.02-.09.02-.07.07-.05.11-.01.13.02.13.04.1.08.07z"/><path fill="url(#h)" d="m6.78 22.75-.16-.03-.13-.1-.08-.15-.03-.19.02-.19.08-.15.13-.1a.3.3 0 0 1 .16-.04.4.4 0 0 1 .3.13l.08.15.03.19-.03.19-.08.15-.12.1zm0-.14.1-.03.07-.07.04-.1.02-.13-.02-.13-.05-.1-.07-.08a.2.2 0 0 0-.2 0l-.06.07-.05.1-.01.14.01.13.05.1.08.07z"/><path fill="url(#i)" d="M7.94 21.5a.4.4 0 0 1-.29-.13l-.08-.15-.03-.19.03-.19.07-.15a.4.4 0 0 1 .3-.14l.16.04.13.1.08.14.03.2-.03.18-.08.15a.4.4 0 0 1-.29.15m0-.15.1-.02.07-.07.05-.11.01-.13-.02-.13-.04-.1-.08-.07a.2.2 0 0 0-.19 0l-.07.07-.05.1-.01.13.02.13.05.1.07.08z"/><path fill="url(#j)" d="M3.15 22.8 3 22.76l-.13-.1-.08-.14-.04-.2.03-.18.08-.16.13-.1a.3.3 0 0 1 .16-.04l.17.04.12.1.09.15.03.19-.03.19-.08.15-.12.1zm0-.14.1-.03.07-.07.04-.1.02-.14-.02-.13-.05-.1-.07-.07-.1-.03-.1.03-.07.07-.05.1-.01.14.02.12.05.1.07.08z"/><path fill="url(#k)" d="M3.17 23.96 3 23.93l-.13-.09-.08-.15-.03-.19.03-.19.08-.15.12-.1a.3.3 0 0 1 .17-.04l.16.03.13.1.08.15.03.19-.02.19-.08.15-.13.1zm0-.14.09-.03.07-.07.05-.1.01-.13-.02-.13-.04-.1-.08-.07-.1-.03-.1.03-.06.07-.05.1-.02.13.02.13.05.1.08.08z"/><path fill="url(#l)" d="M2 25.09a.3.3 0 0 1-.17-.04l-.13-.1-.08-.15-.04-.19.03-.19.08-.15.13-.1a.3.3 0 0 1 .16-.04l.17.03.12.1.09.15.03.2-.03.18-.08.15-.12.1zm0-.15.1-.03.07-.07.04-.1.02-.13-.02-.13-.05-.1-.07-.07a.2.2 0 0 0-.2 0l-.06.07-.05.1-.01.13.01.13.05.1.08.07z"/><path fill="url(#m)" d="m5.58 23.93-.16-.03-.13-.1-.08-.15-.03-.19.02-.19.08-.15.13-.1a.3.3 0 0 1 .16-.04.4.4 0 0 1 .3.13l.08.15.03.19-.03.19-.08.15-.12.1a.3.3 0 0 1-.17.04m0-.14.1-.03.07-.07.04-.1.02-.13-.02-.13-.05-.1-.07-.07-.1-.03-.1.03-.07.07-.04.1-.02.13.02.13.05.1.07.08z"/><path fill="url(#n)" d="m7.93 20.28-.17-.04-.12-.1-.09-.15-.03-.19.03-.19.08-.15a.4.4 0 0 1 .29-.14l.16.03.13.1.08.15.04.19-.03.19-.08.15a.4.4 0 0 1-.3.14Zm0-.15.1-.03.07-.07.04-.1.02-.13-.02-.13-.05-.1-.07-.07-.1-.03-.1.03-.07.07-.04.1-.02.13.02.13.05.1.07.08z"/><path fill="url(#o)" d="m8.9 19.1-.17.05-.04-.14.26-.09h.12l.01 1h-.16Z"/><path fill="url(#p)" d="m4.29 20.77-.17.05-.04-.13.26-.09h.11l.01.95H4.3Z"/><path fill="url(#q)" d="m4.3 22-.17.05-.03-.13.25-.09h.12v.95h-.16Z"/><path fill="url(#r)" d="m5.58 21.99-.17.05-.04-.14.26-.08h.11l.01.94H5.6Z"/><path fill="url(#s)" d="m4.32 23.17-.17.05-.04-.14.26-.08h.11l.01.95h-.16Z"/><path fill="url(#t)" d="m4.33 24.27-.17.05-.03-.13.25-.09h.12v.95h-.16Z"/><path fill="url(#u)" d="m3.19 24.29-.17.05-.04-.14.25-.08h.12l.01.95H3.2Z"/></g><path fill="#e1251b" d="M21.62 12.72s3.44 1.73 3.44 5.92c0 3.52-1.84 7.28-8 8.48-7.46 1.46-12.55-4-12.55-4s3.9 6.57 9.83 6.48 9.6-2.64 9.6-2.64 4.09-3.36 4.57-4.96l1.2-3.92-1.44-4.48-5.7-2.48Z"/><path fill="#672f25" d="M20.34 13.54a6 6 0 0 1 2.04.25 3.2 3.2 0 0 1 1.7 1.15 5 5 0 0 1 .76 1.94 10 10 0 0 1 .2 2.06 9 9 0 0 1-.97 4.03 7 7 0 0 1-1.25 1.73q-.19.19-.4.36c-.2.17-.27.22-.41.32l-.42.31-.43.3a12 12 0 0 1-3.87 1.64 10 10 0 0 1-4.22.02 14 14 0 0 1-2-.6q-.97-.37-1.9-.8a30 30 0 0 1-3.57-1.96l.05-.1 3.82 1.3.95.32.94.28a16 16 0 0 0 1.9.45 12 12 0 0 0 3.81.03 10 10 0 0 0 3.6-1.33l.42-.25q.2-.12.4-.28a6 6 0 0 0 .77-.58 6 6 0 0 0 1.17-1.49 9 9 0 0 0 1.08-3.73 9 9 0 0 0-.07-1.96 5 5 0 0 0-.6-1.83A3 3 0 0 0 22.3 14a6 6 0 0 0-1.95-.34Z"/><path fill="#ff9e18" d="M17.87 28.24c5.76-1.12 7.57-4.62 7.84-7.92.32-3.92-1.6-5.69-2.67-6.53.7.56 1.95 2.45 1.95 4.85 0 3.52-1.84 7.28-8 8.48-4.03.78-9.14-1.59-11.36-2.88 1.75 1.7 7.12 5 12.24 4"/><circle cx="16" cy="16" r="13.6" fill="none" stroke="#231f20" stroke-miterlimit="10" stroke-width=".8"/></g></svg>
