<svg viewBox="0 0 32 32" xmlns="http://www.w3.org/2000/svg"><path d="m2.73 6.67 13.12-4.67v28l-11.08-6.12z" fill="#ffd273"/><path d="m15.85 2 13.42 4.59-2.19 17.21-11.23 6.2z" fill="#80693a"/><path d="m15.85 5.14 8.53 18.23h-2.91l-1.82-4.16h-3.8v-2.48h2.77l-2.77-5.73-2.33 5.73h2.33v2.48h-3.47l-1.63 4.16h-3.14z" fill="#fff"/><path d="m27.41 19.65a2.81 2.81 0 0 1 1.41.81 3.72 3.72 0 0 1 .54.72s-1 .69-1.57 1.06a.5.5 0 0 1 -.2-.22 1.28 1.28 0 0 0 -1.06-.64.92.92 0 0 0 -1.12.91.83.83 0 0 0 .1.42 2.23 2.23 0 0 0 1.31.88c1.62.7 2.31 1.16 2.74 1.81a3.28 3.28 0 0 1 .26 2.76 3 3 0 0 1 -2.51 1.84 6.93 6.93 0 0 1 -1.72 0 4.15 4.15 0 0 1 -2.3-1.2 4 4 0 0 1 -.59-.87l.21-.13.84-.48.65-.38.14.2a3 3 0 0 0 .86.82 2.1 2.1 0 0 0 2.2-.11 1 1 0 0 0 .13-1.25 3.72 3.72 0 0 0 -1.55-.9 5.6 5.6 0 0 1 -2.18-1.38 3 3 0 0 1 -.62-1.13 4.53 4.53 0 0 1 0-1.44 2.76 2.76 0 0 1 2.32-2.15 5.73 5.73 0 0 1 1.71.05zm-5.31.94v.93h-2.94v8.36h-2.08v-8.36h-2.94v-.91a8.9 8.9 0 0 1 0-.93h8v.92z" fill="#007acc"/></svg>