<svg xmlns="http://www.w3.org/2000/svg" viewBox="0 0 32 32"><title>file_type_html</title><g id="html"><polygon points="5.9 27.2 3.65 2 28.34 2 26.09 27.2 15.98 30 5.9 27.2" style="fill:#e44f26"/><polygon points="16 27.86 24.17 25.59 26.09 4.06 16 4.06 16 27.86" style="fill:#f1662a"/><polygon points="16 13.41 11.91 13.41 11.63 10.24 16 10.24 16 7.15 15.99 7.15 8.25 7.15 8.32 7.98 9.08 16.5 16 16.5 16 13.41" style="fill:#ebebeb"/><polygon points="16 21.43 15.99 21.44 12.54 20.51 12.32 18.04 10.65 18.04 9.22 18.04 9.65 22.9 15.99 24.65 16 24.65 16 21.43" style="fill:#ebebeb"/><polygon points="15.99 13.41 15.99 16.5 19.8 16.5 19.44 20.51 15.99 21.44 15.99 24.65 22.33 22.9 22.37 22.37 23.1 14.24 23.17 13.41 22.34 13.41 15.99 13.41" style="fill:#fff"/><polygon points="15.99 7.15 15.99 9.07 15.99 10.23 15.99 10.24 23.45 10.24 23.45 10.24 23.45 10.24 23.52 9.55 23.66 7.98 23.73 7.15 15.99 7.15" style="fill:#fff"/></g></svg>