<svg viewBox="0 0 32 32" xmlns="http://www.w3.org/2000/svg" xmlns:xlink="http://www.w3.org/1999/xlink"><clipPath id="a"><path d="m6.636 7.38h18.55v6.48h-18.55z"/></clipPath><clipPath id="b"><path d="m6.906 6.91h3.65v1.77h-3.65z"/></clipPath><clipPath id="c"><path d="m21.786 7.85h2.78v1.88h-2.78z"/></clipPath><clipPath id="d"><path d="m23.156 20.68h2.57v2.99h-2.57z"/></clipPath><clipPath id="e"><path d="m24.216 19.18h.85v.7h-.85z"/></clipPath><clipPath id="f"><path d="m25.606 19h.84v.79h-.84z"/></clipPath><clipPath id="g"><path d="m24.356 20.29h1.73v.94h-1.73z"/></clipPath><clipPath id="h"><path d="m26.386 20.06h.62v.55h-.62z"/></clipPath><clipPath id="i"><path d="m9.216 19.15h14.1v3.99h-14.1z"/></clipPath><clipPath id="j"><path d="m21.736 4.08h1.97v4.88h-1.97z"/></clipPath><clipPath id="k"><path d="m6.206 4.81h4.84v3.46h-4.84z"/></clipPath><clipPath id="l"><path d="m21.796 3.79h2.87v4.84h-2.87z"/></clipPath><clipPath id="m"><path d="m8.736 6.24h12.83v12.24h-12.83z"/></clipPath><clipPath id="n"><path d="m14.946 12.22h1.43v.6h-1.43z"/></clipPath><clipPath id="o"><path d="m14.886 11.56h1.59v1.08h-1.59z"/></clipPath><clipPath id="p"><path d="m10.096 12.84h12.35v7.01h-12.35z"/></clipPath><clipPath id="q"><path d="m10.736 12.95h10.24v5.2h-10.24z"/></clipPath><clipPath id="r"><path d="m10.846 13.06h10.02v5.09h-10.02z"/></clipPath><clipPath id="s"><path d="m10.956 13.17h9.8v4.97h-9.8z"/></clipPath><clipPath id="t"><path d="m13.266 15.52h5.49v2.26h-5.49z"/></clipPath><clipPath id="u"><path d="m13.996 14.26h3.29v2.54h-3.29z"/></clipPath><clipPath id="v"><path d="m14.006 14.22h3.25v1.13h-3.25z"/></clipPath><clipPath id="w"><path d="m15.556 14.91h.6v1.61h-.6z"/></clipPath><clipPath id="x"><path d="m6.266 4.81h4.31v3.91h-4.31z"/></clipPath><clipPath id="y"><path d="m8.536 8.88h14.63v4.65h-14.63z"/></clipPath><clipPath id="z"><path d="m7.356 7.5h17.21v5.81h-17.21z"/></clipPath><clipPath id="A"><path d="m9.026 8.3h5.53v3.74h-5.53z"/></clipPath><clipPath id="B"><path d="m17.286 8.81h5.48v3.83h-5.48z"/></clipPath><clipPath id="C"><path d="m7.356 8.1h17.1v5.03h-17.1z"/></clipPath><clipPath id="D"><path d="m7.626 7.62h2.21v.33h-2.21z"/></clipPath><clipPath id="E"><path d="m14.746 8.16h2.37v.58h-2.37z"/></clipPath><clipPath id="F"><path d="m22.486 8.58h1.35v.43h-1.35z"/></clipPath><clipPath id="G"><path d="m8.796 8.23h3.16v3.13h-3.16z"/></clipPath><clipPath id="H"><path d="m20.046 8.78h3.04v3.34h-3.04z"/></clipPath><clipPath id="I"><path d="m9.186 8.45h5.23v3.01h-5.23z"/></clipPath><clipPath id="J"><path d="m9.296 10.44h3.85v1.52h-3.85z"/></clipPath><clipPath id="K"><path d="m17.436 8.97h5.22v2.79h-5.22z"/></clipPath><clipPath id="L"><path d="m18.416 11.25h3.97v1.28h-3.97z"/></clipPath><clipPath id="M"><path d="m11.536 9.59h.22v.22h-.22z"/></clipPath><clipPath id="N"><path d="m20.176 10.11h.22v.22h-.22z"/></clipPath><clipPath id="O"><path d="m7.676 7.83h7.09v1.04h-7.09z"/></clipPath><clipPath id="P"><path d="m17.056 8.18h5.24v1.01h-5.24z"/></clipPath><path d="m8.316 23.17.07-.16.01-.02c.05-.13.11-.27.16-.4.07-.18.13-.36.2-.54a2.826 2.826 0 0 0 .11-.31c.09-.24.21-.56.35-.86a3.456 3.456 0 0 1 .23-.44c.09-.14.18-.27.27-.4l.08-.11.12-.08a.219.219 0 0 1 .05-.03c.05-.03.12-.05.16-.08.08-.03.18-.07.28-.1.15-.04.33-.09.54-.13.31-.07.63-.13 1.05-.2.62-.1 1.29-.19 2.09-.27 1.41-.15 2.82-.26 4.18-.33.72-.03 1.27-.04 1.78-.04h.33a8.233 8.233 0 0 1 1.09.08 1.418 1.418 0 0 1 .34.08.339.339 0 0 1 .08.03l.11.04.09.08.1.1a4.275 4.275 0 0 1 .38.43 9.162 9.162 0 0 1 1.12 1.88 8.389 8.389 0 0 1 .63 1.94l.16.86h-2.01l-.12-.58a6.513 6.513 0 0 0 -2.6-2.55 5.236 5.236 0 0 0 -1.52-.13 43.574 43.574 0 0 0 -5.83.49 5.4 5.4 0 0 0 -1.83 2.35l-.2.43" fill="#fff"/><path d="m22 19.98a2.819 2.819 0 0 0 -.33-.36l-.08-.08a.031.031 0 0 1 -.02-.01.981.981 0 0 0 -.21-.04c-.32-.04-.66-.05-1-.07-.69-.01-1.38.01-2.07.04-1.38.07-2.77.18-4.14.33-.69.08-1.38.16-2.06.27-.34.05-.68.11-1.01.19-.16.03-.33.08-.48.12a.826.826 0 0 0 -.22.08c-.03.01-.07.02-.08.04a.01.01 0 0 0 -.01.01c-.08.11-.15.22-.23.34s-.13.25-.2.38c-.12.26-.23.54-.33.81s-.21.56-.31.84c-.05.14-.11.28-.18.43a.882.882 0 0 1 -.09.2h.93a5.811 5.811 0 0 1 2.24-2.74 42.347 42.347 0 0 1 6.07-.53 5.792 5.792 0 0 1 1.78.19c.95.37 2.86 2.13 3.05 3.09h.54a8.067 8.067 0 0 0 -.58-1.76 5.971 5.971 0 0 0 -.98-1.77" fill="#ba8449"/><g fill="#fff"><path d="m23.006 24.19-.11-.59a7.114 7.114 0 0 0 -.53-1.6 7.414 7.414 0 0 0 -.94-1.58 2.359 2.359 0 0 0 -.2-.23 8.334 8.334 0 0 0 -.88-.05h-.31c-.49 0-1.02.01-1.72.04-1.33.07-2.7.18-4.09.33-.78.09-1.42.18-2.01.26-.38.05-.69.12-.96.18-.18.04-.31.08-.43.11-.02 0-.03.01-.04.01a.834.834 0 0 1 -.08.12c-.05.09-.1.19-.18.32-.12.25-.22.51-.31.74-.04.1-.08.2-.11.3-.07.19-.13.37-.21.56-.05.14-.12.28-.18.44l-.01.02a1.084 1.084 0 0 1 -.08.19l-.2.44h-1.25l-.19-.09-.02-.01a.781.781 0 0 1 -.43-.78v-.03l.02-.1.03-.12a2.172 2.172 0 0 1 .07-.24c.04-.16.1-.32.15-.47.1-.28.22-.59.36-.92a9.623 9.623 0 0 1 .46-.91c.08-.14.16-.28.27-.45.1-.15.21-.31.32-.45a1.3 1.3 0 0 1 .25-.24h.01a.891.891 0 0 1 .16-.1c.1-.05.18-.09.23-.11.13-.05.25-.09.35-.12a5.238 5.238 0 0 1 .58-.14c.32-.07.66-.13 1.08-.2.63-.1 1.3-.18 2.12-.26 1.42-.14 2.84-.25 4.22-.31.66-.02 1.17-.04 1.64-.04h.5a8.535 8.535 0 0 1 1.17.09h.01a3.054 3.054 0 0 1 .43.1h.01c.04.02.11.04.19.08a.738.738 0 0 1 .13.08l.05.04.04.03.04.04.12.12c.14.14.27.3.42.48a10.033 10.033 0 0 1 1.17 2 10.274 10.274 0 0 1 .42 1.07 8.24 8.24 0 0 1 .27 1.09l.13.84h-1.95z"/><path d="m9.016 24.19.48-1.04a6.294 6.294 0 0 1 2.46-2.9l.02-.01a42.181 42.181 0 0 1 6.25-.56 5.3 5.3 0 0 1 1.96.22c1.13.44 3.09 2.29 3.35 3.38l.22.9h-14.74z"/><path d="m22.266 24.19-.13-.56a6.4 6.4 0 0 0 -2.46-2.37 4.758 4.758 0 0 0 -1.44-.12 45.348 45.348 0 0 0 -5.76.48 5.21 5.21 0 0 0 -1.66 2.14l-.2.42h-1.816l.46-1.02a6.413 6.413 0 0 1 2.64-3.11 39.524 39.524 0 0 1 6.35-.58 6.418 6.418 0 0 1 2.04.23c1.13.44 3.24 2.34 3.5 3.61l.18.88z"/><path d="m23.116 24.19-.21-.2a3.216 3.216 0 0 1 -.77-2.88.825.825 0 0 1 .78-.56.711.711 0 0 1 .21.03 1.229 1.229 0 0 0 .57-.44.9.9 0 0 1 .81-.46 2.63 2.63 0 0 1 1.7.83.8.8 0 0 1 .12.74c-.01.02-.02.07-.04.12a16.221 16.221 0 0 1 -.98 2.47l-.21.34c-.01.02-1.98.01-1.98.01z"/><path d="m23.046 24.19.68-1.11a11.564 11.564 0 0 0 .71-1.31 3.178 3.178 0 0 1 -1.72.48l-.02-.02-.01.08a.9.9 0 0 1 -.88-.85.909.909 0 0 1 .23-.63.851.851 0 0 1 .6-.28c.79-.03.89-.22 1.03-.49a1.264 1.264 0 0 1 1.18-.59 1.992 1.992 0 0 1 .42.04 1.427 1.427 0 0 1 1.17 1.36 6.17 6.17 0 0 1 -1.12 2.99l-.21.35c.01-.02-2.06-.02-2.06-.02z"/><path d="m25.926 22.03a3.42 3.42 0 0 1 -2.34-1.15 1.562 1.562 0 0 1 -.45-1.27.847.847 0 0 1 .89-.72 2.3 2.3 0 0 1 .28.02c.09-.39.3-1.21 1.14-1.21h.12a.954.954 0 0 1 .83.68.95.95 0 0 1 .46-.12.964.964 0 0 1 .7.31 1.046 1.046 0 0 1 .18 1.17.939.939 0 0 1 .42.55 1.038 1.038 0 0 1 -.16.9 2.62 2.62 0 0 1 -1.97.81.191.191 0 0 1 -.1.03"/><path d="m25.046 4.01a12.028 12.028 0 0 0 -2.746 3.23.859.859 0 0 1 -.74.38 2.62 2.62 0 0 1 -1.48-.71c-.92-.74-.94-1.16-.95-1.32a.819.819 0 0 1 .77-.85 4.8 4.8 0 0 0 2.33-1.13 3.856 3.856 0 0 1 2.16-.98 2.5 2.5 0 0 1 .47.05"/></g><path d="m19.966 5.47c2.14-.2 3.4-2.42 4.71-2.08a11.817 11.817 0 0 0 -2.95 3.44c-.31.42-2.36-1.31-1.76-1.36" fill="#fff8ee"/><path d="m6.066 4.45a3.076 3.076 0 0 1 2.14-.74 8.082 8.082 0 0 1 2.69.56 2.815 2.815 0 0 0 .91.12h.41a1.019 1.019 0 0 1 1.02.49 1.035 1.035 0 0 1 -.12 1.02 2.91 2.91 0 0 1 -2.23 1.15h-.05a3.384 3.384 0 0 1 -1.49-.57 4.8 4.8 0 0 0 -2.32-.8c-.12 0-.25.01-.37.02" fill="#fff"/><path d="m22.566 9.76a1.753 1.753 0 0 1 -1.61-1.28 4.428 4.428 0 0 1 -.35-1.63c0-.77.4-.97.66-1.03a9.673 9.673 0 0 0 .74-.96c1-1.36 1.72-2.24 2.56-2.24a.924.924 0 0 1 .4.08 2.266 2.266 0 0 1 1.49 2.6 6.211 6.211 0 0 1 -1.51 2.9c-.38.45-1.38 1.5-2.26 1.56z" fill="#fff"/><path d="m9.636 10.17a1.23 1.23 0 0 1 -.28-.02 5.92 5.92 0 0 1 -3.81-3.1 2.087 2.087 0 0 1 0-2.07 1.966 1.966 0 0 1 1.754-.98 5.741 5.741 0 0 1 2.58.92 7.522 7.522 0 0 0 .93.45.711.711 0 0 1 .21-.03.8.8 0 0 1 .7.42 4.408 4.408 0 0 1 -.43 3.33 1.892 1.892 0 0 1 -1.654 1.08z" fill="#fff"/><path d="m14.516 22.38a11.941 11.941 0 0 1 -7.616-2.78 4.466 4.466 0 0 1 -1.23-4.1 10.944 10.944 0 0 1 1.55-3.33 7.551 7.551 0 0 0 .92-1.77c1.33-5.9 4.68-6.65 7.45-6.65.18 0 .36 0 .57.01 5.9.18 6.49 3.02 6.84 4.73a5.812 5.812 0 0 0 .21.81c1.98 4.86 2.31 7.77 1.09 9.74-1.19 1.94-3.81 2.89-9.02 3.32-.244.01-.504.02-.764.02z" fill="#fff"/><path d="m14.4 22.39a11.44 11.44 0 0 1 -7.48-2.79 4.466 4.466 0 0 1 -1.23-4.1 10.944 10.944 0 0 1 1.55-3.33 7.551 7.551 0 0 0 .92-1.77c1.33-5.9 4.68-6.65 7.45-6.65.18 0 .36 0 .57.01 5.9.18 6.49 3.02 6.84 4.73a5.812 5.812 0 0 0 .21.81c1.95 4.78 2.26 7.67 1.07 9.64-1.37 2.26-4.58 3-8.98 3.41-.31.03-.62.04-.92.04" fill="#fff"/><path d="m22.916 18.28c.04-.1.09-.21.13-.31.45-1.07.79-2.01.25-2.62-.63-.7-3.32-1.97-5.7-3.09-4.56-2.16-7.39-3.55-7.79-4.92a1.3 1.3 0 0 1 .13-1.02c.79-1.24 2.99-2.56 6-2.56h.09c2.83.02 4.89.84 6.13 2.42a8.249 8.249 0 0 1 1.46 4.04 4.3 4.3 0 0 0 .21 1.01c2.14 3.69 1.16 6.41.38 7.69-.006 0-1.29-.64-1.29-.64z" fill="#fff"/><path d="m20.676 14.03c-1.11 0-2.95-.27-3.59-.89a4.319 4.319 0 0 1 -.89-2.06 6.713 6.713 0 0 0 -.33-1.09h-.01c-.04.12-.1.27-.14.39a5.283 5.283 0 0 1 -1.58 2.6 6.677 6.677 0 0 1 -2.76.51 3.524 3.524 0 0 1 -2.35-.67 6.172 6.172 0 0 1 -1.7-3.46c-.02-.01-.03-.02-.05-.03a1.317 1.317 0 0 1 -.53-.52 1.841 1.841 0 0 1 .09-1.47.9.9 0 0 1 .7-.47h.1a2.8 2.8 0 0 1 .48.05 3.429 3.429 0 0 0 .56.07h.1a20.389 20.389 0 0 1 2.9-.22 9.5 9.5 0 0 1 3.72.61.944.944 0 0 1 .09.03 2.532 2.532 0 0 0 .59.08.975.975 0 0 0 .25-.02 18.157 18.157 0 0 1 2.76-.22 9.242 9.242 0 0 1 4 .74.337.337 0 0 0 .12.04h.04a2.846 2.846 0 0 0 .53-.08c.13-.03.26-.05.38-.08h.1a.955.955 0 0 1 .83.53 1.847 1.847 0 0 1 .05 1.64 1.631 1.631 0 0 1 -.78.57.536.536 0 0 0 -.11.05c-.09.15-.24.46-.37.71a12.624 12.624 0 0 1 -1.2 2.06 2.518 2.518 0 0 1 -2 .6" fill="#fff"/><g clip-path="url(#a)"><path d="m20.236 13.86a5.355 5.355 0 0 1 -3-.76c-.5-.36-.73-1.08-1.05-2.24a9.614 9.614 0 0 0 -.32-1.02c-.05.13-.12.31-.18.45a5.083 5.083 0 0 1 -1.6 2.59 7.262 7.262 0 0 1 -2.78.5 3.187 3.187 0 0 1 -2.36-.73 5.728 5.728 0 0 1 -1.54-3.09 2.374 2.374 0 0 0 -.07-.31 1.176 1.176 0 0 1 -.72-1.13.77.77 0 0 1 .77-.74.971.971 0 0 1 .58.22.052.052 0 0 0 .04.02.106.106 0 0 1 .05.02 1.02 1.02 0 0 1 .8.86 11.735 11.735 0 0 0 .48 1.55c.45 1.17.77 1.37.8 1.38a3.945 3.945 0 0 0 1.3.2 6.383 6.383 0 0 0 1.76-.26c.16-.25.49-.91.72-1.36.69-1.37.81-1.58 1.11-1.73a1.226 1.226 0 0 1 .61-.13 3.05 3.05 0 0 1 1.02.18c.5.22.77.88 1.36 2.57.11.31.24.7.33.9a6.955 6.955 0 0 0 2.47.35c.3 0 .51-.01.66-.02.1-.21.24-.5.36-.75.83-1.77.96-1.98 1.17-2.14a2.729 2.729 0 0 1 1.36-.46.8.8 0 0 1 .81.62c.12.63-.5.88-.71.95-.05.02-.13.05-.19.08-.08.13-.22.42-.33.65-.9 1.75-1.19 2.23-1.53 2.44a5.759 5.759 0 0 1 -2.18.34" fill="#fff" opacity=".3"/></g><g clip-path="url(#b)"><path d="m8.706 8.67a2.839 2.839 0 0 1 -.89-.19c-.13-.04-.25-.09-.33-.12a.8.8 0 0 1 -.59-.73v-.73h.72a1.057 1.057 0 0 1 .22.03c.15.02.65.05.81.07l.1.01a6.708 6.708 0 0 0 .71-.08 2.709 2.709 0 0 1 .37-.04h.62l.1.61a.738.738 0 0 1 -.53.81c-.02.01-.1.03-.16.05a3.811 3.811 0 0 1 -1.09.28.06.06 0 0 1 -.06.03" fill="#fff" opacity=".3"/></g><g clip-path="url(#c)"><path d="m23.156 9.72a1.429 1.429 0 0 1 -.81-.33.993.993 0 0 1 -.56-.82v-.73h.71a.658.658 0 0 1 .3.07c.08.03.37.13.5.16.04 0 .13-.02.31-.05a.858.858 0 0 1 .22-.02h.62l.1.61a.734.734 0 0 1 -.49.81l-.13.07a2.5 2.5 0 0 1 -.66.25c-.02-.02-.07-.02-.11-.02" fill="#fff" opacity=".3"/></g><path d="m20.776 25.8h-2.69v-2.33h2.69z" fill="#fff"/><path d="m22 19.98a2.819 2.819 0 0 0 -.33-.36l-.08-.08a.031.031 0 0 1 -.02-.01.981.981 0 0 0 -.21-.04c-.32-.04-.66-.05-1-.07-.69-.01-1.38.01-2.07.04-1.38.07-2.77.18-4.14.33-.69.08-1.38.16-2.06.27-.34.05-.68.11-1.01.19-.16.03-.33.08-.48.12a.826.826 0 0 0 -.22.08c-.03.01-.07.02-.08.04a.01.01 0 0 0 -.01.01c-.08.11-.15.22-.23.34s-.13.25-.2.38c-.12.26-.23.54-.33.81s-.21.56-.31.84c-.05.14-.11.28-.18.43a.882.882 0 0 1 -.09.2h.93a5.811 5.811 0 0 1 2.24-2.74 42.347 42.347 0 0 1 6.07-.53 5.792 5.792 0 0 1 1.78.19c.95.37 2.86 2.13 3.05 3.09h.54a8.067 8.067 0 0 0 -.58-1.76 5.971 5.971 0 0 0 -.98-1.77" fill="#ba8449"/><path d="m23.526 21.47a8.778 8.778 0 0 0 -1.08-1.85q-.165-.21-.36-.42l-.1-.1-.02-.02-.01-.01-.02-.02a.219.219 0 0 1 -.05-.03.418.418 0 0 0 -.1-.04c-.12-.04-.21-.05-.31-.08a10 10 0 0 0 -1.07-.08c-.71-.01-1.4 0-2.1.03-1.4.05-2.79.16-4.18.31-.69.08-1.39.15-2.09.26-.35.05-.69.11-1.04.19-.18.04-.35.08-.53.13a.987.987 0 0 0 -.27.1.742.742 0 0 0 -.15.08.36.36 0 0 1 -.09.05.285.285 0 0 0 -.11.11 3.484 3.484 0 0 0 -.28.39 4.233 4.233 0 0 0 -.25.42c-.15.27-.3.56-.43.84s-.24.57-.34.86a2.827 2.827 0 0 0 -.13.44 1.866 1.866 0 0 1 -.07.22l-.04.12-.01.05c0 .01.02.02.07.05h.64a1.76 1.76 0 0 1 .09-.2c.05-.14.12-.28.18-.42.11-.28.21-.56.31-.84a7.845 7.845 0 0 1 .32-.8c.07-.13.13-.25.2-.38a4.048 4.048 0 0 1 .23-.34.01.01 0 0 0 .01-.01.589.589 0 0 0 .08-.04c.07-.02.14-.05.22-.08.15-.04.32-.09.48-.12.33-.08.67-.13 1.01-.19.68-.11 1.37-.2 2.06-.27q2.07-.225 4.14-.33c.69-.03 1.38-.05 2.07-.04a7.98 7.98 0 0 1 1 .07c.08.01.15.03.21.04.01 0 .02 0 .02.01l.08.08c.12.12.22.24.33.36a9.3 9.3 0 0 1 1.03 1.73 8.067 8.067 0 0 1 .58 1.76h.55a6.1 6.1 0 0 0 -.24-.98c-.16-.35-.29-.68-.44-1.01" fill="#895b2e"/><path d="m19.936 20.59a5.49 5.49 0 0 0 -1.7-.18 44.438 44.438 0 0 0 -5.99.51 5.539 5.539 0 0 0 -2.09 2.54h12.68a6.7 6.7 0 0 0 -2.9-2.87" fill="#fff8ee"/><path d="m20.016 20.38a5.792 5.792 0 0 0 -1.78-.19 42.347 42.347 0 0 0 -6.07.53 5.747 5.747 0 0 0 -2.24 2.74h.24a5.7 5.7 0 0 1 2.09-2.54 42.588 42.588 0 0 1 5.99-.51 5 5 0 0 1 1.7.18 6.8 6.8 0 0 1 2.91 2.88h.22c-.2-.96-2.11-2.72-3.06-3.09" fill="#e5d0ae"/><path d="m24.346 20.48c-.13.27-.82.97-1.4.81-.31-.09-.25 1.53.45 2.18h1.27a17.251 17.251 0 0 0 .96-2.44c.08-.21-1.15-.83-1.28-.55" fill="#ba8449"/><path d="m25.7 20.88a.722.722 0 0 0 -.6-.69c-.3-.07-.69-.01-.79.18-.2.37-.44.82-1.63.89a.152.152 0 0 0 -.14.15.16.16 0 0 0 .15.14 1.845 1.845 0 0 0 1.87-1.03.81.81 0 0 1 .59 0 .4.4 0 0 1 .26.38 6.54 6.54 0 0 1 -1.06 2.57h.34a6.281 6.281 0 0 0 1.01-2.59" fill="#895b2e"/><g clip-path="url(#d)"><path d="m23.236 23.5a2.14 2.14 0 0 0 1.52-2.07c.01-.21-.42-.6-.42-.71s1.3.02 1.37.33a7.564 7.564 0 0 1 -1.11 2.46c-.27.29-1.82.1-1.36-.01" fill="#e3ab5e" opacity=".15"/></g><path d="m23.846 19.72c-.1.68 1.23 1.61 2.12 1.59.74-.02 1.59-.37 1.47-.79s-.84.08-.91-.22c-.05-.28.84-.82.48-1.21-.34-.36-.73.57-1.13.44s.08-1.04-.42-1.09c-.58-.05-.36 1.24-.8 1.26-.3.02-.78-.2-.81.02" fill="#fcd4c3"/><path d="m23.846 19.72c-.1.68 1.23 1.61 2.12 1.59.74-.02 1.59-.37 1.47-.79s-.84.08-.91-.22c-.05-.28.84-.82.48-1.21-.34-.36-.73.57-1.13.44s.08-1.04-.42-1.09c-.58-.05-.36 1.24-.8 1.26-.3.02-.78-.2-.81.02z" fill="none" stroke="#f8a38f" stroke-miterlimit="10" stroke-width=".25"/><g clip-path="url(#e)"><path d="m24.226 19.72c.14.11.66.25.73.07a1.084 1.084 0 0 0 .1-.61c-.04.18-.1.5-.28.58a1.6 1.6 0 0 1 -.55-.04" fill="#fcd4c3" opacity=".5"/></g><g clip-path="url(#f)"><path d="m25.636 18.99c-.02.12-.12.69.18.77.25.07.44-.09.63-.4-.11.1-.38.34-.59.25s-.23-.32-.22-.62" fill="#fcd4c3" opacity=".5"/></g><g clip-path="url(#g)"><path d="m24.366 20.53c1.49-.73 1.79.46 1.72.7a2.6 2.6 0 0 1 -1.72-.7" fill="#fcd4c3" opacity=".25"/></g><g clip-path="url(#h)"><path d="m26.536 20.06c-.25.28-.13.51.03.55a.536.536 0 0 0 .44-.18c-.05 0-.46.13-.54-.07a.321.321 0 0 1 .07-.3" fill="#fcd4c3" opacity=".5"/></g><g clip-path="url(#i)"><path d="m9.536 21.96c4.78 2.75 14.27-.04 13.77-.94-.67-1.19-.93-1.94-2.4-1.87s-10.82.82-11.2 1.11-.79 1.34-.17 1.7" fill="#e3ab5e" opacity=".15"/></g><path d="m19.966 5.47c2.14-.2 3.4-2.42 4.71-2.08a11.817 11.817 0 0 0 -2.95 3.44c-.31.42-2.36-1.31-1.76-1.36" fill="#fff8ee"/><path d="m19.966 5.47c2.14-.2 3.4-2.42 4.71-2.08a11.817 11.817 0 0 0 -2.95 3.44c-.31.42-2.36-1.31-1.76-1.36z" fill="none" stroke="#e5d0ae" stroke-linecap="round" stroke-linejoin="round" stroke-width=".25"/><path d="m6.556 4.98c.96-.9 2.7-.55 4.1-.04.8.28 1.84.05 1.9.22.18.38-.86 1.17-1.72 1.15-.83-.01-2.24-1.6-4.28-1.33" fill="#ba8449"/><path d="m6.556 4.98c.96-.9 2.7-.55 4.1-.04.8.28 1.84.05 1.9.22.18.38-.86 1.17-1.72 1.15-.83-.01-2.236-1.6-4.28-1.33z" fill="none" stroke="#895b2e" stroke-linecap="round" stroke-linejoin="round" stroke-width=".25"/><path d="m21.426 6.53c.49.14 2.36-3.52 3.27-3.16 2.89 1.15-.88 5.57-2.07 5.67-1.2.08-1.47-2.6-1.2-2.51" fill="#fcd4c3"/><path d="m21.426 6.53c.49.14 2.36-3.52 3.27-3.16 2.89 1.15-.88 5.57-2.07 5.67-1.2.08-1.47-2.6-1.2-2.51z" fill="none" stroke="#f8a38f" stroke-miterlimit="10" stroke-width=".25"/><path d="m10.986 6.09c-.8.35-3.63-2.62-4.83-.71-.79 1.26 1.6 3.8 3.3 4.07 1.72.27 1.95-3.55 1.53-3.36" fill="#fcd4c3"/><path d="m10.986 6.09c-.8.35-3.63-2.62-4.83-.71-.79 1.26 1.6 3.8 3.3 4.07 1.72.27 1.95-3.55 1.53-3.36z" fill="none" stroke="#f8a38f" stroke-miterlimit="10" stroke-width=".25"/><g clip-path="url(#j)"><path d="m23.656 4.08c-.15.5-1.44 1.81-1.27 2.92.07.42.5 1.64.69 1.6s.66-.34.61-.27a5.668 5.668 0 0 1 -.89.63 7.312 7.312 0 0 1 -1.06-2.51c.43-.38 1.73-2.35 1.92-2.37" fill="#fcd4c3"/></g><g clip-path="url(#k)"><path d="m6.2 5.46a3.056 3.056 0 0 1 3.4.6 1.733 1.733 0 0 1 -.32 2.17c-.3.3 1.75-1.05 1.76-1.44a.531.531 0 0 0 -.44-.61c-1.13-.42-2.31-1.38-3.34-1.36a1.2 1.2 0 0 0 -1.06.64" fill="#fcd4c3"/></g><g clip-path="url(#l)"><path d="m24.006 3.79c1.99 1.09-1.21 2.76-.97 4.83-.42-.04-1.44-2.05-1.19-2.22.35-.25 1.83-2.7 2.16-2.61" fill="#fcd4c3" opacity=".25"/></g><path d="m8.646 10.51a2.217 2.217 0 0 0 .06-.44 3.26 3.26 0 0 1 .05-.45.568.568 0 0 1 .07-.22c.03-.07.05-.14.08-.21a3.789 3.789 0 0 1 .18-.42 8.511 8.511 0 0 1 .87-1.56 8.4 8.4 0 0 1 1.17-1.35 5.022 5.022 0 0 1 1.5-.95 6.471 6.471 0 0 1 1.73-.44 11.656 11.656 0 0 1 1.77-.08 15.035 15.035 0 0 1 1.77.12 8.261 8.261 0 0 1 1.75.42 6.1 6.1 0 0 1 .82.38 3.9 3.9 0 0 1 .74.56 3.381 3.381 0 0 1 .59.72 4.941 4.941 0 0 1 .39.84 6.332 6.332 0 0 1 .24.88c.06.3.11.58.18.85.03.13.08.26.12.39a4.107 4.107 0 0 1 .15.42c.1.27.21.56.31.83a23.893 23.893 0 0 1 .93 3.41 11.552 11.552 0 0 1 .19 1.76 5.752 5.752 0 0 1 -.21 1.75c-.04.14-.09.28-.14.42s-.13.26-.18.4a.761.761 0 0 1 -.08.21 2.116 2.116 0 0 1 -.12.2c-.08.12-.18.25-.27.36a4.907 4.907 0 0 1 -1.4 1.12 9.153 9.153 0 0 1 -1.66.67 17.512 17.512 0 0 1 -1.74.4c-.59.11-1.17.19-1.75.26-.3.03-.59.07-.89.1l-.44.04-.45.03a10.975 10.975 0 0 1 -3.56-.43 12.565 12.565 0 0 1 -1.69-.6 10.988 10.988 0 0 1 -1.59-.84 5.451 5.451 0 0 1 -.73-.56c-.05-.05-.12-.11-.18-.16s-.1-.12-.15-.18a4.393 4.393 0 0 1 -.28-.36 4.163 4.163 0 0 1 -.7-1.71 4.224 4.224 0 0 1 .16-1.84 9.082 9.082 0 0 1 .73-1.65c.3-.51.61-1.02.92-1.51.15-.25.3-.5.43-.75a3.592 3.592 0 0 0 .31-.83zm.44.1a4.08 4.08 0 0 1 -.35.86c-.14.27-.3.53-.45.78-.31.5-.62 1-.9 1.5a7.935 7.935 0 0 0 -.68 1.56 3.8 3.8 0 0 0 -.13 1.64 3.528 3.528 0 0 0 .65 1.5c.08.11.18.22.26.33.04.05.1.11.14.15a1.848 1.848 0 0 0 .14.14 4.922 4.922 0 0 0 .67.51 10.025 10.025 0 0 0 1.52.81 11.7 11.7 0 0 0 1.63.58 14.081 14.081 0 0 0 1.69.35 9.8 9.8 0 0 0 1.71.08l.43-.03.44-.04c.28-.02.58-.05.88-.09.58-.05 1.16-.13 1.73-.23s1.14-.21 1.7-.36a11.185 11.185 0 0 0 1.63-.56 5.016 5.016 0 0 0 1.42-.94 2.789 2.789 0 0 0 .28-.32c.04-.05.09-.12.13-.18a1.41 1.41 0 0 0 .14-.18 2.026 2.026 0 0 0 .21-.38 2.579 2.579 0 0 0 .13-.42 5.67 5.67 0 0 0 .14-1.74 10.224 10.224 0 0 0 -.28-1.73 24.4 24.4 0 0 0 -1.11-3.32c-.11-.27-.22-.55-.33-.81l-.18-.4c-.05-.14-.11-.3-.15-.44-.08-.3-.13-.58-.2-.86a5.491 5.491 0 0 0 -.22-.82 3.474 3.474 0 0 0 -.86-1.4 4.592 4.592 0 0 0 -1.41-.9 7.853 7.853 0 0 0 -1.66-.46 16.636 16.636 0 0 0 -1.73-.19 12.781 12.781 0 0 0 -1.75.03 5.821 5.821 0 0 0 -1.69.42 4.631 4.631 0 0 0 -1.44.93 4.71 4.71 0 0 0 -1.02 1.38 9.2 9.2 0 0 0 -.61 1.61 4.262 4.262 0 0 0 -.11.42c-.02.07-.03.14-.05.21-.01.03-.01.08-.02.11a.418.418 0 0 1 -.04.1c-.07.14-.14.27-.2.4-.02.13-.07.26-.1.4z" fill="#e5d0ae"/><path d="m8.866 10.56c-.46 2.04-4.48 5.25-1.42 8.55a10.862 10.862 0 0 0 7.79 2.52c8.8-.83 11.02-2.95 7.31-12.06-.6-1.48.08-4.89-6.39-5.09-2.72-.08-5.98.3-7.29 6.08" fill="#fff8ee"/><path d="m10.386 6.58a3.967 3.967 0 0 1 1.07-1.09 6 6 0 0 1 1.36-.69 9.469 9.469 0 0 1 2.98-.51 10.93 10.93 0 0 1 3.01.31 6.431 6.431 0 0 1 1.43.56 5 5 0 0 1 1.25.94 5.154 5.154 0 0 1 .89 1.28 7.031 7.031 0 0 1 .51 1.46 13.3 13.3 0 0 1 .26 1.49q.045.375.12.72a1.347 1.347 0 0 0 .09.32l.03.07.01.01.01.01.02.04.1.16a8.319 8.319 0 0 1 .97 2.88 6.022 6.022 0 0 1 .02 1.53 5.467 5.467 0 0 1 -.38 1.48 7.333 7.333 0 0 1 -.34.69c-.03.05-.07.11-.1.16s-.07.1-.11.16c-.01.01-.01.02-.02.03-.03-.02.04.08-.18 0-.05-.1-.02-.08-.03-.1s.01-.04.01-.07l.03-.1.05-.18a7.829 7.829 0 0 0 .34-1.43 3.562 3.562 0 0 0 0-.73 1.71 1.71 0 0 0 -.22-.67.755.755 0 0 0 -.11-.14c-.04-.04-.08-.09-.12-.13-.09-.09-.18-.16-.27-.24a3.964 3.964 0 0 0 -.62-.38 3.165 3.165 0 0 0 -1.42-.25 6.39 6.39 0 0 0 -1.44.25c-.24.07-.47.14-.71.22-.12.04-.24.08-.36.11a1.18 1.18 0 0 1 -.2.04 1.225 1.225 0 0 1 -.19.02 12.621 12.621 0 0 1 -1.51.08 7.781 7.781 0 0 1 -1.51-.18 7.379 7.379 0 0 1 -1.44-.48 5.956 5.956 0 0 1 -1.29-.81 6.9 6.9 0 0 1 -1.05-1.11 6.751 6.751 0 0 1 -1.21-2.77 6.458 6.458 0 0 1 -.116-1.52 4.169 4.169 0 0 1 .1-.77 3.084 3.084 0 0 1 .286-.67zm.22.14a2.1 2.1 0 0 0 -.25.66 5.516 5.516 0 0 0 -.1.71 5.81 5.81 0 0 0 .13 1.44 6.7 6.7 0 0 0 1.2 2.63 6.619 6.619 0 0 0 1.014 1.04 6.087 6.087 0 0 0 1.23.78 6.607 6.607 0 0 0 1.38.47 7.02 7.02 0 0 0 1.44.19 10.371 10.371 0 0 0 1.47-.05l.19-.02q.075-.015.18-.03c.12-.03.23-.07.35-.1.24-.07.48-.14.72-.2a6.17 6.17 0 0 1 1.5-.21 3.452 3.452 0 0 1 1.48.31 3.86 3.86 0 0 1 .65.39 2.264 2.264 0 0 1 .28.25l.13.13a.878.878 0 0 1 .12.15 1.718 1.718 0 0 1 .25.73 3.963 3.963 0 0 1 .01.77 6.821 6.821 0 0 1 -.3 1.48l-.05.18-.02.09c0 .01-.01.03 0 .03-.01-.01.02.02-.02-.08-.21-.08-.13.02-.15-.01a.846.846 0 0 1 .09-.15 1.29 1.29 0 0 1 .09-.16c.11-.22.21-.44.3-.67a5.665 5.665 0 0 0 .23-2.86 7.349 7.349 0 0 0 -.39-1.39 10.452 10.452 0 0 0 -.62-1.31l-.09-.15-.02-.04-.01-.02-.01-.02a.418.418 0 0 1 -.04-.1 3.432 3.432 0 0 1 -.12-.39c-.05-.25-.1-.5-.13-.74-.08-.49-.14-.97-.26-1.44a6.436 6.436 0 0 0 -.47-1.36 4.633 4.633 0 0 0 -.79-1.17 5.265 5.265 0 0 0 -2.44-1.42 10.39 10.39 0 0 0 -2.9-.36 9.061 9.061 0 0 0 -2.88.43 5.211 5.211 0 0 0 -1.3.63 2.7 2.7 0 0 0 -1.074.96z" fill="#e5bfa1"/><path d="m10.256 6.53a3.686 3.686 0 0 1 .56-.67 4.486 4.486 0 0 1 .66-.51 6.3 6.3 0 0 1 1.47-.73 9.1 9.1 0 0 1 3.18-.48 9.851 9.851 0 0 1 3.16.54 6.3 6.3 0 0 1 1.46.75 5.151 5.151 0 0 1 1.17 1.16 5.735 5.735 0 0 1 .74 1.46 8.758 8.758 0 0 1 .38 1.55c.04.26.08.51.12.78.04.25.08.51.12.74a1 1 0 0 0 .1.32l.01.02.01.02.02.04.04.09.1.18c.12.23.24.47.35.71a8.728 8.728 0 0 1 .5 1.52 6.983 6.983 0 0 1 .18 1.59 6.013 6.013 0 0 1 -.86 3.04.138.138 0 0 1 -.2.05.153.153 0 0 1 -.07-.18c.15-.39.32-.77.44-1.15a3.661 3.661 0 0 0 .22-1.16 1.7 1.7 0 0 0 -.33-1.05.218.218 0 0 0 -.04-.05l-.02-.02-.02-.03-.1-.1a2 2 0 0 0 -.22-.19c-.15-.12-.33-.23-.49-.34-.69-.43-1.42-.8-2.17-1.17s-1.5-.71-2.24-1.05c-1.51-.69-3.02-1.38-4.51-2.12-.74-.38-1.48-.77-2.2-1.23a10.812 10.812 0 0 1 -1.07-.82 2.248 2.248 0 0 1 -.46-.57.951.951 0 0 1 -.13-.44 1.1 1.1 0 0 1 .02-.26.647.647 0 0 1 .04-.13.582.582 0 0 1 .05-.11zm.61.37c-.02.03-.01.02-.02.03s0 .01-.01.02v.04a.676.676 0 0 0 .04.15 1.616 1.616 0 0 0 .32.39 6.2 6.2 0 0 0 .93.72c.67.45 1.39.84 2.12 1.24 1.46.77 2.95 1.48 4.44 2.2.74.36 1.49.73 2.23 1.11a22.694 22.694 0 0 1 2.19 1.24 4.823 4.823 0 0 1 .51.38c.09.07.16.14.25.22a1.538 1.538 0 0 1 .12.13l.02.03.03.03a.423.423 0 0 1 .05.07 2.309 2.309 0 0 1 .3.61 2.2 2.2 0 0 1 .08.67 4.237 4.237 0 0 1 -.27 1.27c-.14.4-.32.78-.48 1.16l-.26-.13a5.635 5.635 0 0 0 .74-2.89 7.252 7.252 0 0 0 -.71-2.92c-.11-.23-.22-.46-.35-.68l-.2-.35a1.385 1.385 0 0 1 -.14-.42 7.81 7.81 0 0 1 -.15-.79c-.04-.26-.09-.51-.13-.75a10.472 10.472 0 0 0 -.39-1.46 5.32 5.32 0 0 0 -.69-1.29 4.533 4.533 0 0 0 -1.036-1.01 5.522 5.522 0 0 0 -1.31-.65 9.459 9.459 0 0 0 -2.95-.44 8.239 8.239 0 0 0 -1.49.11 8.553 8.553 0 0 0 -1.43.36 6.087 6.087 0 0 0 -1.31.63 3.466 3.466 0 0 0 -.57.44 3.252 3.252 0 0 0 -.474.53z" fill="#895b2e"/><path d="m10.5 6.65c-1.2 1.86.23 9.01 7.79 8.04.8-.1 3.46-1.52 5.25.47.97 1.09-.34 3.86 0 3.28.38-.63 1.85-3.09-.35-6.86-.7-1.21.46-7.05-7.11-7.12-2.9-.01-4.78.95-5.58 2.19" fill="#ba8449"/><g clip-path="url(#m)"><path d="m10.3 7.1c2.18-1.4 8.76-1.3 10.87 2.06 1.4 2.23-1.16 7.75-2.11 8.45s-2.25 1.31-5.71.48c-2.93-.7 1.48-3.42-1.96-3.82-3.15-.36-3.46-5.64-1.09-7.17" fill="#e3ab5e" opacity=".15"/></g><g clip-path="url(#n)"><path d="m16.386 12.52c0 .16-.32.31-.71.31s-.71-.13-.71-.31c0-.16.32-.31.71-.31s.71.15.71.31" fill="#e3ab5e" opacity=".25"/></g><path d="m15.126 11.63a1.948 1.948 0 0 1 1.15.04c.11.11.35.57.08.77-.1.07-.1-.21-.32-.16-.26.05-.12.39-.33.39-.32-.01-.01-.37-.28-.42-.21-.04-.25.16-.35.14-.32-.06-.18-.61.05-.76" fill="#f8a38f"/><g clip-path="url(#o)"><path d="m15.6 11.56a1.042 1.042 0 0 0 -.47.07c-.23.15-.37.7-.07.76h.01c.08 0 .12-.15.28-.15h.05c.27.04-.02.42.28.42.2 0 .05-.33.33-.38h.04c.15 0 .18.18.24.18a.037.037 0 0 0 .03-.01c.28-.2.04-.66-.08-.77-.03-.07-.34-.12-.64-.12m0 .08a1.52 1.52 0 0 1 .62.08.75.75 0 0 1 .18.48.187.187 0 0 1 -.08.15c0-.01-.01-.01-.02-.02a.3.3 0 0 0 -.23-.14.075.075 0 0 0 -.05.01c-.19.04-.22.19-.25.28s-.03.1-.07.1c-.09 0-.09-.02-.09-.12s0-.25-.2-.28h-.07a.393.393 0 0 0 -.25.12c-.01.01-.03.03-.04.03a.137.137 0 0 1 -.11-.12.616.616 0 0 1 .2-.5.914.914 0 0 1 .46-.07" fill="#f8a38f"/></g><g clip-path="url(#p)"><path d="m22.426 14.5c.33 2.1-2.3 4.74-5.83 5.28s-6.14-2.62-6.47-4.73 1.84-1.3 5.37-1.84 6.6-.81 6.93 1.29" fill="#f7e8d0" opacity=".25"/></g><g clip-path="url(#q)"><path d="m13.2 17.7a2.281 2.281 0 0 1 -.21-.51l-.16-.53a7.516 7.516 0 0 0 -.39-1.03 2.736 2.736 0 0 0 -.63-.86 1.988 1.988 0 0 0 -.92-.45.2.2 0 0 1 -.13-.27.218.218 0 0 1 .25-.14 10.958 10.958 0 0 0 2.42.28 18.521 18.521 0 0 0 2.46-.13 22.057 22.057 0 0 0 2.43-.43 23.759 23.759 0 0 0 2.37-.67.2.2 0 0 1 .27.13.2.2 0 0 1 -.07.23.729.729 0 0 0 -.1.09c-.03.03-.07.08-.1.11-.07.08-.13.16-.2.25a6.326 6.326 0 0 0 -.36.54c-.24.36-.46.73-.67 1.12s-.42.77-.6 1.15a5.054 5.054 0 0 0 -.26.59c-.04.1-.08.2-.12.31a.835.835 0 0 0 -.04.15v.02c0 .01 0 .01-.01.02a.021.021 0 0 1 -.02.02.138.138 0 0 1 -.04.03.2.2 0 0 1 -.08.04 4.01 4.01 0 0 1 -.63.18c-.21.04-.43.08-.65.1-.44.05-.86.1-1.3.11a9.359 9.359 0 0 1 -1.3-.02 3.531 3.531 0 0 1 -.65-.11 1.66 1.66 0 0 1 -.31-.12.958.958 0 0 1 -.25-.2m.02-.01a.558.558 0 0 0 .25.2 2.826 2.826 0 0 0 .31.11 3.521 3.521 0 0 0 .65.1 11.28 11.28 0 0 0 1.3.01c.44-.02.86-.08 1.29-.13a6.38 6.38 0 0 0 .63-.12 2.9 2.9 0 0 0 .61-.19.573.573 0 0 0 .07-.04q.03-.015.03-.03a.936.936 0 0 1 .04-.16c.03-.11.07-.21.1-.32.08-.21.15-.4.24-.61.18-.4.35-.8.54-1.19s.38-.79.59-1.17c.1-.2.21-.38.33-.58a1.378 1.378 0 0 1 .19-.28c.03-.04.07-.1.1-.14a1.659 1.659 0 0 1 .13-.14l.21.37c-.8.27-1.6.49-2.42.68a23.239 23.239 0 0 1 -2.47.44 17.582 17.582 0 0 1 -2.52.13 11.91 11.91 0 0 1 -2.52-.32l.12-.44a3.836 3.836 0 0 1 .94.72 3.586 3.586 0 0 1 .57.98 10.761 10.761 0 0 1 .33 1.06c.04.18.1.36.14.54a2.2 2.2 0 0 0 .22.52" fill="#d8cab2" opacity=".5"/></g><g clip-path="url(#r)"><path d="m13.206 17.7a2.2 2.2 0 0 1 -.21-.5c-.06-.17-.1-.35-.15-.53a8.115 8.115 0 0 0 -.38-1.04 3.015 3.015 0 0 0 -.61-.88 1.9 1.9 0 0 0 -.92-.5v-.01a.122.122 0 0 1 -.07-.14.129.129 0 0 1 .13-.08 11.157 11.157 0 0 0 2.45.28 18.494 18.494 0 0 0 2.47-.13c.82-.1 1.63-.25 2.44-.43a24.138 24.138 0 0 0 2.39-.67.112.112 0 0 1 .14.07.131.131 0 0 1 -.03.12 1.487 1.487 0 0 0 -.21.22c-.07.08-.13.18-.2.25-.12.18-.24.36-.35.55-.23.36-.45.74-.66 1.13s-.4.77-.58 1.16l-.26.59a2.826 2.826 0 0 0 -.11.31.835.835 0 0 0 -.04.15c-.01.04-.04.05-.07.08a.2.2 0 0 1 -.08.04 4.01 4.01 0 0 1 -.63.18c-.21.04-.43.08-.65.11-.43.05-.86.1-1.3.12a9.359 9.359 0 0 1 -1.3-.02 3.531 3.531 0 0 1 -.65-.11 2.832 2.832 0 0 1 -.31-.11.653.653 0 0 1 -.25-.21m0-.01a.654.654 0 0 0 .25.21 2.826 2.826 0 0 0 .31.11 3.521 3.521 0 0 0 .65.1 9.4 9.4 0 0 0 1.3.01c.44-.02.86-.07 1.3-.13.21-.03.43-.07.65-.12a2.412 2.412 0 0 0 .61-.19.573.573 0 0 0 .07-.04c.02-.01.04-.03.04-.04a.936.936 0 0 1 .04-.16 2.832 2.832 0 0 1 .11-.31c.08-.21.16-.4.25-.6.18-.4.36-.79.56-1.18s.39-.78.61-1.16c.11-.2.22-.38.34-.56a1.308 1.308 0 0 1 .19-.27 1.386 1.386 0 0 1 .23-.26l.11.2c-.79.27-1.6.49-2.41.68s-1.63.33-2.46.44a17.443 17.443 0 0 1 -2.51.13 12.366 12.366 0 0 1 -2.49-.3l.05-.21a2.376 2.376 0 0 1 .94.65 3.322 3.322 0 0 1 .58.95 9.238 9.238 0 0 1 .35 1.05c.04.18.1.35.15.54a1.284 1.284 0 0 0 .18.46" fill="#d8cab2" opacity=".5"/></g><path d="m13.206 17.69c.56.88 5.12.27 5.2-.08a17.044 17.044 0 0 1 2.36-4.45c-.94.33-5.83 1.89-9.8.94 1.79.6 1.81 2.91 2.24 3.59" fill="#333"/><g clip-path="url(#s)"><path d="m20.756 13.17a23.509 23.509 0 0 1 -7.01 1.25 12.421 12.421 0 0 1 -2.79-.3c1.79.58 1.82 2.9 2.25 3.58.21.33 1.01.45 1.91.45 1.47 0 3.23-.31 3.28-.53a16.752 16.752 0 0 1 2.36-4.45m-.61.43a19.987 19.987 0 0 0 -1.95 3.92 10.035 10.035 0 0 1 -3.07.42c-1.12 0-1.62-.19-1.73-.35a2.745 2.745 0 0 1 -.28-.82 5.068 5.068 0 0 0 -1.07-2.22 13.6 13.6 0 0 0 1.72.1 24.254 24.254 0 0 0 6.38-1.05" fill="#333"/></g><path d="m15.086 18.15a2.678 2.678 0 0 1 -1.79-.39c-.02-.02-.02-.15.09-.4a2.96 2.96 0 0 1 2.47-1.72c.1 0 .19-.01.27-.01a3.33 3.33 0 0 1 2.63.97c-.02.04-.04.11-.08.2-.09.21-.22.54-.34.89a10.587 10.587 0 0 1 -3.25.46" fill="#fcd4c3"/><path d="m16.126 15.57a2.529 2.529 0 0 0 -.28.01c-1.91.12-2.8 2.01-2.6 2.24a2.817 2.817 0 0 0 1.85.42 9.281 9.281 0 0 0 3.32-.5c.16-.49.35-.9.43-1.09.04-.21-1.06-1.1-2.72-1.08m0 .14a3.442 3.442 0 0 1 2.55.91c-.02.04-.04.1-.07.16-.09.21-.22.51-.34.86a11.091 11.091 0 0 1 -3.18.43 2.783 2.783 0 0 1 -1.73-.36 1.61 1.61 0 0 1 .34-.77 2.85 2.85 0 0 1 2.16-1.24h.27" fill="#f8a38f"/><g clip-path="url(#t)"><path d="m13.266 17.7c-.13.59 3.49-2.31 5.44-.92.4-.54-1.75-1.44-3.01-1.24a2.855 2.855 0 0 0 -2.43 2.16" fill="#fcd4c3"/></g><path d="m14 14.58c.19.33.53 1.93.67 1.96a6.261 6.261 0 0 0 1.16.23c.13-.05.12-.36.25-.27.11.08.16.22.27.16a3.91 3.91 0 0 0 .88-.61 5.972 5.972 0 0 0 0-1.79 12.666 12.666 0 0 1 -3.23.32" fill="#fff7e3"/><g clip-path="url(#u)"><path d="m17.236 14.26a14.061 14.061 0 0 1 -2.91.34 3.012 3.012 0 0 1 -.32-.01c.19.33.53 1.93.67 1.96a8.5 8.5 0 0 0 1.11.24.075.075 0 0 0 .05-.01c.11-.04.12-.28.21-.28a.04.04 0 0 1 .04.02c.1.05.14.18.23.18a.06.06 0 0 0 .04-.01 3.91 3.91 0 0 0 .88-.61 6.578 6.578 0 0 0 0-1.82m-.06.1a6.093 6.093 0 0 1 0 1.66 3.5 3.5 0 0 1 -.84.59h-.01c-.02 0-.05-.03-.08-.07a1.1 1.1 0 0 0 -.11-.1.14.14 0 0 0 -.09-.03c-.1 0-.13.1-.16.18-.02.04-.04.11-.08.12h-.03a6.543 6.543 0 0 1 -.97-.21.574.574 0 0 0 -.1-.02 6.072 6.072 0 0 1 -.32-.96c-.1-.34-.19-.66-.26-.84h.21a16.309 16.309 0 0 0 2.84-.32" fill="#ffdc99"/></g><g clip-path="url(#v)"><path d="m14.256 15.35c-.05-.59 2.67-.79 3.01-.73 0-.14-.02-.23-.02-.39a11.257 11.257 0 0 1 -3.23.37 5.532 5.532 0 0 1 .24.75" fill="#eadcbe"/></g><g clip-path="url(#w)"><path d="m15.616 14.91c.05.13.11.25.15.38l.13.39.12.39.12.39-.19.05-.09-.4-.1-.4-.1-.39c-.04-.13-.08-.26-.12-.38a.694.694 0 0 0 .08-.03z" fill="#ffdc99"/></g><g clip-path="url(#x)"><path d="m6.406 5.64c1.44.37 1.21 2.87 2.07 3.06s1.99-2.06 2.1-2.55c-1.66-.71-2.44-1.54-3.63-1.3-.4.08-.95.68-.54.79" fill="#fcd4c3" opacity=".4"/></g><g clip-path="url(#y)"><path d="m10.406 12.94c1.82.14 3.32.22 3.85-.34s.73-3.03 1.61-2.97c.74.05 1 3.27 1.48 3.36s3.88 1.03 4.74.15c.84-.88 1.24-1.42 1.04-1.95s-5.18-2.22-6.19-2.32-7.89.77-8.06 1.19c-.18.44-.36.37-.33.83.05.9.04 1.91 1.86 2.05" fill="#e3ab5e" opacity=".5"/></g><path d="m15.5 9.28a2.211 2.211 0 0 1 .77.05c.66.51.63 2.63 1.32 3.28.61.59 3.96 1.02 4.54.35s1.43-2.7 1.63-2.86c.2-.14.63-.25.77-.46s.02-1.09-.28-1.05a3.671 3.671 0 0 1 -1.25.13c-.36-.11-2.12-1.21-6.55-.55a2.805 2.805 0 0 1 -1.15-.08c-.3-.08-1.96-1.04-6.41-.4a7.761 7.761 0 0 1 -1.27-.11c-.22.02-.28.71-.2.89s.55.33.6.55a6.664 6.664 0 0 0 1.51 3.25c1.12.94 3.96.28 4.21.11 1.13-.79 1.38-3.1 1.76-3.1" fill="#333"/><g clip-path="url(#z)"><path d="m11.666 7.5a18 18 0 0 0 -2.8.22 1.339 1.339 0 0 1 -.2.01c-.38 0-.83-.12-1.04-.12h-.026c-.22.02-.28.71-.2.89s.55.33.6.55a6.664 6.664 0 0 0 1.51 3.25 3 3 0 0 0 1.88.49 6.608 6.608 0 0 0 2.33-.38c1.14-.81 1.4-3.12 1.78-3.12.05 0 .2-.01.33-.01a1.163 1.163 0 0 1 .43.05c.66.51.63 2.63 1.32 3.28a6.175 6.175 0 0 0 3.09.69 2.117 2.117 0 0 0 1.44-.34c.58-.67 1.43-2.7 1.63-2.86s.63-.25.77-.46c.12-.2.02-1.05-.27-1.05h-.02a7.63 7.63 0 0 1 -1 .15.952.952 0 0 1 -.25-.03 8.659 8.659 0 0 0 -3.91-.76 16.877 16.877 0 0 0 -2.65.21 2.236 2.236 0 0 1 -.36.02 2.9 2.9 0 0 1 -.78-.1 10.163 10.163 0 0 0 -3.6-.58m0 .22a8.316 8.316 0 0 1 3.37.55c.08.03.13.05.19.07a3.979 3.979 0 0 0 .83.11 2.468 2.468 0 0 0 .39-.03 17.716 17.716 0 0 1 2.62-.21 8.323 8.323 0 0 1 3.63.67c.1.04.16.07.22.09a1.08 1.08 0 0 0 .32.04 3.377 3.377 0 0 0 .72-.1c.1-.02.2-.04.27-.05a1.2 1.2 0 0 1 .11.72 1.065 1.065 0 0 1 -.36.21 1.358 1.358 0 0 0 -.34.18 3.651 3.651 0 0 0 -.59 1.02 11.1 11.1 0 0 1 -1.07 1.86c-.11.13-.5.26-1.29.26a6.215 6.215 0 0 1 -2.94-.62 3.473 3.473 0 0 1 -.61-1.6 3.358 3.358 0 0 0 -.72-1.71.881.881 0 0 0 -.56-.11h-.34c-.31 0-.44.36-.67 1.02a4.433 4.433 0 0 1 -1.24 2.14 6.693 6.693 0 0 1 -2.21.35 2.736 2.736 0 0 1 -1.74-.44 5.371 5.371 0 0 1 -1.414-3.04.574.574 0 0 1 -.02-.1c-.05-.21-.25-.33-.42-.44a.934.934 0 0 1 -.2-.15 1.083 1.083 0 0 1 .07-.58 2.19 2.19 0 0 1 .31.04 5.132 5.132 0 0 0 .71.08.858.858 0 0 0 .23-.02 20.761 20.761 0 0 1 2.74-.21" fill="#1a1a1a"/></g><g clip-path="url(#A)"><path d="m9.226 9.07c-.1.13-.16 2.07.66 2.59a6.056 6.056 0 0 0 3.27.02 3.475 3.475 0 0 0 1.21-2.51c-.33-.44-2.69-1.02-4.46-.56a1.644 1.644 0 0 0 -.68.46z" fill="none" opacity=".5" stroke="#333" stroke-miterlimit="10"/></g><path d="m9.226 9.07c-.1.13-.16 2.07.66 2.59a6.056 6.056 0 0 0 3.27.02 3.475 3.475 0 0 0 1.21-2.51c-.33-.44-2.69-1.02-4.46-.56a1.554 1.554 0 0 0 -.68.46" fill="#fff"/><g clip-path="url(#B)"><path d="m22.6 9.91c.09.14-.11 2.07-.98 2.49a6.177 6.177 0 0 1 -3.24-.4 3.491 3.491 0 0 1 -.89-2.65c.38-.39 2.8-.66 4.5.02a1.689 1.689 0 0 1 .61.54z" fill="none" opacity=".5" stroke="#333" stroke-miterlimit="10"/></g><path d="m22.6 9.92c.09.14-.11 2.07-.98 2.49a6.177 6.177 0 0 1 -3.24-.4 3.491 3.491 0 0 1 -.89-2.65c.38-.39 2.8-.66 4.5.02a1.516 1.516 0 0 1 .61.54" fill="#fff"/><path d="m11.816 10.25c-.05.43-.27.74-.48.71s-.32-.39-.26-.82.27-.74.48-.71.32.39.26.82"/><path d="m20.546 10.73c.04.43-.09.79-.28.81-.21.02-.4-.31-.45-.73s.09-.79.28-.81.39.31.45.73"/><g clip-path="url(#C)"><path d="m7.616 8.23c.25.16.48.07.54.39s.81 3.17 1.75 3.5a6.023 6.023 0 0 0 3.75-.15c.26-.16 1.5-2.93 1.71-3.04a1.891 1.891 0 0 1 1.01.08c.43.19 1.21 3.18 1.42 3.34.95.67 4 .61 4.15.44.15-.19 1.29-2.8 1.5-2.95.3-.23.98-.38 1.01-.28s-.56.2-.73.4a23.291 23.291 0 0 1 -1.69 2.94 5.989 5.989 0 0 1 -4.39-.37c-.65-.46-.9-3.18-1.41-3.34a1.359 1.359 0 0 0 -.82-.02c-.32.21-.77 2.53-1.72 3.11-.38.23-3.35.81-4.23-.12-1.65-1.73-1.15-3.27-1.69-3.49-.36-.15-.44-.35-.44-.48.03-.16.15-.05.28.04" fill="#333" opacity=".3"/></g><g clip-path="url(#D)"><path d="m7.646 7.65a4.078 4.078 0 0 0 1.08.3 5.126 5.126 0 0 0 1.09-.32c.16-.05-.85.13-1.11.12-.24-.01-.96-.07-1.06-.1" fill="#333" opacity=".3"/></g><g clip-path="url(#E)"><path d="m14.746 8.16c.32.14.46.5.77.54a1.828 1.828 0 0 0 .85-.01 4.311 4.311 0 0 1 .73-.35 10.592 10.592 0 0 1 -1.36.11 8.442 8.442 0 0 1 -.99-.29" fill="#333" opacity=".3"/></g><g clip-path="url(#F)"><path d="m22.506 8.58c-.13-.05.48.44.67.42a3.968 3.968 0 0 0 .66-.28 4.222 4.222 0 0 1 -.6.08 3.894 3.894 0 0 1 -.73-.22" fill="#333" opacity=".3"/></g><g clip-path="url(#G)"><path d="m8.886 8.78c.81-.8 2.74-.53 3.09-.46-2.31.16-2.35.34-2.76.74a4.926 4.926 0 0 0 .23 2.29 3.474 3.474 0 0 1 -.56-2.57" fill="#333" opacity=".3"/></g><g clip-path="url(#H)"><path d="m23.046 9.65c-.7-.9-2.64-.89-3-.85 2.26.47 2.29.65 2.64 1.11a4.743 4.743 0 0 1 -.51 2.23 3.756 3.756 0 0 0 .87-2.49" fill="#333" opacity=".3"/></g><g clip-path="url(#I)"><path d="m9.246 10.4c.08-.94.16-1.71 2.04-1.76 1.5-.04 2.69.31 2.86.67a2.8 2.8 0 0 1 -.72 2.16c.48-.43 1.25-2.12.92-2.33a6.687 6.687 0 0 0 -4.53-.48 1.611 1.611 0 0 0 -.6.44 5.025 5.025 0 0 0 .03 1.3" fill="#d0dddc"/></g><g clip-path="url(#J)"><path d="m9.306 10.47c.28 1.84 3.64 1.28 3.84 1.2a4.7 4.7 0 0 1 -3.23.02c-.59-.22-.64-1.43-.61-1.22" fill="#d0dddc"/></g><g clip-path="url(#K)"><path d="m22.446 11.22c.04-.95.04-1.71-1.79-1.99-1.48-.23-2.7-.03-2.92.31a2.768 2.768 0 0 0 .46 2.23c-.43-.49-.98-2.25-.62-2.43a6.691 6.691 0 0 1 4.55.08 1.708 1.708 0 0 1 .55.51 7.287 7.287 0 0 1 -.23 1.29" fill="#d0dddc"/></g><g clip-path="url(#L)"><path d="m22.376 11.28c-.5 1.78-3.77.82-3.96.72a4.774 4.774 0 0 0 3.21.43c.61-.16.82-1.36.75-1.15" fill="#d0dddc"/></g><g clip-path="url(#M)"><path d="m11.766 9.7a.111.111 0 0 0 -.11-.11.11.11 0 0 0 0 .22.1.1 0 0 0 .11-.11" fill="#fff" opacity=".25"/></g><g clip-path="url(#N)"><path d="m20.406 10.21a.11.11 0 0 0 -.22 0 .1.1 0 0 0 .11.11.111.111 0 0 0 .11-.11" fill="#fff" opacity=".25"/></g><g clip-path="url(#O)"><path d="m7.676 8.11a.7.7 0 0 0 .78.28c3.4-.44 5.28-.43 6.22.44.2.19.09-.56-.28-.66a10.709 10.709 0 0 0 -5.38-.02 7.769 7.769 0 0 1 -1.34-.04" fill="#d0dddc" opacity=".1"/></g><g clip-path="url(#P)"><path d="m17.086 8.55c-.08.08-.04.86.33.57 1.07-.85 3.32-.66 4.88-.13-.25-.49-2.08-.83-3.11-.82a6.158 6.158 0 0 0 -2.1.38" fill="#d0dddc" opacity=".1"/></g><path d="m23.566 9.18c0 .03-.18.05-.38.05s-.38-.02-.38-.05.18-.05.38-.05.38.02.38.05" fill="#d0dddc"/><path d="m8.816 8.23c0 .03-.18.03-.38 0s-.37-.09-.36-.12.18-.03.38 0 .37.08.36.12" fill="#d0dddc"/><path d="m30 25.77a1 1 0 0 0 -1.01-.96.967.967 0 0 0 -.44.09l-.09.04-.08.05a1.824 1.824 0 0 1 -.46.25 2.428 2.428 0 0 1 .02-.46v-.02c.12-1.17-.12-1.86-.73-2.04a1.124 1.124 0 0 0 -.32-.04 1.625 1.625 0 0 0 -.91.33 1.037 1.037 0 0 0 -.85-.35 1.183 1.183 0 0 0 -1.17.68 2.05 2.05 0 0 0 -.07.2 1.719 1.719 0 0 0 -1.62-1 2.6 2.6 0 0 0 -1.37.39c-.01.01-.02.01-.03.02a3.994 3.994 0 0 0 -1.3 1.5 2.388 2.388 0 0 0 -1.06-1.37l-.01-.01c-.02-.01-.03-.02-.04-.02a5.277 5.277 0 0 0 .78-3.67c-.33-1.38-1.14-1.58-1.59-1.58a1.727 1.727 0 0 0 -.58.1h-.02a2.851 2.851 0 0 0 -1.31.96 8.568 8.568 0 0 0 -1.25 3.63c-.02.23-.05.47-.08.71a1.219 1.219 0 0 0 -.69-.46 1.242 1.242 0 0 0 -.33-.04 1.6 1.6 0 0 0 -1.06.48.987.987 0 0 0 -.78-.44h-.08a1.814 1.814 0 0 0 -1.19.47 1.076 1.076 0 0 0 -.94-.54h-.17a1.178 1.178 0 0 0 -1.17.7 1.028 1.028 0 0 0 -.04.13 2.079 2.079 0 0 0 -1.75-.8h-.08a2.66 2.66 0 0 0 -2.35 1.82 4.682 4.682 0 0 0 -.26.74.86.86 0 0 0 -.4-.09.944.944 0 0 0 -.79.42 1.61 1.61 0 0 0 -.28 1.3 1.028 1.028 0 0 0 .61.66 8.562 8.562 0 0 0 .86.28 2.856 2.856 0 0 0 .94 1.15 2.144 2.144 0 0 0 1.33.4 4.745 4.745 0 0 0 1.85-.43l.03-.02.01-.01a1.216 1.216 0 0 0 .68.36 1.548 1.548 0 0 0 .33.03 1.351 1.351 0 0 0 1.14-.71 1.445 1.445 0 0 0 1.27.62c.03 0 .05.02.1.02a1.064 1.064 0 0 0 .95-.59 1.393 1.393 0 0 0 1.26.71 2.31 2.31 0 0 0 .98-.24l.02-.01c.16-.09.3-.16.4-.22a3.3 3.3 0 0 0 1.59.4 2.055 2.055 0 0 0 .35-.02h.06a12.278 12.278 0 0 0 2.91-.89 2.744 2.744 0 0 0 1.88.92c.1.01.2.01.3.01a3.757 3.757 0 0 0 1.73-.43 1.5 1.5 0 0 0 .53.36 1.14 1.14 0 0 0 .4.08c.89 0 1.3-1.05 1.41-1.41l.21-.57a1.646 1.646 0 0 0 .73.45 2.258 2.258 0 0 0 .53.08 3.818 3.818 0 0 0 2.06-.81 1.46 1.46 0 0 0 .5-1.29" fill="#fff"/><path d="m21.066 26.06a1.891 1.891 0 0 1 .34-1.27c.46-.83.81-.38.81-.38a.836.836 0 0 1 -.05 1.06 1.352 1.352 0 0 1 -1.1.59m-3.52.6a1.3 1.3 0 0 1 -1.79.81 3.915 3.915 0 0 1 .27-1.86c.41-1.37 1.38-.83 1.38-.83s.67.51.14 1.88m-.95-5.74s.79-2.07.98-1.06-1.66 3.99-1.66 3.99a22.26 22.26 0 0 1 .68-2.93m-11.32 5.14c.03-1.32.9-1.9 1.2-1.62s.2.92-.38 1.3c-.56.4-.82.32-.82.32m23.99-.22a.306.306 0 0 0 -.45-.28 2.149 2.149 0 0 1 -1.21.45c-.57-.05-.38-1.32-.38-1.32s.12-1.17-.21-1.27-.74.31-.74.31a4.319 4.319 0 0 0 -.76 1.29l-.07.02a9.042 9.042 0 0 0 -.01-1.56c-.07-.14-.68-.13-.78.12a15.2 15.2 0 0 0 -.62 2.79 4.765 4.765 0 0 1 -1.79.95c-.84.13-1.04-.39-1.04-.39s2.28-.63 2.2-2.45-1.84-1.15-2.04-1a3.549 3.549 0 0 0 -1.52 2.47c-.01.05-.03.32-.03.32a7.952 7.952 0 0 1 -1.37.74s1.37-2.31-.31-3.36c-.76-.46-1.37.5-1.37.5s2.27-2.52 1.76-4.65c-.24-1.02-.74-1.13-1.21-.96a2.068 2.068 0 0 0 -.97.69 7.681 7.681 0 0 0 -1.13 3.3c-.21 1.98-.53 4.35-.53 4.35a1.664 1.664 0 0 1 -.83.45c-.4.02-.22-1.19-.22-1.19s.31-1.85.28-2.17-.04-.48-.42-.59c-.36-.11-.77.36-.77.36s-1.06 1.61-1.15 1.85l-.05.1-.05-.07s.74-2.19.03-2.22-1.18.78-1.18.78-.81 1.37-.84 1.52l-.05-.07a10.711 10.711 0 0 0 .27-1.98.361.361 0 0 0 -.44-.31s-.47-.05-.59.25a21.75 21.75 0 0 0 -.62 2.93 4.628 4.628 0 0 1 -1.94.84c-.77.01-.69-.49-.69-.49s2.82-.96 2.06-2.88a1.373 1.373 0 0 0 -1.31-.63 1.977 1.977 0 0 0 -1.7 1.38 3.278 3.278 0 0 0 -.31 1.3 1.173 1.173 0 0 1 -.8-.12c-.27-.22-.43 0-.43 0s-.47.67-.01.84a11.263 11.263 0 0 0 1.16.35 2.05 2.05 0 0 0 .81 1.18c.83.63 2.44-.1 2.44-.1l.664-.39s.02.59.5.68.68-.01 1.52-2.04c.49-1.04.53-.98.53-.98l.05-.01a10.535 10.535 0 0 0 -.23 2.52.738.738 0 0 0 .78.48s.35.12.62-.86a12.9 12.9 0 0 1 .81-2.01h.07a7.025 7.025 0 0 0 .12 2.63c.36.65 1.28.2 1.28.2a6.113 6.113 0 0 0 .74-.44 2.636 2.636 0 0 0 1.85.53 8.756 8.756 0 0 0 3.28-1.13 2.013 2.013 0 0 0 1.71 1.15 2.827 2.827 0 0 0 2.28-.82.894.894 0 0 0 .5.81c.51.21.86-.91.86-.91l.86-2.31h.08s.04 1.48.9 1.72 1.96-.61 1.96-.61.26-.13.2-.58" fill="#e24b31"/></svg>