<svg xmlns="http://www.w3.org/2000/svg" viewBox="0 0 32 32"><title>file_type_gridsome</title><path fill-rule="evenodd" clip-rule="evenodd" d="M27.315 13.587c1.347-.065 2.539.981 2.655 2.33.504 6.53-5.356 13.833-13.765 14.067a2.446 2.446 0 0 1-2.508-2.383 2.447 2.447 0 0 1 2.372-2.518c5.58-.155 9.113-4.98 8.925-8.93a2.448 2.448 0 0 1 2.32-2.566z" fill="url(#paint0_linear)"/><path fill-rule="evenodd" clip-rule="evenodd" d="M4.467 13.448a2.446 2.446 0 0 1 2.441 2.451c0 5.65 4.537 9.308 9.07 9.196a2.445 2.445 0 0 1 2.5 2.39 2.447 2.447 0 0 1-2.38 2.511C9.01 30.171 2.001 24.49 2.001 15.9c0-1.354 1.117-2.451 2.465-2.451z" fill="url(#paint1_linear)"/><path d="M21.217 16.09a2.516 2.516 0 0 1 2.521-2.51h3.675c1.393 0 2.557 1.123 2.557 2.51 0 1.385-1.164 2.509-2.557 2.509h-3.675a2.516 2.516 0 0 1-2.521-2.51z" fill="url(#paint2_linear)"/><path d="M13.506 16.093a2.51 2.51 0 0 1 2.504-2.514 2.51 2.51 0 0 1 2.504 2.514 2.51 2.51 0 0 1-2.504 2.513 2.51 2.51 0 0 1-2.504-2.513z" fill="url(#paint3_linear)"/><path fill-rule="evenodd" clip-rule="evenodd" d="M18.445 4.35a2.447 2.447 0 0 1-2.338 2.55c-5.815.243-9.365 4.82-9.192 9.166.054 1.353-.973 2.493-2.32 2.547-1.347.054-2.532-1.038-2.585-2.39C1.728 9.14 7.616 2.14 15.905 2.002a2.445 2.445 0 0 1 2.54 2.347z" fill="url(#paint4_linear)"/><defs><linearGradient id="paint0_linear" x1="17.067" y1="35.852" x2="24.699" y2="36.832" gradientUnits="userSpaceOnUse"><stop stop-color="#1A7D75"/><stop offset="1" stop-color="#1A8864"/></linearGradient><linearGradient id="paint1_linear" x1="2.924" y1="15.288" x2="-.93" y2="25.407" gradientUnits="userSpaceOnUse"><stop offset=".013" stop-color="#168A81"/><stop offset="1" stop-color="#31A97F"/></linearGradient><linearGradient id="paint2_linear" x1="8.586" y1="16.615" x2="15.071" y2="26.434" gradientUnits="userSpaceOnUse"><stop stop-color="#27A59B"/><stop offset="1" stop-color="#64D8A2"/></linearGradient><linearGradient id="paint3_linear" x1="6.279" y1="16.619" x2="13.267" y2="22.664" gradientUnits="userSpaceOnUse"><stop stop-color="#27A59B"/><stop offset="1" stop-color="#64D8A2"/></linearGradient><linearGradient id="paint4_linear" x1="36.809" y1="-21.58" x2="16.261" y2="-28.506" gradientUnits="userSpaceOnUse"><stop stop-color="#27A59B"/><stop offset="1" stop-color="#64D8A2"/></linearGradient></defs></svg>
