<svg width="32" height="32" version="1.1" viewBox="0 0 32 32" xml:space="preserve" xmlns="http://www.w3.org/2000/svg"><path d="m29.937 18.031c-0.15001-0.39685-0.36665-0.76542-0.64079-1.0902-0.28073-0.33057-0.61293-0.61435-0.98405-0.84042-0.3887-0.23756-0.81391-0.41011-1.2588-0.51085v-0.0682c0.76833-0.19687 1.4537-0.6315 1.9569-1.2412 0.51099-0.6147 0.76655-1.3701 0.7667-2.2663 0-0.77456-0.16404-1.4463-0.49206-2.0155-0.32178-0.56224-0.76301-1.048-1.2931-1.4234-0.55062-0.38728-1.167-0.67283-1.8194-0.84304-0.68276-0.18247-1.3869-0.27435-2.094-0.27322-0.66489-7.763e-4 -1.3269 0.087194-1.9682 0.26152-0.62676 0.16822-1.2246 0.42889-1.7736 0.77322-0.54027 0.33978-1.0166 0.77081-1.4075 1.2735-0.40947 0.53296-0.71246 1.1389-0.89253 1.7852l3.5702 0.81873c0.1025-0.51375 0.38168-0.97604 0.78959-1.3077 0.40366-0.32575 0.91039-0.49894 1.4303-0.48894 0.51092-0.0073 1.0098 0.15362 1.419 0.45768 0.41195 0.30526 0.61789 0.74763 0.61789 1.3272 0 0.3965-0.0801 0.71693-0.24046 0.96115-0.16107 0.24472-0.3814 0.44534-0.64079 0.58344-0.28194 0.14987-0.58762 0.25046-0.9038 0.29739-0.34836 0.0543-0.70048 0.08103-1.0531 0.07996h-1.1211v2.7744h1.0298c0.39891 2.13e-4 0.79704 0.03445 1.1901 0.10236 0.37005 0.05962 0.72884 0.17468 1.0642 0.34113 0.30207 0.15022 0.56168 0.37296 0.75521 0.64809 0.19956 0.30356 0.29952 0.66107 0.28612 1.0234 0.01107 0.33163-0.0638 0.6605-0.21742 0.95512-0.13477 0.246-0.32227 0.45945-0.54927 0.62541-0.22799 0.16227-0.48398 0.28172-0.75528 0.35247-0.27208 0.07451-0.55303 0.11279-0.83532 0.11371-0.73231 0-1.3349-0.20091-1.8077-0.60265-0.4469-0.36212-0.77385-0.84942-0.93832-1.3986l-3.5702 0.93244c0.35637 1.3669 1.2402 2.5393 2.4602 3.2634 0.59053 0.34843 1.231 0.60534 1.8995 0.7618 0.70076 0.16752 1.4191 0.25145 2.1398 0.25018 0.74692 0 1.4902-0.10322 2.2085-0.30668 0.70232-0.19368 1.3648-0.50886 1.957-0.93109 0.58223-0.41933 1.0631-0.96243 1.4075-1.5897 0.35822-0.64306 0.5375-1.4039 0.53779-2.2824 0.0024-0.4379-0.07522-0.8726-0.22955-1.2828z" fill="#7c3aed" stroke-width=".70892"/><path d="m16.824 21.763-2.7235-2.5471c-0.36552 0.49759-0.84375 0.90274-1.396 1.1826-0.58004 0.30342-1.259 0.45498-2.0369 0.45477-0.63654 0.007068-1.2677-0.1169-1.8537-0.36382-0.5504-0.23253-1.0455-0.57727-1.4533-1.012-0.4167-0.45215-0.73947-0.9815-0.94974-1.5578-0.23494-0.64101-0.35127-1.319-0.34333-2.0012-0.00731-0.67106 0.10903-1.3377 0.34333-1.9671 0.21516-0.57656 0.54168-1.1058 0.96115-1.5578 0.41535-0.44194 0.91784-0.79413 1.4762-1.0346 0.59599-0.255 1.2393-0.38282 1.8881-0.37523 0.62846 7.77e-4 1.2505 0.12434 1.8309 0.36389 0.57684 0.22856 1.0768 0.61492 1.4418 1.1143l2.6548-2.638c-0.68659-0.77322-1.5829-1.3607-2.6891-1.7625-2.2054-0.7998-4.6235-0.80384-6.8315-0.011343-1.035 0.3741-1.9843 0.95002-2.7921 1.6939-0.80405 0.75039-1.4396 1.661-1.8652 2.6723-0.44998 1.0462-0.67497 2.2135-0.67497 3.5022-0.01454 1.1848 0.21106 2.3603 0.66336 3.4567 0.41668 1.0131 1.0393 1.9298 1.8288 2.6929 0.78959 0.76301 1.7291 1.3559 2.7598 1.7417 1.107 0.41777 2.2831 0.62604 3.4672 0.61399 1.3732 0 2.5861-0.23876 3.6389-0.71636 1.0157-0.45045 1.9213-1.1138 2.6548-1.9445z" fill="#2563eb" stroke-width=".70892"/></svg>
