<?xml version="1.0" encoding="UTF-8" standalone="no"?>
<svg
   xmlns:dc="http://purl.org/dc/elements/1.1/"
   xmlns:cc="http://creativecommons.org/ns#"
   xmlns:rdf="http://www.w3.org/1999/02/22-rdf-syntax-ns#"
   xmlns:svg="http://www.w3.org/2000/svg"
   xmlns="http://www.w3.org/2000/svg"
   xmlns:sodipodi="http://sodipodi.sourceforge.net/DTD/sodipodi-0.dtd"
   xmlns:inkscape="http://www.inkscape.org/namespaces/inkscape"
   id="svg"
   version="1.1"
   width="32"
   height="32"
   viewBox="0 0 32 31.999999"
   sodipodi:docname="file_type_denoify.svg"
   inkscape:version="1.0.1 (c497b03c, 2020-09-10)">
  <metadata
     id="metadata21">
    <rdf:RDF>
      <cc:Work
         rdf:about="">
        <dc:format>image/svg+xml</dc:format>
        <dc:type
           rdf:resource="http://purl.org/dc/dcmitype/StillImage" />
        <dc:title></dc:title>
      </cc:Work>
    </rdf:RDF>
  </metadata>
  <defs
     id="defs19" />
  <sodipodi:namedview
     pagecolor="#ffffff"
     bordercolor="#666666"
     borderopacity="1"
     objecttolerance="10"
     gridtolerance="10"
     guidetolerance="10"
     inkscape:pageopacity="0"
     inkscape:pageshadow="2"
     inkscape:window-width="1920"
     inkscape:window-height="1027"
     id="namedview17"
     showgrid="false"
     inkscape:zoom="11.48"
     inkscape:cx="15.106399"
     inkscape:cy="23.4448"
     inkscape:window-x="1728"
     inkscape:window-y="25"
     inkscape:window-maximized="0"
     inkscape:current-layer="svg" />
  <g
     id="svgg"
     transform="matrix(0.07035923,0,0,0.07035923,1.9688182,2.0026542)">
    <path
       id="path0"
       d="m 193.134,0.626 c -1.502,0.517 -8.231,4.303 -30.131,16.953 -2.214,1.279 -5.836,3.37 -8.049,4.647 -7.244,4.179 -11.622,6.707 -21.672,12.516 -12.169,7.033 -16.279,9.405 -25.387,14.649 -3.917,2.255 -9.768,5.625 -13.003,7.488 -3.236,1.863 -8.251,4.754 -11.146,6.425 -7.128,4.114 -12.552,7.245 -17.183,9.916 -13.083,7.547 -18.877,10.891 -25.232,14.562 -2.894,1.673 -5.645,3.26 -6.112,3.527 -1.161,0.665 -1.385,0.106 3.926,9.775 2.62,4.767 4.721,8.711 4.669,8.764 -0.051,0.052 -4.016,-1.868 -8.811,-4.266 -8.633,-4.319 -9.306,-4.564 -9.306,-3.397 0,0.331 -0.111,0.601 -0.247,0.601 -0.135,0 -0.281,0.516 -0.323,1.146 -0.043,0.631 -0.21,1.306 -0.371,1.5 -0.184,0.222 -0.295,35.18 -0.297,93.367 -0.003,102.49 -0.157,94.477 1.894,98.556 1.875,3.73 0.531,5.404 13.513,-16.828 l 11.537,-19.759 -1.362,-3.526 C 38.016,226.114 35.989,191.63 44.291,159.443 61.958,90.951 124.804,42.04 195.046,42.117 c 24.485,0.026 39.846,2.764 60.217,10.731 39.053,15.274 73.85,49.895 87.924,87.477 0.303,0.809 0.636,1.469 0.741,1.467 0.154,-0.004 25.034,-45.263 25.364,-46.14 0.194,-0.515 -3.55,-3.09 -9.34,-6.422 -7.857,-4.522 -24.798,-14.305 -39.519,-22.82 -6.555,-3.792 -13.73,-7.935 -15.944,-9.207 -2.213,-1.272 -8.97,-5.167 -15.015,-8.657 -6.045,-3.489 -13.29,-7.671 -16.099,-9.292 -2.81,-1.621 -6.502,-3.752 -8.205,-4.736 -5.79,-3.344 -10.832,-6.24 -12.229,-7.024 -0.766,-0.429 -1.95,-1.1 -2.631,-1.49 -0.682,-0.389 -2.005,-1.131 -2.942,-1.648 -0.936,-0.517 -2.329,-1.331 -3.096,-1.81 -0.766,-0.479 -1.776,-1.024 -2.244,-1.212 -0.468,-0.188 -0.852,-0.458 -0.852,-0.6 0,-0.143 -0.308,-0.357 -0.685,-0.477 -0.378,-0.119 -7.866,-4.335 -16.641,-9.368 C 207.661,1.604 204.795,0.122 203.703,0.468 c -0.344,0.109 -0.607,0.05 -0.607,-0.138 0,-0.631 -7.953,-0.396 -9.962,0.296 m -10.471,55.609 c -0.38,0.104 -0.451,0.679 -0.387,3.138 0.381,14.813 3.292,82.01 3.681,84.984 0.227,1.738 0.154,1.675 2.264,1.955 l 1.652,0.219 -0.202,-3.529 c -0.259,-4.548 -0.659,-14.123 -1.434,-34.333 -0.343,-8.94 -0.826,-20.921 -1.073,-26.626 -0.247,-5.704 -0.545,-13.889 -0.662,-18.189 l -0.212,-7.817 -1.582,0.036 c -0.869,0.02 -1.79,0.093 -2.045,0.162 m 36.749,1.236 c -0.359,0.36 -0.234,17.562 0.247,33.705 0.248,8.344 0.454,17.071 0.458,19.395 0.008,4.773 -0.089,4.599 2.554,4.599 h 1.567 l -0.198,-9.52 c -0.109,-5.236 -0.289,-18.111 -0.4,-28.612 l -0.202,-19.092 -1.116,-0.191 c -0.613,-0.105 -1.47,-0.261 -1.903,-0.346 -0.434,-0.085 -0.887,-0.057 -1.007,0.062 m -87.446,13.658 c -1.294,0.644 -1.381,-1.643 1.013,26.583 4.205,49.593 3.753,45.858 5.446,44.995 1.666,-0.85 1.629,-0.484 0.915,-8.997 -0.348,-4.152 -1.336,-16.187 -2.195,-26.744 -1.755,-21.578 -3.04,-35.738 -3.277,-36.121 -0.227,-0.367 -0.752,-0.289 -1.902,0.284 m 106.31,7.896 c -0.103,0.383 -0.189,5.665 -0.191,11.737 l -0.005,11.041 0.953,0.801 c 1.013,0.853 2.339,1.328 2.7,0.968 0.3,-0.3 0.276,-22.403 -0.026,-23.484 -0.414,-1.486 -3.096,-2.316 -3.431,-1.063 m -71.774,-0.093 c -1.762,0.342 -2.189,0.843 -1.979,2.32 0.098,0.69 0.672,8.849 1.275,18.129 1.266,19.481 0.977,17.647 2.775,17.647 2.244,0 2.192,0.823 1.251,-19.55 -0.991,-21.468 -0.564,-19.083 -3.322,-18.546 m 108.317,6.723 c -0.264,0.265 -0.268,15.601 -0.005,21.687 l 0.202,4.654 1.355,0.658 c 0.745,0.362 1.42,0.659 1.501,0.659 0.22,0 0.174,-19.452 -0.056,-23.437 l -0.2,-3.468 -1.198,-0.48 c -1.381,-0.552 -1.328,-0.543 -1.599,-0.273 m -73.153,10.658 c 0.51,14.495 1.164,28.002 1.366,28.182 0.12,0.108 0.95,0.288 1.844,0.4 l 1.626,0.204 v -5.854 c 0,-8.238 -0.621,-28.022 -0.889,-28.299 -0.122,-0.126 -1.108,-0.323 -2.191,-0.436 l -1.968,-0.206 0.212,6.009 m 90.747,7.285 c 0.103,6.62 0.322,31.332 0.486,54.916 0.165,23.584 0.384,43.468 0.489,44.187 0.182,1.255 1.04,2.046 1.604,1.481 0.288,-0.288 0.266,-108.779 -0.022,-109.806 -0.127,-0.453 -0.797,-1.272 -1.488,-1.82 l -1.257,-0.995 0.188,12.037 m -34.828,30.076 v 32.822 l 1.245,0.498 c 0.684,0.274 1.381,0.498 1.548,0.498 0.346,0 0.431,-50.559 0.099,-59.71 -0.219,-6.061 -0.321,-6.426 -1.886,-6.733 l -1.006,-0.198 v 32.823 M 150.387,102.569 c -1.028,0.407 -1.014,0.091 -0.387,8.97 0.994,14.062 1.068,14.467 2.647,14.467 2.058,0 2.156,-0.901 1.384,-12.693 -0.793,-12.108 -0.722,-11.898 -3.644,-10.744 m -63.461,4.847 c -2.191,2.56 -2.228,1.578 1.147,30.255 1.142,9.699 0.904,9.002 2.756,8.102 1.783,-0.866 1.829,1.386 -0.428,-21.005 -1.021,-10.131 -1.856,-18.455 -1.856,-18.498 0,-0.395 -0.761,0.144 -1.619,1.146 m 151.619,21.454 c 0.241,12.862 0.163,12.394 2.06,12.434 1.752,0.037 1.718,0.316 1.557,-12.466 l -0.133,-10.636 -1.278,-0.58 c -2.638,-1.199 -2.455,-2.132 -2.206,11.248 m -135.682,-9.598 -1.29,1.316 1.665,16.873 c 0.916,9.28 2.191,22.139 2.834,28.574 l 1.169,11.702 1.462,-1.485 1.463,-1.484 -2.126,-23.065 c -3.526,-38.271 -2.955,-34.696 -5.177,-32.431 m -28.293,5.383 c -1.828,2.765 -1.864,2.922 -1.503,6.541 0.394,3.942 4.088,33.089 4.954,39.083 0.332,2.298 1.514,11.284 2.627,19.969 1.113,8.684 2.058,15.997 2.1,16.251 0.042,0.255 0.482,-0.228 0.977,-1.073 l 0.9,-1.536 -1.447,-13.168 C 82.382,183.48 80.96,170.519 80.017,161.92 75.538,121.068 75.792,122.807 74.57,124.655 m -10.59,21.708 c -0.132,0.213 -0.564,1.34 -0.96,2.503 l -0.72,2.116 3.174,21.898 c 3.319,22.894 3.293,22.766 4.427,21.909 l 0.706,-0.533 -0.48,-3.397 c -0.264,-1.869 -1.52,-11.409 -2.792,-21.2 -3.106,-23.923 -3.08,-23.74 -3.355,-23.296 m 210.965,10.061 c 0.085,29.223 0.391,33.359 2.468,33.359 h 0.928 l -0.084,-20.29 c -0.093,-22.489 0.076,-20.872 -2.173,-20.881 l -1.161,-0.005 0.022,7.817 m -101.416,-0.989 c -25.675,2.382 -56.988,19.753 -65.938,36.577 -7.423,13.953 -5.556,25.947 5.188,33.326 17.26,11.853 43.024,13.131 72.368,3.589 2.894,-0.941 6.702,-2.326 8.464,-3.079 1.761,-0.752 3.838,-1.538 4.614,-1.746 4.49,-1.2 8.723,4.426 5.555,7.384 -1.159,1.082 -8.813,4.748 -12.806,6.133 -4.516,1.567 -5.297,2.064 -4.897,3.116 3.742,9.843 5.526,48.902 3.851,84.342 -0.245,5.194 -0.448,11.219 -0.45,13.39 l -0.004,3.948 6.733,-0.001 c 23.213,-0.004 44.821,-4.699 63.461,-13.788 5.536,-2.7 5.217,-2.181 4.928,-8.009 -1.155,-23.262 -1.712,-31.962 -3.16,-49.41 -5.09,-61.295 -11.422,-80.034 -33.849,-100.176 -12.832,-11.524 -33.544,-17.5 -54.058,-15.596 m 137.207,1.424 c -0.115,0.116 -0.205,6.282 -0.198,13.703 l 0.011,13.494 1.691,2.786 1.691,2.786 V 173.77 l 0.001,-15.859 -0.852,-0.433 c -1.236,-0.629 -2.104,-0.858 -2.344,-0.619 M 129.977,174.83 c 5.078,3.762 0.806,11.433 -4.987,8.954 -3.927,-1.68 -3.988,-7.398 -0.098,-9.218 1.574,-0.736 3.897,-0.615 5.085,0.264 m 26.215,3.156 c 3.198,1.481 4.389,4.627 2.909,7.683 -1.632,3.372 -5.776,4.281 -8.522,1.87 -4.82,-4.232 -0.131,-12.212 5.613,-9.553 m -61.233,7.323 -1.151,0.781 0.027,2.234 c 0.014,1.228 0.189,3.557 0.388,5.174 l 0.362,2.942 1.077,-2.168 c 1.039,-2.091 1.075,-2.282 1.035,-5.468 -0.053,-4.217 -0.21,-4.534 -1.738,-3.495 m -23.666,24.513 c -0.178,0.464 0.811,9.396 1.432,12.933 l 0.217,1.239 0.567,-1.07 c 0.841,-1.589 -0.647,-13.636 -1.684,-13.636 -0.18,0 -0.42,0.24 -0.532,0.534 m 58.428,35.335 c 0,2.656 0.651,9.994 0.959,10.803 0.284,0.749 2.207,1.025 2.61,0.374 0.527,-0.854 -0.805,-12.307 -1.482,-12.737 -1.356,-0.861 -2.087,-0.314 -2.087,1.56 m 31.27,0.34 c 0,1.037 0.274,5.192 0.61,9.232 0.336,4.04 0.907,10.968 1.269,15.395 0.635,7.757 0.91,9.359 1.542,8.969 0.401,-0.248 0.363,-2.83 -0.157,-10.672 -0.243,-3.661 -0.669,-10.279 -0.948,-14.706 -0.579,-9.221 -0.685,-9.867 -1.638,-10.006 -0.635,-0.092 -0.678,0.023 -0.678,1.788 m 197.213,19.328 c 0,0.115 15.807,27.238 15.974,27.409 0.069,0.071 0.125,-4.322 0.125,-9.763 v -9.892 l -2.089,-1.041 c -4.487,-2.235 -14.01,-6.798 -14.01,-6.713 m -82.353,25.529 c 0,24.226 0.148,28.827 0.9,28.072 0.444,-0.444 0.488,-2.792 0.441,-23.16 -0.055,-23.488 -0.139,-25.916 -0.898,-25.916 -0.379,0 -0.443,3.01 -0.443,21.004 m -126.728,-5.926 c 1.332,15.995 1.566,17.385 2.858,16.975 0.876,-0.278 0.861,-1.691 -0.144,-13.718 -0.967,-11.565 -0.921,-11.341 -2.329,-11.461 l -1.076,-0.092 0.691,8.296 m 154.592,31.224 c -1.488,1.618 -7.272,6.445 -11.569,9.655 -21.909,16.362 -45.958,26.307 -73.57,30.423 -5.64,0.84 -18.142,1.21 -30.288,0.895 -4.712,-0.122 -8.603,-0.187 -8.647,-0.144 -0.044,0.043 5.003,9.33 11.216,20.637 l 11.296,20.56 1,-0.106 c 2.403,-0.254 6.726,-2.622 41.893,-22.947 20.434,-11.809 39.451,-22.793 42.261,-24.408 2.809,-1.615 7.546,-4.356 10.526,-6.091 2.98,-1.735 6.219,-3.606 7.198,-4.158 1.832,-1.034 2.495,-1.654 0.867,-0.812 -0.503,0.26 -0.989,0.472 -1.08,0.472 -0.092,0 -0.203,-5.584 -0.248,-12.408 l -0.081,-12.409 -0.774,0.841 m 4.257,22.296 c -1.157,0.628 -1.087,0.889 0.078,0.287 0.51,-0.264 0.928,-0.546 0.928,-0.627 0,-0.199 -0.033,-0.188 -1.006,0.34"
       stroke="none"
       fill="#69a658"
       fill-rule="evenodd" />
    <path
       id="path1"
       d="m 203.096,0.31 c 0,0.387 0.329,0.387 0.929,0 0.375,-0.243 0.331,-0.301 -0.232,-0.305 -0.384,-0.003 -0.697,0.134 -0.697,0.305 m 3.431,0.734 c 0.319,0.285 2.142,1.123 2.142,0.984 0,-0.178 -1.717,-1.099 -2.049,-1.099 -0.122,0 -0.164,0.052 -0.093,0.115 m 2.451,1.238 c 0,0.074 0.801,0.585 1.781,1.133 0.979,0.549 2.372,1.342 3.095,1.762 0.724,0.42 1.316,0.693 1.316,0.607 0,-0.086 -1.079,-0.776 -2.399,-1.533 -3.088,-1.77 -3.793,-2.136 -3.793,-1.969 m 8.669,4.978 c 0,0.085 0.418,0.371 0.929,0.635 0.511,0.264 0.929,0.41 0.929,0.325 0,-0.085 -0.418,-0.371 -0.929,-0.635 -0.511,-0.264 -0.929,-0.41 -0.929,-0.325 m 2.167,1.238 c 0,0.085 0.418,0.371 0.929,0.635 0.511,0.264 0.929,0.411 0.929,0.326 0,-0.086 -0.418,-0.371 -0.929,-0.635 -0.511,-0.265 -0.929,-0.411 -0.929,-0.326 m 8.05,4.644 c 0,0.085 0.418,0.371 0.929,0.635 0.51,0.264 0.928,0.411 0.928,0.326 0,-0.086 -0.418,-0.371 -0.928,-0.636 -0.511,-0.264 -0.929,-0.41 -0.929,-0.325 m -22.829,29.185 c 0.471,0.072 1.167,0.07 1.548,-0.004 0.381,-0.073 -0.004,-0.132 -0.855,-0.129 -0.852,0.002 -1.163,0.062 -0.693,0.133 m -22.903,16.032 c 0.002,0.852 0.062,1.163 0.134,0.692 0.071,-0.47 0.069,-1.167 -0.005,-1.548 -0.073,-0.38 -0.131,0.005 -0.129,0.856 m 4.345,4.489 c 0,1.107 0.056,1.56 0.125,1.006 0.068,-0.553 0.068,-1.458 0,-2.012 -0.069,-0.553 -0.125,-0.101 -0.125,1.006 m -4.052,5.573 c 0,0.596 0.063,0.84 0.141,0.542 0.078,-0.298 0.078,-0.786 0,-1.084 -0.078,-0.298 -0.141,-0.054 -0.141,0.542 m 41.227,6.811 c 0,2.469 0.049,3.479 0.107,2.245 0.059,-1.235 0.059,-3.255 0,-4.489 -0.058,-1.235 -0.107,-0.225 -0.107,2.244 m -36.893,-1.548 c 0,0.596 0.064,0.84 0.142,0.542 0.078,-0.298 0.078,-0.786 0,-1.084 -0.078,-0.298 -0.142,-0.054 -0.142,0.542 m -4.025,2.787 c 0,0.596 0.064,0.839 0.142,0.541 0.078,-0.298 0.078,-0.785 0,-1.083 -0.078,-0.298 -0.142,-0.054 -0.142,0.542 m 36.554,4.953 c 0,0.937 0.058,1.32 0.129,0.852 0.071,-0.469 0.071,-1.235 0,-1.703 -0.071,-0.469 -0.129,-0.085 -0.129,0.851 m 18.612,6.347 c 0,3.235 0.046,4.517 0.102,2.848 0.056,-1.669 0.055,-4.317 -0.001,-5.883 -0.056,-1.566 -0.101,-0.2 -0.101,3.035 m -54.856,-3.87 c 0,0.596 0.064,0.84 0.142,0.542 0.077,-0.298 0.077,-0.786 0,-1.084 -0.078,-0.298 -0.142,-0.054 -0.142,0.542 m 125.16,4.025 c 1.526,1.532 2.843,2.786 2.929,2.786 0.085,0 -1.094,-1.254 -2.619,-2.786 -1.525,-1.533 -2.843,-2.787 -2.928,-2.787 -0.085,0 1.093,1.254 2.618,2.787 m -30.423,2.167 c 0,0.596 0.064,0.84 0.141,0.542 0.078,-0.298 0.078,-0.786 0,-1.084 -0.077,-0.298 -0.141,-0.054 -0.141,0.542 m -94.427,1.238 c 0,0.596 0.063,0.84 0.141,0.542 0.078,-0.298 0.078,-0.786 0,-1.084 -0.078,-0.298 -0.141,-0.054 -0.141,0.542 m 36.239,1.393 c 0.003,0.852 0.063,1.163 0.134,0.693 0.071,-0.471 0.069,-1.167 -0.004,-1.548 -0.074,-0.381 -0.132,0.004 -0.13,0.855 m 72.429,-0.154 c 0,0.596 0.064,0.839 0.142,0.541 0.078,-0.298 0.078,-0.785 0,-1.083 -0.078,-0.298 -0.142,-0.054 -0.142,0.542 M 32.683,92.783 c -2.75,1.798 -9.295,10.229 -6.692,8.62 0.162,-0.1 4.217,1.78 9.012,4.179 4.795,2.398 8.759,4.318 8.81,4.266 0.127,-0.132 -9.565,-17.884 -9.757,-17.871 -0.085,0.005 -0.703,0.368 -1.373,0.806 m 155.005,2.883 c 0,0.596 0.064,0.839 0.142,0.541 0.077,-0.298 0.077,-0.785 0,-1.083 -0.078,-0.298 -0.142,-0.054 -0.142,0.542 m 18.272,0.774 c 0.004,0.681 0.067,0.923 0.141,0.538 0.074,-0.385 0.072,-0.943 -0.006,-1.239 -0.077,-0.296 -0.138,0.02 -0.135,0.701 m 162.838,0.225 c -0.336,0.557 -6.011,10.905 -12.612,22.994 -6.6,12.09 -12.11,22.025 -12.243,22.077 -0.134,0.053 -0.025,0.61 0.242,1.239 4.225,9.965 8.905,30.087 9.726,41.824 0.572,8.16 0.17,30.454 -0.644,35.789 -5.398,35.384 -19.574,64.409 -43.383,88.825 l -5.24,5.373 v 12.421 c 0,6.832 0.077,12.421 0.17,12.421 0.094,0 0.564,-0.203 1.044,-0.452 0.481,-0.248 0.962,-0.364 1.069,-0.258 0.106,0.107 0.194,0.036 0.194,-0.159 0,-0.385 1.685,-1.367 1.929,-1.123 0.082,0.082 0.326,-0.062 0.541,-0.322 0.216,-0.26 0.584,-0.472 0.818,-0.472 0.235,0 0.427,-0.139 0.427,-0.309 0,-0.171 0.104,-0.286 0.232,-0.256 0.372,0.087 1.935,-0.747 1.935,-1.033 0,-0.143 0.153,-0.259 0.341,-0.259 0.285,0 4.215,-2.172 7.347,-4.059 0.454,-0.274 1.369,-0.805 2.032,-1.181 1.736,-0.983 11.162,-6.403 15.512,-8.92 4.861,-2.812 21.567,-12.46 24.887,-14.373 5.13,-2.955 7.625,-5.429 9.562,-9.481 2.027,-4.238 2.476,-2.973 -6.554,-18.462 -4.359,-7.478 -7.891,-13.627 -7.849,-13.665 0.043,-0.037 3.618,1.657 7.944,3.767 4.327,2.109 7.914,3.835 7.972,3.835 0.429,0 0.064,-166.907 -0.368,-168.566 -0.613,-2.352 -2.014,-5.233 -3.358,-6.905 l -1.063,-1.322 -0.61,1.012 m -167.166,1.787 c 0,0.766 0.061,1.08 0.134,0.697 0.074,-0.384 0.074,-1.01 0,-1.394 -0.073,-0.383 -0.134,-0.069 -0.134,0.697 M 295.155,100 c 0,1.447 0.053,2.039 0.118,1.316 0.065,-0.724 0.065,-1.908 0,-2.632 -0.065,-0.723 -0.118,-0.131 -0.118,1.316 M 183.663,98.762 c 0,0.596 0.064,0.839 0.142,0.541 0.078,-0.298 0.078,-0.785 0,-1.083 -0.078,-0.298 -0.142,-0.054 -0.142,0.542 m 40.286,2.941 c -0.001,1.532 0.051,2.198 0.116,1.48 0.065,-0.719 0.066,-1.973 0.002,-2.787 -0.064,-0.814 -0.117,-0.226 -0.118,1.307 m 68.436,4.334 c 0.001,2.725 0.048,3.798 0.106,2.385 0.057,-1.413 0.057,-3.642 -10e-4,-4.954 -0.058,-1.311 -0.105,-0.155 -0.105,2.569 m -72.482,-2.167 c 0.002,0.851 0.062,1.163 0.133,0.692 0.072,-0.47 0.07,-1.167 -0.004,-1.548 -0.073,-0.38 -0.132,0.005 -0.129,0.856 m -31.905,-0.155 c 0,0.596 0.063,0.84 0.141,0.542 0.078,-0.298 0.078,-0.786 0,-1.084 -0.078,-0.298 -0.141,-0.054 -0.141,0.542 m -163.267,0.861 c -0.102,0.616 -0.057,0.904 0.115,0.733 0.156,-0.156 0.232,-0.614 0.169,-1.016 -0.098,-0.62 -0.141,-0.576 -0.284,0.283 m 235.749,2.545 c 0,1.447 0.053,2.039 0.118,1.316 0.065,-0.724 0.065,-1.908 0,-2.632 -0.065,-0.724 -0.118,-0.132 -0.118,1.316 m -76.507,-1.239 c 0,0.596 0.063,0.84 0.141,0.542 0.078,-0.298 0.078,-0.785 0,-1.083 -0.078,-0.298 -0.141,-0.055 -0.141,0.541 m 17.963,0.774 c 0.003,0.681 0.066,0.924 0.141,0.539 0.074,-0.386 0.071,-0.943 -0.007,-1.239 -0.077,-0.296 -0.138,0.019 -0.134,0.7 m 4.349,0.774 c 0,0.937 0.058,1.32 0.129,0.852 0.071,-0.469 0.071,-1.235 0,-1.703 -0.071,-0.468 -0.129,-0.085 -0.129,0.851 m 68.443,1.548 c 0,1.788 0.051,2.52 0.113,1.626 0.063,-0.894 0.063,-2.357 0,-3.251 -0.062,-0.894 -0.113,-0.163 -0.113,1.625 m -86.421,2.787 c 0,0.596 0.064,0.839 0.142,0.542 0.078,-0.298 0.078,-0.786 0,-1.084 -0.078,-0.298 -0.142,-0.054 -0.142,0.542 m 13.932,2.476 c 0,0.596 0.064,0.84 0.142,0.542 0.077,-0.298 0.077,-0.785 0,-1.083 -0.078,-0.298 -0.142,-0.054 -0.142,0.541 m -35.094,2.873 c 0.15,0.15 0.672,0.222 1.161,0.161 0.818,-0.102 0.797,-0.124 -0.272,-0.272 -0.665,-0.092 -1.045,-0.044 -0.889,0.111 m 71.024,1.307 c 0.002,0.851 0.062,1.163 0.134,0.692 0.071,-0.47 0.069,-1.167 -0.005,-1.548 -0.073,-0.38 -0.131,0.005 -0.129,0.856 m -49.552,1.393 c 0,0.596 0.063,0.84 0.141,0.542 0.078,-0.298 0.078,-0.786 0,-1.084 -0.078,-0.298 -0.141,-0.054 -0.141,0.542 m 53.611,11.765 c 0,2.469 0.048,3.479 0.107,2.245 0.059,-1.235 0.059,-3.255 0,-4.49 -0.059,-1.234 -0.107,-0.224 -0.107,2.245 m -3.745,-1.858 c 0,0.937 0.058,1.32 0.129,0.852 0.071,-0.469 0.071,-1.235 0,-1.703 -0.071,-0.468 -0.129,-0.085 -0.129,0.851 m -49.247,5.264 c 0,0.595 0.064,0.839 0.142,0.541 0.077,-0.298 0.077,-0.785 0,-1.083 -0.078,-0.298 -0.142,-0.054 -0.142,0.542 m 103.469,11.3 c 0,4.597 0.043,6.521 0.096,4.275 0.053,-2.246 0.053,-6.007 0,-8.359 -0.052,-2.351 -0.096,-0.514 -0.096,4.084 m 2.799,26.47 c 0,13.878 0.038,19.555 0.084,12.617 0.047,-6.939 0.047,-18.294 0,-25.233 -0.046,-6.939 -0.084,-1.261 -0.084,12.616 M 275.31,148.511 c 0.298,0.077 0.785,0.077 1.083,0 0.298,-0.078 0.054,-0.142 -0.542,-0.142 -0.596,0 -0.839,0.064 -0.541,0.142 m 3.163,23.316 c 0,9.961 0.039,14.036 0.087,9.055 0.048,-4.98 0.048,-13.13 0,-18.111 -0.048,-4.981 -0.087,-0.906 -0.087,9.056 m 35.599,-2.168 c 0,6.386 0.041,8.998 0.092,5.805 0.05,-3.192 0.05,-8.417 0,-11.61 -0.051,-3.192 -0.092,-0.58 -0.092,5.805 m -3.693,8.979 c 0.07,17.237 -0.022,16.475 1.967,16.346 l 1.431,-0.092 0.091,-2.597 0.09,-2.598 -1.638,-2.666 -1.639,-2.666 -0.182,-10.526 c -0.155,-9.033 -0.173,-8.352 -0.12,4.799 m -35.329,-5.573 c 0,2.98 0.046,4.199 0.103,2.709 0.057,-1.49 0.057,-3.928 0,-5.418 -0.057,-1.49 -0.103,-0.271 -0.103,2.709 m -193.244,5.573 c 0,0.596 0.063,0.84 0.141,0.542 0.078,-0.298 0.078,-0.786 0,-1.084 -0.078,-0.298 -0.141,-0.054 -0.141,0.542 m 245.636,5.34 c -0.678,22.529 -0.813,75.774 -0.192,75.774 0.378,0 2.151,-4.669 2.475,-6.513 0.319,-1.821 0.796,-27.588 1.043,-56.386 l 0.153,-17.854 -1.225,-0.49 c -2.158,-0.863 -2.055,-1.111 -2.254,5.469 m -287.725,2.555 c 0.002,0.851 0.062,1.162 0.134,0.692 0.071,-0.471 0.069,-1.167 -0.005,-1.548 -0.073,-0.381 -0.131,0.004 -0.129,0.856 m 253.291,5.108 c 0,3.15 0.046,4.439 0.102,2.864 0.056,-1.575 0.056,-4.153 0,-5.728 -0.056,-1.575 -0.102,-0.286 -0.102,2.864 M 93.583,187.926 c 0,0.766 0.06,1.079 0.134,0.696 0.074,-0.383 0.074,-1.01 0,-1.393 -0.074,-0.383 -0.134,-0.07 -0.134,0.697 m -54.146,11.3 c 0.001,2.043 0.051,2.839 0.111,1.768 0.061,-1.071 0.061,-2.743 -0.001,-3.715 -0.061,-0.973 -0.111,-0.096 -0.11,1.947 m 45.125,4.3 c -0.023,0.322 -0.441,1.233 -0.928,2.025 l -0.886,1.44 1.668,13.145 c 2.073,16.343 1.888,15.218 2.488,15.1 1.209,-0.238 1.194,-0.75 -0.482,-16.1 -1.808,-16.558 -1.797,-16.473 -1.86,-15.61 m 18.618,2.976 c 0,0.766 0.061,1.079 0.134,0.696 0.074,-0.383 0.074,-1.01 0,-1.393 -0.073,-0.383 -0.134,-0.07 -0.134,0.697 m -0.012,3.405 c 0,0.596 0.064,0.84 0.141,0.542 0.078,-0.298 0.078,-0.786 0,-1.084 -0.077,-0.298 -0.141,-0.054 -0.141,0.542 m -32.151,-0.173 c -0.094,0.246 -0.117,0.698 -0.05,1.006 0.075,0.35 0.181,0.182 0.282,-0.446 0.168,-1.054 0.059,-1.319 -0.232,-0.56 m -31.3,2.495 c 0.002,0.851 0.062,1.163 0.134,0.692 0.071,-0.47 0.069,-1.167 -0.005,-1.548 -0.073,-0.38 -0.131,0.005 -0.129,0.856 m 33.782,10.597 -0.65,1.317 1.652,11.535 c 3.382,23.623 4.05,27.691 4.478,27.263 0.351,-0.352 -0.287,-6.211 -2.657,-24.371 -1.091,-8.357 -2.026,-15.615 -2.078,-16.129 l -0.095,-0.933 -0.65,1.318 m 24.479,3.49 c 0.09,0.596 0.449,3.8 0.796,7.121 0.891,8.525 1.152,9.907 1.87,9.907 1.305,0 1.487,-1.038 1.028,-5.883 -0.813,-8.585 -0.826,-8.629 -3.308,-11.574 -0.546,-0.648 -0.55,-0.644 -0.386,0.429 m 51.945,9.204 c 0.638,0.066 1.683,0.066 2.322,0 0.638,-0.067 0.116,-0.122 -1.161,-0.122 -1.277,0 -1.8,0.055 -1.161,0.122 m -61.219,16.176 c -0.103,0.167 0.387,4.923 1.088,10.569 0.702,5.645 1.731,14.796 2.288,20.335 0.956,9.524 1.049,10.102 1.723,10.647 0.392,0.317 0.755,0.534 0.807,0.481 0.187,-0.187 -4.232,-39.163 -4.703,-41.483 -0.17,-0.838 -0.837,-1.142 -1.203,-0.549 m 222.906,1.319 -1.548,1.404 -0.1,14.973 c -0.126,18.77 -0.105,18.945 1.919,16.157 l 1.05,-1.448 0.22,-14.883 c 0.121,-8.186 0.172,-15.496 0.114,-16.245 l -0.107,-1.362 -1.548,1.404 M 39.917,280.431 c -6.369,10.904 -11.721,19.745 -11.894,19.647 -0.379,-0.215 0.92,1.314 2.036,2.395 1.537,1.489 2.874,2.423 5.854,4.09 0.767,0.428 5.712,3.283 10.991,6.344 5.279,3.061 10.224,5.917 10.991,6.347 0.766,0.43 5.712,3.286 10.99,6.346 5.279,3.061 10.225,5.917 10.991,6.347 0.766,0.43 5.712,3.286 10.991,6.347 5.279,3.061 10.294,5.953 11.145,6.426 0.852,0.474 3.151,1.802 5.109,2.951 3.166,1.858 14.17,8.212 17.028,9.833 0.596,0.339 2.755,1.589 4.798,2.779 3.912,2.277 15.337,8.869 17.183,9.913 0.596,0.337 2.268,1.31 3.715,2.162 2.675,1.575 16.43,9.498 18.517,10.665 0.628,0.352 2.745,1.577 4.703,2.722 1.958,1.145 3.769,2.176 4.025,2.292 0.255,0.116 1.021,0.549 1.703,0.964 0.681,0.414 1.586,0.927 2.012,1.141 0.426,0.214 1.501,0.843 2.391,1.399 0.889,0.555 2.835,1.647 4.325,2.427 1.489,0.779 2.797,1.561 2.907,1.738 0.109,0.177 0.253,0.301 0.319,0.276 0.166,-0.065 1.11,0.277 2.751,0.997 1.023,0.449 2.368,0.655 5.062,0.776 l 3.668,0.165 -0.464,-0.895 c -0.841,-1.62 -22.218,-40.492 -22.329,-40.604 -0.061,-0.06 -1.553,-0.311 -3.317,-0.556 -49.338,-6.879 -91.831,-35.523 -116.39,-78.457 -2.511,-4.389 -6.465,-12.306 -7.639,-15.295 l -0.592,-1.506 -11.58,19.824 m 235.767,2.541 c 0,7.407 0.04,10.437 0.09,6.734 0.049,-3.704 0.049,-9.764 0,-13.468 -0.05,-3.703 -0.09,-0.673 -0.09,6.734 m -85.519,-6.501 c 0,0.596 0.063,0.839 0.141,0.541 0.078,-0.298 0.078,-0.785 0,-1.083 -0.078,-0.298 -0.141,-0.054 -0.141,0.542 m 87.046,5.263 c 0,2.299 0.049,3.239 0.108,2.09 0.06,-1.15 0.06,-3.031 0,-4.18 -0.059,-1.149 -0.108,-0.209 -0.108,2.09 m -86.707,6.966 c 0.001,1.192 0.057,1.641 0.124,0.999 0.067,-0.642 0.066,-1.618 -0.002,-2.167 -0.068,-0.55 -0.123,-0.024 -0.122,1.168 m -71.616,4.391 c 10e-4,0.99 0.135,2.985 0.298,4.432 0.162,1.448 0.512,5.209 0.777,8.359 1.066,12.669 1.353,14.624 2.273,15.457 l 0.829,0.752 0.104,-1.216 c 0.11,-1.274 -1.993,-26.429 -2.365,-28.305 -0.425,-2.138 -1.919,-1.731 -1.916,0.521 m 71.626,10.624 c 0,1.618 0.052,2.28 0.116,1.471 0.064,-0.809 0.064,-2.133 0,-2.941 -0.064,-0.809 -0.116,-0.147 -0.116,1.47 m 73.341,2.632 c 0.004,0.681 0.067,0.923 0.141,0.538 0.074,-0.385 0.071,-0.942 -0.006,-1.238 -0.078,-0.296 -0.138,0.019 -0.135,0.7 m 0.31,6.811 c 0.003,0.681 0.067,0.923 0.141,0.538 0.074,-0.385 0.071,-0.942 -0.007,-1.238 -0.077,-0.296 -0.138,0.019 -0.134,0.7 m 11.79,2.941 c 0,1.277 0.055,1.8 0.122,1.161 0.067,-0.638 0.067,-1.683 0,-2.322 -0.067,-0.638 -0.122,-0.116 -0.122,1.161 m 26.043,1.006 -1.224,1.316 1.316,-1.224 c 1.223,-1.138 1.458,-1.408 1.224,-1.408 -0.051,0 -0.643,0.593 -1.316,1.316 m -165.773,0.135 c 0.003,1.306 0.419,5.358 0.96,9.345 0.354,2.613 1.109,4.043 1.883,3.564 0.492,-0.304 0.102,-11.927 -0.439,-13.06 -0.705,-1.478 -2.407,-1.371 -2.404,0.151 m 53.94,-0.212 c 0,0.596 0.063,0.84 0.141,0.542 0.078,-0.298 0.078,-0.786 0,-1.084 -0.078,-0.298 -0.141,-0.054 -0.141,0.542 m 74.625,6.811 c 0,0.766 0.061,1.08 0.134,0.697 0.074,-0.384 0.074,-1.01 0,-1.394 -0.073,-0.383 -0.134,-0.069 -0.134,0.697 m -59.449,18.48 c 0.298,0.078 0.785,0.078 1.083,0 0.298,-0.078 0.054,-0.142 -0.542,-0.142 -0.596,0 -0.839,0.064 -0.541,0.142 m -9.288,14.559 c 0.468,0.071 1.234,0.071 1.702,0 0.469,-0.071 0.086,-0.129 -0.851,-0.129 -0.937,0 -1.32,0.058 -0.851,0.129"
       stroke="none"
       fill="#3b833b"
       fill-rule="evenodd" />
    <path
       id="path2"
       d="m 184.365,42.438 c -26.057,1.54 -55.136,12.06 -78.327,28.335 -62.207,43.657 -83.98,126.058 -51.733,195.79 23.113,49.982 75.889,86.695 129.052,89.775 50.293,2.913 91.261,-12.061 124.871,-45.64 32.554,-32.525 47.577,-72.037 45.709,-120.217 C 352.013,140.864 323.953,93.121 280.805,66.05 258.474,52.04 230.458,43.071 207.43,42.559 193.739,42.254 187.977,42.224 184.365,42.438 m 2.426,23.429 c 0.111,5.576 0.339,12.856 0.506,16.176 0.167,3.321 0.656,15.163 1.086,26.316 0.999,25.89 1.352,34.041 1.581,36.486 l 0.185,1.966 -0.88,-0.165 c -0.483,-0.091 -1.388,-0.247 -2.01,-0.349 -0.622,-0.101 -1.209,-0.387 -1.304,-0.635 -0.382,-0.995 -3.912,-80.173 -3.912,-87.743 v -1.846 l 1.316,-0.119 c 0.724,-0.065 1.746,-0.143 2.272,-0.172 l 0.957,-0.054 0.203,10.139 m 36.554,-7.971 c 0.193,0.193 0.388,8.061 0.523,21.128 0.119,11.452 0.265,24.304 0.326,28.561 l 0.109,7.74 -2.004,-0.096 c -1.103,-0.052 -2.039,-0.129 -2.08,-0.17 -0.331,-0.331 -1.506,-55.815 -1.207,-57.005 0.226,-0.901 3.472,-1.019 4.333,-0.158 M 134.181,71.44 c 0.236,1.146 1.413,14.534 3.125,35.526 0.777,9.536 1.688,20.632 2.023,24.658 0.859,10.326 0.862,10.271 -0.492,11.07 -2.097,1.237 -1.905,1.748 -2.773,-7.4 -0.419,-4.42 -5.414,-62.787 -5.414,-63.266 0,-1.206 3.292,-1.755 3.531,-0.588 m 106.666,7.309 c 1.231,0.577 1.345,1.686 1.38,13.418 0.037,12.581 0.081,12.323 -1.96,11.402 -2.47,-1.114 -2.341,-0.391 -2.341,-13.151 0,-13.4 -0.081,-13.077 2.921,-11.669 m -71.687,2.133 c 1.144,14.887 1.622,35.711 0.829,36.135 -0.802,0.43 -2.716,0.408 -2.989,-0.034 -0.183,-0.297 -2.571,-33.944 -2.596,-36.58 -0.009,-1.046 1.283,-1.734 3.294,-1.753 l 1.289,-0.012 0.173,2.244 m 107.102,4.751 c 1.114,0.38 1.499,0.685 1.662,1.316 0.271,1.052 0.317,26.244 0.048,26.513 -0.111,0.111 -0.889,-0.147 -1.73,-0.573 l -1.529,-0.774 -0.192,-11.92 c -0.161,-9.923 -0.081,-15.056 0.235,-15.056 0.031,0 0.709,0.223 1.506,0.494 m -71.117,4.97 c 0.553,0.131 0.687,0.457 0.847,2.067 0.208,2.094 0.917,32.417 0.761,32.563 -0.131,0.123 -3.755,-0.46 -3.926,-0.631 -0.294,-0.294 -1.279,-23.453 -1.279,-30.065 v -4.514 l 1.471,0.212 c 0.808,0.116 1.765,0.282 2.126,0.368 m 88.66,1.928 1.389,1.199 0.24,13.584 c 0.297,16.857 0.164,96.882 -0.161,97.207 -0.131,0.131 -0.619,0.105 -1.084,-0.058 -1.255,-0.44 -1.218,0.812 -1.577,-52.76 -0.181,-26.989 -0.417,-51.614 -0.524,-54.722 -0.215,-6.231 -0.249,-6.144 1.717,-4.45 m -33.994,8.751 c 0.306,0.157 0.605,0.813 0.72,1.583 0.248,1.654 0.369,64.51 0.125,64.755 -0.099,0.099 -0.83,-0.042 -1.625,-0.313 l -1.446,-0.492 v -33.104 -33.104 l 0.852,0.204 c 0.468,0.112 1.086,0.324 1.374,0.471 m -106.519,1.624 c 0.376,1.416 1.58,20.6 1.364,21.749 -0.316,1.688 -3.171,1.971 -3.599,0.358 -0.395,-1.487 -1.285,-13.58 -1.326,-18.016 l -0.041,-4.303 1.084,-0.4 c 1.583,-0.585 2.242,-0.425 2.518,0.612 m -64.598,3.673 c 0.089,0.383 0.992,9.116 2.009,19.407 2.008,20.332 2.002,19.24 0.096,20.037 -1.756,0.734 -1.814,0.666 -2.22,-2.602 -0.373,-3.003 -3.241,-28.549 -3.537,-31.501 -0.276,-2.764 3.105,-7.71 3.652,-5.341 m 152.495,11.074 1.226,0.626 v 11.159 c 0,13.069 0.02,12.98 -2.709,12.029 l -0.944,-0.329 -0.18,-4.393 c -0.099,-2.415 -0.265,-7.84 -0.368,-12.055 l -0.188,-7.662 h 0.968 c 0.533,0 1.52,0.281 2.195,0.625 m -136.103,1.465 c 0.23,1.435 1.161,11.219 3.463,36.396 l 1.777,19.446 -1.576,1.577 -1.577,1.577 -0.185,-1.364 c -0.324,-2.381 -5.44,-54.632 -5.44,-55.558 0,-2.211 3.213,-4.095 3.538,-2.074 m -29.235,4.423 c 0,0.177 0.279,2.58 0.619,5.341 2.574,20.891 11.722,105.295 11.464,105.777 -0.324,0.607 -1.155,1.038 -1.541,0.8 -0.13,-0.081 -0.329,-0.952 -0.441,-1.936 -0.112,-0.984 -2.231,-17.463 -4.709,-36.619 -9.446,-73.035 -8.939,-68.484 -7.869,-70.598 1.255,-2.477 2.477,-3.842 2.477,-2.765 m -11.455,22.108 c 0,0.075 0.272,1.991 0.604,4.257 0.332,2.265 1.443,10.667 2.469,18.67 1.027,8.003 2.212,17.059 2.635,20.124 l 0.768,5.572 -0.641,0.542 c -1.751,1.482 -1.367,3.164 -5.058,-22.154 l -3.167,-21.731 0.939,-2.709 c 0.755,-2.179 1.451,-3.412 1.451,-2.571 m 213.258,2.917 c 0.851,0.54 0.969,3.189 0.976,21.945 l 0.008,19.272 h -1.201 c -2.386,0 -2.457,-0.66 -2.579,-24.226 l -0.09,-17.26 1.238,0.005 c 0.681,0.003 1.423,0.122 1.648,0.264 m -87.317,6.868 c 28.041,3.039 49.416,20.296 60.424,48.785 6.164,15.951 10.814,52.152 13.476,104.914 0.258,5.108 0.558,10.822 0.667,12.696 0.262,4.526 0.216,4.581 -6.306,7.58 -13.079,6.015 -29.684,10.65 -44.357,12.382 -3.061,0.362 -24.734,1.07 -24.987,0.817 -0.156,-0.156 0.084,-7.417 0.841,-25.425 1.21,-28.789 -0.518,-62.138 -3.914,-75.511 -0.588,-2.315 -0.692,-2.218 4.376,-4.055 12.524,-4.538 15.928,-7.428 13.194,-11.202 -2.034,-2.808 -3.933,-2.892 -9.967,-0.441 -9.502,3.86 -22.212,7.323 -33.258,9.061 -9.889,1.557 -26.619,-0.087 -35.308,-3.47 -18.123,-7.056 -23.701,-14.257 -21.845,-28.204 2.879,-21.631 35.313,-43.943 69.847,-48.049 2.205,-0.263 14.37,-0.176 17.117,0.122 m 122.666,1.794 1.084,0.512 0.078,15.48 c 0.044,8.514 -0.026,16.943 -0.154,18.73 l -0.234,3.251 -1.238,0.081 c -2.318,0.151 -2.157,1.419 -2.265,-17.794 -0.129,-22.85 -0.286,-21.686 2.729,-20.26 m -188.107,17.498 c -1.2,0.545 -2.191,1.789 -2.654,3.334 -1.337,4.464 4.78,8.053 8.21,4.818 4.162,-3.925 -0.331,-10.519 -5.556,-8.152 m 26.625,3.568 c -3.847,2.346 -3.699,7.988 0.259,9.904 4.791,2.319 9.629,-3.036 6.989,-7.734 -1.398,-2.487 -4.973,-3.557 -7.248,-2.17 m 177.968,-0.061 1.471,0.527 -0.011,10.852 c -0.021,20.402 -0.582,58.836 -0.903,61.864 -0.443,4.173 -2.39,9.314 -3.135,8.276 -0.407,-0.568 0.089,-78.22 0.518,-81.037 0.179,-1.173 0.15,-1.167 2.06,-0.482 m -232.728,7.979 c 0.403,3.226 0.045,6.003 -1.079,8.37 l -1.029,2.167 -0.241,-1.065 c -1.21,-5.36 -1.043,-9.667 0.411,-10.553 1.489,-0.908 1.705,-0.787 1.938,1.081 m -24.039,23.927 c 0.165,0.639 0.662,4.087 1.106,7.663 0.443,3.576 1.697,13.398 2.787,21.826 2.891,22.358 3.037,23.839 2.351,23.839 -0.618,0 -0.834,-1.309 -4.995,-30.34 -3.227,-22.515 -3.338,-23.482 -2.733,-23.864 0.807,-0.511 1.183,-0.289 1.484,0.876 m 27.893,18.336 c 0.445,0.831 1.697,12.7 1.446,13.701 -0.257,1.026 -1.293,1.676 -1.886,1.184 -0.408,-0.338 -0.989,-4.203 -1.881,-12.507 -0.674,-6.263 -0.704,-6.093 0.775,-4.385 0.68,0.786 1.376,1.689 1.546,2.007 m 31.238,15.101 c 0.828,0.687 1.29,3.822 1.371,9.308 l 0.058,3.927 -0.968,0.094 c -1.86,0.181 -1.979,-0.197 -2.618,-8.368 -0.442,-5.653 0.026,-6.731 2.157,-4.961 m 30.46,0.155 c 1.011,0.765 2.963,35.526 1.994,35.526 -0.857,0 -0.988,-0.872 -1.91,-12.694 -0.418,-5.363 -0.988,-12.579 -1.266,-16.035 -0.59,-7.336 -0.467,-8.045 1.182,-6.797 m -72.568,7.77 c 0.577,0.696 5.346,41.747 4.901,42.191 -0.11,0.11 -0.546,-0.027 -0.969,-0.304 -0.88,-0.577 -0.922,-0.78 -1.417,-6.855 -0.454,-5.582 -1.292,-13.278 -2.639,-24.241 -0.592,-4.818 -1.076,-9.218 -1.076,-9.778 0,-1.423 0.505,-1.85 1.2,-1.013 m 223.511,16.413 -0.138,16.212 -1.167,1.59 c -2.115,2.881 -2.044,3.415 -2.044,-15.22 v -15.831 l 1.459,-1.481 c 0.802,-0.815 1.587,-1.481 1.743,-1.481 0.171,0 0.23,6.465 0.147,16.211 m -36.111,3.411 c 0.116,1.167 0.255,12.132 0.31,24.367 l 0.099,22.245 -0.688,0.689 c -0.378,0.379 -0.778,0.599 -0.889,0.488 -0.265,-0.265 -0.586,-48.925 -0.327,-49.599 0.497,-1.295 1.282,-0.344 1.495,1.81 m -126.422,4.929 c 0.41,0.494 2.368,23.418 2.093,24.511 -0.241,0.962 -1.889,1.145 -2.167,0.241 -0.276,-0.895 -2.352,-22.728 -2.352,-24.735 0,-0.55 1.973,-0.563 2.426,-0.017 m -30.199,15.212 c 0.251,0.251 0.526,1.364 0.632,2.554 0.103,1.161 0.699,7.794 1.326,14.742 1.231,13.654 1.222,13.933 -0.418,12.708 -0.922,-0.688 -1.004,-1.195 -1.934,-11.872 -0.186,-2.129 -0.626,-6.831 -0.979,-10.449 -0.77,-7.883 -0.475,-9.531 1.373,-7.683 m 17.837,24.914 c 1.079,1.078 1.631,13.687 0.608,13.891 -1.35,0.269 -1.859,-1.456 -2.572,-8.726 -0.551,-5.614 0.018,-7.111 1.964,-5.165"
       stroke="none"
       fill="#242424"
       fill-rule="evenodd" />
    <path
       id="path3"
       d="m 200.542,42.332 c 0.723,0.065 1.908,0.065 2.631,0 0.724,-0.065 0.132,-0.119 -1.315,-0.119 -1.448,0 -2.04,0.054 -1.316,0.119 m -14.056,16.182 c 0,1.447 0.053,2.039 0.118,1.316 0.066,-0.724 0.066,-1.908 0,-2.632 -0.065,-0.724 -0.118,-0.131 -0.118,1.316 m 32.525,4.799 c 0,2.724 0.048,3.797 0.105,2.384 0.058,-1.413 0.057,-3.642 -0.001,-4.953 -0.058,-1.312 -0.105,-0.156 -0.104,2.569 m -36.89,-2.477 c 0.004,0.681 0.067,0.923 0.141,0.538 0.074,-0.385 0.072,-0.942 -0.006,-1.238 -0.077,-0.296 -0.138,0.019 -0.135,0.7 m 41.524,6.811 c 10e-4,1.873 0.052,2.599 0.114,1.614 0.061,-0.985 0.061,-2.518 -0.002,-3.405 -0.062,-0.888 -0.112,-0.082 -0.112,1.791 m -36.886,4.18 c 0,0.596 0.064,0.839 0.142,0.541 0.078,-0.298 0.078,-0.785 0,-1.083 -0.078,-0.298 -0.142,-0.054 -0.142,0.542 m 51.084,9.288 c 0,0.596 0.063,0.839 0.141,0.541 0.078,-0.298 0.078,-0.785 0,-1.083 -0.078,-0.298 -0.141,-0.054 -0.141,0.542 m -18.564,3.096 c 0,0.766 0.061,1.079 0.135,0.696 0.073,-0.383 0.073,-1.01 0,-1.393 -0.074,-0.383 -0.135,-0.07 -0.135,0.697 m 22.946,8.049 c 0,2.129 0.049,2.999 0.109,1.935 0.061,-1.064 0.061,-2.806 0,-3.87 -0.06,-1.064 -0.109,-0.193 -0.109,1.935 m -18.274,4.025 c 0,1.617 0.052,2.279 0.116,1.47 0.063,-0.808 0.063,-2.132 0,-2.941 -0.064,-0.809 -0.116,-0.147 -0.116,1.471 m 13.932,0 c 0,1.617 0.052,2.279 0.115,1.47 0.064,-0.808 0.064,-2.132 0,-2.941 -0.063,-0.809 -0.115,-0.147 -0.115,1.471 m 54.146,-1.703 c 0.003,0.681 0.066,0.923 0.14,0.538 0.074,-0.385 0.072,-0.942 -0.006,-1.238 -0.077,-0.296 -0.138,0.019 -0.134,0.7 m -72.44,0.774 c 0,0.766 0.06,1.08 0.134,0.697 0.074,-0.383 0.074,-1.01 0,-1.394 -0.074,-0.383 -0.134,-0.069 -0.134,0.697 m 75.529,1.238 c 0,0.596 0.064,0.84 0.142,0.542 0.078,-0.298 0.078,-0.785 0,-1.083 -0.078,-0.298 -0.142,-0.055 -0.142,0.541 m -16.972,4.644 c 0,2.98 0.046,4.199 0.103,2.709 0.057,-1.49 0.057,-3.928 0,-5.418 -0.057,-1.49 -0.103,-0.27 -0.103,2.709 m -71.866,3.251 c 0.003,0.852 0.063,1.163 0.134,0.693 0.071,-0.471 0.069,-1.168 -0.004,-1.548 -0.074,-0.381 -0.132,0.004 -0.13,0.855 m 13.623,2.167 c 0.002,0.852 0.062,1.163 0.133,0.693 0.072,-0.471 0.07,-1.168 -0.004,-1.548 -0.073,-0.381 -0.132,0.004 -0.129,0.855 m 72.483,9.133 c 0,2.81 0.047,3.959 0.104,2.555 0.058,-1.405 0.058,-3.704 0,-5.109 -0.057,-1.405 -0.104,-0.255 -0.104,2.554 m -50.282,6.904 0.154,4.706 0.087,-4.464 c 0.048,-2.456 -0.021,-4.574 -0.154,-4.707 -0.132,-0.133 -0.171,1.876 -0.087,4.465 m 53.395,10.898 c 0,7.833 0.04,10.993 0.089,7.022 0.049,-3.97 0.049,-10.379 0,-14.241 -0.049,-3.862 -0.089,-0.613 -0.089,7.219 m -57.334,-12.538 c 0,0.766 0.06,1.079 0.134,0.696 0.074,-0.383 0.074,-1.01 0,-1.393 -0.074,-0.383 -0.134,-0.07 -0.134,0.697 m -31.557,1.702 c 0.001,1.363 0.055,1.881 0.121,1.153 0.065,-0.728 0.064,-1.843 -0.002,-2.477 -0.067,-0.634 -0.12,-0.038 -0.119,1.324 m 31.875,10.062 c 0,0.937 0.058,1.32 0.129,0.852 0.071,-0.469 0.071,-1.235 0,-1.703 -0.071,-0.468 -0.129,-0.085 -0.129,0.851 m 39.929,19.815 c 0,0.766 0.061,1.079 0.135,0.696 0.073,-0.383 0.073,-1.01 0,-1.393 -0.074,-0.383 -0.135,-0.07 -0.135,0.697 m 14.294,10.681 c 0,4.938 0.043,6.915 0.095,4.393 0.052,-2.523 0.052,-6.563 0,-8.979 -0.052,-2.416 -0.095,-0.352 -0.095,4.586 m 17.61,-2.013 c 0,1.107 0.056,1.56 0.125,1.007 0.068,-0.554 0.068,-1.459 0,-2.013 -0.069,-0.553 -0.125,-0.101 -0.125,1.006 m -35.287,19.35 c 10e-4,1.362 0.055,1.881 0.121,1.153 0.065,-0.728 0.064,-1.843 -0.002,-2.477 -0.067,-0.634 -0.12,-0.038 -0.119,1.324 m 52.317,1.239 c 0.002,1.191 0.058,1.641 0.125,0.999 0.067,-0.643 0.065,-1.618 -0.003,-2.167 -0.068,-0.55 -0.123,-0.024 -0.122,1.168 m -13.298,2.476 c 0,1.873 0.051,2.6 0.113,1.614 0.062,-0.985 0.061,-2.517 -10e-4,-3.405 -0.063,-0.888 -0.113,-0.082 -0.112,1.791 m 39.911,3.715 c 0.002,0.852 0.062,1.163 0.133,0.693 0.071,-0.471 0.069,-1.167 -0.004,-1.548 -0.074,-0.381 -0.132,0.004 -0.129,0.855 m -314.246,1.084 c 0,0.766 0.06,1.08 0.134,0.697 0.074,-0.383 0.074,-1.01 0,-1.394 -0.074,-0.383 -0.134,-0.069 -0.134,0.697 m 270.605,1.703 c 0.002,1.192 0.058,1.642 0.125,0.999 0.067,-0.642 0.066,-1.617 -0.003,-2.167 -0.068,-0.55 -0.123,-0.024 -0.122,1.168 m 20.463,4.489 c 0,3.491 0.045,4.919 0.1,3.173 0.055,-1.745 0.055,-4.601 0,-6.346 -0.055,-1.746 -0.1,-0.318 -0.1,3.173 m -37.809,3.406 c 0,0.936 0.058,1.319 0.129,0.851 0.071,-0.468 0.071,-1.235 0,-1.703 -0.071,-0.468 -0.129,-0.085 -0.129,0.852 m 2.486,1.083 c 10e-4,1.192 0.057,1.642 0.124,0.999 0.067,-0.642 0.066,-1.617 -0.003,-2.167 -0.068,-0.549 -0.123,-0.024 -0.121,1.168 m 31.595,10.527 c 10e-4,2.043 0.051,2.838 0.112,1.768 0.06,-1.071 0.06,-2.743 -0.002,-3.716 -0.061,-0.972 -0.11,-0.096 -0.11,1.948 m -287.34,-0.774 c 0,0.766 0.06,1.079 0.134,0.696 0.074,-0.383 0.074,-1.01 0,-1.393 -0.074,-0.383 -0.134,-0.07 -0.134,0.697 m 314.241,0.928 c 0,0.767 0.061,1.08 0.134,0.697 0.074,-0.383 0.074,-1.01 0,-1.393 -0.073,-0.383 -0.134,-0.07 -0.134,0.696 m -23.484,19.969 c 0,3.236 0.046,4.517 0.102,2.848 0.055,-1.669 0.055,-4.316 -10e-4,-5.882 -0.056,-1.567 -0.102,-0.201 -0.101,3.034 m -3.716,5.728 c 0,3.15 0.046,4.439 0.102,2.864 0.056,-1.575 0.056,-4.153 0,-5.728 -0.056,-1.575 -0.102,-0.286 -0.102,2.864 m -179.459,-0.71 c 0.385,0.074 0.942,0.071 1.238,-0.006 0.296,-0.078 -0.019,-0.138 -0.7,-0.135 -0.681,0.004 -0.923,0.067 -0.538,0.141 m 182.825,12.01 c 0.002,0.852 0.062,1.163 0.133,0.693 0.071,-0.471 0.069,-1.168 -0.004,-1.548 -0.074,-0.381 -0.132,0.004 -0.129,0.855 m -20.135,8.05 c 0.004,0.681 0.067,0.923 0.141,0.538 0.074,-0.385 0.071,-0.942 -0.006,-1.238 -0.078,-0.296 -0.138,0.019 -0.135,0.7 m 3.13,16.563 c 0,1.618 0.052,2.28 0.116,1.471 0.063,-0.809 0.063,-2.133 0,-2.941 -0.064,-0.809 -0.116,-0.147 -0.116,1.47 m -35.924,3.561 c 0.002,1.192 0.058,1.641 0.125,0.999 0.067,-0.642 0.066,-1.618 -0.003,-2.167 -0.068,-0.55 -0.123,-0.024 -0.122,1.168 m -128.507,0.368 c 0.298,0.078 0.786,0.078 1.084,0 0.298,-0.078 0.054,-0.142 -0.542,-0.142 -0.596,0 -0.84,0.064 -0.542,0.142 m 41.481,2.263 c 0,0.596 0.063,0.84 0.141,0.542 0.078,-0.298 0.078,-0.786 0,-1.084 -0.078,-0.298 -0.141,-0.054 -0.141,0.542 m -97.524,11.765 c 0,0.596 0.064,0.84 0.142,0.542 0.078,-0.298 0.078,-0.786 0,-1.084 -0.078,-0.298 -0.142,-0.054 -0.142,0.542 m 97.888,5.727 c 0,2.895 0.046,4.121 0.104,2.725 0.057,-1.397 0.057,-3.765 0,-5.264 -0.057,-1.498 -0.103,-0.355 -0.104,2.539 m -71.881,-2.941 c 0,0.596 0.063,0.84 0.141,0.542 0.078,-0.298 0.078,-0.786 0,-1.084 -0.078,-0.298 -0.141,-0.054 -0.141,0.542 m 157.014,7.276 c 0.001,2.213 0.05,3.078 0.11,1.922 0.059,-1.157 0.059,-2.968 -10e-4,-4.025 -0.061,-1.057 -0.109,-0.111 -0.109,2.103 m 1.869,7.74 c 10e-4,3.746 0.045,5.236 0.1,3.311 0.054,-1.925 0.054,-4.99 -10e-4,-6.811 -0.054,-1.821 -0.099,-0.246 -0.099,3.5 M 81.269,306.811 c 0.665,0.681 1.279,1.239 1.364,1.239 0.086,0 -0.389,-0.558 -1.054,-1.239 -0.665,-0.681 -1.279,-1.238 -1.364,-1.238 -0.085,0 0.389,0.557 1.054,1.238 m 230.176,0.852 -1.693,1.78 1.781,-1.692 c 1.653,-1.573 1.922,-1.869 1.692,-1.869 -0.049,0 -0.85,0.801 -1.78,1.781 m -6.191,6.191 -2.003,2.09 2.09,-2.003 c 1.149,-1.102 2.089,-2.042 2.089,-2.09 0,-0.228 -0.315,0.062 -2.176,2.003 m -215.793,1.084 c 1.283,1.367 1.561,1.613 1.561,1.38 0,-0.049 -0.662,-0.711 -1.471,-1.47 l -1.471,-1.381 1.381,1.471 m 100.71,0.077 c 0.003,0.682 0.067,0.924 0.141,0.539 0.074,-0.385 0.071,-0.943 -0.006,-1.239 -0.078,-0.296 -0.138,0.019 -0.135,0.7 m -69.047,4.49 c 0,0.596 0.064,0.839 0.142,0.541 0.078,-0.298 0.078,-0.785 0,-1.083 -0.078,-0.298 -0.142,-0.054 -0.142,0.542 m 18.301,7.894 c 10e-4,1.363 0.056,1.881 0.121,1.153 0.065,-0.728 0.064,-1.843 -0.002,-2.477 -0.067,-0.634 -0.12,-0.038 -0.119,1.324 m 49.835,12.694 c 0.002,1.022 0.06,1.402 0.128,0.846 0.069,-0.557 0.068,-1.393 -0.003,-1.858 -0.07,-0.465 -0.127,-0.01 -0.125,1.012"
       stroke="none"
       fill="#395c34"
       fill-rule="evenodd" />
    <path
       id="path4"
       d="m 185.991,42.324 c 0.383,0.074 1.01,0.074 1.393,0 0.383,-0.074 0.07,-0.134 -0.697,-0.134 -0.766,0 -1.079,0.06 -0.696,0.134 m 7.598,0.011 c 1.156,0.06 2.967,0.059 4.024,-10e-4 1.058,-0.06 0.111,-0.109 -2.102,-0.108 -2.214,0 -3.079,0.049 -1.922,0.109 m 30.029,20.668 c 0.002,0.851 0.062,1.163 0.134,0.692 0.071,-0.47 0.069,-1.167 -0.005,-1.548 -0.073,-0.38 -0.131,0.005 -0.129,0.856 m -4.633,6.966 c 0,1.107 0.056,1.56 0.124,1.006 0.069,-0.553 0.069,-1.459 0,-2.012 -0.068,-0.554 -0.124,-0.101 -0.124,1.006 m 85.04,14.087 c 0.577,0.596 1.12,1.083 1.205,1.083 0.085,0 -0.318,-0.487 -0.896,-1.083 -0.577,-0.596 -1.12,-1.084 -1.205,-1.084 -0.085,0 0.318,0.488 0.896,1.084 m -61.827,2.941 c 0,0.936 0.058,1.32 0.129,0.851 0.071,-0.468 0.071,-1.234 0,-1.702 -0.071,-0.469 -0.129,-0.086 -0.129,0.851 m 32.227,4.334 c 0,2.299 0.048,3.239 0.108,2.09 0.06,-1.149 0.06,-3.03 0,-4.18 -0.06,-1.149 -0.108,-0.208 -0.108,2.09 m -50.502,0.929 c 0,0.766 0.061,1.08 0.135,0.697 0.073,-0.383 0.073,-1.01 0,-1.394 -0.074,-0.383 -0.135,-0.069 -0.135,0.697 m 87.532,-0.832 c 0,0.053 0.453,0.506 1.006,1.006 l 1.006,0.91 -0.909,-1.007 c -0.847,-0.937 -1.103,-1.148 -1.103,-0.909 m -33.365,3.618 c 0,0.596 0.064,0.84 0.142,0.542 0.078,-0.298 0.078,-0.785 0,-1.083 -0.078,-0.298 -0.142,-0.055 -0.142,0.541 m -35.9,2.168 c 0,0.766 0.06,1.079 0.134,0.696 0.074,-0.383 0.074,-1.01 0,-1.393 -0.074,-0.383 -0.134,-0.07 -0.134,0.697 m 35.921,10.836 c 0,0.936 0.058,1.319 0.129,0.851 0.071,-0.468 0.071,-1.235 0,-1.703 -0.071,-0.468 -0.129,-0.085 -0.129,0.852 m 17.361,8.204 c 0.001,1.873 0.052,2.599 0.113,1.614 0.062,-0.985 0.061,-2.518 -10e-4,-3.406 -0.062,-0.887 -0.113,-0.081 -0.112,1.792 m -88.878,2.631 c 0,0.937 0.058,1.32 0.129,0.852 0.071,-0.468 0.071,-1.235 0,-1.703 -0.071,-0.468 -0.129,-0.085 -0.129,0.851 m 85.782,5.109 c 0.001,1.873 0.052,2.599 0.113,1.614 0.062,-0.985 0.061,-2.518 -10e-4,-3.406 -0.062,-0.887 -0.113,-0.081 -0.112,1.792 m -31.55,19.659 c 0,9.621 0.039,13.557 0.087,8.746 0.048,-4.81 0.048,-12.682 0,-17.492 -0.048,-4.81 -0.087,-0.874 -0.087,8.746 m -22.352,-8.049 c 0,0.766 0.061,1.079 0.135,0.696 0.073,-0.383 0.073,-1.01 0,-1.393 -0.074,-0.383 -0.135,-0.07 -0.135,0.697 m 36.243,14.86 c 0,1.277 0.055,1.8 0.122,1.161 0.066,-0.638 0.066,-1.683 0,-2.322 -0.067,-0.638 -0.122,-0.116 -0.122,1.161 m 17.976,26.007 c 0,2.469 0.048,3.479 0.107,2.244 0.058,-1.234 0.058,-3.254 0,-4.489 -0.059,-1.235 -0.107,-0.224 -0.107,2.245 m -61.269,-1.858 c 1.183,1.192 2.22,2.167 2.306,2.167 0.085,0 -0.813,-0.975 -1.996,-2.167 -1.183,-1.192 -2.22,-2.167 -2.306,-2.167 -0.085,0 0.813,0.975 1.996,2.167 m 82.601,14.551 c 0,0.937 0.058,1.32 0.129,0.851 0.071,-0.468 0.071,-1.234 0,-1.702 -0.071,-0.469 -0.129,-0.085 -0.129,0.851 m 39.929,1.548 c 0,0.766 0.061,1.08 0.134,0.697 0.074,-0.383 0.074,-1.01 0,-1.394 -0.073,-0.383 -0.134,-0.069 -0.134,0.697 M 39.7,191.331 c 0,0.596 0.064,0.84 0.142,0.542 0.078,-0.298 0.078,-0.786 0,-1.084 -0.078,-0.298 -0.142,-0.054 -0.142,0.542 m 291.068,13.777 c 0.001,2.044 0.051,2.839 0.112,1.768 0.06,-1.071 0.06,-2.742 -10e-4,-3.715 -0.062,-0.972 -0.111,-0.096 -0.111,1.947 m -3.734,-0.154 c 0,1.106 0.056,1.559 0.125,1.006 0.069,-0.554 0.069,-1.459 0,-2.013 -0.069,-0.553 -0.125,-0.1 -0.125,1.007 m 26.914,3.25 c 0.003,0.681 0.067,0.924 0.141,0.539 0.074,-0.386 0.071,-0.943 -0.006,-1.239 -0.078,-0.296 -0.138,0.019 -0.135,0.7 m -27.21,19.505 c 10e-4,1.703 0.053,2.36 0.116,1.46 0.063,-0.899 0.062,-2.293 -10e-4,-3.096 -0.064,-0.803 -0.115,-0.067 -0.115,1.636 m 3.702,10.371 c 0,1.107 0.056,1.56 0.125,1.007 0.068,-0.554 0.068,-1.459 0,-2.013 -0.069,-0.553 -0.125,-0.1 -0.125,1.006 m -17.341,38.545 c 0.002,1.022 0.06,1.403 0.128,0.846 0.069,-0.556 0.068,-1.392 -0.003,-1.857 -0.07,-0.466 -0.127,-0.01 -0.125,1.011 m -35.588,21.827 c 0,1.618 0.052,2.279 0.116,1.471 0.064,-0.809 0.064,-2.133 0,-2.942 -0.064,-0.808 -0.116,-0.147 -0.116,1.471 m -1.87,7.43 c 0,1.107 0.056,1.56 0.125,1.007 0.068,-0.554 0.068,-1.459 0,-2.013 -0.069,-0.553 -0.125,-0.1 -0.125,1.006 m -190.347,4.954 c 1.526,1.532 2.843,2.786 2.928,2.786 0.086,0 -1.093,-1.254 -2.618,-2.786 -1.526,-1.533 -2.843,-2.786 -2.929,-2.786 -0.085,0 1.094,1.253 2.619,2.786 m 223.205,-0.232 -1.223,1.316 1.315,-1.224 c 1.224,-1.138 1.458,-1.408 1.224,-1.408 -0.05,0 -0.643,0.592 -1.316,1.316 m -119.263,26.857 c 0,0.596 0.064,0.84 0.142,0.542 0.077,-0.298 0.077,-0.786 0,-1.083 -0.078,-0.298 -0.142,-0.055 -0.142,0.541 m 1.72,5.183 c 1.071,0.061 2.743,0.061 3.716,-0.001 0.972,-0.061 0.096,-0.111 -1.948,-0.11 -2.043,10e-4 -2.839,0.051 -1.768,0.111"
       stroke="none"
       fill="#2e3f2c"
       fill-rule="evenodd" />
  </g>
</svg>
