<svg version="1.2" viewBox="0 0 32 32" xmlns="http://www.w3.org/2000/svg"><path d="m14.67 26.604c-1.0147-1.2177-1.1162-1.3191-1.0147-1.5221l14.206-13.902c0.10147-0.10147 1.8265 0.71031 2.1309 1.1162 0.20295 0.20295-1.0147 1.4206-6.7987 7.9149l-7.1031 7.7119s-0.81178-0.60884-1.4206-1.3191m-3.1457-3.3486-1.0147-1.3191c0.10147-0.20295 7.9149-7.0016 8.1178-7.0016 0.10147 0 2.0295 1.5221 2.0295 1.725 0 0.20295-7.9149 7.6105-8.1178 7.6105zm-2.7398-3.2471q-0.81178-1.0147-0.71031-1.1162l3.856-2.8412 1.725 1.6236c0 0.20294-3.653 3.2471-3.856 3.2471q-0.30442 0-1.0147-1.0147m-2.3339-2.5368q-1.0147-0.91326-0.60884-1.0147l11.162-7.8134c0.20295 0 1.725 1.0147 1.725 1.1162l-11.365 8.6252zm7.3061-1.1162q-0.81178-0.71031-0.81178-1.0147l0.81178-0.71031 4.7692-3.653 4.0589-3.0442c0.30442 0 1.8265 1.0147 1.725 1.0147 0 0.30442-9.437 8.1178-9.6399 8.1178zm-9.3355-1.2177q-0.71031-0.71031-0.40589-0.91326l7.6105-4.7692a4.0589 4.0589 0 0 1 1.4206 1.1162 80.164 80.164 0 0 1-8.0164 5.4795zm16.236 0-1.0147-0.81178 5.3781-4.7692q0.10147-0.30442 1.2177 0.30442l1.0147 0.71031a70.016 70.016 0 0 1-5.581 5.2766zm-17.961-2.0295-0.71031-0.71031 0.30442-0.20295 7.1031-4.1604 6.4943-3.856 0.60884 0.30442 0.71031 0.50736c0 0.10147-14.003 8.9296-14.206 8.9296zm10.147-3.4501q-0.60884-0.40589-0.60884-0.60884 0.20294-0.40589 2.8412-2.0295l2.8412-1.6236 0.71031 0.40589 0.71031 0.50736c0 0.20295-5.581 3.9574-5.784 3.9574zm5.6825-0.81178-0.71031-0.60884 2.3339-1.6236 1.5221 0.91326-0.20295 0.30442c-0.30442 0.40589-2.0295 1.5221-2.0295 1.5221z" fill="#50abf1" stroke-width="1.0147"/></svg>
