<svg viewBox="0 0 32 32" xmlns="http://www.w3.org/2000/svg" xmlns:xlink="http://www.w3.org/1999/xlink"><filter id="a" name="e"><feGaussianBlur stdDeviation="1.275"/></filter><linearGradient id="b" gradientTransform="matrix(.366 0 0 -.366 -210.44 -292.295)" gradientUnits="userSpaceOnUse" x1="596.629" x2="599.481" y1="-820.523" y2="-826.534"><stop offset="0" stop-color="#8ae234"/><stop offset="1" stop-color="#4e9a06"/></linearGradient><linearGradient id="c" x1="599.996" x2="631.107" xlink:href="#b" y1="-815.078" y2="-868.963"/><linearGradient id="d" gradientTransform="matrix(.347 0 0 -.339 -214.765 -336.913)" gradientUnits="userSpaceOnUse" x1="648.158" x2="677.021" y1="-1013.946" y2="-1071.027"><stop offset="0" stop-color="#fff" stop-opacity=".549"/><stop offset="1" stop-color="#fff" stop-opacity="0"/></linearGradient><radialGradient id="e" cx="572.646" cy="-769.85" gradientTransform="matrix(.358 0 0 -.358 -181.98 -268.597)" gradientUnits="userSpaceOnUse" r="14.375"><stop offset="0" stop-color="#fff"/><stop offset=".5" stop-color="#fff520" stop-opacity=".891"/><stop offset="1" stop-color="#fff300" stop-opacity="0"/></radialGradient><g filter="url(#a)"><path d="m4.646 8h22.707a1.976 1.976 0 0 1 1.981 1.971v15.989a1.977 1.977 0 0 1 -1.972 1.981h-22.716a1.976 1.976 0 0 1 -1.98-1.972v-15.991a1.976 1.976 0 0 1 1.971-1.978z" fill-rule="evenodd"/><path d="m4.646 8h22.707a1.976 1.976 0 0 1 1.981 1.971v15.989a1.977 1.977 0 0 1 -1.972 1.981h-22.716a1.976 1.976 0 0 1 -1.98-1.972v-15.991a1.976 1.976 0 0 1 1.971-1.978z" fill="none" stroke="#000" stroke-width="2.051"/></g><g stroke="#366a04"><path d="m6.2 6.374h3.281v3.3h-3.281z" fill="url(#b)" fill-rule="evenodd" stroke-width="2.902"/><path d="m4.646 8h22.707a1.977 1.977 0 0 1 1.981 1.972v15.989a1.977 1.977 0 0 1 -1.972 1.98h-22.716a1.976 1.976 0 0 1 -1.98-1.972v-15.991a1.976 1.976 0 0 1 1.972-1.978z" fill="url(#c)" fill-rule="evenodd" stroke-width="3.605"/><path d="m20.877 17.969a4.878 4.878 0 1 1 -4.877-4.877 4.877 4.877 0 0 1 4.877 4.877z" fill="#fff" stroke-width="3.605"/></g><path d="m5.185 8.7h21.54c1.406 0 1.879.59 1.879 1.835v14.805c0 1.245-.518 1.834-1.879 1.834h-21.54c-1.407 0-1.879-.544-1.879-1.834v-14.806c0-1.382.609-1.834 1.879-1.834z" fill="none" stroke="url(#d)" stroke-linejoin="round" stroke-width="3.38"/><circle cx="23.184" cy="7.22" fill="url(#e)" r="5.15"/></svg>