<svg xmlns="http://www.w3.org/2000/svg" viewBox="0 0 32 32"><g fill="#e85705" fill-rule="evenodd"><title>file_type_wdio</title><path d="M9.978 11.91h.502v-.492h-.502zm.902.0h.503v-.492h-.502zm.805.0h.503v-.492h-.503zm.903.0h.503v-.492h-.503zM9.872 7.346V4.244c-.875.0-1.584.692-1.584 1.55s.71 1.552 1.584 1.552m13.84-1.553c0-.857-.71-1.55-1.584-1.55v3.103c.874.0 1.584-.696 1.584-1.553M13.65 4.391c.723.0 1.314.58 1.314 1.29s-.59 1.29-1.314 1.29-1.314-.58-1.314-1.29.59-1.29 1.314-1.29m0 2.878c.892.0 1.62-.713 1.62-1.588s-.728-1.588-1.62-1.588c-.893.0-1.62.713-1.62 1.588s.727 1.588 1.62 1.588"/><path d="M13.65 6.76c.607.0 1.1-.486 1.1-1.08s-.492-1.078-1.1-1.078-1.1.485-1.1 1.079.492 1.078 1.1 1.078m4.7-2.368c.724.0 1.314.58 1.314 1.29s-.59 1.29-1.314 1.29c-.723.0-1.314-.58-1.314-1.29s.59-1.29 1.314-1.29m0 2.878c.893.0 1.62-.713 1.62-1.588s-.727-1.588-1.62-1.588c-.892.0-1.62.713-1.62 1.588s.728 1.588 1.62 1.588"/><path d="M18.35 6.76c.608.0 1.1-.486 1.1-1.08s-.492-1.078-1.1-1.078-1.1.485-1.1 1.079.492 1.078 1.1 1.078m2.197-1.236h.513v-.5h-.513zm0 .723h.513v-.502h-.513z"/><path d="M10.603 3.25a.9.9.0 01.91-.89h8.974a.9.9.0 01.91.89v3.896a.902.902.0 01-.91.892h-8.974c-.502.0-.91-.4-.91-.892zm.91 5.087h8.974c.667.0 1.216-.534 1.216-1.191V3.249c0-.653-.549-1.19-1.216-1.19h-8.974c-.667.0-1.216.537-1.216 1.19v3.897c0 .657.548 1.19 1.216 1.19zm11.335.467c.657.0 1.198.52 1.215 1.163v.151c.809.13 3.503 1.016 3.556 3.855l.004.084v6.325c.32.207.52.491.52.808.0.242-.12.47-.32.657-.021.45.105 1.335.169 1.704l.007.028v.024c0 .018.003.464-.295.76-.17.168-.398.252-.675.252-.878.0-.914-.723-.931-1.068-.004-.045-.004-.084-.007-.12-.014-.143-.067-.217-.155-.217h-.007c-.095.0-.154.028-.253.176-.277.4-.776.362-1.043.207a.57.57.0 01-.289-.376c-.049-.225.036-.492.25-.79.165-.233.2-.433.186-.584-.2-.186-.32-.411-.32-.653.0-.306.19-.584.496-.791l.028-.021v-5.696c0-.474-.148-.653-.457-.924a.94.94.0 00-.428-.207l-.036-.003v9.089c0 .646-.53 1.177-1.187 1.19h-.893v3.346h.717l.028.007.014.003c.211.057 1.15.352 1.293 1.434l.007.042v1.283h-4.237l-1.304-.447v-.97c-.031-.488.053-.85.246-1.057l.021-.021v-3.619h-5.562v3.619c.2.197.292.555.271 1.033l-.004.046v.97l-1.303.446H7.933v-1.283c.14-1.24 1.303-1.479 1.342-1.486h.717v-3.345h-.84a1.21 1.21.0 01-1.216-1.163v-9.122a.955.955.0 00-.464.215c-.298.263-.45.439-.456.885v5.734c.323.211.523.496.523.812.0.242-.12.467-.32.653-.014.152.021.352.187.584.214.298.298.565.249.79a.575.575.0 01-.285.376c-.27.155-.77.193-1.047-.207-.098-.148-.158-.176-.253-.176h-.007c-.088.0-.14.074-.154.218-.004.035-.004.074-.007.12-.018.344-.053 1.068-.931 1.068-.278.0-.506-.085-.675-.253-.278-.278-.295-.685-.295-.752v-.032c.063-.348.197-1.272.175-1.732-.2-.186-.32-.415-.32-.657.0-.306.187-.583.493-.79l.028-.018v-6.325c0-2.874 2.688-3.787 3.534-3.935l.025-.003v-.123c0-.643.53-1.174 1.188-1.191zm.854 19.68h-3.658c.003.046.007.088.007.133v.043h3.682a1.407 1.407.0 00-.031-.176zm-11.771.0H8.273c-.01.042-.017.084-.024.13l-.007.046h3.682a.98.98.0 01.007-.176zm7.055-.826c-.112.11-.175.33-.182.622l-.004.035.945.324a1.391 1.391.0 00-.316-.858c-.109-.133-.207-.186-.264-.19a.225.225.0 00-.179.067zm-6.16-.067h-.017c-.056.004-.154.057-.263.19a1.405 1.405.0 00-.316.822v.036l.941-.324c0-.309-.067-.544-.182-.657a.213.213.0 00-.145-.067zm9.829-.119h-3.1c.04.035.074.074.113.116.137.169.267.411.337.675l.007.042h3.63c-.257-.647-.892-.812-.987-.833zm-10.236.0H9.32c-.094.021-.71.183-.973.798l-.014.035h3.626c.063-.281.2-.538.348-.717.039-.042.074-.08.112-.116zm-1.858-3.644h-.387v3.345h.387zm2.34.0h-.418V25.8h.14v.632h-.14v.741h.418zm8.9.0h-.387v3.345h.387zm-2.309.0h-.418v3.345h.418v-.741h-.144V25.8h.144zM4.485 22.065c-.017.59-.158 1.426-.179 1.55.004.059.021.354.211.537.109.109.26.165.453.165.215.0.355-.06.447-.155a.684.684.0 01-.408-.235c-.116-.148-.14-.341-.074-.573.025-.084.042-.147.06-.204l.039-.126.014-.05a6.22 6.22.0 00.116-.67 2.375 2.375.0 01-.679-.24zm23.029.0c-.193.105-.425.19-.678.239.056.39.08.537.116.67l.014.05c.01.038.024.08.038.126.018.057.036.12.06.204.067.232.042.425-.074.573a.684.684.0 01-.407.235c.091.095.232.155.446.155.197.0.344-.056.453-.165.19-.183.208-.478.211-.538-.014-.084-.088-.51-.133-.96l-.007-.073a9.713 9.713.0 01-.04-.516zm-1.68.25c-.084.13-.19.245-.295.354-.112.123-.218.235-.28.358a.157.157.0 00-.015.13.343.343.0 00.113.134.302.302.0 00.063-.07c.109-.166.25-.313.523-.313.253.007.422.19.45.492.007.038.007.08.01.13.008.126.018.246.043.351.088-.01.232-.042.302-.133.053-.07.06-.176.021-.313-.025-.08-.042-.144-.06-.2-.074-.243-.095-.313-.175-.893a2.86 2.86.0 01-.7-.028zm-19.669.0a2.86 2.86.0 01-.699.027c-.08.58-.102.65-.175.893-.018.056-.036.12-.06.2-.039.137-.032.242.02.313.071.091.215.123.303.133.025-.105.035-.225.042-.351l.01-.13c.029-.302.198-.485.454-.492.27.0.411.147.52.313a.325.325.0 00.063.07.343.343.0 00.113-.134.157.157.0 00-.014-.13c-.064-.123-.169-.235-.281-.358a2.397 2.397.0 01-.296-.355zm18.914-.257a1.263 1.263.0 01-.236.54c-.158.226-.228.419-.196.556a.262.262.0 00.14.179c.05.028.183.08.327.067a.487.487.0 01-.102-.165.387.387.0 01.028-.317c.077-.15.2-.284.32-.41.074-.081.151-.162.214-.25a2.088 2.088.0 01-.495-.2zm-18.159.0a2.088 2.088.0 01-.495.2c.063.088.14.169.214.25.12.126.242.26.32.41a.387.387.0 01.028.317.487.487.0 01-.102.165.596.596.0 00.327-.067.262.262.0 00.14-.18c.032-.136-.038-.33-.196-.554a1.268 1.268.0 01-.236-.541zm15.502-1.968H9.678v1.767c0 .643.527 1.17 1.18 1.188H21.21c.657.0 1.194-.517 1.212-1.156zm1.64-9.546v1.813c.359.102.707.263.998.52.468.41.71 1.078.72 1.76V20h1.41v-5.942c0-1.184-.5-2.129-1.49-2.81a4.517 4.517.0 00-1.637-.703zm-16.127.0c-.327.06-.998.26-1.637.702-.974.672-1.476 1.6-1.49 2.759v5.994h1.409v-5.316c0-.7.242-1.388.72-1.806.278-.243.608-.4.949-.506l.049-.014zm14.486 3.83h-6.725v3.548h6.725zm-12.445.295h-.2v2.958h.2zm3.211.0c-.829.0-1.504.664-1.504 1.479s.675 1.48 1.504 1.48c.833.0 1.508-.665 1.508-1.48s-.675-1.48-1.508-1.48zm-1.504.0h-.196l-1.21 2.958h.198zm1.504.186c.728.0 1.318.58 1.318 1.293s-.59 1.293-1.318 1.293-1.317-.58-1.317-1.293.59-1.293 1.317-1.293zm8.022-5.31h-10.32c-.657.0-1.198.517-1.212 1.157v1.504H22.42V10.73c0-.65-.545-1.184-1.213-1.184z"/></g><g fill="none" stroke="#e85705"><path transform="matrix(.10035 0 0 .09853 3.857 2.058)" d="M117.99 150.74c6.652-10.341 16.981-10.948 30.985-1.819 21.007 13.694 12.989-28.42 36.027-6.418" stroke-linecap="square"/><path transform="matrix(.10035 0 0 .09853 3.857 2.058)" d="M87.004 197.99c0 6.633-5.392 12.018-12.009 12.018s-12.009-5.385-12.009-12.018c0-6.597 5.392-11.982 12.009-11.982s12.009 5.385 12.009 11.982zm30.006.0c0 6.633-5.392 12.018-12.009 12.018s-12.009-5.385-12.009-12.018c0-6.597 5.392-11.982 12.009-11.982s12.009 5.385 12.009 11.982z"/><path transform="matrix(.10035 0 0 .09853 3.857 2.058)" d="M74.995 209v-11.019m30.005.009 6.932-7.917m21.078.427h37.988m-37.988 6.99h37.988m-37.988 7.02h21.987" stroke-linecap="round" stroke-width="2"/></g></svg>