<svg xmlns="http://www.w3.org/2000/svg" viewBox="0 0 32 32"><title>file_type_java@2x</title><g id="java"><path d="M12.33,23.65s-1.07.62.76.83a16,16,0,0,0,5.8-.25,10.09,10.09,0,0,0,1.54.75c-5.48,2.35-12.41-.14-8.1-1.34" style="fill:#5382a1"/><path d="M11.66,20.59s-1.2.89.63,1.08a22.62,22.62,0,0,0,7.48-.36,3.32,3.32,0,0,0,1.15.7c-6.63,1.94-14,.15-9.27-1.42" style="fill:#5382a1"/><path d="M17.3,15.39a2.05,2.05,0,0,1-.35,3s3.43-1.77,1.85-4-2.6-3.09,3.51-6.64c0,0-9.59,2.39-5,7.67" style="fill:#5382a1"/><path d="M24.55,25.92s.79.65-.87,1.16c-3.16,1-13.17,1.25-15.95,0-1-.43.87-1,1.46-1.16a3.8,3.8,0,0,1,1-.11C9.05,25.06,3,27.38,7.08,28c11.18,1.81,20.37-.82,17.47-2.12" style="fill:#5382a1"/><path d="M12.84,17.41S7.75,18.62,11,19.06A38.22,38.22,0,0,0,17.77,19c2.11-.18,4.22-.56,4.22-.56a8.93,8.93,0,0,0-1.28.68c-5.17,1.36-15.15.73-12.28-.66a9.63,9.63,0,0,1,4.41-1" style="fill:#5382a1"/><path d="M22,22.51c5.25-2.73,2.82-5.35,1.13-5a3.93,3.93,0,0,0-.6.16,1,1,0,0,1,.45-.35c3.35-1.18,5.93,3.48-1.08,5.32a.46.46,0,0,0,.11-.14" style="fill:#5382a1"/><path d="M18.8,2S21.71,4.91,16,9.39c-4.55,3.59-1,5.64,0,8-2.65-2.39-4.6-4.5-3.29-6.46C14.66,8,20,6.62,18.8,2" style="fill:#5382a1"/><path d="M13.36,29.91c5,.32,12.79-.18,13-2.57,0,0-.35.9-4.17,1.62a41.46,41.46,0,0,1-12.76.2s.64.53,4,.75" style="fill:#5382a1"/></g></svg>