<?xml version="1.0" encoding="UTF-8" standalone="no"?>
<svg
   xmlns:dc="http://purl.org/dc/elements/1.1/"
   xmlns:cc="http://creativecommons.org/ns#"
   xmlns:rdf="http://www.w3.org/1999/02/22-rdf-syntax-ns#"
   xmlns:svg="http://www.w3.org/2000/svg"
   xmlns="http://www.w3.org/2000/svg"
   xmlns:xlink="http://www.w3.org/1999/xlink"
   xmlns:sodipodi="http://sodipodi.sourceforge.net/DTD/sodipodi-0.dtd"
   xmlns:inkscape="http://www.inkscape.org/namespaces/inkscape"
   inkscape:version="1.0 (4035a4f, 2020-05-01)"
   sodipodi:docname="file_type_nix.svg"
   id="svg27"
   version="1.1"
   viewBox="0 0 33.435588 30.609148"
   height="32.649757"
   width="35.664627">
  <metadata
     id="metadata31">
    <rdf:RDF>
      <cc:Work
         rdf:about="">
        <dc:format>image/svg+xml</dc:format>
        <dc:type
           rdf:resource="http://purl.org/dc/dcmitype/StillImage" />
        <dc:title>file_type_nix</dc:title>
      </cc:Work>
    </rdf:RDF>
  </metadata>
  <sodipodi:namedview
     inkscape:pagecheckerboard="false"
     lock-margins="false"
     fit-margin-right="2"
     fit-margin-bottom="2"
     fit-margin-left="2"
     fit-margin-top="2"
     inkscape:current-layer="svg27"
     inkscape:window-maximized="0"
     inkscape:window-y="0"
     inkscape:window-x="0"
     inkscape:cy="35.920335"
     inkscape:cx="52.946685"
     inkscape:zoom="6.5872129"
     showgrid="false"
     id="namedview29"
     inkscape:window-height="900"
     inkscape:window-width="1440"
     inkscape:pageshadow="2"
     inkscape:pageopacity="0"
     guidetolerance="10"
     gridtolerance="10"
     objecttolerance="10"
     borderopacity="1"
     bordercolor="#666666"
     pagecolor="#ffffff" />
  <title
     id="title10">file_type_nix</title>
  <g
     transform="matrix(0.49475977,0,0,0.51602591,1.875,-0.17310684)"
     id="g22"
     fill-rule="evenodd">
    <use
       height="100%"
       width="100%"
       y="0"
       x="0"
       id="use12"
       fill="#5277c3"
       xlink:href="#B" />
    <path
       id="path14"
       fill="#7ebae4"
       d="M 23.58,20.214 8.964,45.528 5.55,39.743 9.49,32.963 1.667,32.943 0,30.052 l 1.703,-2.956 11.135,0.035 4.002,-6.9 z M 24.7,40.45 h 29.23 l -3.302,5.85 -7.84,-0.022 3.894,6.785 -1.67,2.9 -3.412,0.004 -5.537,-9.66 -7.976,-0.016 z M 41.714,29.358 27.1,4.043 33.816,3.98 l 3.902,6.8 3.93,-6.765 3.337,0.002 1.7,2.953 -5.598,9.626 3.974,6.916 z" />
    <g
       id="g20"
       fill="#5277c3">
      <use
         height="100%"
         width="100%"
         y="0"
         x="0"
         id="use16"
         xlink:href="#B" />
      <path
         id="path18"
         d="m 35.28,19.486 -29.23,-0.002 3.303,-5.848 7.84,0.022 -3.893,-6.785 1.67,-2.9 3.412,-0.004 5.537,9.66 7.976,0.016 z m 1.14,20.294 14.616,-25.313 3.413,5.785 -3.94,6.78 7.823,0.02 1.668,2.9 -1.703,2.956 -11.135,-0.035 -4.002,6.9 z" />
    </g>
  </g>
  <defs
     id="defs25">
    <path
       d="m 18.305,30.642 14.615,25.314 -6.716,0.063 -3.902,-6.8 -3.93,6.765 -3.337,-0.002 -1.71,-2.953 5.598,-9.626 -3.974,-6.916 z"
       id="B" />
  </defs>
</svg>
