<svg viewBox="0 0 32 32" xmlns="http://www.w3.org/2000/svg"><path d="m29.821 4.321-5.798-2.321-12.53 12.212-7.66-5.827-1.654.837v13.578l1.644.827 7.65-5.827 12.55 12.2 5.8-2.321v-23.358zm-25.171 14.871v-6.374l3.55 3.167zm11.35-3.207 7.082-5.3v10.639l-7.092-5.339z" fill="#68217a"/><path d="m15.995 15.985 7.082-5.299v10.638l-7.092-5.339z" fill="#fff"/><path d="m4.65 19.192v-6.374l3.546 3.167z" fill="#fff"/><path d="m30.02 28.201-8.398-.001v-1.882l-1.883-.001v-8.397l1.883.001-.002-1.882h8.398v1.883h1.882l-.001 3.764h.001v4.633h-1.881z" fill="#efeef0"/><path d="m15.64 31.96h-5.74v-15.921h10.424v5.165h-4.684v.484h4.306v5.156h-4.306z" fill="#efeef0"/><path d="m18.95 19.83h-4.685v3.232h4.306v2.407h-4.306v5.116h-2.99v-13.171h7.675z" fill="#378bba"/><path d="m23 17.414h1.883v1.886h1.882v-1.886h1.882v1.886h1.881v1.882h-1.885v1.881h1.881v1.883h-1.881v1.882h-1.882v-1.883h-1.881v1.882h-1.88v-1.882h-1.883v-1.885h1.883v-1.878h-1.886v-1.882h1.886zm1.883 5.648h1.882v-1.883h-1.886z" fill="#30b9db"/></svg>