<svg xmlns="http://www.w3.org/2000/svg" viewBox="0 0 32 32"><title>file_type_retext</title><path d="M14.721,14.546a1.849,1.849,0,0,0-1.165-.318,2,2,0,0,0-1.657.9,4,4,0,0,0-.664,2.436v4.719H9V12.418h2.235V14.45h.038a3.427,3.427,0,0,1,1.007-1.623,2.272,2.272,0,0,1,1.517-.583,1.882,1.882,0,0,1,.924.183Z" style="fill:#03d803"/><path d="M23,22.173a3.874,3.874,0,0,1-1.724.327q-2.871,0-2.87-2.754V14.17H16.759V12.418h1.647V10.136L20.64,9.5v2.918H23V14.17H20.64V19.1a1.944,1.944,0,0,0,.318,1.252,1.321,1.321,0,0,0,1.06.375A1.538,1.538,0,0,0,23,20.4Z" style="fill:#d2d2d2"/></svg>