<svg xmlns="http://www.w3.org/2000/svg" viewBox="0 0 32 32"><title>file_type_netlify</title><linearGradient id="gradient1" gradientUnits="userSpaceOnUse" x1="-78" y1="35.0002" x2="-78" y2="6.9998" gradientTransform="matrix(1 0 0 -1 94 37)"><stop offset="0" style="stop-color:#21C6B7"/><stop offset="1" style="stop-color:#4C9BBF"/></linearGradient><path style="fill:url(#gradient1)" d="M22.292,11.717c-0.003-0.002-0.007-0.003-0.01-0.004	c-0.006-0.002-0.012-0.004-0.017-0.01c-0.017-0.016-0.024-0.045-0.02-0.068l0.565-3.451l2.651,2.648l-2.756,1.171	c-0.008,0.003-0.016,0.005-0.024,0.005c-0.005,0-0.008,0-0.011-0.001c-0.004-0.001-0.007-0.004-0.014-0.011	C22.557,11.887,22.437,11.791,22.292,11.717z M26.136,11.507l2.834,2.831c0.589,0.588,0.883,0.882,0.991,1.222	c0.016,0.05,0.029,0.101,0.039,0.152l-6.772-2.864c-0.003-0.001-0.007-0.003-0.011-0.004c-0.027-0.011-0.059-0.024-0.059-0.052	c0-0.027,0.032-0.041,0.059-0.052c0.003-0.001,0.006-0.002,0.008-0.003L26.136,11.507z M29.884,16.621	c-0.146,0.275-0.431,0.559-0.914,1.042l-3.194,3.19l-4.132-0.86c-0.007-0.001-0.014-0.003-0.022-0.004	c-0.036-0.006-0.076-0.012-0.076-0.046c-0.038-0.348-0.202-0.659-0.479-0.871c-0.017-0.017-0.012-0.043-0.008-0.068	c0.001-0.003,0.001-0.007,0.002-0.01l0.778-4.766c0.001-0.005,0.002-0.01,0.002-0.016c0.005-0.036,0.011-0.079,0.045-0.079	c0.348-0.049,0.646-0.219,0.848-0.486c0.006-0.008,0.011-0.015,0.02-0.02c0.023-0.011,0.052,0,0.075,0.01L29.884,16.621z	 M25.041,21.587l-5.253,5.248l0.9-5.521c0-0.003,0.001-0.005,0.001-0.008c0.001-0.007,0.002-0.014,0.004-0.02	c0.007-0.018,0.026-0.025,0.045-0.033c0.003-0.001,0.006-0.002,0.009-0.003c0.2-0.083,0.369-0.215,0.508-0.377	c0.018-0.021,0.039-0.04,0.066-0.045c0.006-0.001,0.015,0,0.021,0.001L25.041,21.587z M18.676,27.945l-0.592,0.592l-6.546-9.451	c-0.002-0.003-0.005-0.007-0.008-0.01c-0.01-0.013-0.021-0.027-0.019-0.044c0.001-0.012,0.009-0.021,0.016-0.031	c0.002-0.003,0.005-0.006,0.007-0.009c0.02-0.029,0.037-0.058,0.056-0.09c0.005-0.008,0.01-0.017,0.015-0.025l0.001-0.002	c0.01-0.017,0.02-0.034,0.038-0.043c0.015-0.008,0.036-0.005,0.053-0.001l7.253,1.494c0.018,0.004,0.042,0.011,0.056,0.024	c0.009,0.009,0.011,0.019,0.014,0.031c0.001,0.005,0.002,0.009,0.003,0.014c0.106,0.374,0.379,0.698,0.749,0.844	c0.02,0.01,0.011,0.033,0.002,0.057c-0.004,0.011-0.009,0.022-0.011,0.033C19.67,21.883,18.886,26.657,18.676,27.945z M17.439,29.18	c-0.436,0.432-0.694,0.66-0.985,0.752c-0.287,0.091-0.595,0.091-0.882,0c-0.341-0.108-0.635-0.402-1.224-0.99l-6.574-6.567	l1.717-2.661c0.008-0.013,0.016-0.025,0.029-0.034c0.019-0.013,0.045-0.007,0.067,0c0.177,0.054,0.343,0.077,0.521,0.077	c0.23,0,0.448-0.046,0.676-0.137c0.019-0.008,0.039-0.012,0.055,0.001c0.007,0.007,0.015,0.016,0.021,0.024L17.439,29.18z	 M7.141,21.742l-1.509-1.507l2.979-1.269c0.008-0.003,0.016-0.005,0.024-0.005c0.025,0,0.039,0.025,0.053,0.048	c0.003,0.006,0.007,0.011,0.01,0.016c0.028,0.043,0.057,0.081,0.085,0.118c0.002,0.003,0.007,0.009,0.009,0.012	c0.008,0.012,0.002,0.024-0.006,0.037L7.141,21.742z M4.965,19.569l-1.908-1.906c-0.325-0.324-0.56-0.559-0.723-0.762l5.801,1.202	c0.007,0.001,0.014,0.003,0.022,0.004c0.036,0.006,0.076,0.012,0.076,0.046c0,0.036-0.043,0.053-0.08,0.068	c-0.006,0.002-0.012,0.005-0.017,0.007L4.965,19.569z M2,15.921c0.007-0.122,0.029-0.244,0.066-0.362	c0.108-0.34,0.402-0.634,0.991-1.222l2.442-2.44c0.402,0.59,3.061,4.426,3.371,4.87c0.003,0.004,0.006,0.009,0.01,0.013	c0.02,0.027,0.042,0.056,0.02,0.078c-0.107,0.117-0.214,0.246-0.289,0.385c-0.009,0.016-0.02,0.035-0.036,0.045	c-0.01,0.006-0.02,0.004-0.031,0.002H8.542L2,15.921z M6.152,11.246l3.283-3.28c0.309,0.135,1.432,0.609,2.436,1.033	c0.761,0.321,1.454,0.614,1.671,0.707c0.022,0.009,0.042,0.018,0.051,0.04c0.006,0.013,0.003,0.03,0,0.044	C13.571,9.895,13.56,10,13.56,10.105c0,0.386,0.151,0.746,0.416,1.02c0.022,0.021,0,0.053-0.019,0.081	c-0.004,0.005-0.007,0.01-0.01,0.015l-3.333,5.158c-0.009,0.014-0.017,0.027-0.031,0.036c-0.018,0.012-0.042,0.006-0.063,0.001	c-0.13-0.033-0.269-0.054-0.397-0.054c-0.119,0-0.25,0.022-0.381,0.046H9.741c-0.014,0.003-0.027,0.005-0.039-0.004	c-0.013-0.009-0.024-0.024-0.033-0.037L6.152,11.246z M10.098,7.304l4.251-4.246c0.589-0.588,0.883-0.882,1.224-0.99	c0.287-0.091,0.595-0.091,0.882,0c0.341,0.108,0.635,0.402,1.224,0.99l0.921,0.92l-3.023,4.677c-0.009,0.013-0.017,0.026-0.03,0.035	c-0.018,0.013-0.044,0.007-0.066,0.001c-0.153-0.044-0.306-0.065-0.459-0.065c-0.34,0-0.68,0.124-0.945,0.336	c-0.02,0.019-0.049,0.007-0.074-0.004C13.608,8.786,10.537,7.489,10.098,7.304z M19.241,4.619l2.792,2.789l-0.672,4.16	c-0.001,0.003-0.001,0.007-0.001,0.011c-0.001,0.01-0.002,0.02-0.006,0.028c-0.007,0.015-0.021,0.018-0.036,0.021	c-0.005,0.001-0.011,0.002-0.016,0.004c-0.141,0.046-0.273,0.111-0.385,0.195c-0.005,0.004-0.01,0.009-0.014,0.013	c-0.008,0.009-0.016,0.017-0.03,0.018c-0.009,0.001-0.023-0.001-0.031-0.005l-4.253-1.805c-0.003-0.001-0.006-0.002-0.009-0.004	c-0.027-0.011-0.059-0.024-0.059-0.052c-0.023-0.227-0.098-0.454-0.217-0.653c-0.003-0.005-0.006-0.01-0.009-0.015	c-0.021-0.034-0.043-0.069-0.026-0.103L19.241,4.619z M16.367,10.904l3.987,1.687c0.023,0.01,0.046,0.02,0.055,0.042	c0.005,0.012,0.003,0.028,0,0.041c-0.011,0.058-0.021,0.125-0.021,0.192v0.112c0,0.027-0.029,0.039-0.055,0.05	c-0.003,0.001-0.006,0.002-0.009,0.004c-0.631,0.269-8.868,3.777-8.88,3.777c-0.013,0-0.025,0-0.038-0.012	c-0.022-0.021,0-0.053,0.019-0.081c0.004-0.005,0.007-0.01,0.01-0.015l3.277-5.067c0.002-0.003,0.004-0.006,0.006-0.009	c0.019-0.031,0.041-0.065,0.076-0.065c0.011,0.002,0.022,0.003,0.033,0.005c0.074,0.011,0.14,0.02,0.206,0.02	c0.497,0,0.958-0.242,1.236-0.655c0.007-0.011,0.014-0.021,0.024-0.029C16.314,10.886,16.343,10.894,16.367,10.904z M11.801,17.611	l8.977-3.824c0,0,0.013,0,0.025,0.013c0.049,0.048,0.091,0.082,0.13,0.112c0.006,0.004,0.013,0.008,0.02,0.013	c0.018,0.011,0.037,0.022,0.038,0.041c0,0.007,0,0.012-0.001,0.018l-0.77,4.719c-0.001,0.006-0.002,0.012-0.003,0.019	c-0.005,0.037-0.01,0.079-0.045,0.079c-0.417,0.024-0.787,0.261-1.003,0.618c-0.001,0.002-0.002,0.004-0.004,0.006	c-0.01,0.017-0.02,0.033-0.037,0.042c-0.015,0.007-0.035,0.004-0.051,0.001l-7.159-1.475C11.913,17.989,11.808,17.612,11.801,17.611	z"/></svg>