<svg xmlns="http://www.w3.org/2000/svg" viewBox="0 0 32 32"><title>file_type_meson</title><path d="M8.807,27.573c-1.427,0-3.906-.07-5.053-1.092a3.676,3.676,0,0,1-1.582-2.943,21.707,21.707,0,0,1-.124-4.175,33.245,33.245,0,0,1,1-5.6A33.113,33.113,0,0,1,5.2,6.821a3.578,3.578,0,0,1,2.509-2.15,12.119,12.119,0,0,1,3.874-.1,3.391,3.391,0,0,1,2.725,2.867c.168,1.438.144,1.828.271,3.118-.016.726.526,1.887,1.364,1.856.793-.028,1.366-1.054,1.451-1.735a29.137,29.137,0,0,1,.244-3.095,3.624,3.624,0,0,1,2.526-3.028,11.072,11.072,0,0,1,3.814.041,3.562,3.562,0,0,1,2.787,2.2c.558,1.149.87,2.307,1.343,3.571a20.87,20.87,0,0,1,.907,3.557c.276,1.258.3,1.772.562,3.031.065,1.38.369,1.641.416,2.96a23.19,23.19,0,0,1-.2,3.875A4.44,4.44,0,0,1,28.4,26.541a8.441,8.441,0,0,1-3.94,1.021,27.121,27.121,0,0,1-4.058-.09,2.13,2.13,0,0,1-1.716-2.436c.088-1.741,1.741-1.826,2.954-1.829s2.921-.061,3.072-1.609a14.4,14.4,0,0,0-.214-4.554,16.715,16.715,0,0,0-1.282-4.163c-.163-.941-1.617-1.283-1.973-.4a9.288,9.288,0,0,0-.614,2.473c-.235.847-.12,1.634-.451,2.7-.395,1.265-.383,1.529-1.712,2.06a15.417,15.417,0,0,1-4.581.036,2.611,2.611,0,0,1-2.07-2.282c-.263-.951-.2-1.955-.408-2.938-.212-1-.529-2.94-1.823-2.461-.953.352-1.442,2.375-1.829,3.644a13.492,13.492,0,0,0-.5,5.11c-.194,2.409,1.479,2.166,2.693,2.418,1.036,0,3.226.062,3.385,1.423a2.357,2.357,0,0,1-.942,2.568c-.8.46-2.149.345-3.576.345ZM23.149,12.917C23.054,12.777,23.285,12.944,23.149,12.917Z" style="fill:#389f00"/></svg>