<svg xmlns="http://www.w3.org/2000/svg" viewBox="0 0 32 32"><path d="M6.06,25H2L9.64,2.35H13.7Z"/><path d="M12.56,22a4.84,4.84,0,0,1-1.44,1.74,3.43,3.43,0,0,1-2,.61A3.57,3.57,0,0,1,6.05,22.8,8.37,8.37,0,0,1,4.93,18V9.6H8.7V18a6.56,6.56,0,0,0,.38,2.68,1.27,1.27,0,0,0,1.2.75,2.6,2.6,0,0,0,1.15-.25,2.46,2.46,0,0,0,.85-.73V9.6h3.79V24.08H13Z" style="fill:#29abe2"/><path d="M30,17.2a9.4,9.4,0,0,1-1.28,5.2,4,4,0,0,1-3.58,2A3.56,3.56,0,0,1,23.51,24a3.51,3.51,0,0,1-1.23-1.08v6.73H18.51V9.6H22l.16,1.49a4,4,0,0,1,1.27-1.3,3.13,3.13,0,0,1,1.71-.46,4,4,0,0,1,3.61,2.09A10.46,10.46,0,0,1,30,16.92Zm-3.77-.28a9.09,9.09,0,0,0-.51-3.34,1.7,1.7,0,0,0-1.58-1.28,1.87,1.87,0,0,0-1.11.33,2.21,2.21,0,0,0-.75.92v6.83a1.86,1.86,0,0,0,.75.77,2.19,2.19,0,0,0,1.12.27,1.65,1.65,0,0,0,1.59-1.12,8,8,0,0,0,.49-3.1Z" style="fill:#29abe2"/><path d="M8.71,9.62H7.19L4.94,16.27V18a8.39,8.39,0,0,0,1.12,4.85,4.4,4.4,0,0,0,.52.6l2.13-6.3Z" style="fill:#0071bc"/></svg>