<svg xmlns="http://www.w3.org/2000/svg" viewBox="0 0 32 32"><title>file_type_node2@2x</title><g id="node2"><path d="M16,2A14,14,0,1,1,2,16,14,14,0,0,1,16,2Z" style="fill:#83cd29;fill-rule:evenodd"/><path d="M16,30a2.15,2.15,0,0,1-1.08-.29l-3.43-2c-.51-.29-.26-.39-.09-.45a6.83,6.83,0,0,0,1.55-.7.26.26,0,0,1,.25,0l2.63,1.56a.34.34,0,0,0,.32,0l10.26-5.92a.32.32,0,0,0,.16-.28V10.07a.33.33,0,0,0-.16-.28L16.16,3.87a.32.32,0,0,0-.32,0L5.59,9.79a.33.33,0,0,0-.16.28V21.92a.32.32,0,0,0,.16.27L8.4,23.81c1.53.76,2.46-.14,2.46-1V11.09a.3.3,0,0,1,.3-.3h1.3a.3.3,0,0,1,.3.3V22.78c0,2-1.11,3.2-3,3.2a4.39,4.39,0,0,1-2.36-.64L4.66,23.79a2.17,2.17,0,0,1-1.08-1.87V10.07A2.16,2.16,0,0,1,4.66,8.2L14.92,2.28a2.25,2.25,0,0,1,2.16,0L27.34,8.2a2.17,2.17,0,0,1,1.08,1.87V21.92a2.17,2.17,0,0,1-1.08,1.87L17.08,29.71A2.15,2.15,0,0,1,16,30Zm3.49-8.26c3.25,0,5.12-1.28,5.12-3.52S23.1,15.42,19.95,15s-3.51-.64-3.51-1.39.27-1.44,2.63-1.44c2.11,0,2.89.45,3.2,1.88a.3.3,0,0,0,.29.23H23.9a.3.3,0,0,0,.29-.32c-.21-2.45-1.83-3.59-5.12-3.59-2.93,0-4.67,1.23-4.67,3.31,0,2.25,1.74,2.87,4.54,3.14,3.36.33,3.62.82,3.62,1.48,0,1.15-.92,1.64-3.08,1.64-2.72,0-3.31-.68-3.51-2a.3.3,0,0,0-.29-.25H14.35a.3.3,0,0,0-.3.3C14.05,19.68,15,21.74,19.49,21.74Z" style="fill:#fff"/></g></svg>