<svg viewBox="0 0 32 32" xmlns="http://www.w3.org/2000/svg"><path d="m15.996 3.22 10.97 6.48-.012 12.6-10.954 6.48-10.962-6.372-.004-12.78z" fill="#fff"/><path d="m16 2-12.013 7.02v14l12.013 6.98 12-7.1.013-13.8zm10.954 20.3-10.954 6.48-10.962-6.372v-12.78l10.962-6.408 10.966 6.48z" fill="#171c1e"/><path d="m25.569 13.654-5.623 3.31-.003 7.926 5.647-3.325z" fill="#1ea8ff"/><path d="m23.282 12.303 2.287 1.351-5.623 3.31-.003 7.926-2.616-1.52.021-7.495z" fill="#50bfff"/><path d="m22.512 10.35.002 1.466-6.103 3.682.007 8.099-1.42.834-.004-9.575z" fill="#97ff27"/><path d="m20.008 8.871 2.504 1.479-7.518 4.506.004 9.575-2.804-1.63-.005-9.388z" fill="#c2ff72"/><path d="m19.226 6.606v1.768l-8.016 4.7v10.098l-1.402.816.027-11.711z" fill="#ff274b"/><path d="m16.16 4.784-9.63 5.61-.001 11.677 3.298 1.917.008-11.711 9.4-5.671z" fill="#ff5c77"/></svg>