<svg viewBox="0 0 32 32" xmlns="http://www.w3.org/2000/svg" xmlns:xlink="http://www.w3.org/1999/xlink"><radialGradient id="a" cx="-36.176" cy="-852.913" gradientTransform="matrix(.36 .402 .222 -.163 183.598 -112.345)" gradientUnits="userSpaceOnUse" r="48.27"><stop offset="0" stop-color="#7ce1ff"/><stop offset=".3" stop-color="#7ce1ff" stop-opacity="0"/></radialGradient><radialGradient id="b" cx="4165.973" cy="-1221.763" gradientTransform="matrix(.031 .03 .075 -.062 -58.724 -179.88)" gradientUnits="userSpaceOnUse" r="83.239"><stop offset="0" stop-color="#7ce1ff"/><stop offset="1" stop-color="#7ce1ff" stop-opacity="0"/></radialGradient><radialGradient id="c" cx="-298.938" cy="-543.943" gradientTransform="matrix(-1.048 -.5 -1.117 .527 -937.241 159.626)" gradientUnits="userSpaceOnUse" r="27.886"><stop offset="0" stop-color="#7ce1ff" stop-opacity=".8"/><stop offset=".15" stop-color="#7ce1ff" stop-opacity="0"/></radialGradient><linearGradient id="d" gradientTransform="matrix(1538 0 0 576.75 207495 100343.75)" gradientUnits="userSpaceOnUse" x1="-134.907" x2="-134.896" y1="-173.946" y2="-173.946"><stop offset="0" stop-color="#4f4f4f"/><stop offset="1"/></linearGradient><linearGradient id="e" gradientTransform="matrix(1538 0 0 576.75 207495 99574.75)" x1="-134.907" x2="-134.896" xlink:href="#d" y1="-172.628" y2="-172.628"/><linearGradient id="f" gradientTransform="matrix(1538 0 0 961.25 207495 165901)" gradientUnits="userSpaceOnUse" x1="-134.907" x2="-134.896" y1="-172.572" y2="-172.572"><stop offset="0" stop-color="#c40000"/><stop offset="1" stop-color="#f00"/></linearGradient><linearGradient id="g" gradientTransform="matrix(1538 0 0 961.25 207495 165132)" x1="-134.907" x2="-134.896" xlink:href="#f" y1="-171.781" y2="-171.781"/><linearGradient id="h" gradientTransform="matrix(1538 0 0 961.25 207495 166670)" x1="-134.907" x2="-134.896" xlink:href="#f" y1="-173.363" y2="-173.363"/><g stroke-linecap="round"><path d="m-15.442 15.816c.061-.183-7-7.561-7-7.561" fill="none" stroke="url(#a)" stroke-width="76.717003"/><path d="m-25.442 22.835s9.942-6.825 10-7" fill="#2aa7c9" stroke="url(#b)" stroke-width="76.717003"/><path d="m-25.27 23.121h1.124" fill="none" stroke="url(#c)" stroke-width="100"/></g><path d="m7.385 19.231v2.154c0 .363 7.833.971 12.937 2.154 2.465-.571 4.294-1.277 4.294-2.154v-2.154c0-.877-1.829-1.582-4.294-2.154-5.1 1.183-12.937 1.791-12.937 2.154" fill="url(#d)"/><path d="m7.385 10.615v2.154c0 .363 7.833.971 12.937 2.154 2.465-.571 4.294-1.277 4.294-2.154v-2.154c0-.877-1.829-1.582-4.294-2.154-5.1 1.183-12.937 1.791-12.937 2.154" fill="url(#e)"/><path d="m7.385 14.923v6.462c0-.538 17.231-1.615 17.231-4.308v-6.462c0 2.692-17.231 3.769-17.231 4.308" fill="url(#f)"/><path d="m7.385 6.308v6.462c0-.538 17.231-1.615 17.231-4.308v-6.462c0 2.692-17.231 3.769-17.231 4.308" fill="url(#g)"/><path d="m7.385 23.538v6.462c0-.538 17.231-1.615 17.231-4.308v-6.461c0 2.692-17.231 3.769-17.231 4.308" fill="url(#h)"/></svg>