<svg version="1.1" viewBox="0 0 32 32" xmlns="http://www.w3.org/2000/svg"><title>file_type_buf</title><g transform="matrix(.87288 0 0 .87288 2.0339 2.0339)" stroke-width=".092219"><g fill="#77e1ff"><path d="m2.2861 0h-2.2861v25.143h2.2861z"/><path d="m6.8574 0h-2.2861v25.143h2.2861z"/><path d="m11.429 0h-2.2862v25.143h2.2862z"/><path d="m16 0h-2.2861v25.143h2.2861z"/><path d="m20.572 0h-2.2861v25.143h2.2861z"/><path d="m25.143 0h-2.2861v25.143h2.2861z"/></g><g fill="#161ede"><path d="m9.1435 6.8574h-2.2861v25.143h2.2861z"/><path d="m13.715 6.8574h-2.2861v25.143h2.2861z"/><path d="m18.286 6.8574h-2.2861v25.143h2.2861z"/><path d="m22.857 6.8574h-2.2861v25.143h2.2861z"/><path d="m27.429 6.8574h-2.2861v25.143h2.2861z"/><path d="m32 6.8574h-2.2861v25.143h2.2861z"/></g></g></svg>
