<svg xmlns="http://www.w3.org/2000/svg" viewBox="0 0 32 32"><title>file_type_vapi</title><path d="M 12.750635,17.193679 C 12.593795,10.690974 12.441052,5.3461553 12.411202,5.3163062 12.31825,5.2233533 10.868604,5.9684903 10.249504,6.4274473 9.1530268,7.2403006 8.2921345,8.3570032 7.8193086,9.57977 7.3855541,10.701495 7.262522,11.443683 7.2606958,12.9496 c -0.00136,1.185899 0.021917,1.412519 0.1924275,1.866173 0.106737,0.283992 0.1847699,0.523562 0.1734015,0.532374 -0.011357,0.0088 -0.321445,-0.01724 -0.6890587,-0.05794 C 5.1610234,15.093626 4.2872277,14.291043 4.0820534,12.667509 3.888999,11.139876 4.3407435,9.6755551 5.4656055,8.1827495 7.1892915,5.8952455 10.244851,4.0202131 13.469216,3.2713663 14.022574,3.1428498 14.668554,3.0831743 15.887057,3.047999 L 17.549796,3 l 0.05568,2.3840211 c 0.03061,1.3112084 0.09947,6.0481209 0.152985,10.5264669 0.05353,4.478341 -0.239785,7.885285 -0.208656,7.989907 1.850755,-6.053951 4.22712,-10.625485 6.480022,-17.1120613 L 25.38745,3 H 28 c -0.0212,0.059871 -2.616618,6.1842596 -5.244431,13.237054 l -5.205773,12.888444 h -4.354249 c 0,-1.741695 -0.420098,-10.701254 -0.444912,-11.931819 z" style="fill:#9e90c1;stroke-width:0.6;stroke:#2e2e2e;"/></svg>
