<svg viewBox="0 0 32 32" xmlns="http://www.w3.org/2000/svg"><path d="m3.167 3.517h25.667v24.967h-25.667z" fill="#26424e"/><path d="m2 2.35v27.3h28v-27.3zm1.167 1.167h25.667v24.966h-25.667zm13.643 17.549a.194.194 0 0 1 -.135.212 6.028 6.028 0 0 1 -2.125.288c-3 0-5.653-1.961-5.653-6.576 0-3.961 2.346-6.615 5.922-6.615a5.234 5.234 0 0 1 1.991.269c.1.038.115.1.115.212v1.654c0 .154-.077.154-.135.135a4.529 4.529 0 0 0 -1.953-.365c-2.25 0-3.75 1.711-3.75 4.653 0 3.634 2.057 4.711 3.75 4.711a5.239 5.239 0 0 0 1.836-.25c.077-.038.135-.038.135.1v1.577zm.746-6.975c-.077 0-.076-.038-.076-.135v-1.585c0-.1.019-.115.1-.115h1.069v-.6a3.946 3.946 0 0 1 .385-1.842 2.521 2.521 0 0 1 2.481-1.423 2.126 2.126 0 0 1 .777.1.15.15 0 0 1 .115.173v1.536c0 .1-.038.135-.135.115a2.45 2.45 0 0 0 -.526-.058c-.673 0-1 .481-1 1.4v.593h1.524c.1 0 .133.019.133.1v1.6c0 .1-.019.115-.115.135h-1.545v7.183c0 .077-.019.129-.135.129h-1.828a.121.121 0 0 1 -.135-.135v-7.171z" fill="#e5f3fc"/></svg>