<svg xmlns="http://www.w3.org/2000/svg" viewBox="0 0 32 32"><title>file_type_qbs</title><path d="M27.3,5H5.886L2,8.958V26H26.114L30,22.042V5ZM7.88,20.632A4.04,4.04,0,0,1,4.4,19.288a7.262,7.262,0,0,1-.984-4.248,7.49,7.49,0,0,1,1-4.312A3.959,3.959,0,0,1,7.88,9.32a3.947,3.947,0,0,1,3.456,1.4,7.514,7.514,0,0,1,.992,4.312,9.73,9.73,0,0,1-.408,3.1,3.453,3.453,0,0,1-1.335,1.808l1.343,2.16-1.647.768L8.856,20.536A3.558,3.558,0,0,1,7.88,20.632ZM5.8,18.144a2.2,2.2,0,0,0,2.08.936,2.192,2.192,0,0,0,2.072-.92,6.571,6.571,0,0,0,.536-3.112,6.877,6.877,0,0,0-.552-3.184,2.142,2.142,0,0,0-2.056-.992,2.16,2.16,0,0,0-2.064.992,6.739,6.739,0,0,0-.56,3.168A6.544,6.544,0,0,0,5.8,18.144ZM17.912,12.28a2.85,2.85,0,0,1,2.376.92,5.412,5.412,0,0,1,.728,3.256,4.76,4.76,0,0,1-.863,3.256,4.069,4.069,0,0,1-3.04.92q-.753,0-2.385-.144l-.544-.048V9.128h1.729V12.76A5.072,5.072,0,0,1,17.912,12.28Zm-.8,6.8a1.979,1.979,0,0,0,1.7-.6,3.67,3.67,0,0,0,.424-2.04,4.1,4.1,0,0,0-.36-2.024,1.275,1.275,0,0,0-1.176-.584,5.121,5.121,0,0,0-1.536.24l-.256.08v4.864Q16.791,19.08,17.112,19.08Zm11.2-4.976a23.082,23.082,0,0,0-2.736-.256,2.443,2.443,0,0,0-1.176.2.687.687,0,0,0-.328.632.622.622,0,0,0,.359.608,8.1,8.1,0,0,0,1.7.408,3.913,3.913,0,0,1,1.9.728,2.277,2.277,0,0,1,.56,1.76,2.148,2.148,0,0,1-.808,1.856,3.965,3.965,0,0,1-2.36.592,14.177,14.177,0,0,1-2.464-.272l-.5-.08.064-1.456a23.836,23.836,0,0,0,2.768.256,2.563,2.563,0,0,0,1.208-.208.732.732,0,0,0,.36-.688.686.686,0,0,0-.345-.664,6.831,6.831,0,0,0-1.647-.4,4.377,4.377,0,0,1-1.912-.68,2.019,2.019,0,0,1-.608-1.7,2.121,2.121,0,0,1,.841-1.84,3.577,3.577,0,0,1,2.151-.608,15.206,15.206,0,0,1,2.512.256l.5.1Z" style="fill:#a653d9"/></svg>