<svg xmlns="http://www.w3.org/2000/svg" viewBox="0 0 32 32"><linearGradient id="a" gradientUnits="userSpaceOnUse" x1="16" y1="2" x2="16" y2="30"><stop offset="0" stop-color="#fefefe"/><stop offset="1" stop-color="#b8b8b8"/></linearGradient><path d="M16 2C8.268 2 2 8.268 2 16s6.268 14 14 14 14-6.268 14-14S23.732 2 16 2z" fill="url(#a)"/><g fill="#040404"><path d="M15.122 12.234c.275 0 .499-.223.499-.499s-.108-.598-.384-.598-.614.322-.614.598.224.499.499.499zM13.836 17.274c.472 0 1.052-.209 1.327-.55a.438.438 0 1 0 .871.064c0-.17-.061-.286-.238-.385-.22-.125-.246-.416-.134-.406.125.012.279.192.463.283.184.092.39.171.665.171.994 0 2.167-.766 2.167-1.76s-.726-1.678-1.72-1.678c-.867 0-1.562.708-1.654 1.285a4.474 4.474 0 0 0-.032.504c-.001.122-.01.22-.114.236-.104.017-.205-.082-.344-.268s-.502-.528-1.097-.487c-.826.056-1.5.672-1.5 1.5s.512 1.491 1.34 1.491zM23.033 17.583c.383 0 .696-.254.638-.746-.05-.422-.188-.693-.617-.693a.693.693 0 0 0-.693.693c0 .383.29.746.672.746zM25.688 17.837c-2.314.227-3.104 1.367-3.529 2.138-.267.483-.198 1.272-.427 1.375-.27.122-.925-1.087-.975-2.131-.05-1.044-.856-1.733-1.798-1.768-1.195-.045-1.608 1.318-2.058 1.393-.26.043-.627-.819-2.044-1.075-1.006-.181-2.041.725-2.075 1.869-.056 1.919 1.784 2.528 1.719 3.112-.031.281-.406.344-.488 1.294-.084.977.75 1.239.731 1.581-.016.289-.755.65-1.347.24-.243-.168-.709-.846-1.531-.852a1.788 1.788 0 0 0-1.608.991A11.478 11.478 0 0 0 16 27.533c5.545 0 10.176-3.914 11.282-9.13-.32-.378-.927-.631-1.594-.566z"/><path d="M12.075 23.05c-.042-.8-.761-1.431-1.094-1.552-.22-.08-.272-.309-.256-.435.05-.408-.188-.703-.759-.653-.592.052-.879-.375-.875-.706s.286-.66.562-.811c.276-.151.923-.724.923-1.373 0-.994-1.062-1.844-1.598-1.931-.521-.085-1.152.156-1.597.558-.298.268-.63 1.026-1.338 1.097-.418.039-1.543-.406-1.543-.406l-.002.006a11.52 11.52 0 0 0 4.658 8.44s.579-.116.844-.166c1.136-.217 2.131-.991 2.075-2.068zM25.086 8.898c-.048.684-.338 1.154-.199 1.552.193.553-.45.794-.438 1.441.023 1.213 1.087 1.319 1.062 1.613-.029.338-1.488.156-1.488 1.978 0 1.057.798 1.926 1.855 1.926.777 0 1.33-.275 1.636-.789a11.465 11.465 0 0 0-2.428-7.721z"/></g><g fill="#fefefe"><path d="M18.144 14.033c0 .14-.122.253-.324.253s-.295-.113-.295-.253.093-.253.295-.253c.202 0 .324.113.324.253zM15.139 15.216c0 .14-.132.174-.257.174s-.196-.035-.196-.174c0-.14.087-.201.212-.201.124.001.241.061.241.201zM20.587 20.375c.056.244.354.517-.027.733-.221.125-.492-.183-.619-.656-.059-.218-.105-.573.217-.677.322-.105.377.371.429.6zM27.15 16.658c-.157.292-.522.496-.757.369s-.119-.465.038-.757.371-.554.606-.427c.235.127.271.524.113.815zM26.385 15.077c.028.098-.034.201-.175.241-.141.04-.229-.02-.257-.118-.028-.098.014-.195.155-.236.141-.039.249.016.277.113zM10.036 16.805c0 .111-.097.202-.258.202s-.235-.09-.235-.202.074-.202.235-.202.258.09.258.202zM26.545 12.029c.055.09-.015.17-.24.312-.229.145-.42.199-.465.103-.044-.096.014-.243.243-.377.279-.163.388-.159.462-.038z"/></g></svg>