<svg xmlns="http://www.w3.org/2000/svg" viewBox="0 0 32 32"><title>file_type_affinitydesigner</title><path fill="#00636b" d="M23.307 11.572l-4.41-7.667h-1.212l-.386-.609h-.574l-4.779 8.276z"/><path fill="#013e80" d="M9.861 11.572l-2.408 4.209-2.638 1.522L2 22.178l1.927 3.279 8.019-13.885z"/><path fill="#00414f" d="M16.725 3.296h-3.82l-2.077 3.596.852 1.5-1.819 3.18h2.085z"/><path fill="#00225c" d="M4.995 25.954l.644 1.072h11.149l.618-1.072z"/><path fill="#005392" d="M24.507 13.659l-1.2-2.087H11.946L3.927 25.457l.292.497h13.187z"/><path fill="#000c3d" d="M16.788 27.026h.711l.927 1.642h.605l-.92-1.642h9.395l.633-1.072H17.406z"/><path fill="#000f60" d="M24.507 13.659l-7.101 12.295h10.733l1.743-2.949z"/><radialGradient id="a" cx="13.769" cy="17.09" r="11.945" gradientUnits="userSpaceOnUse"><stop offset="0" stop-color="#06dbe0"/><stop offset="1" stop-color="#3b63ff"/></radialGradient><path fill="url(#a)" d="M12.4 18.381l6.542-11.326-1.298-2.257L5.868 25.187h10.447z"/><path fill="url(#a)" d="M25.61 18.649H13.226l2.487 4.324h12.384z"/><linearGradient id="b" gradientUnits="userSpaceOnUse" x1="15.5" y1="16.5" x2="22.3" y2="13"><stop offset="0" stop-color="#1dffb8"/><stop offset="1" stop-color="#00d2f8"/></linearGradient><path d="M14.378 18.085h2.682l-1.948-3.387-1.345 2.328a.706.706 0 0 0 .611 1.059zM19.233 7.562l-3.8 6.581 2.267 3.942h7.585z" fill="url(#b)"/></svg>