<svg viewBox="0 0 32 32" xmlns="http://www.w3.org/2000/svg"><g fill="#00519a"><path d="m6.67 7.836 2.33 11.079 2.336-11.079h4.664l-4.664 16.328h-4.664l-4.672-16.328z"/><path d="m18.331 7.836h7.6a4.08 4.08 0 0 1 2.9 1.749 3.78 3.78 0 0 1 .571 2.04 3.985 3.985 0 0 1 -.571 2.034 4.108 4.108 0 0 1 -2.341 1.763 4.1 4.1 0 0 1 2.929 1.756 3.8 3.8 0 0 1 .58 2.1 4.663 4.663 0 0 1 -.579 2.546 5.047 5.047 0 0 1 -3.5 2.338h-7.589zm4.669 6.416h1.166a1.754 1.754 0 0 0 0-3.5h-1.166zm0 7h1.39a2.047 2.047 0 0 0 0-4.089h-1.39z"/></g></svg>