<svg viewBox="0 0 32 32" xmlns="http://www.w3.org/2000/svg"><path d="m22.75 2h-16.4v28h23.3v-21z" fill="#c5c5c5"/><path d="m27.35 27.7h-18.6v-23.4h11.7v7h7v16.4z" fill="#f5f5f5"/><g fill="#33a9dc"><path d="m12.1 30.994a11.094 11.094 0 1 1 11.094-11.094 11.106 11.106 0 0 1 -11.094 11.094zm0-20.3a9.2 9.2 0 1 0 9.2 9.206 9.216 9.216 0 0 0 -9.2-9.2z"/><path d="m2.099 19.455h20.003v.89h-20.003z" stroke="#33a9dc" stroke-miterlimit="10"/><path d="m12.325 15.763a31.93 31.93 0 0 1 -8.484-1.11l.242-.807a31.374 31.374 0 0 0 15.992 0l.239.807a28.076 28.076 0 0 1 -7.989 1.11z" stroke="#33a9dc" stroke-miterlimit="10"/><path d="m4.1 25.724-.239-.807a31.652 31.652 0 0 1 16.472 0l-.242.807a31.38 31.38 0 0 0 -15.991 0z" stroke="#33a9dc" stroke-miterlimit="10"/><path d="m8.536 29.055a25.438 25.438 0 0 1 -.536-18.447l.776.331a24.558 24.558 0 0 0 .533 17.783z" stroke="#33a9dc" stroke-miterlimit="10"/><path d="m15.6 29.055-.776-.333a24.559 24.559 0 0 0 .531-17.783l.776-.331a25.443 25.443 0 0 1 -.531 18.447z" stroke="#33a9dc" stroke-miterlimit="10"/><path d="m11.655 9.898h.889v20.371h-.889z" stroke="#33a9dc" stroke-miterlimit="10"/></g></svg>