<svg xmlns="http://www.w3.org/2000/svg" viewBox="0 0 32 32"><title>file_type_raml@2x</title><g id="raml"><g id="Page-1"><g id="raml-2" data-name="raml"><path id="Shape" d="M19.24,2H4.06L5.58,4.43H19.15a6.1,6.1,0,0,1,4.4,1.87,6.37,6.37,0,0,1,1.82,4.47,5.93,5.93,0,0,1-1.79,4.29,7.54,7.54,0,0,1-4.37,2H17.55l-4.58,0,1.32,2.29h2l.11.17h0l5.92,10,0,0,0,0a1.34,1.34,0,0,0,2.27-.94.72.72,0,0,0-.21-.54,1.5,1.5,0,0,1-.19-.26l-4.89-8.33a8.61,8.61,0,0,0,6-2.56A8.8,8.8,0,0,0,19.24,2Z" style="fill:#73cfee"/></g></g></g></svg>