<svg xmlns="http://www.w3.org/2000/svg" xmlns:xlink="http://www.w3.org/1999/xlink" viewBox="0 0 254.5 225"><defs><symbol id="a" viewBox="0 0 45.72 26.28"><rect width="45.72" height="26.28" style="fill:none"/><polygon points="0 9.971 22.926 9.971 22.926 0 45.72 13.141 22.926 26.28 22.926 16.31 0 16.31 0 9.971" style="fill:#231f20"/></symbol></defs><title>file_type_go_package</title><path d="M106.563,86.116l94.289-37.2v124.1l-94.289,37.792Z" style="fill:#e5ac3d;stroke:#73561f;stroke-miterlimit:10;stroke-width:0.8259320196992203px"/><path d="M106.563,85.827,12.274,48.1V171.63l94.289,38.354Z" style="fill:#e5ac3d;stroke:#73561f;stroke-miterlimit:10;stroke-width:0.8259320196992203px"/><path d="M106.761,85.523l93.818-37.031L106.289,10,12,47.518Z" style="fill:#e3b04e;stroke:#73561f;stroke-miterlimit:10;stroke-width:0.8259320196992203px"/><polygon points="137.542 22.972 42.644 60.749 65.182 69.767 159.411 32.264 137.542 22.972" style="fill:#fff;stroke:#73561f;stroke-miterlimit:10;stroke-width:0.7210423307812117px;opacity:0.30000001192092896;isolation:isolate"/><polygon points="65.471 69.737 43.374 61.144 43.374 86.161 46.431 84.093 49.168 88.427 50.75 89.036 52.849 87.196 54.932 90.663 56.894 91.423 59.768 88.899 63.388 93.948 65.471 94.754 65.471 69.737" style="fill:#fff;stroke:#73561f;stroke-miterlimit:10;stroke-width:1.0130771448574323px;opacity:0.30000001192092896;isolation:isolate"/><polygon points="43.83 184.952 66.049 193.241 65.699 168.224 62.658 170.337 59.859 166.049 58.278 165.456 56.209 167.326 54.08 163.889 52.088 163.144 49.259 165.714 45.564 160.711 43.48 159.935 43.83 184.952" style="fill:#fff;stroke:#73561f;stroke-miterlimit:10;stroke-width:1.0130771448574323px;opacity:0.30000001192092896;isolation:isolate"/><use width="45.72" height="26.28" transform="matrix(0, -0.441, -0.335, -0.198, 26.952, 85.091)" xlink:href="#a"/><use width="45.72" height="26.28" transform="matrix(0, -0.441, -0.335, -0.198, 96.33, 113.165)" xlink:href="#a"/><path d="M69.2,139.277c-.372,0-.466-.186-.279-.466l1.955-2.514a1.334,1.334,0,0,1,1.024-.466h33.24c.372,0,.466.279.279.559l-1.583,2.421a1.419,1.419,0,0,1-.931.559Z" style="fill:#ce3262"/><path d="M55.137,147.843c-.372,0-.466-.186-.279-.466l1.955-2.514a1.334,1.334,0,0,1,1.024-.466H100.3a.428.428,0,0,1,.466.559l-.745,2.235a.814.814,0,0,1-.838.559Z" style="fill:#ce3262"/><path d="M77.67,156.409c-.372,0-.466-.279-.279-.559l1.3-2.328a1.235,1.235,0,0,1,.931-.559H98.247c.372,0,.559.279.559.652l-.186,2.235a.7.7,0,0,1-.652.652Z" style="fill:#ce3262"/><path d="M174.317,137.6c-5.866,1.49-9.87,2.607-15.642,4.1-1.4.372-1.49.466-2.7-.931a12.463,12.463,0,0,0-4.376-3.538c-5.866-2.886-11.546-2.048-16.853,1.4a19.8,19.8,0,0,0-9.5,17.691,14.6,14.6,0,0,0,12.57,14.618c6.331.838,11.639-1.4,15.829-6.145.838-1.024,1.583-2.142,2.514-3.445h-17.97c-1.955,0-2.421-1.21-1.769-2.793,1.21-2.886,3.445-7.728,4.749-10.149a2.514,2.514,0,0,1,2.328-1.49H177.39c-.186,2.514-.186,5.028-.559,7.542A39.709,39.709,0,0,1,169.2,172.7c-6.7,8.845-15.456,14.339-26.536,15.829-9.125,1.21-17.6-.559-25.046-6.145a29.246,29.246,0,0,1-11.825-20.67c-1.21-10.149,1.769-19.274,7.914-27.281a41.319,41.319,0,0,1,26.071-16.108c8.752-1.583,17.132-.559,24.674,4.562a29.187,29.187,0,0,1,10.8,13.128C175.807,136.856,175.434,137.322,174.317,137.6Z" style="fill:#ce3262"/><path d="M205.136,189.09c-8.473-.186-16.2-2.607-22.719-8.194a29.2,29.2,0,0,1-10.056-17.97c-1.676-10.521,1.21-19.832,7.542-28.119,6.8-8.938,14.991-13.594,26.071-15.549,9.5-1.676,18.436-.745,26.536,4.749,7.356,5.028,11.918,11.825,13.128,20.763,1.583,12.57-2.048,22.812-10.708,31.564a42.665,42.665,0,0,1-22.346,11.918C210.071,188.718,207.557,188.811,205.136,189.09Zm22.16-37.616a26.8,26.8,0,0,0-.279-3.073,15.338,15.338,0,0,0-18.994-12.384c-8.659,1.955-14.246,7.449-16.294,16.2a15.334,15.334,0,0,0,8.566,17.6,17.069,17.069,0,0,0,15.177-.559C222.827,165.441,226.831,159.482,227.3,151.474Z" style="fill:#ce3262"/></svg>