<svg xmlns="http://www.w3.org/2000/svg" fill="none" viewBox="0 0 32 32"><g clip-path="url(#a)"><path fill="url(#b)" d="M3.775 16.694c.16.138.397.33.758.4.45.09.824-.062.98-.133.254.308 1.056 1.19 2.405 1.47.99.21 1.791-.009 2.05-.089.25-.076.94-.316 1.581-.913.891-.829 1.568-2.228 1.314-3.764-.267-1.627-1.43-2.526-1.693-2.718.08-.071.192-.178.312-.312.085-.098.481-.552.758-1.292.08-.214.231-.632.267-1.203.062-.993-.28-1.746-.446-2.093a4.7 4.7 0 0 0-.445-.758 12.945 12.945 0 0 0-5.747 3.208c-.512.494-.993.966-1.47 1.737a7.7 7.7 0 0 0-.98 2.45 2 2 0 0 0-.535.758c-.178.45-.133.842-.089 1.203.045.338.174 1.363.98 2.049"/><path fill="url(#c)" d="M22.842 7.918a12.8 12.8 0 0 0-5.212-2.629 12.8 12.8 0 0 0-5.502-.111c.495.65.69 1.26.78 1.626.374 1.564-.258 2.847-.446 3.207a5 5 0 0 1-.646.958c.254.219.602.562.914 1.047.156.245.467.74.623 1.47a4.2 4.2 0 0 1-.534 3.074 6.5 6.5 0 0 1 1.247-.089 6.8 6.8 0 0 1 3.252.936 6.9 6.9 0 0 1 1.738 1.47 6.88 6.88 0 0 1 1.648 4.677c-.013.375-.125 2.722-1.96 4.589-.16.165-.847.842-1.96 1.381a7.5 7.5 0 0 1-2.918.735q.846.057 1.693 0a12.5 12.5 0 0 0 2.004-.312c.62-.147 1.84-.494 3.23-1.27a12.8 12.8 0 0 0 4.188-3.742 12.5 12.5 0 0 0 2.227-5.524c.027-.182.12-.855.134-1.648.031-1.942-.45-3.56-.58-3.965-1.064-3.403-3.385-5.43-3.92-5.88"/><path fill="url(#d)" d="M29.124 9.031c-.356-1.243-1.416-2.191-2.74-2.472.032-.615-.018-1.67-.69-2.562-1.158-1.537-3.716-2.004-6.192-.89-.424-.878-.98-1.159-1.203-1.248-1.239-.503-3.11.36-4.277 2.361 1.39-.044 3.586.08 5.97 1.114a13.6 13.6 0 0 1 3.207 1.96 13.6 13.6 0 0 1 4.099 5.836c.312-.16.855-.495 1.292-1.114.107-.156.98-1.43.534-2.985"/><path fill="url(#e)" d="M16.004 23.532c.214.16.918.65 1.916.624 1.305-.036 2.098-.918 2.227-1.07a6.3 6.3 0 0 0-.223-1.425c-.632-2.268-2.374-3.444-2.628-3.608a6.57 6.57 0 0 0-3.653-1.025 6 6 0 0 0-.891.089c.36.071.89.218 1.448.557 1.613.976 2.031 2.664 2.094 2.94a4.64 4.64 0 0 1-.045 2.272c-.08.267-.174.49-.245.646"/><path fill="url(#f)" d="M8.943 26.851c-.557-1.483-.245-2.78-.133-3.207.107-.415.245-.749.356-.98-.13-.09-2.071-1.395-4.032-.513-.89.401-1.399 1.083-1.626 1.448a12.8 12.8 0 0 0 2.272 3.03 12.86 12.86 0 0 0 7.498 3.581 5.5 5.5 0 0 1-2.107-.73c-.357-.214-1.617-.998-2.228-2.629"/><path fill="#fff" stroke="#fff" stroke-linejoin="round" stroke-miterlimit="10" d="M8.899 16.538a2.25 2.25 0 1 0 0-4.5 2.25 2.25 0 0 0 0 4.5Z"/><path fill="url(#g)" d="M8.899 15.567a1.278 1.278 0 1 0 0-2.557 1.278 1.278 0 0 0 0 2.557"/><path fill="#fff" d="M9.59 13.642c-.04-.044-.357-.387-.83-.352-.284.023-.632.179-.761.486-.022.049-.134.343.031.534.111.13.28.134.312.134a.46.46 0 0 0 .379-.196c.102-.165 0-.294.066-.428.058-.115.24-.222.802-.178"/><path fill="url(#h)" d="M15.291 9.187c.807 1.06 2.967-.815 5.39.268 1.654.74 2.21 2.303 3.386 2.093.562-.102.954-.547 1.19-.895-1.007-1.52-2.072-2.45-2.415-2.735a12.77 12.77 0 0 0-7.6-2.972l-.04.544c-.138 2.2-.21 3.305.09 3.697"/><path fill="url(#i)" d="M19.256 16.404c-.089-.21-.468-1.006-1.292-1.47-.672-.378-1.051-.21-1.915-.445-1.404-.388-1.537-1.257-2.361-1.337a3 3 0 0 0-.424-.004q.049.16.09.338a4.2 4.2 0 0 1-.535 3.074 6.6 6.6 0 0 1 1.247-.089 6.8 6.8 0 0 1 3.252.936 6.9 6.9 0 0 1 1.912 1.684c.33-.887.387-1.854.026-2.687"/><path fill="url(#j)" d="M26.005 23.243c.352-.704.593-1.35.758-1.871a12.8 12.8 0 0 0 .579-3.609c.031-1.942-.45-3.56-.58-3.965l-.013-.04a5.1 5.1 0 0 1-.855 1.755c-1.287 1.67-3.185 1.791-3.297 2.985-.107 1.18 1.684 1.617 2.317 3.341.472 1.297.062 2.691-.499 3.827a14 14 0 0 0 .566-.73q.572-.81 1.024-1.694"/><path fill="url(#k)" d="M21.796 27.542c-.058-.295-.263-.664-.58-.802-.628-.276-1.327.499-2.338 1.265-.045.044-.09.093-.134.138-.16.165-.847.842-1.96 1.381a7.5 7.5 0 0 1-2.918.735q.846.057 1.693 0a12.5 12.5 0 0 0 2.004-.312c.62-.147 1.84-.494 3.23-1.27q.485-.27.945-.579a.96.96 0 0 0 .058-.556"/><path fill="url(#l)" d="M6.711 16.828c-.28.222-.503.503-.623.81a.6.6 0 0 0-.04.116c-.014.036-.027.09-.04.134-.023.089-.045.169-.059.25a.9.9 0 0 0 .027.445.8.8 0 0 0 .259.356c.2.156.427.218.476.232.183.044.321.04.548.031.25-.009.366-.045.709-.054h.347q.175 0 .356.018c.241.018.486.054.718.125.236.071.459.187.641.334.178.152.32.33.406.53a1 1 0 0 1 .08.312c.013.107.004.21-.014.312a1.2 1.2 0 0 1-.093.299.8.8 0 0 1-.205.262q-.032.027-.071.054-.036.025-.076.044a.96.96 0 0 1-.85-.04c-.161-.093-.242-.21-.237-.214.004-.004.085.112.25.192.04.018.155.071.316.08a1 1 0 0 0 .32-.04q.075-.025.143-.062l.062-.04a.3.3 0 0 0 .054-.05c.138-.133.191-.32.205-.507a.93.93 0 0 0-.112-.526 1.26 1.26 0 0 0-.383-.414 1.5 1.5 0 0 0-.548-.227c-.4-.09-.842-.063-1.287-.023-.316.027-.316.067-.646.098-.348.036-.544.054-.806.01a2 2 0 0 1-.736-.29 1.6 1.6 0 0 1-.307-.263 1.3 1.3 0 0 1-.218-.33 1.5 1.5 0 0 1-.13-.713q.008-.175.036-.33c.01-.053.014-.097.027-.155.009-.058.027-.112.04-.17.13-.445.392-.855.748-1.194l.005-.004a.55.55 0 0 1 .695-.031.383.383 0 0 1 .04.597c-.004.018-.018.027-.027.035"/></g><defs><linearGradient id="g" x1="7.555" x2="9.163" y1="11.376" y2="14.863" gradientUnits="userSpaceOnUse"><stop stop-color="#9e60fc"/><stop offset=".928" stop-color="#45239b"/></linearGradient><linearGradient id="h" x1="16.375" x2="20.834" y1="12.419" y2="7.112" gradientUnits="userSpaceOnUse"><stop offset=".506" stop-color="#ffbf4f"/><stop offset="1" stop-color="#f58e54"/></linearGradient><linearGradient id="i" x1="17.329" x2="14.296" y1="15.052" y2="18.039" gradientUnits="userSpaceOnUse"><stop offset=".185" stop-color="#ffbf4f"/><stop offset="1" stop-color="#f58e54"/></linearGradient><linearGradient id="j" x1="22.591" x2="27.341" y1="19.711" y2="19.711" gradientUnits="userSpaceOnUse"><stop offset=".236" stop-color="#ffbf4f"/><stop offset="1" stop-color="#f58e54"/></linearGradient><linearGradient id="k" x1="21.187" x2="16.481" y1="25.283" y2="30.69" gradientUnits="userSpaceOnUse"><stop offset=".103" stop-color="#ffbf4f"/><stop offset=".893" stop-color="#f58e54"/></linearGradient><linearGradient id="l" x1="5.148" x2="10.523" y1="18.81" y2="18.81" gradientUnits="userSpaceOnUse"><stop offset=".185" stop-color="#ffbf4f"/><stop offset="1" stop-color="#f58e54"/></linearGradient><radialGradient id="b" cx="0" cy="0" r="1" gradientTransform="translate(16.001 16.002)scale(17.5078)" gradientUnits="userSpaceOnUse"><stop stop-color="#9e60fc"/><stop offset="1" stop-color="#45239b"/></radialGradient><radialGradient id="c" cx="0" cy="0" r="1" gradientTransform="translate(16.001 16.002)scale(17.5078)" gradientUnits="userSpaceOnUse"><stop stop-color="#9e60fc"/><stop offset="1" stop-color="#45239b"/></radialGradient><radialGradient id="d" cx="0" cy="0" r="1" gradientTransform="translate(16.002 16.002)scale(17.5078)" gradientUnits="userSpaceOnUse"><stop stop-color="#9e60fc"/><stop offset="1" stop-color="#45239b"/></radialGradient><radialGradient id="e" cx="0" cy="0" r="1" gradientTransform="translate(16.001 16.002)scale(17.5078)" gradientUnits="userSpaceOnUse"><stop stop-color="#9e60fc"/><stop offset="1" stop-color="#45239b"/></radialGradient><radialGradient id="f" cx="0" cy="0" r="1" gradientTransform="translate(16.002 16.002)scale(17.5078)" gradientUnits="userSpaceOnUse"><stop stop-color="#9e60fc"/><stop offset="1" stop-color="#45239b"/></radialGradient><clipPath id="a"><path fill="#fff" d="M0 0h32v32H0z"/></clipPath></defs></svg>