<?xml version="1.0" encoding="UTF-8"?>
<svg width="580px" height="300px" viewBox="0 0 580 300" version="1.1" xmlns="http://www.w3.org/2000/svg" xmlns:xlink="http://www.w3.org/1999/xlink">
    <!-- Generator: Sketch 41.2 (35397) - http://www.bohemiancoding.com/sketch -->
    <title>Action Script</title>
    <desc>Created with Sketch.</desc>
    <defs></defs>
    <g id="Page-1" stroke="none" stroke-width="1" fill="none" fill-rule="evenodd">
        <g id="Action-Script" fill="#F33D00">
            <path d="M458.15071,33.4626912 C474.288109,33.4626912 495.776477,35.0812649 495.776477,53.5330055 L495.776477,113.096519 C495.776477,126.045109 516.351543,143.20199 540.715851,149.676285 C516.351543,156.474295 495.776477,173.307462 495.776477,186.256052 L495.776477,246.466995 C495.776477,264.918735 474.288109,266.537309 458.15071,266.537309 L458.15071,299.556213 C480.93292,299.556213 511.281036,299.556213 524.254239,287.255053 C536.278183,275.925037 536.278183,261.034158 536.278183,247.114424 L536.278183,185.608622 C536.278183,169.09917 566.029418,167.480596 579.31904,167.480596 L579.31904,131.871974 C566.029418,131.871974 536.278183,130.2534 536.278183,114.067663 L536.278183,52.885576 C536.278183,38.9658419 536.278183,24.0749635 524.254239,12.7449474 C511.281036,0.443786982 480.93292,0.443786982 458.15071,0.443786982 L458.15071,33.4626912 Z M121.933391,0.443786982 C99.1511813,0.443786982 69.1194847,0.443786982 56.1462819,12.7449474 C44.1223378,24.0749635 44.1223378,38.9658419 44.1223378,52.885576 L44.1223378,114.067663 C44.1223378,130.2534 14.0546839,131.871974 0.765061521,131.871974 L0.765061521,167.480596 C14.0546839,167.480596 44.1223378,169.09917 44.1223378,185.608622 L44.1223378,247.114424 C44.1223378,261.034158 44.1223378,275.925037 56.1462819,287.255053 C69.1194847,299.556213 99.1511813,299.556213 121.933391,299.556213 L121.933391,266.537309 C106.112412,266.537309 84.3076246,264.918735 84.3076246,246.466995 L84.3076246,186.256052 C84.3076246,173.307462 63.7325583,156.474295 39.6846701,149.676285 C63.7325583,143.20199 84.3076246,126.045109 84.3076246,113.096519 L84.3076246,53.5330055 C84.3076246,35.0812649 106.112412,33.4626912 121.933391,33.4626912 L121.933391,0.443786982 Z M304.588957,254.201183 L254.150307,53.964497 L209.315951,53.964497 L158.343558,254.201183 L191.435583,254.201183 L202.110429,208.668639 L255.217791,208.668639 L265.625767,254.201183 L304.588957,254.201183 Z M229.331288,93.9053254 L248.546012,179.64497 L209.04908,179.64497 L229.331288,93.9053254 Z M409.02454,57.1597633 C409.02454,57.1597633 392.478528,52.3668639 373.530675,52.3668639 C334.834356,52.3668639 314.018405,72.3372781 314.018405,107.218935 C314.018405,134.378698 326.828221,146.893491 340.43865,157.810651 C359.920245,173.254438 378.067485,182.573964 378.067485,202.544379 C378.067485,217.455621 368.193252,225.976331 351.113497,225.976331 C335.634969,225.976331 317.48773,218.786982 317.48773,218.786982 L315.619632,218.786982 L315.619632,249.940828 C315.619632,249.940828 331.365031,255.798817 353.248466,255.798817 C392.211656,255.798817 416.763804,236.893491 416.763804,197.751479 C416.763804,169.792899 404.220859,155.147929 388.208589,142.633136 C370.861963,129.053254 352.714724,121.331361 352.714724,102.159763 C352.714724,89.3786982 360.98773,82.1893491 377,82.1893491 C390.877301,82.1893491 407.156442,87.7810651 407.156442,87.7810651 L409.02454,87.7810651 L409.02454,57.1597633 Z" id="actionscript-icon"></path>
        </g>
    </g>
</svg>