<svg viewBox="0 0 32 32" xmlns="http://www.w3.org/2000/svg"><path d="m24.099 2h-15.262v28h20.91v-22.112l-5.579-5.816z" fill="#2e1915"/><path d="m2.253 3.493h20.307v7.844h-20.307zm21.846-1.493v5.888h5.648zm-7.568 12.811h-2.094a.087.087 0 0 0 -.087.081l-.05.657a.047.047 0 0 1 -.003.017l-2.895 10.105a.087.087 0 0 0 .084.111h1.518a.087.087 0 0 0 .084-.064l.815-2.99a.087.087 0 0 1 .084-.064h3.08c.039 0 .074.026.084.064l.834 2.991a.088.088 0 0 0 .084.064h1.678c.058 0 .1-.056.084-.112l-3.218-10.796a.084.084 0 0 0 -.082-.064zm-2.165 6.199 1.134-4.63 1.2 4.63zm6.305 4.772a.087.087 0 0 1 -.087-.087l.009-6.521-.041-.884a.087.087 0 0 1 .054-.085c.299-.123 1.729-.682 3.125-.682 1.569 0 2.948.718 2.948 2.873v5.299a.087.087 0 0 1 -.087.087h-1.627a.087.087 0 0 1 -.087-.087v-5.324s.063-1.254-1.399-1.254c-.37 0-.85.11-1.027.162a.088.088 0 0 0 -.063.084v6.332a.087.087 0 0 1 -.087.087z" fill="#fd3316"/><path d="m7.545 5.13h2.296c.025 0 .046.019.048.043l.093.832a.047.047 0 0 1 -.047.055h-1.396a.05.05 0 0 0 -.049.049v.977a.05.05 0 0 0 .049.049h1.265a.05.05 0 0 1 .049.049v.808a.05.05 0 0 1 -.049.049h-1.265a.05.05 0 0 0 -.049.049v1.714a.05.05 0 0 1 -.049.049h-.896a.05.05 0 0 1 -.049-.049v-4.625a.05.05 0 0 1 .049-.049zm3.022 0h.913a.05.05 0 0 1 .049.049v3.726a.05.05 0 0 0 .049.049h1.434c.03 0 .053.027.048.056l-.121.8a.048.048 0 0 1 -.048.041h-2.322a.05.05 0 0 1 -.049-.049v-4.623a.047.047 0 0 1 .047-.049zm5.073 0h-1.174a.05.05 0 0 0 -.05.049l-.012.369-.001.01-.974 4.232a.05.05 0 0 0 .049.062h.835a.05.05 0 0 0 .049-.04l.204-.977a.05.05 0 0 1 .049-.04h.917c.023 0 .043.016.049.038l.247.981a.051.051 0 0 0 .049.038h.909a.05.05 0 0 0 .049-.063l-1.146-4.62a.05.05 0 0 0 -.049-.039zm-.878 2.746.317-1.773.334 1.773z" fill="#2e1915"/></svg>