<svg xmlns="http://www.w3.org/2000/svg" fill="none" viewBox="0 0 32 32"><path fill="#fff" d="M8.9 11.538a2.75 2.75 0 0 1 2.75 2.75 2.75 2.75 0 0 1-2.75 2.75 2.75 2.75 0 0 1 0-5.5"/><path fill="#45239b" fill-rule="evenodd" d="M8.9 13.01a1.278 1.278 0 1 1-.002 2.555 1.278 1.278 0 0 1 .001-2.555m-.14.28c-.284.023-.632.18-.761.486-.022.05-.133.343.031.534.111.13.28.134.312.134a.46.46 0 0 0 .379-.196c.102-.165 0-.294.066-.428.058-.115.24-.222.802-.178l-.08-.079c-.127-.113-.395-.3-.75-.273" clip-rule="evenodd"/><path fill="#7b48d5" d="M5.134 22.15c1.96-.88 3.901.424 4.031.515-.11.23-.248.565-.355.979-.112.427-.424 1.724.133 3.207.61 1.63 1.87 2.415 2.227 2.629a5.5 5.5 0 0 0 2.108.73 12.86 12.86 0 0 1-7.498-3.58 12.8 12.8 0 0 1-2.272-3.03c.227-.366.737-1.048 1.626-1.45M12.127 5.178c1.021-.203 2.079-.33 3.115-.231l-.04.544c-.138 2.2-.211 3.305.088 3.697.808 1.059 2.968-.815 5.39.268 1.654.74 2.21 2.301 3.386 2.092.561-.102.953-.546 1.19-.894a12.5 12.5 0 0 1 1.468 3.023c.01.03.055.17.024.081-.169.635-.46 1.23-.855 1.755-1.287 1.67-3.185 1.792-3.297 2.986-.106 1.18 1.685 1.617 2.317 3.34.472 1.297.063 2.692-.498 3.828-.375.39-1.702 1.768-2.676 2.427a.96.96 0 0 0 .056-.552c-.058-.295-.263-.663-.58-.801-.762-.334-2.807 1.815-2.174 1.078 1.55-1.804 1.65-3.91 1.663-4.265a6.88 6.88 0 0 0-1.475-4.465c.33-.886.387-1.852.026-2.684-.089-.21-.468-1.007-1.292-1.47-.672-.379-1.05-.21-1.915-.445-1.403-.388-1.537-1.257-2.361-1.337a3 3 0 0 0-.424-.005 4.5 4.5 0 0 0-.533-1.132 4.9 4.9 0 0 0-.914-1.047c.252-.293.469-.615.646-.958.188-.36.82-1.643.446-3.207a4.4 4.4 0 0 0-.78-1.626"/><path fill="#7b48d5" d="M13.643 17.028a6.57 6.57 0 0 1 3.653 1.025c.256.165 1.997 1.342 2.628 3.609.129.464.203.943.223 1.424-.13.153-.922 1.035-2.227 1.07-.997.027-1.7-.463-1.916-.623.071-.156.165-.38.244-.647.204-.742.22-1.523.046-2.272-.063-.277-.482-1.964-2.094-2.94a4.4 4.4 0 0 0-1.448-.556q.443-.079.891-.09"/><path fill="#7b48d5" fill-rule="evenodd" d="M11.617 5.29q.257.357.444.757c.166.348.508 1.1.446 2.093a4 4 0 0 1-.266 1.203c-.277.739-.672 1.193-.758 1.292-.12.134-.233.242-.313.313.265.193 1.427 1.092 1.694 2.717.253 1.536-.424 2.935-1.315 3.764a4.14 4.14 0 0 1-1.58.913c-.26.08-1.061.299-2.05.09-1.349-.28-2.151-1.162-2.406-1.47-.156.07-.53.222-.98.132-.36-.07-.597-.261-.757-.4-.806-.685-.936-1.71-.98-2.049-.045-.36-.09-.753.088-1.202.117-.291.3-.552.535-.759a7.7 7.7 0 0 1 .98-2.45c.478-.77.959-1.242 1.47-1.736a12.95 12.95 0 0 1 5.748-3.208M8.9 11.539A2.75 2.75 0 1 0 8.9 17.04 2.75 2.75 0 0 0 8.9 11.54" clip-rule="evenodd"/><path fill="#7b48d5" d="M14.022 4.22c1.167-2 3.038-2.864 4.277-2.361.224.089.78.37 1.203 1.248 2.476-1.114 5.034-.646 6.192.89.672.892.722 1.947.69 2.562 1.324.281 2.383 1.23 2.74 2.473.445 1.554-.426 2.827-.534 2.984-.437.619-.98.954-1.292 1.114a13.6 13.6 0 0 0-4.1-5.836 13.6 13.6 0 0 0-3.206-1.96c-2.384-1.033-4.58-1.158-5.97-1.114"/><path fill="#f89e53" d="M18.878 28.005c1.01-.766 1.71-1.54 2.338-1.265.317.138.522.507.58.802a.96.96 0 0 1-.058.556q-.46.309-.945.579a12.8 12.8 0 0 1-3.23 1.27q-.989.237-2.003.312-.848.057-1.694 0a7.5 7.5 0 0 0 2.918-.735 7.2 7.2 0 0 0 1.96-1.381zM26.762 13.798a13 13 0 0 1 .58 3.965 12.8 12.8 0 0 1-.58 3.61c-.164.52-.405 1.166-.757 1.87q-.452.884-1.024 1.693-.272.374-.566.73c.561-1.136.971-2.53.5-3.827-.634-1.724-2.425-2.161-2.318-3.341.112-1.194 2.01-1.315 3.297-2.985a5.1 5.1 0 0 0 .855-1.755zM6.345 16.087a.55.55 0 0 1 .353.108.383.383 0 0 1 .04.597c-.004.018-.018.028-.027.036-.28.222-.503.503-.623.81a.6.6 0 0 0-.04.116c-.014.036-.027.09-.04.134-.023.089-.045.169-.059.25a.9.9 0 0 0 .028.445c.051.14.14.264.258.357.2.155.427.217.476.23.183.045.321.041.548.032.25-.009.366-.045.709-.054h.348q.175 0 .355.018c.241.018.487.054.719.125.236.071.458.187.64.334.178.152.32.33.407.53q.065.15.08.312c.013.107.003.21-.015.312a1.2 1.2 0 0 1-.093.3.8.8 0 0 1-.351.36.96.96 0 0 1-.85-.04.6.6 0 0 1-.238-.215c.004-.004.085.112.25.192.04.018.155.071.316.08q.164.005.32-.04a1 1 0 0 0 .143-.061l.063-.04a.3.3 0 0 0 .053-.051c.138-.133.191-.32.205-.507a.93.93 0 0 0-.112-.526 1.26 1.26 0 0 0-.383-.414 1.5 1.5 0 0 0-.548-.227c-.4-.09-.842-.063-1.287-.023-.316.027-.316.067-.646.098-.348.036-.544.054-.806.01a2 2 0 0 1-.736-.29 1.6 1.6 0 0 1-.307-.263 1.3 1.3 0 0 1-.218-.33 1.5 1.5 0 0 1-.13-.713q.009-.176.037-.33c.01-.053.013-.097.026-.155.01-.058.027-.112.04-.17.13-.445.392-.855.748-1.194l.005-.004a.55.55 0 0 1 .342-.14M13.688 13.152c.824.08.957.95 2.36 1.337.865.235 1.244.067 1.916.445.824.464 1.203 1.26 1.292 1.47.36.833.304 1.8-.026 2.687a6.9 6.9 0 0 0-1.913-1.684 6.8 6.8 0 0 0-3.251-.936q-.629-.015-1.248.089a4.2 4.2 0 0 0 .536-3.074 5 5 0 0 0-.09-.338q.211-.012.424.004M15.242 4.946a12.77 12.77 0 0 1 7.6 2.972c.343.285 1.408 1.215 2.415 2.735-.236.348-.629.793-1.19.895-1.176.21-1.733-1.353-3.386-2.093-2.423-1.083-4.583.792-5.39-.268-.3-.392-.227-1.497-.089-3.697z"/></svg>