<svg viewBox="0 0 32 32" xmlns="http://www.w3.org/2000/svg"><path d="m2 2.005h28v27.991h-28z" fill="#818180"/><g fill="#2d2d2c"><path d="m9.353 25.372 2.14-1.295c.413.732.788 1.351 1.689 1.351.863 0 1.408-.338 1.408-1.652v-8.934h2.628v8.972c0 2.722-1.6 3.961-3.923 3.961a4.078 4.078 0 0 1 -3.942-2.4"/><path d="m18.644 25.091 2.14-1.239a2.86 2.86 0 0 0 2.59 1.6c1.089 0 1.783-.544 1.783-1.3 0-.9-.713-1.22-1.915-1.746l-.657-.282c-1.9-.807-3.154-1.821-3.154-3.96 0-1.971 1.5-3.473 3.848-3.473a3.881 3.881 0 0 1 3.735 2.1l-2.044 1.317a1.789 1.789 0 0 0 -1.689-1.126 1.143 1.143 0 0 0 -1.258 1.126c0 .788.488 1.107 1.614 1.6l.657.282c2.234.957 3.491 1.933 3.491 4.129 0 2.365-1.858 3.66-4.355 3.66a5.048 5.048 0 0 1 -4.786-2.684"/></g></svg>