<svg xmlns="http://www.w3.org/2000/svg" xmlns:xlink="http://www.w3.org/1999/xlink" viewBox="0 0 32 32"><defs><linearGradient id="a" x1="0.873" y1="516.385" x2="0.873" y2="506.893" gradientTransform="matrix(1, 0, 0, -1, 19.712, 536.891)" gradientUnits="userSpaceOnUse"><stop offset="0.15" stop-color="#2a4f84"/><stop offset="0.388" stop-color="#294e82"/><stop offset="1" stop-color="#172e4e"/></linearGradient></defs><title>file_type_ng_component_less</title><path d="M2.73,6.67,15.85,2V30L4.77,23.88Z" style="fill:#de3641"/><path d="M15.85,2,29.27,6.59,27.08,23.8,15.85,30Z" style="fill:#b13138"/><path d="M15.85,5.14l8.53,18.23H21.47l-1.82-4.16h-3.8V16.73h2.77L15.85,11l-2.33,5.73h2.33v2.48H12.38l-1.63,4.16H7.61Z" style="fill:#fff"/><path d="M30.11,28.168A1.835,1.835,0,0,1,28.279,30H12.89a1.835,1.835,0,0,1-1.831-1.831V22.337a1.835,1.835,0,0,1,1.831-1.831H28.279a1.835,1.835,0,0,1,1.831,1.831Z" style="fill:url(#a)"/><path d="M26.89,25.128A1.508,1.508,0,0,1,28.1,26.574a1.292,1.292,0,0,1-.5,1.071,2.244,2.244,0,0,1-1.424.427A3.485,3.485,0,0,1,24.46,27.6a1.519,1.519,0,0,1,.122-.512,1.4,1.4,0,0,1,.268-.44,2.829,2.829,0,0,0,1.261.377.738.738,0,0,0,.39-.086.259.259,0,0,0,.136-.229q0-.27-.418-.4l-.5-.189q-1.133-.413-1.133-1.347a1.34,1.34,0,0,1,.476-1.083,1.978,1.978,0,0,1,1.283-.5,3.9,3.9,0,0,1,.879.112,3.483,3.483,0,0,1,.789.361,1.275,1.275,0,0,1-.1.552.933.933,0,0,1-.291.427,3.258,3.258,0,0,0-1.269-.341.416.416,0,0,0-.277.081.258.258,0,0,0-.095.206q0,.216.345.341l.563.2Z" style="fill:#f6f6f6"/><path d="M22.877,25.128a1.508,1.508,0,0,1,1.206,1.446,1.293,1.293,0,0,1-.5,1.071,2.246,2.246,0,0,1-1.424.427,3.487,3.487,0,0,1-1.714-.473,1.515,1.515,0,0,1,.122-.512,1.392,1.392,0,0,1,.268-.44,2.829,2.829,0,0,0,1.261.377.736.736,0,0,0,.39-.086.26.26,0,0,0,.136-.229q0-.27-.418-.4l-.5-.189q-1.133-.413-1.133-1.347a1.34,1.34,0,0,1,.476-1.083,1.977,1.977,0,0,1,1.282-.5,3.891,3.891,0,0,1,.879.112,3.481,3.481,0,0,1,.789.361,1.275,1.275,0,0,1-.1.552.933.933,0,0,1-.291.427,3.26,3.26,0,0,0-1.27-.341.415.415,0,0,0-.277.081.259.259,0,0,0-.095.206q0,.216.345.341Z" style="fill:#f6f6f6"/><path d="M19.943,25.191a2.158,2.158,0,0,0-.132-.765,1.712,1.712,0,0,0-.376-.6,1.743,1.743,0,0,0-.594-.4,2.093,2.093,0,0,0-.785-.24,2.141,2.141,0,0,0-.9.276,1.725,1.725,0,0,0-.635.494,2.114,2.114,0,0,0-.372.741,3.365,3.365,0,0,0-.122.93,4.344,4.344,0,0,0,.1.961,2.01,2.01,0,0,0,.34.765,1.611,1.611,0,0,0,.625.5,2.244,2.244,0,0,0,.957.212,3.022,3.022,0,0,0,1.777-.544,1.426,1.426,0,0,0-.37-.827,4.732,4.732,0,0,1-.655.2,2.453,2.453,0,0,1-.5.06.778.778,0,0,1-.623-.222.908.908,0,0,1-.207-.589h2.357A3.4,3.4,0,0,0,19.943,25.191Zm-2.484.062a1.86,1.86,0,0,1,.167-.765.483.483,0,0,1,.427-.2.5.5,0,0,1,.445.216,1.337,1.337,0,0,1,.148.655v.1H17.46Z" style="fill:#f6f6f6"/><path d="M30.584,25.854a1.227,1.227,0,0,0-.405.967V28.39a1.384,1.384,0,0,1-.522,1.191,2.141,2.141,0,0,1-1.265.42h-.285v-.786a.949.949,0,0,0,.455-.255,1.047,1.047,0,0,0,.32-.8V26.891a1.946,1.946,0,0,1,.2-1.012A1.912,1.912,0,0,1,30,25.238a1.933,1.933,0,0,1-1.012-.9,2.26,2.26,0,0,1-.1-.891V22.285a1.115,1.115,0,0,0-.28-.806.881.881,0,0,0-.5-.24v-.734h.71a1.282,1.282,0,0,1,.782.338,1.529,1.529,0,0,1,.515.772,1.782,1.782,0,0,1,.066.535v1.344a1.412,1.412,0,0,0,.382,1.058,1.616,1.616,0,0,0,.653.366v.607a1.486,1.486,0,0,0-.627.326Z" style="fill:#f6f6f6;stroke:#404040;stroke-miterlimit:10;stroke-width:0.19116491079330444px"/><path d="M12.549,20.506h-.255a1.279,1.279,0,0,0-.782.338,1.308,1.308,0,0,0-.515.772,2.7,2.7,0,0,0-.029.535v1.344a1.428,1.428,0,0,1-.417,1.06,2.177,2.177,0,0,1-.75.365v.606a1.951,1.951,0,0,1,.724.326,1.253,1.253,0,0,1,.441.967v1.568a1.362,1.362,0,0,0,.486,1.191A2.141,2.141,0,0,0,12.717,30h.322v-.785a1.124,1.124,0,0,1-.492-.255,1.036,1.036,0,0,1-.284-.8V26.892a1.924,1.924,0,0,0-.233-1.012,1.912,1.912,0,0,0-.918-.641,1.934,1.934,0,0,0,1.012-.9,2.185,2.185,0,0,0,.14-.891V22.286a1.118,1.118,0,0,1,.242-.806,1,1,0,0,1,.44-.207h.327v-.767Z" style="fill:#f6f6f6;stroke:#404040;stroke-miterlimit:10;stroke-width:0.19116491079330444px"/><path d="M15.564,26.87h-.245c-.266,0-.366-.14-.366-.421V21.281a.96.96,0,0,0-.2-.655c-.115-.125-.314-.124-.6-.124h-.618v6.2a1.434,1.434,0,0,0,.269.948,1.1,1.1,0,0,0,.876.3,6.009,6.009,0,0,0,.97-.09,1.705,1.705,0,0,0,.028-.389,1.742,1.742,0,0,0-.109-.6Z" style="fill:#f6f6f6"/></svg>