<svg xmlns="http://www.w3.org/2000/svg" xmlns:xlink="http://www.w3.org/1999/xlink" viewBox="0 0 32 32"><defs><mask id="mask" x="4.83" y="21.4" width="22.34" height="8.56" maskUnits="userSpaceOnUse"><g id="mask0_521_430" data-name="mask0 521 430"><rect x="4.83" y="25.5" width="22.34" height="4.47" style="fill:#c4c4c4"/></g></mask></defs><title>file_type_light_mailing</title><g style="mask:url(#mask)"><path d="M16,23.63a2.05,2.05,0,1,0,2,2.05A2,2,0,0,0,16,23.63Zm0-2.23a4.28,4.28,0,1,0,4.21,4.28A4.24,4.24,0,0,0,16,21.4Z" style="fill-rule:evenodd"/><path d="M23,23.63a2.05,2.05,0,1,0,2,2.05A2,2,0,0,0,23,23.63Zm0-2.23a4.28,4.28,0,1,0,4.21,4.28A4.24,4.24,0,0,0,23,21.4Z" style="fill-rule:evenodd"/><path d="M9,23.63a2.05,2.05,0,1,0,2,2.05A2,2,0,0,0,9,23.63ZM9,21.4a4.28,4.28,0,1,0,4.21,4.28A4.24,4.24,0,0,0,9,21.4Z" style="fill-rule:evenodd"/></g><circle cx="16" cy="12.65" r="10.61"/></svg>