<!DOCTYPE svg PUBLIC "-//W3C//DTD SVG 20010904//EN" "http://www.w3.org/TR/2001/REC-SVG-20010904/DTD/svg10.dtd">
<svg version="1.0" xmlns="http://www.w3.org/2000/svg" width="360px" height="360px" viewBox="0 0 3600 3600" preserveAspectRatio="xMidYMid meet">
<g id="layer101" fill="#3dbcf3" stroke="none">
 <path d="M566 3188 c-14 -20 -16 -89 -16 -564 0 -485 -2 -542 -16 -548 -9 -3 -80 -6 -158 -6 -161 0 -176 -7 -176 -77 0 -33 11 -48 138 -177 127 -129 649 -659 1182 -1198 l224 -228 56 0 55 -1 398 402 397 402 0 -81 c0 -121 2 -122 197 -122 150 0 155 1 178 25 l25 24 0 278 0 278 71 75 c39 41 118 123 175 181 94 95 104 110 104 142 0 70 -15 77 -176 77 -78 0 -149 3 -158 6 -14 6 -16 62 -16 541 0 459 -2 538 -15 563 l-16 30 -552 0 -552 0 3 -252 3 -253 198 -199 199 -199 69 11 c151 22 265 -32 344 -163 21 -35 24 -52 24 -135 0 -81 -4 -102 -25 -144 -91 -179 -344 -225 -486 -89 -87 84 -115 177 -91 314 l8 45 -108 107 c-59 59 -113 107 -120 107 -10 0 -13 -69 -13 -354 l0 -354 44 -26 c163 -96 194 -334 62 -474 -126 -133 -324 -133 -453 0 -133 138 -101 378 63 474 l44 26 0 354 c0 301 -2 354 -14 354 -8 0 -63 -48 -122 -107 l-106 -106 11 -67 c20 -126 -19 -236 -110 -310 -112 -90 -307 -79 -406 22 -70 72 -93 127 -93 223 0 69 4 90 26 131 28 53 101 134 120 134 7 0 14 4 16 10 2 5 33 16 71 24 53 11 83 12 138 4 l71 -11 199 199 198 199 2 250 2 250 -551 3 -551 2 -15 -22z"/>
 <path d="M1090 2140 c0 -5 -6 -10 -13 -10 -30 0 -61 -54 -65 -112 -4 -57 -3 -59 37 -99 41 -41 41 -41 104 -37 57 3 67 7 95 38 28 31 31 42 32 97 0 60 -1 62 -42 97 -36 32 -48 36 -95 36 -29 0 -53 -4 -53 -10z"/>
 <path d="M2362 2114 c-41 -35 -42 -37 -42 -97 1 -55 4 -66 32 -96 25 -28 40 -35 79 -39 70 -7 96 3 129 50 39 53 40 108 5 161 -14 20 -32 37 -40 37 -8 0 -15 5 -15 10 0 6 -24 10 -53 10 -47 0 -59 -4 -95 -36z"/>
 <path d="M1700 1453 c-30 -34 -32 -40 -28 -101 4 -60 7 -68 38 -94 63 -52 184 -30 211 40 6 15 9 51 7 80 -4 41 -11 59 -33 82 -26 27 -34 30 -96 30 -65 0 -68 -1 -99 -37z"/>
 </g>

</svg>