<svg viewBox="0 0 32 32" xmlns="http://www.w3.org/2000/svg" xmlns:xlink="http://www.w3.org/1999/xlink"><radialGradient id="a" cx="767.179" cy="5169.543" gradientTransform="matrix(.955 0 0 .962 -718.112 -4953.917)" gradientUnits="userSpaceOnUse" r="14.989"><stop offset="0" stop-color="#36bac0"/><stop offset="1" stop-color="#2d9094"/></radialGradient><path d="m29.645 15.925a13.77 13.77 0 1 1 -13.769-13.869 13.819 13.819 0 0 1 13.769 13.869z" fill="url(#a)" stroke="#02797e" stroke-linejoin="round" stroke-width="1.136723"/><path d="m10.581 11.648c2.41-.076 3.359.834 4.605 2.069.285.282.579.59.9.921l.922-.991a6.223 6.223 0 0 1 3.256-1.93c1.939-.211 3.119-.122 4.311.814a5.023 5.023 0 0 1 2.245 3.9 5.653 5.653 0 0 1 -3.25 5.156 5.975 5.975 0 0 1 -3.913.135 7.656 7.656 0 0 1 -3.541-2.987c-1.678 2.142-3.187 3.253-5.235 3.155-7.452-.354-6.842-10.075-.3-10.247zm1.657 7.994a9.193 9.193 0 0 0 2.856-2.9c-.74-1.243-2.209-2.824-3.455-3.134a4.328 4.328 0 0 0 -3.224.777 3.384 3.384 0 0 0 -.762 3.686 3.674 3.674 0 0 0 4.585 1.57zm-2.98-3.487 3.278.005v1.21l-3.283.005zm13.448 3.6a3.843 3.843 0 0 0 2.231-2.755 3.458 3.458 0 0 0 -1.863-3.109 3.648 3.648 0 0 0 -4.2.728 7.364 7.364 0 0 0 -1.649 2.151 8.936 8.936 0 0 0 1.975 2.482 4.022 4.022 0 0 0 3.506.502zm-1.955-2.376-1.088-.008v-1.217h1.091v-1.079l1.107-.008-.007 1.093h1.085v1.165l-1.021-.008v1.12h-1.165z" opacity=".1681" stroke="#000" stroke-width=".121031"/><g fill="#fff"><path d="m4.917 16.337c0 5.348 7.354 7.34 10.987 1.894 3.765 5.647 10.824 3.28 10.824-1.9s-7.028-7.675-10.828-1.89c-3.6-5.719-10.987-3.453-10.987 1.9zm1.931 0c0-3.86 5.455-5.078 7.992 0-2.588 4.889-7.992 3.859-7.992 0zm10.119 0c2.286-5.178 7.889-3.751 7.872.008s-5.653 4.932-7.872-.008z" stroke="#000" stroke-width=".242062"/><path d="m8.898 15.795h3.237v1.067h-3.237z"/><path d="m20.644 16.846h-1.068v-1.134h1.068v-1.068h1.135v1.068h1.068v1.134h-1.068v1.068h-1.135z"/></g></svg>