<?xml version="1.0" encoding="UTF-8" standalone="no"?>
<svg
   width="809"
   height="809"
   viewBox="0 0 809 809"
   fill="none"
   version="1.1"
   id="svg118"
   xmlns="http://www.w3.org/2000/svg"
   xmlns:svg="http://www.w3.org/2000/svg">
  <rect
     style="fill:#ffffff"
     id="rect531"
     width="496.34299"
     height="289.20773"
     x="153.72302"
     y="280.08856" />
  <path
     d="M293 397C293 408.598 284.27 418 273.5 418C262.73 418 254 408.598 254 397C254 385.402 262.73 376 273.5 376C284.27 376 293 385.402 293 397Z"
     fill="url(#paint0_radial)"
     id="path95" />
  <path
     d="M516.442 397C516.442 408.598 525.172 418 535.942 418C546.711 418 555.442 408.598 555.442 397C555.442 385.402 546.711 376 535.942 376C525.172 376 516.442 385.402 516.442 397Z"
     fill="url(#paint1_radial)"
     id="path97" />
  <path
     fill-rule="evenodd"
     clip-rule="evenodd"
     d="M117.136 367.726C114.43 194.019 152.712 70 183.097 70C206.278 70 252.015 98.5122 294.687 165.021C328.835 152.763 366.259 146 405.5 146C444.256 146 481.24 152.597 515.045 164.569C557.634 98.3829 603.216 70 626.344 70C656.201 70 693.681 189.735 692.41 358.692C694.773 371.659 696 384.955 696 398.5C696 537.952 676 721 405.5 721C135 721 115 537.952 115 398.5C115 388.083 115.726 377.813 117.136 367.726ZM264 459C297.689 459 325 429.003 325 392C325 354.997 297.689 325 264 325C230.311 325 203 354.997 203 392C203 429.003 230.311 459 264 459ZM394.569 513.941C395.156 512.419 396.133 511.163 397.342 510.242C377.006 503.011 361.287 475.757 370.894 471.843C389.466 464.277 423.506 463.83 443.173 471.843C450.519 474.836 434.737 505.954 413.195 511.239C413.9 512.004 414.475 512.912 414.872 513.941C419.864 526.882 432.318 532.431 446.525 531.943C453.554 531.701 460.455 529.933 466.028 527.172C471.717 524.354 475.279 520.892 476.804 517.77C478.864 513.552 483.954 511.802 488.172 513.862C492.39 515.922 494.14 521.012 492.08 525.23C488.354 532.858 481.291 538.583 473.574 542.406C465.741 546.286 456.454 548.611 447.109 548.932C431.896 549.455 414.998 544.533 404.721 530.567C394.444 544.533 377.546 549.455 362.333 548.932C352.987 548.611 343.701 546.286 335.868 542.406C328.151 538.583 321.087 532.858 317.362 525.23C315.302 521.012 317.052 515.922 321.27 513.862C325.488 511.802 330.578 513.552 332.638 517.77C334.163 520.892 337.724 524.354 343.414 527.172C348.987 529.933 355.887 531.701 362.917 531.943C377.124 532.431 389.578 526.882 394.569 513.941ZM545.442 459C511.752 459 484.442 429.003 484.442 392C484.442 354.997 511.752 325 545.442 325C579.131 325 606.442 354.997 606.442 392C606.442 429.003 579.131 459 545.442 459Z"
     fill="url(#paint2_radial)"
     id="path99" />
  <defs
     id="defs116">
    <radialGradient
       id="paint0_radial"
       cx="0"
       cy="0"
       r="1"
       gradientUnits="userSpaceOnUse"
       gradientTransform="translate(99.0001 84.5) rotate(47.5349) scale(815.385 633.34)">
      <stop
         stop-color="#0029FF"
         id="stop101" />
      <stop
         offset="1"
         stop-color="#BD00FF"
         id="stop103" />
    </radialGradient>
    <radialGradient
       id="paint1_radial"
       cx="0"
       cy="0"
       r="1"
       gradientUnits="userSpaceOnUse"
       gradientTransform="translate(99.0001 84.5) rotate(47.5349) scale(815.385 633.34)">
      <stop
         stop-color="#0029FF"
         id="stop106" />
      <stop
         offset="1"
         stop-color="#BD00FF"
         id="stop108" />
    </radialGradient>
    <radialGradient
       id="paint2_radial"
       cx="0"
       cy="0"
       r="1"
       gradientUnits="userSpaceOnUse"
       gradientTransform="translate(99.0001 84.5) rotate(47.5349) scale(815.385 633.34)">
      <stop
         stop-color="#0029FF"
         id="stop111" />
      <stop
         offset="1"
         stop-color="#BD00FF"
         id="stop113" />
    </radialGradient>
  </defs>
</svg>
