<svg xmlns="http://www.w3.org/2000/svg" viewBox="0 0 32 32"><title>file_type_affinityphoto</title><path fill="#7600aa" d="M23.307 11.572l-4.41-7.667h-1.212l-.386-.609h-.574l-4.779 8.276z"/><path fill="#5c0095" d="M9.861 11.572l-2.408 4.209-2.638 1.522L2 22.178l1.927 3.279 8.019-13.885z"/><path fill="#5900af" d="M16.725 3.296h-3.82l-2.077 3.596.852 1.5-1.819 3.18h2.085z"/><path fill="#460063" d="M4.995 25.954l.644 1.072h11.149l.618-1.072z"/><path fill="#8800b8" d="M24.507 13.659l-1.2-2.087H11.946L3.927 25.457l.292.497h13.187z"/><path fill="#2f0031" d="M16.788 27.026h.711l.927 1.642h.605l-.92-1.642h9.395l.633-1.072H17.406z"/><path fill="#470056" d="M24.507 13.659l-7.101 12.295h10.733l1.743-2.949z"/><radialGradient id="a" cx="15.015" cy="18.156" r="11.547" gradientUnits="userSpaceOnUse"><stop offset=".216" stop-color="#ffb3c0"/><stop offset=".491" stop-color="#fd6ee4"/><stop offset="1" stop-color="#ac3dff"/></radialGradient><path fill="url(#a)" d="M15.885 16.016l-2.33-4.051-2.34 4.051zm-1.414 4.664l1.313 2.282h12.329L26.8 20.68zm-1.684-1.814l-3.654 6.328h7.293zm4.051 1.324h9.68l-4.83-8.398zm-2.962-8.78l3.675 6.39 3.804-6.587-3.675-6.39zM8.507 25.194l5.019-8.691h-2.592l-5.019 8.691z"/><path d="M15.867 20.079H14.46a.586.586 0 0 1-.504-.287l-.689-1.159a.585.585 0 0 1 0-.599l.689-1.159a.586.586 0 0 1 .504-.287h1.406c.207 0 .398.109.504.287l.689 1.159c.11.185.11.415 0 .599l-.689 1.159a.582.582 0 0 1-.503.287z" fill="#43004d"/></svg>