<svg version="1.1" viewBox="0 0 32 32" xmlns="http://www.w3.org/2000/svg"><title>file_type_s-lang</title><g transform="matrix(.9276 0 0 .9916 1.1533 .13074)" fill="#2c65af"><path d="m22.385 13.599c0 3.073-1e-3 6.145 8e-3 9.218 0 0.062 0.12 0.178 0.184 0.178 2.438 9e-3 4.875 7e-3 7.313 0.01 0.337 0 0.688-2e-3 0.916 0.306 0.085 0.115 0.158 0.265 0.166 0.404 0.024 0.389 0.014 0.781 5e-3 1.172-1e-3 0.027-0.119 0.09-0.151 0.074-0.664-0.342-1.733-0.242-2.291 0.237-0.513 0.441-0.692 1.012-0.68 1.683 0.01 0.554 0.128 1.047 0.492 1.472 0.02 0.024 0.04 0.079 0.028 0.094-0.02 0.024-0.065 0.036-0.1 0.036-0.32 2e-3 -0.64 6e-3 -0.959-7e-3 -0.053-2e-3 -0.148-0.084-0.148-0.13-4e-3 -1.123 4e-3 -2.246 1e-3 -3.369 0-0.056-0.075-0.155-0.122-0.159-0.211-0.018-0.424-0.014-0.635-2e-3 -0.037 2e-3 -0.099 0.082-0.099 0.126-1e-3 0.67 5e-3 1.34 0.012 2.01 1e-3 0.119 0.015 0.238 0.017 0.357 1e-3 0.03-0.021 0.061-0.032 0.091-0.027-0.019-0.064-0.031-0.08-0.056-0.386-0.642-0.769-1.286-1.153-1.929-0.099-0.166-0.182-0.344-0.303-0.491-0.055-0.067-0.185-0.101-0.281-0.102-0.633-5e-3 -0.635 0-0.633 0.636 3e-3 0.95 0.012 1.9 8e-3 2.849 0 0.058-0.099 0.163-0.155 0.166-0.475 0.02-0.558-0.086-0.729-0.664-0.115-0.387-0.294-0.755-0.443-1.132-0.216-0.545-0.428-1.091-0.648-1.633-0.025-0.062-0.086-0.152-0.135-0.156-0.264-0.02-0.532-0.037-0.793-7e-3 -0.07 8e-3 -0.133 0.18-0.176 0.287a194.26 194.26 0 0 0-0.782 1.978c-0.154 0.394-0.294 0.794-0.455 1.185-0.027 0.066-0.128 0.146-0.195 0.146-1.847 7e-3 -3.694 4e-3 -5.541 2e-3 -0.08 0-0.16 2e-3 -0.239-6e-3 -0.047-5e-3 -0.092-0.026-0.138-0.04 0.038-0.05 0.065-0.127 0.115-0.145 1.174-0.439 2.248-1.044 3.061-2.013 0.378-0.451 0.669-0.98 0.973-1.489 0.429-0.719 0.593-1.527 0.693-2.344 0.048-0.385 0.055-0.781 0.024-1.167-0.048-0.59-0.097-1.188-0.232-1.762-0.189-0.804-0.511-1.568-1.084-2.184-0.417-0.448-0.838-0.908-1.326-1.271-0.552-0.41-1.165-0.75-1.781-1.06-0.594-0.299-1.222-0.534-1.845-0.772-0.601-0.23-1.222-0.407-1.818-0.647-0.753-0.304-1.509-0.613-2.227-0.99-0.445-0.234-0.867-0.555-1.215-0.917-0.395-0.41-0.444-0.957-0.337-1.518 0.109-0.574 0.427-0.995 0.947-1.221 0.369-0.16 0.773-0.269 1.171-0.323 0.719-0.097 1.434-1e-3 2.095 0.299 0.494 0.224 0.841 0.625 1.026 1.149 0.123 0.347 0.199 0.729 0.402 1.022 0.121 0.175 0.445 0.287 0.681 0.294 1.087 0.03 2.175 0.017 3.263 8e-3 0.334-3e-3 0.679 1e-3 0.998-0.08 0.432-0.111 0.614-0.418 0.573-0.891-0.084-0.948-0.307-1.861-0.668-2.747-0.337-0.828-0.84-1.539-1.442-2.179-0.644-0.683-1.428-1.184-2.274-1.588-0.195-0.093-0.386-0.195-0.576-0.296-0.026-0.014-0.04-0.05-0.06-0.076 0.031-0.011 0.061-0.032 0.092-0.032 0.16-3e-3 0.32 0 0.48 0 2.811 1e-3 5.621-0.01 8.432 0.014 0.476 4e-3 0.805 0.251 0.805 0.901-2e-3 3.064-1e-3 6.128-1e-3 9.192z"/><path d="m9.502 23.393c-1.004 0.064-2.456-0.201-3.059-1.097-0.444-0.66-0.286-1.622-1.274-1.693-1.31-0.094-2.634 0.062-3.944-0.011-0.198-0.011-0.201 9e-3 -0.209-0.175-0.011-0.255 0.025-0.55 0.025-0.815l1e-3 -1.995a3437.6 3437.6 0 0 0-1e-3 -3.398c0-0.279-0.09-0.628-0.016-0.889 0.224 0.189 0.345 0.485 0.493 0.737 0.168 0.286 0.343 0.566 0.542 0.832a7.027 7.027 0 0 0 1.142 1.202c0.973 0.807 2.192 1.369 3.366 1.815 1.301 0.495 2.651 0.877 3.913 1.472 0.997 0.47 2.294 1.062 2.119 2.372-0.18 1.35-1.974 1.719-3.098 1.644m20.832 4.06c0.291 0 0.681 0.112 0.414 0.49-0.266 0.377-1.083 0.363-1.442 0.183-0.45-0.226-0.54-0.656-0.557-1.12-0.017-0.453-0.02-0.976 0.371-1.279 0.328-0.254 0.833-0.326 1.206-0.139 0.183 0.092 0.408 0.277 0.532 0.442 0.09 0.12 0.243 0.473 0.096 0.613-0.245 0.233-0.944-0.148-1.092 0.189-0.013 0.03-0.03 0.371-0.024 0.413 0.04 0.262 0.291 0.206 0.497 0.206v3e-3m-5.645 0.044c-0.018-0.33-0.141-0.823-0.032-1.136 0.3 0.145 0.497 0.689 0.665 0.974 0.22 0.371 0.441 0.74 0.645 1.12-0.191 0.012-0.381 0.023-0.572 0.026-0.157 2e-3 -0.445 0.054-0.588-5e-3 -0.272-0.112-0.139-0.735-0.139-0.977zm-3.327 0.983c-0.242 0-1.113 0.159-0.88-0.306 0.161-0.321 0.643-0.184 0.925-0.185 0.304-1e-3 0.773-0.119 0.887 0.28 0.043 0.152 0.053 0.157-0.094 0.21-0.213 0.078-0.612 2e-3 -0.839 2e-3zm-7e-3 -1.165c-0.233 0-0.535 0.102-0.481-0.217 0.034-0.201 0.157-0.421 0.225-0.614 0.031-0.09 0.123-0.515 0.198-0.548 0.18-0.077 0.357 0.641 0.411 0.789 0.043 0.12 0.192 0.39 0.148 0.505-0.061 0.16-0.374 0.09-0.501 0.09z"/></g></svg>
