<?xml version="1.0" encoding="UTF-8"?><svg id="Layer_2" xmlns="http://www.w3.org/2000/svg" viewBox="0 0 259.99 233.21"><g id="Layer_1-2"><path d="M30,233.21c-16.54,0-30-13.46-30-30,0-5.39,1.42-10.64,4.12-15.19l66.69-115.52s.3-.46.3-.46L104.01,15c5.35-9.25,15.31-15,25.99-15s20.63,5.74,25.98,14.99l100,173.21c2.62,4.42,4.01,9.61,4.01,15,0,16.54-13.46,30-30,30H30Z" style="fill:none;"/><path d="M30,231.21c-15.44,0-28-12.56-28-28,0-5.03,1.33-9.93,3.84-14.17l66.7-115.54.27-.41,32.93-57.1c5-8.64,14.29-14,24.26-14s19.26,5.36,24.25,13.99l100,173.21c2.42,4.07,3.74,8.97,3.74,14,0,15.44-12.56,28-28,28H30Z" style="fill:#512bd4;"/><path d="M204.64,135.21h-66.72l-7.92-13.76-22.96-39.76c-1.04-1.76-2.48-3.28-4.4-4.32-5.68-3.36-13.04-1.36-16.4,4.4l33.36-57.76c2.08-3.6,5.92-6,10.4-6s8.32,2.4,10.4,6l33.2,57.52.08.16.16.24,30.8,53.28Z" style="fill:#7455dd;"/><path d="M242,203.21c0,6.64-5.36,12-12,12h-66.64c6.64,0,12-5.36,12-12,0-2.16-.64-4.24-1.6-6l-33.36-57.76-2.48-4.24h66.72l35.76,62c1.04,1.76,1.6,3.84,1.6,6Z" style="fill:#9780e5;"/><path d="M175.36,203.21c0,6.64-5.36,12-12,12h-66.72c6.64,0,12-5.36,12-12,0-2.16-.56-4.24-1.6-6,0-.08-.08-.16-.16-.24l-10.56-17.2-23.76-38.8c-2.16-3.52-6-5.76-10.24-5.76h75.6l2.48,4.24,1.02,1.76,32.34,56c.96,1.76,1.6,3.84,1.6,6Z" style="fill:#b9aaee;"/><path d="M108.64,203.21c0,6.64-5.36,12-12,12H30c-6.64,0-12-5.36-12-12,0-2.16.56-4.24,1.6-6l32.32-56c2.16-3.68,6.16-6,10.4-6s8.08,2.24,10.24,5.76l23.76,38.8,10.56,17.2c.08.08.16.16.16.24,1.04,1.76,1.6,3.84,1.6,6Z" style="fill:#dcd5f6;"/><path d="M137.92,135.21H62.32c-4.24,0-8.24,2.32-10.4,6l3.44-6,30.56-52.88.32-.48v-.08c3.36-5.76,10.72-7.76,16.4-4.4,1.92,1.04,3.36,2.56,4.4,4.32l22.96,39.76,7.92,13.76Z" style="fill:#9780e5;"/></g></svg>