<svg xmlns="http://www.w3.org/2000/svg" viewBox="0 0 32 32"><title>file_type_testts@2x</title><g id="test_ts"><path d="M26.4,24.38c-2.31-.54-3.11-3.31-1.77-6.11a11.93,11.93,0,0,1,3-3.71l.42-.35v.48a9,9,0,0,0,1,3.23,18.79,18.79,0,0,1,.83,2.18,4.25,4.25,0,0,1-.1,2.61,3.56,3.56,0,0,1-1.49,1.45A3.73,3.73,0,0,1,26.4,24.38Zm.47-4.75c.17-.19.21-.44.22-1.34V17.2l-.27.21A2.24,2.24,0,0,0,26,19.27c.09.29.38.6.55.59A.69.69,0,0,0,26.87,19.63Z" style="fill:#007acc"/><path d="M6.16,29.08a5.14,5.14,0,0,1-4-6.08c.34-1.43.27-1.34,7.63-9L16.7,6.69l1,.94,1,.94-4,4.18-4,4.18L14,16.85l3.34-.07,2.36-2.47,2.36-2.47,1,.94,1,.94-7,7.24c-6.38,6.64-7,7.27-7.66,7.59a5.18,5.18,0,0,1-3.27.52ZM25.71,12.43c-.18-.11-2.06-1.86-4.17-3.89L17.7,4.84V4.28a1.15,1.15,0,0,1,.26-.9,1.32,1.32,0,0,1,1.39-.49,91.79,91.79,0,0,1,8.37,8,1.34,1.34,0,0,1-2,1.51Z" style="fill:#007acc"/><path d="M4.1,23.62c-.35,2.28,1,3.82,3.44,3.49l9.85-10.32c-3.34.07-3.3-.07-6.64,0C4.07,23.72,3.93,23.67,4.1,23.62Z" style="fill:#007acc"/><path d="M27.73,17.93a3.55,3.55,0,0,1,1.78,1,4.69,4.69,0,0,1,.68.91s-1.23.87-2,1.34c0,0-.14-.1-.26-.28a1.62,1.62,0,0,0-1.34-.81c-.86-.06-1.42.39-1.42,1.15a1,1,0,0,0,.12.53c.19.39.54.63,1.65,1.11,2,.88,2.91,1.46,3.46,2.28a4.14,4.14,0,0,1,.33,3.48,3.82,3.82,0,0,1-3.15,2.26,8.74,8.74,0,0,1-2.17,0,5.24,5.24,0,0,1-2.9-1.51,5,5,0,0,1-.74-1.1l.26-.17,1.06-.61.82-.48.17.25a3.83,3.83,0,0,0,1.08,1A2.65,2.65,0,0,0,28,28.19a1.24,1.24,0,0,0,.16-1.58c-.22-.32-.67-.58-2-1.14a7.06,7.06,0,0,1-2.68-1.65,3.76,3.76,0,0,1-.78-1.43,5.71,5.71,0,0,1,0-1.82,3.47,3.47,0,0,1,2.92-2.71A7.22,7.22,0,0,1,27.73,17.93ZM21,19.12v1.17H17.34V30.83H14.71V20.29H11V19.14A11.22,11.22,0,0,1,11,18s2.27,0,5,0h5Z" style="fill:#007acc;stroke:#000;stroke-miterlimit:10;stroke-width:0.5px"/></g></svg>