<svg id="Layer_1" data-name="Layer 1" xmlns="http://www.w3.org/2000/svg" viewBox="0 0 32 32"><path d="M16.12,29.76A13.63,13.63,0,1,1,29.74,16.13,13.63,13.63,0,0,1,16.12,29.76Z" style="fill:#3385ff;fill-rule:evenodd"/><path d="M25.05,22s-2.85-2.53-3-2.73a6.73,6.73,0,0,0,0-6.27q.35-.39,2.94-2.82a10.7,10.7,0,0,1,0,11.82ZM22.14,7.29s-2.4,2.65-2.74,3a6.64,6.64,0,0,0-3.28-.86,6.74,6.74,0,1,0,0,13.47,6.67,6.67,0,0,0,3.2-.81c.27.25,1.2,1.24,2.78,3a10.71,10.71,0,1,1,0-17.72Z" style="fill:#fff;fill-rule:evenodd"/></svg>