<svg viewBox="0 0 32 32" fill="none" xmlns="http://www.w3.org/2000/svg"><title>file_type_angular</title>
<path d="M13.2333 3.66666C13.2227 3.74089 13.1943 3.80325 13.1619 3.87004C13.1563 3.88174 13.1507 3.89343 13.1449 3.90548C13.1329 3.93074 13.1208 3.95597 13.1087 3.98119C13.076 4.04912 13.0436 4.1172 13.0113 4.18528C13.0014 4.20611 13.0014 4.20611 12.9912 4.22737C12.929 4.3585 12.869 4.49057 12.8094 4.62291C12.7135 4.83554 12.6144 5.04651 12.5141 5.25709C12.427 5.44002 12.3416 5.62361 12.2583 5.80832C12.1628 6.02026 12.0641 6.23055 11.9641 6.44043C11.877 6.62336 11.7916 6.80695 11.7083 6.99166C11.6178 7.19238 11.5248 7.39177 11.4302 7.59062C11.3227 7.8167 11.2166 8.04334 11.1121 8.27083C11.0507 8.4043 10.9889 8.53754 10.9271 8.67082C10.9203 8.68558 10.9134 8.70033 10.9064 8.71554C10.8097 8.92424 10.7126 9.13279 10.6153 9.3412C10.4899 9.60952 10.3654 9.8782 10.2409 10.1469C10.2137 10.2056 10.1866 10.2642 10.1594 10.3229C10.1526 10.3376 10.1458 10.3523 10.1388 10.3674C10.0518 10.5551 9.96466 10.7428 9.87709 10.9302C9.87238 10.9403 9.86766 10.9504 9.8628 10.9608C9.85811 10.9708 9.85342 10.9809 9.84859 10.9912C9.72326 11.2595 9.59869 11.5282 9.47423 11.7969C9.44706 11.8556 9.41989 11.9142 9.39272 11.9729C9.38592 11.9876 9.37911 12.0023 9.37211 12.0174C9.28514 12.2051 9.19799 12.3928 9.11043 12.5802C9.10571 12.5903 9.10099 12.6004 9.09613 12.6108C9.09144 12.6208 9.08676 12.6309 9.08193 12.6412C8.95659 12.9095 8.83202 13.1782 8.70756 13.4469C8.68039 13.5056 8.65322 13.5642 8.62605 13.6229C8.61585 13.6449 8.61585 13.6449 8.60544 13.6674C8.51848 13.8551 8.43133 14.0428 8.34376 14.2302C8.33904 14.2403 8.33432 14.2504 8.32946 14.2608C8.32478 14.2708 8.32009 14.2809 8.31526 14.2912C8.18992 14.5595 8.06535 14.8282 7.9409 15.0969C7.91373 15.1556 7.88656 15.2142 7.85938 15.2729C7.84918 15.2949 7.84918 15.2949 7.83877 15.3174C7.75181 15.5051 7.66466 15.6928 7.57709 15.8802C7.57238 15.8903 7.56766 15.9004 7.5628 15.9108C7.55811 15.9208 7.55342 15.9309 7.54859 15.9412C7.42326 16.2095 7.29869 16.4782 7.17423 16.7469C7.14706 16.8056 7.11989 16.8642 7.09272 16.9229C7.08252 16.9449 7.08252 16.9449 7.07211 16.9674C6.98514 17.1551 6.89799 17.3428 6.81043 17.5302C6.80571 17.5403 6.80099 17.5504 6.79613 17.5608C6.79144 17.5708 6.78676 17.5809 6.78193 17.5912C6.65659 17.8595 6.53202 18.1282 6.40756 18.3969C6.38039 18.4556 6.35322 18.5142 6.32605 18.5729C6.31585 18.5949 6.31585 18.5949 6.30544 18.6174C6.21848 18.8051 6.13133 18.9928 6.04376 19.1802C6.03904 19.1903 6.03432 19.2004 6.02946 19.2108C6.02478 19.2208 6.02009 19.2309 6.01526 19.2412C5.92084 19.4433 5.82686 19.6457 5.73302 19.8481C5.71521 19.8865 5.6974 19.9249 5.67958 19.9633C5.51941 20.3087 5.35936 20.6542 5.20001 21C5.18901 21 5.17801 21 5.16668 21C5.08722 19.7457 5.00776 18.4913 4.92833 17.237C4.92716 17.2185 4.92599 17.1999 4.92477 17.1808C4.89925 16.7776 4.87372 16.3745 4.84819 15.9713C4.83567 15.7736 4.82316 15.5759 4.81064 15.3782C4.80939 15.3586 4.80815 15.3389 4.80686 15.3186C4.76646 14.6805 4.72604 14.0423 4.68561 13.4042C4.64408 12.7487 4.60256 12.0931 4.56106 11.4376C4.55521 11.3451 4.54935 11.2525 4.54349 11.16C4.54234 11.1418 4.54119 11.1236 4.54 11.1049C4.52142 10.8113 4.50282 10.5177 4.48421 10.2242C4.46553 9.92934 4.44686 9.6345 4.4282 9.33965C4.41711 9.1643 4.406 8.98894 4.39488 8.81358C4.38746 8.6966 4.38005 8.57963 4.37266 8.46265C4.36844 8.3959 4.36422 8.32914 4.35997 8.26239C4.35612 8.20174 4.35228 8.14109 4.34846 8.08043C4.34642 8.04818 4.34436 8.01593 4.34231 7.98367C4.34051 7.95514 4.34052 7.95514 4.33869 7.92603C4.33765 7.90961 4.33661 7.89319 4.33554 7.87627C4.33367 7.83977 4.33334 7.8032 4.33334 7.76666C4.55936 7.65647 4.78649 7.54931 5.01564 7.44582C5.20568 7.35999 5.39485 7.27253 5.58334 7.18332C5.78006 7.09024 5.97756 6.99914 6.17588 6.90954C6.35137 6.8302 6.52592 6.74902 6.70001 6.66666C6.89673 6.57358 7.09423 6.48247 7.29255 6.39287C7.46804 6.31353 7.64259 6.23236 7.81668 6.14999C8.01415 6.05656 8.2124 5.96507 8.41146 5.87508C8.58052 5.79863 8.74884 5.72074 8.91668 5.64166C9.09589 5.55721 9.27573 5.47431 9.45626 5.3927C9.65582 5.30248 9.85429 5.21015 10.0523 5.11649C10.2258 5.03442 10.4001 4.95404 10.575 4.87499C10.7643 4.78944 10.9528 4.70226 11.1406 4.61353C11.1586 4.60506 11.1586 4.60506 11.1769 4.59642C11.1947 4.588 11.1947 4.588 11.2129 4.57941C11.4043 4.48901 11.5963 4.39998 11.7887 4.31155C11.8992 4.26071 12.0096 4.20969 12.12 4.1587C12.1892 4.12678 12.2583 4.09486 12.3275 4.06295C12.3414 4.0565 12.3554 4.05006 12.3698 4.04342C12.4594 4.00206 12.549 3.9607 12.6387 3.91935C12.6991 3.89149 12.7595 3.86362 12.8199 3.83575C12.8489 3.82238 12.8779 3.80901 12.9069 3.79564C12.947 3.77711 12.9872 3.75857 13.0274 3.74003C13.0454 3.73174 13.0454 3.73174 13.0637 3.72329C13.1864 3.66666 13.1864 3.66666 13.2333 3.66666Z" fill="#F42DB1"/>
<path d="M18.7667 3.66666C18.8389 3.67737 18.8971 3.703 18.9628 3.7345C18.9792 3.74231 18.9792 3.74231 18.996 3.75029C19.0196 3.76156 19.0433 3.77288 19.067 3.78423C19.1309 3.81491 19.195 3.84527 19.2591 3.87564C19.2723 3.88189 19.2854 3.88813 19.299 3.89457C19.4292 3.95621 19.5603 4.01575 19.6917 4.07499C19.8906 4.16482 20.0883 4.25683 20.2856 4.35016C20.4591 4.43223 20.6334 4.51261 20.8083 4.59166C21.0072 4.68151 21.205 4.77349 21.4023 4.86683C21.5758 4.9489 21.75 5.02928 21.925 5.10832C22.1119 5.19278 22.2979 5.27894 22.4833 5.36666C22.6808 5.46008 22.879 5.55158 23.0781 5.64157C23.2583 5.72306 23.4376 5.80633 23.6165 5.89064C23.7847 5.96983 23.9535 6.04738 24.1229 6.12395C24.3129 6.20986 24.5021 6.2974 24.6906 6.38645C24.7086 6.39492 24.7086 6.39492 24.7269 6.40356C24.7387 6.40917 24.7506 6.41478 24.7629 6.42057C24.9543 6.51096 25.1463 6.6 25.3387 6.68843C25.4491 6.73924 25.5595 6.79024 25.6698 6.8412C25.7399 6.87354 25.81 6.90587 25.88 6.93821C25.9011 6.94796 25.9011 6.94796 25.9227 6.95792C26.0192 7.00245 26.1157 7.04696 26.2122 7.09146C26.4816 7.21574 26.751 7.34015 27.0202 7.46486C27.0492 7.47828 27.0782 7.49169 27.1071 7.5051C27.1478 7.52392 27.1884 7.54275 27.229 7.56158C27.2405 7.56686 27.2519 7.57215 27.2636 7.57759C27.3527 7.61888 27.4415 7.66065 27.5303 7.70246C27.5434 7.70864 27.5565 7.71482 27.5701 7.72119C27.6023 7.73634 27.6345 7.7515 27.6667 7.76666C27.6229 8.5097 27.5772 9.25261 27.5301 9.99545C27.5208 10.142 27.5115 10.2885 27.5023 10.435C27.4852 10.7051 27.4681 10.9752 27.451 11.2453C27.4341 11.5119 27.4172 11.7784 27.4003 12.0449C27.3993 12.0616 27.3982 12.0783 27.3971 12.0955C27.3917 12.1805 27.3864 12.2655 27.381 12.3504C27.3431 12.9484 27.3053 13.5464 27.2674 14.1444C27.2307 14.7244 27.1939 15.3045 27.1572 15.8845C27.1555 15.9115 27.1555 15.9115 27.1538 15.9389C27.1424 16.1193 27.1309 16.2997 27.1195 16.48C27.0963 16.8473 27.073 17.2145 27.0498 17.5818C27.0487 17.5987 27.0476 17.6155 27.0465 17.6329C26.9755 18.7553 26.9044 19.8776 26.8333 21C26.8223 21 26.8113 21 26.8 21C26.6618 20.7071 26.524 20.4141 26.3886 20.12C26.3184 19.9674 26.2477 19.8149 26.1771 19.6625C26.1702 19.6477 26.1634 19.633 26.1564 19.6178C26.0596 19.4091 25.9626 19.2005 25.8653 18.9921C25.7399 18.7238 25.6153 18.4551 25.4909 18.1864C25.4637 18.1277 25.4365 18.0691 25.4094 18.0104C25.4026 17.9957 25.3958 17.981 25.3888 17.9659C25.3018 17.7782 25.2146 17.5906 25.1271 17.4031C25.1224 17.393 25.1176 17.3829 25.1128 17.3725C25.1058 17.3575 25.1058 17.3575 25.0986 17.3421C24.9732 17.0738 24.8487 16.8051 24.7242 16.5364C24.697 16.4777 24.6699 16.4191 24.6427 16.3604C24.6359 16.3457 24.6291 16.331 24.6221 16.3159C24.5351 16.1282 24.448 15.9406 24.3604 15.7531C24.3557 15.743 24.351 15.7329 24.3461 15.7225C24.3391 15.7075 24.3391 15.7075 24.3319 15.6921C24.2066 15.4238 24.082 15.1551 23.9575 14.8864C23.9304 14.8277 23.9032 14.7691 23.876 14.7104C23.8692 14.6957 23.8624 14.681 23.8554 14.6659C23.7685 14.4782 23.6813 14.2906 23.5937 14.1031C23.589 14.093 23.5843 14.0829 23.5794 14.0725C23.5724 14.0575 23.5724 14.0575 23.5652 14.0421C23.4399 13.7738 23.3153 13.5051 23.1909 13.2364C23.1637 13.1777 23.1365 13.1191 23.1094 13.0604C23.1026 13.0457 23.0958 13.031 23.0888 13.0159C23.0018 12.8282 22.9146 12.6406 22.8271 12.4531C22.8224 12.443 22.8176 12.4329 22.8128 12.4225C22.8058 12.4075 22.8058 12.4075 22.7986 12.3921C22.6732 12.1238 22.5487 11.8551 22.4242 11.5864C22.397 11.5277 22.3699 11.4691 22.3427 11.4104C22.3359 11.3957 22.3291 11.381 22.3221 11.3659C22.2351 11.1782 22.148 10.9906 22.0604 10.8031C22.0557 10.793 22.051 10.7829 22.0461 10.7725C22.0391 10.7575 22.0391 10.7575 22.0319 10.7421C21.9066 10.4738 21.782 10.2051 21.6575 9.93638C21.6304 9.87772 21.6032 9.81907 21.576 9.76041C21.5692 9.74572 21.5624 9.73104 21.5554 9.71591C21.4685 9.52819 21.3813 9.34056 21.2937 9.15312C21.289 9.14302 21.2843 9.13292 21.2794 9.12251C21.2724 9.10746 21.2724 9.10746 21.2652 9.09211C21.1399 8.82379 21.0153 8.55511 20.8909 8.28638C20.8637 8.22772 20.8365 8.16907 20.8094 8.11041C20.8026 8.09572 20.7958 8.08104 20.7888 8.06591C20.7018 7.87819 20.6146 7.69056 20.5271 7.50312C20.5224 7.49302 20.5176 7.48292 20.5128 7.47251C20.5058 7.45746 20.5058 7.45746 20.4986 7.44211C20.3732 7.17379 20.2487 6.90511 20.1242 6.63638C20.097 6.57772 20.0699 6.51906 20.0427 6.46041C20.0325 6.43838 20.0325 6.43838 20.0221 6.41591C19.9351 6.22819 19.848 6.04056 19.7604 5.85311C19.7557 5.84302 19.751 5.83292 19.7461 5.82251C19.7414 5.81248 19.7367 5.80245 19.7319 5.79211C19.6066 5.52379 19.482 5.25511 19.3575 4.98638C19.3304 4.92772 19.3032 4.86906 19.276 4.81041C19.2693 4.79579 19.2625 4.78118 19.2555 4.76613C19.1489 4.53605 19.042 4.30615 18.9346 4.07642C18.9264 4.05878 18.9182 4.04113 18.9097 4.02296C18.8903 3.98155 18.8707 3.94026 18.8509 3.89903C18.8455 3.88767 18.8401 3.87632 18.8346 3.86462C18.8241 3.84257 18.8135 3.82056 18.8028 3.79859C18.7804 3.75125 18.7667 3.71977 18.7667 3.66666Z" fill="#AD23F2"/>
<path d="M11.2565 21.8645C11.2798 21.8645 11.2798 21.8645 11.3035 21.8646C11.3199 21.8646 11.3363 21.8646 11.3532 21.8645C11.4089 21.8645 11.4646 21.8646 11.5202 21.8647C11.5603 21.8646 11.6003 21.8646 11.6403 21.8646C11.7277 21.8646 11.8151 21.8646 11.9025 21.8647C12.0325 21.8648 12.1624 21.8648 12.2924 21.8648C12.511 21.8647 12.7296 21.8648 12.9482 21.8649C13.1647 21.865 13.3812 21.8651 13.5977 21.8651C13.6112 21.8651 13.6246 21.8651 13.6385 21.8651C13.7068 21.8651 13.775 21.8651 13.8433 21.8651C14.3274 21.8651 14.8115 21.8652 15.2955 21.8654C15.7659 21.8656 16.2363 21.8657 16.7066 21.8657C16.7211 21.8657 16.7356 21.8657 16.7505 21.8657C16.896 21.8658 17.0416 21.8658 17.1871 21.8658C17.4835 21.8659 17.7799 21.8659 18.0764 21.866C18.09 21.866 18.1037 21.866 18.1177 21.866C19.0285 21.8661 19.9392 21.8664 20.85 21.8667C20.8607 21.888 20.8715 21.9094 20.8822 21.9308C20.8882 21.9427 20.8942 21.9546 20.9003 21.9669C20.9176 22.0019 20.9334 22.0372 20.9483 22.0733C20.9536 22.0862 20.9589 22.0991 20.9644 22.1124C20.97 22.1261 20.9756 22.1397 20.9813 22.1538C20.9874 22.1685 20.9934 22.1832 20.9997 22.1984C21.0196 22.2468 21.0395 22.2953 21.0594 22.3437C21.0735 22.3781 21.0876 22.4124 21.1017 22.4467C21.1311 22.518 21.1604 22.5893 21.1897 22.6606C21.2503 22.8081 21.3112 22.9554 21.3721 23.1028C21.4049 23.1821 21.4377 23.2614 21.4704 23.3407C21.4769 23.3564 21.4835 23.3722 21.4902 23.3885C21.5308 23.4868 21.5714 23.5851 21.6119 23.6835C21.6326 23.7336 21.6532 23.7836 21.6739 23.8337C21.7007 23.8986 21.7275 23.9636 21.7542 24.0286C21.8136 24.1728 21.8735 24.3168 21.9353 24.46C21.9457 24.4843 21.9561 24.5086 21.9665 24.5329C21.9854 24.577 22.0045 24.6208 22.0239 24.6647C22.0321 24.6837 22.0403 24.7028 22.0487 24.7225C22.0594 24.7469 22.0594 24.7469 22.0704 24.7719C22.0855 24.8241 22.0871 24.8496 22.0667 24.9C22.0298 24.9287 22.0298 24.9287 21.9807 24.9546C21.9625 24.9644 21.9443 24.9742 21.9255 24.9843C21.9158 24.9894 21.906 24.9945 21.896 24.9998C21.8546 25.0213 21.8136 25.0435 21.7726 25.0657C21.7515 25.0771 21.7303 25.0885 21.7092 25.0998C21.6102 25.153 21.5133 25.2095 21.4167 25.2667C21.2761 25.3494 21.1344 25.4296 20.9917 25.5083C20.8315 25.5967 20.673 25.6873 20.5153 25.78C20.3799 25.8594 20.243 25.9362 20.1058 26.0125C19.987 26.0788 19.8693 26.1467 19.7521 26.2156C19.5921 26.3096 19.4303 26.4002 19.2678 26.4899C19.1269 26.5679 18.9875 26.6484 18.8486 26.73C18.7132 26.8094 18.5764 26.8862 18.4392 26.9625C18.3204 27.0288 18.2027 27.0967 18.0854 27.1656C17.9254 27.2596 17.7637 27.3502 17.6012 27.4399C17.4602 27.5179 17.3208 27.5984 17.182 27.68C17.0467 27.7593 16.9101 27.836 16.7731 27.9122C16.6322 27.9908 16.4927 28.0716 16.3538 28.1534C16.3233 28.1714 16.2928 28.1892 16.2622 28.2069C16.2306 28.2252 16.1991 28.2439 16.1679 28.2629C16.152 28.2722 16.136 28.2815 16.1197 28.2911C16.1055 28.2996 16.0913 28.3081 16.0767 28.3169C16.0209 28.338 15.9905 28.3324 15.9333 28.3167C15.8901 28.2971 15.8901 28.2971 15.8465 28.2722C15.8301 28.2629 15.8136 28.2537 15.7967 28.2441C15.7792 28.234 15.7618 28.2239 15.7437 28.2135C15.7253 28.2031 15.707 28.1926 15.688 28.1819C15.5471 28.1015 15.4071 28.0197 15.2672 27.9376C15.1299 27.8572 14.9913 27.7792 14.8523 27.7017C14.7001 27.6169 14.5488 27.5307 14.3977 27.444C14.3164 27.3974 14.235 27.3509 14.1536 27.3045C14.1038 27.276 14.0539 27.2475 14.0041 27.219C13.9839 27.2075 13.9637 27.1959 13.9435 27.1844C13.9038 27.1617 13.8642 27.139 13.8245 27.1164C13.8148 27.1109 13.8052 27.1054 13.7953 27.0997C13.7759 27.0886 13.7565 27.0775 13.7371 27.0664C13.6887 27.0388 13.6402 27.0111 13.5918 26.9834C13.5038 26.9331 13.4158 26.8829 13.3279 26.8325C13.2787 26.8043 13.2294 26.7761 13.1802 26.7479C13.1705 26.7424 13.1608 26.7368 13.1509 26.7311C13.0135 26.6525 12.8757 26.5749 12.7375 26.4979C12.5851 26.413 12.4341 26.3258 12.2836 26.2375C12.1649 26.1679 12.0452 26.1002 11.925 26.0333C11.788 25.9571 11.6519 25.8794 11.5167 25.8C11.3656 25.7114 11.2135 25.625 11.0605 25.5398C10.8809 25.4396 10.7024 25.3375 10.524 25.2352C10.45 25.1928 10.3759 25.1506 10.3018 25.1083C10.2696 25.09 10.2374 25.0716 10.2052 25.0532C10.1845 25.0414 10.1638 25.0297 10.1432 25.0179C10.1145 25.0016 10.0859 24.9852 10.0572 24.9689C10.0409 24.9596 10.0246 24.9503 10.0078 24.9407C9.97678 24.9226 9.94652 24.9032 9.91666 24.8833C9.92676 24.7999 9.95312 24.7278 9.9858 24.651C9.9912 24.6381 9.9966 24.6252 10.0022 24.6119C10.0201 24.569 10.0382 24.5261 10.0562 24.4833C10.069 24.4529 10.0818 24.4224 10.0945 24.3919C10.1145 24.344 10.1346 24.296 10.1547 24.248C10.2221 24.0872 10.2887 23.926 10.3552 23.7648C10.3885 23.684 10.4218 23.6032 10.4552 23.5224C10.465 23.4986 10.465 23.4986 10.4751 23.4742C10.5529 23.2859 10.631 23.0976 10.7092 22.9093C10.7744 22.7522 10.8394 22.5949 10.9042 22.4375C10.9189 22.4017 10.9336 22.366 10.9483 22.3302C10.9699 22.2779 10.9915 22.2255 11.013 22.1731C11.0327 22.1249 11.0526 22.0768 11.0724 22.0286C11.0783 22.0141 11.0843 21.9996 11.0904 21.9847C11.0958 21.9715 11.1013 21.9583 11.1069 21.9448C11.1116 21.9332 11.1163 21.9217 11.1212 21.9098C11.1494 21.8482 11.1947 21.8646 11.2565 21.8645Z" fill="#EA075D"/>
<path d="M15.9833 10.2333C15.9943 10.2333 16.0053 10.2333 16.0167 10.2333C16.1681 10.5995 16.3195 10.9657 16.4698 11.3323C16.4752 11.3455 16.4806 11.3587 16.4862 11.3722C16.5295 11.478 16.5728 11.5837 16.6161 11.6894C16.6541 11.7822 16.6922 11.875 16.7302 11.9677C16.7383 11.9876 16.7383 11.9876 16.7466 12.0078C16.839 12.2331 16.9319 12.4583 17.025 12.6833C17.1235 12.9218 17.2219 13.1603 17.3198 13.399C17.3252 13.4122 17.3306 13.4254 17.3362 13.4391C17.3795 13.5447 17.4228 13.6504 17.4661 13.7561C17.5041 13.8489 17.5422 13.9416 17.5802 14.0344C17.5856 14.0476 17.591 14.0608 17.5966 14.0745C17.689 14.2998 17.7819 14.5249 17.875 14.75C17.9735 14.9884 18.0719 15.2269 18.1698 15.4656C18.1752 15.4789 18.1806 15.4921 18.1862 15.5057C18.2295 15.6114 18.2728 15.7171 18.3161 15.8228C18.3541 15.9155 18.3922 16.0083 18.4302 16.101C18.4356 16.1143 18.4411 16.1276 18.4467 16.1412C18.5317 16.3487 18.6172 16.5559 18.7029 16.7631C18.8129 17.0291 18.9227 17.2951 19.032 17.5614C19.0453 17.5939 19.0586 17.6263 19.072 17.6588C19.0904 17.7036 19.1088 17.7485 19.1272 17.7934C19.1327 17.8066 19.1381 17.8199 19.1438 17.8335C19.1488 17.8458 19.1538 17.858 19.1589 17.8706C19.1633 17.8812 19.1676 17.8918 19.1721 17.9026C19.1837 17.9343 19.1918 17.9672 19.2 18C17.088 18 14.976 18 12.8 18C12.8562 17.8313 12.8562 17.8313 12.8805 17.7729C12.8887 17.753 12.8887 17.753 12.8971 17.7327C12.9029 17.7188 12.9088 17.7049 12.9148 17.6905C12.9241 17.668 12.9241 17.668 12.9336 17.6449C12.947 17.6127 12.9604 17.5805 12.9738 17.5482C13.0024 17.4795 13.0309 17.4108 13.0594 17.3421C13.074 17.3069 13.0886 17.2717 13.1032 17.2365C13.1702 17.0748 13.2368 16.913 13.3031 16.751C13.314 16.7244 13.325 16.6977 13.3359 16.671C13.3684 16.5918 13.4009 16.5126 13.4333 16.4333C13.4767 16.3274 13.5201 16.2215 13.5635 16.1156C13.569 16.1024 13.5744 16.0892 13.58 16.0755C13.6791 15.8339 13.7788 15.5924 13.8786 15.351C13.9704 15.1289 14.0619 14.9067 14.1531 14.6844C14.1613 14.6645 14.1613 14.6645 14.1696 14.6443C14.2075 14.5517 14.2454 14.4592 14.2833 14.3667C14.3267 14.2608 14.3701 14.1549 14.4135 14.049C14.419 14.0357 14.4244 14.0225 14.43 14.0089C14.5291 13.7672 14.6288 13.5258 14.7286 13.2844C14.8204 13.0623 14.9119 12.8401 15.0031 12.6177C15.0085 12.6045 15.014 12.5912 15.0196 12.5776C15.0575 12.4851 15.0954 12.3925 15.1333 12.3C15.1767 12.1941 15.2201 12.0882 15.2635 11.9823C15.2717 11.9625 15.2717 11.9625 15.28 11.9422C15.379 11.7008 15.4786 11.4595 15.5783 11.2184C15.7139 10.8903 15.8488 10.5619 15.9833 10.2333Z" fill="#DB1CA7"/>
</svg>
