<?xml version="1.0" encoding="UTF-8"?>
<!DOCTYPE svg PUBLIC "-//W3C//DTD SVG 1.1//EN" "http://www.w3.org/Graphics/SVG/1.1/DTD/svg11.dtd">
<svg xmlns="http://www.w3.org/2000/svg" version="1.1" width="401px" height="400px" style="shape-rendering:geometricPrecision; text-rendering:geometricPrecision; image-rendering:optimizeQuality; fill-rule:evenodd; clip-rule:evenodd" xmlns:xlink="http://www.w3.org/1999/xlink">
<g><path style="opacity:1" fill="#000000" d="M 284.5,-0.5 C 293.833,-0.5 303.167,-0.5 312.5,-0.5C 351.163,6.93364 377.996,28.9336 393,65.5C 406.161,110.373 395.328,148.207 360.5,179C 346.173,189.557 330.173,196.224 312.5,199C 288.138,199.082 263.805,199.749 239.5,201C 217.444,206.389 204.277,220.223 200,242.5C 199.5,294.832 199.333,347.166 199.5,399.5C 132.833,399.5 66.1667,399.5 -0.5,399.5C -0.5,327.833 -0.5,256.167 -0.5,184.5C 1.1261,182.757 3.1261,182.257 5.5,183C 60.0608,209.123 110.727,203.123 157.5,165C 176.039,147.769 188.873,126.935 196,102.5C 198.181,85.1068 202.847,68.4401 210,52.5C 226.67,23.3263 251.503,5.65965 284.5,-0.5 Z"/></g>
</svg>
