<svg version="1.1" viewBox="0 0 32 32" xmlns="http://www.w3.org/2000/svg"><title>file_type_sapphire_framework_cli</title><g class="layer" transform="matrix(.87088 0 0 .92937 2.0626 1.129)"><title>file-type-sapphire-framework</title><g transform="matrix(.031321 0 0 .029852 8.9441 1.1228)"><path transform="translate(-286.6,-13.65)" d="m320.9 290.4-34.25 34.25v460.4l191.1 191.15 16.55-16.5v-0.05l-173.4-208.85v-460.4m382.2 0v460.5l-0.25 0.3 34.5-34.5v-477.7l-182.55-182.55-25 25 173.3 208.9z" fill="#95e8e8"/><polygon points="34.3 737.15 225.4 967.35 416.25 737.5 416.5 574.9 34.3 713.1" fill="#254fb9"/><path transform="translate(-286.6,-13.65)" d="m529.75 81.5 25-25-42.75-42.85-225.35 225.35v85.65l62.15-62.15-0.05-0.05-27.85 27.9 191.1-230.2 17.75 21.35m207.6 703.6v-68.45l-34.5 34.5-190.85 229.85-17.7-21.3-16.55 16.5 34.25 34.25 225.35-225.35m-34.5-34 0.25-0.3-48.4 48.4z" fill="#5280dd"/><path transform="translate(-286.6,-13.65)" d="m703.1 588.55v-270.9l-382.2 202.9v206.2z" fill="#729ef4"/><path transform="translate(-286.6,-13.65)" d="m320.9 290.35 191.1-230.2 191.1 230.2v27.3l-382.2 202.9z" fill="#254fb9"/></g></g></svg>
