<svg xmlns="http://www.w3.org/2000/svg" xmlns:xlink="http://www.w3.org/1999/xlink" viewBox="0 0 32 32"><defs><linearGradient id="linear-gradient" x1="-235.96" y1="-308.58" x2="-235.99" y2="-308.53" gradientTransform="matrix(202.93, 0, 0, -202.78, 47910.46, -62541.16)" gradientUnits="userSpaceOnUse"><stop offset="0" stop-color="#fb7655"/><stop offset="0.41" stop-color="#e42b1e"/><stop offset="0.99" stop-color="#900"/><stop offset="1" stop-color="#900"/></linearGradient><linearGradient id="linear-gradient-2" x1="-235.57" y1="-309.09" x2="-235.7" y2="-309.04" gradientTransform="matrix(60.31, 0, 0, -111.78, 14236.35, -34525.39)" gradientUnits="userSpaceOnUse"><stop offset="0" stop-color="#871101"/><stop offset="0.99" stop-color="#911209"/><stop offset="1" stop-color="#911209"/></linearGradient><linearGradient id="linear-gradient-3" x1="-235.9" y1="-313.36" x2="-235.94" y2="-313.13" gradientTransform="matrix(188.32, 0, 0, -21.99, 44447.3, -6856.88)" xlink:href="#linear-gradient-2"/><linearGradient id="linear-gradient-4" x1="-233.51" y1="-309.08" x2="-233.5" y2="-309.16" gradientTransform="matrix(65.22, 0, 0, -97.1, 15237.8, -29991.81)" gradientUnits="userSpaceOnUse"><stop offset="0" stop-color="#fff"/><stop offset="0.23" stop-color="#e57252"/><stop offset="0.46" stop-color="#de3b20"/><stop offset="0.99" stop-color="#a60003"/><stop offset="1" stop-color="#a60003"/></linearGradient><linearGradient id="linear-gradient-5" x1="-235.31" y1="-309.53" x2="-235.31" y2="-309.61" gradientTransform="matrix(105.32, 0, 0, -106.83, 24798.92, -33053.15)" gradientUnits="userSpaceOnUse"><stop offset="0" stop-color="#fff"/><stop offset="0.23" stop-color="#e4714e"/><stop offset="0.56" stop-color="#be1a0d"/><stop offset="0.99" stop-color="#a80d00"/><stop offset="1" stop-color="#a80d00"/></linearGradient><linearGradient id="linear-gradient-6" x1="-235.88" y1="-311.85" x2="-235.87" y2="-311.94" gradientTransform="matrix(94.32, 0, 0, -66.42, 22271.5, -20707)" gradientUnits="userSpaceOnUse"><stop offset="0" stop-color="#fff"/><stop offset="0.18" stop-color="#e46342"/><stop offset="0.4" stop-color="#c82410"/><stop offset="0.99" stop-color="#a80d00"/><stop offset="1" stop-color="#a80d00"/></linearGradient><linearGradient id="linear-gradient-7" x1="-235.41" y1="-321.07" x2="-235.33" y2="-320.96" gradientTransform="matrix(70.77, 0, 0, -24.3, 16678.12, -7798.65)" gradientUnits="userSpaceOnUse"><stop offset="0" stop-color="#fff"/><stop offset="0.54" stop-color="#c81f11"/><stop offset="0.99" stop-color="#bf0905"/><stop offset="1" stop-color="#bf0905"/></linearGradient><linearGradient id="linear-gradient-8" x1="-223.82" y1="-310.12" x2="-223.8" y2="-310.18" gradientTransform="matrix(18.18, 0, 0, -72.64, 4071.02, -22510.23)" gradientUnits="userSpaceOnUse"><stop offset="0" stop-color="#fff"/><stop offset="0.31" stop-color="#de4024"/><stop offset="0.99" stop-color="#bf190b"/><stop offset="1" stop-color="#bf190b"/></linearGradient><linearGradient id="linear-gradient-9" x1="-235.56" y1="-309.26" x2="-235.42" y2="-309.12" gradientTransform="matrix(158.16, 0, 0, -157.94, 37256.31, -48819.38)" gradientUnits="userSpaceOnUse"><stop offset="0" stop-color="#bd0012"/><stop offset="0.07" stop-color="#fff"/><stop offset="0.17" stop-color="#fff"/><stop offset="0.27" stop-color="#c82f1c"/><stop offset="0.33" stop-color="#820c01"/><stop offset="0.46" stop-color="#a31601"/><stop offset="0.72" stop-color="#b31301"/><stop offset="0.99" stop-color="#e82609"/><stop offset="1" stop-color="#e82609"/></linearGradient><linearGradient id="linear-gradient-10" x1="-235.42" y1="-309.14" x2="-235.48" y2="-309.13" gradientTransform="matrix(127.07, 0, 0, -97.41, 29932.23, -30086.95)" gradientUnits="userSpaceOnUse"><stop offset="0" stop-color="#8c0c01"/><stop offset="0.54" stop-color="#990c00"/><stop offset="0.99" stop-color="#a80d0e"/><stop offset="1" stop-color="#a80d0e"/></linearGradient><linearGradient id="linear-gradient-11" x1="-235.84" y1="-309.6" x2="-235.9" y2="-309.56" gradientTransform="matrix(94.01, 0, 0, -105.6, 22198.74, -32676.86)" gradientUnits="userSpaceOnUse"><stop offset="0" stop-color="#7e110b"/><stop offset="0.99" stop-color="#9e0c00"/><stop offset="1" stop-color="#9e0c00"/></linearGradient><linearGradient id="linear-gradient-12" x1="-235.85" y1="-311.24" x2="-235.89" y2="-311.2" gradientTransform="matrix(79.7, 0, 0, -81.79, 18827.4, -25447.91)" gradientUnits="userSpaceOnUse"><stop offset="0" stop-color="#79130d"/><stop offset="0.99" stop-color="#9e120b"/><stop offset="1" stop-color="#9e120b"/></linearGradient><radialGradient id="radial-gradient" cx="-235.88" cy="-312.54" r="0.08" gradientTransform="matrix(93.11, 0, 0, -48.66, 21986.07, -15193.61)" gradientUnits="userSpaceOnUse"><stop offset="0" stop-color="#a80d00"/><stop offset="0.99" stop-color="#7e0e08"/><stop offset="1" stop-color="#7e0e08"/></radialGradient><radialGradient id="radial-gradient-2" cx="-235.28" cy="-309.7" r="0.1" gradientTransform="matrix(97.43, 0, 0, -75.85, 22937.06, -23467.84)" gradientUnits="userSpaceOnUse"><stop offset="0" stop-color="#a30c00"/><stop offset="0.99" stop-color="#800e08"/><stop offset="1" stop-color="#800e08"/></radialGradient><linearGradient id="linear-gradient-13" x1="-231.24" y1="-309.44" x2="-231.3" y2="-309.34" gradientTransform="matrix(40.14, 0, 0, -81.14, 9287, -25078.59)" gradientUnits="userSpaceOnUse"><stop offset="0" stop-color="#8b2114"/><stop offset="0.43" stop-color="#9e100a"/><stop offset="0.99" stop-color="#b3100c"/><stop offset="1" stop-color="#b3100c"/></linearGradient><linearGradient id="linear-gradient-14" x1="-235.9" y1="-317.47" x2="-235.83" y2="-317.54" gradientTransform="matrix(78.1, 0, 0, -32.62, 18447.36, -10353.55)" gradientUnits="userSpaceOnUse"><stop offset="0" stop-color="#b31000"/><stop offset="0.44" stop-color="#910f08"/><stop offset="0.99" stop-color="#791c12"/><stop offset="1" stop-color="#791c12"/></linearGradient></defs><title>file_type_ruby@2x</title><g id="ruby"><path d="M23.69,20.47,7.71,30l20.7-1.4L30,7.68Z" style="fill:url(#linear-gradient)"/><path d="M28.44,28.54,26.66,16.26l-4.85,6.4Z" style="fill:url(#linear-gradient-2)"/><path d="M28.46,28.54l-13-1L7.78,29.93Z" style="fill:url(#linear-gradient-3)"/><path d="M7.79,29.94l3.26-10.67L3.89,20.8Z" style="fill:url(#linear-gradient-4)"/><path d="M21.81,22.7,18.82,11l-8.57,8Z" style="fill:url(#linear-gradient-5)"/><path d="M29.32,11.13l-8.1-6.62L19,11.8Z" style="fill:url(#linear-gradient-6)"/><path d="M25.53,2.15,20.76,4.78l-3-2.67Z" style="fill:url(#linear-gradient-7)"/><path d="M2,24.38l2-3.64L2.38,16.4Z" style="fill:url(#linear-gradient-8)"/><path d="M2.27,16.26,3.9,20.87,11,19.29,19,11.8,21.3,4.57,17.72,2,11.63,4.32C9.71,6.1,6,9.63,5.85,9.7s-2.46,4.46-3.57,6.56Z" style="fill:#fff"/><path d="M8,8C12.14,3.86,17.5,1.42,19.56,3.5s-.12,7.12-4.28,11.24S5.82,21.43,3.77,19.36,3.82,12.1,8,8Z" style="fill:url(#linear-gradient-9)"/><path d="M7.79,29.93,11,19.23l10.73,3.45c-3.88,3.64-8.19,6.71-14,7.25Z" style="fill:url(#linear-gradient-10)"/><path d="M19,11.77l2.75,10.91c3.24-3.41,6.15-7.07,7.57-11.6L19,11.77Z" style="fill:url(#linear-gradient-11)"/><path d="M29.34,11.14c1.1-3.33,1.36-8.1-3.84-9L21.23,4.51l8.11,6.63Z" style="fill:url(#linear-gradient-12)"/><path d="M2,24.33C2.15,29.82,6.11,29.9,7.8,30l-3.9-9.1L2,24.33Z" style="fill:#9e1209"/><path d="M19.05,11.79l7.61,4.66a17.55,17.55,0,0,0,2.62-5.34l-10.23.68Z" style="fill:url(#radial-gradient)"/><path d="M11,19.23l4.32,8.33a27.92,27.92,0,0,0,6.38-4.88L11,19.23Z" style="fill:url(#radial-gradient-2)"/><path d="M3.89,20.86l-.61,7.29C4.43,29.73,6,29.86,7.68,29.74c-1.21-3-3.61-9-3.8-8.88Z" style="fill:url(#linear-gradient-13)"/><path d="M21.21,4.53l8.58,1.2c-.46-1.94-1.86-3.19-4.26-3.58L21.21,4.53Z" style="fill:url(#linear-gradient-14)"/></g></svg>