<svg viewBox="0 0 240 240" xmlns="http://www.w3.org/2000/svg">
<g clip-path="url(#a)">
<path d="M20 20h200v200H20z" fill="#91EDE9"/>
<path d="M229 223H13v-43.5s19.18-15.8 28.5-16.5c11.84-.89 14.78 3.6 26.5 5.5 12.33 2 20.25-10.9 32.5-8.5 12.5 2.44 28.67 11.86 39 11.5 21.84-.76 20.55-4.87 38.5-1 7.63 1.65 15.77-14.42 28.5-12 6.45 1.22 22.5 2.5 22.5 2.5v62Z" fill="#48ACBA"/>
<path d="M222 223H10v-40s19.68-10.8 29-11.5c11.84-.89 14.28 7.93 26 9.84 12.33 2 16.75-10.24 29-7.84 12.5 2.44 22.67 14.36 33 14 21.84-.76 23.05-11.37 41-7.5 7.63 1.65 9.5 5.5 27.5 1.34S222 183 222 183v40Z" fill="#2B3C5A"/>
</g>
<path d="M127.02 42.49a17 17 0 1 0-14.04 0L112.55 55h-.05l-23.73 1.79a3 3 0 0 0-2.77 3v6.43a3 3 0 0 0 2.77 3L112 71l-1.1 41.77c-.34 12.61-2.4 28.07-14.71 30.77-1.37.3-2.77.46-4.19.46-7.39 0-15.91-9.1-21.37-18.42a62.7 62.7 0 0 1 6.64-2.44c1.3-.4 1.55-2.22.42-2.97-8.18-5.4-14.67-12.67-18.65-21.06-.55-1.16-2.2-1.24-2.75-.09a65.07 65.07 0 0 0-3.52 9 62.4 62.4 0 0 0-2.08 27.64l.1.6c.2 1.2 1.68 1.63 2.56.78a55.43 55.43 0 0 1 5.23-4.47C68.63 164.2 102.22 180 120 180c17.79 0 51.39-15.82 61.42-47.45a55.38 55.38 0 0 1 5.24 4.48c.87.85 2.37.42 2.56-.78l.05-.32.04-.27a62.57 62.57 0 0 0-2.07-27.63 65.21 65.21 0 0 0-3.5-9c-.54-1.15-2.2-1.06-2.74.1-3.97 8.38-10.43 15.64-18.57 21.04-1.13.75-.87 2.57.43 2.97a61.98 61.98 0 0 1 6.53 2.41c-5.46 9.34-14 18.45-21.39 18.45a19.4 19.4 0 0 1-4.18-.46c-12.33-2.7-14.38-18.16-14.72-30.77L128 71l23.23-1.79a3 3 0 0 0 2.77-2.99v-6.44a3 3 0 0 0-2.77-2.99L127.5 55h-.05l-.43-12.51ZM130 27a10 10 0 1 1-20 0 10 10 0 0 1 20 0Z" fill="#FF915C" stroke="#2B3C5A" stroke-width="8" paint-order="stroke"/>
<path d="M86 67.15a2 2 0 0 0 1.85 2L112 71l6.63-6.63a.8.8 0 0 0-.56-1.37H86v4.15ZM182.12 98.81a.9.9 0 0 1 1.57.1 65.26 65.26 0 0 1 3.55 9.12 62.57 62.57 0 0 1 1.98 28.22c-.2 1.2-1.69 1.63-2.57.78a56.69 56.69 0 0 0-11.09-8.36 1.55 1.55 0 0 1-.64-1.98c3.37-7.58 5.85-16.67 7.05-27.47a.94.94 0 0 1 .15-.4Z" fill="#8A380F"/>
<path d="m127 42 .5 13-5.82 5.43a1 1 0 0 1-1.68-.73V42h7Zm57 78c-4 40-44 60-64 60V64.5a1.5 1.5 0 0 1 1.5-1.5H154v3.29a3 3 0 0 1-2.7 2.98L128 71l1.1 41.77c.34 12.61 2.37 28.1 14.7 30.78a19 19 0 0 0 4.13.45 5 5 0 0 0-3.65 1.62c-4.87 5.8-10.4 11.64-18.57 14.28 21.5 1 51.1-13.63 56.29-60.9l2 21Z" fill="#8A380F"/>
<path d="M122 39.9c-1.1.11-2 1-2 2.1s.9 2.01 2 1.88a17 17 0 0 0 10.02-4.86A17 17 0 0 0 137 27.08a.08.08 0 0 0-.08-.08.08.08 0 0 0-.08.07C135.79 33.8 129.67 39.1 122 39.9Z" fill="#8A380F"/>
<clipPath id="a">
<rect x="20" y="20" width="200" height="200" rx="100"/>
</clipPath>
</svg>
