<svg xmlns="http://www.w3.org/2000/svg" viewBox="0 0 32 32"><title>file_type_style@2x</title><g id="style"><polygon points="5.9 27.2 3.66 2 28.34 2 26.09 27.2 15.98 30 5.9 27.2" style="fill:#1572b6"/><polygon points="16 27.86 24.17 25.59 26.09 4.06 16 4.06 16 27.86" style="fill:#33a9dc"/><path d="M7.35,14.71c2.25,0,2.57-.91,2.57-1.73a10.23,10.23,0,0,0-.26-2,10.24,10.24,0,0,1-.25-1.95C9.41,6.91,11.31,6,14,6h.67V7.29h-.57c-1.87,0-2.51.75-2.51,2A7.54,7.54,0,0,0,11.82,11,8.18,8.18,0,0,1,12,12.75c0,1.5-.86,2.25-2.29,2.53v0A2.4,2.4,0,0,1,12,17.88a8,8,0,0,1-.22,1.78,7.74,7.74,0,0,0-.22,1.69c0,1.31.73,2,2.51,2h.57v1.29H14c-2.63,0-4.6-.84-4.6-3.21a10,10,0,0,1,.25-1.92,9.56,9.56,0,0,0,.26-1.9c0-.73-.32-1.73-2.57-1.73Z" style="fill:#ebebeb"/><path d="M24.68,15.91c-2.25,0-2.57,1-2.57,1.73a9.75,9.75,0,0,0,.25,1.9,9.79,9.79,0,0,1,.26,1.92c0,2.36-2,3.21-4.6,3.21h-.67V23.38h.54c1.78,0,2.54-.73,2.54-2a10.53,10.53,0,0,0-.22-1.69,8,8,0,0,1-.25-1.78,2.45,2.45,0,0,1,2.29-2.55v0a2.44,2.44,0,0,1-2.29-2.53A8.19,8.19,0,0,1,20.2,11a10.27,10.27,0,0,0,.22-1.66c0-1.26-.67-2-2.51-2h-.57V6H18c2.7,0,4.63.91,4.63,3.07A10,10,0,0,1,22.36,11a10.43,10.43,0,0,0-.25,2c0,.82.32,1.73,2.57,1.73Z" style="fill:#fff"/></g></svg>