<svg xmlns="http://www.w3.org/2000/svg" viewBox="0 0 32 32"><circle cx="16" cy="16" r="15.36" fill="#130912"/><path fill="#fafafa" d="m20.695 21.698.205 1.027c.306.031.618.072.938.133a.36.36 0 1 1-.133.708 11 11 0 0 0-1.138-.151c-2.07-.157-3.504.422-4.88 1.156.926.193 1.714.433 2.481.67a16.4 16.4 0 0 0 4.092.853 1.14 1.14 0 0 0 .87-.339 1.56 1.56 0 0 0 .443-1.192 15 15 0 0 0-.413-3.053z"/><path fill="#ff694a" d="M11.694 10.62a.08.08 0 0 0-.02.068l.198 1.57a.564.564 0 0 0 .558.496h1.514a1.36 1.36 0 0 0 1.194-.593 1.004 1.004 0 0 1 1.723 0 1.36 1.36 0 0 0 1.194.593h1.515a.564.564 0 0 0 .558-.495l.2-1.572a.1.1 0 0 0-.022-.068.08.08 0 0 0-.065-.028h-2.892a1 1 0 0 0-.575.167 1.36 1.36 0 0 1-.774.193 1.35 1.35 0 0 1-.774-.195 1 1 0 0 0-.573-.165H11.76a.08.08 0 0 0-.065.028"/><path fill="#fafafa" d="M11.484 23.198c-.674.093-1.112.192-1.118.193a.4.4 0 0 1-.08.009.36.36 0 0 1-.08-.713c.017-.003.364-.082.925-.167l.169-.822-2.458-.188a15 15 0 0 0-.415 3.054 1.56 1.56 0 0 0 .441 1.19 1.15 1.15 0 0 0 .874.34c1.96-.124 3.35-.904 4.696-1.659l.047-.026a20 20 0 0 1 2.068-1.052c-1.75-.493-3.857-.325-5.07-.16m3.17-13.327a1.7 1.7 0 0 1 .982.292.67.67 0 0 0 .365.068.7.7 0 0 0 .367-.067 1.73 1.73 0 0 1 .982-.293h2.618a3.967 3.967 0 0 0-7.934 0z"/><path fill="#ff694a" d="m18.504 26.097-.549-.166a22 22 0 0 0-3.271-.807 19 19 0 0 1-1.93.973z"/><path fill="#fafafa" d="M18.582 15.128a2.16 2.16 0 0 0 .924-1.438l.037-.214h-1.488a2.08 2.08 0 0 1-1.814-.948.295.295 0 0 0-.481 0 2.08 2.08 0 0 1-1.816.948h-1.486l.036.214a2.16 2.16 0 0 0 .923 1.437q.146.1.307.214c.643.455 1.442 1.02 2.276 1.02s1.633-.565 2.276-1.02q.162-.115.306-.213m-4.316 1.426-.056.443c.5.753 1.132 1.167 1.79 1.167s1.29-.414 1.79-1.167l-.056-.443a3.57 3.57 0 0 1-1.734.528 3.57 3.57 0 0 1-1.734-.528"/><path fill="#ff694a" d="M20.056 20.335a.36.36 0 0 1 .424.283l.072.367 2.6-.198a1.8 1.8 0 0 0 .06-.46c0-1.724-3.339-2.612-4.88-2.856-.63.91-1.45 1.414-2.332 1.414-.883 0-1.702-.505-2.333-1.413-1.542.244-4.88 1.132-4.88 2.855a1.8 1.8 0 0 0 .061.46l1.334.102c.577.044.978.075 1.263.106l.076-.379a.36.36 0 0 1 .708.144l-.137.673v.01l-.203.978c1.541-.172 3.933-.247 5.744.56a8.4 8.4 0 0 1 2.521-.31l-.245-1.23-.136-.68a.36.36 0 0 1 .283-.426"/></svg>