<svg version="1.1" viewBox="0 0 32 32" xmlns="http://www.w3.org/2000/svg"><title>file_type_clangd</title><defs><radialGradient id="a" cx="0" cy="0" r="1" gradientTransform="matrix(-17.412 0 0 -14.519 26.336 101.373)" gradientUnits="userSpaceOnUse"><stop offset="0" stop-color="#f0f8a0"/><stop offset=".75" stop-color="#c1e0a4"/><stop offset="1" stop-color="#5aab7b"/></radialGradient><linearGradient id="b" x1="3.141" x2="12.391" y1="21.222" y2="5.986" gradientUnits="userSpaceOnUse"><stop offset="0" stop-color="#0f5499"/><stop offset="1" stop-color="#0ed6ff"/></linearGradient></defs><path fill="url(#a)" d="M16.3239 0h-5.4413C5.44129 0 0 2.72065 0 10.8826c0 8.1619 5.44129 10.9227 10.9405 10.9024l5.3834-.0198v-5.4413h-5.4413s-5.22584.0001-5.3325-5.3869c-.10881-5.4957 5.3325-5.4957 5.3325-5.4957h5.4413z" transform="translate(5.123 7.853)"/><path fill="#055f25" fill-rule="evenodd" d="M21.4657 7.415c.1103 0 .2044.0389709.2824.11677.0779.0778.1168.171896.1168.282288v5.441692c0 .11011-.0389.20421-.1169.28214-.0779.07795-.172.11692-.2823.11692h-5.4422c-.2043 0-.4649.02678-.7821.08035-.63831.10785-1.21964.29546-1.74401.56301-1.64779.84078-2.45051 2.32282-2.4082 4.44573.04123 2.0853.87089 3.5407 2.48905 4.3664.51369.262 1.07848.4459 1.69426.5513.3059.0522.5562.0785.751.0785h5.4422c.1103 0 .2044.0389.2824.1168.0779.0778.1168.1718.1168.2823v5.4417q0 .16485-.1164.2817c-.0776.0778-.1714.1169-.2813.1173l-5.3843.0198c-3.20175.0109-5.79864-.8142-7.79079-2.4755-2.36843-1.9756-3.55246422-4.9178-3.55211-8.8267 0-3.90291 1.18163-6.8393 3.54495-8.80922C10.26371 8.239473 12.84324 7.415 16.0235 7.415zm-.4005 17.1231v4.6449l-4.9863.0185c-3.00749.0108-5.43282-.7525-7.27601-2.2905-2.1769-1.8163-3.265183-4.5542-3.264829-8.2137 0-3.65425 1.085869-6.38628 3.257539-8.19605 1.83063-1.5255 4.2396-2.28819 7.2269-2.28819h5.0427v4.64355h-5.0427c-.2492 0-.5543.03047-.915.0914-.71826.12145-1.37606.33444-1.9736.63926-1.94436.99267-2.89213 2.71688-2.8433 5.17243.04753 2.4034 1.02223 4.0904 2.92401 5.0613.5863.2993 1.22713.5083 1.92229.6272.35.0599.6452.0899.8856.0899z"/><path fill="url(#b)" d="M15.6564.00001255c.2566 0 .5442.28762745.5442.54413145V21.2211c0 .2564-.2876.5441-.5442.5441H5.31798S.130312 21.7651.00213575 16.2651C-.123303 10.8826 5.31798 10.8826 5.31798 10.8826h5.44122V.544131C10.7592.287627 11.0469 0 11.3034 0v.00001255z" transform="translate(10.701 2.383)"/><path fill="#0d386b" fill-rule="evenodd" d="M21.9673 2h4.3535c.2384 0 .4552.0976422.6504.292784.1952.195142.2928.411967.2928.650476V23.6223c0 .2385-.0976.4554-.2928.6506-.1952.1951-.412.2927-.6504.2927H15.98154c-.23942 0-.53333-.0306-.8818-.0919-.69168-.1218-1.32952-.3355-1.91344-.6412-1.88978-.9896-2.8630401-2.7087-2.9199368-5.1573-.0561175-2.4106.8872518-4.1025 2.8301668-5.0758.59611-.2986 1.25279-.5072 1.97013-.626.36114-.0597.66611-.0897.91488-.0897h5.04256V2.94326c0-.238509.0976-.455334.2928-.650476C21.5121 2.0976422 21.7289 2 21.9673 2m.0004.798061c-.018 0-.0467.019698-.0861.058951-.0393.039396-.059.068165-.059.086154V13.6813h-5.84095c-.20513 0-.46659.0263-.78439.0789-.63807.1057-1.21924.2898-1.74345.5522-1.64148.8218-2.438066 2.2695-2.38967 4.3432.049529 2.1351.88033 3.6248 2.49248 4.4687.5111.2676 1.07159.455 1.68153.5622.30234.0532.55013.0798.7435.0798H26.3212c.0181-.0001.0468-.0197.0862-.0589.0393-.0392.0589-.068.0589-.0861V2.943166c0-.018138-.0196-.046898-.0589-.086154-.0394-.039253-.0681-.058951-.0862-.058951z"/></svg>