<svg viewBox="0 0 32 32" xmlns="http://www.w3.org/2000/svg" xmlns:xlink="http://www.w3.org/1999/xlink"><linearGradient id="a" gradientTransform="matrix(4 0 0 -4 2204 -974)" gradientUnits="userSpaceOnUse" x1="-547.975" x2="-547" y1="-244.974" y2="-244.974"><stop offset="0" stop-color="#eea831"/><stop offset="1" stop-color="#ffc929"/></linearGradient><linearGradient id="b" gradientTransform="matrix(4 0 0 -4 2204 -974)" gradientUnits="userSpaceOnUse" x1="-547" x2="-544.762" y1="-247.171" y2="-247.171"><stop offset="0" stop-color="#b32629"/><stop offset=".583" stop-color="#8c1e21"/><stop offset="1" stop-color="#7a1a1d"/></linearGradient><linearGradient id="c" gradientTransform="matrix(4 0 0 -4 2204 -974)" gradientUnits="userSpaceOnUse" x1="-547" x2="-546.025" y1="-244.974" y2="-244.974"><stop offset="0" stop-color="#e8a333"/><stop offset=".612" stop-color="#c68931"/><stop offset="1" stop-color="#ab762f"/></linearGradient><linearGradient id="d" x2="-543.5" xlink:href="#b" y1="-249.368" y2="-249.368"/><linearGradient id="e" gradientTransform="matrix(4 0 0 -4 2204 -974)" gradientUnits="userSpaceOnUse" x1="-550.5" x2="-547" y1="-249.368" y2="-249.368"><stop offset="0" stop-color="#ae2524"/><stop offset=".563" stop-color="#d01d19"/><stop offset="1" stop-color="#ed1913"/></linearGradient><linearGradient id="f" x1="-549.238" xlink:href="#e" y1="-247.171" y2="-247.171"/><path d="m16 9.792v-7.792l-3.903 5.77z" fill="url(#a)"/><path d="m16 12.097v7.806l8.952-4.667-3.904-5.769z" fill="url(#b)"/><path d="m16 9.792 3.903-2.022-3.903-5.77z" fill="url(#c)"/><path d="m26.097 16.947-10.097 5.261v7.792l14-7.283z" fill="url(#d)"/><path d="m2 22.717 14 7.283v-7.792l-10.097-5.261z" fill="url(#e)"/><path d="m10.952 9.467-3.904 5.769 8.952 4.667v-7.806z" fill="url(#f)"/></svg>