<svg xmlns="http://www.w3.org/2000/svg" viewBox="0 0 32 32"><title>file_type_mysql</title><path style="fill:#FFFFFF" d="M2.896,24.122c1.58,0.226,2.54,0,3.809-0.55c1.079-0.468,2.122-1.433,3.396-1.842	c1.872-0.601,3.924,0.001,5.925,0.121c0.487,0.029,0.971,0.03,1.449-0.022c0.745-0.458,0.73-2.172,1.455-2.329	c-0.021,2.404-1.007,3.845-2.038,5.239c2.172-0.384,3.472-1.64,4.351-3.318c0.266-0.509,0.494-1.056,0.695-1.63	c0.311,0.239,0.135,0.965,0.291,1.358c1.496-0.834,2.353-2.736,2.921-4.66c0.656-2.227,0.925-4.481,1.349-5.14	c0.413-0.643,1.056-1.04,1.643-1.451c0.667-0.468,1.262-0.956,1.365-1.848c-0.704-0.065-0.866-0.228-0.97-0.582	c-0.352,0.199-0.676,0.241-1.042,0.252c-0.317,0.01-0.666-0.005-1.092,0.039c-3.523,0.362-3.971,4.245-6.229,6.447	c-0.164,0.16-0.342,0.309-0.53,0.45c-0.791,0.589-1.761,1.011-2.653,1.352c-1.444,0.552-2.817,0.591-4.172,1.067	c-0.995,0.35-2.005,0.857-2.822,1.416c-0.204,0.14-0.397,0.283-0.574,0.428c-0.479,0.392-0.794,0.827-1.099,1.275	c-0.314,0.461-0.617,0.936-1.079,1.389c-0.749,0.735-3.546,0.214-4.531,0.896c-0.11,0.076-0.197,0.167-0.256,0.276	c0.537,0.244,0.896,0.094,1.514,0.163C4.052,23.503,2.695,23.852,2.896,24.122L2.896,24.122z M24.241,19.896	c0.042,0.673,0.433,2.008,0.778,2.333c-0.675,0.164-1.839-0.107-2.138-0.584C23.035,20.957,23.833,20.328,24.241,19.896z"/><path style="fill:#002B64" d="M29.385,6.704c-0.433,0.014-0.296,0.139-1.231,0.369C27.21,7.305,26.056,7.234,25.04,7.66	c-3.035,1.273-3.644,5.624-6.404,7.182c-2.063,1.165-4.143,1.258-6.014,1.844c-1.229,0.386-2.575,1.176-3.688,2.136	c-0.865,0.745-0.887,1.401-1.791,2.336c-0.966,1-3.841,0.017-5.143,1.547c0.42,0.424,0.604,0.543,1.431,0.433	c-0.171,0.324-1.18,0.598-0.983,1.075c0.208,0.502,2.648,0.843,4.866-0.496c1.033-0.624,1.856-1.523,3.465-1.737	c2.082-0.277,4.48,0.178,6.89,0.526c-0.357,1.066-1.075,1.774-1.65,2.623c-0.178,0.192,0.358,0.213,0.968,0.097	c1.099-0.272,1.891-0.49,2.72-0.973c1.019-0.593,1.173-2.114,2.423-2.443c0.697,1.071,2.591,1.323,3.766,0.467	c-1.031-0.292-1.317-2.487-0.968-3.455c0.33-0.916,0.656-2.381,0.988-3.591c0.357-1.3,0.488-2.939,0.92-3.601	c0.649-0.996,1.367-1.339,1.99-1.9C29.449,9.169,30.019,8.621,30,7.336C29.993,6.922,29.779,6.691,29.385,6.704z M25.019,22.229	c-0.675,0.164-1.839-0.107-2.138-0.584c0.154-0.688,0.952-1.317,1.36-1.749C24.283,20.569,24.674,21.904,25.019,22.229z	 M28.142,9.898c-0.587,0.411-1.23,0.808-1.643,1.451c-0.424,0.659-0.693,2.913-1.349,5.14c-0.568,1.924-1.425,3.826-2.921,4.66	c-0.156-0.393,0.02-1.119-0.291-1.358c-0.201,0.574-0.429,1.121-0.695,1.63c-0.879,1.678-2.179,2.934-4.351,3.318	c1.031-1.394,2.017-2.835,2.038-5.239c-0.725,0.157-0.71,1.871-1.455,2.329c-0.478,0.052-0.962,0.051-1.449,0.022	c-2.001-0.12-4.053-0.722-5.925-0.121c-1.274,0.409-2.317,1.374-3.396,1.842c-1.269,0.55-2.229,0.776-3.809,0.55	c-0.201-0.27,1.156-0.619,1.076-1.204c-0.618-0.069-0.977,0.081-1.514-0.163c0.059-0.109,0.146-0.2,0.256-0.276	c0.985-0.682,3.782-0.161,4.531-0.896c0.462-0.453,0.765-0.928,1.079-1.389c0.305-0.448,0.62-0.883,1.099-1.275	c0.177-0.145,0.37-0.288,0.574-0.428c0.817-0.559,1.827-1.066,2.822-1.416c1.355-0.476,2.728-0.515,4.172-1.067	c0.892-0.341,1.862-0.763,2.653-1.352c0.188-0.141,0.366-0.29,0.53-0.45c2.258-2.202,2.706-6.085,6.229-6.447	c0.426-0.044,0.775-0.029,1.092-0.039c0.366-0.011,0.69-0.053,1.042-0.252c0.104,0.354,0.266,0.517,0.97,0.582	C29.404,8.942,28.809,9.43,28.142,9.898z M25.231,9.216c0.499,0.433,1.545,0.085,1.358-0.776	C25.814,8.376,25.365,8.639,25.231,9.216z M28.708,8.209c-0.133,0.278-0.387,0.637-0.387,1.345	c-0.001,0.122-0.092,0.205-0.094,0.017c0.007-0.692,0.19-0.992,0.385-1.385C28.703,8.026,28.757,8.092,28.708,8.209z M28.574,8.104	c-0.156,0.266-0.533,0.75-0.596,1.455c-0.012,0.121-0.11,0.196-0.095,0.009c0.068-0.689,0.369-1.12,0.598-1.495	C28.585,7.921,28.634,7.992,28.574,8.104z M28.453,7.965c-0.178,0.251-0.758,0.833-0.88,1.531c-0.022,0.119-0.126,0.186-0.095,0.001	c0.126-0.681,0.625-1.216,0.885-1.57C28.478,7.784,28.521,7.859,28.453,7.965z M28.344,7.81c-0.212,0.224-0.903,0.965-1.121,1.639	c-0.039,0.115-0.151,0.167-0.095-0.012c0.22-0.656,0.825-1.364,1.132-1.677C28.395,7.634,28.427,7.714,28.344,7.81L28.344,7.81z"/></svg>