<svg viewBox="0 0 32 32" xmlns="http://www.w3.org/2000/svg"><circle cx="16" cy="16" fill="#447cd2" r="14"/><path d="m23.821 13.321a2.707 2.707 0 0 1 -1.714.536 2.9 2.9 0 0 1 -2.18-.9 4.143 4.143 0 0 1 -.807-2.938 3.877 3.877 0 0 1 .89-2.794 3 3 0 0 1 2.237-.842 2.858 2.858 0 0 1 1.682.506 2.271 2.271 0 0 1 .9 1.342l2.483-.493a14.083 14.083 0 0 0 -2.881-2.924 6.847 6.847 0 0 0 -2.033-.3 5.862 5.862 0 0 0 -4.2 1.453 5.5 5.5 0 0 0 -1.643 4.188 5.237 5.237 0 0 0 1.534 4.052 5.687 5.687 0 0 0 4.024 1.52 5.8 5.8 0 0 0 3.287-.827 4.739 4.739 0 0 0 1.881-2.617l-2.409-.7a3.125 3.125 0 0 1 -1.051 1.738z" fill="#fff"/></svg>