<svg xmlns="http://www.w3.org/2000/svg" viewBox="0 0 32 32"><mask id="a"><path fill="#fff" d="M39.29 0c.96 0 1.48 1.12.87 1.85L29.7 14.4a2.26 2.26 0 0 0 1.74 3.7h10.1c.96 0 1.48 1.13.87 1.86l-20.2 24.26c-.46.54-1.3.54-1.75 0L.27 19.95a1.13 1.13 0 0 1 .86-1.85h10.1a2.26 2.26 0 0 0 1.74-3.71L2.53 1.85A1.13 1.13 0 0 1 3.4 0z"/></mask><g mask="url(#a)" transform="translate(2.6 2)scale(.628)"><path fill="#f50" d="M0 0h43v45H0z"/><g filter="url(#b)"><ellipse cx="43.09" cy=".16" fill="#ffe7e5" rx="5.4" ry="23.58" transform="rotate(210.3 43.1 .16)"/></g><g filter="url(#b)"><ellipse cx="41.94" cy="23.13" fill="#ffe7e5" rx="5.4" ry="23.58" transform="rotate(210.3 41.94 23.13)"/></g><g filter="url(#b)"><ellipse cx=".67" cy=".67" fill="#ff19af" rx="3.72" ry="21.83" transform="rotate(-36.1 .67 .67)"/></g><g filter="url(#b)"><ellipse cx="6.42" cy="33.33" fill="#ff19af" rx="3.72" ry="21.83" transform="rotate(-36.1 6.42 33.33)"/></g><g filter="url(#b)"><ellipse cx="42.03" cy=".67" fill="#ff19af" rx="3.72" ry="21.83" transform="rotate(216.1 42.03 .67)"/></g><g filter="url(#b)"><ellipse cx="35.14" cy="33.33" fill="#ff19af" rx="3.72" ry="21.83" transform="rotate(216.1 35.14 33.33)"/></g><g filter="url(#b)"><ellipse cx="38.59" cy=".67" fill="#ff19af" rx="3.72" ry="21.83" transform="rotate(216.1 38.59 .67)"/></g><g filter="url(#b)"><ellipse cx="32.84" cy="33.33" fill="#ff19af" rx="3.72" ry="21.83" transform="rotate(216.1 32.84 33.33)"/></g><g filter="url(#b)"><ellipse cx="2.8" cy="2.25" fill="#d14b2a" rx="5.4" ry="23.58" transform="rotate(-41 2.8 2.25)"/></g><g filter="url(#b)"><ellipse cx="6.47" cy="27.73" fill="#d14b2a" rx="5.4" ry="23.58" transform="rotate(-35.9 6.47 27.73)"/></g></g><defs><filter id="b" width="4" height="4" x="-2" y="-2" color-interpolation-filters="sRGB"><feGaussianBlur stdDeviation="3.45"/></filter></defs></svg>