<svg viewBox="0 0 32 32" xmlns="http://www.w3.org/2000/svg" xmlns:xlink="http://www.w3.org/1999/xlink"><clipPath id="a"><path d="m23.62 8.25a.64.64 0 0 0 -.74-.51.61.61 0 0 0 -.34.17l-3.31 3.32-2.56-5a.63.63 0 0 0 -.85-.23.62.62 0 0 0 -.27.26l-1.42 2.74-3.58-6.67a.63.63 0 0 0 -.86-.25.62.62 0 0 0 -.32.46l-3.49 22.05 9.22 5.17a2 2 0 0 0 1.86 0l9.34-5.17z"/></clipPath><linearGradient id="b" gradientUnits="userSpaceOnUse" x1="9.89" x2="8.62" y1="17.04" y2="16.37"><stop offset="0" stop-color="#a52a22"/><stop offset=".4" stop-color="#a52a22" stop-opacity=".5"/><stop offset=".8" stop-color="#a52a22" stop-opacity="0"/></linearGradient><linearGradient id="c" gradientUnits="userSpaceOnUse" x1="15.29" x2="14.71" y1="15.2" y2="14.63"><stop offset="0" stop-color="#a52a22" stop-opacity=".8"/><stop offset=".5" stop-color="#a52a22" stop-opacity=".21"/><stop offset="1" stop-color="#a52a22" stop-opacity="0"/></linearGradient><linearGradient id="d" gradientUnits="userSpaceOnUse" x1="5.35" x2="26.63" y1="6.94" y2="28.21"><stop offset="0" stop-color="#fff" stop-opacity=".1"/><stop offset="1" stop-color="#fff" stop-opacity="0"/></linearGradient><g clip-path="url(#a)"><path d="m5.88 24.59 3.49-22a.64.64 0 0 1 .7-.55.62.62 0 0 1 .46.32l3.6 6.64 1.42-2.71a.63.63 0 0 1 .85-.29.57.57 0 0 1 .27.26l9.62 18.33z" fill="#f9a01b"/><path d="m17.7 2.16-16.87-1.43v30.54l5.05-6.68z" fill="url(#b)" opacity=".12"/><path d="m17.83 16-3.73-7-8.22 15.59z" fill="#f47d20"/><path d="m.83.73h30.56v30.54h-30.56z" fill="url(#c)" opacity=".2"/><path d="m26.29 24.59-2.67-16.34a.64.64 0 0 0 -.74-.51.61.61 0 0 0 -.34.17l-16.66 16.68 9.22 5.17a1.87 1.87 0 0 0 1.86 0z" fill="#ffcb2a"/><path d="m23.62 8.25a.64.64 0 0 0 -.74-.51.61.61 0 0 0 -.34.17l-3.31 3.32-2.56-5a.63.63 0 0 0 -.85-.23.62.62 0 0 0 -.27.26l-1.42 2.74-3.58-6.67a.63.63 0 0 0 -.86-.25.62.62 0 0 0 -.32.46l-3.49 22.05h.1l13.28-13.2 3.31-3.32a.64.64 0 0 1 .89-.07.12.12 0 0 0 .05.05.68.68 0 0 1 .17.35l2.63 16.2zm-17.74 16.31 3.49-21.86a.64.64 0 0 1 .74-.52.62.62 0 0 1 .44.31l3.57 6.65 1.42-2.71a.62.62 0 0 1 .85-.26.59.59 0 0 1 .28.26l2.54 4.85z" fill="#fff" fill-opacity=".2"/><path d="m17 29.6a1.89 1.89 0 0 1 -1.87 0l-9.13-5.15v.14l9.21 5.17a2 2 0 0 0 1.87 0l9.33-5.17v-.14z" fill="#a52a22" opacity=".2"/><path d="m23.62 8.25a.64.64 0 0 0 -.74-.51.61.61 0 0 0 -.34.17l-3.31 3.32-2.56-5a.63.63 0 0 0 -.85-.23.62.62 0 0 0 -.27.26l-1.42 2.74-3.58-6.67a.63.63 0 0 0 -.86-.25.62.62 0 0 0 -.32.46l-3.49 22.05 9.22 5.17a2 2 0 0 0 1.86 0l9.34-5.17z" fill="url(#d)"/></g><circle cx="23.75" cy="23.63" fill="#767676" r="6.37"/><path d="m23.75 20.45a3.19 3.19 0 1 0 3.18 3.18 3.18 3.18 0 0 0 -3.18-3.18zm-.32 5.71a2.55 2.55 0 0 1 -2.23-2.53 2.78 2.78 0 0 1 .07-.57l1.52 1.53v.32a.64.64 0 0 0 .64.64zm2.2-.83a.65.65 0 0 0 -.61-.44h-.32v-.89a.32.32 0 0 0 -.32-.32h-1.91v-.68h.64a.32.32 0 0 0 .32-.32v-.63h.64a.64.64 0 0 0 .63-.64v-.13a2.55 2.55 0 0 1 1.41 3.32 2.64 2.64 0 0 1 -.47.75z" fill="#fff" fill-rule="evenodd"/></svg>