<svg xmlns="http://www.w3.org/2000/svg" viewBox="0 0 32 32"><title>file_type_script@2x</title><g id="script"><path d="M10,2H25.54a4.19,4.19,0,0,1,2.55,1.09,6.31,6.31,0,0,1,1.82,3.78c0,.28.06.57.09.85v.49a.93.93,0,0,1-.41.65,1.59,1.59,0,0,1-.9.14H26.5q0,8.09,0,16.18a4.77,4.77,0,0,1-.71,2.52,4.84,4.84,0,0,1-2.51,2A5.81,5.81,0,0,1,22,30H7.23a5.38,5.38,0,0,1-3-1.07,6,6,0,0,1-2.13-3.6c-.07-.34-.1-.7-.14-1v-.55a1,1,0,0,1,.41-.6A1.48,1.48,0,0,1,3.26,23H5.5q0-8.09,0-16.19A4.78,4.78,0,0,1,7,3.33,4.86,4.86,0,0,1,10,2" style="fill:#333"/><path d="M7.46,5.7a6.09,6.09,0,0,0-.21,2.2q0,7.55,0,15.09H17a.87.87,0,0,1,.78.58,4,4,0,0,1,.07.76,4.56,4.56,0,0,0,1.38,3,3.55,3.55,0,0,0,2.41.87,3.06,3.06,0,0,0,3.12-3.06q0-9,0-18a2.6,2.6,0,0,1,0-.62,6.1,6.1,0,0,1,.76-1.86,3,3,0,0,1,.9-1H10.31A3.08,3.08,0,0,0,7.46,5.7Z" style="fill:gray"/><path d="M12.68,11.09a.93.93,0,0,1,.81-.34.87.87,0,0,1,.76,1c-.06.34-.36.55-.58.79-.85.85-1.72,1.69-2.57,2.55.87.89,1.77,1.75,2.65,2.63a1.39,1.39,0,0,1,.5.71.88.88,0,0,1-.62,1,.87.87,0,0,1-.84-.21c-1.18-1.15-2.34-2.33-3.52-3.48a.89.89,0,0,1-.05-1.26Z" style="fill:#333"/><path d="M17.75,11.57a.88.88,0,0,1,.77-.81.9.9,0,0,1,.73.25l3.46,3.43a.9.9,0,0,1,0,1.39l-3.35,3.32a1,1,0,0,1-.63.37.87.87,0,0,1-1-.64A.89.89,0,0,1,18,18c1-1,1.94-1.91,2.9-2.88-.95-1-1.91-1.89-2.86-2.83A.92.92,0,0,1,17.75,11.57Z" style="fill:#333"/></g></svg>