<svg viewBox="0 0 32 32" xmlns="http://www.w3.org/2000/svg" xmlns:xlink="http://www.w3.org/1999/xlink"><linearGradient id="a" gradientUnits="userSpaceOnUse" x1="16" x2="16" y1="2.752" y2="29.249"><stop offset="0" stop-color="#d8d8d8"/><stop offset="1" stop-color="#a3a3a3"/></linearGradient><linearGradient id="b" gradientTransform="matrix(.832 0 0 .837 -50.601 -159.449)" gradientUnits="userSpaceOnUse" x1="68.756" x2="91.638" y1="209.152" y2="209.152"><stop offset="0" stop-color="#d7d7d7"/><stop offset=".5" stop-color="#e7e7e7"/><stop offset="1" stop-color="#d7d7d7"/></linearGradient><rect fill="url(#a)" height="26.353" rx="3.088" width="28" x="2" y="2.824"/><path d="m26.856 29.181h-21.712a3.148 3.148 0 0 1 -3.144-3.144v-20.074a3.148 3.148 0 0 1 3.144-3.144h21.712a3.148 3.148 0 0 1 3.144 3.144v20.074a3.148 3.148 0 0 1 -3.144 3.144zm-21.712-26.218a3 3 0 0 0 -3 3v20.074a3 3 0 0 0 3 3h21.712a3 3 0 0 0 3-3v-20.074a3 3 0 0 0 -3-3z" fill="#8d8d8d"/><rect fill="url(#b)" height="21.94" rx="2.571" width="23.169" x="4.313" y="4.641"/><path d="m24.911 26.641h-18.027a2.634 2.634 0 0 1 -2.631-2.631v-16.798a2.634 2.634 0 0 1 2.631-2.631h18.027a2.634 2.634 0 0 1 2.631 2.631v16.8a2.634 2.634 0 0 1 -2.631 2.629zm-18.027-21.941a2.514 2.514 0 0 0 -2.511 2.512v16.8a2.514 2.514 0 0 0 2.511 2.511h18.027a2.514 2.514 0 0 0 2.511-2.511v-16.8a2.514 2.514 0 0 0 -2.511-2.512z" fill="#f8f8f8"/><path d="m6.145 23.9 2.343-6.1h.87l2.5 6.1h-.92l-.712-1.848h-2.553l-.673 1.848zm1.755-2.5h2.074l-.637-1.7q-.291-.77-.433-1.265a7.776 7.776 0 0 1 -.328 1.165z"/><path d="m13.607 23.9v-6.1h.807v2.5h3.171v-2.5h.807v6.1h-.807v-2.879h-3.17v2.879z"/><path d="m20.478 23.9v-6.1h.807v3.025l3.03-3.025h1.094l-2.559 2.467 2.672 3.633h-1.066l-2.172-3.088-1 .974v2.114z"/></svg>