<svg xmlns="http://www.w3.org/2000/svg" xmlns:xlink="http://www.w3.org/1999/xlink" viewBox="0 0 32 32"><defs><mask id="mask" x="2.23" y="2" width="27.54" height="28" maskUnits="userSpaceOnUse"><g id="mask-2"><path id="path-1" d="M29.77,2c-.36,7.37-1.44,14.18-4.31,20.59-2.2,4.92-7.24,7.48-12.93,6.76A12.35,12.35,0,0,1,2.54,20c-1.16-5.29,1-10.82,5.71-13.22C14.86,3.41,22.1,2.44,29.77,2" style="fill:#fff"/></g></mask></defs><title>file_type_compass@2x</title><g id="compass"><g style="mask:url(#mask)"><path d="M14.48,10.19s-.63,3.52-.89,5.3c-1.29-1-3.83-2.82-3.83-2.82s2,2.68,2.94,3.88c-1.79.2-5.38.76-5.38.76s3.67.59,5.38.79c-1,1.26-2.95,3.8-2.95,3.8s2.66-1.84,3.85-2.76c.24,1.71.87,5.34.87,5.34s.58-3.63.8-5.41l3.67,2.84s-1.74-2.6-2.69-3.83c1.73-.2,5.24-.79,5.24-.79s-3.54-.56-5.22-.76c.87-1.18,2.69-3.89,2.69-3.89s-2.55,2-3.69,2.89c-.21-1.76-.79-5.36-.79-5.36M29.77,2c-.36,7.37-1.44,14.18-4.31,20.59-2.2,4.92-7.24,7.48-12.93,6.76a12.35,12.35,0,0,1-10-9.32c-1.16-5.29,1-10.82,5.71-13.22C14.87,3.46,22.1,2.49,29.77,2" style="fill:#e21708"/><path d="M2.9,13.19a11.58,11.58,0,0,1,1.82-3.4c.3-.37.63-.74,1-1.12a10.55,10.55,0,0,1,1-.88c.34-.25.71-.49,1.11-.72l.38-.21a35.83,35.83,0,0,1,4.91-2.07A56.7,56.7,0,0,1,26.8,2.25l3-.2A80.81,80.81,0,0,0,12.2,7.79C7,10.07,2.52,15,2.28,16.45A17.75,17.75,0,0,1,2.9,13.19Z" style="fill:#fa524a;fill-opacity:0.300000011920929"/><path d="M12.67,29.9a11.82,11.82,0,0,1-1.56-.31,12.65,12.65,0,0,1-5.65-3.54,12.06,12.06,0,0,1-2.92-5.5,13.14,13.14,0,0,1-.31-2.87C2.29,26.3,12.35,27.63,15,27.63c4.27,0,4.22-.85,10.85-5.52q-.21.51-.43,1a11.44,11.44,0,0,1-8.12,6.57,13.53,13.53,0,0,1-2.93.32A14.86,14.86,0,0,1,12.67,29.9Z" style="fill:#ae0e10;fill-opacity:0.300000011920929"/></g></g></svg>