<svg viewBox="0 0 32 32" xmlns="http://www.w3.org/2000/svg"><path d="m6.534 13.451a9.827 9.827 0 0 1 4.566-5.951l-2.1-3.644a14.036 14.036 0 0 0 -6.522 8.5z"/><path d="m13.464 6.529a9.837 9.837 0 0 1 2.529-.329v-4.2a14.016 14.016 0 0 0 -3.617.472z"/><path d="m18.546 6.529a9.819 9.819 0 0 1 5.938 4.571l3.641-2.1a14.028 14.028 0 0 0 -8.482-6.522z"/><path d="m2.005 16a14.033 14.033 0 0 0 .472 3.617l4.057-1.088a9.77 9.77 0 0 1 -.328-2.537h-4.2z"/><path d="m3.878 23.006a14.036 14.036 0 0 0 2.217 2.9l2.969-2.969a9.969 9.969 0 0 1 -1.564-2.028z"/><path d="m9 28.127a13.9 13.9 0 0 0 6.985 1.873v-4.2a9.739 9.739 0 0 1 -4.885-1.313z"/><path d="m24.475 20.909a9.819 9.819 0 0 1 -5.946 4.553l1.088 4.057a14.028 14.028 0 0 0 8.491-6.514z"/><path d="m29.517 19.765a14.051 14.051 0 0 0 0-7.266l-4.065 1.088a9.809 9.809 0 0 1 0 5.09z"/></svg>