<svg xmlns="http://www.w3.org/2000/svg" xmlns:xlink="http://www.w3.org/1999/xlink" viewBox="0 0 32 32"><defs><filter height="1.335" y="-.168" width="1.337" x="-.168" id="d" color-interpolation-filters="sRGB"><feGaussianBlur stdDeviation=".63"/></filter><filter id="e" color-interpolation-filters="sRGB"><feGaussianBlur stdDeviation="1.275"/></filter><linearGradient y2="203.072" x2="97.325" y1="197.061" x1="94.473" gradientTransform="translate(-223.343 -63.977) scale(1.75753)" gradientUnits="userSpaceOnUse" id="f" xlink:href="#a"/><linearGradient id="a"><stop offset="0" stop-color="#8ae234"/><stop offset="1" stop-color="#4e9a06"/></linearGradient><linearGradient y2="252.588" x2="116.783" y1="198.703" x1="85.672" gradientTransform="translate(-223.343 -63.977) scale(1.75753)" gradientUnits="userSpaceOnUse" id="g" xlink:href="#a"/><linearGradient y2="370.314" x2="121.945" y1="313.233" x1="93.082" gradientTransform="matrix(1.66726 0 0 1.62815 -218.051 -225.052)" gradientUnits="userSpaceOnUse" id="h" xlink:href="#b"/><linearGradient id="b"><stop offset="0" stop-color="#fff" stop-opacity=".549"/><stop offset="1" stop-color="#fff" stop-opacity="0"/></linearGradient><radialGradient xlink:href="#c" id="i" gradientUnits="userSpaceOnUse" cx="55" cy="125" fx="55" fy="125" r="14.375"/><linearGradient id="c"><stop offset="0" stop-color="#fff"/><stop offset=".5" stop-color="#fff520" stop-opacity=".891"/><stop offset="1" stop-color="#fff300" stop-opacity="0"/></linearGradient></defs><g transform="matrix(.208 0 0 .208 19.367 -50.967)"><path transform="translate(-239.299 129.854) scale(1.75753)" d="M100.134 82.972h8.98v9.021h-8.98z" fill-rule="evenodd" stroke="#000" stroke-width="1.651" filter="url(#d)"/><path transform="translate(-239.299 129.854) scale(1.75753)" d="M95.888 87.412h62.115a5.405 5.405 0 0 1 5.417 5.417v43.72a5.405 5.405 0 0 1-5.417 5.417H95.888a5.405 5.405 0 0 1-5.417-5.417V92.83a5.405 5.405 0 0 1 5.417-5.417z" fill-rule="evenodd" stroke="#000" stroke-width="2.051" filter="url(#e)"/><path d="M-63.31 275.68h15.782v15.855h-15.781z" fill="url(#f)" fill-rule="evenodd" stroke="#366a04" stroke-width="2.902"/><path d="M-70.772 283.483H38.396a9.5 9.5 0 0 1 9.521 9.521v76.84a9.5 9.5 0 0 1-9.52 9.52h-109.17a9.5 9.5 0 0 1-9.52-9.52v-76.84a9.5 9.5 0 0 1 9.52-9.52z" fill="url(#g)" fill-rule="evenodd" stroke="#366a04" stroke-width="3.605"/><path d="M7.261 331.424c0 12.95-10.498 23.45-23.45 23.45-12.95 0-23.449-10.5-23.449-23.45s10.5-23.45 23.45-23.45 23.45 10.5 23.45 23.45z" fill="#fff" stroke="#366a04" stroke-width="3.605"/><path d="M-68.185 286.857H35.376c6.761 0 9.032 2.836 9.032 8.82v71.183c0 5.985-2.49 8.82-9.032 8.82h-103.56c-6.762 0-9.033-2.616-9.033-8.82v-71.183c0-6.643 2.93-8.82 9.032-8.82z" fill="none" stroke="url(#h)" stroke-width="3.38" stroke-linejoin="round"/><circle transform="translate(-76.383 64.435) scale(1.72247)" style="marker:none" cx="55" cy="125" r="14.375" color="#000" display="block" fill="url(#i)"/></g></svg>