<svg xmlns="http://www.w3.org/2000/svg" viewBox="0 0 32 32"><title>file_type_icl</title><path d="M12.123,9.783a7.161,7.161,0,0,1,5.966-.777A6.444,6.444,0,0,1,20,9.744c.165.108.262.01.37-.075a6.884,6.884,0,0,1,3.813-1.493,1.3,1.3,0,0,1,.891-.154,7.062,7.062,0,0,1,3.85,1.089,1.106,1.106,0,0,1,.47.487,2.171,2.171,0,0,1-.243,3.241c-.183.17-.225.273-.081.526a1.114,1.114,0,0,1-.208,1.281,5.713,5.713,0,0,1-2.937,1.71c-.453.149-.878.352-1.337.461-.252.061-.23.236-.19.425a11.919,11.919,0,0,1,.319,2.151,2.882,2.882,0,0,1-.72,2.03A4.757,4.757,0,0,1,22.124,22.8a15.681,15.681,0,0,1-3.652,1.1,11.228,11.228,0,0,1-2.591.048,34.406,34.406,0,0,1-5.053-.786,3.814,3.814,0,0,1-3.168-4.1,8.584,8.584,0,0,1,.366-2.405,1.9,1.9,0,0,1,.323-.708.635.635,0,0,1,.523-.188.589.589,0,0,0,.606-.373c.394-.722.748-1.466,1.1-2.211A33.1,33.1,0,0,0,12.025,9.9.21.21,0,0,1,12.123,9.783Zm0,0a3.418,3.418,0,0,1-.35,1.1c-.55,1.207-1.1,2.415-1.693,3.6a7.726,7.726,0,0,1-.638,1.181c-.124.166-.244.257-.441.216a.929.929,0,0,0-.594.1,5.74,5.74,0,0,1-1.215.039,6.14,6.14,0,0,1-3.613-.869A3.211,3.211,0,0,1,2,12.39a1.241,1.241,0,0,1,.128-.558A6.485,6.485,0,0,1,8.26,8.281a7.855,7.855,0,0,1,3.254.993A1.78,1.78,0,0,1,12.123,9.783Z" style="fill:#a6acb4"/><path d="M13.712,20.544a3.986,3.986,0,0,1,1.3-2.386,1.955,1.955,0,0,1,2.884.457A7.678,7.678,0,0,1,18.45,19.8a6.213,6.213,0,0,1-.036.818,2.664,2.664,0,0,1-3.388,1.715l-.051-.018A1.955,1.955,0,0,1,13.712,20.544Z" style="fill:#4b5b64"/><path d="M13.712,20.544a9.809,9.809,0,0,0,.453,1,2.161,2.161,0,0,0,2.84.544,2.522,2.522,0,0,0,1.3-1.446c.088-.139.052-.314.084-.469.016-.071.016-.157.125-.135a3.218,3.218,0,0,1,.279,1.773,1.291,1.291,0,0,1-.487.894,3.469,3.469,0,0,1-3.072.62,2.152,2.152,0,0,1-1.575-2.432C13.675,20.773,13.7,20.658,13.712,20.544Z" style="fill:#283037"/><path d="M10.579,20.273a1.376,1.376,0,0,1,.24-1.445.838.838,0,0,1,1.17-.265.856.856,0,0,1,.336.418,1.341,1.341,0,0,1-.58,1.659.763.763,0,0,1-1.074-.19A.783.783,0,0,1,10.579,20.273Zm9.543.035a1.085,1.085,0,0,0,1.055.469.872.872,0,0,0,.6-.775,1.013,1.013,0,0,0-.178-.732,2.7,2.7,0,0,0-.361-.395.825.825,0,0,0-.965-.09.743.743,0,0,0-.349.867,1.56,1.56,0,0,1,.019.192A1.2,1.2,0,0,0,20.122,20.308Z" style="fill:#0a090b"/><path d="M10.579,20.273c.357.387.645.485,1,.337a1.438,1.438,0,0,0,.771-1.284c0-.116-.015-.23-.024-.345a1.52,1.52,0,0,1-.288,2.1,1.366,1.366,0,0,1-.133.092.972.972,0,0,1-1.261-.574A1.04,1.04,0,0,1,10.579,20.273Zm10.213.883a.683.683,0,0,0,.862-.181A1.438,1.438,0,0,0,21.6,19.27a3.206,3.206,0,0,1,.081.5.906.906,0,0,1-.4.871c-.31.179-.584.007-.845-.167a1.689,1.689,0,0,1-.5-.626A1.562,1.562,0,0,0,20.792,21.156Z" style="fill:#8e949c"/><path d="M27.036,10.477c.023.045.069.091.064.131-.169,1.447-.4,2.469-1.991,3.088a7.063,7.063,0,0,1-1.162.367.8.8,0,0,1-.845-.294,3.284,3.284,0,0,1-.6-.983.624.624,0,0,1,.292-.554,7.741,7.741,0,0,1,2.792-1.467A4.9,4.9,0,0,1,27.036,10.477ZM6.2,14.256h0a2.551,2.551,0,0,0,.927.1l.032,0,.031,0a.737.737,0,0,1,.45.028c.131-.008.277-.007.41-.023.452-.052.967-.008,1.038-.67a.926.926,0,0,1,.074-.534.26.26,0,0,0,.084-.231c-.055-.164.062-.334-.016-.5A.6.6,0,0,0,8.8,12.3a6.761,6.761,0,0,0-3.632.821c-.359.353-.345.515.082.79a5.064,5.064,0,0,0,.581.277A.53.53,0,0,1,6.2,14.256Z" style="fill:#d48691"/><path d="M27.036,10.477a14.677,14.677,0,0,0-2.6.833A9.274,9.274,0,0,0,22.8,12.354c-.15.122-.177.3-.3.431-.594-1.06-.464-1.029.371-1.593A5.07,5.07,0,0,1,27.036,10.477ZM9.3,12.471c.277-.8.183-.948-.642-1a1.6,1.6,0,0,0-.3.005,5.891,5.891,0,0,0-3.189,1.65,2.134,2.134,0,0,0,.648-.216,7.4,7.4,0,0,1,3.41-.438C9.251,12.51,9.276,12.509,9.3,12.471Z" style="fill:#c95e66"/><path d="M11.32,19.008c.037-.158.077-.355.336-.334a.652.652,0,0,1,.466.662c-.022.211-.113.372-.35.368S11.3,19.347,11.32,19.008Zm9.428-.21a.372.372,0,0,0-.408.336.376.376,0,0,0,.33.416c.215.023.346-.124.4-.334A.385.385,0,0,0,20.748,18.8Z" style="fill:#fcfdfc"/></svg>