<svg viewBox="0 0 32 32" xmlns="http://www.w3.org/2000/svg"><path d="m16.54 12.663h2.86v2.924h1.446a6.272 6.272 0 0 0 1.988-.333 5.091 5.091 0 0 0 .966-.436 3.584 3.584 0 0 1 -.67-1.849 3.907 3.907 0 0 1 .7-2.753l.3-.348.358.288a4.558 4.558 0 0 1 1.795 2.892 4.375 4.375 0 0 1 3.319.309l.393.226-.207.4a4.141 4.141 0 0 1 -4.157 1.983c-2.48 6.168-7.871 9.088-14.409 9.088-3.378 0-6.476-1.263-8.241-4.259l-.029-.049-.252-.519a8.316 8.316 0 0 1 -.659-4.208l.04-.433h2.445v-2.923h2.861v-2.863h5.721v-2.858h3.432z" fill="#0096e6"/><g fill="#fff"><path d="m12.006 24.567a6.022 6.022 0 0 1 -3.14-3.089 10.329 10.329 0 0 1 -2.264.343q-.5.028-1.045.028-.632 0-1.331-.037a9.051 9.051 0 0 0 7 2.769q.392 0 .78-.014z"/><path d="m7.08 13.346h.2v2.067h-.2zm-.376 0h.2v2.067h-.204v-2.067zm-.376 0h.2v2.067h-.2zm-.376 0h.2v2.067h-.2zm-.376 0h.2v2.067h-.2zm-.368 0h.2v2.067h-.2zm-.208-.206h2.482v2.479h-2.482zm2.859-2.861h2.48v2.479h-2.476zm2.077.207h.2v2.066h-.2zm-.376 0h.2v2.066h-.2zm-.376 0h.2v2.066h-.2zm-.376 0h.2v2.066h-.2zm-.376 0h.2v2.066h-.2zm-.368 0h.2v2.066h-.2zm-.207 2.653h2.48v2.48h-2.474v-2.479zm2.077.207h.2v2.067h-.2zm-.376 0h.2v2.067h-.2zm-.376 0h.2v2.067h-.2zm-.376 0h.2v2.067h-.2zm-.376 0h.2v2.067h-.2zm-.368 0h.2v2.067h-.2zm2.654-.207h2.484v2.48h-2.48v-2.479zm2.076.207h.208v2.067h-.2zm-.376 0h.2v2.067h-.2zm-.376 0h.2v2.067h-.2zm-.376 0h.2v2.067h-.2zm-.376 0h.2v2.067h-.2zm-.368 0h.2v2.067h-.2zm-.206-3.067h2.486v2.479h-2.48v-2.479zm2.076.207h.21v2.066h-.2zm-.376 0h.2v2.066h-.2zm-.376 0h.2v2.066h-.2zm-.376 0h.2v2.066h-.2zm-.376 0h.2v2.066h-.2zm-.368 0h.2v2.066h-.2zm2.654 2.653h2.479v2.48h-2.48v-2.479zm2.076.207h.2v2.067h-.2zm-.376 0h.2v2.067h-.2zm-.376 0h.2v2.067h-.2zm-.376 0h.2v2.067h-.2zm-.376 0h.2v2.067h-.2zm-.368 0h.192v2.067h-.2v-2.067zm-.206-3.067h2.479v2.479h-2.48v-2.479zm2.076.207h.2v2.066h-.2zm-.376 0h.2v2.066h-.2zm-.376 0h.2v2.066h-.2zm-.376 0h.2v2.066h-.2zm-.376 0h.2v2.066h-.2zm-.368 0h.192v2.066h-.2v-2.066zm-.206-3.067h2.479v2.481h-2.48v-2.481zm2.076.206h.2v2.066h-.2zm-.376 0h.2v2.066h-.2zm-.376 0h.2v2.066h-.2zm-.376 0h.2v2.066h-.2zm-.376 0h.2v2.066h-.2zm-.368 0h.192v2.066h-.2v-2.066zm2.654 5.514h2.479v2.48h-2.48v-2.479zm2.076.207h.195v2.067h-.2v-2.067zm-.376 0h.206v2.067h-.206zm-.376 0h.2v2.067h-.2zm-.376 0h.2v2.067h-.2zm-.376 0h.2v2.067h-.205v-2.067zm-.368 0h.2v2.067h-.194v-2.067z"/><path d="m10.188 19.638a.684.684 0 1 1 -.684.684.684.684 0 0 1 .684-.684zm0 .194a.489.489 0 0 1 .177.033.2.2 0 1 0 .275.269.49.49 0 1 1 -.453-.3z"/></g></svg>