<svg xmlns="http://www.w3.org/2000/svg" viewBox="0 0 32 32"><title>file_type_openHAB</title><path d="M15.878,6.513c3.135,2.2,6.232,4.377,9.395,6.594-.547.788-1.057,1.512-1.586,2.281-.547-.362-1.048-.7-1.669-1.113a8.3,8.3,0,0,0-.093.825c0,1.447.019,2.9.028,4.35a.893.893,0,0,1-.065.195,10.15,10.15,0,0,1-2.782.13v-7.54c-1.094-.779-2.133-1.512-3.218-2.281-.584.408-1.169.807-1.744,1.206-.343.241-.668.51-1.02.723a.846.846,0,0,0-.436.8c.019,1.762-.046,3.524.019,5.286.083,2.328.881,3.561,3.274,4.2a9.841,9.841,0,0,0,1.363.269,15.693,15.693,0,0,0,4.47.009A5.857,5.857,0,0,0,27.026,17.2a12.776,12.776,0,0,0-1.094-7.5,7.864,7.864,0,0,0-4.146-3.923,12.528,12.528,0,0,0-4.832-.909,19.737,19.737,0,0,0-5.323.519A8.213,8.213,0,0,0,5.306,12.1a18.077,18.077,0,0,0-.454,3.663A12.5,12.5,0,0,0,6.66,23.012a8.467,8.467,0,0,0,4.312,3.274,13.209,13.209,0,0,0,4.721.816c.482,0,.974.083,1.5.13v2.754c-.5,0-.965.037-1.41-.009a35.256,35.256,0,0,1-3.71-.473,11.929,11.929,0,0,1-7.966-5.258,12.818,12.818,0,0,1-1.9-5.527,20.334,20.334,0,0,1-.185-2.81A15.95,15.95,0,0,1,4.174,7.4a10.978,10.978,0,0,1,6.51-4.693,20.959,20.959,0,0,1,4.609-.677,17.837,17.837,0,0,1,6.306.677,10.866,10.866,0,0,1,6.714,5.453,15.734,15.734,0,0,1,1.642,6.64,11.528,11.528,0,0,1-.584,4.6,8.482,8.482,0,0,1-5.731,5.481,15.9,15.9,0,0,1-5.88.39,11.856,11.856,0,0,1-3.9-.9,6.055,6.055,0,0,1-3.849-5.147c-.121-1.039-.074-2.1-.111-3.144-.019-.584-.074-1.159-.121-1.846l-1.688,1.15c-.538-.742-1.057-1.475-1.632-2.272C9.6,10.909,12.707,8.73,15.878,6.513Z" style="fill:#f60"/><path d="M24.29,27.222h1.53v2.7H24.29Z" style="fill:#f60"/><path d="M21.443,27.232h1.5v2.634h-1.5Z" style="fill:#f60"/><path d="M18.568,27.194H20a7.34,7.34,0,0,1,.019,2.662H18.568Z" style="fill:#f60"/></svg>