<svg xmlns="http://www.w3.org/2000/svg" viewBox="0 0 32 32"><g style="fill:#d2d2d2" transform="translate(-4.2 -4.2)scale(.0374)"><path d="M863.96 361.73v-15.12l-13.53-7.56-1-.53-296.56-165.61-12.9-7.19-12.84 7.19-296.6 165.61-1.01.53-13.53 7.56v15.12l-1.01.58 1.01.53v373.94l13.74 7.51 288.89 158.27 3.65 2.01 17.76 9.73 17.71-9.73 3.65-2.01 288.89-158.27 13.69-7.51V362.89l1.06-.58zM553.55 876.76V609.75c0-7.28-5.95-13.22-13.23-13.21h-.34a13.25 13.25 0 0 0-13.23 13.22v267.01l-271.9-148.83-12.43-6.81V375.15l216.49 118.61a13.06 13.06 0 0 0 17.63-5.11l.15-.28a13.1 13.1 0 0 0-5.15-17.77L257.85 353.53l268.93-150.21 13.19-7.37 13.24 7.39 268.88 150.18L608.24 470.7c-6.29 3.45-8.26 11.32-4.77 17.58l.18.32c3.43 6.21 11.06 8.67 17.28 5.27l216.6-118.71v345.98l-12.4 6.8z"/><path d="M540.11 451.16h.13c7.1.01 12.97-5.44 12.97-12.54V203.35l-13.24-7.39-13.19 7.37v235.31c0 7.1 5.87 12.57 12.97 12.53zM460.7 557.95l-218.28 146.5v16.68l12.43 6.81L475.4 579.92a12.47 12.47 0 0 0 3.41-17.14l-.46-.74c-3.79-6.1-11.7-8.09-17.65-4.09m144.08 22.09 220.35 147.89 12.4-6.8v-16.72L619.48 558.07c-5.96-4-13.87-2.02-17.67 4.07l-.44.7a12.5 12.5 0 0 0 3.41 17.2"/><path d="m744.84 340.83-207.13-116.1a13.22 13.22 0 0 1 12.92-23.06l207.13 116.1a13.22 13.22 0 0 1-12.92 23.06m-90.77 8.96-116.36-65.22a13.22 13.22 0 0 1 12.92-23.06l116.36 65.22a13.22 13.22 0 0 1-12.92 23.06m38.12 21.37a13.22 13.22 0 1 1 12.93-23.06 13.22 13.22 0 0 1-12.93 23.06m-115.54-2.9-38.64-21.66a13.22 13.22 0 0 1 12.92-23.06l38.64 21.66a13.22 13.22 0 0 1-12.92 23.06m58.31 35.6-22.37-12.54a13.22 13.22 0 0 1 12.92-23.06l22.37 12.54a13.22 13.22 0 0 1-12.92 23.06"/><circle cx="540.11" cy="523.85" r="38.35"/></g></svg>