<svg xmlns="http://www.w3.org/2000/svg" viewBox="0 0 32 32"><title>file_type_pony</title><path style="fill:#2B1100" d="M28.678,9.877H16H3.322c0,0.73-0.592,1.322-1.322,1.322V16v4.801c0.73,0,1.322,0.592,1.322,1.322H16h12.678	c0-0.73,0.592-1.322,1.322-1.322V16v-4.801C29.27,11.199,28.678,10.607,28.678,9.877z"/><path style="fill:#FFFFFF" d="M28.211,21.579H3.79l-0.064-0.154c-0.19-0.463-0.565-0.837-1.028-1.028l-0.154-0.064v-8.667l0.154-0.064	c0.463-0.19,0.837-0.565,1.028-1.028L3.79,10.42h24.421l0.064,0.154c0.19,0.463,0.565,0.837,1.028,1.028l0.154,0.064v8.667	l-0.154,0.064c-0.463,0.19-0.837,0.565-1.028,1.028L28.211,21.579z M4.118,21.08h23.766c0.231-0.463,0.611-0.844,1.074-1.074v-8.012	c-0.463-0.231-0.843-0.611-1.074-1.074H4.118c-0.231,0.463-0.611,0.843-1.074,1.074v8.012C3.506,20.237,3.887,20.617,4.118,21.08z" /><path style="fill:#F4E3D7" d="M3.957,10.67c-0.216,0.525-0.638,0.947-1.163,1.163v4.166v4.166c0.525,0.216,0.947,0.638,1.163,1.163H16	h12.043c0.216-0.525,0.638-0.947,1.163-1.163v-4.166v-4.166c-0.525-0.216-0.947-0.638-1.163-1.163H16H3.957z"/><path style="fill:#2B1100" d="M10.044,13.197l-0.037,2.147c-0.017,0.965-0.591,1.485-1.722,1.56c-0.025,0.008-0.179,0.033-0.462,0.075	s-0.445,0.062-0.487,0.062l0.075,1.073l0.786,0.062l-0.075,2.097l-2.896,0.125l-0.037-2.059L5.9,18.351l0.05-4.443l-0.724-0.013	l-0.1-2.209l2.047-0.162c0.241-0.017,0.47-0.025,0.686-0.025c0.766,0,1.323,0.133,1.672,0.399	C9.891,12.165,10.061,12.598,10.044,13.197 M8.384,14.408c0.017-0.366-0.116-0.549-0.399-0.549c-0.067,0-0.15,0.008-0.25,0.025	l-0.399,0.05l0.075,1.972h0.325c0.399,0,0.607-0.245,0.624-0.736L8.384,14.408 M14.739,18.065c0,0.716-0.141,1.236-0.424,1.56	c-0.316,0.366-0.865,0.57-1.648,0.612c-0.915,0.05-1.531-0.096-1.847-0.437c-0.275-0.291-0.416-0.845-0.424-1.66l-0.062-4.406	c-0.008-0.766,0.158-1.323,0.499-1.673c0.341-0.358,0.911-0.524,1.71-0.499c0.907,0.025,1.514,0.245,1.822,0.661	c0.241,0.333,0.362,0.915,0.362,1.747L14.739,18.065 M13.229,14.857c0.008-0.316-0.046-0.553-0.162-0.711	c-0.108-0.158-0.283-0.229-0.524-0.212c-0.316,0.025-0.52,0.096-0.612,0.212c-0.092,0.108-0.141,0.329-0.15,0.661l-0.05,2.072	c-0.008,0.291,0.067,0.499,0.225,0.624c0.116,0.091,0.312,0.154,0.587,0.187c0.416,0.042,0.628-0.225,0.637-0.799L13.229,14.857	 M21.303,11.737l-0.1,2.234l-0.612-0.075l-0.087,5.866l-1.672,0.125l-1.822-6.403v4.368l0.624,0.037l-0.112,2.509h-2.334l-0.1-2.197	l0.736-0.012l-0.037-4.294L15.3,13.833l-0.112-2.309l2.521,0.087l1.66,5.979l0.087-3.607l-0.599-0.087l-0.05-1.947L21.303,11.737	 M26.703,11.525l-0.162,2.309l-0.487,0.062l-1.298,2.471l-0.037,1.598l0.649,0.025l-0.212,2.346l-2.546,0.162l-0.1-2.197	l0.774-0.062l0.062-1.91l-1.223-2.172l-0.487,0.062l-0.1-2.371l2.396-0.05l0.087,1.935L23.52,13.77l0.699,1.81l0.599-1.747h-0.449	v-2.359L26.703,11.525"/></svg>