<svg viewBox="0 0 32 32" xmlns="http://www.w3.org/2000/svg"><path d="m26.357 22.819c.005-.014.008-.028.013-.042.09-.25.17-.504.241-.763.018-.067.036-.135.053-.203.057-.225.11-.45.152-.68.026-.14.045-.28.065-.42.024-.17.052-.339.068-.512.032-.33.051-.661.051-.992 0-.362-.025-.722-.063-1.082-.015-.15-.038-.298-.06-.447-.028-.187-.061-.373-.099-.559-.04-.197-.081-.394-.131-.587-.021-.083-.05-.165-.073-.247-.617-2.139-1.874-4.014-3.574-5.394v-6.665c0-.099-.046-.193-.125-.255-1.04-.819-2.197-1.422-3.424-1.822-.005-.002-.007-.008-.013-.009-.052-.017-.105-.031-.157-.047-.095-.029-.186-.067-.282-.093v.009.673 11.36c0 1.623-1.345 2.944-3 2.944s-3-1.32-3-2.944v-11.361-.673-.008c-.097.027-.19.065-.285.095-.051.016-.102.029-.152.046-.005.002-.007.007-.012.009-1.227.399-2.385 1.002-3.425 1.821-.079.062-.125.156-.125.255v6.665c-2.441 1.981-4 4.972-4 8.315 0 5.293 3.906 9.699 9.035 10.612.001 0 .001.001.002.001.021.004.041.005.062.008.3.052.601.096.909.123.337.033.666.05.991.05.395 0 .785-.023 1.17-.063.102-.011.202-.032.303-.045.283-.037.565-.078.841-.137.12-.026.237-.061.358-.09.252-.062.501-.126.745-.204.132-.042.26-.093.39-.14.224-.082.446-.166.664-.261.138-.06.272-.127.408-.193.202-.098.4-.2.594-.31.138-.078.272-.159.407-.243.185-.116.367-.237.544-.363.128-.091.257-.183.381-.28.179-.139.352-.286.522-.436.11-.097.222-.191.328-.293.192-.182.372-.375.549-.57.061-.068.129-.128.19-.197.003-.004.002-.009.005-.013.843-.978 1.504-2.107 1.952-3.337.004-.003.006-.004.007-.006zm-.068-2.708c-.012.133-.031.266-.048.398-.019.147-.043.292-.068.437-.033.181-.067.363-.11.543-.012.052-.028.102-.04.153-.056.219-.116.438-.188.655-1.289-.486-2.166-1.715-2.166-3.089s.876-2.603 2.166-3.09c.138.418.239.841.321 1.266.031.165.06.33.083.497.017.126.034.253.046.379.03.313.052.627.052.947-.002.305-.022.606-.048.904zm-16.621-15.727c.822-.628 1.72-1.116 2.667-1.47v11.129c0 1.984 1.645 3.598 3.667 3.598s3.667-1.614 3.667-3.598v-11.128c.947.354 1.845.842 2.667 1.47v9.499c0 3.427-2.841 6.215-6.334 6.215s-6.334-2.788-6.334-6.215zm-3.998 14.823c0-2.942 1.286-5.594 3.333-7.448v2.125c0 3.787 3.14 6.869 7 6.869s7-3.082 7-6.87v-2.124c1.139 1.032 2.032 2.316 2.609 3.756-1.549.58-2.609 2.043-2.609 3.691 0 1.65 1.062 3.114 2.613 3.693-.369.922-.87 1.776-1.484 2.544-1.126-1.283-2.726-2.018-4.464-2.018-3.216 0-5.836 2.533-5.91 5.673-4.621-1.008-8.088-5.056-8.088-9.891zm17.873 6.91c-.148.155-.3.306-.456.451-.103.096-.209.19-.316.282-.155.132-.314.259-.476.381-.116.088-.232.175-.352.258-.167.116-.339.223-.513.329-.121.074-.242.15-.367.219-.185.103-.376.195-.567.286-.121.058-.239.119-.363.172-.209.09-.423.166-.637.242-.113.04-.224.086-.339.122-.234.074-.475.133-.714.19-.103.025-.203.056-.306.077-.26.054-.524.09-.789.124-.09.012-.177.031-.268.04-.324.033-.651.048-.98.051-.034 0-.065.005-.099.005-.298 0-.591-.02-.883-.044-.18-.016-.364-.039-.549-.065-.05-.007-.101-.015-.151-.023.009-2.832 2.361-5.134 5.249-5.134 1.577 0 3.031.677 4.034 1.864-.052.059-.104.116-.158.173z"/><path d="m10.337 21.096c-.983 0-1.783.785-1.783 1.75s.8 1.749 1.783 1.749 1.783-.784 1.783-1.749-.8-1.75-1.783-1.75zm0 2.845c-.617 0-1.116-.49-1.117-1.095.001-.605.5-1.095 1.117-1.096.617.001 1.116.491 1.117 1.096-.001.605-.501 1.094-1.117 1.095z"/></svg>