<?xml version="1.0" encoding="utf-8"?><svg xmlns="http://www.w3.org/2000/svg" viewBox="0 0 32 32"><title>file_type_bitbucket_pipeline</title><linearGradient id="SVGID_1_" gradientUnits="userSpaceOnUse" x1="-365.3936" y1="-356.7791" x2="-366.4789" y2="-355.9316" gradientTransform="matrix(12.8205 0 0 12.8205 4715.2515 4588.2744)"><stop offset="0.18" style="stop-color:#0052CC"/><stop offset="1" style="stop-color:#2684FF"/></linearGradient><path fill="#2684FF" d="M2.909,3.41C2.414,3.404,2.007,3.8,2,4.295C1.999,4.347,2.003,4.399,2.012,4.45L5.82,27.568	c0.098,0.584,0.601,1.013,1.193,1.018h18.269c0.444,0.006,0.826-0.315,0.897-0.754l3.808-23.378	c0.082-0.489-0.248-0.951-0.737-1.033c-0.049-0.008-0.098-0.012-0.147-0.012L2.909,3.41L2.909,3.41z M18.944,20.119h-5.831	l-1.579-8.244h8.823L18.944,20.119z"/><path fill="url(#SVGID_1_)" d="M28.776,11.874h-8.419l-1.413,8.244h-5.831l-6.885,8.177c0.218,0.189,0.496,0.294,0.785,0.296h18.274	c0.444,0.006,0.826-0.315,0.897-0.754L28.776,11.874z"/></svg>