<svg viewBox="0 0 32 32" xmlns="http://www.w3.org/2000/svg"><path d="m4.232 19.36 2.328.64a10.28 10.28 0 0 1 9.452-14.271h.19l1.377-1.876-1.116-1.853h-.451a14.021 14.021 0 0 0 -13.062 19.094z" fill="#5ecae6"/><path d="m18.387 3.971-1.425 1.829a10.267 10.267 0 0 1 9.286 10.212 10.143 10.143 0 0 1 -.594 3.42l1.116 2.161 2.137-.166a14.127 14.127 0 0 0 1.093-5.415 13.985 13.985 0 0 0 -12.753-13.941z" fill="#a5ddef"/><path d="m26.343 22.258-1-2.042a10.259 10.259 0 0 1 -18.429.546l-2.47-.617-1.209 1.638a14.007 14.007 0 0 0 25.364.309z" fill="#7fd2ed"/><path d="m12.165 9.932-3.753 3.847.95 1.924 6.531 7.98 6.531-8.17.95-1.734-3.752-3.847z" fill="#ef4561"/><path d="m8.412 13.898 2.351.475" fill="none"/><path d="m22.424 15.537-2.327.689.926-1.853 2.351-.475z" fill="#ef4d6e"/><path d="m14.967 16.582-.95-2.375h3.752l-.95 2.375z" fill="#ef4561"/><path d="m18.696 16.107-.927-1.9h3.254l-.926 1.9z" fill="#ef4561"/><path d="m13.091 16.226.926-1.853.95 2.328z" fill="#ef4d6e"/><path d="m16.819 16.701.95-2.328.927 1.853z" fill="#ef4d6e"/><path d="m21.023 14.254-1.853-4.322h.452l3.752 3.776z" fill="#ef4561"/><path d="m17.769 14.207.452-4.275h.949l1.853 4.275z" fill="#ef4d6e"/><path d="m9.362 15.774 2.328.452-.927-1.853-2.351-.475z" fill="#ef4d6e"/><path d="m13.091 16.107.926-1.9h-3.254l.927 1.9z" fill="#ef4561"/><path d="m10.763 14.254 1.853-4.322h-.451l-3.753 3.776z" fill="#ef4561"/><path d="m14.017 14.207-.451-4.275h-.95l-1.853 4.275z" fill="#ef4d6e"/><path d="m14.017 14.136 1.876-4.204h-2.327z" fill="#ef4561"/><path d="m17.769 14.136.452-4.204h-2.328z" fill="#ef4561"/><path d="m17.769 14.207-1.876-4.204-1.876 4.204z" fill="#ef4d6e"/><path d="m11.69 16.107 4.203 7.457-2.802-7.457z" fill="#ef4d6e"/><g fill="#ef4561"><path d="m9.362 15.774 2.328.452 4.203 7.481z"/><path d="m13.091 16.226 1.876.475.926 7.006z"/><path d="m18.696 16.226-2.803 7.481.926-7.006z"/></g><path d="m20.097 16.107-4.204 7.457 2.803-7.457z" fill="#ef4d6e"/><path d="m22.424 15.537-2.327.689-4.204 7.481z" fill="#ef4561"/><path d="m15.893 23.588-.926-7.006h1.852z" fill="#ef4d6e"/></svg>