<svg viewBox="0 0 32 32" xmlns="http://www.w3.org/2000/svg"><path d="m20.81 4.58c-1.24.78-3 2-5.37 3.51a60 60 0 0 0 -5.83 4.18c-.81.84-1.45 3-2.94 4.82a23.7 23.7 0 0 1 -3.2 3.29 9.75 9.75 0 0 0 3.2-1.23 12.56 12.56 0 0 0 3.33-2.8 17.63 17.63 0 0 1 1.35-1.86c1.18-1.12 5.31-2.8 7.83-3.6s3.1-.31 5.6-.78a9.72 9.72 0 0 0 3.37-1l1.85-5.71-9.19 3.39z" fill="#e24329"/><path d="m30 10.55-3.51 6.12h-2.8l-7.69-1.55v-1l3.57-2.12 2.62-.42zm-17.12 6.18-.31 3.09-1.63.48-1.71-.57z" fill="#fc6d26"/><path d="m3.47 21a2.34 2.34 0 0 0 -.28 1c0 .45-1.19.7-1.19 2.11a3.65 3.65 0 0 0 1.87 2.9l2.47 1.59a3.53 3.53 0 0 1 -.34-1.73 1.5 1.5 0 0 1 .79-1.35c.67-.53 6.77-1.59 8.59-1.33a5.92 5.92 0 0 1 3.37 1.87l8.25-6.06-2.13-1.94h-1.4l-1.94-.93h-5.61l-2.36 4.93q-4.72-.23-5.67-.34c-.64-.08-2.1-.29-4.42-.72z" fill="#fca326"/></svg>