<svg viewBox="0 0 32 32" xmlns="http://www.w3.org/2000/svg"><path d="m21.243 6.619c-.16-1.973-6.613-7.254-12.267-1.919s-6.134 2.826-6.667 2.933.531 1.261 2.027 1.067c3.68-.48 6.134-5.067 9.547-5.014a6.8 6.8 0 0 1 5.28 3.04z" fill="#aa56ff"/><path d="m4 8.891a2.075 2.075 0 0 1 -1.995-1.054.314.314 0 0 1 .271-.371.6.6 0 0 1 .459.174c.528.383 1.626 1.18 6.125-3.064a7.674 7.674 0 0 1 8.368-1.816c2.356.905 4.1 2.753 4.185 3.846l.014.174-2.355.12-.053-.085a6.681 6.681 0 0 0 -5.139-2.96c-1.7-.028-3.157 1.142-4.7 2.379-1.47 1.177-2.989 2.394-4.82 2.633a2.781 2.781 0 0 1 -.36.024zm-1.656-1.091a.637.637 0 0 0 .184.236 2.3 2.3 0 0 0 1.786.5c1.737-.236 3.219-1.418 4.652-2.566 1.594-1.277 3.1-2.483 4.919-2.454a6.985 6.985 0 0 1 5.365 3.035l1.793-.092c-.236-.92-1.731-2.536-3.938-3.384a7.35 7.35 0 0 0 -8.013 1.747c-4.703 4.438-5.955 3.529-6.557 3.092a.719.719 0 0 0 -.191-.114z"/><path d="m13.877 3.161a6.765 6.765 0 0 0 -4.768 2.209 17.2 17.2 0 0 1 -3.333 2.764v.166c2.924-1.243 5.158-4.66 8.107-4.614a6.8 6.8 0 0 1 5.279 3.04l.8-.04a7.154 7.154 0 0 0 -6.085-3.525z" fill-opacity=".313725"/><path d="m28.871 15.046c0 4.828-5.238 13.708-8.747 13.708-3.608 0-8.747-8.879-8.747-13.708a8.747 8.747 0 1 1 17.494 0z" fill="#aa56ff"/><path d="m20.123 28.923c-1.7 0-3.9-1.915-5.871-5.124-1.85-3.009-3.046-6.445-3.046-8.753a8.917 8.917 0 1 1 17.833 0c0 2.293-1.21 5.729-3.083 8.754-1.985 3.208-4.166 5.123-5.833 5.123zm0-22.455a8.588 8.588 0 0 0 -8.578 8.578c0 2.25 1.176 5.616 3 8.576 1.91 3.107 4 4.962 5.582 4.962 1.525 0 3.65-1.9 5.546-4.963 1.842-2.975 3.032-6.341 3.032-8.575a8.587 8.587 0 0 0 -8.582-8.577z"/><path d="m28.753 13.618c.021.247.032.5.032.749 0 4.828-5.236 13.71-8.745 13.71-3.291 0-7.857-7.386-8.634-12.349.433 4.935 5.275 13.027 8.719 13.027 3.51 0 8.745-8.881 8.745-13.71a8.786 8.786 0 0 0 -.117-1.427z" fill-opacity=".313725"/><path d="m26.2 21.958a4.027 4.027 0 1 0 -4.427-4.006 4.087 4.087 0 0 0 .026.463" fill="#aa56ff"/><path d="m26.2 22.128a.169.169 0 0 1 -.016-.338 3.857 3.857 0 1 0 -4.241-3.837 3.907 3.907 0 0 0 .025.444.169.169 0 1 1 -.337.039 4.259 4.259 0 0 1 -.028-.483 4.2 4.2 0 1 1 4.613 4.175z"/><path d="m18.17 18.461a4.075 4.075 0 0 0 .032-.508 4.026 4.026 0 1 0 -4.273 4.019" fill="#aa56ff"/><path d="m13.929 22.141h-.01a4.2 4.2 0 1 1 4.453-4.188 4.261 4.261 0 0 1 -.033.53.169.169 0 0 1 -.339-.043 3.916 3.916 0 0 0 .03-.487 3.856 3.856 0 1 0 -4.094 3.85.169.169 0 0 1 -.01.339z"/><path d="m21.09 26.92a1.361 1.361 0 0 1 -.94 1.141 1.306 1.306 0 0 1 -.94-1.141c0-.519.421-.46.94-.46s.94-.06.94.46z"/><path d="m18.257 23.447a.8.8 0 0 1 -.667.88.915.915 0 0 1 0-1.761.8.8 0 0 1 .667.881z"/><path d="m17.59 24.412a.677.677 0 0 1 -.539-.291 1.175 1.175 0 0 1 0-1.347.644.644 0 0 1 1.078 0 1.175 1.175 0 0 1 0 1.347.677.677 0 0 1 -.539.291zm0-1.761a.512.512 0 0 0 -.4.224 1.006 1.006 0 0 0 0 1.143.476.476 0 0 0 .808 0 .948.948 0 0 0 .178-.571.948.948 0 0 0 -.178-.571.512.512 0 0 0 -.408-.225z"/><path d="m23.057 23.447a.8.8 0 0 1 -.667.88.915.915 0 0 1 0-1.761.8.8 0 0 1 .667.881z"/><path d="m22.39 24.412a.677.677 0 0 1 -.539-.291 1.175 1.175 0 0 1 0-1.347.644.644 0 0 1 1.078 0 1.175 1.175 0 0 1 0 1.347.677.677 0 0 1 -.539.291zm0-1.761a.512.512 0 0 0 -.4.224 1.006 1.006 0 0 0 0 1.143.476.476 0 0 0 .808 0 .948.948 0 0 0 .178-.571.948.948 0 0 0 -.178-.571.512.512 0 0 0 -.408-.225z"/><path d="m17.857 23.242c0 .167-.084.3-.187.3s-.187-.135-.187-.3.084-.3.187-.3.187.135.187.3z" fill="#fff"/><path d="m22.523 23.322c0 .167-.084.3-.187.3s-.187-.135-.187-.3.084-.3.187-.3.187.135.187.3z" fill="#fff"/><path d="m25.814 14.5a3.561 3.561 0 0 0 -3.273 2.648 4.676 4.676 0 0 1 2.569-.748 4.143 4.143 0 0 1 4.056 2.648 3.525 3.525 0 0 0 -3.177-4.548c-.059 0-.117 0-.175 0z"/><path d="m21.889 26.558a.121.121 0 0 1 -.051-.231c3.889-1.813 5.7-.2 5.775-.129a.121.121 0 1 1 -.165.178c-.017-.016-1.778-1.568-5.508.171a.121.121 0 0 1 -.051.011z"/><path d="m26.788 28.357a.121.121 0 0 1 -.093-.043 5.68 5.68 0 0 0 -1.548-1.214 3.354 3.354 0 0 0 -3.565.111.121.121 0 0 1 -.13-.2c2.877-1.836 5.4 1.119 5.428 1.149a.121.121 0 0 1 -.093.2z"/><path d="m25.006 29.782a.121.121 0 0 1 -.12-.1 3.372 3.372 0 0 0 -1.315-2.252 2.145 2.145 0 0 0 -2 .169.121.121 0 0 1 -.109-.216 2.368 2.368 0 0 1 2.221-.167 3.548 3.548 0 0 1 1.442 2.433.121.121 0 0 1 -.1.137z"/><path d="m18.358 26.558a.121.121 0 0 1 -.051-.011c-3.743-1.745-5.491-.187-5.508-.171a.121.121 0 1 1 -.165-.178c.075-.07 1.886-1.684 5.775.129a.121.121 0 0 1 -.051.231z"/><path d="m13.459 28.357a.121.121 0 0 1 -.093-.2c.025-.03 2.551-2.985 5.428-1.149a.121.121 0 1 1 -.13.2 3.354 3.354 0 0 0 -3.564-.108 5.679 5.679 0 0 0 -1.547 1.211.121.121 0 0 1 -.094.046z"/><path d="m15.241 29.782h-.017a.121.121 0 0 1 -.1-.137 3.548 3.548 0 0 1 1.442-2.433 2.368 2.368 0 0 1 2.221.167.121.121 0 1 1 -.109.216 2.144 2.144 0 0 0 -2-.169 3.372 3.372 0 0 0 -1.315 2.252.121.121 0 0 1 -.122.104z"/><path d="m14.332 14.5a3.561 3.561 0 0 1 3.268 2.645 4.676 4.676 0 0 0 -2.568-.747 4.143 4.143 0 0 0 -4.056 2.648 3.525 3.525 0 0 1 3.182-4.546z"/></svg>