<svg viewBox="0 0 32 32" xmlns="http://www.w3.org/2000/svg"><path d="m26.034 7.613h-2.029v13.727h2.029z" fill="#ffed00"/><path d="m30 7.613h-3.966v13.727h3.966z" fill="#fcc204"/><path d="m30 21.34-2.973 3.838-3.022-3.838zm-4.121 0-.845-.661-.845.661zm2 0-.845-.661-.845.661zm2 0-.845-.661-.845.661z" fill="#fff7ad"/><path d="m25.818 23.643 1.207 1.535 1.187-1.535z" fill="#e53524"/><path d="m26.034 3.391h-2.029v3.854h2.029z" fill="#f7c3c6"/><path d="m30 3.391h-3.966v3.854h3.966z" fill="#f5b2b6"/><path d="m12.324 5.972-7.743 7.743 7.743 7.743 7.743-7.743z" fill="#f68712"/><path d="m2 3.391 10.324 2.581-7.743 7.743z" fill="#fab20b"/><path d="m22.648 3.391-2.581 10.324-7.743-7.743z" fill="#f47216"/><path d="m22.648 24.039-10.324-2.581 7.743-7.743z" fill="#f25c19"/><path d="m2 24.039 2.581-10.324 7.743 7.743z" fill="#f89c0e"/><path d="m12.324 5.972-10.324-2.581h5.162z" fill="#fbc707"/><path d="m12.324 5.972 10.324-2.581h-5.162z" fill="#fbc707"/><path d="m12.324 21.458 10.324 2.581h-5.162z" fill="#f68712"/><path d="m12.324 21.458-10.324 2.581h5.162z" fill="#f25c19"/><path d="m4.581 13.715-2.581 10.324v-5.162z" fill="#fff200"/><path d="m4.581 13.715-2.581-10.324v5.162z" fill="#fff200"/><path d="m20.067 13.715 2.581-10.324v5.162z" fill="#f1471d"/><path d="m20.067 13.715 2.581 10.324v-5.162z" fill="#f1471d"/><path d="m25.079 25.254a3.272 3.272 0 0 0 -.694.538c-.2.2-.385.419-.56.628a2.96 2.96 0 0 1 -1.225 1.042 1.92 1.92 0 0 1 -2-.7c-.093-.1-.184-.213-.275-.322a3.669 3.669 0 0 0 -1.963-1.456 3.017 3.017 0 0 0 -2.949 1.191l-.169.2a2.716 2.716 0 0 1 -1.593 1.177c-.621.07-1.186-.244-1.891-1.05a3.54 3.54 0 0 0 -2.608-1.58h-.018a3.652 3.652 0 0 0 -2.648 1.622c-.679.776-1.289 1.092-1.92.993a2.355 2.355 0 0 1 -1.327-.924l-1.239.162c.064.074.127.15.191.226a3.737 3.737 0 0 0 2.209 1.572 3.128 3.128 0 0 0 2.869-1.338c.567-.648 1.1-1.26 1.867-1.265h.009c.7 0 1.2.507 1.821 1.222a3.484 3.484 0 0 0 2.517 1.417 2.5 2.5 0 0 0 .28-.016 3.577 3.577 0 0 0 2.272-1.538l.164-.191a2.055 2.055 0 0 1 1.931-.855 2.8 2.8 0 0 1 1.388 1.107c.1.116.195.232.294.343a2.892 2.892 0 0 0 3.122.993 3.892 3.892 0 0 0 1.693-1.361c.167-.2.325-.388.494-.556a2.247 2.247 0 0 1 .471-.37z" fill="#e53524"/></svg>