<?xml version="1.0" encoding="UTF-8" standalone="no"?>
<svg
   viewBox="0 0 32 32"
   version="1.1"
   id="svg1"
   sodipodi:docname="file_type_prismaconfig.svg"
   inkscape:version="1.4.2 (f4327f4, 2025-05-13)"
   xmlns:inkscape="http://www.inkscape.org/namespaces/inkscape"
   xmlns:sodipodi="http://sodipodi.sourceforge.net/DTD/sodipodi-0.dtd"
   xmlns="http://www.w3.org/2000/svg"
   xmlns:svg="http://www.w3.org/2000/svg">
  <defs
     id="defs1" />
  <sodipodi:namedview
     id="namedview1"
     pagecolor="#505050"
     bordercolor="#eeeeee"
     borderopacity="1"
     inkscape:showpageshadow="0"
     inkscape:pageopacity="0"
     inkscape:pagecheckerboard="0"
     inkscape:deskcolor="#505050"
     inkscape:zoom="11.91033"
     inkscape:cx="16.0365"
     inkscape:cy="15.994519"
     inkscape:window-width="1366"
     inkscape:window-height="697"
     inkscape:window-x="-8"
     inkscape:window-y="-8"
     inkscape:window-maximized="1"
     inkscape:current-layer="svg1" />
  <title
     id="title1">file_type_prisma</title>
  <path
     d="M25.21,24.21,12.739,27.928a.525.525,0,0,1-.667-.606L16.528,5.811a.43.43,0,0,1,.809-.094l8.249,17.661A.6.6,0,0,1,25.21,24.21Zm2.139-.878L17.8,2.883h0A1.531,1.531,0,0,0,16.491,2a1.513,1.513,0,0,0-1.4.729L4.736,19.648a1.592,1.592,0,0,0,.018,1.7l5.064,7.909a1.628,1.628,0,0,0,1.83.678l14.7-4.383a1.6,1.6,0,0,0,1-2.218Z"
     style="fill:#d2d2d2;fill-rule:evenodd"
     id="path1" />
  <path
     d="m 28.505,27.032994 0.363,-0.361 c 1.68,0.055 1.706,0 1.78,-0.177 l 0.462,-1.124 0.034,-0.107 -0.038,-0.093 c -0.02,-0.049 -0.081,-0.2 -1.13,-1.2 v -0.526 c 1.211,-1.166 1.185,-1.226 1.116,-1.4 l -0.46,-1.136 c -0.069,-0.17 -0.1,-0.237 -1.763,-0.191 l -0.364,-0.367 a 8.138,8.138 0 0 0 -0.057,-1.657 l -0.047,-0.106 -1.2,-0.525 c -0.177,-0.081 -0.239,-0.11 -1.372,1.124 l -0.509,-0.008 c -1.167,-1.245 -1.222,-1.223 -1.4,-1.152 l -1.115,0.452 c -0.175,0.071 -0.236,0.1 -0.169,1.79 l -0.36,0.359 c -1.68,-0.055 -1.7,0 -1.778,0.177 l -0.462,1.121 -0.036,0.108 0.038,0.094 c 0.02,0.048 0.078,0.194 1.13,1.2 v 0.525 c -1.211,1.166 -1.184,1.226 -1.115,1.4 l 0.459,1.137 c 0.07,0.174 0.1,0.236 1.763,0.192 l 0.363,0.377 a 8.169,8.169 0 0 0 0.055,1.654 l 0.047,0.107 1.208,0.528 c 0.176,0.073 0.236,0.1 1.366,-1.13 l 0.509,0.006 c 1.168,1.247 1.228,1.223 1.4,1.154 l 1.113,-0.45 c 0.176,-0.075 0.237,-0.102 0.169,-1.795 z m -4.788,-2.632 a 2,2 0 1 1 2.618,1.14 2.023,2.023 0 0 1 -2.618,-1.14 z"
     style="fill:#99b8c4"
     id="path2" />
</svg>
