<svg xmlns="http://www.w3.org/2000/svg" fill="none" viewBox="0 0 32 32"><g transform="translate(2 2)"><rect width="28" height="28" fill="#059669" rx="4" style="fill:#059669;fill-opacity:1"/><path fill="#fff" d="M10.572 15.257c0 2.246-.91 4.12-2.394 5.848h3.454v1.674H6.335v-1.59c1.62-1.832 2.246-3.326 2.246-5.932zM17.428 15.257c0 2.246.91 4.12 2.394 5.848h-3.454v1.674h5.297v-1.59c-1.62-1.832-2.246-3.326-2.246-5.932zM10.572 12.744c0-2.247-.91-4.122-2.394-5.849h3.454V5.221H6.335v1.59c1.62 1.832 2.246 3.326 2.246 5.933zM17.428 12.744c0-2.247.91-4.122 2.394-5.849h-3.454V5.221h5.297v1.59c-1.62 1.832-2.246 3.326-2.246 5.933z" style="fill:#fff;fill-opacity:1"/></g></svg>