<svg viewBox="0 0 32 32" xmlns="http://www.w3.org/2000/svg"><g fill="#fac553"><path d="m9.837 19.944c-.488.4-.967.807-1.43 1.241a28.544 28.544 0 0 0 -4.5 5.443 2.62 2.62 0 0 0 .145-.642.275.275 0 0 0 -.263-.247c-.2-.024-.412.006-.609-.036a.7.7 0 0 1 -.43-.438 11.84 11.84 0 0 1 -.356-1.319 1.1 1.1 0 0 0 -.239-.443.1.1 0 0 0 -.155.008v6.116h8.15a2.507 2.507 0 0 1 .271-.124 1.8 1.8 0 0 1 .553-.109.886.886 0 0 0 .375-.089.094.094 0 0 0 0-.144c-.066-.091-.188-.089-.291-.1a3.253 3.253 0 0 0 -.788.045 3.909 3.909 0 0 1 -.653.027 3.28 3.28 0 0 1 -.8-.1c-.065-.023-.07-.112-.069-.179 0-.169.071-.36-.012-.506-.085-.1-.224-.055-.328.018a1.641 1.641 0 0 1 .525-.917c.114-.1.26-.178.331-.328.021-.05.052-.116.017-.16a.5.5 0 0 0 -.248-.155 50.476 50.476 0 0 1 3.057-4.266 2.086 2.086 0 0 1 -.383-.262 7.409 7.409 0 0 1 -1.87-2.334z"/><path d="m11.232 25.2a.193.193 0 0 0 .023-.228.2.2 0 0 0 -.347.021.2.2 0 0 0 .138.32.642.642 0 0 0 .186-.113z"/><path d="m10.572 27.072a4.254 4.254 0 0 0 .651-.565 1.477 1.477 0 0 1 1.174-.363.32.32 0 0 0 .26-.041.3.3 0 0 0 .02-.371.638.638 0 0 0 -.342-.18.837.837 0 0 0 -.717.066 3.811 3.811 0 0 0 -.8.916.822.822 0 0 1 -.418.292.469.469 0 0 0 -.343.188c-.033.042-.041.115.008.135a.6.6 0 0 0 .507-.077z"/><path d="m3.314 21.795a.487.487 0 0 0 0-.366.509.509 0 0 0 -.273-.255.222.222 0 0 0 -.23.113 1.838 1.838 0 0 0 -.337 1.285c.09.572.538.953.58 1.546a.625.625 0 0 0 .131-.445 2.141 2.141 0 0 0 -.185-.639.846.846 0 0 1 -.038-.5c.07-.268.257-.484.352-.739z"/><path d="m4.074 22.878c.161-.012.276-.186.337-.337a.246.246 0 0 0 -.23-.3.377.377 0 0 0 -.37.344.285.285 0 0 0 .263.293z"/><path d="m10.406 26.077a.29.29 0 0 0 -.26-.381.372.372 0 0 0 -.282.131.365.365 0 0 0 0 .444.235.235 0 0 0 .311.039c.087-.057.195-.11.231-.233z"/><path d="m10.384 28.394a2.19 2.19 0 0 1 .79-.078 4 4 0 0 0 .568.022 1.151 1.151 0 0 0 .59-.208.339.339 0 0 0 .15-.353.5.5 0 0 0 -.369-.272 1.066 1.066 0 0 0 -.6.053 4.978 4.978 0 0 0 -1.116.732.435.435 0 0 0 -.1.09c-.006.056.058.02.087.014z"/><path d="m3.633 24.206a.3.3 0 0 0 .067.243c.048 0 .1.005.144.005.063-.052.154-.081.183-.169a.2.2 0 0 0 -.087-.235.275.275 0 0 0 -.167-.011.277.277 0 0 0 -.14.167z"/><path d="m11.962 29.045a.216.216 0 0 0 .068.335.3.3 0 0 0 .245-.107.19.19 0 0 0 -.126-.314.232.232 0 0 0 -.187.086z"/></g><path d="m26.052 2.91a1.28 1.28 0 0 0 -.844-.5 2.467 2.467 0 0 0 -1.766.929c-2.22 2.249-4.549 4.361-6.828 6.532a4.988 4.988 0 0 0 -1.142 1.247c-.389.6-.1 1.478-.557 2.045-1.163 1.537-2.349 3.057-3.515 4.593-.255.352-.687.453-.974.765a11.537 11.537 0 0 1 -.863.777 4.785 4.785 0 0 0 .274.646 7.409 7.409 0 0 0 1.871 2.33 2.086 2.086 0 0 0 .383.262.256.256 0 0 0 .3-.037 3.377 3.377 0 0 1 .651-.769c.33-.228.414-.706.754-.919.814-.549 1.6-1.143 2.429-1.673a14.5 14.5 0 0 1 2.691-1.694 3.04 3.04 0 0 0 2.17-.554c2.627-2.457 5.229-4.95 7.889-7.367a2.313 2.313 0 0 0 .7-1.1 2.231 2.231 0 0 0 -.45-1.7c-1.032-1.292-2.082-2.573-3.173-3.813z" fill="#02b428"/></svg>