<svg viewBox="0 0 32 32" xmlns="http://www.w3.org/2000/svg"><g fill="#00bd02"><path d="m29.4 27.6h-26.9v-23.1h26.9zm-25.9-1h24.9v-21.1h-24.9z"/><path d="m2.5 5.5h26.9v1.9h-26.9z"/><path d="m11.333 9.5h8.167v1h-8.167z"/><path d="m11.333 12.083h12.5v1h-12.5z"/><path d="m11.333 14.75h10.617v1h-10.617z"/><path d="m11.333 17.583h14.167v1h-14.167z"/><path d="m11.333 20.5h9.834v1h-9.834z"/><path d="m11.5 23.083h12.167v1h-12.167z"/><path d="m5.5 9.5h4.333v1h-4.333z"/><path d="m5.5 12.083h4.333v1h-4.333z"/><path d="m5.5 12.083h4.333v1h-4.333z"/><path d="m5.5 14.667h4.333v1h-4.333z"/><path d="m5.5 17.25h4.333v1h-4.333z"/><path d="m5.5 20.5h4.333v1h-4.333z"/><path d="m5.5 23.083h4.333v1h-4.333z"/></g></svg>