<svg viewBox="0 0 32 32" xmlns="http://www.w3.org/2000/svg"><path d="m27.435 16.037-5.423 5.423 5.423 5.423" fill="#00577b"/><path d="m26.884 15.5h-10.836l5.423 5.423" fill="#0079aa"/><path d="m26.884 14.712-5.423-5.423-5.423 5.423" fill="#0096d3"/><path d="m20.528 9.131h-10.845l5.423 5.423m12.329-11.229-5.423 5.423 5.423 5.423" fill="#01b0f0"/><path d="m20.528 8.356-5.423-5.423-5.422 5.423" fill="#27bcf3"/><path d="m14.172 2.775h-10.845l5.422 5.425" fill="#4fc9f5"/><path d="m4.568 15.963 5.423-5.423-5.423-5.423" fill="#79201b"/><path d="m10.541 11.091-5.422 5.422h10.845" fill="#a42d26"/><path d="m5.119 17.288 5.423 5.423 5.423-5.423" fill="#cc382f"/><path d="m4.568 17.829v10.846l5.423-5.423-1.591-1.587m13.916 1.2-5.416-5.418-5.423 5.423" fill="#f0453f"/><path d="m11.475 23.644 5.425 5.423 5.423-5.423" fill="#f2625d"/><path d="m17.84 29.225h10.845l-5.422-5.425" fill="#f47f7d"/><path d="m29.889 29.337-1.68-1.68v-25.265a.374.374 0 0 0 -.243-.355.263.263 0 0 0 -.139-.037.359.359 0 0 0 -.271.112l-6.085 6.088-6.086-6.088-.085-.075h-.037a.307.307 0 0 0 -.158-.037h-12.705a.434.434 0 0 0 -.289.112.38.38 0 0 0 -.111.28.359.359 0 0 0 .112.271l1.68 1.68v25.274a.374.374 0 0 0 .243.355.387.387 0 0 0 .15.028.359.359 0 0 0 .271-.112l6.085-6.088 6.085 6.085.084.075h.037a.254.254 0 0 0 .153.04h12.709a.395.395 0 0 0 .28-.663zm-2.454-26.012v10.846l-5.423-5.423zm-17.444 7.215-5.423 5.423v-10.846zm-.308-1.409h10.845l-5.423 5.423zm.859 1.96 5.423 5.423h-10.846zm6.358 6.356 5.423 5.423h-10.848zm-.852-1.947h10.845l-5.423 5.423zm5.964 5.964 5.423-5.423v10.842l-5.423-5.423zm4.872-6.748h-10.836l5.423-5.423zm-6.356-6.36h-10.845l5.423-5.423 5.423 5.423zm-17.201-5.581h10.845l-5.423 5.425zm1.241 25.9v-10.846l3.832 3.836 1.587 1.587zm.551-11.387h10.845l-5.423 5.423zm11.781 11.779-5.423-5.423h10.843zm.943.159 5.42-5.426 5.423 5.423z" fill="#464049"/></svg>