<svg xmlns="http://www.w3.org/2000/svg" viewBox="0 0 32 32"><title>file_type_postcss@2x</title><g id="postcss"><path d="M30,15.27c0-.36,0-.73,0-1.09s0-.74-.07-1.11-.13-1-.25-1.5a8.56,8.56,0,0,0-.37-1.18A14.22,14.22,0,0,0,28.68,9a20.89,20.89,0,0,0-1.3-2c-.29-.42-.67-.76-1-1.18a2.91,2.91,0,0,0-.63-.64c-.38-.3-.78-.58-1.17-.84S24,4,23.69,3.81s-.53-.26-.79-.38A4,4,0,0,0,22,3.06L21.72,3c-.22-.08-.43-.16-.64-.23s-.65-.23-1-.31a9.07,9.07,0,0,0-1-.19c-.38-.06-.77-.08-1.14-.11s-.49-.06-.73-.07L16.11,2a5.34,5.34,0,0,0-.55,0,8.07,8.07,0,0,0-.82.08L14,2.22,13,2.31l-.89.14-.31.08a6,6,0,0,0-.69.14c-.41.12-.81.26-1.21.42a11.14,11.14,0,0,0-1.08.5c-.36.2-.7.43-1,.66s-.64.44-1,.69A11,11,0,0,0,6,5.7c-.15.15-.27.33-.42.5s-.47.54-.7.82-.36.48-.54.73a12.06,12.06,0,0,0-.85,1.36c-.1.19-.2.38-.29.57s-.29.56-.43.85a3.6,3.6,0,0,0-.23.63c-.13.46-.26.94-.39,1.4A5.29,5.29,0,0,0,2,13.84,9,9,0,0,0,2.07,15c0,.09,0,.21.07.28s0,0,0,0a.09.09,0,0,0,.06.13v0h0c0,.09.07.15,0,.25s0,.06,0,.09a.32.32,0,0,0,0,.09,2.18,2.18,0,0,1,0,.26c0,.07.06.14.08.21a.11.11,0,0,1,0,.09c-.06.07,0,.12,0,.16a.11.11,0,0,1,0,.07,1.07,1.07,0,0,1,0,.17s0,0,0,.06,0,.06,0,.08a1.25,1.25,0,0,1,.11.49.36.36,0,0,0,0,.12h.06l-.06.17.13-.06a2.94,2.94,0,0,0,.09.34l.06.06s0,.06,0,.07a2.87,2.87,0,0,0,.12.49h0c0-.17,0-.35-.08-.52v-.06h0a.66.66,0,0,1,0,.11c.08,0,.19,0,.26,0l0-.08c-.06-.06-.1-.14-.16-.2a.29.29,0,0,1,0,.13L2.92,18l.13-.15c0-.08,0-.16-.18-.15l.18-.07,0,.08c.08-.13,0-.24,0-.37a2.45,2.45,0,0,0-.11-.49c0-.26,0-.66-.07-.93,0,0,0,0,0-.06s-.06.13-.07.14c0,.23.06.45.08.68h0c0-.2-.08-.41-.12-.63a1.09,1.09,0,0,0,0,.13l-.09,0,.1.21a.31.31,0,0,0-.14,0v.26a1.28,1.28,0,0,1-.17-.24c0-.08,0-.15,0-.23h0a.51.51,0,0,1,0-.09l0-.23.07,0-.08-.11.17,0s0,0,0,0,0-.16,0-.24.09,0,.1-.09.2-.26.2-.43a2.56,2.56,0,0,1,0-.26c0-.16,0-.32,0-.48a4.36,4.36,0,0,1,0-.61c.08-.33.17-.66.27-1s.16-.46.26-.7a11,11,0,0,1,.45-1.09c.26-.51.55-1,.83-1.5.18-.31.37-.6.57-.91s.38-.6.6-.87a7.67,7.67,0,0,1,1-1.07c.38-.34.74-.69,1.14-1A11.57,11.57,0,0,1,9.7,4.34a12.8,12.8,0,0,1,1.48-.64c.32-.12.67-.18,1-.28a4,4,0,0,1,1.15-.19c.26,0,.5,0,.76-.07l.7-.07,0,.08-.32.45L14.17,4c-.15.2-.31.4-.45.6s-.42.63-.64.95-.47.59-.71.88-.6.82-.92,1.23-.59.76-.86,1.14-.46.7-.7,1l-1,1.55L8,12.59a.23.23,0,0,1-.08.06s-.06,0-.06.06a1.09,1.09,0,0,1,0,.19c-.08.14-.15.28-.24.42s-.11.14-.17.22l0,0c0-.09.2-.15.12-.29l-.14.22-.11.23s.1,0,0,.1l-.09.15h0l.09-.1h0a1.39,1.39,0,0,1-.13.26.76.76,0,0,1-.2.19l.09,0s0,0,.07-.06,0,0,.06,0a.44.44,0,0,0,.07-.09A.34.34,0,0,1,7.46,14a.37.37,0,0,0,.09-.08c.28-.29.58-.58.83-.89.4-.48.76-1,1.13-1.47.16-.21.35-.42.52-.61l0,0c0,.2,0,.41,0,.6,0,.35,0,.7-.08,1.06,0,.14,0,.28,0,.43s0,.07,0,.1,0,.2,0,.29c0,.35-.07.69-.09,1a.56.56,0,0,0,0,.22l0,0a10.39,10.39,0,0,1,0,1.63s.06,0,.06,0a1.44,1.44,0,0,0,0-.2,1.13,1.13,0,0,0,0-.18v-.09a3.19,3.19,0,0,0,0-.52,1.78,1.78,0,0,1,0-.55c0-.08,0-.17,0-.26v.14A13.23,13.23,0,0,1,10,16.19s0,.13-.08.12,0,0,0,.08.06.22,0,.31,0,.1,0,.16,0,0,0,0,0,.07,0,.08c0,.21,0,.4,0,.6h0a7.06,7.06,0,0,0,.11-1.1,3.74,3.74,0,0,1,0,.46c0,.25,0,.48,0,.73a.73.73,0,0,1,0,.14,2.56,2.56,0,0,1-.09.39,1.06,1.06,0,0,0,0,.35v.36s0,0,0,.08,0,.17,0,.26,0,0,0,.07a.13.13,0,0,0,0,.08l0,.14,0,0a.3.3,0,0,0,0-.08c.16,0,.08.16.15.24l-.07,0a.42.42,0,0,1,0,.1,2.16,2.16,0,0,1,0,.25c0,.22,0,.43,0,.64,0,0,0,.06,0,.09s0,0,0,.07v.2h0l-.07.08h0V20H9.85a10,10,0,0,1-.08,1.61,2.43,2.43,0,0,1-.27,0H7.58l-.52,0-.69,0c-.35,0-.69,0-1,0l-.77,0-.51,0a1.54,1.54,0,0,0-.24.07H3.66c-.09,0-.18.08-.27.09s-.18.07-.16.21v.09l-.07,0h0l0,.08s.09-.07.12-.07h.13s0,.06-.06.1l.17-.07a.27.27,0,0,1,0,.08,1.24,1.24,0,0,1,.37,0,7.51,7.51,0,0,0,1.12.17l.73,0c.35,0,.7,0,1,0l.87,0,1.22,0h1l1.84,0,1.06,0,1.08,0,1.24,0,.93,0,1.06-.06.57,0,.69-.06,1,0c.43,0,.85-.07,1.29-.08s.8,0,1.2,0l1.06,0,.6,0,.6,0c.34,0,.68-.06,1-.07h.65l1.06,0,.44,0-.18.15.11,0s0,0,0,0h-.14a.6.6,0,0,0-.06.16h.17c-.07,0-.12.08-.19.14l0,0c-.1,0-.17,0-.21.09h.08l0,.09a.14.14,0,0,0,0,.07l0,0a.12.12,0,0,0,0-.06c-.06.06-.14.09-.09.22l-.13.07a.41.41,0,0,1,0,.07c-.08,0-.17,0-.15.13l.1,0-.14.07s0,.07,0,.08-.06.08,0,.12l-.08,0,.07,0-.07,0,.06,0-.14.11a.09.09,0,0,0,0,0,.83.83,0,0,0-.11.13A1.86,1.86,0,0,1,26,24a3.49,3.49,0,0,1-.6.64,2.06,2.06,0,0,0-.26.24c-.17.16-.32.34-.5.49s-.48.38-.74.56l-.94.64c-.17.11-.36.2-.54.3l-.53.3a2.73,2.73,0,0,1-.34.24c-.31.13-.64.25-1,.37l-.08,0c-.24.1-.46.22-.7.3a5.4,5.4,0,0,1-.67.18,2,2,0,0,1-.25,0l-.48.09-1.25.15-.73.1c-.17,0-.35,0-.52,0a2.52,2.52,0,0,1-.38,0l-.6-.11a.28.28,0,0,0-.15,0c-.08,0-.14,0-.22,0s-.09,0-.14,0H14.3a.87.87,0,0,0-.31-.06,1.23,1.23,0,0,1-.35-.08l-.5-.11a.83.83,0,0,1-.19-.09.18.18,0,0,1-.09,0,2.61,2.61,0,0,1-.47-.09A.85.85,0,0,0,12,28s-.07,0-.1,0-.06-.11-.09-.11c-.19,0-.3-.15-.46-.2s-.15-.12-.24-.15-.38-.26-.61-.29a1.36,1.36,0,0,1-.24-.08l.08.09,0,0-.77-.44s-.07,0-.09-.07l-.26-.17-.09,0c-.06.07-.11,0-.15,0-.26-.18-.55-.29-.79-.49a1.56,1.56,0,0,1-.3-.25,1.49,1.49,0,0,0-.47-.37c-.14-.08-.27-.16-.41-.25A.25.25,0,0,1,6.85,25c0-.07,0-.13-.11-.09s-.08-.12-.12-.14a1,1,0,0,1-.27-.21c-.08-.08-.15-.18-.26-.22A1.13,1.13,0,0,1,5.67,24c-.26-.31-.5-.65-.75-1a.68.68,0,0,0-.08-.08h0l.14.27,0,0L4.75,23l0,0,.68,1.08.16.26,0,0a.37.37,0,0,1-.25-.18A.35.35,0,0,0,4.91,24a1.63,1.63,0,0,1,0-.21H4.73l.37.6L5,24.34c.17.18.29.41.51.52,0,.22.29.32.35.53l-.13,0-.25-.29a.48.48,0,0,0,.08.17,3.61,3.61,0,0,0,.35.41s.11.07.11.15l.08,0,0,.09h.09c0,.06,0,.14.1.12l0,0c0,.12.12.12.23.08a.07.07,0,0,1,.08,0c0,.1.11.11.2,0s0,.09,0,.13h0s0,0,0-.09l.09.08a1.61,1.61,0,0,0,.31.36l.51.45a7.22,7.22,0,0,0,1.07.71c.45.26.89.53,1.35.78a7.3,7.3,0,0,0,1.77.63l.67.15c.2.06.4.14.6.19l.92.18.21,0v0c.09,0,.19,0,.21,0s.08,0,.14,0a.81.81,0,0,1,.22,0,7.29,7.29,0,0,0,.78,0c.06,0,.14,0,.19,0l0,0,.12,0v0l-.08,0,.1,0,0,0-.08,0a2.12,2.12,0,0,0,.95,0v-.06h0a.14.14,0,0,0,0,.06,3,3,0,0,0,1.27-.16s.07.11.12,0,.07,0,.1,0a.52.52,0,0,1,.26,0c.09,0,.11,0,.18,0l.32,0,.18-.06a0,0,0,0,0,0,0l-.2,0,.32-.15v0s0,0-.09,0h.13s-.07.09-.11.14l1-.24v0l-.09,0c0-.2.21-.13.28-.25l-.28.08v0l1-.43v0l-.2.11.12,0s0,0,0,.06c.16,0,.12-.15.17-.24s.07,0,.09,0l.25-.08.28-.09c.15-.07.29-.15.44-.23h.11a.1.1,0,0,0,.07,0s.08-.09.1-.08a.21.21,0,0,0,.26-.15h0l.14-.1.61-.34h.13l.35-.19s0,0-.09,0v0l.18,0,0,0c.25-.25.56-.43.79-.63l.09,0a.23.23,0,0,0,0-.08.88.88,0,0,1,.12-.14c.21-.19.43-.35.62-.55s.54-.56.78-.85a7.69,7.69,0,0,0,.64-.82c.26-.41.49-.82.73-1.25s.32-.6.49-.91c0,0,.06-.07.09-.07l.76-.08a.73.73,0,0,0,.18-.08l-.08-.15c0-.06-.09-.1-.13-.16a.91.91,0,0,1-.09-.16l-.09-.13a3.41,3.41,0,0,1-.16-.32.2.2,0,0,1,0-.1c.17-.37.24-.77.4-1.13a5.79,5.79,0,0,0,.28-1.21c.07-.39.1-.78.15-1.16s.07-.54.08-.81a8,8,0,0,0,0-1.25ZM6.23,25.82,6,25.58l0,0,.31.35a.45.45,0,0,1-.15-.09Zm.15.09.09,0s0,.1.08.16c-.13,0-.2-.07-.16-.14Zm9.83,3.9v0l.53-.06v0l-.53.06Zm2.38-.25-.41.07s-.1.06-.12,0l-.06,0c0,.14.16,0,.26.09l-.6.08v0l.18,0v0l-.28,0s-.07,0-.09,0l-.12,0-.47,0h0v0l1.89-.26,0,.06a.63.63,0,0,0-.14,0Zm.14-.09.62-.08c-.43.12-.58.14-.62.08ZM10.5,10.38c.3-.42.61-.83.92-1.26.09-.12.17-.26.26-.38a.6.6,0,0,1,.11-.09v0a.87.87,0,0,0,.09-.12A1.94,1.94,0,0,0,12,8.27l0,0c.13.07.13-.08.18-.12l.25-.29a2,2,0,0,0,.16-.23s0-.08,0-.11h0l.08-.07h0l.17-.25a4.07,4.07,0,0,1,.37-.43l-.06.13h0l.35-.44,0,0-.13.14,0,0c.09-.12.19-.25.28-.39l.08.14c0-.09.08-.16.1-.23l-.09.08,0,0,.17-.26.54-.78c.07-.09.15-.17.21-.26a10,10,0,0,1,.68-1,1.55,1.55,0,0,1,.17-.18c0-.06.09,0,.12,0l.77,1c.19.24.38.46.56.71l.64.91c.25.35.49.7.73,1.06L19.31,8.9c.26.39.53.77.78,1.15h-.48c-.44,0-.9,0-1.34,0-.6,0-1.22.09-1.82.14-.77.07-1.54.08-2.31.08-.27,0-.55,0-.82.06l-1,0-1.15,0Zm10.84,4.35v.09h0c0-.13-.08-.27-.12-.41a3.19,3.19,0,0,0-.37-.79c-.19-.26-.36-.54-.55-.81a1.53,1.53,0,0,0-.17-.18,3.31,3.31,0,0,0-.65-.6,7.74,7.74,0,0,0-1.18-.6,2.74,2.74,0,0,1-.33-.17h.23l1.62,0,1,0a.19.19,0,0,1,.18.1c.09.14.17.28.26.43a.18.18,0,0,1,0,.08c0,.21,0,.43,0,.63s0,.43,0,.64,0,.44,0,.67,0,.65,0,1ZM11.17,11.57l1.3-.07,1,0a2,2,0,0,1,.42,0,3.22,3.22,0,0,0-.43.25c-.17.11-.33.26-.5.39a2.87,2.87,0,0,0-.46.43c-.18.22-.38.41-.57.61a5.93,5.93,0,0,0-.4.45c-.16.21-.3.43-.45.67,0-.9.1-1.79.07-2.69Zm6.17,9.09a7.7,7.7,0,0,1-.93.2,5.79,5.79,0,0,1-.81,0l-.73,0a2.47,2.47,0,0,1-.81-.18c-.23-.1-.46-.2-.69-.31a1.83,1.83,0,0,1-.62-.45,3.66,3.66,0,0,0-.44-.41.45.45,0,0,0,.2.27c0,.06-.11,0-.21-.12l-.08,0,.09-.19-.12-.24L12,18.89s0-.06,0-.09l-.13-.17a3.81,3.81,0,0,0-.24-.35s0,.06,0,.09h0l-.2-.48h0l.17.62h0a.54.54,0,0,1-.08-.12c0-.08-.08-.08-.12,0a.13.13,0,0,0,0,.11c.07.16.14.32.22.48a1.16,1.16,0,0,0,.07.16s0,0,0,.07a1.58,1.58,0,0,0,.11.22l.26.34c.09.11.16.24.24.35s0,0,0,0,.21.25.32.19c0,.22.26.29.36.5l-.27-.12,0,0,.33.18a2.72,2.72,0,0,1,.27.18.87.87,0,0,0,.41.2l0,0,.75.36-3.12.06c0-.18,0-.35,0-.53a1.66,1.66,0,0,0,0-.22c0-.43,0-.87-.08-1.29a9.22,9.22,0,0,1,0-1.35c0-.25,0-.5,0-.75s0-.65,0-1a.35.35,0,0,1,0-.13h0s0,0,0,.06.08.08.09.07.14-.08.16-.13a.92.92,0,0,0,.07-.35.34.34,0,0,1,.08-.2l0-.09-.12-.08c0-.1,0-.23.17-.28s0-.06,0-.09l0-.24,0,.06,0,0s0-.11,0-.11.07-.14.12-.2,0,0,0-.06,0,0,0,0,.11-.17.2-.24,0,0,.08-.09c.08.13-.06.2-.07.29.16-.09.21-.32.11-.39l.1-.1c.1-.11.22-.22.31-.33s.1-.19.17-.27a.54.54,0,0,1,.17-.11,1.16,1.16,0,0,0,.43-.36L13.5,13s.09,0,.09,0,0-.07,0-.09l.15-.09-.06.13,0,0c.09-.07.22-.14.3-.2l0,0-.23.11,0-.06a3.5,3.5,0,0,1,.41-.24l1-.44a.46.46,0,0,1,.2,0h.08l.45-.13.21,0,.85,0a1.44,1.44,0,0,1,.35.08,3.37,3.37,0,0,1,.43.18,4.68,4.68,0,0,1,.46.28c.27.18.53.38.8.54a2.13,2.13,0,0,1,.64.62,2.9,2.9,0,0,1,.54.92l.14.62a.76.76,0,0,1,.07.36c0,.24-.09.48-.12.72a1,1,0,0,0,0,.28,1.76,1.76,0,0,1-.21.81c0,.09-.09.17-.14.26l.08,0L20,17.5h0c0,.13-.09.27-.13.41-.11.29-.23.6-.37.88a4.61,4.61,0,0,1-.3.44c-.09.13-.17.27-.26.4a1.34,1.34,0,0,1-.28.28,7.26,7.26,0,0,1-.79.53,2,2,0,0,1-.56.21Zm-5-.5h0l-.07,0L12,19.79a.11.11,0,0,1,0-.09c.1.16.21.31.32.46Zm5.88,1.29a3.83,3.83,0,0,0,1.1-.73,1,1,0,0,1,.15-.13,3.32,3.32,0,0,0,1-1,13.11,13.11,0,0,0,.75-1.39l.06-.1a21.42,21.42,0,0,0,.25,3.2l-3.25.11Zm9.58-.28,0,.06a.59.59,0,0,1,0-.08c-.06.15-.18.08-.26.08h-3c-.16,0-.33,0-.49,0l-1.16,0s-.06,0-.1-.08l-.06.08,0-.07,0,.08h0a2.73,2.73,0,0,1-.06-.39c0-.28,0-.57,0-.85,0-.13,0-.26,0-.38l.1.08.06-.09,0,0,0,0a.39.39,0,0,0,0-.08,1,1,0,0,0,0-.18h0l.06.28h0c0-.07.09-.12,0-.2s0-.07,0-.09a2,2,0,0,1-.08-.19l.07,0-.09,0c.09-.08.09-.13,0-.23l0,0a1.16,1.16,0,0,0,0-.26c0-.09,0-.21-.11-.26l0,.08-.06,0c-.12-.11,0-.26-.08-.43l.16.06c0-.07-.07-.14-.09-.23h0V17.2l.1,0v0l-.1-.12,0,0a.34.34,0,0,1,0-.26v-.66c.09.09,0,.22.09.27v-.09h0c0-.14,0-.28,0-.43h0l0,0h0c0-.75,0-1.49.06-2.26a2.92,2.92,0,0,1,.26.36,9.87,9.87,0,0,0,.77,1.1c.23.31.43.65.64,1L25,17.26c.19.29.39.59.59.87s.37.5.56.75l.49.65.57.78.3.4a1.13,1.13,0,0,0,.2.18h0l.07.09c.1.06.11.11.06.2Zm.48-2.36v-.07s0,0,0,.07Zm.32-4.17-.08-.07s0,.06,0,.09-.08,0-.08,0c0,.13.06.26,0,.4,0,0,.14,0,.17-.06l0,0c-.19.14-.14.28-.06.44s.08.11,0,.19,0,.08,0,.12h0v0l-.08,0s-.13-.09-.13-.13v.48c.09,0,.09.16.13.23l0-.08h0a1.1,1.1,0,0,1,0,.17,2.24,2.24,0,0,0,0,.25l0,0a2.83,2.83,0,0,0-.09.75c0,.18,0,.37,0,.56a4.49,4.49,0,0,1-.09.49s0,0-.08.06a.76.76,0,0,0,0-.29l-.14-.07a3.18,3.18,0,0,0,.1.46l-.15-.08c0,.11,0,.26,0,.39s-.09.18-.1.28.07.09.06.19h.08c0-.19.09-.36.09-.56h0s0,0,0,0a1.26,1.26,0,0,0,0,.32c0,.06,0,.11,0,.18a.92.92,0,0,0,0,.2.54.54,0,0,1,0-.09h-.1c0,.06.07.11.06.16l0,0-.31-.45L27,18.21a2.26,2.26,0,0,1-.17-.28,13.34,13.34,0,0,0-1-1.45c-.27-.35-.49-.73-.75-1.1l-.71-1c-.09-.11-.19-.22-.26-.34-.25-.39-.46-.78-.71-1.17s-.43-.63-.65-.95l-.23-.33a.14.14,0,0,1,0-.07c0-.21,0-.42,0-.61s0-.38,0-.58v-.17s0-.09,0-.13l0,0h-.83a.46.46,0,0,1-.4-.2,15.67,15.67,0,0,1-.94-1.3c-.29-.42-.6-.82-.9-1.23l-.74-1c-.27-.38-.54-.76-.82-1.13l-1-1.36c-.16-.21-.34-.41-.52-.62l.35,0,.45,0c.34,0,.68,0,1,.09l.86.14a12.13,12.13,0,0,1,1.83.47c.35.11.69.26,1,.41A20.83,20.83,0,0,1,24.14,5.4a2.22,2.22,0,0,1,.53.5c.25.26.49.51.73.78s.53.63.79,1l.72.85a3,3,0,0,1,.2.28c.15.23.32.44.45.69a3.92,3.92,0,0,1,.22.59l.28.87c.07.22.12.44.17.67s0,.31.08.46,0,.42.06.61l0,.07s.07.08,0,.13a.1.1,0,0,0,0,.08l0-.07s0,0,0,0a.46.46,0,0,0,0,.11.2.2,0,0,0,0,.07l.08-.06a3.75,3.75,0,0,1,.09,1,2.2,2.2,0,0,1-.08.93c0-.1,0-.2,0-.29Z" style="fill:#dd3735"/><path d="M22.56,18.34h0Zm1.49,9.34a.89.89,0,0,1-.34.17l0,0,.32-.2,0,.06ZM6.33,14.87l.32-.4.09,0L6.4,15s0-.08-.07-.09ZM3.65,19.51,3.42,19l.08,0a3.29,3.29,0,0,1,.23.49l-.08,0ZM6.06,15l-.17.26s-.11,0-.12,0S6,15,6,14.94l0,0Zm17,13.1h0l.22,0c-.12.09-.2.08-.24,0Zm-17-12.7a.39.39,0,0,1,0-.09h0c0-.07,0-.11.08-.17l0,0L6,15.21a.05.05,0,0,1,0,0c-.08,0-.1,0-.14.13s-.06,0-.1.08l0,.11h0l0,0-.18.16a.27.27,0,0,0,0,.09l.26-.26h0l.1-.17,0,0-.09.24,0,0-.1.09-.17.11-.29.25L5,16.49c.11,0,.14,0,.13.11s.14-.09.18-.16,0-.06,0-.07l.27-.22a.13.13,0,0,0,0-.09l-.08,0,.29-.36S6,15.63,6,15.6s.06-.13.13-.17a.1.1,0,0,1,0-.07Z" style="fill:#dd3735"/><path d="M6.27,15.26l-.11.19-.06,0a.56.56,0,0,1-.3.44.16.16,0,0,0,.1,0s0-.06.07-.08l.26-.37.09-.14,0,0ZM3.12,19.41h.15s0,0,0-.07h0s0,.09,0,.13h-.2s0-.07,0-.08ZM3,19S3,18.92,3,18.89s0-.08,0-.13l0,.19,0,0Zm.24-.6.11.29-.08,0-.12-.29.08,0Zm21,9,.18,0a2.23,2.23,0,0,0-.21.17l0,0,.06-.1ZM12.7,7.44l.16-.1,0,0-.17.25c0-.07,0-.1,0-.15Zm2.77,4.78.27-.12a.71.71,0,0,0,0,.13l-.09,0c-.06,0-.16.09-.21.09s0-.08,0-.09Zm7.09,8c0,.09.2.14,0,.24l.09,0,0,0s-.06,0-.08,0,0,0,0-.06,0-.17,0-.28Z" style="fill:#dd3735"/></g></svg>