<svg xmlns="http://www.w3.org/2000/svg" viewBox="0 0 32 32"><title>file_type_light_expo</title><g fill="none" transform="translate(4 3)"><path fill="#FFF" d="M.91 17L7.68 4.1 14.34.53l1.98 1L9.7 5.27l6.84 20.56-2.2-1.28-5.12-11.8-6.72 5.1z"/><ellipse cx="20.7" cy="11.33" fill="#FFF" rx="2.5" ry="2.33"/><path fill="#000" d="M22.52 10.29a2.2 2.2 0 0 0-1.83-.96 2.2 2.2 0 0 0-2.04 1.24c-.36.76-.2 1.66.39 2.28a3.3 3.3 0 0 0 3.48-2.56zm-6.72-8.8L14.36.7 8.09 4.19l.5.27.95.5 1.72-.95 4.54-2.53zm.58-.24c.08.02.14.08.16.15l2.1 6.2c.05.1 0 .21-.1.27a4.06 4.06 0 0 0-1.96 4.64 4.29 4.29 0 0 0 4.58 3.02c.11-.01.22.06.26.16l2.17 6.36c.03.1-.01.22-.1.28l-6.67 3.9a.26.26 0 0 1-.1.02c-.07.01-.13 0-.18-.03l-2.34-1.47a.24.24 0 0 1-.1-.1L9.53 14.14 2.57 18.1a.25.25 0 0 1-.05.02.24.24 0 0 1-.22-.01l-1.58-.9a.23.23 0 0 1-.1-.3L7.38 4.08a.24.24 0 0 1 .11-.1L14.23.22a.26.26 0 0 1 .24 0l1.91 1.03zM8.02 4.7l-.33-.17-6.52 12.41 1.19.67 5.62-7.35c.05-.07.14-.1.23-.1.09.02.16.07.2.15l6.12 14.1 1.64 1.01L9.6 6.21l-.28-.8-1.31-.72zM18.1 12.1a2.54 2.54 0 0 1 1.25-2.9 2.76 2.76 0 0 1 3.24.4 2.53 2.53 0 0 1 0 3.65 2.73 2.73 0 0 1-4.49-1.15z"/></g></svg>