<svg xmlns="http://www.w3.org/2000/svg" viewBox="0 0 32 32"><title>file_type_tiltfile</title><path d="M27.49,11.337h-.1a.267.267,0,0,0-.267.266v2.333a.267.267,0,0,0,.267.266h2.341A.267.267,0,0,0,30,13.936v-.971a.27.27,0,0,0-.126-.228L27.626,11.37A.256.256,0,0,0,27.49,11.337Z" style="fill:#20ba31"/><path d="M2,12.965v.966a.267.267,0,0,0,.267.266H4.608a.266.266,0,0,0,.267-.266V11.6a.266.266,0,0,0-.267-.265h-.1a.29.29,0,0,0-.141.037L2.122,12.737A.282.282,0,0,0,2,12.965Z" style="fill:#20ba31"/><path d="M11.552,11.6v.1a.289.289,0,0,0,.037.14l1.372,2.239a.265.265,0,0,0,.23.126h1.217a.266.266,0,0,0,.267-.266V11.608a.267.267,0,0,0-.267-.266H11.823A.26.26,0,0,0,11.552,11.6Z" style="fill:#20ba31"/><path d="M22.368,19.035v-.966A.267.267,0,0,0,22.1,17.8H19.76a.266.266,0,0,0-.267.266V20.4a.266.266,0,0,0,.267.265h.1A.29.29,0,0,0,20,20.63l2.247-1.367A.275.275,0,0,0,22.368,19.035Z" style="fill:#20ba31"/><path d="M10.573,11.6v2.309a.265.265,0,0,1-.267.266H8.8a.267.267,0,0,0-.267.266V20.4a.266.266,0,0,1-.266.266H5.68a.267.267,0,0,1-.267-.266V11.6a.266.266,0,0,1,.267-.265h4.626A.27.27,0,0,1,10.573,11.6Z" style="fill:#70d37b"/><path d="M26.591,11.6v8.8a.265.265,0,0,1-.267.265H23.74a.266.266,0,0,1-.267-.265V14.444a.267.267,0,0,0-.267-.266H21.7a.266.266,0,0,1-.267-.266V11.6a.267.267,0,0,1,.267-.266h4.626A.265.265,0,0,1,26.591,11.6Z" style="fill:#70d37b"/><path d="M18.688,20.667H16.1a.266.266,0,0,1-.267-.265V11.6a.266.266,0,0,1,.267-.265h2.585a.267.267,0,0,1,.267.265v8.8A.268.268,0,0,1,18.688,20.667Z" style="fill:#70d37b"/><path d="M14.464,20.667h-2.7a.209.209,0,0,1-.211-.209V15.121a.209.209,0,0,1,.211-.21h2.7a.21.21,0,0,1,.211.21v5.337A.213.213,0,0,1,14.464,20.667Z" style="fill:#70d37b"/></svg>