<svg xmlns="http://www.w3.org/2000/svg" viewBox="0 0 32 32"><title>file_type_perl</title><path d="M11.945,29.954a7.059,7.059,0,0,1-.976.041,1.411,1.411,0,0,1-1.063-.533c-.094-.205-.075-.249.216-.516a1.9,1.9,0,0,1,.723-.394c.365-.092.422-.142.577-.5.095-.22.279-.634.411-.92a5.006,5.006,0,0,0,.487-2.528c-.028-.424-.073-1.11-.1-1.524a1.7,1.7,0,0,0-.173-.857c-.081-.067-.125-.275-.125-.592a3.821,3.821,0,0,0-.13-.915,3.33,3.33,0,0,1-.129-.8c0-.2-.04-.383-.09-.4s-.06-.348,0-1.049a5.766,5.766,0,0,0,.041-1.106c-.1-.158-.384-.089-.525.125-.156.238-.632.386-.73.228-.044-.072-.093-.062-.173.034-.16.193-.269.169-.645-.141-.3-.244-.343-.259-.415-.13-.12.214-.468.177-.662-.069-.18-.229-.278-.207-.278.061,0,.122-.051.158-.2.137s-.2-.092-.22-.332a1.634,1.634,0,0,0-.124-.5c-.115-.226-.563-.48-.637-.361a.224.224,0,0,1-.174.08c-.088,0-.125-.1-.125-.351,0-.4-.131-.588-.386-.539-.232.044-.521-.419-.446-.716.029-.117.008-.233-.049-.268s-.077-.024-.039.038c.136.221-.091.081-.36-.221a2.356,2.356,0,0,1-.5-1.655,1.723,1.723,0,0,0-.134-.719c-.064-.04-.075-.162-.031-.354.084-.371.05-1.065-.055-1.1a.192.192,0,0,1-.08-.174,5.974,5.974,0,0,1,.422-1.21c.041-.083.2-.414.346-.735L5.672,7.9,5.329,7.73A1.852,1.852,0,0,0,4.5,7.556,1.209,1.209,0,0,1,3.42,7.126a1.522,1.522,0,0,1,.168-1.345c.392-.685.464-.725,1.571-.877,1.385-.19,1.379-.188,1.475-.454.155-.427.283-.627.4-.627a.2.2,0,0,0,.168-.13.206.206,0,0,1,.172-.13.7.7,0,0,0,.291-.106c.133-.083.232-.083.461,0a1.8,1.8,0,0,0,.481.106c.1,0,.189.04.189.089s.1.126.219.172a4.216,4.216,0,0,1,1.349,1.069,1.257,1.257,0,0,1,.168.544.612.612,0,0,0,.177.428,2.545,2.545,0,0,1,.357.453c.169.274.177.368.118,1.466s-.053,1.183.111,1.336.176.158.281-.1a5.413,5.413,0,0,1,.777-1.139,3.74,3.74,0,0,1,1.1-.806,7.842,7.842,0,0,0,1.28-1.389,3.161,3.161,0,0,0,.36-.81c.165-.556.245-.655,1.025-1.255.211-.162.315-.313.315-.456,0-.183.04-.213.285-.213a2.834,2.834,0,0,0,1.437-.54c.249-.21.341-.231,1.026-.233a2.486,2.486,0,0,0,.842-.092A.4.4,0,0,1,20.276,2c.158,0,.223.026.733.291a1.332,1.332,0,0,0,.5.143c.452,0,1.61,1.47,1.61,2.044a8.418,8.418,0,0,0,1.323,2.474A5.912,5.912,0,0,1,25.466,8.4a9.961,9.961,0,0,0,1.065,2.11,11.906,11.906,0,0,0,.843,1,5.858,5.858,0,0,1,.683.851c.237.418.331.972.194,1.138-.12.145.045.624.284.822.184.153.186.586,0,.689-.122.068-.126.119-.031.382a.58.58,0,0,1-.033.59,1.35,1.35,0,0,0-.143.451,3.251,3.251,0,0,1-.347.8,3.651,3.651,0,0,0-.347.76,1.138,1.138,0,0,1-.226.427,3.455,3.455,0,0,0-.348.581c-.236.545-.46.279-.457-.543a1.551,1.551,0,0,0-.134-.608.942.942,0,0,1,.112-1.113,1.543,1.543,0,0,0,.232-1.465,1.868,1.868,0,0,1-.134-.689c0-.231-.038-.421-.084-.421s-.079-.137-.073-.3c.02-.534-.07-.411-.239.326a13.643,13.643,0,0,0-.054,3.8,5.488,5.488,0,0,1,.206,2.19c-.085.416-.077.482.094.718.159.221.186.372.179,1a3.03,3.03,0,0,1-.157,1.08,5.018,5.018,0,0,0,.13,3.178,1.853,1.853,0,0,1,.172.757,1.208,1.208,0,0,0,.127.589.585.585,0,0,1-.127.849c-.308.259-1.182.473-1.33.326a.857.857,0,0,0-.452-.095,1.079,1.079,0,0,1-.518-.118c-.148-.108-.152-.153-.047-.543a1.941,1.941,0,0,1,.235-.565,2.786,2.786,0,0,0,.241-.825c.067-.376.182-.895.256-1.152a7.566,7.566,0,0,0-.036-2.744,4.02,4.02,0,0,1-.132-1c-.036-1.161-.126-1.654-.316-1.724a3.361,3.361,0,0,1-.767-1.465,1.594,1.594,0,0,0-.351-.8,4.829,4.829,0,0,1-.4-1.519l-.061-.521L23,16.071a3.451,3.451,0,0,1-.279.608,5.055,5.055,0,0,0-.341.729,3.4,3.4,0,0,0-.25,1.649c0,.573.029,1.355.07,1.738.072.666.066.707-.138.955a20.684,20.684,0,0,0-1.671,2.691c-.127.3-.126.342.007.489a.471.471,0,0,0,.245.16c.171,0,.566.475.656.787a3.47,3.47,0,0,1-.036,1.723,1.433,1.433,0,0,1-.543.149c-.394.045-.44.029-.693-.242a2.128,2.128,0,0,1-.391-.637l-.119-.347-.026.4a.854.854,0,0,1-.182.544,4.356,4.356,0,0,1-2.157.353c-.594-.053-.629-.068-.629-.269a1.648,1.648,0,0,1,.123-.508.613.613,0,0,1,.482-.4,1.52,1.52,0,0,0,.987-1.016c.129-.393.128-.405-.1-.719a13.036,13.036,0,0,0-1.971-1.728c-.637-.464-.776-.7-.788-1.343a9.02,9.02,0,0,0-.069-.941c-.037-.245-.024-.413.034-.448a1.555,1.555,0,0,0,.274-.414,2.033,2.033,0,0,0,.17-1.116,2.018,2.018,0,0,1,.077-.814.237.237,0,0,0,.089-.184c0-.1-.108-.124-.543-.1l-.543.026-.024,1.012c-.018.761-.056,1.038-.152,1.117a.386.386,0,0,0-.128.258.406.406,0,0,1-.139.267c-.1.086-.125.2-.084.455s.02.366-.075.438a2.578,2.578,0,0,0-.1,1.487,3.42,3.42,0,0,1-.425,1.712,2.5,2.5,0,0,0-.136.8,2.556,2.556,0,0,1-.094.719,5.806,5.806,0,0,0-.109,1.2c-.011.744-.048,1.01-.164,1.187-.082.126-.115.241-.073.257s.056.216.029.446c-.062.539-.253.667-1.132.756Zm-1.3-.28a4.029,4.029,0,0,0,1.71,0c.489-.137.57-.262.443-.685-.089-.3-.087-.384.015-.5.2-.234.236-.419.242-1.257a6.418,6.418,0,0,1,.09-1.121,5.707,5.707,0,0,0,.115-.879,2.9,2.9,0,0,1,.168-.847,8.057,8.057,0,0,0,.3-.818,1.057,1.057,0,0,0,.041-.868.923.923,0,0,1-.025-.669,1.613,1.613,0,0,0,.039-.629c-.046-.243-.029-.3.081-.3s.126-.059.084-.266a.582.582,0,0,1,.132-.517.941.941,0,0,0,.186-.376.212.212,0,0,1,.135-.176c.109-.042.125-.148.084-.552a5.838,5.838,0,0,1,.017-1.064l.068-.564.751-.011.751-.011v.293a.558.558,0,0,1-.073.338,1.368,1.368,0,0,0-.084.994.48.48,0,0,1,0,.466,3.006,3.006,0,0,1-.421.875,1.049,1.049,0,0,0,0,.527,1.2,1.2,0,0,1-.016.655c-.146.272.17.884.624,1.207a16.3,16.3,0,0,1,1.581,1.263,4.875,4.875,0,0,1,.922,1.127.964.964,0,0,1-.174.281.794.794,0,0,0-.174.356c0,.3-.389.708-.8.847s-.673.388-.673.653c0,.214.691.263,1.519.108s.994-.272.944-.707c-.041-.358.142-.676.345-.6a1,1,0,0,1,.267.474,1.953,1.953,0,0,0,.4.672c.219.209.286.232.453.152a3.375,3.375,0,0,1,.348-.143c.119-.038.152-.146.151-.507,0-.88-.378-1.63-.819-1.63-.115,0-.22-.091-.291-.251-.094-.213-.088-.309.039-.629A17.126,17.126,0,0,1,21.849,21.6c.256-.323.256-.323.16-.955a6.7,6.7,0,0,1,.243-3.578,2.775,2.775,0,0,0,.176-.449.494.494,0,0,1,.118-.2,2.663,2.663,0,0,0,.281-.6c.166-.474.345-.645.467-.448a4.2,4.2,0,0,1,.175.772,4.623,4.623,0,0,0,.4,1.245,2.752,2.752,0,0,1,.294.826,1.222,1.222,0,0,0,.2.547,4.509,4.509,0,0,1,.325.584c.067.155.173.282.234.282.195,0,.3.45.326,1.442a7.118,7.118,0,0,0,.178,1.476,8.24,8.24,0,0,1-.011,3.077,3.442,3.442,0,0,0-.242,1.358.632.632,0,0,1-.17.477,1.739,1.739,0,0,0-.273.558c-.049.229-.029.278.129.32a.717.717,0,0,0,.4-.05c.179-.081.236-.074.321.041s.174.127.526.061c.44-.082.741-.279.741-.486a.842.842,0,0,0-.14-.333.653.653,0,0,1-.083-.515.864.864,0,0,0-.091-.586A5.954,5.954,0,0,1,26.3,23a6.068,6.068,0,0,0,.181-1.112c.035-.57.019-.66-.154-.843-.208-.222-.229-.45-.1-1.1a2.418,2.418,0,0,0,0-.825c-.043-.227-.107-.608-.142-.846a2.752,2.752,0,0,0-.152-.608,13.7,13.7,0,0,1,.086-3.415,8.509,8.509,0,0,0,.159-.838c.018-.195.073-.267.219-.288.212-.03.369.242.369.641,0,.116.042.211.094.211s.074.12.035.351a1.016,1.016,0,0,0,.088.661,1.839,1.839,0,0,1,.116.936c-.027.533-.068.668-.275.914-.169.2-.212.308-.142.352a.21.21,0,0,1,.055.226,2.433,2.433,0,0,0,.056.7l.1.542.231-.29a2.078,2.078,0,0,0,.323-.63,3.407,3.407,0,0,1,.354-.754,1.418,1.418,0,0,0,.263-.758c0-.189.035-.344.077-.344.14,0,.163-.319.042-.605-.17-.405-.149-.508.112-.539l.231-.027-.252-.3c-.225-.266-.253-.366-.258-.911a2.35,2.35,0,0,0-.778-1.785,7.921,7.921,0,0,1-1.467-1.953c-.133-.286-.3-.634-.363-.773a1.216,1.216,0,0,1-.122-.375,4.162,4.162,0,0,0-.827-1.239,5.205,5.205,0,0,1-1.045-1.535,2.513,2.513,0,0,0-.28-.567,1.571,1.571,0,0,1-.2-.564,2.554,2.554,0,0,0-.914-1.566c-.418-.411-.612-.543-.8-.543a.526.526,0,0,1-.357-.13.46.46,0,0,0-.314-.13c-.114,0-.206-.045-.206-.1s-.067-.039-.163.048a.394.394,0,0,1-.392.09.921.921,0,0,0-.488.05c-.208.086-.285.085-.395-.006s-.166-.08-.325.1c-.207.231-.585.451-.715.417a1.268,1.268,0,0,0-.428.129,1.09,1.09,0,0,1-.543.1c-.16-.04-.2-.013-.2.148,0,.13-.149.312-.434.537a1.826,1.826,0,0,0-.431.412c0,.04-.057.073-.126.073-.142,0-.351.41-.443.868a1.468,1.468,0,0,1-.267.549,1.066,1.066,0,0,0-.206.312,8.376,8.376,0,0,1-1.257,1.284c-.1.058-.259.143-.361.189-.275.126-.813.619-.813.746a.354.354,0,0,1-.13.218,6.767,6.767,0,0,0-1,1.975,1.812,1.812,0,0,1-.13.572,1.74,1.74,0,0,0-.13.537c0,.2-.029.222-.282.2l-.282-.027-.025-.76c-.021-.627,0-.76.1-.76.082,0,.15-.119.185-.326.09-.533.137-.644.252-.6.083.032.093-.044.043-.319a4.487,4.487,0,0,1,0-1.012c.114-1.038-.08-1.761-.537-2.006-.126-.068-.154-.147-.115-.327a.789.789,0,0,0-.071-.475A4.108,4.108,0,0,0,8.737,4c-.109,0-.2-.035-.2-.079s-.071-.06-.158-.037a.293.293,0,0,1-.271-.095c-.143-.172-.265-.175-.265-.006a.131.131,0,0,1-.13.13c-.072,0-.13.044-.13.1s-.089.08-.21.057c-.217-.041-.3.05-.48.56-.1.267-.093.266-1.481.452-.993.133-1,.136-1.317.485a4.069,4.069,0,0,0-.5.692c-.16.306-.165.364-.054.579a1.272,1.272,0,0,0,1.2.546c.52,0,1.19.259,1.19.454A12.035,12.035,0,0,1,5.219,9.5,3.42,3.42,0,0,0,5.1,11.271a.527.527,0,0,1-.032.354c-.064.119-.063.179,0,.2a2.557,2.557,0,0,1,.124.954c.032.913.139,1.286.368,1.286a.125.125,0,0,1,.109.135c0,.074.041.11.091.079.167-.1.343.149.343.49,0,.185.036.337.08.337s.1.068.12.152c.03.114.042.1.05-.043.013-.261.218-.248.341.022.054.119.144.217.2.217s.082.109.046.335c-.05.314-.041.333.146.3a.342.342,0,0,1,.314.1.376.376,0,0,0,.233.137.126.126,0,0,1,.12.13c0,.072.077.13.174.13s.174.058.174.13a.126.126,0,0,0,.121.13.918.918,0,0,1,.383.3c.195.222.275.266.31.173a.611.611,0,0,1,.282-.232c.193-.088.241-.085.275.016a1.151,1.151,0,0,0,.259.326c.2.188.229.192.374.061a.571.571,0,0,1,.464-.105c.222.026.308,0,.308-.084,0-.066.117-.165.26-.219s.26-.129.26-.166.075-.068.167-.068c.218,0,.42.8.3,1.184a5.4,5.4,0,0,0-.008,1.659c.014.235.063.369.136.369s.1.1.057.38c-.038.251-.023.4.043.442s.081.213.041.534c-.049.393-.032.5.1.652s.164.324.169.843a6.159,6.159,0,0,0,.11,1.1,6.263,6.263,0,0,1-.6,3.539c-.046.085-.162.36-.256.613-.167.447-.185.463-.684.612a1.963,1.963,0,0,0-.7.349c-.175.186-.176.2-.03.324a1.923,1.923,0,0,0,.4.232Zm8.394-5.669a.61.61,0,0,0-.4-.13c-.332,0-.724-.217-.724-.4a1.458,1.458,0,0,0-.357-.488c-.53-.546-.564-.7-.275-1.252.152-.291.3-.463.394-.463s.152-.068.152-.211c0-.176.041-.21.248-.2a.815.815,0,0,0,.347-.054.316.316,0,0,0,.013-.442c-.139-.086-.1-.3.054-.3.1,0,.127-.053.093-.181a2.068,2.068,0,0,1,.052-.656c.079-.375.13-.467.244-.437.152.04.193-.1.328-1.156.074-.578.221-.868.44-.868.183,0,.245.2.3.955a14.929,14.929,0,0,0,.28,2.057,7.1,7.1,0,0,1,.1,1.609,2.947,2.947,0,0,1-.409,1.763c-.209.428-.419.827-.466.886A.244.244,0,0,1,19.042,24.005Zm-.3-.35a1.37,1.37,0,0,1,.441.14c.063.052.233-.212.521-.811a3.07,3.07,0,0,0,.457-1.638,4.82,4.82,0,0,0-.149-1.476,10.477,10.477,0,0,1-.229-1.508c-.028-.43-.072-.918-.1-1.084l-.047-.3-.125.3a1.055,1.055,0,0,0-.076.524,1.04,1.04,0,0,1-.073.518,1.353,1.353,0,0,0-.078.625c.042.312.031.332-.184.332s-.228.024-.228.429a.939.939,0,0,1-.079.477c-.043.027-.058.2-.033.384.049.363,0,.425-.452.576-.231.077-.257.12-.231.381.028.284.02.293-.225.244-.226-.045-.271-.017-.4.251l-.144.3.391.418a2.1,2.1,0,0,1,.391.5c0,.159.3.351.651.414ZM10.553,11.01c.015.288.069.5.134.517s.109-.048.109-.191a1.744,1.744,0,0,1,.13-.539,1.813,1.813,0,0,0,.13-.573,1.415,1.415,0,0,1,.181-.575c.1-.173.129-.253.065-.178a.786.786,0,0,1-.268.193c-.111.042-.152.154-.152.415,0,.288-.035.367-.178.4s-.175.1-.152.528Z" style="fill:#3a3c5b"/><path d="M19.289,2.3c-.548-.065-.961.3-1.419.506-.368.206-.815.152-1.185.309-.282.579-.941.908-1.3,1.443a5.7,5.7,0,0,1-1.942,2.694,5.463,5.463,0,0,0-2.368,3.394c-.145.3-.122.746-.277,1.005-.511.143-.239-.516-.3-.825-.074-.47.341-.77.373-1.226a1.839,1.839,0,0,0,.209-1.053c-.056-.814.189-1.807-.393-2.477-.349-.2-.239-.623-.366-.947a4.208,4.208,0,0,0-1.3-1.139c-.419-.041-.806-.542-1.232-.323-.266.309-.763.305-.922.713-.1.516-.688.374-1.068.5-.488.185-1.118.006-1.518.382-.411.41-1.034.961-.835,1.606.457.882,1.645.438,2.317.974A18.079,18.079,0,0,1,5.036,9.61a10.042,10.042,0,0,0-.044,2.332c.123.773-.083,1.772.606,2.319.38.137.357.572.5.887.134.29.427-.113.543.193.338.184.037.561.22.8.263.137.639.128.822.426a6.835,6.835,0,0,1,.975.806c.23.467.531-.454.783-.109.17.285.506.522.819.285a2.991,2.991,0,0,0,1.324-.556,18.036,18.036,0,0,1,.171,2.718,11.681,11.681,0,0,1,.29,2,9.43,9.43,0,0,1,.3,2.03,7.114,7.114,0,0,1-.709,4.16,1.012,1.012,0,0,1-.807.8c-.291.13-.9.366-.692.776a2.549,2.549,0,0,0,2.52.214c.51-.243.073-.858.334-1.226.343-1.3.174-2.691.575-3.985a3.762,3.762,0,0,0,.3-2.1c.079-.44-.105-.969.187-1.329a1.808,1.808,0,0,1,.483-1.2,14.749,14.749,0,0,0,.144-2.026,3.214,3.214,0,0,1,1.267-.127c.018.375-.272.812-.19,1.234A1.948,1.948,0,0,1,15.5,20.3a2.846,2.846,0,0,0,.168,2.308c.782.839,1.8,1.432,2.536,2.327.314.205.2.517.038.784a1.531,1.531,0,0,1-.987,1.034c-.308.121-.806.566-.442.882a3.908,3.908,0,0,0,2.178-.144c.476-.171.3-.738.488-1.088.3.233.423.765.711,1.069.3.433.807.073,1.156-.062a3.545,3.545,0,0,0-.372-1.842c-.167-.378-.8-.385-.77-.852a11.77,11.77,0,0,1,1.712-3c.51-.479.13-1.191.158-1.8A6.76,6.76,0,0,1,23.158,15.5a15.854,15.854,0,0,0,.692,2.14,6.236,6.236,0,0,0,1.1,2.246c.237.811.176,1.71.331,2.551a10.438,10.438,0,0,1-.242,4.347c.04.518-.457.9-.415,1.408.14.469.7.093.99.29a1.11,1.11,0,0,0,1.324-.572,6.246,6.246,0,0,1-.247-1.223,7.453,7.453,0,0,1-.255-3.719c.046-.669.457-1.5-.073-2.072-.148-.619.1-1.285-.049-1.915a12.874,12.874,0,0,1-.122-4.933c.093-.227.013-.649.247-.775a1.851,1.851,0,0,1,.315,1.232,3.7,3.7,0,0,1,.079,2.081c-.424.531-.163,1.248-.109,1.85.068.422.516.118.589-.144a11.824,11.824,0,0,0,.944-2.241c.269-.356.014-.77,0-1.142.413-.049.256-.506.035-.705a5.932,5.932,0,0,0-.667-2.2,10.475,10.475,0,0,1-1.941-2.723c-.528-1.639-2.042-2.726-2.556-4.379a3.556,3.556,0,0,0-1.652-2.317,7.805,7.805,0,0,0-1.156-.415A6.531,6.531,0,0,1,19.289,2.3Zm.4,14.66a38.936,38.936,0,0,1,.5,4.291,4.175,4.175,0,0,1-.76,2.517c-.12.425-.486.012-.751-.016-.643-.018-.882-.683-1.232-1.107-.36-.344-.1-.805.133-1.131.252-.179.35-.579.708-.548.4-.007.316-.487.26-.743.238-.362.092-.892.328-1.283.419-.182.294-.82.442-1.18.115-.256.017-.749.334-.854C19.688,16.9,19.7,16.918,19.693,16.958Z" style="fill:#3a3c5b"/></svg>