<svg xmlns="http://www.w3.org/2000/svg" fill="none" viewBox="0 0 32 32"><path fill="#E5E5E5" d="M0 0h32v32H0z"/><path fill="#fff" d="M0 0h32v32H0z"/><g clip-path="url(#clip0)"><path fill="#0087BE" d="M15.9796 27.9767L5.57267 22.0174V9.99709h.01454L3 8.5v15L15.9796 31v-3.0233z"/><path fill="#0087BE" d="M15.9796 16l-7.77612-4.4913h-.01453v8.9971l7.79065 4.4622V16z"/><path fill="#1AA6E4" d="M28.9738 8.5L15.9797 1 3 8.5l2.58721 1.49709 10.39249-6.0029 10.4215 5.98837L28.9738 8.5z"/><path fill="#1AA6E4" d="M23.7849 11.4942l-7.7907-4.49127-7.79071 4.50577L15.9797 16l7.8052-4.5058z"/><path fill="#0092CF" d="M15.9796 16l7.8053-4.5058L15.9796 16zM26.4012 9.98256L28.9738 8.5l-2.5726 1.48256zM28.9738 8.5l-2.5726 1.48256-2.6163 1.51164L15.9796 16v8.968l7.8053-4.4767v-2.9651l-5.2326 2.9796v-3.0232l7.8489-4.4623v8.9971l-10.4216 5.9593V31l12.9942-7.5v-15z"/></g><defs><clipPath id="clip0"><path fill="#fff" d="M0 0h25.9738v30H0z" transform="translate(3 1)"/></clipPath></defs></svg>