<svg id="background" xmlns="http://www.w3.org/2000/svg" viewBox="0 0 32 32">
  <title>file_type_typescript@2x</title>
  <rect width="32" height="32" style="fill: #fff;opacity: 0"/>
  <g id="typescript">
    <path d="M23.62,8.68A4.62,4.62,0,0,1,25.93,10a6.07,6.07,0,0,1,.92,1.18s-1.59,1.13-2.57,1.73a1.61,1.61,0,0,1-.33-0.36,2.09,2.09,0,0,0-1.74-1A1.52,1.52,0,0,0,20.36,13a1.35,1.35,0,0,0,.16.69c0.25,0.51.7,0.81,2.14,1.43,2.64,1.14,3.77,1.85,4.48,2.95a5.35,5.35,0,0,1,.43,4.5,5,5,0,0,1-4.09,2.92,11.32,11.32,0,0,1-2.77,0,6.78,6.78,0,0,1-3.75-2A6.52,6.52,0,0,1,16,22.12a2.77,2.77,0,0,1,.34-0.21l1.32-.82,1.06-.62L19,20.79a5,5,0,0,0,1.4,1.34,3.43,3.43,0,0,0,3.59-.18,1.61,1.61,0,0,0,.2-2c-0.29-.41-0.87-0.76-2.53-1.48a9.14,9.14,0,0,1-3.48-2.14,4.86,4.86,0,0,1-1-1.85,7.4,7.4,0,0,1-.06-2.36,4.49,4.49,0,0,1,3.76-3.5A9.35,9.35,0,0,1,23.62,8.68ZM15,10.22v1.51H10.14V25.39H6.77V11.73H2V10.25A14.53,14.53,0,0,1,2,8.73H14.91Z" style="fill: #007acc"/>
  </g>
</svg>
