<svg xmlns="http://www.w3.org/2000/svg" viewBox="0 0 32 32"><title>file_type_css</title><g id="css"><polygon points="5.9 27.2 3.66 2 28.34 2 26.09 27.2 15.98 30 5.9 27.2" style="fill:#1572b6"/><polygon points="16 27.86 24.17 25.59 26.09 4.06 16 4.06 16 27.86" style="fill:#33a9dc"/><polygon points="16 13.19 20.09 13.19 20.37 10.03 16 10.03 16 6.93 16.01 6.93 23.75 6.93 23.68 7.76 22.92 16.28 16 16.28 16 13.19" style="fill:#fff"/><polygon points="16.02 21.22 16 21.22 12.56 20.29 12.34 17.83 10.67 17.83 9.24 17.83 9.67 22.68 16 24.44 16.02 24.43 16.02 21.22" style="fill:#ebebeb"/><polygon points="19.83 16.15 19.45 20.29 16.01 21.22 16.01 24.44 22.34 22.68 22.39 22.16 22.93 16.15 19.83 16.15" style="fill:#fff"/><polygon points="16.01 6.93 16.01 8.86 16.01 10.02 16.01 10.03 8.55 10.03 8.55 10.03 8.54 10.03 8.48 9.33 8.34 7.76 8.27 6.93 16.01 6.93" style="fill:#ebebeb"/><polygon points="16 13.19 16 15.11 16 16.27 16 16.28 12.61 16.28 12.61 16.28 12.6 16.28 12.54 15.59 12.4 14.02 12.32 13.19 16 13.19" style="fill:#ebebeb"/></g></svg>