<svg viewBox="0 0 32 32" xmlns="http://www.w3.org/2000/svg"><path d="m24.037 2.072 5.564 5.8v22.056h-20.787v.072h20.856v-22.055z" fill="#909090"/><path d="m23.965 2h-15.223v27.928h20.858v-22.055z" fill="#231612"/><path d="m23.893 2.072v5.874h5.633z" fill="#4c4442"/><path d="m23.965 2v5.873h5.635z" fill="#f36617"/><path d="m2.384 10.264h6.359v-6.832h-6.359z" fill="#909090"/><path d="m8.743 10.264h13.718v-6.832h-13.718z" fill="#4c4442"/><path d="m22.407 10.211h-20.077v-6.832h20.077z" fill="#f36617"/><path d="m18.1 20.619c-.275-1.07-.948-3.226-1.223-4.344h-.014c-.206 1.054-.769 2.859-1.181 4.344zm-2.775 1.566-.838 2.779c-.014.1-.055.128-.137.128h-1.4c-.1 0-.124-.048-.1-.16.742-2.444 1.992-6.516 2.871-9.279a3.686 3.686 0 0 0 .11-.878.086.086 0 0 1 .082-.1h1.9c.069 0 .082.016.11.08 1.016 3.274 2.129 6.884 3.173 10.19q.041.144-.082.144h-1.542c-.069 0-.1-.032-.124-.1l-.879-2.811h-3.146" fill="#f46c25"/><path d="m22.29 17.547c0-.1.027-.128.094-.128h1.431c.081 0 .108.016.108.128v7.506c0 .08-.027.128-.108.128h-1.4c-.081 0-.121-.032-.121-.144v-7.49zm-.09-2.173a.918.918 0 0 1 .918-.99.884.884 0 0 1 .891.99.908.908 0 1 1 -1.809 0" fill="#f46c25"/><g fill="#231612"><path d="m11.238 5.279h-.013l-.325 2.073h.652zm-1.738 4.021 1.06-4.86h1.355l1.033 4.86h-1.138l-.15-1.133h-.882l-.144 1.133z"/><path d="m13.438 9.3v-4.86h1.086v4.86z"/></g></svg>