<svg xmlns="http://www.w3.org/2000/svg" viewBox="0 0 32 32"><title>file_type_sass@2x</title><g id="sass"><path d="M26.11,17.57a5.8,5.8,0,0,0-2.54.59A5.35,5.35,0,0,1,23,16.85a3.53,3.53,0,0,1-.05-1.1,9.81,9.81,0,0,1,.33-1.19c0-.05-.06-.29-.62-.3s-1,.11-1.1.26a6.17,6.17,0,0,0-.24.83,19.69,19.69,0,0,1-1.71,3.29,3.19,3.19,0,0,1-.44-2.07,9.81,9.81,0,0,1,.33-1.19c0-.05-.06-.29-.62-.3s-1,.11-1.1.26-.12.5-.24.83-1.48,3.39-1.84,4.17c-.18.4-.34.73-.46.95h0l0,0-.15.29h0c-.08.14-.16.27-.2.27a1.71,1.71,0,0,1,0-.87c.2-1.06.69-2.71.69-2.76s.09-.32-.32-.47a.51.51,0,0,0-.58.1s-.06.09-.06.09.44-1.85-.85-1.85a3.85,3.85,0,0,0-2.48,1.68l-1.88,1-.91.5-.06-.07C6.87,17.6,4,16.42,4.1,14.17c0-.82.33-3,5.56-5.57C14,6.47,17.39,7.06,18,8.37c.85,1.86-1.84,5.32-6.29,5.82a3.35,3.35,0,0,1-2.81-.71c-.24-.26-.27-.27-.36-.22s-.05.31,0,.44A2.63,2.63,0,0,0,10.13,15a8.55,8.55,0,0,0,5.22-.52c2.7-1,4.8-3.94,4.18-6.37S14.82,4.79,11,6.17A19.5,19.5,0,0,0,4.36,10c-2.13,2-2.47,3.73-2.33,4.45.5,2.58,4.05,4.26,5.47,5.5L7.3,20c-.71.35-3.42,1.77-4.1,3.27-.77,1.7.12,2.92.71,3.08a4.37,4.37,0,0,0,4.71-1.91A4.72,4.72,0,0,0,9,20.1l0,0,.56-.33c.36-.21.72-.41,1-.58A6.74,6.74,0,0,0,10.25,21a3.89,3.89,0,0,0,.83,2.7.92.92,0,0,0,.68.22c.6,0,.87-.5,1.18-1.09s.7-1.57.7-1.57-.41,2.28.71,2.28c.41,0,.82-.53,1-.8h0l0-.05.07-.11h0c.16-.29.53-.94,1.08-2,.71-1.39,1.39-3.13,1.39-3.13a8.89,8.89,0,0,0,.27,1.13,10.64,10.64,0,0,0,.58,1.31l-.27.36h0c-.13.17-.28.36-.43.55a16.3,16.3,0,0,0-1.31,1.65.45.45,0,0,0,.12.6,1.12,1.12,0,0,0,.69.11,3.15,3.15,0,0,0,1-.24,3.45,3.45,0,0,0,.88-.47,2,2,0,0,0,.85-1.74A3.52,3.52,0,0,0,20,19.48l.15-.21a23.43,23.43,0,0,0,1.53-2.65A8.89,8.89,0,0,0,22,17.75a7.57,7.57,0,0,0,.5,1.13A4.86,4.86,0,0,0,21,20.8c-.32.93-.07,1.35.4,1.45a1.43,1.43,0,0,0,.75-.15,3.4,3.4,0,0,0,.95-.49,2.13,2.13,0,0,0,1-1.73,3.27,3.27,0,0,0-.24-1,5.36,5.36,0,0,1,2.72-.31c2.43.29,2.92,1.81,2.82,2.44a1.62,1.62,0,0,1-.77,1.09c-.17.11-.23.14-.21.22s.1.11.25.09A1.9,1.9,0,0,0,30,20.7c.08-1.5-1.36-3.15-3.89-3.13ZM7.33,23.9c-.81.88-1.93,1.21-2.42.93s-.32-1.6.68-2.53a12.88,12.88,0,0,1,1.9-1.42l.5-.3.06,0H8l.12-.08a3.49,3.49,0,0,1-.83,3.43Zm5.88-4c-.28.69-.87,2.44-1.23,2.34s-.5-1.41-.06-2.73a6.19,6.19,0,0,1,1-1.75c.44-.49.93-.65,1-.46a9.06,9.06,0,0,1-.71,2.59Zm4.85,2.32c-.12.06-.23.1-.28.07s.05-.1.05-.1.61-.65.85-1l.48-.61v.07c0,.78-.76,1.31-1.09,1.52Zm3.74-.85c-.09-.06-.07-.27.22-.91a3.41,3.41,0,0,1,.83-1.07,1.45,1.45,0,0,1,.08.47,1.55,1.55,0,0,1-1.14,1.51Z" style="fill:#cd6799"/></g></svg>