<svg xmlns="http://www.w3.org/2000/svg" viewBox="0 0 32 32"><title>file_type_casc</title><polygon points="21.589 2.264 9.991 2.264 1.79 10.465 1.79 22.063 9.991 30.264 21.589 30.264 29.79 22.063 29.79 10.465 21.589 2.264"/><polygon points="10.176 2.743 9.582 9.055 21.082 2.743 10.176 2.743" style="fill:#00c7ff"/><polygon points="21.378 2.774 29.28 10.676 16.393 6.725 21.378 2.774" style="fill:#00c7ff"/><polygon points="29.28 10.991 29.28 21.295 22.419 9.605 29.28 10.991" style="fill:#00c7ff"/><polygon points="29.28 21.851 21.728 29.403 24.829 16.535 29.28 21.851" style="fill:#00c7ff"/><polyline points="9.736 3.241 6.644 15.45 2.377 10.6" style="fill:#ff6a00"/><polygon points="2.301 10.836 8.957 22.086 2.301 21.851 2.301 10.836" style="fill:#ff6a00"/><polygon points="10.203 29.753 15.238 24.961 2.536 22.086 10.203 29.753" style="fill:#ff6a00"/><polygon points="10.613 29.753 21.728 22.743 21.378 29.753 10.613 29.753" style="fill:#ff6a00"/><path d="M11.1,9.964a2.34,2.34,0,0,1,.675.388l-.4.471a1.618,1.618,0,0,0-1.073-.382,1.457,1.457,0,0,0-.772.206,1.411,1.411,0,0,0-.541.667,3.009,3.009,0,0,0-.2,1.191,3.025,3.025,0,0,0,.2,1.176,1.389,1.389,0,0,0,.531.668,1.452,1.452,0,0,0,.781.209,1.693,1.693,0,0,0,.662-.116,2.054,2.054,0,0,0,.524-.321l.37.475a2.01,2.01,0,0,1-.66.424,2.416,2.416,0,0,1-.914.159,2.194,2.194,0,0,1-1.16-.31,2.114,2.114,0,0,1-.8-.915,3.279,3.279,0,0,1-.294-1.449,3.216,3.216,0,0,1,.3-1.443,2.159,2.159,0,0,1,.81-.912,2.133,2.133,0,0,1,1.131-.311A2.522,2.522,0,0,1,11.1,9.964Z" style="fill:#fff"/><path d="M15.615,15.085,15.226,13.8H13.274l-.388,1.282h-.745L13.8,9.933h.934L16.4,15.085Zm-1.361-4.554-.808,2.677h1.608Z" style="fill:#fff"/><path d="M18.144,21.081a1.511,1.511,0,0,1-.66.54,2.491,2.491,0,0,1-1.03.194,2.94,2.94,0,0,1-1.045-.175,2.292,2.292,0,0,1-.8-.5l.423-.475a1.987,1.987,0,0,0,.632.4,2.119,2.119,0,0,0,.8.141,1.566,1.566,0,0,0,.57-.1.931.931,0,0,0,.415-.305.792.792,0,0,0,.156-.5.807.807,0,0,0-.1-.413.836.836,0,0,0-.332-.3,3.438,3.438,0,0,0-.67-.258,4.885,4.885,0,0,1-.918-.359,1.527,1.527,0,0,1-.551-.475,1.265,1.265,0,0,1,.028-1.38,1.44,1.44,0,0,1,.609-.478,2.173,2.173,0,0,1,.885-.172,2.668,2.668,0,0,1,.934.151,2.339,2.339,0,0,1,.745.451l-.412.463a1.787,1.787,0,0,0-.581-.349,1.91,1.91,0,0,0-.653-.114,1.249,1.249,0,0,0-.708.185.6.6,0,0,0-.279.533.582.582,0,0,0,.116.366,1.044,1.044,0,0,0,.383.277,5.4,5.4,0,0,0,.761.273,3.882,3.882,0,0,1,.8.318,1.425,1.425,0,0,1,.518.484,1.563,1.563,0,0,1-.034,1.567Z" style="fill:#fff"/><path d="M22.019,16.6a2.313,2.313,0,0,1,.675.387l-.4.471a1.622,1.622,0,0,0-1.073-.381,1.456,1.456,0,0,0-.772.205,1.409,1.409,0,0,0-.541.668,3.01,3.01,0,0,0-.2,1.191,3.034,3.034,0,0,0,.194,1.176,1.392,1.392,0,0,0,.531.667,1.444,1.444,0,0,0,.781.21,1.712,1.712,0,0,0,.662-.116,2.058,2.058,0,0,0,.524-.322l.37.475a1.994,1.994,0,0,1-.66.424,2.416,2.416,0,0,1-.914.159,2.188,2.188,0,0,1-1.159-.31,2.112,2.112,0,0,1-.806-.914,3.285,3.285,0,0,1-.294-1.449,3.224,3.224,0,0,1,.3-1.444,2.166,2.166,0,0,1,.81-.912,2.132,2.132,0,0,1,1.131-.31A2.5,2.5,0,0,1,22.019,16.6Z" style="fill:#fff"/></svg>