<svg xmlns="http://www.w3.org/2000/svg" viewBox="0 0 32 32"><title>file_type_liquid</title><path d="M17.047,15.619a2.96,2.96,0,0,1,.329.018.886.886,0,0,1-.416-.753v-2.53c0-.106,0-.2-.112-.2h-.689a.173.173,0,0,0-.161.184v2.589a1.759,1.759,0,0,0,.2.8A3.133,3.133,0,0,1,17.047,15.619Zm6.47,0V12.958H24.1a1.313,1.313,0,0,1,1.322,1.3q0,.033,0,.067a1.289,1.289,0,0,1-1.232,1.344h-.067a4.513,4.513,0,0,1,1.292.531,2.079,2.079,0,0,0,1.007-1.849,2.212,2.212,0,0,0-2.226-2.2H22.871c-.1,0-.32.093-.32.2v3.358a3.913,3.913,0,0,1,.908-.09C23.5,15.619,23.357,15.619,23.517,15.619Zm-3.838-.688V12.354c0-.1,0-.2-.1-.2h-.689a.176.176,0,0,0-.16.19v2.546a.83.83,0,0,1-.72.854,11.994,11.994,0,0,1,1.163.512A1.7,1.7,0,0,0,19.679,14.931Zm.96,1.527a1.816,1.816,0,0,0,.96-.291V12.394c0-.106-.014-.235-.12-.235h-.742c-.106,0-.1.13-.1.235ZM8.8,16.259v-.533a.2.2,0,0,0-.187-.209H7.045V12.354a.2.2,0,0,0-.186-.2H6.289a.206.206,0,0,0-.2.2v3.6a3.08,3.08,0,0,0,1.6.517A2.746,2.746,0,0,0,8.8,16.259Zm1.439-3.865A.289.289,0,0,0,10,12.158h-.48a.272.272,0,0,0-.232.235v3.565a2.9,2.9,0,0,1,.96-.3Zm18,6.792a3,3,0,0,1-3.024,0,3.294,3.294,0,0,0-3.3,0,3,3,0,0,1-3.024,0,3.293,3.293,0,0,0-3.3,0,3,3,0,0,1-3.022,0,3.038,3.038,0,0,0-1.649-.443,3.029,3.029,0,0,0-1.649.443,2.749,2.749,0,0,1-1.511.408,2.751,2.751,0,0,1-1.511-.408,3.029,3.029,0,0,0-1.649-.443,3.029,3.029,0,0,0-1.65.443,2.9,2.9,0,0,1-.96.363v.3a3.115,3.115,0,0,0,1.1-.4,2.749,2.749,0,0,1,1.511-.408,2.751,2.751,0,0,1,1.511.408,3.029,3.029,0,0,0,1.649.443,3.029,3.029,0,0,0,1.65-.443,2.749,2.749,0,0,1,1.511-.408,2.751,2.751,0,0,1,1.511.408,3.29,3.29,0,0,0,3.3,0,3,3,0,0,1,3.024,0,3.294,3.294,0,0,0,3.3,0,3,3,0,0,1,3.024,0,3.294,3.294,0,0,0,3.3,0,2.751,2.751,0,0,1,1.511-.408H30v-.286h-.1a3.038,3.038,0,0,0-1.649.438Z" style="fill:#009"/><path d="M29.9,16.419a3.026,3.026,0,0,0-1.649.449,3,3,0,0,1-3.024,0,3.3,3.3,0,0,0-3.3,0,3,3,0,0,1-3.024,0,3.293,3.293,0,0,0-3.3,0,3.44,3.44,0,0,1-.328.16l-.64-.9a2.256,2.256,0,0,0,.825-1.724,2.3,2.3,0,1,0-4.243,1.244c1.081.149,1.27.777,2.559.816l.427.8H14.1a2.752,2.752,0,0,1-1.511-.408,3.038,3.038,0,0,0-1.649-.443,3.029,3.029,0,0,0-1.649.443,2.749,2.749,0,0,1-1.511.408,2.751,2.751,0,0,1-1.511-.408,3.029,3.029,0,0,0-1.649-.443,3.029,3.029,0,0,0-1.657.461,2.9,2.9,0,0,1-.96.365v.3a3.114,3.114,0,0,0,1.1-.4,2.749,2.749,0,0,1,1.511-.408,2.751,2.751,0,0,1,1.511.408,3.029,3.029,0,0,0,1.649.443,3.029,3.029,0,0,0,1.649-.443,2.749,2.749,0,0,1,1.511-.408,2.751,2.751,0,0,1,1.511.408,3.293,3.293,0,0,0,3.3,0,3,3,0,0,1,3.024,0,3.294,3.294,0,0,0,3.3,0,3,3,0,0,1,3.024,0,3.294,3.294,0,0,0,3.3,0,2.751,2.751,0,0,1,1.511-.408H30v-.3Zm-16.74-.662a1.353,1.353,0,0,1,0-2.7,1.374,1.374,0,0,1,1.351,1.358A1.351,1.351,0,0,1,13.156,15.757Z" style="fill:#009"/><path d="M28.247,18.027a3,3,0,0,1-3.024,0,3.294,3.294,0,0,0-3.3,0,3,3,0,0,1-3.024,0,3.293,3.293,0,0,0-3.3,0,3,3,0,0,1-3.022,0,3.038,3.038,0,0,0-1.649-.443,3.029,3.029,0,0,0-1.649.443,2.749,2.749,0,0,1-1.511.408,2.751,2.751,0,0,1-1.511-.408,3.029,3.029,0,0,0-1.649-.443,3.029,3.029,0,0,0-1.65.443,2.9,2.9,0,0,1-.96.365v.3a3.114,3.114,0,0,0,1.1-.4,2.749,2.749,0,0,1,1.511-.408,2.751,2.751,0,0,1,1.511.408,3.029,3.029,0,0,0,1.649.443,3.029,3.029,0,0,0,1.649-.443,2.749,2.749,0,0,1,1.511-.408,2.751,2.751,0,0,1,1.511.408,3.293,3.293,0,0,0,3.3,0,3,3,0,0,1,3.024,0,3.294,3.294,0,0,0,3.3,0,3,3,0,0,1,3.024,0,3.294,3.294,0,0,0,3.3,0,2.751,2.751,0,0,1,1.511-.408H30v-.286h-.1a3.038,3.038,0,0,0-1.649.438Z" style="fill:#009"/></svg>