<svg xmlns="http://www.w3.org/2000/svg" viewBox="0 0 32 32"><title>file_type_purescript</title><g id="purescript"><rect width="32" height="32" style="fill:#16171b"/><polygon points="21.89 22.14 19.71 20.09 10.11 20.09 12.29 22.14 21.89 22.14" style="fill:#fff"/><polygon points="12.29 14.98 10.11 17.02 19.71 17.02 21.89 14.98 12.29 14.98" style="fill:#fff"/><polygon points="21.89 11.91 19.71 9.86 10.11 9.86 12.29 11.91 21.89 11.91" style="fill:#fff"/><path d="M9.1,13.93,7.65,12.48,2.3,17.84a1,1,0,0,0,0,1.44l5.35,5.35L9.1,23.19,4.46,18.56Z" style="fill:#fff"/><path d="M29.7,12.72,24.35,7.37,22.9,8.81l4.63,4.63L22.9,18.08l1.44,1.44,5.35-5.35a1,1,0,0,0,0-1.44Z" style="fill:#fff"/></g></svg>