<svg viewBox="0 0 32 32" xmlns="http://www.w3.org/2000/svg" xmlns:xlink="http://www.w3.org/1999/xlink"><symbol id="a" viewBox="0 0 45.72 26.28"><path d="m0 0h45.72v26.28h-45.72z" fill="none"/><path d="m0 16.309h22.926v9.971l22.794-13.141-22.794-13.139v9.97h-22.926z" fill="#231f20"/></symbol><path d="m14.261 29.519-.007-.457 12.926-5.511 2.038.288-.012.385-12.942 6.334z" fill="#977753"/><path d="m14.268 29.067 12.912-5.877 2.05.663-12.966 6.264z" fill="#7a552c"/><path d="m14.258 27.63 2.01 1.086v1.416l-2.01-1.086z" fill="#886947"/><path d="m29.139 22.465-1.521.766v1.416l1.521-.766z" fill="#9a7246"/><path d="m20.178 24.751 2.01 1.086v1.416l-2.01-1.086z" fill="#694a27"/><path d="m23.708 25.072-1.521.766v1.416l1.521-.766z" fill="#9a7246"/><path d="m8.722 26.749-.007-.4 12.925-5.514 2.038.288-.012.385-12.942 6.28z" fill="#715a40"/><path d="m8.719 24.914 2.009 1.086v1.416l-2.01-1.086v-1.416z" fill="#886947"/><path d="m12.249 25.234-1.521.766v1.416l1.521-.766z" fill="#6d471e"/><path d="m3.454 24.088-.007-.349 12.926-5.511 2.038.288-.011.384-12.944 6.227z" fill="#7a5f41"/><path d="m3.451 22.308 2.01 1.086v1.416l-2.01-1.086z" fill="#886947"/><path d="m6.981 22.628-1.521.766v1.416l1.521-.766z" fill="#6d471e"/><path d="m3.345 22.622-.007-.282s2.539-.09 1.689.115c1.053-.663 11.155-4.555 11.155-4.555l12.961 4.44.062.279-12.942 6.09z" fill="#977753"/><path d="m3.3 22.36 12.966-4.519 12.963 4.519-12.965 6.019z" fill="#c69c6d"/><path d="m16.372 6.64-6.2-2.481v8.123l6.2 2.522z" fill="#e5ac3d" stroke="#73561f" stroke-miterlimit="10" stroke-width=".054309"/><path d="m16.331 6.674 6.115-2.435-6.146-2.531-6.141 2.467z" fill="#e3b04e" stroke="#73561f" stroke-miterlimit="10" stroke-width=".054071"/><use height="26.28" transform="matrix(0 -.029 .022 .013 10.56 6.25)" width="45.72" xlink:href="#a"/><g stroke="#73561f" stroke-miterlimit="10"><path d="m22.509 17.109 6.2-2.481v7.311l-6.2 2.878z" fill="#e5ac3d" stroke-width=".054309"/><path d="m22.5 9.134 6.2-2.415v7.906l-6.2 2.509z" fill="#e5ac3d" stroke-width=".054309"/><path d="m22.433 9.119-6.033-2.562 6.062-2.274 6.2 2.4z" fill="#e3b04e" stroke-width=".054309"/><path d="m10.072 17.092-6.2-2.392v7.375l6.2 2.847z" fill="#e5ac3d" stroke-width=".054309"/><path d="m10.056 17.144 6.2-2.417-6.2-2.465-6.2 2.4z" fill="#e3b04e" stroke-width=".054309"/><path d="m6.952 15.883 6.196-2.467" fill="none" stroke-width=".054309"/><path d="m16.3 19.658-6.2-2.464v7.715l6.2 2.957z" fill="#e5ac3d" stroke-width=".054309"/><path d="m16.25 19.729 6.255-2.481v7.661l-6.255 2.957z" fill="#e5ac3d" stroke-width=".054309"/><path d="m16.264 11.547 6.2-2.446v8.16l-6.2 2.485z" fill="#e5ac3d" stroke-width=".054309"/><path d="m16.264 11.528-6.2-2.481v8.123l6.2 2.522z" fill="#e5ac3d" stroke-width=".054309"/><path d="m16.277 11.508 6.169-2.435-6.2-2.531-6.2 2.467z" fill="#e3b04e" stroke-width=".054309"/><path d="m12.82 10.149 6.196-2.467" fill="none" stroke-width=".054309"/><path d="m13.037 5.37 6.196-2.467" fill="none" stroke-width=".054309"/><path d="m19.811 5.286 6.316 2.447" fill="none" stroke-width=".054309"/><path d="m18.301 7.395-6.24 2.484 1.482.593 6.196-2.466z" fill="#fff" opacity=".3" stroke-width=".047412"/><path d="m18.573 2.616-6.24 2.484 1.482.593 6.195-2.466z" fill="#fff" opacity=".3" stroke-width=".047412"/><path d="m6.266 15.628 1.481.592 2.342-.932-.026-1.172z" fill="#fff" opacity=".3" stroke-width=".047412"/><path d="m20.495 5.029-1.339.525 6.227 2.413 1.342-.524z" fill="#fff" opacity=".3" stroke-width=".041862"/></g><path d="m6.7 17.509.051-.044-.104-.041z" fill="none"/><path d="m7.09 17.679.065-.057-.129-.051z" fill="none"/><path d="m7.719 16.195-1.453-.565v1.645l.201-.136.18.285.104.041.138-.122.137.228.129.051.189-.166.238.332.137.053z" fill="#fff" opacity=".3" stroke="#73561f" stroke-miterlimit="10" stroke-width=".066615"/><path d="m12.783 6.973.05-.044-.104-.041z" fill="none"/><path d="m13.173 7.143.065-.057-.13-.051z" fill="none"/><path d="m13.802 5.659-1.454-.565v1.645l.202-.136.179.285.104.041.138-.122.137.228.13.051.188-.166.239.332.137.053z" fill="#fff" opacity=".3" stroke="#73561f" stroke-miterlimit="10" stroke-width=".066615"/><path d="m12.544 11.783.05-.044-.104-.04z" fill="none"/><path d="m12.933 11.953.065-.057-.129-.05z" fill="none"/><path d="m13.562 10.47-1.453-.565v1.645l.201-.136.18.285.104.04.138-.121.137.228.129.05.189-.166.238.332.137.053z" fill="#fff" opacity=".3" stroke="#73561f" stroke-miterlimit="10" stroke-width=".066615"/><path d="m13.139 16.719-.05.045.104.039z" fill="none"/><path d="m12.747 16.554-.065.058.131.049z" fill="none"/><path d="m12.139 18.046 1.461.545-.023-1.645-.2.139-.184-.282-.104-.039-.136.123-.14-.226-.131-.049-.186.169-.243-.329-.137-.051z" fill="#fff" opacity=".3" stroke="#73561f" stroke-miterlimit="10" stroke-width=".066615"/><path d="m7.328 21.878-.05.045.104.039z" fill="none"/><path d="m6.936 21.714-.065.058.13.048z" fill="none"/><path d="m6.327 23.206 1.392.639.047-1.74-.2.139-.184-.282-.104-.039-.137.123-.14-.226-.13-.048-.186.168-.243-.328-.138-.052z" fill="#fff" opacity=".3" stroke="#73561f" stroke-miterlimit="10" stroke-width=".066615"/><path d="m25.761 14.093.051.045-.104.04z" fill="none"/><path d="m26.151 13.923.065.057-.129.051z" fill="none"/><path d="m26.78 15.407-1.453.565v-1.645l.201.136.18-.285.104-.04.138.121.137-.228.129-.051.189.166.238-.332.137-.053z" fill="#fff" opacity=".3" stroke="#73561f" stroke-miterlimit="10" stroke-width=".066615"/><path d="m26.356 9.321-.049-.045.104-.039z" fill="none"/><path d="m25.964 9.485-.064-.058.13-.048z" fill="none"/><path d="m25.356 7.993 1.461-.545-.023 1.645-.199-.138-.184.282-.104.039-.137-.124-.14.227-.13.048-.186-.168-.243.328-.138.052z" fill="#fff" opacity=".3" stroke="#73561f" stroke-miterlimit="10" stroke-width=".066615"/><path d="m19.428 24.558.05.044-.103.04z" fill="none"/><path d="m19.818 24.388.065.057-.13.05z" fill="none"/><path d="m20.447 25.871-1.454.674v-1.754l.202.136.18-.285.103-.04.139.121.136-.228.13-.05.189.166.238-.332.137-.053z" fill="#fff" opacity=".3" stroke="#73561f" stroke-miterlimit="10" stroke-width=".066615"/><path d="m20.023 19.948-.05-.045.105-.039z" fill="none"/><path d="m19.631 20.113-.064-.058.13-.049z" fill="none"/><path d="m19.023 18.62 1.461-.544-.023 1.645-.199-.139-.184.282-.105.039-.136-.123-.14.226-.13.049-.187-.169-.242.329-.138.051z" fill="#fff" opacity=".3" stroke="#73561f" stroke-miterlimit="10" stroke-width=".066615"/><path d="m21.426 13.49-.172-.039v-.051l.148-.208a.087.087 0 0 0 .018-.065.035.035 0 0 0 -.037-.03l-.189.006-.015-.045.118-.222a.073.073 0 0 0 .007-.063.037.037 0 0 0 -.045-.018l-.2.051-.024-.037.084-.229a.058.058 0 0 0 0-.058.042.042 0 0 0 -.051-.006l-.2.094-.032-.027.047-.227a.047.047 0 0 0 -.016-.052.052.052 0 0 0 -.056.007l-.2.133-.039-.017.007-.215a.039.039 0 0 0 -.026-.043.065.065 0 0 0 -.058.02l-.184.166-.045-.006-.033-.2a.036.036 0 0 0 -.036-.032.08.08 0 0 0 -.057.031l-.164.194-.049.005-.071-.168a.036.036 0 0 0 -.044-.021.094.094 0 0 0 -.055.042l-.138.214-.05.016-.107-.135a.041.041 0 0 0 -.05-.008.1.1 0 0 0 -.05.051l-.107.226-.05.026-.138-.1a.05.05 0 0 0 -.055 0 .109.109 0 0 0 -.044.058l-.071.228-.049.036-.164-.054a.062.062 0 0 0 -.057.017.107.107 0 0 0 -.036.063l-.033.223-.045.044-.184-.01a.077.077 0 0 0 -.058.029.1.1 0 0 0 -.026.065l.007.209-.039.05-.2.035a.092.092 0 0 0 -.056.04.085.085 0 0 0 -.016.065l.046.187-.032.054-.2.079a.1.1 0 0 0 -.051.049.07.07 0 0 0 0 .062l.084.157-.024.057-.2.119a.109.109 0 0 0 -.045.057.056.056 0 0 0 .007.057l.118.122-.015.058-.189.155a.107.107 0 0 0 -.037.062.045.045 0 0 0 .018.05l.148.082v.055l-.172.185a.1.1 0 0 0 -.028.065.038.038 0 0 0 .028.041l.172.039v.051l-.148.208a.088.088 0 0 0 -.018.065.035.035 0 0 0 .037.03l.189-.006.015.045-.118.222a.073.073 0 0 0 -.007.063.037.037 0 0 0 .045.018l.2-.051.024.037-.084.229a.058.058 0 0 0 0 .058.042.042 0 0 0 .051.006l.2-.094.032.027-.046.227a.047.047 0 0 0 .016.051.052.052 0 0 0 .056-.007l.2-.133.039.017-.007.215a.039.039 0 0 0 .026.043.065.065 0 0 0 .058-.02l.184-.166.045.006.033.2a.035.035 0 0 0 .036.032.08.08 0 0 0 .057-.031l.164-.194.049-.005.071.168a.036.036 0 0 0 .044.02.093.093 0 0 0 .055-.042l.138-.214.05-.016.107.135a.041.041 0 0 0 .05.008.1.1 0 0 0 .05-.051l.107-.226.05-.027.138.1a.05.05 0 0 0 .055 0 .109.109 0 0 0 .044-.058l.071-.228.049-.036.164.054a.063.063 0 0 0 .057-.017.107.107 0 0 0 .036-.063l.033-.223.045-.044.184.01a.077.077 0 0 0 .058-.029.1.1 0 0 0 .026-.065l-.007-.209.039-.05.2-.035a.091.091 0 0 0 .056-.04.085.085 0 0 0 .016-.065l-.046-.187.017-.053.2-.079a.1.1 0 0 0 .051-.049.07.07 0 0 0 0-.062l-.084-.157.024-.057.2-.119a.108.108 0 0 0 .045-.057.056.056 0 0 0 -.007-.057l-.118-.122.015-.058.189-.155a.107.107 0 0 0 .037-.062.045.045 0 0 0 -.018-.05l-.148-.082v-.055l.172-.185a.1.1 0 0 0 .028-.065.038.038 0 0 0 -.014-.039zm-1.153 1.988c-.066.013-.108-.037-.094-.112a.208.208 0 0 1 .145-.16c.066-.013.108.037.094.112a.209.209 0 0 1 -.145.16zm-.059-.39a.19.19 0 0 0 -.132.146l-.061.325a2.252 2.252 0 0 1 -.619.4 1.4 1.4 0 0 1 -.632.123l-.061-.273c-.013-.057-.072-.072-.132-.033l-.252.164a.825.825 0 0 1 -.13-.106l1.226-.521c.014-.006.023-.012.023-.026v-.455c0-.013-.009-.012-.023-.006l-.359.152v-.288l.388-.165a.161.161 0 0 1 .239.115c.015.057.049.249.072.3s.117.172.217.13l.611-.26.022-.012c-.042.078-.089.155-.139.23zm-1.7 1.13c-.066.043-.131.026-.145-.037a.2.2 0 0 1 .094-.192c.066-.043.131-.026.145.037a.2.2 0 0 1 -.09.192zm-.465-1.779a.18.18 0 0 1 -.062.2c-.062.055-.134.056-.161 0a.18.18 0 0 1 .062-.2c.066-.051.138-.053.165 0zm-.143.416.263-.234a.164.164 0 0 0 .057-.178l-.054-.105.213-.09v1l-.429.182a1.386 1.386 0 0 1 -.057-.407c.001-.052.001-.11.011-.168zm1.152-.587v-.3l.506-.215c.026-.011.185-.047.185.077 0 .1-.122.192-.222.234l-.47.2zm1.84-.516q0 .059 0 .118l-.154.065a.036.036 0 0 0 -.022.036v.074a.31.31 0 0 1 -.176.3c-.078.043-.165.036-.176-.01-.046-.253-.123-.278-.245-.327a.984.984 0 0 0 .308-.578.3.3 0 0 0 -.235-.315.568.568 0 0 0 -.322.026l-1.592.677a2.7 2.7 0 0 1 .84-.853l.188.127c.042.029.113 0 .157-.063l.21-.3a.938.938 0 0 1 1.027.33l-.144.4c-.025.069 0 .128.057.13l.277.011q.004.073.004.152zm-1.591-1.044c.049-.069.126-.1.172-.069s.045.113 0 .183-.126.1-.172.069-.044-.114.005-.184zm1.427.6a.191.191 0 0 1 .161-.133c.062 0 .089.066.062.142a.191.191 0 0 1 -.161.133c-.057-.006-.085-.07-.058-.15z" opacity=".55"/><path d="m15.314 23.421-.19-.195-.005-.057.163-.085a.046.046 0 0 0 .02-.052.112.112 0 0 0 -.041-.065l-.208-.163-.016-.06.13-.127a.057.057 0 0 0 .007-.06.116.116 0 0 0 -.05-.06l-.22-.126-.026-.06.092-.165a.07.07 0 0 0 -.005-.065.111.111 0 0 0 -.057-.052l-.223-.083-.035-.057.051-.2a.086.086 0 0 0 -.017-.068.1.1 0 0 0 -.061-.042l-.217-.038-.043-.053.008-.22a.1.1 0 0 0 -.029-.068.087.087 0 0 0 -.063-.031l-.2.01-.049-.047-.036-.234a.111.111 0 0 0 -.039-.066.071.071 0 0 0 -.063-.018l-.181.056-.054-.038-.078-.24a.115.115 0 0 0 -.048-.061.057.057 0 0 0 -.06-.005l-.152.1-.059-.026-.117-.238a.113.113 0 0 0 -.055-.054.046.046 0 0 0 -.055.008l-.117.142-.055-.017-.152-.225a.1.1 0 0 0 -.06-.044.04.04 0 0 0 -.048.021l-.078.176-.054-.006-.181-.2a.089.089 0 0 0 -.063-.033.038.038 0 0 0 -.039.034l-.036.205-.049.006-.2-.175a.074.074 0 0 0 -.063-.021.041.041 0 0 0 -.029.045l.008.226-.043.018-.217-.14a.06.06 0 0 0 -.061-.008.048.048 0 0 0 -.017.054l.051.238-.035.028-.223-.1a.048.048 0 0 0 -.057.006.059.059 0 0 0 -.005.061l.092.24-.026.039-.22-.054a.041.041 0 0 0 -.05.019.074.074 0 0 0 .007.066l.13.234-.016.047-.208-.007a.038.038 0 0 0 -.041.032.089.089 0 0 0 .02.068l.163.219-.005.053-.19.04a.04.04 0 0 0 -.031.043.1.1 0 0 0 .031.068l.19.195.005.057-.163.085a.046.046 0 0 0 -.02.052.113.113 0 0 0 .041.065l.208.163.016.06-.13.127a.057.057 0 0 0 -.007.06.116.116 0 0 0 .05.06l.22.126.026.06-.092.165a.071.071 0 0 0 .005.065.111.111 0 0 0 .057.052l.223.083.035.057-.051.2a.086.086 0 0 0 .017.068.1.1 0 0 0 .061.042l.217.038.043.053-.008.22a.1.1 0 0 0 .029.068.087.087 0 0 0 .063.031l.2-.009.049.047.036.234a.111.111 0 0 0 .039.066.071.071 0 0 0 .063.019l.18-.056.054.038.078.24a.115.115 0 0 0 .048.061.057.057 0 0 0 .06.005l.152-.1.055.028.117.238a.113.113 0 0 0 .055.054.047.047 0 0 0 .055-.008l.117-.142.055.017.152.225a.1.1 0 0 0 .06.044.04.04 0 0 0 .048-.021l.078-.176.054.006.181.2a.09.09 0 0 0 .063.033.038.038 0 0 0 .039-.034l.036-.2.049-.006.2.175a.074.074 0 0 0 .063.021.041.041 0 0 0 .029-.045l-.008-.226.043-.018.217.14a.059.059 0 0 0 .061.008.048.048 0 0 0 .017-.054l-.051-.238.035-.028.223.1a.048.048 0 0 0 .057-.006.059.059 0 0 0 .005-.061l-.092-.24.026-.039.22.054a.041.041 0 0 0 .05-.019.073.073 0 0 0 -.007-.066l-.13-.234.016-.047.208.007a.038.038 0 0 0 .041-.032.089.089 0 0 0 -.02-.068l-.163-.219.005-.053.19-.04a.04.04 0 0 0 .031-.043.1.1 0 0 0 -.026-.077zm-1.269 1.054a.21.21 0 0 1 -.1-.2c.015-.066.087-.083.159-.038a.21.21 0 0 1 .1.2c-.015.063-.086.083-.159.038zm-.064-.462c-.066-.041-.131-.026-.145.035l-.067.287a1.619 1.619 0 0 1 -.681-.132 2.516 2.516 0 0 1 -.7-.438l-.067-.342a.2.2 0 0 0 -.145-.153l-.277-.054q-.077-.111-.143-.228l1.35.552c.015.006.025.008.025-.006v-.477c0-.014-.01-.021-.025-.027l-.395-.161v-.3l.427.175a.459.459 0 0 1 .263.335c.017.074.054.305.08.385a.608.608 0 0 0 .239.331l.672.275.024.008a.9.9 0 0 1 -.153.117zm-1.867-.334a.224.224 0 0 1 -.159-.168c-.015-.079.031-.132.1-.118a.225.225 0 0 1 .159.168c.019.079-.027.132-.1.118zm-.514-2.286c.03.08 0 .147-.068.149a.209.209 0 0 1 -.177-.141c-.03-.08 0-.147.068-.149a.209.209 0 0 1 .177.141zm-.157.309.289-.01c.062 0 .09-.063.062-.136l-.06-.159.234.1v1.055l-.472-.193a1.944 1.944 0 0 1 -.063-.479 1.565 1.565 0 0 1 .012-.18zm1.268.416v-.311l.557.228c.029.012.2.116.2.247 0 .108-.134.092-.244.047l-.517-.211zm2.025 1.108q0 .062 0 .121l-.169-.069c-.017-.007-.024 0-.024.018v.078c0 .183-.1.181-.194.154a.311.311 0 0 1 -.194-.168.953.953 0 0 0 -.269-.563c.166-.038.339-.122.339-.331a.862.862 0 0 0 -.259-.542 1.183 1.183 0 0 0 -.355-.262l-1.752-.717a1.144 1.144 0 0 1 .924-.144l.207.3c.047.068.124.1.173.075l.231-.127a2.951 2.951 0 0 1 1.13 1.267l-.158.293a.169.169 0 0 0 .062.187l.3.26q.01.087.01.17zm-1.749-2.526c.054-.029.138.007.19.082s.049.159 0 .188-.138-.007-.19-.082-.053-.156 0-.188zm1.57 1.905c.03-.056.109-.054.177 0a.185.185 0 0 1 .068.205c-.03.056-.109.054-.177 0a.185.185 0 0 1 -.068-.202z" opacity=".56"/><path d="m27.838 18.724-.172-.039v-.051l.148-.208a.087.087 0 0 0 .018-.065.035.035 0 0 0 -.037-.03l-.189.006-.015-.045.118-.222a.073.073 0 0 0 .007-.063.037.037 0 0 0 -.045-.018l-.2.051-.03-.04.084-.229a.058.058 0 0 0 0-.058.042.042 0 0 0 -.051-.006l-.2.094-.032-.027.047-.227a.047.047 0 0 0 -.016-.052.052.052 0 0 0 -.056.007l-.2.133-.039-.017.007-.215a.039.039 0 0 0 -.026-.043.065.065 0 0 0 -.058.02l-.184.166-.045-.006-.033-.2a.036.036 0 0 0 -.036-.032.08.08 0 0 0 -.057.031l-.164.194-.049.005-.071-.168a.036.036 0 0 0 -.044-.021.094.094 0 0 0 -.055.042l-.138.214-.05.016-.107-.135a.041.041 0 0 0 -.05-.008.1.1 0 0 0 -.05.051l-.107.226-.05.026-.138-.1a.05.05 0 0 0 -.055 0 .109.109 0 0 0 -.044.058l-.071.228-.049.036-.164-.054a.062.062 0 0 0 -.057.017.107.107 0 0 0 -.036.063l-.033.223-.045.044-.184-.01a.077.077 0 0 0 -.058.029.1.1 0 0 0 -.026.065l.007.209-.039.05-.2.035a.092.092 0 0 0 -.056.04.085.085 0 0 0 -.016.065l.046.187-.032.054-.2.079a.1.1 0 0 0 -.051.049.07.07 0 0 0 0 .062l.084.157-.024.057-.2.119a.109.109 0 0 0 -.045.057.056.056 0 0 0 .007.057l.118.122-.015.058-.189.155a.107.107 0 0 0 -.037.062.045.045 0 0 0 .018.05l.148.082v.055l-.172.185a.1.1 0 0 0 -.028.065.038.038 0 0 0 .028.041l.172.039v.051l-.148.208a.088.088 0 0 0 -.018.065.035.035 0 0 0 .037.03l.189-.006.015.045-.118.222a.073.073 0 0 0 -.007.063.037.037 0 0 0 .045.018l.2-.051.024.037-.094.247a.058.058 0 0 0 0 .058.042.042 0 0 0 .051.006l.2-.094.032.027-.046.227a.047.047 0 0 0 .016.051.052.052 0 0 0 .056-.007l.2-.133.039.017-.007.215a.039.039 0 0 0 .026.043.065.065 0 0 0 .058-.02l.184-.166.045.006.033.2a.035.035 0 0 0 .036.032.08.08 0 0 0 .057-.031l.164-.194.049-.005.071.168a.036.036 0 0 0 .044.02.093.093 0 0 0 .055-.042l.138-.214.05-.016.107.135a.041.041 0 0 0 .05.008.1.1 0 0 0 .05-.051l.107-.226.05-.027.138.1a.05.05 0 0 0 .055 0 .109.109 0 0 0 .044-.058l.071-.228.049-.036.164.054a.063.063 0 0 0 .057-.017.107.107 0 0 0 .036-.063l.038-.239.045-.044.184.01a.077.077 0 0 0 .058-.029.1.1 0 0 0 .026-.065l-.007-.209.039-.05.2-.035a.091.091 0 0 0 .056-.04.085.085 0 0 0 .016-.065l-.046-.187.032-.054.2-.079a.1.1 0 0 0 .051-.049.07.07 0 0 0 0-.062l-.084-.157.024-.057.2-.119a.108.108 0 0 0 .045-.057.056.056 0 0 0 -.006-.052l-.118-.122.015-.058.189-.155a.107.107 0 0 0 .037-.062.045.045 0 0 0 -.018-.05l-.148-.082v-.055l.172-.185a.1.1 0 0 0 .028-.065.038.038 0 0 0 -.019-.042zm-1.153 1.988c-.066.013-.108-.037-.094-.112a.208.208 0 0 1 .145-.16c.066-.013.108.037.094.112a.209.209 0 0 1 -.146.161zm-.059-.39a.19.19 0 0 0 -.132.146l-.061.325a2.252 2.252 0 0 1 -.619.4 1.4 1.4 0 0 1 -.632.123l-.061-.273c-.013-.057-.072-.072-.132-.033l-.252.164a.825.825 0 0 1 -.13-.106l1.226-.521c.014-.006.023-.012.023-.026v-.455c0-.013-.009-.012-.023-.006l-.359.152v-.288l.388-.165a.161.161 0 0 1 .239.115c.015.057.049.249.072.3s.117.172.217.13l.611-.26.022-.012c-.042.078-.089.155-.139.23zm-1.7 1.13c-.066.043-.131.026-.145-.037a.2.2 0 0 1 .094-.192c.066-.043.131-.026.145.037a.2.2 0 0 1 -.09.192zm-.465-1.779a.18.18 0 0 1 -.062.2c-.062.055-.134.056-.161 0a.18.18 0 0 1 .062-.2c.065-.051.137-.053.165 0zm-.143.416.263-.234a.164.164 0 0 0 .057-.178l-.054-.105.213-.09v1l-.429.182a1.386 1.386 0 0 1 -.057-.407c.002-.057.005-.11.011-.168zm1.152-.587v-.3l.506-.215c.026-.011.185-.047.185.077 0 .1-.122.192-.222.234l-.47.2zm1.84-.516q0 .059 0 .118l-.154.065a.036.036 0 0 0 -.022.036v.074a.31.31 0 0 1 -.176.3c-.078.043-.165.036-.176-.01-.046-.253-.123-.278-.245-.327a.984.984 0 0 0 .308-.578.3.3 0 0 0 -.235-.315.568.568 0 0 0 -.322.026l-1.588.675a2.7 2.7 0 0 1 .84-.853l.188.127c.042.029.113 0 .157-.063l.21-.3a.938.938 0 0 1 1.027.33l-.144.4c-.025.069 0 .128.057.13l.277.011q.002.075.002.154zm-1.591-1.044c.049-.069.126-.1.172-.069s.045.113 0 .183-.126.1-.172.069-.045-.114.004-.184zm1.427.6a.191.191 0 0 1 .161-.133c.062 0 .089.066.062.142a.191.191 0 0 1 -.161.133c-.058-.006-.086-.07-.058-.146z" opacity=".55"/><use height="26.28" transform="matrix(0 -.029 .022 .013 4.314 16.786)" width="45.72" xlink:href="#a"/><use height="26.28" transform="matrix(0 -.029 .022 .013 8.876 18.632)" width="45.72" xlink:href="#a"/><use height="26.28" transform="matrix(0 -.029 .022 .013 10.451 11.138)" width="45.72" xlink:href="#a"/><use height="26.28" transform="matrix(0 -.029 .022 .013 15.013 12.984)" width="45.72" xlink:href="#a"/><use height="26.28" transform="matrix(0 -.029 .02 -.012 16.773 21.54)" width="45.72" xlink:href="#a"/><use height="26.28" transform="matrix(0 -.029 .02 -.012 21.389 19.694)" width="45.72" xlink:href="#a"/><use height="26.28" transform="matrix(0 -.029 .02 -.012 23.072 11.167)" width="45.72" xlink:href="#a"/><use height="26.28" transform="matrix(0 -.029 .02 -.012 27.689 9.321)" width="45.72" xlink:href="#a"/></svg>