<svg width="32" height="32" fill="none" version="1.1" viewBox="0 0 32 32" xmlns="http://www.w3.org/2000/svg"><g transform="matrix(.076712 0 0 .076712 2 3.2621)"><path d="m248.74 0.10297h-132.48c-17.782 0-34.214 9.4867-43.105 24.886l-65.998 114.31c-4.6886 8.122-7.157 17.333-7.157 26.71h182.5c0-1.052 0.277-1.885 0.803-2.796l90.324-156.44c-7.443-4.2965-15.995-6.6682-24.886-6.6682z" fill="url(#f)"/><path d="m248.74 331.92h-132.48c-17.782 0-34.214-9.487-43.104-24.887l-65.999-114.31c-4.6551-8.063-7.122-17.402-7.157-26.709h182.5c0 0.79 0.207 1.765 0.602 2.449l90.524 156.79c-7.441 4.297-15.994 6.668-24.885 6.668z" fill="url(#e)"/><path d="m357.84 192.72-65.999 114.31c-4.445 7.699-10.776 13.921-18.218 18.218l-90.524-156.79c-0.395-0.684-0.602-1.459-0.602-2.248 0-1.052 0.277-2.086 0.803-2.997l90.324-156.44c7.441 4.2965 13.772 10.518 18.217 18.218l65.999 114.31c4.688 8.121 7.157 17.333 7.157 26.71s-2.469 18.59-7.157 26.709z" fill="url(#d)"/><path d="m182.62 49.876-33.525 58.068-32.453 56.245c-0.321 0.554-0.489 1.196-0.489 1.836l6e-3 0.188h-64.922l-0.0016-0.201c0-2.124 0.5466-4.247 1.6398-6.16 5.693-9.96 17.618-30.641 29.897-51.908h-0.0398l28.736-49.773c2.964-5.1332 8.441-8.2954 14.368-8.2954z" fill="url(#c)"/><path d="m149.03 224.2h0.024l-32.414-56.358c-0.287-0.498-0.452-1.054-0.483-1.623l-6e-3 -0.187h-64.918c0.0025 2.119 0.549 4.237 1.6398 6.145 5.7031 9.978 17.66 30.715 29.961 52.019h-0.0395l28.672 49.66c2.963 5.133 8.44 8.296 14.368 8.296h56.799z" fill="url(#b)"/><path d="m215.23 107.94 33.588 58.186-33.523 58.063 1.795 3.122 31.645 54.833 60.876-105.39 2.624-4.596c1.089-1.908 1.633-4.027 1.633-6.145 0-2.119-0.544-4.236-1.633-6.146l-2.649-4.638-27.241-47.168h-0.02l-33.59-58.186z" fill="url(#a)"/></g><defs><linearGradient id="f" x1="99.545" x2="28.425" y1="8.3984" y2="121.15" gradientUnits="userSpaceOnUse"><stop stop-color="#3BD5FF" offset="0"/><stop stop-color="#0FAFFF" offset="1"/></linearGradient><linearGradient id="e" x1="99.546" x2="86.823" y1="166.01" y2="333.58" gradientUnits="userSpaceOnUse"><stop stop-color="#0FAFFF" offset="0"/><stop stop-color="#0078D4" offset="1"/></linearGradient><linearGradient id="d" x1="197.71" x2="459.94" y1="6.7696" y2="144.51" gradientUnits="userSpaceOnUse"><stop stop-color="#0078D4" offset="0"/><stop stop-color="#004695" offset="1"/></linearGradient><linearGradient id="c" x1="51.233" x2="166.71" y1="49.876" y2="180.3" gradientUnits="userSpaceOnUse"><stop stop-color="#FEFEFE" offset="0"/><stop stop-color="#E6F9FE" offset="1"/></linearGradient><linearGradient id="b" x1="51.233" x2="149.65" y1="180.47" y2="307.67" gradientUnits="userSpaceOnUse"><stop stop-color="#E6F9FE" offset="0"/><stop stop-color="#9DEAFF" offset="1"/></linearGradient><linearGradient id="a" x1="215.23" x2="382.36" y1="49.876" y2="120.85" gradientUnits="userSpaceOnUse"><stop stop-color="#9DEAFF" offset="0"/><stop stop-color="#3BD5FF" offset="1"/></linearGradient></defs><script/><link/></svg>
