<svg width="32" height="32" viewBox="0 0 32 32" fill="none" xmlns="http://www.w3.org/2000/svg"><path d="M26.7684 17.2005c-.054.0258-.1079.0586-.1618.0914-.0023-.3422-.1828-.5086-.3093-.6891-.6094-.8718-1.786-.5414-2.1329.2602-.0468.1101.7172 1.1062.6844 1.2141-.5062.2273-.9937.75-1.0922 1.207.1008-.4711-.2508-.6914-.7828-.5156-.532.1757-1.0359.682-1.1086 1.1507.075-.4687-.3047-.7242-.8484-.5929-.5438.1312-1.0289.5976-1.0781 1.064.0492-.4664-.3586-.7593-.9071-.6773-.5484.082-1.0172.5086-1.0406.9727.0211-.4665-.4102-.7969-.9633-.7665-.5531.0305-1.0008.4149-.9961.8813-.0047-.4641-.4593-.8391-1.0125-.8578-.5531-.0188-.9797.3211-.9492.7875-.0305-.4664-.5086-.8813-1.057-.9516-.5508-.0703-.9516.2297-.8953.6961-.0563-.4664-.5532-.9234-1.0969-1.043-.5438-.1195-.9188.143-.8367.6118-.0821-.4664-.59534-.9633-1.13206-1.1297-.53672-.1641-.88359.0633-.77343.532-.10782-.4687-1.29141-2.4492-1.42032-2.7422-.34687-.8015-1.01484-1.0547-1.58672-.5344-.23437.2133-.37968.6-.26015 1.1696-.37266-.1032-.55781.0773-.42188.4734.74297 2.1703 1.47657 4.3781 2.08594 6.5977.26016.9492.52969 2.1797 1.29375 2.8875.54844.5062 1.23281.8578 1.89141 1.1414 1.96636.8437 4.14846 1.1015 6.18046 1.1156 2.175.0141 4.9406-.5109 6.8648-1.6055.729-.4125 1.4227-.8929 1.7485-1.7015.5367-1.3407.9258-2.7469 1.3359-4.0922.4664-1.5281.818-3.15 1.4227-4.5774.15-.4687-.136-.6304-.6445-.3773Z" fill="#48A2AD"/><path d="M15.9657 23.3591c5.8262 0 10.5492-1.8983 10.5492-4.2399 0-2.3416-4.723-4.2398-10.5492-4.2398-5.8261 0-10.5492 1.8982-10.5492 4.2398 0 2.3416 4.7231 4.2399 10.5492 4.2399Z" fill="url(#a)"/><path d="M24.9282 13.0645c-.1969-.1993-.4383-.3868-.7266-.5508 0 0-6.7219 2.1867-11.4 1.95-4.67813-.2367-3.98906-.7477-6.36563.7664 0 0-.64921.9281.14297 1.4929 1.03594.7383 2.34375 1.3477 3.77816 1.8118.1734-.1266.3468-.2063.4945-.2063 4.4602-1.5492 13.1367.4149 14.0766-5.264Z" fill="url(#b)"/><path d="M24.9218 13.063c-.9399 5.6789-9.6164 3.7148-14.0742 5.2641-.1477 0-.3211.0773-.4946.2062 3.5977 1.1625 7.9992 1.3992 10.9383.4219 3.6914-1.2235 5.3578-4.1414 3.6305-5.8922Z" fill="#EB5E8E"/><path d="M23.0215 8.88086s1.2727.75469 1.2727 2.70704c0 1.9523-1.6243 4.4836-8.8313 3.7594-7.14374-.7196-8.98827-.1102-8.98827-.1102s-2.18906-2.9719 2.38594-2.9555c4.09453.0141 10.18363.4969 11.61793-.4125 2.1352-1.3593 2.2149-1.3968 2.543-2.98824Z" fill="url(#c)"/><path d="M14.6962 7.43008c2.2172-1.38516 2.0976-3.39844 1.0406-5.11172-.1148.06562-.1828.20391-.1242.34687.232.55782.4383 1.34532.0633 1.875-.6352.89532-1.8118 1.12266-3.736 2.1961C10.1048 7.7582 9.3993 8.7332 9.27039 9.95664c-.01172.11486.05391.22496.16172.27886.20625.1032.59999.2719 1.19529.4266.6469-1.60077 2.5946-2.49608 4.0688-3.23202Z" fill="#F77CA5"/><path d="M19.5399 4.85892c-.9914-1.06875-2.1632-1.94062-3.5203-2.55-.0984-.04453-.1992-.03046-.2789.01407 1.0571 1.71093 1.1766 3.72422-1.0406 5.11172-1.4719.73593-3.4195 1.63125-4.0688 3.23199.6469.1688 1.5329.3211 2.686.3563 2.8265.0844 6.6351-.0703 7.282-1.17892.6492-1.10625.1078-3.72656-1.0594-4.98516Z" fill="url(#d)"/><path d="M22.8183 8.50234c.0539-.13593.0937-.27656.1218-.41718-.7593-1.1625-2.5359-1.51875-2.5359-1.51875 1.9266 4.10159-8.1 3.20859-10.94063 3.37734-1.20937.07265-1.90312.60465-2.3039 1.19535.59297-.3094 1.28672-.4805 1.98281-.7125C13.6284 9.35781 20.894 13.8461 22.8183 8.50234Z" fill="#F79EBC"/><path d="M23.2255 8.72471c-.0553-.22891-.1506-.44629-.2813-.64219-.0281.14297-.0679.28125-.1218.41719-1.9243 5.34379-9.1899.85547-13.67816 1.92419-.69375.2321-1.38985.4008-1.98281.7125-.54141.7946-.54375 1.6899-.54375 1.6899 2.92265-.886 5.07892.0047 10.69692.0867 5.6179.0773 6.314-2.5102 5.9109-4.18829Z" fill="url(#e)"/><path d="M26.7734 18.8217c-.5133.2391-1.05.7875-1.1836 1.2445.1359-.457-.1805-.6515-.7055-.457-.5273.1945-1.0523.6984-1.1625 1.1461.1102-.4477-.2367-.6703-.7734-.5203-.5368.15-1.05.6117-1.1321 1.0523.0844-.4406-.2906-.6937-.8343-.5883-.5438.1055-1.0407.5274-1.0969.9633.0586-.4359-.3445-.7219-.893-.6609-.5508.0609-1.0265.4453-1.057.8765.0305-.4312-.3938-.7523-.9469-.7359-.5531.0164-1.0078.3633-1.0125.7945.0047-.4312-.443-.7875-.9961-.8156-.5508-.0281-.9844.2836-.9609.7172-.0211-.4336-.4899-.825-1.0406-.8977-.5485-.0726-.9563.2063-.9071.6422-.0492-.4359-.5344-.8695-1.0781-.9843-.5438-.1149-.9211.1289-.8484.5718-.075-.4429-.5766-.914-1.11098-1.0758-.53437-.1617-.88359.0563-.78281.5063-.10078-.45-.61641-.9656-1.13906-1.1695-.52266-.2039-.84141-.0164-.71485.4429-.12656-.4593-.65156-1.0195-1.16015-1.2679-.5086-.2485-.79453-.0868-.64453.3843.60468 1.4204.95859 3.0118 1.425 4.4836.4125 1.2961.80156 2.6391 1.34062 3.8883.32578.7547 1.01485 1.1531 1.75078 1.486 2.10708.9492 4.56798 1.1953 6.85078 1.2164 2.0625.0211 4.2-.1594 6.1664-.8133.6609-.2203 1.3453-.4946 1.8938-.9328.7664-.6118 1.0359-1.7813 1.2984-2.686.6258-2.1656 1.3641-4.2773 2.0906-6.4101.1594-.4735-.1219-.6399-.6351-.4008Z" fill="url(#f)"/><path d="M9.61328 13.0117c.25888 0 .46872-.2098.46872-.4687s-.20984-.4688-.46872-.4688-.46875.2099-.46875.4688.20987.4687.46875.4687Z" fill="#B8EB96"/><path d="M12.6602 14.7109c.2588 0 .4687-.2098.4687-.4687s-.2099-.4688-.4687-.4688c-.2589 0-.4688.2099-.4688.4688s.2099.4687.4688.4687Z" fill="#EBD3DB"/><path d="M9.73047 16.4688c.25888 0 .46873-.2099.46873-.4688s-.20985-.4688-.46873-.4688-.46875.2099-.46875.4688.20987.4688.46875.4688Z" fill="#EB5E8E"/><path d="M13.1875 9.55469c.2589 0 .4687-.20987.4687-.46875 0-.25889-.2098-.46875-.4687-.46875s-.4687.20986-.4687.46875c0 .25888.2098.46875.4687.46875Z" fill="#3DC2EB"/><path d="M15.707 12.7773c.2589 0 .4688-.2098.4688-.4687s-.2099-.4688-.4688-.4688-.4687.2099-.4687.4688.2098.4687.4687.4687Z" fill="#FFA600"/><path d="M23.3828 16.293c.2589 0 .4688-.2099.4688-.4688s-.2099-.4687-.4688-.4687-.4687.2098-.4687.4687.2098.4688.4687.4688Z" fill="#79EB2D"/><path d="M17.6406 7.85547c.2589 0 .4688-.20987.4688-.46875s-.2099-.46875-.4688-.46875-.4687.20987-.4687.46875.2098.46875.4687.46875Z" fill="#FFF000"/><path d="M20.1016 13.3047c.2588 0 .4687-.2099.4687-.4688 0-.2588-.2099-.4687-.4687-.4687-.2589 0-.4688.2099-.4688.4687 0 .2589.2099.4688.4688.4688Z" fill="#8052FF"/><path d="M21.2734 9.78906c.2589 0 .4688-.20986.4688-.46875 0-.25888-.2099-.46875-.4688-.46875-.2588 0-.4687.20987-.4687.46875 0 .25889.2099.46875.4687.46875Z" fill="#5EEBB3"/><path d="M17.9336 16.8789c.2589 0 .4687-.2099.4687-.4687 0-.2589-.2098-.4688-.4687-.4688s-.4688.2099-.4688.4688c0 .2588.2099.4687.4688.4687Z" fill="#A45EEB"/><path opacity=".56" d="m7.67969 21.0391 1.40625 6.0351M24.3203 21.061l-1.4062 6.075M10.6021 21.9912l.8203 5.9766M21.4053 21.7788l-.8203 5.9766M13.1509 22.3281l.5484 6.1336M18.8556 22.1157l-.5485 6.1336M16.0366 22.7163l.0774 5.8969" stroke="#49A5B0" stroke-width=".0234375" stroke-miterlimit="10" stroke-linecap="round" stroke-linejoin="round"/><path opacity=".2" d="M16.5495 3.36191c.9047.51563 1.7344 1.17422 2.4703 1.9711.3235.34922.6211.87656.8321 1.48594.0773.225.2648.39375.4945.45.2437.06093 1.4883.40312 2.0062 1.19531.0891.13828.15.27656.1852.42187.0211.09141.0398.19219.0539.29531.0211.16407.1008.31641.2227.42891.2882.26485.7734.87425.7757 1.97575 0 .2578-.0351.5063-.1054.7407-.0727.2507-.0047.5203.1828.7007.0914.0891.2015.15.3211.1805.164.1055.3117.2227.4359.3516.7336.7429.4969 1.6008.1688 2.1914-.1289.2297-.1172.5133.0304.7312.1313.1969.3516.3117.5836.3117.0258 0 .0539-.0023.0821-.0046.0187-.0024.0398-.0024.0586-.0024.15 0 .2718.0703.3726.2133.0281.0398.0563.0773.0867.1172.0961.1265.0961.1359.0985.1781.0023.2531.1429.4875.3656.6094.0726.0398.15.0656.2297.0773-.061.1711-.1242.3516-.1875.5414-.0821.2461-.0211.518.1594.7055.0445.0469.0937.0867.1476.1195l-.1594.4664c-.6234 1.8282-1.2703 3.7172-1.8211 5.618-.0257.0844-.0492.1734-.075.2625-.2203.7758-.4687 1.657-.9867 2.0695-.4851.3868-1.1203.6282-1.6758.8133-1.5773.525-3.4195.7781-5.632.7781-.1008 0-.2039 0-.3047-.0023-2.7961-.0281-4.8844-.3961-6.56951-1.1555-.67734-.3047-1.17422-.614-1.39453-1.1226-.43359-1.0008-.77344-2.0906-1.10391-3.1477-.07031-.225-.14062-.4523-.21328-.675-.15234-.4781-.29531-.9844-.43594-1.4719-.26718-.9375-.5414-1.9031-.90937-2.8195.02109-.0211.03984-.0445.05625-.0703.13125-.1828.16406-.4195.09141-.6328l-.09141-.2672c-.00703-.0187-.01172-.0375-.01875-.0562.04219-.0258.08203-.0563.11719-.0891.08754-.0832.15241-.1873.1885-.3026.03609-.1152.0422-.2377.01775-.356-.05625-.2672-.01875-.4453.04687-.5039.07032-.0633.12422-.0867.15-.0867.00235 0 .01172 0 .02578.007.10439.0426.21752.0593.32975.0487.11223-.0106.22023-.0483.31478-.1096.19219-.1243.31172-.3328.3211-.5625.00469-.1055.0539-.2227.0914-.2953.08438-.0938.14297-.2086.16875-.3352.0375-.1875-.00234-.3844-.11484-.5414-.18984-.2719-.44531-.7992-.36797-1.1484.0211-.0985.075-.2274.30469-.3586.20156-.1149.33281-.3211.35156-.5532.01641-.2086.09141-.7453.41719-1.2234.33984-.4992.88125-.7922 1.60547-.8695.16223-.0168.31353-.0896.42778-.206.11425-.1164.18428-.269.198-.4315v-.0141c.08669-.76172.43589-1.6125 2.31089-2.65781.6516-.36328 1.2141-.62578 1.711-.85781.9703-.45235 1.7367-.81094 2.257-1.54453.3-.41954.3985-.95625.3-1.58204Zm-.6586-1.0875c-.0562 0-.1078.01641-.1547.04219-.1148.06563-.1828.20391-.1242.34688.232.55781.4383 1.34531.0633 1.875-.6352.89531-1.8117 1.12265-3.7359 2.19609-1.8329 1.02188-2.53832 1.99688-2.66723 3.22031v.00469c-1.08984.11483-1.73437.61643-2.11406 1.17423-.41719.6141-.51328 1.2867-.53672 1.5609-1.33594.7664-.28828 2.3414-.16406 2.5196-.00938.0046-.01641.0117-.02578.0164 0 0-.23203.3328-.24844.7218-.09375-.0375-.18984-.0562-.28828-.0562-.2086 0-.42188.0867-.62344.2719-.23437.2132-.37969.6-.26015 1.1695-.07032-.0188-.13126-.0281-.18751-.0281-.24375 0-.34453.1781-.23437.5015.07734.225.15234.4524.22969.6774-.23438.0023-.33516.1758-.23438.4969.60469 1.4203.9586 3.0117 1.425 4.4835.4125 1.2961.80156 2.6391 1.34063 3.8883.32578.7547 1.01484 1.1532 1.75078 1.486 2.10702.9492 4.56792 1.1953 6.85082 1.2164.1031 0 .2086.0023.3117.0023 1.964 0 3.9867-.1945 5.8547-.8133.6609-.2203 1.3453-.4945 1.8937-.9328.7664-.6117 1.036-1.7812 1.2985-2.6859.6257-2.1656 1.364-4.2774 2.0906-6.4102.1101-.3234.007-.5039-.2367-.5039-.0563 0-.1196.0094-.1899.0281.1313-.3984.2719-.7875.4313-1.1648.1031-.3234.0023-.5016-.2344-.5016-.1102 0-.2484.0375-.4078.1172-.0539.0258-.1078.0586-.1617.0914-.0024-.3422-.1829-.5086-.3094-.689-.2531-.361-.6024-.5133-.9492-.5133-.0469 0-.0938.0023-.1407.007.593-1.0664.5508-2.182-.2812-3.0258-.1969-.1992-.4383-.3867-.7266-.5507l-.0398.0117c.0937-.3188.1336-.6352.1336-.9399 0-1.3734-.6305-2.15153-1.0031-2.49372-.0165-.12656-.0375-.25078-.068-.37031-.0554-.22891-.1506-.44629-.2813-.64219-.6468-.98906-2.0273-1.39453-2.4234-1.49297-.232-.66328-.5648-1.28437-.9797-1.73203-.9914-1.06875-2.1633-1.94062-3.5203-2.55-.0375-.02109-.0797-.03047-.1219-.03047Z" fill="#424242"/><defs><linearGradient id="b" x1="6.18613" y1="15.5252" x2="24.9282" y2="15.5252" gradientUnits="userSpaceOnUse"><stop stop-color="#FF85AE"/><stop offset=".317" stop-color="#FF7DA9"/><stop offset=".816" stop-color="#FF669A"/><stop offset="1" stop-color="#FF5C93"/></linearGradient><linearGradient id="c" x1="5.95127" y1="12.1764" x2="24.2951" y2="12.1764" gradientUnits="userSpaceOnUse"><stop offset=".003" stop-color="#FFB0CB"/><stop offset=".792" stop-color="#F383A9"/><stop offset="1" stop-color="#F0769F"/></linearGradient><linearGradient id="d" x1="13.914" y1="6.66127" x2="21.3967" y2="6.66127" gradientUnits="userSpaceOnUse"><stop stop-color="#F697B7"/><stop offset=".335" stop-color="#F78FB2"/><stop offset=".862" stop-color="#F878A3"/><stop offset="1" stop-color="#F9719F"/></linearGradient><linearGradient id="e" x1="6.61791" y1="10.4971" x2="23.3197" y2="10.4971" gradientUnits="userSpaceOnUse"><stop stop-color="#F78FB2"/><stop offset=".272" stop-color="#F887AD"/><stop offset=".703" stop-color="#FC709F"/><stop offset="1" stop-color="#FF5C93"/></linearGradient><linearGradient id="f" x1="16.0015" y1="20.4529" x2="16.0015" y2="29.0358" gradientUnits="userSpaceOnUse"><stop stop-color="#4FE8FF"/><stop offset=".497" stop-color="#4BDDF3"/><stop offset="1" stop-color="#45CEE3"/></linearGradient><radialGradient id="a" cx="0" cy="0" r="1" gradientUnits="userSpaceOnUse" gradientTransform="matrix(0 6.2543 -9.79298 0 15.9205 16.8592)"><stop stop-color="#BE5D23"/><stop offset=".158" stop-color="#B65B25"/><stop offset=".407" stop-color="#9F552A"/><stop offset=".715" stop-color="#7A4C33"/><stop offset=".999" stop-color="#52423C"/></radialGradient></defs></svg>