<svg xmlns="http://www.w3.org/2000/svg" viewBox="0 0 32 32"><title>file_type_renovate</title><circle cx="16" cy="16" r="14" style="fill:#ffe42e"/><path d="M21.052,21.433l-2.889-2.889a1.293,1.293,0,0,1,0-1.829l4.28-4.28a.375.375,0,0,0,0-.53l-1.577-1.577a.374.374,0,0,0-.53,0l-.963.963-.65-.649.963-.963a1.293,1.293,0,0,1,1.829,0l1.577,1.577a1.3,1.3,0,0,1,0,1.829l-4.28,4.279a.377.377,0,0,0,0,.53l2.89,2.889Z" style="fill:#8bb5b5"/><path d="M24.738,23.879l-.59.59a.833.833,0,0,1-1.179,0l-3.538-3.538a.833.833,0,0,1,0-1.179l.59-.59a.835.835,0,0,1,1.179,0L24.738,22.7A.835.835,0,0,1,24.738,23.879Z" style="fill:#d95612"/><rect x="8.549" y="15.058" width="1.922" height="1.922" transform="translate(-8.542 11.416) rotate(-45)" style="fill:#24bfbe"/><path d="M18.679,9.566l1.769,1.769a.833.833,0,0,1,0,1.179L12.783,20.18a.835.835,0,0,1-1.179,0L9.835,18.411a.834.834,0,0,1,0-1.18L17.5,9.566A.835.835,0,0,1,18.679,9.566Z" style="fill:#25c4c3"/><rect x="9.908" y="13.699" width="1.922" height="1.922" transform="translate(-7.183 11.979) rotate(-45)" style="fill:#1ddedd"/><rect x="11.248" y="12.359" width="1.922" height="1.922" transform="translate(-5.842 12.535) rotate(-45)" style="fill:#24bfbe"/><rect x="12.608" y="10.999" width="1.922" height="1.922" transform="translate(-4.483 13.098) rotate(-45)" style="fill:#1ddedd"/><rect x="13.967" y="9.64" width="1.922" height="1.922" transform="translate(-3.124 13.661) rotate(-45)" style="fill:#1bcfce"/><rect x="15.326" y="8.281" width="1.922" height="1.922" transform="translate(-1.765 14.224) rotate(-45)" style="fill:#24bfbe"/><rect x="7.189" y="13.699" width="1.922" height="1.922" transform="translate(-7.979 10.057) rotate(-45)" style="fill:#1bcfce"/><rect x="9.889" y="10.999" width="1.922" height="1.922" transform="translate(-5.279 11.175) rotate(-45)" style="fill:#1bcfce"/><rect x="12.608" y="8.281" width="1.922" height="1.922" transform="translate(-2.561 12.301) rotate(-45)" style="fill:#34edeb"/><rect x="13.967" y="6.921" width="1.922" height="1.922" transform="translate(-1.202 12.864) rotate(-45)" style="fill:#1bcfce"/><rect x="8.53" y="9.64" width="1.922" height="1.922" transform="translate(-4.716 9.816) rotate(-45)" style="fill:#34edeb"/><rect x="12.608" y="5.562" width="1.922" height="1.922" transform="translate(-0.638 11.505) rotate(-45)" style="fill:#34edeb"/><rect x="4.471" y="10.98" width="1.922" height="1.922" transform="translate(-6.853 7.339) rotate(-45)" style="fill:#98edeb"/><rect x="8.53" y="6.921" width="1.922" height="1.922" transform="translate(-2.794 9.02) rotate(-45)" style="fill:#98edeb"/><path d="M19.829,10.716l.619.619a.833.833,0,0,1,0,1.179L12.783,20.18a.835.835,0,0,1-1.179,0l-.619-.62a.833.833,0,0,0,1.179,0L19.829,11.9A.833.833,0,0,0,19.829,10.716Z" style="fill:#00a3a2"/><path d="M19.3,10.185l-.619-.619a.835.835,0,0,0-1.179,0L9.835,17.231a.834.834,0,0,0,0,1.18l.619.619a.836.836,0,0,1,0-1.18l7.665-7.665A.835.835,0,0,1,19.3,10.185Z" style="fill:#39d9d8"/><path d="M21.748,19.71l-.314-.314a1.252,1.252,0,0,0-1.769,0h0a1.25,1.25,0,0,0,0,1.769l.314.314a.835.835,0,0,1,0-1.179l.59-.59A.835.835,0,0,1,21.748,19.71Z" style="fill:#eb6e2d"/><path d="M12.194,20.791a1.194,1.194,0,0,1-.85-.352L9.575,18.67a1.2,1.2,0,0,1,0-1.7L17.24,9.306a1.2,1.2,0,0,1,1.7,0l1.769,1.769a1.2,1.2,0,0,1,0,1.7l-7.665,7.665A1.194,1.194,0,0,1,12.194,20.791Zm5.9-11.1a.463.463,0,0,0-.33.136L10.1,17.491a.466.466,0,0,0,0,.66l1.769,1.769a.467.467,0,0,0,.659,0l7.666-7.665a.468.468,0,0,0,0-.66L18.42,9.826A.464.464,0,0,0,18.09,9.69Z" style="fill:#13acbd"/><path d="M23.559,25.081a1.194,1.194,0,0,1-.85-.352l-3.538-3.538a1.2,1.2,0,0,1,0-1.7l.59-.589a1.2,1.2,0,0,1,1.7,0L25,22.44a1.2,1.2,0,0,1,0,1.7l-.59.59A1.194,1.194,0,0,1,23.559,25.081ZM20.61,19.286a.462.462,0,0,0-.329.136l-.59.59a.467.467,0,0,0,0,.66l3.538,3.537a.465.465,0,0,0,.659,0l.59-.589a.467.467,0,0,0,0-.66L20.94,19.422A.464.464,0,0,0,20.61,19.286Z" style="fill:#bf4404"/></svg>