<svg xmlns="http://www.w3.org/2000/svg" version="1.0" viewBox="0 0 32 32"><title>file_type_raku</title><path fill="#d2d2d2" d="m15.01 9.88-.83 1.4.65.12.08-.38-.1-.02.14-.26.23.55c.42.83.08 1.9.16 2.96l.38-.02c-.06-.95.32-2.1-.18-3.1zm2.14 0-.52 1.24c-.5 1.02-.12 2.17-.18 3.1l.38.03c.08-1.05-.27-2.13.14-2.95l.24-.56.15.26-.1.02.07.38.65-.12zm-2.17 11.69v1.22l.67 1.1.3-.17-.63-1.03v-1.12zm1.43 0v1.22l.67 1.1.3-.17-.63-1.03v-1.12zm8.87-15.33a6.5 6.5 0 0 0-4.45 1.28c-2.76 2-3.53 5.61-1.73 8.06 1.79 2.46 5.47 2.8 8.21.8 2.74-2.02 3.52-5.62 1.71-8.07a5.17 5.17 0 0 0-3.74-2.07zM6.76 5.96c-1.5.14-2.88.84-3.78 2.08-1.81 2.47-1.03 6.1 1.73 8.11 2.75 2.02 6.46 1.68 8.26-.79 1.81-2.46 1.03-6.1-1.73-8.11a6.58 6.58 0 0 0-4.48-1.3zm.03.28c4.86-.3 8.2 5.67 5.96 8.96C4.47 22.44-.69 7.23 6.8 6.24zm14.76 10.63c-1.2.1-2.3.7-3.02 1.66-1.44 1.97-.81 4.88 1.39 6.5 2.2 1.6 5.17 1.33 6.6-.64 1.46-1.97.82-4.89-1.37-6.5a5.28 5.28 0 0 0-3.6-1.02zM6.76 5.96c-1.5.14-2.88.84-3.78 2.08-1.81 2.47-1.03 6.1 1.73 8.11 2.75 2.02 6.46 1.68 8.26-.79 1.81-2.46 1.03-6.1-1.73-8.11a6.58 6.58 0 0 0-4.48-1.3zm4.02 10.87a5.25 5.25 0 0 0-3.6 1.03c-2.2 1.6-2.82 4.52-1.39 6.49 1.45 1.96 4.4 2.24 6.6.63h.02c2.2-1.6 2.84-4.52 1.39-6.5a4.17 4.17 0 0 0-3.02-1.65z"/><g stroke-linejoin="round" stroke-miterlimit="10" stroke-width=".36"><path fill="#ff0" stroke="#d2d2d2" d="M16.1 21.53c-2.52 0-4.55-1.62-4.55-3.63 0-2 2.03-3.63 4.54-3.63s4.54 1.63 4.54 3.63-2.03 3.63-4.54 3.63z"/><path fill="#fff" stroke="#000" d="M12.98 17.86a1.82 1.82 0 1 1 0-3.64 1.82 1.82 0 0 1 0 3.64zm6.02 0a1.82 1.82 0 1 1 0-3.64 1.82 1.82 0 0 1 0 3.64z"/></g><path d="M13.04 16.94a.91.91 0 0 1 0-1.82.9.9 0 0 1 0 1.82zm6.02-.1a.9.9 0 1 1 0-1.81.9.9 0 0 1 0 1.8z"/><path fill="none" stroke="#f36" stroke-width=".51" d="M14.55 18.86c-.18 1.25 3.43 2.14 3 .22v-.11"/><path fill="#f36" d="M22.75 14.34c-.83 0-1.49-.67-1.49-1.5s.66-1.52 1.49-1.52a1.51 1.51 0 0 1 0 3.02zM7.53 23.99c-1.04-.86-1.08-2.54-.08-3.77 1-1.22 2.67-1.51 3.7-.65s1.09 2.54.09 3.76-2.66 1.52-3.7.66zM24.6 24c-1.04.85-2.7.56-3.7-.67-1-1.22-.97-2.9.08-3.76 1.04-.86 2.7-.56 3.7.66s.97 2.9-.07 3.76zM7.3 12.18c-.94 0-1.7-.74-1.7-1.66s.76-1.66 1.7-1.66a1.66 1.66 0 1 1-.01 3.32z"/><path fill="#00f" d="M10.94 16.2c-.12.2-.5.21-.98-.07-1.12-.88-.4-1.02.48-.71.48.28.62.58.5.78zm12.3 6.5c-.47.39-1.3.15-1.87-.54-.56-.68-.64-1.55-.16-1.94.46-.38 1.3-.14 1.87.54.56.69.63 1.56.16 1.95zm5.51-12.36c-19.17-6.9-9.58-3.45 0 0zm-20 12.26c-.47-.4-.4-1.26.17-1.94.57-.7 1.4-.94 1.88-.55.46.38.39 1.25-.17 1.94-.57.7-1.4.93-1.88.55zm14.52-8.9a.82.82 0 0 1-1.16-.13.82.82 0 0 1 .1-1.16.82.82 0 0 1 1.16.13c.29.36.24.87-.1 1.16zM8.04 11.46a.83.83 0 0 1-1.16-.13.82.82 0 1 1 1.27-1.04c.3.36.24.88-.1 1.17zM6.96 7.02H6.9c-.7.11-1.2.51-1.6.97-3.28 3.5 1.71 6.34 4.66 8.14l.48-.71c-.78-.52-1.81-1.09-2.63-1.57l1.58-.87.03-.02c.68-.53.9-1.32.99-2.03.32-1.7-.33-2.66-1.56-3.49-.59-.26-1.2-.33-1.83-.41zm1.55 1.2c.41.18.76.5 1.12 1.08.2 2.1-1.11 3.2-2.56 3.98v.01c-.58-.39-1.2-.77-1.5-1.24-.4-.58-.78-.98-.91-1.24-.07-.14-.09-.22-.07-.33s.08-.26.27-.5c.43-.52.76-1.05 1.08-1.43.78-.85 1.64-.57 2.57-.33zm14.32.39c-5.95 3.23-.25 10.28 3.13 5.49.3-2.18-1.57-3.49-3.04-4.52.15-.1.15-.12.38-.27.5-.33 1.55-.72 2.46-.73.46 0 .89.08 1.21.27.33.18 1.17.8 1.31 1.28 1.5-.19-.43-1.82-.95-2.3-1.52-.67-3.25 0-4.5.78zm-.67 1.48 1.19.82c.52.4 1.08.91 1.44 1.44.62 1.62.09 2.19-1.22 2.41-.68.09-1.11.24-1.34.25-.11 0-.17 0-.27-.06s-.24-.18-.42-.4a3.6 3.6 0 0 1-.77-1.58c-.1-.54-.03-1.04.26-1.47.57-.86.8-1.14 1.14-1.4zM7.06 7.18c-1.43 0-2.55.97-3.36 2.27-.27.33-.4.73-.4 1.1a3 3 0 0 0 .3 1.1c.33.68.83 1.31 1.18 1.83.58.85 1.54 1.23 2.5 1.55s1.95.6 2.68 1.1l.48-.71c-3.2-1.75-5.58-2.76-6.08-5.45l.02-.02c.78-.93 1.66-1.88 2.66-1.92.6.08 1.2.23 1.66.46s.74.53.85.88c-.08.91.02 1.91-.82 2.56l-1.8 1.44c2.86-.71 4.55-3.71 2.16-5.63-.6-.3-1.3-.48-1.98-.56H7.1zm18.58.3a5.67 5.67 0 0 0-3.31.69c-1.62 1.08-1.5 1-2.46 2.41-.46.7-.46 1.57-.27 2.4.2.82.6 1.6 1.07 2.2.45.55.93.83 1.45.89.5.06 1-.06 1.61-.14.63-.08 1.08-.1 1.5-.28.42-.2.72-.6.9-1.15.42-1.4.18-3.13-1.08-4.1a.43.43 0 0 0-.1-.06l-2.4-1-.32.78 2.31.97c1.5 2.88-1.21 5.16-3.21 3.55-1.72-3.58.95-6.5 4.26-6.31 1.6-.01 3.22 2.59 2.97.84l-1.07-1.19a4.4 4.4 0 0 0-1.85-.5z"/><path fill="#0f0" d="M26.2 10.15a2.37 2.37 0 0 0-.77.03c.62.1 1.22.44 1.67 1 .94 1.14.88 2.73-.12 3.56-.3.24-.66.36-1.03.42.67.13 1.34 0 1.87-.42 1-.83 1.06-2.42.12-3.56a2.86 2.86 0 0 0-1.73-1.03zm-15.19-1.4c.12.08.24.15.35.24 1.01.83 1.07 2.43.13 3.58a2.72 2.72 0 0 1-2.34 1c1 .54 2.35.24 3.18-.8.95-1.14.9-2.74-.12-3.57-.35-.3-.77-.4-1.2-.44z"/></svg>