<svg xmlns="http://www.w3.org/2000/svg" viewBox="0 0 32 32"><title>file_type_typescript_official@2x</title><g id="typescript_official"><polygon points="2 16 2 30 16 30 30 30 30 16 30 2 16 2 2 2 2 16" style="fill:#007acc"/><path d="M24.56,14.88a3.49,3.49,0,0,1,1.75,1,4.61,4.61,0,0,1,.67.9s-1.21.85-1.95,1.31c0,0-.13-.1-.25-.28A1.59,1.59,0,0,0,23.47,17c-.85-.06-1.4.39-1.39,1.13a1,1,0,0,0,.12.52c.19.39.53.62,1.62,1.09,2,.86,2.86,1.43,3.4,2.24a4.06,4.06,0,0,1,.32,3.41,3.75,3.75,0,0,1-3.1,2.22,8.58,8.58,0,0,1-2.13,0,5.15,5.15,0,0,1-2.85-1.48,5,5,0,0,1-.73-1.08L19,24.9l1-.6.8-.47.17.25a3.76,3.76,0,0,0,1.06,1A2.6,2.6,0,0,0,24.79,25a1.22,1.22,0,0,0,.16-1.55c-.22-.31-.66-.57-1.92-1.12a6.93,6.93,0,0,1-2.64-1.62,3.69,3.69,0,0,1-.77-1.4,5.61,5.61,0,0,1,0-1.79,3.41,3.41,0,0,1,2.87-2.66A7.09,7.09,0,0,1,24.56,14.88ZM18,16.05V17.2H14.36V27.56H11.78V17.2H8.13V16.08a11,11,0,0,1,0-1.16s2.23,0,4.92,0H18Z" style="fill:#fff"/></g></svg>