<svg xmlns="http://www.w3.org/2000/svg" viewBox="0 0 32 32"><title>file_type_latino</title><path d="M23.4,5.6a2.841,2.841,0,0,0-3.4,0,3.321,3.321,0,0,0-1,4.2,4.068,4.068,0,0,0,4.7-3C23,6.1,23.4,5.6,23.4,5.6ZM20.6,7.2c-.1-.5.8-1.4,1.4-1.1C22.4,6.9,21,7.6,20.6,7.2Zm1.1-.8c.2.3-.3.6-.5.4C21.1,6.6,21.5,6.2,21.7,6.4ZM12.9,19.8a5.3,5.3,0,0,0-1.3,1.6,2.568,2.568,0,0,1-1.9,1A6.2,6.2,0,0,0,12,20C12.5,19.3,12.8,19.6,12.9,19.8Zm.2.6a9.339,9.339,0,0,0-1.3,2.2c-.5.9-1.8,2.1-2.3,2a9.517,9.517,0,0,0,2.6-3.4C12.6,20.1,13.1,20,13.1,20.4Zm.4.5a8.268,8.268,0,0,0-1,2.7c-.4.9-1.5,3-1.9,2.9a14.178,14.178,0,0,0,1.9-4.7C12.8,20.8,13.5,20.4,13.5,20.9Zm.4.2a13.439,13.439,0,0,0-.6,3.5c-.2,1.2-1,3.9-1.4,3.9A16.762,16.762,0,0,0,13,22.3C13.2,21.1,13.8,20.5,13.9,21.1Zm.7.2c-.3,2,.1,2.6.1,4,0,1.3-.3,4.5-.8,4.6.7-2.9.1-5.6,0-7C13.7,21.5,14.3,20.7,14.6,21.3ZM13.7,7.2c-.5-.5-1.2,0-1.5.7S12,9,12.6,9.7a2.082,2.082,0,0,1,.6,1.2,11.808,11.808,0,0,0,5.5-1.1A10.378,10.378,0,0,1,13.7,7.2Zm.3,3.1-.3-.6c-.3-.4-.3-.6-.1-.9.1-.3.5-.6.7-.3A5.79,5.79,0,0,0,17,9.9,8.443,8.443,0,0,1,14,10.3Zm-.7,1.4c-1.5,1.2-.3,4.6,1,4.9,1.3-.4,3.8-3.3,4.6-6.6A14.882,14.882,0,0,1,13.3,11.7Zm1.9,3c-.6-.1-1.3-1.9-.5-2.4a9.712,9.712,0,0,0,2.9-.8C17.1,13.1,15.8,14.6,15.2,14.7Z" style="fill:#0572b5"/><path d="M31,2.6,23.9,6.5a.751.751,0,0,1-.2-1ZM11.6,17c-.9.2-1.3.3-2.6,1.9a9.71,9.71,0,0,1,3.4-1.5c1.3-.4,1-1,1-1Zm-1.3-.8c-1.2.3-1.7.4-3.5,2.1a12.468,12.468,0,0,1,4.5-1.6c1.7-.3,1.4-1.1,1.4-1.1Zm-1.5-.8a6.457,6.457,0,0,0-4.3,1.8A9,9,0,0,1,8.7,16c3.9-.3,3.5-1.4,3.5-1.4A12.684,12.684,0,0,1,8.8,15.4ZM7.6,14.1c-1.9.2-2.8,0-5.3,1.8a11.611,11.611,0,0,1,5.1-1.1c5.2-.3,4.6-1.6,4.6-1.6A18.312,18.312,0,0,1,7.6,14.1Zm-.8-1.4a8.739,8.739,0,0,0-5.7,1.6,13.441,13.441,0,0,1,5.6-.9c6-.1,5.6-1.5,5.6-1.5A27.515,27.515,0,0,1,6.8,12.7Zm3.8-2.3c-.9-.1-1.3-.1-3.1.8a9.012,9.012,0,0,1,3.7-.1c1.4.1,1.3-.5,1.3-.5ZM9.5,9.2c-1.2-.3-1.7-.4-4.1.4a11.938,11.938,0,0,1,4.8.4c1.8.4,1.7-.4,1.7-.4ZM8.3,7.5c-1.3-.7-2.1-1-4.6-.8A9.949,9.949,0,0,1,7.9,7.9c3.5,1.9,3.7.8,3.7.8A10.361,10.361,0,0,1,8.3,7.5ZM8,6A6.857,6.857,0,0,0,3,4.8,9.3,9.3,0,0,1,7.5,6.5c4,2.4,4.3,1,4.3,1A16.01,16.01,0,0,1,8,6Zm.6-1.8A10.8,10.8,0,0,0,2.9,2,10.82,10.82,0,0,1,7.6,4.5c4.4,3.6,5,2.2,5,2.2Zm8.1,12.9c.3.8-2,3.6-3,2.8-1.2-1.2.7-3.1,1.5-2.4.6.5-.6,1.3-.8,1.2s.3-.5,0-.6a.577.577,0,0,0-.4,1c.9.7,2.5-1.1,1.9-1.7-1.7-1.7-4.2,1.7-2.3,3.2,1.5,1.1,2.4-2.1,6.3-3.9C25.1,14,23.3,10,23.3,10c-.6-1.5-.6-.7-2.5,0-2.1.7-3.1,3.2-1.9,4.4,1.3.9,3.6-1.7,2.4-2.6-.7-.5-1,0-.3.5.5.5-1.5,2.3-1.9.7-.3-1.5,1.4-2.1,2.3-2.5.6-.2.7-.5,1-.5.7.4.7,4.4-2.8,5.3-.8.2-.8-.7-1.3-.8a12.428,12.428,0,0,0-2.4,1.7C15.5,16.7,16.4,16.2,16.7,17.1Z" style="fill:#0ea5d5"/></svg>