<svg viewBox="0 0 32 32" xmlns="http://www.w3.org/2000/svg"><path d="m12.511 17.189c-.164-6.811-.324-12.408-.356-12.44a7.886 7.886 0 0 0 -2.264 1.164 7.578 7.578 0 0 0 -2.545 3.3 8.39 8.39 0 0 0 -.585 3.529 4.647 4.647 0 0 0 .2 1.955 3.4 3.4 0 0 1 .182.558c-.012.009-.337-.018-.722-.061-1.861-.206-2.776-1.046-2.991-2.747a6.288 6.288 0 0 1 1.449-4.7 15.077 15.077 0 0 1 8.383-5.144 12.843 12.843 0 0 1 2.538-.23l1.741-.05.058 2.5c.032 1.373.1 6.334.16 11.025s-.251 8.259-.219 8.368c1.938-6.341 4.427-11.129 6.787-17.922l1.422-3.968h2.736c-.022.063-2.74 6.477-5.493 13.864l-5.452 13.5h-4.56c-.003-1.829-.443-11.212-.469-12.501z" fill="#9e90c1"/><path d="m17.749 30h-5.087v-.314c0-1.13-.17-5.171-.306-8.418-.082-1.949-.15-3.587-.16-4.074-.152-6.317-.28-10.771-.332-12.038a11.753 11.753 0 0 0 -1.786 1.009 7.264 7.264 0 0 0 -2.439 3.163 8.076 8.076 0 0 0 -.564 3.417 4.315 4.315 0 0 0 .182 1.844c.219.58.285.756.081.915-.108.086-.123.1-.95 0-2-.221-3.035-1.18-3.268-3.02a6.6 6.6 0 0 1 1.51-4.922 15.433 15.433 0 0 1 8.562-5.262 13.143 13.143 0 0 1 2.594-.242l2.058-.058.065 2.813c.032 1.387.105 6.437.161 11.029.029 2.4-.039 4.537-.106 6.039.9-2.616 1.878-5.014 2.9-7.519 1.039-2.536 2.113-5.159 3.16-8.173l1.5-4.179h3.4l-.15.42c0 .007-.031.077-.085.2-1.089 2.615-3.242 7.862-5.405 13.67zm-4.461-.628h4.037l5.375-13.302c2.1-5.63 4.19-10.742 5.312-13.432h-2.045l-1.347 3.762c-1.051 3.027-2.128 5.658-3.171 8.2-1.306 3.189-2.54 6.2-3.611 9.706l-.3.993-.3-1a3.121 3.121 0 0 1 .018-.854c.074-1.344.228-4.14.187-7.6-.055-4.589-.129-9.637-.161-11.022l-.052-2.177-1.43.041a12.667 12.667 0 0 0 -2.471.226 14.78 14.78 0 0 0 -8.2 5.027 6 6 0 0 0 -1.388 4.469c.195 1.545 1.006 2.285 2.713 2.474l.249.027-.037-.1a4.909 4.909 0 0 1 -.221-2.066 8.707 8.707 0 0 1 .608-3.644 7.9 7.9 0 0 1 2.647-3.44c.023-.016 2.256-1.555 2.674-1.132.114.114.145.145.446 12.653.01.485.078 2.116.16 4.059.13 3.004.285 6.684.308 8.132z" fill="#c8c8c8"/></svg>