<svg viewBox="0 0 32 32" xmlns="http://www.w3.org/2000/svg"><title>file_type_knip</title><path d="M25.9765 0H6.02353C2.69683 0 0 2.69683 0 6.02353V25.9765C0 29.3032 2.69683 32 6.02353 32H25.9765C29.3032 32 32 29.3032 32 25.9765V6.02353C32 2.69683 29.3032 0 25.9765 0Z" fill="#F56E0F"/><path opacity="0.8" fill-rule="evenodd" clip-rule="evenodd" d="M18.9017 6.18958C20.2802 4.1918 21.8735 3.28464 23.6406 3.40628L16.188 16.4021C16.0091 16.9041 15.6792 17.3384 15.2436 17.6454C14.839 17.9111 14.6195 17.8795 14.2179 18.0232C13.8574 18.1429 13.5586 18.3999 13.3866 18.7386L13.2483 19.1797C13.124 19.5733 12.9281 19.967 13.2211 20.351C13.4144 20.6036 13.7811 20.6975 14.2659 20.6808C14.6867 20.7663 15.0849 20.9391 15.4348 21.1878C15.7938 21.4543 16.0997 21.7857 16.3366 22.1648C17.0282 23.5068 17.0744 24.9868 16.1048 26.6909C15.0374 28.6992 13.5525 29.3954 11.846 29.3701C10.7402 29.2215 9.98203 28.7133 9.5137 27.9091C8.79404 26.6735 8.80556 25.3402 9.27328 24.0325C9.62001 23.1515 10.0509 22.3062 10.5601 21.5081L11.8754 18.2113L12.004 18.3328L18.9017 6.18958ZM25.5454 17.5962C27.9632 17.3828 29.5384 16.4445 30.3045 14.8474L17.9234 14.9059L16.3443 17.6029L25.5454 17.5962ZM12.4292 16.1346C12.2626 16.1882 12.0877 16.2119 11.9129 16.2043L11.461 16.107C11.0572 16.0209 10.618 15.997 10.4286 15.5527C10.3033 15.2582 10.4026 14.893 10.6573 14.4812C10.789 14.0695 10.8325 13.6346 10.7853 13.2049C10.7314 12.7645 10.5958 12.3379 10.3855 11.9471C9.55925 10.6835 8.29378 9.91142 6.33419 9.91571C4.07218 9.86504 2.72894 10.8046 1.90901 12.3013C1.48527 13.3316 1.55726 14.2487 2.02262 15.0478C2.73725 16.2747 3.90766 16.9311 5.27499 17.1677C6.21219 17.3016 7.16021 17.3439 8.10562 17.294L11.5175 17.7634L11.5859 17.6427L11.5781 17.6057L11.6069 17.6074L12.4292 16.1346ZM9.17894 14.2999C9.59742 13.4669 9.23421 12.6847 8.57365 12.1219C8.04448 11.6698 7.33283 11.4279 6.45813 11.3943C5.57722 11.3656 4.70904 11.6105 3.97296 12.0953C2.5939 13.0765 3.08053 14.5309 4.37075 15.2978C4.96571 15.6442 5.65158 15.8022 6.33809 15.7512C6.86881 15.7254 7.39163 15.6122 7.88546 15.4162C8.43774 15.2137 8.89772 14.8177 9.17999 14.3017L9.17894 14.2999ZM15.2947 15.9795C15.3659 16.1017 15.3992 16.2423 15.3905 16.3836C15.3817 16.5247 15.3312 16.6602 15.2455 16.7727C15.1597 16.8852 15.0424 16.9697 14.9086 17.0156C14.7747 17.0614 14.6303 17.0665 14.4935 17.0303C14.3568 16.994 14.2339 16.9179 14.1404 16.8118C14.0469 16.7056 13.9869 16.574 13.9682 16.4338C13.9495 16.2935 13.9728 16.1509 14.0353 16.0239C14.0977 15.8969 14.1963 15.7913 14.3188 15.7204C14.3998 15.6732 14.4894 15.6425 14.5823 15.6299C14.6753 15.6174 14.7698 15.6234 14.8605 15.6474C14.9511 15.6715 15.0361 15.7132 15.1107 15.7701C15.1852 15.8271 15.2477 15.8982 15.2947 15.9795ZM13.6949 22.0534C14.6259 22.1004 15.1261 22.8005 15.2897 23.6527C15.423 24.3378 15.2812 25.0745 14.8839 25.8605C14.4701 26.6373 13.8269 27.2677 13.042 27.6659C11.5072 28.3796 10.4821 27.2387 10.4516 25.7381C10.4437 25.0501 10.6451 24.3759 11.0289 23.8049C11.3125 23.3555 11.669 22.9564 12.0838 22.6242C12.5329 22.2442 13.1047 22.0401 13.6929 22.0499L13.6949 22.0534Z" fill="#fff"/></svg>