<svg xmlns="http://www.w3.org/2000/svg" viewBox="0 0 32 32"><title>file_type_wurst</title><path d="M6.219,6.472c.786.078.954.91,1.583,1.256.527.291,1.349-.051,1.719.605a3.249,3.249,0,0,0-1.988.843,3.422,3.422,0,0,1,1.2,2.255A20.945,20.945,0,0,1,8.356,14.2c-.181,1.433-.322,3.82,1.542,4.312,1.465.387,2.568-2.357,3.462-3.216,1.3-1.25,2.878-1.814,4.479-.751a7.81,7.81,0,0,1,1.7,1.662c.5.629.944,1.71,1.656,2.139,1.553.934,2.65-1.352,2.7-2.569.066-1.519-.669-3.09-.52-4.568a2.442,2.442,0,0,1,.329-.986c.089-.153.853-.8.852-.93-.006-.7-1.6-.936-2.014-1.029a6.236,6.236,0,0,0,2.09-.831c.605-.518,1.073-1.105,1.735-1.59-.211.525-1.294,2.313-.776,2.877.274.3,1.027.05,1.406.115a2.213,2.213,0,0,1,1.293.668c1.523,1.583,1.8,4.692,1.676,6.743-.273,4.329-3.037,9.68-7.98,9.874a4.258,4.258,0,0,1-2.814-.82c-.926-.75-1.3-2.184-2.276-2.815-1.917-1.233-2.974,2-4.142,2.931-1.764,1.4-4.674.564-6.328-.613a11.163,11.163,0,0,1-3.856-5.5,12.122,12.122,0,0,1,.143-7.8c.453-1.218,1.038-2.457,2.437-2.65.789-.109,1.214.3,1.342-.636.084-.615-.435-1.133-.278-1.748" style="fill:#6d6d6d;isolation:isolate"/><path d="M6.77,7.208c-.141.938.244,1.827-1.036,1.919a2.265,2.265,0,0,0-2.2,1.2,11.078,11.078,0,0,0-1.139,6.69c.456,4.121,3.525,8.8,8.1,8.717a3.15,3.15,0,0,0,2.562-1.141c.681-.782,1.2-2.037,2.151-2.521,2.135-1.084,2.992,2.163,4.349,3.106,1.787,1.243,4.543.37,6.121-.816A10.838,10.838,0,0,0,29.23,19a12.123,12.123,0,0,0-.333-7.782c-.4-.971-.9-1.981-2.043-2.1-.388-.04-.882.1-1.237-.124-.605-.382-.327-1.072-.236-1.63a2.481,2.481,0,0,0-1.288.744c-.131.518.729.675.549,1.312-.125.445-.649.7-.819,1.136a5.612,5.612,0,0,0,.154,2.743c.229,1.466.486,3.255-.5,4.511-1.069,1.367-2.313,1.174-3.281-.134a10.322,10.322,0,0,0-2.773-3.044c-1.455-.858-2.849-.181-3.947.9-.885.869-1.655,2.883-2.9,3.251-1.517.448-2.647-1.6-2.724-2.839-.1-1.692.967-3.887.281-5.48C7.807,9.7,7.1,9.53,7.547,8.734c.265-.47.472-.342.108-.78A5.172,5.172,0,0,0,6.77,7.208Z" style="fill:#8e4747"/></svg>