<svg xmlns="http://www.w3.org/2000/svg" viewBox="0 0 32 32"><title>file_type_postman</title><path fill="#ff6c37" d="M17.783 2.114a14 14 0 1 0-3.566 27.772 14 14 0 0 0 3.566-27.772z"/><g fill="#fff" stroke-width=".875"><path d="M12.121 16.885a.053.053 0 0 0 .062.028l2.24-.483-.943-.955-1.342 1.343a.052.052 0 0 0-.017.067zM22.61 7.267a2.087 2.087 0 1 0 .88 3.981l-1.42-1.42a.175.175 0 0 1 0-.247l1.855-1.854a2.087 2.087 0 0 0-1.315-.46z"/><path d="M24.18 7.968 22.441 9.7l1.364 1.364a2.1 2.1 0 0 0 .375-3.095zM20.701 11.164h-.03a.546.546 0 0 0-.109.01h-.012a.821.821 0 0 0-.115.033l-.03.014a.549.549 0 0 0-.08.042l-.031.02a.729.729 0 0 0-.096.078l-5.156 5.158.639.638 5.46-4.792a.635.635 0 0 0 .084-.09l.023-.03a.762.762 0 0 0 .097-.205c0-.016.01-.033.014-.05a.82.82 0 0 0 .014-.105v-.122c0-.025 0-.033-.007-.05a.68.68 0 0 0-.533-.536h-.027a.735.735 0 0 0-.105-.013zM13.722 15.227l1.058 1.053 5.17-5.17c.169-.165.388-.267.622-.29-.914-.7-1.91-.517-6.85 4.407zM21.432 12.567l-.063.062-5.46 4.79.928.927c2.302-2.177 4.344-4.25 4.595-5.779zM7.812 23.791a.05.05 0 0 0 .045.036l2.38.164-1.334-1.334-1.08 1.078a.053.053 0 0 0-.01.056zM9.152 22.409l1.407 1.407a.107.107 0 0 0 .133.018.105.105 0 0 0 .055-.122l-.237-1.01a.302.302 0 0 1 .156-.338c2.466-1.236 4.456-2.509 5.916-3.78l-.98-.98-2.1.452zM15.301 17.308l-.526-.526-.728.726a.035.035 0 0 0 0 .045.034.034 0 0 0 .04.018z"/></g><path fill="#ff6c37" d="M24.229 9.097a.163.163 0 1 0-.29.14.487.487 0 0 1-.06.526.162.162 0 0 0 .25.207.81.81 0 0 0 .1-.873z"/></svg>
