<svg xmlns="http://www.w3.org/2000/svg" width="460" height="460" version="1.0"><path fill="#f7b911" d="M375.54 258.56a96.04 96.04 0 0 0-15.88-24.06c-3.25-3.06-6.7-5.92-10.16-8.87-1.67-1.48-1.97-2.96-.39-4.34a78.49 78.49 0 0 0 20.31-26.33 90.71 90.71 0 0 0 7.2-26.62 66.95 66.95 0 0 0 0-15.09q-1.58-17.06-3.55-22.68-1.28-5.13-2.56-8.97c-10.85-27.8-35.8-46.54-51.97-56.2a136.37 136.37 0 0 0-15.28-6.12 161.02 161.02 0 0 0-27.6-6.3A145.14 145.14 0 0 0 254.74 51H74.6v82.33h175.12a77.3 77.3 0 0 1 17.16 1.98c7.49 1.57 13.9 4.73 17.45 12.02a36.09 36.09 0 0 1 2.17 11.34v8.29a19.42 19.42 0 0 1-5.52 10.45 33.52 33.52 0 0 1-20.9 7.4c-13.42.98-26.93.2-40.44.39H74.6v223.73h82.33c2.57 0 2.96-.99 2.96-3.26v-133.5c0-7.2 0-7.2 7.1-7.2h88.64a56.6 56.6 0 0 1 28.2 6.11.79.79 0 0 0 .5 0l2.86 2.66a28.6 28.6 0 0 1 7.5 31.36 27.8 27.8 0 0 1-9.67 12.52 48.12 48.12 0 0 1-25.44 8.09c-11.24.2-22.48 0-33.72 0-2.86 0-3.65.88-3.65 3.55v72.77c0 6.9 0 7.2 7 6.9a398.26 398.26 0 0 0 44.86-1.28q23.27-3.26 39.64-7.9a11.73 11.73 0 0 0 .7-.29 119.9 119.9 0 0 0 33.91-17.65 64.1 64.1 0 0 0 15.97-15.77 5.03 5.03 0 0 0 1-1A86.97 86.97 0 0 0 381.24 333a174.33 174.33 0 0 0 4.15-20.7 93.38 93.38 0 0 0-9.86-53.64zM215.4 129.88z"/></svg>