<svg xmlns="http://www.w3.org/2000/svg" viewBox="0 0 32 32"><title>file_type_openscad</title><path d="M25.9,6.3a3.331,3.331,0,0,0-1.227-.348.568.568,0,0,0-.32.075l-1.724.83a11.075,11.075,0,0,0-17.288,8.32l-1.8.862h0l-.237.118-.006.007A3,3,0,0,0,2,18.887a8.049,8.049,0,0,0,1.147,3.99c1.212,2.1,3.1,3.54,4.7,3.54h0a2.325,2.325,0,0,0,1.171-.332V26.07l1.462-.711a11.07,11.07,0,0,0,16.97-8.836l1.314-.746.02-.014a2.917,2.917,0,0,0,.875-1.062l.023-.064A4.357,4.357,0,0,0,30,12.9a8.964,8.964,0,0,0-1.318-4.048A7.822,7.822,0,0,0,25.9,6.3m-5.708,3.92c.975-.51,1.513-1.173,1.516-1.868h0c0,.7-.539,1.352-1.517,1.863M9.651,24.774c-.018.044-.018.044-.028.065a2,2,0,0,1-.792.894H8.823a1.935,1.935,0,0,1-.978.249c-1.469,0-3.227-1.336-4.375-3.325a7.585,7.585,0,0,1-1.1-3.77,2.661,2.661,0,0,1,1.1-2.4l.234-.113.042-.015a.329.329,0,0,1,.044-.016.345.345,0,0,1,.042-.014l.047-.015.04-.011.05-.013.04-.008.053-.011.04-.007.054-.008H4.2l.055-.006H4.7l.063.006H4.8l.068.01H4.9l.076.013.036.008.071.016.035.008.074.019c.075.017.514.181.514.181a7.233,7.233,0,0,1,3.134,3.04c.127.219.243.441.348.664.079.167.152.333.219.5.045.112.087.223.126.335.073.208.136.416.189.622.02.076.039.152.056.228a.274.274,0,0,0,.013.055,5.012,5.012,0,0,1-.006,2.44s-.115.322-.134.367m2.275-.532-1.422.685-.387.186-.3.143c.009-.015.018-.03.026-.045l.018-.031c.03-.053.059-.109.087-.166l.008,0,.008-.016c.028-.061.055-.122.08-.186.016-.04.03-.082.045-.124l.009-.03a6.852,6.852,0,0,0-.937-5.27A7.47,7.47,0,0,0,5.7,16.115l-.146-.054-.139-.045-.088-.025-.062-.017-.05-.013-.1-.023-.058-.012-.1-.018-.1-.015-.065-.009H4.757l.583-.28.379-.183L6.7,14.95a2.024,2.024,0,0,1,.746-.136c1.47,0,3.231,1.338,4.38,3.329a7.66,7.66,0,0,1,1.1,3.68,2.8,2.8,0,0,1-.984,2.423m2.418-13.394a6.965,6.965,0,0,1-1.786-.618,1.867,1.867,0,0,1-.174-.1,4.158,4.158,0,0,1-.468-.309,1.911,1.911,0,0,1-.875-1.469c0-.7.539-1.362,1.517-1.873a8.436,8.436,0,0,1,3.817-.823,8.436,8.436,0,0,1,3.817.823,3.886,3.886,0,0,1,.957.681,2.333,2.333,0,0,1,.246.289l.185.324v.01c.02.044.037.088.052.132h0c.014.043.026.087.036.131v.018a.31.31,0,0,0,.009.05c0,.017.008.045.011.068a.41.41,0,0,0-.01-.069.546.546,0,0,0,.01.069v.026a1.239,1.239,0,0,1,.007.136c0,.7-.541,1.354-1.518,1.864a8.448,8.448,0,0,1-3.818.808h0l-.019.014h-.406a1.616,1.616,0,0,1-.209-.009h-.112c-.1-.006-.192-.014-.287-.024h-.021c-.105-.011-.209-.024-.313-.038Zm4.929,9.519a8.188,8.188,0,0,1,.89-2.213c1.1-1.911,2.792-3.2,4.2-3.2a1.843,1.843,0,0,1,.94.241,2.008,2.008,0,0,1,.871,1.117,3.094,3.094,0,0,1,.1.366l.063.386a4.293,4.293,0,0,1,.028.439,7.288,7.288,0,0,1-1.053,3.623c-1.1,1.912-2.793,3.2-4.2,3.2a1.852,1.852,0,0,1-.94-.24,1.917,1.917,0,0,1-.77-.867,2.828,2.828,0,0,1-.191-.558,4.039,4.039,0,0,1-.1-.883,5.516,5.516,0,0,1,.072-.943Zm10.059-5.856-.023.064a2.54,2.54,0,0,1-.74.884l-1.107.628-.022.013V16a11.089,11.089,0,0,0-4.472-8.889h.009l1.583-.762h0a.379.379,0,0,1,.111-.013,2.878,2.878,0,0,1,1.076.317,7.393,7.393,0,0,1,2.634,2.431A8.8,8.8,0,0,1,29.628,12.9a3.994,3.994,0,0,1-.3,1.616" style="fill:#f6ce2e"/></svg>