<svg viewBox="0 0 32 32" xmlns="http://www.w3.org/2000/svg"><path d="m2 2h28v28h-28z" fill="#ea5959"/><path d="m5 21h22v2h-22z" fill="#f18c8c"/><path d="m12.1 10.442h-2.19v6.421h-1.733v-6.421h-2.177v-1.442h6.1zm4.53 4.107h-3.576q.084 1.223 1.5 1.223a2.873 2.873 0 0 0 1.588-.439v1.25a4.074 4.074 0 0 1 -1.971.417 2.741 2.741 0 0 1 -2.059-.754 2.9 2.9 0 0 1 -.733-2.1 3.053 3.053 0 0 1 .792-2.215 2.6 2.6 0 0 1 1.947-.817 2.362 2.362 0 0 1 1.853.729 2.852 2.852 0 0 1 .656 1.98zm-1.568-1.064q0-1.206-.952-1.206a.9.9 0 0 0 -.7.345 1.591 1.591 0 0 0 -.362.861zm5.872-.674a1.448 1.448 0 0 0 -.712-.17 1.017 1.017 0 0 0 -.862.414 1.846 1.846 0 0 0 -.309 1.127v2.681h-1.69v-5.615h1.69v1.042h.021a1.469 1.469 0 0 1 1.444-1.141 1.066 1.066 0 0 1 .418.066zm5.066 4.052h-1.6v-.806h-.021a1.779 1.779 0 0 1 -1.631.943 1.587 1.587 0 0 1 -1.71-1.453 1.567 1.567 0 0 1 0-.247q0-1.634 1.887-1.886l1.487-.2q0-.921-.973-.921a3.264 3.264 0 0 0 -1.862.6v-1.3a4.127 4.127 0 0 1 .966-.329 4.922 4.922 0 0 1 1.114-.143 2.1 2.1 0 0 1 2.349 1.817 2.126 2.126 0 0 1 0 .569zm-1.589-2.281v-.382l-1 .131q-.824.11-.823.762a.641.641 0 0 0 .2.486.766.766 0 0 0 .543.189.985.985 0 0 0 .776-.338 1.237 1.237 0 0 0 .304-.848z" fill="#fff"/></svg>