<svg viewBox="0 0 32 32" xmlns="http://www.w3.org/2000/svg"><path d="m28.142 6.332c-1.49-1.774-3.208-2.76-4-2.342a.272.272 0 0 1 -.058.18.275.275 0 0 1 -.313.08l-2.443 2.05a.3.3 0 0 1 .049.417.291.291 0 0 1 -.41.043.277.277 0 0 1 -.062-.105l-.83.7a.293.293 0 0 1 -.042.153.268.268 0 0 1 -.25.092l-3.058 2.569a.279.279 0 0 1 .2.053.3.3 0 0 1 .049.417.291.291 0 0 1 -.41.043.272.272 0 0 1 -.072-.32l-.807.678a.274.274 0 0 1 0 .313.291.291 0 0 1 -.41.043l-.006-.008-2.566 2.156a.284.284 0 0 1 .044.4.3.3 0 0 1 -.407.056c-.032-.025-.037-.064-.056-.1l-.861.723c-.011.035-.007.074-.03.1a.281.281 0 0 1 -.215.1l-2.989 2.516a.3.3 0 0 1 .167.043.291.291 0 0 1 .043.41.285.285 0 0 1 -.4.05.279.279 0 0 1 -.091-.264l-3.78 3.176a.29.29 0 0 1 .03.394.285.285 0 0 1 -.4.05c-.029-.023-.031-.061-.049-.09l-.745.626a.264.264 0 0 1 -.036.253.278.278 0 0 1 -.348.069l-.369.31a1.062 1.062 0 0 0 -.244.926.265.265 0 0 1 .033-.152.287.287 0 1 1 .05.4.292.292 0 0 1 -.1-.165 5.264 5.264 0 0 0 .679 1.854.278.278 0 0 1 .313 0 .291.291 0 0 1 .043.41c-.02.026-.056.026-.082.043a10.577 10.577 0 0 0 .826 1.154 6.53 6.53 0 0 0 3.414 2.427.3.3 0 0 1 -.049-.417.291.291 0 0 1 .41-.043.285.285 0 0 1 .05.4.282.282 0 0 1 -.113.069.781.781 0 0 0 .434-.155l.653-.549a.253.253 0 0 1 -.09-.029.3.3 0 0 1 -.057-.411.3.3 0 0 1 .417-.049.281.281 0 0 1 .1.179l.792-.658a.3.3 0 0 1 .05-.252.278.278 0 0 1 .334-.071l3.896-3.277a.265.265 0 0 1 0-.313.285.285 0 0 1 .4-.05l.013.015 2.728-2.291a.28.28 0 0 1 -.09-.029.291.291 0 0 1 -.043-.41.285.285 0 0 1 .4-.05.3.3 0 0 1 .1.179l.768-.645a.287.287 0 0 1 -.006-.335.291.291 0 0 1 .41-.043c.009.007 0 .022.012.03l2.8-2.356a.27.27 0 0 1 -.167-.043.3.3 0 0 1 -.049-.417.291.291 0 0 1 .41-.043.273.273 0 0 1 .091.264l.738-.62a.265.265 0 0 1 .034-.147.273.273 0 0 1 .25-.092l2.995-2.504a.272.272 0 0 1 -.188-.052.285.285 0 0 1 -.05-.4.3.3 0 0 1 .411-.057.27.27 0 0 1 .073.306l.861-.723a.265.265 0 0 1 .005-.306.3.3 0 0 1 .411-.057l.006.008 2.39-2.007c.417-.35.318-1.184-.1-2.167a.264.264 0 0 1 -.224-.048.285.285 0 0 1 -.05-.4c.011-.014.032-.013.045-.025a9.849 9.849 0 0 0 -1.212-1.84zm.6 1.006a.287.287 0 0 1 -.353.454.3.3 0 0 1 -.057-.411.291.291 0 0 1 .406-.042zm-.914-.713a.287.287 0 0 1 -.353.454.3.3 0 0 1 -.057-.411.291.291 0 0 1 .406-.043zm-.914-.713a.287.287 0 0 1 -.353.454.3.3 0 0 1 -.057-.411.291.291 0 0 1 .407-.043zm-.914-.72a.291.291 0 0 1 .043.41.285.285 0 0 1 -.4.05.3.3 0 0 1 -.057-.411.3.3 0 0 1 .414-.049zm-.914-.713a.291.291 0 0 1 .043.41.285.285 0 0 1 -.4.05.3.3 0 0 1 -.057-.411.3.3 0 0 1 .419-.049zm4.181 4.993a.3.3 0 0 1 .049.417.291.291 0 0 1 -.41.043.285.285 0 0 1 -.05-.4.3.3 0 0 1 .416-.06zm-.914-.713a.3.3 0 0 1 .049.417.285.285 0 0 1 -.4.05.293.293 0 0 1 .354-.468zm-.907-.706a.291.291 0 0 1 .043.41.285.285 0 0 1 -.4.05.3.3 0 0 1 -.057-.411.3.3 0 0 1 .419-.049zm-.914-.713a.285.285 0 0 1 .05.4.3.3 0 0 1 -.411.057.3.3 0 0 1 -.049-.417.291.291 0 0 1 .415-.041zm-.914-.713a.285.285 0 0 1 .05.4.3.3 0 0 1 -.411.057.3.3 0 0 1 -.049-.417.291.291 0 0 1 .415-.041zm3.44 4.1a.3.3 0 0 1 .057.411.291.291 0 0 1 -.41.043.287.287 0 0 1 .353-.454zm-4.348-4.814a.285.285 0 0 1 .05.4.3.3 0 0 1 -.411.057.3.3 0 0 1 -.049-.417.291.291 0 0 1 .41-.04zm3.421 4.151a.287.287 0 0 1 -.353.454.3.3 0 0 1 -.057-.411.291.291 0 0 1 .41-.043zm-4.331-4.864a.285.285 0 0 1 .05.4.3.3 0 0 1 -.411.057.3.3 0 0 1 -.049-.417.291.291 0 0 1 .41-.04zm3.282 4.11a.3.3 0 0 1 .057.411.3.3 0 0 1 -.417.049.291.291 0 0 1 -.043-.41.285.285 0 0 1 .399-.05zm-.918-.71a.3.3 0 0 1 .057.411.3.3 0 0 1 -.417.049.291.291 0 0 1 -.043-.41.285.285 0 0 1 .403-.05zm-.914-.713a.3.3 0 0 1 .057.411.291.291 0 0 1 -.41.043.287.287 0 0 1 .353-.454zm-.914-.713a.3.3 0 0 1 .057.411.291.291 0 0 1 -.41.043.287.287 0 0 1 .353-.454zm3.38 4.133a.3.3 0 0 1 .057.411.3.3 0 0 1 -.417.049.291.291 0 0 1 -.043-.41.285.285 0 0 1 .404-.057zm-4.293-4.851a.3.3 0 0 1 .057.411.291.291 0 0 1 -.41.043.287.287 0 1 1 .353-.454zm3.38 4.133a.3.3 0 0 1 .057.411.3.3 0 0 1 -.417.049.291.291 0 0 1 -.043-.41.285.285 0 0 1 .4-.05zm-4.286-4.853a.3.3 0 0 1 .049.417.291.291 0 0 1 -.41.043.285.285 0 0 1 -.05-.4.3.3 0 0 1 .411-.06zm3.372 4.139a.3.3 0 0 1 .057.411.3.3 0 0 1 -.417.049.291.291 0 0 1 -.043-.41.285.285 0 0 1 .403-.049zm-.914-.713a.3.3 0 0 1 .057.411.3.3 0 0 1 -.417.049.291.291 0 0 1 -.043-.41.285.285 0 0 1 .403-.05zm-.914-.713a.3.3 0 0 1 .057.411.291.291 0 0 1 -.41.043.287.287 0 0 1 .353-.454zm-.914-.713a.3.3 0 0 1 .057.411.291.291 0 0 1 -.41.043.287.287 0 0 1 .353-.454zm-.906-.72a.3.3 0 0 1 .049.417.291.291 0 0 1 -.41.043.285.285 0 0 1 -.05-.4.3.3 0 0 1 .412-.06zm4.131 5.074a.285.285 0 0 1 .05.4.3.3 0 0 1 -.411.057.285.285 0 0 1 -.05-.4.3.3 0 0 1 .412-.057zm-.914-.713a.285.285 0 0 1 .05.4.3.3 0 0 1 -.411.057.291.291 0 0 1 -.043-.41.285.285 0 0 1 .405-.047zm-.914-.713a.285.285 0 0 1 .05.4.3.3 0 0 1 -.411.057.291.291 0 0 1 -.043-.41.285.285 0 0 1 .406-.048zm-.914-.713a.285.285 0 0 1 .05.4.3.3 0 0 1 -.411.057.291.291 0 0 1 -.043-.41.285.285 0 0 1 .406-.048zm-.914-.713a.285.285 0 0 1 .05.4.3.3 0 0 1 -.411.057.291.291 0 0 1 -.043-.41.285.285 0 0 1 .406-.048zm-.916-.715a.287.287 0 1 1 -.4.05.285.285 0 0 1 .4-.05zm-.914-.713a.3.3 0 0 1 .057.411.291.291 0 0 1 -.41.043.287.287 0 1 1 .353-.454zm4.133 5.06a.291.291 0 0 1 .043.41.287.287 0 1 1 -.454-.353.3.3 0 0 1 .415-.057zm-.914-.713a.291.291 0 0 1 .043.41.287.287 0 0 1 -.454-.353.3.3 0 0 1 .416-.057zm-.914-.713a.291.291 0 0 1 .043.41.287.287 0 0 1 -.454-.353.3.3 0 0 1 .42-.058zm-.914-.713a.285.285 0 0 1 .05.4.3.3 0 0 1 -.411.057.291.291 0 0 1 -.043-.41.285.285 0 0 1 .409-.048zm-.914-.713a.285.285 0 0 1 .05.4.3.3 0 0 1 -.411.057.291.291 0 0 1 -.043-.41.285.285 0 0 1 .409-.048zm-.908-.718a.3.3 0 0 1 .057.411.3.3 0 0 1 -.417.049.291.291 0 0 1 -.043-.41.285.285 0 0 1 .403-.05zm4.211 5.138a.287.287 0 0 1 -.353.454.3.3 0 0 1 -.057-.411.291.291 0 0 1 .41-.039zm-5.125-5.848a.3.3 0 0 1 .059.41.3.3 0 0 1 -.417.049.291.291 0 0 1 -.043-.41.285.285 0 0 1 .401-.049zm4.219 5.132a.291.291 0 0 1 .043.41.287.287 0 0 1 -.454-.353.3.3 0 0 1 .411-.057zm-.914-.713a.291.291 0 0 1 .043.41.287.287 0 0 1 -.454-.353.3.3 0 0 1 .411-.058zm-.914-.713a.291.291 0 0 1 .043.41.287.287 0 1 1 -.454-.353.3.3 0 0 1 .411-.053zm-.914-.713a.291.291 0 0 1 .043.41.287.287 0 1 1 -.454-.353.3.3 0 0 1 .412-.058zm-.914-.713a.285.285 0 0 1 .05.4.3.3 0 0 1 -.411.057.285.285 0 0 1 -.05-.4.3.3 0 0 1 .407-.059zm-.914-.713a.3.3 0 0 1 .057.411.3.3 0 0 1 -.417.049.291.291 0 0 1 -.043-.41.285.285 0 0 1 .404-.052zm4.125 5.067a.285.285 0 0 1 .05.4.3.3 0 0 1 -.411.057.291.291 0 0 1 -.043-.41.285.285 0 0 1 .405-.049zm-5.039-5.78a.3.3 0 0 1 .057.411.3.3 0 0 1 -.417.049.291.291 0 0 1 -.043-.41.285.285 0 0 1 .404-.052zm4.124 5.064a.287.287 0 1 1 -.4.05.285.285 0 0 1 .4-.05zm-.914-.713a.287.287 0 1 1 -.4.05.285.285 0 0 1 .402-.05zm-.914-.713a.287.287 0 1 1 -.4.05.285.285 0 0 1 .403-.05zm-.906-.72a.291.291 0 0 1 .043.41.287.287 0 1 1 -.454-.353.3.3 0 0 1 .414-.057zm-.914-.713a.3.3 0 0 1 .049.417.291.291 0 0 1 -.41.043.285.285 0 0 1 -.05-.4.3.3 0 0 1 .414-.061zm-.914-.713a.3.3 0 0 1 .049.417.291.291 0 0 1 -.41.043.285.285 0 0 1 -.05-.4.3.3 0 0 1 .414-.061zm4.188 5a.291.291 0 0 1 .043.41.285.285 0 0 1 -.4.05.3.3 0 0 1 -.057-.411.3.3 0 0 1 .417-.049zm-.914-.713a.291.291 0 0 1 .043.41.287.287 0 0 1 -.454-.353.3.3 0 0 1 .414-.057zm-.914-.713a.285.285 0 0 1 .05.4.3.3 0 0 1 -.411.057.291.291 0 0 1 -.043-.41.285.285 0 0 1 .406-.048zm-.914-.713a.285.285 0 0 1 .05.4.3.3 0 0 1 -.411.057.291.291 0 0 1 -.043-.41.285.285 0 0 1 .408-.044zm-.914-.713a.285.285 0 0 1 .05.4.3.3 0 0 1 -.411.057.291.291 0 0 1 -.043-.41.285.285 0 0 1 .408-.048zm-.914-.713a.285.285 0 0 1 .05.4.3.3 0 0 1 -.411.057.291.291 0 0 1 -.043-.41.285.285 0 0 1 .408-.049zm3.289 4.118a.285.285 0 0 1 .05.4.3.3 0 0 1 -.411.057.3.3 0 0 1 -.049-.417.291.291 0 0 1 .414-.042zm-4.2-4.831a.287.287 0 1 1 -.4.05.285.285 0 0 1 .401-.052zm3.289 4.118a.285.285 0 0 1 .05.4.3.3 0 0 1 -.411.057.3.3 0 0 1 -.049-.417.291.291 0 0 1 .411-.042zm-.914-.713a.287.287 0 0 1 -.353.454.3.3 0 0 1 -.057-.411.291.291 0 0 1 .411-.046zm-.914-.713a.287.287 0 0 1 -.353.454.3.3 0 0 1 -.057-.411.291.291 0 0 1 .411-.046zm-.914-.713a.287.287 0 1 1 -.353.454.3.3 0 0 1 -.057-.411.291.291 0 0 1 .412-.046zm3.339 4.115a.287.287 0 1 1 -.353.454.3.3 0 0 1 -.057-.411.291.291 0 0 1 .411-.046zm-4.245-4.835a.291.291 0 0 1 .043.41.285.285 0 0 1 -.4.05.3.3 0 0 1 -.057-.411.3.3 0 0 1 .416-.052zm3.339 4.115a.291.291 0 0 1 .043.41.285.285 0 0 1 -.4.05.3.3 0 0 1 -.057-.411.3.3 0 0 1 .415-.052zm-4.251-4.832a.291.291 0 0 1 .043.41.285.285 0 0 1 -.4.05.3.3 0 0 1 -.057-.411.3.3 0 0 1 .414-.049zm3.339 4.115a.291.291 0 0 1 .043.41.285.285 0 0 1 -.4.05.3.3 0 0 1 -.057-.411.3.3 0 0 1 .414-.048zm-.913-.715a.291.291 0 0 1 .043.41.285.285 0 0 1 -.4.05.3.3 0 0 1 -.057-.411.3.3 0 0 1 .414-.049zm-.914-.713a.291.291 0 0 1 .043.41.285.285 0 0 1 -.4.05.3.3 0 0 1 -.057-.411.3.3 0 0 1 .413-.047zm-.914-.713a.285.285 0 0 1 .05.4.3.3 0 0 1 -.411.057.285.285 0 0 1 -.05-.4.3.3 0 0 1 .41-.056zm-.914-.713a.285.285 0 0 1 .05.4.3.3 0 0 1 -.411.057.291.291 0 0 1 -.043-.41.285.285 0 0 1 .404-.046zm4.125 5.067a.3.3 0 0 1 .057.411.291.291 0 0 1 -.41.043.287.287 0 1 1 .353-.454zm-5.039-5.78a.285.285 0 0 1 .05.4.3.3 0 0 1 -.411.057.291.291 0 0 1 -.043-.41.285.285 0 0 1 .404-.046zm4.131 5.074a.287.287 0 0 1 -.353.454.3.3 0 0 1 -.057-.411.291.291 0 0 1 .41-.042zm-.906-.72a.291.291 0 0 1 .043.41.285.285 0 0 1 -.4.05.3.3 0 0 1 -.057-.411.3.3 0 0 1 .414-.051zm-.914-.713a.291.291 0 0 1 .043.41.285.285 0 0 1 -.4.05.3.3 0 0 1 -.057-.411.3.3 0 0 1 .414-.048zm-.914-.713a.291.291 0 0 1 .043.41.285.285 0 0 1 -.4.05.3.3 0 0 1 -.057-.411.3.3 0 0 1 .415-.048zm-.914-.713a.291.291 0 0 1 .043.41.285.285 0 0 1 -.4.05.3.3 0 0 1 -.057-.411.3.3 0 0 1 .415-.049zm-.914-.713a.285.285 0 0 1 .05.4.293.293 0 0 1 -.463-.35.3.3 0 0 1 .414-.05zm4.125 5.067a.285.285 0 0 1 .05.4.3.3 0 0 1 -.411.057.3.3 0 0 1 -.049-.417.291.291 0 0 1 .411-.041zm-.914-.713a.285.285 0 0 1 .05.4.3.3 0 0 1 -.411.057.3.3 0 0 1 -.049-.417.291.291 0 0 1 .411-.044zm-.914-.713a.287.287 0 0 1 -.353.454.3.3 0 0 1 -.057-.411.291.291 0 0 1 .412-.044zm-.91-.715a.287.287 0 0 1 -.353.454.3.3 0 0 1 -.057-.411.291.291 0 0 1 .41-.043zm-.914-.713a.287.287 0 0 1 -.353.454.3.3 0 0 1 -.057-.411.291.291 0 0 1 .408-.043zm-.906-.72a.291.291 0 0 1 .043.41.285.285 0 0 1 -.4.05.3.3 0 0 1 -.057-.411.3.3 0 0 1 .412-.049zm-.914-.713a.291.291 0 0 1 .043.41.285.285 0 0 1 -.4.05.3.3 0 0 1 -.057-.411.3.3 0 0 1 .412-.049zm4.2 5.131a.293.293 0 0 1 -.354.468.3.3 0 0 1 -.049-.417.285.285 0 0 1 .406-.052zm-.907-.706a.285.285 0 0 1 .05.4.3.3 0 0 1 -.411.057.3.3 0 0 1 -.049-.417.291.291 0 0 1 .413-.04zm-.914-.713a.285.285 0 0 1 .05.4.3.3 0 0 1 -.411.057.3.3 0 0 1 -.049-.417.291.291 0 0 1 .413-.041zm-.914-.713a.285.285 0 0 1 .05.4.3.3 0 0 1 -.411.057.3.3 0 0 1 -.049-.417.291.291 0 0 1 .413-.041zm-.914-.713a.287.287 0 0 1 -.353.454.3.3 0 0 1 -.057-.411.291.291 0 0 1 .414-.044zm-.914-.713a.287.287 0 0 1 -.353.454.3.3 0 0 1 -.057-.411.291.291 0 0 1 .414-.046zm4.133 5.06a.291.291 0 0 1 .043.41.285.285 0 0 1 -.4.05.3.3 0 0 1 -.057-.411.3.3 0 0 1 .417-.05zm-5.036-5.782a.291.291 0 0 1 .043.41.285.285 0 0 1 -.4.05.3.3 0 0 1 -.057-.411.3.3 0 0 1 .414-.049zm4.125 5.067a.291.291 0 0 1 .043.41.285.285 0 0 1 -.4.05.3.3 0 0 1 -.06-.408.3.3 0 0 1 .418-.052zm-.914-.713a.291.291 0 0 1 .043.41.285.285 0 0 1 -.4.05.3.3 0 0 1 -.057-.411.3.3 0 0 1 .415-.049zm-.914-.713a.285.285 0 0 1 .05.4.3.3 0 0 1 -.411.057.3.3 0 0 1 -.049-.417.291.291 0 0 1 .413-.041zm-.914-.713a.285.285 0 0 1 .05.4.3.3 0 0 1 -.411.057.3.3 0 0 1 -.049-.417.291.291 0 0 1 .411-.041zm-.914-.713a.285.285 0 0 1 .05.4.3.3 0 0 1 -.411.057.3.3 0 0 1 -.049-.417.291.291 0 0 1 .412-.041zm-.914-.713a.285.285 0 0 1 .05.4.3.3 0 0 1 -.411.057.3.3 0 0 1 -.049-.417.291.291 0 0 1 .412-.042zm4.181 4.993a.3.3 0 0 1 .057.411.3.3 0 0 1 -.417.049.291.291 0 0 1 -.043-.41.285.285 0 0 1 .405-.051zm-5.093-5.708a.287.287 0 1 1 -.353.454.3.3 0 0 1 -.057-.411.291.291 0 0 1 .41-.043zm4.181 4.993a.3.3 0 0 1 .057.411.291.291 0 0 1 -.41.043.287.287 0 1 1 .353-.454zm-.914-.713a.3.3 0 0 1 .057.411.285.285 0 0 1 -.4.05.3.3 0 0 1 -.06-.409.285.285 0 0 1 .404-.052zm-.9-.712a.291.291 0 0 1 .043.41.285.285 0 0 1 -.4.05.3.3 0 0 1 -.057-.411.3.3 0 0 1 .415-.049zm-.914-.713a.291.291 0 0 1 .043.41.285.285 0 0 1 -.4.05.3.3 0 0 1 -.057-.411.3.3 0 0 1 .418-.05zm-.914-.713a.291.291 0 0 1 .043.41.285.285 0 0 1 -.4.05.3.3 0 0 1 -.057-.411.3.3 0 0 1 .415-.05zm3.282 4.11a.3.3 0 0 1 .049.417.291.291 0 0 1 -.41.043.285.285 0 0 1 -.05-.4.3.3 0 0 1 .413-.061zm-4.194-4.82a.291.291 0 0 1 .043.41.285.285 0 0 1 -.4.05.3.3 0 0 1 -.057-.411.3.3 0 0 1 .414-.049zm3.282 4.11a.3.3 0 0 1 .049.417.291.291 0 0 1 -.41.043.285.285 0 0 1 -.05-.4.3.3 0 0 1 .411-.064zm-.914-.713a.3.3 0 0 1 .049.417.291.291 0 0 1 -.41.043.285.285 0 0 1 -.05-.4.3.3 0 0 1 .411-.065zm-.914-.713a.3.3 0 0 1 .049.417.291.291 0 0 1 -.41.043.285.285 0 0 1 -.05-.4.3.3 0 0 1 .411-.065zm-.914-.713a.3.3 0 0 1 .057.411.3.3 0 0 1 -.417.049.291.291 0 0 1 -.043-.41.285.285 0 0 1 .404-.055zm3.382 4.1a.287.287 0 1 1 -.4.05.285.285 0 0 1 .401-.051zm-4.292-4.819a.3.3 0 0 1 .057.411.3.3 0 0 1 -.417.049.291.291 0 0 1 -.043-.41.285.285 0 0 1 .403-.05zm3.39 4.1a.291.291 0 0 1 .043.41.287.287 0 1 1 -.454-.353.3.3 0 0 1 .408-.058zm-4.3-4.812a.3.3 0 0 1 .057.411.3.3 0 0 1 -.417.049.291.291 0 0 1 -.043-.41.285.285 0 0 1 .396-.051zm3.39 4.1a.291.291 0 0 1 .043.41.287.287 0 0 1 -.454-.353.3.3 0 0 1 .404-.06zm-.914-.713a.291.291 0 0 1 .043.41.287.287 0 1 1 -.454-.353.3.3 0 0 1 .404-.06zm-.914-.713a.3.3 0 0 1 .049.417.291.291 0 0 1 -.41.043.285.285 0 0 1 -.05-.4.3.3 0 0 1 .405-.064zm-.92-.714a.3.3 0 0 1 .057.411.3.3 0 0 1 -.417.049.285.285 0 0 1 -.05-.4.3.3 0 0 1 .41-.06zm-.914-.713a.3.3 0 0 1 .057.411.3.3 0 0 1 -.417.049.291.291 0 0 1 -.043-.41.285.285 0 0 1 .403-.053zm4.131 5.074a.287.287 0 1 1 -.353.454.3.3 0 0 1 -.056-.415.291.291 0 0 1 .409-.042zm-5.049-5.791a.3.3 0 0 1 .057.411.3.3 0 0 1 -.417.049.291.291 0 0 1 -.043-.41.285.285 0 0 1 .403-.05zm4.131 5.074a.287.287 0 1 1 -.353.454.3.3 0 0 1 -.057-.411.291.291 0 0 1 .415-.042zm-.906-.72a.291.291 0 0 1 .043.41.285.285 0 0 1 -.4.05.3.3 0 0 1 -.057-.411.3.3 0 0 1 .419-.048zm-.914-.713a.291.291 0 0 1 .043.41.285.285 0 0 1 -.4.05.3.3 0 0 1 -.057-.411.3.3 0 0 1 .419-.048zm-.911-.711a.291.291 0 0 1 .043.41.285.285 0 0 1 -.4.05.3.3 0 0 1 -.057-.411.3.3 0 0 1 .414-.049zm-.914-.713a.291.291 0 0 1 .043.41.287.287 0 0 1 -.454-.353.3.3 0 0 1 .413-.059zm-.914-.713a.285.285 0 0 1 .05.4.3.3 0 0 1 -.411.057.285.285 0 0 1 -.05-.4.3.3 0 0 1 .414-.06zm4.128 5.064a.285.285 0 0 1 .05.4.3.3 0 0 1 -.411.057.3.3 0 0 1 -.049-.417.291.291 0 0 1 .41-.04zm-5.039-5.78a.285.285 0 0 1 .05.4.3.3 0 0 1 -.411.057.291.291 0 0 1 -.043-.41.285.285 0 0 1 .404-.047zm4.125 5.067a.285.285 0 0 1 .05.4.3.3 0 0 1 -.411.057.3.3 0 0 1 -.049-.417.291.291 0 0 1 .41-.04zm-.914-.713a.287.287 0 1 1 -.353.454.3.3 0 0 1 -.057-.411.291.291 0 0 1 .41-.044zm-.914-.712a.287.287 0 1 1 -.4.05.285.285 0 0 1 .4-.05zm-.914-.713a.287.287 0 1 1 -.4.05.285.285 0 0 1 .401-.052zm-.906-.72a.291.291 0 0 1 .043.41.287.287 0 0 1 -.454-.353.3.3 0 0 1 .412-.059zm-.914-.713a.291.291 0 0 1 .043.41.287.287 0 0 1 -.454-.353.3.3 0 0 1 .412-.059zm4.212 5.136a.285.285 0 0 1 .05.4.3.3 0 0 1 -.411.057.3.3 0 0 1 -.049-.417.291.291 0 0 1 .41-.04zm-.914-.713a.285.285 0 0 1 .05.4.3.3 0 0 1 -.411.057.3.3 0 0 1 -.049-.417.291.291 0 0 1 .41-.041zm-.914-.713a.285.285 0 0 1 .05.4.3.3 0 0 1 -.411.057.3.3 0 0 1 -.047-.415.291.291 0 0 1 .409-.043zm-.914-.713a.285.285 0 0 1 .05.4.3.3 0 0 1 -.411.057.3.3 0 0 1 -.049-.417.291.291 0 0 1 .411-.041zm-.914-.713a.287.287 0 1 1 -.4.05.285.285 0 0 1 .401-.052zm-.914-.713a.287.287 0 1 1 -.4.05.285.285 0 0 1 .401-.052zm-.906-.72a.291.291 0 0 1 .043.41.287.287 0 0 1 -.454-.353.3.3 0 0 1 .412-.062zm4.126 5.065a.291.291 0 0 1 .043.41.285.285 0 0 1 -.4.05.3.3 0 0 1 -.057-.411.3.3 0 0 1 .414-.049zm-.914-.713a.291.291 0 0 1 .043.41.285.285 0 0 1 -.4.05.3.3 0 0 1 -.057-.411.3.3 0 0 1 .414-.049zm-.914-.713a.285.285 0 0 1 .05.4.3.3 0 0 1 -.408.056.3.3 0 0 1 -.049-.417.291.291 0 0 1 .408-.04zm-.914-.713a.285.285 0 0 1 .05.4.3.3 0 0 1 -.411.057.291.291 0 0 1 -.043-.41.285.285 0 0 1 .405-.048zm-.914-.713a.285.285 0 0 1 .05.4.3.3 0 0 1 -.411.057.291.291 0 0 1 -.043-.41.285.285 0 0 1 .405-.049zm-.913-.718a.285.285 0 0 1 .05.4.3.3 0 0 1 -.411.057.291.291 0 0 1 -.043-.41.285.285 0 0 1 .404-.047zm3.274 4.288a.287.287 0 1 1 -.353.454.3.3 0 0 1 -.057-.411.291.291 0 0 1 .41-.04zm-.914-.713a.287.287 0 1 1 -.353.454.3.3 0 0 1 -.057-.411.291.291 0 0 1 .411-.041zm-.914-.713a.287.287 0 1 1 -.353.454.3.3 0 0 1 -.057-.411.291.291 0 0 1 .411-.041zm-.906-.72a.291.291 0 0 1 .043.41.285.285 0 0 1 -.4.05.3.3 0 0 1 -.057-.411.3.3 0 0 1 .415-.047z" fill="#db9275" stroke="#925e4b" stroke-linecap="round" stroke-linejoin="round" stroke-width=".2"/><path d="m20.276 12.686.235.28c1.066 1.269 1.652 2.531 1.309 2.819l-6.706 5.633c-.343.288-1.485-.507-2.551-1.776l-.235-.28c-1.066-1.269-1.652-2.531-1.309-2.819l6.706-5.633c.343-.288 1.485.507 2.551 1.776" fill="#c47f67"/><path d="m20.589 13.067a.287.287 0 1 0 .05.4.285.285 0 0 0 -.05-.4zm.518.757-.008.006a.285.285 0 0 0 .05.4.264.264 0 0 0 .253.036c-.08-.137-.194-.291-.295-.442zm-1.424-1.477a.3.3 0 0 0 -.411.057.287.287 0 0 0 .454.353.291.291 0 0 0 -.043-.41zm-.914-.713a.3.3 0 0 0 -.411.057.285.285 0 0 0 .05.4.291.291 0 0 0 .41-.043.3.3 0 0 0 -.049-.414zm-.914-.713c-.028-.022-.065-.013-.1-.023h-.014l-.353.3a.3.3 0 0 0 .1.187.291.291 0 0 0 .41-.043.3.3 0 0 0 -.043-.422zm3.274 4.288a.3.3 0 0 0 -.411.057.287.287 0 1 0 .454.353.291.291 0 0 0 -.043-.411zm-.914-.713a.285.285 0 0 0 -.4.05.291.291 0 0 0 .043.41.3.3 0 0 0 .411-.057.285.285 0 0 0 -.054-.404zm-.914-.713a.285.285 0 0 0 -.4.05.291.291 0 0 0 .043.41.3.3 0 0 0 .411-.057.285.285 0 0 0 -.055-.405zm-.914-.713a.285.285 0 0 0 -.4.05.291.291 0 0 0 .043.41.3.3 0 0 0 .411-.057.285.285 0 0 0 -.053-.405zm-.914-.713a.285.285 0 0 0 -.4.05.291.291 0 0 0 .043.41.3.3 0 0 0 .411-.057.285.285 0 0 0 -.053-.405zm3.289 4.118a.291.291 0 0 0 -.41.043.3.3 0 0 0 .049.417c.01.008.024 0 .035.01l.4-.336a.26.26 0 0 0 -.073-.137zm-4.11-4.659-.361.3a.272.272 0 0 0 .32-.072.276.276 0 0 0 .041-.231zm3.2 3.946a.291.291 0 0 0 -.41.043.3.3 0 0 0 .049.417.3.3 0 0 0 .411-.057.285.285 0 0 0 -.053-.406zm-.914-.713a.291.291 0 0 0 -.41.043.3.3 0 0 0 .057.411.287.287 0 1 0 .353-.454zm-.914-.713a.291.291 0 0 0 -.41.043.3.3 0 0 0 .057.411.287.287 0 0 0 .353-.454zm-.914-.713a.291.291 0 0 0 -.41.043.3.3 0 0 0 .057.411.287.287 0 0 0 .353-.454zm-.91-.723a.3.3 0 0 0 -.417.049.3.3 0 0 0 .057.411.285.285 0 0 0 .4-.05.291.291 0 0 0 -.04-.41zm3.339 4.115a.3.3 0 0 0 -.417.049.3.3 0 0 0 .057.411.285.285 0 0 0 .4-.05.291.291 0 0 0 -.039-.411zm-.914-.713a.3.3 0 0 0 -.417.049.3.3 0 0 0 .057.411.285.285 0 0 0 .4-.05.291.291 0 0 0 -.038-.412zm-.914-.713a.3.3 0 0 0 -.417.049.3.3 0 0 0 .057.411.285.285 0 0 0 .4-.05.291.291 0 0 0 -.038-.411zm-.914-.713a.3.3 0 0 0 -.417.049.3.3 0 0 0 .057.411.285.285 0 0 0 .4-.05.291.291 0 0 0 -.037-.412zm-.914-.713a.3.3 0 0 0 -.411.057.285.285 0 0 0 .05.4.3.3 0 0 0 .411-.057.285.285 0 0 0 -.048-.402zm-.914-.713a.275.275 0 0 0 -.194-.06l-.238.2a.274.274 0 0 0 .072.32.3.3 0 0 0 .411-.057.285.285 0 0 0 -.048-.406zm3.218 4.361a.291.291 0 0 0 -.41.043.3.3 0 0 0 .057.411.287.287 0 0 0 .353-.454zm-.906-.72a.3.3 0 0 0 -.417.049.3.3 0 0 0 .057.411.285.285 0 0 0 .4-.05.291.291 0 0 0 -.038-.412zm-.914-.713a.3.3 0 0 0 -.417.049.3.3 0 0 0 .057.411.285.285 0 0 0 .4-.05.291.291 0 0 0 -.037-.413zm-.914-.713a.3.3 0 0 0 -.417.049.3.3 0 0 0 .057.411.285.285 0 0 0 .4-.05.291.291 0 0 0 -.037-.413zm-.914-.713a.3.3 0 0 0 -.417.049.3.3 0 0 0 .057.411.285.285 0 0 0 .4-.05.291.291 0 0 0 -.037-.413zm-.871-.631-.415.349c.008.008 0 .023.012.03a.3.3 0 0 0 .411-.057.27.27 0 0 0 -.005-.326zm3.992 4.955a.274.274 0 0 0 -.32.072.294.294 0 0 0 -.049.238zm-.824-.684a.291.291 0 0 0 -.41.043.3.3 0 0 0 .049.417.3.3 0 0 0 .411-.057.285.285 0 0 0 -.047-.406zm-.914-.713a.291.291 0 0 0 -.41.043.3.3 0 0 0 .057.411.287.287 0 1 0 .353-.454zm-.914-.713a.291.291 0 0 0 -.41.043.3.3 0 0 0 .057.411.287.287 0 1 0 .353-.454zm-.914-.713a.291.291 0 0 0 -.41.043.3.3 0 0 0 .057.411.287.287 0 0 0 .353-.454zm-.906-.72a.3.3 0 0 0 -.417.049.3.3 0 0 0 .057.411.285.285 0 0 0 .4-.05.291.291 0 0 0 -.036-.414zm3.291 4.417a.285.285 0 0 0 -.4.05.294.294 0 0 0 .031.38l.415-.349c-.017-.031-.016-.065-.042-.085zm-.907-.706a.291.291 0 0 0 -.41.043.3.3 0 0 0 .049.417.3.3 0 0 0 .411-.057.285.285 0 0 0 -.046-.407zm-.914-.713a.291.291 0 0 0 -.41.043.3.3 0 0 0 .049.417.3.3 0 0 0 .411-.057.285.285 0 0 0 -.046-.407zm-.914-.713a.291.291 0 0 0 -.41.043.3.3 0 0 0 .049.417.3.3 0 0 0 .411-.057.285.285 0 0 0 -.046-.408zm-.914-.713a.291.291 0 0 0 -.41.043.3.3 0 0 0 .057.411.287.287 0 1 0 .353-.454zm-.914-.713a.291.291 0 0 0 -.41.043.3.3 0 0 0 .057.411.287.287 0 0 0 .353-.454zm3.219 4.347a.3.3 0 0 0 -.417.049.3.3 0 0 0 .057.411c.025.02.055.011.084.022a.385.385 0 0 0 .215-.01.277.277 0 0 0 .105-.062.291.291 0 0 0 -.039-.415zm-.914-.713a.3.3 0 0 0 -.417.049.3.3 0 0 0 .057.411.285.285 0 0 0 .4-.05.291.291 0 0 0 -.035-.416zm-.914-.713a.291.291 0 0 0 -.41.043.3.3 0 0 0 .049.417.3.3 0 0 0 .411-.057.285.285 0 0 0 -.045-.409zm-.914-.713a.291.291 0 0 0 -.4.036c.117.159.169.292.3.454a.29.29 0 0 0 .15-.087.285.285 0 0 0 -.043-.41z" fill="#bd7a62"/><path d="m17.825 11.151c-.133-.029-.258-.048-.329.012l-6.455 5.422c-.343.288.251 1.558 1.331 2.844a5.216 5.216 0 0 0 2.286 1.82 6.549 6.549 0 0 1 -2.058-1.763c-1.08-1.286-1.667-2.548-1.325-2.836l6.547-5.5z" fill="#a76c58"/><path d="m15.06 21.24c.133.029.258.048.329-.012l6.455-5.422c.343-.288-.251-1.558-1.331-2.844a5.216 5.216 0 0 0 -2.286-1.82 6.549 6.549 0 0 1 2.055 1.758c1.08 1.286 1.667 2.548 1.325 2.836l-6.547 5.5z" fill="#d7a08e"/></svg>