<svg xmlns="http://www.w3.org/2000/svg" viewBox="0 0 32 32"><linearGradient id="SVGID_1_" gradientUnits="userSpaceOnUse" x1="285.9005" y1="422.9399" x2="307.3394" y2="415.1564" gradientTransform="matrix(1 0 0 1 -281.5 -403)"><stop offset="0" style="stop-color:#EB4A54"/><stop offset="1" style="stop-color:#9E2990"/></linearGradient><path fill-rule="evenodd" clip-rule="evenodd" fill="url(#SVGID_1_)" d="M10.2,6.2C9.1,4.8,6.9,5.6,6.7,7.4L5.5,21.2c-0.2,2.1,1.4,4,3.5,4.2l12.1,1c2.1,0.2,4-1.4,4.2-3.5l1.2-13.8c0.2-1.8-2-2.9-3.4-1.8l-3.4,2.8c-0.4,0.3-0.6,0.5-0.7,0.7s-0.1,0.4-0.1,0.6c0.1,0.2,0.2,0.4,0.6,0.7l0.7,0.8c3.2,3.7,0.2,9.3-4.7,8.9l-0.6,0c-4.8-0.5-6.7-6.5-3.1-9.6l0.8-0.7c0.4-0.3,0.6-0.5,0.7-0.7s0.1-0.4,0.1-0.6c-0.1-0.2-0.2-0.4-0.6-0.7L10.2,6.2z M17.7,7.5c-0.4,0.3-0.6,0.5-0.7,0.6c-0.2,0-0.4,0-0.6-0.1c-0.2-0.1-0.4-0.3-0.7-0.7L12.9,4C9.8,0.3,3.7,2.2,3.3,7.1L2,21c-0.4,4,2.6,7.5,6.6,7.9l12.1,1c4,0.4,7.5-2.6,7.9-6.6L30,9.4c0.5-4.8-5.2-7.7-8.9-4.7L17.7,7.5z M17.1,14.4c-0.3-0.4-0.5-0.6-0.7-0.7c-0.2-0.1-0.4-0.1-0.6-0.1c-0.2,0.1-0.4,0.2-0.7,0.6l-0.8,0.7c-1.4,1.1-0.7,3.4,1.1,3.5l0.7,0.1c1.8,0.2,2.9-2,1.8-3.4L17.1,14.4z"/></svg>
