<svg width="32" height="32" viewBox="0 0 32 32" fill="none" xmlns="http://www.w3.org/2000/svg">
  <rect width="32" height="32" rx="16" fill="white" />
  <mask id="path-2-outside-1_1059_2" maskUnits="userSpaceOnUse" x="7" y="4.65723" width="20"
    height="24" fill="black">
    <rect fill="white" x="7" y="4.65723" width="20" height="24" />
    <path
      d="M14.8782 18.8712C14.6622 18.8832 14.5062 18.8292 14.4102 18.7092C14.3142 18.5772 14.2842 18.3792 14.3202 18.1152C14.3442 17.8872 14.4042 17.7132 14.5002 17.5932C14.6082 17.4612 14.7462 17.3892 14.9142 17.3772C16.1142 17.2932 17.2002 17.0652 18.1722 16.6932C19.1442 16.3092 19.9722 15.8232 20.6562 15.2352C21.3522 14.6352 21.8862 13.9632 22.2582 13.2192C22.6302 12.4632 22.8162 11.6712 22.8162 10.8432C22.8162 10.1952 22.6662 9.70923 22.3662 9.38523C22.0662 9.04923 21.6342 8.88123 21.0702 8.88123C20.5782 8.88123 20.0622 9.01323 19.5222 9.27723C18.9822 9.52923 18.4362 9.89523 17.8842 10.3752C17.3442 10.8432 16.8162 11.4072 16.3002 12.0672C15.7962 12.7152 15.3222 13.4412 14.8782 14.2452C14.4462 15.0372 14.0682 15.8832 13.7442 16.7832L10.9542 25.4052C10.9062 25.5732 10.8102 25.6992 10.6662 25.7832C10.5222 25.8672 10.3122 25.9092 10.0362 25.9092C9.77221 25.9092 9.57421 25.8672 9.44221 25.7832C9.31021 25.6992 9.27421 25.5612 9.33421 25.3692L13.9962 11.0592C13.6962 11.3592 13.3782 11.6472 13.0422 11.9232C12.7062 12.1992 12.3522 12.4752 11.9802 12.7512C11.6202 13.0152 11.2362 13.2912 10.8282 13.5792C10.5762 13.7472 10.3662 13.8012 10.1982 13.7412C10.0302 13.6812 9.88021 13.5432 9.74821 13.3272C9.62821 13.1352 9.58021 12.9552 9.60421 12.7872C9.62821 12.6072 9.75421 12.4512 9.98221 12.3192C10.6902 11.8752 11.3442 11.4252 11.9442 10.9692C12.5562 10.5012 13.1142 10.0152 13.6182 9.51123C14.1222 8.99523 14.5602 8.46123 14.9322 7.90923C15.0762 7.70523 15.2082 7.56723 15.3282 7.49523C15.4482 7.42322 15.6402 7.38722 15.9042 7.38722C16.1802 7.38722 16.3782 7.42923 16.4982 7.51323C16.6302 7.59723 16.6602 7.73523 16.5882 7.92723L15.6522 10.8972C16.2042 10.1532 16.7862 9.51723 17.3982 8.98923C18.0222 8.46123 18.6582 8.06523 19.3062 7.80123C19.9662 7.52523 20.6262 7.38722 21.2862 7.38722C21.9342 7.38722 22.4922 7.51923 22.9602 7.78323C23.4402 8.04723 23.8062 8.41923 24.0582 8.89923C24.3102 9.37923 24.4362 9.94923 24.4362 10.6092C24.4362 11.7372 24.2022 12.7872 23.7342 13.7592C23.2662 14.7192 22.6002 15.5712 21.7362 16.3152C20.8842 17.0472 19.8702 17.6352 18.6942 18.0792C17.5302 18.5232 16.2582 18.7872 14.8782 18.8712Z" />
  </mask>
  <path
    d="M14.8782 18.8712C14.6622 18.8832 14.5062 18.8292 14.4102 18.7092C14.3142 18.5772 14.2842 18.3792 14.3202 18.1152C14.3442 17.8872 14.4042 17.7132 14.5002 17.5932C14.6082 17.4612 14.7462 17.3892 14.9142 17.3772C16.1142 17.2932 17.2002 17.0652 18.1722 16.6932C19.1442 16.3092 19.9722 15.8232 20.6562 15.2352C21.3522 14.6352 21.8862 13.9632 22.2582 13.2192C22.6302 12.4632 22.8162 11.6712 22.8162 10.8432C22.8162 10.1952 22.6662 9.70923 22.3662 9.38523C22.0662 9.04923 21.6342 8.88123 21.0702 8.88123C20.5782 8.88123 20.0622 9.01323 19.5222 9.27723C18.9822 9.52923 18.4362 9.89523 17.8842 10.3752C17.3442 10.8432 16.8162 11.4072 16.3002 12.0672C15.7962 12.7152 15.3222 13.4412 14.8782 14.2452C14.4462 15.0372 14.0682 15.8832 13.7442 16.7832L10.9542 25.4052C10.9062 25.5732 10.8102 25.6992 10.6662 25.7832C10.5222 25.8672 10.3122 25.9092 10.0362 25.9092C9.77221 25.9092 9.57421 25.8672 9.44221 25.7832C9.31021 25.6992 9.27421 25.5612 9.33421 25.3692L13.9962 11.0592C13.6962 11.3592 13.3782 11.6472 13.0422 11.9232C12.7062 12.1992 12.3522 12.4752 11.9802 12.7512C11.6202 13.0152 11.2362 13.2912 10.8282 13.5792C10.5762 13.7472 10.3662 13.8012 10.1982 13.7412C10.0302 13.6812 9.88021 13.5432 9.74821 13.3272C9.62821 13.1352 9.58021 12.9552 9.60421 12.7872C9.62821 12.6072 9.75421 12.4512 9.98221 12.3192C10.6902 11.8752 11.3442 11.4252 11.9442 10.9692C12.5562 10.5012 13.1142 10.0152 13.6182 9.51123C14.1222 8.99523 14.5602 8.46123 14.9322 7.90923C15.0762 7.70523 15.2082 7.56723 15.3282 7.49523C15.4482 7.42322 15.6402 7.38722 15.9042 7.38722C16.1802 7.38722 16.3782 7.42923 16.4982 7.51323C16.6302 7.59723 16.6602 7.73523 16.5882 7.92723L15.6522 10.8972C16.2042 10.1532 16.7862 9.51723 17.3982 8.98923C18.0222 8.46123 18.6582 8.06523 19.3062 7.80123C19.9662 7.52523 20.6262 7.38722 21.2862 7.38722C21.9342 7.38722 22.4922 7.51923 22.9602 7.78323C23.4402 8.04723 23.8062 8.41923 24.0582 8.89923C24.3102 9.37923 24.4362 9.94923 24.4362 10.6092C24.4362 11.7372 24.2022 12.7872 23.7342 13.7592C23.2662 14.7192 22.6002 15.5712 21.7362 16.3152C20.8842 17.0472 19.8702 17.6352 18.6942 18.0792C17.5302 18.5232 16.2582 18.7872 14.8782 18.8712Z"
    fill="white" />
  <path
    d="M14.8782 18.8712L14.9892 20.8682L14.9997 20.8675L14.8782 18.8712ZM14.4102 18.7092L12.7927 19.8856L12.8198 19.9227L12.8485 19.9586L14.4102 18.7092ZM14.3202 18.1152L16.3019 18.3855L16.306 18.3551L16.3092 18.3246L14.3202 18.1152ZM14.5002 17.5932L12.9523 16.3268L12.9453 16.3353L12.9385 16.3438L14.5002 17.5932ZM14.9142 17.3772L14.7746 15.3821L14.7717 15.3823L14.9142 17.3772ZM18.1722 16.6932L18.8871 18.5611L18.8971 18.5573L18.9071 18.5533L18.1722 16.6932ZM20.6562 15.2352L21.96 16.7519L21.9621 16.75L20.6562 15.2352ZM22.2582 13.2192L24.0471 14.1137L24.0527 14.1022L22.2582 13.2192ZM22.3662 9.38523L20.8743 10.7173L20.8864 10.7308L20.8987 10.744L22.3662 9.38523ZM19.5222 9.27723L20.368 11.0896L20.3844 11.0819L20.4006 11.074L19.5222 9.27723ZM17.8842 10.3752L19.1941 11.8866L19.1966 11.8844L17.8842 10.3752ZM16.3002 12.0672L14.7246 10.8354L14.7215 10.8393L16.3002 12.0672ZM14.8782 14.2452L13.1274 13.2784L13.1224 13.2875L14.8782 14.2452ZM13.7442 16.7832L11.8624 16.1058L11.8514 16.1365L11.8414 16.1675L13.7442 16.7832ZM10.9542 25.4052L9.05136 24.7895L9.04068 24.8225L9.03116 24.8558L10.9542 25.4052ZM9.44221 25.7832L8.36846 27.4705L8.36846 27.4705L9.44221 25.7832ZM9.33421 25.3692L7.43258 24.7497L7.42885 24.7612L7.42525 24.7727L9.33421 25.3692ZM13.9962 11.0592L15.8978 11.6787L12.582 9.64501L13.9962 11.0592ZM11.9802 12.7512L13.163 14.3641L13.1719 14.3574L11.9802 12.7512ZM10.8282 13.5792L11.9376 15.2433L11.9598 15.2285L11.9816 15.2132L10.8282 13.5792ZM10.1982 13.7412L10.8709 11.8577L10.8709 11.8577L10.1982 13.7412ZM9.74821 13.3272L11.4548 12.2843L11.4495 12.2757L11.4442 12.2672L9.74821 13.3272ZM9.60421 12.7872L11.5841 13.0701L11.5854 13.0608L11.5867 13.0516L9.60421 12.7872ZM9.98221 12.3192L10.9843 14.0501L11.0149 14.0324L11.0448 14.0136L9.98221 12.3192ZM11.9442 10.9692L13.1544 12.5616L13.1591 12.5579L11.9442 10.9692ZM13.6182 9.51123L15.0324 10.9254L15.0407 10.9171L15.049 10.9087L13.6182 9.51123ZM14.9322 7.90923L13.2983 6.75586L13.2858 6.77355L13.2737 6.79152L14.9322 7.90923ZM15.3282 7.49523L14.2992 5.78024L14.2992 5.78024L15.3282 7.49523ZM16.4982 7.51323L15.3513 9.15168L15.3873 9.17692L15.4245 9.20055L16.4982 7.51323ZM16.5882 7.92723L14.7156 7.22498L14.6968 7.27506L14.6807 7.32607L16.5882 7.92723ZM15.6522 10.8972L13.7447 10.2961L17.2584 12.0889L15.6522 10.8972ZM17.3982 8.98923L16.1063 7.46245L16.099 7.46865L16.0917 7.47491L17.3982 8.98923ZM19.3062 7.80123L20.0608 9.65341L20.0693 9.64994L20.0778 9.64638L19.3062 7.80123ZM22.9602 7.78323L21.9776 9.52518L21.9869 9.53047L21.9964 9.53566L22.9602 7.78323ZM24.0582 8.89923L25.829 7.96956L25.829 7.96956L24.0582 8.89923ZM23.7342 13.7592L25.532 14.6356L25.5362 14.6269L23.7342 13.7592ZM21.7362 16.3152L23.0396 17.8322L23.0413 17.8308L21.7362 16.3152ZM18.6942 18.0792L17.9878 16.2081L17.9814 16.2106L18.6942 18.0792ZM14.7673 16.8743C14.8423 16.8701 15.0224 16.8698 15.2534 16.9498C15.5047 17.0367 15.7664 17.2029 15.9719 17.4598L12.8485 19.9586C13.4975 20.7699 14.4099 20.9003 14.9891 20.8681L14.7673 16.8743ZM16.0277 17.5329C16.2062 17.7784 16.2709 18.0151 16.2931 18.1621C16.3042 18.2352 16.3059 18.2918 16.3054 18.3268C16.305 18.362 16.3023 18.3825 16.3019 18.3855L12.3385 17.845C12.2746 18.3136 12.2503 19.1398 12.7927 19.8856L16.0277 17.5329ZM16.3092 18.3246C16.309 18.3263 16.3037 18.3794 16.274 18.4657C16.2436 18.5536 16.1821 18.6924 16.0619 18.8426L12.9385 16.3438C12.5132 16.8754 12.3768 17.4727 12.3312 17.9059L16.3092 18.3246ZM16.0481 18.8597C15.9474 18.9828 15.8026 19.1128 15.6098 19.2134C15.4165 19.3143 15.2233 19.3602 15.0567 19.3721L14.7717 15.3823C14.0472 15.4341 13.4037 15.7751 12.9523 16.3268L16.0481 18.8597ZM15.0539 19.3723C16.4208 19.2767 17.7046 19.0137 18.8871 18.5611L17.4573 14.8253C16.6959 15.1168 15.8076 15.3098 14.7746 15.3821L15.0539 19.3723ZM18.9071 18.5533C20.0542 18.1001 21.0824 17.5063 21.96 16.7519L19.3524 13.7186C18.8621 14.1402 18.2342 14.5183 17.4374 14.8331L18.9071 18.5533ZM21.9621 16.75C22.8375 15.9954 23.5449 15.118 24.0471 14.1137L20.4694 12.3248C20.2275 12.8084 19.8669 13.2751 19.3503 13.7204L21.9621 16.75ZM24.0527 14.1022C24.5574 13.0765 24.8162 11.9829 24.8162 10.8432H20.8162C20.8162 11.3595 20.703 11.8499 20.4637 12.3362L24.0527 14.1022ZM24.8162 10.8432C24.8162 9.92352 24.6065 8.86099 23.8337 8.02641L20.8987 10.744C20.8597 10.7019 20.8324 10.6617 20.8148 10.6299C20.7975 10.5988 20.7921 10.5808 20.7927 10.5826C20.7934 10.5848 20.7995 10.6057 20.8054 10.6499C20.8112 10.6941 20.8162 10.7576 20.8162 10.8432H24.8162ZM23.8581 8.05319C23.0867 7.18921 22.0495 6.88123 21.0702 6.88123V10.8812C21.1564 10.8812 21.1515 10.8943 21.0923 10.8712C21.0622 10.8595 21.0237 10.8406 20.9823 10.812C20.9406 10.7833 20.9041 10.7506 20.8743 10.7173L23.8581 8.05319ZM21.0702 6.88123C20.2137 6.88123 19.3977 7.11187 18.6438 7.48046L20.4006 11.074C20.7267 10.9146 20.9427 10.8812 21.0702 10.8812V6.88123ZM18.6764 7.46486C17.9343 7.81118 17.2339 8.29036 16.5719 8.86602L19.1966 11.8844C19.6386 11.5001 20.0301 11.2473 20.368 11.0896L18.6764 7.46486ZM16.5743 8.86385C15.922 9.4292 15.3068 10.0907 14.7246 10.8354L17.8758 13.2991C18.3256 12.7237 18.7664 12.2573 19.1941 11.8866L16.5743 8.86385ZM14.7215 10.8393C14.1464 11.5788 13.616 12.3936 13.1274 13.2784L16.629 15.2121C17.0284 14.4889 17.446 13.8517 17.8789 13.2951L14.7215 10.8393ZM13.1224 13.2875C12.6385 14.1748 12.2191 15.115 11.8624 16.1058L15.626 17.4607C15.9173 16.6514 16.254 15.8997 16.634 15.2029L13.1224 13.2875ZM11.8414 16.1675L9.05136 24.7895L12.8571 26.021L15.6471 17.399L11.8414 16.1675ZM9.03116 24.8558C9.06858 24.7248 9.13748 24.5683 9.25535 24.4136C9.37433 24.2575 9.51627 24.1386 9.65847 24.0557L11.674 27.5108C12.2867 27.1533 12.6951 26.5924 12.8773 25.9547L9.03116 24.8558ZM9.65847 24.0557C9.82284 23.9598 9.95534 23.9272 10.0085 23.9166C10.0634 23.9056 10.0781 23.9092 10.0362 23.9092V27.9092C10.4597 27.9092 11.0848 27.8545 11.674 27.5108L9.65847 24.0557ZM10.0362 23.9092C10.0041 23.9092 10.0333 23.9061 10.1047 23.9213C10.1744 23.936 10.3307 23.978 10.516 24.0959L8.36846 27.4705C8.97317 27.8554 9.62447 27.9092 10.0362 27.9092V23.9092ZM10.516 24.0959C10.8312 24.2965 11.1291 24.6428 11.2514 25.1119C11.3592 25.5249 11.2811 25.8443 11.2432 25.9658L7.42525 24.7727C7.3273 25.0861 7.23723 25.5706 7.38098 26.1216C7.53934 26.7286 7.92124 27.186 8.36846 27.4705L10.516 24.0959ZM11.2358 25.9888L15.8978 11.6787L12.0946 10.4397L7.43258 24.7497L11.2358 25.9888ZM12.582 9.64501C12.3292 9.89781 12.0596 10.1421 11.7727 10.3778L14.3117 13.4687C14.6968 13.1523 15.0632 12.8206 15.4104 12.4734L12.582 9.64501ZM11.7727 10.3778C11.4637 10.6316 11.1358 10.8874 10.7885 11.145L13.1719 14.3574C13.5686 14.0631 13.9487 13.7669 14.3117 13.4687L11.7727 10.3778ZM10.7975 11.1384C10.4483 11.3945 10.0741 11.6634 9.67484 11.9453L11.9816 15.2132C12.3983 14.919 12.7922 14.6359 13.1629 14.364L10.7975 11.1384ZM9.71881 11.9151C9.71999 11.9143 9.74092 11.9004 9.78086 11.8812C9.82048 11.8621 9.8889 11.8331 9.98363 11.8087C10.1811 11.758 10.5043 11.7268 10.8709 11.8577L9.52553 15.6247C10.6043 16.01 11.5208 15.5212 11.9376 15.2433L9.71881 11.9151ZM10.8709 11.8577C11.2821 12.0046 11.4462 12.2704 11.4548 12.2843L8.04165 14.3701C8.31419 14.8161 8.77834 15.3579 9.52554 15.6247L10.8709 11.8577ZM11.4442 12.2672C11.4901 12.3406 11.6463 12.6347 11.5841 13.0701L7.62431 12.5044C7.51411 13.2758 7.76635 13.9298 8.05221 14.3872L11.4442 12.2672ZM11.5867 13.0516C11.4966 13.7267 11.0399 14.0179 10.9843 14.0501L8.98013 10.5884C8.46847 10.8846 7.75977 11.4878 7.62175 12.5229L11.5867 13.0516ZM11.0448 14.0136C11.7981 13.5412 12.5019 13.0574 13.1544 12.5616L10.734 9.3769C10.1865 9.79304 9.58231 10.2093 8.91963 10.6248L11.0448 14.0136ZM13.1591 12.5579C13.8357 12.0405 14.4611 11.4967 15.0324 10.9254L12.204 8.09701C11.7673 8.53372 11.2767 8.96194 10.7293 9.38051L13.1591 12.5579ZM15.049 10.9087C15.6302 10.3136 16.1461 9.68677 16.5907 9.02693L13.2737 6.79152C12.9743 7.23568 12.6142 7.67685 12.1875 8.11375L15.049 10.9087ZM16.5661 9.06259C16.5973 9.01841 16.6041 9.0147 16.5845 9.03517C16.5737 9.04647 16.5511 9.06905 16.5163 9.09804C16.4818 9.12679 16.429 9.16716 16.3572 9.21021L14.2992 5.78024C13.8216 6.0668 13.4964 6.47525 13.2983 6.75586L16.5661 9.06259ZM16.3572 9.21021C16.1505 9.33422 15.9826 9.37025 15.9308 9.37997C15.8714 9.3911 15.8559 9.38722 15.9042 9.38722V5.38722C15.5482 5.38722 14.9003 5.41957 14.2992 5.78024L16.3572 9.21021ZM15.9042 9.38722C15.9493 9.38722 15.9212 9.39142 15.8447 9.37519C15.7746 9.36033 15.5783 9.31061 15.3513 9.15168L17.6451 5.87477C17.0023 5.4248 16.2805 5.38722 15.9042 5.38722V9.38722ZM15.4245 9.20055C15.0936 8.99 14.7765 8.61573 14.6654 8.10459C14.5696 7.66414 14.6743 7.33491 14.7156 7.22498L18.4609 8.62947C18.5741 8.32754 18.6998 7.83331 18.5741 7.25487C18.4329 6.60572 18.0348 6.12045 17.572 5.8259L15.4245 9.20055ZM14.6807 7.32607L13.7447 10.2961L17.5597 11.4984L18.4957 8.52838L14.6807 7.32607ZM17.2584 12.0889C17.7351 11.4464 18.219 10.9226 18.7047 10.5035L16.0917 7.47491C15.3535 8.11186 14.6733 8.86009 14.046 9.70553L17.2584 12.0889ZM18.6901 10.516C19.1797 10.1017 19.6376 9.82584 20.0608 9.65341L18.5516 5.94904C17.6788 6.30461 16.8648 6.82071 16.1063 7.46245L18.6901 10.516ZM20.0778 9.64638C20.5141 9.46394 20.9127 9.38722 21.2862 9.38722V5.38722C20.3398 5.38722 19.4183 5.58651 18.5346 5.95607L20.0778 9.64638ZM21.2862 9.38722C21.6606 9.38722 21.8656 9.462 21.9776 9.52518L23.9429 6.04127C23.1189 5.57645 22.2078 5.38722 21.2862 5.38722V9.38722ZM21.9964 9.53566C22.1363 9.61263 22.2199 9.70024 22.2874 9.82889L25.829 7.96956C25.3925 7.13821 24.7441 6.48182 23.924 6.03079L21.9964 9.53566ZM22.2874 9.82889C22.3595 9.96625 22.4362 10.2035 22.4362 10.6092H26.4362C26.4362 9.69498 26.2609 8.79221 25.829 7.96956L22.2874 9.82889ZM22.4362 10.6092C22.4362 11.4509 22.2639 12.2027 21.9322 12.8916L25.5362 14.6269C26.1405 13.3718 26.4362 12.0236 26.4362 10.6092H22.4362ZM21.9365 12.8828C21.5955 13.5823 21.1033 14.2209 20.4312 14.7997L23.0413 17.8308C24.0971 16.9216 24.937 15.8562 25.532 14.6356L21.9365 12.8828ZM20.4329 14.7982C19.7774 15.3613 18.9715 15.8367 17.9878 16.2081L19.4006 19.9503C20.7689 19.4337 21.991 18.7331 23.0396 17.8322L20.4329 14.7982ZM17.9814 16.2106C17.0264 16.5748 15.9563 16.8019 14.7567 16.8749L14.9997 20.8675C16.5602 20.7725 18.034 20.4716 19.407 19.9479L17.9814 16.2106Z"
    fill="#3F3D56" mask="url(#path-2-outside-1_1059_2)" />
</svg>