<svg viewBox="0 0 32 32" xmlns="http://www.w3.org/2000/svg"><path d="m30 8.348s-19.158-2.08-21.065 6.415c-2.774 12.31 9.276 9.537 9.276 9.537s-16.384 7.021-14.651-9.277c1.214-11.096 22.799-8.408 26.44-6.675z" fill="#30660f"/><path d="m28.353 12.769s-8.669-.087-9.189 3.641c-.78 5.461 4.508 3.728 4.508 3.728s-7.108 3.728-6.935-3.381c.087-4.854 9.882-4.594 11.616-3.988z" fill="#30660f"/><path d="m28.526 10.516s-13.09-.173-13.957 5.548c-1.126 8.236 6.849 5.636 6.849 5.636s-10.663 5.635-10.489-5.2c.173-7.282 15-6.848 17.6-5.981z" fill="#30660f"/><g fill="#b8cc1c"><path d="m23.672 20.225s-6.935 3.641-7.542-2.6c.867.087 1.647.26 2.427.26.347 4.508 5.115 2.341 5.115 2.341z"/><path d="m18.731 15.717c-.087.26-.173.78-.26 1.04-1.474-.173-.867 0-2.427-.26 0-.087.087-.607.087-.693.867-4.421 10.576-3.554 12.136-2.947.087-.087-8.582-.78-9.536 2.861z"/><path d="m21.418 21.785s-10.489 5.548-11.356-3.985a28.539 28.539 0 0 0 3.641.347c.52 6.935 7.715 3.641 7.715 3.641z"/><path d="m14.05 15.023c-.087.347-.26 1.214-.347 1.474-2.254-.26-2.08-.173-3.728-.433 0-.173.087-.954.087-1.127 1.3-6.675 16.037-5.375 18.464-4.421 0 0-13.09-1.04-14.477 4.508z"/><path d="m18.037 24.3s-16.037 6.847-16.037-7.543a29.975 29.975 0 0 0 5.288 1.043c-.088 10.486 10.749 6.5 10.749 6.5z"/><path d="m8.241 13.029a22.386 22.386 0 0 0 -.693 2.254c-3.207-.693-2.427-.433-5.375-1.127.087-.26.26-1.474.347-1.647 2.774-9.882 24.099-5.894 27.48-4.161 0 0-18.9-3.467-21.759 4.681z"/></g></svg>