<svg viewBox="0 0 32 32" xmlns="http://www.w3.org/2000/svg"><g stroke-width=".155"><path fill="#6fa0bb" d="M4.542 16.148V3.588l4.21.042 4.21.04 2.93 4.304c1.613 2.367 2.997 4.264 3.076 4.215.083-.051.144-1.895.144-4.345V3.588l4.146.041 4.146.042v24.955l-4.146.041-4.146.041v-.436c0-.31-.846-1.678-2.95-4.769-1.622-2.383-3.016-4.355-3.097-4.383-.092-.032-.164 1.77-.19 4.727l-.04 4.779-4.147.041-4.146.041z"/><path fill="#5c59be" d="M18.297 26.262c-.292-.405-1.556-2.25-2.808-4.101-1.252-1.85-2.344-3.407-2.427-3.458-.201-.124-.205-14.335-.004-14.335.08 0 1.313 1.727 2.74 3.837 1.425 2.11 2.754 4.033 2.953 4.274l.36.438v7.04c0 4.154-.057 7.041-.141 7.041-.078 0-.38-.331-.673-.736z"/></g></svg>
