<svg viewBox="0 0 32 32" xmlns="http://www.w3.org/2000/svg"><path d="m29.821 4.321-5.798-2.321-12.53 12.212-7.66-5.827-1.654.837v13.578l1.644.827 7.65-5.827 12.55 12.2 5.8-2.321v-23.358zm-25.171 14.871v-6.374l3.55 3.167zm11.35-3.207 7.082-5.3v10.639l-7.092-5.339z" fill="#68217a"/><path d="m15.995 15.985 7.082-5.299v10.638l-7.092-5.339z" fill="#fff"/><path d="m4.65 19.192v-6.374l3.546 3.167z" fill="#fff"/><path d="m25.9 32.029a6.842 6.842 0 0 1 -6.4-3.658l-.6-1.189 3.826-2.223a5.233 5.233 0 0 1 -2.526-4.654c0-2.976 2.329-5.135 5.539-5.135a5.568 5.568 0 0 1 5.236 2.971l.661 1.163-3.277 2.105c1.895.938 3.628 2.324 3.628 5.28-.004 3.195-2.449 5.34-6.087 5.34zm-1.549-6.216a1.587 1.587 0 0 0 1.484.891 1.52 1.52 0 0 0 .374-.041 11.343 11.343 0 0 0 -1.078-.515l-.7-.3zm-9.319 6.21a5.77 5.77 0 0 1 -5.505-3.383l-.544-1.15 4.629-2.8.716 1.268c.413.732.477.732.584.732h.075a2.385 2.385 0 0 0 .023-.358v-11h5.642v11.033c0 3.49-2.152 5.659-5.62 5.659z" fill="#efeef0"/><g fill="#83cd29"><path d="m13.1 26.649c.443.786.846 1.45 1.814 1.45.926 0 1.51-.362 1.51-1.771v-9.585h2.818v9.622c0 2.918-1.711 4.247-4.209 4.247a4.375 4.375 0 0 1 -4.233-2.574z"/><path d="m23.055 26.4a3.07 3.07 0 0 0 2.78 1.712c1.168 0 1.914-.584 1.914-1.39 0-.966-.767-1.309-2.052-1.871l-.7-.3c-2.034-.866-3.385-1.952-3.385-4.247 0-2.114 1.611-3.723 4.128-3.723a4.166 4.166 0 0 1 4.009 2.257l-2.195 1.409a1.917 1.917 0 0 0 -1.814-1.208 1.226 1.226 0 0 0 -1.349 1.208c0 .846.524 1.188 1.733 1.712l.7.3c2.395 1.027 3.747 2.074 3.747 4.428 0 2.538-1.993 3.928-4.671 3.928a5.415 5.415 0 0 1 -5.136-2.882z"/></g></svg>