<svg width="32" height="32" xmlns="http://www.w3.org/2000/svg" preserveAspectRatio="xMidYMid"><title>snyk</title><g stroke="null"><path fill="#FFF" d="M23.223 7.932c-.688-1.945-2.25-4.678-2.473-5.063l-.194-.337c-.19-.347-.334-.596-.387-.69l-.706-1.22-1.01 6.54-.034.237c-.754-.04-1.557-.06-2.406-.06-.854 0-1.662.02-2.42.06l-.032-.238-.354-2.292-.656-4.247-.72 1.22c-.064.114-.26.454-.516.92l-.062.106c-.223.384-1.8 3.122-2.493 5.067-1.994.352-3.076.728-3.076.728V24.56L16 31.377l10.316-6.817V8.665s-1.085-.38-3.093-.733z"/><path fill="#3B3B63" d="M20.44 20.273H15.99v-6.946L11.48 20.07l-.7 6.923 5.143 3.427.07.046 5.26-3.498z"/><path fill="#DBDBDB" d="M15.916 30.395l-9.573-6.33V9.303S9.883 8.07 15.93 8.07c6.045 0 9.558 1.233 9.558 1.233v14.762l-9.572 6.33z"/><path fill="#C6C6C6" d="M16.054 8.07h-.013v22.325l9.574-6.33V9.302S22.1 8.07 16.054 8.07"/><path fill="#3B3B63" d="M21.226 26.954l-.812-6.68h-4.447V30.45z"/><path fill="#53537A" d="M10.78 26.993l5.212 3.473v-17.14L11.48 20.07z"/><path fill="#BC9375" d="M18.236 25.02c0 1.145-1.154 1.712-2.212 1.712-1.06 0-2.236-.567-2.236-1.713"/><path fill="#073251" d="M17.587 24.37c0 1.343-.78 1.703-1.575 1.703-.795 0-1.575-.36-1.575-1.703"/><path fill="#FFF" d="M16.012 25.61c-.85 0-1.263-.577-1.263-1.765h.404c0 1.39.58 1.39.858 1.39s.858 0 .858-1.39h.405c0 1.188-.414 1.766-1.263 1.766"/><path fill="#C49A7E" d="M22.756 10.153c0-1.45-2.64-6.01-2.64-6.01l-.894 5.784-.802 1.22-2.403.09-.01.02v-.02l-2.403-.09-.802-1.22-.893-5.783s-2.642 4.56-2.642 6.01l1.115 2.783s-.563 4.678-.306 5.29c.257.613 2.037 2.66 2.037 2.66s-.005 1.723.482 2.96c.348.885 1.114 1.244 1.848 1.244 1.123 0 1.563-.955 1.563-.955s.45.956 1.574.956c.735 0 1.5-.357 1.85-1.242.486-1.237.48-2.96.48-2.96s1.78-2.048 2.037-2.66c.257-.613-.306-5.29-.306-5.29l1.116-2.785z"/><path fill="#D8B7A0" d="M16.012 11.247l-.005.01v-.02l-2.403-.09-.802-1.22-.894-5.783s-2.64 4.56-2.64 6.01l1.115 2.784s-.563 4.677-.306 5.29c.257.612 2.036 2.66 2.036 2.66s-.004 1.723.482 2.96c.35.885 1.115 1.243 1.848 1.243 1.124 0 1.564-.955 1.564-.955l.005.01V11.247z"/><path fill="#3B3B63" d="M21.665 13.212c-.205-.398.086-1.338.086-1.338-1.666-1.585-2.084-4.89-2.084-4.89-.31 1.04-.988 4.112-.988 4.112s-1.245-.43-2.66-.432h-.011c-.078 0-.155.002-.23.005v12.96l.105.142v-.07h.065v.07-.07h.13v.07-.07h.066v.07l1.153-1.56.25-4.385 1.436 1.52 1.85.5s.69-.458.69-.456c.294-.38.392-.705.463-.874.257-.613-.32-5.304-.32-5.304"/><path fill="#53537A" d="M16.025 10.664h-.005c-1.417.002-2.662.432-2.662.432s-.677-3.07-.988-4.113c0 0-.417 3.306-2.085 4.89 0 0 .29.94.087 1.338 0 0-.577 4.693-.32 5.305.07.17.17.493.462.875 0-.002.692.456.692.456l1.85-.5 1.434-1.52.252 4.384 1.152 1.562v-.07h.066v.07-.07h.065V10.663z"/><path fill="#333152" d="M19.367 16.146h-2.16v.02c0 .7.652 1.266 1.417 1.266.766 0 1.418-.566 1.418-1.265v-.02h-.675z"/><path fill="#FFF" d="M17.747 16.146v.02c0 .417.36.754.81.754.45 0 .81-.337.81-.753v-.02h-1.62z"/><path fill="#333152" d="M18.807 16.146h-.38l-.01.002c.047.01.073.108.063.174-.015.1-.107.17-.213.172.03.132.146.237.3.257.196.027.378-.098.406-.28.02-.133-.05-.324-.166-.324M14.152 16.146h-2.16v.02c0 .7.653 1.266 1.418 1.266.765 0 1.418-.566 1.418-1.265v-.02h-.676z"/><path fill="#FFF" d="M12.532 16.146v.02c0 .417.362.754.81.754.45 0 .81-.337.81-.753v-.02h-1.62z"/><path fill="#333152" d="M13.593 16.146h-.38l-.01.002c.047.01.073.108.063.174-.015.1-.108.17-.214.172.03.132.147.237.3.257.197.027.378-.098.406-.28.02-.133-.05-.324-.165-.324"/><path fill="#C49A7E" d="M19.204 15.55c.09-.093.86-.902-.17-.902-.93 0-1.6.695-1.777.9h1.947z"/><path fill="#D8B7A0" d="M14.762 15.55c-.177-.207-.847-.902-1.778-.902-1.03 0-.26.81-.17.9h1.948z"/><path fill="#53537A" d="M11.496 16.138h3.94v-.343h-3.94z"/><path fill="#333152" d="M21.736 11.273c-1.145-1.49-1.504-3.916-1.536-4.138l.21-1.35c.85 1.602 1.742 3.504 1.803 4.298l-.477 1.19zm-.292 6.785c-.157.373-1.237 1.703-1.955 2.528l-.12.14v.176c0 .016 0 1.646-.45 2.787-.324.823-1.045.913-1.34.913-.745 0-1.067-.633-1.078-.656l-.042-.593h-.907l-.04.59c-.014.026-.328.657-1.07.657-.295 0-1.015-.087-1.34-.912-.448-1.137-.45-2.77-.45-2.787v-.176l-.12-.138c-.716-.825-1.796-2.155-1.95-2.518-.12-.393.08-2.934.337-5.063l.014-.118-.202-.504c.694-.675 1.182-1.603 1.518-2.487l.033.215 1.103 1.68.43-.17c.012-.005 1.118-.44 2.19-.44 1.068 0 2.192.435 2.202.44l.43.17 1.103-1.68.044-.28c.333.893.82 1.838 1.518 2.528l-.212.53.014.117c.256 2.13.458 4.67.34 5.053zm-6.104 7.37c.144-.06.274-.13.39-.208.104.028.205.028.282.028.077 0 .176 0 .28-.028.116.078.246.148.39.208-.18.125-.403.196-.67.196s-.49-.07-.672-.196zm.684 1.066c-.593 0-1.436-.244-1.646-.893.022 0 .043.003.065.003.114 0 .22-.01.325-.023.3.387.77.506 1.244.506.475 0 .945-.118 1.246-.506.103.013.21.023.323.023l.067-.002c-.208.65-1.04.894-1.623.894zM9.81 10.084c.062-.795.954-2.697 1.805-4.3l.226 1.466c-.085.548-.48 2.697-1.54 4.052l-.49-1.22zm13.473.08c0-1.53-2.422-5.767-2.7-6.245l-.773-1.343-1.11 7.19-.51.78c-.495-.153-1.336-.368-2.183-.368-.846 0-1.682.213-2.174.367l-.512-.78-.388-2.52v-.013h-.002l-.72-4.657-.79 1.342c-.278.477-2.72 4.714-2.72 6.245v.09l1.12 2.757c-.18 1.504-.52 4.77-.253 5.408.167.4.81 1.223 1.354 1.884l-.732 6.32 1.01.66.532-4.598c.076.447.19.92.357 1.346.23.588.64 1.033 1.163 1.297.03 1.406 1.443 2.165 2.774 2.165 1.32 0 2.72-.76 2.75-2.167.522-.264.93-.71 1.16-1.296.176-.444.29-.938.367-1.4l.537 4.614 1.008-.682-.73-6.28c.54-.657 1.17-1.47 1.335-1.863.268-.638-.087-3.904-.265-5.408l1.098-2.758v-.09z"/><path fill="#333152" d="M17.283 21.636H14.75s-.342.55-.342.73c0 .53 1.56 1.373 1.56 1.373s1.648-.87 1.648-1.375c0-.24-.333-.73-.333-.73"/><path fill="#C49A7E" d="M16.795 23.252c-.142-.232-.324-.275-.408-.096-.083.18-.036.513.106.744.14.233.324.275.407.096.084-.18.036-.513-.105-.744"/><path fill="#D8B7A0" d="M15.23 23.252c-.143.23-.19.565-.106.744.083.18.265.137.407-.096.143-.23.19-.564.106-.744-.083-.18-.265-.136-.407.096"/></g></svg>
