<svg xmlns="http://www.w3.org/2000/svg" viewBox="0 0 32 32"><title>file_type_minecraft</title><path fill="#52a535" d="M30 2H2v28h28z"/><path fill="#86d562" d="M24.4 13.2h-5.6v.47h5.6v-.47m-5.6 8.4h-5.6v.47h5.6v-.47m2.8 2.8h-2.8v.47h2.8v-.47m-8.4 0h-2.8v.47h2.8v-.47m0-11.2H7.6v.47h5.6z"/><path d="M24.4 13.2V7.6h-5.6v5.6h-5.6V16h-2.8v8.4h2.8v-2.8h5.6v2.8h2.8V16h-2.8v-2.8h5.6M13.2 7.6H7.6v5.6h5.6z"/><path fill="#2a641c" d="M24.4 7.6h-5.6v.47h5.6V7.6m-5.6 5.6h-5.6v.47h5.6v-.47m-5.6-5.6H7.6v.47h5.6V7.6m0 8.4h-2.8v.47h2.8V16m8.4 0h-2.8v.47h2.8z"/></svg>