<svg xmlns="http://www.w3.org/2000/svg" viewBox="0 0 32 32"><title>file_type_wdio</title><g fill="#e85705" fill-rule="evenodd"><path d="M10 12h.5v-.6H10zm.9 0h.5v-.6h-.5zm.8 0h.5v-.6h-.5zm.9 0h.5v-.6h-.5zM9.9 7.2v-3c-.9 0-1.6.6-1.6 1.5a1.6 1.6 0 0 0 1.6 1.6m13.8-1.5a1.6 1.6 0 0 0-1.6-1.6v3.1c.9 0 1.6-.6 1.6-1.5m-10-1.4c.7 0 1.3.6 1.3 1.3a1.3 1.3 0 0 1-2.6 0c0-.7.5-1.3 1.3-1.3m0 2.9c.8 0 1.6-.7 1.6-1.6S14.5 4 13.6 4c-.8 0-1.6.7-1.6 1.6s.8 1.6 1.6 1.6m.1-.4c.6 0 1-.5 1-1.1s-.4-1.1-1-1.1-1.1.5-1.1 1 .4 1.2 1 1.2m4.8-2.4c.7 0 1.3.6 1.3 1.3a1.3 1.3 0 0 1-2.6 0c0-.7.5-1.3 1.3-1.3m0 2.9c.8 0 1.6-.7 1.6-1.6S19.2 4 18.4 4c-1 0-1.7.7-1.7 1.6s.8 1.6 1.7 1.6"/><path d="M18.4 6.8c.6 0 1-.5 1-1.1s-.4-1.1-1-1.1-1.1.5-1.1 1 .4 1.2 1 1.2m2.2-1.3h.6V5h-.6zm0 .7h.6v-.5h-.6zm-9.9-2.9a.9.9 0 0 1 1-1h8.9a.9.9 0 0 1 .9 1V7a.9.9 0 0 1-1 1h-8.9c-.5 0-.9-.5-.9-1zm1 5h8.9c.7 0 1.2-.5 1.2-1.2V3.2c0-.6-.5-1.1-1.2-1.1h-9c-.7 0-1.2.5-1.2 1.1v4c0 .6.5 1.1 1.2 1.1zm11.2.5c.7 0 1.2.5 1.3 1.2v.1c.8.1 3.5 1 3.5 3.9v6.4c.3.2.5.5.5.8 0 .2 0 .5-.3.6l.2 1.8s0 .5-.3.8a1 1 0 0 1-.7.2c-.8 0-.9-.7-.9-1v-.2c0-.1 0-.2-.2-.2l-.2.2c-.3.4-.8.3-1 .2a.6.6 0 0 1-.4-.4c0-.2 0-.5.3-.8.2-.2.2-.4.2-.6a.9.9 0 0 1-.3-.6.8.8 0 0 1 .5-.8v-5.7c0-.5-.2-.7-.5-1a1 1 0 0 0-.4-.1v9c0 .7-.6 1.2-1.2 1.2h-1v3.4h.8c.3 0 1.2.3 1.3 1.4V30h-4.2l-1.3-.4v-1c0-.5 0-.8.2-1v-3.7h-5.5v3.6c.2.2.3.6.3 1v1.1l-1.3.4H7.9v-1.2a1.7 1.7 0 0 1 1.4-1.5h.7v-3.4h-.8a1.2 1.2 0 0 1-1.3-1.1v-9.2a1 1 0 0 0-.4.3c-.3.2-.5.4-.5.8v5.8c.3.2.5.5.5.8 0 .2 0 .5-.3.6 0 .2 0 .4.2.6l.3.8a.6.6 0 0 1-.3.4c-.3.1-.8.2-1-.2l-.3-.2c-.1 0-.2 0-.2.2v.1c0 .4 0 1.1-1 1.1a1 1 0 0 1-.6-.2c-.3-.3-.3-.7-.3-.8l.2-1.8a1 1 0 0 1-.3-.6c0-.3.1-.6.4-.8V14c0-3 2.8-3.8 3.6-4 0-.6.6-1.2 1.2-1.2zm.9 19.7H20v.1h3.7a1.4 1.4 0 0 0 0-.1zm-11.8 0H8.3v.1h3.6a1 1 0 0 1 0-.1zm7-.8-.1.6 1 .3a1.4 1.4 0 0 0-.4-.8c0-.2-.2-.2-.2-.2a.2.2 0 0 0-.2 0zm-6-.1-.4.2a1.4 1.4 0 0 0-.3.8l1-.3-.2-.6a.2.2 0 0 0-.2-.1zm9.8-.1h-3.1l.4.8h3.6c-.2-.6-.9-.8-1-.8zm-10.3 0h-3a1.2 1.2 0 0 0-1 .8H12c0-.3.2-.5.3-.7l.1-.1zm-1.8-3.7h-.4v3.4h.4zm2.3 0h-.4v2h.1v.6h-.1v.8h.4zm8.9 0h-.4v3.4h.4zm-2.3 0H19v3.4h.4v-.8h-.2v-.6h.2zm-15-1.7-.2 1.5s0 .4.2.6l.5.1.4-.1a.7.7 0 0 1-.4-.3V23a6.2 6.2 0 0 0 .2-.7 2.4 2.4 0 0 1-.7-.2zm23 0-.7.2c0 .4.1.5.2.7v.9a.7.7 0 0 1-.4.3l.4.1.5-.1c.2-.2.2-.5.2-.6l-.1-1a9.7 9.7 0 0 1 0-.5zm-1.7.2-.3.4-.2.3a.2.2 0 0 0 0 .2.3.3 0 0 0 .1 0c.1-.1.3-.3.5-.3a.5.5 0 0 1 .5.5v.5c.1 0 .3 0 .3-.2v-.5l-.2-.9a2.9 2.9 0 0 1-.7 0zm-19.6 0a2.9 2.9 0 0 1-.7 0l-.2 1v.4l.3.2v-.5a.5.5 0 0 1 .5-.5c.2 0 .4.2.5.3a.3.3 0 0 0 .2 0 .2.2 0 0 0 0-.2l-.3-.3a2.4 2.4 0 0 1-.3-.4zm18.9-.2a1.3 1.3 0 0 1-.3.5l-.2.6a.3.3 0 0 0 .2.1l.3.1a.5.5 0 0 1 0-.2.4.4 0 0 1 0-.3l.3-.4.2-.2a2 2 0 0 1-.5-.2zM6.9 22a2 2 0 0 1-.5.2l.2.2.4.4a.4.4 0 0 1 0 .3.5.5 0 0 1-.1.2.6.6 0 0 0 .3 0 .3.3 0 0 0 .2-.2c0-.2 0-.4-.2-.6a1.3 1.3 0 0 1-.3-.5zm15.5-2H9.7v1.8c0 .6.5 1.1 1.2 1.1h10.3c.7 0 1.2-.5 1.2-1.1zm1.7-9.6v1.9c.3 0 .7.2 1 .5.4.4.7 1 .7 1.7V20h1.4v-6c0-1.1-.5-2-1.5-2.8a4.5 4.5 0 0 0-1.6-.7zm-16.2 0c-.3.1-1 .3-1.6.7-1 .7-1.5 1.6-1.5 2.8v6h1.4v-5.3c0-.7.3-1.4.7-1.8a2 2 0 0 1 1-.5zm14.5 3.9h-6.7v3.5h6.7zm-12.4.3h-.2v3h.2zm3.2 0c-.8 0-1.5.6-1.5 1.4a1.5 1.5 0 0 0 1.5 1.5 1.5 1.5 0 0 0 1.5-1.5c0-.9-.7-1.4-1.5-1.4zm-1.5 0h-.2l-1.2 3h.2zm1.5.2c.7 0 1.3.5 1.3 1.2s-.6 1.3-1.3 1.3-1.3-.5-1.3-1.3.6-1.2 1.3-1.2zm8-5.4H11c-.7 0-1.2.6-1.2 1.2v1.5h12.7v-1.5c0-.6-.5-1.2-1.2-1.2z"/></g><g fill="none" stroke="#e85705"><g stroke-width=".1"><path d="M15.7 16.8c.7-1 1.7-1 3.2-.1 2 1.3 1.3-2.8 3.6-.7" stroke-linecap="square"/><path d="M12.6 21.5c0 .7-.5 1.2-1.2 1.2s-1.2-.5-1.2-1.2.6-1.2 1.2-1.2 1.2.6 1.2 1.2zm3 0c0 .7-.5 1.2-1.2 1.2s-1.2-.5-1.2-1.2.6-1.2 1.2-1.2 1.2.6 1.2 1.2z"/></g><path d="M11.4 22.6v-1m3 0 .7-.9m2.1 0h3.9m-3.9.8h3.9m-3.9.7h2.3" stroke-linecap="round" stroke-width=".2"/></g></svg>