<svg xmlns="http://www.w3.org/2000/svg" viewBox="0 0 32 32"><title>file_type_tuc</title><path d="M9.761,14.6a9.935,9.935,0,0,0,.447,2.949,5.64,5.64,0,0,0,.393,1.076,6,6,0,0,0,11.2-4.174A10,10,0,0,1,3.216,21.714,15.15,15.15,0,0,1,2.6,20.051a14,14,0,0,1,26.189-9.765A10,10,0,0,0,9.761,14.6Z" style="fill:#2eb9db"/><path d="M30,16A14,14,0,0,1,3.216,21.714,10,10,0,0,0,21.8,14.451a5.581,5.581,0,0,0-.4-1.067,6,6,0,0,0-11.2,4.173A10,10,0,0,1,28.784,10.3a15.211,15.211,0,0,1,.621,1.662A13.99,13.99,0,0,1,30,16Z" style="fill:#388bba"/></svg>