<svg xmlns="http://www.w3.org/2000/svg" viewBox="0 0 32 32"><title>file_type_astroconfig</title><path fill="url(#a)" d="M11.025 20.499c-.532 1.75-.154 4.184 1.105 5.331v-.042l.042-.112c.154-.741.756-1.203 1.526-1.175.713.014 1.12.392 1.217 1.217.042.308.042.616.056.938v.098c0 .7.196 1.371.588 1.959.35.56.84.993 1.497 1.287l-.028-.056-.028-.112c-.49-1.469-.14-2.49 1.147-3.358l.392-.266.868-.573a4.254 4.254 0 0 0 1.791-3.037c.07-.532 0-1.05-.154-1.553l-.21.14c-1.945 1.035-4.17 1.4-6.325.98-1.301-.197-2.56-.56-3.498-1.652z"/><path fill="#fff" d="M4.925 20.191s3.736-1.82 7.486-1.82l2.84-8.759c.098-.42.406-.7.756-.7s.644.28.756.714l2.826 8.746c4.45 0 7.487 1.82 7.487 1.82L20.709 2.84c-.168-.518-.49-.84-.896-.84h-7.612c-.406 0-.7.322-.896.84z"/><path d="M25.684,27.193l.456-.447c2.112.068,2.144,0,2.237-.219l.58-1.393L29,25l-.047-.115c-.025-.061-.1-.243-1.42-1.483v-.652c1.521-1.445,1.489-1.519,1.4-1.73l-.577-1.407c-.087-.211-.12-.294-2.216-.237l-.457-.465a10,10,0,0,0-.071-2.053l-.059-.132-1.508-.65c-.222-.1-.3-.136-1.724,1.393l-.64-.009c-1.466-1.543-1.535-1.515-1.755-1.428l-1.4.559c-.219.088-.3.119-.212,2.219l-.453.445c-2.11-.068-2.142.006-2.234.219l-.581,1.393L15,21l.048.116c.025.06.1.24,1.419,1.481v.65c-1.521,1.445-1.488,1.519-1.4,1.731l.577,1.409c.089.215.12.292,2.216.238l.456.467a9.967,9.967,0,0,0,.07,2.05l.058.133,1.518.654c.221.091.3.124,1.717-1.4l.64.008c1.468,1.545,1.543,1.515,1.757,1.43l1.4-.558C25.7,29.324,25.773,29.294,25.684,27.193Zm-6.013-3.262a2.467,2.467,0,0,1,.623-2.691,2.451,2.451,0,0,1,.826-.509,2.526,2.526,0,0,1,3.246,1.429,2.466,2.466,0,0,1-1.405,3.184,2.553,2.553,0,0,1-3.29-1.413Z" fill="#99b8c4"/><defs><linearGradient id="a" x1="8.19" x2="16.91" y1="23" y2="18.89" gradientTransform="translate(-.673 -2.198) scale(1.3993)" gradientUnits="userSpaceOnUse"><stop offset="0" stop-color="#D83333"/><stop offset="1" stop-color="#F041FF"/></linearGradient></defs></svg>