<svg xmlns="http://www.w3.org/2000/svg" viewBox="0 0 32 32"><title>file_type_expo</title><g fill="none" transform="translate(3.4 2.8)"><path fill="#FFF" d="M.9 17.57l7-13.25L15 .4 17 1.6l-6.12 3.78 6.28 21.37L15 25.5 9.88 14 2.6 18.47z"/><circle cx="21.5" cy="11.9" r="2.5" fill="#FFF"/><path fill="#4630EB" d="M19.84 13.32a3.45 3.45 0 0 0 3.64-2.66 2.3 2.3 0 0 0-1.91-.99 2.29 2.29 0 0 0-2.13 1.28 2.1 2.1 0 0 0 .4 2.37zm-8.12-9.16l4.74-2.61-1.5-.82-6.54 3.62.52.27.99.53 1.8-.99zm5.35-2.86c.08.03.14.09.17.16l2.2 6.41c.03.11-.01.23-.12.3a4.2 4.2 0 0 0-2.05 4.8 4.48 4.48 0 0 0 4.78 3.12c.12 0 .23.06.27.17l2.27 6.59c.03.1-.01.23-.11.29l-6.95 4.02a.27.27 0 0 1-.12.04.27.27 0 0 1-.18-.04l-2.44-1.52a.25.25 0 0 1-.1-.1L9.92 14.64l-7.27 4.11a.26.26 0 0 1-.05.03.26.26 0 0 1-.23-.02l-1.64-.92a.24.24 0 0 1-.1-.32l7.03-13.3a.25.25 0 0 1 .12-.1l7.04-3.9a.27.27 0 0 1 .26 0l1.99 1.07zM9.71 5.6l-1.37-.73L8 4.69 1.2 17.54l1.23.7 5.87-7.61a.26.26 0 0 1 .24-.1c.09 0 .17.06.2.15l6.4 14.6 1.7 1.05L10 6.44l-.29-.83zm11.86 8.92a2.78 2.78 0 0 1-2.7-1.98c-.33-1.17.2-2.4 1.3-3a2.9 2.9 0 0 1 3.37.42 2.6 2.6 0 0 1 0 3.77c-.52.5-1.23.79-1.97.79z"/></g></svg>