<svg xmlns="http://www.w3.org/2000/svg" viewBox="0 0 32 32">
  <title>file_type_cssmap</title>
  <path d="M16,30A14,14,0,1,1,30,16,14.016,14.016,0,0,1,16,30ZM16,3.176A12.824,12.824,0,1,0,28.824,16,12.84,12.84,0,0,0,16,3.176Z" style="fill:#33a9dc"/>
  <rect x="2.784" y="15.412" width="26.432" height="1.176" style="fill:#33a9dc"/>
  <path d="M16.317,10.474A44.779,44.779,0,0,1,4.42,8.92l.34-1.126c.111.034,11.277,3.32,22.427,0l.335,1.127A39.374,39.374,0,0,1,16.317,10.474Z" style="fill:#33a9dc"/>
  <path d="M4.785,23.907,4.45,22.781c11.5-3.422,22.634-.14,23.1,0l-.34,1.126C27.1,23.873,15.936,20.588,4.785,23.907Z" style="fill:#33a9dc"/>
  <path d="M11.468,28.764a35.454,35.454,0,0,1-.742-25.71l1.082.461A34.228,34.228,0,0,0,12.55,28.3Z" style="fill:#33a9dc"/>
  <path d="M20.441,28.764,19.36,28.3A34.229,34.229,0,0,0,20.1,3.515l1.082-.461A35.461,35.461,0,0,1,20.441,28.764Z" style="fill:#33a9dc"/>
  <rect x="15.412" y="2.783" width="1.175" height="26.919" style="fill:#33a9dc"/>
  <path fill="#639" d="M0 0H840A160 160 0 0 1 1000 160V840A160 160 0 0 1 840 1000H160A160 160 0 0 1 0 840V0Z"/>
  <path fill="#fff" d="M253 817V649c0-67 43-103 108-103 64-1 104 41 102 112h-74c2-27-10-47-30-46-25 0-32 17-32 49v146c0 31 10 46 32 47 23 0 32-23 30-49h74c4 73-42 116-107 115-63 0-103-35-103-103Zm237-12h69c1 32 11 52 33 52s30-13 30-43c0-25-11-39-38-52l-26-12c-46-22-65-49-65-103 0-60 38-102 100-102s95 43 96 113h-67c0-29-6-49-28-49-20 0-30 10-30 35s9 35 33 45l24 11c51 24 73 55 73 113 0 69-39 107-103 107s-100-44-101-115Zm226 0h70c0 32 11 52 32 52s30-13 30-43c0-25-10-39-38-52l-26-12c-46-22-64-49-64-103 0-60 37-102 100-102s94 43 96 113h-67c-1-29-7-49-29-49-20 0-29 10-29 35s8 35 32 45l25 11c50 24 72 55 72 113 0 69-39 107-103 107s-100-44-101-115Z"/>
</svg>
