<svg viewBox="0 0 32 32" xmlns="http://www.w3.org/2000/svg"><g fill="#828282"><path d="m23.425 2.937 6.575.003v6.573l-1.951-.029.021-3.714-9.243 9.23-7.427-6.344-8.018 7.421-1.382-1.35 9.379-8.614 7.439 6.116 7.344-7.362-2.73.005-.008-1.935z"/><path d="m24.365 11.708 1.911-1.884v19.227h-1.924l.013-17.342z"/><path d="m9.468 12.7 1.922-1.783-.016 18.148-1.906-.016z"/><path d="m13.2 12.5 1.908 1.619-.008 14.939-1.911-.008z"/><path d="m20.645 15.583 1.908-2.039.005 15.5h-1.927l.013-13.467z"/><path d="m5.742 16.191 1.924-1.826.027 14.682h-1.945z"/><path d="m16.918 15.66 1.914 1.64.005 11.748h-1.927l.008-13.39z"/></g></svg>