<svg id="svg" version="1.1" xmlns="http://www.w3.org/2000/svg" xmlns:xlink="http://www.w3.org/1999/xlink" width="400" height="400" viewBox="0, 0, 400,400"><g id="svgg"><path id="path0" d="M61.312 28.770 C 61.047 29.193,60.625 30.768,60.373 32.270 C 60.121 33.771,59.709 35.432,59.458 35.961 C 58.840 37.258,58.817 55.909,59.433 56.315 C 59.671 56.472,60.084 57.941,60.350 59.579 C 60.616 61.218,60.985 62.748,61.171 62.979 C 61.356 63.211,61.641 64.030,61.804 64.800 C 61.967 65.570,62.220 66.290,62.365 66.400 C 62.841 66.759,63.945 70.000,63.591 70.000 C 63.402 70.000,63.145 69.834,63.019 69.631 C 62.894 69.428,62.253 69.143,61.595 68.999 C 60.938 68.855,60.400 68.589,60.400 68.408 C 60.400 68.228,59.500 67.864,58.400 67.600 C 57.300 67.336,56.400 66.958,56.400 66.760 C 56.400 66.562,56.120 66.400,55.778 66.400 C 55.436 66.400,54.359 66.037,53.385 65.593 C 52.412 65.150,50.756 64.672,49.707 64.532 C 48.658 64.392,47.700 64.125,47.577 63.940 C 47.454 63.754,45.834 63.405,43.977 63.165 C 42.120 62.924,40.220 62.547,39.756 62.326 C 39.101 62.015,31.818 61.465,24.800 61.196 C 22.756 61.118,14.982 62.054,14.869 62.392 C 14.795 62.616,14.042 62.800,13.197 62.800 C 11.260 62.800,7.600 63.630,7.600 64.069 C 7.600 64.251,7.330 64.400,7.000 64.400 C 5.795 64.400,7.095 68.570,8.953 70.668 C 9.832 71.660,10.209 72.217,10.800 73.400 C 11.130 74.060,11.985 75.161,12.700 75.847 C 13.415 76.533,14.000 77.240,14.000 77.417 C 14.000 77.873,23.071 86.800,23.534 86.800 C 23.743 86.800,24.018 87.070,24.145 87.400 C 24.271 87.730,24.615 88.000,24.909 88.000 C 25.203 88.000,26.149 88.646,27.010 89.435 C 27.872 90.224,29.392 91.343,30.388 91.921 C 31.385 92.500,32.399 93.165,32.642 93.400 C 32.886 93.635,33.966 94.272,35.042 94.814 C 36.119 95.356,37.060 95.935,37.133 96.100 C 37.207 96.265,37.465 96.400,37.707 96.400 C 38.118 96.400,39.418 96.951,43.440 98.830 C 44.342 99.251,45.647 99.709,46.340 99.848 C 47.033 99.987,47.600 100.240,47.600 100.410 C 47.600 100.581,48.500 100.936,49.600 101.200 C 50.700 101.464,51.600 101.831,51.600 102.015 C 51.600 102.200,52.412 102.473,53.405 102.622 C 54.398 102.771,55.300 103.039,55.411 103.218 C 55.522 103.397,56.593 103.666,57.791 103.816 C 59.701 104.055,59.897 104.160,59.384 104.673 C 59.063 104.994,58.800 105.505,58.800 105.809 C 58.800 106.112,58.575 106.504,58.300 106.680 C 57.701 107.063,56.997 108.136,56.187 109.900 C 55.858 110.615,55.451 111.200,55.282 111.200 C 55.114 111.200,54.752 111.695,54.480 112.300 C 53.757 113.904,52.716 115.770,52.416 116.000 C 52.272 116.110,51.918 116.785,51.629 117.500 C 51.340 118.215,50.959 118.800,50.783 118.800 C 50.607 118.800,50.345 119.340,50.200 120.000 C 50.055 120.660,49.800 121.200,49.632 121.200 C 49.465 121.200,49.090 121.920,48.800 122.800 C 48.510 123.680,48.149 124.400,47.999 124.400 C 47.849 124.400,47.511 125.120,47.247 126.000 C 46.984 126.880,46.603 127.600,46.402 127.600 C 46.201 127.600,45.918 128.230,45.774 129.000 C 45.629 129.770,45.371 130.400,45.199 130.400 C 45.027 130.400,44.763 130.892,44.612 131.494 C 44.461 132.095,43.902 133.541,43.369 134.706 C 42.836 135.871,42.400 137.178,42.400 137.612 C 42.400 138.045,42.220 138.400,42.000 138.400 C 41.780 138.400,41.600 138.720,41.600 139.111 C 41.600 139.502,41.352 140.177,41.050 140.611 C 40.747 141.045,40.268 142.435,39.986 143.700 C 39.704 144.965,39.341 146.000,39.181 146.000 C 39.020 146.000,38.764 146.669,38.610 147.486 C 38.457 148.304,38.100 149.429,37.818 149.986 C 37.535 150.544,37.179 151.855,37.027 152.900 C 36.875 153.945,36.607 154.800,36.430 154.800 C 36.254 154.800,35.887 156.195,35.614 157.900 C 35.341 159.605,34.977 161.180,34.804 161.400 C 34.631 161.620,34.359 162.790,34.200 164.000 C 34.041 165.210,33.777 166.380,33.615 166.600 C 33.276 167.058,32.399 173.169,32.399 175.067 C 32.400 175.763,32.244 176.393,32.053 176.467 C 30.510 177.060,30.439 223.667,31.981 224.800 C 32.130 224.910,32.477 226.968,32.751 229.372 C 33.025 231.777,33.414 234.053,33.616 234.430 C 33.818 234.807,34.102 236.125,34.247 237.358 C 34.392 238.591,34.633 239.600,34.783 239.600 C 34.933 239.600,35.294 241.085,35.586 242.900 C 35.878 244.715,36.238 246.290,36.388 246.400 C 36.537 246.510,36.969 247.770,37.347 249.200 C 37.725 250.630,38.237 252.565,38.484 253.500 C 38.732 254.435,39.060 255.200,39.213 255.200 C 39.366 255.200,39.720 256.280,40.000 257.600 C 40.280 258.920,40.657 260.000,40.837 260.000 C 41.017 260.000,41.282 260.630,41.426 261.400 C 41.571 262.170,41.815 262.800,41.969 262.800 C 42.123 262.800,42.479 263.700,42.761 264.800 C 43.043 265.900,43.437 266.800,43.637 266.800 C 43.837 266.800,44.000 267.122,44.000 267.515 C 44.000 267.909,44.340 268.898,44.756 269.714 C 45.172 270.530,45.626 271.649,45.764 272.199 C 45.902 272.750,46.168 273.200,46.356 273.200 C 46.543 273.200,46.923 274.010,47.200 275.000 C 47.477 275.990,47.847 276.800,48.021 276.800 C 48.195 276.800,48.558 277.475,48.827 278.300 C 49.096 279.125,49.425 279.890,49.558 280.000 C 49.691 280.110,50.340 281.234,51.000 282.499 C 51.660 283.763,52.321 284.798,52.468 284.799 C 52.616 284.799,52.858 285.352,53.006 286.027 C 53.154 286.702,53.517 287.347,53.813 287.460 C 54.109 287.574,54.466 288.192,54.607 288.833 C 54.748 289.475,55.016 290.000,55.202 290.000 C 55.389 290.000,55.791 290.495,56.097 291.100 C 57.160 293.203,57.803 294.202,58.300 294.520 C 58.575 294.696,58.800 295.106,58.800 295.432 C 58.800 295.758,59.054 296.122,59.364 296.241 C 59.674 296.361,60.027 296.850,60.149 297.329 C 60.271 297.808,60.872 298.750,61.485 299.423 C 62.098 300.096,62.847 301.114,63.148 301.687 C 63.449 302.259,64.214 303.294,64.848 303.988 C 65.482 304.682,66.000 305.409,66.000 305.605 C 66.000 305.800,66.244 306.104,66.542 306.280 C 66.839 306.456,67.312 307.036,67.592 307.569 C 67.872 308.101,68.619 308.972,69.251 309.504 C 69.883 310.036,70.400 310.648,70.400 310.865 C 70.400 311.352,71.376 312.402,80.102 321.300 C 83.932 325.205,87.181 328.400,87.322 328.400 C 87.463 328.400,88.389 329.210,89.379 330.200 C 90.369 331.190,91.353 332.000,91.567 332.000 C 91.780 332.000,92.190 332.315,92.477 332.700 C 92.765 333.085,93.720 333.935,94.600 334.588 C 96.635 336.099,97.100 336.462,97.942 337.200 C 98.319 337.530,99.431 338.339,100.413 338.999 C 101.396 339.658,102.344 340.423,102.520 340.699 C 102.696 340.974,103.018 341.200,103.236 341.200 C 103.637 341.200,105.724 342.579,106.718 343.500 C 107.014 343.775,107.397 344.000,107.567 344.000 C 107.738 344.000,108.293 344.360,108.800 344.800 C 109.307 345.240,109.965 345.600,110.261 345.600 C 110.558 345.600,110.800 345.735,110.801 345.900 C 110.801 346.065,111.971 346.830,113.400 347.600 C 114.829 348.370,115.999 349.121,115.999 349.268 C 116.000 349.416,116.525 349.652,117.167 349.793 C 117.808 349.934,118.426 350.291,118.540 350.587 C 118.653 350.883,119.298 351.246,119.973 351.394 C 120.648 351.542,121.200 351.800,121.200 351.968 C 121.200 352.135,121.920 352.510,122.800 352.800 C 123.680 353.090,124.400 353.465,124.400 353.632 C 124.400 353.800,124.940 354.055,125.600 354.200 C 126.260 354.345,126.800 354.622,126.800 354.816 C 126.800 355.009,127.520 355.384,128.400 355.647 C 129.280 355.911,130.000 356.244,130.000 356.388 C 130.000 356.531,130.900 356.879,132.000 357.161 C 133.100 357.443,134.000 357.837,134.000 358.037 C 134.000 358.237,134.294 358.400,134.653 358.400 C 135.012 358.400,135.867 358.745,136.553 359.166 C 137.239 359.588,138.475 360.058,139.300 360.211 C 140.125 360.364,140.800 360.635,140.800 360.813 C 140.800 360.991,141.385 361.262,142.100 361.414 C 142.815 361.567,143.580 361.828,143.800 361.994 C 144.020 362.160,145.190 362.525,146.400 362.806 C 147.610 363.086,148.695 363.462,148.812 363.639 C 148.929 363.817,150.234 364.192,151.712 364.473 C 153.190 364.753,154.400 365.106,154.400 365.256 C 154.400 365.407,155.165 365.656,156.100 365.810 C 157.035 365.964,157.982 366.236,158.205 366.415 C 158.427 366.593,160.092 366.973,161.905 367.258 C 163.717 367.543,165.200 367.899,165.200 368.049 C 165.200 368.198,167.090 368.545,169.400 368.819 C 171.710 369.092,173.600 369.451,173.600 369.615 C 173.600 369.779,175.445 370.045,177.700 370.205 C 180.002 370.368,181.925 370.694,182.085 370.948 C 182.491 371.590,220.441 371.590,221.238 370.947 C 221.547 370.698,223.555 370.366,225.700 370.210 C 227.845 370.053,229.600 369.788,229.600 369.621 C 229.600 369.453,231.490 369.092,233.800 368.819 C 236.110 368.545,238.000 368.195,238.000 368.042 C 238.000 367.888,239.462 367.550,241.250 367.289 C 243.037 367.029,244.702 366.655,244.950 366.458 C 245.197 366.262,246.255 365.977,247.300 365.826 C 248.345 365.675,249.200 365.418,249.200 365.256 C 249.200 365.093,250.325 364.728,251.700 364.445 C 253.075 364.161,254.380 363.791,254.600 363.622 C 254.820 363.454,255.898 363.096,256.995 362.828 C 258.092 362.560,259.172 362.195,259.395 362.017 C 259.618 361.838,260.385 361.567,261.100 361.414 C 261.815 361.262,262.400 360.999,262.400 360.832 C 262.400 360.664,263.390 360.306,264.600 360.035 C 265.810 359.764,266.800 359.384,266.800 359.189 C 266.800 358.995,267.430 358.718,268.200 358.574 C 268.970 358.429,269.600 358.171,269.600 358.000 C 269.600 357.828,270.410 357.449,271.400 357.157 C 272.390 356.865,273.200 356.508,273.200 356.365 C 273.200 356.221,274.010 355.877,275.000 355.600 C 275.990 355.323,276.800 354.943,276.800 354.756 C 276.800 354.568,277.250 354.302,277.800 354.164 C 278.350 354.026,278.800 353.753,278.800 353.557 C 278.800 353.360,279.011 353.200,279.268 353.200 C 280.005 353.200,284.800 350.772,284.800 350.398 C 284.800 350.214,285.340 349.945,286.000 349.800 C 286.660 349.655,287.200 349.404,287.200 349.243 C 287.200 349.081,287.830 348.702,288.600 348.400 C 289.370 348.098,290.000 347.704,290.000 347.525 C 290.000 347.346,290.184 347.200,290.409 347.200 C 290.894 347.200,294.142 345.131,294.333 344.700 C 294.407 344.535,294.660 344.400,294.896 344.400 C 295.131 344.400,295.914 343.950,296.636 343.400 C 297.357 342.850,298.139 342.400,298.373 342.400 C 298.608 342.400,298.800 342.216,298.800 341.990 C 298.800 341.765,299.250 341.409,299.800 341.200 C 300.350 340.991,300.800 340.647,300.800 340.437 C 300.800 340.226,301.139 339.946,301.552 339.815 C 301.966 339.684,302.677 339.267,303.132 338.888 C 304.077 338.102,305.121 337.288,307.400 335.558 C 310.141 333.478,311.592 332.266,313.697 330.300 C 314.815 329.255,315.857 328.400,316.011 328.400 C 316.430 328.400,327.234 317.562,329.467 314.903 C 330.530 313.636,331.715 312.365,332.100 312.077 C 332.485 311.790,332.800 311.370,332.800 311.144 C 332.800 310.918,333.385 310.139,334.100 309.413 C 335.668 307.821,337.187 305.906,337.195 305.514 C 337.198 305.356,337.737 304.636,338.393 303.914 C 340.439 301.661,340.800 301.209,340.800 300.900 C 340.801 300.735,341.247 300.060,341.793 299.400 C 343.281 297.599,343.352 297.495,343.999 296.200 C 344.329 295.540,344.824 294.856,345.099 294.680 C 345.375 294.504,345.600 294.099,345.600 293.780 C 345.600 293.461,345.758 293.200,345.951 293.200 C 346.145 293.200,346.539 292.615,346.828 291.900 C 347.117 291.185,347.575 290.464,347.845 290.298 C 348.116 290.131,348.453 289.471,348.593 288.831 C 348.734 288.191,349.108 287.567,349.424 287.446 C 349.741 287.324,350.000 286.949,350.000 286.613 C 350.000 286.276,350.144 286.000,350.320 286.000 C 350.495 286.000,350.867 285.370,351.146 284.600 C 351.424 283.830,351.791 283.200,351.962 283.200 C 352.132 283.200,352.510 282.480,352.800 281.600 C 353.090 280.720,353.465 280.000,353.632 280.000 C 353.800 280.000,354.055 279.460,354.200 278.800 C 354.345 278.140,354.622 277.600,354.816 277.600 C 355.009 277.600,355.384 276.880,355.647 276.000 C 355.911 275.120,356.258 274.400,356.419 274.400 C 356.580 274.400,356.951 273.590,357.243 272.600 C 357.535 271.610,357.901 270.800,358.056 270.800 C 358.210 270.800,358.455 270.260,358.600 269.600 C 358.745 268.940,358.995 268.400,359.156 268.400 C 359.317 268.400,359.679 267.500,359.961 266.400 C 360.243 265.300,360.621 264.400,360.802 264.400 C 360.982 264.400,361.251 263.680,361.400 262.800 C 361.549 261.920,361.822 261.200,362.006 261.200 C 362.191 261.200,362.564 260.210,362.835 259.000 C 363.106 257.790,363.454 256.800,363.609 256.800 C 363.764 256.800,364.120 255.720,364.400 254.400 C 364.680 253.080,365.048 252.000,365.217 252.000 C 365.386 252.000,365.649 251.100,365.800 250.000 C 365.951 248.900,366.225 248.000,366.408 248.000 C 366.592 248.000,366.960 246.650,367.226 245.000 C 367.492 243.350,367.840 242.000,367.998 242.000 C 368.157 242.000,368.508 240.380,368.778 238.400 C 369.049 236.420,369.402 234.800,369.563 234.800 C 369.724 234.800,370.057 233.405,370.302 231.700 C 370.548 229.995,370.933 227.520,371.159 226.200 C 371.384 224.880,371.692 221.775,371.843 219.300 C 371.994 216.825,372.271 214.800,372.459 214.800 C 372.646 214.800,372.800 208.410,372.800 200.600 C 372.800 192.790,372.646 186.400,372.459 186.400 C 372.271 186.400,371.994 184.375,371.843 181.900 C 371.692 179.425,371.386 176.320,371.162 175.000 C 370.939 173.680,370.554 171.250,370.309 169.600 C 370.063 167.950,369.736 166.510,369.583 166.400 C 369.430 166.290,369.072 164.625,368.788 162.700 C 368.504 160.775,368.155 159.200,368.014 159.200 C 367.872 159.200,367.529 157.850,367.252 156.200 C 366.975 154.550,366.603 153.200,366.425 153.200 C 366.248 153.200,365.984 152.300,365.838 151.200 C 365.692 150.100,365.423 149.200,365.241 149.200 C 365.059 149.200,364.680 148.120,364.400 146.800 C 364.120 145.480,363.764 144.400,363.609 144.400 C 363.454 144.400,363.106 143.410,362.835 142.200 C 362.564 140.990,362.196 140.000,362.016 140.000 C 361.836 140.000,361.577 139.405,361.441 138.678 C 361.304 137.950,360.834 136.652,360.396 135.793 C 359.958 134.934,359.600 133.909,359.600 133.515 C 359.600 133.122,359.434 132.800,359.232 132.800 C 359.029 132.800,358.745 132.260,358.600 131.600 C 358.455 130.940,358.191 130.400,358.013 130.400 C 357.835 130.400,357.572 129.776,357.429 129.013 C 357.286 128.250,356.933 127.390,356.645 127.102 C 356.357 126.814,355.886 125.868,355.600 125.000 C 355.314 124.132,354.836 123.179,354.540 122.882 C 354.243 122.586,354.000 122.086,354.000 121.771 C 354.000 121.457,353.848 121.200,353.663 121.200 C 353.478 121.200,353.111 120.480,352.847 119.600 C 352.584 118.720,352.209 118.000,352.015 118.000 C 351.821 118.000,351.454 117.370,351.200 116.600 C 350.946 115.830,350.572 115.200,350.369 115.200 C 350.166 115.200,350.000 114.958,350.000 114.661 C 350.000 114.365,349.640 113.707,349.200 113.200 C 348.760 112.693,348.400 112.029,348.400 111.726 C 348.400 111.423,348.141 111.076,347.824 110.954 C 347.508 110.833,347.131 110.196,346.987 109.540 C 346.843 108.883,346.472 108.249,346.162 108.130 C 345.853 108.012,345.600 107.658,345.600 107.345 C 345.600 107.031,345.346 106.678,345.036 106.559 C 344.726 106.439,344.373 105.950,344.253 105.471 C 344.039 104.625,343.570 103.927,341.700 101.681 C 341.206 101.086,340.801 100.465,340.800 100.300 C 340.800 99.985,340.268 99.313,338.358 97.212 C 337.721 96.511,337.198 95.817,337.195 95.669 C 337.187 95.311,335.698 93.411,334.143 91.779 C 333.452 91.054,332.820 90.261,332.740 90.019 C 332.231 88.494,317.086 73.377,312.088 69.406 C 311.807 69.183,310.949 68.415,310.181 67.700 C 309.414 66.985,308.615 66.400,308.407 66.400 C 308.199 66.400,307.835 66.040,307.600 65.600 C 307.365 65.160,306.934 64.800,306.644 64.800 C 306.173 64.800,305.071 63.974,303.166 62.192 C 302.818 61.867,302.405 61.600,302.250 61.600 C 302.094 61.600,301.580 61.240,301.108 60.800 C 300.636 60.360,300.013 60.000,299.725 60.000 C 299.436 60.000,299.200 59.816,299.200 59.590 C 299.200 59.365,298.750 59.009,298.200 58.800 C 297.650 58.591,297.200 58.235,297.200 58.010 C 297.200 57.784,297.028 57.600,296.818 57.600 C 296.473 57.600,294.003 56.103,293.000 55.285 C 292.780 55.106,292.330 54.838,292.000 54.688 C 291.670 54.539,290.680 53.962,289.800 53.406 C 287.982 52.257,285.804 51.200,285.256 51.200 C 285.052 51.200,284.782 50.930,284.655 50.600 C 284.529 50.270,284.149 50.000,283.813 50.000 C 283.476 50.000,283.200 49.849,283.200 49.664 C 283.200 49.479,282.480 49.090,281.600 48.800 C 280.720 48.510,280.000 48.149,280.000 47.999 C 280.000 47.849,279.280 47.511,278.400 47.247 C 277.520 46.984,276.800 46.609,276.800 46.416 C 276.800 46.222,276.260 45.945,275.600 45.800 C 274.940 45.655,274.400 45.385,274.400 45.200 C 274.400 45.015,273.815 44.740,273.100 44.589 C 272.385 44.437,271.260 43.993,270.600 43.600 C 269.940 43.207,268.815 42.763,268.100 42.611 C 267.385 42.460,266.800 42.179,266.800 41.986 C 266.800 41.794,266.170 41.518,265.400 41.374 C 264.630 41.229,264.000 40.980,264.000 40.819 C 264.000 40.659,263.010 40.290,261.800 40.000 C 260.590 39.710,259.600 39.341,259.600 39.181 C 259.600 39.020,258.931 38.764,258.114 38.610 C 257.296 38.457,256.171 38.098,255.614 37.813 C 255.056 37.528,253.835 37.167,252.900 37.012 C 251.965 36.857,251.200 36.590,251.200 36.418 C 251.200 36.247,249.850 35.867,248.200 35.574 C 246.550 35.281,245.200 34.913,245.200 34.758 C 245.200 34.602,244.262 34.346,243.116 34.188 C 241.970 34.031,240.755 33.757,240.416 33.580 C 239.588 33.146,235.382 32.400,233.767 32.400 C 233.052 32.400,232.407 32.231,232.333 32.024 C 232.260 31.817,229.860 31.422,227.000 31.146 C 224.140 30.870,221.672 30.454,221.515 30.222 C 221.113 29.629,182.482 29.634,182.085 30.227 C 181.928 30.461,179.375 30.876,176.410 31.148 C 173.446 31.421,170.926 31.778,170.810 31.943 C 170.695 32.107,168.890 32.476,166.800 32.763 C 164.710 33.050,162.816 33.434,162.590 33.617 C 162.365 33.799,161.240 34.073,160.090 34.226 C 158.941 34.378,158.000 34.636,158.000 34.798 C 158.000 34.960,156.650 35.333,155.000 35.626 C 153.350 35.919,152.000 36.275,152.000 36.416 C 152.000 36.557,151.013 36.894,149.807 37.164 C 148.601 37.433,147.523 37.801,147.412 37.981 C 147.301 38.161,146.398 38.429,145.405 38.578 C 144.412 38.727,143.600 38.989,143.600 39.161 C 143.600 39.332,142.610 39.710,141.400 40.000 C 140.190 40.290,139.200 40.659,139.200 40.819 C 139.200 40.980,138.570 41.229,137.800 41.374 C 137.030 41.518,136.400 41.785,136.400 41.966 C 136.400 42.148,135.590 42.523,134.600 42.800 C 133.610 43.077,132.800 43.443,132.800 43.612 C 132.800 43.782,131.900 44.136,130.800 44.400 C 129.700 44.664,128.800 45.042,128.800 45.240 C 128.800 45.438,128.543 45.600,128.229 45.600 C 127.914 45.600,127.414 45.843,127.118 46.140 C 126.821 46.436,125.863 46.913,124.989 47.198 C 124.115 47.483,123.310 47.840,123.200 47.991 C 123.090 48.143,121.965 48.752,120.700 49.345 C 119.435 49.938,118.400 50.570,118.400 50.748 C 118.400 50.927,117.680 51.289,116.800 51.553 C 115.920 51.816,115.200 52.193,115.200 52.389 C 115.200 52.585,114.798 52.874,114.308 53.029 C 113.469 53.295,111.241 54.704,110.800 55.246 C 110.690 55.381,110.216 55.612,109.748 55.758 C 108.994 55.993,108.392 56.410,106.511 57.998 C 106.241 58.226,105.566 58.585,105.011 58.796 C 104.455 59.007,104.000 59.365,104.000 59.590 C 104.000 59.816,103.801 60.000,103.558 60.000 C 103.315 60.000,102.620 60.405,102.013 60.900 C 101.407 61.395,100.501 62.070,99.999 62.400 C 99.497 62.730,98.639 63.402,98.093 63.893 C 96.997 64.877,96.400 64.765,96.400 63.576 C 96.400 63.149,96.240 62.800,96.045 62.800 C 95.850 62.800,95.570 61.992,95.422 61.005 C 95.274 60.017,94.915 58.972,94.625 58.682 C 94.335 58.392,93.971 57.580,93.817 56.877 C 93.663 56.175,93.399 55.600,93.232 55.600 C 93.064 55.600,92.717 54.901,92.461 54.047 C 92.206 53.194,91.727 52.272,91.398 51.998 C 91.069 51.725,90.800 51.263,90.800 50.971 C 90.800 50.679,90.575 50.296,90.300 50.120 C 89.767 49.779,89.104 48.817,88.297 47.212 C 87.478 45.583,80.330 38.047,77.853 36.200 C 77.263 35.760,76.555 35.220,76.279 35.000 C 75.107 34.063,73.350 32.927,72.700 32.686 C 72.315 32.542,72.000 32.254,72.000 32.044 C 72.000 31.835,71.462 31.545,70.805 31.401 C 70.147 31.257,69.501 30.963,69.368 30.748 C 68.295 29.012,62.109 27.493,61.312 28.770 M78.387 173.798 C 82.904 174.346,87.950 174.981,89.600 175.207 C 106.065 177.468,145.874 180.880,173.400 182.389 C 211.684 184.489,240.186 183.560,290.400 178.576 C 310.099 176.621,313.171 176.279,328.331 174.363 C 339.388 172.965,338.793 172.870,340.405 176.301 C 343.306 182.472,343.928 194.341,341.687 200.762 C 330.405 233.082,279.362 253.624,210.407 253.595 C 173.784 253.579,148.181 250.744,125.000 244.137 C 79.563 231.186,55.865 203.871,66.462 176.664 C 68.168 172.285,67.419 172.465,78.387 173.798 M111.850 191.519 C 111.117 192.705,110.721 199.005,111.162 202.469 C 114.181 226.177,139.575 238.562,160.130 226.351 C 165.960 222.887,172.385 214.781,173.814 209.086 L 174.049 208.150 166.089 208.325 C 146.936 208.745,131.090 204.128,116.100 193.759 C 112.160 191.034,112.152 191.030,111.850 191.519 M286.770 192.528 C 272.717 203.228,254.953 208.697,235.477 208.320 L 227.153 208.159 227.398 209.180 C 229.504 217.971,239.832 227.575,250.000 230.196 C 271.787 235.812,293.306 216.627,289.892 194.631 C 289.313 190.899,289.099 190.755,286.770 192.528 " stroke="none" fill="#242424" fill-rule="evenodd"></path><path id="path1" d="M67.908 173.777 C 64.377 178.636,62.972 192.919,65.349 199.800 C 73.541 223.518,102.848 241.386,146.000 248.973 C 163.978 252.133,184.188 253.584,210.407 253.595 C 279.362 253.624,330.405 233.082,341.687 200.762 C 343.928 194.341,343.306 182.472,340.405 176.301 C 338.793 172.870,339.388 172.965,328.331 174.363 C 313.171 176.279,310.099 176.621,290.400 178.576 C 240.186 183.560,211.684 184.489,173.400 182.389 C 145.874 180.880,106.065 177.468,89.600 175.207 C 83.970 174.434,70.177 172.800,69.387 172.813 C 68.954 172.819,68.289 173.253,67.908 173.777 M116.100 193.759 C 131.090 204.128,146.936 208.745,166.089 208.325 L 174.049 208.150 173.814 209.086 C 171.796 217.127,163.264 225.847,154.177 229.157 C 131.841 237.292,107.928 218.461,111.170 195.288 C 111.863 190.335,111.370 190.487,116.100 193.759 M289.892 194.631 C 293.306 216.627,271.787 235.812,250.000 230.196 C 239.832 227.575,229.504 217.971,227.398 209.180 L 227.153 208.159 235.477 208.320 C 254.953 208.697,272.717 203.228,286.770 192.528 C 289.099 190.755,289.313 190.899,289.892 194.631 " stroke="none" fill="#04b3c3" fill-rule="evenodd"></path></g></svg>