<svg viewBox="0 0 32 32" xmlns="http://www.w3.org/2000/svg"><g fill="#df4f4f"><path d="m2 2.273 23.979 25.4a1.119 1.119 0 0 0 1.442-.1 1.064 1.064 0 0 0 .144-1.344z"/><path d="m9.593 4.674 18.26 19.686a1.119 1.119 0 0 0 1.442-.1 1.064 1.064 0 0 0 .144-1.344z"/><path d="m4.259 9.811 18.26 19.689a1.119 1.119 0 0 0 1.442-.1 1.064 1.064 0 0 0 .144-1.344z"/><path d="m16.011 6.738 12.758 13.754a.782.782 0 0 0 1.007-.067.743.743 0 0 0 .1-.939z"/><path d="m6.016 15.765 12.757 13.753a.782.782 0 0 0 1.007-.067.743.743 0 0 0 .1-.939z"/><path d="m22.567 9.715 5.782 6.252a.4.4 0 0 0 .5-.031.335.335 0 0 0 .05-.44l-6.33-5.781z"/><path d="m9.208 22.1 5.782 6.252a.4.4 0 0 0 .5-.031.335.335 0 0 0 .05-.44z"/></g></svg>