<svg viewBox="0 0 32 32" xmlns="http://www.w3.org/2000/svg"><path d="m16 28.896 5.156-15.867h-10.312z" fill="#e24329"/><path d="m16 28.896-5.156-15.867h-7.225z" fill="#fc6d26"/><path d="m3.619 13.029-1.567 4.822a1.067 1.067 0 0 0 .388 1.193l13.56 9.856z" fill="#fca326"/><path d="m3.619 13.029h7.225l-3.105-9.556a.534.534 0 0 0 -1.015 0z" fill="#e24329"/><path d="m16 28.896 5.156-15.867h7.225z" fill="#fc6d26"/><path d="m28.381 13.029 1.567 4.822a1.067 1.067 0 0 1 -.388 1.193l-13.56 9.856z" fill="#fca326"/><path d="m28.381 13.029h-7.225l3.105-9.557a.534.534 0 0 1 1.015 0z" fill="#e24329"/></svg>