<svg width="32" height="32" viewBox="0 0 32 32" fill="none" xmlns="http://www.w3.org/2000/svg"><title>file_type_astroconfig</title><path fill-rule="evenodd" clip-rule="evenodd" d="M5.57953 18.8466C5.16353 20.176 4.95686 20.84 5.00753 21.4706C5.05553 22.0266 5.24486 22.5613 5.5582 23.024C5.91286 23.5466 6.49153 23.9333 7.65153 24.7053L12.7702 28.1186C13.8035 28.8066 14.3209 29.152 14.8795 29.2866C15.3729 29.4066 15.8889 29.4066 16.3835 29.2906C16.9435 29.1573 17.4635 28.8146 18.5009 28.1306H25.3069V19.3003V17.4055L21.2222 4.55062C21.0022 3.85729 20.8929 3.51195 20.6822 3.25462C20.4966 3.02856 20.2567 2.85331 19.9849 2.74529C19.6782 2.62262 19.3155 2.62262 18.5889 2.62262H12.6809C11.9515 2.62262 11.5849 2.62262 11.2769 2.74795C11.0041 2.85622 10.7636 3.03248 10.5782 3.25995C10.3675 3.51862 10.2595 3.86662 10.0435 4.56262L5.57953 18.848V18.8466ZM18.8195 5.65062C18.9929 5.86662 19.0835 6.16129 19.2609 6.74395L23.1529 19.528C21.6908 18.77 20.1216 18.2394 18.4995 17.9546L15.9662 9.39062C15.9454 9.32307 15.9035 9.26396 15.8466 9.22198C15.7897 9.17999 15.7209 9.15734 15.6502 9.15734C15.5795 9.15734 15.5107 9.17999 15.4538 9.22198C15.3969 9.26396 15.355 9.32307 15.3342 9.39062L12.8302 17.948C11.2009 18.2321 9.62474 18.7645 8.15686 19.5266L12.0689 6.74262C12.2462 6.15729 12.3355 5.86529 12.5102 5.64929C12.6649 5.45862 12.8662 5.31062 13.0929 5.21862C13.3515 5.11462 13.6569 5.11462 14.2675 5.11462H17.0609C17.6715 5.11462 17.9782 5.11462 18.2369 5.21862C18.4635 5.31062 18.6635 5.45862 18.8195 5.65062ZM15.8022 21.06C17.2769 21.06 18.5582 20.6866 19.1995 20.1373C19.3135 20.4961 19.3539 20.8742 19.3184 21.249C19.2829 21.6238 19.1722 21.9876 18.9929 22.3186C18.5822 23.0786 17.9862 23.456 17.4489 23.796C16.7742 24.224 16.1942 24.5933 16.1942 25.5826C16.1942 25.9093 16.2689 26.2213 16.4035 26.4973C15.9491 26.3084 15.5609 25.9891 15.2877 25.5798C15.0146 25.1705 14.8688 24.6894 14.8689 24.1973V24.136C14.8689 23.4533 14.8702 22.612 13.9062 22.612C13.7722 22.6118 13.6396 22.638 13.5158 22.6891C13.3919 22.7402 13.2794 22.8152 13.1846 22.9098C13.0897 23.0044 13.0144 23.1167 12.963 23.2404C12.9116 23.3641 12.885 23.4967 12.8849 23.6306C11.8022 22.5466 11.8969 20.9866 11.8969 20.9866C11.8969 20.668 11.9289 20.172 12.0715 19.7386C12.4742 20.496 13.9915 21.0586 15.8022 21.0586V21.06Z" fill="#FF5D01"/><path d="M25.684 27.193L26.14 26.746C28.252 26.814 28.284 26.741 28.377 26.527L28.957 25.134L29 25.001L28.953 24.886C28.928 24.825 28.853 24.643 27.533 23.403V22.751C29.054 21.306 29.022 21.232 28.933 21.021L28.356 19.614C28.269 19.403 28.236 19.32 26.14 19.377L25.683 18.912C25.7299 18.2271 25.7061 17.5391 25.612 16.859L25.553 16.727L24.045 16.077C23.823 15.977 23.745 15.941 22.321 17.47L21.681 17.461C20.215 15.918 20.146 15.946 19.926 16.033L18.526 16.592C18.307 16.68 18.226 16.711 18.314 18.811L17.861 19.256C15.751 19.188 15.719 19.262 15.627 19.475L15.046 20.868L15 21.001L15.048 21.117C15.073 21.177 15.148 21.357 16.467 22.598V23.248C14.946 24.693 14.979 24.767 15.067 24.979L15.644 26.388C15.733 26.603 15.764 26.68 17.86 26.626L18.316 27.093C18.2688 27.777 18.2922 28.4639 18.386 29.143L18.444 29.276L19.962 29.93C20.183 30.021 20.262 30.054 21.679 28.53L22.319 28.538C23.787 30.083 23.862 30.053 24.076 29.968L25.476 29.41C25.7 29.324 25.773 29.294 25.684 27.193ZM19.671 23.931C19.554 23.626 19.4987 23.3007 19.5083 22.9741C19.5179 22.6475 19.5923 22.326 19.7271 22.0284C19.8619 21.7307 20.0544 21.4628 20.2935 21.2401C20.5326 21.0174 20.8135 20.8444 21.12 20.731C21.7403 20.4948 22.4286 20.5123 23.0361 20.7797C23.6436 21.0471 24.1214 21.543 24.366 22.16C24.6002 22.7687 24.5839 23.4453 24.3206 24.042C24.0573 24.6387 23.5685 25.1068 22.961 25.344C22.3369 25.5869 21.6423 25.5749 21.0269 25.3106C20.4115 25.0463 19.9246 24.5509 19.671 23.931V23.931Z" fill="#99B8C4"/></svg>
