<svg xmlns="http://www.w3.org/2000/svg" xmlns:xlink="http://www.w3.org/1999/xlink" viewBox="0 0 32 32"><defs><clipPath id="a"><path d="M7.055,16.241c3.415-10.22,14.759-9.473,17.924,0l.1,5.893a15.562,15.562,0,0,0-9.036,7.246A17.641,17.641,0,0,0,7.03,22.346Z" style="fill:none"/></clipPath></defs><title>file_type_rego</title><path d="M7.03,16.241l2.6-4.559c-2.418-.312-2.606-3.431-.8-9.062C3.809,8.853,2.42,10.228,7.03,16.241Z" style="fill:#bfbfbf;fill-rule:evenodd"/><path d="M24.97,16.241l-2.595-4.559c2.418-.312,2.606-3.431.8-9.062C28.191,8.853,29.58,10.228,24.97,16.241Z" style="fill:#bfbfbf;fill-rule:evenodd"/><path d="M7.055,16.241c3.415-10.22,14.759-9.473,17.924,0l.1,5.893a15.562,15.562,0,0,0-9.036,7.246A17.641,17.641,0,0,0,7.03,22.346Z" style="fill:none"/><g style="clip-path:url(#a)"><rect x="16.053" y="7.962" width="9.549" height="21.899" style="fill:#536367"/><rect x="5.322" y="7.962" width="10.732" height="21.899" style="fill:#78929a"/></g><circle cx="16.04" cy="16.241" r="1.166" style="fill:#fff"/></svg>