<svg xmlns="http://www.w3.org/2000/svg" xml:space="preserve" viewBox="0 0 32 32"><title>file_type_vcxproj</title><path fill="#5e438f" d="m7.143 25.58-4.63-3.477a1.16 1.16 0 0 1-.463-.924V10.74a1.16 1.16 0 0 1 .462-.924l4.631-3.476a1.04 1.04 0 0 0-.311.924v17.392a1.05 1.05 0 0 0 .311.924"/><path fill="#7252aa" d="M29.352 6.882a1.155 1.155 0 0 0-1.443.127l-.081.08L8.726 25.406l-.081.081a1.155 1.155 0 0 1-1.502.092l-4.63-3.476a1.155 1.155 0 0 0 1.57-.173c5.601-6.48 11.18-12.981 16.77-19.472.23-.265.542-.404.888-.404.231 0 .45.058.636.185z"/><path fill="#ae7fe2" d="M29.364 25.037 22.4 29.679a1.17 1.17 0 0 1-1.525-.208L4.095 9.988a1.155 1.155 0 0 0-1.583-.173l4.643-3.476a1.16 1.16 0 0 1 .693-.231c.3 0 .589.115.808.323l.07.081 19.102 18.317.08.08a1.155 1.155 0 0 0 1.444.128z"/><path fill="#d59dff" d="M29.872 7.84v16.226a1.16 1.16 0 0 1-.52.97L22.4 29.68a1.16 1.16 0 0 0 .508-.97V3.21a1.18 1.18 0 0 0-.531-.97l6.975 4.643a1.17 1.17 0 0 1 .52.958"/><g fill="#efeef0"><path d="M15.323 31.525a7.19 7.19 0 0 1-5.541-2.244 8.13 8.13 0 0 1-2.012-5.706 8.59 8.59 0 0 1 2.222-6.086 7.63 7.63 0 0 1 5.809-2.415 9.9 9.9 0 0 1 3.57.583l.956.372v6.57l-2.3-1.457a3.64 3.64 0 0 0-2-.548 2.13 2.13 0 0 0-1.684.668 2.98 2.98 0 0 0-.663 2.1 2.9 2.9 0 0 0 .62 2.008 1.92 1.92 0 0 0 1.572.618 3.98 3.98 0 0 0 2.165-.607l2.293-1.427v6.292l-.815.42a9.2 9.2 0 0 1-4.192.86"/><path d="M19.104 27.434v-1.757h-1.756V20.92l1.756.001v-1.757h4.758v1.758h1.758v4.756h-1.758v1.757z"/><path d="M25.255 27.434v-1.757h-1.757V20.92l1.757.001v-1.757h4.758v1.758h1.757v4.756h-1.757v1.757z"/></g><g fill="#984c93"><path d="M18.827 29.333a7.7 7.7 0 0 1-3.5.69 5.72 5.72 0 0 1-4.436-1.76 6.66 6.66 0 0 1-1.621-4.688 7.1 7.1 0 0 1 1.817-5.06 6.16 6.16 0 0 1 4.714-1.94 8.4 8.4 0 0 1 3.026.48v2.82a5.13 5.13 0 0 0-2.8-.78 3.61 3.61 0 0 0-2.787 1.152 4.43 4.43 0 0 0-1.06 3.12 4.35 4.35 0 0 0 1 3.007 3.43 3.43 0 0 0 2.693 1.12 5.5 5.5 0 0 0 2.958-.834zM20.604 20.662h1.758v1.758h1.758v1.757h-1.758v1.757h-1.758v-1.757h-1.756V22.42l1.756.001zM26.755 20.662h1.758v1.758h1.757v1.757h-1.757v1.757h-1.758v-1.757h-1.757V22.42l1.757.001z"/></g></svg>