<svg width="32" height="32" viewBox="0 0 32 32" fill="none" xmlns="http://www.w3.org/2000/svg">
<path d="M10.0524 12.3598L4.15936 8.91348C4.03294 8.83992 3.92827 8.73432 3.85601 8.60744C3.78374 8.48053 3.74643 8.33683 3.74785 8.19093C3.74927 8.04502 3.7894 7.90208 3.86413 7.77661C3.93887 7.65114 4.04556 7.54759 4.1734 7.47649L15.5615 1.12356C15.7075 1.04253 15.8719 1 16.0389 1C16.206 1 16.3703 1.04253 16.5164 1.12356L27.9061 7.47805C28.0337 7.54913 28.1401 7.65251 28.2147 7.77773C28.2894 7.90297 28.3295 8.04563 28.3311 8.19127C28.3326 8.33691 28.2956 8.48039 28.2237 8.6072C28.1518 8.73403 28.0477 8.83967 27.9217 8.91348L22.0271 12.3598L16.4664 9.15143C16.3365 9.07648 16.189 9.03701 16.0389 9.03701C15.8888 9.03701 15.7414 9.07648 15.6115 9.15143L10.0524 12.3598ZM9.40486 20.8916C9.21345 20.7815 9.05482 20.6225 8.94517 20.4314C8.83552 20.2401 8.77879 20.0231 8.78077 19.8029V14.3224L3.24819 11.0845C3.12192 11.0117 2.97866 10.9732 2.83277 10.973C2.68689 10.9728 2.54352 11.0109 2.41707 11.0834C2.29059 11.1558 2.18548 11.2602 2.11227 11.386C2.03907 11.5117 2.00034 11.6545 2 11.7999V23.834C2.00014 24.0064 2.04631 24.176 2.13377 24.3249C2.22123 24.4738 2.34682 24.5969 2.49771 24.6815L13.6331 30.8945C13.7594 30.965 13.902 31.0014 14.0468 31C14.1915 30.9986 14.3334 30.9595 14.4583 30.8866C14.5832 30.8136 14.6868 30.7093 14.7588 30.5841C14.8308 30.4589 14.8687 30.3172 14.8688 30.1729V24.0408L9.40486 20.8916ZM23.2129 19.7361C23.2149 19.9563 23.1581 20.1732 23.0484 20.3645C22.9389 20.5556 22.7802 20.7146 22.5888 20.8247L17.128 23.9739V30.106C17.128 30.2504 17.1659 30.392 17.238 30.5172C17.3099 30.6424 17.4135 30.7468 17.5385 30.8197C17.6634 30.8927 17.8053 30.9317 17.9501 30.9331C18.0949 30.9345 18.2375 30.8981 18.3637 30.8276L29.5022 24.6147C29.6554 24.5291 29.7825 24.4039 29.8701 24.2522C29.9578 24.1005 30.0025 23.9281 29.9999 23.7531V11.719C29.9997 11.5736 29.9612 11.4307 29.8879 11.3049C29.8147 11.1791 29.7095 11.0747 29.583 11.0023C29.4563 10.9299 29.3129 10.8921 29.1669 10.8926C29.021 10.8931 28.8778 10.9319 28.7517 11.0052L23.2129 14.2431V19.7361Z" fill="#FF4500"/>
</svg>
