<svg viewBox="0 0 32 32" xmlns="http://www.w3.org/2000/svg">
<title>file_type_proteus</title>
<g transform="translate(-8.56,-40.39)">
<g fill="none" stroke="#b3aaac" stroke-width=".8" stroke-linecap="square">
<path d="M33.95,47.47C33.93,47.32,33.87,47.19,33.77,47.09,32.73,45.96,27.74,48.9,22.64,53.64,17.53,58.39,14.24,63.14,15.29,64.27,15.36,64.35,15.45,64.4,15.56,64.44"/>
<path d="M32.78,65.71C32.94,65.68,33.07,65.62,33.17,65.53,34.29,64.48,31.36,59.5,26.61,54.39,21.87,49.29,17.11,46,15.99,47.04,15.91,47.11,15.85,47.2,15.81,47.31"/>
<path d="M9.81,55.89C9.93,53.59,16.5,51.74,24.55,51.74,32.61,51.74,39.17,53.59,39.29,55.89"/>
<path d="M9.83,56.62C9.95,58.92,16.52,60.77,24.57,60.77,32.63,60.77,39.2,58.92,39.31,56.62"/>
</g>
<circle fill="#2a5ea8" cx="24.57" cy="56.56" r="6.5"/>
<g fill="#eee592">
<circle cx="16.18" cy="47.32" r="1.5"/>
<circle cx="15.74" cy="65.12" r="1.5"/>
<circle cx="32.79" cy="65.47" r="1.5"/>
<circle cx="33.44" cy="47.53" r="1.5"/>
</g>
<g fill="none" stroke="#b3aaac" stroke-width=".8" stroke-linecap="round">
<path transform="rotate(47.1)" d="M45.64,20.84C45.64,22.38,51.19,23.28,58.16,23.28,65.13,23.28,70.45,22.25,70.45,20.71"/>
<path transform="rotate(135.3)" d="M34.94,-57.48C34.94,-59.02,29.29,-60.26,22.32,-60.26,15.35,-60.26,9.7,-59.02,9.7,-57.49"/>
</g>
</g>
</svg>
