<svg xmlns="http://www.w3.org/2000/svg" viewBox="0 0 254.5 225"><title>file_type_flutter_package</title><path d="M56.277,13.214c16.4-.15,32.825,0,49.234-.063-3.891,16.756-7.624,33.559-11.5,50.323H19.1c-2.368,0-4.736.079-7.1-.095C26.712,46.615,41.589,29.993,56.277,13.214Z" style="fill:#f2e6c9"/><path d="M139.568,13.158h49.092c14.743,16.78,29.629,33.417,44.333,50.22-9.471.2-18.942,0-28.413.087h-53.63C147.223,46.678,143.246,29.954,139.568,13.158Z" style="fill:#f2e6c9"/><path d="M105.511,13.158h34.056c3.678,16.8,7.648,33.52,11.4,50.3H94.012C97.887,46.71,101.62,29.914,105.511,13.158Z" style="fill:#efc75e"/><path d="M12,63.371c2.368.174,4.736.087,7.1.095H94.012q0,26.578.055,53.156a19.257,19.257,0,0,0,2.02.142h53.22a15,15,0,0,0,1.579-.11c.15-17.735,0-35.469.071-53.2h53.63c9.471-.047,18.942.11,28.413-.087V217H12.008Q12,140.189,12,63.371Z" style="fill:#e7bf55"/><path d="M94.012,63.482h56.953c-.063,17.735.087,35.469-.071,53.2-.529.055-1.058.095-1.579.11H96.1a19.257,19.257,0,0,1-2.013-.134C93.972,98.919,94.083,81.192,94.012,63.482Z" style="fill:#dbb551"/><rect x="28.132" y="167.024" width="73.953" height="28.476" style="fill:#f2f2f2"/><polyline points="167.429 139.1 188.394 118.676 240.469 118.676 194.338 164.805 167.429 139.1 167.429 139.1 167.429 139.1 167.429 139.1 167.429 139.1" style="fill:#40d0fd"/><polygon points="102.086 125.433 128.276 152.245 240.469 39.123 188.394 39.123 102.086 125.433" style="fill:#41d0fd"/><polygon points="141.191 165.066 167.751 191.234 194.338 164.805 167.429 139.1 141.191 165.066" style="fill:#1fbcfd"/><polygon points="167.751 191.234 194.338 164.805 239.819 210.806 187.452 210.806 167.751 191.234" style="fill:#095a9d"/><polygon points="167.751 191.234 192.519 182.998 184.173 174.91 167.751 191.234" style="fill:#0e5199"/></svg>