<svg width="100" height="101" viewBox="0 0 100 101" fill="none" xmlns="http://www.w3.org/2000/svg">
<path d="M54.1732 59.9844C54.1732 56.7245 56.4745 52.7605 59.3133 51.1306L83.5318 37.225C86.3706 35.595 88.6719 36.9164 88.6719 40.1763V68.4487C88.6719 71.7086 86.3706 75.6726 83.5318 77.3025L59.3133 91.2081C56.4745 92.8381 54.1732 91.5167 54.1732 88.2568V59.9844Z" fill="#181818"/>
<path d="M11.3281 40.1763C11.3281 36.9164 13.6294 35.595 16.4682 37.225L40.6867 51.1306C43.5255 52.7605 45.8268 56.7245 45.8268 59.9844V88.2568C45.8268 91.5167 43.5255 92.8381 40.6867 91.2081L16.4682 77.3025C13.6294 75.6726 11.3281 71.7086 11.3281 68.4487L11.3281 40.1763Z" fill="#181818"/>
<path d="M20.1777 29.7337C17.3389 28.1038 17.3389 25.4611 20.1777 23.8312L44.3962 9.92559C47.235 8.29564 51.8376 8.29564 54.6764 9.92559L79.2965 24.0618C82.1353 25.6917 82.1353 28.3344 79.2965 29.9644L55.078 43.8699C52.2393 45.4999 47.6367 45.4999 44.7979 43.8699L20.1777 29.7337Z" fill="#181818"/>
</svg>
