<?xml version="1.0" encoding="UTF-8"?>
<svg width="338px" height="254px" viewBox="0 0 338 254" version="1.1" xmlns="http://www.w3.org/2000/svg" xmlns:xlink="http://www.w3.org/1999/xlink">
    <!-- Generator: Sketch 41.2 (35397) - http://www.bohemiancoding.com/sketch -->
    <title>Shape</title>
    <desc>Created with Sketch.</desc>
    <defs></defs>
    <g id="Page-1" stroke="none" stroke-width="1" fill="none" fill-rule="evenodd">
        <g id="SASS" transform="translate(-40.000000, -23.000000)" fill="#CD6799">
            <path d="M331.044472,168.715637 C319.252701,168.777374 309.004357,171.617276 300.422912,175.815393 C297.274325,169.579956 294.125737,164.023624 293.570104,159.948982 C292.952734,155.195231 292.21189,152.293591 292.952734,146.613786 C293.693578,140.933981 297.027377,132.846432 296.96564,132.229062 C296.903903,131.611692 296.224795,128.710052 289.433724,128.648315 C282.642652,128.586578 276.777635,129.944792 276.098529,131.735166 C275.419421,133.525539 274.122944,137.600182 273.258626,141.798299 C272.085622,147.972 259.676483,170.012114 252.576727,181.556935 C250.292457,177.050134 248.316872,173.098965 247.884714,169.950377 C247.267343,165.196628 246.526499,162.294988 247.267343,156.615183 C248.008187,150.935377 251.341986,142.847828 251.28025,142.230458 C251.218512,141.613088 250.539405,138.711448 243.748334,138.649711 C236.957262,138.587974 231.092245,139.946189 230.413139,141.736562 C229.734031,143.526935 228.993187,147.725052 227.573236,151.799695 C226.153284,155.874338 209.669502,192.669598 205.347911,202.177099 C203.125378,207.054323 201.211531,210.943755 199.853316,213.598446 L199.853316,213.598446 C199.853316,213.598446 199.791579,213.783657 199.606368,214.092342 C198.433365,216.376612 197.754258,217.611353 197.754258,217.611353 C197.754258,217.611353 197.754258,217.611353 197.754258,217.673089 C196.828203,219.339988 195.840411,220.883414 195.346514,220.883414 C194.976093,220.883414 194.296985,216.438349 195.469989,210.388122 C197.939469,197.60856 203.804486,177.729241 203.742748,177.050134 C203.742748,176.679712 204.854015,173.222439 199.915054,171.432066 C195.099566,169.641693 193.370931,172.605069 192.938771,172.605069 C192.506612,172.605069 192.197927,173.654598 192.197927,173.654598 C192.197927,173.654598 197.569047,151.305799 181.949583,151.305799 C172.195134,151.305799 158.736465,161.986302 152.068868,171.617276 C147.870751,173.901546 138.918884,178.778771 129.349646,184.026417 C125.707163,186.063738 121.941205,188.10106 118.422195,190.014907 C118.175247,189.767959 117.928299,189.459274 117.681351,189.212326 C98.7898244,169.024322 63.8466745,154.763072 65.3283628,127.660523 C65.8839959,117.7826 69.2795317,91.8530546 132.436497,60.3671773 C184.419063,34.7463165 225.782863,41.8460731 232.944356,57.5890118 C243.192701,80.0612849 210.780768,121.795506 157.069566,127.845734 C136.572877,130.130003 125.830637,122.227665 123.114208,119.264289 C120.274305,116.177438 119.842146,115.992227 118.792617,116.609597 C117.063981,117.535652 118.175247,120.313818 118.792617,121.91898 C120.397779,126.117097 127.00364,133.525539 138.178039,137.168023 C148.055962,140.378348 172.07166,142.168721 201.149793,130.932585 C233.6852,118.338234 259.12085,83.3333466 251.650671,54.0082648 C244.180492,24.2510241 194.790881,14.4348389 148.055962,31.0420956 C120.274305,40.9200179 90.1466424,56.4777455 68.4769505,76.7274861 C42.7326156,100.804922 38.6579727,121.733769 40.3248721,130.500425 C46.3133624,161.615881 89.2205873,181.865622 106.383477,196.867715 C105.519159,197.361612 104.716578,197.793771 104.037471,198.164193 C95.4560257,202.424046 62.7354082,219.5252 54.5861224,237.614144 C45.3255702,258.110833 56.0678106,272.804242 63.1675673,274.779827 C85.2076813,280.891791 107.865166,269.902603 120.027357,251.751922 C132.189549,233.601239 130.707861,210.0177 125.089792,199.213722 C125.028055,199.090248 124.966318,198.966774 124.842844,198.8433 C127.065377,197.546823 129.349646,196.188609 131.572179,194.892132 C135.955507,192.299177 140.277098,189.891432 143.981319,187.915849 C141.88226,193.657391 140.338835,200.510199 139.597991,210.388122 C138.671936,221.994681 143.425686,237.058511 149.661124,242.985265 C152.43929,245.57822 155.711351,245.639956 157.81041,245.639956 C165.095378,245.639956 168.367439,239.589729 172.009924,232.428236 C176.454989,223.66158 180.467894,213.474973 180.467894,213.474973 C180.467894,213.474973 175.467196,241.00968 189.049339,241.00968 C193.9883,241.00968 198.988998,234.589031 201.211531,231.316969 L201.211531,231.378707 C201.211531,231.378707 201.335005,231.193496 201.581953,230.761336 C202.075849,229.958755 202.384534,229.464859 202.384534,229.464859 L202.384534,229.341385 C204.360119,225.884112 208.805184,218.043511 215.411044,205.017001 C223.930752,188.224534 232.141775,167.233949 232.141775,167.233949 C232.141775,167.233949 232.882619,172.358121 235.413837,180.877829 C236.895526,185.878527 239.982375,191.373121 242.451857,196.682504 C240.476272,199.46067 239.241532,201.004095 239.241532,201.004095 C239.241532,201.004095 239.241532,201.004095 239.303269,201.065832 C237.698107,203.164891 235.96947,205.44916 234.055623,207.671694 C227.326288,215.697504 219.300476,224.89632 218.18921,227.551012 C216.892733,230.699599 217.201418,232.983869 219.670897,234.835979 C221.461271,236.194194 224.671597,236.379405 227.943658,236.194194 C233.993885,235.762034 238.25374,234.280347 240.352798,233.354291 C243.624859,232.181288 247.452554,230.390915 251.033302,227.736223 C257.639162,222.858999 261.652067,215.882716 261.281646,206.683901 C261.096434,201.621465 259.429535,196.55903 257.392214,191.805281 C258.009583,190.940962 258.565217,190.076644 259.182587,189.212326 C269.616142,173.963283 277.703691,157.232552 277.703691,157.232552 C277.703691,157.232552 278.444536,162.356725 280.975754,170.876432 C282.210493,175.198024 284.741711,179.890037 286.964244,184.458576 C277.148058,192.42265 271.097831,201.683203 268.937035,207.73343 C265.047603,218.969567 268.072717,224.032001 273.814259,225.205005 C276.407214,225.760638 280.111435,224.525898 282.827864,223.352895 C286.285136,222.241629 290.35978,220.327781 294.24921,217.487878 C300.855072,212.610655 307.213984,205.819583 306.843562,196.620767 C306.658351,192.42265 305.547085,188.28627 304.003659,184.273365 C312.338156,180.816092 323.080397,178.902244 336.786014,180.507406 C366.172832,183.96468 371.976112,202.300573 370.864845,210.0177 C369.753579,217.734826 363.579877,221.932943 361.542557,223.22942 C359.505235,224.525898 358.826128,224.958057 359.011339,225.884112 C359.258287,227.242327 360.24608,227.180589 361.974715,226.933641 C364.382459,226.501483 377.408969,220.698204 377.964603,206.49869 C378.890657,188.348008 361.604294,168.530425 331.044472,168.715637 L331.044472,168.715637 Z M104.346156,245.14606 C94.5917075,255.764827 81.0095644,259.777732 75.144548,256.382197 C68.8473727,252.739713 71.3168531,237.058511 83.2938339,225.822375 C90.5788016,218.969567 99.9628277,212.610655 106.198266,208.721223 C107.618218,207.856904 109.717276,206.622164 112.248493,205.078739 C112.680653,204.831791 112.927601,204.708316 112.927601,204.708316 L112.927601,204.708316 C113.421497,204.399631 113.915393,204.090946 114.409289,203.782262 C118.792617,219.833884 114.5945,233.97166 104.346156,245.14606 L104.346156,245.14606 Z M175.343721,196.867715 C171.948186,205.140476 164.84843,226.316271 160.526839,225.143269 C156.822618,224.155476 154.538348,208.103852 159.785994,192.237439 C162.440686,184.273365 168.058754,174.765864 171.330816,171.061643 C176.640199,165.13489 182.505216,163.159306 183.925166,165.567049 C185.71554,168.715637 177.44278,191.681806 175.343721,196.867715 L175.343721,196.867715 Z M233.932148,224.89632 C232.512197,225.637165 231.153982,226.13106 230.536612,225.760638 C230.104453,225.51369 231.153982,224.525898 231.153982,224.525898 C231.153982,224.525898 238.500688,216.62356 241.402327,213.042813 C243.069226,210.943755 245.044811,208.474275 247.14387,205.696109 L247.14387,206.49869 C247.14387,215.944452 238.006792,222.303366 233.932148,224.89632 L233.932148,224.89632 Z M279.123642,214.586238 C278.074113,213.845394 278.259324,211.375914 281.778335,203.658787 C283.136549,200.633674 286.346873,195.571238 291.841467,190.694015 C292.458838,192.669598 292.890996,194.583445 292.82926,196.373819 C292.767523,208.289063 284.247815,212.734128 279.123642,214.586238 L279.123642,214.586238 Z" id="Shape"></path>
        </g>
    </g>
</svg>