<svg viewBox="0 0 32 32" xmlns="http://www.w3.org/2000/svg"><path d="m16 29.951a13.952 13.952 0 1 1 .193-27.9 13.951 13.951 0 0 1 -.193 27.9zm-2.221-13.13c.1.1.1.1.193.1 2.028 1.638 4.055 3.179 5.986 4.824a10.928 10.928 0 0 0 1.255.965.99.99 0 0 0 1.545-.676 1.643 1.643 0 0 0 -.1-.676l-3.758-8.978c-.579-1.352-1.159-2.8-1.738-4.151a.87.87 0 0 0 -.579-.579c-.579-.193-.965.1-1.255.676-2.027 4.731-3.958 9.558-5.986 14.289 0 .1-.1.193-.1.29h1.931c.193 0 .193-.1.29-.193.386-.869.676-1.834 1.062-2.7a31.234 31.234 0 0 1 1.254-3.191z"/><path d="m13.779 16.821c-.386 1.062-.869 2.124-1.255 3.186-.386.869-.772 1.834-1.062 2.7a.355.355 0 0 1 -.29.1h-1.93c0-.1.1-.193.1-.29 2.027-4.731 3.958-9.558 5.986-14.289.29-.579.676-.869 1.255-.676a.87.87 0 0 1 .579.579c.579 1.352 1.159 2.8 1.738 4.151l3.765 8.979a2.978 2.978 0 0 1 .1.869.99.99 0 0 1 -1.545.676 14.191 14.191 0 0 1 -1.255-.965c-2.027-1.641-4.055-3.186-5.986-4.827-.103-.193-.103-.193-.2-.193zm2.51-6.275c-.579 1.545-1.159 2.993-1.834 4.441-.1.1 0 .193.1.29 1.445 1.158 2.893 2.223 4.345 3.379.29.193.579.483.869.676-1.162-2.897-2.321-5.793-3.479-8.786z" fill="#fff"/><path d="m16.29 10.546c1.159 2.993 2.414 5.889 3.572 8.786-.29-.193-.579-.483-.869-.676-1.448-1.159-2.9-2.221-4.344-3.379-.1-.1-.193-.1-.1-.29.486-1.448 1.065-2.896 1.741-4.441z"/></svg>