<svg viewBox="0 0 32 32" xmlns="http://www.w3.org/2000/svg"><path d="m14.4 7.568 5.812-5.568h-12.939l-2.425 5.536 9.557.032zm-9.552-.032 6.844 2.6 2.708-2.568m-.013 3.622-2.7-1.053-6.424 5.963 6.286 5.823 2.808-1.1.043-13.255m0 0 12.8 8.376-6.988-13.944m6.988 13.944-12.809-4.754m-.035 9.636-.032 3.685m5.904 5.489-8.679-8.073-6.749 2.537 2.457 5.536zm0 0 6.972-14.056-12.875 8.568m12.875-8.568-12.843 4.882" fill="none" stroke="#1d1d1b" stroke-miterlimit="22.925585" stroke-width=".02835"/><g fill-rule="evenodd"><path d="m14.391 11.19 12.809 4.754-12.795-8.376z" fill="#181b17"/><path d="m27.2 15.944-12.843 4.882-.032 3.683.001.002z" fill="#1a1d1a"/><path d="m14.405 7.568 12.795 8.376-6.988-13.944z" fill="#005f5e"/><path d="m27.2 15.944-12.874 8.567 5.902 5.489z" fill="#004242"/><path d="m14.357 20.826 12.843-4.882-12.809-4.754z" fill="#005152"/><path d="m14.357 20.826.034-9.636-2.699-1.053-6.429 5.967 6.286 5.823z" fill="#00696b"/><path d="m11.692 10.137 2.699 1.053.014-3.622z" fill="#1b2725"/><path d="m14.357 20.826-2.808 1.101 2.776 2.582z" fill="#1c2624"/><path d="m14.325 24.512-9.525-.048 2.457 5.536h12.971l-5.902-5.489z" fill="#006466"/><path d="m4.848 7.536 9.557.032 5.807-5.568h-12.939z" fill="#00767a"/><path d="m14.405 7.568-9.557-.032 6.844 2.601z" fill="#1e3938"/><path d="m11.549 21.927-6.749 2.537 9.525.048v-.003z" fill="#20302e"/></g></svg>