<svg viewBox="0 0 32 32" xmlns="http://www.w3.org/2000/svg" xmlns:xlink="http://www.w3.org/1999/xlink"><linearGradient id="a" gradientTransform="matrix(.999 0 0 -.999 688.969 -558.754)" gradientUnits="userSpaceOnUse" x1="-683.873" x2="-664.125" y1="-565.884" y2="-585.635"><stop offset="0"/><stop offset="1" stop-color="#fff"/></linearGradient><linearGradient id="b" x1="-663.231" x2="-682.979" xlink:href="#a" y1="-584.741" y2="-564.99"/><path d="m15.976 22.842c6.195 8.445 12.257-2.357 12.248-8.853-.01-7.679-7.794-11.972-12.253-11.972a14.116 14.116 0 0 0 -13.971 14.007c0 8.994 7.812 13.976 13.971 13.976-1.394-.2-6.039-1.2-6.1-11.894-.042-7.236 2.36-10.126 6.091-8.855a7.106 7.106 0 0 1 4.115 6.816 7.132 7.132 0 0 1 -4.101 6.775z" fill="url(#a)"/><path d="m15.969 9.245c-4.093-1.411-9.108 1.963-9.108 8.72.001 11.035 8.177 12.035 9.168 12.035a14.116 14.116 0 0 0 13.971-14.006c0-8.994-7.812-13.977-13.971-13.977 1.706-.236 9.195 1.846 9.195 12.081 0 6.675-5.592 10.308-9.229 8.756a7.106 7.106 0 0 1 -4.115-6.816 7.17 7.17 0 0 1 4.089-6.793z" fill="url(#b)"/></svg>