<svg xmlns="http://www.w3.org/2000/svg" viewBox="0 0 32 32"><path fill="#80350b" d="M12.6 9.4c.32-.3.63-.67.95-.98.11-.12.23-.25.36-.35a.6.6 0 0 1 .4-.13H29.05c.18 0 .37-.02.54.01.12.02.23.06.3.17.05.07.07.16.08.25.03.27 0 .58 0 .86 0 .25.04 1.16 0 1.34a.42.42 0 0 1-.15.23c-.13.12-.32.2-.48.28-.4.2-.83.39-1.21.61l-.02.01-3.77 1.92-1.49.74c-.28.14-.58.28-.86.44-.2.64-.35 1.3-.52 1.94-.06.25-.12.53-.2.78.12.21.6.64.82.84q.75.75 1.52 1.48c.25.25.53.57.8.79.17.24.72.6.84.85.02.06.03.14.03.2.03.4 0 .8 0 1.2 0 .26.04.6 0 .84a.42.42 0 0 1-.12.2c-.1.1-.27.13-.41.14H10.77c-.1-.01-.2-.05-.27-.12-.13-.12-.14-.26-.14-.43 0-.33-.04-1.85.04-2.06.07-.16 3.51-3.53 3.9-3.93q-.8-1.3-1.63-2.58c-.47-.03-.93-.06-1.39-.13-3.14-.47-5.52-1.83-7.95-3.82-.26-.22-1.12-.89-1.28-1.12A.29.29 0 0 1 2 9.65c.03-.1.12-.17.21-.22.4-.02.8 0 1.2 0l2.1-.01z"/><path fill="#ea580c" d="M14.27 7.98 27.51 8c.22 0 2.08-.03 2.13 0 .15.06.2.09.29.21 0 .35.06 2.2 0 2.42-.04.09-.15.17-.22.21-.27.17-.58.3-.86.44q-.88.44-1.75.9l-3.01 1.52c-.65.33-1.35.64-1.98 1a.68.68 0 0 0-.18.14c-1 .03-1.98 0-2.97 0H14v-.03c-.06-.46-.03-1.09-.03-1.57v-3.07c0-.18-.01-2.08.02-2.11.06-.07.19-.07.27-.08zm.07 9.52c1-.02 2 0 3 0h3.69c.04 0 .13 0 .16.02.11.07.25.25.35.35l1.02 1c.56.57 1.14 1.12 1.72 1.67l.77.76c.07.07.17.16.19.25.05.18.02.5.02.69l-.01 1.5-.1.15a.4.4 0 0 1-.2.1c-.3.05-.8.02-1.12.02h-2.36v-2.47l-.52-.52c-.15-.15-.3-.32-.47-.46h-5.3c-.12.1-.22.23-.33.34l-.6.6V24c-1.19 0-2.38.03-3.58 0-.12-.06-.2-.13-.24-.26-.08-.21-.03-.7-.03-.95 0-.27-.04-1.1.04-1.29.04-.1.17-.23.25-.31.24-.26.5-.5.74-.74l2.19-2.17c.2-.2.6-.53.72-.78zM12.3 9.45h.36v5.44a13.66 13.66 0 0 1-6.13-1.73c-.5-.28-.97-.6-1.46-.9a43.78 43.78 0 0 1-2.24-1.75c-.24-.2-.55-.41-.73-.66a.21.21 0 0 1-.04-.18c.02-.1.11-.16.2-.2h9.05c.32 0 .68.03.99-.02z"/></svg>