<?xml version="1.0" encoding="UTF-8"?>
<svg xmlns="http://www.w3.org/2000/svg" xmlns:xlink="http://www.w3.org/1999/xlink" width="27px" height="32px" viewBox="0 0 27 31" version="1.1">
<g id="surface1">
<path style=" stroke:none;fill-rule:evenodd;fill:rgb(91.764706%,34.901961%,2.352941%);fill-opacity:1;" d="M 6.804688 10.953125 L 7.363281 10.953125 L 7.363281 10.40625 L 6.804688 10.40625 Z M 6.804688 10.953125 "/>
<path style=" stroke:none;fill-rule:evenodd;fill:rgb(91.764706%,34.901961%,2.352941%);fill-opacity:1;" d="M 7.808594 10.953125 L 8.367188 10.953125 L 8.367188 10.40625 L 7.808594 10.40625 Z M 7.808594 10.953125 "/>
<path style=" stroke:none;fill-rule:evenodd;fill:rgb(91.764706%,34.901961%,2.352941%);fill-opacity:1;" d="M 8.703125 10.953125 L 9.261719 10.953125 L 9.261719 10.40625 L 8.703125 10.40625 Z M 8.703125 10.953125 "/>
<path style=" stroke:none;fill-rule:evenodd;fill:rgb(91.764706%,34.901961%,2.352941%);fill-opacity:1;" d="M 9.707031 10.953125 L 10.265625 10.953125 L 10.265625 10.40625 L 9.707031 10.40625 Z M 9.707031 10.953125 "/>
<path style=" stroke:none;fill-rule:evenodd;fill:rgb(91.764706%,34.901961%,2.352941%);fill-opacity:1;" d="M 6.6875 5.878906 L 6.6875 2.429688 C 5.714844 2.429688 4.925781 3.199219 4.925781 4.152344 C 4.925781 5.105469 5.714844 5.878906 6.6875 5.878906 "/>
<path style=" stroke:none;fill-rule:evenodd;fill:rgb(91.764706%,34.901961%,2.352941%);fill-opacity:1;" d="M 22.074219 4.152344 C 22.074219 3.199219 21.285156 2.429688 20.3125 2.429688 L 20.3125 5.878906 C 21.285156 5.878906 22.074219 5.105469 22.074219 4.152344 "/>
<path style=" stroke:none;fill-rule:evenodd;fill:rgb(91.764706%,34.901961%,2.352941%);fill-opacity:1;" d="M 10.886719 2.59375 C 11.691406 2.59375 12.347656 3.238281 12.347656 4.027344 C 12.347656 4.816406 11.691406 5.460938 10.886719 5.460938 C 10.082031 5.460938 9.425781 4.816406 9.425781 4.027344 C 9.425781 3.238281 10.082031 2.59375 10.886719 2.59375 M 10.886719 5.792969 C 11.878906 5.792969 12.6875 5 12.6875 4.027344 C 12.6875 3.054688 11.878906 2.261719 10.886719 2.261719 C 9.894531 2.261719 9.085938 3.054688 9.085938 4.027344 C 9.085938 5 9.894531 5.792969 10.886719 5.792969 "/>
<path style=" stroke:none;fill-rule:evenodd;fill:rgb(91.764706%,34.901961%,2.352941%);fill-opacity:1;" d="M 10.886719 5.226562 C 11.5625 5.226562 12.109375 4.6875 12.109375 4.027344 C 12.109375 3.367188 11.5625 2.828125 10.886719 2.828125 C 10.210938 2.828125 9.664062 3.367188 9.664062 4.027344 C 9.664062 4.6875 10.210938 5.226562 10.886719 5.226562 "/>
<path style=" stroke:none;fill-rule:evenodd;fill:rgb(91.764706%,34.901961%,2.352941%);fill-opacity:1;" d="M 16.113281 2.59375 C 16.917969 2.59375 17.574219 3.238281 17.574219 4.027344 C 17.574219 4.816406 16.917969 5.460938 16.113281 5.460938 C 15.308594 5.460938 14.652344 4.816406 14.652344 4.027344 C 14.652344 3.238281 15.308594 2.59375 16.113281 2.59375 M 16.113281 5.792969 C 17.105469 5.792969 17.914062 5 17.914062 4.027344 C 17.914062 3.054688 17.105469 2.261719 16.113281 2.261719 C 15.121094 2.261719 14.3125 3.054688 14.3125 4.027344 C 14.3125 5 15.121094 5.792969 16.113281 5.792969 "/>
<path style=" stroke:none;fill-rule:evenodd;fill:rgb(91.764706%,34.901961%,2.352941%);fill-opacity:1;" d="M 16.113281 5.226562 C 16.789062 5.226562 17.335938 4.6875 17.335938 4.027344 C 17.335938 3.367188 16.789062 2.828125 16.113281 2.828125 C 15.4375 2.828125 14.890625 3.367188 14.890625 4.027344 C 14.890625 4.6875 15.4375 5.226562 16.113281 5.226562 "/>
<path style=" stroke:none;fill-rule:evenodd;fill:rgb(91.764706%,34.901961%,2.352941%);fill-opacity:1;" d="M 18.554688 3.851562 L 19.125 3.851562 L 19.125 3.296875 L 18.554688 3.296875 Z M 18.554688 3.851562 "/>
<path style=" stroke:none;fill-rule:evenodd;fill:rgb(91.764706%,34.901961%,2.352941%);fill-opacity:1;" d="M 18.554688 4.65625 L 19.125 4.65625 L 19.125 4.097656 L 18.554688 4.097656 Z M 18.554688 4.65625 "/>
<path style=" stroke:none;fill-rule:evenodd;fill:rgb(91.764706%,34.901961%,2.352941%);fill-opacity:1;" d="M 7.5 1.324219 C 7.5 0.777344 7.953125 0.335938 8.511719 0.335938 L 18.488281 0.335938 C 19.046875 0.335938 19.5 0.777344 19.5 1.324219 L 19.5 5.65625 C 19.5 6.203125 19.046875 6.648438 18.488281 6.648438 L 8.511719 6.648438 C 7.953125 6.648438 7.5 6.203125 7.5 5.65625 Z M 8.511719 6.980469 L 18.488281 6.980469 C 19.230469 6.980469 19.839844 6.386719 19.839844 5.65625 L 19.839844 1.324219 C 19.839844 0.597656 19.230469 0 18.488281 0 L 8.511719 0 C 7.769531 0 7.160156 0.597656 7.160156 1.324219 L 7.160156 5.65625 C 7.160156 6.386719 7.769531 6.980469 8.511719 6.980469 Z M 8.511719 6.980469 "/>
<path style=" stroke:none;fill-rule:evenodd;fill:rgb(91.764706%,34.901961%,2.352941%);fill-opacity:1;" d="M 21.113281 7.5 C 21.84375 7.5 22.445312 8.078125 22.464844 8.792969 L 22.464844 8.960938 C 23.363281 9.105469 26.359375 10.089844 26.417969 13.246094 L 26.421875 13.339844 L 26.421875 20.371094 C 26.777344 20.601562 27 20.917969 27 21.269531 C 27 21.539062 26.867188 21.792969 26.644531 22 C 26.621094 22.5 26.761719 23.484375 26.832031 23.894531 L 26.839844 23.925781 L 26.839844 23.953125 C 26.839844 23.972656 26.84375 24.46875 26.511719 24.796875 C 26.324219 24.984375 26.070312 25.078125 25.761719 25.078125 C 24.785156 25.078125 24.746094 24.273438 24.726562 23.890625 C 24.722656 23.839844 24.722656 23.796875 24.71875 23.757812 C 24.703125 23.597656 24.644531 23.515625 24.546875 23.515625 C 24.542969 23.515625 24.542969 23.515625 24.539062 23.515625 C 24.433594 23.515625 24.367188 23.546875 24.257812 23.710938 C 23.949219 24.15625 23.394531 24.113281 23.097656 23.941406 C 22.925781 23.84375 22.816406 23.699219 22.777344 23.523438 C 22.722656 23.273438 22.816406 22.976562 23.054688 22.644531 C 23.238281 22.386719 23.277344 22.164062 23.261719 21.996094 C 23.039062 21.789062 22.90625 21.539062 22.90625 21.269531 C 22.90625 20.929688 23.117188 20.621094 23.457031 20.390625 L 23.488281 20.367188 L 23.488281 14.035156 C 23.488281 13.507812 23.324219 13.308594 22.980469 13.007812 C 22.84375 12.886719 22.679688 12.816406 22.503906 12.777344 L 22.464844 12.773438 L 22.464844 22.878906 C 22.464844 23.597656 21.875 24.1875 21.144531 24.203125 L 20.152344 24.203125 L 20.152344 27.921875 L 20.949219 27.921875 C 20.949219 27.921875 20.960938 27.925781 20.980469 27.929688 L 20.996094 27.933594 C 21.230469 27.996094 22.273438 28.324219 22.433594 29.527344 L 22.441406 29.574219 L 22.441406 31 L 17.730469 31 L 16.28125 30.503906 L 16.28125 29.425781 C 16.246094 28.882812 16.339844 28.480469 16.554688 28.25 L 16.578125 28.226562 L 16.578125 24.203125 L 10.394531 24.203125 L 10.394531 28.226562 C 10.617188 28.445312 10.71875 28.84375 10.695312 29.375 L 10.691406 29.425781 L 10.691406 30.503906 L 9.242188 31 L 4.53125 31 L 4.53125 29.574219 C 4.6875 28.195312 5.980469 27.929688 6.023438 27.921875 L 6.820312 27.921875 L 6.820312 24.203125 L 5.886719 24.203125 C 5.15625 24.203125 4.554688 23.625 4.535156 22.910156 L 4.535156 12.769531 C 4.34375 12.804688 4.167969 12.878906 4.019531 13.007812 C 3.6875 13.300781 3.519531 13.496094 3.511719 13.992188 L 3.511719 20.367188 C 3.871094 20.601562 4.09375 20.917969 4.09375 21.269531 C 4.09375 21.539062 3.960938 21.789062 3.738281 21.996094 C 3.722656 22.164062 3.761719 22.386719 3.945312 22.644531 C 4.183594 22.976562 4.277344 23.273438 4.222656 23.523438 C 4.183594 23.699219 4.074219 23.84375 3.90625 23.941406 C 3.605469 24.113281 3.050781 24.15625 2.742188 23.710938 C 2.632812 23.546875 2.566406 23.515625 2.460938 23.515625 C 2.460938 23.515625 2.457031 23.515625 2.453125 23.515625 C 2.355469 23.515625 2.296875 23.597656 2.28125 23.757812 C 2.277344 23.796875 2.277344 23.839844 2.273438 23.890625 C 2.253906 24.273438 2.214844 25.078125 1.238281 25.078125 C 0.929688 25.078125 0.675781 24.984375 0.488281 24.796875 C 0.179688 24.488281 0.160156 24.035156 0.160156 23.960938 L 0.160156 23.925781 C 0.230469 23.539062 0.378906 22.511719 0.355469 22 C 0.132812 21.792969 0 21.539062 0 21.269531 C 0 20.929688 0.207031 20.621094 0.546875 20.390625 L 0.578125 20.371094 L 0.578125 13.339844 C 0.578125 10.144531 3.566406 9.128906 4.507812 8.964844 L 4.535156 8.960938 L 4.535156 8.824219 C 4.535156 8.109375 5.125 7.519531 5.855469 7.5 Z M 22.0625 29.378906 L 17.996094 29.378906 C 18 29.429688 18.003906 29.476562 18.003906 29.527344 L 18.003906 29.574219 L 22.097656 29.574219 C 22.089844 29.507812 22.078125 29.441406 22.0625 29.378906 Z M 8.976562 29.378906 L 4.910156 29.378906 C 4.898438 29.425781 4.890625 29.472656 4.882812 29.523438 L 4.875 29.574219 L 8.96875 29.574219 C 8.964844 29.507812 8.96875 29.445312 8.976562 29.378906 Z M 16.820312 28.460938 C 16.695312 28.582031 16.625 28.828125 16.617188 29.152344 L 16.613281 29.191406 L 17.664062 29.550781 C 17.671875 29.195312 17.496094 28.8125 17.3125 28.597656 C 17.191406 28.449219 17.082031 28.390625 17.019531 28.386719 C 16.941406 28.382812 16.875 28.40625 16.820312 28.460938 Z M 9.972656 28.386719 L 9.953125 28.386719 C 9.890625 28.390625 9.78125 28.449219 9.660156 28.597656 C 9.484375 28.804688 9.3125 29.167969 9.308594 29.511719 L 9.308594 29.550781 L 10.355469 29.191406 C 10.355469 28.847656 10.28125 28.585938 10.152344 28.460938 C 10.105469 28.414062 10.054688 28.390625 9.992188 28.386719 Z M 20.898438 28.253906 L 17.453125 28.253906 C 17.496094 28.292969 17.535156 28.335938 17.578125 28.382812 C 17.730469 28.570312 17.875 28.839844 17.953125 29.132812 L 17.960938 29.179688 L 21.996094 29.179688 C 21.710938 28.460938 21.003906 28.277344 20.898438 28.253906 Z M 9.519531 28.253906 L 6.074219 28.253906 C 5.96875 28.277344 5.285156 28.457031 4.992188 29.140625 L 4.976562 29.179688 L 9.007812 29.179688 C 9.078125 28.867188 9.230469 28.582031 9.394531 28.382812 C 9.4375 28.335938 9.476562 28.292969 9.519531 28.253906 Z M 7.453125 24.203125 L 7.023438 24.203125 L 7.023438 27.921875 L 7.453125 27.921875 Z M 10.054688 24.203125 L 9.589844 24.203125 L 9.589844 26.394531 L 9.746094 26.394531 L 9.746094 27.097656 L 9.589844 27.097656 L 9.589844 27.921875 L 10.054688 27.921875 Z M 19.949219 24.203125 L 19.519531 24.203125 L 19.519531 27.921875 L 19.949219 27.921875 Z M 17.382812 24.203125 L 16.917969 24.203125 L 16.917969 27.921875 L 17.382812 27.921875 L 17.382812 27.097656 L 17.222656 27.097656 L 17.222656 26.394531 L 17.382812 26.394531 Z M 0.699219 22.242188 C 0.679688 22.898438 0.523438 23.828125 0.5 23.964844 C 0.503906 24.03125 0.523438 24.359375 0.734375 24.5625 C 0.855469 24.683594 1.023438 24.746094 1.238281 24.746094 C 1.476562 24.746094 1.632812 24.679688 1.734375 24.574219 C 1.589844 24.542969 1.402344 24.472656 1.28125 24.3125 C 1.152344 24.148438 1.125 23.933594 1.199219 23.675781 C 1.226562 23.582031 1.246094 23.511719 1.265625 23.449219 C 1.28125 23.398438 1.296875 23.351562 1.308594 23.308594 L 1.324219 23.253906 C 1.363281 23.105469 1.390625 22.941406 1.453125 22.507812 C 1.171875 22.453125 0.914062 22.359375 0.699219 22.242188 Z M 26.300781 22.242188 C 26.085938 22.359375 25.828125 22.453125 25.546875 22.507812 C 25.609375 22.941406 25.636719 23.105469 25.675781 23.253906 L 25.691406 23.308594 C 25.703125 23.351562 25.71875 23.398438 25.734375 23.449219 C 25.753906 23.511719 25.773438 23.582031 25.800781 23.675781 C 25.875 23.933594 25.847656 24.148438 25.71875 24.3125 C 25.597656 24.472656 25.410156 24.542969 25.265625 24.574219 C 25.367188 24.679688 25.523438 24.746094 25.761719 24.746094 C 25.980469 24.746094 26.144531 24.683594 26.265625 24.5625 C 26.476562 24.359375 26.496094 24.03125 26.5 23.964844 C 26.484375 23.871094 26.402344 23.398438 26.351562 22.898438 L 26.34375 22.816406 C 26.324219 22.621094 26.308594 22.417969 26.300781 22.242188 Z M 24.433594 22.519531 C 24.339844 22.664062 24.222656 22.792969 24.105469 22.914062 C 23.980469 23.050781 23.863281 23.175781 23.792969 23.3125 C 23.765625 23.363281 23.761719 23.410156 23.777344 23.457031 C 23.800781 23.515625 23.851562 23.566406 23.902344 23.605469 C 23.929688 23.582031 23.953125 23.558594 23.972656 23.527344 C 24.09375 23.34375 24.25 23.179688 24.554688 23.179688 C 24.835938 23.1875 25.023438 23.390625 25.054688 23.726562 C 25.0625 23.769531 25.0625 23.816406 25.066406 23.871094 C 25.074219 24.011719 25.085938 24.144531 25.113281 24.261719 C 25.210938 24.25 25.371094 24.214844 25.449219 24.113281 C 25.507812 24.035156 25.515625 23.917969 25.472656 23.765625 C 25.445312 23.675781 25.425781 23.605469 25.40625 23.542969 C 25.324219 23.273438 25.300781 23.195312 25.210938 22.550781 C 25.125 22.558594 25.039062 22.5625 24.953125 22.5625 C 24.773438 22.5625 24.597656 22.546875 24.433594 22.519531 Z M 2.566406 22.519531 C 2.402344 22.546875 2.226562 22.5625 2.046875 22.5625 C 1.960938 22.5625 1.875 22.558594 1.789062 22.550781 C 1.699219 23.195312 1.675781 23.273438 1.59375 23.542969 C 1.574219 23.605469 1.554688 23.675781 1.527344 23.765625 C 1.484375 23.917969 1.492188 24.035156 1.550781 24.113281 C 1.628906 24.214844 1.789062 24.25 1.886719 24.261719 C 1.914062 24.144531 1.925781 24.011719 1.933594 23.871094 C 1.9375 23.816406 1.941406 23.769531 1.945312 23.726562 C 1.976562 23.390625 2.164062 23.1875 2.449219 23.179688 C 2.75 23.179688 2.90625 23.34375 3.027344 23.527344 C 3.046875 23.558594 3.070312 23.582031 3.097656 23.605469 C 3.148438 23.566406 3.199219 23.515625 3.222656 23.457031 C 3.238281 23.410156 3.234375 23.363281 3.207031 23.3125 C 3.136719 23.175781 3.019531 23.050781 2.894531 22.914062 C 2.777344 22.792969 2.660156 22.664062 2.566406 22.519531 Z M 23.59375 22.234375 C 23.566406 22.414062 23.488281 22.617188 23.332031 22.835938 C 23.15625 23.085938 23.078125 23.300781 23.113281 23.453125 C 23.128906 23.535156 23.183594 23.605469 23.269531 23.652344 C 23.324219 23.683594 23.472656 23.742188 23.632812 23.726562 C 23.585938 23.675781 23.546875 23.617188 23.519531 23.542969 C 23.480469 23.429688 23.488281 23.308594 23.550781 23.191406 C 23.636719 23.023438 23.773438 22.875 23.90625 22.734375 C 23.988281 22.644531 24.074219 22.554688 24.144531 22.457031 C 23.941406 22.402344 23.757812 22.328125 23.59375 22.234375 Z M 3.40625 22.234375 C 3.242188 22.328125 3.058594 22.402344 2.855469 22.457031 C 2.925781 22.554688 3.011719 22.644531 3.09375 22.734375 C 3.226562 22.875 3.363281 23.023438 3.449219 23.191406 C 3.511719 23.308594 3.519531 23.429688 3.480469 23.542969 C 3.453125 23.617188 3.414062 23.675781 3.367188 23.726562 C 3.527344 23.742188 3.679688 23.683594 3.730469 23.652344 C 3.816406 23.605469 3.871094 23.535156 3.886719 23.453125 C 3.921875 23.300781 3.84375 23.085938 3.667969 22.835938 C 3.511719 22.617188 3.433594 22.414062 3.40625 22.234375 Z M 20.640625 20.046875 L 6.472656 20.046875 L 6.472656 22.011719 C 6.472656 22.726562 7.058594 23.3125 7.785156 23.332031 L 19.292969 23.332031 C 20.023438 23.332031 20.621094 22.757812 20.640625 22.046875 Z M 22.464844 9.433594 L 22.464844 11.449219 C 22.863281 11.5625 23.25 11.742188 23.574219 12.027344 C 24.09375 12.484375 24.363281 13.226562 24.375 13.984375 L 24.375 19.945312 L 25.941406 19.945312 L 25.941406 13.339844 C 25.941406 12.023438 25.386719 10.972656 24.285156 10.214844 C 23.574219 9.722656 22.828125 9.5 22.464844 9.433594 Z M 4.535156 9.433594 C 4.171875 9.5 3.425781 9.722656 2.714844 10.214844 C 1.632812 10.960938 1.074219 11.992188 1.058594 13.28125 L 1.058594 19.945312 L 2.625 19.945312 L 2.625 14.035156 C 2.625 13.257812 2.894531 12.492188 3.425781 12.027344 C 3.734375 11.757812 4.101562 11.582031 4.480469 11.464844 L 4.535156 11.449219 Z M 20.640625 13.691406 L 13.164062 13.691406 L 13.164062 17.636719 L 20.640625 17.636719 Z M 6.804688 14.019531 L 6.582031 14.019531 L 6.582031 17.308594 L 6.804688 17.308594 Z M 10.375 14.019531 C 9.453125 14.019531 8.703125 14.757812 8.703125 15.664062 C 8.703125 16.570312 9.453125 17.308594 10.375 17.308594 C 11.300781 17.308594 12.050781 16.570312 12.050781 15.664062 C 12.050781 14.757812 11.300781 14.019531 10.375 14.019531 Z M 8.703125 14.019531 L 8.484375 14.019531 L 7.140625 17.308594 L 7.359375 17.308594 Z M 10.375 14.226562 C 11.183594 14.226562 11.839844 14.871094 11.839844 15.664062 C 11.839844 16.457031 11.183594 17.101562 10.375 17.101562 C 9.566406 17.101562 8.910156 16.457031 8.910156 15.664062 C 8.910156 14.871094 9.566406 14.226562 10.375 14.226562 Z M 19.292969 8.324219 L 7.820312 8.324219 C 7.089844 8.324219 6.488281 8.898438 6.472656 9.609375 L 6.472656 11.28125 L 20.640625 11.28125 L 20.640625 9.640625 C 20.640625 8.917969 20.035156 8.324219 19.292969 8.324219 Z M 19.292969 8.324219 "/>
<path style="fill:none;stroke-width:2;stroke-linecap:square;stroke-linejoin:miter;stroke:rgb(91.764706%,34.901961%,2.352941%);stroke-opacity:1;stroke-miterlimit:4;" d="M 117.989005 150.736013 C 124.641204 140.394531 134.969618 139.788306 148.974248 148.917339 C 169.981192 162.610887 161.963542 120.496094 185.001157 142.498488 " transform="matrix(0.11157,0,0,0.109541,0,0)"/>
<path style="fill:none;stroke-width:2;stroke-linecap:butt;stroke-linejoin:miter;stroke:rgb(91.764706%,34.901961%,2.352941%);stroke-opacity:1;stroke-miterlimit:4;" d="M 87.003762 197.985887 C 87.003762 204.6187 81.611979 210.003402 74.994792 210.003402 C 68.377604 210.003402 62.985822 204.6187 62.985822 197.985887 C 62.985822 191.388735 68.377604 186.004032 74.994792 186.004032 C 81.611979 186.004032 87.003762 191.388735 87.003762 197.985887 Z M 87.003762 197.985887 " transform="matrix(0.11157,0,0,0.109541,0,0)"/>
<path style="fill:none;stroke-width:2;stroke-linecap:butt;stroke-linejoin:miter;stroke:rgb(91.764706%,34.901961%,2.352941%);stroke-opacity:1;stroke-miterlimit:4;" d="M 117.008681 197.985887 C 117.008681 204.6187 111.616898 210.003402 104.999711 210.003402 C 98.382523 210.003402 92.990741 204.6187 92.990741 197.985887 C 92.990741 191.388735 98.382523 186.004032 104.999711 186.004032 C 111.616898 186.004032 117.008681 191.388735 117.008681 197.985887 Z M 117.008681 197.985887 " transform="matrix(0.11157,0,0,0.109541,0,0)"/>
<path style="fill:none;stroke-width:4;stroke-linecap:round;stroke-linejoin:miter;stroke:rgb(91.764706%,34.901961%,2.352941%);stroke-opacity:1;stroke-miterlimit:4;" d="M 74.994792 209.004914 L 74.994792 197.985887 " transform="matrix(0.11157,0,0,0.109541,0,0)"/>
<path style="fill:none;stroke-width:4;stroke-linecap:round;stroke-linejoin:miter;stroke:rgb(91.764706%,34.901961%,2.352941%);stroke-opacity:1;stroke-miterlimit:4;" d="M 104.999711 197.985887 L 111.932002 190.069304 " transform="matrix(0.11157,0,0,0.109541,0,0)"/>
<path style="fill:none;stroke-width:4;stroke-linecap:round;stroke-linejoin:miter;stroke:rgb(91.764706%,34.901961%,2.352941%);stroke-opacity:1;stroke-miterlimit:4;" d="M 133.00897 190.497228 L 170.996528 190.497228 " transform="matrix(0.11157,0,0,0.109541,0,0)"/>
<path style="fill:none;stroke-width:4;stroke-linecap:round;stroke-linejoin:miter;stroke:rgb(91.764706%,34.901961%,2.352941%);stroke-opacity:1;stroke-miterlimit:4;" d="M 133.00897 197.486643 L 170.996528 197.486643 " transform="matrix(0.11157,0,0,0.109541,0,0)"/>
<path style="fill:none;stroke-width:4;stroke-linecap:round;stroke-linejoin:miter;stroke:rgb(91.764706%,34.901961%,2.352941%);stroke-opacity:1;stroke-miterlimit:4;" d="M 133.00897 204.511719 L 154.996238 204.511719 " transform="matrix(0.11157,0,0,0.109541,0,0)"/>
</g>
</svg>
