<svg viewBox="0 0 32 32" xmlns="http://www.w3.org/2000/svg"><path d="m20.197 14.474-2.828-2.818 6.35-6.327 2.795 2.785z" fill="#fdcd31"/><path d="m20.2 14.773-3.13-3.117 6.649-6.625 3.093 3.082zm-2.53-3.116 2.53 2.518 6.02-6.061-2.5-2.487z" fill="#e9ad0f"/><path d="m6.264 18.687h9.762v3.995h-9.762z" fill="#fdcd31" transform="matrix(.70710678 -.70710678 .70710678 .70710678 -11.362 13.939)"/><path d="m9.106 25.846-3.122-3.122 7.2-7.2 3.124 3.124zm-2.525-3.122 2.525 2.526 6.6-6.6-2.527-2.527z" fill="#e9ad0f"/><path d="m5.592 23.415 2.81 2.8-6.17 3.385a.014.014 0 0 1 -.019-.019z" fill="#fdcd31"/><path d="m2.225 29.815a.225.225 0 0 1 -.2-.333l3.514-6.414 3.209 3.2-6.414 3.519a.227.227 0 0 1 -.109.028zm3.417-6.052-2.919 5.329 5.33-2.925z" fill="#e9ad0f"/><path d="m29.094 5.588-1.939 1.938-2.834-2.834 1.854-1.857a1.3 1.3 0 0 1 1.707.016l1.2 1.23a1.19 1.19 0 0 1 .012 1.507z" fill="#fdcd31"/><path d="m27.155 7.825-3.133-3.133 2-2.006a1.515 1.515 0 0 1 2.006.016l1.2 1.232a1.412 1.412 0 0 1 .023 1.792l-.011.011zm-2.536-3.133 2.536 2.536 1.784-1.784a.974.974 0 0 0 -.019-1.225l-1.189-1.219a1.1 1.1 0 0 0 -1.407-.014z" fill="#e9ad0f"/><path d="m20.124 18.597h4.006v3.913h-4.006z" fill="#fdcd31" transform="matrix(.70710678 -.70710678 .70710678 .70710678 -8.052 21.666)"/><path d="m22.094 23.651-3.065-3.065 3.131-3.131 3.065 3.065zm-2.468-3.065 2.468 2.469 2.534-2.534-2.468-2.469z" fill="#e9ad0f"/><path d="m21.253 17.4-2.3 2.3a.38.38 0 0 1 -.538 0l-13.989-14a1.407 1.407 0 0 1 0-1.99l.943-.943a1.266 1.266 0 0 1 1.791 0l14.093 14.094a.38.38 0 0 1 0 .539z" fill="#fdcd31"/><path d="m18.689 20.016a.59.59 0 0 1 -.418-.173l-13.994-13.995a1.618 1.618 0 0 1 0-2.288l.943-.943a1.479 1.479 0 0 1 2.089 0l14.091 14.094a.591.591 0 0 1 0 .836l-2.295 2.295a.589.589 0 0 1 -.416.174zm-12.425-17.409a1.052 1.052 0 0 0 -.746.309l-.943.943a1.2 1.2 0 0 0 0 1.691l13.995 13.994a.17.17 0 0 0 .239 0l2.291-2.295a.169.169 0 0 0 0-.239l-14.09-14.094a1.052 1.052 0 0 0 -.746-.309z" fill="#e9ad0f"/><path d="m23.364 23.439 1.617-1.628a1.042 1.042 0 0 1 1.345-.113 14.368 14.368 0 0 1 1.932 1.572c2.144 2.368 1.454 5.722 1.313 6.312a.014.014 0 0 1 -.025 0 5.077 5.077 0 0 0 -1.425-1.582c-1.024-.731-1.821-.675-2.761-1.115a4.73 4.73 0 0 1 -2.16-2.185.99.99 0 0 1 .164-1.261z" fill="#fdcd31"/><path d="m29.557 29.8a.223.223 0 0 1 -.193-.112 4.846 4.846 0 0 0 -1.364-1.518 4.728 4.728 0 0 0 -1.648-.721 6.673 6.673 0 0 1 -1.08-.374 4.989 4.989 0 0 1 -2.257-2.275 1.2 1.2 0 0 1 .2-1.512l1.618-1.628a1.25 1.25 0 0 1 1.617-.136 14.442 14.442 0 0 1 1.966 1.6c2.2 2.43 1.52 5.843 1.361 6.5a.225.225 0 0 1 -.187.171zm-3.837-8.09a.827.827 0 0 0 -.589.246l-1.618 1.628a.783.783 0 0 0 -.126 1.016 4.579 4.579 0 0 0 2.061 2.088 6.267 6.267 0 0 0 1.015.35 4.9 4.9 0 0 1 3 2.02 6.828 6.828 0 0 0 -1.358-5.65 14.107 14.107 0 0 0 -1.9-1.542.833.833 0 0 0 -.485-.152z" fill="#e9ad0f"/></svg>