<svg xmlns="http://www.w3.org/2000/svg" width="16" height="16"><path fill="#db61a2" fill-rule="evenodd" d="M4.784 3.285c-1.144 0-2.357.999-2.357 2.572 0 1.842 1.355 3.552 2.885 4.872a17.58 17.58 0 002.687 1.893 17.54 17.54 0 002.688-1.893c1.53-1.32 2.884-3.03 2.884-4.872 0-1.573-1.212-2.572-2.356-2.572-1.179 0-2.237.847-2.597 2.106a.643.643 0 01-1.237 0c-.36-1.259-1.418-2.106-2.597-2.106zm3.215 10.073l-.294.57-.002-.001-.006-.002-.017-.009a18.843 18.843 0 01-3.209-2.214c-1.577-1.36-3.329-3.401-3.329-5.845C1.142 3.573 2.931 2 4.784 2c1.328 0 2.49.688 3.215 1.731C8.725 2.688 9.887 2 11.215 2c1.853 0 3.642 1.573 3.642 3.857 0 2.444-1.753 4.485-3.33 5.845a18.98 18.98 0 01-3.209 2.214l-.016.009-.006.002h-.002l-.295-.569zm0 0l.295.57a.638.638 0 01-.589 0l.294-.57z"/></svg>