<svg xmlns="http://www.w3.org/2000/svg" xmlns:xlink="http://www.w3.org/1999/xlink" viewBox="0 0 32 32"><defs><linearGradient id="a" x1="3.843" y1="28.15" x2="28.148" y2="3.845" gradientUnits="userSpaceOnUse"><stop offset="0" stop-color="#7ecefd"/><stop offset="1" stop-color="#56b1fc"/></linearGradient></defs><title>file_type_capacitor</title><path d="M29.706,17.76c.329.324.315.5-.007.811-1.1,1.066-2.18,2.161-3.263,3.249-.185.186-.319.329-.582.064q-4.885-4.925-9.788-9.83Q13.077,9.09,10.085,6.129c-.192-.189-.17-.317.011-.5q1.743-1.726,3.469-3.471c.214-.217.345-.179.539.017q2.127,2.156,4.27,4.3h0c.387.374.772.751,1.162,1.121.156.148.277.352.529.361q2.895-2.888,5.786-5.781c.215-.216.351-.246.583-.011,1.107,1.12,2.222,2.233,3.357,3.325.295.283.265.436-.009.706-1.812,1.787-3.595,3.6-5.417,5.38-.375.365-.332.544.016.885C26.168,14.214,27.92,16.005,29.706,17.76ZM15.931,19.953a.623.623,0,0,0-.067-.1q-4.841-4.842-9.679-9.689c-.246-.246-.389-.241-.629,0-1.088,1.111-2.183,2.216-3.3,3.3-.318.306-.276.471.015.758,1.783,1.76,3.536,3.549,5.325,5.3.362.356.35.549-.007.9-1.8,1.77-3.568,3.573-5.359,5.353-.262.26-.332.416-.024.715,1.116,1.083,2.208,2.19,3.289,3.309.26.27.4.266.663,0Q8,27.916,9.882,26.07a27.958,27.958,0,0,1,2.171-2.1h0l1.57,1.564h0q2.133,2.14,4.262,4.285c.2.2.347.207.55,0q1.724-1.739,3.464-3.461c.185-.183.187-.311,0-.5Q18.909,22.915,15.931,19.953Z" style="fill:url(#a)"/></svg>