<svg viewBox="0 0 32 32" xmlns="http://www.w3.org/2000/svg" xmlns:xlink="http://www.w3.org/1999/xlink"><radialGradient id="a" cx="14.173" cy="9.069" gradientUnits="userSpaceOnUse" r="18.299"><stop offset="0" stop-color="#fff"/><stop offset=".181" stop-color="#fbfbfb"/><stop offset=".365" stop-color="#efeff0"/><stop offset=".552" stop-color="#dadbdc"/><stop offset=".738" stop-color="#bebfc2"/><stop offset=".824" stop-color="#aeb0b3"/></radialGradient><radialGradient id="b" cx="6.678" cy="84.74" gradientTransform="matrix(1.072 0 0 1.166 -1.884 -86.154)" gradientUnits="userSpaceOnUse" r="15.554"><stop offset="0" stop-color="#fafdff"/><stop offset=".079" stop-color="#eef5fa"/><stop offset=".22" stop-color="#cfdfec"/><stop offset=".407" stop-color="#9dbbd5"/><stop offset=".631" stop-color="#588ab5"/><stop offset=".745" stop-color="#326fa4"/><stop offset=".799" stop-color="#2b6698"/><stop offset=".897" stop-color="#174e78"/><stop offset=".994" stop-color="#003152"/></radialGradient><radialGradient id="c" cx="11.241" cy="-9.897" gradientTransform="matrix(1 0 0 1.062 0 22.631)" gradientUnits="userSpaceOnUse" r="16.594"><stop offset="0" stop-color="#ffd540"/><stop offset=".667" stop-color="#ec1c24"/><stop offset=".994" stop-color="#760000"/></radialGradient><radialGradient id="d" cx="12.286" cy="26.127" gradientUnits="userSpaceOnUse" r="2.083"><stop offset="0" stop-color="#dddfe0"/><stop offset=".174" stop-color="#d9dbdc"/><stop offset=".351" stop-color="#cdcfd0"/><stop offset=".531" stop-color="#b8babb"/><stop offset=".711" stop-color="#9c9e9f"/><stop offset=".891" stop-color="#78797b"/><stop offset="1" stop-color="#5e5f61"/></radialGradient><radialGradient id="e" cx="19.064" cy="26.127" r="2.083" xlink:href="#d"/><radialGradient id="f" cx="15.434" cy="16.652" fx="15.434" fy="16.652" r="2.687" xlink:href="#d"/><circle cx="16" cy="16" fill="url(#a)" r="14" transform="matrix(.74004208 -.67256057 .67256057 .74004208 -6.602 14.92)"/><path d="m19.938 6.309a9.785 9.785 0 0 0 -6.5-2.339c-4.874 0-9.664 3.73-10.033 10.991-.4 7.8 4.75 12.862 12 12.862 10.733 0 16.672-9.78 10.027-20.388 4.671 10.6-.527 17.279-7.236 17.279-5.441 0-9.61-3.651-9.61-10.345-.004-9.66 7.237-10.33 11.352-8.06z" fill="url(#b)"/><path d="m22.7 10.415c-.293-.94-.645-2.788.634-3.86a3.729 3.729 0 0 0 -3.844 1.534 9.165 9.165 0 0 0 -7.49.011 3.729 3.729 0 0 0 -3.848-1.545c1.309 1.1.91 3.005.614 3.923a10.517 10.517 0 0 0 -2.666 7.046c0 2.174 1.4 4.645 1.675 7.955l1.768-1.532a11.743 11.743 0 0 0 6.212 1.433 11.741 11.741 0 0 0 6.212-1.433l1.769 1.532c.28-3.31 1.675-5.781 1.675-7.955a10.512 10.512 0 0 0 -2.711-7.109z" fill="url(#c)"/><path d="m10.722 27.867a1.621 1.621 0 1 1 3.24 0v.053a2.234 2.234 0 1 0 -3.228.126c-.009-.059-.012-.119-.012-.179z" fill="url(#d)"/><path d="m20.629 27.867a1.621 1.621 0 1 0 -3.24 0v.053a2.234 2.234 0 1 1 3.228.126 1.678 1.678 0 0 0 .012-.179z" fill="url(#e)"/><g fill="#231f20" opacity=".53"><path d="m8.346 18.4c-.132.667-.971.877-.971.877a1.359 1.359 0 0 1 -.566-1.177 2.929 2.929 0 0 0 .443 1.793 2.927 2.927 0 0 0 1.094-1.493z"/><path d="m10.008 18.737c-.132.667-.972.877-.972.877a1.36 1.36 0 0 1 -.566-1.182 2.929 2.929 0 0 0 .444 1.793 2.926 2.926 0 0 0 1.094-1.488z"/><path d="m8.833 20.249c-.132.667-.971.877-.971.877a1.359 1.359 0 0 1 -.562-1.182 2.929 2.929 0 0 0 .443 1.793 2.925 2.925 0 0 0 1.09-1.488z"/><path d="m10.5 20.583c-.132.667-.971.877-.971.877a1.36 1.36 0 0 1 -.566-1.182 2.929 2.929 0 0 0 .437 1.794 2.927 2.927 0 0 0 1.1-1.489z"/><path d="m9.328 22.121c-.132.667-.972.877-.972.877a1.36 1.36 0 0 1 -.565-1.182 2.929 2.929 0 0 0 .443 1.793 2.926 2.926 0 0 0 1.094-1.488z"/><path d="m11.664 19.07c-.132.667-.972.877-.972.877a1.359 1.359 0 0 1 -.565-1.182 2.93 2.93 0 0 0 .443 1.793 2.927 2.927 0 0 0 1.094-1.488z"/></g><g fill="#231f20" opacity=".53"><path d="m23.157 18.4c.132.667.971.877.971.877a1.359 1.359 0 0 0 .566-1.182 2.93 2.93 0 0 1 -.443 1.793 2.927 2.927 0 0 1 -1.094-1.488z"/><path d="m21.495 18.737c.132.667.972.877.972.877a1.36 1.36 0 0 0 .565-1.182 2.931 2.931 0 0 1 -.444 1.793 2.926 2.926 0 0 1 -1.093-1.488z"/><path d="m22.669 20.249c.132.667.971.877.971.877a1.36 1.36 0 0 0 .566-1.182 2.929 2.929 0 0 1 -.443 1.793 2.926 2.926 0 0 1 -1.094-1.488z"/><path d="m21.008 20.583c.132.667.971.877.971.877a1.359 1.359 0 0 0 .565-1.182 2.928 2.928 0 0 1 -.443 1.793 2.927 2.927 0 0 1 -1.093-1.488z"/><path d="m22.175 22.121c.132.667.972.877.972.877a1.36 1.36 0 0 0 .565-1.182 2.928 2.928 0 0 1 -.444 1.793 2.927 2.927 0 0 1 -1.093-1.488z"/><path d="m19.838 19.07c.132.667.972.877.972.877a1.359 1.359 0 0 0 .565-1.182 2.928 2.928 0 0 1 -.443 1.793 2.928 2.928 0 0 1 -1.094-1.488z"/></g><circle cx="11.339" cy="14.074" fill="#fff" r="3.816"/><circle cx="12.13" cy="14.446" fill="#bdbfc1" r="1.861"/><circle cx="12.13" cy="14.446" fill="#231f20" r="1.191"/><circle cx="11.603" cy="14.027" fill="#fff" r=".357"/><circle cx="20.112" cy="14.074" fill="#fff" r="3.816"/><circle cx="20.903" cy="14.446" fill="#bdbfc1" r="1.861"/><circle cx="20.903" cy="14.446" fill="#231f20" r="1.191"/><circle cx="20.375" cy="14.027" fill="#fff" r=".357"/><path d="m15.706 21.52c0-1.412 2.157-3.413 2.157-4.887a2.157 2.157 0 0 0 -4.313 0c0 1.474 2.156 3.475 2.156 4.887z" fill="url(#f)"/></svg>