<svg viewBox="0 0 32 32" xmlns="http://www.w3.org/2000/svg"><path d="m20 2.434a7.353 7.353 0 0 1 2.543-.434h6.448c-.012 2.389.026 4.777-.018 7.164a6.7 6.7 0 0 1 -6.226 6.177c-2.361.032-4.722 0-7.083.012 0-2.292-.012-4.585.006-6.877a6.689 6.689 0 0 1 4.33-6.042z" fill="#5ca645"/><path d="m15.664 16.67c2.361.01 4.722-.02 7.081.014a6.691 6.691 0 0 1 6.23 6.232c.038 2.359.006 4.72.016 7.079-2.412-.016-4.827.034-7.239-.024a6.658 6.658 0 0 1 -6.074-6.242c-.036-2.353-.006-4.706-.014-7.059z" fill="#5ca645"/><path d="m7.95 5.4a5.654 5.654 0 0 1 6.381 5.653q0 4.941 0 9.886a5.67 5.67 0 0 1 -8.92 4.706 5.579 5.579 0 0 1 -2.4-4.494q-.011-5.151.002-10.296a5.632 5.632 0 0 1 4.937-5.455zm.05 2.635a3.049 3.049 0 1 0 3.7 2.835 3.036 3.036 0 0 0 -3.7-2.835z" fill="#595a59"/></svg>