<svg xmlns="http://www.w3.org/2000/svg" viewBox="0 0 32 32"><title>file_type_lark</title><path fill="#d2d2d2" d="m12.15 21.59 2.25 2.46a22.9 22.9 0 0 0-4.78.53c.7-1.3 1.48-2.48 2.53-3zm4 2.54-2.63-2.88c.52-.07 1.1-.11 1.74-.19a5.68 5.68 0 0 1 3.77 2.7c-.88.19-1.82.37-2.88.37zM12.41 3.95c2.62.41 3.54 1.58 3.33 3.47-4.58 2.41-7.33 8.56-7.96 11.44-.52 2.33-.57 4.24-1.85 6.23-1.95.05-2.3-.15-3.26.57l-.24 1.18c.83-.74 1.07-.39 2.57-.55-.25.28-.52.56-.84.85-1.08 1.3 1.18 3.96 2.53 2.36.86-.64 1.54-2.08 2.26-3.57 1.33-.1 3.03-.2 4.72-.26.16.5.41.97.84 1.37.16-.47.5-.95.93-1.44 1.3-.04 2.5-.07 3.43-.07 0 0 .92-1.64 4.5-1.64 3.59 0 3.66 1.13 3.86.37.28-1.15 2.46-1.2 2.33-1.56-.37-1.02-1.7-.29-2.78.41h-1.93c-.32-1.34-2.67.15-4.28.35-.86-.95-1.65-1.96-2.94-2.85 2.7-.78 9.08-5.72 6.28-12.3-.85-1.97-2-4.72-3.16-5.53C18.05.9 15.18 3 15.18 3h-1.81c-.49.07-.6.14-.96.95z"/></svg>