<svg viewBox="0 0 32 32" xmlns="http://www.w3.org/2000/svg"><g fill="#cfcfcf"><path d="m2 16v14h13v-6h-7v-16h7v-6h-13z"/><path d="m17 5v3h4v-2h5v5h-2v4h6v-13h-13z"/><path d="m10 16v6h12v-12h-12z"/><path d="m24 20.5v3.5h-7v6h13v-13h-6z"/></g><path d="m26.078 26.787.675-.67c3.123.1 3.17-.008 3.308-.329l.858-2.089.064-.2-.071-.173c-.036-.092-.149-.365-2.1-2.224v-.978c2.25-2.167 2.2-2.278 2.071-2.595l-.855-2.111c-.128-.316-.177-.44-3.277-.355l-.675-.7a15.169 15.169 0 0 0 -.106-3.079l-.088-.2-2.23-.976c-.329-.149-.444-.2-2.55 2.089l-.947-.013c-2.162-2.315-2.266-2.276-2.59-2.142l-2.071.838c-.324.131-.439.179-.314 3.328l-.669.667c-3.121-.1-3.169.009-3.3.329l-.866 2.096-.068.2.071.174c.036.09.144.36 2.1 2.221v.976c-2.25 2.167-2.2 2.278-2.071 2.6l.854 2.113c.13.323.177.438 3.276.357l.675.7a15.2 15.2 0 0 0 .1 3.075l.088.2 2.244.981c.327.137.439.185 2.539-2.1l.946.011c2.171 2.317 2.283 2.272 2.6 2.145l2.071-.837c.33-.132.439-.184.308-3.329zm-8.898-4.887a3.718 3.718 0 1 1 4.866 2.118 3.76 3.76 0 0 1 -4.866-2.119z" fill="#40535b"/></svg>