<svg xmlns="http://www.w3.org/2000/svg" viewBox="0 0 32 32"><path fill="#dedede" d="M28.117 9.332v-.566l-.506-.283-.038-.02L16.481 2.27 15.999 2l-.48.27L4.423 8.463l-.037.02-.506.283v.565l-.038.022.038.02V23.36l.514.28 10.805 5.92.136.075L16 30l.663-.364.136-.075 10.805-5.92.512-.28V9.376l.04-.022zm-11.61 19.264v-9.987a.496.496 0 0 0-.495-.495H16a.496.496 0 0 0-.495.495v9.987L5.335 23.03l-.465-.255V9.835l8.097 4.436a.49.49 0 0 0 .66-.191l.006-.01a.49.49 0 0 0-.193-.665l-7.993-4.38 10.06-5.618.493-.275.495.277 10.057 5.617-7.999 4.382a.48.48 0 0 0-.178.657l.007.012a.477.477 0 0 0 .646.197l8.102-4.44v12.942l-.464.254z"/><path fill="#1904da" d="m13.033 16.671-8.164 5.48v.623l.465.255 8.25-5.536a.467.467 0 0 0 .127-.641l-.018-.028a.47.47 0 0 0-.66-.153"/><path fill="#ffc900" d="m18.423 17.497 8.242 5.531.464-.254v-.625l-8.156-5.473a.47.47 0 0 0-.66.152l-.017.026a.467.467 0 0 0 .127.643"/><path fill="#08b1d5" d="m16 3.13-.494.276v8.803c0 .266.22.47.486.469h.018a.475.475 0 0 0 .484-.471V9.084l.877.492a.494.494 0 1 0 .483-.861l-1.36-.762V6.77l3.772 2.115a.494.494 0 1 0 .484-.862L16.494 5.64V4.533l7.168 4.018a.494.494 0 1 0 .483-.864l-7.748-4.341-.038-.014zm5.99 5.628a.494.494 0 0 0-.299.928.495.495 0 0 0 .485-.864.5.5 0 0 0-.186-.064m-2.976.754a.494.494 0 0 0-.3.926l.839.47a.494.494 0 1 0 .482-.863l-.836-.469a.5.5 0 0 0-.185-.064"/><circle cx="16" cy="15.396" r="1.434" fill="#ff0036"/></svg>