<svg xmlns="http://www.w3.org/2000/svg" viewBox="0 0 32 32"><title>file_type_funding2.svg</title><path d="M9.446,6.39a5.045,5.045,0,0,0-4.8,5.242c0,3.754,2.762,7.24,5.88,9.93A35.831,35.831,0,0,0,16,25.42a35.75,35.75,0,0,0,5.479-3.858c3.118-2.69,5.878-6.176,5.878-9.93a5.043,5.043,0,0,0-4.8-5.242,5.651,5.651,0,0,0-5.293,4.292,1.311,1.311,0,0,1-2.521,0A5.651,5.651,0,0,0,9.446,6.39ZM16,26.921l-.6,1.162,0,0-.012,0-.035-.018a38.406,38.406,0,0,1-6.541-4.513c-3.214-2.772-6.785-6.932-6.785-11.913A7.658,7.658,0,0,1,9.446,3.771,7.982,7.982,0,0,1,16,7.3a7.988,7.988,0,0,1,6.555-3.528,7.658,7.658,0,0,1,7.423,7.861c0,4.981-3.573,9.141-6.787,11.913a38.685,38.685,0,0,1-6.541,4.513l-.033.018-.012,0h0Zm0,0,.6,1.162a1.3,1.3,0,0,1-1.2,0Z" style="fill:#db61a2"/></svg>