<?xml version="1.0" encoding="utf-8"?>
<!-- Generator: Adobe Illustrator 18.0.0, SVG Export Plug-In . SVG Version: 6.00 Build 0)  -->
<!DOCTYPE svg PUBLIC "-//W3C//DTD SVG 1.1//EN" "http://www.w3.org/Graphics/SVG/1.1/DTD/svg11.dtd">
<svg version="1.1" id="Layer_1" xmlns="http://www.w3.org/2000/svg" xmlns:xlink="http://www.w3.org/1999/xlink" x="0px" y="0px"
	 viewBox="0 0 960 560" enable-background="new 0 0 960 560" xml:space="preserve">
<circle fill="#FFFFFF" cx="480" cy="280" r="208.9"/>
<g fill="#4356E6">
	<path d="M316.6,303.1l0.2-0.2l0.2-0.2c4.7-4.5,9.4-9,14-13.5c3.2-3,6.3-6.1,9.4-9.1c-3.1-3-6.3-6-9.4-9.1c-4.6-4.5-9.3-9-14-13.5
		l-0.2-0.2l-0.2-0.2c-4.5-4.7-9-9.4-13.5-14c-7.8-8.1-15.5-16.1-23-24c-5.9,19.3-9.1,39.8-9.1,61.1c0,21.2,3.2,41.7,9.1,61.1
		c7.5-7.9,15.2-15.9,23-24C307.6,312.4,312.1,307.8,316.6,303.1z"/>
	<path d="M679.9,218.9c-7.5,7.9-15.2,15.9-23,24c-4.5,4.6-9,9.3-13.5,14l-0.2,0.2l-0.2,0.2c-4.7,4.5-9.4,9-14,13.5
		c-3.2,3-6.3,6.1-9.4,9.1c3.1,3,6.3,6,9.4,9.1c4.6,4.5,9.3,9,14,13.5l0.2,0.2l0.2,0.2c4.5,4.7,9,9.4,13.5,14
		c7.8,8.1,15.5,16.1,23,24c5.9-19.3,9.1-39.8,9.1-61.1C689,258.8,685.8,238.3,679.9,218.9z"/>
	<path d="M607.9,291.1c-43.7,41.5-85.3,76.4-125.4,76.4c-0.8,0-1.7,0-2.5,0s-1.7,0-2.5,0c-40.1,0-81.7-34.9-125.4-76.4
		c-7.9,7.6-15.9,15.4-23.9,23.1c-14.2,14.8-28.7,29.5-42.1,43.9C317,434.8,392.2,489,480,489s163-54.2,193.9-130.9
		c-13.4-14.4-27.8-29.1-42.1-43.9C623.8,306.4,615.9,298.7,607.9,291.1z"/>
	<path d="M352.1,268.9c43.7-41.5,85.3-76.4,125.4-76.4c0.8,0,1.7,0,2.5,0s1.7,0,2.5,0c40.1,0,81.7,34.9,125.4,76.4
		c7.9-7.6,15.9-15.4,23.9-23.1c14.2-14.8,28.7-29.5,42.1-43.9C643,125.2,567.8,71,480,71s-163,54.2-193.9,130.9
		c13.4,14.4,27.8,29.1,42.1,43.9C336.2,253.6,344.1,261.3,352.1,268.9z"/>
	<path d="M451.6,254.4c-5,2.9-8,8.1-8,13.9v23.5c0,5.7,3,11,8,13.9l20.4,11.8c5,2.9,11,2.9,16,0l20.4-11.8c5-2.9,8-8.1,8-13.9v-23.5
		c0-5.7-3-11-8-13.9L488,242.6c-5-2.9-11-2.9-16,0L451.6,254.4z"/>
	<path d="M363.6,280c41.9,39.8,81.7,73.1,116.4,71.4c34.7,1.7,74.4-31.6,116.4-71.4c-41.9-39.8-81.7-73.1-116.4-71.4
		C445.3,206.9,405.6,240.2,363.6,280z M488,224.1l36.4,21c5,2.9,8,8.1,8,13.9v42c0,5.7-3,11-8,13.9l-36.4,21c-5,2.9-11,2.9-16,0
		l-36.4-21c-5-2.9-8-8.1-8-13.9v-42c0-5.7,3-11,8-13.9l36.4-21C476.9,221.3,483,221.3,488,224.1z"/>
</g>
</svg>
