<svg viewBox="0 0 32 32" xmlns="http://www.w3.org/2000/svg"><g fill="#4a69a5"><path d="m9.929 3.809h-2.029v5.748l2.478 2.478h-2.978l-3.244-3.246v-4.98h-2.156v5.9l4.411 4.411h5.947l2.131 2.131h-5.7l4.811 4.949-7.041 6.991h2.776l7.037-7.091-2.672-2.672h14.219v.892l-6.145 3.667-5.154 5.2h2.924l3.518-3.568 6.938-4.159v-4.212h-6.542l-2.23-2.23 2.527-2.527v-5.65h-2.106v4.708l-2.056 2.032-1.834-1.92v-4.82h-1.982v5.749l4.635 4.658h-2.828l-7.655-7.583z"/><path d="m20.683 19.717h-2.775l1.338 1.437z"/></g></svg>