<svg xmlns="http://www.w3.org/2000/svg" xml:space="preserve" viewBox="0 0 32 32"><defs><linearGradient id="a" x1="-.102" x2="0" y1="-5.691" y2="-100.83" gradientTransform="matrix(1 0 0 .137 1.07 29.95)" gradientUnits="userSpaceOnUse" spreadMethod="reflect"><stop offset="0" stop-color="#0f0"/><stop offset=".13" stop-color="#0f0" stop-opacity=".65"/><stop offset=".82" stop-color="#0f0" stop-opacity="0"/></linearGradient><linearGradient id="b" x1="12.01" x2="101.35" gradientTransform="matrix(.147 0 0 1 1.07 29.95)" gradientUnits="userSpaceOnUse" spreadMethod="reflect"><stop offset="0" stop-color="red"/><stop offset=".26" stop-color="red" stop-opacity=".55"/><stop offset=".82" stop-color="red" stop-opacity="0"/></linearGradient></defs><path fill="#191e99" d="M27.07 7.95c-1.9 6.7-5.9 17.8-11 17.7-4.5 0-8.2-8.1-11-17.7-6.5 8-.3 21.8 11 21.7 12.3-.2 16.8-13.8 11-21.7m-11-5.6c-5.3 0-8 2.6-9.4 3.7 1.1 3.1 4.7 12.6 9.4 12.7 4.7-.1 8.3-9.6 9.4-12.7-1.4-1.1-4.1-3.7-9.4-3.7"/><path fill="url(#a)" d="M27.07 7.95c-1.9 6.7-5.9 17.8-11 17.7-4.5 0-8.2-8.1-11-17.7-6.5 8-.3 21.8 11 21.7 12.3-.2 16.8-13.8 11-21.7m-11-5.6c-5.3 0-8 2.6-9.4 3.7 1.1 3.1 4.7 12.6 9.4 12.7 4.7-.1 8.3-9.6 9.4-12.7-1.4-1.1-4.1-3.7-9.4-3.7" style="mix-blend-mode:screen"/><path fill="url(#b)" d="M27.07 7.95c-1.9 6.7-6 17.7-11 17.7-4.5 0-8.2-8.1-11-17.7-6.5 8-.3 21.8 11 21.7 12.3-.2 16.8-13.8 11-21.7m-11-5.6c-5.3 0-8 2.6-9.4 3.7 1.1 3.1 4.7 12.6 9.4 12.7 4.7-.1 8.3-9.6 9.4-12.7-1.4-1.1-4.1-3.7-9.4-3.7" style="mix-blend-mode:screen"/><path d="M6.81 6.45c2.26-2.25 5.62-3.7 9.19-3.7 3.62 0 6.92 1.48 9.3 3.8l.27-.77C23.17 3.47 19.7 2 16 2S9.01 3.41 6.53 5.69zm20.11 2.03c1.48 2.14 2.34 4.72 2.34 7.52 0 7.32-5.93 13.25-13.25 13.25S2.76 23.32 2.76 16c0-2.87.89-5.49 2.44-7.66l-.27-.91C3.03 9.89 2 12.84 2 16c0 7.73 6.27 14 14 14s14-6.27 14-14c0-3.17-1.05-6.09-2.83-8.44z"/></svg>