<svg viewBox="0 0 32 32" xmlns="http://www.w3.org/2000/svg"><path d="m13.046 15.584a2.107 2.107 0 0 0 -1.231-.3 2.176 2.176 0 0 0 -1.751.859 3.588 3.588 0 0 0 -.7 2.337v4.52h-2.364v-9.457h2.361v1.949h.039a3.265 3.265 0 0 1 1.064-1.556 2.542 2.542 0 0 1 1.6-.559 2.163 2.163 0 0 1 .977.176z" fill="#d8a303"/><path d="m25 23h-2.361v-5.172q0-2.806-2.067-2.807a2.237 2.237 0 0 0 -1.75.813 3.03 3.03 0 0 0 -.713 2.078v5.088h-2.372v-14h2.372v6.113h.041a3.809 3.809 0 0 1 3.379-1.791q3.471 0 3.471 3.851z"/></svg>