<svg viewBox="0 0 32 32" xmlns="http://www.w3.org/2000/svg">
<title>file_type_blitzbasic</title>
<rect x="3" y="9" width="1" height="1" fill="#001f1f" fill-opacity=".062745"/>
<path d="m4 9v1 1 1h1v1 1 1 1 1 1 1h-1v1 1 1h1 1 1 1 1 1 1 1 1 1v-1h1v-1h1v-1-1-1-1h-1v-1h1v-1-1-1-1h-1v-1h-1v-1h-1-1-1-1-1-1-1-1-1-1zm6 3h1 1v1 1h-1-1v-1-1zm0 5h1 1v1 1h-1-1v-1-1z" fill="#00ffae"/>
<path d="m14 9v1h1 1v-1h-1-1z" fill="#001f1f" fill-opacity=".062745"/>
<path d="m16 9v1 1 1h1v1 1 1 1 1 1 1h-1v1 1 1h1 1 1 1 1 1 1 1 1 1v-1h1v-1h1v-1-1-1-1h-1v-1h1v-1-1-1-1h-1v-1h-1v-1h-1-1-1-1-1-1-1-1-1-1zm5 3h1 1v1 1h-1-1v-1-1zm0 5h1 1v1 1h-1-1v-1-1z" fill="#00d8ff"/>
<rect x="26" y="9" width="1" height="1" fill="#001f1f" fill-opacity=".062745"/>
<rect x="3" y="10" width="1" height="1" fill="#000606" fill-opacity=".15686"/>
<rect x="15" y="10" width="1" height="1" fill="#000707" fill-opacity=".25098"/>
<rect x="27" y="10" width="1" height="1" fill="#001f1f" fill-opacity=".062745"/>
<rect x="3" y="11" width="1" height="1" fill="#000707" fill-opacity=".25098"/>
<rect x="28" y="11" width="1" height="1" fill="#001f1f" fill-opacity=".062745"/>
<rect x="3" y="12" width="1" height="1" fill="#000606" fill-opacity=".15686"/>
<rect x="4" y="12" width="1" height="1" fill-opacity=".47059"/>
<path d="m10 12v1h1 1v-1h-1-1zm0 5v1h1 1v-1h-1-1z" fill="#030000" fill-opacity=".60392"/>
<rect x="16" y="12" width="1" height="1" fill="#030000" fill-opacity=".60392"/>
<path d="m21 12v1h1 1v-1h-1-1z" fill="#030000" fill-opacity=".60392"/>
<rect x="28" y="12" width="1" height="1" fill="#000606" fill-opacity=".15686"/>
<rect x="3" y="13" width="1" height="1" fill="#001f1f" fill-opacity=".062745"/>
<rect x="4" y="13" width="1" height="1" fill="#000505" fill-opacity=".3451"/>
<path d="m10 13v1h1 1v-1h-1-1z" fill="#000505" fill-opacity=".3451"/>
<rect x="16" y="13" width="1" height="1" fill-opacity=".47059"/>
<path d="m21 13v1h1 1v-1h-1-1z" fill="#000505" fill-opacity=".3451"/>
<path d="m28 13v1 1h1v-1-1h-1zm0 5v1 1h1v-1-1h-1z" fill="#000707" fill-opacity=".25098"/>
<path d="m4 14v1 1 1 1 1h1v-1-1-1-1-1h-1z" fill="#000707" fill-opacity=".25098"/>
<rect x="16" y="14" width="1" height="1" fill="#040000" fill-opacity=".41569"/>
<rect x="15" y="15" width="1" height="1" fill-opacity=".47059"/>
<path d="m16 15v1 1 1h1v-1-1-1h-1z" fill="#000505" fill-opacity=".3451"/>
<rect x="27" y="15" width="1" height="1" fill-opacity=".47059"/>
<path d="m28 15v1 1 1h1v-1-1-1h-1z" fill="#000606" fill-opacity=".15686"/>
<path d="m21 17v1h1 1v-1h-1-1z" fill="#030000" fill-opacity=".60392"/>
<path d="m10 18v1h1 1v-1h-1-1z" fill="#000505" fill-opacity=".3451"/>
<rect x="16" y="18" width="1" height="1" fill="#040000" fill-opacity=".41569"/>
<path d="m21 18v1h1 1v-1h-1-1z" fill="#000505" fill-opacity=".3451"/>
<rect x="3" y="19" width="1" height="1" fill="#001f1f" fill-opacity=".062745"/>
<rect x="3" y="20" width="1" height="1" fill="#000606" fill-opacity=".15686"/>
<rect x="15" y="20" width="1" height="1" fill="#030000" fill-opacity=".60392"/>
<rect x="27" y="20" width="1" height="1" fill-opacity=".47059"/>
<rect x="28" y="20" width="1" height="1" fill="#000606" fill-opacity=".15686"/>
<rect x="3" y="21" width="1" height="1" fill="#000707" fill-opacity=".25098"/>
<rect x="14" y="21" width="1" height="1" fill="#030000" fill-opacity=".5098"/>
<rect x="15" y="21" width="1" height="1" fill="#040000" fill-opacity=".41569"/>
<rect x="26" y="21" width="1" height="1" fill="#030000" fill-opacity=".5098"/>
<rect x="27" y="21" width="1" height="1" fill="#000707" fill-opacity=".25098"/>
<rect x="28" y="21" width="1" height="1" fill="#001f1f" fill-opacity=".062745"/>
<rect x="3" y="22" width="1" height="1" fill="#000606" fill-opacity=".15686"/>
<rect x="4" y="22" width="1" height="1" fill="#040000" fill-opacity=".41569"/>
<path d="m5 22v1h1 1 1 1 1 1 1 1v-1h-1-1-1-1-1-1-1-1z" fill-opacity=".56078"/>
<rect x="13" y="22" width="1" height="1" fill-opacity=".47059"/>
<path d="m14 22v1h1 1v-1h-1-1z" fill="#000707" fill-opacity=".25098"/>
<rect x="16" y="22" width="1" height="1" fill="#040000" fill-opacity=".41569"/>
<path d="m17 22v1h1 1 1 1 1 1 1v-1h-1-1-1-1-1-1-1z" fill-opacity=".56078"/>
<path d="m24 22v1h1 1v-1h-1-1z" fill-opacity=".47059"/>
<rect x="26" y="22" width="1" height="1" fill="#000707" fill-opacity=".25098"/>
<rect x="27" y="22" width="1" height="1" fill="#001f1f" fill-opacity=".062745"/>
<rect x="3" y="23" width="1" height="1" fill="#001f1f" fill-opacity=".062745"/>
<rect x="4" y="23" width="1" height="1" fill="#000606" fill-opacity=".15686"/>
<path d="m5 23v1h1 1 1 1 1 1 1 1v-1h-1-1-1-1-1-1-1-1z" fill="#000707" fill-opacity=".25098"/>
<rect x="13" y="23" width="1" height="1" fill="#000606" fill-opacity=".15686"/>
<path d="m14 23v1h1 1v-1h-1-1z" fill="#001f1f" fill-opacity=".062745"/>
<rect x="16" y="23" width="1" height="1" fill="#000606" fill-opacity=".15686"/>
<path d="m17 23v1h1 1 1 1 1 1 1v-1h-1-1-1-1-1-1-1z" fill="#000707" fill-opacity=".25098"/>
<rect x="24" y="23" width="1" height="1" fill="#000606" fill-opacity=".15686"/>
<rect x="25" y="23" width="1" height="1" fill="#000606" fill-opacity=".15686"/>
<rect x="26" y="23" width="1" height="1" fill="#001f1f" fill-opacity=".062745"/>
</svg>