<svg width="100" height="100" viewBox="0 0 100 100" fill="none" xmlns="http://www.w3.org/2000/svg">
<path d="M54.1732 59.4844C54.1732 56.2245 56.4745 52.2605 59.3133 50.6306L83.5318 36.725C86.3706 35.095 88.6719 36.4164 88.6719 39.6763V67.9487C88.6719 71.2086 86.3706 75.1726 83.5318 76.8025L59.3133 90.7081C56.4745 92.3381 54.1732 91.0167 54.1732 87.7568V59.4844Z" fill="url(#paint0_linear_708_57)"/>
<path d="M11.3281 39.6763C11.3281 36.4164 13.6294 35.095 16.4682 36.725L40.6867 50.6306C43.5255 52.2605 45.8268 56.2245 45.8268 59.4844V87.7568C45.8268 91.0167 43.5255 92.3381 40.6867 90.7081L16.4682 76.8025C13.6294 75.1726 11.3281 71.2086 11.3281 67.9487L11.3281 39.6763Z" fill="url(#paint1_linear_708_57)"/>
<path d="M20.1777 29.2337C17.3389 27.6038 17.3389 24.9611 20.1777 23.3312L44.3962 9.42559C47.235 7.79564 51.8376 7.79564 54.6764 9.42559L79.2965 23.5618C82.1353 25.1917 82.1353 27.8344 79.2965 29.4644L55.078 43.3699C52.2393 44.9999 47.6367 44.9999 44.7979 43.3699L20.1777 29.2337Z" fill="url(#paint2_linear_708_57)"/>
<defs>
<linearGradient id="paint0_linear_708_57" x1="11.3281" y1="8.20312" x2="90.3011" y2="10.7605" gradientUnits="userSpaceOnUse">
<stop stop-color="#87FCC4"/>
<stop offset="1" stop-color="#28C1F5"/>
</linearGradient>
<linearGradient id="paint1_linear_708_57" x1="11.3281" y1="8.20312" x2="90.3011" y2="10.7605" gradientUnits="userSpaceOnUse">
<stop stop-color="#87FCC4"/>
<stop offset="1" stop-color="#28C1F5"/>
</linearGradient>
<linearGradient id="paint2_linear_708_57" x1="11.3281" y1="8.20312" x2="90.3011" y2="10.7605" gradientUnits="userSpaceOnUse">
<stop stop-color="#87FCC4"/>
<stop offset="1" stop-color="#28C1F5"/>
</linearGradient>
</defs>
</svg>
