<svg xmlns="http://www.w3.org/2000/svg" viewBox="0 0 32 32"><title>file_type_bower2@2x</title><g id="bower2"><path d="M29.46,15.72c-1.44-1.38-8.64-2.25-10.91-2.5a6.67,6.67,0,0,0,.28-.81,9.09,9.09,0,0,1,1-.37c0,.12.24.6.35.83,4.57.13,4.8-3.4,5-4.36A5.45,5.45,0,0,1,26.91,5C24.57,4.31,21.21,6,20.09,8.63a7,7,0,0,0-1.27-.35,6.14,6.14,0,0,0-6-4.59A11.15,11.15,0,0,0,2,15.23c0,6.1,4.16,11.44,6.52,11.44a2.32,2.32,0,0,0,2.12-1.46c.17.47.71,1.94.88,2.32.26.55,1.46,1,2,.46a1.93,1.93,0,0,0,2.59-.4,1.91,1.91,0,0,0,2.47-1.42c.64,0,.95-.93.81-1.64a17.5,17.5,0,0,0-1.63-3.06c.85.69,3,.88,3.25,0,1.36,1.07,3.49.51,3.66-.36,1.66.43,3.56-.52,3.25-1.66C30.55,19.27,30.21,16.43,29.46,15.72Z" style="fill:#ee4d26"/><path d="M20.66,16.16h0l-1.41-.1c.49.07,2.65.47,4.71.87.26.42-.91,1.38-1.93.9.48,1.08-1.62,2-2.64,1.2a.66.66,0,0,1-.33.61,1.83,1.83,0,0,1-.73.28,1.83,1.83,0,0,0,.73-.28.66.66,0,0,0,.33-.61c1,.77,3.12-.13,2.64-1.2,1,.48,2.19-.48,1.93-.9,1.74.34,3.41.67,3.94.81a2,2,0,0,1-2.34.69c.65.88-.61,1.94-2.36,1.35.38.86-1.17,1.64-2.94.74,0,.86-2.19,1-3.07,0h0l-.08-.17c-.11-.27-.25-.61-.35-.88l0-.06a1.57,1.57,0,0,0,1.58.49,1.57,1.57,0,0,1-1.58-.49h0l0,.06c.13.35.24.63.35.88l.18.45c.32.88-1.13,4.23-4.41,4.23A9.74,9.74,0,0,1,4,19.13c1.91.94,4.26.49,4.81-.1a7.8,7.8,0,0,0,2.38.4c2.42,0,4.61-1.7,5.82-4.25a4,4,0,0,0,.77-.84,58.72,58.72,0,0,1,8.71,1.4c-1.21.13-4.28.43-5.83.42h0ZM17.41,12.3a9.48,9.48,0,0,1,2.24-1c0-.11,0-.21,0-.32-.62.15-1.8.65-2.48,0,1.42.43,2.13-.38,3.18-.38a6.72,6.72,0,0,1,2.21.45,7.47,7.47,0,0,0-4.7-2.1A3.29,3.29,0,0,0,17.41,12.3Zm3.74-.78a4.63,4.63,0,0,1,0-.53,4.84,4.84,0,0,0-.84-.11,3.16,3.16,0,0,0,.29,1.22,4.38,4.38,0,0,0,2.28-.63A7.64,7.64,0,0,0,21.39,11C21.34,11.15,21.2,11.44,21.15,11.53Zm.9-1.85a10.18,10.18,0,0,1,2.2-3.15,5.71,5.71,0,0,0-2.58,2.9,9,9,0,0,0-.91-.51,5.88,5.88,0,0,1,4.8-3.31c-1.4,1.27-.9,3.91-2.05,5.3A15.07,15.07,0,0,0,22.05,9.68ZM10.38,10a2.44,2.44,0,1,0,2.44-2.44A2.44,2.44,0,0,0,10.38,10Z" style="fill:#fff"/><circle cx="12.82" cy="10.01" r="1.46" style="fill:#ee4d26"/><ellipse cx="12.82" cy="9.36" rx="0.85" ry="0.53" style="fill:#fff"/></g></svg>