<svg viewBox="0 0 32 32" xmlns="http://www.w3.org/2000/svg"><path d="m21.463 26.37h-1.838a.829.829 0 0 1 -.823-.725 2.381 2.381 0 0 0 -4.722 0 .829.829 0 0 1 -.823.725h-1.857a.831.831 0 0 1 -.836-.705 2.377 2.377 0 0 0 -4.719 0 .837.837 0 0 1 -.826.725h-1.9a.832.832 0 0 1 -.816-.676 14.3 14.3 0 0 1 .48-7.557 10.655 10.655 0 0 1 3.817-5.078l.389-.277a1.83 1.83 0 0 1 .911-2.332c6.237-2.972 10.45-.826 13.516.738 2.286 1.169 3.55 1.728 4.7.575a2.048 2.048 0 0 0 -2.674-3.083.836.836 0 0 1 -1.087-.075l-.542-.542a.837.837 0 0 1 .006-1.183l.013-.013a4.726 4.726 0 0 1 6.568.113 5.686 5.686 0 0 1 1.58 4.386c-.179 2.531-1.9 5.036-5.12 7.442-.748.562-2.5 2.339-2.567 6.741a.836.836 0 0 1 -.833.826zm-1.828-.813h1.819c.026-1.6.369-5.489 2.906-7.387 2.968-2.224 4.624-4.572 4.784-6.828a4.825 4.825 0 0 0 -1.339-3.733 3.883 3.883 0 0 0 -5.388-.1l.526.526a2.89 2.89 0 0 1 3.765 4.365c-1.633 1.633-3.507.683-5.676-.421a18.152 18.152 0 0 0 -5.313-1.986 12.346 12.346 0 0 0 -7.458 1.258.979.979 0 0 0 -.471 1.3q.018.037.039.075l.066.114 1.705 2.942a.98.98 0 0 0 1.33.388h.005l.043-.023.055-.026.689-.385a17.769 17.769 0 0 0 2.427-1.809.417.417 0 0 1 .59.022.421.421 0 0 1 -.042.584 18.01 18.01 0 0 1 -2.548 1.9l-.787.441-.058.026a1.836 1.836 0 0 1 -2.42-.706l-1.5-2.54-.326.219a9.789 9.789 0 0 0 -3.5 4.676 13.469 13.469 0 0 0 -.447 7.09h1.897a3.223 3.223 0 0 1 6.391 0h1.842a3.22 3.22 0 0 1 6.387 0zm1.423-10.45-1.306-.653a.826.826 0 1 1 1.306.653z" fill="#d2d2d2"/></svg>