<svg xmlns="http://www.w3.org/2000/svg" viewBox="0 0 32 32"><title>file_type_falcon</title><g stroke="none" stroke-width="1" fill="none" fill-rule="evenodd"><g transform="translate(1.000000, 3.000000)"><g><path d="M20.1459887,1.25553349 C18.8243658,2.10382531 16.909232,3.3632046 14.4005873,5.03367138 C10.6376204,7.53937155 8.55467608,9.01329647 8.15175448,9.45544613 C7.28906476,10.4021265 6.60043692,12.6982684 5.00750838,14.6716272 C3.94555602,15.9871997 2.80416434,17.1606817 1.58333333,18.1920732 C2.54777339,18.0461008 3.68916507,17.6073396 5.00750838,16.8757896 C6.12117261,16.2578162 7.35586678,15.2688537 8.5697217,13.8627592 C9.31893716,12.7437028 9.31874792,12.7110963 10.020274,11.8351916 C11.2785548,10.6449598 15.7126209,8.86452419 18.4088074,7.9893215 C21.1049939,7.1141188 21.7349733,7.64617437 24.4492239,7.15144441 C26.2587242,6.82162444 27.4623148,6.45258243 28.0599956,6.04431837 L30,0 L20.1459887,3.63325814 L20.1459887,1.25553349 Z" fill="#E24329" fill-rule="nonzero"></path><path d="M30,7.6554878 L26.2362317,14.2247237 L23.2174232,14.2247237 L14.9494732,12.5634382 L14.9494732,11.4879424 L18.7778653,9.14830672 L21.5823436,8.70375991 L30,7.6554878 Z M11.655495,14.2822659 L11.3343393,17.5882925 L9.58231412,18.1097561 L7.75,17.4936118 L11.655495,14.2822659 Z" fill="#FC6D26" fill-rule="nonzero"></path><path d="M1.57127126,18.8959587 C1.37290596,19.3287237 1.27372331,19.699965 1.27372331,20.0096827 C1.27372331,20.4742592 0,20.7602719 0,22.2847123 C1.56613004e-16,23.4381748 0.777282483,24.5895458 2.0116141,25.37717 C2.51957998,25.7013018 3.40055875,26.2422452 4.6545504,27 C4.36205949,26.2585713 4.25049658,25.6414101 4.31986165,25.1485164 C4.42390927,24.409176 4.44552038,24.2622228 5.16171842,23.6959694 C5.87791646,23.129716 12.4187534,21.997656 14.3725158,22.2847123 C15.6750241,22.4760831 16.8771496,23.1551052 17.9788923,24.3217786 L26.75,17.8152054 L24.4710687,15.7022916 L23.0269434,15.7022916 L20.9645864,14.7347561 L14.9116501,14.7347561 L12.3853457,20.0096827 C9.01019519,19.8542689 6.98644704,19.7346467 6.31410125,19.6508161 C5.64175546,19.5669855 4.06081213,19.3153664 1.57127126,18.8959587 Z" fill="#FCA326" fill-rule="nonzero"></path></g></g></g></svg>