<svg xmlns="http://www.w3.org/2000/svg" width="2902.68" height="2902.68" viewBox="0 0 2902.68 2902.68"><path fill="#00577B" d="M2343.386 1448.163l-422.96 422.973 422.96 422.992"/><path fill="#0079AA" d="M2300.536 1405.315h-845.958l423.003 422.98"/><path fill="#0096D3" d="M2300.524 1344.714l-422.94-422.983-423.006 422.984"/><path fill="#01B0F0" d="M1804.444 909.18H958.49l422.953 422.99M2343.386 455.912l-422.96 422.968 422.96 422.998"/><path fill="#27BCF3" d="M1804.448 848.584l-423.01-422.97-422.97 422.97"/><path fill="#4FC9F5" d="M1308.285 413.08h-845.93L885.33 836.03"/><path fill="#79201B" d="M559.276 1441.678l422.96-422.996-422.96-422.977"/><path fill="#A42D26" d="M1025.088 1061.536l-422.973 422.998h845.96"/><path fill="#CC382F" d="M602.113 1545.124l422.965 422.996 422.995-422.994"/><path fill="#F0453F" d="M559.276 1587.974V2433.9l422.954-422.934-123.89-123.89M1944.196 1980.673l-422.972-423-422.992 423"/><path fill="#F2625D" d="M1098.22 2041.27l422.992 422.926 422.97-422.927"/><path fill="#F47F7D" d="M1594.372 2476.745l845.945-.004-422.976-422.928"/><path fill="#464049" d="M2534.888 2485.614l-130.908-130.896V382.763c0-12.3-7.342-23.29-18.684-27.98-3.703-1.54-7.613-2.317-11.617-2.317-8.095 0-15.702 3.152-21.425 8.875l-474.67 474.688-474.722-474.68-6.268-6.13h-2.67c-3.888-1.79-8.124-2.732-12.48-2.732H390.252c-8.42-.282-16.458 2.865-22.455 8.844-5.733 5.72-8.89 13.333-8.89 21.44 0 8.103 3.154 15.71 8.872 21.425l130.907 130.907v1971.933c0 12.28 7.33 23.262 18.76 28.018 3.686 1.516 7.566 2.28 11.537 2.28 7.996 0 15.815-3.243 21.425-8.868l474.672-474.652 474.71 474.65 6.272 6.13h2.655c3.898 1.796 8.142 2.74 12.507 2.74h992.23c12.283 0 23.262-7.33 27.965-18.638 4.75-11.366 2.193-24.346-6.53-33.08zM2343.386 455.912v845.965l-422.96-422.997 422.96-422.968zm-1361.15 562.77L559.28 1441.676V595.703l422.956 422.98zm-23.745-109.5h845.955l-423 422.99L958.49 909.18zm66.598 152.354l422.986 423h-845.96l422.974-423zm496.136 496.137l422.975 423.002h-845.967l422.99-423.002zm-66.646-152.358h845.962l-422.96 422.98-423.002-422.98zm465.85 465.82l422.958-422.972v845.965l-422.96-422.992zm380.096-526.42h-845.946l423.007-422.984 422.94 422.984zm-496.076-496.13h-845.98l422.97-422.972 423.01 422.97zM462.354 413.08h845.933L885.33 836.03 462.354 413.08zm96.922 2020.82v-845.927l299.063 299.104 123.886 123.89-422.95 422.932zm42.837-888.776l845.962.002-422.997 422.994-422.965-422.996zm919.1 919.072L1098.22 2041.27l845.96-.008-422.968 422.934zm73.16 12.55l422.968-422.937 422.978 422.93-845.946.005z"/></svg>