<svg viewBox="0 0 32 32" xmlns="http://www.w3.org/2000/svg"><g fill="#33c"><path d="m19.451 6.218h2.638v2.638h2.637v-2.638h2.637v2.638h2.637v2.644h-2.636v2.636h2.636v2.634h-2.636v2.637h-2.637v-2.638h-2.636v2.637h-2.638v-2.638h-2.638v-2.641h2.638v-2.627h-2.638v-2.647h2.639zm2.638 7.914h2.637v-2.632h-2.637z"/><path d="m14.018 21.524a11.436 11.436 0 0 0 1.572-6.192 10.877 10.877 0 0 0 -1.858-6.6 5.889 5.889 0 0 0 -4.924-2.579 5.921 5.921 0 0 0 -4.94 2.581 10.842 10.842 0 0 0 -1.868 6.599 10.853 10.853 0 0 0 1.868 6.592 5.918 5.918 0 0 0 4.941 2.588 5.743 5.743 0 0 0 3.26-.987l2.306 2.321 1.577-2.4zm-5.17-1.218 1.117 1.121a3.229 3.229 0 0 1 -1.174.217 3.335 3.335 0 0 1 -2.837-1.593 8.125 8.125 0 0 1 -1.18-4.719 8.1 8.1 0 0 1 1.184-4.724 3.372 3.372 0 0 1 2.87-1.588 3.31 3.31 0 0 1 2.819 1.585 8.178 8.178 0 0 1 1.172 4.726 9.113 9.113 0 0 1 -.833 4.15l-1.56-1.571z"/></g></svg>