<svg xmlns="http://www.w3.org/2000/svg" viewBox="0 0 32 32"><title>file_type_ng_smart_component_ts</title><path d="M2.36,6.666,15.485,2V30L4.4,23.874Z" style="fill:#93000e"/><path d="M15.485,2,28.9,6.593,26.714,23.8,15.485,30Z" style="fill:#4a0007"/><path d="M15.485,5.134l8.531,18.229H21.1l-1.823-4.156H15.485V16.728h2.771L15.485,11,13.152,16.73h2.333v2.479H12.014l-1.633,4.155H7.246Z" style="fill:#fff"/><path d="M27.039,19.647a2.814,2.814,0,0,1,1.414.815,3.723,3.723,0,0,1,.542.725c.007.029-.976.689-1.572,1.059-.022.014-.108-.079-.2-.222a1.281,1.281,0,0,0-1.062-.639c-.685-.047-1.127.312-1.123.912a.829.829,0,0,0,.1.423c.151.312.431.5,1.31.879,1.618.7,2.311,1.156,2.742,1.809a3.281,3.281,0,0,1,.262,2.756,3.031,3.031,0,0,1-2.5,1.791,6.931,6.931,0,0,1-1.723-.018,4.154,4.154,0,0,1-2.3-1.2,3.994,3.994,0,0,1-.589-.872,1.689,1.689,0,0,1,.208-.133c.1-.057.481-.276.84-.484l.65-.377.136.2a3.035,3.035,0,0,0,.858.822,2.1,2.1,0,0,0,2.2-.111.983.983,0,0,0,.126-1.252c-.176-.251-.535-.463-1.554-.9a5.6,5.6,0,0,1-2.128-1.31,2.981,2.981,0,0,1-.621-1.13,4.527,4.527,0,0,1-.039-1.443A2.756,2.756,0,0,1,25.324,19.6,5.727,5.727,0,0,1,27.039,19.647Z" style="fill:#007acc"/><path d="M21.731,20.591l.007.926H18.8v8.362H16.714V21.517H13.772v-.908a8.9,8.9,0,0,1,.025-.933c.011-.014,1.8-.022,3.973-.018l3.951.011Z" style="fill:#007acc"/></svg>