<svg version="1.1" viewBox="0 0 32 32" xmlns="http://www.w3.org/2000/svg"><ellipse cx="16.02" cy="19.92" rx="10.03" ry="9.486" fill="#d1dae1"/><ellipse cx="16.02" cy="19.95" rx="9.921" ry="9.667" fill="none" stroke="#505242" stroke-width=".6857"/><g><path d="m20.57 5.762 0.3585 0.06402 0.3372 0.1067 0.1835 0.1067 0.1579 0.1451 0.175 0.2732 0.1067 0.2646 0.03415 0.2049 0.02134 0.1323-0.01708 0.2049-0.0128 0.1366-0.05549 0.1579-0.06829 0.175-0.08537 0.1537-0.2076 0.264-0.1947 0.1893-0.1893 0.119-0.2305 0.1009-0.3706 0.1107-0.3125 0.03516-8.487-0.01386-0.5507-0.109-0.4146-0.2032-0.266-0.2247-0.1484-0.1914-0.1719-0.3789-0.07444-0.4316 0.02857-0.2743 0.05143-0.1714 0.1029-0.2057 0.05714-0.12 0.1743-0.2227 0.1406-0.1211 0.1328-0.09766 0.1523-0.08203 0.1641-0.04297 0.3711-0.01172-0.04352-0.2436-0.08202-0.5085-0.2862-1.608-0.0089-0.1909 0.01778-0.1287 0.07991-0.1376 0.09322-0.1376 0.1909-0.1598 0.2654-0.1355 0.3828-0.1445 0.3281-0.07812 1.477-0.2266 0.7812-0.08203 0.9375-0.02734 0.8672 0.01562 0.9258 0.03125 0.8203 0.08594 0.6445 0.09375 1.422 0.2734 0.25 0.1055 0.3242 0.3047 0.0625 0.1562 0.03125 0.1172 0.01172 0.125-1e-6 0.2109-0.3247 2.044z" fill="#505242"/><rect x="11.72" y="8.5" width="8.57" height="2.931" rx="4.478e-16" fill="#525341"/><rect x="12.1" y="8.686" width="7.804" height="3.003" fill="#d1dae1"/><path d="m24.15 17.6a8.389 8.256 0 0 1-3.237 8.989 8.389 8.256 0 0 1-9.69-0.01209 8.389 8.256 0 0 1-3.214-8.997" fill="#2c541c"/><path d="m22.9 18.83a7 6.279 0 0 1-2.701 6.836 7 6.279 0 0 1-8.086-0.0092 7 6.279 0 0 1-2.682-6.842" fill="#447f24"/></g><path d="m12.26 4.8c0.1476 0.01965 0.2891 0.04782 0.4332 0.07806 2.045 0.4076 4.734 0.4367 6.765-0.02256 0.08931-0.01877 0.1786-0.03713 0.268-0.05551-0.05774 0.3293-0.1287 0.6566-0.2125 0.9829-0.0098 0.0384-0.01941 0.07682-0.02887 0.1153-0.01342 0.05465-0.02771 0.1092-0.042 0.1637-0.0081 0.0316-0.01622 0.06321-0.02452 0.09578-0.04132 0.09623-0.09472 0.1514-0.1898 0.2242-0.2719 0.09789-0.6009 0.129-0.8974 0.17-0.03119 0.0044-0.06228 0.00881-0.09433 0.01333-0.7007 0.09095-1.41 0.1038-2.119 0.1011-0.04103-7.72e-5 -0.08197-1.545e-4 -0.1242-2.317e-4 -0.609-0.00133-1.214-0.00856-1.819-0.06221-0.03294-0.00283-0.06589-0.00565-0.09983-0.00856-0.3348-0.02998-0.6614-0.0755-0.9867-0.1406-0.03999-0.00769-0.03999-0.00769-0.08078-0.01554-0.183-0.03951-0.2832-0.08892-0.4026-0.1961-0.04289-0.08451-0.06363-0.1702-0.08436-0.2588-0.0065-0.02502-0.01287-0.05003-0.0195-0.07581-0.02033-0.07977-0.0396-0.1596-0.05887-0.2396-0.0135-0.05318-0.02706-0.1064-0.04069-0.1595-0.05963-0.2362-0.1124-0.4701-0.1412-0.7095z" fill="#d49a49" stroke-width=".9655"/><path d="m20.92 6.318a5.125 1.329 0 0 1-1.978 1.447 5.125 1.329 0 0 1-5.92-0.00195 5.125 1.329 0 0 1-1.964-1.448" fill="none" stroke="#d1dae1" stroke-width=".985"/><ellipse cx="17.87" cy="25.34" rx=".9339" ry=".9388" fill="#78a630"/><ellipse cx="20.66" cy="21.14" rx=".9289" ry="1.405" fill="#a5c639"/><link/><g fill="#29501b"><ellipse cx="14.13" cy="11.33" rx=".9412" ry=".937"/><ellipse cx="15.53" cy="16.47" rx=".4644" ry=".4677"/><ellipse cx="12.73" cy="14.6" rx="1.396" ry="1.399"/></g><g><ellipse cx="14.13" cy="24.4" rx=".9348" ry=".9335" fill="#a5c639"/><ellipse cx="11.33" cy="21.6" rx=".9347" ry=".9316" fill="#85af32"/><ellipse cx="16.01" cy="3.406" rx="3.727" ry=".4638" fill="#d49a49"/><path d="m19.85 8.548a4.041 0.6497 0 0 1-1.56 0.7073 4.041 0.6497 0 0 1-4.668-9.514e-4 4.041 0.6497 0 0 1-1.548-0.708" fill="#505242"/></g><link/></svg>
