<svg xmlns="http://www.w3.org/2000/svg" viewBox="0 0 32 32"><title>file_type_cpp</title><path d="M28.5,10.232a2.467,2.467,0,0,0-.306-1.244,2.388,2.388,0,0,0-.9-.878Q22.3,5.242,17.3,2.377a2.46,2.46,0,0,0-2.657.026c-1.325.779-7.957,4.565-9.934,5.706A2.3,2.3,0,0,0,3.5,10.231q0,5.769,0,11.538a2.48,2.48,0,0,0,.292,1.22,2.377,2.377,0,0,0,.918.9c1.977,1.141,8.61,4.927,9.935,5.706a2.46,2.46,0,0,0,2.657.026q4.991-2.871,9.988-5.733a2.384,2.384,0,0,0,.918-.9,2.48,2.48,0,0,0,.292-1.22s0-7.69,0-11.536" style="fill:#659ad2"/><path d="M17.083,29.743l10.334-5.938a2.208,2.208,0,0,0,.765-.8L16,16,3.818,23a2.208,2.208,0,0,0,.765.8l10.334,5.938A2.408,2.408,0,0,0,17.083,29.743Z" style="fill:#004482"/><path d="M28.182,23a2.2,2.2,0,0,0,.318-1.061V10.061A2.2,2.2,0,0,0,28.182,9L16,16Z" style="fill:#00599c"/><path d="M16,24.294A8.294,8.294,0,1,1,23.217,11.85L19.61,13.928a4.147,4.147,0,1,0,0,4.144l3.607,2.077A8.37,8.37,0,0,1,16,24.294Z" style="fill:#fff"/><polygon points="24.333 15.539 23.407 15.539 23.407 14.618 22.482 14.618 22.482 15.539 21.556 15.539 21.556 16.461 22.482 16.461 22.482 17.382 23.407 17.382 23.407 16.461 24.333 16.461 24.333 15.539" style="fill:#fff"/><polygon points="27.806 15.539 26.88 15.539 26.88 14.618 25.954 14.618 25.954 15.539 25.028 15.539 25.028 16.461 25.954 16.461 25.954 17.382 26.88 17.382 26.88 16.461 27.806 16.461 27.806 15.539" style="fill:#fff"/></svg>