<svg viewBox="0 0 32 32" xmlns="http://www.w3.org/2000/svg"><path d="m16.016 2.883h1.839v6.733c2.236-.043 4.472-.012 6.711-.021q0-.563 0-1.126c-.57-.21-1.476-.116-1.678-.836-.439-1.129.766-1.867 1.391-2.608.721-.674 1.483-1.888 2.639-1.425a11.817 11.817 0 0 1 2.062 1.9c.464.528 1.193 1.092.982 1.894-.085.872-1.092.875-1.736 1.071 0 3.322-.009 6.647.009 9.969a3.654 3.654 0 0 1 -.314 1.842 3.711 3.711 0 0 1 -1.818.3q-2.754-.014-5.5-.009v1.123c.634.2 1.647.183 1.736 1.049.229.732-.4 1.287-.839 1.769a20.609 20.609 0 0 1 -2.013 1.952c-.491.348-1.1.073-1.632.021q0 1.313 0 2.626h-1.915c-4.64-.838-9.294-1.613-13.94-2.431v-21.346c4.673-.818 9.346-1.614 14.016-2.447z" fill="#733781"/><g fill="#fff"><path d="m25.991 4.6c.351-.448.854-.027 1.113.287a11.147 11.147 0 0 1 2.1 2.5c-.634.046-1.269.064-1.9.076-.006 4.06.012 8.117-.012 12.177-2.233.024-4.466.006-6.7.012q0-.915 0-1.83h4.881v-10.351c-.638-.012-1.272-.031-1.9-.07a12.443 12.443 0 0 1 2.418-2.801z"/><path d="m17.874 10.525c2.23-.031 4.46-.009 6.693-.015q0 .915 0 1.83h-4.881v10.36c.616.006 1.238.015 1.861.043-.43 1.171-1.565 1.9-2.364 2.815-.47.537-.982-.159-1.333-.458.024-4.854-.022-9.716.024-14.575z"/><path d="m8.689 10.909q.911-.046 1.824-.1c.04 3.459.012 6.921.021 10.38q-.929-.11-1.849-.214c.004-3.352-.005-6.711.004-10.066z"/><path d="m20.6 13.255h3.965v3.66h-3.965q0-1.83 0-3.66z"/></g></svg>