<svg viewBox="0 0 32 32" xmlns="http://www.w3.org/2000/svg" xmlns:xlink="http://www.w3.org/1999/xlink"><filter id="a" name="softGlow"><feGaussianBlur in="SourceAlpha" result="blur" stdDeviation="4"/><feOffset dx=".1" dy=".1" in="blur" result="offsetBlur"/><feFlood flood-color="#c4c7ce" result="offsetColor"/><feComposite in="offsetColor" in2="offsetBlur" operator="in" result="offsetBlur"/></filter><g filter="url(#a)"><path d="m25.706 16.847 1.694-9.817s-2.551-5.03-11.363-5.03c-10.693 0-11.475 5.03-11.475 5.03l1.714 9.817z"/></g><g filter="url(#a)"><path d="m5.549 12.637.727 4.21h19.43l.726-4.21z"/></g><g filter="url(#a)"><path d="m28.63 19.194h-25.279l-.782-2.347h26.862z"/></g><g filter="url(#a)"><circle cx="15.981" cy="13.997" r="3.13"/></g><path d="m15.981 16.735a2.738 2.738 0 1 1 2.739-2.735 2.743 2.743 0 0 1 -2.739 2.735zm0-5.123a2.384 2.384 0 1 0 2.385 2.388 2.377 2.377 0 0 0 -2.384-2.384zm0 4.359a1.975 1.975 0 1 1 1.975-1.971 1.976 1.976 0 0 1 -1.975 1.972zm0-3.707a1.714 1.714 0 1 0 1.719 1.714 1.709 1.709 0 0 0 -1.714-1.714zm.5 1.025.894-.652-.689.876 1.08-.279-.95.577 1.1.13-1.1.186 1.006.522-1.08-.224.727.838-.931-.6.373 1.043-.652-.894-.019 1.118-.279-1.08-.428 1.025.112-1.1-.764.8.5-.987-1.006.466.838-.745-1.118.075 1.048-.384-1.062-.335 1.118.019-.876-.689 1.025.41-.559-.95.8.764-.186-1.1.484 1.006.224-1.08.093 1.118.615-.931z" filter="url(#a)"/><g filter="url(#a)"><path d="m15.981 22.983s1.937-2.31 6.483-1.174 6.874 6.762 6.874 6.762a9.244 9.244 0 0 1 -6.352 1.341c-3.875-.502-7.023-4.637-7.005-6.929z"/></g><g filter="url(#a)"><path d="m8.977 29.913a9.244 9.244 0 0 1 -6.352-1.341s2.328-5.626 6.875-6.763 6.483 1.174 6.483 1.174c.017 2.291-3.132 6.427-7.006 6.93z"/></g><path d="m25.706 16.847 1.694-9.817s-2.551-5.03-11.363-5.03c-10.693 0-11.475 5.03-11.475 5.03l1.714 9.817z" fill="#050505"/><path d="m5.549 12.637.727 4.21h19.43l.727-4.21z" fill="#dd002a"/><path d="m28.63 19.194h-25.279l-.782-2.347h26.862z" fill="#050505"/><circle cx="15.981" cy="13.997" fill="#050505" r="3.13"/><path d="m15.981 16.735a2.738 2.738 0 1 1 2.739-2.735 2.743 2.743 0 0 1 -2.739 2.735zm0-5.123a2.384 2.384 0 1 0 2.385 2.388 2.377 2.377 0 0 0 -2.384-2.384zm0 4.359a1.975 1.975 0 1 1 1.975-1.971 1.976 1.976 0 0 1 -1.975 1.972zm0-3.707a1.714 1.714 0 1 0 1.719 1.714 1.709 1.709 0 0 0 -1.714-1.714zm.5 1.025.894-.652-.689.876 1.08-.279-.95.577 1.1.13-1.1.186 1.006.522-1.08-.224.727.838-.931-.6.373 1.043-.652-.894-.019 1.118-.279-1.08-.428 1.025.112-1.1-.764.8.5-.987-1.006.466.838-.745-1.118.075 1.048-.384-1.062-.335 1.118.019-.876-.689 1.025.41-.559-.95.8.764-.186-1.1.484 1.006.224-1.08.093 1.118.615-.931z" fill="#dd002a"/><g fill="#4f1907"><path d="m15.981 22.983s1.937-2.31 6.483-1.174 6.874 6.762 6.874 6.762a9.244 9.244 0 0 1 -6.352 1.341c-3.875-.502-7.023-4.637-7.005-6.929z"/><path d="m8.977 29.913a9.244 9.244 0 0 1 -6.352-1.341s2.328-5.626 6.875-6.763 6.483 1.174 6.483 1.174c.017 2.291-3.132 6.427-7.006 6.93z"/></g></svg>