<svg id="js" xmlns="http://www.w3.org/2000/svg" viewBox="0 0 32 32">
  <title>file_type_javascript@2x</title>
  <g>
    <path d="M2,2H30.06V30.06H2V2Z" style="fill: #f7df1e"/>
    <path d="M9.38,25.45l2.15-1.3a2,2,0,0,0,1.7,1.36c0.87,0,1.41-.34,1.41-1.66v-9h2.64v9c0,2.73-1.6,4-3.94,4a4.09,4.09,0,0,1-4-2.41"/>
    <path d="M18.7,25.17l2.15-1.24a2.87,2.87,0,0,0,2.6,1.6c1.09,0,1.79-.55,1.79-1.3,0-.9-0.72-1.22-1.92-1.75l-0.66-.28c-1.9-.81-3.16-1.83-3.16-4,0-2,1.51-3.48,3.86-3.48a3.89,3.89,0,0,1,3.75,2.11l-2.05,1.32A1.8,1.8,0,0,0,23.36,17a1.15,1.15,0,0,0-1.26,1.13c0,0.79.49,1.11,1.62,1.6L24.37,20c2.24,1,3.5,1.94,3.5,4.14,0,2.37-1.86,3.67-4.37,3.67a5.07,5.07,0,0,1-4.8-2.69"/>
  </g>
  <rect width="32" height="32" style="fill: #fff;opacity: 0"/>
</svg>
