<svg xmlns="http://www.w3.org/2000/svg" viewBox="0 0 32 32"><title>file_type_icl</title><path d="M24.136,12.247c.032.085-.015.156-.039.231s-.1.126.011.179a1.057,1.057,0,0,1,.629.2c.32.3.25.581-.178.715-.04.013-.117-.006-.083.083a1.793,1.793,0,0,1,.413.328c.145.234,0,.483-.3.508-.074.006-.151-.053-.22.013l.046.1c.069.187-.083.226-.2.271a2.372,2.372,0,0,1-.724.114.857.857,0,0,0-.531.244,22.572,22.572,0,0,1-1.825,1.617,3.018,3.018,0,0,0-.326.222.925.925,0,0,1-.294.126c-.039.01-.079.014-.119.022-.14.052-.14.162-.117.282.046.242.1.48.14.724a1.408,1.408,0,0,1-1.953,1.595,2.641,2.641,0,0,1-.829-.449l-.063-.042c.008.015.025.018.037.029a.268.268,0,0,1,.048.047,1.66,1.66,0,0,0,.154.19c.091.116.14.257.228.376a1.591,1.591,0,0,1,.215.509,5.334,5.334,0,0,1-.046,2.011,3.225,3.225,0,0,1-1.292,2.037,1.651,1.651,0,0,1-.4.2,4.917,4.917,0,0,1-3.569-.165,4.881,4.881,0,0,1-1-.466.656.656,0,0,0-.346-.118,1.371,1.371,0,0,1-1.078-1.147,1.115,1.115,0,0,0-.409-.82,1.744,1.744,0,0,1-.424-.5c-.22-.1-.42.039-.629.063-.18.021-.409.126-.5-.058-.08-.163.09-.338.215-.475a.485.485,0,0,1,.116-.106,1.562,1.562,0,0,0,.767-1.212,3.491,3.491,0,0,1,1-1.95,2.009,2.009,0,0,1,.507-.369,15.664,15.664,0,0,0,1.718-1,2.191,2.191,0,0,0,.773-.9.564.564,0,0,1,.426-.275,3.157,3.157,0,0,1,.706-.071,13.643,13.643,0,0,0,1.862-.107,1.323,1.323,0,0,0,.816-.375,4.9,4.9,0,0,1,1.246-.827,13.522,13.522,0,0,1,2.921-1.177c.275-.064.554-.08.829-.127a1.746,1.746,0,0,0,1.1-.332C23.821,12.035,24,12.075,24.136,12.247Z" style="fill:#a6acb4"/><path d="M12.559,5a5.008,5.008,0,0,1,4.034-.953,4.485,4.485,0,0,1,1.359.359c.121.061.18-.012.248-.077a4.8,4.8,0,0,1,2.508-1.28.912.912,0,0,1,.6-.168,4.934,4.934,0,0,1,2.716.456.756.756,0,0,1,.356.294,1.458,1.458,0,0,1,.063,2.2c-.113.128-.135.2-.018.36a.746.746,0,0,1-.052.878,3.955,3.955,0,0,1-1.892,1.363c-.3.133-.577.3-.884.407-.168.059-.141.175-.1.3a7.941,7.941,0,0,1,.371,1.425,1.93,1.93,0,0,1-.35,1.419,3.273,3.273,0,0,1-1.183,1.065,10.932,10.932,0,0,1-2.426,1,7.821,7.821,0,0,1-1.772.219,24.051,24.051,0,0,1-3.519-.165,2.592,2.592,0,0,1-2.462-2.534,5.715,5.715,0,0,1,.081-1.646,1.276,1.276,0,0,1,.171-.5.44.44,0,0,1,.345-.164.407.407,0,0,0,.389-.295c.219-.515.409-1.041.594-1.568A22.141,22.141,0,0,0,12.5,5.086.14.14,0,0,1,12.559,5Z" style="fill:#a6acb4"/><path d="M23.8,18.088c-.3,1.078-.474,2.186-.8,3.258a.573.573,0,0,1-.047.384c-.395,1.077-.821,2.142-1.257,3.2a.4.4,0,0,1-.185.245c-.106.15-.214.3-.318.45a2.538,2.538,0,0,1-1.1.909c-.184.081-.368.167-.543.266a.978.978,0,0,0-.528,1.028c.036.394.081.785.144,1.174.025.153,0,.187-.153.212q-2.346.378-4.69.775c-.173.029-.244,0-.254-.2-.043-.814-.027-1.632-.14-2.443a2.623,2.623,0,0,0-.2-.732,1.292,1.292,0,0,0-1.141-.717,26.9,26.9,0,0,1-3.74-.825,1.7,1.7,0,0,1-.46-.189.6.6,0,0,1-.3-.779c.071-.234.173-.46.235-.7.051-.193.132-.228.313-.153a7.609,7.609,0,0,0,1.918.535c.041.018.088.037.1.079.121.345.4.427.723.459a4,4,0,0,1,.87.2,3.123,3.123,0,0,1,1.844,1.835,3.474,3.474,0,0,1,.175.44,1.31,1.31,0,0,0,1.209.943,2.933,2.933,0,0,0,1.635-.309.874.874,0,0,0,.383-.352,2.378,2.378,0,0,0,.383-1.628,1.432,1.432,0,0,1,.619-1.471A3.067,3.067,0,0,0,19.768,22.2a1.259,1.259,0,0,1,.36-.635,3,3,0,0,0,.892-2.156c.027-.315.082-.627.137-.938a3,3,0,0,1,1.19-1.747,8.061,8.061,0,0,1,1.3-.89c.1-.056.2-.156.336-.071a8.409,8.409,0,0,1-.051,1.686c-.054.243-.228.155-.376.137-.073-.009-.17-.073-.2.04a.728.728,0,0,0-.051.408c.02.064.109.023.168.022C23.584,18.059,23.7,17.986,23.8,18.088Z" style="fill:#ad6148"/><path d="M12.559,5a2.3,2.3,0,0,1-.162.766c-.292.852-.583,1.705-.906,2.545a5.225,5.225,0,0,1-.354.841c-.073.121-.149.191-.287.177a.648.648,0,0,0-.4.107,4.007,4.007,0,0,1-.83.114,4.291,4.291,0,0,1-2.538-.325,2.168,2.168,0,0,1-1.277-1.74A.83.83,0,0,1,5.853,7.1,4.483,4.483,0,0,1,9.805,4.267a5.473,5.473,0,0,1,2.3.434A1.225,1.225,0,0,1,12.559,5Z" style="fill:#a5abb3"/><path d="M24.365,2.377a.884.884,0,0,0-.593.165.5.5,0,0,1-.522.047.747.747,0,0,0-.812.072.553.553,0,0,1-.609.023,2.059,2.059,0,0,0-1.064-.212.439.439,0,0,1,.262-.159c.107-.026.244-.016.315-.112.2-.271.435-.227.69-.1.063.029.155.079.2.056.3-.174.551.044.824.086a4.989,4.989,0,0,0,.682.021A1.278,1.278,0,0,1,24.365,2.377Z" style="fill:#914c35"/><path d="M23.986,15.767a6.837,6.837,0,0,0-1.461.917,5.223,5.223,0,0,0-.809.785,2.75,2.75,0,0,0-.569,1.549,6.489,6.489,0,0,1-.323,1.719,2.221,2.221,0,0,1-.538.771,1.64,1.64,0,0,0-.469.8A3.161,3.161,0,0,1,18.5,24.087a1.341,1.341,0,0,0-.533,1.438,2.127,2.127,0,0,1-.752,1.937,2.544,2.544,0,0,1-2.368.174,1.087,1.087,0,0,1-.6-.692,4.985,4.985,0,0,0-.937-1.689,2.61,2.61,0,0,0-1.021-.63,2.632,2.632,0,0,0-1.015-.237.722.722,0,0,1-.714-.6.8.8,0,0,1,.3.035c.076-.037.138.005.2.039a3.837,3.837,0,0,0,1,.4,7.941,7.941,0,0,1,1.584.692,1.261,1.261,0,0,1,.525.668,3.586,3.586,0,0,1,.168.5.529.529,0,0,0,.346.4.575.575,0,0,0,.519-.052.354.354,0,0,1,.264-.08.935.935,0,0,0,.761.085,1.541,1.541,0,0,1,.419-.024.681.681,0,0,0,.687-.655,1.777,1.777,0,0,0-.118-.8.379.379,0,0,1,.142-.5,2.456,2.456,0,0,0,.908-1.262,2.294,2.294,0,0,1,.638-.951,6.613,6.613,0,0,0,1.468-2.035,3.845,3.845,0,0,0,.387-1.6,4.273,4.273,0,0,0-.21-1.026c-.038-.156-.142-.311-.031-.478l.27-.107a10.749,10.749,0,0,0,2.473-1.809A.488.488,0,0,1,24,15.184ZM23.6,12.281a.432.432,0,0,1,.535-.034c.028-.806.052-1.611.085-2.417.034-.857.1-1.713.083-2.572a3.754,3.754,0,0,1-.582.6c-.1.061-.08.144-.03.228a.9.9,0,0,1-.173,1.125,13.731,13.731,0,0,1-1.136,1.165.34.34,0,0,0-.105.371,4.557,4.557,0,0,1,.1,1.717c-.012.081-.011.139.085.151A1.523,1.523,0,0,0,23.6,12.281Zm.764-9.9a.656.656,0,0,0-.576.065.6.6,0,0,1-.58.051.705.705,0,0,0-.683.04.81.81,0,0,1-.845.007,1.063,1.063,0,0,0-.916-.068c-.1.185-.022.389-.057.581.172-.025.345-.058.518-.075a4.822,4.822,0,0,1,3.149.657ZM24.09,17.984a10.675,10.675,0,0,1,1.04-.284c.337-.041.559-.355.822-.562-.07-.075-.159-.041-.243-.047-.194-.013-.36.108-.549.106a3.438,3.438,0,0,0-.539.168c-.225.051-.438.216-.686.088a.224.224,0,0,1-.223.1c-.134-.019-.294-.161-.389-.063s-.075.275-.105.418a1.11,1.11,0,0,1-.024.128c-.042.121-.013.158.119.127.16-.036.323-.052.485-.077A2.259,2.259,0,0,1,24.09,17.984Z" style="fill:#9f583f"/><path d="M24.108,12.657a.3.3,0,0,1-.271,0l.26-.181Z" style="fill:#9e7568"/><path d="M5.853,7.1A2.1,2.1,0,0,0,6.921,9.049a3.485,3.485,0,0,0,2.138.458c.413-.051.835-.054,1.249-.117a.139.139,0,0,1,.142.05,4.431,4.431,0,0,0-.252,1.649A3.052,3.052,0,0,0,11,13.33a2.4,2.4,0,0,0,1.124.591,9.773,9.773,0,0,0,1.5.205,22.773,22.773,0,0,0,2.337.061,7.868,7.868,0,0,0,3.618-.847A5.013,5.013,0,0,0,21.169,12.3a2.132,2.132,0,0,0,.646-1.4,4.036,4.036,0,0,0-.247-1.281c-.077-.242-.263-.512-.208-.716s.421-.2.633-.325a4.408,4.408,0,0,1,.6-.277,5.251,5.251,0,0,0,1.78-1.23l-.064.189a1.161,1.161,0,0,1-.416.561.246.246,0,0,0-.082.342.9.9,0,0,1-.156,1,10.252,10.252,0,0,1-1.1,1.163.528.528,0,0,0-.162.562,5.672,5.672,0,0,1,.078,1.725,6.961,6.961,0,0,0-1.849.459,9.827,9.827,0,0,0-2.959,1.565,2.733,2.733,0,0,1-1.683.557c-.586.068-1.173-.01-1.756.086a1.866,1.866,0,0,0-.554.22c.038-.187.065-.378.119-.561.046-.156-.018-.172-.149-.18A9.026,9.026,0,0,1,12,14.548a2.161,2.161,0,0,1-1.67-1.473,5.311,5.311,0,0,1-.22-.834.256.256,0,0,0-.266-.252,4.243,4.243,0,0,1-1.762-.706c-.225-.135-.272-.282-.12-.5.109-.159.025-.182-.09-.226A4.409,4.409,0,0,1,6.55,9.865a.562.562,0,0,1-.066-.942,5.8,5.8,0,0,1-.846-.272.365.365,0,0,1-.223-.489A3.976,3.976,0,0,1,5.853,7.1ZM22.026,25.021a2.077,2.077,0,0,1,1.725-.265,1.249,1.249,0,0,0,.415.021c.162-.008.34,0,.416-.2a.531.531,0,0,0-.039-.512.815.815,0,0,1-.069-.1.6.6,0,0,0,.055.086c.118.141.073.369.251.479.124.052.242.078.32-.072.08-.269-.074-.476-.183-.7-.03-.046-.064-.088-.109-.159.049.072.083.119.113.167a1.538,1.538,0,0,1,.166.353c.013.044.042.081.093.076s.054-.059.052-.1a1.545,1.545,0,0,0-.017-.39.745.745,0,0,0-.4-.516,2.571,2.571,0,0,0-.738-.248c-.4-.092-.525-.229-.567-.634A1.055,1.055,0,0,0,23,21.346c-.444,1.3-.968,2.564-1.489,3.831A.763.763,0,0,0,22.026,25.021Zm2.55-9.789c.211,0,.28-.148.153-.315a3.176,3.176,0,0,0-.311-.314c-.086.255-.321.219-.516.269-.275.07-.6-.042-.831.166a23.816,23.816,0,0,1-2.292,1.988.981.981,0,0,0,.393-.14,8.688,8.688,0,0,0,2.006-1.514A.665.665,0,0,1,24,15.184,5.033,5.033,0,0,0,24.576,15.232Zm.125-1.606c.1.009.2.039.307.04.247,0,.311-.1.206-.328a.819.819,0,0,0-.477-.482c.224.374.187.494-.215.684-.058.027-.13.036-.046.114C24.537,13.539,24.625,13.62,24.7,13.626Zm.1.971a.269.269,0,0,0,.3-.1.272.272,0,0,0-.025-.337.433.433,0,0,0-.187-.175c.077.189,0,.3-.166.4-.114.07-.263,0-.351.12C24.515,14.534,24.658,14.57,24.8,14.6Zm-4.329,5.572a6.043,6.043,0,0,1-1.3,1.926,3.341,3.341,0,0,0-.924,1.345A2.341,2.341,0,0,1,17.33,24.6a.191.191,0,0,0-.078.279,1.941,1.941,0,0,1,.155.872.737.737,0,0,1-.782.765,2.013,2.013,0,0,0-.569.063.58.58,0,0,1-.6-.156c-.023-.029-.04-.064-.02-.1a.721.721,0,0,0,.059-.146c-.112.3-.4.455-.84.4a.4.4,0,0,1-.364-.36,2.054,2.054,0,0,0-1.5-1.619c-.3-.114-.6-.228-.916-.311a3.407,3.407,0,0,1-1.019-.464A1.12,1.12,0,0,1,10.4,22.77a.183.183,0,0,0-.094-.2,1.545,1.545,0,0,1-.607-1.06c.355.338.847.591.891,1.143a1.454,1.454,0,0,0,.519,1.017.493.493,0,0,0,.216.143,15.977,15.977,0,0,1,1.86.748,5.86,5.86,0,0,0,1.581.347,3.159,3.159,0,0,0,2.5-.773,3.443,3.443,0,0,0,.937-2.088,9.122,9.122,0,0,0-.01-1.594c.029,0,.035.022.055.031a3.217,3.217,0,0,0-.269-.5l-.21-.364a1.846,1.846,0,0,0-.159-.216.075.075,0,0,1,0-.106c.208.113.417.223.623.338a1.6,1.6,0,0,0,1.393.07,1.243,1.243,0,0,0,.7-1.557c-.049-.23-.072-.468-.143-.691s.014-.3.218-.32l.1-.005a2.444,2.444,0,0,0,.168.686A3.2,3.2,0,0,1,20.473,20.169Zm-4.925,5.609a1.018,1.018,0,0,1-.037.355A.7.7,0,0,0,15.548,25.778Z" style="fill:#8e949d"/><path d="M14.409,12.132a2.689,2.689,0,0,1,.719-1.7,1.354,1.354,0,0,1,2.009.1,5.151,5.151,0,0,1,.467.755,4.264,4.264,0,0,1,.033.553A1.844,1.844,0,0,1,15.4,13.231,1.326,1.326,0,0,1,14.409,12.132Z" style="fill:#4b5b64"/><path d="M14.409,12.132c.153.2.2.445.381.638a1.507,1.507,0,0,0,1.985.162,1.721,1.721,0,0,0,.792-1.068c.05-.1.013-.215.024-.322.006-.049,0-.107.076-.1a2.15,2.15,0,0,1,.317,1.174.87.87,0,0,1-.271.637,2.422,2.422,0,0,1-2.061.639A1.457,1.457,0,0,1,14.4,12.368C14.4,12.289,14.407,12.21,14.409,12.132Z" style="fill:#283037"/><path d="M12.243,12.175a.918.918,0,0,1,.062-.99.584.584,0,0,1,1.043-.006.9.9,0,0,1-.28,1.159A.531.531,0,0,1,12.243,12.175Zm6.543-.664a.752.752,0,0,0,.756.24.592.592,0,0,0,.354-.565.676.676,0,0,0-.174-.48,1.877,1.877,0,0,0-.275-.24.577.577,0,0,0-.668.009.5.5,0,0,0-.178.609,1.076,1.076,0,0,1,.027.128A.791.791,0,0,0,18.786,11.511Z" style="fill:#0a090b"/><path d="M12.243,12.175c.272.235.476.28.708.155a.971.971,0,0,0,.438-.92c-.011-.078-.027-.154-.041-.231a1.018,1.018,0,0,1-.133,1.51A.673.673,0,0,1,12.243,12.175Zm7.062-.141a.476.476,0,0,0,.578-.184.959.959,0,0,0-.161-1.144,2.132,2.132,0,0,1,.091.328.61.61,0,0,1-.21.615c-.2.143-.4.047-.591-.051a1.143,1.143,0,0,1-.384-.386A1.055,1.055,0,0,0,19.305,12.034Z" style="fill:#8e949c"/><path d="M22.829,4.393c.019.028.054.056.053.083-.013.987-.1,1.692-1.146,2.223a4.908,4.908,0,0,1-.77.331.553.553,0,0,1-.6-.137,2.211,2.211,0,0,1-.481-.619.42.42,0,0,1,.161-.394,5.363,5.363,0,0,1,1.81-1.189A3.435,3.435,0,0,1,22.829,4.393ZM8.814,8.439h0a1.8,1.8,0,0,0,.643,0l.022,0L9.5,8.438a.516.516,0,0,1,.311-.013C9.9,8.41,10,8.4,10.09,8.38c.306-.068.662-.075.664-.526a.622.622,0,0,1,.013-.365.174.174,0,0,0,.041-.162c-.049-.106.019-.229-.046-.334a.417.417,0,0,0-.3-.056,4.726,4.726,0,0,0-2.431.814c-.221.264-.2.372.112.526a3.436,3.436,0,0,0,.418.145A.37.37,0,0,1,8.814,8.439Z" style="fill:#d48691"/><path d="M22.829,4.393a10.2,10.2,0,0,0-1.722.748,6.338,6.338,0,0,0-1.049.821c-.094.093-.1.217-.174.312-.482-.671-.391-.66.142-1.1A3.542,3.542,0,0,1,22.829,4.393ZM10.815,7.013c.133-.557.058-.651-.511-.628a1.1,1.1,0,0,0-.207.025A4.087,4.087,0,0,0,8.028,7.751a1.5,1.5,0,0,0,.429-.192,5.184,5.184,0,0,1,2.306-.541C10.783,7.043,10.8,7.041,10.815,7.013Z" style="fill:#c95e66"/><path d="M12.661,11.27c.014-.109.028-.245.207-.249a.441.441,0,0,1,.366.412c0,.144-.051.259-.214.273S12.668,11.5,12.661,11.27Zm6.447-.821a.256.256,0,1,0,0,.512c.149,0,.228-.108.252-.254A.262.262,0,0,0,19.108,10.449Z" style="fill:#fcfdfc"/></svg>