<svg viewBox="0 0 32 32" xmlns="http://www.w3.org/2000/svg"><path d="m2.36 6.666 13.125-4.666v28l-11.085-6.126z" fill="#93000e"/><path d="m15.485 2 13.415 4.593-2.186 17.207-11.229 6.2z" fill="#4a0007"/><path d="m15.485 5.134 8.531 18.229h-2.916l-1.823-4.156h-3.792v-2.479h2.771l-2.771-5.728-2.333 5.73h2.333v2.479h-3.471l-1.633 4.155h-3.135z" fill="#fff"/><g fill="#007acc"><path d="m27.039 19.647a2.814 2.814 0 0 1 1.414.815 3.723 3.723 0 0 1 .542.725c.007.029-.976.689-1.572 1.059-.022.014-.108-.079-.2-.222a1.281 1.281 0 0 0 -1.062-.639c-.685-.047-1.127.312-1.123.912a.829.829 0 0 0 .1.423c.151.312.431.5 1.31.879 1.618.7 2.311 1.156 2.742 1.809a3.281 3.281 0 0 1 .262 2.756 3.031 3.031 0 0 1 -2.5 1.791 6.931 6.931 0 0 1 -1.723-.018 4.154 4.154 0 0 1 -2.3-1.2 3.994 3.994 0 0 1 -.589-.872 1.689 1.689 0 0 1 .208-.133c.1-.057.481-.276.84-.484l.65-.377.136.2a3.035 3.035 0 0 0 .858.822 2.1 2.1 0 0 0 2.2-.111.983.983 0 0 0 .126-1.252c-.176-.251-.535-.463-1.554-.9a5.6 5.6 0 0 1 -2.128-1.31 2.981 2.981 0 0 1 -.621-1.13 4.527 4.527 0 0 1 -.039-1.443 2.756 2.756 0 0 1 2.308-2.147 5.727 5.727 0 0 1 1.715.047z"/><path d="m21.731 20.591.007.926h-2.938v8.362h-2.086v-8.362h-2.942v-.908a8.9 8.9 0 0 1 .025-.933c.011-.014 1.8-.022 3.973-.018l3.951.011z"/></g></svg>