<svg viewBox="0 0 32 32" xmlns="http://www.w3.org/2000/svg"><path d="m16 2a9.3 9.3 0 0 0 -9.428 9.17 2.656 2.656 0 0 0 5.312 0 4.027 4.027 0 0 1 4.116-3.93 2.62 2.62 0 1 0 0-5.24z" fill="#e73536" opacity=".8"/><path d="m25.432 11.17a9.3 9.3 0 0 0 -9.432-9.17 2.62 2.62 0 1 0 0 5.24 4.027 4.027 0 0 1 4.117 3.93 2.656 2.656 0 0 0 5.312 0z" fill="#938b98" opacity=".7"/><path d="m16 30a9.3 9.3 0 0 0 9.428-9.17 2.656 2.656 0 0 0 -5.312 0 4.027 4.027 0 0 1 -4.116 3.93 2.62 2.62 0 1 0 0 5.24z" fill="#e73536" opacity=".8"/><path d="m6.568 20.83a9.3 9.3 0 0 0 9.432 9.17 2.62 2.62 0 1 0 0-5.24 4.027 4.027 0 0 1 -4.117-3.93 2.656 2.656 0 0 0 -5.312 0z" fill="#938b98" opacity=".7"/><path d="m7.693 13.36 13.552 9.664a2.637 2.637 0 0 0 3.7-.645 2.7 2.7 0 0 0 -.639-3.74l-13.551-9.664a2.637 2.637 0 0 0 -3.7.645 2.7 2.7 0 0 0 .638 3.74z" fill="#4c3e54" opacity=".7"/></svg>