<svg viewBox="0 0 32 32" xmlns="http://www.w3.org/2000/svg" xmlns:xlink="http://www.w3.org/1999/xlink"><linearGradient id="a" gradientUnits="userSpaceOnUse" x1="16" x2="16" y1="2.044" y2="29.956"><stop offset="0" stop-color="#459fe2"/><stop offset="1" stop-color="#2781c4"/></linearGradient><path d="m29.956 29.956h-13.956-13.956v-13.956-13.956h13.956 13.956v13.956z" fill="url(#a)"/><g fill="#fff"><path d="m2.043 15.953h27.913v.087h-27.913z" opacity=".5"/><path d="m2.054 3.39h27.903v.087h-27.903z" opacity=".5"/><path d="m2.054 28.512h27.903v.087h-27.903z" opacity=".5"/><path d="m2.061 12.9h-.018a.044.044 0 0 1 0-.087h.018a.044.044 0 0 1 0 .087z" opacity=".5"/><path d="m29.523 12.9h-.034a.044.044 0 0 1 0-.087h.034a.044.044 0 0 1 0 .087zm-.45 0h-.035a.044.044 0 0 1 0-.087h.035a.044.044 0 1 1 0 .087zm-.45 0h-.035a.044.044 0 0 1 0-.087h.035a.044.044 0 1 1 0 .087zm-.45 0h-.035a.044.044 0 0 1 0-.087h.035a.044.044 0 1 1 0 .087zm-.45 0h-.034a.044.044 0 0 1 0-.087h.034a.044.044 0 1 1 0 .087zm-.45 0h-.035a.044.044 0 0 1 0-.087h.035a.044.044 0 0 1 0 .087zm-.45 0h-.035a.044.044 0 0 1 0-.087h.035a.044.044 0 1 1 0 .087zm-.45 0h-.034a.044.044 0 0 1 0-.087h.034a.044.044 0 1 1 0 .087zm-.45 0h-.035a.044.044 0 0 1 0-.087h.035a.044.044 0 1 1 0 .087zm-.45 0h-.035a.044.044 0 0 1 0-.087h.035a.044.044 0 0 1 0 .087zm-.45 0h-.035a.044.044 0 0 1 0-.087h.035a.044.044 0 1 1 0 .087zm-.45 0h-.034a.044.044 0 0 1 0-.087h.034a.044.044 0 0 1 0 .087zm-.45 0h-.035a.044.044 0 0 1 0-.087h.035a.044.044 0 0 1 0 .087zm-.45 0h-.035a.044.044 0 0 1 0-.087h.035a.044.044 0 0 1 0 .087zm-.45 0h-.034a.044.044 0 0 1 0-.087h.034a.044.044 0 0 1 0 .087zm-.45 0h-.034a.044.044 0 0 1 0-.087h.034a.044.044 0 1 1 0 .087zm-.45 0h-.035a.044.044 0 0 1 0-.087h.035a.044.044 0 1 1 0 .087zm-.45 0h-.035a.044.044 0 0 1 0-.087h.035a.044.044 0 1 1 0 .087zm-.45 0h-.034a.044.044 0 0 1 0-.087h.034a.044.044 0 0 1 0 .087zm-.45 0h-.035a.044.044 0 0 1 0-.087h.035a.044.044 0 1 1 0 .087zm-.45 0h-.035a.044.044 0 0 1 0-.087h.035a.044.044 0 0 1 0 .087zm-.45 0h-.034a.044.044 0 1 1 0-.087h.034a.044.044 0 0 1 0 .087zm-.45 0h-.034a.044.044 0 0 1 0-.087h.034a.044.044 0 1 1 0 .087zm-.45 0h-.035a.044.044 0 0 1 0-.087h.035a.044.044 0 0 1 0 .087zm-.45 0h-.035a.044.044 0 0 1 0-.087h.035a.044.044 0 0 1 0 .087zm-.45 0h-.034a.044.044 0 0 1 0-.087h.034a.044.044 0 0 1 0 .087zm-.45 0h-.035a.044.044 0 0 1 0-.087h.035a.044.044 0 0 1 0 .087zm-.45 0h-.035a.044.044 0 0 1 0-.087h.035a.044.044 0 0 1 0 .087zm-.45 0h-.035a.044.044 0 0 1 0-.087h.035a.044.044 0 0 1 0 .087zm-.45 0h-.034a.044.044 0 0 1 0-.087h.034a.044.044 0 0 1 0 .087zm-.45 0h-.035a.044.044 0 0 1 0-.087h.035a.044.044 0 0 1 0 .087zm-.45 0h-.035a.044.044 0 0 1 0-.087h.035a.044.044 0 1 1 0 .087zm-.45 0h-.035a.044.044 0 0 1 0-.087h.035a.044.044 0 0 1 0 .087zm-.45 0h-.035a.044.044 0 0 1 0-.087h.035a.044.044 0 0 1 0 .087zm-.45 0h-.035a.044.044 0 0 1 0-.087h.035a.044.044 0 1 1 0 .087zm-.45 0h-.035a.044.044 0 0 1 0-.087h.035a.044.044 0 0 1 0 .087zm-.45 0h-.035a.044.044 0 0 1 0-.087h.035a.044.044 0 0 1 0 .087zm-.45 0h-.035a.044.044 0 0 1 0-.087h.035a.044.044 0 0 1 0 .087zm-.45 0h-.035a.044.044 0 0 1 0-.087h.035a.044.044 0 0 1 0 .087zm-.45 0h-.035a.044.044 0 0 1 0-.087h.035a.044.044 0 0 1 0 .087zm-.45 0h-.035a.044.044 0 0 1 0-.087h.035a.044.044 0 0 1 0 .087zm-.45 0h-.043a.044.044 0 0 1 0-.087h.035a.044.044 0 0 1 0 .087zm-.45 0h-.043a.044.044 0 0 1 0-.087h.035a.044.044 0 0 1 0 .087zm-.45 0h-.043a.044.044 0 0 1 0-.087h.035a.044.044 0 0 1 0 .087zm-.45 0h-.043a.044.044 0 0 1 0-.087h.035a.044.044 0 0 1 0 .087zm-.45 0h-.044a.044.044 0 0 1 0-.087h.035a.044.044 0 0 1 0 .087zm-.45 0h-.044a.044.044 0 0 1 0-.087h.035a.044.044 0 0 1 0 .087zm-.45 0h-.044a.044.044 0 0 1 0-.087h.035a.044.044 0 0 1 0 .087zm-.45 0h-.044a.044.044 0 0 1 0-.087h.035a.044.044 0 0 1 0 .087zm-.45 0h-.044a.044.044 0 0 1 0-.087h.035a.044.044 0 0 1 0 .087zm-.45 0h-.044a.044.044 0 0 1 0-.087h.035a.044.044 0 0 1 0 .087zm-.45 0h-.045a.044.044 0 0 1 0-.087h.035a.044.044 0 0 1 0 .087zm-.45 0h-.045a.044.044 0 0 1 0-.087h.035a.044.044 0 0 1 0 .087zm-.45 0h-.045a.044.044 0 0 1 0-.087h.035a.044.044 0 0 1 0 .087zm-.45 0h-.045a.044.044 0 0 1 0-.087h.035a.044.044 0 0 1 0 .087zm-.45 0h-.045a.044.044 0 0 1 0-.087h.035a.044.044 0 0 1 0 .087zm-.45 0h-.046a.044.044 0 0 1 0-.087h.035a.044.044 0 0 1 0 .087zm-.45 0h-.046a.044.044 0 0 1 0-.087h.035a.044.044 0 0 1 0 .087zm-.45 0h-.046a.044.044 0 0 1 0-.087h.035a.044.044 0 0 1 0 .087zm-.45 0h-.046a.044.044 0 0 1 0-.087h.035a.044.044 0 0 1 0 .087zm-.45 0h-.046a.044.044 0 0 1 0-.087h.035a.044.044 0 0 1 0 .087z" opacity=".5"/><path d="m29.956 12.9h-.017a.044.044 0 0 1 0-.087h.017a.044.044 0 1 1 0 .087z" opacity=".5"/><path d="m2.061 6.618h-.018a.044.044 0 1 1 0-.087h.018a.044.044 0 0 1 0 .087z" opacity=".5"/><path d="m29.523 6.618h-.034a.044.044 0 1 1 0-.087h.034a.044.044 0 0 1 0 .087zm-.45 0h-.035a.044.044 0 1 1 0-.087h.035a.044.044 0 1 1 0 .087zm-.45 0h-.035a.044.044 0 1 1 0-.087h.035a.044.044 0 1 1 0 .087zm-.45 0h-.035a.044.044 0 1 1 0-.087h.035a.044.044 0 1 1 0 .087zm-.45 0h-.034a.044.044 0 0 1 0-.087h.034a.044.044 0 1 1 0 .087zm-.45 0h-.035a.044.044 0 0 1 0-.087h.035a.044.044 0 0 1 0 .087zm-.45 0h-.035a.044.044 0 1 1 0-.087h.035a.044.044 0 1 1 0 .087zm-.45 0h-.034a.044.044 0 1 1 0-.087h.034a.044.044 0 1 1 0 .087zm-.45 0h-.035a.044.044 0 1 1 0-.087h.035a.044.044 0 1 1 0 .087zm-.45 0h-.035a.044.044 0 0 1 0-.087h.035a.044.044 0 0 1 0 .087zm-.45 0h-.035a.044.044 0 1 1 0-.087h.035a.044.044 0 1 1 0 .087zm-.45 0h-.034a.044.044 0 1 1 0-.087h.034a.044.044 0 1 1 0 .087zm-.45 0h-.035a.044.044 0 1 1 0-.087h.035a.044.044 0 1 1 0 .087zm-.45 0h-.035a.044.044 0 0 1 0-.087h.035a.044.044 0 0 1 0 .087zm-.45 0h-.034a.044.044 0 1 1 0-.087h.034a.044.044 0 0 1 0 .087zm-.45 0h-.034a.044.044 0 1 1 0-.087h.034a.044.044 0 1 1 0 .087zm-.45 0h-.035a.044.044 0 1 1 0-.087h.035a.044.044 0 1 1 0 .087zm-.45 0h-.035a.044.044 0 1 1 0-.087h.035a.044.044 0 1 1 0 .087zm-.45 0h-.034a.044.044 0 0 1 0-.087h.034a.044.044 0 0 1 0 .087zm-.45 0h-.035a.044.044 0 1 1 0-.087h.035a.044.044 0 1 1 0 .087zm-.45 0h-.035a.044.044 0 1 1 0-.087h.035a.044.044 0 1 1 0 .087zm-.45 0h-.034a.044.044 0 1 1 0-.087h.034a.044.044 0 1 1 0 .087zm-.45 0h-.034a.044.044 0 0 1 0-.087h.034a.044.044 0 1 1 0 .087zm-.45 0h-.035a.044.044 0 0 1 0-.087h.035a.044.044 0 0 1 0 .087zm-.45 0h-.035a.044.044 0 1 1 0-.087h.035a.044.044 0 1 1 0 .087zm-.45 0h-.034a.044.044 0 1 1 0-.087h.034a.044.044 0 1 1 0 .087zm-.45 0h-.035a.044.044 0 1 1 0-.087h.035a.044.044 0 1 1 0 .087zm-.45 0h-.035a.044.044 0 0 1 0-.087h.035a.044.044 0 0 1 0 .087zm-.45 0h-.035a.044.044 0 1 1 0-.087h.035a.044.044 0 1 1 0 .087zm-.45 0h-.034a.044.044 0 1 1 0-.087h.034a.044.044 0 1 1 0 .087zm-.45 0h-.035a.044.044 0 1 1 0-.087h.035a.044.044 0 1 1 0 .087zm-.45 0h-.035a.044.044 0 0 1 0-.087h.035a.044.044 0 1 1 0 .087zm-.45 0h-.035a.044.044 0 1 1 0-.087h.035a.044.044 0 1 1 0 .087zm-.45 0h-.035a.044.044 0 1 1 0-.087h.035a.044.044 0 1 1 0 .087zm-.45 0h-.035a.044.044 0 1 1 0-.087h.035a.044.044 0 1 1 0 .087zm-.45 0h-.035a.044.044 0 1 1 0-.087h.035a.044.044 0 1 1 0 .087zm-.45 0h-.035a.044.044 0 1 1 0-.087h.035a.044.044 0 1 1 0 .087zm-.45 0h-.035a.044.044 0 1 1 0-.087h.035a.044.044 0 0 1 0 .087zm-.45 0h-.035a.044.044 0 1 1 0-.087h.035a.044.044 0 1 1 0 .087zm-.45 0h-.035a.044.044 0 1 1 0-.087h.035a.044.044 0 0 1 0 .087zm-.45 0h-.035a.044.044 0 1 1 0-.087h.035a.044.044 0 1 1 0 .087zm-.45 0h-.043a.044.044 0 1 1 0-.087h.035a.044.044 0 0 1 0 .087zm-.45 0h-.043a.044.044 0 1 1 0-.087h.035a.044.044 0 1 1 0 .087zm-.45 0h-.043a.044.044 0 0 1 0-.087h.035a.044.044 0 0 1 0 .087zm-.45 0h-.043a.044.044 0 0 1 0-.087h.035a.044.044 0 0 1 0 .087zm-.45 0h-.044a.044.044 0 0 1 0-.087h.035a.044.044 0 1 1 0 .087zm-.45 0h-.044a.044.044 0 1 1 0-.087h.035a.044.044 0 1 1 0 .087zm-.45 0h-.044a.044.044 0 0 1 0-.087h.035a.044.044 0 0 1 0 .087zm-.45 0h-.044a.044.044 0 0 1 0-.087h.035a.044.044 0 0 1 0 .087zm-.45 0h-.044a.044.044 0 1 1 0-.087h.035a.044.044 0 0 1 0 .087zm-.45 0h-.044a.044.044 0 1 1 0-.087h.035a.044.044 0 1 1 0 .087zm-.45 0h-.045a.044.044 0 1 1 0-.087h.035a.044.044 0 0 1 0 .087zm-.45 0h-.045a.044.044 0 1 1 0-.087h.035a.044.044 0 0 1 0 .087zm-.45 0h-.045a.044.044 0 1 1 0-.087h.035a.044.044 0 0 1 0 .087zm-.45 0h-.045a.044.044 0 1 1 0-.087h.035a.044.044 0 1 1 0 .087zm-.45 0h-.045a.044.044 0 1 1 0-.087h.035a.044.044 0 0 1 0 .087zm-.45 0h-.046a.044.044 0 0 1 0-.087h.035a.044.044 0 0 1 0 .087zm-.45 0h-.046a.044.044 0 0 1 0-.087h.035a.044.044 0 0 1 0 .087zm-.45 0h-.046a.044.044 0 0 1 0-.087h.035a.044.044 0 0 1 0 .087zm-.45 0h-.046a.044.044 0 0 1 0-.087h.035a.044.044 0 0 1 0 .087zm-.45 0h-.046a.044.044 0 1 1 0-.087h.035a.044.044 0 1 1 0 .087z" opacity=".5"/><path d="m29.956 6.618h-.017a.044.044 0 0 1 0-.087h.017a.044.044 0 1 1 0 .087z" opacity=".5"/><path d="m2.061 9.759h-.018a.044.044 0 0 1 0-.087h.018a.044.044 0 1 1 0 .087z" opacity=".5"/><path d="m29.523 9.759h-.034a.044.044 0 1 1 0-.087h.034a.044.044 0 0 1 0 .087zm-.45 0h-.035a.044.044 0 1 1 0-.087h.035a.044.044 0 1 1 0 .087zm-.45 0h-.035a.044.044 0 1 1 0-.087h.035a.044.044 0 1 1 0 .087zm-.45 0h-.035a.044.044 0 1 1 0-.087h.035a.044.044 0 1 1 0 .087zm-.45 0h-.034a.044.044 0 0 1 0-.087h.034a.044.044 0 1 1 0 .087zm-.45 0h-.035a.044.044 0 0 1 0-.087h.035a.044.044 0 0 1 0 .087zm-.45 0h-.035a.044.044 0 1 1 0-.087h.035a.044.044 0 1 1 0 .087zm-.45 0h-.034a.044.044 0 1 1 0-.087h.034a.044.044 0 1 1 0 .087zm-.45 0h-.035a.044.044 0 1 1 0-.087h.035a.044.044 0 1 1 0 .087zm-.45 0h-.035a.044.044 0 0 1 0-.087h.035a.044.044 0 0 1 0 .087zm-.45 0h-.035a.044.044 0 1 1 0-.087h.035a.044.044 0 1 1 0 .087zm-.45 0h-.034a.044.044 0 1 1 0-.087h.034a.044.044 0 1 1 0 .087zm-.45 0h-.035a.044.044 0 1 1 0-.087h.035a.044.044 0 1 1 0 .087zm-.45 0h-.035a.044.044 0 0 1 0-.087h.035a.044.044 0 0 1 0 .087zm-.45 0h-.034a.044.044 0 1 1 0-.087h.034a.044.044 0 0 1 0 .087zm-.45 0h-.034a.044.044 0 1 1 0-.087h.034a.044.044 0 1 1 0 .087zm-.45 0h-.035a.044.044 0 1 1 0-.087h.035a.044.044 0 1 1 0 .087zm-.45 0h-.035a.044.044 0 1 1 0-.087h.035a.044.044 0 1 1 0 .087zm-.45 0h-.034a.044.044 0 0 1 0-.087h.034a.044.044 0 0 1 0 .087zm-.45 0h-.035a.044.044 0 1 1 0-.087h.035a.044.044 0 1 1 0 .087zm-.45 0h-.035a.044.044 0 1 1 0-.087h.035a.044.044 0 1 1 0 .087zm-.45 0h-.034a.044.044 0 1 1 0-.087h.034a.044.044 0 1 1 0 .087zm-.45 0h-.034a.044.044 0 0 1 0-.087h.034a.044.044 0 1 1 0 .087zm-.45 0h-.035a.044.044 0 0 1 0-.087h.035a.044.044 0 0 1 0 .087zm-.45 0h-.035a.044.044 0 1 1 0-.087h.035a.044.044 0 1 1 0 .087zm-.45 0h-.034a.044.044 0 1 1 0-.087h.034a.044.044 0 1 1 0 .087zm-.45 0h-.035a.044.044 0 1 1 0-.087h.035a.044.044 0 1 1 0 .087zm-.45 0h-.035a.044.044 0 0 1 0-.087h.035a.044.044 0 0 1 0 .087zm-.45 0h-.035a.044.044 0 1 1 0-.087h.035a.044.044 0 1 1 0 .087zm-.45 0h-.034a.044.044 0 1 1 0-.087h.034a.044.044 0 1 1 0 .087zm-.45 0h-.035a.044.044 0 1 1 0-.087h.035a.044.044 0 1 1 0 .087zm-.45 0h-.035a.044.044 0 0 1 0-.087h.035a.044.044 0 1 1 0 .087zm-.45 0h-.035a.044.044 0 1 1 0-.087h.035a.044.044 0 1 1 0 .087zm-.45 0h-.035a.044.044 0 1 1 0-.087h.035a.044.044 0 1 1 0 .087zm-.45 0h-.035a.044.044 0 1 1 0-.087h.035a.044.044 0 1 1 0 .087zm-.45 0h-.035a.044.044 0 1 1 0-.087h.035a.044.044 0 1 1 0 .087zm-.45 0h-.035a.044.044 0 1 1 0-.087h.035a.044.044 0 1 1 0 .087zm-.45 0h-.035a.044.044 0 1 1 0-.087h.035a.044.044 0 0 1 0 .087zm-.45 0h-.035a.044.044 0 1 1 0-.087h.035a.044.044 0 1 1 0 .087zm-.45 0h-.035a.044.044 0 1 1 0-.087h.035a.044.044 0 0 1 0 .087zm-.45 0h-.035a.044.044 0 1 1 0-.087h.035a.044.044 0 1 1 0 .087zm-.45 0h-.043a.044.044 0 1 1 0-.087h.035a.044.044 0 0 1 0 .087zm-.45 0h-.043a.044.044 0 1 1 0-.087h.035a.044.044 0 1 1 0 .087zm-.45 0h-.043a.044.044 0 0 1 0-.087h.035a.044.044 0 0 1 0 .087zm-.45 0h-.043a.044.044 0 1 1 0-.087h.035a.044.044 0 0 1 0 .087zm-.45 0h-.044a.044.044 0 1 1 0-.087h.035a.044.044 0 1 1 0 .087zm-.45 0h-.044a.044.044 0 1 1 0-.087h.035a.044.044 0 1 1 0 .087zm-.45 0h-.044a.044.044 0 0 1 0-.087h.035a.044.044 0 1 1 0 .087zm-.45 0h-.044a.044.044 0 1 1 0-.087h.035a.044.044 0 0 1 0 .087zm-.45 0h-.044a.044.044 0 1 1 0-.087h.035a.044.044 0 0 1 0 .087zm-.45 0h-.044a.044.044 0 1 1 0-.087h.035a.044.044 0 1 1 0 .087zm-.45 0h-.045a.044.044 0 1 1 0-.087h.035a.044.044 0 0 1 0 .087zm-.45 0h-.045a.044.044 0 1 1 0-.087h.035a.044.044 0 0 1 0 .087zm-.45 0h-.045a.044.044 0 1 1 0-.087h.035a.044.044 0 0 1 0 .087zm-.45 0h-.045a.044.044 0 1 1 0-.087h.035a.044.044 0 1 1 0 .087zm-.45 0h-.045a.044.044 0 1 1 0-.087h.035a.044.044 0 0 1 0 .087zm-.45 0h-.046a.044.044 0 1 1 0-.087h.035a.044.044 0 0 1 0 .087zm-.45 0h-.046a.044.044 0 0 1 0-.087h.035a.044.044 0 1 1 0 .087zm-.45 0h-.046a.044.044 0 1 1 0-.087h.035a.044.044 0 1 1 0 .087zm-.45 0h-.046a.044.044 0 0 1 0-.087h.035a.044.044 0 1 1 0 .087zm-.45 0h-.046a.044.044 0 0 1 0-.087h.035a.044.044 0 0 1 0 .087z" opacity=".5"/><path d="m29.956 9.759h-.017a.044.044 0 0 1 0-.087h.017a.044.044 0 1 1 0 .087z" opacity=".5"/><path d="m2.061 19.18h-.018a.044.044 0 1 1 0-.087h.018a.044.044 0 1 1 0 .087z" opacity=".5"/><path d="m29.523 19.18h-.034a.044.044 0 1 1 0-.087h.034a.044.044 0 0 1 0 .087zm-.45 0h-.035a.044.044 0 1 1 0-.087h.035a.044.044 0 1 1 0 .087zm-.45 0h-.035a.044.044 0 1 1 0-.087h.035a.044.044 0 1 1 0 .087zm-.45 0h-.035a.044.044 0 1 1 0-.087h.035a.044.044 0 1 1 0 .087zm-.45 0h-.034a.044.044 0 0 1 0-.087h.034a.044.044 0 1 1 0 .087zm-.45 0h-.035a.044.044 0 0 1 0-.087h.035a.044.044 0 0 1 0 .087zm-.45 0h-.035a.044.044 0 1 1 0-.087h.035a.044.044 0 1 1 0 .087zm-.45 0h-.034a.044.044 0 1 1 0-.087h.034a.044.044 0 1 1 0 .087zm-.45 0h-.035a.044.044 0 1 1 0-.087h.035a.044.044 0 1 1 0 .087zm-.45 0h-.035a.044.044 0 0 1 0-.087h.035a.044.044 0 0 1 0 .087zm-.45 0h-.035a.044.044 0 1 1 0-.087h.035a.044.044 0 1 1 0 .087zm-.45 0h-.034a.044.044 0 1 1 0-.087h.034a.044.044 0 1 1 0 .087zm-.45 0h-.035a.044.044 0 1 1 0-.087h.035a.044.044 0 1 1 0 .087zm-.45 0h-.035a.044.044 0 0 1 0-.087h.035a.044.044 0 0 1 0 .087zm-.45 0h-.034a.044.044 0 1 1 0-.087h.034a.044.044 0 0 1 0 .087zm-.45 0h-.034a.044.044 0 1 1 0-.087h.034a.044.044 0 1 1 0 .087zm-.45 0h-.035a.044.044 0 1 1 0-.087h.035a.044.044 0 1 1 0 .087zm-.45 0h-.035a.044.044 0 1 1 0-.087h.035a.044.044 0 1 1 0 .087zm-.45 0h-.034a.044.044 0 0 1 0-.087h.034a.044.044 0 0 1 0 .087zm-.45 0h-.035a.044.044 0 1 1 0-.087h.035a.044.044 0 1 1 0 .087zm-.45 0h-.035a.044.044 0 1 1 0-.087h.035a.044.044 0 1 1 0 .087zm-.45 0h-.034a.044.044 0 1 1 0-.087h.034a.044.044 0 1 1 0 .087zm-.45 0h-.034a.044.044 0 0 1 0-.087h.034a.044.044 0 1 1 0 .087zm-.45 0h-.035a.044.044 0 0 1 0-.087h.035a.044.044 0 0 1 0 .087zm-.45 0h-.035a.044.044 0 1 1 0-.087h.035a.044.044 0 1 1 0 .087zm-.45 0h-.034a.044.044 0 1 1 0-.087h.034a.044.044 0 1 1 0 .087zm-.45 0h-.035a.044.044 0 1 1 0-.087h.035a.044.044 0 1 1 0 .087zm-.45 0h-.035a.044.044 0 0 1 0-.087h.035a.044.044 0 0 1 0 .087zm-.45 0h-.035a.044.044 0 1 1 0-.087h.035a.044.044 0 1 1 0 .087zm-.45 0h-.034a.044.044 0 1 1 0-.087h.034a.044.044 0 1 1 0 .087zm-.45 0h-.035a.044.044 0 1 1 0-.087h.035a.044.044 0 1 1 0 .087zm-.45 0h-.035a.044.044 0 0 1 0-.087h.035a.044.044 0 1 1 0 .087zm-.45 0h-.035a.044.044 0 1 1 0-.087h.035a.044.044 0 1 1 0 .087zm-.45 0h-.035a.044.044 0 1 1 0-.087h.035a.044.044 0 1 1 0 .087zm-.45 0h-.035a.044.044 0 1 1 0-.087h.035a.044.044 0 1 1 0 .087zm-.45 0h-.035a.044.044 0 1 1 0-.087h.035a.044.044 0 1 1 0 .087zm-.45 0h-.035a.044.044 0 1 1 0-.087h.035a.044.044 0 1 1 0 .087zm-.45 0h-.035a.044.044 0 1 1 0-.087h.035a.044.044 0 0 1 0 .087zm-.45 0h-.035a.044.044 0 1 1 0-.087h.035a.044.044 0 1 1 0 .087zm-.45 0h-.035a.044.044 0 1 1 0-.087h.035a.044.044 0 0 1 0 .087zm-.45 0h-.035a.044.044 0 1 1 0-.087h.035a.044.044 0 1 1 0 .087zm-.45 0h-.043a.044.044 0 1 1 0-.087h.035a.044.044 0 0 1 0 .087zm-.45 0h-.043a.044.044 0 1 1 0-.087h.035a.044.044 0 1 1 0 .087zm-.45 0h-.043a.044.044 0 0 1 0-.087h.035a.044.044 0 0 1 0 .087zm-.45 0h-.043a.044.044 0 1 1 0-.087h.035a.044.044 0 1 1 0 .087zm-.45 0h-.044a.044.044 0 1 1 0-.087h.035a.044.044 0 1 1 0 .087zm-.45 0h-.044a.044.044 0 1 1 0-.087h.035a.044.044 0 1 1 0 .087zm-.45 0h-.044a.044.044 0 1 1 0-.087h.035a.044.044 0 1 1 0 .087zm-.45 0h-.044a.044.044 0 1 1 0-.087h.035a.044.044 0 1 1 0 .087zm-.45 0h-.044a.044.044 0 1 1 0-.087h.035a.044.044 0 1 1 0 .087zm-.45 0h-.044a.044.044 0 1 1 0-.087h.035a.044.044 0 1 1 0 .087zm-.45 0h-.045a.044.044 0 1 1 0-.087h.035a.044.044 0 1 1 0 .087zm-.45 0h-.045a.044.044 0 1 1 0-.087h.035a.044.044 0 1 1 0 .087zm-.45 0h-.045a.044.044 0 1 1 0-.087h.035a.044.044 0 1 1 0 .087zm-.45 0h-.045a.044.044 0 1 1 0-.087h.035a.044.044 0 1 1 0 .087zm-.45 0h-.045a.044.044 0 1 1 0-.087h.035a.044.044 0 1 1 0 .087zm-.45 0h-.046a.044.044 0 1 1 0-.087h.035a.044.044 0 1 1 0 .087zm-.45 0h-.046a.044.044 0 1 1 0-.087h.035a.044.044 0 1 1 0 .087zm-.45 0h-.046a.044.044 0 1 1 0-.087h.035a.044.044 0 1 1 0 .087zm-.45 0h-.046a.044.044 0 1 1 0-.087h.035a.044.044 0 1 1 0 .087zm-.45 0h-.046a.044.044 0 1 1 0-.087h.035a.044.044 0 1 1 0 .087z" opacity=".5"/><path d="m29.956 19.18h-.017a.044.044 0 0 1 0-.087h.017a.044.044 0 1 1 0 .087z" opacity=".5"/><path d="m2.061 22.32h-.018a.044.044 0 0 1 0-.087h.018a.044.044 0 0 1 0 .087z" opacity=".5"/><path d="m29.523 22.32h-.034a.044.044 0 1 1 0-.087h.034a.044.044 0 0 1 0 .087zm-.45 0h-.035a.044.044 0 1 1 0-.087h.035a.044.044 0 0 1 0 .087zm-.45 0h-.035a.044.044 0 1 1 0-.087h.035a.044.044 0 1 1 0 .087zm-.45 0h-.035a.044.044 0 1 1 0-.087h.035a.044.044 0 0 1 0 .087zm-.45 0h-.034a.044.044 0 0 1 0-.087h.034a.044.044 0 0 1 0 .087zm-.45 0h-.035a.044.044 0 0 1 0-.087h.035a.044.044 0 0 1 0 .087zm-.45 0h-.035a.044.044 0 1 1 0-.087h.035a.044.044 0 0 1 0 .087zm-.45 0h-.034a.044.044 0 1 1 0-.087h.034a.044.044 0 0 1 0 .087zm-.45 0h-.035a.044.044 0 1 1 0-.087h.035a.044.044 0 1 1 0 .087zm-.45 0h-.035a.044.044 0 0 1 0-.087h.035a.044.044 0 0 1 0 .087zm-.45 0h-.035a.044.044 0 1 1 0-.087h.035a.044.044 0 0 1 0 .087zm-.45 0h-.034a.044.044 0 1 1 0-.087h.034a.044.044 0 1 1 0 .087zm-.45 0h-.035a.044.044 0 1 1 0-.087h.035a.044.044 0 1 1 0 .087zm-.45 0h-.035a.044.044 0 0 1 0-.087h.035a.044.044 0 0 1 0 .087zm-.45 0h-.034a.044.044 0 1 1 0-.087h.034a.044.044 0 0 1 0 .087zm-.45 0h-.034a.044.044 0 1 1 0-.087h.034a.044.044 0 0 1 0 .087zm-.45 0h-.035a.044.044 0 1 1 0-.087h.035a.044.044 0 0 1 0 .087zm-.45 0h-.035a.044.044 0 1 1 0-.087h.035a.044.044 0 1 1 0 .087zm-.45 0h-.034a.044.044 0 0 1 0-.087h.034a.044.044 0 0 1 0 .087zm-.45 0h-.035a.044.044 0 1 1 0-.087h.035a.044.044 0 0 1 0 .087zm-.45 0h-.035a.044.044 0 1 1 0-.087h.035a.044.044 0 1 1 0 .087zm-.45 0h-.034a.044.044 0 0 1 0-.087h.034a.044.044 0 1 1 0 .087zm-.45 0h-.034a.044.044 0 0 1 0-.087h.034a.044.044 0 1 1 0 .087zm-.45 0h-.035a.044.044 0 0 1 0-.087h.035a.044.044 0 0 1 0 .087zm-.45 0h-.035a.044.044 0 1 1 0-.087h.035a.044.044 0 1 1 0 .087zm-.45 0h-.034a.044.044 0 1 1 0-.087h.034a.044.044 0 0 1 0 .087zm-.45 0h-.035a.044.044 0 1 1 0-.087h.035a.044.044 0 0 1 0 .087zm-.45 0h-.035a.044.044 0 0 1 0-.087h.035a.044.044 0 0 1 0 .087zm-.45 0h-.035a.044.044 0 1 1 0-.087h.035a.044.044 0 0 1 0 .087zm-.45 0h-.034a.044.044 0 1 1 0-.087h.034a.044.044 0 0 1 0 .087zm-.45 0h-.035a.044.044 0 1 1 0-.087h.035a.044.044 0 0 1 0 .087zm-.45 0h-.035a.044.044 0 0 1 0-.087h.035a.044.044 0 0 1 0 .087zm-.45 0h-.035a.044.044 0 0 1 0-.087h.035a.044.044 0 0 1 0 .087zm-.45 0h-.035a.044.044 0 1 1 0-.087h.035a.044.044 0 0 1 0 .087zm-.45 0h-.035a.044.044 0 1 1 0-.087h.035a.044.044 0 0 1 0 .087zm-.45 0h-.035a.044.044 0 0 1 0-.087h.035a.044.044 0 0 1 0 .087zm-.45 0h-.035a.044.044 0 0 1 0-.087h.035a.044.044 0 0 1 0 .087zm-.45 0h-.035a.044.044 0 0 1 0-.087h.035a.044.044 0 0 1 0 .087zm-.45 0h-.035a.044.044 0 1 1 0-.087h.035a.044.044 0 0 1 0 .087zm-.45 0h-.035a.044.044 0 1 1 0-.087h.035a.044.044 0 0 1 0 .087zm-.45 0h-.035a.044.044 0 0 1 0-.087h.035a.044.044 0 1 1 0 .087zm-.45 0h-.043a.044.044 0 0 1 0-.087h.035a.044.044 0 0 1 0 .087zm-.45 0h-.043a.044.044 0 1 1 0-.087h.035a.044.044 0 1 1 0 .087zm-.45 0h-.043a.044.044 0 0 1 0-.087h.035a.044.044 0 0 1 0 .087zm-.45 0h-.043a.044.044 0 0 1 0-.087h.035a.044.044 0 0 1 0 .087zm-.45 0h-.044a.044.044 0 0 1 0-.087h.035a.044.044 0 0 1 0 .087zm-.45 0h-.044a.044.044 0 0 1 0-.087h.035a.044.044 0 0 1 0 .087zm-.45 0h-.044a.044.044 0 0 1 0-.087h.035a.044.044 0 0 1 0 .087zm-.45 0h-.044a.044.044 0 0 1 0-.087h.035a.044.044 0 0 1 0 .087zm-.45 0h-.044a.044.044 0 0 1 0-.087h.035a.044.044 0 0 1 0 .087zm-.45 0h-.044a.044.044 0 0 1 0-.087h.035a.044.044 0 0 1 0 .087zm-.45 0h-.045a.044.044 0 0 1 0-.087h.035a.044.044 0 0 1 0 .087zm-.45 0h-.045a.044.044 0 0 1 0-.087h.035a.044.044 0 0 1 0 .087zm-.45 0h-.045a.044.044 0 0 1 0-.087h.035a.044.044 0 0 1 0 .087zm-.45 0h-.045a.044.044 0 0 1 0-.087h.035a.044.044 0 0 1 0 .087zm-.45 0h-.045a.044.044 0 0 1 0-.087h.035a.044.044 0 0 1 0 .087zm-.45 0h-.046a.044.044 0 0 1 0-.087h.035a.044.044 0 0 1 0 .087zm-.45 0h-.046a.044.044 0 0 1 0-.087h.035a.044.044 0 0 1 0 .087zm-.45 0h-.046a.044.044 0 0 1 0-.087h.035a.044.044 0 0 1 0 .087zm-.45 0h-.046a.044.044 0 0 1 0-.087h.035a.044.044 0 0 1 0 .087zm-.45 0h-.046a.044.044 0 0 1 0-.087h.035a.044.044 0 0 1 0 .087z" opacity=".5"/><path d="m29.956 22.32h-.017a.044.044 0 0 1 0-.087h.017a.044.044 0 0 1 0 .087z" opacity=".5"/><path d="m2.061 25.461h-.018a.044.044 0 1 1 0-.087h.018a.044.044 0 1 1 0 .087z" opacity=".5"/><path d="m29.523 25.461h-.034a.044.044 0 1 1 0-.087h.034a.044.044 0 0 1 0 .087zm-.45 0h-.035a.044.044 0 1 1 0-.087h.035a.044.044 0 1 1 0 .087zm-.45 0h-.035a.044.044 0 1 1 0-.087h.035a.044.044 0 1 1 0 .087zm-.45 0h-.035a.044.044 0 1 1 0-.087h.035a.044.044 0 1 1 0 .087zm-.45 0h-.034a.044.044 0 0 1 0-.087h.034a.044.044 0 1 1 0 .087zm-.45 0h-.035a.044.044 0 0 1 0-.087h.035a.044.044 0 0 1 0 .087zm-.45 0h-.035a.044.044 0 1 1 0-.087h.035a.044.044 0 1 1 0 .087zm-.45 0h-.034a.044.044 0 1 1 0-.087h.034a.044.044 0 1 1 0 .087zm-.45 0h-.035a.044.044 0 1 1 0-.087h.035a.044.044 0 1 1 0 .087zm-.45 0h-.035a.044.044 0 0 1 0-.087h.035a.044.044 0 0 1 0 .087zm-.45 0h-.035a.044.044 0 1 1 0-.087h.035a.044.044 0 1 1 0 .087zm-.45 0h-.034a.044.044 0 1 1 0-.087h.034a.044.044 0 1 1 0 .087zm-.45 0h-.035a.044.044 0 1 1 0-.087h.035a.044.044 0 1 1 0 .087zm-.45 0h-.035a.044.044 0 0 1 0-.087h.035a.044.044 0 0 1 0 .087zm-.45 0h-.034a.044.044 0 1 1 0-.087h.034a.044.044 0 0 1 0 .087zm-.45 0h-.034a.044.044 0 1 1 0-.087h.034a.044.044 0 1 1 0 .087zm-.45 0h-.035a.044.044 0 1 1 0-.087h.035a.044.044 0 1 1 0 .087zm-.45 0h-.035a.044.044 0 1 1 0-.087h.035a.044.044 0 1 1 0 .087zm-.45 0h-.034a.044.044 0 0 1 0-.087h.034a.044.044 0 0 1 0 .087zm-.45 0h-.035a.044.044 0 1 1 0-.087h.035a.044.044 0 1 1 0 .087zm-.45 0h-.035a.044.044 0 1 1 0-.087h.035a.044.044 0 1 1 0 .087zm-.45 0h-.034a.044.044 0 1 1 0-.087h.034a.044.044 0 1 1 0 .087zm-.45 0h-.034a.044.044 0 0 1 0-.087h.034a.044.044 0 1 1 0 .087zm-.45 0h-.035a.044.044 0 0 1 0-.087h.035a.044.044 0 0 1 0 .087zm-.45 0h-.035a.044.044 0 1 1 0-.087h.035a.044.044 0 1 1 0 .087zm-.45 0h-.034a.044.044 0 1 1 0-.087h.034a.044.044 0 1 1 0 .087zm-.45 0h-.035a.044.044 0 1 1 0-.087h.035a.044.044 0 1 1 0 .087zm-.45 0h-.035a.044.044 0 0 1 0-.087h.035a.044.044 0 0 1 0 .087zm-.45 0h-.035a.044.044 0 1 1 0-.087h.035a.044.044 0 1 1 0 .087zm-.45 0h-.034a.044.044 0 1 1 0-.087h.034a.044.044 0 1 1 0 .087zm-.45 0h-.035a.044.044 0 1 1 0-.087h.035a.044.044 0 1 1 0 .087zm-.45 0h-.035a.044.044 0 0 1 0-.087h.035a.044.044 0 1 1 0 .087zm-.45 0h-.035a.044.044 0 1 1 0-.087h.035a.044.044 0 1 1 0 .087zm-.45 0h-.035a.044.044 0 1 1 0-.087h.035a.044.044 0 1 1 0 .087zm-.45 0h-.035a.044.044 0 1 1 0-.087h.035a.044.044 0 1 1 0 .087zm-.45 0h-.035a.044.044 0 1 1 0-.087h.035a.044.044 0 1 1 0 .087zm-.45 0h-.035a.044.044 0 1 1 0-.087h.035a.044.044 0 1 1 0 .087zm-.45 0h-.035a.044.044 0 1 1 0-.087h.035a.044.044 0 0 1 0 .087zm-.45 0h-.035a.044.044 0 1 1 0-.087h.035a.044.044 0 1 1 0 .087zm-.45 0h-.035a.044.044 0 1 1 0-.087h.035a.044.044 0 0 1 0 .087zm-.45 0h-.035a.044.044 0 1 1 0-.087h.035a.044.044 0 1 1 0 .087zm-.45 0h-.043a.044.044 0 1 1 0-.087h.035a.044.044 0 0 1 0 .087zm-.45 0h-.043a.044.044 0 1 1 0-.087h.035a.044.044 0 1 1 0 .087zm-.45 0h-.043a.044.044 0 0 1 0-.087h.035a.044.044 0 0 1 0 .087zm-.45 0h-.043a.044.044 0 1 1 0-.087h.035a.044.044 0 1 1 0 .087zm-.45 0h-.044a.044.044 0 1 1 0-.087h.035a.044.044 0 1 1 0 .087zm-.45 0h-.044a.044.044 0 1 1 0-.087h.035a.044.044 0 1 1 0 .087zm-.45 0h-.044a.044.044 0 1 1 0-.087h.035a.044.044 0 1 1 0 .087zm-.45 0h-.044a.044.044 0 1 1 0-.087h.035a.044.044 0 1 1 0 .087zm-.45 0h-.044a.044.044 0 1 1 0-.087h.035a.044.044 0 1 1 0 .087zm-.45 0h-.044a.044.044 0 1 1 0-.087h.035a.044.044 0 1 1 0 .087zm-.45 0h-.045a.044.044 0 1 1 0-.087h.035a.044.044 0 1 1 0 .087zm-.45 0h-.045a.044.044 0 1 1 0-.087h.035a.044.044 0 1 1 0 .087zm-.45 0h-.045a.044.044 0 1 1 0-.087h.035a.044.044 0 1 1 0 .087zm-.45 0h-.045a.044.044 0 1 1 0-.087h.035a.044.044 0 1 1 0 .087zm-.45 0h-.045a.044.044 0 1 1 0-.087h.035a.044.044 0 1 1 0 .087zm-.45 0h-.046a.044.044 0 1 1 0-.087h.035a.044.044 0 1 1 0 .087zm-.45 0h-.046a.044.044 0 1 1 0-.087h.035a.044.044 0 1 1 0 .087zm-.45 0h-.046a.044.044 0 1 1 0-.087h.035a.044.044 0 1 1 0 .087zm-.45 0h-.046a.044.044 0 1 1 0-.087h.035a.044.044 0 1 1 0 .087zm-.45 0h-.046a.044.044 0 1 1 0-.087h.035a.044.044 0 1 1 0 .087z" opacity=".5"/><path d="m29.956 25.461h-.017a.044.044 0 0 1 0-.087h.017a.044.044 0 1 1 0 .087z" opacity=".5"/><path d="m15.956 2.044h.087v27.913h-.087z" opacity=".5"/><path d="m28.517 2.044h.087v27.913h-.087z" opacity=".5"/><path d="m3.395 2.044h.087v27.913h-.087z" opacity=".5"/><path d="m19.14 30a.043.043 0 0 1 -.044-.044v-.018a.044.044 0 0 1 .087 0v.018a.043.043 0 0 1 -.043.044z" opacity=".5"/><path d="m19.14 29.567a.043.043 0 0 1 -.044-.044v-.035a.044.044 0 1 1 .087 0v.035a.043.043 0 0 1 -.043.044zm0-.45a.043.043 0 0 1 -.044-.044v-.035a.044.044 0 0 1 .087 0v.035a.043.043 0 0 1 -.043.044zm0-.45a.043.043 0 0 1 -.044-.044v-.034a.044.044 0 0 1 .087 0v.034a.043.043 0 0 1 -.043.043zm0-.45a.043.043 0 0 1 -.044-.044v-.034a.044.044 0 1 1 .087 0v.034a.043.043 0 0 1 -.043.043zm0-.45a.043.043 0 0 1 -.044-.044v-.035a.044.044 0 1 1 .087 0v.035a.043.043 0 0 1 -.043.043zm0-.45a.043.043 0 0 1 -.044-.044v-.035a.044.044 0 0 1 .087 0v.035a.043.043 0 0 1 -.043.043zm0-.45a.043.043 0 0 1 -.044-.044v-.034a.044.044 0 0 1 .087 0v.034a.043.043 0 0 1 -.043.043zm0-.45a.043.043 0 0 1 -.044-.044v-.035a.044.044 0 1 1 .087 0v.035a.043.043 0 0 1 -.043.043zm0-.45a.043.043 0 0 1 -.044-.044v-.035a.044.044 0 0 1 .087 0v.035a.043.043 0 0 1 -.043.042zm0-.45a.043.043 0 0 1 -.044-.044v-.034a.044.044 0 1 1 .087 0v.034a.043.043 0 0 1 -.043.042zm0-.45a.043.043 0 0 1 -.044-.044v-.034a.044.044 0 0 1 .087 0v.034a.043.043 0 0 1 -.043.042zm0-.45a.043.043 0 0 1 -.044-.044v-.035a.044.044 0 0 1 .087 0v.035a.043.043 0 0 1 -.043.042zm0-.45a.043.043 0 0 1 -.044-.044v-.035a.044.044 0 0 1 .087 0v.035a.043.043 0 0 1 -.043.042zm0-.45a.043.043 0 0 1 -.044-.044v-.034a.044.044 0 1 1 .087 0v.034a.043.043 0 0 1 -.043.041zm0-.45a.043.043 0 0 1 -.044-.044v-.035a.044.044 0 1 1 .087 0v.035a.043.043 0 0 1 -.043.041zm0-.45a.043.043 0 0 1 -.044-.044v-.035a.044.044 0 0 1 .087 0v.035a.043.043 0 0 1 -.043.041zm0-.45a.043.043 0 0 1 -.044-.044v-.035a.044.044 0 1 1 .087 0v.035a.043.043 0 0 1 -.043.041zm0-.45a.043.043 0 0 1 -.044-.044v-.034a.044.044 0 0 1 .087 0v.034a.043.043 0 0 1 -.043.04zm0-.45a.043.043 0 0 1 -.044-.044v-.035a.044.044 0 0 1 .087 0v.035a.043.043 0 0 1 -.043.04zm0-.45a.043.043 0 0 1 -.044-.044v-.035a.044.044 0 0 1 .087 0v.035a.043.043 0 0 1 -.043.04zm0-.45a.043.043 0 0 1 -.044-.044v-.034a.044.044 0 1 1 .087 0v.034a.043.043 0 0 1 -.043.04zm0-.45a.043.043 0 0 1 -.044-.044v-.034a.044.044 0 0 1 .087 0v.034a.043.043 0 0 1 -.043.04zm0-.45a.043.043 0 0 1 -.044-.044v-.035a.044.044 0 1 1 .087 0v.035a.043.043 0 0 1 -.043.04zm0-.45a.043.043 0 0 1 -.044-.044v-.035a.044.044 0 1 1 .087 0v.035a.043.043 0 0 1 -.043.04zm0-.45a.043.043 0 0 1 -.044-.044v-.034a.044.044 0 0 1 .087 0v.034a.043.043 0 0 1 -.043.039zm0-.45a.043.043 0 0 1 -.044-.044v-.035a.044.044 0 0 1 .087 0v.035a.043.043 0 0 1 -.043.039zm0-.45a.043.043 0 0 1 -.044-.044v-.035a.044.044 0 1 1 .087 0v.035a.043.043 0 0 1 -.043.039zm0-.45a.043.043 0 0 1 -.044-.044v-.034a.044.044 0 0 1 .087 0v.034a.043.043 0 0 1 -.043.038zm0-.45a.043.043 0 0 1 -.044-.044v-.034a.044.044 0 0 1 .087 0v.034a.043.043 0 0 1 -.043.038zm0-.45a.043.043 0 0 1 -.044-.044v-.035a.044.044 0 0 1 .087 0v.035a.043.043 0 0 1 -.043.038zm0-.45a.043.043 0 0 1 -.044-.044v-.035a.044.044 0 0 1 .087 0v.035a.043.043 0 0 1 -.043.038zm0-.45a.044.044 0 0 1 -.044-.044v-.035a.044.044 0 0 1 .087 0v.035a.044.044 0 0 1 -.043.038zm0-.45a.044.044 0 0 1 -.044-.044v-.035a.044.044 0 1 1 .087 0v.035a.044.044 0 0 1 -.043.038zm0-.45a.044.044 0 0 1 -.044-.044v-.035a.044.044 0 0 1 .087 0v.035a.044.044 0 0 1 -.043.037zm0-.45a.044.044 0 0 1 -.044-.044v-.035a.044.044 0 0 1 .087 0v.035a.044.044 0 0 1 -.043.037zm0-.45a.044.044 0 0 1 -.044-.044v-.035a.044.044 0 0 1 .087 0v.035a.044.044 0 0 1 -.043.037zm0-.45a.044.044 0 0 1 -.044-.044v-.035a.044.044 0 1 1 .087 0v.035a.044.044 0 0 1 -.043.037zm0-.45a.044.044 0 0 1 -.044-.044v-.035a.044.044 0 1 1 .087 0v.035a.044.044 0 0 1 -.043.036zm0-.45a.044.044 0 0 1 -.044-.044v-.035a.044.044 0 0 1 .087 0v.035a.044.044 0 0 1 -.043.036zm0-.45a.044.044 0 0 1 -.044-.044v-.035a.044.044 0 1 1 .087 0v.035a.044.044 0 0 1 -.043.036zm0-.45a.044.044 0 0 1 -.044-.044v-.035a.044.044 0 0 1 .087 0v.035a.044.044 0 0 1 -.043.036zm0-.45a.044.044 0 0 1 -.044-.044v-.035a.044.044 0 1 1 .087 0v.035a.044.044 0 0 1 -.043.036zm0-.45a.044.044 0 0 1 -.044-.044v-.043a.044.044 0 1 1 .087 0v.035a.044.044 0 0 1 -.043.044zm0-.45a.044.044 0 0 1 -.044-.044v-.043a.044.044 0 0 1 .087 0v.035a.044.044 0 0 1 -.043.043zm0-.45a.044.044 0 0 1 -.044-.044v-.043a.044.044 0 0 1 .087 0v.035a.044.044 0 0 1 -.043.043zm0-.45a.044.044 0 0 1 -.044-.044v-.043a.044.044 0 0 1 .087 0v.035a.044.044 0 0 1 -.043.043zm0-.45a.044.044 0 0 1 -.044-.044v-.044a.044.044 0 0 1 .087 0v.035a.044.044 0 0 1 -.043.044zm0-.45a.044.044 0 0 1 -.044-.044v-.044a.044.044 0 0 1 .087 0v.035a.044.044 0 0 1 -.043.044zm0-.45a.044.044 0 0 1 -.044-.044v-.044a.044.044 0 0 1 .087 0v.035a.044.044 0 0 1 -.043.043zm0-.45a.044.044 0 0 1 -.044-.044v-.044a.044.044 0 0 1 .087 0v.035a.044.044 0 0 1 -.043.043zm0-.45a.044.044 0 0 1 -.044-.044v-.044a.044.044 0 0 1 .087 0v.035a.044.044 0 0 1 -.043.043zm0-.45a.044.044 0 0 1 -.044-.044v-.045a.044.044 0 0 1 .087 0v.035a.044.044 0 0 1 -.043.044zm0-.45a.044.044 0 0 1 -.044-.044v-.045a.044.044 0 0 1 .087 0v.035a.044.044 0 0 1 -.043.044zm0-.45a.044.044 0 0 1 -.044-.044v-.045a.044.044 0 0 1 .087 0v.035a.044.044 0 0 1 -.043.043zm0-.45a.044.044 0 0 1 -.044-.044v-.045a.044.044 0 0 1 .087 0v.035a.044.044 0 0 1 -.043.043zm0-.45a.044.044 0 0 1 -.044-.044v-.045a.044.044 0 0 1 .087 0v.035a.044.044 0 0 1 -.043.043zm0-.45a.044.044 0 0 1 -.044-.044v-.045a.044.044 0 0 1 .087 0v.035a.044.044 0 0 1 -.043.043zm0-.45a.044.044 0 0 1 -.044-.044v-.046a.044.044 0 0 1 .087 0v.035a.044.044 0 0 1 -.043.043zm0-.45a.044.044 0 0 1 -.044-.044v-.046a.044.044 0 0 1 .087 0v.035a.044.044 0 0 1 -.043.043zm0-.45a.044.044 0 0 1 -.044-.044v-.046a.044.044 0 0 1 .087 0v.035a.044.044 0 0 1 -.043.043zm0-.45a.044.044 0 0 1 -.044-.044v-.046a.044.044 0 0 1 .087 0v.035a.044.044 0 0 1 -.043.043z" opacity=".5"/><path d="m19.14 2.1a.044.044 0 0 1 -.044-.044v-.012a.044.044 0 0 1 .087 0v.018a.044.044 0 0 1 -.043.038z" opacity=".5"/><path d="m22.28 30a.043.043 0 0 1 -.044-.044v-.018a.044.044 0 1 1 .087 0v.018a.043.043 0 0 1 -.043.044z" opacity=".5"/><path d="m22.28 29.567a.043.043 0 0 1 -.044-.044v-.035a.044.044 0 1 1 .087 0v.035a.043.043 0 0 1 -.043.044zm0-.45a.043.043 0 0 1 -.044-.044v-.035a.044.044 0 0 1 .087 0v.035a.043.043 0 0 1 -.043.044zm0-.45a.043.043 0 0 1 -.044-.044v-.034a.044.044 0 1 1 .087 0v.034a.043.043 0 0 1 -.043.043zm0-.45a.043.043 0 0 1 -.044-.044v-.034a.044.044 0 1 1 .087 0v.034a.043.043 0 0 1 -.043.043zm0-.45a.043.043 0 0 1 -.044-.044v-.035a.044.044 0 1 1 .087 0v.035a.043.043 0 0 1 -.043.043zm0-.45a.043.043 0 0 1 -.044-.044v-.035a.044.044 0 1 1 .087 0v.035a.043.043 0 0 1 -.043.043zm0-.45a.043.043 0 0 1 -.044-.044v-.034a.044.044 0 0 1 .087 0v.034a.043.043 0 0 1 -.043.043zm0-.45a.043.043 0 0 1 -.044-.044v-.035a.044.044 0 1 1 .087 0v.035a.043.043 0 0 1 -.043.043zm0-.45a.043.043 0 0 1 -.044-.044v-.035a.044.044 0 1 1 .087 0v.035a.043.043 0 0 1 -.043.042zm0-.45a.043.043 0 0 1 -.044-.044v-.034a.044.044 0 1 1 .087 0v.034a.043.043 0 0 1 -.043.042zm0-.45a.043.043 0 0 1 -.044-.044v-.034a.044.044 0 0 1 .087 0v.034a.043.043 0 0 1 -.043.042zm0-.45a.043.043 0 0 1 -.044-.044v-.035a.044.044 0 0 1 .087 0v.035a.043.043 0 0 1 -.043.042zm0-.45a.043.043 0 0 1 -.044-.044v-.035a.044.044 0 1 1 .087 0v.035a.043.043 0 0 1 -.043.042zm0-.45a.043.043 0 0 1 -.044-.044v-.034a.044.044 0 1 1 .087 0v.034a.043.043 0 0 1 -.043.041zm0-.45a.043.043 0 0 1 -.044-.044v-.035a.044.044 0 1 1 .087 0v.035a.043.043 0 0 1 -.043.041zm0-.45a.043.043 0 0 1 -.044-.044v-.035a.044.044 0 0 1 .087 0v.035a.043.043 0 0 1 -.043.041zm0-.45a.043.043 0 0 1 -.044-.044v-.035a.044.044 0 1 1 .087 0v.035a.043.043 0 0 1 -.043.041zm0-.45a.043.043 0 0 1 -.044-.044v-.034a.044.044 0 1 1 .087 0v.034a.043.043 0 0 1 -.043.04zm0-.45a.043.043 0 0 1 -.044-.044v-.035a.044.044 0 1 1 .087 0v.035a.043.043 0 0 1 -.043.04zm0-.45a.043.043 0 0 1 -.044-.044v-.035a.044.044 0 0 1 .087 0v.035a.043.043 0 0 1 -.043.04zm0-.45a.043.043 0 0 1 -.044-.044v-.034a.044.044 0 1 1 .087 0v.034a.043.043 0 0 1 -.043.04zm0-.45a.043.043 0 0 1 -.044-.044v-.034a.044.044 0 1 1 .087 0v.034a.043.043 0 0 1 -.043.04zm0-.45a.043.043 0 0 1 -.044-.044v-.035a.044.044 0 1 1 .087 0v.035a.043.043 0 0 1 -.043.04zm0-.45a.043.043 0 0 1 -.044-.044v-.035a.044.044 0 1 1 .087 0v.035a.043.043 0 0 1 -.043.04zm0-.45a.043.043 0 0 1 -.044-.044v-.034a.044.044 0 0 1 .087 0v.034a.043.043 0 0 1 -.043.039zm0-.45a.043.043 0 0 1 -.044-.044v-.035a.044.044 0 0 1 .087 0v.035a.043.043 0 0 1 -.043.039zm0-.45a.043.043 0 0 1 -.044-.044v-.035a.044.044 0 1 1 .087 0v.035a.043.043 0 0 1 -.043.039zm0-.45a.043.043 0 0 1 -.044-.044v-.034a.044.044 0 1 1 .087 0v.034a.043.043 0 0 1 -.043.038zm0-.45a.043.043 0 0 1 -.044-.044v-.034a.044.044 0 0 1 .087 0v.034a.043.043 0 0 1 -.043.038zm0-.45a.043.043 0 0 1 -.044-.044v-.035a.044.044 0 0 1 .087 0v.035a.043.043 0 0 1 -.043.038zm0-.45a.043.043 0 0 1 -.044-.044v-.035a.044.044 0 1 1 .087 0v.035a.043.043 0 0 1 -.043.038zm0-.45a.044.044 0 0 1 -.044-.044v-.035a.044.044 0 0 1 .087 0v.035a.044.044 0 0 1 -.043.038zm0-.45a.044.044 0 0 1 -.044-.044v-.035a.044.044 0 1 1 .087 0v.035a.044.044 0 0 1 -.043.038zm0-.45a.044.044 0 0 1 -.044-.044v-.035a.044.044 0 0 1 .087 0v.035a.044.044 0 0 1 -.043.037zm0-.45a.044.044 0 0 1 -.044-.044v-.035a.044.044 0 1 1 .087 0v.035a.044.044 0 0 1 -.043.037zm0-.45a.044.044 0 0 1 -.044-.044v-.035a.044.044 0 0 1 .087 0v.035a.044.044 0 0 1 -.043.037zm0-.45a.044.044 0 0 1 -.044-.044v-.035a.044.044 0 1 1 .087 0v.035a.044.044 0 0 1 -.043.037zm0-.45a.044.044 0 0 1 -.044-.044v-.035a.044.044 0 1 1 .087 0v.035a.044.044 0 0 1 -.043.036zm0-.45a.044.044 0 0 1 -.044-.044v-.035a.044.044 0 0 1 .087 0v.035a.044.044 0 0 1 -.043.036zm0-.45a.044.044 0 0 1 -.044-.044v-.035a.044.044 0 1 1 .087 0v.035a.044.044 0 0 1 -.043.036zm0-.45a.044.044 0 0 1 -.044-.044v-.035a.044.044 0 1 1 .087 0v.035a.044.044 0 0 1 -.043.036zm0-.45a.044.044 0 0 1 -.044-.044v-.035a.044.044 0 1 1 .087 0v.035a.044.044 0 0 1 -.043.036zm0-.45a.044.044 0 0 1 -.044-.044v-.043a.044.044 0 1 1 .087 0v.035a.044.044 0 0 1 -.043.044zm0-.45a.044.044 0 0 1 -.044-.044v-.043a.044.044 0 1 1 .087 0v.035a.044.044 0 0 1 -.043.043zm0-.45a.044.044 0 0 1 -.044-.044v-.043a.044.044 0 1 1 .087 0v.035a.044.044 0 0 1 -.043.043zm0-.45a.044.044 0 0 1 -.044-.044v-.043a.044.044 0 1 1 .087 0v.035a.044.044 0 0 1 -.043.043zm0-.45a.044.044 0 0 1 -.044-.044v-.044a.044.044 0 1 1 .087 0v.035a.044.044 0 0 1 -.043.044zm0-.45a.044.044 0 0 1 -.044-.044v-.044a.044.044 0 1 1 .087 0v.035a.044.044 0 0 1 -.043.044zm0-.45a.044.044 0 0 1 -.044-.044v-.044a.044.044 0 1 1 .087 0v.035a.044.044 0 0 1 -.043.043zm0-.45a.044.044 0 0 1 -.044-.044v-.044a.044.044 0 1 1 .087 0v.035a.044.044 0 0 1 -.043.043zm0-.45a.044.044 0 0 1 -.044-.044v-.044a.044.044 0 1 1 .087 0v.035a.044.044 0 0 1 -.043.043zm0-.45a.044.044 0 0 1 -.044-.044v-.045a.044.044 0 1 1 .087 0v.035a.044.044 0 0 1 -.043.044zm0-.45a.044.044 0 0 1 -.044-.044v-.045a.044.044 0 1 1 .087 0v.035a.044.044 0 0 1 -.043.044zm0-.45a.044.044 0 0 1 -.044-.044v-.045a.044.044 0 1 1 .087 0v.035a.044.044 0 0 1 -.043.043zm0-.45a.044.044 0 0 1 -.044-.044v-.045a.044.044 0 1 1 .087 0v.035a.044.044 0 0 1 -.043.043zm0-.45a.044.044 0 0 1 -.044-.044v-.045a.044.044 0 1 1 .087 0v.035a.044.044 0 0 1 -.043.043zm0-.45a.044.044 0 0 1 -.044-.044v-.045a.044.044 0 1 1 .087 0v.035a.044.044 0 0 1 -.043.043zm0-.45a.044.044 0 0 1 -.044-.044v-.046a.044.044 0 1 1 .087 0v.035a.044.044 0 0 1 -.043.043zm0-.45a.044.044 0 0 1 -.044-.044v-.046a.044.044 0 1 1 .087 0v.035a.044.044 0 0 1 -.043.043zm0-.45a.044.044 0 0 1 -.044-.044v-.046a.044.044 0 1 1 .087 0v.035a.044.044 0 0 1 -.043.043zm0-.45a.044.044 0 0 1 -.044-.044v-.046a.044.044 0 1 1 .087 0v.035a.044.044 0 0 1 -.043.043z" opacity=".5"/><path d="m22.28 2.1a.044.044 0 0 1 -.044-.044v-.012a.044.044 0 1 1 .087 0v.018a.044.044 0 0 1 -.043.038z" opacity=".5"/><path d="m25.42 30a.043.043 0 0 1 -.044-.044v-.018a.044.044 0 1 1 .087 0v.018a.043.043 0 0 1 -.043.044z" opacity=".5"/><path d="m25.42 29.567a.043.043 0 0 1 -.044-.044v-.035a.044.044 0 1 1 .087 0v.035a.043.043 0 0 1 -.043.044zm0-.45a.043.043 0 0 1 -.044-.044v-.035a.044.044 0 0 1 .087 0v.035a.043.043 0 0 1 -.043.044zm0-.45a.043.043 0 0 1 -.044-.044v-.034a.044.044 0 1 1 .087 0v.034a.043.043 0 0 1 -.043.043zm0-.45a.043.043 0 0 1 -.044-.044v-.034a.044.044 0 1 1 .087 0v.034a.043.043 0 0 1 -.043.043zm0-.45a.043.043 0 0 1 -.044-.044v-.035a.044.044 0 1 1 .087 0v.035a.043.043 0 0 1 -.043.043zm0-.45a.043.043 0 0 1 -.044-.044v-.035a.044.044 0 1 1 .087 0v.035a.043.043 0 0 1 -.043.043zm0-.45a.043.043 0 0 1 -.044-.044v-.034a.044.044 0 0 1 .087 0v.034a.043.043 0 0 1 -.043.043zm0-.45a.043.043 0 0 1 -.044-.044v-.035a.044.044 0 1 1 .087 0v.035a.043.043 0 0 1 -.043.043zm0-.45a.043.043 0 0 1 -.044-.044v-.035a.044.044 0 1 1 .087 0v.035a.043.043 0 0 1 -.043.042zm0-.45a.043.043 0 0 1 -.044-.044v-.034a.044.044 0 1 1 .087 0v.034a.043.043 0 0 1 -.043.042zm0-.45a.043.043 0 0 1 -.044-.044v-.034a.044.044 0 0 1 .087 0v.034a.043.043 0 0 1 -.043.042zm0-.45a.043.043 0 0 1 -.044-.044v-.035a.044.044 0 0 1 .087 0v.035a.043.043 0 0 1 -.043.042zm0-.45a.043.043 0 0 1 -.044-.044v-.035a.044.044 0 1 1 .087 0v.035a.043.043 0 0 1 -.043.042zm0-.45a.043.043 0 0 1 -.044-.044v-.034a.044.044 0 1 1 .087 0v.034a.043.043 0 0 1 -.043.041zm0-.45a.043.043 0 0 1 -.044-.044v-.035a.044.044 0 1 1 .087 0v.035a.043.043 0 0 1 -.043.041zm0-.45a.043.043 0 0 1 -.044-.044v-.035a.044.044 0 0 1 .087 0v.035a.043.043 0 0 1 -.043.041zm0-.45a.043.043 0 0 1 -.044-.044v-.035a.044.044 0 1 1 .087 0v.035a.043.043 0 0 1 -.043.041zm0-.45a.043.043 0 0 1 -.044-.044v-.034a.044.044 0 1 1 .087 0v.034a.043.043 0 0 1 -.043.04zm0-.45a.043.043 0 0 1 -.044-.044v-.035a.044.044 0 1 1 .087 0v.035a.043.043 0 0 1 -.043.04zm0-.45a.043.043 0 0 1 -.044-.044v-.035a.044.044 0 0 1 .087 0v.035a.043.043 0 0 1 -.043.04zm0-.45a.043.043 0 0 1 -.044-.044v-.034a.044.044 0 1 1 .087 0v.034a.043.043 0 0 1 -.043.04zm0-.45a.043.043 0 0 1 -.044-.044v-.034a.044.044 0 1 1 .087 0v.034a.043.043 0 0 1 -.043.04zm0-.45a.043.043 0 0 1 -.044-.044v-.035a.044.044 0 1 1 .087 0v.035a.043.043 0 0 1 -.043.04zm0-.45a.043.043 0 0 1 -.044-.044v-.035a.044.044 0 1 1 .087 0v.035a.043.043 0 0 1 -.043.04zm0-.45a.043.043 0 0 1 -.044-.044v-.034a.044.044 0 0 1 .087 0v.034a.043.043 0 0 1 -.043.039zm0-.45a.043.043 0 0 1 -.044-.044v-.035a.044.044 0 0 1 .087 0v.035a.043.043 0 0 1 -.043.039zm0-.45a.043.043 0 0 1 -.044-.044v-.035a.044.044 0 1 1 .087 0v.035a.043.043 0 0 1 -.043.039zm0-.45a.043.043 0 0 1 -.044-.044v-.034a.044.044 0 1 1 .087 0v.034a.043.043 0 0 1 -.043.038zm0-.45a.043.043 0 0 1 -.044-.044v-.034a.044.044 0 0 1 .087 0v.034a.043.043 0 0 1 -.043.038zm0-.45a.043.043 0 0 1 -.044-.044v-.035a.044.044 0 0 1 .087 0v.035a.043.043 0 0 1 -.043.038zm0-.45a.043.043 0 0 1 -.044-.044v-.035a.044.044 0 1 1 .087 0v.035a.043.043 0 0 1 -.043.038zm0-.45a.044.044 0 0 1 -.044-.044v-.035a.044.044 0 0 1 .087 0v.035a.044.044 0 0 1 -.043.038zm0-.45a.044.044 0 0 1 -.044-.044v-.035a.044.044 0 1 1 .087 0v.035a.044.044 0 0 1 -.043.038zm0-.45a.044.044 0 0 1 -.044-.044v-.035a.044.044 0 0 1 .087 0v.035a.044.044 0 0 1 -.043.037zm0-.45a.044.044 0 0 1 -.044-.044v-.035a.044.044 0 1 1 .087 0v.035a.044.044 0 0 1 -.043.037zm0-.45a.044.044 0 0 1 -.044-.044v-.035a.044.044 0 0 1 .087 0v.035a.044.044 0 0 1 -.043.037zm0-.45a.044.044 0 0 1 -.044-.044v-.035a.044.044 0 1 1 .087 0v.035a.044.044 0 0 1 -.043.037zm0-.45a.044.044 0 0 1 -.044-.044v-.035a.044.044 0 1 1 .087 0v.035a.044.044 0 0 1 -.043.036zm0-.45a.044.044 0 0 1 -.044-.044v-.035a.044.044 0 0 1 .087 0v.035a.044.044 0 0 1 -.043.036zm0-.45a.044.044 0 0 1 -.044-.044v-.035a.044.044 0 1 1 .087 0v.035a.044.044 0 0 1 -.043.036zm0-.45a.044.044 0 0 1 -.044-.044v-.035a.044.044 0 1 1 .087 0v.035a.044.044 0 0 1 -.043.036zm0-.45a.044.044 0 0 1 -.044-.044v-.035a.044.044 0 1 1 .087 0v.035a.044.044 0 0 1 -.043.036zm0-.45a.044.044 0 0 1 -.044-.044v-.043a.044.044 0 1 1 .087 0v.035a.044.044 0 0 1 -.043.044zm0-.45a.044.044 0 0 1 -.044-.044v-.043a.044.044 0 1 1 .087 0v.035a.044.044 0 0 1 -.043.043zm0-.45a.044.044 0 0 1 -.044-.044v-.043a.044.044 0 1 1 .087 0v.035a.044.044 0 0 1 -.043.043zm0-.45a.044.044 0 0 1 -.044-.044v-.043a.044.044 0 1 1 .087 0v.035a.044.044 0 0 1 -.043.043zm0-.45a.044.044 0 0 1 -.044-.044v-.044a.044.044 0 1 1 .087 0v.035a.044.044 0 0 1 -.043.044zm0-.45a.044.044 0 0 1 -.044-.044v-.044a.044.044 0 1 1 .087 0v.035a.044.044 0 0 1 -.043.044zm0-.45a.044.044 0 0 1 -.044-.044v-.044a.044.044 0 1 1 .087 0v.035a.044.044 0 0 1 -.043.043zm0-.45a.044.044 0 0 1 -.044-.044v-.044a.044.044 0 1 1 .087 0v.035a.044.044 0 0 1 -.043.043zm0-.45a.044.044 0 0 1 -.044-.044v-.044a.044.044 0 1 1 .087 0v.035a.044.044 0 0 1 -.043.043zm0-.45a.044.044 0 0 1 -.044-.044v-.045a.044.044 0 1 1 .087 0v.035a.044.044 0 0 1 -.043.044zm0-.45a.044.044 0 0 1 -.044-.044v-.045a.044.044 0 1 1 .087 0v.035a.044.044 0 0 1 -.043.044zm0-.45a.044.044 0 0 1 -.044-.044v-.045a.044.044 0 1 1 .087 0v.035a.044.044 0 0 1 -.043.043zm0-.45a.044.044 0 0 1 -.044-.044v-.045a.044.044 0 1 1 .087 0v.035a.044.044 0 0 1 -.043.043zm0-.45a.044.044 0 0 1 -.044-.044v-.045a.044.044 0 1 1 .087 0v.035a.044.044 0 0 1 -.043.043zm0-.45a.044.044 0 0 1 -.044-.044v-.045a.044.044 0 1 1 .087 0v.035a.044.044 0 0 1 -.043.043zm0-.45a.044.044 0 0 1 -.044-.044v-.046a.044.044 0 1 1 .087 0v.035a.044.044 0 0 1 -.043.043zm0-.45a.044.044 0 0 1 -.044-.044v-.046a.044.044 0 1 1 .087 0v.035a.044.044 0 0 1 -.043.043zm0-.45a.044.044 0 0 1 -.044-.044v-.046a.044.044 0 1 1 .087 0v.035a.044.044 0 0 1 -.043.043zm0-.45a.044.044 0 0 1 -.044-.044v-.046a.044.044 0 1 1 .087 0v.035a.044.044 0 0 1 -.043.043z" opacity=".5"/><path d="m25.42 2.1a.044.044 0 0 1 -.044-.044v-.012a.044.044 0 1 1 .087 0v.018a.044.044 0 0 1 -.043.038z" opacity=".5"/><path d="m12.86 30a.044.044 0 0 1 -.044-.044v-.018a.044.044 0 1 1 .087 0v.018a.044.044 0 0 1 -.043.044z" opacity=".5"/><path d="m12.86 29.567a.044.044 0 0 1 -.044-.044v-.035a.044.044 0 0 1 .087 0v.035a.044.044 0 0 1 -.043.044zm0-.45a.044.044 0 0 1 -.044-.044v-.035a.044.044 0 0 1 .087 0v.035a.044.044 0 0 1 -.043.044zm0-.45a.044.044 0 0 1 -.044-.044v-.034a.044.044 0 1 1 .087 0v.034a.044.044 0 0 1 -.043.043zm0-.45a.044.044 0 0 1 -.044-.044v-.034a.044.044 0 1 1 .087 0v.034a.044.044 0 0 1 -.043.043zm0-.45a.044.044 0 0 1 -.044-.044v-.035a.044.044 0 1 1 .087 0v.035a.044.044 0 0 1 -.043.043zm0-.45a.044.044 0 0 1 -.044-.044v-.035a.044.044 0 1 1 .087 0v.035a.044.044 0 0 1 -.043.043zm0-.45a.044.044 0 0 1 -.044-.044v-.034a.044.044 0 0 1 .087 0v.034a.044.044 0 0 1 -.043.043zm0-.45a.044.044 0 0 1 -.044-.044v-.035a.044.044 0 1 1 .087 0v.035a.044.044 0 0 1 -.043.043zm0-.45a.044.044 0 0 1 -.044-.044v-.035a.044.044 0 1 1 .087 0v.035a.044.044 0 0 1 -.043.042zm0-.45a.044.044 0 0 1 -.044-.044v-.034a.044.044 0 0 1 .087 0v.034a.044.044 0 0 1 -.043.042zm0-.45a.044.044 0 0 1 -.044-.044v-.034a.044.044 0 0 1 .087 0v.034a.044.044 0 0 1 -.043.042zm0-.45a.044.044 0 0 1 -.044-.044v-.035a.044.044 0 0 1 .087 0v.035a.044.044 0 0 1 -.043.042zm0-.45a.044.044 0 0 1 -.044-.044v-.035a.044.044 0 1 1 .087 0v.035a.044.044 0 0 1 -.043.042zm0-.45a.044.044 0 0 1 -.044-.044v-.034a.044.044 0 1 1 .087 0v.034a.044.044 0 0 1 -.043.041zm0-.45a.044.044 0 0 1 -.044-.044v-.035a.044.044 0 0 1 .087 0v.035a.044.044 0 0 1 -.043.041zm0-.45a.044.044 0 0 1 -.044-.044v-.035a.044.044 0 0 1 .087 0v.035a.044.044 0 0 1 -.043.041zm0-.45a.044.044 0 0 1 -.044-.044v-.035a.044.044 0 1 1 .087 0v.035a.044.044 0 0 1 -.043.041zm0-.45a.044.044 0 0 1 -.044-.044v-.034a.044.044 0 1 1 .087 0v.034a.044.044 0 0 1 -.043.04zm0-.45a.044.044 0 0 1 -.044-.044v-.035a.044.044 0 1 1 .087 0v.035a.044.044 0 0 1 -.043.04zm0-.45a.044.044 0 0 1 -.044-.044v-.035a.044.044 0 0 1 .087 0v.035a.044.044 0 0 1 -.043.04zm0-.45a.044.044 0 0 1 -.044-.044v-.034a.044.044 0 0 1 .087 0v.034a.044.044 0 0 1 -.043.04zm0-.45a.044.044 0 0 1 -.044-.044v-.034a.044.044 0 0 1 .087 0v.034a.044.044 0 0 1 -.043.04zm0-.45a.044.044 0 0 1 -.044-.044v-.035a.044.044 0 1 1 .087 0v.035a.044.044 0 0 1 -.043.04zm0-.45a.044.044 0 0 1 -.044-.044v-.035a.044.044 0 1 1 .087 0v.035a.044.044 0 0 1 -.043.04zm0-.45a.044.044 0 0 1 -.044-.044v-.034a.044.044 0 0 1 .087 0v.034a.044.044 0 0 1 -.043.039zm0-.45a.044.044 0 0 1 -.044-.044v-.035a.044.044 0 0 1 .087 0v.035a.044.044 0 0 1 -.043.039zm0-.45a.044.044 0 0 1 -.044-.044v-.035a.044.044 0 0 1 .087 0v.035a.044.044 0 0 1 -.043.039zm0-.45a.044.044 0 0 1 -.044-.044v-.034a.044.044 0 0 1 .087 0v.034a.044.044 0 0 1 -.043.038zm0-.45a.044.044 0 0 1 -.044-.044v-.034a.044.044 0 0 1 .087 0v.034a.044.044 0 0 1 -.043.038zm0-.45a.044.044 0 0 1 -.044-.044v-.035a.044.044 0 0 1 .087 0v.035a.044.044 0 0 1 -.043.038zm0-.45a.044.044 0 0 1 -.044-.044v-.035a.044.044 0 1 1 .087 0v.035a.044.044 0 0 1 -.043.038zm0-.45a.044.044 0 0 1 -.044-.044v-.035a.044.044 0 0 1 .087 0v.035a.044.044 0 0 1 -.043.038zm0-.45a.044.044 0 0 1 -.044-.044v-.035a.044.044 0 0 1 .087 0v.035a.044.044 0 0 1 -.043.038zm0-.45a.044.044 0 0 1 -.044-.044v-.035a.044.044 0 0 1 .087 0v.035a.044.044 0 0 1 -.043.037zm0-.45a.044.044 0 0 1 -.044-.044v-.035a.044.044 0 1 1 .087 0v.035a.044.044 0 0 1 -.043.037zm0-.45a.044.044 0 0 1 -.044-.044v-.035a.044.044 0 0 1 .087 0v.035a.044.044 0 0 1 -.043.037zm0-.45a.044.044 0 0 1 -.044-.044v-.035a.044.044 0 0 1 .087 0v.035a.044.044 0 0 1 -.043.037zm0-.45a.044.044 0 0 1 -.044-.044v-.035a.044.044 0 0 1 .087 0v.035a.044.044 0 0 1 -.043.036zm0-.45a.044.044 0 0 1 -.044-.044v-.035a.044.044 0 0 1 .087 0v.035a.044.044 0 0 1 -.043.036zm0-.45a.044.044 0 0 1 -.044-.044v-.035a.044.044 0 0 1 .087 0v.035a.044.044 0 0 1 -.043.036zm0-.45a.044.044 0 0 1 -.044-.044v-.035a.044.044 0 0 1 .087 0v.035a.044.044 0 0 1 -.043.036zm0-.45a.044.044 0 0 1 -.044-.044v-.035a.044.044 0 1 1 .087 0v.035a.044.044 0 0 1 -.043.036zm0-.45a.044.044 0 0 1 -.044-.044v-.043a.044.044 0 1 1 .087 0v.035a.044.044 0 0 1 -.043.044zm0-.45a.044.044 0 0 1 -.044-.044v-.043a.044.044 0 0 1 .087 0v.035a.044.044 0 0 1 -.043.043zm0-.45a.044.044 0 0 1 -.044-.044v-.043a.044.044 0 0 1 .087 0v.035a.044.044 0 0 1 -.043.043zm0-.45a.044.044 0 0 1 -.044-.044v-.043a.044.044 0 0 1 .087 0v.035a.044.044 0 0 1 -.043.043zm0-.45a.044.044 0 0 1 -.044-.044v-.044a.044.044 0 0 1 .087 0v.035a.044.044 0 0 1 -.043.044zm0-.45a.044.044 0 0 1 -.044-.044v-.044a.044.044 0 0 1 .087 0v.035a.044.044 0 0 1 -.043.044zm0-.45a.044.044 0 0 1 -.044-.044v-.044a.044.044 0 0 1 .087 0v.035a.044.044 0 0 1 -.043.043zm0-.45a.044.044 0 0 1 -.044-.044v-.044a.044.044 0 0 1 .087 0v.035a.044.044 0 0 1 -.043.043zm0-.45a.044.044 0 0 1 -.044-.044v-.044a.044.044 0 0 1 .087 0v.035a.044.044 0 0 1 -.043.043zm0-.45a.044.044 0 0 1 -.044-.044v-.045a.044.044 0 0 1 .087 0v.035a.044.044 0 0 1 -.043.044zm0-.45a.044.044 0 0 1 -.044-.044v-.045a.044.044 0 0 1 .087 0v.035a.044.044 0 0 1 -.043.044zm0-.45a.044.044 0 0 1 -.044-.044v-.045a.044.044 0 0 1 .087 0v.035a.044.044 0 0 1 -.043.043zm0-.45a.044.044 0 0 1 -.044-.044v-.045a.044.044 0 0 1 .087 0v.035a.044.044 0 0 1 -.043.043zm0-.45a.044.044 0 0 1 -.044-.044v-.045a.044.044 0 0 1 .087 0v.035a.044.044 0 0 1 -.043.043zm0-.45a.044.044 0 0 1 -.044-.044v-.045a.044.044 0 0 1 .087 0v.035a.044.044 0 0 1 -.043.043zm0-.45a.044.044 0 0 1 -.044-.044v-.046a.044.044 0 0 1 .087 0v.035a.044.044 0 0 1 -.043.043zm0-.45a.044.044 0 0 1 -.044-.044v-.046a.044.044 0 0 1 .087 0v.035a.044.044 0 0 1 -.043.043zm0-.45a.044.044 0 0 1 -.044-.044v-.046a.044.044 0 0 1 .087 0v.035a.044.044 0 0 1 -.043.043zm0-.45a.044.044 0 0 1 -.044-.044v-.046a.044.044 0 0 1 .087 0v.035a.044.044 0 0 1 -.043.043z" opacity=".5"/><path d="m12.86 2.1a.044.044 0 0 1 -.044-.044v-.012a.044.044 0 0 1 .087 0v.018a.044.044 0 0 1 -.043.038z" opacity=".5"/><path d="m9.719 30a.044.044 0 0 1 -.044-.044v-.018a.044.044 0 1 1 .087 0v.018a.044.044 0 0 1 -.043.044z" opacity=".5"/><path d="m9.719 29.567a.044.044 0 0 1 -.044-.044v-.035a.044.044 0 1 1 .087 0v.035a.044.044 0 0 1 -.043.044zm0-.45a.044.044 0 0 1 -.044-.044v-.035a.044.044 0 0 1 .087 0v.035a.044.044 0 0 1 -.043.044zm0-.45a.044.044 0 0 1 -.044-.044v-.034a.044.044 0 1 1 .087 0v.034a.044.044 0 0 1 -.043.043zm0-.45a.044.044 0 0 1 -.044-.044v-.034a.044.044 0 1 1 .087 0v.034a.044.044 0 0 1 -.043.043zm0-.45a.044.044 0 0 1 -.044-.044v-.035a.044.044 0 1 1 .087 0v.035a.044.044 0 0 1 -.043.043zm0-.45a.044.044 0 0 1 -.044-.044v-.035a.044.044 0 1 1 .087 0v.035a.044.044 0 0 1 -.043.043zm0-.45a.044.044 0 0 1 -.044-.044v-.034a.044.044 0 0 1 .087 0v.034a.044.044 0 0 1 -.043.043zm0-.45a.044.044 0 0 1 -.044-.044v-.035a.044.044 0 1 1 .087 0v.035a.044.044 0 0 1 -.043.043zm0-.45a.044.044 0 0 1 -.044-.044v-.035a.044.044 0 1 1 .087 0v.035a.044.044 0 0 1 -.043.042zm0-.45a.044.044 0 0 1 -.044-.044v-.034a.044.044 0 1 1 .087 0v.034a.044.044 0 0 1 -.043.042zm0-.45a.044.044 0 0 1 -.044-.044v-.034a.044.044 0 0 1 .087 0v.034a.044.044 0 0 1 -.043.042zm0-.45a.044.044 0 0 1 -.044-.044v-.035a.044.044 0 0 1 .087 0v.035a.044.044 0 0 1 -.043.042zm0-.45a.044.044 0 0 1 -.044-.044v-.035a.044.044 0 1 1 .087 0v.035a.044.044 0 0 1 -.043.042zm0-.45a.044.044 0 0 1 -.044-.044v-.034a.044.044 0 1 1 .087 0v.034a.044.044 0 0 1 -.043.041zm0-.45a.044.044 0 0 1 -.044-.044v-.035a.044.044 0 1 1 .087 0v.035a.044.044 0 0 1 -.043.041zm0-.45a.044.044 0 0 1 -.044-.044v-.035a.044.044 0 0 1 .087 0v.035a.044.044 0 0 1 -.043.041zm0-.45a.044.044 0 0 1 -.044-.044v-.035a.044.044 0 1 1 .087 0v.035a.044.044 0 0 1 -.043.041zm0-.45a.044.044 0 0 1 -.044-.044v-.034a.044.044 0 1 1 .087 0v.034a.044.044 0 0 1 -.043.04zm0-.45a.044.044 0 0 1 -.044-.044v-.035a.044.044 0 1 1 .087 0v.035a.044.044 0 0 1 -.043.04zm0-.45a.044.044 0 0 1 -.044-.044v-.035a.044.044 0 0 1 .087 0v.035a.044.044 0 0 1 -.043.04zm0-.45a.044.044 0 0 1 -.044-.044v-.034a.044.044 0 1 1 .087 0v.034a.044.044 0 0 1 -.043.04zm0-.45a.044.044 0 0 1 -.044-.044v-.034a.044.044 0 1 1 .087 0v.034a.044.044 0 0 1 -.043.04zm0-.45a.044.044 0 0 1 -.044-.044v-.035a.044.044 0 1 1 .087 0v.035a.044.044 0 0 1 -.043.04zm0-.45a.044.044 0 0 1 -.044-.044v-.035a.044.044 0 1 1 .087 0v.035a.044.044 0 0 1 -.043.04zm0-.45a.044.044 0 0 1 -.044-.044v-.034a.044.044 0 0 1 .087 0v.034a.044.044 0 0 1 -.043.039zm0-.45a.044.044 0 0 1 -.044-.044v-.035a.044.044 0 0 1 .087 0v.035a.044.044 0 0 1 -.043.039zm0-.45a.044.044 0 0 1 -.044-.044v-.035a.044.044 0 1 1 .087 0v.035a.044.044 0 0 1 -.043.039zm0-.45a.044.044 0 0 1 -.044-.044v-.034a.044.044 0 1 1 .087 0v.034a.044.044 0 0 1 -.043.038zm0-.45a.044.044 0 0 1 -.044-.044v-.034a.044.044 0 0 1 .087 0v.034a.044.044 0 0 1 -.043.038zm0-.45a.044.044 0 0 1 -.044-.044v-.035a.044.044 0 0 1 .087 0v.035a.044.044 0 0 1 -.043.038zm0-.45a.044.044 0 0 1 -.044-.044v-.035a.044.044 0 1 1 .087 0v.035a.044.044 0 0 1 -.043.038zm0-.45a.044.044 0 0 1 -.044-.044v-.035a.044.044 0 0 1 .087 0v.035a.044.044 0 0 1 -.043.038zm0-.45a.044.044 0 0 1 -.044-.044v-.035a.044.044 0 1 1 .087 0v.035a.044.044 0 0 1 -.043.038zm0-.45a.044.044 0 0 1 -.044-.044v-.035a.044.044 0 0 1 .087 0v.035a.044.044 0 0 1 -.043.037zm0-.45a.044.044 0 0 1 -.044-.044v-.035a.044.044 0 1 1 .087 0v.035a.044.044 0 0 1 -.043.037zm0-.45a.044.044 0 0 1 -.044-.044v-.035a.044.044 0 0 1 .087 0v.035a.044.044 0 0 1 -.043.037zm0-.45a.044.044 0 0 1 -.044-.044v-.035a.044.044 0 1 1 .087 0v.035a.044.044 0 0 1 -.043.037zm0-.45a.044.044 0 0 1 -.044-.044v-.035a.044.044 0 1 1 .087 0v.035a.044.044 0 0 1 -.043.036zm0-.45a.044.044 0 0 1 -.044-.044v-.035a.044.044 0 0 1 .087 0v.035a.044.044 0 0 1 -.043.036zm0-.45a.044.044 0 0 1 -.044-.044v-.035a.044.044 0 1 1 .087 0v.035a.044.044 0 0 1 -.043.036zm0-.45a.044.044 0 0 1 -.044-.044v-.035a.044.044 0 1 1 .087 0v.035a.044.044 0 0 1 -.043.036zm0-.45a.044.044 0 0 1 -.044-.044v-.035a.044.044 0 1 1 .087 0v.035a.044.044 0 0 1 -.043.036zm0-.45a.044.044 0 0 1 -.044-.044v-.043a.044.044 0 1 1 .087 0v.035a.044.044 0 0 1 -.043.044zm0-.45a.044.044 0 0 1 -.044-.044v-.043a.044.044 0 1 1 .087 0v.035a.044.044 0 0 1 -.043.043zm0-.45a.044.044 0 0 1 -.044-.044v-.043a.044.044 0 0 1 .087 0v.035a.044.044 0 0 1 -.043.043zm0-.45a.044.044 0 0 1 -.044-.044v-.043a.044.044 0 1 1 .087 0v.035a.044.044 0 0 1 -.043.043zm0-.45a.044.044 0 0 1 -.044-.044v-.044a.044.044 0 1 1 .087 0v.035a.044.044 0 0 1 -.043.044zm0-.45a.044.044 0 0 1 -.044-.044v-.044a.044.044 0 0 1 .087 0v.035a.044.044 0 0 1 -.043.044zm0-.45a.044.044 0 0 1 -.044-.044v-.044a.044.044 0 1 1 .087 0v.035a.044.044 0 0 1 -.043.043zm0-.45a.044.044 0 0 1 -.044-.044v-.044a.044.044 0 1 1 .087 0v.035a.044.044 0 0 1 -.043.043zm0-.45a.044.044 0 0 1 -.044-.044v-.044a.044.044 0 1 1 .087 0v.035a.044.044 0 0 1 -.043.043zm0-.45a.044.044 0 0 1 -.044-.044v-.045a.044.044 0 1 1 .087 0v.035a.044.044 0 0 1 -.043.044zm0-.45a.044.044 0 0 1 -.044-.044v-.045a.044.044 0 0 1 .087 0v.035a.044.044 0 0 1 -.043.044zm0-.45a.044.044 0 0 1 -.044-.044v-.045a.044.044 0 1 1 .087 0v.035a.044.044 0 0 1 -.043.043zm0-.45a.044.044 0 0 1 -.044-.044v-.045a.044.044 0 1 1 .087 0v.035a.044.044 0 0 1 -.043.043zm0-.45a.044.044 0 0 1 -.044-.044v-.045a.044.044 0 1 1 .087 0v.035a.044.044 0 0 1 -.043.043zm0-.45a.044.044 0 0 1 -.044-.044v-.045a.044.044 0 1 1 .087 0v.035a.044.044 0 0 1 -.043.043zm0-.45a.044.044 0 0 1 -.044-.044v-.046a.044.044 0 1 1 .087 0v.035a.044.044 0 0 1 -.043.043zm0-.45a.044.044 0 0 1 -.044-.044v-.046a.044.044 0 1 1 .087 0v.035a.044.044 0 0 1 -.043.043zm0-.45a.044.044 0 0 1 -.044-.044v-.046a.044.044 0 1 1 .087 0v.035a.044.044 0 0 1 -.043.043zm0-.45a.044.044 0 0 1 -.044-.044v-.046a.044.044 0 1 1 .087 0v.035a.044.044 0 0 1 -.043.043z" opacity=".5"/><path d="m9.719 2.1a.044.044 0 0 1 -.044-.044v-.012a.044.044 0 1 1 .087 0v.018a.044.044 0 0 1 -.043.038z" opacity=".5"/><path d="m6.579 30a.044.044 0 0 1 -.044-.044v-.018a.044.044 0 1 1 .087 0v.018a.044.044 0 0 1 -.043.044z" opacity=".5"/><path d="m6.579 29.567a.044.044 0 0 1 -.044-.044v-.035a.044.044 0 1 1 .087 0v.035a.044.044 0 0 1 -.043.044zm0-.45a.044.044 0 0 1 -.044-.044v-.035a.044.044 0 0 1 .087 0v.035a.044.044 0 0 1 -.043.044zm0-.45a.044.044 0 0 1 -.044-.044v-.034a.044.044 0 1 1 .087 0v.034a.044.044 0 0 1 -.043.043zm0-.45a.044.044 0 0 1 -.044-.044v-.034a.044.044 0 1 1 .087 0v.034a.044.044 0 0 1 -.043.043zm0-.45a.044.044 0 0 1 -.044-.044v-.035a.044.044 0 1 1 .087 0v.035a.044.044 0 0 1 -.043.043zm0-.45a.044.044 0 0 1 -.044-.044v-.035a.044.044 0 1 1 .087 0v.035a.044.044 0 0 1 -.043.043zm0-.45a.044.044 0 0 1 -.044-.044v-.034a.044.044 0 0 1 .087 0v.034a.044.044 0 0 1 -.043.043zm0-.45a.044.044 0 0 1 -.044-.044v-.035a.044.044 0 1 1 .087 0v.035a.044.044 0 0 1 -.043.043zm0-.45a.044.044 0 0 1 -.044-.044v-.035a.044.044 0 1 1 .087 0v.035a.044.044 0 0 1 -.043.042zm0-.45a.044.044 0 0 1 -.044-.044v-.034a.044.044 0 1 1 .087 0v.034a.044.044 0 0 1 -.043.042zm0-.45a.044.044 0 0 1 -.044-.044v-.034a.044.044 0 0 1 .087 0v.034a.044.044 0 0 1 -.043.042zm0-.45a.044.044 0 0 1 -.044-.044v-.035a.044.044 0 0 1 .087 0v.035a.044.044 0 0 1 -.043.042zm0-.45a.044.044 0 0 1 -.044-.044v-.035a.044.044 0 1 1 .087 0v.035a.044.044 0 0 1 -.043.042zm0-.45a.044.044 0 0 1 -.044-.044v-.034a.044.044 0 1 1 .087 0v.034a.044.044 0 0 1 -.043.041zm0-.45a.044.044 0 0 1 -.044-.044v-.035a.044.044 0 1 1 .087 0v.035a.044.044 0 0 1 -.043.041zm0-.45a.044.044 0 0 1 -.044-.044v-.035a.044.044 0 0 1 .087 0v.035a.044.044 0 0 1 -.043.041zm0-.45a.044.044 0 0 1 -.044-.044v-.035a.044.044 0 1 1 .087 0v.035a.044.044 0 0 1 -.043.041zm0-.45a.044.044 0 0 1 -.044-.044v-.034a.044.044 0 1 1 .087 0v.034a.044.044 0 0 1 -.043.04zm0-.45a.044.044 0 0 1 -.044-.044v-.035a.044.044 0 1 1 .087 0v.035a.044.044 0 0 1 -.043.04zm0-.45a.044.044 0 0 1 -.044-.044v-.035a.044.044 0 0 1 .087 0v.035a.044.044 0 0 1 -.043.04zm0-.45a.044.044 0 0 1 -.044-.044v-.034a.044.044 0 1 1 .087 0v.034a.044.044 0 0 1 -.043.04zm0-.45a.044.044 0 0 1 -.044-.044v-.034a.044.044 0 1 1 .087 0v.034a.044.044 0 0 1 -.043.04zm0-.45a.044.044 0 0 1 -.044-.044v-.035a.044.044 0 1 1 .087 0v.035a.044.044 0 0 1 -.043.04zm0-.45a.044.044 0 0 1 -.044-.044v-.035a.044.044 0 1 1 .087 0v.035a.044.044 0 0 1 -.043.04zm0-.45a.044.044 0 0 1 -.044-.044v-.034a.044.044 0 0 1 .087 0v.034a.044.044 0 0 1 -.043.039zm0-.45a.044.044 0 0 1 -.044-.044v-.035a.044.044 0 0 1 .087 0v.035a.044.044 0 0 1 -.043.039zm0-.45a.044.044 0 0 1 -.044-.044v-.035a.044.044 0 1 1 .087 0v.035a.044.044 0 0 1 -.043.039zm0-.45a.044.044 0 0 1 -.044-.044v-.034a.044.044 0 1 1 .087 0v.034a.044.044 0 0 1 -.043.038zm0-.45a.044.044 0 0 1 -.044-.044v-.034a.044.044 0 0 1 .087 0v.034a.044.044 0 0 1 -.043.038zm0-.45a.044.044 0 0 1 -.044-.044v-.035a.044.044 0 0 1 .087 0v.035a.044.044 0 0 1 -.043.038zm0-.45a.044.044 0 0 1 -.044-.044v-.035a.044.044 0 1 1 .087 0v.035a.044.044 0 0 1 -.043.038zm0-.45a.044.044 0 0 1 -.044-.044v-.035a.044.044 0 0 1 .087 0v.035a.044.044 0 0 1 -.043.038zm0-.45a.044.044 0 0 1 -.044-.044v-.035a.044.044 0 1 1 .087 0v.035a.044.044 0 0 1 -.043.038zm0-.45a.044.044 0 0 1 -.044-.044v-.035a.044.044 0 0 1 .087 0v.035a.044.044 0 0 1 -.043.037zm0-.45a.044.044 0 0 1 -.044-.044v-.035a.044.044 0 1 1 .087 0v.035a.044.044 0 0 1 -.043.037zm0-.45a.044.044 0 0 1 -.044-.044v-.035a.044.044 0 0 1 .087 0v.035a.044.044 0 0 1 -.043.037zm0-.45a.044.044 0 0 1 -.044-.044v-.035a.044.044 0 1 1 .087 0v.035a.044.044 0 0 1 -.043.037zm0-.45a.044.044 0 0 1 -.044-.044v-.035a.044.044 0 1 1 .087 0v.035a.044.044 0 0 1 -.043.036zm0-.45a.044.044 0 0 1 -.044-.044v-.035a.044.044 0 0 1 .087 0v.035a.044.044 0 0 1 -.043.036zm0-.45a.044.044 0 0 1 -.044-.044v-.035a.044.044 0 1 1 .087 0v.035a.044.044 0 0 1 -.043.036zm0-.45a.044.044 0 0 1 -.044-.044v-.035a.044.044 0 1 1 .087 0v.035a.044.044 0 0 1 -.043.036zm0-.45a.044.044 0 0 1 -.044-.044v-.035a.044.044 0 1 1 .087 0v.035a.044.044 0 0 1 -.043.036zm0-.45a.044.044 0 0 1 -.044-.044v-.043a.044.044 0 1 1 .087 0v.035a.044.044 0 0 1 -.043.044zm0-.45a.044.044 0 0 1 -.044-.044v-.043a.044.044 0 1 1 .087 0v.035a.044.044 0 0 1 -.043.043zm0-.45a.044.044 0 0 1 -.044-.044v-.043a.044.044 0 0 1 .087 0v.035a.044.044 0 0 1 -.043.043zm0-.45a.044.044 0 0 1 -.044-.044v-.043a.044.044 0 1 1 .087 0v.035a.044.044 0 0 1 -.043.043zm0-.45a.044.044 0 0 1 -.044-.044v-.044a.044.044 0 1 1 .087 0v.035a.044.044 0 0 1 -.043.044zm0-.45a.044.044 0 0 1 -.044-.044v-.044a.044.044 0 1 1 .087 0v.035a.044.044 0 0 1 -.043.044zm0-.45a.044.044 0 0 1 -.044-.044v-.044a.044.044 0 0 1 .087 0v.035a.044.044 0 0 1 -.043.043zm0-.45a.044.044 0 0 1 -.044-.044v-.044a.044.044 0 0 1 .087 0v.035a.044.044 0 0 1 -.043.043zm0-.45a.044.044 0 0 1 -.044-.044v-.044a.044.044 0 1 1 .087 0v.035a.044.044 0 0 1 -.043.043zm0-.45a.044.044 0 0 1 -.044-.044v-.045a.044.044 0 0 1 .087 0v.035a.044.044 0 0 1 -.043.044zm0-.45a.044.044 0 0 1 -.044-.044v-.045a.044.044 0 1 1 .087 0v.035a.044.044 0 0 1 -.043.044zm0-.45a.044.044 0 0 1 -.044-.044v-.045a.044.044 0 1 1 .087 0v.035a.044.044 0 0 1 -.043.043zm0-.45a.044.044 0 0 1 -.044-.044v-.045a.044.044 0 1 1 .087 0v.035a.044.044 0 0 1 -.043.043zm0-.45a.044.044 0 0 1 -.044-.044v-.045a.044.044 0 1 1 .087 0v.035a.044.044 0 0 1 -.043.043zm0-.45a.044.044 0 0 1 -.044-.044v-.045a.044.044 0 1 1 .087 0v.035a.044.044 0 0 1 -.043.043zm0-.45a.044.044 0 0 1 -.044-.044v-.046a.044.044 0 0 1 .087 0v.035a.044.044 0 0 1 -.043.043zm0-.45a.044.044 0 0 1 -.044-.044v-.046a.044.044 0 1 1 .087 0v.035a.044.044 0 0 1 -.043.043zm0-.45a.044.044 0 0 1 -.044-.044v-.046a.044.044 0 0 1 .087 0v.035a.044.044 0 0 1 -.043.043zm0-.45a.044.044 0 0 1 -.044-.044v-.046a.044.044 0 0 1 .087 0v.035a.044.044 0 0 1 -.043.043z" opacity=".5"/><path d="m6.579 2.1a.044.044 0 0 1 -.044-.044v-.012a.044.044 0 0 1 .087 0v.018a.044.044 0 0 1 -.043.038z" opacity=".5"/><path d="m29.295 26.414h-26.595v.7h26.6zm-13.31-20.343v-1.287l-12.985 21.63h.831zm-8.2 8.02-.743-.524-4.342 12.847h.83zm8.2-8.02v-1.287l-8.942 8.783.743.524zm12.174 20.343h.831l-13.005-21.63v1.287zm.281 0h.855l-4.369-12.847-.743.524zm-4.257-12.324.743-.524-8.941-8.782v1.287zm-7.14 8.61h-9.26v-.93h9.259zm-5.557 1.394h-4.861v.93h4.86zm9.483 0h-8.1v.93h8.1zm4.632 0h-3.484v.93h3.483zm-1.393-2.327h-5.787v.93h5.788z"/></g></svg>