<svg xmlns="http://www.w3.org/2000/svg" viewBox="0 0 32 32"><title>file_type_access2</title><path d="M16.639,2.317h1.9V5.092a20.123,20.123,0,0,1,9.237.681c1.111.379,2.32,1.244,2.212,2.568q.019,7.336,0,14.679c.111,1.34-1.13,2.2-2.253,2.574a20.217,20.217,0,0,1-9.2.662v3.427H16.558C11.712,28.8,6.853,27.99,2,27.137V4.869c4.878-.853,9.763-1.683,14.638-2.552" style="fill:#a12935"/><path d="M18.541,6.059a20.047,20.047,0,0,1,8.563.465c.76.283,1.779.624,1.951,1.531-.127.741-.9,1.076-1.511,1.343a19.25,19.25,0,0,1-9,.614V6.059" style="fill:#fff"/><path d="M25.058,11.011a8.1,8.1,0,0,0,3.993-1.419c-.07,1.368.108,2.752-.1,4.108a4.4,4.4,0,0,1-2.288,1.152,22.8,22.8,0,0,1-8.127.3V11.023a25.527,25.527,0,0,0,6.517-.013" style="fill:#fff"/><path d="M8.5,10.683c.741-.054,1.48-.1,2.224-.162,1.066,3.564,2.078,7.147,3.131,10.714-.735-.048-1.47-.1-2.2-.169-.194-.8-.4-1.591-.611-2.383-.977,0-1.954-.035-2.927-.083q-.282,1.131-.573,2.256-.936-.072-1.865-.134c.929-3.351,1.9-6.689,2.819-10.04" style="fill:#fff"/><path d="M8.511,16.882c.321-1.489.8-2.943,1.012-4.455.286,1.508.729,2.978,1.091,4.468q-1.055,0-2.1-.013" style="fill:#a12935"/><path d="M25.077,16.1a8.049,8.049,0,0,0,3.974-1.416c-.064,1.365.1,2.743-.089,4.1a4.3,4.3,0,0,1-2.272,1.155,22.857,22.857,0,0,1-8.149.305V16.114a25.387,25.387,0,0,0,6.536-.016" style="fill:#fff"/><path d="M25.065,21.19a8.075,8.075,0,0,0,3.987-1.416c-.067,1.365.105,2.749-.1,4.1-.9.98-2.329,1.161-3.567,1.413a23.386,23.386,0,0,1-6.861.025c.022-1.371.013-2.74.013-4.111a25.292,25.292,0,0,0,6.523-.016" style="fill:#fff"/></svg>