<svg xmlns="http://www.w3.org/2000/svg" xmlns:xlink="http://www.w3.org/1999/xlink" viewBox="0 0 105.1 105.1"><defs><radialGradient id="a" cx="66.024" cy="35.312" r="13.158" gradientUnits="userSpaceOnUse"><stop offset="0" stop-color="#7d7d7d"/><stop offset="0.267" stop-color="#7e7c7a"/><stop offset="0.45" stop-color="#817871"/><stop offset="0.608" stop-color="#867162"/><stop offset="0.753" stop-color="#8d684c"/><stop offset="0.886" stop-color="#965c30"/><stop offset="1" stop-color="#a04f12"/></radialGradient><radialGradient id="b" cx="62.112" cy="59.65" r="22.181" xlink:href="#a"/><radialGradient id="c" cx="78.557" cy="34.677" r="6.267" xlink:href="#a"/><radialGradient id="d" cx="40.676" cy="67.188" r="13.356" xlink:href="#a"/><radialGradient id="e" cx="27.993" cy="68.059" r="6.308" xlink:href="#a"/><radialGradient id="f" cx="27.55" cy="38.75" r="0.25" xlink:href="#a"/><radialGradient id="g" cx="26.75" cy="44.05" r="6.65" xlink:href="#a"/><radialGradient id="h" cx="48.549" cy="25.889" r="6.691" xlink:href="#a"/><radialGradient id="i" cx="36.806" cy="33.95" r="10.728" xlink:href="#a"/><radialGradient id="j" cx="52.55" cy="52.488" r="52.206" xlink:href="#a"/></defs><title>file_type_rust_toolchain</title><path d="M62.1,50l4.5-4.5a13.1,13.1,0,0,0,10.1-.2,1.246,1.246,0,0,0,.4-2l-8-8a2.416,2.416,0,0,1,0-3.5l8-8a1.237,1.237,0,0,0-.4-2A12.944,12.944,0,0,0,59.2,38.1l-4.6,4.6Z" style="fill:url(#a)"/><path d="M53.5,43.7l-6.2-6.2-7.4,7.4,6.2,6.2,7.4,7.4L76.3,81.3a1.69,1.69,0,0,0,2.4,0l5.1-5.1a1.634,1.634,0,0,0,0-2.4L60.9,51.2Z" style="fill:url(#b)"/><path d="M80.5,27.8l-6.7,6.7a1.391,1.391,0,0,0,0,1.9l5.1,5.1a1.336,1.336,0,0,0,2-.1,12.914,12.914,0,0,0,1.7-13.2A1.333,1.333,0,0,0,80.5,27.8Z" style="fill:url(#c)"/><path d="M29.4,59.4l8,8a2.416,2.416,0,0,1,0,3.5l-8,8a1.237,1.237,0,0,0,.4,2A12.916,12.916,0,0,0,47.3,64.7l5-5-7.4-7.4L40,57.2a13.349,13.349,0,0,0-10.2.2A1.246,1.246,0,0,0,29.4,59.4Z" style="fill:url(#d)"/><path d="M25.6,61.3a12.914,12.914,0,0,0-1.7,13.2,1.329,1.329,0,0,0,2.2.4l6.7-6.7a1.391,1.391,0,0,0,0-1.9l-5.1-5.1A1.444,1.444,0,0,0,25.6,61.3Z" style="fill:url(#e)"/><path d="M27.3,39h.5l-.5-.5Z" style="fill:url(#f)"/><path d="M31.9,46l1.5-1.5L27.9,39h-.5a.9.9,0,0,1,.1-.5l-1.1-1.1-1.5,1.5-.9-.8a2.052,2.052,0,0,0-2.9,0l-.4.4a2.052,2.052,0,0,0,0,2.9l8.7,8.7a2.052,2.052,0,0,0,2.9,0l.4-.4a2.052,2.052,0,0,0,0-2.9Z" style="fill:url(#g)"/><path d="M40.4,23.7l7,7c8.1-5.4,12.6-.9,6.4-7.1C49.5,19.3,44.1,21.3,40.4,23.7Z" style="fill:url(#h)"/><path d="M46.9,32.6l-.8-.8L39,24.6l-.8-.8a1.933,1.933,0,0,0-2.8,0l-8.7,8.7a2.052,2.052,0,0,0,0,2.9l.6.6v0l.1.1.7.7c1.6-2.4,4.7-4.8,2.3-7.1,2.4,2.4-.7,4.8-2.3,7.1l2.1,2.1h0l4.4,4.4.8.8a1.974,1.974,0,0,0,1.4.6h.4a2.01,2.01,0,0,0,.8-.4c.1-.1.2-.1.2-.2l.4-.4L46,36.3l.6-.6.3-.3a1.38,1.38,0,0,0,.3-.4A1.846,1.846,0,0,0,46.9,32.6Z" style="fill:url(#i)"/><path d="M52.5.3a1.457,1.457,0,0,0-1.3.7L48.5,5.4l-1.3.1L43.7,1.7a1.521,1.521,0,0,0-2.5.5L39.4,7l-1.2.4L34,4.4a1.639,1.639,0,0,0-2.4,1l-.8,5.1-1.2.5L24.9,8.9a1.528,1.528,0,0,0-2.1,1.4l.2,5.2-1,.8-5-1.2a1.553,1.553,0,0,0-1.8,1.8l1.2,5-.8,1-5.2-.2A1.542,1.542,0,0,0,9,24.8l2.1,4.7-.6,1.1-5.1.8a1.618,1.618,0,0,0-1,2.4l3,4.2L7,39.4,2.2,41.2a1.53,1.53,0,0,0-.5,2.5l3.8,3.5-.1,1.3L1,51.2a1.589,1.589,0,0,0,0,2.6l4.4,2.7.1,1.3L1.7,61.3a1.521,1.521,0,0,0,.5,2.5L7,65.7l.4,1.2-3,4.2a1.618,1.618,0,0,0,1,2.4l5.1.8.6,1.1L9,80.1a1.528,1.528,0,0,0,1.4,2.1l5.2-.2.8,1-1.2,5A1.553,1.553,0,0,0,17,89.8l5-1.2,1,.8-.2,5.2A1.542,1.542,0,0,0,24.9,96l4.7-2.1,1.1.6.8,5.1a1.618,1.618,0,0,0,2.4,1l4.2-3,1.2.4,1.8,4.8a1.53,1.53,0,0,0,2.5.5l3.5-3.8,1.3.1,2.7,4.4a1.589,1.589,0,0,0,2.6,0l2.7-4.4,1.3-.1,3.5,3.8a1.521,1.521,0,0,0,2.5-.5L65.5,98l1.2-.4,4.2,3a1.639,1.639,0,0,0,2.4-1l.8-5.1,1.1-.6L79.9,96A1.528,1.528,0,0,0,82,94.6l-.2-5.2,1-.8,5,1.2A1.553,1.553,0,0,0,89.6,88l-1.2-5,.8-1,5.2.2a1.542,1.542,0,0,0,1.4-2.1L94,75.4l.6-1.1,5.1-.8a1.618,1.618,0,0,0,1-2.4l-3-4.2.4-1.2,4.8-1.8a1.53,1.53,0,0,0,.5-2.5l-3.8-3.5.1-1.3,4.4-2.7a1.589,1.589,0,0,0,0-2.6l-4.4-2.7-.1-1.3,3.8-3.5a1.521,1.521,0,0,0-.5-2.5l-4.8-1.8-.4-1.2,3-4.2a1.639,1.639,0,0,0-1-2.4l-5.1-.8L94,29.6l2.1-4.7a1.528,1.528,0,0,0-1.4-2.1l-5.1.2-.8-1L90,17a1.553,1.553,0,0,0-1.8-1.8l-5,1.2-1-.8.2-5.2A1.542,1.542,0,0,0,80.3,9l-4.8,2-1.1-.6-.8-5.1a1.618,1.618,0,0,0-2.4-1L67,7.3,65.7,7,63.9,2.2a1.53,1.53,0,0,0-2.5-.5L57.9,5.5l-1.3-.1L53.9,1A1.513,1.513,0,0,0,52.5.3Zm0,9.2h0a3.031,3.031,0,0,1,3,3.1c0,4.1-6.2,4.1-6.2,0a3.019,3.019,0,0,1,3.2-3.1Zm7.1,5.1A38.488,38.488,0,0,1,85.8,33.3l-3.7,8.3a2.826,2.826,0,0,0,1.4,3.7l7.1,3.1c.2,2.2,0,6.6,0,6.6a38.724,38.724,0,0,1-7.4,19.9A51.709,51.709,0,0,1,79.8,79l-6.6-1.4a2.9,2.9,0,0,0-3.4,2.2l-1.6,7.3a38.217,38.217,0,0,1-31.9-.2l-1.6-7.3a2.88,2.88,0,0,0-3.4-2.2l-6.4,1.4c-1.2-1.2-3.3-3.9-3.3-3.9a37.54,37.54,0,0,1-6-12.2s-.4-1.5-.6-2.2c-.1-.3-.1-.6-.2-.9a23.356,23.356,0,0,1-.4-2.6c-.1-.4-.1-.8-.2-1.3-.1-.7-.2-3.1-.2-3.5V50.9c0-.5.1-1,.1-1.5,0-.4.1-.9.1-1.3l6.7-3a2.823,2.823,0,0,0,1.4-3.8l-3.4-7.7a37.465,37.465,0,0,1,4.9-6.9s.9-1,1.2-1.3c.6-.6,1.2-1.2,1.9-1.8l.2-.2h0a38.074,38.074,0,0,1,18-8.8l4.8,5a2.839,2.839,0,0,0,4,.1Zm-44.2,23h0a3.022,3.022,0,0,1,1.6.5h0a3.106,3.106,0,0,1-1.8,5.7h0a3.1,3.1,0,0,1-3-3.1,3.138,3.138,0,0,1,3.2-3.1Zm74.1.1h0a3.031,3.031,0,0,1,3,3.1c0,4.1-6.2,4.1-6.2,0a3.2,3.2,0,0,1,3.2-3.1ZM29.4,81.4h0a3.031,3.031,0,0,1,3,3.1c0,4.1-6.2,4.1-6.2,0a3.2,3.2,0,0,1,3.2-3.1Zm46.1.1h0a3.031,3.031,0,0,1,3,3.1c0,4.1-6.2,4.1-6.2,0a3.138,3.138,0,0,1,3.2-3.1Z" style="fill:url(#j)"/></svg>