<svg xmlns="http://www.w3.org/2000/svg" viewBox="0 0 32 32"><title>file_type_jasmine</title><polygon points="17.004 13.472 14.893 13.472 14.322 12.739 14.322 6.986 17.539 6.986 17.539 12.739 17.004 13.472" style="fill:#8a4182"/><polygon points="14.148 14.009 13.495 16.018 12.622 16.333 7.149 14.555 8.144 11.497 13.616 13.273 14.148 14.009" style="fill:#8a4182"/><polygon points="13.772 16.837 15.481 18.078 15.51 19.004 12.13 23.661 9.527 21.771 12.911 17.114 13.772 16.837" style="fill:#8a4182"/><polygon points="16.394 18.087 18.105 16.846 18.995 17.105 22.377 21.76 19.776 23.65 16.394 18.995 16.394 18.087" style="fill:#8a4182"/><polygon points="18.425 16.051 17.772 14.041 18.293 13.273 23.764 11.497 24.759 14.555 19.286 16.333 18.425 16.051" style="fill:#8a4182"/><path d="M16,2A14,14,0,1,0,30,16h0A14,14,0,0,0,16,2Zm-.076,24.94A11.072,11.072,0,1,1,27,15.868,11.072,11.072,0,0,1,15.924,26.94h0Z" style="fill:#8a4182"/><rect x="15.459" y="20.248" width="0.877" height="4.364" style="fill:#8a4182"/><rect x="21.986" y="15.63" width="0.877" height="4.364" transform="translate(-1.445 33.634) rotate(-72)" style="fill:#8a4182"/><rect x="17.822" y="9.75" width="4.364" height="0.877" transform="translate(0.003 20.384) rotate(-54)" style="fill:#8a4182"/><rect x="11.543" y="8.006" width="0.877" height="4.364" transform="translate(-3.7 8.988) rotate(-36)" style="fill:#8a4182"/><rect x="7.269" y="17.374" width="4.364" height="0.877" transform="translate(-5.042 3.792) rotate(-18)" style="fill:#8a4182"/></svg>