<svg xmlns="http://www.w3.org/2000/svg" viewBox="0 0 32 32"><mask id="a"><path fill="#fff" d="M21.27 42.2c-.34.6-1.1.77-1.66.37L.47 28.64c-.3-.21-.47-.55-.47-.92V10.94c0-.93 1.05-1.46 1.8-.92l11.7 8.52c1.1.8 2.65.46 3.31-.72L26.51.58c.2-.36.58-.58.99-.58h15.57c.87 0 1.41.93.99 1.69z"/></mask><g mask="url(#a)" transform="translate(2 2.45)scale(.633)"><path fill="#22ff84" d="M0 0h45v43H0z"/><g filter="url(#b)"><ellipse cx="25.96" cy="9.25" fill="#00ccc6" rx="14.03" ry="3.39" transform="rotate(130.6 25.96 9.25)"/></g><g filter="url(#b)"><ellipse cx="2.93" cy="29.74" fill="#00ccc6" rx="14.03" ry="6.09" transform="rotate(234 2.93 29.74)"/></g><g filter="url(#b)"><ellipse cx="6.44" cy="12.2" fill="#7f0" rx="6.37" ry="5.55" transform="rotate(23.1 6.44 12.2)"/></g><g filter="url(#b)"><ellipse cx="40.77" cy="15.95" fill="#7f0" rx="5.61" ry="24.53" transform="rotate(23.1 40.77 15.95)"/></g><g filter="url(#b)"><ellipse cx="35.85" cy=".3" fill="#97ffe2" rx="4.99" ry="10.07" transform="rotate(-45 35.85 .3)"/></g></g><defs><filter id="b" width="4" height="4" x="-2" y="-2" color-interpolation-filters="sRGB"><feGaussianBlur stdDeviation="4.6"/></filter></defs></svg>