<svg xmlns="http://www.w3.org/2000/svg" xmlns:xlink="http://www.w3.org/1999/xlink" viewBox="0 0 32 32"><defs><linearGradient id="linear-gradient" x1="-66.85" y1="-240.15" x2="-66.84" y2="-240.19" gradientTransform="matrix(192.29, 0, 0, -207.73, 12866.44, -49886.65)" gradientUnits="userSpaceOnUse"><stop offset="0" stop-color="#f6b884"/><stop offset="0.62" stop-color="#c28555"/><stop offset="1" stop-color="#64441f"/></linearGradient><linearGradient id="linear-gradient-2" x1="-66.92" y1="-240.19" x2="-66.81" y2="-240.26" gradientTransform="matrix(188.61, 0, 0, -203.7, 12621.3, -48923.38)" gradientUnits="userSpaceOnUse"><stop offset="0" stop-color="#f4e06f"/><stop offset="0.62" stop-color="#e5bd87"/><stop offset="1" stop-color="#c48e30"/></linearGradient><linearGradient id="linear-gradient-3" x1="-66.92" y1="-240.34" x2="-66.81" y2="-240.4" gradientTransform="matrix(165.03, 0, 0, -177.71, 11053.52, -42700.35)" gradientUnits="userSpaceOnUse"><stop offset="0" stop-color="#fff"/><stop offset="0.14" stop-color="#f1f7fa"/><stop offset="0.41" stop-color="#cce1ee"/><stop offset="0.78" stop-color="#90bedb"/><stop offset="1" stop-color="#6aa7ce"/></linearGradient><radialGradient id="radial-gradient" cx="-72.35" cy="-249.71" r="1.59" gradientTransform="matrix(1.41, 0, 0, -1.41, 109.3, -347.66)" gradientUnits="userSpaceOnUse"><stop offset="0"/><stop offset="1" stop-color="#e8e9eb"/></radialGradient><radialGradient id="radial-gradient-2" cx="-72.34" cy="-249.72" r="1.58" gradientTransform="matrix(1.41, 0, 0, -1.41, 112.29, -347.96)" xlink:href="#radial-gradient"/><radialGradient id="radial-gradient-3" cx="-72.34" cy="-249.71" r="1.58" gradientTransform="matrix(1.41, 0, 0, -1.41, 115.22, -348.58)" xlink:href="#radial-gradient"/><radialGradient id="radial-gradient-4" cx="-72.34" cy="-249.72" r="1.58" gradientTransform="matrix(1.41, 0, 0, -1.41, 118.19, -348.93)" xlink:href="#radial-gradient"/><radialGradient id="radial-gradient-5" cx="-72.34" cy="-249.71" r="1.58" gradientTransform="matrix(1.41, 0, 0, -1.41, 120.9, -349.51)" xlink:href="#radial-gradient"/><radialGradient id="radial-gradient-6" cx="-72.2" cy="-243.37" r="3.61" gradientTransform="matrix(1.35, 0, 0, -3.2, 110.7, -777.79)" gradientUnits="userSpaceOnUse"><stop offset="0"/><stop offset="0.62" stop-color="#e8e9eb"/><stop offset="1"/></radialGradient><radialGradient id="radial-gradient-7" cx="-72.2" cy="-243.37" r="3.61" gradientTransform="matrix(1.35, 0, 0, -3.2, 113.57, -778.5)" xlink:href="#radial-gradient-6"/><radialGradient id="radial-gradient-8" cx="-72.19" cy="-243.37" r="3.61" gradientTransform="matrix(1.35, 0, 0, -3.2, 116.45, -778.73)" xlink:href="#radial-gradient-6"/><radialGradient id="radial-gradient-9" cx="-71.79" cy="-243.41" r="3.33" gradientTransform="matrix(1.45, 0, 0, -3.18, 114.63, -771.84)" xlink:href="#radial-gradient-6"/><radialGradient id="radial-gradient-10" cx="-71.79" cy="-243.14" r="3.53" gradientTransform="matrix(1.45, 0, 0, -3.36, 111.64, -815.69)" xlink:href="#radial-gradient-6"/><linearGradient id="linear-gradient-4" x1="-68.09" y1="-240.35" x2="-68.1" y2="-240.34" gradientTransform="matrix(70.59, 0, 0, -134.35, 4828.57, -32270.35)" gradientUnits="userSpaceOnUse"><stop offset="0" stop-color="#cc772f"/><stop offset="0.31" stop-color="#e98e38"/><stop offset="1" stop-color="#edce27"/></linearGradient><linearGradient id="linear-gradient-5" x1="-72.81" y1="-245.75" x2="-72.77" y2="-245.76" gradientTransform="matrix(22.59, 0, 0, -28.6, 1670.35, -7017.54)" gradientUnits="userSpaceOnUse"><stop offset="0" stop-color="#fff"/><stop offset="1" stop-color="#9fa4ab"/></linearGradient><linearGradient id="linear-gradient-6" x1="-76.81" y1="-259.83" x2="-76.82" y2="-259.7" gradientTransform="matrix(13.54, 0, 0, -8.57, 1065.86, -2216.32)" xlink:href="#linear-gradient-5"/><linearGradient id="linear-gradient-7" x1="-77.02" y1="-260.92" x2="-77.03" y2="-260.79" gradientTransform="matrix(13.41, 0, 0, -8.29, 1058.84, -2151.49)" xlink:href="#linear-gradient-5"/><linearGradient id="linear-gradient-8" x1="-77.04" y1="-260.59" x2="-77.05" y2="-260.46" gradientTransform="matrix(13.54, 0, 0, -8.59, 1069.32, -2226.65)" xlink:href="#linear-gradient-5"/></defs><title>file_type_poedit@2x</title><g id="poedit"><g id="Page-1"><g id="poedit-2" data-name="poedit"><g id="Poedit_1.5_icon" data-name="Poedit 1.5 icon"><g id="Shape"><path d="M5.49,4.74a1.45,1.45,0,0,0-1.12,1.7l3.1,18.83a1.45,1.45,0,0,0,1.7,1.12l16.47-2.86a1.44,1.44,0,0,0,1.12-1.7L23,3.31a1.45,1.45,0,0,0-1.7-1.12ZM25.68,21a1.45,1.45,0,0,1-1.12,1.7L9.85,25.2c-.78.16-1.55.44-1.31-.34L5.85,7.26a1.06,1.06,0,0,1,.73-1.7L20.63,3.37a1.45,1.45,0,0,1,1.7,1.12Z"/><path id="path-2" d="M5.49,4.74a1.45,1.45,0,0,0-1.12,1.7l3.1,18.83a1.45,1.45,0,0,0,1.7,1.12l16.47-2.86a1.44,1.44,0,0,0,1.12-1.7L23,3.31a1.45,1.45,0,0,0-1.7-1.12ZM25.68,21a1.45,1.45,0,0,1-1.12,1.7L9.85,25.2c-.78.16-1.55.44-1.31-.34L5.85,7.26a1.06,1.06,0,0,1,.73-1.7L20.63,3.37a1.45,1.45,0,0,1,1.7,1.12Z" style="fill:url(#linear-gradient)"/></g><path id="Shape-2" data-name="Shape" d="M5.66,4.79a1.42,1.42,0,0,0-1.1,1.67l3,18.47A1.42,1.42,0,0,0,9.26,26l16.17-2.79a1.42,1.42,0,0,0,1.1-1.67L22.84,3.41a1.42,1.42,0,0,0-1.67-1.1Z" style="fill:url(#linear-gradient-2)"/><path d="M9,26.12a1.48,1.48,0,0,1-1.44-1.18L4.5,6.47A1.48,1.48,0,0,1,5.65,4.73h0L21.16,2.25A1.47,1.47,0,0,1,22.9,3.39l3.69,18.17a1.48,1.48,0,0,1-1.15,1.74L9.27,26.09A1.47,1.47,0,0,1,9,26.12ZM5.67,4.85a1.36,1.36,0,0,0-1.06,1.6l3,18.47A1.36,1.36,0,0,0,9.25,26l16.17-2.79a1.36,1.36,0,0,0,1.06-1.6L22.78,3.42a1.36,1.36,0,0,0-1.6-1.06Z" style="fill:#6b5735"/><path id="Shape-3" data-name="Shape" d="M6.87,5.74a1.24,1.24,0,0,0-1,1.46L8.54,23.3a1.24,1.24,0,0,0,1.46,1l14.16-2.45a1.24,1.24,0,0,0,1-1.46L21.91,4.52a1.24,1.24,0,0,0-1.46-1Z" style="fill:url(#linear-gradient-3)"/><path d="M9.76,24.35a1.3,1.3,0,0,1-1.27-1L5.85,7.21a1.3,1.3,0,0,1,1-1.52h0L20.44,3.5a1.3,1.3,0,0,1,1.53,1l3.22,15.84a1.3,1.3,0,0,1-1,1.53L10,24.32ZM6.88,5.8A1.18,1.18,0,0,0,6,7.19L8.6,23.29a1.18,1.18,0,0,0,1.39.91l14.16-2.45a1.18,1.18,0,0,0,.92-1.39L21.86,4.53a1.18,1.18,0,0,0-1.39-.91Z" style="fill:#fff"/><path id="Shape-4" data-name="Shape" d="M21.72,4.83a1.19,1.19,0,0,0-1.41-1L7.22,6.08a1.25,1.25,0,0,0-.93,1.46l.19,1.19L22,6.11Z" style="fill:#6aa7ce"/><path id="Shape-5" data-name="Shape" d="M8.39,6.69a.71.71,0,1,1-.92-.39A.71.71,0,0,1,8.39,6.69Z" style="fill:url(#radial-gradient)"/><path d="M7.74,7.68a.72.72,0,1,1,.67-1h0a.72.72,0,0,1-.4.94A.71.71,0,0,1,7.74,7.68Zm0-1.41a.69.69,0,0,0-.64,1A.69.69,0,0,0,8,7.6a.69.69,0,0,0,.38-.9h0a.69.69,0,0,0-.64-.43Z" style="fill:#fff"/><path id="Shape-6" data-name="Shape" d="M11.24,6.22a.71.71,0,1,1-.92-.39A.71.71,0,0,1,11.24,6.22Z" style="fill:url(#radial-gradient-2)"/><path d="M10.59,7.21a.72.72,0,1,1,.67-1h0a.72.72,0,0,1-.4.94A.71.71,0,0,1,10.59,7.21Zm0-1.41a.69.69,0,1,0,.64.43h0A.69.69,0,0,0,10.59,5.8Z" style="fill:#fff"/><path id="Shape-7" data-name="Shape" d="M14.14,5.74a.71.71,0,1,1-.92-.39A.71.71,0,0,1,14.14,5.74Z" style="fill:url(#radial-gradient-3)"/><path d="M13.49,6.73a.72.72,0,0,1-.67-1,.71.71,0,0,1,.39-.39.72.72,0,0,1,.94.4h0a.72.72,0,0,1-.67,1Zm0-1.41a.7.7,0,0,0-.26.05.69.69,0,0,0-.38.9.69.69,0,1,0,1.28-.52h0A.69.69,0,0,0,13.49,5.32Z" style="fill:#fff"/><path id="Shape-8" data-name="Shape" d="M17.07,5.26a.71.71,0,1,1-.92-.39A.71.71,0,0,1,17.07,5.26Z" style="fill:url(#radial-gradient-4)"/><path d="M16.41,6.25a.72.72,0,1,1,.67-1,.72.72,0,0,1-.67,1Zm0-1.41a.69.69,0,1,0,.26,1.33.69.69,0,0,0,.38-.9h0a.69.69,0,0,0-.64-.43Z" style="fill:#fff"/><path id="Shape-9" data-name="Shape" d="M19.87,4.8a.71.71,0,1,1-.92-.39A.71.71,0,0,1,19.87,4.8Z" style="fill:url(#radial-gradient-5)"/><path d="M19.21,5.79a.72.72,0,0,1-.67-.45.72.72,0,0,1,.4-.94.72.72,0,0,1,.94.4h0a.73.73,0,0,1-.4.94A.72.72,0,0,1,19.21,5.79Zm0-1.41a.69.69,0,1,0,.26,1.33.7.7,0,0,0,.38-.9h0A.7.7,0,0,0,19.21,4.37Z" style="fill:#fff"/><path id="Shape-10" data-name="Shape" d="M12.59,3.06l.57,3a.11.11,0,0,0,.13.07L13.84,6a.11.11,0,0,0,.09-.12l-.57-3Z" style="fill:url(#radial-gradient-6)"/><path d="M13.27,6.15a.12.12,0,0,1-.12-.08l-.58-3,.81-.13h0l.57,3a.1.1,0,0,1,0,.07.14.14,0,0,1-.09.06l-.55.12ZM12.6,3.08l.57,3a.1.1,0,0,0,.12.06L13.84,6a.12.12,0,0,0,.07,0,.07.07,0,0,0,0-.05L13.36,3Z" style="fill:#444b4c"/><path id="Shape-11" data-name="Shape" d="M15.46,2.58l.57,3a.11.11,0,0,0,.13.07l.55-.12a.11.11,0,0,0,.09-.12l-.57-3Z" style="fill:url(#radial-gradient-7)"/><path d="M16.14,5.67A.12.12,0,0,1,16,5.59l-.58-3,.81-.13h0l.57,3a.1.1,0,0,1,0,.07.14.14,0,0,1-.09.06l-.55.12ZM15.48,2.6l.57,3a.1.1,0,0,0,.12.06l.55-.12a.11.11,0,0,0,.07,0,.07.07,0,0,0,0-.05l-.56-2.94Z" style="fill:#444b4c"/><path id="Shape-12" data-name="Shape" d="M18.3,2.14l.57,3a.11.11,0,0,0,.13.07l.55-.12A.11.11,0,0,0,19.65,5l-.57-3Z" style="fill:url(#radial-gradient-8)"/><path d="M19,5.23a.12.12,0,0,1-.12-.08l-.58-3L19.09,2h0l.57,3a.12.12,0,0,1-.11.14L19,5.23Zm-.66-3.08.57,3A.09.09,0,0,0,19,5.2l.55-.12a.09.09,0,0,0,.08-.1L19.07,2Z" style="fill:#444b4c"/><path id="Shape-13" data-name="Shape" d="M9.52,3.56l.68,3a.11.11,0,0,0,.14.07l.54-.12A.11.11,0,0,0,11,6.37l-.68-2.93Z" style="fill:url(#radial-gradient-9)"/><path d="M10.3,6.63a.12.12,0,0,1-.12-.08l-.68-3,.8-.13L11,6.36a.13.13,0,0,1-.11.14l-.54.12ZM9.54,3.57l.67,3a.1.1,0,0,0,.12.06l.54-.12A.1.1,0,0,0,11,6.37l-.68-2.92Z" style="fill:#444b4c"/><path id="Shape-14" data-name="Shape" d="M6.69,4l.68,3.16a.11.11,0,0,0,.14.06L8,7.12A.11.11,0,0,0,8.14,7L7.5,3.89Z" style="fill:url(#radial-gradient-10)"/><path d="M7.47,7.26a.12.12,0,0,1-.12-.08L6.67,4h0l.83-.14L8.15,7a.09.09,0,0,1,0,.07A.15.15,0,0,1,8,7.14l-.54.12ZM6.7,4l.67,3.15a.1.1,0,0,0,.12.05L8,7.11a.12.12,0,0,0,.07,0,.06.06,0,0,0,0,0L7.49,3.9Z" style="fill:#444b4c"/><path id="Shape-15" data-name="Shape" d="M15.79,16.41a2.1,2.1,0,0,0-1.7-.22,2.31,2.31,0,0,0-1.57.88,2.18,2.18,0,0,0-.23,1.45L11,18.8l-.23-1.13a.57.57,0,0,1,0-.33.27.27,0,0,1,.2-.15l.2-.05c.07,0,.11-.07.09-.14a.09.09,0,0,0-.14-.09l-.11,0-.66.15-.69.12h-.1l-.09,0a.15.15,0,0,0,0,.1c0,.07.06.1.15.09l.2,0a.28.28,0,0,1,.25.06.58.58,0,0,1,.13.31l.62,3a.58.58,0,0,1,0,.33.27.27,0,0,1-.2.15l-.2.05h0a.1.1,0,0,0-.08.13.09.09,0,0,0,.14.1l.1,0,.69-.16.67-.12.11,0s.08,0,.09,0a.16.16,0,0,0,0-.1A.09.09,0,0,0,12,21h0l-.2,0a.28.28,0,0,1-.25-.06.57.57,0,0,1-.13-.31l-.26-1.25,1.32-.27a2.41,2.41,0,0,0,.77,1.38,2,2,0,0,0,1.67.22,2.37,2.37,0,0,0,1.6-.89,2.44,2.44,0,0,0,.18-1.84A2.6,2.6,0,0,0,15.79,16.41ZM16,19.82a1.36,1.36,0,0,1-1.06.72,1.37,1.37,0,0,1-1.25-.25A2.76,2.76,0,0,1,13,18.78a2.73,2.73,0,0,1,0-1.64,1.36,1.36,0,0,1,1.05-.72,1.37,1.37,0,0,1,1.25.25A2.77,2.77,0,0,1,16,18.18,2.74,2.74,0,0,1,16,19.82Z" style="fill:#1b6a9e"/><path d="M10.36,21.62h-.05a.17.17,0,0,1-.06-.12.13.13,0,0,1,.1-.16h0l.2-.05a.24.24,0,0,0,.18-.13.56.56,0,0,0,0-.31l-.62-3A.56.56,0,0,0,10,17.5a.25.25,0,0,0-.22-.05l-.2,0a.14.14,0,0,1-.18-.11.16.16,0,0,1,0-.12s0,0,.11,0l.1,0,.69-.12L11,16.9h0l.1,0c.08,0,.1,0,.12,0a.17.17,0,0,1,0,.11.14.14,0,0,1-.11.17l-.2.05a.24.24,0,0,0-.18.13.55.55,0,0,0,0,.32l.22,1.1,1.27-.26a2.19,2.19,0,0,1,.23-1.44,2.35,2.35,0,0,1,1.59-.9,2.14,2.14,0,0,1,1.72.22h0A2.64,2.64,0,0,1,16.66,18a2.48,2.48,0,0,1-.19,1.86,2.41,2.41,0,0,1-1.61.9,2.08,2.08,0,0,1-1.69-.23,2.41,2.41,0,0,1-.77-1.37l-1.26.26.25,1.22a.55.55,0,0,0,.12.29.25.25,0,0,0,.22,0L12,21a.12.12,0,0,1,.15.11.18.18,0,0,1,0,.12.17.17,0,0,1-.11.05l-.09,0h0l-.67.12-.69.16-.09,0h-.07Zm0-.24h0a.07.07,0,0,0-.06.09c0,.06,0,.07,0,.08h.08l.09,0,.69-.16.67-.12H12l.07,0h0s0,0,0-.08,0-.07-.08-.06h0l-.2,0a.31.31,0,0,1-.27-.07.59.59,0,0,1-.14-.32l-.26-1.28,1.37-.28v0a2.39,2.39,0,0,0,.76,1.36,2,2,0,0,0,1.64.22,2.35,2.35,0,0,0,1.58-.88,2.43,2.43,0,0,0,.18-1.82,2.59,2.59,0,0,0-.83-1.62h0a2.08,2.08,0,0,0-1.67-.21,2.29,2.29,0,0,0-1.55.87,2.16,2.16,0,0,0-.22,1.43v0l-1.38.28-.23-1.16a.59.59,0,0,1,0-.35.3.3,0,0,1,.22-.16l.2-.05c.08,0,.08-.07.07-.1s0-.07,0-.07H11.1L11,17h0l-.66.15-.69.13h-.1l-.07,0s0,0,0,.08,0,.08.11.06l.2,0a.31.31,0,0,1,.27.07.6.6,0,0,1,.14.32l.62,3a.6.6,0,0,1,0,.35.3.3,0,0,1-.22.17Zm4.08-.77a1.22,1.22,0,0,1-.85-.3,2.8,2.8,0,0,1-.69-1.52,2.76,2.76,0,0,1,0-1.65,1.39,1.39,0,0,1,1.07-.74,1.4,1.4,0,0,1,1.28.25A2.81,2.81,0,0,1,16,18.17a2.77,2.77,0,0,1,0,1.66h0a1.4,1.4,0,0,1-1.08.73A2.19,2.19,0,0,1,14.48,20.61Zm0-4.2a2.12,2.12,0,0,0-.42,0,1.34,1.34,0,0,0-1,.7,2.71,2.71,0,0,0,0,1.62,2.75,2.75,0,0,0,.67,1.49,1.35,1.35,0,0,0,1.23.24,1.34,1.34,0,0,0,1-.7h0a2.72,2.72,0,0,0,0-1.62,2.75,2.75,0,0,0-.66-1.49A1.16,1.16,0,0,0,14.5,16.41Z" style="fill:#1b6a9e"/><path id="Shape-16" data-name="Shape" d="M20.26,13.53,23,17.67l.42-.08.06.29-1.67.34-.06-.29.91-.18-.82-1.22-2.3.47-.26,1.44.85-.17.06.29-1.64.33-.06-.29.42-.09.89-4.58-1.3.27-.06-.29Zm-.1.4-.55,2.74,2.08-.42Zm-1.43-2,.74-.15L21,13.05l-.34.07Z" style="fill:#e24c49"/><path d="M18.54,18.91l-.07-.35.43-.09L19.78,14l-1.29.26-.07-.35,1.85-.38v0L23,17.64l.43-.09.07.35-1.73.35-.07-.35.89-.18-.78-1.17L19.59,17l-.25,1.38.84-.17.07.35Zm0-.3,0,.23,1.58-.32,0-.23-.86.17.27-1.5h0l2.32-.47.85,1.28-.92.19,0,.23,1.61-.33,0-.23L23,17.7v0l-2.76-4.13-1.75.36,0,.23,1.32-.27L19,18.53Zm1-1.9.57-2.85,1.59,2.41Zm.6-2.7-.53,2.63,2-.4Zm.46-.86h0l-2-1.19.83-.17h0L21,13.07ZM18.8,12l1.83,1.11L20.9,13l-1.45-1.19Z" style="fill:#db3c72"/><path id="Shape-17" data-name="Shape" d="M12.76,10.84l.27-.52.77.32c0,.09-.12.14-.31.17l-1,.2.13.66c.94,0,1.3.3,1.36.55a.34.34,0,0,1-.28.4.45.45,0,0,1-.3-.06,1.87,1.87,0,0,0-.75-.8l.51,2.51a.83.83,0,0,1-.56.3l-.13,0L12,12.38a5.17,5.17,0,0,1-1,1.56l-.1-.06a6.36,6.36,0,0,0,.65-2.67l-1.07.22-.06-.11L11.77,11,11.55,10c-.4.16-.84.31-1.25.43l0-.07a12.17,12.17,0,0,0,2.27-1.54l1,.4a.3.3,0,0,1-.19.09.86.86,0,0,1-.24,0c-.22.12-.5.25-.8.39l.25,1.21ZM15.91,9l.91.34a.56.56,0,0,1-.27.19l.75,3.71s-.16.21-.71.32L16.48,13l-1.32.27.09.43s0,.27-.69.4L13.63,9.5l.83.13,1.21-.25Zm-.78,4.14,1.32-.27-.68-3.36-1.32.27Z" style="fill:#6f577d"/><g id="Group"><path d="M17.94,25.51l6.68-14.27,1.52.86L19.46,26.37c-.79,1-.63.47-.4-.23-.15.26-.52.61-.36-.2-1,1.66-.42.06-.31-.18-.66,1-.47,0-.45-.26Z" style="fill:url(#linear-gradient-4)"/><path d="M18.92,27h0c-.09,0-.07-.18,0-.55a.21.21,0,0,1-.2.07c-.07,0-.11-.12-.1-.28-.32.53-.4.55-.47.52s0-.35.06-.61c-.11.12-.19.16-.25.13s-.11-.32-.07-.65v-.12L24.6,11.16l1.62.92,0,0L19.51,26.4h0C19.13,26.89,19,27,18.92,27Zm.09-.88.11,0a3.42,3.42,0,0,0-.18.71,2.22,2.22,0,0,0,.48-.53l6.66-14.21-1.42-.81L18,25.52v.1c0,.32,0,.5,0,.52s.08,0,.36-.41l.1.06a4.1,4.1,0,0,0-.25.81,4.11,4.11,0,0,0,.45-.69l.11,0c-.08.39,0,.44,0,.44S18.91,26.29,19,26.11Z" style="fill:#cc772f"/><line x1="18.3" y1="26.22" x2="25.08" y2="11.4" style="fill:#f3cb83"/><rect x="13.54" y="18.75" width="16.29" height="0.12" transform="translate(-4.43 30.72) rotate(-65.44)" style="fill:#f3b262"/><rect x="13.69" y="18.93" width="16.3" height="0.03" transform="translate(-4.47 30.94) rotate(-65.44)" style="fill:#f3cb83"/><rect x="13.64" y="18.94" width="16.29" height="0.03" transform="translate(-4.5 30.9) rotate(-65.44)" style="fill:#f3cb83"/><rect x="13.6" y="18.94" width="16.3" height="0.03" transform="translate(-4.53 30.86) rotate(-65.44)" style="fill:#f3cb83"/><rect x="13.55" y="18.95" width="16.3" height="0.03" transform="translate(-4.56 30.82) rotate(-65.44)" style="fill:#f3cb83"/><path d="M25.74,8.77v0h0v0Zm1.53.83h0v0h0Zm-1.11,2.52Z" style="fill:#343833"/><path d="M25.76,8.73,26,8.25a.87.87,0,0,1,1.52.87l-.22.48Z" style="fill:#e24c49"/><path d="M27.31,9.68l-1.62-.92.24-.53a.77.77,0,0,1,.65-.44,1,1,0,0,1,.93.4.93.93,0,0,1,0,1Zm-1.47-1,1.42.81.19-.42a.8.8,0,0,0,0-.84.93.93,0,0,0-.83-.35.66.66,0,0,0-.56.37Z" style="fill:#aa342e"/><path d="M27.3,9.61v0h0l0,0Zm-1.56-.84h0v0h0Z" style="fill:#343833"/><path d="M27,10.05l.2-.45h0l-.2.45Z" style="fill:#f6ca2a"/><path d="M27,10l.2-.45h0l-.2.45Z" style="fill:#f4c92a"/><path d="M27,10l.2-.45h0L27,10Z" style="fill:#f4c92a"/><path d="M26.94,10l.2-.45h0L27,10Z" style="fill:#f2c82b"/><path d="M26.92,10l.2-.45h0l-.2.45,0,0Z" style="fill:#f0c52d"/><path d="M26.89,10l.2-.45h0l-.2.45Z" style="fill:#ecc23a"/><path d="M26.87,10l.2-.45h0l-.2.45Z" style="fill:#ecc344"/><path d="M26.85,10l.2-.45h0l-.2.45Z" style="fill:#ebc24f"/><path d="M26.82,9.94,27,9.5h0l-.2.45Z" style="fill:#e9c158"/><path d="M26.8,9.93l.2-.45h0l-.2.45Z" style="fill:#e4be5c"/><path d="M26.78,9.92a2.84,2.84,0,0,1,.2-.45h0l-.2.45Z" style="fill:#e4bf61"/><path d="M26.75,9.9l.2-.45h0l-.2.45Z" style="fill:#e1bb64"/><path d="M26.73,9.89l.2-.45h0l-.2.45Z" style="fill:#ddb967"/><path d="M26.7,9.88l.2-.45,0,0a2.65,2.65,0,0,0-.2.45l0,0Z" style="fill:#dab869"/><path d="M26.68,9.86l.2-.45,0,0a2.64,2.64,0,0,0-.2.45l0,0Z" style="fill:#d7b66b"/><path d="M26.66,9.85a2.58,2.58,0,0,1,.2-.45l0,0a2.65,2.65,0,0,0-.2.45l0,0Z" style="fill:#d7b66e"/><path d="M26.63,9.83a2.48,2.48,0,0,1,.2-.45l0,0a2.57,2.57,0,0,0-.2.45l0,0Z" style="fill:#d4b470"/><path d="M26.61,9.82a2.57,2.57,0,0,1,.2-.45l0,0a2.64,2.64,0,0,0-.2.45l0,0Z" style="fill:#d2b270"/><path d="M26.59,9.81l.2-.45,0,0a2.45,2.45,0,0,0-.2.45l0,0Z" style="fill:#d0b373"/><path d="M26.56,9.79a2.69,2.69,0,0,1,.2-.45l0,0a2.76,2.76,0,0,0-.2.45l0,0Z" style="fill:#d1b374"/><path d="M26.54,9.78a2.74,2.74,0,0,1,.2-.45l0,0-.2.45,0,0Z" style="fill:#cdb175"/><path d="M26.51,9.77a2.71,2.71,0,0,1,.2-.45l0,0-.2.45,0,0Z" style="fill:#ccae77"/><path d="M26.49,9.75a2.86,2.86,0,0,1,.2-.45l0,0-.2.45,0,0Z" style="fill:#c8ad78"/><path d="M26.47,9.74a1.31,1.31,0,0,1,.2-.45l0,0-.2.45,0,0Z" style="fill:#c8ac7a"/><path d="M26.44,9.73a1.29,1.29,0,0,1,.2-.45l0,0-.2.45,0,0Z" style="fill:#c7ab7b"/><path d="M25.54,9.21l.2-.45h0l-.2.45Z" style="fill:#fccd29"/><path d="M25.57,9.23l.2-.45h0l-.2.45Z" style="fill:#f6ca2a"/><path d="M25.59,9.24l.2-.45h0l-.2.45Z" style="fill:#f6ca2a"/><path d="M25.61,9.25l.2-.45h0l-.2.45Z" style="fill:#f4c92a"/><path d="M25.64,9.27l.2-.45h0l-.2.45Z" style="fill:#f4c92a"/><path d="M25.66,9.28l.2-.45h0l-.2.45Z" style="fill:#f2c82b"/><path d="M25.68,9.29l.2-.45h0l-.2.45Z" style="fill:#f2c62c"/><path d="M25.71,9.31l.2-.45h0l-.2.45Z" style="fill:#f0c52d"/><path d="M25.73,9.32a2.48,2.48,0,0,1,.2-.45h0l-.2.45Z" style="fill:#f0c631"/><path d="M25.73,9.32l.2-.45,0,0-.2.45,0,0Z" style="fill:#ecc23a"/><path d="M25.75,9.33l.2-.45,0,0-.2.45,0,0Z" style="fill:#ecc344"/><path d="M25.78,9.35,26,8.9l0,0-.2.45,0,0Z" style="fill:#ebc24a"/><path d="M25.8,9.36l.2-.45,0,0c-.09.12-.07.09-.2.45l0,0Z" style="fill:#ebc24f"/><path d="M25.83,9.38l.2-.45h0l-.2.45Z" style="fill:#e9c158"/><path d="M25.85,9.39l.2-.45h0l-.2.45Z" style="fill:#e9c15b"/><path d="M25.87,9.4l.2-.45h0l-.2.45Z" style="fill:#e4be5c"/><path d="M25.9,9.41,26.1,9h0l-.2.45,0,0Z" style="fill:#e4bf61"/><path d="M25.92,9.43l.2-.45h0l-.2.45Z" style="fill:#e1bb63"/><path d="M25.94,9.44l.2-.45h0l-.2.45Z" style="fill:#e1bb64"/><path d="M26,9.46a1.32,1.32,0,0,1,.2-.45h0l-.2.45Z" style="fill:#dcba67"/><path d="M26,9.46l.2-.45,0,0-.2.45,0,0Z" style="fill:#ddb967"/><path d="M26,9.47l.2-.45,0,0L26,9.5l0,0Z" style="fill:#dab869"/><path d="M26,9.48l.2-.45,0,0-.2.45,0,0Z" style="fill:#dab86a"/><path d="M26,9.5l.2-.45,0,0-.2.45,0,0Z" style="fill:#d7b66b"/><path d="M26.06,9.51l.2-.45,0,0-.2.45,0,0Z" style="fill:#d7b66e"/><path d="M26.09,9.52l.2-.45,0,0-.2.45,0,0Z" style="fill:#d4b46f"/><path d="M26.11,9.54l.2-.45,0,0-.2.45,0,0Z" style="fill:#d4b470"/><path d="M26.13,9.55l.2-.45,0,0a2.54,2.54,0,0,0-.2.45l0,0Z" style="fill:#d2b270"/><path d="M26.16,9.56l.2-.45,0,0a1.3,1.3,0,0,0-.2.45l0,0Z" style="fill:#d2b372"/><path d="M26.18,9.58a2.55,2.55,0,0,1,.2-.45h0l-.2.45Z" style="fill:#d0b373"/><path d="M26.21,9.59a1.31,1.31,0,0,1,.2-.45h0l-.2.45Z" style="fill:#d1b374"/><path d="M26.21,9.59l.2-.45,0,0-.2.45,0,0Z" style="fill:#cdb175"/><path d="M26.23,9.61l.2-.45,0,0-.2.45,0,0Z" style="fill:#cdb175"/><path d="M26.25,9.62l.2-.45,0,0-.2.45,0,0Z" style="fill:#ccb078"/><path d="M26.28,9.63l.2-.45,0,0-.2.45,0,0Z" style="fill:#ccae77"/><path d="M26.3,9.65l.2-.45,0,0-.2.45,0,0Z" style="fill:#c8ad77"/><path d="M26.33,9.66l.2-.45,0,0-.2.45,0,0Z" style="fill:#c8ad78"/><path d="M26.35,9.67l.2-.45,0,0-.2.45,0,0Z" style="fill:#c7ab78"/><path d="M26.37,9.69l.2-.45,0,0-.2.45,0,0Z" style="fill:#c7ab7a"/><path d="M26.4,9.7l.2-.45,0,0-.2.45,0,0Z" style="fill:#c4aa7b"/><polygon points="25.73 9.39 25.54 9.28 25.79 8.72 25.98 8.84 25.73 9.39" style="fill:#343833"/><polygon points="26.96 10.03 27.17 9.58 27.26 9.63 27.06 10.08 26.96 10.03" style="fill:#fccd29"/><polygon points="27.09 10.16 26.89 10.05 27.14 9.49 27.34 9.61 27.09 10.16" style="fill:#343833"/><polygon points="26.9 10.05 26.7 9.94 26.95 9.38 27.15 9.5 26.9 10.05" style="fill:#343833"/><polygon points="26.73 9.96 26.53 9.85 26.78 9.29 26.98 9.4 26.73 9.96" style="fill:#343833"/><polygon points="26.39 9.7 26.6 9.25 26.72 9.32 26.49 9.75 26.39 9.7" style="fill:#c4aa7b"/><path d="M26.51,9.83l-.19-.11.25-.55.22.13Zm.11-.5-.11.25.13-.24Z" style="fill:#343833"/><polygon points="26.33 9.73 26.13 9.62 26.38 9.06 26.58 9.17 26.33 9.73" style="fill:#343833"/><polygon points="26.14 9.62 25.94 9.51 26.19 8.95 26.39 9.07 26.14 9.62" style="fill:#343833"/><polygon points="25.95 9.51 25.75 9.4 26 8.85 26.2 8.96 25.95 9.51" style="fill:#343833"/><g id="Shape-18" data-name="Shape"><polygon points="24.62 11.24 25.74 8.77 27.26 9.63 26.14 12.11 24.62 11.24" style="fill:url(#linear-gradient-5)"/><path d="M26.17,12.19l-1.62-.92,1.17-2.58,1.62.92Zm-1.47-1,1.42.81,1.07-2.37-1.42-.81Z" style="fill:#8f989b"/><polygon points="24.84 10.76 24.9 10.62 26.42 11.49 26.36 11.63 24.84 10.76" style="fill:url(#linear-gradient-6)"/><path d="M26.39,11.71l-1.62-.92.11-.24,1.62.92Zm-1.47-1,1.42.81v0l-1.42-.81Z" style="fill:#343833"/><polygon points="25.04 10.31 25.09 10.21 26.61 11.07 26.56 11.18 25.04 10.31" style="fill:url(#linear-gradient-7)"/><polygon points="26.59 11.26 24.97 10.34 25.06 10.13 26.68 11.05 26.59 11.26" style="fill:#737a7f"/><polygon points="25.25 9.87 25.31 9.73 26.83 10.59 26.77 10.73 25.25 9.87" style="fill:url(#linear-gradient-8)"/><path d="M26.79,10.81l-1.62-.92.11-.25,1.62.92Zm-1.47-1,1.42.81v0l-1.42-.81Z" style="fill:#737a7f"/></g><path d="M17.14,28.81,16.84,30l.66-.92c0-.28-.21-.38-.36-.25Z" style="fill:#8a9196"/><path d="M17.14,28.81,16.84,30l.66-.92c0-.28-.21-.38-.36-.25Z"/><path d="M16.87,30l-.05,0,.29-1.18h0a.24.24,0,0,1,.28,0,.29.29,0,0,1,.13.31h0Zm.29-1.17-.25,1,.56-.79a.23.23,0,0,0-.1-.25A.19.19,0,0,0,17.16,28.83Z" style="fill:#343833"/><path d="M19.46,26.37,17.51,29a.23.23,0,0,0-.38-.21l.81-3.3c0,.25-.21,1.26.45.26-.11.24-.65,1.83.31.18-.16.82.21.46.36.2-.22.69-.39,1.25.4.23Z" style="fill:#c6bdaf"/><path d="M19.46,26.37,17.51,29a.23.23,0,0,0-.38-.21l.81-3.3c0,.25-.21,1.26.45.26-.11.24-.65,1.83.31.18-.16.82.21.46.36.2-.22.69-.39,1.25.4.23Z" style="fill:#e5bd87"/><path d="M17.47,29.13V29a.22.22,0,0,0-.13-.23.17.17,0,0,0-.2,0l-.05,0,.81-3.3H18v.11c0,.16-.06.52,0,.55s.11,0,.39-.42l.05,0a2.9,2.9,0,0,0-.24.88s.11-.06.5-.73l.05,0c-.08.41,0,.46,0,.47s.2-.12.3-.29l.05,0c-.08.23-.23.72-.17.75s.09,0,.53-.55l0,0Zm-.2-.41.1,0a.27.27,0,0,1,.16.2l1.5-2c-.08.07-.13.07-.16.06s0-.22.09-.63c-.08.1-.18.18-.26.15s-.1-.15-.07-.38c-.4.67-.46.64-.5.62s0-.47.14-.74c-.19.25-.28.27-.33.25s-.09-.15-.08-.31l-.69,2.82Z" style="fill:#c48e30"/><path d="M17.31,29.21l-.27.41.23-.43s.06,0,0,0Z" style="fill:#dadde0"/><path d="M17.41,28.79l-.08.07,1-3.18a4.3,4.3,0,0,0,.13.61l.34-.09-1.39,2.72Z" style="fill:#e6d7c2;opacity:0.589999973773956;isolation:isolate"/><path d="M17.47,28.65l-.06.06,1-2.92a5.51,5.51,0,0,0,0,.6l.25,0-1.22,2.43Z" style="fill:#e6d7c2"/></g></g></g></g></g></svg>