<svg viewBox="0 0 32 32" xmlns="http://www.w3.org/2000/svg"><path d="m3.167 3.517h25.666v24.966h-25.666z" fill="#0c0824"/><path d="m3.167 3.517h25.666v24.966h-25.666zm-1.167 26.133h28v-27.3h-28zm18.877-16.1c-.922 0-1.237.467-1.237.852 0 .42.21.712 1.447 1.353 1.832.887 2.4 1.738 2.4 2.987 0 1.867-1.423 2.87-3.348 2.87a5.076 5.076 0 0 1 -2.392-.5c-.082-.035-.093-.093-.093-.187v-1.717c0-.117.058-.152.14-.093a4.33 4.33 0 0 0 2.345.688c.922 0 1.307-.385 1.307-.91 0-.42-.268-.793-1.447-1.4-1.657-.793-2.345-1.6-2.345-2.94 0-1.505 1.178-2.753 3.22-2.753a5.365 5.365 0 0 1 2.088.327.258.258 0 0 1 .117.233v1.6c0 .093-.058.152-.175.117a3.941 3.941 0 0 0 -2.03-.525zm-10.034 1.388c.268.023.478.023.945.023 1.365 0 2.648-.478 2.648-2.333 0-1.482-.922-2.228-2.473-2.228-.467 0-.91.023-1.12.035zm-2.077-6.2c0-.082.163-.14.257-.14.747-.035 1.855-.058 3.01-.058 3.232 0 4.492 1.773 4.492 4.037 0 2.963-2.147 4.235-4.783 4.235-.443 0-.595-.023-.91-.023v4.48c0 .093-.035.14-.14.14h-1.785c-.093 0-.14-.035-.14-.14v-12.526z" fill="#31c5f0"/></svg>