<svg xmlns="http://www.w3.org/2000/svg" fill="none" viewBox="0 0 32 32"><path fill="#2a486b" fill-rule="evenodd" d="M12.83 5.52q.24 0 .48.04l9.23-.04c-.4.1-.8.26-1.19.59l-.03.02a3 3 0 0 0-1 2.22c-.07 1.59-.1 3.88-.1 5.21q0 .18.03.31c.14.67.72 1.12 1.44 1.12a1.5 1.5 0 0 0 1.22-.58l.01-.02.02-.02v-.01l.04-.05.03-.05a3.5 3.5 0 0 1 3.14-1.64c1.13 0 2.1.38 2.77 1.05.68.66 1.1 1.6 1.1 2.75a3.63 3.63 0 0 1-3.74 3.75 3.7 3.7 0 0 1-2.88-1.3l-.26-.36a4 4 0 0 0-.36-.46 1.5 1.5 0 0 0-1.09-.44c-.83 0-1.48.61-1.48 1.43 0 1.34.04 3.43.1 4.94q.02.41.12.79l-.15.48.26.31.66.79.4.47h-3.31l-.38-.55v-.01l-.61-.89-.08-.1a4 4 0 0 1 1.51-1.86l.07.07.2-.14-.2-.3-.16-.25-.35-.54h-.02a5.2 5.2 0 0 0-2.26 2.86 3 3 0 0 0-.08.92q.03.42.2.79H5.2A3.2 3.2 0 0 1 2 23.63V8.71c0-.64.2-1.25.52-1.75q.37-.65 1.06-1a3 3 0 0 1 1.61-.44z" clip-rule="evenodd"/><path fill="#aab0c2" fill-rule="evenodd" d="m20.3 23.75-.03-.98-.33-.32-.86.02c.65.15 1.1.62 1.2 1.27z" clip-rule="evenodd"/><path fill="#778292" d="m13.28 17.12.5.64.68.84c-.22.04-.44.17-.57.27l-.06.05c-.12.09-.3.26-.4.44l-1.57-2.16a5 5 0 0 1 .92-.7zM11.62 15.04l.43.54.08.1a7 7 0 0 0-.88.67l-.88-1.22a4 4 0 0 1 .82-.63zM10.07 13.1l.36.45.18.22a6 6 0 0 0-.79.6l-.85-1.18a4 4 0 0 1 .73-.56zM8.05 11.22c.23-.18.49-.05.6.09l.03.04.5.64a5 5 0 0 0-.7.53L8 11.86l-.02-.04c-.11-.14-.17-.42.07-.6"/><path fill="#aab0c2" d="M15.03 22.06c.4-.54.93-.99 1.55-1.22l-1.9-2.26a1 1 0 0 0-.22.02c-.22.04-.44.17-.57.27l-.06.05c-.12.09-.3.26-.4.44a1 1 0 0 0-.1.25z"/><path fill="#fff" d="m26.21 23.84-.09 1.1q0 .2.17.3l.67.33-.73-.02a.3.3 0 0 0-.29.18l-.42 1.06.09-1.13a.3.3 0 0 0-.17-.3l-.68-.3h.74a.3.3 0 0 0 .28-.18z"/><path fill="#fcd006" d="M12.13 15.67c1.23-.78 2.14-.69 2.5-.22.34.46.2 1.34-.85 2.3l-.5-.63c.47-.46.66-.86.67-1.01-.15-.04-.6.04-1.17.38a5 5 0 0 0-.92.7c-.47.46-.65.86-.66 1 .14.04.57-.03 1.12-.35l.48.66c-1.2.72-2.07.63-2.42.17s-.2-1.35.87-2.32a6 6 0 0 1 .88-.68M10.6 13.77c1.08-.68 1.87-.6 2.18-.2.3.4.17 1.17-.73 2l-.43-.53c.41-.4.57-.75.58-.88-.13-.02-.51.05-1.01.34a4 4 0 0 0-.82.63c-.4.39-.56.73-.57.86.12.02.49-.04.96-.3l.4.56c-1.02.62-1.78.53-2.08.14-.3-.4-.18-1.18.74-2.02a6 6 0 0 1 .79-.6M17.17 14q.05.13.2.13h.52l-.47.21a.2.2 0 0 0-.12.21l.06.8-.3-.74a.2.2 0 0 0-.2-.14l-.52.02.48-.22a.2.2 0 0 0 .11-.2l-.05-.8zM9.19 11.99c.92-.58 1.6-.51 1.86-.16s.15 1-.62 1.72l-.37-.45c.35-.34.5-.64.5-.75-.11-.03-.44.03-.86.28a4 4 0 0 0-.74.56c-.33.33-.47.62-.48.73.11.02.42-.03.83-.26l.34.48c-.89.53-1.54.46-1.8.12s-.15-1.01.64-1.74a5 5 0 0 1 .7-.53M8.76 7.69a.2.2 0 0 1 .29.2l-.33 1.77 1.36 1.19c.12.1.06.31-.1.33l-1.3.17-.04-.04c-.1-.14-.36-.27-.6-.1-.23.19-.17.47-.06.6l.02.05-.52 1.22a.19.19 0 0 1-.34 0l-.78-1.62-1.8-.16a.2.2 0 0 1-.11-.33l1.3-1.24-.4-1.76a.19.19 0 0 1 .28-.21l1.58.86z"/><path fill="#fff" d="M5.62 18.96a.31.31 0 1 1-.62 0 .31.31 0 0 1 .62 0"/><path fill="#778292" d="m14.61 25.4.25.39a1 1 0 0 0-.17.16q-.22.34 0 .87-.95-.02-1.76 0l.34-.57c.23-.44.8-.8 1.34-.86"/><path fill="#080604" d="M14.7 25.95q.06-.1.16-.16a6 6 0 0 0 .88 1.03h-1.05q-.22-.52 0-.87"/><path fill="#566576" d="m18.27 22.25-1.1-1.56c-2.06.27-3.4 2.96-2.76 4.3a6 6 0 0 0 1.33 1.83h.4q-.2-.44-.22-.92c-.04-1.26.8-2.64 2.35-3.65"/><path fill="#778292" d="M16.13 26.82q-.2-.44-.2-.92a3 3 0 0 1 .15-1.05 5.2 5.2 0 0 1 2.2-2.6l.72 1.1-.2.13-.07-.07a4 4 0 0 0-1.5 1.85l.07.11c-.18.62 0 1.09.43 1.36l.14.09z"/><path fill="#080604" fill-rule="evenodd" d="M17.88 26.82h.4l-.36-.54-.62-.9c-.18.61 0 1.08.43 1.35z" clip-rule="evenodd"/><path fill="#778292" d="m20.43 24.77-.15.48.26.31.66.79.09-.16a3 3 0 0 1-.68-.93 3 3 0 0 1-.18-.5"/><path fill="#2a486b" fill-rule="evenodd" d="m21.2 26.35.09-.16q.48.44 1.19.63h-.88z" clip-rule="evenodd"/><path fill="#aab0c2" fill-rule="evenodd" d="M18.73 23.4a4 4 0 0 0-1.5 1.86l.67.99.39.57h3.3l-.4-.47z" clip-rule="evenodd"/><path fill="#080604" d="M20.31 23.98q0-.14-.02-.24a1.5 1.5 0 0 0-1.21-1.27q-.04.27-.28.56l.2.31-.2.14 1.48 1.77.15-.48a4 4 0 0 1-.12-.8"/></svg>