<svg xmlns="http://www.w3.org/2000/svg" xmlns:xlink="http://www.w3.org/1999/xlink" viewBox="0 0 32 32"><defs><linearGradient id="a" x1="9.955" y1="22.904" x2="16.68" y2="8.676" gradientUnits="userSpaceOnUse"><stop offset="0" stop-color="#1011a1"/><stop offset="1" stop-color="#6969e1"/></linearGradient><linearGradient id="b" x1="16.231" y1="12.345" x2="25.618" y2="28.218" gradientUnits="userSpaceOnUse"><stop offset="0" stop-color="#b40e0e"/><stop offset="1" stop-color="#ff5959"/></linearGradient><linearGradient id="c" x1="21.663" y1="27.175" x2="8.381" y2="26.06" gradientUnits="userSpaceOnUse"><stop offset="0" stop-color="#01a300"/><stop offset="1" stop-color="#01df00"/></linearGradient><linearGradient id="d" x1="14.643" y1="23.632" x2="14.472" y2="17.855" gradientUnits="userSpaceOnUse"><stop offset="0" stop-color="#848484"/><stop offset="1" stop-color="#d2d2d2"/></linearGradient></defs><title>file_type_cmake</title><path d="M17.257,16.919,2.246,29.749,15.994,2.283Z" style="stroke:#000;stroke-width:0.050000000745058px;fill:url(#a)"/><path d="M17.952,24.931,16,2.28,29.767,29.751Z" style="stroke:#000;stroke-width:0.050000000745058px;fill:url(#b)"/><path d="M11.16,22.094l18.621,7.654-27.531,0Z" style="stroke:#000;stroke-width:0.050000000745058px;fill:url(#c)"/><path d="M11.189,22.112l6.059-5.168.843,7.98Z" style="stroke:#000;stroke-width:0.100000001490116px;fill:url(#d)"/><path d="M29.685,29.836l-27.4,0c-.168-.019-.13-.1-.091-.186L15.931,2.22c.051-.08.1-.068.139-.006L29.8,29.641C29.873,29.781,29.827,29.841,29.685,29.836Z" style="fill:none;stroke:#000;stroke-width:0.150000005960464px"/></svg>