<svg xmlns="http://www.w3.org/2000/svg" viewBox="0 0 32 32"><mask id="b" width="21" height="21" x="2" y="8" maskUnits="userSpaceOnUse" style="mask-type:luminance"><path fill="#fff" d="M2.25 8.25h20v20h-20z"/></mask><path fill="#fff" d="m4.06 27.648 16.12.037c1.63.049 2.066.098 3.397-.6.435-.446 6.283-15.87 6.283-20.83-.01-1.193-.31-1.89-1.347-1.89-7.091.554-18.68.192-24.265 3.093-.788.414-2.154 1.895-2.138 2.89l-.04 15.486c.58 1.348.911 1.458 1.983 1.81z"/><path fill="#f6901e" d="M25.793 6.073c-4.646 2.058-2.53 1.772-13.263 1.791-10.734.02-9.896.301-5.251-1.757 4.648-2.058 2.53-1.772 13.264-1.793 10.735-.019 9.897-.3 5.251 1.759"/><path fill="url(#a)" d="M29.32 14.749c.038 10.874.59 9.134-3.465 10.9-4.056 1.764-3.493 3.018-3.531-7.855s-.591-9.134 3.465-10.9c4.056-1.765 3.493-3.02 3.53 7.855" transform="translate(-.545 -.72)scale(1.0378)"/><g mask="url(#b)" transform="translate(-.545 -.72)scale(1.0378)"><path fill="url(#c)" d="M2.57 14.052c0 .511.024 1.033-.01 1.543-.026 1.116-.007 2.238-.007 3.355v1.381c0 .27-.008.542.008.81a.4.4 0 0 0 .048.203c.008.106-.04.301-.04.434q-.002.546.005 1.092c.005.284.02 1.847.007 2.13l19.242.656V11.198c.019-.723-.155-1.357-.664-1.889-.496-.519-1.145-.738-1.851-.751-1.11-.021-2.221-.002-3.331-.002H5.505c-.286-.001-.572-.006-.856.039a2.47 2.47 0 0 0-1.337.655c-.48.46-.72 1.117-.73 1.772-.006.43.002.86 0 1.29z"/><path fill="#fff" d="M3.628 15.213c-.166.132-.847.347-1.078.4l-.01 8.114.04 1.773 19.25.217v-.462c-.23.03-.496.074-.728.08-.91.027-1.718-.308-2.6-.433a6 6 0 0 0-.94-.076c-.374.003-.754.046-1.13.061-.518.021-1.035.003-1.553.041-.59.042-1.17.175-1.737.33-.061-.197-.15-.382-.223-.574a6 6 0 0 1-.246-.832 4 4 0 0 1-.082-.516c-.011-.136.007-.296-.031-.427s-.148-.248-.223-.361a2 2 0 0 1-.181-.335c-.137-.318-.15-.58-.208-.911-.037-.212-.088-.421-.103-.637-.011-.156 0-.313-.006-.469-.008-.164-.031-.325-.014-.49 1.04-.013 2.12.127 3.106-.293.405-.172.852-.413 1.153-.741.157-.17.287-.364.455-.524.16-.156.377-.277.505-.464.116-.17.162-.373.24-.563a.73.73 0 0 1 .22-.31 1.4 1.4 0 0 1 .282-.16c.167-.076.343-.129.516-.19.22-.079.448-.197.684-.209.19-.009.42.149.598.075.02-.071-.025-.156-.013-.225.019-.113.099-.083.065-.271-.048-.268-.162-.524-.392-.682-.445-.306-1.14-.301-1.66-.383-.468-.074-.93-.241-1.41-.138-.183.04-.278.338-.36.475-.067.113-.15.222-.201.342-.056.13-.077.279-.12.414a3.4 3.4 0 0 1-.394.836c-.154.232-.43.627-.654.784a.8.8 0 0 1-.301.123 1.4 1.4 0 0 1-.637-.044c-.751-.206-1.136-.687-1.695-1.174-.158-.137-.317-.277-.482-.407-.144-.112-.296-.214-.43-.337-.203-.185-.368-.408-.568-.595-.188-.177-.426-.286-.606-.47-.293-.301-.433-.687-.797-.931-.193-.129-.728-.368-.964-.316a.7.7 0 0 0-.21.1c-.322.207-.297.482-.478.769a.46.46 0 0 1-.305.211c-.374.084-.943-.034-1.276-.213-.151-.081-.284-.197-.43-.287-.114-.072-.253-.134-.391-.114-.342.049-.73.666-.902.942-.1.157-.196.359-.345.477"/><path fill="url(#d)" d="M6.837 24.486c.034-.1.08-.197.12-.296.094-.231.179-.466.317-.676.11-.167.255-.311.346-.49.117-.226.147-.497.25-.732.132-.296.33-.558.499-.833.278-.454.49-1.066 1-1.316.114-.056.248-.1.372-.058.112.04.22.124.315.195.4.3.778.687.986 1.147q.271.62.44 1.273c.054.198.08.42.157.609.08.195.255.34.358.522.144.257.244.526.354.798.083.206.174.413.247.623-.18-.063-.394-.081-.572-.16-.44-.196-.81-.537-1.214-.792a3.2 3.2 0 0 0-.912-.388c-.87-.225-1.243-.01-2.02.289-.325.123-.705.206-1.043.285"/><path fill="url(#e)" d="M2.608 21.344q.098-.143.202-.283c.238-.322.438-.53.638-.889.121-.218.137-.532.276-.72a.5.5 0 0 1 .317-.187.4.4 0 0 1 .313.084c.15.11.272.257.433.354.11.067.245.111.365.155.638.228 1.3.381 1.973.457.266.03.536.028.8.065a1.6 1.6 0 0 0-.383.453c-.227.415-.3.891-.496 1.319-.117.255-.409.472-.426.76-.01.188.031.375.007.564-.045.352-.262.73-.35 1.068-.086.03-.216.042-.307.043-.96.005-1.79-.452-2.692-.713-.223-.064-.464-.14-.697-.15.014-.283-.002-.57-.007-.854a79 79 0 0 1-.005-1.092c0-.133.047-.328.04-.434"/></g><defs><linearGradient id="a" x1="45.323" x2="52.781" y1="-8.306" y2="-8.026" gradientUnits="userSpaceOnUse"><stop offset="0" stop-color="#F6901E"/><stop offset="1" stop-color="#F47B1F"/></linearGradient><linearGradient id="c" x1="12.209" x2="12.193" y1="25.319" y2="8.588" gradientUnits="userSpaceOnUse"><stop offset="0" stop-color="#F27022"/><stop offset="1" stop-color="#F7921E"/></linearGradient><linearGradient id="d" x1="9.701" x2="9.718" y1="25.193" y2="20.083" gradientUnits="userSpaceOnUse"><stop offset="0" stop-color="#F37022"/><stop offset="1" stop-color="#F7911E"/></linearGradient><linearGradient id="e" x1="5.207" x2="5.227" y1="24.558" y2="19.278" gradientUnits="userSpaceOnUse"><stop offset="0" stop-color="#F27021"/><stop offset="1" stop-color="#F7911E"/></linearGradient></defs></svg>