<svg width="160" height="160" viewBox="0 0 160 160" fill="none" xmlns="http://www.w3.org/2000/svg">
<path d="M140.8 131.994C139.976 131.994 139.371 131.996 138.766 131.993C135.042 131.972 134.489 131.051 136.118 127.573C136.312 127.158 136.514 126.747 136.733 126.345C140.936 118.646 139.596 110.187 133.134 104.271C129.263 100.726 125.354 97.2314 122.301 92.897C119.044 88.2725 117.308 83.1634 117.515 77.439C117.537 76.8279 117.512 76.2152 117.523 75.6036C117.546 74.4059 117.21 73.3877 115.855 73.3418C114.614 73.2997 114.289 74.262 114.122 75.3387C113.459 79.6145 114.04 83.7815 115.789 87.6436C116.827 89.934 116.186 90.7755 114.213 91.7764C109.789 94.0209 105.892 97.0255 102.604 100.815C100.965 102.704 99.109 102.535 98.2028 100.186C97.2893 97.8184 95.7151 97.4515 93.566 97.514C91.3177 97.5792 89.113 98.432 86.9019 97.9426C86.4359 97.528 86.5129 97.0662 86.5439 96.6074C87.0237 89.5057 85.9557 82.5975 83.9619 75.8119C83.6005 74.5819 83.2668 73.0056 81.5127 73.5065C79.7717 74.0037 80.2262 75.4578 80.6278 76.7408C83.9091 87.2214 83.6483 97.8052 81.4103 108.413C80.9882 110.414 80.2591 112.386 79.407 114.247C78.2715 116.727 78.0671 119.219 78.5865 121.843C78.9385 123.622 79.1168 125.348 77.2627 126.528C76.3108 127.133 76.3589 128.286 76.2159 129.218C75.931 131.077 74.8611 131.898 73.1463 131.952C71.031 132.02 68.9118 132.005 66.7951 131.973C64.8638 131.944 64.4102 130.78 65.0665 129.197C65.6759 127.727 66.4207 126.275 67.3346 124.981C69.2901 122.212 69.7688 119.317 68.6322 116.109C65.625 107.622 62.5119 99.1721 59.8671 90.5577C59.521 89.4304 58.8793 88.5595 57.5654 88.9319C56.1388 89.3362 56.3085 90.5738 56.6276 91.5831C57.8467 95.439 59.1766 99.2591 60.4419 103.1C60.6694 103.791 61.2431 104.435 60.7273 105.519C57.4639 105.056 54.493 103.595 51.5701 102.094C48.1288 100.328 44.9338 98.1326 41.7482 95.9297C37.6066 93.0656 35.5461 93.5147 32.8392 97.8473C31.5046 99.9835 30.2623 102.18 28.1565 103.677C25.2253 105.762 23.5382 105.171 22.5456 101.713C22.3562 101.053 22.1036 100.408 21.9629 99.7377C21.2894 96.5308 19.6537 94.9546 16.1209 94.6561C10.0932 94.1469 7.35759 90.5192 7.22178 84.397C7.11517 79.591 6.58748 74.79 7.66501 70.0191C7.78861 69.4719 7.65946 68.7544 7.39845 68.2469C2.83218 59.368 10.0361 46.755 20.4906 44.8655C22.7604 44.4552 25.001 44.552 27.2612 44.5169C27.9953 44.5055 28.7626 44.8542 29.4954 44.3178C29.8636 43.1059 29.1919 42.1206 28.7148 41.1094C28.0824 39.7691 27.8906 38.4551 28.9187 37.2494C29.9464 36.0442 31.2884 35.6784 32.8186 36.013C34.8478 36.4568 36.7612 37.2361 38.2779 38.6645C39.7308 40.0329 40.6748 39.8528 41.9463 38.343C48.642 30.3921 57.3387 27.4529 67.4617 28.0823C75.3969 28.5756 82.6202 31.3336 89.665 34.8066C101.797 40.7876 114.474 45.2722 127.504 48.7789C131.315 49.8045 135.075 50.9898 138.017 53.8766C138.463 54.3144 139.017 54.5191 139.621 54.6712C147.89 56.7557 150.812 61.9419 151.31 70.0004C151.389 71.2965 151.416 72.6026 151.359 73.8993C151.257 76.2312 151.591 78.3475 152.902 80.4169C154.411 82.8014 154.149 85.5379 153.399 88.1885C153.15 89.0697 152.885 89.9517 152.546 90.7999C152.17 91.7376 152.443 93.1299 151.113 93.4412C149.741 93.7622 149.111 92.5332 148.4 91.712C145.476 88.3341 144.896 84.5127 146.004 80.1683C147.188 75.5285 146.926 70.7695 146.014 66.0996C145.691 64.4429 144.98 62.7704 143.24 61.9795C142.502 62.5071 142.721 63.1786 142.798 63.734C143.827 71.1652 143.26 78.5329 141.768 85.8248C140.781 90.6536 141.946 94.8524 145.165 98.3298C147.221 100.551 147.822 102.719 147.48 105.751C146.887 110.998 147.552 116.276 148.453 121.479C148.761 123.255 148.768 124.795 147.212 126.027C146.838 126.323 146.599 126.908 146.486 127.404C145.444 131.98 145.456 131.983 140.8 131.994ZM30.9168 63.8186C32.2384 63.9389 33.4494 63.6084 34.6007 62.9552C39.0376 60.4377 41.3307 55.0667 40.1174 50.0481C39.3731 46.9697 38.0338 44.3167 35.3365 42.403C34.4377 43.6799 35.1554 44.6213 35.2943 45.5256C36.1639 51.1874 34.9363 53.56 29.7442 55.9622C28.1083 56.719 26.9795 57.9226 27.1157 59.8386C27.2669 61.9648 28.3976 63.3695 30.9168 63.8186Z" fill="#CA8446"/>
<path d="M112.02 104.119C109.069 97.2771 108.456 98.8787 114.471 94.7365C118.195 92.1726 118.053 92.4208 121.123 95.6613C123.896 98.5885 125.204 102.018 125.922 105.901C126.13 107.023 125.92 107.879 125.329 108.734C121.922 113.667 118.486 118.582 116.37 124.324C116.122 124.997 115.707 125.597 115.06 125.86C113.966 126.304 113.438 127.126 113.219 128.283C112.977 129.558 112.19 130.342 110.982 130.612C108.47 131.175 105.921 131.032 103.405 130.765C101.89 130.604 101.723 129.391 102.324 128.131C103.091 126.523 104.058 125.041 105.165 123.659C107.464 120.787 109.696 117.868 111.554 114.648C113.506 111.266 114.12 107.862 112.02 104.119Z" fill="#CA8446"/>
<path d="M48.58 106.296C52.1836 108.201 55.9281 109.363 60 110.57C58.9799 112.509 57.3573 113.664 55.8284 114.849C54.6149 115.79 53.2334 116.536 51.9517 117.402C49.7249 118.906 48.4324 120.973 47.9458 123.488C47.6907 124.807 47.1842 125.879 45.6382 126.271C44.7884 126.486 44.4223 127.151 44.2893 127.942C43.9419 130.006 42.3853 130.765 40.4246 130.881C38.3797 131.003 36.3164 131.047 34.2727 130.936C32.0843 130.818 31.5548 129.873 32.3485 127.968C33.1113 126.139 34.2944 124.512 35.7421 123.179C39.6153 119.613 41.5308 115.119 43.111 110.418C43.7234 108.596 44.3923 106.791 45.0156 105.034C46.5715 104.796 47.3511 105.861 48.58 106.296Z" fill="#CA8446"/>
</svg>
