<svg viewBox="0 0 32 32" xmlns="http://www.w3.org/2000/svg"><path d="m10.084 13.816h8.19v3.567h-8.19z" fill="#fcfcfc"/><path d="m10.084 10.095q4.093 0 8.189 0v3.925h-4.022v-.2h-4.17c.003-1.178.003-3.725.003-3.725z"/><path d="m10.134 17.182h4.12v.2h4.02v4.219q-4.068.007-8.136 0z"/><g fill="#044699"><path d="m23.32 10.349c1.909 0 3.819-.005 5.727 0-.052.13-4.364 5.269-4.449 5.346.128.134 5.291 6.078 5.4 6.207h-5.824c-1.55-1.562-3.115-3.111-4.665-4.673-1.668 0-5.232-.008-5.255-.014.005-.524 0-1.07 0-1.594h4.02c0-.507 0-1.245 0-1.6h1.333c.599-.604 3.137-3.085 3.713-3.672z"/><path d="m5.191 13.972c3.021-.014 6.042 0 9.064-.006v1.658h-4.12v1.558c-1.782 0-3.564.008-5.346-.006-.257-.013-2.29-.137-2.717-1.28a1.236 1.236 0 0 1 -.072-.307 1.206 1.206 0 0 1 .063-.263c.442-1.226 2.772-1.34 3.128-1.354z"/></g></svg>