<svg xmlns="http://www.w3.org/2000/svg" viewBox="0 0 32 32"><title>file_type_js_official@2x</title><g id="js_official"><rect x="2" y="2" width="28" height="28" style="fill:#f5de19"/><path d="M20.81,23.88a2.87,2.87,0,0,0,2.6,1.6c1.09,0,1.79-.54,1.79-1.3s-.72-1.22-1.92-1.75l-.66-.28c-1.9-.81-3.16-1.82-3.16-4,0-2,1.5-3.48,3.85-3.48a3.89,3.89,0,0,1,3.74,2.11l-2,1.32A1.79,1.79,0,0,0,23.31,17a1.14,1.14,0,0,0-1.26,1.13c0,.79.49,1.11,1.62,1.6l.66.28c2.24,1,3.5,1.94,3.5,4.13,0,2.37-1.86,3.67-4.36,3.67a5.06,5.06,0,0,1-4.79-2.69Zm-9.29.23c.41.73.79,1.35,1.69,1.35s1.41-.34,1.41-1.65V14.86h2.63v9c0,2.72-1.6,4-3.93,4a4.08,4.08,0,0,1-3.95-2.4Z"/></g></svg>