<svg xmlns="http://www.w3.org/2000/svg" xmlns:xlink="http://www.w3.org/1999/xlink" viewBox="0 0 32 32"><defs><linearGradient id="linear-gradient" x1="-133.27" y1="-202.91" x2="-133.2" y2="-202.84" gradientTransform="translate(25243.06 38519.17) scale(189.38 189.81)" gradientUnits="userSpaceOnUse"><stop offset="0" stop-color="#387eb8"/><stop offset="1" stop-color="#366994"/></linearGradient><linearGradient id="linear-gradient-2" x1="-133.58" y1="-203.2" x2="-133.49" y2="-203.13" gradientTransform="translate(25309.06 38583.42) scale(189.38 189.81)" gradientUnits="userSpaceOnUse"><stop offset="0" stop-color="#ffe052"/><stop offset="1" stop-color="#ffc331"/></linearGradient></defs><title>file_type_python@2x</title><g id="python"><path d="M15.88,2.1c-7.1,0-6.65,3.07-6.65,3.07V8.36H16v1H6.54S2,8.8,2,16s4,6.91,4,6.91H8.33V19.56s-.13-4,3.9-4H19s3.77.06,3.77-3.65V5.8s.57-3.71-6.84-3.71h0ZM12.15,4.24A1.21,1.21,0,1,1,11,5.48v0a1.21,1.21,0,0,1,1.21-1.21h0Z" style="fill:url(#linear-gradient)"/><path d="M16.09,29.91c7.1,0,6.65-3.08,6.65-3.08V23.65H16v-1h9.47S30,23.16,30,16s-4-6.91-4-6.91H23.64V12.4s.13,4-3.9,4H13S9.2,16.36,9.2,20.07V26.2S8.63,29.91,16,29.91h0Zm3.73-2.15A1.21,1.21,0,1,1,21,26.52v0a1.21,1.21,0,0,1-1.21,1.21h0Z" style="fill:url(#linear-gradient-2)"/></g></svg>