<?xml version="1.0" encoding="UTF-8" standalone="no"?>
<svg
   viewBox="0 0 32 32"
   version="1.1"
   id="svg207"
   sodipodi:docname="file_type_vbproj.svg"
   xml:space="preserve"
   inkscape:version="1.2 (dc2aedaf03, 2022-05-15)"
   xmlns:inkscape="http://www.inkscape.org/namespaces/inkscape"
   xmlns:sodipodi="http://sodipodi.sourceforge.net/DTD/sodipodi-0.dtd"
   xmlns="http://www.w3.org/2000/svg"
   xmlns:svg="http://www.w3.org/2000/svg"
   xmlns:rdf="http://www.w3.org/1999/02/22-rdf-syntax-ns#"
   xmlns:cc="http://creativecommons.org/ns#"
   xmlns:dc="http://purl.org/dc/elements/1.1/"><defs
     id="defs211"><filter
       id="filter0_dd"
       x="6.03194"
       y="4.38577"
       width="180.604"
       height="161.087"
       filterUnits="userSpaceOnUse"
       color-interpolation-filters="sRGB"><feFlood
         flood-opacity="0"
         result="BackgroundImageFix"
         id="feFlood350" /><feColorMatrix
         in="SourceAlpha"
         type="matrix"
         values="0 0 0 0 0 0 0 0 0 0 0 0 0 0 0 0 0 0 127 0"
         result="hardAlpha"
         id="feColorMatrix352" /><feOffset
         dy="0.246095"
         id="feOffset354" /><feGaussianBlur
         stdDeviation="0.246095"
         id="feGaussianBlur356" /><feColorMatrix
         type="matrix"
         values="0 0 0 0 0 0 0 0 0 0 0 0 0 0 0 0 0 0 0.24 0"
         id="feColorMatrix358" /><feBlend
         mode="normal"
         in2="BackgroundImageFix"
         result="effect1_dropShadow"
         id="feBlend360" /><feColorMatrix
         in="SourceAlpha"
         type="matrix"
         values="0 0 0 0 0 0 0 0 0 0 0 0 0 0 0 0 0 0 127 0"
         result="hardAlpha"
         id="feColorMatrix362" /><feOffset
         dy="1.29524"
         id="feOffset364" /><feGaussianBlur
         stdDeviation="2.59048"
         id="feGaussianBlur366" /><feColorMatrix
         type="matrix"
         values="0 0 0 0 0 0 0 0 0 0 0 0 0 0 0 0 0 0 0.22 0"
         id="feColorMatrix368" /><feBlend
         mode="normal"
         in2="effect1_dropShadow"
         result="effect2_dropShadow"
         id="feBlend370" /><feBlend
         mode="normal"
         in="SourceGraphic"
         in2="effect2_dropShadow"
         result="shape"
         id="feBlend372" /></filter><filter
       id="filter1_dd"
       x="6.03194"
       y="30.1181"
       width="180.604"
       height="161.085"
       filterUnits="userSpaceOnUse"
       color-interpolation-filters="sRGB"><feFlood
         flood-opacity="0"
         result="BackgroundImageFix"
         id="feFlood375" /><feColorMatrix
         in="SourceAlpha"
         type="matrix"
         values="0 0 0 0 0 0 0 0 0 0 0 0 0 0 0 0 0 0 127 0"
         result="hardAlpha"
         id="feColorMatrix377" /><feOffset
         dy="0.246095"
         id="feOffset379" /><feGaussianBlur
         stdDeviation="0.246095"
         id="feGaussianBlur381" /><feColorMatrix
         type="matrix"
         values="0 0 0 0 0 0 0 0 0 0 0 0 0 0 0 0 0 0 0.24 0"
         id="feColorMatrix383" /><feBlend
         mode="normal"
         in2="BackgroundImageFix"
         result="effect1_dropShadow"
         id="feBlend385" /><feColorMatrix
         in="SourceAlpha"
         type="matrix"
         values="0 0 0 0 0 0 0 0 0 0 0 0 0 0 0 0 0 0 127 0"
         result="hardAlpha"
         id="feColorMatrix387" /><feOffset
         dy="1.29524"
         id="feOffset389" /><feGaussianBlur
         stdDeviation="2.59048"
         id="feGaussianBlur391" /><feColorMatrix
         type="matrix"
         values="0 0 0 0 0 0 0 0 0 0 0 0 0 0 0 0 0 0 0.22 0"
         id="feColorMatrix393" /><feBlend
         mode="normal"
         in2="effect1_dropShadow"
         result="effect2_dropShadow"
         id="feBlend395" /><feBlend
         mode="normal"
         in="SourceGraphic"
         in2="effect2_dropShadow"
         result="shape"
         id="feBlend397" /></filter><filter
       id="filter2_dd"
       x="121.688"
       y="-6.05857"
       width="78.583"
       height="205.117"
       filterUnits="userSpaceOnUse"
       color-interpolation-filters="sRGB"><feFlood
         flood-opacity="0"
         result="BackgroundImageFix"
         id="feFlood400" /><feColorMatrix
         in="SourceAlpha"
         type="matrix"
         values="0 0 0 0 0 0 0 0 0 0 0 0 0 0 0 0 0 0 127 0"
         result="hardAlpha"
         id="feColorMatrix402" /><feOffset
         id="feOffset404" /><feGaussianBlur
         stdDeviation="0.129524"
         id="feGaussianBlur406" /><feColorMatrix
         type="matrix"
         values="0 0 0 0 0 0 0 0 0 0 0 0 0 0 0 0 0 0 0.24 0"
         id="feColorMatrix408" /><feBlend
         mode="normal"
         in2="BackgroundImageFix"
         result="effect1_dropShadow"
         id="feBlend410" /><feColorMatrix
         in="SourceAlpha"
         type="matrix"
         values="0 0 0 0 0 0 0 0 0 0 0 0 0 0 0 0 0 0 127 0"
         result="hardAlpha"
         id="feColorMatrix412" /><feOffset
         id="feOffset414" /><feGaussianBlur
         stdDeviation="7.77143"
         id="feGaussianBlur416" /><feColorMatrix
         type="matrix"
         values="0 0 0 0 0 0 0 0 0 0 0 0 0 0 0 0 0 0 0.3 0"
         id="feColorMatrix418" /><feBlend
         mode="normal"
         in2="effect1_dropShadow"
         result="effect2_dropShadow"
         id="feBlend420" /><feBlend
         mode="normal"
         in="SourceGraphic"
         in2="effect2_dropShadow"
         result="shape"
         id="feBlend422" /></filter><linearGradient
       id="paint0_linear"
       x1="151.642"
       y1="8.27149"
       x2="20.6141"
       y2="140.148"
       gradientUnits="userSpaceOnUse"><stop
         stop-color="#7252AA"
         id="stop425" /><stop
         offset="1"
         stop-color="#7252AA"
         id="stop427" /></linearGradient><linearGradient
       id="paint1_linear"
       x1="24.8145"
       y1="40.4371"
       x2="147.966"
       y2="178.293"
       gradientUnits="userSpaceOnUse"><stop
         stop-color="#AE7FE2"
         id="stop430" /><stop
         offset="1"
         stop-color="#9A70D4"
         id="stop432" /></linearGradient><linearGradient
       id="paint2_linear"
       x1="160.457"
       y1="5.93579"
       x2="160.457"
       y2="183.367"
       gradientUnits="userSpaceOnUse"><stop
         stop-color="#D59DFF"
         id="stop435" /><stop
         offset="1"
         stop-color="#C18EF1"
         id="stop437" /></linearGradient><clipPath
       id="clip0"><rect
         width="176.457"
         height="176.457"
         fill="white"
         transform="translate(8.27148 8.27148)"
         id="rect440" /></clipPath><clipPath
       id="clip1"><rect
         width="176.457"
         height="176.457"
         fill="white"
         transform="translate(8.27148 8.27148)"
         id="rect443" /></clipPath></defs><sodipodi:namedview
     id="namedview209"
     pagecolor="#505050"
     bordercolor="#eeeeee"
     borderopacity="1"
     inkscape:showpageshadow="0"
     inkscape:pageopacity="0"
     inkscape:pagecheckerboard="0"
     inkscape:deskcolor="#505050"
     showgrid="false"
     inkscape:zoom="18.406873"
     inkscape:cx="18.118232"
     inkscape:cy="15.184545"
     inkscape:window-width="1920"
     inkscape:window-height="991"
     inkscape:window-x="776"
     inkscape:window-y="2151"
     inkscape:window-maximized="1"
     inkscape:current-layer="svg207" /><title
     id="title191">file_type_vbproj</title><g
     style="fill:none"
     id="g533"
     transform="matrix(0.16290088,0,0,0.16290249,0.28006797,0.21121898)"><g
       clip-path="url(#clip1)"
       id="g346"><mask
         id="mask0"
         maskUnits="userSpaceOnUse"
         x="8"
         y="8"
         width="177"
         height="177"><path
           d="M 40.6211,157.524 11.2134,135.467 c -0.9169,-0.681 -1.66096,-1.568 -2.17198,-2.59 -0.51102,-1.022 -0.77474,-2.149 -0.76987,-3.291 V 63.4144 C 8.26668,62.2721 8.5304,61.1447 9.04142,60.1232 9.55244,59.1016 10.2965,58.2145 11.2134,57.5334 L 40.6211,35.4762 c -0.79,0.7418 -1.387,1.6652 -1.7392,2.6901 -0.3522,1.0249 -0.4489,2.1202 -0.2818,3.1909 V 151.643 c -0.1671,1.071 -0.0704,2.166 0.2818,3.191 0.3522,1.025 0.9492,1.948 1.7392,2.69 z"
           fill="#ffffff"
           id="path321" /><path
           d="m 181.456,38.8951 c -1.212,-0.7959 -2.631,-1.2178 -4.081,-1.2131 -0.939,-0.0076 -1.871,0.1702 -2.741,0.5232 -0.871,0.3529 -1.663,0.8741 -2.332,1.5336 l -0.513,0.5156 -58.672,56.2457 -32.4622,31.1369 -30.0336,28.784 -0.5155,0.516 c -0.6682,0.66 -1.4604,1.182 -2.331,1.536 -0.8707,0.353 -1.8026,0.531 -2.7422,0.523 -1.5906,-0.003 -3.1377,-0.519 -4.4114,-1.472 L 11.2134,135.467 c 1.4941,1.122 3.3597,1.633 5.2171,1.428 1.8574,-0.205 3.5668,-1.11 4.7803,-2.531 L 53.8554,96.4642 80.6548,65.3637 127.601,10.8439 c 0.681,-0.8074 1.531,-1.45598 2.49,-1.90034 0.959,-0.44436 2.003,-0.67373 3.06,-0.67204 1.45,-0.00468 2.869,0.41722 4.08,1.21315 z"
           fill="#ffffff"
           id="path323" /><path
           d="m 181.456,154.105 -44.114,29.41 c -1.501,0.98 -3.305,1.386 -5.081,1.143 -1.775,-0.243 -3.404,-1.119 -4.586,-2.466 L 80.6548,127.637 53.8554,96.4642 21.2108,58.5975 c -1.2243,-1.4066 -2.9353,-2.2981 -4.7897,-2.4955 -1.8543,-0.1974 -3.7147,0.314 -5.2077,1.4314 L 40.6211,35.4762 c 1.2737,-0.9528 2.8208,-1.4692 4.4114,-1.4724 0.9396,-0.0079 1.8715,0.17 2.7422,0.5234 0.8706,0.3535 1.6628,0.8756 2.331,1.5362 l 0.5155,0.5156 30.0336,28.7847 32.4622,31.1364 58.672,56.2459 0.513,0.515 c 0.669,0.66 1.461,1.181 2.332,1.534 0.87,0.353 1.802,0.531 2.741,0.523 1.45,0.005 2.869,-0.417 4.081,-1.213 z"
           fill="#ffffff"
           id="path325" /><path
           d="M 184.729,45.0325 V 147.968 c 10e-4,1.213 -0.297,2.408 -0.868,3.478 -0.571,1.071 -1.397,1.984 -2.405,2.659 l -44.114,29.41 c 1.008,-0.675 1.834,-1.589 2.405,-2.66 0.57,-1.071 0.868,-2.266 0.867,-3.48 V 15.6248 c -0.016,-1.2226 -0.333,-2.4223 -0.923,-3.4932 -0.59,-1.0709 -1.435,-1.98 -2.46,-2.64693 l 44.225,29.41043 c 1.005,0.6777 1.83,1.5915 2.4,2.6614 0.571,1.07 0.87,2.2634 0.873,3.476 z"
           fill="#ffffff"
           id="path327" /></mask><g
         mask="url(#mask0)"
         id="g344"><path
           d="M 40.6211,157.524 11.2134,135.467 c -0.9169,-0.681 -1.66096,-1.569 -2.17198,-2.59 -0.51102,-1.022 -0.77474,-2.149 -0.76987,-3.291 V 63.4143 C 8.26668,62.272 8.5304,61.1446 9.04142,60.1231 9.55244,59.1015 10.2965,58.2144 11.2134,57.5333 L 40.6211,35.4761 c -0.79,0.7418 -1.387,1.6652 -1.7392,2.6901 -0.3522,1.0249 -0.4489,2.1202 -0.2818,3.1909 V 151.643 c -0.1671,1.071 -0.0704,2.166 0.2818,3.191 0.3522,1.025 0.9492,1.948 1.7392,2.69 z"
           fill="#5e438f"
           id="path330" /><g
           filter="url(#filter0_dd)"
           id="g334"><path
             d="m 181.455,38.8951 c -1.211,-0.7959 -2.63,-1.2178 -4.08,-1.2131 -0.939,-0.0076 -1.871,0.1702 -2.742,0.5232 -0.87,0.3529 -1.662,0.8741 -2.331,1.5336 l -0.513,0.5156 -31.25,29.9619 -27.422,26.2838 -32.4627,31.1369 -30.0336,28.784 -0.5155,0.516 c -0.6682,0.66 -1.4604,1.182 -2.331,1.536 -0.8707,0.353 -1.8026,0.531 -2.7422,0.523 -1.5906,-0.003 -3.1377,-0.519 -4.4114,-1.472 L 11.2129,135.467 c 1.494,1.122 3.3597,1.633 5.2171,1.428 1.8574,-0.205 3.5668,-1.11 4.7803,-2.531 L 37.6815,115.249 53.8549,96.4643 80.6543,65.3637 127.6,10.8439 c 0.682,-0.8074 1.532,-1.45598 2.491,-1.90034 0.958,-0.44436 2.003,-0.67373 3.059,-0.67204 1.45,-0.00468 2.869,0.41722 4.081,1.21315 z"
             fill="url(#paint0_linear)"
             id="path332"
             style="fill:url(#paint0_linear)" /></g><g
           filter="url(#filter1_dd)"
           id="g338"><path
             d="m 181.455,154.105 -44.114,29.411 c -1.5,0.98 -3.304,1.385 -5.08,1.142 -1.776,-0.243 -3.404,-1.118 -4.586,-2.466 L 80.6543,127.637 53.8549,96.4644 37.6815,77.7158 21.2103,58.5978 c -1.2243,-1.4067 -2.9354,-2.2981 -4.7897,-2.4956 -1.8543,-0.1974 -3.7147,0.314 -5.2077,1.4313 L 40.6206,35.4764 c 1.2737,-0.9528 2.8208,-1.4692 4.4114,-1.4723 0.9396,-0.008 1.8715,0.1699 2.7422,0.5234 0.8706,0.3534 1.6628,0.8755 2.331,1.5362 l 0.5155,0.5155 30.0336,28.7846 32.4627,31.1364 27.461,26.3228 31.211,29.923 0.513,0.516 c 0.669,0.659 1.461,1.18 2.331,1.533 0.871,0.353 1.803,0.531 2.742,0.523 1.45,0.005 2.869,-0.417 4.08,-1.213 z"
             fill="url(#paint1_linear)"
             id="path336"
             style="fill:url(#paint1_linear)" /></g><g
           filter="url(#filter2_dd)"
           id="g342"><path
             d="M 184.729,45.0321 V 147.967 c 10e-4,1.214 -0.297,2.408 -0.868,3.479 -0.571,1.07 -1.397,1.984 -2.405,2.659 l -44.115,29.41 c 1.009,-0.675 1.835,-1.589 2.405,-2.66 0.571,-1.071 0.869,-2.266 0.868,-3.48 V 15.6244 c -0.016,-1.2225 -0.333,-2.4223 -0.923,-3.4932 -0.59,-1.0709 -1.435,-1.98 -2.46,-2.64692 l 44.225,29.41042 c 1.005,0.6777 1.829,1.5915 2.4,2.6615 0.57,1.0699 0.87,2.2634 0.873,3.4759 z"
             fill="url(#paint2_linear)"
             id="path340"
             style="fill:url(#paint2_linear)" /></g></g></g></g><polygon
     points="17.631 32.03 11.87 32.03 7.511 15.53 14.216 15.53 14.749 18.269 15.282 15.53 21.985 15.53 17.631 32.03"
     style="fill:#efeef0"
     id="polygon199" /><path
     d="M27.556,32.03H20.245V15.53l7.37.011a4.517,4.517,0,0,1,3.24,2.115,5.032,5.032,0,0,1,.69,2.592,5.164,5.164,0,0,1-.643,2.471c-.066.114-.137.225-.21.332a4.893,4.893,0,0,1,.6.771,5.041,5.041,0,0,1,.7,2.586,5.757,5.757,0,0,1-.623,2.89,5.328,5.328,0,0,1-3.7,2.713Z"
     style="fill:#efeef0"
     id="path201" /><path
     d="M13,17.153l1.749,8.993L16.5,17.153H20L16.5,30.407H13L9.5,17.153Z"
     style="fill:#00519a"
     id="path203" /><path
     d="M21.745,17.153h5.7a3.032,3.032,0,0,1,2.174,1.42,3.26,3.26,0,0,1,.428,1.656,3.437,3.437,0,0,1-.428,1.651,3.119,3.119,0,0,1-1.756,1.431,3.045,3.045,0,0,1,2.2,1.426,3.282,3.282,0,0,1,.435,1.7,4.041,4.041,0,0,1-.434,2.067,3.788,3.788,0,0,1-2.624,1.9h-5.69Zm3.5,5.207h.874a1.393,1.393,0,0,0,1.213-1.528,1.374,1.374,0,0,0-1.213-1.313h-.874Zm0,5.684H26.29A1.619,1.619,0,0,0,27.74,26.3a1.6,1.6,0,0,0-1.45-1.57H25.245Z"
     style="fill:#00519a"
     id="path205" /><metadata
     id="metadata654"><rdf:RDF><cc:Work
         rdf:about=""><dc:title>file_type_vbproj</dc:title></cc:Work></rdf:RDF></metadata></svg>
