<svg viewBox="0 0 32 32" xmlns="http://www.w3.org/2000/svg"><g fill="#919c47"><path d="m6.687 10.259q4.427-2.459 8.853-4.911c-.029 3.372-.008 6.745-.025 10.117-3.015-1.68-6.008-3.393-9.026-5.065a2.12 2.12 0 0 1 .198-.141z"/><path d="m16.286 5.735c2.979 1.633 5.941 3.3 8.922 4.928a3.172 3.172 0 0 1 -.322.2c-2.877 1.551-5.731 3.147-8.617 4.68.009-3.268.008-6.543.017-9.808z"/><path d="m6.218 11.1c2.936 1.647 5.864 3.309 8.806 4.947a2.1 2.1 0 0 1 -.258.216q-3.714 2.12-7.426 4.246c-.381.223-.776.424-1.136.683.027-3.361-.004-6.726.014-10.092z"/><path d="m16.811 16.129q4.485-2.455 8.979-4.894c0 3.189.006 6.378 0 9.568-2.981-1.584-5.99-3.114-8.979-4.674z"/><path d="m6.894 21.645c2.868-1.689 5.766-3.326 8.641-5-.006 3.343 0 6.687 0 10.031q-4.325-2.513-8.641-5.031z"/><path d="m16.287 16.652q4.47 2.348 8.961 4.648c-2.978 1.817-5.976 3.6-8.956 5.418-.015-3.353-.004-6.709-.005-10.066z"/></g><path d="m8.42 7.568c2.792-1.868 5.609-3.705 8.407-5.568 0 .709 0 1.428-.051 2.129 1.031.671 2.124 1.261 3.178 1.893 2.346 1.395 4.712 2.744 7.046 4.158.144 1.844.04 3.7.162 5.544.037 1.22.006 2.441.1 3.659-.011.683.044 1.369.006 2.052-.739.613-1.571 1.116-2.341 1.694q-4.869 3.441-9.744 6.871a13.531 13.531 0 0 1 -.125-1.846c-1.479-.917-2.991-1.781-4.489-2.666-1.939-1.175-3.912-2.291-5.84-3.482-.033-1.408.058-2.816.056-4.224q.045-2.493.054-4.987c.067-.967.043-1.937.076-2.9q1.736-1.195 3.505-2.327m-.595 1.1q-1.193.8-2.458 1.495c.03 3.834.073 7.669.09 11.5 3.345 1.989 6.723 3.924 10.076 5.9 0 .44-.007.882 0 1.322 3.665-2.511 7.347-5 11.011-7.508.013-3.612.064-7.224.087-10.836a5.727 5.727 0 0 1 -.873-.452c-3.159-1.831-6.307-3.681-9.47-5.5-.018-.494 0-.99-.013-1.484q-4.217 2.795-8.449 5.567z" fill="#88ac29"/><path d="m7.826 8.672q4.227-2.784 8.454-5.565c.015.494 0 .99.013 1.484 3.163 1.824 6.31 3.674 9.47 5.5a5.727 5.727 0 0 0 .873.452c-.023 3.612-.073 7.224-.087 10.836-3.665 2.511-7.347 5-11.011 7.508-.011-.44-.006-.882 0-1.322-3.353-1.975-6.731-3.91-10.076-5.9-.017-3.835-.06-7.67-.09-11.5q1.263-.689 2.458-1.495m-1.143 1.589a2.12 2.12 0 0 0 -.2.144c3.018 1.67 6.013 3.382 9.026 5.062.228.153.5.327.754.124v-.044c2.886-1.533 5.74-3.129 8.617-4.68a3.172 3.172 0 0 0 .322-.2c-2.981-1.632-5.943-3.295-8.922-4.928a5.334 5.334 0 0 0 -.745-.388q-4.424 2.461-8.853 4.911m-.469.844c-.013 3.364.013 6.728-.013 10.092a2.832 2.832 0 0 0 .689.45q4.31 2.527 8.637 5.028c.006-3.344 0-6.688 0-10.031.1-.356-.282-.444-.51-.592-2.942-1.638-5.87-3.3-8.806-4.947m10.593 5.027a5.326 5.326 0 0 0 -.506.269c0 .063-.013.19-.018.253 0 3.357-.009 6.713.006 10.069 2.98-1.816 5.978-3.6 8.956-5.418.183-.155.59-.2.538-.5.009-3.19 0-6.379 0-9.568q-4.492 2.428-8.972 4.893z" fill="#fffffd"/><path d="m15.54 5.348a5.334 5.334 0 0 1 .745.388c-.008 3.27-.008 6.54-.017 9.81v.044c-.258.2-.526.029-.754-.124.019-3.373-.003-6.746.026-10.118z" fill="#c8cea3"/><path d="m15.024 16.049c.228.148.613.236.51.592-2.874 1.677-5.773 3.314-8.641 5a2.832 2.832 0 0 1 -.689-.45c.36-.259.755-.46 1.136-.683q3.713-2.122 7.426-4.246a2.1 2.1 0 0 0 .258-.213z" fill="#c8cea3"/><path d="m16.3 16.4a5.326 5.326 0 0 1 .506-.269c2.991 1.559 6 3.09 8.976 4.674.052.3-.356.344-.538.5q-4.492-2.3-8.962-4.651c.009-.065.018-.192.018-.254z" fill="#c8cea3"/></svg>