<svg viewBox="0 0 32 32" xmlns="http://www.w3.org/2000/svg"><path d="m15.62 2.83h.023c.206.113.416.218.626.323.011 1.142 0 2.285.005 3.428q0 5.56 0 11.12v4.457 2.133c-.213.053-.427.1-.639.151-.01-2.028 0-4.056-.006-6.084a38.321 38.321 0 0 1 -4.88 4 40.761 40.761 0 0 1 -6.042 3.459 28.663 28.663 0 0 1 -2.707 1.103v-.032a29.479 29.479 0 0 0 2.72-2.552 35.528 35.528 0 0 0 3.954-5.108 59.927 59.927 0 0 0 3.148-5.6 49.117 49.117 0 0 0 2.858-6.987 26.7 26.7 0 0 0 .94-3.811z" fill="#ffc525"/><path d="m16.274 17.7a31.642 31.642 0 0 0 6.772-10.265q.293.191.583.386a3.874 3.874 0 0 1 .008.4q0 4.584 0 9.168 0 4.361 0 8.723c-.193.063-.389.119-.585.172 0-2.8 0-5.6 0-8.4a19.537 19.537 0 0 1 -2.588 2.048 27.688 27.688 0 0 1 -4.188 2.23c-.002-1.49-.005-2.976-.002-4.462z" fill="#5090cd"/><path d="m26.329 14.989a37.484 37.484 0 0 0 3.167-3.2c.165.088.338.16.5.248q0 8.465 0 16.93c-.172.055-.341.119-.514.173a44.222 44.222 0 0 0 -4.8-1.345 42.238 42.238 0 0 0 -16.13-.395 34 34 0 0 0 -6.381 1.7l.007-.032a33.507 33.507 0 0 1 12.571-3.389c.081-.008.163-.006.245-.012a35.1 35.1 0 0 1 3.7.018c.615.03 1.227.1 1.839.156a18.726 18.726 0 0 1 2.519.442c.2-.053.392-.109.585-.172q0-4.361 0-8.723c.913-.788 1.803-1.588 2.692-2.399z" fill="#73c267"/><path d="m20.46 19.928a19.537 19.537 0 0 0 2.588-2.048c.006 2.8 0 5.6 0 8.4a18.726 18.726 0 0 0 -2.519-.442.415.415 0 0 0 -.193-.04c-.885-.1-1.776-.161-2.667-.187-.714-.006-1.429-.016-2.143.022a5.071 5.071 0 0 0 -.535.032c-.082.006-.164 0-.245.012a33.507 33.507 0 0 0 -12.568 3.391l-.007.032c-.064 0-.112.051-.171.07a9.855 9.855 0 0 1 .886-.612 26.865 26.865 0 0 1 6.014-2.721 33.472 33.472 0 0 1 5.632-1.257c.366-.054.736-.086 1.1-.138.212-.054.426-.1.639-.151 0-.711 0-1.422 0-2.133a27.688 27.688 0 0 0 4.189-2.23z" fill="#00477f"/><path d="m10.747 22.358a38.321 38.321 0 0 0 4.88-4c.008 2.028 0 4.056.006 6.084-.365.052-.735.084-1.1.138a33.472 33.472 0 0 0 -5.633 1.257 26.865 26.865 0 0 0 -6.014 2.717 9.855 9.855 0 0 0 -.886.612v-2.246a28.663 28.663 0 0 0 2.705-1.1 40.761 40.761 0 0 0 6.042-3.462z" fill="#f47835"/></svg>