<svg viewBox="0 0 32 32" xmlns="http://www.w3.org/2000/svg"><path d="m25.514 12.846c-.052-.938.209-1.825-.209-2.554-1.043-1.825-3.649-2.867-8.863-2.867v-.053.052c-5.735 0-8.185 1.043-9.227 2.867a5.6 5.6 0 0 0 -.469 2.554 9.546 9.546 0 0 0 -.261 2.45c.156 1.147.261 2.294.417 3.336.156.886 1.408 1.564 1.564 2.4.313 2.242 2.294 3.284 8.028 3.284v.261h-.1v-.261c5.213 0 7.4-1.043 7.716-3.284.1-.834 1.147-1.512 1.3-2.4.156-1.043.209-2.19.365-3.336a11.774 11.774 0 0 0 -.261-2.449z" fill="#efcca3"/><path d="m16.182 13.68a3.241 3.241 0 0 1 2.19 1.147c.73.626 1.929 1.043 2.45 1.616a4.715 4.715 0 0 1 1.408 1.981 8.9 8.9 0 0 1 .313 2.242c0 .261.156.209.573 0a9.02 9.02 0 0 0 2.19-1.877c-.156.886-1.251 1.668-1.355 2.5-.313 2.242-2.5 3.336-7.872 3.336h.313" fill="#ccac8d"/><path d="m19.519 11.908c.209.678.886 3.024-.469 2.242a2.557 2.557 0 0 1 .938 1.564 1.831 1.831 0 0 0 1.3 1.408 3.479 3.479 0 0 0 2.554-.626 2.956 2.956 0 0 0 .678-3.284 2.43 2.43 0 0 0 -2.137-1.616c-.983-.262-3.073-.47-2.864.312z" fill="#ccac8d"/><circle cx="22.178" cy="14.41" r="1.929"/><circle cx="21.656" cy="13.524" fill="#fff" r=".521"/><path d="m19.206 14.306a17.68 17.68 0 0 1 2.711 2.346c.938 1.2.938 1.408.938 1.408l-.678.313a7.1 7.1 0 0 0 -2.137-2.5c-1.2-.678-1.355-1.251-1.355-1.251z" fill="#efcca3"/><path d="m16.235 13.68a3.605 3.605 0 0 0 -2.346 1.147c-.73.626-2.033 1.043-2.5 1.616a4.806 4.806 0 0 0 -1.46 1.981 8.9 8.9 0 0 0 -.313 2.242c0 .261.052.313-.626 0a7.972 7.972 0 0 1 -2.19-1.877c.156.886 1.251 1.668 1.355 2.5.313 2.19 2.5 3.284 7.872 3.284h.365" fill="#ccac8d"/><path d="m21.239 17.277a6.552 6.552 0 0 0 -5.109-2.607 6.638 6.638 0 0 0 -5.109 2.607 3.861 3.861 0 0 0 -1.043 3.18c0 4.64 1.616 3.232 2.711 3.806a7.466 7.466 0 0 0 3.389.313 7.4 7.4 0 0 0 3.389-.313c1.095-.573 2.711.834 2.711-3.806a3.386 3.386 0 0 0 -.939-3.18z" fill="#56332b"/><path d="m16.026 15.974a9.549 9.549 0 0 1 -.469 2.554l.573-.156z" fill="#442823"/><path d="m16.182 15.974a9.549 9.549 0 0 0 .469 2.554l-.573-.156z" fill="#442823"/><path d="m14.358 15.453c-.209-.521.573-1.355 1.825-1.355s2.033.834 1.825 1.355-1.043.678-1.825.678c-.835-.001-1.617-.157-1.825-.678z" fill="#56332b"/><path d="m16.182 15.974c0-.1.73-.1 1.147-.365 0 0-.834.261-.991.156a.656.656 0 0 1 -.209-.365.656.656 0 0 1 -.209.365c-.156.1-1.095-.156-1.095-.156a8.058 8.058 0 0 1 1.2.365v.417a10.492 10.492 0 0 0 .1 2.033c.156.209.1-1.46.1-2.033a1.3 1.3 0 0 1 -.043-.417z"/><path d="m16.182 18.945a3.35 3.35 0 0 1 1.616.678 3.121 3.121 0 0 0 -1.616-1.095 3.036 3.036 0 0 0 -1.825 1.2 3.312 3.312 0 0 1 1.825-.783z" fill="#7f4a41"/><path d="m16.078 22.8a8.9 8.9 0 0 1 -2.4-.469c-.156-.052-.313.052-.469 0a6.172 6.172 0 0 1 -3.18-2.137v.209c0 4.64 1.616 3.232 2.711 3.806a7.466 7.466 0 0 0 3.389.313 7.4 7.4 0 0 0 3.389-.313c1.095-.573 2.711.834 2.711-3.806v-.469a5.914 5.914 0 0 1 -3.229 2.348c-.156.052-.417-.052-.573-.052a7.045 7.045 0 0 1 -2.349.57z" fill="#442823"/><path d="m13.941 20.3s-.573 1.668-.156 2.4l-.521-.209a15.433 15.433 0 0 1 .677-2.191z" fill="#442823"/><path d="m18.32 20.3s.573 1.668.156 2.4l.524-.209a10.629 10.629 0 0 0 -.68-2.191z" fill="#442823"/><path d="m12.585 11.908c-.209.678-.886 3.024.469 2.242a2.557 2.557 0 0 0 -.938 1.564 1.831 1.831 0 0 1 -1.3 1.408 3.479 3.479 0 0 1 -2.558-.622 2.956 2.956 0 0 1 -.678-3.284 2.43 2.43 0 0 1 2.137-1.616c.992-.266 3.077-.474 2.868.308z" fill="#ccac8d"/><path d="m16.13 18.528a3.393 3.393 0 0 1 2.45 2.867v-.1a3.051 3.051 0 0 0 -2.45-2.919 3 3 0 0 0 -2.45 2.919v.1a3.463 3.463 0 0 1 2.45-2.867z"/><ellipse cx="16.546" cy="15.138" fill="#331712" rx=".156" ry=".313" transform="matrix(.9683222 -.24970405 .24970405 .9683222 -3.256 4.611)"/><ellipse cx="15.609" cy="15.146" fill="#331712" rx=".313" ry=".156" transform="matrix(.29629154 -.95509755 .95509755 .29629154 -3.482 25.567)"/><circle cx="10.031" cy="14.41" r="1.929"/><circle cx="10.552" cy="13.524" fill="#fff" r=".521"/><path d="m16.7 14.41s-.521.209-.626.261a2.492 2.492 0 0 1 -.626-.261z" fill="#7f4a41"/><path d="m12.9 14.306a17.68 17.68 0 0 0 -2.711 2.346c-.938 1.2-.938 1.408-.938 1.408l.678.313a7.1 7.1 0 0 1 2.137-2.5c1.2-.678 1.355-1.251 1.355-1.251z" fill="#efcca3"/><g fill="#ccac8d"><path d="m9.092 10.813a4.519 4.519 0 0 1 -1.929 2.294 2.19 2.19 0 0 0 1.929-2.294z"/><path d="m22.908 10.813a4.519 4.519 0 0 0 1.929 2.294 2.19 2.19 0 0 1 -1.929-2.294z"/><path d="m19.31 13.836a5.16 5.16 0 0 0 -3.076-1.408h.156a3.852 3.852 0 0 0 -3.024 1.408 4.832 4.832 0 0 1 3.024-1.043 5.785 5.785 0 0 1 2.92 1.043z"/><path d="m17.746 10.969a2.455 2.455 0 0 0 -1.564-.938h.156a1.786 1.786 0 0 0 -1.512.938 2.187 2.187 0 0 1 1.512-.678 1.894 1.894 0 0 1 1.408.678z"/><path d="m10.031 17.746a2.545 2.545 0 0 1 -1.773.209h-.208a3.68 3.68 0 0 1 -.886-1.512 2.27 2.27 0 0 0 2.867 1.303z"/><path d="m22.126 17.746a2.545 2.545 0 0 0 1.773.209h-.209a1.749 1.749 0 0 0 1.095-1.512 2.02 2.02 0 0 1 -2.659 1.303z"/><path d="m11.23 10.709a4.75 4.75 0 0 1 2.242.1c.938.313.209 1.564.365 1.616a2.865 2.865 0 0 1 2.242-.73c1.773.1 1.981.886 2.242.73.261-.1-.261-2.19 2.45-1.72 0 0-2.763-.73-2.659 1.251a3.675 3.675 0 0 0 -3.858-.1s.573-1.929-3.024-1.147z"/><path d="m10.5 8s-2.4 2.972-2.711 4.118c-.365 1.147-.626 5.943-.938 6.621l-1.095-4.694 2.033-4.9z"/><path d="m21.656 8s2.4 2.972 2.711 4.118c.365 1.147.626 5.943.938 6.621l1.095-4.694-2.033-4.9z"/></g><path d="m21.5 8a11.617 11.617 0 0 1 3.284 4.588c.73 2.45.417 5.474.991 5.839.834.521 1.72-2.607 2.033-2.919.469-.521 2.085-1.877 2.19-2.137s-3.232-3.91-4.744-4.64c-1.669-.838-3.854-.942-3.754-.731z" fill="#56332b"/><path d="m23.69 9.3a15.379 15.379 0 0 1 2.972 8.654l1.2-2.45a16.564 16.564 0 0 0 -4.172-6.204z" fill="#442823"/><path d="m10.5 8a11.617 11.617 0 0 0 -3.284 4.588c-.73 2.45-.417 5.474-.991 5.839-.834.521-1.72-2.607-2.033-2.919-.469-.521-2.085-1.877-2.19-2.137s3.232-3.91 4.744-4.64c1.669-.838 3.854-.942 3.754-.731z" fill="#56332b"/><path d="m8.31 9.3a15.379 15.379 0 0 0 -2.972 8.654l-1.198-2.454a16.564 16.564 0 0 1 4.17-6.2z" fill="#442823"/><path d="m6.642 18.007a4.118 4.118 0 0 0 .573 1.564c.365.365.1-.313.1-.313s-.365-.209-.313-1.72-.36.469-.36.469z" fill="#ccac8d"/><path d="m25.41 18.007a4.118 4.118 0 0 1 -.573 1.564c-.365.365-.1-.313-.1-.313s.365-.209.313-1.72c-.057-1.46.36.469.36.469z" fill="#ccac8d"/><circle cx="13.889" cy="17.121" fill="#442823" r=".156"/><circle cx="12.846" cy="18.216" fill="#442823" r=".156"/><circle cx="12.533" cy="17.121" fill="#442823" r=".156"/><circle cx="18.164" cy="17.121" fill="#442823" r=".156"/><circle cx="19.154" cy="18.216" fill="#442823" r=".156"/><circle cx="19.467" cy="17.121" fill="#442823" r=".156"/></svg>