<svg xmlns="http://www.w3.org/2000/svg" viewBox="0 0 32 32"><title>file_type_ng_component_css</title><path d="M2.73,6.67,15.85,2V30L4.77,23.88Z" style="fill:#de3641"/><path d="M15.85,2,29.27,6.59,27.08,23.8,15.85,30Z" style="fill:#b13138"/><path d="M15.85,5.14l8.53,18.23H21.47l-1.82-4.16h-3.8V16.73h2.77L15.85,11l-2.33,5.73h2.33v2.48H12.38l-1.63,4.16H7.61Z" style="fill:#fff"/><polygon points="18.59 28.34 17.47 15.74 29.82 15.74 28.69 28.34 23.64 29.74 18.59 28.34" style="fill:#1572b6"/><polygon points="23.64 28.67 27.73 27.53 28.69 16.77 23.64 16.77 23.64 28.67" style="fill:#33a9dc"/><polygon points="23.64 21.33 25.69 21.33 25.83 19.75 23.64 19.75 23.64 18.2 23.65 18.2 27.52 18.2 27.48 18.62 27.1 22.88 23.64 22.88 23.64 21.33" style="fill:#fff"/><polygon points="23.65 25.35 23.65 25.35 21.93 24.88 21.82 23.65 20.98 23.65 20.26 23.65 20.48 26.08 23.64 26.96 23.65 26.95 23.65 25.35" style="fill:#ebebeb"/><polygon points="25.56 22.81 25.37 24.88 23.65 25.35 23.65 26.96 26.82 26.08 26.84 25.82 27.11 22.81 25.56 22.81" style="fill:#fff"/><polygon points="23.65 18.2 23.65 19.16 23.65 19.75 23.65 19.75 19.92 19.75 19.92 19.75 19.92 19.75 19.89 19.4 19.81 18.62 19.78 18.2 23.65 18.2" style="fill:#ebebeb"/><polygon points="23.64 21.33 23.64 22.29 23.64 22.88 23.64 22.88 21.95 22.88 21.95 22.88 21.94 22.88 21.91 22.53 21.84 21.75 21.81 21.33 23.64 21.33" style="fill:#ebebeb"/></svg>