<svg xmlns="http://www.w3.org/2000/svg" viewBox="0 0 32 32"><title>file_type_light_actionscript2</title><path fill="#efefef" d="M24.099 2H8.837v28h20.91V7.888l-5.579-5.816L24.099 2"/><path fill="#2e1915" d="M2.253 3.493H22.56v7.844H2.253z"/><path fill="#e5e5e5" d="M24.099 2v5.888h5.648z"/><g fill="#fd3316"><path d="M11.117 5.035H9.943a.05.05 0 0 0-.05.049l-.013.369-.001.01-.974 4.231a.05.05 0 0 0 .05.062h.835a.05.05 0 0 0 .049-.04l.204-.977a.05.05 0 0 1 .049-.04h.917c.023 0 .043.016.049.038l.247.981a.051.051 0 0 0 .049.038h.909a.05.05 0 0 0 .049-.063l-1.146-4.62a.051.051 0 0 0-.049-.038zm-.879 2.746l.317-1.773.334 1.773h-.651zM15.21 5.109v.841a.036.036 0 0 1-.052.032c-.137-.068-.521-.245-.85-.253-.409-.009-.609.218-.609.451 0 .702 1.729.794 1.729 2.212 0 1.245-1.014 1.365-1.496 1.365-.777 0-1.126-.24-1.195-.295a.034.034 0 0 1-.013-.028v-.92c0-.028.031-.045.055-.03.162.105.655.4 1.098.4.491 0 .5-.225.5-.392 0-.69-1.653-.791-1.653-2.275 0-1.32 1.292-1.32 1.524-1.32.553 0 .866.141.943.181a.036.036 0 0 1 .019.031z"/></g><g><path d="M20.582 13.424c2.91 0 3.261 1.506 3.261 2.3 0 1.087-.243 1.981-.243 2.662 0 .92 1.228.709 1.228.709v1.651c-.879 0-1.206.236-1.206.898 0 .34.227 1.909.227 2.589 0 2.003-1.54 2.419-2.509 2.419h-.765l-.005-1.597c1.455 0 1.408-.595 1.408-1.068 0-.605-.17-1.38-.17-2.438 0-1.058.888-1.606.888-1.606s-.926-.586-.926-1.493c0-.907.227-1.777.227-2.646 0-1.002-1.413-.791-1.413-.791l-.002-1.589z" fill="#989898"/><path d="M20.772 13.616c1.117.027 1.922.292 2.395.791.323.341.487.784.487 1.318 0 .594-.075 1.134-.141 1.611-.055.396-.102.737-.102 1.051 0 .347.15.613.432.767.184.101.419.152.697.152l.099-.002v1.258c-.395.017-.663.091-.856.234-.239.177-.35.446-.35.849 0 .151.038.493.086.925.063.568.141 1.276.141 1.664 0 .822-.273 1.429-.811 1.806-.527.369-1.172.424-1.509.424h-.577l-.003-1.224c.559-.021.928-.138 1.153-.364.256-.257.255-.584.254-.847v-.043c0-.271-.032-.565-.069-.905a13.51 13.51 0 0 1-.102-1.533c0-.39.132-.75.393-1.07.2-.246.404-.375.406-.376l.257-.159-.256-.162c-.008-.005-.838-.539-.838-1.333 0-.446.058-.894.114-1.327.056-.431.113-.877.113-1.319 0-.635-.475-.999-1.304-.999l-.109.002v-1.189m-.19-.192l.002 1.588s.123-.018.297-.018c.414 0 1.115.104 1.115.81 0 .869-.227 1.739-.227 2.646 0 .907.926 1.493.926 1.493s-.888.548-.888 1.606.17 1.833.17 2.438c0 .472.047 1.068-1.408 1.068l.005 1.597h.765c.969 0 2.509-.416 2.509-2.419 0-.68-.227-2.249-.227-2.589 0-.661.328-.898 1.206-.898v-1.651s-.122.021-.288.021c-.363 0-.94-.099-.94-.73 0-.68.243-1.575.243-2.662.001-.793-.349-2.3-3.26-2.3z" fill="#6a6a6a"/><path d="M17.245 13.424c-2.91 0-3.261 1.506-3.261 2.3 0 1.087.243 1.981.243 2.662 0 .92-1.228.709-1.228.709v1.651c.879 0 1.206.236 1.206.898 0 .34-.227 1.909-.227 2.589 0 2.003 1.54 2.419 2.509 2.419h.765l.005-1.597c-1.455 0-1.408-.595-1.408-1.068 0-.605.17-1.38.17-2.438 0-1.058-.888-1.606-.888-1.606s.926-.586.926-1.493c0-.907-.227-1.777-.227-2.646 0-1.002 1.413-.791 1.413-.791l.002-1.589z" fill="#989898"/><path d="M17.056 13.616l-.002 1.191a3.625 3.625 0 0 0-.109-.002c-.829 0-1.304.364-1.304.999 0 .442.058.888.113 1.319.056.433.114.881.114 1.327 0 .794-.83 1.328-.838 1.333l-.256.162.257.159c.002.001.206.13.406.376.261.32.393.68.393 1.07 0 .593-.054 1.092-.102 1.533-.037.34-.069.634-.069.905v.043c-.001.263-.002.59.254.847.225.226.594.343 1.153.364l-.004 1.222h-.577c-.337 0-.982-.055-1.509-.424-.538-.377-.811-.984-.811-1.806 0-.388.078-1.095.141-1.664.048-.432.086-.774.086-.925 0-.402-.111-.672-.35-.849-.193-.143-.461-.217-.856-.234v-1.258l.099.002c.278 0 .513-.051.697-.152.283-.154.432-.42.432-.767 0-.314-.047-.655-.102-1.051-.066-.477-.141-1.017-.141-1.611 0-.534.164-.977.487-1.318.476-.499 1.281-.765 2.398-.791m.189-.192c-2.91 0-3.261 1.506-3.261 2.3 0 1.087.243 1.981.243 2.662 0 .63-.577.73-.94.73-.167 0-.288-.021-.288-.021v1.651c.879 0 1.206.236 1.206.898 0 .34-.227 1.909-.227 2.589 0 2.003 1.54 2.419 2.509 2.419h.765l.005-1.597c-1.455 0-1.408-.595-1.408-1.068 0-.605.17-1.38.17-2.438 0-1.058-.888-1.606-.888-1.606s.926-.586.926-1.493c0-.907-.227-1.777-.227-2.646 0-.705.701-.81 1.115-.81.174 0 .297.018.297.018l.003-1.588z" fill="#6a6a6a"/></g></svg>