<svg xmlns="http://www.w3.org/2000/svg" viewBox="0 0 32 32"><title>file_type_ejs@2x</title><g id="ejs"><path d="M2,17.67V14.33l11.86-6.2V11.2L5.1,15.94l8.76,4.84v3.1ZM29.81,8.79,19.47,23.23H15.91L26.28,8.79ZM26.95,21.5a.79.79,0,0,0,.62-.28,1.06,1.06,0,0,0,.25-.73,1.14,1.14,0,0,0-.25-.75.77.77,0,0,0-1.22,0,1.14,1.14,0,0,0-.25.75,1.09,1.09,0,0,0,.24.73A.76.76,0,0,0,26.95,21.5Zm2.19,1a3.24,3.24,0,0,1-4.35,0,2.86,2.86,0,0,1,0-4.1,3.22,3.22,0,0,1,4.35,0A2.77,2.77,0,0,1,30,20.49,2.74,2.74,0,0,1,29.13,22.54ZM18.82,13.06a.79.79,0,0,0,.62-.28,1.06,1.06,0,0,0,.25-.73,1.14,1.14,0,0,0-.25-.75.77.77,0,0,0-1.22,0,1.14,1.14,0,0,0-.25.75,1.09,1.09,0,0,0,.24.73A.76.76,0,0,0,18.82,13.06Zm2.19,1a3.24,3.24,0,0,1-4.35,0,2.86,2.86,0,0,1,0-4.1A3.22,3.22,0,0,1,21,10a2.77,2.77,0,0,1,.87,2.06A2.74,2.74,0,0,1,21,14.1Z" style="fill:#90a93a"/></g></svg>