<svg viewBox="0 0 32 32" xmlns="http://www.w3.org/2000/svg" xmlns:xlink="http://www.w3.org/1999/xlink"><linearGradient id="a" gradientUnits="userSpaceOnUse" x1="4.494" x2="13.832" y1="7.914" y2="24.086"><stop offset="0" stop-color="#2368c4"/><stop offset=".5" stop-color="#1a5dbe"/><stop offset="1" stop-color="#1146ac"/></linearGradient><path d="m28.806 3h-19.101a1.192 1.192 0 0 0 -1.193 1.191v5.309l11.069 3.25 10.419-3.25v-5.309a1.192 1.192 0 0 0 -1.194-1.191z" fill="#41a5ee"/><path d="m30 9.5h-21.488v6.5l11.069 1.95 10.419-1.95z" fill="#2b7cd3"/><path d="m8.512 16v6.5l10.418 1.3 11.07-1.3v-6.5z" fill="#185abd"/><path d="m9.705 29h19.1a1.192 1.192 0 0 0 1.195-1.191v-5.309h-21.488v5.309a1.192 1.192 0 0 0 1.193 1.191z" fill="#103f91"/><path d="m16.434 8.2h-7.922v16.25h7.922a1.2 1.2 0 0 0 1.194-1.191v-13.868a1.2 1.2 0 0 0 -1.194-1.191z" opacity=".1"/><path d="m15.783 8.85h-7.271v16.25h7.271a1.2 1.2 0 0 0 1.194-1.191v-13.868a1.2 1.2 0 0 0 -1.194-1.191z" opacity=".2"/><path d="m15.783 8.85h-7.271v14.95h7.271a1.2 1.2 0 0 0 1.194-1.191v-12.568a1.2 1.2 0 0 0 -1.194-1.191z" opacity=".2"/><path d="m15.132 8.85h-6.62v14.95h6.62a1.2 1.2 0 0 0 1.194-1.191v-12.568a1.2 1.2 0 0 0 -1.194-1.191z" opacity=".2"/><path d="m3.194 8.85h11.938a1.193 1.193 0 0 1 1.194 1.191v11.918a1.193 1.193 0 0 1 -1.194 1.191h-11.938a1.192 1.192 0 0 1 -1.194-1.191v-11.918a1.192 1.192 0 0 1 1.194-1.191z" fill="url(#a)"/><path d="m6.9 17.988c.023.184.039.344.046.481h.028c.01-.13.032-.287.065-.47s.062-.338.089-.465l1.255-5.407h1.624l1.3 5.326a7.761 7.761 0 0 1 .162 1h.022a7.6 7.6 0 0 1 .135-.975l1.039-5.358h1.477l-1.824 7.748h-1.727l-1.237-5.126q-.054-.222-.122-.578t-.084-.52h-.021q-.021.189-.084.561c-.042.249-.075.432-.1.552l-1.163 5.114h-1.756l-1.834-7.744h1.5l1.131 5.418a4.469 4.469 0 0 1 .079.443z" fill="#fff"/></svg>