<svg viewBox="0 0 32 32" xmlns="http://www.w3.org/2000/svg"><path d="m24.037 2.072 5.564 5.8v22.056h-20.787v.072h20.856v-22.055z" fill="#909090"/><path d="m23.965 2h-15.223v27.928h20.858v-22.055z" fill="#27434f"/><path d="m23.893 2.072v5.873h5.633z" fill="#4c4442"/><path d="m23.965 2v5.873h5.635z" fill="#e5f3fc"/><path d="m2.384 10.264h6.358v-6.832h-6.358z" fill="#909090"/><path d="m8.742 10.264h13.719v-6.832h-13.719z" fill="#4c4442"/><g fill="#e5f3fc"><path d="m22.407 10.211h-20.077v-6.833h20.077v6.832"/><path d="m18.267 14.686a3.907 3.907 0 0 1 1.692.2c.054.032.068.063.068.158v1.374c0 .126-.054.126-.095.095a3.561 3.561 0 0 0 -1.611-.273c-1.751 0-2.945 1.358-2.945 3.648 0 2.906 1.683 3.617 2.9 3.617a3.5 3.5 0 0 0 1.643-.244c.068-.032.1-.016.1.079v1.34a.19.19 0 0 1 -.081.189 4.142 4.142 0 0 1 -1.928.23c-2.172.016-4.248-1.408-4.248-5.167 0-2.985 1.765-5.246 4.506-5.246"/><path d="m24.8 14.376c-1.625 0-2.582 1.12-2.582 3.079v.245h-.9a.08.08 0 0 0 -.091.091v1.109a.106.106 0 0 0 .091.121l.9.015v6.017c0 .091.03.121.106.121h1.534c.091 0 .121-.046.121-.121v-6l1.291-.03c.076 0 .091-.03.091-.106v-1.129c0-.061-.015-.091-.091-.091h-1.294v-.349c0-1.276.516-1.484 1.108-1.484a1.548 1.548 0 0 1 .268.024v-1.46a2.968 2.968 0 0 0 -.556-.052"/></g><path d="m14.215 9.237c0 .045-.013.06-.051.06h-.686c-.026 0-.038-.022-.038-.06v-4.748c0-.045.006-.052.045-.052h2.468c.038 0 .051.007.058.052l.058.6c.006.045-.006.067-.045.067h-1.809v1.42h1.622c.038 0 .051.015.051.052v.619a.046.046 0 0 1 -.051.052h-1.622z" fill="#27434f"/><path d="m11.862 4.437a1.824 1.824 0 0 1 .79.092c.025.015.032.029.032.074v.641c0 .059-.025.059-.044.044a1.662 1.662 0 0 0 -.752-.127c-.817 0-1.375.634-1.375 1.7 0 1.356.785 1.688 1.356 1.688a1.635 1.635 0 0 0 .767-.114c.032-.015.044-.007.044.037v.628a.088.088 0 0 1 -.038.088 1.933 1.933 0 0 1 -.9.107c-1.014.007-1.983-.657-1.983-2.411a2.2 2.2 0 0 1 2.1-2.448" fill="#27434f"/></svg>