<svg viewBox="0 0 32 32" xmlns="http://www.w3.org/2000/svg"><path d="m18.467 2.028-9.14 1.687a.787.787 0 0 0 -.527 1.357l8.935 11.854a2.45 2.45 0 0 0 2.195.854l9.14-1.687a.787.787 0 0 0 .528-1.357l-8.936-11.853a2.45 2.45 0 0 0 -2.195-.855z" fill="#6bc9dd"/><path d="m28.88 17.144-9.636 1.672a3.714 3.714 0 0 0 -2 1.322l-6.563 8.932c-.453.616-.289 1.024.365.911l9.636-1.672a3.714 3.714 0 0 0 2-1.322l6.558-8.933c.46-.616.294-1.024-.36-.91z" fill="#6a6bd7"/><path d="m5.065 15.183c-.151.4-2.957 2.615-2.9 3.068s3.353 1.8 3.6 2.14 1.186 4.687 1.53 4.78 2.118-3.518 2.424-3.7 3.69.282 3.841-.114-2.044-3.976-2.106-4.429 1.095-4.513.844-4.851-3.381 1.06-3.725.967-3.014-3.071-3.32-2.884-.037 4.627-.188 5.023z" fill="#567dd9"/></svg>