<svg xmlns="http://www.w3.org/2000/svg" width="64" height="64"><defs><radialGradient id="prefix__a" cx="438.3" cy="639.01" r="569.94" gradientUnits="userSpaceOnUse"><stop offset="0" stop-color="#6877ec"/><stop offset=".6" stop-color="#5362cf"/><stop offset="1" stop-color="#4352b9"/></radialGradient><radialGradient id="prefix__b" cx="65.64" cy="-16.21" r="746.46" gradientUnits="userSpaceOnUse"><stop offset="0" stop-color="#00d5ff"/><stop offset=".38" stop-color="#00b8eb"/><stop offset="1" stop-color="#0080c5"/></radialGradient><radialGradient id="prefix__f" cx="259.68" cy="-34.71" r="431.37" gradientUnits="userSpaceOnUse"><stop offset="0" stop-color="#fff"/><stop offset="1"/></radialGradient><linearGradient id="prefix__c" x1="74.77" y1="67.3" x2="277.23" y2="512.72" gradientUnits="userSpaceOnUse"><stop offset="0" stop-color="#294ca7"/><stop offset=".48" stop-color="#96a7d4"/><stop offset=".84" stop-color="#e1e6f3"/><stop offset="1" stop-color="#fff"/></linearGradient><linearGradient id="prefix__d" x1="-228.74" y1="-144.29" x2="451" y2="651.89" gradientUnits="userSpaceOnUse"><stop offset="0" stop-color="#6877ec"/><stop offset=".29" stop-color="#97a1f2"/><stop offset=".77" stop-color="#e2e4fb"/><stop offset="1" stop-color="#fff"/></linearGradient><linearGradient id="prefix__e" x1="-151.22" y1="-285.9" x2="450.08" y2="430.63" gradientUnits="userSpaceOnUse"><stop offset="0" stop-color="#8397cc"/><stop offset=".15" stop-color="#97a8d4"/><stop offset=".73" stop-color="#e2e6f3"/><stop offset="1" stop-color="#fff"/></linearGradient></defs><g data-name="Layer 1"><path class="prefix__cls-2" d="M168.08 560a570.54 570.54 0 00291.76-156.41L56.25 0v448.17z" transform="matrix(.1 0 0 .1 3.975 5)" fill="url(#prefix__a)"/><path class="prefix__cls-3" d="M56.25 448.17c247.52 0 448.17-200.65 448.17-448.17H56.25z" transform="matrix(.1 0 0 .1 3.975 5)" fill="url(#prefix__b)"/><path class="prefix__cls-4" d="M56.25 448.17l17.25 17.25c121.57-4.45 231.4-55.68 312-136.23l-12.29-12.28A446.8 446.8 0 0156.25 448.17z" transform="matrix(.1 0 0 .1 3.975 5)" style="mix-blend-mode:multiply" fill="url(#prefix__c)"/><path class="prefix__cls-5" d="M168.08 560a570.54 570.54 0 00291.76-156.41L56.25 0v448.17z" transform="matrix(.1 0 0 .1 3.975 5)" style="mix-blend-mode:multiply" fill="url(#prefix__d)"/><path class="prefix__cls-6" d="M459.84 403.59L56.25 0l366.89 437.13c12.69-10.67 24.98-21.82 36.7-33.54z" transform="matrix(.1 0 0 .1 3.975 5)" style="mix-blend-mode:multiply" fill="url(#prefix__e)"/><path class="prefix__cls-7" d="M56.25 0l316.91 316.91q4.23-4.25 8.35-8.6z" transform="matrix(.1 0 0 .1 3.975 5)" style="mix-blend-mode:screen" fill="url(#prefix__f)"/></g></svg>