<svg id="angular" xmlns="http://www.w3.org/2000/svg" viewBox="0 0 32 32">
  <title>file_type_ng2_service_ts@2x</title>
  <polygon points="2.73 6.67 15.85 2 29.27 6.59 27.08 23.8 15.85 30 4.77 23.88 2.73 6.67"/>
  <path d="M2.73,6.67L15.85,2V30L4.77,23.88Z" style="fill: #5794e8"/>
  <path d="M15.85,2L29.27,6.59,27.08,23.8,15.85,30V2Z" style="fill: #173d71"/>
  <path id="A" d="M15.85,5.14l8.53,18.23H21.47l-1.82-4.16H15.85V16.73h2.77L15.85,11l-2.33,5.73h2.33v2.48H12.38l-1.63,4.16H7.61Z" style="fill: #fff"/>
  <g id="official_ts" data-name="official ts">
    <path d="M27.41,19.65a2.81,2.81,0,0,1,1.41.81,3.72,3.72,0,0,1,.54.72s-1,.69-1.57,1.06a0.5,0.5,0,0,1-.2-0.22,1.28,1.28,0,0,0-1.06-.64,0.92,0.92,0,0,0-1.12.91,0.83,0.83,0,0,0,.1.42,2.23,2.23,0,0,0,1.31.88c1.62,0.7,2.31,1.16,2.74,1.81a3.28,3.28,0,0,1,.26,2.76A3,3,0,0,1,27.31,30a6.93,6.93,0,0,1-1.72,0,4.15,4.15,0,0,1-2.3-1.2,4,4,0,0,1-.59-0.87l0.21-.13,0.84-.48,0.65-.38,0.14,0.2a3,3,0,0,0,.86.82,2.1,2.1,0,0,0,2.2-.11,1,1,0,0,0,.13-1.25,3.72,3.72,0,0,0-1.55-.9A5.6,5.6,0,0,1,24,24.32a3,3,0,0,1-.62-1.13,4.53,4.53,0,0,1,0-1.44,2.76,2.76,0,0,1,2.32-2.15A5.73,5.73,0,0,1,27.41,19.65Z" style="fill: #007acc"/>
    <path d="M22.1,20.59v0.93H19.16v8.36H17.08V21.52H14.14V20.61a8.9,8.9,0,0,1,0-.93s1.8,0,4,0h4v0.92Z" style="fill: #007acc"/>
  </g>
  <rect width="32" height="32" style="fill: #fff;opacity: 0"/>
</svg>
