<svg viewBox="0 0 32 32" xmlns="http://www.w3.org/2000/svg"><g fill="#06cc14"><path d="m14.194 27a1.2 1.2 0 0 1 -.276-.033 1.388 1.388 0 0 1 -.968-1.618l3.612-19.244a1.383 1.383 0 0 1 .592-.91 1.192 1.192 0 0 1 .928-.163 1.39 1.39 0 0 1 .969 1.617l-3.615 19.251a1.378 1.378 0 0 1 -.59.908 1.2 1.2 0 0 1 -.652.192z"/><path d="m21.437 24.273h-.091a1.242 1.242 0 0 1 -.891-.5 1.461 1.461 0 0 1 .136-1.893l6.209-6.073-6.185-5.652a1.462 1.462 0 0 1 -.187-1.888 1.25 1.25 0 0 1 .881-.533 1.2 1.2 0 0 1 .945.316l7.294 6.668a1.463 1.463 0 0 1 .191 1.889 1.415 1.415 0 0 1 -.189.218l-7.265 7.1a1.222 1.222 0 0 1 -.848.348z"/><path d="m10.563 24.277a1.219 1.219 0 0 1 -.852-.355l-7.271-7.1a1.2 1.2 0 0 1 -.182-.21 1.459 1.459 0 0 1 .188-1.886l7.3-6.67a1.175 1.175 0 0 1 .938-.317 1.254 1.254 0 0 1 .887.53 1.462 1.462 0 0 1 -.187 1.89l-6.184 5.65 6.212 6.069a1.457 1.457 0 0 1 .133 1.893 1.235 1.235 0 0 1 -.893.5c-.03.004-.059.006-.089.006z"/></g></svg>