<svg viewBox="0 0 32 32" xmlns="http://www.w3.org/2000/svg"><path d="m11.791 20.247a6.1 6.1 0 0 0 4.265 1.773v-2.52a3.438 3.438 0 0 1 -2.483-1.027z" fill="#3f5364"/><path d="m18.249 10.4-.933 2.333a3.771 3.771 0 0 1 1.784 1.494h2.716a6.073 6.073 0 0 0 -3.567-3.827z" fill="#3f5364"/><path d="m10.008 16a6.114 6.114 0 0 0 .513 2.427l2.3-1.027a3.41 3.41 0 0 1 -.28-1.4 3.534 3.534 0 0 1 3.509-3.5v-2.52a6.045 6.045 0 0 0 -6.042 6.02z" fill="#f18b21"/><path d="m17.307 19.267.933 2.333a6.048 6.048 0 0 0 3.6-3.873h-2.713a3.587 3.587 0 0 1 -1.82 1.54z" fill="#f18b21"/><g fill="#3f5364"><path d="m16.047 22.3a6.3 6.3 0 1 1 6.085-8.027h2.436a8.657 8.657 0 1 0 0 3.5h-2.436a6.3 6.3 0 0 1 -6.085 4.527z"/><path d="m16.047 7.04v-2.38a11.325 11.325 0 0 0 -10.584 7.233l2.2.84a9.048 9.048 0 0 1 8.384-5.693z"/><path d="m16.047 24.96v2.38a11.373 11.373 0 0 0 11.237-9.567h-2.436a8.936 8.936 0 0 1 -8.801 7.187z"/></g><path d="m24.895 14.273h2.389a11.4 11.4 0 0 0 -7.121-8.82l-.84 2.193a9.112 9.112 0 0 1 5.572 6.627z" fill="#f18b21"/><path d="m7.059 16h-2.39a11.361 11.361 0 0 0 7.168 10.547l.887-2.193a9.029 9.029 0 0 1 -5.665-8.354z" fill="#f18b21"/><path d="m27.564 14.273h2.389a14.463 14.463 0 0 0 -2.016-5.647l-2.016 1.26a10.461 10.461 0 0 1 1.643 4.387z" fill="#3f5364"/><path d="m2 16.009a14.74 14.74 0 0 0 1.241 6.048l2.315-.952a12.448 12.448 0 0 1 -1.148-5.1" fill="#3f5364"/><path d="m16.047 27.62a11.632 11.632 0 0 1 -8.241-3.407l-1.689 1.68a13.846 13.846 0 0 0 9.93 4.107 14.082 14.082 0 0 0 13.953-12.273h-2.389a11.719 11.719 0 0 1 -11.564 9.893z" fill="#f18b21"/><path d="m16.047 4.38a11.38 11.38 0 0 1 6.972 2.333l1.456-1.913a13.96 13.96 0 0 0 -8.428-2.8 14.1 14.1 0 0 0 -13.114 8.913l2.249.887a11.686 11.686 0 0 1 10.865-7.42z" fill="#f18b21"/></svg>