<svg viewBox="0 0 32 32" xmlns="http://www.w3.org/2000/svg"><path d="m29.845 4.008c-.2-.164-1.772-1.008-1.772-1.008l-1.673.976 1.672-.976-1.672-1v1.975l-1.753-.975s-1.431.836-2.125 1.237c-.874.5-3.018 1.781-3.018 1.781v1.882l-1.766 4.6v2.5l-1.24.724-.498 1.291-3.472-9.015v-1.981l-6.928-4.019-3.46 2v2.04l2.158 5.2 1.311.772v2.37l5.2 12.628 5.191 2.973v.017l5.189-3 8.674-21-.019-1.991" fill="#3185b8"/><path d="m16.006 29.985-5.2-2.976-5.2-12.628v-2.37l-1.311-.772-2.158-5.199v-2.04l1.707 1v2l1.765 1.028v-2.017l3.449 2 .166 1.975 5.013 13.013 3.484 2.029v3.972l-1.721-1.008v1.993" fill="#3185b8"/><path d="m12.528 8 3.472 9.015v4.967l-1.762 1-5.014-13.015-.166-1.961 3.471-1.987v1.981m-8.685-3v2l1.766-.989z" fill="#61a5ce"/><path d="m5.609 8.029v-2.018l-1.765.989z" fill="#eae9e6"/><path d="m16 21.982 1.738.994 1.935-4.858 1.49.887v-4.656l.475-1.124 1.269.743v-1.968l-1.727-1 1.737-1.008-1.711-.992v-2l-1.7-.99v1.89l-1.766 4.6v2.5l-1.24.724-.5 1.291z" fill="#3185b8"/><path d="m15.973 24.016 1.748 1.008-.008 3.976 3.479-2 8.671-21-.019-1.991-5.2 3v4l-1.744.991v1.968l-1.269-.743-.475 1.124v4.651l-2.414 1.42-1.011 2.561-1.762 1.039" fill="#61a5ce"/><path d="m9.047 10 1.744-1.01v2z" fill="#eae9e6"/><path d="m10.791 10.994 1.729.977v-1.971l-1.729-1.01v2" fill="#3185b8"/><path d="m7.33 14.974v2.019l1.746-1z" fill="#61a5ce"/><path d="m10.818 17-1.752 1.02-1.736-1.027 1.746-1z" fill="#eae9e6"/><path d="m10.795 23v2.036l1.755-1.016z" fill="#61a5ce"/><path d="m14.241 26.988 1.768 1.028.006-2.068z" fill="#eae9e6"/><path d="m16 30 .007-1.985 1.7.989z" fill="#61a5ce"/><path d="m16 21.982-1.762 1 1.738 1.031 1.762-1.039z" fill="#eae9e6"/><path d="m24.647 11v-4l-1.721-.98v1.996l-1.72.984z" fill="#3185b8"/><path d="m21.177 11 1.737-1.008 1.733 1.008-1.747 1-1.727-1" fill="#eae9e6"/><path d="m21.206 9 1.72-.989v-1.987l-1.726.976v2" fill="#61a5ce"/><path d="m26.4 3.975v-1.975l1.676 1z" fill="#3185b8"/><path d="m29.845 4.008-5.2 3-1.721-.98-1.724.972-1.7-.99s2.144-1.277 3.018-1.781c.699-.397 2.129-1.229 2.129-1.229l1.75.979 1.676-.979s1.571.843 1.771 1.007m-17.315 2.012-3.471 1.987-6.918-4.006 3.46-2 6.928 4.019" fill="#eae9e6"/><path d="m28.1 6.958v-1.944l-1.691.976 1.691.969m-5.126 9.041 1.683-.965v1.936z" fill="#3185b8"/><path d="m19.458 24v2.006l1.753-1.014z" fill="#eae9e6"/><path d="m21.221 24.995-.021-1.995-1.742 1 1.764.992" fill="#3185b8"/></svg>