<svg xmlns="http://www.w3.org/2000/svg" viewBox="0 0 32 32"><path d="M4.64,26.23H0L8.73.4h4.64Z"/><path d="M12.07,22.88a5.28,5.28,0,0,1-1.65,2,3.84,3.84,0,0,1-2.29.7,4.1,4.1,0,0,1-3.51-1.79Q3.35,22,3.35,18.23V8.69H7.66v9.57a7.46,7.46,0,0,0,.44,3.07,1.43,1.43,0,0,0,1.37.85,2.87,2.87,0,0,0,1.31-.28,2.57,2.57,0,0,0,1-.84V8.69h4.33V25.24H12.54Z" style="fill:#29abe2"/><path d="M32,17.38a10.77,10.77,0,0,1-1.46,5.94,4.64,4.64,0,0,1-4.09,2.24,4,4,0,0,1-1.87-.42,4.1,4.1,0,0,1-1.41-1.23V31.6h-4.3V8.69h3.95L23,10.38A4.69,4.69,0,0,1,24.46,8.9a3.61,3.61,0,0,1,2-.52,4.6,4.6,0,0,1,4.12,2.39A11.94,11.94,0,0,1,32,17.05Zm-4.31-.33a10.38,10.38,0,0,0-.59-3.82,1.91,1.91,0,0,0-1.8-1.45,2.16,2.16,0,0,0-1.27.37,2.65,2.65,0,0,0-.86,1V21a2.24,2.24,0,0,0,.86.89,2.58,2.58,0,0,0,1.28.3,1.88,1.88,0,0,0,1.82-1.27,9.09,9.09,0,0,0,.56-3.54Z" style="fill:#29abe2"/><path d="M7.67,8.7H5.93L3.36,16.31v1.94a9.62,9.62,0,0,0,1.28,5.54,4,4,0,0,0,.6.69l2.43-7.21Z" style="fill:#0071bc"/></svg>