<svg viewBox="0 0 32 32" xmlns="http://www.w3.org/2000/svg"><path d="m16.5 30-.011-.321c.4-.014.8-.045 1.19-.094l.039.319c-.406.048-.818.08-1.218.096zm-1.222-.011c-.4-.021-.814-.061-1.216-.118l.045-.318c.393.055.793.094 1.188.115zm3.642-.289-.067-.314c.387-.083.776-.184 1.155-.3l.094.307c-.388.118-.786.222-1.182.307zm-6.063-.053c-.4-.091-.791-.2-1.177-.326l.1-.306c.377.122.764.23 1.15.319zm8.4-.665-.121-.3c.364-.148.728-.314 1.08-.493h.006l.145.286c-.367.186-.741.356-1.114.507zm-10.718-.088c-.374-.158-.745-.335-1.1-.524l.15-.284c.35.186.713.358 1.078.512zm12.893-1.021-.17-.273c.337-.21.668-.437.984-.675l.193.257c-.328.243-.667.476-1.011.691zm-15.053-.122c-.341-.22-.676-.459-1-.708l.2-.253c.312.243.64.476.972.691zm17-1.346-.215-.239c.294-.265.58-.546.851-.836l.235.219c-.278.297-.571.585-.872.851zm-18.925-.153c-.3-.276-.585-.569-.856-.87l.239-.215c.265.294.547.58.836.85zm20.587-1.632-.253-.2c.244-.312.476-.639.692-.972l.27.175c-.221.343-.46.677-.709.997zm-22.221-.181c-.244-.324-.476-.662-.692-1.007l.272-.17c.21.337.438.668.676.984zm23.547-1.867-.284-.151c.186-.35.358-.713.513-1.078l.3.125c-.161.375-.338.746-.528 1.104zm-24.841-.2-.006-.012c-.183-.359-.352-.728-.5-1.1l.3-.121c.147.362.312.724.491 1.074l.006.012zm25.794-2.047-.306-.1c.122-.377.23-.764.319-1.15l.313.072c-.091.396-.2.792-.326 1.178zm-26.712-.218c-.12-.388-.223-.786-.308-1.182l.314-.067c.083.387.184.776.3 1.155zm27.262-2.161-.318-.045c.056-.393.094-.793.115-1.188l.321.017c-.021.405-.061.814-.118 1.216zm-27.77-.226c-.05-.4-.082-.812-.1-1.218l.321-.011c.014.4.046.8.094 1.19zm27.582-2.2c-.014-.4-.045-.8-.093-1.19l.319-.039c.049.4.082.813.1 1.218zm-27.351-.22-.321-.02c.021-.405.061-.814.117-1.216l.318.045c-.055.391-.093.791-.114 1.191zm27.057-2.144c-.083-.387-.184-.776-.3-1.155l.312-.101c.119.388.223.786.307 1.183zm-26.725-.222-.313-.072c.091-.4.2-.791.326-1.177l.306.1c-.123.376-.23.763-.319 1.149zm26.026-2.062c-.149-.366-.315-.732-.5-1.086l.286-.146c.185.363.355.736.507 1.111zm-25.289-.207-.3-.125c.158-.374.334-.745.524-1.1l.284.15c-.184.347-.356.71-.508 1.075zm1.113-2.108-.27-.174c.22-.341.458-.676.707-1l.254.2c-.243.317-.476.641-.691.974zm1.464-1.881-.235-.219c.276-.3.569-.585.87-.857l.215.239c-.294.261-.58.547-.85.837zm1.77-1.6-.193-.257c.323-.244.662-.477 1.007-.692l.17.272c-.337.215-.668.442-.984.68zm15.705-.558-.018-.012.175-.27.018.011zm-1.047-.616c-.35-.186-.713-.358-1.078-.512l.125-.3c.374.158.745.334 1.1.524zm-12.636-.087-.146-.286.018-.009c.356-.181.724-.349 1.093-.5l.121.3c-.361.147-.72.311-1.068.488zm10.44-.838c-.377-.122-.764-.229-1.151-.317l.072-.313c.4.091.792.2 1.178.325zm-8.229-.06-.094-.307c.388-.119.786-.223 1.182-.308l.067.314c-.388.084-.776.184-1.155.301zm5.9-.473c-.393-.055-.793-.092-1.188-.113l.016-.321c.405.021.814.059 1.216.115zm-3.572-.026-.04-.319c.4-.05.812-.083 1.218-.1l.012.321c-.392.017-.793.049-1.186.098z" fill="#808080"/><circle cx="16" cy="15.998" fill="#000080" r="10.708"/><circle cx="20.435" cy="11.562" fill="#fff" r="3.136"/><circle cx="26.708" cy="5.29" fill="#000080" r="3.137"/><g fill="#fff"><path d="m13.1 21.352v-.79h-3.471v-6.236h-.9v7.026z"/><path d="m17.916 21.352v-5.052h-.8v2.785c0 1.031-.54 1.706-1.378 1.706a.95.95 0 0 1 -1.038-.991v-3.5h-.8v3.817c0 .838.626 1.378 1.609 1.378a1.863 1.863 0 0 0 1.687-.925v.781h.723"/><path d="m23.791 21.333v-.607a.664.664 0 0 1 -.173.019c-.279 0-.434-.145-.434-.4v-2.809c0-.9-.655-1.378-1.9-1.378-1.224 0-1.976.472-2.024 1.638h.81c.067-.617.434-.9 1.185-.9.723 0 1.128.27 1.128.752v.212c0 .337-.2.482-.838.559a5.763 5.763 0 0 0 -1.619.308 1.327 1.327 0 0 0 -.887 1.311c0 .916.636 1.455 1.658 1.455a2.363 2.363 0 0 0 1.715-.742.855.855 0 0 0 .829.665 1.967 1.967 0 0 0 .549-.087m-1.407-1.725a1.366 1.366 0 0 1 -1.513 1.185c-.626 0-.993-.222-.993-.771 0-.53.357-.761 1.214-.887a4 4 0 0 0 1.291-.279v.752"/></g></svg>