<svg xmlns="http://www.w3.org/2000/svg" xmlns:xlink="http://www.w3.org/1999/xlink" viewBox="0 0 32 32"><defs><linearGradient id="a"><stop offset="0" stop-color="#ff0c0c"/><stop offset="1" stop-color="#ffc402"/></linearGradient><linearGradient xlink:href="#a" id="b" x1="78.57" x2="78.61" y1="121.6" y2="123.7" gradientUnits="userSpaceOnUse"/><linearGradient xlink:href="#a" id="c" x1="78.57" x2="78.58" y1="121.6" y2="124.3" gradientUnits="userSpaceOnUse"/></defs><path fill="#ee2349" d="M15.98 1.94c.42.22 1.5.8 2.04 1.22q.95.74 1.74 1.71c.33.4.62 1.05.74 1.63.2.97.06 1.98-.07 2.95-.24 1.68-1.3 4.93-1.3 4.93s1.3.88 1.86 1.43c.3.29.47.58.63.96.22.53.32 1.14.33 1.7 0 .3-.05.94-.05.94s-1.28-1.3-2.14-1.58a2.2 2.2 0 0 0-1.5-.02c-.19.08-.2.44-.41.46-.47.02-1.47 0-1.87 0s-1.4.02-1.88 0c-.2-.02-.22-.38-.4-.46a2.2 2.2 0 0 0-1.52.02c-.85.28-2.13 1.58-2.13 1.58s-.06-.64-.06-.93a5 5 0 0 1 .33-1.7c.16-.39.35-.68.64-.97.56-.55 1.86-1.43 1.86-1.43s-1.07-3.25-1.3-4.93a9 9 0 0 1-.06-2.95c.11-.58.4-1.23.73-1.63q.8-.98 1.74-1.7c.54-.42 1.62-1 2.05-1.23"/><circle cx="15.99" cy="7.25" r="2.75" fill="#fff"/><circle cx="16.41" cy="29.74" r=".26" fill="#ffc402"/><g fill="url(#b)" transform="translate(-264.4 -407.8)scale(3.512)"><circle cx="79.22" cy="121.8" r=".18"/><circle cx="79.93" cy="121.8" r=".31"/><circle cx="79.27" cy="122.3" r=".42" fill="url(#c)"/><circle cx="78.91" cy="122.6" r=".16"/><circle cx="79.63" cy="122.9" r=".26"/><circle cx="80.27" cy="123.7" r=".31"/><circle cx="79.91" cy="124.3" r=".14"/><circle cx="80.21" cy="124" r=".08"/><circle cx="79.7" cy="123.8" r=".18"/><circle cx="79.61" cy="123.4" r=".22"/><circle cx="79.85" cy="123.1" r=".22"/><circle cx="79.25" cy="123.4" r=".2"/><circle cx="80.33" cy="122.7" r=".2"/><circle cx="80.75" cy="122.3" r=".23"/><circle cx="80.59" cy="123" r=".26"/><circle cx="80.42" cy="122.1" r=".35"/></g></svg>