<svg xmlns="http://www.w3.org/2000/svg" viewBox="0 0 32 32"><style>.st0{fill:#fff}</style><path d="M27.8 15.1v2.4c0 .5-.3 1-.7 1.2v.9c0 1-.8 1.8-1.8 1.8H6.7c-1 0-1.8-.8-1.8-1.8v-.9c-.4-.3-.7-.7-.7-1.2v-2.4c0-.5.3-1 .7-1.2V13c0-1 .8-1.8 1.8-1.8h18.7c1 0 1.8.8 1.8 1.8v.9c.3.2.6.7.6 1.2z" class="st0"/><path d="M25.8 10.6H6.2C6.8 5.8 11 2 16 2s9.2 3.8 9.8 8.6z" class="st0"/><path fill="#ec1c24" d="M23.6 17.6H8.4c-.7 0-1.3-.6-1.3-1.3 0-.7.6-1.3 1.3-1.3h15.3c.7 0 1.3.6 1.3 1.3-.1.7-.7 1.3-1.4 1.3z"/><path d="M23.1 22v3.8c0 1-.9 1.9-1.9 1.9h-1c-.2 0-.4-.1-.6-.3l-1.2-1.6c-.1-.2-.3-.3-.6-.3h-3.6c-.2 0-.4.1-.5.2l-1.3 1.6c-.1.2-.3.3-.6.3h-1c-1 0-1.9-.9-1.9-1.9V22H6.6v3.8c0 2.3 1.9 4.2 4.2 4.2h10.4c2.3 0 4.2-1.9 4.2-4.2V22h-2.3z" class="st0"/></svg>
