<svg xmlns="http://www.w3.org/2000/svg" viewBox="0 0 32 32"><title>file_type_stan</title><path d="M16,2A14,14,0,0,0,5.688,25.469c1.7-.514,3.411-.992,4.806-1.357,4.037-1.054,10.948-2.836,11.946-5.082-.28.78-1.218,2.87-1.218,2.87-1.279,1.247-7.09,2.631-10.917,3.367-1.22.235-2.614.507-4.026.806A14,14,0,0,0,28.467,9.628c-2.526.408-10.5,1.854-12.539,2.315-2.255.509-6.789,1.433-7.694,2.993C8.8,13.5,10.492,9.744,10.492,9.744c1.216-2,6.6-3.425,10.358-4.463.876-.242,1.922-.539,3.023-.858A13.934,13.934,0,0,0,16,2Z" style="fill:#b2001d"/><path d="M8.223,14.987c-.252,1.175,3.52,2.313,6.921,3.389a26.362,26.362,0,0,1,5.667,2.192,3.085,3.085,0,0,0,1.662-1.614c.377-1.489-3.013-3.393-5.274-4.229a33.337,33.337,0,0,1-4.407-2.042c-4.316,1.143-4.569,2.3-4.569,2.3Z" style="fill:#590815"/></svg>