<svg viewBox="0 0 32 32" xmlns="http://www.w3.org/2000/svg"><g fill="#735a00" stroke="#735a00"><path d="m2.5 24.186v-16.276h4.309v1.914h-2.009v12.447h2.009v1.915z"/><path d="m12.84 7.814h2.585v8.043a7.731 7.731 0 0 1 -.287 2.394 3.645 3.645 0 0 1 -1.34 1.819 4.334 4.334 0 0 1 -2.585.67 3.908 3.908 0 0 1 -2.873-1.054 4.233 4.233 0 0 1 -1.053-3.064l2.394-.287a2.857 2.857 0 0 0 .287 1.532 1.3 1.3 0 0 0 1.245.67 1.654 1.654 0 0 0 1.245-.479 4.288 4.288 0 0 0 .383-2.011z"/><path d="m15.521 20.644v-12.83h2.394v4.6a3.394 3.394 0 0 1 2.685-1.249 3.45 3.45 0 0 1 2.777 1.245 5.088 5.088 0 0 1 1.149 3.543 5.349 5.349 0 0 1 -1.149 3.638 3.45 3.45 0 0 1 -2.777 1.244 2.81 2.81 0 0 1 -1.532-.383 5.039 5.039 0 0 1 -1.34-1.149v1.34zm2.394-4.883a4.024 4.024 0 0 0 .479 2.106 1.823 1.823 0 0 0 1.723.957 1.553 1.553 0 0 0 1.34-.67 3.373 3.373 0 0 0 .574-2.2 3.681 3.681 0 0 0 -.574-2.3 1.874 1.874 0 0 0 -2.872 0 3.453 3.453 0 0 0 -.67 2.107z"/><path d="m29.5 7.814v16.276h-4.309v-1.914h2.009v-12.447h-2.009v-1.915z"/></g></svg>