<svg xmlns="http://www.w3.org/2000/svg" xml:space="preserve" viewBox="0 0 32 32"><path fill="#3999c6" d="m16.03 14.68-.13-.03-8.24-4.76a.25.25 0 0 1 0-.43l8.19-4.72a.3.3 0 0 1 .25 0l8.24 4.75q.11.08.12.22t-.12.21l-8.19 4.73z"/><path fill="#59b4d9" d="m14.84 26.24-.12-.03-8.22-4.74a.2.2 0 0 1-.12-.22v-9.51q0-.15.12-.22a.3.3 0 0 1 .25 0l8.22 4.74q.11.08.12.22v9.51q0 .15-.12.22zm2.33 0-.13-.03a.3.3 0 0 1-.12-.22v-9.45q0-.14.12-.22l8.2-4.74a.3.3 0 0 1 .26 0q.11.08.12.22v9.45q0 .15-.12.22l-8.21 4.74z"/><path fill="#fff" d="m17.17 26.24-.13-.03a.3.3 0 0 1-.12-.22v-9.45q0-.14.12-.22l8.2-4.74a.3.3 0 0 1 .26 0q.11.08.12.22v9.45q0 .15-.12.22l-8.21 4.74z" opacity=".5"/><path fill="#7a7a7a" d="M7.35 27.3a1 1 0 0 1-.4-.11L3.1 24.97A2.4 2.4 0 0 1 2 23.05V8.95c0-.74.47-1.55 1.11-1.92L6.95 4.8a.81.81 0 0 1 .81 1.41L3.93 8.44a.8.8 0 0 0-.3.51v14.1c0 .15.16.43.3.51l3.83 2.22a.81.81 0 0 1-.4 1.52M24.65 4.7q.22 0 .4.11l3.84 2.22A2.4 2.4 0 0 1 30 8.95v14.1c0 .74-.47 1.55-1.11 1.92l-3.84 2.22a.81.81 0 0 1-.81-1.41l3.83-2.22c.14-.08.3-.36.3-.51V8.95a.8.8 0 0 0-.3-.51l-3.83-2.22a.81.81 0 0 1 .4-1.52"/></svg>