<svg xmlns="http://www.w3.org/2000/svg" xmlns:xlink="http://www.w3.org/1999/xlink" viewBox="0 0 32 32"><defs><mask id="a" x="1.455" y="1.455" width="29.091" height="29.091" maskUnits="userSpaceOnUse"><path d="M5.7,20.974l1.464-1.565,1.819,1.819L7.5,22.707,9.293,24.5l1.479-1.479L12.6,24.852,11.151,26.3l4.242,4.242h6.667a1.212,1.212,0,0,0,1.212-1.212v-9.7l6.195-4.129a2.425,2.425,0,0,0,1.078-2.016V2.667a1.212,1.212,0,0,0-1.212-1.212H18.509a2.425,2.425,0,0,0-2.016,1.078L12.364,8.727h-9.7A1.212,1.212,0,0,0,1.455,9.94v6.666Z" style="fill:#fff"/><path d="M3.636,23.273H1.455v7.273H8.727V28.364H3.636Z" style="fill:#fff"/></mask><linearGradient id="b" x1="0.069" y1="31.569" x2="1.069" y2="31.569" gradientTransform="matrix(0, 29.091, 29.091, 0, -902.364, -0.545)" gradientUnits="userSpaceOnUse"><stop offset="0" stop-color="#fff"/><stop offset="1" stop-color="#fff" stop-opacity="0"/></linearGradient><linearGradient id="c" x1="0.069" y1="31.194" x2="1.069" y2="31.194" xlink:href="#b"/></defs><title>file_type_azurepipelines</title><g style="mask:url(#a)"><path d="M1.455,23.273H3.636v5.091H8.727v2.182H1.455Z" style="fill:#91b0f2"/><path d="M1.455,9.939v6.667L5.7,20.974,7.515,19.03l5.455,5.455L11.151,26.3l4.242,4.242h6.667a1.212,1.212,0,0,0,1.212-1.212v-9.7L12.364,8.727h-9.7A1.212,1.212,0,0,0,1.455,9.939Z" style="fill:#0f46bd"/><path d="M6,18.249,17.212,1.455H30.545V14.788L13.751,26Z" style="fill:#062aa9"/><path d="M6.7,18.952a1.212,1.212,0,0,1-.151-1.53l9.94-14.889a2.424,2.424,0,0,1,2.016-1.078H29.333a1.212,1.212,0,0,1,1.212,1.212V13.492a2.424,2.424,0,0,1-1.078,2.016l-14.889,9.94a1.212,1.212,0,0,1-1.53-.151Z" style="fill:#2560e0"/><path d="M7.5,22.707l9.255-9.255,1.792,1.792L9.293,24.5Z" style="fill:#0a44c2"/><path d="M7.5,22.707l9.255-9.255,1.792,1.792L9.293,24.5Z" style="fill:#729af2"/><path d="M10.772,23.02,8.98,21.228l7.776-7.775,1.792,1.792Z" style="fill:#4c80f0"/><path d="M23.273,12.364a3.636,3.636,0,1,0-3.636-3.636A3.636,3.636,0,0,0,23.273,12.364Z" style="fill:#0a44c2"/><path d="M23.273,12.364a3.636,3.636,0,1,0-3.636-3.636A3.636,3.636,0,0,0,23.273,12.364Z" style="fill:#91b0f2"/><g style="opacity:0.20000000298023224"><path d="M5.7,20.974l1.464-1.565,1.819,1.819L7.5,22.707,9.293,24.5l1.479-1.479L12.6,24.852,11.151,26.3l4.242,4.242h6.667a1.212,1.212,0,0,0,1.212-1.212v-9.7l6.195-4.129a2.425,2.425,0,0,0,1.078-2.016V2.667a1.212,1.212,0,0,0-1.212-1.212H18.509a2.425,2.425,0,0,0-2.016,1.078L12.364,8.727h-9.7A1.212,1.212,0,0,0,1.455,9.94v6.666Z" style="fill:url(#b)"/><path d="M3.636,23.273H1.455v7.273H8.727V28.364H3.636Z" style="fill:url(#c)"/></g></g></svg>