<svg width="32" height="32" version="1.1" viewBox="0 0 8.4667 8.4667" xmlns="http://www.w3.org/2000/svg">
 <rect x=".26458" y=".26458" width="7.9375" height="7.9375" fill-opacity="0" stroke-width=".26458"/>
 <g stroke="#000">
  <g transform="matrix(.016768 0 0 -.016757 .23734 8.2859)" fill="#108938" stroke-width="2.3677">
   <path d="m5 467c-3-7-4-114-3-237l3-225h470v470l-233 3c-183 2-234 0-237-11zm335-227c0-35 6-37 33-13 18 17 19 17 33-2 19-26 18-29-18-46l-31-15 31-13c36-15 38-19 18-46-14-19-15-19-33-2-27 24-33 22-33-13 0-25-4-30-25-30s-25 5-25 30c0 35-6 37-33 13-18-17-19-17-33 2-20 27-18 31 18 46l31 13-31 15c-36 17-37 20-18 46 14 19 15 19 33 2 27-24 33-22 33 13 0 25 4 30 25 30s25-5 25-30z" fill="#108938" stroke="#000" stroke-width="2.3677"/>
  </g>
  <path transform="scale(.26458)" d="m19.749 27.115c-0.22558-0.22558-0.32582-0.64612-0.39517-1.6579-0.11221-1.6371-0.3249-1.9617-1.0418-1.5902-0.25876 0.13409-0.81324 0.54583-1.2322 0.91498-0.41893 0.36915-0.8731 0.67118-1.0093 0.67118-0.27419 0-1.0624-0.93461-1.4852-1.7611-0.19868-0.38834-0.22834-0.61675-0.10901-0.83971 0.09015-0.16844 0.95786-0.65349 1.9282-1.0779s1.7905-0.797 1.8225-0.82802c0.032-0.03102-0.75521-0.46432-1.7493-0.9629-0.99414-0.49858-1.8793-1.0348-1.9671-1.1917-0.11216-0.20042-0.08422-0.43258 0.09403-0.78126 0.40546-0.79315 1.1969-1.7237 1.4659-1.7237 0.13617 0 0.59034 0.30203 1.0093 0.67118 1.7502 1.5422 2.1297 1.4295 2.274-0.67525 0.1144-1.6691 0.33485-1.9601 1.4846-1.9601 1.2196 0 1.3923 0.21367 1.5221 1.8825 0.17086 2.1974 0.44682 2.2943 2.2324 0.78386 0.47229-0.39952 0.98555-0.70198 1.1406-0.67212 0.15502 0.02986 0.56365 0.45763 0.90806 0.95062 0.96674 1.3838 0.89102 1.5346-1.3487 2.6857l-1.8787 0.96563 0.6511 0.29355c2.4016 1.0828 3.163 1.4836 3.2503 1.7112 0.17562 0.45766-1.1619 2.5295-1.6329 2.5295-0.14262 0-0.63935-0.32143-1.1038-0.71428-1.7699-1.4969-2.0476-1.3972-2.2182 0.79598-0.12976 1.6688-0.30253 1.8825-1.5221 1.8825-0.54709 0-0.8793-0.09217-1.0894-0.30226z" fill="#fff" fill-rule="evenodd" stroke-width=".15"/>
 </g>
</svg>
