<svg xmlns="http://www.w3.org/2000/svg" viewBox="0 0 32 32"><title>file_type_wikitext</title><path d="M30 30V2H2.00002V30H30Z" fill="black"/><path d="M29.1513 29.1234H2.84604V2.87222H29.1513V29.1234ZM13.2123 21.3957C13.1822 21.3305 13.1596 21.2855 13.1398 21.2405C11.6663 17.8093 10.1932 14.3785 8.72042 10.948C8.60237 10.6856 8.4985 10.4167 8.40929 10.1425C8.2587 9.64974 8.42134 9.2023 8.83096 8.90607C9.13215 8.68871 9.4752 8.60115 9.83151 8.55395C10.0628 8.5229 10.0836 8.50334 10.0908 8.25679C10.0914 8.19439 10.0868 8.13206 10.077 8.07048C10.0592 7.94286 9.98993 7.88418 9.86012 7.88946C9.21859 7.92051 8.57645 7.93821 7.93522 7.97547C7.03708 8.02826 6.14074 8.04161 5.24229 7.96957C4.68238 7.92485 4.11977 7.91181 3.55835 7.89598C3.4963 7.89442 3.39631 7.95497 3.37583 8.01087C3.2662 8.30896 3.42251 8.56979 3.67099 8.55084C3.72942 8.5465 3.79147 8.5673 3.8496 8.576C4.71371 8.70424 5.40253 9.11722 5.84377 9.91119C6.04144 10.2589 6.22071 10.6173 6.38079 10.9849C7.87669 14.5072 9.36788 18.0313 10.8543 21.5572C11.2268 22.4382 11.5989 23.3195 11.9705 24.2009C12.0308 24.3468 12.1226 24.4391 12.2832 24.4493C12.4509 24.4608 12.575 24.3934 12.6588 24.2447C12.6865 24.1953 12.7127 24.1453 12.7392 24.0956C13.9154 21.8898 15.0915 19.6836 16.2673 17.4771C16.2929 17.429 16.3203 17.3821 16.3577 17.3159C16.3896 17.3796 16.4134 17.4237 16.4345 17.4693L18.1154 21.0914C18.5957 22.1265 19.0759 23.1615 19.556 24.1966C19.6325 24.3621 19.7448 24.4552 19.9304 24.4521C20.109 24.449 20.1897 24.3453 20.2575 24.1879C22.1586 19.7654 24.0629 15.3446 25.9704 10.9256C26.1687 10.4739 26.3953 10.0359 26.649 9.61466C27.0375 8.96258 27.6339 8.62102 28.3658 8.55643C28.6067 8.53501 28.7522 8.2956 28.7055 8.05744C28.6838 7.9469 28.6308 7.88418 28.51 7.89132C28.1745 7.9115 27.8375 7.91368 27.5031 7.94535C26.8225 8.00962 26.143 8.05154 25.459 7.9972C24.8888 7.95187 24.3175 7.92392 23.7464 7.89411C23.5823 7.88573 23.5196 7.95094 23.5055 8.11986C23.5008 8.19223 23.5008 8.26484 23.5055 8.33721C23.5112 8.47912 23.579 8.53221 23.722 8.55457C23.9931 8.59525 24.2693 8.64151 24.5232 8.74088C24.9081 8.89054 25.1123 9.20664 25.1409 9.63422C25.171 10.0857 25.0464 10.5036 24.8765 10.9107C23.4743 14.2713 22.072 17.6319 20.6695 20.9927C20.6466 21.0474 20.6195 21.1005 20.5854 21.1737C20.5583 21.1256 20.5397 21.097 20.5252 21.0663C19.5835 19.0904 18.6412 17.1147 17.6983 15.1393C17.6576 15.0539 17.666 14.9899 17.7082 14.9101C18.1618 14.0522 18.6057 13.1886 19.0635 12.3329C19.4816 11.5566 19.8984 10.7766 20.3505 10.0202C20.5561 9.68309 20.8047 9.37604 21.0896 9.10728C21.4866 8.72877 22.0034 8.60891 22.5293 8.54836C22.7212 8.526 22.7968 8.45179 22.8112 8.25524C22.8164 8.18814 22.8157 8.12069 22.8091 8.05372C22.7983 7.94752 22.7489 7.88573 22.632 7.89256C22.2763 7.91274 21.9197 7.91709 21.5646 7.94566C20.8637 8.00155 20.1644 8.05589 19.4602 7.99845C18.8852 7.95156 18.3082 7.93013 17.7323 7.89194C17.598 7.88325 17.5178 7.94814 17.4823 8.06552C17.4582 8.15436 17.448 8.24661 17.4522 8.33877C17.4552 8.4785 17.5227 8.54029 17.6696 8.55364C17.8939 8.57116 18.1159 8.61184 18.3323 8.67505C18.8895 8.848 19.1358 9.24204 19.0771 9.83698C19.041 10.204 18.8922 10.5328 18.7265 10.853C18.2259 11.8199 17.724 12.7858 17.2206 13.7507C17.1932 13.8028 17.1642 13.8544 17.1302 13.9177C17.1028 13.8687 17.0814 13.8342 17.0639 13.7979C16.5399 12.7042 16.0128 11.6122 15.496 10.5151C15.3724 10.2551 15.2696 9.98511 15.1887 9.70781C15.0589 9.25664 15.1978 8.94178 15.62 8.77069C15.8776 8.66635 16.1586 8.61543 16.4333 8.56389C16.7622 8.50178 16.7856 8.48346 16.7591 8.13166C16.7591 8.12141 16.7591 8.11116 16.7567 8.1006C16.7408 7.9646 16.6835 7.88325 16.5333 7.8907C15.9721 7.92175 15.4104 7.93976 14.8496 7.97702C14.0421 8.03074 13.2364 8.04409 12.4287 7.96988C11.9492 7.9261 11.467 7.9143 10.986 7.89536C10.9308 7.89318 10.8501 7.92392 10.8218 7.96739C10.7872 8.02076 10.7664 8.0824 10.7614 8.14641C10.7565 8.21043 10.7675 8.27468 10.7936 8.33303C10.8196 8.39138 10.8597 8.44187 10.91 8.47968C10.9604 8.51749 11.0193 8.54135 11.0811 8.54898C11.7947 8.62568 12.3621 8.93929 12.7184 9.60472C12.8563 9.86275 13.0157 10.1096 13.1401 10.3742C14.0304 12.2782 14.9132 14.1863 15.8023 16.0907C15.8266 16.1343 15.8389 16.1839 15.838 16.2341C15.837 16.2844 15.8228 16.3335 15.7968 16.376C14.972 17.9731 14.1494 19.5713 13.3292 21.1706C13.2931 21.2396 13.2578 21.3088 13.2123 21.3957Z" fill="#D2D2D2"/></svg>