<svg viewBox="0 0 32 32" xmlns="http://www.w3.org/2000/svg" xmlns:xlink="http://www.w3.org/1999/xlink"><linearGradient id="a" gradientUnits="userSpaceOnUse" x1="19.065" x2="19.065" y1="20" y2="29.83"><stop offset=".15" stop-color="#2a4f84"/><stop offset=".39" stop-color="#294e82"/><stop offset="1" stop-color="#172e4e"/></linearGradient><path d="m2.73 6.67 13.12-4.67v28l-11.08-6.12z" fill="#de3641"/><path d="m15.85 2 13.42 4.59-2.19 17.21-11.23 6.2z" fill="#b13138"/><path d="m15.85 5.14 8.53 18.23h-2.91l-1.82-4.16h-3.8v-2.48h2.77l-2.77-5.73-2.33 5.73h2.33v2.48h-3.47l-1.63 4.16h-3.14z" fill="#fff"/><path d="m28.93 27.94a1.9 1.9 0 0 1 -1.9 1.9h-15.93a1.9 1.9 0 0 1 -1.9-1.9v-6a1.9 1.9 0 0 1 1.86-1.94h15.94a1.9 1.9 0 0 1 1.9 1.9z" fill="url(#a)"/><g fill="#f6f6f6"><path d="m25.6 24.79a1.56 1.56 0 0 1 1.25 1.5 1.34 1.34 0 0 1 -.52 1.11 2.32 2.32 0 0 1 -1.47.44 3.61 3.61 0 0 1 -1.77-.49 1.57 1.57 0 0 1 .13-.53 1.45 1.45 0 0 1 .28-.46 2.93 2.93 0 0 0 1.31.39.76.76 0 0 0 .4-.09.27.27 0 0 0 .14-.24q0-.28-.43-.42l-.52-.2q-1.17-.43-1.17-1.39a1.39 1.39 0 0 1 .49-1.12 2 2 0 0 1 1.28-.51 4 4 0 0 1 .91.12 3.61 3.61 0 0 1 .82.37 1.32 1.32 0 0 1 -.1.57 1 1 0 0 1 -.3.44 3.37 3.37 0 0 0 -1.33-.35.43.43 0 0 0 -.29.08.27.27 0 0 0 -.1.21q0 .22.36.35l.58.21z"/><path d="m21.44 24.79a1.56 1.56 0 0 1 1.25 1.5 1.34 1.34 0 0 1 -.52 1.11 2.33 2.33 0 0 1 -1.47.44 3.61 3.61 0 0 1 -1.77-.49 1.57 1.57 0 0 1 .13-.53 1.44 1.44 0 0 1 .28-.46 2.93 2.93 0 0 0 1.31.39.76.76 0 0 0 .4-.09.27.27 0 0 0 .14-.24q0-.28-.43-.42l-.52-.2q-1.17-.43-1.17-1.39a1.39 1.39 0 0 1 .49-1.12 2 2 0 0 1 1.33-.51 4 4 0 0 1 .91.12 3.6 3.6 0 0 1 .82.37 1.32 1.32 0 0 1 -.1.57 1 1 0 0 1 -.3.44 3.37 3.37 0 0 0 -1.31-.35.43.43 0 0 0 -.29.08.27.27 0 0 0 -.1.21q0 .22.36.35z"/><path d="m18.4 24.85a2.23 2.23 0 0 0 -.14-.79 1.77 1.77 0 0 0 -.39-.62 1.81 1.81 0 0 0 -.62-.41 2.17 2.17 0 0 0 -.81-.25 2.22 2.22 0 0 0 -.93.29 1.79 1.79 0 0 0 -.66.51 2.19 2.19 0 0 0 -.39.77 3.48 3.48 0 0 0 -.13 1 4.5 4.5 0 0 0 .1 1 2.08 2.08 0 0 0 .35.79 1.67 1.67 0 0 0 .65.52 2.32 2.32 0 0 0 1 .22 3.13 3.13 0 0 0 1.84-.56 1.48 1.48 0 0 0 -.38-.86 4.9 4.9 0 0 1 -.68.21 2.54 2.54 0 0 1 -.52.06.81.81 0 0 1 -.65-.23.94.94 0 0 1 -.21-.61h2.44a3.52 3.52 0 0 0 .13-1.04zm-2.57.06a1.93 1.93 0 0 1 .17-.79.5.5 0 0 1 .44-.21.52.52 0 0 1 .46.22 1.38 1.38 0 0 1 .15.68v.1z"/><path d="m29.42 25.54a1.27 1.27 0 0 0 -.42 1v1.62a1.43 1.43 0 0 1 -.54 1.23 2.22 2.22 0 0 1 -1.31.43h-.3v-.82a1 1 0 0 0 .47-.26 1.08 1.08 0 0 0 .33-.83v-1.3a2 2 0 0 1 .2-1 2 2 0 0 1 1-.66 2 2 0 0 1 -1-.93 2.34 2.34 0 0 1 -.11-.92v-1.2a1.15 1.15 0 0 0 -.29-.83.91.91 0 0 0 -.51-.25v-.82h.73a1.33 1.33 0 0 1 .81.35 1.58 1.58 0 0 1 .53.8 1.84 1.84 0 0 1 .07.55v1.4a1.46 1.46 0 0 0 .4 1.09 1.67 1.67 0 0 0 .68.38v.63a1.54 1.54 0 0 0 -.65.34z" stroke="#404040" stroke-miterlimit="10" stroke-width=".25"/><path d="m10.75 20h-.26a1.32 1.32 0 0 0 -.81.35 1.35 1.35 0 0 0 -.53.8 2.8 2.8 0 0 0 0 .55v1.4a1.48 1.48 0 0 1 -.43 1.1 2.25 2.25 0 0 1 -.78.38v.63a2 2 0 0 1 .75.34 1.3 1.3 0 0 1 .46 1v1.62a1.41 1.41 0 0 0 .5 1.23 2.22 2.22 0 0 0 1.31.44h.33v-.84a1.16 1.16 0 0 1 -.51-.26 1.07 1.07 0 0 1 -.29-.83v-1.29a2 2 0 0 0 -.24-1 2 2 0 0 0 -1-.66 2 2 0 0 0 1-.93 2.26 2.26 0 0 0 .14-.92v-1.2a1.16 1.16 0 0 1 .31-.91 1 1 0 0 1 .46-.21h.34v-.79z" stroke="#404040" stroke-miterlimit="10" stroke-width=".25"/><path d="m13.87 26.59h-.25c-.28 0-.38-.14-.38-.44v-5.34a1 1 0 0 0 -.21-.68c-.12-.13-.33-.13-.63-.13h-.64v6.42a1.48 1.48 0 0 0 .28 1 1.14 1.14 0 0 0 .91.31 6.22 6.22 0 0 0 1-.09 1.77 1.77 0 0 0 0-.4 1.8 1.8 0 0 0 -.11-.62z"/></g></svg>