<svg xmlns="http://www.w3.org/2000/svg" viewBox="0 0 32 32"><title>file_type_cddl</title><path d="M10.584,24.474v1.5H9.869a5.8,5.8,0,0,1-3.577-.8c-.613-.5-.92-1.6-.92-3.093V19.585a2.806,2.806,0,0,0-.613-2.2,2.74,2.74,0,0,0-2.146-.6H2V15.3h.715a2.85,2.85,0,0,0,2.146-.6,3.941,3.941,0,0,0,.613-2.2V10.007c0-1.6.307-2.594.92-3.093a5.546,5.546,0,0,1,3.475-.9h.715v1.5H9.869a3,3,0,0,0-2.044.5,3.442,3.442,0,0,0-.511,2V12.6A3.937,3.937,0,0,1,6.8,15a2.818,2.818,0,0,1-1.635,1,2.771,2.771,0,0,1,1.737,1,4.819,4.819,0,0,1,.511,2.394v2.594a2.82,2.82,0,0,0,.511,2,2.861,2.861,0,0,0,1.942.5Z" style="fill:#0ea568"/><path d="M21.314,24.533h.715a2.607,2.607,0,0,0,1.942-.5,2.755,2.755,0,0,0,.409-2V19.445a3.931,3.931,0,0,1,.511-2.395,2.394,2.394,0,0,1,1.737-1,2.771,2.771,0,0,1-1.737-1,4.821,4.821,0,0,1-.511-2.394V10.066a3.373,3.373,0,0,0-.409-2,3.532,3.532,0,0,0-1.942-.5h-.715v-1.5h.715a5.8,5.8,0,0,1,3.577.8c.613.5.92,1.6.92,3.093v2.494a2.806,2.806,0,0,0,.613,2.2,2.742,2.742,0,0,0,2.146.6H30v1.5h-.715a2.85,2.85,0,0,0-2.146.6,2.806,2.806,0,0,0-.613,2.2v2.494c0,1.6-.307,2.594-.92,3.093a6.018,6.018,0,0,1-3.577.8h-.715Z" style="fill:#0ea568"/><path d="M12.309,8.092c-1.518,0-2.44,1.4-2.44,3.5,0,2.057.762,3.294,2.286,3.294,1.5,0,2.432-1.4,2.432-3.505C14.587,9.334,13.828,8.092,12.309,8.092Zm-1.334,3.294c0-1.494.407-2.347,1.253-2.347.616,0,.991.527,1.159,1.411l-2.4,1.252A3.024,3.024,0,0,1,10.975,11.386Zm2.505.208c0,1.5-.4,2.347-1.242,2.347-.605,0-.991-.505-1.158-1.368l2.4-1.253Z" style="fill:#0ca69c"/><polygon points="21.984 14.752 22.079 13.773 20.513 13.773 20.513 8.018 19.396 8.114 19.396 8.879 17.789 9.048 17.81 9.9 19.396 9.858 19.396 13.774 17.642 13.774 17.642 14.755 21.984 14.752" style="fill:#0ca69c"/><polygon points="14.535 23.842 14.63 22.863 13.064 22.863 13.064 17.109 11.947 17.204 11.947 17.97 10.339 18.138 10.36 18.991 11.947 18.949 11.947 22.864 10.192 22.864 10.192 23.845 14.535 23.842" style="fill:#0ca69c"/><path d="M19.854,17.179c-1.519,0-2.443,1.4-2.443,3.505,0,2.056.764,3.3,2.288,3.3v0c1.5,0,2.432-1.4,2.432-3.5C22.131,18.421,21.372,17.179,19.854,17.179Zm-1.334,3.3c0-1.5.407-2.348,1.252-2.348.616,0,.992.527,1.159,1.411l-2.4,1.252A3.013,3.013,0,0,1,18.52,20.477Zm2.5.207c0,1.5-.4,2.348-1.242,2.348-.606,0-.992-.506-1.159-1.369l2.4-1.252Z" style="fill:#0ca69c"/></svg>