<svg width="24" height="24" fill="none" xmlns="http://www.w3.org/2000/svg"><path d="M13.08 14.503c0-.843.594-1.868 1.328-2.29l6.263-3.596c.734-.421 1.329-.08 1.329.764v7.31c0 .843-.595 1.868-1.33 2.29l-6.262 3.596c-.734.421-1.329.08-1.329-.764z" fill="url(#prefix__paint0_linear_708_57)"/><path d="M2 9.38c0-.842.595-1.184 1.33-.763l6.262 3.596c.734.422 1.329 1.447 1.329 2.29v7.31c0 .843-.595 1.185-1.33.764L3.33 18.98C2.595 18.559 2 17.534 2 16.69z" fill="url(#prefix__paint1_linear_708_57)"/><path d="M4.288 6.68c-.734-.421-.734-1.105 0-1.526l6.263-3.596c.734-.421 1.924-.421 2.658 0l6.367 3.656c.734.421.734 1.104 0 1.526l-6.263 3.596c-.734.421-1.924.421-2.658 0z" fill="url(#prefix__paint2_linear_708_57)"/><defs id="prefix__defs8"><linearGradient id="prefix__paint0_linear_708_57" x1="11.328" y1="8.203" x2="90.301" y2="10.761" gradientUnits="userSpaceOnUse" gradientTransform="matrix(.25859 0 0 .25859 -.93 -.88)"><stop stop-color="#69F0AE" id="prefix__stop3"/><stop offset="1" stop-color="#4FC3F7" id="prefix__stop4"/></linearGradient><linearGradient id="prefix__paint1_linear_708_57" x1="11.328" y1="8.203" x2="90.301" y2="10.761" gradientUnits="userSpaceOnUse" gradientTransform="matrix(.25859 0 0 .25859 -.93 -.88)"><stop stop-color="#69F0AE" id="prefix__stop5"/><stop offset="1" stop-color="#4FC3F7" id="prefix__stop6"/></linearGradient><linearGradient id="prefix__paint2_linear_708_57" x1="11.328" y1="8.203" x2="90.301" y2="10.761" gradientUnits="userSpaceOnUse" gradientTransform="matrix(.25859 0 0 .25859 -.93 -.88)"><stop stop-color="#69F0AE" id="prefix__stop7"/><stop offset="1" stop-color="#4FC3F7" id="prefix__stop8"/></linearGradient></defs></svg>