<svg width="32" height="32" fill="none" version="1.1" viewBox="0 0 32 32" xmlns="http://www.w3.org/2000/svg"><defs><linearGradient id="a" x1=".85" x2="62.62" y1="62.72" y2="1.81" gradientUnits="userSpaceOnUse"><stop stop-color="#FF9419" offset="0"/><stop stop-color="#FF021D" offset=".43"/><stop stop-color="#E600FF" offset=".99"/></linearGradient></defs><g transform="matrix(.4375 0 0 .4375 2 2)"><path d="m20.34 3.66-16.68 16.68c-2.34 2.34-3.66 5.52-3.66 8.84v29.82c0 2.76 2.24 5 5 5h29.82c3.32 0 6.49-1.32 8.84-3.66l16.68-16.68c2.34-2.34 3.66-5.52 3.66-8.84v-29.82c0-2.76-2.24-5-5-5h-29.82c-3.32 0-6.49 1.32-8.84 3.66z" fill="url(#a)"/><path d="m48 16h-40v40h40z" fill="#000"/><path d="m30 47h-17v4h17z" fill="#fff"/></g></svg>
