<svg xmlns="http://www.w3.org/2000/svg" viewBox="0 0 32 32"><rect width="28" height="11.4" x="2" y="10.3" fill="#f9ac00" rx=".923"/><path fill="none" stroke="#000" stroke-width="1.23" d="m27 18.6-6-6m.0513 6 6-6zm-15.8.564v-5.13l2.82 2.82 2.87-2.87v5.13m5.38-.769v-6zm-2.77-2.62 2.77 2.77 2.77-2.77"/><path fill="none" stroke="#d00" stroke-width=".41" d="m4.31 19.8.615.615.615-.615.615.615.615-.615.615.615L8 19.8l.615.615.615-.615.615.615.615-.615.615.615.615-.615.615.615.615-.615.615.615.615-.615.615.615.615-.615.615.615.615-.615.615.615.615-.615.615.615.615-.615.615.615.615-.615.615.615.615-.615.615.615.615-.615.615.615.615-.615.615.615.615-.615.615.615.615-.615.615.615.615-.615"/></svg>