<svg width="32" height="32" viewBox="0 0 32 32" fill="none" xmlns="http://www.w3.org/2000/svg">
<path fill-rule="evenodd" clip-rule="evenodd" d="M7.29297 4.41502C7.46865 4.53828 7.57352 4.74132 7.57352 4.95818V12.5542C7.57352 13.142 6.87399 13.4367 6.46434 13.0214L3.19082 9.70301C3.06865 9.57917 3 9.41106 3 9.23576V8.24875V2.66131C3 2.12907 3.5883 1.81563 4.01945 2.11815L7.29297 4.41502ZM16.4896 22.0781C16.237 22.3419 15.8209 22.345 15.5644 22.085L8.7361 15.1622C8.61395 15.0384 8.54531 14.8703 8.54531 14.695V6.53967C8.54531 6.00746 9.13356 5.69401 9.56472 5.99648L12.1016 7.77616C12.2102 7.85233 12.3391 7.89313 12.471 7.89313H19.626C19.758 7.89313 19.8869 7.85232 19.9955 7.77611L22.465 6.04328C22.8961 5.74073 23.4844 6.05417 23.4844 6.58642V14.5056C23.4844 14.6775 23.4184 14.8426 23.3004 14.9659L16.4896 22.0781ZM28.8159 9.38722C28.934 9.26398 29 9.09883 29 8.92689V8.31948V2.73178C29 2.19959 28.4118 1.88614 27.9806 2.18856L24.7393 4.46199C24.5636 4.58525 24.4587 4.78831 24.4587 5.00521V12.3109C24.4587 12.9034 25.1678 13.1959 25.5746 12.7712L28.8159 9.38722ZM3.20431 25.8601C3.07392 25.7354 3 25.5615 3 25.3796V19.8483C3 19.263 3.69449 18.9672 4.10558 19.3775L7.1117 22.3777C7.23714 22.5029 7.30727 22.6743 7.30611 22.8529L7.27097 28.2264C7.2672 28.803 6.58854 29.0979 6.1753 28.7025L3.20431 25.8601ZM16.2298 23.5528C16.2049 23.5785 16.175 23.5981 16.1422 23.6107C16.1093 23.6233 16.0744 23.6313 16.0394 23.6348C16.0329 23.6354 16.0264 23.6358 16.0198 23.636C15.9879 23.636 15.9563 23.6296 15.9268 23.6172C15.8973 23.6048 15.8705 23.5866 15.848 23.5637L14.3423 22.0375C13.9326 21.6223 13.2331 21.9169 13.2331 22.5048V27.1964C13.2331 27.3733 13.3031 27.5428 13.4272 27.6669L15.5717 29.8104C15.8278 30.0663 16.2396 30.0627 16.4914 29.8024L18.4171 27.8111C18.5365 27.6877 18.6034 27.5216 18.6034 27.3485V22.7C18.6034 22.1075 17.8943 21.815 17.4875 22.2397L16.2298 23.5528ZM25.7873 20.2108C25.3809 20.6304 24.6779 20.3408 24.674 19.7522L24.6433 15.0534C24.6422 14.8799 24.7083 14.713 24.8273 14.5887L27.8833 11.3978C28.2901 10.9731 28.9992 11.2656 28.9992 11.8581V16.625C28.9992 16.7982 28.9322 16.9645 28.8126 17.088L25.7873 20.2108ZM7.35398 15.2294C7.35513 15.0526 7.28639 14.8827 7.16317 14.7578L4.10917 11.662C3.69951 11.2467 3 11.5414 3 12.1293V16.975C3 17.1521 3.07007 17.3218 3.19447 17.4459L6.21745 20.4623C6.62708 20.871 7.31917 20.579 7.32296 19.9957L7.35398 15.2294ZM24.6912 22.6516C24.69 22.4769 24.7572 22.3088 24.8778 22.1843L27.886 19.0797C28.2939 18.6586 28.9993 18.952 28.9993 19.5427V25.4502C28.9993 25.6322 28.9253 25.8061 28.7949 25.9308L25.8231 28.7733C25.4098 29.1687 24.7312 28.8736 24.7275 28.2971L24.6912 22.6516Z" fill="black"/>
<path fill-rule="evenodd" clip-rule="evenodd" d="M7.29297 4.41502C7.46865 4.53828 7.57352 4.74132 7.57352 4.95818V12.5542C7.57352 13.142 6.87399 13.4367 6.46434 13.0214L3.19082 9.70301C3.06865 9.57917 3 9.41106 3 9.23576V8.24875V2.66131C3 2.12907 3.5883 1.81563 4.01945 2.11815L7.29297 4.41502ZM16.4896 22.0781C16.237 22.3419 15.8209 22.345 15.5644 22.085L8.7361 15.1622C8.61395 15.0384 8.54531 14.8703 8.54531 14.695V6.53967C8.54531 6.00746 9.13356 5.69401 9.56472 5.99648L12.1016 7.77616C12.2102 7.85233 12.3391 7.89313 12.471 7.89313H19.626C19.758 7.89313 19.8869 7.85232 19.9955 7.77611L22.465 6.04328C22.8961 5.74073 23.4844 6.05417 23.4844 6.58642V14.5056C23.4844 14.6775 23.4184 14.8426 23.3004 14.9659L16.4896 22.0781ZM28.8159 9.38722C28.934 9.26398 29 9.09883 29 8.92689V8.31948V2.73178C29 2.19959 28.4118 1.88614 27.9806 2.18856L24.7393 4.46199C24.5636 4.58525 24.4587 4.78831 24.4587 5.00521V12.3109C24.4587 12.9034 25.1678 13.1959 25.5746 12.7712L28.8159 9.38722ZM3.20431 25.8601C3.07392 25.7354 3 25.5615 3 25.3796V19.8483C3 19.263 3.69449 18.9672 4.10558 19.3775L7.1117 22.3777C7.23714 22.5029 7.30727 22.6743 7.30611 22.8529L7.27097 28.2264C7.2672 28.803 6.58854 29.0979 6.1753 28.7025L3.20431 25.8601ZM16.2298 23.5528C16.2049 23.5785 16.175 23.5981 16.1422 23.6107C16.1093 23.6233 16.0744 23.6313 16.0394 23.6348C16.0329 23.6354 16.0264 23.6358 16.0198 23.636C15.9879 23.636 15.9563 23.6296 15.9268 23.6172C15.8973 23.6048 15.8705 23.5866 15.848 23.5637L14.3423 22.0375C13.9326 21.6223 13.2331 21.9169 13.2331 22.5048V27.1964C13.2331 27.3733 13.3031 27.5428 13.4272 27.6669L15.5717 29.8104C15.8278 30.0663 16.2396 30.0627 16.4914 29.8024L18.4171 27.8111C18.5365 27.6877 18.6034 27.5216 18.6034 27.3485V22.7C18.6034 22.1075 17.8943 21.815 17.4875 22.2397L16.2298 23.5528ZM25.7873 20.2108C25.3809 20.6304 24.6779 20.3408 24.674 19.7522L24.6433 15.0534C24.6422 14.8799 24.7083 14.713 24.8273 14.5887L27.8833 11.3978C28.2901 10.9731 28.9992 11.2656 28.9992 11.8581V16.625C28.9992 16.7982 28.9322 16.9645 28.8126 17.088L25.7873 20.2108ZM7.35398 15.2294C7.35513 15.0526 7.28639 14.8827 7.16317 14.7578L4.10917 11.662C3.69951 11.2467 3 11.5414 3 12.1293V16.975C3 17.1521 3.07007 17.3218 3.19447 17.4459L6.21745 20.4623C6.62708 20.871 7.31917 20.579 7.32296 19.9957L7.35398 15.2294ZM24.6912 22.6516C24.69 22.4769 24.7572 22.3088 24.8778 22.1843L27.886 19.0797C28.2939 18.6586 28.9993 18.952 28.9993 19.5427V25.4502C28.9993 25.6322 28.9253 25.8061 28.7949 25.9308L25.8231 28.7733C25.4098 29.1687 24.7312 28.8736 24.7275 28.2971L24.6912 22.6516Z" fill="url(#paint0_linear_20_533)"/>
<defs>
<linearGradient id="paint0_linear_20_533" x1="16" y1="2" x2="16" y2="30" gradientUnits="userSpaceOnUse">
<stop stop-color="white"/>
<stop offset="1" stop-color="white" stop-opacity="0.7"/>
</linearGradient>
</defs>
</svg>
