<svg viewBox="0 0 32 32" xmlns="http://www.w3.org/2000/svg" xmlns:xlink="http://www.w3.org/1999/xlink"><linearGradient id="a" gradientTransform="matrix(-.864 0 0 .864 114.652 -122.008)" gradientUnits="userSpaceOnUse" x1="101.518" x2="104.659" y1="156.167" y2="156.167"><stop offset="0" stop-color="#e7ebef"/><stop offset="1" stop-color="#c4ce00"/></linearGradient><linearGradient id="b" gradientTransform="matrix(.827 .25 -.25 .827 -16.328 -120.87)" gradientUnits="userSpaceOnUse" x1="97.15" x2="94.915" y1="145.958" y2="150.144"><stop offset="0" stop-color="#fff"/><stop offset="1" stop-color="#fff"/></linearGradient><linearGradient id="c" gradientTransform="matrix(.827 .25 -.25 .827 -16.328 -120.87)" gradientUnits="userSpaceOnUse" x1="97.157" x2="94.919" y1="145.763" y2="149.95"><stop offset="0"/><stop offset="1" stop-color="#6a6a6a"/></linearGradient><linearGradient id="d" gradientTransform="matrix(.827 .25 -.25 .827 -15.884 -122.342)" x1="96.854" x2="94.619" xlink:href="#b" y1="146.76" y2="150.946"/><linearGradient id="e" gradientTransform="matrix(.827 .25 -.25 .827 -15.884 -122.342)" x1="96.858" x2="94.62" xlink:href="#c" y1="146.563" y2="150.75"/><linearGradient id="f" gradientTransform="matrix(.827 .25 -.25 .827 -15.439 -123.815)" x1="96.561" x2="94.325" xlink:href="#b" y1="147.56" y2="151.747"/><linearGradient id="g" gradientTransform="matrix(.827 .25 -.25 .827 -15.439 -123.815)" x1="96.567" x2="94.329" xlink:href="#c" y1="147.366" y2="151.551"/><linearGradient id="h" gradientTransform="matrix(.827 .25 -.25 .827 -14.995 -125.287)" x1="96.268" x2="94.032" xlink:href="#b" y1="148.363" y2="152.549"/><linearGradient id="i" gradientTransform="matrix(.827 .25 -.25 .827 -14.995 -125.287)" x1="96.271" x2="94.033" xlink:href="#c" y1="148.166" y2="152.353"/><linearGradient id="j" gradientTransform="matrix(.827 .25 -.25 .827 -14.55 -126.759)" x1="95.968" x2="93.733" xlink:href="#b" y1="149.165" y2="153.351"/><linearGradient id="k" gradientTransform="matrix(.827 .25 -.25 .827 -14.55 -126.759)" x1="95.973" x2="93.735" xlink:href="#c" y1="148.969" y2="153.155"/><radialGradient id="l" cx="7.979" cy="18.977" gradientTransform="matrix(.883 0 0 -.883 1.993 33.726)" gradientUnits="userSpaceOnUse" r="16.589"><stop offset="0" stop-color="#d3e9ff"/><stop offset=".155" stop-color="#d3e9ff"/><stop offset=".75" stop-color="#4074ae"/><stop offset="1" stop-color="#36486c"/></radialGradient><radialGradient id="m" cx="6.516" cy="20.953" gradientTransform="matrix(.883 0 0 -.883 1.993 33.726)" gradientUnits="userSpaceOnUse" r="24.073"><stop offset="0" stop-color="#fff"/><stop offset="1" stop-color="#fff" stop-opacity=".165"/></radialGradient><radialGradient id="n" cx="-34.843" cy="8.185" gradientTransform="matrix(-.712 .522 -.522 -.712 -14.216 39.691)" gradientUnits="userSpaceOnUse" r="3.717"><stop offset="0" stop-color="#fff"/><stop offset="1" stop-color="#fff" stop-opacity="0"/></radialGradient><radialGradient id="o" cx="-32.93" cy="32.736" gradientTransform="matrix(-.923 .677 -.677 -.923 8.75 79.208)" r="3.715" xlink:href="#n"/><radialGradient id="p" cx="-38.805" cy="12.746" gradientTransform="matrix(-.712 .522 -.522 -.712 -15.199 51.583)" r="3.719" xlink:href="#n"/><radialGradient id="q" cx="-30.753" cy="15.392" gradientTransform="matrix(-.768 .564 -.563 -.768 -2.965 44.687)" r="3.716" xlink:href="#n"/><linearGradient id="r" gradientTransform="matrix(.939 -.879 -.683 -.73 84.932 -29.87)" x1="-69.93" x2="-68.434" xlink:href="#n" y1="5.007" y2="8.617"/><linearGradient id="s" gradientTransform="matrix(1.131 .613 .477 -.879 21.386 69.845)" x1="-26.689" x2="-25.26" xlink:href="#n" y1="33.596" y2="37.999"/><linearGradient id="t" gradientTransform="matrix(.918 -.859 -.668 -.713 78.021 -32.775)" x1="-67.358" x2="-67.506" xlink:href="#n" y1="8.398" y2="5.619"/><linearGradient id="u" gradientTransform="matrix(-1.28 -.126 -.098 .995 -97.077 -90.763)" x1="-92.971" x2="-92.625" xlink:href="#n" y1="95.816" y2="98.588"/><path d="m11 4.113a.746.746 0 0 0 -.611.665v.056c0 .214.26 17.006.26 17.172a.841.841 0 0 0 .222.44c.166.166 9.417 7.2 9.582 7.312l.056.056c.166.167.277.167.665.112h.112c.832-.222 8.041-3.106 8.041-3.106.222-.112.277-.222.277-.5l.114-17.235a1.19 1.19 0 0 0 -.387-.832c-.056-.056-.056-.112-.112-.112-.333-.166-10.269-5.992-10.435-6.048a1.9 1.9 0 0 0 -.942.056c-.333.11-6.562 1.9-6.839 1.953zm.168.822a3.537 3.537 0 0 1 -.493-.333c.222.167 1.054.722 2 1.387-.561-.443-1.054-.776-1.441-1.054-.222-.166-.387-.277-.387-.277a3.4 3.4 0 0 0 .333.277z" fill="#00608b" stroke="#000" stroke-linecap="round" stroke-linejoin="round" stroke-width="1.28013"/><path d="m17.864 2.088.056-.056c-.332.112-6.7 2-6.963 2.087-.233.078-.564.373-.4.539s9.565 6.59 9.731 6.7a1.2 1.2 0 0 0 1 .056c.273-.056 7.538-2.439 7.925-2.551.387-.166.277-.5 0-.665-.331-.217-10.243-6.107-10.413-6.163a1.9 1.9 0 0 0 -.942.056z" fill="#00608b"/><path d="m29.5 26.316c0 .277-.056.387-.277.5 0 0-7.209 2.884-8.041 3.106a.345.345 0 0 1 -.5-.333c0-.222-.112-17.291-.112-17.512s.163-.333.44-.5c.277-.222 8.1-2.772 8.263-2.828.222-.053.387.11.387.387z" fill="#00608b"/><path d="m20.4 29.812.056.056c-.112-.166-9.437-7.277-9.6-7.443a.418.418 0 0 1 -.222-.387c0-.17-.314-16.883-.314-17.048-.056-.167.056-.5.277-.333s9.64 6.7 9.805 6.813a.682.682 0 0 1 .277.555c0 .222.068 17.18.068 17.458 0 .313-.179.443-.345.332z" fill="#00608b"/><path d="m29.328 8.645c-.056 0-8.143 2.772-8.614 2.772-.611 0-5.063-3.477-6.188-4.076 1.183 1.057 5.375 4.02 5.54 4.131.332.222.517.42.517.7l.1.674.054-.662c0-.277.163-.377.44-.489s7.153-2.5 8.151-2.828a.346.346 0 0 1 .333.277 1.215 1.215 0 0 0 -.5-.942c.166.163.222.44.166.44z" fill="#00608b"/><path d="m14.69 7.482a3.145 3.145 0 0 1 .5.333z" fill="#00608b"/><path d="m20.357 29.78c.327.128.37-.173.37-.173a.409.409 0 0 0 .412.332.675.675 0 0 1 -.782-.16z" fill="#00608b"/><path d="m10.7 4.741c-.3-.352.258-.628.258-.628-.693.2-.7.635-.662.881.009-.238.126-.382.4-.248z" fill="#00608b"/><path d="m26.946 12.282-2.718.998v.278l2.718-.943z" fill="url(#a)"/><path d="m26.946 12.282-2.718.998-.11-.166 2.994-1.053v.664l-.166-.11z" opacity=".22"/><path d="m24.118 13.779 2.994-1.054-.166-.11-2.718.943v-.278l-.11-.166z" fill="#fff" opacity=".72"/><path d="m29 24.943-7.023 2.442-.064.212 7.032-2.517.055-.138z" fill="url(#b)" opacity=".13"/><path d="m29.085 24.781-7.055 2.446-.064.212 7.051-2.539.067-.124z" fill="url(#c)" opacity=".13"/><path d="m29 24.061-7.021 2.439-.064.212 7.032-2.512.053-.14z" fill="url(#d)" opacity=".13"/><path d="m29.085 23.9-7.053 2.44-.064.212 7.051-2.535.067-.124z" fill="url(#e)" opacity=".13"/><path d="m29 23.176-7.02 2.442-.066.218 7.032-2.517.054-.138z" fill="url(#f)" opacity=".13"/><path d="m29.086 23.014-7.055 2.446-.064.212 7.051-2.535.067-.124z" fill="url(#g)" opacity=".13"/><path d="m29 22.3-7.023 2.442-.064.212 7.035-2.516z" fill="url(#h)" opacity=".13"/><path d="m29.086 22.13-7.055 2.446-.064.212 7.051-2.535.067-.124z" fill="url(#i)" opacity=".13"/><path d="m29 21.409-7.02 2.443-.064.212 7.032-2.517z" fill="url(#j)" opacity=".13"/><path d="m29.084 21.244-7.056 2.449-.064.212 7.051-2.535z" fill="url(#k)" opacity=".13"/><path d="m21.587 20.756a9.466 9.466 0 1 1 -9.468-9.465 9.467 9.467 0 0 1 9.468 9.465z" fill="url(#l)"/><path d="m12.12 30.469a9.71 9.71 0 1 1 9.711-9.713 9.71 9.71 0 0 1 -9.711 9.713zm0-18.934a9.222 9.222 0 1 0 9.222 9.222 9.233 9.233 0 0 0 -9.222-9.222z" fill="#39396c"/><g fill="#204a87" fill-opacity=".71345"><path d="m21.321 19.341-.261.3a5.579 5.579 0 0 0 -.523-.513l-.4.059-.367-.414v.506l.314.239.209.239.279-.319c.07.132.139.263.21.4v.4l-.314.355-.575.4-.435.434-.279-.319.139-.355-.279-.319-.471-1.006-.4-.454-.112.113.159.572.3.336a13.6 13.6 0 0 0 .558 1.421 7.954 7.954 0 0 0 1.011-.08v.277l-.418 1.026-.383.434-.314.672v1.105l.105.434-.175.2-.384.239-.4.336.332.375-.454.4.087.256-.68.77h-.457l-.383.239h-.245v-.319l-.1-.632c-.135-.4-.276-.79-.418-1.183 0-.29.018-.578.035-.868l.175-.4-.245-.474.018-.651-.332-.375.166-.542-.269-.306h-.475l-.159-.178-.471.3-.191-.218-.436.375-.885-1.011-.348-.829.314-.473-.175-.2.383-.908c.315-.391.643-.768.976-1.145l.593-.159.662-.08.454.119.645.65.226-.256.313-.039.593.2h.455l.314-.277.139-.2-.314-.2-.523-.039a5.26 5.26 0 0 0 -.453-.592l-.175.08-.07.513-.314-.355-.069-.4-.348-.276h-.14l.349.4-.139.355-.279.08.175-.355-.314-.159-.278-.319-.524.118-.069.159-.314.2-.175.434-.435.217-.192-.217h-.211v-.705l.454-.239h.348l-.07-.276-.277-.274.47-.1.261-.3.209-.355h.384l-.105-.276.244-.155v.316l.523.118.522-.437.035-.2.453-.319a3.469 3.469 0 0 0 -.488.08v-.354l.175-.4h-.175l-.383.355-.105.2.105.277-.175.473-.279-.159-.244-.276-.384.276-.139-.631.662-.434v-.239l.418-.276.662-.159.454.159.836.159-.209.239h-.454l.454.473.348-.4.106-.174a12.378 12.378 0 0 1 2.1 2.508 9.128 9.128 0 0 1 1.125 3.182z"/><path d="m12.687 13.835-.035.239.245.159.418-.276-.209-.239-.279.159-.139-.04"/><path d="m13.071 12.218-.907-.355-1.046.115-1.29.355-.244.239.8.552v.319l-.314.319.418.829.278-.159.349-.552a12 12 0 0 0 1.533-.592l.418-1.066"/><path d="m14.012 15.533-.139-.356-.245.08.07.434.314-.159"/><path d="m14.153 15.454-.07.474.383-.08.279-.276-.245-.239a6.436 6.436 0 0 0 -.279-.631h-.209v.239l.139.159v.355"/><path d="m8.992 22.951-.279-.551-.523-.12-.279-.749-.7.08-.592-.434-.628.552v.087a2.391 2.391 0 0 1 -.592-.167l-.139-.4v-.435l-.418.039q.053-.414.1-.828h-.242l-.244.319-.244.118-.345-.2-.035-.434.07-.473.523-.4h.414l.069-.239.523.118.383.474.07-.79.667-.548.244-.592.488-.2.279-.4.627-.119.311-.459h-.94l.593-.277h.418l.593-.2.07-.239-.21-.2-.244-.084.07-.239-.175-.355-.418.159.07-.319-.488-.277-.385.677.035.239-.383.159-.244.512-.1-.473-.662-.273-.1-.356.872-.513.383-.355.035-.434-.209-.119-.279-.04-.175.434s-.292.057-.367.076a9.963 9.963 0 0 0 -3.34 6.383 5.411 5.411 0 0 0 .326.567l.732.434.732.2.314.4.488.355.278-.042.21.1v.064l-.279.749-.21.319.07.159-.181.589.627 1.145.627.552.279.4-.033.813.21.473-.21.912s-.017-.006.01.085a4.207 4.207 0 0 0 1.19.64l.128-.1-.069-.2.279-.277.1-.277.454-.159.348-.868-.1-.239.244-.355.523-.119.279-.631-.07-.789.418-.592.07-.592c-.572-.284-1.14-.576-1.708-.868"/><path d="m8.225 13.993.348.239h.279v-.278l-.352-.16-.279.2"/><path d="m7.319 13.678-.175.434h.349l.175-.4c.151-.106.3-.214.453-.319l.349.119.7.473.349-.319-.384-.159-.175-.355-.662-.08-.035-.2-.314.08-.139.276-.175-.355-.069.159.035.4-.279.239"/><path d="m8.574 12.69.175-.159.349-.08a5.5 5.5 0 0 1 .732-.277l-.139-.239-.45.065-.213.212-.351.051-.312.147-.151.073-.092.124.453.08"/><path d="m9.167 16.44.21-.319-.314-.239.1.552"/></g><path d="m12.12 29.988a9.23 9.23 0 1 1 9.23-9.232 9.23 9.23 0 0 1 -9.23 9.232zm0-17.972a8.742 8.742 0 1 0 8.742 8.742 8.751 8.751 0 0 0 -8.742-8.742z" fill="url(#m)" opacity=".395604"/><path d="m3.665 17.6a3.28 3.28 0 0 0 5.353-3.791q-.031-.044-.064-.087a3.28 3.28 0 0 0 -5.29 3.878z" fill="url(#n)"/><path d="m5.494 16.26a1.012 1.012 0 0 0 1.631-1.2 1.012 1.012 0 0 0 -1.631 1.2z" fill="#fff"/><path d="m13.557 29.2a4.254 4.254 0 0 0 6.913-4.959l-.053-.072a4.254 4.254 0 0 0 -6.862 5.031z" fill="url(#o)"/><path d="m15.929 27.464a1.311 1.311 0 1 0 2.115-1.551 1.311 1.311 0 1 0 -2.115 1.551z" fill="#fff"/><path d="m3.121 24.179a3.281 3.281 0 1 0 5.293-3.879 3.28 3.28 0 0 0 -5.289 3.879z" fill="url(#p)"/><path d="m4.95 22.836a1.012 1.012 0 1 0 1.631-1.2 1.012 1.012 0 1 0 -1.631 1.2z" fill="#fff"/><path d="m9.138 17.623a3.54 3.54 0 0 0 5.728-4.161l-.019-.026a3.54 3.54 0 0 0 -5.728 4.164z" fill="url(#q)"/><path d="m11.112 16.179a1.091 1.091 0 0 0 1.767-1.279l-.007-.009a1.091 1.091 0 0 0 -1.767 1.281z" fill="#fff"/><path d="m9.355 30.351a3.053 3.053 0 0 1 -2.319-.866c-.9-.964-.956-2.594-.159-4.588a17.171 17.171 0 0 1 4.23-5.839c4.133-3.868 8.821-5.35 10.674-3.371.9.965.956 2.594.159 4.588a17.179 17.179 0 0 1 -4.231 5.839 17.178 17.178 0 0 1 -6.109 3.834 7.356 7.356 0 0 1 -2.245.403zm10.092-15.11c-2.152 0-5.26 1.521-8.05 4.131a16.739 16.739 0 0 0 -4.121 5.688c-.734 1.833-.707 3.3.075 4.134s2.245.956 4.12.348a16.739 16.739 0 0 0 5.946-3.74 16.739 16.739 0 0 0 4.123-5.683c.734-1.833.708-3.3-.076-4.134a2.662 2.662 0 0 0 -2.017-.744z" fill="url(#r)"/><path d="m16.529 27.048a16.446 16.446 0 0 1 -7.443-2.2c-4.975-2.7-7.866-6.677-6.574-9.06.63-1.162 2.152-1.734 4.3-1.6a17.171 17.171 0 0 1 6.875 2.166 17.173 17.173 0 0 1 5.569 4.58c1.275 1.727 1.635 3.318 1.005 4.48-.591 1.094-1.952 1.634-3.732 1.634zm-10.3-12.448c-1.674 0-2.847.488-3.34 1.4-1.157 2.132 1.714 5.937 6.4 8.476s9.439 2.869 10.6.736c.546-1.007.2-2.434-.972-4.019a16.739 16.739 0 0 0 -5.428-4.458 16.739 16.739 0 0 0 -6.7-2.111q-.289-.024-.56-.024z" fill="url(#s)"/><path d="m7.219 28.629a2.994 2.994 0 0 1 -2.272-.849c-.885-.946-.941-2.542-.159-4.494a16.788 16.788 0 0 1 4.135-5.707c4.043-3.783 8.632-5.231 10.441-3.293 1.813 1.938.066 6.418-3.977 10.2a16.786 16.786 0 0 1 -5.971 3.746 7.192 7.192 0 0 1 -2.197.397zm9.861-14.765c-2.1 0-5.132 1.486-7.855 4.035a16.34 16.34 0 0 0 -4.025 5.551c-.717 1.785-.69 3.215.072 4.029s2.188.934 4.015.338a16.35 16.35 0 0 0 5.806-3.652c3.8-3.555 5.574-7.853 3.957-9.58a2.6 2.6 0 0 0 -1.97-.721z" fill="url(#t)"/><path d="m13.206 24.911c-.685 0-1.393-.034-2.119-.106-5.634-.555-9.84-3.1-9.575-5.8.265-2.7 4.888-4.376 10.521-3.819s9.839 3.1 9.574 5.8c-.23 2.35-3.769 3.925-8.401 3.925zm-11.265-5.863c-.239 2.416 3.884 4.806 9.188 5.329s9.813-1.018 10.051-3.434-3.884-4.805-9.189-5.328-9.812 1.018-10.05 3.433z" fill="url(#u)"/></svg>