<svg viewBox="0 0 32 32" xmlns="http://www.w3.org/2000/svg" xmlns:xlink="http://www.w3.org/1999/xlink"><linearGradient id="a" gradientTransform="matrix(96.894 -151.7 -151.7 -96.894 -12016.61 -93843.838)" gradientUnits="userSpaceOnUse" x1="-403.546" x2="-403.376" y1="-337.031" y2="-337.031"><stop offset="0" stop-color="#fff"/><stop offset="1" stop-color="#e6e6e6"/></linearGradient><linearGradient id="b" gradientTransform="matrix(96.894 -151.7 -151.7 -96.894 -12016.61 -93843.838)" gradientUnits="userSpaceOnUse" x1="-403.546" x2="-403.376" y1="-337.033" y2="-337.033"><stop offset="0" stop-color="#949494"/><stop offset="1" stop-color="#8c8c8c"/></linearGradient><linearGradient id="c" x1="-403.546" x2="-403.376" xlink:href="#b" y1="-336.987" y2="-336.987"/><linearGradient id="d" gradientTransform="matrix(-54.933 -55.519 -55.519 54.933 -40949.55000000001 -4004.8)" gradientUnits="userSpaceOnUse" x1="-405.673" x2="-405.503" y1="-336.64" y2="-336.64"><stop offset="0" stop-color="#b3b3b3"/><stop offset="1" stop-color="#f2f2f2"/></linearGradient><path d="m24.037 2.072h-.003l5.564 5.801v22.055h-20.784v.072h20.856v-22.055z" fill="#949494"/><path d="m23.893 7.945v-5.873l5.633 5.873zm.072-5.945h-15.223v1.432h13.719v6.832h-13.719v19.664h20.858v-22.055l-5.564-5.8z" fill="url(#a)"/><path d="m23.893 2.072v5.873h5.633z" fill="url(#b)"/><path d="m23.965 2v5.873h5.633z" fill="#fff"/><path d="m8.742 3.432h-6.358v6.832h6.358z" fill="#949494"/><path d="m22.461 3.432h-13.719v6.832h13.719z" fill="url(#c)"/><path d="m2.33 3.378h20.077v6.832h-20.077z" fill="#030100"/><g fill="#fe7814"><path d="m10.003 7.309h-1.224v.834h1.371v.995h-2.287v-4.533h2.216v.989h-1.3v.733h1.224z"/><path d="m11.163 4.666a5.451 5.451 0 0 1 1.129-.094 1.432 1.432 0 0 1 1.078.356 1.557 1.557 0 0 1 .39 1.1 1.767 1.767 0 0 1 -.329 1.116 1.422 1.422 0 0 1 -1.139.471 1.893 1.893 0 0 1 -.223-.014v1.54h-.906zm.906 2a1.463 1.463 0 0 0 .207.014.564.564 0 0 0 .582-.632.5.5 0 0 0 -.516-.565 1.06 1.06 0 0 0 -.273.027z"/><path d="m14.777 7.928a1.676 1.676 0 0 0 .886.283c.314 0 .466-.141.466-.37s-.152-.35-.536-.525a1.448 1.448 0 0 1 -.957-1.365 1.321 1.321 0 0 1 1.364-1.42 1.748 1.748 0 0 1 .926.235l-.192.968a1.431 1.431 0 0 0 -.744-.215c-.278 0-.43.135-.43.336 0 .229.182.323.612.538a1.4 1.4 0 0 1 .891 1.365 1.357 1.357 0 0 1 -1.458 1.453 1.924 1.924 0 0 1 -1-.283z"/></g><path d="m12.608 17.582s5.392-4.282 9.559-.15.18 9.739.18 9.739z" fill="url(#d)"/><path d="m22.42 27.223-.147-.1c.039-.055 3.892-5.59-.17-9.623s-9.387.114-9.44.156l-.112-.141c.055-.043 5.5-4.287 9.678-.143s.231 9.795.191 9.851z" fill="#666"/><path d="m22.04 11.447h.18v11.866h-.18z" fill="#999" transform="matrix(.70583448 -.7083768 .7083768 .70583448 -5.802 20.788)"/><path d="m21.792 17.058h.749v.749h-.749z" fill="#fff"/><path d="m22.692 17.958h-1.051v-1.051h1.051zm-.749-.3h.447v-.447h-.447z" fill="#808080"/><path d="m12.233 17.208h.749v.749h-.749z" fill="#fff"/><path d="m13.133 18.108h-1.051v-1.051h1.051zm-.749-.3h.447v-.447h-.447z" fill="#808080"/><path d="m21.972 26.797h.749v.749h-.749z" fill="#fff"/><path d="m22.872 27.7h-1.051v-1.054h1.051zm-.749-.3h.447v-.447h-.447z" fill="#808080"/><path d="m17.552 12.818h.749v.749h-.749z" fill="#999"/><path d="m25.958 21.193h.749v.749h-.749z" fill="#999"/></svg>