<svg viewBox="0 0 32 32" xmlns="http://www.w3.org/2000/svg" xmlns:xlink="http://www.w3.org/1999/xlink"><linearGradient id="a" gradientTransform="matrix(1 0 0 -1 0 -59.52)" gradientUnits="userSpaceOnUse" x1="9.348" x2="9.348" y1="-80.996" y2="-78.788"><stop offset="0" stop-color="#fffa8f"/><stop offset="1" stop-color="#fb784b"/></linearGradient><linearGradient id="b" gradientTransform="matrix(1 0 0 -1 0 -59.52)" gradientUnits="userSpaceOnUse" x1="25.805" x2="26.62" y1="-71.31" y2="-70.64"><stop offset="0" stop-color="#5bcb99"/><stop offset="1" stop-color="#85a8e8"/></linearGradient><linearGradient id="c" gradientTransform="matrix(1 0 0 -1 0 -59.52)" gradientUnits="userSpaceOnUse" x1="10.383" x2="35.773" y1="-79.402" y2="-66.228"><stop offset="0" stop-color="#34e28b"/><stop offset="1"/></linearGradient><linearGradient id="d" gradientTransform="matrix(1 0 0 -1 0 -59.52)" gradientUnits="userSpaceOnUse" x1="15.046" x2="17.043" y1="-81.951" y2="-81.951"><stop offset="0" stop-color="#c297ff"/><stop offset="1" stop-color="#ae31bb"/></linearGradient><linearGradient id="e" gradientTransform="matrix(1 0 0 -1 0 -59.52)" gradientUnits="userSpaceOnUse" x1="6.91" x2="32.155" y1="-91.574" y2="-71.884"><stop offset="0"/><stop offset="1" stop-color="#d23de2"/></linearGradient><linearGradient id="f" gradientTransform="matrix(1 0 0 -1 0 -59.52)" gradientUnits="userSpaceOnUse" x1="25.576" x2="24.554" y1="-70.194" y2="-73.644"><stop offset="0"/><stop offset="1" stop-opacity="0"/></linearGradient><linearGradient id="g" gradientTransform="matrix(1 0 0 -1 0 -59.52)" gradientUnits="userSpaceOnUse" x1="16.239" x2="23.418" y1="-83.545" y2="-85.284"><stop offset="0" stop-color="#2db5f9"/><stop offset="1"/></linearGradient><linearGradient id="h" gradientTransform="matrix(1 0 0 -1 0 -59.52)" gradientUnits="userSpaceOnUse" x1="10.627" x2="5.884" y1="-65.468" y2="-78.497"><stop offset="0"/><stop offset=".21" stop-color="#48080a"/><stop offset=".42" stop-color="#891014"/><stop offset=".61" stop-color="#bc151b"/><stop offset=".78" stop-color="#e01a21"/><stop offset=".91" stop-color="#f71c24"/><stop offset="1" stop-color="#ff1d25"/></linearGradient><path d="m5.4 18.871.066.1a7.421 7.421 0 0 0 1.186 1.317 5.8 5.8 0 0 0 3.684 1.312h.253a8.638 8.638 0 0 0 2.706-.672 8.593 8.593 0 0 1 -1.165.106 4.726 4.726 0 0 1 -3.516-1.57 8.572 8.572 0 0 1 -3.214-.593z" fill="url(#a)"/><path d="m10.333 9.964a5.816 5.816 0 0 1 4.984 2.809 4.741 4.741 0 0 0 -4.517-1.039 12.313 12.313 0 0 0 4.521 1.044 3.644 3.644 0 0 0 -2.537-2.9c-3.411-1.391-3.884-1.116-4.746-2.562a3.852 3.852 0 0 0 .772 2.837 5.8 5.8 0 0 1 1.523-.189z" fill="#f15a24"/><path d="m12.787 9.876c-1.167-.465-1.988-.755-2.6-.977a4.307 4.307 0 0 0 .64 1.084 5.816 5.816 0 0 1 4.5 2.79 4.727 4.727 0 0 0 -2.631-1.2 13.929 13.929 0 0 0 2.56 1.2h.075a3.649 3.649 0 0 0 -2.544-2.897z" fill="#ed1c24"/><path d="m15.319 12.778h.013a3.5 3.5 0 0 0 -1.589-3.295c-2.77-2.148-3.309-2.348-3.443-3.483a3.564 3.564 0 0 0 -.117 2.9c.612.213 1.436.5 2.6.977a3.639 3.639 0 0 1 2.539 2.9z" fill="#c1272d"/><path d="m23.723 10.9a4.311 4.311 0 0 1 2.829 1.054 3.823 3.823 0 0 1 2.437 1.02 5.647 5.647 0 0 0 -6.431-1.974 5.285 5.285 0 0 0 -1.049.514 4.306 4.306 0 0 1 2.214-.614z" fill="url(#b)"/><path d="m23.723 10.9a4.3 4.3 0 0 0 -2.214.611l.119-.073c-3.315 1.952-7.38 7.952-13.014 8.026a4.73 4.73 0 0 0 3.516 1.56 8.6 8.6 0 0 0 1.165-.107c3.665-1.51 7.185-5.12 8.783-6.872a5.637 5.637 0 0 1 4.481-2.093 4.317 4.317 0 0 0 -2.836-1.052z" fill="url(#c)"/><path d="m15.164 22.532a2.7 2.7 0 0 0 -.118.747 2.849 2.849 0 0 0 .133.864 2.132 2.132 0 0 1 .7-1.888l.017-.064a2.614 2.614 0 0 1 1.143-1.473 5.014 5.014 0 0 0 -.51.2 2.672 2.672 0 0 0 -1.365 1.614z" fill="url(#d)"/><path d="m30 16.142a5.433 5.433 0 0 0 -1.018-3.172 3.818 3.818 0 0 0 -2.43-1.012 4.321 4.321 0 0 1 1.494 3.275 4.3 4.3 0 0 1 -2.236 4.009c-2.488 1.3-6.3.683-8.784 1.494a2.609 2.609 0 0 0 -1.141 1.47l-.017.064c.725-.641 2.157-1.095 4.949-.734a12.445 12.445 0 0 0 4.939-.064 5.284 5.284 0 0 0 3.233-2.179 5.434 5.434 0 0 0 1.011-3.151z" fill="url(#e)"/><path d="m30 16.142a5.433 5.433 0 0 0 -1.018-3.172 3.818 3.818 0 0 0 -2.43-1.012 4.321 4.321 0 0 1 1.494 3.275 4.3 4.3 0 0 1 -2.236 4.009c-2.488 1.3-6.3.683-8.784 1.494a2.609 2.609 0 0 0 -1.141 1.47l-.017.064c.725-.641 2.157-1.095 4.949-.734a12.445 12.445 0 0 0 4.939-.064 5.284 5.284 0 0 0 3.233-2.179 5.434 5.434 0 0 0 1.011-3.151z" fill="url(#f)" opacity=".49"/><path d="m17.641 25.465a2.62 2.62 0 0 1 -1.754-3.217 2.134 2.134 0 0 0 -.7 1.888 2.681 2.681 0 0 0 4.312 1.21 2.609 2.609 0 0 1 -1.858.119z" fill="url(#g)"/><path d="m18.55 25.276c.27-.792 1.149-2.012 2.09-1.453 0 0 .766.426.926-.783 0 0 .574 2.854-2.191 2.758 0 0 .623-.454.617-.921a3.174 3.174 0 0 1 -1.442.399z" fill="#2db5f9"/><path d="m19.655 23.528a1.006 1.006 0 0 1 1.034-.055c.391.173.882-.5.457-1.11 0 0 .028.626-.476.619a1.128 1.128 0 0 0 -1.015.546z" fill="#5fd2ff"/><path d="m22.432 14.446a20.938 20.938 0 0 1 -1.747 1.843c-.113.186.192.783.64.826s.105-.173.066-.384.135.134.677.053-.2-.281-.145-.554.608-.792.83-1.313.6 0 .407.408c-.077.162.617-.454.267-.924s-.608-.482-.995.045z" fill="#219058"/><path d="m10.8 11.734a5.333 5.333 0 0 1 -1.991-1.568 5.82 5.82 0 0 0 -3.413 8.7 8.543 8.543 0 0 0 3.215.6 4.742 4.742 0 0 1 2.189-7.732z" fill="url(#h)"/><path d="m10.813 9.983a8.047 8.047 0 0 0 1.876 1.593 4.728 4.728 0 0 1 2.628 1.2 5.818 5.818 0 0 0 -4.504-2.793z" fill="#f7b852"/><path d="m10.813 9.983c-.157-.013-.317-.019-.477-.019a5.815 5.815 0 0 0 -1.524.213 5.333 5.333 0 0 0 1.988 1.568 4.712 4.712 0 0 1 1.886-.156 8.349 8.349 0 0 1 -1.873-1.606z" fill="#ff8431"/><path d="m14.044 11.308a4.262 4.262 0 0 0 -1.564-.935 1.442 1.442 0 0 0 1.564.935z" fill="#fffb69"/><path d="m8.964 8.033a2.327 2.327 0 0 0 .853.48 2.424 2.424 0 0 1 -.117-.971c0-.023-.736-.013-.854-.617a1.614 1.614 0 0 0 .118 1.108z" fill="#c1272d"/><path d="m7.4 22.529a3.177 3.177 0 0 1 -.728.536 1.8 1.8 0 0 1 .2-.77 2.066 2.066 0 0 0 -.9.4 3.9 3.9 0 0 1 .145-.689 1.068 1.068 0 0 0 -.674.508v-.1c.045-.587.269-1.11 1.146-.979.027 0 .054.009.081.014a1.744 1.744 0 0 1 .86.331 2.424 2.424 0 0 1 .572.408c.315.292-.242.738-.702.341z" fill="#f15a24"/><path d="m4.084 17.473c.009.453-.665.312-.721-.388-.007-.089-.018-.17-.031-.246-.232-.365-.932-.339-.932-.339a1.854 1.854 0 0 1 .619-.36.863.863 0 0 0 -.819-.24 3.417 3.417 0 0 1 .553-.333 1.068 1.068 0 0 0 -.753-.161.863.863 0 0 1 .081-.062c.487-.33 1.033-.484 1.489.273a1.843 1.843 0 0 1 .09.162h-.016a3.984 3.984 0 0 1 .349 1 2.4 2.4 0 0 1 .091.694z" fill="#f15a24"/><path d="m10.961 12.11c-.815.179-.689.825-.689.825s.258-.311 1.676-.48a6.632 6.632 0 0 1 -.987-.345z" fill="#c1272d"/></svg>