<svg viewBox="0 0 32 32" xmlns="http://www.w3.org/2000/svg"><path d="m16.271 9.616a5.137 5.137 0 1 0 5.137 5.137 5.137 5.137 0 0 0 -5.137-5.137zm0 7.379a2.231 2.231 0 1 1 2.229-2.231 2.231 2.231 0 0 1 -2.229 2.236z" fill="#ffcf31"/><g fill="#e9ad0f"><path d="m16.271 20.176a5.423 5.423 0 1 1 5.423-5.423 5.429 5.429 0 0 1 -5.423 5.423zm0-10.275a4.852 4.852 0 1 0 4.852 4.852 4.858 4.858 0 0 0 -4.852-4.853zm0 7.379a2.517 2.517 0 1 1 2.517-2.517 2.52 2.52 0 0 1 -2.517 2.518zm0-4.463a1.946 1.946 0 1 0 1.946 1.946 1.948 1.948 0 0 0 -1.946-1.945z"/><path d="m16.582 9.616h-.623v-.361a4.364 4.364 0 0 0 -4.359-4.355h-9.6v-.626h9.6a4.987 4.987 0 0 1 4.982 4.982z"/><path d="m20.941 24.977a4.982 4.982 0 0 1 -4.982-4.982v-.095h.623v.094a4.359 4.359 0 0 0 4.359 4.359h8.617v.623h-8.617z"/><path d="m26.926 27.726-.441-.44 2.634-2.634-2.621-2.621.441-.44 3.061 3.061z"/></g></svg>