<svg viewBox="0 0 32 32" xmlns="http://www.w3.org/2000/svg"><path d="m29.517 12.25a.477.477 0 0 0 -.483.469v2.812h-.965v-2.812a.483.483 0 0 0 -.966 0v2.812h-3.4a7.641 7.641 0 0 0 -7.703-7.031 7.641 7.641 0 0 0 -7.708 7.031h-3.392v-2.812a.483.483 0 0 0 -.966 0v2.812h-.968v-2.812a.483.483 0 0 0 -.966 0v6.562a.483.483 0 0 0 .966 0v-2.812h.965v2.812a.483.483 0 0 0 .966 0v-2.812h3.395a7.641 7.641 0 0 0 7.708 7.031 7.641 7.641 0 0 0 7.708-7.031h3.4v2.812a.483.483 0 0 0 .966 0v-2.812h.965v2.812a.483.483 0 0 0 .966 0v-6.562a.476.476 0 0 0 -.488-.469zm-13.517 10.313a6.671 6.671 0 0 1 -6.759-6.563 6.67 6.67 0 0 1 6.759-6.562 6.67 6.67 0 0 1 6.759 6.562 6.671 6.671 0 0 1 -6.759 6.563zm3.611-9.7a.48.48 0 0 1 .01.092v3.516a.483.483 0 0 1 -.966 0v-2.386l-5.455 5.293a.49.49 0 0 1 -.682 0 .459.459 0 0 1 0-.663l5.451-5.293h-2.452a.469.469 0 1 1 0-.938h3.627a.438.438 0 0 1 .088.009.29.29 0 0 1 .042.012.45.45 0 0 1 .049.014l.045.023c.012.007.026.012.038.02a.581.581 0 0 1 .073.058.37.37 0 0 1 .06.071c.008.012.014.024.021.036s.017.029.024.045.01.031.015.047.009.029.012.042z" fill="#559"/></svg>