<svg viewBox="0 0 32 32" xmlns="http://www.w3.org/2000/svg"><path d="m15.604 2-13.034 4.648 1.988 17.234 11.046 6.118 11.046-6.118 1.988-17.234z" fill="#dd0031"/><path d="m15.604 2v3.108-.014 14.182 10.724l11.046-6.118 1.988-17.234z" fill="#c3002f"/><path d="m15.6 5.094-8.144 18.27h3.038l1.638-4.088h6.916l1.638 4.088h3.038zm2.38 11.662h-4.76l2.38-5.726z" fill="#fff"/><path d="m24.816 27.57a2.485 2.485 0 0 0 2.251 1.385c.945 0 1.549-.472 1.549-1.125 0-.782-.62-1.059-1.661-1.514l-.57-.245c-1.646-.7-2.74-1.58-2.74-3.437a3.048 3.048 0 0 1 3.341-3.014 3.372 3.372 0 0 1 3.245 1.827l-1.777 1.141a1.551 1.551 0 0 0 -1.468-.978.993.993 0 0 0 -1.092.978c0 .684.424.961 1.4 1.385l.57.244c1.942.831 3.036 1.683 3.036 3.583 0 2.054-1.614 3.179-3.78 3.179a4.383 4.383 0 0 1 -4.157-2.333zm-8.059.2c.358.636.684 1.173 1.468 1.173.75 0 1.222-.293 1.222-1.434v-7.759h2.281v7.788a3.1 3.1 0 0 1 -3.407 3.437 3.542 3.542 0 0 1 -3.421-2.083z" fill="#f5de19"/></svg>