<svg version="1.1" xmlns="http://www.w3.org/2000/svg" viewBox="0 0 32 32"><path fill="#F2C57E" d="M12.6,25.9l-1,4c0,0,9.1,0.2,12.9-2.9s2.9-2.9,2.9-2.9l-4-3.8L12.6,25.9z"/><path fill="#BD704B" d="M15.3,26.4c0,0,0.3,3,1.3,3.5c0,0-4.8,0.4-4.7-1l0.7-3.1L15.3,26.4z"/><path fill="#F2C57E" d="M11.9,19c0,0,0.9,1.2,1.1,3.1s-2,3.5,2.1,4.2c3.6,0.6,11.4-2.8,8.9-5.3c-1.6-1.6-2.7-2.9-2-6c0.8-3.1-3.5-5-3.5-5L11.9,19z"/><path fill="#BD704B" d="M21.4,18c0,0,1.4,3.5,5.8,6.2l0.4-0.8c0,0-3.7-1.1-5.7-5.5S21.4,18.1,21.4,18z M13.5,5.5c0,0-2.6,1.1-1.4,9c0.4,4.3-1.4,4-1.8,3.5c-0.4-0.4,1.2-2.6,0.3-3.3s-2-0.1-3.1-2.2c-1.4-2.8,0.2-1.6,1.5-4.1c0.9-1.8,1.6-2.8,2.4-2.7C12.2,5.9,12.8,4.9,13.5,5.5z"/><g><path fill="#F2C57E" d="M8.4,14.6c0,0,0.1,1.9-0.2,2.9c-0.6,1.5,0.9,3.6,2.9,1.4S8.5,14.6,8.4,14.6z"/><path fill="#F2C57E" d="M18.9,6c0,0-3.9-2-7.1,0.2s-0.6,1.9-2.6,4.8s-0.4,9.2,5.8,9.4s6-11.6,6-11.6S20.3,6.2,18.9,6z"/></g><path fill="#BD704B" d="M17.5,19c0,0-1.9,1.7-1.8,2.9c0.1,1.1,4.7,0.9,0.6,2c-1.1,0.3-1.1,2.2-0.2,2.5c0.9,0.3-3.4-0.4-3.4-1.8c0.1-1.4,0.6-4-0.8-4.9C11.8,19.8,15.5,20.9,17.5,19z"/><path fill="#AE4747" d="M12.6,24.5c0,0,3.7,1.8,7.6-0.3c2.9-1.5,3.8-3.2,3.5-3.6c0,0,0.7,0,1.4,1c0.5,0.8-0.3,3-4.5,4.8c-4,1.6-7.5,0.6-8.2-0.1C11.7,25.7,12.6,24.5,12.6,24.5z"/><path fill="#3F2419" d="M11.1,10.4L11.1,10.4c-0.2,0-0.4-0.2-0.4-0.4V8.9c0-0.2,0.2-0.4,0.4-0.4l0,0c0.2,0,0.4,0.2,0.4,0.4V10C11.5,10.2,11.3,10.4,11.1,10.4z"/><path fill="#F2C57E" d="M12.2,9.2c0,0-3.3,2.4-4.6,2.9S6.5,14,8.2,15.4S14.9,13.1,12.2,9.2z"/><path fill="#BD704B" d="M7.4,14.6c0,0,1.2,1.4,0.5,2.8c-0.5,1,0,2.9,1.9,2.4c0,0-2.2,0.1-1.3-2.3C8.8,16.6,8.8,15.2,7.4,14.6zM18,5.7c0,0,3.6,1.4,2.3,9.4c-0.5,4.3,1.6,3.9,2.1,3.6c0.5-0.4,0.5-1.8,1.5-2.4c1-0.8,3.5-3,2.2-5.2s-2.5-1.8-3.4-3.2c-0.8-1.3-1.2-1.5-2.1-1.5C20,6.3,19,5.2,18,5.7z"/><path fill="#3F2419" d="M17,10.9L17,10.9c-0.2,0-0.5-0.2-0.5-0.5V9.2c0-0.2,0.2-0.5,0.5-0.5l0,0c0.2,0,0.5,0.2,0.5,0.5v1.2C17.5,10.7,17.3,10.9,17,10.9z"/><g><path fill="#BD704B" d="M16.2,8.4c0,0-1.1-0.6-0.2-1.1c1.2-0.7,2.5,0.4,2.7,1c0,0-1.4-1.3-2.5-0.7C15.7,8,16.2,8.4,16.2,8.4zM11.5,7.5c0-0.1-0.1-0.2-0.2-0.2c-0.1-0.1-0.4-0.1-0.6-0.1s-0.4,0.2-0.5,0.3c0.1-0.2,0.2-0.4,0.5-0.6c0.1-0.1,0.2-0.1,0.4-0.1c0.2,0,0.5,0.1,0.7,0.2s0.3,0.4,0.3,0.7C12,8,11.9,8.2,11.7,8.3c-0.1,0-0.1,0.1-0.1,0c0,0,0.1-0.1,0.1-0.1c0.1-0.1,0.1-0.2,0-0.3C11.6,7.7,11.6,7.6,11.5,7.5z M9.8,17c0,0,1.1,3.7,5.2,2.8c3.7-0.9,4.3-4.1,4.3-4.1c0.2,0.8-0.8,5.1-5.9,4.7C9.7,20.1,9.8,17,9.8,17z"/><path fill="#BD704B" d="M10.5,18.8c0,0-0.1,1.5-2.2,0.7c0,0,1.1,1.2,2.4-0.1C11.2,18.8,10.5,18.8,10.5,18.8z M7.2,13.4C7,13.3,7,12.9,7.1,12.6C7.3,12.4,7.7,12.2,8,12c1.6-0.7,3.2-1.6,4.4-3c0,0-3.5,2.4-5.3,3.1C6.1,12.5,7.2,13.4,7.2,13.4z"/></g><path fill="#AE4747" d="M6.8,12.7c-0.6,0.6,0.3,2.2,1.4,2.7c1.2,0.6,3.1-1.6,2.7-2.2C10.6,12.4,8,11.6,6.8,12.7z"/><g><defs><path id="SVGID_1_" d="M6.8,12.7c-0.6,0.6,0.3,2.2,1.4,2.7c1.2,0.6,3.1-1.6,2.7-2.2C10.6,12.4,8,11.6,6.8,12.7z"/></defs><clipPath id="SVGID_00000101081630373333748610000002168392956271383697_"><use href="#SVGID_1_"  overflow="visible"/></clipPath><path clip-path="url(#SVGID_00000101081630373333748610000002168392956271383697_)" fill="#6A2525" d="M9.1,14.6c-0.1-0.1-0.1-0.4,0-0.5C9.1,14.1,9.2,14,9.2,14c0.1-0.1,0.2-0.1,0.2-0.1c0.4-0.1,0.9,0.1,1.2,0.5c0.2,0.2,0.1,0.5-0.1,0.6c-0.3,0.1-0.7,0.2-1.1,0.1C9.4,15,9.2,14.8,9.1,14.6z M7.9,14.6c0.1-0.1,0.1-0.4,0-0.5C7.9,14.1,7.8,14,7.8,14c-0.1-0.1-0.2-0.1-0.2-0.1c-0.3-0.1-0.7,0.1-1,0.5c-0.2,0.2-0.1,0.5,0.1,0.6c0.2,0.1,0.6,0.2,0.8,0.1C7.7,15.1,7.9,14.8,7.9,14.6z"/></g><path fill="#AE4747" d="M16,31C7.8,31,1,24.2,1,16S7.8,1,16,1s15,6.8,15,15S24.3,31,16,31z M16,3C8.9,3,3,8.9,3,16s5.9,13,13,13s13-5.9,13-13S23.2,3,16,3z"/><g><path fill="#BD704B" d="M11.8,5.9c0,0,4.5-1.9,7.9,1c0,0-0.1-1.3-2.6-1.9C15.6,4.8,12.6,4.8,11.8,5.9z"/><ellipse fill="#BD704B" cx="11.3" cy="17.3" rx="0.3" ry="0.2"/><ellipse fill="#BD704B" cx="13.3" cy="18.3" rx="0.3" ry="0.2"/><ellipse fill="#BD704B" cx="15" cy="18.2" rx="0.3" ry="0.2"/><ellipse fill="#BD704B" cx="14.2" cy="19.1" rx="0.3" ry="0.2"/><ellipse fill="#BD704B" cx="12" cy="18.6" rx="0.3" ry="0.2"/></g></svg>
