<svg xmlns="http://www.w3.org/2000/svg" viewBox="0 0 32 32"><title>file_type_haml@2x</title><g id="haml"><path d="M15.31,16,13.4,29.73a6.32,6.32,0,0,1-6-1.25l3.1-13.27L4.69,3.34a8,8,0,0,1,3.79-.65l5.14,9.7,8.91-7.58s3,1,3.27,2L15.31,16Z" style="fill:#ecdfa7"/><path d="M27,17.41a4.24,4.24,0,0,0-.54-.81A5.7,5.7,0,0,0,25,15.41a7.33,7.33,0,0,0-1.69-.79l-.23-.06-.19-.06c-.12,0-.23-.1-.33-.15a1.28,1.28,0,0,1-.46-.42A1.75,1.75,0,0,1,22,12.64a2.52,2.52,0,0,1,.1-.37c0-.12.08-.25.12-.4a2.69,2.69,0,0,0,.06-.6l.1-.08,1.25-1,.69-.58a2.2,2.2,0,0,1,.23.15s.65.06,1-.92l-.19-.12.12-.1.31-.27A.61.61,0,0,0,26,7.91a.53.53,0,0,0-.42.12l-.33.25-.23.17-2.87-2,.42-.35.6-.54.06-.06.17.12c.15.1.31.21.46.29l.92.5c.29.17.6.33.92.48a3.32,3.32,0,0,0,.48.21l.25.08.15,0h.1a.15.15,0,0,0,.12-.08v0a.08.08,0,0,1,0-.06V7a.11.11,0,0,0,0-.08s-.06-.08-.08-.12a1.59,1.59,0,0,0-.19-.19c-.12-.12-.27-.23-.4-.33s-.56-.4-.85-.58a7.55,7.55,0,0,0-.9-.5A3.32,3.32,0,0,0,23.91,5c-.08,0-.17-.06-.27-.08l-.17,0a.31.31,0,0,0-.12,0,.52.52,0,0,0-.17.1,1.6,1.6,0,0,0-.37.21l-.62.35L21.6,6l-.21-.15s-.87.08-.58.65l.08.08c-.83.69-1.65,1.4-2.46,2.08S16.79,10.08,16,10.81l-1.23,1.08a1.88,1.88,0,0,1-.21.19c0-.12-.1-.23-.15-.33l-.29-.62-.56-1.25c-.37-.83-.75-1.67-1.15-2.5L11.21,4.89,11,4.52h.25s.08-.69-.42-.81l-.21,0c-.19-.37-.35-.75-.54-1.12h0L10,2.29A.33.33,0,0,0,9.9,2.1l-.1,0L9.63,2a1.28,1.28,0,0,0-.27,0,4.06,4.06,0,0,0-.52,0,8.77,8.77,0,0,0-1,.19c-.33.08-.67.17-1,.27a3.27,3.27,0,0,0-.48.19l-.25.12L6,2.9,5.9,3s0,0,0,.06v.06h0v0a.16.16,0,0,0,.1.12s.06,0,.08,0l.15,0a1.19,1.19,0,0,0,.27,0,4.38,4.38,0,0,0,.52,0c.33,0,.69-.08,1-.15L9,3c.17,0,.33-.06.52-.1l.44.9c-1,.08-2.46.21-3.39.31l-.29-.54a.13.13,0,0,0-.15-.06.11.11,0,0,0-.06.15l.19.48a1.17,1.17,0,0,0-.5.12A1.83,1.83,0,0,0,6.4,5.64a3.57,3.57,0,0,1,.46-.12l.44,1L8.54,9.35l1.27,2.83c.42.94.85,1.87,1.29,2.83h0a0,0,0,0,0,0,0l-.19.62-.5,1.75c-.31,1.17-.6,2.35-.9,3.52L9.11,22.7l-.42,1.77c-.29,1.19-.56,2.35-.9,3.52a.13.13,0,0,0,0,.08,3.08,3.08,0,0,0,.6.56,6,6,0,0,0,.69.42,9.4,9.4,0,0,0,1.5.6,7,7,0,0,0,1.62.27,3.73,3.73,0,0,0,.83,0,6.55,6.55,0,0,0,.83-.17.25.25,0,0,0,.17-.19v0c.23-1.15.42-2.31.62-3.46l.58-3.48c.19-1.17.4-2.31.58-3.48l.06-.4s.06.1.1.15a4.14,4.14,0,0,0,.71.65,7.21,7.21,0,0,0,1.58.83,11.77,11.77,0,0,0,1.67.5,10.18,10.18,0,0,0,1.1.19,2.62,2.62,0,0,0-.25,1.21.11.11,0,0,0,.06.1h0a5.16,5.16,0,0,0,1.27.48,4.33,4.33,0,0,0,1.37.06,2.63,2.63,0,0,0,1.33-.56,2.82,2.82,0,0,0,.81-1.17l0,0v0l.06-.56v0a5.43,5.43,0,0,0,.62-.42,2.71,2.71,0,0,0,.65-.73,1.83,1.83,0,0,0,.25-1,2.56,2.56,0,0,0-.29-1Zm-.4-10.5Zm-1.48-1.1a7.12,7.12,0,0,1,.83.54c.12.1.27.19.4.31a1.26,1.26,0,0,1,.17.17l0,0h0l-.23-.06-.46-.19A7.13,7.13,0,0,1,25,6.14a5.61,5.61,0,0,1-.77-.62A2.5,2.5,0,0,1,24,5.27l.31.12a6.4,6.4,0,0,1,.85.42Zm-1.42-.92,0,0V5a0,0,0,0,0,0,0v0ZM8.88,2.56a5,5,0,0,1-.94.33,5.35,5.35,0,0,1-1,.17,4,4,0,0,1-.5,0,.78.78,0,0,1-.23,0H6.17s0,0,0,0,.15-.06.21-.1l.46-.17c.31-.08.65-.17,1-.23a8.4,8.4,0,0,1,1-.12,1.58,1.58,0,0,0,.31,0,1.54,1.54,0,0,1-.27.17Zm14.45,7.1-1.29,1-1.29,1c-.35.29-.71.58-1.06.85l.06-.08c.17-.23.33-.44.5-.65.35-.42.69-.85,1.06-1.25s.77-.79,1.17-1.15a4.87,4.87,0,0,1,.65-.5l.19-.12.58.44c-.17.15-.37.29-.56.44ZM8.06,7.1l.1.1a5.63,5.63,0,0,1,.58.65,2.21,2.21,0,0,1,.37.73.92.92,0,0,1-.06.62l0-.06-1-2Zm1,2.17A.72.72,0,0,0,9.23,9a.87.87,0,0,0,0-.46,1.7,1.7,0,0,0-.37-.83,4,4,0,0,0-1-.9l-.23-.48c-.15-.31-.29-.62-.46-.92.31-.08.69-.21,1.1-.31A20.31,20.31,0,0,1,9.36,7a8,8,0,0,1,.77,2.54c0,.21,0,.44,0,.67s0,.46,0,.69a7.61,7.61,0,0,0,.15,1L9.08,9.27Zm4.91,17a.9.9,0,0,1-.19.21.4.4,0,0,1-.33.1.36.36,0,0,1-.23-.23,1,1,0,0,1-.08-.35,2.28,2.28,0,0,1,0-.75,2.82,2.82,0,0,1,.23-.71,1.48,1.48,0,0,1,.21-.29.34.34,0,0,1,.29-.12c.1,0,.21.1.27.21a.74.74,0,0,1,.08.19L14,26c0,.1,0,.19,0,.27Zm1.23-7.19-.37,2.19a3.33,3.33,0,0,0-.1-.44c-.1-.4-.23-.77-.35-1.15a15.54,15.54,0,0,0-1-2.17c.23.77.5,1.5.77,2.25.15.37.27.75.4,1.1l.19.56s0,.06,0,.08c-.06.33-.12.67-.17,1l-.31,1.9s0-.08,0-.12A.49.49,0,0,0,14,24a.52.52,0,0,0-.42.12,1.94,1.94,0,0,0-.27.31,2,2,0,0,0-.27.75A2.13,2.13,0,0,0,13,26a1,1,0,0,0,.15.4.49.49,0,0,0,.33.27.43.43,0,0,0,.37-.17l.12-.15c-.15,1-.31,2-.46,3a2.73,2.73,0,0,1-.56.12c-.25,0-.5.06-.75.08a5.53,5.53,0,0,1-1.54-.15,7.85,7.85,0,0,1-1.5-.48A3.62,3.62,0,0,1,8,28c.31-1.15.67-2.29,1-3.44l.54-1.73L10,21.12c.35-1.17.71-2.33,1-3.5.17-.58.31-1.17.48-1.75A3.63,3.63,0,0,0,11.75,14v0s0,0,0,0a3.11,3.11,0,0,0-.25.29c-.23-.52-.48-1-.71-1.54a4.77,4.77,0,0,1-.17-.58,7.17,7.17,0,0,1-.21-1.31c0-.23,0-.44,0-.67s0-.46,0-.69a7.62,7.62,0,0,0-.83-2.6,12.59,12.59,0,0,0-1.1-1.83c.69-.19,1.42-.37,2-.48.08.19.19.35.27.54L11.94,7.6,13.19,10l.62,1.21.31.6c.08.12.12.27.21.37l-.81.75a.07.07,0,0,0,0,.1.07.07,0,0,0,.1,0c.44-.31.87-.65,1.31-1l1.31-1c.87-.67,1.73-1.33,2.58-2s1.71-1.35,2.56-2l0,0a24.32,24.32,0,0,0,1.87,1.65,6.16,6.16,0,0,0-.87.54,8.94,8.94,0,0,0-1.23,1.12,12.28,12.28,0,0,0-1,1.29,11.78,11.78,0,0,0-.65,1c-1.27,1-2.52,2.1-3.73,3.21a.13.13,0,0,0,0,.15.14.14,0,0,0,.15,0,9.13,9.13,0,0,0-.31,1.25c-.12.58-.25,1.17-.35,1.75Zm9.21,2.79a2.53,2.53,0,0,1-1,.46,3.77,3.77,0,0,1-1.19,0,7.36,7.36,0,0,1-1.15-.21,2,2,0,0,1,.17-1l.42,0a.11.11,0,0,0,.12-.08.12.12,0,0,0-.08-.17h0l-.29-.1a2.77,2.77,0,0,1,.29-.4c.12-.12.25-.25.37-.35a4,4,0,0,0,.85.4,2.88,2.88,0,0,0,1.12.1,1.55,1.55,0,0,0,1-.54,1.52,1.52,0,0,0,.35-.92.85.85,0,0,1,0,.4,4.51,4.51,0,0,1-.08.52l-.06.31-.31.19a.92.92,0,0,0-.33.35.75.75,0,0,0,.48,0s0,0,0,0,0,.1,0,.17a2.55,2.55,0,0,1-.71.85Zm2.06-2.73a2.2,2.2,0,0,1-.46.62,2.64,2.64,0,0,1-.27.23,2.59,2.59,0,0,0-.06-.56,1.53,1.53,0,0,0-.08-.29.53.53,0,0,0-.19-.25h0s0,0,0,0h0a2,2,0,0,1-.56.77A1.43,1.43,0,0,1,24,20a2.86,2.86,0,0,1-.92-.12c-.31-.08-.62-.19-.94-.29l0,0a.2.2,0,0,0-.19,0c-.17.21-.29.4-.44.6s-.19.31-.27.48l-1.1-.42c-.52-.21-1-.42-1.52-.67a7.65,7.65,0,0,1-1.4-.81,3,3,0,0,1-1-1.06v0a.41.41,0,0,0-.19-.19s0-.1,0-.15a7.37,7.37,0,0,0,.1-1.52c1.69-1.19,3.33-2.44,5-3.73l-.06.19a3.27,3.27,0,0,0-.15,1,2.09,2.09,0,0,0,1.21,1.81,2.83,2.83,0,0,0,.48.19l.25.06.21,0A6.64,6.64,0,0,1,24.6,16a6.16,6.16,0,0,1,1.31,1,2.28,2.28,0,0,1,.71,1.33,1.51,1.51,0,0,1-.12.79Z" style="fill:#3f3e29"/><path d="M12.67,23.91a2.16,2.16,0,0,0-.35.77,1.56,1.56,0,0,0-.06.42l0,.42a4.53,4.53,0,0,0,.15,1.67A7.65,7.65,0,0,0,13,28.7c-.08-.27-.19-.52-.27-.77s-.17-.52-.23-.79a5.89,5.89,0,0,1-.1-1.6l0-.42a2.55,2.55,0,0,1,0-.4,3.14,3.14,0,0,1,.29-.73,3,3,0,0,1,.52-.62,2.59,2.59,0,0,1,.67-.48,2.76,2.76,0,0,0-1.31,1Z" style="fill:#3f3e29"/></g></svg>