<svg xmlns="http://www.w3.org/2000/svg" viewBox="0 0 32 32"><title>file_type_dependabot</title><path d="M4,9.5,14.785,2.366a2.2,2.2,0,0,1,2.43,0L28,9.5a2.242,2.242,0,0,1,1,1.871v9.25A2.242,2.242,0,0,1,28,22.5L17.215,29.634a2.2,2.2,0,0,1-2.43,0L4,22.5a2.242,2.242,0,0,1-1-1.871v-9.25A2.242,2.242,0,0,1,4,9.5Z" style="fill:#0366d6"/><path d="M16.867,11.625V10.75H15.422a.29.29,0,0,1-.289-.291V8.417a.291.291,0,0,1,.289-.292h2.022a.29.29,0,0,1,.289.292v3.208h4.334a.871.871,0,0,1,.866.875V16h.578a.29.29,0,0,1,.289.292v2.917a.29.29,0,0,1-.289.291h-.578v1.75a.871.871,0,0,1-.866.876H9.933a.871.871,0,0,1-.866-.876V19.5H8.489a.29.29,0,0,1-.289-.291V16.292A.29.29,0,0,1,8.489,16h.578V12.5a.871.871,0,0,1,.866-.875Z" style="fill:#fff"/><path d="M18.352,18.521a.348.348,0,0,0,.5,0l1.817-1.834a.356.356,0,0,0,0-.5l-.373-.376a.346.346,0,0,0-.494,0l-1.2,1.209-.475-.48a.348.348,0,0,0-.5,0l-.372.376a.354.354,0,0,0,0,.5Z" style="fill:#0366d6"/><path d="M12.575,18.521a.346.346,0,0,0,.494,0l1.817-1.834a.356.356,0,0,0,0-.5l-.373-.376a.346.346,0,0,0-.494,0l-1.2,1.209-.475-.48a.348.348,0,0,0-.495,0l-.372.376a.356.356,0,0,0,0,.5Z" style="fill:#0366d6"/></svg>