<svg xmlns="http://www.w3.org/2000/svg" viewBox="0 0 32 32"><title>file_type_latino</title><path d="M31,2.6c-7.4,4-7.1,4.1-7.4,3.6C23.4,5.4,23.1,5.8,31,2.6ZM9,18.9c2-1.7,4.6-1.5,4.4-2.5C11.4,17.2,10.4,17,9,18.9Zm-2.1-.7c2.5-1.7,6.1-1.2,5.8-2.6C10.1,16.4,8.6,16.3,6.9,18.2ZM4.6,17.1c2.5-1.7,7.5-.8,7.6-2.5C8.7,15.7,7,15,4.6,17.1ZM2.4,15.9c2.5-1.7,9.2-.5,9.7-2.7C8.6,14.3,4.8,13.7,2.4,15.9ZM1.1,14.3c2.5-1.7,10.8-.2,11.2-2.4C8.9,12.9,3.5,12.1,1.1,14.3Zm6.4-3.1c2.5-.8,4.9.5,5-.5C10.4,10.5,9.5,9.9,7.5,11.2ZM5.4,9.6c3-.5,6.5,1.4,6.8,0C9.4,9.2,7.8,8.5,5.4,9.6ZM3.7,6.7c3.1-.1,7.3,3.6,7.9,1.9C8,8.1,6.8,5.7,3.7,6.7ZM3,4.8c3.9.2,7.5,4.5,8.8,2.7C8.3,6.3,6.6,4.3,3,4.8ZM2.9,2c4.3.9,7.5,5.9,9.8,4.8C10,5.4,6.7,1.9,2.9,2ZM13.7,19.9c-1.4-1.5,1.3-3.4,1.7-2.1.2.7-1.5,1.5-.9.4,0-.4-1.2.3-.5.9.9.7,2.5-.9,1.9-1.7-1.4-1.8-4.4,1.6-2.3,3.2,1.5,1.1,2.4-2.1,6.3-3.9C25.1,14,23.3,10,23.3,10c-.6-1.5-.6-.7-2.5,0-2.1.7-3.2,3.2-1.9,4.4,1.4,1.1,4.2-2.5,1.8-2.8-.5.3.9.5.1,1.5-1.5,1.7-2.9-1-.2-2.2,1.6-.6,1.8-1.2,2-.7,1.3,3.1-3.2,6.6-4,4.5-.2-.5-3.3,1.8-2.5,1.9C18.3,17,14.7,20.8,13.7,19.9Z" style="fill:#0ea5d5"/><path d="M23.4,5.6C21.5,4,17.4,6,19,9.8a4.068,4.068,0,0,0,4.7-3C23,6.1,23.4,5.6,23.4,5.6ZM20.6,7.2c-.1-.5.8-1.4,1.4-1.1C22.4,6.9,21,7.6,20.6,7.2Zm1.1-.8c.2.3-.3.6-.5.4C21.1,6.6,21.5,6.2,21.7,6.4ZM12.9,19.8c-.8.6-1.6,2.5-3.2,2.6C11.5,21.6,12.2,18.8,12.9,19.8Zm.2.6c-.6.6-1.6,3.6-3.6,4.2C11.6,23.2,12.5,19.4,13.1,20.4Zm.4.5c-.8.7-1.1,4.4-2.9,5.6C12.4,23.9,12.6,20,13.5,20.9Zm.4.2c-.4.9-.2,4.7-2,7.3C13.6,24,12.7,20.5,13.9,21.1Zm.5,0c.1,1.2.4,6.6-.5,8.8C14.8,26,13,21.2,14.4,21.1Zm-1.6-6.4c1.5,5,5.4-2,5.9-4.6C14.1,12.8,11.9,10,12.8,14.7Zm1.6-.9c-.5-2.3.8-1,3.2-2.3C17.3,12.7,15.2,16.3,14.4,13.8ZM12.2,7.9c-.8,1.4.9,1.6,1,3a11.076,11.076,0,0,0,5.5-1.1C13.5,8.8,13.9,5.4,12.2,7.9ZM14,10.3c-.2-.7-.9-.9-.5-1.4.8-1.1.7.6,3.4,1A7.282,7.282,0,0,1,14,10.3Z" style="fill:#0572b5"/></svg>