<svg xmlns="http://www.w3.org/2000/svg" viewBox="0 0 32 32"><title>file_type_latino</title><path d="M2.005,14.631c1.769-1.685,6.242-1.379,10.279-2.237-.9,2.447-6.583.435-10.284,2.329Z" style="fill:#0ea5d5"/><path d="M18.364,13.921c.562-2.132,1.265-3.127,3.776-4.294.119-.075,0-.028.395.078a4.727,4.727,0,0,1-.228,4.7c-1.65,2.4-4.71,2.9-7.159,5.892-.539.13-2.187,1.041-1.888-1.872a2.4,2.4,0,0,1,1.08-1.355,23,23,0,0,0,3.134-2" style="fill:#0ea5d5"/><path d="M18.827,10.194a8.875,8.875,0,0,1-.243-.96,3.053,3.053,0,0,1,1.568-3.091,2.937,2.937,0,0,1,1.523-.32c.069.1.791-.174,1.261.64a.705.705,0,0,0,.137.747.377.377,0,0,1,.046.517,3.888,3.888,0,0,1-4.287,2.467M20.6,7.808a1.009,1.009,0,0,0,.974-.7c.094-.335-.121-.559-.472-.472a1.142,1.142,0,0,0-.807.653c-.228.457-.093.467.3.517" style="fill:#0572b5"/><path d="M18.7,10.618c-.26,1.208-4.089,9.914-5.741,3.743.068-.392-.37-2.152,1.007-2.253a14.627,14.627,0,0,0,4.523-1.462.524.524,0,0,0,.167-.061c.015.015.031.015.046.031" style="fill:#0572b5"/><path d="M18.437,10.382a12.586,12.586,0,0,1-5.056.959.176.176,0,0,1-.121-.107c.069-1.128-1.826-1.139-.472-3.182a.778.778,0,0,1,1.173-.076,9.7,9.7,0,0,0,4.339,2.3.3.3,0,0,1,.122.045.112.112,0,0,1,.015.062" style="fill:#0572b5"/><path d="M3.205,16.073c1.673-1.687,5.253-1.573,8.984-2.5-.7,2.207-5.554.87-8.939,2.564a.193.193,0,0,0-.045-.061" style="fill:#0ea5d5"/><path d="M4.186,3.171c2.605-.25,4.671,2.339,8.679,4.217-2.224,1.093-5-3.264-8.681-4.217" style="fill:#0ea5d5"/><path d="M4.031,5.708c2.493-.391,3.838,1.09,7.857,2.547-.769,1.421-4.713-2.114-7.859-2.5v-.05" style="fill:#0ea5d5"/><path d="M12.394,14.767c-.761,2-4.371.839-7.112,2.543-.011-.015-.011-.032-.03-.032,1.086-1.412,3.945-1.553,7.142-2.51" style="fill:#0ea5d5"/><path d="M30,3.692c-1.425.81-3.549,1.9-6.015,3.258-.122.077-.259.152-.381.214a.28.28,0,0,1-.381-.062.622.622,0,0,1-.075-.684.264.264,0,0,1,.137-.094c1.329-.527,4.342-1.748,6.563-2.634l.137-.045c0,.014.015.03.015.045" style="fill:#0ea5d5"/><path d="M5.122,7.674c1.95-.636,3.58.709,6.75,1.634C10.846,10.466,8.086,7.87,5.121,7.679" style="fill:#0ea5d5"/><path d="M13.961,29.075c1.01-1.965-1.339-5.743.552-8.13-.7,1.866,1.006,4.884-.549,8.134Z" style="fill:#0572b5"/><path d="M12.21,27.923c.85-.672.031-5.109,1.812-7.167-.613,1.049-.144,4.744-1.781,7.187,0-.015-.016-.015-.031-.015" style="fill:#0572b5"/><path d="M7.439,18.282c1.391-1.456,2.162-1.609,5.394-2.543-.208,1.47-2.9.813-5.361,2.57,0-.016-.016-.016-.031-.031" style="fill:#0ea5d5"/><path d="M6.608,10.235a7.385,7.385,0,0,1,5.512.17c-.638.674-2.685-.626-5.5-.106,0-.031-.015-.046-.015-.061" style="fill:#0ea5d5"/><path d="M10.892,25.924c.769-.987,1-2.513,2.152-5.054.085-.017.064-.432.686-.335C12.755,21.7,13.021,23.869,10.892,25.924Z" style="fill:#0572b5"/><path d="M9.493,18.889c.692-1.038,2.1-1.7,4.1-2.237-.114,1.119-1.93.826-4.1,2.237" style="fill:#0ea5d5"/><path d="M8.453,11.665c.587-.468,2.05-.831,4.206-.564.05.183.013.006-.244.442-.847.17-2.162-.283-3.959.122" style="fill:#0ea5d5"/><path d="M9.941,24.169c1.39-.667,1.421-3.216,3.4-4-.919.916-.894,2.309-3.337,4.022-.015.015-.03,0-.061-.016" style="fill:#0572b5"/><path d="M13.016,19.764c-.8.582-.983,1.844-2.986,2.436.689.134,1.475-2.313,2.984-2.436" style="fill:#0572b5"/></svg>