<svg xmlns="http://www.w3.org/2000/svg" viewBox="0 0 32 32"><title>file_type_hygen</title><rect x="2.096" y="2.096" width="27.566" height="27.566" rx="6.169" style="fill:#f722b1"/><rect x="18.771" y="21.759" width="6.554" height="1.928" style="fill:#fff06c"/><rect x="18.771" y="24.651" width="3.084" height="1.928" style="fill:#bcfe25"/><rect x="22.434" y="24.651" width="1.157" height="1.928" style="fill:#fff"/><path d="M8.169,2H23.783a6.169,6.169,0,0,1,6.169,6.169v7.807L15.976,29.952H8.169A6.169,6.169,0,0,1,2,23.783V8.169A6.169,6.169,0,0,1,8.169,2Z" style="fill:#c9c9c9;fill-rule:evenodd"/><path d="M16.169,30V22.337a6.167,6.167,0,0,1,6.168-6.168H30Z" style="fill:#fff;fill-rule:evenodd"/><rect x="9.133" y="6.819" width="9.446" height="1.928" style="fill:#e0e0e0"/><rect x="19.542" y="6.819" width="3.373" height="1.928" style="fill:#e0e0e0"/><rect x="6.434" y="6.819" width="1.735" height="1.928" style="fill:#e0e0e0"/><rect x="9.133" y="21.759" width="6.747" height="1.928" style="fill:#e0e0e0"/><rect x="6.434" y="21.759" width="1.735" height="1.928" style="fill:#e0e0e0"/><rect x="12.024" y="24.651" width="3.855" height="1.928" style="fill:#e0e0e0"/><rect x="6.434" y="24.651" width="4.627" height="1.928" style="fill:#e0e0e0"/><rect x="11.735" y="10" width="5.301" height="1.928" style="fill:#e0e0e0"/><rect x="6.434" y="10" width="4.241" height="1.928" style="fill:#e0e0e0"/><rect x="6.434" y="13.277" width="6.458" height="1.928" style="fill:#e0e0e0"/></svg>