<svg version="1.1" viewBox="0 0 32 32" xmlns="http://www.w3.org/2000/svg"><title>file_type_tamagui</title><g id="a"><polygon points="15.98 28.09 17.85 28.09 19.73 26.22 19.73 24.35 23.48 20.61 23.48 16.88 25.35 15.01 27.23 15.01 29.1 13.14 29.1 9.4 27.23 7.53 23.48 7.53 19.73 3.8 10.36 3.8 4.73 9.4 4.73 15.01 2.86 16.88 2.86 20.61 10.36 28.09 12.23 28.09 14.11 26.22 15.98 26.22" fill="#ff8ee8"/><g fill="#671e65"><rect x="9.43" y="2.93" width="11.29" height="1.86"/><rect x="7.57" y="4.79" width="1.86" height="1.86"/><rect x="5.72" y="6.64" width="1.86" height="1.86"/><rect x="3.86" y="8.5" width="1.86" height="7.43"/><rect x="2" y="15.93" width="1.86" height="5.57"/><rect x="3.86" y="21.5" width="1.86" height="1.86"/><rect x="5.72" y="23.36" width="1.86" height="1.86"/><rect x="7.57" y="25.36" width="1.86" height="1.86"/><rect x="9.43" y="27.21" width="3.71" height="1.86"/><polygon points="13.14 25.36 13.14 27.21 15 27.21 15 27.22 15 29.07 18.72 29.07 18.72 27.21 16.86 27.21 16.86 25.36"/><rect x="18.72" y="23.36" width="2" height="3.86"/><rect x="20.72" y="21.5" width="1.86" height="1.86"/><rect x="22.57" y="15.93" width="1.86" height="5.57"/><rect x="24.43" y="14.07" width="3.71" height="1.86"/><polygon points="28.14 10.36 22.57 10.36 22.57 12.21 28.14 12.21 28.14 12.22 28.14 14.07 30 14.07 30 8.5 28.14 8.5"/><rect x="22.57" y="6.64" width="5.57" height="1.86"/><rect x="20.72" y="4.79" width="1.86" height="1.86"/><rect x="18.86" y="6.64" width="1.86" height="1.86"/><rect x="13.14" y="8.5" width="1.86" height="1.86"/><polygon points="13.14 15.93 13.14 17.78 13.14 17.79 13.14 19.64 15 19.64 15 17.79 15 17.78 15 15.93"/><rect x="11.29" y="19.64" width="1.86" height="1.86"/><polygon points="9.43 17.78 9.43 17.79 9.43 19.64 11.29 19.64 11.29 17.79 11.29 17.78 11.29 15.93 9.43 15.93"/></g></g></svg>
