<svg xmlns="http://www.w3.org/2000/svg" viewBox="0 0 40 40"><title>file_type_vapor</title><path d="M4.345,9H14.9L9.618,20Zm21.1,0h10.55L30.718,20Z" style="fill:#e9f9fd;fill-opacity:0.10000000149011612"/><path d="M9.62,20H20.169L14.894,31Z" style="fill:#25c4f2;fill-opacity:0.2199999988079071"/><path d="M20.169,20h10.55L25.444,31Z" style="fill:#25c4f2;fill-opacity:0.20000000298023224"/><path d="M20.169,20H9.619L14.894,9Z" style="fill:#25c4f2;fill-opacity:0.4000000059604645"/><path d="M30.718,20H20.168L25.444,9Z" style="fill:#25c4f2;fill-opacity:0.4000000059604645"/><path d="M25.444,31H14.894l5.275-11Z" style="fill:#25c4f2;fill-opacity:0.5"/><path d="M3.494,8.467A1,1,0,0,1,4.34,8H14.89a1,1,0,0,1,.9.568l4.373,9.12,4.373-9.12A1,1,0,0,1,25.44,8H35.99a1,1,0,0,1,.9,1.432L26.345,31.424A1,1,0,0,1,25.44,32H14.89a1,1,0,0,1-.9-.568l-10.55-22A1,1,0,0,1,3.494,8.467Zm21.95,2.846L29.13,19H21.758ZM5.934,10,9.62,17.687,13.306,10H5.934Zm8.96,1.313L18.58,19H11.208ZM27.032,10l3.686,7.687L34.4,10ZM25.444,28.687,21.758,21H29.13ZM23.855,30l-3.686-7.687L16.483,30Zm-8.96-1.313L11.207,21h7.372l-3.686,7.687Z" style="fill:#25c4f2"/></svg>