<svg viewBox="0 0 32 32" xmlns="http://www.w3.org/2000/svg">
	<title>file_type_robotframework</title>
	<circle cx="16" cy="16" r="14" style="fill:#FFF"/>
	<path style=" stroke:none;fill-rule:nonzero;fill:rgb(0%,0%,0%);fill-opacity:1;" d="M 10.386719 14.601562 C 10.386719 13.097656 11.609375 11.875 13.113281 11.875 C 14.617188 11.875 15.839844 13.097656 15.839844 14.601562 C 15.839844 15.152344 15.398438 15.59375 14.851562 15.59375 C 14.304688 15.59375 13.859375 15.152344 13.859375 14.601562 C 13.859375 14.191406 13.527344 13.859375 13.113281 13.859375 C 12.699219 13.859375 12.367188 14.191406 12.367188 14.601562 C 12.367188 15.152344 11.921875 15.59375 11.375 15.59375 C 10.828125 15.59375 10.386719 15.152344 10.386719 14.601562 M 21.683594 19.1875 C 21.683594 19.738281 21.238281 20.179688 20.691406 20.179688 L 11.507812 20.179688 C 10.960938 20.179688 10.519531 19.738281 10.519531 19.1875 C 10.519531 18.640625 10.960938 18.195312 11.507812 18.195312 L 20.691406 18.195312 C 21.238281 18.195312 21.683594 18.640625 21.683594 19.1875 M 17.390625 15.160156 C 17.085938 14.703125 17.207031 14.089844 17.660156 13.785156 L 19.953125 12.234375 C 20.40625 11.921875 21.023438 12.046875 21.328125 12.496094 C 21.636719 12.949219 21.515625 13.566406 21.0625 13.871094 L 18.765625 15.421875 C 18.597656 15.539062 18.402344 15.59375 18.214844 15.59375 C 17.894531 15.59375 17.582031 15.441406 17.390625 15.160156 M 23.679688 21.253906 C 23.679688 21.441406 23.605469 21.621094 23.472656 21.753906 L 21.765625 23.460938 C 21.632812 23.59375 21.453125 23.667969 21.265625 23.667969 L 10.804688 23.667969 C 10.617188 23.667969 10.4375 23.59375 10.304688 23.460938 L 8.597656 21.753906 C 8.464844 21.621094 8.390625 21.441406 8.390625 21.253906 L 8.390625 10.800781 C 8.390625 10.613281 8.464844 10.433594 8.597656 10.300781 L 10.304688 8.59375 C 10.4375 8.460938 10.617188 8.386719 10.804688 8.386719 L 21.265625 8.386719 C 21.453125 8.386719 21.632812 8.460938 21.765625 8.59375 L 23.472656 10.300781 C 23.605469 10.433594 23.679688 10.613281 23.679688 10.800781 Z M 25.128906 9.160156 L 22.902344 6.929688 C 22.566406 6.59375 22.105469 6.402344 21.628906 6.402344 L 10.4375 6.402344 C 9.960938 6.402344 9.5 6.59375 9.164062 6.929688 L 6.9375 9.160156 C 6.601562 9.496094 6.410156 9.953125 6.410156 10.429688 L 6.410156 21.621094 C 6.410156 22.101562 6.601562 22.558594 6.9375 22.894531 L 9.164062 25.125 C 9.503906 25.460938 9.960938 25.648438 10.4375 25.648438 L 21.628906 25.648438 C 22.105469 25.648438 22.566406 25.460938 22.902344 25.125 L 25.128906 22.894531 C 25.46875 22.558594 25.65625 22.101562 25.65625 21.621094 L 25.65625 10.433594 C 25.65625 9.953125 25.46875 9.496094 25.128906 9.160156 "/>
</svg>
