<svg xmlns="http://www.w3.org/2000/svg" viewBox="0 0 32 32"><title>file_type_nearly</title><path d="M29.517,12.25a.477.477,0,0,0-.483.469v2.812h-.965V12.719a.483.483,0,0,0-.966,0v2.812h-3.4A7.641,7.641,0,0,0,16,8.5a7.641,7.641,0,0,0-7.708,7.031H4.9V12.719a.483.483,0,0,0-.966,0v2.812H2.966V12.719a.483.483,0,0,0-.966,0v6.562a.483.483,0,0,0,.966,0V16.469h.965v2.812a.483.483,0,0,0,.966,0V16.469H8.292A7.641,7.641,0,0,0,16,23.5a7.641,7.641,0,0,0,7.708-7.031h3.4v2.812a.483.483,0,0,0,.966,0V16.469h.965v2.812a.483.483,0,0,0,.966,0V12.719A.476.476,0,0,0,29.517,12.25ZM16,22.563A6.671,6.671,0,0,1,9.241,16,6.67,6.67,0,0,1,16,9.438,6.67,6.67,0,0,1,22.759,16,6.671,6.671,0,0,1,16,22.563Zm3.611-9.7a.48.48,0,0,1,.01.092v3.516a.483.483,0,0,1-.966,0V14.085L13.2,19.378a.49.49,0,0,1-.682,0,.459.459,0,0,1,0-.663l5.451-5.293H15.517a.469.469,0,1,1,0-.938h3.627a.438.438,0,0,1,.088.009.29.29,0,0,1,.042.012.45.45,0,0,1,.049.014l.045.023c.012.007.026.012.038.02a.581.581,0,0,1,.073.058h0a.37.37,0,0,1,.06.071c.008.012.014.024.021.036s.017.029.024.045.01.031.015.047S19.608,12.848,19.611,12.861Z" style="fill:#559"/></svg>