<svg xmlns="http://www.w3.org/2000/svg" viewBox="0 0 32 32"><title>file_type_gltf</title><path fill="#86c540" d="M29.3 12.91v.62h-.2v-.8h.31l.14.53.14-.54H30v.8h-.2v-.6l-.17.6h-.16zm-.74.62v-.63h-.24v-.18H29v.18h-.24v.63zm-13.62-2.44h1.07v8.1h-1.07zm9.62 8.11h-1.53v-6.49h4.73v1.32h-3.2v1.21h2.8v1.32h-2.8zm-4.26 0h-1.53v-5.17h-1.92V12.7h5.38v1.32H20.3zm-6.5 2.44a6.42 6.42 0 0 1-3.2 1.45c1 .18 2.05.27 3.14.27 4.22 0 7.92-1.47 9.99-3.57-1.9 1.25-4.73 1.96-7.89 1.96-.75 0-1.33-.02-2.03-.1zm-.49-.61c.49-.54.74-1.33.74-2.4v-5.95h-1.02v.93h-.01a1.9 1.9 0 0 0-.8-.81 2.89 2.89 0 0 0-2.55.05c-.39.21-.7.48-.93.82-.24.34-.4.7-.5 1.1a4.88 4.88 0 0 0 .03 2.46c.12.4.3.75.54 1.05a2.62 2.62 0 0 0 2.18.98 2.54 2.54 0 0 0 1.18-.3 1.96 1.96 0 0 0 .84-.88h.02v.43c0 .37-.03.7-.1 1-.08.3-.19.56-.35.78-.16.21-.36.38-.6.5-.25.12-.54.18-.9.18a2.88 2.88 0 0 1-.96-.18h-.02c-2.76-1.04-4.58-2.8-4.58-4.79 0-3.18 4.62-5.76 10.32-5.76 3.17 0 6.02.73 7.91 1.99-2.06-2.11-5.77-3.6-10-3.6C7.26 8.64 2 11.94 2 16c0 2.77 2.45 5.19 6.07 6.44 2.9.1 4.37-.44 5.24-1.41zm-.43-4.33c-.08.3-.19.58-.34.82a1.73 1.73 0 0 1-1.5.8c-.34 0-.64-.08-.87-.23a1.7 1.7 0 0 1-.57-.57 2.5 2.5 0 0 1-.3-.8 4.5 4.5 0 0 1 .02-1.78c.07-.28.18-.54.34-.76a1.71 1.71 0 0 1 1.48-.71c.33 0 .62.06.85.2.23.13.43.31.57.53.15.23.25.48.32.75a3.58 3.58 0 0 1 0 1.75z"/></svg>