<svg viewBox="0 0 32 32" xmlns="http://www.w3.org/2000/svg" xmlns:xlink="http://www.w3.org/1999/xlink"><linearGradient id="a" gradientUnits="userSpaceOnUse" x1="17.65" x2="21.099" y1="26.056" y2="26.056"><stop offset="0" stop-color="#4d4d4d"/><stop offset=".5" stop-color="#fff"/><stop offset="1" stop-color="#4d4d4d"/></linearGradient><linearGradient id="b" x1="17.65" x2="21.099" xlink:href="#a" y1="23.756" y2="23.756"/><linearGradient id="c" x1="17.65" x2="21.099" xlink:href="#a" y1="21.456" y2="21.456"/><linearGradient id="d" x1="17.65" x2="21.099" xlink:href="#a" y1="19.156" y2="19.156"/><linearGradient id="e" x1="17.65" x2="21.099" xlink:href="#a" y1="16.857" y2="16.857"/><linearGradient id="f" x1="17.65" x2="21.099" xlink:href="#a" y1="14.557" y2="14.557"/><linearGradient id="g" x1="17.65" x2="21.099" xlink:href="#a" y1="12.257" y2="12.257"/><linearGradient id="h" x1="17.65" x2="21.099" xlink:href="#a" y1="9.957" y2="9.957"/><linearGradient id="i" x1="17.65" x2="21.099" xlink:href="#a" y1="7.657" y2="7.657"/><linearGradient id="j" x1="16.237" x2="19.686" xlink:href="#a" y1="27.217" y2="27.217"/><linearGradient id="k" x1="16.237" x2="19.686" xlink:href="#a" y1="24.918" y2="24.918"/><linearGradient id="l" x1="16.237" x2="19.686" xlink:href="#a" y1="22.618" y2="22.618"/><linearGradient id="m" x1="16.237" x2="19.686" xlink:href="#a" y1="20.318" y2="20.318"/><linearGradient id="n" x1="16.237" x2="19.686" xlink:href="#a" y1="18.018" y2="18.018"/><linearGradient id="o" x1="17.65" x2="21.099" xlink:href="#a" y1="28.356" y2="28.356"/><linearGradient id="p" x1="16.237" x2="19.686" xlink:href="#a" y1="15.718" y2="15.718"/><linearGradient id="q" x1="16.237" x2="19.686" xlink:href="#a" y1="13.419" y2="13.419"/><linearGradient id="r" x1="16.237" x2="19.686" xlink:href="#a" y1="11.119" y2="11.119"/><linearGradient id="s" x1="16.237" x2="19.686" xlink:href="#a" y1="8.819" y2="8.819"/><linearGradient id="t" x1="16.237" x2="19.686" xlink:href="#a" y1="29.514" y2="29.514"/><linearGradient id="u" x1="16.985" x2="20.446" xlink:href="#a" y1="11.196" y2="11.196"/><linearGradient id="v" x1="18.096" x2="19.336" xlink:href="#a" y1="5.329" y2="5.329"/><linearGradient id="w" x1="16.029" x2="21.403" xlink:href="#a" y1="5.591" y2="5.591"/><path d="m27.667 27.667v-10.334l-4.667-2.333v-13h-18.667v28h23.334zm-4.667 0v-9.111l2.333 1.222v7.889z" fill="#c09553"/><path d="m17.65 25.559h3.45v.993h-3.45z" fill="url(#a)"/><path d="m17.65 23.26h3.45v.993h-3.45z" fill="url(#b)"/><path d="m17.65 20.96h3.45v.993h-3.45z" fill="url(#c)"/><path d="m17.65 18.66h3.45v.993h-3.45z" fill="url(#d)"/><path d="m17.65 16.36h3.45v.993h-3.45z" fill="url(#e)"/><path d="m17.65 14.06h3.45v.993h-3.45z" fill="url(#f)"/><path d="m17.65 11.76h3.45v.993h-3.45z" fill="url(#g)"/><path d="m17.65 9.461h3.45v.993h-3.45z" fill="url(#h)"/><path d="m17.65 7.161h3.45v.993h-3.45z" fill="url(#i)"/><path d="m16.237 26.721h3.45v.993h-3.45z" fill="url(#j)"/><path d="m16.237 24.421h3.45v.993h-3.45z" fill="url(#k)"/><path d="m16.237 22.121h3.45v.993h-3.45z" fill="url(#l)"/><path d="m16.237 19.821h3.45v.993h-3.45z" fill="url(#m)"/><path d="m16.237 17.522h3.45v.993h-3.45z" fill="url(#n)"/><path d="m17.65 27.859h3.45v.993h-3.45z" fill="url(#o)"/><path d="m16.237 15.222h3.45v.993h-3.45z" fill="url(#p)"/><path d="m16.237 12.922h3.45v.993h-3.45z" fill="url(#q)"/><path d="m16.237 10.622h3.45v.993h-3.45z" fill="url(#r)"/><path d="m16.237 8.322h3.45v.993h-3.45z" fill="url(#s)"/><path d="m16.237 29.018h3.45v.993h-3.45z" fill="url(#t)"/><path d="m20.1 5.911a.554.554 0 0 0 -.548-.53h-.009v.557h.092l.206 2.514h-2.252l.211-2.514h.094v-.557h-.044a.552.552 0 0 0 -.547.53l-.314 10.569a.513.513 0 0 0 .515.531h2.432a.512.512 0 0 0 .513-.531zm-1.384 10.5a1.171 1.171 0 1 1 1.171-1.171 1.171 1.171 0 0 1 -1.171 1.168z" fill="url(#u)"/><path d="m18.096 3.802h1.24v3.054h-1.24z" fill="url(#v)"/><path d="m21.4 4.56a2.549 2.549 0 0 0 -2.549-2.549h-.276a2.55 2.55 0 0 0 -2.436 3.3v.006a7.986 7.986 0 0 1 .261 2.561 1.811 1.811 0 0 0 .641 1.271l.109-3.441a.593.593 0 0 1 .6-.551h.135v-1.57h1.653v1.57h.1a.6.6 0 0 1 .605.551l.121 3.462a1.813 1.813 0 0 0 .666-1.292v-.078c0-.014 0-.027 0-.041s0-.026 0-.039a7.693 7.693 0 0 1 .236-2.359 2.543 2.543 0 0 0 .134-.801z" fill="url(#w)"/></svg>