<svg xmlns="http://www.w3.org/2000/svg" viewBox="0 0 32 32"><title>file_type_ng_component_css</title><path d="M2.73,6.67,15.85,2V30L4.77,23.88Z" style="fill:#de3641"/><path d="M15.85,2,29.27,6.59,27.08,23.8,15.85,30Z" style="fill:#b13138"/><path d="M15.85,5.14l8.53,18.23H21.47l-1.82-4.16h-3.8V16.73h2.77L15.85,11l-2.33,5.73h2.33v2.48H12.38l-1.63,4.16H7.61Z" style="fill:#fff"/><polygon points="17.511 28.97 16.388 16.37 28.732 16.37 27.608 28.968 22.553 30.37 17.511 28.97" style="fill:#1572b6"/><polygon points="22.56 29.299 26.645 28.166 27.606 17.4 22.56 17.4 22.56 29.299" style="fill:#33a9dc"/><polygon points="22.56 21.965 24.605 21.965 24.746 20.383 22.56 20.383 22.56 18.837 22.566 18.837 26.435 18.837 26.398 19.252 26.019 23.511 22.56 23.511 22.56 21.965" style="fill:#fff"/><polygon points="22.57 25.979 22.563 25.981 20.842 25.516 20.732 24.283 19.895 24.283 19.18 24.283 19.397 26.71 22.562 27.589 22.57 27.587 22.57 25.979" style="fill:#ebebeb"/><polygon points="24.474 23.445 24.288 25.515 22.564 25.98 22.564 27.588 25.732 26.71 25.756 26.449 26.024 23.445 24.474 23.445" style="fill:#fff"/><polygon points="22.566 18.837 22.566 19.797 22.566 20.379 22.566 20.383 18.838 20.383 18.838 20.383 18.833 20.383 18.802 20.035 18.731 19.252 18.694 18.837 22.566 18.837" style="fill:#ebebeb"/><polygon points="22.56 21.965 22.56 22.925 22.56 23.507 22.56 23.511 20.866 23.511 20.866 23.511 20.861 23.511 20.83 23.163 20.76 22.38 20.723 21.965 22.56 21.965" style="fill:#ebebeb"/></svg>