<svg xmlns="http://www.w3.org/2000/svg" viewBox="0 0 32 32"><title>file_type_phpstan</title><path d="M6.405,24.179l-.636,1.506a1.008,1.008,0,0,0,.547,1.269,1.031,1.031,0,0,0,1.316-.348l.218-.521Z" style="fill:#232323"/><path d="M16.08,4.6a7.47,7.47,0,0,1,4.47,1.5.408.408,0,0,0,.536,0,.385.385,0,0,0,.029-.538,1.747,1.747,0,0,0-.9-.593,3.11,3.11,0,0,1,2.531-.961c2.323,0,7.258,3.374,7.258,9.7,0,6.074-3.977,7.383-5.058,7.383-1.645,0-3.351-1.7-3.351-2.781a4.886,4.886,0,0,0,2.363-3.32s.087-2.591,0-4.786a.462.462,0,0,0-.138-.254.457.457,0,0,0-.261-.121.412.412,0,0,0-.294.117.418.418,0,0,0-.126.292c0,.245.108,1.762.027,4.486a3.66,3.66,0,0,1-2.086,2.87,15.766,15.766,0,0,0,.528-1.827c.051-.239,0-.405-.159-.473a.353.353,0,0,0-.4.08.357.357,0,0,0-.076.123c-.107.215-3.885,12.5-9.111,12.5-4.415,0-6.96-6.3-6.96-7.745a1.884,1.884,0,0,1,1.734-2.126A3.329,3.329,0,0,1,8.688,19.2c.135.26-.582.883-.582.883l-.625-.5a.384.384,0,0,0-.488.014.364.364,0,0,0-.01.511c.159.16,4.932,4.006,4.932,4.006a.445.445,0,0,0,.568.037.377.377,0,0,0,.017-.529l-1.344-1.083,1.432-4.03s-2.2-.982-3.632.1a2.79,2.79,0,0,0-2.261-1.261,2.5,2.5,0,0,0-1.738.666A2.537,2.537,0,0,0,4.149,19.7,8.647,8.647,0,0,1,2,13.741C2,9.363,5.467,4.006,9.487,4.006a3.916,3.916,0,0,1,2.488.889l-.888.675a.407.407,0,0,0-.03.558.377.377,0,0,0,.507.051A6.486,6.486,0,0,1,16.08,4.6Z" style="fill:#516cb3"/><path d="M9.853,21.5l1.273-2.884a9.495,9.495,0,0,0,1.543.16,5.887,5.887,0,0,0,5.761-5.939,6,6,0,0,0-12-.194,5.826,5.826,0,0,0,2.7,5.14L8.106,20.092Z" style="fill:#232323"/><path d="M19.761,13.01a.318.318,0,0,1-.27-.149.322.322,0,0,1-.018-.309,1.5,1.5,0,0,1,1.244-.849,1.483,1.483,0,0,1,1.241.8.322.322,0,0,1,.025.248.32.32,0,0,1-.159.191.318.318,0,0,1-.432-.148.848.848,0,0,0-.675-.452c-.433,0-.666.481-.67.481a.318.318,0,0,1-.286.186Z" style="fill:#232323"/><path d="M12.425,16.7a3.86,3.86,0,1,0-3.832-3.86A3.846,3.846,0,0,0,12.425,16.7Z" style="fill:#d2d2d2"/><path d="M12.425,14.834a1.992,1.992,0,1,0-1.978-1.992A1.985,1.985,0,0,0,12.425,14.834Z" style="fill:#232323"/></svg>