<?xml version="1.0" encoding="UTF-8" standalone="no"?><!DOCTYPE svg PUBLIC "-//W3C//DTD SVG 1.1//EN" "http://www.w3.org/Graphics/SVG/1.1/DTD/svg11.dtd"><svg width="100%" height="100%" viewBox="0 0 32 32" version="1.1" xmlns="http://www.w3.org/2000/svg" xmlns:xlink="http://www.w3.org/1999/xlink" xml:space="preserve" xmlns:serif="http://www.serif.com/" style="fill-rule:evenodd;clip-rule:evenodd;stroke-linejoin:round;stroke-miterlimit:2;"><g id="Cy-Logo" serif:id="Cy Logo"><g id="Dark"><path id="Circle" d="M15.497,2.035c7.705,-0.274 14.185,5.761 14.463,13.469c0.277,7.707 -5.753,14.187 -13.457,14.461c-7.705,0.274 -14.185,-5.761 -14.463,-13.469c-0.277,-7.707 5.753,-14.187 13.457,-14.461Z"/><g><g><g id="Cy-Text" serif:id="Cy Text"><path d="M23.491,11.568l-2.631,6.601l-2.647,-6.601l-2.166,0l3.713,9.01l-2.642,6.354l1.894,0.374l6.525,-15.738l-2.046,0Z" style="fill:#d2d2d2;fill-rule:nonzero;"/><g><path d="M11.931,13.238c1.099,-0 1.994,0.581 2.454,1.596l0.036,0.079l1.846,-0.622l-0.04,-0.094c-0.715,-1.726 -2.361,-2.799 -4.296,-2.799c-1.361,-0 -2.468,0.432 -3.381,1.321c-0.909,0.883 -1.369,1.993 -1.369,3.301c0,1.297 0.46,2.402 1.369,3.284c0.913,0.889 2.02,1.322 3.381,1.322c1.935,-0 3.581,-1.074 4.296,-2.799l0.04,-0.094l-1.849,-0.623l-0.035,0.083c-0.412,0.996 -1.329,1.592 -2.452,1.592c-0.766,0 -1.412,-0.265 -1.925,-0.788c-0.518,-0.529 -0.78,-1.194 -0.78,-1.975c0,-0.788 0.256,-1.44 0.78,-1.993c0.511,-0.526 1.159,-0.791 1.925,-0.791Z" style="fill:#d2d2d2;fill-rule:nonzero;"/></g></g><g><path d="M22.241,25.782c3.698,-2.339 5.758,-6.488 5.375,-10.827c-0.135,-1.537 -0.566,-3.006 -1.276,-4.362l1.679,-0.868c0.826,1.575 1.327,3.28 1.485,5.066c0.444,5.041 -1.948,9.86 -6.245,12.576l-1.018,-1.585Z" style="fill:url(#_Linear1);fill-rule:nonzero;"/><path d="M2.927,19.556c-0.32,-1.156 -0.483,-2.358 -0.483,-3.568c-0,-5.524 3.497,-10.574 8.704,-12.566l0.683,1.752c-4.482,1.715 -7.492,6.06 -7.492,10.814c-0,1.043 0.14,2.075 0.415,3.07l-1.827,0.498Z" style="fill:#58d09e;fill-rule:nonzero;"/><path d="M11.057,3.465c1.126,-0.437 2.314,-0.723 3.527,-0.85c5.539,-0.577 10.969,2.345 13.51,7.272l-1.685,0.857c-2.188,-4.241 -6.86,-6.756 -11.627,-6.26c-1.045,0.109 -2.066,0.355 -3.035,0.731l-0.69,-1.75Z" style="fill:#58d09e;fill-rule:nonzero;"/><path d="M17.486,26.043l-0.461,1.108c-0.092,0.219 -0.301,0.367 -0.537,0.377c-0.156,0.007 -0.313,0.011 -0.472,0.011c-5.431,-0.003 -10.236,-3.801 -11.426,-9.033l-1.849,0.414c0.668,2.935 2.345,5.598 4.722,7.502c2.405,1.926 5.434,2.989 8.532,2.994l0.028,0c0.182,0 0.363,-0.004 0.543,-0.011c0.972,-0.04 1.842,-0.645 2.213,-1.54l0.602,-1.448l-1.895,-0.374Z" style="fill:url(#_Linear2);fill-rule:nonzero;"/></g></g></g></g></g><defs><linearGradient id="_Linear1" x1="0" y1="0" x2="1" y2="0" gradientUnits="userSpaceOnUse" gradientTransform="matrix(-4.12986,15.0029,-15.0029,-4.12986,28.1767,12.2475)"><stop offset="0" style="stop-color:#58d09e;stop-opacity:1"/><stop offset="1" style="stop-color:#000;stop-opacity:1"/></linearGradient><linearGradient id="_Linear2" x1="0" y1="0" x2="1" y2="0" gradientUnits="userSpaceOnUse" gradientTransform="matrix(12.2232,9.632,-9.632,12.2232,3.74021,20.1035)"><stop offset="0" style="stop-color:#58d09e;stop-opacity:1"/><stop offset="1" style="stop-color:#d2d2d2;stop-opacity:1"/></linearGradient></defs></svg>