<svg viewBox="0 0 32 32" xmlns="http://www.w3.org/2000/svg"><path d="m30 30h-28v-28h28z" fill="#e40046"/><g fill="#fff"><path d="m23.731 24.83a.589.589 0 0 1 -.763-.337l-6.244-15.224-2.794 6.721h1.833a.59.59 0 0 1 -.024 1.18h-6.839a.59.59 0 0 1 .024-1.18h3.727v-.013l3.533-8.477a.591.591 0 0 1 .533-.363.592.592 0 0 1 .557.366l6.785 16.546.009.021a.59.59 0 0 1 -.337.76z"/><path d="m14.516 18.791h-6.837a.59.59 0 0 0 -.024 1.18h3.345l-1.691 4.072a.59.59 0 0 0 1.085.464v-.011l1.875-4.509.005-.016h2.215a.59.59 0 0 0 .023-1.18z"/></g></svg>