<svg viewBox="0 0 32 32" xmlns="http://www.w3.org/2000/svg"><path d="m22.24 6.546a4.449 4.449 0 0 0 1.765-2.522 4.636 4.636 0 0 1 -.018 2.157c-.223.582-.567 1.107-.834 1.669a21.772 21.772 0 0 1 4.559-2.938c-.482 1.488-1.821 2.388-2.805 3.53.19.409.28.989.8 1.109a5.036 5.036 0 0 0 2.5.155c.912-.313 1.345-1.258 1.8-2.035v1.469a15.738 15.738 0 0 1 -.582 1.748c.2.547.409 1.092.582 1.647v.952c-.214.368-.442.726-.663 1.089a5.293 5.293 0 0 0 -1.068-1.162 4.03 4.03 0 0 0 -1.851-.125 3.212 3.212 0 0 0 2.413 1.47c-.359.37-.663.912-1.23.969-1.641.247-3.207-.505-4.839-.5-.282.02-.707.024-.785.372 0 .735.217 1.453.19 2.188-.059 1.258-.512 2.466-.529 3.726a13.785 13.785 0 0 0 .838 3.448c-.523-.077-1.044-.166-1.562-.26-.1.208-.184.42-.26.634a4.514 4.514 0 0 0 1.139 1.195c-.061.127-.182.381-.241.508l-.573.138c-.131.247-.263.492-.4.739a4.421 4.421 0 0 0 -2.2.061c-.466-.186-.928-.376-1.389-.567a5.939 5.939 0 0 0 .407-2.315c-.282-.982-1.6-.984-2-1.877a6.233 6.233 0 0 1 -1.022-2.851c-.823-.433-1.455-1.221-2.4-1.4-.048.409-.083.82-.153 1.227a6.015 6.015 0 0 1 -1.348 2.406c.039.422.079.842.12 1.265.346.324.691.648 1.033.974a9.752 9.752 0 0 1 -1.426.713 11.114 11.114 0 0 1 -1.687.077c-.258-.254-.518-.508-.777-.764a4.871 4.871 0 0 0 .114-2.608c.171-.4.326-.812.475-1.221a5.565 5.565 0 0 1 -3.01.206 5.12 5.12 0 0 1 -3.29-4.33 3.859 3.859 0 0 1 1.407-3.268 6.41 6.41 0 0 0 -.24 2.615 3.038 3.038 0 0 0 2.5 2.466 3.462 3.462 0 0 0 1.96-.643 7.48 7.48 0 0 1 .363-4.133 5.524 5.524 0 0 1 3.586-2.66 4.235 4.235 0 0 0 2.011-1.566 10.67 10.67 0 0 1 1.529-1.33c-.228-.219-.453-.44-.68-.659a2.154 2.154 0 0 0 1.431-1.711c1.284-.3 2.551-.661 3.82-1.011a3.793 3.793 0 0 0 1.415.606c.317.346.494 1.157 1.1.928m-3.777 13.362c.042.768-.048 1.665.674 2.155 0-.755-.046-1.507-.1-2.26z" fill="#005ca5"/></svg>