<svg xmlns="http://www.w3.org/2000/svg" viewBox="0 0 32 32"><path fill="#0673fe" d="M6 5.333c3.311.207 6.553.437 9.833.854l1.132.14q1.35.168 2.702.34l.333 1q-1.204.44-2.417.854l-.669.25c-2.354.788-3.464.46-6.247.229v14l4-.333c1.012.226 1.811.435 2.75.812l.668.246q.794.294 1.582.608v1q-2.277.288-4.554.57l-1.545.194q-1.117.14-2.235.278l-.687.088c-1.582.192-3.027.204-4.646.204z"/><path fill="#00f196" d="M26.333 7.667v16.666c-2.628.376-2.628.376-3.643.037l-.656-.218-.659-.235-.682-.22c-.649-.223-.649-.223-1.693-.697l-.333-1h2.666V10h-2.666L19 9c.798-.362 1.546-.65 2.375-.917l.659-.235.656-.218.591-.197c.719-.1.719-.1 3.052.234"/></svg>