<?xml version="1.0" encoding="UTF-8" standalone="no"?>
<svg
   version="1.1"
   viewBox="0 0 32 32"
   xml:space="preserve"
   id="svg1"
   sodipodi:docname="file_type_gdshader.svg"
   inkscape:version="1.4 (86a8ad7, 2024-10-11)"
   xmlns:inkscape="http://www.inkscape.org/namespaces/inkscape"
   xmlns:sodipodi="http://sodipodi.sourceforge.net/DTD/sodipodi-0.dtd"
   xmlns="http://www.w3.org/2000/svg"
   xmlns:svg="http://www.w3.org/2000/svg"
   xmlns:rdf="http://www.w3.org/1999/02/22-rdf-syntax-ns#"
   xmlns:cc="http://creativecommons.org/ns#"
   xmlns:dc="http://purl.org/dc/elements/1.1/"><defs
     id="defs1" /><sodipodi:namedview
     id="namedview1"
     pagecolor="#ffffff"
     bordercolor="#000000"
     borderopacity="0.25"
     inkscape:showpageshadow="2"
     inkscape:pageopacity="0.0"
     inkscape:pagecheckerboard="0"
     inkscape:deskcolor="#d1d1d1"
     inkscape:zoom="9.90625"
     inkscape:cx="18.675079"
     inkscape:cy="15.444795"
     inkscape:window-width="1440"
     inkscape:window-height="878"
     inkscape:window-x="-6"
     inkscape:window-y="-6"
     inkscape:window-maximized="1"
     inkscape:current-layer="svg1" /><title
     id="title1">file_type_godot</title><metadata
     id="metadata1"><rdf:RDF><cc:Work
         rdf:about=""><dc:title>file_type_godot</dc:title></cc:Work></rdf:RDF></metadata><g
     id="g1"
     transform="matrix(1.8508337,0,0,1.8508337,1.1933303,1.1933303)"><path
       fill="#e0e0e0"
       d="M 2,1 A 1,1 0 0 0 1,2 v 12 a 1,1 0 0 0 1,1 h 12 a 1,1 0 0 0 1,-1 V 6 L 10,1 Z m 1,2 h 6 v 3 a 1,1 0 0 0 1,1 h 3 v 6 H 3 Z"
       id="path1-8" /><path
       fill="#8045ff"
       d="m 10,11 h 2 v 1 h -2 z"
       id="path2" /><path
       fill="#ffe345"
       d="M 4,6 H 6 V 7 H 4 Z"
       id="path3" /><path
       fill="#80ff45"
       d="m 8,8 h 4 V 9 H 8 Z"
       id="path4" /><path
       fill="#45d7ff"
       d="M 7,6 H 8 V 7 H 7 Z"
       id="path5" /><path
       fill="#ff4596"
       d="m 4,11 h 5 v 1 H 4 Z"
       id="path6" /><path
       fill="#ff4545"
       d="M 4,4 H 7 V 5 H 4 Z"
       id="path7" /><path
       fill="#45ffa2"
       d="M 4,8 H 7 V 9 H 4 Z"
       id="path8" /></g></svg>
