<svg viewBox="0 0 32 32" xmlns="http://www.w3.org/2000/svg"><g fill="#984c93"><path d="m14.742 24.047a10.242 10.242 0 0 1 -4.673.919 7.628 7.628 0 0 1 -5.914-2.346 8.876 8.876 0 0 1 -2.155-6.251 9.476 9.476 0 0 1 2.422-6.748 8.216 8.216 0 0 1 6.285-2.588 11.151 11.151 0 0 1 4.035.641v3.761a6.839 6.839 0 0 0 -3.742-1.04 4.813 4.813 0 0 0 -3.712 1.535 5.9 5.9 0 0 0 -1.413 4.159 5.8 5.8 0 0 0 1.334 4.011 4.57 4.57 0 0 0 3.59 1.493 7.319 7.319 0 0 0 3.943-1.113z"/><path d="m17.112 14.829v-2.344h2.344v2.344h2.344v2.343h-2.344v2.343h-2.344v-2.343h-2.342v-2.344z"/><path d="m25.313 14.829v-2.344h2.344v2.344h2.343v2.343h-2.343v2.343h-2.344v-2.343h-2.342v-2.344z"/></g></svg>