<svg viewBox="0 0 32 32" xmlns="http://www.w3.org/2000/svg"><path d="m28.166 21.029v1.652a.374.374 0 0 1 -.26.357l-2.6.841a.367.367 0 0 1 -.335-.054.374.374 0 0 1 -.155-.3v-1.8l-2.438.464v1.831a.375.375 0 0 1 -.325.371l-3.525.483c-.016 0-.034 0-.051 0a.374.374 0 0 1 -.377-.374v-1.943l-1.819.008h-.267l-1.819-.008v1.943a.375.375 0 0 1 -.375.376c-.017 0-.034 0-.052 0l-3.525-.483a.375.375 0 0 1 -.324-.371v-1.838l-2.439-.464v1.8a.374.374 0 0 1 -.154.3.37.37 0 0 1 -.336.054l-2.6-.841a.374.374 0 0 1 -.259-.357v-1.647l-1.608-.541a4.558 4.558 0 0 0 -.124 1.04c0 4.317 6.082 7.65 13.6 7.674h.019c7.517-.024 13.6-3.356 13.6-7.674a4.54 4.54 0 0 0 -.1-.95z" fill="#478cbf"/><path d="m3.711 13.373v6.727l.907.306a.374.374 0 0 1 .256.355v1.65l1.855.6v-1.744a.376.376 0 0 1 .445-.369l3.189.609a.374.374 0 0 1 .305.368v1.818l2.775.379v-1.89a.374.374 0 0 1 .376-.375l2.327.009 2.326-.009a.374.374 0 0 1 .377.375v1.89l2.775-.379v-1.819a.373.373 0 0 1 .3-.368l3.189-.609a.377.377 0 0 1 .446.369v1.741l1.855-.6v-1.647a.374.374 0 0 1 .255-.355l.618-.208v-6.824h.017a26.792 26.792 0 0 0 1.696-2.442 19.02 19.02 0 0 0 -2.509-3.288 24.507 24.507 0 0 0 -2.491 1.448 13.01 13.01 0 0 0 -1.279-1.052 15.365 15.365 0 0 0 -1.375-.894 28.353 28.353 0 0 0 .232-3.071 15.968 15.968 0 0 0 -3.731-1.274 26.44 26.44 0 0 0 -1.385 2.7 9.46 9.46 0 0 0 -1.453-.116h-.018a9.457 9.457 0 0 0 -1.454.116 26.275 26.275 0 0 0 -1.385-2.7 15.961 15.961 0 0 0 -3.73 1.275 28.142 28.142 0 0 0 .232 3.071 15.312 15.312 0 0 0 -1.376.894 13.06 13.06 0 0 0 -1.278 1.051 24.553 24.553 0 0 0 -2.49-1.448 19.02 19.02 0 0 0 -2.51 3.288 26.792 26.792 0 0 0 1.694 2.443z" fill="#478cbf"/><path d="m12.462 16.6a2.739 2.739 0 1 1 -2.74-2.738 2.739 2.739 0 0 1 2.74 2.738" fill="#fff"/><path d="m11.8 16.764a1.819 1.819 0 1 1 -1.819-1.819 1.817 1.817 0 0 1 1.819 1.819" fill="#414042"/><path d="m16.166 19.59a.844.844 0 0 1 -.882-.8v-2.523a.886.886 0 0 1 1.764 0v2.522a.845.845 0 0 1 -.883.8" fill="#fff"/><path d="m19.871 16.6a2.739 2.739 0 1 0 2.74-2.738 2.739 2.739 0 0 0 -2.74 2.738" fill="#fff"/><path d="m20.531 16.764a1.818 1.818 0 1 0 1.817-1.819 1.817 1.817 0 0 0 -1.817 1.819" fill="#414042"/></svg>