<svg xmlns="http://www.w3.org/2000/svg" viewBox="0 0 32 32"><path fill="#002652" d="M8.1 26.8Z"/><path fill="#e0e5eb" d="M13 25a.6.6 0 1 0 0-1.3.6.6 0 1 0 0 1.3Zm6-1.3a.6.6 0 1 0 0 1.3.6.6 0 1 0 0-1.3Z"/><path fill="#002652" d="M8.1 26.8Zm-.1.1Zm0 .2Zm16-.2Zm-.1-.1Zm.1.3Zm-.1-.3ZM7.7 15a1 1 0 0 0-.3 0c-.3.2-.3.7-.2 1a9.3 9.3 0 0 0 .7 2.7 6.6 6.6 0 0 1 1-1.3c1-.9 2-1.3 2-1.3-1-.7-2-1.4-3.2-1.2Zm16.6 0h.3c.3.2.2.7.2 1a9.3 9.3 0 0 1-.7 2.7 6.6 6.6 0 0 0-1-1.3c-1-.9-2-1.3-2-1.3 1-.7 2-1.4 3.2-1.2Z"/><path fill="#0075ff" d="M27.8 3.8C26 2 23.1 2 17.4 2h-3C8.8 2 6 2 4.3 3.8 2.5 5.5 2.5 8.3 2.5 14v2c0 5.6 0 8.4 1.8 10.2l1 .8a6.2 6.2 0 0 0 2 .6l.6.1v-.4H8c-2-1.7-3-4.5-3-4.5.8 0 1.7-.4 1.7-.4.4-.1 1-.5 1.1-1 0-.3 0-.6-.2-.8l-1-2.5a15 15 0 0 1-.5-2.7c0-.4-.1-1.1.3-1.4l.5-.2c1.9-.4 3.7.8 5.1 1.9l.4-.2.5-.1c.9-.3 1.9-.4 3-.4h.1a12.1 12.1 0 0 1 3.9.6c1.5-1 3.3-2.2 5.2-1.8.1 0 .3 0 .4.2.5.3.4 1 .3 1.4a15 15 0 0 1-1.4 5.2c-.2.2-.3.5-.2.8 0 .5.6.9 1 1 0 0 .9.4 1.7.4 0 0-1 2.8-3 4.5v.2l.1.1v.1h.7l.7-.2a5.4 5.4 0 0 0 2.3-1.3c1.7-1.8 1.7-4.6 1.7-10.2v-2c0-5.7 0-8.5-1.7-10.2Z"/><path fill="#002652" d="m12.5 28.3.1-.5.1-.4c.1-.4.3-.8.6-1 .3-.4.7-.6 1.1-.7.4-.2.8-.4 1-.8a1 1 0 0 0 0-1.3 2.6 2.6 0 0 0-.9-1c-1-.6-2.3-.8-3.5-.3a5 5 0 0 0-2.2 2.3 7.5 7.5 0 0 0-.7 2v.7l-.1.2v.2h.4l.2.1H9l.3.1h.6l.2.1h.4l.3.1h.3l.3.1h.3l.4.1h.3l.1.1h.1v-.1Zm0-4a.6.6 0 1 1 1.2 0 .6.6 0 1 1-1.3 0ZM24 27.7v-1a10 10 0 0 0-.8-2.1 5 5 0 0 0-2.2-2.3 3.8 3.8 0 0 0-3.6.4l-.4.2a2 2 0 0 0-.5.7c-.1.4-.2.9 0 1.3.3.4.7.6 1.1.8l1.2.6.5 1 .1.5.1.4v.2h.6l.3-.1h.3l.4-.1h.3l.3-.1h.3l.3-.1h.3l.3-.1h.6l.2-.1h.4v-.1ZM19 25a.6.6 0 1 1 0-1.3.6.6 0 1 1 0 1.3Zm-1.3 3.8-.1-.1-.1-.1-.1-.1v-.1l-.2-.1-.2-.1-.2-.1h-.2V28h-1.5v.1H15v.1h-.2v.2h-.2v.2h-.1l-.1.2v.1c0 .2 0 .3.2.4.1.2.3.4.6.5l.8.2c.3 0 .6 0 .9-.2l.6-.5.3-.4-.1-.1Z"/><path fill="#e0e5eb" d="M25.3 22.4c-.5-.1-1-.5-1.1-1 0-.3 0-.6.2-.8l1-2.5.5-2.7c0-.4.1-1.1-.3-1.4l-.5-.2c-1.9-.4-3.7.8-5.1 1.9l-.4-.2-.5-.2c-.9-.2-2-.3-3-.3H16a12.1 12.1 0 0 0-3.9.6c-1.5-1-3.3-2.2-5.2-1.8-.1 0-.3 0-.4.2-.5.3-.4 1-.3 1.4a15 15 0 0 0 1.4 5.2c.2.2.3.5.2.8 0 .5-.6.9-1 1 0 0-1 .4-1.7.4 0 0 1 2.8 3 4.5v-.6a13 13 0 0 1 .7-2.1c.5-1 1.3-1.8 2.2-2.3a3.8 3.8 0 0 1 4 .6l.5.7c.2.4.2.9 0 1.3s-.7.6-1 .8c-.5.1-1 .3-1.2.6-.3.3-.4.7-.6 1v.5l-.2.4v.2l1.8.5v-.1l.1-.2h.1l.1-.2.2-.1v-.1h.2V28h.2l.2-.1h1.4l.2.1v.1h.2v.2h.2v.1l.1.1.1.2v.1l1.9-.5v-.1l-.2-.5v-.4l-.6-1c-.3-.4-.8-.6-1.2-.8-.4-.1-.8-.4-1-.7-.2-.4-.2-.9 0-1.3 0-.3.3-.5.5-.7l.3-.3c1-.7 2.5-.8 3.6-.3 1 .5 1.8 1.3 2.2 2.3a7.5 7.5 0 0 1 .7 2s0 .1 0 .1v.1l.1.2v.2c2-1.6 3-4.4 3-4.4-.8 0-1.6-.4-1.6-.4ZM9 17.4a6.4 6.4 0 0 0-1.1 1.3l-.4-1.1c-.1-.6-.3-1.1-.3-1.7 0-.2-.1-.7.2-.8l.3-.2c1.1-.2 2.2.5 3.2 1.2 0 0-1 .4-2 1.3Zm14.6.5-.6-.5c-1-.9-1.8-1.3-1.8-1.3.9-.7 2-1.4 3.1-1.2l.3.1c.3.2.3.7.2 1a9.3 9.3 0 0 1-.7 2.7l-.5-.8Z"/></svg>