<svg xmlns="http://www.w3.org/2000/svg" viewBox="0 0 32 32"><title>file_type_puppet</title><path d="M13.514,23.919S10.978,25.8,9.2,25.29c0,0,8.772,8.772,17.887.343,0,0,3.05-3.53,2.913-6.134l-1.2-.343s-1.679,8.292-10.451,7.264a13.24,13.24,0,0,1-4.832-2.5Z" style="fill:#eba546"/><path d="M10.856,12.234s-.274-3.153,1.1-4.386c0,0-12.062,2.913-9.629,15.111,0,0,1.439,4.455,3.7,5.688l.891-.857s-6.2-5.757-.754-12.713a13.3,13.3,0,0,1,4.694-2.844Z" style="fill:#322d6b"/><path d="M22.388,15.523s2.913,1.234,3.358,3.015c0,0,3.118-11.993-8.772-15.591,0,0-4.626-.822-6.75.583l.343,1.2s8.018-2.776,11.582,5.311a15.463,15.463,0,0,1,.24,5.483Z" style="fill:#7c64a5"/><path d="M17.887,11.16a2.816,2.816,0,1,1-.24-3.975A2.818,2.818,0,0,1,17.887,11.16Z" style="fill:#7c64a5"/><path d="M10.686,22.805a2.818,2.818,0,0,1-3.975.24,2.815,2.815,0,1,1,3.975-.24Z" style="fill:#322d6b"/><path d="M24.055,23.153a2.816,2.816,0,1,1-.24-3.975,2.817,2.817,0,0,1,.24,3.975Z" style="fill:#eba546"/></svg>