<svg viewBox="0 0 32 32" xmlns="http://www.w3.org/2000/svg"><path d="m7.61 3.093c2.078-.019 4.159 0 6.238-.008-.493 2.123-.966 4.252-1.457 6.376h-9.491c-.3 0-.6.01-.9-.012 1.864-2.124 3.749-4.23 5.61-6.356z" fill="#f2e6c9"/><path d="m18.163 3.086h6.22c1.868 2.126 3.754 4.234 5.617 6.363-1.2.025-2.4 0-3.6.011h-6.8c-.467-2.127-.971-4.246-1.437-6.374z" fill="#f2e6c9"/><path d="m13.848 3.086h4.315c.466 2.128.969 4.247 1.444 6.373h-7.216c.491-2.122.964-4.25 1.457-6.373z" fill="#efc75e"/><path d="m2 9.448c.3.022.6.011.9.012h9.491q0 3.367.007 6.735a2.44 2.44 0 0 0 .256.018h6.746a1.9 1.9 0 0 0 .2-.014c.019-2.247 0-4.494.009-6.741h6.8c1.2-.006 2.4.014 3.6-.011v19.466h-28.009q0-9.732 0-19.465z" fill="#e7bf55"/><path d="m12.391 9.462h7.216c-.008 2.247.011 4.494-.009 6.741-.067.007-.134.012-.2.014h-6.743a2.44 2.44 0 0 1 -.255-.017c-.014-2.248 0-4.494-.009-6.738z" fill="#dbb551"/><path d="m4.044 22.581h9.37v3.608h-9.37z" fill="#f2f2f2"/><g fill="#f00"><path d="m17.922 19.942a15.869 15.869 0 0 0 5.578.895 15.869 15.869 0 0 0 5.578-.9c1.4-.545 1.894-1.151 1.894-1.5v-2.662a7.768 7.768 0 0 1 -1.563.807 16.72 16.72 0 0 1 -5.909.977 16.77 16.77 0 0 1 -5.909-.975 7.71 7.71 0 0 1 -1.563-.809v2.663c0 .355.497.962 1.894 1.504z"/><path d="m17.922 24.971a11.708 11.708 0 0 0 1.95.556 19.567 19.567 0 0 0 7.257 0 11.711 11.711 0 0 0 1.95-.556c1.4-.545 1.894-1.151 1.894-1.5v-2.542a8.029 8.029 0 0 1 -1.269.619 17.617 17.617 0 0 1 -6.2 1.007 17.618 17.618 0 0 1 -6.2-1.011 8.122 8.122 0 0 1 -1.269-.619v2.545c-.007.35.49.953 1.887 1.501z"/><path d="m23.5 31c4.125 0 7.472-1.308 7.472-2.921v-2.127a7.875 7.875 0 0 1 -1.151.571l-.118.047a17.615 17.615 0 0 1 -6.2 1.013 17.566 17.566 0 0 1 -6.2-1.013c-.04-.015-.079-.032-.118-.047a7.875 7.875 0 0 1 -1.151-.571v2.128c-.006 1.612 3.341 2.92 7.466 2.92z"/><ellipse cx="23.5" cy="12.921" rx="7.472" ry="2.921"/></g></svg>