<svg viewBox="0 0 32 32" xmlns="http://www.w3.org/2000/svg"><path d="m27 16h-7v2h4.8a9.066 9.066 0 0 1 -5.8 6.5l-11.5-11.5a9 9 0 0 1 8.5-6 9.232 9.232 0 0 1 7.4 3.8l1.5-1.3a10.993 10.993 0 0 0 -19.6 4.1l13.2 13.2a11.251 11.251 0 0 0 8.5-10.8zm-22 .1a10.682 10.682 0 0 0 3.2 7.6 10.855 10.855 0 0 0 7.6 3.2z" fill="#fff"/><path d="m16 2a14 14 0 1 0 14 14 14.041 14.041 0 0 0 -14-14zm-7.8 21.8a10.855 10.855 0 0 1 -3.2-7.6l10.9 10.8a11.351 11.351 0 0 1 -7.7-3.2zm10.2 2.9-13.1-13.1a10.993 10.993 0 0 1 19.6-4.1l-1.5 1.3a9.232 9.232 0 0 0 -7.4-3.8 9.1 9.1 0 0 0 -8.5 6l11.5 11.5a9.066 9.066 0 0 0 5.8-6.5h-4.8v-2h7a11.031 11.031 0 0 1 -8.6 10.7z" fill="#639"/></svg>