<svg xmlns="http://www.w3.org/2000/svg" viewBox="0 0 32 32"><title>file_type_icl</title><path d="M29.3,12.7a2.2,2.2,0,0,0,0-3.1,1.1,1.1,0,0,0-.5-.5A7.1,7.1,0,0,0,25.1,8a1.3,1.3,0,0,0-.9.2,6.9,6.9,0,0,0-3.8,1.5c-.1.1-.2.2-.4.1A6.4,6.4,0,0,0,18.1,9a7.2,7.2,0,0,0-6,.8l-.6-.5a7.9,7.9,0,0,0-3.3-1,6.5,6.5,0,0,0-6.1,3.6,1.2,1.2,0,0,0-.1.6,3.2,3.2,0,0,0,1.6,2.8,6.1,6.1,0,0,0,3.6.9H8.3a1.9,1.9,0,0,0-.3.7,8.6,8.6,0,0,0-.4,2.4,3.8,3.8,0,0,0,3.2,4.1,34.4,34.4,0,0,0,5.1.8,11.2,11.2,0,0,0,2.6,0,15.7,15.7,0,0,0,3.7-1.1A4.8,4.8,0,0,0,24,21.4a2.9,2.9,0,0,0,.7-2,11.9,11.9,0,0,0-.3-2.2c0-.2-.1-.4.2-.4l1.3-.5a5.7,5.7,0,0,0,2.9-1.7,1.1,1.1,0,0,0,.2-1.3c-.1-.3-.1-.4.1-.5Z" style="fill:#a6acb4"/><path d="M13.7,20.5A4,4,0,0,1,15,18.2a2,2,0,0,1,2.8.3v.2l.6,1.2a6.2,6.2,0,0,1,0,.8,2.7,2.7,0,0,1-3.3,1.7H15A2,2,0,0,1,13.7,20.5Z" style="fill:#4b5b64"/><path d="M13.7,20.5l.5,1a2.2,2.2,0,0,0,2.8.5,2.5,2.5,0,0,0,1.3-1.4c.1-.1.1-.3.1-.5s0-.2.1-.1a3.2,3.2,0,0,1,.3,1.8,1.3,1.3,0,0,1-.5.9,3.5,3.5,0,0,1-3.1.6,2.2,2.2,0,0,1-1.6-2.4Z" style="fill:#283037"/><path d="M10.6,20.3a1.4,1.4,0,0,1,.2-1.4.8.8,0,0,1,1.2-.3h0l.3.4a1.3,1.3,0,0,1-.6,1.7.8.8,0,0,1-1.1-.2h0Z" style="fill:#0a090b"/><path d="M20.1,20.3a1.1,1.1,0,0,0,1.1.5.9.9,0,0,0,.6-.8,1,1,0,0,0-.2-.7l-.4-.4a.8.8,0,0,0-1-.1.7.7,0,0,0-.3.9v.2Z" style="fill:#0a090b"/><path d="M10.6,20.3c.4.4.6.5,1,.3a1.4,1.4,0,0,0,.8-1.3c0-.1,0-.2,0-.3a1.5,1.5,0,0,1-.3,2.1h-.1a1,1,0,0,1-1.3-.6h0Z" style="fill:#8e949c"/><path d="M20.8,21.2a.7.7,0,0,0,.9-.2,1.4,1.4,0,0,0-.1-1.7v.5a.9.9,0,0,1-.4.9c-.3.2-.6,0-.8-.2a1.7,1.7,0,0,1-.5-.6A1.6,1.6,0,0,0,20.8,21.2Z" style="fill:#8e949c"/><path d="M27,10.5h.1c-.2,1.4-.4,2.5-2,3.1l-1.2.4a.8.8,0,0,1-.8-.3,3.3,3.3,0,0,1-.6-1,.6.6,0,0,1,.3-.6,7.7,7.7,0,0,1,2.8-1.5Z" style="fill:#d48691"/><path d="M6.2,14.3H8.1c.5-.1,1,0,1-.7a.9.9,0,0,1,.1-.5.3.3,0,0,0,.1-.2c-.1-.2.1-.3,0-.5H8.8a6.8,6.8,0,0,0-3.6.8c-.4.4-.3.5.1.8l.6.3Z" style="fill:#d48691"/><path d="M27,10.5l-2.6.8-1.6,1-.3.4c-.6-1.1-.5-1,.4-1.6A5.1,5.1,0,0,1,27,10.5Z" style="fill:#c95e66"/><path d="M9.3,12.5c.3-.8.2-.9-.6-1H8.4a5.9,5.9,0,0,0-3.2,1.6l.6-.2a7.4,7.4,0,0,1,3.4-.4Z" style="fill:#c95e66"/><path d="M11.3,19c0-.2.1-.4.3-.3a.7.7,0,0,1,.5.7c0,.2-.1.4-.4.4S11.3,19.3,11.3,19Z" style="fill:#fcfdfc"/><path d="M20.7,18.8a.4.4,0,0,0-.4.3h0a.4.4,0,0,0,.3.4c.2,0,.3-.1.4-.3a.4.4,0,0,0-.3-.4Z" style="fill:#fcfdfc"/></svg>