<svg width="28.113" height="32" version="1.1" viewBox="0 0 7.4383 8.4666" xmlns="http://www.w3.org/2000/svg"><g transform="matrix(.0065827 0 0 .0065827 1.0492 1.6546)" fill="#222"><path d="m395.13 962.67c-4.4076-2.7845-112.39-68.72-239.97-146.52l-231.96-141.46v-77.277c0-42.502 0.53292-173.7 1.1842-291.56l1.1843-214.28 202.28-121.3c111.25-66.716 219.85-131.82 241.32-144.67l39.042-23.365 62.467 37.997c34.357 20.898 142.21 86.607 239.66 146.02l177.2 108.02 0.41787 227.91c0.2297 125.35-0.16924 256.99-0.89055 292.53l-1.3084 64.618-57.878 34.661c-31.833 19.064-140.21 84.017-240.84 144.34-100.63 60.324-183.17 109.62-183.43 109.54-0.25789-0.0797-4.074-2.4205-8.4817-5.2047z" fill="#69a658" stroke-width="1.8167"/><path d="m220.98 342.01c-10.4 4.5-11.2 18.6-1.4 23.6 7.1 3.6 14.3 1.9 18-4.3 7-11.4-4.4-24.6-16.6-19.3zm67.8 9.6c-9.6 5.9-9.6 20.1 0 26 9.5 5.7 21.8-1.8 21.8-13.2 0-11-12.6-18.4-21.8-12.8zm86.775-388.49c-1.8871 0.20674-7.9456 0.93033-13.408 1.4472-77.668 8.4764-154.14 42.692-216.52 97.065-11.521 9.9235-37.741 37.213-47.276 49.204-51.646 64.193-81.839 136.24-92.963 221.52-2.483 18.917-2.483 82.8 0 101.72 11.124 85.28 41.317 157.33 92.963 221.52 9.5347 11.991 35.755 39.281 47.276 49.204 61.677 53.753 130.9 85.177 212.84 96.755 18.175 2.5843 79.555 2.5843 97.73 0 81.939-11.577 151.16-43.002 212.84-96.755 11.521-9.9235 37.741-37.213 47.276-49.204 51.646-64.193 81.839-136.24 92.963-221.52 2.483-18.917 2.483-82.8 0-101.72-11.124-85.28-41.317-157.33-92.963-221.52-9.5347-11.991-35.755-39.281-47.276-49.204-61.479-53.546-131.4-85.384-212.25-96.651-8.7401-1.2404-21.453-1.7573-44.992-1.964-17.977-0.20674-34.365-0.10337-36.252 0.10337zm4.966 44.656c0 12.094 0.79455 38.35 1.8871 63.263 0.59592 12.198 1.2912 29.667 1.5891 38.764 1.0925 32.252 4.3701 116.91 4.8666 124.46l0.4966 7.546-4.4694-0.51685c-2.483-0.20675-4.7673-0.82697-5.1646-1.1371-0.29796-0.41348-0.9932-7.546-1.3905-15.919-1.7878-36.8-7.6476-179.55-8.2435-200.43l-0.59591-22.948 2.7809-0.41348c1.4898-0.20674 3.9728-0.51685 5.5619-0.62022l2.6816-0.10337zm95.049-2.4809c0.0994 0.10337 0.39727 31.321 0.69523 69.361 0.39728 38.144 0.89388 72.359 1.1918 76.08 0.29796 3.8247 0.19865 7.1326-0.29795 7.3393-0.39728 0.3101-2.8803 0.3101-5.3632 0l-4.5687-0.4135-0.69523-30.081c-0.39729-16.643-0.89388-35.043-1.0925-41.038-0.79456-18.297-1.4898-80.422-0.89387-81.973 0.39727-1.1371 1.4898-1.2404 5.6612-0.51685 2.8803 0.62022 5.2639 1.1371 5.3633 1.2404zm-229.73 34.629c0.59592 0.93033 5.2639 57.887 11.024 132.42 1.8871 25.326 3.7741 48.481 4.0721 51.375 0.4966 5.2719 0.39728 5.4786-2.7809 7.546-1.7878 1.1371-3.5755 2.0674-3.9728 2.0674-0.29795 0-0.89386-2.6876-1.1918-5.9955-1.3905-13.438-6.7537-78.355-10.528-125.28-2.185-27.6-4.1714-52.305-4.4694-54.993-0.49659-4.5483-0.39728-4.9618 2.185-6.409 3.1782-1.7573 4.966-2.0674 5.6612-0.72359zm273.43 20.777c2.781 1.0337 3.0789 1.5506 3.6748 7.4426 0.99318 10.337 0.69523 59.748-0.39729 59.748-2.8803 0-8.8394-3.5146-9.336-5.4786-0.29796-1.2404-0.59592-15.919-0.59592-32.562 0-33.595-0.39727-31.631 6.6544-29.15zm-183.44 4.8584c0 2.791 0.69523 18.193 1.4898 34.422 0.79456 16.229 1.6884 36.8 2.0857 45.69 0.69524 17.986 0.89387 17.366-5.7605 17.78-3.2776 0.10334-3.2776 0.10334-3.4762-5.0651-0.19864-2.8944-0.69524-11.888-1.2912-20.157-0.4966-8.2696-1.6884-26.153-2.483-39.798-0.79456-13.645-1.7878-27.186-2.0857-30.081-0.59592-5.1685-0.4966-5.3753 2.185-6.409 1.5891-0.62022 4.3701-1.1371 6.1578-1.1371 3.1782-0.10337 3.1782-0.10337 3.1782 4.755zm275.51 14.162 3.3769 1.4472 0.69524 13.852c0.29796 7.546 0.49659 23.879 0.29796 36.18l-0.29796 22.535-4.1714-2.1708-4.1714-2.0674-0.29796-34.319c-0.19864-18.917-0.0994-34.939 0.0993-35.663 0.39728-1.5506 0.39728-1.5506 4.4694 0.20674zm-181.36 13.542c0.59591 0.62021 1.9864 50.755 2.0857 76.184l0.0994 15.299-4.668-0.72359c-2.6816-0.31011-4.8666-0.62022-4.966-0.72359-0.29796-0.20674-3.2775-76.804-3.2775-84.247v-7.6494l5.0653 0.62022c2.8803 0.41347 5.3633 0.93033 5.6612 1.2405zm228.73 7.3393c1.1918 1.4472 1.3905 24.085 1.6884 148.96 0.29795 143.37 0.29795 147.1-1.4898 147.1-1.0925 0-2.5823-0.62022-3.4762-1.3438-1.4898-1.1371-1.6884-13.645-2.185-136.14-0.39728-74.22-0.89387-141.62-1.1918-149.78l-0.59592-14.885 2.8803 2.1708c1.6884 1.2404 3.5755 2.9977 4.3701 3.9281zm-89.09 21.191c0.4966 0.41349 0.9932 6.3056 1.0925 13.025 0.49661 22.845 0.59592 162.91 0.0994 163.32-0.19864 0.20674-1.9864-0.31011-3.9728-1.1371l-3.5755-1.5506v-175.83l2.781 0.62022c1.4898 0.41349 3.0789 1.0337 3.5755 1.5506zm-274.12 5.7887c0.29796 2.791 0.79457 9.0966 1.0925 14.265 0.29795 5.0652 0.99319 16.643 1.5891 25.636 1.1918 18.193 0.9932 19.33-4.668 19.33-2.9796 0-3.3768-0.31011-3.7741-3.4112-0.99318-6.0988-4.4694-56.957-3.9728-57.784 0.49659-0.7236 5.6612-2.5843 8.0449-2.791 0.59592-0.10334 1.3905 2.0674 1.6884 4.755zm-164.27 26.359c1.0925 10.957 3.2775 33.905 4.8667 50.962 1.6884 17.056 3.0789 31.528 3.0789 32.148 0 1.2404-7.6476 5.1685-8.4422 4.3415-0.49659-0.51685-10.429-92-10.429-96.134 0-2.4809 7.6476-12.921 8.6408-11.784 0.29796 0.20675 1.2912 9.4067 2.2844 20.467zm389.43 10.854 2.8803 1.7573 0.0994 22.328c0.0993 12.198 0.29795 25.843 0.29795 30.287 0.19865 9.3033-0.89387 10.854-6.2571 8.8898l-3.0789-1.1371v-8.8898c0-4.9618-0.29795-19.33-0.69523-32.045l-0.59592-22.948h2.2844c1.1918 0 3.4762 0.82696 5.0653 1.7573zm-345.83 40.108c1.7878 19.847 4.668 53.339 6.5551 74.427l3.3769 38.247-3.8734 4.0314-3.7741 4.0314-0.69524-8.1662c-0.39728-4.5483-2.3837-25.636-4.4694-46.93-2.0857-21.294-5.0653-52.202-6.5551-68.638l-2.781-29.771 3.8735-3.7213c3.4762-3.4112 3.8735-3.5146 4.5687-1.6539 0.39728 1.0337 2.0857 18.193 3.7741 38.144zm-74.39 12.508c2.185 20.364 7.9456 74.53 12.912 120.32 4.966 45.793 9.634 89.932 10.528 98.202 0.79456 8.2696 2.185 20.777 2.9796 27.91 1.3905 12.094 1.3905 12.921-0.19864 14.162-2.3837 1.8607-3.3768 1.6539-3.3768-0.51686 0-0.93033-0.89388-8.7865-1.9864-17.263-1.7878-14.162-4.7673-38.144-11.422-92-1.3905-10.854-4.0721-32.458-5.9592-48.067-1.9864-15.609-4.8667-38.867-6.4558-51.685-1.5891-12.818-4.2707-34.732-5.9592-48.894-1.7878-14.058-2.8803-26.566-2.5823-27.91 0.69524-2.791 6.5551-12.508 7.151-11.888 0.19864 0.31011 2.185 17.159 4.3701 37.627zm-30.392 44.553c1.4898 12.404 4.2707 35.043 6.1578 50.445 1.8871 15.299 4.2707 34.422 5.3633 42.382l1.8871 14.472-2.0857 1.8607c-1.1918 1.0337-2.3837 1.4472-2.7809 1.0337-0.39728-0.41349-1.1918-4.5483-1.7878-9.0966-0.59592-4.5483-4.2707-31.114-8.2435-58.921l-7.0517-50.651 2.2843-7.0292c1.1918-3.8247 2.483-6.9258 2.7809-6.9258 0.39728 0 1.8871 10.13 3.4762 22.431zm545.26-13.541c1.3905 1.4472 1.5891 7.8561 1.5891 55.303v53.649h-2.781c-6.0585 0-5.9592 1.5506-6.3564-57.164l-0.29796-53.442h3.1782c1.6884 0 3.8735 0.7236 4.668 1.6539zm-217.41 18.503c22.446 3.5146 42.012 10.027 61.379 20.364 12.514 6.7191 18.473 11.371 32.378 25.222 20.658 20.571 33.371 38.557 45.29 63.986 17.381 37.007 24.135 69.775 32.676 157.64 3.8735 39.384 8.9388 110.81 10.031 140.07 0.29796 8.4764 0.99319 22.431 1.5891 31.011 1.0925 18.193 2.3837 15.712-13.011 23.465-21.354 10.75-41.913 18.193-69.027 25.119-33.173 8.4764-54.626 11.164-87.401 11.267l-23.837 0.10334 0.19863-11.888c0-6.5123 0.59592-21.708 1.1918-33.595 2.9796-57.577 2.3837-130.25-1.4898-170.56-2.185-23.155-6.4558-51.272-8.8394-57.474-0.4966-1.3438 1.7878-2.4809 11.62-5.9955 17.977-6.5123 33.57-14.679 35.954-18.71 4.2707-7.6494-3.3769-18.607-13.11-18.607-1.6884 0-6.7537 1.8607-11.422 4.0314-22.248 10.647-66.842 23.155-92.566 25.946-17.778 1.964-45.389 0.82696-64.558-2.791-10.429-1.964-29.101-9.3033-44.694-17.676-17.977-9.7168-29.001-22.638-32.279-37.937-1.7878-8.2696-1.2912-24.809 0.9932-34.112 2.483-10.234 9.4354-25.119 15.792-33.802 28.306-38.764 86.706-72.359 146.6-84.143 19.069-3.7213 46.084-4.1348 66.544-0.93033zm306.4 3.2045c3.5755 1.5506 3.9728 1.964 3.9728 5.4786 0.19863 28.22-0.39728 92.723-0.89388 95.411-0.0993 0.93034-5.2639 1.0337-7.449 0.20675-1.3905-0.51685-1.5891-6.0988-1.5891-51.685 0-32.665 0.39728-51.065 0.99319-51.065 0.4966 0 2.781 0.7236 4.966 1.6539zm43.403 56.75 3.5755 1.5506-0.69523 85.591c-0.79456 109.06-0.89387 112.26-4.668 121.67-6.1578 15.402-5.8598 18.503-5.2639-49.101 0.19864-33.802 0.69523-68.018 0.89388-75.977 0.19863-7.9595 0.39727-30.391 0.49659-49.928 0-23.568 0.29796-35.353 0.9932-35.353 0.59592 0 2.6816 0.7236 4.668 1.5506zm-597.31 25.739c0.59591 8.373 0.39727 9.2-2.483 15.816l-3.1782 7.0292-1.1918-10.337c-1.8871-16.539-1.8871-17.263 1.8871-19.744 1.6884-1.2404 3.4762-2.0674 3.7741-1.8607 0.29796 0.20674 0.89388 4.3415 1.1918 9.0966zm-61.379 62.332c0.89388 8.4764 7.8462 64.71 11.422 92.31 5.3632 42.692 5.7605 48.791 3.3769 46.206-0.29796-0.31011-2.5823-14.679-4.966-31.941-15.494-111.43-15.395-110.71-14.103-111.54 2.6816-1.8607 3.5755-0.82696 4.2707 4.9618zm71.51 47.344c0.59592 2.5842 3.4762 30.598 3.4762 34.009 0 2.8944-3.5755 5.582-5.1646 3.9281-0.4966-0.51685-1.7878-9.3033-2.781-19.434-1.0925-10.234-2.185-20.881-2.483-23.672l-0.59592-5.1685 3.4762 4.1348c1.9864 2.2741 3.7741 5.0651 4.0721 6.2022zm80.151 38.971c1.0925 1.0337 1.7878 5.1685 2.6816 16.332 1.4898 20.157 1.6884 18.607-2.3837 18.607-4.1714 0-4.0721 0.31011-5.4626-17.883-1.3905-18.503-1.3905-18.297 1.2912-18.297 1.2912 0 2.9796 0.62022 3.8735 1.2404zm78.661 1.5506c0.19865 1.0337 0.69524 7.2359 1.0925 13.748 0.29795 6.5123 1.1918 21.191 1.9864 32.562 2.7809 41.762 2.8803 47.033 1.1918 47.033-1.8871 0-2.0857-1.5506-4.2707-31.011-0.79455-12.198-2.2844-31.425-3.2775-42.692-0.89387-11.267-1.4898-20.674-1.1918-20.881 1.0925-1.2404 3.9728-0.31011 4.4694 1.2404zm-186.72 19.847c0.59592 0.93033 4.3701 34.009 9.0381 79.182 1.3905 13.645 2.7809 26.773 3.0789 29.254l0.4966 4.4449-2.483-1.6539c-1.8871-1.3438-2.5823-2.6876-2.5823-5.0651 0-6.5123-4.2708-49.411-7.5483-75.667-1.8871-14.885-3.3769-28.013-3.3769-29.254 0-2.1708 2.3837-2.9977 3.3769-1.2404zm573.17 43.209-0.69524 43.209-2.483 3.8247c-5.6612 8.6831-5.3633 10.337-5.0653-38.04l0.19864-44.346 3.6748-3.9281c1.9864-2.0674 3.9728-3.8247 4.37-3.8247 0.29796 0 0.29796 19.434 0 43.105zm-91.871 68.534c0.49659 60.058 0.39727 64.71-1.1918 66.57-0.9932 1.1371-1.8871 1.8607-2.185 1.5506-0.69523-0.82695-1.6884-131.8-0.89388-132.52 0.39728-0.41348 1.3905-0.62022 2.2844-0.51685 1.2912 0.31011 1.5891 7.6494 1.9864 64.916zm-324.38-41.141c0.69523 6.4089 3.1782 37.11 4.1714 51.582 0.59592 9.7168 0.59592 10.027-1.5891 10.75-1.1918 0.41348-2.5823 0.31012-2.9796-0.20673-0.69523-0.7236-2.8803-23.672-5.5619-59.024l-0.69523-8.4764h3.0789c2.8803 0 3.0789 0.20672 3.5755 5.3752zm-78.065 36.18c0.69525 0.72359 1.1918 3.3079 1.1918 5.8921 0 2.6876 1.1918 16.643 2.483 31.114 3.7741 39.591 4.0721 44.966 2.3837 43.932-2.5823-1.5506-4.8667-3.9281-4.3701-4.5483 0.19864-0.41348-0.19864-5.582-0.99319-11.474-0.69525-5.9955-1.5891-15.712-1.9864-21.708-0.39728-5.9955-1.2912-16.953-2.0857-24.292-1.8871-18.09-1.7878-20.157 0.39728-20.157 0.99319 0 2.2843 0.51685 2.9796 1.2404zm46.978 69.568c0.29796 2.2741 0.89388 10.75 1.2912 18.813 0.69524 15.506 0.39728 16.643-3.6748 13.438-1.1918-0.93034-1.9864-4.8584-3.1782-16.643-2.0857-21.294-2.185-20.467 1.6884-20.054 2.8803 0.31013 3.2775 0.7236 3.8735 4.4449z"/></g></svg>
