<svg xmlns="http://www.w3.org/2000/svg" viewBox="0 0 32 32"><mask id="a"><path fill="#fff" d="M25.84 44.94c-.66.84-2.02.37-2.02-.7v-10.3a2.26 2.26 0 0 0-2.26-2.26H10.18a1.13 1.13 0 0 1-.92-1.8l7.48-10.46c1.07-1.5 0-3.58-1.84-3.58H1.13a1.13 1.13 0 0 1-.92-1.79L9.91.47c.21-.3.56-.47.92-.47h28.9c.91 0 1.45 1.04.91 1.79l-7.48 10.47a2.26 2.26 0 0 0 1.85 3.58h11.37c.95 0 1.48 1.09.9 1.83z"/></mask><g mask="url(#a)" transform="translate(2.03 2.66)scale(.588)"><path d="M0 0h48v46H0z" style="fill:#863bff;fill:color(display-p3 .5252 .23 1)"/><g filter="url(#b)"><ellipse cx="10.25" cy="36.98" rx="5.51" ry="14.7" style="fill:#ede6ff;fill:color(display-p3 .9275 .9033 1)" transform="rotate(89.8 10.25 36.98)"/></g><g filter="url(#b)"><ellipse cx="-9.44" cy="18.18" rx="10.4" ry="29.85" style="fill:#ede6ff;fill:color(display-p3 .9275 .9033 1)" transform="rotate(89.8 -9.44 18.18)"/></g><g filter="url(#c)"><ellipse cx="-9.96" cy="16.73" rx="5.51" ry="30.49" style="fill:#7e14ff;fill:color(display-p3 .4922 .0767 1)" transform="rotate(89.8 -9.96 16.73)"/></g><g filter="url(#c)"><ellipse cx="-5.26" cy="34.73" rx="5.51" ry="30.6" style="fill:#7e14ff;fill:color(display-p3 .4922 .0767 1)" transform="rotate(89.8 -5.26 34.73)"/></g><g filter="url(#c)"><ellipse cx="-3.72" cy="35.88" rx="5.51" ry="30.6" style="fill:#7e14ff;fill:color(display-p3 .4922 .0767 1)" transform="rotate(89.8 -3.72 35.88)"/></g><g filter="url(#b)"><ellipse cx="53.13" cy="11.53" rx="14.07" ry="22.08" style="fill:#ede6ff;fill:color(display-p3 .9275 .9033 1)" transform="rotate(-86.6 53.13 11.53)"/></g><g filter="url(#c)"><ellipse cx="54.24" cy="14.96" rx="3.47" ry="21.5" style="fill:#7e14ff;fill:color(display-p3 .4922 .0767 1)" transform="rotate(269 54.24 14.96)"/></g><g filter="url(#c)"><ellipse cx="54.24" cy="14.96" rx="3.47" ry="21.5" style="fill:#7e14ff;fill:color(display-p3 .4922 .0767 1)" transform="rotate(269 54.24 14.96)"/></g><g filter="url(#c)"><ellipse cx=".39" cy="8.97" rx="4.41" ry="29.11" style="fill:#7e14ff;fill:color(display-p3 .4922 .0767 1)" transform="rotate(39.5 .39 8.97)"/></g><g filter="url(#c)"><ellipse cx="47.52" cy="-6.09" rx="4.41" ry="29.11" style="fill:#7e14ff;fill:color(display-p3 .4922 .0767 1)" transform="rotate(37.9 47.52 -6.1)"/></g><g filter="url(#c)"><ellipse cx="41.41" cy="6.33" rx="5.97" ry="9.67" style="fill:#47bfff;fill:color(display-p3 .2799 .748 1)" transform="rotate(37.9 41.41 6.33)"/></g><g filter="url(#c)"><ellipse cx="-1.88" cy="38.33" rx="4.41" ry="29.11" style="fill:#7e14ff;fill:color(display-p3 .4922 .0767 1)" transform="rotate(37.9 -1.88 38.33)"/></g><g filter="url(#c)"><ellipse cx="-1.88" cy="38.33" rx="4.41" ry="29.11" style="fill:#7e14ff;fill:color(display-p3 .4922 .0767 1)" transform="rotate(37.9 -1.88 38.33)"/></g><g filter="url(#c)"><ellipse cx="35.65" cy="29.91" rx="4.41" ry="29.11" style="fill:#7e14ff;fill:color(display-p3 .4922 .0767 1)" transform="rotate(37.9 35.65 29.9)"/></g><g filter="url(#c)"><ellipse cx="38.42" cy="32.4" rx="5.97" ry="15.3" style="fill:#47bfff;fill:color(display-p3 .2799 .748 1)" transform="rotate(37.9 38.42 32.4)"/></g></g><defs><filter id="b" width="4" height="4" x="-2" y="-2" color-interpolation-filters="sRGB"><feGaussianBlur stdDeviation="7.66"/></filter><filter id="c" width="4" height="4" x="-2" y="-2" color-interpolation-filters="sRGB"><feGaussianBlur stdDeviation="4.6"/></filter></defs></svg>