<svg xmlns="http://www.w3.org/2000/svg" version="1.0" viewBox="0 0 32 32"><path fill="#007acc" d="M2 2h28v28H2z"/><path fill="#fff" d="M4.4 9.88v3.04h4.8V26.4H13V12.92h4.8V9.88zm20.5 4.94a4.33 4.33 0 0 0-4.21 2.55c-.37.73-.5 1.27-.5 2.01 0 .74.16 1.36.55 2.15.25.5.62 1.07 1.05 1.6l.8.98c.6.74.85 1.1 1.07 1.58.23.48.32.81.3 1.15a1.43 1.43 0 0 1-.87 1.2c-.35.14-1.01.13-1.5-.02a6.59 6.59 0 0 1-2.64-1.58 6.54 6.54 0 0 1-1.43-1.94l-.22-.45-.85 1.63-.84 1.62.13.18a10.48 10.48 0 0 0 2.94 2.43l.17.09h7.9c0-.02.12-.22.24-.38.42-.6.8-1.44.92-2.1a5.1 5.1 0 0 0-.01-1.51 7.94 7.94 0 0 0-1.78-3.29c-1.4-1.73-1.7-2.2-1.88-2.87-.1-.38-.1-.5 0-.82.14-.43.52-.8.99-.91.25-.06 1-.02 1.33.08a7.1 7.1 0 0 1 3.19 2.16l.25.3v-4.01l-.1-.07c-.5-.33-1.62-.9-2.21-1.14-1-.4-1.94-.6-2.8-.62z"/></svg>