<svg viewBox="0 0 32 32" xmlns="http://www.w3.org/2000/svg"><path d="m12.447 12.265v-1.674c.163-.012.327-.02.494-.026 4.577-.143 7.581 3.934 7.581 3.934s-3.244 4.501-6.722 4.501a4.2 4.2 0 0 1 -1.353-.217v-5.071c1.782.215 2.14 1 3.212 2.788l2.383-2.009a6.312 6.312 0 0 0 -4.672-2.281 8.606 8.606 0 0 0 -.923.055m0-5.529v2.5c.164-.013.329-.024.494-.03 6.366-.214 10.513 5.221 10.513 5.221s-4.764 5.792-9.726 5.792a7.4 7.4 0 0 1 -1.281-.112v1.545a8.528 8.528 0 0 0 1.067.069c4.618 0 7.958-2.358 11.192-5.15.535.43 2.731 1.474 3.182 1.932-3.075 2.574-10.241 4.649-14.3 4.649-.392 0-.769-.024-1.138-.06v2.172h17.55v-18.528zm0 12.051v1.32c-4.271-.762-5.457-5.2-5.457-5.2a9.234 9.234 0 0 1 5.457-2.64v1.447h-.006a4.1 4.1 0 0 0 -3.184 1.456s.782 2.811 3.19 3.62m-7.586-4.077a10.576 10.576 0 0 1 7.586-4.122v-1.355c-5.599.449-10.447 5.191-10.447 5.191s2.746 7.939 10.447 8.665v-1.44c-5.647-.711-7.586-6.939-7.586-6.939z" fill="#80bc00"/></svg>