<svg id="file_type_trunk" xmlns="http://www.w3.org/2000/svg" viewBox="0 0 32 32"><g id="icon"><path d="M16,29.92v-3a11.07,11.07,0,0,0,6.09-1.83,10.93,10.93,0,0,0,4-4.89A10.88,10.88,0,0,0,23.75,8.3,11,11,0,0,0,6.89,10,10.87,10.87,0,0,0,5.05,16H2A13.85,13.85,0,0,1,4.36,8.27a14,14,0,0,1,25.37,5,13.89,13.89,0,0,1-5.95,14.29A14.08,14.08,0,0,1,16,29.92Z" style="fill:#fb6a5b"/><path d="M9.2,16h-3A9.8,9.8,0,0,1,9,9.08a9.9,9.9,0,0,1,7-2.86v3A6.79,6.79,0,0,0,9.2,16Z" style="fill:#fb6a5b"/><path d="M21.68,16h-3A2.66,2.66,0,0,0,16,13.36a2.67,2.67,0,0,0-1.88.78A2.63,2.63,0,0,0,13.34,16h-3a5.68,5.68,0,0,1,11.36,0Z" style="fill:#fb6a5b"/></g></svg>
