<svg xmlns="http://www.w3.org/2000/svg" viewBox="0 0 32 32"><title>file_type_source@2x</title><g id="source"><path d="M14.19,27a1.2,1.2,0,0,1-.28,0,1.39,1.39,0,0,1-1-1.62L16.56,6.11a1.38,1.38,0,0,1,.59-.91A1.19,1.19,0,0,1,18.08,5a1.39,1.39,0,0,1,1,1.62L15.44,25.9a1.38,1.38,0,0,1-.59.91A1.2,1.2,0,0,1,14.19,27Z" style="fill:#06cc14"/><path d="M21.44,24.27h-.09a1.24,1.24,0,0,1-.89-.5,1.46,1.46,0,0,1,.14-1.89l6.21-6.07-6.18-5.65a1.46,1.46,0,0,1-.19-1.89,1.25,1.25,0,0,1,.88-.53,1.2,1.2,0,0,1,.95.32l7.29,6.67a1.46,1.46,0,0,1,.19,1.89,1.42,1.42,0,0,1-.19.22l-7.26,7.1A1.22,1.22,0,0,1,21.44,24.27Z" style="fill:#06cc14"/><path d="M10.56,24.28a1.22,1.22,0,0,1-.85-.36l-7.27-7.1a1.2,1.2,0,0,1-.18-.21,1.46,1.46,0,0,1,.19-1.89l7.3-6.67a1.17,1.17,0,0,1,.94-.32,1.25,1.25,0,0,1,.89.53,1.46,1.46,0,0,1-.19,1.89L5.2,15.81l6.21,6.07a1.46,1.46,0,0,1,.13,1.89,1.24,1.24,0,0,1-.89.5Z" style="fill:#06cc14"/></g></svg>