<svg xmlns="http://www.w3.org/2000/svg" viewBox="0 0 32 32"><title>file_type_ng_smart_component_dart</title><path d="M2.75,6.668,15.85,2V29.987L4.787,23.87Z" style="fill:#93000e"/><path d="M15.85,2l13.4,4.588-2.187,17.2-11.213,6.2Z" style="fill:#4a0007"/><path d="M15.85,5.138,24.367,23.36H21.46L19.643,19.2H15.85V16.723h2.766L15.85,11l-2.326,5.727H15.85V19.2H12.385L10.757,23.36H7.623Z" style="fill:#fff"/><path d="M29.035,22.675l-1.744-1.7-.009-.009a3.065,3.065,0,0,0-1.585-.744l-.443-1.061a.262.262,0,0,0-.059-.088l-1.421-1.415a.859.859,0,0,0-.562-.247l-.034,0h0a.827.827,0,0,0-.561.218l-3.6,2.071a.275.275,0,0,0-.223.23l-2.062,3.554a.829.829,0,0,0,.028,1.152l1.77,1.763a.255.255,0,0,0,.094.061l.749.294a3.051,3.051,0,0,0,.717,1.42l.009.009,1.709,1.74a.279.279,0,0,0,.2.083H26.9a.276.276,0,0,0,.271-.223l.286-1.491,1.438-.273a.274.274,0,0,0,.224-.27l0-4.873A.272.272,0,0,0,29.035,22.675Z" style="fill:#fff"/><path d="M19.094,19.968l-2.136,3.68,0,0a.57.57,0,0,0-.163.394.557.557,0,0,0,.166.4l1.77,1.764,6.921,2.713,1.565-.866-.043-.043h-.011L22.82,23.68h0Z" style="fill:#215896"/><path d="M23.178,17.69a.563.563,0,0,0-.394.162l0,0-3.7,2.129,3.687,3.674v0L27.2,28.08l.845-1.517L25,19.274l-1.421-1.415a.562.562,0,0,0-.4-.166Z" style="fill:#66c3fa"/><path d="M19.069,19.974l3.771,3.762h0l4.341,4.331,1.653-.314,0-4.873-1.744-1.7a2.807,2.807,0,0,0-1.56-.693v-.019Z" style="fill:#235997"/><path d="M19.1,19.994l3.773,3.76v0l4.342,4.328L26.9,29.733H22.008L20.3,27.993a2.786,2.786,0,0,1-.694-1.555h-.019Z" style="fill:#58b6f0"/></svg>