<svg viewBox="0 0 32 32" xmlns="http://www.w3.org/2000/svg"><path d="M2 10.944c0-3.13 0-4.696.61-5.892a5.595 5.595 0 0 1 2.448-2.443c1.198-.61 2.766-.61 5.902-.61h10.08c3.136 0 4.704 0 5.902.61a5.595 5.595 0 0 1 2.448 2.443c.61 1.196.61 2.761.61 5.892v10.062c0 3.13 0 4.696-.61 5.892a5.596 5.596 0 0 1-2.448 2.443c-1.198.61-2.766.61-5.902.61H10.96c-3.136 0-4.704 0-5.902-.61a5.596 5.596 0 0 1-2.448-2.443C2 25.702 2 24.137 2 21.006V10.944z" fill="#4F51E5"/><path d="M16.56 16.922c0-.214.174-.387.388-.387H21.6a5.036 5.036 0 0 1 5.04 5.03c0 2.78-2.256 5.032-5.04 5.032s-5.04-2.253-5.04-5.031v-4.644zM16.56 15.029c0 .214.174.387.388.387H21.6a5.036 5.036 0 0 0 5.04-5.03c0-2.78-2.256-5.032-5.04-5.032s-5.04 2.253-5.04 5.031v4.644zM15.44 16.922a.388.388 0 0 0-.388-.387H10.4a5.036 5.036 0 0 0-5.04 5.03 5.036 5.036 0 0 0 5.04 5.032 5.036 5.036 0 0 0 5.04-5.031v-4.644zM15.44 15.029a.388.388 0 0 1-.388.387H10.4a5.036 5.036 0 0 1-5.04-5.03 5.036 5.036 0 0 1 5.04-5.032 5.036 5.036 0 0 1 5.04 5.031v4.644z" fill="#fff"/></svg>