<svg version="1.1" xmlns="http://www.w3.org/2000/svg" viewBox="0 0 32 32"><path fill="#d23e31" d="M8.667 2.812c-0.221 0.219-0.396 0.417-0.39 0.438s-0.004 0.030-0.022 0.020c-0.047-0.029-0.397 0.337-0.362 0.376 0.016 0.018 0.011 0.022-0.013 0.008-0.045-0.025-0.244 0.173-0.244 0.243 0 0.023-0.013 0.033-0.029 0.023-0.037-0.023-0.127 0.074-0.096 0.104 0.013 0.013 0.002 0.023-0.023 0.023-0.060 0-0.234 0.174-0.234 0.234 0 0.025-0.010 0.036-0.023 0.024-0.024-0.024-0.336 0.264-0.753 0.692-0.7 0.72-1.286 1.291-1.304 1.274-0.012-0.012-0.021 0.009-0.021 0.046s-0.017 0.055-0.038 0.042c-0.035-0.021-0.055 0.029-0.042 0.105 0.002 0.016-0.017 0.024-0.043 0.019s-0.043 0.013-0.037 0.041c0.006 0.028-0.006 0.041-0.025 0.029s-0.128 0.075-0.24 0.193c-0.316 0.333-0.72 0.734-1.024 1.017-0.152 0.142-0.265 0.258-0.251 0.258s-0.030 0.047-0.1 0.105c-0.249 0.205-0.689 0.678-0.729 0.783-0.014 0.037-0.052 0.067-0.084 0.067s-0.059 0.027-0.059 0.059-0.014 0.051-0.030 0.041c-0.039-0.024-0.738 0.647-0.706 0.678 0.013 0.013 0.002 0.024-0.024 0.024s-0.134 0.090-0.239 0.2c-0.502 0.524-0.802 0.831-0.814 0.831-0.007 0-0.16 0.147-0.341 0.326l-0.328 0.326v9.032c0 6.176 0.012 9.055 0.039 9.106 0.058 0.108 0.118 0.089 0.247-0.076 0.063-0.081 0.128-0.139 0.143-0.129s0.029-0.013 0.029-0.049 0.009-0.057 0.021-0.045c0.020 0.020 2.899-2.819 4.934-4.866 0.173-0.174 0.796-0.796 1.384-1.381s1.058-1.082 1.044-1.104c-0.013-0.022-0.008-0.029 0.012-0.017 0.052 0.032 0.25-0.159 0.218-0.21-0.015-0.024-0.008-0.031 0.016-0.016 0.043 0.027 0.199-0.114 0.199-0.181 0-0.020 0.009-0.028 0.021-0.017 0.071 0.072 0.863-0.833 0.842-0.963-0.012-0.074-0.022-4.185-0.022-9.136s-0.013-9.001-0.029-8.999-0.209 0.183-0.429 0.402zM22.214 2.895c-0.268 0.268-0.487 0.51-0.487 0.54s-0.011 0.042-0.023 0.029c-0.018-0.019-1.229 1.165-2.765 2.703-0.084 0.084-0.771 0.774-1.527 1.532l-1.374 1.379v9.15c0 5.033 0.009 9.15 0.021 9.15 0.042 0 0.203-0.183 0.181-0.206-0.013-0.013 0.001-0.023 0.031-0.024s0.166-0.124 0.302-0.275c0.136-0.15 0.358-0.377 0.492-0.505s0.487-0.478 0.783-0.78c0.296-0.302 0.647-0.654 0.78-0.783 0.679-0.66 1.153-1.132 1.139-1.132-0.009 0 0.141-0.16 0.333-0.356s0.362-0.35 0.378-0.341 0.029-0.015 0.029-0.051 0.011-0.055 0.023-0.042c0.029 0.029 0.129-0.067 0.129-0.125 0-0.023 0.013-0.036 0.029-0.027 0.027 0.016 0.23-0.17 0.21-0.192-0.005-0.006 0.003-0.014 0.019-0.018 0.053-0.014 0.116-0.088 0.099-0.117-0.010-0.016 0.011-0.029 0.045-0.029s0.051-0.017 0.038-0.038c-0.013-0.021-0.008-0.038 0.011-0.038s0.407-0.369 0.862-0.819l0.827-0.819v-9.068c0-4.988-0.011-9.095-0.023-9.128-0.036-0.094-0.041-0.089-0.559 0.428z"></path><path fill="#3b3e43" d="M9.126 2.368c0 0.021 0.026 0.038 0.057 0.038s0.057-0.017 0.057-0.038c0-0.021-0.026-0.038-0.057-0.038s-0.057 0.017-0.057 0.038zM9.228 2.431c-0.014 0.014-0.025 4.134-0.024 9.156l0.002 9.13 1.626 1.604c1.36 1.341 3.41 3.366 4.223 4.17 0.11 0.109 0.347 0.353 0.525 0.542s0.346 0.345 0.372 0.346c0.038 0.002 0.048-1.851 0.048-9.145v-9.147l-0.176-0.161c-0.097-0.088-0.282-0.269-0.411-0.4-0.204-0.207-0.758-0.763-1.557-1.561-0.123-0.123-0.465-0.47-0.759-0.769s-0.534-0.535-0.534-0.523-0.116-0.1-0.258-0.249c-0.142-0.149-0.524-0.536-0.85-0.86-0.654-0.651-0.8-0.798-1.597-1.604-0.537-0.543-0.58-0.579-0.631-0.528zM22.859 2.491c-0.013 0.047-0.023 4.164-0.023 9.149v9.063l4.487 4.484c3.557 3.554 4.507 4.484 4.583 4.484h0.095v-18.218l-4.525-4.524c-2.489-2.488-4.54-4.524-4.559-4.524s-0.044 0.039-0.057 0.086z"></path><path fill="#000" d="M22.796 2.396c-0.017 3.266-0.010 18.289 0.009 18.269 0.037-0.037 0.057-18.298 0.019-18.298-0.016 0-0.029 0.013-0.029 0.029zM9.129 11.447c0.002 4.972 0.017 9.084 0.034 9.136s0.036-4.016 0.044-9.041c0.011-7.29 0.004-9.136-0.034-9.136s-0.047 1.831-0.044 9.041zM16.018 18.234c0 5.041 0.005 7.097 0.010 4.57s0.006-6.651 0-9.165c-0.006-2.513-0.010-0.446-0.010 4.595zM21.65 21.795l-0.247 0.258 0.258-0.247c0.24-0.229 0.275-0.269 0.247-0.269-0.006 0-0.122 0.116-0.258 0.258z"></path><path fill="#000" d="M4.113 7.332c-0.036 0.042-0.052 0.076-0.036 0.076s0.059-0.035 0.095-0.076c0.036-0.042 0.052-0.076 0.036-0.076s-0.059 0.035-0.095 0.076zM2.578 8.857c-0.014 0.023-0.012 0.041 0.006 0.041s0.005 0.017-0.026 0.038c-0.040 0.026-0.042 0.037-0.008 0.038 0.027 0 0.059-0.026 0.071-0.059 0.027-0.071-0.006-0.116-0.042-0.058zM20.098 23.32c-0.193 0.196-0.338 0.362-0.325 0.37s0.183-0.147 0.377-0.342c0.194-0.195 0.34-0.362 0.325-0.37s-0.185 0.146-0.377 0.342zM3.796 26.053l-0.112 0.124 0.124-0.112c0.068-0.062 0.124-0.117 0.124-0.124 0-0.029-0.031-0.004-0.136 0.112zM0.247 29.557c-0.038 0.042-0.060 0.076-0.050 0.076s0.059-0.035 0.107-0.076 0.071-0.076 0.050-0.076c-0.021 0-0.069 0.035-0.107 0.076z"></path></svg>