<?xml version="1.0" encoding="utf-8"?>
<svg viewBox="0 0 32 32" width="32" height="32" xmlns="http://www.w3.org/2000/svg">
  <path d="M 11.276 7.366 L 11.276 27.016 L 8.496 27.016 L 8.496 7.366 L 1.616 7.366 L 1.616 4.966 L 18.226 4.966 L 17.936 7.366 L 11.276 7.366 ZM 29.197 19.433 L 29.197 21.613 L 26.347 21.613 L 26.347 26.953 L 23.757 26.953 L 23.757 21.613 L 14.597 21.613 L 14.597 19.623 L 21.067 4.553 L 23.307 5.513 L 17.447 19.433 L 23.787 19.433 L 24.007 13.193 L 26.347 13.193 L 26.347 19.433 L 29.197 19.433 Z" transform="matrix(1, 0, 0, 1, 0, 0)" style="fill: rgb(255, 255, 255); white-space: pre;"/>
  <path d="M 11.964 7.992 L 11.964 27.642 L 9.184 27.642 L 9.184 7.992 L 2.304 7.992 L 2.304 5.592 L 18.914 5.592 L 18.624 7.992 L 11.964 7.992 ZM 29.885 20.059 L 29.885 22.239 L 27.035 22.239 L 27.035 27.579 L 24.445 27.579 L 24.445 22.239 L 15.285 22.239 L 15.285 20.249 L 21.755 5.179 L 23.995 6.139 L 18.135 20.059 L 24.475 20.059 L 24.695 13.819 L 27.035 13.819 L 27.035 20.059 L 29.885 20.059 Z" transform="matrix(1, 0, 0, 1, 0, 0)" style="fill: rgb(51, 51, 51); white-space: pre;"/>
</svg>