<svg xmlns="http://www.w3.org/2000/svg" viewBox="0 0 32 32"><title>file_type_light_codacy</title><path d="M6.534,13.451A9.827,9.827,0,0,1,11.1,7.5L9,3.856a14.036,14.036,0,0,0-6.522,8.5Z"/><path d="M13.464,6.529A9.837,9.837,0,0,1,15.993,6.2V2a14.016,14.016,0,0,0-3.617.472Z"/><path d="M18.546,6.529A9.819,9.819,0,0,1,24.484,11.1l3.641-2.1a14.028,14.028,0,0,0-8.482-6.522Z"/><path d="M2.005,16a14.033,14.033,0,0,0,.472,3.617l4.057-1.088a9.77,9.77,0,0,1-.328-2.537h-4.2Z"/><path d="M3.878,23.006a14.036,14.036,0,0,0,2.217,2.9l2.969-2.969A9.969,9.969,0,0,1,7.5,20.909Z"/><path d="M9,28.127A13.9,13.9,0,0,0,15.985,30V25.8A9.739,9.739,0,0,1,11.1,24.487Z"/><path d="M24.475,20.909a9.819,9.819,0,0,1-5.946,4.553l1.088,4.057a14.028,14.028,0,0,0,8.491-6.514Z"/><path d="M29.517,19.765a14.051,14.051,0,0,0,0-7.266l-4.065,1.088a9.809,9.809,0,0,1,0,5.09Z"/></svg>