<svg viewBox="0 0 32 32" xmlns="http://www.w3.org/2000/svg"><path d="m15.958 2a14 14 0 0 1 .091 28h-.091a14 14 0 0 1 0-28z" fill="#00b3e0"/><path d="m11.971 27.829 5.346-5.165a6.515 6.515 0 0 1 -5.709-1.269 6.744 6.744 0 0 1 -2.447-6.162l-4.8 5.256a9.265 9.265 0 0 1 -.815-3.353l8.427-6.615a7.068 7.068 0 0 1 8.427 0 6.849 6.849 0 0 1 1.269 9.152l-6.169 8.79a11.6 11.6 0 0 1 -3.534-.634z" fill="#fff"/><path d="m19.4 18.676a4.389 4.389 0 1 1 -6.887-5.437 4.686 4.686 0 0 1 6.343-.815 4.362 4.362 0 0 1 .544 6.252z" fill="#00b3e0"/></svg>