<svg viewBox="0 0 32 32" xmlns="http://www.w3.org/2000/svg"><g fill="#20744a"><path d="m28.781 4.405h-10.13v-2.387l-16.651 2.57v22.527l16.651 2.868v-3.538h10.13a1.162 1.162 0 0 0 1.219-1.096v-19.849a1.162 1.162 0 0 0 -1.219-1.095zm.16 21.126h-10.324l-.017-1.889h2.487v-2.2h-2.506l-.012-1.3h2.518v-2.2h-2.537l-.012-1.3h2.549v-2.2h-2.557v-1.3h2.557v-2.2h-2.557v-1.3h2.557v-2.2h-2.557v-2h10.411z" fill-rule="evenodd"/><path d="m22.487 7.439h4.323v2.2h-4.323z"/><path d="m22.487 10.94h4.323v2.2h-4.323z"/><path d="m22.487 14.441h4.323v2.2h-4.323z"/><path d="m22.487 17.942h4.323v2.2h-4.323z"/><path d="m22.487 21.443h4.323v2.2h-4.323z"/></g><path d="m6.347 10.673 2.146-.123 1.349 3.709 1.594-3.862 2.146-.123-2.606 5.266 2.606 5.279-2.269-.153-1.532-4.024-1.533 3.871-2.085-.184 2.422-4.663z" fill="#fff" fill-rule="evenodd"/></svg>