<svg xmlns="http://www.w3.org/2000/svg" fill="none" viewBox="0 0 32 32"><mask id="a"><path fill="#fff" d="M36.76 42.97c-.33.6-1.1.76-1.65.36L15.96 29.41a1.2 1.2 0 0 1-.46-.92V11.71c0-.93 1.05-1.46 1.8-.92L29 19.31c1.1.8 2.65.46 3.3-.72l9.71-17.25c.2-.35.58-.57.99-.57h15.57c.87 0 1.41.93.99 1.68z"/></mask><g mask="url(#a)" transform="translate(1 6.8)scale(.393)"><path fill="#00ff74" d="M0 0h60v44H0z"/><g filter="url(#b)"><ellipse cx="41.46" cy="10.01" fill="#00d0c7" rx="14.03" ry="3.39" transform="rotate(130.6 41.46 10.01)"/></g><g filter="url(#b)"><ellipse cx="18.43" cy="30.51" fill="#00d0c7" rx="14.03" ry="6.09" transform="rotate(234 18.43 30.5)"/></g><g filter="url(#b)"><ellipse cx="21.94" cy="12.96" fill="#03ff00" rx="6.37" ry="5.55" transform="rotate(23.1 21.94 12.96)"/></g><g filter="url(#b)"><ellipse cx="56.27" cy="16.72" fill="#03ff00" rx="5.61" ry="24.53" transform="rotate(23.1 56.27 16.72)"/></g><g filter="url(#b)"><ellipse cx="51.35" cy="1.06" fill="#6effe1" rx="4.99" ry="10.07" transform="rotate(-45 51.35 1.06)"/></g></g><path fill="#08060e" d="M3.72 6.8C.1 11.98.08 20 3.72 25.2h2.45c-3.64-5.2-3.62-13.22 0-18.4zm24.56 0h-2.45c3.62 5.18 3.64 13.2 0 18.4h2.45c3.64-5.2 3.62-13.22 0-18.4"/><defs><filter id="b" width="4" height="4" x="-2" y="-2" color-interpolation-filters="sRGB"><feGaussianBlur stdDeviation="4.6"/></filter></defs></svg>