<svg xmlns="http://www.w3.org/2000/svg" xmlns:xlink="http://www.w3.org/1999/xlink" id="euZnEzdg2vA1" viewBox="0 0 32 32" shape-rendering="geometricPrecision" text-rendering="geometricPrecision">
  <title>file_type_wdio</title>
  <g transform="matrix(.757332 0 0 0.723576 3.882688 4.44)">
    <path d="M2.5,0h27C30.878906,0,32,1.121094,32,2.5v27c0,1.378906-1.121094,2.5-2.5,2.5h-27C1.121094,32,0,30.878906,0,29.5v-27C0,1.121094,1.121094,0,2.5,0Zm0,0" fill="#ea5906" fill-rule="evenodd"/>
    <path d="M4,8v16h-1L3,8ZM21.5,8c4.417969,0,8,3.582031,8,8s-3.582031,8-8,8-8-3.582031-8-8s3.582031-8,8-8Zm-8,0L7.054688,24L6,24L12.445312,8Zm8,1c-3.867188,0-7,3.132812-7,7s3.132812,7,7,7s7-3.132812,7-7-3.132812-7-7-7Zm0,0" fill="#fff" fill-rule="evenodd"/>
  </g>
</svg>