<svg viewBox="0 0 32 32" xmlns="http://www.w3.org/2000/svg"><path d="m29.007 17.4h.037a1.449 1.449 0 0 0 .938-.316 1.473 1.473 0 0 0 .519-1.031v-.153a1.413 1.413 0 0 0 -1.376-1.3h-.009c-.687 0-1.374 0-2.062 0h-1.554v-2.644h3.513.034a1.411 1.411 0 0 0 1.453-1.356v-.09-.032a1.412 1.412 0 0 0 -.646-1.1 1.455 1.455 0 0 0 -.835-.225h-3.563a2.96 2.96 0 0 0 -.278-1.034 2.909 2.909 0 0 0 -1.7-1.461 2.684 2.684 0 0 0 -.629-.13v-1.581c0-.69 0-1.38 0-2.063a1.414 1.414 0 0 0 -1.368-1.384h-.116a1.4 1.4 0 0 0 -1.319 1.388q0 1.154 0 2.306v1.306h-2.646v-1.519c0-.7 0-1.4 0-2.087a1.41 1.41 0 0 0 -1.347-1.394h-.153a1.408 1.408 0 0 0 -1.3 1.383v2.064 1.561q-1.319 0-2.639 0v-1.62c0-.666 0-1.332 0-1.989a1.366 1.366 0 0 0 -.4-.975 1.4 1.4 0 0 0 -.984-.424h-.077a1.41 1.41 0 0 0 -1.341 1.381v2.049 1.6a2.933 2.933 0 0 0 -2.466 1.9 2.878 2.878 0 0 0 -.161.726h-1.575c-.693 0-1.386 0-2.073 0h-.008a1.413 1.413 0 0 0 -1.376 1.344v.095a1.417 1.417 0 0 0 .575 1.091 1.463 1.463 0 0 0 .887.273h.017 3.522v2.641h-1.553c-.686 0-1.375 0-2.057 0a1.428 1.428 0 0 0 -1.391 1.313v.187a1.4 1.4 0 0 0 1.386 1.3h2.135 1.479v2.65h-.292c-.613-.007-1.226 0-1.838 0h-1.283a1.633 1.633 0 0 0 -.918.211 1.437 1.437 0 0 0 -.669 1.139v.1a1.417 1.417 0 0 0 1.375 1.337h.005q.645 0 1.29 0h2.376a2.832 2.832 0 0 0 1.978 2.5 2.712 2.712 0 0 0 .631.128v1.62 2.025a1.4 1.4 0 1 0 2.8-.092v-3.527h2.645v3.516a1.414 1.414 0 0 0 1.347 1.493h.153a1.411 1.411 0 0 0 1.3-1.385q.006-1.066 0-2.131v-1.484h2.644v3.6a1.423 1.423 0 0 0 1.356 1.4h.119a1.408 1.408 0 0 0 1.16-.741 1.643 1.643 0 0 0 .167-.833v-3.452a2.671 2.671 0 0 0 .62-.128 2.928 2.928 0 0 0 1.886-1.888 2.834 2.834 0 0 0 .123-.613h1.581 2.057.008a1.422 1.422 0 0 0 1.379-1.364v-.118a1.409 1.409 0 0 0 -1.382-1.318c-.718 0-1.436 0-2.154 0h-1.464v-2.645z" fill="#c5c5c5" opacity=".3"/><g fill="#1a348f"><path d="m10.515 2h.056a.91.91 0 0 1 .886.893c.006 1.108 0 2.216 0 3.324-.6 0-1.2 0-1.8 0 0-1.111 0-2.222 0-3.333a.907.907 0 0 1 .858-.884z"/><path d="m15.937 2h.116a.912.912 0 0 1 .846.889c.006 1.109 0 2.219 0 3.329h-1.799c0-1.11 0-2.22 0-3.33a.911.911 0 0 1 .837-.888z"/><path d="m21.392 2h.089a.907.907 0 0 1 .859.881c.007 1.112 0 2.225 0 3.337h-1.8c0-1.109 0-2.217 0-3.326a.912.912 0 0 1 .852-.892z"/><path d="m2 10.518a.908.908 0 0 1 .882-.859c1.112-.007 2.223 0 3.334 0q0 .9 0 1.8c-1.079 0-2.158 0-3.237 0a.983.983 0 0 1 -.6-.173.924.924 0 0 1 -.379-.715z"/><path d="m25.786 9.655h3.233a1 1 0 0 1 .561.143.924.924 0 0 1 .42.716v.058a.933.933 0 0 1 -.3.651.957.957 0 0 1 -.677.234c-1.079 0-2.158 0-3.237 0q0-.901 0-1.802z"/><path d="m2 15.944a.913.913 0 0 1 .888-.842c1.109-.007 2.219 0 3.328 0q0 .9 0 1.8c-1.109 0-2.217 0-3.326 0a.915.915 0 0 1 -.89-.839z"/><path d="m25.786 15.1h3.326a.914.914 0 0 1 .889.835v.117a.946.946 0 0 1 -.331.641.973.973 0 0 1 -.651.207h-3.233q-.001-.9 0-1.8z"/><path d="m2.433 20.678a1.121 1.121 0 0 1 .643-.136c1.043.006 2.086-.006 3.129.006.028.6 0 1.2.012 1.8-1.11 0-2.221 0-3.331 0a.911.911 0 0 1 -.886-.865v-.083a.925.925 0 0 1 .433-.722z"/><path d="m25.786 20.543h3.324a.914.914 0 0 1 .89.847v.09a.911.911 0 0 1 -.888.859c-1.109.007-2.218 0-3.326 0 0-.596-.001-1.196 0-1.796z"/><path d="m9.656 25.781h1.8v3.243a.957.957 0 0 1 -.235.677.931.931 0 0 1 -.653.3h-.052a.907.907 0 0 1 -.86-.882c-.005-1.113.002-2.225 0-3.338z"/><path d="m15.1 25.781h1.8v3.33a.914.914 0 0 1 -.836.889h-.116a.94.94 0 0 1 -.619-.306.962.962 0 0 1 -.228-.673q-.001-1.621-.001-3.24z"/><path d="m20.547 29.106c0-1.108 0-2.217 0-3.325h1.8v3.144a1.178 1.178 0 0 1 -.105.59.92.92 0 0 1 -.756.484h-.086a.911.911 0 0 1 -.853-.893z"/><path d="m24.732 8.349a2.429 2.429 0 0 0 -1.422-1.218 3.245 3.245 0 0 0 -1.056-.131c-4.3.008-8.6-.011-12.905.01a2.436 2.436 0 0 0 -2.192 1.596 3.611 3.611 0 0 0 -.157 1.328q0 6.25 0 12.5a2.673 2.673 0 0 0 .268 1.219 2.431 2.431 0 0 0 1.42 1.217 3.756 3.756 0 0 0 1.239.13h12.143a3.762 3.762 0 0 0 1.243-.127 2.429 2.429 0 0 0 1.562-1.573 3.8 3.8 0 0 0 .125-1.229q0-6.25 0-12.5a2.686 2.686 0 0 0 -.268-1.222z"/></g><path d="m7.5 8.307.084-.2q.968 0 1.935.024h.394q.179 0 .394-.012.776-.036 2.807-.036.406 0 .788.006t.741.018a.234.234 0 0 1 .108.108l-.024.191q-.072.119-.358.119h-.1a10.3 10.3 0 0 0 -1.1.054 2.179 2.179 0 0 0 -1 .245.432.432 0 0 0 -.155.346 4.05 4.05 0 0 0 .394 1.4l1.818 4.217.634 1.4q.921 2.222 1.819 4.539.1.251.179.454l.8-1.959q.62-1.481 1.252-3.154l.823-2.246q.024-.072.131-.478a17.026 17.026 0 0 0 1.157-4 .561.561 0 0 0 -.161-.364 1.165 1.165 0 0 0 -.52-.3 7.723 7.723 0 0 0 -.932-.143l-.884-.108a.337.337 0 0 1 -.108-.2l.036-.1 3.87-.036h1.278a3.1 3.1 0 0 1 .885.084l.012.1a.641.641 0 0 1 -.072.251 2.449 2.449 0 0 1 -.526.119 3.6 3.6 0 0 0 -1.244.281 1.815 1.815 0 0 0 -.5.687l-3.134 7.765q-1.466 3.5-2.086 5.423l-.345 1.039a.531.531 0 0 1 -.263.1 1.383 1.383 0 0 1 -.3-.036q-1.422-3.676-2.318-5.681l-3.654-8.304a3.247 3.247 0 0 0 -.591-.89 5.463 5.463 0 0 0 -1.379-.424 4.347 4.347 0 0 1 -.466-.119.326.326 0 0 1 -.119-.18z" fill="#c5c2ff"/></svg>