<svg xmlns="http://www.w3.org/2000/svg" xmlns:xlink="http://www.w3.org/1999/xlink" viewBox="0 0 32 32"><defs><linearGradient id="linear-gradient" x1="-3.61" y1="-492.68" x2="-3.61" y2="-480.27" gradientTransform="translate(19.71 502.89)" gradientUnits="userSpaceOnUse"><stop offset="0.15" stop-color="#2a4f84"/><stop offset="0.39" stop-color="#294e82"/><stop offset="1" stop-color="#172e4e"/></linearGradient></defs><title>file_type_less@2x</title><g id="less"><path d="M28.56,20.23a2.4,2.4,0,0,1-2.39,2.39H6a2.4,2.4,0,0,1-2.39-2.39V12.6A2.4,2.4,0,0,1,6,10.21H26.16a2.4,2.4,0,0,1,2.39,2.39Z" style="fill:url(#linear-gradient)"/><path d="M24.35,16.25a2,2,0,0,1,1.58,1.89,1.69,1.69,0,0,1-.65,1.4,2.93,2.93,0,0,1-1.86.56,4.56,4.56,0,0,1-2.24-.62,2,2,0,0,1,.16-.67,1.83,1.83,0,0,1,.35-.58,3.7,3.7,0,0,0,1.65.49,1,1,0,0,0,.51-.11.34.34,0,0,0,.18-.3q0-.35-.55-.53l-.65-.25q-1.48-.54-1.48-1.76A1.75,1.75,0,0,1,22,14.36a2.59,2.59,0,0,1,1.68-.65,5.09,5.09,0,0,1,1.15.15,4.56,4.56,0,0,1,1,.47,1.67,1.67,0,0,1-.13.72,1.22,1.22,0,0,1-.38.56,4.26,4.26,0,0,0-1.66-.45.54.54,0,0,0-.36.11.34.34,0,0,0-.12.27q0,.28.45.45l.74.26Z" style="fill:#f6f6f6"/><path d="M19.1,16.25a2,2,0,0,1,1.58,1.89,1.69,1.69,0,0,1-.65,1.4,2.94,2.94,0,0,1-1.86.56,4.56,4.56,0,0,1-2.24-.62,2,2,0,0,1,.16-.67,1.82,1.82,0,0,1,.35-.58,3.7,3.7,0,0,0,1.65.49,1,1,0,0,0,.51-.11.34.34,0,0,0,.18-.3q0-.35-.55-.53l-.65-.25q-1.48-.54-1.48-1.76a1.75,1.75,0,0,1,.62-1.42,2.58,2.58,0,0,1,1.68-.65,5.09,5.09,0,0,1,1.15.15,4.55,4.55,0,0,1,1,.47,1.67,1.67,0,0,1-.13.72,1.22,1.22,0,0,1-.38.56,4.26,4.26,0,0,0-1.66-.45.54.54,0,0,0-.36.11.34.34,0,0,0-.12.27q0,.28.45.45l.74.26Z" style="fill:#f6f6f6"/><path d="M15.26,16.33a2.82,2.82,0,0,0-.17-1,2.24,2.24,0,0,0-.49-.79,2.28,2.28,0,0,0-.78-.52,2.74,2.74,0,0,0-1-.31,2.8,2.8,0,0,0-1.18.36,2.26,2.26,0,0,0-.83.65,2.76,2.76,0,0,0-.49,1,4.4,4.4,0,0,0-.16,1.22,5.68,5.68,0,0,0,.13,1.26,2.63,2.63,0,0,0,.44,1,2.11,2.11,0,0,0,.82.66,2.93,2.93,0,0,0,1.25.28,4,4,0,0,0,2.32-.71,1.86,1.86,0,0,0-.48-1.08,6.19,6.19,0,0,1-.86.26,3.21,3.21,0,0,1-.66.08,1,1,0,0,1-.82-.29,1.19,1.19,0,0,1-.27-.77h3.08A4.45,4.45,0,0,0,15.26,16.33ZM12,16.41a2.43,2.43,0,0,1,.22-1,.63.63,0,0,1,.56-.26.66.66,0,0,1,.58.28,1.75,1.75,0,0,1,.19.86v.13H12Z" style="fill:#f6f6f6"/><path d="M29.18,17.2a1.61,1.61,0,0,0-.53,1.26v2.05A1.81,1.81,0,0,1,28,22.07a2.8,2.8,0,0,1-1.65.55h-.37v-1a1.24,1.24,0,0,0,.59-.33,1.37,1.37,0,0,0,.42-1V18.56a2.54,2.54,0,0,1,.26-1.32,2.5,2.5,0,0,1,1.2-.84,2.53,2.53,0,0,1-1.32-1.18A3,3,0,0,1,27,14.05V12.53a1.46,1.46,0,0,0-.37-1.05,1.15,1.15,0,0,0-.65-.31v-1h.93a1.68,1.68,0,0,1,1,.44,2,2,0,0,1,.67,1,2.33,2.33,0,0,1,.09.7v1.76a1.85,1.85,0,0,0,.5,1.38A2.11,2.11,0,0,0,30,16v.79a1.94,1.94,0,0,0-.82.43Z" style="fill:#f6f6f6;stroke:#404040;stroke-miterlimit:10;stroke-width:0.25px"/><path d="M5.59,10.21H5.26a1.67,1.67,0,0,0-1,.44,1.71,1.71,0,0,0-.67,1,3.53,3.53,0,0,0,0,.7v1.76A1.87,1.87,0,0,1,3,15.5,2.85,2.85,0,0,1,2,16v.79a2.55,2.55,0,0,1,.95.43,1.64,1.64,0,0,1,.58,1.27v2.05a1.78,1.78,0,0,0,.64,1.56,2.8,2.8,0,0,0,1.65.55h.42v-1a1.47,1.47,0,0,1-.64-.33,1.35,1.35,0,0,1-.37-1V18.56a2.52,2.52,0,0,0-.31-1.32,2.5,2.5,0,0,0-1.2-.84A2.53,2.53,0,0,0,5,15.22a2.86,2.86,0,0,0,.18-1.17V12.53a1.46,1.46,0,0,1,.32-1.05,1.31,1.31,0,0,1,.57-.27h.43v-1H5.59Z" style="fill:#f6f6f6;stroke:#404040;stroke-miterlimit:10;stroke-width:0.25px"/><path d="M9.54,18.53H9.22c-.35,0-.48-.18-.48-.55V11.22a1.26,1.26,0,0,0-.27-.86c-.15-.16-.41-.16-.78-.16H6.88v8.1a1.88,1.88,0,0,0,.35,1.24,1.44,1.44,0,0,0,1.14.39,7.86,7.86,0,0,0,1.27-.12,2.23,2.23,0,0,0,0-.51,2.28,2.28,0,0,0-.14-.78Z" style="fill:#f6f6f6"/></g></svg>