<svg viewBox="0 0 32 32" xmlns="http://www.w3.org/2000/svg" xmlns:xlink="http://www.w3.org/1999/xlink"><linearGradient id="a" gradientUnits="userSpaceOnUse" x1="14.834" x2="14.834" y1="16.002" y2="11.058"><stop offset="0" stop-color="#8ac23e"/><stop offset="1" stop-color="#8ac23e" stop-opacity="0"/></linearGradient><linearGradient id="b" gradientUnits="userSpaceOnUse" x1="16.475" x2="16.475" y1="8.375" y2="13.319"><stop offset="0" stop-color="#698932"/><stop offset="1" stop-color="#698932" stop-opacity="0"/></linearGradient><linearGradient id="c" gradientUnits="userSpaceOnUse" x1="19.504" x2="19.504" y1="8.375" y2="13.319"><stop offset="0" stop-color="#ffed01"/><stop offset="1" stop-color="#ffed01" stop-opacity="0"/></linearGradient><linearGradient id="d" gradientUnits="userSpaceOnUse" x1="24.861" x2="24.861" y1="8.375" y2="13.32"><stop offset="0" stop-color="#e02a89"/><stop offset="1" stop-color="#e02a89" stop-opacity="0"/></linearGradient><linearGradient id="e" gradientUnits="userSpaceOnUse" x1="26.508" x2="26.508" y1="16.002" y2="20.945"><stop offset="0" stop-color="#7f1e4f"/><stop offset="1" stop-color="#7f1e4f" stop-opacity="0"/></linearGradient><linearGradient id="f" gradientUnits="userSpaceOnUse" x1="21.149" x2="21.149" y1="16.002" y2="20.945"><stop offset="0" stop-color="#e95506"/><stop offset="1" stop-color="#e95506" stop-opacity="0"/></linearGradient><linearGradient id="g" gradientUnits="userSpaceOnUse" x1="5.487" x2="5.487" y1="16.002" y2="11.061"><stop offset="0" stop-color="#88d0f1"/><stop offset="1" stop-color="#88d0f1" stop-opacity="0"/></linearGradient><linearGradient id="h" gradientTransform="matrix(-1 0 0 -1 -350.252 -445.54)" gradientUnits="userSpaceOnUse" x1="-357.383" x2="-357.383" y1="-453.915" y2="-458.855"><stop offset="0" stop-color="#00828b"/><stop offset=".833" stop-color="#00828b" stop-opacity="0"/></linearGradient><linearGradient id="i" gradientUnits="userSpaceOnUse" x1="7.13" x2="7.13" y1="23.628" y2="18.689"><stop offset="0" stop-color="#2073ba"/><stop offset="1" stop-color="#2073ba" stop-opacity="0"/></linearGradient><linearGradient id="j" gradientUnits="userSpaceOnUse" x1="10.161" x2="10.161" y1="8.375" y2="13.315"><stop offset="0" stop-color="#8ed0e1"/><stop offset="1" stop-color="#88d0f1" stop-opacity="0"/></linearGradient><g fill-rule="evenodd"><path d="m16.014 8.375h3.948c-1.455 2.38-3.062 5-4.668 7.627h-3.951c1.607-2.622 3.213-5.247 4.671-7.627z" fill="#8dc220"/><path d="m6.67 8.375h3.951q-1.172 1.91-2.338 3.816t-2.335 3.809q1.168 1.911 2.332 3.817t2.338 3.81h-3.95q-1.172-1.9-2.338-3.81t-2.33-3.817q1.164-1.9 2.332-3.81t2.338-3.815z" fill="#44bfef"/><path d="m6.669 8.372c1.609 2.628 3.219 5.25 4.675 7.628h3.951l-4.674-7.625z" fill="#00ac71"/><path d="m19.962 8.375h-3.948q1.168 1.91 2.335 3.816t2.338 3.809q-1.172 1.911-2.338 3.817l-2.335 3.81h3.951q1.168-1.9 2.335-3.81t2.338-3.817c-.784-1.269-1.559-2.538-2.338-3.81s-1.56-2.54-2.338-3.815z" fill="#f9bc00"/><path d="m18.326 11.058h-3.954l-1.512 2.471q-.76 1.236-1.517 2.471h3.951q.76-1.238 1.52-2.474t1.512-2.468z" fill="url(#a)"/><path d="m12.987 13.319h3.951l1.512-2.471 1.512-2.473h-3.948q-.76 1.238-1.515 2.473z" fill="url(#b)"/><path d="m22.994 13.319h-3.95q-.76-1.236-1.518-2.471l-1.512-2.473h3.948q.756 1.238 1.515 2.473c.505.822 1.011 1.652 1.517 2.471z" fill="url(#c)"/><path d="m25.321 8.375h-3.951q1.168 1.913 2.332 3.816t2.342 3.809q-1.172 1.911-2.338 3.817t-2.335 3.81h3.951q1.168-1.9 2.335-3.81t2.337-3.817l-2.338-3.81q-1.168-1.902-2.335-3.815z" fill="#df1b1c"/><path d="m28.351 13.32h-3.951q-.764-1.233-1.518-2.471t-1.512-2.474h3.951q.756 1.238 1.512 2.474t1.518 2.471z" fill="url(#d)"/><path d="m23.017 20.945h3.951q.756-1.233 1.512-2.47t1.52-2.475h-3.956q-.76 1.238-1.515 2.473z" fill="url(#e)"/><path d="m17.66 20.945h3.951l1.512-2.471q.756-1.235 1.515-2.473h-3.951q-.76 1.238-1.515 2.473z" fill="url(#f)"/><path d="m8.975 11.063h-3.951c-.507.824-1.011 1.65-1.515 2.473s-1.009 1.645-1.509 2.464h3.948c.5-.821 1.008-1.646 1.512-2.468s1.008-1.646 1.515-2.469z" fill="url(#g)"/><path d="m3.644 13.314h3.95c.507-.824 1.011-1.65 1.515-2.473s1.008-1.641 1.51-2.466h-3.949c-.5.821-1.008 1.646-1.512 2.468s-1.007 1.647-1.514 2.471z" fill="url(#h)"/><path d="m3.641 18.691h3.951c.5.825 1.008 1.649 1.512 2.471s1.008 1.647 1.515 2.468h-3.951q-.761-1.23-1.518-2.468c-.505-.822-1.005-1.648-1.509-2.471z" fill="url(#i)"/><path d="m13.648 13.314h-3.948c-.507-.824-1.011-1.65-1.515-2.473s-1.011-1.641-1.512-2.466h3.948c.5.821 1.008 1.646 1.512 2.468s1.008 1.647 1.515 2.471z" fill="url(#j)"/></g></svg>