<svg xmlns="http://www.w3.org/2000/svg" viewBox="0 0 32 32"><title>file_type_gcode</title><path d="M13.383,24.78l-2.121-1.013a4.9,4.9,0,0,0,1.26.4,6.531,6.531,0,0,0,2.949-.219,8.5,8.5,0,0,0,1.924-.807,7.691,7.691,0,0,0,1.6-1.227,8.7,8.7,0,0,0,1.3-1.69,12.67,12.67,0,0,0,1.026-2.194l2.121,1.013a12.67,12.67,0,0,1-1.026,2.194,8.7,8.7,0,0,1-1.3,1.69,7.73,7.73,0,0,1-1.6,1.228,8.519,8.519,0,0,1-1.924.806,6.545,6.545,0,0,1-2.949.219A4.9,4.9,0,0,1,13.383,24.78Z" style="fill:#bd0000"/><path d="M24.551,18.637l-1.111.409L17.318,20.8l.884-.345Z" style="fill:#610000"/><path d="M17.318,20.8,15.2,19.782l.023-4.438,2.121,1.013Z" style="fill:#6b0000"/><path d="M17.341,16.357,15.22,15.344l10.634-3.038,2.121,1.013Z" style="fill:#a40000"/><path d="M18.22,16.94l-.879-.583,10.634-3.038.1.806Z" style="fill:#db0000"/><path d="M18.2,20.45l-.884.345.023-4.438.879.583Z" style="fill:#930000"/><path d="M10.267,20.7c-.023-.13-.043-.237-.061-.337a7.194,7.194,0,0,0,.379,1.343,5.79,5.79,0,0,0,1.626,2.3,5.008,5.008,0,0,0,2.432,1.176,6.531,6.531,0,0,0,2.949-.219,8.5,8.5,0,0,0,1.924-.806,7.73,7.73,0,0,0,1.6-1.228,8.7,8.7,0,0,0,1.3-1.69,12.67,12.67,0,0,0,1.026-2.194l1.111-.409A14.645,14.645,0,0,1,23.2,21.685a7.784,7.784,0,0,1-1.4,1.814,6.848,6.848,0,0,1-1.71,1.314,7.555,7.555,0,0,1-2.02.848,6.143,6.143,0,0,1-3.094.228,4.738,4.738,0,0,1-2.562-1.238,5.479,5.479,0,0,1-1.714-2.43A8.022,8.022,0,0,1,10.267,20.7Z" style="fill:#c90000"/><path d="M21.254,3.036a9.73,9.73,0,0,0-1.147-.011H20.1c-.3.016-.618.063-.931.107-.142.02-.281.028-.424.054a12.945,12.945,0,0,0-1.3.3l-.015,0a13.73,13.73,0,0,0-4.783,2.449,15.364,15.364,0,0,0-2.024,1.932,18.656,18.656,0,0,0-1.779,2.4,19.786,19.786,0,0,0-1.223,2.25,17.735,17.735,0,0,0-.877,2.311A16.885,16.885,0,0,0,6.217,17.2a17.091,17.091,0,0,0-.185,2.433,15.625,15.625,0,0,0,.085,1.74A13.019,13.019,0,0,0,6.39,23,11.175,11.175,0,0,0,7.5,25.909a8.487,8.487,0,0,0,1.756,2.243,7.078,7.078,0,0,0,1.665,1.109L8.8,28.248a7.052,7.052,0,0,1-1.664-1.109A8.49,8.49,0,0,1,5.379,24.9a11.162,11.162,0,0,1-1.11-2.906A13.4,13.4,0,0,1,4,20.365a15.625,15.625,0,0,1-.085-1.74A16.958,16.958,0,0,1,4.1,16.192a16.743,16.743,0,0,1,.531-2.372,17.735,17.735,0,0,1,.877-2.311,19.786,19.786,0,0,1,1.223-2.25,18.656,18.656,0,0,1,1.779-2.4,15.492,15.492,0,0,1,2.024-1.932,13.723,13.723,0,0,1,4.784-2.449h0l.028-.007c.434-.123.861-.22,1.281-.295.145-.026.286-.035.429-.055.25-.035.5-.077.746-.095l.182-.011h0a9.778,9.778,0,0,1,1.15.011c.059,0,.118,0,.176.01.042,0,.085,0,.126.008l.033.015a9.152,9.152,0,0,1,1,.144,6.277,6.277,0,0,1,1.4.483L23.989,3.7a6.277,6.277,0,0,0-1.4-.483,9.014,9.014,0,0,0-1.156-.167Z" style="fill:#750000"/><path d="M26.536,5.556l-.063.375a11.573,11.573,0,0,0-1.639-1.244,7.678,7.678,0,0,0-1.916-.771,10.806,10.806,0,0,0-2.407-.182,13.779,13.779,0,0,0-2.592.45h0a16.045,16.045,0,0,0-2.439.96,15.83,15.83,0,0,0-2.187,1.407,17.8,17.8,0,0,0-1.947,1.858,21.623,21.623,0,0,0-1.717,2.32A23.585,23.585,0,0,0,8.448,12.9,21.249,21.249,0,0,0,7.6,15.124a20.218,20.218,0,0,0-.511,2.283,20.217,20.217,0,0,0-.179,2.35c.012.555.024,1.141.082,1.683.07.513.145,1.064.263,1.568a12.407,12.407,0,0,0,1.072,2.806,9.386,9.386,0,0,0,1.693,2.162A7.885,7.885,0,0,0,12.236,29.3a8.8,8.8,0,0,0,2.653.455,13.289,13.289,0,0,0,1.462-.114c.5-.076,1.037-.211,1.555-.342a15.906,15.906,0,0,0,2.266-.89s-.32.159-.5.248a13.2,13.2,0,0,1-2.259.874,12.837,12.837,0,0,1-1.6.352,10.155,10.155,0,0,1-1.51.117,7.934,7.934,0,0,1-2.751-.472,7.1,7.1,0,0,1-2.3-1.376A8.487,8.487,0,0,1,7.5,25.909,11.175,11.175,0,0,1,6.39,23a13.019,13.019,0,0,1-.273-1.625,15.625,15.625,0,0,1-.085-1.74A17.091,17.091,0,0,1,6.217,17.2a16.885,16.885,0,0,1,.532-2.372,17.735,17.735,0,0,1,.877-2.311,19.786,19.786,0,0,1,1.223-2.25,18.656,18.656,0,0,1,1.779-2.4,15.429,15.429,0,0,1,2.024-1.932,13.73,13.73,0,0,1,4.783-2.449A12.048,12.048,0,0,1,20.1,3.025a9.408,9.408,0,0,1,2.485.188,6.635,6.635,0,0,1,2,.8A10.206,10.206,0,0,1,26.536,5.556Z" style="fill:#8e0000"/><path d="M17.919,4.184a13.7,13.7,0,0,1,2.591-.449,10.751,10.751,0,0,1,2.408.181,7.678,7.678,0,0,1,1.916.771,11.573,11.573,0,0,1,1.639,1.244L24.186,9.222a5.542,5.542,0,0,0-1.171-.836,5.023,5.023,0,0,0-1.577-.641,4.3,4.3,0,0,0-1.7-.17,6.28,6.28,0,0,0-1.815.3,8.226,8.226,0,0,0-3.017,1.5,10.165,10.165,0,0,0-2.5,2.635,11.31,11.31,0,0,0-1.682,3.32,10.244,10.244,0,0,0-.575,3.554,7.963,7.963,0,0,0,.56,3.335,5.468,5.468,0,0,0,1.714,2.431,4.734,4.734,0,0,0,2.562,1.238,6.134,6.134,0,0,0,3.094-.229,7.5,7.5,0,0,0,2.019-.847,6.83,6.83,0,0,0,1.71-1.314,7.76,7.76,0,0,0,1.4-1.814,14.7,14.7,0,0,0,1.349-3.048L18.2,20.45l.018-3.51,9.856-2.815.013.592a17.306,17.306,0,0,1-.361,3.135,20.434,20.434,0,0,1-1.053,3.191,21.129,21.129,0,0,1-1.6,2.935,17.059,17.059,0,0,1-2,2.371,14.343,14.343,0,0,1-2.385,1.784A14.431,14.431,0,0,1,17.906,29.3c-.518.131-1.052.267-1.555.342a13.048,13.048,0,0,1-1.462.114,8.8,8.8,0,0,1-2.653-.455,7.882,7.882,0,0,1-2.212-1.323,9.413,9.413,0,0,1-1.693-2.163,12.4,12.4,0,0,1-1.072-2.8c-.118-.5-.193-1.055-.264-1.569-.057-.542-.069-1.128-.081-1.682a20.234,20.234,0,0,1,.179-2.351A20.153,20.153,0,0,1,7.6,15.125,21.081,21.081,0,0,1,8.448,12.9a23.472,23.472,0,0,1,1.181-2.173A21.71,21.71,0,0,1,11.346,8.41a17.711,17.711,0,0,1,1.947-1.859A15.923,15.923,0,0,1,15.48,5.144,15.941,15.941,0,0,1,17.919,4.184Z" style="fill:#ba0000"/></svg>