<svg xmlns="http://www.w3.org/2000/svg" viewBox="0 0 32 32"><title>file_type_astroconfig</title><path d="M5.58,18.847a7.507,7.507,0,0,0-.572,2.624,3.274,3.274,0,0,0,.55,1.553,7.451,7.451,0,0,0,2.094,1.681l5.118,3.414a7.347,7.347,0,0,0,2.11,1.168,3.235,3.235,0,0,0,1.5,0,7.382,7.382,0,0,0,2.118-1.16h6.806V17.406L21.222,4.551a3.951,3.951,0,0,0-.54-1.3,1.723,1.723,0,0,0-.7-.51,3.976,3.976,0,0,0-1.4-.122H12.681a3.929,3.929,0,0,0-1.4.125,1.716,1.716,0,0,0-.7.512,3.962,3.962,0,0,0-.535,1.3L5.58,18.848Zm13.239-13.2a3.325,3.325,0,0,1,.442,1.093l3.892,12.784A16.168,16.168,0,0,0,18.5,17.955L15.966,9.391a.33.33,0,0,0-.512-.169.331.331,0,0,0-.12.169l-2.5,8.557a16.144,16.144,0,0,0-4.673,1.579L12.069,6.743a3.264,3.264,0,0,1,.441-1.094,1.461,1.461,0,0,1,.583-.43,3.3,3.3,0,0,1,1.174-.1h2.794a3.32,3.32,0,0,1,1.176.1A1.458,1.458,0,0,1,18.819,5.651ZM15.8,21.06a5.548,5.548,0,0,0,3.4-.923,2.8,2.8,0,0,1-.206,2.182A3.951,3.951,0,0,1,17.449,23.8c-.675.428-1.255.8-1.255,1.787a2.093,2.093,0,0,0,.209.914,2.491,2.491,0,0,1-1.534-2.3v-.061c0-.683,0-1.524-.963-1.524a1.023,1.023,0,0,0-.39.077,1.027,1.027,0,0,0-.553.551,1.029,1.029,0,0,0-.078.391,3.763,3.763,0,0,1-.988-2.644,4.235,4.235,0,0,1,.174-1.248c.4.757,1.92,1.32,3.731,1.32Z" style="fill:#ff5d01;fill-rule:evenodd"/><path d="M25.684,27.193l.456-.447c2.112.068,2.144,0,2.237-.219l.58-1.393L29,25l-.047-.115c-.025-.061-.1-.243-1.42-1.483v-.652c1.521-1.445,1.489-1.519,1.4-1.73l-.577-1.407c-.087-.211-.12-.294-2.216-.237l-.457-.465a10,10,0,0,0-.071-2.053l-.059-.132-1.508-.65c-.222-.1-.3-.136-1.724,1.393l-.64-.009c-1.466-1.543-1.535-1.515-1.755-1.428l-1.4.559c-.219.088-.3.119-.212,2.219l-.453.445c-2.11-.068-2.142.006-2.234.219l-.581,1.393L15,21l.048.116c.025.06.1.24,1.419,1.481v.65c-1.521,1.445-1.488,1.519-1.4,1.731l.577,1.409c.089.215.12.292,2.216.238l.456.467a9.967,9.967,0,0,0,.07,2.05l.058.133,1.518.654c.221.091.3.124,1.717-1.4l.64.008c1.468,1.545,1.543,1.515,1.757,1.43l1.4-.558C25.7,29.324,25.773,29.294,25.684,27.193Zm-6.013-3.262a2.467,2.467,0,0,1,.623-2.691,2.451,2.451,0,0,1,.826-.509,2.526,2.526,0,0,1,3.246,1.429,2.466,2.466,0,0,1-1.405,3.184,2.553,2.553,0,0,1-3.29-1.413Z" style="fill:#99b8c4"/></svg>