<svg viewBox="0 0 32 32" xmlns="http://www.w3.org/2000/svg" xmlns:xlink="http://www.w3.org/1999/xlink"><linearGradient id="a" gradientTransform="matrix(-.977 -.323 -.29 .877 -375.944 -928.287)" gradientUnits="userSpaceOnUse" x1="-645.732" x2="-654.59" y1="839.188" y2="839.25"><stop offset=".231" stop-color="#999875"/><stop offset=".563" stop-color="#9b9977"/><stop offset=".683" stop-color="#a09f7e"/><stop offset=".768" stop-color="#a9a889"/><stop offset=".837" stop-color="#b7b69a"/><stop offset=".896" stop-color="#c9c7b0"/><stop offset=".948" stop-color="#deddcb"/><stop offset=".994" stop-color="#f8f6eb"/><stop offset="1" stop-color="#fbf9ef"/></linearGradient><linearGradient id="b" gradientTransform="matrix(-.977 -.323 -.29 .877 -375.944 -928.287)" gradientUnits="userSpaceOnUse" x1="-644.287" x2="-657.028" y1="823.405" y2="845.476"><stop offset="0" stop-color="#48a547"/><stop offset="1" stop-color="#3f9143"/></linearGradient><linearGradient id="c" gradientTransform="matrix(-.977 -.323 -.29 .877 -375.944 -928.287)" gradientUnits="userSpaceOnUse" x1="-643.386" x2="-652.418" y1="839.485" y2="833.417"><stop offset="0" stop-color="#41a247"/><stop offset=".352" stop-color="#4ba74b"/><stop offset=".956" stop-color="#67b554"/><stop offset="1" stop-color="#69b655"/></linearGradient><path d="m16.62 30-.751-.249s.1-3.8-1.275-4.067c-.9-1.048.133-44.741 3.423-.149a2.712 2.712 0 0 0 -1.333 1.523 14.1 14.1 0 0 0 -.064 2.942z" fill="url(#a)"/><path d="m17.026 26.329a13.223 13.223 0 0 0 5-13.225c-1.47-6.485-4.951-8.617-5.326-9.431a9.792 9.792 0 0 1 -.825-1.6l.277 18.069s-.574 5.522.874 6.187z" fill="url(#b)"/><path d="m15.487 26.569s-6.121-4.169-5.767-11.544a15.54 15.54 0 0 1 5.519-11.648 1.725 1.725 0 0 0 .607-1.377c.381.82.319 12.243.359 13.579.155 5.197-.289 10.009-.718 10.99z" fill="url(#c)"/></svg>