<svg viewBox="0 0 32 32" xmlns="http://www.w3.org/2000/svg" xmlns:xlink="http://www.w3.org/1999/xlink"><linearGradient id="a" gradientTransform="matrix(1 0 0 -1 0 32)" gradientUnits="userSpaceOnUse" x1="9.955" x2="16.68" y1="9.096" y2="23.324"><stop offset="0" stop-color="#1011a1"/><stop offset="1" stop-color="#6969e1"/></linearGradient><linearGradient id="b" gradientTransform="matrix(1 0 0 -1 0 32)" gradientUnits="userSpaceOnUse" x1="16.231" x2="25.618" y1="19.655" y2="3.782"><stop offset="0" stop-color="#b40e0e"/><stop offset="1" stop-color="#ff5959"/></linearGradient><linearGradient id="c" gradientTransform="matrix(1 0 0 -1 0 32)" gradientUnits="userSpaceOnUse" x1="21.663" x2="8.381" y1="4.823" y2="5.938"><stop offset="0" stop-color="#01a300"/><stop offset="1" stop-color="#01df00"/></linearGradient><linearGradient id="d" gradientTransform="matrix(1 0 0 -1 0 32)" gradientUnits="userSpaceOnUse" x1="14.643" x2="14.472" y1="8.368" y2="14.145"><stop offset="0" stop-color="#848484"/><stop offset="1" stop-color="#d2d2d2"/></linearGradient><path d="m17.257 16.919-15.011 12.83 13.748-27.466z" fill="url(#a)"/><path d="m2.262 29.768-.038-.03 13.788-27.545.008.088 1.263 14.649-.01.008zm13.715-27.394-13.653 27.275 14.906-12.741z"/><path d="m17.952 24.931-1.952-22.651 13.767 27.471z" fill="url(#b)"/><path d="m29.818 29.8-.061-.025-11.828-4.827v-.015l-1.954-22.651.047-.013zm-11.842-4.887 11.739 4.787-13.679-27.292z"/><path d="m11.16 22.094 18.621 7.654h-27.531z" fill="url(#c)"/><path d="m29.781 29.773h-27.598l.051-.044 8.921-7.665.014.006 18.622 7.655zm-27.464-.05h27.337l-18.489-7.6z"/><path d="m11.189 22.112 6.059-5.168.843 7.98z" fill="url(#d)"/><path d="m18.149 25-.077-.032-6.978-2.842 6.194-5.283.01.094zm-6.865-2.9 6.748 2.749-.824-7.8z"/><path d="m29.7 29.911h-27.415a.221.221 0 0 1 -.182-.088.222.222 0 0 1 .022-.2l13.739-27.436a.169.169 0 0 1 .14-.1.154.154 0 0 1 .13.085l13.733 27.435a.238.238 0 0 1 .02.226.211.211 0 0 1 -.187.078zm-27.468-.16a.484.484 0 0 0 .057.011h27.4l.073-.009a.221.221 0 0 0 -.028-.077l-13.734-27.428v.012l-13.739 27.424a.279.279 0 0 0 -.025.067z"/></svg>