<svg viewBox="0 0 32 32" xmlns="http://www.w3.org/2000/svg"><path d="m15.63 2-13.034 4.648 1.988 17.234 11.046 6.118 11.046-6.118 1.988-17.234z" fill="#db6300"/><path d="m15.63 2v3.108-.014 14.182 10.724l11.046-6.118 1.988-17.234z" fill="#bf6400"/><path d="m15.63 5.094-8.148 18.27h3.038l1.638-4.088h6.916l1.638 4.088h3.038zm2.38 11.662h-4.76l2.38-5.726z" fill="#fff"/><path d="m28.385 20.525a2.839 2.839 0 0 1 1.426.822 3.756 3.756 0 0 1 .547.731c.007.029-.985.7-1.586 1.068-.022.014-.109-.08-.206-.224a1.293 1.293 0 0 0 -1.072-.644c-.692-.047-1.137.315-1.133.92a.836.836 0 0 0 .1.427c.152.315.434.5 1.321.887 1.633.7 2.332 1.166 2.766 1.825a3.31 3.31 0 0 1 .264 2.781 3.058 3.058 0 0 1 -2.523 1.807 6.993 6.993 0 0 1 -1.738-.018 4.191 4.191 0 0 1 -2.322-1.207 4.03 4.03 0 0 1 -.594-.88 1.7 1.7 0 0 1 .21-.134c.1-.058.485-.279.847-.489l.655-.38.138.2a3.062 3.062 0 0 0 .865.829 2.118 2.118 0 0 0 2.219-.112.991.991 0 0 0 .127-1.264c-.177-.253-.539-.467-1.568-.912a5.645 5.645 0 0 1 -2.147-1.321 3.008 3.008 0 0 1 -.626-1.14 4.567 4.567 0 0 1 -.04-1.455 2.78 2.78 0 0 1 2.339-2.165 5.778 5.778 0 0 1 1.731.048zm-5.355.952.007.934h-2.968v8.436h-2.1v-8.436h-2.969v-.911a8.976 8.976 0 0 1 .025-.941c.011-.014 1.817-.022 4.008-.018l3.986.011z" fill="#007acc"/></svg>