<svg viewBox="0 0 32 32" xmlns="http://www.w3.org/2000/svg"><path d="m3.927 24.707 12.246 6.731 12.309-6.823 2.295-19.031-14.619-5.021-14.527 5.112z" fill="#b3b3b3"/><path d="m16.124 29.829 11.066-6.124 2.138-17.021-13.204-4.503z" fill="#a6120d"/><path d="m16.123 29.829v-27.648l-12.862 4.584 1.967 17.021z" fill="#dd1b16"/><path d="m19.758 16.9-3.635 1.7h-3.83l-1.8 4.5-3.35.062 8.981-19.98zm-.351-.856-3.259-6.452-2.673 6.341h2.649z" fill="#f2f2f2"/><path d="m19.181 15.938h-3.051l-.007 2.657 4.219.004 1.972 4.567 3.205.06-9.396-20.041.025 6.407z" fill="#b3b3b3"/><path d="m27.41 19.65a2.81 2.81 0 0 1 1.41.81 3.72 3.72 0 0 1 .54.72s-1 .69-1.57 1.06a.5.5 0 0 1 -.2-.22 1.28 1.28 0 0 0 -1.06-.64.92.92 0 0 0 -1.12.91.83.83 0 0 0 .1.42 2.23 2.23 0 0 0 1.31.88c1.62.7 2.31 1.16 2.74 1.81a3.28 3.28 0 0 1 .26 2.76 3 3 0 0 1 -2.51 1.84 6.93 6.93 0 0 1 -1.72 0 4.15 4.15 0 0 1 -2.3-1.2 4 4 0 0 1 -.59-.87l.21-.13.84-.48.65-.38.14.2a3 3 0 0 0 .86.82 2.1 2.1 0 0 0 2.2-.11 1 1 0 0 0 .13-1.25 3.72 3.72 0 0 0 -1.55-.9 5.6 5.6 0 0 1 -2.18-1.38 3 3 0 0 1 -.62-1.13 4.53 4.53 0 0 1 0-1.44 2.76 2.76 0 0 1 2.32-2.15 5.73 5.73 0 0 1 1.71.05zm-5.31.94v.93h-2.94v8.36h-2.08v-8.36h-2.94v-.91a8.9 8.9 0 0 1 0-.93h8v.92z" fill="#007acc"/></svg>