<svg viewBox="0 0 32 32" xmlns="http://www.w3.org/2000/svg"><path d="m3.169 3.517h25.666v24.966h-25.666z" fill="#1c0a00"/><path d="m3.169 3.517h25.666v24.966h-25.666zm-1.169 26.133h28v-27.3h-28zm18.34-17.57c0-.093.035-.14.14-.14h1.832c.093 0 .14.035.14.14v9.205c0 .093-.023.14-.14.14h-1.807c-.117 0-.152-.058-.152-.152v-9.193h-.012zm-.128-2.648a1.19 1.19 0 0 1 2.38 0 1.115 1.115 0 0 1 -1.213 1.19 1.1 1.1 0 0 1 -1.165-1.19zm-5.25 6.487c-.327-1.3-1.1-4.118-1.388-5.483h-.023c-.245 1.365-.863 3.675-1.353 5.483zm-3.243 1.89-.922 3.5c-.023.093-.058.117-.175.117h-1.713c-.117 0-.14-.035-.117-.175l3.313-11.6a3.779 3.779 0 0 0 .117-.968c0-.082.035-.117.093-.117h2.45c.082 0 .117.023.14.117l3.71 12.588c.023.093 0 .152-.093.152h-1.937c-.093 0-.152-.023-.175-.1l-.957-3.512h-3.733z" fill="#ff7f18"/></svg>