<svg viewBox="0 0 32 32" xmlns="http://www.w3.org/2000/svg"><path d="m16 30a13.859 13.859 0 0 1 -13.714-14 14.149 14.149 0 0 1 4.014-9.9 13.517 13.517 0 0 1 19.4 0 14.149 14.149 0 0 1 4.014 9.9 13.859 13.859 0 0 1 -13.714 14z" fill="#ce3f31"/><path d="m11.869 23.015h-.4a4.263 4.263 0 0 1 -1.048-.113 1.387 1.387 0 0 1 -.767-.548 2.2 2.2 0 0 1 -.409-1.026 13.28 13.28 0 0 1 -.086-1.728 12.78 12.78 0 0 0 -.08-1.687 1.773 1.773 0 0 0 -.405-.924 1.325 1.325 0 0 0 -1.026-.391v-1.198a1.325 1.325 0 0 0 1.026-.391 1.773 1.773 0 0 0 .405-.924 12.78 12.78 0 0 0 .08-1.687 13.28 13.28 0 0 1 .084-1.731 2.2 2.2 0 0 1 .409-1.026 1.387 1.387 0 0 1 .767-.548 4.263 4.263 0 0 1 1.048-.113h.4v1.14h-.226q-.76 0-.931.4a7.72 7.72 0 0 0 -.172 2.17 4.876 4.876 0 0 1 -.416 2.316 2.117 2.117 0 0 1 -1.263.994 2.089 2.089 0 0 1 1.264.986 4.876 4.876 0 0 1 .417 2.314 7.72 7.72 0 0 0 .172 2.17q.172.4.931.4h.226zm1.6-3.141h1.035v-3.454h1.459l1.97 3.454h1.184l-2.077-3.566a2.243 2.243 0 0 0 1.833-2.319c0-1.7-1.2-2.294-2.855-2.294h-2.544zm1.035-4.3v-3.044h1.359c1.272 0 1.97.386 1.97 1.459s-.7 1.583-1.97 1.583zm5.557-6.591h.4a4.263 4.263 0 0 1 1.048.113 1.387 1.387 0 0 1 .767.548 2.2 2.2 0 0 1 .409 1.026 13.28 13.28 0 0 1 .084 1.731 12.78 12.78 0 0 0 .08 1.687 1.773 1.773 0 0 0 .405.924 1.325 1.325 0 0 0 1.026.391v1.191a1.325 1.325 0 0 0 -1.026.391 1.773 1.773 0 0 0 -.405.924 12.78 12.78 0 0 0 -.08 1.687 13.28 13.28 0 0 1 -.084 1.731 2.2 2.2 0 0 1 -.409 1.026 1.387 1.387 0 0 1 -.767.548 4.263 4.263 0 0 1 -1.048.113h-.4v-1.14h.226q.76 0 .931-.4a7.72 7.72 0 0 0 .182-2.174 4.876 4.876 0 0 1 .416-2.316 2.089 2.089 0 0 1 1.259-.984 2.117 2.117 0 0 1 -1.264-.994 4.876 4.876 0 0 1 -.416-2.316 7.72 7.72 0 0 0 -.172-2.17q-.172-.4-.931-.4h-.226z" fill="#fff"/></svg>