<svg viewBox="0 0 32 32" xmlns="http://www.w3.org/2000/svg" xmlns:xlink="http://www.w3.org/1999/xlink"><clipPath id="a"><path d="m25.573 24.978v-.034h-17.334a1.956 1.956 0 0 0 -1.88 1.971 1.9 1.9 0 0 0 1.92 1.929c.133 0 .258.006.408 0h16.849c-.884-.183-1.236-.979-1.236-1.934s.371-1.763 1.273-1.932z"/></clipPath><path d="m24.591 5.907h-16.372c-.024 0-.047 0-.07 0v23.348h.07 16.372a1.4 1.4 0 0 0 1.4-1.39v-20.565a1.4 1.4 0 0 0 -1.4-1.393z" fill="#f18b21"/><path d="m25.573 24.978v-.034h-17.334a1.956 1.956 0 0 0 -1.88 1.971 1.9 1.9 0 0 0 1.92 1.929c.133 0 .277.01.408 0h16.849c-.884-.183-1.236-.979-1.236-1.934s.371-1.763 1.273-1.932z" fill="#fff"/><g clip-path="url(#a)" fill="#ccd4d3"><path d="m6.281 25.434h19.455v.189h-19.455z"/><path d="m6.281 26.391h19.455v.189h-19.455z"/><path d="m6.281 27.348h19.455v.189h-19.455z"/><path d="m6.281 27.827h19.455v.189h-19.455z"/><path d="m6.281 28.305h19.455v.189h-19.455z"/><path d="m6.281 26.87h19.455v.189h-19.455z"/><path d="m6.281 25.913h19.455v.189h-19.455z"/></g><path d="m24.644 2h-16.372c-.024 0-.047 0-.07 0v23.348h.07 16.372a1.4 1.4 0 0 0 1.4-1.39v-20.568a1.4 1.4 0 0 0 -1.4-1.39z" fill="#edce8a"/><path d="m8.154 28.848c-.016 0-.05-.009-.066-.01a2.008 2.008 0 0 1 -1.7-1.805 1.662 1.662 0 0 1 1.716-1.7c.016 0 .09.009.106.01l-.01-23.338c-.032-.005-.065-.005-.1-.005a2.04 2.04 0 0 0 -2.066 1.579 6.719 6.719 0 0 0 -.034.84s-.045 22.6-.045 22.69a2.154 2.154 0 0 0 .02.277v.06h.009a2.144 2.144 0 0 0 2.116 1.808h.047z" fill="#3f5364"/><path d="m9.87 30-.805-.634-.805.634v-1.558-1.557h.805.805v1.557z" fill="#efb422"/><path d="m14.445 16.578a3.7 3.7 0 0 0 2.589 1.076v-1.53a2.087 2.087 0 0 1 -1.508-.624z" fill="#3f5364"/><path d="m18.366 10.6-.566 1.416a2.29 2.29 0 0 1 1.083.907h1.649a3.687 3.687 0 0 0 -2.166-2.323z" fill="#3f5364"/><path d="m13.362 14a3.712 3.712 0 0 0 .311 1.474l1.4-.624a2.07 2.07 0 0 1 -.173-.85 2.146 2.146 0 0 1 2.13-2.125v-1.53a3.67 3.67 0 0 0 -3.668 3.655z" fill="#f18b21"/><path d="m17.794 15.983.566 1.417a3.672 3.672 0 0 0 2.186-2.351h-1.646a2.178 2.178 0 0 1 -1.106.934z" fill="#f18b21"/><g fill="#3f5364"><path d="m17.029 17.825a3.825 3.825 0 1 1 3.694-4.873h1.477a5.256 5.256 0 1 0 0 2.125h-1.477a3.825 3.825 0 0 1 -3.694 2.748z"/><path d="m17.029 8.56v-1.445a6.876 6.876 0 0 0 -6.429 4.391l1.336.51a5.493 5.493 0 0 1 5.093-3.456z"/><path d="m17.029 19.44v1.445a6.9 6.9 0 0 0 6.822-5.808h-1.479a5.425 5.425 0 0 1 -5.343 4.363z"/></g><path d="m22.4 12.951h1.45a6.921 6.921 0 0 0 -4.322-5.351l-.51 1.331a5.532 5.532 0 0 1 3.382 4.02z" fill="#f18b21"/><path d="m11.572 14h-1.451a6.9 6.9 0 0 0 4.352 6.4l.539-1.331a5.482 5.482 0 0 1 -3.44-5.069z" fill="#f18b21"/><path d="m24.021 12.951h1.45a8.781 8.781 0 0 0 -1.224-3.428l-1.224.765a6.351 6.351 0 0 1 .998 2.663z" fill="#3f5364"/><path d="m8.5 14.005a8.949 8.949 0 0 0 .753 3.672l1.406-.578a7.558 7.558 0 0 1 -.7-3.1" fill="#3f5364"/><path d="m17.029 21.055a7.062 7.062 0 0 1 -5-2.069l-1.029 1.02a8.406 8.406 0 0 0 6.029 2.494 8.55 8.55 0 0 0 8.471-7.452h-1.45a7.115 7.115 0 0 1 -7.021 6.007z" fill="#f18b21"/><path d="m17.029 6.945a6.909 6.909 0 0 1 4.233 1.416l.884-1.161a8.559 8.559 0 0 0 -13.079 3.711l1.365.539a7.1 7.1 0 0 1 6.597-4.505z" fill="#f18b21"/></svg>