<svg viewBox="0 0 32 32" xmlns="http://www.w3.org/2000/svg" xmlns:xlink="http://www.w3.org/1999/xlink"><linearGradient id="a" gradientUnits="userSpaceOnUse" x1="14.2" x2="22.6" y1="18.7" y2="14.1"><stop offset=".088" stop-color="#ffc13b"/><stop offset="1" stop-color="#fd4d29"/></linearGradient><linearGradient id="b" gradientUnits="userSpaceOnUse" x1="6.352" x2="13.567" y1="24.718" y2="20.729"><stop offset="0" stop-color="#fd4d29"/><stop offset="1" stop-color="#ff7427"/></linearGradient><path d="m23.307 11.572-4.41-7.667h-1.212l-.386-.609h-.574l-4.779 8.276z" fill="#af2235"/><path d="m9.861 11.572-2.408 4.209-2.638 1.522-2.815 4.875 1.927 3.279 8.019-13.885z" fill="#7a0617"/><path d="m16.725 3.296h-3.82l-2.077 3.596.852 1.5-1.819 3.18h2.085z" fill="#97091c"/><path d="m4.995 25.954.644 1.072h11.149l.618-1.072z" fill="#630d1b"/><path d="m24.507 13.659-1.2-2.087h-11.361l-8.019 13.885.292.497h13.187z" fill="#a40d1b"/><path d="m16.788 27.026h.711l.927 1.642h.605l-.92-1.642h9.395l.633-1.072h-10.733z" fill="#500520"/><path d="m24.507 13.659-7.101 12.295h10.733l1.743-2.949z" fill="#710615"/><path d="m13.076 12.661 5.935 10.319h2.613l-7.239-12.586zm-1.628 2.82 4.313 7.499h2.613l-5.617-9.767z" fill="url(#a)"/><path d="m16.404 25.204-5.275-9.171-5.297 9.171z" fill="url(#b)"/><path d="m14.704 9.842 7.556 13.138h2.613l-8.86-15.405zm2.938-5.086-1.31 2.267 9.178 15.957h2.613z" fill="url(#a)"/></svg>