<svg width="32" height="32" fill="none" version="1.1" viewBox="0 0 32 32" xmlns="http://www.w3.org/2000/svg"><g transform="matrix(.27992 0 0 .27975 2.0044 2.0021)"><path d="m48.796 0c0.8047-4.4488e-8 1.6094-4.5195e-8 2.4822 0.026723 0.4694 0.03307 0.8706 0.039418 1.3127 0.051949 1.2516 0.10555 2.4663 0.17139 3.6724 0.31141 2.3457 0.27232 4.6574 0.73408 6.9371 1.3538 2.8825 0.78359 5.6747 1.813 8.3695 3.0992 2.3875 1.1395 4.6717 2.4603 6.8521 3.9622 2.2164 1.5267 4.3056 3.2109 6.235 5.0831 1.1174 1.0843 2.1913 2.2195 3.2166 3.3914 3.5763 4.0876 6.3812 8.6611 8.4579 13.678 1.205 2.9111 2.1208 5.9147 2.7417 9.0042 0.4261 2.1203 0.7622 4.2546 0.8421 6.4592 0.025 0.2521 0.055 0.4659 0.0849 0.6798 0 1.9346 0 3.8693-0.0257 5.8727-0.0926 0.9695-0.1426 1.8719-0.2295 2.7706-0.2012 2.0816-0.5895 4.1315-1.0817 6.1629-1.3149 5.4274-3.5013 10.482-6.5141 15.179-1.7177 2.6779-3.6862 5.1639-5.8794 7.4679-1.1978 1.2583-2.4648 2.4464-3.7886 3.5732-2.8359 2.4137-5.9008 4.4896-9.1984 6.2174-3.3103 1.7345-6.7734 3.0817-10.388 4.0377-2.8312 0.7488-5.7072 1.2343-8.6238 1.4851-0.5745 0.0494-1.1495 0.094-1.7658 0.1378-0.2336-3e-3 -0.4266-0.0156-0.6176-1e-3 -0.199 0.015-0.3961 0.056-0.5939 0.085-0.8048 0-1.6095 0-2.4782-0.031-0.4646-0.041-0.8653-0.052-1.3036-0.0766-0.7922-0.0637-1.5492-0.0891-2.3007-0.1666-2.9567-0.305-5.8748-0.8247-8.7362-1.6389-3.4952-0.9945-6.8458-2.3449-10.051-4.0621-4.0022-2.1446-7.6348-4.7969-10.922-7.9222-1.6254-1.5455-3.1318-3.2039-4.5305-4.9591-2.9027-3.6425-5.2674-7.6035-7.0626-11.903-1.1505-2.7553-2.0474-5.5892-2.6852-8.5077-0.46581-2.1313-0.80793-4.2787-0.974-6.4541-0.035992-0.4715-0.082386-0.9422-0.12591-1.4513-0.005809-0.2126 0.002866-0.3885-0.017912-0.561-0.014306-0.1187-0.069425-0.2325-0.1063-0.3485-2.2176e-7 -1.3102-2.2066e-7 -2.6204 0.027835-3.9967 0.06355-0.4177 0.11647-0.7686 0.13197-1.121 0.063781-1.4507 0.24199-2.8884 0.44745-4.3245 0.364-2.5442 0.94415-5.0393 1.7104-7.4896 1.2102-3.8701 2.87-7.5382 4.9787-11.005 1.8972-3.1194 4.1049-5.9995 6.6286-8.6327 0.9544-0.9957 1.9641-1.9423 2.9921-2.8628 3.6176-3.2393 7.6436-5.8638 12.046-7.9131 3.1283-1.4563 6.3704-2.5799 9.7335-3.3562 2.9125-0.67237 5.8581-1.0984 8.887-1.2225 0.3141 0.0051284 0.5872 0.014232 0.8593 0.0017982 0.1188-0.005431 0.2356-0.054957 0.3534-0.084459zm4.0881 55.457c-0.3037-0.2667-0.5366-0.6155-0.9113-0.8312-0.0902 0.5266-0.0708 41.243 0.0254 41.624 5.8764-0.2385 11.508-1.5507 16.886-3.9458 4.6244-2.0593 8.7968-4.8045 12.56-8.287-9.5359-9.5358-19.026-19.026-28.561-28.56zm-21.722-21.722c-4.9744-4.9701-9.9488-9.9402-14.924-14.91-0.0308-0.0308-0.0723-0.0512-0.1098-0.0749-0.0121-0.0076-0.0272-0.0124-0.0414-0.0143-0.0145-0.0019-0.0296 0.0013-0.1132 0.0067-4.6742 5.0958-8.0575 10.982-10.13 17.627-1.102 3.5333-2.2698 10.622-1.9207 11.776 0.08183 0.0077 0.16924 0.0232 0.25664 0.0232 13.737-0.0044 27.474-0.01 41.211-0.0163 0.0121 0 0.0269-0.0102 0.0357-0.0199 0.0095-0.0106 0.0136-0.0262 0.0442-0.0901-4.7457-4.7456-9.5047-9.5045-14.308-14.308zm29.118-28.851c-2.8234-0.67179-7.545-1.2318-8.3315-0.98046-0.0088 0.06409-0.0273 0.13606-0.0273 0.20803 0.0039 13.749 0.0091 27.498 0.0152 41.248 0 0.0111 0.0131 0.0248 0.0235 0.0327 0.0114 0.0088 0.0268 0.0123-0.0307-0.0121 9.8126-9.8126 19.605-19.605 29.428-29.428-1.7089-1.6039-3.5877-3.0755-5.5775-4.4042-4.7338-3.1608-9.8761-5.3799-15.5-6.6633zm22.814 14.74c-9.484 9.484-18.968 18.968-28.46 28.46 0.073 0.0496 0.0955 0.0783 0.118 0.0783 13.688 0.0042 27.376 0.0066 41.064 0.0078 0.1181 0 0.2363-0.0152 0.3543-0.0255 0.0124-0.0011 0.0237-0.0165 0.035-0.0259 0.0114-0.0094 0.0221-0.0196 0.0607-0.0541 0-0.1223 0.0089-0.2701-0.0014-0.4164-0.0546-0.77-0.1064-1.5404-0.1732-2.3094-0.1724-1.9862-0.5157-3.9449-0.9682-5.8852-0.9368-4.0174-2.3974-7.8357-4.3596-11.464-1.7762-3.284-3.9304-6.2994-6.4369-9.0646-0.0753-0.0831-0.1718-0.1469-0.2871-0.2437-0.3142 0.3131-0.6073 0.6053-0.945 0.9421zm-52.079 8.7284c5.5174 5.5174 11.035 11.035 16.552 16.552 0.1051 0.1051 0.2061 0.2152 0.3184 0.312 0.0712 0.0614 0.1599 0.1025 0.2428 0.1539 0.0315-0.0575 0.054-0.0813 0.0572-0.1075 9e-3 -0.0736 0.0136-0.148 0.0136-0.2221-4e-4 -13.645-0.0014-27.289-0.0036-40.934-1e-4 -0.05819-0.0183-0.11656-0.0301-0.17442-0.0027-0.01339-0.013-0.02583-0.0217-0.03722-9e-3 -0.01172-0.0204-0.02161-0.0683-0.07118-0.1085 0-0.2547-0.00881-0.3995 0.00147-0.7701 0.05467-1.5405 0.10665-2.3096 0.17338-2.1051 0.18265-4.1787 0.55688-6.2309 1.0528-4.407 1.0649-8.5615 2.7588-12.474 5.0461-2.6642 1.5577-5.1387 3.3786-7.4393 5.4355-0.1719 0.1537-0.3307 0.3222-0.5195 0.5073 4.1141 4.114 8.1906 8.1905 12.312 12.312zm43.606 23.538c-6.4069 0-12.814 1e-4 -19.221 1e-4 -0.1338 0-0.2681-0.0071-0.4011 0.0031-0.0928 0.0072-0.1836 0.0385-0.2338 0.0497 9.7874 9.7873 19.567 19.567 29.381 29.381 0.4222-0.4828 0.8894-0.9991 1.3371-1.5319 4.7112-5.6067 7.9079-11.977 9.618-19.096 0.5947-2.4758 0.9502-4.9881 1.1354-7.5252 0.0297-0.4068 0.0728-0.8207-0.0071-1.2807h-21.608zm-32.428 8.6349c-7.8052 7.8141-15.61 15.628-23.415 23.443-0.0092 0.0093-0.0126 0.0266-0.0144 0.0407-0.0018 0.0144 0.0017 0.0295 0.0063 0.0884 4.632 4.2631 9.9419 7.4572 15.902 9.5711 4.3529 1.544 8.8391 2.3937 13.445 2.5806 0.1109-0.4321 0.1123-41.203-0.0039-41.643-1.9754 1.9753-3.9251 3.925-5.9195 5.9193zm3.0358-8.2924c0.0703-0.0866 0.1406-0.1733 0.2216-0.2732-0.4782-0.1087-41.223-0.0902-41.609 0.0255 0.25366 6.1194 1.6668 11.966 4.252 17.529 2.0294 4.3668 4.6718 8.3227 7.9752 11.879l29.16-29.16z" fill="#ffc108"/><g fill="#fce494"><path d="m52.906 55.48c9.5124 9.5123 19.002 19.002 28.538 28.538-3.7634 3.4825-7.9358 6.2277-12.56 8.287-5.3784 2.3951-11.01 3.7073-16.886 3.9458-0.0962-0.3813-0.1156-41.098-0.0254-41.624 0.3747 0.2157 0.6076 0.5645 0.9336 0.8535z"/><path d="m31.184 33.757c4.7813 4.7812 9.5402 9.5401 14.286 14.286-0.0306 0.0638-0.0346 0.0794-0.0442 0.09-0.0088 0.0097-0.0235 0.0199-0.0357 0.0199-13.737 0.0064-27.474 0.0119-41.211 0.0163-0.08741 0-0.17481-0.0155-0.25665-0.0232-0.34907-1.1538 0.81865-8.2425 1.9207-11.776 2.0728-6.6458 5.456-12.532 10.13-17.627 0.0836-0.0054 0.0987-0.0086 0.1132-0.0067 0.0143 0.0019 0.0293 0.0067 0.0414 0.0143 0.0375 0.0237 0.079 0.0441 0.1098 0.0749 4.9752 4.9693 9.9496 9.9394 14.946 14.932z"/><path d="m60.317 4.8917c5.5873 1.2757 10.73 3.4948 15.463 6.6556 1.9898 1.3287 3.8686 2.8003 5.5775 4.4043l-29.428 29.428c0.0576 0.0245 0.0422 0.0209 0.0307 0.0122-0.0104-8e-3 -0.0234-0.0216-0.0234-0.0328-0.0062-13.749-0.0113-27.498-0.0152-41.248 0-0.07197 0.0185-0.14395 0.0273-0.20803 0.7864-0.2513 5.508 0.30867 8.3679 0.98819z"/><path d="m83.116 19.601c0.3154-0.3144 0.6085-0.6066 0.9227-0.9198 0.1153 0.0969 0.2119 0.1606 0.2872 0.2437 2.5064 2.7652 4.6606 5.7807 6.4369 9.0647 1.9621 3.6278 3.4227 7.4461 4.3596 11.464 0.4524 1.9402 0.7957 3.899 0.9682 5.8852 0.0667 0.769 0.1186 1.5394 0.1731 2.3094 0.0104 0.1463 0.0015 0.294 0.0015 0.4164-0.0387 0.0345-0.0494 0.0447-0.0608 0.0541-0.0113 0.0094-0.0226 0.0248-0.035 0.0259-0.1179 0.0103-0.2362 0.0255-0.3543 0.0255-13.688-0.0012-27.376-0.0036-41.064-0.0079-0.0225 0-0.045-0.0287-0.118-0.0782 9.4921-9.4922 18.976-18.976 28.482-28.482z"/><path d="m30.992 28.33c-4.0989-4.0988-8.1754-8.1753-12.29-12.289 0.1888-0.1851 0.3475-0.3536 0.5195-0.5073 2.3006-2.0569 4.775-3.8778 7.4393-5.4355 3.912-2.2873 8.0664-3.9811 12.474-5.0461 2.0522-0.49587 4.1258-0.87011 6.2309-1.0528 0.7691-0.06673 1.5395-0.1187 2.3096-0.17337 0.1448-0.01028 0.291-0.00147 0.3995-0.00147 0.0479 0.04957 0.0593 0.05946 0.0683 0.07118 0.0087 0.01139 0.019 0.02383 0.0217 0.03721 0.0118 0.05787 0.03 0.11624 0.03 0.17443 0.0023 13.645 0.0032 27.289 0.0037 40.934 0 0.0741-0.0046 0.1486-0.0136 0.2221-0.0032 0.0262-0.0257 0.05-0.0573 0.1075-0.0828-0.0514-0.1715-0.0925-0.2427-0.1539-0.1123-0.0968-0.2133-0.2068-0.3184-0.3119-5.5174-5.5174-11.035-11.035-16.574-16.575z"/><path d="m74.666 51.89h21.564c0.0799 0.46 0.0368 0.874 0.0071 1.2807-0.1852 2.5371-0.5408 5.0495-1.1355 7.5252-1.71 7.1187-4.9067 13.489-9.6179 19.096-0.4477 0.5328-0.915 1.0492-1.3371 1.5319-9.8133-9.8133-19.593-19.593-29.381-29.381 0.0501-0.0112 0.141-0.0425 0.2337-0.0496 0.133-0.0103 0.2674-0.0032 0.4012-0.0032 6.4069 0 12.814 0 19.265-1e-4z"/><path d="m42.215 60.502c1.972-1.972 3.9218-3.9217 5.8972-5.897 0.1162 0.4395 0.1148 41.21 0.0039 41.643-4.6057-0.1869-9.0919-1.0365-13.445-2.5805-5.9599-2.1139-11.27-5.308-15.902-9.5712-0.0046-0.0588-0.0081-0.0739-0.0063-0.0884 0.0018-0.0141 0.0051-0.0313 0.0144-0.0406 7.8047-7.8146 15.61-15.629 23.437-23.465z"/><path d="m45.206 52.254-29.138 29.138c-3.3034-3.5562-5.9457-7.5122-7.9752-11.879-2.5852-5.5626-3.9984-11.409-4.252-17.529 0.3861-0.1156 41.131-0.1342 41.609-0.0255-0.081 0.0999-0.1513 0.1866-0.2439 0.2955z"/></g></g></svg>
