<svg id="angular" xmlns="http://www.w3.org/2000/svg" viewBox="0 0 32 32">
  <title>file_type_ng2_directive_js@2x</title>
  <polygon points="2.73 6.67 15.85 2 29.27 6.59 27.08 23.8 15.85 30 4.77 23.88 2.73 6.67"/>
  <path d="M2.73,6.67L15.85,2V30L4.77,23.88Z" style="fill: #1dbf34"/>
  <path d="M15.85,2L29.27,6.59,27.08,23.8,15.85,30V2Z" style="fill: #168f27"/>
  <path id="A" d="M15.85,5.14l8.53,18.23H21.47l-1.82-4.16H15.85V16.73h2.77L15.85,11l-2.33,5.73h2.33v2.48H12.38l-1.63,4.16H7.61Z" style="fill: #fff"/>
  <g id="official_js" data-name="official js">
    <path d="M15.64,27.93l1.67-1A1.51,1.51,0,0,0,18.62,28c0.67,0,1.1-.26,1.1-1.29v-7h2v7a2.78,2.78,0,0,1-3.06,3.09,3.18,3.18,0,0,1-3.07-1.87" style="fill: #f7df1e"/>
    <path d="M22.88,27.71l1.67-1a2.23,2.23,0,0,0,2,1.24A1.18,1.18,0,0,0,28,27c0-.7-0.56-1-1.49-1.36l-0.51-.22c-1.48-.63-2.46-1.42-2.46-3.09a2.74,2.74,0,0,1,3-2.71,3,3,0,0,1,2.91,1.64l-1.59,1a1.39,1.39,0,0,0-1.32-.88,0.89,0.89,0,0,0-1,.88c0,0.61.38,0.86,1.26,1.24l0.51,0.22C29,24.47,30,25.23,30,26.95s-1.45,2.85-3.39,2.85a3.93,3.93,0,0,1-3.73-2.09" style="fill: #f7df1e"/>
  </g>
  <rect width="32" height="32" style="fill: #fff;opacity: 0"/>
</svg>
