<svg xmlns="http://www.w3.org/2000/svg" viewBox="0 0 32 32"><title>file_type_horusec</title><path d="M27.589,8.663a9.439,9.439,0,0,1-1.533,2.105,3.885,3.885,0,0,0-.414.521c.01,1.592.035,4.693.045,5.135a9.1,9.1,0,0,1-3.034,7.032c-.292.284-.595.545-.907.808A19.32,19.32,0,0,1,19.5,25.881a21.343,21.343,0,0,1-3.53,1.7,18.95,18.95,0,0,1-6.622-4.127,12.263,12.263,0,0,1-.913-.988h0l-.01-.015a9.943,9.943,0,0,1-.975-1.407l0,0-.412-.6a4.7,4.7,0,0,1-2.9-1.93,10.854,10.854,0,0,0,.366,1.56,11.063,11.063,0,0,0,.933,2.112,13.192,13.192,0,0,0,2.28,2.88,21.366,21.366,0,0,0,7.848,4.79l.4.143.4-.143a21.528,21.528,0,0,0,7.91-4.79A11.238,11.238,0,0,0,28,16.37c-.008-.314-.014-4.732-.019-8.587C27.859,8.079,27.733,8.375,27.589,8.663Z" style="fill:#ef4922;fill-rule:evenodd"/><path d="M27.971,2V4.23c0,.546,0,1.168,0,1.834l-.012.037c-.135.412-.264.8-.287.867l-.05.132c-.169.442-.345.894-.555,1.313l-.042.082a8.392,8.392,0,0,1-1.392,1.883h0l-.064.069c-.042.046-.085.092-.128.137l-.071.073a9.206,9.206,0,0,1-2.152,1.713l-.137.076c-.319.176-.637.355-.967.509l-.025.012c-.32.149-.345.151-.346.484V23.529l-.039.034A25.5,25.5,0,0,1,19.5,25.237V14.816c0-.146-.017-.3-.029-.506l-.044.019a4.137,4.137,0,0,0-.392.173l-.824.466c-.549.31-1.1.622-1.648.931l-.844.471c-.845.471-1.692.939-2.534,1.414l-.008,0-2.818,1.6,0-.008-.076.047a4.17,4.17,0,0,1-.734.353l-.008,0h0l-.075.027a4.147,4.147,0,0,1-1.3.222h-.17a4.2,4.2,0,0,1-.687-.076h0l-.054-.012L7.2,19.933l-.092-.022c-.152-.039-.3-.085-.444-.137l-.055-.02-.054-.021v0h0l-.05-.019A3.942,3.942,0,0,1,4,16v-.072c0-.048,0-.1,0-.143v-.069h0l0-.058a4.037,4.037,0,0,1,2.323-3.3l.065-.031a4.173,4.173,0,0,1,1.656-.362h.115a4.131,4.131,0,0,1,3.266,1.667l.03.034a1.066,1.066,0,0,1,.174.27l.034.057.034.057-.019.009.012.041a1.09,1.09,0,0,1,.041.3v.033a1.148,1.148,0,0,1-1.157,1.1h-.039a1.16,1.16,0,0,1-.926-.511l-.012.006-.026-.038a1.8,1.8,0,0,0-1.142-.725l-.054-.009a1.832,1.832,0,0,0-.279-.022H8.071a1.787,1.787,0,0,0-1.732,1.481l-.009.058c0,.038-.009.077-.011.116v.2l0,.038a1.783,1.783,0,0,0,1.792,1.639h.06a1.833,1.833,0,0,0,.516-.093h0l.007,0,.008,0c.325-.137,6.718-3.661,7.1-3.875l-.008,0c-.209-.088-1.974-.628-2.694-.992l-.1-.052a10.208,10.208,0,0,1-2.67-1.957l-.082-.085A10.358,10.358,0,0,1,8.6,8.447l-.014-.024a.471.471,0,0,0-.462-.256H8.1l-.688,0H6.311V9.9a1.129,1.129,0,0,1-1.137,1.084H5.106A1.126,1.126,0,0,1,4,9.864V2ZM25.662,4.266H6.311v1.7h.033v0H9.606c.335,0,.336.021.474.369l.033.083a8.2,8.2,0,0,0,2.957,3.79l.093.062a9.044,9.044,0,0,0,1.981.979l.093.033a8.014,8.014,0,0,0,3.041.391l.1-.006a7.48,7.48,0,0,0,2.009-.4l.115-.041a9.164,9.164,0,0,0,1.534-.711l.091-.054a8.077,8.077,0,0,0,1.618-1.325l.067-.071a7.048,7.048,0,0,0,1.216-1.727l.063-.129c.188-.384.374-.762.562-1.183V6Zm-7.9,1.779h.279c2.225,0,4.366.024,4.55.067l-.022.076a4.622,4.622,0,0,1-.986,1.734l-.049.054A5.079,5.079,0,0,1,18.04,9.662l-.075,0a4.963,4.963,0,0,1-5.086-3.555c.139-.039,1.988-.061,4.038-.066h.845Z" style="fill:#ef4922;fill-rule:evenodd"/></svg>
