<svg xmlns="http://www.w3.org/2000/svg" xmlns:xlink="http://www.w3.org/1999/xlink" viewBox="0 0 32 32"><defs><linearGradient id="a" x1="25.461" y1="-603.643" x2="27.412" y2="-603.643" gradientTransform="matrix(1, 0, 0, -1, 0, -578)" gradientUnits="userSpaceOnUse"><stop offset="0" stop-color="#780207"/><stop offset="1" stop-color="#ee4036"/></linearGradient><linearGradient id="b" x1="25.461" y1="-598.878" x2="27.412" y2="-598.878" gradientTransform="matrix(1, 0, 0, -1, 0, -578)" gradientUnits="userSpaceOnUse"><stop offset="0" stop-color="#faaf40"/><stop offset="1" stop-color="#f9ec31"/></linearGradient><linearGradient id="c" x1="25.461" y1="-594.023" x2="27.412" y2="-594.023" gradientTransform="matrix(1, 0, 0, -1, 0, -578)" gradientUnits="userSpaceOnUse"><stop offset="0" stop-color="#58595b"/><stop offset="1" stop-color="#a6a8ab"/></linearGradient><linearGradient id="d" x1="25.461" y1="-589.212" x2="27.412" y2="-589.212" gradientTransform="matrix(1, 0, 0, -1, 0, -578)" gradientUnits="userSpaceOnUse"><stop offset="0" stop-color="#262261"/><stop offset="1" stop-color="#1b75bb"/></linearGradient><linearGradient id="e" x1="25.461" y1="-584.357" x2="27.412" y2="-584.357" gradientTransform="matrix(1, 0, 0, -1, 0, -578)" gradientUnits="userSpaceOnUse"><stop offset="0" stop-color="#b00068"/><stop offset="1" stop-color="#f366b9"/></linearGradient><linearGradient id="f" x1="19.639" y1="-606.369" x2="12.484" y2="-582.931" gradientTransform="matrix(1, 0, 0, -1, 0, -578)" gradientUnits="userSpaceOnUse"><stop offset="0" stop-color="#9dec2a"/><stop offset="1" stop-color="#69a405"/></linearGradient><linearGradient id="g" x1="4.82" y1="-582.473" x2="5.862" y2="-582.121" gradientTransform="matrix(1, 0, 0, -1, 0, -578)" gradientUnits="userSpaceOnUse"><stop offset="0" stop-color="#404041"/><stop offset="0.564"/><stop offset="0.994"/></linearGradient><linearGradient id="h" x1="4.578" y1="-581.915" x2="6.682" y2="-581.204" gradientTransform="matrix(1, 0, 0, -1, 0, -578)" gradientUnits="userSpaceOnUse"><stop offset="0"/><stop offset="0.152" stop-color="#404041"/><stop offset="0.273" stop-color="#58595b"/><stop offset="0.388" stop-color="#404041"/><stop offset="0.539"/><stop offset="0.824"/><stop offset="0.945" stop-color="#58595b"/></linearGradient><linearGradient id="i" x1="4.82" y1="-583.648" x2="5.862" y2="-583.296" xlink:href="#g"/><linearGradient id="j" x1="4.578" y1="-583.09" x2="6.682" y2="-582.379" xlink:href="#h"/><linearGradient id="k" x1="4.82" y1="-584.823" x2="5.862" y2="-584.471" xlink:href="#g"/><linearGradient id="l" x1="4.578" y1="-584.266" x2="6.682" y2="-583.555" xlink:href="#h"/><linearGradient id="m" x1="4.82" y1="-585.998" x2="5.861" y2="-585.645" xlink:href="#g"/><linearGradient id="n" x1="4.578" y1="-585.441" x2="6.682" y2="-584.73" xlink:href="#h"/><linearGradient id="o" x1="4.82" y1="-587.174" x2="5.862" y2="-586.822" xlink:href="#g"/><linearGradient id="p" x1="4.578" y1="-586.616" x2="6.682" y2="-585.905" xlink:href="#h"/><linearGradient id="q" x1="4.82" y1="-588.349" x2="5.862" y2="-587.997" xlink:href="#g"/><linearGradient id="r" x1="4.578" y1="-587.791" x2="6.682" y2="-587.08" xlink:href="#h"/><linearGradient id="s" x1="4.82" y1="-589.524" x2="5.862" y2="-589.172" xlink:href="#g"/><linearGradient id="t" x1="4.578" y1="-588.966" x2="6.682" y2="-588.255" xlink:href="#h"/><linearGradient id="u" x1="4.821" y1="-590.698" x2="5.862" y2="-590.346" xlink:href="#g"/><linearGradient id="v" x1="4.578" y1="-590.141" x2="6.682" y2="-589.43" xlink:href="#h"/><linearGradient id="w" x1="4.82" y1="-591.875" x2="5.862" y2="-591.523" xlink:href="#g"/><linearGradient id="x" x1="4.578" y1="-591.317" x2="6.682" y2="-590.606" xlink:href="#h"/><linearGradient id="y" x1="4.82" y1="-593.05" x2="5.862" y2="-592.697" xlink:href="#g"/><linearGradient id="z" x1="4.578" y1="-592.492" x2="6.682" y2="-591.781" xlink:href="#h"/><linearGradient id="aa" x1="4.82" y1="-594.225" x2="5.862" y2="-593.873" xlink:href="#g"/><linearGradient id="ab" x1="4.578" y1="-593.667" x2="6.682" y2="-592.956" xlink:href="#h"/><linearGradient id="ac" x1="4.819" y1="-595.398" x2="5.861" y2="-595.046" xlink:href="#g"/><linearGradient id="ad" x1="4.578" y1="-594.842" x2="6.682" y2="-594.131" xlink:href="#h"/><linearGradient id="ae" x1="4.82" y1="-596.575" x2="5.862" y2="-596.223" xlink:href="#g"/><linearGradient id="af" x1="4.578" y1="-596.017" x2="6.682" y2="-595.306" xlink:href="#h"/><linearGradient id="ag" x1="4.82" y1="-597.75" x2="5.862" y2="-597.398" xlink:href="#g"/><linearGradient id="ah" x1="4.578" y1="-597.192" x2="6.682" y2="-596.481" xlink:href="#h"/><linearGradient id="ai" x1="4.82" y1="-598.925" x2="5.862" y2="-598.573" xlink:href="#g"/><linearGradient id="aj" x1="4.578" y1="-598.368" x2="6.682" y2="-597.657" xlink:href="#h"/><linearGradient id="ak" x1="4.819" y1="-600.099" x2="5.861" y2="-599.747" xlink:href="#g"/><linearGradient id="al" x1="4.578" y1="-599.543" x2="6.682" y2="-598.832" xlink:href="#h"/><linearGradient id="am" x1="4.82" y1="-601.276" x2="5.862" y2="-600.924" xlink:href="#g"/><linearGradient id="an" x1="4.578" y1="-600.718" x2="6.682" y2="-600.007" xlink:href="#h"/><linearGradient id="ao" x1="4.82" y1="-602.451" x2="5.862" y2="-602.099" xlink:href="#g"/><linearGradient id="ap" x1="4.578" y1="-601.893" x2="6.682" y2="-601.182" xlink:href="#h"/><linearGradient id="aq" x1="4.82" y1="-603.626" x2="5.862" y2="-603.274" xlink:href="#g"/><linearGradient id="ar" x1="4.578" y1="-603.068" x2="6.682" y2="-602.357" xlink:href="#h"/><linearGradient id="as" x1="4.82" y1="-604.801" x2="5.862" y2="-604.449" xlink:href="#g"/><linearGradient id="at" x1="4.578" y1="-604.244" x2="6.682" y2="-603.533" xlink:href="#h"/><linearGradient id="au" x1="4.82" y1="-605.977" x2="5.862" y2="-605.624" xlink:href="#g"/><linearGradient id="av" x1="4.58" y1="-605.424" x2="6.684" y2="-604.713" xlink:href="#h"/><linearGradient id="aw" x1="4.82" y1="-607.152" x2="5.862" y2="-606.8" xlink:href="#g"/><linearGradient id="ax" x1="4.578" y1="-606.594" x2="6.682" y2="-605.883" xlink:href="#h"/></defs><title>file_type_log</title><rect x="25.461" y="22.966" width="1.951" height="5.355" rx="0.386" ry="0.386" style="fill:url(#a)"/><rect x="25.461" y="18.201" width="1.951" height="5.355" rx="0.386" ry="0.386" style="fill:url(#b)"/><rect x="25.461" y="13.345" width="1.951" height="5.355" rx="0.386" ry="0.386" style="fill:url(#c)"/><rect x="25.461" y="8.535" width="1.951" height="5.355" rx="0.386" ry="0.386" style="fill:url(#d)"/><rect x="25.461" y="3.679" width="1.951" height="5.355" rx="0.386" ry="0.386" style="fill:url(#e)"/><rect x="5.675" y="2" width="20.376" height="28" style="fill:url(#f)"/><path d="M5.807,3.958l.007.547L4.72,4.177a.932.932,0,0,0,.342-.089c.179-.086.373-.19.373-.19Z" style="fill:url(#g)"/><ellipse cx="6.604" cy="3.14" rx="0.408" ry="0.36" style="fill:#4f4c4d"/><ellipse cx="6.61" cy="3.143" rx="0.367" ry="0.324"/><path d="M4.726,3.741c.377-.215,1.69-.805,1.69-.805a.19.19,0,0,1,.227.214c-.005.19-.106.238-.54.439-.416.193-.862.455-1.146.556a1,1,0,0,1-.13.037c-.132.028-.153-.056-.214-.171a.171.171,0,0,1,.02-.211A.542.542,0,0,1,4.726,3.741Z" style="fill:url(#h)"/><path d="M6.622,3.037s.029.175-.044.25a6.46,6.46,0,0,1-.848.453c-.213.1-.74.35-.851.4s-.131.054-.047.081.691.2.691.2V4.4L4.87,4.2s-.009-.012.09-.051S6.4,3.461,6.49,3.4a.278.278,0,0,0,.169-.275.2.2,0,0,0-.108-.181A.164.164,0,0,1,6.622,3.037Z" style="fill:#404041"/><path d="M6.552,2.952a.188.188,0,0,1,.079.211c-.032.151-.082.157-.335.3s-1.51.727-1.51.727,1.407-.7,1.585-.79.283-.181.251-.335A.2.2,0,0,0,6.552,2.952Z" style="fill:#6d6e70"/><path d="M4.879,4.193s1.577-.748,1.667-.821a.278.278,0,0,0,.111-.253l-.015-.075a.3.3,0,0,1-.029.287c-.07.084-.087.081-.2.136L4.905,4.2l.326.112A1.679,1.679,0,0,1,4.879,4.193Z" style="fill:#231f20"/><path d="M5.807,5.133l.007.547L4.72,5.352a.932.932,0,0,0,.342-.089c.179-.086.373-.19.373-.19Z" style="fill:url(#i)"/><ellipse cx="6.604" cy="4.315" rx="0.408" ry="0.36" style="fill:#4f4c4d"/><ellipse cx="6.61" cy="4.318" rx="0.367" ry="0.324"/><path d="M4.726,4.916c.377-.215,1.69-.8,1.69-.8a.19.19,0,0,1,.227.214c-.005.19-.106.238-.54.439-.416.193-.862.455-1.146.556a1,1,0,0,1-.13.037c-.132.028-.153-.056-.214-.171a.171.171,0,0,1,.019-.209A.542.542,0,0,1,4.726,4.916Z" style="fill:url(#j)"/><path d="M6.622,4.212s.029.175-.044.25a6.46,6.46,0,0,1-.848.453c-.213.1-.74.35-.851.4s-.131.054-.047.081.691.2.691.2v-.03L4.87,5.38s-.009-.012.09-.051,1.44-.688,1.53-.745a.278.278,0,0,0,.169-.275.2.2,0,0,0-.108-.181A.164.164,0,0,1,6.622,4.212Z" style="fill:#404041"/><path d="M6.552,4.128a.188.188,0,0,1,.079.211c-.032.151-.082.157-.335.3s-1.51.727-1.51.727,1.408-.694,1.586-.785.283-.181.251-.335A.2.2,0,0,0,6.552,4.128Z" style="fill:#6d6e70"/><path d="M4.879,5.368s1.577-.748,1.667-.821a.278.278,0,0,0,.111-.253l-.015-.075a.3.3,0,0,1-.029.287c-.07.085-.087.081-.2.136L4.9,5.375l.326.112A1.679,1.679,0,0,1,4.879,5.368Z" style="fill:#231f20"/><path d="M5.807,6.308l.007.547L4.72,6.527a.932.932,0,0,0,.342-.089c.179-.086.373-.19.373-.19Z" style="fill:url(#k)"/><ellipse cx="6.604" cy="5.49" rx="0.408" ry="0.36" style="fill:#4f4c4d"/><ellipse cx="6.61" cy="5.493" rx="0.367" ry="0.324"/><path d="M4.726,6.092c.377-.215,1.69-.8,1.69-.8a.19.19,0,0,1,.227.214c-.005.19-.106.238-.54.439-.416.193-.862.455-1.146.556a1,1,0,0,1-.13.037c-.132.028-.153-.056-.214-.171a.171.171,0,0,1,.019-.209A.543.543,0,0,1,4.726,6.092Z" style="fill:url(#l)"/><path d="M6.622,5.387s.029.175-.044.25a6.46,6.46,0,0,1-.848.453c-.213.1-.74.35-.851.4s-.131.054-.047.081.691.2.691.2v-.03l-.656-.19s-.009-.012.09-.051,1.44-.688,1.53-.745a.279.279,0,0,0,.169-.275.2.2,0,0,0-.1-.185A.164.164,0,0,1,6.622,5.387Z" style="fill:#404041"/><path d="M6.552,5.3a.188.188,0,0,1,.079.211c-.032.151-.082.157-.335.3s-1.51.727-1.51.727,1.408-.694,1.586-.785.283-.181.251-.335A.2.2,0,0,0,6.552,5.3Z" style="fill:#6d6e70"/><path d="M4.879,6.543S6.456,5.8,6.546,5.722a.278.278,0,0,0,.111-.253l-.015-.075a.3.3,0,0,1-.029.287c-.07.085-.087.081-.2.136L4.9,6.55l.326.112A1.678,1.678,0,0,1,4.879,6.543Z" style="fill:#231f20"/><path d="M5.807,7.483l.007.547L4.72,7.7a.932.932,0,0,0,.342-.089c.179-.086.373-.19.373-.19Z" style="fill:url(#m)"/><ellipse cx="6.604" cy="6.665" rx="0.408" ry="0.36" style="fill:#4f4c4d"/><ellipse cx="6.61" cy="6.668" rx="0.367" ry="0.324"/><path d="M4.726,7.267c.377-.215,1.69-.8,1.69-.8a.19.19,0,0,1,.227.214c-.005.19-.106.238-.54.439-.416.193-.862.455-1.146.556a1,1,0,0,1-.13.037c-.132.028-.153-.056-.214-.171a.171.171,0,0,1,.019-.209A.542.542,0,0,1,4.726,7.267Z" style="fill:url(#n)"/><path d="M6.622,6.562s.029.175-.044.25a6.457,6.457,0,0,1-.848.453c-.213.1-.74.35-.851.4s-.131.054-.047.081.691.2.691.2v-.03L4.87,7.73s-.009-.012.09-.051,1.44-.688,1.53-.745a.278.278,0,0,0,.169-.275.2.2,0,0,0-.108-.181A.164.164,0,0,1,6.622,6.562Z" style="fill:#404041"/><path d="M6.552,6.478a.188.188,0,0,1,.079.211c-.032.151-.082.157-.335.3s-1.51.727-1.51.727,1.408-.694,1.586-.785.283-.181.251-.335A.2.2,0,0,0,6.552,6.478Z" style="fill:#6d6e70"/><path d="M4.879,7.718S6.456,6.97,6.546,6.9a.278.278,0,0,0,.111-.253l-.015-.075a.3.3,0,0,1-.029.287c-.07.085-.087.081-.2.136L4.9,7.728l.326.112A1.68,1.68,0,0,1,4.879,7.718Z" style="fill:#231f20"/><path d="M5.807,8.658l.007.547L4.72,8.878a.932.932,0,0,0,.342-.089c.179-.086.373-.19.373-.19Z" style="fill:url(#o)"/><ellipse cx="6.604" cy="7.841" rx="0.408" ry="0.36" style="fill:#4f4c4d"/><ellipse cx="6.61" cy="7.843" rx="0.367" ry="0.324"/><path d="M4.726,8.442c.377-.215,1.69-.8,1.69-.8a.19.19,0,0,1,.227.214c-.005.19-.106.238-.54.439-.416.193-.862.455-1.146.556a1,1,0,0,1-.13.037c-.132.028-.153-.056-.214-.171a.171.171,0,0,1,.02-.212A.544.544,0,0,1,4.726,8.442Z" style="fill:url(#p)"/><path d="M6.622,7.738s.029.175-.044.25a6.46,6.46,0,0,1-.848.453c-.213.1-.74.35-.851.4s-.131.054-.047.081.691.2.691.2V9.1l-.656-.19s-.009-.012.09-.051,1.44-.688,1.53-.745a.278.278,0,0,0,.169-.275.2.2,0,0,0-.108-.181A.164.164,0,0,1,6.622,7.738Z" style="fill:#404041"/><path d="M6.552,7.653a.188.188,0,0,1,.079.211c-.032.151-.082.157-.335.3s-1.51.727-1.51.727,1.407-.7,1.585-.791.283-.181.251-.335A.2.2,0,0,0,6.552,7.653Z" style="fill:#6d6e70"/><path d="M4.879,8.893s1.577-.748,1.667-.821a.278.278,0,0,0,.111-.253l-.015-.075a.3.3,0,0,1-.029.287c-.07.084-.087.081-.2.136L4.905,8.9l.326.112A1.678,1.678,0,0,1,4.879,8.893Z" style="fill:#231f20"/><path d="M5.807,9.834l.007.547L4.72,10.053a.932.932,0,0,0,.342-.089c.179-.086.373-.19.373-.19Z" style="fill:url(#q)"/><ellipse cx="6.604" cy="9.016" rx="0.408" ry="0.36" style="fill:#4f4c4d"/><ellipse cx="6.61" cy="9.019" rx="0.367" ry="0.324"/><path d="M4.726,9.617c.377-.215,1.69-.805,1.69-.805a.19.19,0,0,1,.227.214c-.005.19-.106.238-.54.439-.416.193-.862.455-1.146.556a1,1,0,0,1-.13.037c-.132.028-.153-.056-.214-.171a.171.171,0,0,1,.019-.209A.544.544,0,0,1,4.726,9.617Z" style="fill:url(#r)"/><path d="M6.622,8.913s.029.175-.044.25a6.46,6.46,0,0,1-.848.453c-.213.1-.74.35-.851.4s-.131.054-.047.081.691.2.691.2v-.03l-.656-.19s-.009-.012.09-.051,1.44-.688,1.53-.745a.278.278,0,0,0,.169-.275.2.2,0,0,0-.108-.181A.164.164,0,0,1,6.622,8.913Z" style="fill:#404041"/><path d="M6.552,8.828a.188.188,0,0,1,.079.211c-.032.151-.082.157-.335.3s-1.51.727-1.51.727,1.408-.694,1.586-.785.283-.181.251-.335A.2.2,0,0,0,6.552,8.828Z" style="fill:#6d6e70"/><path d="M4.879,10.069s1.577-.748,1.667-.821a.278.278,0,0,0,.111-.253L6.642,8.92a.3.3,0,0,1-.029.287c-.07.084-.087.081-.2.136L4.9,10.076l.326.112A1.678,1.678,0,0,1,4.879,10.069Z" style="fill:#231f20"/><path d="M5.807,11.009l.007.547L4.72,11.228a.932.932,0,0,0,.342-.089c.179-.086.373-.19.373-.19Z" style="fill:url(#s)"/><ellipse cx="6.604" cy="10.191" rx="0.408" ry="0.36" style="fill:#4f4c4d"/><ellipse cx="6.61" cy="10.194" rx="0.367" ry="0.324"/><path d="M4.726,10.792c.377-.215,1.69-.805,1.69-.805a.19.19,0,0,1,.227.214c-.005.19-.106.238-.54.439-.416.193-.862.455-1.146.556a1,1,0,0,1-.13.037c-.132.028-.153-.056-.214-.171a.171.171,0,0,1,.019-.209A.545.545,0,0,1,4.726,10.792Z" style="fill:url(#t)"/><path d="M6.622,10.088s.029.175-.044.25a6.457,6.457,0,0,1-.848.453c-.213.1-.74.35-.851.4s-.131.054-.047.081.691.2.691.2v-.03l-.656-.19s-.009-.012.09-.051,1.44-.688,1.53-.745a.279.279,0,0,0,.169-.275.2.2,0,0,0-.1-.186A.164.164,0,0,1,6.622,10.088Z" style="fill:#404041"/><path d="M6.552,10a.188.188,0,0,1,.079.211c-.032.151-.082.157-.335.3s-1.51.727-1.51.727,1.408-.694,1.586-.785.283-.181.251-.335A.2.2,0,0,0,6.552,10Z" style="fill:#6d6e70"/><path d="M4.879,11.244s1.577-.748,1.667-.821a.278.278,0,0,0,.111-.253L6.642,10.1a.3.3,0,0,1-.029.287c-.07.084-.087.081-.2.136L4.9,11.251l.326.112A1.679,1.679,0,0,1,4.879,11.244Z" style="fill:#231f20"/><path d="M5.807,12.184l.007.547L4.72,12.4a.932.932,0,0,0,.342-.089c.179-.086.373-.19.373-.19Z" style="fill:url(#u)"/><ellipse cx="6.604" cy="11.366" rx="0.408" ry="0.36" style="fill:#4f4c4d"/><ellipse cx="6.61" cy="11.369" rx="0.367" ry="0.324"/><path d="M4.726,11.967c.377-.215,1.69-.805,1.69-.805a.19.19,0,0,1,.227.214c-.005.19-.106.238-.54.439-.416.193-.862.455-1.146.556a1,1,0,0,1-.13.037c-.132.028-.153-.056-.214-.171a.171.171,0,0,1,.019-.209A.544.544,0,0,1,4.726,11.967Z" style="fill:url(#v)"/><path d="M6.622,11.263s.029.175-.044.25a6.459,6.459,0,0,1-.848.453c-.213.1-.74.35-.851.4s-.131.054-.047.081.691.2.691.2v-.03l-.656-.19s-.009-.012.09-.051,1.44-.688,1.53-.745a.279.279,0,0,0,.169-.275.2.2,0,0,0-.108-.181A.164.164,0,0,1,6.622,11.263Z" style="fill:#404041"/><path d="M6.552,11.179a.188.188,0,0,1,.079.211c-.032.151-.082.157-.335.3s-1.51.727-1.51.727,1.408-.694,1.586-.785.283-.181.251-.335A.2.2,0,0,0,6.552,11.179Z" style="fill:#6d6e70"/><path d="M4.879,12.419s1.577-.748,1.667-.821a.278.278,0,0,0,.111-.253l-.015-.075a.3.3,0,0,1-.029.287c-.07.085-.087.081-.2.136L4.9,12.426l.326.112A1.68,1.68,0,0,1,4.879,12.419Z" style="fill:#231f20"/><path d="M5.807,13.359l.007.547L4.72,13.579a.932.932,0,0,0,.342-.089c.179-.086.373-.19.373-.19Z" style="fill:url(#w)"/><ellipse cx="6.604" cy="12.541" rx="0.408" ry="0.36" style="fill:#4f4c4d"/><ellipse cx="6.61" cy="12.544" rx="0.367" ry="0.324"/><path d="M4.726,13.143c.377-.215,1.69-.805,1.69-.805a.19.19,0,0,1,.227.214c-.005.19-.106.238-.54.439-.416.193-.862.455-1.146.556a1,1,0,0,1-.13.037c-.132.028-.153-.056-.214-.171a.171.171,0,0,1,.019-.209A.546.546,0,0,1,4.726,13.143Z" style="fill:url(#x)"/><path d="M6.622,12.438s.029.175-.044.25a6.462,6.462,0,0,1-.848.453c-.213.1-.74.35-.851.4s-.131.054-.047.081.691.2.691.2V13.8l-.656-.19s-.009-.012.09-.051,1.44-.688,1.53-.745a.279.279,0,0,0,.169-.275.2.2,0,0,0-.108-.181A.164.164,0,0,1,6.622,12.438Z" style="fill:#404041"/><path d="M6.552,12.354a.188.188,0,0,1,.079.211c-.032.151-.082.157-.335.3s-1.51.727-1.51.727,1.408-.694,1.586-.785.283-.181.251-.335A.2.2,0,0,0,6.552,12.354Z" style="fill:#6d6e70"/><path d="M4.879,13.594s1.577-.748,1.667-.821a.278.278,0,0,0,.111-.253l-.015-.075a.3.3,0,0,1-.029.287c-.07.084-.087.081-.2.136L4.9,13.6l.326.112A1.678,1.678,0,0,1,4.879,13.594Z" style="fill:#231f20"/><path d="M5.807,14.534l.007.547L4.72,14.754a.932.932,0,0,0,.342-.089c.179-.086.373-.19.373-.19Z" style="fill:url(#y)"/><ellipse cx="6.604" cy="13.717" rx="0.408" ry="0.36" style="fill:#4f4c4d"/><ellipse cx="6.61" cy="13.719" rx="0.367" ry="0.324"/><path d="M4.726,14.318c.377-.215,1.69-.805,1.69-.805a.19.19,0,0,1,.227.214c-.005.19-.106.238-.54.439-.416.193-.862.455-1.146.556a1,1,0,0,1-.13.037c-.132.028-.153-.056-.214-.171a.171.171,0,0,1,.019-.209A.544.544,0,0,1,4.726,14.318Z" style="fill:url(#z)"/><path d="M6.622,13.614s.029.175-.044.25a6.457,6.457,0,0,1-.848.453c-.213.1-.74.35-.851.4s-.131.054-.047.081.691.2.691.2v-.03l-.656-.19s-.009-.012.09-.051,1.44-.688,1.53-.745a.279.279,0,0,0,.169-.275.2.2,0,0,0-.108-.181A.164.164,0,0,1,6.622,13.614Z" style="fill:#404041"/><path d="M6.552,13.529a.188.188,0,0,1,.079.211c-.032.151-.082.157-.335.3s-1.51.727-1.51.727,1.408-.694,1.586-.785.283-.181.251-.335A.2.2,0,0,0,6.552,13.529Z" style="fill:#6d6e70"/><path d="M4.879,14.769s1.577-.748,1.667-.821a.278.278,0,0,0,.111-.253l-.015-.075a.3.3,0,0,1-.029.287c-.07.085-.087.081-.2.136L4.9,14.776l.326.112A1.68,1.68,0,0,1,4.879,14.769Z" style="fill:#231f20"/><path d="M5.807,15.709l.007.547L4.72,15.929a.932.932,0,0,0,.342-.089c.179-.086.373-.19.373-.19Z" style="fill:url(#aa)"/><ellipse cx="6.604" cy="14.892" rx="0.408" ry="0.36" style="fill:#4f4c4d"/><ellipse cx="6.61" cy="14.895" rx="0.367" ry="0.324"/><path d="M4.726,15.493c.377-.215,1.69-.805,1.69-.805a.19.19,0,0,1,.227.214c-.005.19-.106.238-.54.439-.416.193-.862.455-1.146.556a1,1,0,0,1-.13.037c-.132.028-.153-.056-.214-.171a.171.171,0,0,1,.019-.209A.544.544,0,0,1,4.726,15.493Z" style="fill:url(#ab)"/><path d="M6.622,14.789s.029.175-.044.25a6.457,6.457,0,0,1-.848.453c-.213.1-.74.35-.851.4s-.131.054-.047.081.691.2.691.2v-.03l-.656-.19s-.009-.012.09-.051,1.44-.688,1.53-.745a.279.279,0,0,0,.169-.275.2.2,0,0,0-.108-.181A.164.164,0,0,1,6.622,14.789Z" style="fill:#404041"/><path d="M6.552,14.7a.188.188,0,0,1,.079.211c-.032.151-.082.157-.335.3s-1.51.727-1.51.727,1.408-.694,1.586-.785.283-.181.251-.335A.2.2,0,0,0,6.552,14.7Z" style="fill:#6d6e70"/><path d="M4.879,15.944s1.577-.748,1.667-.821a.278.278,0,0,0,.111-.253L6.642,14.8a.3.3,0,0,1-.029.287c-.07.085-.087.081-.2.136L4.9,15.951l.326.112A1.68,1.68,0,0,1,4.879,15.944Z" style="fill:#231f20"/><path d="M5.807,16.885l.007.547L4.72,17.1a.932.932,0,0,0,.342-.089c.179-.086.373-.19.373-.19Z" style="fill:url(#ac)"/><ellipse cx="6.604" cy="16.067" rx="0.408" ry="0.36" style="fill:#4f4c4d"/><ellipse cx="6.61" cy="16.07" rx="0.367" ry="0.324"/><path d="M4.726,16.668c.377-.215,1.69-.805,1.69-.805a.19.19,0,0,1,.227.214c-.005.19-.106.238-.54.439-.416.193-.862.455-1.146.556a1.006,1.006,0,0,1-.13.037c-.132.028-.153-.056-.214-.171a.171.171,0,0,1,.019-.209A.541.541,0,0,1,4.726,16.668Z" style="fill:url(#ad)"/><path d="M6.622,15.964s.029.175-.044.25a6.465,6.465,0,0,1-.848.453c-.213.1-.74.35-.851.4s-.131.054-.047.081.691.2.691.2v-.03l-.656-.19s-.009-.012.09-.051,1.44-.688,1.53-.745a.278.278,0,0,0,.169-.275.2.2,0,0,0-.108-.181A.164.164,0,0,1,6.622,15.964Z" style="fill:#404041"/><path d="M6.552,15.879a.188.188,0,0,1,.079.211c-.032.151-.082.157-.335.3s-1.51.727-1.51.727,1.408-.694,1.586-.785.283-.181.251-.335A.2.2,0,0,0,6.552,15.879Z" style="fill:#6d6e70"/><path d="M4.879,17.12s1.577-.748,1.667-.821a.278.278,0,0,0,.111-.253l-.015-.075a.3.3,0,0,1-.029.287c-.07.084-.087.081-.2.136L4.9,17.127l.326.112A1.681,1.681,0,0,1,4.879,17.12Z" style="fill:#231f20"/><path d="M5.807,18.06l.007.547L4.72,18.279a.932.932,0,0,0,.342-.089c.179-.086.373-.19.373-.19Z" style="fill:url(#ae)"/><ellipse cx="6.604" cy="17.242" rx="0.408" ry="0.36" style="fill:#4f4c4d"/><ellipse cx="6.61" cy="17.245" rx="0.367" ry="0.324"/><path d="M4.726,17.843c.377-.215,1.69-.805,1.69-.805a.19.19,0,0,1,.227.214c-.005.19-.106.238-.54.439-.416.193-.862.455-1.146.556a1,1,0,0,1-.13.037c-.132.028-.153-.056-.214-.171a.171.171,0,0,1,.019-.209A.544.544,0,0,1,4.726,17.843Z" style="fill:url(#af)"/><path d="M6.622,17.139s.029.175-.044.25a6.452,6.452,0,0,1-.848.453c-.213.1-.74.35-.851.4s-.131.054-.047.081.691.2.691.2V18.5l-.656-.19s-.009-.012.09-.051,1.44-.688,1.53-.745a.278.278,0,0,0,.169-.275.2.2,0,0,0-.108-.181A.165.165,0,0,1,6.622,17.139Z" style="fill:#404041"/><path d="M6.552,17.054a.188.188,0,0,1,.079.211c-.032.151-.082.157-.335.3s-1.51.727-1.51.727,1.408-.694,1.586-.785.283-.181.251-.335A.2.2,0,0,0,6.552,17.054Z" style="fill:#6d6e70"/><path d="M4.879,18.3s1.577-.748,1.667-.821a.278.278,0,0,0,.111-.253l-.015-.075a.3.3,0,0,1-.029.287c-.07.085-.087.081-.2.136L4.9,18.3l.326.112A1.681,1.681,0,0,1,4.879,18.3Z" style="fill:#231f20"/><path d="M5.807,19.235l.007.547L4.72,19.454a.931.931,0,0,0,.342-.089c.179-.086.373-.19.373-.19Z" style="fill:url(#ag)"/><ellipse cx="6.604" cy="18.417" rx="0.408" ry="0.36" style="fill:#4f4c4d"/><ellipse cx="6.61" cy="18.42" rx="0.367" ry="0.324"/><path d="M4.726,19.018c.377-.215,1.69-.805,1.69-.805a.19.19,0,0,1,.227.214c-.005.19-.106.238-.54.439-.416.193-.862.455-1.146.556a.991.991,0,0,1-.13.037c-.132.028-.153-.056-.214-.171a.171.171,0,0,1,.019-.209A.541.541,0,0,1,4.726,19.018Z" style="fill:url(#ah)"/><path d="M6.622,18.314s.029.175-.044.25a6.463,6.463,0,0,1-.848.453c-.213.1-.74.35-.851.4s-.131.054-.047.081.691.2.691.2v-.03l-.656-.19s-.009-.012.09-.051,1.44-.688,1.53-.745a.279.279,0,0,0,.169-.275.2.2,0,0,0-.108-.181A.164.164,0,0,1,6.622,18.314Z" style="fill:#404041"/><path d="M6.552,18.23a.188.188,0,0,1,.079.211c-.032.151-.082.157-.335.3s-1.51.727-1.51.727,1.408-.694,1.586-.785.283-.181.251-.335A.2.2,0,0,0,6.552,18.23Z" style="fill:#6d6e70"/><path d="M4.879,19.47s1.577-.748,1.667-.821a.278.278,0,0,0,.111-.253l-.015-.075a.3.3,0,0,1-.029.287c-.07.085-.087.081-.2.136L4.9,19.477l.326.112A1.676,1.676,0,0,1,4.879,19.47Z" style="fill:#231f20"/><path d="M5.807,20.41l.007.547L4.72,20.629a.931.931,0,0,0,.342-.089c.179-.086.373-.19.373-.19Z" style="fill:url(#ai)"/><ellipse cx="6.604" cy="19.592" rx="0.408" ry="0.36" style="fill:#4f4c4d"/><ellipse cx="6.61" cy="19.595" rx="0.367" ry="0.324"/><path d="M4.726,20.194c.377-.215,1.69-.805,1.69-.805a.19.19,0,0,1,.227.214c-.005.19-.106.238-.54.439-.416.193-.862.455-1.146.556a.977.977,0,0,1-.13.037c-.132.028-.153-.056-.214-.171a.171.171,0,0,1,.019-.209A.546.546,0,0,1,4.726,20.194Z" style="fill:url(#aj)"/><path d="M6.622,19.489s.029.175-.044.25a6.453,6.453,0,0,1-.848.453c-.213.1-.74.35-.851.4s-.131.054-.047.081.691.2.691.2v-.03l-.656-.19s-.009-.012.09-.051,1.44-.688,1.53-.745a.279.279,0,0,0,.169-.275.2.2,0,0,0-.108-.181A.164.164,0,0,1,6.622,19.489Z" style="fill:#404041"/><path d="M6.552,19.4a.188.188,0,0,1,.079.211c-.032.151-.082.157-.335.3s-1.51.727-1.51.727,1.408-.694,1.586-.785.283-.181.251-.335A.2.2,0,0,0,6.552,19.4Z" style="fill:#6d6e70"/><path d="M4.879,20.645s1.577-.748,1.667-.821a.278.278,0,0,0,.111-.253L6.642,19.5a.3.3,0,0,1-.029.287c-.07.085-.087.081-.2.136L4.9,20.656l.326.112A1.674,1.674,0,0,1,4.879,20.645Z" style="fill:#231f20"/><path d="M5.807,21.585l.007.547L4.72,21.8a.931.931,0,0,0,.342-.089c.179-.085.373-.19.373-.19Z" style="fill:url(#ak)"/><ellipse cx="6.604" cy="20.768" rx="0.408" ry="0.36" style="fill:#4f4c4d"/><ellipse cx="6.61" cy="20.77" rx="0.367" ry="0.324"/><path d="M4.726,21.369c.377-.215,1.69-.805,1.69-.805a.19.19,0,0,1,.227.214c-.005.19-.106.238-.54.439-.416.193-.862.455-1.146.556a1.013,1.013,0,0,1-.13.037c-.132.028-.153-.056-.214-.171a.171.171,0,0,1,.019-.209A.538.538,0,0,1,4.726,21.369Z" style="fill:url(#al)"/><path d="M6.622,20.665s.029.175-.044.25a6.463,6.463,0,0,1-.848.453c-.213.1-.74.35-.851.4s-.131.054-.047.081.691.2.691.2v-.03l-.656-.19s-.009-.012.09-.051,1.44-.688,1.53-.745a.279.279,0,0,0,.169-.275.2.2,0,0,0-.108-.181A.164.164,0,0,1,6.622,20.665Z" style="fill:#404041"/><path d="M6.552,20.58a.188.188,0,0,1,.079.211c-.032.151-.082.157-.335.3s-1.51.727-1.51.727,1.408-.694,1.586-.785.283-.181.251-.335A.2.2,0,0,0,6.552,20.58Z" style="fill:#6d6e70"/><path d="M4.879,21.82s1.577-.748,1.667-.82a.278.278,0,0,0,.111-.253l-.015-.075a.3.3,0,0,1-.029.287c-.07.085-.087.081-.2.136L4.9,21.828l.326.112A1.681,1.681,0,0,1,4.879,21.82Z" style="fill:#231f20"/><path d="M5.807,22.76l.007.547L4.72,22.98a.932.932,0,0,0,.342-.089c.179-.085.373-.19.373-.19Z" style="fill:url(#am)"/><ellipse cx="6.604" cy="21.943" rx="0.408" ry="0.36" style="fill:#4f4c4d"/><ellipse cx="6.61" cy="21.946" rx="0.367" ry="0.324"/><path d="M4.726,22.544c.377-.215,1.69-.805,1.69-.805a.19.19,0,0,1,.227.214c-.005.19-.106.238-.54.439-.416.193-.862.455-1.146.556a1.006,1.006,0,0,1-.13.037c-.132.028-.153-.056-.214-.171a.171.171,0,0,1,.019-.209A.536.536,0,0,1,4.726,22.544Z" style="fill:url(#an)"/><path d="M6.622,21.84s.029.175-.044.25a6.457,6.457,0,0,1-.848.453c-.213.1-.74.35-.851.4s-.131.054-.047.081.691.2.691.2V23.2l-.656-.19s-.009-.012.09-.051,1.44-.688,1.53-.745a.279.279,0,0,0,.169-.275.2.2,0,0,0-.108-.181A.165.165,0,0,1,6.622,21.84Z" style="fill:#404041"/><path d="M6.552,21.755a.188.188,0,0,1,.079.211c-.032.151-.082.157-.335.3s-1.51.727-1.51.727S6.193,22.3,6.371,22.2s.283-.181.251-.335A.2.2,0,0,0,6.552,21.755Z" style="fill:#6d6e70"/><path d="M4.879,23s1.577-.748,1.667-.821a.278.278,0,0,0,.111-.253l-.015-.075a.3.3,0,0,1-.029.287c-.07.085-.087.081-.2.136L4.905,23l.326.112A1.681,1.681,0,0,1,4.879,23Z" style="fill:#231f20"/><path d="M5.807,23.936l.007.547L4.72,24.155a.932.932,0,0,0,.342-.089c.179-.086.373-.19.373-.19Z" style="fill:url(#ao)"/><ellipse cx="6.604" cy="23.118" rx="0.408" ry="0.36" style="fill:#4f4c4d"/><ellipse cx="6.61" cy="23.121" rx="0.367" ry="0.324"/><path d="M4.726,23.719c.377-.215,1.69-.805,1.69-.805a.19.19,0,0,1,.227.214c-.005.19-.106.238-.54.439-.416.193-.862.455-1.146.556a.97.97,0,0,1-.13.037c-.132.028-.153-.056-.214-.171a.171.171,0,0,1,.019-.209A.547.547,0,0,1,4.726,23.719Z" style="fill:url(#ap)"/><path d="M6.622,23.015s.029.175-.044.25a6.458,6.458,0,0,1-.848.453c-.213.1-.74.35-.851.4s-.131.054-.047.081.691.2.691.2v-.03l-.656-.19s-.009-.012.09-.051,1.44-.688,1.53-.745a.278.278,0,0,0,.169-.275.2.2,0,0,0-.108-.181A.164.164,0,0,1,6.622,23.015Z" style="fill:#404041"/><path d="M6.552,22.931a.188.188,0,0,1,.079.211c-.032.151-.082.157-.335.3s-1.51.727-1.51.727,1.408-.694,1.586-.785.283-.181.251-.335A.2.2,0,0,0,6.552,22.931Z" style="fill:#6d6e70"/><path d="M4.879,24.171s1.577-.748,1.667-.821a.278.278,0,0,0,.111-.253l-.015-.075a.3.3,0,0,1-.029.287c-.07.085-.087.081-.2.136L4.9,24.178l.326.112A1.676,1.676,0,0,1,4.879,24.171Z" style="fill:#231f20"/><path d="M5.807,25.111l.007.547L4.72,25.33a.932.932,0,0,0,.342-.089c.179-.085.373-.19.373-.19Z" style="fill:url(#aq)"/><ellipse cx="6.604" cy="24.293" rx="0.408" ry="0.36" style="fill:#4f4c4d"/><ellipse cx="6.61" cy="24.296" rx="0.367" ry="0.324"/><path d="M4.726,24.894c.377-.215,1.69-.805,1.69-.805a.19.19,0,0,1,.227.214c-.005.19-.106.238-.54.439-.416.193-.862.455-1.146.556a.986.986,0,0,1-.13.037c-.132.028-.153-.056-.214-.171a.171.171,0,0,1,.019-.209A.537.537,0,0,1,4.726,24.894Z" style="fill:url(#ar)"/><path d="M6.622,24.19s.029.175-.044.25a6.452,6.452,0,0,1-.848.453c-.213.1-.74.35-.851.4s-.131.054-.047.081.691.2.691.2v-.03l-.656-.19s-.009-.012.09-.051,1.44-.688,1.53-.745a.278.278,0,0,0,.169-.275.2.2,0,0,0-.108-.181A.164.164,0,0,1,6.622,24.19Z" style="fill:#404041"/><path d="M6.552,24.106a.188.188,0,0,1,.079.211c-.032.151-.082.157-.335.3s-1.51.727-1.51.727,1.408-.694,1.586-.785.283-.181.251-.335A.2.2,0,0,0,6.552,24.106Z" style="fill:#6d6e70"/><path d="M4.879,25.346s1.577-.748,1.667-.821a.278.278,0,0,0,.111-.253L6.642,24.2a.3.3,0,0,1-.029.287c-.07.085-.087.081-.2.136L4.9,25.356l.326.112A1.679,1.679,0,0,1,4.879,25.346Z" style="fill:#231f20"/><path d="M5.807,26.286l.007.547L4.72,26.5a.933.933,0,0,0,.342-.089c.179-.086.373-.19.373-.19Z" style="fill:url(#as)"/><ellipse cx="6.604" cy="25.468" rx="0.408" ry="0.36" style="fill:#4f4c4d"/><ellipse cx="6.61" cy="25.471" rx="0.367" ry="0.324"/><path d="M4.726,26.07c.377-.215,1.69-.805,1.69-.805a.19.19,0,0,1,.227.214c-.005.19-.106.238-.54.439-.416.193-.862.455-1.146.556a.992.992,0,0,1-.13.037c-.132.028-.153-.056-.214-.171a.171.171,0,0,1,.019-.209A.544.544,0,0,1,4.726,26.07Z" style="fill:url(#at)"/><path d="M6.622,25.365s.029.175-.044.251a6.469,6.469,0,0,1-.848.453c-.213.1-.74.35-.851.4s-.131.054-.047.081.691.2.691.2v-.03l-.656-.19s-.009-.012.09-.051,1.44-.688,1.53-.745a.278.278,0,0,0,.169-.275.2.2,0,0,0-.108-.181A.164.164,0,0,1,6.622,25.365Z" style="fill:#404041"/><path d="M6.552,25.281a.188.188,0,0,1,.079.211c-.032.151-.082.157-.335.3s-1.51.727-1.51.727,1.408-.694,1.586-.785.283-.181.251-.335A.2.2,0,0,0,6.552,25.281Z" style="fill:#6d6e70"/><path d="M4.879,26.521s1.577-.748,1.667-.821a.278.278,0,0,0,.111-.254l-.015-.075a.3.3,0,0,1-.029.287c-.07.084-.087.081-.2.136L4.9,26.527l.326.112A1.679,1.679,0,0,1,4.879,26.521Z" style="fill:#231f20"/><path d="M5.807,27.461l.007.547L4.72,27.681a.932.932,0,0,0,.342-.089c.179-.086.373-.19.373-.19Z" style="fill:url(#au)"/><ellipse cx="6.604" cy="26.643" rx="0.408" ry="0.36" style="fill:#4f4c4d"/><ellipse cx="6.61" cy="26.646" rx="0.367" ry="0.324"/><path d="M4.726,27.245c.377-.215,1.69-.8,1.69-.8a.19.19,0,0,1,.227.214c-.005.19-.106.238-.54.439-.416.193-.862.455-1.146.556a.986.986,0,0,1-.13.037c-.132.028-.153-.056-.214-.171a.171.171,0,0,1,.019-.209A.549.549,0,0,1,4.726,27.245Z" style="fill:url(#av)"/><path d="M6.622,26.54s.029.175-.044.25a6.447,6.447,0,0,1-.848.453c-.213.1-.74.35-.851.4s-.131.054-.047.082.691.2.691.2V27.9l-.656-.19s-.009-.012.09-.051,1.44-.688,1.53-.745a.278.278,0,0,0,.169-.275.2.2,0,0,0-.108-.181A.164.164,0,0,1,6.622,26.54Z" style="fill:#404041"/><path d="M6.552,26.456a.188.188,0,0,1,.079.211c-.032.151-.082.157-.335.3s-1.51.727-1.51.727S6.193,27,6.371,26.906s.283-.181.251-.335A.2.2,0,0,0,6.552,26.456Z" style="fill:#6d6e70"/><path d="M4.879,27.7s1.577-.748,1.667-.821a.278.278,0,0,0,.111-.253l-.015-.075a.3.3,0,0,1-.029.287c-.07.085-.087.081-.2.136L4.9,27.707l.326.112A1.676,1.676,0,0,1,4.879,27.7Z" style="fill:#231f20"/><path d="M5.807,28.636l.007.547L4.72,28.856a.932.932,0,0,0,.342-.089c.179-.086.373-.19.373-.19Z" style="fill:url(#aw)"/><ellipse cx="6.604" cy="27.819" rx="0.408" ry="0.36" style="fill:#4f4c4d"/><ellipse cx="6.61" cy="27.821" rx="0.367" ry="0.324"/><path d="M4.726,28.42c.377-.215,1.69-.805,1.69-.805a.19.19,0,0,1,.227.214c-.005.19-.106.238-.54.439-.416.193-.862.455-1.146.556a1.021,1.021,0,0,1-.13.037c-.132.028-.153-.056-.214-.171a.171.171,0,0,1,.019-.209A.541.541,0,0,1,4.726,28.42Z" style="fill:url(#ax)"/><path d="M6.622,27.716s.029.175-.044.25a6.451,6.451,0,0,1-.848.453c-.213.1-.74.35-.851.4s-.131.054-.047.081.691.2.691.2v-.03l-.656-.19s-.009-.012.09-.051,1.44-.688,1.53-.745a.279.279,0,0,0,.169-.275.2.2,0,0,0-.108-.181A.164.164,0,0,1,6.622,27.716Z" style="fill:#404041"/><path d="M6.552,27.631a.188.188,0,0,1,.079.211c-.032.151-.082.157-.335.3s-1.51.727-1.51.727,1.408-.694,1.586-.785.283-.181.251-.335A.2.2,0,0,0,6.552,27.631Z" style="fill:#6d6e70"/><path d="M4.879,28.871s1.577-.748,1.667-.821a.278.278,0,0,0,.111-.253l-.015-.075a.3.3,0,0,1-.029.287c-.07.085-.087.081-.2.136L4.9,28.878l.326.112A1.681,1.681,0,0,1,4.879,28.871Z" style="fill:#231f20"/><path d="M24.894,29.024H7.649V2.7H24.894Zm-17.2-.045H24.849V2.749H7.7Z" style="fill:#fff"/></svg>