<svg version="1.1" viewBox="0 0 32 32" xml:space="preserve" xmlns="http://www.w3.org/2000/svg"><title>file_type_spin</title><g transform="translate(-.013672 -.011774)" fill="#d1d1d1"><rect x="11.026" y="2.0135" width="2.9003" height="27.997"/><path d="m16.014 4.3379a11.576 11.637 0 0 0-11.576 11.639 11.576 11.637 0 0 0 11.576 11.637 11.576 11.637 0 0 0 11.576-11.637 11.576 11.637 0 0 0-11.576-11.639zm0.03516 2.7969a8.8312 8.878 0 0 1 8.832 8.877 8.8312 8.878 0 0 1-8.832 8.8789 8.8312 8.878 0 0 1-8.8301-8.8789 8.8312 8.878 0 0 1 8.8301-8.877z" stroke-width="1.0243"/></g></svg>
