<svg xmlns="http://www.w3.org/2000/svg" viewBox="0 0 32 32"><title>file_type_pulumi</title><path fill-rule="evenodd" clip-rule="evenodd" d="M7.39886 17.6339C8.4092 17.038 8.4092 15.1101 7.39886 13.3312C6.38851 11.5522 4.75312 10.5795 3.7599 11.1754C2.76668 11.7713 2.74955 13.6992 3.7599 15.4869C4.77025 17.2747 6.38851 18.2299 7.39886 17.6339ZM7.39886 21.4547C8.40064 23.2074 8.40064 25.1616 7.39886 25.7575C6.39707 26.3534 4.75312 25.3895 3.75134 23.6105C2.74955 21.8316 2.74955 19.9036 3.75134 19.3077C4.75312 18.7118 6.39707 19.667 7.40742 21.4547H7.39886ZM14.2487 25.5209C15.2504 27.2736 15.2504 29.2278 14.2487 29.8237C13.2469 30.4196 11.6029 29.4556 10.6268 27.6767C9.65073 25.8977 9.61648 23.961 10.6268 23.3651C11.6372 22.7692 13.264 23.7332 14.2743 25.5209H14.2487ZM14.2487 17.3973C15.2504 19.15 15.2504 21.1042 14.2487 21.7001C13.2469 22.296 11.6029 21.3233 10.6183 19.5706C9.63361 17.818 9.61648 15.855 10.6183 15.2591C11.62 14.6632 13.264 15.6096 14.2743 17.3973H14.2487Z" fill="#F26E7E"/><path fill-rule="evenodd" clip-rule="evenodd" d="M28.2431 15.4812C29.2523 13.7277 29.2523 11.7726 28.2431 11.1764C27.2338 10.5802 25.6087 11.5446 24.5994 13.3244C23.5902 15.1042 23.5987 17.0417 24.5994 17.6379C25.6001 18.2341 27.2509 17.2697 28.2431 15.4812ZM28.2431 19.3037C29.2523 19.8999 29.2523 21.8287 28.2431 23.6085C27.2338 25.3882 25.6087 26.3614 24.5994 25.7652C23.5902 25.1691 23.5902 23.2402 24.5994 21.4517C25.6087 19.6632 27.2509 18.69 28.2431 19.3037ZM21.4006 23.363C22.4098 23.9592 22.4098 25.888 21.4006 27.6677C20.3913 29.4475 18.7662 30.4207 17.7569 29.8245C16.7477 29.2283 16.7477 27.2995 17.7569 25.511C18.7662 23.7225 20.4084 22.7668 21.3835 23.363H21.4006ZM21.4006 15.2357C22.4098 15.8319 22.4098 17.7607 21.4006 19.5404C20.3913 21.3202 18.7662 22.2934 17.7655 21.6972C16.7648 21.101 16.7562 19.1722 17.7655 17.3837C18.7748 15.5951 20.4084 14.6395 21.3835 15.2357H21.4006Z" fill="#8A3391"/><path fill-rule="evenodd" clip-rule="evenodd" d="M19.8251 4.08879C19.8251 5.23044 18.1211 6.16913 16.0135 6.16913C13.9058 6.16913 12.1928 5.23044 12.1928 4.08879C12.1928 2.94715 13.9058 2 16.0135 2C18.1211 2 19.8251 2.93869 19.8251 4.08879ZM12.6502 7.99577C12.6502 9.14588 10.9462 10.0761 8.83856 10.0761C6.73094 10.0761 5 9.14588 5 7.99577C5 6.84567 6.713 5.91543 8.83856 5.91543C10.9641 5.91543 12.6323 6.84567 12.6323 7.99577H12.6502ZM23.1883 10.0761C25.296 10.0761 27 9.14588 27 7.99577C27 6.84567 25.3229 5.91543 23.1883 5.91543C21.0538 5.91543 19.3677 6.84567 19.3677 7.99577C19.3677 9.14588 21.1076 10.0761 23.1883 10.0761ZM19.8251 11.9197C19.8251 13.0698 18.1211 14 16.0135 14C13.9058 14 12.1928 13.0698 12.1928 11.9197C12.1928 10.7696 13.9058 9.83932 16.0135 9.83932C18.1211 9.83932 19.8251 10.7696 19.8251 11.9197Z" fill="#F7BF2A"/></svg>