<svg xmlns="http://www.w3.org/2000/svg" viewBox="0 0 32 32"><title>tyle_type_unison</title><circle cx="16" cy="16" r="14" style="fill:#c6ffde"/><path d="M23.44,12.06a.48.48,0,0,1-.68.68.47.47,0,0,1-.14-.33.48.48,0,0,1,.48-.48.51.51,0,0,1,.34.13ZM20.5,10.53a5.53,5.53,0,0,1,1.05.32.47.47,0,0,1,.25.61.46.46,0,0,1-.43.29l-.18,0h0a4.1,4.1,0,0,0-.86-.27h0a4.31,4.31,0,0,0-.88-.09h0a1.88,1.88,0,0,1-1.62-.94h0A4.84,4.84,0,0,0,16.6,9.05a4.65,4.65,0,0,0-6.54.87.49.49,0,0,1-.37.18.47.47,0,0,1-.47-.47.42.42,0,0,1,.1-.28v0A5.72,5.72,0,0,1,11,7.9,5.58,5.58,0,0,1,18.6,10h0a.91.91,0,0,0,.78.46h0a5.68,5.68,0,0,1,1.09.11Zm-11.58,6v0a.94.94,0,0,0,0-.92v0a5.61,5.61,0,0,1-.55-4.24A.46.46,0,0,1,8.82,11a.48.48,0,0,1,.47.47.5.5,0,0,1,0,.12,4.68,4.68,0,0,0,.46,3.53v0a1.83,1.83,0,0,1,0,1.84l0,0a4.73,4.73,0,0,0-.57,1.71,4.66,4.66,0,0,0,4,5.24h0a.47.47,0,0,1,.4.47v.06a.48.48,0,0,1-.52.4h0a5.77,5.77,0,0,1-2.07-.7A5.61,5.61,0,0,1,8.92,16.52Zm.81.55,0,0h0Zm5.49,7.7a.48.48,0,0,1-.59-.34.47.47,0,0,1,.34-.58l.12,0a.48.48,0,0,1,.13.94Zm4.23-3.15a.93.93,0,0,0-.8.46h0A5.75,5.75,0,0,1,18,23h0l0,0a5.36,5.36,0,0,1-.78.73.47.47,0,0,1-.66-.08.47.47,0,0,1,.09-.66,4.29,4.29,0,0,0,.66-.62h0l0,0a5.11,5.11,0,0,0,.51-.71v0a1.86,1.86,0,0,1,1.62-.93,4.62,4.62,0,0,0,1.79-.36,4.68,4.68,0,0,0,2.53-6.1h0a.58.58,0,0,1,0-.18.47.47,0,0,1,.47-.46.46.46,0,0,1,.43.28,5.61,5.61,0,0,1-5.18,7.76ZM19,12.34l.37,0h0a3.73,3.73,0,0,1,0,7.46,2.75,2.75,0,0,1-.41,0,1.86,1.86,0,0,0-1.83,1.06A3.75,3.75,0,0,1,10,19.32a3.71,3.71,0,0,1,.74-2.23,1.85,1.85,0,0,0,0-2.09l-.13-.19a3.69,3.69,0,0,1-.59-2,3.74,3.74,0,0,1,7.16-1.5A1.87,1.87,0,0,0,19,12.34Zm-7.58,8.43a2.78,2.78,0,0,0,2.41,1.41,2.83,2.83,0,0,0,0-5.65,2.71,2.71,0,0,0-1.39.38A2.85,2.85,0,0,0,11.42,20.77ZM17,17.47a2.78,2.78,0,0,0,2.41,1.41,2.83,2.83,0,0,0,0-5.65,2.71,2.71,0,0,0-1.39.38A2.85,2.85,0,0,0,17,17.47Zm-3.16-1.89a2.83,2.83,0,1,0-2.78-2.83h0a2.82,2.82,0,0,0,2.78,2.83Z" style="fill:#27ae60;fill-rule:evenodd"/></svg>