<svg xmlns="http://www.w3.org/2000/svg" viewBox="0 0 32 32"><title>file_type_jss</title><rect x="2" y="5" width="22.4" height="22"/><rect x="2.421" y="5.416" width="21.558" height="21.168" style="fill:#f7df1e"/><path d="M26.3,25.48a4.24,4.24,0,0,1-3.724-2.24l-.114-.214,2.12-1.22.119.236a2.02,2.02,0,0,0,1.8,1.108h.023c.7,0,1.16-.307,1.16-.765,0-.5-.352-.7-1.358-1.134l-.516-.222c-1.37-.579-2.64-1.383-2.64-3.329a3,3,0,0,1,.9-2.121,3.116,3.116,0,0,1,2.139-.858c.087,0,.177.006.266.014a3.293,3.293,0,0,1,3.142,1.78l.106.2L27.66,18.031l-.112-.279a1.19,1.19,0,0,0-1.1-.725.649.649,0,0,0-.743.578c0,.49.206.68,1.118,1.073l.518.218c1.794.764,2.906,1.61,2.906,3.461,0,1.892-1.445,3.115-3.683,3.115C26.477,25.478,26.386,25.48,26.3,25.48Zm-3.161-2.266a3.767,3.767,0,0,0,3.417,1.759c1.979,0,3.2-1,3.2-2.616,0-1.591-.914-2.282-2.6-3l-.518-.219c-.861-.37-1.426-.673-1.426-1.48a.91.91,0,0,1,.007-.105,1.151,1.151,0,0,1,1.261-1.025,1.713,1.713,0,0,1,1.4.773l1.182-.754a2.808,2.808,0,0,0-2.592-1.314c-.13-.008-.2-.012-.293-.012a2.509,2.509,0,0,0-2.51,2.482c0,1.56.934,2.275,2.336,2.866l.519.223c.927.4,1.659.718,1.659,1.593,0,.752-.677,1.286-1.685,1.265A2.53,2.53,0,0,1,24.38,22.5Z" style="fill:#f7df1e"/><path d="M24.473,22.154A2.258,2.258,0,0,0,26.519,23.4c.859,0,1.407-.426,1.407-1.015,0-.7-.563-.954-1.508-1.364L25.9,20.8c-1.495-.632-2.488-1.424-2.488-3.1a2.76,2.76,0,0,1,2.79-2.729c.082,0,.163.005.244.013a3.066,3.066,0,0,1,2.946,1.646l-1.613,1.028a1.409,1.409,0,0,0-1.333-.881.9.9,0,0,0-.987.8.681.681,0,0,0,0,.078c0,.617.385.867,1.274,1.249l.518.22c1.76.749,2.754,1.513,2.754,3.23,0,1.851-1.465,2.865-3.433,2.865a3.985,3.985,0,0,1-3.775-2.1Z"/><path d="M17,22.154A2.258,2.258,0,0,0,19.046,23.4c.858,0,1.406-.426,1.406-1.015,0-.7-.563-.954-1.508-1.364l-.518-.221c-1.495-.632-2.488-1.424-2.488-3.1a2.76,2.76,0,0,1,2.79-2.729c.082,0,.163.005.244.013a3.066,3.066,0,0,1,2.947,1.646l-1.613,1.028a1.41,1.41,0,0,0-1.334-.881.9.9,0,0,0-.986.8.664.664,0,0,0,0,.077c0,.617.385.867,1.274,1.249l.518.22c1.76.749,2.754,1.513,2.754,3.23,0,1.851-1.465,2.866-3.433,2.866a3.987,3.987,0,0,1-3.776-2.1Z"/><path d="M9.682,22.332c.325.573.621,1.058,1.333,1.058.681,0,1.11-.264,1.11-1.292V15.106H14.2v7.019a2.8,2.8,0,0,1-3.093,3.1A3.218,3.218,0,0,1,8,23.345l1.687-1.013Z"/></svg>