<svg viewBox="0 0 32 32" xmlns="http://www.w3.org/2000/svg"><path d="m24.4 3.925h5.6l-14 24.15-14-24.15h10.71l3.29 5.6 3.22-5.6z" fill="#41b883"/><path d="m2 3.925 14 24.15 14-24.15h-5.6l-8.4 14.49-8.47-14.49z" fill="#41b883"/><path d="m7.53 3.925 8.47 14.56 8.4-14.56h-5.18l-3.22 5.6-3.29-5.6z" fill="#35495e"/><path d="m26.684 27.192.456-.447c2.112.068 2.144-.005 2.237-.219l.58-1.393.043-.133-.047-.115c-.025-.061-.1-.243-1.42-1.483v-.652c1.521-1.445 1.489-1.519 1.4-1.73l-.577-1.407c-.087-.211-.12-.294-2.216-.237l-.457-.465a10 10 0 0 0 -.071-2.053l-.059-.132-1.508-.65c-.222-.1-.3-.136-1.724 1.393l-.64-.009c-1.466-1.543-1.535-1.515-1.755-1.428l-1.4.559c-.219.088-.3.119-.212 2.219l-.453.445c-2.11-.068-2.142.006-2.234.219l-.581 1.393-.046.133.048.116c.025.06.1.24 1.419 1.481v.65c-1.521 1.445-1.488 1.519-1.4 1.731l.577 1.409c.089.215.12.292 2.216.238l.456.467a9.967 9.967 0 0 0 .07 2.05l.058.133 1.518.654c.221.091.3.124 1.717-1.4l.64.008c1.468 1.545 1.543 1.515 1.757 1.43l1.4-.558c.224-.086.297-.116.208-2.217zm-6.013-3.262a2.469 2.469 0 0 1 1.449-3.2 2.525 2.525 0 0 1 3.246 1.429 2.467 2.467 0 0 1 -1.405 3.184 2.554 2.554 0 0 1 -3.29-1.413z" fill="#99b8c4"/></svg>