<svg xmlns="http://www.w3.org/2000/svg" viewBox="0 0 32 32"><title>file_type_pony</title><path d="M28.678,9.877H3.322A1.322,1.322,0,0,1,2,11.2v9.6a1.322,1.322,0,0,1,1.322,1.322H28.678A1.322,1.322,0,0,1,30,20.8V11.2A1.322,1.322,0,0,1,28.678,9.877Z" style="fill:#2b1100"/><path d="M28.211,21.579H3.79l-.064-.154A1.9,1.9,0,0,0,2.7,20.4l-.154-.064V11.666L2.7,11.6a1.9,1.9,0,0,0,1.028-1.028l.064-.154H28.211l.064.154A1.9,1.9,0,0,0,29.3,11.6l.154.064v8.667L29.3,20.4a1.9,1.9,0,0,0-1.028,1.028Zm-24.093-.5H27.884a2.4,2.4,0,0,1,1.074-1.074V11.994a2.4,2.4,0,0,1-1.074-1.074H4.118a2.4,2.4,0,0,1-1.074,1.074v8.012A2.41,2.41,0,0,1,4.118,21.08Z" style="fill:#fff"/><path d="M3.957,10.67a2.145,2.145,0,0,1-1.163,1.163v8.332a2.145,2.145,0,0,1,1.163,1.163H28.043a2.145,2.145,0,0,1,1.163-1.163V11.833a2.145,2.145,0,0,1-1.163-1.163H3.957Z" style="fill:#f4e3d7"/><path d="M10.044,13.2l-.037,2.147q-.026,1.448-1.722,1.56-.037.012-.462.075c-.283.042-.445.062-.487.062l.075,1.073.786.062-.075,2.1-2.9.125-.037-2.059.711.012.05-4.443L5.226,13.9l-.1-2.209,2.047-.162q.362-.026.686-.025a2.778,2.778,0,0,1,1.672.4,1.454,1.454,0,0,1,.513,1.3m-1.66,1.211q.026-.549-.4-.549a1.53,1.53,0,0,0-.25.025l-.4.05.075,1.972h.325q.6,0,.624-.736l.024-.762m6.355,3.657a2.345,2.345,0,0,1-.424,1.56,2.257,2.257,0,0,1-1.648.612A2.333,2.333,0,0,1,10.82,19.8a2.5,2.5,0,0,1-.424-1.66l-.062-4.406a2.292,2.292,0,0,1,.5-1.673,2.187,2.187,0,0,1,1.71-.5,2.242,2.242,0,0,1,1.822.661,3.106,3.106,0,0,1,.362,1.747l.012,4.1m-1.51-3.208a1.147,1.147,0,0,0-.162-.711.539.539,0,0,0-.524-.212.871.871,0,0,0-.612.212,1.143,1.143,0,0,0-.15.661l-.05,2.072a.722.722,0,0,0,.225.624,1.21,1.21,0,0,0,.587.187q.624.063.637-.8l.049-2.034m8.074-3.12-.1,2.234-.612-.075L20.5,19.762l-1.672.125-1.822-6.4v4.368l.624.037L17.522,20.4H15.188l-.1-2.2.736-.012L15.787,13.9l-.487-.062-.112-2.309,2.521.087,1.66,5.979.087-3.607-.6-.087-.05-1.947,2.5-.212m5.4-.212-.162,2.309-.487.062-1.3,2.471-.037,1.6.649.025-.212,2.346L22.61,20.5l-.1-2.2.774-.062.062-1.91-1.223-2.172-.487.062-.1-2.371,2.4-.05.087,1.935-.5.037.7,1.81.6-1.747h-.449V11.474l2.334.051" style="fill:#2b1100"/></svg>