<svg xmlns="http://www.w3.org/2000/svg" viewBox="0 0 40 40"><title>file_type_vapor</title><path d="M4.345,9H14.9L9.618,20Zm21.1,0h10.55L30.718,20Z" style="fill:#e9f9fd;fill-opacity:0.10000000149011612"/><path d="M9.62,20H20.169L14.894,31Z" style="fill:#25c4f2;fill-opacity:0.2199999988079071"/><path d="M20.169,20h10.55L25.444,31Z" style="fill:#25c4f2;fill-opacity:0.20000000298023224"/><path d="M20.169,20H9.619L14.894,9Z" style="fill:#25c4f2;fill-opacity:0.4000000059604645"/><path d="M30.718,20H20.168L25.444,9Z" style="fill:#25c4f2;fill-opacity:0.4000000059604645"/><path d="M25.444,31H14.894l5.275-11Z" style="fill:#25c4f2;fill-opacity:0.5"/><path d="M35.99,8H25.44a1,1,0,0,0-.9.568l-4.373,9.12-4.373-9.12A1,1,0,0,0,14.89,8H4.34a1,1,0,0,0-.9,1.432l10.55,22a1,1,0,0,0,.9.568H25.44a1,1,0,0,0,.9-.576L36.892,9.432A1,1,0,0,0,35.99,8Zm-21.1,3.313L18.58,19H11.208ZM5.934,10h7.372L9.62,17.687Zm8.959,18.687v0L11.207,21h7.372l-3.685,7.685v0ZM16.483,30l3.686-7.687L23.855,30Zm8.961-1.313L21.758,21H29.13ZM21.758,19l3.686-7.687L29.13,19Zm8.96-1.313L27.032,10h7.373Z" style="fill:#25c4f2"/></svg>