<svg xmlns="http://www.w3.org/2000/svg" xmlns:xlink="http://www.w3.org/1999/xlink" viewBox="0 0 32 32"><defs><linearGradient id="a" x1="22.069" y1="27.785" x2="8.937" y2="7.258" gradientTransform="matrix(1, 0, 0, -1, 0, 34)" gradientUnits="userSpaceOnUse"><stop offset="0" stop-color="#ffb45b"/><stop offset="1" stop-color="#ff8a00"/></linearGradient></defs><title>file_type_gitpod</title><path d="M18.076,3.394a2.776,2.776,0,0,1-1.024,3.775l-8.2,4.713a.7.7,0,0,0-.35.608v7.4a.7.7,0,0,0,.35.608l6.492,3.731a.689.689,0,0,0,.689,0L22.524,20.5a.7.7,0,0,0,.35-.608v-4.6L17.039,18.6a2.741,2.741,0,0,1-3.747-1.05,2.776,2.776,0,0,1,1.044-3.769l8.349-4.738a3.816,3.816,0,0,1,5.69,3.342v8.067a5.272,5.272,0,0,1-2.638,4.572l-7.452,4.283a5.21,5.21,0,0,1-5.195,0L5.638,25.023A5.272,5.272,0,0,1,3,20.451V11.929A5.271,5.271,0,0,1,5.638,7.357l8.685-4.992A2.743,2.743,0,0,1,18.076,3.394Z" style="fill-rule:evenodd;fill:url(#a)"/></svg>