<svg id="Layer_3" data-name="Layer 3" xmlns="http://www.w3.org/2000/svg" viewBox="0 0 32 32">
  <title>file_type_idris@2x</title>
  <g id="g3353">
    <path id="path3345" d="M13.56,6.16c3.59,1.09,4.5,2,5.77,5.22-0.24-4-1.83-5.6-5.77-5.22h0Z" style="fill: #8a0819"/>
    <path id="path3343" d="M8.58,12.38c2.33,0.72,5,1.29,6,5.74,0.41-5.55-2.22-5.83-6-5.74h0Z" style="fill: #8a0819"/>
    <path id="path3341" d="M10.16,8.84c3.5,0.72,5.73,1.67,7,6.19,0.3-5.83-2.9-6.41-7-6.19h0Z" style="fill: #8a0819"/>
    <path id="path5" d="M14.75,2c19.09,12.45-4.24,12.67.83,27.13l3,0.87C10.31,18.78,37,13,14.75,2h0Z" style="fill: #8a0819"/>
  </g>
  <rect width="32" height="32" style="fill: #fff;opacity: 0"/>
</svg>
