<svg width="219" height="219" viewBox="0 0 219 219" fill="none" xmlns="http://www.w3.org/2000/svg">
<g clip-path="url(#clip0_15_7)">
<g clip-path="url(#clip1_15_7)">
<path d="M99.251 191.721C90.6464 181.835 90.3894 181.407 91.9361 179.538C94.3877 176.575 198.963 73.485 200.464 72.5513C201.763 71.7435 214.585 78.4103 217.386 81.35C218.46 82.4771 210.128 92.068 164.67 142.029C134.974 174.667 110.113 201.504 109.423 201.669C108.734 201.833 104.156 197.357 99.251 191.721ZM561.288 190.7C560.468 189.816 560.146 184.316 560.146 171.17C560.146 161.105 559.9 152.87 559.6 152.87C559.299 152.87 556.906 154.893 554.281 157.365C548.026 163.258 542.555 165.181 533.387 164.707C512.96 163.652 500.75 144.633 500.75 113.87C500.75 94.6518 504.967 81.3443 513.958 72.1864C523.365 62.6057 536.609 60.0707 547.61 65.7451C550.675 67.3256 554.409 70.0253 555.909 71.7444C557.409 73.4634 558.953 74.8699 559.34 74.8699C559.728 74.8699 560.172 72.7324 560.327 70.1199L560.61 65.3699L572.457 65.0899L584.303 64.8098L584.064 128.09L583.825 191.37L573.127 191.649C565.597 191.846 562.092 191.565 561.288 190.7ZM550.116 140.251C563.274 133.011 564.47 99.3372 551.935 89.0405C547.372 85.2926 539.501 84.832 535.097 88.0552C528.614 92.7999 524.86 102.216 524.86 113.736C524.86 134.781 536.963 147.487 550.116 140.251ZM75.513 165.458C70.8741 160.436 67.9399 156.491 68.2326 155.669C68.7614 154.185 128.881 101.852 130.005 101.897C131.39 101.953 145.539 113.53 145.539 114.607C145.539 115.742 85.1024 173.87 83.923 173.87C83.5715 173.87 79.787 170.084 75.513 165.458ZM727.522 164.353C719.585 162.497 713.392 158.635 707.274 151.728C698.683 142.028 694.777 130.234 694.803 114.071C694.837 91.9821 703.617 74.6686 718.889 66.5721C724.577 63.5564 725.524 63.3699 735.162 63.3699C744.33 63.3699 745.951 63.65 750.722 66.0581C765.26 73.3956 774.247 92.6741 773.525 114.973L773.253 123.37L746.821 123.636C732.283 123.782 720.027 124.291 719.586 124.766C718.291 126.16 722.599 135.618 725.988 138.823C733.392 145.823 743.899 145.381 753.905 137.647L758.146 134.37L761.818 138.87C763.837 141.345 766.599 144.895 767.954 146.758L770.419 150.145L766.265 154.152C758.937 161.22 746.989 165.995 737.144 165.791C735.044 165.747 730.714 165.1 727.522 164.353ZM748.921 105.62C750.339 104.482 750.36 103.885 749.145 98.9653C745.854 85.6425 734.598 80.0587 726.261 87.6138C722.971 90.5946 721.27 93.9282 719.775 100.321C718.856 104.252 718.887 105.226 719.958 105.956C722.045 107.379 747.09 107.088 748.921 105.62ZM365.841 163.5C353.485 158.549 346.678 143.798 349.371 127.807C351.247 116.666 355.875 109.991 364.682 105.722C370.954 102.682 385.792 101.924 393.258 104.261C396.084 105.146 398.601 105.87 398.85 105.87C400.059 105.87 400.346 102.232 399.429 98.5129C398.281 93.8526 395.726 90.4432 391.61 88.0808C387.442 85.6882 377.028 86.0417 368.915 88.8512C365.096 90.1734 361.944 90.7759 361.526 90.2635C360.495 89.0008 355.86 74.3936 355.86 72.4063C355.86 68.6059 371.983 63.7775 385.058 63.6621C400.495 63.526 410.539 67.6515 416.667 76.645C423.024 85.9756 423.182 87.2082 423.182 127.37V163.37L412.582 163.654C406.751 163.811 401.61 163.538 401.156 163.05C400.702 162.561 400.157 160.684 399.945 158.879C399.733 157.074 399.352 155.373 399.098 155.1C398.845 154.827 397.155 156.005 395.343 157.718C389.679 163.074 386.726 164.22 377.682 164.571C372.127 164.787 368.157 164.428 365.841 163.5ZM393.371 143.603C398.188 140.629 400.432 135.884 400.432 128.671C400.432 121.532 399.269 120.673 388.825 120.093C382.179 119.724 381.055 119.931 378.16 122.055C373.72 125.313 372.429 128.358 372.843 134.604C373.38 142.719 376.654 145.705 385.11 145.79C388.279 145.82 390.902 145.128 393.371 143.603ZM620.664 163.601C615.538 161.835 608.809 154.513 606.396 148.078C604.29 142.462 604.255 141.749 604.254 103.87L604.253 65.3699L616.046 65.0902L627.839 64.8109L628.118 98.0904C628.365 127.691 628.578 131.728 630.041 134.611C634.888 144.164 647.58 144.091 652.353 134.482C654.319 130.526 654.408 129.129 654.696 97.5907L654.996 64.8113L666.767 65.0906L678.539 65.3699L678.78 113.256C678.957 148.391 678.735 161.513 677.947 162.536C677.116 163.614 674.426 163.867 666.098 163.65L655.325 163.37L655.034 158.87C654.874 156.395 654.394 153.988 653.968 153.522C653.542 153.056 651.374 154.585 649.152 156.919C643.324 163.041 639.082 164.842 630.718 164.746C626.887 164.702 622.363 164.187 620.664 163.601ZM807.856 163.92C802.362 162.04 798.885 158.78 796.28 153.068L793.682 147.37L793.378 117.12L793.074 86.8699H789.545C784.434 86.8699 783.819 85.4892 784.128 74.7206C784.39 65.5763 784.447 65.3637 786.717 65.0899C793.592 64.2609 793.217 64.9826 793.217 52.5508C793.217 45.1101 793.597 40.8614 794.332 40.0699C795.912 38.3679 816.047 38.4121 817.073 40.1199C817.487 40.8074 818.033 46.5449 818.289 52.8699L818.753 64.3698L827.373 64.6579L835.994 64.9458L835.731 75.6579L835.467 86.3699L826.878 86.6575L818.289 86.9452V112.408C818.289 144.475 817.678 143.348 833.61 140.681C835.346 140.39 835.485 141.011 835.734 150.16L836 159.95L831.555 162.135C826.703 164.52 812.693 165.575 807.856 163.92ZM257.87 162.651C257.619 161.946 257.523 132.795 257.656 97.8698L257.896 34.3699L282.968 34.429C306.47 34.4845 308.417 34.6288 314.075 36.7356C330.584 42.883 339.604 55.943 340.759 75.3699C341.937 95.2092 333.579 111.488 318.442 118.833C310.55 122.662 304.51 123.87 293.25 123.87C286.423 123.87 283.365 124.251 282.639 125.194C282 126.023 281.523 133.421 281.364 144.944L281.111 163.37L269.717 163.651C261.118 163.863 258.213 163.617 257.87 162.651ZM305.253 97.9798C312.107 94.5736 315.964 87.7455 315.891 79.152C315.773 65.3028 309.401 59.2561 293.776 58.166C281.004 57.2748 281.575 56.3314 281.575 78.3233C281.575 88.4339 281.828 97.4181 282.138 98.288C283.008 100.727 300.187 100.498 305.253 97.9798ZM443.251 162.506C442.493 161.522 442.267 147.782 442.441 113.256L442.682 65.3698L454.216 65.0875C462.819 64.877 465.942 65.131 466.505 66.0875C466.921 66.7927 467.267 69.7322 467.275 72.6197C467.289 77.7581 468.505 79.6205 469.544 76.0946C470.272 73.6237 476.364 67.0383 479.577 65.2493C481.045 64.4316 484.313 63.4991 486.839 63.1769L491.432 62.5911V76.6425V90.6939L487.485 91.4016C480.921 92.5788 476.7 94.8946 473.283 99.1937C467.97 105.877 467.289 110.131 467.289 136.617C467.289 150.824 466.912 160.76 466.328 161.935C465.464 163.673 464.297 163.87 454.834 163.87C447.071 163.87 444.026 163.511 443.251 162.506ZM53.5463 141.329C49.9148 136.959 47.6343 133.431 48.1235 132.939C50.6571 130.392 76.7975 110.872 77.6599 110.883C79.065 110.902 91.682 122.551 91.682 123.83C91.682 125.403 63.373 148.87 61.4753 148.87C60.5612 148.87 56.9931 145.476 53.5463 141.329ZM35.5334 121.417C30.3307 115.751 29.7099 114.694 30.8906 113.513C32.5831 111.819 115.68 54.0484 117.378 53.3847C118.708 52.8652 130.218 60.3706 130.218 61.757C130.218 62.7481 45.0313 126.992 42.9576 127.565C42.1342 127.793 39.0197 125.213 35.5334 121.417ZM90.9553 112.294C87.5246 109.227 84.7363 106.19 84.7589 105.544C84.78 104.898 87.8111 102.091 91.4911 99.3058C95.1711 96.5206 111.67 83.8081 128.156 71.0558C144.642 58.3035 158.809 47.8698 159.638 47.8698C161.857 47.8698 173.089 54.8633 172.73 56.0215C172.209 57.704 100.128 117.843 98.616 117.857C97.8333 117.865 94.386 115.361 90.9553 112.294ZM18.8001 103.289C14.7056 98.6265 14.1102 97.5002 15.1833 96.4469C16.1113 95.536 67.5843 62.7959 73.8104 59.1564C74.8385 58.5554 85.7511 67.0313 85.4018 68.1596C84.9504 69.6181 26.9 108.867 25.1917 108.868C24.372 108.869 21.4958 106.358 18.8001 103.289ZM143.256 103.662C139.489 100.751 136.261 97.8989 136.083 97.3234C135.83 96.5024 169.976 65.9403 177.722 60.0555C179.228 58.9114 180.413 59.2925 186.871 62.9981C190.951 65.3394 194.283 67.7308 194.276 68.3123C194.257 69.8002 153.616 108.306 151.688 108.662C150.818 108.823 147.024 106.573 143.256 103.662ZM4.95213 87.4696L0 82.0695L2.19816 80.5354C3.40713 79.6917 27.947 65.2761 56.7311 48.5007L109.066 18L114.07 20.6432C116.823 22.0969 119.075 23.7786 119.075 24.3803C119.075 25.2037 11.4735 92.8697 10.1642 92.8697C10.0214 92.8697 7.6758 90.4397 4.95213 87.4696ZM85.4141 60.2436C82.9882 58.2826 81.006 56.1587 81.009 55.5239C81.0118 54.8891 90.8211 48.1497 102.807 40.5475L124.599 26.7252L130.194 29.9368C133.271 31.7032 135.789 33.4895 135.789 33.9065C135.789 35.0919 93.0577 63.8734 91.3482 63.8394C90.5103 63.8242 87.84 62.2046 85.4141 60.2436ZM129.057 54.2626C126.12 52.3081 123.726 50.1826 123.736 49.5393C123.753 48.4495 138.595 37.7419 141.03 37.0629C142.149 36.7507 152.138 42.4247 152.946 43.8315C153.189 44.2555 152.667 45.2941 151.785 46.1395C148.769 49.0309 136.389 57.8698 135.392 57.843C134.844 57.8282 131.994 56.2171 129.057 54.2626Z" fill="#50ABF1"/>
</g>
</g>
<defs>
<clipPath id="clip0_15_7">
<rect width="219" height="219" fill="white"/>
</clipPath>
<clipPath id="clip1_15_7">
<rect width="836" height="183.673" fill="white" transform="translate(0 18)"/>
</clipPath>
</defs>
</svg>
