<svg viewBox="0 0 32 32" xmlns="http://www.w3.org/2000/svg" xmlns:xlink="http://www.w3.org/1999/xlink"><linearGradient id="a" gradientTransform="matrix(1 0 0 -1 0 -170)" gradientUnits="userSpaceOnUse" x1="13.146" x2="20.701" y1="-186.913" y2="-188.679"><stop offset="0" stop-color="#ff6533"/><stop offset=".157" stop-color="#ff5633"/><stop offset=".434" stop-color="#ff4333"/><stop offset=".714" stop-color="#ff3733"/><stop offset="1" stop-color="#f33"/></linearGradient><linearGradient id="b" gradientTransform="matrix(1 0 0 -1 0 -170)" gradientUnits="userSpaceOnUse" x1="11.963" x2="25.504" y1="-184.409" y2="-194.908"><stop offset="0" stop-color="#bf3338"/><stop offset="1" stop-color="#f33"/></linearGradient><linearGradient id="c" x1="12.406" x2="14.368" xlink:href="#a" y1="-186.476" y2="-188.536"/><linearGradient id="d" x1="15.974" x2="15.385" xlink:href="#a" y1="-190.023" y2="-181.584"/><linearGradient id="e" gradientTransform="matrix(1 0 0 -1 0 -170)" gradientUnits="userSpaceOnUse" x1="13.423" x2="16.211" y1="-186.331" y2="-188.227"><stop offset="0" stop-color="#fbb040"/><stop offset="1" stop-color="#fb8840"/></linearGradient><linearGradient id="f" gradientTransform="matrix(1 0 0 -1 0 -170)" gradientUnits="userSpaceOnUse" x1="16.279" x2="13.434" y1="-175.614" y2="-206.915"><stop offset="0" stop-color="#fff"/><stop offset="1" stop-color="#fff" stop-opacity="0"/></linearGradient><path d="m26.713 11.219a9.147 9.147 0 0 0 -1.193-4.534c-2.016-2.075-6.4-2.556-7.492-.01-1.119 2.61 1.879 5.514 3.189 5.284 1.668-.294-.294-4.121-.294-4.121 2.551 4.808 1.962 3.336-2.649 7.752s-9.321 13.732-10.008 14.125a.559.559 0 0 1 -.093.049h18.088a.43.43 0 0 0 .383-.623l-4.729-9.361a.428.428 0 0 1 .167-.564 9.209 9.209 0 0 0 4.631-7.997z" fill="url(#a)"/><path d="m26.713 11.219a9.147 9.147 0 0 0 -1.193-4.534c-2.016-2.075-6.4-2.556-7.492-.01-1.119 2.61 1.879 5.514 3.189 5.284 1.668-.294-.294-4.121-.294-4.121 2.551 4.808 1.962 3.336-2.649 7.752s-9.321 13.732-10.008 14.125a.559.559 0 0 1 -.093.049h18.088a.43.43 0 0 0 .383-.623l-4.729-9.361a.428.428 0 0 1 .167-.564 9.209 9.209 0 0 0 4.631-7.997z" fill="url(#b)"/><path d="m8.266 29.715c.687-.392 5.4-9.714 10.008-14.13s5.2-2.944 2.649-7.752c0 0-9.763 13.688-13.3 20.458" fill="url(#c)"/><path d="m9.639 17.449c6.594-12.123 7.461-13.349 10.892-13.349a6.253 6.253 0 0 1 4.8 2.262 9.21 9.21 0 0 0 -7.695-4.362h-11.2a.427.427 0 0 0 -.427.427v22.573a67.956 67.956 0 0 1 3.63-7.551z" fill="url(#d)"/><path d="m18.274 15.585c-4.612 4.415-9.321 13.737-10.008 14.13a2.076 2.076 0 0 1 -2.453-.245c-.653-.731-1.668-1.913 3.827-12.02 6.593-12.124 7.46-13.35 10.891-13.35a6.253 6.253 0 0 1 4.8 2.262c.064.1.128.211.191.319-2.016-2.075-6.4-2.556-7.492-.01-1.119 2.61 1.879 5.514 3.189 5.284 1.668-.294-.294-4.121-.294-4.121 2.55 4.807 1.961 3.335-2.651 7.751z" fill="url(#e)"/><path d="m10.179 17.989c6.594-12.123 7.457-13.345 10.892-13.345a6.3 6.3 0 0 1 4.121 1.556 6.253 6.253 0 0 0 -4.661-2.1c-3.434 0-4.3 1.222-10.892 13.345-5.494 10.111-4.479 11.293-3.826 12.024a1.607 1.607 0 0 0 .314.265c-.574-.834-.827-2.772 4.052-11.745z" fill="url(#f)" opacity=".3"/></svg>