<svg version="1.1" xmlns="http://www.w3.org/2000/svg" xmlns:xlink="http://www.w3.org/1999/xlink" enable-background="new 0 0 960 560" xml:space="preserve" viewBox="0 0 32 32"><rect id="backgroundrect" width="100%" height="100%" x="0" y="0" fill="none" stroke="none"/>
<g class="currentLayer"><circle fill="#FFFFFF" cx="15.999999590782721" cy="16.000001099521302" r="13.53" opacity="1"/><g fill="#4356E6" opacity="1">
	<path d="M4.71219527721405,17.649715423583984 l0.013816162012517452,-0.014283277094364166 l0.013816162012517452,-0.014283277094364166 c0.32467973232269287,-0.32137373089790344 0.6493594646453857,-0.6427474617958069 0.9671311974525452,-0.9641211628913879 c0.22105859220027924,-0.2142491191625595 0.4352090358734131,-0.435639888048172 0.6493594646453857,-0.6498890519142151 c-0.21415048837661743,-0.2142491191625595 -0.4352090358734131,-0.428498238325119 -0.6493594646453857,-0.6498890519142151 c-0.31777164340019226,-0.32137373089790344 -0.6424514055252075,-0.6427474617958069 -0.9671311974525452,-0.9641211628913879 l-0.013816162012517452,-0.014283277094364166 l-0.013816162012517452,-0.014283277094364166 c-0.31086355447769165,-0.33565694093704224 -0.6217271089553833,-0.6713138818740845 -0.932590901851654,-0.9998293519020081 c-0.5388302206993103,-0.5784726738929749 -1.0707523822784424,-1.1498037576675415 -1.5888584852218628,-1.713992953300476 c-0.4075767695903778,1.3783361911773682 -0.6286352872848511,2.842371940612793 -0.6286352872848511,4.3635406494140625 c0,1.5140273571014404 0.22105859220027924,2.978062868118286 0.6286352872848511,4.3635406494140625 c0.5181060433387756,-0.5641894340515137 1.0500280857086182,-1.1355204582214355 1.5888584852218628,-1.713992953300476 C4.090470194816589,18.313892364501953 4.401334166526794,17.985382080078125 4.71219527721405,17.649715423583984 z" opacity="1"/>
	<path d="M29.80925452709198,11.636462211608887 c-0.5181060433387756,0.5641894340515137 -1.0500280857086182,1.1355204582214355 -1.5888584852218628,1.713992953300476 c-0.31086355447769165,0.32851532101631165 -0.6217271089553833,0.664172351360321 -0.932590901851654,0.9998293519020081 l-0.013816162012517452,0.014283277094364166 l-0.013816162012517452,0.014283277094364166 c-0.32467973232269287,0.32137373089790344 -0.6493594646453857,0.6427474617958069 -0.9671311974525452,0.9641211628913879 c-0.22105859220027924,0.2142491191625595 -0.4352090358734131,0.435639888048172 -0.6493594646453857,0.6498890519142151 c0.21415048837661743,0.2142491191625595 0.4352090358734131,0.428498238325119 0.6493594646453857,0.6498890519142151 c0.31777164340019226,0.32137373089790344 0.6424514055252075,0.6427474617958069 0.9671311974525452,0.9641211628913879 l0.013816162012517452,0.014283277094364166 l0.013816162012517452,0.014283277094364166 c0.31086355447769165,0.33565694093704224 0.6217271089553833,0.6713138818740845 0.932590901851654,0.9998293519020081 c0.5388302206993103,0.5784726738929749 1.0707523822784424,1.1498037576675415 1.5888584852218628,1.713992953300476 c0.4075767695903778,-1.3783361911773682 0.6286352872848511,-2.842371940612793 0.6286352872848511,-4.3635406494140625 C30.437886118888855,14.48597240447998 30.216828227043152,13.021942138671875 29.80925452709198,11.636462211608887 z" opacity="1"/>
	<path d="M24.835436701774597,16.792726516723633 c-3.0188307762145996,2.963779926300049 -5.892592906951904,5.456211090087891 -8.662731170654297,5.456211090087891 c-0.05526464805006981,0 -0.11743737757205963,0 -0.17270199954509735,0 s-0.11743737757205963,0 -0.17270199954509735,0 c-2.7701401710510254,0 -5.643901348114014,-2.492431402206421 -8.662731170654297,-5.456211090087891 c-0.5457382798194885,0.54276442527771 -1.0983846187591553,1.0998122692108154 -1.651031255722046,1.649718165397644 c-0.9809473156929016,1.0569623708724976 -1.982619047164917,2.106783151626587 -2.908301591873169,3.135179042816162 C4.739832758903503,27.055255889892578 9.934709429740906,30.926021575927734 16.000004649162292,30.926021575927734 s11.260169982910156,-3.870767593383789 13.394766807556152,-9.348403930664062 c-0.925682783126831,-1.0283958911895752 -1.9204461574554443,-2.078216791152954 -2.908301591873169,-3.135179042816162 C25.933815836906433,17.88539695739746 25.388079524040222,17.335491180419922 24.835436701774597,16.792726516723633 z" pacity="1"/>
	<path d="M7.164565443992615,15.207280158996582 c3.0188307762145996,-2.963779926300049 5.892592906951904,-5.456211090087891 8.662731170654297,-5.456211090087891 c0.05526464805006981,0 0.11743737757205963,0 0.17270199954509735,0 s0.11743737757205963,0 0.17270199954509735,0 c2.7701401710510254,0 5.643901348114014,2.492431402206421 8.662731170654297,5.456211090087891 c0.5457382798194885,-0.54276442527771 1.0983846187591553,-1.0998122692108154 1.651031255722046,-1.649718165397644 c0.9809473156929016,-1.0569623708724976 1.982619047164917,-2.106783151626587 2.908301591873169,-3.135179042816162 C27.260172724723816,4.944746971130371 22.065300822257996,1.073979377746582 16.000004649162292,1.073979377746582 s-11.260169982910156,3.870767593383789 -13.394766807556152,9.348403930664062 c0.925682783126831,1.0283958911895752 1.9204461574554443,2.078216791152954 2.908301591873169,3.135179042816162 C6.06618344783783,14.114611625671387 6.611918807029724,14.66451358795166 7.164565443992615,15.207280158996582 z" opacity="1"/>
	<path d="M14.038107752799988,14.17174243927002 c-0.3454039990901947,0.20710749924182892 -0.5526464581489563,0.5784726738929749 -0.5526464581489563,0.9926876425743103 v1.678285002708435 c0,0.40707340836524963 0.20724239945411682,0.7855802178382874 0.5526464581489563,0.9926876425743103 l1.4092479944229126,0.8427132964134216 c0.3454039990901947,0.20710749924182892 0.7598888278007507,0.20710749924182892 1.1052929162979126,0 l1.4092479944229126,-0.8427132964134216 c0.3454039990901947,-0.20710749924182892 0.5526464581489563,-0.5784726738929749 0.5526464581489563,-0.9926876425743103 v-1.678285002708435 c0,-0.40707340836524963 -0.20724239945411682,-0.7855802178382874 -0.5526464581489563,-0.9926876425743103 L16.552651286125183,13.329029083251953 c-0.3454039990901947,-0.20710749924182892 -0.7598888278007507,-0.20710749924182892 -1.1052929162979126,0 L14.038107752799988,14.17174243927002 z" opacity="1"/>
	<path d="M7.958994746208191,16 c2.8944859504699707,2.842371940612793 5.643901348114014,5.220537185668945 8.04100513458252,5.099129676818848 c2.397103786468506,0.12140784412622452 5.13961124420166,-2.2567577362060547 8.04100513458252,-5.099129676818848 c-2.8944859504699707,-2.842371940612793 -5.643901348114014,-5.220537185668945 -8.04100513458252,-5.099129676818848 C13.60289752483368,10.77946662902832 10.86038863658905,13.157630920410156 7.958994746208191,16 zM16.552651286125183,12.007828712463379 l2.5145411491394043,1.499743938446045 c0.3454039990901947,0.20710749924182892 0.5526464581489563,0.5784726738929749 0.5526464581489563,0.9926876425743103 v2.99948787689209 c0,0.40707340836524963 -0.20724239945411682,0.7855802178382874 -0.5526464581489563,0.9926876425743103 l-2.5145411491394043,1.499743938446045 c-0.3454039990901947,0.20710749924182892 -0.7598888278007507,0.20710749924182892 -1.1052929162979126,0 l-2.5145411491394043,-1.499743938446045 c-0.3454039990901947,-0.20710749924182892 -0.5526464581489563,-0.5784726738929749 -0.5526464581489563,-0.9926876425743103 v-2.99948787689209 c0,-0.40707340836524963 0.20724239945411682,-0.7855802178382874 0.5526464581489563,-0.9926876425743103 l2.5145411491394043,-1.499743938446045 C15.78585135936737,11.807860374450684 16.207245707511902,11.807860374450684 16.552651286125183,12.007828712463379 z" opacity="1"/>
</g></g></svg>