<svg xmlns="http://www.w3.org/2000/svg" viewBox="0 0 32 32"><title>file_type_asciidoc</title><path d="M30,30H2V2H30Z" style="fill:#e40046"/><path d="M23.731,24.83a.589.589,0,0,1-.763-.337L16.724,9.269,13.93,15.99h1.833a.59.59,0,0,1-.024,1.18H8.9a.59.59,0,0,1,.024-1.18h3.727l0-.013L16.184,7.5a.591.591,0,0,1,.533-.363h0a.592.592,0,0,1,.557.366l6.785,16.546.009.021A.59.59,0,0,1,23.731,24.83Z" style="fill:#fff"/><path d="M14.516,18.791H7.679a.59.59,0,0,0-.024,1.18H11L9.309,24.043a.59.59,0,0,0,1.085.464l0-.011,1.875-4.509.005-.016h2.215a.59.59,0,0,0,.023-1.18Z" style="fill:#fff"/></svg>