<svg viewBox="0 0 32 32" xmlns="http://www.w3.org/2000/svg"><path d="m3.927 24.707 12.246 6.731 12.309-6.823 2.295-19.031-14.619-5.021-14.527 5.112z" fill="#b3b3b3"/><path d="m16.124 29.829 11.066-6.124 2.138-17.021-13.204-4.503z" fill="#a6120d"/><path d="m16.123 29.829v-27.648l-12.862 4.584 1.967 17.021z" fill="#dd1b16"/><path d="m19.758 16.9-3.635 1.7h-3.83l-1.8 4.5-3.35.062 8.981-19.98zm-.351-.856-3.259-6.452-2.673 6.341h2.649z" fill="#f2f2f2"/><path d="m19.181 15.938h-3.051l-.007 2.657 4.219.004 1.972 4.567 3.205.06-9.396-20.041.025 6.407z" fill="#b3b3b3"/><path d="m15.64 27.93 1.67-1a1.51 1.51 0 0 0 1.31 1.07c.67 0 1.1-.26 1.1-1.29v-7h2v7a2.78 2.78 0 0 1 -3.06 3.09 3.18 3.18 0 0 1 -3.07-1.87m7.29-.22 1.67-1a2.23 2.23 0 0 0 2 1.24 1.18 1.18 0 0 0 1.431-.859q.011-.045.019-.091c0-.7-.56-1-1.49-1.36l-.51-.22c-1.48-.63-2.46-1.42-2.46-3.09a2.74 2.74 0 0 1 2.76-2.722q.121 0 .242.012a3 3 0 0 1 2.91 1.64l-1.59 1a1.39 1.39 0 0 0 -1.32-.88.89.89 0 0 0 -1 .88c0 .61.38.86 1.26 1.24l.51.22c1.688.75 2.688 1.51 2.688 3.23s-1.45 2.85-3.39 2.85a3.93 3.93 0 0 1 -3.73-2.09" fill="#f7df1e"/></svg>