<?xml version="1.0" encoding="UTF-8" standalone="no"?>
<svg xmlns="http://www.w3.org/2000/svg" xmlns:xlink="http://www.w3.org/1999/xlink" viewBox="0 0 32 32">
<title>file_type_cmake</title>
  <defs>
    <linearGradient id="linearGradient3721" gradientTransform="translate(2104,-1992)" gradientUnits="userSpaceOnUse"
      y2="1093.3643" x2="-995.60632" y1="1472.3735" x1="-984.2926">
      <stop offset="0" stop-color="#848484" stop-opacity="1" />
      <stop offset="1" stop-color="#d2d2d2" stop-opacity="1" />
    </linearGradient>
    <linearGradient id="linearGradient3675" gradientTransform="translate(2104,-1992)" gradientUnits="userSpaceOnUse"
      y2="1721.275" x2="-1549.978" y1="1794.8141" x1="-678.82251">
      <stop offset="0" stop-color="#01a300" stop-opacity="1" />
      <stop offset="1" stop-color="#01df00" stop-opacity="1" />
    </linearGradient>
    <linearGradient id="linearGradient3659" gradientTransform="translate(2104,-1992)" gradientUnits="userSpaceOnUse"
      y2="1721.275" x2="-316.78384" y1="680.41388" x1="-933.38092">
      <stop offset="0" stop-color="#b40e0e" stop-opacity="1" />
      <stop offset="1" stop-color="#ff5959" stop-opacity="1" />
    </linearGradient>
    <linearGradient id="linearGradient3651" gradientTransform="translate(2104,-1992)" gradientUnits="userSpaceOnUse"
      y2="454.13968" x2="-1086.1161" y1="1387.5206" x1="-1527.3507">
      <stop offset="0" stop-color="#1011a1" stop-opacity="1" />
      <stop offset="1" stop-color="#6969e1" stop-opacity="1" />
    </linearGradient>
  </defs>
  <g transform="matrix(0.015322,0,0,0.01531934,-0.2547933,31.563625)">
    <path style="fill:url(#linearGradient3651);stroke:#000000;stroke-width:3.26356486;stroke-miterlimit:4" d="m 1143.3083,-955.6783 -984.61711,841.7401 901.81951,-1801.9597 82.7976,960.2196 z" />
    <path style="fill:url(#linearGradient3659);stroke:#000000;stroke-width:3.26356486;stroke-miterlimit:4" d="m 1188.9362,-430.0061 -127.9574,-1486.0537 902.9741,1802.2859 -775.0167,-316.2322 z" />
    <path style="fill:url(#linearGradient3675);stroke:#000000;stroke-width:3.26356486;stroke-miterlimit:4" d="M 743.40929,-616.1651 1964.8794,-113.9915 158.92799,-114.19 743.40929,-616.1651 Z" />
    <path style="fill:url(#linearGradient3721);stroke:#000000;stroke-width:6.52712971;stroke-miterlimit:4" d="m 745.26609,-614.9525 397.42281,-339.0381 55.3298,523.5716 -452.75261,-184.5335 z" />
    <path style="fill:none;stroke:#000000;stroke-width:12.2;stroke-miterlimit:4" d="m 1958.5868,-108.193 -1797.08691,-0.1258 c -11.0291,-1.2221 -8.5403,-6.713 -5.9958,-12.2215 l 900.87981,-1799.4856 c 3.3139,-5.2772 6.2883,-4.4372 9.0861,-0.4108 l 900.8561,1799.4363 c 4.5781,9.1667 1.5811,13.1503 -7.7393,12.8074 z" />
  </g>
</svg>
