<svg viewBox="0 0 32 32" xmlns="http://www.w3.org/2000/svg"><path d="M11.84 29.2c1.17.47 2.44.75 3.78.8 1.81.06 3.52-.31 5.06-1.02-1.84-.72-3.51-1.78-4.93-3.1a8.475 8.475 0 01-3.9 3.32z" fill="#ff9100"/><path d="M15.74 25.88c-3.25-3-5.22-7.35-5.05-12.12 0-.15.01-.31.02-.46a8.495 8.495 0 00-4.39.05c-.87 1.52-1.39 3.26-1.46 5.13-.17 4.82 2.75 9.03 6.98 10.73a8.369 8.369 0 003.9-3.32z" fill="#ffc400"/><path d="M15.74 25.88a8.4 8.4 0 001.27-4.15c.14-4.02-2.56-7.47-6.3-8.44 0 .15-.02.31-.02.46a15.69 15.69 0 005.05 12.12z" fill="#ff9100"/><path d="M16.59 2c-2.13 1.7-3.81 3.95-4.83 6.54a15.57 15.57 0 00-1.05 4.75 8.41 8.41 0 016.3 8.44 8.27 8.27 0 01-1.27 4.15 15.77 15.77 0 004.93 3.1c3.7-1.71 6.32-5.38 6.47-9.73.1-2.82-.98-5.33-2.51-7.45-1.62-2.24-8.04-9.79-8.04-9.79z" fill="#dd2c00"/><circle cx="23" cy="23" r="7" fill="#fff"/><path d="M19.466 20.886q0-.325.227-.553.228-.227.553-.227h1.951l.781.78h2.732q.325 0 .553.228.227.228.227.553v3.122q0 .325-.227.553-.228.227-.553.227h-5.464q-.325 0-.553-.227-.227-.228-.227-.553zm3.138 3.008l-.797-1.056-1.17 1.56h4.682l-1.56-1.95z" fill="#5e5e5e"/></svg>