<svg id="Layer_1" data-name="Layer 1" xmlns="http://www.w3.org/2000/svg" viewBox="0 0 32 32"><path d="M16.74,2a1.33,1.33,0,0,0-.92.37h0l-8.59,5L15.79,16h0l10.3,10.3,2-3.53L21,5.73l-3.3-3.3A1.31,1.31,0,0,0,16.74,2Z" style="fill:#91d8a1"/><path d="M7.25,7.35l-5,8.58h0a1.34,1.34,0,0,0-.38.92,1.31,1.31,0,0,0,.39.93L6.4,21.9l16.08,6.33,3.64-2-.1-.1h0L15.91,16h0Z" style="fill:#368f49"/><path d="M7.19,7.36,16,16.14h0l10.09,10.1,3.84-.74V14.14l-4-4a6.48,6.48,0,0,0-3.63-1.62v0Z" style="fill:#368f49"/><path d="M7.26,7.41,16,16.18h0l10.1,10.09-.74,3.84H14l-4-4.05a6.54,6.54,0,0,1-1.61-3.63h0Z" style="fill:#91d8a1"/></svg>