<?xml version="1.0" encoding="UTF-8"?>
<svg width="555px" height="150px" viewBox="0 0 555 150" version="1.1" xmlns="http://www.w3.org/2000/svg" xmlns:xlink="http://www.w3.org/1999/xlink">
    <!-- Generator: Sketch 41.2 (35397) - http://www.bohemiancoding.com/sketch -->
    <title>Combined Shape</title>
    <desc>Created with Sketch.</desc>
    <defs></defs>
    <g id="Page-1" stroke="none" stroke-width="1" fill="none" fill-rule="evenodd">
        <g id="3m" fill="#FFE885">
            <g id="Group">
                <path d="M0.16,0.1 C15.11,0.08 30.06,-0.06 45,0.17 C45.26,0.36 45.79,0.73 46.05,0.92 C64.25,19.13 82.51,37.27 100.72,55.47 C118.36,37.53 136.38,19.94 154.11,2.08 C155.15,1.06 156.29,-0.16 157.92,0.08 C169.95,0.03 181.98,0.08 194.01,0.06 C196.34,0.05 198.71,-0.14 201,0.44 C187.1,13.71 173.73,27.55 160.03,41.04 C130.13,70.83 100.25,100.64 70.35,130.43 C63.79,136.84 57.52,143.56 50.77,149.74 C35.83,150.17 20.85,149.88 5.89,149.88 C30.1,125.93 54.03,101.7 78.33,77.86 C52.17,52.05 26.25,25.99 0.16,0.1 Z M212.1,0.1 C224.24,0.02 236.38,0.06 248.52,0.09 C248.47,50.03 248.49,99.98 248.51,149.92 C236.42,149.84 224.32,150.16 212.24,149.76 C212.33,116.8 212.18,83.84 212.32,50.87 C180.69,82.7 148.77,114.24 117.06,145.98 C115.3,147.56 113.77,150.27 111.02,149.82 C94.7,149.71 78.37,149.86 62.04,149.74 C112.08,99.88 162.05,49.95 212.1,0.1 Z M256.75,0.14 C266.05,-0.03 275.35,0.09 284.66,0.1 C301.21,16.99 318.12,33.54 334.88,50.23 C351.62,33.5 368.39,16.79 385.16,0.09 C394.39,0.05 403.63,0.06 412.86,0.08 C412.76,50.03 412.76,99.97 412.86,149.92 C403.53,149.9 394.19,150.04 384.86,149.85 C384.96,118.34 384.99,86.83 384.84,55.33 C368.13,72.03 351.66,88.96 334.83,105.54 C317.87,89 301.42,71.98 284.69,55.23 C284.78,86.79 284.58,118.35 284.8,149.91 C275.46,149.91 266.12,150.01 256.78,149.88 C256.76,99.97 256.83,50.05 256.75,0.14 Z M421.12,0.09 C430.47,0.11 439.81,-0.04 449.16,0.15 C449.07,40.85 449.12,81.54 449.14,122.24 C474.1,122.17 499.07,122.25 524.04,122.19 C525.29,122.31 526.89,121.95 527.82,123.08 C536.7,132.07 545.78,140.85 554.61,149.89 C510.11,149.98 465.62,149.94 421.12,149.92 C421.23,99.97 421.24,50.03 421.12,0.09 Z" id="Combined-Shape"></path>
            </g>
        </g>
    </g>
</svg>