<svg xmlns="http://www.w3.org/2000/svg" viewBox="0 0 32 32"><path fill="#fff" d="m644.2 359.5 18-36 20.3-.5-32.2-21.4c-17.6-11.8-32.1-21.8-32.1-22.1s14.5-10.4 32.1-22.1l32.2-21.4-38.3-.6v-72h200v72l-38.3.6 32.1 21.4c17.7 11.7 32.2 21.7 32.2 22s-14.5 10.4-32.2 22.2L806 323l56.3.5-36 72h-200z"/><g stroke-width="8"><path fill="#ffffbd" stroke="#3d3d1f" d="M845.2-45c13.2-8.8 24.5-16 25-16s11.8 7.2 25 16l24 16h43v-56h-184v56h43z"/><path fill="#ffbdbd" stroke="#432323" d="M926.5 60.8C957 40.4 982.2 23 982.2 23s-25.1-17.4-55.9-38l-55.8-37.2-56.1 37.4A5562 5562 0 0 0 758.3 23l112 75s25.5-16.7 56.2-37.2z"/><path fill="#bddfff" stroke="#172f5f" d="M961.5 103.5c7.5-15.1 13.7-28 13.7-28s-12.5-.5-27.7-.5h-27.8l-24 16c-13.2 8.8-24.5 16-25.2 16s-12.1-7.2-25.3-16l-24-16h-28.5L779 102.5c-7.6 15.1-13.8 28-13.8 28s41 .5 91.3.5h91.2z"/></g><g stroke-width="8"><path fill="#ffffbd" stroke="#3d3d1f" d="M311.2 20h184v56h-184z" transform="matrix(.11086 0 0 .12298 -28.7 0)"/><path fill="#bddfff" stroke="#172f5f" d="M325.6 184 298 239.5l182.6.5 27.7-55.9z" transform="matrix(.11086 0 0 .12298 -28.7 0)"/><path fill="#ffbdbd" stroke="#432323" d="m403.2 48.8-119 78.9 119.3 79.5 118.7-79.5z" transform="matrix(.11086 0 0 .12298 -28.7 0)"/></g></svg>