<svg xmlns="http://www.w3.org/2000/svg" width="16" height="16" fill="none"><mask id="a" width="12" height="14" x="3" y="1" fill="#000" maskUnits="userSpaceOnUse"><path fill="#fff" d="M3 1h12v14H3z"/><path d="M7.557 9.476q-.216.012-.312-.108-.096-.132-.06-.396a.66.66 0 0 1 .12-.348.38.38 0 0 1 .276-.144 7.5 7.5 0 0 0 2.172-.456q.972-.384 1.656-.972.696-.6 1.068-1.344a3.54 3.54 0 0 0 .372-1.584q0-.648-.3-.972-.3-.336-.864-.336-.492 0-1.032.264a4.7 4.7 0 0 0-1.092.732q-.54.468-1.056 1.128-.504.648-.948 1.452-.432.792-.756 1.692l-1.86 5.748a.4.4 0 0 1-.192.252q-.144.084-.42.084-.264 0-.396-.084t-.072-.276l3.108-9.54q-.3.3-.636.576t-.708.552q-.36.264-.768.552-.252.168-.42.108t-.3-.276a.54.54 0 0 1-.096-.36q.024-.18.252-.312.708-.444 1.308-.9.612-.468 1.116-.972.504-.516.876-1.068a1 1 0 0 1 .264-.276q.12-.072.384-.072.276 0 .396.084.132.084.06.276l-.624 1.98q.552-.744 1.164-1.272.624-.528 1.272-.792.66-.276 1.32-.276.648 0 1.116.264.48.264.732.744t.252 1.14q0 1.128-.468 2.1a5.3 5.3 0 0 1-1.332 1.704A6.7 6.7 0 0 1 10.1 8.948a8.6 8.6 0 0 1-2.544.528"/></mask><path fill="#fff" d="M7.557 9.476q-.216.012-.312-.108-.096-.132-.06-.396a.66.66 0 0 1 .12-.348.38.38 0 0 1 .276-.144 7.5 7.5 0 0 0 2.172-.456q.972-.384 1.656-.972.696-.6 1.068-1.344a3.54 3.54 0 0 0 .372-1.584q0-.648-.3-.972-.3-.336-.864-.336-.492 0-1.032.264a4.7 4.7 0 0 0-1.092.732q-.54.468-1.056 1.128-.504.648-.948 1.452-.432.792-.756 1.692l-1.86 5.748a.4.4 0 0 1-.192.252q-.144.084-.42.084-.264 0-.396-.084t-.072-.276l3.108-9.54q-.3.3-.636.576t-.708.552q-.36.264-.768.552-.252.168-.42.108t-.3-.276a.54.54 0 0 1-.096-.36q.024-.18.252-.312.708-.444 1.308-.9.612-.468 1.116-.972.504-.516.876-1.068a1 1 0 0 1 .264-.276q.12-.072.384-.072.276 0 .396.084.132.084.06.276l-.624 1.98q.552-.744 1.164-1.272.624-.528 1.272-.792.66-.276 1.32-.276.648 0 1.116.264.48.264.732.744t.252 1.14q0 1.128-.468 2.1a5.3 5.3 0 0 1-1.332 1.704A6.7 6.7 0 0 1 10.1 8.948a8.6 8.6 0 0 1-2.544.528"/><path fill="#3F3D56" d="m7.557 9.476.044.799h.005zm-.312-.108-.647.47.01.015.012.015zm-.06-.396.793.108.001-.012.002-.012zm.12-.348-.62-.507-.005.007zm.276-.144-.056-.798h-.001zm2.172-.456.286.747.008-.003zm1.656-.972.521.607.001-.001zm1.068-1.344.716.358.002-.005zm.072-2.556-.597.533.005.005.005.006zm-1.896-.072.338.725.007-.003.006-.003zm-1.092.732.524.605v-.001zM8.505 4.94l-.63-.493-.002.002zm-.948 1.452-.7-.387-.002.004zM6.8 8.084l-.753-.271-.004.012-.004.013zm-1.86 5.748-.761-.246-.005.013-.003.013zm-1.008.252-.43.675zm-.072-.276-.76-.248-.004.01zm3.108-9.54.76.248-1.326-.814zM5.625 5.396l.473.645.004-.003zm-.768.552.444.666.009-.006.008-.006zm-.42.108.269-.753zm-.3-.276.683-.417-.005-.007zm-.096-.36.792.113v-.007zm.252-.312.4.692.013-.007.012-.007zm1.308-.9.484.637.002-.002zm1.116-.972.566.566.006-.007zm.876-1.068-.654-.461-.005.007-.005.007zm.264-.276-.412-.686zm.78.012-.459.655.015.01.014.01zm.06.276-.75-.28-.007.02-.006.02zm-.624 1.98-.763-.24 1.405.717zm1.164-1.272-.517-.61-.006.004zm1.272-.792.302.74.007-.002zm2.436-.012-.393.697.007.004zm.732.744.708-.372zm-.216 3.24.719.35.002-.003zm-1.332 1.704.521.607zM10.1 8.948 9.818 8.2h-.002zm-2.588-.27s.048-.004.12.021a.53.53 0 0 1 .237.17l-1.25.999c.285.356.692.423.981.407zm.379.22c.059.08.076.153.08.185.005.03 0 .033.006-.003l-1.586-.216c-.035.258-.037.641.206.975zm.089.158q.006-.044.002-.024a.3.3 0 0 1-.053.092l-1.25-1a1.45 1.45 0 0 0-.29.764zm-.057.075a.42.42 0 0 1-.286.147l-.114-1.596c-.335.024-.629.18-.838.435zm-.287.147a8.3 8.3 0 0 0 2.402-.507l-.572-1.494a6.7 6.7 0 0 1-1.942.405zm2.41-.51a6.6 6.6 0 0 0 1.883-1.11l-1.043-1.213c-.378.326-.85.607-1.428.835zm1.884-1.11a5.1 5.1 0 0 0 1.261-1.592l-1.43-.716a3.5 3.5 0 0 1-.875 1.096zm1.264-1.597c.3-.612.454-1.26.454-1.937h-1.6q.001.639-.29 1.23zm.454-1.937c0-.54-.124-1.095-.513-1.516l-1.174 1.088c.01.011.087.105.087.428zm-.503-1.505c-.389-.435-.919-.603-1.461-.603v1.6c.21 0 .256.056.267.069zm-1.461-.603a3.14 3.14 0 0 0-1.383.345l.702 1.438c.275-.134.499-.183.68-.183zm-1.37.339a5.6 5.6 0 0 0-1.279.853l1.05 1.208c.324-.282.626-.48.905-.611zm-1.278.852q-.607.528-1.162 1.24l1.26.986q.477-.608.95-1.016zM7.873 4.45a12 12 0 0 0-1.016 1.556l1.4.774q.418-.755.88-1.348zM6.855 6.01a13 13 0 0 0-.807 1.804l1.506.542q.305-.845.705-1.58zM6.04 7.838l-1.86 5.748 1.522.492 1.86-5.748zm-1.868 5.774a.4.4 0 0 1 .174-.22l.806 1.383a1.2 1.2 0 0 0 .558-.723zm.174-.219a.3.3 0 0 1 .054-.026l.015-.005-.025.004-.061.002v1.6c.243 0 .549-.033.823-.193zm-.017-.025-.051-.002-.014-.002.029.01a.4.4 0 0 1 .07.035l-.86 1.35c.277.176.59.209.826.209zm.033.041a.62.62 0 0 1 .261.362.5.5 0 0 1 .001.276l-1.527-.478a1.1 1.1 0 0 0-.022.606.98.98 0 0 0 .428.584zm.26.647 3.108-9.54-1.522-.496L3.1 13.56zM6.403 3.702a8 8 0 0 1-.578.524l1.016 1.236q.365-.3.694-.628zm-.578.524a17 17 0 0 1-.677.528l.954 1.284q.386-.286.739-.576zm-.673.525q-.354.26-.756.543l.922 1.308q.414-.293.78-.56zm-.739.531c-.036.025-.03.014.014.002a.5.5 0 0 1 .279.019l-.538 1.506c.476.17.899-.04 1.133-.195zm.293.02c.058.021.096.05.114.066.016.015.014.018 0-.005l-1.366.834c.144.236.37.49.714.612zm.11.054c-.014-.022.035.048.017.177l-1.584-.226c-.05.353.063.663.21.897zm.018.17a.47.47 0 0 1-.096.229c-.035.044-.06.055-.044.045l-.802-1.384c-.265.153-.582.436-.644.898zm-.116.26q.735-.461 1.367-.941L5.117 3.57q-.569.432-1.25.86zm1.369-.943q.651-.497 1.196-1.041L6.15 2.67q-.463.464-1.036.903zm1.202-1.048a8.5 8.5 0 0 0 .967-1.18L6.93 1.721q-.327.488-.784.956zm.957-1.166a1 1 0 0 1 .063-.079q.006-.007-.001 0l-.04.028-.823-1.372a1.75 1.75 0 0 0-.506.5zm.022-.051a.4.4 0 0 1-.1.045l-.008.001.02-.002.06-.002v-1.6c-.212 0-.522.023-.795.186zm-.027.042.058.002.013.002-.04-.013a.5.5 0 0 1-.094-.052l.918-1.31c-.29-.203-.631-.229-.855-.229zm-.034-.041a.63.63 0 0 1-.27-.394.5.5 0 0 1 .01-.286l1.499.562a1.1 1.1 0 0 0 .054-.616.97.97 0 0 0-.434-.616zm-.273-.64L7.31 3.92l1.526.481.624-1.98zm.781 2.698A7 7 0 0 1 9.76 3.494L8.714 2.282A8.6 8.6 0 0 0 7.43 3.683zm1.039-1.138a4 4 0 0 1 1.057-.662l-.604-1.482a5.6 5.6 0 0 0-1.487.922zm1.064-.665a2.6 2.6 0 0 1 1.01-.214v-1.6c-.554 0-1.098.117-1.628.338zm1.01-.214c.324 0 .554.065.724.16l.786-1.393c-.454-.256-.968-.367-1.51-.367zm.731.165a1 1 0 0 1 .41.415l1.416-.744a2.57 2.57 0 0 0-1.055-1.073zm.41.415c.096.183.16.43.16.768h1.6c0-.542-.104-1.055-.344-1.512zm.16.768c0 .637-.131 1.218-.389 1.753l1.442.694c.366-.761.547-1.58.547-2.447zm-.387 1.75a4.5 4.5 0 0 1-1.135 1.448l1.044 1.212a6.1 6.1 0 0 0 1.529-1.96zm-1.134 1.447c-.49.42-1.083.768-1.79 1.035l.566 1.496A7.5 7.5 0 0 0 12.65 8.38zM9.816 8.201a7.8 7.8 0 0 1-2.308.476l.098 1.598a9.4 9.4 0 0 0 2.78-.58z" mask="url(#a)"/></svg>