<svg version="1.1" viewBox="0 0 32 32" xmlns="http://www.w3.org/2000/svg"><title>file_type_mondoo</title><path transform="matrix(.072028 0 0 .072028 2.0601 9.0298)" d="m96.757-0.0076182c-53.45 0-96.751 43.328-96.751 96.778 0 53.44 43.301 96.778 96.751 96.778v-96.778-96.778zm0 96.778a96.77 96.77 0 0 0 96.778 96.778 96.77 96.77 0 0 0 96.778-96.778 96.77 96.77 0 0 0-96.778-96.778 96.77 96.77 0 0 0-96.778 96.778zm193.56 0v96.75c53.44 0 96.75-43.301 96.75-96.75 0-53.45-43.311-96.778-96.75-96.778v96.778z" fill="#6e45e2"/></svg>
