<svg xmlns="http://www.w3.org/2000/svg" viewBox="0 0 32 32"><title>file_type_elasticbeanstalk@2x</title><g id="elasticbeanstalk"><polygon points="12.53 3.73 12.53 16 11.11 16 11.11 27.55 16 30 18.96 16 16 2 12.53 3.73" style="fill:#9d5025"/><polygon points="16 2 16 16 16 30 19.47 28.27 19.47 16 20.89 16 20.89 4.45 16 2" style="fill:#f58536"/><polygon points="26.09 12.43 19.91 13.01 17.87 12.77 24.32 6.18 26.09 12.43" style="fill:#6b3a19"/><polygon points="24.32 6.18 26.09 7.06 26.09 12.43 24.32 12.06 24.32 6.18" style="fill:#f58536"/><polygon points="17.87 12.77 24.32 12.06 24.32 6.18 17.87 7.91 17.87 12.77" style="fill:#9d5025"/><polygon points="5.91 19.57 12.09 18.99 14.13 19.23 7.67 25.82 5.91 19.57" style="fill:#fbbf93"/><polygon points="7.67 25.82 5.91 24.94 5.91 19.57 7.67 19.94 7.67 25.82" style="fill:#9d5025"/><polygon points="14.13 19.23 7.67 19.94 7.67 25.82 14.13 24.09 14.13 19.23" style="fill:#f58536"/></g></svg>