<svg xmlns="http://www.w3.org/2000/svg" viewBox="0 0 32 32"><title>file_type_blender</title><path fill="#0e548b" d="M16.6 17.42a3.3 3.3 0 0 1 1.2-2.34 4 4 0 0 1 2.58-.93 4 4 0 0 1 2.58.93 3.3 3.3 0 0 1 1.2 2.34c.05.95-.34 1.85-1.01 2.5-.7.68-1.67 1.1-2.77 1.1s-2.09-.42-2.78-1.1a3.24 3.24 0 0 1-1-2.5"/><path fill="#f4792b" d="M10.58 19.3c0 .37.12 1.08.3 1.63a8.6 8.6 0 0 0 1.85 3.22 9.6 9.6 0 0 0 3.25 2.34c1.33.58 2.78.88 4.27.88a10.47 10.47 0 0 0 4.27-.9 9.66 9.66 0 0 0 3.25-2.34 8.67 8.67 0 0 0 2.2-5.03 8.2 8.2 0 0 0-.05-1.78 8.3 8.3 0 0 0-1.19-3.25 9.04 9.04 0 0 0-2.16-2.38l-8.74-6.72-.03-.01a1.94 1.94 0 0 0-2.17 0c-.63.45-.7 1.18-.14 1.65l3.65 2.97-11.12.01H8c-.92 0-1.8.6-1.97 1.37-.18.77.44 1.42 1.4 1.42h5.63L3 20.08l-.04.03c-.94.73-1.25 1.94-.65 2.7.6.78 1.9.78 2.85 0l5.49-4.49s-.08.6-.07.97m14.1 2.03a6.18 6.18 0 0 1-4.43 1.81c-1.71 0-3.3-.64-4.43-1.8a5.28 5.28 0 0 1-1.2-1.88 4.91 4.91 0 0 1-.28-2.12 4.99 4.99 0 0 1 .6-1.99 5.48 5.48 0 0 1 1.35-1.6c1.1-.9 2.5-1.38 3.96-1.38 1.47 0 2.86.48 3.96 1.37a5.48 5.48 0 0 1 1.35 1.6 4.99 4.99 0 0 1 .6 1.98 4.94 4.94 0 0 1-.27 2.12 5.28 5.28 0 0 1-1.21 1.9"/></svg>