<?xml version="1.0" encoding="UTF-8"?><svg id="Layer_1" xmlns="http://www.w3.org/2000/svg" xmlns:xlink="http://www.w3.org/1999/xlink" viewBox="0 0 32 32"><defs><linearGradient id="linear-gradient" x1="5.3" y1="6.98" x2="27.02" y2="25.31" gradientUnits="userSpaceOnUse"><stop offset="0" stop-color="#9a57fe"/><stop offset="1" stop-color="#ea74fe"/></linearGradient></defs><path d="M6.1,25.9c2,2,4.6,3.4,7.52,3.9.77.13,1.57.2,2.38.2,2.14,0,4.16-.48,5.97-1.34,1.46-.69,2.79-1.63,3.92-2.76,1.22-1.22,2.21-2.65,2.91-4.25.76-1.73,1.19-3.64,1.19-5.65,0-2.71-.77-5.24-2.1-7.38-.57-.91-1.24-1.76-2-2.51-1.13-1.13-2.46-2.07-3.92-2.76-1.81-.86-3.84-1.34-5.97-1.34-.81,0-1.61.07-2.38.2-2.91.5-5.51,1.9-7.52,3.9-.76.76-1.43,1.6-2,2.51-1.33,2.14-2.1,4.67-2.1,7.38,0,2.01.42,3.92,1.19,5.65.7,1.59,1.7,3.03,2.91,4.25Z" style="fill:url(#linear-gradient); stroke-width:0px;"/><path d="M13.63,26.77c1.64,0,3.17-.87,4-2.3l2.79-4.83,2.23.02c1.63,0,3.15-.87,3.97-2.29l.82-1.39h-6.63c-1.64,0-3.17.87-4,2.3l-4.9,8.49h1.72ZM26.54,16.49l-.38.63c-.72,1.25-2.07,2.03-3.52,2.03h-1.94s1.52-2.66,1.52-2.66h4.32Z" style="fill:#fff; stroke-width:0px;"/><path d="M26.57,12.58c-.82-1.43-2.34-2.31-3.99-2.31h-5.58s-1.1-1.94-1.1-1.94c-.81-1.41-2.33-2.29-3.96-2.29h-1.62s3.32,5.73,3.32,5.73c.82,1.43,2.34,2.31,3.99,2.31h9.8s-.85-1.5-.85-1.5ZM11.21,6.53h.73c1.45.01,2.8.79,3.52,2.05l.96,1.69h-3.05s-2.16-3.73-2.16-3.73Z" style="fill:#fff; stroke-width:0px;"/><path d="M7.81,8.46c-.83,1.42-.83,3.19,0,4.61l2.79,4.83-1.13,1.92c-.82,1.41-.82,3.17,0,4.58l.8,1.41,3.32-5.74c.83-1.42.83-3.19,0-4.61l-4.9-8.49-.87,1.49ZM10.26,24.78l-.35-.64c-.72-1.25-.72-2.81,0-4.07l.98-1.67,1.53,2.64-2.16,3.74Z" style="fill:#fff; stroke-width:0px;"/></svg>