<svg viewBox="0 0 32 32" xmlns="http://www.w3.org/2000/svg"><g fill="#fbc02d"><path d="m8.267 13.447c-.63.582-.137 2.472.8 2.315.1-.017.117-.133.085-.208a2.03 2.03 0 0 0 -.3-.383 1.617 1.617 0 0 1 -.287-.592 1.387 1.387 0 0 1 .1-.777 1.017 1.017 0 0 0 .8.106.14.14 0 0 0 .033-.254c-.5-.285-.9-.516-1.055-1.111-.134-.5.212-1.608.836-1.624a.119.119 0 0 0 .114-.149c-.12-.336-.443-.291-.719-.152a1.986 1.986 0 0 0 -.805 1.382 1.964 1.964 0 0 0 .398 1.447z"/><path d="m12.082 13.8a.093.093 0 0 0 .144-.019 1.142 1.142 0 0 0 .12-.422.852.852 0 0 1 .646-.6c.536-.169 1.009.218 1.526.153a.125.125 0 0 0 .087-.21 1.394 1.394 0 0 0 -.963-.437 1.686 1.686 0 0 1 .532-.329 3.34 3.34 0 0 1 .922.022.1.1 0 0 0 .086-.15c-.331-.733-1.882-.3-1.914.452a2.024 2.024 0 0 0 -.636.142c-.449.183-1.076.975-.55 1.398z"/><path d="m12.25 11.277c.259.024.529-.2.783-.267.3-.076.633.029.911-.09a.1.1 0 0 0 .02-.157.81.81 0 0 0 -.706-.164c.3-.865 1.44-1.165 2.271-1.179 1.263-.021 1.707 1 1.818 2.049a.1.1 0 0 0 .176.048 1.169 1.169 0 0 0 .174-.679 2.121 2.121 0 0 1 1.823 1.011c.514.778.283 1.652.391 2.506a.135.135 0 0 0 .249.068c1.008-1.656-.606-4.219-2.519-3.908a2.343 2.343 0 0 0 -1.852-1.49c-.833-.073-3.116.419-2.868 1.627-.294.063-.7.211-.769.495a.1.1 0 0 0 .098.13z"/><path d="m18.557 15.949c.327.384.825.954.423 1.459-.164.206-.642.229-.879.284a2.341 2.341 0 0 0 -.7.27.127.127 0 0 0 .03.23 3.087 3.087 0 0 0 .909.024 1.028 1.028 0 0 1 -.418.6c-.2.144-.576.127-.7.339a.13.13 0 0 0 0 .13c.209.366.791-.018.992-.2a1.271 1.271 0 0 0 .385-.909 1.245 1.245 0 0 0 .926-.635c.314-.713-.22-1.388-.7-1.858-.176-.183-.425.081-.268.266z"/><path d="m8.843 18.514a2.9 2.9 0 0 0 1.415 2.059 2.546 2.546 0 0 0 3.537 1.992c.6.836 1.764.519 2.415-.192.065-.071 0-.205-.1-.171-.553.186-1.571.787-2-.121a.263.263 0 0 0 -.359-.094 2.2 2.2 0 0 1 -2.1-.01 1.632 1.632 0 0 1 -.951-1.206 2.31 2.31 0 0 0 .746.122.129.129 0 0 0 .065-.24 3.852 3.852 0 0 1 -2-1.84c-.439-1.124.393-1.823 1.146-2.446.123-.1.015-.285-.121-.291-1.168-.054-1.836 1.424-1.693 2.438z"/><path d="m21.442 21.874c-.336.141-.755.1-1.061.3a.119.119 0 0 0 0 .2c.7.385 2.135-.231 1.971-1.13a2.046 2.046 0 0 0 .971-.6 1.4 1.4 0 0 0 .012-1.715c.143-.085.282-.176.413-.268a1.976 1.976 0 0 0 1.011-1.984 2.5 2.5 0 0 0 -3.519-1.912.126.126 0 0 0 .1.23c1.167-.345 2.87.292 2.947 1.682.084 1.534-1.5 1.874-2.66 2.187a.143.143 0 0 0 -.034.259 1.455 1.455 0 0 0 1.382 0 .975.975 0 0 1 -.238 1.309c-.413.306-.955.126-1.357.378a.135.135 0 0 0 -.048.183.742.742 0 0 0 .684.308.971.971 0 0 1 -.574.573z"/><path d="m3.977 12.334c-.348 1.066-.151 2.987 1.023 3.408a3.215 3.215 0 0 0 -.51 2.6 3.151 3.151 0 0 0 2.138 2.164 3.42 3.42 0 0 0 1.884 4.7c.282.095 1.289-.079 1.319.347a.758.758 0 0 0 .36.545 2.179 2.179 0 0 0 2.323-.047c.9 1.344 2.852 1.4 4.4 1.245a3.5 3.5 0 0 0 2.4-1.422 1.867 1.867 0 0 0 .753.388 3.646 3.646 0 0 0 2.153.132 2.521 2.521 0 0 0 1.543-2.56c1.613.776 3.53-.821 4.313-2.195a2.892 2.892 0 0 0 -.151-2.764c1.541-1.373 2.61-3.52 1.781-5.535-.77-1.873-3.56-2.557-5.351-2.053a3.012 3.012 0 0 0 -.455-3.592 3.726 3.726 0 0 0 -3.951-.776 4.3 4.3 0 0 0 -2.929-3.135 5.424 5.424 0 0 0 -3.73.338c-.568.268-1.41 1.1-1.355 1.82a4.019 4.019 0 0 0 -2.306.093c-1.264.431-2.143 2.244-2.22 3.547-1.635-.403-2.985 1.381-3.432 2.752zm6.689-6a2.944 2.944 0 0 1 1.949.43c.411.28.631.557 1.136.537a.132.132 0 0 0 .093-.224 3.962 3.962 0 0 0 -1.429-.977c.013-.989 1.342-1.571 2.105-1.761a5.223 5.223 0 0 1 2.68.161c1.931.577 2.132 2.413 1.9 4.077a.256.256 0 0 0 .465.2 2.605 2.605 0 0 0 .417-1.258 3.235 3.235 0 0 1 3.451.649c1.109 1.069.528 2.266.292 3.521a.119.119 0 0 0 .2.115 2.607 2.607 0 0 0 .313-.339.113.113 0 0 0 .107.073c1.827.027 4.15.3 4.922 2.258.72 1.828-.514 3.388-1.635 4.674a1.739 1.739 0 0 0 -1.336-.579.143.143 0 0 0 -.1.242c.884.9 1.8 1.545 1.424 2.966a3.692 3.692 0 0 1 -3.92 2.309c0-.017-.008-.036-.013-.053a.246.246 0 0 0 -.47 0c-.222.915-.108 1.793-1.03 2.358a2.55 2.55 0 0 1 -1.71.054 3.324 3.324 0 0 1 -.936-.237 2.882 2.882 0 0 0 .346-2.075.151.151 0 0 0 -.273-.036c-.581 1.323-.817 2.831-2.428 3.216-1.654.394-3.972.344-4.76-1.43-.066-.148-.3-.042-.259.109a2.847 2.847 0 0 0 .166.418c-.695.022-1.692.377-1.943-.537a.715.715 0 0 0 -.631-.5c-1.242-.109-2.127-.3-2.661-1.585a6 6 0 0 1 -.043-2.561 1.4 1.4 0 0 0 .467-.1.156.156 0 0 0 .037-.283c-.881-.454-1.693-.51-2.288-1.442a2.425 2.425 0 0 1 .37-2.913.142.142 0 0 0 .114-.147 9.11 9.11 0 0 1 .623-.7.145.145 0 0 0 -.175-.227 3.446 3.446 0 0 0 -.855.6c-1.14-.854-1.167-2.088-.561-3.431.58-1.286 1.688-1.492 2.911-1.732.234-.046.226-.3.094-.439.408-1.513 1.049-3.283 2.874-3.399z"/><path d="m3.278 7.167a6.542 6.542 0 0 0 1.66 1.133c.224.094.332-.218.212-.364a6.275 6.275 0 0 0 -1.238-1.036c-.488-.348-.906-.767-1.376-1.133-.1-.08-.29-.012-.241.14a3.04 3.04 0 0 0 .983 1.26z"/><path d="m4.067 9.151c.249.1.357-.3.11-.4a14.543 14.543 0 0 1 -1.852-1.026c-.078-.044-.185.048-.129.129a3.931 3.931 0 0 0 1.871 1.297z"/><path d="m3.678 10.171c.3.039.352-.447.07-.515-.264-.064-.528-.135-.8-.186a1.423 1.423 0 0 0 -.819-.012.184.184 0 0 0 -.08.3c.386.372 1.131.348 1.629.413z"/><path d="m4.693 24.249c-.425-.1-.825.386-1.127.632a3.309 3.309 0 0 0 -1.15 1.219c-.051.139.1.242.219.219a3.143 3.143 0 0 0 1.281-.86c.3-.257.917-.614.89-1.058a.157.157 0 0 0 -.113-.152z"/><path d="m4.386 26.294c.221-.033.387-.305.521-.467a2.724 2.724 0 0 0 .444-.624c.042-.1-.05-.226-.158-.158a2.641 2.641 0 0 0 -.544.524c-.147.167-.4.385-.4.621a.11.11 0 0 0 .137.104z"/><path d="m4.792 27.668a2.566 2.566 0 0 0 .939-.715 5.8 5.8 0 0 0 .892-1.078c.076-.12-.091-.236-.19-.146-.306.279-.6.566-.89.86a4.147 4.147 0 0 0 -.878.913.114.114 0 0 0 .127.166z"/><path d="m23.627 26.983a2.679 2.679 0 0 0 .771 1c.182.191.6.631.858.3a.121.121 0 0 0 0-.167 3.326 3.326 0 0 0 -.3-.255c-.132-.115-.247-.252-.373-.373a2.2 2.2 0 0 0 -.823-.639.106.106 0 0 0 -.133.134z"/><path d="m24.577 26.424c.155.126.481.352.669.18a.1.1 0 0 0 .026-.1c-.04-.169-.3-.25-.43-.338a1.79 1.79 0 0 1 -.449-.466c-.08-.115-.279-.048-.235.1a1.265 1.265 0 0 0 .419.624z"/><path d="m26.435 25.816a5.771 5.771 0 0 0 -.815-.515c-.143-.066-.3.1-.175.227a5.362 5.362 0 0 0 .715.547 2.134 2.134 0 0 0 .774.423.1.1 0 0 0 .11-.143 1.947 1.947 0 0 0 -.609-.539z"/><path d="m22.744 6.514c.316.123.554-.179.74-.391a4.236 4.236 0 0 0 .686-1.041c.123-.277-.262-.52-.415-.243-.141.253-.266.514-.415.763-.1.167-.342.689-.565.685-.139-.002-.146.182-.031.227z"/><path d="m24.085 6.856a.971.971 0 0 0 .467-.286.827.827 0 0 0 .282-.5c.014-.193-.223-.246-.346-.143a2.435 2.435 0 0 0 -.246.328c-.1.115-.22.206-.318.32a.167.167 0 0 0 .161.281z"/><path d="m24.871 7.422a4.286 4.286 0 0 0 .993-.814 2.638 2.638 0 0 0 .754-.918c.028-.077-.062-.175-.142-.142a2.96 2.96 0 0 0 -.9.768 5.051 5.051 0 0 0 -.849.958.108.108 0 0 0 .144.148z"/></g></svg>