<svg width="219" height="219" viewBox="0 0 219 219" fill="none" xmlns="http://www.w3.org/2000/svg">
<g clip-path="url(#clip0_15_5)">
<rect width="219" height="219" fill="white"/>
<path d="M100.251 191.721C91.6464 181.835 91.3894 181.407 92.9361 179.538C95.3877 176.575 199.963 73.485 201.464 72.5513C202.763 71.7435 215.585 78.4103 218.386 81.35C219.46 82.4771 211.128 92.068 165.67 142.029C135.974 174.667 111.113 201.504 110.423 201.669C109.734 201.833 105.156 197.357 100.251 191.721ZM562.288 190.7C561.468 189.816 561.146 184.316 561.146 171.17C561.146 161.105 560.9 152.87 560.6 152.87C560.299 152.87 557.906 154.893 555.281 157.365C549.026 163.258 543.555 165.181 534.387 164.707C513.96 163.652 501.75 144.633 501.75 113.87C501.75 94.6518 505.967 81.3443 514.958 72.1864C524.365 62.6057 537.609 60.0707 548.61 65.7451C551.675 67.3256 555.409 70.0253 556.909 71.7444C558.409 73.4634 559.953 74.8699 560.34 74.8699C560.728 74.8699 561.172 72.7324 561.327 70.1199L561.61 65.3699L573.457 65.0899L585.303 64.8098L585.064 128.09L584.825 191.37L574.127 191.649C566.597 191.846 563.092 191.565 562.288 190.7ZM551.116 140.251C564.274 133.011 565.47 99.3372 552.935 89.0405C548.372 85.2926 540.501 84.832 536.097 88.0552C529.614 92.7999 525.86 102.216 525.86 113.736C525.86 134.781 537.963 147.487 551.116 140.251ZM76.513 165.458C71.8741 160.436 68.9399 156.491 69.2326 155.669C69.7614 154.185 129.881 101.852 131.005 101.897C132.39 101.953 146.539 113.53 146.539 114.607C146.539 115.742 86.1024 173.87 84.923 173.87C84.5715 173.87 80.787 170.084 76.513 165.458ZM728.522 164.353C720.585 162.497 714.392 158.635 708.274 151.728C699.683 142.028 695.777 130.234 695.803 114.071C695.837 91.9821 704.617 74.6686 719.889 66.5721C725.577 63.5564 726.524 63.3699 736.162 63.3699C745.33 63.3699 746.951 63.65 751.722 66.0581C766.26 73.3956 775.247 92.6741 774.525 114.973L774.253 123.37L747.821 123.636C733.283 123.782 721.027 124.291 720.586 124.766C719.291 126.16 723.599 135.618 726.988 138.823C734.392 145.823 744.899 145.381 754.905 137.647L759.146 134.37L762.818 138.87C764.837 141.345 767.599 144.895 768.954 146.758L771.419 150.145L767.265 154.152C759.937 161.22 747.989 165.995 738.144 165.791C736.044 165.747 731.714 165.1 728.522 164.353ZM749.921 105.62C751.339 104.482 751.36 103.885 750.145 98.9653C746.854 85.6425 735.598 80.0587 727.261 87.6138C723.971 90.5946 722.27 93.9282 720.775 100.321C719.856 104.252 719.887 105.226 720.958 105.956C723.045 107.379 748.09 107.088 749.921 105.62ZM366.841 163.5C354.485 158.549 347.678 143.798 350.371 127.807C352.247 116.666 356.875 109.991 365.682 105.722C371.954 102.682 386.792 101.924 394.258 104.261C397.084 105.146 399.601 105.87 399.85 105.87C401.059 105.87 401.346 102.232 400.429 98.5129C399.281 93.8526 396.726 90.4432 392.61 88.0808C388.442 85.6882 378.028 86.0417 369.915 88.8512C366.096 90.1734 362.944 90.7759 362.526 90.2635C361.495 89.0008 356.86 74.3936 356.86 72.4063C356.86 68.6059 372.983 63.7775 386.058 63.6621C401.495 63.526 411.539 67.6515 417.667 76.645C424.024 85.9756 424.182 87.2082 424.182 127.37V163.37L413.582 163.654C407.751 163.811 402.61 163.538 402.156 163.05C401.702 162.561 401.157 160.684 400.945 158.879C400.733 157.074 400.352 155.373 400.098 155.1C399.845 154.827 398.155 156.005 396.343 157.718C390.679 163.074 387.726 164.22 378.682 164.571C373.127 164.787 369.157 164.428 366.841 163.5ZM394.371 143.603C399.188 140.629 401.432 135.884 401.432 128.671C401.432 121.532 400.269 120.673 389.825 120.093C383.179 119.724 382.055 119.931 379.16 122.055C374.72 125.313 373.429 128.358 373.843 134.604C374.38 142.719 377.654 145.705 386.11 145.79C389.279 145.82 391.902 145.128 394.371 143.603ZM621.664 163.601C616.538 161.835 609.809 154.513 607.396 148.078C605.29 142.462 605.255 141.749 605.254 103.87L605.253 65.3699L617.046 65.0902L628.839 64.8109L629.118 98.0904C629.365 127.691 629.578 131.728 631.041 134.611C635.888 144.164 648.58 144.091 653.353 134.482C655.319 130.526 655.408 129.129 655.696 97.5907L655.996 64.8113L667.767 65.0906L679.539 65.3699L679.78 113.256C679.957 148.391 679.735 161.513 678.947 162.536C678.116 163.614 675.426 163.867 667.098 163.65L656.325 163.37L656.034 158.87C655.874 156.395 655.394 153.988 654.968 153.522C654.542 153.056 652.374 154.585 650.152 156.919C644.324 163.041 640.082 164.842 631.718 164.746C627.887 164.702 623.363 164.187 621.664 163.601ZM808.856 163.92C803.362 162.04 799.885 158.78 797.28 153.068L794.682 147.37L794.378 117.12L794.074 86.8699H790.545C785.434 86.8699 784.819 85.4892 785.128 74.7206C785.39 65.5763 785.447 65.3637 787.717 65.0899C794.592 64.2609 794.217 64.9826 794.217 52.5508C794.217 45.1101 794.597 40.8614 795.332 40.0699C796.912 38.3679 817.047 38.4121 818.073 40.1199C818.487 40.8074 819.033 46.5449 819.289 52.8699L819.753 64.3698L828.373 64.6579L836.994 64.9458L836.731 75.6579L836.467 86.3699L827.878 86.6575L819.289 86.9452V112.408C819.289 144.475 818.678 143.348 834.61 140.681C836.346 140.39 836.485 141.011 836.734 150.16L837 159.95L832.555 162.135C827.703 164.52 813.693 165.575 808.856 163.92ZM258.87 162.651C258.619 161.946 258.523 132.795 258.656 97.8698L258.896 34.3699L283.968 34.429C307.47 34.4845 309.417 34.6288 315.075 36.7356C331.584 42.883 340.604 55.943 341.759 75.3699C342.937 95.2092 334.579 111.488 319.442 118.833C311.55 122.662 305.51 123.87 294.25 123.87C287.423 123.87 284.365 124.251 283.639 125.194C283 126.023 282.523 133.421 282.364 144.944L282.111 163.37L270.717 163.651C262.118 163.863 259.213 163.617 258.87 162.651ZM306.253 97.9798C313.107 94.5736 316.964 87.7455 316.891 79.152C316.773 65.3028 310.401 59.2561 294.776 58.166C282.004 57.2748 282.575 56.3314 282.575 78.3233C282.575 88.4339 282.828 97.4181 283.138 98.288C284.008 100.727 301.187 100.498 306.253 97.9798ZM444.251 162.506C443.493 161.522 443.267 147.782 443.441 113.256L443.682 65.3698L455.216 65.0875C463.819 64.877 466.942 65.131 467.505 66.0875C467.921 66.7927 468.267 69.7322 468.275 72.6197C468.289 77.7581 469.505 79.6205 470.544 76.0946C471.272 73.6237 477.364 67.0383 480.577 65.2493C482.045 64.4316 485.313 63.4991 487.839 63.1769L492.432 62.5911V76.6425V90.6939L488.485 91.4016C481.921 92.5788 477.7 94.8946 474.283 99.1937C468.97 105.877 468.289 110.131 468.289 136.617C468.289 150.824 467.912 160.76 467.328 161.935C466.464 163.673 465.297 163.87 455.834 163.87C448.071 163.87 445.026 163.511 444.251 162.506ZM54.5463 141.329C50.9148 136.959 48.6343 133.431 49.1235 132.939C51.6571 130.392 77.7975 110.872 78.6599 110.883C80.065 110.902 92.682 122.551 92.682 123.83C92.682 125.403 64.373 148.87 62.4753 148.87C61.5612 148.87 57.9931 145.476 54.5463 141.329ZM36.5334 121.417C31.3307 115.751 30.7099 114.694 31.8906 113.513C33.5831 111.819 116.68 54.0484 118.378 53.3847C119.708 52.8652 131.218 60.3706 131.218 61.757C131.218 62.7481 46.0313 126.992 43.9576 127.565C43.1342 127.793 40.0197 125.213 36.5334 121.417ZM91.9553 112.294C88.5246 109.227 85.7363 106.19 85.7589 105.544C85.78 104.898 88.8111 102.091 92.4911 99.3058C96.1711 96.5206 112.67 83.8081 129.156 71.0558C145.642 58.3035 159.809 47.8698 160.638 47.8698C162.857 47.8698 174.089 54.8633 173.73 56.0215C173.209 57.704 101.128 117.843 99.616 117.857C98.8333 117.865 95.386 115.361 91.9553 112.294ZM19.8001 103.289C15.7056 98.6265 15.1102 97.5002 16.1833 96.4469C17.1113 95.536 68.5843 62.7959 74.8104 59.1564C75.8385 58.5554 86.7511 67.0313 86.4018 68.1596C85.9504 69.6181 27.9 108.867 26.1917 108.868C25.372 108.869 22.4958 106.358 19.8001 103.289ZM144.256 103.662C140.489 100.751 137.261 97.8989 137.083 97.3234C136.83 96.5024 170.976 65.9403 178.722 60.0555C180.228 58.9114 181.413 59.2925 187.871 62.9981C191.951 65.3394 195.283 67.7308 195.276 68.3123C195.257 69.8002 154.616 108.306 152.688 108.662C151.818 108.823 148.024 106.573 144.256 103.662ZM5.95213 87.4696L1 82.0695L3.19816 80.5354C4.40713 79.6917 28.947 65.2761 57.7311 48.5007L110.066 18L115.07 20.6432C117.823 22.0969 120.075 23.7786 120.075 24.3803C120.075 25.2037 12.4735 92.8697 11.1642 92.8697C11.0214 92.8697 8.6758 90.4397 5.95213 87.4696ZM86.4141 60.2436C83.9882 58.2826 82.006 56.1587 82.009 55.5239C82.0118 54.8891 91.8211 48.1497 103.807 40.5475L125.599 26.7252L131.194 29.9368C134.271 31.7032 136.789 33.4895 136.789 33.9065C136.789 35.0919 94.0577 63.8734 92.3482 63.8394C91.5103 63.8242 88.84 62.2046 86.4141 60.2436ZM130.057 54.2626C127.12 52.3081 124.726 50.1826 124.736 49.5393C124.753 48.4495 139.595 37.7419 142.03 37.0629C143.149 36.7507 153.138 42.4247 153.946 43.8315C154.189 44.2555 153.667 45.2941 152.785 46.1395C149.769 49.0309 137.389 57.8698 136.392 57.843C135.844 57.8282 132.994 56.2171 130.057 54.2626Z" fill="#50ABF1"/>
</g>
<defs>
<clipPath id="clip0_15_5">
<rect width="219" height="219" fill="white"/>
</clipPath>
</defs>
</svg>
