<svg xmlns="http://www.w3.org/2000/svg" viewBox="0 0 32 32"><defs><radialGradient id="a" cx="22.327" cy="-938.347" r="15.003" gradientTransform="translate(-0.491 997.053) scale(1.031 1.053)" gradientUnits="userSpaceOnUse"><stop offset="0" stop-color="#fff"/><stop offset="1" stop-color="#ab710a"/></radialGradient></defs><title>file_type_ceylon</title><path d="M10.78,21.986a3.433,3.433,0,0,1-.62-.226A10.987,10.987,0,0,0,8.5,26h2.724A14.323,14.323,0,0,1,10.78,21.986Zm8.827-1.479a20.947,20.947,0,0,0-1.264,3.885c-.118.538.239,1.074.172,1.608h3.426c-.9-2.547-1.107-6.251-1.575-7.732C20.355,18.247,19.62,20.525,19.607,20.507Z" style="fill:#ab710a"/><path d="M29.359,11.748c-.779-1.131-2.557-2.081-2.971-3.372a1.954,1.954,0,0,1,.079-1.326c.2-.316-.119-.226-.119-.226-.443.174-.634-.323-.634-.323-.066-.174.025-.706-.356-.416-.687.527-.461,1.809-.332,2.325a5.4,5.4,0,0,0,1.306,2.338c.222.21,1.617,1.778,1.426,2.58a.641.641,0,0,1-.476.593c-1.016.208-1.346-1.065-1.346-1.065-.762-3.322-1.993-4.485-1.993-4.485A23.639,23.639,0,0,0,18,8.9,34.6,34.6,0,0,0,4.657,11C2.983,13.455,2,18.012,2,18.012s0,.023.016.025a.058.058,0,0,0,.057-.029,14.223,14.223,0,0,1,2.119-2.185A30.133,30.133,0,0,0,5.437,26H8.094a11.932,11.932,0,0,1,1.942-4.8c.988.765,3.22.538,3.22.538.394,1.525,1.2,4.257,1.2,4.257h3.2A21.01,21.01,0,0,1,19.4,19.973a13.057,13.057,0,0,0,.812-2.388,1.361,1.361,0,0,1,1.424-1.246c.483,0,2.68,1.253,4.321,1.169,2.858-.147,3.985-1.5,4.041-3.037A4.691,4.691,0,0,0,29.359,11.748Zm-9.187,3.263a.553.553,0,0,1-.06.122.327.327,0,0,1-.113.106.307.307,0,0,1-.162.037.493.493,0,0,1-.146-.034,1.4,1.4,0,0,1-.416-.3c-.06-.056-.115-.115-.169-.172l-.155-.165a.97.97,0,0,0-.327-.187A4.185,4.185,0,0,0,18.2,14.3c-.148-.036-.3-.074-.458-.128a1.142,1.142,0,0,1-.129-.053l-.064-.024a.563.563,0,0,1-.084-.061.547.547,0,0,1-.124-.159.672.672,0,0,1-.062-.167,1.112,1.112,0,0,1-.022-.3,1.925,1.925,0,0,1,.028-.262,4,4,0,0,1,.122-.482q.073-.225.162-.452c.029-.075.057-.147.091-.226a2.283,2.283,0,0,1,.115-.226,2.529,2.529,0,0,1,.646-.731,2.973,2.973,0,0,1,.4-.258,2.3,2.3,0,0,1,.443-.181,4.134,4.134,0,0,0-.682.613,2.8,2.8,0,0,0-.485.731,1.8,1.8,0,0,0-.075.2l-.069.226c-.044.147-.088.294-.124.441a4.25,4.25,0,0,0-.091.432,2.012,2.012,0,0,0-.02.2.682.682,0,0,0,.014.169.144.144,0,0,0,.035.077h0l.031.018.087.037c.128.049.276.088.425.135a3.941,3.941,0,0,1,.454.17,1.23,1.23,0,0,1,.443.316c.055.071.1.132.141.2l.135.183a2.111,2.111,0,0,0,.14.168.879.879,0,0,0,.148.131.174.174,0,0,0,.135.038.25.25,0,0,0,.131-.115,1.094,1.094,0,0,0,.1-.2c.029-.073.051-.147.076-.227A1.4,1.4,0,0,1,20.172,15.011ZM23,12.994a.485.485,0,0,1-.613.315.5.5,0,0,1-.308-.626.48.48,0,0,1,.726-.259A.438.438,0,0,1,23,12.994Z" style="fill:#e3a835"/><path d="M29.359,11.748c-.779-1.131-2.557-2.081-2.971-3.372a1.954,1.954,0,0,1,.079-1.326c.2-.316-.119-.226-.119-.226-.443.174-.634-.323-.634-.323-.066-.174.025-.706-.356-.416-.687.527-.461,1.809-.332,2.325a5.4,5.4,0,0,0,1.306,2.338c.222.21,1.617,1.778,1.426,2.58a.641.641,0,0,1-.476.593c-1.016.208-1.346-1.065-1.346-1.065-.762-3.322-1.993-4.485-1.993-4.485A23.639,23.639,0,0,0,18,8.9,34.6,34.6,0,0,0,4.657,11C2.983,13.455,2,18.012,2,18.012s0,.023.016.025a.058.058,0,0,0,.057-.029,14.223,14.223,0,0,1,2.119-2.185A30.133,30.133,0,0,0,5.437,26H8.094a11.932,11.932,0,0,1,1.942-4.8c.988.765,3.22.538,3.22.538.394,1.525,1.2,4.257,1.2,4.257h3.2A21.01,21.01,0,0,1,19.4,19.973a13.057,13.057,0,0,0,.812-2.388,1.361,1.361,0,0,1,1.424-1.246c.483,0,2.68,1.253,4.321,1.169,2.858-.147,3.985-1.5,4.041-3.037A4.691,4.691,0,0,0,29.359,11.748Zm-9.187,3.263a.553.553,0,0,1-.06.122.327.327,0,0,1-.113.106.307.307,0,0,1-.162.037.493.493,0,0,1-.146-.034,1.4,1.4,0,0,1-.416-.3c-.06-.056-.115-.115-.169-.172l-.155-.165a.97.97,0,0,0-.327-.187A4.185,4.185,0,0,0,18.2,14.3c-.148-.036-.3-.074-.458-.128a1.142,1.142,0,0,1-.129-.053l-.064-.024a.563.563,0,0,1-.084-.061.547.547,0,0,1-.124-.159.672.672,0,0,1-.062-.167,1.112,1.112,0,0,1-.022-.3,1.925,1.925,0,0,1,.028-.262,4,4,0,0,1,.122-.482q.073-.225.162-.452c.029-.075.057-.147.091-.226a2.283,2.283,0,0,1,.115-.226,2.529,2.529,0,0,1,.646-.731,2.973,2.973,0,0,1,.4-.258,2.3,2.3,0,0,1,.443-.181,4.134,4.134,0,0,0-.682.613,2.8,2.8,0,0,0-.485.731,1.8,1.8,0,0,0-.075.2l-.069.226c-.044.147-.088.294-.124.441a4.25,4.25,0,0,0-.091.432,2.012,2.012,0,0,0-.02.2.682.682,0,0,0,.014.169.144.144,0,0,0,.035.077h0l.031.018.087.037c.128.049.276.088.425.135a3.941,3.941,0,0,1,.454.17,1.23,1.23,0,0,1,.443.316c.055.071.1.132.141.2l.135.183a2.111,2.111,0,0,0,.14.168.879.879,0,0,0,.148.131.174.174,0,0,0,.135.038.25.25,0,0,0,.131-.115,1.094,1.094,0,0,0,.1-.2c.029-.073.051-.147.076-.227A1.4,1.4,0,0,1,20.172,15.011ZM23,12.994a.485.485,0,0,1-.613.315.5.5,0,0,1-.308-.626.48.48,0,0,1,.726-.259A.438.438,0,0,1,23,12.994Z" style="opacity:0.44999998807907104;isolation:isolate;fill:url(#a)"/></svg>
