<svg xmlns="http://www.w3.org/2000/svg" viewBox="0 0 32 32"><title>file_type_graphql</title><g id="graphql"><rect x="-0.43" y="12.53" width="22.9" height="1.19" transform="translate(-5.86 16.11) rotate(-60)" style="fill:#e10098"/><rect x="4.55" y="21.16" width="22.9" height="1.19" style="fill:#e10098"/><rect x="10.43" y="18.01" width="1.19" height="13.23" transform="translate(-15.81 21.86) rotate(-60)" style="fill:#e10098"/><rect x="20.38" y="0.77" width="1.19" height="13.23" transform="translate(4.09 21.86) rotate(-60)" style="fill:#e10098"/><rect x="4.41" y="6.79" width="13.23" height="1.19" transform="translate(-2.21 6.5) rotate(-30)" style="fill:#e10098"/><rect x="20.39" y="1.68" width="1.19" height="22.9" transform="translate(-3.75 12.25) rotate(-30)" style="fill:#e10098"/><rect x="5.45" y="9.39" width="1.19" height="13.23" style="fill:#e10098"/><rect x="25.36" y="9.39" width="1.19" height="13.23" style="fill:#e10098"/><rect x="15.22" y="24.1" width="11.5" height="1.04" transform="translate(-9.5 13.79) rotate(-30)" style="fill:#e10098"/><path d="M28.12,23a2.5,2.5,0,1,1-.92-3.41A2.5,2.5,0,0,1,28.12,23" style="fill:#e10098"/><path d="M8.2,11.5a2.5,2.5,0,1,1-.92-3.41A2.5,2.5,0,0,1,8.2,11.5" style="fill:#e10098"/><path d="M3.88,23a2.5,2.5,0,1,1,3.41.92A2.5,2.5,0,0,1,3.88,23" style="fill:#e10098"/><path d="M23.8,11.5a2.5,2.5,0,1,1,3.41.92,2.5,2.5,0,0,1-3.41-.92" style="fill:#e10098"/><path d="M16,30a2.5,2.5,0,1,1,2.5-2.5A2.49,2.49,0,0,1,16,30" style="fill:#e10098"/><path d="M16,7a2.5,2.5,0,1,1,2.5-2.5A2.49,2.49,0,0,1,16,7" style="fill:#e10098"/></g></svg>