<svg version="1.1" viewBox="0 0 32 32" xmlns="http://www.w3.org/2000/svg"><mask id="b" x="2" y="8" width="21" height="21" style="mask-type:luminance" maskUnits="userSpaceOnUse"><path d="m2.25 8.25h20v20h-20z" fill="#fff"/></mask><g transform="matrix(1.0378 0 0 1.0378 -.54537 -.7195)"><path d="m4.438 27.334 15.532 0.036c1.571 0.047 1.991 0.094 3.274-0.578 0.419-0.43 6.054-15.292 6.054-20.072-9e-3 -1.149-0.298-1.82-1.298-1.82-6.833 0.533-18 0.184-23.381 2.98-0.76 0.399-2.076 1.826-2.06 2.784l-0.038 14.922c0.558 1.299 0.877 1.405 1.91 1.745z" fill="#fff"/><path d="m25.379 6.545c-4.477 1.983-2.437 1.708-12.78 1.726-10.343 0.02-9.535 0.29-5.06-1.693 4.479-1.983 2.439-1.708 12.781-1.728 10.344-0.018 9.537-0.288 5.06 1.695" fill="#f6901e"/><path d="m29.32 14.749c0.038 10.874 0.59 9.134-3.465 10.9-4.056 1.764-3.493 3.018-3.531-7.855s-0.591-9.134 3.465-10.9c4.056-1.765 3.493-3.02 3.53 7.855" fill="url(#a)"/><g mask="url(#b)"><path d="m2.57 14.052c0 0.511 0.024 1.033-0.01 1.543-0.026 1.116-7e-3 2.238-7e-3 3.355v1.381c0 0.27-8e-3 0.542 8e-3 0.81a0.4 0.4 0 0 0 0.048 0.203c8e-3 0.106-0.04 0.301-0.04 0.434q-2e-3 0.546 5e-3 1.092c5e-3 0.284 0.02 1.847 7e-3 2.13l19.242 0.656v-14.458c0.019-0.723-0.155-1.357-0.664-1.889-0.496-0.519-1.145-0.738-1.851-0.751-1.11-0.021-2.221-2e-3 -3.331-2e-3h-10.472c-0.286-1e-3 -0.572-6e-3 -0.856 0.039a2.47 2.47 0 0 0-1.337 0.655c-0.48 0.46-0.72 1.117-0.73 1.772-6e-3 0.43 2e-3 0.86 0 1.29z" fill="url(#c)"/><path d="m3.628 15.213c-0.166 0.132-0.847 0.347-1.078 0.4l-0.01 8.114 0.04 1.773 19.25 0.217v-0.462c-0.23 0.03-0.496 0.074-0.728 0.08-0.91 0.027-1.718-0.308-2.6-0.433a6 6 0 0 0-0.94-0.076c-0.374 3e-3 -0.754 0.046-1.13 0.061-0.518 0.021-1.035 3e-3 -1.553 0.041-0.59 0.042-1.17 0.175-1.737 0.33-0.061-0.197-0.15-0.382-0.223-0.574a6 6 0 0 1-0.246-0.832 4 4 0 0 1-0.082-0.516c-0.011-0.136 7e-3 -0.296-0.031-0.427s-0.148-0.248-0.223-0.361a2 2 0 0 1-0.181-0.335c-0.137-0.318-0.15-0.58-0.208-0.911-0.037-0.212-0.088-0.421-0.103-0.637-0.011-0.156 0-0.313-6e-3 -0.469-8e-3 -0.164-0.031-0.325-0.014-0.49 1.04-0.013 2.12 0.127 3.106-0.293 0.405-0.172 0.852-0.413 1.153-0.741 0.157-0.17 0.287-0.364 0.455-0.524 0.16-0.156 0.377-0.277 0.505-0.464 0.116-0.17 0.162-0.373 0.24-0.563a0.73 0.73 0 0 1 0.22-0.31 1.4 1.4 0 0 1 0.282-0.16c0.167-0.076 0.343-0.129 0.516-0.19 0.22-0.079 0.448-0.197 0.684-0.209 0.19-9e-3 0.42 0.149 0.598 0.075 0.02-0.071-0.025-0.156-0.013-0.225 0.019-0.113 0.099-0.083 0.065-0.271-0.048-0.268-0.162-0.524-0.392-0.682-0.445-0.306-1.14-0.301-1.66-0.383-0.468-0.074-0.93-0.241-1.41-0.138-0.183 0.04-0.278 0.338-0.36 0.475-0.067 0.113-0.15 0.222-0.201 0.342-0.056 0.13-0.077 0.279-0.12 0.414a3.4 3.4 0 0 1-0.394 0.836c-0.154 0.232-0.43 0.627-0.654 0.784a0.8 0.8 0 0 1-0.301 0.123 1.4 1.4 0 0 1-0.637-0.044c-0.751-0.206-1.136-0.687-1.695-1.174-0.158-0.137-0.317-0.277-0.482-0.407-0.144-0.112-0.296-0.214-0.43-0.337-0.203-0.185-0.368-0.408-0.568-0.595-0.188-0.177-0.426-0.286-0.606-0.47-0.293-0.301-0.433-0.687-0.797-0.931-0.193-0.129-0.728-0.368-0.964-0.316a0.7 0.7 0 0 0-0.21 0.1c-0.322 0.207-0.297 0.482-0.478 0.769a0.46 0.46 0 0 1-0.305 0.211c-0.374 0.084-0.943-0.034-1.276-0.213-0.151-0.081-0.284-0.197-0.43-0.287-0.114-0.072-0.253-0.134-0.391-0.114-0.342 0.049-0.73 0.666-0.902 0.942-0.1 0.157-0.196 0.359-0.345 0.477" fill="#fff"/><path d="m6.837 24.486c0.034-0.1 0.08-0.197 0.12-0.296 0.094-0.231 0.179-0.466 0.317-0.676 0.11-0.167 0.255-0.311 0.346-0.49 0.117-0.226 0.147-0.497 0.25-0.732 0.132-0.296 0.33-0.558 0.499-0.833 0.278-0.454 0.49-1.066 1-1.316 0.114-0.056 0.248-0.1 0.372-0.058 0.112 0.04 0.22 0.124 0.315 0.195 0.4 0.3 0.778 0.687 0.986 1.147q0.271 0.62 0.44 1.273c0.054 0.198 0.08 0.42 0.157 0.609 0.08 0.195 0.255 0.34 0.358 0.522 0.144 0.257 0.244 0.526 0.354 0.798 0.083 0.206 0.174 0.413 0.247 0.623-0.18-0.063-0.394-0.081-0.572-0.16-0.44-0.196-0.81-0.537-1.214-0.792a3.2 3.2 0 0 0-0.912-0.388c-0.87-0.225-1.243-0.01-2.02 0.289-0.325 0.123-0.705 0.206-1.043 0.285" fill="url(#d)"/><path d="m2.608 21.344q0.098-0.143 0.202-0.283c0.238-0.322 0.438-0.53 0.638-0.889 0.121-0.218 0.137-0.532 0.276-0.72a0.5 0.5 0 0 1 0.317-0.187 0.4 0.4 0 0 1 0.313 0.084c0.15 0.11 0.272 0.257 0.433 0.354 0.11 0.067 0.245 0.111 0.365 0.155 0.638 0.228 1.3 0.381 1.973 0.457 0.266 0.03 0.536 0.028 0.8 0.065a1.6 1.6 0 0 0-0.383 0.453c-0.227 0.415-0.3 0.891-0.496 1.319-0.117 0.255-0.409 0.472-0.426 0.76-0.01 0.188 0.031 0.375 7e-3 0.564-0.045 0.352-0.262 0.73-0.35 1.068-0.086 0.03-0.216 0.042-0.307 0.043-0.96 5e-3 -1.79-0.452-2.692-0.713-0.223-0.064-0.464-0.14-0.697-0.15 0.014-0.283-2e-3 -0.57-7e-3 -0.854a79 79 0 0 1-5e-3 -1.092c0-0.133 0.047-0.328 0.04-0.434" fill="url(#e)"/></g></g><defs><linearGradient id="a" x1="45.323" x2="52.781" y1="-8.306" y2="-8.026" gradientUnits="userSpaceOnUse"><stop stop-color="#F6901E" offset="0"/><stop stop-color="#F47B1F" offset="1"/></linearGradient><linearGradient id="c" x1="12.209" x2="12.193" y1="25.319" y2="8.588" gradientUnits="userSpaceOnUse"><stop stop-color="#F27022" offset="0"/><stop stop-color="#F7921E" offset="1"/></linearGradient><linearGradient id="d" x1="9.701" x2="9.718" y1="25.193" y2="20.083" gradientUnits="userSpaceOnUse"><stop stop-color="#F37022" offset="0"/><stop stop-color="#F7911E" offset="1"/></linearGradient><linearGradient id="e" x1="5.207" x2="5.227" y1="24.558" y2="19.278" gradientUnits="userSpaceOnUse"><stop stop-color="#F27021" offset="0"/><stop stop-color="#F7911E" offset="1"/></linearGradient></defs></svg>
