<svg viewBox="0 0 32 32" xmlns="http://www.w3.org/2000/svg"><g fill="#00f"><path d="m9.525 21.947h-1.965v-4.847h-3.602v4.847h-1.958v-11.903h1.958v4.748h3.602v-4.748h1.965z"/><path d="m16.692 21.947h-5.179v-11.903h1.959v9.729h3.22z"/><path d="m17.462 21.491v-2.657a3.676 3.676 0 0 0 1.146.909 2.809 2.809 0 0 0 1.249.3 2.05 2.05 0 0 0 .646-.092 1.309 1.309 0 0 0 .461-.252 1.029 1.029 0 0 0 .276-.382 1.231 1.231 0 0 0 .091-.478 1.3 1.3 0 0 0 -.145-.623 1.907 1.907 0 0 0 -.4-.506 4.077 4.077 0 0 0 -.6-.448q-.346-.215-.746-.439a4.045 4.045 0 0 1 -1.519-1.419 3.884 3.884 0 0 1 -.5-2.026 4.232 4.232 0 0 1 .273-1.6 3.02 3.02 0 0 1 .744-1.1 2.938 2.938 0 0 1 1.088-.634 4.167 4.167 0 0 1 1.31-.2 5.816 5.816 0 0 1 1.2.111 3.8 3.8 0 0 1 .967.345v2.482a2.859 2.859 0 0 0 -.476-.365 3.212 3.212 0 0 0 -.53-.262 3.1 3.1 0 0 0 -.537-.155 2.794 2.794 0 0 0 -.512-.05 1.994 1.994 0 0 0 -.606.087 1.347 1.347 0 0 0 -.461.245 1.092 1.092 0 0 0 -.291.377 1.144 1.144 0 0 0 -.1.494 1.2 1.2 0 0 0 .115.536 1.657 1.657 0 0 0 .328.448 3.461 3.461 0 0 0 .515.415c.2.136.43.275.686.419a7.094 7.094 0 0 1 .936.635 3.712 3.712 0 0 1 .713.759 3.269 3.269 0 0 1 .455.967 4.573 4.573 0 0 1 .158 1.266 4.439 4.439 0 0 1 -.277 1.672 2.888 2.888 0 0 1 -.749 1.1 2.823 2.823 0 0 1 -1.1.6 4.742 4.742 0 0 1 -1.325.182 5.476 5.476 0 0 1 -1.361-.166 3.41 3.41 0 0 1 -1.122-.495z"/><path d="m30 21.947h-5.178v-11.903h1.958v9.729h3.22z"/></g></svg>