<svg xmlns="http://www.w3.org/2000/svg" viewBox="0 0 150 150" width="32" height="32"><path d="M69.8 41.2C67.4 43.2 49 76.3 49 78.7c0 4.5 5.6 6.9 9.2 4C61.3 80.4 79 48.2 79 45c0-4.4-5.5-6.7-9.2-3.8zm61.9 0c-2.6 2.1-20.7 34.4-20.7 37.2 0 3.2 4 6.1 7.4 5.2 1.9-.5 4.7-4.6 12.6-18.3 8.3-14.7 10-18.3 9.5-20.8-.8-4.4-5.1-6-8.8-3.3zm-103 25.6c-1 1-1.7 2.1-1.7 2.5 0 .3-3.8 7.2-8.5 15.2S9.7 100.4 9.3 102c-.7 3.8 1.9 7 5.7 7 3.1 0 3.7-.6 7.2-7 1.4-2.5 5.8-10 9.7-16.7 7-12.1 8.4-16.6 5.9-19.1-1.8-1.8-7.3-1.4-9.1.6zm62.1-.1c-.8 1-4.2 6.5-7.4 12.2-3.2 5.8-7.3 13-9.1 16-3.4 5.9-4 9-2.3 12.2 1.3 2.3 6.2 2.6 8.3.4C83 104.8 101 72.4 101 70.3c0-4.8-7-7.2-10.2-3.6z" fill="#C5F74F"/></svg>