<svg version="1.1" viewBox="0 0 32 32" xmlns="http://www.w3.org/2000/svg"><title>file_type_pdm</title><path d="m22.224 8.037 4.1391 2.1528c0.25008 0.13005 0.40413 0.37049 0.40413 0.63059v10.359c0 0.26017-0.15406 0.50054-0.40413 0.63066l-2.5138 1.3075-0.3596-0.18706-1.2657-0.65833zm-15.272 9.6553 13.664 7.1069-4.2117 2.1906c-0.25008 0.13005-0.55819 0.13005-0.80827 0l-9.9587-5.1796c-0.25009-0.13012-0.40414-0.37049-0.40414-0.63066v-2.5932l0.0978-0.05083zm3.233-1.6816 8.8055-4.58v9.16zm8.8055-7.9432-13.758 7.1556v-4.4027c0-0.2601 0.15406-0.50054 0.40414-0.63059l9.9587-5.1796c0.25008-0.13007 0.55819-0.13007 0.80827 0l2.5865 1.3453v0.68818zm-5.0112-5.5797c1.2503-0.65034 2.7909-0.65034 4.0412 7e-7l9.9587 5.1796c1.2505 0.65036 2.0208 1.8523 2.0208 3.153v10.359c0 1.3008-0.77028 2.5027-2.0208 3.1531l-9.9587 5.1796c-1.2503 0.65039-2.7909 0.65039-4.0412 0l-9.9587-5.1796c-1.2504-0.65039-2.0207-1.8523-2.0207-3.1531l6e-7 -10.359c0-1.3007 0.77029-2.5027 2.0207-3.153z" clip-rule="evenodd" fill="#ac75d7" fill-rule="evenodd" stroke-width=".076717"/></svg>
