<svg xmlns="http://www.w3.org/2000/svg" viewBox="0 0 32 32"><title>file_type_ttcn</title><path d="M 12,1 c -0.718127,0 -0.815724,0.016719 -0.376953,0.066406 0.713991,0.080437 1.617473,0.2428437 2.388672,0.4296876 3.154813,0.7643447 5.770495,2.153279 7.714843,4.0976562 2.071523,2.0715021 3.327962,4.704943 3.785157,7.929688 0.135352,0.95475 0.173545,1.560497 0.173828,2.808593 2.8e-4,0.863157 -0.008,1.11653 -0.03906,1.398438 -0.11897,1.081313 -0.302348,2.000342 -0.59375,2.964843 -0.467224,1.546314 -1.197312,3.002669 -2.128906,4.248047 -1.370936,1.832719 -3.19701,3.274249 -5.429687,4.285157 -1.8386,0.832501 -4.031763,1.401375 -6.38086,1.652343 -0.192179,0.02062 -0.348503,0.04102 -0.345703,0.04102 0.02025,0.01781 0.702391,0.06104 1.146484,0.07227 v -0.002 c 5.658524,0.142313 10.343276,-1.889823 13.201172,-5.728516 0.483583,-0.649593 1.021284,-1.525248 1.335938,-2.175781 0.646621,-1.337064 1.176958,-3.187608 1.396484,-4.873047 C 28.387267,14.07201 27.423763,10.102597 25.013672,6.5507812 24.722315,6.1213121 24.49366,5.8453286 24.09375,5.4355469 22.651537,3.9578576 20.682451,2.7584071 18.439453,1.9921875 16.514717,1.3346242 14.342206,0.9999063 12,1 Z m 6.765625,11.566406 -0.002,0.002 c 0.03642,0.02583 0.07512,0.05271 0.107422,0.07617 -0.04373,-0.03023 -0.06997,-0.05442 -0.105469,-0.07813 z m 0.203125,0.1875 c 0.0058,0.0051 0.01499,0.01164 0.01953,0.01563 v -0.002 c -0.0066,-0.0044 -0.01301,-0.009 -0.01953,-0.01367 z m 0.207031,3.457032 -0.002,0.002 c -5.48e-4,0.0065 -0.0014,0.01305 -0.002,0.01953 l 0.002,-0.002 c 8.23e-4,-0.0064 0.0011,-0.01308 0.002,-0.01953 z m -1.542969,3.919921 c -0.0031,0.0056 -0.0046,0.012 -0.0078,0.01758 -0.0018,0.0059 -0.004,0.01169 -0.0059,0.01758 0.0047,-0.0086 0.0043,-0.01159 0.0078,-0.01758 0.0018,-0.0059 0.004,-0.01165 0.0059,-0.01758 z m -6.296874,1.111329 c -0.01019,0.0079 -0.01302,0.01181 -0.02539,0.02148 -0.0061,0.0062 -0.01338,0.01134 -0.01953,0.01758 l 0.02734,-0.01953 c 0.0058,-0.0064 0.0079,-0.0096 0.01758,-0.01953 z" style="fill:#00adee;fill-opacity:1;stroke-width:0.02151812" /><path d="M 4.6478136,23.740385 C 4.4864345,23.689946 4.2511572,23.49778 4.1496065,23.333468 4.0467676,23.167071 3.9951273,22.927074 3.995317,22.616412 c 3.214e-4,-0.526381 0.1331646,-0.92051 0.440075,-1.305645 0.2739049,-0.343718 0.569143,-0.557633 0.9737542,-0.705536 l 0.2258823,-0.08257 3.765625,-0.01563 3.7656245,-0.01563 0.188008,-0.09832 c 0.471542,-0.246608 0.711943,-0.70962 0.798712,-1.538317 0.06756,-0.645182 -0.08991,-1.000248 -0.533595,-1.203191 -0.136445,-0.06241 -0.207632,-0.06491 -2.395197,-0.08394 l -2.2545722,-0.01962 -0.1395794,-0.0818 C 8.6504488,17.360968 8.5058028,17.19487 8.4042028,16.977213 8.3328113,16.824271 8.3220538,16.756185 8.312635,16.397662 8.2997488,15.907148 8.3501082,15.62962 8.5111378,15.30372 8.6403819,15.042151 8.8844044,14.77858 9.1120325,14.65469 9.4471447,14.472299 9.4329135,14.473325 11.948236,14.450189 l 2.313207,-0.02128 0.205294,-0.101091 c 0.397777,-0.195873 0.666748,-0.565866 0.812498,-1.117659 0.0889,-0.336577 0.09664,-0.928188 0.01512,-1.15625 C 15.164987,11.69198 14.936851,11.451188 14.592919,11.31356 L 14.416277,11.24287 10.947527,11.22651 7.4787775,11.21015 7.3326628,11.14262 C 6.8958007,10.940735 6.6506535,10.475357 6.6506535,9.8479311 c 0,-0.6668424 0.2742295,-1.2813857 0.6771694,-1.5175242 l 0.1355221,-0.079421 5.226467,-0.00479 c 4.10246,-0.00376 5.25406,0.00361 5.354774,0.034267 0.191095,0.058165 0.392192,0.2276337 0.495827,0.4178441 0.129919,0.2384512 0.144285,0.5771561 0.04509,1.0631015 -0.140864,0.6900985 -0.0799,1.0469205 0.225822,1.3217945 0.228408,0.205358 0.352741,0.236687 1.0737,0.270546 1.243336,0.05839 1.402211,0.09296 1.56624,0.34083 0.159855,0.241557 0.176049,0.130728 -0.488583,3.343705 -0.729347,3.525825 -0.931124,4.452234 -1.049203,4.817166 -0.05861,0.181146 -0.317963,0.435849 -0.551809,0.541922 -0.209705,0.09512 -0.56116,0.140988 -1.05477,0.137647 -0.543307,-0.0037 -0.809396,0.07512 -1.174943,0.347963 -0.210757,0.157305 -0.360656,0.39058 -0.55882,0.86964 -0.211906,0.512281 -0.298414,0.682393 -0.509184,1.001277 -0.295351,0.44685 -0.721723,0.819161 -1.108006,0.967518 -0.121401,0.04663 -0.585292,0.05181 -5.1490465,0.05752 -4.2822365,0.0054 -5.0366026,-2.82e-4 -5.1590899,-0.03856 z" style="fill:#949494;fill-opacity:1;stroke-width:0.03125" /></svg>