<svg viewBox="0 0 32 32" xmlns="http://www.w3.org/2000/svg"><path d="m29.821 4.321-5.798-2.321-12.53 12.212-7.66-5.827-1.654.837v13.578l1.644.827 7.65-5.827 12.55 12.2 5.8-2.321v-23.358zm-25.171 14.871v-6.374l3.55 3.167zm11.35-3.207 7.082-5.3v10.639l-7.092-5.339z" fill="#68217a"/><path d="m15.995 15.985 7.082-5.299v10.638l-7.092-5.339z" fill="#fff"/><path d="m4.65 19.192v-6.374l3.546 3.167z" fill="#fff"/><path d="m30.089 28.175-8.744-.001v-1.915l-1.915-.002v-8.741l1.914.001-.002-1.913h8.745v1.915h1.914l-.002 3.827h.001v4.915h-1.912z" fill="#efeef0"/><path d="m15.527 32a7.159 7.159 0 0 1 -5.527-2.242 8.1 8.1 0 0 1 -2-5.683 8.56 8.56 0 0 1 2.213-6.063 7.608 7.608 0 0 1 5.787-2.412 9.836 9.836 0 0 1 3.558.581l.956.372v6.56l-2.3-1.458a3.6 3.6 0 0 0 -1.989-.544 2.117 2.117 0 0 0 -1.672.662 2.957 2.957 0 0 0 -.658 2.091 2.877 2.877 0 0 0 .615 2 1.9 1.9 0 0 0 1.562.614 3.968 3.968 0 0 0 2.153-.6l2.292-1.426v6.28l-.815.419a9.144 9.144 0 0 1 -4.175.849z" fill="#efeef0"/><g fill="#368832"><path d="m22.844 17.1h1.915v1.915h1.914v-1.915h1.914v1.915h1.913v1.914h-1.913v1.913h1.913v1.918h-1.913v1.914h-1.914v-1.912h-1.912v1.914h-1.916v-1.915h-1.915v-1.917h1.915v-1.909h-1.915v-1.918h1.915zm1.915 5.744h1.914v-1.912h-1.914z"/><path d="m19.017 29.81a7.65 7.65 0 0 1 -3.49.686 5.7 5.7 0 0 1 -4.417-1.752 6.629 6.629 0 0 1 -1.61-4.668 7.077 7.077 0 0 1 1.809-5.039 6.136 6.136 0 0 1 4.691-1.937 8.329 8.329 0 0 1 3.013.479v2.809a5.108 5.108 0 0 0 -2.792-.777 3.6 3.6 0 0 0 -2.775 1.147 4.409 4.409 0 0 0 -1.055 3.107 4.331 4.331 0 0 0 1 2.994 3.413 3.413 0 0 0 2.681 1.115 5.466 5.466 0 0 0 2.945-.831z"/></g></svg>