<svg xmlns="http://www.w3.org/2000/svg" viewBox="0 0 32 32"><title>file_type_c3</title><path fill="#7c3aed" d="M29.94 18.03a3.74 3.74 0 0 0-1.63-1.93 4.19 4.19 0 0 0-1.26-.51v-.07c.77-.2 1.46-.63 1.96-1.24.51-.61.77-1.37.77-2.27 0-.77-.17-1.44-.5-2.01A4.46 4.46 0 0 0 28 8.57a5.64 5.64 0 0 0-1.82-.84 8.06 8.06 0 0 0-4.06-.01c-.63.17-1.22.43-1.77.77a5.24 5.24 0 0 0-2.3 3.06l3.57.82a2.21 2.21 0 0 1 2.22-1.8c.5 0 1 .16 1.42.46.4.3.61.75.61 1.33 0 .4-.08.72-.24.96-.16.24-.38.45-.64.58a2.8 2.8 0 0 1-.9.3c-.35.06-.7.08-1.05.08H21.9v2.78h1.03c.4 0 .8.03 1.2.1.36.06.72.17 1.06.34.3.15.56.37.75.65.2.3.3.66.29 1.02.01.33-.06.66-.22.96-.13.24-.32.45-.55.62a2.3 2.3 0 0 1-.75.35 3.2 3.2 0 0 1-.84.12 2.7 2.7 0 0 1-1.8-.6 2.85 2.85 0 0 1-.94-1.4l-3.57.93a5.37 5.37 0 0 0 2.46 3.26c.59.35 1.23.6 1.9.76.7.17 1.42.25 2.14.25.74 0 1.49-.1 2.2-.3.7-.2 1.37-.51 1.96-.93a4.62 4.62 0 0 0 1.72-5.15z"/><path fill="#2563eb" d="m16.82 21.76-2.72-2.54c-.37.5-.84.9-1.4 1.18-.58.3-1.25.45-2.03.45-.64.01-1.27-.11-1.86-.36a4.27 4.27 0 0 1-2.4-2.57 5.62 5.62 0 0 1-.34-2c-.01-.67.1-1.34.34-1.97a4.43 4.43 0 0 1 4.33-2.97c.62 0 1.25.13 1.83.37.57.23 1.07.61 1.44 1.11l2.65-2.64a6.47 6.47 0 0 0-2.69-1.76c-2.2-.8-4.62-.8-6.83-.01a7.79 7.79 0 0 0-4.66 4.37 8.78 8.78 0 0 0-.67 3.5 8.78 8.78 0 0 0 .66 3.46 7.95 7.95 0 0 0 4.6 4.43c1.1.42 2.28.63 3.46.61 1.37 0 2.59-.24 3.64-.71a7.71 7.71 0 0 0 2.65-1.95z"/></svg>
