<svg xmlns="http://www.w3.org/2000/svg" viewBox="0 0 32 32"><title>file_type_cssmap</title><path d="M16,30A14,14,0,1,1,30,16,14.016,14.016,0,0,1,16,30ZM16,3.176A12.824,12.824,0,1,0,28.824,16,12.84,12.84,0,0,0,16,3.176Z" style="fill:#33a9dc"/><rect x="2.784" y="15.412" width="26.432" height="1.176" style="fill:#33a9dc"/><path d="M16.317,10.474A44.779,44.779,0,0,1,4.42,8.92l.34-1.126c.111.034,11.277,3.32,22.427,0l.335,1.127A39.374,39.374,0,0,1,16.317,10.474Z" style="fill:#33a9dc"/><path d="M4.785,23.907,4.45,22.781c11.5-3.422,22.634-.14,23.1,0l-.34,1.126C27.1,23.873,15.936,20.588,4.785,23.907Z" style="fill:#33a9dc"/><path d="M11.468,28.764a35.454,35.454,0,0,1-.742-25.71l1.082.461A34.228,34.228,0,0,0,12.55,28.3Z" style="fill:#33a9dc"/><path d="M20.441,28.764,19.36,28.3A34.229,34.229,0,0,0,20.1,3.515l1.082-.461A35.461,35.461,0,0,1,20.441,28.764Z" style="fill:#33a9dc"/><rect x="15.412" y="2.783" width="1.175" height="26.919" style="fill:#33a9dc"/><polygon points="14.127 28.901 12.442 10 30.958 10 29.272 28.898 21.689 31 14.127 28.901" style="fill:#1572b6"/><polygon points="21.7 29.393 27.827 27.694 29.269 11.545 21.7 11.545 21.7 29.393" style="fill:#33a9dc"/><polygon points="21.7 18.393 24.768 18.393 24.979 16.019 21.7 16.019 21.7 13.701 21.708 13.701 27.513 13.701 27.457 14.323 26.887 20.711 21.7 20.711 21.7 18.393" style="fill:#fff"/><polygon points="21.714 24.413 21.704 24.416 19.122 23.719 18.957 21.87 17.703 21.87 16.63 21.87 16.955 25.51 21.703 26.828 21.714 26.825 21.714 24.413" style="fill:#ebebeb"/><polygon points="24.57 20.613 24.291 23.718 21.706 24.415 21.706 26.827 26.458 25.51 26.493 25.118 26.896 20.613 24.57 20.613" style="fill:#fff"/><polygon points="21.708 13.701 21.708 15.141 21.708 16.014 21.708 16.019 16.116 16.019 16.116 16.019 16.109 16.019 16.062 15.498 15.957 14.323 15.901 13.701 21.708 13.701" style="fill:#ebebeb"/><polygon points="21.7 18.393 21.7 19.833 21.7 20.706 21.7 20.712 19.158 20.712 19.158 20.712 19.151 20.712 19.105 20.191 18.999 19.015 18.944 18.393 21.7 18.393" style="fill:#ebebeb"/></svg>