<svg xmlns="http://www.w3.org/2000/svg" viewBox="0 0 32 32"><title>file_type_ng_tailwind</title><defs><linearGradient id="a"><stop offset="0" stop-color="#dd0031" /><stop offset="1" stop-color="#c3002f" /></linearGradient></defs><g transform="matrix(.11923 0 0 .11923 2.7608 1.986)"><path d="m222.08 39.192-8.019 125.92-76.671-165.12zm-53.105 162.82-57.933 33.056-57.934-33.056 11.783-28.556h92.301zm-57.933-139.34 30.357 73.803h-60.715zm-103.1 102.44-7.937-125.92 84.69-39.192z" fill="url(#a)" /><path d="m222.08 39.192-8.019 125.92-76.671-165.12zm-53.105 162.82-57.933 33.056-57.934-33.056 11.783-28.556h92.301zm-57.933-139.34 30.357 73.803h-60.715zm-103.1 102.44-7.937-125.92 84.69-39.192z" fill="#c3002f" fill-opacity=".3" /></g><path d="M16,23a4.726,4.726,0,0,1,5-4c4,0,4.5,3,6.5,3.5A3.208,3.208,0,0,0,31,21a4.726,4.726,0,0,1-5,4c-4,0-4.5-3-6.5-3.5A3.208,3.208,0,0,0,16,23Zm-5,6a4.726,4.726,0,0,1,5-4c4,0,4.5,3,6.5,3.5A3.208,3.208,0,0,0,26,27a4.726,4.726,0,0,1-5,4c-4,0-4.5-3-6.5-3.5A3.208,3.208,0,0,0,11,29Z" style="fill:#44a8b3" /></svg>
