<svg id="background" xmlns="http://www.w3.org/2000/svg" viewBox="0 0 32 32">
  <title>file_type_js@2x</title>
  <rect width="32" height="32" style="fill: #fff;opacity: 0"/>
  <g id="js">
    <path d="M18.91,20.45a3.76,3.76,0,0,0,3.41,2.09c1.43,0,2.34-.72,2.34-1.73,0-1.18-.94-1.6-2.51-2.29l-0.86-.37c-2.49-1.06-4.14-2.39-4.14-5.19,0-2.59,2-4.55,5.06-4.55a5.1,5.1,0,0,1,4.91,2.77l-2.69,1.73a2.35,2.35,0,0,0-2.22-1.48,1.5,1.5,0,0,0-1.64,1.35s0,0.09,0,.13c0,1,.64,1.45,2.12,2.09l0.86,0.37c2.93,1.25,4.59,2.54,4.59,5.42,0,3.1-2.44,4.81-5.72,4.81a6.57,6.57,0,0,1-6.29-3.53Zm-12.19.3c0.54,1,1,1.77,2.22,1.77s1.85-.44,1.85-2.17V8.63h3.46V20.41c0,3.57-2.09,5.19-5.19,5.19a5.36,5.36,0,0,1-5.19-3.15Z" style="fill: #f5de19"/>
  </g>
</svg>
