<svg xmlns="http://www.w3.org/2000/svg" viewBox="0 0 32 32"><title>file_type_excel@2x</title><g id="excel"><path d="M28.78,4.41H18.65V2L2,4.59V27.11L18.65,30V26.45H28.78A1.16,1.16,0,0,0,30,25.35V5.5A1.16,1.16,0,0,0,28.78,4.41Zm.16,21.13H18.62l0-1.89h2.49v-2.2H18.58v-1.3h2.52v-2.2H18.55v-1.3h2.55v-2.2H18.53v-1.3h2.56v-2.2H18.53V9.64h2.56V7.44H18.53v-2H28.94Z" style="fill:#20744a;fill-rule:evenodd"/><rect x="22.49" y="7.44" width="4.32" height="2.2" style="fill:#20744a"/><rect x="22.49" y="10.94" width="4.32" height="2.2" style="fill:#20744a"/><rect x="22.49" y="14.44" width="4.32" height="2.2" style="fill:#20744a"/><rect x="22.49" y="17.94" width="4.32" height="2.2" style="fill:#20744a"/><rect x="22.49" y="21.44" width="4.32" height="2.2" style="fill:#20744a"/><polygon points="6.35 10.67 8.49 10.55 9.84 14.26 11.44 10.4 13.58 10.27 10.98 15.54 13.58 20.82 11.31 20.67 9.78 16.64 8.25 20.51 6.16 20.33 8.59 15.67 6.35 10.67" style="fill:#fff;fill-rule:evenodd"/></g></svg>