<svg xmlns="http://www.w3.org/2000/svg" viewBox="0 0 32 32"><title>file_type_deno</title><path d="M16 2C19.713 2 23.274 3.475 25.8995 6.1005C28.525 8.72601 30 12.287 30 16C30 19.713 28.525 23.274 25.8995 25.8995C23.274 28.525 19.713 30 16 30C12.287 30 8.72601 28.525 6.1005 25.8995C3.475 23.274 2 19.713 2 16C2 12.287 3.475 8.72601 6.1005 6.1005C8.72601 3.475 12.287 2 16 2V2Z" fill="#D2D2D2"/><path d="M15.4531 9.92422C11.3844 9.92422 8.2125 12.4891 8.2125 15.6773C8.2125 18.6852 11.1273 20.6047 15.6445 20.5117L15.7812 20.5062L16.2789 20.4898L16.1531 20.818L16.1695 20.8508C16.2056 20.9352 16.2384 21.0209 16.268 21.1078L16.2789 21.1406L16.2953 21.1953L16.3172 21.2719L16.3336 21.3211L16.3555 21.3758L16.3719 21.4359L16.3937 21.5234L16.4211 21.6164L16.4375 21.6766L16.4648 21.775L16.4922 21.8789L16.5141 21.9828L16.5414 22.0922L16.5633 22.1687L16.5906 22.2891L16.618 22.4094L16.6562 22.5734L16.6727 22.6609L16.7 22.7922L16.7273 22.9289L16.7602 23.0711L16.7984 23.2734L16.8312 23.4375L16.875 23.6672L16.8969 23.782L16.9352 23.9625L16.968 24.1484L17.0117 24.4L17.0609 24.6625L17.1047 24.9359L17.1539 25.2148L17.2031 25.4992L17.2523 25.7945L17.3016 26.1008L17.3398 26.3359L17.4 26.7352L17.4273 26.8992L17.493 27.3203L17.5422 27.6648L17.5859 27.9273L17.6352 28.2883L17.6625 28.4687C20.6648 28.0695 23.3336 26.6148 25.2805 24.4875L25.3406 24.4219L25.0617 23.3828L24.3234 20.6211L23.8641 18.9039L23.4594 17.3945L23.2078 16.4758L23.0492 15.8961L22.9562 15.5461L22.8687 15.2398L22.8359 15.1086L22.8141 15.0375L22.8031 14.9992L22.7922 14.9664C22.3656 13.5937 21.5398 12.3797 20.4133 11.4992C19.0898 10.4656 17.4109 9.92422 15.4531 9.92422ZM11.8766 24.5203C11.5211 24.4219 11.1492 24.6297 11.0453 24.9852L11.0398 25.0016L10.4273 27.2766C10.8103 27.4661 11.2028 27.6358 11.6031 27.7852L11.6961 27.8234L12.3578 25.357L12.3633 25.3406C12.4508 24.9797 12.2375 24.6133 11.8766 24.5203ZM15.6883 22.8523C15.3273 22.7539 14.9555 22.9617 14.8516 23.3172L14.8461 23.3336L13.9164 26.7789V26.7953C13.8804 26.9663 13.9112 27.1445 14.0025 27.2935C14.0938 27.4424 14.2386 27.5508 14.4073 27.5963C14.576 27.6418 14.7557 27.621 14.9095 27.5381C15.0633 27.4553 15.1796 27.3167 15.2344 27.1508L15.2398 27.1344L16.1695 23.6891V23.6727L16.1859 23.5961L16.1914 23.5687L16.1695 23.4539L16.1367 23.2953L16.1148 23.1969C16.0714 23.1131 16.011 23.0393 15.9376 22.98C15.8642 22.9207 15.7793 22.8772 15.6883 22.8523ZM9.20781 19.3031L9.16406 19.407L9.15859 19.4289L8.22891 22.8742L8.22344 22.8906C8.182 23.0633 8.20936 23.2453 8.29972 23.3981C8.39008 23.5509 8.53636 23.6626 8.70759 23.7095C8.87883 23.7564 9.0616 23.7348 9.21722 23.6493C9.37283 23.5639 9.4891 23.4212 9.54141 23.2516L9.54687 23.2352L10.3891 20.107C9.95156 19.8773 9.55234 19.6039 9.20781 19.3031ZM6.99297 15.3383C6.63203 15.2453 6.26016 15.4531 6.15625 15.8031L6.15078 15.8195L5.22109 19.2648V19.2812C5.17966 19.4539 5.20702 19.6359 5.29738 19.7887C5.38774 19.9415 5.53401 20.0532 5.70525 20.1001C5.87649 20.147 6.05925 20.1254 6.21487 20.04C6.37049 19.9545 6.48675 19.8118 6.53906 19.6422L6.54453 19.6258L7.47422 16.1805V16.1641C7.56172 15.8031 7.34844 15.4367 6.99297 15.3383ZM27.8344 14.5562C27.4789 14.4633 27.107 14.6711 27.0031 15.0211L26.9977 15.0375L26.068 18.4828L26.0625 18.4992C26.0146 18.6747 26.0384 18.862 26.1287 19.02C26.219 19.1779 26.3683 19.2935 26.5437 19.3414C26.7192 19.3893 26.9066 19.3655 27.0645 19.2752C27.2225 19.185 27.3381 19.0357 27.3859 18.8602V18.8437L28.3211 15.3984V15.3766C28.4086 15.0211 28.1953 14.6547 27.8344 14.5562ZM4.96406 9.95703C4.18504 11.3756 3.68913 12.9321 3.50391 14.5398C3.59362 14.6414 3.71172 14.7138 3.84297 14.7477C4.19844 14.8406 4.57031 14.6328 4.67422 14.2828L4.67969 14.2664L5.60937 10.8211L5.61484 10.8047C5.70234 10.4437 5.48906 10.0773 5.12812 9.97891C5.0745 9.9651 5.01943 9.95776 4.96406 9.95703V9.95703ZM25.4828 9.97891C25.1219 9.88594 24.7555 10.0937 24.6461 10.4437V10.4602L23.7164 13.9055L23.7109 13.9219C23.6695 14.0945 23.6969 14.2765 23.7872 14.4293C23.8776 14.5822 24.0239 14.6938 24.1951 14.7407C24.3663 14.7876 24.5491 14.7661 24.7047 14.6806C24.8603 14.5951 24.9766 14.4525 25.0289 14.2828L25.0344 14.2664L25.9641 10.8211L25.9695 10.8047C26.057 10.4437 25.8383 10.0773 25.4828 9.97891Z" fill="black"/><path d="M16.3281 12.2266C16.5602 12.2266 16.7827 12.3187 16.9468 12.4828C17.1109 12.6469 17.2031 12.8695 17.2031 13.1016C17.2031 13.3336 17.1109 13.5562 16.9468 13.7203C16.7827 13.8844 16.5602 13.9766 16.3281 13.9766C16.0961 13.9766 15.8735 13.8844 15.7094 13.7203C15.5453 13.5562 15.4531 13.3336 15.4531 13.1016C15.4531 12.8695 15.5453 12.6469 15.7094 12.4828C15.8735 12.3187 16.0961 12.2266 16.3281 12.2266Z" fill="#D2D2D2"/><path d="M9.01094 6.70312C8.65547 6.61016 8.28359 6.81797 8.17969 7.16797L8.17422 7.18437L7.24453 10.6297L7.23906 10.6461C7.19763 10.8187 7.22499 11.0007 7.31535 11.1535C7.40571 11.3064 7.55198 11.4181 7.72322 11.4649C7.89446 11.5118 8.07722 11.4903 8.23284 11.4048C8.38846 11.3193 8.50472 11.1767 8.55703 11.007L8.5625 10.9906L9.49219 7.54531L9.49766 7.52344C9.58516 7.16797 9.37188 6.80156 9.01094 6.70312ZM20.9602 7.35391C20.5992 7.26094 20.2273 7.46875 20.1234 7.81875L20.118 7.83516L19.4945 10.1539C19.899 10.3528 20.2852 10.587 20.6484 10.8539L20.7086 10.9031L21.4414 8.19609V8.17969C21.5289 7.81875 21.3156 7.45234 20.9602 7.35391ZM14.8789 3.47109C14.4421 3.51033 14.0077 3.57239 13.5773 3.65703L13.4844 3.67344L12.6203 6.88359L12.6148 6.9C12.5788 7.07095 12.6096 7.24921 12.7009 7.39817C12.7922 7.54713 12.9371 7.65548 13.1057 7.70097C13.2744 7.74647 13.4541 7.72565 13.6079 7.6428C13.7617 7.55995 13.878 7.42135 13.9328 7.25547L13.9383 7.23906L14.868 3.79375L14.8734 3.77734C14.8986 3.67701 14.9005 3.57226 14.8789 3.47109V3.47109ZM23.432 5.85L23.2516 6.52812L23.2461 6.54453C23.2101 6.71548 23.2409 6.89374 23.3322 7.0427C23.4234 7.19166 23.5683 7.30001 23.737 7.3455C23.9057 7.391 24.0854 7.37018 24.2392 7.28733C24.393 7.20448 24.5092 7.06588 24.5641 6.9L24.5695 6.88359L24.5914 6.8125C24.2493 6.49198 23.8896 6.19073 23.5141 5.91016L23.432 5.85ZM18.0234 3.58594L17.6953 4.80547L17.6898 4.82187C17.6538 4.99283 17.6846 5.17109 17.7759 5.32004C17.8672 5.469 18.0121 5.57735 18.1807 5.62285C18.3494 5.66834 18.5291 5.64753 18.6829 5.56468C18.8367 5.48182 18.953 5.34323 19.0078 5.17734L19.0133 5.16094L19.3578 3.87578C18.9507 3.76382 18.5382 3.67256 18.1219 3.60234L18.0234 3.58594Z" fill="black"/></svg>