<svg viewBox="0 0 32 32" xmlns="http://www.w3.org/2000/svg"><path d="m21.68 27.41c-.078-.083-.145-.223-.235-.24-2.108-.405-4.187-.962-6.326-1.194l.707 4.024h2.144c.08-.214.292-.1.429-.176z" fill="#769788"/><path d="m15.119 25.976q-.009-.071-.015-.141c-1.86.009-3.713-.126-5.564-.286l-.013-.006c1.1 1.006 2.186 2.021 3.3 3.013a7.894 7.894 0 0 1 1.287 1.316.393.393 0 0 1 0 .128h1.715l-.707-4.024z" fill="#8ba97b"/><path d="m30 15.335a.5.5 0 0 0 -.037-.119q-2.682-.865-5.363-1.733c-1.027-.336-1.024-.342-.4-1.2q1.6-2.193 3.2-4.388a4.361 4.361 0 0 0 -.969-1.181c-2.456.814-4.943 1.517-7.442 2.178l-.037-.009.018.148c1.59 1.3 3.092 2.707 4.553 4.153q-.229 2.184-.46 4.367c-.081.751-.168 1.5-.252 2.253h.028c2.371-.914 4.7-1.931 7.112-2.743l.049-.256q0-.735 0-1.47z" fill="#555f61"/><path d="m10.819 8.455a1.382 1.382 0 0 0 .9.143 49.978 49.978 0 0 1 5.19.206 11.689 11.689 0 0 1 2.045.081l.037.009q-.579-2.155-1.156-4.312a15.49 15.49 0 0 1 -.751-1.682.95.95 0 0 0 -1.149-.767 6.33 6.33 0 0 1 -.848-.015c.065-.013.13-.023.2-.034a1.639 1.639 0 0 0 -.2.034.126.126 0 0 0 -.115.025q-1.89 2.854-3.78 5.709c-.131.194-.249.4-.373.603z" fill="#7e813d"/><path d="m10.666 8.609.153-.154c.124-.2.242-.409.373-.607q1.889-2.856 3.78-5.709a7.2 7.2 0 0 0 -2.3.293 13.077 13.077 0 0 0 -7.172 4.427l5.162 1.75z" fill="#abb130"/><path d="m6.963 14.968c.117.283.277.547.417.82q1.5-3.243 3-6.484c.089-.192.2-.373.3-.559a1.231 1.231 0 0 0 -.016-.136l-5.164-1.75a5.988 5.988 0 0 0 -1.235 1.6q1.35 3.257 2.698 6.509z" fill="#c2ca37"/><path d="m26.005 22.915c-1.02-1.03-2.057-2.041-3.16-2.981a26.059 26.059 0 0 0 -.437 3.175c-.176 1.273-.3 2.554-.445 3.832a.576.576 0 0 1 -.283.469l-3.28 2.414a13.834 13.834 0 0 0 5.057-1.953 11.727 11.727 0 0 0 3.94-3.746 5.46 5.46 0 0 1 -1.392-1.21z" fill="#587789"/><path d="m9.527 25.543.013.006-.01-.143c-.623-2.251-1.033-4.551-1.56-6.823-.205-.881-.374-1.77-.559-2.656h-.031l-.121.009c-.374 1.388-1.022 2.671-1.522 4.01-.359.961-.779 1.9-1.165 2.851-.1.243-.151.511-.444.606a9.429 9.429 0 0 0 1.822 2.297c1.197.063 2.383-.131 3.577-.157z" fill="#bcd05f"/><path d="m22.845 19.933c1.1.94 2.14 1.951 3.16 2.981a5.46 5.46 0 0 0 1.391 1.21 12.042 12.042 0 0 0 2.555-7.065c-2.41.812-4.741 1.829-7.112 2.743a.936.936 0 0 0 .006.131z" fill="#2e4880"/><path d="m24.6 13.483q2.679.873 5.363 1.733a12.52 12.52 0 0 0 -2.563-7.316q-1.6 2.194-3.2 4.388c-.629.853-.632.859.4 1.195z" fill="#364673"/><path d="m4.572 22.794c.386-.952.806-1.89 1.165-2.851.5-1.339 1.148-2.622 1.522-4.01l-5.259-.006a13.5 13.5 0 0 0 2.128 7.473c.293-.095.346-.363.444-.606z" fill="#d4e64e"/><path d="m7.259 15.933.121-.009a.772.772 0 0 0 0-.136c-.14-.273-.3-.537-.417-.82q-1.355-3.25-2.694-6.507a13.393 13.393 0 0 0 -2.269 7.466z" fill="#d5e238"/><path d="m17.833 4.582q.578 2.156 1.156 4.312c2.5-.661 4.986-1.364 7.442-2.178a4.213 4.213 0 0 0 -1.16-1.137q-2.877-.394-5.753-.788c-.561-.076-1.118-.14-1.685-.209z" fill="#5a614f"/><path d="m15.935 2.129a.95.95 0 0 1 1.149.767 15.49 15.49 0 0 0 .749 1.686c.562.069 1.124.133 1.685.209q2.877.39 5.753.788a12.066 12.066 0 0 0 -5.92-3.141 10.743 10.743 0 0 0 -4.068-.358c-.066.011-.131.021-.2.034a6.33 6.33 0 0 0 .852.015z" fill="#656945"/><path d="m12.823 28.556c-1.11-.992-2.2-2.007-3.3-3.013-1.194.026-2.38.22-3.577.161a13.447 13.447 0 0 0 8.16 4.168 7.894 7.894 0 0 0 -1.283-1.316z" fill="#9fb96e"/><path d="m22.688 19.8a10.538 10.538 0 0 1 -2.028 1.668c-1.707 1.364-3.439 2.7-5.165 4.037a2.012 2.012 0 0 1 -.378.186c0 .047-.007.094-.013.141q.006.071.015.141c2.139.232 4.218.789 6.326 1.194.09.017.157.157.235.24a.576.576 0 0 0 .283-.469c.143-1.278.269-2.559.445-3.832a26.059 26.059 0 0 1 .437-3.175.936.936 0 0 1 -.006-.13h-.028z" fill="#6e897c"/><path d="m15.117 25.694a1.412 1.412 0 0 1 -.146-.694c.1-2.342-.217-4.676-.136-7.016.039-1.128-.189-2.236-.159-3.359a41.11 41.11 0 0 0 -1.912 3.919c-1.114 2.269-2.16 4.573-3.234 6.862l.01.143c1.851.16 3.7.3 5.564.286.006-.047.01-.094.013-.141z" fill="#899f66"/><path d="m16.613 14.156c-.562.083-1.2-.047-1.642.474q3.543 2.354 7.084 4.709c.218.144.422.309.633.464h.123c.084-.751.171-1.5.252-2.253q.233-2.184.46-4.367c-2.304.324-4.609.633-6.91.973z" fill="#647665"/><path d="m18.952 8.885a11.689 11.689 0 0 0 -2.045-.085 49.978 49.978 0 0 0 -5.19-.206 1.382 1.382 0 0 1 -.9-.143l-.153.154a1.231 1.231 0 0 1 .016.136 31.6 31.6 0 0 1 2.241 3.1c.609.816 1.174 1.665 1.758 2.5 1.056-1.1 1.879-2.385 2.842-3.558q.722-.879 1.447-1.755l-.018-.148z" fill="#869048"/><path d="m17.523 10.788c-.963 1.173-1.786 2.46-2.842 3.558l-.016.148h.033l.273.141c.443-.521 1.08-.391 1.642-.474 2.3-.34 4.606-.649 6.91-.97-1.461-1.446-2.963-2.848-4.553-4.153q-.723.873-1.447 1.75z" fill="#727f5f"/><path d="m14.665 14.494.016-.148c-.584-.834-1.149-1.683-1.758-2.5a31.6 31.6 0 0 0 -2.241-3.1c-.1.186-.213.367-.3.559q-1.5 3.24-3 6.484a.772.772 0 0 1 0 .136h.031z" fill="#a5b14b"/><path d="m12.764 18.544a41.11 41.11 0 0 1 1.912-3.919c.006-.046.014-.091.022-.136h-.033l-7.254 1.438c.185.886.354 1.775.559 2.656.527 2.272.937 4.572 1.56 6.823 1.07-2.289 2.12-4.593 3.234-6.862z" fill="#a4b558"/><path d="m14.676 14.625c-.03 1.123.2 2.231.159 3.359-.081 2.34.237 4.674.136 7.016a1.412 1.412 0 0 0 .145.694 2.012 2.012 0 0 0 .378-.186c1.726-1.34 3.458-2.673 5.165-4.037a10.538 10.538 0 0 0 2.029-1.671c-.211-.155-.415-.32-.633-.464q-3.54-2.358-7.084-4.709l-.273-.141c-.008.048-.016.093-.022.139z" fill="#7b916e"/></svg>