<svg xmlns="http://www.w3.org/2000/svg" viewBox="0 0 27.51 20.904"><title>file_type_playwright</title><path d="M13.458,7.446a2.673,2.673,0,0,1,1.736,1.541l1.07.3a3.028,3.028,0,0,0-2.032-2.62,2.787,2.787,0,0,0-2.982,1.172,2.5,2.5,0,0,1,2.207-.4ZM21.979,9A2.783,2.783,0,0,0,19,10.167a2.5,2.5,0,0,1,2.206-.4,2.677,2.677,0,0,1,1.735,1.541l1.072.305A3.034,3.034,0,0,0,21.979,9Zm-1.064,5.5L12.01,12a4.012,4.012,0,0,0,.466,1.122l7.5,2.1a4,4,0,0,0,.941-.728Zm-6.174,5.359C7.69,17.962,8.543,8.978,9.684,4.721A25.516,25.516,0,0,1,11.037.788C10.8.739,10.6.865,10.4,1.262A23.931,23.931,0,0,0,8.909,5.5C7.769,9.752,6.916,18.736,13.967,20.627c3.323.89,5.912-.463,7.842-2.588a7.246,7.246,0,0,1-7.068,1.814Z" style="fill:#2d4552"/><path d="M10.846,15.1V13.287L5.809,14.715a4,4,0,0,1,3-2.908,4.359,4.359,0,0,1,2.038-.116V4.256h2.522A15.107,15.107,0,0,0,12.6,2.3c-.369-.751-.747-.253-1.606.465a11.966,11.966,0,0,1-4.435,2.2,11.9,11.9,0,0,1-4.937.321C.526,5.1-.05,4.859,0,5.7A18.355,18.355,0,0,0,.629,9.09C1.5,12.363,4.381,18.671,9.823,17.2A5.468,5.468,0,0,0,12.944,15.1h-2.1ZM2.718,9.135,6.586,8.116a2.171,2.171,0,0,1-1.563,1.87A2.22,2.22,0,0,1,2.718,9.135Z" style="fill:#e2574c"/><path d="M25.4,4.342a15.4,15.4,0,0,1-6.4-.4A15.393,15.393,0,0,1,13.26,1.087c-1.111-.931-1.6-1.577-2.081-.6a23.952,23.952,0,0,0-1.5,4.233C8.543,8.978,7.691,17.962,14.742,19.852s10.8-6.318,11.943-10.576A24.032,24.032,0,0,0,27.5,4.863c.072-1.087-.674-.772-2.1-.521ZM11.237,7.864a2.807,2.807,0,0,1,3-1.193,3.028,3.028,0,0,1,2.032,2.62Zm4.6,7.755A5.175,5.175,0,0,1,12.011,12l8.9,2.49a4.9,4.9,0,0,1-5.079,1.125Zm3.148-5.432A2.8,2.8,0,0,1,21.979,9a3.034,3.034,0,0,1,2.033,2.621l-5.026-1.431Z" style="fill:#2ead33"/><path d="M9.086,13.786l-3.277.929a3.979,3.979,0,0,1,2.77-2.831L6.723,4.92l-.16.049a11.9,11.9,0,0,1-4.937.321C.525,5.1-.05,4.859,0,5.7A18.357,18.357,0,0,0,.629,9.09C1.5,12.363,4.38,18.671,9.823,17.2l.16-.05ZM2.718,9.135,6.586,8.116a2.171,2.171,0,0,1-1.563,1.87A2.22,2.22,0,0,1,2.718,9.135Z" style="fill:#d65348"/><path d="M15.986,15.655l-.15-.036A5.174,5.174,0,0,1,12.01,12L16.6,13.288l2.431-9.342L19,3.938A15.394,15.394,0,0,1,13.26,1.087c-1.111-.931-1.6-1.577-2.081-.6a23.992,23.992,0,0,0-1.5,4.233C8.543,8.978,7.691,17.962,14.742,19.852l.144.033Z" style="fill:#1d8d22"/><path d="M11.237,7.864a2.807,2.807,0,0,1,3-1.193,3.028,3.028,0,0,1,2.032,2.62Z" style="fill:#1d8d22"/></svg>