<svg viewBox="0 0 254.5 225" xmlns="http://www.w3.org/2000/svg"><path d="m56.277 13.214c16.4-.15 32.825 0 49.234-.063-3.891 16.756-7.624 33.559-11.5 50.323h-74.911c-2.368 0-4.736.079-7.1-.095 14.712-16.764 29.589-33.386 44.277-50.165z" fill="#f2e6c9"/><path d="m139.568 13.158h49.092c14.743 16.78 29.629 33.417 44.333 50.22-9.471.2-18.942 0-28.413.087h-53.63c-3.727-16.787-7.704-33.511-11.382-50.307z" fill="#f2e6c9"/><path d="m105.511 13.158h34.056c3.678 16.8 7.648 33.52 11.4 50.3h-56.955c3.875-16.748 7.608-33.544 11.499-50.3z" fill="#efc75e"/><path d="m12 63.371c2.368.174 4.736.087 7.1.095h74.912q0 26.578.055 53.156a19.257 19.257 0 0 0 2.02.142h53.22a15 15 0 0 0 1.579-.11c.15-17.735 0-35.469.071-53.2h53.63c9.471-.047 18.942.11 28.413-.087v153.633h-220.992q-.008-76.811-.008-153.629z" fill="#e7bf55"/><path d="m94.012 63.482h56.953c-.063 17.735.087 35.469-.071 53.2-.529.055-1.058.095-1.579.11h-53.215a19.257 19.257 0 0 1 -2.013-.134c-.115-17.739-.004-35.466-.075-53.176z" fill="#dbb551"/><path d="m28.132 167.024h73.953v28.476h-73.953z" fill="#f2f2f2"/><path d="m167.429 139.1 20.965-20.424h52.075l-46.131 46.129z" fill="#40d0fd"/><path d="m102.086 125.433 26.19 26.812 112.193-113.122h-52.075z" fill="#41d0fd"/><path d="m141.191 165.066 26.56 26.168 26.587-26.429-26.909-25.705z" fill="#1fbcfd"/><path d="m167.751 191.234 26.587-26.429 45.481 46.001h-52.367z" fill="#095a9d"/><path d="m167.751 191.234 24.768-8.236-8.346-8.088z" fill="#0e5199"/></svg>