<svg xmlns="http://www.w3.org/2000/svg" viewBox="0 0 32 32"><title>file_type_aws@2x</title><g id="aws"><path d="M30,19.15v1.27c0,2.31-2.55,4.69-5.65,4.69H7.65C4.51,25.12,2,22.77,2,20.42V19.15Z" style="fill:#9d5125"/><path d="M12.78,6.78A7.11,7.11,0,0,1,19.3,11a3.64,3.64,0,0,1,2.07-.64A3.58,3.58,0,0,1,25,13.86,5.69,5.69,0,0,1,30,19v.48c0,2.35-2.55,4.69-5.69,4.69H7.65C4.51,24.16,2,21.82,2,19.47V19a5.53,5.53,0,0,1,3.62-4.85v-.2A7.13,7.13,0,0,1,12.78,6.78Z" style="fill:#f58535"/><path d="M9,15.09,7.13,21.62H8.24L8.68,20h1.91l.4,1.59H12.1l-1.75-6.52Zm-.16,4.1L9.64,16h0l.76,3.22Z" style="fill:#fff"/><polygon points="16.8 20.23 16.76 20.23 15.88 15.1 14.77 15.1 13.93 20.19 13.89 20.19 13.02 15.1 11.98 15.1 13.26 21.66 14.45 21.66 15.28 16.73 15.32 16.73 16.16 21.66 17.39 21.66 18.7 15.1 17.63 15.1 16.8 20.23" style="fill:#fff"/><path d="M22.09,18.08l-.72-.24c-.72-.28-1-.6-1-1.15a.9.9,0,1,1,1.79,0v.12h1v-.16c0-.68-.16-1.71-1.87-1.71a1.8,1.8,0,0,0-2,1.87,1.73,1.73,0,0,0,1.39,1.79l.72.24a1.09,1.09,0,0,1,1,1.15.93.93,0,0,1-1,1q-1.07,0-1.07-1.19v-.16h-1v.16a1.79,1.79,0,0,0,2,2c1.31,0,2.19-.56,2.19-1.95A1.73,1.73,0,0,0,22.09,18.08Z" style="fill:#fff"/></g></svg>