<svg xmlns="http://www.w3.org/2000/svg" viewBox="0 0 32 32"><title>file_type_rspec@2x</title><g id="rspec"><path d="M4.23,19.36,6.56,20A10.28,10.28,0,0,1,16,5.73h.19l1.38-1.88L16.46,2H16A14,14,0,0,0,2.95,21.09Z" style="fill:#5ecae6"/><path d="M18.39,4,17,5.8A10.27,10.27,0,0,1,26.25,16a10.14,10.14,0,0,1-.59,3.42l1.12,2.16,2.14-.17A14.13,14.13,0,0,0,30,16,14,14,0,0,0,17.25,2.07Z" style="fill:#a5ddef"/><path d="M26.34,22.26l-1-2a10.26,10.26,0,0,1-18.43.55l-2.47-.62L3.23,21.78a14,14,0,0,0,25.36.31Z" style="fill:#7fd2ed"/><polygon points="12.16 9.93 8.41 13.78 9.36 15.7 15.89 23.68 22.42 15.51 23.37 13.78 19.62 9.93 12.16 9.93" style="fill:#ef4561"/><line x1="8.41" y1="13.9" x2="10.76" y2="14.37" style="fill:none"/><polygon points="22.42 15.54 20.1 16.23 21.02 14.37 23.37 13.9 22.42 15.54" style="fill:#ef4d6e"/><polygon points="14.97 16.58 14.02 14.21 17.77 14.21 16.82 16.58 14.97 16.58" style="fill:#ef4561"/><polygon points="18.7 16.11 17.77 14.21 21.02 14.21 20.1 16.11 18.7 16.11" style="fill:#ef4561"/><polygon points="13.09 16.23 14.02 14.37 14.97 16.7 13.09 16.23" style="fill:#ef4d6e"/><polygon points="16.82 16.7 17.77 14.37 18.7 16.23 16.82 16.7" style="fill:#ef4d6e"/><polygon points="21.02 14.25 19.17 9.93 19.62 9.93 23.37 13.71 21.02 14.25" style="fill:#ef4561"/><polygon points="17.77 14.21 18.22 9.93 19.17 9.93 21.02 14.21 17.77 14.21" style="fill:#ef4d6e"/><polygon points="9.36 15.77 11.69 16.23 10.76 14.37 8.41 13.9 9.36 15.77" style="fill:#ef4d6e"/><polygon points="13.09 16.11 14.02 14.21 10.76 14.21 11.69 16.11 13.09 16.11" style="fill:#ef4561"/><polygon points="10.76 14.25 12.62 9.93 12.16 9.93 8.41 13.71 10.76 14.25" style="fill:#ef4561"/><polygon points="14.02 14.21 13.57 9.93 12.62 9.93 10.76 14.21 14.02 14.21" style="fill:#ef4d6e"/><polygon points="14.02 14.14 15.89 9.93 13.57 9.93 14.02 14.14" style="fill:#ef4561"/><polygon points="17.77 14.14 18.22 9.93 15.89 9.93 17.77 14.14" style="fill:#ef4561"/><polygon points="17.77 14.21 15.89 10 14.02 14.21 17.77 14.21" style="fill:#ef4d6e"/><polygon points="11.69 16.11 15.89 23.56 13.09 16.11 11.69 16.11" style="fill:#ef4d6e"/><polygon points="9.36 15.77 11.69 16.23 15.89 23.71 9.36 15.77" style="fill:#ef4561"/><polygon points="13.09 16.23 14.97 16.7 15.89 23.71 13.09 16.23" style="fill:#ef4561"/><polygon points="18.7 16.23 15.89 23.71 16.82 16.7 18.7 16.23" style="fill:#ef4561"/><polygon points="20.1 16.11 15.89 23.56 18.7 16.11 20.1 16.11" style="fill:#ef4d6e"/><polygon points="22.42 15.54 20.1 16.23 15.89 23.71 22.42 15.54" style="fill:#ef4561"/><polygon points="15.89 23.59 14.97 16.58 16.82 16.58 15.89 23.59" style="fill:#ef4d6e"/></g></svg>