<svg viewBox="0 0 32 32" xmlns="http://www.w3.org/2000/svg"><g fill="#23b0e8"><path d="m16.014 2-10.887 6.169v8.347h2.01v-7.23l8.863-5.067 8.863 5.067v9.157a5.82 5.82 0 0 1 -1.424 3.7c-2.205 2.875-6.2 5.039-7.44 5.639a24.061 24.061 0 0 1 -7.258-5.234h11.684a12.372 12.372 0 0 0 1.815-2.01h-16.848c1.633 5.61 10.594 9.462 10.594 9.462s8.975-3.825 10.608-9.464a8.057 8.057 0 0 0 .279-2.094v-10.273z"/><path d="m10.794 11.282h10.441v1.745h-10.441z"/><path d="m9.928 14.339h12.185v1.745h-12.185z"/><path d="m9.928 17.382h12.185v1.745h-12.185z"/><path d="m13.627 8.239h4.788v1.745h-4.788z"/></g></svg>