<svg xmlns="http://www.w3.org/2000/svg" viewBox="0 0 32 32"><title>file_type_nsri-integrity</title><path d="M21.346,24.019H7.306a1.2,1.2,0,0,1-1.249-1.15V4.915a1.2,1.2,0,0,1,1.249-1.15h14.04A1.2,1.2,0,0,1,22.6,4.915V22.869A1.2,1.2,0,0,1,21.346,24.019Z" style="fill:#dcb67a"/><path d="M21.346,24.048H7.306a1.232,1.232,0,0,1-1.277-1.179V4.915A1.232,1.232,0,0,1,7.306,3.736h14.04a1.232,1.232,0,0,1,1.277,1.179V22.869A1.232,1.232,0,0,1,21.346,24.048ZM7.306,3.793a1.175,1.175,0,0,0-1.22,1.122V22.869a1.176,1.176,0,0,0,1.22,1.122h14.04a1.176,1.176,0,0,0,1.22-1.122V4.915a1.175,1.175,0,0,0-1.22-1.122Z" style="fill:#231f20"/><path d="M23.566,22.2H9.54a1.2,1.2,0,0,1-1.248-1.145V3.173A1.2,1.2,0,0,1,9.54,2.028H23.566a1.2,1.2,0,0,1,1.249,1.145v17.88A1.2,1.2,0,0,1,23.566,22.2Zm-2.12-5.443a1.167,1.167,0,1,0,1.167,1.167h0A1.168,1.168,0,0,0,21.446,16.755Z" style="fill:#cccccb"/><path d="M23.566,22.226H9.54a1.229,1.229,0,0,1-1.276-1.173V3.173A1.229,1.229,0,0,1,9.54,2H23.566a1.23,1.23,0,0,1,1.277,1.173v17.88a1.117,1.117,0,0,1-.375.83A1.323,1.323,0,0,1,23.566,22.226ZM9.54,2.057A1.174,1.174,0,0,0,8.32,3.173v17.88a1.173,1.173,0,0,0,1.22,1.116H23.566a1.273,1.273,0,0,0,.864-.327,1.063,1.063,0,0,0,.356-.789V3.173a1.173,1.173,0,0,0-1.22-1.116Zm11.906,17.06a1.2,1.2,0,1,1,1.195-1.2A1.2,1.2,0,0,1,21.446,19.117Zm0-2.333a1.138,1.138,0,1,0,1.138,1.138A1.139,1.139,0,0,0,21.446,16.784Z" style="fill:#231f20"/><path d="M22.189,6.859H10.806V5.322H22.189Zm0,1.594H10.806V9.989H22.189Zm0,3.415H10.806V13.4H22.189Zm-5.122,3.415H10.806v1.536h6.261Z" style="fill:#fff"/><path d="M17.1,16.848H10.778V15.254H17.1Zm-6.261-.057h6.2v-1.48h-6.2Zm11.383-3.358H10.778V11.839h11.44Zm-11.383-.057H22.161V11.9H10.835Zm11.383-3.358H10.778V8.424h11.44ZM10.835,9.961H22.161V8.481H10.835ZM22.218,6.888H10.778V5.294h11.44ZM10.835,6.831H22.161V5.351H10.835Z" style="fill:#231f20"/><path d="M19.242,24.019a1.336,1.336,0,0,0-1.122,1.474v3.041A1.329,1.329,0,0,0,19.245,30h5.6a1.327,1.327,0,0,0,1.125-1.466l-.057-3.041c0-.808-.444-1.472-1.065-1.474V20.5a3.034,3.034,0,0,0-2.724-3.308.618.618,0,0,0-.339.079.713.713,0,0,0-.365.657.665.665,0,0,0,.4.622.578.578,0,0,0,.245.06c.819.015,1.532.974,1.518,2.794v2.614m-1.137,2.669v1.264a.256.256,0,0,1-.511,0V26.688a.734.734,0,0,1-.51-.689.767.767,0,0,1,1.532,0A.735.735,0,0,1,22.447,26.688Z" style="fill:#4778bc;fill-rule:evenodd"/></svg>