<?xml version="1.0" encoding="utf-8"?><svg xmlns="http://www.w3.org/2000/svg" viewBox="0 0 32 32"><title>file_type_red</title><linearGradient id="SVGID_1_" gradientUnits="userSpaceOnUse" x1="-331.2247" y1="563.224" x2="-330.2502" y2="563.224" gradientTransform="matrix(4 0 0 4 1337 -2247)"><stop offset="0" style="stop-color:#EEA831"/><stop offset="1" style="stop-color:#FFC929"/></linearGradient><polygon fill="url(#SVGID_1_)" points="16,9.792 16,2 12.097,7.77 "/><linearGradient id="SVGID_2_" gradientUnits="userSpaceOnUse" x1="-330.25" y1="565.4213" x2="-328.012" y2="565.4213" gradientTransform="matrix(4 0 0 4 1337 -2247)"><stop offset="0" style="stop-color:#B32629"/><stop offset="0.5834" style="stop-color:#8C1E21"/><stop offset="1" style="stop-color:#7A1A1D"/></linearGradient><polygon fill="url(#SVGID_2_)" points="16,12.097 16,19.903 16,19.903 24.952,15.236 21.048,9.467 "/><linearGradient id="SVGID_3_" gradientUnits="userSpaceOnUse" x1="-330.25" y1="563.224" x2="-329.2753" y2="563.224" gradientTransform="matrix(4 0 0 4 1337 -2247)"><stop offset="0" style="stop-color:#E8A333"/><stop offset="0.6121" style="stop-color:#C68931"/><stop offset="1" style="stop-color:#AB762F"/></linearGradient><polygon fill="url(#SVGID_3_)" points="16,9.792 19.903,7.77 16,2 "/><linearGradient id="SVGID_4_" gradientUnits="userSpaceOnUse" x1="-330.25" y1="567.6183" x2="-326.75" y2="567.6183" gradientTransform="matrix(4 0 0 4 1337 -2247)"><stop offset="0" style="stop-color:#B32629"/><stop offset="0.5834" style="stop-color:#8C1E21"/><stop offset="1" style="stop-color:#7A1A1D"/></linearGradient><polygon fill="url(#SVGID_4_)" points="26.097,16.947 16,22.208 16,22.208 16,30 30,22.717 "/><linearGradient id="SVGID_5_" gradientUnits="userSpaceOnUse" x1="-333.75" y1="567.6183" x2="-330.25" y2="567.6183" gradientTransform="matrix(4 0 0 4 1337 -2247)"><stop offset="0" style="stop-color:#AE2524"/><stop offset="0.5629" style="stop-color:#D01D19"/><stop offset="1" style="stop-color:#ED1913"/></linearGradient><polygon fill="url(#SVGID_5_)" points="2,22.717 16,30 16,22.208 5.903,16.947 "/><linearGradient id="SVGID_6_" gradientUnits="userSpaceOnUse" x1="-332.488" y1="565.4213" x2="-330.25" y2="565.4213" gradientTransform="matrix(4 0 0 4 1337 -2247)"><stop offset="0" style="stop-color:#AE2524"/><stop offset="0.5629" style="stop-color:#D01D19"/><stop offset="1" style="stop-color:#ED1913"/></linearGradient><polygon fill="url(#SVGID_6_)" points="10.952,9.467 7.048,15.236 16,19.903 16,12.097 "/></svg>