<svg xmlns="http://www.w3.org/2000/svg" xmlns:xlink="http://www.w3.org/1999/xlink" viewBox="0 0 32 32"><defs><linearGradient id="a" x1="15.991" y1="-226.081" x2="15.991" y2="-253.919" gradientTransform="matrix(1, 0, 0, -1, 0, -224)" gradientUnits="userSpaceOnUse"><stop offset="0" stop-color="#fff"/><stop offset="1" stop-color="#fff" stop-opacity="0"/></linearGradient></defs><title>file_type_vscode</title><path d="M29.01,5.03,23.244,2.254a1.742,1.742,0,0,0-1.989.338L2.38,19.8a1.166,1.166,0,0,0,0,1.724l1.541,1.4a1.165,1.165,0,0,0,1.489.066L28.142,5.75A1.158,1.158,0,0,1,30,6.672V6.605A1.749,1.749,0,0,0,29.01,5.03Z" style="fill:#0065a9"/><path d="M29.01,26.97l-5.766,2.777a1.745,1.745,0,0,1-1.989-.338L2.38,12.2a1.166,1.166,0,0,1,0-1.724l1.541-1.4a1.165,1.165,0,0,1,1.489-.066L28.142,26.25A1.158,1.158,0,0,0,30,25.328V25.4A1.749,1.749,0,0,1,29.01,26.97Z" style="fill:#007acc"/><path d="M23.244,29.747a1.745,1.745,0,0,1-1.989-.338A1.025,1.025,0,0,0,23,28.684V3.316a1.024,1.024,0,0,0-1.749-.724,1.744,1.744,0,0,1,1.989-.339l5.765,2.772A1.749,1.749,0,0,1,30,6.6V25.4a1.749,1.749,0,0,1-.991,1.576Z" style="fill:#1f9cf0"/><g style="opacity:0.25"><path d="M21.843,29.8a1.74,1.74,0,0,0,1.388-.053l5.762-2.772a1.75,1.75,0,0,0,.99-1.576V6.6a1.75,1.75,0,0,0-.99-1.576L23.231,2.253a1.732,1.732,0,0,0-1.987.339L10.214,12.654,5.41,9.007a1.164,1.164,0,0,0-1.488.066l-1.541,1.4a1.166,1.166,0,0,0,0,1.724L6.546,16,2.38,19.8a1.166,1.166,0,0,0,0,1.724l1.541,1.4a1.164,1.164,0,0,0,1.488.066l4.8-3.647,11.03,10.063A1.73,1.73,0,0,0,21.843,29.8ZM22.991,9.648,14.623,16l8.368,6.352Z" style="fill-rule:evenodd;fill:url(#a)"/></g></svg>