<svg viewBox="0 0 32 32" xmlns="http://www.w3.org/2000/svg" xmlns:xlink="http://www.w3.org/1999/xlink"><linearGradient id="a" gradientTransform="matrix(1 0 0 -1 0 32)" gradientUnits="userSpaceOnUse" x1="18.92" x2="26.55" y1="10.58" y2="9.6"><stop offset="0" stop-color="#1a7d75"/><stop offset="1" stop-color="#1a8864"/></linearGradient><linearGradient id="b" gradientTransform="matrix(1 0 0 -1 0 32)" gradientUnits="userSpaceOnUse" x1="11.46" x2="7.6" y1="13.46" y2="3.34"><stop offset=".01" stop-color="#168a81"/><stop offset="1" stop-color="#31a97f"/></linearGradient><linearGradient id="c" gradientTransform="matrix(1 0 0 -1 0 32)" gradientUnits="userSpaceOnUse" x1="20.67" x2="27.15" y1="23.36" y2="13.54"><stop offset="0" stop-color="#27a59b"/><stop offset="1" stop-color="#64d8a2"/></linearGradient><linearGradient id="d" x1="10.7" x2="17.69" xlink:href="#c" y1="20.5" y2="14.45"/><linearGradient id="e" x1="24.45" x2="3.9" xlink:href="#c" y1="16.91" y2="23.83"/><path d="m27.32 13.59a2.57 2.57 0 0 1 2.68 2.33c.5 6.53-5.36 13.83-13.76 14.06a2.43 2.43 0 0 1 -2.54-2.38 2.45 2.45 0 0 1 2.37-2.52c5.58-.15 9.11-5 8.92-8.93a2.45 2.45 0 0 1 2.32-2.56z" fill="url(#a)" fill-rule="evenodd"/><path d="m4.47 13.45a2.45 2.45 0 0 1 2.44 2.45 9 9 0 0 0 9.09 9.2 2.43 2.43 0 0 1 2.5 2.38 2.45 2.45 0 0 1 -2.4 2.52 13.91 13.91 0 0 1 -14.1-14.1 2.47 2.47 0 0 1 2.47-2.45z" fill="url(#b)" fill-rule="evenodd"/><path d="m21.22 16.09a2.51 2.51 0 0 1 2.52-2.51h3.67a2.51 2.51 0 1 1 0 5h-3.67a2.51 2.51 0 0 1 -2.52-2.51z" fill="url(#c)"/><path d="m13.51 16.09a2.5 2.5 0 1 1 2.49 2.52 2.5 2.5 0 0 1 -2.49-2.52z" fill="url(#d)"/><path d="m18.44 4.35a2.44 2.44 0 0 1 -2.33 2.55c-5.82.24-9.37 4.82-9.2 9.17a2.41 2.41 0 0 1 -2.31 2.54 2.52 2.52 0 0 1 -2.6-2.39 14 14 0 0 1 13.9-14.22 2.45 2.45 0 0 1 2.54 2.35z" fill="url(#e)" fill-rule="evenodd"/></svg>