<svg xmlns="http://www.w3.org/2000/svg" viewBox="0 0 32 32"><title>file_type_histoire</title><path fill="#34d399" fill-opacity=".5" d="m3.6 8.87 15.48-6.83c.23-.1.5 0 .6.23l8.94 20.26c.1.23 0 .5-.23.6l-15.47 6.83c-.23.1-.5 0-.6-.23L3.38 9.47c-.1-.23 0-.5.23-.6z"/><path fill="#34d399" d="m6.65 5.18 16.86-1.35c.25-.02.47.17.49.42l1.77 22.08a.45.45 0 0 1-.42.49L8.49 28.17a.45.45 0 0 1-.49-.42L6.23 5.67a.45.45 0 0 1 .42-.49z"/><path fill="#b4fae2" stroke="#b4fae2" stroke-linejoin="round" stroke-width=".47" d="m21.86 21.64-2.19-10.17L15 15zM17 16.94l-6.86-6.64 2.19 10.18z"/></svg>