<svg xmlns="http://www.w3.org/2000/svg" viewBox="0 0 32 32"><title>file_type_ng_directive_dart</title><defs><linearGradient id="a"><stop offset="0" stop-color="#1dbf34" /><stop offset="1" stop-color="#168f27" /></linearGradient></defs><g transform="matrix(.11923 0 0 .11923 2.7608 1.986)"><path d="m222.08 39.192-8.019 125.92-76.671-165.12zm-53.105 162.82-57.933 33.056-57.934-33.056 11.783-28.556h92.301zm-57.933-139.34 30.357 73.803h-60.715zm-103.1 102.44-7.937-125.92 84.69-39.192z" fill="url(#a)" /><path d="m222.08 39.192-8.019 125.92-76.671-165.12zm-53.105 162.82-57.933 33.056-57.934-33.056 11.783-28.556h92.301zm-57.933-139.34 30.357 73.803h-60.715zm-103.1 102.44-7.937-125.92 84.69-39.192z" fill="#168f27" fill-opacity=".3" /></g><path d="M29.035,22.675l-1.744-1.7-.009-.009a3.065,3.065,0,0,0-1.585-.744l-.443-1.061a.262.262,0,0,0-.059-.088l-1.421-1.415a.859.859,0,0,0-.562-.247l-.034,0h0a.827.827,0,0,0-.561.218l-3.6,2.071a.275.275,0,0,0-.223.23l-2.062,3.554a.829.829,0,0,0,.028,1.152l1.77,1.763a.255.255,0,0,0,.094.061l.749.294a3.051,3.051,0,0,0,.717,1.42l.009.009,1.709,1.74a.279.279,0,0,0,.2.083H26.9a.276.276,0,0,0,.271-.223l.286-1.491,1.438-.273a.274.274,0,0,0,.224-.27l0-4.873A.272.272,0,0,0,29.035,22.675Z" style="fill:#fff" /><path d="M19.094,19.968l-2.136,3.68,0,0a.57.57,0,0,0-.163.394.557.557,0,0,0,.166.4l1.77,1.764,6.921,2.713,1.565-.866-.043-.043h-.011L22.82,23.68h0Z" style="fill:#215896" /><path d="M23.178,17.69a.563.563,0,0,0-.394.162l0,0-3.7,2.129,3.687,3.674v0L27.2,28.08l.845-1.517L25,19.274l-1.421-1.415a.562.562,0,0,0-.4-.166Z" style="fill:#66c3fa" /><path d="M19.069,19.974l3.771,3.762h0l4.341,4.331,1.653-.314,0-4.873-1.744-1.7a2.807,2.807,0,0,0-1.56-.693v-.019Z" style="fill:#235997" /><path d="M19.1,19.994l3.773,3.76v0l4.342,4.328L26.9,29.733H22.008L20.3,27.993a2.786,2.786,0,0,1-.694-1.555h-.019Z" style="fill:#58b6f0" /></svg>
