<svg viewBox="0 0 1024 1024" xmlns="http://www.w3.org/2000/svg"><path d="m331.22 199.29c96.6-.44 193.2-.07 289.8-.19 23.33.07 46.67-.16 70 .13a311.322 311.322 0 0 1 129.71 31.92 312.9 312.9 0 0 1 -138.73 593.74q-172.02-.015-344.04-.04a312.757 312.757 0 0 1 -280.89-181.96c-32.89-70.77-37.58-153.98-13.22-228.09 21.65-66.86 66.79-125.69 125.53-164.22a311.7 311.7 0 0 1 161.84-51.29z" fill="#e6aaaa"/><g fill="#662113"><path d="m279.33 341.51c17.99-1.29 36.07 4.25 50.96 14.25 19.8 13.17 34.58 32.73 45.14 53.81 16.5 33.14 23.35 70.55 22.74 107.42-.83 37.89-9.62 76.2-29.06 109.01-9.9 16.52-22.75 31.58-38.89 42.28-13.61 9.08-29.81 14.55-46.25 14.37-17.04-.02-33.72-6.14-47.56-15.91-23.28-16.44-39.28-41.3-49.73-67.44-16.99-43.33-20.07-91.64-11.07-137.16 6.65-32.22 19.81-63.89 42.15-88.44 15.87-17.44 37.62-30.72 61.57-32.19z"/><path d="m734.36 341.51c19.22-1.42 38.46 5.04 53.96 16.25 23.3 16.77 39.22 41.94 49.55 68.36 14.38 37.29 18.33 78.26 13.44 117.82-3.93 30.91-13.58 61.48-30.64 87.73-10.41 15.86-23.79 30.13-40.32 39.69a80.864 80.864 0 0 1 -44.39 11.21c-17.71-.76-34.7-8.03-48.57-18.87-22.73-17.78-38.03-43.44-47.82-70.25-15.02-41.95-17.48-88.06-8.77-131.66 6.66-32.05 19.77-63.55 41.98-87.99 15.86-17.47 37.61-30.78 61.58-32.29z"/></g></svg>