<svg xmlns="http://www.w3.org/2000/svg" viewBox="0 0 32 32"><rect width="28" height="28" x="2" y="2" rx="5.25"/><path fill="#7a1818" d="M7.58 11.96a4.3 4.3 0 0 1 1.57-2.9 4.3 4.3 0 0 1 3.15-.93 4.3 4.3 0 0 1 2.76 1.4l7.41 8.23a4.3 4.3 0 0 1 1.1 3.1 4.3 4.3 0 0 1-1.42 2.98 4.3 4.3 0 0 1-2.88 1.1H9.22a2.7 2.7 0 0 1-1.9-.8 2.7 2.7 0 0 1-.8-1.9v-.1zm4.05.16a.4.4 0 0 0-.13.25L10.6 21h8.67q.13 0 .22-.07l.03-.02a.4.4 0 0 0 .12-.25q0-.15-.1-.26l-7.41-8.24a.4.4 0 0 0-.23-.12.4.4 0 0 0-.27.08"/><path fill="#ff6a33" d="m9.12 7.05 13.66.02a2.7 2.7 0 0 1 1.9.79 2.7 2.7 0 0 1 .8 1.9v.1l-.02.1-1.42 13.67a2.7 2.7 0 0 1-.98 1.82 2.7 2.7 0 0 1-3.7-.3L7.11 11.56a2.7 2.7 0 0 1-.69-1.94 2.7 2.7 0 0 1 2.7-2.56M11.9 11l8.5 9.45.99-9.44z"/></svg>