<svg xmlns="http://www.w3.org/2000/svg" xmlns:xlink="http://www.w3.org/1999/xlink" viewBox="0 0 48 48" version="1.1" width="32px" height="32px"><g id="surface1"><path style=" fill:#FF9100;" d="M 24 4 C 12.953125 4 4 12.953125 4 24 C 4 31.394531 8.023438 37.832031 13.988281 41.296875 L 18.492188 33.511719 C 15.210938 31.609375 13 28.066406 13 24 C 13 17.925781 17.925781 13 24 13 C 30.074219 13 35 17.925781 35 24 C 35 28.066406 32.789063 31.609375 29.507813 33.511719 L 34.011719 41.296875 C 39.976563 37.832031 44 31.394531 44 24 C 44 12.953125 35.046875 4 24 4 Z "/><path style=" fill:#1A237E;" d="M 30 24 C 30 20.6875 27.3125 18 24 18 C 20.6875 18 18 20.6875 18 24 C 18 26.554688 19.601563 28.734375 21.851563 29.597656 L 19.292969 43.417969 C 20.804688 43.785156 22.375 44 24 44 C 25.625 44 27.195313 43.785156 28.707031 43.421875 L 26.148438 29.597656 C 28.398438 28.734375 30 26.554688 30 24 Z"/></g></svg>