<svg xmlns="http://www.w3.org/2000/svg" viewBox="0 0 144.51 177.64"><defs><style>.cls-1{fill:#95538e;}</style></defs><title>Recurso 8</title><g id="Capa_2" data-name="Capa 2"><g id="Capa_3" data-name="Capa 3"><path class="cls-1" d="M60.76,108.89,41.94,75.78h0L1.41,147.14a10.65,10.65,0,0,0,9.26,15.92H35.74A10.67,10.67,0,0,0,45,157.67l15.75-27.73A21.35,21.35,0,0,0,60.76,108.89Z"/><path class="cls-1" d="M53,76.49A21.31,21.31,0,0,0,71.56,87.28h37.18L62.22,5.39A10.65,10.65,0,0,0,53,0H27.88a10.65,10.65,0,0,0-9.26,15.92Z"/><path class="cls-1" d="M143.13,147.13,120.75,107.4a21.3,21.3,0,0,0-18.57-10.86H65.06l34.38,61.05a10.63,10.63,0,0,0,9.28,5.42h25.12A10.65,10.65,0,0,0,143.13,147.13Z"/><path class="cls-1" d="M72.35,128.53,58.18,153.08a16.37,16.37,0,0,0,14.17,24.56h0a16.37,16.37,0,0,0,14.18-24.56Z"/></g></g></svg>
