<svg viewBox="0 0 32 32" xmlns="http://www.w3.org/2000/svg"><path d="m6.093 29.071v-26.412h11.173a8.052 8.052 0 0 1 6.134 2.208 8.609 8.609 0 0 1 2.092 6.169 9.708 9.708 0 0 1 -1.037 4.508 7.831 7.831 0 0 1 -2.855 3.156l4.694 8.263v2.113h-6.081l-5.24-9.659h-2.62v9.659zm6.26-15.017h3.857a3.291 3.291 0 0 0 2.2-.641 2.873 2.873 0 0 0 .746-2.264 2.763 2.763 0 0 0 -.746-2.189 3.3 3.3 0 0 0 -2.2-.641h-3.857z" fill="#5099f9"/><path d="m6.093 2.659v7.741l6.26 2.276v-4.357h3.857a3.3 3.3 0 0 1 2.2.641 2.763 2.763 0 0 1 .746 2.189 2.873 2.873 0 0 1 -.746 2.264 3.291 3.291 0 0 1 -2.2.641h-.061l7.51 2.731a8.442 8.442 0 0 0 .793-1.241 9.708 9.708 0 0 0 1.037-4.508 12.775 12.775 0 0 0 -.107-1.652l-17.652-6.725z" fill="#415dd0"/><g fill="#4469da"><path d="m16.466 22.164 3.747 6.907h6.077v-1.685z"/><path d="m12.353 19.618-5.689-2.26 5.689 6.844z"/></g></svg>