<svg viewBox="0 0 32 32" xmlns="http://www.w3.org/2000/svg"><g fill="#368832"><path d="m19.792 7.071h2.553v2.553h2.555v-2.553h2.552v2.553h2.548v2.552h-2.55v2.551h2.55v2.553h-2.551v2.552h-2.549v-2.55h-2.55v2.552h-2.557v-2.55h-2.553v-2.559h2.553v-2.546h-2.553v-2.557h2.554zm2.553 7.658h2.555v-2.553h-2.555z"/><path d="m14.689 24.013a10.2 10.2 0 0 1 -4.653.915 7.6 7.6 0 0 1 -5.89-2.336 8.839 8.839 0 0 1 -2.146-6.225 9.436 9.436 0 0 1 2.412-6.719 8.181 8.181 0 0 1 6.259-2.577 11.1 11.1 0 0 1 4.018.638v3.745a6.81 6.81 0 0 0 -3.723-1.036 4.793 4.793 0 0 0 -3.7 1.529 5.879 5.879 0 0 0 -1.407 4.142 5.774 5.774 0 0 0 1.328 3.992 4.551 4.551 0 0 0 3.575 1.487 7.288 7.288 0 0 0 3.927-1.108z"/></g></svg>