<svg xmlns="http://www.w3.org/2000/svg" viewBox="0 0 32 32"><title>file_type_pine</title><path d="M16.008,28Q9.62,28,3.233,28c-.429,0-.873.053-1.131-.407-.266-.475.045-.8.294-1.151q1.88-2.624,3.75-5.255a1.887,1.887,0,0,1,.633-.581q2.034-1.133,4.05-2.293a.54.54,0,0,1,.71.029,2.147,2.147,0,0,0,2.51.131.435.435,0,0,1,.564,0q1.589,1.179,3.2,2.329a.665.665,0,0,1,.249.55,2.294,2.294,0,0,0,4.532.3A.875.875,0,0,1,23.081,21c.5-.266.99-.538,1.457-.85.3-.2.469-.2.693.119,1.481,2.111,2.981,4.209,4.48,6.307.223.312.41.61.193,1.008s-.559.418-.946.418Q22.482,27.993,16.008,28Z" style="fill:#078340"/><path d="M12.891,14.2a2.225,2.225,0,0,0-2.26,2,.872.872,0,0,1-.537.781c-.753.4-1.486.836-2.228,1.254a1.181,1.181,0,0,1-1.349-.415.8.8,0,0,1,.034-1.106q2.274-3.161,4.531-6.332L15.2,4.609c.575-.806,1.054-.813,1.62-.017q4.249,5.964,8.5,11.931c.589.827.532,1.081-.343,1.6-.8.471-1.613.928-2.408,1.411a.467.467,0,0,1-.682-.048A2.224,2.224,0,0,0,19,19.318a.456.456,0,0,1-.648-.007q-1.394-1.05-2.819-2.055a.739.739,0,0,1-.352-.71A2.274,2.274,0,0,0,12.891,14.2Z" style="fill:#00b353"/></svg>