<svg id="file_type_trunk" data-name="file type trunk" xmlns="http://www.w3.org/2000/svg" viewBox="0 0 32 32"><g id="icon"><path d="M16,29.92v-3a11.07,11.07,0,0,0,6.09-1.83A10.95,10.95,0,0,0,23.75,8.3,11,11,0,0,0,6.89,10a10.87,10.87,0,0,0-1.84,6H2A13.83,13.83,0,0,1,4.36,8.27,14,14,0,1,1,23.78,27.56,14.07,14.07,0,0,1,16,29.92Z" style="fill:#fb6a5b"/><path d="M9.2,16h-3A9.78,9.78,0,0,1,9,9.08a9.9,9.9,0,0,1,7-2.86v3A6.79,6.79,0,0,0,9.2,16Z" style="fill:#fb6a5b"/><path d="M21.68,16h-3A2.66,2.66,0,0,0,16,13.36h0a2.65,2.65,0,0,0-1.88.78A2.6,2.6,0,0,0,13.34,16h-3A5.68,5.68,0,1,1,21.7,16Z" style="fill:#fb6a5b"/></g></svg>