<svg version="1.1" viewBox="0 0 32 32" xmlns="http://www.w3.org/2000/svg"><title>file_type_unocss</title><g stroke-width=".1304"><path d="m17.007 23.491c0-3.6009 2.9191-6.5198 6.5198-6.5198s6.5198 2.9189 6.5198 6.5198c0 3.6008-2.9191 6.5198-6.5198 6.5198s-6.5198-2.9191-6.5198-6.5198z" fill="#858585"/><path d="m17.007 8.5095c0-3.6008 2.9191-6.5198 6.5198-6.5198s6.5198 2.919 6.5198 6.5198v5.8679c0 0.36003-0.29196 0.65198-0.65198 0.65198h-11.736c-0.36003 0-0.65198-0.29196-0.65198-0.65198z" fill="#ccc"/><path d="m14.993 23.491c0 3.6008-2.919 6.5198-6.5198 6.5198-3.6008 0-6.5198-2.9191-6.5198-6.5198l1.3e-6 -5.8679c0-0.36016 0.2919-0.65198 0.65198-0.65198h11.736c0.36008 0 0.65198 0.29183 0.65198 0.65198z" fill="#4d4d4d"/></g></svg>
