<svg xmlns="http://www.w3.org/2000/svg" viewBox="0 0 32 32"><title>file_type_greenkeeper</title><path d="M16,30h0A14,14,0,0,1,2,16H2A14,14,0,0,1,16,2h0A14,14,0,0,1,30,16h0A14,14,0,0,1,16,30Zm.043-2.574A2.389,2.389,0,0,0,18.194,24l2.833-1.925a2.394,2.394,0,1,0-.476-.664l-2.833,1.924a2.364,2.364,0,0,0-.3-.252l4.668-9.335a2.387,2.387,0,1,0-.728-.374l-4.68,9.358a2.654,2.654,0,0,0-.265-.056V18.234a2.388,2.388,0,0,0,0-4.721V9.325a2.391,2.391,0,1,0-.818-.015v4.214a2.389,2.389,0,0,0,0,4.694V22.69a2.3,2.3,0,0,0-.254.063l-4.691-9.38a2.392,2.392,0,1,0-.728.372l4.691,9.38a2.517,2.517,0,0,0-.29.256l-2.926-1.95a2.384,2.384,0,1,0-.455.678l2.924,1.95a2.39,2.39,0,0,0,2.181,3.367Zm9.149-2.234A13,13,0,1,0,16,29,13,13,0,0,0,25.192,25.192ZM16,3.818a12.106,12.106,0,0,1,8.614,3.568l.061.061A12.182,12.182,0,1,1,16,3.818Z" style="fill:#3cb773"/></svg>