<svg xmlns="http://www.w3.org/2000/svg" viewBox="0 0 32 32"><title>file_type_coffeescript@2x</title><g id="coffeescript"><path d="M12.8,5.88a1.69,1.69,0,0,0-.64-.23c-.66-.11-1.7-.09-2,.42-.22.35.1.61.34.75a3.19,3.19,0,0,0,2,0,4.45,4.45,0,0,0,1.43-.58c.67-.44,1.77-1.06,1.74-1.07a8.09,8.09,0,0,1,3.91-.74,8.76,8.76,0,0,1,1.91.21,3.39,3.39,0,0,1,1.56.88,1.53,1.53,0,0,1,.43,1.25c-.07.57-.51,1-1.24,1.24a7.61,7.61,0,0,1-3,.31c-2-.17-2.46-1.52-.81-1.72.81,1.68,5.12.37,3-.66-1.22-.56-3.67.09-3.67.09A20.69,20.69,0,0,0,15,7.42,4.47,4.47,0,0,1,13.37,8a6.36,6.36,0,0,1-1.07.07,4.65,4.65,0,0,1-.94-.1c-2.68-.6-2.08-2-2.08-2s0-.7,1.49-.93a4.15,4.15,0,0,1,1.88,0,.86.86,0,0,1,.41.26c.23.24-.25.55-.26.55ZM3.66,10.74a29.76,29.76,0,0,0,1,4.22,5.71,5.71,0,0,0-1.61,1.47A5.47,5.47,0,0,0,2.18,21a4.06,4.06,0,0,0,2.4,2.78,4.3,4.3,0,0,0,3.72-.18,5.39,5.39,0,0,1-3.47-2A4.78,4.78,0,0,1,4,19.22a3.79,3.79,0,0,1,1.08-3.14l0,0a22.87,22.87,0,0,0,1,2.28h0l3,4.32A9.56,9.56,0,0,1,10,25s.53,1.23,2.86,2a12.3,12.3,0,0,0,4.25.54c6-.22,6.45-2.59,6.69-2.5a7.65,7.65,0,0,1,.87-2.48l2.62-3.78.53-1a25.61,25.61,0,0,0,2-5.79c.14-.62.26-1.23.14-1.11-.62.65-1.39,1.46-5.37,2.08a40.71,40.71,0,0,1-7.76.63C4.58,13.3,3.66,10.74,3.66,10.74Zm4.64,13c.18,0,.23-.19.15-.19S8.37,23.61,8.3,23.73ZM5.65,6.5a1.08,1.08,0,0,0,.1,2,12.53,12.53,0,0,0,4,1.28,45.89,45.89,0,0,0,9.91.49c.89,0,6.1-.52,7.86-1.46,1.43-.76,1.58-1.17,1-2,2.91,1.4.75,2.58,0,3a11.85,11.85,0,0,1-2.45.77,33.33,33.33,0,0,1-8.49,1A40.52,40.52,0,0,1,6.88,10.39c-1.4-.47-3.14-.8-3.42-2.12.07-.9,1.16-1.33,2.2-1.76Z" style="fill:#28334c"/></g></svg>