<svg xmlns="http://www.w3.org/2000/svg" viewBox="0 0 3.28 3.28"><path fill="#e16426" d="m3.06 1.8-.36-.17.34-.16q.04-.03.02-.07l-.03-.04q-.04-.05-.08-.04l-.25.1h-.02l-.1-.03h-.01l-.1.1a1 1 0 0 0-.16-.35h.15l.02-.01.05-.1.01-.01.25-.1.02-.07V.78Q2.78.74 2.74.75l-.37.13.13-.35a.05.05 0 0 0-.04-.07h-.05q-.05 0-.08.03l-.1.24-.02.01-.09.05v.02l-.01.14a1 1 0 0 0-.36-.14l.1-.1.01-.03-.03-.1V.56l.1-.25q0-.03-.02-.05L1.86.2Q1.8.2 1.79.22l-.17.35-.15-.33A.1.1 0 0 0 1.4.22l-.04.03q-.05.03-.04.08l.1.25v.01l-.03.1V.7l.1.1a1 1 0 0 0-.35.16V.82L1.12.8l-.1-.05V.73L.92.5Q.88.46.85.47H.78Q.74.5.75.53L.88.9.53.77Q.48.75.46.8v.06q0 .05.03.07l.24.11.01.01.05.1h.16a1 1 0 0 0-.14.37l-.1-.1-.03-.01-.1.03H.56l-.25-.1q-.03 0-.05.03l-.05.05q-.01.04.01.06l.35.17-.33.16a.1.1 0 0 0-.02.07l.03.04q.03.04.08.03l.25-.1h.01l.1.04.02-.01.1-.1a1 1 0 0 0 .16.36H.82l-.02.01-.05.1H.73l-.24.11q-.03.02-.02.06v.07q.03.04.05.04L.9 2.4l-.12.35q-.02.04.03.07h.06q.05 0 .07-.03l.11-.24.01-.02.1-.04v-.16a1 1 0 0 0 .37.14l-.1.1-.01.02.03.11v.02l-.1.24q0 .04.02.06l.06.05.06-.01.17-.36.16.34q.02.04.07.02l.04-.03q.05-.04.03-.08l-.09-.25v-.02l.03-.1v-.01l-.1-.1a1 1 0 0 0 .35-.16v.15l.01.02.1.05v.01l.11.25.06.02h.07q.04-.02.04-.06l-.13-.37.35.13q.04.01.07-.04v-.05q0-.05-.03-.08l-.24-.1-.02-.02-.04-.09h-.02l-.14-.01a1 1 0 0 0 .14-.36l.1.1h.02l.11-.02h.02l.24.1q.04 0 .06-.03l.05-.06zm-.82-.25h-.18L2 1.38l.12-.12q.1.13.13.28m-.37-.27-.16-.06v-.18a1 1 0 0 1 .29.12zm-.02.37a.21.21 0 1 1-.42 0 .21.21 0 0 1 .42 0m-.3-.6v.17a.4.4 0 0 0-.17.08l-.12-.13a1 1 0 0 1 .28-.12m-.27.36a.4.4 0 0 0-.06.17h-.18a1 1 0 0 1 .12-.3zm-.23.33h.17a.4.4 0 0 0 .08.16l-.13.13a1 1 0 0 1-.12-.29M1.4 2a.4.4 0 0 0 .17.07v.17a1 1 0 0 1-.29-.11zm.33.24v-.18L1.9 2l.13.12a1 1 0 0 1-.29.13M2 1.87l.07-.16h.17a1 1 0 0 1-.11.29z"/></svg>