<svg xmlns="http://www.w3.org/2000/svg" viewBox="0 0 32 32"><title>file_type_lex</title><path d="M24.861,8.27a3.494,3.494,0,0,1,4.18,2.09,2.129,2.129,0,0,1,0,1.045c-1.085,4.3-15.788,17.167-20.9,17.766a4.931,4.931,0,0,1-1.045,0c-2.288-.246-4.439-2.112-4.18-3.135.175-.693,1.432-.9,2.09-1.045,7.739-1.677,17.086-12.408,18.811-15.676A2.261,2.261,0,0,1,24.861,8.27Z" style="fill:#795548"/><path d="M15.743,24.948c.675.617,1.414,1.314,2.3,2.025,3.946,3.168,6.523,3.166,7.231,2.943a1.025,1.025,0,0,0,.581-.4,1.755,1.755,0,0,0-.29-1.744c-.519-.748-1.314-.955-1.236-1.272a.35.35,0,0,1,.255-.218c.562-.142.938,1.226,1.853,1.344.66.086,1.4-.5,1.381-.908-.015-.324-.508-.349-.727-.909-.155-.4.049-.5-.073-.981-.156-.619-.542-.656-.69-1.235-.108-.422.067-.516.072-1.09a6.261,6.261,0,0,0-.508-1.781,19.293,19.293,0,0,0-.654-1.853c-.341-.8-.529-1.027-1.054-2.035-.572-1.1-.853-1.794-1.017-2.143-1.026-2.177-3.847-4.235-6.178-5.378-2.445-1.2-3.978-1.208-4.687-2.725-.339-.727-.084-.933-.545-1.89C11.68,4.54,10.505,2.18,8.522,2.01a4.084,4.084,0,0,0-1.344.146A3.911,3.911,0,0,0,6.051,2.7c-.234.158-.8.538-1.368.96a.291.291,0,0,0-.049-.234.465.465,0,0,0-.617,0c-.139.155-.069.466.054.7-.6.479-1.066.933-.963,1.113.195.343,2.054-.976,3.343-.181a1.769,1.769,0,0,1,.48.44A8.25,8.25,0,0,1,6.56,8.187a9.221,9.221,0,0,1-1.126,2.58c-.134.2-.4.586-.364.618.058.046.721-.718.968-.906a3.36,3.36,0,0,0-.1.365c-.409.685-1.319,2.007-1.159,2.14.1.081.506-.344.617-.255.231.185-1.2,2.26-1.017,2.4.113.085.734-.644.872-.545.181.13-.684,1.54-.545,1.635s1.334-1.535,1.6-1.381c.215.125-.352,1.324-.182,1.417.1.057.455-.318.811-.789A5.489,5.489,0,0,0,7.287,17.2a9.843,9.843,0,0,0,.872,1.49c.927,1.579.761,1.914,1.417,2.543a6.1,6.1,0,0,0,1.526.945,13.311,13.311,0,0,0,1.781.763A6.046,6.046,0,0,1,14.663,24" style="fill:#b50000"/></svg>