<svg xmlns="http://www.w3.org/2000/svg" viewBox="0 0 32 32"><title>file_type_hunspell</title><path d="M6,27.5a.5.5,0,0,1-.5-.5V8a.5.5,0,0,1,.366-.482l18-5A.509.509,0,0,1,24,2.5a.5.5,0,0,1,.5.5V22a.5.5,0,0,1-.366.481l-18,5A.472.472,0,0,1,6,27.5Z" style="fill:#e2e2e2"/><path d="M24,3V22L6,27V8L24,3m0-1a1.018,1.018,0,0,0-.268.036l-18,5A1,1,0,0,0,5,8V27a1,1,0,0,0,1,1,1.018,1.018,0,0,0,.268-.036l18-5A1,1,0,0,0,25,22V3a1,1,0,0,0-1-1Z" style="fill:#c0ca33"/><path d="M9,28.5a.5.5,0,0,1-.5-.5V9a.5.5,0,0,1,.366-.482l18-5A.509.509,0,0,1,27,3.5a.5.5,0,0,1,.5.5V23a.5.5,0,0,1-.366.481l-18,5A.472.472,0,0,1,9,28.5Z" style="fill:#7cb342"/><path d="M27,4V23L9,28V9L27,4m0-1a1.018,1.018,0,0,0-.268.036l-18,5A1,1,0,0,0,8,9V28a1,1,0,0,0,1,1,1.018,1.018,0,0,0,.268-.036l18-5A1,1,0,0,0,28,23V4a1,1,0,0,0-1-1Z" style="fill:#c0ca33"/><path d="M9,28.5a.537.537,0,0,1-.158-.025l-3-1A.5.5,0,0,1,5.5,27V8A.5.5,0,0,1,6,7.5a.48.48,0,0,1,.158.026l3,1A.5.5,0,0,1,9.5,9V28a.5.5,0,0,1-.5.5Z" style="fill:#7cb342"/><path d="M6,8,9,9V28L6,27V8M6,7A1,1,0,0,0,5,8V27a1,1,0,0,0,.684.949l3,1A1.01,1.01,0,0,0,9,29a1,1,0,0,0,1-1V9a1,1,0,0,0-.684-.949l-3-1A1.01,1.01,0,0,0,6,7Z" style="fill:#c0ca33"/><path d="M18.952,14.329c-.652.06-1.345.124-2.039.185-.282.026-.283.024-.293.315l-.06,1.913c0,.045,0,.091-.006.136a.279.279,0,0,1-.212.273.268.268,0,0,1-.318-.167c-.185-.358-.371-.717-.555-1.075-.119-.232-.245-.46-.352-.7a.27.27,0,0,0-.368-.174c-.581.145-1.166.272-1.75.407-.057.013-.114.028-.171.036a.267.267,0,0,1-.3-.13.261.261,0,0,1,.059-.337c.254-.252.511-.5.768-.751.191-.186.379-.377.578-.554A.255.255,0,0,0,14,13.339c-.313-.571-.611-1.15-.915-1.725l-.044-.087a.288.288,0,0,1,.034-.361.272.272,0,0,1,.358-.03q.6.321,1.208.64c.143.076.294.142.429.232.172.114.282.068.414-.076.408-.447.831-.88,1.248-1.319.041-.042.081-.085.122-.126a.3.3,0,0,1,.371-.083c.146.077.155.208.121.355-.15.64-.3,1.281-.446,1.921-.074.313-.076.311.22.418l1.8.652a1.034,1.034,0,0,1,.16.07.259.259,0,0,1,.145.293C19.2,14.234,19.116,14.3,18.952,14.329Z" style="fill:#e2e2e2"/><path d="M23.993,20.642a.309.309,0,0,1-.1.291c-.147.156-.293.313-.443.467-.2.2-.309.205-.512.013q-.953-.894-1.9-1.794L17.875,16.63c-.227-.215-.231-.324-.016-.555.133-.142.265-.286.4-.426.186-.19.3-.2.5-.011q1.089,1.021,2.172,2.048l2.851,2.693A.65.65,0,0,1,23.993,20.642Z" style="fill:#e2e2e2"/><path d="M15.257,10.537c.025.16.054.32.074.481.012.092-.015.173-.122.188s-.145-.055-.161-.136q-.082-.44-.155-.882c-.015-.092.016-.173.123-.187s.145.052.163.135c.029.133.049.268.072.4Z" style="fill:#e2e2e2"/><path d="M12.988,13.541c-.278-.006-.6-.01-.927-.022a.127.127,0,0,1-.124-.129.131.131,0,0,1,.129-.145,7.912,7.912,0,0,1,.974.007.127.127,0,0,1,.123.13C13.167,13.469,13.112,13.51,12.988,13.541Z" style="fill:#e2e2e2"/><path d="M17.87,12.6c-.12.03-.183.019-.222-.044a.128.128,0,0,1,.044-.188c.275-.162.553-.317.834-.468a.129.129,0,0,1,.184.059.124.124,0,0,1-.043.173C18.389,12.3,18.107,12.461,17.87,12.6Z" style="fill:#e2e2e2"/><path d="M14.107,17c-.115.029-.215-.065-.172-.171a6.51,6.51,0,0,1,.436-.887.123.123,0,0,1,.172-.041.116.116,0,0,1,.071.144,5.455,5.455,0,0,1-.455.919C14.147,16.984,14.118,16.993,14.107,17Z" style="fill:#e2e2e2"/></svg>