<?xml version="1.0" encoding="UTF-8"?>
<svg width="32px" height="32px" viewBox="0 0 32 32" version="1.1" xmlns="http://www.w3.org/2000/svg" xmlns:xlink="http://www.w3.org/1999/xlink">
    <!-- Generator: Sketch 53 (72520) - https://sketchapp.com -->
    <title>Artboard</title>
    <desc>Created with Sketch.</desc>
    <g id="Artboard" stroke="none" stroke-width="1" fill="none" fill-rule="evenodd">
        <path d="M5.84848485,6 L30,6 L30,22.6539394 C28.7030303,23.9551515 27.4018182,25.2521212 26.0975758,26.5454545 L2,26.5454545 L2,9.84181818 C3.27757576,8.55636364 4.56606061,7.28060606 5.84848485,6 Z M9.41636364,10.3230303 C8.63515152,10.829697 8.17272727,11.6921212 7.89333333,12.5563636 C7.53212121,13.7054545 7.45575758,14.9218182 7.46424242,16.1193939 C7.48060606,17.2272727 7.57636364,18.3509091 7.93272727,19.4066667 C8.15030303,20.0309091 8.46848485,20.6448485 8.97515152,21.0836364 C9.63454545,21.6587879 10.5054545,21.9193939 11.36,22.0218182 C12.0733333,22.1006061 12.7993939,22.109697 13.5090909,21.9933333 C14.0339394,22.8551515 14.5545455,23.72 15.0775758,24.5830303 C15.6921212,24.3012121 16.3042424,24.0163636 16.9181818,23.7333333 C16.429697,22.9418182 15.9315152,22.1563636 15.4430303,21.3648485 C16.1236923,20.8721114 16.6350052,20.1806216 16.9066667,19.3854545 C17.310303,18.2236364 17.3654545,16.9775758 17.3636364,15.7581818 C17.3490909,14.5472727 17.2218182,13.3169697 16.7884848,12.1775758 C16.5206061,11.4836364 16.1187879,10.8127273 15.5006061,10.3781818 C14.649697,9.76545455 13.5721212,9.58545455 12.5454545,9.57272727 C11.4672727,9.5630303 10.3333333,9.71636364 9.41636364,10.3230303 Z M11.7278788,11.3151515 C12.3515152,11.2339394 13.0060606,11.2557576 13.5963636,11.4915152 C14.0805913,11.6813444 14.4737654,12.0493623 14.6951515,12.52 C15.0242424,13.2309091 15.150303,14.0157576 15.2139394,14.7909091 C15.2830303,15.8224242 15.2733333,16.8636364 15.1309091,17.8890909 C15.0309091,18.4993939 14.8884848,19.1424242 14.4751515,19.6236364 C14.0557576,20.1066667 13.4090909,20.3139394 12.7884848,20.3624242 C12.1339394,20.410303 11.4436364,20.3624242 10.8527273,20.0527273 C10.5033255,19.8697488 10.2204432,19.5813531 10.0442424,19.2284848 C9.8369697,18.8060606 9.7230303,18.3448485 9.6430303,17.8830303 C9.40181818,16.4187879 9.34363636,14.9036364 9.67333333,13.4478788 C9.80909091,12.8987879 10.0066667,12.3351515 10.4078788,11.9212121 C10.7569697,11.5666667 11.2430303,11.3836364 11.7278788,11.3151515 Z M19.8260606,10.2842424 C19.8242424,11.1339394 19.8266667,11.9830303 19.8248485,12.8327273 C19.3769697,12.8345455 18.929697,12.8321212 18.4818182,12.8339394 C18.4806061,13.3854545 18.4806061,13.9369697 18.4818182,14.4878788 C18.929697,14.489697 19.3775758,14.4878788 19.8254545,14.4890909 C19.8260606,15.8630303 19.8248485,17.2363636 19.8260606,18.610303 C19.8393939,19.3709091 19.8642424,20.1593939 20.170303,20.8678788 C20.3412121,21.2842424 20.7339394,21.5636364 21.1551515,21.6884848 C22.1551515,22.0048485 23.2115152,21.8024242 24.2181818,21.6333333 C24.1890909,21.1266667 24.1593939,20.6193939 24.1284848,20.1127273 C23.6224242,20.1218182 23.1169697,20.1515152 22.6109091,20.1533333 C22.3424242,20.1442424 22.0127273,20.0745455 21.890303,19.8030303 C21.7224242,19.4509091 21.7309091,19.0484848 21.7151515,18.6672727 C21.7078788,17.2745455 21.7139394,15.8818182 21.7121212,14.4890909 C22.5327273,14.4872727 23.3527273,14.489697 24.1733333,14.4878788 C24.1890909,13.9363636 24.2042424,13.3848485 24.2181818,12.8333333 C23.3969697,12.8327273 22.5757576,12.8339394 21.7545455,12.8327273 C21.7527273,11.9830303 21.7551515,11.1339394 21.7533333,10.2842424 L19.8260606,10.2842424 Z" id="Combined-Shape" fill="#41CD52" fill-rule="nonzero"></path>
    </g>
</svg>