<svg xmlns="http://www.w3.org/2000/svg" fill="none" viewBox="0 0 32 32"><path fill="#fff" fill-rule="evenodd" d="M25.88 6.1a5.7 5.7 0 0 0-6.2-3.59c-1.08.2-2.1.7-2.9 1.43a5.3 5.3 0 0 0-5.33-1.23A5.4 5.4 0 0 0 7.9 8.4c-1.73.12-3.6.99-4.52 2.86a5.5 5.5 0 0 0-.2 4.26 5.2 5.2 0 0 0 2.79 2.99c1.13.49 2.44.58 3.62.28l.77 1.43.17.3.07.14.16.3.03.05.2.37-.05.05-.04.04A3.7 3.7 0 0 0 10 25.2a3.3 3.3 0 0 0 3.13 2.14q.85-.04 1.59-.54a7.5 7.5 0 0 0 5.7 2.77q.45 0 .92-.06a7.2 7.2 0 0 0 4.9-3.06 7 7 0 0 0 1.28-4s.02-1.89-.57-3.28c.93-.5 1.57-1.4 1.67-2.41a2.76 2.76 0 0 0-1.97-2.93q-.88-.3-1.93-.1l-.55-1.33a5.7 5.7 0 0 0 1.71-6.3" clip-rule="evenodd"/><path fill="#000" fill-rule="evenodd" d="M19.88 3.27c2.23-.4 4.53.94 5.35 3.1a4.9 4.9 0 0 1-1.94 5.77l1.05 2.51a3.4 3.4 0 0 1 2.14-.08 2 2 0 0 1 1.44 2.1 2.4 2.4 0 0 1-1.67 1.99c-.4.13-1.05.24-1.66.13a3.5 3.5 0 0 1-2.3 1.67c-.99.23-2.03.02-2.87-.56a.4.4 0 0 1-.17-.26.4.4 0 0 1 .07-.27q.11-.15.27-.18.15-.03.3.07a2.83 2.83 0 0 0 3.94-.75 1 1 0 0 1-.33-.28c-.29-.34-.31-.92-.05-1.32.2-.31.53-.43.9-.32q.36.1.52.4c.16.33.11.73.04 1.03.54.07 1.12-.06 1.54-.33.48-.32.86-1.01.61-1.65-.26-.67-1.08-.88-1.79-.8-.71.1-1.4.41-2.07.72l-.26.12a34 34 0 0 0-6.42 3.82q-.15.1-.31.08a.4.4 0 0 1-.25-.16c-.12-.16-.13-.4.07-.55a34 34 0 0 1 7.15-4.18l.16-.07.3-.13-.2-.53c-1.23.42-6.94 2.52-10.75 6.78l.07.12c.62-.2 1.33-.24 2-.1.25.06.35.3.3.5q-.02.16-.15.25a.4.4 0 0 1-.28.04c-.96-.2-1.86 0-2.47.56-.6.55-.86 1.42-.61 2.13.25.73 1.04 1.23 1.75 1.1.83-.13 1.39-.97 1.83-1.64l.02-.03c.12-.18.34-.22.52-.1q.15.09.18.24.06.13-.05.33l-.33.47a5.8 5.8 0 0 0 6.27 2.85 5.8 5.8 0 0 0 4.29-5.49c0-.2.15-.36.36-.36s.43.17.43.43A6.4 6.4 0 0 1 25.67 26a6.4 6.4 0 0 1-5.7 2.77 6.7 6.7 0 0 1-5.04-3.1q-.81.86-1.76.9c-1 .03-2.03-.67-2.37-1.63a2.9 2.9 0 0 1 1.24-3.34l-.7-1.3-1.32-2.44a4.8 4.8 0 0 1-3.68-.06 4.4 4.4 0 0 1-2.37-2.54 4.7 4.7 0 0 1 .17-3.65c.93-1.9 3.08-2.58 4.72-2.42-.74-3.52 1.58-5.3 2.91-5.75a4.5 4.5 0 0 1 5.06 1.64 5 5 0 0 1 3.05-1.8m-3.51 2.56a3.8 3.8 0 0 0-3.92-1.74c-.96.2-1.75.78-2.28 1.65a4.8 4.8 0 0 0-.5 3.54c.54.08 1.29.25 1.9.7.58.43.72 1.19.3 1.76-.18.27-.49.45-.84.5q-.6.08-1.06-.3c-.55-.44-.8-1.22-.96-1.93-.86-.19-1.78 0-2.36.26a3.6 3.6 0 0 0-1.92 2.04c-.37 1-.33 2.1.12 3.05.4.86 1.16 1.5 2.11 1.83 1.03.34 2.14.26 3.06-.21a.4.4 0 0 1 .17-.05c.15 0 .3.12.36.24.14.26.47.87.8 1.52l.95 1.76c3.9-4.24 9.6-6.34 10.84-6.77l-1.04-2.41c-.09-.25.06-.46.25-.53.18-.07.4-.01.5.22l.15.42a4.2 4.2 0 0 0 1.67-2.83 4 4 0 0 0-.98-3.19 4.2 4.2 0 0 0-3.6-1.28 3.6 3.6 0 0 0-2.8 1.76l.12.16.01.01c.39.55 1.04 1.46.42 2.3a1 1 0 0 1-.66.35c-.3.04-.61-.03-.8-.17-.79-.6-.53-1.76-.01-2.66M24.1 17.4q-.06 0-.07.12.01.16.13.25.06-.21 0-.32 0-.03-.06-.05M9.87 10.14q.16.56.4.93c.14.24.45.4.68.38q.25-.04.34-.3a.4.4 0 0 0-.03-.38c-.16-.27-.67-.5-1.39-.63m7.02-3.57q-.1.23-.15.47c-.08.46 0 .66.09.75q.08.09.16.07.21 0 .27-.15c.1-.23-.05-.69-.37-1.14" clip-rule="evenodd"/><path fill="#000" d="M24.17 24.45q.24.02.34.24.1.2-.04.4a4.7 4.7 0 0 1-5.8 1.5l-.12.23a.4.4 0 0 1-.24.2.4.4 0 0 1-.33-.03.35.35 0 0 1-.16-.5l.66-1.28a.4.4 0 0 1 .57-.17c.2.1.26.3.16.5l-.18.34c1.73.8 3.7.28 4.8-1.27q.12-.18.34-.16M12.8 22.88l.6.08.33.04q.22.03.33.23.1.2 0 .4l-.6 1.19a.4.4 0 0 1-.3.22h-.06a.4.4 0 0 1-.35-.18.4.4 0 0 1-.01-.37l.38-.75-.43-.07a.4.4 0 0 1-.3-.25.4.4 0 0 1 .06-.41q.14-.15.36-.13"/><path fill="#000" d="M22.2 22.64q.16-.13.38-.05c.57.24.89.88.71 1.45a1.2 1.2 0 0 1-1.4.81.4.4 0 0 1-.3-.27.4.4 0 0 1 .08-.41q.14-.16.35-.1a.4.4 0 0 0 .49-.27c.05-.16.01-.36-.24-.47a.4.4 0 0 1-.24-.3.4.4 0 0 1 .17-.4M18.52 22.17a2 2 0 0 1 1.82-.06q.2.1.23.32 0 .24-.18.39a.4.4 0 0 1-.37.02 1.2 1.2 0 0 0-1.11.03c-.33.18-.55.52-.59.93a.4.4 0 0 1-.32.34h-.11c-.2-.02-.39-.18-.36-.44.07-.65.43-1.21.99-1.53M23.4 20.66c.52-.06 1.01.15 1.35.57q.15.16.07.37a.4.4 0 0 1-.32.27h-.02a.4.4 0 0 1-.35-.14.7.7 0 0 0-.65-.28.7.7 0 0 0-.56.4.4.4 0 0 1-.36.23 1 1 0 0 1-.2-.05.36.36 0 0 1-.17-.5c.25-.49.7-.81 1.22-.87"/></svg>