<svg xmlns="http://www.w3.org/2000/svg" version="1.1" viewBox="0 0 32 32"><g fill-rule="evenodd"><path d="M72.6 16.2V12a2.7 2.7 0 1 1 5.3 0v4.2m-14.2 0V12c0-1.5 1.2-2.7 2.6-2.7A2.6 2.6 0 0 1 69 12v4.2m-14.3 0V12a2.7 2.7 0 1 1 5.3 0v4.2m-14.2 0V12a2.7 2.7 0 1 1 5.3 0v4.2m-14.3 0V12a2.7 2.7 0 1 1 5.3 0v4.2m-14.3 0V12a2.7 2.7 0 1 1 5.4 0v4.2M77.9 56v4.6a2.7 2.7 0 1 1-5.3 0v-4.6M69 56v4.6a2.7 2.7 0 1 1-5.3 0v-4.6M60 56v4.6a2.7 2.7 0 1 1-5.3 0v-4.6m-3.6 0v4.6a2.7 2.7 0 1 1-5.3 0v-4.6M42 56v4.6a2.7 2.7 0 1 1-5.3 0v-4.6m-3.6.2v4.5a2.7 2.7 0 1 1-5.3 0v-4.5" fill="#ffffff" stroke="#000" stroke-width="2.2" fill-opacity="1" transform="matrix(.36884 0 0 .36884 -.6 2.6)"/><path d="M79.3 16.2H26.5a1 1 0 0 0-1 1v38c0 .4.5.9 1 .9h52.8c.5 0 1-.5 1-1v-38c0-.5-.5-1-1-1z" fill="#ffffff" stroke="#000" stroke-width="2.4" fill-opacity="1" transform="matrix(.36884 0 0 .36884 -.6 2.6)"/><path d="M61.6 35.4v-5h-1.8v3.2L53 26.8 41.5 38.3h2.9v7.8h17.2v-7.8h2.9z" fill="none" fill-rule="nonzero" transform="matrix(.36884 0 0 .36884 -.6 2.6)"/><path d="M61.6 35.4v-5h-1.8v3.2L53 26.8 41.5 38.3h2.9v7.8h17.2v-7.8h2.9z" stroke="#000" stroke-width="2" stroke-linecap="round" stroke-linejoin="round" fill="#000" fill-opacity="1" transform="matrix(.36884 0 0 .36884 -.6 2.6)"/><path d="M25.3 53.8H9.5v-4h11.9V46H9.5V42h11.9v-3.9H9.5v-3.9h11.9v-3.8H9.5v-12" stroke="#000" stroke-width="2.2" stroke-linecap="round" stroke-linejoin="round" fill="none" transform="matrix(.36884 0 0 .36884 -.6 2.6)"/></g></svg>