<svg xmlns="http://www.w3.org/2000/svg" viewBox="0 0 32 32"><title>file_type_sparql</title><path d="M26.284,20.361c-.165-.084-.359-.164-.523-.248H25.9s-1.158-.5-1.24-4.176c-.111-3.655,1.1-4.289,1.1-4.289a4.96,4.96,0,0,0,2.176-2.143,5.122,5.122,0,0,0-2.122-6.927,5.342,5.342,0,0,0-7.138,2.146,5.067,5.067,0,0,0-.523,3.214L18.1,7.855s.3,1.319-2.839,3.272c-3.115,1.95-4.549.962-4.549.962l.082.138a2.131,2.131,0,0,0-.273-.167,5.117,5.117,0,1,0,.825,8.52l-.025.055s1.129-.933,4.407.827c2.592,1.374,2.979,2.748,3.033,3.24a5.1,5.1,0,0,0,2.7,4.7,5.124,5.124,0,1,0,4.825-9.041Zm-5.79.685c-.412.138-1.6.3-4.077-1.017-2.7-1.454-3.115-2.664-3.169-3.021a5.406,5.406,0,0,0-.057-1.319l.029.026S13,14.534,16.084,12.639c2.757-1.705,4.026-1.374,4.245-1.293a2.83,2.83,0,0,0,.47.277,4.082,4.082,0,0,0,.964.383c.387.357,1.076,1.374,1.158,4.1s-.717,3.764-1.158,4.121A5.04,5.04,0,0,0,20.494,21.047Z" style="fill:#0c479c"/><path d="M20.135,4.229a3.861,3.861,0,0,0-.082,5.386c-.717-.685-.688-2.117.029-3.462a.673.673,0,0,1,.746-.277c.025,0,.054.029.082.029a.993.993,0,0,0,.276.026A1.056,1.056,0,0,0,22.2,4.805a.934.934,0,0,0-.3-.685c1.38-.907,2.95-1.017,3.61-.412h.029A3.826,3.826,0,0,0,20.135,4.229ZM5.145,13.846a3.859,3.859,0,0,0-.082,5.389c-.717-.689-.692-2.117.025-3.465a.668.668,0,0,1,.746-.273c.025,0,.054.029.082.029a1,1,0,0,0,.276.026A1.056,1.056,0,0,0,7.21,14.425a.945.945,0,0,0-.3-.689c1.377-.907,2.947-1.017,3.61-.412h.025A3.852,3.852,0,0,0,5.145,13.846Zm15.872,8.163a3.865,3.865,0,0,0-.082,5.389c-.717-.689-.688-2.117.029-3.465a.668.668,0,0,1,.746-.273c.025,0,.054.026.082.026a.887.887,0,0,0,.276.029,1.057,1.057,0,0,0,1.018-1.126.936.936,0,0,0-.3-.689c1.38-.907,2.95-1.017,3.61-.412h.029A3.829,3.829,0,0,0,21.017,22.009Z" style="fill:#fff"/></svg>