<svg viewBox="0 0 32 32" xmlns="http://www.w3.org/2000/svg" xmlns:xlink="http://www.w3.org/1999/xlink"><linearGradient id="a" gradientUnits="userSpaceOnUse" x1="16" x2="16" y1="-.443" y2="22.042"><stop offset=".021" stop-color="#ff0c15"/><stop offset="1" stop-color="#9a0c0f"/></linearGradient><circle cx="16" cy="16" fill="url(#a)" r="14"/><path d="m27.545 16.243h-22.621a.914.914 0 0 0 -1.092.82q.033.429.1.849a12.4 12.4 0 0 0 24.532 0q.075-.5.108-1.021c-.094-.368-.361-.684-1.027-.648z" fill="#ff6443"/><g fill-rule="evenodd"><path d="m18.48 11.64 5.227-4.374-3.92-1.386-3.787 5.173" fill="#fae7e3"/><path d="m15.68 11.026 2.96-5.146h-3.787l-1.546 5.413" fill="#fae7e3"/><path d="m13.04 11.373.56-4.667-3.013 1.254.426 4.8" fill="#fae7e3"/><path d="m10.747 13-.96-4.24-2.08 2.08 1.946 3.84" fill="#fae7e3"/><path d="m9.387 15.053-1.894-2.677-.853 2.09 2.4 2.051" fill="#fae7e3"/><path d="m9.04 16.757-2.4-1.544-.16 2.187 2.72.933" fill="#fae7e3"/><path d="m9.227 18.846-2.587-.806.587 1.76h2.32" fill="#fae7e3"/><path d="m9.707 20.093-2 .293.92 1.36 1.64-.746" fill="#fae7e3"/><path d="m20.023 13.089a6.61 6.61 0 0 0 -4.53-2 6.293 6.293 0 0 0 -4.193 10.981l4.941.129-2.08-4.16z" fill="#eee"/></g><path d="m16.5 22.366-5.267-.138-.044-.039a6.453 6.453 0 0 1 4.3-11.264 6.787 6.787 0 0 1 4.643 2.05l.123.123-5.9 4.982zm-5.14-.455 4.616.121-2.015-4.032 5.825-4.919a6.43 6.43 0 0 0 -4.292-1.835 6.133 6.133 0 0 0 -4.131 10.667z" fill="#ee4b2e"/><path d="m12.013 20.493c-4.173-5.813 2.109-8.172 2.478-8.453.451-.344-7.59 1.785-3.226 8.88z" fill="#f04e31" fill-rule="evenodd"/><path d="m20.72 12.6-7.2 4.967.213 1.006 7.734-1.547z" fill="#eee" fill-rule="evenodd"/><path d="m13.61 18.761-.269-1.261 7.495-5.17.814 4.828zm.089-1.123.158.747 7.426-1.485-.683-4.026z" fill="#ee4b2e"/><path d="m15.723 21.319c-3.93-.668-4.283.428-4.283.428l-1.173 2.693s1.12-.907 5.493 0l.76-1.388z" fill="#dd0c13" fill-rule="evenodd"/><path d="m14.122 21.6c-.02-.2-1.1-.319-1.677-.123-.732.249-1.219 1.142-1.045 1.213a1.975 1.975 0 0 1 1.125-.986c.922-.211 1.617.096 1.597-.104z" fill="#ff6e4f" fill-rule="evenodd"/><path d="m15.52 18.606a11.1 11.1 0 0 0 1.547 1.487 6.9 6.9 0 0 1 2.72 4.107c-.107 1.067-1.973 1.76-1.973 1.76l-3.307-7.194z" fill="#eee" fill-rule="evenodd"/><path d="m17.73 26.161-3.457-7.521 1.32-.208.057.081a10.869 10.869 0 0 0 1.512 1.451 7 7 0 0 1 2.782 4.207v.022.022c-.115 1.153-2 1.864-2.077 1.894zm-2.99-7.27 3.155 6.863c.414-.178 1.63-.763 1.73-1.548a6.793 6.793 0 0 0 -2.648-3.981l-.01-.007a11.94 11.94 0 0 1 -1.517-1.439z" fill="#ee4b2e"/><path d="m28 12.742c.025.394.034.792.025 1.194a13.946 13.946 0 0 1 -19.9 12.3 12.86 12.86 0 0 0 19.875-13.494z" fill="#eae0df" fill-rule="evenodd" opacity=".2"/><path d="m2.383 13.893a13.941 13.941 0 0 1 23.317-8.063s-5.009 5.979-10.584 7.907-12.733.156-12.733.156z" fill="#eae0df" opacity=".2"/><path d="m3.618 18.694c-.044-.392-.072-.79-.083-1.191-.206-7.696 6.477-13.303 14.173-13.512a14.2 14.2 0 0 1 5.719 1.458 13.128 13.128 0 0 0 -7.188-2.369c-7.1.19-13.306 5.3-13.116 12.4a12.873 12.873 0 0 0 .495 3.214z" fill="#eae0df" fill-rule="evenodd" opacity=".2"/></svg>