<svg xmlns="http://www.w3.org/2000/svg" viewBox="0 0 32 32"><title>file_type_saltstack@2x</title><g id="saltstack"><path d="M17.25,11V6.65l6.41,3.24v6.34L21.11,15V13l-3.86-2" style="fill:#4396b9"/><path d="M25.72,15.2l1.66.85-6.26,3.13,0-4.18,2.55,1.23,2.07-1" style="fill:#b8dde8"/><path d="M17.25,8.41,14.64,9.7,17.25,11V8.41" style="fill:#75bed5"/><path d="M14.76,22.4l-.05-6.32L8.36,12.91,2,9.77v6.41H2l.06,6.21,6.15,3.07.18.09h0l6.36,3.17V22.4h0" style="fill:#4396b9"/><path d="M27.38,16.05l-6.27,3.14V13l-6.4,3.06.05,6.45v6.21l6.34-3.17v0l6.27-3.14V16.05" style="fill:#75bed5"/><path d="M30,13.06l-6.34,3.17V9.89L30,6.72v6.34" style="fill:#75bed5"/><path d="M17.25,6.65l6.41,3.24L30,6.72,23.53,3.41,19.16,5.67l-4.7-2.41L8.07,6.58,2,9.77l6.36,3.14,6.35,3.16L21.11,13,14.64,9.7l-.08,0h0l.1,0,2.61-1.3V6.65" style="fill:#b8dde8"/></g></svg>