<?xml version="1.0" standalone="no"?>
<!DOCTYPE svg PUBLIC "-//W3C//DTD SVG 20010904//EN"
 "http://www.w3.org/TR/2001/REC-SVG-20010904/DTD/svg10.dtd">
<svg version="1.0" xmlns="http://www.w3.org/2000/svg"
 width="106.000000pt" height="120.000000pt" viewBox="0 0 106.000000 120.000000"
 preserveAspectRatio="xMidYMid meet">

<g transform="translate(0.000000,120.000000) scale(0.100000,-0.100000)"
fill="#000000" stroke="none">
<path d="M375 1039 c-139 -49 -254 -164 -301 -299 -24 -73 -25 -206 -1 -277
l18 -51 -32 -57 c-17 -31 -28 -60 -23 -64 23 -20 487 -282 491 -277 3 3 -8 29
-25 59 l-31 55 82 4 c90 6 169 31 239 78 l43 29 3 -24 c2 -14 6 -25 10 -25 4
1 48 24 97 53 98 57 108 73 80 126 -13 27 -13 30 0 25 13 -5 15 26 15 252 0
180 -3 254 -11 244 -5 -8 -21 -36 -35 -62 -13 -27 -28 -48 -33 -48 -4 0 -17
19 -27 43 -29 64 -130 159 -210 198 -63 31 -78 34 -179 36 -91 3 -120 0 -170
-18z m122 -214 l0 -70 -8 85 c-4 47 -7 108 -6 135 0 48 0 47 7 -15 4 -36 7
-96 7 -135z m100 62 c-2 -23 -3 -1 -3 48 0 50 1 68 3 42 2 -26 2 -67 0 -90z
m-260 21 c-2 -13 -4 -3 -4 22 0 25 2 35 4 23 2 -13 2 -33 0 -45z m100 -35 c-2
-16 -4 -3 -4 27 0 30 2 43 4 28 2 -16 2 -40 0 -55z m220 30 c-3 -10 -5 -4 -5
12 0 17 2 24 5 18 2 -7 2 -21 0 -30z m-110 -60 c-2 -16 -4 -3 -4 27 0 30 2 43
4 28 2 -16 2 -40 0 -55z m-200 -40 c-2 -16 -4 -3 -4 27 0 30 2 43 4 28 2 -16
2 -40 0 -55z m53 33 c0 -26 -6 -18 -14 19 -5 22 -4 26 4 15 5 -8 10 -24 10
-34z m-191 -40 c1 -55 -5 -42 -12 24 -3 34 -2 47 3 35 5 -11 9 -38 9 -59z m50
-60 c1 -70 -5 -53 -12 29 -3 41 -2 60 3 45 4 -14 8 -47 9 -74z m398 47 c-3
-10 -5 -2 -5 17 0 19 2 27 5 18 2 -10 2 -26 0 -35z m-490 -35 c-2 -13 -4 -3
-4 22 0 25 2 35 4 23 2 -13 2 -33 0 -45z m368 -29 c123 -34 173 -144 178 -399
l2 -105 -50 -16 c-27 -9 -75 -20 -106 -23 l-56 -7 0 133 c0 73 -3 143 -7 154
-5 18 -1 24 24 32 32 12 41 32 14 32 -9 0 -41 -7 -71 -16 -110 -32 -205 -1
-211 68 -4 40 33 97 51 79 18 -18 30 -13 24 9 -6 23 26 44 90 59 53 13 72 12
118 0z m-358 -36 c-3 -10 -5 -4 -5 12 0 17 2 24 5 18 2 -7 2 -21 0 -30z m690
-30 c-2 -16 -4 -5 -4 22 0 28 2 40 4 28 2 -13 2 -35 0 -50z m-480 -330 c-3
-10 -5 -2 -5 17 0 19 2 27 5 18 2 -10 2 -26 0 -35z"/>
<path d="M380 645 c0 -8 7 -15 15 -15 8 0 15 7 15 15 0 8 -7 15 -15 15 -8 0
-15 -7 -15 -15z"/>
<path d="M25 890 c-3 -5 -4 -10 -1 -10 2 0 12 -3 20 -6 12 -5 15 -2 10 10 -7
18 -20 21 -29 6z"/>
</g>
</svg>
