<svg version="1.1" viewBox="0 0 32 32" xmlns="http://www.w3.org/2000/svg"><g transform="translate(0 -.36523)"><path d="m30 30v-22.367l-28 2.734v19.633z" fill="#84421d"/><path d="m25.742 10.477c-0.062-0.52 0.989-1.395 0.934-1.914l3.324 0.875v7.984c-1.264-4.73-4.157-5.523-4.258-6.945" fill="#815021"/><path d="m30 5.402c-5.806-2.634-8.174-3.132-9.515-2.308-1.342 0.85 5.38 4.998 6.065 5.437 0.684 0.44 2.028 0.907 3.45 1.07z" fill="#b76f29"/><path d="m20.484 3.094-18.484 7.191v18.676c5.004-0.082 8.313-3.09 10.5-7.93 2.215-5.14 5.414-6.714 8.86-8.75 3.609-2.132 5.413-2.706 5.413-4.347 0-0.711-1.234-1.597-3.308-2.598-2.76-1.332-3.282-1.941-2.981-2.242" fill="#b0a788"/></g></svg>
