<?xml version="1.0" encoding="UTF-8" standalone="no"?><!DOCTYPE svg PUBLIC "-//W3C//DTD SVG 1.1//EN" "http://www.w3.org/Graphics/SVG/1.1/DTD/svg11.dtd"><svg width="100%" height="100%" viewBox="0 0 178 178" version="1.1" xmlns="http://www.w3.org/2000/svg" xmlns:xlink="http://www.w3.org/1999/xlink" xml:space="preserve" xmlns:serif="http://www.serif.com/" style="fill-rule:evenodd;clip-rule:evenodd;stroke-linejoin:round;stroke-miterlimit:2;"><g id="Cy-Logo" serif:id="Cy Logo"><g id="Dark"><g><g><g id="Cy-Text" serif:id="Cy Text"><path d="M134.001,61.49l-15.836,40.006l-15.942,-40.006l-13.042,0l22.357,54.605l-15.904,38.513l11.4,2.265l39.29,-95.383l-12.323,0Z" style="fill:#d2d2d2;fill-rule:nonzero;"/><g><path d="M64.398,71.61c6.616,-0 12.006,3.524 14.776,9.67l0.218,0.48l11.114,-3.769l-0.238,-0.568c-4.304,-10.463 -14.215,-16.967 -25.87,-16.967c-8.195,0 -14.855,2.623 -20.358,8.007c-5.472,5.351 -8.238,12.083 -8.238,20.008c-0,7.861 2.766,14.556 8.238,19.906c5.503,5.385 12.163,8.007 20.358,8.007c11.655,0 21.566,-6.503 25.87,-16.96l0.238,-0.568l-11.131,-3.775l-0.211,0.5c-2.481,6.037 -8,9.65 -14.766,9.65c-4.61,-0 -8.501,-1.609 -11.588,-4.776c-3.117,-3.208 -4.695,-7.235 -4.695,-11.973c0,-4.773 1.54,-8.725 4.695,-12.079c3.077,-3.184 6.978,-4.793 11.588,-4.793Z" style="fill:#d2d2d2;fill-rule:nonzero;"/></g></g><g><path d="M126.476,147.636c22.268,-14.173 34.671,-39.322 32.366,-65.621c-0.816,-9.315 -3.408,-18.216 -7.685,-26.433l10.11,-5.264c4.975,9.55 7.991,19.881 8.939,30.705c2.677,30.551 -11.727,59.757 -37.597,76.222l-6.133,-9.609Z" style="fill:url(#_Linear1);fill-rule:nonzero;"/><path d="M10.186,109.904c-1.929,-7.011 -2.91,-14.293 -2.91,-21.627c-0,-33.478 21.059,-64.089 52.408,-76.161l4.112,10.62c-26.984,10.395 -45.11,36.73 -45.11,65.541c0,6.32 0.842,12.579 2.498,18.61l-10.998,3.017Z" style="fill:#58d09e;fill-rule:nonzero;"/><path d="M59.137,12.378c6.781,-2.648 13.934,-4.383 21.239,-5.15c33.349,-3.499 66.043,14.211 81.345,44.075l-10.149,5.193c-13.175,-25.706 -41.303,-40.95 -70.003,-37.938c-6.296,0.66 -12.443,2.15 -18.277,4.425l-4.155,-10.605Z" style="fill:#58d09e;fill-rule:nonzero;"/><path d="M97.846,149.217l-2.777,6.715c-0.552,1.33 -1.813,2.228 -3.234,2.289c-0.936,0.038 -1.884,0.061 -2.841,0.061c-32.698,-0.017 -61.628,-23.031 -68.796,-54.744l-11.131,2.51c4.024,17.787 14.119,33.931 28.432,45.469c14.477,11.67 32.715,18.113 51.372,18.147l0.167,-0c1.097,-0 2.184,-0.027 3.271,-0.068c5.853,-0.245 11.087,-3.908 13.322,-9.337l3.628,-8.776l-11.413,-2.266Z" style="fill:url(#_Linear2);fill-rule:nonzero;"/></g></g></g></g></g><defs><linearGradient id="_Linear1" x1="0" y1="0" x2="1" y2="0" gradientUnits="userSpaceOnUse" gradientTransform="matrix(-29.7964,96.5783,-96.5783,-29.7964,159.323,56.8724)"><stop offset="0" style="stop-color:#58d09e;stop-opacity:1"/><stop offset="1" style="stop-color:#000;stop-opacity:0"/></linearGradient><linearGradient id="_Linear2" x1="0" y1="0" x2="1" y2="0" gradientUnits="userSpaceOnUse" gradientTransform="matrix(81.3552,9.44789,-9.44789,81.3552,15.3988,132.677)"><stop offset="0" style="stop-color:#58d09e;stop-opacity:1"/><stop offset="1" style="stop-color:#d2d2d2;stop-opacity:1"/></linearGradient></defs></svg>