<svg xmlns="http://www.w3.org/2000/svg" viewBox="0 0 32 32"><title>file_type_apib@2x</title><g id="api_blueprint" data-name="api blueprint"><path d="M18.05,12.27l4.76,7.47.37.56,1.12-.65-.37-.56-4.76-7.47L18.8,11l-1.12.65.37.65Zm-5.23-.75L8.07,19l-.37.56,1.12.65.37-.47,4.76-7.47.37-.56L13.2,11l-.37.56Z" style="fill:#a0b3c1"/><path d="M16,13.11a5,5,0,0,0,4.95-4.95,5.06,5.06,0,0,0-4.95-5,5,5,0,0,0-4.95,4.95A5.06,5.06,0,0,0,16,13.11Zm0-1.31a3.64,3.64,0,0,1-3.64-3.64,3.64,3.64,0,1,1,7.28,0A3.64,3.64,0,0,1,16,11.8Z" style="fill:#a0b3c1"/><path d="M25.05,28.88a4.95,4.95,0,1,0-4.95-4.95A5,5,0,0,0,25.05,28.88Zm0-1.31a3.64,3.64,0,0,1-3.64-3.64,3.64,3.64,0,1,1,7.28,0A3.64,3.64,0,0,1,25.05,27.57Z" style="fill:#a0b3c1"/><path d="M6.95,28.88a4.95,4.95,0,1,0,0-9.89,4.95,4.95,0,1,0,0,9.89Zm0-1.31a3.64,3.64,0,0,1-3.64-3.64,3.71,3.71,0,0,1,3.64-3.64,3.71,3.71,0,0,1,3.64,3.64A3.64,3.64,0,0,1,6.95,27.57Z" style="fill:#a0b3c1"/><circle cx="6.95" cy="23.93" r="1.68" style="fill:#5e9cff"/></g></svg>