<svg viewBox="0 0 32 32" xmlns="http://www.w3.org/2000/svg"><path d="m29.821 4.321-5.798-2.321-12.53 12.212-7.66-5.827-1.654.837v13.578l1.644.827 7.65-5.827 12.55 12.2 5.8-2.321v-23.358zm-25.171 14.871v-6.374l3.55 3.167zm11.35-3.207 7.082-5.3v10.639l-7.092-5.339z" fill="#68217a"/><path d="m15.995 15.985 7.082-5.299v10.638l-7.092-5.339z" fill="#fff"/><path d="m4.65 19.192v-6.374l3.546 3.167z" fill="#fff"/><path d="m17.631 32.03h-5.761l-4.359-16.5h6.705l.533 2.739.533-2.739h6.703z" fill="#efeef0"/><path d="m27.556 32.03h-7.311v-16.5l7.37.011a4.517 4.517 0 0 1 3.24 2.115 5.032 5.032 0 0 1 .69 2.592 5.164 5.164 0 0 1 -.643 2.471c-.066.114-.137.225-.21.332a4.893 4.893 0 0 1 .6.771 5.041 5.041 0 0 1 .7 2.586 5.757 5.757 0 0 1 -.623 2.89 5.328 5.328 0 0 1 -3.7 2.713z" fill="#efeef0"/><g fill="#00519a"><path d="m13 17.153 1.749 8.993 1.751-8.993h3.5l-3.5 13.254h-3.5l-3.5-13.254z"/><path d="m21.745 17.153h5.7a3.032 3.032 0 0 1 2.174 1.42 3.26 3.26 0 0 1 .428 1.656 3.437 3.437 0 0 1 -.428 1.651 3.119 3.119 0 0 1 -1.756 1.431 3.045 3.045 0 0 1 2.2 1.426 3.282 3.282 0 0 1 .435 1.7 4.041 4.041 0 0 1 -.434 2.067 3.788 3.788 0 0 1 -2.624 1.9h-5.69zm3.5 5.207h.874a1.393 1.393 0 0 0 1.213-1.528 1.374 1.374 0 0 0 -1.213-1.313h-.874zm0 5.684h1.045a1.619 1.619 0 0 0 1.45-1.744 1.6 1.6 0 0 0 -1.45-1.57h-1.045z"/></g></svg>