<svg xmlns="http://www.w3.org/2000/svg" xmlns:xlink="http://www.w3.org/1999/xlink" viewBox="0 0 32 32"><defs><linearGradient id="linear-gradient" x1="1965.68" y1="-1383.08" x2="2342.25" y2="-1868.56" gradientTransform="matrix(0.05, 0, 0, -0.05, -84.44, -54.65)" gradientUnits="userSpaceOnUse"><stop offset="0" stop-color="#8381c5"/><stop offset="0.57" stop-color="#7e55b3"/><stop offset="1" stop-color="#a52ecb" stop-opacity="0.99"/></linearGradient><linearGradient id="linear-gradient-2" x1="2249.29" y1="-1750.23" x2="1966.08" y2="-1408.34" gradientTransform="matrix(0.05, 0, 0, -0.05, -97.08, -68.49)" gradientUnits="userSpaceOnUse"><stop offset="0" stop-color="#411f5d"/><stop offset="1" stop-color="#5b2a85"/></linearGradient></defs><title>file_type_emacs</title><g id="emacs"><path d="M29.36,16A13.36,13.36,0,1,1,16,2.5,13.43,13.43,0,0,1,29.36,16Z" style="stroke-width:0.75px;fill:url(#linear-gradient);stroke:url(#linear-gradient-2)"/><path d="M11.41,25.48a18.16,18.16,0,0,0,2.59,0,41.73,41.73,0,0,0,4.5-.64A30.67,30.67,0,0,0,21.63,24c1.14-.42,1.76-.78,2-1.28a.62.62,0,0,0-.44-.69c-1.35-.56-2.91-.46-6-.53-3.43-.12-4.57-.69-5.17-1.15s-.29-1.77,2.21-2.91a54.27,54.27,0,0,1,6.18-1.73c-1.66-.82-4.75-2.26-5.39-2.57s-1.45-.68-1.64-1.18.52-.89.93-1a20.3,20.3,0,0,1,4.9-.65,4.31,4.31,0,0,0,1-.07A1.77,1.77,0,0,0,21.88,7.9a2.77,2.77,0,0,0-3.29-1.81c-1.37.25-4.69,1.21-4.69,1.21,4.09,0,4.78,0,5.08.46.18.25-.08.6-1.17.78S14.16,9,14.16,9c-2.37.14-4,.15-4.54,1.21-.33.69.35,1.3.65,1.69a12.73,12.73,0,0,0,4.22,2.7c.44.21,1.72.6,1.72.6a11.52,11.52,0,0,0-8.1,2.29c-1.81,1.67-1,3.66,2.69,4.89a12.75,12.75,0,0,0,6.53.77c1.92-.1,2.22,0,2.24.12s-2.13.77-2.72.94c-1.5.43-5.44,1.31-5.46,1.31Z" style="fill:#fff"/></g></svg>