<svg xmlns="http://www.w3.org/2000/svg" viewBox="0 0 32 32"><title>file_type_light_eas-metadata</title><path d="M3.164,27.188a4.047,4.047,0,0,1-.817-2.017v-.356c.061-.187.351-.787.8-1.667H8.7l-.228.377C7.076,25.833,6,27.605,5.785,27.831c-.827.849-1.96.32-2.62-.643ZM17.643,14.1c-.338-.5-.653-.956-.939-1.347a.867.867,0,0,0-1.42,0c-.285.391-.6.846-.939,1.347H7.928c2.21-4.1,4.328-7.959,4.751-8.609.911-1.4,1.189-1.7,2.728-1.749h1.174c1.539.05,1.817.354,2.727,1.749.424.65,2.542,4.505,4.752,8.609Zm5.646,9.046.228.377c1.4,2.309,2.467,4.081,2.687,4.307.827.849,1.96.32,2.62-.643a3.846,3.846,0,0,0,.828-2.321,14.309,14.309,0,0,0-.811-1.72Z"/><path d="M3.928,15.051a1.894,1.894,0,0,0-1.859,1.926v3.294A1.894,1.894,0,0,0,3.928,22.2H28.072a1.894,1.894,0,0,0,1.859-1.926V16.977a1.894,1.894,0,0,0-1.859-1.926Zm0,1.675H28.072a.247.247,0,0,1,.243.251v3.294a.247.247,0,0,1-.243.251h-3.88V18.932a.494.494,0,0,0-.485-.5h-.755a.494.494,0,0,0-.485.5v1.591H16.862V18.932a.494.494,0,0,0-.485-.5h-.755a.494.494,0,0,0-.485.5v1.591H9.533V18.932a.494.494,0,0,0-.485-.5H8.293a.494.494,0,0,0-.485.5v1.591H3.928a.247.247,0,0,1-.243-.251V16.977A.247.247,0,0,1,3.928,16.726Z"/></svg>