<svg xmlns="http://www.w3.org/2000/svg" viewBox="0 0 32 32"><title>file_type_pulumi</title><path d="M7.4,17.634c1.01-.6,1.01-2.524,0-4.3S4.753,10.58,3.76,11.175s-1.01,2.524,0,4.312S6.389,18.23,7.4,17.634Zm0,3.821c1,1.753,1,3.707,0,4.3s-2.646-.368-3.648-2.147-1-3.707,0-4.3,2.646.359,3.656,2.147Zm6.85,4.066c1,1.753,1,3.707,0,4.3s-2.646-.368-3.622-2.147-1.01-3.716,0-4.312,2.637.368,3.648,2.156Zm0-8.124c1,1.753,1,3.707,0,4.3s-2.646-.377-3.63-2.129-1-3.716,0-4.312,2.646.351,3.656,2.138Z" style="fill:#f26e7e"/><path d="M28.243,15.481c1.009-1.753,1.009-3.709,0-4.3s-2.634.368-3.644,2.148-1,3.717,0,4.313S27.251,17.27,28.243,15.481Zm0,3.822c1.009.6,1.009,2.525,0,4.3s-2.634,2.753-3.644,2.157-1.009-2.525,0-4.313S27.251,18.69,28.243,19.3ZM21.4,23.363c1.009.6,1.009,2.525,0,4.3s-2.634,2.753-3.644,2.157-1.009-2.525,0-4.313,2.651-2.744,3.627-2.148Zm0-8.127c1.009.6,1.009,2.525,0,4.3s-2.634,2.753-3.635,2.157-1.009-2.525,0-4.314,2.643-2.744,3.618-2.148Z" style="fill:#8a3391"/><path d="M19.825,4.089c0,1.142-1.7,2.08-3.812,2.08s-3.821-.939-3.821-2.08S13.906,2,16.014,2,19.825,2.939,19.825,4.089ZM12.65,8c0,1.15-1.7,2.08-3.812,2.08S5,9.146,5,8s1.713-2.08,3.839-2.08,3.794.93,3.794,2.08Zm10.538,2.08C25.3,10.076,27,9.146,27,8s-1.677-2.08-3.812-2.08-3.821.93-3.821,2.08S21.108,10.076,23.188,10.076ZM19.825,11.92c0,1.15-1.7,2.08-3.812,2.08s-3.821-.93-3.821-2.08,1.713-2.08,3.821-2.08S19.825,10.77,19.825,11.92Z" style="fill:#f7bf2a"/></svg>