<svg viewBox="0 0 32 32" xmlns="http://www.w3.org/2000/svg"><path d="m26.96 9.819a13.526 13.526 0 0 1 .009 7.181c-.085.319-.19.628-.3.935a14.042 14.042 0 0 1 -.235 1.709 13.393 13.393 0 0 1 -3.956 7.127 10.5 10.5 0 0 0 7.122-7.144 10.508 10.508 0 0 0 -2.64-9.808zm-21.832 5.401a14.252 14.252 0 0 1 .4-1.467 14.142 14.142 0 0 1 .422-2.39 13.535 13.535 0 0 1 3.6-6.216 10.489 10.489 0 0 0 -7.069 7.126 10.631 10.631 0 0 0 3.157 10.339 13.48 13.48 0 0 1 -.51-7.392zm14.533-12.994a10.587 10.587 0 0 0 -10.113 2.921 13.435 13.435 0 0 1 7.7-.182c.435.116.858.254 1.27.407.2.076.395.164.592.247.211.035.422.084.633.129.242.051.484.1.727.161a13.458 13.458 0 0 1 6.49 3.91 10.585 10.585 0 0 0 -7.299-7.593zm-4.824 24.705a13.932 13.932 0 0 1 -1.862-.654c-.452-.075-.906-.168-1.36-.289a13.554 13.554 0 0 1 -5.977-3.376 10.544 10.544 0 0 0 7.632 6.935 10.42 10.42 0 0 0 9.213-2.78 13.439 13.439 0 0 1 -7.646.164z" fill="#b5d1f6"/><path d="m10.285 24.765a10.164 10.164 0 0 1 -1.762-1.545 12.332 12.332 0 0 1 -3.023-9.041c.008-.142.01-.283.023-.426a14.252 14.252 0 0 0 -.4 1.467 13.48 13.48 0 0 0 .51 7.392 13.554 13.554 0 0 0 5.977 3.376c.454.121.908.214 1.36.289a13.56 13.56 0 0 1 -2.685-1.512zm16.083-6.036a12.494 12.494 0 0 1 -7.446 7.207 10.058 10.058 0 0 1 -3.363.519 13.8 13.8 0 0 1 -2.584-.178 13.932 13.932 0 0 0 1.862.654 13.439 13.439 0 0 0 7.646-.164 13.393 13.393 0 0 0 3.956-7.127 14.042 14.042 0 0 0 .235-1.709c-.094.269-.197.536-.306.798zm.592-8.91a13.458 13.458 0 0 0 -6.49-3.91c-.243-.065-.485-.11-.727-.161-.211-.045-.422-.094-.633-.129a12.5 12.5 0 0 1 7.023 7.238 10.158 10.158 0 0 1 .561 2.958 13.714 13.714 0 0 1 -.02 2.116c.105-.307.21-.616.3-.935a13.521 13.521 0 0 0 -.014-7.177zm-8.442-4.447c-.412-.153-.835-.291-1.27-.407a13.435 13.435 0 0 0 -7.7.182 13.535 13.535 0 0 0 -3.6 6.216 14.142 14.142 0 0 0 -.422 2.39c.049-.152.1-.3.158-.449a13.164 13.164 0 0 1 3.46-5.269c.047-.043.1-.081.146-.124l.032-.027a12.717 12.717 0 0 1 9.79-2.265c-.199-.083-.392-.171-.594-.247z" fill="#82b2f1"/><path d="m26.674 17.929c-.094.274-.2.538-.306.8a12.494 12.494 0 0 1 -7.446 7.207 10.058 10.058 0 0 1 -3.363.519 13.8 13.8 0 0 1 -2.584-.178 13.548 13.548 0 0 1 -2.69-1.512 10.164 10.164 0 0 1 -1.762-1.545 12.336 12.336 0 0 1 -3.023-9.045c.008-.141.01-.28.023-.421.048-.151.1-.3.156-.443v-.01a13.168 13.168 0 0 1 3.46-5.265c.046-.04.1-.085.146-.124l.032-.027a12.717 12.717 0 0 1 9.79-2.265 12.5 12.5 0 0 1 7.023 7.238 10.158 10.158 0 0 1 .561 2.958 13.688 13.688 0 0 1 -.017 2.113z" fill="#488dea"/><path d="m11.382 17.574h-.012a.685.685 0 0 1 -.708.432c-.755 0-1.055-.567-1.055-1.567 0-1.291.5-1.49 1-1.49a.758.758 0 0 1 .732.416h.012v-1.291h.649v3.857h-.612zm-.588-2.161c-.372 0-.5.271-.5 1.054 0 .659.095 1.075.545 1.075s.546-.411.546-1.032c-.003-.697-.093-1.097-.591-1.097zm2.729-.464c.942 0 1.206.626 1.206 1.529s-.306 1.528-1.206 1.528-1.2-.626-1.2-1.528.265-1.529 1.2-1.529zm0 2.625c.474 0 .558-.356.558-1.1 0-.643-.084-1.1-.558-1.1s-.551.454-.551 1.1c0 .744.084 1.1.551 1.1zm1.968-2.981h-1.019v-.519h2.7v.519h-1v3.338h-.684zm1.62 2.625h.683v.713h-.683zm1.867-2.194v3.1c0 .605-.282.8-.852.8a2.425 2.425 0 0 1 -.282-.017v-.447h.15c.246 0 .336-.086.336-.395v-3.041zm0-.994v.584h-.648v-.584zm1.866 1.843v-.073c0-.233-.09-.448-.426-.448-.258 0-.462.108-.462.378 0 .227.114.319.456.426l.414.13c.48.146.7.378.7.837 0 .621-.5.886-1.157.886-.816 0-1.061-.34-1.061-.9v-.109h.575v.092c0 .335.132.518.5.518s.528-.162.528-.426a.431.431 0 0 0 -.354-.427l-.528-.167c-.486-.151-.689-.373-.689-.838 0-.545.437-.8 1.1-.8.822 0 1.008.432 1.008.794v.13z" fill="#fff"/></svg>