<svg xmlns="http://www.w3.org/2000/svg" viewBox="0 0 32 32"><title>file_type_yaml</title><path d="M2 12.218c.755 0 1.51-.008 2.264 0l.053.038 2.761 2.758c.891-.906 1.8-1.794 2.7-2.7.053-.052.11-.113.192-.1h1.823a1.4 1.4 0 0 1 .353.019c-.7.67-1.377 1.369-2.069 2.05L5.545 18.8c-.331.324-.648.663-.989.975-.754.022-1.511.007-2.266.007 1.223-1.209 2.431-2.433 3.658-3.637-1.321-1.304-2.63-2.62-3.948-3.927M12.7 12.218h1.839v7.566c-.611 0-1.222.012-1.832-.008v-4.994c-1.6 1.607-3.209 3.2-4.811 4.8-.089.08-.166.217-.305.194-.824-.006-1.649 0-2.474 0Q8.916 16 12.7 12.218M14.958 12.22c.47-.009.939 0 1.409 0 .836.853 1.69 1.689 2.536 2.532q1.268-1.267 2.539-2.532h1.4q-.008 3.784 0 7.567c-.471 0-.943.006-1.414 0q.008-2.387 0-4.773c-.844.843-1.676 1.7-2.526 2.536-.856-.835-1.687-1.695-2.532-2.541 0 1.594-.006 3.188.006 4.781-.472 0-.943.005-1.415 0q-.003-3.79-.003-7.57M23.259 12.217c.472 0 .944-.007 1.416 0q-.007 3.083 0 6.166h3.782c.063.006.144-.012.191.045.448.454.907.9 1.353 1.354q-3.371.007-6.741 0 .007-3.782-.001-7.565" style="fill:#ffe885"/></svg>