<svg xmlns="http://www.w3.org/2000/svg" viewBox="0 0 32 32"><title>file_type_nim</title><path d="M26.461,16.315c-.846-2.81-5.227-5.27-10.461-5.27-5.338,0-9.614,2.459-10.461,5.27L4.53,17.18,3.1,14.427,2,9.787l1.888.787a7.6,7.6,0,0,1,2.2-1.652l1.258-2.6L9.472,7.978a15.88,15.88,0,0,1,4.483-.629L16,5.382l2.045,1.966a15.88,15.88,0,0,1,4.483.629l2.124-1.652,1.258,2.6a7.6,7.6,0,0,1,2.2,1.652L30,9.787l-1.1,4.64L27.47,17.18Z" style="fill:#efc743"/><path d="M27.64,16.551l-1.18-.315-2.124,2.753-2.91.865L16,16.787l-5.427,3.067-2.91-.865L5.539,16.236l-1.18.315L3.1,14.348,5.539,21.27C7.262,24.855,12.568,26.618,16,26.618s8.738-1.763,10.461-5.348L28.9,14.348Z"/></svg>