<svg xmlns="http://www.w3.org/2000/svg" viewBox="0 0 32 32"><title>file_type_stylus@2x</title><g id="stylus"><path d="M5.47,13.41a1.92,1.92,0,0,1,.77.13q.29.13.29.33a1.51,1.51,0,0,1-.12.54,4.31,4.31,0,0,1-.23.5.09.09,0,0,1-.11,0A.12.12,0,0,1,6,14.8a1.14,1.14,0,0,0,.07-.43.75.75,0,0,0-.16-.5.55.55,0,0,0-.45-.2.81.81,0,0,0-.6.23.87.87,0,0,0-.23.64,1.29,1.29,0,0,0,.18.66q.18.32.41.63a6.24,6.24,0,0,1,.42.67,1.67,1.67,0,0,1,.2.81,1.39,1.39,0,0,1-.63,1.22A2.85,2.85,0,0,1,3.59,19a2.37,2.37,0,0,1-1.16-.24Q2,18.5,2,18.21A.66.66,0,0,1,2.07,18a2.43,2.43,0,0,1,.17-.33q.11-.17.24-.35A1.3,1.3,0,0,1,2.76,17a.08.08,0,0,1,.12,0,.1.1,0,0,1,0,.13,1,1,0,0,0-.2.27.92.92,0,0,0-.07.38.85.85,0,0,0,.26.64.93.93,0,0,0,.67.25,1.19,1.19,0,0,0,.88-.31,1,1,0,0,0,.31-.77,1.66,1.66,0,0,0-.18-.77q-.18-.36-.4-.7t-.4-.68a1.55,1.55,0,0,1-.18-.74,1.16,1.16,0,0,1,.48-.94A2.23,2.23,0,0,1,5.47,13.41Z" style="fill:#606060"/><path d="M11.4,13.52c.07,0,.1.07.09.12s-.08.09-.2.12l-.75,0-.9.07a19,19,0,0,0-.72,2.07,6.39,6.39,0,0,0-.28,1.64q0,.74.56.74t1.26-1a.09.09,0,0,1,.12,0,.15.15,0,0,1,0,.15,3.93,3.93,0,0,1-.93,1.05A1.8,1.8,0,0,1,8.58,19a1.14,1.14,0,0,1-.84-.27A1,1,0,0,1,7.47,18a7,7,0,0,1,.3-1.74A19.07,19.07,0,0,1,8.56,14a9.87,9.87,0,0,0-1,.17c-.07,0-.09-.05-.05-.11a.69.69,0,0,1,.2-.18A1.61,1.61,0,0,1,8,13.66a1,1,0,0,1,.37-.08h.17l.17,0q.28-.63.59-1.22t.61-1.06a1.2,1.2,0,0,1,.36-.27,2.57,2.57,0,0,1,.45-.18,1.78,1.78,0,0,1,.36-.08c.09,0,.13,0,.12.08a14.18,14.18,0,0,0-.73,1.26q-.36.7-.68,1.45l.84,0Z" style="fill:#606060"/><path d="M24.58,2.66a.83.83,0,0,1,.53.16.82.82,0,0,1,.28.43,1.46,1.46,0,0,1,0,.62,2.06,2.06,0,0,1-.25.69s-.07,0-.11,0A.21.21,0,0,1,25,4.46.43.43,0,0,0,24.79,4a1.17,1.17,0,0,0-.71-.17,3,3,0,0,0-1.79.66,9.08,9.08,0,0,0-1.75,1.75A16.45,16.45,0,0,0,19,8.76a23.63,23.63,0,0,0-1.28,2.91,22.49,22.49,0,0,0-.86,3,13,13,0,0,0-.31,2.69q0,.65.37.65a.78.78,0,0,0,.51-.22,4.28,4.28,0,0,0,.58-.65.09.09,0,0,1,.12,0,.14.14,0,0,1,0,.14,4.31,4.31,0,0,1-1,1.09,1.85,1.85,0,0,1-1.06.43.65.65,0,0,1-.58-.24,1.06,1.06,0,0,1-.16-.61,9.69,9.69,0,0,1,.43-2.55,27.12,27.12,0,0,1,1.16-3.24,34.4,34.4,0,0,1,1.68-3.4,26.77,26.77,0,0,1,2-3.05,12.81,12.81,0,0,1,2.07-2.2A3.18,3.18,0,0,1,24.58,2.66Z" style="fill:#b3d107"/><path d="M5.3,29.34a.83.83,0,0,1-.53-.16.82.82,0,0,1-.28-.43,1.46,1.46,0,0,1,0-.62,2.07,2.07,0,0,1,.25-.69s.07,0,.11,0a.21.21,0,0,1,.09.11.43.43,0,0,0,.18.43,1.17,1.17,0,0,0,.71.17,3,3,0,0,0,1.79-.66,9.07,9.07,0,0,0,1.75-1.75,16.44,16.44,0,0,0,1.59-2.5,23.62,23.62,0,0,0,1.28-2.91,22.51,22.51,0,0,0,.86-3,13,13,0,0,0,.31-2.69q0-.65-.37-.65a.77.77,0,0,0-.51.22,4.29,4.29,0,0,0-.58.65.09.09,0,0,1-.12,0,.14.14,0,0,1,0-.14,4.32,4.32,0,0,1,1-1.09,1.85,1.85,0,0,1,1.06-.43.65.65,0,0,1,.58.24,1.06,1.06,0,0,1,.16.61,9.69,9.69,0,0,1-.43,2.55A27.12,27.12,0,0,1,13,19.84a34.4,34.4,0,0,1-1.68,3.4,26.79,26.79,0,0,1-2,3.05,12.79,12.79,0,0,1-2.07,2.2A3.18,3.18,0,0,1,5.3,29.34Z" style="fill:#b3d107"/><path d="M20,19q-.91,0-.91-1a4.93,4.93,0,0,1,.08-.8,6.23,6.23,0,0,1,.24-.94q.16-.49.38-1a6.09,6.09,0,0,1,.52-1l-.46.31a3.63,3.63,0,0,0-.39.34s-.08,0-.12,0a.12.12,0,0,1,0-.14,5,5,0,0,1,1.05-.8,8.21,8.21,0,0,1,1.31-.65.22.22,0,0,1,.16.05.11.11,0,0,1,0,.14,8.33,8.33,0,0,0-1.12,2,5.57,5.57,0,0,0-.42,2.06q0,.63.39.63a1.15,1.15,0,0,0,.69-.38,7,7,0,0,0,.87-1q.46-.62.92-1.4T24,13.8a.74.74,0,0,1,.38-.26,1.66,1.66,0,0,1,.64-.13q.33,0,.2.17-.3.57-.53,1.05a8,8,0,0,0-.38,1,6.43,6.43,0,0,0-.23,1A7,7,0,0,0,24,17.65q0,.7.37.69t.83-.65a.11.11,0,0,1,.13,0,.11.11,0,0,1,0,.13,2.92,2.92,0,0,1-.81.86,1.52,1.52,0,0,1-.81.29q-.91,0-.91-1.06a6.43,6.43,0,0,1,.39-2.19,10,10,0,0,1-1.74,2.38A2.52,2.52,0,0,1,20,19Z" style="fill:#606060"/><path d="M28.94,13.41a1.92,1.92,0,0,1,.77.13q.29.13.29.33a1.52,1.52,0,0,1-.12.54,4.31,4.31,0,0,1-.23.5.09.09,0,0,1-.11,0,.12.12,0,0,1-.07-.12,1.14,1.14,0,0,0,.07-.43.75.75,0,0,0-.16-.5.55.55,0,0,0-.45-.2.81.81,0,0,0-.6.23.87.87,0,0,0-.23.64,1.29,1.29,0,0,0,.18.66q.18.32.41.63a6.24,6.24,0,0,1,.42.67,1.67,1.67,0,0,1,.2.81,1.39,1.39,0,0,1-.63,1.22A2.85,2.85,0,0,1,27,19a2.37,2.37,0,0,1-1.16-.24q-.42-.24-.42-.52a.66.66,0,0,1,.07-.24,2.43,2.43,0,0,1,.17-.33q.11-.17.24-.35a1.3,1.3,0,0,1,.28-.28.08.08,0,0,1,.12,0,.1.1,0,0,1,0,.13,1,1,0,0,0-.2.27.92.92,0,0,0-.07.38.85.85,0,0,0,.26.64.93.93,0,0,0,.67.25,1.19,1.19,0,0,0,.88-.31,1,1,0,0,0,.31-.77,1.66,1.66,0,0,0-.18-.77q-.18-.36-.4-.7t-.4-.68a1.55,1.55,0,0,1-.18-.74,1.16,1.16,0,0,1,.48-.94A2.24,2.24,0,0,1,28.94,13.41Z" style="fill:#606060"/></g></svg>