<svg id="Layer_1" data-name="Layer 1" xmlns="http://www.w3.org/2000/svg" xmlns:xlink="http://www.w3.org/1999/xlink" viewBox="0 0 32 32"><defs><clipPath id="clip-path"><rect x="2.35" y="2.35" width="27.3" height="27.3" style="fill:none"/></clipPath></defs><g style="clip-path:url(#clip-path)"><path d="M29.65,16A13.65,13.65,0,1,1,16,2.35,13.65,13.65,0,0,1,29.65,16" style="fill:#e74c3c"/><path d="M16.92,29.62l-3.77-3.78,4.36-2L19.1,22.4V21.19l-4.81-4.81-.83-3.5L12.53,9l4.71-1.55,5.27,2.2,7.12,7.1A13.65,13.65,0,0,1,16.92,29.62Z" style="fill-opacity:0.30000001192092896;fill-rule:evenodd"/><path d="M16.46,8.52A3,3,0,0,1,18.29,9a3.28,3.28,0,0,1,1,1.44l.22.54,3.11-1.09-.27-.6a6.35,6.35,0,0,0-2.14-2.7,6.48,6.48,0,0,0-3.83-1A7.34,7.34,0,0,0,13.88,6,5.81,5.81,0,0,0,12,7.1a4.85,4.85,0,0,0-1.23,1.74,5.5,5.5,0,0,0-.41,2.1,5.29,5.29,0,0,0,1.14,3.43,8.53,8.53,0,0,0,3.37,2.27c.79.32,1.48.62,2.05.88a4.72,4.72,0,0,1,1.24.78,2.52,2.52,0,0,1,.63.92,4.21,4.21,0,0,1,.2,1.43A3.1,3.1,0,0,1,18.71,22a2.19,2.19,0,0,1-.65.83,2.42,2.42,0,0,1-.92.46,4.6,4.6,0,0,1-2.51-.05,3,3,0,0,1-1-.52A2.66,2.66,0,0,1,13,22a5,5,0,0,1-.43-.91l-.21-.59-3,1.14.2.56a6.83,6.83,0,0,0,.78,1.55,5.81,5.81,0,0,0,1.31,1.36,6.28,6.28,0,0,0,1.86,1,7.72,7.72,0,0,0,2.48.36A7.13,7.13,0,0,0,18.59,26a6.38,6.38,0,0,0,2-1.26A5.87,5.87,0,0,0,22,22.81a5.57,5.57,0,0,0,.49-2.29A6.67,6.67,0,0,0,22,17.93a5.55,5.55,0,0,0-1.23-1.85A7.27,7.27,0,0,0,19,14.83a18.3,18.3,0,0,0-2-.89,15.86,15.86,0,0,1-1.68-.74,5,5,0,0,1-1-.7,1.77,1.77,0,0,1-.46-.71,2.81,2.81,0,0,1-.15-1,2,2,0,0,1,.69-1.7,3.38,3.38,0,0,1,2.05-.57Z" style="fill:#f1c40f"/><path d="M15.83,2.35h.34V4.47h-.34ZM29.65,16.17v-.34H27.53v.34ZM15.83,27.53h.34v2.12h-.34ZM4.47,16.17v-.34H2.35v.34Z" style="fill-rule:evenodd"/></g></svg>