<svg viewBox="0 0 32 32" xmlns="http://www.w3.org/2000/svg"><g fill="#0088b6"><path d="m12.786 23.5h-2.934l-.842-3.158h-3.334l-.8 3.158h-2.876l4.053-15.01h2.566zm-6.231-6.609h1.545l-.78-3.024z"/><path d="m16.742 23.749a3.706 3.706 0 0 1 -3.05-1.349 7.1 7.1 0 0 1 -1.3-3.909l-.046-.566 2.622-.368.062.5a3.409 3.409 0 0 0 .565 1.693 1.425 1.425 0 0 0 1.169.515 1.454 1.454 0 0 0 1.179-.448 1.36 1.36 0 0 0 .338-.911.919.919 0 0 0 -.11-.478 1.251 1.251 0 0 0 -.537-.438c-.147-.074-.534-.238-1.524-.592a5.006 5.006 0 0 1 -2.355-1.5 5.121 5.121 0 0 1 -1.016-3.216 5.536 5.536 0 0 1 .481-2.3 3.553 3.553 0 0 1 1.368-1.6 3.834 3.834 0 0 1 2.042-.527 3.6 3.6 0 0 1 2.97 1.277 5.645 5.645 0 0 1 1.1 3.468l.014.552-2.651.168-.063-.482a2.26 2.26 0 0 0 -.395-1.2 1.274 1.274 0 0 0 -1-.353 1.47 1.47 0 0 0 -1.11.4.535.535 0 0 0 -.15.409.612.612 0 0 0 .152.415 3.877 3.877 0 0 0 1.634.817 7.9 7.9 0 0 1 2.188 1.048 3.917 3.917 0 0 1 1.211 1.61 6.386 6.386 0 0 1 .443 2.517 6.254 6.254 0 0 1 -.521 2.542 3.757 3.757 0 0 1 -1.472 1.757 4.286 4.286 0 0 1 -2.238.549z"/><path d="m24.56 23.5h-2.7v-15.01h3.5a7.985 7.985 0 0 1 2.41.227 3.122 3.122 0 0 1 1.587 1.555 6.479 6.479 0 0 1 .643 3.05 7.047 7.047 0 0 1 -.368 2.419 4.29 4.29 0 0 1 -.942 1.559 2.854 2.854 0 0 1 -1.142.743 7.929 7.929 0 0 1 -2.1.211h-.892zm0-8.717h.688a3.214 3.214 0 0 0 1.4-.182 1.038 1.038 0 0 0 .434-.482 1.752 1.752 0 0 0 .152-.762 1.616 1.616 0 0 0 -.209-.875.946.946 0 0 0 -.571-.446 6.032 6.032 0 0 0 -1.335-.086h-.563z"/></g></svg>