<svg xmlns="http://www.w3.org/2000/svg" viewBox="0 0 32 32"><path d="M15.12,5.3A.84.84,0,0,1,16,4.47a.83.83,0,1,1,0,1.66h0a.84.84,0,0,1-.84-.83h0M5.2,12.83a.83.83,0,1,1,1.66,0,.84.84,0,0,1-.83.84H6a.84.84,0,0,1-.83-.84m19.86,0a.83.83,0,1,1,.83.83.82.82,0,0,1-.83-.82h0M7.61,14A.76.76,0,0,0,8,13l-.37-.83H9.07v6.54H6.14a10.33,10.33,0,0,1-.33-3.91Zm6.07.16V12.24h3.46c.18,0,1.26.21,1.26,1s-.83.91-1.52.91ZM9,24.56a.83.83,0,1,1,.83.83A.83.83,0,0,1,9,24.56H9m12.33,0a.83.83,0,1,1,.83.83.83.83,0,0,1-.83-.83h0m.26-1.89a.76.76,0,0,0-.9.59h0l-.42,1.95a10.25,10.25,0,0,1-8.55-.05l-.41-1.94a.77.77,0,0,0-.9-.59h0L8.65,23A9.88,9.88,0,0,1,7.76,22h8.37c.09,0,.16,0,.16-.1v-3c0-.09-.07-.1-.16-.1H13.68V17h2.65A1.67,1.67,0,0,1,18,18.36c.1.41.33,1.76.49,2.19S19.25,22,19.93,22h4.33a10,10,0,0,1-1,1.1Zm4.65-7.82a11.75,11.75,0,0,1,0,1.78h-1c-.11,0-.15.07-.15.17v.49c0,1.13-.64,1.38-1.2,1.44s-1.13-.22-1.2-.55A3.63,3.63,0,0,0,21,15.41a3.76,3.76,0,0,0,2.1-2.91,3.31,3.31,0,0,0-1.61-2.7,4.45,4.45,0,0,0-2.2-.72H8.37A10.26,10.26,0,0,1,14.1,5.84l1.28,1.34a.75.75,0,0,0,1.07,0h0l1.44-1.37a10.21,10.21,0,0,1,7,5l-1,2.22a.77.77,0,0,0,.39,1Zm2.44,0,0-.34,1-.95a.41.41,0,0,0,0-.59h0a.42.42,0,0,0-.12-.08l-1.29-.49-.1-.33L28.91,11a.43.43,0,0,0-.13-.58.35.35,0,0,0-.14-.06l-1.36-.22-.16-.31.57-1.25a.43.43,0,0,0-.24-.55h0l-.14,0-1.39.05-.22-.26L26,6.47A.41.41,0,0,0,25.68,6h-.15l-1.35.32-.26-.22L24,4.7a.42.42,0,0,0-.43-.41h0l-.14,0-1.25.57-.31-.16-.22-1.37a.44.44,0,0,0-.5-.32A.52.52,0,0,0,21,3.1l-1.13.81-.33-.1L19,2.51a.43.43,0,0,0-.68-.13l-.94,1-.35,0-.72-1.18a.42.42,0,0,0-.59-.1.47.47,0,0,0-.1.1l-.73,1.18-.34,0-.94-1a.43.43,0,0,0-.6,0,.83.83,0,0,0-.08.12L12.48,3.8l-.33.1L11,3.1a.42.42,0,0,0-.58.13.38.38,0,0,0-.06.13l-.22,1.37-.3.16L8.61,4.32a.42.42,0,0,0-.55.24A.59.59,0,0,0,8,4.7l0,1.38-.26.22L6.47,6A.43.43,0,0,0,6,6.33H6v.14L6.3,7.82l-.22.26L4.7,8a.42.42,0,0,0-.41.43.35.35,0,0,0,0,.14l.57,1.26-.16.3-1.37.22a.44.44,0,0,0-.32.5A.59.59,0,0,0,3.1,11l.81,1.12-.1.33L2.51,13a.42.42,0,0,0-.21.56l.08.12,1,.94,0,.35-1.18.72a.42.42,0,0,0-.1.59.47.47,0,0,0,.1.1l1.18.73,0,.34-1,.95a.42.42,0,0,0,0,.59l.12.08,1.3.48.1.34L3.1,21a.42.42,0,0,0,.13.58h0a.38.38,0,0,0,.13.06l1.37.22.16.31-.57,1.25a.42.42,0,0,0,.24.55.32.32,0,0,0,.14,0l1.38,0,.22.26L6,25.53a.42.42,0,0,0,.34.49.33.33,0,0,0,.14,0l1.35-.32.26.22L8,27.3a.43.43,0,0,0,.43.41h0a.4.4,0,0,0,.15,0l1.25-.57.31.16.22,1.36a.42.42,0,0,0,.5.32A.29.29,0,0,0,11,28.9l1.12-.81.34.1L13,29.48a.43.43,0,0,0,.56.22l.12-.08.94-1,.34,0,.73,1.18a.43.43,0,0,0,.59.1.47.47,0,0,0,.1-.1l.73-1.18.34,0,.94,1a.43.43,0,0,0,.6,0,.36.36,0,0,0,.08-.12l.48-1.29.33-.1L21,28.9a.43.43,0,0,0,.58-.13h0a.69.69,0,0,0,.05-.13l.22-1.37.31-.16,1.26.57a.41.41,0,0,0,.54-.24.32.32,0,0,0,0-.14l-.05-1.38.26-.22,1.35.31a.41.41,0,0,0,.49-.34.33.33,0,0,0,0-.14l-.31-1.35.22-.26,1.38,0a.43.43,0,0,0,.41-.44.39.39,0,0,0,0-.14l-.57-1.25.16-.31,1.37-.22a.43.43,0,0,0,.32-.5A.35.35,0,0,0,28.9,21l-.81-1.12.1-.33,1.3-.49a.41.41,0,0,0,.21-.55h0a.5.5,0,0,0-.08-.12l-1-.94,0-.35,1.18-.73a.41.41,0,0,0,.1-.58.32.32,0,0,0-.1-.1Z" style="fill:#cd7c29"/></svg>