<svg xmlns="http://www.w3.org/2000/svg" viewBox="0 0 32 32" fill="#58a0ff"><title>file_type_geojson</title><path d="M16,30A14,14,0,1,1,30,16,14.016,14.016,0,0,1,16,30ZM16,3.176A12.824,12.824,0,1,0,28.824,16,12.84,12.84,0,0,0,16,3.176M16.317,10.474A44.779,44.779,0,0,1,4.42,8.92l.34-1.126c.111.034,11.277,3.32,22.427,0l.335,1.127A39.374,39.374,0,0,1,16.317,10.474ZM4.785,23.907,4.45,22.781c11.5-3.422,22.634-.14,23.1,0l-.34,1.126C27.1,23.873,15.936,20.588,4.785,23.907ZM11.468,28.764a35.454,35.454,0,0,1-.742-25.71l1.082.461A34.228,34.228,0,0,0,12.55,28.3ZM20.441,28.764,19.36,28.3A34.229,34.229,0,0,0,20.1,3.515l1.082-.461A35.461,35.461,0,0,1,20.441,28.764Z"/><path d="M3,15.412v1.176h26v-1.176Z"/><path d="M15.412,3h1.176v26h-1.176Z"/></svg>