<svg viewBox="0 0 32 32" xmlns="http://www.w3.org/2000/svg"><path d="m14.5 10.24c-.265-1.822-1-4.338-1.086-5.538a2.215 2.215 0 0 1 1.446-2.236 2.86 2.86 0 0 1 2.272 0 2.215 2.215 0 0 1 1.45 2.234c-.085 1.2-.82 3.716-1.086 5.538" fill="#f1662a"/><path d="m17.724 10.273-.457-.067c.126-.866.353-1.87.573-2.841a22.194 22.194 0 0 0 .511-2.68 1.992 1.992 0 0 0 -1.311-2.01 2.63 2.63 0 0 0 -2.081 0 1.992 1.992 0 0 0 -1.311 2.01 22.208 22.208 0 0 0 .511 2.68c.22.971.447 1.975.573 2.841l-.457.067c-.123-.848-.349-1.843-.567-2.806a22.353 22.353 0 0 1 -.521-2.749 2.427 2.427 0 0 1 1.581-2.462 3.09 3.09 0 0 1 2.463 0 2.427 2.427 0 0 1 1.581 2.462 22.365 22.365 0 0 1 -.521 2.749c-.218.962-.443 1.957-.567 2.806z"/><path d="m11.824 11.758c-1.141-1.445-3.036-3.258-3.709-4.253a2.215 2.215 0 0 1 .134-2.659 2.86 2.86 0 0 1 1.967-1.136 2.215 2.215 0 0 1 2.37 1.213c.526 1.081 1.147 3.628 1.829 5.339" fill="#33a9dc"/><path d="m11.642 11.9c-.531-.673-1.224-1.422-1.894-2.147a22.343 22.343 0 0 1 -1.825-2.12 2.427 2.427 0 0 1 .138-2.923 3.09 3.09 0 0 1 2.133-1.23 2.426 2.426 0 0 1 2.6 1.342 22.352 22.352 0 0 1 .923 2.641c.292.942.595 1.917.912 2.713l-.429.171c-.324-.813-.629-1.8-.924-2.747a22.2 22.2 0 0 0 -.9-2.576 1.992 1.992 0 0 0 -2.14-1.085 2.63 2.63 0 0 0 -1.8 1.04 1.992 1.992 0 0 0 -.131 2.4 22.2 22.2 0 0 0 1.782 2.065c.676.731 1.375 1.487 1.917 2.174z"/><path d="m10.263 14.414c-1.711-.681-4.257-1.3-5.339-1.829a2.215 2.215 0 0 1 -1.213-2.37 2.86 2.86 0 0 1 1.136-1.967 2.215 2.215 0 0 1 2.659-.134c1 .673 2.808 2.568 4.253 3.709" fill="#f1662a"/><path d="m10.178 14.629c-.8-.317-1.771-.62-2.713-.912a22.352 22.352 0 0 1 -2.641-.923 2.427 2.427 0 0 1 -1.342-2.6 3.09 3.09 0 0 1 1.231-2.134 2.427 2.427 0 0 1 2.923-.138 22.349 22.349 0 0 1 2.12 1.825c.724.67 1.474 1.362 2.146 1.894l-.286.359c-.687-.542-1.443-1.241-2.174-1.917a22.207 22.207 0 0 0 -2.065-1.783 1.992 1.992 0 0 0 -2.4.131 2.63 2.63 0 0 0 -1.041 1.8 1.992 1.992 0 0 0 1.085 2.14 22.2 22.2 0 0 0 2.576.9c.951.3 1.934.6 2.747.924z"/><path d="m10.239 17.5c-1.822.265-4.338 1-5.538 1.086a2.215 2.215 0 0 1 -2.236-1.446 2.86 2.86 0 0 1 0-2.272 2.215 2.215 0 0 1 2.235-1.451c1.2.085 3.716.82 5.538 1.086" fill="#33a9dc"/><path d="m4.522 18.818a2.436 2.436 0 0 1 -2.266-1.588 3.09 3.09 0 0 1 0-2.463 2.426 2.426 0 0 1 2.462-1.581 22.353 22.353 0 0 1 2.749.521c.962.218 1.957.443 2.806.567l-.067.457c-.866-.126-1.87-.353-2.841-.573a22.208 22.208 0 0 0 -2.68-.511 1.993 1.993 0 0 0 -2.01 1.311 2.63 2.63 0 0 0 0 2.081 1.991 1.991 0 0 0 2.01 1.311 22.194 22.194 0 0 0 2.68-.511c.971-.22 1.975-.447 2.841-.573l.067.457c-.848.123-1.843.349-2.805.567a22.365 22.365 0 0 1 -2.749.521q-.1.007-.197.007z"/><path d="m11.759 20.176c-1.445 1.141-3.257 3.036-4.253 3.709a2.215 2.215 0 0 1 -2.659-.134 2.86 2.86 0 0 1 -1.136-1.968 2.215 2.215 0 0 1 1.213-2.37c1.081-.526 3.628-1.147 5.339-1.829" fill="#f1662a"/><path d="m6.308 24.5a2.746 2.746 0 0 1 -1.6-.563 3.09 3.09 0 0 1 -1.232-2.133 2.427 2.427 0 0 1 1.342-2.6 22.338 22.338 0 0 1 2.641-.923c.942-.292 1.917-.595 2.713-.912l.171.429c-.813.324-1.8.629-2.747.924a22.212 22.212 0 0 0 -2.576.9 1.992 1.992 0 0 0 -1.085 2.14 2.63 2.63 0 0 0 1.041 1.8 1.992 1.992 0 0 0 2.4.131 22.216 22.216 0 0 0 2.065-1.782c.731-.676 1.487-1.375 2.174-1.917l.286.362c-.673.531-1.422 1.224-2.147 1.894a22.352 22.352 0 0 1 -2.12 1.825 2.348 2.348 0 0 1 -1.326.425z"/><path d="m14.416 21.737c-.681 1.711-1.3 4.257-1.829 5.339a2.215 2.215 0 0 1 -2.37 1.213 2.86 2.86 0 0 1 -1.968-1.136 2.215 2.215 0 0 1 -.134-2.659c.673-1 2.568-2.808 3.709-4.253" fill="#33a9dc"/><path d="m10.542 28.535q-.17 0-.347-.017a3.09 3.09 0 0 1 -2.133-1.231 2.427 2.427 0 0 1 -.138-2.923 22.347 22.347 0 0 1 1.825-2.12c.67-.724 1.363-1.474 1.894-2.147l.362.286c-.542.687-1.241 1.443-1.917 2.174a22.2 22.2 0 0 0 -1.782 2.065 1.992 1.992 0 0 0 .131 2.4 2.629 2.629 0 0 0 1.8 1.04 1.991 1.991 0 0 0 2.14-1.085 22.2 22.2 0 0 0 .9-2.576c.3-.951.6-1.934.924-2.747l.429.171c-.317.8-.62 1.771-.912 2.713a22.351 22.351 0 0 1 -.923 2.641 2.362 2.362 0 0 1 -2.253 1.356z"/><path d="m17.5 21.76c.265 1.822 1 4.338 1.086 5.538a2.215 2.215 0 0 1 -1.446 2.236 2.86 2.86 0 0 1 -2.272 0 2.215 2.215 0 0 1 -1.45-2.234c.085-1.2.82-3.716 1.086-5.538" fill="#f1662a"/><path d="m16 30a2.994 2.994 0 0 1 -1.231-.256 2.427 2.427 0 0 1 -1.581-2.462 22.344 22.344 0 0 1 .521-2.749c.218-.962.443-1.957.567-2.806l.457.067c-.126.866-.353 1.87-.573 2.841a22.208 22.208 0 0 0 -.511 2.68 1.992 1.992 0 0 0 1.311 2.01 2.63 2.63 0 0 0 2.081 0 1.992 1.992 0 0 0 1.311-2.01 22.221 22.221 0 0 0 -.511-2.679c-.22-.971-.447-1.975-.573-2.841l.457-.067c.124.848.349 1.844.567 2.806a22.358 22.358 0 0 1 .521 2.749 2.427 2.427 0 0 1 -1.581 2.462 2.994 2.994 0 0 1 -1.232.255z"/><path d="m20.176 20.241c1.141 1.445 3.036 3.257 3.709 4.253a2.215 2.215 0 0 1 -.134 2.659 2.86 2.86 0 0 1 -1.968 1.136 2.215 2.215 0 0 1 -2.37-1.213c-.526-1.081-1.147-3.628-1.829-5.339" fill="#33a9dc"/><path d="m21.458 28.536a2.362 2.362 0 0 1 -2.252-1.359 22.335 22.335 0 0 1 -.923-2.641c-.292-.942-.595-1.916-.912-2.713l.429-.171c.324.813.629 1.8.924 2.747a22.2 22.2 0 0 0 .9 2.576 1.991 1.991 0 0 0 2.14 1.085 2.63 2.63 0 0 0 1.8-1.041 1.992 1.992 0 0 0 .131-2.4 22.193 22.193 0 0 0 -1.782-2.066c-.676-.731-1.375-1.487-1.917-2.174l.362-.286c.531.673 1.224 1.422 1.893 2.146a22.329 22.329 0 0 1 1.826 2.121 2.426 2.426 0 0 1 -.138 2.922 3.09 3.09 0 0 1 -2.133 1.232q-.178.022-.348.022z"/><path d="m21.738 17.585c1.711.681 4.257 1.3 5.339 1.829a2.215 2.215 0 0 1 1.213 2.37 2.86 2.86 0 0 1 -1.136 1.968 2.215 2.215 0 0 1 -2.659.134c-1-.673-2.808-2.568-4.253-3.709" fill="#f1662a"/><path d="m25.693 24.5a2.348 2.348 0 0 1 -1.328-.426 22.349 22.349 0 0 1 -2.12-1.826c-.724-.67-1.473-1.362-2.146-1.893l.285-.355c.687.542 1.443 1.241 2.174 1.917a22.214 22.214 0 0 0 2.065 1.782 1.992 1.992 0 0 0 2.4-.131 2.63 2.63 0 0 0 1.04-1.8 1.992 1.992 0 0 0 -1.085-2.14 22.223 22.223 0 0 0 -2.576-.9c-.951-.3-1.934-.6-2.747-.924l.171-.429c.8.317 1.771.62 2.713.912a22.344 22.344 0 0 1 2.641.923 2.427 2.427 0 0 1 1.342 2.6 3.09 3.09 0 0 1 -1.231 2.133 2.747 2.747 0 0 1 -1.598.557z"/><path d="m21.761 14.506c1.822-.265 4.338-1 5.538-1.086a2.215 2.215 0 0 1 2.236 1.446 2.86 2.86 0 0 1 0 2.272 2.215 2.215 0 0 1 -2.235 1.446c-1.2-.085-3.716-.82-5.538-1.086" fill="#33a9dc"/><path d="m27.478 18.821c-.065 0-.13 0-.2-.007a22.358 22.358 0 0 1 -2.749-.521c-.962-.218-1.957-.443-2.806-.567l.067-.457c.866.126 1.87.353 2.841.573a22.221 22.221 0 0 0 2.679.511 1.991 1.991 0 0 0 2.01-1.311 2.63 2.63 0 0 0 0-2.081 1.991 1.991 0 0 0 -2.01-1.311 22.214 22.214 0 0 0 -2.68.511c-.971.22-1.975.447-2.841.573l-.067-.457c.848-.123 1.843-.349 2.806-.567a22.348 22.348 0 0 1 2.749-.521 2.427 2.427 0 0 1 2.462 1.581 3.09 3.09 0 0 1 0 2.463 2.436 2.436 0 0 1 -2.261 1.588z"/><path d="m20.243 11.825c1.445-1.14 3.257-3.035 4.257-3.709a2.215 2.215 0 0 1 2.659.134 2.86 2.86 0 0 1 1.136 1.968 2.215 2.215 0 0 1 -1.213 2.37c-1.081.526-3.628 1.147-5.339 1.829" fill="#f1662a"/><path d="m21.824 14.631-.171-.429c.813-.324 1.8-.629 2.747-.924a22.2 22.2 0 0 0 2.576-.9 1.992 1.992 0 0 0 1.085-2.14 2.629 2.629 0 0 0 -1.04-1.8 1.992 1.992 0 0 0 -2.4-.131 22.191 22.191 0 0 0 -2.065 1.782c-.731.676-1.487 1.375-2.174 1.917l-.286-.362c.673-.531 1.422-1.224 2.146-1.894a22.363 22.363 0 0 1 2.12-1.826 2.427 2.427 0 0 1 2.923.138 3.09 3.09 0 0 1 1.235 2.138 2.426 2.426 0 0 1 -1.342 2.6 22.351 22.351 0 0 1 -2.641.923c-.937.289-1.916.591-2.713.908z"/><path d="m17.585 10.263c.681-1.711 1.3-4.257 1.829-5.339a2.215 2.215 0 0 1 2.37-1.213 2.86 2.86 0 0 1 1.968 1.136 2.215 2.215 0 0 1 .134 2.659c-.673 1-2.568 2.808-3.709 4.253" fill="#33a9dc"/><path d="m20.357 11.9-.357-.283c.542-.687 1.241-1.443 1.917-2.174a22.2 22.2 0 0 0 1.782-2.065 1.992 1.992 0 0 0 -.131-2.4 2.629 2.629 0 0 0 -1.8-1.041 1.993 1.993 0 0 0 -2.14 1.085 22.225 22.225 0 0 0 -.9 2.576c-.3.951-.6 1.934-.924 2.747l-.429-.171c.317-.8.62-1.771.912-2.713a22.35 22.35 0 0 1 .923-2.641 2.427 2.427 0 0 1 2.6-1.342 3.09 3.09 0 0 1 2.133 1.231 2.427 2.427 0 0 1 .138 2.923 22.354 22.354 0 0 1 -1.826 2.12c-.674.729-1.367 1.478-1.898 2.148z"/><path d="m21.9 16a5.9 5.9 0 1 1 -5.9-5.9 5.9 5.9 0 0 1 5.9 5.9z" fill="#ffd800"/><path d="m16 22.175a6.175 6.175 0 1 1 6.175-6.175 6.182 6.182 0 0 1 -6.175 6.175zm0-11.8a5.622 5.622 0 1 0 5.622 5.625 5.628 5.628 0 0 0 -5.622-5.622z" fill="#020000"/></svg>