<?xml version="1.0" encoding="UTF-8"?>
<svg width="463px" height="407px" viewBox="0 0 463 407" version="1.1" xmlns="http://www.w3.org/2000/svg" xmlns:xlink="http://www.w3.org/1999/xlink">
    <!-- Generator: Sketch 41.2 (35397) - http://www.bohemiancoding.com/sketch -->
    <title>bower icon</title>
    <desc>Created with Sketch.</desc>
    <defs></defs>
    <g id="Page-1" stroke="none" stroke-width="1" fill="none" fill-rule="evenodd">
        <g id="bower" fill="#EE4D26">
            <path d="M308.202024,205.924077 C308.197349,205.924051 308.192674,205.924026 308.188,205.924 C298.022,205.143 289.877,204.585 284.963,204.324 C293.064,205.475 328.777,212.061 362.811,218.623 C367.133,225.521 347.861,241.352 330.976,233.484 C338.864,251.268 304.167,266.064 287.311,253.381 C287.807023,257.319505 285.566131,260.798635 281.827029,263.441543 C278.639718,265.694707 274.363322,267.339984 269.765592,268.144027 C274.363253,267.339885 278.639529,265.694563 281.827029,263.441543 C285.566438,260.798777 287.807308,257.319585 287.311,253.381 C304.167,266.064 338.864,251.268 330.976,233.484 C347.861,241.352 367.133,225.521 362.811,218.623 C391.598,224.175 419.185,229.709 427.845,231.925 C422.092,241.305 408.99,247.929 389.24,243.326 C399.912,257.864 379.192,275.305 350.332,265.699 C356.685,279.971 330.989,292.82 301.784,277.944 C302.155,292.222 265.553,293.866 251.083,278.09 C251.087,278.115 251.098,278.149 251.101,278.174 C250.685322,277.279499 250.264828,276.349119 249.837424,275.377916 C247.981414,270.844415 245.708509,265.318545 244.045474,260.919958 C243.929153,260.608551 243.812054,260.294082 243.694154,259.976496 C249.091352,267.821721 260.133721,269.828731 269.765592,268.144049 C260.130931,269.82892 249.085221,267.819762 243.691,259.968 C243.692051,259.970832 243.693103,259.973664 243.694154,259.976496 C243.692435,259.973998 243.690717,259.971499 243.689,259.969 C243.804257,260.279332 243.923218,260.596599 244.045474,260.919958 C246.1919,266.666203 248.073506,271.369712 249.837424,275.377916 C251.186888,278.674124 252.315964,281.445724 252.83,282.878 C258.077,297.487 234.101,352.701 180.031,352.701 C115.83,352.701 57.83,313.609 32.82,255.047 C64.35,270.523 103.209,263.124 112.323,253.36 C126.938,258.032 139.977,259.998 151.631,259.998 C191.621,259.998 227.764,231.943 247.712,189.736 C254.477,184.171 258.361,178.934 260.474,175.846 C306.066695,178.793916 372.084221,190.758315 404.421224,198.957296 C384.448305,201.087461 333.784814,206.063993 308.188,205.923 C308.19266,205.923358 308.19732,205.923716 308.201981,205.924073 Z M453.689,198.606 C429.899,175.747 310.94,161.477 273.404,157.323 C275.222,153.029 276.77,148.588 278.048,144.015 C283.165,141.774 288.689,139.689 294.4,137.948 C295.096,140.001 298.374,147.867 300.242,151.6 C375.721,153.682 379.596,95.509 382.666,79.572 C385.668,63.989 385.515,48.932 411.405,21.406 C372.834,10.166 317.366,38.827 298.787,81.486 C291.805,78.87 284.808,76.938 277.887,75.743 C272.927,55.737 247.101,0 179.329,0 C93.522,0 0,70.789 0,190.621 C0,291.351 68.772,379.628 107.628,379.628 C124.597,379.628 139.194,366.921 142.621,355.53 C145.494,363.34 154.309,387.62 157.204,393.801 C161.483,402.941 181.272,410.85 189.932,401.365 C201.067,407.551 221.498,411.277 232.634,394.78 C254.079,399.316 273.038,386.528 273.452,371.269 C283.975,370.707 289.137,355.932 286.839,344.165 C285.145,335.502 267.05,304.417 259.992,293.687 C273.964,305.052 309.355,308.269 313.653,293.694 C336.18,311.376 371.286,302.095 374.07,287.715 C401.442,294.827 432.837,279.207 427.682,260.289 C471.655,257.248 466.027,210.462 453.689,198.606 Z M138.496,104.407 C138.496,126.659 156.535,144.7 178.788,144.7 C201.041,144.7 219.082,126.659 219.082,104.407 C219.082,82.154 201.041,64.114 178.788,64.114 C156.535,64.114 138.496,82.154 138.496,104.407 Z M254.543,142.258 C259.317,139.661 275.815,129.661 291.536,125.903 C291.288,124.162 291.101,122.406 290.985,120.64 C280.671,123.11 261.226,131.444 250.083,119.959 C273.592,127.053 285.33,113.638 302.609,113.638 C312.905,113.638 327.597,116.514 339.178,121.061 C329.863,112.456 299.317,86.486 261.497,86.396 C253.053,96.633 243.926,118.808 254.543,142.258 Z M331.252,98.825 C340.723,80.034 352.624,59.516 367.656,46.822 C351.111,53.49 334.776,73.423 325.118,94.728 C320.195,91.599 315.197,88.808 310.157,86.367 C323.63,57.609 354.936,33.592 389.437,31.716 C366.328,52.674 374.531,96.234 355.531,119.294 C350.094,113.833 337.61,103.294 331.252,98.825 Z M316.314,129.424 C316.324,128.705 316.593,123.158 317.098,120.626 C315.773,120.314 307.537,118.703 303.243,118.804 C302.93,124.197 305.509,133.372 308.058,138.895 C325.613,138.527 338.293,133.27 345.756,128.437 C339.402,125.475 328.56,122.842 320.316,121.267 C319.396,123.17 317.132,128.019 316.314,129.424 Z M154.664,104.407 C154.664,117.729 165.466,128.53 178.787,128.53 C192.111,128.53 202.911,117.729 202.911,104.407 C202.911,91.084 192.112,80.283 178.787,80.283 C165.466,80.283 154.664,91.084 154.664,104.407 Z M178.787,102.443 C186.550467,102.443 192.844,98.5299687 192.844,93.703 C192.844,88.8760313 186.550467,84.963 178.787,84.963 C171.023533,84.963 164.73,88.8760313 164.73,93.703 C164.73,98.5299687 171.023533,102.443 178.787,102.443 Z" id="bower-icon"></path>
        </g>
    </g>
</svg>