<svg xmlns="http://www.w3.org/2000/svg" viewBox="0 0 32 32"><title>file_type_jss</title><path d="M2,5.116H24.167V26.884H2Z" style="fill:#f7df1e"/><path d="M24.4,27H2V5H24.4ZM2.421,26.584H23.979V5.416H2.421Z"/><path d="M17,22.154A2.258,2.258,0,0,0,19.046,23.4c.858,0,1.406-.426,1.406-1.015,0-.7-.563-.954-1.508-1.364l-.518-.221c-1.495-.632-2.488-1.424-2.488-3.1a2.76,2.76,0,0,1,3.034-2.716,3.067,3.067,0,0,1,2.947,1.646l-1.613,1.028a1.41,1.41,0,0,0-1.334-.881.9.9,0,0,0-.991.881c0,.617.385.867,1.274,1.249l.518.22c1.76.749,2.754,1.513,2.754,3.23,0,1.851-1.465,2.866-3.433,2.866a3.987,3.987,0,0,1-3.776-2.1Zm7.473,0A2.258,2.258,0,0,0,26.519,23.4c.859,0,1.407-.426,1.407-1.015,0-.7-.563-.954-1.508-1.364L25.9,20.8c-1.495-.632-2.488-1.424-2.488-3.1a2.76,2.76,0,0,1,3.034-2.716,3.066,3.066,0,0,1,2.946,1.646l-1.613,1.028a1.409,1.409,0,0,0-1.333-.881.9.9,0,0,0-.992.881c0,.617.385.867,1.274,1.249l.518.22c1.76.749,2.754,1.513,2.754,3.23,0,1.851-1.465,2.865-3.433,2.865a3.985,3.985,0,0,1-3.775-2.1Zm-14.791.178c.325.573.621,1.058,1.333,1.058.681,0,1.11-.264,1.11-1.292V15.106H14.2v7.019a2.8,2.8,0,0,1-3.093,3.1A3.218,3.218,0,0,1,8,23.345l1.687-1.013Z"/></svg>