<svg xmlns="http://www.w3.org/2000/svg" viewBox="0 0 32 32"><title>file_type_informix</title><path d="M16.344,22.167c-.641.03-1.314.045-1.971.045-6.351,0-11.56-1.212-12.264-2.8a.794.794,0,0,0-.093.364v3.151C2.156,24.621,7.631,26,14.358,26a43.544,43.544,0,0,0,4.833-.258,7.516,7.516,0,0,1-2.847-3.575Z" style="fill:#054ada"/><path d="M15.859,19.545a7.309,7.309,0,0,1,.657-3.045q-1.056.045-2.158.045c-6.367,0-11.56-1.212-12.264-2.8A.845.845,0,0,0,2,14.121v3.152c.141,1.7,5.616,3.075,12.342,3.075.532,0,1.048-.015,1.564-.03A6.269,6.269,0,0,1,15.859,19.545Z" style="fill:#054ada"/><path d="M23.712,11.939a7.917,7.917,0,0,1,2.941.561c.015-.061.031-.121.046-.2V9.152C26.7,7.424,21.162,6,14.358,6,7.537,6,2.016,7.424,2,9.152V12.3c.141,1.7,5.616,3.076,12.358,3.076.969,0,1.924-.031,2.846-.091a7.929,7.929,0,0,1,6.508-3.349Z" style="fill:#054ada"/><path d="M23.712,13.455a6.192,6.192,0,0,0-6.289,6.09,6.292,6.292,0,0,0,12.577,0A6.192,6.192,0,0,0,23.712,13.455Zm4.235,9.576c-.772,0-1.545,0-2.317,0a.351.351,0,0,1-.3-.138c-.534-.61-1.075-1.215-1.621-1.829-.552.622-1.1,1.238-1.643,1.856a.254.254,0,0,1-.213.11c-.846,0-1.692,0-2.575,0,.144-.165.273-.31.4-.457.047-.054.11-.036.167-.036.269,0,.538-.009.806,0A.363.363,0,0,0,21,22.386a3.9,3.9,0,0,1,.26-.3H20.118c.134-.156.246-.284.355-.415.05-.059.118-.048.184-.048.275,0,.551-.009.826,0a.339.339,0,0,0,.319-.143c.075-.1.164-.191.265-.307h-1.09a.688.688,0,0,1,.652-.483h.443c.5,0,.513-.007.8-.449H21.745l.382-.432c.046-.053.111-.036.169-.036h.886c.106,0,.329-.16.327-.231s-.228-.228-.331-.229c-.269,0-.538-.009-.806,0a.368.368,0,0,1-.353-.158c-.073-.1-.166-.191-.269-.308H22.9c-.131-.151-.241-.273-.345-.4-.049-.061-.113-.054-.18-.054-.268,0-.537-.008-.806,0a.372.372,0,0,1-.355-.152c-.074-.1-.167-.193-.274-.314h1.148c-.147-.168-.263-.3-.379-.43-.046-.052-.111-.036-.17-.036-.268,0-.538-.01-.806,0a.361.361,0,0,1-.35-.161c-.069-.1-.158-.183-.258-.3H21.27l-.38-.427c-.046-.052-.112-.031-.17-.031-.275,0-.551-.007-.826,0a.316.316,0,0,1-.3-.132,4.139,4.139,0,0,0-.29-.333c.022-.053.069-.03.1-.03.806,0,1.613,0,2.419,0a.3.3,0,0,1,.248.118c.54.614,1.085,1.225,1.637,1.845.492-.553.989-1.092,1.46-1.651a.778.778,0,0,1,.7-.318c.745.029,1.491.009,2.274.009-.282.319-.546.62-.812.92-.727.819-1.452,1.639-2.186,2.453-.1.113-.039.166.029.243.983,1.106,1.965,2.213,2.972,3.349Z" style="fill:#054ada"/></svg>