<svg xmlns="http://www.w3.org/2000/svg" viewBox="0 0 32 32"><title>file_type_humanstxt</title><path fill="#e55017" d="M25.69 28.73c2.67-6.08 0 0 4.26-3.78-1.03-6.14-1.68-11.86-2.61-17.7-.5-3.1-2.22-4.28-5.28-3.85L5.27 5.71c-2.09.41-3.53 2.2-3.23 4.29.72 5.07 1.55 10.12 2.39 15.17.35 2.1 1.78 3.14 3.83 3.34.85.08 1.75.19 2.6.2"/><path fill="#e9e9e7" d="M29.95 24.95h-1.36c-.5 0-.78-.28-.78-.77v-7.03c0-4.76-2.26-6.85-6.28-6.85a6.87 6.87 0 0 0-6.18 3.57h-.07s.07-.64.07-1.52V6.03c0-.77-.18-1.33-.53-1.72-.39-.43-1-.65-1.87-.65H8.67v3.82h1.42c.5 0 .77.25.77.77v20.48h4.49v-8.26c0-.85.07-1.62.28-2.33a5.06 5.06 0 0 1 4.87-3.74c2.26 0 2.86 1.48 2.86 3.67v1.75c.3 0 .84-.5 1.49-.67.63-.17 1.11.34 1.18 1.03.1 1.04-.33 2.01-1.36 2.09-.56.04-1-.25-1.3-.53v4.6c0 1.67.69 2.38 2.32 2.4H30v-3.79m-13.32-4.91c.47 2.04-.23 4.1 1.75 4.6 1.93.47 2.76-1.38 3.53-2.84.2-.37.57-.76.19-1.4-1.64.32-3.35 1.01-5.47-.36m5.02-3.26c-.68-.05-1.14.36-1.22 1-.09.74.4 1.17 1.11 1.35.67-.05 1.13-.37 1.2-1.04.08-.75-.3-1.25-1.08-1.3m-3.02 1.87c.67-.02 1.03-.48 1.1-1.18-.09-.63-.38-1.08-1.1-1.11-.73-.03-1.13.38-1.17 1.04-.05.78.38 1.27 1.17 1.25"/></svg>