<?xml version="1.0" encoding="UTF-8"?>
<svg width="213px" height="254px" viewBox="0 0 213 254" version="1.1" xmlns="http://www.w3.org/2000/svg" xmlns:xlink="http://www.w3.org/1999/xlink">
    <!-- Generator: Sketch 41.2 (35397) - http://www.bohemiancoding.com/sketch -->
    <title>Combined Shape</title>
    <desc>Created with Sketch.</desc>
    <defs></defs>
    <g id="Page-1" stroke="none" stroke-width="1" fill="none" fill-rule="evenodd">
        <g id="SCSS" transform="translate(-32.000000, -23.000000)" fill="#CD6799">
            <path d="M140.025118,174.18071 C135.672311,176.178886 130.896329,178.791139 121.349646,184.026417 C117.707163,186.063738 113.941205,188.10106 110.422195,190.014907 C110.175247,189.767959 109.928299,189.459274 109.681351,189.212326 C90.7898244,169.024322 55.8466745,154.763072 57.3283628,127.660523 C57.8839959,117.7826 61.2795317,91.8530546 124.436497,60.3671773 C176.419063,34.7463165 217.782863,41.8460731 224.944356,57.5890118 C235.192701,80.0612849 202.780768,121.795506 149.069566,127.845734 C128.572877,130.130003 117.830637,122.227665 115.114208,119.264289 C112.274305,116.177438 111.842146,115.992227 110.792617,116.609597 C109.063981,117.535652 110.175247,120.313818 110.792617,121.91898 C112.397779,126.117097 119.00364,133.525539 130.178039,137.168023 C140.055962,140.378348 164.07166,142.168721 193.149793,130.932585 C225.6852,118.338234 251.12085,83.3333466 243.650671,54.0082648 C236.180492,24.2510241 186.790881,14.4348389 140.055962,31.0420956 C112.274305,40.9200179 82.1466424,56.4777455 60.4769505,76.7274861 C34.7326156,100.804922 30.6579727,121.733769 32.3248721,130.500425 C38.3133624,161.615881 81.2205873,181.865622 98.3834771,196.867715 C97.519159,197.361612 96.7165778,197.793771 96.0374706,198.164193 C87.4560257,202.424046 54.7354082,219.5252 46.5861224,237.614144 C37.3255702,258.110833 48.0678106,272.804242 55.1675673,274.779827 C77.2076813,280.891791 99.8651655,269.902603 112.027357,251.751922 C124.189549,233.601239 122.707861,210.0177 117.089792,199.213722 C119.065377,197.546823 121.349646,196.188609 123.572179,194.892132 C127.955507,192.299177 132.129112,189.753253 135.833333,187.777669 C135.838629,187.767679 135.843925,187.757696 135.849221,187.747722 C144.217848,184.279525 162.69651,177.192466 176.363102,178.793058 C205.74992,182.250332 211.5532,200.586224 210.441933,208.303352 C209.330667,216.020478 203.156965,220.218594 201.119645,221.515072 C199.082323,222.811549 198.403215,223.243709 198.588427,224.169763 C198.835375,225.527978 199.823167,225.46624 201.551803,225.219292 C203.959546,224.787134 216.986056,218.983855 217.541691,204.784341 C218.467745,186.63366 201.181381,166.816077 170.62156,167.001288 C160.590431,167.053807 151.676237,169.116806 143.954988,172.316134 C142.599771,172.877674 141.281305,173.474219 140,174.101045 C140.009603,174.12683 140.017965,174.15339 140.025118,174.18071 Z M96.3461557,245.14606 C86.5917075,255.764827 73.0095644,259.777732 67.144548,256.382197 C60.8473727,252.739713 63.3168531,237.058511 75.2938339,225.822375 C82.5788016,218.969567 91.9628277,212.610655 98.1982661,208.721223 C99.6182175,207.856904 101.717276,206.622164 104.248493,205.078739 C104.680653,204.831791 104.927601,204.708316 104.927601,204.708316 C105.421497,204.399631 105.915393,204.090946 106.409289,203.782262 C110.792617,219.833884 106.5945,233.97166 96.3461557,245.14606 Z" id="Combined-Shape"></path>
        </g>
    </g>
</svg>