<svg xmlns="http://www.w3.org/2000/svg" viewBox="0 0 32 32"><title>file_type_agda</title><path fill="#d2d2d2" d="M7.74 10.07a.54.54 0 0 1-.54.54.54.54 0 0 1-.54-.54.54.54 0 0 1 .54-.54.54.54 0 0 1 .54.54zM9.74 10.07a.54.54 0 0 1-.54.54.54.54 0 0 1-.54-.54.54.54 0 0 1 .54-.54.54.54 0 0 1 .54.54z"/><path fill="none" stroke="#d2d2d2" stroke-linecap="round" stroke-linejoin="round" stroke-width=".72" d="m22.4 4.67-8 8m12-6-4 4m4-6-4 4m-10-4-4 4m6-4-4 4m0-4-8 8h4v4c0 4.4 3.6 8 8 8s8-3.6 8-8v-4l4-4"/></svg>