<svg xmlns="http://www.w3.org/2000/svg" xml:space="preserve" fill-rule="evenodd" stroke-linejoin="round" stroke-miterlimit="2" clip-rule="evenodd" viewBox="0 0 32 32"><path fill="#ffe057" fill-rule="nonzero" d="M29.5 5.5H18.2l-2.1 4.2H4.3v4H.5l3.8 12.8h25.2v-21Zm-9.3 2.1h7.1v2.1h-8.1l1-2.1Zm5.5 6.1H6.6v-1.9h20.8v7.63l-1.7-5.73Z"/><path fill="#ff4d1f" fill-rule="nonzero" d="M22.77 11c0 1.25.37 3.35-.49 4.38-.44.54-.84.14-1.33.34-.5.2-.81 1.18-.97 1.65-.3.87-.48 1.87-.5 2.79-.02.43.14 1.14-.18 1.48-1.38 1.4-2.01-1-2.1-2-1.89 1.52-2.05 4.6-1 6.6.4.77 1.25 1.39 1.51 2.2-.51 0-.9-.15-1.39-.3.66 1.64 4.46 2.7 6.08 2.86h1.98c.73-.06 1.03-.23 1.46-.36 1.28-.36 2.88-.94 3.6-2.13-.23.02-1.02.18-.84-.3.25-.66 1.32-1.15 1.72-1.82 1.23-2.1.63-4.9-.52-6.9-.18.4-.47 1.69-1.16 1.26-.38-.23-.45-.78-.5-1.18-.13-1.07.1-2.1-.26-3.15-.73-2.18-3.08-4.43-5.11-5.42Z"/><path fill="#ff9d46" fill-rule="nonzero" d="M23.65 14.44c-.02 1.44-.86 2.47-1.52 3.67a16.72 16.72 0 0 0-1.45 3.66c-.25.9-.32 2.13-1.28 2.6-.72.35-1.45-.47-1.98-.84-.64 1.91.4 3.99 1.46 5.42a6.27 6.27 0 0 0 1.84 1.46c.25.15 1.68.59 1.68.59h1.98c1.88-1.14 3.94-2.77 4.62-4.98-2.16.68-.1-1.63-.6-2.78-.33-.7-1.66.57-2.1-.52-.25-.57.06-1.37.06-1.98a8.9 8.9 0 0 0-1.27-4.98c-.36-.53-.79-1.17-1.44-1.32m3.07 0 .08.08-.08-.08Z"/><path fill="#ff4d1f" fill-rule="nonzero" d="M17.71 15.4c-.1.67-.61.97-.93 1.53a4.23 4.23 0 0 0-.39 2.05c1.28-.52 2.1-2.35 1.32-3.58Z"/><path fill="#ffdd57" fill-rule="nonzero" d="M19.84 26.53c.02 1.56.82 4.24 2.56 4.47h1.98c1.25-.96 1.84-3.14 2.2-4.61l-.73.36c.34-.67.58-1.47.8-2.2-.27.24-.42.52-.73.7-2.48 1.5-1.95-3.12-1.83-4.43a4.74 4.74 0 0 0-2.85 3.59c-.08.55.12 1.55-.17 2.03-.28.47-.84.23-1.23.1"/><path fill="#fbfacc" d="M22.4 31h1.98c.32-1.05.83-2.17 1.17-3.22-1.5 1.07-1.95-1.4-2.34-2.35-.25.88-.76 3.32-1.98 2.5A5.7 5.7 0 0 0 22.4 31Z"/></svg>