<svg xmlns="http://www.w3.org/2000/svg" xml:space="preserve" width="32mm" height="32mm" viewBox="0 0 32 32"><path d="M21.718 25.276c-2.807-.082-5.617-.015-8.425-.094-.59-.031.117-1.262-.618-1.046-1.945-.019-3.893.018-5.836-.054-.647-.625-.59-1.792-.984-2.618-.645-2.217-1.362-4.417-1.96-6.645.403-.862 2.19.212 2.484-.622.129-.834-.153-1.925.232-2.598 2.835-.075 5.674.016 8.509-.087.457-.878.856-1.79 1.371-2.637.937-.24 1.993-.085 2.973-.16 1.717-.014 3.435-.077 5.15-.04.456.566.128 1.623.257 2.376l.04 1.922c.497.085 1.395-.207 1.417.535-.03.493.795.357.535 1.059.062 2.547-.079 5.095-.023 7.643-.027.997.07 2.009-.065 2.995-.92.196-1.915.047-2.863.1-.731-.005-1.464.008-2.194-.029M12.933 14.24c-.143-.554 1.44-.525.372-.622h-4.37c-.227 1.017.806.864 1.538.83l2.457-.014q0-.098.003-.194m5.034-.504c-.204-.282-.192.298 0 0m4.278.037c-.103-.344-.412.183 0 0m.557-2.637c-.148-.88-1.696-.217-2.434-.415l-1.899.02c-.376.439-.571.945.277.748 1.353.029 2.707.026 4.06.024q0-.188-.004-.377" style="fill:#74d3fd" transform="translate(-.021 -1.676)scale(1.04085)"/><path d="M21.69 25.21c-2.838-.048-5.678-.007-8.516-.08-.035-.588.031-1.275-.788-1.049-1.856-.014-3.712-.005-5.568-.008-.511-.82-.598-1.852-.94-2.754-.643-2.168-1.321-4.334-1.94-6.503.523-.692 1.922.073 2.478-.445.062-.896.003-1.8.113-2.691 1.788-.144 3.6-.027 5.397-.073a100 100 0 0 0 3.235-.052c.452-.87.842-1.775 1.353-2.611.94-.29 2.01-.11 3.002-.188l5.129-.07c.32.748.093 1.658.183 2.467.115.768-.364 2.271.909 1.928.746-.044.383.96 1.023 1.003.171 2.26-.08 4.523-.006 6.786 0 1.436.016 2.873-.007 4.31-1.678.104-3.374.032-5.057.03m-8.706-10.763c-.398-.723 1.352-.517.61-.895l-4.701.022c-.108.728.211 1.105.99.923 1.034-.004 2.07.022 3.1-.05m5.033-.614c.063-.711-.621.264 0 0m4.246.025c.137-.602-.694.15 0 0m.586-2.72c-.062-.953-1.656-.25-2.368-.463l-2.055.022c-.25.366-.784.981.058.813 1.454.05 2.91.048 4.365.045z" style="fill:#38c1fd" transform="translate(-.021 -1.676)scale(1.04085)"/><path d="M21.733 25.21c-2.853-.048-5.708-.008-8.56-.08-.042-.594.055-1.325-.787-1.092-1.856-.014-3.713-.005-5.57-.008-.461-.913-.62-1.966-.958-2.934-.63-2.09-1.265-4.184-1.878-6.276.575-.534 1.691-.062 2.466-.281.071-.941.033-1.887.103-2.828 2.806-.105 5.617-.016 8.424-.103.749-.56.955-1.764 1.522-2.56.786-.425 1.897-.113 2.803-.243 1.787-.003 3.58-.108 5.363-.022.19.93.077 1.94.134 2.901-.02.751-.13 1.726.94 1.399.683-.009.416.953 1.02 1.023.122 2.535-.066 5.072 0 7.608-.007 1.155.026 2.312-.03 3.465-1.657.104-3.33.033-4.992.032m-8.72-10.742c-.435-.73 1.367-.535.582-.959l-4.745.022c-.087.697.146 1.235.968 1.005 1.06-.03 2.155.085 3.194-.068m5.027-.744c-.385-.626-.353.611 0 0m4.251 0c-.433-.641-.415.625 0 0m.614-2.448c.207-.674-.242-.734-.74-.657-1.234.021-2.472-.025-3.703.06-.54.367-.771 1.134.153.897 1.426.033 2.852.022 4.277.022z" style="fill:#00b0fd" transform="translate(-.021 -1.676)scale(1.04085)"/><path d="M21.733 25.21c-2.857-.058-5.72.013-8.574-.096-.093-1.706-.066-3.42-.135-5.13-.01-2-.04-4.002.011-6.002.448-.098.942 0 .74-.618-.312-.921.683-.696 1.244-.714.352-.068.418.523.81.371.605.03 1.223-.02 1.818.096-.016.39.384 1.212.382.417-.253-.797.385-1.016 1.06-.884.396-.164.506.319.81.368.656.02 1.315.007 1.968.072-.057.374.36 1.246.416.5-.308-.962.583-1.07 1.333-.926.585.595 1.535.331 2.318.43.511.113.135.968.8.884.171 2.373-.047 4.756.019 7.134-.007 1.355.031 2.713-.028 4.067-1.657.104-3.33.033-4.992.032m-7.975-2.734c-.14-.853.208-1.417 1.1-1.194.402-.162.48.44.837.386h1.845c.157.317.429 1.366.52.453-.276-.905.593-.891 1.22-.839.338.005.447.553.858.386.567.025 1.16-.065 1.708.071-.09.45.437 1.228.466.398-.282-.917.592-.91 1.23-.855.341-.008.427.56.842.386.578.037 1.2-.101 1.742.107-.066.573.366.984.312.234.149-.687.038-1.26-.821-1.013-4.065-.026-8.13-.01-12.194-.015.09.393-.145 1.524.335 1.495m0-4.252c-.135-.843.198-1.418 1.088-1.193.411-.15.49.493.884.386.599.024 1.212-.063 1.799.065.072.261.288 1.24.53.536-.282-.897.439-1.117 1.155-.987.356-.063.425.546.823.386h1.711c.153.303.185 1.335.563.602-.285-.905.447-1.116 1.166-.988.363-.073.424.547.826.386.589.019 1.19-.05 1.768.06.084.3.262 1.202.356.4-.086-.338.193-1.052-.084-1.211-4.314.008-8.629-.01-12.942.054.052.364-.287 1.71.357 1.504" style="fill:#0087c3" transform="translate(-.021 -1.676)scale(1.04085)"/><path d="M21.733 25.21c-2.856-.054-5.715.005-8.57-.092-.1-1.54.04-3.086-.073-4.628-.027-2.17-.066-4.343-.053-6.51.446-.095.934 0 .763-.617-.233-.874.725-.645 1.266-.67.285.104.438.515.833.374l1.66.034c.08.387.466 1.237.494.433-.21-.823.444-.927 1.096-.84.39-.144.441.48.82.37l1.849.037c-.034.46.478 1.216.486.433-.35-1.072 1.152-1.072 1.65-.55.682.393 2.129-.423 2.318.606.009.488.778.296.508.991.054 2.583-.079 5.165-.024 7.749-.104.912.204 2.15-.166 2.875-1.618.046-3.239.023-4.857.006m4.68-1.298c.226-.941-.286-1.253-1.16-1.075a350 350 0 0 0-4.695.017c.576-.277 1.528.444.643.714-.891.007-1.82.117-2.69-.025.029-.513-.044-.808-.61-.672-1.424.013-2.852-.036-4.274.036-.228.484-.077 1.137-.118 1.694-.053.405.588.117.852.205q6.04.02 12.08.083zm-12.628-1.368c.013-.724.09-1.422 1.019-1.176.444-.188.528.406.914.343h1.779c.159.261.362 1.319.605.59-.279-.952.521-1.002 1.237-.933.29.148.493.483.915.343.555.103 1.624-.342 1.615.473.1.9.783-.017.5-.529.09-.523.99-.254 1.382-.243.162.403.571.29.922.3.542.07 1.587-.296 1.469.58.342.774.568-1.036.317-1.319-3.229-.117-6.466-.043-9.697-.07-1.112.006-2.224-.013-3.335.03.027.397-.246 1.696.358 1.611m3.624-.202c-.525-.532-1.753-.112-2.544-.235-.575-.237-.916.557-.12.37.884.003 1.767-.01 2.65-.014zm4.152-.05c.027-.369-.6-.088-.851-.18-.704.017-1.433-.072-2.117.051-.124.632 1.267.194 1.794.309l1.174-.01zm3.758.155c.37.168.776-.334.266-.33-.887-.002-1.774-.03-2.66.002-.405.508.338.346.641.361a46 46 0 0 0 1.753-.033m1.088-2.767c.2-.845-.172-1.245-1.02-1.048-3.968-.007-7.936-.046-11.901.027-.007.422-.328 1.807.207 1.936 4.24.02 8.48.024 12.72.021zm-7.888-.402c-.16-1.032 1.43-.392 2.075-.572.469-.255 1.35.322.637.589a41 41 0 0 1-2.712-.017m-4.718-1.01c-.033-.72.062-1.38.937-1.151.438-.182.55.319.888.343.629.022 1.274-.057 1.89.062-.085.468.494 1.264.587.428-.314-1.002.633-.844 1.272-.833.213.287.5.422.89.343.557.094 1.675-.338 1.587.53-.075.713.875.136.507-.41.054-.958 1.363-.302 1.818-.12.633.038 1.309-.1 1.907.105-.082.454.405 1.165.387.298.075-.694.214-1.57-.794-1.238-4.12 0-8.24.026-12.36.04.018.527-.002 1.057.07 1.579.104.103.297.1.414.023m3.53-.177c-.532-.54-1.766-.101-2.556-.239-.974.05-.283.582.314.378.747.006 1.495.002 2.242.003zm4.187-.051c.027-.368-.6-.087-.851-.18-.684.014-1.386-.066-2.056.05-.191.622 1.242.202 1.754.31l1.153-.008zm4.351.05c-.514-.53-1.73-.113-2.511-.236-.83-.102-.535.615.094.375l2.403-.017zm.61-2.6c-.092-.45.274-1.479-.51-1.25-4.204.016-8.41-.045-12.613.048-.017.685.053 1.37.083 2.056h13.04zm-7.932-.556c-.28-.97 1.18-.423 1.74-.566h1.126c.362 1.02-1.235.45-1.796.613-.354-.017-.724.04-1.07-.047m-1.194-1.253c-.029-.324-.637-.074-.909-.157l-2.12-.016c-.152.68 1.23.204 1.72.333l1.309-.01zm4.221.01c-.043-.34-.64-.084-.921-.168-.692.017-1.413-.07-2.083.049-.014.573 1.301.157 1.834.28h1.184zm4.324-.01c-.028-.324-.636-.074-.908-.157-.715.006-1.435-.045-2.146.033-.284.504.471.225.736.291l2.318-.017z" style="fill:#0683ba" transform="translate(-.021 -1.676)scale(1.04085)"/><path d="M21.733 25.168c-2.848-.038-5.697-.034-8.546-.05-.08-1.774-.029-3.55-.106-5.323-.001-1.935-.09-3.875.011-5.806.45-.053.924.032.724-.57-.268-.875.692-.668 1.228-.683.307.018.415.507.799.344.595.035 1.232-.098 1.792.114-.163.471.523 1.14.437.383-.126-.56.028-1.023.64-.84.885.045 1.603.555 2.58.345.811-.406.565 1.435 1.048.665l.037-.99c.45.022.952-.075 1.369.02.165.341.496.332.83.316.605.11 1.727-.3 1.66.631.845.35.371 1.603.504 2.427.003 3.006-.016 6.012-.026 9.017-1.66.002-3.32.021-4.981 0m4.708-1.288c.124-.763-.032-1.313-.89-1.085-4.007 0-8.015-.005-12.02.082-.082.652-.05 1.313-.07 1.97 4.332.014 8.664.076 12.996.064zm-7.91-.384c-.298-1.031 1.18-.419 1.754-.57l1.147.01c.229.993-1.159.449-1.754.588-.382-.006-.766.007-1.147-.028m-4.678-1.484c-.223-.868.837-.658 1.344-.601.17.35.498.36.845.33.528.104 1.524-.295 1.61.418.284 1.01.611-.19.513-.687.163-.196.67-.04.965-.101.403-.168.439.477.823.365.617.023 1.245-.026 1.853.074-.26.554.555 1.185.59.38-.3-.972.637-.83 1.27-.823.18.326.462.438.825.376l1.58.033c-.207.447.435 1.15.441.446.03-.645.25-1.597-.756-1.285-4.052-.03-8.105-.068-12.156-.02-.455.125-.309 1.483.054 1.645.331.08.129-.37.199-.55m3.599.356c-.412-.682-1.769-.135-2.54-.31-.906-.22-.856.77.041.46.829.003 1.657-.008 2.486-.012zm4.152-.077c.064-.419-.582-.133-.852-.221-.738.024-1.506-.096-2.218.07-.224.75 1.255.222 1.748.375l1.322-.01zm3.758.198c.363.15.72-.254.38-.413-.976.018-1.969-.08-2.932.046-.209.829 1.362.205 1.86.39q.345-.006.692-.023m1.088-2.808c.106-.704.018-1.341-.855-1.09-4.07-.026-8.142-.01-12.213-.014.1.608-.44 2.07.46 2.063 4.205.042 8.41.012 12.615.02zm-7.887-.445c-.082-.908 1.406-.314 2.01-.487.474-.317 1.252.427.59.495-.867 0-1.735.033-2.6-.008m-4.71-1.488c-.225-.856.829-.647 1.318-.588.168.351.497.358.843.329.573.09 1.76-.315 1.586.625.888.76.143-1.602 1.38-.998.406-.166.52.301.82.367.658.018 1.321-.01 1.976.068-.164.51.281 1.175.615.513-.278-.925.438-1.028 1.138-.947.308.024.404.53.796.369.573.043 1.188-.078 1.728.104-.106.524.438 1.094.459.273-.123-.332.254-1.17-.142-1.24-4.361.021-8.725-.043-13.083.075.052.498-.232 1.92.547 1.543zm3.521.343c-.476-.633-1.828-.12-2.632-.282-.747-.145-.63.754.074.46.853.011 1.706.005 2.558.007zm4.201.04c.11-.575-.618-.237-.945-.327-.684.016-1.378-.05-2.053.067-.321.739 1.22.267 1.74.393l1.244-.01zm4.337-.04c-.464-.63-1.807-.125-2.597-.282-.985-.066-.422.762.294.459.763 0 1.526-.009 2.29-.014zm.588-2.79c.13-.759-.036-1.39-.94-1.128-4.051-.011-8.105-.06-12.155.024-.126.56-.224 1.745.09 2.19l13.005-.022zm-7.926-.394c-.18-.9 1.202-.344 1.768-.484l1.047.01c.148.921-1.254.34-1.825.502-.33-.006-.661.006-.99-.028m-1.178-1.226c.045-.394-.592-.11-.852-.2-.759.019-1.535-.076-2.28.052-.14.72 1.284.195 1.788.351l1.344-.01zm4.244.183c.157-.593-.504-.317-.832-.382-.76.028-1.56-.105-2.285.074-.12.697 1.332.172 1.833.338.428-.007.858.006 1.284-.03m4.301-.183c.046-.394-.591-.11-.851-.2-.76.016-1.548-.072-2.287.052-.152.71 1.291.22 1.826.35l1.312-.009z" style="fill:#0075a9" transform="translate(-.021 -1.676)scale(1.04085)"/><path d="M21.665 25.13c-2.815-.04-5.631-.033-8.447-.048-.068-1.665-.002-3.33-.095-4.995-.023-2.021-.078-4.045-.013-6.064.874.165.784-.596.764-1.222l1.304-.024c.167.395.534.371.903.346.671.03 1.792-.265 1.65.776.85.378-.096-1.383.76-1.12.317.032.693-.062.973.045.158.404.568.289.918.299.67.023 1.701-.246 1.56.777.915.421-.065-1.379.801-1.12.33.032.735-.067 1.019.048.523.65 1.608.1 2.34.371.094.423.132.84.61.88.068 3.677-.003 7.357-.014 11.036q-2.516.06-5.033.015m4.82-1.228c.105-.762-.004-1.48-.949-1.196a940 940 0 0 0-11.99.062c-.115.577-.62 2.32.442 2.132 4.17.061 8.34.109 12.512.097zm-7.915-.485c-.246-.59.447-.352.78-.402l2.06-.016c.051.94-1.446.267-2.044.487-.257-.027-.567.06-.796-.07m-4.674-1.362c-.115-1.163 1.367-.519 1.923-.303.695.06 1.973-.32 1.867.776.3.25.575-.065.46-.447-.22-.887.708-.639 1.26-.67.18.386.547.371.918.343.607.048 1.68-.278 1.51.686.685.689.549-.66.686-1.009.388.024.834-.077 1.186.022.162.4.57.291.92.306.578.077 1.665-.291 1.458.632.61.648.655-1.188.377-1.472-4.356-.092-8.715-.05-13.072-.077-.046.504-.325 1.845.455 1.752.075-.113.025-.378.052-.539m3.51.531c.358-1.036-1.506-.393-2.131-.574-.45-.175-1.654.18-.882.582 1.004.015 2.01.027 3.013-.008m4.192-.028c.333-.591-.226-.563-.632-.53-.806.008-1.615-.048-2.417.021-.47.962 1.355.422 1.918.563.377-.012.758.004 1.131-.054m4.256-.015c.32-.579-.238-.545-.637-.515-.82.007-1.644-.049-2.46.032-.165 1.03 1.56.34 2.23.523.29-.01.58-.005.867-.04m.64-2.859c.153-.809-.053-1.408-.963-1.18-3.988-.01-7.978-.04-11.966.018-.522.275-.301 1.729-.059 2.164 4.33.103 8.663.045 12.994.06zm-7.846-.492c-.242-.586.503-.284.823-.352l1.875.016c-.08.756-1.466.191-2.074.361-.208-.007-.417.003-.624-.025m-4.762-1.386c-.23-.843.797-.676 1.287-.602.162.403.57.29.921.299.678.002 1.714-.215 1.524.813.718.332.476-.5.555-.907.113-.34 1.02-.365 1.312-.117.192.38.677.147 1.02.211.656-.05 1.53-.12 1.293.788.955.503.425-.89.778-1.113.542-.057 1.09-.02 1.44.325.654.018 1.32-.048 1.965.057-.05.517.524 1.26.563.318.087-.69.2-1.613-.809-1.291-4.09-.003-8.181-.015-12.27.058-.415.217-.252 1.307-.034 1.703.577.092.432-.09.455-.542m3.553.46c.176-.62-.388-.482-.782-.49-.809.019-1.63-.078-2.427.058-.233.91 1.418.3 2.012.484.396-.02.808.034 1.197-.053m4.165-.226c.115-.465-.522-.183-.795-.264-.773.017-1.558-.076-2.32.059-.3.853 1.225.337 1.772.472l1.343-.01zm4.35.01c.098-.473-.525-.197-.808-.274-.787.004-1.578-.04-2.363.029-.342.925 1.254.352 1.806.514h1.378zm.564-1.618c.052-.718.161-1.68-.081-2.3H13.273c.023.762-.011 1.529.074 2.287 3.527.104 7.061.034 10.59.045.86-.008 1.722 0 2.581-.032m-7.898-1.736c-.051-.4.589-.111.851-.199h1.897c.15.473-.314.331-.625.344-.707.012-1.42-.034-2.123.054zm-1.16-.988c-.423-.709-1.84-.144-2.657-.307-.95-.186-.708.875.12.533.846.008 1.692.004 2.537.005zm4.223.003c-.454-.72-1.866-.144-2.679-.325-.906-.105-.593.863.167.544.84.002 1.68-.008 2.519-.013zm4.345.088c-.105-.81-1.363-.248-1.96-.408-.421.033-.898-.05-1.283.055-.463.882 1.202.335 1.686.493h1.53z" style="fill:#006e9e" transform="translate(-.021 -1.676)scale(1.04085)"/></svg>