<svg xmlns="http://www.w3.org/2000/svg" xmlns:xlink="http://www.w3.org/1999/xlink" viewBox="0 0 32 32"><defs><linearGradient id="a" x1="-675.761" y1="773.57" x2="-661.656" y2="787.678" gradientTransform="translate(688.886 -758.637)" gradientUnits="userSpaceOnUse"><stop offset="0"/><stop offset="1" stop-color="#fff"/></linearGradient><linearGradient id="b" x1="-661.017" y1="787.04" x2="-675.123" y2="772.932" xlink:href="#a"/></defs><title>folder_type_json</title><path d="M27.5,5.5H18.2L16.1,9.7H4.4V26.5H29.6V5.5Zm0,4.2H19.3l1.1-2.1h7.1Z" style="fill:#5784b5"/><path d="M20.983,25.887c4.425,6.032,8.755-1.683,8.748-6.323-.007-5.485-5.567-8.552-8.752-8.552a9.994,9.994,0,0,0,0,19.988c-.995-.143-4.313-.857-4.357-8.5-.03-5.168,1.686-7.232,4.351-6.325a5.077,5.077,0,0,1,2.939,4.869A5.093,5.093,0,0,1,20.983,25.887Z" style="fill:url(#a)"/><path d="M20.978,16.175c-2.924-1.008-6.506,1.4-6.506,6.229,0,7.882,5.841,8.6,6.549,8.6a9.994,9.994,0,0,0,0-19.988c1.218-.168,6.568,1.319,6.568,8.63C27.589,24.409,23.594,27,21,25.9a5.077,5.077,0,0,1-2.94-4.869A5.122,5.122,0,0,1,20.978,16.175Z" style="fill:url(#b)"/></svg>