<svg xmlns="http://www.w3.org/2000/svg" viewBox="0 0 32 32"><title>folder_type_kubernetes</title><path d="M27.5,5.5H18.2L16.1,9.7H4.4V26.5H29.6V5.5Zm0,4.2H19.3l1.1-2.1h7.1Z" style="fill:#89a8ec"/><path d="M20.1,10a1.448,1.448,0,0,0-.551.14l-7.524,3.6a1.429,1.429,0,0,0-.778.968L9.39,22.78a1.417,1.417,0,0,0,.2,1.094q.038.059.082.114l5.208,6.475A1.443,1.443,0,0,0,16,31l8.352,0a1.443,1.443,0,0,0,1.125-.536l5.206-6.476a1.418,1.418,0,0,0,.278-1.208L29.1,14.7a1.429,1.429,0,0,0-.778-.968L20.8,10.141A1.449,1.449,0,0,0,20.1,10Z" style="fill:#326ce5"/><path d="M20.175,12.75a.477.477,0,0,0-.45.5v.013c0,.038,0,.083,0,.115a3.757,3.757,0,0,0,.062.428,4.207,4.207,0,0,1,.05.817.491.491,0,0,1-.146.233l-.011.191a5.861,5.861,0,0,0-.814.125,5.793,5.793,0,0,0-2.943,1.681c-.05-.034-.137-.1-.163-.115a.356.356,0,0,1-.268-.026,4.206,4.206,0,0,1-.607-.549,3.753,3.753,0,0,0-.3-.315c-.027-.024-.069-.056-.1-.08a.536.536,0,0,0-.314-.118.434.434,0,0,0-.359.159.477.477,0,0,0,.111.664l.007,0c.03.024.066.055.093.075a3.754,3.754,0,0,0,.373.218,4.2,4.2,0,0,1,.67.471.5.5,0,0,1,.09.26l.144.129a5.828,5.828,0,0,0-.919,4.063l-.189.055a.624.624,0,0,1-.193.2,4.205,4.205,0,0,1-.807.133,3.768,3.768,0,0,0-.432.035c-.034.007-.083.019-.12.028h0l-.007,0a.452.452,0,1,0,.2.878h.007l.009,0c.037-.008.084-.017.116-.026a3.764,3.764,0,0,0,.4-.155,4.209,4.209,0,0,1,.785-.231.5.5,0,0,1,.259.091l.2-.034a5.861,5.861,0,0,0,2.6,3.243l-.082.2a.446.446,0,0,1,.04.255,4.4,4.4,0,0,1-.408.733,3.772,3.772,0,0,0-.242.36c-.018.034-.041.086-.058.121a.452.452,0,1,0,.813.386h0c.017-.035.041-.081.056-.115a3.758,3.758,0,0,0,.13-.413,3.149,3.149,0,0,1,.349-.809A.365.365,0,0,1,18,26.522l.1-.185a5.829,5.829,0,0,0,4.156.011c.029.051.082.149.1.173a.356.356,0,0,1,.23.14,4.2,4.2,0,0,1,.309.757,3.767,3.767,0,0,0,.131.413c.015.033.039.08.056.115a.452.452,0,1,0,.814-.385c-.017-.036-.041-.088-.059-.121a3.756,3.756,0,0,0-.242-.359,4.208,4.208,0,0,1-.4-.715.353.353,0,0,1,.035-.266,1.548,1.548,0,0,1-.075-.182,5.861,5.861,0,0,0,2.6-3.266c.058.009.16.027.192.034a.356.356,0,0,1,.252-.093,4.21,4.21,0,0,1,.785.231,3.765,3.765,0,0,0,.4.156c.033.009.079.017.116.025l.009,0h.007a.452.452,0,1,0,.2-.878c-.039-.009-.093-.024-.131-.031a3.768,3.768,0,0,0-.432-.035,4.2,4.2,0,0,1-.807-.133.505.505,0,0,1-.194-.2l-.182-.053a5.85,5.85,0,0,0-.938-4.053l.16-.143a.356.356,0,0,1,.085-.255,4.2,4.2,0,0,1,.67-.471,3.766,3.766,0,0,0,.374-.218c.029-.021.069-.055.1-.08a.453.453,0,1,0-.561-.7c-.031.024-.072.056-.1.08a3.768,3.768,0,0,0-.3.315,4.218,4.218,0,0,1-.607.549.5.5,0,0,1-.273.03l-.171.122a5.9,5.9,0,0,0-3.738-1.806c0-.06-.009-.168-.011-.2a.356.356,0,0,1-.147-.225,4.215,4.215,0,0,1,.051-.817,3.757,3.757,0,0,0,.062-.428c0-.036,0-.089,0-.128a.477.477,0,0,0-.45-.5Zm-.564,3.493-.134,2.362-.01,0a.4.4,0,0,1-.63.3l0,0L16.9,17.543a4.639,4.639,0,0,1,2.234-1.217A4.746,4.746,0,0,1,19.611,16.243Zm1.129,0a4.678,4.678,0,0,1,2.7,1.3l-1.925,1.365-.007,0a.4.4,0,0,1-.631-.3h0Zm-4.546,2.182,1.769,1.582,0,.01a.4.4,0,0,1-.156.682l0,.008-2.267.654A4.638,4.638,0,0,1,16.194,18.426Zm7.949,0a4.724,4.724,0,0,1,.678,2.927L22.543,20.7l0-.01a.4.4,0,0,1-.156-.682v0l1.759-1.574Zm-4.331,1.7h.725l.45.563-.162.7-.651.313-.652-.314-.162-.7Zm2.323,1.927a.4.4,0,0,1,.091.007l0,0,2.345.4A4.644,4.644,0,0,1,22.7,24.813l-.91-2.2,0,0a.4.4,0,0,1,.345-.554Zm-3.939.01a.4.4,0,0,1,.359.553l.007.009-.9,2.177a4.663,4.663,0,0,1-1.872-2.342l2.325-.395,0,0a.4.4,0,0,1,.078-.007Zm1.964.954a.4.4,0,0,1,.364.209h.009L21.679,25.3a4.751,4.751,0,0,1-.458.128,4.657,4.657,0,0,1-2.541-.131l1.143-2.067h0A.4.4,0,0,1,20.16,23.02Z" style="fill:#fff;stroke:#fff;stroke-width:0.25px"/></svg>