<svg id="folder_type_trunk_opened" data-name="folder type trunk opened" xmlns="http://www.w3.org/2000/svg" viewBox="0 0 32 32"><g id="folder"><path d="M27.4,5.5H18.2L16.1,9.7H4.3V26.5H29.5V5.5Zm0,18.7H6.6V11.8H27.4Zm0-14.5H19.2l1-2.1h7.1V9.7Z" style="fill:#a54646"/><polygon points="25.7 13.7 0.5 13.7 4.3 26.5 29.5 26.5 25.7 13.7" style="fill:#a54646"/></g><g id="icon"><path d="M21.81,31V29a7.3,7.3,0,0,0,4-1.2,7.19,7.19,0,0,0-2.6-13,7.16,7.16,0,0,0-8.59,7h-2a9.16,9.16,0,0,1,5.67-8.44,9.28,9.28,0,0,1,5.31-.52A9.14,9.14,0,0,1,30.82,20a9,9,0,0,1-.52,5.28,9.15,9.15,0,0,1-3.38,4.1A9.33,9.33,0,0,1,21.81,31Z" style="fill:#fb6a5b"/><path d="M17.35,21.86h-2a6.4,6.4,0,0,1,1.89-4.54,6.52,6.52,0,0,1,4.57-1.88v2a4.45,4.45,0,0,0-3.15,1.31,4.39,4.39,0,0,0-1.31,3.13Z" style="fill:#fb6a5b"/><path d="M25.54,21.86h-2a1.76,1.76,0,0,0-3.51,0H18a3.68,3.68,0,0,1,1.09-2.62,3.75,3.75,0,0,1,5.28,0,3.68,3.68,0,0,1,1.09,2.62Z" style="fill:#fb6a5b"/></g></svg>