<svg xmlns="http://www.w3.org/2000/svg" viewBox="0 0 32 32"><title>folder_type_light_mypy_opened</title><path d="M27.4,5.5H18.2L16.1,9.7H4.3V26.5H29.5V5.5Zm0,18.7H6.6V11.8H27.4Zm0-14.5H19.2l1-2.1h7.1V9.7Z" fill="#1c5287"/><polygon points="25.7 13.7 0.5 13.7 4.3 26.5 29.5 26.5 25.7 13.7" fill="#1c5287"/><path fill="#2a6db2" d="M20.44 11.04c-4.82 0-4.53 2.1-4.53 2.1l.01 2.15h4.6v.66H14.1S11 15.59 11 20.45c0 4.87 2.7 4.7 2.7 4.7h1.6v-2.26s-.09-2.7 2.64-2.7h4.57s2.56.05 2.56-2.47v-4.16s.4-2.52-4.64-2.52zm-2.54 1.45a.83.83 0 1 1 0 1.66.83.83 0 0 1 0-1.66z"/><path fill="#505050" d="M20.57 29.93c4.82 0 4.53-2.1 4.53-2.1l-.01-2.16h-4.6v-.65h6.42s3.09.35 3.09-4.51c0-4.87-2.7-4.7-2.7-4.7h-1.6v2.27s.09 2.69-2.64 2.69h-4.57s-2.56-.04-2.56 2.47v4.17s-.4 2.52 4.64 2.52zm2.54-1.46a.83.83 0 1 1 0-1.65.83.83 0 0 1 0 1.65z"/></svg>