<svg viewBox="0 0 32 32" xmlns="http://www.w3.org/2000/svg"><path d="m27.5 5.5h-9.3l-2.1 4.2h-11.7v16.8h25.2v-21zm0 4.2h-8.2l1.1-2.1h7.1z" fill="#8895d1"/><path d="m11.847 23.189 5.715-10.889 5.622-3.014 1.671.845-5.588 3.157 5.774 17.354-1.857-1.08-4.322-9.962-5.672 4.306z" fill="#fff"/><ellipse cx="28.552" cy="18.403" fill="#fff" rx="2.11" ry="1.967"/><path d="m30.088 17.525a1.911 1.911 0 0 0 -3.266.236 1.721 1.721 0 0 0 .329 1.925 2.785 2.785 0 0 0 2.937-2.161zm-5.672-7.425-1.216-.67-5.293 2.946.422.228.8.422 1.452-.8 3.832-2.136zm.49-.2a.189.189 0 0 1 .135.127l1.772 5.233a.174.174 0 0 1 -.084.228 3.427 3.427 0 0 0 -1.654 3.912 3.62 3.62 0 0 0 3.866 2.549.223.223 0 0 1 .219.135l1.832 5.369a.217.217 0 0 1 -.085.236l-5.63 3.292a.221.221 0 0 1 -.084.017.23.23 0 0 1 -.152-.025l-1.975-1.241a.2.2 0 0 1 -.085-.085l-3.857-8.871-5.875 3.342a.175.175 0 0 1 -.043.017.2.2 0 0 1 -.185-.008l-1.334-.76a.193.193 0 0 1 -.084-.253l5.706-10.83a.2.2 0 0 1 .091-.084l5.689-3.174a.218.218 0 0 1 .2 0zm-7.057 2.912-.279-.143-5.5 10.475 1 .566 4.744-6.2a.233.233 0 0 1 .194-.085.238.238 0 0 1 .169.127l5.166 11.9 1.384.852-5.544-16.223-.237-.675-1.105-.606zm8.509 6.247a2.143 2.143 0 0 1 1.055-2.448 2.33 2.33 0 0 1 2.735.337 2.137 2.137 0 0 1 .061 3.02c-.02.021-.041.041-.061.061a2.3 2.3 0 0 1 -3.79-.97z" fill="#4630eb"/></svg>