<svg viewBox="0 0 32 32" xmlns="http://www.w3.org/2000/svg"><path d="m27.5 5.5h-9.3l-2.1 4.2h-11.7v16.8h25.2v-21zm0 4.2h-8.2l1.1-2.1h7.1z" fill="#5c4300"/><g fill="#d08b00"><path d="m23.826 20.454 1.5-1.5a4.335 4.335 0 0 0 3.382-.08.413.413 0 0 0 .121-.668l-2.679-2.679a.833.833 0 0 1 0-1.179l2.676-2.676a.415.415 0 0 0 -.117-.672 4.32 4.32 0 0 0 -5.83 5.443l-1.534 1.534z"/><path d="m20.952 18.366-2.079-2.079-2.481 2.481 2.079 2.079 2.481 2.481 7.6 7.6a.556.556 0 0 0 .786 0l1.695-1.695a.556.556 0 0 0 0-.786l-7.6-7.6z"/><path d="m29.956 13.068-2.222 2.222a.455.455 0 0 0 0 .643l1.713 1.713a.454.454 0 0 0 .676-.036 4.325 4.325 0 0 0 .571-4.406.454.454 0 0 0 -.738-.136z"/><path d="m12.94 23.6 2.679 2.679a.833.833 0 0 1 0 1.179l-2.676 2.676a.415.415 0 0 0 .122.672 4.32 4.32 0 0 0 5.835-5.427l1.657-1.657-2.481-2.481-1.616 1.617a4.335 4.335 0 0 0 -3.4.074.413.413 0 0 0 -.12.668z"/><path d="m11.651 24.235a4.325 4.325 0 0 0 -.571 4.406.454.454 0 0 0 .737.136l2.222-2.222a.455.455 0 0 0 0-.643l-1.712-1.712a.454.454 0 0 0 -.676.035z"/><path d="m12.923 20.488a.681.681 0 0 0 .963 0l.128-.128a.681.681 0 0 0 0-.963l-.257-.257.506-.506-2.376-2.376-.506.506-.257-.257a.681.681 0 0 0 -.963 0l-.128.128a.681.681 0 0 0 0 .963z"/><path d="m16.6 11.688 2.347 2.347c2.705-1.8 4.218-.291 2.138-2.37-1.44-1.439-3.257-.759-4.485.023z"/><path d="m15.877 11.753a.681.681 0 0 0 -.963 0l-2.89 2.89a.681.681 0 0 0 0 .963l.257.257 2.376 2.376.257.257a.681.681 0 0 0 .882.069.692.692 0 0 0 .081-.069l.123-.121 2.481-2.481.2-.2.091-.091a.681.681 0 0 0 0-.963l-.28-.28-2.356-2.356z"/></g></svg>