<svg viewBox="0 0 32 32" xmlns="http://www.w3.org/2000/svg"><path d="m27.5 5.5h-9.3l-2.1 4.2h-11.7v16.8h25.2v-21zm0 4.2h-8.2l1.1-2.1h7.1z" fill="#7e55bf"/><path d="m25.472 22.446a1.282 1.282 0 0 0 -.137-2.557h-.046a1.277 1.277 0 0 0 -1.233 1.319v.005a1.311 1.311 0 0 0 .365.845 8.163 8.163 0 0 1 -3.744 3.584 6.173 6.173 0 0 1 -3.721.708 3.171 3.171 0 0 1 -2.328-1.35 3.354 3.354 0 0 1 -.183-3.539 5.379 5.379 0 0 1 1.555-1.823c-.091-.3-.228-.8-.3-1.164-3.31 2.4-2.968 5.639-1.963 7.169a4.727 4.727 0 0 0 3.972 1.849 5.64 5.64 0 0 0 1.37-.16 8.76 8.76 0 0 0 6.392-4.886zm4.018-2.831a9.272 9.272 0 0 0 -7.214-3.151h-.365a1.255 1.255 0 0 0 -1.119-.685h-.046a1.279 1.279 0 0 0 .046 2.557h.046a1.286 1.286 0 0 0 1.119-.776h.411a8.7 8.7 0 0 1 4.863 1.484 6.119 6.119 0 0 1 2.42 2.922 3.164 3.164 0 0 1 -.046 2.694 3.353 3.353 0 0 1 -3.128 1.872 5.84 5.84 0 0 1 -2.237-.479c-.251.228-.708.594-1.027.822a7.048 7.048 0 0 0 2.945.708 4.956 4.956 0 0 0 4.429-2.42 5.16 5.16 0 0 0 -1.1-5.548zm-11.6 3.219a1.282 1.282 0 0 0 1.278 1.233h.046a1.279 1.279 0 0 0 -.046-2.557h-.046a.38.38 0 0 0 -.16.023 8.364 8.364 0 0 1 -1.187-5.068 6.124 6.124 0 0 1 1.347-3.539 3.962 3.962 0 0 1 2.808-1.278c2.42-.046 3.447 2.968 3.516 4.178.3.068.8.228 1.142.342-.274-3.7-2.557-5.616-4.749-5.616a5.165 5.165 0 0 0 -4.7 3.676 9.341 9.341 0 0 0 .913 7.945 1.025 1.025 0 0 0 -.16.662z" fill="#aa9fbc"/></svg>