<svg xmlns="http://www.w3.org/2000/svg" viewBox="0 0 32 32"><title>folder_type_node@2x</title><g id="folder_node"><path d="M27.5,5.5H18.2L16.1,9.7H4.4V26.5H29.6V5.5Zm0,4.2H19.3l1.1-2.1h7.1Z" style="fill:#8ebf55"/><path d="M21.69,31a1.61,1.61,0,0,1-.81-.22l-2.57-1.52c-.38-.21-.2-.29-.07-.33a5.12,5.12,0,0,0,1.16-.53.2.2,0,0,1,.19,0l2,1.17a.25.25,0,0,0,.24,0l7.7-4.44a.24.24,0,0,0,.12-.21V16.06a.25.25,0,0,0-.12-.21l-7.69-4.44a.24.24,0,0,0-.24,0l-7.69,4.44a.25.25,0,0,0-.12.21v8.88a.24.24,0,0,0,.12.21L16,26.36c1.14.57,1.84-.1,1.84-.78V16.81a.22.22,0,0,1,.22-.22h1a.22.22,0,0,1,.22.22v8.77A2.13,2.13,0,0,1,17,28a3.29,3.29,0,0,1-1.77-.48l-2-1.16a1.62,1.62,0,0,1-.81-1.4V16.06a1.62,1.62,0,0,1,.81-1.4l7.7-4.45a1.68,1.68,0,0,1,1.62,0l7.7,4.45a1.62,1.62,0,0,1,.81,1.4v8.88a1.63,1.63,0,0,1-.81,1.4l-7.7,4.44A1.61,1.61,0,0,1,21.69,31Z" style="fill:#fff"/><path d="M20.23,22a.22.22,0,0,1,.22-.22h1a.22.22,0,0,1,.22.19c.15,1,.6,1.52,2.63,1.52,1.62,0,2.31-.37,2.31-1.23,0-.5-.2-.86-2.71-1.11-2.11-.21-3.41-.67-3.41-2.36s1.31-2.48,3.5-2.48c2.47,0,3.69.86,3.84,2.69a.22.22,0,0,1-.22.24h-1A.22.22,0,0,1,26.4,19c-.24-1.07-.82-1.41-2.4-1.41-1.77,0-2,.62-2,1.08s.24.72,2.63,1,3.49.76,3.49,2.42-1.4,2.64-3.84,2.64C20.94,24.81,20.23,23.26,20.23,22Z" style="fill:#fff"/></g></svg>