<svg xmlns="http://www.w3.org/2000/svg" viewBox="0 0 32 32"><title>folder_type_linux_opened</title><path d="M27.4,5.5H18.2L16.1,9.7H4.3V26.5H29.5V5.5Zm0,18.7H6.6V11.8H27.4Zm0-14.5H19.2l1-2.1h7.1V9.7Z" style="fill:#dcb67a"/><polygon points="25.7 13.7 0.5 13.7 4.3 26.5 29.5 26.5 25.7 13.7" style="fill:#dcb67a"/><path d="M30.346,26.567h0a1.957,1.957,0,0,1-.306-.81,1.589,1.589,0,0,0-.449-.92h0a1.155,1.155,0,0,0-.171-.12,1.14,1.14,0,0,0-.175-.081,4.584,4.584,0,0,0-.158-3.244,10.839,10.839,0,0,0-1.98-3.052,4.52,4.52,0,0,1-1.419-2.953c.021-1.885.215-5.381-3.227-5.386-.14,0-.286.005-.439.017-3.846.3-2.826,4.216-2.883,5.527A4.632,4.632,0,0,1,18.18,18.2a13.015,13.015,0,0,0-2.473,3.966,4.573,4.573,0,0,0-.262,2.186c-.035.03-.068.062-.1.094-.236.243-.41.538-.605.736a1.894,1.894,0,0,1-.724.339,1.291,1.291,0,0,0-.786.594h0v0a1.025,1.025,0,0,0-.118.509,3.139,3.139,0,0,0,.05.485,2.035,2.035,0,0,1,.035.852,1.588,1.588,0,0,0-.1,1.3,1.148,1.148,0,0,0,.854.5,9.345,9.345,0,0,1,2.526.514l.067-.123-.067.124a3.7,3.7,0,0,0,2.38.425,1.535,1.535,0,0,0,1.1-.829c.533,0,1.119-.22,2.056-.27.637-.05,1.431.218,2.346.169a1.164,1.164,0,0,0,.105.275l0,0a1.719,1.719,0,0,0,1.714.942,3.135,3.135,0,0,0,2.054-1.145l-.111-.09.112.089a7.4,7.4,0,0,1,2.164-1.32A.992.992,0,0,0,31,27.779C31.018,27.444,30.814,27.069,30.346,26.567Z" style="fill:#202020"/><path d="M30.71,27.763c-.013.206-.168.36-.455.526a7.188,7.188,0,0,0-2.237,1.38,2.861,2.861,0,0,1-1.855,1.047,1.4,1.4,0,0,1-1.434-.791h0a2.172,2.172,0,0,1,.049-1.485,9.642,9.642,0,0,0,.423-1.667h0a8.617,8.617,0,0,1,.177-1.587,1.234,1.234,0,0,1,.583-.864L26,24.3a1.257,1.257,0,0,0,.8,1.209,2.024,2.024,0,0,0,1.634-.669l.191-.007a1.033,1.033,0,0,1,.771.216h0a1.418,1.418,0,0,1,.356.771,1.988,1.988,0,0,0,.372.933h0C30.578,27.232,30.722,27.556,30.71,27.763ZM19.82,29.29h0v0A1.185,1.185,0,0,1,18.8,30.434a3.447,3.447,0,0,1-2.181-.4h0a8.869,8.869,0,0,0-2.6-.541.872.872,0,0,1-.656-.358,1.389,1.389,0,0,1,.111-1.081v-.005a2.068,2.068,0,0,0-.024-.982,1.345,1.345,0,0,1,.038-.822v0a.98.98,0,0,1,.629-.462,2.026,2.026,0,0,0,.832-.406h0c.231-.235.4-.529.608-.738a.8.8,0,0,1,.6-.3h.009a.912.912,0,0,1,.144.012,1.49,1.49,0,0,1,.93.657l.832,1.461h0a10.105,10.105,0,0,0,1.084,1.435A2.314,2.314,0,0,1,19.82,29.29Zm4.147-13.618a.8.8,0,0,0-.436-.338h0a7,7,0,0,1-.962-.383,2.081,2.081,0,0,0-1.1-.365,1.333,1.333,0,0,0-.425.069,2.089,2.089,0,0,0-.763.515h0c-.03.027-.068.052-.162.118s-.235.166-.438.313a.418.418,0,0,0-.177.5,1.224,1.224,0,0,0,.625.627h0a4.389,4.389,0,0,1,.557.438,1.3,1.3,0,0,0,.295.176,1.23,1.23,0,0,0,.407.086,1.62,1.62,0,0,0,.919-.227,4.208,4.208,0,0,1,.706-.383h0a1.471,1.471,0,0,0,.967-.74A.474.474,0,0,0,23.967,15.672Zm4.816,8.881c-.055,0-.109,0-.162,0h-.015c.136-.415-.165-.721-.969-1.072-.834-.354-1.5-.319-1.611.4-.007.037-.013.076-.017.114a1.269,1.269,0,0,0-.188.081,1.517,1.517,0,0,0-.724,1.041,8.682,8.682,0,0,0-.186,1.638h0a6.145,6.145,0,0,1-.29,1.187,4.326,4.326,0,0,1-4.871.287c-.109-.166-.234-.331-.363-.493-.083-.1-.167-.207-.251-.309a1.057,1.057,0,0,0,.419-.075.525.525,0,0,0,.29-.288,1.13,1.13,0,0,0-.315-1.024A5.7,5.7,0,0,0,17.9,24.706h0a2.239,2.239,0,0,1-1.046-1.225,2.65,2.65,0,0,1-.014-1.444A8.435,8.435,0,0,1,18,19.611c.1-.07.035.129-.369.853-.362.661-1.04,2.188-.112,3.38a6.889,6.889,0,0,1,.587-2.522c.514-1.123,1.589-3.07,1.674-4.622.044.031.2.13.263.167h0a4.768,4.768,0,0,1,.537.424,1.362,1.362,0,0,0,.8.3l.1,0a1.829,1.829,0,0,0,.909-.252,4.744,4.744,0,0,1,.674-.369h0a1.824,1.824,0,0,0,.949-.615,20.714,20.714,0,0,0,1.582,3.926,8.956,8.956,0,0,1,1,2.65,1.689,1.689,0,0,1,.466.057,3.5,3.5,0,0,0-.992-3.481c-.2-.187-.21-.27-.11-.266a5.008,5.008,0,0,1,1.5,2.418,2.984,2.984,0,0,1,.017,1.464c.061.024.124.051.187.08C28.6,23.645,28.95,24.029,28.783,24.553ZM24.011,14.236a1.537,1.537,0,0,1-.139.672,1.331,1.331,0,0,1-.2.314c-.026-.012-.053-.023-.081-.034-.1-.04-.182-.073-.259-.1s-.136-.047-.2-.067c.045-.053.133-.114.165-.191a.958.958,0,0,0,.079-.365l0-.017a.981.981,0,0,0-.054-.354.656.656,0,0,0-.17-.276.354.354,0,0,0-.242-.107h-.013a.366.366,0,0,0-.236.09.65.65,0,0,0-.19.264.974.974,0,0,0-.079.366v.016a1.1,1.1,0,0,0,.016.21,2.821,2.821,0,0,0-.553-.181,1.82,1.82,0,0,1-.016-.2v-.019a1.522,1.522,0,0,1,.138-.672,1.2,1.2,0,0,1,.391-.495.886.886,0,0,1,.539-.185h.01a.893.893,0,0,1,.533.175,1.193,1.193,0,0,1,.4.488,1.518,1.518,0,0,1,.151.651.055.055,0,0,0,0,.018Zm-2.948.246-.076.023a1.549,1.549,0,0,0-.357.166.886.886,0,0,0,0-.225v-.013a.953.953,0,0,0-.074-.288.549.549,0,0,0-.151-.213.252.252,0,0,0-.167-.068h-.018a.243.243,0,0,0-.172.1.548.548,0,0,0-.109.234.9.9,0,0,0-.021.309v.012a.923.923,0,0,0,.074.29.55.55,0,0,0,.151.212.355.355,0,0,0,.031.023c-.064.048-.107.082-.16.119l-.121.085a1.059,1.059,0,0,1-.251-.36,1.562,1.562,0,0,1-.139-.573v0a1.537,1.537,0,0,1,.07-.586,1,1,0,0,1,.26-.439.568.568,0,0,1,.38-.177h.033a.574.574,0,0,1,.366.134,1.024,1.024,0,0,1,.31.408,1.533,1.533,0,0,1,.139.574v0a1.662,1.662,0,0,1,0,.255Z" style="fill:#fff"/><path d="M22.7,16.382a3.115,3.115,0,0,1-1.355.442,1.91,1.91,0,0,1-1.164-.434c-.14-.107-.254-.213-.34-.291-.149-.113-.131-.272-.07-.267.1.012.118.142.183.2.087.079.2.181.329.283a1.748,1.748,0,0,0,1.062.4,3.01,3.01,0,0,0,1.273-.42,7.014,7.014,0,0,0,.59-.4c.142-.1.137-.221.254-.208s.03.134-.134.272A3.6,3.6,0,0,1,22.7,16.382Zm-.986-1.391c.017.051.1.043.151.067s.078.068.126.07.118-.016.124-.06-.08-.095-.137-.117a.3.3,0,0,0-.236,0c-.016.008-.033.028-.028.044Zm-.5,0c-.016.051-.1.043-.15.067s-.078.068-.126.07-.119-.016-.125-.06.081-.095.138-.117a.3.3,0,0,1,.236,0c.015.008.033.028.027.044Z" style="fill:#202020"/></svg>