<svg xmlns="http://www.w3.org/2000/svg" xmlns:xlink="http://www.w3.org/1999/xlink" viewBox="0 0 32 32"><defs><radialGradient id="radial-gradient" cx="-100.94" cy="-69.05" r="0" gradientTransform="matrix(2074.53, 0, 0, -2395.46, 209432.56, -165379.82)" gradientUnits="userSpaceOnUse"><stop offset="0" stop-color="#93b4e7"/><stop offset="0.59" stop-color="#b9d1f8"/><stop offset="1" stop-color="#9cb6e0"/></radialGradient></defs><title>folder_type_webpack_opened@2x</title><g id="folder_opened_webpack"><path d="M27.4,5.5H18.2L16.1,9.7H4.3V26.5H29.5V5.5Zm0,18.7H6.6V11.8H27.4Zm0-14.5H19.2l1-2.1h7.1V9.7Z" style="fill:#8da2cc"/><polygon points="25.7 13.7 0.5 13.7 4.3 26.5 29.5 26.5 25.7 13.7" style="fill:#8da2cc"/><path d="M21.9,10l-9.08,5.24V25.76L21.9,31,31,25.76V15.27Z" style="fill:url(#radial-gradient)"/><path d="M21.9,15.35l-4.5,2.6v5.2l4.5,2.6,4.5-2.6v-5.2Z" style="fill:#6f95db"/><path d="M21.9,10l-9.1,5.28,9.1,5L31,15.31Zm0,10.91-9.1,4.82L21.9,31,31,25.7,21.9,20.91Z" style="fill:#fff;fill-opacity:0.100000001490116"/></g></svg>