<svg version="1.1" viewBox="0 0 32 32" xml:space="preserve" xmlns="http://www.w3.org/2000/svg"><title>default_folder</title><path d="M27.5,5.5H18.2L16.1,9.7H4.4V26.5H29.6V5.5Zm0,4.2H19.3l1.1-2.1h7.1Z" fill="#c0539d"/><g transform="matrix(.6153 0 0 .6153 14.22 11.769)" stroke="#d2d2d2" stroke-linecap="round" stroke-linejoin="round" stroke-width=".81261"><path d="m11.025 20.499c-0.532 1.75-0.154 4.184 1.105 5.331v-0.042l0.042-0.112c0.154-0.741 0.756-1.203 1.526-1.175 0.713 0.014 1.12 0.392 1.217 1.217 0.042 0.308 0.042 0.616 0.056 0.938v0.098c0 0.7 0.196 1.371 0.588 1.959 0.35 0.56 0.84 0.993 1.497 1.287l-0.028-0.056-0.028-0.112c-0.49-1.469-0.14-2.49 1.147-3.358l0.392-0.266 0.868-0.573a4.254 4.254 0 0 0 1.791-3.037c0.07-0.532 0-1.05-0.154-1.553l-0.21 0.14c-1.945 1.035-4.17 1.4-6.325 0.98-1.301-0.197-2.56-0.56-3.498-1.652z"/><path d="m4.925 20.191s3.736-1.82 7.486-1.82l2.84-8.759c0.098-0.42 0.406-0.7 0.756-0.7s0.644 0.28 0.756 0.714l2.826 8.746c4.45 0 7.487 1.82 7.487 1.82l-6.367-17.352c-0.168-0.518-0.49-0.84-0.896-0.84h-7.612c-0.406 0-0.7 0.322-0.896 0.84z" fill="#17191e"/></g></svg>
