<svg viewBox="0 0 32 32" xmlns="http://www.w3.org/2000/svg"><path d="m27.4 5.5h-9.2l-2.1 4.2h-11.8v16.8h25.2v-21zm0 18.7h-20.8v-12.4h20.8zm0-14.5h-8.2l1-2.1h7.1v2.1z" fill="#2e8e80"/><path d="m25.7 13.7h-25.2l3.8 12.8h25.2z" fill="#2e8e80"/><g fill="#5fc1b3"><path d="m21 31a10 10 0 1 1 10-10 10.011 10.011 0 0 1 -10 10zm0-18.182a8.182 8.182 0 1 0 8.182 8.182 8.191 8.191 0 0 0 -8.182-8.182z"/><path d="m21.909 21.909h-1.068a.75.75 0 0 1 -.75-.75v-6.682a.75.75 0 0 1 .75-.75h.318a.75.75 0 0 1 .75.75z"/><path d="m27.523 21.909h-6.682a.75.75 0 0 1 -.75-.75v-1.068h7.432a.75.75 0 0 1 .75.75v.318a.75.75 0 0 1 -.75.75z"/></g></svg>