<svg xmlns="http://www.w3.org/2000/svg" viewBox="0 0 32 32"><title>folder_type_typings@2x</title><path d="M27.5,5.5H18.2L16.1,9.7H4.4V26.5H29.6V5.5Zm0,4.2H19.3l1.1-2.1h7.1Z" style="fill:#00a23c"/><path d="M27.6,17.3a3.683,3.683,0,0,1,1.9,1.1,3.592,3.592,0,0,1,.7,1s-1.3.9-2.1,1.4l-.3-.3a1.945,1.945,0,0,0-1.4-.9,1.208,1.208,0,0,0-1.5,1.2,1.268,1.268,0,0,0,.1.6c.2.4.6.7,1.7,1.2,2.1.9,3.1,1.5,3.6,2.4a4.167,4.167,0,0,1,.4,3.6A4.335,4.335,0,0,1,27.4,31a8.854,8.854,0,0,1-2.3,0,5.872,5.872,0,0,1-3-1.6,4.44,4.44,0,0,1-.8-1.1l.3-.2,1.1-.6.9-.5.2.3a5.731,5.731,0,0,0,1.1,1.1,3,3,0,0,0,2.9-.1,1.244,1.244,0,0,0,.1-1.7c-.2-.3-.7-.6-2.1-1.2A7.28,7.28,0,0,1,23,23.7a2.751,2.751,0,0,1-.8-1.5,6.054,6.054,0,0,1,0-1.9,3.62,3.62,0,0,1,3.1-2.8A3.659,3.659,0,0,1,27.6,17.3Zm-7,1.2v1.2H16.7V30.8H13.9v-11H10V17.4H20.5Z" style="fill:#fff;stroke:#00a23c;stroke-miterlimit:10"/></svg>