<svg xmlns="http://www.w3.org/2000/svg" viewBox="0 0 32 32"><title>folder_type_node</title><path d="M27.5,5.5H18.2L16.1,9.7H4.4V26.5H29.6V5.5Zm0,4.2H19.3l1.1-2.1h7.1Z" style="fill:#8ebf55"/><path d="M21.688,31a1.613,1.613,0,0,1-.807-.216l-2.57-1.52c-.383-.215-.2-.291-.07-.335A5.121,5.121,0,0,0,19.4,28.4a.2.2,0,0,1,.191.015l1.974,1.172a.255.255,0,0,0,.239,0l7.7-4.442a.242.242,0,0,0,.118-.208V16.056a.248.248,0,0,0-.119-.212l-7.692-4.438a.243.243,0,0,0-.238,0L13.88,15.845a.247.247,0,0,0-.122.211v8.881a.236.236,0,0,0,.121.206l2.108,1.218c1.144.572,1.845-.1,1.845-.778V16.814a.221.221,0,0,1,.223-.222h.976a.222.222,0,0,1,.222.222v8.769a2.132,2.132,0,0,1-2.278,2.4A3.292,3.292,0,0,1,15.2,27.5l-2.018-1.162a1.625,1.625,0,0,1-.807-1.4V16.056a1.621,1.621,0,0,1,.807-1.4l7.7-4.447a1.685,1.685,0,0,1,1.617,0l7.7,4.447a1.624,1.624,0,0,1,.808,1.4v8.881a1.628,1.628,0,0,1-.808,1.4l-7.7,4.443A1.614,1.614,0,0,1,21.688,31Z" style="fill:#fff"/><path d="M20.231,21.965a.221.221,0,0,1,.222-.222h1a.223.223,0,0,1,.221.188c.15,1.013.6,1.524,2.634,1.524,1.621,0,2.311-.367,2.311-1.227,0-.5-.2-.864-2.715-1.111-2.106-.208-3.408-.674-3.408-2.358,0-1.553,1.309-2.479,3.5-2.479,2.466,0,3.685.856,3.84,2.691a.222.222,0,0,1-.221.242h-1a.222.222,0,0,1-.216-.174c-.239-1.066-.823-1.407-2.4-1.407-1.77,0-1.975.617-1.975,1.079,0,.56.243.723,2.632,1.039,2.365.313,3.488.755,3.488,2.418s-1.4,2.637-3.836,2.637C20.936,24.807,20.231,23.262,20.231,21.965Z" style="fill:#fff"/></svg>