<svg xmlns="http://www.w3.org/2000/svg" viewBox="0 0 32 32"><title>folder_type_asset_opened</title><path d="M27.4,5.5H18.2L16.1,9.7H4.3V26.5H29.5V5.5Zm0,18.7H6.6V11.8H27.4Zm0-14.5H19.2l1-2.1h7.1V9.7Z" style="fill:#d87c7c"/><polygon points="25.7 13.7 0.5 13.7 4.3 26.5 29.5 26.5 25.7 13.7" style="fill:#d87c7c"/><rect x="10" y="10" width="21" height="21" rx="2.761" ry="2.761" style="fill:#414141"/><path d="M13.937,11.925H27.062a2.013,2.013,0,0,1,2.013,2.013V27.063a2.012,2.012,0,0,1-2.012,2.012H13.937a2.013,2.013,0,0,1-2.013-2.013V13.938A2.013,2.013,0,0,1,13.937,11.925Z" style="fill:#c2c2c2"/><path d="M13.937,13.325H27.063a.612.612,0,0,1,.612.612V27.063a.613.613,0,0,1-.613.613H13.938a.613.613,0,0,1-.613-.613V13.937A.612.612,0,0,1,13.937,13.325Z" style="fill:#414141"/><path d="M25.754,21.2h-1.1a4.183,4.183,0,0,1-.741,1.769l.78.78a.7.7,0,1,1-.99.99l-.786-.786a4.184,4.184,0,0,1-1.761.712v1.129a.7.7,0,0,1-1.4,0V24.653a4.2,4.2,0,0,1-1.728-.735l-.82.82a.7.7,0,1,1-.99-.99l.826-.826a4.2,4.2,0,0,1-.707-1.723H15.166a.7.7,0,1,1,0-1.4h1.174a4.2,4.2,0,0,1,.707-1.722l-.826-.826a.7.7,0,1,1,.99-.99l.819.82a4.2,4.2,0,0,1,1.729-.735V15.206a.7.7,0,0,1,1.4,0v1.129a4.188,4.188,0,0,1,1.762.713l.786-.787a.7.7,0,0,1,.99.99l-.781.781a4.19,4.19,0,0,1,.741,1.768h1.1a.7.7,0,0,1,0,1.4Z" style="fill:#c2c2c2"/><circle cx="20.5" cy="20.5" r="2.822" style="fill:#414141"/><circle cx="20.5" cy="20.5" r="1.121" style="fill:#c2c2c2"/></svg>