<svg xmlns="http://www.w3.org/2000/svg" viewBox="0 0 32 32"><title>folder_type_light_expo_opened</title><g fill="none" fill-rule="evenodd"><g fill="#ABB4D9"><path fill-rule="nonzero" d="M27.55 5.55h-9.2l-2.1 4.2H4.45v16.8h25.2v-21h-2.1zm0 18.7H6.75v-12.4h20.8v12.4zm0-14.5h-8.2l1-2.1h7.1v2.1h.1z"/><path d="M25.85 13.74H.65l3.8 12.8h25.2z"/></g><g fill-rule="nonzero" transform="translate(10 6)"><path fill="#FFF" d="M.23 16.1L6.4 3.7l6.1-3.43 1.75.95L8.38 5l6.25 19.66-2.13-1.28-4.42-10.5-6.5 4.08z"/><circle cx="18.45" cy="10.75" r="2.25" fill="#FFF"/><path fill="#000" d="M16.84 12.15c1.52.1 2.88-.95 3.18-2.46-.37-.57-1-.92-1.67-.92a2 2 0 0 0-1.87 1.19c-.32.73-.19 1.6.36 2.19zm-7.1-8.48l4.14-2.42-1.32-.76-5.72 3.35.46.26.86.49 1.57-.92zm4.67-2.65c.07.02.13.08.15.15l1.92 5.93c.03.1 0 .22-.1.27a3.97 3.97 0 0 0-1.8 4.45 3.92 3.92 0 0 0 4.19 2.9c.1-.01.2.05.24.15l1.98 6.1c.03.1 0 .21-.1.27l-6.08 3.73a.23.23 0 0 1-.1.03c-.05 0-.11 0-.16-.04l-2.14-1.4a.23.23 0 0 1-.08-.1L8.15 13.38 1.8 17.19a.23.23 0 0 1-.04.02.21.21 0 0 1-.2-.01l-1.44-.86a.23.23 0 0 1-.09-.3l6.16-12.3a.22.22 0 0 1 .1-.1l6.16-3.6a.22.22 0 0 1 .23-.01l1.74 1zM7.97 5.01l-1.2-.69-.3-.16-5.95 11.9 1.08.64 5.13-7.04c.05-.07.13-.1.21-.1.09.01.16.06.19.14l5.59 13.52 1.5.97-6-18.4L7.98 5zm10.38 8.25a2.48 2.48 0 0 1-1.23-4.61c.96-.57 2.17-.4 2.95.39a2.48 2.48 0 0 1-1.72 4.22z"/></g></g></svg>