<svg xmlns="http://www.w3.org/2000/svg" xmlns:xlink="http://www.w3.org/1999/xlink" viewBox="0 0 32 32"><defs><clipPath id="clip-path"><rect x="-20.44" y="47.71" width="17.09" height="16.92" rx="5.47" ry="5.47" style="fill:none"/></clipPath><clipPath id="clip-path-2"><rect x="13.56" y="47.71" width="17.09" height="16.92" rx="5.47" ry="5.47" style="fill:none"/></clipPath></defs><title>folder_type_docs_opened@2x</title><g id="folder_opened_docs"><path d="M27.4,5.5H18.2L16.1,9.7H4.3V26.5H29.5V5.5Zm0,18.7H6.6V11.8H27.4Zm0-14.5H19.2l1-2.1h7.1V9.7Z" style="fill:#dc7a7a"/><polygon points="4.3 26.5 29.5 26.5 25.7 13.7 25.7 13.7 0.5 13.7 4.3 26.5" style="fill:#dc7a7a"/><path d="M15.27,11.31V29.69H29.71V14.59h-3.6V11.31H15.27Zm12.15.81v1.16h1.25l-1.26-1.16Z" style="fill:gray"/><path d="M27,10H15.28A1.32,1.32,0,0,0,14,11.31V29.69A1.32,1.32,0,0,0,15.28,31H29.72A1.32,1.32,0,0,0,31,29.69v-16Zm.39,2.13,1.25,1.15H27.42ZM15.28,29.69V11.31H26.11v3.28h3.61V29.69Z" style="fill:#c5c5c5"/><rect x="16.59" y="19.37" width="11.81" height="1.31" style="fill:#c5c5c5"/><path d="M18.44,12.57a1.43,1.43,0,0,0-.56-.39,2.05,2.05,0,0,0-.82-.13H15.78v3.84h1.28a1.66,1.66,0,0,0,1.31-.49,1.79,1.79,0,0,0,.36-.59,3,3,0,0,0,.1-.82,2.87,2.87,0,0,0-.1-.79A1.58,1.58,0,0,0,18.44,12.57ZM18,14.41a1,1,0,0,1-.16.39.77.77,0,0,1-.3.26,1.1,1.1,0,0,1-.49.1H16.6V12.74h.46a.87.87,0,0,1,.72.3,1.21,1.21,0,0,1,.16.36,2.55,2.55,0,0,1,.07.53A2.17,2.17,0,0,1,18,14.41Z" style="fill:#c5c5c5"/><path d="M22,12.57a1.37,1.37,0,0,0-.53-.43A1.71,1.71,0,0,0,20.7,12a2,2,0,0,0-.79.16,1.67,1.67,0,0,0-.52.43,2.18,2.18,0,0,0-.3.62,2.94,2.94,0,0,0,0,1.51,1.83,1.83,0,0,0,.3.62,1.13,1.13,0,0,0,.52.43,1.86,1.86,0,0,0,.79.16,1.42,1.42,0,0,0,1.21-.52A2.11,2.11,0,0,0,22.34,14a2.8,2.8,0,0,0-.1-.75A1.33,1.33,0,0,0,22,12.57Zm-.69,2.33a.71.71,0,0,1-.62.33A.64.64,0,0,1,20,14.9a1.87,1.87,0,0,1-.2-1,1.79,1.79,0,0,1,.2-1,.81.81,0,0,1,1.25,0,1.87,1.87,0,0,1,.2,1A1.79,1.79,0,0,1,21.29,14.9Z" style="fill:#c5c5c5"/><path d="M24.7,14.87a.72.72,0,0,1-.13.16.69.69,0,0,1-.2.13.64.64,0,0,1-.26,0,.57.57,0,0,1-.56-.3,1.79,1.79,0,0,1-.2-1v-.26c0-.1,0-.2,0-.3s0-.2.07-.26a.53.53,0,0,1,.13-.23.87.87,0,0,1,.2-.16.62.62,0,0,1,.26-.07.57.57,0,0,1,.43.16,1.13,1.13,0,0,1,.23.39l.75-.2a1.57,1.57,0,0,0-.23-.52,1.56,1.56,0,0,0-.33-.33,1.88,1.88,0,0,0-1.61,0,1.54,1.54,0,0,0-.49.43,1.29,1.29,0,0,0-.16.66,2.69,2.69,0,0,0-.07.72,4.91,4.91,0,0,0,.07.72,1.79,1.79,0,0,0,.26.62,1.23,1.23,0,0,0,.49.43,1.71,1.71,0,0,0,.75.16,1.6,1.6,0,0,0,.92-.26,1.56,1.56,0,0,0,.33-.33,3.34,3.34,0,0,0,.26-.49l-.79-.2A.91.91,0,0,1,24.7,14.87Z" style="fill:#c5c5c5"/><rect x="16.59" y="27.8" width="8.2" height="1.31" style="fill:#c5c5c5"/><rect x="16.59" y="25.27" width="11.81" height="1.31" style="fill:#c5c5c5"/><rect x="16.59" y="22.27" width="11.81" height="1.31" style="fill:#c5c5c5"/><rect x="16.65" y="16.47" width="11.81" height="1.31" style="fill:#c5c5c5"/></g><g id="folder_nuget"><g style="clip-path:url(#clip-path)"><path d="M2.72,37.59a22,22,0,0,1-22,22,22,22,0,0,1-22-22h0a22,22,0,0,1,22-22,22,22,0,0,1,22,22Z" style="fill:#5fffe6;opacity:0.172566369175911;isolation:isolate"/></g></g><g id="folder_opened_nuget"><g style="clip-path:url(#clip-path-2)"><path d="M36.72,37.59a22,22,0,1,1-43.93,0h0a22,22,0,0,1,43.93,0Z" style="fill:#5fffe6;opacity:0.172566369175911;isolation:isolate"/></g></g></svg>