<svg viewBox="0 0 32 32" xmlns="http://www.w3.org/2000/svg"><path d="m27.4 5.5h-9.2l-2.1 4.2h-11.8v16.8h25.2v-21zm0 18.7h-20.8v-12.4h20.8zm0-14.5h-8.2l1-2.1h7.1v2.1z" fill="#db9b7b"/><path d="m25.7 13.7h-25.2l3.8 12.8h25.2z" fill="#db9b7b"/><path d="m20.5 30.972 3.867-11.9h-7.734z" fill="#e24329"/><path d="m20.5 30.972-3.867-11.9h-5.419z" fill="#fc6d26"/><path d="m11.214 19.072-1.175 3.616a.8.8 0 0 0 .291.895l10.17 7.392z" fill="#fca326"/><path d="m11.214 19.072h5.419l-2.333-7.167a.4.4 0 0 0 -.761 0z" fill="#e24329"/><path d="m20.5 30.972 3.867-11.9h5.419z" fill="#fc6d26"/><path d="m29.786 19.072 1.175 3.616a.8.8 0 0 1 -.291.895l-10.17 7.392z" fill="#fca326"/><path d="m29.786 19.072h-5.419l2.333-7.172a.4.4 0 0 1 .761 0z" fill="#e24329"/></svg>