<svg viewBox="0 0 32 32" xmlns="http://www.w3.org/2000/svg"><path d="m27.9 6h-9.8l-2 4h-11.1v17h25v-21zm.1 4h-7.8l1-2h6.8z" fill="#bfa055"/><path d="m7.438 11.219a2.315 2.315 0 0 1 4.25.418 2.359 2.359 0 0 1 .013 1.309 2.313 2.313 0 1 1 -4.263-1.727m1.9.1a1 1 0 0 0 -.6 1.665 1 1 0 0 0 1.512-1.316 1.009 1.009 0 0 0 -.917-.348z" fill="#509ff7"/><path d="m7.509 19.258a2.314 2.314 0 0 1 4.185.562 2.359 2.359 0 0 1 0 1.309 2.313 2.313 0 1 1 -4.186-1.871m1.729.243a1 1 0 1 0 1 .32 1.006 1.006 0 0 0 -.999-.321z" fill="#509ff7"/><path d="m7.429 27.61a2.313 2.313 0 0 1 4.263.416 2.35 2.35 0 0 1 0 1.309 2.313 2.313 0 1 1 -4.263-1.725m1.826.1a1 1 0 1 0 .863.21 1.006 1.006 0 0 0 -.863-.211z" fill="#509ff7"/><g fill="#014798"><path d="m11.688 11.637a8.491 8.491 0 0 1 1.325.056 3.6 3.6 0 0 1 2.987 3.507 2.293 2.293 0 0 0 2.177 2.312c.352.01.7 0 1.056 0v1.308a7.453 7.453 0 0 1 -1.828-.112 3.6 3.6 0 0 1 -2.705-3.408 2.368 2.368 0 0 0 -.332-1.245 2.29 2.29 0 0 0 -1.454-1.049 6.331 6.331 0 0 0 -1.208-.06 2.359 2.359 0 0 0 -.018-1.309z"/><path d="m27.908 18.027a.655.655 0 0 1 .916.014q.988.979 1.968 1.967a.659.659 0 0 1 .024.932q-.993 1-1.993 1.993a.652.652 0 0 1 -.948-.894c.29-.3.591-.594.886-.891-2.035-.017-4.071 0-6.107-.008 0-.435 0-.87 0-1.306 2.036-.006 4.072 0 6.108 0-.289-.3-.6-.59-.885-.894a.654.654 0 0 1 .031-.913z"/><path d="m11.694 19.82q3.769 0 7.539 0v1.311c-2.512-.005-5.025 0-7.537 0a2.359 2.359 0 0 0 -.002-1.311z"/><path d="m17.661 22.2a10.564 10.564 0 0 1 1.571-.059v1.31c-.4.01-.808-.019-1.21.018a2.289 2.289 0 0 0 -1.8 1.28 2.477 2.477 0 0 0 -.222 1.082 3.593 3.593 0 0 1 -3.3 3.487c-.334.026-.669.013-1 .017a2.35 2.35 0 0 0 0-1.309 4.46 4.46 0 0 0 1.453-.125 2.3 2.3 0 0 0 1.544-2.111 3.639 3.639 0 0 1 .685-2.15 3.6 3.6 0 0 1 2.279-1.44z"/></g><path d="m19.235 16.326a.65.65 0 0 1 .424-.589 1.147 1.147 0 0 1 .4-.044h1.939a.656.656 0 0 1 .579.355 1.1 1.1 0 0 1 .073.531q0 1.626 0 3.252v1.306 3.469a.657.657 0 0 1 -.649.668c-.646.006-1.292 0-1.938 0a1.041 1.041 0 0 1 -.457-.066.651.651 0 0 1 -.373-.563c-.009-.4 0-.8 0-1.2 0-.437 0-.873 0-1.31 0-.337 0-.675 0-1.012 0-.437 0-.874 0-1.311 0-.332 0-.663 0-.994 0-.436 0-.872 0-1.308 0-.4 0-.795 0-1.193m1.308.683q0 3.483 0 6.967h.8c.011-2.322 0-4.646 0-6.969-.264.002-.532.002-.8.002z" fill="#f7b61a"/></svg>