<svg xmlns="http://www.w3.org/2000/svg" viewBox="0 0 32 32"><title>folder_type_vscode_opened@2x</title><g id="folder_opened_vscode"><path d="M27.4,5.5H18.2L16.1,9.7H4.3V26.5H29.5V5.5Zm0,18.7H6.6V11.8H27.4Zm0-14.5H19.2l1-2.1h7.1V9.7Z" style="fill:#7bb4db"/><polygon points="25.7 13.7 0.5 13.7 4.3 26.5 29.5 26.5 25.7 13.7" style="fill:#7bb4db"/><path d="M31.37,12.24,27,10.5l-9.4,9.16-5.74-4.37-1.24.63V26.1l1.23.62,5.74-4.37L27,31.5l4.35-1.74V12.24ZM12.49,23.39V18.61L15.15,21ZM21,21l5.31-4v8L21,21Z" style="fill:#007acc"/><polygon points="21 20.99 26.31 17.01 26.31 24.99 20.99 20.99 21 20.99" style="fill:#fff"/><polygon points="12.49 23.39 12.49 18.61 15.15 20.99 12.49 23.39" style="fill:#fff"/></g></svg>