<svg xmlns="http://www.w3.org/2000/svg" viewBox="0 0 32 32"><title>folder_type_light_node@2x</title><g id="folder_light_node"><path d="M27.5,5.5H18.2L16.1,9.7H4.4V26.5H29.6V5.5Zm0,4.2H19.3l1.1-2.1h7.1Z" style="fill:#8ebf55"/><path d="M20.5,10A10.5,10.5,0,1,1,10,20.5,10.5,10.5,0,0,1,20.5,10Z" style="fill:#83cd29;fill-rule:evenodd"/><path d="M20.5,31a1.61,1.61,0,0,1-.81-.22l-2.57-1.52c-.38-.21-.2-.29-.07-.33a5.12,5.12,0,0,0,1.16-.53.2.2,0,0,1,.19,0l2,1.17a.25.25,0,0,0,.24,0l7.7-4.44a.24.24,0,0,0,.12-.21V16.06a.25.25,0,0,0-.12-.21l-7.69-4.44a.24.24,0,0,0-.24,0l-7.69,4.44a.25.25,0,0,0-.12.21v8.88a.24.24,0,0,0,.12.21l2.11,1.22c1.14.57,1.84-.1,1.84-.78V16.81a.22.22,0,0,1,.22-.22h1a.22.22,0,0,1,.22.22v8.77A2.13,2.13,0,0,1,15.79,28,3.29,3.29,0,0,1,14,27.5l-2-1.16a1.62,1.62,0,0,1-.81-1.4V16.06a1.62,1.62,0,0,1,.81-1.4l7.7-4.45a1.68,1.68,0,0,1,1.62,0L29,14.65a1.62,1.62,0,0,1,.81,1.4v8.88a1.63,1.63,0,0,1-.81,1.4l-7.7,4.44A1.61,1.61,0,0,1,20.5,31Zm2.62-6.19c2.44,0,3.84-1,3.84-2.64s-1.12-2.1-3.49-2.42-2.63-.48-2.63-1,.21-1.08,2-1.08c1.58,0,2.16.34,2.4,1.41a.22.22,0,0,0,.22.17h1a.22.22,0,0,0,.22-.24c-.15-1.84-1.37-2.69-3.84-2.69-2.19,0-3.5.93-3.5,2.48s1.3,2.15,3.41,2.36c2.52.25,2.71.61,2.71,1.11,0,.86-.69,1.23-2.31,1.23-2,0-2.48-.51-2.63-1.52a.22.22,0,0,0-.22-.19h-1A.22.22,0,0,0,19,22C19,23.26,19.75,24.81,23.11,24.81Z" style="fill:#fff"/></g></svg>