<?xml version="1.0" encoding="UTF-8" standalone="no"?>
<!-- Created with Inkscape (http://www.inkscape.org/) -->

<svg
   width="32mm"
   height="32mm"
   viewBox="0 0 32 32"
   version="1.1"
   id="svg1"
   xml:space="preserve"
   inkscape:version="1.4.3 (0d15f75, 2025-12-25)"
   sodipodi:docname="core_closed.svg"
   xmlns:inkscape="http://www.inkscape.org/namespaces/inkscape"
   xmlns:sodipodi="http://sodipodi.sourceforge.net/DTD/sodipodi-0.dtd"
   xmlns="http://www.w3.org/2000/svg"
   xmlns:svg="http://www.w3.org/2000/svg"><sodipodi:namedview
     id="namedview1"
     pagecolor="#ffffff"
     bordercolor="#000000"
     borderopacity="0.25"
     inkscape:showpageshadow="2"
     inkscape:pageopacity="0.0"
     inkscape:pagecheckerboard="0"
     inkscape:deskcolor="#d1d1d1"
     inkscape:document-units="mm"
     showgrid="true"
     showguides="true"
     inkscape:zoom="3.5847924"
     inkscape:cx="70.715392"
     inkscape:cy="65.136268"
     inkscape:window-width="1366"
     inkscape:window-height="705"
     inkscape:window-x="1358"
     inkscape:window-y="-8"
     inkscape:window-maximized="1"
     inkscape:current-layer="layer1"><inkscape:grid
       id="grid1"
       units="mm"
       originx="0"
       originy="0"
       spacingx="0.99999997"
       spacingy="0.99999997"
       empcolor="#0099e5"
       empopacity="0.30196078"
       color="#0099e5"
       opacity="0.14901961"
       empspacing="5"
       enabled="true"
       visible="true" /><sodipodi:guide
       position="23.765904,30.007206"
       orientation="0,-1"
       id="guide1"
       inkscape:locked="false" /><sodipodi:guide
       position="2.0666003,23.733598"
       orientation="1,0"
       id="guide2"
       inkscape:locked="false" /><sodipodi:guide
       position="12.916252,1.960487"
       orientation="0,-1"
       id="guide3"
       inkscape:locked="false" /><sodipodi:guide
       position="29.965705,20.412276"
       orientation="1,0"
       id="guide4"
       inkscape:locked="false" /></sodipodi:namedview><defs
     id="defs1" /><g
     inkscape:label="Layer 1"
     inkscape:groupmode="layer"
     id="layer1"><g
       id="g1"
       transform="translate(-0.31910918,-1.2562309)"><path
         style="fill:#d1d1d2"
         d="m 14.619217,27.669365 c -1.259853,-0.285045 -1.612883,-1.687168 -1.579693,-2.813992 0.01878,-0.439781 -0.698792,-0.107935 -0.999902,-0.212501 -2.7347511,-0.0073 -5.469502,-0.01469 -8.2042528,-0.02204 -0.4667946,-0.277721 -0.2031238,-0.867216 -0.271056,-1.315177 0.014451,-4.258141 -0.039492,-8.5179 0.049523,-12.774709 0.9666113,-0.421296 2.1963209,-0.132669 3.2672994,-0.231355 2.0626396,-0.01135 4.1252834,-0.02188 6.1879254,-0.03285 0.615931,-1.1356278 1.183438,-2.2998247 1.861139,-3.4001414 3.199517,-0.1156832 6.407768,-0.041778 9.611163,-0.065113 0.426096,0.2541484 0.157355,0.8034783 0.222468,1.2109799 -0.01892,1.3696935 -0.03785,2.7393865 -0.05677,4.1090805 0.81128,1.179595 0.615849,2.701456 0.322174,4.020363 0.315949,0.811347 1.768478,0.662221 2.414516,1.323074 1.221612,0.565241 2.268678,2.203726 1.128034,3.365518 -0.876448,1.059132 -2.242542,1.447776 -3.474585,1.9146 -0.09403,1.041966 0.45843,2.223049 0.06166,3.31419 -0.197887,1.176487 -1.421765,1.895431 -2.557062,1.602574 -1.329909,-0.276127 -2.391625,-1.182254 -3.448964,-1.975449 -1.30129,1.008943 -2.763088,2.22558 -4.533617,1.982949 z m 1.024247,-0.838803 c 1.096801,-0.315392 2.065667,-0.973902 2.890357,-1.749596 -0.245501,-0.373372 -0.573376,-0.555925 -1.0227,-0.457148 -1.219651,0.0072 -2.439303,0.01448 -3.658954,0.02172 -0.138769,0.993616 0.251534,2.45889 1.534237,2.235798 l 0.257059,-0.05077 z m 8.050342,-0.05005 c 0.619314,-0.229827 1.238221,-2.008016 0.497039,-2.136567 -1.314458,-0.0079 -2.628915,-0.01577 -3.943373,-0.02366 -1.008858,0.719901 0.799928,1.299349 1.297582,1.765507 0.644957,0.303777 1.435974,0.71782 2.148752,0.394717 z m 2.493304,-5.311477 c 0.917445,-0.415313 2.460914,-1.156421 1.871738,-2.405266 -0.770796,-1.031514 -2.067434,-1.481076 -3.269497,-1.78215 -0.133941,1.489937 -0.05667,3.010442 -0.03851,4.510587 0.251513,0.326757 1.043884,-0.25564 1.436269,-0.323171 z M 22.348724,9.6615741 c 0.106191,-0.5138863 -0.05523,-0.7601588 -0.593713,-0.6293745 -1.539122,0 -3.078245,0 -4.617367,0 -0.245701,0.5255303 -1.103861,1.4766084 0.02869,1.2464254 1.727371,0.02119 3.454932,0.0091 5.182394,0.01233 0,-0.209792 0,-0.4195846 0,-0.6293769 z"
         id="path7" /><path
         style="fill:#969798"
         d="M 14.500405,27.503386 C 13.308372,27.089798 13.163098,25.68252 13.125966,24.597117 10.01658,24.580979 6.9071945,24.564841 3.7978087,24.548704 3.4306899,23.747483 3.7096877,22.748024 3.6155955,21.873351 3.6272242,18.10892 3.574021,14.34248 3.6622497,10.579356 c 0.9661899,-0.421274 2.1954786,-0.132679 3.2660387,-0.231355 2.0617717,-0.01135 4.1235476,-0.02188 6.1853216,-0.03285 0.617142,-1.1358232 1.185097,-2.3007533 1.865045,-3.4005808 3.194941,-0.091633 6.397557,-0.095853 9.592822,-0.014848 0.299896,0.9700786 0.05983,2.1318864 0.115936,3.1815688 0.01023,0.740846 -0.06033,1.500121 3.82e-4,2.229453 0.758378,1.290924 0.319812,2.828007 0.184382,4.208516 1.456049,0.572781 3.239216,1.032045 3.981914,2.562946 0.393919,1.389559 -0.991124,2.387963 -2.094683,2.873174 -0.619742,0.478982 -2.306027,0.285069 -1.798208,1.449912 0.223351,1.24615 0.432398,2.848264 -0.624473,3.7848 -1.25648,0.890021 -2.841781,0.03854 -3.938621,-0.730775 -0.654396,-0.574077 -1.396308,-1.308864 -2.058466,-0.321483 -1.075125,0.82303 -2.423019,1.669263 -3.839235,1.365551 z m 1.318429,-0.578787 c 0.938493,-0.424781 2.644335,-1.026467 2.735294,-2.048031 -0.316761,-0.510082 -0.949896,-0.233273 -1.443333,-0.298317 -1.118485,0.0063 -2.23697,0.01258 -3.355455,0.01887 -0.02774,0.892445 -0.06064,2.096009 1.010776,2.392441 0.347152,0.09466 0.716177,0.04567 1.052718,-0.06497 z m 7.885466,0.01677 c 0.881665,-0.318389 1.530085,-2.700382 0.129157,-2.378865 -1.252803,-0.0087 -2.505601,0.0072 -3.758393,0.01231 -0.96837,0.721862 0.647669,1.355572 1.166774,1.783139 0.738351,0.386155 1.609252,0.905439 2.462462,0.58342 z m 1.646056,-5.010779 c 1.081995,-0.378641 2.33536,-0.816266 2.901853,-1.887553 0.420267,-1.353918 -1.229909,-2.127181 -2.242275,-2.541282 -0.651219,-0.329134 -1.60292,-0.675405 -1.316933,0.365336 0.02282,1.397059 -0.09499,2.809164 0.06121,4.194116 0.167673,0.09391 0.414362,-0.124115 0.596142,-0.130617 z M 19.64751,20.866655 c 1.095518,-0.34944 1.210098,-2.10678 0.08689,-2.518738 -1.029769,-0.580709 -2.378393,0.599865 -1.889838,1.696299 0.256161,0.732764 1.084132,1.061765 1.802949,0.822439 z M 22.397137,9.6615741 c 0.0587,-0.4605415 0.04177,-0.8454611 -0.527744,-0.677788 -1.580909,0 -3.161817,0 -4.742726,0 -0.310654,0.523404 -1.227236,1.5900389 -0.03869,1.3432599 1.769629,0.02114 3.539444,0.0091 5.309162,0.01232 0,-0.22593 -1e-6,-0.4518593 -1e-6,-0.6777889 z"
         id="path6" /><path
         style="fill:#7d8183"
         d="M 3.757967,24.42767 C 3.5709701,23.113838 3.7089752,21.743374 3.6616984,20.408549 3.6606379,17.137845 3.6613472,13.86714 3.66114,10.596436 c 0.9181849,-0.379985 2.0409068,-0.09754 3.0353642,-0.198729 2.1390306,-0.01223 4.2780708,-0.02275 6.4171058,-0.03414 0.609838,-1.1326496 1.192719,-2.2805144 1.836641,-3.3942644 2.926629,-0.1325093 5.865335,-0.046456 8.796579,-0.060063 1.518251,-0.3138535 0.728922,1.6228273 0.901532,2.5136168 -0.07048,0.8880398 0.08484,2.0264688 -0.154018,2.7631998 -0.928312,-0.859344 -2.346984,-0.376485 -3.326613,0.153193 -1.022253,0.429188 -1.965754,2.089405 -2.937134,0.730777 -1.116798,-0.800432 -2.447322,-1.637722 -3.883567,-1.239844 -1.287034,0.65631 -1.145228,2.30218 -1.00827,3.51876 0.344306,0.865309 0.132531,1.554861 -0.899962,1.621719 -1.157832,0.483504 -2.7223554,1.049145 -2.9400431,2.46504 -0.117961,1.317644 1.2666371,2.022616 2.2656811,2.528257 0.787102,0.395445 2.296379,0.405931 1.59781,1.663617 -0.0066,0.608149 -0.09317,1.089216 -0.787596,0.89692 -2.8928407,-0.01595 -5.7877256,0.04045 -8.6789121,-0.0414 L 3.757967,24.427661 Z M 22.421344,9.6615741 c 0.0509,-0.4605703 0.05276,-0.8723357 -0.527739,-0.7044898 -1.588784,-0.00751 -3.177568,-0.015023 -4.766352,-0.022535 -0.362568,0.5665617 -1.277291,1.7269066 0.0094,1.4385276 1.761547,0.01366 3.523136,-0.0052 5.284694,-0.0095 2e-6,-0.233999 3e-6,-0.4679979 5e-6,-0.7019969 z M 13.68272,24.35896 c 0.0174,-0.867763 0.25689,-2.026904 1.377677,-1.456255 1.276469,0.01927 2.514084,0.315782 3.103488,1.568651 -1.489304,0.09965 -2.987797,0.03513 -4.481165,0.05314 0,-0.05518 0,-0.110357 0,-0.165536 z m 4.699801,-0.3196 c -1.313653,-1.015436 0.747593,-0.838087 1.460921,-0.819955 1.233446,-0.09377 -0.02565,0.885054 -0.385533,1.290884 -0.38609,0.08711 -0.749779,-0.0025 -0.968352,-0.362081 -0.03568,-0.03628 -0.07136,-0.07257 -0.107036,-0.108848 z m 1.797869,0.444095 c 0.501045,-1.066386 1.471554,-1.63385 2.656326,-1.535133 1.032409,-0.388579 1.880929,-0.116745 1.741145,1.141458 -0.198658,0.923269 -1.881034,0.206274 -2.649782,0.433018 -0.582436,-0.0084 -1.166475,0.0034 -1.747689,-0.03934 z m -2.086269,-1.653428 c -0.492564,0.05918 -0.913769,-0.0654 -1.140395,-0.546959 -0.567769,-0.88625 -1.31765,-1.707844 -1.624949,-2.727814 0.568627,-1.115618 1.161351,-2.3894 2.154859,-3.156345 1.156025,-0.09878 2.327505,-0.128839 3.480439,0.02415 0.811632,0.920393 1.488845,1.977482 1.999227,3.090817 -0.308995,1.096824 -1.090391,2.038375 -1.734605,2.975662 -0.834635,0.637363 -2.114767,0.238542 -3.134576,0.340457 z m 1.718905,-1.965928 c 1.171668,-0.523689 0.965289,-2.399837 -0.2907,-2.674099 -1.266848,-0.420031 -2.409302,1.244696 -1.529216,2.270009 0.398113,0.560971 1.220567,0.713388 1.819916,0.40409 z m -4.600302,1.655249 c -1.392136,0.168933 -0.957166,-1.047413 -0.48597,-1.801284 0.670484,-1.099924 1.083875,1.0896 1.645494,1.455403 0.611987,0.868734 -0.800423,0.349219 -1.159524,0.345881 z m 6.631117,0.08936 c 0.214275,-0.682529 0.83449,-1.919668 1.514367,-2.24246 0.437951,0.729464 1.347769,2.337578 -0.252308,2.14359 -0.402045,0.0133 -0.891268,0.274734 -1.262059,0.09887 z M 13.101759,22.051392 C 11.893962,21.635813 10.455834,21.153705 9.9156843,19.883064 9.6961387,18.72354 11.001355,18.000708 11.884304,17.581472 c 1.020285,-0.574642 2.27415,-0.869988 2.3389,0.70912 0.848163,1.036747 0.273712,2.083468 -0.216747,3.128237 -0.126805,0.450586 -0.324916,0.987586 -0.904698,0.632563 z m 11.417756,-0.06909 c -0.174178,-1.084288 -1.426734,-2.124506 -0.637061,-3.199134 0.259087,-0.371822 0.515538,-1.550592 0.698737,-1.519202 0.03016,1.569028 0.08823,3.159255 -0.03212,4.716774 z m -1.488935,-3.26228 c -0.166834,-0.702012 -1.63042,-1.743408 -0.922939,-2.221828 0.936666,0.04606 2.603445,0.172315 1.674128,1.461496 -0.133414,0.184024 -0.40114,1.360231 -0.751189,0.760332 z m -8.181989,-0.02295 c -0.416205,-0.783513 -1.187171,-2.215047 0.36605,-2.070368 0.576758,-0.20173 1.829592,-0.201877 0.989273,0.638027 -0.430103,0.302436 -0.781209,1.953925 -1.355323,1.432341 z m -0.802866,-2.354546 c -0.390595,-1.159867 -0.619138,-2.549166 -0.04441,-3.687233 0.848867,-1.109705 2.438335,-0.31328 3.386529,0.244199 0.824741,0.508466 1.91114,1.270198 0.667978,1.997683 -0.633949,1.163348 -1.843643,1.286779 -3.038613,1.41534 -0.297382,-0.01744 -0.728721,0.257334 -0.971486,0.03001 z m 9.489128,0.01892 c -1.029669,-0.321548 -2.401655,0.01804 -2.985431,-1.124759 -0.86517,-0.614121 -1.2635,-1.523551 -0.03791,-1.999629 0.95291,-0.692873 2.242361,-1.490708 3.434552,-0.938683 0.906066,0.672624 0.673585,1.983746 0.611215,2.971409 -0.06789,0.624593 -0.145763,1.47204 -1.022426,1.091662 z m -5.446511,-0.400844 c -0.233209,-0.587 1.195845,-2.199937 1.706402,-0.940573 0.895673,0.553413 0.530548,1.225832 -0.41799,0.933324 -0.429647,-0.01631 -0.86021,0.02089 -1.288412,0.0072 z"
         id="path5" /><path
         style="fill:#787d81"
         d="m 3.7664061,24.412446 c -0.2355863,-0.309773 -0.0426,-0.789281 -0.105266,-1.167539 0.0067,-4.21235 -0.019664,-8.425078 0.030074,-12.637102 0.9494211,-0.427357 2.1939106,-0.123697 3.2597864,-0.219718 2.0621107,-0.02606 4.1299885,0.05503 6.1884665,-0.06083 0.644403,-1.1221998 1.191141,-2.3008997 1.880461,-3.3965847 3.133429,-0.031976 6.269643,-0.06221 9.402339,0.00755 0.580629,0.7885716 0.05913,2.228212 0.218341,3.2469266 -0.188116,0.37478 0.314071,2.24197 -0.296692,1.815679 -0.959553,-0.680922 -2.265579,-0.231655 -3.204316,0.288948 -1.058618,0.588873 -2.07716,1.989134 -3.092736,0.562057 -1.066891,-0.746148 -2.413094,-1.510985 -3.741928,-1.052503 -1.345985,0.707558 -1.172951,2.455014 -0.991569,3.723486 0.793385,1.482192 -1.320409,1.282917 -2.091467,1.898877 -0.958447,0.490712 -2.0450569,1.388739 -1.7571893,2.601143 0.5020485,1.302834 1.9531923,1.909001 3.1826223,2.346242 1.310584,-0.04462 0.677553,1.565329 0.379852,2.125525 -3.0515429,0.04736 -6.1036827,0.02316 -9.1555074,0.02989 -0.03509,-0.03735 -0.070181,-0.0747 -0.1052715,-0.112048 z M 22.421344,9.6615741 c 0.0509,-0.4605752 0.05276,-0.8723408 -0.527739,-0.7044387 -1.599246,-0.00741 -3.198492,-0.014812 -4.797738,-0.022218 -0.384986,0.609394 -1.282291,1.768193 0.107418,1.444129 1.739361,0.0036 3.478708,-0.01018 5.218059,-0.01548 0,-0.233998 0,-0.4679959 0,-0.7019939 z M 13.763409,24.492221 c -0.05732,-0.855033 0.157664,-2.171687 1.323861,-1.521145 1.225762,0.02494 2.44019,0.236698 2.979425,1.490231 -1.407175,0.117677 -2.876538,0.05806 -4.303286,0.03091 z m 4.676569,-0.47988 c -1.298702,-1.099737 1.071923,-0.678372 1.732605,-0.728617 0.444854,0.399448 -1.289951,2.012373 -1.732605,0.728617 z m 1.831445,0.467534 c 0.379552,-0.45952 0.724614,-1.365874 1.443389,-1.332282 0.831196,0.237067 2.44094,-0.989596 2.678229,0.198235 0.318587,0.718199 0.187402,1.426188 -0.732982,1.174236 -1.12923,-0.0017 -2.261102,0.0267 -3.388636,-0.04019 z M 17.676828,22.748981 C 16.723467,22.333376 16.322183,21.13458 15.725689,20.307177 14.86529,19.258233 16.305158,18.256219 16.70386,17.3192 c 0.469215,-1.244941 1.834459,-0.843353 2.869787,-0.90322 1.351004,-0.360023 2.067268,0.81092 2.636116,1.826793 0.998592,0.940356 0.587936,2.075377 -0.20045,2.990042 -0.480142,1.24591 -1.558362,1.806124 -2.86134,1.53903 -0.490255,-0.0017 -0.98161,0.0086 -1.471145,-0.02286 z m 2.12132,-1.854663 c 1.070493,-0.468436 1.077725,-2.161748 -0.0083,-2.612014 -1.066049,-0.616754 -2.500673,0.572637 -2.040274,1.732292 0.25287,0.873288 1.242308,1.255169 2.048543,0.879722 z m -4.517785,1.5796 c -0.785821,0.04308 -1.32819,-0.361973 -0.761472,-1.117612 0.144172,-0.764036 0.742848,-1.360591 1.03827,-0.320216 0.283248,0.675526 1.878545,2.062478 -0.276798,1.437828 z m 6.66895,0.109768 c 0.134594,-0.614701 0.867996,-1.979231 1.4334,-2.109713 0.356522,0.734596 1.213557,2.113846 -0.282871,1.980666 -0.381372,0.02432 -0.772902,0.189547 -1.150529,0.129047 z m -9.065415,-0.66626 C 11.779672,21.508542 10.42401,21.028952 9.9793766,19.826307 9.8276165,18.585657 11.207354,17.96804 12.155715,17.551126 c 0.754982,-0.382919 1.804752,-0.767843 1.882471,0.444692 0.688622,1.051579 0.701309,2.113571 0.01301,3.163946 -0.223336,0.621438 -0.357134,1.247158 -1.167295,0.757662 z m 11.600349,-0.216163 c -0.134664,-0.783628 -0.943081,-1.544477 -0.811088,-2.322066 0.306008,-0.663293 0.592081,-1.336937 0.867415,-2.012037 0.136674,1.441647 0.07324,2.919575 0.0371,4.373569 l -0.04181,0.06149 -0.05161,-0.100955 z m -9.507703,-2.950068 c -0.455629,-0.740256 -1.259907,-2.236173 0.306766,-2.060333 0.930721,-0.356066 1.471376,0.08435 0.659691,0.849524 -0.346848,0.314349 -0.510855,1.228225 -0.966457,1.210809 z m 8.050271,-0.1404 c -0.116394,-0.627684 -1.990267,-2.179751 -0.484997,-1.979343 0.725595,0.01611 1.991422,0.185817 1.24973,1.148916 -0.174002,0.18281 -0.348247,1.47642 -0.764733,0.830427 z M 23.607473,16.29759 C 22.832143,16.095674 21.962162,16.125385 21.216239,15.910448 20.772,15.252031 19.848374,14.696057 19.704384,13.98533 c 1.067297,-0.925737 2.403429,-1.997658 3.910615,-1.752002 1.248769,0.419418 0.906979,1.99157 0.900712,3.004397 -0.107724,0.512146 -0.11897,1.474652 -0.908238,1.059865 z m -9.5561,-0.06389 c -0.303839,-1.165067 -0.617693,-2.579786 0.08554,-3.661095 0.899867,-0.829654 2.230966,-0.173696 3.125284,0.34368 0.830544,0.490648 1.986975,1.260415 0.69647,2.013134 -0.595622,1.080048 -1.729047,1.190126 -2.83889,1.298662 -0.329558,0.0072 -0.794124,0.243748 -1.0684,0.0056 z m 3.984315,-0.40452 c 0.264208,-0.826918 1.331572,-1.783923 1.895312,-0.585471 0.832315,0.614092 0.05628,0.719393 -0.4974,0.640908 -0.463108,-0.01382 -0.949311,0.05635 -1.397912,-0.05544 z"
         id="path4" /><path
         style="fill:#697176"
         d="m 3.7799731,24.405664 c -0.2592014,-0.300483 -0.052782,-0.793833 -0.118833,-1.174322 0.0067,-4.207828 -0.01966,-8.416035 0.030074,-12.623537 0.89739,-0.422012 2.0875366,-0.126931 3.1018902,-0.219567 2.1117123,-8.86e-4 4.2234247,-2.85e-4 6.3351377,-4.62e-4 0.627065,-1.154701 1.202531,-2.3400255 1.89372,-3.4578822 3.167277,-0.048116 6.335454,-0.020662 9.503134,-0.027885 0.329529,0.9327475 0.04539,2.0077825 0.119621,2.9923267 -0.165726,0.4824625 0.248837,2.2070215 -0.230511,2.1165225 -0.853916,-0.672643 -2.101267,-0.331398 -2.994447,0.101312 -1.03765,0.179376 -1.916326,2.104658 -2.857537,1.09053 -1.195987,-0.93274 -2.746462,-1.94369 -4.318577,-1.410935 -1.229217,0.662652 -1.121,2.236563 -1.018746,3.423287 0.291916,0.806372 0.306843,1.644559 -0.770968,1.641805 -1.158007,0.432956 -2.45209,1.013253 -2.9850567,2.204762 -0.418631,1.283492 0.7929137,2.243892 1.7964237,2.758617 0.880275,0.596192 2.823612,0.47419 1.970047,2.031184 0.0061,1.20334 -1.780072,0.460883 -2.581026,0.673447 -2.2518377,-4.55e-4 -4.5036754,-3.89e-4 -6.755513,-3.7e-4 -0.039611,-0.03961 -0.079222,-0.07922 -0.1188329,-0.118833 z M 22.421344,9.6615741 c 0.0509,-0.4608109 0.05276,-0.8725852 -0.527744,-0.7019947 -1.612331,0 -3.224662,0 -4.836993,0 -0.11052,0.4171644 -0.999174,1.2182616 -0.506757,1.4052566 1.956769,0.03591 3.914366,-0.0016 5.871494,-0.0013 0,-0.233997 0,-0.4679946 0,-0.7019919 z M 13.815578,24.472049 c -0.128896,-0.833569 0.16895,-2.059545 1.281082,-1.468072 1.199585,0.03385 2.412726,0.246087 2.943323,1.457885 -1.391017,0.108267 -2.823193,0.06406 -4.224405,0.01019 z m 4.676176,-0.447104 c -1.1661,-0.902233 0.481044,-0.67904 1.136172,-0.704767 1.031839,-0.252121 0.543426,0.509695 -0.03086,0.923602 -0.375629,0.525815 -0.813061,0.154751 -1.105309,-0.218835 z m 1.859916,0.466179 c 0.253676,-0.876955 1.340037,-1.568001 2.404125,-1.428833 0.894568,-0.304626 1.833459,-0.340953 1.724691,0.876115 0.16,1.126254 -1.722716,0.330724 -2.416995,0.582607 -0.570499,-0.0045 -1.142352,0.0098 -1.711821,-0.02989 z m -2.304652,-1.751633 c -0.748273,0.172984 -1.067636,-0.534753 -1.421058,-1.068981 -0.73849,-1.020441 -1.748352,-2.27871 -0.521231,-3.376556 0.571314,-1.013435 1.255137,-2.184955 2.612988,-1.882353 0.984776,0.05138 2.338902,-0.3019 2.805411,0.853349 0.568424,0.998531 1.976329,2.19802 0.857594,3.326223 -0.645373,0.810236 -1.027611,2.319541 -2.312712,2.145884 -0.673343,0.01851 -1.347723,0.02779 -2.020992,0.0024 z m 1.773253,-1.850308 c 1.083782,-0.459997 1.081902,-2.188287 -0.02647,-2.620089 -1.340632,-0.78884 -2.859608,1.14838 -1.781698,2.26004 0.420528,0.556292 1.206187,0.681304 1.80817,0.360049 z m -3.958947,1.648623 c -0.698067,-0.137901 -2.103151,-0.008 -1.339308,-1.109578 0.155517,-0.740433 0.712246,-1.422799 1.030292,-0.352865 0.08789,0.365614 1.566383,1.808313 0.309016,1.462443 z m 6.087683,0.02161 c 0.240654,-0.695769 0.841105,-1.719587 1.391356,-2.096164 0.387436,0.73285 1.202709,2.159915 -0.313851,1.974293 -0.35495,0.03729 -0.723479,0.161621 -1.077505,0.121871 z m -9.113522,-0.693117 c -1.112772,-0.398366 -2.480564,-0.919292 -2.862999,-2.152368 0.031136,-1.192037 1.343201,-1.77895 2.297822,-2.181061 0.814502,-0.498256 1.694467,-0.53966 1.793343,0.599114 0.118703,0.678015 0.96364,1.309119 0.408859,1.977961 -0.555109,0.618748 -0.392756,2.558916 -1.637025,1.756354 z m 11.667837,-0.222397 c -0.663986,-1.217062 -1.112623,-2.497799 -0.16375,-3.714993 0.408732,-1.123655 0.225963,0.955809 0.272795,1.331176 -0.03936,0.738051 0.09038,1.84959 -0.109045,2.383817 z m -9.55087,-2.941116 c -0.301739,-0.681443 -1.22897,-2.093785 0.211337,-1.948298 0.533571,-0.174269 1.726694,-0.319254 0.926525,0.510141 -0.3732,0.34698 -0.655825,1.436485 -1.137862,1.438157 z m 8.076735,-0.169447 c -0.19785,-0.590011 -1.925695,-2.229638 -0.363484,-1.864091 0.769797,0.01392 1.796575,0.254941 1.057972,1.191338 -0.146774,0.205153 -0.347624,1.36135 -0.694488,0.672753 z m -8.950451,-2.333266 c -0.322054,-1.137008 -0.606733,-2.529656 0.07591,-3.588075 0.880347,-0.872592 2.226024,-0.18957 3.109145,0.351911 0.837255,0.488564 1.959481,1.210467 0.679801,1.947048 -0.596883,1.15381 -1.81412,1.144373 -2.940337,1.300401 -0.267177,-0.0352 -0.752206,0.292677 -0.924521,-0.01129 z m 9.795011,0.1118 c -0.983282,-0.355491 -2.335499,0.04787 -3.025631,-0.869129 -0.795055,-0.693485 -1.652097,-1.632642 -0.226134,-2.176488 0.916185,-0.623896 2.107325,-1.388503 3.239728,-0.909673 1.008757,0.789093 0.726662,2.301293 0.521072,3.40221 -0.07047,0.271939 -0.0928,0.725583 -0.509035,0.55308 z m -5.816172,-0.525636 c 0.221117,-0.404393 0.746336,-1.112414 1.167268,-1.17384 0.444564,0.364415 1.701274,1.446673 0.363286,1.231127 -0.508204,-0.0033 -1.030508,0.04232 -1.530554,-0.05729 z"
         id="path3" /><path
         style="fill:#435059"
         d="m 3.7898972,24.387791 c -0.1566296,-2.394145 -0.044815,-4.807075 -0.080344,-7.208697 0,-2.197391 0,-4.394783 0,-6.592174 1.0418083,-0.286667 2.2005493,-0.07995 3.287671,-0.15009 2.035933,-0.0012 4.0718668,-4e-4 6.1077998,-6.4e-4 0.646252,-1.1395671 1.24166,-2.3073861 1.861454,-3.4615602 3.124408,-0.00382 6.249482,-0.062733 9.373395,-0.013416 0.656441,0.7103042 0.06772,2.267802 0.247788,3.2802859 -0.152608,0.543749 0.367866,2.270903 -0.600253,1.429468 -1.717495,-0.481914 -3.324084,0.701181 -4.605416,1.708201 -0.926224,0.09106 -1.762017,-1.287787 -2.814909,-1.513142 -0.992884,-0.435368 -2.502273,-0.542903 -3.098549,0.563078 -0.700166,1.242815 -0.289269,2.716389 -0.125366,4.035359 -1.46531,0.51511 -3.197746,1.030641 -3.9307068,2.539428 -0.5263331,1.279972 0.7316678,2.305999 1.7311218,2.848945 0.69767,0.630873 2.703657,0.394919 2.064746,1.776012 0.07385,0.752464 -0.264129,0.944291 -0.922382,0.825153 -2.7839312,-0.0069 -5.5693456,0.05201 -8.3520849,-0.01673 L 3.7899059,24.387798 Z M 22.435868,10.378093 c 0.240131,-0.853612 0.08845,-1.7855247 -0.97697,-1.4842892 -1.466695,0.020938 -2.949488,-0.080027 -4.405452,0.066699 -0.312261,0.5197491 -1.250185,1.7249456 -0.01711,1.4666446 1.798308,-0.0069 3.605575,0.06081 5.399536,-0.04905 z m -8.607899,13.98906 c 0.05281,-0.780405 0.185797,-1.875249 1.252344,-1.28639 1.022851,-0.06591 2.788677,0.471904 2.700434,1.378748 -1.317411,0.02664 -2.635193,0.01329 -3.952787,0.01657 l 5e-6,-0.06597 z m 4.737994,-0.381846 c -1.164448,-0.940248 1.041061,-0.54517 1.638229,-0.544722 -0.452784,0.520128 -1.027833,1.563925 -1.638229,0.544722 z m 1.79781,0.461542 c 0.588797,-1.188983 1.778525,-1.311655 2.960759,-1.384066 0.901211,-0.76387 1.461997,1.184881 0.932275,1.390314 -1.297562,7.14e-4 -2.596176,0.03682 -3.893034,-0.0062 z m -2.502429,-1.806564 c -1.148604,-0.282746 -1.499653,-1.774414 -2.178339,-2.648433 -0.514905,-0.535217 0.247209,-1.063862 0.442838,-1.582787 0.503123,-0.585794 0.79154,-1.638928 1.55486,-1.875713 1.058708,-0.06147 2.130854,-0.08105 3.182473,0.06006 0.80812,0.848964 1.381811,1.909233 1.952062,2.92932 -0.439855,1.108072 -1.158748,2.118173 -1.91369,3.041527 -0.973032,0.177308 -2.039745,0.101679 -3.040204,0.07602 z m 1.891112,-1.665132 c 1.522857,-0.544363 1.012726,-2.967747 -0.579509,-2.915444 -1.416487,-0.119276 -2.140131,1.911235 -0.968604,2.71874 0.42286,0.365143 1.046955,0.44027 1.548113,0.196704 z m -4.579017,1.377439 c -1.349052,0.309428 -0.485404,-1.735502 0.0244,-1.661462 0.217421,0.664663 2.190882,2.336262 -0.0244,1.661462 z m 6.861241,0.09117 c 0.410095,-0.525004 0.817554,-1.825757 1.332426,-1.79203 0.368013,0.715716 0.984628,1.882576 -0.376475,1.712729 -0.3061,0.01322 -0.675094,0.193228 -0.955951,0.0793 z m -9.126575,-0.627674 c -1.096631,-0.431571 -2.649985,-0.920624 -2.854504,-2.264838 0.259553,-1.288034 1.762115,-1.721966 2.8291,-2.157803 1.230835,-0.559881 1.136223,1.513419 1.719874,2.196129 -0.595057,0.685756 -0.459896,2.755387 -1.69447,2.226516 z M 24.41029,21.22028 c -0.16808,-0.576241 -0.573698,-1.133382 -0.686001,-1.696609 0.282587,-0.603049 0.540183,-1.218201 0.810703,-1.825468 0.06078,1.256433 0.05869,2.519647 0.0019,3.776248 l -0.05322,-0.07466 z m -9.439613,-2.658186 c -0.374544,-0.71296 -1.049727,-1.975289 0.391484,-1.741548 0.604017,-0.246704 1.264873,-0.160684 0.58129,0.517998 -0.33899,0.304699 -0.550622,1.272238 -0.972774,1.22355 z m 8.138206,-0.05297 c -0.21329,-0.570039 -1.829955,-2.154674 -0.36592,-1.74221 0.794938,-0.03293 1.555045,0.327846 0.87058,1.161878 -0.137852,0.122942 -0.234435,1.049775 -0.50466,0.580332 z m -8.971766,-2.386007 c -0.318641,-0.997299 -0.476993,-2.152954 -0.116315,-3.159255 0.541311,-1.154472 2.074207,-0.606604 2.901063,-0.106749 0.684441,0.492492 2.345247,1.156881 1.023193,1.944928 -0.589646,1.096166 -1.704775,1.223623 -2.824294,1.304154 -0.299295,-0.02377 -0.754635,0.260102 -0.983647,0.01692 z m 9.615596,0.07455 c -1.245783,-0.194912 -2.68357,-0.08671 -3.355172,-1.373005 -1.452153,-0.937237 0.688879,-1.68017 1.420785,-2.182637 0.98479,-0.649883 2.667708,-0.453219 2.649846,0.995088 -0.02606,0.697423 0.251368,2.598269 -0.715459,2.560554 z m -5.555441,-0.423604 c 0.189469,-0.698942 1.201466,-1.505287 1.682283,-0.418291 0.952682,0.704008 -1.418384,0.327415 -1.682283,0.418291 z"
         id="path2" /><path
         style="fill:#35444e"
         d="m 3.8160631,24.369574 c -0.1022244,-4.550675 -0.077962,-9.106328 -0.012838,-13.658085 0.7303103,-0.431288 2.1458108,-0.08114 3.1234382,-0.216197 2.0799515,-0.01519 4.1599472,-0.02327 6.2399212,-0.0349 0.610129,-1.1539629 1.222389,-2.3067977 1.833661,-3.4601557 3.172989,0.011162 6.349641,-0.067001 9.51983,0.029382 0.106053,1.5896404 -0.0076,3.1956577 -0.0059,4.7923787 -1.238543,-0.813907 -2.815997,-0.191062 -3.939282,0.538341 -0.742253,0.499935 -1.526243,1.524271 -2.249337,0.393221 -1.1513,-0.789704 -2.601297,-1.679003 -4.037001,-1.17877 -1.147002,0.443937 -1.411083,1.894372 -1.340988,2.985725 0.198857,0.996586 0.637782,2.197575 -0.839971,2.220725 -1.304328,0.498097 -2.9034206,1.369672 -2.9489303,2.950363 0.3371792,1.6354 2.0756263,2.376326 3.4924063,2.874847 0.999463,-0.0219 0.416247,1.500915 0.221966,1.821217 -3.0185291,-0.02099 -6.0415229,0.05283 -9.0569249,-0.0581 z M 22.484281,10.426506 c 0.220527,-0.8788769 0.103159,-1.9189653 -1.045749,-1.5773305 -1.463141,-0.0052 -2.926264,0.00863 -4.389392,0.013577 -0.388105,0.6448905 -1.392519,1.9392078 0.09118,1.6159098 1.780191,-0.0127 3.567953,0.05828 5.343964,-0.05216 z m -8.528908,13.7712 c 0.04495,-0.707076 0.203168,-1.531319 1.082923,-1.00593 0.988058,0.191574 2.27703,0.06213 2.649497,1.198127 -1.250973,0.07335 -2.507625,0.02338 -3.761154,0.03772 0.0096,-0.07664 0.01916,-0.153278 0.02873,-0.229917 z m 6.637998,0.157138 c 0.558444,-1.261425 1.936694,-0.94344 3.028007,-1.247688 0.654525,-0.435063 1.214021,1.658991 0.302271,1.320537 -1.105085,-0.02766 -2.268516,0.07 -3.330278,-0.07285 z m -1.893064,-0.40448 c -1.331892,-0.784289 2.246063,-0.680477 0.921798,0.0055 -0.353856,0.493755 -0.542401,0.477978 -0.921798,-0.0055 z m -0.657884,-1.418228 c -1.124266,-0.02785 -1.394068,-1.452102 -2.029146,-2.179827 -0.936829,-1.043403 0.508612,-2.082794 0.963235,-3.02533 0.251392,-0.555103 0.698591,-0.799405 1.281392,-0.71309 0.83909,-0.04137 1.678978,-0.0092 2.517383,0.03102 0.801756,0.867268 1.37249,1.920219 1.964322,2.93588 -0.550741,0.985316 -1.125703,1.975119 -1.857612,2.834511 -0.923017,0.200458 -1.900461,0.183494 -2.839574,0.116833 z m 1.499348,-1.377162 c 1.144922,-0.240046 1.682426,-1.779435 0.849493,-2.627996 -0.822558,-1.011894 -2.687216,-0.542337 -2.860375,0.774223 -0.212151,1.080969 0.934681,2.202259 2.010882,1.853773 z m -4.212994,1.116331 c -1.282356,0.282823 -0.599177,-1.259341 -0.165751,-1.43298 0.161872,0.482674 1.723051,1.923261 0.165751,1.43298 z m 6.92312,0.02302 c 0.372183,-0.453789 0.972543,-2.307817 1.293616,-0.934524 0.818918,1.114847 -0.6885,0.875321 -1.293616,0.934524 z m -9.125931,-0.528646 c -1.103437,-0.418383 -2.489899,-0.828604 -2.958903,-2.028452 -0.0011,-1.153377 1.347522,-1.640772 2.244161,-2.042676 0.65541,-0.334545 1.413289,-0.515074 1.445217,0.463578 0.910968,1.103612 0.362903,2.255298 -0.180752,3.371524 -0.0559,0.344538 -0.26912,0.365039 -0.549723,0.236026 z m 11.352949,-0.681365 c -0.739793,-0.757542 -0.584833,-2.599757 0.03327,-2.766831 0.0052,0.880048 0.05147,2.066604 -0.03327,2.766831 z m -1.401989,-2.841462 c -0.197754,-0.519412 -1.495284,-1.752526 -0.195654,-1.316213 0.977168,-0.13127 1.004276,0.508966 0.546717,1.16847 -0.09445,0.271151 -0.134162,0.57047 -0.351063,0.147743 z m -8.083186,0.09193 c -0.631146,-0.83938 -0.475961,-1.563228 0.661657,-1.441316 1.124918,-0.602801 -0.603433,1.688139 -0.661657,1.441316 z M 14.2187,16.032076 c -0.294916,-1.000714 -0.488096,-2.185757 -0.02662,-3.167616 0.872217,-1.065767 2.322375,-0.110299 3.217737,0.44539 0.699764,0.336269 1.345583,0.900535 0.428304,1.439688 -0.556123,1.035597 -1.540368,1.202229 -2.621709,1.226269 -0.323668,-0.0019 -0.70025,0.198731 -0.997715,0.05627 z m 9.437186,0.0216 c -1.050222,-0.243385 -2.369137,0.07801 -2.959767,-1.06283 -0.10417,-0.351471 -1.120033,-0.73384 -0.643919,-1.059591 0.960239,-0.720352 2.046915,-1.548656 3.298043,-1.551326 1.304182,0.256056 1.068016,1.952436 0.966586,2.932795 -0.142391,0.333359 -0.0952,1.008851 -0.660943,0.740952 z m -5.325477,-0.404441 c 0.450151,-0.869535 1.189688,-0.888475 1.646057,-0.01249 -0.546854,0.04415 -1.098244,0.03103 -1.646057,0.01249 z"
         id="path1" /></g></g></svg>
