<svg viewBox="0 0 32 32" xmlns="http://www.w3.org/2000/svg"><path d="m27.4 5.5h-9.2l-2.1 4.2h-11.8v16.8h25.2v-21zm0 18.7h-20.8v-12.4h20.8zm0-14.5h-8.2l1-2.1h7.1v2.1z" fill="#7baddb"/><path d="m25.7 13.7h-25.2l3.8 12.8h25.2z" fill="#7baddb"/><path d="m9.842 15.246 10.558-5.246 10.558 5.246v.693l-10.558 5.246-10.558-5.23z" fill="#0a6ec9"/><path d="m9.842 15.246 10.558 5.246 10.558-5.246v10.508l-10.591 5.246-10.525-5.246z" fill="#0568c1"/><path d="m20.4 30.984v-10.492l-10.492-5.213h-.066v10.475l10.525 5.246z" fill="#0663b4"/><path d="m14.148 13.118 10.541 5.246 2.145-1.056-10.575-5.246z" fill="#add4f7"/><path d="m24.689 18.364 2.145-1.056v3.3l-.577-.1-.61.742-.957-.066z" fill="#99c7f2"/><path d="m18.222 24.682-3.563-1.782c-.2-.1-.363.017-.363.264v2.392a.757.757 0 0 0 .363.627l3.58 1.782c.2.1.363-.017.363-.264v-2.409a.784.784 0 0 0 -.38-.61zm-.808 1.963-2.277-1.138a.4.4 0 0 1 -.181-.33c0-.132.082-.2.181-.148l2.277 1.138a.4.4 0 0 1 .181.33c.005.131-.082.197-.181.148zm.33-.825-2.606-1.32a.4.4 0 0 1 -.181-.33c0-.132.082-.2.181-.148l2.606 1.32a.4.4 0 0 1 .181.33c.001.148-.082.198-.181.148z" fill="#f2f2f2"/></svg>