<?xml version="1.0" encoding="UTF-8"?><svg id="Capa_1" xmlns="http://www.w3.org/2000/svg" xmlns:xlink="http://www.w3.org/1999/xlink" viewBox="0 0 32 32"><defs><linearGradient id="Degradado_sin_nombre_6" x1="271.86" y1="-100.81" x2="312.05" y2="-117.67" gradientTransform="translate(-26.49 5.17) scale(.17 -.17)" gradientUnits="userSpaceOnUse"><stop offset="0" stop-color="#249361"/><stop offset="1" stop-color="#3ecf8e"/></linearGradient><linearGradient id="Degradado_sin_nombre_2" x1="273.69" y1="-59.27" x2="292.01" y2="-93.77" gradientTransform="translate(-26.49 5.17) scale(.17 -.17)" gradientUnits="userSpaceOnUse"><stop offset="0" stop-color="#000"/><stop offset="1" stop-color="#000" stop-opacity="0"/></linearGradient></defs><path d="m27.5,5.5h-9.3l-2.1,4.2H4.4v16.8h25.2V5.5h-2.1Zm0,4.2h-8.2l1.1-2.1h7.1v2.1Z" style="fill:#56bf8f;"/><path d="m20.86,11.68c.19,0,.38.06.54.19.2.16.32.4.32.65l.04,6.08h-.07l.09,5.6h-7.79c-.94,0-1.7-.77-1.69-1.71,0-.38.13-.75.36-1.04l7.53-9.45c.17-.21.42-.32.67-.32m8.74,6.92c.93,0,1.69.75,1.7,1.69,0,0,0,0,0,.01,0,0,0,0,0-.01,0-.94-.77-1.69-1.7-1.69,0,0,0,0-.01,0h-7.83,7.83s0,0,.01,0m-7.84,0l.03,5.6h0l-.09-5.6h.07m9.54,1.7c0,.38-.13.76-.37,1.06l-7.53,9.44c-.17.21-.42.33-.67.33-.18,0-.37-.06-.52-.18-.2-.16-.32-.4-.33-.66l-.1-6.09.1,6.09c0,.26.12.5.33.66.16.12.34.18.52.18.25,0,.5-.11.67-.33l7.53-9.44c.24-.3.37-.67.37-1.06m-10.44-9.12h0c-.41,0-.8.19-1.06.51l-7.53,9.45c-.3.39-.47.87-.47,1.35,0,1.21.98,2.2,2.19,2.21h7.3l.09,5.6c0,.41.2.79.52,1.04.24.18.53.29.83.29.42,0,.81-.19,1.06-.52l7.53-9.44c.31-.39.48-.87.48-1.37h-.5s.5,0,.5,0h-.5s.5-.01.5-.01c0-1.2-.99-2.19-2.2-2.19v1c.66,0,1.19.54,1.2,1.19h.5s-.49,0-.49,0h0c0,.27-.09.54-.26.75l-7.53,9.44c-.07.09-.17.14-.28.14-.05,0-.14-.01-.21-.07-.08-.07-.13-.16-.13-.27l-.09-5.58h0v-.18s0-.32,0-.32l-.03-5.1h7.33v-1s0,0,0,0h-.01s-7.33,0-7.33,0l-.03-5.58c0-.41-.19-.79-.51-1.04-.24-.19-.54-.3-.85-.3h0Zm10.44,9.62h0,0Zm0,0h0,0Z" style="fill:#191919;"/><g id="logo"><path d="m23.4,30.8c-.29.37-.82.44-1.19.15-.2-.16-.32-.4-.33-.66l-.19-11.69h7.9c.94,0,1.7.75,1.71,1.69,0,.39-.13.77-.37,1.07l-7.53,9.44Z" style="fill:url(#Degradado_sin_nombre_6);"/><path d="m23.4,30.8c-.29.37-.82.44-1.19.15-.2-.16-.32-.4-.33-.66l-.19-11.69h7.9c.94,0,1.7.75,1.71,1.69,0,.39-.13.77-.37,1.07l-7.53,9.44Z" style="fill:url(#Degradado_sin_nombre_2); opacity:.2;"/><path d="m20.19,12c.3-.37.84-.43,1.21-.13.2.16.32.4.32.65l.07,11.68h-7.8c-.94,0-1.7-.77-1.69-1.71,0-.38.13-.75.36-1.04l7.53-9.45Z" style="fill:#3ecf8e;"/></g></svg>