<svg viewBox="0 0 512 512" xmlns="http://www.w3.org/2000/svg"><path d="M426.609 75.094H277.822l-33.597 67.194H57.042v268.776h403.164V75.094h-33.597zm0 67.194H295.421l17.598-33.597h113.59v33.597z" fill="#0083a8"/><path fill-rule="evenodd" clip-rule="evenodd" d="M228.319 183.537c-11.21-19.28-39.23-19.28-50.44 0L55.74 393.545c-11.21 19.27 2.8 43.36 25.22 43.36h95.349c-9.58-8.37-13.12-22.85-5.88-35.28l92.509-158.569-34.619-59.519z" fill="#80EEC0" stroke="#fff" stroke-width="15"/><path d="M305.708 229.596c9.28-15.769 32.46-15.769 41.74 0l101.079 171.829c9.28 15.77-2.31 35.48-20.86 35.48H225.489c-18.54 0-30.14-19.71-20.86-35.48l101.079-171.829z" fill="#00DC82" stroke="#fff" stroke-width="15"/></svg>