<svg viewBox="0 0 32 32" xmlns="http://www.w3.org/2000/svg" xmlns:xlink="http://www.w3.org/1999/xlink"><clipPath id="a"><path d="m30.256 20.844a1.669 1.669 0 0 1 .334.446 5.731 5.731 0 0 1 .446 1.938 5.288 5.288 0 0 1 -.356 2.205 13.574 13.574 0 0 1 -1.537 1.582 5.2 5.2 0 0 1 -.624.2 2.516 2.516 0 0 1 -1.359.29c-2.094-.156-4.121-1.2-5.725-1.782-.6 1.069-2.851 2.228-2.851 2.228s-.757.2-1.114.29a6.256 6.256 0 0 1 -1.025.089c-.178 0-.356-.111-.535-.089-.156.022-.312.134-.446.156a6.176 6.176 0 0 1 -1.849-.49l-.913-.668-.535-.535a5.874 5.874 0 0 1 -1.025-1.448c-.089-.223-.312-.468-.379-.668-.089-.223-.089-.646-.156-.913a3.233 3.233 0 0 1 .824-2.963 16.1 16.1 0 0 1 1.648-.958c1-.423 1.938-1.247 3.3-1.314a3.247 3.247 0 0 1 1.021-1.673 11.362 11.362 0 0 1 1.448-1.27 7.175 7.175 0 0 1 3.987-1.247 5.926 5.926 0 0 1 2.45.579 13.427 13.427 0 0 1 1.871.98 4.226 4.226 0 0 1 1.648 2.183c.134.379.891 1.136 1.069 1.582a2.473 2.473 0 0 1 .178.6 1.578 1.578 0 0 0 .2.668z"/></clipPath><path d="m27.5 5.5h-9.2l-2.1 4.2h-11.8v16.8h25.2v-21zm0 18.7h-20.8v-12.4h20.8zm0-14.5h-8.2l1-2.1h7.1v2.1z" fill="#688c76"/><path d="m25.822 13.7h-25.2l3.8 12.8h25.2z" fill="#688c76"/><path d="m30.256 20.844a1.669 1.669 0 0 1 .334.446 5.731 5.731 0 0 1 .446 1.938 5.288 5.288 0 0 1 -.356 2.205 13.574 13.574 0 0 1 -1.537 1.582 5.2 5.2 0 0 1 -.624.2 2.516 2.516 0 0 1 -1.359.29c-2.094-.156-4.121-1.2-5.725-1.782-.6 1.069-2.851 2.228-2.851 2.228s-.757.2-1.114.29a6.256 6.256 0 0 1 -1.025.089c-.178 0-.356-.111-.535-.089-.156.022-.312.134-.446.156a6.176 6.176 0 0 1 -1.849-.49l-.913-.668-.535-.535a5.874 5.874 0 0 1 -1.025-1.448c-.089-.223-.312-.468-.379-.668-.089-.223-.089-.646-.156-.913a3.233 3.233 0 0 1 .824-2.963 16.1 16.1 0 0 1 1.648-.958c1-.423 1.938-1.247 3.3-1.314a3.247 3.247 0 0 1 1.021-1.673 11.362 11.362 0 0 1 1.448-1.27 7.175 7.175 0 0 1 3.987-1.247 5.926 5.926 0 0 1 2.45.579 13.427 13.427 0 0 1 1.871.98 4.226 4.226 0 0 1 1.648 2.183c.134.379.891 1.136 1.069 1.582a2.473 2.473 0 0 1 .178.6 1.578 1.578 0 0 0 .2.668z" fill="#423334"/><g clip-path="url(#a)"><path d="m21.5 25.455c.022-.022 0-.022 0-.022l-.022-.022c.022-.022-.067-.089-.067-.045-.022-.022-.022 0-.022 0 0 .022 0 .022-.022.045-.022 0-.022 0-.022.022h-.022v.022s.022.022 0 .022c-.022.022 0 .022 0 .022s.022.022 0 .022l.045.045h.045c.022 0 .022 0 .045-.022 0 0 .022-.022.022 0l.022-.022c.022-.022 0-.022 0-.022.022-.022.022-.022 0-.045zm-4.7 2.027c-.022 0-.022.022-.022.045a.069.069 0 0 0 .022-.045zm-.891-.245c0 .045 0 .045.022.045 0 .022 0 .022.022.022 0 .022.022.022.022 0h.025c.022 0 .022 0 .022-.022.022 0 .022 0 .022-.022v-.045c0-.022 0-.089-.022-.089-.022-.067-.045-.111-.156-.111v-.067c-.045 0-.045-.022-.067-.022-.022-.045-.045-.111-.134-.089l-.022.134a1.086 1.086 0 0 1 .245.089c-.111-.001 0 .155.022.177zm4.522-2.495a1.086 1.086 0 0 0 -.156-.067.208.208 0 0 0 -.111.156c.09.045.179 0 .268-.089zm-.022.691c0 .022 0 .045-.022.045 0 .022 0 .067-.022.067-.045-.022-.045.089 0 .089 0 .022 0 .045.022.045 0 .022 0 .022.022.022 0 .022.045.022.045 0 .022 0 .067 0 .067-.022.022 0 .022 0 .022-.022.022 0 .022-.022.022-.045.022 0 .022 0 .022-.022v-.045c-.022 0-.022-.045-.022-.067a1.42 1.42 0 0 0 -.156-.045zm1.47-.579c.022-.022.022-.022 0-.045.022-.022 0-.022 0-.022.022-.022 0-.022 0-.022.022-.022 0-.022-.022-.045.022-.022 0-.022-.022-.045l.022-.022c-.022-.067 0-.156-.089-.223a.293.293 0 0 0 -.223.067l-.022.223c-.022.022-.067.067-.045.089l-.022.022c-.067-.045-.156-.156-.223-.156-.022-.022-.045-.045-.067-.022-.022-.022-.022-.022-.045 0-.022-.022-.022-.022-.045 0-.022-.022-.022 0-.022 0-.022-.022-.022 0-.022 0-.022-.022-.022-.022-.045 0-.022-.022-.022-.022-.045 0-.022-.022-.022-.022-.045 0-.022-.022-.022 0-.022 0a.306.306 0 0 0 -.245.022c-.045.156.089.2.245.312-.022.022.022.045.045.067.089.156.267.022.379 0 .045 0 .022.022.045.045l.134-.067.022.022c.022-.022 0-.045 0-.067.022-.022 0-.022-.022-.045l.022-.022c.045.045.089-.022.089.045.067-.045.134-.022.178-.045.022.022.022 0 .045-.022.022.022.045 0 .067-.045zm-.557.557c-.022-.022 0-.045.022-.022 0 0 .022-.022.022 0 0-.022.022-.045 0-.089-.022 0-.022 0-.022-.022-.022 0-.022 0-.022-.022-.022 0-.067 0-.067-.022h-.134c0 .067-.111 0-.089.089h-.022c0 .022 0 .022-.022.022 0 .022 0 .022-.022.022 0 .022-.022.022-.022 0-.022 0-.045 0-.045-.022h-.067a.147.147 0 0 1 .022.134c0 .067-.045.089-.089.111 0 .089.067.111.134.156a1.214 1.214 0 0 0 -.423.178c-.022 0-.045 0-.045.022-.045 0-.045.022-.045.045-.067.045-.134.045-.134.156 0 .022 0 .022.022.022v.022c0 .022 0 .022.022.022 0 .022 0 .022.022.022 0 .022 0 .045.022.045 0 .022 0 .022.022.022 0 .045-.022.134.045.111-.022.045.089.045.089 0 .067 0 .067-.089.067-.156.022 0 .022-.022.022-.045a1.119 1.119 0 0 1 .267-.178c-.022 0-.022 0-.022-.022.022 0 .022-.022.022-.045a.946.946 0 0 1 .356-.468c0-.045.045-.022.089-.022.022-.045.022-.045.022-.067zm.757-1.893c.022.022.022 0 .022 0 .045.067.089 0 .111-.045-.022-.045-.045.022-.067 0 .022-.022.022-.022 0-.045a1.8 1.8 0 0 1 .668.067l-.245-.134c0-.089.067 0 .111-.067l-.022-.022-.022-.022s-.022.022-.022 0a.022.022 0 0 1 -.022-.022s-.022.022-.022 0l-.022-.022s-.022.022-.022 0l-.022-.022s-.022.022-.022 0l-.022-.022s-.022.022-.022 0l-.022-.022-.022-.022s-.022.022-.022 0l-.022-.022-.022.022c.045.045.067.045-.022.111a.9.9 0 0 0 -.245 0c.045.022.089.067.089.089l-.045.045c-.022-.022-.022 0-.022 0-.067 0-.089.111-.111.156.045.111.089.045.111 0zm-6.571 3.007c.045.045.134.089.178.022-.021-.068-.154-.134-.177-.023zm.312.067v-.045c-.043-.068-.11.066.001.044zm5.057-1.27a.621.621 0 0 0 -.29-.156c-.022-.022-.022 0-.022 0-.045-.045-.067.022-.089.045-.067 0-.111.134-.089.156s.045.022.045.045h-.022c0-.022 0-.022-.022-.022 0-.022.045-.022.089-.022 0 .022 0 .022.022.022 0 .022 0 .022.022.022 0 .022 0 .022.022.022 0 .022 0 .022.022.022v.022h.067c.022-.045.067.045.089.045.022.022.067.045.089.022v-.022c-.022-.111.045-.156.067-.2zm-.088-1.022c.022.022.022-.022.045-.022.022.022.067-.022.045-.045.022-.022 0-.022 0-.022.045-.045.111.045.156.067l.022.022.022.022.022.022c-.022.022 0 .022.022.022.022.022.045.045.067.022.022.022.022 0 .022 0 .022 0 .045 0 .089.045.022-.045.045-.045.067-.045.022.022.022 0 .022 0 .022.022.045-.022.067-.045.022.022.022 0 .022 0 .022.022.022 0 .045-.022.022.022.022 0 .022-.022.022-.022.022-.022 0-.045.067-.045-.067-.111-.089-.067-.022-.022-.045-.045-.067-.022-.022-.022-.022 0-.022 0-.022-.022-.022 0-.045.022a.082.082 0 0 1 -.067-.022c-.022-.022-.022 0-.022 0-.022-.022-.022-.022-.045 0h-.045c-.022-.022-.022 0-.022 0-.022-.022-.022 0-.022 0l-.022.022c-.022-.022-.045 0-.067 0l-.022-.022c-.2-.156-.423.134-.2.134zm-2.428 1.337c.022.067.178.089.223.045.022 0 .022 0 .022-.022.022 0 .022 0 .022-.022.022 0 .022-.067 0-.067 0-.022 0-.067-.022-.067s-.022 0-.022-.022c-.022 0-.022 0-.022-.022v-.022c-.067-.045-.111-.111-.2-.134-.111.089-.022.267-.111.4.067.089.067-.022.111-.067zm3.453-1.671c-.022.022 0 .022 0 .022l-.022.022c.045.045.045.089.111.156a.367.367 0 0 1 .446 0c.111-.2.022-.334-.156-.446-.089.045-.178.022-.245.089-.022-.022-.022 0-.022 0 0 .022-.022 0-.022 0-.022-.022-.022 0-.022 0-.022-.022-.089.067-.045.067-.022.022 0 .022 0 .022l-.022.022c-.022.022-.022.022 0 .045zm-2.05 1.734c-.022 0-.022-.045-.067-.045-.022.067.067.089.067.045zm2.361-2.072c-.089-.044.045.067 0 0zm-4.188 2.049c-.022 0-.045-.022-.089-.022a.167.167 0 0 0 -.022.111c.089.023.089-.066.111-.089zm-.6 1.693c.021 0-.001-.022-.001 0zm.29.089c0-.045-.134-.045-.134 0h-.045c0-.089-.089 0-.022.022.022.045-.067.067.022.067.022 0 .022 0 .022.022.022 0 .022 0 .022.022.022 0 .022.022.022.045h.086c0-.022.022-.022.045-.022-.022-.067-.022-.045 0-.111 0-.045 0-.045-.022-.045zm-.627-.178c.022.022.045.022.045 0 .067.022.089-.022.156-.022 0 .022.045.022.067.022 0 .045.134.045.111-.022.111-.178 0-.423-.2-.356 0 .134-.022.178-.2.156 0-.022-.022-.022-.045-.022l-.29-.245c0-.022 0-.067-.022-.067-.022-.223.089-.356-.022-.468-.022.089-.156.089-.156.223-.022 0-.022 0-.022.022a1.073 1.073 0 0 0 0 .267v.022c-.022 0-.022.022-.022.045-.022 0-.022.045-.022.067-.045-.022-.045.089 0 .089 0 .045.022.045.045.045.045.134-.089.245.045.312.134-.134.245-.111.379 0-.022-.089.134 0 .156-.067zm2.138-1.515.089-.356c.245.178.267-.111.468-.156.022-.045.022-.111.089-.156-.067-.022 0-.067-.045-.134-.067-.022-.111-.089-.178-.089a.319.319 0 0 1 .089.223c-.2.045-.379.134-.535.045-.045 0-.045-.045-.111-.022 0 .022 0 .022-.022.022h-.022c0 .022 0 .022-.022.022v.089c.045-.022.045.089 0 .089-.022.022.022.111-.022.111 0 .022 0 .067-.022.067-.045 0 0 .067-.022.111-.067.089.178.29.267.134zm-1.178.334c.022-.067-.022-.067-.022-.134-.223-.045-.312.334-.423.2 0-.022 0-.022-.022-.022 0-.022 0-.022-.022-.022 0-.022 0-.022-.022-.022 0-.022-.045-.022-.067-.022 0-.022-.067-.022-.067 0-.022 0-.022 0-.022.022-.022 0-.022 0-.022.022-.022 0-.022 0-.022.022v.022c-.022 0-.022.022-.022.045h-.027c.022.045-.045.134.045.134h.022v.022c-.089-.022-.089.045-.156.089-.089 0-.2-.045-.267 0v.089c.111.067.156-.067.29-.045 0 .045.045.067.089.089-.022.045.089.045.089 0 .045 0 0-.111.022-.156.022 0 .022 0 .022-.022s.022-.022.045-.022c.156 0 .156.178.312.156.089-.156.067-.4.245-.446zm4.277-.557c0 .022.045.022.067.022-.004-.043-.023-.021-.067-.021zm.267.557c.022 0 .022-.022-.004 0zm-6.059 1.6c0-.045.022-.045.022-.067a.145.145 0 0 0 -.2.045c-.022 0-.022 0-.022.022h-.022l-.134.111c-.022-.067-.2-.067-.134.022 0 .022 0 .022.022.022 0 .045-.111.022-.134.067-.022 0-.022 0-.022.022-.022 0-.022 0-.022.022-.022 0-.022 0-.022.022v.022c-.022 0-.022 0-.022.022.022.067.045.111.111.134 0-.089.045-.111.045-.156v-.045c.022 0 .022-.045.022-.067l.134-.022v-.067h.045c0 .089.089 0 .156.022 0 .022 0 .022.022.022 0 .022.022.022.045.022.022.045.134.022.156.045.045-.089-.045-.134-.045-.223zm3.586-1.225a.6.6 0 0 0 .067-.334c.022 0 .022-.022 0-.022-.022-.067-.045-.045 0-.111l-.089-.022c0-.022 0-.067-.022-.067v-.067c.045 0 .045-.022.045-.067.134 0 .067-.2.045-.245a.244.244 0 0 1 -.2-.045c-.045.022-.067.067-.111.111.067.022.022.089.045.178l-.134.067a.306.306 0 0 0 -.111-.178c0 .111-.111-.045-.156.045-.022 0-.045 0-.045.022-.089.045-.022.223 0 .267-.045.045-.134.045-.245.045 0-.022-.045-.022-.045 0h-.022a.166.166 0 0 0 -.2 0c0 .111.022.178.111.2 0 .022.045.022.067.022 0 .022.022.022.022 0 .022 0 .045 0 .045-.022.156-.067.29.067.423 0 .045 0 .045-.022.045-.045.022-.067.111-.067.2-.067.045.045.045.111.045.2-.022 0-.022.045-.022.067-.022 0-.022.045 0 .045-.022.111.156.045.156.134-.045.089-.134.134-.156.223.089.022.178.178.089.267a.355.355 0 0 0 -.156.2l.267-.178-.022-.089h.133c.067-.2.29-.245.29-.49-.134.067-.334.067-.356-.045zm-5.279 1.136h-.089c-.022.049.089.049.089.004zm1.938-2.027c-.022-.045-.022-.045-.045-.045 0-.022 0-.022-.022-.022.022-.045-.045-.022-.045-.067-.134.089-.29.156-.334.334-.045.111-.2.111-.312.067a.236.236 0 0 1 -.134.156h-.022c0-.022-.045-.022-.045 0h-.267a.687.687 0 0 0 .022.223.3.3 0 0 0 .2.045c0 .022 0 .022.022.022 0 .022.022.022.045.022 0 .022.045.022.067.022 0 .045.111.045.111 0 .022 0 .022 0 .022-.022.022 0 .045 0 .045-.022.022 0 .022 0 .022-.022.022 0 .045 0 .045-.022.022 0 .022 0 .022-.022.2-.111.446-.624.691-.312-.022-.022-.045-.022-.045.022-.022 0-.022.067 0 .067 0 .022.022.022.045.022h.045c.134.045-.022-.2.134-.156 0-.2-.245-.134-.267-.29zm-2.25 2.272c-.022 0-.045 0-.045-.022-.022 0-.067 0-.067-.022-.089-.022-.067.089-.134.111a.134.134 0 0 1 -.022.089c-.022.045.022.067.022.111l.067.022h.022c0-.022.022-.022.045-.022 0-.022.022-.022.067-.022 0-.022.022-.022.045-.022 0-.022.022-.022.045-.045 0-.022 0-.022.022-.022 0-.022 0-.022.022-.022a1.364 1.364 0 0 0 -.089-.134c.022.022 0 .022 0 0zm-2.116-1.047a.022.022 0 0 1 .022-.022c-.022.004-.022.004-.022.027zm-1.492-2.205c-.022-.022 0-.022 0-.067a.078.078 0 0 1 -.045-.022c0 .022 0 .045.022.045a2.073 2.073 0 0 0 .245.423c.022-.022.022-.045.022-.089.045-.156-.156-.223-.245-.29zm1.893 2.296c0-.022-.022-.022 0 0-.022-.045-.022-.045-.045-.045 0-.022-.022-.022-.045-.022 0-.022 0-.022-.022-.022 0-.022-.045-.022-.045 0h-.045c0-.111-.067-.022-.134-.067a.288.288 0 0 0 .045.178l.223.223v-.022c.022 0 .022-.022.022-.045.022 0 .022-.022.022-.045.045.022.045-.134.022-.134zm1.247.8c0 .045.045.067.067.089a.49.49 0 0 1 .178-.022c0 .022 0 .022.022.045a.169.169 0 0 0 .089-.045l-.178-.156a.2.2 0 0 0 -.178.089zm.78.512c0-.022 0-.045-.022-.045-.023.028 0 .05.022.05zm.022.022c0-.017-.022-.017 0 .005zm0-.646c.022 0 .022-.022.022-.067h-.045c.023.028.023.028.023.072zm-.022.022c.022 0 .045 0 .045-.022-.045.005-.045.005-.045.027zm-.869.134v-.044a.167.167 0 0 0 -.022.111h.067c-.023-.04-.023-.062-.045-.062zm.646.223a.851.851 0 0 0 .2.2.267.267 0 0 0 -.2-.267zm-.312-.045v-.111a.237.237 0 0 1 -.178-.022l-.134.022v.022c.045 0 0 .067.022.111.022 0 .022 0 .022.022.022 0 .045 0 .045.022.022 0 .022.022.022.045.022 0 .045 0 .045.022.022 0 .045 0 .045.022a.022.022 0 0 1 .022.022l.067.022c0-.045.022-.067.022-.089-.022-.067-.022-.111 0-.111zm.78-.29c.156-.022.134-.111.267-.156.089.022.089-.045.111-.089.045 0 .045-.022.045-.045.022 0 .022-.045 0-.045v-.022h.022c.022-.067-.134-.045-.134-.022-.022 0-.022 0-.022.022-.022 0-.045 0-.045.022-.022 0-.022 0-.022.022-.022 0-.022.022-.022.045-.022 0-.022 0-.022.022-.022 0-.045 0-.045.022-.022 0-.022 0-.022.022h-.134c0-.022-.022-.022-.045-.022 0-.022 0-.045-.022-.045.022-.156-.067-.223.022-.267-.111.022-.156-.022-.245-.045-.134.045-.245.2-.379.178-.022-.111-.067-.223-.089-.356-.067-.022-.089 0-.156 0 .022-.111-.156-.134-.178-.156v.045c-.045-.022-.045.089 0 .089l.134.045.022.2c.067 0 .111.067.134.134-.022 0-.022 0-.022.022v.022c-.022 0-.045 0-.045.022-.022 0-.067 0-.067.022-.022 0-.067 0-.067.022-.022 0-.045 0-.045.022-.022 0-.022 0-.022.022-.156 0-.156-.156-.379-.134-.022.067-.067.134 0 .178.022 0 .022.022.022.045.022 0 .045 0 .045.045.022 0 .022 0 .022.022.022 0 .022 0 .022.022.022-.022.089 0 .111.022.022 0 .045 0 .045.022.022 0 .022 0 .022.022.022 0 .045 0 .045.022a.022.022 0 0 1 .022.022.969.969 0 0 1 .089-.156 1.086 1.086 0 0 1 .156.067.309.309 0 0 1 .2 0 .168.168 0 0 1 -.022.178c.022.022.045.022.045.045v.022c.022 0 .067 0 .067.022.022 0 .045 0 .045.022.022 0 .022 0 .022.022l.045.022-.134-.178c.045-.045 0-.156.089-.156 0-.022 0-.022.022-.022a.333.333 0 0 1 .156-.067.134.134 0 0 1 .089.022h.05v-.045c.022 0 .022.022.022.045.045 0 .067 0 .067.022.022 0 .022 0 .022.022.022 0 .022 0 .022.022.022 0 .045 0 .067.045 0-.022.022-.022 0 0zm-.356-.067c0 .022 0 .045.022.045 0-.017 0-.039-.022-.039zm5.836-1.114c0-.022-.022-.022 0 0-.045 0-.022.022 0 0-.023.049 0 .028 0 .006zm-3.809 1.158c-.022 0-.022.022-.022.045.022.006.022-.016.022-.039zm0 .111c0 .022 0 .067.022.067 0-.038 0-.06-.022-.06zm0 .067c0 .022 0 .067.022.067 0-.038.022-.06-.022-.06zm0-.067v-.06a.033.033 0 1 0 0 .067zm.134.2c.045.067.134.2.223.156-.09-.037-.112-.149-.225-.149zm-.111-.089c0 .045.022.045.045.045-.002-.015-.024-.015-.046-.038zm.535.267c-.045-.022-.134-.111-.178-.045.178 0 .089.156.2.2-.023-.036-.09-.081-.023-.147zm-.49-.223c0 .022.022.022.045.022-.002-.014-.024-.014-.047-.014zm-5.19-3.119a.1.1 0 0 0 -.156-.111c-.156.022-.089.312-.022.423 0 .022 0 .022.022.022-.022.067.045.045.089.045a.135.135 0 0 0 .178-.022c.022-.134-.045-.178-.089-.245 0-.045.022-.111-.022-.111zm.045.691c0 .045 0 .089.045.089 0-.022.022-.045.022-.089zm.156.045c.111-.022.134 0 .223-.067a.167.167 0 0 0 -.156-.134c.022.067-.067.022-.089.067.042.074-.025.097.02.142zm.512.423a.254.254 0 0 0 -.134-.067h-.067c-.045-.045-.156 0-.223-.022 0-.022-.022-.022-.022 0-.022 0-.022.022-.022.045-.022 0-.022.022-.022.045-.022 0-.022 0-.022.022-.022 0-.022 0-.022.022-.022 0-.022.022 0 .022v.067c-.067-.022-.022.045 0 .045 0 .022 0 .022.022.022 0 .022 0 .067.022.067s.045 0 .045.022h.086c0-.022.022-.022.045-.022.045-.022.111-.022.134-.089.022 0 .045 0 .045-.022a.116.116 0 0 0 .089-.045c.022 0 .022 0 .022-.022.022 0 .022 0 .022-.022.022 0 .022 0 .022-.022 0 .006 0-.038-.022-.038zm2.918 1.893c-.134 0-.223.134-.156.2.223.022.29.178.468.178 0-.045 0-.067.022-.089a1.011 1.011 0 0 1 -.336-.281zm-3.987-3.653-.045-.022c-.022 0-.022 0-.022-.022h-.023c-.022 0-.022 0-.022.022-.045 0-.045.022-.045.045-.022 0-.022 0-.022.022v.022c-.045-.022-.045.089 0 .089 0 .022 0 .022.022.022 0 .022 0 .022.022.022 0 .022.045.022.045 0h.022c0-.022 0-.022.022-.022 0-.022 0-.022.022-.022s.022 0 .022-.022 0-.022.022-.022v-.067c-.022 0-.045-.022-.022-.045zm1.582 3.1.089.067v-.067c-.069.026-.092.004-.092.004zm-1.158-1.292c-.022-.045-.022-.045-.045-.045l.067.089c-.003-.018-.003-.04-.025-.04zm7.6 1.247v.067c.067 0 .111 0 .111-.067a.1.1 0 0 0 -.118.005zm-.757-.334c.022 0 0-.022 0 0-.022-.045-.022-.045-.045-.045-.067-.022-.2-.022-.2-.156 0-.022 0-.022-.022-.022 0-.022 0-.067-.022-.067 0-.022 0-.022-.022-.022 0-.022-.045-.022-.067-.022 0-.022-.045-.022-.045 0-.022 0-.045 0-.045.022-.022 0-.022 0-.022.022h-.022c-.022 0-.022 0-.022.022h-.022c-.022 0-.022 0-.022.022-.045 0-.067 0-.067.045-.022 0-.022 0-.022.022-.045 0-.045.111 0 .111 0 .022 0 .045.022.045 0 .022 0 .045.022.045l.089.134c.045.089 0 .156-.134.134 0 .045-.045.045-.022.111.045.045.089-.022.156 0 .022-.067.022-.134.089-.156 0 .045.111.045.111 0l-.022-.089c.022 0 .022 0 .022-.022.089-.022.067.089.067.156a.49.49 0 0 0 .312-.045c-.022-.022.045-.223-.045-.245zm.379-.379c0-.022-.045-.022-.045 0l-.156.022c-.067-.022-.111-.156-.178-.111-.045.223.223.29.356.4.022-.067.156-.156.089-.267-.022-.045-.045-.045-.067-.045zm-.913 1.381v.067c.037.027.037-.062-.008-.062zm1.715-1.247c0-.022-.045-.022-.067-.022 0-.022-.045-.022-.045 0-.111.022-.156-.022-.223.045-.111 0-.2.022-.2.134.111.045.156.156.334.156-.022-.067.022-.045.022-.111.111 0 .267-.067.223-.156 0-.045-.022-.045-.045-.045zm-1.638 1.296c.045 0 0 .111.067.111.049-.044-.018-.155-.067-.111zm-.089-.446c-.022 0-.067 0-.067.022h-.022c0 .045-.022.134.045.111 0 .022.022.022.022 0 .048-.021.004-.114.026-.132zm3.052-1.359c0-.022-.045-.022-.045 0-.022 0-.022.022 0 .022.004.024.049.024.049-.021zm-.936-.267c.049.068.049-.088.004.001zm-3.027 1.939c0 .022.024.022 0 0zm.379.468.111-.022h.022a.142.142 0 0 0 0-.134.2.2 0 0 1 -.134.156zm-.356-.624c-.022 0-.022.022-.022.045.023-.001.023-.023.023-.045zm-.023.156v-.134c-.021.022-.021.156 0 .134zm.067-.178c-.022 0-.045 0-.045.022.024 0 .047 0 .047-.023zm.067.245a.549.549 0 0 0 .379.223.406.406 0 0 0 -.378-.223zm-.111-.045c.001.022.023.022.001 0zm.022.022c0 .022.045.022.089.022.001-.022-.043-.022-.088-.022zm-4.277-1.426c0 .022.045.022.067.022a.082.082 0 0 0 -.066-.021zm1.225-.2c-.022 0-.022.022-.022.045s0 .045-.022.045c0 .022 0 .045-.022.045v.067c.022 0 .067 0 .067.022h.022c0-.022.022-.022.045-.045v-.022c-.022 0-.022-.022 0-.022v-.067a.167.167 0 0 1 .022-.111c-.045.022-.111 0-.089.045zm0-.067a.082.082 0 0 0 .067-.022.082.082 0 0 0 -.065.022zm-.045-.334c.024-.089-.065 0 .002 0zm1.2.6a.128.128 0 0 0 .089-.134c-.067-.067-.156 0-.2.022.004.069.027.114.116.114zm-.134-.111c.005-.021-.014 0 .005 0zm-1.314-.823c.089-.022.111.022.178.022l-.022-.089c-.067-.022-.156.022-.223.045.022.045-.022.111.022.134v.022c.022 0 .022 0 .045.022a.188.188 0 0 1 0-.156zm-.067.045v-.045c.022 0 .022 0 .022-.022.045 0 .028.089-.017.067zm.223.624c-.067.045-.134-.022-.156.045-.022 0-.022.022-.022.045-.022 0-.022 0-.022.022-.045 0-.045.022-.045.045h-.022c.022.089-.022.045-.022.156.272.087.405-.18.294-.314zm.8.2h.045c0 .045.134.045.111-.022.134.022.156-.089.178-.178.022 0 .022-.022.022-.045.022 0 .022-.045.022-.067.022 0 .022-.067 0-.067 0-.022 0-.022-.022-.022 0-.022 0-.045-.022-.045 0-.022 0-.022-.022-.022 0-.022 0-.022-.022-.022 0-.022 0-.022-.022-.022 0-.022-.067-.067-.045 0-.045 0-.045.022-.045.045-.134.022-.2.134-.178.312-.045.022-.045.156 0 .156zm-.757-.646v-.2h-.022a.082.082 0 0 0 .022.067.259.259 0 0 1 -.223.045c0 .045.045.067.089.089 0-.022 0-.022.022-.022v.021zm.067.178c0-.022 0-.067-.022-.067l.022.334h.022c0-.022.045-.022.067-.022a.246.246 0 0 1 .178 0c0 .022.045.022.045 0 .022 0 .022 0 .022-.022a1.424 1.424 0 0 0 .223-.49c.022 0 .022 0 .022-.022.156-.067-.156-.089-.178-.045-.045.022-.111-.022-.134.022h-.022c-.022.089-.134.067-.111.178-.022 0-.022.022-.022.045-.089-.022-.067.045-.111.089zm1.136 1.27c.022-.178.334-.178.334-.312-.022.045-.045-.067-.045-.111a.449.449 0 0 0 -.4.423c0-.022 0-.045.022-.045-.013.067.051.022.095.045zm1.559-.958c.029 0 .007-.022.007 0zm.423-.512c.007.022-.015-.001.007-.001zm-.045-.022c-.022.067 0-.067-.067-.022l-.022.156c.067 0 .156-.067.089-.134zm-1.639 2.044c-.045.022-.045.089-.022.089.045.089.134-.045.067-.089-.003-.062-.045-.04-.045 0zm2-1.849c.022 0 .022-.022 0 0 .045-.022.045-.022.045-.045.022 0 .022 0 .022-.022.022 0 .022 0 .022-.022.045 0 .045-.022.045-.067a.109.109 0 0 0 -.067-.178c-.022 0-.022 0-.022-.022v-.022a.553.553 0 0 0 -.2-.022.556.556 0 0 0 0 .423c-.022.067.178.045.156-.022zm-4.567.579c.045 0 .045-.022.045-.045a.048.048 0 0 0 -.042.05zm2.651.111c.003.028-.019.005.003.005zm-2.718-.134v-.067a.033.033 0 1 0 .003.073zm0-.111c-.022 0-.022.022-.022.045.025.005.025-.018.025-.041zm.022-.045c-.022 0-.022.022-.022.045.026.004.026-.017.026-.039zm-.624-1c-.045 0-.045.111.022.089.022.111.111-.022.156-.022.022-.089-.134-.156-.178-.067zm.713 1.025v.067c.023.003.023-.064.004-.064zm-.4-.824c-.022.045-.022.045-.022.067a.036.036 0 1 0 .025-.064zm.49-.29v-.062c-.022 0-.022-.022-.022-.045-.022 0-.022 0-.022-.022h-.023c0 .022-.022.022-.022 0h-.111c-.045.045-.089.067-.089.156a.17.17 0 0 0 .2.045c0-.022 0-.022.022-.022a.171.171 0 0 1 .067-.045zm.356 2.294c.045 0 .089.045.134 0l-.022-.089c-.086-.019-.109.026-.109.093zm-.223-1.868c0 .022 0 .045.022.045l.156.4c.379 0 .2-.668-.134-.579 0 .022 0 .022-.022.022 0 .022 0 .022-.022.022 0 .022 0 .022-.022.022 0-.045 0 .067.022.067zm.178.646c-.045-.022-.067 0-.089.022-.022 0-.022 0-.022.022-.022 0-.022 0-.022.022-.022 0-.022 0-.022.022-.045 0 0 .067-.022.111.022.022.045.022.089.022v.022l.089.022c.022.067.156.045.2.022.022-.178-.089-.223-.2-.29zm-.334-.045c0 .022.022.022.045.022.003-.021-.019-.021-.041-.021zm-.067.178c.023.023.023.001.004.001zm.245-.178c-.022 0-.045 0-.045.022zm-.045.022h-.089c-.018.023.093.023.093.001z" fill="#3d2f30"/></g><path d="m22.1 23.2a10.818 10.818 0 0 1 -4.656 2.228 6.754 6.754 0 0 1 -1.158.29c-.267 0-.512-.089-.824-.089a6.166 6.166 0 0 1 -1.114 0c-.4-.067-1.092-.468-1.693-.668-.334-.111-.646-.089-.913-.2a2.182 2.182 0 0 1 -1.069-1.025 3.143 3.143 0 0 1 .869-2.807c.134-.089.29-.089.446-.2.29-.2.446-.512.668-.624.178-.089.379-.111.579-.2.49-.223.936-.579 1.448-.824a6.1 6.1 0 0 1 2.072-.446c1.648-.156 3.208-.579 4.7-.668.78-.045.846.2 1.4.446l.49.089c.111.067.29.245.446.334.223.134.4.134.49.245a1.656 1.656 0 0 1 .2 1.114c-.045.223-.267.379-.49.624-.178.2-.29.49-.446.668-.446.6-1.158 1-1.448 1.715z" fill="#6c4317"/><path d="m22.1 23.071a10.818 10.818 0 0 1 -4.653 2.229 6.754 6.754 0 0 1 -1.158.29c-.267 0-.512-.089-.824-.089a6.166 6.166 0 0 1 -1.114 0c-.4-.067-1.092-.468-1.693-.668-.334-.111-.646-.089-.913-.2a2.182 2.182 0 0 1 -1.069-1.025 3.21 3.21 0 0 1 .869-2.829c.134-.089.29-.089.446-.2.29-.2.446-.512.668-.624.178-.089.379-.111.579-.2.49-.223.936-.579 1.448-.824a6.1 6.1 0 0 1 2.072-.446c1.648-.156 3.208-.579 4.7-.668.78-.045.846.2 1.4.446l.49.089c.111.067.29.245.446.334.223.134.4.134.49.245a1.656 1.656 0 0 1 .2 1.114c-.045.223-.267.379-.49.624-.178.2-.29.49-.446.668-.446.624-1.158 1.025-1.448 1.738z" fill="#a3b34f"/><path d="m17.8 18.75a28.246 28.246 0 0 1 3.052-.49 2.522 2.522 0 0 1 1.648.446c.535.267 1.381.668 1.2 1.559a8.663 8.663 0 0 1 -.735 1.114c-.178.223-.535.423-.78.735-.312.379-.535.8-.78 1.025-.156.134-.379.156-.579.29-.29.2-.49.512-.824.668a4.157 4.157 0 0 0 -.49.156 6.822 6.822 0 0 1 -1.4.624 4.281 4.281 0 0 1 -.535 0 11 11 0 0 1 -1.158.29 8.162 8.162 0 0 1 -1.648-.045c-.178-.022-.334-.2-.579-.29-1.27-.423-3.141-.4-2.807-2.428a4.66 4.66 0 0 1 .379-.735c.111-.223.111-.468.2-.579.111-.156.4-.267.624-.446a5.055 5.055 0 0 1 1.559-.913l3.653-.98z" fill="#dde072"/><path d="m18.2 18.861c2.473-.891 5.814.735 4.121 2.9a7.761 7.761 0 0 1 -1.158 1.114 3.694 3.694 0 0 1 -.735.334 9.262 9.262 0 0 1 -1.849.869 18.8 18.8 0 0 1 -2.428.334c-.312.045-.6.178-.913.2a3.17 3.17 0 0 1 -2.985-1.158c-.512-.891.512-2.094 1.069-2.317z" fill="#eaeca2"/><path d="m21.234 21.311a3.3 3.3 0 0 0 -.958-1.648 6.236 6.236 0 0 0 -1.359-.824 1.886 1.886 0 0 0 -.379-.089 4.12 4.12 0 0 0 -3.652 1.05c-.178.134-.334.29-.334.423a.022.022 0 0 1 -.022.022c-.022 0-.045.045-.134.089-.557.446-.891 1.96-.579 2.317a1.418 1.418 0 0 0 .29.245 6.218 6.218 0 0 0 2.629.936h.958a1.085 1.085 0 0 0 .267-.022 2.156 2.156 0 0 0 .267-.045c1.313-.204 3.072-1.139 3.006-2.454z" fill="#6c4317"/><path d="m16.734 23.851a6.534 6.534 0 0 1 -2.629-.936 1.418 1.418 0 0 1 -.29-.245 2.439 2.439 0 0 1 .579-2.317c.111-.089.134-.111.156-.089-.067-.29.8-.8.958-.78-.178.089-.223.045-.379.29.356-.134.646-.245.913 0 .178 0 .2-.2.29-.29.022-.178-.111-.178-.089-.334.178 0 .245.156.379.2.067-.045.134-.512-.045-.49a1.177 1.177 0 0 1 .379-.089c.089.045-.022.045-.089.045-.2.312-.045.824.379.78.134-.134 0-.557.334-.49-.045.156.045.178.045.29a5.328 5.328 0 0 0 1.069-.535c0 .089 0 .446.2.49-.111.468-.245.891-.735.958-.022.356.067.824-.245.869-.045-.334.134-.646 0-.913-.29.045-.312.334-.446.535h-.379c.356.178-.557.557-.089.958.2-.067.535-.267.735-.045a.392.392 0 0 1 -.2.29c.089.111.223.178.245.334.067 0 .089-.2.089 0 .067-.045.067-.156.156-.2.223.245.356-.089.535.156.111-.089.022-.356-.089-.379.045-.2.223 0 .29-.089.045-.245-.156-.245-.156-.446.067-.067.2-.045.334-.045-.067.267.089.29.2.379 0 .156-.134.178-.089.379.067.111.245.045.156.245h.2c.067-.2.2-.29.334-.535-.111-.111-.045-.446-.2-.535a.3.3 0 0 1 .379-.2c.045.29-.111.4-.2.579.111.134.334.067.49.245.089 0 .067-.134.2-.089l-.089-.245c-.045.045-.111.045-.2.045.045-.178.446-.223.334-.379.2-.2.557.067.624.29-.089.045-.356.29-.089.334a2.868 2.868 0 0 1 -.824 1.069.464.464 0 0 0 -.334-.156.8.8 0 0 1 -.731.24 1.143 1.143 0 0 1 -.334.579.322.322 0 0 0 -.156-.045.568.568 0 0 1 .045-.29 1.583 1.583 0 0 0 -.98.6h-.936zm-1.934-3.451c-.089-.022 0-.067 0-.156-.156.045-.267.379-.245.446.089-.089.111-.223.2-.29-.003.02.019.043.045 0z" fill="#633c11"/><path d="m30.768 23.272v-.2a.617.617 0 0 0 -.022-.2l-.022-.2v-.045l-.024-.157a.082.082 0 0 0 -.022-.067l-.022-.134a.082.082 0 0 0 -.022-.067.965.965 0 0 0 -.022-.111l-.022-.067c-.022-.045-.022-.089-.045-.111 0-.022 0-.045-.022-.045a.413.413 0 0 1 -.045-.156c-.156-.423-.49-.735-.624-1.158a8 8 0 0 0 -.245-.913c-.223-.49-.691-.869-.958-1.359a5.429 5.429 0 0 1 -.312-.624 5.507 5.507 0 0 0 -.6-.98 7.262 7.262 0 0 0 -.739-.69 8.538 8.538 0 0 0 -2.027-1.114 5.9 5.9 0 0 0 -2.272-.446 6.447 6.447 0 0 0 -1.515.2 6.078 6.078 0 0 0 -1.225.4 6.292 6.292 0 0 0 -1.671 1.247 9.3 9.3 0 0 0 -1.314 1.337 1.841 1.841 0 0 0 -.156.29l-.134.334a.524.524 0 0 0 -.045.178h.111l.423-.045.134-.045.958-.111.8-.134a18.559 18.559 0 0 1 2.384-.334h.178a1.364 1.364 0 0 1 .668.134 3.358 3.358 0 0 1 1.6.757 1.9 1.9 0 0 1 .535.2c.691 1.27-.134 2.651-.668 3.542-.111.356-.512.4-.668.735-.2.379-.156.936-.49 1.27-.178.267-.535.356-.624.691-.156.111-.4.089-.423.312v.089a19.783 19.783 0 0 0 2.571 1.025 7.861 7.861 0 0 0 3.052.668c.4-.022.49-.2.78-.334.2-.089.446-.134.579-.2a6.017 6.017 0 0 0 1.069-.958 4 4 0 0 0 .958-1.114 2.7 2.7 0 0 0 .223-1.2c-.022-.067-.022-.067-.022-.089z" fill="#6c4317"/><path d="m30.5 21.712c-.156-.423-.49-.735-.624-1.158a8 8 0 0 0 -.245-.913c-.223-.49-.691-.869-.958-1.359a10.3 10.3 0 0 0 -.913-1.6 7.3 7.3 0 0 0 -2.76-1.782 5.887 5.887 0 0 0 -3.787-.245 5.312 5.312 0 0 0 -2.9 1.648c-.691.646-1.426 1.136-1.648 2.138h.111l.423-.045.134-.045.958-.111.8-.134a18.559 18.559 0 0 1 2.384-.334h.178a1.364 1.364 0 0 1 .668.134 3.358 3.358 0 0 1 1.6.757 1.9 1.9 0 0 1 .535.2c.691 1.27-.134 2.651-.668 3.542-.111.356-.512.4-.668.735-.2.379-.156.936-.49 1.27-.178.267-.535.334-.624.668-.134.156-.423.067-.446.334a19.783 19.783 0 0 0 2.562 1.025 7.861 7.861 0 0 0 3.052.668c.4-.022.49-.2.78-.334.2-.089.446-.134.579-.2a6.017 6.017 0 0 0 1.069-.958 4 4 0 0 0 .958-1.114 4.107 4.107 0 0 0 -.067-2.784z" fill="#a3b34f"/><path d="m29.432 20.688c-.134-.312-.134-.646-.245-.913-.2-.468-.668-.846-.913-1.314a7.328 7.328 0 0 0 -.914-1.561 7.36 7.36 0 0 0 -3.987-2.027 6.56 6.56 0 0 0 -4.7 1.738c-.579.579-1.225.98-1.359 1.693l.958-.111.8-.134a18.559 18.559 0 0 1 2.384-.334h.178a1.364 1.364 0 0 1 .668.134 3.358 3.358 0 0 1 1.6.757 1.9 1.9 0 0 1 .535.2c.691 1.27-.134 2.651-.668 3.542-.111.356-.512.4-.668.735-.2.379-.156.936-.49 1.27-.178.267-.557.334-.646.691 0 .022-.067.067-.067.067-.022 0 .045.022.089.022a20.675 20.675 0 0 0 4.259 1.357 3.557 3.557 0 0 0 2.138-.535 2.9 2.9 0 0 0 .446-.334 3.941 3.941 0 0 0 1.4-2.384 5.278 5.278 0 0 0 -.8-2.562z" fill="#dde072"/><path d="m28.028 19.485a9.568 9.568 0 0 0 -4.3-3.185 4.98 4.98 0 0 0 -4.01.78 2.061 2.061 0 0 0 -.624.824c0 .022-.111.156-.022.2h.045a18.559 18.559 0 0 1 2.383-.334h.178a1.364 1.364 0 0 1 .668.134 3.358 3.358 0 0 1 1.6.757 1.9 1.9 0 0 1 .535.2c.691 1.27-.134 2.651-.668 3.542-.111.356-.512.4-.668.735-.2.379-.156.936-.49 1.27a3.8 3.8 0 0 0 1.2.49 3.739 3.739 0 0 0 2.384.49 2.909 2.909 0 0 0 1.693-1.359 2.873 2.873 0 0 0 .668-1.27 5.211 5.211 0 0 0 -.572-3.274z" fill="#eaeca2"/><path d="m25.533 19.418a.144.144 0 0 0 -.045-.111 4.016 4.016 0 0 0 -.178-.468 2.3 2.3 0 0 0 -.646-1 3.118 3.118 0 0 0 -1.693-.824h-.871a2.224 2.224 0 0 0 -1.448.446 2.01 2.01 0 0 0 -.423.312.363.363 0 0 0 -.067.134c.446-.067.913-.134 1.337-.156h.178a1.442 1.442 0 0 1 .869.245 2.225 2.225 0 0 0 .4.2c.045.022.134.022.2.045a.686.686 0 0 1 .29.067 1.561 1.561 0 0 1 .223.178 1.561 1.561 0 0 0 .223.178 2.171 2.171 0 0 0 .245.111.535.535 0 0 1 .267.156 1.769 1.769 0 0 1 .245.98 1.8 1.8 0 0 1 -.022.356.591.591 0 0 1 -.2.334 3.478 3.478 0 0 1 -.6 1.782 9.588 9.588 0 0 0 1.183-.559 3.377 3.377 0 0 0 .533-2.406z" fill="#949952"/><path d="m24.91 18.126a.071.071 0 0 1 -.067.067c-.446-.178-.8-.668-1.27-.512a.718.718 0 0 1 -.757-.245 2.1 2.1 0 0 0 -.223-.089c-.334-.156-.356-.067-.356-.067.045.111.223.067.245.134-.089.111-.245.022-.29-.134 0-.022-.089 0-.089 0s-.846.089-.846.446c-.111-.134-.4-.022-.334.067a5.485 5.485 0 0 1 .579-.045h.178a1.442 1.442 0 0 1 .869.245 2.225 2.225 0 0 0 .4.2c.045.022.134.022.2.045a.686.686 0 0 1 .29.067 1.561 1.561 0 0 1 .223.178 1.561 1.561 0 0 0 .223.178 2.171 2.171 0 0 0 .245.111.535.535 0 0 1 .267.156 1.459 1.459 0 0 1 .223.646 6.409 6.409 0 0 1 .98.691v.135a3.223 3.223 0 0 0 -.691-2.272z" fill="#b0ad51"/></svg>