<svg xmlns="http://www.w3.org/2000/svg" viewBox="0 0 32 32"><title>folder_type_meteor_opened@2x</title><g id="folder_opened_meteor"><path d="M27.4,5.5H18.2L16.1,9.7H4.3V26.5H29.5V5.5Zm0,18.7H6.6V11.8H27.4Zm0-14.5H19.2l1-2.1h7.1V9.7Z" style="fill:#db7b7b"/><polygon points="25.7 13.7 0.5 13.7 4.3 26.5 29.5 26.5 25.7 13.7" style="fill:#db7b7b"/><path d="M10,10.4l18,19a.84.84,0,0,0,1.08-.07.8.8,0,0,0,.11-1L10,10.4Z" style="fill:#fff"/><path d="M15.68,12.21,29.38,27a.84.84,0,0,0,1.08-.07.8.8,0,0,0,.11-1L15.68,12.21Z" style="fill:#fff"/><path d="M11.68,16.06l13.7,14.76a.84.84,0,0,0,1.08-.07.8.8,0,0,0,.11-1L11.68,16.06Z" style="fill:#fff"/><path d="M20.5,13.75l9.57,10.32a.59.59,0,0,0,.76-.05.56.56,0,0,0,.08-.7L20.5,13.75Z" style="fill:#fff"/><path d="M13,20.52l9.57,10.32a.59.59,0,0,0,.76-.05.56.56,0,0,0,.08-.7L13,20.52Z" style="fill:#fff"/><path d="M25.42,16l4.34,4.69a.3.3,0,0,0,.37,0,.25.25,0,0,0,0-.33L25.42,16Z" style="fill:#fff"/><path d="M15.4,25.28,19.73,30a.3.3,0,0,0,.37,0,.25.25,0,0,0,0-.33L15.4,25.28Z" style="fill:#fff"/></g></svg>