<svg xmlns="http://www.w3.org/2000/svg" viewBox="0 0 32 32"><title>folder_type_template</title><path d="M27.5,5.5H18.2L16.1,9.7H4.4V26.5H29.6V5.5Zm0,4.2H19.3l1.1-2.1h7.1Z" style="fill:#bf8e55"/><path d="M29.025,14.38H11.974A1.978,1.978,0,0,0,10,16.354V29.029A1.978,1.978,0,0,0,11.974,31H29.025A1.978,1.978,0,0,0,31,29.026V16.354A1.979,1.979,0,0,0,29.025,14.38Z" style="fill:#675f58"/><path d="M29.925,29.026a.905.905,0,0,1-.9.9H11.974a.905.905,0,0,1-.9-.9V17.62h18.85V29.026Z" style="fill:#ccc"/><rect x="14.9" y="24.446" width="2.8" height="2.8" style="fill:#ff931e"/><rect x="14.9" y="20.246" width="2.8" height="2.801" style="fill:#ff931e"/><rect x="19.1" y="20.246" width="2.8" height="2.801" style="fill:#ff931e"/><rect x="23.3" y="20.246" width="2.8" height="2.801" style="fill:#ff931e"/><rect x="19.1" y="24.446" width="2.8" height="2.8" style="fill:#ff931e"/><rect x="23.3" y="24.446" width="2.8" height="2.8" style="fill:#ff931e"/></svg>