<svg xmlns="http://www.w3.org/2000/svg" viewBox="0 0 32 32"><title>folder_type_script</title><path d="M27.5,5.5H18.2L16.1,9.7H4.4V26.5H29.6V5.5Zm0,4.2H19.3l1.1-2.1h7.1Z" style="fill:#686868"/><path d="M16.012,10H27.654a3.141,3.141,0,0,1,1.913.817A4.73,4.73,0,0,1,30.93,13.65c.03.212.048.425.07.639v.368a.7.7,0,0,1-.306.491,1.2,1.2,0,0,1-.678.1H28.379q-.009,6.069,0,12.138a3.574,3.574,0,0,1-.532,1.888A3.629,3.629,0,0,1,25.96,30.8a4.359,4.359,0,0,1-.972.2H13.92a4.035,4.035,0,0,1-2.216-.8,4.481,4.481,0,0,1-1.6-2.7c-.054-.258-.076-.522-.107-.784V26.3a.728.728,0,0,1,.3-.454,1.11,1.11,0,0,1,.639-.1h1.681V13.606A3.588,3.588,0,0,1,13.744,11a3.648,3.648,0,0,1,2.268-1" style="fill:#333"/><path d="M14.092,12.777a4.57,4.57,0,0,0-.154,1.653V25.748c2.434.006,4.868,0,7.3,0a.65.65,0,0,1,.587.433,2.992,2.992,0,0,1,.051.572,3.417,3.417,0,0,0,1.038,2.278,2.662,2.662,0,0,0,1.806.652,2.3,2.3,0,0,0,2.338-2.252q0-.024,0-.048V13.889a1.953,1.953,0,0,1,.03-.466,4.574,4.574,0,0,1,.569-1.4,2.212,2.212,0,0,1,.673-.719q-6.051-.007-12.1,0A2.307,2.307,0,0,0,14.092,12.777Z" style="fill:gray"/><path d="M18.008,16.819a.7.7,0,0,1,.607-.258.656.656,0,0,1,.582.723q0,.028-.009.056c-.045.256-.268.415-.437.591-.638.641-1.293,1.265-1.924,1.912.654.666,1.327,1.313,1.986,1.974a1.046,1.046,0,0,1,.375.53.658.658,0,0,1-.466.761.649.649,0,0,1-.629-.158c-.885-.865-1.757-1.744-2.64-2.611a.665.665,0,0,1-.043-.939l.005-.006Q16.709,18.1,18.008,16.819Z" style="fill:#333"/><path d="M21.812,17.176a.658.658,0,0,1,.574-.609.672.672,0,0,1,.547.188q1.3,1.286,2.595,2.573a.674.674,0,0,1,.011,1.043q-1.258,1.244-2.512,2.491a.767.767,0,0,1-.475.277.656.656,0,0,1-.719-.479.664.664,0,0,1,.182-.646c.724-.722,1.456-1.434,2.174-2.162-.711-.713-1.43-1.418-2.146-2.126A.687.687,0,0,1,21.812,17.176Z" style="fill:#333"/></svg>