<svg viewBox="0 0 32 32" xmlns="http://www.w3.org/2000/svg" xmlns:xlink="http://www.w3.org/1999/xlink"><linearGradient id="a" gradientTransform="matrix(189.38 0 0 -189.81 25054.681 44783.902)" gradientUnits="userSpaceOnUse" x1="-132.23" x2="-132.18" y1="235.872" y2="235.822"><stop offset="0" stop-color="#387eb8"/><stop offset="1" stop-color="#366994"/></linearGradient><linearGradient id="b" gradientTransform="matrix(189.38 0 0 -189.81 25120.681 44848.152)" gradientUnits="userSpaceOnUse" x1="-132.549" x2="-132.492" y1="236.178" y2="236.128"><stop offset="0" stop-color="#ffe052"/><stop offset="1" stop-color="#ffc331"/></linearGradient><path d="m27.4 5.5h-9.3l-2.1 4.2h-11.7v16.8h25.2v-21zm0 4.2h-8.2l1.1-2.1h7.1z" fill="#58af7b"/><path d="m20.918 11.009c-5.072 0-4.751 2.206-4.751 2.206v2.293h4.823v.719h-6.744s-3.246-.402-3.246 4.773 2.866 4.968 2.866 4.968h1.655v-2.412a2.721 2.721 0 0 1 2.786-2.884h4.83a2.583 2.583 0 0 0 2.694-2.626v-4.378s.409-2.668-4.887-2.668zm-2.666 1.536a.872.872 0 1 1 -.845.894v-.014a.87.87 0 0 1 .867-.873z" fill="url(#a)"/><path d="m21.061 31c5.071 0 4.75-2.214 4.75-2.214v-2.286h-4.822v-.72h6.765s3.246.365 3.246-4.78-2.866-4.968-2.866-4.968h-1.677v2.384a2.721 2.721 0 0 1 -2.786 2.884h-4.832a2.586 2.586 0 0 0 -2.7 2.627v4.408s-.405 2.665 4.891 2.665zm2.665-1.544a.872.872 0 1 1 .845-.894v.022a.869.869 0 0 1 -.867.872z" fill="url(#b)"/></svg>