<svg version="1.1" viewBox="0 0 32 32" xmlns="http://www.w3.org/2000/svg"><title>folder_type_cargo</title><g display="none" fill="#cd7b05"><path d="m27.4 5.5h-9.2l-2.1 4.2h-11.8v16.8h25.2v-21zm0 18.7h-20.8v-12.4h20.8zm0-14.5h-8.2l1-2.1h7.1v2.1z" display="inline"/><polygon points="4.3 26.5 29.5 26.5 25.7 13.7 0.5 13.7" display="inline"/></g><path d="m27.347 5.5256h-9.3l-2.1 4.2h-11.7v16.8h25.2v-21zm0 4.2h-8.2l1.1-2.1h7.1z" fill="#8c6823"/><g transform="matrix(.68399 0 0 .68399 10.911 9.3764)"><path d="m14.261 29.519-7e-3 -0.457 12.926-5.511 2.038 0.288-0.012 0.385-12.942 6.334z" fill="#977753"/><path d="m14.268 29.067 12.912-5.877 2.05 0.663-12.966 6.264z" fill="#7a552c"/><path d="m14.258 27.63 2.01 1.086v1.416l-2.01-1.086z" fill="#886947"/><path d="m29.139 22.465-1.521 0.766v1.416l1.521-0.766z" fill="#9a7246"/><path d="m20.178 24.751 2.01 1.086v1.416l-2.01-1.086z" fill="#694a27"/><path d="m23.708 25.072-1.521 0.766v1.416l1.521-0.766z" fill="#9a7246"/><path d="m8.722 26.749-7e-3 -0.4 12.925-5.514 2.038 0.288-0.012 0.385-12.942 6.28z" fill="#715a40"/><path d="m8.719 24.914 2.009 1.086v1.416l-2.01-1.086v-1.416z" fill="#886947"/><path d="m12.249 25.234-1.521 0.766v1.416l1.521-0.766z" fill="#6d471e"/><path d="m3.454 24.088-7e-3 -0.349 12.926-5.511 2.038 0.288-0.011 0.384-12.944 6.227z" fill="#7a5f41"/><path d="m3.451 22.308 2.01 1.086v1.416l-2.01-1.086z" fill="#886947"/><path d="m6.981 22.628-1.521 0.766v1.416l1.521-0.766z" fill="#6d471e"/><path d="m3.345 22.622-7e-3 -0.282s2.539-0.09 1.689 0.115c1.053-0.663 11.155-4.555 11.155-4.555l12.961 4.44 0.062 0.279-12.942 6.09z" fill="#977753"/><path d="m3.3 22.36 12.966-4.519 12.963 4.519-12.965 6.019z" fill="#c69c6d"/><path d="m16.372 6.64-6.2-2.481v8.123l6.2 2.522z" fill="#e5ac3d" stroke="#73561f" stroke-miterlimit="10" stroke-width=".054309px"/><path d="m16.331 6.674 6.115-2.435-6.146-2.531-6.141 2.467z" fill="#e3b04e" stroke="#73561f" stroke-miterlimit="10" stroke-width=".054071px"/><g transform="matrix(0 -.029 .022 .013 10.56 6.25)"><rect width="45.72" height="26.28" fill="none"/><polygon points="45.72 13.139 22.926 0 22.926 9.97 0 9.97 0 16.309 22.926 16.309 22.926 26.28" fill="#231f20"/></g><g stroke="#73561f" stroke-miterlimit="10" stroke-width=".054309px"><path d="m22.509 17.109 6.2-2.481v7.311l-6.2 2.878z" fill="#e5ac3d"/><path d="m22.5 9.134 6.2-2.415v7.906l-6.2 2.509z" fill="#e5ac3d"/><path d="m22.433 9.119-6.033-2.562 6.062-2.274 6.2 2.4z" fill="#e3b04e"/><path d="m10.072 17.092-6.2-2.392v7.375l6.2 2.847z" fill="#e5ac3d"/><path d="m10.056 17.144 6.2-2.417-6.2-2.465-6.2 2.4z" fill="#e3b04e"/><line x1="6.952" x2="13.148" y1="15.883" y2="13.416" fill="none"/></g><g fill="#e5ac3d" stroke="#73561f" stroke-miterlimit="10" stroke-width=".054309px"><path d="m16.3 19.658-6.2-2.464v7.715l6.2 2.957z"/><path d="m16.25 19.729 6.255-2.481v7.661l-6.255 2.957z"/><path d="m16.264 11.547 6.2-2.446v8.16l-6.2 2.485z"/><path d="m16.264 11.528-6.2-2.481v8.123l6.2 2.522z"/></g><path d="m16.277 11.508 6.169-2.435-6.2-2.531-6.2 2.467z" fill="#e3b04e" stroke="#73561f" stroke-miterlimit="10" stroke-width=".054309px"/><g fill="none" stroke="#73561f" stroke-miterlimit="10" stroke-width=".054309px"><line x1="12.82" x2="19.016" y1="10.149" y2="7.682"/><line x1="13.037" x2="19.233" y1="5.37" y2="2.903"/><line x1="19.811" x2="26.127" y1="5.286" y2="7.733"/></g><g fill="#fff" stroke="#73561f" stroke-miterlimit="10"><g stroke-width=".047412px"><polygon points="13.543 10.472 19.739 8.006 18.301 7.395 12.061 9.879" opacity=".3"/><polygon points="13.815 5.693 20.01 3.227 18.573 2.616 12.333 5.1" opacity=".3"/><polygon points="10.089 15.288 10.063 14.116 6.266 15.628 7.747 16.22" opacity=".3"/></g><polygon points="25.383 7.967 26.725 7.443 20.495 5.029 19.156 5.554" opacity=".3" stroke-width=".041862px"/></g><polygon points="6.751 17.465 6.647 17.424 6.7 17.509" fill="none"/><polygon points="7.155 17.622 7.026 17.571 7.09 17.679" fill="none"/><polygon points="7.582 17.788 7.719 17.841 7.719 16.195 6.266 15.63 6.266 17.275 6.467 17.139 6.647 17.424 6.751 17.465 6.889 17.343 7.026 17.571 7.155 17.622 7.344 17.456" fill="#fff" opacity=".3" stroke="#73561f" stroke-miterlimit="10" stroke-width=".066615px"/><polygon points="12.833 6.929 12.729 6.888 12.783 6.973" fill="none"/><polygon points="13.238 7.086 13.108 7.035 13.173 7.143" fill="none"/><polygon points="13.665 7.252 13.802 7.305 13.802 5.659 12.348 5.094 12.348 6.739 12.55 6.603 12.729 6.888 12.833 6.929 12.971 6.807 13.108 7.035 13.238 7.086 13.426 6.92" fill="#fff" opacity=".3" stroke="#73561f" stroke-miterlimit="10" stroke-width=".066615px"/><polygon points="12.594 11.739 12.49 11.699 12.544 11.783" fill="none"/><polygon points="12.998 11.896 12.869 11.846 12.933 11.953" fill="none"/><polygon points="13.425 12.062 13.562 12.115 13.562 10.47 12.109 9.905 12.109 11.55 12.31 11.414 12.49 11.699 12.594 11.739 12.732 11.618 12.869 11.846 12.998 11.896 13.187 11.73" fill="#fff" opacity=".3" stroke="#73561f" stroke-miterlimit="10" stroke-width=".066615px"/><polygon points="13.089 16.764 13.193 16.803 13.139 16.719" fill="none"/><polygon points="12.682 16.612 12.813 16.661 12.747 16.554" fill="none"/><polygon points="12.253 16.452 12.116 16.401 12.139 18.046 13.6 18.591 13.577 16.946 13.377 17.085 13.193 16.803 13.089 16.764 12.953 16.887 12.813 16.661 12.682 16.612 12.496 16.781" fill="#fff" opacity=".3" stroke="#73561f" stroke-miterlimit="10" stroke-width=".066615px"/><polygon points="7.278 21.923 7.382 21.962 7.328 21.878" fill="none"/><polygon points="6.871 21.772 7.001 21.82 6.936 21.714" fill="none"/><polygon points="6.442 21.612 6.304 21.56 6.327 23.206 7.719 23.845 7.766 22.105 7.566 22.244 7.382 21.962 7.278 21.923 7.141 22.046 7.001 21.82 6.871 21.772 6.685 21.94" fill="#fff" opacity=".3" stroke="#73561f" stroke-miterlimit="10" stroke-width=".066615px"/><polygon points="25.812 14.138 25.708 14.178 25.761 14.093" fill="none"/><polygon points="26.216 13.98 26.087 14.031 26.151 13.923" fill="none"/><polygon points="26.643 13.814 26.78 13.761 26.78 15.407 25.327 15.972 25.327 14.327 25.528 14.463 25.708 14.178 25.812 14.138 25.95 14.259 26.087 14.031 26.216 13.98 26.405 14.146" fill="#fff" opacity=".3" stroke="#73561f" stroke-miterlimit="10" stroke-width=".066615px"/><polygon points="26.307 9.276 26.411 9.237 26.356 9.321" fill="none"/><polygon points="25.9 9.427 26.03 9.379 25.964 9.485" fill="none"/><polygon points="25.471 9.587 25.333 9.639 25.356 7.993 26.817 7.448 26.794 9.093 26.595 8.955 26.411 9.237 26.307 9.276 26.17 9.152 26.03 9.379 25.9 9.427 25.714 9.259" fill="#fff" opacity=".3" stroke="#73561f" stroke-miterlimit="10" stroke-width=".066615px"/><polygon points="19.478 24.602 19.375 24.642 19.428 24.558" fill="none"/><polygon points="19.883 24.445 19.753 24.495 19.818 24.388" fill="none"/><polygon points="20.31 24.279 20.447 24.226 20.447 25.871 18.993 26.545 18.993 24.791 19.195 24.927 19.375 24.642 19.478 24.602 19.617 24.723 19.753 24.495 19.883 24.445 20.072 24.611" fill="#fff" opacity=".3" stroke="#73561f" stroke-miterlimit="10" stroke-width=".066615px"/><polygon points="19.973 19.903 20.078 19.864 20.023 19.948" fill="none"/><polygon points="19.567 20.055 19.697 20.006 19.631 20.113" fill="none"/><polygon points="19.138 20.215 19 20.266 19.023 18.62 20.484 18.076 20.461 19.721 20.262 19.582 20.078 19.864 19.973 19.903 19.837 19.78 19.697 20.006 19.567 20.055 19.38 19.886" fill="#fff" opacity=".3" stroke="#73561f" stroke-miterlimit="10" stroke-width=".066615px"/><path d="m21.426 13.49-0.172-0.039v-0.051l0.148-0.208a0.087 0.087 0 0 0 0.018-0.065 0.035 0.035 0 0 0-0.037-0.03l-0.189 6e-3 -0.015-0.045 0.118-0.222a0.073 0.073 0 0 0 7e-3 -0.063 0.037 0.037 0 0 0-0.045-0.018l-0.2 0.051-0.024-0.037 0.084-0.229a0.058 0.058 0 0 0 0-0.058 0.042 0.042 0 0 0-0.051-6e-3l-0.2 0.094-0.032-0.027 0.047-0.227a0.047 0.047 0 0 0-0.016-0.052 0.052 0.052 0 0 0-0.056 7e-3l-0.2 0.133-0.039-0.017 7e-3 -0.215a0.039 0.039 0 0 0-0.026-0.043 0.065 0.065 0 0 0-0.058 0.02l-0.184 0.166-0.045-6e-3 -0.033-0.2a0.036 0.036 0 0 0-0.036-0.032 0.08 0.08 0 0 0-0.057 0.031l-0.164 0.194-0.049 5e-3 -0.071-0.168a0.036 0.036 0 0 0-0.044-0.021 0.094 0.094 0 0 0-0.055 0.042l-0.138 0.214-0.05 0.016-0.107-0.135a0.041 0.041 0 0 0-0.05-8e-3 0.1 0.1 0 0 0-0.05 0.051l-0.107 0.226-0.05 0.026-0.138-0.1a0.05 0.05 0 0 0-0.055 0 0.109 0.109 0 0 0-0.044 0.058l-0.071 0.228-0.049 0.036-0.164-0.054a0.062 0.062 0 0 0-0.057 0.017 0.107 0.107 0 0 0-0.036 0.063l-0.033 0.223-0.045 0.044-0.184-0.01a0.077 0.077 0 0 0-0.058 0.029 0.1 0.1 0 0 0-0.026 0.065l7e-3 0.209-0.039 0.05-0.2 0.035a0.092 0.092 0 0 0-0.056 0.04 0.085 0.085 0 0 0-0.016 0.065l0.046 0.187-0.032 0.054-0.2 0.079a0.1 0.1 0 0 0-0.051 0.049 0.07 0.07 0 0 0 0 0.062l0.084 0.157-0.024 0.057-0.2 0.119a0.109 0.109 0 0 0-0.045 0.057 0.056 0.056 0 0 0 7e-3 0.057l0.118 0.122-0.015 0.058-0.189 0.155a0.107 0.107 0 0 0-0.037 0.062 0.045 0.045 0 0 0 0.018 0.05l0.148 0.082v0.055l-0.172 0.185a0.1 0.1 0 0 0-0.028 0.065 0.038 0.038 0 0 0 0.028 0.041l0.172 0.039v0.051l-0.148 0.208a0.088 0.088 0 0 0-0.018 0.065 0.035 0.035 0 0 0 0.037 0.03l0.189-6e-3 0.015 0.045-0.118 0.222a0.073 0.073 0 0 0-7e-3 0.063 0.037 0.037 0 0 0 0.045 0.018l0.2-0.051 0.024 0.037-0.084 0.229a0.058 0.058 0 0 0 0 0.058 0.042 0.042 0 0 0 0.051 6e-3l0.2-0.094 0.032 0.027-0.046 0.227a0.047 0.047 0 0 0 0.016 0.051 0.052 0.052 0 0 0 0.056-7e-3l0.2-0.133 0.039 0.017-7e-3 0.215a0.039 0.039 0 0 0 0.026 0.043 0.065 0.065 0 0 0 0.058-0.02l0.184-0.166 0.045 6e-3 0.033 0.2a0.035 0.035 0 0 0 0.036 0.032 0.08 0.08 0 0 0 0.057-0.031l0.164-0.194 0.049-5e-3 0.071 0.168a0.036 0.036 0 0 0 0.044 0.02 0.093 0.093 0 0 0 0.055-0.042l0.138-0.214 0.05-0.016 0.107 0.135a0.041 0.041 0 0 0 0.05 8e-3 0.1 0.1 0 0 0 0.05-0.051l0.107-0.226 0.05-0.027 0.138 0.1a0.05 0.05 0 0 0 0.055 0 0.109 0.109 0 0 0 0.044-0.058l0.071-0.228 0.049-0.036 0.164 0.054a0.063 0.063 0 0 0 0.057-0.017 0.107 0.107 0 0 0 0.036-0.063l0.033-0.223 0.045-0.044 0.184 0.01a0.077 0.077 0 0 0 0.058-0.029 0.1 0.1 0 0 0 0.026-0.065l-7e-3 -0.209 0.039-0.05 0.2-0.035a0.091 0.091 0 0 0 0.056-0.04 0.085 0.085 0 0 0 0.016-0.065l-0.046-0.187 0.017-0.053 0.2-0.079a0.1 0.1 0 0 0 0.051-0.049 0.07 0.07 0 0 0 0-0.062l-0.084-0.157 0.024-0.057 0.2-0.119a0.108 0.108 0 0 0 0.045-0.057 0.056 0.056 0 0 0-7e-3 -0.057l-0.118-0.122 0.015-0.058 0.189-0.155a0.107 0.107 0 0 0 0.037-0.062 0.045 0.045 0 0 0-0.018-0.05l-0.148-0.082v-0.055l0.172-0.185a0.1 0.1 0 0 0 0.028-0.065 0.038 0.038 0 0 0-0.014-0.039zm-1.153 1.988c-0.066 0.013-0.108-0.037-0.094-0.112a0.208 0.208 0 0 1 0.145-0.16c0.066-0.013 0.108 0.037 0.094 0.112a0.209 0.209 0 0 1-0.145 0.16zm-0.059-0.39a0.19 0.19 0 0 0-0.132 0.146l-0.061 0.325a2.252 2.252 0 0 1-0.619 0.4 1.4 1.4 0 0 1-0.632 0.123l-0.061-0.273c-0.013-0.057-0.072-0.072-0.132-0.033l-0.252 0.164a0.825 0.825 0 0 1-0.13-0.106l1.226-0.521c0.014-6e-3 0.023-0.012 0.023-0.026v-0.455c0-0.013-9e-3 -0.012-0.023-6e-3l-0.359 0.152v-0.288l0.388-0.165a0.161 0.161 0 0 1 0.239 0.115c0.015 0.057 0.049 0.249 0.072 0.3s0.117 0.172 0.217 0.13l0.611-0.26 0.022-0.012c-0.042 0.078-0.089 0.155-0.139 0.23zm-1.7 1.13c-0.066 0.043-0.131 0.026-0.145-0.037a0.2 0.2 0 0 1 0.094-0.192c0.066-0.043 0.131-0.026 0.145 0.037a0.2 0.2 0 0 1-0.09 0.192zm-0.465-1.779a0.18 0.18 0 0 1-0.062 0.2c-0.062 0.055-0.134 0.056-0.161 0a0.18 0.18 0 0 1 0.062-0.2c0.066-0.051 0.138-0.053 0.165 0zm-0.143 0.416 0.263-0.234a0.164 0.164 0 0 0 0.057-0.178l-0.054-0.105 0.213-0.09v1l-0.429 0.182a1.386 1.386 0 0 1-0.057-0.407c1e-3 -0.052 1e-3 -0.11 0.011-0.168zm1.152-0.587v-0.3l0.506-0.215c0.026-0.011 0.185-0.047 0.185 0.077 0 0.1-0.122 0.192-0.222 0.234l-0.47 0.2zm1.84-0.516q0 0.059 0 0.118l-0.154 0.065a0.036 0.036 0 0 0-0.022 0.036v0.074a0.31 0.31 0 0 1-0.176 0.3c-0.078 0.043-0.165 0.036-0.176-0.01-0.046-0.253-0.123-0.278-0.245-0.327a0.984 0.984 0 0 0 0.308-0.578 0.3 0.3 0 0 0-0.235-0.315 0.568 0.568 0 0 0-0.322 0.026l-1.592 0.677a2.7 2.7 0 0 1 0.84-0.853l0.188 0.127c0.042 0.029 0.113 0 0.157-0.063l0.21-0.3a0.938 0.938 0 0 1 1.027 0.33l-0.144 0.4c-0.025 0.069 0 0.128 0.057 0.13l0.277 0.011q4e-3 0.073 4e-3 0.152zm-1.591-1.044c0.049-0.069 0.126-0.1 0.172-0.069s0.045 0.113 0 0.183-0.126 0.1-0.172 0.069-0.044-0.114 5e-3 -0.184zm1.427 0.6a0.191 0.191 0 0 1 0.161-0.133c0.062 0 0.089 0.066 0.062 0.142a0.191 0.191 0 0 1-0.161 0.133c-0.057-6e-3 -0.085-0.07-0.058-0.15z" opacity=".55"/><path d="m15.314 23.421-0.19-0.195-5e-3 -0.057 0.163-0.085a0.046 0.046 0 0 0 0.02-0.052 0.112 0.112 0 0 0-0.041-0.065l-0.208-0.163-0.016-0.06 0.13-0.127a0.057 0.057 0 0 0 7e-3 -0.06 0.116 0.116 0 0 0-0.05-0.06l-0.22-0.126-0.026-0.06 0.092-0.165a0.07 0.07 0 0 0-5e-3 -0.065 0.111 0.111 0 0 0-0.057-0.052l-0.223-0.083-0.035-0.057 0.051-0.2a0.086 0.086 0 0 0-0.017-0.068 0.1 0.1 0 0 0-0.061-0.042l-0.217-0.038-0.043-0.053 8e-3 -0.22a0.1 0.1 0 0 0-0.029-0.068 0.087 0.087 0 0 0-0.063-0.031l-0.2 0.01-0.049-0.047-0.036-0.234a0.111 0.111 0 0 0-0.039-0.066 0.071 0.071 0 0 0-0.063-0.018l-0.181 0.056-0.054-0.038-0.078-0.24a0.115 0.115 0 0 0-0.048-0.061 0.057 0.057 0 0 0-0.06-5e-3l-0.152 0.1-0.059-0.026-0.117-0.238a0.113 0.113 0 0 0-0.055-0.054 0.046 0.046 0 0 0-0.055 8e-3l-0.117 0.142-0.055-0.017-0.152-0.225a0.1 0.1 0 0 0-0.06-0.044 0.04 0.04 0 0 0-0.048 0.021l-0.078 0.176-0.054-6e-3 -0.181-0.2a0.089 0.089 0 0 0-0.063-0.033 0.038 0.038 0 0 0-0.039 0.034l-0.036 0.205-0.049 6e-3 -0.2-0.175a0.074 0.074 0 0 0-0.063-0.021 0.041 0.041 0 0 0-0.029 0.045l8e-3 0.226-0.043 0.018-0.217-0.14a0.06 0.06 0 0 0-0.061-8e-3 0.048 0.048 0 0 0-0.017 0.054l0.051 0.238-0.035 0.028-0.223-0.1a0.048 0.048 0 0 0-0.057 6e-3 0.059 0.059 0 0 0-5e-3 0.061l0.092 0.24-0.026 0.039-0.22-0.054a0.041 0.041 0 0 0-0.05 0.019 0.074 0.074 0 0 0 7e-3 0.066l0.13 0.234-0.016 0.047-0.208-7e-3a0.038 0.038 0 0 0-0.041 0.032 0.089 0.089 0 0 0 0.02 0.068l0.163 0.219-5e-3 0.053-0.19 0.04a0.04 0.04 0 0 0-0.031 0.043 0.1 0.1 0 0 0 0.031 0.068l0.19 0.195 5e-3 0.057-0.163 0.085a0.046 0.046 0 0 0-0.02 0.052 0.113 0.113 0 0 0 0.041 0.065l0.208 0.163 0.016 0.06-0.13 0.127a0.057 0.057 0 0 0-7e-3 0.06 0.116 0.116 0 0 0 0.05 0.06l0.22 0.126 0.026 0.06-0.092 0.165a0.071 0.071 0 0 0 5e-3 0.065 0.111 0.111 0 0 0 0.057 0.052l0.223 0.083 0.035 0.057-0.051 0.2a0.086 0.086 0 0 0 0.017 0.068 0.1 0.1 0 0 0 0.061 0.042l0.217 0.038 0.043 0.053-8e-3 0.22a0.1 0.1 0 0 0 0.029 0.068 0.087 0.087 0 0 0 0.063 0.031l0.2-9e-3 0.049 0.047 0.036 0.234a0.111 0.111 0 0 0 0.039 0.066 0.071 0.071 0 0 0 0.063 0.019l0.18-0.056 0.054 0.038 0.078 0.24a0.115 0.115 0 0 0 0.048 0.061 0.057 0.057 0 0 0 0.06 5e-3l0.152-0.1 0.055 0.028 0.117 0.238a0.113 0.113 0 0 0 0.055 0.054 0.047 0.047 0 0 0 0.055-8e-3l0.117-0.142 0.055 0.017 0.152 0.225a0.1 0.1 0 0 0 0.06 0.044 0.04 0.04 0 0 0 0.048-0.021l0.078-0.176 0.054 6e-3 0.181 0.2a0.09 0.09 0 0 0 0.063 0.033 0.038 0.038 0 0 0 0.039-0.034l0.036-0.2 0.049-6e-3 0.2 0.175a0.074 0.074 0 0 0 0.063 0.021 0.041 0.041 0 0 0 0.029-0.045l-8e-3 -0.226 0.043-0.018 0.217 0.14a0.059 0.059 0 0 0 0.061 8e-3 0.048 0.048 0 0 0 0.017-0.054l-0.051-0.238 0.035-0.028 0.223 0.1a0.048 0.048 0 0 0 0.057-6e-3 0.059 0.059 0 0 0 5e-3 -0.061l-0.092-0.24 0.026-0.039 0.22 0.054a0.041 0.041 0 0 0 0.05-0.019 0.073 0.073 0 0 0-7e-3 -0.066l-0.13-0.234 0.016-0.047 0.208 7e-3a0.038 0.038 0 0 0 0.041-0.032 0.089 0.089 0 0 0-0.02-0.068l-0.163-0.219 5e-3 -0.053 0.19-0.04a0.04 0.04 0 0 0 0.031-0.043 0.1 0.1 0 0 0-0.026-0.077zm-1.269 1.054a0.21 0.21 0 0 1-0.1-0.2c0.015-0.066 0.087-0.083 0.159-0.038a0.21 0.21 0 0 1 0.1 0.2c-0.015 0.063-0.086 0.083-0.159 0.038zm-0.064-0.462c-0.066-0.041-0.131-0.026-0.145 0.035l-0.067 0.287a1.619 1.619 0 0 1-0.681-0.132 2.516 2.516 0 0 1-0.7-0.438l-0.067-0.342a0.2 0.2 0 0 0-0.145-0.153l-0.277-0.054q-0.077-0.111-0.143-0.228l1.35 0.552c0.015 6e-3 0.025 8e-3 0.025-6e-3v-0.477c0-0.014-0.01-0.021-0.025-0.027l-0.395-0.161v-0.3l0.427 0.175a0.459 0.459 0 0 1 0.263 0.335c0.017 0.074 0.054 0.305 0.08 0.385a0.608 0.608 0 0 0 0.239 0.331l0.672 0.275 0.024 8e-3a0.9 0.9 0 0 1-0.153 0.117zm-1.867-0.334a0.224 0.224 0 0 1-0.159-0.168c-0.015-0.079 0.031-0.132 0.1-0.118a0.225 0.225 0 0 1 0.159 0.168c0.019 0.079-0.027 0.132-0.1 0.118zm-0.514-2.286c0.03 0.08 0 0.147-0.068 0.149a0.209 0.209 0 0 1-0.177-0.141c-0.03-0.08 0-0.147 0.068-0.149a0.209 0.209 0 0 1 0.177 0.141zm-0.157 0.309 0.289-0.01c0.062 0 0.09-0.063 0.062-0.136l-0.06-0.159 0.234 0.1v1.055l-0.472-0.193a1.944 1.944 0 0 1-0.063-0.479 1.565 1.565 0 0 1 0.012-0.18zm1.268 0.416v-0.311l0.557 0.228c0.029 0.012 0.2 0.116 0.2 0.247 0 0.108-0.134 0.092-0.244 0.047l-0.517-0.211zm2.025 1.108q0 0.062 0 0.121l-0.169-0.069c-0.017-7e-3 -0.024 0-0.024 0.018v0.078c0 0.183-0.1 0.181-0.194 0.154a0.311 0.311 0 0 1-0.194-0.168 0.953 0.953 0 0 0-0.269-0.563c0.166-0.038 0.339-0.122 0.339-0.331a0.862 0.862 0 0 0-0.259-0.542 1.183 1.183 0 0 0-0.355-0.262l-1.752-0.717a1.144 1.144 0 0 1 0.924-0.144l0.207 0.3c0.047 0.068 0.124 0.1 0.173 0.075l0.231-0.127a2.951 2.951 0 0 1 1.13 1.267l-0.158 0.293a0.169 0.169 0 0 0 0.062 0.187l0.3 0.26q0.01 0.087 0.01 0.17zm-1.749-2.526c0.054-0.029 0.138 7e-3 0.19 0.082s0.049 0.159 0 0.188-0.138-7e-3 -0.19-0.082-0.053-0.156 0-0.188zm1.57 1.905c0.03-0.056 0.109-0.054 0.177 0a0.185 0.185 0 0 1 0.068 0.205c-0.03 0.056-0.109 0.054-0.177 0a0.185 0.185 0 0 1-0.068-0.202z" opacity=".56"/><path d="m27.838 18.724-0.172-0.039v-0.051l0.148-0.208a0.087 0.087 0 0 0 0.018-0.065 0.035 0.035 0 0 0-0.037-0.03l-0.189 6e-3 -0.015-0.045 0.118-0.222a0.073 0.073 0 0 0 7e-3 -0.063 0.037 0.037 0 0 0-0.045-0.018l-0.2 0.051-0.03-0.04 0.084-0.229a0.058 0.058 0 0 0 0-0.058 0.042 0.042 0 0 0-0.051-6e-3l-0.2 0.094-0.032-0.027 0.047-0.227a0.047 0.047 0 0 0-0.016-0.052 0.052 0.052 0 0 0-0.056 7e-3l-0.2 0.133-0.039-0.017 7e-3 -0.215a0.039 0.039 0 0 0-0.026-0.043 0.065 0.065 0 0 0-0.058 0.02l-0.184 0.166-0.045-6e-3 -0.033-0.2a0.036 0.036 0 0 0-0.036-0.032 0.08 0.08 0 0 0-0.057 0.031l-0.164 0.194-0.049 5e-3 -0.071-0.168a0.036 0.036 0 0 0-0.044-0.021 0.094 0.094 0 0 0-0.055 0.042l-0.138 0.214-0.05 0.016-0.107-0.135a0.041 0.041 0 0 0-0.05-8e-3 0.1 0.1 0 0 0-0.05 0.051l-0.107 0.226-0.05 0.026-0.138-0.1a0.05 0.05 0 0 0-0.055 0 0.109 0.109 0 0 0-0.044 0.058l-0.071 0.228-0.049 0.036-0.164-0.054a0.062 0.062 0 0 0-0.057 0.017 0.107 0.107 0 0 0-0.036 0.063l-0.033 0.223-0.045 0.044-0.184-0.01a0.077 0.077 0 0 0-0.058 0.029 0.1 0.1 0 0 0-0.026 0.065l7e-3 0.209-0.039 0.05-0.2 0.035a0.092 0.092 0 0 0-0.056 0.04 0.085 0.085 0 0 0-0.016 0.065l0.046 0.187-0.032 0.054-0.2 0.079a0.1 0.1 0 0 0-0.051 0.049 0.07 0.07 0 0 0 0 0.062l0.084 0.157-0.024 0.057-0.2 0.119a0.109 0.109 0 0 0-0.045 0.057 0.056 0.056 0 0 0 7e-3 0.057l0.118 0.122-0.015 0.058-0.189 0.155a0.107 0.107 0 0 0-0.037 0.062 0.045 0.045 0 0 0 0.018 0.05l0.148 0.082v0.055l-0.172 0.185a0.1 0.1 0 0 0-0.028 0.065 0.038 0.038 0 0 0 0.028 0.041l0.172 0.039v0.051l-0.148 0.208a0.088 0.088 0 0 0-0.018 0.065 0.035 0.035 0 0 0 0.037 0.03l0.189-6e-3 0.015 0.045-0.118 0.222a0.073 0.073 0 0 0-7e-3 0.063 0.037 0.037 0 0 0 0.045 0.018l0.2-0.051 0.024 0.037-0.094 0.247a0.058 0.058 0 0 0 0 0.058 0.042 0.042 0 0 0 0.051 6e-3l0.2-0.094 0.032 0.027-0.046 0.227a0.047 0.047 0 0 0 0.016 0.051 0.052 0.052 0 0 0 0.056-7e-3l0.2-0.133 0.039 0.017-7e-3 0.215a0.039 0.039 0 0 0 0.026 0.043 0.065 0.065 0 0 0 0.058-0.02l0.184-0.166 0.045 6e-3 0.033 0.2a0.035 0.035 0 0 0 0.036 0.032 0.08 0.08 0 0 0 0.057-0.031l0.164-0.194 0.049-5e-3 0.071 0.168a0.036 0.036 0 0 0 0.044 0.02 0.093 0.093 0 0 0 0.055-0.042l0.138-0.214 0.05-0.016 0.107 0.135a0.041 0.041 0 0 0 0.05 8e-3 0.1 0.1 0 0 0 0.05-0.051l0.107-0.226 0.05-0.027 0.138 0.1a0.05 0.05 0 0 0 0.055 0 0.109 0.109 0 0 0 0.044-0.058l0.071-0.228 0.049-0.036 0.164 0.054a0.063 0.063 0 0 0 0.057-0.017 0.107 0.107 0 0 0 0.036-0.063l0.038-0.239 0.045-0.044 0.184 0.01a0.077 0.077 0 0 0 0.058-0.029 0.1 0.1 0 0 0 0.026-0.065l-7e-3 -0.209 0.039-0.05 0.2-0.035a0.091 0.091 0 0 0 0.056-0.04 0.085 0.085 0 0 0 0.016-0.065l-0.046-0.187 0.032-0.054 0.2-0.079a0.1 0.1 0 0 0 0.051-0.049 0.07 0.07 0 0 0 0-0.062l-0.084-0.157 0.024-0.057 0.2-0.119a0.108 0.108 0 0 0 0.045-0.057 0.056 0.056 0 0 0-6e-3 -0.052l-0.118-0.122 0.015-0.058 0.189-0.155a0.107 0.107 0 0 0 0.037-0.062 0.045 0.045 0 0 0-0.018-0.05l-0.148-0.082v-0.055l0.172-0.185a0.1 0.1 0 0 0 0.028-0.065 0.038 0.038 0 0 0-0.019-0.042zm-1.153 1.988c-0.066 0.013-0.108-0.037-0.094-0.112a0.208 0.208 0 0 1 0.145-0.16c0.066-0.013 0.108 0.037 0.094 0.112a0.209 0.209 0 0 1-0.146 0.161zm-0.059-0.39a0.19 0.19 0 0 0-0.132 0.146l-0.061 0.325a2.252 2.252 0 0 1-0.619 0.4 1.4 1.4 0 0 1-0.632 0.123l-0.061-0.273c-0.013-0.057-0.072-0.072-0.132-0.033l-0.252 0.164a0.825 0.825 0 0 1-0.13-0.106l1.226-0.521c0.014-6e-3 0.023-0.012 0.023-0.026v-0.455c0-0.013-9e-3 -0.012-0.023-6e-3l-0.359 0.152v-0.288l0.388-0.165a0.161 0.161 0 0 1 0.239 0.115c0.015 0.057 0.049 0.249 0.072 0.3s0.117 0.172 0.217 0.13l0.611-0.26 0.022-0.012c-0.042 0.078-0.089 0.155-0.139 0.23zm-1.7 1.13c-0.066 0.043-0.131 0.026-0.145-0.037a0.2 0.2 0 0 1 0.094-0.192c0.066-0.043 0.131-0.026 0.145 0.037a0.2 0.2 0 0 1-0.09 0.192zm-0.465-1.779a0.18 0.18 0 0 1-0.062 0.2c-0.062 0.055-0.134 0.056-0.161 0a0.18 0.18 0 0 1 0.062-0.2c0.065-0.051 0.137-0.053 0.165 0zm-0.143 0.416 0.263-0.234a0.164 0.164 0 0 0 0.057-0.178l-0.054-0.105 0.213-0.09v1l-0.429 0.182a1.386 1.386 0 0 1-0.057-0.407c2e-3 -0.057 5e-3 -0.11 0.011-0.168zm1.152-0.587v-0.3l0.506-0.215c0.026-0.011 0.185-0.047 0.185 0.077 0 0.1-0.122 0.192-0.222 0.234l-0.47 0.2zm1.84-0.516q0 0.059 0 0.118l-0.154 0.065a0.036 0.036 0 0 0-0.022 0.036v0.074a0.31 0.31 0 0 1-0.176 0.3c-0.078 0.043-0.165 0.036-0.176-0.01-0.046-0.253-0.123-0.278-0.245-0.327a0.984 0.984 0 0 0 0.308-0.578 0.3 0.3 0 0 0-0.235-0.315 0.568 0.568 0 0 0-0.322 0.026l-1.588 0.675a2.7 2.7 0 0 1 0.84-0.853l0.188 0.127c0.042 0.029 0.113 0 0.157-0.063l0.21-0.3a0.938 0.938 0 0 1 1.027 0.33l-0.144 0.4c-0.025 0.069 0 0.128 0.057 0.13l0.277 0.011q2e-3 0.075 2e-3 0.154zm-1.591-1.044c0.049-0.069 0.126-0.1 0.172-0.069s0.045 0.113 0 0.183-0.126 0.1-0.172 0.069-0.045-0.114 4e-3 -0.184zm1.427 0.6a0.191 0.191 0 0 1 0.161-0.133c0.062 0 0.089 0.066 0.062 0.142a0.191 0.191 0 0 1-0.161 0.133c-0.058-6e-3 -0.086-0.07-0.058-0.146z" opacity=".55"/><g transform="matrix(0 -.029 .022 .013 4.314 16.786)"><rect width="45.72" height="26.28" fill="none"/><polygon points="45.72 13.139 22.926 0 22.926 9.97 0 9.97 0 16.309 22.926 16.309 22.926 26.28" fill="#231f20"/></g><g transform="matrix(0 -.029 .022 .013 8.876 18.632)"><rect width="45.72" height="26.28" fill="none"/><polygon points="45.72 13.139 22.926 0 22.926 9.97 0 9.97 0 16.309 22.926 16.309 22.926 26.28" fill="#231f20"/></g><g transform="matrix(0 -.029 .022 .013 10.451 11.138)"><rect width="45.72" height="26.28" fill="none"/><polygon points="45.72 13.139 22.926 0 22.926 9.97 0 9.97 0 16.309 22.926 16.309 22.926 26.28" fill="#231f20"/></g><g transform="matrix(0 -.029 .022 .013 15.013 12.984)"><rect width="45.72" height="26.28" fill="none"/><polygon points="45.72 13.139 22.926 0 22.926 9.97 0 9.97 0 16.309 22.926 16.309 22.926 26.28" fill="#231f20"/></g><g transform="matrix(0 -.029 .02 -.012 16.773 21.54)"><rect width="45.72" height="26.28" fill="none"/><polygon points="45.72 13.139 22.926 0 22.926 9.97 0 9.97 0 16.309 22.926 16.309 22.926 26.28" fill="#231f20"/></g><g transform="matrix(0 -.029 .02 -.012 21.389 19.694)"><rect width="45.72" height="26.28" fill="none"/><polygon points="45.72 13.139 22.926 0 22.926 9.97 0 9.97 0 16.309 22.926 16.309 22.926 26.28" fill="#231f20"/></g><g transform="matrix(0 -.029 .02 -.012 23.072 11.167)"><rect width="45.72" height="26.28" fill="none"/><polygon points="45.72 13.139 22.926 0 22.926 9.97 0 9.97 0 16.309 22.926 16.309 22.926 26.28" fill="#231f20"/></g><g transform="matrix(0 -.029 .02 -.012 27.689 9.321)"><rect width="45.72" height="26.28" fill="none"/><polygon points="45.72 13.139 22.926 0 22.926 9.97 0 9.97 0 16.309 22.926 16.309 22.926 26.28" fill="#231f20"/></g></g></svg>
