<svg xmlns="http://www.w3.org/2000/svg" viewBox="0 0 32 32"><title>folder_type_typescript</title><path d="M27.5,5.5H18.2L16.1,9.7H4.4V26.5H29.6V5.5Zm0,4.2H19.3l1.1-2.1h7.1Z" style="fill:#007acc"/><path d="M27.249,17.436a3.558,3.558,0,0,1,1.787,1.03,4.706,4.706,0,0,1,.685.916c.009.036-1.234.871-1.987,1.338-.027.018-.136-.1-.259-.281a1.62,1.62,0,0,0-1.343-.808c-.866-.059-1.424.395-1.42,1.152a1.048,1.048,0,0,0,.122.535c.191.395.544.631,1.656,1.111,2.046.88,2.922,1.461,3.466,2.286a4.147,4.147,0,0,1,.331,3.484,3.831,3.831,0,0,1-3.162,2.264,8.762,8.762,0,0,1-2.178-.023,5.252,5.252,0,0,1-2.908-1.515,5.049,5.049,0,0,1-.744-1.1,2.135,2.135,0,0,1,.263-.168c.127-.073.608-.349,1.062-.612l.821-.476.172.254A3.837,3.837,0,0,0,24.7,27.861a2.654,2.654,0,0,0,2.781-.141,1.242,1.242,0,0,0,.159-1.583c-.222-.318-.676-.585-1.964-1.143a7.073,7.073,0,0,1-2.69-1.656,3.769,3.769,0,0,1-.785-1.429,5.723,5.723,0,0,1-.05-1.824,3.483,3.483,0,0,1,2.931-2.713A7.239,7.239,0,0,1,27.249,17.436Zm-6.71,1.193.009,1.17h-3.72V30.37H14.2V19.8h-3.72V18.652a11.247,11.247,0,0,1,.032-1.18c.014-.018,2.277-.027,5.022-.023l4.995.014Z" style="fill:#fff"/><path d="M26.173,31a8.42,8.42,0,0,1-1.309-.087,5.743,5.743,0,0,1-3.177-1.665c-.49-.543-1.028-1.271-.8-1.661a1.149,1.149,0,0,1,.437-.341c.131-.075.611-.351,1.062-.613l1.205-.7.422.621a3.448,3.448,0,0,0,.913.885,2.208,2.208,0,0,0,2.239-.073.583.583,0,0,0,.213-.5.6.6,0,0,0-.129-.455,4.9,4.9,0,0,0-1.762-.976,7.5,7.5,0,0,1-2.85-1.77,4.255,4.255,0,0,1-.9-1.629,6.13,6.13,0,0,1-.057-2.046A3.982,3.982,0,0,1,24.992,16.9a7.616,7.616,0,0,1,2.372.069h0a4.063,4.063,0,0,1,2.016,1.162,4.952,4.952,0,0,1,.8,1.128c.09.35.11.433-2.2,1.864l-.158.1-.193-.033c-.161-.031-.31-.122-.555-.484a1.151,1.151,0,0,0-.981-.6.962.962,0,0,0-.732.189.628.628,0,0,0-.178.483.584.584,0,0,0,.072.324c.117.241.348.424,1.419.888,2.142.922,3.069,1.543,3.675,2.461a4.657,4.657,0,0,1,.379,3.916,4.283,4.283,0,0,1-3.53,2.566A6.681,6.681,0,0,1,26.173,31Zm-4.237-3.007a6.434,6.434,0,0,0,.46.615,4.761,4.761,0,0,0,2.637,1.365,8.512,8.512,0,0,0,2.011.022,3.375,3.375,0,0,0,2.8-1.964,3.684,3.684,0,0,0-.284-3.051c-.489-.74-1.31-1.273-3.256-2.111-1.114-.482-1.624-.775-1.9-1.343a1.5,1.5,0,0,1-.171-.743,1.558,1.558,0,0,1,.48-1.182,1.883,1.883,0,0,1,1.45-.446,2.08,2.08,0,0,1,1.657.945c.462-.3.952-.623,1.261-.836-.115-.147-.266-.334-.4-.474a3.1,3.1,0,0,0-1.554-.892,6.876,6.876,0,0,0-1.964-.058,3.017,3.017,0,0,0-2.553,2.344,5.439,5.439,0,0,0,.044,1.6,3.314,3.314,0,0,0,.674,1.23,6.656,6.656,0,0,0,2.529,1.542c1.393.6,1.879.9,2.166,1.307a1.72,1.72,0,0,1-.227,2.211,3.116,3.116,0,0,1-3.326.21A4.325,4.325,0,0,1,23.3,27.2l-.438.255Zm-4.629,2.855H13.72V20.278H10V18.652c0-1.24.007-1.381.175-1.523a.243.243,0,0,1,.041-.033l0,0h0c.21-.129.9-.13,5.314-.121L21,16.987l.032,3.29H17.306Zm-2.632-.955h1.677V19.323h3.716l-.013-1.383-4.524-.013c-2.207,0-3.844,0-4.568.01,0,.182-.007.423-.007.714v.671h3.72Z" style="fill:#007acc"/></svg>