<svg xmlns="http://www.w3.org/2000/svg" viewBox="0 0 32 32"><title>folder_type_mock_opened</title><path d="M27.9,6H18.2l-2,4H5V27H30V6ZM28,24H7V12H28Zm.1-14H20.3l1-2H28Z" style="fill:#dbc87b"/><polygon points="25.9 14 0.3 14 4.1 27 29.7 27 25.9 14" style="fill:#dbc87b"/><path d="M14.54,11.41a2.076,2.076,0,0,1,2.724-1.21c2.191,1.057,4.714,1.79,7.122,1.032.37-.1.738-.214,1.1-.347,1.023-.319,2.082-1.239,3.185-.689a4.537,4.537,0,0,1,1.847,3,20.978,20.978,0,0,1-.044,8.83,13.682,13.682,0,0,1-3.506,7.026A6.838,6.838,0,0,1,22.711,31q-.5,0-1-.016a6.776,6.776,0,0,1-4.744-2.419c-2.486-2.966-3.347-6.938-3.534-10.718A13.692,13.692,0,0,1,14.54,11.41m1.281,6.5a7.156,7.156,0,0,1,4.831-.014c-.29-2.344-4.52-2.317-4.831.014m7.908-.023a8.027,8.027,0,0,1,4.821-.05c-.408-2.271-4.46-2.242-4.821.05m-5.694,6.15a2.984,2.984,0,0,0,2.279,2.717,5.521,5.521,0,0,0,5.17-.792,2.9,2.9,0,0,0,.923-1.922A12.553,12.553,0,0,1,18.035,24.041Z" style="fill:#40474d"/><path d="M15.821,17.914c.311-2.331,4.541-2.358,4.831-.014A7.156,7.156,0,0,0,15.821,17.914Zm7.908-.023c.361-2.292,4.413-2.321,4.821-.05A8.027,8.027,0,0,0,23.729,17.891Zm-5.694,6.15a12.553,12.553,0,0,0,8.372,0,2.9,2.9,0,0,1-.923,1.922,5.521,5.521,0,0,1-5.17.792A2.984,2.984,0,0,1,18.035,24.041Z" style="fill:#fac502"/></svg>