<svg xmlns="http://www.w3.org/2000/svg" viewBox="0 0 32 32"><title>folder_type_git@2x</title><g id="folder_git"><path d="M27.5,5.5H18.2L16.1,9.7H4.4V26.5H29.6V5.5Zm0,4.2H19.3l1.1-2.1h7.1Z" style="fill:#bf5e55"/><path d="M30.6,19.56,21.44,10.4a1.35,1.35,0,0,0-1.91,0l-1.9,1.9L20,14.72a1.61,1.61,0,0,1,2,2l2.33,2.33a1.61,1.61,0,1,1-1,.91l-2.17-2.17v5.71a1.61,1.61,0,1,1-1.32,0V17.73a1.61,1.61,0,0,1-.87-2.11l-2.38-2.38L10.4,19.52a1.35,1.35,0,0,0,0,1.91l9.17,9.17a1.35,1.35,0,0,0,1.91,0l9.13-9.13a1.35,1.35,0,0,0,0-1.91" style="fill:#dd4c35"/><path d="M17.62,12.3,20,14.72a1.61,1.61,0,0,1,2,2l2.33,2.33a1.61,1.61,0,1,1-1,.91l-2.17-2.17v5.71a1.61,1.61,0,1,1-1.32,0V17.73a1.61,1.61,0,0,1-.87-2.11l-2.38-2.38" style="fill:#fff"/></g></svg>