<svg viewBox="0 0 32 32" xmlns="http://www.w3.org/2000/svg"><path d="m27.5 5.5h-9.3l-2.1 4.2h-11.7v16.8h25.2v-21zm0 4.2h-8.2l1.1-2.1h7.1z" fill="#c1a153"/><path d="m12.78 10.008c1.689-.016 3.381 0 5.071-.006-.4 1.726-.786 3.456-1.184 5.183q-3.858 0-7.715 0c-.244 0-.488.008-.732-.01 1.515-1.727 3.047-3.439 4.56-5.167z" fill="#f2e6c9"/><path d="m21.358 10q2.528 0 5.056 0c1.518 1.727 3.052 3.441 4.566 5.172-.974.021-1.95 0-2.925.009q-2.762 0-5.524 0c-.384-1.726-.793-3.449-1.173-5.181z" fill="#f2e6c9"/><path d="m17.85 10q1.754 0 3.508 0c.379 1.73.788 3.453 1.174 5.181-1.955 0-3.911 0-5.866 0 .399-1.723.784-3.453 1.184-5.181z" fill="#efc75e"/><path d="m8.219 15.174c.244.018.488.009.732.01q3.858 0 7.715 0c0 1.825 0 3.65.006 5.475a1.983 1.983 0 0 0 .208.015h5.482c.054 0 .109-.006.163-.011.016-1.826 0-3.654.007-5.48q2.761 0 5.524 0c.975-.005 1.951.012 2.925-.009q0 7.912 0 15.824-11.381.002-22.761.002-.003-7.914-.001-15.826z" fill="#e7bf55"/><path d="m16.666 15.185h5.866c-.007 1.826.009 3.654-.007 5.48-.054.006-.109.009-.163.011h-5.482a1.983 1.983 0 0 1 -.208-.015c-.01-1.826-.002-3.652-.006-5.476z" fill="#dbb551"/><path d="m9.881 25.85h7.617v2.933h-7.617z" fill="#f2f2f2"/></svg>