<svg xmlns="http://www.w3.org/2000/svg" viewBox="0 0 32 32"><title>folder_type_vscode2_opened</title><path d="M27.4,5.5H18.2L16.1,9.7H4.3v4H.5L4.3,26.5H29.5V5.5ZM20.2,7.6h7.1V9.7H19.2Zm5.5,6.1H6.6V11.8H27.4v7.626Z" style="fill:#7cd8c6"/><path d="M23.781,11.029a.656.656,0,0,1,1.1.485v4.734l-6.271,4.968-3.229-2.449Z" style="fill:#009a7c"/><path d="M13.01,21.062l-2.725,2.349a.875.875,0,0,0,0,1.293l1.157,1.052a.873.873,0,0,0,1.116.049L15.7,23.512Z" style="fill:#009a7c"/><path d="M24.879,24.873l-12.32-9.557a.873.873,0,0,0-1.116.049l-1.157,1.051a.876.876,0,0,0,0,1.294L23.779,30.084a.656.656,0,0,0,1.1-.484Z" style="fill:#00b294"/><path d="M25.933,30.871a1.308,1.308,0,0,1-1.492-.254.769.769,0,0,0,1.312-.544V11.047a.769.769,0,0,0-1.312-.543,1.308,1.308,0,0,1,1.492-.254l4.324,2.079A1.313,1.313,0,0,1,31,13.512v14.1a1.313,1.313,0,0,1-.743,1.183Z" style="fill:#24bfa5"/></svg>