<svg xmlns="http://www.w3.org/2000/svg" xml:space="preserve" width="32mm" height="32mm" viewBox="0 0 32 32"><path d="M16.264 15.992c.044-.187.023.216 0 0" style="fill:#000"/><path d="M16.264 15.992c.044-.187.023.216 0 0" style="fill:#000"/><path d="M16.264 15.992c.044-.187.023.216 0 0" style="fill:#000"/><path d="M16.264 15.992c.044-.187.023.216 0 0" style="fill:#000"/><path d="M16.264 15.992c.044-.187.023.216 0 0" style="fill:#000"/><path d="M21.993 25.718c-2.982-.082-5.977.049-8.95-.122-.246-.399-.063-1.215-.834-.877-1.991-.035-3.983.033-5.974-.05-.443-.948-.065-2.03-.198-3.035-.004-3.312-.001-6.625-.002-9.937.94-.398 1.99-.064 2.977-.187 1.92-.003 3.842.015 5.762-.034.615-1.024 1.123-2.106 1.729-3.135 2.839-.127 5.683-.03 8.522-.067 1.049.084.43 1.331.565 2.012-.02.843-.048 1.687.02 2.529 1.013-.17 1.533.917 1.78 1.667-.096 1.436-.002 2.876-.034 4.317.002 2.253.007 4.506-.06 6.757-1.007.42-2.13.052-3.186.18-.706-.002-1.412-.001-2.117-.018m1.404-14.26c.465-1.01-.585-1.457-1.414-1.197-1.127-.01-2.254-.034-3.379.038-.64.528-.783 1.64.369 1.205 1.475.01 2.95.03 4.424-.047" style="fill:#90d7f6" transform="translate(-.698 -1.007)"/><path d="M21.948 25.628c-2.978-.039-5.955-.034-8.933-.05.209-1.372-1.52-.818-2.324-.917-1.47 0-2.94.029-4.41-.036-.445-.94-.066-2.016-.2-3.014-.003-3.287 0-6.574-.001-9.861 1.001-.363 2.089-.078 3.127-.186l5.637-.03c.566-1.05 1.105-2.115 1.703-3.147 2.827-.137 5.661-.02 8.487-.068.983.116.36 1.325.509 1.979-.02.82-.055 1.643.012 2.463.545.245 1.34.261 1.365.926.763.631.234 1.79.396 2.648-.002 3.087 0 6.174-.065 9.26-1.766.108-3.536.036-5.303.033m1.526-14.745c.25-1.16-1.288-.473-1.94-.66l-2.969-.014c-.57.544-.93 1.756.315 1.336 1.531.008 3.063-.008 4.594-.011z" style="fill:#3ac1fd" transform="translate(-.698 -1.007)"/><path d="M21.993 25.628c-2.985-.056-5.971 0-8.955-.094.236-1.56-1.72-.67-2.635-.902-1.352 0-2.705 0-4.057-.048-.497-.938-.071-2.05-.217-3.061.01-3.249-.05-6.499.045-9.747 1.058-.372 2.205-.033 3.3-.168l5.416-.03c.573-1.062 1.104-2.15 1.73-3.184 2.924-.027 5.848-.057 8.772.014.283 1.056.017 2.16.082 3.237-.245.83.219 1.583 1.079 1.4.165.393.314.866.675.955.163 2.75-.072 5.504.013 8.257.006 1.113.017 2.226-.03 3.338-1.738.108-3.48.035-5.218.033m1.526-14.745c.296-1.201-1.26-.528-1.936-.705l-3.063-.014c-.396.535-1.228 1.764.112 1.434l4.887-.02z" style="fill:#00b0fd" transform="translate(-.698 -1.007)"/><path d="M21.993 25.628c-2.989-.064-5.979.016-8.966-.104-.15-3.837-.125-7.678-.2-11.516.433-.328 1.182-.403.806-1.16.469-.745 1.596-.253 2.166.038.675.157 1.878-.35 2.082.55.383.695-.112-1.304.852-.95.865-.223 1.3.658 2.18.414.68.002 1.383-.115 1.46.73.386-.04-.134-1.291.762-1.171 1.002.014 1.826.742 2.89.447.73.082.85.959 1.3 1.372-.11 1.065-.001 2.16-.055 3.237-.085 2.693.019 5.387-.06 8.08-1.737.108-3.478.035-5.217.033m-8.336-2.859c-.285-1.017.756-1.686 1.583-1.117.588.569 1.597.14 2.37.273.057.507.651 1.264.504.31-.11-.927 1.46-.98 1.844-.332.645.179 1.815-.271 2.142.282-.066.633.715.771.457.064-.114-.953 1.485-.992 1.877-.332.65.153 1.81-.299 2.142.298.294 1.464.82-1.45-.22-1.033-1.923.087-3.869-.004-5.8.024-2.417 0-4.833.004-7.25 0 .132.446-.212 1.4.35 1.563m0-4.444c-.28-1.003.738-1.693 1.562-1.115.592.602 1.612.063 2.379.339-.043.412.556 1.272.512.396-.238-1.014 1.38-1.214 1.798-.49.686.06 1.402.01 2.1.026.135.28.238 1.366.552.644-.328-1.072 1.182-1.477 1.745-.735.634.376 2-.343 2.304.47.325 1.1.388-.813.266-1.164-4.53.008-9.062-.01-13.592.057.1.421-.378 1.645.374 1.572" style="fill:#0087c3" transform="translate(-.698 -1.007)"/><path d="M21.993 25.628c-2.988-.062-5.977.013-8.963-.102-.052-2.17-.028-4.341-.09-6.512-.021-1.708-.044-3.416-.04-5.124.803.094.882-.477.804-1.097.684-.648 1.505-.044 2.137.155h1.768c.053.522.634 1.203.5.274-.062-.983 1.51-.857 1.931-.26.663.128 2.011-.407 2.106.447.464.841.448-.192.455-.585.793-.854 1.727.24 2.616.142.78-.134 1.5-.09 1.665.787.699.444.274 1.472.405 2.198-.045 2.734-.07 5.467-.042 8.201-.037.714.25 1.793-.847 1.481-1.468.05-2.937-.003-4.405-.005m4.892-1.357c.197-.765-.276-1.425-1.093-1.122a321 321 0 0 0-5.028.016c.683-.385 1.595.765.489.745-.819-.1-2.204.394-2.651-.276-.117-.963-1.623-.214-2.34-.454a52 52 0 0 0-2.742.04c-.054.599-.582 2.28.532 1.97 4.286.046 8.575.047 12.862.102zm-13.2-1.43a1.01 1.01 0 0 1 1.668-1.02c.28.288.743.091 1.11.15h1.102c.029.554.75 1.3.579.312.095-1.057 1.474-.725 1.989-.313.692.148 2.037-.425 2.004.613.776.924.065-1.186 1.036-.984.91-.174 1.419.663 2.376.364.644-.072 1.101.046 1.11.76.675.011.517-2.111-.536-1.568-4.27-.02-8.542-.066-12.813 0 .1.486-.37 1.612.375 1.686m3.788-.212c-.818-.616-1.943-.042-2.872-.289-1.04.778 1.635.304 2.165.42.15-.08.77.153.707-.13m4.34-.053c-.543-.422-1.644-.074-2.4-.199-.563-.186-1.08.434-.232.433.838-.173 1.976.12 2.632-.165zm3.928.162c.598.21.674-.573-.006-.345-.824.143-2.093-.346-2.618.274.677.254 1.526.035 2.27.085zm1.137-2.891c.365-1.042-.695-1.328-1.502-1.095-4.001-.013-8.003-.045-12.004.027-.13.835-.386 2.429.98 2.028 4.178.018 8.356.02 12.533.018zm-8.245-.42c.073-1.185 1.731-.308 2.485-.637.929-.01.592.936-.182.662a37 37 0 0 1-2.303-.026m-4.931-1.057c-.349-.99.974-1.707 1.61-.982.667.341 1.536-.012 2.272.203-.2.83.922 1.068.55.115.27-1.072 1.516-.332 2.116-.18.62.14 1.912-.397 1.853.571.21.77.697.017.52-.448.49-1.289 1.72.15 2.586-.11.688-.16 1.474-.017 1.485.785.552-.244.481-2.22-.63-1.67-4.29 0-8.58.026-12.87.042.165.429-.341 1.982.508 1.674m3.69-.184c-.907-.56-2.115-.172-3.11-.167.087.7 1.427.137 2.026.315.252-.097 1.109.194 1.084-.148m4.376-.054c-.528-.421-1.612-.077-2.354-.198-.509-.182-1.108.413-.275.426.818-.2 2.09.205 2.63-.214zm4.548.054c-.85-.602-1.992-.074-2.944-.265-.47.86 1.652.206 2.263.396.145-.079.746.15.681-.131m.637-2.718c.049-.67.09-1.677-.909-1.307-4.237.008-8.475-.03-12.712.036-.06.63-.333 1.865.275 2.182 3.126-.046 6.256-.007 9.383-.02h3.963zm-8.29-.582c-.14-1.07 1.348-.412 1.963-.592h1.032c.153 1.185-1.596.404-2.298.642-.233.005-.47.007-.697-.05m-1.249-1.31c-.629-.376-1.666-.059-2.452-.175-.445-.175-1.123.203-.373.377.906-.14 2.103.117 2.825-.155zm4.413.011c-.591-.396-1.659-.069-2.432-.188-.494-.127-1.05.268-.277.378.908-.06 1.813-.01 2.723-.021zm4.52-.01c-.635-.372-1.68-.066-2.473-.174-.574-.218-1.165.488-.276.347.897-.039 1.943.062 2.749-.072v-.055z" style="fill:#0683ba" transform="translate(-.698 -1.007)"/><path d="M21.993 25.583c-2.978-.04-5.956-.036-8.933-.052-.084-2.24-.06-4.482-.127-6.722-.021-1.58-.043-3.159-.022-4.738.3-.4 1.187-.219.746-1.02.322-.908 1.547-.366 2.098-.103.642.14 1.934-.391 2.02.53.388.886.397-.414.424-.776 1.01-.5 2.01.573 3.074.218.736-.217.878.518 1.152.88.47-.415-.077-1.55.94-1.186.837-.121 1.399.633 2.31.33 1.024-.063 1.536 1.082 1.583 1.936-.122 1.24.016 2.486-.033 3.733-.005 2.323-.018 4.647-.026 6.97-1.735.002-3.47.022-5.206 0m4.92-1.346c.37-1.055-.687-1.38-1.519-1.135-3.991.001-7.984 0-11.975.086.095.701-.567 2.309.565 2.061 4.315.02 8.63.078 12.946.065zm-8.267-.402c-.16-1.16 1.533-.366 2.203-.593.586-.24 1.311.333.484.618-.894-.003-1.792.021-2.687-.025m-4.89-1.55c-.104-1.033 1.418-.77 1.883-.27.802.079 2.076-.373 2.203.712.81.253-.03-1.618 1.117-1.099.772-.058 1.312.671 2.187.376.673-.214 1.027.247 1.09.828.83-.102.185-1.69 1.42-1.223.808.512 1.867.42 2.87.428-.148.992.711.838.5-.084.224-1.38-1.746-.574-2.551-.805a555 555 0 0 0-10.984-.008c-.568.247-.254 2.017.254 1.597.014-.15-.019-.303.01-.453m3.762.372c-.805-.75-2.126-.136-3.098-.312-.743.917 1.909.284 2.51.46.142-.093.672.177.588-.148m4.34-.081c-.449-.521-1.705-.091-2.46-.246-.795-.234-1.03.67-.125.518.798-.23 2.061.222 2.585-.213zm3.928.207c.753.18.585-.747-.127-.431-.778.12-2.168-.344-2.555.293.664.453 1.647.024 2.446.149l.118-.005zm1.137-2.935c.316-.895-.472-1.45-1.292-1.142-4.122-.024-8.245-.008-12.367-.013.028.747-.457 2.397.813 2.15 4.273.065 8.547.013 12.82.027.077-.336.005-.682.026-1.022m-8.244-.466c.218-1.1 1.758-.167 2.497-.581.977.302.153.802-.447.595-.683.008-1.367.018-2.05-.014m-4.923-1.555c-.118-1.075 1.428-.686 1.913-.242.626.078 1.965-.383 1.963.497.484.81.694-.204.601-.648.784-.817 1.494.253 2.327.125.66.06 1.718-.268 1.547.726.853.638.225-1.483 1.366-1.156.752.18 1.35.634 2.225.424.674-.109.84.228 1 .78.526-.101.265-1.202.264-1.682-4.538.012-9.077-.024-13.615.06-.565.372.003 2.441.405 1.381v-.13zm3.68.359c-.835-.703-2.07-.1-3.049-.304-.586.973 1.706.297 2.352.497.202-.09.81.202.697-.193m4.392.042c-.244-.741-1.597-.155-2.288-.344-.564-.218-1.357.438-.43.516.86-.16 2.05.143 2.718-.172m4.533-.043c-.84-.69-2.079-.1-3.06-.3-.471.98 1.71.278 2.382.476.16-.084.795.177.678-.176m.614-2.916c.261-.858-.362-1.521-1.225-1.179-4.087-.022-8.175-.042-12.262.01-.603.484-.404 1.99.044 2.304l13.443-.022zm-8.284-.411c-.002-1.068 1.539-.266 2.21-.503.547-.219 1.11.305.398.543-.87-.027-1.737 0-2.608-.04m-1.232-1.282c-.537-.473-1.73-.08-2.516-.222-.507-.174-1.152.338-.375.471.946-.118 2.033.041 2.89-.102zm4.436.19c-.147-.833-1.613-.2-2.297-.412-.442-.188-1.514.28-.596.469.965-.082 1.927.019 2.893-.056m4.497-.19c-.54-.474-1.736-.082-2.524-.221-.615-.216-1.131.467-.282.476.897-.171 2.09.122 2.806-.163v-.056z" style="fill:#0075a9" transform="translate(-.698 -1.007)"/><path d="M21.921 25.543c-2.943-.04-5.886-.034-8.83-.05-.057-2.393-.06-4.788-.124-7.183-.021-1.47-.036-2.94.002-4.41 1.091.277.56-.893.988-1.275.967-.225 1.527.548 2.475.372.677-.12 1.368.008 1.396.764.659.198.112-1.702 1.251-1.128.664.068 1.118.572 1.886.354.657-.059 1.292-.023 1.25.777.869.464-.031-1.554 1.032-1.11.9-.187 1.544.711 2.508.318.885-.14 1.073.917 1.527 1.39-.14 1.202-.015 2.44-.058 3.657-.005 2.503-.027 5.006-.042 7.508q-2.63.064-5.26.016m5.038-1.284c.317-.953-.486-1.606-1.383-1.25-4.047-.001-8.095.017-12.142.066-.204.721-.597 2.465.643 2.227 4.299.073 8.598.111 12.898.102zm-8.273-.507c-.077-.843 1.403-.235 1.977-.429.523-.162 1.505.118.638.505-.87-.072-1.759.079-2.615-.076m-4.885-1.423c.008-1.35 1.587-.338 2.283-.301.765-.161 1.735-.047 1.786.863.731.03.07-1.652 1.28-1.256.65.238 1.296.532 2.103.378.884-.274.603.682 1.2.922.553-.443-.04-1.616 1.102-1.278.745.22 1.498.539 2.389.34.763-.25.441 1.397 1.114.598.228-.78-.051-1.878-1.092-1.484-4.231-.04-8.463-.033-12.695-.05-.07.543-.345 1.916.507 1.772.05-.167-.018-.337.023-.504m3.67.555c.05-1.22-1.818-.292-2.578-.636-.534-.149-1.267.587-.376.647.985.015 1.97.024 2.953-.01m4.381-.029c.295-1.041-1.46-.36-2.061-.568-.516-.178-1.792.181-.863.625.972-.002 1.953.016 2.924-.057m4.448-.015c.293-.999-1.362-.358-1.927-.551-.5-.07-1.915-.024-1.018.6.977.04 1.962-.027 2.945-.05m.67-2.989c.274-.878-.353-1.589-1.251-1.234-4.088-.014-8.176-.038-12.264.019-.599.512-.265 1.776-.055 2.245 4.042.151 8.088.043 12.132.08.555-.11 1.694.36 1.44-.553q0-.279-.003-.557m-8.202-.514c-.049-.779 1.354-.185 1.911-.36.563-.16 1.341.195.433.418-.786-.074-1.56-.015-2.344-.058m-4.977-1.449c-.121-1.041 1.4-.744 1.844-.299.802.021 2.08-.356 2.069.776.88.403.266-1.732 1.562-1.153.584.419 1.363.397 2.142.355.866-.318.413 1.386 1.248.755.17-.506-.136-1.362.758-1.12.855.325 1.688.439 2.636.384.567-.245.575 1.521.96.508.24-.761.03-1.954-1.034-1.48-4.21-.003-8.418-.015-12.627.06-.668.353-.06 2.518.446 1.493l-.001-.133zm3.713.48c.034-1.005-1.549-.297-2.201-.528-.495-.153-1.777.19-.836.594 1.012-.055 2.028.038 3.037-.066m4.354-.236c-.382-.616-1.733-.115-2.485-.287-.609-.247-1.235.541-.37.6.913-.156 2.124.128 2.855-.154zm4.547.011c-.365-.648-1.754-.115-2.508-.295-.516-.211-1.294.33-.525.588.697.006 1.389-.049 2.086-.012.285-.078.908.166.954-.14zm.59-1.691c-.025-.737.345-1.968-.247-2.405H13.15c.216.742-.454 2.402.557 2.405 4.355.085 8.712.035 13.067.007zm-8.257-1.815c.197-.454.976-.107 1.435-.208h1.438c-.122.788-1.534.154-2.167.365-.215-.087-.83.261-.706-.157m-1.212-1.033c-.782-.817-2.065-.049-3.04-.369-.896.414.082.856.604.607.719-.167 2.126.342 2.436-.238m4.414.004c-.735-.811-1.973-.066-2.9-.399-.728.103-.498.93.201.626.776-.131 2.318.267 2.7-.227m4.542.091c-.41-.951-1.748-.172-2.548-.422-.575-.306-1.408.498-.495.592 1.005-.07 2.007-.005 3.016-.024z" style="fill:#006e9e" transform="translate(-.698 -1.007)"/></svg>