<svg xmlns="http://www.w3.org/2000/svg" viewBox="0 0 32 32" style="enable-background:new 0 0 32 32" xml:space="preserve"><style>.st4{fill:#aeadb3}</style><path d="M27.5 5.5h-9.3l-2.1 4.2H4.4v16.8h25.2v-21h-2.1zm0 4.2h-8.2l1.1-2.1h7.1v2.1z" style="fill:#55004c" id="Camada_2"/><g id="Camada_3"><path class="st4" d="M15.9 13.4H30v12.2H15.9z"/><path d="M24.1 16.3h3.3v2.2h-3.3zm-5.8 0h3.3v2.2h-3.3zm.2 4.5h8.9v1.9h-8.9z" style="fill:#444242"/><path d="M14.3 16.3h1.5v3.2h-1.5zm8-4.7h1.6v1.8h-1.6zm7.7 4.7h1.5v3.2H30zm-9 9.3h3.4v1.9H21z" style="fill:#727176"/><path class="st4" d="M14.6 11h.4v5.6h-.4zm16.2 0h.4v5.6h-.4z"/></g></svg>