<svg xmlns="http://www.w3.org/2000/svg" viewBox="0 0 32 32"><title>folder_type_tools</title><path d="M27.5,5.5H18.2L16.1,9.7H4.4V26.5H29.6V5.5Zm0,4.2H19.3l1.1-2.1h7.1Z" style="fill:#5c4300"/><path d="M23.826,20.454l1.5-1.5a4.335,4.335,0,0,0,3.382-.08.413.413,0,0,0,.121-.668l-2.679-2.679a.833.833,0,0,1,0-1.179l2.676-2.676A.415.415,0,0,0,28.709,11a4.32,4.32,0,0,0-5.83,5.443l-1.534,1.534Z" style="fill:#d08b00"/><path d="M20.952,18.366l-2.079-2.079-2.481,2.481,2.079,2.079,2.481,2.481,7.6,7.6a.556.556,0,0,0,.786,0l1.695-1.695a.556.556,0,0,0,0-.786l-7.6-7.6Z" style="fill:#d08b00"/><path d="M29.956,13.068,27.734,15.29a.455.455,0,0,0,0,.643l1.713,1.713a.454.454,0,0,0,.676-.036,4.325,4.325,0,0,0,.571-4.406A.454.454,0,0,0,29.956,13.068Z" style="fill:#d08b00"/><path d="M12.94,23.6l2.679,2.679a.833.833,0,0,1,0,1.179l-2.676,2.676a.415.415,0,0,0,.122.672A4.32,4.32,0,0,0,18.9,25.379l1.657-1.657-2.481-2.481L16.46,22.858a4.335,4.335,0,0,0-3.4.074A.413.413,0,0,0,12.94,23.6Z" style="fill:#d08b00"/><path d="M11.651,24.235a4.325,4.325,0,0,0-.571,4.406.454.454,0,0,0,.737.136l2.222-2.222a.455.455,0,0,0,0-.643L12.327,24.2A.454.454,0,0,0,11.651,24.235Z" style="fill:#d08b00"/><path d="M12.923,20.488a.681.681,0,0,0,.963,0l.128-.128a.681.681,0,0,0,0-.963l-.257-.257.506-.506-2.376-2.376-.506.506-.257-.257a.681.681,0,0,0-.963,0l-.128.128a.681.681,0,0,0,0,.963Z" style="fill:#d08b00"/><path d="M16.6,11.688l2.347,2.347c2.705-1.8,4.218-.291,2.138-2.37C19.645,10.226,17.828,10.906,16.6,11.688Z" style="fill:#d08b00"/><path d="M15.877,11.753a.681.681,0,0,0-.963,0l-2.89,2.89a.681.681,0,0,0,0,.963l.257.257,2.376,2.376.257.257a.681.681,0,0,0,.882.069.692.692,0,0,0,.081-.069L16,18.375l2.481-2.481.2-.2.091-.091a.681.681,0,0,0,0-.963l-.28-.28-2.356-2.356Z" style="fill:#d08b00"/></svg>