<svg xmlns="http://www.w3.org/2000/svg" viewBox="0 0 32 32"><title>folder_type_databricks</title><path d="M27.5,5.5H18.2L16.1,9.7H4.4V26.5H29.6V5.5Zm0,4.2H19.3l1.1-2.1h7.1Z" style="fill:#732017"/><path d="M13.741,13.623v0.563L22.37,19.055l7.707-4.353,0,1.76L22.37,20.84,14.175,16.184l-0.435,0.242V19.794L22.37,24.651l7.707-4.336,0,1.745L22.37,26.439,14.175,21.782l-0.435,0.242v0.571L22.37,27.45l8.63-4.855V19.223l-0.44-0.24L22.37,23.64,14.661,19.259V17.524L22.37,21.855,31,17V13.676l-0.44-0.241L22.37,18.092,15.057,13.937,22.37,9.806l6.024,3.403.527-.296V12.449L22.37,8.75Z" style="fill:#ff3621"/></svg>
