<svg viewBox="0 0 32 32" xmlns="http://www.w3.org/2000/svg" xmlns:xlink="http://www.w3.org/1999/xlink"><mask id="a" height="19.546" maskUnits="userSpaceOnUse" width="19.545" x="11.227" y="11.227"><path d="m14.08 24.342.983-1.052 1.222 1.222-1 .994 1.205 1.2.993-.994 1.229 1.23-.974.973 2.85 2.85h4.48a.814.814 0 0 0 .814-.814v-6.512l4.162-2.775a1.626 1.626 0 0 0 .724-1.354v-7.269a.814.814 0 0 0 -.814-.814h-7.268a1.631 1.631 0 0 0 -1.355.724l-2.774 4.162h-6.517a.814.814 0 0 0 -.812.815v4.479z" fill="#fff"/><path d="m12.693 25.886h-1.465v4.887h4.885v-1.466h-3.42z" fill="#fff"/></mask><linearGradient id="b" gradientTransform="matrix(0 29.091 -29.091 0 7610.663 3431.012)" gradientUnits="userSpaceOnUse" x1="-117.555" x2="-116.883" y1="260.894" y2="260.894"><stop offset="0" stop-color="#fff"/><stop offset="1" stop-color="#fff" stop-opacity="0"/></linearGradient><linearGradient id="c" x1="-117.555" x2="-116.883" xlink:href="#b" y1="261.146" y2="261.146"/><path d="m27.9 6h-9.8l-2 4h-11.1v17h25v-21zm.1 4h-7.8l1-2h6.8z" fill="#7798cc"/><g mask="url(#a)"><path d="m11.228 25.886h1.465v3.421h3.42v1.466h-4.885z" fill="#91b0f2"/><path d="m11.228 16.927v4.48l2.852 2.935 1.22-1.307 3.664 3.665-1.222 1.22 2.85 2.85h4.48a.814.814 0 0 0 .814-.814v-6.517l-7.329-7.326h-6.517a.813.813 0 0 0 -.812.814z" fill="#0f46bd"/><path d="m14.281 22.511 7.533-11.284h8.959v8.958l-11.284 7.533z" fill="#062aa9"/><path d="m14.752 22.983a.814.814 0 0 1 -.1-1.028l6.679-10a1.629 1.629 0 0 1 1.354-.724h7.275a.815.815 0 0 1 .815.814v7.274a1.627 1.627 0 0 1 -.725 1.354l-10 6.679a.815.815 0 0 1 -1.028-.1z" fill="#2560e0"/><path d="m15.289 25.506 6.218-6.218 1.2 1.2-6.217 6.219z" fill="#0a44c2"/><path d="m15.289 25.506 6.218-6.218 1.2 1.2-6.217 6.219z" fill="#729af2"/><path d="m17.487 25.716-1.2-1.2 5.225-5.224 1.2 1.2z" fill="#4c80f0"/><path d="m25.887 18.557a2.443 2.443 0 1 0 -2.443-2.443 2.443 2.443 0 0 0 2.443 2.443z" fill="#0a44c2"/><path d="m25.887 18.557a2.443 2.443 0 1 0 -2.443-2.443 2.443 2.443 0 0 0 2.443 2.443z" fill="#91b0f2"/><g opacity=".2"><path d="m14.08 24.342.983-1.052 1.222 1.222-1 .994 1.205 1.2.993-.994 1.229 1.23-.974.973 2.85 2.85h4.48a.814.814 0 0 0 .814-.814v-6.512l4.162-2.775a1.626 1.626 0 0 0 .724-1.354v-7.269a.814.814 0 0 0 -.814-.814h-7.268a1.631 1.631 0 0 0 -1.355.724l-2.774 4.162h-6.517a.814.814 0 0 0 -.812.815v4.479z" fill="url(#b)"/><path d="m12.693 25.886h-1.465v4.887h4.885v-1.466h-3.42z" fill="url(#c)"/></g></g></svg>