<svg viewBox="0 0 32 32" xmlns="http://www.w3.org/2000/svg"><path d="m27.4 5.5h-9.2l-2.1 4.2h-11.8v16.8h25.2v-21zm0 18.7h-20.8v-12.4h20.8zm0-14.5h-8.2l1-2.1h7.1v2.1z" fill="#7bb6db"/><path d="m25.7 13.7h-25.2l3.8 12.8h25.2z" fill="#7bb6db"/><path d="m14.177 28.901-1.685-18.901h18.516l-1.686 18.898-7.583 2.102z" fill="#1572b6"/><path d="m21.75 29.393 6.127-1.699 1.442-16.149h-7.569z" fill="#33a9dc"/><path d="m21.75 18.393h3.068l.211-2.374h-3.279v-2.318h.008 5.805l-.056.622-.57 6.388h-5.187z" fill="#fff"/><path d="m21.764 24.413-.01.003-2.582-.697-.165-1.849h-1.254-1.073l.325 3.64 4.748 1.318.011-.003z" fill="#ebebeb"/><path d="m24.62 20.613-.279 3.105-2.585.697v2.412l4.752-1.317.035-.392.403-4.505z" fill="#fff"/><g fill="#ebebeb"><path d="m21.758 13.701v1.44.873.005h-5.592-.007l-.047-.521-.105-1.175-.056-.622z"/><path d="m21.75 18.393v1.44.873.006h-2.542-.007l-.046-.521-.106-1.176-.055-.622z"/></g></svg>