<?xml version="1.0" encoding="UTF-8" standalone="no"?>
<!-- Created with Inkscape (http://www.inkscape.org/) -->

<svg
   width="32mm"
   height="32mm"
   viewBox="0 0 32 32"
   version="1.1"
   id="svg1"
   xml:space="preserve"
   inkscape:version="1.4.3 (0d15f75, 2025-12-25)"
   sodipodi:docname="folder_type_frontend.svg"
   xmlns:inkscape="http://www.inkscape.org/namespaces/inkscape"
   xmlns:sodipodi="http://sodipodi.sourceforge.net/DTD/sodipodi-0.dtd"
   xmlns="http://www.w3.org/2000/svg"
   xmlns:svg="http://www.w3.org/2000/svg"><sodipodi:namedview
     id="namedview1"
     pagecolor="#ffffff"
     bordercolor="#000000"
     borderopacity="0.25"
     inkscape:showpageshadow="2"
     inkscape:pageopacity="0.0"
     inkscape:pagecheckerboard="0"
     inkscape:deskcolor="#d1d1d1"
     inkscape:document-units="px"
     showgrid="true"
     showguides="true"
     inkscape:zoom="2.534831"
     inkscape:cx="79.886983"
     inkscape:cy="48.721197"
     inkscape:window-width="1366"
     inkscape:window-height="705"
     inkscape:window-x="1358"
     inkscape:window-y="-8"
     inkscape:window-maximized="1"
     inkscape:current-layer="layer1"><inkscape:grid
       id="grid1"
       units="px"
       originx="0"
       originy="0"
       spacingx="0.26458333"
       spacingy="0.26458333"
       empcolor="#0099e5"
       empopacity="0.30196078"
       color="#0099e5"
       opacity="0.14901961"
       empspacing="5"
       enabled="true"
       visible="true" /><sodipodi:guide
       position="2.5094433,18.198061"
       orientation="1,0"
       id="guide1"
       inkscape:locked="false" /><sodipodi:guide
       position="24.282554,29.416749"
       orientation="0,-1"
       id="guide2"
       inkscape:locked="false" /><sodipodi:guide
       position="29.153826,16.574304"
       orientation="1,0"
       id="guide3"
       inkscape:locked="false" /><sodipodi:guide
       position="7.2331012,2.91998"
       orientation="0,-1"
       id="guide4"
       inkscape:locked="false" /></sodipodi:namedview><defs
     id="defs1" /><g
     inkscape:label="Layer 1"
     inkscape:groupmode="layer"
     id="layer1"><path
       style="fill:#000000"
       d="m 16.263703,15.991834 c 0.04439,-0.186741 0.02315,0.216154 0,0 z"
       id="path8" /><path
       style="fill:#000000"
       d="m 16.263703,15.991834 c 0.04439,-0.186741 0.02315,0.216154 0,0 z"
       id="path7" /><path
       style="fill:#000000"
       d="m 16.263703,15.991834 c 0.04439,-0.186741 0.02315,0.216154 0,0 z"
       id="path6" /><path
       style="fill:#000000"
       d="m 16.263703,15.991834 c 0.04439,-0.186741 0.02315,0.216154 0,0 z"
       id="path5" /><path
       style="fill:#000000"
       d="m 16.263703,15.991834 c 0.04439,-0.186741 0.02315,0.216154 0,0 z"
       id="path4" /><g
       id="g1"
       transform="translate(0.62627447,-1.3053433)"><path
         style="fill:#d2e5f9"
         d="M 13.227681,25.994498 C 12.436124,25.796554 12.760762,24.667153 12.422292,24.347104 10.456066,24.332709 8.4898403,24.318314 6.5236143,24.303919 6.0303004,23.32778 5.8618686,22.206256 5.4959067,21.174782 4.8742595,19.027648 4.1674026,16.902108 3.5955503,14.742435 4.039479,14.215051 4.9173426,14.542319 5.5668911,14.458829 6.028473,14.561719 6.234685,14.39621 6.1460139,13.920773 6.2985882,13.119751 5.9391434,12.162771 6.3749916,11.456709 c 2.9177825,0.0012 5.8361554,0.02668 8.7532194,-0.05219 0.45791,-0.907125 0.88765,-1.8294126 1.382256,-2.7172604 1.680737,-0.1821705 3.396482,-0.108918 5.091557,-0.1739212 1.092234,-0.00317 2.189687,-0.071353 3.278479,-0.00808 0.404291,0.9595966 0.1049,2.1808663 0.224537,3.2356043 -0.0022,0.930252 -0.255941,2.267449 1.124866,1.838904 0.681003,-0.113398 1.476424,0.363563 1.489084,1.083458 -0.0077,3.565989 -0.01533,7.131977 -0.023,10.697965 -0.269181,0.493033 -0.780335,0.880497 -1.359348,0.770092 -4.277854,2.76e-4 -8.555709,5.53e-4 -12.833563,8.3e-4 -0.0918,-0.04587 -0.183596,-0.09174 -0.275394,-0.137617 z m 13.551751,-0.761632 c 0.264455,-0.251885 0.06141,-0.719539 0.127713,-1.06288 0.0071,-3.147775 0.04632,-6.29588 0.01002,-9.443438 -0.243124,-0.66183 -1.104455,-0.286265 -1.652826,-0.378523 -0.180776,0.154484 -0.145981,0.779593 0.304723,0.594714 0.998207,-0.03122 0.606211,1.715584 -0.364055,1.338273 -0.307264,0.740272 0.260223,0.791391 0.830188,0.772394 0.538428,0.812844 0.152858,2.044586 0.257864,3.021373 -0.0455,1.478752 0.01786,2.96363 -0.06775,4.438923 -0.774364,0.336371 -1.79352,0.07733 -2.660169,0.163176 -3.087739,-0.01628 -6.177385,0.0419 -9.26394,-0.03604 -0.471568,-0.758864 -1.452508,0.03459 -0.68439,0.653838 0.460015,0.106207 0.99611,0.01308 1.484675,0.04449 3.851449,0 7.702898,0 11.554347,0 0.0412,-0.03543 0.0824,-0.07086 0.123602,-0.106297 z M 23.160581,16.15109 c -0.368272,-0.4869 0.446977,-1.800919 -0.344872,-1.812296 -1.017559,-0.172691 0.170619,1.014921 0.04897,1.583573 0.09556,0.415893 0.436812,1.429952 0.345578,0.382654 l -0.04969,-0.153925 z M 12.687086,14.270933 c 0.160234,-0.513233 1.390831,-0.795602 0.28285,-0.724322 -1.405503,-0.01333 -2.811074,0.005 -4.2165994,0.0085 -0.2480446,1.071801 0.8076116,0.865922 1.5841854,0.858353 0.758172,0.0014 1.516347,3.75e-4 2.27452,6.74e-4 0.02501,-0.04772 0.05003,-0.09544 0.07504,-0.143166 z m 10.316612,-3.237871 c -0.09802,-0.921927 -1.655784,-0.27026 -2.397447,-0.458207 -0.697633,0.0046 -1.395267,0.0092 -2.0929,0.01378 -0.369236,0.44368 -0.702949,0.98616 0.224247,0.786005 1.422175,0.02068 2.844542,0.02675 4.266774,0.04389 -2.25e-4,-0.12849 -4.49e-4,-0.256979 -6.74e-4,-0.385469 z"
         id="path12" /><path
         style="fill:#a2ccf8"
         d="M 13.276627,25.952891 C 12.421478,25.785941 12.901973,24.48923 12.406562,24.302607 10.453508,24.281 8.4993378,24.294566 6.5473405,24.228962 5.9428768,22.755925 5.6011407,21.173221 5.1034845,19.655984 4.6388025,18.03038 4.0796334,16.427202 3.6863146,14.784163 4.040462,14.239893 5.0117819,14.592741 5.650413,14.502214 c 0.6968413,0.217809 0.5485659,-0.478682 0.5708768,-0.963779 0.095507,-0.817031 -0.3427474,-2.453236 1.0418935,-2.019694 2.6350129,-0.0063 5.2711627,0.01933 7.9052117,-0.06284 0.484115,-0.916482 0.869798,-1.8964496 1.451042,-2.7531386 2.746067,-0.1289744 5.499099,-0.1088539 8.248381,-0.1629561 0.363073,0.736678 0.07668,1.6662837 0.185799,2.4743767 0.01244,0.861682 0.02862,1.723304 0.04326,2.58495 0.813684,0.09614 1.85245,-0.227728 2.391856,0.565427 0.344101,0.9458 0.108703,2.015471 0.179626,3.01374 -0.01886,2.675959 0.02274,5.353398 -0.05104,8.028389 -0.105294,0.631025 -0.787936,0.988982 -1.384531,0.880546 -4.228557,2.76e-4 -8.457113,5.51e-4 -12.68567,8.26e-4 -0.09016,-0.04506 -0.180329,-0.09011 -0.270493,-0.135167 z m 13.406593,-0.58905 c 0.636714,-0.774271 0.194461,-2.013391 0.328769,-2.985826 -0.01554,-2.546643 0.03781,-5.095025 -0.03621,-7.640556 -0.216826,-0.746544 -1.157517,-0.361255 -1.748475,-0.434889 -0.136652,0.09541 -0.225422,0.850532 0.212053,0.679545 0.947483,-0.1917 0.788085,1.555541 -0.148049,1.20762 -0.325112,0.03666 -0.0672,0.62428 -0.150382,0.889566 0.826832,-0.138743 1.315574,0.290365 1.070612,1.182999 -0.01302,2.050636 0.03058,4.104003 -0.04979,6.152954 -0.12752,0.427639 -0.698428,0.132055 -1.028197,0.219085 -3.631235,-0.0118 -7.263736,0.03276 -10.893917,-0.04312 -0.101405,-0.467861 -0.550399,-0.264814 -0.904823,-0.287275 -0.295848,0.989545 0.653046,1.246924 1.469931,1.107877 3.927784,0.0057 7.857682,0.05488 11.784328,-0.02968 l 0.09415,-0.01827 z m -3.414531,-8.727266 c -0.348819,-0.680022 0.270317,-2.00202 -0.349102,-2.331073 -3.035216,-0.01877 -6.071657,-0.03271 -9.106294,0.02819 -0.182656,0.139265 1.215521,0.05748 1.647114,0.08031 2.235438,0.02145 4.47604,-0.09364 6.707927,0.02358 0.655983,0.621117 0.580611,1.771734 0.998097,2.586645 0.14399,0.169798 0.0737,-0.407165 0.102258,-0.387652 z M 12.731138,14.318721 c 0.253317,-0.57291 0.826936,-0.764563 1.393487,-0.677167 3.003919,-0.01623 6.008837,0.01021 9.011906,-0.05811 -4.817804,-0.09032 -9.637544,-0.09047 -14.4563345,-0.09444 -0.056912,0.692848 0.1597117,1.16734 0.953378,0.963496 1.0074765,0.0096 2.0150135,0.0043 3.0225205,0.0057 0.02501,-0.04648 0.05003,-0.09296 0.07504,-0.139438 z m 10.339184,-3.305613 c -0.07095,-0.984343 -1.723803,-0.261475 -2.463392,-0.483532 -0.712093,0.0055 -1.424186,0.01103 -2.136279,0.01655 -0.28759,0.411919 -0.870075,1.065849 0.08325,0.867873 1.505229,0.03562 3.011015,0.02666 4.516551,0.02655 -4.4e-5,-0.142482 -8.9e-5,-0.284965 -1.33e-4,-0.427447 z"
         id="path11" /><path
         style="fill:#84baf2"
         d="M 13.320965,25.947482 C 12.505391,25.747521 12.850677,24.599896 12.510403,24.258996 10.55032,24.221136 8.5842687,24.287298 6.628971,24.15916 6.0979303,23.375691 6.0230874,22.223111 5.6541768,21.308345 5.0237303,19.139083 4.3207005,16.988036 3.7363129,14.807425 c 0.4976949,-0.667431 2.42425,0.376201 2.5291853,-0.718883 0.2838734,-0.769545 -0.4990746,-2.495098 0.612312,-2.470876 2.7537496,-0.06465 5.5115658,0.01077 8.2633228,-0.09858 0.603588,-0.872559 0.883157,-1.9614007 1.541683,-2.7823663 2.65726,-0.099529 5.318812,-0.1266851 7.978054,-0.1220243 0.629557,0.555269 0.160032,1.9807686 0.343048,2.8712786 0.01635,0.719066 0.03261,1.438135 0.04891,2.157202 0.718004,0.08306 1.53141,-0.144443 2.161851,0.268435 0.738741,0.805568 0.270907,2.049696 0.412718,3.050219 -0.01341,2.731606 0.0376,5.464866 -0.03611,8.195418 -0.312336,1.311555 -1.915395,0.741195 -2.877262,0.878829 -3.734318,0.01128 -7.468661,0.0029 -11.202991,0.0035 -0.06335,-0.03071 -0.126711,-0.06142 -0.190066,-0.09212 z m 13.455463,-0.573586 c 0.520726,-0.800978 0.170785,-1.976311 0.280168,-2.930793 -0.02401,-2.563153 0.05702,-5.129721 -0.05287,-7.690618 -0.105219,-0.725223 -1.740749,-0.73762 -1.921899,-0.209571 -0.304104,0.861326 0.965541,0.132989 0.912691,0.840916 0.42796,0.998101 -0.883887,0.463708 -0.904622,1.009412 -0.431014,1.193145 1.430517,0.300641 1.074818,1.4668 0.007,2.155554 0.03894,4.312691 -0.02083,6.467449 -0.06143,0.491991 -0.717004,0.17133 -1.061485,0.262799 -3.605574,-0.0058 -7.211476,0.0169 -10.816768,-0.02592 -0.09398,-0.578823 -1.27436,-0.419381 -0.990534,0.251342 0.280729,1.130179 1.861254,0.465154 2.733527,0.649864 3.564167,-0.02753 7.132088,0.04493 10.69383,-0.06826 l 0.07395,-0.02341 z m -3.4474,-8.371698 c -0.05478,-0.907888 -0.138537,-1.796027 -0.15823,-2.709239 -2.951835,-0.103884 -5.911441,-0.04619 -8.866053,-0.036 -0.380085,-0.07229 -1.216831,0.187671 -0.329743,0.158159 2.748519,0.06662 5.503283,-0.0468 8.248383,0.0788 0.538482,0.773177 0.495909,1.801998 0.94569,2.608003 0.06825,0.01244 0.140594,-0.03315 0.159953,-0.09973 z M 12.663132,14.458853 c 0.40173,-0.972614 1.524232,-0.765898 2.372507,-0.784851 2.648373,-0.02726 5.297634,0.02099 7.945464,-0.03921 0.577834,-0.247313 -0.951482,-0.13066 -1.197403,-0.1694 -4.362742,-0.03334 -8.72655,-0.08087 -13.088998,-0.02939 -0.3242847,0.908129 0.2691505,1.317133 1.1109297,1.100419 0.9450033,-0.04158 1.9345883,0.104637 2.8575003,-0.07757 z M 23.09222,11.484912 c 0.508462,-1.5545695 -1.317018,-0.922903 -2.204771,-1.012416 -0.966761,0.186511 -2.460665,-0.466502 -2.931091,0.731632 0.0308,0.610951 1.553112,0.141976 2.126647,0.312349 0.998291,-0.02 2.023417,0.101009 3.009215,-0.03157 z"
         id="path10" /><path
         style="fill:#78bafd"
         d="M 13.406931,25.939639 C 12.304202,25.645754 13.206247,23.775221 11.803258,24.20228 10.093939,24.170635 8.3822044,24.232941 6.6743402,24.159126 6.1680328,23.479243 6.108925,22.446972 5.7786501,21.630505 5.1166444,19.348242 4.3761346,17.084926 3.7566748,14.792755 c 0.5179659,-0.621871 2.2091761,0.286853 2.5061221,-0.511295 0.1610672,-0.864732 -0.230221,-2.067598 0.3011665,-2.709756 2.8834252,0.04912 5.7689116,0.02777 8.6523346,-0.03514 0.474526,-0.924101 0.893069,-1.8806948 1.436391,-2.7665369 2.682148,-0.070912 5.366547,-0.1246133 8.049653,-0.1097165 0.508136,0.6738427 0.129454,1.9967204 0.270553,2.9212384 0.09076,0.910627 -0.37627,2.537717 1.075196,2.128942 1.245255,-0.283789 1.733332,0.963266 1.529431,1.977392 -0.0025,3.161949 0.05018,6.325704 -0.02294,9.48653 -0.388753,1.269491 -1.984153,0.653113 -2.959411,0.816641 -3.729011,0.0054 -7.460542,0.04103 -11.188236,-0.05141 z m 13.350005,-0.519913 c 0.639167,-0.806281 0.17825,-2.081191 0.327394,-3.078723 0.0077,-2.533994 0.01225,-5.067997 0.01836,-7.601995 -0.206287,-0.718759 -2.063119,-0.88001 -2.071221,-0.07315 0.0031,0.712467 1.357051,0.139152 0.913569,1.190556 -0.296202,0.408563 -1.234476,0.06566 -0.9133,0.970271 -0.03108,0.782273 1.462156,-0.07846 1.105551,0.972969 0.01391,2.207017 0.0066,4.414672 -0.03172,6.621341 -0.987435,0.293239 -2.198338,0.06179 -3.268504,0.149461 -2.81161,0.0048 -5.62397,0.03423 -8.435121,-0.01481 -0.645381,-1.033966 -1.794442,0.219033 -0.82946,0.861046 2.307807,0.175925 4.632795,0.05184 6.947668,0.0847 2.077068,-0.03419 4.166943,0.06026 6.23679,-0.08167 z M 23.347264,16.65049 c -0.339193,-0.726525 0.317653,-2.053376 -0.389781,-2.439402 -3.088132,-0.0093 -6.178208,-0.03726 -9.265217,0.03997 -0.642671,0.376638 1.20982,0.160462 1.612234,0.225807 2.297426,0.01077 4.594946,-9.09e-4 6.89233,0.01615 0.523744,0.791182 0.491716,1.835512 0.965947,2.637367 0.272778,0.06897 0.140814,-0.343999 0.184487,-0.479894 z M 12.694501,14.491196 c 0.248684,-0.457117 0.688058,-0.884954 1.24383,-0.76105 3.035141,-0.0181 6.071226,0.01375 9.105571,-0.05346 0.665975,-0.275834 -0.950967,-0.186203 -1.154552,-0.215795 -4.422635,-0.03033 -8.845452,-0.02492 -13.2681713,-0.03797 0.085703,0.402229 -0.2320995,1.291779 0.4264784,1.123344 1.2147059,-0.01965 2.4383759,0.05034 3.6468439,-0.05507 z M 23.12772,11.497817 c 0.134549,-0.507254 0.115821,-1.317446 -0.597582,-1.065209 -1.373831,0.03652 -2.764114,-0.05527 -4.124732,0.09784 -0.604805,0.534587 -0.750893,1.225895 0.277267,0.978624 1.479333,-0.01351 2.972793,0.08917 4.445047,-0.01125 z"
         id="path9" /><path
         style="fill:#4b97e6"
         d="m 13.406931,25.939639 c -1.10829,-0.583149 -0.629991,-2.055049 -0.763049,-3.069278 -0.0095,-2.743618 0.0039,-5.487255 0.0064,-8.23088 0.207986,-0.503706 0.637718,-1.026177 1.235165,-0.910991 4.07033,-0.0065 8.141808,-0.110346 12.211227,-0.02533 1.389054,-0.270668 1.632604,1.192623 1.483398,2.225701 -0.01258,3.044376 0.05847,6.091051 -0.03281,9.134042 -0.169126,1.340286 -1.82806,0.817702 -2.749378,0.93037 -3.796424,-0.01667 -7.596831,0.05208 -11.390969,-0.05363 z m 13.32832,-0.510026 c 0.691722,-0.780966 0.225863,-2.058861 0.364827,-3.055636 0.0012,-2.557843 -1.67e-4,-5.115687 -2.52e-4,-7.673531 -0.461119,-0.906808 -1.681394,-0.308859 -2.486368,-0.462549 -3.612054,0.01329 -7.22515,-0.06933 -10.836505,-0.0095 -0.892215,0.503429 -0.216644,2.028328 -0.454396,2.928729 -0.02084,2.615758 -0.04593,5.232236 -0.05819,7.847563 0.556604,0.926073 2.018066,0.330663 2.970446,0.50639 3.42245,-0.01326 6.846305,0.0397 10.267869,-0.03417 l 0.232588,-0.04733 z M 14.286623,24.505986 c -0.335535,-0.882915 -0.103232,-1.936383 -0.17974,-2.885227 0.01943,-1.467995 -0.0489,-2.94193 0.05682,-4.405669 1.42465,-0.154857 2.892061,-0.03603 4.332578,-0.07335 2.50023,0.02648 5.00468,-0.04555 7.502045,0.07444 0.265981,0.969264 0.06399,2.188494 0.13371,3.252099 -0.02764,1.334996 0.06412,2.682363 -0.06915,4.008706 -2.307173,0.136661 -4.629525,0.03718 -6.942595,0.06784 -1.611082,-0.0087 -3.223295,0.0072 -4.833663,-0.03884 z m 7.222247,-8.457659 c -0.501995,-0.801033 0.633067,-1.555979 1.049709,-0.782459 0.01908,0.429773 0.199028,1.049468 -0.450837,0.855759 -0.183455,-0.03167 -0.460929,0.08623 -0.598872,-0.0733 z m 1.761369,-0.0014 c -0.309836,-0.798844 0.182595,-1.316676 1.002853,-0.963245 0.287344,0.917264 -0.139805,1.293175 -1.002853,0.963245 z m 1.66108,0.03112 c -0.401821,-0.807693 0.175037,-1.294653 0.969518,-0.948001 0.295847,0.887933 -0.189301,1.082334 -0.969518,0.948001 z"
         id="path3" /><path
         style="fill:#2a8bf1"
         d="m 13.573427,25.91491 c -1.126139,-0.287472 -0.719321,-1.646535 -0.806484,-2.496625 -0.01704,-2.928057 -0.01731,-5.856181 -0.02553,-8.784272 0.222836,-0.852972 1.145809,-0.959237 1.890893,-0.866259 3.975099,8e-4 7.952394,-0.07233 11.926137,0.02579 1.292245,0.06059 0.913151,1.684657 0.981901,2.558528 -0.01577,2.944842 0.04366,5.891888 -0.04374,8.835316 -0.409159,1.170963 -1.877857,0.601095 -2.802534,0.751713 -3.706686,0.0096 -7.414556,0.03905 -11.120637,-0.02419 z m 13.263527,-0.466841 c 0.575238,-0.774674 0.187184,-1.983619 0.307989,-2.93666 0.0012,-2.613123 0.0015,-5.226246 0.0024,-7.839369 -0.48237,-0.895863 -1.753741,-0.340029 -2.584469,-0.508136 -3.640208,-0.01185 -7.280442,-0.01314 -10.920663,-0.01956 -0.751439,0.549842 -0.243379,1.702633 -0.410105,2.49992 0.01042,2.80106 -0.06779,5.604768 0.02723,8.40414 0.411389,0.948618 1.930532,0.311414 2.80255,0.503305 3.525413,-0.01976 7.052628,0.03145 10.576878,-0.05218 l 0.19815,-0.05147 z M 14.38658,24.45807 c -0.390927,-0.812082 -0.09513,-1.874565 -0.196616,-2.781916 0.0092,-1.463847 -0.0248,-2.931382 0.06255,-4.392453 3.702204,-0.09293 7.41066,-0.06727 11.114882,-0.03088 1.241593,-0.167842 0.501218,1.569895 0.695473,2.331099 -0.03021,1.598075 0.0456,3.212885 -0.08374,4.799768 -1.047791,0.210298 -2.245426,0.04719 -3.347859,0.109317 -2.748011,-0.0014 -5.497469,0.02558 -8.244688,-0.03494 z m 7.336392,-8.459392 c -0.874853,-1.230305 1.495387,-1.095766 0.652676,0.0083 -0.215888,0.02717 -0.437071,0.01641 -0.652676,-0.0083 z m 1.614093,-0.05374 c -0.317555,-0.745531 0.177425,-1.037704 0.827171,-0.740685 0.266563,0.736882 -0.216154,0.943713 -0.827171,0.740685 z m 1.671491,-0.0074 c -0.282138,-0.679298 0.354762,-1.075291 0.848516,-0.626033 0.165887,0.746509 -0.252421,0.717402 -0.848516,0.626033 z"
         id="path2" /><path
         style="fill:#1a7ce4"
         d="m 13.477372,25.872883 c -1.089596,-0.535082 -0.509053,-1.949806 -0.665127,-2.912746 -0.0042,-2.797281 -0.0041,-5.594566 -0.0061,-8.391849 0.334738,-1.07973 1.59322,-0.672007 2.43571,-0.759878 3.806676,-0.0042 7.615011,-0.06094 11.42076,0.01033 1.318539,0.340343 0.741355,1.968097 0.877137,2.956012 0.0037,2.763989 0.0014,5.527982 0.002,8.291972 -0.298705,1.005675 -1.403121,0.843536 -2.228351,0.832922 -3.945232,0.0051 -7.891227,0.01973 -11.836045,-0.02676 z m 13.440591,-0.401561 c 0.501121,-0.843918 0.167127,-2.00277 0.270965,-2.976734 9.6e-4,-2.598501 2.13e-4,-5.197003 4.48e-4,-7.795505 -0.420668,-0.979404 -1.709655,-0.392539 -2.539118,-0.540017 -3.681369,0.03456 -7.364563,-0.05525 -11.044835,0.01605 -0.739165,0.587605 -0.235618,1.893566 -0.390832,2.775448 0.01439,2.731159 -0.02286,5.467408 -0.01423,8.195212 0.134778,0.499774 0.631979,0.493813 1.047633,0.458159 4.174302,-0.0075 8.348603,-0.01501 12.522905,-0.02252 0.04902,-0.0367 0.09804,-0.07339 0.147061,-0.110092 z"
         id="path1" /></g></g></svg>
