<?xml version="1.0" encoding="UTF-8" standalone="no"?>
<!-- Created with Inkscape (http://www.inkscape.org/) -->

<svg
   width="32mm"
   height="32mm"
   viewBox="0 0 32 32"
   version="1.1"
   id="svg1"
   xml:space="preserve"
   inkscape:version="1.4.3 (0d15f75, 2025-12-25)"
   sodipodi:docname="folder_type_backend_opened.svg"
   xmlns:inkscape="http://www.inkscape.org/namespaces/inkscape"
   xmlns:sodipodi="http://sodipodi.sourceforge.net/DTD/sodipodi-0.dtd"
   xmlns="http://www.w3.org/2000/svg"
   xmlns:svg="http://www.w3.org/2000/svg"><sodipodi:namedview
     id="namedview1"
     pagecolor="#ffffff"
     bordercolor="#000000"
     borderopacity="0.25"
     inkscape:showpageshadow="2"
     inkscape:pageopacity="0.0"
     inkscape:pagecheckerboard="0"
     inkscape:deskcolor="#d1d1d1"
     inkscape:document-units="mm"
     showgrid="true"
     showguides="true"
     inkscape:zoom="2.534831"
     inkscape:cx="116.77307"
     inkscape:cy="34.519066"
     inkscape:window-width="1366"
     inkscape:window-height="705"
     inkscape:window-x="1358"
     inkscape:window-y="-8"
     inkscape:window-maximized="1"
     inkscape:current-layer="layer1"><inkscape:grid
       id="grid1"
       units="mm"
       originx="0"
       originy="0"
       spacingx="0.99999997"
       spacingy="0.99999997"
       empcolor="#0099e5"
       empopacity="0.30196078"
       color="#0099e5"
       opacity="0.14901961"
       empspacing="5"
       enabled="true"
       visible="true" /><sodipodi:guide
       position="23.765904,30.007206"
       orientation="0,-1"
       id="guide1"
       inkscape:locked="false" /><sodipodi:guide
       position="2.0666003,23.733598"
       orientation="1,0"
       id="guide2"
       inkscape:locked="false" /><sodipodi:guide
       position="12.916252,1.960487"
       orientation="0,-1"
       id="guide3"
       inkscape:locked="false" /><sodipodi:guide
       position="29.965705,20.412276"
       orientation="1,0"
       id="guide4"
       inkscape:locked="false" /></sodipodi:namedview><defs
     id="defs1" /><g
     inkscape:label="Layer 1"
     inkscape:groupmode="layer"
     id="layer1"><g
       id="g1"
       transform="matrix(1.0408529,0,0,1.0408529,-0.02113171,-1.6761462)"><path
         style="fill:#74d3fd"
         d="m 21.717883,25.276365 c -2.807221,-0.08263 -5.617321,-0.01548 -8.424591,-0.09391 -0.590152,-0.0317 0.116606,-1.262736 -0.618472,-1.045959 -1.945318,-0.01924 -3.8924312,0.01758 -5.8362898,-0.05425 C 6.19196,23.456591 6.2482231,22.289645 5.8552608,21.464487 5.2104994,19.24738 4.4926766,17.046532 3.8948373,14.818656 c 0.4028628,-0.862072 2.1894091,0.212245 2.4843863,-0.62174 0.1284448,-0.834326 -0.1529801,-1.925025 0.2321668,-2.598274 2.8348923,-0.07512 5.6732736,0.01652 8.5082786,-0.08619 0.457453,-0.878626 0.856384,-1.7911128 1.371554,-2.6371409 0.937186,-0.2397472 1.992593,-0.084909 2.973269,-0.1603826 1.716612,-0.013848 3.434027,-0.076722 5.150314,-0.039429 0.455124,0.5652202 0.126997,1.6222881 0.256419,2.3752301 0.01315,0.640595 0.0263,1.281189 0.03945,1.921784 0.497454,0.08582 1.395672,-0.206715 1.416979,0.535391 -0.03026,0.493327 0.795086,0.357171 0.535491,1.059132 0.06196,2.547172 -0.07879,5.09482 -0.02335,7.64299 -0.02691,0.996778 0.06951,2.008948 -0.0651,2.995405 -0.918875,0.19552 -1.914913,0.04654 -2.862445,0.09924 -0.731306,-0.0049 -1.463861,0.0082 -2.19436,-0.02831 z M 12.93263,14.239337 c -0.142517,-0.554165 1.440038,-0.52546 0.37251,-0.62267 -1.456422,0 -2.912843,0 -4.3692643,0 -0.22772,1.017485 0.8048196,0.864337 1.5367603,0.829489 0.818985,-0.0036 1.63796,-0.0091 2.45694,-0.01357 0.001,-0.06442 0.002,-0.128829 0.0031,-0.193244 z m 5.034573,-0.50458 c -0.203928,-0.282125 -0.191799,0.297914 0,0 z m 4.277997,0.03707 c -0.102913,-0.343992 -0.412433,0.182894 -2e-6,-2e-6 z m 0.557265,-2.636978 c -0.148393,-0.879352 -1.69675,-0.216589 -2.434645,-0.414565 -0.632864,0.0064 -1.265729,0.01278 -1.898594,0.01918 -0.375943,0.43905 -0.571389,0.945133 0.276837,0.748807 1.353269,0.02842 2.706911,0.02592 4.060406,0.02417 -0.0013,-0.125864 -0.0027,-0.251728 -0.004,-0.377592 z"
         id="path7" /><path
         style="fill:#38c1fd"
         d="m 21.689948,25.210685 c -2.838286,-0.04852 -5.678142,-0.0073 -8.515874,-0.08016 -0.03502,-0.588831 0.03097,-1.275114 -0.787668,-1.049343 -1.856146,-0.01412 -3.712385,-0.0055 -5.5685743,-0.0079 C 6.3068056,23.252666 6.2199714,22.221489 5.8771626,21.31885 5.2349499,19.15092 4.5569163,16.985292 3.9378657,14.815629 c 0.5229981,-0.692093 1.9224207,0.07338 2.4784401,-0.444936 0.061398,-0.89557 0.00299,-1.799907 0.1126323,-2.690812 1.7879752,-0.144084 3.5999719,-0.02731 5.3969489,-0.07268 1.078678,-0.0036 2.157393,-0.01403 3.235474,-0.0518 0.451203,-0.870003 0.841186,-1.7754341 1.352395,-2.6115551 0.939429,-0.2904648 2.009953,-0.1104358 3.002637,-0.1880008 1.709417,-0.024299 3.418855,-0.047163 5.128282,-0.070782 0.320762,0.7488914 0.09353,1.6586726 0.183548,2.4679526 0.114456,0.767811 -0.36431,2.271241 0.908546,1.928245 0.745767,-0.04385 0.383014,0.958981 1.023423,1.002535 0.171229,2.259391 -0.07942,4.52336 -0.0066,6.78617 2.79e-4,1.436327 0.01622,2.872955 -0.0067,4.309098 -1.67823,0.104987 -3.37364,0.03286 -5.056948,0.03162 z M 12.983643,14.447221 c -0.397402,-0.723707 1.352221,-0.516724 0.611196,-0.894906 -1.567299,0.0071 -3.134598,0.01427 -4.7018973,0.0214 -0.1079928,0.728218 0.2114337,1.105384 0.9908517,0.923404 1.0328556,-0.0043 2.0691926,0.0217 3.0998496,-0.0499 z m 5.032968,-0.613782 c 0.06325,-0.711514 -0.620785,0.263549 0,0 z m 4.246089,0.02463 c 0.137777,-0.602193 -0.693382,0.149697 -3e-6,-5e-6 z m 0.586582,-2.719347 c -0.06222,-0.954069 -1.656297,-0.25112 -2.367919,-0.463508 -0.685027,0.0071 -1.370053,0.01422 -2.05508,0.02132 -0.249556,0.366164 -0.784139,0.981948 0.05747,0.813345 1.454653,0.04931 2.910347,0.04836 4.365659,0.04556 -4.3e-5,-0.138906 -8.7e-5,-0.277812 -1.3e-4,-0.416718 z"
         id="path6" /><path
         style="fill:#00b0fd"
         d="m 21.732891,25.210814 c -2.852939,-0.04858 -5.707413,-0.0087 -8.559819,-0.08091 -0.0425,-0.593818 0.05537,-1.325027 -0.78686,-1.091666 -1.856677,-0.01412 -3.7134465,-0.0055 -5.5701666,-0.0079 -0.4611351,-0.913665 -0.6196891,-1.966511 -0.957737,-2.934175 -0.6305887,-2.090028 -1.2650349,-4.184239 -1.8785951,-6.27624 0.5749689,-0.534114 1.6916936,-0.06227 2.4661954,-0.281161 0.071516,-0.940742 0.033088,-1.886933 0.10335,-2.827754 2.8058291,-0.104752 5.6172153,-0.01605 8.4240443,-0.102673 0.748408,-0.560266 0.954563,-1.7645493 1.521775,-2.5609097 0.786168,-0.4247072 1.897126,-0.112409 2.80291,-0.2420225 1.786681,-0.00295 3.580065,-0.1080099 5.362587,-0.022706 0.189998,0.9299173 0.07693,1.9399511 0.134051,2.9016351 -0.02051,0.750833 -0.128729,1.725537 0.941055,1.398394 0.682346,-0.0086 0.414889,0.953442 1.018674,1.023583 0.122875,2.53447 -0.06486,5.071654 3.82e-4,7.608033 -0.0068,1.15464 0.026,2.311526 -0.02987,3.464736 -1.65709,0.10419 -3.330228,0.03322 -4.991976,0.03174 z M 13.01238,14.468068 c -0.434731,-0.729377 1.36731,-0.535515 0.582469,-0.958696 -1.581614,0.0071 -3.163227,0.01427 -4.7448413,0.02141 -0.086959,0.697359 0.1463401,1.235467 0.9682083,1.005083 1.059297,-0.03059 2.154627,0.08469 3.194164,-0.0678 z m 5.027413,-0.744047 c -0.384985,-0.626438 -0.352387,0.611247 0,0 z m 4.251357,0 c -0.433011,-0.641213 -0.415514,0.624706 0,0 z m 0.613525,-2.447752 c 0.206986,-0.674395 -0.241573,-0.73476 -0.739515,-0.657653 -1.234005,0.02136 -2.472159,-0.02498 -3.70274,0.05971 -0.540843,0.367701 -0.771605,1.134391 0.152652,0.897331 1.425491,0.03329 2.85151,0.02208 4.277277,0.02269 0.0041,-0.107358 0.0082,-0.214717 0.01233,-0.322075 z"
         id="path5" /><path
         style="fill:#0087c3"
         d="m 21.732891,25.210814 c -2.85738,-0.0592 -5.719089,0.01224 -8.574193,-0.09678 -0.09308,-1.706329 -0.06547,-3.420935 -0.134736,-5.129692 -0.0093,-2.00068 -0.04077,-4.002726 0.01126,-6.00266 0.447944,-0.09786 0.941337,8.45e-4 0.738901,-0.618124 -0.311206,-0.920517 0.683916,-0.695516 1.245298,-0.713107 0.351779,-0.06872 0.417985,0.522298 0.808794,0.371014 0.605564,0.02964 1.223482,-0.02115 1.818328,0.09562 -0.01587,0.389961 0.384754,1.211733 0.38288,0.416754 -0.253152,-0.796758 0.384082,-1.015936 1.058985,-0.88339 0.396245,-0.164729 0.50634,0.31813 0.810528,0.367412 0.656021,0.021 1.314787,0.007 1.96823,0.07202 -0.0571,0.37437 0.3594,1.246551 0.415338,0.500704 -0.307806,-0.962809 0.58371,-1.071066 1.333979,-0.926731 0.584868,0.595085 1.534658,0.331531 2.317903,0.429219 0.511065,0.113523 0.134585,0.968973 0.799029,0.884848 0.171572,2.373204 -0.04671,4.756046 0.01935,7.133814 -0.0066,1.355485 0.03173,2.713279 -0.02791,4.067331 -1.657077,0.104195 -3.330267,0.03321 -4.99196,0.03174 z m -7.974516,-2.735009 c -0.14038,-0.853004 0.207876,-1.417221 1.100287,-1.193815 0.401405,-0.161552 0.479975,0.440843 0.83608,0.386487 0.614991,0 1.229981,0 1.844971,0 0.15771,0.316326 0.429055,1.365806 0.521072,0.452453 -0.276492,-0.905155 0.592117,-0.891244 1.218703,-0.83894 0.338091,0.0047 0.447867,0.55345 0.858023,0.386487 0.567823,0.02492 1.160341,-0.06597 1.708196,0.07099 -0.08951,0.449179 0.437387,1.227448 0.466663,0.397074 -0.282165,-0.916932 0.591957,-0.909956 1.229923,-0.854551 0.341205,-0.0082 0.427195,0.560955 0.841899,0.386487 0.578059,0.03664 1.20075,-0.101855 1.741425,0.106072 -0.06597,0.57394 0.366152,0.98396 0.312051,0.234817 0.149221,-0.687378 0.03815,-1.259829 -0.82095,-1.013477 -4.064355,-0.02624 -8.12887,-0.01001 -12.193298,-0.0145 0.08901,0.392874 -0.145639,1.523758 0.334955,1.494417 z m 0,-4.251357 c -0.135216,-0.842949 0.197282,-1.418294 1.087515,-1.193816 0.411174,-0.14894 0.490227,0.493418 0.883769,0.386487 0.598964,0.02377 1.212426,-0.06351 1.799039,0.06458 0.07209,0.261769 0.288476,1.241195 0.530748,0.536113 -0.282343,-0.896772 0.438272,-1.116354 1.154348,-0.987175 0.356356,-0.06252 0.424972,0.54669 0.823173,0.386487 0.570386,0 1.140772,0 1.711158,0 0.152422,0.303037 0.184678,1.335099 0.562744,0.602337 -0.285368,-0.905161 0.447028,-1.11653 1.165887,-0.988832 0.36322,-0.07284 0.424618,0.547812 0.826347,0.386487 0.588605,0.01843 1.189518,-0.0504 1.768036,0.05984 0.08413,0.300768 0.261918,1.202498 0.355608,0.400572 -0.08564,-0.338249 0.193403,-1.052073 -0.08368,-1.211889 -4.314038,0.0079 -8.628779,-0.0095 -12.942246,0.05431 0.05172,0.363566 -0.287132,1.710607 0.357551,1.504506 z"
         id="path4" /><path
         style="fill:#0683ba"
         d="m 21.732891,25.210814 c -2.856093,-0.05509 -5.715175,0.0046 -8.569794,-0.09238 -0.100322,-1.541201 0.03918,-3.086664 -0.07338,-4.628897 -0.02655,-2.168825 -0.06614,-4.342928 -0.05228,-6.508858 0.445873,-0.09565 0.933687,1.97e-4 0.762187,-0.617191 -0.232806,-0.87496 0.724972,-0.645426 1.266132,-0.670093 0.285173,0.103985 0.438399,0.514393 0.833066,0.37331 0.553161,0.01155 1.106322,0.0231 1.659483,0.03464 0.08033,0.386378 0.466644,1.236458 0.494789,0.432586 -0.210288,-0.823289 0.443943,-0.926659 1.096175,-0.840264 0.389954,-0.143303 0.441096,0.480745 0.820278,0.369431 0.616065,0.01275 1.23213,0.02549 1.848195,0.03824 -0.03328,0.460239 0.478389,1.215815 0.486712,0.432588 -0.349664,-1.071525 1.151525,-1.071821 1.648632,-0.549424 0.682871,0.392402 2.129759,-0.423877 2.318582,0.605408 0.0089,0.487726 0.778662,0.296031 0.508501,0.991283 0.0536,2.582394 -0.07913,5.165033 -0.02381,7.748321 -0.104307,0.912114 0.203564,2.149615 -0.166246,2.875445 -1.618158,0.04639 -3.238629,0.02318 -4.857225,0.0058 z m 4.680463,-1.298565 c 0.225181,-0.941733 -0.286171,-1.253216 -1.160748,-1.075247 -1.564851,-0.003 -3.129809,-0.0011 -4.694564,0.01714 0.575633,-0.277074 1.527707,0.44406 0.642676,0.713727 -0.89101,0.0073 -1.818789,0.116686 -2.689685,-0.0244 0.02876,-0.513646 -0.04378,-0.808046 -0.609554,-0.67265 -1.424637,0.01358 -2.852137,-0.03565 -4.274458,0.03614 -0.228036,0.483619 -0.07678,1.136563 -0.117717,1.694485 -0.05318,0.40418 0.587779,0.116313 0.851603,0.204445 4.026816,0.01411 8.053641,0.0396 12.080245,0.08329 -0.0093,-0.325643 -0.01853,-0.651285 -0.0278,-0.976928 z M 13.784923,22.544214 c 0.01283,-0.723773 0.08952,-1.422613 1.018788,-1.176337 0.44408,-0.187778 0.52819,0.406398 0.914762,0.343544 0.592767,0 1.185534,0 1.778301,0 0.159246,0.260834 0.361925,1.318112 0.605674,0.590195 -0.279033,-0.952684 0.520556,-1.00218 1.23649,-0.933738 0.289332,0.148378 0.492952,0.482946 0.914762,0.343544 0.555035,0.102212 1.624437,-0.341964 1.615501,0.472844 0.09983,0.900042 0.782827,-0.01761 0.499423,-0.529005 0.08948,-0.522953 0.990436,-0.253823 1.382306,-0.243125 0.162006,0.402851 0.571067,0.290219 0.9218,0.299289 0.542619,0.07115 1.587665,-0.295259 1.469272,0.581316 0.342312,0.772802 0.568004,-1.03649 0.31673,-1.319319 -3.228501,-0.116933 -6.465267,-0.04322 -9.696937,-0.07133 -1.11157,0.0072 -2.224188,-0.01203 -3.334964,0.03026 0.02709,0.397729 -0.245809,1.697018 0.358092,1.611859 z m 3.624563,-0.201982 c -0.525258,-0.532513 -1.753152,-0.111801 -2.544595,-0.235684 -0.574583,-0.236543 -0.915976,0.557869 -0.119267,0.369913 0.883356,0.0035 1.766686,-0.0087 2.650024,-0.01353 0.0046,-0.04023 0.0092,-0.08046 0.01384,-0.120695 z m 4.151633,-0.05108 c 0.02677,-0.367665 -0.600608,-0.08679 -0.851575,-0.179094 -0.703559,0.01659 -1.432664,-0.07167 -2.116111,0.05097 -0.123996,0.631499 1.266893,0.193821 1.793442,0.308647 0.391415,-0.0029 0.782829,-0.0058 1.174244,-0.0088 0,-0.05726 0,-0.114513 0,-0.17177 z m 3.757513,0.155387 c 0.371111,0.168591 0.776041,-0.333939 0.266758,-0.329114 -0.886895,-0.0029 -1.774327,-0.02967 -2.660831,0.0015 -0.404206,0.507727 0.338756,0.345747 0.641427,0.361248 0.584288,-0.0032 1.16895,-0.0083 1.752646,-0.03364 z m 1.087955,-2.766651 c 0.19978,-0.845205 -0.171841,-1.244691 -1.020531,-1.047756 -3.966592,-0.0067 -7.934578,-0.04638 -11.900419,0.02653 -0.0067,0.42216 -0.327838,1.807011 0.207849,1.936536 4.240044,0.02011 8.480139,0.02334 12.720223,0.02117 -0.0024,-0.312159 -0.0047,-0.624317 -0.0071,-0.936476 z m -7.887264,-0.401903 c -0.160851,-1.031544 1.43018,-0.392211 2.0743,-0.572095 0.469245,-0.254757 1.350357,0.322456 0.637284,0.588928 -0.903145,0.01622 -1.809271,0.02625 -2.711584,-0.01683 z m -4.718005,-1.010592 c -0.03358,-0.71984 0.06208,-1.380034 0.936974,-1.150871 0.437826,-0.181309 0.54886,0.319238 0.888141,0.343544 0.628608,0.02173 1.273157,-0.05664 1.889191,0.0617 -0.08474,0.468439 0.494562,1.264019 0.587823,0.427865 -0.314341,-1.001446 0.632605,-0.843996 1.271372,-0.833106 0.213655,0.287757 0.500571,0.422656 0.890055,0.343544 0.556785,0.09418 1.674973,-0.337652 1.586748,0.529117 -0.07488,0.714218 0.875063,0.136683 0.507444,-0.409764 0.05433,-0.957855 1.362592,-0.301088 1.818326,-0.11934 0.632832,0.03827 1.308195,-0.101026 1.906402,0.104847 -0.08138,0.453847 0.405065,1.164619 0.386727,0.298456 0.07593,-0.694548 0.214621,-1.571057 -0.793217,-1.238793 -4.120449,0.0012 -8.24084,0.02602 -12.361252,0.04104 0.01911,0.526045 -9.61e-4,1.055957 0.07117,1.578155 0.103498,0.102989 0.29653,0.09965 0.414096,0.02361 z m 3.529915,-0.176067 c -0.532011,-0.540966 -1.766097,-0.101413 -2.556531,-0.239321 -0.97353,0.05059 -0.282266,0.582017 0.314035,0.377571 0.747481,0.0061 1.494997,0.0025 2.242495,0.0035 0,-0.04724 1e-6,-0.09448 1e-6,-0.14172 z m 4.186943,-0.05153 c 0.02677,-0.367645 -0.600604,-0.08723 -0.85157,-0.179717 -0.683983,0.01377 -1.385431,-0.06597 -2.055557,0.04944 -0.191429,0.622694 1.242128,0.20287 1.754357,0.310762 0.384257,-0.0029 0.768513,-0.0058 1.15277,-0.0087 0,-0.05726 0,-0.114516 0,-0.171774 z m 4.351082,0.05108 c -0.514653,-0.531445 -1.730699,-0.113608 -2.511718,-0.236668 -0.82947,-0.101844 -0.53422,0.61504 0.09489,0.375278 0.800996,-0.006 1.601992,-0.01194 2.402988,-0.01792 0.0046,-0.04023 0.0092,-0.08046 0.01384,-0.120694 z m 0.608835,-2.600197 c -0.09111,-0.450658 0.274473,-1.479183 -0.50881,-1.251341 -4.204336,0.01703 -8.411141,-0.04419 -12.613545,0.04822 -0.01717,0.685822 0.05315,1.370949 0.0835,2.055983 4.346284,0 8.692568,0 13.038852,0 10e-7,-0.284287 2e-6,-0.568575 3e-6,-0.852862 z M 18.54738,14.934093 c -0.280988,-0.970069 1.179952,-0.423528 1.739794,-0.565926 0.375241,0 0.750483,0 1.125724,0 0.362355,1.020781 -1.235287,0.450192 -1.795601,0.612398 -0.354135,-0.0161 -0.724145,0.04059 -1.069917,-0.04647 z m -1.194675,-1.253015 c -0.02868,-0.324429 -0.636499,-0.07402 -0.908355,-0.157073 -0.706823,-0.0053 -1.413645,-0.01054 -2.120467,-0.01581 -0.151986,0.678868 1.230001,0.203633 1.719557,0.332785 0.436421,-0.0032 0.872842,-0.0064 1.309263,-0.0096 10e-7,-0.0501 10e-7,-0.100194 2e-6,-0.150291 z m 4.221742,0.01074 c -0.04349,-0.340286 -0.640374,-0.08457 -0.921678,-0.168729 -0.691943,0.01697 -1.412943,-0.07028 -2.082493,0.04862 -0.01411,0.57282 1.301086,0.156887 1.833606,0.281139 0.39463,0 0.789261,0 1.183891,0 -0.0044,-0.05368 -0.0089,-0.107355 -0.01333,-0.161032 z m 4.323916,-0.01074 c -0.02868,-0.324432 -0.636499,-0.07407 -0.908355,-0.157153 -0.715141,0.006 -1.435351,-0.04475 -2.146256,0.03301 -0.283737,0.50401 0.471633,0.224811 0.736052,0.291223 0.772852,-0.0056 1.545704,-0.01119 2.318556,-0.01679 1e-6,-0.0501 2e-6,-0.100197 3e-6,-0.150296 z"
         id="path3" /><path
         style="fill:#0075a9"
         d="m 21.732891,25.168052 c -2.848321,-0.03778 -5.697111,-0.03447 -8.545658,-0.05001 -0.08117,-1.773674 -0.02916,-3.549284 -0.106669,-5.323542 -7.47e-4,-1.934131 -0.0888,-3.874907 0.01158,-5.805181 0.450667,-0.05318 0.924099,0.03182 0.723973,-0.570998 -0.268398,-0.874693 0.691768,-0.667617 1.227581,-0.681984 0.307081,0.01783 0.415549,0.507053 0.799059,0.343873 0.595662,0.0351 1.232519,-0.09801 1.792672,0.113424 -0.163366,0.471397 0.522142,1.141021 0.437025,0.383149 -0.126369,-0.560528 0.02793,-1.022964 0.640307,-0.840444 0.884499,0.04527 1.602327,0.555422 2.579237,0.345594 0.81128,-0.405648 0.564725,1.434748 1.048398,0.665125 0.01221,-0.329752 0.02443,-0.659504 0.03664,-0.989256 0.449435,0.02138 0.951476,-0.07605 1.368618,0.01827 0.165565,0.342048 0.496491,0.332995 0.830726,0.316919 0.604598,0.110566 1.726513,-0.30073 1.658704,0.63102 0.845712,0.349608 0.372416,1.60301 0.504746,2.426987 0.0036,3.005798 -0.01556,6.01156 -0.02556,9.017332 -1.660417,0.0012 -3.321154,0.02079 -4.981379,-2.76e-4 z m 4.707979,-1.288011 c 0.124489,-0.762959 -0.03174,-1.312993 -0.889988,-1.085423 -4.006648,0.001 -8.014527,-0.0043 -12.020104,0.08214 -0.08171,0.651883 -0.04934,1.313145 -0.06898,1.969494 4.331641,0.01455 8.663109,0.07722 12.994826,0.06443 -0.0053,-0.343548 -0.0105,-0.687095 -0.01575,-1.030643 z m -7.909425,-0.38434 c -0.298493,-1.030663 1.179569,-0.418557 1.753754,-0.570423 0.382364,0.0033 0.764727,0.0067 1.14709,0.01002 0.22852,0.993565 -1.159005,0.449211 -1.754379,0.588581 -0.38198,-0.0062 -0.765847,0.0076 -1.146465,-0.02818 z m -4.678595,-1.48368 c -0.223031,-0.868346 0.836965,-0.658285 1.344456,-0.601121 0.169216,0.350783 0.498101,0.359184 0.844884,0.329205 0.527345,0.105111 1.5239,-0.293747 1.60973,0.418698 0.283626,1.009817 0.611092,-0.188997 0.513376,-0.686502 0.162534,-0.196069 0.66901,-0.04101 0.964339,-0.101502 0.403847,-0.167671 0.439234,0.477234 0.823292,0.364963 0.617196,0.0235 1.244611,-0.02589 1.853319,0.07453 -0.26033,0.554034 0.554826,1.184251 0.589007,0.379146 -0.298466,-0.971135 0.637621,-0.829263 1.270065,-0.822915 0.180768,0.325994 0.462346,0.438207 0.825778,0.376841 0.526344,0.01081 1.052687,0.02163 1.579031,0.03244 -0.205852,0.446944 0.436204,1.150221 0.442213,0.446446 0.02914,-0.64541 0.250343,-1.597151 -0.756444,-1.285282 -4.051772,-0.02976 -8.104609,-0.06767 -12.156124,-0.01986 -0.454756,0.125388 -0.308446,1.482979 0.05452,1.644612 0.330856,0.07947 0.128411,-0.369105 0.198555,-0.549706 z m 3.599049,0.356264 c -0.41187,-0.681825 -1.768873,-0.135357 -2.539106,-0.309581 -0.906313,-0.219912 -0.85685,0.770212 0.04037,0.459695 0.828495,0.0027 1.656955,-0.008 2.485428,-0.01254 0.0044,-0.04586 0.0089,-0.09172 0.01331,-0.137578 z m 4.152163,-0.07714 c 0.06391,-0.418868 -0.581979,-0.133291 -0.851582,-0.22116 -0.738069,0.02371 -1.506809,-0.09577 -2.218287,0.07031 -0.224263,0.750257 1.254382,0.221829 1.747964,0.375181 0.440637,-0.0032 0.881273,-0.0064 1.32191,-0.0096 -2e-6,-0.07157 -3e-6,-0.143145 -5e-6,-0.214717 z m 3.757513,0.19833 c 0.36356,0.148861 0.721157,-0.254585 0.380301,-0.413908 -0.976215,0.01852 -1.968789,-0.08016 -2.93179,0.04632 -0.208596,0.82891 1.362399,0.204888 1.859976,0.389584 0.230563,-0.0048 0.461225,-0.01005 0.691513,-0.022 z m 1.088541,-2.808066 c 0.105845,-0.704142 0.01822,-1.341378 -0.854733,-1.090278 -4.071011,-0.02647 -8.142186,-0.01 -12.213271,-0.01456 0.09965,0.608404 -0.439426,2.069888 0.460043,2.063053 4.204556,0.04283 8.40966,0.01259 12.614462,0.01971 -0.0022,-0.325974 -0.0043,-0.651948 -0.0065,-0.977922 z m -7.887273,-0.445797 c -0.08224,-0.90796 1.406305,-0.31352 2.011017,-0.486876 0.473453,-0.316286 1.251259,0.427406 0.588398,0.495294 -0.866267,5.77e-4 -1.734086,0.03293 -2.599415,-0.0084 z m -4.709993,-1.48738 c -0.225294,-0.855893 0.828865,-0.647722 1.31851,-0.588578 0.167808,0.351537 0.496803,0.358719 0.843082,0.328975 0.572487,0.09088 1.758805,-0.31416 1.585081,0.625601 0.888086,0.760026 0.143872,-1.602259 1.38142,-0.998586 0.405331,-0.166114 0.518372,0.301478 0.818566,0.367372 0.658682,0.01837 1.32171,-0.01086 1.976327,0.06781 -0.163971,0.510584 0.281311,1.174906 0.61536,0.512683 -0.277919,-0.924337 0.437462,-1.027241 1.137428,-0.947 0.308255,0.02403 0.404147,0.530985 0.796186,0.369274 0.573308,0.04306 1.188442,-0.07786 1.728485,0.104321 -0.10659,0.524103 0.437283,1.094149 0.458687,0.272958 -0.123363,-0.331899 0.254486,-1.169685 -0.142346,-1.240367 -4.36072,0.0215 -8.724495,-0.04275 -13.083129,0.07512 0.05233,0.497832 -0.231155,1.920502 0.54709,1.542891 0.0064,-0.164159 0.01284,-0.328317 0.01925,-0.492476 z m 3.521326,0.343087 c -0.476382,-0.633287 -1.828673,-0.120944 -2.631906,-0.28229 -0.747177,-0.144654 -0.630415,0.753601 0.07409,0.460395 0.852558,0.01094 1.705207,0.005 2.557811,0.0066 0,-0.06155 10e-7,-0.123109 10e-7,-0.184663 z m 4.201032,0.0399 c 0.110342,-0.575019 -0.617971,-0.237632 -0.945571,-0.32762 -0.683965,0.01635 -1.37788,-0.05002 -2.052963,0.06707 -0.320908,0.738921 1.219485,0.266862 1.740794,0.393004 0.414553,-0.0031 0.829107,-0.0061 1.24366,-0.0092 0.0047,-0.04109 0.0094,-0.08219 0.01408,-0.123279 z m 4.336661,-0.04075 c -0.463462,-0.629106 -1.806615,-0.12424 -2.597034,-0.28099 -0.984784,-0.06643 -0.422268,0.761691 0.294216,0.45811 0.763122,7.05e-4 1.526207,-0.0086 2.289308,-0.01309 0.0045,-0.05468 0.009,-0.109354 0.01351,-0.164031 z m 0.587696,-2.789888 c 0.129887,-0.758172 -0.03595,-1.389975 -0.939641,-1.127505 -4.051263,-0.01152 -8.10464,-0.05995 -12.154725,0.02393 -0.126374,0.559638 -0.22446,1.744845 0.09052,2.189558 4.334612,-0.0072 8.669224,-0.01437 13.003836,-0.02155 2e-6,-0.354812 5e-6,-0.709624 7e-6,-1.064436 z m -7.925195,-0.39348 c -0.180027,-0.900179 1.201975,-0.343694 1.767602,-0.48397 0.349126,0.0031 0.698251,0.0063 1.047376,0.0094 0.147565,0.921657 -1.253872,0.339762 -1.825607,0.502853 -0.329578,-0.0063 -0.66118,0.0057 -0.989371,-0.02833 z m -1.178722,-1.226023 c 0.0458,-0.393746 -0.591556,-0.109348 -0.851584,-0.19951 -0.75866,0.01796 -1.535295,-0.07706 -2.27965,0.05175 -0.140004,0.720359 1.283709,0.19485 1.787846,0.350641 0.447796,-0.0032 0.895592,-0.0064 1.343388,-0.0096 0,-0.06442 0,-0.12883 0,-0.193245 z m 4.244197,0.182508 c 0.156811,-0.592616 -0.503346,-0.316612 -0.832009,-0.381974 -0.759446,0.02799 -1.558924,-0.10422 -2.284917,0.07437 -0.120609,0.697379 1.33199,0.17161 1.833129,0.338405 0.427647,-0.0074 0.857466,0.0054 1.283797,-0.0308 z m 4.301461,-0.182508 c 0.0458,-0.393713 -0.591552,-0.109779 -0.851579,-0.20013 -0.760567,0.01596 -1.547367,-0.07209 -2.286282,0.05229 -0.152412,0.709656 1.291034,0.219855 1.825154,0.350335 0.437569,-0.0031 0.875138,-0.0062 1.312707,-0.0093 0,-0.06441 0,-0.128825 0,-0.193238 z"
         id="path2" /><path
         style="fill:#006e9e"
         d="m 21.664898,25.129905 c -2.815323,-0.03946 -5.631208,-0.03283 -8.446798,-0.04746 -0.06859,-1.665363 -0.0026,-3.330737 -0.09477,-4.995599 -0.0236,-2.020937 -0.07803,-4.044473 -0.01357,-6.064291 0.873916,0.16509 0.784054,-0.595981 0.764601,-1.221815 0.434647,-0.0079 0.869295,-0.01579 1.303942,-0.02368 0.166892,0.394626 0.534164,0.371156 0.902364,0.34575 0.671482,0.03052 1.791893,-0.26457 1.65098,0.776522 0.8499,0.37778 -0.09672,-1.383745 0.760128,-1.120066 0.315977,0.03128 0.692532,-0.0627 0.971787,0.04451 0.158747,0.404238 0.568682,0.289103 0.918128,0.299038 0.671241,0.02294 1.701609,-0.245827 1.560625,0.777334 0.914299,0.421044 -0.0653,-1.379081 0.800826,-1.120879 0.330022,0.03286 0.735295,-0.06604 1.018445,0.0489 0.523729,0.6495 1.608894,0.09917 2.340157,0.37096 0.09467,0.423319 0.132111,0.839465 0.61066,0.879169 0.06748,3.677712 -0.0037,7.357829 -0.0148,11.036352 -1.676581,0.0407 -3.355895,0.04523 -5.032708,0.01526 z m 4.819793,-1.228392 c 0.105023,-0.761478 -0.0034,-1.478915 -0.948636,-1.195605 -3.996991,-0.003 -7.994284,0.0143 -11.990952,0.06212 -0.114186,0.577397 -0.619788,2.320355 0.442402,2.131483 4.170318,0.06173 8.341236,0.109133 12.512061,0.09704 -0.005,-0.365014 -0.0099,-0.730029 -0.01487,-1.095043 z m -7.91487,-0.484927 c -0.246234,-0.590529 0.447377,-0.351281 0.780098,-0.401701 0.686967,-0.0054 1.373935,-0.01088 2.060902,-0.01632 0.05063,0.939526 -1.446397,0.267913 -2.045194,0.487458 -0.256186,-0.02656 -0.567069,0.05974 -0.795806,-0.06943 z m -4.674028,-1.361622 c -0.11471,-1.163161 1.367469,-0.51889 1.922884,-0.303393 0.694885,0.05981 1.973064,-0.319509 1.867434,0.776925 0.299374,0.249211 0.574407,-0.06576 0.459991,-0.447303 -0.220407,-0.887474 0.707412,-0.639028 1.259626,-0.670378 0.181045,0.386365 0.546952,0.371161 0.918573,0.343544 0.607081,0.04754 1.679438,-0.277859 1.510391,0.685804 0.684599,0.688846 0.548112,-0.661018 0.684989,-1.008987 0.387872,0.02354 0.834007,-0.07763 1.186487,0.02164 0.16159,0.399866 0.570675,0.291547 0.920079,0.305772 0.578243,0.07703 1.665184,-0.290803 1.457975,0.632405 0.609245,0.648349 0.654355,-1.188469 0.377092,-1.472129 -4.356134,-0.09216 -8.714909,-0.04982 -13.072228,-0.07674 -0.04581,0.503793 -0.325578,1.844778 0.455109,1.751595 0.07459,-0.112676 0.02501,-0.377703 0.0516,-0.538752 z m 3.51059,0.531192 c 0.357825,-1.036251 -1.506318,-0.393558 -2.131593,-0.574001 -0.450314,-0.17523 -1.653832,0.180243 -0.881414,0.581356 1.003931,0.01532 2.009584,0.02766 3.013007,-0.0074 z m 4.192043,-0.02792 c 0.332576,-0.591506 -0.226813,-0.563525 -0.632686,-0.529926 -0.805352,0.0073 -1.614301,-0.0487 -2.416651,0.02087 -0.470193,0.962314 1.354852,0.42141 1.917414,0.562529 0.377034,-0.0121 0.758173,0.004 1.131923,-0.05347 z m 4.255462,-0.01479 c 0.319875,-0.579179 -0.237586,-0.54576 -0.636797,-0.514949 -0.819455,0.0068 -1.643937,-0.04927 -2.459247,0.03118 -0.166265,1.030872 1.558892,0.340338 2.229245,0.523563 0.288963,-0.0094 0.579358,-0.0052 0.866799,-0.03979 z m 0.640236,-2.859264 c 0.152391,-0.809202 -0.05305,-1.40823 -0.962992,-1.180804 -3.988453,-0.0097 -7.977839,-0.03917 -11.965854,0.01825 -0.522645,0.275616 -0.301726,1.729043 -0.0588,2.164263 4.329683,0.102722 8.662123,0.04536 12.993087,0.0593 -0.0018,-0.353669 -0.0036,-0.707339 -0.0054,-1.061008 z m -7.845972,-0.492093 c -0.241908,-0.585937 0.502845,-0.284048 0.822947,-0.351982 0.625102,0.0052 1.250203,0.0104 1.875304,0.0156 -0.08038,0.756592 -1.466018,0.191393 -2.074005,0.361522 -0.207913,-0.0068 -0.417604,0.0029 -0.624246,-0.02514 z m -4.761709,-1.385761 c -0.230227,-0.842959 0.796931,-0.676366 1.286217,-0.602621 0.162006,0.402851 0.571067,0.290219 0.9218,0.299289 0.677728,0.0018 1.713867,-0.214982 1.523749,0.812613 0.718218,0.331937 0.475575,-0.499745 0.554316,-0.906887 0.113284,-0.340553 1.019532,-0.364555 1.312291,-0.116508 0.19175,0.380277 0.677561,0.146992 1.020995,0.21078 0.654699,-0.04958 1.529088,-0.12015 1.291814,0.788352 0.955239,0.502708 0.425651,-0.889903 0.778811,-1.113049 0.541113,-0.05694 1.088702,-0.01975 1.439415,0.324727 0.654479,0.01816 1.319456,-0.04819 1.965387,0.0569 -0.05106,0.516757 0.523494,1.259858 0.563149,0.318509 0.08621,-0.69107 0.20028,-1.613329 -0.809128,-1.291644 -4.090194,-0.0027 -8.181493,-0.01475 -12.270954,0.05818 -0.414357,0.217499 -0.251435,1.30684 -0.03363,1.703403 0.577321,0.09134 0.432554,-0.09058 0.455765,-0.54204 z m 3.552648,0.458907 c 0.17609,-0.618928 -0.388362,-0.481055 -0.782519,-0.488514 -0.808175,0.01801 -1.629865,-0.07873 -2.426417,0.05719 -0.233077,0.909279 1.418175,0.299937 2.011646,0.484405 0.396609,-0.01998 0.808593,0.03373 1.19729,-0.05308 z m 4.164971,-0.22545 c 0.115056,-0.465022 -0.522374,-0.18321 -0.79481,-0.26365 -0.772833,0.0166 -1.558544,-0.07587 -2.320149,0.05861 -0.300215,0.853288 1.224477,0.336877 1.771571,0.472328 0.447796,-0.0032 0.895592,-0.0064 1.343388,-0.0096 0,-0.08588 0,-0.171768 0,-0.257652 z m 4.350028,0.01074 c 0.09808,-0.473768 -0.524635,-0.197142 -0.807592,-0.274226 -0.78762,0.0033 -1.578329,-0.03965 -2.363305,0.02827 -0.342352,0.92583 1.253944,0.351998 1.805529,0.514351 0.459386,0 0.918773,0 1.378159,0 -0.0043,-0.08947 -0.0085,-0.178932 -0.01279,-0.268398 z m 0.563975,-1.618353 c 0.05236,-0.718452 0.161333,-1.680443 -0.08145,-2.300196 -4.387831,0 -8.775661,0 -13.163492,0 0.02238,0.761993 -0.01145,1.528888 0.0742,2.286715 3.526494,0.104765 7.060697,0.03474 10.590173,0.04527 0.860115,-0.0084 1.721038,9.83e-4 2.580573,-0.03179 z m -7.898542,-1.736318 c -0.05062,-0.40078 0.589113,-0.1112 0.851607,-0.198862 0.632249,0 1.264497,0 1.896746,0 0.150171,0.472798 -0.314045,0.331448 -0.624512,0.343787 -0.70767,0.012 -1.42078,-0.03368 -2.123841,0.05394 0,-0.06629 0,-0.132576 0,-0.198864 z m -1.159461,-0.98805 c -0.422799,-0.708574 -1.840999,-0.143863 -2.657045,-0.306785 -0.950041,-0.186326 -0.707836,0.875114 0.120722,0.532801 0.845414,0.0084 1.690883,0.0037 2.536324,0.0049 0,-0.07697 -1e-6,-0.153948 -1e-6,-0.230922 z m 4.222764,0.0035 c -0.454054,-0.719849 -1.866094,-0.144739 -2.678621,-0.325368 -0.905995,-0.104715 -0.593663,0.863258 0.166855,0.543854 0.839649,0.0027 1.679263,-0.0079 2.51889,-0.01254 -0.0024,-0.06865 -0.0047,-0.1373 -0.0071,-0.20595 z m 4.345269,0.08742 c -0.104915,-0.80977 -1.363216,-0.247229 -1.960282,-0.407392 -0.42089,0.03248 -0.897416,-0.05038 -1.283264,0.05474 -0.462276,0.882166 1.202446,0.335104 1.686627,0.492658 0.510218,0 1.020436,0 1.530654,0 0.0088,-0.04667 0.01751,-0.09334 0.02626,-0.140006 z"
         id="path1" /></g></g></svg>
