<svg viewBox="0 0 32 32" xmlns="http://www.w3.org/2000/svg"><path d="m27.5 5.5h-9.3l-2.1 4.2h-11.7v16.8h25.2v-21zm0 4.2h-8.2l1.1-2.1h7.1z" fill="#00a23c"/><path d="m22.6 16.3a3.787 3.787 0 0 1 1.8 2.8 3.048 3.048 0 1 0 -1.8-2.8zm-2 6.3a3.1 3.1 0 1 0 -3.1-3.1 3.116 3.116 0 0 0 3.1 3.1zm1.3.2h-2.6a3.9 3.9 0 0 0 -3.9 3.9v3.3l.2.1a16.106 16.106 0 0 0 5.4.9 9.638 9.638 0 0 0 4.7-.9l.2-.1v-3.2a4.148 4.148 0 0 0 -4-4zm5.1-3.2h-2.6a3.225 3.225 0 0 1 -1.2 2.6 4.621 4.621 0 0 1 3.3 4.5v1a9.782 9.782 0 0 0 4.1-.9l.2-.1v-3.2a3.82 3.82 0 0 0 -3.8-3.9zm-11.8-.2a3.022 3.022 0 0 0 1.6-.5 3.71 3.71 0 0 1 1.4-2.4v-.2a3.1 3.1 0 0 0 -6.2 0 3.272 3.272 0 0 0 3.2 3.1zm2.7 2.9a4.2 4.2 0 0 1 -1.2-2.6h-2.9a3.9 3.9 0 0 0 -3.9 3.9v3.2l.2.1a16.28 16.28 0 0 0 4.4.8v-1a4.81 4.81 0 0 1 3.4-4.4z" fill="#aaffa2"/></svg>