<svg xmlns="http://www.w3.org/2000/svg" viewBox="0 0 32 32"><title>folder_type_css@2x</title><g id="folder_css"><path d="M27.5,5.5H18.2L16.1,9.7H4.4V26.5H29.6V5.5Zm0,4.2H19.3l1.1-2.1h7.1Z" style="fill:#5597bf"/><polygon points="14.43 29.4 12.74 10.5 31.26 10.5 29.57 29.4 21.99 31.5 14.43 29.4" style="fill:#1572b6"/><polygon points="22 29.89 28.13 28.19 29.57 12.04 22 12.04 22 29.89" style="fill:#33a9dc"/><polygon points="22 18.89 25.07 18.89 25.28 16.52 22 16.52 22 14.2 22.01 14.2 27.81 14.2 27.76 14.82 27.19 21.21 22 21.21 22 18.89" style="fill:#fff"/><polygon points="22.01 24.91 22 24.92 19.42 24.22 19.26 22.37 18 22.37 16.93 22.37 17.25 26.01 22 27.33 22.01 27.32 22.01 24.91" style="fill:#ebebeb"/><polygon points="24.87 21.11 24.59 24.22 22.01 24.91 22.01 27.33 26.76 26.01 26.79 25.62 27.2 21.11 24.87 21.11" style="fill:#fff"/><polygon points="22.01 14.2 22.01 15.64 22.01 16.51 22.01 16.52 16.42 16.52 16.42 16.52 16.41 16.52 16.36 16 16.26 14.82 16.2 14.2 22.01 14.2" style="fill:#ebebeb"/><polygon points="22 18.89 22 20.33 22 21.21 22 21.21 19.46 21.21 19.46 21.21 19.45 21.21 19.41 20.69 19.3 19.52 19.24 18.89 22 18.89" style="fill:#ebebeb"/></g></svg>