<svg xmlns="http://www.w3.org/2000/svg" xmlns:xlink="http://www.w3.org/1999/xlink" viewBox="0 0 32 32"><defs><linearGradient id="a" x1="26.413" y1="30.412" x2="10.587" y2="14.588" gradientTransform="translate(0 41) rotate(-90)" gradientUnits="userSpaceOnUse"><stop offset="0.1" stop-color="#ff0" stop-opacity="0.9"/><stop offset="0.4" stop-color="#58ff00" stop-opacity="0.9"/><stop offset="0.6" stop-color="blue" stop-opacity="0.9"/><stop offset="0.9" stop-color="red" stop-opacity="0.9"/></linearGradient></defs><title>folder_type_plugin</title><path d="M27.5,5.5H18.2L16.1,9.7H4.4V26.5H29.6V5.5Zm0,4.2H19.3l1.1-2.1h7.1Z" style="fill:#686868"/><path d="M20,12.5V14H16a2.006,2.006,0,0,0-2,2v4H12.5a2.5,2.5,0,0,0,0,5H14v4a2.006,2.006,0,0,0,2,2h3.8V29.5a2.7,2.7,0,0,1,5.4,0V31H29a2.006,2.006,0,0,0,2-2V25.2H29.5a2.7,2.7,0,0,1,0-5.4H31V16a2.006,2.006,0,0,0-2-2H25V12.5a2.5,2.5,0,1,0-5,0Z" style="fill:url(#a)"/></svg>