<svg viewBox="0 0 32 32" xmlns="http://www.w3.org/2000/svg"><path d="m27.4 5.5h-9.2l-2.1 4.2h-11.8v16.8h25.2v-21zm0 18.7h-20.8v-12.4h20.8zm0-14.5h-8.2l1-2.1h7.1v2.1z" fill="#b1db7b"/><path d="m25.7 13.7h-25.2l3.8 12.8h25.2z" fill="#b1db7b"/><path d="m20.5 10a10.5 10.5 0 1 1 -10.5 10.5 10.5 10.5 0 0 1 10.5-10.5z" fill="#83cd29" fill-rule="evenodd"/><path d="m20.5 31a1.613 1.613 0 0 1 -.807-.216l-2.57-1.52c-.383-.215-.2-.291-.07-.335a5.121 5.121 0 0 0 1.162-.528.2.2 0 0 1 .191.015l1.974 1.172a.255.255 0 0 0 .239 0l7.7-4.442a.242.242 0 0 0 .118-.208v-8.882a.248.248 0 0 0 -.119-.212l-7.692-4.438a.243.243 0 0 0 -.238 0l-7.698 4.439a.247.247 0 0 0 -.122.211v8.881a.236.236 0 0 0 .121.206l2.111 1.218c1.144.572 1.845-.1 1.845-.778v-8.769a.221.221 0 0 1 .223-.222h.976a.222.222 0 0 1 .222.222v8.769a2.132 2.132 0 0 1 -2.278 2.4 3.292 3.292 0 0 1 -1.773-.482l-2.015-1.16a1.625 1.625 0 0 1 -.807-1.4v-8.885a1.621 1.621 0 0 1 .807-1.4l7.7-4.447a1.685 1.685 0 0 1 1.617 0l7.683 4.444a1.624 1.624 0 0 1 .808 1.4v8.881a1.628 1.628 0 0 1 -.808 1.4l-7.7 4.443a1.614 1.614 0 0 1 -.8.223zm2.616-6.193c2.438 0 3.836-.96 3.836-2.637s-1.124-2.1-3.488-2.418c-2.39-.316-2.632-.479-2.632-1.039 0-.462.205-1.079 1.975-1.079 1.581 0 2.164.341 2.4 1.407a.222.222 0 0 0 .216.174h1a.222.222 0 0 0 .221-.242c-.154-1.836-1.374-2.691-3.84-2.691-2.194 0-3.5.926-3.5 2.479 0 1.684 1.3 2.15 3.408 2.358 2.519.247 2.715.615 2.715 1.111 0 .86-.69 1.227-2.311 1.227-2.036 0-2.485-.511-2.634-1.524a.223.223 0 0 0 -.221-.188h-1a.221.221 0 0 0 -.222.222c.002 1.295.707 2.84 4.075 2.84z" fill="#fff"/></svg>