<svg xmlns="http://www.w3.org/2000/svg" viewBox="0 0 32 32"><title>folder_type_style_opened</title><path d="M27.4,5.5H18.2L16.1,9.7H4.3V26.5H29.5V5.5Zm0,18.7H6.6V11.8H27.4Zm0-14.5H19.2l1-2.1h7.1V9.7Z" style="fill:#7cb0d8"/><polygon points="25.7 13.7 0.5 13.7 4.3 26.5 29.5 26.5 25.7 13.7" style="fill:#7cb0d8"/><polygon points="14.167 28.901 12.482 10 30.998 10 29.312 28.898 21.729 31 14.167 28.901" style="fill:#1572b6"/><polygon points="21.74 29.393 27.867 27.694 29.309 11.545 21.74 11.545 21.74 29.393" style="fill:#33a9dc"/><path d="M15.25,19.535c1.691,0,1.929-.685,1.929-1.3a7.672,7.672,0,0,0-.192-1.475A7.677,7.677,0,0,1,16.8,15.3c0-1.616,1.429-2.3,3.453-2.3h.5v.967h-.428c-1.406,0-1.881.562-1.881,1.51a5.654,5.654,0,0,0,.167,1.247,6.137,6.137,0,0,1,.167,1.334c.023,1.124-.644,1.686-1.716,1.9v.034a1.8,1.8,0,0,1,1.716,1.915,5.985,5.985,0,0,1-.167,1.334,5.8,5.8,0,0,0-.167,1.266c0,.983.547,1.528,1.881,1.528h.428V27h-.5c-1.976,0-3.453-.632-3.453-2.406a7.473,7.473,0,0,1,.19-1.44,7.174,7.174,0,0,0,.192-1.423c0-.545-.238-1.3-1.929-1.3Z" style="fill:#ebebeb"/><path d="M28.25,20.43c-1.691,0-1.929.755-1.929,1.3a7.314,7.314,0,0,0,.19,1.423,7.341,7.341,0,0,1,.192,1.44C26.7,26.366,25.2,27,23.25,27h-.5v-.967h.405c1.334-.017,1.9-.545,1.9-1.527a7.9,7.9,0,0,0-.167-1.266,5.97,5.97,0,0,1-.19-1.334,1.834,1.834,0,0,1,1.714-1.915v-.034a1.83,1.83,0,0,1-1.714-1.9,6.141,6.141,0,0,1,.19-1.334,7.7,7.7,0,0,0,.167-1.247c0-.948-.5-1.493-1.881-1.51H22.75V13h.477c2.024,0,3.476.685,3.476,2.3a7.526,7.526,0,0,1-.192,1.459,7.822,7.822,0,0,0-.19,1.475c0,.615.238,1.3,1.929,1.3Z" style="fill:#fff"/></svg>