<svg xmlns="http://www.w3.org/2000/svg" xmlns:xlink="http://www.w3.org/1999/xlink" viewBox="0 0 32 32"><defs><mask id="a" x="11" y="11" width="19.545" height="19.546" maskUnits="userSpaceOnUse"><path d="M13.852,24.115l.984-1.052,1.222,1.222-1,.994,1.2,1.205.994-.994,1.228,1.23-.973.973,2.85,2.85h4.479a.813.813,0,0,0,.814-.814V23.212l4.163-2.774a1.632,1.632,0,0,0,.724-1.355V11.815A.815.815,0,0,0,29.731,11H22.458a1.627,1.627,0,0,0-1.354.725L18.33,15.886H11.812A.815.815,0,0,0,11,16.7V21.18Z" style="fill:#fff"/><path d="M12.465,25.659H11v4.887h4.886V29.08H12.465Z" style="fill:#fff"/></mask><linearGradient id="b" x1="-117.563" y1="260.902" x2="-116.891" y2="260.902" gradientTransform="translate(7610.663 3431.012) rotate(90) scale(29.091)" gradientUnits="userSpaceOnUse"><stop offset="0" stop-color="#fff"/><stop offset="1" stop-color="#fff" stop-opacity="0"/></linearGradient><linearGradient id="c" x1="-117.562" y1="261.154" x2="-116.89" y2="261.154" xlink:href="#b"/></defs><title>folder_type_azure_pipelines_opened</title><path d="M27.9,6H18.2l-2,4H5V27H30V6ZM28,24H7V12H28Zm.1-14H20.3l1-2H28Z" style="fill:#99b2d9"/><polygon points="25.9 14 0.3 14 4.1 27 29.7 27 25.9 14" style="fill:#99b2d9"/><g style="mask:url(#a)"><path d="M11,25.659h1.465V29.08h3.421v1.466H11Z" style="fill:#91b0f2"/><path d="M11,16.7V21.18l2.852,2.935,1.22-1.306,3.665,3.665-1.222,1.219,2.85,2.85h4.479a.813.813,0,0,0,.814-.814V23.212L18.33,15.886H11.812A.815.815,0,0,0,11,16.7Z" style="fill:#0f46bd"/><path d="M14.054,22.284,21.587,11h8.958v8.959L19.261,27.492Z" style="fill:#062aa9"/><path d="M14.524,22.756a.813.813,0,0,1-.1-1.028l6.678-10A1.628,1.628,0,0,1,22.456,11h7.275a.815.815,0,0,1,.814.815v7.273a1.629,1.629,0,0,1-.724,1.354l-10,6.679a.815.815,0,0,1-1.028-.1Z" style="fill:#2560e0"/><path d="M15.062,25.279l6.218-6.218,1.2,1.2-6.218,6.219Z" style="fill:#0a44c2"/><path d="M15.062,25.279l6.218-6.218,1.2,1.2-6.218,6.219Z" style="fill:#729af2"/><path d="M17.26,25.489l-1.2-1.2,5.224-5.223,1.2,1.2Z" style="fill:#4c80f0"/><path d="M25.659,18.33a2.443,2.443,0,1,0-2.443-2.443h0A2.443,2.443,0,0,0,25.659,18.33Z" style="fill:#0a44c2"/><path d="M25.659,18.33a2.443,2.443,0,1,0-2.443-2.443h0A2.443,2.443,0,0,0,25.659,18.33Z" style="fill:#91b0f2"/><g style="opacity:0.20000000298023224"><path d="M13.852,24.115l.984-1.052,1.222,1.222-1,.994,1.2,1.205.994-.994,1.228,1.23-.973.973,2.85,2.85h4.479a.813.813,0,0,0,.814-.814V23.212l4.163-2.774a1.632,1.632,0,0,0,.724-1.355V11.815A.815.815,0,0,0,29.731,11H22.458a1.627,1.627,0,0,0-1.354.725L18.33,15.886H11.812A.815.815,0,0,0,11,16.7V21.18Z" style="fill:url(#b)"/><path d="M12.465,25.659H11v4.887h4.886V29.08H12.465Z" style="fill:url(#c)"/></g></g></svg>