<svg xmlns="http://www.w3.org/2000/svg" viewBox="0 0 32 32"><title>folder_type_favicon</title><path d="M27.4,5.5H18.1L16,9.7H4.3V26.5H29.5V5.5Zm0,4.2H19.2l1.1-2.1h7.1Z" style="fill:#5789b2"/><circle cx="21" cy="21" r="10" style="fill:#ffc107"/><circle cx="21" cy="21" r="9" style="fill:#1976d2"/><path d="M26.745,19.168a1.335,1.335,0,0,0-.146.111c-.807.8-1.617,1.591-2.416,2.4-.352.355-.278.275-.211.689.184,1.138.382,2.274.574,3.41,0,.03.006.06.011.109-.188-.095-.364-.181-.538-.27q-1.4-.718-2.808-1.442a.365.365,0,0,0-.371-.007c-.659.345-1.32.683-1.981,1.023q-.6.311-1.205.618c-.054.028-.11.051-.185.085.01-.09.016-.162.027-.233q.217-1.335.435-2.67c.046-.281.085-.563.131-.845a.315.315,0,0,0-.1-.294l-1.241-1.223L15.4,19.316c-.043-.043-.083-.087-.14-.148l.611-.095q1.594-.254,3.19-.506a.233.233,0,0,0,.186-.136q.52-1.037,1.045-2.07c.2-.4.395-.795.593-1.193.026-.051.053-.1.089-.169.04.071.072.124.1.179.455.891.907,1.784,1.363,2.674.107.208.223.411.344.611a.245.245,0,0,0,.15.1q1.067.168,2.135.325c.534.079,1.069.154,1.6.231a.3.3,0,0,1,.056.017Z" style="fill:#ffc107"/></svg>