<svg viewBox="0 0 32 32" xmlns="http://www.w3.org/2000/svg" xmlns:xlink="http://www.w3.org/1999/xlink"><linearGradient id="a" gradientTransform="matrix(7.886 0 0 -8.589 343.962 -327.095)" gradientUnits="userSpaceOnUse" x1="-42.612" x2="-39.39" y1="-38.015" y2="-40.974"><stop offset="0" stop-color="#c06fbb"/><stop offset="1" stop-color="#6e4d9b"/></linearGradient><linearGradient id="b" gradientTransform="matrix(15.701 0 0 -16.956 713.239 -480.525)" gradientUnits="userSpaceOnUse" x1="-43.738" x2="-44.614" y1="-30.081" y2="-28.886"><stop offset="0" stop-color="#6e4d9b"/><stop offset=".14" stop-color="#77327a"/><stop offset=".29" stop-color="#b31777"/><stop offset=".84" stop-color="#cd0f7e"/><stop offset="1" stop-color="#ed2c89"/></linearGradient><linearGradient id="c" gradientTransform="matrix(8.637 0 0 -7.94 373.165 -284.546)" x1="-43.456" x2="-40.514" xlink:href="#a" y1="-35.988" y2="-40.083"/><linearGradient id="d" x1="4.839" x2="31.752" xlink:href="#a" y1="40.432" y2="18.356"/><linearGradient id="e" gradientTransform="matrix(6.504 0 0 -6.517 291.135 -265.393)" x1="-42.555" x2="-40.318" xlink:href="#a" y1="-42.491" y2="-44.326"/><linearGradient id="f" gradientTransform="matrix(10.02 0 0 -10.013 426.022 -346.247)" x1="-42.523" x2="-39.643" xlink:href="#a" y1="-35.351" y2="-37.889"/><linearGradient id="g" gradientTransform="matrix(15.678 0 0 -16.922 696.247 -503.63)" x1="-42.615" x2="-43.494" xlink:href="#b" y1="-31.641" y2="-30.439"/><linearGradient id="h" gradientTransform="matrix(7.887 0 0 -8.589 343.999 -327.094)" x1="-42.477" x2="-39.255" xlink:href="#a" y1="-37.84" y2="-41.407"/><linearGradient id="i" gradientTransform="matrix(37.627 7.508 7.477 -37.474 1885.141 -584.006)" gradientUnits="userSpaceOnUse" x1="-44.786" x2="-44.38" y1="-25.269" y2="-24.867"><stop offset="0" stop-color="#6e4d9b"/><stop offset=".14" stop-color="#77327a"/><stop offset=".53" stop-color="#b31777"/><stop offset=".79" stop-color="#cd0f7e"/><stop offset="1" stop-color="#ed2c89"/></linearGradient><path d="m27.5 5.5h-9.3l-2.1 4.2h-11.7v16.8h25.2v-21zm0 4.2h-8.2l1.1-2.1h7.1z" fill="#bf5588"/><path d="m23.537 13.888-2 1.335-2.06-3.087 2-1.335z" fill="url(#a)"/><path d="m25.162 23.163 3.417 5.12-4.07 2.717-3.417-5.12-.6-.893 4.07-2.716.6.893z" fill="url(#b)"/><path d="m20.036 26.585.752 1.127-3.1 2.068-1.348-2.021.677-.452 2.421-1.616.6.893z" fill="url(#c)"/><path d="m26.855 20.743.869-.58 1.348 2.021-2 1.334-.752-1.127 1.131-.755z" fill="url(#d)"/><path d="m26.32 22.391-.596-.893 1.131-.755.596.893z" fill="url(#e)"/><path d="m12.831 21.033-.677.452-2.06-3.085 3.1-2.068 1.444 2.164-2.421 1.616 2.421-1.616.616.923-2.421 1.616z" fill="url(#f)"/><path d="m19.763 15.072.616.923-4.07 2.716-.616-.923-3.385-5.072 4.07-2.716z" fill="url(#g)"/><path d="m22.668 14.468-1.131.755-.616-.923-1.444-2.164 2-1.335 2.06 3.087z" fill="url(#h)"/><path d="m17.614 28.2-.6-.893 2.421-1.616.6.893z" fill="#714896"/><path d="m26.32 22.391-.6-.893 1.131-.755.6.893z" fill="#6f4795"/><path d="m12.831 21.033-.616-.923 2.421-1.616.616.923z" fill="#88519f"/><path d="m21.537 15.223-.616-.923 1.131-.755.616.923z" fill="#85509e"/><path d="m25.162 23.163-4.07 2.716-.6-.893 4.07-2.716z" fill="#8d166a"/><path d="m19.763 15.072.616.923-4.07 2.716-.616-.923z" fill="#a70d6f"/><path d="m10.793 14.602h1.384v1.384h-1.384z" fill="#9e61ad" transform="matrix(.83179915 -.55507673 .55507673 .83179915 -6.558 8.948)"/><path d="m14.942 28.404h1.384v1.384h-1.384z" fill="#8053a3" transform="matrix(.83179915 -.55507673 .55507673 .83179915 -13.521 13.572)"/><path d="m12.8 29.3-3.374-5.1 18.013-12.044 3.534 5.011z" fill="url(#i)"/></svg>