<svg xmlns="http://www.w3.org/2000/svg" viewBox="0 0 32 32"><title>folder_type_theme</title><path d="M27.5,5.5H18.2L16.1,9.7H4.4V26.5H29.6V5.5Zm0,4.2H19.3l1.1-2.1h7.1Z" style="fill:#bf7355"/><path d="M27.3,16.881A7.833,7.833,0,0,1,28.876,18.3a4.666,4.666,0,0,1,.17,6.087,5.188,5.188,0,0,1-3.163,1.765,9.328,9.328,0,0,1-3.381-.073,10.985,10.985,0,0,0-1.608-.176.9.9,0,0,0-1.049.739.941.941,0,0,0,.18.742,10.477,10.477,0,0,0,.848,1.108,2.179,2.179,0,0,1,.529.99.787.787,0,0,1-.491.946,6.369,6.369,0,0,1-3.139.552,14.98,14.98,0,0,1-7.736-2.555,6.838,6.838,0,0,1-2.928-4.416,5.868,5.868,0,0,1,1-4.544,10.183,10.183,0,0,1,4.317-3.6,15.054,15.054,0,0,1,11.67-.6C24.138,15.285,27.229,16.942,27.3,16.881Z" style="fill:#a86749"/><path d="M11.247,22.676a2.469,2.469,0,0,1,1.594.514,1.126,1.126,0,0,1,.321,1.533,1.091,1.091,0,0,1-.321.328,2.767,2.767,0,0,1-3.195,0,1.129,1.129,0,0,1-.33-1.535,1.089,1.089,0,0,1,.337-.342A2.462,2.462,0,0,1,11.247,22.676Z" style="fill:#3783ff"/><path d="M10.965,21.431a1.923,1.923,0,0,1-1.171-.371.9.9,0,0,1-.3-1.214.871.871,0,0,1,.29-.3,2.113,2.113,0,0,1,2.458.025.887.887,0,0,1,.235,1.212.853.853,0,0,1-.226.234A1.95,1.95,0,0,1,10.965,21.431Z" style="fill:#4de94c"/><path d="M14.11,18.49a1.465,1.465,0,0,1-1.072-.385.719.719,0,0,1-.087-1,.732.732,0,0,1,.087-.089,1.656,1.656,0,0,1,2.124,0,.721.721,0,0,1,.087,1,.678.678,0,0,1-.128.123A1.488,1.488,0,0,1,14.11,18.49Z" style="fill:#fe0"/><path d="M15.859,25.412a2.8,2.8,0,0,1,1.793.568,1.235,1.235,0,0,1,.373,1.677,1.215,1.215,0,0,1-.373.382,3.158,3.158,0,0,1-3.6,0,1.238,1.238,0,0,1-.39-1.678,1.2,1.2,0,0,1,.4-.4A2.8,2.8,0,0,1,15.859,25.412Z" style="fill:#4c1ac6"/><path d="M31,13.466a5.786,5.786,0,0,1-1.151,1.909A46.815,46.815,0,0,1,26.1,19.459a.513.513,0,0,1-.537.189.685.685,0,0,1-.251-.153q-.429-.409-.844-.833a.473.473,0,0,1-.076-.653.557.557,0,0,1,.052-.057.664.664,0,0,1,.051-.055,48.318,48.318,0,0,1,4.108-3.7,8.453,8.453,0,0,1,1.42-.946,2.589,2.589,0,0,1,.508-.189.353.353,0,0,1,.466.194l0,.007Z" style="fill:#2a3e4f"/><path d="M20,22.963a.08.08,0,0,1,.03.006,2.259,2.259,0,0,0,2.977-.465,1.534,1.534,0,0,0,.411-1.21,1.171,1.171,0,0,0-1-1.006,1.025,1.025,0,0,0-.923.408,1.535,1.535,0,0,0-.284.657A2.574,2.574,0,0,1,20,22.938Z" style="fill:#7e8c8d"/><path d="M25.16,19.792c-.325-.327-.655-.651-.984-.976a.236.236,0,0,0-.336-.048.243.243,0,0,0-.063.072q-.417.544-.83,1.092a.219.219,0,0,0,.008.3l.011.01q.369.366.738.728a.224.224,0,0,0,.318.025c.375-.277.751-.554,1.12-.839a.8.8,0,0,0,.136-.2A1.172,1.172,0,0,0,25.16,19.792Z" style="fill:#f89b36"/><path d="M17.865,17.121a1.145,1.145,0,0,1-.859-.321.617.617,0,0,1-.048-.856.567.567,0,0,1,.048-.05,1.287,1.287,0,0,1,1.7,0,.617.617,0,0,1,.048.857.583.583,0,0,1-.08.077A1.165,1.165,0,0,1,17.865,17.121Z" style="fill:#ff8c00"/><path d="M20,22.963s3.915-1.136,2.659-2.614c0,0-.857-.393-1.455,1.007A3.925,3.925,0,0,1,20,22.963Z" style="fill:#8f9fa0"/><path d="M23.306,20.585l1.373-1.272-.5-.5a.24.24,0,0,0-.344-.039.257.257,0,0,0-.055.063c-.2.259-1.152,1.07-.812,1.407Z" style="fill:#e9bb42"/><path d="M24.878,19.073,31,13.254s.041-.393-.468-.2-.8-.177-6.094,4.895c0,0-.389.3.024.71Z" style="fill:#32495d"/><path d="M21.721,17.41a1.149,1.149,0,0,1-.858-.321.617.617,0,0,1-.048-.857.555.555,0,0,1,.048-.049,1.287,1.287,0,0,1,1.7,0,.617.617,0,0,1,.048.855.549.549,0,0,1-.082.078A1.157,1.157,0,0,1,21.721,17.41Z" style="fill:#f60000"/></svg>