<svg xmlns="http://www.w3.org/2000/svg" viewBox="0 0 32 32"><title>folder_type_common</title><g clip-path="url(#clip0_4_35)"><path d="M27.5 5.5H18.2L16.1 9.7H4.4V26.5H29.6V5.5H27.5ZM27.5 9.7H19.3L20.4 7.6H27.5V9.7Z" fill="#7C99AC"/><path d="M23.5066 15C22.4745 14.9999 21.4536 15.2145 20.5088 15.63C21.1126 15.8944 21.6787 16.2373 22.1926 16.65C23.0712 16.45 23.9836 16.4505 24.862 16.6514C25.7403 16.8523 26.5622 17.2485 27.2665 17.8105C27.9709 18.3725 28.5395 19.086 28.9304 19.8979C29.3212 20.7098 29.5242 21.5993 29.5242 22.5004C29.5242 23.4015 29.3212 24.291 28.9304 25.1029C28.5395 25.9148 27.9709 26.6282 27.2665 27.1902C26.5622 27.7523 25.7403 28.1484 24.862 28.3493C23.9836 28.5502 23.0712 28.5507 22.1926 28.3508C21.6787 28.7634 21.1126 29.1064 20.5088 29.3708C21.5306 29.8168 22.6389 30.0293 23.7531 29.993C24.8673 29.9567 25.9595 29.6724 26.95 29.1608C27.9405 28.6492 28.8044 27.9231 29.479 27.0355C30.1535 26.1479 30.6216 25.1211 30.8493 24.0297C31.0769 22.9384 31.0584 21.81 30.795 20.7268C30.5316 19.6435 30.0299 18.6326 29.3266 17.7677C28.6232 16.9027 27.7359 16.2055 26.7291 15.7267C25.7223 15.2479 24.6214 14.9997 23.5066 15V15Z" fill="#D1D1D1"/><path d="M17.5066 22.5C17.5089 23.8619 17.9739 25.1825 18.8254 26.2454C19.6768 27.3084 20.8641 28.0504 22.1926 28.35C23.0703 27.6484 23.7788 26.7583 24.2658 25.7456C24.7527 24.7329 25.0055 23.6237 25.0055 22.5C25.0055 21.3763 24.7527 20.2671 24.2658 19.2544C23.7788 18.2418 23.0703 17.3516 22.1926 16.65C20.8641 16.9496 19.6768 17.6917 18.8254 18.7546C17.9739 19.8175 17.5089 21.1381 17.5066 22.5V22.5Z" fill="#D1D1D1"/><path d="M16.0066 22.5C16.0085 21.0413 16.4353 19.6147 17.2349 18.3947C18.0344 17.1746 19.1721 16.2139 20.5088 15.63C19.3674 15.1301 18.1193 14.9224 16.8775 15.0259C15.6356 15.1293 14.4392 15.5405 13.3961 16.2224C12.3531 16.9043 11.4964 17.8353 10.9034 18.9313C10.3105 20.0274 10 21.2539 10 22.5C10 23.7461 10.3105 24.9726 10.9034 26.0687C11.4964 27.1647 12.3531 28.0957 13.3961 28.7776C14.4392 29.4595 15.6356 29.8707 16.8775 29.9741C18.1193 30.0776 19.3674 29.8699 20.5088 29.37C19.1721 28.7861 18.0344 27.8254 17.2349 26.6053C16.4353 25.3853 16.0085 23.9587 16.0066 22.5V22.5Z" fill="#D1D1D1"/></g><defs><clipPath id="clip0_4_35"><rect width="32" height="32" fill="white"/></clipPath></defs></svg>