<svg xmlns="http://www.w3.org/2000/svg" xmlns:xlink="http://www.w3.org/1999/xlink" viewBox="0 0 32 32"><defs><radialGradient id="a" cx="290.179" cy="-321.728" r="8.902" gradientTransform="matrix(1.711, 0.138, 0.094, -1.169, -444.134, -394.022)" gradientUnits="userSpaceOnUse"><stop offset="0" stop-color="#0663b4"/><stop offset="1" stop-color="#16adff" stop-opacity="0.685"/></radialGradient><linearGradient id="b" x1="262.559" y1="-662.427" x2="262.559" y2="-659.102" gradientTransform="matrix(1, 0, 0, -1, -250.518, -647.956)" gradientUnits="userSpaceOnUse"><stop offset="0" stop-color="#047fc7"/><stop offset="1" stop-color="#11abe8"/></linearGradient></defs><title>folder_type_nuget_opened</title><path d="M27.4,5.5H18.2L16.1,9.7H4.3V26.5H29.5V5.5Zm0,18.7H6.6V11.8H27.4Zm0-14.5H19.2l1-2.1h7.1V9.7Z" style="fill:#7baddb"/><polygon points="25.7 13.7 0.5 13.7 4.3 26.5 29.5 26.5 25.7 13.7" style="fill:#7baddb"/><rect x="13.208" y="13.188" width="17.792" height="17.792" rx="5.775" ry="5.775" style="fill:#c7ebf1"/><rect x="13.558" y="13.713" width="17.092" height="16.917" rx="5.47" ry="5.47" style="opacity:0.823008835315704;isolation:isolate;fill:url(#a)"/><rect x="14.528" y="15.138" width="14.57" height="14.57" rx="4.565" ry="4.565" style="fill:#016fd2"/><path d="M30.629,18.763a5.467,5.467,0,0,0-5.449-5.051H19.029a5.47,5.47,0,0,0-5.47,5.47v5.976c0,.124.01.245.018.367.391.021.784.032,1.181.032A21.893,21.893,0,0,0,30.629,18.763Z" style="fill:#5fffe6;opacity:0.172566369175911"/><path d="M28.375,25.2a3.733,3.733,0,1,1-7.467,0v0a3.733,3.733,0,1,1,7.467,0Z" style="fill:#fff"/><path d="M19.917,18.379a2.158,2.158,0,0,1-4.317,0v0a2.158,2.158,0,0,1,4.317,0Z" style="fill:#fff"/><path d="M14.083,12.663a2.042,2.042,0,1,1-4.083,0h0a2.042,2.042,0,1,1,4.083,0Z" style="fill:#cbedf2;fill-opacity:0.925490200519562"/><path d="M13.617,12.663a1.575,1.575,0,0,1-3.15,0h0a1.575,1.575,0,0,1,3.15,0Z" style="fill:url(#b)"/></svg>