<svg xmlns="http://www.w3.org/2000/svg" width="32" height="32" fill="none"><path fill="#055d7f" d="M27.417 5.5H18.19l-2.083 4.2H4.5v16.8h25v-21zm0 4.2h-8.135l1.091-2.1h7.044z"/><path fill="#99b8c4" d="m25.999 26.903.62-.615c2.865.093 2.909-.007 3.035-.302l.787-1.916.058-.182-.064-.159c-.033-.084-.137-.334-1.926-2.04v-.898c2.064-1.988 2.02-2.09 1.902-2.381l-.783-1.937c-.118-.29-.163-.404-3.008-.326l-.619-.64c.064-.943.031-1.89-.097-2.825l-.08-.181-2.046-.895c-.302-.138-.408-.187-2.34 1.917l-.869-.013c-1.99-2.123-2.083-2.085-2.381-1.965l-1.903.77c-.298.12-.403.163-.288 3.053l-.614.613c-2.864-.094-2.908.008-3.033.301l-.789 1.917-.062.184.065.16c.034.082.134.33 1.927 2.038v.895c-2.064 1.988-2.02 2.09-1.901 2.382l.783 1.938c.12.297.162.402 3.006.328l.62.643c-.065.942-.033 1.887.094 2.822l.08.182 2.06.9c.299.126.403.17 2.33-1.927l.868.012c1.992 2.126 2.094 2.085 2.385 1.967l1.899-.767c.3-.12.404-.161.284-3.053m-8.16-4.49a3.412 3.412 0 1 1 4.464 1.944 3.45 3.45 0 0 1-4.464-1.944"/></svg>