<svg version="1.1" viewBox="0 0 32 32" xmlns="http://www.w3.org/2000/svg"><defs><linearGradient id="a" x1=".85" x2="62.62" y1="62.72" y2="1.81" gradientUnits="userSpaceOnUse"><stop stop-color="#FF9419" offset="0"/><stop stop-color="#FF021D" offset=".43"/><stop stop-color="#E600FF" offset=".99"/></linearGradient></defs><title>folder_type_idea_opened</title><path d="M27.4,5.5H18.2L16.1,9.7H4.3V26.5H29.5V5.5Zm0,18.7H6.6V11.8H27.4Zm0-14.5H19.2l1-2.1h7.1V9.7Z" fill="#dbd47b"/><polygon points="25.7 13.7 0.5 13.7 4.3 26.5 29.5 26.5" fill="#dbd47b"/><g transform="matrix(.3125 0 0 .3125 10 10)"><path d="m20.34 3.66-16.68 16.68c-2.34 2.34-3.66 5.52-3.66 8.84v29.82c0 2.76 2.24 5 5 5h29.82c3.32 0 6.49-1.32 8.84-3.66l16.68-16.68c2.34-2.34 3.66-5.52 3.66-8.84v-29.82c0-2.76-2.24-5-5-5h-29.82c-3.32 0-6.49 1.32-8.84 3.66z" fill="url(#a)"/><path d="m48 16h-40v40h40z"/><path d="m30 47h-17v4h17z" fill="#fff"/></g></svg>
