<svg xmlns="http://www.w3.org/2000/svg" xmlns:xlink="http://www.w3.org/1999/xlink" viewBox="0 0 32 32"><defs><radialGradient id="radial-gradient" cx="290.18" cy="-321.73" r="8.9" gradientTransform="matrix(1.71, 0.14, 0.09, -1.17, -444.13, -394.02)" gradientUnits="userSpaceOnUse"><stop offset="0" stop-color="#0663b4"/><stop offset="1" stop-color="#16adff" stop-opacity="0.68"/></radialGradient><linearGradient id="linear-gradient" x1="262.56" y1="-662.43" x2="262.56" y2="-659.1" gradientTransform="matrix(1, 0, 0, -1, -250.52, -647.96)" gradientUnits="userSpaceOnUse"><stop offset="0" stop-color="#047fc7"/><stop offset="1" stop-color="#11abe8"/></linearGradient></defs><title>folder_type_nuget_opened@2x</title><g id="folder_opened_nuget"><path d="M27.4,5.5H18.2L16.1,9.7H4.3V26.5H29.5V5.5Zm0,18.7H6.6V11.8H27.4Zm0-14.5H19.2l1-2.1h7.1V9.7Z" style="fill:#7baddb"/><polygon points="25.7 13.7 0.5 13.7 4.3 26.5 29.5 26.5 25.7 13.7" style="fill:#7baddb"/><path d="M19,13.19h6.24A5.78,5.78,0,0,1,31,19V25.2A5.78,5.78,0,0,1,25.22,31H19a5.77,5.77,0,0,1-5.77-5.77V19A5.78,5.78,0,0,1,19,13.19Z" style="fill:#c7ebf1"/><rect x="13.56" y="13.71" width="17.09" height="16.92" rx="5.47" ry="5.47" style="opacity:0.823008835315704;isolation:isolate;fill:url(#radial-gradient)"/><rect x="14.53" y="15.14" width="14.57" height="14.57" rx="4.57" ry="4.57" style="fill:#016fd2"/><path d="M30.63,18.76a5.47,5.47,0,0,0-5.45-5.05H19a5.47,5.47,0,0,0-5.47,5.47v6c0,.12,0,.24,0,.37.39,0,.78,0,1.18,0A21.89,21.89,0,0,0,30.63,18.76Z" style="fill:#5fffe6;opacity:0.17256636917591095"/><path d="M28.37,25.2a3.73,3.73,0,1,1-7.47,0h0a3.73,3.73,0,1,1,7.47,0Z" style="fill:#fff"/><path d="M19.92,18.38a2.16,2.16,0,0,1-4.32,0h0a2.16,2.16,0,0,1,4.32,0Z" style="fill:#fff"/><path d="M14.08,12.66a2,2,0,1,1-4.08,0h0a2,2,0,1,1,4.08,0Z" style="fill:#cbedf2;fill-opacity:0.925490200519562"/><path d="M13.62,12.66a1.58,1.58,0,0,1-3.15,0h0a1.58,1.58,0,0,1,3.15,0Z" style="fill:url(#linear-gradient)"/></g></svg>