<svg xmlns="http://www.w3.org/2000/svg" viewBox="0 0 32 32"><title>folder_type_macos</title><path d="M27.9,6H18.1l-2,4H5V27H30V6Zm.1,4H20.2l1-2H28Z" style="fill:#559cbf"/><path d="M22.258,25.522a15.73,15.73,0,0,1-7.5-1.516l.473-.75a15.265,15.265,0,0,0,7.027,1.3c0,.082.1-1.533.245-2.413H19.1a21.659,21.659,0,0,1,3.033-9.408H11.937V28.261H22.649a22.457,22.457,0,0,1-.391-2.739Z" style="fill:#c6e9fa;fill-rule:evenodd"/><path d="M23.285,24.5a10.7,10.7,0,0,0,4.484-1.3l.587.75a12.786,12.786,0,0,1-5.071,1.517,13.55,13.55,0,0,0,.441,2.8h7.337V12.739h-7.81a19.334,19.334,0,0,0-2.968,8.381h3.506a15.366,15.366,0,0,0-.506,3.375Z" style="fill:#00adee;fill-rule:evenodd"/><polygon points="16.568 15.087 17.563 15.087 17.563 17.386 16.568 17.386 16.568 15.087 16.568 15.087" style="fill:#00adee;fill-rule:evenodd"/><polygon points="24.851 15.087 25.845 15.087 25.845 17.386 24.851 17.386 24.851 15.087 24.851 15.087" style="fill:#231f20;fill-rule:evenodd"/><path d="M23.285,24.5a10.7,10.7,0,0,0,4.484-1.3l.587.75a12.786,12.786,0,0,1-5.071,1.517,12.276,12.276,0,0,0,1.354,5.087L23.791,31c-1.549-2.445-1.826-5.739-1.288-8.853H19.1A21.489,21.489,0,0,1,24.084,10l.734.636A19.1,19.1,0,0,0,20.285,21.12h3.506a15.366,15.366,0,0,0-.506,3.375Z" style="fill:#231f20;fill-rule:evenodd"/><path d="M22.258,24.56v.962a15.73,15.73,0,0,1-7.5-1.516l.473-.75a15.265,15.265,0,0,0,7.027,1.3Z" style="fill:#00adee;fill-rule:evenodd"/></svg>