<svg viewBox="0 0 32 32" xmlns="http://www.w3.org/2000/svg" xmlns:xlink="http://www.w3.org/1999/xlink"><linearGradient id="a" gradientUnits="userSpaceOnUse" x1="15.912" x2="21.015" y1="25.739" y2="14.942"><stop offset="0" stop-color="#1011a1"/><stop offset="1" stop-color="#6969e1"/></linearGradient><linearGradient id="b" gradientUnits="userSpaceOnUse" x1="20.675" x2="27.799" y1="17.727" y2="29.772"><stop offset="0" stop-color="#b40e0e"/><stop offset="1" stop-color="#ff5959"/></linearGradient><linearGradient id="c" gradientUnits="userSpaceOnUse" x1="24.797" x2="14.718" y1="28.981" y2="28.135"><stop offset="0" stop-color="#01a300"/><stop offset="1" stop-color="#01df00"/></linearGradient><linearGradient id="d" gradientUnits="userSpaceOnUse" x1="19.472" x2="19.342" y1="26.291" y2="21.908"><stop offset="0" stop-color="#848484"/><stop offset="1" stop-color="#d2d2d2"/></linearGradient><path d="m27.9 6h-9.8l-2 4h-11.1v17h25v-21zm.1 4h-7.8l1-2h6.8z" fill="#c09553"/><path d="m21.453 21.2-11.391 9.733 10.438-20.842z" fill="url(#a)"/><path d="m10.078 30.951-.038-.029 10.478-20.922.007.089.954 11.122-.009.008zm10.4-20.77-10.338 20.652 11.287-9.644z"/><path d="m21.981 27.277-1.481-17.188 10.446 20.846z" fill="url(#b)"/><path d="m31 30.982-.061-.024-8.981-3.658v-.016l-1.483-17.193.047-.013zm-8.995-3.722 8.89 3.627-10.359-20.67z"/><path d="m16.827 25.124 14.13 5.809h-20.892z" fill="url(#c)"/><path d="m30.957 30.958h-20.957l.051-.044 6.771-5.814.015.006 14.13 5.808zm-20.825-.051h20.7l-14-5.754z"/><path d="m16.849 25.138 4.6-3.922.64 6.056z" fill="url(#d)"/><path d="m22.147 27.351-.077-.033-5.316-2.165.062-.053 4.673-3.984.01.095zm-5.2-2.229 5.087 2.072-.621-5.879z"/><path d="m30.884 31.075h-20.792a.192.192 0 0 1 -.155-.075.183.183 0 0 1 .018-.171l10.425-20.82a.146.146 0 0 1 .121-.083.134.134 0 0 1 .112.08l10.425 20.811a.2.2 0 0 1 .016.186.192.192 0 0 1 -.17.072zm-20.807-.153h.023 20.784a.162.162 0 0 0 .038 0c0-.006-.008-.018-.018-.036l-10.404-20.777-10.41 20.784z"/></svg>