<svg xmlns="http://www.w3.org/2000/svg" viewBox="0 0 32 32"><title>folder_type_library</title><path d="M27.5,5.5H18.2L16.1,9.7H4.4V26.5H29.6V5.5Zm0,4.2H19.3l1.1-2.1h7.1Z" style="fill:#c18053"/><path d="M13.065,26.488l-.383-.365V25.37a4.479,4.479,0,0,0,5.557,0v.753l-.383.365A3.471,3.471,0,0,1,13.065,26.488Z" style="fill:#59c2f2"/><path d="M12.682,23.9V13a4.029,4.029,0,0,0,5.557,0V23.9l-.383.365a3.471,3.471,0,0,1-4.791,0Zm1.111-6.455h3.334V16.334H13.793Z" style="fill:#59c2f2"/><path d="M15.46,28.559a4.566,4.566,0,0,1-2.778-.966V29.67a4.029,4.029,0,0,0,5.557,0V27.593A4.567,4.567,0,0,1,15.46,28.559Z" style="fill:#59c2f2"/><path d="M23.968,26.488l.383-.365V25.37a4.479,4.479,0,0,1-5.557,0v.753l.383.365A3.471,3.471,0,0,0,23.968,26.488Z" style="fill:#8abf4f"/><path d="M18.794,23.9V13a4.029,4.029,0,0,0,5.557,0V23.9l-.383.365a3.471,3.471,0,0,1-4.791,0Zm1.111-6.455H23.24V16.334H19.906Z" style="fill:#8abf4f"/><path d="M21.573,28.559a4.566,4.566,0,0,1-2.778-.966V29.67a4.029,4.029,0,0,0,5.557,0V27.593A4.567,4.567,0,0,1,21.573,28.559Z" style="fill:#8abf4f"/><path d="M30.081,26.488l.383-.365V25.37a4.479,4.479,0,0,1-5.557,0v.753l.383.365A3.471,3.471,0,0,0,30.081,26.488Z" style="fill:#b533a5"/><path d="M24.907,23.9V13a4.029,4.029,0,0,0,5.557,0V23.9l-.383.365a3.471,3.471,0,0,1-4.791,0Zm1.111-6.455h3.334V16.334H26.018Z" style="fill:#b533a5"/><path d="M27.685,28.559a4.565,4.565,0,0,1-2.778-.966V29.67a4.029,4.029,0,0,0,5.557,0V27.593A4.567,4.567,0,0,1,27.685,28.559Z" style="fill:#b533a5"/></svg>