<svg xmlns="http://www.w3.org/2000/svg" xmlns:xlink="http://www.w3.org/1999/xlink" viewBox="0 0 32 32"><defs><mask id="a" x="10" y="10.575" width="21" height="20.449" maskUnits="userSpaceOnUse"><polygon points="31 31.025 31 10.575 10 10.575 10 31.025 31 31.025" style="fill:#fff;fill-rule:evenodd"/></mask></defs><title>folder_type_minikube</title><path d="M27.9,6H18.1l-2,4H5V27H30V6Zm.1,4H20.2l1-2H28Z" style="fill:#55b5bf"/><g style="mask:url(#a)"><path d="M20.52,10.575h0a2.038,2.038,0,0,0-.841.191l-6.871,3.286a1.921,1.921,0,0,0-1.059,1.317l-1.7,7.373a1.924,1.924,0,0,0,.381,1.656l4.752,5.907a1.917,1.917,0,0,0,1.507.72h7.618a1.917,1.917,0,0,0,1.507-.72L30.568,24.4a1.914,1.914,0,0,0,.381-1.656l-1.7-7.373a1.921,1.921,0,0,0-1.059-1.317l-6.843-3.286a1.939,1.939,0,0,0-.829-.191m0,.639a1.32,1.32,0,0,1,.557.122l6.871,3.272a1.322,1.322,0,0,1,.706.883l1.7,7.373a1.269,1.269,0,0,1-.258,1.113l-4.752,5.907a1.3,1.3,0,0,1-1.019.489H16.7a1.3,1.3,0,0,1-1.019-.489l-4.752-5.907a1.361,1.361,0,0,1-.258-1.113l1.7-7.373a1.3,1.3,0,0,1,.706-.883l6.871-3.286a1.633,1.633,0,0,1,.57-.108" style="fill:#326de6;fill-rule:evenodd"/></g><path d="M16.545,28.649a1.261,1.261,0,0,0,.99.474l5.978-.01a1.289,1.289,0,0,0,.987-.475l3.644-4.588a1.28,1.28,0,0,0,.094-.661V16.982l-7.83,4.508h0l-7.822-4.5v6.4a1.076,1.076,0,0,0,.241.671Z" style="fill:#1fbfcf;fill-rule:evenodd"/><polygon points="20.408 21.49 28.238 16.982 20.401 12.477 12.586 16.986 20.408 21.49" style="fill:#c9e9ec;fill-rule:evenodd"/><path d="M22.276,24.973a.545.545,0,0,1-.715-.122.464.464,0,0,1-.1-.225L21.276,21.3a6.194,6.194,0,0,1,3.674,1.776ZM19.5,24.544a.559.559,0,0,1-.551.531.482.482,0,0,1-.245-.061l-2.715-1.939A6.233,6.233,0,0,1,19.03,21.4c.225-.041.429-.082.654-.122Zm7.634-1.367.2-.184v-.041a.459.459,0,0,1,.1-.306,5.971,5.971,0,0,1,.918-.632c.061-.041.123-.062.184-.1a2.986,2.986,0,0,0,.347-.2c.02-.02.061-.04.1-.081.02-.021.041-.021.041-.041a.682.682,0,0,0,.143-.919.58.58,0,0,0-.47-.224.759.759,0,0,0-.449.163l-.041.041c-.04.02-.061.061-.1.082a3.447,3.447,0,0,0-.265.285.964.964,0,0,1-.143.143,5.24,5.24,0,0,1-.816.735.331.331,0,0,1-.184.061.266.266,0,0,1-.123-.02h-.04L26.3,22.1a9.953,9.953,0,0,0-.837-.776,8.157,8.157,0,0,0-4.266-1.694l-.02-.265-.041-.041a.429.429,0,0,1-.164-.265,7.193,7.193,0,0,1,.062-1.1v-.021a.7.7,0,0,1,.041-.2c.02-.122.04-.245.061-.388v-.183a.623.623,0,0,0-1.082-.47.646.646,0,0,0-.184.47v.163a1.214,1.214,0,0,0,.061.388c.021.061.021.122.041.2v.02a5.33,5.33,0,0,1,.062,1.1.432.432,0,0,1-.164.265l-.041.041-.02.265a10.461,10.461,0,0,0-1.1.163,7.87,7.87,0,0,0-4.042,2.286l-.2-.143h-.041c-.04,0-.081.021-.122.021a.339.339,0,0,1-.184-.061,5.42,5.42,0,0,1-.816-.756.961.961,0,0,0-.143-.142,3.455,3.455,0,0,0-.265-.286c-.021-.021-.062-.041-.1-.082-.021-.02-.041-.02-.041-.041A.715.715,0,0,0,12.3,20.4a.581.581,0,0,0-.47.225.681.681,0,0,0,.143.918c.021,0,.021.02.041.02.041.021.061.062.1.082a2.986,2.986,0,0,0,.347.2.846.846,0,0,1,.184.1,5.97,5.97,0,0,1,.918.633.375.375,0,0,1,.1.306v.041l.2.184a.767.767,0,0,0-.1.163,7.986,7.986,0,0,0-.612,1.178l1.164,1.436a6.41,6.41,0,0,1,.693-1.593l2.429,2.163a.544.544,0,0,1,.062.755.411.411,0,0,1-.245.164l-1.4.407.7.86a1.261,1.261,0,0,0,.99.474l5.978-.01a1.289,1.289,0,0,0,.987-.475l.654-.824L23.725,27.4a.553.553,0,0,1-.388-.653.49.49,0,0,1,.123-.225L25.929,24.3a6.463,6.463,0,0,1,.705,1.656l1.187-1.494a8.616,8.616,0,0,0-.687-1.285Z" style="fill:#326de6;fill-rule:evenodd"/></svg>