<svg xmlns="http://www.w3.org/2000/svg" viewBox="0 0 32 32"><title>folder_type_ios_opened</title><path d="M27.5,5.5H18.3L16.2,9.7H4.4V26.5H29.6V5.5Zm0,18.7H6.7V11.8H27.5Zm0-14.5H19.3l1-2.1h7.1V9.7Z" style="fill:#868686"/><polygon points="25.822 13.7 0.622 13.7 4.422 26.5 29.622 26.5 25.822 13.7" style="fill:#868686"/><path d="M28.416,20.535a4.663,4.663,0,0,1,2.225-3.924,4.813,4.813,0,0,0-3.769-2.043c-1.605-.163-3.132.945-3.947.945s-2.07-.921-3.4-.9A5.043,5.043,0,0,0,15.261,17.2c-1.818,3.154-.466,7.827,1.306,10.385.866,1.252,1.9,2.659,3.253,2.608,1.305-.052,1.8-.845,3.377-.845s2.022.845,3.4.819c1.4-.026,2.294-1.276,3.154-2.532A11.365,11.365,0,0,0,31.182,24.7,4.553,4.553,0,0,1,28.416,20.535Zm-2.6-7.66a4.543,4.543,0,0,0,1.072-3.292,4.621,4.621,0,0,0-3.036,1.561,4.321,4.321,0,0,0-1.095,3.189A3.823,3.823,0,0,0,25.821,12.875Z" style="fill:#b3b3b3"/></svg>