<?xml version="1.0" encoding="UTF-8" standalone="no"?><!DOCTYPE svg PUBLIC "-//W3C//DTD SVG 1.1//EN" "http://www.w3.org/Graphics/SVG/1.1/DTD/svg11.dtd"><svg width="100%" height="100%" viewBox="0 0 32 32" version="1.1" xmlns="http://www.w3.org/2000/svg" xmlns:xlink="http://www.w3.org/1999/xlink" xml:space="preserve" xmlns:serif="http://www.serif.com/" style="fill-rule:evenodd;clip-rule:evenodd;stroke-linejoin:round;stroke-miterlimit:2;"><path id="FolderClosed" d="M29.483,5.459l-11.4,0l-2.1,4.2l-11.7,0l0,16.8l25.2,0l0,-21Zm-2.1,4.2l-8.2,0l1.1,-2.1l7.1,0l0,2.1Z" style="fill:#31ad79;fill-rule:nonzero;"/><g id="Cy-Logo" serif:id="Cy Logo"><g id="Dark"><path id="Circle" d="M19.678,10.025c5.503,-0.196 10.132,4.115 10.33,9.621c0.199,5.505 -4.108,10.133 -9.612,10.329c-5.503,0.196 -10.132,-4.115 -10.33,-9.621c-0.198,-5.505 4.109,-10.134 9.612,-10.329Z"/><g><g><g id="Cy-Text" serif:id="Cy Text"><path d="M25.387,16.834l-1.878,4.715l-1.891,-4.715l-1.548,0l2.653,6.436l-1.887,4.539l1.352,0.267l4.661,-11.242l-1.462,0Z" style="fill:#d2d2d2;fill-rule:nonzero;"/><g><path d="M17.13,18.027c0.785,-0 1.425,0.415 1.753,1.14l0.026,0.056l1.319,-0.444l-0.029,-0.067c-0.51,-1.233 -1.686,-2 -3.069,-2c-0.972,0 -1.762,0.31 -2.415,0.944c-0.649,0.631 -0.977,1.424 -0.977,2.358c0,0.927 0.328,1.716 0.977,2.346c0.653,0.635 1.443,0.944 2.415,0.944c1.383,-0 2.559,-0.767 3.069,-1.999l0.029,-0.067l-1.321,-0.445l-0.025,0.059c-0.294,0.712 -0.949,1.137 -1.752,1.137c-0.546,0 -1.008,-0.189 -1.374,-0.563c-0.37,-0.378 -0.557,-0.852 -0.557,-1.411c-0,-0.562 0.182,-1.028 0.557,-1.423c0.365,-0.375 0.828,-0.565 1.374,-0.565Z" style="fill:#d2d2d2;fill-rule:nonzero;"/></g></g><g><path d="M24.495,26.987c2.641,-1.67 4.113,-4.634 3.839,-7.734c-0.096,-1.098 -0.404,-2.147 -0.911,-3.115l1.199,-0.62c0.59,1.125 0.948,2.343 1.061,3.618c0.317,3.601 -1.392,7.043 -4.461,8.983l-0.727,-1.132Z" style="fill:url(#_Linear1);fill-rule:nonzero;"/><path d="M10.699,22.54c-0.229,-0.826 -0.345,-1.684 -0.345,-2.549c0,-3.945 2.498,-7.553 6.217,-8.976l0.488,1.252c-3.201,1.225 -5.351,4.329 -5.351,7.724c-0,0.745 0.099,1.483 0.296,2.193l-1.305,0.356Z" style="fill:#58d09e;fill-rule:nonzero;"/><path d="M16.506,11.046c0.805,-0.312 1.653,-0.516 2.52,-0.607c3.956,-0.412 7.835,1.675 9.65,5.195l-1.204,0.612c-1.563,-3.03 -4.9,-4.826 -8.305,-4.471c-0.746,0.077 -1.476,0.253 -2.168,0.521l-0.493,-1.25Z" style="fill:#58d09e;fill-rule:nonzero;"/><path d="M21.098,27.173l-0.329,0.792c-0.066,0.156 -0.215,0.262 -0.384,0.269c-0.111,0.005 -0.223,0.008 -0.337,0.008c-3.879,-0.002 -7.311,-2.715 -8.161,-6.452l-1.32,0.296c0.477,2.096 1.674,3.999 3.372,5.358c1.718,1.376 3.881,2.135 6.095,2.139l0.02,0c0.13,0 0.259,-0.003 0.388,-0.008c0.694,-0.029 1.315,-0.461 1.58,-1.1l0.43,-1.035l-1.354,-0.267Z" style="fill:url(#_Linear2);fill-rule:nonzero;"/></g></g></g></g></g><defs><linearGradient id="_Linear1" x1="0" y1="0" x2="1" y2="0" gradientUnits="userSpaceOnUse" gradientTransform="matrix(-2.9499,10.7163,-10.7163,-2.9499,28.7347,17.3195)"><stop offset="0" style="stop-color:#58d09e;stop-opacity:1"/><stop offset="1" style="stop-color:#000;stop-opacity:1"/></linearGradient><linearGradient id="_Linear2" x1="0" y1="0" x2="1" y2="0" gradientUnits="userSpaceOnUse" gradientTransform="matrix(8.73083,6.88,-6.88,8.73083,11.2801,22.9309)"><stop offset="0" style="stop-color:#58d09e;stop-opacity:1"/><stop offset="1" style="stop-color:#d2d2d2;stop-opacity:1"/></linearGradient></defs></svg>