<svg width="32" height="32" viewBox="0 0 32 32" fill="none" xmlns="http://www.w3.org/2000/svg">
<path d="M29.6 5.5H18.2L16.1 9.7H4.39999V26.5H29.6V5.5ZM27.5 9.7H19.3L20.4 7.6H27.5V9.7Z" fill="#4F51E5"/>
<path d="M16 18.1944C16 17.0762 16 16.5172 16.218 16.0901C16.4097 15.7144 16.7157 15.409 17.092 15.2176C17.5198 15 18.0799 15 19.2 15H22.8C23.9201 15 24.4802 15 24.908 15.2176C25.2843 15.409 25.5903 15.7144 25.782 16.0901C26 16.5172 26 17.0762 26 18.1944V21.7881C26 22.9062 26 23.4653 25.782 23.8924C25.5903 24.268 25.2843 24.5734 24.908 24.7649C24.4802 24.9825 23.9201 24.9825 22.8 24.9825H19.2C18.0799 24.9825 17.5198 24.9825 17.092 24.7649C16.7157 24.5734 16.4097 24.268 16.218 23.8924C16 23.4653 16 22.9062 16 21.7881V18.1944Z" fill="#4F51E5"/>
<path d="M21.2 20.3292C21.2 20.2528 21.262 20.1909 21.3386 20.1909H23C23.9941 20.1909 24.8 20.9954 24.8 21.9877C24.8 22.9801 23.9941 23.7846 23 23.7846C22.0059 23.7846 21.2 22.9801 21.2 21.9877V20.3292Z" fill="white"/>
<path d="M21.2 19.6532C21.2 19.7296 21.262 19.7916 21.3386 19.7916H23C23.9941 19.7916 24.8 18.9871 24.8 17.9947C24.8 17.0024 23.9941 16.1979 23 16.1979C22.0059 16.1979 21.2 17.0024 21.2 17.9947V19.6532Z" fill="white"/>
<path d="M20.8 20.3292C20.8 20.2528 20.738 20.1909 20.6614 20.1909H19C18.0059 20.1909 17.2 20.9954 17.2 21.9877C17.2 22.9801 18.0059 23.7846 19 23.7846C19.9941 23.7846 20.8 22.9801 20.8 21.9877V20.3292Z" fill="white"/>
<path d="M20.8 19.6532C20.8 19.7296 20.738 19.7916 20.6614 19.7916H19C18.0059 19.7916 17.2 18.9871 17.2 17.9947C17.2 17.0024 18.0059 16.1979 19 16.1979C19.9941 16.1979 20.8 17.0024 20.8 17.9947V19.6532Z" fill="white"/>
</svg>
