<svg viewBox="0 0 32 32" xmlns="http://www.w3.org/2000/svg"><path d="m27.5 5.5h-9.3l-2.1 4.2h-11.7v16.8h25.2v-21zm0 4.2h-8.2l1.1-2.1h7.1z" fill="#bf5555"/><path d="m14.2 18.428a4.2 4.2 0 1 1 4.2-4.2 4.2 4.2 0 0 1 -4.2 4.2zm0-6a1.8 1.8 0 1 0 1.8 1.8 1.8 1.8 0 0 0 -1.8-1.797z" fill="#40e81c"/><path d="m26.8 25.38a4.2 4.2 0 1 1 4.2-4.2 4.2 4.2 0 0 1 -4.2 4.2zm0-6a1.8 1.8 0 1 0 1.8 1.8 1.8 1.8 0 0 0 -1.8-1.797z" fill="#1c91e8"/><path d="m16.187 31a4.2 4.2 0 1 1 4.2-4.2 4.2 4.2 0 0 1 -4.2 4.2zm0-6a1.8 1.8 0 1 0 1.8 1.8 1.8 1.8 0 0 0 -1.8-1.8z" fill="#eada1b"/><g fill="#474756"><path d="m14.19 19.094a5.689 5.689 0 0 1 -.645-.015l.519 3.306a4.939 4.939 0 0 1 2.1-.475 5.542 5.542 0 0 1 .668.042l-.517-3.3a4.936 4.936 0 0 1 -2.125.442z"/><path d="m22 22.158-2.321 1.22a4.979 4.979 0 0 1 1.307 2.475l2.337-1.229a5.066 5.066 0 0 1 -1.323-2.466z"/><path d="m23.359 17.7-4.38-2.422a4.889 4.889 0 0 1 -1.355 2.448l4.388 2.432a5.05 5.05 0 0 1 1.347-2.458z"/></g></svg>