<svg viewBox="0 0 32 32" xmlns="http://www.w3.org/2000/svg"><path d="m27.5 5.5h-9.3l-2.1 4.2h-11.7v16.8h25.2v-21zm0 4.2h-8.2l1.1-2.1h7.1z" fill="#55bfa0"/><path d="m31 15.778q0 7.612 0 15.222h-21q0-7.612 0-15.223h21" fill="#2dcc9f"/><g fill="#fff"><path d="m26.674 17.8a1.653 1.653 0 1 0 .845.467 1.659 1.659 0 0 0 -.845-.467"/><path d="m22.083 26.467-4.083-5.681-6.062 8.428h8.174q.987-1.374 1.976-2.747"/><path d="m25.043 23.391q-2.095 2.912-4.188 5.824h8.377q-2.094-2.915-4.189-5.824z"/></g></svg>