<svg xmlns="http://www.w3.org/2000/svg" viewBox="0 0 32 32"><title>folder_type_hook_opened</title><path d="M27.4,5.5H18.2L16.1,9.7H4.3V26.5H29.5V5.5Zm0,18.7H6.6V11.8H27.4Zm0-14.5H19.2l1-2.1h7.1V9.7Z" style="fill:#dcb67a"/><polygon points="25.7 13.7 0.5 13.7 4.3 26.5 29.5 26.5 25.7 13.7" style="fill:#dcb67a"/><path d="M22.3635 15.6065c.464.7705 1.396 1.1725 1.935 1.357.0075 .003.046 .017.1155 .0425.1565 4.5315.1175 5.029-.1155 5.9655-.35 1.405-1.4275 3.249-3.558 3.218-2.13-.031-2.248-1.47-2.4035-2.397-.155-.9265.008-3.051 0-3.1005-.015-.108.5705 .0255 1.3005 0 .521-.0185.979-.0185 1.3745 0-1.34-1.514-2.0595-2.3195-2.1565-2.4175-.0065-.006-1.0845-.8555-2.551-2.548-.0185.735-.0185 1.622 0 2.662.0155 .863-.0355 3.071 0 4.408.0365 1.337.2275 3.6465 1.0555 4.393.8275 .746 1.2855 1.2365 3.652 1.3035 2.366.067 3.747-1.661 4.4385-2.3035.6915-.643 1.186-2.2115 1.2785-3.218.033-.358.0405-2.1965.0235-5.5155-.0075.3165-.0155.1665-.0235-.45.169-.0695.262-.108.2815-.1155 1.0005-.4005 1.174-.7765 1.6265-1.284.453-.507.704-3.168 0-4.021-.704-.8535-.954-1.077-1.908-1.313-.954-.236-1.741-.1335-2.4305 0s-1.371.658-1.935 1.313c-.5645.6545-.4645 3.2505 0 4.021zm2.215-.173c-.739-.3655-1.1775-1.1855-1.063-1.9785.0965-.6465.4895-1.1895 1.063-1.4745.481-.2385.9545-.2695 1.463-.1035.889 .2885 1.455 1.2315 1.2935 2.144-.2315 1.282-1.602 1.982-2.7565 1.4125z" style="fill: #61dbfb" /></svg>
