<svg xmlns="http://www.w3.org/2000/svg" viewBox="0 0 32 32"><title>folder_type_light_sass</title><path d="M27.5,5.5H18.2L16.1,9.7H4.4V26.5H29.6V5.5Zm0,4.2H19.3l1.1-2.1h7.1Z" style="fill:#bf558a"/><path d="M20.5,10A10.5,10.5,0,1,1,10,20.5,10.5,10.5,0,0,1,20.5,10Z" style="fill:#c69;fill-rule:evenodd"/><path d="M27.086,14.494c-.475-1.865-3.568-2.478-6.494-1.438a14.7,14.7,0,0,0-4.983,2.858c-1.612,1.508-1.869,2.82-1.763,3.368.374,1.935,3.025,3.2,4.114,4.138v.006c-.321.158-2.673,1.348-3.224,2.565-.581,1.284.092,2.2.538,2.329a3.3,3.3,0,0,0,3.56-1.443,3.618,3.618,0,0,0,.354-3.216,4.229,4.229,0,0,1,1.607-.092c1.842.215,2.2,1.365,2.134,1.846a1.215,1.215,0,0,1-.585.826c-.129.08-.169.108-.158.167.016.086.075.083.186.064a1.436,1.436,0,0,0,1-1.28c.044-1.128-1.037-2.39-2.951-2.357a5.052,5.052,0,0,0-1.642.222c-.026-.03-.053-.06-.081-.09-1.183-1.262-3.371-2.156-3.278-3.853.034-.617.248-2.242,4.2-4.213,3.24-1.614,5.834-1.17,6.282-.186.64,1.407-1.386,4.021-4.751,4.4a2.527,2.527,0,0,1-2.125-.538c-.177-.195-.2-.2-.269-.167-.107.06-.039.232,0,.334a1.994,1.994,0,0,0,1.216.956,6.444,6.444,0,0,0,3.944-.39C25.962,18.521,27.554,16.328,27.086,14.494ZM18.413,24a2.688,2.688,0,0,1-.022,1.569q-.026.08-.058.157t-.068.153a2.933,2.933,0,0,1-.485.707c-.61.666-1.462.917-1.828.705-.395-.229-.2-1.167.51-1.915a7.108,7.108,0,0,1,1.856-1.322l0,0Z" style="fill:#fff"/></svg>