<svg xmlns="http://www.w3.org/2000/svg" viewBox="0 0 32 32"><title>folder_type_dapr</title><path d="M27.5,5.5H18.2L16.1,9.7H4.4V26.5H29.6V5.5Zm0,4.2H19.3l1.1-2.1h7.1Z" style="fill:#5569bf"/><path d="M30.53,28.808H27.073v-8.29a.253.253,0,0,0-.252-.253H14.35a.253.253,0,0,0-.252.253v8.29H10.47a.47.47,0,0,0-.47.47V30.53a.469.469,0,0,0,.47.47H30.53a.469.469,0,0,0,.47-.47V29.278A.47.47,0,0,0,30.53,28.808Z" style="fill:#0d2192"/><path d="M10.47,31H16.5V29.4h2.4V20.265H14.35a.253.253,0,0,0-.252.253v8.29H10.47a.47.47,0,0,0-.47.47V30.53A.469.469,0,0,0,10.47,31Z" style="fill:#20329b"/></svg>