<svg width="32" height="32" viewBox="0 0 32 32" fill="none" xmlns="http://www.w3.org/2000/svg">
<path d="M27.417 5.5H18.19L16.107 9.7H4.5V26.5H29.5V5.5H27.417ZM27.417 9.7H19.282L20.373 7.6H27.417V9.7Z" fill="#C09553"/>
<path d="M21 31C26.5228 31 31 26.5228 31 21C31 15.4772 26.5228 11 21 11C15.4772 11 11 15.4772 11 21C11 26.5228 15.4772 31 21 31Z" fill="#E5E5E5"/>
<path fill-rule="evenodd" clip-rule="evenodd" d="M30 21C30 25.9706 25.9706 30 21 30C16.0294 30 12 25.9706 12 21C12 16.0294 16.0294 12 21 12C25.9706 12 30 16.0294 30 21ZM23.9963 19.245L27 17.4971L21.0001 14L15 17.4971V24.4913L18.0071 26.2441L18.0035 22.738L20.9999 24.4846L21.0002 28L27 24.4912L23.9964 22.7322L20.9999 24.4846L21.0002 20.9944L18.0035 19.245L20.9999 17.4986L23.9963 19.245Z" fill="#AC304F"/>
</svg>
