<svg xmlns="http://www.w3.org/2000/svg" xmlns:xlink="http://www.w3.org/1999/xlink" viewBox="0 0 32 32"><defs><linearGradient id="a" x1="664.537" y1="-1192.943" x2="664.537" y2="-1193.575" gradientTransform="matrix(1.571, 0, 0, -1.571, -1023.454, -2092.187)" gradientUnits="userSpaceOnUse"><stop offset="0" stop-color="#613050"/><stop offset="0.502" stop-color="#673455"/><stop offset="1" stop-color="#c979ac"/></linearGradient><linearGradient id="b" x1="665.675" y1="-1194.296" x2="665.675" y2="-1193.661" gradientTransform="matrix(1.571, 0, 0, -1.571, -1023.454, -2092.187)" gradientUnits="userSpaceOnUse"><stop offset="0" stop-color="#613050"/><stop offset="0.251" stop-color="#663354"/><stop offset="1" stop-color="#c979ac"/></linearGradient><linearGradient id="c" x1="82.165" y1="-375.677" x2="81.846" y2="-376.102" gradientTransform="matrix(69.89, 0, 0, -69.89, -5729.73, -26230.823)" gradientUnits="userSpaceOnUse"><stop offset="0" stop-color="#cbc9dd"/><stop offset="0.659" stop-color="#f9f9fb"/><stop offset="1" stop-color="#fff"/></linearGradient><linearGradient id="d" x1="82.165" y1="-375.617" x2="81.846" y2="-376.042" xlink:href="#c"/><linearGradient id="e" x1="82.165" y1="-375.551" x2="81.825" y2="-376.004" xlink:href="#c"/><linearGradient id="f" x1="665.675" y1="-1195.861" x2="665.675" y2="-1195.163" gradientTransform="matrix(1.571, 0, 0, -1.571, -1023.454, -2092.186)" gradientUnits="userSpaceOnUse"><stop offset="0" stop-color="#1e3918"/><stop offset="0.251" stop-color="#1e3918"/><stop offset="1" stop-color="#3bbb4e"/></linearGradient><linearGradient id="g" x1="665.675" y1="-1195.079" x2="665.675" y2="-1194.393" gradientTransform="matrix(1.571, 0, 0, -1.571, -1023.454, -2092.186)" gradientUnits="userSpaceOnUse"><stop offset="0" stop-color="#1e2576"/><stop offset="0.251" stop-color="#202a7c"/><stop offset="1" stop-color="#3c5eb5"/></linearGradient><linearGradient id="h" x1="422.77" y1="-838.497" x2="422.859" y2="-843.35" gradientTransform="matrix(1.571, 0, 0, -1.571, -647.765, -1298.602)" gradientUnits="userSpaceOnUse"><stop offset="0" stop-color="#f1f060"/><stop offset="1"/></linearGradient><linearGradient id="i" x1="422.769" y1="-844.067" x2="422.857" y2="-848.922" xlink:href="#h"/><linearGradient id="j" x1="422.767" y1="-841.124" x2="422.856" y2="-845.98" xlink:href="#h"/><linearGradient id="k" x1="699.826" y1="-1222.789" x2="698.978" y2="-1225.755" gradientTransform="matrix(1.571, 0, 0, -1.571, -1023.454, -2092.186)" gradientUnits="userSpaceOnUse"><stop offset="0" stop-color="#974810"/><stop offset="0.318" stop-color="#974810"/><stop offset="1" stop-color="#633"/></linearGradient><linearGradient id="l" x1="665.915" y1="-1194.093" x2="665.915" y2="-1194.603" gradientTransform="matrix(1.571, 0, 0, -1.571, -1023.454, -2092.186)" gradientUnits="userSpaceOnUse"><stop offset="0" stop-color="#666"/><stop offset="0.122" stop-color="#b5b1b4"/><stop offset="0.188" stop-color="#e5e5e5"/><stop offset="0.302" stop-color="#fff"/><stop offset="0.4" stop-color="#c8cecb"/><stop offset="0.62" stop-color="#9f9a9e"/><stop offset="0.89" stop-color="#666467"/><stop offset="1" stop-color="#666"/></linearGradient></defs><title>folder_type_library</title><path d="M27.5,5.5H18.2L16.1,9.7H4.4V26.5H29.6V5.5Zm0,4.2H19.3l1.1-2.1h7.1Z" style="fill:#c18053"/><path d="M26.864,14.128,29.739,16.8l.019.017.019.017.009.008.009.009a4.193,4.193,0,0,1,.391.4c.268.4-.3.318-.772.329H14.7a.783.783,0,0,1-.715-.3h0a5.972,5.972,0,0,0-.5-.545h0l-.01-.011-.011-.011h0l-.01-.011-.011-.011-2.56-2.56h15.98Z" style="fill:url(#a)"/><path d="M14.3,18.794v2.349a.569.569,0,0,0,.145.364h0a.44.44,0,0,0,.321.15H29.95a.439.439,0,0,0,.321-.149h0a.572.572,0,0,0,.146-.386V18.659a.568.568,0,0,0-.146-.384.437.437,0,0,0-.322-.15H14.765a.44.44,0,0,0-.321.149.57.57,0,0,0-.146.386Z" style="fill:url(#b)"/><path d="M10.2,26.877V23.1L12.62,25.52c.247.247.516.5.743.763a1.454,1.454,0,0,1,.377.935c.007.113.01.241.011.389,0,.3,0,.6,0,.895q0,.567,0,1.135c0,.229-.052.526-.4.2l-.007-.007-.006-.007-.011-.011L10.5,26.988a.33.33,0,0,0-.3-.111h0Z" style="fill:url(#c)"/><path d="M10.2,22.677V18.9L12.62,21.32c.247.247.516.5.743.763a1.454,1.454,0,0,1,.377.935c.007.113.01.241.011.389,0,.3,0,.6,0,.895q0,.567,0,1.135c0,.229-.052.526-.4.2l-.007-.007-.006-.007-.011-.011L10.5,22.788a.33.33,0,0,0-.3-.111h0Z" style="fill:url(#d)"/><path d="M10.2,18V14.221l2.419,2.418c.247.247.516.5.743.763a1.161,1.161,0,0,1,.377.935c.007.113.01.241.011.389,0,.3,0,.6,0,.895q0,.567,0,1.135c.018.17.021.829-.393.492l-.058-.04h0l-.018,0L10.461,18.39a.289.289,0,0,0-.259-.05l0-.343Z" style="fill:url(#e)"/><path d="M10.2,26.845V23.26l2.5,2.5c.137.137.273.275.411.411l.006.007.006,0,0,0,0,0c.394.4.56.577.6.988.033.351.024.738.027,1.132,0,.435,0,.867,0,1.286,0,.287-.023.569-.491.1l-2.78-2.779a.272.272,0,0,0-.278-.067Zm0-8.505V14.221l2.856,2.856c.563.563.67.719.69,1.266.014.411,0,.824,0,1.238,0,.453,0,.907,0,1.359,0,.254-.042.7-.656.084l-2.617-2.617a.274.274,0,0,0-.278-.067Z" style="fill:none"/><path d="M14.3,27.784v2.063a.689.689,0,0,0,.153.443.419.419,0,0,0,.315.161H29.951a.42.42,0,0,0,.314-.161.689.689,0,0,0,.154-.445V27.17a.692.692,0,0,0-.153-.443.422.422,0,0,0-.31-.161H14.766a.42.42,0,0,0-.314.161.689.689,0,0,0-.153.445h0v.611Z" style="fill:url(#f)"/><path d="M14.3,23.641v1.808a.663.663,0,0,0,.152.417.423.423,0,0,0,.316.158H29.951a.421.421,0,0,0,.315-.158.669.669,0,0,0,.152-.434V22.8a.67.67,0,0,0-.152-.432.423.423,0,0,0-.315-.159H14.766a.425.425,0,0,0-.315.158.667.667,0,0,0-.152.433v.843Z" style="fill:url(#g)"/><path d="M17.562,16.761H15.27l-2.136-2.136h2.292Z" style="fill:#b5bf2c"/><path d="M10.168,14.188c-.345-.4-.113-.583.3-.583H26.526c.46,0,.51-.058.856.264L30.11,16.4c.824.763.891,1,.891,2.37V20.9c0,.557.029,1-.5,1,.473,0,.5.439.5.91v2.57c0,.451-.1.915-.557.915.47,0,.557.445.557,1.018v2.33a1.754,1.754,0,0,1-.064.466,1.21,1.21,0,0,1-.256.536.958.958,0,0,1-.73.355H14.766a1.966,1.966,0,0,1-1.375-.412,1.3,1.3,0,0,1-.273-.251c-.057-.061-.129-.141-.246-.258L10.093,27.3a.273.273,0,0,1,.386-.386l2.78,2.78c.468.468.488.185.491-.1,0-.419,0-.851,0-1.286,0-.394,0-.781-.027-1.132-.038-.412-.2-.592-.6-.988l0,0,0,0-.006,0-.007-.007c-.138-.135-.274-.274-.411-.411l-2.6-2.6,0,0a.293.293,0,0,1-.02-.385.281.281,0,0,1,.433.026l2.823,2.823.011.011.006.007.007.007c.352.326.405.03.4-.2q0-.567,0-1.135c0-.3.006-.6,0-.9,0-.147,0-.275-.011-.389a1.453,1.453,0,0,0-.377-.935c-.227-.265-.5-.517-.743-.763l-2.528-2.528a.273.273,0,0,1,.386-.386L13.1,21.025c.614.613.656.169.656-.085,0-.452,0-.906,0-1.359,0-.413.011-.826,0-1.237-.02-.548-.127-.7-.69-1.266l-2.889-2.889h0Zm.721-.052,2.554,2.554c.245.246.409.437.545.591.3.341.492.3,1.012.3H29.414c.475-.011,1.04.069.771-.329a3.146,3.146,0,0,0-.447-.453L26.87,14.136H10.889Zm19.357,7.4c.008-.009.017-.015.025-.025h0a.573.573,0,0,0,.146-.386V18.661a.574.574,0,0,0-.146-.385.439.439,0,0,0-.322-.149H14.765a.439.439,0,0,0-.321.149.57.57,0,0,0-.146.386v2.482a.572.572,0,0,0,.145.364h0a.442.442,0,0,0,.321.149H29.95a.432.432,0,0,0,.3-.125h0ZM14.3,23.641v1.808a.664.664,0,0,0,.152.417.423.423,0,0,0,.315.158H29.95a.422.422,0,0,0,.315-.158.67.67,0,0,0,.152-.433V22.8a.669.669,0,0,0-.152-.432.423.423,0,0,0-.315-.158H14.765a.423.423,0,0,0-.315.158.664.664,0,0,0-.152.433v.842h0Zm0,4.144v2.063a.689.689,0,0,0,.153.443.419.419,0,0,0,.315.161H29.95a.421.421,0,0,0,.314-.161.691.691,0,0,0,.154-.444V27.172a.687.687,0,0,0-.154-.443.419.419,0,0,0-.309-.161H14.765a.419.419,0,0,0-.314.161.689.689,0,0,0-.153.445h0v.611Z" style="fill:#0d0d0d"/><path d="M30.254,17.429a3.018,3.018,0,0,1,.163,1.213.567.567,0,0,0-.145-.367.441.441,0,0,0-.323-.15H14.765a.441.441,0,0,0-.321.149.557.557,0,0,0-.136.284,2.988,2.988,0,0,0-.119-1.1.847.847,0,0,0,.515.118h14.71c.385-.009.828.042.84-.15Zm.164,1.274v.034h0Z" style="fill:#f2a7d7"/><path d="M15.646,18.841v2.408H16.2V18.841Zm1.059,0v2.408h.559V18.841Z" style="fill:url(#h)"/><path d="M15.646,27.721v2.408H16.2V27.721h-.559Zm1.059,0v2.408h.559V27.721H16.7Z" style="fill:url(#i)"/><path d="M15.646,23.232V25.66H16.2V23.232Zm1.059,0V25.66h.559V23.232Z" style="fill:url(#j)"/><path d="M19.677,13.629l3.261,3.261h0c.8.8.8.8.8,3.679v10.4h-2.1V20.5c0-2.372,0-2.372-.41-2.782l-4.09-4.089h2.532Z" style="fill:#0d0d0d"/><path d="M19.792,14.128l2.953,2.953c.724.723.724.723.724,3.486v9.867H21.918V20.5c0-2.484,0-2.484-.49-2.975l-3.4-3.4h1.76Z" style="fill:url(#k)"/><path d="M23.467,21.5v2.686a.535.535,0,0,1-.469.58h-.61a.534.534,0,0,1-.469-.58V21.5Z" style="fill:#191919"/><path d="M23,24.768h-.61a.389.389,0,0,1-.182-.046.478.478,0,0,1-.149-.125.6.6,0,0,1-.1-.184.692.692,0,0,1-.037-.225V21.5h1.549v2.686a.691.691,0,0,1-.037.225.6.6,0,0,1-.1.184.479.479,0,0,1-.149.125A.389.389,0,0,1,23,24.768ZM21.92,21.5v2.685a.533.533,0,0,0,.469.579H23a.533.533,0,0,0,.468-.579V21.5Z"/><path d="M22.016,21.708v1.148H23.37V21.708Zm-.41,1.353V21.5a.22.22,0,0,1,.2-.2h1.764a.22.22,0,0,1,.2.2V23.06a.221.221,0,0,1-.2.205H21.811A.221.221,0,0,1,21.606,23.06Zm-.026-2.2h0a.408.408,0,0,0-.406.405v1.894a.408.408,0,0,0,.405.406h2.312a.407.407,0,0,0,.406-.405V21.265a.408.408,0,0,0-.405-.407h-.443a.24.24,0,0,1-.2-.155v0h0a.5.5,0,0,0-.029-.082.494.494,0,0,0-.045-.076.482.482,0,0,0-.39-.2H22.6m-1.02.11H21.8a.9.9,0,0,1,.45-.444.873.873,0,0,1,.353-.076h.187a.889.889,0,0,1,.722.374.864.864,0,0,1,.082.14l0,0h.3a.82.82,0,0,1,.814.816v1.894a.82.82,0,0,1-.816.815H21.578a.821.821,0,0,1-.815-.816V21.263a.821.821,0,0,1,.816-.815h0Zm1.019-.11a.45.45,0,0,0-.107.013.4.4,0,0,0-.082.027.485.485,0,0,0-.273.323.24.24,0,0,1-.2.155h-.357" style="fill:#0d0d0d"/><path d="M21.811,21.5V23.06h1.764V21.5Zm-.231-.849a.614.614,0,0,0-.612.612v1.891a.614.614,0,0,0,.612.612h2.308a.614.614,0,0,0,.612-.612V21.265a.613.613,0,0,0-.612-.612h-.441a.687.687,0,0,0-.663-.519H22.6a.688.688,0,0,0-.664.519H21.58Z" style="fill:url(#l)"/><path d="M22.464,22.18V20.615c0-.186.063-.338.139-.338h.181c.076,0,.139.152.139.338V22.18Z" style="fill:#191919"/><path d="M22.923,22.181h-.46V20.615a.649.649,0,0,1,.041-.239c.026-.064.061-.1.1-.1h.181c.037,0,.072.035.1.1a.649.649,0,0,1,.041.239Zm-.459,0h.458V20.615a.648.648,0,0,0-.041-.239c-.026-.064-.061-.1-.1-.1H22.6c-.037,0-.072.035-.1.1a.648.648,0,0,0-.041.239Z"/></svg>