<svg xmlns="http://www.w3.org/2000/svg" viewBox="0 0 32 32"><title>folder_type_locale_opened@2x</title><g id="folder_opened_locale"><path d="M27.4,5.5H18.2L16.1,9.7H4.3V26.5H29.5V5.5Zm0,18.7H6.6V11.8H27.4Zm0-14.5H19.2l1-2.1h7.1V9.7Z" style="fill:#7b87db"/><polygon points="25.7 13.7 0.5 13.7 4.3 26.5 29.5 26.5 25.7 13.7" style="fill:#7b87db"/><path d="M29.6,31A1.39,1.39,0,0,0,31,29.62v-14a1.39,1.39,0,0,0-1.4-1.38H16L21.44,31Z" style="fill:#d9d9d9"/><polygon points="25.03 27.04 21.46 31 20.17 27.04 25.03 27.04" style="fill:#4352b8"/><path d="M29.67,20v-.82h-4V17.88H24.43v1.33H21.91V20h5a7.27,7.27,0,0,1-1.44,2.53c-1-1.21-1-1.61-1-1.61H23.4s0,.59,1.48,2.28a10.13,10.13,0,0,1-.82.76l.33,1s.49-.42,1.11-1.08c.62.67,1.42,1.48,2.46,2.45l.67-.67c-1.11-1-1.92-1.81-2.52-2.45A7.45,7.45,0,0,0,27.9,20h1.78Z" style="fill:#617d8b"/><path d="M11.4,10A1.4,1.4,0,0,0,10,11.4V25.64A1.4,1.4,0,0,0,11.4,27H25L19.56,10Z" style="fill:#4f8bf5"/><path d="M21.24,14.22H29.6A1.39,1.39,0,0,1,31,15.59V24Z" style="fill:#fff;opacity:0.200000002980232;isolation:isolate"/><path d="M13.79,18.86l1.37-3.54h1.33l.21.55,1,2.6,1,2.57.27.69H17.79l-.49-1.52H14.35l-.49,1.52H12.69l1.1-2.87m.89.5H17l-1.14-3Z" style="fill:#f2f2f2"/></g></svg>