<svg version="1.1" viewBox="0 0 32 32" xmlns="http://www.w3.org/2000/svg"><title>folder_type_dart_opened</title><path d="M27.4,5.5H18.2L16.1,9.7H4.3v4H.5L4.3,26.5H29.5V5.5ZM20.2,7.6h7.1V9.7H19.2Zm5.5,6.1H6.6V11.8H27.4v7.626Z" fill="#7495b4"/><g transform="matrix(.71429 0 0 .71429 8.6429 8.545)"><path d="m16.739 2.037a1.314 1.314 0 0 0-0.916 0.377l-0.013 0.01-8.59 4.965 8.566 8.566v6e-3l10.3 10.3 1.963-3.536-7.081-16.997-3.3-3.3a1.307 1.307 0 0 0-0.927-0.388z" fill="#66c3fa"/><path d="m7.25 7.35-4.962 8.581-0.01 0.013a1.322 1.322 0 0 0-0.378 0.919 1.3 1.3 0 0 0 0.387 0.924l4.113 4.113 16.084 6.327 3.636-2.02-0.1-0.1h-0.025l-10.083-10.1h-0.012z" fill="#215896"/><path d="m7.192 7.362 8.764 8.773h0.013l10.087 10.1 3.839-0.732 5e-3 -11.363-4.054-3.973a6.521 6.521 0 0 0-3.624-1.616v-0.044z" fill="#235997"/><path d="m7.256 7.411 8.768 8.768v0.013l10.092 10.092-0.734 3.839h-11.36l-3.971-4.056a6.522 6.522 0 0 1-1.614-3.625h-0.044z" fill="#58b6f0"/></g></svg>
