<svg xmlns="http://www.w3.org/2000/svg" viewBox="0 0 32 32"><title>folder_type_grunt</title><path d="M27.5,5.5H18.2L16.1,9.7H4.4V26.5H29.6V5.5Zm0,4.2H19.3l1.1-2.1h7.1Z" style="fill:#ba8856"/><path d="M16.433,15.1s.36,1.387.411,1.85-.925,1.489-.925,2a2.007,2.007,0,0,0,1.336,1.9,2.356,2.356,0,0,1,1.284,2.363,10.489,10.489,0,0,1-.411,2.106s-.256,3.442,1.13,4.058S20.337,30,20.645,30s2.57.923,3.9.566a3.651,3.651,0,0,0,1.7-.768,1.742,1.742,0,0,0,1.747-1.079,13.943,13.943,0,0,0,.513-4.778c-.154-1.13-.359-2.619.565-3.133s1.9-1.13,1.747-1.644a3.975,3.975,0,0,0-.975-1.233,5.093,5.093,0,0,1-.052-1.592c.154-.308,1.079-1.079.565-1.644a2.173,2.173,0,0,0-1.44-.571l-1.181.1a7.244,7.244,0,0,0-4.624-1.7,6.955,6.955,0,0,0-4.263,1.7,2.64,2.64,0,0,0-1.644,0C16.432,14.54,16.279,14.231,16.433,15.1ZM21,12.812a1.189,1.189,0,0,1-.718-.439,2.486,2.486,0,0,0-2-1.085,9.027,9.027,0,0,0-2.15.288l.934.589c.1,0,.271,0,.556.008a1.43,1.43,0,0,1,1.35,1.2L23.1,12.8m2.327.008a1.187,1.187,0,0,0,.717-.439,2.482,2.482,0,0,1,2-1.085,8.962,8.962,0,0,1,2.15.287l-.934.589c-.1,0-.271,0-.557.008a1.43,1.43,0,0,0-1.35,1.2L23.328,12.8" style="fill:#fba919"/><path d="M21.127,22.75s-1.017,1.556-1.764,2.66c-.115.171.75.182.75.182Zm.485-3.225s-.307.765-.475,1.171c-.182.441-.877.66-.877.66a2,2,0,0,0,.36-1.336c0-.4.519-.561.519-.561l.473.066Zm-.31.436a1.606,1.606,0,0,1-1.795.329c-1.167-.419-1.287-1.915-1.287-2.334s2.214.419,2.513.6.867.9.569,1.407ZM16.9,11.969a2.474,2.474,0,0,1,1.8.357,3.28,3.28,0,0,1,.925,1.019l-1.208.96a1.553,1.553,0,0,1-.764-1.049c-.179-.778-.06-1.137-.75-1.287ZM20.988,17.8a2.506,2.506,0,0,0-1.838-.993,2.375,2.375,0,0,0-1.535.287s1.7.075,2.2.717c.914,1.2,2.25,1.3,2.462,1.034a1.136,1.136,0,0,1-.809-.385A4.47,4.47,0,0,1,20.988,17.8Zm-2.876,2.325s-1.891-.65-1.532-1.308.075-1.017.075-1.017-1.057.791-.79,1.629c.165.513.443.886,1.966,1.6.731,1.357.15,3.8.185,3.811.058.019,1.026-.479.96-2.763-.021-.7-.075-1.66-.867-1.95Zm2.475-6.988c-.793.4-1.875.964-1.875.964l.427.214c-.04.066-.061.105-.061.105l.439.2s1.071.775,1.725,1.275a11.086,11.086,0,0,0-.861-1.732,1.153,1.153,0,0,1,.209-1.024ZM23.22,29.552c-2.437,0-3.262-1.237-3.262-1.237l.381.927a4.267,4.267,0,0,0,2.876,1.652m-2.988-3.412s.225,1.37,1.125,1.37c.763,0,.988-1.157.988-1.4l-2.109.026Zm-1.494-2.066a9.836,9.836,0,0,0,.45-1.915,21.514,21.514,0,0,0,.069-2.382s-.24.928-.45,1.077a4.758,4.758,0,0,0-.6,1.167s-.209,1.514-.308,2.025c.275.055.506-.107.838.03Zm-2.167-6s.508-.18.658-1.286a4.975,4.975,0,0,0-.179-2.065,7.128,7.128,0,0,1-.15,1.825c-.179.3-.329.388-.538.777a.577.577,0,0,0,.209.75ZM25.3,22.75s1.017,1.556,1.764,2.66c.116.171-.75.182-.75.182Zm-.484-3.225s.306.765.474,1.171c.183.441.878.66.878.66a1.988,1.988,0,0,1-.36-1.336c0-.4-.519-.561-.519-.561l-.473.066Zm.309.436a1.606,1.606,0,0,0,1.8.329c1.167-.418,1.286-1.914,1.286-2.334s-2.214.419-2.513.6-.868.9-.569,1.407Zm4.407-7.992a2.474,2.474,0,0,0-1.8.359,3.284,3.284,0,0,0-.925,1.017l1.21.959a1.557,1.557,0,0,0,.765-1.05c.179-.778.06-1.137.75-1.286ZM25.443,17.8a2.5,2.5,0,0,1,1.838-.993,2.375,2.375,0,0,1,1.533.287s-1.7.075-2.2.717c-.914,1.2-2.25,1.3-2.46,1.034a1.133,1.133,0,0,0,.808-.385A4.551,4.551,0,0,0,25.443,17.8Zm2.876,2.325s1.89-.65,1.531-1.308-.075-1.017-.075-1.017,1.056.789.787,1.626c-.165.514-.443.887-1.966,1.6-.73,1.357-.15,3.8-.185,3.811-.058.019-1.025-.479-.959-2.763C27.473,21.374,27.529,20.416,28.319,20.125ZM25.84,13.139c.793.4,1.875.964,1.875.964l-.427.214c.04.066.06.106.06.106l-.438.2s-1.071.776-1.725,1.275a11.086,11.086,0,0,1,.861-1.732A1.151,1.151,0,0,0,25.84,13.139ZM23.208,29.555c2.436,0,3.262-1.237,3.262-1.237l-.38.927a4.267,4.267,0,0,1-2.875,1.649M26.2,27.482s-.225,1.37-1.125,1.37c-.763,0-.988-1.157-.988-1.4ZM27.7,25.416a9.909,9.909,0,0,1-.45-1.915,21.514,21.514,0,0,1-.068-2.382s.239.928.45,1.077a4.829,4.829,0,0,1,.6,1.167s.208,1.514.307,2.025c-.274.055-.505-.107-.837.03Zm2.167-6s-.508-.18-.658-1.286a5.008,5.008,0,0,1,.179-2.065,7.173,7.173,0,0,0,.15,1.825c.179.3.329.388.539.777a.58.58,0,0,1-.21.747Zm-6.649-2.441a2.275,2.275,0,0,1-1.335-.3s.521.913,1.334.913h0a1.817,1.817,0,0,0,1.335-.913A2.272,2.272,0,0,1,23.215,16.975Z" style="fill:#e78724"/><path d="M21.4,19.212a1.625,1.625,0,0,1-1.416.379c-.858-.18-1.376-.559-1.416-1.217a1.353,1.353,0,0,1,.18-.917,5,5,0,0,1,1.416.7c.459.4.8,1.037,1.236,1.057Zm-1.337,7.151a1.489,1.489,0,0,1,0-.591,2.71,2.71,0,0,0-.715-.254c-.189-.12-1.162.123-1.868-.73-.884-1.069-.7-1.708-.7-1.708-.225.252-.45.156-.792,1.331a2.544,2.544,0,0,0,1.11,2.815,3.018,3.018,0,0,0,1.625.61c-.182-.183.311-.2.652-.329a.91.91,0,0,1,.225-.756,1.149,1.149,0,0,1,.45-.269l.025-.061C20.076,26.4,20.07,26.382,20.065,26.363Zm4.964-7.151a1.624,1.624,0,0,0,1.416.379c.858-.18,1.376-.559,1.416-1.217a1.353,1.353,0,0,0-.18-.917,5,5,0,0,0-1.416.7C25.807,18.55,25.465,19.192,25.029,19.212Zm1.336,7.151a1.489,1.489,0,0,0,0-.591,2.71,2.71,0,0,1,.715-.254c.19-.12,1.163.123,1.869-.73.884-1.069.7-1.708.7-1.708.225.252.45.156.792,1.331a2.543,2.543,0,0,1-1.11,2.815,3.018,3.018,0,0,1-1.625.61c.183-.183-.311-.2-.651-.329a.913.913,0,0,0-.225-.756,1.164,1.164,0,0,0-.45-.269l-.026-.061a.4.4,0,0,0,.014-.057Z" style="fill:#fff"/><path d="M20.726,19.012a1.526,1.526,0,0,1-1.026.042,1.149,1.149,0,0,1-.756-.975s-.435,1.275.785,1.521a1.781,1.781,0,0,0,1.556-.369l-.559-.22ZM19.375,27.5c-.019-.058-.034-.116-.049-.176s-.094-.247,0-.039a.715.715,0,0,1-.053-.164c-1.535,0-2.871-1.056-2.613-3.27-.2-.267-.482.537-.482.537s-.763,2.231,1.219,3.095a3.057,3.057,0,0,0,1.383.412.693.693,0,0,0,.643-.274c-.018-.04-.034-.081-.048-.122ZM25.7,19.012a1.526,1.526,0,0,0,1.026.042,1.149,1.149,0,0,0,.756-.975s.434,1.275-.784,1.521a1.78,1.78,0,0,1-1.556-.369l.558-.22ZM27.055,27.5c.02-.058.035-.116.05-.176s.094-.247,0-.039a.827.827,0,0,0,.053-.164c1.534,0,2.87-1.056,2.611-3.27.2-.267.482.537.482.537s.768,2.231-1.215,3.095a3.057,3.057,0,0,1-1.383.412.693.693,0,0,1-.644-.274,1.15,1.15,0,0,0,.049-.122Z" style="fill:#c9c9c9"/><path d="M18.064,18.55v-.006l0,.006Zm-.211-.785a.587.587,0,0,1,.267-.466c-.176-.065-.348-.14-.53-.19A3.559,3.559,0,0,1,21,18.412a1.181,1.181,0,0,0,1.457.359.887.887,0,0,1-.355.624.868.868,0,0,1-.517.158,2.237,2.237,0,0,1-.565,1.353,2.065,2.065,0,0,0,.109-1.036,3.072,3.072,0,0,0-.138-.338,1.78,1.78,0,0,1-2.236-.257,2.536,2.536,0,0,1-.515-1.409,1.9,1.9,0,0,0-.174.678A1.293,1.293,0,0,1,17.853,17.765Zm1.165-.054a1.445,1.445,0,0,0,.284,1.432,1.4,1.4,0,0,0,1.551.058A6.508,6.508,0,0,0,19.018,17.711Zm2.88,9.457H20.692a.526.526,0,0,0-.389.117.285.285,0,0,0-.036.324,2.129,2.129,0,0,0,.563.744.749.749,0,0,0,.482.172h0a.608.608,0,0,0,.45-.183,2.984,2.984,0,0,0,.535-.793.247.247,0,0,0-.036-.273A.5.5,0,0,0,21.9,27.168Zm6.469-8.618v-.006l0,.006Zm-4.391.221a1.181,1.181,0,0,0,1.456-.359,3.559,3.559,0,0,1,3.408-1.3c-.182.05-.354.125-.53.19a.587.587,0,0,1,.267.466,1.3,1.3,0,0,1-.211.779,1.9,1.9,0,0,0-.173-.677,2.548,2.548,0,0,1-.515,1.408,1.782,1.782,0,0,1-2.237.257,3.317,3.317,0,0,0-.137.338,2.061,2.061,0,0,0,.109,1.035,2.228,2.228,0,0,1-.565-1.353.871.871,0,0,1-.518-.158A.892.892,0,0,1,23.976,18.771Zm1.6.43a1.4,1.4,0,0,0,1.552-.058,1.445,1.445,0,0,0,.284-1.432A6.5,6.5,0,0,0,25.577,19.2Zm.55,8.083a.523.523,0,0,0-.387-.118H24.532a.5.5,0,0,0-.363.109.249.249,0,0,0-.037.273,3.024,3.024,0,0,0,.535.793h0a.612.612,0,0,0,.45.183.757.757,0,0,0,.482-.173,2.12,2.12,0,0,0,.562-.744A.281.281,0,0,0,26.127,27.284ZM23.212,17.7h0c.525-.006,1.121-.73,1.121-.73a2.018,2.018,0,0,1-2.241,0S22.689,17.693,23.212,17.7Zm6.453,5.316a2.983,2.983,0,0,1,.847,2.905,2.779,2.779,0,0,1-1.945,2.243,3.419,3.419,0,0,1-2.738,2.03A3.928,3.928,0,0,1,23.215,31a3.932,3.932,0,0,1-2.616-.808,3.421,3.421,0,0,1-2.736-2.03,2.777,2.777,0,0,1-1.944-2.243,2.98,2.98,0,0,1,.846-2.905,2.893,2.893,0,0,0,1,1.775,22.463,22.463,0,0,0,.159-2.54,1.373,1.373,0,0,0-.5-1.069c-.105-.06-.221-.122-.339-.187-.738-.395-1.658-.887-1.658-1.794a1.319,1.319,0,0,1,.634-1.141c.032-.024.062-.046.089-.068a.625.625,0,0,0,.177-.178,3.25,3.25,0,0,0,.068-1.543,2.126,2.126,0,0,1-.482-1.606,1.093,1.093,0,0,1,.579-.7,1.983,1.983,0,0,1,.8-.178.592.592,0,0,1,.039-.248,1.119,1.119,0,0,0,.038-.331,1.232,1.232,0,0,0-.089-.461,2.079,2.079,0,0,0-1.189-.722l-.5-.1.333-.39a2.8,2.8,0,0,1,1.894-.718,3.249,3.249,0,0,1,.988.16,4.789,4.789,0,0,1,2.026,1.626c.079-.026.16-.044.241-.066a2.167,2.167,0,0,1,1.155-2c.017.185-.017.909.293,1.131.091-.591.4-1.242,1.605-1.669a2.023,2.023,0,0,0,.075,1.528c.825-.75,1.38-.625,1.38-.625a2.534,2.534,0,0,0-.35,1.6c.126.033.252.064.376.1a4.8,4.8,0,0,1,2.023-1.623,3.219,3.219,0,0,1,.988-.161,2.8,2.8,0,0,1,1.9.717l.333.39-.507.1a2.088,2.088,0,0,0-1.192.723,1.22,1.22,0,0,0-.088.462,1.112,1.112,0,0,0,.037.33.6.6,0,0,1,.04.247,1.972,1.972,0,0,1,.8.178,1.1,1.1,0,0,1,.579.7,2.131,2.131,0,0,1-.483,1.606,3.25,3.25,0,0,0,.069,1.543.613.613,0,0,0,.177.178c.027.022.057.044.089.068A1.316,1.316,0,0,1,31,19.2c0,.907-.92,1.4-1.658,1.794-.121.065-.237.127-.341.188h0a1.373,1.373,0,0,0-.5,1.069,22.463,22.463,0,0,0,.159,2.54A2.891,2.891,0,0,0,29.665,23.014ZM26.33,12.877c.065.028.132.049.2.079a3.085,3.085,0,0,1,.3.155,1.977,1.977,0,0,1,.834-.919,2.1,2.1,0,0,1,1.561-.319,2.176,2.176,0,0,1,.391-.234,2.649,2.649,0,0,0-1.013-.205,2.34,2.34,0,0,0-.724.112A3.656,3.656,0,0,0,26.33,12.877Zm1.932.983a1.075,1.075,0,0,0,.2-.7,1.588,1.588,0,0,1,.179-.73c.034-.049.082-.083.119-.128a1.348,1.348,0,0,0-.824.283,2.074,2.074,0,0,0-.546.934,3.159,3.159,0,0,1,.418.461C27.961,13.935,28.109,13.887,28.262,13.86Zm-9.642.117a3.146,3.146,0,0,1,.418-.46,2.07,2.07,0,0,0-.548-.936,1.348,1.348,0,0,0-.824-.283c.037.046.086.08.119.129a1.574,1.574,0,0,1,.18.73,1.076,1.076,0,0,0,.205.7C18.323,13.888,18.47,13.935,18.62,13.977Zm1.286-1.019c.064-.03.13-.05.194-.078a3.662,3.662,0,0,0-1.548-1.334,2.346,2.346,0,0,0-.725-.112,2.648,2.648,0,0,0-1.012.205,2.2,2.2,0,0,1,.39.233,2.1,2.1,0,0,1,1.562.319,1.979,1.979,0,0,1,.835.923A3.109,3.109,0,0,1,19.906,12.958Zm-1.4,9.109a27.541,27.541,0,0,1-.144,3.106,5.245,5.245,0,0,0,1.6.279c.087-.178.183-.352.252-.538l0,0c.027-.075.8-2.091,1.082-2.55a18.5,18.5,0,0,1-.963,3.66,1.836,1.836,0,0,1,.486-.015h4.794a1.878,1.878,0,0,1,.48.014,18.573,18.573,0,0,1-.963-3.659c.279.459,1.055,2.475,1.082,2.55l0,0a5.475,5.475,0,0,0,.252.538,5.243,5.243,0,0,0,1.6-.279,27.308,27.308,0,0,1-.143-3.106,1.714,1.714,0,0,1,.782-1.4c.112-.064.225-.127.345-.191.609-.329,1.24-.67,1.24-1.252a.8.8,0,0,0-.365-.75l-.02-.016c-.028-.02-.05-.046-.076-.068.031.2.059.4.1.6a3.8,3.8,0,0,1-.645-1.819,4.533,4.533,0,0,1,.209-1.765c0,.214.015.426.031.639.014-.045.02-.092.036-.137a1.586,1.586,0,0,0,.384-1.09.5.5,0,0,0-.276-.32,1.359,1.359,0,0,0-.619-.12,4.886,4.886,0,0,0-1.35.245,10.093,10.093,0,0,0-2.625,1.547l-.017.014-.225.158.143-.239a5.234,5.234,0,0,1,2.191-1.888,2.134,2.134,0,0,0-.9-.64,6.9,6.9,0,0,0-3.049-.646,6.891,6.891,0,0,0-3.049.648,2.16,2.16,0,0,0-.9.638,5.238,5.238,0,0,1,2.192,1.888l.142.239-.225-.158-.017-.014a10.093,10.093,0,0,0-2.625-1.547,4.886,4.886,0,0,0-1.35-.245,1.362,1.362,0,0,0-.619.12.5.5,0,0,0-.275.32,1.585,1.585,0,0,0,.383,1.09c.016.045.022.092.036.138.016-.213.034-.426.031-.64a4.514,4.514,0,0,1,.209,1.765,3.8,3.8,0,0,1-.645,1.819c.038-.2.067-.4.1-.606a.83.83,0,0,1-.076.069l-.02.016a.8.8,0,0,0-.364.75c0,.582.63.923,1.239,1.252.12.064.234.127.345.191A1.717,1.717,0,0,1,18.508,22.067ZM17.7,27.441h.523a2.741,2.741,0,0,0,.088.265,2.912,2.912,0,0,0,.845.114,1.25,1.25,0,0,1,.106-1.211h-.016a5.944,5.944,0,0,0,.4-.575,3.08,3.08,0,0,1-3.028-1.861,2.981,2.981,0,0,0,.15,2.422A2.885,2.885,0,0,0,17.7,27.441Zm2.2,1.96a5.788,5.788,0,0,1-.492-.931,7.122,7.122,0,0,1-.763-.1A2.874,2.874,0,0,0,19.9,29.4Zm3.316,1.031A3.508,3.508,0,0,0,26.7,27.775v0a.94.94,0,0,0-.035-.945,1.287,1.287,0,0,0-1.011-.3H20.779a1.285,1.285,0,0,0-1.01.3.938.938,0,0,0-.035.945A3.506,3.506,0,0,0,23.215,30.432Zm4.571-2.063a7.122,7.122,0,0,1-.763.1,5.78,5.78,0,0,1-.5.933A2.874,2.874,0,0,0,27.786,28.369Zm2.029-4.195a3.087,3.087,0,0,1-3.028,1.861c.1.161.209.322.328.472h0c.025.032.043.069.07.1h-.011a1.25,1.25,0,0,1,.1,1.21,2.843,2.843,0,0,0,.844-.114c.031-.087.065-.172.088-.263h.52a2.866,2.866,0,0,0,.937-.846A2.977,2.977,0,0,0,29.815,24.174Z" style="fill:#463014"/></svg>