<svg xmlns="http://www.w3.org/2000/svg" viewBox="0 0 32 32"><title>folder_type_temp_opened</title><path d="M27.4,5.5H18.2L16.1,9.7H4.3V26.5H29.5V5.5Zm0,18.7H6.6V11.8H27.4Zm0-14.5H19.2l1-2.1h7.1V9.7Z" style="fill:#2e8e80"/><polygon points="25.7 13.7 0.5 13.7 4.3 26.5 29.5 26.5 25.7 13.7" style="fill:#2e8e80"/><path d="M21,31A10,10,0,1,1,31,21,10.011,10.011,0,0,1,21,31Zm0-18.182A8.182,8.182,0,1,0,29.182,21,8.191,8.191,0,0,0,21,12.818Z" style="fill:#5fc1b3"/><path d="M21.909,21.909H20.841a.75.75,0,0,1-.75-.75V14.477a.75.75,0,0,1,.75-.75h.318a.75.75,0,0,1,.75.75Z" style="fill:#5fc1b3"/><path d="M27.523,21.909H20.841a.75.75,0,0,1-.75-.75V20.091h7.432a.75.75,0,0,1,.75.75v.318A.75.75,0,0,1,27.523,21.909Z" style="fill:#5fc1b3"/></svg>