<svg xmlns="http://www.w3.org/2000/svg" xmlns:xlink="http://www.w3.org/1999/xlink" viewBox="0 0 32 32"><defs><linearGradient id="a" x1="127.346" y1="-116.408" x2="125.823" y2="-119.26" gradientTransform="matrix(0.864, 0, 0, -0.864, -81.843, -76.99)" gradientUnits="userSpaceOnUse"><stop offset="0" stop-color="#fff"/><stop offset="1" stop-color="#fff"/></linearGradient><linearGradient id="b" x1="127.349" y1="-116.274" x2="125.824" y2="-119.127" gradientTransform="matrix(0.864, 0, 0, -0.864, -81.843, -76.99)" gradientUnits="userSpaceOnUse"><stop offset="0"/><stop offset="1" stop-color="#6a6a6a"/></linearGradient><linearGradient id="c" x1="126.507" y1="-131.222" x2="128.647" y2="-131.222" gradientTransform="matrix(0.864, 0, 0, -0.864, -90.788, -94.496)" gradientUnits="userSpaceOnUse"><stop offset="0" stop-color="#e7ebef"/><stop offset="1" stop-color="#c4ce00"/></linearGradient><linearGradient id="d" x1="127.346" y1="-117.409" x2="125.823" y2="-120.262" gradientTransform="matrix(0.864, 0, 0, -0.864, -81.843, -78.528)" xlink:href="#a"/><linearGradient id="e" x1="127.349" y1="-117.276" x2="125.824" y2="-120.128" gradientTransform="matrix(0.864, 0, 0, -0.864, -81.843, -78.528)" xlink:href="#b"/><linearGradient id="f" x1="127.346" y1="-118.411" x2="125.823" y2="-121.263" gradientTransform="matrix(0.864, 0, 0, -0.864, -81.843, -80.066)" xlink:href="#a"/><linearGradient id="g" x1="127.349" y1="-118.277" x2="125.824" y2="-121.13" gradientTransform="matrix(0.864, 0, 0, -0.864, -81.843, -80.066)" xlink:href="#b"/><linearGradient id="h" x1="127.346" y1="-119.413" x2="125.823" y2="-122.265" gradientTransform="matrix(0.864, 0, 0, -0.864, -81.843, -81.604)" xlink:href="#a"/><linearGradient id="i" x1="127.349" y1="-119.279" x2="125.824" y2="-122.131" gradientTransform="matrix(0.864, 0, 0, -0.864, -81.843, -81.604)" xlink:href="#b"/><linearGradient id="j" x1="127.346" y1="-115.406" x2="125.823" y2="-118.258" gradientTransform="matrix(0.864, 0, 0, -0.864, -81.843, -75.452)" xlink:href="#a"/><linearGradient id="k" x1="127.349" y1="-115.272" x2="125.824" y2="-118.125" gradientTransform="matrix(0.864, 0, 0, -0.864, -81.843, -75.452)" xlink:href="#b"/></defs><title>folder_type_server</title><path d="M27.5,5.5H18.2L16.1,9.7H4.4V26.5H29.6V5.5Zm0,4.2H19.3l1.1-2.1h7.1Z" style="fill:#53c1b6"/><path d="M29.374,12.871c-.189-.039-4.433-1.256-4.66-1.331a1.291,1.291,0,0,0-.642-.038c-.113.038-6.883,4.008-7.11,4.121-.038,0-.038.038-.076.076a.811.811,0,0,0-.264.567v0L16.7,28.009c0,.189.038.264.189.34,0,0,4.912,1.965,5.479,2.116h.076c.264.038.34.038.453-.076l.038-.038c.113-.076,6.416-4.869,6.529-4.982a.573.573,0,0,0,.151-.3c0-.113.177-11.554.177-11.7v-.038a.508.508,0,0,0-.416-.453ZM22.7,30.314v0Zm6.556-16.876a2.313,2.313,0,0,0,.227-.189s-.113.076-.264.189c-.264.189-.6.416-.982.718.642-.453,1.209-.831,1.36-.945A2.41,2.41,0,0,1,29.261,13.438Z" style="fill:#00608b;stroke:#000;stroke-linecap:round;stroke-linejoin:round;stroke-width:1.280130076041554px"/><path d="M24.7,11.5a1.291,1.291,0,0,0-.642-.038c-.113.038-6.867,4.051-7.094,4.2-.189.113-.264.34,0,.453.264.076,5.214,1.7,5.4,1.738a.821.821,0,0,0,.68-.038c.113-.076,6.516-4.453,6.63-4.566s-.111-.314-.27-.367c-.181-.06-4.518-1.346-4.744-1.422l.038.038Z" style="fill:#00608b"/><path d="M16.66,16.3c0-.189.113-.3.264-.264.113.038,5.441,1.776,5.63,1.927.189.113.3.189.3.34s-.076,11.781-.076,11.932a.235.235,0,0,1-.34.227c-.567-.151-5.479-2.116-5.479-2.116-.151-.076-.189-.151-.189-.34Z" style="fill:#00608b"/><path d="M22.969,30.389c-.113.076-.235-.013-.235-.226,0-.189.046-11.744.046-11.895a.465.465,0,0,1,.189-.378c.113-.076,6.53-4.528,6.681-4.642s.227.113.189.227c0,.113-.214,11.5-.214,11.616a.285.285,0,0,1-.151.264c-.113.113-6.467,4.958-6.543,5.071l.038-.038Z" style="fill:#00608b"/><path d="M16.886,15.963c-.038,0,0-.189.113-.3a.828.828,0,0,0-.34.642.236.236,0,0,1,.227-.189c.68.227,5.365,1.851,5.554,1.927s.3.144.3.333l.037.451.068-.459c0-.189.126-.324.352-.475.113-.076,2.969-2.095,3.775-2.815-.766.408-3.8,2.777-4.216,2.777-.321,0-5.831-1.889-5.869-1.889Z" style="fill:#00608b"/><path d="M26.521,15.4a2.143,2.143,0,0,1,.34-.227Z" style="fill:#00608b"/><path d="M23,30.365a.46.46,0,0,1-.533.109.279.279,0,0,0,.281-.226s.029.205.252.118Z" style="fill:#00608b"/><path d="M29.58,13.309c.189-.091.269.007.275.169.027-.167.021-.466-.451-.6,0,0,.379.188.176.428Z" style="fill:#00608b"/><path d="M29.278,23.842l-4.1,2.976v.151l4.091-3.027.007-.1Z" style="opacity:0.12999998033046722;isolation:isolate;fill:url(#a)"/><path d="M29.3,23.719,25.18,26.7v.151l4.1-3.042.019-.094Z" style="opacity:0.12999998033046722;isolation:isolate;fill:url(#b)"/><polygon points="18.51 18.444 18.51 18.671 20.362 19.313 20.362 19.124 18.51 18.444 18.51 18.444" style="fill:url(#c)"/><g style="opacity:0.21999995410442352;isolation:isolate"><polygon points="18.51 18.671 18.397 18.746 18.397 18.293 20.437 19.011 20.362 19.124 18.51 18.444 18.51 18.671"/></g><g style="opacity:0.7200000286102295;isolation:isolate"><polygon points="20.437 19.464 20.437 19.011 20.362 19.124 20.362 19.313 18.51 18.671 18.397 18.746 20.437 19.464 20.437 19.464" style="fill:#fff"/></g><path d="M29.278,23.169l-4.1,2.976V26.3l4.091-3.027.007-.1Z" style="opacity:0.12999998033046722;isolation:isolate;fill:url(#d)"/><path d="M29.3,23.047,25.18,26.032v.151l4.1-3.042.019-.094Z" style="opacity:0.12999998033046722;isolation:isolate;fill:url(#e)"/><path d="M29.278,22.5l-4.1,2.976v.151L29.271,22.6l.007-.1Z" style="opacity:0.12999998033046722;isolation:isolate;fill:url(#f)"/><path d="M29.3,22.374,25.18,25.359v.151l4.1-3.042.019-.094Z" style="opacity:0.12999998033046722;isolation:isolate;fill:url(#g)"/><path d="M29.278,21.824,25.18,24.8v.151l4.091-3.027.007-.1Z" style="opacity:0.12999998033046722;isolation:isolate;fill:url(#h)"/><path d="M29.3,21.7,25.18,24.687v.151l4.1-3.042L29.3,21.7Z" style="opacity:0.12999998033046722;isolation:isolate;fill:url(#i)"/><path d="M29.278,24.514l-4.1,2.976v.151l4.091-3.027.007-.1Z" style="opacity:0.12999998033046722;isolation:isolate;fill:url(#j)"/><path d="M29.3,24.392,25.18,27.377v.151l4.1-3.042.019-.094Z" style="opacity:0.12999998033046722;isolation:isolate;fill:url(#k)"/></svg>