<svg xmlns="http://www.w3.org/2000/svg" viewBox="0 0 32 32"><title>folder_type_sso_opened</title><path d="M27.4,5.5H18.2L16.1,9.7H4.3v4H.5L4.3,26.5H29.5V5.5ZM20.2,7.6h7.1V9.7H19.2Zm5.5,6.1H6.6V11.8H27.4v7.626Z" style="fill:#7cd8cf"/><path d="M30.338,16.364c-.006,2.381-.018,4.762,0,7.143A3.808,3.808,0,0,1,29.61,25.8a11.023,11.023,0,0,1-2.652,2.522,23.708,23.708,0,0,1-3.32,1.97.257.257,0,0,1-.259.013,20.107,20.107,0,0,1-4.944-3.3,5.976,5.976,0,0,1-1.61-2.266,2.747,2.747,0,0,1-.163-.95q0-1.8,0-3.6h0c0-1.279,0-2.557,0-3.836a.241.241,0,0,1,.194-.267q3.24-1.2,6.475-2.418a.424.424,0,0,1,.326,0q3.237,1.214,6.477,2.415A.253.253,0,0,1,30.338,16.364Z" style="fill:#13645d"/><path d="M30.843,15.716q-3.606-1.336-7.207-2.687a.357.357,0,0,0-.274,0q-3.592,1.346-7.188,2.681a.227.227,0,0,0-.172.261c0,1.325,0,2.649,0,3.974h0c0,1.258,0,2.516,0,3.774a3.539,3.539,0,0,0,.235,1.275,6.744,6.744,0,0,0,1.773,2.483,20.577,20.577,0,0,0,5.373,3.5.275.275,0,0,0,.266-.021A23.594,23.594,0,0,0,26.634,29.3a13.314,13.314,0,0,0,3.229-2.782A4.513,4.513,0,0,0,31,23.675q0-3.863,0-7.727A.2.2,0,0,0,30.843,15.716Zm-1.524,9.9a10.472,10.472,0,0,1-2.526,2.4,22.563,22.563,0,0,1-3.161,1.876.246.246,0,0,1-.248.013,19.165,19.165,0,0,1-4.708-3.139,5.69,5.69,0,0,1-1.533-2.158,2.635,2.635,0,0,1-.156-.905c0-1.144,0-2.288,0-3.432h0c0-1.217,0-2.435,0-3.652a.231.231,0,0,1,.185-.255q3.087-1.145,6.167-2.3a.4.4,0,0,1,.311,0q3.081,1.155,6.168,2.3a.24.24,0,0,1,.193.269c-.006,2.267-.016,4.535,0,6.8A3.619,3.619,0,0,1,29.319,25.614Z" style="fill:#004d40"/><path d="M24.642,18a2.574,2.574,0,0,0-.2.938c0,.036-.038.077-.068.108a.641.641,0,0,0,.56,1.079,2.3,2.3,0,0,1,1.466-3.4,2.351,2.351,0,0,1,2.887,1.817,2.27,2.27,0,0,1-1.653,2.612l-.075-.383a1.889,1.889,0,0,0,1.057-2.809,1.968,1.968,0,0,0-2.745-.561,1.84,1.84,0,0,0-.548,2.53.61.61,0,0,0-.038-.915.178.178,0,0,1-.076-.182c.027-.151.053-.3.079-.451l.042-.014c.114.12.237.232.34.36a2.223,2.223,0,0,1-2.837,3.291.149.149,0,0,0-.187,0A.253.253,0,0,1,22.3,22a.842.842,0,0,0-.077-.049.222.222,0,0,0-.343.112c-.052.137-.1.275-.155.412a.179.179,0,0,1-.25.119c-.171-.059-.342-.119-.513-.176a.335.335,0,0,0-.356.218c-.013.093-.03.185-.044.278-.019.135-.091.187-.234.184a.954.954,0,0,0-.256.022c-.147.036-.189.167-.23.287-.066.191-.176.224-.353.21a.474.474,0,0,0-.226.049c-.125.058-.239.137-.363.2a.223.223,0,0,1-.148.015c-.3-.09-.595-.187-.892-.282-.169-.054-.206-.106-.176-.274.04-.229.086-.457.128-.686a.427.427,0,0,1,.229-.307q1.764-.993,3.525-1.989a.16.16,0,0,0,.1-.175,2.23,2.23,0,0,1,2.859-2.216C24.558,17.964,24.6,17.98,24.642,18ZM21.817,20.9l-.116.062-1.16.657Q19.5,22.21,18.46,22.8c-.116.065-.132.111-.08.206.063.112.113.125.234.057L21,21.715l.955-.539Z" style="fill:#fff"/><path d="M23.23,22.474a2.589,2.589,0,0,0,2.464-.62,2.444,2.444,0,0,0,.739-2.344,2.19,2.19,0,0,1-.975,3.994.6.6,0,0,1-.127.01.287.287,0,0,0-.327.18c-.018.042-.1.069-.159.084a.669.669,0,0,1-.173,0,.219.219,0,0,0-.249.282c.023.133.048.266.07.4.025.148-.028.219-.176.245l-.512.092a.342.342,0,0,0-.2.351c.037.095.075.189.112.283.049.123.015.2-.1.265a1.068,1.068,0,0,0-.224.162c-.125.125-.05.278-.036.419a.2.2,0,0,1-.119.231.551.551,0,0,0-.334.333.558.558,0,0,1-.517.368,6.3,6.3,0,0,0-.645.131c-.192.041-.249.01-.314-.17-.074-.2-.143-.412-.221-.616a.434.434,0,0,1,.039-.407c.673-1.139,1.341-2.28,2.014-3.418C23.3,22.642,23.342,22.569,23.23,22.474Zm.552.589-.018.014q-.972,1.648-1.943,3.3a.122.122,0,0,0,.05.19c.111.067.166.051.239-.073q.934-1.587,1.867-3.174c.017-.028.032-.059.049-.09Z" style="fill:#fff"/></svg>