<svg xmlns="http://www.w3.org/2000/svg" viewBox="0 0 32 32"><title>folder_type_src_opened@2x</title><g id="folder_opened_source"><path d="M27.4,5.5H18.2L16.1,9.7H4.3V26.5H29.5V5.5Zm0,18.7H6.6V11.8H27.4Zm0-14.5H19.2l1-2.1h7.1V9.7Z" style="fill:#2a8243"/><polygon points="25.7 13.7 0.5 13.7 4.3 26.5 29.5 26.5 25.7 13.7" style="fill:#2a8243"/><path d="M19.15,31l-.21,0a1,1,0,0,1-.73-1.21l2.71-14.43a1,1,0,0,1,.44-.68.89.89,0,0,1,.7-.12,1,1,0,0,1,.73,1.21L20.08,30.16a1,1,0,0,1-.44.68A.9.9,0,0,1,19.15,31Z" style="fill:#06cc14"/><path d="M24.58,28.94h-.07a.93.93,0,0,1-.67-.38,1.1,1.1,0,0,1,.1-1.42l4.66-4.55L24,18.36a1.1,1.1,0,0,1-.14-1.42.94.94,0,0,1,.66-.4.9.9,0,0,1,.71.24l5.47,5a1.1,1.1,0,0,1,.14,1.42,1.06,1.06,0,0,1-.14.16l-5.45,5.32A.92.92,0,0,1,24.58,28.94Z" style="fill:#06cc14"/><path d="M16.42,28.95a.91.91,0,0,1-.64-.27l-5.45-5.33a.9.9,0,0,1-.14-.16,1.09,1.09,0,0,1,.14-1.41l5.47-5a.88.88,0,0,1,.7-.24.94.94,0,0,1,.66.4A1.1,1.1,0,0,1,17,18.36L12.4,22.6l4.66,4.55a1.09,1.09,0,0,1,.1,1.42.93.93,0,0,1-.67.38Z" style="fill:#06cc14"/></g></svg>