<svg viewBox="0 0 32 32" xmlns="http://www.w3.org/2000/svg"><path d="m27.4 5.5h-9.2l-2.1 4.2h-11.8v4h-3.8l3.8 12.8h25.2v-21zm-7.2 2.1h7.1v2.1h-8.1zm5.5 6.1h-19.1v-1.9h20.8v7.6z" fill="#db7b96"/><path d="m27.109 24.557h-13.219v-13.364h13.219zm-6.609 2.983a1.313 1.313 0 1 0 1.3 1.312 1.3 1.3 0 0 0 -1.3-1.312z" fill="#fff" stroke="#000" stroke-miterlimit="10" stroke-width=".123066"/><path d="m16.521 15.393a1.492 1.492 0 1 0 -1.475-1.493 1.485 1.485 0 0 0 1.475 1.493zm0-2.386a.9.9 0 1 1 -.885.895.891.891 0 0 1 .885-.895zm0 6.359a1.491 1.491 0 1 0 -1.475-1.491 1.485 1.485 0 0 0 1.475 1.491zm0-2.386a.9.9 0 1 1 -.885.895.891.891 0 0 1 .885-.895zm2.636 2.386h6.566a.3.3 0 0 0 .3-.3v-6.36a.3.3 0 0 0 -.3-.3h-6.566a.3.3 0 0 0 -.3.3v6.36a.3.3 0 0 0 .3.3zm.3-6.359h5.976v5.763h-5.981zm11.08 15.372h-7.966a2.143 2.143 0 0 0 -1.481-1.588v-1.041h5.31a1.9 1.9 0 0 0 1.889-1.909v-11.932a1.9 1.9 0 0 0 -1.889-1.909h-11.8a1.9 1.9 0 0 0 -1.889 1.909v11.932a1.9 1.9 0 0 0 1.889 1.909h5.31v1.041a2.143 2.143 0 0 0 -1.481 1.588h-7.961a.473.473 0 0 0 0 .946h7.961a2.118 2.118 0 0 0 4.142 0h7.961a.473.473 0 0 0 0-.946zm-15.937-16.947h11.8a.48.48 0 0 1 .472.477v8.86h-12.745v-8.86a.48.48 0 0 1 .473-.477zm-.472 12.409v-1.879h12.745v1.879a.48.48 0 0 1 -.472.477h-11.801a.48.48 0 0 1 -.473-.477zm6.373 6.2a1.193 1.193 0 1 1 1.18-1.193 1.186 1.186 0 0 1 -1.181 1.197z" fill="#e52e62"/></svg>