<svg xmlns="http://www.w3.org/2000/svg" viewBox="0 0 32 32"><title>folder_type_graphql_opened</title><path d="M27.5,5.5H18.3L16.2,9.7H4.4V26.5H29.6V5.5Zm0,18.7H6.7V11.8H27.5Zm0-14.5H19.3l1-2.1h7.1V9.7Z" style="fill:#fad7ee"/><polygon points="25.822 13.7 0.622 13.7 4.422 26.5 29.622 26.5 25.822 13.7" style="fill:#fad7ee"/><path d="M30.932,25.457a1.84,1.84,0,0,1-2.965.3l-4.212,2.432a1.837,1.837,0,1,1-3.506.059l-4.237-2.446a1.838,1.838,0,1,1-1.764-3.054v-4.9a1.838,1.838,0,1,1,1.762-3.051l4.239-2.447a1.837,1.837,0,1,1,3.522,0h0l4.238,2.447a1.838,1.838,0,1,1,1.764,3.049v4.9a1.837,1.837,0,0,1,1.158,2.7Zm-7.6-12.341-.049.049,5.548,9.609.071-.019v-4.9a1.835,1.835,0,0,1-1.322-2.285l-4.248-2.453Zm-2.641,0-4.247,2.452a1.835,1.835,0,0,1-1.321,2.288v4.9l.072.019,5.548-9.609h0Zm1.834.487a1.856,1.856,0,0,1-1.025,0L15.952,23.21a1.829,1.829,0,0,1,.517.894H27.554a1.844,1.844,0,0,1,.517-.9Zm.845,13.934L27.59,25.1q-.019-.06-.034-.121H16.466q-.009.036-.019.071L20.688,27.5a1.839,1.839,0,0,1,2.682.037Z" style="fill:#e535ab;stroke:#e535ab;stroke-miterlimit:10;stroke-width:0.08254656287568782px"/></svg>