<svg viewBox="0 0 32 32" xmlns="http://www.w3.org/2000/svg"><path d="m27.4 5.5h-9.2l-2.1 4.2h-11.8v16.8h25.2v-21zm0 18.7h-20.8v-12.4h20.8zm0-14.5h-8.2l1-2.1h7.1v2.1z" fill="#db847b"/><path d="m25.7 13.7h-25.2l3.8 12.8h25.2z" fill="#db847b"/><path d="m30.6 19.565-9.165-9.165a1.352 1.352 0 0 0 -1.913 0l-1.9 1.9 2.415 2.415a1.606 1.606 0 0 1 2.034 2.047l2.329 2.329a1.607 1.607 0 1 1 -.964.907l-2.176-2.171v5.713a1.606 1.606 0 1 1 -1.323-.047v-5.766a1.61 1.61 0 0 1 -.873-2.11l-2.381-2.381-6.283 6.286a1.353 1.353 0 0 0 0 1.913l9.165 9.165a1.353 1.353 0 0 0 1.913 0l9.122-9.122a1.353 1.353 0 0 0 0-1.913" fill="#dd4c35"/><path d="m17.619 12.3 2.415 2.415a1.606 1.606 0 0 1 2.034 2.047l2.332 2.329a1.607 1.607 0 1 1 -.964.907l-2.176-2.171v5.713a1.606 1.606 0 1 1 -1.323-.047v-5.766a1.61 1.61 0 0 1 -.873-2.11l-2.381-2.381" fill="#fff"/></svg>