<svg xmlns="http://www.w3.org/2000/svg" viewBox="0 0 32 32"><title>folder_type_helper</title><path d="M27.5,5.5H18.2L16.1,9.7H4.4V26.5H29.6V5.5Zm0,4.2H19.3l1.1-2.1h7.1Z" style="fill:#345e75"/><path d="M15.085,10.374c.23-.247.6-.163.895-.178a4.47,4.47,0,0,1,1.085.057c.458.227.329.816.43,1.231a5.975,5.975,0,0,1,1.249.5,5.452,5.452,0,0,1,.676-.52.589.589,0,0,1,.7.13c.274.262.536.537.807.8a.682.682,0,0,1,.257.627c-.089.35-.44.553-.57.877a7.9,7.9,0,0,1,.448,1.148c.3.059.608.063.906.133a.618.618,0,0,1,.4.611c0,.42.012.841,0,1.261a.585.585,0,0,1-.387.54,9.011,9.011,0,0,1-.928.139,9.82,9.82,0,0,1-.448,1.16c.1.4.62.63.592,1.089-.045.355-.384.553-.6.8-.275.24-.488.6-.87.678-.457,0-.706-.477-1.092-.635a6.487,6.487,0,0,1-.914.383c-.106.051-.308.053-.289.22-.066.417.02,1.028-.478,1.2a11.731,11.731,0,0,1-1.409.033.6.6,0,0,1-.641-.408,7.276,7.276,0,0,1-.132-.983A11.321,11.321,0,0,1,13.65,20.8c-.327.147-.544.48-.884.609a.606.606,0,0,1-.537-.1c-.278-.234-.516-.512-.781-.76-.183-.182-.409-.4-.38-.68.091-.406.48-.644.65-1.007A8.89,8.89,0,0,1,11.3,17.8c-.444-.13-1.078.041-1.34-.444A5.112,5.112,0,0,1,9.9,16.241c.006-.316-.061-.723.25-.923a3.369,3.369,0,0,1,1.085-.2,4.826,4.826,0,0,1,.466-1.172,6.24,6.24,0,0,1-.611-.865.607.607,0,0,1,.208-.638c.253-.259.512-.512.767-.77a.691.691,0,0,1,.619-.256c.355.08.559.438.885.567a10.749,10.749,0,0,1,1.227-.51C14.949,11.129,14.809,10.671,15.085,10.374Zm.717,3.8a2.273,2.273,0,0,0-1.7,1.349,2.38,2.38,0,0,0-.122,1.3,2.221,2.221,0,1,0,1.82-2.645Z" style="fill:#5599bf"/><path d="M25.354,16.626c.3-.019.654-.128.912.091.236.217.225.57.3.859a5.893,5.893,0,0,1,1.051.335c.221-.195.414-.48.729-.514.28-.02.483.2.684.362a2.616,2.616,0,0,1,.583.578c.143.379-.168.7-.359.986a6.547,6.547,0,0,1,.468.934c.367.023.884-.06,1.057.362A4.365,4.365,0,0,1,30.9,21.89c-.094.452-.633.469-1,.55-.061.335-.2.647-.291.973.1.286.454.428.521.743.072.345-.234.59-.423.835-.184.194-.332.477-.619.529-.373.067-.642-.251-.944-.408a5.34,5.34,0,0,1-.938.48c-.026.385.07.951-.385,1.121a4.289,4.289,0,0,1-1.293.1c-.447-.143-.421-.685-.521-1.058-.332-.061-.637-.218-.966-.28-.3.212-.544.646-.972.537a3.029,3.029,0,0,1-.725-.534c-.176-.158-.41-.324-.4-.588-.018-.351.334-.567.4-.886-.119-.288-.3-.548-.414-.841-.312-.028-.668.055-.941-.136-.251-.171-.237-.507-.273-.775a2.519,2.519,0,0,1,.01-.826c.176-.373.646-.354.989-.452a5.52,5.52,0,0,1,.3-1c-.2-.235-.489-.43-.558-.748-.039-.294.2-.515.368-.723a2.3,2.3,0,0,1,.6-.593c.375-.124.676.187.966.369a5.034,5.034,0,0,1,.985-.5c.079-.319-.045-.72.229-.961C24.8,16.619,25.1,16.66,25.354,16.626Zm.1,3.26a1.826,1.826,0,1,0,1.625.482,1.826,1.826,0,0,0-1.625-.482Z" style="fill:#5599bf"/><path d="M17.765,22.724a2.852,2.852,0,0,1,.956.015.772.772,0,0,1,.388.8,8.972,8.972,0,0,1,.827.368c.2-.138.4-.341.661-.313.238.009.4.209.556.36.165.176.379.365.359.63-.012.24-.214.4-.323.6a5.214,5.214,0,0,0,.3.778c.3.067.687.089.8.435a2.737,2.737,0,0,1,0,.933c-.1.37-.528.4-.846.436-.087.269-.225.516-.321.781.1.22.337.392.326.657.02.25-.182.426-.34.588a1.057,1.057,0,0,1-.581.376c-.285.017-.494-.206-.7-.373a8.616,8.616,0,0,1-.819.31c-.038.329-.074.764-.455.875a2.5,2.5,0,0,1-.962-.033c-.354-.149-.343-.572-.4-.892a3.92,3.92,0,0,1-.726-.317c-.234.155-.461.416-.77.37a1.142,1.142,0,0,1-.537-.382c-.156-.164-.349-.342-.338-.588,0-.277.226-.473.385-.674-.11-.245-.21-.5-.306-.745-.314-.023-.709-.057-.851-.389a2.347,2.347,0,0,1,0-1c.135-.34.534-.384.851-.4.086-.261.2-.511.3-.767-.081-.227-.335-.386-.321-.649-.037-.277.194-.469.368-.645a.969.969,0,0,1,.57-.345c.268-.017.441.221.662.328.284-.1.551-.237.838-.325C17.373,23.222,17.421,22.832,17.765,22.724Zm.084,2.651a1.478,1.478,0,1,0,1.7.862A1.478,1.478,0,0,0,17.849,25.375Z" style="fill:#5599bf"/></svg>