<svg xmlns="http://www.w3.org/2000/svg" viewBox="0 0 32 32" xmlns:v="https://vecta.io/nano"><defs><clipPath id="A"><rect width="13.224" height="3.369" x="16.446" y="24.001" ry=".511" rx="0" fill="none" stroke="#ff7a21" stroke-width=".737" stroke-dasharray="none" stroke-opacity="1"/></clipPath></defs><path d="M27.4,5.5H18.2L16.1,9.7H4.3v4H.5L4.3,26.5H29.5V5.5ZM20.2,7.6h7.1V9.7H19.2Zm5.5,6.1H6.6V11.8H27.4v7.626Z" fill="#953c00"/><g transform="matrix(1.078964 0 0 1.078964 -2.383393 -1.047967)"><g fill="#ff7a21"><rect width="2" height="7.75" x="20.263" y="17.494" ry=".969"/><rect width="12" height="8.875" x="15.263" y="11.369" ry="2.353"/></g><g stroke="#ff7a21"><rect width="12.731" height="6.599" x="16.635" y="20.454" ry=".953" clip-path="url(#A)" transform="matrix(-1.058652 0 0 -1 45.673496 49.289221)" fill="none" stroke-width="2.37"/><g fill="#ff7a21" stroke-width="1.5"><rect width="3.473" height="3" x="13.263" y="25.026" ry=".969"/><rect width="3.473" height="3" x="19.527" y="25" ry=".969"/><rect width="3.473" height="3" x="25.79" y="25.006" ry=".969"/></g></g><g fill="#fca"><rect width="6.879" height="1.5" x="17.965" y="16.52" ry=".75"/><rect width="6.879" height="1.5" x="17.965" y="13.655" ry=".75"/></g></g></svg>