<svg version="1.1" viewBox="0 0 32 32" xml:space="preserve" xmlns="http://www.w3.org/2000/svg"><title>folder_type_histoire</title><path d="M27.417,5.5H18.19L16.107,9.7H4.5V26.5h25V5.5Zm0,4.2H19.282l1.091-2.1h7.044Z" fill="#7080ff"/><g transform="matrix(.71435 0 0 .71435 10.551 9.2651)"><path d="m6.65 5.18 16.86-1.35c0.25-0.02 0.47 0.17 0.49 0.42l1.77 22.08a0.45 0.45 0 0 1-0.42 0.49l-16.86 1.35a0.45 0.45 0 0 1-0.49-0.42l-1.77-22.08a0.45 0.45 0 0 1 0.42-0.49z" fill="#34d399"/><path d="m21.86 21.64-2.19-10.17-4.67 3.53zm-4.86-4.7-6.86-6.64 2.19 10.18z" fill="#b4fae2" stroke="#b4fae2" stroke-linejoin="round" stroke-width=".47"/></g></svg>
