<svg version="1.1" viewBox="0 0 32 32" xmlns="http://www.w3.org/2000/svg"><title>folder_type_godot_opened</title><path d="M27.4,5.5H18.2L16.1,9.7H4.3v4H.5L4.3,26.5H29.5V5.5ZM20.2,7.6h7.1V9.7H19.2Zm5.5,6.1H6.6V11.8H27.4v7.626Z" fill="#37719a"/><g transform="matrix(.71429 0 0 .71429 8.5714 9)"><path d="m28.166 21.029v1.652a0.374 0.374 0 0 1-0.26 0.357l-2.6 0.841a0.367 0.367 0 0 1-0.335-0.054 0.374 0.374 0 0 1-0.155-0.3v-1.8l-2.438 0.464v1.831a0.375 0.375 0 0 1-0.325 0.371l-3.525 0.483h-0.051a0.374 0.374 0 0 1-0.377-0.374v-1.943l-1.819 8e-3h-0.267l-1.819-8e-3v1.943a0.375 0.375 0 0 1-0.375 0.376h-0.052l-3.525-0.483a0.375 0.375 0 0 1-0.324-0.371v-1.838l-2.439-0.464v1.8a0.374 0.374 0 0 1-0.154 0.3 0.37 0.37 0 0 1-0.336 0.054l-2.6-0.841a0.374 0.374 0 0 1-0.259-0.357v-1.647l-1.608-0.541a4.558 4.558 0 0 0-0.124 1.04c0 4.317 6.082 7.65 13.6 7.674h0.019c7.517-0.024 13.6-3.356 13.6-7.674a4.54 4.54 0 0 0-0.1-0.95z" fill="#478cbf"/><path d="m3.711 13.373v6.727l0.907 0.306a0.374 0.374 0 0 1 0.256 0.355v1.65l1.855 0.6v-1.744a0.376 0.376 0 0 1 0.445-0.369l3.189 0.609a0.374 0.374 0 0 1 0.305 0.368v1.818l2.775 0.379v-1.89a0.374 0.374 0 0 1 0.376-0.375l2.327 9e-3 2.326-9e-3a0.374 0.374 0 0 1 0.377 0.375v1.89l2.775-0.379v-1.819a0.373 0.373 0 0 1 0.3-0.368l3.189-0.609a0.377 0.377 0 0 1 0.446 0.369v1.741l1.855-0.6v-1.647a0.374 0.374 0 0 1 0.255-0.355l0.618-0.208v-6.824h0.017a26.792 26.792 0 0 0 1.696-2.442 19.02 19.02 0 0 0-2.509-3.288 24.507 24.507 0 0 0-2.491 1.448 13.01 13.01 0 0 0-1.279-1.052 15.365 15.365 0 0 0-1.375-0.894 28.353 28.353 0 0 0 0.232-3.071 15.968 15.968 0 0 0-3.731-1.274 26.44 26.44 0 0 0-1.385 2.7 9.46 9.46 0 0 0-1.453-0.116h-0.018a9.457 9.457 0 0 0-1.454 0.116 26.275 26.275 0 0 0-1.385-2.7 15.961 15.961 0 0 0-3.73 1.275 28.142 28.142 0 0 0 0.232 3.071 15.312 15.312 0 0 0-1.376 0.894 13.06 13.06 0 0 0-1.278 1.051 24.553 24.553 0 0 0-2.49-1.448 19.02 19.02 0 0 0-2.51 3.288 26.792 26.792 0 0 0 1.694 2.443z" fill="#478cbf"/><path d="m12.462 16.6a2.739 2.739 0 1 1-2.74-2.738 2.739 2.739 0 0 1 2.74 2.738" fill="#fff"/><path d="m11.8 16.764a1.819 1.819 0 1 1-1.819-1.819 1.817 1.817 0 0 1 1.819 1.819" fill="#414042"/><path d="m16.166 19.59a0.844 0.844 0 0 1-0.882-0.8v-2.523a0.886 0.886 0 0 1 1.764 0v2.522a0.845 0.845 0 0 1-0.883 0.8" fill="#fff"/><path d="m19.871 16.6a2.739 2.739 0 1 0 2.74-2.738 2.739 2.739 0 0 0-2.74 2.738" fill="#fff"/><path d="m20.531 16.764a1.818 1.818 0 1 0 1.817-1.819 1.817 1.817 0 0 0-1.817 1.819" fill="#414042"/></g></svg>
