<svg viewBox="0 0 32 32" xmlns="http://www.w3.org/2000/svg"><path d="m27.4 5.5h-9.2l-2.1 4.2h-11.8v16.8h25.2v-21zm0 18.7h-20.8v-12.4h20.8zm0-14.5h-8.2l1-2.1h7.1v2.1z" fill="#7bdb9d"/><path d="m25.7 13.7h-25.2l3.8 12.8h25.2z" fill="#7bdb9d"/><path d="m21.761 10h.048a7.814 7.814 0 0 1 .729.4q4.072 2.341 8.144 4.685a.594.594 0 0 1 .311.591c-.006 3.292 0 6.582 0 9.873a.61.61 0 0 1 -.267.381l-8.66 4.983a.44.44 0 0 1 -.493.028q-4.335-2.484-8.662-4.981a.522.522 0 0 1 -.3-.5q0-4.936 0-9.872a.52.52 0 0 1 .29-.5q4.07-2.339 8.136-4.681c.242-.138.478-.284.731-.4" fill="#019639"/><path d="m16.375 16.4q0 4.072 0 8.144a1.132 1.132 0 0 0 .321.815 1.235 1.235 0 0 0 1.545.155 1.173 1.173 0 0 0 .514-.97c0-1.965 0-3.93 0-5.9q2.688 3.218 5.386 6.426a2.124 2.124 0 0 0 1.954.587 1.171 1.171 0 0 0 .939-1.028q.006-4.156 0-8.311a1.186 1.186 0 0 0 -2.364 0c0 2-.012 3.991 0 5.987-1.76-2.074-3.5-4.167-5.248-6.249a2.113 2.113 0 0 0 -2-.789 1.184 1.184 0 0 0 -1.047 1.133z" fill="#fff"/></svg>