<svg xmlns="http://www.w3.org/2000/svg" viewBox="0 0 32 32"><path fill="#7FAECC" d="M27.4,5.5h-9.2l-2.1,4.2H4.3v16.8h25.2v-21H27.4z M27.4,24.2H6.6V11.8h20.8V24.2z M27.4,9.7h-8.2l1-2.1h7.1L27.4,9.7L27.4,9.7z"/><polygon fill="#7FAECC" points="25.7,13.7 0.5,13.7 4.3,26.5 29.5,26.5 "/><path fill-rule="evenodd" clip-rule="evenodd" fill="#80EEC0"  d="M17.9,13.2c-0.7-1.1-2.3-1.1-2.9,0L7.9,25.4c-0.7,1.1,0.2,2.5,1.5,2.5h5.5c-0.6-0.5-0.8-1.3-0.3-2l5.4-9.2L17.9,13.2L17.9,13.2z"/><path fill="#00DC82"  d="M22.4,15.9c0.5-0.9,1.9-0.9,2.4,0l5.9,10c0.5,0.9-0.1,2.1-1.2,2.1H17.8c-1.1,0-1.7-1.1-1.2-2.1L22.4,15.9z"/></svg>
