<?xml version="1.0" encoding="UTF-8" standalone="no"?>
<svg
   viewBox="0 0 32 32"
   version="1.1"
   id="svg349"
   sodipodi:docname="folder_type_datadogi.svg"
   inkscape:version="1.2 (dc2aedaf03, 2022-05-15)"
   xmlns:inkscape="http://www.inkscape.org/namespaces/inkscape"
   xmlns:sodipodi="http://sodipodi.sourceforge.net/DTD/sodipodi-0.dtd"
   xmlns="http://www.w3.org/2000/svg"
   xmlns:svg="http://www.w3.org/2000/svg"
   xmlns:rdf="http://www.w3.org/1999/02/22-rdf-syntax-ns#"
   xmlns:cc="http://creativecommons.org/ns#"
   xmlns:dc="http://purl.org/dc/elements/1.1/">
  <defs
     id="defs353" />
  <sodipodi:namedview
     id="namedview351"
     pagecolor="#ffffff"
     bordercolor="#000000"
     borderopacity="0.25"
     inkscape:showpageshadow="2"
     inkscape:pageopacity="0.0"
     inkscape:pagecheckerboard="0"
     inkscape:deskcolor="#d1d1d1"
     showgrid="false"
     inkscape:zoom="14.75"
     inkscape:cx="20.135593"
     inkscape:cy="18.847458"
     inkscape:window-width="1920"
     inkscape:window-height="1129"
     inkscape:window-x="-8"
     inkscape:window-y="-8"
     inkscape:window-maximized="1"
     inkscape:current-layer="svg349" />
  <title
     id="title343">folder_type_circleci</title>
  <path
     d="M27.5,5.5H18.2L16.1,9.7H4.4V26.5H29.6V5.5Zm0,4.2H19.3l1.1-2.1h7.1Z"
     style="fill:#632ca6;fill-opacity:1"
     id="path345" />
  <g
     transform="matrix(0.02453872,0,0,0.02453872,11.25919,10.063413)"
     id="g27">
    <path
       d="M 584.65,49.556 77.88,107.962 66.081,240.112 c 0,0 43.067,494.97 42.477,493.2 -0.58996,-1.7699 60.578,39.195 60.578,39.195 0,0 23.451,83.457 107.98,61.068 84.531,-22.389 37.507,-124.43 30.75,-137.67 -6.7572,-13.246 31.953,36.231 31.953,36.231 l 46.845,-5.6177 7.3802,61.543 372.65,-67.16 -22.19,-268.56 z"
       fill="#ffffff"
       id="path23" />
    <path
       class="st0"
       d="m 670.38,608.27 -71.24,-46.99 -59.43,99.27 -69.12,-20.21 -60.86,92.89 3.12,29.24 330.9,-60.97 -19.22,-206.75 z m -308.59,-89.14 53.09,-7.3 c 8.59,3.86 14.57,5.33 24.87,7.95 16.04,4.18 34.61,8.19 62.11,-5.67 6.4,-3.17 19.73,-15.36 25.12,-22.31 L 744.5,452.34 766.69,720.9 394.04,788.06 Z M 765.85,422.36 744.38,426.45 703.13,0.27 0.27,81.77 86.86,784.45 169.13,772.51 c -6.57,-9.38 -16.8,-20.73 -34.27,-35.26 -24.23,-20.13 -15.66,-54.32 -1.37,-75.91 18.91,-36.48 116.34,-82.84 110.82,-141.15 -1.98,-21.2 -5.35,-48.8 -25.03,-67.71 -0.74,7.85 0.59,15.41 0.59,15.41 0,0 -8.08,-10.31 -12.11,-24.37 -4,-5.39 -7.14,-7.11 -11.39,-14.31 -3.03,8.33 -2.63,17.99 -2.63,17.99 0,0 -6.61,-15.62 -7.68,-28.8 -3.92,5.9 -4.91,17.11 -4.91,17.11 0,0 -8.59,-24.62 -6.63,-37.88 -3.92,-11.54 -15.54,-34.44 -12.25,-86.49 21.45,15.03 68.67,11.46 87.07,-15.66 6.11,-8.98 10.29,-33.5 -3.05,-81.81 -8.57,-30.98 -29.79,-77.11 -38.06,-94.61 l -0.99,0.71 c 4.36,14.1 13.35,43.66 16.8,57.99 10.44,43.47 13.24,58.6 8.34,78.64 -4.17,17.42 -14.17,28.82 -39.52,41.56 -25.35,12.78 -58.99,-18.32 -61.12,-20.04 -24.63,-19.62 -43.68,-51.63 -45.81,-67.18 -2.21,-17.02 9.81,-27.24 15.87,-41.16 -8.67,2.48 -18.34,6.88 -18.34,6.88 0,0 11.54,-11.94 25.77,-22.27 5.89,-3.9 9.35,-6.38 15.56,-11.54 -8.99,-0.15 -16.29,0.11 -16.29,0.11 0,0 14.99,-8.1 30.53,-14 -11.37,-0.5 -22.25,-0.08 -22.25,-0.08 0,0 33.45,-14.96 59.87,-25.94 18.17,-7.45 35.92,-5.25 45.89,9.17 13.09,18.89 26.84,29.15 55.98,35.51 17.89,-7.93 23.33,-12.01 45.81,-18.13 19.79,-21.76 35.33,-24.58 35.33,-24.58 0,0 -7.71,7.07 -9.77,18.18 11.22,-8.84 23.52,-16.22 23.52,-16.22 0,0 -4.76,5.88 -9.2,15.22 l 1.03,1.53 c 13.09,-7.85 28.48,-14.04 28.48,-14.04 0,0 -4.4,5.56 -9.56,12.76 9.87,-0.08 29.89,0.42 37.66,1.3 45.87,1.01 55.39,-48.99 72.99,-55.26 22.04,-7.87 31.89,-12.63 69.45,24.26 32.23,31.67 57.41,88.36 44.91,101.06 -10.48,10.54 -31.16,-4.11 -54.08,-32.68 -12.11,-15.13 -21.27,-33.01 -25.56,-55.74 -3.62,-19.18 -17.71,-30.31 -17.71,-30.31 0,0 8.18,18.18 8.18,34.24 0,8.77 1.1,41.56 15.16,59.96 -1.39,2.69 -2.04,13.31 -3.58,15.34 -16.36,-19.77 -51.49,-33.92 -57.22,-38.09 19.39,15.89 63.96,52.39 81.08,87.37 16.19,33.08 6.65,63.4 14.84,71.25 2.33,2.25 34.82,42.73 41.07,63.07 10.9,35.45 0.65,72.7 -13.62,95.81 l -39.85,6.21 c -5.83,-1.62 -9.76,-2.43 -14.99,-5.46 2.88,-5.1 8.61,-17.82 8.67,-20.44 l -2.25,-3.95 c -12.4,17.57 -33.18,34.63 -50.44,44.43 -22.59,12.8 -48.63,10.83 -65.58,5.58 -48.11,-14.84 -93.6,-47.35 -104.57,-55.89 0,0 -0.34,6.82 1.73,8.35 12.13,13.68 39.92,38.43 66.78,55.68 l -57.26,6.3 27.07,210.78 c -12,1.72 -13.87,2.56 -27.01,4.43 -11.58,-40.91 -33.73,-67.62 -57.94,-83.18 -21.35,-13.72 -50.8,-16.81 -78.99,-11.23 l -1.81,2.1 c 19.6,-2.04 42.74,0.8 66.51,15.85 23.33,14.75 42.13,52.85 49.05,75.79 8.86,29.32 14.99,60.68 -8.86,93.92 -16.97,23.63 -66.51,36.69 -106.53,8.44 10.69,17.19 25.14,31.25 44.59,33.9 28.88,3.92 56.29,-1.09 75.16,-20.46 16.11,-16.56 24.65,-51.19 22.4,-87.66 l 25.49,-3.7 9.2,65.46 421.98,-50.81 z M 509.12,244.59 c -1.18,2.69 -3.03,4.45 -0.25,13.2 l 0.17,0.5 0.44,1.13 1.16,2.62 c 5.01,10.24 10.51,19.9 19.7,24.83 2.38,-0.4 4.84,-0.67 7.39,-0.8 8.63,-0.38 14.08,0.99 17.54,2.85 0.31,-1.72 0.38,-4.24 0.19,-7.95 -0.67,-12.97 2.57,-35.03 -22.36,-46.64 -9.41,-4.37 -22.61,-3.02 -27.01,2.43 0.8,0.1 1.52,0.27 2.08,0.46 6.65,2.33 2.14,4.62 0.95,7.37 m 69.87,121.02 c -3.27,-1.8 -18.55,-1.09 -29.29,0.19 -20.46,2.41 -42.55,9.51 -47.39,13.29 -8.8,6.8 -4.8,18.66 1.7,23.53 18.23,13.62 34.21,22.75 51.08,20.53 10.36,-1.36 19.49,-17.76 25.96,-32.64 4.43,-10.25 4.43,-21.31 -2.06,-24.9 M 397.85,260.65 c 5.77,-5.48 -28.74,-12.68 -55.52,5.58 -19.75,13.47 -20.38,42.35 -1.47,58.72 1.89,1.62 3.45,2.77 4.91,3.71 5.52,-2.6 11.81,-5.23 19.05,-7.58 12.23,-3.97 22.4,-6.02 30.76,-7.11 4,-4.47 8.65,-12.34 7.49,-26.59 -1.58,-19.33 -16.23,-16.26 -5.22,-26.73"
       clip-rule="evenodd"
       fill="#632ca6"
       fill-rule="evenodd"
       id="path25" />
  </g>
  <metadata
     id="metadata4202">
    <rdf:RDF>
      <cc:Work
         rdf:about="">
        <dc:title>folder_type_circleci</dc:title>
      </cc:Work>
    </rdf:RDF>
  </metadata>
</svg>
