<svg xmlns="http://www.w3.org/2000/svg" viewBox="0 0 32 32"><title>folder_type_light_sass_opened@2x</title><g id="folder_light_opened_sass"><path d="M27.4,5.5H18.2L16.1,9.7H4.3V26.5H29.5V5.5Zm0,18.7H6.6V11.8H27.4Zm0-14.5H19.2l1-2.1h7.1V9.7Z" style="fill:#db7bab"/><polygon points="25.7 13.7 0.5 13.7 4.3 26.5 29.5 26.5 25.7 13.7" style="fill:#db7bab"/><path d="M20.5,10A10.5,10.5,0,1,1,10,20.5,10.5,10.5,0,0,1,20.5,10Z" style="fill:#c69;fill-rule:evenodd"/><path d="M27.09,14.49c-.48-1.86-3.57-2.48-6.49-1.44a14.7,14.7,0,0,0-5,2.86c-1.61,1.51-1.87,2.82-1.76,3.37.37,1.93,3,3.2,4.11,4.14h0c-.32.16-2.67,1.35-3.22,2.57s.09,2.2.54,2.33a3.3,3.3,0,0,0,3.56-1.44,3.62,3.62,0,0,0,.35-3.22,4.23,4.23,0,0,1,1.61-.09c1.84.22,2.2,1.37,2.13,1.85a1.21,1.21,0,0,1-.58.83c-.13.08-.17.11-.16.17s.08.08.19.06a1.44,1.44,0,0,0,1-1.28c0-1.13-1-2.39-3-2.36a5.05,5.05,0,0,0-1.64.22L18.7,23c-1.18-1.26-3.37-2.16-3.28-3.85,0-.62.25-2.24,4.2-4.21,3.24-1.61,5.83-1.17,6.28-.19.64,1.41-1.39,4-4.75,4.4A2.53,2.53,0,0,1,19,18.58c-.18-.19-.2-.2-.27-.17s0,.23,0,.33a2,2,0,0,0,1.22,1,6.44,6.44,0,0,0,3.94-.39C26,18.52,27.55,16.33,27.09,14.49ZM18.41,24a2.69,2.69,0,0,1,0,1.57l-.06.16-.07.15a2.93,2.93,0,0,1-.48.71c-.61.67-1.46.92-1.83.71s-.2-1.17.51-1.91a7.11,7.11,0,0,1,1.86-1.32h0Z" style="fill:#fff"/></g></svg>