<svg version="1.1" viewBox="0 0 32 32" xmlns="http://www.w3.org/2000/svg"><title>folder_type_light_zed_opened</title><g fill="#606060"><path d="m27.4 5.5h-9.2l-2.1 4.2h-11.8v16.8h25.2v-21zm0 18.7h-20.8v-12.4h20.8zm0-14.5h-8.2l1-2.1h7.1v2.1z"/><polygon points="25.7 13.7 0.5 13.7 4.3 26.5 29.5 26.5"/></g><path d="m27.347 5.5256h-9.3l-2.1 4.2h-11.7v16.8h25.2v-21zm0 4.2h-8.2l1.1-2.1h7.1z" display="none" fill="#454545"/><path transform="matrix(.16158 0 0 .16158 15.3 15.083)" d="m9 6c-1.6568 0-3 1.3432-3 3v66h-6v-66c0-4.9706 4.0294-9 9-9h80.379c4.0091 0 6.0168 4.8472 3.182 7.682l-49.506 49.506h13.945v-6.1875h6v7.6875c0 2.4853-2.0147 4.5-4.5 4.5h-21.445l-10.312 10.312h46.757v-37.5h6v37.5c0 3.3137-2.6863 6-6 6h-52.757l-10.5 10.5h76.757c1.6569 0 3-1.3431 3-3v-66h6v66c0 4.9706-4.0294 9-9 9h-80.379c-4.0091 0-6.0168-4.8471-3.182-7.682l49.318-49.318h-13.757v6h-6v-7.5c0-2.4853 2.0147-4.5 4.5-4.5h21.257l10.5-10.5h-46.757v37.5h-6v-37.5c0-3.3137 2.6863-6 6-6h52.757l10.5-10.5z" clip-rule="evenodd" fill="#ddd" fill-rule="evenodd" stroke="#faf3f3" stroke-width="1.8567"/></svg>
