<svg xmlns="http://www.w3.org/2000/svg" viewBox="0 0 32 32"><title>folder_type_binary</title><path d="M27.5,5.5H18.2L16.1,9.7H4.4V26.5H29.6V5.5Zm0,4.2H19.3l1.1-2.1h7.1Z" style="fill:#c15356"/><polygon points="25.742 9.9 13.441 9.9 13.441 30.9 30.916 30.9 30.916 15.15 25.742 9.9" style="fill:#9f4246"/><polygon points="29.577 29.663 14.851 29.663 14.851 11.138 24.906 11.138 29.656 15.887 29.656 29.663 29.577 29.663" style="fill:#fff"/><path d="M18.652,19.945c1.188,0,1.922-1.1,1.922-2.747,0-1.609-.6-2.582-1.8-2.582s-1.929,1.1-1.929,2.747C16.846,18.975,17.448,19.945,18.652,19.945ZM17.72,17.2c0-1.172.322-1.84.99-1.84.487,0,.784.413.916,1.105l-1.9.982A2.4,2.4,0,0,1,17.72,17.2Zm1,2c-.478,0-.784-.4-.916-1.073l1.9-.982v.215C19.7,18.534,19.387,19.2,18.718,19.2Z" style="fill:#9f4246"/><polygon points="26.421 19.835 26.496 19.068 25.258 19.068 25.258 14.558 24.376 14.633 24.376 15.233 23.105 15.365 23.122 16.033 24.376 16 24.376 19.069 22.989 19.069 22.989 19.837 26.421 19.835" style="fill:#9f4246"/><polygon points="20.533 26.96 20.608 26.193 19.371 26.193 19.371 21.682 18.488 21.757 18.488 22.357 17.218 22.489 17.234 23.158 18.488 23.125 18.488 26.194 17.102 26.194 17.102 26.962 20.533 26.96" style="fill:#9f4246"/><path d="M24.615,27.067c1.188,0,1.922-1.1,1.922-2.747,0-1.609-.6-2.582-1.8-2.582s-1.93,1.1-1.93,2.747c0,1.611.6,2.585,1.808,2.585Zm-.932-2.745c0-1.172.322-1.84.99-1.84.487,0,.784.412.916,1.105l-1.9.982A2.4,2.4,0,0,1,23.683,24.322Zm1,2c-.479,0-.784-.4-.916-1.073l1.9-.982v.214C25.663,25.659,25.349,26.325,24.681,26.325Z" style="fill:#9f4246"/></svg>