<svg xmlns="http://www.w3.org/2000/svg" viewBox="0 0 32 32"><title>folder_type_module_opened</title><path d="M27.4,5.5H18.2L16.1,9.7H4.3V26.5H29.5V5.5Zm0,18.7H6.6V11.8H27.4Zm0-14.5H19.2l1-2.1h7.1V9.7Z" style="fill:#a27bdb"/><polygon points="25.7 13.7 0.5 13.7 4.3 26.5 29.5 26.5 25.7 13.7" style="fill:#a27bdb"/><path d="M27.922,20.612v-.083c0-.806,0-1.612,0-2.419A.107.107,0,0,0,27.855,18c-.725-.383-1.449-.769-2.174-1.152a.107.107,0,0,1-.068-.111c0-.529,0-1.057,0-1.585v-.084c.032.015.054.025.076.037q1.851.983,3.7,1.963a.108.108,0,0,1,.068.112q0,2.106,0,4.212a.115.115,0,0,0,.069.119c.47.26.939.524,1.409.784A.1.1,0,0,1,31,22.4q0,1.986,0,3.973a.106.106,0,0,1-.064.106q-1.863,1.036-3.722,2.078a.112.112,0,0,1-.124,0q-1.857-1.04-3.716-2.074a.116.116,0,0,1-.068-.12q0-1.979,0-3.958a.112.112,0,0,1,.065-.114q1.863-1.037,3.722-2.078a.106.106,0,0,1,.118,0C27.442,20.345,27.675,20.474,27.922,20.612Zm.7,2.171c-.021-.014-.034-.026-.049-.034q-.687-.384-1.376-.765a.112.112,0,0,0-.093,0c-.453.249-.9.5-1.356.754-.019.011-.037.024-.061.039l.038.024q.691.377,1.383.755a.1.1,0,0,0,.105-.009l1.283-.7Zm-2.237,3.6c0-.484,0-.953,0-1.422a.108.108,0,0,0-.053-.071q-.708-.388-1.418-.773c-.019-.01-.039-.018-.064-.03,0,.47,0,.932,0,1.393a.115.115,0,0,0,.057.076c.363.206.728.409,1.092.612Zm1.538,0,.038-.017q.727-.407,1.456-.811c.044-.024.045-.055.045-.095q0-.648,0-1.3V24.1l-.017,0q-.743.4-1.486.809a.079.079,0,0,0-.033.059C27.922,25.434,27.922,25.9,27.922,26.383ZM16.385,15.066v.188c0,.489,0,.979,0,1.468a.128.128,0,0,1-.084.134q-1.08.57-2.16,1.145a.1.1,0,0,0-.067.1q0,1.226,0,2.45c0,.017,0,.034,0,.062.1-.053.186-.1.274-.152.148-.082.294-.167.444-.245a.11.11,0,0,1,.094,0q1.876,1.043,3.75,2.093a.109.109,0,0,1,.047.081q0,2,0,4a.11.11,0,0,1-.048.081q-1.872,1.05-3.749,2.093a.114.114,0,0,1-.094,0q-1.872-1.043-3.744-2.087a.094.094,0,0,1-.055-.1q0-1.994,0-3.988a.093.093,0,0,1,.058-.095c.47-.261.939-.524,1.409-.784a.122.122,0,0,0,.074-.124q0-2.1,0-4.2c0-.048,0-.084.055-.111q1.869-.988,3.737-1.981Zm-3.008,7.712a.323.323,0,0,0,.029.02c.466.254.932.509,1.4.76a.118.118,0,0,0,.1-.006q.681-.366,1.358-.738c.017-.009.033-.019.056-.033l-.044-.03q-.69-.386-1.382-.768a.111.111,0,0,0-.094.006c-.272.148-.542.3-.812.45Zm.7,3.609c0-.485,0-.954,0-1.423a.1.1,0,0,0-.054-.07q-.707-.388-1.417-.773c-.019-.011-.039-.018-.065-.03,0,.471,0,.932,0,1.393a.112.112,0,0,0,.057.076c.363.206.728.409,1.092.612Zm1.538,0,.046-.021q.722-.4,1.443-.8a.089.089,0,0,0,.05-.092q0-.66,0-1.321c0-.017,0-.033,0-.05a.163.163,0,0,0-.021.005c-.492.267-.983.533-1.472.8a.1.1,0,0,0-.039.079c0,.191,0,.382,0,.572Zm9.23-11.2c0,.66,0,1.32,0,1.979a.111.111,0,0,1-.066.113q-1.861,1.037-3.72,2.078a.112.112,0,0,1-.125,0q-1.86-1.041-3.72-2.077a.107.107,0,0,1-.063-.108q0-1.982,0-3.965a.106.106,0,0,1,.062-.108q1.861-1.035,3.72-2.076a.119.119,0,0,1,.133,0q1.851,1.038,3.707,2.069a.123.123,0,0,1,.072.126C24.845,13.872,24.846,14.529,24.846,15.186Zm-5.318-1.611c.026.016.043.029.062.039q.68.37,1.357.74a.1.1,0,0,0,.105,0q.681-.373,1.364-.744c.016-.009.031-.022.048-.033-.008-.008-.011-.013-.016-.015q-.7-.394-1.41-.786a.108.108,0,0,0-.089.007c-.134.07-.265.146-.4.22Zm.7,3.608c0-.017.005-.027.005-.036,0-.459,0-.917,0-1.375,0-.052-.028-.065-.062-.083l-1.4-.764c-.021-.012-.044-.022-.069-.034,0,.016,0,.023,0,.031,0,.453,0,.906,0,1.359,0,.05.028.065.062.084l1.4.783C20.177,17.16,20.2,17.17,20.226,17.183Zm3.081-2.293a.4.4,0,0,0-.042.018c-.484.263-.967.527-1.452.788-.045.024-.044.055-.044.094v1.329c0,.019,0,.038,0,.066l.041-.019c.483-.27.966-.541,1.45-.809.044-.024.045-.055.045-.094q0-.65,0-1.3ZM16.625,28.572q2.154,1.2,4.309,2.408a.118.118,0,0,0,.132,0q2.154-1.2,4.31-2.407c.024-.013.047-.028.078-.046l-.082-.048c-.475-.265-.95-.529-1.423-.8a.134.134,0,0,0-.152,0q-1.362.764-2.724,1.524a.13.13,0,0,1-.147,0q-1.368-.767-2.738-1.531a.11.11,0,0,0-.125,0c-.482.272-.966.541-1.45.811-.019.01-.038.023-.065.04C16.578,28.544,16.6,28.559,16.625,28.572Z" style="fill:#7045b5"/><path d="M28.621,22.783l-.126.07-1.283.7a.1.1,0,0,1-.105.009q-.69-.38-1.383-.755l-.038-.024c.024-.015.042-.028.061-.039.452-.252.9-.505,1.356-.754a.112.112,0,0,1,.093,0q.69.379,1.376.765C28.587,22.757,28.6,22.769,28.621,22.783Zm-2.24,2.182a.108.108,0,0,0-.053-.071q-.708-.388-1.418-.773c-.019-.01-.039-.018-.064-.03,0,.47,0,.932,0,1.393a.115.115,0,0,0,.057.076c.363.206.728.409,1.092.612l.387.215C26.384,25.9,26.385,25.434,26.381,24.965Zm1.579,1.4q.727-.407,1.456-.811c.044-.024.045-.055.045-.095q0-.648,0-1.3V24.1l-.017,0q-.743.4-1.486.809a.079.079,0,0,0-.033.059c0,.469,0,.938,0,1.418ZM13.406,22.8c.466.254.932.509,1.4.76a.118.118,0,0,0,.1-.006q.681-.366,1.358-.738c.017-.009.033-.019.056-.033l-.044-.03q-.69-.386-1.382-.768a.111.111,0,0,0-.094.006c-.272.148-.542.3-.812.45l-.6.339A.323.323,0,0,0,13.406,22.8Zm.669,2.166a.1.1,0,0,0-.054-.07q-.707-.388-1.417-.773c-.019-.011-.039-.018-.065-.03,0,.471,0,.932,0,1.393a.112.112,0,0,0,.057.076c.363.206.728.409,1.092.612l.387.215C14.078,25.9,14.078,25.433,14.075,24.964Zm1.587,1.4q.722-.4,1.443-.8a.089.089,0,0,0,.05-.092q0-.66,0-1.321c0-.017,0-.033,0-.05a.163.163,0,0,0-.021.005c-.492.267-.983.533-1.472.8a.1.1,0,0,0-.039.079c0,.191,0,.382,0,.572v.829ZM19.59,13.614q.68.37,1.357.74a.1.1,0,0,0,.105,0q.681-.373,1.364-.744c.016-.009.031-.022.048-.033-.008-.008-.011-.013-.016-.015q-.7-.394-1.41-.786a.108.108,0,0,0-.089.007c-.134.07-.265.146-.4.22l-1.024.571C19.554,13.591,19.571,13.6,19.59,13.614Zm.641,3.533c0-.459,0-.917,0-1.375,0-.052-.028-.065-.062-.083l-1.4-.764c-.021-.012-.044-.022-.069-.034,0,.016,0,.023,0,.031,0,.453,0,.906,0,1.359,0,.05.028.065.062.084l1.4.783c.021.012.044.022.07.035C20.228,17.166,20.231,17.156,20.231,17.147Zm3.034-2.239c-.484.263-.967.527-1.452.788-.045.024-.044.055-.044.094v1.329c0,.019,0,.038,0,.066l.041-.019c.483-.27.966-.541,1.45-.809.044-.024.045-.055.045-.094q0-.65,0-1.3V14.89A.4.4,0,0,0,23.265,14.908Z" style="fill:#fff"/></svg>