<svg xmlns="http://www.w3.org/2000/svg" xmlns:xlink="http://www.w3.org/1999/xlink" viewBox="0 0 32 32"><defs><linearGradient id="linear-gradient" x1="21" y1="23.76" x2="17.81" y2="34.56" gradientUnits="userSpaceOnUse"><stop offset="0" stop-color="#f1f1f2"/><stop offset="0.39" stop-color="#eaebec"/><stop offset="1" stop-color="#e6e7e8"/></linearGradient><linearGradient id="linear-gradient-2" x1="29.52" y1="12.19" x2="30.66" y2="37.09" gradientUnits="userSpaceOnUse"><stop offset="0" stop-color="#e6e7e8"/><stop offset="0.48" stop-color="#dbdcde"/><stop offset="1" stop-color="#d7d8da"/></linearGradient><linearGradient id="linear-gradient-3" x1="26.48" y1="10.07" x2="16.63" y2="19.98" gradientUnits="userSpaceOnUse"><stop offset="0" stop-color="#fff57e"/><stop offset="1" stop-color="#fdbf0f"/></linearGradient><linearGradient id="linear-gradient-4" x1="29.14" y1="10.82" x2="31.27" y2="22" gradientUnits="userSpaceOnUse"><stop offset="0" stop-color="#fbe574"/><stop offset="1" stop-color="#efab14"/></linearGradient></defs><title>folder_type_dist@2x</title><g id="folder_dist"><path d="M27.5,5.5H18.2L16.1,9.7H4.4V26.5H29.6V5.5Zm0,4.2H19.3l1.1-2.1h7.1Z" style="fill:#bc9f55"/><polygon points="14.68 11.56 28.63 10.5 28.63 31.5 14.68 29.23 14.68 11.56" style="fill:url(#linear-gradient)"/><polygon points="28.63 10.5 31.28 11.94 31.32 28.73 28.63 31.5 28.63 10.5" style="fill:url(#linear-gradient-2)"/><path d="M28.63,18.28c-2.6-.52-4.34,3.29-6.39,4.87-3.64,2.78-5.81-2.28-7.56-6.31v-1.7c0-1,0-2.55,0-3.58C19.33,11,24,11,28.63,10.5v7.78Z" style="fill:url(#linear-gradient-3)"/><path d="M31.3,23.41l0-11.47L28.63,10.5v7.78C30.38,18.41,29.57,23.23,31.3,23.41Z" style="fill:url(#linear-gradient-4)"/><path d="M27.49,22.83l.06.11a2.8,2.8,0,0,0,.23-.27l-.07-.1A2.68,2.68,0,0,1,27.49,22.83Zm.41-.56.08.08a2.14,2.14,0,0,0,.15-.37L28,21.93A2,2,0,0,1,27.9,22.27Zm.29-1.13-.1,0a1.53,1.53,0,0,1,0,.26s0,.08,0,.12h.1s0-.09,0-.14A1.71,1.71,0,0,0,28.19,21.14Zm-.12-.39a1.36,1.36,0,0,0-.21-.32l-.06.1a1.23,1.23,0,0,1,.19.29Zm-.47-.54a1,1,0,0,0-.3-.13l0,.13a1,1,0,0,1,.27.12Zm-.91-.09,0,.13h0a1.05,1.05,0,0,1,.28-.06v-.14A1.12,1.12,0,0,0,26.69,20.11Zm-.52.32,0,0,.06.11,0,0,.22-.17,0-.12A1.81,1.81,0,0,0,26.17,20.44Zm-.51.52.06.11.23-.25-.06-.11Zm-.46.53.07.1.22-.27-.06-.1Zm-.45.54.07.1.22-.27-.07-.1Zm-.45.53.06.1.23-.26-.06-.1Zm-.46.51.06.11.24-.25-.06-.11Zm-.48.47.06.11.25-.23-.06-.11Zm-.5.42,0,.12.26-.21-.05-.12Zm-.53.37,0,.12h0l.27-.18,0-.12Zm-.55.3,0,.13.28-.14,0-.13Zm-.57.22,0,.13.29-.1,0-.13Zm-.58.14v.13l.3-.06,0-.13Zm-.52.06H20v.14h.07l.23,0V25Zm-.67.07.3.05V25l-.29,0Zm-.58-.21.29.12,0-.13-.28-.12Zm-.55-.33.27.18,0-.12-.27-.17Zm-.52-.42.25.22.05-.12-.25-.22Zm-.48-.49.24.25.06-.11-.23-.25Zm-.45-.54.22.28.07-.1L16.92,23Zm-.42-.59h0l.21.3.07-.09-.2-.29ZM16,21.93l.19.31.08-.09-.19-.31Zm-.37-.65.18.33.08-.08-.18-.32Zm-.35-.67h0l.17.34.08-.08-.17-.33ZM15,19.92l.16.35.08-.07-.16-.34Zm-.21-.78-.09.06.15.36.09-.07-.11-.26Z" style="fill:#fdbf0f"/><path d="M27.14,18.66l.07.42v0h0l.35.25,0-.09-1,.16,0,.08.58-.83Zm-.53.87,1-.16.12,0-.1-.07L27.28,19l0,0-.07-.42,0-.12-.07.1-.58.83-.07.1Z" style="fill:#fdbf0f"/></g></svg>