<svg xmlns="http://www.w3.org/2000/svg" xmlns:xlink="http://www.w3.org/1999/xlink" viewBox="0 0 32 32"><defs><linearGradient id="a" x1="20.1" y1="-71.976" x2="19.934" y2="-75.239" gradientTransform="matrix(0.994, 0.114, 0.114, -0.994, 17.697, -48.67)" gradientUnits="userSpaceOnUse"><stop offset="0.365" stop-color="#961b1e"/><stop offset="0.697" stop-color="#961b1e"/></linearGradient><linearGradient id="b" x1="19.81" y1="-73.121" x2="19.81" y2="-74.417" gradientTransform="matrix(0.994, 0.114, 0.114, -0.994, 17.697, -48.67)" gradientUnits="userSpaceOnUse"><stop offset="0.326" stop-color="#c0272d"/><stop offset="0.82" stop-color="#c0272d"/></linearGradient><linearGradient id="c" x1="-3314.64" y1="-775.286" x2="-3314.807" y2="-778.567" gradientTransform="matrix(-1.071, 0.315, -0.248, -0.986, -3716.431, 305.67)" xlink:href="#a"/><linearGradient id="d" x1="-3314.932" y1="-776.405" x2="-3314.932" y2="-777.702" gradientTransform="matrix(-1.071, 0.315, -0.248, -0.986, -3716.431, 305.67)" xlink:href="#b"/><linearGradient id="e" x1="27.774" y1="6.194" x2="27.726" y2="12.633" gradientTransform="matrix(1, 0, 0, -1, 0, 32)" gradientUnits="userSpaceOnUse"><stop offset="0" stop-color="#651116"/><stop offset="0.053" stop-color="#6a1217"/><stop offset="0.463" stop-color="#901b20"/><stop offset="0.793" stop-color="#a72126"/><stop offset="1" stop-color="#b02328"/></linearGradient><radialGradient id="f" cx="305.772" cy="-104.962" r="125.273" gradientTransform="matrix(0.028, 0, 0, -0.028, 19.08, 19.812)" gradientUnits="userSpaceOnUse"><stop offset="0.478" stop-color="#ec1c24"/><stop offset="0.775" stop-color="#961b1e"/><stop offset="1" stop-color="#d9383c"/></radialGradient><linearGradient id="g" x1="28.739" y1="7.246" x2="26.6" y2="11.63" gradientTransform="matrix(1, 0, 0, -1, 0, 32)" gradientUnits="userSpaceOnUse"><stop offset="0.006" stop-color="#ca4849"/><stop offset="0.421" stop-color="#c0272d"/><stop offset="1" stop-color="#730b0d"/></linearGradient><radialGradient id="h" cx="318.887" cy="-128.516" r="123.249" gradientTransform="matrix(0.027, 0, 0, -0.027, 19.021, 19.781)" gradientUnits="userSpaceOnUse"><stop offset="0.618" stop-color="#6c0607"/><stop offset="0.994" stop-color="#b12328"/></radialGradient><radialGradient id="i" cx="-308.966" cy="136.59" r="87.657" gradientTransform="matrix(-0.027, 0, 0, 0.027, 19.287, 18.866)" gradientUnits="userSpaceOnUse"><stop offset="0.876" stop-color="#c0272d"/><stop offset="1" stop-color="#831416"/></radialGradient><linearGradient id="j" x1="28.618" y1="7.477" x2="26.715" y2="11.412" gradientTransform="matrix(1, 0, 0, -1, 0, 32)" gradientUnits="userSpaceOnUse"><stop offset="0.006" stop-color="#ca4849"/><stop offset="0.421" stop-color="#c0272d"/><stop offset="1" stop-color="#651116"/></linearGradient><radialGradient id="k" cx="-285.727" cy="82.15" r="138.756" gradientTransform="matrix(-0.027, 0, 0, 0.027, 19.287, 18.866)" gradientUnits="userSpaceOnUse"><stop offset="0" stop-color="#c5263b"/><stop offset="1" stop-color="#910d10"/></radialGradient><linearGradient id="l" x1="28.739" y1="7.112" x2="26.526" y2="11.736" gradientTransform="matrix(1, 0, 0, -1, 0, 32)" gradientUnits="userSpaceOnUse"><stop offset="0.017" stop-color="#b12328"/><stop offset="0.096" stop-color="#d9383c"/><stop offset="0.994" stop-color="#651116"/></linearGradient></defs><title>folder_type_certificate</title><path d="M27.9,6H18.1l-2,4H5V27H30V6Zm.1,4H20.2l1-2H28Z" style="fill:#bf5558"/><path d="M15.762,11.266V29.013H29.717V14.429H26.24V11.266Zm11.731.785L27.5,13.17H28.71l-1.217-1.121Z" style="fill:gray"/><path d="M27.122,10H15.777a1.27,1.27,0,0,0-1.267,1.268V29.015a1.271,1.271,0,0,0,1.267,1.267H29.721a1.271,1.271,0,0,0,1.269-1.267v-15.5Zm.381,2.06,1.2,1.109H27.5ZM15.777,29.015V11.268H26.234v3.169H29.72V29.015Z" style="fill:#c5c5c5"/><path d="M22.749,12.535a3.814,3.814,0,0,0-3.8,3.8v3.169h-1.9v8.24H28.454v-8.24h-1.9V16.338A3.813,3.813,0,0,0,22.749,12.535Zm0,1.268a2.527,2.527,0,0,1,2.536,2.516v3.188H20.214V16.338A2.525,2.525,0,0,1,22.73,13.8Z" style="fill:#00c800"/><path d="M30.751,29.376c-.045-.083-.064-.125-.091-.18-.011-.037-.023-.073-.035-.109a5.7,5.7,0,0,0-.247-.644l-.035-.1-.135-.4,0-.013-.043-.13c-.04-.128-.082-.247-.124-.368l-.11-.325-.009-.03-.05-.145-1.008-3-.11.046h0l-1.359.586h-.013l-.032.013v.013l.005.029c.011.078.039.258.072.5l-1.283-.29h0l-.126-.026s-.579,2.68-.8,3.749c-.027.117-.052.236-.073.355,0,.028-.009.048-.01.061-.011.051-.021.1-.032.15l-.092.435c-.008.038-.016.072-.024.112a5.783,5.783,0,0,0-.181.7c-.011.058-.029.144-.045.228a3.411,3.411,0,0,0-.131.326c-.01.023-.019.046-.031.069l.007,0L24.594,31c.059-.043.118-.088.176-.132.12-.086.234-.177.362-.256l.01-.006.088-.072.023-.018a5.756,5.756,0,0,1,.652-.427l.072-.06.239-.191.1.083.115.092a7.054,7.054,0,0,1,.634.409c.057.045.113.094.166.145.149.127.327.244.473.39-.016-.145-.032-.306-.059-.45,0-.072,0-.144,0-.222,0-.222-.008-.441-.009-.662v-.117c.008-.333.018-.7.026-1.073l0-.161h0c.006-.266.018-.761.02-.8,0-.153.008-.3.012-.449.026.174.052.344.076.507h0l.01.072c.017.115.034.226.05.329.04.262.078.516.113.753l.006.031c0,.038.011.072.017.113.025.212.045.425.072.639.01.072.02.145.032.213.01.132.01.278.01.409.1-.117.21-.247.311-.369h0a.31.31,0,0,0,.073-.076,5.406,5.406,0,0,1,.635-.631l.091-.107.083-.1.237.145L29.6,29c.145.06.289.124.429.2.035.018.073.04.118.066.016.009.063.035.109.058.207.114.435.218.645.332C30.845,29.564,30.812,29.462,30.751,29.376Z" style="fill:#d7d8da"/><path d="M27.482,23.792s.152,1.118.325,2.395c.009.055.017.111.029.168a2.273,2.273,0,0,1,.085.676c.008.057.015.113.023.17.054.394.106.778.153,1.128,0,.042.011.084.017.124.025.233.043.467.072.7.01.078.02.155.031.234.01.144.01.3.01.449.1-.128.207-.271.307-.406a.29.29,0,0,0,.072-.084,5.777,5.777,0,0,1,.626-.691l.089-.117.082-.106.234.16.072.05a4.558,4.558,0,0,1,.423.217c.034.02.072.045.117.073l.107.064c.2.125.427.237.634.362-.063-.1-.095-.207-.155-.3s-.064-.137-.09-.2c-.011-.04-.023-.08-.034-.12a7.023,7.023,0,0,0-.244-.707l-.034-.114-.134-.442c-.015-.05-.032-.1-.046-.153-.072-.275-.163-.515-.24-.8l-.049-.162-.992-3.29Z" style="fill:url(#a)"/><path d="M28.97,23.077l.992,3.289c.016.055.32,1.061.335,1.112l.133.441.034.115a6.788,6.788,0,0,1,.245.707c.011.04.022.079.034.119.026.06.045.107.089.2s.092.19.14.286c-.207-.111-.415-.24-.618-.348l-.108-.065c-.042-.028-.081-.053-.116-.072-.138-.078-.279-.145-.423-.218l-.073-.05-.234-.16-.081.106-.09.118a5.693,5.693,0,0,0-.625.691.321.321,0,0,1-.072.084c-.1.134-.212.277-.307.405,0-.145,0-.3-.01-.449-.011-.078-.022-.156-.031-.234-.028-.234-.047-.467-.072-.7-.006-.041-.011-.082-.017-.124-.048-.35-.616-4.538-.616-4.538l.1-.047s.175,1.105.369,2.325c.01.055.177,1.113.186,1.167l.166,1.046.016.105a6.254,6.254,0,0,0,.068.82c.153-.3.43-.454.628-.706l.061-.081.242-.324.4.245.083.052c.217.126.476.194.7.32-.078-.2-.17-.408-.245-.615l-.027-.092-.183-.657c-.013-.048-.243-.869-.258-.923l-.92-3.3Z" style="fill:#961b1e"/><path d="M27.513,23.774l.367,2.306c.009.055.175,1.1.185,1.159l.165,1.037.016.105a9.52,9.52,0,0,0,.1.982c.145-.381.48-.543.713-.825l.061-.08.245-.32-.08.015.391.247.082.052a5.635,5.635,0,0,1,.823.419,8.391,8.391,0,0,0-.284-.8c-.017-.06-.034-.123-.052-.189l-.119-.427-.32-1.159-.878-3.173-.124.044.876,3.173c.017.058.307,1.11.321,1.159l.118.427c.018.066.036.13.053.19.073.21.164.415.242.618l.091-.084c-.2-.123-.415-.153-.6-.285-.028-.016-.056-.034-.084-.051l-.471-.3L29.3,27.99l-.03.042-.245.32-.061.079a7.431,7.431,0,0,0-.635.7.207.207,0,0,0,.094.029c-.031-.261.01-.544-.044-.809,0-.034-.011-.072-.016-.1L28.2,27.214c-.008-.054-.144-.937-.157-.993l-.394-2.472Z" style="fill:url(#b)"/><path d="M27.892,24.471s-.026,1.166-.056,2.5a1.77,1.77,0,0,1-.011.177,2.253,2.253,0,0,0-.009.705c0,.058,0,.118,0,.176-.01.411-.019.813-.027,1.178v.129c0,.241.01.483.008.724,0,.081,0,.162,0,.244.027.157.043.332.059.493-.145-.16-.319-.29-.466-.428-.052-.055-.106-.108-.163-.158a6.708,6.708,0,0,0-.625-.448l-.113-.1-.1-.091-.235.21-.072.065a5.8,5.8,0,0,0-.642.47l-.109.1c-.184.129-.362.29-.536.435.048-.145.1-.3.161-.45.015-.091.032-.186.044-.251a6.916,6.916,0,0,1,.178-.766c.007-.041.015-.082.023-.123.029-.153.06-.311.091-.475.011-.054.021-.109.031-.165.04-.29.113-.593.163-.856l.033-.176c.333-1.75.673-3.539.673-3.539Z" style="fill:url(#c)"/><path d="M26.177,24.042s-.829,4.279-.869,4.571c-.011.055-.021.111-.031.165-.032.164-.062.323-.091.475-.008.041-.016.082-.023.123a6.747,6.747,0,0,0-.178.766c-.012.065-.029.16-.045.251-.064.145-.1.29-.16.435.192-.128.352-.29.536-.417.042-.038.083-.072.108-.1a5.762,5.762,0,0,1,.642-.469l.073-.066.234-.21.1.092.113.1a6.708,6.708,0,0,1,.625.448c.057.05.111.1.163.158.145.14.322.268.466.428-.016-.16-.032-.336-.058-.493,0-.082.005-.163.005-.244,0-.243-.008-.485-.009-.724v-.129c.008-.362.017-.767.027-1.177,0-.059.021-1,.024-1.058.029-1.331.055-2.5.055-2.5l-.115-.027s-.054,1.159-.113,2.435c0,.058-.055,1.166-.057,1.223-.018.4-.035.774-.051,1.1l0,.11a5.977,5.977,0,0,1,.029.846c-.205-.274-.527-.375-.774-.591l-.076-.073-.306-.281-.4.329-.084.069c-.223.171-.5.29-.724.466.06-.222.134-.449.191-.673,0-.033.011-.066.017-.1.035-.209.072-.447.119-.7.008-.052.156-.931.166-.989.281-1.666.6-3.537.6-3.537Z" style="fill:#961b1e"/><path d="M27.855,24.459s-.054,1.149-.113,2.416c0,.058-.055,1.159-.057,1.213-.019.394-.036.768-.051,1.087a.8.8,0,0,1,0,.109,9.343,9.343,0,0,1,.015,1.018c-.207-.357-.593-.455-.882-.7l-.077-.068-.307-.276h.088l-.4.328-.082.068a7.109,7.109,0,0,0-.848.592,8.616,8.616,0,0,1,.212-.87c.011-.064.022-.132.033-.2l.073-.458.027-.165a4.925,4.925,0,0,1,.178-1.078c.269-1.625.562-3.4.562-3.4l.145.021-.562,3.4c-.011.063-.16.761-.178,1.078l-.027.165-.073.457-.033.2c-.054.228-.128.455-.188.677l-.109-.067c.2-.165.434-.24.623-.41.029-.023.058-.047.085-.073l.478-.4.047-.038.042.038.308.276.076.073a7.306,7.306,0,0,1,.781.587.261.261,0,0,1-.1.048c0-.272-.078-.551-.054-.83a.67.67,0,0,1,.006-.109c.015-.319.033-.692.051-1.087l.008-.17a6.467,6.467,0,0,1,.04-.869c.063-1.335.122-2.59.122-2.59Z" style="fill:url(#d)"/><path d="M26.98,25.519a1.3,1.3,0,0,0,1.345.23c.558-.132.623-.493,1.015-.755.328-.2.688-.033.853-.428.1-.295-.131-.657.065-.952.23-.428.623-.428.656-.985.033-.592-.426-.657-.59-1.052-.2-.362.065-.591-.23-.952a4.361,4.361,0,0,0-1.57-1.2c-.492-.1-.89.376-1.415.343s-.958-.464-1.483-.267c-.951.394-.452,1.548-.747,2.3a1.733,1.733,0,0,0,.031,1.973,8.19,8.19,0,0,0,.527,1.082c.328.525.689.3,1.18.427A.888.888,0,0,1,26.98,25.519Z" style="fill:url(#e)"/><path d="M26.97,25.429a1.269,1.269,0,0,0,1.315.225c.545-.129.609-.482.994-.74.321-.193.674-.032.834-.418.1-.29-.128-.643.064-.933.224-.418.61-.418.642-.966.032-.579-.417-.643-.58-1.029-.192-.353.065-.579-.224-.933a4.265,4.265,0,0,0-1.572-1.126c-.481-.1-.834.321-1.348.289s-.9-.418-1.411-.225c-.93.386-.481,1.48-.77,2.22a1.7,1.7,0,0,0,.1,1.931,8.045,8.045,0,0,0,.449,1.062c.321.514.673.289,1.154.418A.866.866,0,0,1,26.97,25.429Z" style="fill:url(#f)"/><circle cx="27.666" cy="22.554" r="2.448" style="fill:url(#g)"/><path d="M30.23,21.8c-.035-.115-.035-.242-.073-.369a1.092,1.092,0,0,0-.256-.393,1.685,1.685,0,0,0-.385-.427c-.151-.116-.256-.3-.419-.37a2.6,2.6,0,0,1-.385-.173,3.149,3.149,0,0,0-.384-.254,2.809,2.809,0,0,0-1.03.02c-.676.1-1.48.1-1.852.657a6.716,6.716,0,0,0-.38,1.056,3.186,3.186,0,0,0-.163.808h0a3.312,3.312,0,0,0,.047,1.074c.117.463.536.717.839,1.063a3.162,3.162,0,0,0,.746.612c.279.185.623.5.949.5a3.47,3.47,0,0,0,.849-.184,2.325,2.325,0,0,0,.87-.522c.278-.2.566-.145.73-.417s-.056-.4.321-1.2a1.633,1.633,0,0,0,.187-.693A2.088,2.088,0,0,0,30.23,21.8Zm-2.564,3.315a2.535,2.535,0,1,1,2.558-2.535A2.534,2.534,0,0,1,27.666,25.116Z" style="fill:url(#h)"/><circle cx="27.666" cy="22.554" r="2.4" style="fill:url(#i)"/><circle cx="27.666" cy="22.554" r="2.181" style="fill:url(#j)"/><circle cx="27.666" cy="22.554" r="2.138" style="fill:url(#k)"/><path d="M30.04,21.824c-.033-.107-.033-.226-.065-.345a1.025,1.025,0,0,0-.238-.367,1.59,1.59,0,0,0-.355-.4c-.141-.108-.238-.28-.389-.345a2.581,2.581,0,0,1-.355-.162,2.833,2.833,0,0,0-.357-.237,2.525,2.525,0,0,0-.949-.022,2.242,2.242,0,0,0-1.553.918,4.666,4.666,0,0,0-.518.725,3,3,0,0,0-.152.755h0a3.134,3.134,0,0,0,.044,1c.108.434.5.669.777.992a2.958,2.958,0,0,0,.69.571,1.491,1.491,0,0,0,.816.325,4.109,4.109,0,0,0,.9-.1,2.144,2.144,0,0,0,.813-.471c.252-.179.529-.117.887-1.1a4.687,4.687,0,0,0,.2-1.009A1.953,1.953,0,0,0,30.04,21.824Zm-2.374,3.1a2.369,2.369,0,1,1,2.368-2.369,2.369,2.369,0,0,1-2.368,2.369Z" style="fill:url(#l)"/><path d="M25.7,19.6s.236-.161.751.039a1.535,1.535,0,0,0,.418.129.582.582,0,0,1-.519-.014A1.525,1.525,0,0,0,25.7,19.6Z" style="fill:#f48e84"/><path d="M27.638,19.727s.579-.316.877-.155a.814.814,0,0,0-.476.027A1.6,1.6,0,0,1,27.638,19.727Z" style="fill:#fadae8"/><path d="M25.269,21.069a1.322,1.322,0,0,1,.278-.644A1.4,1.4,0,0,1,26.423,20a4.025,4.025,0,0,0-.749.373,1.038,1.038,0,0,0-.263.349C25.4,20.741,25.345,20.865,25.269,21.069Z" style="fill:#9b1d20"/><path d="M26.724,20.134A2.708,2.708,0,0,1,28.286,20s.272.15,0,.1a1.715,1.715,0,0,0-.738-.1,2.572,2.572,0,0,0-.807.182S26.681,20.177,26.724,20.134Z" style="fill:#54000d"/><path d="M30.13,24.125s.08.438-.187.593-.3.081-.3.081a.476.476,0,0,0,.368-.2A.79.79,0,0,0,30.13,24.125Z" style="fill:#ca4849"/><path d="M24.764,22.323a1.531,1.531,0,0,0,.15,1.208l-.144-.507A1.523,1.523,0,0,1,24.764,22.323Z" style="fill:#f8cce0"/><path d="M25.5,24.777a.729.729,0,0,0,.6.342A.52.52,0,0,1,25.5,24.777Z" style="fill:#f9d0e2"/><path d="M29.309,24.614s.079.017.247-.125a2.45,2.45,0,0,0,.306-.389,3.517,3.517,0,0,1-.29.413C29.519,24.56,29.39,24.654,29.309,24.614Z" style="fill:#651116"/><path d="M30.428,21.88a.748.748,0,0,1,.362.609.962.962,0,0,0-.285-.507S30.337,21.867,30.428,21.88Z" style="fill:#fadae8"/><path d="M30.125,21.125a.6.6,0,0,0-.218-.545A.752.752,0,0,1,30.125,21.125Z" style="fill:#fadae8"/><path d="M30.381,22.742c-.024.181-.088.431-.088.431a1.407,1.407,0,0,0,.121-.623C30.389,22.437,30.406,22.555,30.381,22.742Z" style="fill:#b12328"/><path d="M28,25.677a1.424,1.424,0,0,0,.668-.246,2.5,2.5,0,0,1-.379.166C28.215,25.6,28.007,25.646,28,25.677Z" style="fill:#db726f"/><path d="M27.8,25.159a1.878,1.878,0,0,0,.931-.246A2.162,2.162,0,0,1,27.8,25.159Z" style="fill:#f8c9dd"/><path d="M28.26,25.322a2.181,2.181,0,0,1-.556.078c-.117,0-.46-.107-.018-.1a5.271,5.271,0,0,0,.719-.1l.251-.094C28.794,25.13,28.539,25.246,28.26,25.322Z" style="fill:#651116"/></svg>