<svg viewBox="0 0 32 32" xmlns="http://www.w3.org/2000/svg"><path d="m27.5 5.5h-9.3l-2.1 4.2h-11.7v16.8h25.2v-21zm0 4.2h-8.2l1.1-2.1h7.1z" fill="#bf8a55"/><path d="m20.5 12.625-7.875 7.875 7.875 7.875 7.875-7.875z" fill="#f68712"/><path d="m10 10 10.5 2.625-7.875 7.875z" fill="#fab20b"/><path d="m31 10-2.625 10.5-7.875-7.875z" fill="#f47216"/><path d="m31 31-10.5-2.625 7.875-7.875z" fill="#f25c19"/><path d="m10 31 2.625-10.5 7.875 7.875z" fill="#f89c0e"/><path d="m20.5 12.625-10.5-2.625h5.25z" fill="#fbc707"/><path d="m20.5 12.625 10.5-2.625h-5.25z" fill="#fbc707"/><path d="m20.5 28.375 10.5 2.625h-5.25z" fill="#f68712"/><path d="m20.5 28.375-10.5 2.625h5.25z" fill="#f25c19"/><path d="m12.625 20.5-2.625 10.5v-5.25z" fill="#fff200"/><path d="m12.625 20.5-2.625-10.5v5.25z" fill="#fff200"/><g fill="#f1471d"><path d="m28.375 20.5 2.625-10.5v5.25z"/><path d="m28.375 20.5 2.625 10.5v-5.25z"/></g></svg>