<svg viewBox="0 0 32 32" xmlns="http://www.w3.org/2000/svg"><path d="m27.5 5.5h-9.3l-2.1 4.2h-11.7v16.8h25.2v-21zm0 4.2h-8.2l1.1-2.1h7.1z" fill="#bf8e55"/><path d="m29.025 14.38h-17.051a1.978 1.978 0 0 0 -1.974 1.974v12.675a1.978 1.978 0 0 0 1.974 1.971h17.051a1.978 1.978 0 0 0 1.975-1.974v-12.672a1.979 1.979 0 0 0 -1.975-1.974z" fill="#675f58"/><path d="m29.925 29.026a.905.905 0 0 1 -.9.9h-17.051a.905.905 0 0 1 -.9-.9v-11.406h18.85v11.406z" fill="#ccc"/><g fill="#ff931e"><path d="m14.9 24.446h2.8v2.8h-2.8z"/><path d="m14.9 20.246h2.8v2.801h-2.8z"/><path d="m19.1 20.246h2.8v2.801h-2.8z"/><path d="m23.3 20.246h2.8v2.801h-2.8z"/><path d="m19.1 24.446h2.8v2.8h-2.8z"/><path d="m23.3 24.446h2.8v2.8h-2.8z"/></g></svg>