<svg xmlns="http://www.w3.org/2000/svg" viewBox="0 0 32 32"><title>folder_type_linux</title><path d="M27.9,6H18.1l-2,4H5V27H30V6Zm.1,4H20.2l1-2H28Z" style="fill:#bfa055"/><path d="M30.346,26.569h0a1.946,1.946,0,0,1-.306-.81,1.59,1.59,0,0,0-.45-.92h0a1.141,1.141,0,0,0-.171-.12,1.071,1.071,0,0,0-.175-.081,4.58,4.58,0,0,0-.158-3.245,10.824,10.824,0,0,0-1.98-3.052,4.522,4.522,0,0,1-1.419-2.954c.021-1.885.215-5.382-3.228-5.387-.14,0-.286.005-.439.017-3.847.3-2.826,4.217-2.883,5.528a4.634,4.634,0,0,1-.96,2.656A13.013,13.013,0,0,0,15.7,22.167a4.577,4.577,0,0,0-.262,2.187c-.035.03-.068.062-.1.094-.236.243-.41.538-.605.736a1.9,1.9,0,0,1-.724.339,1.292,1.292,0,0,0-.787.594h0a1.036,1.036,0,0,0-.118.509,3.152,3.152,0,0,0,.05.485,2.025,2.025,0,0,1,.035.852,1.6,1.6,0,0,0-.1,1.3,1.15,1.15,0,0,0,.855.5,9.363,9.363,0,0,1,2.526.514l.067-.123-.067.124a3.7,3.7,0,0,0,2.38.425,1.536,1.536,0,0,0,1.1-.829c.533,0,1.119-.22,2.056-.27.637-.05,1.431.218,2.347.169a1.147,1.147,0,0,0,.105.275h0a1.719,1.719,0,0,0,1.714.942,3.135,3.135,0,0,0,2.054-1.145l-.111-.09.112.089A7.4,7.4,0,0,1,30.4,28.524a.993.993,0,0,0,.6-.743C31.018,27.446,30.814,27.071,30.346,26.569Z" style="fill:#20201f"/><path d="M30.71,27.765c-.013.206-.168.36-.455.526a7.191,7.191,0,0,0-2.238,1.381,2.858,2.858,0,0,1-1.855,1.047,1.4,1.4,0,0,1-1.434-.791h0a2.17,2.17,0,0,1,.049-1.486,9.675,9.675,0,0,0,.423-1.667h0a8.552,8.552,0,0,1,.177-1.587,1.23,1.23,0,0,1,.583-.864L26,24.3a1.257,1.257,0,0,0,.8,1.209,2.024,2.024,0,0,0,1.634-.669l.191-.007a1.029,1.029,0,0,1,.771.216h0a1.422,1.422,0,0,1,.357.771,1.984,1.984,0,0,0,.372.933h0C30.578,27.234,30.722,27.558,30.71,27.765ZM19.818,29.293h0A1.186,1.186,0,0,1,18.8,30.437a3.45,3.45,0,0,1-2.181-.4h0a8.838,8.838,0,0,0-2.6-.541.876.876,0,0,1-.657-.358,1.394,1.394,0,0,1,.111-1.082v-.005a2.065,2.065,0,0,0-.024-.982,1.351,1.351,0,0,1,.038-.822h0a.982.982,0,0,1,.63-.462,2.023,2.023,0,0,0,.832-.406h0c.231-.235.4-.529.608-.738a.8.8,0,0,1,.6-.3h.009a.875.875,0,0,1,.144.012,1.487,1.487,0,0,1,.93.657l.832,1.461h0a10.028,10.028,0,0,0,1.085,1.435A2.319,2.319,0,0,1,19.818,29.293Zm4.147-13.621a.794.794,0,0,0-.436-.338h0a7.111,7.111,0,0,1-.962-.383,2.084,2.084,0,0,0-1.1-.365,1.332,1.332,0,0,0-.425.069,2.091,2.091,0,0,0-.763.515h0c-.03.027-.068.052-.162.118s-.235.166-.438.313a.418.418,0,0,0-.177.5,1.215,1.215,0,0,0,.625.627h0a4.529,4.529,0,0,1,.557.438,1.259,1.259,0,0,0,.295.176,1.209,1.209,0,0,0,.407.086,1.612,1.612,0,0,0,.919-.227,4.226,4.226,0,0,1,.706-.383h0a1.468,1.468,0,0,0,.967-.74A.474.474,0,0,0,23.965,15.672Z" style="fill:#fdbb14"/><path d="M28.782,24.555h-.177c.136-.415-.165-.721-.969-1.072-.834-.355-1.5-.32-1.611.4-.007.037-.013.076-.017.114a1.253,1.253,0,0,0-.188.081,1.513,1.513,0,0,0-.724,1.041,8.673,8.673,0,0,0-.186,1.638h0a6.2,6.2,0,0,1-.29,1.187,4.326,4.326,0,0,1-4.872.287c-.109-.166-.234-.331-.363-.493-.083-.1-.167-.207-.251-.309a1.058,1.058,0,0,0,.419-.075.529.529,0,0,0,.29-.288,1.134,1.134,0,0,0-.315-1.024A5.693,5.693,0,0,0,17.9,24.708h0a2.245,2.245,0,0,1-1.046-1.225,2.657,2.657,0,0,1-.014-1.445A8.448,8.448,0,0,1,18,19.612c.1-.07.035.129-.369.853-.362.661-1.04,2.188-.112,3.381a6.907,6.907,0,0,1,.587-2.523c.514-1.123,1.59-3.07,1.675-4.623.044.031.2.13.263.167h0a4.88,4.88,0,0,1,.537.424,1.351,1.351,0,0,0,.8.3h.1a1.829,1.829,0,0,0,.909-.252,4.843,4.843,0,0,1,.674-.369h0a1.816,1.816,0,0,0,.949-.615,20.736,20.736,0,0,0,1.583,3.927,8.96,8.96,0,0,1,1,2.65,1.745,1.745,0,0,1,.466.057,3.5,3.5,0,0,0-.992-3.481c-.2-.187-.21-.27-.11-.266a5.013,5.013,0,0,1,1.5,2.418,2.986,2.986,0,0,1,.017,1.464c.061.024.124.051.187.08C28.6,23.647,28.949,24.031,28.782,24.555ZM24.009,14.236a1.53,1.53,0,0,1-.139.672,1.328,1.328,0,0,1-.2.314c-.026-.012-.053-.023-.081-.034-.1-.04-.182-.073-.259-.1s-.136-.047-.2-.067c.045-.053.133-.114.165-.191a.953.953,0,0,0,.079-.365v-.017a.965.965,0,0,0-.054-.354.645.645,0,0,0-.17-.276.351.351,0,0,0-.242-.107H22.9a.367.367,0,0,0-.236.09.652.652,0,0,0-.19.264.982.982,0,0,0-.079.366v.016a1.136,1.136,0,0,0,.016.21,2.818,2.818,0,0,0-.553-.181,1.924,1.924,0,0,1-.016-.2v-.019a1.523,1.523,0,0,1,.138-.672,1.2,1.2,0,0,1,.391-.5.88.88,0,0,1,.539-.185h.01a.882.882,0,0,1,.533.175,1.182,1.182,0,0,1,.4.488,1.5,1.5,0,0,1,.151.651.054.054,0,0,0,0,.018Zm-2.948.246-.076.023a1.547,1.547,0,0,0-.357.166.941.941,0,0,0,0-.225v-.013a.986.986,0,0,0-.074-.288.554.554,0,0,0-.151-.213.25.25,0,0,0-.167-.068h-.018a.239.239,0,0,0-.172.1.536.536,0,0,0-.109.234.892.892,0,0,0-.021.309v.012a.886.886,0,0,0,.074.29.54.54,0,0,0,.151.212.355.355,0,0,0,.031.023c-.064.048-.107.082-.16.119l-.121.085a1.05,1.05,0,0,1-.251-.36,1.541,1.541,0,0,1-.139-.573h0a1.531,1.531,0,0,1,.07-.586.984.984,0,0,1,.26-.439.561.561,0,0,1,.38-.177h.033a.571.571,0,0,1,.366.134,1.022,1.022,0,0,1,.31.408,1.536,1.536,0,0,1,.139.574h0a1.809,1.809,0,0,1,0,.255Z" style="fill:#fff"/><path d="M22.7,16.382a3.1,3.1,0,0,1-1.355.442,1.906,1.906,0,0,1-1.164-.434c-.14-.107-.254-.213-.34-.291-.149-.113-.131-.272-.07-.267.1.012.118.142.183.2.087.079.2.181.329.283a1.741,1.741,0,0,0,1.062.4,3,3,0,0,0,1.273-.42,6.787,6.787,0,0,0,.59-.4c.142-.1.137-.221.254-.208s.03.134-.134.272A3.544,3.544,0,0,1,22.7,16.382Zm-.986-1.391c.017.051.1.043.151.067s.078.068.126.07.118-.016.124-.06-.08-.095-.137-.117a.3.3,0,0,0-.236,0c-.016.008-.033.028-.028.044Zm-.5,0c-.016.051-.1.043-.15.067s-.078.068-.126.07-.119-.016-.125-.06.081-.095.138-.117a.3.3,0,0,1,.236,0c.015.008.033.028.027.044Z" style="fill:#20201f"/></svg>