<svg viewBox="0 0 32 32" xmlns="http://www.w3.org/2000/svg"><path d="m27.5 5.5h-9.3l-2.1 4.2h-11.7v16.8h25.2v-21zm0 4.2h-8.2l1.1-2.1h7.1z" fill="#c09553"/><path d="m31 17.672v-.009l-2.43-1.941a1.075 1.075 0 0 1 -.085-.149 2.146 2.146 0 0 0 -.642-.732 3.167 3.167 0 0 0 -.973-.476l-1.12-.894c-.8-.637-1.6-1.279-2.4-1.914-.057-.041-.078-.122-.113-.186a2.146 2.146 0 0 0 -.642-.732 3.533 3.533 0 0 0 -1.977-.639h-.218a3.542 3.542 0 0 0 -1.984.629 2.178 2.178 0 0 0 -.639.711c-.033.059-.056.126-.093.182a1.189 1.189 0 0 1 -.134.112l-2.3 1.833-1.122.9a3.186 3.186 0 0 0 -.959.468 2.178 2.178 0 0 0 -.639.711c-.03.053-.053.113-.084.165l-2.446 1.951v.007l5.251 4.193v.009l5.249 4.193 5.249-4.19v-.012zm-2.692 1.006a2.619 2.619 0 0 1 -.913.726 3.733 3.733 0 0 1 -1.644.365 3.668 3.668 0 0 1 -1.587-.335 2.464 2.464 0 0 1 -1.118-.975 1.6 1.6 0 0 1 -.215-.836c0-.364-.01-.729.007-1.092.037.089.044.192.081.282a2.1 2.1 0 0 0 .833 1.021 3.657 3.657 0 0 0 2 .575 3.707 3.707 0 0 0 1.96-.549 2.329 2.329 0 0 0 .7-.7 1.75 1.75 0 0 0 .239-.641 1.36 1.36 0 0 1 .011.273v.911a1.666 1.666 0 0 1 -.354.975zm-10.719-6.349c.037.089.044.192.081.282a2.1 2.1 0 0 0 .833 1.021 3.657 3.657 0 0 0 2 .575 3.707 3.707 0 0 0 1.96-.549 2.329 2.329 0 0 0 .7-.7 1.75 1.75 0 0 0 .239-.641 1.36 1.36 0 0 1 .011.273v.911a1.666 1.666 0 0 1 -.357.979 2.619 2.619 0 0 1 -.913.726 3.733 3.733 0 0 1 -1.644.365 3.668 3.668 0 0 1 -1.587-.335 2.464 2.464 0 0 1 -1.118-.975 1.6 1.6 0 0 1 -.215-.836c.007-.368-.008-.733.01-1.096zm-2.338 7.44a3.668 3.668 0 0 1 -1.587-.335 2.464 2.464 0 0 1 -1.118-.975 1.6 1.6 0 0 1 -.215-.836c0-.364-.01-.729.007-1.092.037.089.044.192.081.282a2.1 2.1 0 0 0 .833 1.021 3.657 3.657 0 0 0 2 .575 3.707 3.707 0 0 0 1.96-.549 2.329 2.329 0 0 0 .7-.7 1.75 1.75 0 0 0 .239-.641 1.36 1.36 0 0 1 .011.273v.911a1.666 1.666 0 0 1 -.357.979 2.619 2.619 0 0 1 -.913.726 3.733 3.733 0 0 1 -1.641.361zm7.807 3.111a2.619 2.619 0 0 1 -.913.726 3.733 3.733 0 0 1 -1.644.365 3.668 3.668 0 0 1 -1.587-.335 2.464 2.464 0 0 1 -1.118-.975 1.6 1.6 0 0 1 -.215-.836c0-.364-.01-.729.007-1.092.037.089.044.192.081.282a2.1 2.1 0 0 0 .833 1.021 3.657 3.657 0 0 0 2 .575 3.707 3.707 0 0 0 1.96-.549 2.329 2.329 0 0 0 .7-.7 1.75 1.75 0 0 0 .239-.641 1.36 1.36 0 0 1 .011.273v.911a1.666 1.666 0 0 1 -.354.975z" fill="#f1c40f"/><g fill="#f39c12"><path d="m22.145 15.2a2.619 2.619 0 0 0 .913-.726 1.666 1.666 0 0 0 .357-.979c0-.3 0-.607 0-.911a1.36 1.36 0 0 0 -.011-.273 1.75 1.75 0 0 1 -.239.641 2.329 2.329 0 0 1 -.7.7 3.707 3.707 0 0 1 -1.96.549v1.36a3.733 3.733 0 0 0 1.64-.361z"/><path d="m16.895 19.4a2.619 2.619 0 0 0 .913-.726 1.666 1.666 0 0 0 .357-.979c0-.3 0-.607 0-.911a1.36 1.36 0 0 0 -.011-.273 1.75 1.75 0 0 1 -.239.641 2.329 2.329 0 0 1 -.7.7 3.707 3.707 0 0 1 -1.96.549v1.36a3.733 3.733 0 0 0 1.64-.361z"/><path d="m28.654 16.515a1.75 1.75 0 0 1 -.239.641 2.329 2.329 0 0 1 -.7.7 3.707 3.707 0 0 1 -1.96.549v1.36a3.733 3.733 0 0 0 1.644-.365 2.619 2.619 0 0 0 .913-.726 1.666 1.666 0 0 0 .357-.979c0-.3 0-.607 0-.911a1.36 1.36 0 0 0 -.015-.269z"/><path d="m23.4 20.717a1.75 1.75 0 0 1 -.239.641 2.329 2.329 0 0 1 -.7.7 3.707 3.707 0 0 1 -1.96.549v1.36a3.733 3.733 0 0 0 1.644-.365 2.619 2.619 0 0 0 .913-.726 1.666 1.666 0 0 0 .357-.979c0-.3 0-.607 0-.911a1.36 1.36 0 0 0 -.015-.269z"/><path d="m20.501 26.064-.001 4.936 10.5-8.395v-4.932z"/></g><path d="m18.914 15.231a3.668 3.668 0 0 0 1.587.335c0-.453 0-.907 0-1.36a3.657 3.657 0 0 1 -2-.575 2.1 2.1 0 0 1 -.833-1.021c-.037-.09-.044-.193-.081-.282-.017.363 0 .728-.007 1.092a1.6 1.6 0 0 0 .215.836 2.464 2.464 0 0 0 1.119.975z" fill="#e67e22"/><path d="m13.252 17.834a2.1 2.1 0 0 1 -.833-1.021c-.037-.09-.044-.193-.081-.282-.017.363 0 .728-.007 1.092a1.6 1.6 0 0 0 .215.836 2.464 2.464 0 0 0 1.118.975 3.668 3.668 0 0 0 1.587.335c0-.453 0-.907 0-1.36a3.657 3.657 0 0 1 -1.999-.575z" fill="#e67e22"/><path d="m23.752 17.834a2.1 2.1 0 0 1 -.833-1.021c-.037-.09-.044-.193-.081-.282-.017.363 0 .728-.007 1.092a1.6 1.6 0 0 0 .215.836 2.464 2.464 0 0 0 1.118.975 3.668 3.668 0 0 0 1.587.335c0-.453 0-.907 0-1.36a3.657 3.657 0 0 1 -1.999-.575z" fill="#e67e22"/><path d="m18.5 22.036a2.1 2.1 0 0 1 -.833-1.021c-.037-.09-.044-.193-.081-.282-.017.363 0 .728-.007 1.092a1.6 1.6 0 0 0 .215.836 2.464 2.464 0 0 0 1.118.975 3.668 3.668 0 0 0 1.587.335c0-.453 0-.907 0-1.36a3.657 3.657 0 0 1 -1.999-.575z" fill="#e67e22"/><path d="m15.25 21.871v-.009l-5.25-4.193v4.937c1.75 1.4 5.25 4.192 5.25 4.192v.01c1.75 1.402 5.25 4.192 5.25 4.192v-4.936z" fill="#e67e22"/></svg>