<svg viewBox="0 0 32 32" xmlns="http://www.w3.org/2000/svg" xmlns:xlink="http://www.w3.org/1999/xlink"><radialGradient id="a" cx="16.304" cy="21.819" gradientUnits="userSpaceOnUse" r="13.788"><stop offset="0" stop-color="#fff"/><stop offset=".5" stop-color="#4c6b96"/><stop offset="1" stop-color="#231f20"/></radialGradient><path d="m27.4 5.5h-9.2l-2.1 4.2h-11.8v16.8h25.2v-21zm0 18.7h-20.8v-12.4h20.8zm0-14.5h-8.2l1-2.1h7.1v2.1z" fill="#7a9edd"/><path d="m25.7 13.7h-25.2l3.8 12.8h25.2z" fill="#7a9edd"/><ellipse cx="20.5" cy="25.4" fill="url(#a)" rx="10.5" ry="5.523"/><ellipse cx="20.5" cy="25.4" fill="#6280b6" rx="10.09" ry="5.113"/><path d="m22.544 27.053.5-2.576a1.314 1.314 0 0 0 -.279-1.289 2.2 2.2 0 0 0 -1.5-.394h-.865l.248-1.276a.164.164 0 0 0 -.161-.2h-1.2a.164.164 0 0 0 -.161.133l-.526 2.738a1.538 1.538 0 0 0 -.358-.79 2.087 2.087 0 0 0 -1.65-.605h-2.32a.164.164 0 0 0 -.161.133l-1.076 5.535a.164.164 0 0 0 .161.2h1.204a.164.164 0 0 0 .161-.133l.26-1.339h.9a3.875 3.875 0 0 0 1.176-.152 2.3 2.3 0 0 0 .863-.517 2.654 2.654 0 0 0 .51-.633l-.215 1.106a.164.164 0 0 0 .161.2h1.2a.164.164 0 0 0 .161-.133l.59-3.038h.821c.35 0 .452.07.48.1s.078.124.019.427l-.476 2.449a.164.164 0 0 0 .161.2h1.215a.164.164 0 0 0 .157-.146zm-5.544-2.129a1.312 1.312 0 0 1 -.421.819 1.628 1.628 0 0 1 -.986.241h-.534l.384-1.984h.691c.508 0 .712.109.794.2a.886.886 0 0 1 .072.724z" fill="#fff"/><path d="m27.66 23.4a2.087 2.087 0 0 0 -1.65-.605h-2.319a.164.164 0 0 0 -.161.133l-1.076 5.535a.164.164 0 0 0 .161.2h1.206a.164.164 0 0 0 .161-.133l.26-1.339h.9a3.875 3.875 0 0 0 1.176-.152 2.3 2.3 0 0 0 .863-.517 2.569 2.569 0 0 0 .807-1.445 1.884 1.884 0 0 0 -.328-1.677zm-1.251 1.525a1.312 1.312 0 0 1 -.421.819 1.628 1.628 0 0 1 -.986.241h-.534l.386-1.985h.691c.508 0 .712.109.794.2a.886.886 0 0 1 .07.724z" fill="#fff"/><g fill="#000004"><path d="m16.134 23.831a1.234 1.234 0 0 1 .916.254 1 1 0 0 1 .109.871 1.459 1.459 0 0 1 -.482.917 1.771 1.771 0 0 1 -1.086.275h-.733l.45-2.317zm-2.934 4.662h1.2l.286-1.472h1.034a3.7 3.7 0 0 0 1.125-.144 2.13 2.13 0 0 0 .8-.482 2.4 2.4 0 0 0 .757-1.356 1.723 1.723 0 0 0 -.289-1.533 1.926 1.926 0 0 0 -1.526-.549h-2.315z"/><path d="m19.291 21.486h1.2l-.291 1.472h1.066a2.075 2.075 0 0 1 1.388.351 1.161 1.161 0 0 1 .229 1.137l-.5 2.576h-1.215l.476-2.449a.665.665 0 0 0 -.06-.57.841.841 0 0 0 -.6-.152h-.956l-.616 3.171h-1.2z"/><path d="m25.545 23.831a1.234 1.234 0 0 1 .916.254 1 1 0 0 1 .109.871 1.459 1.459 0 0 1 -.482.917 1.771 1.771 0 0 1 -1.088.275h-.733l.45-2.317zm-2.938 4.662h1.206l.286-1.472h1.033a3.7 3.7 0 0 0 1.125-.144 2.13 2.13 0 0 0 .8-.482 2.4 2.4 0 0 0 .757-1.356 1.723 1.723 0 0 0 -.289-1.533 1.926 1.926 0 0 0 -1.525-.548h-2.317z"/></g></svg>