<svg viewBox="0 0 32 32" xmlns="http://www.w3.org/2000/svg"><path d="m27.5 5.5h-9.3l-2.1 4.2h-11.7v16.8h25.2v-21zm0 4.2h-8.2l1.1-2.1h7.1z" fill="#c18053"/><g fill="#59c2f2"><path d="m13.065 26.488-.383-.365v-.753a4.479 4.479 0 0 0 5.557 0v.753l-.383.365a3.471 3.471 0 0 1 -4.791 0z"/><path d="m12.682 23.9v-10.9a4.029 4.029 0 0 0 5.557 0v10.9l-.383.365a3.471 3.471 0 0 1 -4.791 0zm1.111-6.455h3.334v-1.111h-3.334z"/><path d="m15.46 28.559a4.566 4.566 0 0 1 -2.778-.966v2.077a4.029 4.029 0 0 0 5.557 0v-2.077a4.567 4.567 0 0 1 -2.779.966z"/></g><path d="m23.968 26.488.383-.365v-.753a4.479 4.479 0 0 1 -5.557 0v.753l.383.365a3.471 3.471 0 0 0 4.791 0z" fill="#8abf4f"/><path d="m18.794 23.9v-10.9a4.029 4.029 0 0 0 5.557 0v10.9l-.383.365a3.471 3.471 0 0 1 -4.791 0zm1.111-6.455h3.335v-1.111h-3.334z" fill="#8abf4f"/><path d="m21.573 28.559a4.566 4.566 0 0 1 -2.778-.966v2.077a4.029 4.029 0 0 0 5.557 0v-2.077a4.567 4.567 0 0 1 -2.779.966z" fill="#8abf4f"/><path d="m30.081 26.488.383-.365v-.753a4.479 4.479 0 0 1 -5.557 0v.753l.383.365a3.471 3.471 0 0 0 4.791 0z" fill="#b533a5"/><path d="m24.907 23.9v-10.9a4.029 4.029 0 0 0 5.557 0v10.9l-.383.365a3.471 3.471 0 0 1 -4.791 0zm1.111-6.455h3.334v-1.111h-3.334z" fill="#b533a5"/><path d="m27.685 28.559a4.565 4.565 0 0 1 -2.778-.966v2.077a4.029 4.029 0 0 0 5.557 0v-2.077a4.567 4.567 0 0 1 -2.779.966z" fill="#b533a5"/></svg>