<svg viewBox="0 0 32 32" xmlns="http://www.w3.org/2000/svg"><path d="m27.5 5.5h-9.3l-2.1 4.2h-11.7v16.8h25.2v-21zm0 4.2h-8.2l1.1-2.1h7.1z" fill="#809136"/><g fill="#aac148"><path d="m27.621 16.469h-10.845a.437.437 0 0 0 -.437.437v9.094a.437.437 0 0 0 .437.437h1.934v3.063a1.288 1.288 0 0 0 1.29 1.29 1.288 1.288 0 0 0 1.285-1.29v-3.063h1.8v3.063a1.288 1.288 0 0 0 1.288 1.288 1.288 1.288 0 0 0 1.288-1.288v-3.063h1.96a.437.437 0 0 0 .437-.437v-9.095a.437.437 0 0 0 -.437-.436z"/><path d="m14.5 16.466a1.288 1.288 0 0 0 -1.288 1.288v5.23a1.288 1.288 0 0 0 1.288 1.288 1.288 1.288 0 0 0 1.288-1.288v-5.23a1.288 1.288 0 0 0 -1.288-1.288z"/><path d="m29.894 16.466a1.288 1.288 0 0 0 -1.288 1.288v5.23a1.288 1.288 0 0 0 1.288 1.288 1.288 1.288 0 0 0 1.288-1.288v-5.23a1.288 1.288 0 0 0 -1.288-1.288z"/><path d="m16.864 15.831h10.644a.437.437 0 0 0 .428-.528 5.884 5.884 0 0 0 -2.87-3.909l.91-1.642a.23.23 0 0 0 -.4-.223l-.917 1.654a5.889 5.889 0 0 0 -4.94 0l-.919-1.654a.23.23 0 1 0 -.4.223l.91 1.642a5.884 5.884 0 0 0 -2.87 3.909.437.437 0 0 0 .424.528zm8.5-2.447a.495.495 0 1 1 -.495-.495.495.495 0 0 1 .493.495zm-5.864-.495a.495.495 0 1 1 -.495.495.495.495 0 0 1 .495-.495z"/></g></svg>