<svg viewBox="0 0 32 32" xmlns="http://www.w3.org/2000/svg"><path d="m27.4 5.5h-9.2l-2.1 4.2h-11.8v16.8h25.2v-21zm0 18.7h-20.8v-12.4h20.8zm0-14.5h-8.2l1-2.1h7.1v2.1zm-1.7 4h-25.2l3.8 12.8h25.2z" fill="#bfbfbf"/><path d="m16.012 10h11.642a3.137 3.137 0 0 1 1.913.817 4.73 4.73 0 0 1 1.363 2.833c.03.212.048.425.07.639v.368a.7.7 0 0 1 -.306.491 1.2 1.2 0 0 1 -.678.1h-1.637q-.009 6.069 0 12.138a3.573 3.573 0 0 1 -.532 1.888 3.63 3.63 0 0 1 -1.887 1.526 4.35 4.35 0 0 1 -.972.2h-11.068a4.035 4.035 0 0 1 -2.216-.8 4.483 4.483 0 0 1 -1.6-2.7c-.054-.258-.076-.522-.107-.784v-.416a.731.731 0 0 1 .3-.454 1.109 1.109 0 0 1 .639-.1h1.681v-12.14a3.586 3.586 0 0 1 1.127-2.606 3.643 3.643 0 0 1 2.268-1" fill="#333"/><path d="m14.092 12.777a4.566 4.566 0 0 0 -.154 1.653v11.318c2.434.006 4.868 0 7.3 0a.651.651 0 0 1 .587.433 3.05 3.05 0 0 1 .051.572 3.415 3.415 0 0 0 1.038 2.278 2.664 2.664 0 0 0 1.806.652 2.3 2.3 0 0 0 2.338-2.252v-13.542a1.917 1.917 0 0 1 .03-.466 4.581 4.581 0 0 1 .569-1.4 2.2 2.2 0 0 1 .673-.719q-6.051-.008-12.1 0a2.307 2.307 0 0 0 -2.138 1.473z" fill="#808080"/><g fill="#333"><path d="m18.008 16.819a.7.7 0 0 1 .607-.258.656.656 0 0 1 .582.722.182.182 0 0 1 -.009.056c-.045.256-.268.415-.437.591-.638.641-1.293 1.265-1.924 1.912.654.666 1.327 1.313 1.986 1.974a1.047 1.047 0 0 1 .375.53.658.658 0 0 1 -.466.761.65.65 0 0 1 -.629-.158c-.885-.865-1.757-1.744-2.64-2.611a.665.665 0 0 1 -.043-.939v-.006q1.3-1.293 2.598-2.574z"/><path d="m21.812 17.176a.659.659 0 0 1 .574-.609.673.673 0 0 1 .547.188q1.3 1.285 2.595 2.573a.674.674 0 0 1 .105.947.711.711 0 0 1 -.094.1q-1.259 1.244-2.512 2.491a.766.766 0 0 1 -.475.277.656.656 0 0 1 -.719-.479.664.664 0 0 1 .182-.646c.724-.722 1.456-1.434 2.174-2.162-.711-.713-1.43-1.418-2.146-2.126a.686.686 0 0 1 -.231-.554z"/></g></svg>