<svg viewBox="0 0 32 32" xmlns="http://www.w3.org/2000/svg"><title>folder_type_css_opened</title><path d="M27.4 5.5h-9.2l-2.1 4.2H4.3v16.8h25.2v-21Zm0 18.7H6.6V11.8h20.8Zm0-14.5h-8.2l1-2.1h7.1v2.1Z" style="fill:#a35be6;fill-opacity:1"/><path style="display:inline;fill:#a45ae7;fill-opacity:1" d="M25.7 13.7H.5l3.8 12.8h25.2z"/><g style="display:inline"><path fill="#639" d="M12.475 12.475H28.05a2.967 2.967 0 0 1 2.967 2.966v12.61a2.967 2.967 0 0 1-2.967 2.966H15.441a2.967 2.967 0 0 1-2.966-2.967Z"/><path fill="#fff" d="M17.166 27.624v-3.115c0-1.243.797-1.91 2.002-1.91 1.187-.019 1.929.76 1.892 2.076h-1.372c.037-.5-.186-.871-.557-.852-.463 0-.593.315-.593.908v2.707c0 .575.185.853.593.872.427 0 .594-.427.557-.909h1.372c.074 1.354-.78 2.151-1.984 2.133-1.169 0-1.91-.65-1.91-1.91zm4.394-.223h1.28c.018.594.204.964.612.964.408 0 .556-.24.556-.797 0-.463-.204-.723-.705-.964l-.482-.223c-.853-.408-1.205-.908-1.205-1.91 0-1.112.705-1.89 1.854-1.89 1.15 0 1.762.796 1.78 2.094h-1.242c0-.537-.111-.908-.52-.908-.37 0-.556.185-.556.649 0 .463.167.649.612.834l.445.204c.946.445 1.354 1.02 1.354 2.096 0 1.279-.723 1.984-1.91 1.984-1.187 0-1.854-.816-1.873-2.133zm4.19 0h1.299c0 .594.204.964.593.964.39 0 .557-.24.557-.797 0-.463-.186-.723-.705-.964l-.482-.223c-.853-.408-1.187-.908-1.187-1.91 0-1.112.686-1.89 1.854-1.89 1.168 0 1.743.796 1.78 2.094h-1.242c-.018-.537-.13-.908-.538-.908-.37 0-.537.185-.537.649 0 .463.148.649.593.834l.464.204c.927.445 1.335 1.02 1.335 2.096 0 1.279-.724 1.984-1.91 1.984-1.187 0-1.855-.816-1.873-2.133z"/></g></svg>
