<svg id="Layer_1" data-name="Layer 1" xmlns="http://www.w3.org/2000/svg" viewBox="0 0 32 32"><title>folder_type_api_opened</title><path d="M27.4,5.5H18.2L16.1,9.7H4.3V26.5H29.5V5.5Zm0,18.7H6.6V11.8H27.4Zm0-14.5H19.2l1-2.1h7.1V9.7Z" style="fill:#bfdb7b"/><polygon points="25.7 13.7 0.5 13.7 4.3 26.5 29.5 26.5 25.7 13.7" style="fill:#bfdb7b"/><path d="M27.773,31.076a2.517,2.517,0,0,1-1.848-4.229l-1.67-2.54a4.234,4.234,0,0,1-3.847-.05l-1.662,1.77a2.161,2.161,0,1,1-1.105-.983l1.593-1.7a4.233,4.233,0,0,1-1.1-2.854,4.007,4.007,0,0,1,.021-.412l-3.8-1.166a2.517,2.517,0,1,1,.558-1.579c0,.067,0,.134-.009.2l3.646,1.119a4.232,4.232,0,0,1,3.092-2.349V13.922a2.068,2.068,0,1,1,1.479,0v2.386A4.242,4.242,0,0,1,25.6,17.72l1.928-1.162a1.75,1.75,0,0,1-.015-.226,1.807,1.807,0,1,1,1.808,1.808,1.786,1.786,0,0,1-1.023-.319l-1.938,1.171a4.22,4.22,0,0,1,.275,1.5v.036l1.057.183a1.806,1.806,0,1,1-.34,1.443l-.987-.172a4.317,4.317,0,0,1-.91,1.448L27.207,26.1a2.519,2.519,0,1,1,.566,4.973Z" style="fill:#fff"/><path d="M29.122,20.129a1.681,1.681,0,0,0-1.379.721l-1.24-.215c0-.047,0-.093,0-.14a4.1,4.1,0,0,0-.306-1.556l2.1-1.267a1.684,1.684,0,1,0-.64-1.05l-2.09,1.261A4.126,4.126,0,0,0,23,16.415v-2.58a1.943,1.943,0,1,0-1.23,0v2.58a4.137,4.137,0,0,0-3.149,2.394l-3.848-1.182a2.395,2.395,0,1,0-.461,1.145l3.979,1.222a4.1,4.1,0,0,0,1.119,3.355l-1.733,1.845a2.04,2.04,0,1,0,.921.816L20.384,24.1a4.114,4.114,0,0,0,3.915.043l1.787,2.717a2.391,2.391,0,1,0,1.066-.616l-1.861-2.83a4.133,4.133,0,0,0,.989-1.573l1.178.2a1.682,1.682,0,1,0,1.665-1.919Z" style="fill:#486600"/></svg>