<svg xmlns="http://www.w3.org/2000/svg" viewBox="0 0 32 32"><path fill="#0483A8" d="M27.5 5.5h-9.3l-2.1 4.2H4.4v16.8h25.2v-21h-2.1Zm0 4.2h-8.2l1.1-2.1h7.1v2.1Z"/><g clip-path="url(#a)"><path fill="#00DC82" d="M20.3759 27.8156h8.8633c.2815 0 .5581-.073.8019-.2119.2438-.1388.4462-.3385.5869-.5789.1407-.2405.2147-.5132.2146-.7908-.0001-.2777-.0743-.5504-.2153-.7907L24.675 15.2762c-.1407-.2404-.3431-.4401-.5868-.5789-.2438-.1388-.5203-.2118-.8018-.2118-.2814 0-.5579.073-.8017.2118-.2437.1388-.4461.3385-.5868.5789l-1.522 2.6014-2.9757-5.087c-.1408-.2404-.3433-.44-.5871-.5788-.2438-.1387-.5204-.2118-.8019-.2118s-.558.0731-.8019.2118c-.2438.1388-.4462.3384-.5871.5788L7.21529 25.4433c-.14092.2403-.21517.513-.21529.7907-.00012.2776.07389.5503.21459.7908.1407.2404.34312.4401.58692.5789.24379.1389.52036.2119.80188.2119H14.167c2.2044 0 3.8301-.9549 4.9487-2.8178l2.7157-4.6381 1.4546-2.4821 4.3656 7.4558h-5.8202l-1.4555 2.4822Zm-6.2996-2.4847-3.8827-.0009 5.8202-9.9406 2.904 4.9703-1.9443 3.3221c-.7429 1.2087-1.5868 1.6491-2.8972 1.6491Z"/></g><defs><clipPath id="a"><path fill="#fff" d="M7 12h24v16H7z"/></clipPath></defs></svg>