<svg version="1.1" viewBox="0 0 32 32" xmlns="http://www.w3.org/2000/svg"><title>folder_type_cubit_opened</title><path d="m27.4 5.5h-9.2l-2.1 4.2h-11.8v4h-3.8l3.8 12.8h25.2v-21zm-7.2 2.1h7.1v2.1h-8.1zm5.5 6.1h-19.1v-1.9h20.8v7.626z" fill="#b3b3b3"/><path d="m27.35 5.5421h-9.227l-2.083 4.2h-11.607v16.8h25v-21zm0 4.2h-8.135l1.091-2.1h7.044z" display="none" fill="#999"/><g transform="matrix(.5821 0 0 .5821 14.491 13.285)"><rect x="11.026" y="2.0135" width="2.9003" height="27.997"/><path d="m16.014 4.3379a11.576 11.637 0 0 0-11.576 11.639 11.576 11.637 0 0 0 11.576 11.637 11.576 11.637 0 0 0 11.576-11.637 11.576 11.637 0 0 0-11.576-11.639zm0.03516 2.7969a8.8312 8.878 0 0 1 8.832 8.877 8.8312 8.878 0 0 1-8.832 8.8789 8.8312 8.878 0 0 1-8.8301-8.8789 8.8312 8.878 0 0 1 8.8301-8.877z" stroke-width="1.0243"/></g></svg>
