<svg xmlns="http://www.w3.org/2000/svg" viewBox="0 0 32 32"><path d="M27.4 5.5h-9.2l-2.1 4.2H4.3v4H.5l3.8 12.8h25.2v-21Zm-7.2 2.1h7.1v2.1h-8.1Zm5.5 6.1H6.6v-1.9h20.8v7.626Z" style="fill:#3131ff;fill-opacity:1"/><g transform="translate(-.012 .036)"><path fill="none" d="M11.512 11.488h18v6h-18z" style="fill:#fff;fill-opacity:0;stroke:#8f8fff;stroke-opacity:1"/><circle cx="27" cy="14.667" r=".667" style="fill:#8f8fff;fill-opacity:1;stroke:#8f8fff;stroke-width:.666667;stroke-opacity:1"/><path d="M13 14h9" style="fill:#8f8fff;fill-opacity:1;stroke:#8f8fff;stroke-width:1.13389;stroke-opacity:1"/><path d="M13 15.592h7" style="fill:#8f8fff;fill-opacity:1;stroke:#8f8fff;stroke-width:1.18322;stroke-opacity:1"/></g><path d="M12.024 14.505v-2.481H29.01v4.962H12.024zm8.016 1.081v-.636h-7.061v1.273h7.06zm7.255.064c.487-.135.827-.74.692-1.228-.193-.702-1.026-1-1.61-.577-.202.146-.42.572-.42.819 0 .255.228.7.426.83.317.208.57.251.912.156zm-5.283-1.654v-.573h-9.034v1.146h9.034z" style="fill:#55f;fill-opacity:1;stroke:#fff;stroke-width:.0636183;stroke-opacity:0" transform="translate(-.012 .036)"/><g transform="matrix(.9998 0 0 1.00002 -.022 12.012)"><path fill="none" d="M11.512 11.488h18v6h-18z" style="fill:#fff;fill-opacity:0;stroke:#8f8fff;stroke-opacity:1"/><circle cx="27" cy="14.667" r=".667" style="fill:#8f8fff;fill-opacity:1;stroke:#8f8fff;stroke-width:.666667;stroke-opacity:1"/><path d="M13 14h9" style="fill:#8f8fff;fill-opacity:1;stroke:#8f8fff;stroke-width:1.13389;stroke-opacity:1"/><path d="M13 15.592h7" style="fill:#8f8fff;fill-opacity:1;stroke:#8f8fff;stroke-width:1.18322;stroke-opacity:1"/></g><path d="M12.024 14.505v-2.481H29.01v4.962H12.024zm8.016 1.081v-.636h-7.061v1.273h7.06zm7.255.064c.487-.135.827-.74.692-1.228-.193-.702-1.026-1-1.61-.577-.202.146-.42.572-.42.819 0 .255.228.7.426.83.317.208.57.251.912.156zm-5.283-1.654v-.573h-9.034v1.146h9.034z" style="fill:#55f;fill-opacity:1;stroke:#fff;stroke-width:.0636183;stroke-opacity:0" transform="matrix(.9998 0 0 1.00002 -.022 12.012)"/><g transform="matrix(.9998 0 0 1.00002 -.008 6.036)"><path fill="none" d="M11.512 11.488h18v6h-18z" style="fill:#fff;fill-opacity:0;stroke:#8f8fff;stroke-opacity:1"/><circle cx="27" cy="14.667" r=".667" style="fill:#8f8fff;fill-opacity:1;stroke:#8f8fff;stroke-width:.666667;stroke-opacity:1"/><path d="M13 14h9" style="fill:#8f8fff;fill-opacity:1;stroke:#8f8fff;stroke-width:1.13389;stroke-opacity:1"/><path d="M13 15.592h7" style="fill:#8f8fff;fill-opacity:1;stroke:#8f8fff;stroke-width:1.18322;stroke-opacity:1"/></g><path d="M12.024 14.505v-2.481H29.01v4.962H12.024zm8.016 1.081v-.636h-7.061v1.273h7.06zm7.255.064c.487-.135.827-.74.692-1.228-.193-.702-1.026-1-1.61-.577-.202.146-.42.572-.42.819 0 .255.228.7.426.83.317.208.57.251.912.156zm-5.283-1.654v-.573h-9.034v1.146h9.034z" style="fill:#55f;fill-opacity:1;stroke:#fff;stroke-width:.0636183;stroke-opacity:0" transform="matrix(.9998 0 0 1.00002 -.008 6.036)"/></svg>