<svg viewBox="0 0 32 32" xmlns="http://www.w3.org/2000/svg" xmlns:xlink="http://www.w3.org/1999/xlink"><radialGradient id="a" cx="19.64" cy="19.72" gradientUnits="userSpaceOnUse" r="15.24"><stop offset="0" stop-color="#138fce"/><stop offset=".857" stop-color="#385eaa"/><stop offset=".929" stop-color="#3265af"/></radialGradient><path d="m27.9 6h-9.8l-2 4h-11.1v17h25v-21zm.1 4h-7.8l1-2h6.8z" fill="#557ebf"/><path d="m11 11h20v20h-20z" fill="url(#a)"/><g fill="#fff" opacity=".23"><path d="m13.679 11h.357v20h-.357z"/><path d="m16.536 11h.357v20h-.357z"/><path d="m19.393 11h.357v20h-.357z"/><path d="m22.25 11h.357v20h-.357z"/><path d="m25.107 11h.357v20h-.357z"/><path d="m27.964 11h.357v20h-.357z"/><path d="m11 13.679h20v.357h-20z"/><path d="m11 16.536h20v.357h-20z"/><path d="m11 19.393h20v.357h-20z"/><path d="m11 22.25h20v.357h-20z"/><path d="m11 25.107h20v.357h-20z"/><path d="m11 27.964h20v.357h-20z"/></g></svg>