<svg viewBox="0 0 32 32" xmlns="http://www.w3.org/2000/svg"><path d="m27.5 5.5h-9.3l-2.1 4.2h-11.7v16.8h25.2v-21zm0 4.2h-8.2l1.1-2.1h7.1z" fill="#686868"/><path d="m15.266 11.311v18.375h14.449v-15.1h-3.6v-3.275zm12.146.813.008 1.158h1.252l-1.26-1.16z" fill="#808080"/><g fill="#c5c5c5"><path d="m27.028 10h-11.747a1.316 1.316 0 0 0 -1.312 1.313v18.375a1.316 1.316 0 0 0 1.312 1.312h14.438a1.316 1.316 0 0 0 1.313-1.312v-16.046zm.394 2.133 1.247 1.148h-1.247zm-12.141 17.555v-18.375h10.828v3.281h3.609v15.094z"/><path d="m17.523 27.326 5.577-5.577-5.577-5.577v3.489h-7.423v4.176h7.423z"/></g></svg>