<svg xmlns="http://www.w3.org/2000/svg" viewBox="0 0 32 32"><title>folder_type_node_opened@2x</title><g id="folder_opened_node"><path d="M27.4,5.5H18.2L16.1,9.7H4.3V26.5H29.5V5.5Zm0,18.7H6.6V11.8H27.4Zm0-14.5H19.2l1-2.1h7.1V9.7Z" style="fill:#abcc81"/><polygon points="25.7 13.7 0.5 13.7 4.3 26.5 29.5 26.5 25.7 13.7" style="fill:#abcc81"/><path d="M22,31.5a1.61,1.61,0,0,1-.81-.22l-2.57-1.52c-.38-.21-.2-.29-.07-.33a5.12,5.12,0,0,0,1.16-.53.2.2,0,0,1,.19,0l2,1.17a.25.25,0,0,0,.24,0l7.7-4.44a.24.24,0,0,0,.12-.21V16.56a.25.25,0,0,0-.12-.21l-7.69-4.44a.24.24,0,0,0-.24,0l-7.69,4.44a.25.25,0,0,0-.12.21v8.88a.24.24,0,0,0,.12.21l2.11,1.22c1.14.57,1.84-.1,1.84-.78V17.31a.22.22,0,0,1,.22-.22h1a.22.22,0,0,1,.22.22v8.77a2.13,2.13,0,0,1-2.28,2.4A3.29,3.29,0,0,1,15.51,28l-2-1.16a1.62,1.62,0,0,1-.81-1.4V16.56a1.62,1.62,0,0,1,.81-1.4l7.7-4.45a1.68,1.68,0,0,1,1.62,0l7.7,4.45a1.62,1.62,0,0,1,.81,1.4v8.88a1.63,1.63,0,0,1-.81,1.4l-7.7,4.44A1.61,1.61,0,0,1,22,31.5Z" style="fill:#fff"/><path d="M20.54,22.47a.22.22,0,0,1,.22-.22h1a.22.22,0,0,1,.22.19c.15,1,.6,1.52,2.63,1.52,1.62,0,2.31-.37,2.31-1.23,0-.5-.2-.86-2.71-1.11-2.11-.21-3.41-.67-3.41-2.36s1.31-2.48,3.5-2.48c2.47,0,3.69.86,3.84,2.69a.22.22,0,0,1-.22.24h-1a.22.22,0,0,1-.22-.17c-.24-1.07-.82-1.41-2.4-1.41-1.77,0-2,.62-2,1.08s.24.72,2.63,1,3.49.76,3.49,2.42-1.4,2.64-3.84,2.64C21.25,25.31,20.54,23.76,20.54,22.47Z" style="fill:#fff"/></g></svg>