<svg xmlns="http://www.w3.org/2000/svg" viewBox="0 0 32 32"><title>folder_type_docs</title><path d="M27.5,5.5H18.2L16.1,9.7H4.4V26.5H29.6V5.5Zm0,4.2H19.3l1.1-2.1h7.1Z" style="fill:#c05454"/><path d="M15.266,11.311V29.686H29.715v-15.1h-3.6V11.311H15.266Zm12.146.813.008,1.158,1.252,0-1.26-1.16Z" style="fill:gray"/><path d="M27.028,10H15.281a1.316,1.316,0,0,0-1.312,1.313V29.688A1.316,1.316,0,0,0,15.281,31H29.719a1.316,1.316,0,0,0,1.313-1.312V13.642Zm.394,2.133,1.247,1.148H27.422ZM15.281,29.688V11.313H26.109v3.281h3.609V29.688Z" style="fill:#c5c5c5"/><rect x="16.594" y="19.372" width="11.813" height="1.313" style="fill:#c5c5c5"/><path d="M18.436,12.572a1.426,1.426,0,0,0-.558-.394,2.051,2.051,0,0,0-.82-.131h-1.28v3.839h1.28a1.66,1.66,0,0,0,1.313-.492,1.786,1.786,0,0,0,.361-.591,2.954,2.954,0,0,0,.1-.82,2.871,2.871,0,0,0-.1-.788A1.576,1.576,0,0,0,18.436,12.572Zm-.459,1.837a1.011,1.011,0,0,1-.164.394.775.775,0,0,1-.3.262,1.1,1.1,0,0,1-.492.1H16.6V12.736h.459a.872.872,0,0,1,.722.3,1.213,1.213,0,0,1,.164.361,2.55,2.55,0,0,1,.066.525A2.172,2.172,0,0,1,17.976,14.41Z" style="fill:#c5c5c5"/><path d="M21.979,12.572a1.369,1.369,0,0,0-.525-.427,1.711,1.711,0,0,0-.755-.164,1.983,1.983,0,0,0-.788.164,1.669,1.669,0,0,0-.525.427,2.176,2.176,0,0,0-.3.623,2.942,2.942,0,0,0,0,1.509,1.829,1.829,0,0,0,.3.623,1.127,1.127,0,0,0,.525.427,1.865,1.865,0,0,0,.788.164,1.417,1.417,0,0,0,1.214-.525,2.109,2.109,0,0,0,.427-1.444,2.8,2.8,0,0,0-.1-.755A1.334,1.334,0,0,0,21.979,12.572ZM21.29,14.9a.705.705,0,0,1-.623.328.643.643,0,0,1-.623-.328,1.871,1.871,0,0,1-.2-.952,1.79,1.79,0,0,1,.2-.952.806.806,0,0,1,1.247,0,1.871,1.871,0,0,1,.2.952A1.79,1.79,0,0,1,21.29,14.9Z" style="fill:#c5c5c5"/><path d="M24.7,14.869a.716.716,0,0,1-.131.164.686.686,0,0,1-.2.131.64.64,0,0,1-.263.033.575.575,0,0,1-.558-.3,1.79,1.79,0,0,1-.2-.952v-.262c0-.1.033-.2.033-.3.033-.1.033-.2.066-.263a.529.529,0,0,1,.131-.23.87.87,0,0,1,.2-.164.618.618,0,0,1,.263-.066.567.567,0,0,1,.427.164,1.135,1.135,0,0,1,.23.394l.755-.2a1.572,1.572,0,0,0-.23-.525,1.556,1.556,0,0,0-.328-.328,1.884,1.884,0,0,0-1.608-.033,1.545,1.545,0,0,0-.492.427,1.292,1.292,0,0,0-.164.656,2.692,2.692,0,0,0-.066.722,4.914,4.914,0,0,0,.066.722,1.788,1.788,0,0,0,.262.623,1.226,1.226,0,0,0,.492.427,1.711,1.711,0,0,0,.755.164,1.6,1.6,0,0,0,.919-.262,1.556,1.556,0,0,0,.328-.328,3.344,3.344,0,0,0,.263-.492l-.788-.2A.908.908,0,0,1,24.7,14.869Z" style="fill:#c5c5c5"/><rect x="16.594" y="27.805" width="8.203" height="1.313" style="fill:#c5c5c5"/><rect x="16.594" y="25.272" width="11.813" height="1.313" style="fill:#c5c5c5"/><rect x="16.594" y="22.272" width="11.813" height="1.313" style="fill:#c5c5c5"/><rect x="16.649" y="16.472" width="11.813" height="1.313" style="fill:#c5c5c5"/></svg>