<svg viewBox="0 0 32 32" xmlns="http://www.w3.org/2000/svg"><path d="m27.4 5.5h-9.2l-2.1 4.2h-11.8v16.8h25.2v-21zm0 18.7h-20.8v-12.4h20.8zm0-14.5h-8.2l1-2.1h7.1v2.1z" fill="#db897b"/><path d="m25.7 13.7h-25.2l3.8 12.8h25.2z" fill="#db897b"/><path d="m30.6 21.557c-1.08-1.038-6.481-1.686-8.185-1.874a5 5 0 0 0 .211-.6 6.82 6.82 0 0 1 .742-.275c.032.093.18.45.265.62 3.427.095 3.6-2.547 3.742-3.27a4.085 4.085 0 0 1 1.3-2.641c-1.751-.51-4.27.791-5.113 2.728a5.261 5.261 0 0 0 -.949-.261 4.6 4.6 0 0 0 -4.475-3.439 8.366 8.366 0 0 0 -8.138 8.649c0 4.573 3.122 8.581 4.887 8.581a1.737 1.737 0 0 0 1.589-1.094c.13.355.531 1.457.662 1.738.194.415 1.093.774 1.486.343a1.448 1.448 0 0 0 1.939-.3 1.435 1.435 0 0 0 1.852-1.062c.478-.026.712-.7.608-1.231a13.128 13.128 0 0 0 -1.223-2.295c.634.516 2.241.662 2.436 0 1.023.8 2.617.381 2.743-.271 1.243.323 2.668-.386 2.434-1.245a1.684 1.684 0 0 0 1.187-2.801z" fill="#543729"/><path d="m25.04 17.026a7.639 7.639 0 0 1 1.653-2.361 4.283 4.283 0 0 0 -1.931 2.175 6.764 6.764 0 0 0 -.679-.38 4.408 4.408 0 0 1 3.6-2.481c-1.049.952-.677 2.929-1.539 3.976a11.3 11.3 0 0 0 -1.104-.929zm-.678 1.389a3.47 3.47 0 0 1 .036-.4 3.628 3.628 0 0 0 -.629-.083 2.368 2.368 0 0 0 .219.912 3.283 3.283 0 0 0 1.712-.475 5.728 5.728 0 0 0 -1.155-.326c-.045.089-.145.309-.184.373z" fill="#00acee"/><path d="m21.4 25.165c-.1-.217-.208-.481-.336-.827.5.726 2.062.352 1.98-.3.765.576 2.341-.1 1.983-.9.767.357 1.642-.362 1.445-.675 1.307.252 2.56.5 2.953.6a1.524 1.524 0 0 1 -1.753.518c.485.66-.456 1.452-1.767 1.016.288.648-.878 1.231-2.2.556.014.654-1.648.729-2.305.012zm2.593-3.277c1.517.116 4.026.343 5.579.56-.1-.505-.366-.65-1.209-.876-.908.097-3.208.328-4.37.317z" fill="#2baf2b"/><path d="m23.045 24.044c.765.576 2.341-.1 1.983-.9.767.357 1.642-.362 1.445-.675-1.545-.3-3.167-.6-3.534-.649.223.012.593.037 1.054.073 1.162.006 3.463-.22 4.369-.316a44.037 44.037 0 0 0 -6.536-1.049 2.973 2.973 0 0 1 -.579.631 5.05 5.05 0 0 1 -4.362 3.19 5.854 5.854 0 0 1 -1.785-.3 3.8 3.8 0 0 1 -3.61.077 7.3 7.3 0 0 0 6.684 4.434c2.455 0 3.543-2.507 3.305-3.17-.058-.161-.287-.7-.415-1.04.499.719 2.063.344 1.981-.306z" fill="#ffcc2f"/><path d="m21.557 19a7.112 7.112 0 0 1 1.68-.743c-.011-.079-.02-.159-.025-.239-.468.112-1.351.491-1.857-.031 1.067.322 1.6-.287 2.385-.287a5.043 5.043 0 0 1 1.66.337 5.6 5.6 0 0 0 -3.527-1.574 2.468 2.468 0 0 0 -.316 2.537z" fill="#cecece"/><path d="m15.1 24.043a5.854 5.854 0 0 0 1.785.3 5.051 5.051 0 0 0 4.362-3.19 5.613 5.613 0 0 1 -3.652 1.038 5.716 5.716 0 0 0 3.723-2.354 3.165 3.165 0 0 1 .33-3.936 3.7 3.7 0 0 0 -3.505-2.463 7.439 7.439 0 0 0 -7.243 7.756 7.419 7.419 0 0 0 .591 2.925 3.8 3.8 0 0 0 3.609-.076z" fill="#ef5734"/><path d="m16.288 17.28a1.829 1.829 0 1 0 1.829-1.829 1.829 1.829 0 0 0 -1.829 1.829z" fill="#ffcc2f"/><path d="m17.022 17.28a1.1 1.1 0 1 0 1.1-1.1 1.1 1.1 0 0 0 -1.1 1.1z" fill="#543729"/><ellipse cx="18.117" cy="16.794" fill="#fff" rx=".638" ry=".397"/></svg>