<svg xmlns="http://www.w3.org/2000/svg" viewBox="0 0 32 32"><title>folder_type_audio_opened</title><path d="M27.4,5.5H18.2L16.1,9.7H4.3V26.5H29.5V5.5Zm0,18.7H6.6V11.8H27.4Zm0-14.5H19.2l1-2.1h7.1V9.7Z" style="fill:#7b7bdb"/><polygon points="25.7 13.7 0.5 13.7 4.3 26.5 29.5 26.5 25.7 13.7" style="fill:#7b7bdb"/><path d="M21.422,13a.675.675,0,0,0-.427.174l-5.7,4.74a.869.869,0,0,1-.716.246H10.906a.9.9,0,0,0-.906.894s0,.008,0,.012v5.87a.9.9,0,0,0,.9.9h3.68a.869.869,0,0,1,.716.246l5.7,4.74c.391.325.811.168.811-.217V13.391A.371.371,0,0,0,21.453,13Zm7.328,1.725-1.343,1.345a11.031,11.031,0,0,1,0,11.883l1.339,1.332A12.893,12.893,0,0,0,28.75,14.724ZM25.5,17.966,24.179,19.3a4.526,4.526,0,0,1,0,5.428L25.5,26.044a6.416,6.416,0,0,0,.008-8.077Z" style="fill:#00007f"/></svg>