<svg xmlns="http://www.w3.org/2000/svg" viewBox="0 0 32 32"><title>folder_type_cubit</title><g fill-rule="nonzero" fill="none"><path d="M22.58.5h-8.897l-2.008 4.2H.482v16.8H24.59V.5h-2.008zm0 4.2h-7.844l1.052-2.1h6.793v2.1z" fill="#55A3BF"/><path fill="#000" d="M17.907 6l8.217 4.92v9.839l-8.217 4.92-8.217-4.92V10.92z"/><path fill="#82EDDF" d="M10.357 11.29l7.55 4.55v9.099l-7.55-4.55z"/><path fill="#00D3B9" d="M25.456 11.29l-7.55 4.55v9.099l7.55-4.55z"/><path fill="#0084C1" d="M10.357 11.29l7.55-4.55 7.55 4.55-7.55 4.55z"/><path fill="#000" d="M17.907 9.915l4.948 2.962v5.925l-4.948 2.963-4.948-2.963v-5.925z"/><g><path fill="#82EDDF" d="M15.458 14.358l2.45 1.481v2.963l-2.45-1.48z"/><path fill="#00D3B9" d="M20.355 14.358l-2.448 1.481v2.963l2.448-1.48z"/><path fill="#0084C1" d="M15.458 14.358l2.45-1.48 2.447 1.48-2.448 1.481z"/></g></g></svg>