<svg viewBox="0 0 32 32" xmlns="http://www.w3.org/2000/svg"><path d="m27.4 5.5h-9.2l-2.1 4.2h-11.8v16.8h25.2v-21zm0 18.7h-20.8v-12.4h20.8zm0-14.5h-8.2l1-2.1h7.1v2.1z" fill="#7b7bdb"/><path d="m25.7 13.7h-25.2l3.8 12.8h25.2z" fill="#7b7bdb"/><path d="m21.422 13a.675.675 0 0 0 -.427.174l-5.7 4.74a.869.869 0 0 1 -.716.246h-3.673a.9.9 0 0 0 -.906.894s0 .008 0 .012v5.87a.9.9 0 0 0 .9.9h3.68a.869.869 0 0 1 .716.246l5.7 4.74c.391.325.811.168.811-.217v-17.214a.371.371 0 0 0 -.354-.391zm7.328 1.725-1.343 1.345a11.031 11.031 0 0 1 0 11.883l1.339 1.332a12.893 12.893 0 0 0 .004-14.561zm-3.25 3.241-1.321 1.334a4.526 4.526 0 0 1 0 5.428l1.321 1.316a6.416 6.416 0 0 0 .008-8.077z" fill="#00007f"/></svg>