<?xml version="1.0" encoding="utf-8"?>
<!-- Generator: Adobe Illustrator 19.2.0, SVG Export Plug-In . SVG Version: 6.00 Build 0)  -->
<svg version="1.1" id="Layer_1" xmlns="http://www.w3.org/2000/svg" xmlns:xlink="http://www.w3.org/1999/xlink" x="0px" y="0px"
	 viewBox="0 0 32 32" style="enable-background:new 0 0 32 32;" xml:space="preserve">
<style type="text/css">
	.st0{fill:#00A23C;}
	.st1{fill:#FFFFFF;stroke:#00A23C;stroke-miterlimit:10;}
</style>
<title>folder_type_typings@2x</title>
<g id="folder_typings">
	<path class="st0" d="M27.5,5.5h-9.3l-2.1,4.2H4.4v16.8h25.2v-21H27.5z M27.5,9.7h-8.2l1.1-2.1h7.1V9.7z"/>
	<path class="st1" d="M27.6,17.3c0.7,0.2,1.4,0.5,1.9,1.1c0.3,0.3,0.5,0.6,0.7,1c0,0-1.3,0.9-2.1,1.4c0,0-0.1-0.1-0.3-0.3
		c-0.3-0.5-0.8-0.8-1.4-0.9c-0.9-0.1-1.5,0.4-1.5,1.2c0,0.2,0,0.4,0.1,0.6c0.2,0.4,0.6,0.7,1.7,1.2c2.1,0.9,3.1,1.5,3.6,2.4
		c0.7,1.1,0.8,2.4,0.4,3.6c-0.6,1.3-1.9,2.2-3.3,2.4c-0.8,0.1-1.5,0.1-2.3,0c-1.1-0.2-2.2-0.8-3-1.6c-0.3-0.3-0.6-0.7-0.8-1.1
		l0.3-0.2l1.1-0.6l0.9-0.5l0.2,0.3c0.3,0.4,0.7,0.8,1.1,1.1c0.9,0.5,2,0.4,2.9-0.1c0.5-0.5,0.5-1.2,0.1-1.7
		c-0.2-0.3-0.7-0.6-2.1-1.2c-1.1-0.4-2-0.9-2.8-1.7c-0.4-0.4-0.7-0.9-0.8-1.5c-0.1-0.6-0.1-1.3,0-1.9c0.3-1.5,1.6-2.6,3.1-2.8
		C26.1,17.1,26.8,17.2,27.6,17.3z M20.6,18.5v1.2h-3.9v11.1h-2.8V19.8H10v-1.2c0-0.4,0-0.8,0-1.2c0,0,2.4,0,5.3,0h5.2L20.6,18.5z"/>
</g>
</svg>
