<svg xmlns="http://www.w3.org/2000/svg" viewBox="0 0 32 32"><title>folder_type_android</title><path d="M27.5,5.5H18.2L16.1,9.7H4.4V26.5H29.6V5.5Zm0,4.2H19.3l1.1-2.1h7.1Z" style="fill:#809136"/><path d="M27.621,16.469H16.776a.437.437,0,0,0-.437.437V26a.437.437,0,0,0,.437.437h1.934V29.5A1.288,1.288,0,0,0,20,30.79h0A1.288,1.288,0,0,0,21.285,29.5V26.437h1.8V29.5a1.288,1.288,0,0,0,1.288,1.288h0A1.288,1.288,0,0,0,25.661,29.5V26.437h1.96A.437.437,0,0,0,28.058,26V16.905A.437.437,0,0,0,27.621,16.469Z" style="fill:#aac148"/><path d="M14.5,16.466h0a1.288,1.288,0,0,0-1.288,1.288v5.23A1.288,1.288,0,0,0,14.5,24.272h0a1.288,1.288,0,0,0,1.288-1.288v-5.23A1.288,1.288,0,0,0,14.5,16.466Z" style="fill:#aac148"/><path d="M29.894,16.466h0a1.288,1.288,0,0,0-1.288,1.288v5.23a1.288,1.288,0,0,0,1.288,1.288h0a1.288,1.288,0,0,0,1.288-1.288v-5.23A1.288,1.288,0,0,0,29.894,16.466Z" style="fill:#aac148"/><path d="M16.864,15.831H27.508a.437.437,0,0,0,.428-.528,5.884,5.884,0,0,0-2.87-3.909l.91-1.642a.23.23,0,0,0-.4-.223l-.917,1.654a5.889,5.889,0,0,0-4.94,0L18.8,9.529a.23.23,0,1,0-.4.223l.91,1.642a5.884,5.884,0,0,0-2.87,3.909A.437.437,0,0,0,16.864,15.831Zm8.5-2.447a.495.495,0,1,1-.495-.495A.495.495,0,0,1,25.362,13.384ZM19.5,12.889a.495.495,0,1,1-.495.495A.495.495,0,0,1,19.5,12.889Z" style="fill:#aac148"/></svg>