<svg viewBox="0 0 32 32" xmlns="http://www.w3.org/2000/svg"><path d="m27.5 5.5h-9.3l-2.1 4.2h-11.7v16.8h25.2v-21zm0 4.2h-8.2l1.1-2.1h7.1z" fill="#bf7f55"/><path d="m31 26.526v.955c0 1.73-1.909 3.52-4.236 3.52h-12.528c-2.357-.001-4.236-1.76-4.236-3.52v-.955z" fill="#9d5125"/><path d="m18.084 17.249a5.334 5.334 0 0 1 4.892 3.162 2.729 2.729 0 0 1 1.551-.477 2.687 2.687 0 0 1 2.714 2.625 4.267 4.267 0 0 1 3.759 3.848v.358c0 1.76-1.909 3.52-4.266 3.52h-12.5c-2.357 0-4.236-1.76-4.236-3.52v-.358a4.146 4.146 0 0 1 2.714-3.639v-.149a5.347 5.347 0 0 1 5.372-5.37z" fill="#f58535"/><g fill="#fff"><path d="m15.25 23.484-1.4 4.892h.835l.328-1.193h1.432l.3 1.193h.835l-1.313-4.892zm-.119 3.072.6-2.416.567 2.416z"/><path d="m21.097 27.332h-.03l-.656-3.848h-.836l-.626 3.818h-.03l-.656-3.818h-.776l.955 4.922h.895l.626-3.699h.03l.626 3.699h.925l.984-4.922h-.805z"/><path d="m25.064 25.721-.537-.179c-.537-.209-.746-.447-.746-.865a.673.673 0 1 1 1.342 0v.089h.777v-.119c0-.507-.119-1.283-1.4-1.283a1.351 1.351 0 0 0 -1.521 1.4 1.3 1.3 0 0 0 1.044 1.342l.537.179a.821.821 0 0 1 .716.865.7.7 0 0 1 -.746.716q-.805 0-.805-.895v-.119h-.776v.119a1.339 1.339 0 0 0 1.491 1.491c.984 0 1.641-.418 1.641-1.462a1.3 1.3 0 0 0 -1.017-1.279z"/></g></svg>