<svg xmlns="http://www.w3.org/2000/svg" viewBox="0 0 32 32"><title>folder_type_vscode2</title><path d="M27.5,5.5H18.2L16.1,9.7H4.4V26.5H29.6V5.5Zm0,4.2H19.3l1.1-2.1h7.1Z" style="fill:#5594bf"/><path d="M30.966,11.741,26.618,10l-9.4,9.159-5.745-4.37-1.24.628V25.6l1.233.62,5.737-4.37L26.618,31l4.348-1.741V11.741ZM12.087,22.894V18.113l2.66,2.376ZM20.6,20.489l5.312-3.974v7.979l-5.319-4Z" style="fill:#007acc"/><polygon points="20.596 20.489 25.908 16.514 25.908 24.493 20.589 20.489 20.596 20.489" style="fill:#fff"/><polygon points="12.087 22.894 12.087 18.113 14.747 20.489 12.087 22.894" style="fill:#fff"/></svg>