<svg xmlns="http://www.w3.org/2000/svg" viewBox="0 0 32 32"><title>folder_type_style@2x</title><g id="folder_style"><path d="M27.5,5.5H18.2L16.1,9.7H4.4V26.5H29.6V5.5Zm0,4.2H19.3l1.1-2.1h7.1Z" style="fill:#5590bc"/><polygon points="14.17 28.9 12.48 10 31 10 29.31 28.9 21.73 31 14.17 28.9" style="fill:#1572b6"/><polygon points="21.74 29.39 27.87 27.69 29.31 11.54 21.74 11.54 21.74 29.39" style="fill:#33a9dc"/><path d="M15.25,19.54c1.69,0,1.93-.69,1.93-1.3A7.67,7.67,0,0,0,17,16.76a7.68,7.68,0,0,1-.19-1.46c0-1.62,1.43-2.3,3.45-2.3h.5v1h-.43c-1.41,0-1.88.56-1.88,1.51a5.65,5.65,0,0,0,.17,1.25,6.14,6.14,0,0,1,.17,1.33c0,1.12-.64,1.69-1.72,1.9v0a1.8,1.8,0,0,1,1.72,1.92,6,6,0,0,1-.17,1.33,5.8,5.8,0,0,0-.17,1.27c0,1,.55,1.53,1.88,1.53h.43v1h-.5c-2,0-3.45-.63-3.45-2.41A7.47,7.47,0,0,1,17,23.15a7.17,7.17,0,0,0,.19-1.42c0-.54-.24-1.3-1.93-1.3Z" style="fill:#ebebeb"/><path d="M28.25,20.43c-1.69,0-1.93.76-1.93,1.3a7.31,7.31,0,0,0,.19,1.42,7.34,7.34,0,0,1,.19,1.44c0,1.77-1.5,2.41-3.45,2.41h-.5V26h.41c1.33,0,1.9-.54,1.9-1.53a7.9,7.9,0,0,0-.17-1.27,6,6,0,0,1-.19-1.33A1.83,1.83,0,0,1,26.42,20v0a1.83,1.83,0,0,1-1.71-1.9,6.14,6.14,0,0,1,.19-1.33,7.7,7.7,0,0,0,.17-1.25c0-.95-.5-1.49-1.88-1.51h-.43V13h.48c2,0,3.48.69,3.48,2.3a7.53,7.53,0,0,1-.19,1.46,7.82,7.82,0,0,0-.19,1.47c0,.61.24,1.3,1.93,1.3Z" style="fill:#fff"/></g></svg>