<svg xmlns="http://www.w3.org/2000/svg" viewBox="0 0 32 32"><title>folder_type_story</title><path d="M27.9,6H18.1l-2,4H5V27H30V6Zm.1,4H20.2l1-2H28Z" style="fill:#bc557d"/><path d="M26.817,13.461l.093-2.267,1.921-.12.086,2.307a.151.151,0,0,1-.033.1.146.146,0,0,1-.208.024l0,0-.741-.586-.878.668a.149.149,0,0,1-.21-.027l0,0A.142.142,0,0,1,26.817,13.461Z" style="fill:#fff"/><path d="M26.91,11.194l-.093,2.267a.146.146,0,0,0,.03.1.148.148,0,0,0,.209.03h0l.877-.668.742.586a.147.147,0,0,0,.209-.017l0,0a.162.162,0,0,0,.033-.1l-.092-2.307L29.937,11A1,1,0,0,1,31,11.944v18.05A1,1,0,0,1,30,31h-.047l-13.378-.6a1,1,0,0,1-.957-.968L15,12.923a1,1,0,0,1,.939-1.041l10.97-.688Z" style="fill:#ff4785"/><path d="M24.358,18.54c0,.391,2.627.2,2.98-.071,0-2.664-1.425-4.064-4.035-4.064s-4.071,1.421-4.071,3.554c0,3.713,5,3.785,5,5.81a.8.8,0,0,1-.681.906.756.756,0,0,1-.207,0c-.8,0-1.111-.408-1.074-1.794,0-.3-3.036-.4-3.127,0-.236,3.357,1.85,4.328,4.236,4.328,2.313,0,4.127-1.237,4.127-3.476,0-3.981-5.071-3.873-5.071-5.846a.839.839,0,0,1,.759-.911.763.763,0,0,1,.185,0C23.747,16.982,24.414,17.047,24.358,18.54Z" style="fill:#fff"/></svg>