<?xml version="1.0" encoding="UTF-8" standalone="no"?>
<!-- Created with Inkscape (http://www.inkscape.org/) -->

<svg
   width="32mm"
   height="32mm"
   viewBox="0 0 32 32"
   version="1.1"
   id="svg1"
   xml:space="preserve"
   inkscape:version="1.4.3 (0d15f75, 2025-12-25)"
   sodipodi:docname="folder_type_backend.svg"
   xmlns:inkscape="http://www.inkscape.org/namespaces/inkscape"
   xmlns:sodipodi="http://sodipodi.sourceforge.net/DTD/sodipodi-0.dtd"
   xmlns="http://www.w3.org/2000/svg"
   xmlns:svg="http://www.w3.org/2000/svg"><sodipodi:namedview
     id="namedview1"
     pagecolor="#ffffff"
     bordercolor="#000000"
     borderopacity="0.25"
     inkscape:showpageshadow="2"
     inkscape:pageopacity="0.0"
     inkscape:pagecheckerboard="0"
     inkscape:deskcolor="#d1d1d1"
     inkscape:document-units="px"
     showgrid="true"
     showguides="true"
     inkscape:zoom="2.534831"
     inkscape:cx="58.781039"
     inkscape:cy="38.069599"
     inkscape:window-width="1366"
     inkscape:window-height="705"
     inkscape:window-x="1358"
     inkscape:window-y="-8"
     inkscape:window-maximized="1"
     inkscape:current-layer="layer1"><inkscape:grid
       id="grid1"
       units="px"
       originx="0"
       originy="0"
       spacingx="0.26458333"
       spacingy="0.26458333"
       empcolor="#0099e5"
       empopacity="0.30196078"
       color="#0099e5"
       opacity="0.14901961"
       empspacing="5"
       enabled="true"
       visible="true" /><sodipodi:guide
       position="2.5094433,18.198061"
       orientation="1,0"
       id="guide1"
       inkscape:locked="false" /><sodipodi:guide
       position="24.282554,29.416749"
       orientation="0,-1"
       id="guide2"
       inkscape:locked="false" /><sodipodi:guide
       position="29.153826,16.574304"
       orientation="1,0"
       id="guide3"
       inkscape:locked="false" /><sodipodi:guide
       position="7.2331012,2.91998"
       orientation="0,-1"
       id="guide4"
       inkscape:locked="false" /></sodipodi:namedview><defs
     id="defs1" /><g
     inkscape:label="Layer 1"
     inkscape:groupmode="layer"
     id="layer1"><path
       style="fill:#000000"
       d="m 16.263703,15.991834 c 0.04439,-0.186741 0.02315,0.216154 0,0 z"
       id="path8" /><path
       style="fill:#000000"
       d="m 16.263703,15.991834 c 0.04439,-0.186741 0.02315,0.216154 0,0 z"
       id="path7" /><path
       style="fill:#000000"
       d="m 16.263703,15.991834 c 0.04439,-0.186741 0.02315,0.216154 0,0 z"
       id="path6" /><path
       style="fill:#000000"
       d="m 16.263703,15.991834 c 0.04439,-0.186741 0.02315,0.216154 0,0 z"
       id="path5" /><path
       style="fill:#000000"
       d="m 16.263703,15.991834 c 0.04439,-0.186741 0.02315,0.216154 0,0 z"
       id="path4" /><g
       id="g1"
       transform="translate(-0.69839713,-1.0071893)"><path
         style="fill:#90d7f6"
         d="m 21.992507,25.717852 c -2.909115,-0.06785 -5.822348,0.01995 -8.729454,-0.09459 -0.770242,0.08523 0.05336,-1.22721 -0.861631,-0.900759 -2.054852,-0.04334 -4.1129772,0.03175 -6.1659444,-0.05283 -0.4129553,-0.675799 -0.092528,-1.728518 -0.198403,-2.547137 -0.00396,-3.475073 -0.00142,-6.950151 -0.00214,-10.425226 0.7011779,-0.371883 1.6053359,-0.08855 2.3806716,-0.185592 2.1194818,-0.0094 4.2399228,0.01799 6.3587238,-0.03594 0.614551,-1.023171 1.123101,-2.1064389 1.728509,-3.1349799 2.563779,-0.1182213 5.137151,-0.041721 7.704687,-0.06064 0.669253,-0.023281 1.706932,-0.1540605 1.395603,0.8534326 0.01035,1.2250586 -0.0913,2.4680296 0.0063,3.6810896 0.702367,-0.108771 1.236115,0.227632 1.286104,0.881061 0.876958,0.225137 0.284877,1.562219 0.465991,2.250538 -0.02032,3.203026 0.02893,6.408709 -0.06468,9.610081 -0.714195,0.394626 -1.836428,0.07401 -2.698191,0.180737 -0.868693,-0.004 -1.737657,0.0015 -2.60614,-0.01924 z m 1.404985,-14.260487 c 0.248356,-0.774002 -0.01947,-1.456048 -0.932429,-1.192842 -1.286335,-0.0053 -2.576993,-0.04781 -3.860869,0.03432 -0.373535,0.465876 -1.089742,1.494053 0.07372,1.203037 1.572369,0.0087 3.149769,0.03784 4.719578,-0.04451 z"
         id="path12" /><path
         style="fill:#3ac1fd"
         d="m 21.947619,25.627584 c -2.977313,-0.03847 -5.955108,-0.03364 -8.932651,-0.04869 0.133109,-0.754668 -0.326656,-1.082727 -1.08943,-0.908299 -1.881042,-0.03392 -3.765354,0.03768 -5.644499,-0.04582 -0.4141393,-0.668556 -0.093029,-1.716639 -0.1990836,-2.5291 -0.00396,-3.448696 -0.00142,-6.897397 -0.00214,-10.346095 0.765069,-0.336703 1.7098354,-0.09681 2.5439688,-0.182529 2.073366,-0.01236 4.146747,-0.02225 6.22012,-0.03338 0.565643,-1.050037 1.105412,-2.1146962 1.702887,-3.1470753 2.38261,-0.1228454 4.77636,-0.037036 7.16327,-0.062336 0.709651,0.1101943 2.208128,-0.4083608 1.84172,0.8528903 0.02301,1.1940022 -0.09498,2.3939432 0.0035,3.5838232 0.32276,0.404369 1.405798,-0.06445 1.224576,0.871384 0.822237,0.234863 0.446168,1.366572 0.536214,2.085426 -0.0022,3.292334 0.0041,6.58566 -0.06489,9.877192 -1.760632,0.108036 -3.538005,0.03573 -5.303534,0.03261 z m 1.526182,-14.744782 c -0.0033,-0.342279 0.118423,-0.809033 -0.385877,-0.652695 -1.507556,-0.0071 -3.015113,-0.01425 -4.522669,-0.02138 -0.354644,0.53367 -1.153421,1.587002 0.0087,1.333769 1.633262,0.01269 3.266563,-0.0049 4.899835,-0.0088 10e-7,-0.216961 3e-6,-0.433923 4e-6,-0.650884 z"
         id="path11" /><path
         style="fill:#00b0fd"
         d="m 21.992507,25.627929 c -2.984503,-0.05556 -5.971525,-7.4e-5 -8.954918,-0.09361 -0.123936,-0.39891 0.144542,-1.094673 -0.508514,-0.894962 -2.06079,-0.01931 -4.1232088,0.01703 -6.1826701,-0.05529 -0.4597726,-0.622604 -0.1017132,-1.761447 -0.2192998,-2.581741 0.019127,-3.408342 -0.052963,-6.819769 0.046888,-10.22616 0.7509165,-0.355057 1.8612456,-0.04978 2.7399568,-0.164834 1.9918741,-0.01215 3.9837611,-0.02188 5.9756421,-0.03278 0.573862,-1.062825 1.104914,-2.1506596 1.730176,-3.1843334 2.923502,-0.027224 5.84953,-0.056752 8.772309,0.013434 0.273841,0.7928851 0.02944,1.8549475 0.09267,2.7465905 0.04044,0.7918 -0.37416,2.161486 0.913521,1.808137 0.512353,0.139566 0.135236,1.007302 0.821225,0.92396 0.180237,2.414327 -0.047,4.838807 0.01979,7.257839 -0.0063,1.483276 0.03459,2.968823 -0.02872,4.450554 -1.731598,0.10841 -3.48139,0.03572 -5.218056,0.0332 z m 1.526181,-14.745127 c -0.03906,-0.30329 0.167357,-0.850925 -0.330752,-0.697294 -1.555859,-0.0072 -3.111719,-0.01444 -4.667578,-0.02167 -0.118951,0.346236 -1.221889,1.520156 -0.394097,1.436485 1.797476,-0.0073 3.594952,-0.01451 5.392428,-0.02176 0,-0.23192 -10e-7,-0.463841 -10e-7,-0.695761 z"
         id="path10" /><path
         style="fill:#0087c3"
         d="m 21.992507,25.627929 c -2.987524,-0.06435 -5.980484,0.01632 -8.965102,-0.10379 -0.106991,-1.713522 -0.05068,-3.438249 -0.130144,-5.15516 -0.02948,-2.12029 -0.01348,-4.241703 -0.07053,-6.361268 0.175794,-0.47078 1.129151,-0.05221 0.839112,-0.887928 -0.231426,-0.862288 0.760843,-0.576258 1.275424,-0.621033 0.38434,-0.100546 0.453027,0.527909 0.858082,0.387311 0.634054,0.04119 1.287829,-0.04473 1.906088,0.110272 0.168753,0.228272 0.304821,1.210799 0.39019,0.367413 -0.268255,-0.941313 0.624114,-0.91737 1.276931,-0.865 0.381218,-0.129225 0.428759,0.496538 0.804741,0.386201 0.652648,0.02089 1.308262,0.0063 1.958044,0.07465 0.01224,0.515177 0.485228,1.164081 0.406271,0.332664 -0.315026,-1.059415 1.307556,-0.988685 1.768037,-0.523301 0.681262,0.46018 2.154006,-0.327825 2.415684,0.653572 -0.02788,0.570412 0.82457,0.345562 0.543022,1.09439 0.06052,2.558729 -0.08222,5.117488 -0.02589,7.677098 -0.0074,1.133297 0.02503,2.268893 -0.0319,3.400697 -1.7316,0.108415 -3.481401,0.03571 -5.218065,0.03321 z m -8.335645,-2.858865 c -0.02002,-0.724631 0.05194,-1.535853 1.018774,-1.247878 0.371381,-0.0964 0.605255,0.13259 0.823041,0.399653 0.69994,0.01008 1.407801,0.0014 2.110769,0.0043 0.162702,0.330654 0.449794,1.427653 0.544661,0.472944 -0.284062,-0.925988 0.589121,-0.938232 1.24014,-0.876933 0.356677,-0.08371 0.42146,0.528033 0.795065,0.403989 0.638754,0.02678 1.303146,-0.07022 1.921118,0.07421 -0.106215,0.458675 0.460957,1.286296 0.487798,0.415054 -0.289787,-0.938144 0.588895,-0.957838 1.251869,-0.893249 0.372656,-0.07997 0.427119,0.559881 0.833336,0.403989 0.631104,0.0389 1.308665,-0.107663 1.900726,0.110876 -0.08097,0.465336 0.357874,1.098258 0.321484,0.334204 0.05123,-0.606689 0.226615,-1.439333 -0.712596,-1.145966 -4.295329,-0.0315 -8.590883,-0.01187 -12.886315,-0.01732 0.08316,0.379257 -0.128228,1.636643 0.35013,1.562088 z m 0,-4.443882 c -0.01503,-0.715116 0.04253,-1.534595 1.005425,-1.247878 0.368373,-0.09943 0.594204,0.140757 0.812578,0.398712 0.702073,0.03916 1.430072,-0.06473 2.123068,0.07277 0.07535,0.273613 0.301553,1.297404 0.554783,0.56039 -0.286899,-0.915792 0.431025,-1.173013 1.177092,-1.031876 0.375472,-0.108631 0.432492,0.526159 0.813763,0.403989 0.621623,0 1.243246,0 1.864869,0 0.300557,0.256048 -0.05181,1.223255 0.575833,0.788349 -0.15922,-0.777185 0.144536,-1.454535 1.036178,-1.19231 0.355927,-0.09957 0.555355,0.160443 0.761952,0.403989 0.714273,0.02047 1.440666,-0.05333 2.144827,0.06255 0.08795,0.314383 0.273765,1.256955 0.371705,0.418714 -0.03683,-0.384648 0.110236,-0.967906 -0.0239,-1.266787 -4.530589,0.0082 -9.061907,-0.0098 -13.591904,0.05679 0.05446,0.387134 -0.301564,1.783198 0.373727,1.572597 z"
         id="path9" /><path
         style="fill:#0683ba"
         d="m 21.992507,25.627929 c -2.986918,-0.06233 -5.978447,0.01259 -8.962945,-0.10163 -0.07807,-1.596716 0.01919,-3.203667 -0.07104,-4.803341 -0.02157,-2.276635 -0.0646,-4.560057 -0.05778,-6.832678 0.432294,-0.12058 0.97399,0.02087 0.798228,-0.608238 -0.250583,-0.884382 0.653802,-0.744996 1.229368,-0.738394 0.36057,-0.08773 0.427323,0.526792 0.802567,0.403989 0.626174,0 1.252348,0 1.878522,0 0.163295,0.324892 0.411019,1.382058 0.537615,0.441144 -0.273822,-0.950032 0.579838,-0.882898 1.226865,-0.844933 0.357723,-0.08647 0.419297,0.52856 0.79334,0.40379 0.645746,0.02647 1.315811,-0.06806 1.942024,0.07284 -0.117831,0.51429 0.559138,1.176731 0.481827,0.372003 -0.276302,-1.012982 0.743095,-0.91548 1.431853,-0.815291 0.623573,0.723592 1.714558,0.171298 2.53968,0.428451 0.123548,0.522572 0.275669,0.82349 0.678717,1.014912 0.129902,2.573463 -0.06636,5.149673 -3.87e-4,7.725086 -0.0063,1.282776 0.0292,2.567854 -0.03042,3.849119 -1.731581,0.108391 -3.481435,0.03576 -5.218034,0.03317 z m 4.892419,-1.357372 c 0.01694,-0.608738 0.105542,-1.377414 -0.757475,-1.119924 -1.787625,-0.01161 -3.575445,-0.0048 -5.362997,0.0139 0.498562,-0.149796 1.47504,0.162751 0.855068,0.717647 -0.976357,0.08413 -1.967608,0.09167 -2.946009,0.03876 -0.182765,-0.339661 0.09583,-0.939735 -0.533477,-0.73897 -1.539964,0.01442 -3.082882,-0.03672 -4.62047,0.03778 -0.236486,0.488929 -0.08199,1.153634 -0.123055,1.720598 -0.117548,0.461659 0.500009,0.190438 0.771759,0.263978 4.248644,0.01434 8.497294,0.04143 12.745713,0.08744 -0.0097,-0.3404 -0.01937,-0.680801 -0.02906,-1.021201 z M 13.684612,22.840571 c 0.02118,-0.74306 0.07845,-1.488902 1.048049,-1.229614 0.376548,-0.125646 0.554557,0.179988 0.79081,0.359102 0.680361,0 1.360723,0 2.041084,0 0.164348,0.272137 0.379627,1.378137 0.6331,0.61692 -0.252808,-0.896093 0.407783,-1.08346 1.144259,-0.976026 0.388501,-0.15161 0.418514,0.475513 0.790811,0.359102 0.638842,0.01701 1.288592,-0.0463 1.918208,0.05661 -0.09268,0.421806 0.363901,1.291798 0.590486,0.572199 -0.308831,-0.990003 0.460226,-1.082514 1.200124,-0.987915 0.366935,-0.136596 0.366761,0.492788 0.732302,0.359102 0.643624,0.0266 1.312562,-0.07003 1.935601,0.074 -0.04558,0.436582 0.285993,1.244137 0.476634,0.393707 0.137628,-0.724174 0.102167,-1.561392 -0.863065,-1.282651 -4.270599,-0.02039 -8.542826,-0.06607 -12.812711,5.94e-4 0.04971,0.403165 -0.282744,1.80184 0.374308,1.68487 z m 3.788703,-0.211129 c -0.459719,-0.556052 -1.683301,-0.115843 -2.427117,-0.249774 -0.592828,-0.268546 -1.348739,0.483274 -0.357378,0.390086 0.923359,0.0037 1.84669,-0.0092 2.77003,-0.01415 0.0048,-0.04205 0.0096,-0.08411 0.01446,-0.126161 z m 4.339641,-0.0534 c 0.03741,-0.372573 -0.577854,-0.09805 -0.826858,-0.186659 -0.756975,0.01559 -1.538945,-0.07307 -2.275221,0.05274 -0.189048,0.669318 1.248189,0.193473 1.739097,0.323629 0.454328,-0.0034 0.908655,-0.0068 1.362982,-0.01016 0,-0.05985 0,-0.119699 0,-0.179549 z m 3.927673,0.162423 c 0.337195,0.142328 0.799412,-0.245308 0.350837,-0.343396 -0.951054,-0.0029 -1.902685,-0.03214 -2.853326,9.62e-4 -0.40999,0.502598 0.301603,0.375664 0.615628,0.377961 0.629047,-0.0034 1.258342,-0.0081 1.886861,-0.03553 z m 1.137224,-2.891939 c 0.130441,-0.748863 -0.02633,-1.340266 -0.911177,-1.093227 -4.198044,-0.01039 -8.397654,-0.04965 -12.594905,0.02576 -0.05464,0.462259 -0.248258,1.746685 0.14521,2.02395 4.456056,0.0213 8.912166,0.02488 13.368265,0.02242 -0.0025,-0.3263 -0.0049,-0.652601 -0.0074,-0.978901 z m -8.244442,-0.420104 c -0.182528,-1.047118 1.40031,-0.42057 2.041619,-0.599045 0.492347,-0.185844 1.582274,0.223518 0.792761,0.616643 -0.944106,0.01614 -1.891176,0.02845 -2.83438,-0.0176 z M 13.70175,18.37007 c -0.08392,-0.858086 0.209726,-1.412446 1.132139,-1.202995 0.395875,-0.175639 0.427453,0.408832 0.762984,0.359101 0.661579,0.02138 1.338689,-0.0567 1.9874,0.06449 -0.09414,0.479665 0.518978,1.324939 0.614446,0.44724 -0.323091,-1.023365 0.624417,-0.890921 1.286763,-0.870831 0.26364,0.101662 0.377415,0.516018 0.764984,0.359101 0.592056,0.01396 1.192591,-0.04055 1.777094,0.05611 0.103115,0.369327 -0.005,1.19142 0.601735,0.729675 -0.123934,-0.768603 0.08764,-1.425305 0.996564,-1.141335 0.537636,-0.100851 0.661644,0.572908 1.235749,0.355549 0.559933,0.09223 1.492886,-0.279285 1.731221,0.315634 -0.139013,0.690072 0.544037,0.684846 0.360405,-0.03642 0.05602,-0.616653 0.203101,-1.429747 -0.684075,-1.152315 -4.358241,7.3e-5 -8.716422,0.02696 -13.074624,0.04269 0.01985,0.549884 -8.53e-4,1.103758 0.07439,1.649623 0.108171,0.107662 0.309997,0.104149 0.432825,0.02468 z m 3.689768,-0.18404 c -0.556113,-0.565466 -1.846078,-0.106022 -2.672311,-0.250154 -0.88792,-0.02909 -0.467003,0.635826 0.195973,0.393159 0.825414,0.0087 1.650889,0.0038 2.476333,0.0051 2e-6,-0.04938 3e-6,-0.09876 5e-6,-0.148135 z m 4.37655,-0.05386 c 0.03741,-0.372546 -0.577851,-0.09847 -0.826852,-0.187264 -0.736399,0.01262 -1.489744,-0.06713 -2.211926,0.0511 -0.283643,0.657524 1.206806,0.19685 1.643119,0.32627 0.46522,-0.0035 0.930439,-0.007 1.395659,-0.01055 0,-0.05985 0,-0.119701 0,-0.179551 z m 4.548123,0.05339 c -0.501503,-0.552875 -1.735671,-0.120157 -2.516194,-0.249148 -0.701221,-0.261307 -0.924092,0.630258 -0.166732,0.395199 0.889488,-0.0066 1.778976,-0.01327 2.668464,-0.0199 0.0048,-0.04205 0.0096,-0.0841 0.01446,-0.126151 z m 0.636406,-2.717948 c -0.105788,-0.449365 0.291186,-1.524982 -0.498107,-1.308008 -4.374141,0.01188 -8.748999,-0.03144 -13.122561,0.03764 -0.249908,0.401933 -0.01299,1.161655 -0.03372,1.717938 -0.110706,0.468355 0.192003,0.499305 0.576312,0.44392 4.359354,0 8.718708,0 13.078062,0 4e-6,-0.297164 7e-6,-0.594327 1.1e-5,-0.891491 z m -8.289858,-0.581789 c -0.297645,-1.009526 1.2179,-0.444851 1.797522,-0.591561 0.399266,0 0.798532,0 1.197798,0 0.378588,1.067789 -1.291096,0.470015 -1.876916,0.640129 -0.370212,-0.01683 -0.756821,0.04244 -1.118404,-0.04857 z m -1.248777,-1.309759 c -0.01465,-0.331835 -0.615374,-0.08194 -0.88199,-0.163682 -0.761331,-0.0057 -1.522662,-0.01135 -2.283993,-0.01702 -0.180687,0.703815 1.249032,0.207513 1.725429,0.348384 0.480184,-0.0035 0.960369,-0.0071 1.440553,-0.01058 0,-0.05237 1e-6,-0.104734 1e-6,-0.157101 z m 4.412926,0.01122 c -0.0018,-0.358381 -0.589032,-0.08619 -0.840789,-0.175329 -0.764831,0.01542 -1.55768,-0.07215 -2.299422,0.04979 -0.02479,0.585086 1.311046,0.161942 1.8362,0.293863 0.439315,0 0.878629,0 1.317944,0 -0.0046,-0.05611 -0.0093,-0.112215 -0.01393,-0.168323 z m 4.519725,-0.01122 c -0.01465,-0.331836 -0.615374,-0.082 -0.881989,-0.16376 -0.770033,0.0064 -1.545375,-0.04851 -2.310951,0.034 -0.294613,0.507295 0.44072,0.246841 0.710322,0.304839 0.827539,-0.006 1.655077,-0.01198 2.482616,-0.01797 1e-6,-0.05237 1e-6,-0.104739 2e-6,-0.157109 z"
         id="path3" /><path
         style="fill:#0075a9"
         d="m 21.992507,25.58323 c -2.977309,-0.0394 -5.955108,-0.036 -8.932652,-0.05226 -0.102985,-1.712592 -0.01054,-3.429374 -0.108196,-5.1428 -0.02109,-2.105342 -0.06805,-4.212146 -0.0409,-6.316898 0.08759,-0.549177 1.070903,0.04715 0.799973,-0.711774 -0.287144,-0.956868 0.650106,-0.770718 1.251696,-0.770956 0.340519,-0.0613 0.413098,0.51326 0.792776,0.359367 0.644303,0.04246 1.335227,-0.110639 1.942029,0.117456 0.08835,0.279976 0.05411,0.962643 0.45738,0.685435 0.07334,-0.364543 -0.227706,-1.203272 0.308064,-1.162265 0.610163,-0.05303 1.170683,0.03691 1.650005,0.346582 0.68735,0.171718 2.166795,-0.444466 2.089668,0.679347 0.321485,0.599008 0.566624,-0.390325 0.458596,-0.785281 -0.06232,-0.413919 0.551294,-0.148631 0.817453,-0.232481 0.335106,-0.02338 0.681544,-0.07072 0.833156,0.293968 0.315381,0.116285 0.730384,0.03447 1.0826,0.07751 0.772787,-0.09859 1.379212,0.0431 1.427907,0.86282 0.819592,0.265353 0.209058,1.713384 0.40446,2.45808 0.0026,3.09817 -0.01657,6.196302 -0.02703,9.294445 -1.735628,0.0013 -3.471541,0.02186 -5.206986,-2.9e-4 z m 4.921181,-1.346338 c 0.130123,-0.797508 -0.03318,-1.372454 -0.930292,-1.134577 -4.188083,0.0013 -8.377485,-0.0051 -12.564441,0.08587 -0.08778,0.68104 -0.05032,1.372789 -0.07211,2.058684 4.527801,0.01535 9.055422,0.08066 13.583302,0.06738 -0.0055,-0.359118 -0.01097,-0.718237 -0.01646,-1.077355 z m -8.267606,-0.401745 c -0.345362,-1.047807 1.157012,-0.442552 1.706049,-0.597373 0.442052,0.0039 0.884105,0.0077 1.326158,0.01159 0.252759,0.946032 -0.988748,0.515855 -1.562009,0.615399 -0.489719,-0.0057 -0.981877,0.01045 -1.470198,-0.02961 z m -4.890467,-1.55087 c -0.206536,-0.905437 0.763636,-0.636898 1.337236,-0.673316 0.216101,0.235905 0.423521,0.492018 0.798824,0.387152 0.582856,0.03852 1.200162,-0.0729 1.753437,0.114155 -0.07385,0.753769 0.749348,1.057568 0.599275,0.08223 -0.03521,-0.383495 -0.0047,-0.699935 0.463365,-0.569601 0.312877,0.05523 0.743163,-0.152199 0.96405,0.108818 0.164599,0.368141 0.558784,0.243976 0.884239,0.267192 0.510571,0.11432 1.5691,-0.302144 1.548,0.42558 -0.0043,0.91047 0.88836,0.197099 0.587617,-0.417456 -0.02614,-0.627682 0.938958,-0.380163 1.356732,-0.357655 0.174047,0.345275 0.489759,0.390131 0.844391,0.352456 0.544461,0.01119 1.088923,0.02237 1.633385,0.03356 -0.167282,0.409392 0.352411,1.181243 0.458809,0.542811 -0.07431,-0.449903 0.327212,-1.346769 -0.230838,-1.407277 -4.420474,-0.05275 -8.842613,-0.07848 -13.263049,-0.03312 -0.564405,0.169058 -0.154363,1.264222 -0.09309,1.713615 0.512454,0.119294 0.29462,-0.239509 0.357615,-0.569144 z m 3.762034,0.372397 c -0.391074,-0.696096 -1.73123,-0.162938 -2.503124,-0.32521 -0.444456,-0.274111 -1.399578,0.412333 -0.56715,0.477063 1.018759,0.01446 2.037588,-0.0035 3.056362,-0.008 0.0046,-0.04794 0.0093,-0.09587 0.01391,-0.143809 z m 4.340195,-0.08063 c 0.09786,-0.429189 -0.523051,-0.145027 -0.77174,-0.230279 -0.810832,0.02567 -1.653575,-0.100116 -2.437149,0.07259 -0.23925,0.782759 1.299735,0.232512 1.810241,0.392294 0.466216,-0.0034 0.932432,-0.0068 1.398648,-0.01017 0,-0.07481 0,-0.149625 0,-0.224438 z m 3.927673,0.207311 c 0.363547,0.09279 0.701093,-0.128992 0.461085,-0.432168 -1.041166,0.02152 -2.10129,-0.08808 -3.128119,0.04794 -0.23348,0.813875 1.207673,0.269896 1.726095,0.41098 0.313705,-0.0053 0.627635,-0.0108 0.940939,-0.02675 z m 1.137836,-2.93523 c 0.110706,-0.736031 0.01901,-1.402119 -0.89344,-1.139646 -4.255369,-0.02761 -8.510909,-0.01047 -12.766356,-0.01522 0.0012,0.661927 -0.219822,1.680024 0.18325,2.139798 4.482386,0.07964 8.967248,0.02258 13.450733,0.03725 0.07286,-0.267089 0.0072,-0.700529 0.02581,-1.022185 z m -8.244451,-0.465986 c -0.08598,-0.949076 1.469991,-0.327717 2.102085,-0.508924 0.479147,-0.339176 1.304866,0.445752 0.63193,0.517585 -0.911133,6.81e-4 -1.823856,0.03449 -2.734015,-0.0087 z m -4.923287,-1.554736 c -0.226971,-0.880901 0.709561,-0.628902 1.244499,-0.660215 0.284448,0.0936 0.406416,0.53958 0.807423,0.38626 0.599365,0.0394 1.234031,-0.0734 1.803464,0.115566 -0.182921,0.575184 0.628536,1.17771 0.631707,0.29437 -0.290514,-0.960088 0.662757,-0.795943 1.280975,-0.797694 0.186239,0.320086 0.456028,0.461269 0.825295,0.389441 0.562675,0.01578 1.130184,-0.01111 1.688416,0.06593 0.02032,0.443637 -0.0336,1.084924 0.599937,0.723657 -0.126643,-0.890309 0.259166,-1.358703 1.143361,-1.177652 0.379015,-0.09762 0.437558,0.53273 0.840686,0.384992 0.626185,0.04538 1.295708,-0.08068 1.887193,0.110055 -0.111416,0.547838 0.457087,1.143697 0.479458,0.285317 -0.03688,-0.397036 0.105584,-0.98478 -0.02588,-1.29656 -4.538452,0.01181 -9.077713,-0.02344 -13.615513,0.06011 -0.375702,0.22656 -0.17767,1.294618 -0.02788,1.699326 0.541249,0.151591 0.40938,-0.22159 0.436861,-0.582909 z m 3.680791,0.358624 C 16.97265,17.535062 15.620727,18.04536 14.810347,17.88873 c -0.659682,-0.273422 -1.009709,0.718486 -0.165492,0.481522 0.930445,0.01434 1.861031,0.0069 2.791547,0.0088 10e-7,-0.06434 3e-6,-0.128675 4e-6,-0.193012 z m 4.391277,0.04171 c 0.127005,-0.561247 -0.545736,-0.272968 -0.865768,-0.342456 -0.755783,0.01813 -1.521951,-0.05359 -2.268563,0.07011 -0.341179,0.770226 1.26017,0.279981 1.798501,0.410956 0.440358,-0.0032 0.880715,-0.0065 1.321073,-0.0097 0.0049,-0.04295 0.0098,-0.08591 0.01476,-0.128862 z m 4.533049,-0.0426 c -0.452284,-0.643185 -1.801084,-0.133053 -2.587332,-0.295853 -0.786392,-0.28334 -0.994794,0.767922 -0.08131,0.479585 0.884858,0.0053 1.769685,-0.0074 2.65452,-0.01227 0.0047,-0.05716 0.0094,-0.114309 0.01412,-0.171464 z m 0.614309,-2.916229 c 0.05804,-0.662005 0.09224,-1.469752 -0.829991,-1.176765 -4.218731,-0.02318 -8.438325,-0.04619 -12.656742,0.0086 -0.632989,0.258821 -0.228297,1.737493 -0.169544,2.303461 4.552094,-0.0075 9.104189,-0.01509 13.656283,-0.02264 -2e-6,-0.370876 -4e-6,-0.741753 -6e-6,-1.112629 z m -8.28409,-0.411305 c -0.239033,-0.957069 1.218753,-0.348507 1.771428,-0.50658 0.390341,0.0035 0.780682,0.007 1.171023,0.01057 0.177775,0.93376 -1.210435,0.373225 -1.779268,0.526111 -0.387538,-0.0066 -0.777154,0.0077 -1.163183,-0.0301 z M 17.45885,13.576064 c 0.05667,-0.399219 -0.56803,-0.122057 -0.826866,-0.208079 -0.814102,0.0191 -1.646755,-0.08006 -2.446167,0.05361 -0.151528,0.751864 1.33064,0.20407 1.851935,0.366641 0.4737,-0.0034 0.947399,-0.0068 1.421099,-0.01019 0,-0.06733 -10e-7,-0.134658 -10e-7,-0.201987 z m 4.436398,0.190773 c 0.161194,-0.593753 -0.474546,-0.344481 -0.810619,-0.398808 -0.791752,0.0072 -1.587285,-0.04983 -2.375809,0.02246 -0.473272,0.74774 1.117797,0.270046 1.539273,0.409393 0.548717,-0.0071 1.099865,0.0084 1.647155,-0.03304 z m 4.496253,-0.190773 c 0.05667,-0.399177 -0.568027,-0.122473 -0.826861,-0.208685 -0.816247,0.01619 -1.659542,-0.07612 -2.453099,0.05415 -0.20509,0.733835 1.272209,0.229217 1.776465,0.367121 0.501165,-0.0035 1.00233,-0.0071 1.503495,-0.01059 0,-0.06733 0,-0.134663 0,-0.201995 z"
         id="path2" /><path
         style="fill:#006e9e"
         d="m 21.921435,25.543356 c -2.943134,-0.04121 -5.886856,-0.0343 -8.830268,-0.04961 -0.08266,-1.725562 4.02e-4,-3.452566 -0.09597,-5.17809 -0.02555,-2.138408 -0.08063,-4.278867 -0.02663,-6.416578 0.448816,-0.04611 0.939468,0.02669 0.783668,-0.571897 0.04467,-0.301463 -0.125923,-0.822596 0.356516,-0.677316 0.348096,0.02412 0.753584,-0.07436 1.066822,0.02422 0.151522,0.351378 0.471247,0.351797 0.807162,0.318437 0.567801,0.06495 1.29688,-0.187861 1.72916,0.205682 -0.170534,0.41146 0.323168,0.9368 0.472862,0.459542 -0.04048,-0.683515 0.05417,-1.258334 0.89454,-1.024324 0.348095,-0.06243 0.626038,0.0202 0.783276,0.352407 0.724118,0.04151 1.483264,-0.06173 2.197153,0.0739 0.109684,0.401345 -0.02282,0.938926 0.557262,0.763215 0.114876,-0.442388 -0.217367,-1.357512 0.497292,-1.188641 0.330159,0.09218 0.872246,-0.183936 1.061391,0.156529 0.611204,0.650714 2.263282,-0.358878 2.483857,0.674721 0.01586,0.570543 0.860536,0.379505 0.559714,1.140273 0.02058,3.640519 -0.01505,7.281142 -0.03732,10.921586 -1.752075,0.04248 -3.508208,0.04725 -5.260486,0.01594 z m 5.038059,-1.284021 c 0.09265,-0.77972 0.01542,-1.561347 -0.991598,-1.249748 -4.177993,-0.0027 -8.356315,0.01438 -12.533969,0.06494 -0.221618,0.600546 -0.324258,1.744019 0.0088,2.216148 4.510139,0.08022 9.021389,0.122829 13.532281,0.113272 -0.0052,-0.381537 -0.01036,-0.763073 -0.01554,-1.14461 z m -8.273298,-0.506886 c -0.259679,-0.582037 0.370184,-0.387528 0.701234,-0.418991 0.756139,-0.006 1.512279,-0.01199 2.268418,-0.01798 0.119542,0.900172 -1.196274,0.343796 -1.751838,0.507073 -0.396844,-0.03153 -0.847598,0.07571 -1.217814,-0.0701 z m -4.885694,-1.423284 c -0.186242,-1.061895 1.332836,-0.7302 1.81279,-0.325617 0.725507,0.150842 2.189473,-0.428313 2.137113,0.745335 0.03744,0.277344 0.681648,0.199322 0.484755,-0.189113 -0.145053,-0.762068 0.336873,-1.039251 1.045304,-0.903921 0.382525,-0.16655 0.417665,0.421515 0.752251,0.359102 0.648132,0.01669 1.30575,-0.04534 1.946,0.05611 -0.05573,0.476997 0.412969,1.307083 0.727918,0.58111 0.157107,-0.290222 -0.216093,-1.094737 0.324539,-0.979267 0.332946,0.02391 0.723148,-0.07472 1.021332,0.02358 0.150072,0.348777 0.470487,0.34779 0.803521,0.320891 0.53845,0.09959 1.484786,-0.249037 1.668954,0.289919 -0.171659,0.861237 0.7914,0.558494 0.528317,-0.163959 0.201376,-0.73067 -0.0733,-1.249635 -0.885468,-1.0304 -4.29883,-0.04219 -8.597992,-0.03494 -12.896983,-0.0515 -0.05996,0.521881 -0.311871,1.832245 0.408081,1.835282 0.20919,0.0091 0.06467,-0.420318 0.121576,-0.567552 z m 3.66957,0.555248 c 0.386741,-1.051476 -1.47498,-0.424566 -2.092009,-0.600174 -0.482689,-0.143301 -1.886235,0.105684 -1.057451,0.607855 1.049396,0.01599 2.100594,0.02899 3.14946,-0.0077 z m 4.38188,-0.02918 c 0.326735,-0.579969 -0.188528,-0.603052 -0.610712,-0.553538 -0.85871,0.0074 -1.72114,-0.05117 -2.576716,0.02143 -0.491483,1.005896 1.416207,0.440489 2.004246,0.587999 0.394106,-0.01265 0.79252,0.0041 1.183182,-0.05589 z m 4.448173,-0.01546 c 0.314135,-0.567726 -0.199691,-0.584653 -0.615003,-0.537901 -0.87341,0.0076 -1.752213,-0.05334 -2.62124,0.03221 -0.191065,1.048044 1.531612,0.366815 2.196236,0.54983 0.346589,-0.0106 0.695119,-0.0047 1.040007,-0.04414 z m 0.66923,-2.988747 c 0.06391,-0.705006 0.108361,-1.519992 -0.855046,-1.232204 -4.219568,-0.01438 -8.440155,-0.04181 -12.659291,0.01699 -0.615352,0.314759 -0.155931,1.573526 -0.189307,2.23915 2.85417,0.142505 5.720191,0.05693 8.579129,0.08549 1.710065,2.21e-4 3.42013,-2.47e-4 5.130195,-3.73e-4 -0.0019,-0.369687 -0.0038,-0.739373 -0.0057,-1.10906 z m -8.201281,-0.514377 c -0.262669,-0.584763 0.428461,-0.31478 0.741816,-0.368909 0.692878,0.0058 1.385755,0.01152 2.078633,0.01728 -0.03045,0.76055 -1.369062,0.210085 -1.93676,0.379726 -0.294423,-0.0061 -0.590777,0.0056 -0.883689,-0.0281 z m -4.977345,-1.448516 c -0.209632,-0.891953 0.742162,-0.646464 1.30729,-0.676165 0.162336,0.326757 0.433406,0.42664 0.784715,0.359102 0.558513,0.08705 1.43521,-0.253657 1.732223,0.267702 -0.327586,0.602542 0.759294,0.936199 0.620203,0.277117 -0.141739,-0.753098 0.324958,-1.041355 1.030875,-0.903921 0.390476,-0.156606 0.401447,0.478631 0.774153,0.359102 0.653254,0.0377 1.348004,-0.09936 1.967487,0.101116 -0.236931,0.526699 0.452916,1.226864 0.698957,0.536079 0.157097,-0.290666 -0.216073,-1.09381 0.324519,-0.980223 0.51917,-0.07622 1.016835,0.007 1.339259,0.343034 0.687103,0.018 1.384509,-0.04863 2.062828,0.05948 -0.02,0.415049 0.416926,1.32625 0.57743,0.462961 0.06808,-0.729318 0.293266,-1.839221 -0.834541,-1.480159 -4.275415,-0.0023 -8.551991,-0.0152 -12.82665,0.06081 -0.4527,0.211507 -0.253841,1.367011 -0.03519,1.780543 0.547496,0.139617 0.480156,-0.162952 0.476439,-0.566575 z m 3.713531,0.479689 c 0.173367,-0.593891 -0.307702,-0.530148 -0.707983,-0.50983 -0.881451,0.01898 -1.776955,-0.08374 -2.646267,0.05897 -0.298402,0.907299 1.321142,0.345886 1.890202,0.506806 0.485388,-0.02109 0.986407,0.03661 1.464048,-0.05595 z m 4.353584,-0.23566 c 0.121342,-0.46746 -0.495107,-0.202669 -0.771741,-0.275143 -0.827571,0.01718 -1.668463,-0.0801 -2.484281,0.06081 -0.368035,0.90348 1.253571,0.342154 1.779798,0.494237 0.492075,-0.0035 0.984149,-0.0071 1.476224,-0.01058 0,-0.08977 0,-0.179548 0,-0.269322 z m 4.547021,0.01122 c 0.119975,-0.473494 -0.458356,-0.219996 -0.729977,-0.285807 -0.861338,0.0039 -1.725962,-0.04399 -2.584516,0.02871 -0.361647,0.96527 1.298626,0.369085 1.870418,0.537637 0.485815,0 0.971631,0 1.457446,0 -0.0045,-0.09351 -0.0089,-0.187026 -0.01337,-0.280539 z m 0.589514,-1.691641 c 0.05757,-0.753034 0.162778,-1.746909 -0.08093,-2.404361 -4.587942,0 -9.175883,0 -13.763825,0 0.02287,0.796565 -0.01073,1.597966 0.07756,2.39027 3.408681,0.108558 6.825471,0.03439 10.237249,0.05045 1.176506,-0.0099 2.354093,0.0036 3.529942,-0.03636 z m -8.25623,-1.814948 c -0.06155,-0.406463 0.565385,-0.124449 0.826888,-0.207863 0.681975,0 1.363949,0 2.045924,0 0.147108,0.468879 -0.284831,0.358938 -0.606385,0.359338 -0.755224,0.01235 -1.515903,-0.0343 -2.266427,0.0564 0,-0.06929 0,-0.138582 0,-0.207873 z m -1.211968,-1.032794 c -0.40345,-0.723887 -1.813216,-0.160442 -2.622604,-0.323455 -0.844333,-0.326088 -1.192844,0.840184 -0.161137,0.557991 0.927868,0.01137 1.855826,0.0053 2.78374,0.0069 0,-0.08046 1e-6,-0.160929 1e-6,-0.241393 z m 4.413993,0.0037 c -0.403648,-0.719274 -1.746771,-0.176156 -2.522749,-0.343933 -0.692084,-0.326586 -1.371774,0.733276 -0.356337,0.570326 0.962187,0.008 1.924363,-0.0063 2.886533,-0.01111 -0.0025,-0.07176 -0.005,-0.143524 -0.0074,-0.215286 z m 4.542046,0.09138 c -0.104581,-0.844867 -1.413481,-0.259217 -2.032179,-0.425984 -0.445158,0.03194 -0.944479,-0.04842 -1.355598,0.05408 -0.494184,0.923672 1.247345,0.35527 1.75191,0.518252 0.536136,0 1.072273,0 1.608409,0 0.0092,-0.04878 0.01831,-0.09757 0.02746,-0.146352 z"
         id="path1" /></g></g></svg>
