<svg xmlns="http://www.w3.org/2000/svg" viewBox="0 0 32 32"><title>folder_type_gcp</title><path d="M27.5,5.5H18.2L16.1,9.7H4.4V26.5H29.6V5.5Zm0,4.2H19.3l1.1-2.1h7.1Z" style="fill:#c09553"/><polygon points="16.685 28.04 12.996 21.646 16.685 15.255 24.069 15.255 27.761 21.646 24.069 28.04 16.685 28.04" style="fill:#cfcecb"/><path d="M17.312,27.236l-3.28-5.612-1.8-3.076a1.5,1.5,0,0,1-.164-.836l-1.893,3.275a1.583,1.583,0,0,0,0,1.425l4.547,7.878A1.58,1.58,0,0,0,15.957,31h5.413a1.446,1.446,0,0,0,.516-.492l1.853-3.275H17.312Z" style="fill:#f4b51a"/><polygon points="30.837 20.987 26.287 13.109 28.137 16.312 30.837 20.987" style="fill:#dd462f"/><path d="M30.837,20.987l-2.7-4.676a1.491,1.491,0,0,0-.742-.234H23.733L26.9,21.657l-3.157,5.579-1.853,3.275a1.423,1.423,0,0,1-.516.492h3.684a1.58,1.58,0,0,0,1.234-.713l1.81-3.132,2.74-4.746A1.592,1.592,0,0,0,30.837,20.987Z" style="fill:#dd462f"/><path d="M26.287,13.109a1.58,1.58,0,0,0-1.234-.713H15.959a1.58,1.58,0,0,0-1.234.713l-2.659,4.606a1.53,1.53,0,0,0,.164.836l1.8,3.076,3.21-5.55h10.15a1.491,1.491,0,0,1,.742.234Z" style="fill:#517dbf"/><polygon points="14.031 21.625 17.312 27.236 23.741 27.236 26.897 21.657 23.733 16.078 17.242 16.078 14.031 21.625" style="fill:#efefef"/><path d="M12.182,17.514l-.116.2a1.53,1.53,0,0,0,.164.836l1.8,3.076.957-1.654Z" style="fill:#4f71a9"/><path d="M28.258,16.521l-.121-.21a1.491,1.491,0,0,0-.742-.234H23.735l.952,1.681Z" style="fill:#c3432f"/><path d="M21.063,31h.315a1.446,1.446,0,0,0,.516-.492l1.853-3.275H21.773Z" style="fill:#d19d2a"/><path d="M20.5,24.566a2.877,2.877,0,1,1,2.877-2.877A2.88,2.88,0,0,1,20.5,24.566Z" style="fill:#fff"/><path d="M20.5,18.853a2.837,2.837,0,1,1-2.837,2.837A2.837,2.837,0,0,1,20.5,18.853m0-.083a2.917,2.917,0,1,0,2.917,2.917A2.922,2.922,0,0,0,20.5,18.769Z" style="fill:#cac8c6"/></svg>