<svg xmlns="http://www.w3.org/2000/svg" xmlns:xlink="http://www.w3.org/1999/xlink" viewBox="0 0 32 32"><defs><linearGradient id="a" x1="43.158" y1="37.349" x2="33.043" y2="43.755" gradientTransform="matrix(0.881, 0.142, 0.178, -1.106, -21.317, 58.755)" gradientUnits="userSpaceOnUse"><stop offset="0" stop-color="#d0d0d0"/><stop offset="1" stop-color="#a6a3a3"/></linearGradient><linearGradient id="b" x1="14.954" y1="46.537" x2="13.933" y2="42.993" gradientTransform="matrix(1.005, 0.162, 0.156, -0.97, 4.568, 58.302)" gradientUnits="userSpaceOnUse"><stop offset="0" stop-color="#eeeeef"/><stop offset="1" stop-color="#eeeeef" stop-opacity="0"/></linearGradient><linearGradient id="c" x1="5.363" y1="31.091" x2="8.801" y2="37.902" xlink:href="#b"/><linearGradient id="d" x1="24.296" y1="102.44" x2="21.711" y2="99.374" gradientTransform="matrix(1.003, 0, 0, -0.997, 1.837, 126.405)" xlink:href="#a"/><linearGradient id="e" x1="14.56" y1="114.638" x2="10.67" y2="109.923" gradientTransform="matrix(1.012, 0, 0, -0.988, 3.731, 126.101)" gradientUnits="userSpaceOnUse"><stop offset="0" stop-color="#fded00"/><stop offset="1" stop-color="#eaa600"/></linearGradient><linearGradient id="f" x1="32.368" y1="95.269" x2="29.284" y2="98.289" gradientTransform="matrix(0.986, 0, 0, -1.015, -1.657, 126.979)" xlink:href="#b"/><linearGradient id="g" x1="39.613" y1="93.818" x2="39.486" y2="93.942" gradientTransform="matrix(0.954, 0, 0, -1.048, -8.046, 128.084)" gradientUnits="userSpaceOnUse"><stop offset="0" stop-color="#fff"/><stop offset="1" stop-color="#fff" stop-opacity="0"/></linearGradient><linearGradient id="h" x1="-14.079" y1="122.857" x2="-16.35" y2="120.246" gradientTransform="matrix(1.152, 0, 0, -0.868, 32.135, 122.142)" xlink:href="#e"/><linearGradient id="i" x1="38.008" y1="105.932" x2="35.692" y2="104.094" gradientTransform="matrix(0.911, 0, 0, -1.098, -16.917, 129.744)" xlink:href="#e"/><linearGradient id="j" x1="9.622" y1="111.585" x2="11.428" y2="113.901" gradientTransform="matrix(1.019, 0, 0, -0.981, 5.096, 125.886)" xlink:href="#e"/></defs><title>folder_type_tools</title><path d="M27.5,5.5H18.2L16.1,9.7H4.4V26.5H29.6V5.5Zm0,4.2H19.3l1.1-2.1h7.1Z" style="fill:#c1bc53"/><path d="M26.181,11.507a3.758,3.758,0,0,0-2.773,4.764,52.857,52.857,0,0,1-7.555,7.586,3.768,3.768,0,0,0-3.211,5.9l.9-2.475a1.185,1.185,0,0,1,1.523-.709l1.8.656a1.185,1.185,0,0,1,.709,1.523l-.941,2.58a3.782,3.782,0,0,0,2.572-5.319c1.6-1.913,5.512-5.929,7.4-7.043a3.779,3.779,0,0,0,3.57-5.887l-.9,2.475a1.185,1.185,0,0,1-1.523.709l-1.8-.656a1.185,1.185,0,0,1-.709-1.523Z" style="fill:url(#a)"/><path d="M16.635,31.478a.148.148,0,0,1-.139-.2l.941-2.58a1.041,1.041,0,0,0-.62-1.332l-1.8-.656a1.036,1.036,0,0,0-1.332.62l-.9,2.475a.148.148,0,0,1-.121.1.146.146,0,0,1-.141-.064,3.916,3.916,0,0,1,3.26-6.132H15.8a52.988,52.988,0,0,0,7.441-7.464,3.906,3.906,0,0,1,2.9-4.881.148.148,0,0,1,.173.2l-.941,2.58A1.04,1.04,0,0,0,26,15.469l1.8.656a1.04,1.04,0,0,0,1.332-.62l.9-2.475A.148.148,0,0,1,30.3,13a3.928,3.928,0,0,1-3.659,6.123c-1.888,1.141-5.722,5.1-7.256,6.914a3.93,3.93,0,0,1-2.713,5.44A.138.138,0,0,1,16.635,31.478ZM14.659,26.35a1.339,1.339,0,0,1,.461.082l1.8.656a1.338,1.338,0,0,1,.8,1.713l-.843,2.31a3.632,3.632,0,0,0,2.2-5.036.148.148,0,0,1,.02-.159c1.556-1.855,5.48-5.921,7.434-7.076a.153.153,0,0,1,.093-.02,3.639,3.639,0,0,0,3.848-2.369,3.6,3.6,0,0,0-.26-3.033l-.8,2.188a1.333,1.333,0,0,1-1.713.8l-1.8-.656a1.337,1.337,0,0,1-.8-1.713l.843-2.31a3.607,3.607,0,0,0-2.393,4.5.149.149,0,0,1-.02.127,52.726,52.726,0,0,1-7.587,7.619.135.135,0,0,1-.092.03,3.636,3.636,0,0,0-3.5,2.381,3.6,3.6,0,0,0,.26,3.033l.8-2.188a1.334,1.334,0,0,1,1.252-.879Z" style="fill:#606060"/><path d="M25.965,11.767a3.161,3.161,0,0,0-2.382,2.252,3.648,3.648,0,0,0-.053,2.334,5.5,5.5,0,0,0,2.924,2.462,3.562,3.562,0,0,0,3.962-2.2,3.671,3.671,0,0,0-.171-3.379l-.9,2.475a1.185,1.185,0,0,1-1.523.709l-2.019-.73a1.185,1.185,0,0,1-.709-1.523Z" style="fill:url(#b)"/><path d="M16.832,31.277a3.491,3.491,0,0,0,2.45-2.434,3.648,3.648,0,0,0,.053-2.334,5.5,5.5,0,0,0-2.924-2.462,3.562,3.562,0,0,0-3.962,2.2,3.671,3.671,0,0,0,.171,3.379l.9-2.475a1.185,1.185,0,0,1,1.523-.709l2.019.73a1.185,1.185,0,0,1,.709,1.523Z" style="fill:url(#c)"/><path d="M19.646,21.333l1.24-1.436,6.82,6.983c.6.327,1.006-.033,1.566.408a15.471,15.471,0,0,1,1.594,2.132l-1.392,1.442c-.894-.624-2.131-1.095-2.415-1.719-.327-.4.261-.885-.1-1.251Z" style="fill:url(#d)"/><path d="M29.486,30.994l-.071-.05c-.294-.205-.629-.4-.953-.579A3.633,3.633,0,0,1,26.972,29.2a.738.738,0,0,1-.051-.711c.066-.234.1-.385-.037-.522L19.5,21.342l1.377-1.6L27.768,26.8a1.364,1.364,0,0,0,.68.14,1.294,1.294,0,0,1,.887.27,5.757,5.757,0,0,1,.986,1.251c.193.294.392.6.625.9l.054.07Zm-9.7-9.67,7.235,6.492a.66.66,0,0,1,.093.724c-.057.2-.107.38.021.539l.013.022a3.507,3.507,0,0,0,1.412,1.088c.3.172.614.349.9.54l1.272-1.317c-.215-.283-.4-.567-.581-.842a5.629,5.629,0,0,0-.944-1.2,1.1,1.1,0,0,0-.763-.224,1.563,1.563,0,0,1-.786-.172l-.024-.018-6.742-6.9Z" style="fill:#606060"/><path d="M21.31,19.506c.122-.455-1.013-.529-1.691-1.251C18,16.8,15.246,11.721,14.165,11.218,11.612,9.931,9.1,12,10.51,14.677c.71,1.207,5.613,3.4,7.543,5.221.548.544.9,2,1.3,1.86A4.023,4.023,0,0,0,21.31,19.506Z" style="fill:url(#e)"/><path d="M19.3,21.866c-.268,0-.466-.4-.709-.9a4.049,4.049,0,0,0-.608-1,25.832,25.832,0,0,0-4.02-2.712c-1.693-1.009-3.156-1.88-3.538-2.53a2.664,2.664,0,0,1,.25-3.238,2.986,2.986,0,0,1,3.538-.363c.585.272,1.609,1.783,2.692,3.381a24.327,24.327,0,0,0,2.785,3.671,3.327,3.327,0,0,0,1.058.68c.4.188.75.35.664.673A4.093,4.093,0,0,1,19.4,21.847.3.3,0,0,1,19.3,21.866Zm-6.711-10.94a2.437,2.437,0,0,0-1.77.707,2.469,2.469,0,0,0-.218,3c.354.6,1.865,1.5,3.465,2.454a25.913,25.913,0,0,1,4.058,2.74,4.16,4.16,0,0,1,.649,1.056c.173.351.413.828.547.783a3.877,3.877,0,0,0,1.894-2.181h0c.041-.151-.173-.259-.553-.436a3.479,3.479,0,0,1-1.114-.719,24.372,24.372,0,0,1-2.811-3.7c-1.02-1.506-2.075-3.062-2.612-3.312A3.424,3.424,0,0,0,12.587,10.925Z" style="fill:#aa4200"/><path d="M27.356,26.881c.6.327,1.2,0,1.757.446a14.322,14.322,0,0,1,1.632,2.056L29.391,30.71c-.894-.624-1.864-1.019-2.148-1.642-.327-.4-.044-1.228-.408-1.594Z" style="fill:url(#f)"/><path d="M28.887,26.987a1.928,1.928,0,0,0-1.388.669,4.37,4.37,0,0,0-.638,1.075l.176.232a2.722,2.722,0,0,1,.456-1.221,2.688,2.688,0,0,1,1.592-.573Z"/><path d="M29.386,30.832,30.8,29.383s-.419-.267-.419-.457-1.449,1.411-1.449,1.411C29,30.6,29.31,30.6,29.386,30.832Z" style="fill:url(#g)"/><path d="M11.24,15.163s-.5-.3-.038-.839,7.624,4.841,6.328,4.994C15.243,17.679,11.773,15.545,11.24,15.163Z" style="fill:url(#h)"/><path d="M13.851,12.456c-.419-.762.191-.915.762-.648.724.648,3.812,5.375,4.232,5.756C18.883,18.441,14.308,13.371,13.851,12.456Z" style="fill:url(#i)"/><path d="M12.589,13.776c-.506-.708-.026-1.187.573-.99.749.487,5.485,5.538,5.217,5.74C18.254,18.744,13.151,14.631,12.589,13.776Z" style="fill:url(#j)"/></svg>