<svg xmlns="http://www.w3.org/2000/svg" viewBox="0 0 32 32"><title>folder_type_nginx</title><path d="M27.5,5.5H18.2L16.1,9.7H4.4V26.5H29.6V5.5Zm0,4.2H19.3l1.1-2.1h7.1Z" style="fill:#55bf7b"/><path d="M21.761,10h.048a7.814,7.814,0,0,1,.729.4q4.072,2.341,8.144,4.685a.594.594,0,0,1,.311.591c-.006,3.292,0,6.582,0,9.873a.61.61,0,0,1-.267.381l-8.66,4.983a.44.44,0,0,1-.493.028q-4.335-2.484-8.662-4.981a.522.522,0,0,1-.3-.5q0-4.936,0-9.872a.52.52,0,0,1,.29-.5q4.07-2.339,8.136-4.681c.242-.138.478-.284.731-.4" style="fill:#019639"/><path d="M16.375,16.4q0,4.072,0,8.144a1.132,1.132,0,0,0,.321.815,1.235,1.235,0,0,0,1.545.155,1.173,1.173,0,0,0,.514-.97c0-1.965,0-3.93,0-5.9q2.688,3.218,5.386,6.426a2.124,2.124,0,0,0,1.954.587,1.171,1.171,0,0,0,.939-1.028q.006-4.156,0-8.311a1.186,1.186,0,0,0-2.364,0c0,2-.012,3.991,0,5.987-1.76-2.074-3.5-4.167-5.248-6.249a2.113,2.113,0,0,0-2-.789A1.184,1.184,0,0,0,16.375,16.4Z" style="fill:#fff"/></svg>