<svg xmlns="http://www.w3.org/2000/svg" viewBox="0 0 32 32"><title>folder_type_light_mysql</title><path d="M27.917,6H18.143l-2,4H5V27H30V6ZM28,10H20.19l1.048-2H28Z" style="fill:#c09553"/><path d="M16.018,14.715a2.267,2.267,0,0,0-.591.072v.029h.028a4.784,4.784,0,0,0,.461.591c.116.231.217.46.332.691l.028-.029a.81.81,0,0,0,.3-.721,3.194,3.194,0,0,1-.173-.3c-.086-.144-.274-.216-.39-.331" style="fill:#5d87a1;fill-rule:evenodd"/><path d="M30.328,27.286a6.676,6.676,0,0,0-2.8.4c-.216.086-.562.086-.591.36.116.115.13.3.232.462a3.376,3.376,0,0,0,.749.879c.3.231.605.46.923.662.562.347,1.2.548,1.743.894.318.2.634.461.953.678.158.115.258.3.46.374v-.044a2.918,2.918,0,0,0-.22-.462c-.144-.143-.288-.274-.433-.417a6.878,6.878,0,0,0-1.5-1.455c-.462-.318-1.471-.75-1.658-1.282l-.029-.029a5.843,5.843,0,0,0,1-.232c.489-.129.936-.1,1.441-.229.231-.058.649-.2.649-.2V27.42c-.258-.256-.442-.6-.713-.841a19.049,19.049,0,0,0-2.352-1.753c-.443-.285-1.013-.47-1.483-.713-.17-.086-.455-.128-.555-.271a5.714,5.714,0,0,1-.585-1.1c-.413-.783-.813-1.652-1.169-2.48a15.136,15.136,0,0,0-.727-1.625,14.371,14.371,0,0,0-5.517-5.331,6.818,6.818,0,0,0-1.824-.585c-.357-.015-.713-.043-1.069-.057a5.792,5.792,0,0,1-.656-.5c-.813-.513-2.907-1.625-3.506-.157-.385.927.57,1.839.9,2.31a6.683,6.683,0,0,1,.726,1.069c.1.242.128.5.229.756a17.035,17.035,0,0,0,.741,1.911,6.726,6.726,0,0,0,.527.883c.115.158.314.228.357.486a4.086,4.086,0,0,0-.328,1.069,6.276,6.276,0,0,0,.414,4.789c.228.356.77,1.141,1.5.841.641-.256.5-1.069.684-1.781.043-.172.014-.285.1-.4v.14s.364.8.544,1.209a8.152,8.152,0,0,0,1.8,1.951,2.634,2.634,0,0,1,.663.875v.258h.322a.8.8,0,0,0-.319-.593,7.1,7.1,0,0,1-.722-.874,18.765,18.765,0,0,1-1.555-2.651c-.223-.453-.417-.947-.6-1.4-.083-.174-.083-.437-.222-.524a5.458,5.458,0,0,0-.666.989,8.569,8.569,0,0,0-.389,2.2c-.055.015-.028,0-.055.029-.444-.116-.6-.6-.764-1a6.6,6.6,0,0,1-.125-3.89c.1-.3.515-1.267.347-1.558-.084-.278-.361-.437-.514-.656a5.881,5.881,0,0,1-.5-.932c-.333-.815-.5-1.719-.861-2.534a7.844,7.844,0,0,0-.694-1.122,7.236,7.236,0,0,1-.764-1.136.707.707,0,0,1-.056-.6.227.227,0,0,1,.2-.19c.18-.16.694.043.874.131a6.924,6.924,0,0,1,1.374.728c.2.146.652.516.652.516h.135c.461.1.981.028,1.413.158a9.189,9.189,0,0,1,2.075.994,12.786,12.786,0,0,1,4.5,4.93c.173.331.246.634.4.979.3.708.678,1.429.98,2.12a9.482,9.482,0,0,0,1.024,1.932c.216.3,1.081.461,1.47.62a10.54,10.54,0,0,1,1,.4c.49.3.979.649,1.441.981.23.173.951.533.994.822" style="fill:#00758f;fill-rule:evenodd"/></svg>