<svg viewBox="0 0 32 32" xmlns="http://www.w3.org/2000/svg"><path d="m27.4 5.5h-9.2l-2.1 4.2h-11.8v16.8h25.2v-21zm0 18.7h-20.8v-12.4h20.8zm0-14.5h-8.2l1-2.1h7.1v2.1z" fill="#7baddb"/><path d="m25.7 13.7h-25.2l3.8 12.8h25.2z" fill="#7baddb"/><path d="m17.344 23.685a4.575 4.575 0 0 0 3.2 1.33v-1.89a2.578 2.578 0 0 1 -1.862-.77z" fill="#3f5364"/><path d="m22.187 16.3-.7 1.75a2.828 2.828 0 0 1 1.338 1.12h2.037a4.555 4.555 0 0 0 -2.675-2.87z" fill="#3f5364"/><path d="m16.006 20.5a4.585 4.585 0 0 0 .385 1.82l1.725-.77a2.557 2.557 0 0 1 -.21-1.05 2.65 2.65 0 0 1 2.632-2.625v-1.89a4.534 4.534 0 0 0 -4.532 4.515z" fill="#f18b21"/><path d="m21.48 22.95.7 1.75a4.536 4.536 0 0 0 2.7-2.9h-2.035a2.69 2.69 0 0 1 -1.365 1.15z" fill="#f18b21"/><g fill="#3f5364"><path d="m20.535 25.225a4.725 4.725 0 1 1 4.565-6.025h1.827a6.493 6.493 0 1 0 0 2.625h-1.827a4.725 4.725 0 0 1 -4.565 3.4z"/><path d="m20.535 13.78v-1.78a8.494 8.494 0 0 0 -7.935 5.42l1.65.63a6.786 6.786 0 0 1 6.285-4.27z"/><path d="m20.535 27.22v1.78a8.53 8.53 0 0 0 8.428-7.175h-1.827a6.7 6.7 0 0 1 -6.601 5.395z"/></g><path d="m27.171 19.2h1.792a8.55 8.55 0 0 0 -5.341-6.615l-.63 1.645a6.834 6.834 0 0 1 4.179 4.97z" fill="#f18b21"/><path d="m13.795 20.5h-1.795a8.521 8.521 0 0 0 5.376 7.91l.665-1.645a6.772 6.772 0 0 1 -4.246-6.265z" fill="#f18b21"/><path d="m29.173 19.2h1.792a10.847 10.847 0 0 0 -1.512-4.235l-1.512.945a7.846 7.846 0 0 1 1.232 3.29z" fill="#3f5364"/><path d="m10 20.507a11.055 11.055 0 0 0 .931 4.536l1.736-.714a9.336 9.336 0 0 1 -.861-3.825" fill="#3f5364"/><path d="m20.535 29.215a8.724 8.724 0 0 1 -6.181-2.555l-1.267 1.26a10.384 10.384 0 0 0 7.448 3.08 10.561 10.561 0 0 0 10.465-9.2h-1.792a8.789 8.789 0 0 1 -8.673 7.415z" fill="#f18b21"/><path d="m20.535 11.785a8.535 8.535 0 0 1 5.229 1.75l1.092-1.435a10.573 10.573 0 0 0 -16.156 4.585l1.687.665a8.764 8.764 0 0 1 8.148-5.565z" fill="#f18b21"/></svg>