<svg xmlns="http://www.w3.org/2000/svg" xmlns:xlink="http://www.w3.org/1999/xlink" viewBox="0 0 32 32"><defs><linearGradient id="a" x1="20.813" y1="19.026" x2="20.813" y2="1" gradientTransform="matrix(1, 0, 0, -1, 0, 32)" gradientUnits="userSpaceOnUse"><stop offset="0" stop-color="#c22127"/><stop offset="0.088" stop-color="#b52127"/><stop offset="0.517" stop-color="#792026"/><stop offset="0.834" stop-color="#531f25"/><stop offset="1" stop-color="#451f25"/></linearGradient><linearGradient id="b" x1="12.668" y1="16.133" x2="12.668" y2="14.762" xlink:href="#a"/><linearGradient id="c" x1="11.71" y1="11.631" x2="11.71" y2="10.319" xlink:href="#a"/><linearGradient id="d" x1="15.844" y1="11.462" x2="15.844" y2="9.841" xlink:href="#a"/><linearGradient id="e" x1="8.153" y1="14.476" x2="8.153" y2="13.478" xlink:href="#a"/><linearGradient id="f" x1="9.922" y1="16.131" x2="9.922" y2="15.032" xlink:href="#a"/><linearGradient id="g" x1="6.825" y1="12.193" x2="6.825" y2="11.36" xlink:href="#a"/><linearGradient id="h" x1="13.306" y1="9.947" x2="13.306" y2="8.766" xlink:href="#a"/><linearGradient id="i" x1="14.517" y1="8.059" x2="14.517" y2="7.136" xlink:href="#a"/><linearGradient id="j" x1="9.037" y1="11.353" x2="9.037" y2="10.566" xlink:href="#a"/><linearGradient id="k" x1="5.443" y1="14.007" x2="5.443" y2="13.219" xlink:href="#a"/><linearGradient id="l" x1="11.067" y1="9.185" x2="11.067" y2="8.399" xlink:href="#a"/><linearGradient id="m" x1="10.758" y1="13.704" x2="10.758" y2="12.643" xlink:href="#a"/></defs><title>folder_type_ravendb</title><path d="M27.5,5.5H18.2L16.1,9.7H4.4V26.5H29.6V5.5Zm0,4.2H19.3l1.1-2.1h7.1Z" style="fill:#e77377"/><path d="M27.7,21.175A6.026,6.026,0,0,0,24.047,19.2a10.3,10.3,0,0,0-3.578.089,7.942,7.942,0,0,1-.082,2.742c-.765-8.216-6.213-8.655-9.76-9.057a7.26,7.26,0,0,1,3.206,2.453h1.121l-.2,1.148h.624l-.16.874c.021.037.042.076.063.115h-.77l-.152.771H13.1l-.314,1.6h1.51L14.4,19.4h1.479l.225-1.154h.658l-.181,1.023h.912l-.215,1.219h1l-.325,1.851h-.277l-.134.764H16.32l-.274,1.5H17.46l.084-.459H18.66L18.386,25.7h-.937a18.59,18.59,0,0,1-.662,5.3c3.018-.84,4.574-5.067,8.275-6.763,3.2-1.466,5.989,0,5.937-.59-.1-1.1-2.609-2.33-3.3-2.474m-2.906-.108c-.629-.572.633-.466,1.588.309a1.851,1.851,0,0,1-1.588-.309" style="fill:url(#a)"/><polygon points="13.441 15.867 12.145 15.867 11.894 17.238 13.189 17.238 13.441 15.867" style="fill:url(#b)"/><polygon points="10.971 21.681 12.209 21.681 12.449 20.369 11.211 20.369 10.971 21.681" style="fill:url(#c)"/><polygon points="16.758 20.538 15.227 20.538 14.931 22.159 16.461 22.159 16.758 20.538" style="fill:url(#d)"/><polygon points="7.773 17.524 7.59 18.522 8.532 18.522 8.715 17.524 7.773 17.524" style="fill:url(#e)"/><polygon points="10.541 15.869 9.503 15.869 9.302 16.968 10.34 16.968 10.541 15.869" style="fill:url(#f)"/><polygon points="6.355 20.64 7.141 20.64 7.295 19.807 6.509 19.807 6.355 20.64" style="fill:url(#g)"/><polygon points="12.64 23.234 13.754 23.234 13.971 22.053 12.857 22.053 12.64 23.234" style="fill:url(#h)"/><polygon points="13.997 24.864 14.867 24.864 15.037 23.941 14.166 23.941 13.997 24.864" style="fill:url(#i)"/><polygon points="8.594 21.434 9.337 21.434 9.48 20.647 8.737 20.647 8.594 21.434" style="fill:url(#j)"/><polygon points="5 18.781 5.743 18.781 5.886 17.993 5.144 17.993 5 18.781" style="fill:url(#k)"/><polygon points="10.624 23.601 11.367 23.601 11.511 22.815 10.769 22.815 10.624 23.601" style="fill:url(#l)"/><polygon points="11.357 18.296 10.354 18.296 10.159 19.357 11.162 19.357 11.357 18.296" style="fill:url(#m)"/></svg>