<svg xmlns="http://www.w3.org/2000/svg" viewBox="0 0 32 32"><title>folder_type_controller_opened</title><path d="M27.9,6H18.2l-2,4H5V27H30V6ZM28,24H7V12H28Zm.1-14H20.3l1-2H28Z" style="fill:#dbc27b"/><polygon points="25.9 14 0.3 14 4.1 27 29.7 27 25.9 14" style="fill:#dbc27b"/><path d="M7.438,11.219a2.315,2.315,0,0,1,4.25.418,2.359,2.359,0,0,1,.013,1.309,2.313,2.313,0,1,1-4.263-1.727m1.9.1a1,1,0,0,0-.6,1.665,1,1,0,0,0,1.512-1.316A1.009,1.009,0,0,0,9.333,11.32Z" style="fill:#509ff7"/><path d="M7.509,19.258a2.314,2.314,0,0,1,4.185.562,2.359,2.359,0,0,1,0,1.309,2.313,2.313,0,1,1-4.186-1.871m1.729.243a1,1,0,1,0,1,.32A1.006,1.006,0,0,0,9.238,19.5Z" style="fill:#509ff7"/><path d="M7.429,27.61a2.313,2.313,0,0,1,4.263.416,2.35,2.35,0,0,1,0,1.309A2.313,2.313,0,1,1,7.429,27.61m1.826.1a1,1,0,1,0,.863.21A1.006,1.006,0,0,0,9.255,27.709Z" style="fill:#509ff7"/><path d="M11.688,11.637a8.491,8.491,0,0,1,1.325.056A3.6,3.6,0,0,1,16,15.2a2.293,2.293,0,0,0,2.177,2.312c.352.01.7,0,1.056,0,0,.436,0,.872,0,1.308a7.453,7.453,0,0,1-1.828-.112A3.6,3.6,0,0,1,14.7,15.3a2.368,2.368,0,0,0-.332-1.245,2.29,2.29,0,0,0-1.454-1.049,6.331,6.331,0,0,0-1.208-.06A2.359,2.359,0,0,0,11.688,11.637Z" style="fill:#014798"/><path d="M27.908,18.027a.655.655,0,0,1,.916.014q.988.979,1.968,1.967a.659.659,0,0,1,.024.932q-.993,1-1.993,1.993a.652.652,0,0,1-.948-.894c.29-.3.591-.594.886-.891-2.035-.017-4.071,0-6.107-.008,0-.435,0-.87,0-1.306,2.036-.006,4.072,0,6.108,0-.289-.3-.6-.59-.885-.894A.654.654,0,0,1,27.908,18.027Z" style="fill:#014798"/><path d="M11.694,19.82q3.769,0,7.539,0c0,.437,0,.874,0,1.311-2.512-.005-5.025,0-7.537,0A2.359,2.359,0,0,0,11.694,19.82Z" style="fill:#014798"/><path d="M17.661,22.2a10.564,10.564,0,0,1,1.571-.059c0,.437,0,.873,0,1.31-.4.01-.808-.019-1.21.018a2.289,2.289,0,0,0-1.8,1.28A2.477,2.477,0,0,0,16,25.831a3.593,3.593,0,0,1-3.3,3.487c-.334.026-.669.013-1,.017a2.35,2.35,0,0,0,0-1.309,4.46,4.46,0,0,0,1.453-.125,2.3,2.3,0,0,0,1.544-2.111,3.639,3.639,0,0,1,.685-2.15A3.6,3.6,0,0,1,17.661,22.2Z" style="fill:#014798"/><path d="M19.235,16.326a.65.65,0,0,1,.424-.589,1.147,1.147,0,0,1,.4-.044c.647,0,1.293,0,1.939,0a.656.656,0,0,1,.579.355,1.1,1.1,0,0,1,.073.531q0,1.626,0,3.252c0,.436,0,.871,0,1.306,0,1.156,0,2.313,0,3.469a.657.657,0,0,1-.649.668c-.646.006-1.292,0-1.938,0a1.041,1.041,0,0,1-.457-.066.651.651,0,0,1-.373-.563c-.009-.4,0-.8,0-1.2,0-.437,0-.873,0-1.31,0-.337,0-.675,0-1.012,0-.437,0-.874,0-1.311,0-.332,0-.663,0-.994,0-.436,0-.872,0-1.308,0-.4,0-.795,0-1.193M20.541,17q0,3.483,0,6.967c.266,0,.532,0,.8,0,.011-2.322,0-4.646,0-6.969C21.077,17,20.809,17,20.541,17Z" style="fill:#f7b61a"/></svg>