<svg xmlns="http://www.w3.org/2000/svg" xmlns:xlink="http://www.w3.org/1999/xlink" viewBox="0 0 32 32"><title>folder_type_shared_opened</title><g clip-path="url(#clip0_4_26)"><path d="M27.4 5.5H18.2L16.1 9.7H4.3V26.5H29.5V5.5H27.4ZM27.4 24.2H6.6V11.8H27.4V24.2ZM27.4 9.7H19.2L20.2 7.6H27.3V9.7H27.4Z" fill="#9772FB"/><path d="M25.7 13.7H0.5L4.3 26.5H29.5L25.7 13.7Z" fill="#9772FB"/><path d="M15 11C13.9391 11 12.9217 11.4214 12.1716 12.1716C11.4214 12.9217 11 13.9391 11 15V21C11 22.0609 11.4214 23.0783 12.1716 23.8284C12.9217 24.5786 13.9391 25 15 25H21.17C21.4059 25.6672 21.8701 26.2296 22.4805 26.5876C23.0909 26.9457 23.8082 27.0765 24.5057 26.9568C25.2032 26.8371 25.836 26.4747 26.2921 25.9337C26.7482 25.3926 26.9984 24.7077 26.9984 24C26.9984 23.2923 26.7482 22.6074 26.2921 22.0663C25.836 21.5253 25.2032 21.1629 24.5057 21.0432C23.8082 20.9235 23.0909 21.0543 22.4805 21.4124C21.8701 21.7704 21.4059 22.3328 21.17 23H15C14.4696 23 13.9609 22.7893 13.5858 22.4142C13.2107 22.0391 13 21.5304 13 21V15C13 14.4696 13.2107 13.9609 13.5858 13.5858C13.9609 13.2107 14.4696 13 15 13H21C21.5304 13 22.0391 13.2107 22.4142 13.5858C22.7893 13.9609 23 14.4696 23 15H25C25 13.9391 24.5786 12.9217 23.8284 12.1716C23.0783 11.4214 22.0609 11 21 11H15ZM27 31C28.0609 31 29.0783 30.5786 29.8284 29.8284C30.5786 29.0783 31 28.0609 31 27V21C31 19.9391 30.5786 18.9217 29.8284 18.1716C29.0783 17.4214 28.0609 17 27 17H20.83C20.5941 16.3328 20.1299 15.7704 19.5195 15.4124C18.9091 15.0543 18.1918 14.9235 17.4943 15.0432C16.7968 15.1629 16.164 15.5253 15.7079 16.0663C15.2518 16.6074 15.0016 17.2923 15.0016 18C15.0016 18.7077 15.2518 19.3926 15.7079 19.9337C16.164 20.4747 16.7968 20.8371 17.4943 20.9568C18.1918 21.0765 18.9091 20.9457 19.5195 20.5876C20.1299 20.2296 20.5941 19.6672 20.83 19H27C27.5304 19 28.0391 19.2107 28.4142 19.5858C28.7893 19.9609 29 20.4696 29 21V27C29 27.5304 28.7893 28.0391 28.4142 28.4142C28.0391 28.7893 27.5304 29 27 29H21C20.4696 29 19.9609 28.7893 19.5858 28.4142C19.2107 28.0391 19 27.5304 19 27H17C17 28.0609 17.4214 29.0783 18.1716 29.8284C18.9217 30.5786 19.9391 31 21 31H27Z" fill="#B094FF"/><path d="M17 26.5V27H19V26.5H17Z" fill="#B094FF"/></g><defs><clipPath id="clip0_4_26"><rect width="32" height="32" fill="white"/></clipPath></defs></svg>