<svg xmlns="http://www.w3.org/2000/svg" viewBox="0 0 32 32"><title>folder_type_cake</title><path d="M27.5,5.5H18.2L16.1,9.7H4.4V26.5H29.6V5.5Zm0,4.2H19.3l1.1-2.1h7.1Z" style="fill:#bfab55"/><path d="M12.443,18.333l7.668-6,.13-.019a9.079,9.079,0,0,1,1.345-.091,14.433,14.433,0,0,1,4.807.865,8.118,8.118,0,0,1,4.074,2.944l.082.124v3.982a1.55,1.55,0,0,1-.133.709.886.886,0,0,1-.322.363v5.728l-17.65,2.694Z" style="fill:#4a1700"/><path d="M12.432,29.647V18.327h0l7.67-6,.132-.02a9.092,9.092,0,0,1,1.35-.092,14.444,14.444,0,0,1,4.81.866,8.128,8.128,0,0,1,4.073,2.948l.084.127v3.985a1.561,1.561,0,0,1-.134.714.893.893,0,0,1-.321.364v5.728h-.009Zm.022-11.306V29.618l17.628-2.686V21.208h.005a.871.871,0,0,0,.319-.358,1.54,1.54,0,0,0,.132-.7V16.163l-.08-.122a8.106,8.106,0,0,0-4.069-2.94,14.422,14.422,0,0,0-4.8-.865,9.071,9.071,0,0,0-1.343.091l-.127.019Z"/><polygon points="12.932 21.575 29.519 19.047 29.519 26.485 12.932 29.012 12.932 21.575" style="fill:#995700"/><path d="M29.475,19.086v7.372L12.953,28.972V21.6l16.523-2.517m.065-.075L12.888,21.548v7.5L29.54,26.509v-7.5Z" style="fill:#995700"/><polygon points="22.016 19.932 22.016 27.631 25.573 27.092 25.573 19.398 22.016 19.932" style="fill:#4a1700"/><path d="M22.037,27.631l4.184,2.491a9.221,9.221,0,0,0,3.02.874,1.275,1.275,0,0,0,1.363-1.18q0-.028,0-.057l-4.668-2.724Z" style="fill:#4a1700"/><path d="M29.242,31a3.558,3.558,0,0,1-1.269-.246,1.8,1.8,0,0,1-1-.811c-2.183-4.42-5.853-11.848-5.891-11.946a5.2,5.2,0,0,0-.349-.675c-.208-.106-.745-.383-1.288-.68-1.486-.814-1.575-.982-1.635-1.106l-.461-.907v-.912l.431-.06.046-.006-.266-1.525-.008-1.135h0a.375.375,0,0,1,.31-.43h0c.1-.014.658-.079.682-.082l.25-.029,1.412,2.868,1.132-.16L20.569,11.2l-.011-1.033,1.227-.158A.541.541,0,0,1,21.86,10a.59.59,0,0,1,.412.176l3.177,2.505.015.015a2.22,2.22,0,0,1,.375.589l.517,1.086v.821l-.1.1c-.039.041-.865.916-1.485,1.479,1.212,2.363,6.017,11.715,6.067,11.813v.005a1.186,1.186,0,0,1,.108.333l.019.029,0,.832,0,.026a1.247,1.247,0,0,1-.417.75,1.8,1.8,0,0,1-.939.41A2.4,2.4,0,0,1,29.242,31Z" style="fill:#4a1700"/><path d="M26,14.409v.643a19.783,19.783,0,0,1-1.953,1.854c-.478.289-.211-.579-.211-.579Z" style="fill:#534741"/><path d="M23.88,16.974a.112.112,0,0,1-.071-.022c-.145-.112.006-.607.013-.628h0L25.985,14.4l.018.008v.647h0a19.857,19.857,0,0,1-1.955,1.856A.346.346,0,0,1,23.88,16.974Zm-.038-.642c-.012.041-.15.5-.019.6.043.034.115.021.214-.039a19.6,19.6,0,0,0,1.949-1.849v-.615Z" style="fill:#4a1700"/><path d="M30.607,29.759a1.125,1.125,0,0,1-1.058.862,2.449,2.449,0,0,1-2.254-.837s-5.841-11.823-5.879-11.923a6.005,6.005,0,0,0-.429-.817,19.316,19.316,0,0,1-2.855-1.672l-.42-.831v-.531l4.637,2.025,8.259,13.022Z" style="fill:#534741"/><path d="M29.244,30.65a2.324,2.324,0,0,1-1.958-.864c-.238-.483-5.841-11.824-5.879-11.923a5.993,5.993,0,0,0-.427-.813,18.846,18.846,0,0,1-2.857-1.675l-.421-.833v-.547l.015.007,4.64,2.025h0l8.265,13.028h0v.7a1.137,1.137,0,0,1-1.067.868A2.04,2.04,0,0,1,29.244,30.65ZM17.726,14.538l.418.829a19.628,19.628,0,0,0,2.849,1.667h0a6.059,6.059,0,0,1,.43.819c.037.1,5.82,11.8,5.878,11.919a2.433,2.433,0,0,0,2.243.831,1.116,1.116,0,0,0,1.05-.849v-.7L22.343,16.043l-4.616-2.016Z" style="fill:#4a1700"/><polygon points="20.921 10.487 20.921 11.128 22.156 14.233 22.352 13.368 20.921 10.487" style="fill:#534741"/><path d="M22.145,14.238,20.91,11.13v-.643l.02,0,1.432,2.885v.007l-.2.865Zm-1.213-3.113L22.15,14.2l.187-.825-1.405-2.841Z" style="fill:#4a1700"/><polygon points="17.911 10.984 17.919 12.088 18.424 14.933 18.597 14.933 18.549 13.905 17.911 10.984" style="fill:#534741"/><path d="M18.608,14.943h-.193l-.507-2.854L17.9,10.984h.022l.638,2.916Zm-.175-.022h.15L18.535,13.9l-.616-2.817.007,1Z" style="fill:#4a1700"/><path d="M21.184,16.65a22.259,22.259,0,0,1-3.051-1.8l-.419-.831,4.641-.655-1.42-2.885.9-.127a.235.235,0,0,1,.195.081l3.179,2.509a2,2,0,0,1,.306.489l.478.971c.091.184-1.8,1.818-1.8,1.818a.15.15,0,0,0-.01.168c.05.1,6.344,12.353,6.344,12.353.319.647-.307,1.252-.975,1.354a2.324,2.324,0,0,1-2.155-.913s-5.979-12.268-6.026-12.365A.565.565,0,0,0,21.184,16.65Z" style="fill:#736357"/><path d="M29.285,30.133a2.269,2.269,0,0,1-1.9-.936L21.357,16.832a.554.554,0,0,0-.178-.172,21.54,21.54,0,0,1-3.055-1.8l-.426-.844h.015l4.626-.652-1.42-2.888.914-.129a.242.242,0,0,1,.2.084l3.177,2.508a2.019,2.019,0,0,1,.309.493L26,14.4c.091.186-1.612,1.663-1.807,1.831a.136.136,0,0,0-.008.155c.051.1,6.282,12.232,6.344,12.354a.772.772,0,0,1-.006.724,1.341,1.341,0,0,1-.975.646A1.742,1.742,0,0,1,29.285,30.133ZM17.73,14.032l.412.817a22.533,22.533,0,0,0,3.046,1.791h0a.568.568,0,0,1,.187.181c.046.093,5.967,12.242,6.026,12.365a2.3,2.3,0,0,0,2.143.907,1.319,1.319,0,0,0,.96-.634.75.75,0,0,0,.006-.7c-.063-.122-6.294-12.252-6.344-12.355a.156.156,0,0,1,.013-.181,9.523,9.523,0,0,0,1.8-1.806l-.474-.97a2,2,0,0,0-.3-.487L22.022,10.45h0a.225.225,0,0,0-.185-.075l-.886.118,1.421,2.881h-.015Z" style="fill:#4a1700"/><path d="M20.008,13.7l-1.415-2.875s-.573.067-.675.082a30.5,30.5,0,0,0,.628,3Z" style="fill:#736357"/><path d="M18.54,13.918v-.01a30.214,30.214,0,0,1-.631-3,.016.016,0,0,1,.012-.007c.1-.014.667-.081.675-.082H18.6l1.425,2.894Zm-.616-3a28.574,28.574,0,0,0,.633,2.976l1.435-.2-1.4-2.85C18.52,10.846,18.026,10.9,17.924,10.919Z" style="fill:#4a1700"/><polygon points="22.76 14.172 23.289 15.182 20.831 15.507 20.368 14.491 22.76 14.172" style="fill:#4a1700"/><path d="M20.668,14.671l.243-.035a.586.586,0,0,1,.352.235.633.633,0,0,1,.075.481l-.242.037a.54.54,0,0,0-.052-.471A1.058,1.058,0,0,0,20.668,14.671Z" style="fill:#736357"/><path d="M21.315,14.582l.243-.035a.586.586,0,0,1,.352.235.633.633,0,0,1,.075.481l-.242.037a.541.541,0,0,0-.052-.471A1.057,1.057,0,0,0,21.315,14.582Z" style="fill:#736357"/><path d="M21.944,14.492l.243-.035a.586.586,0,0,1,.352.235.633.633,0,0,1,.075.481l-.242.037a.541.541,0,0,0-.052-.471A1.058,1.058,0,0,0,21.944,14.492Z" style="fill:#736357"/><path d="M22.022,20.239l.255-.054v-3.03a11.245,11.245,0,0,1-2.267-.62Z" style="fill:#4a1700"/><path d="M20.213,13.311l1.132-.16-.17-.419a7.92,7.92,0,0,0-.874.075l-.24.192Z" style="fill:#fff"/><path d="M25.879,13.456l.43.916v.82l-.075.1c-.039.041-.854.916-1.474,1.479.034.067.075.139.112.217L30,16.31A7.781,7.781,0,0,0,25.879,13.456Z" style="fill:#fff"/><path d="M29.54,19.01v1.847c.391-.015.455-.352.455-.715V16.31l-5.127.682c.3.595.754,1.5,1.29,2.538Z" style="fill:#ffe05c"/><path d="M19.451,16.636c-1.486-.814-1.57-.982-1.631-1.106l-.283-.556-4.614,3.6,9.1-1.2A17.032,17.032,0,0,1,19.451,16.636Z" style="fill:#fff"/><polygon points="22.027 20.239 22.016 17.371 12.91 18.576 12.91 21.558 22.027 20.239" style="fill:#ffe05c"/><path d="M26.158,19.519V16.83s-.9-.52-.525-.9l-.871.847Z" style="fill:#ffe05c"/><path d="M13.781,18.465l5.267-.7s-1.889.382-3.345.562C15.015,18.414,13.781,18.465,13.781,18.465Z" style="fill:#4a1700"/><path d="M28.026,16.578l2.024-.268.088.121C29.257,16.524,28.026,16.578,28.026,16.578Z" style="fill:#4a1700"/></svg>