<svg xmlns="http://www.w3.org/2000/svg" viewBox="0 0 32 32"><defs><clipPath id="a"><rect width="13.224" height="3.369" x="16.446" y="24.001" fill="none" stroke="#ff7a21" stroke-width=".737" rx="0" ry=".511"/></clipPath></defs><path fill="#953c00" d="M27.5 5.5h-9.3l-2.1 4.2H4.4v16.8h25.2v-21Zm0 4.2h-8.2l1.1-2.1h7.1Z"/><g fill="#fca"><g stroke="#ff7a21" transform="matrix(1.07896 0 0 1.07896 -2.383 -1.048)"><rect width="12.731" height="6.599" x="16.635" y="20.454" fill="none" stroke-width="2.37" clip-path="url(#a)" ry=".953" transform="matrix(-1.05865 0 0 -1 45.673 49.29)"/><g fill="#ff7a21" stroke-width="1.5"><rect width="3.473" height="3" x="13.263" y="25.026" ry=".969"/><rect width="3.473" height="3" x="19.527" y="25" ry=".969"/><rect width="3.473" height="3" x="25.79" y="25.006" ry=".969"/></g></g><g transform="matrix(1.07896 0 0 1.07896 -2.383 -1.048)"><g fill="#ff7a21"><rect width="2" height="7.75" x="20.263" y="17.494" ry=".969"/><rect width="12" height="8.875" x="15.263" y="11.369" ry="2.353"/></g><rect width="9.298" height="2.027" x="16.614" y="14.987" ry="1.014" style="stroke-width:1.35165;fill:#fca;fill-opacity:1;stroke:none;stroke-opacity:1"/></g></g></svg>