<svg xmlns="http://www.w3.org/2000/svg" viewBox="0 0 32 32"><path fill="#BF7855" d="M27.5,5.5h-9.3l-2.1,4.2H4.4v16.8h25.2v-21H27.5z M27.5,9.7h-8.2l1.1-2.1h7.1V9.7z"/><g id="LOGO"><path fill="#E24329" d="M30.6,18.8L30.6,18.8l-2.9-7.5c-0.1-0.1-0.2-0.3-0.3-0.4c-0.3-0.2-0.6-0.2-0.9,0c-0.1,0.1-0.2,0.2-0.3,0.4l-1.9,5.9h-7.8l-1.9-5.9c0-0.2-0.1-0.3-0.3-0.4c-0.3-0.2-0.6-0.2-0.9,0c-0.1,0.1-0.2,0.2-0.3,0.4l-2.9,7.5l0,0.1c-0.8,2.2-0.1,4.7,1.8,6.1l0,0l0,0l4.4,3.3l2.2,1.6l1.3,1c0.3,0.2,0.8,0.2,1.1,0l1.3-1l2.2-1.6l4.4-3.3l0,0C30.8,23.5,31.5,21,30.6,18.8z"/><path fill="#FC6D26" d="M30.6,18.8L30.6,18.8c-1.4,0.2-2.7,0.8-3.9,1.7l-6.3,4.7c2.1,1.6,4,3,4,3l4.4-3.3l0,0C30.8,23.5,31.5,21,30.6,18.8z"/><path fill="#FCA326" d="M16.5,28.2l2.2,1.6l1.3,1c0.3,0.2,0.8,0.2,1.1,0l1.3-1l2.2-1.6c0,0-1.9-1.4-4-3C18.4,26.8,16.5,28.2,16.5,28.2z"/><path fill="#FC6D26" d="M14.2,20.4c-1.1-0.9-2.4-1.4-3.8-1.7l0,0.1c-0.8,2.2-0.1,4.7,1.8,6.1l0,0l0,0l4.4,3.3c0,0,1.9-1.4,4-3L14.2,20.4z"/></g></svg>
