<svg xmlns="http://www.w3.org/2000/svg" xmlns:xlink="http://www.w3.org/1999/xlink" viewBox="0 0 32 32"><defs><linearGradient id="linear-gradient" x1="-235.91" y1="-171.04" x2="-235.87" y2="-171.05" gradientTransform="matrix(87.82, 0, 0, -88.53, 20744.25, -15114.08)" gradientUnits="userSpaceOnUse"><stop offset="0" stop-color="#ffd441"/><stop offset="1" stop-color="#ffb047"/></linearGradient><linearGradient id="linear-gradient-2" x1="-235.68" y1="-172.64" x2="-235.66" y2="-172.6" gradientTransform="matrix(87.82, 0, 0, -88.53, 20724.39, -15266.47)" gradientUnits="userSpaceOnUse"><stop offset="0" stop-color="#ffd754"/><stop offset="1" stop-color="#ffb532"/></linearGradient><linearGradient id="linear-gradient-3" x1="-235.02" y1="-173.45" x2="-235.02" y2="-173.41" gradientTransform="matrix(87.82, 0, 0, -88.53, 20662.52, -15342.2)" gradientUnits="userSpaceOnUse"><stop offset="0" stop-color="#ffd642"/><stop offset="0" stop-color="#ffd441"/><stop offset="1" stop-color="#ffb532"/></linearGradient><linearGradient id="linear-gradient-4" x1="-234.58" y1="-172.91" x2="-234.63" y2="-172.9" gradientTransform="matrix(106.2, 0, 0, -88.55, 24932.16, -15295.17)" gradientUnits="userSpaceOnUse"><stop offset="0" stop-color="#ffd441"/><stop offset="1" stop-color="#ffa829"/></linearGradient></defs><title>folder_type_flow_opened@2x</title><g id="folder_opened_flow"><path d="M27.4,5.5H18.2L16.1,9.7H4.3V26.5H29.5V5.5Zm0,18.7H6.6V11.8H27.4Zm0-14.5H19.2l1-2.1h7.1V9.7Z" style="fill:#dbad7b"/><polygon points="25.7 13.7 0.5 13.7 4.3 26.5 29.5 26.5 25.7 13.7" style="fill:#dbad7b"/><path d="M28.07,30.56V25.13H22.68l5.39,5.43" style="fill:#ffdf51;fill-opacity:0.699999988079071"/><path d="M28.67,27.48V21.61H22.85l5.82,5.87" style="fill:#ff8900;fill-opacity:0.699999988079071"/><path d="M25.14,25.13V31H31l-5.82-5.87" style="fill-opacity:0.699999988079071;fill:url(#linear-gradient)"/><path d="M27.46,22V17.36H22.85L27.46,22" style="fill:#ffdf4f;fill-opacity:0.699999988079071"/><path d="M29.64,20.89V15H23.82l5.82,5.87" style="fill-opacity:0.799999952316284;fill:url(#linear-gradient-2)"/><path d="M19.72,10v5.87h5.82L19.72,10" style="fill-opacity:0.800000011920929;fill:url(#linear-gradient-3)"/><path d="M21.08,19.2V13.32H14l5.8,5.87h1.24" style="fill-opacity:0.879999995231628;fill:url(#linear-gradient-4)"/><path d="M21.08,31v-7.1H14l7,7.1" style="fill:#ffb700;fill-opacity:0.699999988079071"/><path d="M21.08,25.09V19.21H15.26l5.82,5.87" style="fill:#ffb700;fill-opacity:0.5"/><path d="M22.85,17.36v5.87h5.82l-5.82-5.87" style="fill:#ffcd25;fill-opacity:0.699999988079071"/><path d="M21.07,18V12.15H15.24L21.07,18" style="fill:#ff8900;fill-opacity:0.700000047683716"/><path d="M22.68,25.13V31h5.82l-5.82-5.87" style="fill:#ff8900;fill-opacity:0.699999988079071"/><polygon points="26.34 25.13 24.46 23.23 22.85 23.23 22.85 17.36 26.14 17.36 24.66 15.87 21.07 15.87 21.08 19.2 21.08 23.86 21.08 31 22.68 31 22.68 25.13 26.34 25.13" style="fill:#fff"/></g></svg>