<svg xmlns="http://www.w3.org/2000/svg" viewBox="0 0 32 32"><title>folder_type_minecraft_opened</title><path fill="#2c631c" d="M27.4 5.5h-9.2l-2.1 4.2H4.3v4H.5l3.8 12.8h25.2v-21Zm-7.2 2.1h7.1v2.1h-8.1Zm5.5 6.1H6.6v-1.9h20.8v7.63Z"/><path fill="#52a535" d="M30.3 11.02H11.25V30.1h19.07z"/><path fill="#86d562" d="M26.5 18.65h-3.82v.32h3.81v-.32m-3.8 5.72h-3.82v.32h3.81v-.32m1.9 1.9h-1.9v.33h1.9v-.32m-5.71 0h-1.9v.32h1.9v-.32m0-7.63h-3.82v.32h3.82z"/><path d="M26.5 18.65v-3.81h-3.82v3.81h-3.81v1.9h-1.9v5.73h1.9v-1.9h3.81v1.9h1.9v-5.72h-1.9v-1.9h3.81m-7.62-3.82h-3.82v3.81h3.82z"/><path fill="#2a641c" d="M26.5 14.84h-3.82v.32h3.81v-.32m-3.8 3.81h-3.82v.32h3.81v-.32m-3.81-3.81h-3.82v.32h3.82v-.32m0 5.72h-1.9v.32h1.9v-.32m5.72 0h-1.9v.32h1.9z"/></svg>