<svg viewBox="0 0 32 32" xmlns="http://www.w3.org/2000/svg"><path d="m27.4 5.5h-9.2l-2.1 4.2h-11.8v16.8h25.2v-21zm0 18.7h-20.8v-12.4h20.8zm0-14.5h-8.2l1-2.1h7.1v2.1z" fill="#dd7a7d"/><path d="m25.7 13.7h-25.2l3.8 12.8h25.2z" fill="#dd7a7d"/><path d="m25.742 9.9h-12.301v21h17.475v-15.75z" fill="#9f4246"/><path d="m29.577 29.663h-14.726v-18.525h10.055l4.75 4.749v13.776z" fill="#fff"/><g fill="#9f4246"><path d="m18.652 19.945c1.188 0 1.922-1.1 1.922-2.747 0-1.609-.6-2.582-1.8-2.582s-1.929 1.1-1.929 2.747c.001 1.612.603 2.582 1.807 2.582zm-.932-2.745c0-1.172.322-1.84.99-1.84.487 0 .784.413.916 1.105l-1.9.982a2.4 2.4 0 0 1 -.006-.247zm1 2c-.478 0-.784-.4-.916-1.073l1.9-.982v.215c-.004 1.174-.317 1.84-.986 1.84z"/><path d="m26.421 19.835.075-.767h-1.238v-4.51l-.882.075v.6l-1.271.132.017.668 1.254-.033v3.069h-1.387v.768z"/><path d="m20.533 26.96.075-.767h-1.237v-4.511l-.883.075v.6l-1.27.132.016.669 1.254-.033v3.069h-1.386v.768z"/><path d="m24.615 27.067c1.188 0 1.922-1.1 1.922-2.747 0-1.609-.6-2.582-1.8-2.582s-1.93 1.1-1.93 2.747c0 1.611.6 2.585 1.808 2.585zm-.932-2.745c0-1.172.322-1.84.99-1.84.487 0 .784.412.916 1.105l-1.9.982a2.4 2.4 0 0 1 -.006-.247zm1 2c-.479 0-.784-.4-.916-1.073l1.9-.982v.214c-.004 1.178-.318 1.844-.986 1.844z"/></g></svg>