<svg xmlns="http://www.w3.org/2000/svg" viewBox="0 0 32 32"><title>folder_type_json_opened</title><path d="M27.4,5.5H18.2L16.1,9.7H4.3v4H.5L4.3,26.5H29.5V5.5ZM20.2,7.6h7.1V9.7H19.2Zm5.5,6.1H6.6V11.8H27.4v7.626Z" style="fill:#dbd27b"/><path d="M11,20.146a2.089,2.089,0,0,0,1.307-.431,1.977,1.977,0,0,0,.672-1.132,12.666,12.666,0,0,0,.179-2.452q.009-1.737.062-2.288a4.355,4.355,0,0,1,.349-1.4,2.511,2.511,0,0,1,.63-.847,2.545,2.545,0,0,1,.961-.484,5.737,5.737,0,0,1,1.288-.1h.584v1.633h-.323a1.95,1.95,0,0,0-1.437.39,2.827,2.827,0,0,0-.355,1.742,29.971,29.971,0,0,1-.114,3.443,3.939,3.939,0,0,1-.641,1.716A3.8,3.8,0,0,1,12.74,21,3.172,3.172,0,0,1,14.4,22.46a7.371,7.371,0,0,1,.516,3.22q0,2.028.042,2.415a1.459,1.459,0,0,0,.42.984,2.207,2.207,0,0,0,1.328.281h.323V31h-.584a4.7,4.7,0,0,1-1.479-.167,2.482,2.482,0,0,1-1.105-.774A2.8,2.8,0,0,1,13.3,28.7,20.043,20.043,0,0,1,13.158,26a13.751,13.751,0,0,0-.179-2.587,2,2,0,0,0-.672-1.134A2.072,2.072,0,0,0,11,21.845Z" style="fill:#f5de19"/><path d="M31,21.841a2.079,2.079,0,0,0-1.307.437,2,2,0,0,0-.672,1.133A13.7,13.7,0,0,0,28.844,26,20.046,20.046,0,0,1,28.7,28.7a2.785,2.785,0,0,1-.568,1.358,2.486,2.486,0,0,1-1.105.775,4.731,4.731,0,0,1-1.479.166h-.584V29.362h.323a2.2,2.2,0,0,0,1.328-.28,1.461,1.461,0,0,0,.422-.988q.042-.386.042-2.416a7.364,7.364,0,0,1,.516-3.219A3.174,3.174,0,0,1,29.26,21a3.807,3.807,0,0,1-1.419-1.071,3.937,3.937,0,0,1-.64-1.716,29.98,29.98,0,0,1-.115-3.443,2.823,2.823,0,0,0-.354-1.742,1.953,1.953,0,0,0-1.438-.39h-.323V11h.584a5.71,5.71,0,0,1,1.285.1,2.566,2.566,0,0,1,.959.484,2.531,2.531,0,0,1,.63.848,4.373,4.373,0,0,1,.348,1.4q.053.551.063,2.288a12.7,12.7,0,0,0,.177,2.455,1.984,1.984,0,0,0,.671,1.128A2.1,2.1,0,0,0,31,20.147Z" style="fill:#f5de19"/></svg>