<svg xmlns="http://www.w3.org/2000/svg" viewBox="0 0 32 32"><title>folder_type_debian_opened</title><path d="M27.4,5.5H18.2L16.1,9.7H4.3V26.5H29.5V5.5Zm0,18.7H6.6V11.8H27.4Zm0-14.5H19.2l1-2.1h7.1V9.7Z" style="fill:#d87795"/><polygon points="25.7 13.7 0.5 13.7 4.3 26.5 29.5 26.5 25.7 13.7" style="fill:#d87795"/><path d="M24.147,21.095c-.348,0,.066.179.52.249.125-.1.239-.2.341-.294a2.6,2.6,0,0,1-.861.044" style="fill:#a80030"/><path d="M26.015,20.629a2.21,2.21,0,0,0,.411-.923,2.252,2.252,0,0,1-.29.64c-.65.41-.061-.243,0-.491-.7.88-.1.528-.121.774" style="fill:#a80030"/><path d="M26.7,18.836c.042-.627-.123-.429-.179-.189.065.034.116.442.179.189" style="fill:#a80030"/><path d="M22.828,10.271c.186.033.4.059.371.1.2-.045.249-.086-.371-.1" style="fill:#a80030"/><path d="M23.2,10.374l-.131.027.122-.011.009-.016" style="fill:#a80030"/><path d="M28.989,19.073a3.1,3.1,0,0,1-.332,1.319l-.3.15c-.246.478.024.3-.152.684a8.306,8.306,0,0,1-1.416,1.135c-.183,0,.124-.216.164-.3-.514.353-.413.53-1.2.745l-.023-.051c-1.94.913-4.635-.9-4.6-3.364-.021.157-.059.118-.1.181a3.107,3.107,0,0,1,1.744-3.066,2.943,2.943,0,0,1,3.271.425,2.916,2.916,0,0,0-2.384-1.144,2.694,2.694,0,0,0-2.314,1.381c-.527.332-.589,1.28-.819,1.454-.309,2.273.582,3.255,2.089,4.41.237.16.067.184.1.306a4.089,4.089,0,0,1-1.336-1.022,3.591,3.591,0,0,0,.695.8c-.472-.16-1.1-1.144-1.287-1.184.814,1.457,3.3,2.555,4.6,2.011a5.435,5.435,0,0,1-2.046-.238c-.284-.146-.671-.45-.6-.506a5.08,5.08,0,0,0,5.153-.73c.391-.3.819-.823.942-.831-.186.28.032.135-.111.382.39-.629-.169-.256.4-1.086l.211.291c-.079-.522.648-1.156.575-1.982.167-.253.186.272.009.853.246-.644.065-.748.128-1.28a4.832,4.832,0,0,1,.2.557,2.453,2.453,0,0,1,.244-1.411c-.079-.035-.247.275-.285-.46.006-.32.089-.167.121-.246a1.412,1.412,0,0,1-.327-.751c.073-.11.194.286.293.3a7.3,7.3,0,0,1-.177-.945c-.289-.6-.1.08-.336-.259-.307-.958.255-.222.293-.658a7.693,7.693,0,0,1,.853,2.153,8.821,8.821,0,0,0-.427-1.534c.141.059-.228-1.086.184-.327A6.838,6.838,0,0,0,27.485,11.4c.162.149.367.335.294.364-.66-.393-.544-.423-.638-.589-.537-.219-.573.018-.929,0a11.027,11.027,0,0,0-2.14-.817l.042.2c-.671-.223-.782.085-1.507,0-.044-.034.232-.125.46-.158-.649.086-.618-.128-1.253.024a5.394,5.394,0,0,1,.489-.276c-.529.032-1.263.308-1.036.057a12.189,12.189,0,0,0-3.255,1.732l-.027-.181c-.394.473-1.718,1.413-1.824,2.025l-.105.025a11.355,11.355,0,0,0-.5,1.1c-.268.457-.393.176-.355.247a16.7,16.7,0,0,0-1.016,2.705,15.513,15.513,0,0,1,.065,2.42c-.265,4.784,3.357,9.428,7.317,10.5A7.971,7.971,0,0,0,23.743,31c-.866-.248-.978-.131-1.822-.425-.609-.287-.742-.614-1.173-.988l.171.3c-.845-.3-.492-.37-1.179-.588l.182-.238a1.567,1.567,0,0,1-.849-.706l-.3.012c-.36-.444-.552-.765-.538-1.013l-.1.173c-.11-.188-1.325-1.667-.695-1.323A1.422,1.422,0,0,1,17,25.724l.128-.147a2.443,2.443,0,0,1-.539-1.057.686.686,0,0,0,.385.3c-.766-1.9-.809-.1-1.39-1.935l.123-.01a4.064,4.064,0,0,1-.227-.447l.053-.533c-.552-.638-.154-2.712-.075-3.85a11.069,11.069,0,0,1,.769-1.727l-.188-.032c.359-.626,2.05-2.515,2.833-2.418.379-.477-.075,0-.149-.122.833-.862,1.1-.609,1.658-.764.606-.36-.521.14-.233-.137,1.048-.268.743-.609,2.111-.745.144.082-.335.127-.455.233a5.637,5.637,0,0,1,3.992.237,5.845,5.845,0,0,1,3.089,4.487l.072.019a8.631,8.631,0,0,1-.146,2.37l.176-.37" style="fill:#a80030"/><path d="M20.349,21.573l-.049.244a4.688,4.688,0,0,0,.7.89c-.21-.41-.366-.58-.653-1.134" style="fill:#a80030"/><path d="M20.89,21.551a1.935,1.935,0,0,1-.273-.455,3.168,3.168,0,0,0,.38.771l-.107-.316" style="fill:#a80030"/><path d="M30.456,19.472l-.051.128a6.188,6.188,0,0,1-.606,1.935,6.081,6.081,0,0,0,.657-2.063" style="fill:#a80030"/><path d="M22.9,10.1a7.5,7.5,0,0,1,.828-.1c-.325.027-.649.044-.969.085l.141.019" style="fill:#a80030"/><path d="M14.637,14.5c.054.5-.378.7.1.366.254-.571-.1-.158-.1-.366" style="fill:#a80030"/><path d="M14.08,16.819a5.45,5.45,0,0,0,.17-.729c-.3.385-.139.467-.17.729" style="fill:#a80030"/></svg>