<svg xmlns="http://www.w3.org/2000/svg" viewBox="0 0 32 32"><title>folder_types_interfaces</title><path d="M27.5,5.5H18.2L16.1,9.7H4.4V26.5H29.6V5.5Zm0,4.2H19.3l1.1-2.1h7.1Z" style="fill:#a4b100"/><path d="M31.239,18.461H23.3a3.458,3.458,0,1,0-1.874,4.612,3.965,3.965,0,0,0,2.018-1.729h7.789A8.333,8.333,0,0,1,31.239,18.461ZM20.131,21.487A1.585,1.585,0,1,1,21.716,19.9,1.584,1.584,0,0,1,20.131,21.487Z" style="fill:#fff"/><path d="M25.239,13.951a7.909,7.909,0,1,0,.772,10.965" style="fill:none;stroke:#fff;stroke-miterlimit:10;stroke-width:2px"/></svg>