<svg xmlns="http://www.w3.org/2000/svg" viewBox="0 0 32 32"><title>folder_type_module</title><path d="M27.5,5.5H18.2L16.1,9.7H4.4V26.5H29.6V5.5Zm0,4.2H19.3l1.1-2.1h7.1Z" style="fill:#55bdbf"/><path d="M15.907,28.452q2.262,1.26,4.525,2.528a.124.124,0,0,0,.138,0q2.262-1.26,4.526-2.527c.026-.014.05-.03.082-.049l-.086-.05c-.5-.278-1-.556-1.494-.84a.142.142,0,0,0-.16,0q-1.43.8-2.86,1.6a.137.137,0,0,1-.155,0q-1.435-.805-2.875-1.608a.116.116,0,0,0-.131,0c-.506.286-1.015.569-1.523.852-.02.011-.04.024-.068.042A.674.674,0,0,0,15.907,28.452Z" style="fill:#007f7c"/><path d="M10.984,20.526l-.005-.6c0-1.328-.02-2.64-.02-3.968a.1.1,0,0,1,.071-.106c1.3-.619,3.221-1.635,4.517-2.255.023-.011.117-.062.15-.076v1.767a.094.094,0,0,1-.065.1c-.762.362-2.2,1.182-2.963,1.544a.1.1,0,0,0-.071.1c0,.763.011,1.753.014,2.513a.1.1,0,0,1-.058.1C12.04,19.932,10.984,20.526,10.984,20.526Z" style="fill:#7f7c00"/><path d="M28.384,19.647a.1.1,0,0,1-.058-.1c0-.76.014-1.75.014-2.513a.1.1,0,0,0-.07-.1c-.762-.362-2.2-1.182-2.963-1.544a.1.1,0,0,1-.066-.1V13.517c.033.014.128.065.151.076,1.3.62,3.221,1.636,4.516,2.255a.1.1,0,0,1,.071.106c0,1.328-.02,2.64-.02,3.968l0,.6S28.9,19.932,28.384,19.647Z" style="fill:#7c007f"/><path d="M24.539,14.4v2.078a.116.116,0,0,1-.07.118q-1.953,1.089-3.906,2.183a.12.12,0,0,1-.131,0q-1.954-1.093-3.907-2.182a.111.111,0,0,1-.066-.113V12.316a.111.111,0,0,1,.065-.113q1.955-1.087,3.907-2.18a.122.122,0,0,1,.139,0q1.944,1.089,3.893,2.172a.131.131,0,0,1,.076.133c0,.687,0,1.377,0,2.066Z" style="fill:#7f0000"/><path d="M19.02,12.744l1.425.777a.106.106,0,0,0,.111,0q.714-.392,1.432-.782c.017-.009.032-.023.05-.034-.008-.009-.011-.014-.016-.016q-.736-.414-1.481-.825a.114.114,0,0,0-.094.007c-.14.074-.278.153-.42.231l-1.075.6A.781.781,0,0,1,19.02,12.744Zm.673,3.71V15.01c0-.055-.029-.068-.065-.087l-1.47-.8c-.022-.012-.046-.023-.072-.035v1.459c0,.053.029.069.065.089l1.47.822.073.037A.125.125,0,0,1,19.693,16.454ZM22.879,14.1c-.508.276-1.015.553-1.524.827-.048.025-.047.058-.047.1v1.465l.044-.02q.761-.426,1.522-.85a.092.092,0,0,0,.048-.1V14.084A.235.235,0,0,0,22.879,14.1Z" style="fill:#fff"/><path d="M31,24.057v2.078a.119.119,0,0,1-.069.119q-1.955,1.089-3.907,2.182a.12.12,0,0,1-.131,0q-1.953-1.093-3.907-2.181a.115.115,0,0,1-.066-.114V21.977a.112.112,0,0,1,.065-.113q1.954-1.088,3.907-2.18a.126.126,0,0,1,.139,0q1.944,1.091,3.893,2.173a.128.128,0,0,1,.076.132q0,1.03,0,2.067Z" style="fill:#00007f"/><path d="M25.48,22.405q.716.389,1.425.777a.106.106,0,0,0,.111,0q.715-.391,1.432-.781c.017-.01.033-.023.051-.035-.009-.008-.012-.014-.017-.016q-.735-.414-1.481-.825a.112.112,0,0,0-.093.007c-.141.074-.279.154-.42.231l-1.076.6A.561.561,0,0,1,25.48,22.405Zm.674,3.71V24.671c0-.055-.03-.068-.066-.087l-1.47-.8a.8.8,0,0,0-.072-.036v1.46c0,.052.029.068.065.088l1.47.822c.022.013.046.023.074.037A.1.1,0,0,1,26.154,26.115Zm3.186-2.351c-.509.276-1.016.553-1.525.827-.047.025-.046.058-.046.1v1.465l.043-.02q.76-.426,1.522-.85c.047-.025.048-.057.048-.1V23.745A.268.268,0,0,0,29.34,23.764Z" style="fill:#fff"/><path d="M18.08,24.057v2.078a.116.116,0,0,1-.069.119q-1.954,1.089-3.906,2.182a.121.121,0,0,1-.132,0q-1.953-1.093-3.906-2.181A.113.113,0,0,1,10,26.141V21.977a.112.112,0,0,1,.065-.113q1.954-1.088,3.906-2.18a.127.127,0,0,1,.14,0q1.944,1.091,3.893,2.173a.128.128,0,0,1,.075.132q0,1.03,0,2.067Z" style="fill:#007f00"/><path d="M12.562,22.405l1.425.777a.1.1,0,0,0,.11,0q.716-.391,1.433-.781c.016-.01.032-.023.05-.035-.008-.008-.012-.014-.017-.016q-.735-.414-1.48-.825a.114.114,0,0,0-.094.007c-.141.074-.278.154-.42.231l-1.075.6A.781.781,0,0,1,12.562,22.405Zm.673,3.71V24.671c0-.055-.029-.068-.065-.087l-1.47-.8a.71.71,0,0,0-.073-.036v1.46c0,.052.03.068.065.088l1.471.822c.022.013.046.023.073.037A.125.125,0,0,1,13.235,26.115Zm3.186-2.351c-.508.276-1.015.553-1.525.827-.047.025-.046.058-.046.1v1.465l.043-.02q.761-.426,1.523-.85c.046-.025.047-.057.047-.1V23.745A.389.389,0,0,0,16.421,23.764Z" style="fill:#fff"/></svg>