<svg xmlns="http://www.w3.org/2000/svg" viewBox="0 0 32 32"><title>folder_type_vscode_opened@2x</title><g id="folder_opened_vscode"><path d="M27.4,5.5H18.2L16.1,9.7H4.3V26.5H29.5V5.5Zm0,18.7H6.6V11.8H27.4Zm0-14.5H19.2l1-2.1h7.1V9.7Z" style="fill:#7bb4db"/><polygon points="25.7 13.7 0.5 13.7 4.3 26.5 29.5 26.5 25.7 13.7" style="fill:#7bb4db"/><path d="M31,11.74,26.62,10l-9.4,9.16-5.74-4.37-1.24.63V25.6l1.23.62,5.74-4.37L26.62,31,31,29.26V11.74ZM12.09,22.89V18.11l2.66,2.38Zm8.51-2.41,5.31-4v8l-5.32-4Z" style="fill:#007acc"/><polygon points="20.6 20.49 25.91 16.51 25.91 24.49 20.59 20.49 20.6 20.49" style="fill:#fff"/><polygon points="12.09 22.89 12.09 18.11 14.75 20.49 12.09 22.89" style="fill:#fff"/></g></svg>