<svg viewBox="0 0 512 512" xmlns="http://www.w3.org/2000/svg"><path d="M454.382 74.232H307.195l-33.597 67.194H84.815v63.994H24.02l60.795 204.782h403.164V74.232h-33.597zm-115.19 33.597h113.59v33.597H323.193l15.999-33.597zm87.992 97.591H121.612v-30.397h332.77v122.005l-27.198-91.608z" fill="#7faecc"/><path fill-rule="evenodd" clip-rule="evenodd" d="M258.307 184.398c-11.207-19.273-39.228-19.273-50.435 0L85.729 394.412c-11.207 19.27 2.8 43.357 25.218 43.357h95.35c-9.576-8.369-13.124-22.849-5.875-35.274l92.505-158.57-34.62-59.527z" fill="#80EEC0" stroke="#fff" stroke-width="15"/><path d="M335.698 230.464c9.277-15.767 32.463-15.767 41.739 0l101.083 171.83c9.276 15.767-2.317 35.475-20.867 35.475H255.482c-18.549 0-30.142-19.708-20.869-35.475l101.085-171.83z" fill="#00DC82" stroke="#fff" stroke-width="15"/></svg>