<svg viewBox="0 0 32 32" xmlns="http://www.w3.org/2000/svg" xmlns:xlink="http://www.w3.org/1999/xlink"><linearGradient id="a" gradientUnits="userSpaceOnUse" x1="20.577" x2="20.577" y1="21.689" y2="31"><stop offset=".15" stop-color="#2a4f84"/><stop offset=".388" stop-color="#294e82"/><stop offset="1" stop-color="#172e4e"/></linearGradient><path d="m27.4 5.5h-9.2l-2.1 4.2h-11.8v16.8h25.2v-21zm0 18.7h-20.8v-12.4h20.8zm0-14.5h-8.2l1-2.1h7.1v2.1z" fill="#7ba2db"/><path d="m25.7 13.7h-25.2l3.8 12.8h25.2z" fill="#7ba2db"/><path d="m29.919 29.2a1.8 1.8 0 0 1 -1.8 1.8h-15.089a1.8 1.8 0 0 1 -1.8-1.8v-5.715a1.8 1.8 0 0 1 1.8-1.8h15.093a1.8 1.8 0 0 1 1.8 1.8z" fill="url(#a)"/><g fill="#f6f6f6"><path d="m26.762 26.222a1.479 1.479 0 0 1 1.183 1.418 1.268 1.268 0 0 1 -.49 1.048 2.2 2.2 0 0 1 -1.4.419 3.419 3.419 0 0 1 -1.681-.463 1.489 1.489 0 0 1 .12-.5 1.372 1.372 0 0 1 .262-.432 2.774 2.774 0 0 0 1.236.37.724.724 0 0 0 .387-.082.254.254 0 0 0 .134-.224q0-.265-.409-.4l-.49-.185q-1.114-.405-1.114-1.322a1.315 1.315 0 0 1 .467-1.062 1.94 1.94 0 0 1 1.258-.486 3.82 3.82 0 0 1 .863.11 3.416 3.416 0 0 1 .774.354 1.251 1.251 0 0 1 -.1.542.915.915 0 0 1 -.285.419 3.2 3.2 0 0 0 -1.245-.335.408.408 0 0 0 -.271.079.254.254 0 0 0 -.093.2q0 .211.338.335l.552.194z"/><path d="m22.822 26.222a1.479 1.479 0 0 1 1.178 1.418 1.269 1.269 0 0 1 -.489 1.048 2.2 2.2 0 0 1 -1.4.419 3.42 3.42 0 0 1 -1.681-.463 1.486 1.486 0 0 1 .12-.5 1.366 1.366 0 0 1 .262-.432 2.777 2.777 0 0 0 1.237.37.722.722 0 0 0 .39-.082.255.255 0 0 0 .134-.224q0-.265-.409-.4l-.489-.185q-1.112-.405-1.112-1.321a1.314 1.314 0 0 1 .467-1.062 1.939 1.939 0 0 1 1.258-.486 3.816 3.816 0 0 1 .863.11 3.414 3.414 0 0 1 .774.354 1.251 1.251 0 0 1 -.1.542.915.915 0 0 1 -.285.419 3.2 3.2 0 0 0 -1.246-.335.407.407 0 0 0 -.271.079.254.254 0 0 0 -.093.2q0 .211.338.335l.552.194z"/><path d="m19.948 26.285a2.117 2.117 0 0 0 -.129-.749 1.679 1.679 0 0 0 -.369-.59 1.71 1.71 0 0 0 -.582-.388 2.053 2.053 0 0 0 -.769-.235 2.1 2.1 0 0 0 -.885.271 1.692 1.692 0 0 0 -.622.484 2.073 2.073 0 0 0 -.365.727 3.3 3.3 0 0 0 -.12.912 4.26 4.26 0 0 0 .1.943 1.971 1.971 0 0 0 .333.749 1.58 1.58 0 0 0 .614.493 2.2 2.2 0 0 0 .938.208 2.964 2.964 0 0 0 1.743-.534 1.4 1.4 0 0 0 -.363-.811 4.641 4.641 0 0 1 -.642.2 2.406 2.406 0 0 1 -.492.059.762.762 0 0 1 -.611-.218.89.89 0 0 1 -.2-.578h2.313a3.335 3.335 0 0 0 .108-.943zm-2.436.061a1.825 1.825 0 0 1 .163-.753.474.474 0 0 1 .419-.2.5.5 0 0 1 .437.211 1.312 1.312 0 0 1 .146.642v.1z"/><path d="m30.385 26.932a1.2 1.2 0 0 0 -.4.949v1.539a1.358 1.358 0 0 1 -.512 1.168 2.1 2.1 0 0 1 -1.238.412h-.28v-.77a.93.93 0 0 0 .446-.251 1.027 1.027 0 0 0 .314-.785v-1.242a1.909 1.909 0 0 1 .193-.992 1.874 1.874 0 0 1 .9-.628 1.9 1.9 0 0 1 -.993-.884 2.217 2.217 0 0 1 -.1-.874v-1.139a1.094 1.094 0 0 0 -.275-.79.864.864 0 0 0 -.486-.236v-.72h.7a1.257 1.257 0 0 1 .768.331 1.5 1.5 0 0 1 .505.757 1.748 1.748 0 0 1 .064.526v1.317a1.384 1.384 0 0 0 .372 1.037 1.585 1.585 0 0 0 .64.359v.6a1.457 1.457 0 0 0 -.615.32z" stroke="#404040" stroke-miterlimit="10" stroke-width=".25"/><path d="m12.7 21.689h-.251a1.254 1.254 0 0 0 -.768.331 1.283 1.283 0 0 0 -.5.757 2.648 2.648 0 0 0 -.029.526v1.317a1.4 1.4 0 0 1 -.408 1.037 2.135 2.135 0 0 1 -.736.359v.6a1.914 1.914 0 0 1 .71.32 1.229 1.229 0 0 1 .433.949v1.535a1.336 1.336 0 0 0 .477 1.168 2.1 2.1 0 0 0 1.232.412h.316v-.77a1.1 1.1 0 0 1 -.482-.251 1.016 1.016 0 0 1 -.278-.785v-1.242a1.887 1.887 0 0 0 -.229-.992 1.872 1.872 0 0 0 -.9-.628 1.9 1.9 0 0 0 .993-.884 2.143 2.143 0 0 0 .137-.874v-1.139a1.1 1.1 0 0 1 .239-.79.985.985 0 0 1 .431-.2h.321v-.754h-.708z" stroke="#404040" stroke-miterlimit="10" stroke-width=".25"/><path d="m15.653 27.932h-.24c-.261 0-.359-.137-.359-.413v-5.07a.942.942 0 0 0 -.2-.642c-.113-.123-.308-.122-.587-.122h-.606v6.079a1.406 1.406 0 0 0 .264.93 1.081 1.081 0 0 0 .858.295 5.894 5.894 0 0 0 .952-.088 1.672 1.672 0 0 0 .027-.382 1.709 1.709 0 0 0 -.107-.587z"/></g></svg>