<svg viewBox="0 0 32 32" xmlns="http://www.w3.org/2000/svg"><path d="m27.4 5.5h-9.3l-2.1 4.2h-11.7v16.8h25.2v-21zm0 4.2h-8.2l1.1-2.1h7.1z" fill="#58a3af"/><path d="m29.694 14.493a3.8 3.8 0 0 0 -5.288-.085.357.357 0 0 0 -.114.257.37.37 0 0 0 .106.263l.48.479a.361.361 0 0 0 .474.033 2.18 2.18 0 0 1 2.848 3.287c-3.011 3.028-7.056-5.436-16.2-1.08a1.242 1.242 0 0 0 -.6 1.649 1.028 1.028 0 0 0 .049.093l1.562 2.711a1.245 1.245 0 0 0 1.682.463l.039-.023-.031.023.7-.391a15.987 15.987 0 0 0 2.192-1.629.38.38 0 0 1 .5-.016.357.357 0 0 1 .051.5.308.308 0 0 1 -.051.051 16.6 16.6 0 0 1 -2.293 1.736l-.025.014-.7.388a1.941 1.941 0 0 1 -.962.252 1.991 1.991 0 0 1 -1.727-1l-1.486-2.557c-2.847 2.013-4.576 5.889-3.648 10.795a.363.363 0 0 0 .357.294h1.691a.361.361 0 0 0 .372-.317 2.477 2.477 0 0 1 4.913 0 .361.361 0 0 0 .352.317h1.643a.365.365 0 0 0 .361-.317 2.474 2.474 0 0 1 4.91 0 .361.361 0 0 0 .358.317h1.628a.359.359 0 0 0 .36-.355c.04-2.295.658-4.93 2.423-6.249 6.094-4.568 4.487-8.483 3.074-9.903zm-6.227 6.907-1.167-.582a.732.732 0 1 1 1.164.587z" fill="#02303a"/></svg>