<svg xmlns="http://www.w3.org/2000/svg" viewBox="0 0 32 32"><title>folder_type_notification_opened</title><path d="M27.4,5.5H18.2L16.1,9.7H4.3v4H.5L4.3,26.5H29.5V5.5ZM20.2,7.6h7.1V9.7H19.2Zm5.5,6.1H6.6V11.8H27.4v7.6Z" style="fill:#ad7cd8"/><path d="M26.893,25.147H14.352c0-1.771-.005-3.537.018-5.3A6.082,6.082,0,0,1,17.5,14.356a14.571,14.571,0,0,1,1.715-.743,1.65,1.65,0,0,1-.168-1.454,2.241,2.241,0,0,1,.612-.831,1.586,1.586,0,0,1,1.926,0c.692.5.822,1.168.451,2.291l1.976.827a4.6,4.6,0,0,0,2.883,7.8Zm-13.09.844a.78.78,0,0,0-.881.6,9.483,9.483,0,0,0-.2,1.66c-.03.584.089.677.686.677,1.407,0,2.814.01,4.221-.008.354,0,.538.066.664.444A2.409,2.409,0,0,0,20.658,31a2.434,2.434,0,0,0,2.293-1.685.474.474,0,0,1,.555-.4c1.463.019,2.927,0,4.39.008.272,0,.57-.039.593-.344a3.421,3.421,0,0,0-.274-2.141.812.812,0,0,0-.779-.448c-2.279.021-4.558.01-6.837.01S16.068,26.02,13.8,25.991ZM27.264,13.98A3.755,3.755,0,1,0,31,17.754,3.731,3.731,0,0,0,27.264,13.98ZM12.679,18.211c0-.042-.259-4.161,4.619-5.887l-.225-.639a7.3,7.3,0,0,0-4.562,3.991,6.026,6.026,0,0,0-.5,2.587Z" style="fill:#6a14b5"/><path d="M26.585,19.651a.68.68,0,1,1,.684.693A.661.661,0,0,1,26.585,19.651Zm.25-1.074-.175-3.451h1.209L27.7,18.577Z" style="fill:#fff"/></svg>