<svg xmlns="http://www.w3.org/2000/svg" xmlns:xlink="http://www.w3.org/1999/xlink" viewBox="0 0 32 32"><defs><radialGradient id="a" cx="20.365" cy="6.269" r="2.721" gradientTransform="matrix(-0.148, 0.989, 1.059, 0.158, 11.812, -5.692)" gradientUnits="userSpaceOnUse"><stop offset="0" stop-color="#bedcdc"/><stop offset="0.5" stop-color="#8e9e9e" stop-opacity="0.74"/><stop offset="1" stop-color="#404f5c" stop-opacity="0.84"/></radialGradient><radialGradient id="b" cx="6.566" cy="14.644" r="3.9" gradientTransform="matrix(-0.148, 0.989, 1.059, 0.158, 9.451, 15.181)" xlink:href="#a"/></defs><title>folder_type_services_opened</title><path d="M27.4,5.5H18.2L16.1,9.7H4.3v4H.5L4.3,26.5H29.5V5.5ZM20.2,7.6h7.1V9.7H19.2Zm5.5,6.1H6.6V11.8H27.4v7.626Z" style="fill:#7bbedb"/><polygon points="13.886 12.006 12.083 13.809 11.182 12.006 12.083 11.105 13.886 12.006" style="fill:silver"/><polygon points="16.772 11.912 14.221 11.912 14.859 10 16.133 10 16.772 11.912" style="fill:silver"/><polygon points="18.877 13.886 17.074 12.083 18.877 11.182 19.779 12.083 18.877 13.886" style="fill:silver"/><polygon points="18.971 16.772 18.971 14.221 20.883 14.859 20.883 16.133 18.971 16.772" style="fill:silver"/><polygon points="16.997 18.877 18.8 17.074 19.701 18.877 18.8 19.779 16.997 18.877" style="fill:silver"/><polygon points="14.112 18.971 16.662 18.971 16.025 20.883 14.75 20.883 14.112 18.971" style="fill:silver"/><polygon points="12.006 16.997 13.809 18.8 12.006 19.701 11.105 18.8 12.006 16.997" style="fill:silver"/><polygon points="11.912 14.112 11.912 16.662 10 16.025 10 14.75 11.912 14.112" style="fill:silver"/><path d="M11.663,15.442a3.778,3.778,0,1,1,1.107,2.672A3.778,3.778,0,0,1,11.663,15.442Zm3.779,1.425a1.425,1.425,0,1,0-1.008-.418A1.425,1.425,0,0,0,15.442,16.867Z" style="fill:silver"/><path d="M15.5,18.939A3.5,3.5,0,1,0,11.945,15.5h0A3.5,3.5,0,0,0,15.5,18.939Zm-.113-6.457a2.96,2.96,0,1,1-2.907,3.012h0A2.961,2.961,0,0,1,15.39,12.482Z" style="fill:#a9a9a9"/><path d="M15.489,18.162a2.721,2.721,0,1,0-2.767-2.673h0A2.72,2.72,0,0,0,15.489,18.162Zm-.075-4.275a1.555,1.555,0,1,1-1.528,1.583,1.555,1.555,0,0,1,1.528-1.583Z" style="fill:url(#a)"/><path d="M15.47,17a1.555,1.555,0,1,0-1.583-1.526h0A1.555,1.555,0,0,0,15.47,17Zm-.051-2.87a1.316,1.316,0,1,1-1.292,1.339h0a1.316,1.316,0,0,1,1.292-1.337Z" style="fill:#a9a9a9"/><polygon points="27.572 19.763 25.866 18.816 26.964 17.64 27.988 18.208 27.572 19.763" style="fill:silver"/><polygon points="29.208 22.119 28.203 20.447 29.742 19.977 30.345 20.981 29.208 22.119" style="fill:silver"/><polygon points="29.446 24.978 29.412 23.027 30.98 23.39 31 24.56 29.446 24.978" style="fill:silver"/><polygon points="28.223 27.572 29.169 25.866 30.345 26.964 29.778 27.988 28.223 27.572" style="fill:silver"/><polygon points="25.866 29.208 27.539 28.203 28.008 29.742 27.005 30.345 25.866 29.208" style="fill:silver"/><polygon points="23.007 29.446 24.959 29.412 24.596 30.98 23.425 31 23.007 29.446" style="fill:silver"/><polygon points="20.413 28.223 22.119 29.169 21.021 30.345 19.997 29.778 20.413 28.223" style="fill:silver"/><polygon points="18.777 25.866 19.782 27.539 18.243 28.008 17.64 27.005 18.777 25.866" style="fill:silver"/><polygon points="18.539 23.007 18.573 24.959 17.006 24.596 16.985 23.425 18.539 23.007" style="fill:silver"/><polygon points="19.763 20.413 18.816 22.119 17.64 21.021 18.208 19.997 19.763 20.413" style="fill:silver"/><polygon points="22.119 18.777 20.447 19.782 19.977 18.243 20.981 17.64 22.119 18.777" style="fill:silver"/><polygon points="24.978 18.539 23.027 18.573 23.39 17.006 24.56 16.985 24.978 18.539" style="fill:silver"/><path d="M23.9,18.372a5.626,5.626,0,1,1-3.946,1.716A5.625,5.625,0,0,1,23.9,18.372ZM21.883,24.03a2.112,2.112,0,1,0,.592-1.5A2.11,2.11,0,0,0,21.883,24.03Z" style="fill:silver"/><path d="M24.081,29.045a5.053,5.053,0,1,0-5.14-4.964,5.054,5.054,0,0,0,5.14,4.964Zm-.163-9.327a4.275,4.275,0,1,1-4.2,4.35,4.275,4.275,0,0,1,4.2-4.35Z" style="fill:#a9a9a9"/><path d="M24.061,27.893a3.9,3.9,0,1,0-3.967-3.832,3.9,3.9,0,0,0,3.967,3.832Zm-.105-6.027a2.128,2.128,0,1,1-2.09,2.164h0a2.127,2.127,0,0,1,2.089-2.164Z" style="fill:url(#b)"/><path d="M24.033,26.324a2.331,2.331,0,1,0-2.372-2.291,2.331,2.331,0,0,0,2.372,2.291Zm-.075-4.3a1.973,1.973,0,1,1-1.938,2.007,1.972,1.972,0,0,1,1.938-2.007Z" style="fill:#a9a9a9"/></svg>