<svg xmlns="http://www.w3.org/2000/svg" viewBox="0 0 32 32"><title>folder_type_paket</title><path d="M27.5,5.5H18.2L16.1,9.7H4.4V26.5H29.6V5.5Zm0,4.2H19.3l1.1-2.1h7.1Z" style="fill:#558dbf"/><path d="M14.154,11.647c1.558-.015,3.119,0,4.678-.006-.369,1.593-.725,3.189-1.093,4.782q-3.559,0-7.118,0c-.225,0-.45.008-.675-.009C11.345,14.821,12.758,13.241,14.154,11.647Z" style="fill:#cbedf2"/><path d="M22.069,11.641q2.332,0,4.665,0c1.4,1.593,2.816,3.175,4.213,4.772-.9.019-1.8,0-2.7.008q-2.548,0-5.1,0C22.8,14.827,22.419,13.237,22.069,11.641Z" style="fill:#cbedf2"/><path d="M18.833,11.641q1.618,0,3.236,0c.35,1.6.727,3.186,1.083,4.78-1.8,0-3.608,0-5.412,0C18.108,14.83,18.463,13.234,18.833,11.641Z" style="fill:#016fd2"/><path d="M9.947,16.413c.225.017.45.008.675.009q3.559,0,7.118,0c0,1.683,0,3.368.005,5.051a1.83,1.83,0,0,0,.192.013h5.057c.05,0,.1-.005.151-.01.015-1.685,0-3.371.007-5.056q2.548,0,5.1,0c.9,0,1.8.011,2.7-.008q0,7.3,0,14.6-10.5,0-21,0Q9.945,23.713,9.947,16.413Z" style="fill:#016fd2"/><path d="M17.74,16.423c1.8,0,3.608,0,5.412,0-.006,1.685.008,3.371-.007,5.056-.05.005-.1.009-.151.01H17.937a1.83,1.83,0,0,1-.192-.013C17.736,19.791,17.743,18.106,17.74,16.423Z" style="fill:#0663b4"/><rect x="11.48" y="26.263" width="7.027" height="2.706" style="fill:#cbedf2"/></svg>