<svg xmlns="http://www.w3.org/2000/svg" viewBox="0 0 32 32"><title>folder_type_light_meteor_opened</title><path d="M27.4,5.5H18.2L16.1,9.7H4.3V26.5H29.5V5.5Zm0,18.7H6.6V11.8H27.4Zm0-14.5H19.2l1-2.1h7.1V9.7Z" style="fill:#db7b7b"/><polygon points="25.7 13.7 0.5 13.7 4.3 26.5 29.5 26.5 25.7 13.7" style="fill:#db7b7b"/><path d="M9.99,10.4l17.984,19.05a.839.839,0,0,0,1.081-.072.8.8,0,0,0,.108-1.008L9.99,10.4Z" style="fill:#df4f4f"/><path d="M15.684,12.205,29.38,26.97a.839.839,0,0,0,1.081-.072.8.8,0,0,0,.108-1.008L15.684,12.205Z" style="fill:#df4f4f"/><path d="M11.684,16.058l13.7,14.764a.839.839,0,0,0,1.081-.072.8.8,0,0,0,.108-1.008L11.684,16.058Z" style="fill:#df4f4f"/><path d="M20.5,13.754l9.568,10.315a.586.586,0,0,0,.755-.05.558.558,0,0,0,.076-.7l-10.4-9.56Z" style="fill:#df4f4f"/><path d="M13,20.524,22.57,30.839a.586.586,0,0,0,.755-.05.558.558,0,0,0,.076-.7L13,20.524Z" style="fill:#df4f4f"/><path d="M25.415,15.986l4.337,4.689a.3.3,0,0,0,.374-.024.251.251,0,0,0,.037-.33l-4.748-4.336Z" style="fill:#df4f4f"/><path d="M15.4,25.277l4.337,4.689a.3.3,0,0,0,.374-.024.251.251,0,0,0,.037-.33L15.4,25.277Z" style="fill:#df4f4f"/></svg>