<svg xmlns="http://www.w3.org/2000/svg" viewBox="0 0 32 32"><title>folder_type_light_expo_opened</title><path d="M27.55,5.55h-9.2l-2.1,4.2H4.45v3.99H.65l3.8,12.8v.01h25.2v-21Zm-7.2,2.1h7.1v2.1h-8.1Zm5.5,6.09H6.75V11.85h20.8v7.616Z" style="fill:#abb4d9;fill-rule:evenodd"/><path d="M11.847,23.189,17.562,12.3l5.622-3.014,1.671.845-5.588,3.157,5.774,17.354-1.857-1.08L18.862,19.6,13.19,23.906Z" style="fill:#fff"/><ellipse cx="28.552" cy="18.403" rx="2.11" ry="1.967" style="fill:#fff"/><path d="M30.088,17.525a1.911,1.911,0,0,0-3.266.236,1.722,1.722,0,0,0,.329,1.925A2.785,2.785,0,0,0,30.088,17.525ZM24.416,10.1,23.2,9.43l-5.293,2.946.422.228.8.422,1.452-.8,3.832-2.136Zm.49-.2a.19.19,0,0,1,.135.127l1.772,5.233a.175.175,0,0,1-.084.228A3.427,3.427,0,0,0,25.075,19.4a3.62,3.62,0,0,0,3.866,2.549.223.223,0,0,1,.219.135l1.832,5.369a.216.216,0,0,1-.085.236l-5.63,3.292a.221.221,0,0,1-.084.017.229.229,0,0,1-.152-.025l-1.975-1.241a.2.2,0,0,1-.085-.085l-3.857-8.871-5.875,3.342a.175.175,0,0,1-.043.017.2.2,0,0,1-.185-.008l-1.334-.76a.193.193,0,0,1-.084-.253l5.706-10.83A.205.205,0,0,1,17.4,12.2l5.689-3.174a.22.22,0,0,1,.2,0Zm-7.057,2.912-.279-.143-5.5,10.475,1,.566,4.744-6.2a.233.233,0,0,1,.194-.085.239.239,0,0,1,.169.127l5.166,11.9,1.384.852L19.183,14.081l-.237-.675L17.841,12.8Zm8.509,6.247a2.143,2.143,0,0,1,1.055-2.448,2.329,2.329,0,0,1,2.735.337,2.138,2.138,0,0,1,.061,3.02c-.02.021-.041.041-.061.061a2.3,2.3,0,0,1-3.79-.97Z"/></svg>