<svg xmlns="http://www.w3.org/2000/svg" viewBox="0 0 32 32"><defs><linearGradient id="a" x1="500" x2="500" y1="0" y2="992.583" gradientUnits="userSpaceOnUse"><stop offset="0%" stop-color="#2AABEE"/><stop offset="100%" stop-color="#229ED9"/></linearGradient></defs><path d="M27.4 5.5h-9.2l-2.1 4.2H4.3v4H.5l3.8 12.8h25.2v-21Zm-7.2 2.1h7.1v2.1h-8.1Zm5.5 6.1H6.6v-1.9h20.8v7.626Z" style="fill:#1a739f;fill-opacity:1"/><g fill="none" fill-rule="evenodd" transform="translate(11 11)scale(.019)"><circle cx="500" cy="500" r="500" fill="url(#a)" style="fill:url(#a)"/><path fill="#fff" d="M226.328 494.722q218.64-95.258 291.59-125.6c138.855-57.755 167.707-67.787 186.513-68.118 4.137-.073 13.385.952 19.375 5.813 5.059 4.104 6.45 9.649 7.117 13.54s1.495 12.757.836 19.684c-7.525 79.061-40.084 270.924-56.648 359.474-7.009 37.47-20.81 50.033-34.17 51.262-29.036 2.672-51.085-19.189-79.208-37.624-44.006-28.847-68.867-46.804-111.583-74.953-49.366-32.531-17.364-50.411 10.77-79.631C468.281 550.92 596.214 434.556 598.69 424c.31-1.32.597-6.241-2.326-8.84-2.924-2.598-7.239-1.71-10.353-1.003q-6.62 1.503-210.902 139.4-29.933 20.553-54.223 20.028c-17.853-.386-52.194-10.094-77.723-18.393-31.313-10.178-56.2-15.56-54.032-32.846q1.692-13.505 37.196-27.624"/></g></svg>