<svg xmlns="http://www.w3.org/2000/svg" xmlns:xlink="http://www.w3.org/1999/xlink" viewBox="0 0 32 32"><defs><linearGradient id="a" x1="15.915" y1="6.261" x2="21.018" y2="17.058" gradientTransform="matrix(1, 0, 0, -1, 0, 32)" gradientUnits="userSpaceOnUse"><stop offset="0" stop-color="#1011a1"/><stop offset="1" stop-color="#6969e1"/></linearGradient><linearGradient id="b" x1="20.677" y1="14.273" x2="27.8" y2="2.228" gradientTransform="matrix(1, 0, 0, -1, 0, 32)" gradientUnits="userSpaceOnUse"><stop offset="0" stop-color="#b40e0e"/><stop offset="1" stop-color="#ff5959"/></linearGradient><linearGradient id="c" x1="24.799" y1="3.019" x2="14.72" y2="3.865" gradientTransform="matrix(1, 0, 0, -1, 0, 32)" gradientUnits="userSpaceOnUse"><stop offset="0" stop-color="#01a300"/><stop offset="1" stop-color="#01df00"/></linearGradient><linearGradient id="d" x1="19.472" y1="5.709" x2="19.343" y2="10.092" gradientTransform="matrix(1, 0, 0, -1, 0, 32)" gradientUnits="userSpaceOnUse"><stop offset="0" stop-color="#848484"/><stop offset="1" stop-color="#d2d2d2"/></linearGradient></defs><title>folder_type_cmake_opened</title><path d="M27.9,6H18.2l-2,4H5V27H30V6ZM28,24H7V12H28Zm.1-14H20.3l1-2H28Z" style="fill:#dcb67a"/><polygon points="25.9 14 0.3 14 4.1 27 29.7 27 25.9 14" style="fill:#dcb67a"/><path d="M21.456,21.2,10.065,30.933,20.5,10.091Z" style="stroke:#000;stroke-width:0.05000000074505806px;fill:url(#a)"/><path d="M21.983,27.277,20.5,10.089,30.949,30.935Z" style="stroke:#000;stroke-width:0.05000000074505806px;fill:url(#b)"/><path d="M16.829,25.124,30.96,30.933H10.068Z" style="stroke:#000;stroke-width:0.05000000074505806px;fill:url(#c)"/><path d="M16.851,25.138l4.6-3.922.64,6.056Z" style="stroke:#000;stroke-width:0.10000000149011612px;fill:url(#d)"/><path d="M30.887,31H10.094c-.127-.014-.1-.076-.069-.141L20.45,10.043c.038-.061.075-.051.105,0L30.974,30.851C31.029,30.958,30.994,31,30.887,31Z" style="fill:none;stroke:#000;stroke-width:0.15000000596046448px"/></svg>