<?xml version="1.0" encoding="UTF-8" standalone="no"?><!DOCTYPE svg PUBLIC "-//W3C//DTD SVG 1.1//EN" "http://www.w3.org/Graphics/SVG/1.1/DTD/svg11.dtd"><svg width="100%" height="100%" viewBox="0 0 178 178" version="1.1" xmlns="http://www.w3.org/2000/svg" xmlns:xlink="http://www.w3.org/1999/xlink" xml:space="preserve" xmlns:serif="http://www.serif.com/" style="fill-rule:evenodd;clip-rule:evenodd;stroke-linejoin:round;stroke-miterlimit:2;"><g id="Folder-Open" serif:id="Folder Open"><path d="M163.889,30.556l-62.778,-0l-11.667,23.333l-65.555,-0l-0,93.333l140,0l-0,-116.666Zm-11.667,103.888l-115.555,0l-0,-68.888l115.555,-0l0,68.888Zm0,-80.555l-45.555,-0l5.555,-11.667l39.445,0l-0,11.667l0.555,-0Z" style="fill:#2c9a6a;fill-rule:nonzero;"/><path d="M142.778,76.111l-140,0l21.111,71.111l140,0l-21.111,-71.111Z" style="fill:#2c9a6a;fill-rule:nonzero;"/></g><g id="Cy-Logo" serif:id="Cy Logo"><g id="Light"><path id="light" d="M111.26,55.244c31.837,-1.139 58.616,23.965 59.763,56.024c1.147,32.059 -23.77,59.012 -55.607,60.15c-31.838,1.139 -58.616,-23.964 -59.763,-56.023c-1.147,-32.06 23.77,-59.012 55.607,-60.151Z" style="fill:#fafafa;"/><g><g><g id="light1" serif:id="light"><path d="M144.291,94.897l-10.869,27.456l-10.94,-27.456l-8.951,0l15.343,37.475l-10.915,26.431l7.824,1.555l26.965,-65.461l-8.457,0Z" style="fill-rule:nonzero;"/><g><path d="M96.522,101.842c4.541,0 8.24,2.419 10.141,6.637l0.15,0.329l7.627,-2.586l-0.163,-0.39c-2.954,-7.181 -9.756,-11.644 -17.755,-11.644c-5.623,-0 -10.195,1.799 -13.971,5.495c-3.755,3.672 -5.654,8.292 -5.654,13.731c0,5.395 1.899,9.989 5.654,13.662c3.776,3.695 8.348,5.495 13.971,5.495c7.999,-0 14.801,-4.464 17.755,-11.64l0.163,-0.39l-7.639,-2.591l-0.145,0.343c-1.702,4.144 -5.49,6.623 -10.134,6.623c-3.164,0 -5.834,-1.104 -7.952,-3.277c-2.14,-2.202 -3.222,-4.966 -3.222,-8.218c-0,-3.275 1.056,-5.988 3.222,-8.289c2.111,-2.185 4.788,-3.29 7.952,-3.29Z" style="fill-rule:nonzero;"/></g></g><g><path d="M59.317,128.123c-1.324,-4.811 -1.997,-9.809 -1.997,-14.842c-0,-22.976 14.453,-43.984 35.967,-52.269l2.822,7.288c-18.519,7.135 -30.958,25.208 -30.958,44.981c-0,4.337 0.577,8.633 1.714,12.772l-7.548,2.07Z" style="fill:#58d09e;fill-rule:nonzero;"/><path d="M92.912,61.192c4.654,-1.817 9.562,-3.008 14.576,-3.534c22.887,-2.402 45.325,9.752 55.827,30.248l-6.965,3.564c-9.043,-17.642 -28.347,-28.104 -48.043,-26.037c-4.321,0.453 -8.54,1.476 -12.544,3.037l-2.851,-7.278Z" style="fill:#58d09e;fill-rule:nonzero;"/><path d="M139.126,154.018c15.282,-9.726 23.795,-26.986 22.213,-45.035c-0.56,-6.393 -2.339,-12.501 -5.275,-18.141l6.939,-3.612c3.414,6.554 5.484,13.644 6.135,21.072c1.837,20.968 -8.048,41.012 -25.803,52.311l-4.209,-6.595Z" style="fill:url(#_Linear1);fill-rule:nonzero;"/><g id="light2" serif:id="light"><path d="M119.534,154.822l-1.906,4.608c-0.379,0.913 -1.244,1.529 -2.219,1.571c-0.643,0.026 -1.293,0.042 -1.95,0.042c-22.44,-0.011 -42.295,-15.806 -47.214,-37.571l-7.64,1.723c2.762,12.207 9.69,23.286 19.513,31.205c9.936,8.01 22.452,12.431 35.257,12.454l0.114,0c0.753,0 1.499,-0.018 2.245,-0.046c4.017,-0.168 7.609,-2.683 9.143,-6.408l2.49,-6.023l-7.833,-1.555Z" style="fill:url(#_Linear2);fill-rule:nonzero;"/></g></g></g></g></g></g><defs><linearGradient id="_Linear1" x1="0" y1="0" x2="1" y2="0" gradientUnits="userSpaceOnUse" gradientTransform="matrix(-24.9738,72.4618,-72.4618,-24.9738,162.177,88.9072)"><stop offset="0" style="stop-color:#58d09e;stop-opacity:1"/><stop offset="1" style="stop-color:#d2d2d2;stop-opacity:0"/></linearGradient><linearGradient id="_Linear2" x1="0" y1="0" x2="1" y2="0" gradientUnits="userSpaceOnUse" gradientTransform="matrix(55.8337,6.48404,-6.48404,55.8337,62.9509,143.47)"><stop offset="0" style="stop-color:#58d09e;stop-opacity:1"/><stop offset="1" style="stop-color:#000;stop-opacity:1"/></linearGradient></defs></svg>