<svg version="1.1" viewBox="0 0 32 32" xml:space="preserve" xmlns="http://www.w3.org/2000/svg"><title>folder_type_notebooks_opened</title><path d="M27.4,5.5H18.2L16.1,9.7H4.3V26.5H29.5V5.5Zm0,18.7H6.6V11.8H27.4Zm0-14.5H19.2l1-2.1h7.1V9.7Z" fill="#969696"/><polygon points="25.7 13.7 0.5 13.7 4.3 26.5 29.5 26.5" fill="#969696"/><g transform="matrix(.81851 0 0 .81851 9.3369 6.2961)"><path d="m26.233 3.588a1.69 1.69 0 1 1-1.76-1.588 1.67 1.67 0 0 1 1.76 1.585z" fill="#767677"/><path d="m16.375 23.111c-4.487 0-8.43-1.61-10.469-3.988a11.162 11.162 0 0 0 20.938 0c-2.034 2.377-5.962 3.988-10.469 3.988z" fill="#f37726"/><path d="m16.375 7.648c4.487 0 8.43 1.61 10.469 3.988a11.162 11.162 0 0 0-20.938 0c2.039-2.383 5.963-3.988 10.469-3.988z" fill="#f37726"/><path d="m10.2 27.739a2.109 2.109 0 1 1-0.2-0.8 2.129 2.129 0 0 1 0.2 0.8z" fill="#9e9e9e"/><path d="m6.416 7.106a1.226 1.226 0 1 1 1.192-1.276 1.241 1.241 0 0 1-1.192 1.276z" fill="#616262"/></g></svg>
