<svg version="1.1" viewBox="0 0 32 32" xmlns="http://www.w3.org/2000/svg"><title>folder_type_windsurf_opened</title><path d="M27.4,5.5H18.2L16.1,9.7H4.3V26.5H29.5V5.5Zm0,18.7H6.6V11.8H27.4Zm0-14.5H19.2l1-2.1h7.1V9.7Z" fill="#8cf3da"/><polygon points="25.7 13.7 0.5 13.7 4.3 26.5 29.5 26.5" fill="#8cf3da"/><path d="m29.401 14.903h-0.1906c-1.0031-0.0016-1.8172 0.81077-1.8172 1.8137v4.0564c0 0.81001-0.66953 1.4662-1.4664 1.4662-0.47341 0-0.94607-0.23826-1.2265-0.63821l-4.1429-5.917c-0.34374-0.49133-0.90309-0.78425-1.5086-0.78425-0.94451 0-1.7945 0.80299-1.7945 1.7942v4.0798c0 0.81005-0.66403 1.4662-1.4664 1.4662-0.47499 0-0.94685-0.23824-1.2273-0.63817l-4.6358-6.6216c-0.1046-0.15-0.33982-0.0758-0.33982 0.107v3.5377c0 0.1788 0.0548 0.3523 0.157 0.49915l4.5624 6.5154c0.26954 0.38507 0.66721 0.67099 1.1258 0.77487 1.1477 0.26088 2.2039-0.62255 2.2039-1.7481v-4.0775c0-0.81001 0.65625-1.4662 1.4664-1.4662h2e-3c0.48829 0 0.94607 0.23826 1.2265 0.63821l4.1437 5.9162c0.34452 0.49211 0.87497 0.78425 1.5078 0.78425 0.96561 0 1.7929-0.80377 1.7929-1.7942v-4.079c0-0.81003 0.65623-1.4662 1.4664-1.4662h0.1618c0.1016 0 0.1836-0.082 0.1836-0.1836v-3.8517c0-0.1016-0.082-0.1836-0.1836-0.1836z" fill="#0b100f" stroke-width=".025665"/></svg>
