<svg xmlns="http://www.w3.org/2000/svg" viewBox="0 0 32 32"><title>folder_type_aws@2x</title><g id="folder_aws"><path d="M27.5,5.5H18.2L16.1,9.7H4.4V26.5H29.6V5.5Zm0,4.2H19.3l1.1-2.1h7.1Z" style="fill:#bf7f55"/><path d="M31,25.89V27c0,2-2.18,4-4.84,4H11.84C9.15,31,7,29,7,27V25.89Z" style="fill:#9d5125"/><path d="M16.24,15.29a6.1,6.1,0,0,1,5.59,3.61,3.12,3.12,0,0,1,1.77-.55,3.07,3.07,0,0,1,3.1,3,4.88,4.88,0,0,1,4.3,4.4v.41c0,2-2.18,4-4.88,4H11.84c-2.69,0-4.84-2-4.84-4v-.41a4.74,4.74,0,0,1,3.1-4.16v-.17A6.11,6.11,0,0,1,16.24,15.29Z" style="fill:#f58535"/><path d="M13,22.42,11.4,28h1l.38-1.36h1.64L14.7,28h1l-1.5-5.59Zm-.14,3.51.68-2.76h0l.65,2.76Z" style="fill:#fff"/><polygon points="19.68 26.82 19.65 26.82 18.9 22.42 17.94 22.42 17.23 26.78 17.19 26.78 16.44 22.42 15.56 22.42 16.65 28.04 17.67 28.04 18.39 23.82 18.42 23.82 19.14 28.04 20.19 28.04 21.32 22.42 20.4 22.42 19.68 26.82" style="fill:#fff"/><path d="M24.22,25l-.61-.2c-.61-.24-.85-.51-.85-1a.77.77,0,1,1,1.53,0v.1h.89v-.14c0-.58-.14-1.47-1.6-1.47a1.54,1.54,0,0,0-1.74,1.6A1.48,1.48,0,0,0,23,25.42l.61.2a.94.94,0,0,1,.82,1,.8.8,0,0,1-.85.82q-.92,0-.92-1v-.14H21.8v.14a1.53,1.53,0,0,0,1.7,1.7c1.12,0,1.87-.48,1.87-1.67A1.48,1.48,0,0,0,24.22,25Z" style="fill:#fff"/></g></svg>