<svg xmlns="http://www.w3.org/2000/svg" viewBox="0 0 32 32"><title>folder_type_windows_opened</title><path d="M27.4,5.5H18.2L16.1,9.7H4.3V26.5H29.5V5.5Zm0,18.7H6.6V11.8H27.4Zm0-14.5H19.2l1-2.1h7.1V9.7Z" style="fill:#dcb67a"/><polygon points="25.7 13.7 0.5 13.7 4.3 26.5 29.5 26.5 25.7 13.7" style="fill:#dcb67a"/><path d="M11,13.832l8.173-1.11,0,7.86-8.17.046Zm8.169,7.655.007,7.867-8.17-1.12v-6.8Zm.991-8.91L31,11v9.482l-10.837.085ZM31,21.561,31,31,20.16,29.475l-.015-7.932Z" style="fill:#00adef"/></svg>