<svg xmlns="http://www.w3.org/2000/svg" viewBox="0 0 32 32"><title>folder_type_light_mypy</title><path fill="#1a4d80" d="M27.5 5.5h-9.3l-2.1 4.2H4.4v16.8h25.2v-21Zm0 4.2h-8.2l1.1-2.1h7.1Z"/><path fill="#2a6db2" d="M20.44 11.04c-4.82 0-4.53 2.1-4.53 2.1l.01 2.15h4.6v.66H14.1S11 15.59 11 20.45c0 4.87 2.7 4.7 2.7 4.7h1.6v-2.26s-.09-2.7 2.64-2.7h4.57s2.56.05 2.56-2.47v-4.16s.4-2.52-4.64-2.52zm-2.54 1.45a.83.83 0 1 1 0 1.66.83.83 0 0 1 0-1.66z"/><path fill="#505050" d="M20.57 29.93c4.82 0 4.53-2.1 4.53-2.1l-.01-2.16h-4.6v-.65h6.42s3.09.35 3.09-4.51c0-4.87-2.7-4.7-2.7-4.7h-1.6v2.27s.09 2.69-2.64 2.69h-4.57s-2.56-.04-2.56 2.47v4.17s-.4 2.52 4.64 2.52zm2.54-1.46a.83.83 0 1 1 0-1.65.83.83 0 0 1 0 1.65z"/></svg>