<svg xmlns="http://www.w3.org/2000/svg" viewBox="0 0 32 32"><title>folder_type_notification_opened</title><path d="M27.4,5.5H18.2L16.1,9.7H4.3v4H.5L4.3,26.5H29.5V5.5ZM20.2,7.6h7.1V9.7H19.2Zm5.5,6.1H6.6V11.8H27.4v7.6Z" style="fill:#969b57"/><path d="M26.893,25.147H14.352c0-1.771-.005-3.537.018-5.3a6.083,6.083,0,0,1,3.13-5.491,14.624,14.624,0,0,1,1.715-.743,1.648,1.648,0,0,1-.168-1.454,2.246,2.246,0,0,1,.612-.831,1.587,1.587,0,0,1,1.926,0c.692.5.822,1.168.451,2.291l1.976.827a4.6,4.6,0,0,0,2.883,7.8Zm-13.09.844a.78.78,0,0,0-.881.6,9.553,9.553,0,0,0-.2,1.66c-.03.584.089.677.686.677,1.407,0,2.814.01,4.221-.008.354,0,.538.066.664.444A2.408,2.408,0,0,0,20.658,31a2.435,2.435,0,0,0,2.293-1.685.474.474,0,0,1,.536-.4h.019c1.463.019,2.927,0,4.39.008.272,0,.57-.039.593-.344a3.421,3.421,0,0,0-.274-2.141.812.812,0,0,0-.779-.448c-2.279.021-4.558.01-6.837.01s-4.531.02-6.8-.009ZM27.264,13.98a3.713,3.713,0,1,0,.048,0ZM12.679,18.211c0-.042-.259-4.161,4.619-5.887l-.225-.639a7.3,7.3,0,0,0-4.562,3.991,6.035,6.035,0,0,0-.5,2.587Z" style="fill:#eaea28"/><path d="M26.585,19.651a.68.68,0,1,1,.684.693.661.661,0,0,1-.684-.637A.523.523,0,0,1,26.585,19.651Zm.25-1.074-.175-3.451h1.209L27.7,18.577Z" style="fill:#fff"/></svg>