<svg viewBox="0 0 32 32" xmlns="http://www.w3.org/2000/svg" xmlns:xlink="http://www.w3.org/1999/xlink"><linearGradient id="a" gradientTransform="matrix(1 0 0 -1 0 32)" gradientUnits="userSpaceOnUse" x1="20.813" x2="20.813" y1="19.026" y2="1"><stop offset="0" stop-color="#c22127"/><stop offset=".088" stop-color="#b52127"/><stop offset=".517" stop-color="#792026"/><stop offset=".834" stop-color="#531f25"/><stop offset="1" stop-color="#451f25"/></linearGradient><linearGradient id="b" x1="12.668" x2="12.668" xlink:href="#a" y1="16.133" y2="14.762"/><linearGradient id="c" x1="11.71" x2="11.71" xlink:href="#a" y1="11.631" y2="10.319"/><linearGradient id="d" x1="15.844" x2="15.844" xlink:href="#a" y1="11.462" y2="9.841"/><linearGradient id="e" x1="8.153" x2="8.153" xlink:href="#a" y1="14.476" y2="13.478"/><linearGradient id="f" x1="9.922" x2="9.922" xlink:href="#a" y1="16.131" y2="15.032"/><linearGradient id="g" x1="6.825" x2="6.825" xlink:href="#a" y1="12.193" y2="11.36"/><linearGradient id="h" x1="13.306" x2="13.306" xlink:href="#a" y1="9.947" y2="8.766"/><linearGradient id="i" x1="14.517" x2="14.517" xlink:href="#a" y1="8.059" y2="7.136"/><linearGradient id="j" x1="9.037" x2="9.037" xlink:href="#a" y1="11.353" y2="10.566"/><linearGradient id="k" x1="5.443" x2="5.443" xlink:href="#a" y1="14.007" y2="13.219"/><linearGradient id="l" x1="11.067" x2="11.067" xlink:href="#a" y1="9.185" y2="8.399"/><linearGradient id="m" x1="10.758" x2="10.758" xlink:href="#a" y1="13.704" y2="12.643"/><path d="m27.4 5.5h-9.2l-2.1 4.2h-11.8v16.8h25.2v-21zm0 18.7h-20.8v-12.4h20.8zm0-14.5h-8.2l1-2.1h7.1v2.1z" fill="#ec8e91"/><path d="m25.7 13.7h-25.2l3.8 12.8h25.2z" fill="#ec8e91"/><path d="m27.7 21.175a6.026 6.026 0 0 0 -3.653-1.975 10.3 10.3 0 0 0 -3.578.089 7.942 7.942 0 0 1 -.082 2.742c-.765-8.216-6.213-8.655-9.76-9.057a7.26 7.26 0 0 1 3.206 2.453h1.121l-.2 1.148h.624l-.16.874c.021.037.042.076.063.115h-.77l-.152.771h-1.259l-.314 1.6h1.51l.104-.535h1.479l.225-1.154h.658l-.181 1.023h.912l-.215 1.219h1l-.325 1.851h-.277l-.134.764h-1.222l-.274 1.5h1.414l.084-.459h1.116l-.274 1.556h-.937a18.59 18.59 0 0 1 -.662 5.3c3.018-.84 4.574-5.067 8.275-6.763 3.2-1.466 5.989 0 5.937-.59-.1-1.1-2.609-2.33-3.3-2.474m-2.906-.108c-.629-.572.633-.466 1.588.309a1.851 1.851 0 0 1 -1.588-.309" fill="url(#a)"/><path d="m13.441 15.867h-1.296l-.251 1.371h1.295z" fill="url(#b)"/><path d="m10.971 21.681h1.238l.24-1.312h-1.238z" fill="url(#c)"/><path d="m16.758 20.538h-1.531l-.296 1.621h1.53z" fill="url(#d)"/><path d="m7.773 17.524-.183.998h.942l.183-.998z" fill="url(#e)"/><path d="m10.541 15.869h-1.038l-.201 1.099h1.038z" fill="url(#f)"/><path d="m6.355 20.64h.786l.154-.833h-.786z" fill="url(#g)"/><path d="m12.64 23.234h1.114l.217-1.181h-1.114z" fill="url(#h)"/><path d="m13.997 24.864h.87l.17-.923h-.871z" fill="url(#i)"/><path d="m8.594 21.434h.743l.143-.787h-.743z" fill="url(#j)"/><path d="m5 18.781h.743l.143-.788h-.742z" fill="url(#k)"/><path d="m10.624 23.601h.743l.144-.786h-.742z" fill="url(#l)"/><path d="m11.357 18.296h-1.003l-.195 1.061h1.003z" fill="url(#m)"/></svg>