<svg xmlns="http://www.w3.org/2000/svg" viewBox="0 0 32 32"><title>folder_type_travis_opened</title><path d="M27.4,5.5H18.2L16.1,9.7H4.3V26.5H29.5V5.5Zm0,18.7H6.6V11.8H27.4Zm0-14.5H19.2l1-2.1h7.1V9.7Z" style="fill:#db7b82"/><polygon points="25.7 13.7 0.5 13.7 4.3 26.5 29.5 26.5 25.7 13.7" style="fill:#db7b82"/><path d="M30.946,17.4c-.01-.075-.022-.15-.037-.225a2.391,2.391,0,0,0-.054-.233l-.058-.093a4.05,4.05,0,0,0-.765-.458c-.217-.1-.439-.193-.663-.275a9.449,9.449,0,0,0-3.107-4.337,8.112,8.112,0,0,0-9.915,0,9.449,9.449,0,0,0-3.107,4.334c-.225.082-.445.172-.662.274a4.033,4.033,0,0,0-.765.458l-.058.093c-.023.084-.038.156-.054.233s-.026.15-.037.225c-.022.15-.036.3-.044.457a5.74,5.74,0,0,0,.027.92,5.817,5.817,0,0,0,.169.9,4.227,4.227,0,0,0,.15.44c.028.075.059.145.094.217.017.036.035.071.054.108.042.075.049.088.067.114l.079.075.141.069.136.061.075.031a11.3,11.3,0,0,0-1.875,2.235L10,24.185l1.032-.906a16.973,16.973,0,0,1,2.325-1.613l.02.166a6.033,6.033,0,0,0-.683.4c-.225.186-.235.474-.175,1.012a9.327,9.327,0,0,0,.273,1.3c.24.844.416.993.571,1.028a1.165,1.165,0,0,0,.261.025,3.355,3.355,0,0,0,.862-.124,8.465,8.465,0,0,0,1.125,2.271l-.067.019c-.281-.13-1.266-.586-1.6-.735l-.691-.311.409.638c.03.046.736,1.147,1.312,1.888a3.16,3.16,0,0,0,2.67,1.4,4.788,4.788,0,0,0,.525-.031c.415-.048.727-.085.964-.115a6.535,6.535,0,0,0,4.6-.01,6.736,6.736,0,0,0,1.15-.568c.589-.142,1.235-.3,1.554-.385l.181-.045A2.1,2.1,0,0,0,28.2,28.425c.4-.8,1.05-2.025,1.056-2.035l.3-.571-.592.257c-.031.014-.782.341-1.172.546a11.12,11.12,0,0,0,.486-1.339,3.807,3.807,0,0,0,.78.046,1.36,1.36,0,0,0,.316-.04c.154-.039.274-.142.5-1.013a9.762,9.762,0,0,0,.25-1.341c.049-.551.034-.847-.191-1.033a5.09,5.09,0,0,0-.608-.357.235.235,0,0,1,.143-.027l.15-.576c.053-.022.11-.046.175-.07l.275-.112.136-.061c.047-.022.089-.042.141-.069l.079-.075a.7.7,0,0,0,.037-.06c.05-.09.067-.125.085-.161.034-.075.064-.145.094-.217.057-.145.1-.292.15-.44a5.806,5.806,0,0,0,.17-.9,5.687,5.687,0,0,0,.026-.917c-.007-.15-.022-.306-.044-.457Z" style="fill:#0e0f0d"/><path d="M22.262,29.262c-.112.016-.225.031-.334.039-.075,0-.15.01-.216.01h-.025c.086-.193.15-.342.2-.455.1.113.229.253.375.4" style="fill:#e1c5a2"/><path d="M22.126,20.656a4.908,4.908,0,0,1-.551.39l-.64.386a5.416,5.416,0,0,0-.769.154.11.11,0,0,0-.033.014.15.15,0,0,0-.066.084l-.652,2.148-3.485.774-1.1-.769-.319-2.586c.623-.115,1.457-.247,2.457-.359-.107.128-.211.263-.31.4l-.6.856.868-.578A14.232,14.232,0,0,1,18.4,20.76c.9-.067,1.9-.111,2.959-.111.26,0,.514,0,.764.007ZM16.7,23.573a2.012,2.012,0,0,1,.965-.113h.277c.45,0,.825.038.82-.67s-.322-1.281-.772-1.275-.887.584-.86,1.292a1.125,1.125,0,0,0,.075.413.712.712,0,0,0-.508.357Z" style="fill:#a89983"/><path d="M28.164,21.244l-.316,2.2-1.1.775-3.48-.4-.649-2.138a.15.15,0,0,0-.1-.1,5.306,5.306,0,0,0-.909-.169l.083-.005a13.831,13.831,0,0,0,2.7-.646,36.923,36.923,0,0,1,3.768.478Zm-2.223,2.035c0-.017-.1-.3-.519-.252a.894.894,0,0,0,.055-.442c-.055-.706-.466-1.268-.917-1.252s-.739.6-.715,1.31.4.7.853.686c.606-.011.938-.2,1.242-.05Z" style="fill:#a89983"/><path d="M24.751,22.007a.23.23,0,1,1-.235-.225h0a.23.23,0,0,1,.235.225" style="fill:#fff"/><path d="M18.293,22.176a.231.231,0,1,1-.237-.225h0a.23.23,0,0,1,.236.224h0" style="fill:#fff"/><path d="M29.683,22.211a3.927,3.927,0,0,0-.413-.244l-.292,2.044a.15.15,0,0,1-.061.1L28.5,24.4c-.01.049-.017.091-.025.129a1.2,1.2,0,0,0,1.032-.408,8.567,8.567,0,0,0,.225-1.223c.047-.53.005-.644-.048-.688" style="fill:#e1c5a2"/><path d="M23.239,29.977a1.993,1.993,0,0,1-.735-.467l-.053-.054a4.419,4.419,0,0,1-.512.075c-.075,0-.143.01-.22.01h-.157a1.981,1.981,0,0,1-1.035.708,6.307,6.307,0,0,0,2.711-.27" style="fill:#e1c5a2"/><path d="M14.325,24.971l-.028-.092-.542-.379a.15.15,0,0,1-.061-.1l-.264-2.146a4.533,4.533,0,0,0-.482.283c-.052.043-.092.15-.036.664a8.782,8.782,0,0,0,.316,1.418,1.453,1.453,0,0,0,1.1.354" style="fill:#e1c5a2"/><path d="M22.429,24.873a.15.15,0,0,1-.123-.1l-.669-2.2a1.922,1.922,0,0,0-.591,0l-.65,2.141a.15.15,0,0,1-.108.1l-.311.069a.52.52,0,0,1-.4.359,33.052,33.052,0,0,1-3.75.975,3.168,3.168,0,0,1-.845-.4c-.11-.26-.172-.437-.185-.478h0A9.532,9.532,0,0,0,16,27.63c.837-.247,1.56-.477,1.792-.55.471-.726,1.141-1.447,1.618-1.471.082,0,.168-.007.252-.007a5.637,5.637,0,0,1,.663.041.829.829,0,0,1-.237-.429,2.032,2.032,0,0,0,1.382.375,2.442,2.442,0,0,0,1.256-.546l.015-.137-.311-.035" style="fill:#e1c5a2"/><path d="M23.058,25.152a.652.652,0,0,1-.325-.177l-.008.07a.79.79,0,0,1-.34.577,4.6,4.6,0,0,1,1.1-.263.541.541,0,0,1,.39.158c.016.014.033.028.053.044.5.393,1.1.87,1.275,1.01.2.023.848.1,1.254.134.234.022.445.04.652.04.067,0,.129,0,.189-.006a10.327,10.327,0,0,0,.586-1.363,4.22,4.22,0,0,1-1.043.584,32.9,32.9,0,0,1-3.785-.808" style="fill:#e1c5a2"/><path d="M30.56,17.443c-.006-.07-.013-.141-.022-.211-.006-.05-.013-.1-.022-.15a4.266,4.266,0,0,0-.625-.427,8.108,8.108,0,0,0-.75-.385c-.256-.121-.519-.23-.783-.337q-.2-.081-.4-.155c-.133-.052-.268-.1-.4-.15.283.047.563.112.841.183.181.046.361.1.54.155A8.291,8.291,0,0,0,21.3,10.479a8.289,8.289,0,0,0-7.63,5.488c.178-.056.358-.109.539-.155a8.554,8.554,0,0,1,.842-.183c-.136.049-.27.1-.4.15s-.266.1-.4.155c-.264.106-.525.216-.784.337a8.249,8.249,0,0,0-.75.385,4.286,4.286,0,0,0-.625.427c-.007.048-.016.1-.022.15-.008.07-.016.14-.022.211-.012.142-.017.283-.018.426a6.238,6.238,0,0,0,.217,1.687q.056.2.13.4c.025.064.052.129.08.19.014.031.028.061.043.091l.018.034.063.031.126.06c.07.032.168.075.249.115l.013-.012-.235-.894c.049-.013.495-.129,1.263-.275-.061-.011-.124-.025-.186-.04a3.923,3.923,0,0,1-.514-.164,2.374,2.374,0,0,1-.242-.117.834.834,0,0,1-.214-.163,13.05,13.05,0,0,0,4.137-.009,42.478,42.478,0,0,1,4.268-.243,42.462,42.462,0,0,1,4.265.244,12.983,12.983,0,0,0,4.137.009.832.832,0,0,1-.213.163,2.434,2.434,0,0,1-.243.117,3.894,3.894,0,0,1-.514.164l-.075.017c.842.156,1.333.283,1.384.3l-.225.851.135-.06.127-.06.064-.031.017-.034c.015-.029.03-.06.044-.091.028-.061.055-.126.08-.19.049-.13.093-.264.13-.4a6.321,6.321,0,0,0,.22-1.687c0-.142-.006-.284-.019-.426" style="fill:#e0d896"/><path d="M24.8,15.789a6.04,6.04,0,0,1-.173,1.716.139.139,0,0,0,0,.075c-.225-.024-.45-.044-.675-.062a3.709,3.709,0,0,0,.32-1.294,5.924,5.924,0,0,0,.529-.433" style="fill:#d7c184"/><path d="M18.342,16.224a3.687,3.687,0,0,0,.32,1.294q-.338.027-.675.062a.142.142,0,0,0,0-.075,6.081,6.081,0,0,1-.174-1.716,5.981,5.981,0,0,0,.53.433" style="fill:#d7c184"/><path d="M27.567,18.107l0,.019.075.022a5.685,5.685,0,0,1,.617.232,2.389,2.389,0,0,1-.661-1.318,6.005,6.005,0,0,1-.024,1.044" style="fill:#d7c184"/><path d="M17.534,15.669l-2.154.613a7.18,7.18,0,0,0-.069,1.7l.011-.007a6.315,6.315,0,0,1,.213-1.263c.075-.18.525-.295.868-.375s.894-.246,1,.238a3.475,3.475,0,0,0,.243.73,6.706,6.706,0,0,1-.113-1.635" style="fill:#d7c184"/><path d="M25.073,15.669a6.583,6.583,0,0,1-.13,1.712,3.342,3.342,0,0,0,.282-.808c.106-.484.655-.319,1-.238s.795.2.868.375a5.732,5.732,0,0,1,.208,1.2,7.359,7.359,0,0,0-.075-1.633l-2.154-.607" style="fill:#d7c184"/><path d="M18.324,15.856c.075.061.157.121.235.173a.142.142,0,0,1,.061.115,3.418,3.418,0,0,0,.33,1.321.211.211,0,0,1,.01.028c.78-.053,1.562-.075,2.343-.075s1.563.023,2.342.075a.144.144,0,0,1,.011-.03,3.415,3.415,0,0,0,.33-1.321.143.143,0,0,1,.062-.115c.075-.051.15-.109.225-.167l.01-.028a10.991,10.991,0,0,0-.326-3.773c-.01.494-.127,4.728-1.178,4.728h-2.9c-1.116,0-1.206-4.774-1.206-4.774l-.058.169a10.939,10.939,0,0,0-.293,3.672" style="fill:#d7c184"/><path d="M15.045,18.125l0-.019a5.938,5.938,0,0,1-.025-1.045,2.391,2.391,0,0,1-.663,1.319,5.624,5.624,0,0,1,.618-.232l.075-.022" style="fill:#d7c184"/><path d="M28.475,24.53c-.018.091-.032.165-.061.28a2.554,2.554,0,0,0,.817.062,2.428,2.428,0,0,0,.276-.75,1.2,1.2,0,0,1-1.032.408" style="fill:#9f8f78"/><path d="M19.9,30.385a5.242,5.242,0,0,0,1.73.186,6.913,6.913,0,0,0,2.12-.486,1.966,1.966,0,0,1-.514-.108,6.305,6.305,0,0,1-2.711.27,2.85,2.85,0,0,1-.5.118c-.042,0-.075.01-.125.019" style="fill:#9f8f78"/><path d="M14.363,25.1c-.013-.043-.025-.085-.037-.128a1.452,1.452,0,0,1-1.1-.354,1.9,1.9,0,0,0,.245.575,2.68,2.68,0,0,0,.889-.094" style="fill:#9f8f78"/><path d="M14.981,25.807a3.163,3.163,0,0,0,.845.4,33.052,33.052,0,0,0,3.75-.975.52.52,0,0,0,.4-.359l-4.252.95H15.7a.15.15,0,0,1-.084-.026l-.166-.115-.5-.346h0l-.2-.14.011.034c.011.033.022.066.034.1h0c.014.042.075.219.186.478" style="fill:#9f8f78"/><path d="M28.014,24.991c.027-.1.054-.2.075-.3l-.15.1-.4.278-.43.3a.15.15,0,0,1-.075.026h-.026l-4.278-.487-.007.067a.651.651,0,0,0,.325.177,32.881,32.881,0,0,0,3.785.808,4.217,4.217,0,0,0,1.043-.584l.006-.017.055-.161c.023-.068.045-.137.067-.207" style="fill:#9f8f78"/><path d="M23.487,19.223c-.034.043-.07.091-.11.141a9.266,9.266,0,0,1-.817.909q-.583-.018-1.2-.019c-.675,0-1.329.018-1.95.047a15.51,15.51,0,0,1,3.062-.928q.5-.094,1.015-.15" style="fill:#6e6a67"/><path d="M18.38,19.617a7.752,7.752,0,0,0-1,.837c-.874.088-1.636.193-2.264.295a17.181,17.181,0,0,1,3.269-1.132" style="fill:#6e6a67"/><path d="M29.054,21.42,28.7,23.906,27,25.1l-4.439-.5-.668-2.2a.15.15,0,0,0-.116-.1,2.375,2.375,0,0,0-.864,0,.15.15,0,0,0-.116.1L20.14,24.54l-4.414.982L13.975,24.3l-.345-2.79.229-.127q.163-.035.365-.075l.325,2.632a.142.142,0,0,0,.061.1l1.2.844a.15.15,0,0,0,.083.026.169.169,0,0,0,.032,0l3.63-.808a.179.179,0,0,0,.036-.013A.145.145,0,0,0,19.666,24l.654-2.151a4.54,4.54,0,0,1,1.019-.15,4.548,4.548,0,0,1,1.018.15L23.011,24a.15.15,0,0,0,.123.1l3.63.412a.145.145,0,0,0,.1-.025l1.21-.842a.15.15,0,0,0,.06-.1l.322-2.25c.241.046.443.088.6.123" style="fill:#6e6a67"/><path d="M29.5,19.861l-.313,1.186a34.167,34.167,0,0,0-3.953-.6,9.628,9.628,0,0,0,1.84-1.017c1.137.16,1.972.333,2.425.436" style="fill:#6e6a67"/><path d="M13.225,19.861l.087.328c.243-.193.466-.354.653-.482-.306.058-.556.112-.74.154" style="fill:#6e6a67"/><path d="M25.479,19.2q-.718-.04-1.435-.07c-.028.041-.084.123-.165.234a9.13,9.13,0,0,1-1.41,1.522,11.294,11.294,0,0,0,3.4-1.663l-.391-.024" style="fill:#93232c"/><path d="M21.974,19.073h0c-.242,0-.485-.006-.727-.007h0c-.357,0-.713.005-1.07.012l-.658.312-.01.005a7.735,7.735,0,0,0-1.777,1.261c.071-.037.15-.075.225-.115a11.329,11.329,0,0,1,3.476-1.473c.18,0,.36,0,.54.005" style="fill:#93232c"/><path d="M17.93,19.154q-.457.021-.914.047-.529.029-1.057.07c-.175.013-.351.028-.525.046l-.15.016a14.711,14.711,0,0,0-3.426,2.823l.064-.075a13.8,13.8,0,0,1,6.007-2.929" style="fill:#93232c"/><path d="M28.049,27l-.04.021a1.924,1.924,0,0,1-.9.175c-.225,0-.45-.019-.694-.041-.49-.045-1.321-.142-1.33-.144l-.064-.007-.05-.04c-.007-.005-.735-.585-1.323-1.05l-.065-.053c-.062-.053-.062-.053-.1-.053a13.274,13.274,0,0,0-1.939.542l-.075.023-.075-.028a5.6,5.6,0,0,0-1.741-.294c-.075,0-.154,0-.229.006-.094,0-.625.257-1.3,1.331l-.043.069L18,27.483c-.011,0-1.18.381-2.419.735l-.08.022-.075-.035c-.008,0-.492-.225-.953-.439l.1.047c.455.393,1.327,1.149,1.425,1.254.013.015.032.034.054.054-.022-.025-.044-.052-.066-.075h0a2.6,2.6,0,0,0,.67.471,1.467,1.467,0,0,0,.381.124,1.193,1.193,0,0,0,.2.016c.067,0,.136,0,.2-.005q.408-.021.825-.061c.277-.027.548-.052.825-.085s.547-.064.817-.106a4.01,4.01,0,0,0,.4-.075,1.078,1.078,0,0,0,.184-.055.8.8,0,0,0,.15-.11c.1-.088.2-.185.3-.282s.193-.2.288-.3c.16-.168.3-.346.45-.52l.06-.059h0c.032.023.064.047.1.075.187.139.38.29.566.421a8.619,8.619,0,0,0,.735.478,1.142,1.142,0,0,0,.19.088l.021.005a.09.09,0,0,0,.023.005h.148c.142-.01.286-.031.43-.053.287-.045.576-.1.862-.154s.574-.114.859-.177.572-.127.855-.2a2.365,2.365,0,0,0,.407-.133,1.579,1.579,0,0,0,.357-.235,2.775,2.775,0,0,0,.562-.675h0a3.046,3.046,0,0,0,.193-.439" style="fill:#93232c"/><path d="M22.687,13.484h.505V12.457h-3.7v1.027H20v-.525h1.046v3.173h-.43v.589h1.458v-.589h-.43V12.963h1.046v.525" style="fill:#93232c"/><path d="M26.514,19.27h0q-.314-.024-.628-.043h-.012a11.294,11.294,0,0,1-3.4,1.662l-.028.024a11.354,11.354,0,0,0,2.538-.768,8.521,8.521,0,0,0,1.429-.8l.1-.075" style="fill:#731b2a"/><path d="M21.434,19.069a11.324,11.324,0,0,0-3.476,1.473c.357-.181.779-.382,1.254-.58h.007l.15-.061.048-.019.129-.052.075-.028.118-.046.089-.034.11-.041.1-.037.1-.037.118-.041.094-.032.14-.046.075-.025.225-.07q.245-.075.5-.145c.225-.06.45-.117.675-.168-.18,0-.36,0-.54-.005" style="fill:#731b2a"/><path d="M17.93,19.154a13.8,13.8,0,0,0-6.007,2.929l-.064.075a19.672,19.672,0,0,1,5.507-2.68l.235-.067q.6-.169,1.238-.293-.454.016-.91.037" style="fill:#731b2a"/><path d="M28.485,26.79l-.022.01-.046.022-.037.017-.03.014-.046.022-.019.01-.051.025-.011.006-.054.026h-.006L28.05,27a3.045,3.045,0,0,1-.193.439h0a2.782,2.782,0,0,1-.561.675,1.579,1.579,0,0,1-.357.235,2.376,2.376,0,0,1-.407.133c-.283.075-.568.138-.855.2s-.572.122-.859.177-.575.109-.862.154c-.144.022-.288.043-.43.053h-.148a.086.086,0,0,1-.022-.005l-.021-.005a1.125,1.125,0,0,1-.19-.088,8.692,8.692,0,0,1-.735-.478c-.186-.13-.379-.281-.566-.421l-.016.023h0l.035.031h0l-.025-.019.157.187.018.021c.08.094.415.482.812.876a1.494,1.494,0,0,0,1.086.45,1.937,1.937,0,0,0,.445-.055l.45-.109c.464-.11.975-.233,1.319-.322l.066-.017.131-.035c.061-.017.13-.034.2-.049a1.674,1.674,0,0,0,1.279-.825c.083-.166.176-.349.272-.536.133-.26.272-.525.4-.763l.058-.11h0l.03-.057-.07.033" style="fill:#731b2a"/><path d="M21.708,28.086l-.027-.025c-.155.173-.293.352-.45.52-.1.1-.19.2-.288.3s-.2.195-.3.282a.8.8,0,0,1-.15.11,1.068,1.068,0,0,1-.184.055c-.132.029-.267.052-.4.075-.271.042-.544.075-.817.106s-.548.061-.825.085-.549.047-.825.061c-.069,0-.137.005-.2.005a1.183,1.183,0,0,1-.2-.016,1.468,1.468,0,0,1-.381-.124,2.608,2.608,0,0,1-.67-.471h0c.027.034.057.064.085.1l-.02-.019Q16.02,29.1,16,29.073c-.1-.1-.969-.861-1.425-1.254l-.1-.047c.081.119.169.249.261.381.133.192.274.389.411.575.062.084.124.166.184.242A2.713,2.713,0,0,0,17.642,30.2a4.226,4.226,0,0,0,.472-.028l.112-.013.1-.012c1.039-.119,1.325-.17,1.483-.2l.114-.019.046-.007a2.513,2.513,0,0,0,.7-.213,1.171,1.171,0,0,0,.583-.544c.288-.643.346-.8.349-.8l.1-.271" style="fill:#731b2a"/><path d="M24.525,22.242a.23.23,0,1,0-.235-.226h0A.231.231,0,0,0,24.525,22.242Zm1.417,1.037c-.3-.15-.637.039-1.242.05-.45.016-.829.021-.853-.686s.263-1.294.715-1.31.862.546.917,1.252a.893.893,0,0,1-.055.442c.419-.05.514.235.519.252Z" style="fill:#0e0f0d"/><path d="M18.068,22.413a.23.23,0,1,0-.237-.225.23.23,0,0,0,.237.225Zm.7.37c.007.708-.368.665-.82.67h-.277a2.012,2.012,0,0,0-.965.113.712.712,0,0,1,.508-.358,1.12,1.12,0,0,1-.075-.413c-.027-.707.409-1.288.86-1.292s.766.568.772,1.275Z" style="fill:#0e0f0d"/><path d="M27.3,17.915c0,.062-.01.106-.012.13-.178-.049-.358-.092-.538-.135a17.876,17.876,0,0,0-1.8-.3l-.064-.007.01-.027c.018-.066.034-.132.049-.2a6.583,6.583,0,0,0,.13-1.709l2.154.613A7.365,7.365,0,0,1,27.3,17.915Zm-2.679-.41a.139.139,0,0,0,0,.075c-.225-.024-.45-.044-.675-.062a3.709,3.709,0,0,0,.32-1.294,5.936,5.936,0,0,0,.529-.433,6.04,6.04,0,0,1-.173,1.716Zm-6.637.075a.142.142,0,0,0,0-.075,6.081,6.081,0,0,1-.174-1.716,5.938,5.938,0,0,0,.53.433,3.687,3.687,0,0,0,.32,1.294q-.338.027-.675.062Zm-.325.035c-.3.037-.6.075-.906.125s-.6.106-.9.172c-.181.042-.359.086-.538.135,0-.014,0-.036-.006-.064a7.18,7.18,0,0,1,.069-1.7l2.154-.613a6.7,6.7,0,0,0,.113,1.635c.019.092.041.184.066.277a.178.178,0,0,0,.01.026l-.064.007Zm10.8.87-.054-.026-.09-.044h0a.558.558,0,0,1-.056-.032,5.7,5.7,0,0,0-.617-.232l-.075-.022,0-.019a6.011,6.011,0,0,0,.024-1.044,8.233,8.233,0,0,0-.1-.913.142.142,0,0,0-.1-.113l-.307-.087a5.708,5.708,0,0,0-1.075-3.525,6.529,6.529,0,0,1,.851,3.463l-1.9-.541h-.038a.118.118,0,0,0-.031,0h-.005a.106.106,0,0,0-.025.008l-.008,0-.019.013h0l-.005,0-.133.127c.006-.178.007-.45-.013-.784l-.006-.1a7.26,7.26,0,0,0-.853-3.037c.005.015.064.185.139.472a10.993,10.993,0,0,1,.326,3.773v.022l-.007.006c-.075.059-.15.117-.225.167a.143.143,0,0,0-.062.115,3.415,3.415,0,0,1-.33,1.321.145.145,0,0,0-.012.033c-.779-.053-1.561-.075-2.342-.075s-1.563.022-2.343.075a.2.2,0,0,0-.01-.028,3.418,3.418,0,0,1-.33-1.321.142.142,0,0,0-.061-.115c-.075-.052-.157-.112-.235-.173a10.943,10.943,0,0,1,.293-3.671c.09-.361.165-.58.171-.6a7.865,7.865,0,0,0-.868,3.918c-.081-.075-.131-.125-.133-.127l-.006,0H17.78l-.019-.011-.009-.005a.069.069,0,0,0-.023-.007h-.005a.127.127,0,0,0-.031,0h-.043l-1.9.541a6.524,6.524,0,0,1,.853-3.471,5.716,5.716,0,0,0-1.075,3.525l-.306.087a.14.14,0,0,0-.1.113,8.279,8.279,0,0,0-.1.913,5.948,5.948,0,0,0,.025,1.045l0,.019-.075.022a5.633,5.633,0,0,0-.618.232.549.549,0,0,1-.056.031h0l-.09.044-.046.023-.03.016a3.4,3.4,0,0,1,.433-.132c.15-.037.294-.069.442-.1.3-.055.593-.1.892-.139s.6-.075.9-.1.6-.051.9-.068c1.2-.071,2.407-.094,3.613-.094s2.411.019,3.613.094c.3.017.6.043.9.068s.6.058.9.1.6.083.892.139c.15.028.295.06.441.1a3.384,3.384,0,0,1,.434.132l-.023-.013Z" style="fill:#0e0f0d"/><path d="M21.641,12.963v3.173h.433v.589H20.616v-.589h.43V12.963H20v.525H19.5V12.457h3.7v1.027h-.505v-.525h-1.05Zm1.933.9V12.077H19.115v1.788h1.266v-.525h.284v2.415h-.429V17.1h2.212v-1.35h-.427V13.342h.286v.525Z" style="fill:#0e0f0d"/></svg>