<svg xmlns="http://www.w3.org/2000/svg" viewBox="0 0 32 32"><title>folder_type_coverage_opened</title><path d="M27.4,5.5H18.2L16.1,9.7H4.3V26.5H29.5V5.5Zm0,18.7H6.6V11.8H27.4Zm0-14.5H19.2l1-2.1h7.1V9.7Z" style="fill:#dcb67a"/><polygon points="25.7 13.7 0.5 13.7 4.3 26.5 29.5 26.5 25.7 13.7" style="fill:#dcb67a"/><rect x="13.728" y="11.867" width="17.023" height="17.581" style="fill:#ffebe3"/><rect x="14.007" y="12.146" width="4.465" height="7.814" style="fill:#f20"/><rect x="18.805" y="12.146" width="6.411" height="12.349" style="fill:#00a302"/><rect x="14.007" y="20.312" width="4.465" height="8.83" style="fill:#f9ff16"/><rect x="25.588" y="12.146" width="4.846" height="3.907" style="fill:#f9ff16"/><rect x="25.588" y="16.405" width="2.628" height="2.628" style="fill:#f20"/><rect x="25.588" y="19.406" width="4.846" height="3.558" style="fill:#00a302"/><rect x="28.442" y="16.405" width="1.992" height="2.628" style="fill:#00a302"/><rect x="18.805" y="24.787" width="4.595" height="4.356" style="fill:#f20"/><rect x="23.596" y="24.787" width="1.62" height="3.558" style="fill:#00a302"/><rect x="23.596" y="28.559" width="4.846" height="0.583" style="fill:#f9ff16"/><rect x="28.442" y="23.144" width="1.992" height="1.584" style="fill:#f20"/><rect x="25.588" y="23.144" width="2.628" height="1.584" style="fill:#f20"/><rect x="25.588" y="24.982" width="1.992" height="1.992" style="fill:#f20"/><rect x="27.744" y="24.982" width="2.69" height="2.628" style="fill:#00a302"/><rect x="25.588" y="27.228" width="1.992" height="1.116" style="fill:#00a302"/><rect x="28.604" y="27.786" width="1.741" height="1.331" style="fill:#00a302"/><rect x="27.744" y="27.761" width="0.698" height="0.583" style="fill:#f9ff16"/></svg>