<svg xmlns="http://www.w3.org/2000/svg" viewBox="0 0 32 32"><title>folder_type_husky_opened</title><path d="M27.4,5.5H18.2L16.1,9.7H4.3v4H.5L4.3,26.5H29.5V5.5ZM20.2,7.6h7.1V9.7H19.2Zm5.5,6.1H6.6V11.8H27.4v7.626Z" style="fill:#7bd7db"/><path d="M28.922,23.857c-.018.671-1.313,1.137-.786,1.8,1.165.164.635.935,1.273,1.2-1.128,1.836-2.947,2.065-4.678.916a2.058,2.058,0,0,0-1.535-.3c-.264.423.13.472.381.534,1.214.242,2.444,2.123,6.561.331.549-.231.465-.91.228-1.444.456-.194.484-.7.551-1.354C31.366,24.072,29.9,24.2,28.922,23.857Zm-6.473-3.19a5.522,5.522,0,0,0-1.73.723c.689.405.963.888,1.73.737s.752-.643.45-1.218A.453.453,0,0,0,22.449,20.667ZM25.689,11c-.937.043-1.743,2.553-2.7,4.332-2.747,1.143-3.435-.339-4.332-.1-1.528-3.114-3.8-6.237-4.409-2.522.135,2.8-.985,3.035-.885,7.037,0,0-2,4.019-1.183,7.575A4.748,4.748,0,0,0,16.131,31c.143-1.025,1.749-3.336,1.309-3.876-1.1-1.345-.753-4.642,2.029-4.982.38-2.774,2.267-2.252,2.071-3.054-.605-2.513,2-1.34,2.442-.516a18.889,18.889,0,0,0,1.984,3.2,6.643,6.643,0,0,0,1.993,1.22,10.837,10.837,0,0,1-2.82-3.2,8.971,8.971,0,0,1-.316-2.659c1.015-.159,1.424,1.549,2.526,3.1a.318.318,0,0,1,0,.276c-.151-.08-.2-.282-.387-.306-.166,0-.3.236-.3.526s.22.395.522.531a2.535,2.535,0,0,0,1.28,1.2l-1.357-3.97c-.05-2.487.214-4.974-1.228-7.461A.576.576,0,0,0,25.689,11Zm.013.793c.075,0,.143.05.207.165.752,1.414.78,4.732.774,5.906a3.823,3.823,0,0,0-2.579-2.6S25.089,11.8,25.7,11.793ZM15.6,12.109c.343,0,.733.2,1.184,1.024.724,1.319,1.242,2.2,1.494,2.653.516.929-.225.194-.457,2.579a1.131,1.131,0,0,1-.572.937A7.761,7.761,0,0,1,15.59,15.68c-.72,1.072.467,2.724.487,4.139a3.042,3.042,0,0,1-1.615.02c-.371-.186-.493-2.45.2-4.208.572-1.464.3-3.326.556-3.407C15.389,12.168,15.39,12.11,15.6,12.109Z" style="fill:#d2d2d2"/></svg>