<svg viewBox="0 0 32 32" xmlns="http://www.w3.org/2000/svg" xmlns:xlink="http://www.w3.org/1999/xlink"><linearGradient id="a" gradientUnits="userSpaceOnUse" x1="20.698" x2="17.514" y1="23.259" y2="34.062"><stop offset="0" stop-color="#f1f1f2"/><stop offset=".391" stop-color="#eaebec"/><stop offset="1" stop-color="#e6e7e8"/></linearGradient><linearGradient id="b" gradientUnits="userSpaceOnUse" x1="29.221" x2="30.358" y1="11.689" y2="36.594"><stop offset="0" stop-color="#e6e7e8"/><stop offset=".482" stop-color="#dbdcde"/><stop offset="1" stop-color="#d7d8da"/></linearGradient><linearGradient id="c" gradientUnits="userSpaceOnUse" x1="26.177" x2="16.325" y1="9.571" y2="19.482"><stop offset="0" stop-color="#fff57e"/><stop offset="1" stop-color="#fdbf0f"/></linearGradient><linearGradient id="d" gradientUnits="userSpaceOnUse" x1="28.842" x2="30.965" y1="10.318" y2="21.502"><stop offset="0" stop-color="#fbe574"/><stop offset="1" stop-color="#efab14"/></linearGradient><path d="m27.5 5.5h-9.3l-2.1 4.2h-11.7v16.8h25.2v-21zm0 4.2h-8.2l1.1-2.1h7.1z" fill="#bc9f55"/><path d="m14.38 11.061 13.949-1.061v21l-13.949-2.274z" fill="url(#a)"/><path d="m28.329 10 2.653 1.44.038 16.793-2.691 2.767z" fill="url(#b)"/><path d="m28.329 17.783c-2.6-.518-4.338 3.293-6.394 4.865-3.636 2.78-5.809-2.283-7.555-6.306v-1.7c0-1.035 0-2.547 0-3.582 4.65-.513 9.3-.549 13.949-1.061v7.783z" fill="url(#c)"/><path d="m31 22.909-.017-11.474-2.654-1.435v7.775c1.752.139.94 4.956 2.671 5.134z" fill="url(#d)"/><g fill="#fdbf0f"><path d="m27.194 22.328.06.108a2.8 2.8 0 0 0 .23-.272l-.07-.1a2.681 2.681 0 0 1 -.22.264zm.409-.56.081.079a2.138 2.138 0 0 0 .151-.367l-.092-.052a1.97 1.97 0 0 1 -.143.339zm.291-1.127-.1.031a1.525 1.525 0 0 1 .022.26q0 .06 0 .121l.1.014q.005-.068.005-.135a1.706 1.706 0 0 0 -.027-.292zm-.123-.394a1.362 1.362 0 0 0 -.207-.319l-.064.1a1.226 1.226 0 0 1 .187.288zm-.471-.547a1.036 1.036 0 0 0 -.3-.125l-.018.134a.953.953 0 0 1 .273.115zm-.909-.089.025.131a1.051 1.051 0 0 1 .284-.059v-.136a1.123 1.123 0 0 0 -.308.067zm-.525.325-.029.026.056.113.028-.026a1.719 1.719 0 0 1 .223-.172l-.042-.123a1.808 1.808 0 0 0 -.234.185zm-.509.52.063.105q.118-.132.233-.251l-.06-.108q-.115.124-.234.257zm-.455.531.066.1q.114-.137.225-.267l-.065-.1q-.11.132-.228.27zm-.448.539.066.1.224-.269-.066-.1zm-.454.531.064.1q.116-.132.228-.264l-.065-.1q-.108.133-.227.264zm-.465.506.06.108q.12-.125.236-.251l-.062-.106q-.111.125-.23.249zm-.483.471.055.113q.126-.115.247-.233l-.054-.114q-.12.121-.244.234zm-.5.424.049.118q.132-.1.259-.208l-.052-.115q-.127.106-.257.206zm-.528.366.041.124q.138-.085.271-.178l-.045-.121q-.132.092-.267.176zm-.549.3.032.128q.143-.067.282-.142l-.037-.126q-.137.073-.278.14zm-.568.222.023.132q.148-.047.291-.1l-.027-.131q-.142.053-.288.099zm-.582.143.013.135q.151-.026.3-.062l-.018-.134q-.147.035-.295.061zm-.519.059h-.069v.136h.072q.116-.006.229-.018l-.008-.135q-.111.011-.225.017zm-.67.075a2.455 2.455 0 0 0 .3.051l.008-.135a2.374 2.374 0 0 1 -.291-.05zm-.584-.208a3.044 3.044 0 0 0 .289.121l.025-.131a3 3 0 0 1 -.281-.118zm-.552-.329q.134.095.272.177l.04-.124q-.135-.08-.266-.173zm-.517-.42q.125.115.254.22l.051-.116q-.127-.1-.25-.216zm-.483-.491q.116.13.237.253l.059-.109q-.119-.121-.234-.249zm-.449-.544q.108.141.221.277l.066-.1q-.111-.134-.218-.274zm-.42-.586q.1.15.207.3l.071-.095q-.1-.146-.2-.294zm-.394-.619q.094.156.194.313l.069-.088q-.1-.155-.192-.31zm-.369-.645q.087.161.182.326l.078-.084q-.094-.164-.18-.323zm-.347-.668q.081.163.171.337l.081-.078c-.06-.115-.116-.227-.169-.334zm-.325-.689c.048.107.1.223.16.347l.084-.073c-.058-.123-.111-.239-.158-.345zm-.212-.776-.088.062s.051.135.147.362l.083-.072c-.048-.112-.084-.2-.108-.263s-.037-.09-.037-.09z"/><path d="m26.838 18.157.068.424v.021l.017.012.352.246.02-.09-1 .162.049.078.584-.832zm-.527.873 1-.162.121-.02-.1-.07-.352-.246.021.033-.068-.424-.019-.121-.07.1-.584.832-.068.1z"/></g></svg>