<svg xmlns="http://www.w3.org/2000/svg" viewBox="0 0 32 32"><title>folder_type_databricks_opened</title><path d="M27.4,5.5H18.2L16.1,9.7H4.3V26.5H29.5V5.5Zm0,18.7H6.6V11.8H27.4Zm0-14.5H19.2l1-2.1h7.1V9.7Z" style="fill:#8c3c31"/><polygon points="25.7 13.7 0.5 13.7 4.3 26.5 29.5 26.5 25.7 13.7" style="fill:#8c3c31"/><path d="M13.741,13.623v0.563L22.37,19.055l7.707-4.353,0,1.76L22.37,20.84,14.175,16.184l-0.435,0.242V19.794L22.37,24.651l7.707-4.336,0,1.745L22.37,26.439,14.175,21.782l-0.435,0.242v0.571L22.37,27.45l8.63-4.855V19.223l-0.44-0.24L22.37,23.64,14.661,19.259V17.524L22.37,21.855,31,17V13.676l-0.44-0.241L22.37,18.092,15.057,13.937,22.37,9.806l6.024,3.403.527-.296V12.449L22.37,8.75Z" style="fill:#ff3621"/></svg>
