<svg xmlns="http://www.w3.org/2000/svg" viewBox="0 0 32 32"><title>folder_type_theme_opened</title><path d="M27.4,5.5H18.2L16.1,9.7H4.3v4H.5L4.3,26.5H29.5V5.5ZM20.2,7.6h7.1V9.7H19.2Zm5.5,6.1H6.6V11.8H27.4v7.6Z" style="fill:#d8987c"/><path d="M26.994,16.1a8.417,8.417,0,0,1,1.705,1.5,4.836,4.836,0,0,1,.184,6.43,5.646,5.646,0,0,1-3.425,1.865,10.337,10.337,0,0,1-3.662-.077,12.171,12.171,0,0,0-1.742-.186.975.975,0,0,0-.941,1.565,11.078,11.078,0,0,0,.918,1.17,2.287,2.287,0,0,1,.573,1.046.829.829,0,0,1-.532,1,7.058,7.058,0,0,1-3.4.583,16.505,16.505,0,0,1-8.379-2.7,7.216,7.216,0,0,1-3.171-4.665A6.08,6.08,0,0,1,6.2,18.83a10.966,10.966,0,0,1,4.676-3.8,16.679,16.679,0,0,1,12.64-.628C23.567,14.414,26.915,16.165,26.994,16.1Z" style="fill:#a86749"/><path d="M9.605,22.223a2.722,2.722,0,0,1,1.727.543,1.171,1.171,0,0,1,0,1.966,3.06,3.06,0,0,1-3.461,0,1.174,1.174,0,0,1,.007-1.983A2.714,2.714,0,0,1,9.605,22.223Z" style="fill:#3783ff"/><path d="M9.3,20.907a2.114,2.114,0,0,1-1.269-.392.935.935,0,0,1-.01-1.6,2.338,2.338,0,0,1,2.663.026.923.923,0,0,1,.01,1.528A2.144,2.144,0,0,1,9.3,20.907Z" style="fill:#4de94c"/><path d="M12.706,17.8a1.607,1.607,0,0,1-1.161-.406.748.748,0,0,1,0-1.148,1.829,1.829,0,0,1,2.3,0,.749.749,0,0,1-.044,1.184A1.631,1.631,0,0,1,12.706,17.8Z" style="fill:#fe0"/><path d="M14.6,25.113a3.084,3.084,0,0,1,1.942.6,1.285,1.285,0,0,1,0,2.176,3.49,3.49,0,0,1-3.894,0,1.289,1.289,0,0,1,.007-2.2A3.083,3.083,0,0,1,14.6,25.113Z" style="fill:#4c1ac6"/><path d="M31,12.493a6.09,6.09,0,0,1-1.247,2.016,49.7,49.7,0,0,1-4.064,4.315.563.563,0,0,1-.581.2.738.738,0,0,1-.272-.162q-.465-.432-.914-.88a.491.491,0,0,1-.026-.75.6.6,0,0,1,.055-.058A51.94,51.94,0,0,1,28.4,13.261a9.232,9.232,0,0,1,1.539-1,2.882,2.882,0,0,1,.55-.2.385.385,0,0,1,.507.213Z" style="fill:#2a3e4f"/><path d="M19.083,22.526a.114.114,0,0,1,.033.006,2.488,2.488,0,0,0,3.224-.491,1.6,1.6,0,0,0,.446-1.278A1.255,1.255,0,0,0,21.7,19.7a1.122,1.122,0,0,0-1,.431,1.613,1.613,0,0,0-.307.694A2.729,2.729,0,0,1,19.083,22.5Z" style="fill:#7e8c8d"/><path d="M24.675,19.176c-.353-.346-.71-.688-1.066-1.031a.26.26,0,0,0-.432.025q-.453.576-.9,1.154a.228.228,0,0,0,.021.333q.4.386.8.769a.245.245,0,0,0,.344.026c.406-.293.813-.585,1.213-.886a.845.845,0,0,0,.147-.211A1.221,1.221,0,0,0,24.675,19.176Z" style="fill:#f89b36"/><path d="M16.773,16.354a1.261,1.261,0,0,1-.93-.339.641.641,0,0,1,0-.957,1.419,1.419,0,0,1,1.84,0,.641.641,0,0,1-.035.986A1.278,1.278,0,0,1,16.773,16.354Z" style="fill:#ff8c00"/><path d="M20.388,20.828c.647-1.479,1.575-1.064,1.575-1.064,1.361,1.561-2.88,2.762-2.88,2.762A4.153,4.153,0,0,0,20.388,20.828Z" style="fill:#8f9fa0"/><path d="M22.3,19.657c-.368-.357.666-1.213.88-1.487a.265.265,0,0,1,.432-.025l.545.525-1.488,1.344Z" style="fill:#e9bb42"/><path d="M23.921,17.978c-.448-.437-.026-.75-.026-.75,5.725-5.359,6.047-4.968,6.6-5.172s.507.213.507.213l-6.63,6.147Z" style="fill:#32495d"/><path d="M20.95,16.659a1.261,1.261,0,0,1-.93-.339.641.641,0,0,1,0-.957,1.419,1.419,0,0,1,1.84,0,.64.64,0,0,1-.036.986A1.274,1.274,0,0,1,20.95,16.659Z" style="fill:#f60000"/></svg>