<svg xmlns="http://www.w3.org/2000/svg" xmlns:xlink="http://www.w3.org/1999/xlink" viewBox="0 0 32 32"><defs><linearGradient id="a" x1="20.698" y1="23.259" x2="17.514" y2="34.062" gradientUnits="userSpaceOnUse"><stop offset="0" stop-color="#f1f1f2"/><stop offset="0.391" stop-color="#eaebec"/><stop offset="1" stop-color="#e6e7e8"/></linearGradient><linearGradient id="b" x1="29.221" y1="11.689" x2="30.358" y2="36.594" gradientUnits="userSpaceOnUse"><stop offset="0" stop-color="#e6e7e8"/><stop offset="0.482" stop-color="#dbdcde"/><stop offset="1" stop-color="#d7d8da"/></linearGradient><linearGradient id="c" x1="26.177" y1="9.571" x2="16.325" y2="19.482" gradientUnits="userSpaceOnUse"><stop offset="0" stop-color="#fff57e"/><stop offset="1" stop-color="#fdbf0f"/></linearGradient><linearGradient id="d" x1="28.842" y1="10.318" x2="30.965" y2="21.502" gradientUnits="userSpaceOnUse"><stop offset="0" stop-color="#fbe574"/><stop offset="1" stop-color="#efab14"/></linearGradient></defs><title>folder_type_dist_opened</title><path d="M27.4,5.5H18.2L16.1,9.7H4.3V26.5H29.5V5.5Zm0,18.7H6.6V11.8H27.4Zm0-14.5H19.2l1-2.1h7.1V9.7Z" style="fill:#d8be7c"/><polygon points="25.7 13.7 0.5 13.7 4.3 26.5 29.5 26.5 25.7 13.7" style="fill:#d8be7c"/><polygon points="14.38 11.061 28.329 10 28.329 31 14.38 28.726 14.38 11.061" style="fill:url(#a)"/><polygon points="28.329 10 30.982 11.44 31.02 28.233 28.329 31 28.329 10" style="fill:url(#b)"/><path d="M28.329,17.783c-2.6-.518-4.338,3.293-6.394,4.865-3.636,2.78-5.809-2.283-7.555-6.306v-1.7c0-1.035,0-2.547,0-3.582,4.65-.513,9.3-.549,13.949-1.061v7.783Z" style="fill:url(#c)"/><path d="M31,22.909l-.017-11.474L28.329,10v7.775C30.081,17.914,29.269,22.731,31,22.909Z" style="fill:url(#d)"/><path d="M27.194,22.328l.06.108a2.8,2.8,0,0,0,.23-.272l-.07-.1A2.681,2.681,0,0,1,27.194,22.328Zm.409-.56.081.079a2.138,2.138,0,0,0,.151-.367l-.092-.052A1.97,1.97,0,0,1,27.6,21.767Zm.291-1.127-.1.031a1.525,1.525,0,0,1,.022.26q0,.06,0,.121l.1.014q.005-.068.005-.135A1.706,1.706,0,0,0,27.894,20.64Zm-.123-.394a1.362,1.362,0,0,0-.207-.319l-.064.1a1.226,1.226,0,0,1,.187.288ZM27.3,19.7a1.036,1.036,0,0,0-.3-.125l-.018.134a.953.953,0,0,1,.273.115Zm-.909-.089.025.131h0a1.051,1.051,0,0,1,.284-.059l0-.136A1.123,1.123,0,0,0,26.392,19.614Zm-.525.325-.029.026.056.113.028-.026a1.719,1.719,0,0,1,.223-.172l-.042-.123A1.808,1.808,0,0,0,25.868,19.939Zm-.509.52.063.105q.118-.132.233-.251l-.06-.108Q25.478,20.326,25.359,20.459Zm-.455.531.066.1q.114-.137.225-.267l-.065-.1Q25.018,20.852,24.9,20.99Zm-.448.539.066.1.224-.269-.066-.1ZM24,22.057l.064.1q.116-.132.228-.264l-.065-.1Q24.119,21.926,24,22.057Zm-.465.506.06.108q.12-.125.236-.251l-.062-.106Q23.658,22.439,23.539,22.563Zm-.483.471.055.113q.126-.115.247-.233L23.3,22.8Q23.18,22.921,23.056,23.034Zm-.5.424.049.118q.132-.1.259-.208l-.052-.115Q22.681,23.359,22.551,23.459Zm-.528.366.041.124h0q.138-.085.271-.178l-.045-.121Q22.159,23.741,22.024,23.825Zm-.549.3.032.128q.143-.067.282-.142l-.037-.126Q21.615,24.057,21.474,24.124Zm-.568.222.023.132q.148-.047.291-.1l-.027-.131Q21.052,24.3,20.906,24.346Zm-.582.143.013.135q.151-.026.3-.062l-.018-.134Q20.473,24.463,20.325,24.489Zm-.519.059-.069,0,0,.136.072,0q.116-.006.229-.018l-.008-.135Q19.919,24.542,19.805,24.548Zm-.67.075a2.455,2.455,0,0,0,.3.051l.008-.135a2.374,2.374,0,0,1-.291-.05Zm-.584-.208a3.044,3.044,0,0,0,.289.121l.025-.131a3,3,0,0,1-.281-.118ZM18,24.086q.134.095.272.177l.04-.124q-.135-.08-.266-.173Zm-.517-.42q.125.115.254.22l.051-.116q-.127-.1-.25-.216ZM17,23.175q.116.13.237.253l.059-.109q-.119-.121-.234-.249Zm-.449-.544q.108.141.221.277l.066-.1q-.111-.134-.218-.274Zm-.42-.586h0q.1.15.207.3l.071-.095q-.1-.146-.2-.294Zm-.394-.619q.094.156.194.313L16,21.651q-.1-.155-.192-.31Zm-.369-.645q.087.161.182.326l.078-.084q-.094-.164-.18-.323Zm-.347-.668h0q.081.163.171.337l.081-.078c-.06-.115-.116-.227-.169-.334Zm-.325-.689c.048.107.1.223.16.347l.084-.073c-.058-.123-.111-.239-.158-.345Zm-.212-.776-.088.062s.051.135.147.362L14.626,19c-.048-.112-.084-.2-.108-.263S14.481,18.647,14.481,18.647Z" style="fill:#fdbf0f"/><path d="M26.838,18.157l.068.424,0,.021.017.012.352.246.02-.09-1,.162.049.078.584-.832Zm-.527.873,1-.162.121-.02-.1-.07-.352-.246.021.033-.068-.424-.019-.121-.07.1-.584.832-.068.1Z" style="fill:#fdbf0f"/></svg>