<svg xmlns="http://www.w3.org/2000/svg" viewBox="0 0 32 32"><path d="M27.4 5.5h-9.2l-2.1 4.2H4.3v4H.5l3.8 12.8h25.2v-21Zm-7.2 2.1h7.1v2.1h-8.1Zm5.5 6.1H6.6v-1.9h20.8v7.626Z" style="fill:#78bafd;fill-opacity:1"/><g transform="matrix(.29172 0 0 .29172 4.766 5.641)"><rect width="70" height="64" x="15" y="18" fill="none" stroke="#1c7de6" stroke-width="3" rx="6" ry="6"/><path fill="#1c7de6" d="M21 34h58v42H21z"/><ellipse cx="73.458" cy="26" fill="#1c7de6" rx="4.466" ry="4.572" style="stroke-width:1.80751"/><ellipse cx="63.174" cy="26" fill="#1c7de6" rx="4.466" ry="4.572" style="stroke-width:1.80751"/><ellipse cx="51.852" cy="26" fill="#1c7de6" rx="4.466" ry="4.572" style="stroke-width:1.80751"/></g><path d="M10.428 29.053a1.6 1.6 0 0 1-.472-.42l-.19-.27-.017-7.967-.017-7.968.149-.281c.098-.186.254-.347.457-.473l.308-.19 8.679-.018c5.944-.011 8.757.005 8.928.05.32.087.681.405.83.73.11.242.115.648.116 8.055.001 5.802-.017 7.855-.073 8.016-.118.343-.308.555-.65.725l-.318.159h-17.45zm17.5-7.264V15.65H10.942v12.278h16.986zm-7.411-7.214c.512-.238.796-.677.794-1.229-.005-1.068-1.062-1.698-1.982-1.181-.634.356-.842 1.266-.44 1.918a1.3 1.3 0 0 0 1.628.492zm3.262.022c.93-.388 1.133-1.635.375-2.3-.608-.534-1.577-.367-1.993.343-.427.729-.05 1.758.728 1.993.28.084.637.07.89-.036zm3.112-.062c.467-.233.678-.563.708-1.11.02-.337-.003-.48-.106-.681-.434-.851-1.465-1.025-2.135-.36-.25.247-.365.548-.365.955 0 1.031.984 1.651 1.898 1.196z" style="fill:#80b7f1;fill-opacity:1;stroke:#fff;stroke-width:.0636183;stroke-opacity:0" transform="translate(-.108 -.108)"/></svg>