<svg xmlns="http://www.w3.org/2000/svg" xmlns:xlink="http://www.w3.org/1999/xlink" viewBox="0 0 32 32"><defs><linearGradient id="a" x1="-7.587" y1="64.412" x2="-23.412" y2="48.588" gradientTransform="translate(-34 7) rotate(-90)" gradientUnits="userSpaceOnUse"><stop offset="0.1" stop-color="#ff0" stop-opacity="0.9"/><stop offset="0.4" stop-color="#58ff00" stop-opacity="0.9"/><stop offset="0.6" stop-color="blue" stop-opacity="0.9"/><stop offset="0.9" stop-color="red" stop-opacity="0.9"/></linearGradient></defs><title>folder_type_plugin_opened</title><path d="M27.4,5.5H18.2L16.1,9.7H4.3V26.5H29.5V5.5Zm0,18.7H6.6V11.8H27.4Zm0-14.5H19.2l1-2.1h7.1V9.7Z" style="fill:#9b9b9b"/><polygon points="25.7 13.7 0.5 13.7 4.3 26.5 29.5 26.5 25.7 13.7" style="fill:#9b9b9b"/><path d="M20,12.5V14H16a2.006,2.006,0,0,0-2,2v4H12.5a2.5,2.5,0,0,0,0,5H14v4a2.006,2.006,0,0,0,2,2h3.8V29.5a2.7,2.7,0,0,1,5.4,0V31H29a2.006,2.006,0,0,0,2-2V25.2H29.5a2.7,2.7,0,0,1,0-5.4H31V16a2.006,2.006,0,0,0-2-2H25V12.5a2.5,2.5,0,1,0-5,0Z" style="fill:url(#a)"/></svg>