<svg viewBox="0 0 32 32" xmlns="http://www.w3.org/2000/svg"><path d="m27.4 5.5h-9.2l-2.1 4.2h-11.8v16.8h25.2v-21zm0 18.7h-20.8v-12.4h20.8zm0-14.5h-8.2l1-2.1h7.1v2.1z" fill="#db7b7b"/><path d="m25.7 13.7h-25.2l3.8 12.8h25.2z" fill="#db7b7b"/><g fill="#fff"><path d="m9.99 10.4 17.984 19.05a.839.839 0 0 0 1.081-.072.8.8 0 0 0 .108-1.008z"/><path d="m15.684 12.205 13.696 14.765a.839.839 0 0 0 1.081-.072.8.8 0 0 0 .108-1.008z"/><path d="m11.684 16.058 13.7 14.764a.839.839 0 0 0 1.081-.072.8.8 0 0 0 .108-1.008z"/><path d="m20.5 13.754 9.568 10.315a.586.586 0 0 0 .755-.05.558.558 0 0 0 .076-.7l-10.4-9.56z"/><path d="m13 20.524 9.57 10.315a.586.586 0 0 0 .755-.05.558.558 0 0 0 .076-.7z"/><path d="m25.415 15.986 4.337 4.689a.3.3 0 0 0 .374-.024.251.251 0 0 0 .037-.33l-4.748-4.336z"/><path d="m15.4 25.277 4.337 4.689a.3.3 0 0 0 .374-.024.251.251 0 0 0 .037-.33z"/></g></svg>