<svg version="1.1" viewBox="0 0 32 32" xml:space="preserve" xmlns="http://www.w3.org/2000/svg"><defs><linearGradient id="c" x1="6.4816" x2="39.05" y1="1.9759" y2="48.206" gradientUnits="userSpaceOnUse"><stop stop-color="#49C7FF" offset="0"/><stop stop-color="#BD36FF" offset="1"/></linearGradient><linearGradient id="b" x1="11.885" x2="26.725" y1="16.427" y2="31.418" gradientUnits="userSpaceOnUse"><stop stop-color="#41D1FF" offset="0"/><stop stop-color="#BD34FE" offset="1"/></linearGradient><linearGradient id="a" x1="21.814" x2="26.246" y1="13.705" y2="28.807" gradientUnits="userSpaceOnUse"><stop stop-color="#FFEA83" offset="0"/><stop stop-color="#FFDD35" offset=".083333"/><stop stop-color="#FFA800" offset="1"/></linearGradient></defs><title>folder_type_vitepress</title><path d="M27.417,5.5H18.19L16.107,9.7H4.5V26.5h25V5.5Zm0,4.2H19.282l1.091-2.1h7.044Z" fill="#c09553"/><g transform="matrix(.41667 0 0 .41667 11.917 10)"><path d="m5.0363 7.8782c-0.28292-2.0386 1.1196-3.9235 3.1327-4.21l25.515-3.6314c2.0131-0.28651 3.8743 1.1339 4.1572 3.1725l5.1227 36.913c0.2829 2.0386-1.1196 3.9235-3.1327 4.2101l-25.515 3.6314c-2.0131 0.2865-3.8743-1.1339-4.1572-3.1725z" fill="url(#c)"/><path d="m6.8588 7.6188c-0.14146-1.0193 0.55982-1.9618 1.5664-2.105l25.515-3.6314c1.0066-0.14326 1.9372 0.56693 2.0787 1.5862l5.1226 36.913c0.1415 1.0193-0.5598 1.9618-1.5663 2.105l-25.515 3.6314c-1.0066 0.1433-1.9372-0.5669-2.0787-1.5862z" fill="#fff"/><path d="m33.186 14.92-7.3352 19.238c-0.1514 0.3971-0.6742 0.4724-0.9328 0.1343l-12.583-16.458c-0.2817-0.3684-0.0126-0.9 0.4463-0.8815l10.125 0.4083c0.0645 0.0026 0.1291-0.0066 0.1903-0.027l9.4132-3.1345c0.4343-0.1446 0.8415 0.2886 0.6769 0.7203z" fill="url(#b)"/><path d="m27.025 12.576-7.0899 2.4671c-0.1165 0.0405-0.1908 0.1559-0.1806 0.2804l0.637 7.7399c0.015 0.1823 0.1988 0.2998 0.3672 0.2347l1.9638-0.7585c0.1838-0.071 0.3795 0.0746 0.3679 0.2736l-0.1803 3.0775c-0.012 0.2071 0.1991 0.3533 0.3848 0.2664l1.1998-0.5614c0.186-0.0869 0.3972 0.0596 0.3847 0.2671l-0.294 4.8355c-0.0184 0.3025 0.3904 0.4088 0.5158 0.1342l0.0837-0.1834 4.2448-12.847c0.071-0.2151-0.133-0.4205-0.3451-0.3474l-2.0328 0.7007c-0.191 0.0658-0.3844-0.0961-0.3565-0.2986l0.6869-4.9822c0.028-0.2027-0.166-0.3648-0.3572-0.2983z" fill="url(#a)"/></g></svg>
