<svg version="1.1" viewBox="0 0 32 32" xmlns="http://www.w3.org/2000/svg"><title>folder_type_cubit_opened</title><path d="m27.4 5.5h-9.2l-2.1 4.2h-11.8v4h-3.8l3.8 12.8h25.2v-21zm-7.2 2.1h7.1v2.1h-8.1zm5.5 6.1h-19.1v-1.9h20.8v7.626z" fill="#d42551"/><path d="m27.35 5.5421h-9.227l-2.083 4.2h-11.607v16.8h25v-21zm0 4.2h-8.135l1.091-2.1h7.044z" display="none" fill="#8b1835"/><g transform="matrix(.69853 0 0 .69853 9.1452 7.712)"><path d="m21 31c5.5228 0 10-4.4772 10-10s-4.4772-10-10-10-10 4.4772-10 10 4.4772 10 10 10z" fill="#e5e5e5"/><path d="m30 21c0 4.9706-4.0294 9-9 9s-9-4.0294-9-9 4.0294-9 9-9 9 4.0294 9 9zm-6.0037-1.755 3.0037-1.7479-5.9999-3.4971-6.0001 3.4971v6.9942l3.0071 1.7528-0.0036-3.5061 2.9964 1.7466 3e-4 3.5154 5.9998-3.5088-3.0036-1.759-2.9965 1.7524 3e-4 -3.4902-2.9967-1.7494 2.9964-1.7464z" clip-rule="evenodd" fill="#ac304f" fill-rule="evenodd"/></g></svg>
