<svg xmlns="http://www.w3.org/2000/svg" viewBox="0 0 32 32"><title>folder_type_images_opened@2x</title><g id="folder_opened_images"><path d="M27.4,5.5H18.2L16.1,9.7H4.3V26.5H29.5V5.5Zm0,18.7H6.6V11.8H27.4Zm0-14.5H19.2l1-2.1h7.1V9.7Z" style="fill:#7bdbc0"/><polygon points="25.7 13.7 0.5 13.7 4.3 26.5 29.5 26.5 25.7 13.7" style="fill:#7bdbc0"/><path d="M31,15.78Q31,23.39,31,31H10q0-7.61,0-15.22H31" style="fill:#2dcc9f"/><path d="M26.67,17.8a1.65,1.65,0,1,0,.85.47,1.66,1.66,0,0,0-.85-.47" style="fill:#fff"/><path d="M22.08,26.47,18,20.79l-6.06,8.43h8.17l2-2.75" style="fill:#fff"/><path d="M25,23.39l-4.19,5.82h8.38Z" style="fill:#fff"/></g></svg>