<svg xmlns="http://www.w3.org/2000/svg" viewBox="0 0 32 32"><title>folder_type_git_opened@2x</title><g id="folder_opened_git"><path d="M27.4,5.5H18.2L16.1,9.7H4.3V26.5H29.5V5.5Zm0,18.7H6.6V11.8H27.4Zm0-14.5H19.2l1-2.1h7.1V9.7Z" style="fill:#db847b"/><polygon points="25.7 13.7 0.5 13.7 4.3 26.5 29.5 26.5 25.7 13.7" style="fill:#db847b"/><path d="M31.1,20.06,21.94,10.9a1.35,1.35,0,0,0-1.91,0l-1.9,1.9,2.41,2.42a1.61,1.61,0,0,1,2,2l2.33,2.33a1.61,1.61,0,1,1-1,.91l-2.17-2.17V24a1.61,1.61,0,1,1-1.32,0V18.23a1.61,1.61,0,0,1-.87-2.11l-2.38-2.38L10.9,20a1.35,1.35,0,0,0,0,1.91l9.17,9.17a1.35,1.35,0,0,0,1.91,0L31.1,22a1.35,1.35,0,0,0,0-1.91" style="fill:#dd4c35"/><path d="M18.12,12.8l2.41,2.42a1.61,1.61,0,0,1,2,2l2.33,2.33a1.61,1.61,0,1,1-1,.91l-2.17-2.17V24a1.61,1.61,0,1,1-1.32,0V18.23a1.61,1.61,0,0,1-.87-2.11l-2.38-2.38" style="fill:#fff"/></g></svg>