<svg xmlns="http://www.w3.org/2000/svg" viewBox="0 0 32 32"><title>folder_type_paket_opened</title><path d="M27.4,5.5H18.2L16.1,9.7H4.3V26.5H29.5V5.5Zm0,18.7H6.6V11.8H27.4Zm0-14.5H19.2l1-2.1h7.1V9.7Z" style="fill:#7baddb"/><polygon points="25.7 13.7 0.5 13.7 4.3 26.5 29.5 26.5 25.7 13.7" style="fill:#7baddb"/><path d="M9.842,15.246,20.4,10l10.558,5.246v.693L20.4,21.185,9.842,15.955Z" style="fill:#0a6ec9"/><path d="M9.842,15.246,20.4,20.492l10.558-5.246V25.754L20.367,31,9.842,25.754Z" style="fill:#0568c1"/><path d="M20.4,30.984V20.492L9.908,15.279H9.842V25.754L20.367,31Z" style="fill:#0663b4"/><path d="M14.148,13.118l10.541,5.246,2.145-1.056L16.259,12.062Z" style="fill:#add4f7"/><path d="M24.689,18.364l2.145-1.056v3.3l-.577-.1-.61.742-.957-.066Z" style="fill:#99c7f2"/><path d="M18.222,24.682,14.659,22.9c-.2-.1-.363.017-.363.264v2.392a.757.757,0,0,0,.363.627l3.58,1.782c.2.1.363-.017.363-.264V25.292A.784.784,0,0,0,18.222,24.682Zm-.808,1.963-2.277-1.138a.4.4,0,0,1-.181-.33c0-.132.082-.2.181-.148l2.277,1.138a.4.4,0,0,1,.181.33C17.6,26.628,17.513,26.694,17.414,26.645Zm.33-.825L15.138,24.5a.4.4,0,0,1-.181-.33c0-.132.082-.2.181-.148l2.606,1.32a.4.4,0,0,1,.181.33C17.926,25.82,17.843,25.87,17.744,25.82Z" style="fill:#f2f2f2"/></svg>