<svg xmlns="http://www.w3.org/2000/svg" viewBox="0 0 32 32"><title>folder_type_bower@2x</title><g id="folder_bower"><path d="M27.5,5.5H18.2L16.1,9.7H4.4V26.5H29.6V5.5Zm0,4.2H19.3l1.1-2.1h7.1Z" style="fill:#bf6455"/><path d="M30.6,21.56c-1.08-1-6.48-1.69-8.19-1.87a5,5,0,0,0,.21-.6,6.82,6.82,0,0,1,.74-.28c0,.09.18.45.27.62,3.43.09,3.6-2.55,3.74-3.27a4.09,4.09,0,0,1,1.3-2.64c-1.75-.51-4.27.79-5.11,2.73a5.26,5.26,0,0,0-.95-.26,4.6,4.6,0,0,0-4.47-3.44A8.37,8.37,0,0,0,10,21.19c0,4.57,3.12,8.58,4.89,8.58a1.74,1.74,0,0,0,1.59-1.09c.13.35.53,1.46.66,1.74s1.09.77,1.49.34a1.45,1.45,0,0,0,1.94-.3,1.44,1.44,0,0,0,1.85-1.07c.48,0,.71-.7.61-1.23a13.13,13.13,0,0,0-1.22-2.29c.63.52,2.24.66,2.44,0,1,.8,2.62.38,2.74-.27,1.24.32,2.67-.39,2.43-1.25A1.68,1.68,0,0,0,30.6,21.56Z" style="fill:#543729"/><path id="Shape" d="M25,17a7.64,7.64,0,0,1,1.65-2.36,4.28,4.28,0,0,0-1.93,2.18,6.76,6.76,0,0,0-.68-.38A4.41,4.41,0,0,1,27.68,14c-1,1-.68,2.93-1.54,4A11.3,11.3,0,0,0,25,17Zm-.68,1.39a3.47,3.47,0,0,1,0-.4,3.63,3.63,0,0,0-.63-.08,2.37,2.37,0,0,0,.22.91,3.28,3.28,0,0,0,1.71-.47A5.73,5.73,0,0,0,24.54,18C24.5,18.13,24.4,18.35,24.36,18.42Z" style="fill:#00acee"/><path d="M21.4,25.17h0c-.1-.22-.21-.48-.34-.83.5.73,2.06.35,2-.3.77.58,2.34-.1,2-.9.77.36,1.64-.36,1.45-.67,1.31.25,2.56.5,3,.6a1.52,1.52,0,0,1-1.75.52c.48.66-.46,1.45-1.77,1,.29.65-.88,1.23-2.2.56C23.72,25.81,22.06,25.88,21.4,25.17ZM24,21.89c1.52.12,4,.34,5.58.56-.1-.51-.37-.65-1.21-.88C27.46,21.67,25.15,21.9,24,21.89Z" style="fill:#2baf2b"/><path d="M23,24c.77.58,2.34-.1,2-.9.77.36,1.64-.36,1.45-.67-1.55-.3-3.17-.6-3.53-.65l1.05.07c1.16,0,3.46-.22,4.37-.32a44,44,0,0,0-6.54-1,3,3,0,0,1-.58.63,5.05,5.05,0,0,1-4.36,3.19A5.85,5.85,0,0,1,15.1,24a3.8,3.8,0,0,1-3.61.08,7.3,7.3,0,0,0,6.68,4.43c2.45,0,3.54-2.51,3.31-3.17-.06-.16-.29-.7-.42-1C21.56,25.07,23.13,24.69,23,24Z" style="fill:#ffcc2f"/><path d="M21.56,19a7.11,7.11,0,0,1,1.68-.74c0-.08,0-.16,0-.24-.47.11-1.35.49-1.86,0,1.07.32,1.6-.29,2.38-.29A5,5,0,0,1,25.4,18a5.6,5.6,0,0,0-3.53-1.57A2.47,2.47,0,0,0,21.56,19Z" style="fill:#cecece"/><path d="M15.1,24a5.85,5.85,0,0,0,1.78.3,5.05,5.05,0,0,0,4.36-3.19,5.61,5.61,0,0,1-3.65,1,5.72,5.72,0,0,0,3.72-2.35,3.17,3.17,0,0,1,.33-3.94,3.7,3.7,0,0,0-3.51-2.46,7.44,7.44,0,0,0-7.24,7.76,7.42,7.42,0,0,0,.59,2.93A3.8,3.8,0,0,0,15.1,24Z" style="fill:#ef5734"/><path d="M16.29,17.28a1.83,1.83,0,1,0,1.83-1.83A1.83,1.83,0,0,0,16.29,17.28Z" style="fill:#ffcc2f"/><path d="M17,17.28a1.1,1.1,0,1,0,1.1-1.1A1.1,1.1,0,0,0,17,17.28Z" style="fill:#543729"/><ellipse cx="18.12" cy="16.79" rx="0.64" ry="0.4" style="fill:#fff"/></g></svg>