<svg id="folder_type_trunk_opened" xmlns="http://www.w3.org/2000/svg" viewBox="0 0 32 32"><g id="folder"><path d="M27.4,5.5H18.2L16.1,9.7H4.3V26.5H29.5V5.5Zm0,18.7H6.6V11.8H27.4Zm0-14.5H19.2l1-2.1h7.1V9.7Z" style="fill:#a54646"/><polygon points="25.7 13.7 0.5 13.7 4.3 26.5 29.5 26.5 25.7 13.7" style="fill:#a54646"/></g><g id="icon"><path d="M21.81,31V29a7.3,7.3,0,0,0,4-1.2,7.14,7.14,0,0,0,2.64-3.21,7.13,7.13,0,0,0-1.55-7.79,7.19,7.19,0,0,0-3.69-2,7.17,7.17,0,0,0-8.59,7h-2a9.16,9.16,0,0,1,5.67-8.44,9.28,9.28,0,0,1,5.31-.52,9.14,9.14,0,0,1,7.22,7.18,9,9,0,0,1-.52,5.28,9.15,9.15,0,0,1-3.38,4.1A9.29,9.29,0,0,1,21.81,31Z" style="fill:#fb6a5b"/><path d="M17.35,21.86h-2a6.42,6.42,0,0,1,1.89-4.54,6.51,6.51,0,0,1,4.57-1.88v2a4.48,4.48,0,0,0-3.15,1.31,4.41,4.41,0,0,0-1.31,3.13Z" style="fill:#fb6a5b"/><path d="M25.54,21.86h-2A1.69,1.69,0,0,0,23,20.64a1.74,1.74,0,0,0-2.46,0,1.73,1.73,0,0,0-.51,1.22h-2a3.68,3.68,0,0,1,1.09-2.62,3.74,3.74,0,0,1,5.28,0,3.68,3.68,0,0,1,1.09,2.62Z" style="fill:#fb6a5b"/></g></svg>