<svg viewBox="0 0 32 32" xmlns="http://www.w3.org/2000/svg"><path d="m27.5 5.5h-9.3l-2.1 4.2h-11.7v16.8h25.2v-21zm0 4.2h-8.2l1.1-2.1h7.1z" fill="#5555bf"/><path d="m20.473 11.029a9.436 9.436 0 1 1 -9.436 9.436 9.431 9.431 0 0 1 9.436-9.436z" fill="#4a4a4d"/><g fill="#fff"><path d="m20.473 30.074a9.608 9.608 0 1 1 9.608-9.608 9.619 9.619 0 0 1 -9.608 9.608zm0-18.873a9.265 9.265 0 1 0 9.265 9.265 9.275 9.275 0 0 0 -9.265-9.266z"/><g opacity=".1"><path d="m30.9 20.877a1.232 1.232 0 0 0 .069-.618.861.861 0 0 1 -.069-.343v-.275c0-.24-.069-.377-.069-.583a7.155 7.155 0 0 0 -.24-1.235 10.386 10.386 0 0 0 -2.745-4.873 9.7 9.7 0 0 0 -2.436-1.784 21.632 21.632 0 0 0 -2.471-.961h-.339v-.069h-.48v-.069h-.652v-.067h-1.99v.069h-.652v.069h-.412v.069h-.414a14.892 14.892 0 0 0 -2.745 1.132 12.029 12.029 0 0 0 -1.373.926 16.292 16.292 0 0 0 -1.373 1.3 6.283 6.283 0 0 0 -.889 1.235c-.24.412-.48.789-.686 1.2-.069.1-.069.24-.137.377l-.137.275c-.069.206-.1.377-.172.583a7.289 7.289 0 0 0 -.343 1.235 11.175 11.175 0 0 0 .275 4.907 10.817 10.817 0 0 0 1.029 2.436 9.118 9.118 0 0 0 1.922 2.4 13.368 13.368 0 0 0 2.435 1.687c.789.377 1.613.583 2.436.892h.412v.069h.652v.069h.894v.07h.48v-.069h.892v-.069h.652v-.069h.412a26.676 26.676 0 0 0 2.744-1.063 8.706 8.706 0 0 0 2.745-2.13 10.315 10.315 0 0 0 2.475-4.87 1.431 1.431 0 0 0 .069-.206v-.137a1.219 1.219 0 0 0 .069-.343v-.274c0-.1.069-.172.069-.275a1.027 1.027 0 0 0 .093-.618z"/><path d="m20.473 11.029a9.436 9.436 0 1 1 -9.436 9.436 9.431 9.431 0 0 1 9.436-9.436z"/><path d="m20.473 30.074a9.608 9.608 0 1 1 9.608-9.608 9.619 9.619 0 0 1 -9.608 9.608zm0-18.873a9.265 9.265 0 1 0 9.265 9.265 9.275 9.275 0 0 0 -9.265-9.266z"/></g><path d="m25.483 24.618a4.956 4.956 0 0 1 -1.583 2.436 5.162 5.162 0 0 1 -2.882 1l-.24-1.578a3.887 3.887 0 0 0 1.75-.549 4.441 4.441 0 0 0 .412-.412l-2.84-9.133h2.368l1.647 6.828 1.75-6.828h2.3l-2.676 8.235z"/><path d="m17.213 16.074a3.917 3.917 0 0 1 1.475.24 4.435 4.435 0 0 1 1.27.755l-.958 1.304a3.764 3.764 0 0 0 -.789-.446 2.187 2.187 0 0 0 -.824-.137c-1.167 0-1.75.892-1.75 2.711a3.158 3.158 0 0 0 .446 1.956 1.483 1.483 0 0 0 1.3.583 2.013 2.013 0 0 0 .789-.137 7.034 7.034 0 0 0 .858-.446l.961 1.373a4.1 4.1 0 0 1 -2.711.961 4.246 4.246 0 0 1 -2.127-.515 3.454 3.454 0 0 1 -1.373-1.51 5.283 5.283 0 0 1 -.48-2.3 5.393 5.393 0 0 1 .48-2.3 3.635 3.635 0 0 1 1.373-1.578 4.352 4.352 0 0 1 2.059-.515z"/></g></svg>