<svg xmlns="http://www.w3.org/2000/svg" viewBox="0 0 32 32"><title>folder_type_plugin_opened</title><path d="M27.4,5.5H18.2L16.1,9.7H4.3V26.5H29.5V5.5Zm0,18.7H6.6V11.8H27.4Zm0-14.5H19.2l1-2.1h7.1V9.7Z" style="fill:#ffd69b"/><polygon points="25.7 13.7 0.5 13.7 4.3 26.5 29.5 26.5 25.7 13.7" style="fill:#ffd69b"/><path d="M20,12.5V14H16a2.006,2.006,0,0,0-2,2v4H12.5a2.5,2.5,0,0,0,0,5H14v4a2.006,2.006,0,0,0,2,2h3.8V29.5a2.7,2.7,0,0,1,5.4,0V31H29a2.006,2.006,0,0,0,2-2V25.2H29.5a2.7,2.7,0,0,1,0-5.4H31V16a2.006,2.006,0,0,0-2-2H25V12.5a2.5,2.5,0,0,0-5,0Z" style="fill:#e76a00"/></svg>