<svg viewBox="0 0 32 32" xmlns="http://www.w3.org/2000/svg"><title>folder_type_cubit_opened</title><g fill-rule="nonzero" fill="none"><path d="M26.544.5H17.63l-2.034 4.2H4.166v4H.484l3.682 12.8h24.412V.5h-2.034zm-6.975 2.1h6.878v2.1H18.6l.969-2.1zm5.328 6.1H6.394V6.8h20.15v7.626L24.897 8.7z" fill="#7BC0DB"/><path fill="#000" d="M21.864 6l8.255 4.92v9.839l-8.255 4.92-8.255-4.92V10.92z"/><path fill="#82EDDF" d="M14.28 11.29l7.585 4.55v9.099l-7.585-4.55z"/><path fill="#00D3B9" d="M29.45 11.29l-7.585 4.55v9.099l7.584-4.55z"/><path fill="#0084C1" d="M14.28 11.29l7.585-4.55 7.584 4.55-7.584 4.55z"/><path fill="#000" d="M21.864 9.915l4.971 2.962v5.925l-4.97 2.963-4.971-2.963v-5.925z"/><g><path fill="#82EDDF" d="M19.405 14.358l2.46 1.481v2.963l-2.46-1.48z"/><path fill="#00D3B9" d="M24.325 14.358l-2.46 1.481v2.963l2.46-1.48z"/><path fill="#0084C1" d="M19.405 14.358l2.46-1.48 2.46 1.48-2.46 1.481z"/></g></g></svg>