<svg xmlns="http://www.w3.org/2000/svg" xmlns:xlink="http://www.w3.org/1999/xlink" viewBox="0 0 32 32"><defs><linearGradient id="a" x1="-7361.602" y1="2007.461" x2="-7338.406" y2="1980.338" gradientTransform="matrix(-0.023, -0.116, -0.116, 0.023, 78.54, -890.577)" gradientUnits="userSpaceOnUse"><stop offset="0" stop-color="#f69923"/><stop offset="0.312" stop-color="#f79a23"/><stop offset="0.838" stop-color="#e97826"/></linearGradient><linearGradient id="b" x1="-7533.268" y1="2010.527" x2="-7367.779" y2="2010.527" gradientTransform="matrix(-0.023, -0.116, -0.116, 0.023, 78.54, -890.577)" gradientUnits="userSpaceOnUse"><stop offset="0.323" stop-color="#9e2064"/><stop offset="0.63" stop-color="#c92037"/><stop offset="0.751" stop-color="#cd2335"/><stop offset="1" stop-color="#e97826"/></linearGradient><linearGradient id="c" x1="-7513.292" y1="1993.896" x2="-7414.676" y2="1993.896" gradientTransform="matrix(-0.023, -0.116, -0.116, 0.023, 78.54, -890.577)" gradientUnits="userSpaceOnUse"><stop offset="0" stop-color="#282662"/><stop offset="0.095" stop-color="#662e8d"/><stop offset="0.788" stop-color="#9f2064"/><stop offset="0.949" stop-color="#cd2032"/></linearGradient><linearGradient id="d" x1="-7523.974" y1="2012.055" x2="-7358.484" y2="2012.055" xlink:href="#b"/><linearGradient id="e" x1="-7511.904" y1="2009.788" x2="-7424.935" y2="2009.788" xlink:href="#c"/><linearGradient id="f" x1="-7523.974" y1="1994.929" x2="-7358.484" y2="1994.929" xlink:href="#b"/><linearGradient id="g" x1="-7534.239" y1="1995.76" x2="-7368.75" y2="1995.76" xlink:href="#b"/><linearGradient id="h" x1="-7523.974" y1="1989.8" x2="-7358.484" y2="1989.8" xlink:href="#b"/><linearGradient id="i" x1="-7523.974" y1="1990.402" x2="-7358.484" y2="1990.402" xlink:href="#b"/><linearGradient id="j" x1="-8333.644" y1="1965.164" x2="-8310.449" y2="1938.041" gradientTransform="matrix(0.074, -0.112, -0.112, -0.074, 863.044, -776.696)" xlink:href="#a"/><linearGradient id="k" x1="-8505.311" y1="1968.23" x2="-8339.822" y2="1968.23" gradientTransform="matrix(0.074, -0.112, -0.112, -0.074, 863.044, -776.696)" xlink:href="#b"/><linearGradient id="l" x1="-8485.334" y1="1951.599" x2="-8386.719" y2="1951.599" gradientTransform="matrix(0.074, -0.112, -0.112, -0.074, 863.044, -776.696)" xlink:href="#c"/><linearGradient id="m" x1="-8496.017" y1="1969.759" x2="-8330.527" y2="1969.759" gradientTransform="matrix(0.074, -0.112, -0.112, -0.074, 863.044, -776.696)" xlink:href="#b"/><linearGradient id="n" x1="-8483.947" y1="1967.492" x2="-8396.977" y2="1967.492" gradientTransform="matrix(0.074, -0.112, -0.112, -0.074, 863.044, -776.696)" xlink:href="#c"/><linearGradient id="o" x1="-8496.017" y1="1952.633" x2="-8330.527" y2="1952.633" gradientTransform="matrix(0.074, -0.112, -0.112, -0.074, 863.044, -776.696)" xlink:href="#b"/><linearGradient id="p" x1="-8506.282" y1="1953.463" x2="-8340.792" y2="1953.463" gradientTransform="matrix(0.074, -0.112, -0.112, -0.074, 863.044, -776.696)" xlink:href="#b"/><linearGradient id="q" x1="-8496.017" y1="1947.503" x2="-8330.527" y2="1947.503" gradientTransform="matrix(0.074, -0.112, -0.112, -0.074, 863.044, -776.696)" xlink:href="#b"/><linearGradient id="r" x1="-8496.017" y1="1948.106" x2="-8330.527" y2="1948.106" gradientTransform="matrix(0.074, -0.112, -0.112, -0.074, 863.044, -776.696)" xlink:href="#b"/></defs><title>folder_type_maven_opened</title><path d="M27.4,5.5H18.2L16.1,9.7H4.3V26.5H29.5V5.5Zm0,18.7H6.6V11.8H27.4Zm0-14.5H19.2l1-2.1h7.1V9.7Z" style="fill:#7f7add"/><polygon points="25.7 13.7 0.5 13.7 4.3 26.5 29.5 26.5 25.7 13.7" style="fill:#7f7add"/><path d="M15.632,10.4a7.154,7.154,0,0,0-.3,1.991l1.07.518A13.446,13.446,0,0,1,16.481,11c0-.044.008-.069.008-.069,0,.023-.007.046-.008.069a11.954,11.954,0,0,0,0,1.88,20.842,20.842,0,0,0,1.585-1.5,2.281,2.281,0,0,0-1.2-1.279S15.918,9.726,15.632,10.4Z" style="fill:url(#a)"/><path d="M18.416,15.791a.013.013,0,0,0,.007-.009l-.06.053c0,.005-.007.009-.007.014Z" style="fill:none"/><path d="M19.071,17.643c-.029.035-.063.068-.1.1C19.009,17.711,19.043,17.677,19.071,17.643Z" style="fill:none"/><path d="M18.456,23.332c0-.016-.011-.033-.013-.049-.092-.334-.18-.657-.266-.977-.094-.355-.183-.7-.269-1.043-.089-.354-.173-.7-.252-1.038-.084-.354-.162-.693-.233-1.024-.058-.269-.114-.53-.166-.785-.018-.086-.034-.169-.05-.252-.032-.166-.064-.327-.095-.485s-.054-.289-.082-.431c-.008-.048-.016-.1-.025-.139l0-.024-.051.047-.106-.053c0,.011,0,.024.008.035.035.213.072.43.114.647.023.123.048.249.07.378.066.348.135.695.212,1.045s.152.7.231,1.053.16.685.243,1.026.167.676.254,1.009c.089.349.18.694.274,1.031.02.076.041.155.064.228.075.274.149.541.225.8l.172.086.057-.051a.052.052,0,0,0-.007-.022C18.645,24,18.549,23.661,18.456,23.332Z" style="fill:none"/><path d="M19.343,18.621c-.05.055-.1.107-.154.158h0c.027-.024.055-.054.08-.081A.909.909,0,0,0,19.343,18.621Z" style="fill:#be202e"/><path d="M19.343,18.621c-.05.055-.1.107-.154.158h0c.027-.024.055-.054.08-.081A.909.909,0,0,0,19.343,18.621Z" style="fill:#be202e;opacity:0.3499999940395355;isolation:isolate"/><path d="M18.951,17.767h0c.009-.006.015-.016.024-.022.034-.034.068-.068.1-.1-.038.041-.08.081-.121.125Z" style="fill:#be202e"/><path d="M18.951,17.767h0c.009-.006.015-.016.024-.022.034-.034.068-.068.1-.1-.038.041-.08.081-.121.125Z" style="fill:#be202e;opacity:0.3499999940395355;isolation:isolate"/><path d="M16.685,16.069q-.074-.534-.135-1.051c-.041-.358-.073-.709-.1-1.056,0-.021,0-.042,0-.06-.023-.339-.04-.67-.048-.993l-1.068-.515c0,.065-.007.132-.01.2-.011.256-.019.528-.021.814,0,.322,0,.658.006,1.01.008.324.021.661.038,1,.017.294.037.591.061.894l0,.034,1.429.724C16.788,16.738,16.735,16.4,16.685,16.069Z" style="fill:url(#b)"/><path d="M18.8,24.521c.079.267.159.542.246.821l0,.011c.012.041.022.079.037.117.057.188.112.355.23.738a1.445,1.445,0,0,1,.821.2,1.172,1.172,0,0,0-.78-.424,2.512,2.512,0,0,0,1.37-2.233c-.009-.079-.019-.162-.035-.245a1.01,1.01,0,0,1-.575.864l0,0,0,0a2.824,2.824,0,0,0,.458-1.78c-.012-.145-.03-.3-.056-.464a2.292,2.292,0,0,1-1.329,1.846l-.433.4C18.768,24.421,18.781,24.469,18.8,24.521Z" style="fill:url(#c)"/><path d="M18.239,23.3c-.091-.339-.181-.683-.274-1.031s-.171-.669-.254-1.009-.163-.683-.243-1.026-.158-.7-.231-1.053-.143-.7-.212-1.045c-.025-.126-.048-.249-.07-.378-.04-.214-.077-.431-.114-.647,0-.011,0-.024-.008-.035l-1.421-.725a.509.509,0,0,1,.005.068c.029.322.057.649.095.977s.08.668.129,1.006c.042.285.087.568.134.853.01.056.021.115.031.171.065.353.135.695.211,1.013.085.362.176.7.268,1.017.062.207.122.406.184.6.054.159.112.319.169.476.136.369.286.728.449,1.078l1.436.728c-.077-.264-.147-.533-.225-.8C18.281,23.456,18.261,23.38,18.239,23.3Z" style="fill:url(#d)"/><path d="M17.11,23.656a11.145,11.145,0,0,0,.661,1.22c.009.012.016.029.025.04a2.9,2.9,0,0,0-1.1-.085,4.028,4.028,0,0,1,1.765,1.028,1.851,1.851,0,0,1-.834.418,1.845,1.845,0,0,0,.915-.081,2.254,2.254,0,0,0-.557,1.085,2.313,2.313,0,0,1,.9-.957c.431,1.429.95,2.979,1.526,4.605a.433.433,0,0,0,.067-.406c-.106-.292-.79-2.226-1.571-4.851-.023-.074-.042-.15-.067-.226-.007-.022-.012-.041-.019-.063q-.12-.413-.244-.849c-.018-.068-.037-.131-.055-.2l0,0-1.436-.728A.268.268,0,0,0,17.11,23.656Z" style="fill:url(#e)"/><path d="M17,17.107c.008.048.017.091.025.139.028.142.052.286.082.431s.063.319.095.485c.016.083.032.166.05.252.052.255.108.516.166.785.071.331.149.671.233,1.024.079.335.163.683.252,1.038.086.338.173.685.269,1.043.084.317.174.643.266.977,0,.016.011.033.013.049.093.329.189.669.289,1.015a.052.052,0,0,0,.007.022l.433-.4c-.011,0-.02.01-.034.016a4.16,4.16,0,0,0,1.056-2.336,5.6,5.6,0,0,0-.013-1.3,8.943,8.943,0,0,0-.209-1.114c-.085-.343-.191-.708-.319-1.092a2.168,2.168,0,0,1-.331.477l-.075.082c-.025.027-.052.052-.08.081h0a2.533,2.533,0,0,0,.312-1.88,2.382,2.382,0,0,1-.429.743c-.029.035-.063.068-.1.1-.009.006-.015.016-.027.024h0a2.64,2.64,0,0,0,.278-.61,1.132,1.132,0,0,0,.033-.128c.015-.065.025-.131.036-.2,0-.044.01-.084.014-.128a1.846,1.846,0,0,0,0-.31c0-.034,0-.065-.008-.1-.008-.048-.014-.093-.023-.136-.034-.2-.072-.375-.112-.527-.02-.076-.038-.144-.057-.206-.009-.025-.013-.049-.023-.074-.023-.069-.042-.131-.063-.184a1.839,1.839,0,0,0-.079-.181h0a.4.4,0,0,1-.031.086,2.812,2.812,0,0,1-.487.7l.4-.365-.4.365a.013.013,0,0,0-.007.009.811.811,0,0,0-.059.061c0-.005.007-.009.007-.014l-1.365,1.25C17,17.094,17.005,17.1,17,17.107Z" style="fill:url(#f)"/><path d="M16.476,12.884c.017.3.043.636.077,1.008a.363.363,0,0,0,.007.058c.031.325.071.674.121,1.057.043.329.091.677.151,1.053.049.325.109.665.171,1.025l1.365-1.25a2.241,2.241,0,0,0,.343-1.235c0-.107-.008-.22-.016-.336a10.743,10.743,0,0,0-.123-1.078,9.345,9.345,0,0,0-.2-.965,5.119,5.119,0,0,0-.156-.49c-.049-.122-.1-.234-.151-.341A21.6,21.6,0,0,1,16.476,12.884Z" style="fill:url(#g)"/><path d="M19.271,18.7c-.025.027-.052.052-.08.081h0A1.043,1.043,0,0,1,19.271,18.7Z" style="fill:#be202e"/><path d="M19.271,18.7c-.025.027-.052.052-.08.081h0A1.043,1.043,0,0,1,19.271,18.7Z" style="fill:#be202e;opacity:0.3499999940395355;isolation:isolate"/><path d="M19.271,18.7c-.025.027-.052.052-.08.081h0A1.043,1.043,0,0,1,19.271,18.7Z" style="fill:url(#h)"/><path d="M18.948,17.769c.009-.006.015-.016.027-.024-.009.006-.015.016-.027.024Z" style="fill:#be202e"/><path d="M18.948,17.769c.009-.006.015-.016.027-.024-.009.006-.015.016-.027.024Z" style="fill:#be202e;opacity:0.3499999940395355;isolation:isolate"/><path d="M18.948,17.769c.009-.006.015-.016.027-.024-.009.006-.015.016-.027.024Z" style="fill:url(#i)"/><path d="M29.62,10.668A8.092,8.092,0,0,0,27.8,12.035l.45,1.268a15.208,15.208,0,0,1,1.576-1.473c.038-.032.061-.049.061-.049-.019.018-.042.031-.061.049a13.521,13.521,0,0,0-1.5,1.51,23.574,23.574,0,0,0,2.466.054,2.58,2.58,0,0,0,.053-1.979S30.386,10.352,29.62,10.668Z" style="fill:url(#j)"/><path d="M27.578,17.22a.015.015,0,0,0,.013,0l-.091,0s-.013,0-.017.006Z" style="fill:none"/><path d="M26.634,19.231c-.051.005-.1.005-.159.006C26.529,19.237,26.583,19.236,26.634,19.231Z" style="fill:none"/><path d="M21.618,23.322c.011-.015.018-.035.028-.05.192-.342.377-.672.562-1,.207-.36.412-.713.612-1.054.21-.356.419-.7.622-1.035.214-.351.421-.687.626-1.01.167-.262.329-.517.49-.764.054-.084.107-.163.16-.243.106-.159.208-.315.31-.466s.186-.276.277-.413c.032-.045.063-.091.09-.132l.016-.023-.079,0L25.289,17c-.006.012-.016.023-.022.034-.142.2-.284.4-.422.612-.08.117-.16.238-.244.359-.223.333-.443.667-.659,1.009s-.438.688-.65,1.031-.416.679-.619,1.019-.4.677-.6,1.014c-.206.352-.406.7-.6,1.047-.045.077-.09.157-.13.235-.158.28-.31.553-.458.827l.07.206.087,0a.058.058,0,0,0,.012-.023C21.239,24.011,21.431,23.661,21.618,23.322Z" style="fill:none"/><path d="M26.075,20.234c-.084,0-.167,0-.25,0h0c.041,0,.087,0,.129,0A1.028,1.028,0,0,0,26.075,20.234Z" style="fill:#be202e"/><path d="M26.075,20.234c-.084,0-.167,0-.25,0h0c.041,0,.087,0,.129,0A1.028,1.028,0,0,0,26.075,20.234Z" style="fill:#be202e;opacity:0.3499999940395355;isolation:isolate"/><path d="M26.438,19.236h0c.012,0,.025,0,.037,0,.054,0,.108,0,.159-.006-.063,0-.129,0-.2,0Z" style="fill:#be202e"/><path d="M26.438,19.236h0c.012,0,.025,0,.037,0,.054,0,.108,0,.159-.006-.063,0-.129,0-.2,0Z" style="fill:#be202e;opacity:0.3499999940395355;isolation:isolate"/><path d="M25.963,16.069q.365-.489.726-.954c.251-.321.5-.629.76-.928.015-.019.03-.037.045-.052.251-.292.5-.571.751-.838l-.451-1.264c-.053.05-.11.1-.168.154-.212.2-.434.41-.663.639-.258.257-.523.53-.8.818-.251.267-.509.549-.768.839-.22.25-.44.505-.661.768l-.025.03L25.286,17C25.514,16.689,25.739,16.377,25.963,16.069Z" style="fill:url(#k)"/><path d="M20.948,24.55c-.149.278-.3.563-.454.856l-.006.012c-.023.042-.045.081-.064.124-.1.2-.192.375-.4.777a1.635,1.635,0,0,1,.5.81,1.326,1.326,0,0,0-.291-.962,2.841,2.841,0,0,0,2.877-.709c.056-.071.113-.146.166-.225a1.143,1.143,0,0,1-1.149.239h0A3.2,3.2,0,0,0,23.913,24.4c.106-.126.213-.264.323-.418a2.592,2.592,0,0,1-2.537.43l-.666-.023Z" style="fill:url(#l)"/><path d="M21.468,23.126c.2-.345.4-.694.6-1.047.195-.337.394-.674.6-1.014s.412-.68.619-1.019.43-.689.65-1.031.44-.675.659-1.009c.08-.121.16-.238.244-.359.138-.2.28-.408.422-.612.006-.012.016-.023.022-.034l-.568-1.713a.576.576,0,0,1-.05.059c-.233.282-.47.567-.7.862s-.467.6-.7.912c-.192.263-.381.526-.57.794-.037.053-.074.11-.111.162-.228.337-.443.667-.635.984-.219.359-.415.7-.592,1.032-.115.216-.224.424-.325.626-.083.171-.163.346-.242.517-.184.405-.348.814-.5,1.224l.578,1.727c.148-.273.3-.546.458-.827C21.379,23.283,21.423,23.206,21.468,23.126Z" style="fill:url(#m)"/><path d="M20.278,22.514a12.606,12.606,0,0,0-.437,1.507c0,.016-.009.036-.012.052a3.278,3.278,0,0,0-.814-.939,4.556,4.556,0,0,1,.6,2.23,2.094,2.094,0,0,1-1-.326,2.087,2.087,0,0,0,.8.662,2.549,2.549,0,0,0-1.311.431,2.616,2.616,0,0,1,1.488-.052c-.789,1.493-1.6,3.153-2.431,4.919a.489.489,0,0,0,.377-.273c.147-.319,1.133-2.42,2.59-5.154.04-.077.085-.154.126-.235l.035-.066q.231-.428.478-.878c.039-.069.074-.135.113-.2v0L20.3,22.46A.3.3,0,0,0,20.278,22.514Z" style="fill:url(#n)"/><path d="M25.4,17.158c-.032.045-.059.087-.09.132-.091.136-.185.272-.277.413s-.2.307-.31.466c-.053.079-.106.159-.16.243-.161.247-.323.5-.49.764-.205.323-.413.659-.626,1.01-.2.332-.412.68-.622,1.035-.2.341-.4.689-.612,1.054-.184.322-.371.657-.562,1-.011.015-.018.035-.028.05-.187.338-.38.689-.573,1.047a.058.058,0,0,0-.012.023l.666.023c-.012-.006-.024-.008-.04-.014a4.706,4.706,0,0,0,2.706-1.042A6.337,6.337,0,0,0,25.39,22.3a10.116,10.116,0,0,0,.717-1.063c.2-.344.409-.722.611-1.133a2.452,2.452,0,0,1-.646.121l-.126.007c-.042,0-.083,0-.129,0h0a2.865,2.865,0,0,0,1.745-1.266,2.694,2.694,0,0,1-.936.258c-.051.005-.1.005-.159.006-.012,0-.025,0-.041,0h0a2.986,2.986,0,0,0,.709-.27,1.28,1.28,0,0,0,.128-.077c.064-.04.125-.086.185-.131.038-.032.075-.06.113-.091a2.088,2.088,0,0,0,.245-.251c.025-.03.05-.055.071-.085.032-.045.063-.086.089-.128.132-.189.24-.36.329-.513.045-.077.084-.146.118-.211.012-.027.028-.05.04-.077.036-.074.07-.139.1-.2a2.08,2.08,0,0,0,.08-.209h0a.451.451,0,0,1-.094.044,3.18,3.18,0,0,1-.949.177l.612.023-.612-.023a.015.015,0,0,0-.013,0,.918.918,0,0,0-.1,0s.013,0,.017-.006L25.4,17.13C25.406,17.147,25.4,17.154,25.4,17.158Z" style="fill:url(#o)"/><path d="M28.326,13.339c-.224.254-.471.546-.739.873a.411.411,0,0,0-.041.052c-.233.286-.479.6-.742.947-.227.3-.465.618-.716.968-.219.3-.44.621-.677.961l2.092.078a2.534,2.534,0,0,0,1.258-.722c.084-.088.168-.183.254-.283a12.151,12.151,0,0,0,.757-.966,10.57,10.57,0,0,0,.6-.938,5.79,5.79,0,0,0,.263-.519c.058-.137.106-.267.149-.394A24.435,24.435,0,0,1,28.326,13.339Z" style="fill:url(#p)"/><path d="M25.954,20.241c-.042,0-.083,0-.129,0h0A1.18,1.18,0,0,1,25.954,20.241Z" style="fill:#be202e"/><path d="M25.954,20.241c-.042,0-.083,0-.129,0h0A1.18,1.18,0,0,1,25.954,20.241Z" style="fill:#be202e;opacity:0.3499999940395355;isolation:isolate"/><path d="M25.954,20.241c-.042,0-.083,0-.129,0h0A1.18,1.18,0,0,1,25.954,20.241Z" style="fill:url(#q)"/><path d="M26.434,19.235c.012,0,.025,0,.041,0-.012,0-.025,0-.041,0Z" style="fill:#be202e"/><path d="M26.434,19.235c.012,0,.025,0,.041,0-.012,0-.025,0-.041,0Z" style="fill:#be202e;opacity:0.3499999940395355;isolation:isolate"/><path d="M26.434,19.235c.012,0,.025,0,.041,0-.012,0-.025,0-.041,0Z" style="fill:url(#r)"/></svg>