<svg version="1.1" viewBox="0 0 32 32" xml:space="preserve" xmlns="http://www.w3.org/2000/svg"><title>folder_type_java</title><path d="M27.417,5.5H18.19L16.107,9.7H4.5V26.5h25V5.5Zm0,4.2H19.282l1.091-2.1h7.044Z" fill="#81612c"/><g transform="matrix(.71423 0 0 .71423 9.6821 8.6401)"><path d="m12.7 23.56s-1.07 0.622 0.761 0.833a16.023 16.023 0 0 0 5.8-0.246 10.088 10.088 0 0 0 1.539 0.753c-5.481 2.349-12.405-0.136-8.1-1.339" fill="#5382a1"/><path d="m12.026 20.494s-1.2 0.888 0.633 1.078a22.618 22.618 0 0 0 7.481-0.359 3.32 3.32 0 0 0 1.152 0.7c-6.627 1.938-14.009 0.153-9.266-1.421" fill="#5382a1"/><path d="m17.673 15.294a2.051 2.051 0 0 1-0.355 2.954s3.429-1.77 1.854-3.987c-1.471-2.067-2.6-3.095 3.508-6.636 0 0-9.586 2.394-5.007 7.669" fill="#e76f00"/><g fill="#5382a1"><path d="m24.922 25.827s0.792 0.652-0.872 1.157c-3.164 0.958-13.168 1.248-15.948 0.038-1-0.435 0.874-1.038 1.464-1.164a3.8 3.8 0 0 1 0.966-0.108c-1.111-0.783-7.181 1.537-3.083 2.2 11.176 1.812 20.372-0.816 17.473-2.124"/><path d="m13.211 17.318s-5.089 1.209-1.8 1.648a38.225 38.225 0 0 0 6.731-0.072c2.106-0.178 4.221-0.555 4.221-0.555a8.934 8.934 0 0 0-1.28 0.685c-5.17 1.358-15.153 0.726-12.283-0.665a9.629 9.629 0 0 1 4.407-1.042"/><path d="m22.34 22.421c5.253-2.73 2.824-5.353 1.129-5a3.932 3.932 0 0 0-0.6 0.161 0.957 0.957 0 0 1 0.449-0.346c3.354-1.179 5.933 3.478-1.083 5.322a0.458 0.458 0 0 0 0.106-0.138"/></g><path d="m19.172 1.906s2.909 2.91-2.759 7.386c-4.546 3.59-1.037 5.637 0 7.975-2.653-2.394-4.6-4.5-3.294-6.463 1.917-2.879 7.229-4.275 6.056-8.9" fill="#e76f00"/><path d="m13.727 29.818c5.042 0.323 12.786-0.179 12.969-2.565 0 0-0.353 0.9-4.167 1.623a41.458 41.458 0 0 1-12.76 0.2s0.645 0.533 3.959 0.746" fill="#5382a1"/></g></svg>
