<svg viewBox="0 0 32 32" xmlns="http://www.w3.org/2000/svg"><path d="m27.9 6h-9.8l-2 4h-11.1v17h25v-21zm.1 4h-7.8l1-2h6.8z" fill="#55a1bf"/><g fill-rule="evenodd"><path d="m22.258 25.522a15.725 15.725 0 0 1 -7.5-1.516l.473-.75a15.264 15.264 0 0 0 7.027 1.3c0 .082.1-1.533.245-2.413h-3.403a21.649 21.649 0 0 1 3.033-9.408h-10.2v15.526h10.716a22.38 22.38 0 0 1 -.391-2.739z" fill="#c6e9fa"/><path d="m23.285 24.5a10.7 10.7 0 0 0 4.484-1.3l.587.75a12.775 12.775 0 0 1 -5.071 1.517 13.6 13.6 0 0 0 .441 2.8h7.337v-15.528h-7.81a19.337 19.337 0 0 0 -2.968 8.381h3.506a15.409 15.409 0 0 0 -.506 3.375z" fill="#00adee"/><path d="m16.568 15.087h.995v2.299h-.995z" fill="#00adee"/><path d="m24.851 15.087h.994v2.299h-.994z" fill="#231f20"/><path d="m23.285 24.5a10.7 10.7 0 0 0 4.484-1.3l.587.75a12.775 12.775 0 0 1 -5.071 1.517 12.27 12.27 0 0 0 1.354 5.087l-.848.446c-1.549-2.445-1.826-5.739-1.288-8.853h-3.403a21.485 21.485 0 0 1 4.984-12.147l.734.636a19.1 19.1 0 0 0 -4.533 10.484h3.506a15.409 15.409 0 0 0 -.506 3.375z" fill="#231f20"/><path d="m22.258 24.56v.962a15.725 15.725 0 0 1 -7.5-1.516l.473-.75a15.264 15.264 0 0 0 7.027 1.3z" fill="#00adee"/></g></svg>