<svg xmlns="http://www.w3.org/2000/svg" viewBox="0 0 32 32"><title>folder_type_circleci</title><path d="M27.5,5.5H18.2L16.1,9.7H4.4V26.5H29.6V5.5Zm0,4.2H19.3l1.1-2.1h7.1Z" style="fill:#55a3bf"/><path d="M17.944,20.5a2.5,2.5,0,1,1,2.5,2.5,2.5,2.5,0,0,1-2.5-2.5Zm2.5-10.5a10.51,10.51,0,0,0-10.173,7.9.324.324,0,0,0-.01.1.5.5,0,0,0,.5.5h4.231a.484.484,0,0,0,.45-.294h0a5.5,5.5,0,1,1,0,4.574h0a.513.513,0,0,0-.45-.294H10.763a.5.5,0,0,0-.5.5h0c0,.031.01.063.01.1A10.5,10.5,0,1,0,20.443,10Z" style="fill:#064c64"/></svg>