<?xml version="1.0" encoding="UTF-8" standalone="no"?>
<!-- Created with Inkscape (http://www.inkscape.org/) -->

<svg
   width="32mm"
   height="32mm"
   viewBox="0 0 32 32"
   version="1.1"
   id="svg1"
   xml:space="preserve"
   inkscape:version="1.4.3 (0d15f75, 2025-12-25)"
   sodipodi:docname="core_opened.svg"
   xmlns:inkscape="http://www.inkscape.org/namespaces/inkscape"
   xmlns:sodipodi="http://sodipodi.sourceforge.net/DTD/sodipodi-0.dtd"
   xmlns="http://www.w3.org/2000/svg"
   xmlns:svg="http://www.w3.org/2000/svg"><sodipodi:namedview
     id="namedview1"
     pagecolor="#ffffff"
     bordercolor="#000000"
     borderopacity="0.25"
     inkscape:showpageshadow="2"
     inkscape:pageopacity="0.0"
     inkscape:pagecheckerboard="0"
     inkscape:deskcolor="#d1d1d1"
     inkscape:document-units="mm"
     showgrid="true"
     showguides="true"
     inkscape:zoom="3.5847924"
     inkscape:cx="63.741488"
     inkscape:cy="62.904619"
     inkscape:window-width="1366"
     inkscape:window-height="705"
     inkscape:window-x="-8"
     inkscape:window-y="-8"
     inkscape:window-maximized="1"
     inkscape:current-layer="layer1"><inkscape:grid
       id="grid1"
       units="mm"
       originx="0"
       originy="0"
       spacingx="0.99999997"
       spacingy="0.99999997"
       empcolor="#0099e5"
       empopacity="0.30196078"
       color="#0099e5"
       opacity="0.14901961"
       empspacing="5"
       enabled="true"
       visible="true" /><sodipodi:guide
       position="23.765904,30.007206"
       orientation="0,-1"
       id="guide1"
       inkscape:locked="false" /><sodipodi:guide
       position="2.0666003,23.733598"
       orientation="1,0"
       id="guide2"
       inkscape:locked="false" /><sodipodi:guide
       position="12.916252,1.960487"
       orientation="0,-1"
       id="guide3"
       inkscape:locked="false" /><sodipodi:guide
       position="29.965705,20.412276"
       orientation="1,0"
       id="guide4"
       inkscape:locked="false" /></sodipodi:namedview><defs
     id="defs1" /><g
     inkscape:label="Layer 1"
     inkscape:groupmode="layer"
     id="layer1"><g
       id="g1"
       transform="translate(-0.47038001,-1.9428111)"><path
         style="fill:#d0d1d2"
         d="M 16.240141,27.592328 C 15.042668,27.317769 14.721872,25.972448 14.778116,24.907903 14.927683,24.336917 14.245541,24.62933 13.913299,24.55851 11.390314,24.551644 8.8673286,24.544771 6.3443433,24.537896 5.7437581,23.641088 5.6689839,22.483438 5.2826597,21.482523 4.6224294,19.238008 3.908422,16.997365 3.2850958,14.747939 c 0.1234987,-0.595334 0.8074247,-0.293246 1.2311268,-0.365733 0.4528987,0 0.9057973,0 1.358696,0 0.099633,-0.984847 -0.034692,-2.003172 0.139913,-2.966281 0.307538,-0.222582 0.8080396,-0.03928 1.1938063,-0.09732 2.6189684,0.007 5.2384291,0.02027 7.8567051,-0.05111 0.511333,-0.936624 0.870836,-1.9848478 1.521528,-2.822992 2.525636,-0.1753389 5.068458,-0.1151166 7.601903,-0.1772424 0.373231,0.064095 1.023138,-0.2331513 1.0803,0.328123 0.06925,1.4372744 0.05862,2.8776634 0.0897,4.3163604 1.047319,1.046376 0.835083,2.665224 0.544242,3.980489 0.505165,0.813517 2.084922,0.757127 2.791325,1.608205 1.174121,0.677417 1.251418,2.380913 0.112421,3.133563 -0.809939,0.767688 -1.95514,0.967926 -2.901703,1.45462 0.167058,1.287214 0.558863,2.781079 -0.318121,3.921061 -0.957034,1.100056 -2.601274,0.523698 -3.62926,-0.153616 -0.837755,-0.612887 -1.644801,-1.562296 -2.444107,-0.384334 -0.933821,0.678015 -2.083285,1.302898 -3.273434,1.120596 z m 0.950735,-0.7786 c 1.020366,-0.293133 1.920892,-0.906856 2.687816,-1.628466 -0.316734,-0.265946 -0.527721,-0.780198 -1.014478,-0.646906 -1.090296,0 -2.180591,0 -3.270887,0 -0.31659,1.052399 0.17008,2.735696 1.597549,2.275372 z m 7.472556,-0.04646 c 0.732424,-0.3027 1.30291,-2.652839 0.02307,-2.255629 -1.024204,0.03009 -2.048921,0.03409 -3.073406,0.04918 -0.93644,0.60423 -0.03023,1.194212 0.651507,1.585296 0.685239,0.422716 1.577241,0.945564 2.398831,0.621153 z m -4.16956,-2.183976 c -0.114819,-0.16122 -0.114819,0.16122 0,0 z m 6.483916,-2.746287 c 0.934392,-0.358712 2.532032,-1.330757 1.559573,-2.45621 -0.761109,-0.772888 -1.924513,-1.321317 -2.951237,-1.359713 -0.213654,1.22289 -0.05492,2.505485 -0.04768,3.751602 -0.09787,0.988876 1.001043,0.1332 1.439344,0.06432 z M 23.279663,15.481128 C 23.170285,14.758115 23.618,12.88825 22.366586,13.98665 c -0.670859,0.26725 0.599626,0.418084 0.413177,1.06963 0.171095,0.480091 0.653165,2.271497 0.515045,0.843958 l -0.007,-0.20258 -0.0081,-0.216534 z m -9.486434,-1.183366 c 0.554404,0.121603 1.442117,-0.0988 1.158606,-0.748835 -2.110973,-0.03362 -4.222368,-0.01616 -6.3335443,-0.02055 -0.048235,0.62107 0.051708,0.96989 0.7112282,0.80705 1.4879451,-0.0046 2.9760761,-0.0044 4.4637101,-0.03766 z m 5.127231,-0.03914 c -0.663063,-0.666703 -1.591275,-0.736748 -2.474462,-0.694741 -0.735584,-0.266708 -1.150038,1.099725 -0.104528,0.726857 0.859187,-0.0052 1.721271,0.02136 2.57899,-0.03212 z m 1.959944,-0.146263 c 0.573935,-0.313014 0.774935,-0.655748 -0.02422,-0.535943 -0.535633,0.01853 -2.054984,-0.171811 -0.918337,0.469079 0.243092,0.241928 0.670214,0.289079 0.942559,0.06686 z m 2.211167,-3.212309 c -0.195808,-0.85433 -1.775335,-0.174644 -2.544928,-0.379929 -0.654222,0.0066 -1.308445,0.01322 -1.962667,0.01983 -0.952851,0.935303 0.495794,0.681321 1.224607,0.709142 1.101016,0.0092 2.202018,0.02013 3.303005,0.03236 -0.0067,-0.127132 -0.01335,-0.254264 -0.02002,-0.381396 z"
         id="path7" /><path
         style="fill:#acadae"
         d="M 16.192609,27.484055 C 15.040891,27.147391 14.832821,25.828182 14.865369,24.797564 14.96901,24.27425 14.246216,24.608885 13.937724,24.513419 11.40595,24.506603 8.8741764,24.499783 6.3424025,24.492962 5.7934403,23.507662 5.650534,22.335405 5.2639088,21.276261 4.6264507,19.110879 3.9482551,16.948469 3.3315766,14.780884 c 0.051878,-0.584433 0.7172117,-0.279473 1.0983287,-0.353739 0.7832826,0.01231 1.881715,0.219755 1.5251156,-0.955754 0.077666,-0.927916 -0.3599509,-2.54557 1.1363482,-2.103449 2.662392,-0.019 5.3259059,0.02447 7.9873869,-0.06404 0.512929,-0.939649 0.890243,-1.9772047 1.529909,-2.8289538 2.803304,-0.1447768 5.617805,-0.1325041 8.425712,-0.1459357 0.431073,0.776389 0.150711,1.8987345 0.2524,2.8233175 0.03737,0.626556 -0.03573,1.292428 0.06818,1.8953 0.845631,0.890668 0.684131,2.227867 0.551455,3.345103 -0.645623,1.479463 1.736805,1.091004 2.417361,1.944187 0.988466,0.522779 1.712708,1.896607 0.802413,2.831457 -0.839277,1.016916 -2.164025,1.343938 -3.330386,1.820604 0.09721,1.281887 0.597821,2.821569 -0.29307,3.962522 -0.964165,1.097698 -2.54831,0.433229 -3.568933,-0.229918 -0.779486,-0.510777 -1.595111,-1.569582 -2.349271,-0.428047 -0.950719,0.720629 -2.158443,1.42234 -3.39192,1.190518 z m 8.52328,-0.630229 c 0.828795,-0.369431 0.967871,-2.052028 0.544402,-2.436693 -1.222388,0.153673 -2.474877,0.04504 -3.710327,0.07628 -0.997966,0.609731 -0.179467,1.282761 0.588131,1.691911 0.738644,0.44663 1.699857,1.057627 2.577794,0.668502 z m -7.294197,-0.0064 c 0.945415,-0.347007 1.877073,-0.895991 2.532915,-1.655775 -0.25133,-0.462827 -0.658764,-0.833983 -1.209482,-0.698234 -1.080558,0 -2.161117,0 -3.241675,0 -0.191914,0.853682 -0.110846,2.213233 0.941126,2.453011 0.327064,0.05125 0.664345,0.0021 0.977116,-0.099 z m 3.205362,-2.194718 c 0.102966,-0.481934 -1.004094,0.166586 0,0 z m 5.553352,-2.409615 c 1.085498,-0.409173 2.559817,-0.859442 2.806397,-2.163183 -0.319718,-1.283212 -1.769358,-1.72949 -2.866644,-2.145316 -1.235151,-0.3625 -0.420152,1.722503 -0.64808,2.411638 0.202342,0.531354 -0.480281,2.58607 0.708327,1.896861 z M 21.069145,21.23143 c 1.402936,-0.631126 0.375396,-2.95526 -1.038589,-2.378994 -1.346652,0.349842 -1.032371,2.521525 0.351653,2.487765 0.233302,0.01582 0.478068,0.01055 0.686936,-0.108771 z m 2.275228,-5.265098 c -0.03088,-0.805081 -0.05885,-1.610268 -0.08677,-2.415456 -0.471693,-0.02475 -2.031752,0.797032 -0.819808,0.814692 0.422285,0.514115 0.585376,2.247023 0.917036,2.172916 0.0034,-0.1908 -0.0035,-0.381551 -0.01046,-0.572152 z m 2.12572,-1.054872 c -0.05212,0.439461 0.04146,0.514355 0,0 z M 13.838162,14.342506 c 0.608634,0.322225 1.787351,-0.479872 1.032736,-0.834109 -2.087592,-0.0337 -4.175561,-0.0044 -6.2633169,-0.0025 -0.2562002,1.116703 0.8695148,0.868273 1.6679259,0.869552 1.187586,-2.93e-4 2.375378,-0.0051 3.562655,-0.03294 z m 5.212498,-0.04603 c -0.337281,-0.381651 -0.948197,-0.77896 -1.512952,-0.76979 -0.545772,-0.0056 -1.091545,-0.01117 -1.637317,-0.01675 -1.069123,1.136345 0.853981,0.78207 1.565357,0.824878 0.527999,-0.0083 1.058592,0.0081 1.584912,-0.03834 z m 2.014067,-0.187569 c 0.650018,-0.390518 0.710581,-0.701538 -0.145961,-0.576161 -0.574781,0.02647 -2.44803,-0.216393 -1.111177,0.53554 0.299019,0.339135 0.926555,0.288877 1.257138,0.04062 z m 2.07136,-3.082856 c 0.241776,-0.791932 -0.530284,-0.527899 -0.978155,-0.563434 -1.197166,0.0205 -2.399595,-0.03097 -3.592271,0.06939 -1.218148,1.211627 1.185956,0.615556 1.906205,0.769261 0.883628,0.0057 1.767275,0.0034 2.650913,0.0027 0.0044,-0.09263 0.0089,-0.185257 0.01331,-0.277886 z"
         id="path6" /><path
         style="fill:#939494"
         d="M 16.308057,27.413549 C 15.059363,27.089948 14.890428,25.600317 14.988584,24.515887 12.13959,24.478732 9.2865439,24.540427 6.4407961,24.418481 5.7591602,23.735299 5.7650402,22.446979 5.3661446,21.530405 4.7330031,19.272414 3.95537,17.051928 3.3814863,14.77998 c 0.2927662,-0.637094 1.3227089,-0.233899 1.9516851,-0.350305 0.7236664,0.215983 0.6725967,-0.402674 0.646041,-0.96166 0.056716,-0.940104 -0.3201087,-2.576352 1.1722763,-2.083808 2.6515845,-0.0048 5.3044413,0.02198 7.9549313,-0.06603 0.48971,-0.926787 0.877568,-1.918662 1.468152,-2.7839344 2.260413,-0.1840821 4.544355,-0.1041388 6.81429,-0.1663195 0.543674,0.1098519 1.370698,-0.1954914 1.78875,0.1132898 0.202312,1.5704231 -9.71e-4,3.1819481 0.193594,4.7527161 0.802681,0.979756 0.489333,2.366297 0.356309,3.518959 -0.117683,1.221221 2.003085,0.878766 2.675899,1.76394 0.926581,0.539063 1.47277,1.855211 0.564606,2.680553 -0.819997,0.954402 -2.09478,1.227042 -3.203292,1.682187 -0.149273,1.170832 0.511724,2.548865 -0.14151,3.708894 -0.6189,1.219189 -2.238804,0.895607 -3.200241,0.317953 -0.968066,-0.24611 -1.770532,-2.051192 -2.677179,-0.86535 -0.966819,0.774424 -2.144077,1.524459 -3.437741,1.372489 z m 1.206669,-0.488577 c 0.801997,-0.441126 2.675775,-1.009308 2.35687,-2.037799 -0.246606,-0.442323 -0.67765,-0.449478 -1.126108,-0.404731 -1.124716,0.01012 -2.250116,-0.0016 -3.374143,0.04063 -0.199685,1.042119 0.112554,2.68769 1.489379,2.55242 0.223428,-0.02075 0.443504,-0.07329 0.654002,-0.15052 z m 7.096785,0.102852 c 1.052831,-0.233061 1.251602,-2.506544 0.72107,-2.702615 -0.34491,0.299539 -0.871417,0.08081 -1.2968,0.150687 -0.84864,0.0041 -1.697298,0.0064 -2.545913,0.01429 -1.495743,0.733008 0.458704,1.64723 1.12448,2.115323 0.634915,0.255241 1.287795,0.668704 1.997163,0.422312 z m -3.917125,-2.31424 c 0.43413,-0.475929 -1.314338,-0.166143 -0.245453,0.139343 l 0.107886,-0.04093 z m 5.558512,-2.381694 c 1.050832,-0.416596 2.44823,-0.833415 2.787646,-2.051421 0.07004,-1.213748 -1.274848,-1.792392 -2.21256,-2.191378 -0.725954,-0.495934 -1.770675,-0.52161 -1.434503,0.63402 0.02126,1.22203 0.0061,2.446833 0.09291,3.666273 0.199469,0.195105 0.538965,-0.01364 0.766504,-0.05749 z M 21.06084,21.31165 c 1.165141,-0.479708 0.861623,-2.396353 -0.367418,-2.570991 -1.100813,-0.250484 -2.10024,1.129097 -1.388334,2.055954 0.366979,0.541831 1.153854,0.805558 1.755752,0.515037 z m 2.264178,-6.10522 c -0.0021,-0.798437 0.161237,-2.392786 -1.029914,-1.39867 -0.662263,0.298657 -0.571481,0.559495 0.149002,0.570638 0.356801,0.631977 0.595267,2.1855 0.915482,2.32467 -0.0036,-0.499014 -0.01938,-0.997874 -0.03457,-1.496638 z m 2.241368,0.360569 c 0.190126,-0.45706 -0.287405,-2.549103 -0.178157,-1.072701 -0.02692,0.394354 0.0055,2.494147 0.178146,1.072701 z M 13.974509,14.342506 c 0.33511,-0.09002 0.909078,0.139926 1.093313,-0.152193 0.638206,-1.147335 -1.120189,-0.593113 -1.782545,-0.731824 -1.548834,-0.0044 -3.099472,-0.03842 -4.6471883,0.01806 -0.1291604,0.534179 -0.075459,1.117653 0.5933528,0.904003 1.5810645,-0.0049 3.1622875,-0.0044 4.7430675,-0.03805 z m 5.274621,-0.03376 c -0.408091,-0.34323 -0.907063,-0.828057 -1.48336,-0.808022 -0.698214,0.05371 -1.500189,-0.201616 -2.108302,0.136922 -0.596176,0.702249 0.009,0.784114 0.598746,0.699625 0.997584,-0.0047 1.996215,0.01515 2.992916,-0.02853 z m 1.966447,-0.181059 c 0.518482,-0.328527 0.889083,-0.73121 -0.01626,-0.592365 -0.591748,0.0703 -1.845293,-0.165278 -2.079036,0.124926 0.500079,0.506137 1.349584,0.943604 1.999904,0.549212 l 0.04969,-0.0426 z m 1.957244,-2.917963 c 0.203612,-1.3659833 -1.716091,-0.523285 -2.536688,-0.744722 -0.830042,0.02758 -2.555876,-0.246125 -2.452821,0.795954 1.652709,0.05359 3.306863,0.0413 4.96023,0.06542 l 0.01593,-0.06348 z"
         id="path5" /><path
         style="fill:#7c8285"
         d="M 6.348465,24.418402 C 5.8159656,23.384793 5.6413381,22.166906 5.2450038,21.06347 4.6232131,18.970692 3.9761723,16.878676 3.376553,14.782809 c 0.4414598,-0.857314 2.298929,0.245219 2.6007962,-0.628973 0.3037144,-0.799583 -0.5342893,-2.712753 0.6217387,-2.714177 2.819346,-0.05635 5.6401411,-0.01615 8.4590931,-0.08542 0.579944,-0.898751 0.917757,-1.9427365 1.537175,-2.8135502 1.885373,-0.1945202 3.802206,-0.086902 5.699135,-0.15766 0.923861,-0.012368 1.847722,-0.024707 2.771583,-0.037062 0.296424,0.9639821 0.09547,2.0445597 0.179053,3.0524837 -0.07893,0.663721 0.364052,2.030042 -0.717288,1.400043 -1.256884,-0.235954 -2.205152,0.911021 -3.434809,0.69147 -0.791299,-0.0338 -1.620044,0.05033 -2.393353,-0.04334 -0.946301,-0.614367 -2.458266,-1.088015 -3.315593,-0.09263 -0.358174,0.18957 -0.853734,0.03564 -1.266827,0.0879 -1.851527,0.0063 -3.703054,0.01267 -5.5545814,0.01901 -0.2477935,1.109811 0.8021079,1.052843 1.6530644,0.968856 1.576093,-0.005 3.152156,-0.01667 4.728233,-0.02514 0.03351,0.911487 0.03731,1.836419 0.294984,2.719073 -0.804377,0.69105 -2.152514,0.729155 -2.96858,1.544284 -0.937288,0.576715 -1.089831,2.060626 -0.148008,2.709422 0.85709,0.740032 1.929451,1.156496 3.000842,1.472797 0.01313,0.452524 0.189369,1.811972 -0.616647,1.597852 -2.719334,-0.0076 -5.4391102,0.01115 -8.158099,-0.02964 z M 23.180676,11.056741 c 0.261225,-0.828111 -0.478632,-0.633497 -0.976804,-0.640055 -1.205887,0.0096 -2.412266,7.21e-4 -3.617646,0.03874 -0.486434,0.435061 -0.715577,1.090761 0.198582,0.873562 1.460889,0.01837 2.921926,0.02277 4.38292,0.01987 0.0043,-0.09737 0.0086,-0.194741 0.01295,-0.292112 z m -7.779757,13.358034 c -0.09655,-0.981161 0.438655,-1.712403 1.442487,-1.214325 0.982726,0.02499 2.113687,0.22656 2.475575,1.20802 -1.303569,0.05363 -2.614591,0.05753 -3.918062,0.0063 z m 4.248838,-0.286673 c -1.057632,-1.058453 1.212349,-0.567724 1.786293,-0.651585 0.421864,0.210224 -0.409913,1.09242 -0.844519,0.97197 -0.396233,0.0145 -0.701609,0.06303 -0.941774,-0.320385 z m 1.942523,0.271246 c 0.461095,-1.144967 1.662302,-1.128272 2.711509,-1.24135 0.908616,-0.668259 1.552963,0.88117 0.805171,1.290481 -1.171389,-0.01605 -2.349842,0.04171 -3.51668,-0.04913 z m -2.669322,-1.336609 c -0.868572,-0.651621 -1.327051,-1.733495 -1.906915,-2.63423 -0.169495,-1.116592 0.973917,-2.094844 1.534943,-3.023165 0.845741,-0.627788 2.147148,-0.17126 3.177516,-0.28802 1.093565,0.24757 1.420834,1.644336 2.05871,2.455287 0.500234,1.081087 -0.785569,2.027914 -1.21867,2.949814 -0.599703,0.972305 -1.926803,0.409583 -2.871473,0.561543 -0.258031,-0.0045 -0.516638,-6.31e-4 -0.774111,-0.02123 z m 2.185747,-1.73967 c 1.185041,-0.516662 0.806948,-2.506912 -0.457702,-2.599913 -1.362025,-0.311071 -2.224171,1.704613 -1.021119,2.453256 0.422888,0.301789 1.007458,0.386218 1.478821,0.146657 z m -3.783013,1.578072 c -0.711632,-0.08071 -1.985094,-0.142303 -1.243645,-1.159503 0.119627,-0.65968 0.789506,-1.455655 1.06043,-0.352463 0.150737,0.507448 1.703725,1.849929 0.183215,1.511966 z m 5.620754,-0.03428 c 0.279565,-0.645924 0.787378,-1.807334 1.434499,-2.053009 0.430788,0.764655 1.150521,2.141292 -0.337345,1.998052 -0.333867,-0.0075 -0.828265,0.294025 -1.097154,0.05496 z m -8.024975,-0.464168 c -1.139807,-0.405739 -2.527417,-0.816529 -3.033861,-2.031582 -0.202991,-1.189136 1.174116,-1.860677 2.092398,-2.249303 0.789716,-0.389906 1.783511,-0.658664 1.821069,0.596981 0.04242,0.591994 0.874908,1.157316 0.443054,1.724299 -0.528346,0.542262 -0.348011,2.159277 -1.32266,1.9596 z M 25.327358,21.97685 c -0.370463,-0.978278 -1.177799,-1.967132 -0.345809,-2.947232 0.164066,-0.578145 0.50259,-0.985809 0.398019,-0.07042 0.002,1.04161 0.09251,2.096485 -0.01646,3.129999 l -0.01985,-0.06237 z M 16.51017,19.31423 c -0.620083,-0.860393 -1.037652,-2.204724 0.545891,-2.008368 0.646682,-0.235713 1.289721,0.119017 0.585364,0.715908 -0.383199,0.267391 -0.604867,1.540701 -1.131255,1.29246 z m 7.504391,-0.09994 c -0.357911,-0.663308 -1.915515,-2.375674 -0.162583,-1.903271 0.847047,-0.02707 1.561729,0.4101 0.882424,1.270352 -0.131247,0.224194 -0.35039,1.248926 -0.719841,0.632919 z m -8.269058,-2.112244 c -0.42024,-0.816158 -0.372166,-1.793544 -0.352178,-2.697372 1.35131,-0.0078 2.70262,-0.01559 4.05393,-0.02338 1.00893,0.419063 0.313802,1.126051 -0.269862,1.626745 -0.592877,1.113938 -1.934875,0.811983 -2.966234,1.100364 -0.147512,0.0041 -0.330545,0.09275 -0.465656,-0.0064 z m 8.950139,0.01407 c -0.569312,-0.134388 -1.51002,0.0093 -1.29363,-0.831083 -0.04263,-0.921507 -0.06232,-1.84384 -0.08865,-2.765904 -0.699607,-0.313401 1.442932,-0.561369 1.675961,-0.125265 0.62851,0.910176 0.277425,2.221552 0.333084,3.295418 0.03159,0.431087 -0.251625,0.56888 -0.626761,0.426834 z m -2.022243,-0.306312 c -0.631154,-0.368109 -1.757916,-1.292646 -1.688372,-2.0188 0.34285,-0.479758 0.925339,-0.576143 1.453275,-0.375097 0.212254,0.752049 0.829539,1.776682 0.674729,2.431345 -0.147643,0.0037 -0.293841,-0.0183 -0.439632,-0.03745 z m -3.322464,-0.125233 c 0.181559,-0.657282 1.190202,-1.974453 1.757038,-0.762083 1.546524,1.241739 -1.203277,0.641669 -1.757038,0.762083 z m 0.862779,-2.163869 c -0.502414,-0.368218 1.215254,-0.124896 0.19692,0.13114 l -0.19692,-0.131136 z m -4.112602,-1.087547 c -0.28708,-0.530238 2.007159,-0.184182 1.629029,0.01319 -0.539403,0.04255 -1.091116,0.04767 -1.629029,-0.01319 z"
         id="path4" /><path
         style="fill:#777d81"
         d="M 6.2833563,24.320428 C 5.550106,22.267206 5.0157667,20.133994 4.3528052,18.051768 4.0337136,16.952805 3.6793086,15.852464 3.3774377,14.75578 3.8977168,13.959396 5.6567281,15.009216 5.978215,14.156171 6.2616588,13.34404 5.4942979,11.571051 6.5419298,11.424485 c 2.8603268,-0.04274 5.7221822,0.02017 8.5817652,-0.07564 0.513022,-0.939656 0.890163,-1.9774758 1.530114,-2.82904 2.792794,-0.1467422 5.595416,-0.1145728 8.392613,-0.1746926 0.336888,0.883636 0.102225,1.9294226 0.195875,2.8752576 -0.03536,0.81314 0.344603,2.125324 -0.877444,1.526659 -0.898075,-0.104501 -1.682794,0.4163 -2.461819,0.739158 -1.032087,-0.03074 -2.088931,0.02694 -3.105633,-0.05875 -0.923724,-0.555834 -2.26507,-1.077582 -3.215189,-0.319423 -0.251973,0.432092 -0.711609,0.328945 -1.134459,0.33048 -1.961726,0.01969 -3.929096,-0.05245 -5.886266,0.05617 -0.047876,0.544206 -0.051989,1.121143 0.6351801,0.910009 1.9007799,0 3.8015609,0 5.7023409,0 0.01052,0.939137 0.09753,1.884699 0.269911,2.796307 -1.040245,0.536134 -2.311646,0.747622 -3.155376,1.64623 -1.107713,0.863165 -0.485324,2.484044 0.633999,3.005392 0.627448,0.823711 2.844318,0.44943 2.420559,1.754036 0.08469,1.410372 -1.702149,0.627208 -2.582399,0.839907 -2.031531,0.0035 -4.0630655,0.0013 -6.0945979,0.0019 -0.035916,-0.04268 -0.071832,-0.08537 -0.1077478,-0.128049 z M 23.167593,10.912805 c -0.112464,-1.002095 -1.82204,-0.267621 -2.62095,-0.483564 -0.669202,0.0069 -1.338404,0.01388 -2.007606,0.02082 -0.411267,0.497005 -0.699602,1.069835 0.283843,0.858828 1.447857,0.04302 2.896485,0.04319 4.344844,0.03995 -4.4e-5,-0.145346 -8.7e-5,-0.290691 -1.31e-4,-0.436037 z m -7.693311,13.500058 c -0.126528,-0.922204 0.370497,-1.697695 1.366229,-1.159348 0.92288,0.05627 2.093732,0.12401 2.365982,1.155903 -1.242011,0.04871 -2.490283,0.05154 -3.732211,0.0034 z m 4.204175,-0.325047 c -0.975168,-0.955241 1.282701,-0.485894 1.82286,-0.55577 0.01519,0.367924 -0.539284,1.037565 -1.040034,0.916436 -0.393208,0.07302 -0.540523,-0.06977 -0.782826,-0.360666 z m 1.997314,0.325014 c 0.553875,-1.407425 2.293143,-1.046775 3.482212,-1.290739 0.392558,0.554053 0.286754,1.57768 -0.565947,1.326175 -0.971994,-0.0066 -1.945617,0.0188 -2.916265,-0.03544 z m -2.619938,-1.387387 c -0.938275,-0.437339 -1.30014,-1.648227 -1.901645,-2.459049 -0.513957,-1.140403 0.954762,-2.144638 1.421715,-3.123479 0.918083,-0.650516 2.279319,-0.19652 3.367152,-0.254703 0.887306,0.611975 1.371256,1.750503 1.926298,2.678638 -0.09935,1.136683 -1.057022,2.330017 -1.875261,3.118525 -0.971992,0.09525 -1.962459,0.06813 -2.938259,0.04007 z m 2.054753,-1.670595 c 1.276581,-0.584967 0.746289,-2.746644 -0.664748,-2.67868 -1.121612,-0.05829 -1.895411,1.438191 -1.084746,2.268286 0.400231,0.506408 1.166857,0.673259 1.749494,0.410394 z m -4.25675,1.414919 c -1.493149,0.206925 -0.729941,-1.314219 -0.204921,-1.941381 0.292201,0.54885 1.460925,1.552698 1.11172,2.088749 -0.303412,-0.04142 -0.604844,-0.09665 -0.906799,-0.147368 z m 6.165886,0.09716 c 0.186473,-0.648514 0.785127,-1.641126 1.298006,-2.015109 0.472173,0.727553 1.138561,2.069662 -0.310732,1.917147 -0.32258,0.01173 -0.672148,0.191371 -0.987274,0.09796 z m -8.098251,-0.509725 c -1.128793,-0.404946 -2.506883,-0.831562 -2.998621,-2.038897 -0.101939,-1.345943 1.493387,-1.888804 2.507121,-2.298471 1.307313,-0.862436 1.29109,1.15581 1.823003,1.876732 -0.157111,0.7706 -0.467726,2.109421 -1.155657,2.500897 l -0.175823,-0.04026 z M 25.288639,21.75985 c -0.705586,-1.087952 -0.786007,-2.240793 0.0092,-3.315193 0.168918,0.831187 0.07599,1.90642 0.11397,2.832227 -0.01619,0.04226 0.04841,0.952365 -0.123204,0.482966 z m -8.716817,-2.44562 c -0.483885,-0.733428 -1.131291,-2.117475 0.367959,-1.924784 0.701029,-0.278136 1.301718,0.02075 0.624246,0.65683 -0.348639,0.333954 -0.54745,1.243464 -0.992205,1.267954 z m 7.47249,-0.130324 c -0.209657,-0.631895 -1.929698,-2.218947 -0.248543,-1.818933 0.896688,-0.06807 1.530565,0.442607 0.869186,1.267941 -0.139253,0.200749 -0.282281,1.09988 -0.620643,0.550992 z m 0.494044,-2.152059 c -0.550819,-0.11606 -1.340015,-0.0106 -1.132953,-0.790455 0.205877,-0.908719 -0.62457,-2.547196 0.289995,-2.97508 1.341827,-0.463108 1.876488,0.949147 1.628066,2.037134 -0.115266,0.56123 0.351634,2.227934 -0.785108,1.728401 z m -8.822052,-0.04947 c -0.0872,-0.74177 -0.944423,-2.721936 0.355484,-2.587893 1.113155,0.01381 2.238472,-0.08155 3.343417,0.05602 1.32021,0.597194 -0.612218,1.814288 -1.158925,2.300859 -0.830445,0.0041 -1.761446,0.434202 -2.539976,0.231012 z m 6.958345,-0.219427 c -0.70803,-0.336903 -1.421432,-1.240696 -1.709835,-1.862184 0.711565,-1.09095 1.915285,-0.421499 1.904179,0.73095 0.03446,0.441625 0.805343,1.465517 -0.194344,1.131234 z m -3.263243,-0.16102 c 0.274655,-0.919099 1.332365,-1.54667 1.869391,-0.42763 0.678664,0.616152 -0.303821,0.468475 -0.692121,0.480026 -0.388926,-0.01435 -0.801277,0.04922 -1.17727,-0.0524 z m 0.889853,-2.076663 c -0.271913,-0.445576 0.922046,0.06433 -2e-6,3e-6 z m -4.166443,-1.107843 c -0.180808,-0.50525 2.566605,0.05028 0.877443,0.05851 -0.292014,-0.0062 -0.59367,0.02916 -0.877443,-0.05851 z"
         id="path3" /><path
         style="fill:#59636a"
         d="M 6.3718789,24.400323 C 5.835868,23.37885 5.6609376,22.161497 5.2738139,21.062558 4.6393624,18.96253 4.0072068,16.85701 3.3788638,14.758065 c 0.1712145,-0.506824 0.7975774,-0.204886 1.1957635,-0.285981 0.4633896,0 0.9267791,0 1.3901687,0 0.09836,-0.98413 -0.031779,-1.999921 0.137769,-2.963633 0.3087624,-0.21802 0.8066141,-0.03985 1.1916648,-0.09802 2.6098447,-0.0078 5.2205682,0.02131 7.8294642,-0.06155 0.480086,-0.912456 0.884483,-1.8693803 1.434513,-2.7415241 1.137192,-0.294125 2.386743,-0.1089101 3.567842,-0.1932731 1.625384,-0.023074 3.250776,-0.045524 4.876163,-0.068322 0.437839,0.7949723 0.113568,1.8393274 0.23833,2.7270494 -0.100739,0.69863 0.415638,2.230412 -0.720642,1.629596 -0.925116,-0.100625 -1.799519,0.27508 -2.565521,0.758593 -1.019117,-0.02312 -2.063273,0.04518 -3.06721,-0.03336 -0.884763,-0.561433 -2.05022,-1.01123 -3.062574,-0.558455 -0.382247,0.361559 -0.740829,0.678006 -1.297203,0.549251 -1.998101,0.0073 -3.996202,0.01452 -5.9943025,0.02179 -0.199774,1.102509 0.7352993,1.081289 1.6389135,0.983302 1.555684,0.0152 3.123297,-0.06631 4.671661,0.01325 -0.243713,0.912401 0.57814,2.241395 0.0085,2.901794 -1.269475,0.421844 -2.770649,0.909026 -3.388086,2.203744 -0.49391,1.30856 0.868254,2.287143 1.891699,2.770061 0.744401,0.420896 2.297119,0.384316 1.599025,1.616876 -0.20851,0.983866 -1.855921,0.283748 -2.651728,0.503233 -1.97652,-0.0093 -3.9564345,0.04202 -5.9311801,-0.03217 z M 23.190195,11.01742 c 0.246364,-0.776462 -0.42293,-0.613254 -0.902533,-0.606577 -1.260535,0.0358 -2.53749,-0.05493 -3.78496,0.09757 -0.69982,0.632962 -0.371015,0.988278 0.484832,0.823146 1.400874,0.01443 2.801792,0.0248 4.202664,0.03975 -10e-7,-0.117963 -2e-6,-0.235925 -3e-6,-0.353888 z m -7.627599,13.386028 c -0.28422,-0.949909 0.446412,-1.58242 1.378645,-1.086072 0.780164,-0.04357 2.290751,0.363275 2.065139,1.092689 -1.146934,0.02735 -2.297806,0.04818 -3.443784,-0.0066 z m 4.594235,0.01569 c -0.549476,-0.266745 -1.084743,-1.094234 -0.0457,-0.854155 0.621096,-0.04363 2.019698,-0.131934 0.922853,0.636184 -0.19558,0.323987 -0.553324,0.221541 -0.87715,0.217971 z m 1.651498,-0.0016 c 0.163091,-1.15361 1.837484,-0.994734 2.843948,-1.218148 0.973353,-0.308795 0.921156,1.791845 -0.217069,1.227194 -0.875474,0.0032 -1.751731,0.01802 -2.626879,-0.009 z M 19.13623,22.977156 c -0.825546,-0.08363 -1.035869,-1.282735 -1.561824,-1.81522 -1.024748,-0.894034 -0.185906,-1.911237 0.386879,-2.769645 0.516569,-1.551924 2.179803,-1.22612 3.460725,-1.195403 1.266435,-0.04889 1.577821,1.611911 2.26652,2.412594 0.488824,1.025276 -0.774506,1.927902 -1.188504,2.812111 -0.640179,1.022339 -2.087674,0.405594 -3.08622,0.566046 l -0.148757,-0.0048 -0.128819,-0.0057 z m 1.924472,-1.58191 c 1.288755,-0.494188 0.936006,-2.605032 -0.406438,-2.716097 -1.131113,-0.240763 -2.093078,1.147785 -1.440953,2.111733 0.372004,0.602482 1.18942,0.903502 1.847391,0.604364 z m -3.982173,1.36949 c -0.653673,-0.02023 -1.523827,-0.2105 -0.886031,-1.005716 0.146182,-0.626283 0.596135,-1.205028 0.886335,-0.2889 0.205816,0.540138 1.565175,1.754687 -3.04e-4,1.294616 z m 5.964966,0.03909 c 0.346352,-0.586017 0.72151,-1.572289 1.291748,-1.849171 0.437975,0.734208 1.023214,1.973081 -0.400187,1.778389 -0.293852,0.03527 -0.594671,0.133869 -0.891561,0.07078 z M 14.96641,22.316148 c -1.101381,-0.414828 -2.530462,-0.794137 -2.986086,-2.011239 -0.100421,-1.147863 1.195853,-1.709309 2.076542,-2.096106 0.688982,-0.384016 1.581402,-0.564522 1.626867,0.498938 0.08302,0.609225 0.860923,1.166052 0.436311,1.779193 -0.469095,0.446438 -0.367659,1.986091 -1.153634,1.829214 z M 25.291436,21.61734 c -0.765955,-0.90457 -0.609125,-2.497206 0.05744,-2.95745 0.0278,1.036359 0.115839,2.080769 0.01556,3.114735 -0.02433,-0.05243 -0.04867,-0.104857 -0.073,-0.157285 z m -1.15512,-2.411864 c -0.334155,-0.649427 -1.894819,-2.308432 -0.159375,-1.760158 1.523278,-0.10848 0.818683,1.220211 0.159375,1.760158 z m -7.614202,-0.02606 c -0.391416,-0.726847 -0.989075,-1.931548 0.399125,-1.718074 0.657318,-0.258192 1.258347,-0.08828 0.599093,0.563907 -0.296474,0.223141 -0.608822,1.42702 -0.998218,1.154167 z m -0.785227,-2.26181 c -0.132476,-0.83276 -0.912478,-2.875054 0.609198,-2.507449 0.987165,-0.0093 1.974388,-0.0041 2.961582,-0.0055 1.041197,0.4433 0.230039,1.150702 -0.333902,1.692536 -0.684484,0.951196 -2.25848,0.805802 -3.236879,0.820394 z m 8.936285,0.07151 c -0.93154,0.04762 -1.504241,-0.328188 -1.293002,-1.31612 -0.03074,-0.754946 -0.04555,-1.510404 -0.06655,-2.265655 0.85396,-0.377134 2.128796,-0.06882 2.026009,1.078879 -0.15795,0.63661 0.427176,2.732301 -0.666461,2.502896 z m -1.954834,-0.26691 c -0.639247,-0.323786 -1.597587,-1.249134 -1.687463,-1.85049 0.718809,-0.997347 1.792018,-0.434861 1.78681,0.66526 -0.0032,0.388608 0.877019,1.520092 -0.09935,1.18523 z m -3.234633,-0.129557 c 0.25914,-0.781743 1.188841,-1.552475 1.70107,-0.450578 1.05939,0.806699 -1.471568,0.338472 -1.70107,0.450578 z m 0.815432,-2.105584 c 0.03159,-0.308025 0.586207,0.102743 0,3e-6 z m -3.995801,-1.035819 c -0.251971,-0.481826 2.161254,0.06155 0.549163,0.01468 -0.182967,0.0031 -0.367153,0.0084 -0.549163,-0.01468 z"
         id="path2" /><path
         style="fill:#35444e"
         d="M 6.3017938,24.28019 C 5.279048,21.137945 4.3923539,17.94305 3.4223277,14.783661 3.9417523,14.018241 5.7089183,15.050583 6.022292,14.19878 6.3121524,13.309695 5.427075,11.227929 6.9032329,11.465826 c 2.7507343,-0.01719 5.5021181,0.01393 8.2522181,-0.06366 0.507784,-0.943654 0.886677,-1.9767959 1.511513,-2.8429167 2.774749,-0.1335295 5.556713,-0.1124548 8.334766,-0.1688979 0.346286,0.9438835 0.09919,2.0553826 0.198214,3.0616076 0.02956,0.784781 0.201764,1.629788 -0.823119,1.15594 -0.964094,-0.133672 -1.802096,0.434778 -2.622673,0.808119 -0.909888,-0.02383 -1.846257,0.04645 -2.740175,-0.03413 -1.040381,-0.680834 -2.615746,-1.271869 -3.656907,-0.287773 -0.87982,0.595279 -2.163529,0.173238 -3.212114,0.299507 -1.208743,0.0217 -2.4244432,-0.04414 -3.62885,0.0561 0.018217,0.478963 -0.1505364,1.23647 0.5702029,0.999886 1.8890451,0 3.7780911,0 5.6671361,0 -0.0098,0.879775 0.05259,1.758726 0.2764,2.612529 -0.898363,0.518833 -2.089422,0.723812 -2.915498,1.469531 -1.061885,0.712705 -1.154256,2.338195 -0.04734,3.057075 0.819668,0.743004 1.890246,1.103324 2.921912,1.44416 -0.11621,0.408276 0.0491,1.361529 -0.493407,1.34888 -2.701977,0.0074 -5.4039531,0.01481 -8.1059297,0.02222 -0.029265,-0.04127 -0.058529,-0.08254 -0.087794,-0.123811 z M 23.210638,10.910912 c -0.06207,-1.0749846 -1.839177,-0.307311 -2.653307,-0.534992 -0.680614,0.0048 -1.361228,0.0097 -2.041842,0.01448 -0.343516,0.45628 -0.865027,1.210539 0.158113,0.983523 1.512942,0.0181 3.02602,0.02283 4.53906,0.01985 -6.75e-4,-0.160954 -0.0013,-0.321907 -0.002,-0.482861 z M 15.616741,24.35653 c -0.278486,-1.808684 1.605567,-0.678533 2.594462,-0.791971 0.664247,0.24578 1.143102,1.130047 0.01833,0.835494 -0.8704,-0.001 -1.744993,0.02648 -2.612791,-0.04352 z m 4.258093,-0.283484 c -1.081827,-0.695295 2.480637,-0.664232 1.037378,0.107752 -0.283824,0.383292 -0.798325,0.239673 -1.037378,-0.107752 z m 1.997601,0.300977 c 0.475494,-1.201935 1.873536,-0.72912 2.85089,-1.097353 0.719222,-0.107896 0.814302,1.621821 -0.23445,1.122761 -0.871749,6.84e-4 -1.745718,0.02027 -2.61644,-0.02541 z m -2.589192,-1.498239 c -1.071424,-0.200034 -1.361083,-1.606956 -1.985885,-2.381326 -0.482041,-0.448036 0.13337,-0.910022 0.312216,-1.350036 0.578094,-0.875706 1.073509,-2.20166 2.378071,-1.878358 1.148223,-0.08997 2.399108,-0.09685 2.857273,1.165937 0.658222,0.882458 1.359958,1.876564 0.334913,2.790512 -0.523238,1.101453 -1.369287,2.002008 -2.695908,1.685851 -0.400387,0.0014 -0.801165,-0.0044 -1.20068,-0.03258 z m 1.794832,-1.418813 c 1.335003,-0.505028 0.998795,-2.713511 -0.40267,-2.823914 -1.308591,-0.314349 -2.297857,1.434128 -1.366845,2.393496 0.432863,0.46913 1.168948,0.703551 1.769515,0.430418 z m -4.066954,1.186569 c -0.988942,0.108971 -1.009718,-0.577423 -0.540131,-1.269595 0.313657,-0.905997 0.852577,0.929741 1.182944,1.2188 0.166257,0.259831 -0.531862,0.02508 -0.642813,0.0508 z m 6.203959,0.05624 c 0.365036,-0.439573 1.030032,-2.482755 1.343131,-1.034942 0.800959,1.21404 -0.645191,0.876284 -1.343131,1.034942 z m -8.405956,-0.537936 c -1.001186,-0.395932 -2.251746,-0.759931 -2.724227,-1.8254 -0.16272,-1.101754 1.13931,-1.617279 1.952278,-2.002697 0.759491,-0.458512 1.515138,-0.50496 1.599566,0.537012 0.827473,0.9691 0.233794,2.005148 -0.200756,2.97381 -0.08052,0.354091 -0.304294,0.48612 -0.626861,0.317275 z m 10.228792,-1.362953 c -0.553161,-0.472935 0.02003,-1.791098 0.293081,-1.739692 -0.04117,0.583901 0.206126,2.235447 -0.08227,2.179637 -0.07461,-0.144532 -0.143858,-0.291745 -0.210808,-0.439945 z m -8.441187,-1.708798 c -0.283445,-0.594101 -0.96408,-1.711519 0.273933,-1.501515 0.800637,-0.342039 1.000639,0.04383 0.385868,0.63589 -0.245758,0.212016 -0.342251,0.854859 -0.659801,0.865625 z m 7.573739,-0.02302 c -0.30986,-0.585236 -1.642728,-2.025548 -0.156708,-1.492603 1.399286,-0.205694 0.496618,1.228253 0.156708,1.492603 z m 0.592582,-2.171896 c -0.858576,-0.01973 -1.653736,-0.129967 -1.33534,-1.210143 -0.02026,-0.726218 -0.02483,-1.452733 -0.03529,-2.179129 0.957524,-0.529731 2.134274,0.20223 1.912445,1.332017 -0.09799,0.527335 0.234806,2.122639 -0.541811,2.057255 z m -8.934333,-0.0536 C 15.710464,16.13757 14.9452,14.22824 16.232912,14.43437 c 0.993428,-0.0042 1.986811,0.0093 2.980206,0.01524 0.944593,0.424558 0.300696,1.030716 -0.264357,1.534737 -0.566715,0.977809 -1.818143,0.642262 -2.753894,0.889446 -0.115847,-0.0068 -0.269497,0.0657 -0.36615,-0.03222 z m 7.001968,-0.198052 c -0.685519,-0.266233 -1.480952,-1.173235 -1.666221,-1.757679 0.665103,-0.913537 1.612677,-0.396583 1.615933,0.633271 -0.02523,0.274962 0.71529,1.311116 0.05029,1.124408 z m -3.194797,-0.151761 c 0.323233,-0.898066 1.167655,-1.083854 1.589669,-0.125897 0.03837,0.291868 -1.284049,0.07152 -1.589669,0.125897 z m -3.20897,-3.098208 c 0.576732,-0.170904 0.829551,0.108091 0.09727,0.03234 z"
         id="path1" /></g></g></svg>
