<svg version="1.1" viewBox="0 0 32 32" xmlns="http://www.w3.org/2000/svg"><title>folder_type_vs_opened</title><path d="M27.4,5.5H18.2L16.1,9.7H4.3V26.5H29.5V5.5Zm0,18.7H6.6V11.8H27.4Zm0-14.5H19.2l1-2.1h7.1V9.7Z" fill="#c67bdb"/><polygon points="25.7 13.7 0.5 13.7 4.3 26.5 29.5 26.5" fill="#c67bdb"/><g transform="matrix(.85667 0 0 .85667 13.368 19.396)"><path d="m0.41 9.37-4.01-3.01a1 1 0 0 1-0.4-0.8v-9.04a1 1 0 0 1 0.4-0.8l4.01-3.01a0.9 0.9 0 0 0-0.27 0.8v15.06a0.91 0.91 0 0 0 0.27 0.8z" fill="#5e438f"/><path d="m19.64-6.82a1 1 0 0 0-1.25 0.11l-0.07 0.07-16.54 15.86-0.07 0.07a1 1 0 0 1-1.3 0.08l-4.01-3.01a1 1 0 0 0 1.36-0.15c4.85-5.61 9.68-11.24 14.52-16.86 0.2-0.23 0.47-0.35 0.77-0.35 0.2 0 0.39 0.05 0.55 0.16z" fill="#7252aa"/><path d="m19.65 8.9-6.03 4.02c-0.42 0.28-0.99 0.2-1.32-0.18l-14.53-16.87a1 1 0 0 0-1.37-0.15l4.02-3.01a1 1 0 0 1 0.6-0.2c0.26 0 0.51 0.1 0.7 0.28l0.06 0.07 16.54 15.86 0.07 0.07a1 1 0 0 0 1.25 0.11z" fill="#ae7fe2"/><path d="m20.09-5.99v14.05a1 1 0 0 1-0.45 0.84l-6.02 4.02a1 1 0 0 0 0.44-0.84v-22.08a1.02 1.02 0 0 0-0.46-0.84l6.04 4.02a1.01 1.01 0 0 1 0.45 0.83z" fill="#d59dff"/></g></svg>
