<svg xmlns="http://www.w3.org/2000/svg" xml:space="preserve" width="32mm" height="32mm" viewBox="0 0 32 32"><path d="M13.414 25.158c-.23-.112-.322-.19-.442-.374-.2-.307-.222-.383-.254-.89l-.027-.432-3.174-.022-3.174-.023-.081-.105c-.045-.058-.182-.436-.305-.84s-.493-1.612-.823-2.685L3.89 15.75c-.713-2.31-.668-2.14-.604-2.257.114-.209.14-.213 1.416-.214l1.213-.002.03-.578c.016-.318.03-.96.03-1.427 0-.815.005-.853.105-.967l.105-.12 3.183.005c1.75.003 3.828-.009 4.616-.026l1.434-.032.695-1.365c.382-.751.725-1.396.763-1.434.057-.055.309-.073 1.403-.099 3.515-.081 7.176-.136 7.326-.108.305.055.295-.022.327 2.635.016 1.322.04 2.45.051 2.507.022.1.03.102.826.102.934 0 1.19.052 1.472.301.1.089.235.267.3.397l.119.236-.013 5.601-.012 5.602-.112.159c-.201.285-.349.418-.585.527l-.232.107h-7.021l-7.021.001zm14.295-.784.13-.11.024-5.278c.013-2.903.009-5.348-.009-5.433a.6.6 0 0 0-.152-.273c-.12-.117-.123-.117-.897-.117h-.778v.59l.405.022c.555.031.571.05.571.655 0 .627-.029.661-.564.661-.45 0-.45 0-.426.5l.014.294.483.026c.422.022.493.038.565.124.128.155.153.77.121 3.026a298 298 0 0 0-.03 3.301c0 1.198-.005 1.264-.093 1.35-.092.09-.155.09-6.343.09s-6.25 0-6.343-.09c-.051-.05-.093-.12-.093-.154 0-.087-.104-.118-.387-.118-.357.001-.373.022-.346.434.021.326.035.363.17.481l.146.128h13.701zm-3.817-9.354c-.083-.123-.103-.977-.028-1.17.024-.063.03-.242.012-.4l-.033-.287-.434-.013c-.239-.007-.426.003-.416.022l.098.218c.044.1.11.232.147.295.124.207.154.292.213.612.05.271.317 1.115.445 1.407.028.064.044-.008.054-.243.01-.243-.006-.363-.058-.441m-11.048-1.937c.137-.254.54-.614.727-.649.494-.09.022-.11-2.33-.1l-2.546.012.017.408c.009.225.026.424.037.443.012.019.92.034 2.019.034h1.997zm10.882-3.335c0-.218-.016-.417-.034-.442-.023-.03-.848-.04-2.368-.03l-2.334.015-.257.358c-.141.196-.257.378-.257.404 0 .03.543.05 1.569.059.862.006 2.044.017 2.625.023l1.057.01z" style="fill:#d2e5f9" transform="translate(.023 -.209)"/><path d="M13.466 25.115c-.458-.223-.653-.576-.7-1.264l-.029-.434-3.16-.023c-1.737-.012-3.182-.037-3.21-.054-.088-.056-.185-.342-.764-2.237l-.723-2.36c-.155-.498-.857-2.783-1.32-4.293-.265-.866-.273-1.007-.065-1.085.065-.024.648-.043 1.296-.043H5.97l.027-.397c.015-.219.039-.88.053-1.47.023-.98.033-1.08.114-1.152a.3.3 0 0 1 .206-.064c.221.026 7.202.004 8.148-.025l.944-.03.708-1.392c.537-1.054.736-1.404.822-1.444.08-.036 1.386-.069 4.407-.11l4.294-.057.086.103c.076.093.086.201.092.995.003.49.019 1.616.035 2.502l.028 1.61.906.023c.827.021.926.032 1.125.128.256.123.48.356.602.627.084.184.087.403.075 5.719-.012 5.187-.018 5.536-.095 5.674a1.4 1.4 0 0 1-.614.586l-.233.106H13.751zm14.142-.606a.64.64 0 0 0 .254-.216c.092-.148.093-.214.093-5.459 0-5.182-.002-5.312-.09-5.453-.172-.275-.231-.29-1.1-.276l-.784.012v.681l.4.023c.541.03.552.042.552.586 0 .591-.015.61-.542.639l-.41.022v.908l.503.023c.431.019.513.035.57.111s.065.633.054 3.773c-.011 3.55-.015 3.687-.1 3.779l-.089.095h-6.176c-3.94 0-6.207-.016-6.261-.044a.4.4 0 0 1-.135-.183l-.05-.14-.384.014-.386.013-.013.389c-.012.343-.001.404.09.516.21.262-.18.248 7.116.25 5.753.002 6.75-.007 6.888-.063m-3.602-8.99c0-.306-.022-.473-.074-.572-.06-.113-.068-.228-.044-.621.038-.61.031-1.153-.015-1.197-.019-.02-2.28-.03-5.024-.023-4.247.01-4.992.021-5.01.075-.02.055.616.06 4.485.037 4.997-.03 4.65-.05 4.754.274.03.093.103.241.16.329.06.087.118.264.133.392.02.189.45 1.577.527 1.706.07.118.108-.02.108-.399M12.89 13.134c.126-.23.382-.49.587-.597l.189-.1 5.1-.011c2.805-.007 5.1-.03 5.1-.05 0-.035-8.372-.097-13.07-.097h-2.18l.033.465c.018.256.042.48.053.5.011.018.94.033 2.065.033h2.044zm10.906-3.405c0-.242-.021-.458-.047-.479s-1.117-.03-2.426-.02l-2.38.018-.28.4c-.154.22-.28.422-.28.449 0 .048 1.607.076 4.274.073h1.139z" style="fill:#a2ccf8" transform="translate(.023 -.209)"/><path d="M13.513 25.11c-.473-.224-.656-.554-.7-1.262l-.029-.476-3.164-.023c-3.444-.025-3.273-.01-3.357-.287l-.141-.462-.696-2.268c-.33-1.073-.824-2.686-1.099-3.585-.274-.898-.535-1.745-.58-1.883-.268-.813-.386-1.285-.34-1.355.04-.064.21-.077 1.31-.097.973-.017 1.272-.036 1.3-.082.05-.079.099-1.098.1-2.091 0-.44.016-.823.035-.852.026-.04 1.175-.058 4.611-.07 3.182-.013 4.605-.034 4.67-.068.057-.03.364-.589.79-1.435.63-1.253.71-1.39.836-1.43.081-.027 1.897-.069 4.354-.101 3.344-.045 4.229-.045 4.284 0 .073.059.073.065.158 3.725l.033 1.429.952.023c.938.022.956.024 1.172.148a1.3 1.3 0 0 1 .52.564c.067.131.074.667.073 5.649 0 5.32-.004 5.51-.09 5.695-.123.264-.449.57-.68.638-.149.043-1.775.055-7.157.053l-6.965-.002zm14.193-.59c.311-.167.296.123.296-5.688 0-5.681.012-5.407-.253-5.647-.123-.11-.146-.113-.927-.127-.661-.012-.812-.003-.858.052-.037.043-.052.186-.043.4l.013.333.416.014c.229.007.443.035.476.062.072.058.085.883.016.99-.032.05-.162.075-.476.091l-.432.023-.013.447c-.009.29.006.47.04.51.04.047.177.064.51.064.352 0 .472.016.529.071.065.064.073.465.073 3.733 0 3.241-.008 3.674-.073 3.763l-.072.101h-6.174c-3.395 0-6.206-.012-6.245-.027s-.094-.096-.123-.181l-.053-.155h-.382c-.235 0-.403.021-.438.054-.083.082-.07.694.018.878a.57.57 0 0 0 .268.245c.193.094.199.094 6.977.082 6.303-.01 6.795-.017 6.93-.089m-3.636-8.623c.015-.057.028-.258.028-.448 0-.278-.017-.368-.092-.461-.08-.099-.093-.184-.093-.593 0-.3.02-.49.051-.51.063-.037.011-.693-.061-.779-.038-.045-1.094-.056-5.003-.056-5.016 0-5.218.007-5.158.158.012.03 1.572.046 4.553.046 3.674 0 4.549.01 4.608.06.04.032.106.152.146.266s.106.23.147.26c.045.033.1.2.14.436.055.307.432 1.543.516 1.689.044.075.191.029.218-.068m-11.251-2.62a.45.45 0 0 0 .145-.2c.044-.171.459-.507.699-.566.148-.037 1.65-.051 5.2-.051 4.273 0 5-.01 5.047-.065.044-.052.038-.074-.029-.109-.112-.058-15.163-.12-15.248-.063-.097.066-.024 1.087.08 1.114.04.01.955.022 2.032.025 1.886.005 1.961.002 2.074-.085m11-3.063c.041-.048.053-.205.04-.527-.023-.554-.065-.608-.434-.561-.128.016-1.191.039-2.364.05-2.453.023-2.118-.052-2.545.575-.187.275-.228.365-.184.408.04.04.506.061 1.692.078 3.52.052 3.733.05 3.796-.023" style="fill:#84baf2" transform="translate(.023 -.209)"/><path d="M13.604 25.102a1.18 1.18 0 0 1-.61-.558c-.077-.162-.11-.331-.128-.672-.014-.25-.045-.48-.07-.512-.037-.044-.732-.056-3.194-.056-2.938 0-3.151-.006-3.218-.08-.04-.043-.16-.375-.267-.737a69 69 0 0 0-.304-.998c-.06-.187-.321-1.035-.58-1.883l-.606-1.974c-.131-.42-.998-3.243-1.136-3.702-.085-.279-.088-.391-.015-.463.041-.04.394-.055 1.299-.055.794 0 1.253-.016 1.272-.046.016-.025.041-.692.056-1.482.026-1.334.034-1.441.117-1.522.053-.052.12-.076.165-.059.1.038 5.788.033 7.67-.006l1.457-.03.719-1.41c.41-.807.752-1.423.796-1.44.043-.015 1.998-.054 4.344-.086 3.678-.051 4.274-.05 4.33.005.053.053.07.525.097 2.56.02 1.538.05 2.517.078 2.552.034.042.27.057.889.057.463 0 .923.022 1.021.049.215.058.562.358.683.59.084.162.088.377.093 5.681.004 5.42.003 5.516-.088 5.688-.121.23-.454.535-.653.6-.235.076-14 .066-14.217-.011m14.081-.536a.6.6 0 0 0 .256-.227c.08-.143.085-.428.097-5.462l.012-5.311-.106-.197c-.182-.336-.3-.37-1.21-.355-.632.01-.788.026-.824.08-.024.038-.044.216-.045.396 0 .398.029.421.522.421.204 0 .364.022.398.055.035.034.055.203.055.45 0 .512-.025.539-.505.539-.217 0-.38.022-.415.054-.036.036-.055.219-.055.52 0 .565-.006.56.618.56.352 0 .452.015.503.076.053.062.061.676.049 3.686-.008 1.986-.025 3.645-.037 3.687a.22.22 0 0 1-.101.113c-.104.05-12.048.075-12.244.025a.32.32 0 0 1-.215-.17c-.092-.189-.123-.2-.526-.202-.472 0-.504.041-.467.606.021.321.047.425.126.515.212.24.033.235 7.252.226 6.142-.008 6.705-.015 6.862-.085m-3.596-9.032c.01-.386-.002-.51-.061-.598-.062-.09-.07-.196-.047-.601.033-.612.034-1.051.002-1.182-.017-.069-.07-.108-.175-.126-.083-.015-2.358-.02-5.055-.014-4.645.013-4.911.018-5.033.096-.07.045-.12.106-.11.136.014.041 1.112.054 4.615.056a585 585 0 0 1 4.65.011c.03.005.09.11.131.234.042.123.114.271.16.329s.116.278.157.49c.066.347.428 1.488.517 1.628.02.03.08.05.135.042.095-.013.101-.041.114-.5M12.852 13.31c.027-.03.116-.158.2-.282a1.3 1.3 0 0 1 .379-.363l.229-.137 5.121-.012c4.541-.01 5.128-.02 5.18-.082.17-.198.372-.193-7.738-.209l-7.668-.015.013.476c.007.262.023.523.036.579l.023.102h2.088c1.614 0 2.1-.013 2.137-.057m11.005-3.083c.072-.07.068-.679-.007-.92l-.056-.18-2.415.014c-2.17.013-2.424.022-2.503.09-.049.041-.21.257-.36.48-.207.308-.259.418-.22.464s.394.063 1.66.073l2.728.023c.82.008 1.132-.004 1.173-.044" style="fill:#78bafd" transform="translate(.023 -.209)"/><path d="M13.604 25.102a1.18 1.18 0 0 1-.608-.555c-.193-.4-.21-.893-.2-6.152l.01-4.932.144-.264c.183-.331.249-.403.508-.551l.209-.12 5.158-.034c7.011-.046 6.842-.046 7.969-.003 1.105.042 1.146.052 1.447.362.342.351.315-.147.32 5.947.006 6.117.03 5.663-.317 6.018a1.5 1.5 0 0 1-.358.26c-.179.08-.457.084-7.156.082-5.353-.002-7.006-.016-7.126-.058m14.059-.525a.55.55 0 0 0 .29-.27c.095-.182.096-.221.095-5.482v-5.3l-.105-.176c-.188-.32-.311-.353-1.219-.322-.885.03-.868.03-7.783 0-4.698-.022-5.005-.019-5.156.056a.42.42 0 0 0-.208.216c-.031.088-.06 1.904-.083 5.15-.02 2.757-.04 5.188-.047 5.401-.015.46.05.593.351.727.188.083.419.086 6.932.086 6.524 0 6.744-.003 6.933-.086m-13.132-.952c-.182-.112-.189-.259-.19-3.908 0-2.839.011-3.535.06-3.601.06-.078.322-.082 5.751-.074 5.825.008 6.715.02 6.816.102.046.037.058.836.058 3.714 0 3.272-.007 3.674-.073 3.737s-.692.072-6.215.07c-3.468 0-6.17-.017-6.207-.04m7.619-8.71c-.027-.05-.05-.275-.05-.501 0-.553.04-.593.576-.593.567 0 .588.023.6.658l.01.499-.544.012c-.5.012-.547.006-.592-.076m1.858-.002c-.052-.094-.067-.855-.02-.975.023-.06.115-.072.525-.072.324 0 .516.019.552.055.036.035.056.216.056.512s-.02.478-.056.513-.223.054-.532.054c-.424 0-.483-.01-.525-.087m1.752.032c-.065-.047-.08-.142-.085-.52-.004-.253.006-.48.022-.505.035-.057 1.006-.013 1.085.048q.058.046.058.445c0 .518-.026.546-.503.539-.196-.003-.388.007-.427.023-.04.015-.107.001-.15-.03" style="fill:#4b97e6" transform="translate(.023 -.209)"/><path d="M13.78 25.076c-.343-.065-.65-.332-.79-.683-.052-.13-.066-1.136-.076-5.547l-.012-5.389.12-.25a1.12 1.12 0 0 1 .807-.627c.09-.015 3.206-.03 6.924-.033 7.626-.007 7.076-.032 7.425.338.366.388.335-.152.335 5.926 0 4.64-.01 5.472-.067 5.605-.114.266-.466.595-.698.652-.23.057-13.674.065-13.969.008m13.99-.48c.347-.197.324.213.326-5.756l.001-5.343-.104-.18a.8.8 0 0 0-.245-.263c-.134-.077-.493-.082-7.019-.091l-6.877-.01-.158.105a.6.6 0 0 0-.217.273c-.047.132-.062 1.334-.07 5.568-.01 6.07-.041 5.552.345 5.724.188.083.398.086 7.024.075 6.768-.01 6.833-.011 6.994-.103m-13.133-1.02c-.054-.021-.122-.104-.151-.185-.083-.231-.073-7.137.01-7.205.044-.035 1.47-.052 4.983-.057 2.707-.004 5.016-.004 5.131.001s.662.013 1.216.018 1.023.025 1.042.044c.02.02.05.142.07.272.035.257.006 6.675-.032 6.918-.013.081-.061.167-.107.191-.106.056-12.02.058-12.162.003m7.738-8.713c-.133-.03-.171-.165-.155-.542.017-.388.07-.427.53-.39.19.014.361.042.38.06.06.058.096.753.044.828-.035.05-.135.068-.37.068-.177 0-.37-.01-.429-.024m1.703-.055a1.3 1.3 0 0 1-.044-.589l.032-.274.415.023c.228.013.44.047.47.077.07.069.055.668-.019.755-.073.086-.827.092-.854.008m1.763-.008a3 3 0 0 1-.007-.412l.007-.363.349-.025c.54-.04.558-.026.558.407 0 .199-.02.373-.044.387-.085.052-.848.057-.863.006" style="fill:#2a8bf1" transform="translate(.023 -.209)"/><path d="M13.678 25.033c-.21-.046-.582-.39-.637-.59-.064-.233-.065-.293-.068-6.04l-.003-5.013.1-.208c.092-.193.322-.413.555-.532.07-.036 2.102-.053 7.04-.061 6.923-.011 6.943-.01 7.155.082.261.116.487.338.604.598.086.19.09.372.09 5.565v5.369l-.125.234c-.147.276-.468.568-.668.607-.186.036-13.875.026-14.043-.01m14.177-.414c.303-.22.287.111.287-5.757v-5.338l-.105-.188a1.1 1.1 0 0 0-.233-.287c-.128-.097-.142-.098-1.998-.083-1.028.008-4.156.007-6.95-.002-5.004-.018-5.082-.017-5.204.072-.265.19-.252-.066-.252 5.25 0 2.697-.013 5.051-.03 5.23s-.02.454-.005.61c.026.261.042.294.23.456l.202.175 6.952-.012 6.951-.012z" style="fill:#1a7ce4" transform="translate(.023 -.209)"/></svg>