<svg xmlns="http://www.w3.org/2000/svg" viewBox="0 0 32 32"><title>folder_type_elasticbeanstalk_opened@2x</title><g id="folder_opened_elasticbeanstalk"><path d="M27.4,5.5H18.2L16.1,9.7H4.3V26.5H29.5V5.5Zm0,18.7H6.6V11.8H27.4Zm0-14.5H19.2l1-2.1h7.1V9.7Z" style="fill:#dda27a"/><polygon points="25.7 13.7 0.5 13.7 4.3 26.5 29.5 26.5 25.7 13.7" style="fill:#dda27a"/><polygon points="20.8 11.3 20.8 20.5 19.73 20.5 19.73 29.16 23.4 31 25.62 20.5 23.4 10 20.8 11.3" style="fill:#9d5025"/><polygon points="23.4 10 23.4 20.5 23.4 31 26 29.7 26 20.5 27.07 20.5 27.07 11.84 23.4 10" style="fill:#f58536"/><polygon points="30.97 17.82 26.33 18.26 24.8 18.08 29.64 13.13 30.97 17.82" style="fill:#6b3a19"/><polygon points="29.64 13.13 30.97 13.8 30.97 17.82 29.64 17.54 29.64 13.13" style="fill:#f58536"/><polygon points="24.8 18.08 29.64 17.54 29.64 13.13 24.8 14.43 24.8 18.08" style="fill:#9d5025"/><polygon points="15.83 23.18 20.47 22.74 22 22.92 17.16 27.86 15.83 23.18" style="fill:#fbbf93"/><polygon points="17.16 27.86 15.83 27.2 15.83 23.18 17.16 23.46 17.16 27.86" style="fill:#9d5025"/><polygon points="22 22.92 17.16 23.46 17.16 27.86 22 26.57 22 22.92" style="fill:#f58536"/></g></svg>