<svg xmlns="http://www.w3.org/2000/svg" xmlns:xlink="http://www.w3.org/1999/xlink" viewBox="0 0 32 32"><defs><linearGradient id="a" x1="-675.043" y1="-738.859" x2="-660.949" y2="-752.956" gradientTransform="matrix(1, 0, 0, -1, 688.886, -724.637)" gradientUnits="userSpaceOnUse"><stop offset="0"/><stop offset="1" stop-color="#fff"/></linearGradient><linearGradient id="b" x1="-660.289" y1="-752.297" x2="-674.388" y2="-738.195" xlink:href="#a"/></defs><title>folder_type_json_official_opened</title><path d="M27.4,5.5H18.2L16.1,9.7H4.3v4H.5L4.3,26.5H29.5V5.5ZM20.2,7.6h7.1V9.7H19.2Zm5.5,6.1H6.6V11.8H27.4v7.626Z" style="fill:#9b9b9b"/><path d="M20.983,25.883c4.418,6.032,8.742-1.683,8.735-6.323-.007-5.485-5.559-8.552-8.739-8.552a9.994,9.994,0,0,0,0,19.988c-.993-.143-4.307-.857-4.35-8.5-.03-5.168,1.683-7.232,4.344-6.325a5.08,5.08,0,0,1,2.935,4.869A5.094,5.094,0,0,1,20.983,25.883Z" style="fill:url(#a)"/><path d="M20.978,16.171c-2.92-1.008-6.5,1.4-6.5,6.229,0,7.882,5.832,8.6,6.539,8.6a9.994,9.994,0,0,0,0-19.988c1.216-.168,6.558,1.319,6.558,8.63C27.579,24.405,23.59,27,21,25.9a5.078,5.078,0,0,1-2.936-4.869A5.124,5.124,0,0,1,20.978,16.171Z" style="fill:url(#b)"/></svg>