<svg viewBox="0 0 32 32" xmlns="http://www.w3.org/2000/svg"><path d="m27.4 5.5h-9.2l-2.1 4.2h-11.8v16.8h25.2v-21zm0 18.7h-20.8v-12.4h20.8zm0-14.5h-8.2l1-2.1h7.1v2.1z" fill="#dba17b"/><path d="m25.7 13.7h-25.2l3.8 12.8h25.2z" fill="#dba17b"/><g fill="#cfcfcf"><path d="m18.008 24.674-1.969-5.882-2.021 5.882zm5.046 6.126h-5.306v-1.287l.344-.021c.535-.035.694-.154.729-.191a.322.322 0 0 0 .109-.247 4.7 4.7 0 0 0 -.314-1.316l-.609-1.816h-4.016l-.691 2.023a3.751 3.751 0 0 0 -.262 1.088.3.3 0 0 0 .115.227c.029.028.2.17.893.232l.336.031v1.277h-4.382v-1.236l.3-.066c.589-.13.731-.273.754-.3a6.383 6.383 0 0 0 .885-1.942l4.177-12.256h.78l4.134 12.387a5.292 5.292 0 0 0 .791 1.726 1.3 1.3 0 0 0 .892.379l.34.026z"/><path d="m27.881 28.227v-3.746a15.419 15.419 0 0 0 -1.67.912 3.146 3.146 0 0 0 -.968.988 2.252 2.252 0 0 0 -.291 1.127 2.129 2.129 0 0 0 .368 1.281 1.048 1.048 0 0 0 .848.512 2.9 2.9 0 0 0 1.713-1.074zm-2.5 2.773a1.942 1.942 0 0 1 -1.6-.84 3.49 3.49 0 0 1 -.624-2.148 3.34 3.34 0 0 1 .311-1.482 4.241 4.241 0 0 1 1.338-1.53 16.361 16.361 0 0 1 2.713-1.493v-.07a3.285 3.285 0 0 0 -.287-1.723.9.9 0 0 0 -.806-.387.761.761 0 0 0 -.612.245.72.72 0 0 0 -.208.5l.017.607a1.772 1.772 0 0 1 -.3 1.089.961.961 0 0 1 -1.577-.018 1.791 1.791 0 0 1 -.293-1.066 2.873 2.873 0 0 1 .887-2.047 3.133 3.133 0 0 1 2.344-.876 3.366 3.366 0 0 1 1.881.493 2.359 2.359 0 0 1 .909 1.265 7.45 7.45 0 0 1 .183 2.066v3.338c0 1.191.024 1.542.038 1.645a.742.742 0 0 0 .04.188c.064-.074.213-.212.648-.758l.617-.772v1.849l-.072.121c-.718 1.207-1.412 1.793-2.122 1.793a1.112 1.112 0 0 1 -.943-.524 1.881 1.881 0 0 1 -.269-.7 7.379 7.379 0 0 1 -1.075.918 2.238 2.238 0 0 1 -1.138.317z"/></g></svg>