<svg xmlns="http://www.w3.org/2000/svg" viewBox="0 0 32 32"><title>folder_type_css_opened@2x</title><g id="folder_opened_css"><path d="M27.4,5.5H18.2L16.1,9.7H4.3V26.5H29.5V5.5Zm0,18.7H6.6V11.8H27.4Zm0-14.5H19.2l1-2.1h7.1V9.7Z" style="fill:#7bb6db"/><polygon points="25.7 13.7 0.5 13.7 4.3 26.5 29.5 26.5 25.7 13.7" style="fill:#7bb6db"/><polygon points="14.18 28.9 12.49 10 31.01 10 29.32 28.9 21.74 31 14.18 28.9" style="fill:#1572b6"/><polygon points="21.75 29.39 27.88 27.69 29.32 11.54 21.75 11.54 21.75 29.39" style="fill:#33a9dc"/><polygon points="21.75 18.39 24.82 18.39 25.03 16.02 21.75 16.02 21.75 13.7 21.76 13.7 27.56 13.7 27.51 14.32 26.94 20.71 21.75 20.71 21.75 18.39" style="fill:#fff"/><polygon points="21.76 24.41 21.75 24.42 19.17 23.72 19.01 21.87 17.75 21.87 16.68 21.87 17 25.51 21.75 26.83 21.76 26.82 21.76 24.41" style="fill:#ebebeb"/><polygon points="24.62 20.61 24.34 23.72 21.76 24.41 21.76 26.83 26.51 25.51 26.54 25.12 26.95 20.61 24.62 20.61" style="fill:#fff"/><polygon points="21.76 13.7 21.76 15.14 21.76 16.01 21.76 16.02 16.17 16.02 16.17 16.02 16.16 16.02 16.11 15.5 16.01 14.32 15.95 13.7 21.76 13.7" style="fill:#ebebeb"/><polygon points="21.75 18.39 21.75 19.83 21.75 20.71 21.75 20.71 19.21 20.71 19.21 20.71 19.2 20.71 19.16 20.19 19.05 19.02 18.99 18.39 21.75 18.39" style="fill:#ebebeb"/></g></svg>