<svg xmlns="http://www.w3.org/2000/svg" viewBox="0 0 32 32"><title>folder_type_gcp_opened</title><path d="M27.4,5.5H18.2L16.1,9.7H4.3V26.5H29.5V5.5Zm0,18.7H6.6V11.8H27.4Zm0-14.5H19.2l1-2.1h7.1V9.7Z" style="fill:#dcb67a"/><polygon points="4.3 26.5 29.5 26.5 25.7 13.7 25.7 13.7 0.5 13.7 4.3 26.5" style="fill:#dcb67a"/><polygon points="16.585 28.04 12.896 21.646 16.585 15.255 23.969 15.255 27.661 21.646 23.969 28.04 16.585 28.04" style="fill:#cfcecb"/><path d="M17.212,27.236l-3.28-5.612-1.8-3.076a1.5,1.5,0,0,1-.164-.836l-1.893,3.275a1.583,1.583,0,0,0,0,1.425l4.547,7.878A1.58,1.58,0,0,0,15.857,31h5.413a1.446,1.446,0,0,0,.516-.492l1.853-3.275H17.212Z" style="fill:#f4b51a"/><polygon points="30.737 20.987 26.187 13.109 28.037 16.312 30.737 20.987" style="fill:#dd462f"/><path d="M30.737,20.987l-2.7-4.676a1.491,1.491,0,0,0-.742-.234H23.633L26.8,21.657l-3.157,5.579-1.853,3.275a1.423,1.423,0,0,1-.516.492h3.684a1.58,1.58,0,0,0,1.234-.713L28,27.158l2.74-4.746A1.592,1.592,0,0,0,30.737,20.987Z" style="fill:#dd462f"/><path d="M26.187,13.109a1.58,1.58,0,0,0-1.234-.713H15.859a1.58,1.58,0,0,0-1.234.713l-2.659,4.606a1.53,1.53,0,0,0,.164.836l1.8,3.076,3.21-5.55h10.15a1.491,1.491,0,0,1,.742.234Z" style="fill:#517dbf"/><polygon points="13.931 21.625 17.212 27.236 23.641 27.236 26.797 21.657 23.633 16.078 17.142 16.078 13.931 21.625" style="fill:#efefef"/><path d="M12.082,17.514l-.116.2a1.53,1.53,0,0,0,.164.836l1.8,3.076.957-1.654Z" style="fill:#4f71a9"/><path d="M28.158,16.521l-.121-.21a1.491,1.491,0,0,0-.742-.234H23.635l.952,1.681Z" style="fill:#c3432f"/><path d="M20.963,31h.315a1.446,1.446,0,0,0,.516-.492l1.853-3.275H21.673Z" style="fill:#d19d2a"/><path d="M20.4,24.566a2.877,2.877,0,1,1,2.877-2.877A2.88,2.88,0,0,1,20.4,24.566Z" style="fill:#fff"/><path d="M20.4,18.853a2.837,2.837,0,1,1-2.837,2.837A2.837,2.837,0,0,1,20.4,18.853m0-.083a2.917,2.917,0,1,0,2.917,2.917A2.922,2.922,0,0,0,20.4,18.769Z" style="fill:#cac8c6"/></svg>