<svg xmlns="http://www.w3.org/2000/svg" viewBox="0 0 32 32"><title>folder_type_view</title><path d="M27.5,5.5H18.2L16.1,9.7H4.4V26.5H29.6V5.5Zm0,4.2H19.3l1.1-2.1h7.1Z" style="fill:#bf6d55"/><polygon points="14.167 28.901 12.482 10 30.998 10 29.311 28.898 21.729 31 14.167 28.901" style="fill:#e44f26"/><polygon points="21.74 29.393 27.867 27.694 29.309 11.545 21.74 11.545 21.74 29.393" style="fill:#f1662a"/><polygon points="20.99 24.011 14.99 20.404 14.99 19.097 20.99 15.489 20.99 17.512 17.162 19.75 20.99 21.989 20.99 24.011" style="fill:#fff"/><polygon points="22.49 24.009 22.49 21.988 26.345 19.75 22.49 17.513 22.49 15.491 28.49 19.082 28.49 20.418 22.49 24.009" style="fill:#fff"/></svg>