<svg id="Layer_1" data-name="Layer 1" xmlns="http://www.w3.org/2000/svg" viewBox="0 0 32 32"><path d="M27.4,5.5H18.2L16.1,9.7H4.3V26.5H29.5V5.5Zm0,18.7H6.6V11.8H27.4Zm0-14.5H19.2l1-2.1h7.1V9.7Z" style="fill:#7b87db"/><polygon points="25.7 13.7 0.5 13.7 4.3 26.5 29.5 26.5 25.7 13.7" style="fill:#7b87db"/><path d="M15.55,23.39a29,29,0,0,0-.07-4.66c-.08-1-.08-2.48.5-2.75,1.41-.62,2.71,2.5,5.17,2.13,2-.3,1.5-3.69,2.84-3.89,1.92-.3,5.76,7.65,6.32,13.26a10.13,10.13,0,1,0-15.78,1.34A16,16,0,0,0,15.55,23.39Z" style="fill:#b4bcf6"/><path d="M14.5,28.86a15.32,15.32,0,0,0,1.05-5.47,29,29,0,0,0-.07-4.66c-.08-1-.08-2.48.5-2.75,1.41-.62,2.71,2.5,5.17,2.13,2-.3,1.5-3.69,2.84-3.89,1.89-.28,5.79,7.69,6.29,13.29a10.23,10.23,0,0,1-7.13,4.4A10.07,10.07,0,0,1,14.5,28.86Z" style="fill:#fff"/><path d="M18.38,26.11A1.43,1.43,0,0,0,19,26a1.31,1.31,0,0,0,.48-.32,1.39,1.39,0,0,0,.34-.49,1.42,1.42,0,0,0,.1-.58,1.5,1.5,0,1,0-1.5,1.51Z" style="fill:#ef4357"/><path d="M26.29,24.82a1.5,1.5,0,0,0,1.5-1.5h0a1.56,1.56,0,0,0-.11-.57,1.51,1.51,0,0,0-2-.82,1.75,1.75,0,0,0-.48.32,1.56,1.56,0,0,0-.33.5,1.4,1.4,0,0,0-.13.57,1.5,1.5,0,0,0,1.5,1.5Z" style="fill:#ef4357"/><path d="M14.4,29.47a.43.43,0,0,1-.16,0l-.12-.08L14,29.26a.38.38,0,0,1,0-.15.28.28,0,0,1,0-.15,16.7,16.7,0,0,0,1.05-5.55,28.4,28.4,0,0,0-.05-4.61c-.16-1.78.09-2.84.72-3.13.87-.4,1.66.25,2.42.88a3.83,3.83,0,0,0,2.89,1.22c.8-.12,1.1-.86,1.45-2,.28-.87.56-1.77,1.39-1.9a1.57,1.57,0,0,1,1.2.43c2.05,1.59,5.06,8.13,5.58,13.19a.33.33,0,0,1,0,.14.43.43,0,0,1-.19.23l-.14,0a.37.37,0,0,1-.28-.09.35.35,0,0,1-.14-.25c-.51-4.79-3.42-11.2-5.34-12.7a1,1,0,0,0-.6-.23c-.37.06-.57.72-.79,1.38-.32,1-.72,2.31-2,2.51a4.4,4.4,0,0,1-3.48-1.4c-.76-.63-1.23-1-1.64-.8-.18.09-.41.8-.28,2.37a29.63,29.63,0,0,1,.06,4.71,16.93,16.93,0,0,1-1.13,5.84.51.51,0,0,1-.13.16A.42.42,0,0,1,14.4,29.47Z" style="fill:#181818"/><path d="M16.46,25.49a.2.2,0,0,1-.11,0,.18.18,0,0,1-.07-.08v-.15a.1.1,0,0,1,0-.06.15.15,0,0,1,.06-.05l1.49-.63-1.58-.35h-.07l-.05-.05v-.21l.06-.06h.14l2.17.44a.21.21,0,0,1,.1.06.22.22,0,0,1,.05.11.24.24,0,0,1,0,.12.22.22,0,0,1-.09.07l-2.08.84Z" style="fill:#181818"/><path d="M28.22,23.64h0L26,23.53a.27.27,0,0,1-.11-.05.17.17,0,0,1-.06-.1.24.24,0,0,1,0-.12.14.14,0,0,1,.08-.09L27.77,22h.14l.07,0,.05.05a.2.2,0,0,1,0,.15.15.15,0,0,1-.08.11l-1.37.85,1.63.09a.15.15,0,0,1,.17,0,.24.24,0,0,1,.05.13.25.25,0,0,1-.06.14.21.21,0,0,1-.13.05Z" style="fill:#181818"/><path d="M22.26,24.94a1.32,1.32,0,0,1-.86-.25,1.39,1.39,0,0,1-.54-.72.17.17,0,0,1,0-.1v-.1l.06-.08a.25.25,0,0,1,.19-.05.14.14,0,0,1,.09,0l.08.05a.41.41,0,0,1,0,.09,1,1,0,0,0,1.2.62h0a1,1,0,0,0,.91-1,.21.21,0,0,1,.07-.17.25.25,0,0,1,.35,0v0a.21.21,0,0,1,.07.17,1.49,1.49,0,0,1-1.32,1.53h-.37Z" style="fill:#181818"/><path d="M18,22.69H18a.25.25,0,0,1-.16-.12.21.21,0,0,1,0-.19,2.28,2.28,0,0,1,1.68-1.51,1.84,1.84,0,0,1,1.85,1,.31.31,0,0,1,0,.19.25.25,0,0,1-.34.1h0a.24.24,0,0,1-.12-.14,1.35,1.35,0,0,0-1.31-.65,1.79,1.79,0,0,0-1.3,1.13.42.42,0,0,1-.09.14.27.27,0,0,1-.15.05Z" style="fill:#181818"/><path d="M23,21.87H22.9a.18.18,0,0,1-.09,0,.24.24,0,0,1-.06-.08.17.17,0,0,1,0-.1.14.14,0,0,1,0-.09,2,2,0,0,1,1.45-1.45,2.08,2.08,0,0,1,2,1,.11.11,0,0,1,0,.08.17.17,0,0,1,0,.1.35.35,0,0,1-.05.08l-.08.06h-.2l-.09-.05a.35.35,0,0,1-.05-.08,1.56,1.56,0,0,0-1.45-.68,1.48,1.48,0,0,0-1.07,1.05.34.34,0,0,1-.09.14.24.24,0,0,1-.14.05Z" style="fill:#181818"/><path d="M26.81,19.64a.3.3,0,0,0-.08-.08.21.21,0,0,0-.12,0h-.12l-.48.08h0a3,3,0,0,0-.23-.27,2,2,0,0,0-2.84,0,1.93,1.93,0,0,0-.48.8,1.82,1.82,0,0,0-.33,0,2,2,0,0,0-1,.28c-.06-.07-.11-.14-.18-.21a2,2,0,0,0-1.44-.59,2,2,0,0,0-1.45.59,2.08,2.08,0,0,0-.51,1l-.56.1a.35.35,0,0,0-.2.14.29.29,0,0,0-.05.24.38.38,0,0,0,.11.18.32.32,0,0,0,.2.07h.06l.4-.08A2.13,2.13,0,0,0,18.06,23a2,2,0,0,0,3.44-1.45,2.41,2.41,0,0,0-.12-.65,1.42,1.42,0,0,1,.72-.2,1.6,1.6,0,0,1,.23,0,2.07,2.07,0,0,0,.59,1.4,2,2,0,0,0,3.43-1.45,1.77,1.77,0,0,0-.09-.56l.34-.06a.3.3,0,0,0,.21-.13.36.36,0,0,0,0-.35Zm-6.35,2.9a1.39,1.39,0,0,1-1,.39,1.35,1.35,0,0,1-1-.34,1.37,1.37,0,0,1,1.94-1.94,1.35,1.35,0,0,1,.41,1,1.36,1.36,0,0,1-.41,1Zm4.85-.85a1.38,1.38,0,0,1-2.24-1.5,1.65,1.65,0,0,1,.29-.45,1.54,1.54,0,0,1,.45-.3,1.39,1.39,0,0,1,1.06,0,1.54,1.54,0,0,1,.45.3,1.65,1.65,0,0,1,.29.45,1.22,1.22,0,0,1,.1.53,1.36,1.36,0,0,1-.4,1Z" style="fill:#b4bcf6"/></svg>