<svg xmlns="http://www.w3.org/2000/svg" viewBox="0 0 32 32"><title>folder_type_mjml</title><path d="M27.5,5.5H18.2L16.1,9.7H4.4V26.5H29.6V5.5Zm0,4.2H19.3l1.1-2.1h7.1Z" style="fill:#bf555d"/><path d="M11.772,12.524a4.548,4.548,0,0,1,1.446-.119q4.412.005,8.82,0a2.528,2.528,0,0,1,2.366,1.51,2.478,2.478,0,0,1-2.366,3.416q-4.75-.005-9.5,0a2.478,2.478,0,0,1-2.521-2.2A2.423,2.423,0,0,1,11.772,12.524Z" style="fill:#f75d3c"/><path d="M27.876,12.507a2.507,2.507,0,0,1,2.985,1.563,2.414,2.414,0,0,1-1.471,3.08l-.041.014a2.485,2.485,0,0,1-3.326-2.053A2.423,2.423,0,0,1,27.876,12.507Z" style="fill:#f75d3c"/><path d="M18.212,19.481a6.792,6.792,0,0,1,1.449-.083c2.946.007,5.894,0,8.84.005a2.439,2.439,0,1,1,.11,4.877h-.121c-3.229,0-6.458.007-9.687,0a2.4,2.4,0,0,1-2.382-2.209A2.433,2.433,0,0,1,18.212,19.481Z" style="fill:#f75d3c"/><path d="M11.9,26.181a5.528,5.528,0,0,1,.99-.059c3.11.012,6.219-.005,9.328.008a2.444,2.444,0,0,1,2.387,2.5l0,.053a2.478,2.478,0,0,1-2.4,2.323q-4.915.005-9.83,0a2.441,2.441,0,0,1-.473-4.82Z" style="fill:#f75d3c"/><path d="M27.71,26.238a2.525,2.525,0,0,1,3.126,1.455,2.482,2.482,0,1,1-4.82.826A2.388,2.388,0,0,1,27.71,26.238Z" style="fill:#f75d3c"/><path d="M11.769,19.456a2.507,2.507,0,1,1-.508.221A2.495,2.495,0,0,1,11.769,19.456Z" style="fill:#f93748"/></svg>