<svg xmlns="http://www.w3.org/2000/svg" viewBox="0 0 32 32"><title>folder_type_aws@2x</title><g id="folder_aws"><path d="M27.5,5.5H18.2L16.1,9.7H4.4V26.5H29.6V5.5Zm0,4.2H19.3l1.1-2.1h7.1Z" style="fill:#bf7f55"/><path d="M31,26.53v1C31,29.21,29.09,31,26.76,31H14.24C11.88,31,10,29.24,10,27.48v-1Z" style="fill:#9d5125"/><path d="M18.08,17.25A5.33,5.33,0,0,1,23,20.41a2.73,2.73,0,0,1,1.55-.48,2.69,2.69,0,0,1,2.71,2.62A4.27,4.27,0,0,1,31,26.41v.36c0,1.76-1.91,3.52-4.27,3.52H14.24c-2.36,0-4.24-1.76-4.24-3.52v-.36a4.15,4.15,0,0,1,2.71-3.64v-.15A5.35,5.35,0,0,1,18.08,17.25Z" style="fill:#f58535"/><path d="M15.25,23.48l-1.4,4.89h.84L15,27.18h1.43l.3,1.19h.84l-1.31-4.89Zm-.12,3.07.6-2.42h0l.57,2.42Z" style="fill:#fff"/><polygon points="21.1 27.33 21.07 27.33 20.41 23.48 19.57 23.48 18.95 27.3 18.92 27.3 18.26 23.48 17.49 23.48 18.44 28.41 19.34 28.41 19.96 24.71 19.99 24.71 20.62 28.41 21.54 28.41 22.53 23.48 21.72 23.48 21.1 27.33" style="fill:#fff"/><path d="M25.06,25.72l-.54-.18c-.54-.21-.75-.45-.75-.87a.67.67,0,1,1,1.34,0v.09h.78v-.12c0-.51-.12-1.28-1.4-1.28A1.35,1.35,0,0,0,23,24.77a1.3,1.3,0,0,0,1,1.34l.54.18a.82.82,0,0,1,.72.87.7.7,0,0,1-.75.72q-.81,0-.81-.89v-.12h-.78V27a1.34,1.34,0,0,0,1.49,1.49c1,0,1.64-.42,1.64-1.46A1.3,1.3,0,0,0,25.06,25.72Z" style="fill:#fff"/></g></svg>