<svg xmlns="http://www.w3.org/2000/svg" viewBox="0 0 32 32"><title>folder_type_gitlab</title><path d="M27.5,5.5H18.2L16.1,9.7H4.4V26.5H29.6V5.5Zm0,4.2H19.3l1.1-2.1h7.1Z" style="fill:#bf7855"/><polygon points="20.5 30.972 20.5 30.972 24.367 19.072 16.633 19.072 20.5 30.972" style="fill:#e24329"/><polygon points="20.5 30.972 16.633 19.072 11.214 19.072 20.5 30.972" style="fill:#fc6d26"/><path d="M11.214,19.072h0l-1.175,3.616a.8.8,0,0,0,.291.895L20.5,30.975Z" style="fill:#fca326"/><path d="M11.214,19.072h5.419L14.3,11.905a.4.4,0,0,0-.761,0Z" style="fill:#e24329"/><polygon points="20.5 30.972 24.367 19.072 29.786 19.072 20.5 30.972" style="fill:#fc6d26"/><path d="M29.786,19.072h0l1.175,3.616a.8.8,0,0,1-.291.895L20.5,30.975Z" style="fill:#fca326"/><path d="M29.786,19.072H24.367L26.7,11.9a.4.4,0,0,1,.761,0Z" style="fill:#e24329"/></svg>