<svg xmlns="http://www.w3.org/2000/svg" viewBox="0 0 32 32"><title>folder_type_netlify</title><path fill="#014847" d="M27.5 5.5h-9.3l-2.1 4.2H4.4v16.8h25.2v-21Zm0 4.2h-8.2l1.1-2.1h7.1Z"/><path fill="#fff" d="M22.3 23.03h-1.67l-.14-.14v-3.88c0-.7-.27-1.24-1.1-1.25-.43-.02-.93 0-1.45.02l-.08.08v5.03l-.14.14h-1.66l-.14-.14v-6.64l.14-.14h3.73a2.63 2.63 0 0 1 2.64 2.63v4.15l-.15.14z"/><path fill="#32e6e2" d="M18.21 30.45v-5.22l.13-.14h1.67l.13.14v5.22l-.13.14h-1.67zm0-16.54V8.69l.13-.14h1.67l.13.14v5.22l-.13.14h-1.67zm-4.39 12.67h-.23l-1.15-1.15v-.22l1.53-1.53h1.2l.17.18v1.2l-1.53 1.53zm-1.38-12.6v-.22l1.15-1.15h.23l1.52 1.53v1.2l-.16.17h-1.2zM7.85 18.6h5.87l.14.15v1.66l-.14.14H7.85l-.15-.14v-1.66l.14-.15zm22.65 1.96h-5.87l-.14-.15v-1.66l.14-.14h5.87l.14.14v1.66z"/></svg>