<svg xmlns="http://www.w3.org/2000/svg" viewBox="0 0 32 32"><title>folder_type_route_opened</title><path d="M27.4,5.5H18.2L16.1,9.7H4.3V26.5H29.5V5.5Zm0,18.7H6.6V11.8H27.4Zm0-14.5H19.2l1-2.1h7.1V9.7Z" style="fill:#db7b7b"/><polygon points="25.7 13.7 0.5 13.7 4.3 26.5 29.5 26.5 25.7 13.7" style="fill:#db7b7b"/><path d="M14.2,18.428a4.2,4.2,0,1,1,4.2-4.2A4.2,4.2,0,0,1,14.2,18.428Zm0-6a1.8,1.8,0,1,0,1.8,1.8A1.8,1.8,0,0,0,14.2,12.431Z" style="fill:#40e81c"/><path d="M26.8,25.38a4.2,4.2,0,1,1,4.2-4.2A4.2,4.2,0,0,1,26.8,25.38Zm0-6a1.8,1.8,0,1,0,1.8,1.8A1.8,1.8,0,0,0,26.8,19.383Z" style="fill:#1c91e8"/><path d="M16.187,31a4.2,4.2,0,1,1,4.2-4.2A4.2,4.2,0,0,1,16.187,31Zm0-6a1.8,1.8,0,1,0,1.8,1.8A1.8,1.8,0,0,0,16.187,25Z" style="fill:#eada1b"/><path d="M14.19,19.094a5.689,5.689,0,0,1-.645-.015l.519,3.306a4.939,4.939,0,0,1,2.1-.475,5.542,5.542,0,0,1,.668.042l-.517-3.3A4.936,4.936,0,0,1,14.19,19.094Z" style="fill:#474756"/><path d="M22,22.158l-2.321,1.22a4.979,4.979,0,0,1,1.307,2.475l2.337-1.229A5.066,5.066,0,0,1,22,22.158Z" style="fill:#474756"/><path d="M23.359,17.7l-4.38-2.422a4.889,4.889,0,0,1-1.355,2.448l4.388,2.432A5.05,5.05,0,0,1,23.359,17.7Z" style="fill:#474756"/></svg>