<svg xmlns="http://www.w3.org/2000/svg" xml:space="preserve" width="32mm" height="32mm" viewBox="0 0 32 32"><path d="M16.264 15.992c.05-.184.016.224 0 0" style="fill:#000"/><path d="M16.264 15.992c.05-.184.016.224 0 0" style="fill:#000"/><path d="M16.264 15.992c.05-.184.016.224 0 0" style="fill:#000"/><path d="M16.264 15.992c.05-.184.016.224 0 0" style="fill:#000"/><path d="M16.264 15.992c.05-.184.016.224 0 0" style="fill:#000"/><path d="M13.793 27.034c-.815-.088.066-1.466-.674-1.363H5.23c-.367-.206-.295-.594-.29-.954.018-4.48-.045-8.963.054-13.441.758-.491 1.888-.165 2.798-.273l6.888-.037c.65-1.162 1.193-2.395 1.947-3.49 3.262-.103 6.529-.038 9.792-.056.428.264.184.8.238 1.216l-.059 4.388c.853-.184 1.432.404 1.19 1.28.028 4.134.01 8.267.015 12.4-.656.727-1.822.23-2.69.394-3.736-.005-7.474.054-11.208-.043zm10.39-16.688c.046-.421.05-.8-.483-.644h-4.864c-.236.43-.48.855-.707 1.289h6.054z" style="fill:#adadf7" transform="translate(-.372 -1.263)"/><path d="M13.836 26.956c-.685-.11.048-1.354-.582-1.311l-8.074-.048c-.37-.774-.096-1.747-.187-2.597-.006-3.9-.002-7.802-.003-11.703.233-.331.614-.258.969-.256h8.733c.629-1.166 1.218-2.354 1.897-3.492 1.916-.156 3.854-.043 5.779-.08 1.363.012 2.73-.018 4.091.048.33.87.054 1.959.125 2.916l-.036 2.69c.876-.192 1.377.395 1.138 1.277.012 3.99.058 7.983-.021 11.973-.158 1.193-1.99.347-2.844.624-3.661.005-7.324.037-10.985-.04m8.387-1.746c-.201-.814-1.784-.207-2.517-.412-1.619.01-3.242-.072-4.859.019-.565.564 1.132.383 1.52.433 1.926.016 3.86.118 5.784.008zm3.348-.183c1.348-1.435-2.01-1.812-1.001-.116a.76.76 0 0 0 1.001.116m-3.462-1.075c.022-.704-1.534-.2-2.103-.363-1.695.02-3.396-.052-5.087.058.103.75 1.585.216 2.26.386 1.64-.04 3.303.09 4.93-.08m.094-3.145c-.22-.706-1.797-.205-2.531-.388-1.634-.029-3.267-.046-4.901-.068-.217.894 1.54.278 2.083.496 1.753.007 3.514.117 5.264.018zm3.307-.145c1.176-.739-.766-2.198-1.11-.783-.154.627.584 1.093 1.11.783m-3.389-1.12c-.176-.747-1.782-.185-2.499-.368-1.567.02-3.14-.048-4.703.06-.066.79 1.477.189 2.061.378 1.71-.032 3.443.09 5.141-.07m.1-3.124c-.153-.778-1.799-.199-2.493-.41-1.627-.02-3.254-.066-4.88-.041-.54.687 1.167.358 1.589.459 1.9.01 3.803.124 5.7.022zm3.301-.166c1.336-1.075-1.378-2.094-1.12-.444.115.458.721.726 1.12.444M22.1 15.157c-.03-.759-1.571-.234-2.208-.396-1.645.012-3.294-.034-4.937.05-.17.823 1.475.265 2.064.436 1.653-.01 3.31.05 4.962-.034zm2.108-4.81c.006-.37.117-.846-.423-.67h-4.983c-.124.41-.967 1.246-.44 1.338 1.949.032 3.898.004 5.846 0z" style="fill:#7777f6" transform="translate(-.372 -1.263)"/><path d="M14.287 26.154c-.033-1.144-.001-2.29.002-3.434l12.62-.025c.094 1.159.018 2.332.027 3.497-4.193-.008-8.387.058-12.578-.02zm7.913-.92c.035-.774-1.608-.231-2.197-.438-1.718-.016-3.443-.128-5.157-.025-.517.73 1.193.364 1.622.48 1.877.014 3.76.122 5.635.031zm3.307-.156c1.218-.748-.785-2.218-1.11-.806-.132.634.563 1.117 1.11.806m-3.398-1.126c.085-.694-1.417-.206-1.969-.355-1.752.001-3.504.01-5.256.016.065.834 1.593.228 2.215.421 1.62-.014 3.243.034 4.861-.037zM5.112 25.5c-.257-.273-.06-.734-.122-1.088V11.297c.233-.331.614-.258.969-.256h8.733c.629-1.166 1.218-2.354 1.897-3.492 1.916-.156 3.854-.043 5.779-.08 1.363.012 2.73-.018 4.091.048.338.905.06 2.027.124 3.02-.237.836.52 2.718-.74 2.564-4.022.034-8.046.018-12.07.023-.38.168-.27.563-.28.903l-.047 11.57-8.212.025zm19.096-15.154c.006-.37.117-.845-.423-.67h-4.983c-.124.412-.967 1.247-.44 1.339 1.949.032 3.898.004 5.846 0zM14.35 21.8c-.175-1.042-.06-2.15-.065-3.216.618-.608 2.141-.127 3.103-.299 3.17 0 6.343-.044 9.512.057.098 1.123.078 2.269.017 3.395-1.02.198-2.172.058-3.244.111-3.107 0-6.217.034-9.323-.048m7.87-.967c-.037-.732-1.638-.221-2.239-.413-1.747-.002-3.502-.115-5.245-.007.02.778 1.655.231 2.284.438 1.703.018 3.41.096 5.11.022zm3.429-.28c1.149-1.61-2.228-1.484-1.028.02.252.249.794.262 1.028-.02m-3.502-1.028c-.39-.72-1.982-.16-2.823-.35-1.468.02-2.942-.046-4.406.06-.102.795 1.462.193 2.038.383 1.72-.028 3.453.073 5.164-.062zm-7.829-2.154c-.097-1.137-.02-2.286-.03-3.428h12.647c-.01 1.142.066 2.29-.03 3.428-2.808.133-5.631.038-8.445.067-1.379-.024-2.768.044-4.142-.067m7.94-1c-.475-.67-1.91-.181-2.748-.365-1.559 0-3.122-.103-4.68-.017-.536.638 1.226.333 1.63.437 1.913.05 3.827.062 5.74.07zm3.128-.042c1.412-.614-.563-2.346-.983-.878-.161.546.46 1.13.983.878m-3.298-1.15c.16-.772-1.462-.265-2.01-.417-1.72.02-3.445-.052-5.16.059-.019.859 1.602.236 2.249.431 1.637-.03 3.294.083 4.921-.072" style="fill:#8181b5" transform="translate(-.372 -1.263)"/><path d="M14.287 26.154c-.033-1.144-.001-2.29.002-3.434l12.62-.025c.094 1.159.018 2.332.027 3.497-4.193-.008-8.387.058-12.578-.02zm7.96-.902c-.074-.896-1.687-.268-2.377-.48-1.7-.021-3.401-.035-5.102-.052-.389.963 1.46.4 2.022.575 1.815-.015 3.65.102 5.456-.043m3.354-.201c1.086-.84-.853-2.174-1.227-.836-.23.69.67 1.298 1.227.836m-3.455-1.098c.047-.806-1.639-.235-2.245-.414-1.67.035-3.355-.081-5.013.077-.062.9 1.633.274 2.266.467h4.89zM5.122 25.481c-.156-1.938-.045-3.903-.082-5.852v-8.325c.787-.386 1.801-.092 2.669-.2q3.507-.021 7.014-.039c.625-1.16 1.221-2.336 1.881-3.477 3.207-.129 6.423-.088 9.632-.029.714.448.117 1.964.294 2.818l-.04 2.722-12.769.05c-.401.261-.162.79-.228 1.19l-.023 11.233c-2.737-.016-5.476.038-8.21-.04zm19.1-14.45c.238-.834.056-1.725-.992-1.422-1.465-.012-2.93-.005-4.396-.007-.338.557-1.328 1.772-.01 1.476 1.798.013 3.603.05 5.399-.047m-9.871 10.768c-.175-1.042-.06-2.15-.065-3.216.618-.608 2.141-.127 3.103-.299 3.17 0 6.343-.044 9.512.057.098 1.123.078 2.269.017 3.395-1.02.198-2.172.058-3.244.111-3.107 0-6.217.034-9.323-.048m7.821-.897c.317-.862-1.475-.352-2.018-.527-1.794-.034-3.588-.051-5.382-.076-.392.99 1.535.402 2.104.597 1.763.003 3.538.129 5.296.006m3.35-.203c1.29-.839-.872-2.288-1.166-.804-.126.622.63 1.164 1.167.804m-3.37-1.13c.01-.847-1.642-.26-2.296-.443-1.65.04-3.318-.09-4.956.08-.176.876 1.496.27 2.086.459 1.682-.015 3.368.047 5.048-.038zM14.32 17.37c-.097-1.137-.02-2.286-.03-3.428h12.647c-.01 1.142.066 2.29-.03 3.428-2.808.133-5.631.038-8.445.067-1.379-.024-2.768.044-4.142-.067m7.884-.876c.173-.893-1.532-.343-2.13-.527-1.743-.025-3.486-.074-5.228-.049-.623.86 1.295.427 1.78.56 1.857.01 3.724.126 5.578.016m3.394-.253c1.315-1.195-1.601-2.128-1.224-.384.14.477.845.733 1.224.384m-3.418-1.109c.165-.574-.594-.317-.926-.372-2.128.02-4.26-.054-6.384.06-.005.855 1.64.24 2.301.434q2.464.003 4.928.002z" style="fill:#5353ae" transform="translate(-.372 -1.263)"/><path d="M14.336 26.105c-.032-1.112 0-2.224.003-3.335h12.547v3.372c-4.16-.008-8.32.058-12.48-.02zm7.921-.814c.152-.93-1.584-.36-2.194-.554-1.75-.014-3.504-.091-5.254-.034-.645.865 1.245.484 1.743.601 1.87.023 3.744.108 5.612.03zm3.132-.089c1.563-.587-.557-2.612-1.037-.99-.19.604.446 1.245 1.037.99m-3.268-1.173c.26-.934-1.507-.377-2.13-.537-1.67.016-3.343-.046-5.011.04-.648.847 1.204.55 1.715.6 1.764-.018 3.531.047 5.293-.043zM5.16 25.45c-.257-.272-.06-.733-.121-1.087.007-4.35-.021-8.699.03-13.047.814-.417 1.917-.137 2.848-.225q3.41-.002 6.82 0c.642-1.183 1.23-2.399 1.94-3.543 3.244-.05 6.49-.021 9.735-.029.317.867.055 1.87.127 2.787-.028.922.009 1.85-.077 2.768-4.136.015-8.272-.037-12.406.038-1.173.112-.331 1.903-.612 2.713-.028 3.24-.033 6.481-.049 9.722l-8.112.025zm19.096-15.104c-.005-.375.132-.892-.422-.719h-5.073c-.239.465-.576.912-.715 1.404 1.909.116 3.836.018 5.753.036.54.165.483-.266.457-.665zM14.376 21.77c-.112-1.102-.07-2.23-.025-3.34.989-.188 2.149-.043 3.204-.095 3.092 0 6.185-.02 9.277.026.155 1.064.066 2.184.047 3.268-.822.33-2.027.087-3.002.168-3.167 0-6.335.012-9.501-.027m7.894-.888c.023-.993-1.845-.33-2.55-.564-1.614-.011-3.23-.085-4.845-.03-.803.9 1.379.554 1.941.644 1.775.004 3.551.057 5.325-.01zm3.17-.09c1.493-.696-.644-2.55-1.084-.983-.204.63.495 1.24 1.085.983m-3.29-1.172c.2-.912-1.536-.31-2.127-.494q-2.555-.003-5.108-.001c-.457.988 1.415.454 1.97.594 1.714-.017 3.431.042 5.143-.042zm-7.814-2.294c-.032-1.11 0-2.223.003-3.335h12.547v3.373c-4.16-.008-8.32.058-12.48-.02zm7.863-.795c.313-.994-1.524-.453-2.136-.61-1.777.022-3.562-.097-5.333.035-.251.912 1.61.421 2.267.578 1.733.005 3.475.126 5.202-.003m3.269-.157c1.439-.723-.699-2.47-1.12-.962-.177.64.506 1.259 1.12.962m-3.31-1.15c.14-.962-1.653-.31-2.285-.513h-4.958c-.456.99 1.419.453 1.974.594 1.706-.013 3.415.034 5.12-.037z" style="fill:#323290" transform="translate(-.372 -1.263)"/><path d="M14.425 26.134c-.12-1.103-.038-2.227-.062-3.34h12.498c-.03 1.113.077 2.251-.078 3.343a641 641 0 0 1-12.358-.003m7.842-.814c.311-.992-1.51-.461-2.117-.627-1.772-.035-3.544-.053-5.315-.076-.832.992 1.232.66 1.799.739 1.842.01 3.691.122 5.53.022zm3.238-.127c1.506-.835-.868-2.557-1.211-.928-.137.656.61 1.242 1.211.928m-3.321-1.167c.264-.94-1.467-.37-2.034-.536-1.769.035-3.554-.083-5.312.077-.166 1.041 1.64.357 2.29.566h4.94q.059-.053.116-.107M5.172 25.432c-.157-2.026-.047-4.071-.083-6.105v-8.033c.874-.299 1.88-.075 2.802-.153q3.41-.001 6.823-.001c.662-1.168 1.272-2.364 1.907-3.546 3.207-.003 6.415-.067 9.622-.012.6.636.084 2 .24 2.902q-.015 1.27-.034 2.54c-4.127.017-8.256-.04-12.382.042-1.222.085-.37 1.926-.647 2.73-.015 3.233-.016 6.467-.024 9.701-2.696-.007-5.395.056-8.09-.015zm19.1-14.352c.215-.843.132-1.866-1-1.52-1.503.023-3.022-.085-4.513.068-.313.536-1.316 1.776-.018 1.502 1.843-.007 3.693.063 5.531-.05m-9.875 10.64c-.057-1.112-.025-2.226-.034-3.34h12.5l-.027 3.348c-4.146 0-8.293.04-12.44-.008m7.892-.812c.335-.567-.458-.65-.842-.585-2.216-.008-4.433-.08-6.648-.027-.743.846 1.117.598 1.643.638 1.918.012 3.842.125 5.756.03zm3.23-.12c1.03-.479.178-2.024-.769-1.537-.98.518-.255 2.003.769 1.537m-3.475-1.074c.762-.9-1.148-.58-1.676-.638-1.824.035-3.66-.084-5.477.075-.468.977 1.504.479 2.067.615 1.695-.014 3.394.041 5.086-.052m-7.669-4.049.013-1.674h12.448l.027 3.348h-12.5zm7.923.83c.316-.582-.467-.595-.847-.557-2.183-.032-4.366-.108-6.55-.072-.988.576.696.793 1.188.668 2.052-.01 4.115.128 6.16-.002zm3.14-.066c1.58-.714-.614-2.65-1.127-1.032-.21.643.51 1.294 1.127 1.032m-3.261-1.195c.238-1.016-1.629-.394-2.27-.573-1.667.035-3.345-.08-5.005.076-.519.98 1.488.49 2.045.618h5.108z" style="fill:#171784" transform="translate(-.372 -1.263)"/><path d="M14.446 26.084c-.057-1.078-.025-2.16-.033-3.24h12.4l-.026 3.248c-4.114 0-8.228.04-12.34-.008m7.885-.78c.165-1.114-1.769-.448-2.474-.656-1.717.015-3.441-.084-5.153.044-.628.965 1.376.614 1.929.712 1.858.048 3.717.057 5.575.044zm3.19-.079c1.527-.824-.789-2.662-1.252-1.023-.219.713.6 1.377 1.252 1.023M22.21 24.05c.422-.602-.419-.685-.828-.61-2.15.016-4.302-.043-6.45.042-.769.955 1.185.639 1.725.696 1.805.006 3.61.004 5.414.005zM5.172 25.44c-.043-4.64-.058-9.283-.001-13.923.45-.691 1.93-.121 2.753-.325 2.254-.012 4.509.011 6.762-.03.755-1.12 1.313-2.363 1.969-3.543 3.232-.01 6.47.024 9.697-.034.231.91.044 1.906.084 2.85l-.035 2.54c-4.16.015-8.322-.037-12.482.039-1.053.376-.291 2.031-.542 2.916-.008 3.18-.004 6.362-.005 9.543-2.734-.009-5.468.023-8.2-.034m19.143-14.317c.062-.74.299-1.92-.832-1.586-1.56.007-3.14-.102-4.69.025-.35.494-1.465 1.849-.122 1.614 1.88.006 3.765.02 5.644-.053m-9.902 8.944V18.43h12.399v3.273H14.413zm7.833.919c.548-1.115-1.572-.527-2.19-.707-1.779-.037-3.558-.07-5.338-.063-.62 1.159 1.489.625 2.131.78 1.756.013 3.515.103 5.269.026zm3.24-.144c1.3-.561-.06-2.437-1-1.44-.69.646.145 1.838 1 1.44m-3.254-1.2c.218-1.087-1.69-.42-2.37-.616H14.94c-.764 1.02 1.136.692 1.71.742q2.727.001 5.455.001zm-7.819-3.99v-1.636h12.399v3.273H14.413zm7.888.901c.394-.628-.42-.739-.855-.666-2.236-.015-4.474-.126-6.708-.046-.73 1.016 1.304.644 1.876.737 1.862.013 3.729.113 5.588.025zm3.4-.257c1.287-1.152-1.45-2.411-1.463-.653-.02.746.94 1.12 1.462.653m-3.602-.955c.762-1.008-1.273-.673-1.842-.723-1.77.018-3.542-.03-5.31.06-.72 1.073 1.377.625 2.049.718 1.7-.016 3.407.059 5.103-.055" style="fill:#00006b" transform="translate(-.372 -1.263)"/></svg>