<svg xmlns="http://www.w3.org/2000/svg" viewBox="0 0 32 32"><title>folder_type_view_opened@2x</title><g id="folder_opened_view"><path d="M27.4,5.5H18.2L16.1,9.7H4.3V26.5H29.5V5.5Zm0,18.7H6.6V11.8H27.4Zm0-14.5H19.2l1-2.1h7.1V9.7Z" style="fill:#db917b"/><polygon points="25.7 13.7 0.5 13.7 4.3 26.5 29.5 26.5 25.7 13.7" style="fill:#db917b"/><polygon points="14.17 28.9 12.48 10 31 10 29.31 28.9 21.73 31 14.17 28.9" style="fill:#e44f26"/><polygon points="21.74 29.39 27.87 27.69 29.31 11.54 21.74 11.54 21.74 29.39" style="fill:#f1662a"/><polygon points="20.99 24.01 14.99 20.4 14.99 19.1 20.99 15.49 20.99 17.51 17.16 19.75 20.99 21.99 20.99 24.01" style="fill:#fff"/><polygon points="22.49 24.01 22.49 21.99 26.34 19.75 22.49 17.51 22.49 15.49 28.49 19.08 28.49 20.42 22.49 24.01" style="fill:#fff"/></g></svg>