<svg viewBox="0 0 32 32" xmlns="http://www.w3.org/2000/svg"><path d="m27.9 6h-9.8l-2 4h-11.1v17h25v-21zm.1 4h-7.8l1-2h6.8z" fill="#bf5573"/><path d="m16.647 30.3-.908-19.2h-.681l.681 19.2z" fill="#b57ee5"/><path d="m17.025 30.3-.908-19.2 14.825-1.1v21z" fill="#f1618c"/><g fill="#fff"><path d="m27.159 12.888.151-2.688 1.815-.117v2.81l-.893-.835z"/><path d="m24.862 18.047 2.961-.075c.075-2.869-1.416-4.285-4.009-4.285s-4.047 1.472-4.047 3.675c0 3.844 4.966 3.917 4.966 6.013 0 .589-.276.939-.883.939-.79 0-1.1-.516-1.066-1.95h-3.108c-.239 3.549 1.839 4.359 4.211 4.359 2.3 0 4.1-1.067 4.1-3.384 0-4.12-5.039-4.01-5.039-6.051a.844.844 0 0 1 .739-.938.828.828 0 0 1 .2 0c.368.005 1.031.15.975 1.697z"/></g></svg>