<svg xmlns="http://www.w3.org/2000/svg" xmlns:xlink="http://www.w3.org/1999/xlink" viewBox="0 0 32 32"><defs><linearGradient id="a" x1="15.912" y1="6.261" x2="21.015" y2="17.058" gradientTransform="matrix(1, 0, 0, -1, 0, 32)" gradientUnits="userSpaceOnUse"><stop offset="0" stop-color="#1011a1"/><stop offset="1" stop-color="#6969e1"/></linearGradient><linearGradient id="b" x1="20.674" y1="14.273" x2="27.798" y2="2.228" gradientTransform="matrix(1, 0, 0, -1, 0, 32)" gradientUnits="userSpaceOnUse"><stop offset="0" stop-color="#b40e0e"/><stop offset="1" stop-color="#ff5959"/></linearGradient><linearGradient id="c" x1="24.797" y1="3.019" x2="14.718" y2="3.865" gradientTransform="matrix(1, 0, 0, -1, 0, 32)" gradientUnits="userSpaceOnUse"><stop offset="0" stop-color="#01a300"/><stop offset="1" stop-color="#01df00"/></linearGradient><linearGradient id="d" x1="19.47" y1="5.709" x2="19.34" y2="10.092" gradientTransform="matrix(1, 0, 0, -1, 0, 32)" gradientUnits="userSpaceOnUse"><stop offset="0" stop-color="#848484"/><stop offset="1" stop-color="#d2d2d2"/></linearGradient></defs><title>folder_type_cmake</title><path d="M27.9,6H18.1l-2,4H5V27H30V6Zm.1,4H20.2l1-2H28Z" style="fill:#c09553"/><path d="M21.453,21.2,10.062,30.933,20.5,10.091Z" style="stroke:#000;stroke-width:0.05000000074505806px;fill:url(#a)"/><path d="M21.981,27.277,20.5,10.089,30.946,30.935Z" style="stroke:#000;stroke-width:0.05000000074505806px;fill:url(#b)"/><path d="M16.827,25.124l14.13,5.809H10.065Z" style="stroke:#000;stroke-width:0.05000000074505806px;fill:url(#c)"/><path d="M16.849,25.138l4.6-3.922.64,6.056Z" style="stroke:#000;stroke-width:0.10000000149011612px;fill:url(#d)"/><path d="M30.884,31H10.092c-.128-.014-.1-.076-.069-.141L20.447,10.043c.039-.061.076-.051.105,0L30.971,30.851C31.027,30.958,30.992,31,30.884,31Z" style="fill:none;stroke:#000;stroke-width:0.15000000596046448px"/></svg>