<svg viewBox="0 0 32 32" xmlns="http://www.w3.org/2000/svg"><path d="m27.4 5.5h-9.2l-2.1 4.2h-11.8v16.8h25.2v-21zm0 18.7h-20.8v-12.4h20.8zm0-14.5h-8.2l1-2.1h7.1v2.1z" fill="#2a8243"/><path d="m25.7 13.7h-25.2l3.8 12.8h25.2z" fill="#2a8243"/><g fill="#06cc14"><path d="m19.146 30.989a.9.9 0 0 1 -.207-.025 1.041 1.041 0 0 1 -.726-1.213l2.709-14.431a1.037 1.037 0 0 1 .444-.683.894.894 0 0 1 .7-.122 1.043 1.043 0 0 1 .727 1.213l-2.716 14.432a1.033 1.033 0 0 1 -.442.681.9.9 0 0 1 -.489.148z"/><path d="m24.578 28.944h-.068a.931.931 0 0 1 -.668-.377 1.1 1.1 0 0 1 .1-1.419l4.658-4.553-4.638-4.239a1.1 1.1 0 0 1 -.141-1.416.937.937 0 0 1 .661-.4.9.9 0 0 1 .709.237l5.47 5a1.1 1.1 0 0 1 .144 1.416 1.061 1.061 0 0 1 -.142.163l-5.447 5.324a.916.916 0 0 1 -.638.264z"/><path d="m16.423 28.947a.914.914 0 0 1 -.639-.267l-5.452-5.327a.9.9 0 0 1 -.132-.153 1.094 1.094 0 0 1 .141-1.414l5.471-5a.881.881 0 0 1 .7-.238.941.941 0 0 1 .665.4 1.1 1.1 0 0 1 -.14 1.417l-4.637 4.235 4.659 4.551a1.093 1.093 0 0 1 .1 1.419.927.927 0 0 1 -.669.377z"/></g></svg>