<svg xmlns="http://www.w3.org/2000/svg" viewBox="0 0 32 32"><path fill="#5581bc" d="M27.4 5.5h-9.2l-2.1 4.2H4.3v16.8h25.2v-21h-2.1Zm0 18.7H6.6V11.8h20.8v12.4Zm0-14.5h-8.2l1-2.1h7.1v2.1h.1Z"/><path fill="#5581bc" d="M25.7 13.7H.5l3.8 12.8h25.2z"/><path fill="#e0e5eb" d="M17.8 24c.4 0 .6-.4.6-.7s-.2-.6-.6-.6-.6.2-.6.6.3.6.6.6Zm5.6-1.3c-.4 0-.7.2-.7.6s.3.6.7.6.6-.3.6-.6-.3-.6-.6-.6Z"/><path fill="#002652" d="M13 26v-.2.1Zm15.1-.4Zm.1.4v-.2.1ZM12.7 14.3l-.3.1c-.3.2-.2.6-.2.8A8.4 8.4 0 0 0 13 18a6 6 0 0 1 1-1.3c1-.8 1.8-1.2 1.8-1.2-.9-.6-2-1.3-3-1.1Zm15.9 0 .2.1c.3.2.2.6.2.8a8.4 8.4 0 0 1-.6 2.7 6 6 0 0 0-1-1.3c-1-.8-1.9-1.2-1.9-1.2.9-.6 2-1.3 3-1.1ZM17.3 27v-.4l.2-.5.5-1c.3-.3.7-.4 1.1-.6.4-.2.8-.4 1-.7.2-.4.2-.9 0-1.2l-.5-.7-.3-.2c-1-.7-2.4-.8-3.4-.4-1 .5-1.7 1.3-2.2 2.2a6.8 6.8 0 0 0-.6 2s0 .1 0 .1v.2l-.1.1v.6h.7l.2.1h.5l.3.1h.2l.3.1h.3l.3.1h.3l.3.1h.3l.3.1h.3Zm-.1-3.7c0-.3.3-.6.6-.6s.6.3.6.6-.2.6-.6.6-.6-.3-.6-.6Zm11.1 3.1v-.6l-.1-.1v-.2l-.3-1-.4-1c-.5-1-1.2-1.7-2.1-2.1a3.5 3.5 0 0 0-3.4.3l-.4.2a2 2 0 0 0-.5.7v1.2l1 .7c.3.1.8.3 1.1.7.3.2.4.6.6 1v.4l.1.4v.1h.7l.3-.1h.3l.3-.1h.3l.3-.1h.6l.3-.1h.3l.2-.1c.1-.1.1 0 .2 0h.4l.1-.1h.2ZM23.4 24c-.3 0-.6-.3-.6-.6s.3-.6.6-.6.6.2.6.6-.2.6-.6.6Zm-1.2 3.5v-.1l-.2-.1v-.1l-.1-.1h-.1l-.2-.2h-.2v-.1c0-.1-.1 0-.2 0H21l-.1-.1h-1l-.1.1h-.2l-.1.1-.1.1-.1.1h-.1v.2H19v.2l-.1.1a2.4 2.4 0 0 0 .8.8c.2.2.5.3.8.3l.8-.2.6-.5.3-.4-.1-.1Z"/><path fill="#e0e5eb" d="M29.5 21.4c-.5-.1-1-.4-1-1-.1-.2 0-.5.1-.7l1-2.4.4-2.5c0-.5.1-1.1-.3-1.4l-.4-.2c-1.8-.3-3.5.8-5 1.8l-.3-.2-.5-.1c-.8-.2-1.8-.3-2.9-.3a11.6 11.6 0 0 0-3.8.6c-1.4-1-3-2.2-4.9-1.8l-.4.2c-.4.3-.3 1-.3 1.4a14.4 14.4 0 0 0 1.4 4.9l.2.8c0 .5-.6.8-1 1 0 0-.9.3-1.6.3 0 0 .9 2.7 2.8 4.2s0-.1 0-.2v-.3a11.8 11.8 0 0 1 .7-2 5 5 0 0 1 2.1-2.2c1.1-.5 2.4-.3 3.4.3l.4.3.5.7c.1.3.2.8 0 1.2-.2.3-.6.5-1 .7s-.8.3-1.1.6c-.3.3-.4.7-.5 1l-.1.5-.1.4v.1l1.6.5.1-.1v-.1l.2-.1v-.1l.1-.1.1-.1h.1l.1-.1h.1l.1-.1h.2l.1-.1h1.3l.1.1h.1l.1.1.1.1h.1l.1.2.2.2.1.2 1.7-.5v-.2l-.1-.3-.1-.5-.5-1c-.3-.3-.7-.4-1.1-.6-.4-.2-.8-.4-1-.8a1 1 0 0 1 0-1.1l.5-.7.3-.3c1-.6 2.3-.8 3.4-.3 1 .4 1.7 1.3 2.1 2.2l.4 1 .3 1v.5c2-1.5 2.8-4.2 2.8-4.2a4 4 0 0 1-1.5-.4Zm-15.6-4.7a7.8 7.8 0 0 0-1 1.2l-.4-1-.3-1.6c0-.3 0-.7.2-.9h.3c1-.3 2.1.4 3 1 0 0-.9.4-1.8 1.3Zm13.9.5-.5-.5a6.7 6.7 0 0 0-1.8-1.3c.9-.6 2-1.3 3-1.1l.3.1c.3.2.2.6.2.9a8.4 8.4 0 0 1-.6 2.6 6 6 0 0 0-.6-.8Z"/></svg>