<svg viewBox="0 0 32 32" xmlns="http://www.w3.org/2000/svg"><path d="m27.4 5.5h-9.2l-2.1 4.2h-11.8v4h-3.8l3.8 12.8h25.2v-21zm-7.2 2.1h7.1v2.1h-8.1zm5.5 6.1h-19.1v-1.9h20.8v7.6z" fill="#969b57"/><path d="m26.893 25.147h-12.541c0-1.771-.005-3.537.018-5.3a6.083 6.083 0 0 1 3.13-5.491 14.624 14.624 0 0 1 1.715-.743 1.648 1.648 0 0 1 -.168-1.454 2.246 2.246 0 0 1 .612-.831 1.587 1.587 0 0 1 1.926 0c.692.5.822 1.168.451 2.291l1.976.827a4.6 4.6 0 0 0 2.883 7.8zm-13.09.844a.78.78 0 0 0 -.881.6 9.553 9.553 0 0 0 -.2 1.66c-.03.584.089.677.686.677 1.407 0 2.814.01 4.221-.008.354 0 .538.066.664.444a2.408 2.408 0 0 0 2.365 1.636 2.435 2.435 0 0 0 2.293-1.685.474.474 0 0 1 .536-.4h.019c1.463.019 2.927 0 4.39.008.272 0 .57-.039.593-.344a3.421 3.421 0 0 0 -.274-2.141.812.812 0 0 0 -.779-.448c-2.279.021-4.558.01-6.837.01s-4.531.02-6.8-.009zm13.461-12.011a3.713 3.713 0 1 0 .048 0zm-14.585 4.231c0-.042-.259-4.161 4.619-5.887l-.225-.639a7.3 7.3 0 0 0 -4.562 3.991 6.035 6.035 0 0 0 -.5 2.587z" fill="#eaea28"/><path d="m26.585 19.651a.68.68 0 1 1 .684.693.661.661 0 0 1 -.684-.637.523.523 0 0 1 0-.056zm.25-1.074-.175-3.451h1.209l-.169 3.451z" fill="#fff"/></svg>