<svg viewBox="0 0 32 32" xmlns="http://www.w3.org/2000/svg"><path d="m27.4 5.5h-9.2l-2.1 4.2h-11.8v16.8h25.2v-21zm0 18.7h-20.8v-12.4h20.8zm0-14.5h-8.2l1-2.1h7.1v2.1z" fill="#ffd69b"/><path d="m25.7 13.7h-25.2l3.8 12.8h25.2z" fill="#ffd69b"/><path d="m20 12.5v1.5h-4a2.006 2.006 0 0 0 -2 2v4h-1.5a2.5 2.5 0 0 0 0 5h1.5v4a2.006 2.006 0 0 0 2 2h3.8v-1.5a2.7 2.7 0 0 1 5.4 0v1.5h3.8a2.006 2.006 0 0 0 2-2v-3.8h-1.5a2.7 2.7 0 0 1 0-5.4h1.5v-3.8a2.006 2.006 0 0 0 -2-2h-4v-1.5a2.5 2.5 0 0 0 -5 0z" fill="#e76a00"/></svg>