<svg viewBox="0 0 32 32" xmlns="http://www.w3.org/2000/svg" xmlns:xlink="http://www.w3.org/1999/xlink"><mask id="a" height="19.546" maskUnits="userSpaceOnUse" width="19.545" x="11" y="11"><path d="m13.852 24.115.984-1.052 1.222 1.222-1 .994 1.2 1.205.994-.994 1.228 1.23-.973.973 2.85 2.85h4.479a.813.813 0 0 0 .814-.814v-6.517l4.163-2.774a1.632 1.632 0 0 0 .724-1.355v-7.268a.815.815 0 0 0 -.806-.815h-7.273a1.627 1.627 0 0 0 -1.354.725l-2.774 4.161h-6.518a.815.815 0 0 0 -.812.814v4.48z" fill="#fff"/><path d="m12.465 25.659h-1.465v4.887h4.886v-1.466h-3.421z" fill="#fff"/></mask><linearGradient id="b" gradientTransform="matrix(0 29.091 -29.091 0 7610.663 3431.012)" gradientUnits="userSpaceOnUse" x1="-117.563" x2="-116.891" y1="260.902" y2="260.902"><stop offset="0" stop-color="#fff"/><stop offset="1" stop-color="#fff" stop-opacity="0"/></linearGradient><linearGradient id="c" x1="-117.562" x2="-116.89" xlink:href="#b" y1="261.154" y2="261.154"/><path d="m27.9 6h-9.7l-2 4h-11.2v17h25v-21zm.1 18h-21v-12h21zm.1-14h-7.8l1-2h6.7z" fill="#99b2d9"/><path d="m25.9 14h-25.6l3.8 13h25.6z" fill="#99b2d9"/><g mask="url(#a)"><path d="m11 25.659h1.465v3.421h3.421v1.466h-4.886z" fill="#91b0f2"/><path d="m11 16.7v4.48l2.852 2.935 1.22-1.306 3.665 3.665-1.222 1.219 2.85 2.85h4.479a.813.813 0 0 0 .814-.814v-6.517l-7.328-7.326h-6.518a.815.815 0 0 0 -.812.814z" fill="#0f46bd"/><path d="m14.054 22.284 7.533-11.284h8.958v8.959l-11.284 7.533z" fill="#062aa9"/><path d="m14.524 22.756a.813.813 0 0 1 -.1-1.028l6.678-10a1.628 1.628 0 0 1 1.354-.728h7.275a.815.815 0 0 1 .814.815v7.273a1.629 1.629 0 0 1 -.724 1.354l-10 6.679a.815.815 0 0 1 -1.028-.1z" fill="#2560e0"/><path d="m15.062 25.279 6.218-6.218 1.2 1.2-6.218 6.219z" fill="#0a44c2"/><path d="m15.062 25.279 6.218-6.218 1.2 1.2-6.218 6.219z" fill="#729af2"/><path d="m17.26 25.489-1.2-1.2 5.224-5.223 1.2 1.2z" fill="#4c80f0"/><path d="m25.659 18.33a2.443 2.443 0 1 0 -2.443-2.443 2.443 2.443 0 0 0 2.443 2.443z" fill="#0a44c2"/><path d="m25.659 18.33a2.443 2.443 0 1 0 -2.443-2.443 2.443 2.443 0 0 0 2.443 2.443z" fill="#91b0f2"/><g opacity=".2"><path d="m13.852 24.115.984-1.052 1.222 1.222-1 .994 1.2 1.205.994-.994 1.228 1.23-.973.973 2.85 2.85h4.479a.813.813 0 0 0 .814-.814v-6.517l4.163-2.774a1.632 1.632 0 0 0 .724-1.355v-7.268a.815.815 0 0 0 -.806-.815h-7.273a1.627 1.627 0 0 0 -1.354.725l-2.774 4.161h-6.518a.815.815 0 0 0 -.812.814v4.48z" fill="url(#b)"/><path d="m12.465 25.659h-1.465v4.887h4.886v-1.466h-3.421z" fill="url(#c)"/></g></g></svg>