<svg xmlns="http://www.w3.org/2000/svg" viewBox="0 0 32 32"><title>folder_type_middleware_opened</title><path d="M27.4,5.5H18.2L16.1,9.7H4.3v4H.5L4.3,26.5H29.5V5.5ZM20.2,7.6h7.1V9.7H19.2Zm5.5,6.1H6.6V11.8H27.4v7.626Z" style="fill:#db7b96"/><path d="M13.589,17.966l3.036-.843a11.443,11.443,0,0,0,1.313-.384.878.878,0,0,0,.469-.5,1.767,1.767,0,0,0-.713-1.967,2.71,2.71,0,0,1-.676-2.726A2.421,2.421,0,0,1,19.333,10a1.99,1.99,0,0,1,2.082,1.335,2.111,2.111,0,0,1-.446,2.4,1.163,1.163,0,0,0,.017,1.745.737.737,0,0,0,.818.217c1.913-.55,3.836-1.067,5.823-1.613.334,1.349.683,2.669.978,4a1.053,1.053,0,0,1-.418,1.2,1.131,1.131,0,0,1-1.3-.074,1.512,1.512,0,0,0-1.843-.111,1.639,1.639,0,0,0-.59,1.768,2.845,2.845,0,0,0,1.009,1.981,1.3,1.3,0,0,0,2.084-.443,1.6,1.6,0,0,1,1.159-.848c.411-.064.836.033.961.483.462,1.67.88,3.354,1.328,5.087-1.2.335-2.366.661-3.532.985-.6.167-1.2.346-1.809.493s-.933-.114-.917-.743a1.954,1.954,0,0,1,.212-.939,1.95,1.95,0,0,0-.014-1.983,1.757,1.757,0,0,0-1.611-1.082A2.355,2.355,0,0,0,20.9,26.637a1.172,1.172,0,0,0,.756,1.077,1,1,0,0,1,.468.3c.216.288.574.665.515.917a1.314,1.314,0,0,1-.807.728c-1.074.355-2.177.618-3.269.915-.517.141-1.034.278-1.587.427-.37-1.431-.728-2.8-1.08-4.181-.109-.425-.18-.87-.738-.914a1.478,1.478,0,0,0-1.432.608,2,2,0,0,1-2.137,1,1.91,1.91,0,0,1-1.53-1.666,2.225,2.225,0,0,1,1.724-2.776,2.376,2.376,0,0,1,.863.145,5.737,5.737,0,0,0,1.154.28c.8.007,1.107-.46.9-1.256C14.338,20.836,13.97,19.428,13.589,17.966Z" style="fill:#e52e62"/></svg>