<svg xmlns="http://www.w3.org/2000/svg" xmlns:xlink="http://www.w3.org/1999/xlink" viewBox="0 0 32 32"><defs><radialGradient id="a" cx="-100.943" cy="-69.047" r="0.004" gradientTransform="matrix(2074.534, 0, 0, -2395.464, 209432.559, -165379.819)" gradientUnits="userSpaceOnUse"><stop offset="0" stop-color="#93b4e7"/><stop offset="0.593" stop-color="#b9d1f8"/><stop offset="1" stop-color="#9cb6e0"/></radialGradient></defs><title>folder_type_webpack_opened</title><path d="M27.4,5.5H18.2L16.1,9.7H4.3V26.5H29.5V5.5Zm0,18.7H6.6V11.8H27.4Zm0-14.5H19.2l1-2.1h7.1V9.7Z" style="fill:#8da2cc"/><polygon points="25.7 13.7 0.5 13.7 4.3 26.5 29.5 26.5 25.7 13.7" style="fill:#8da2cc"/><path d="M21.9,10.032l-9.079,5.242V25.758L21.9,31l9.079-5.242V15.274Z" style="fill:url(#a)"/><path d="M21.9,15.35l-4.5,2.6v5.2l4.5,2.6,4.5-2.6v-5.2Z" style="fill:#6f95db"/><path d="M21.9,10l-9.1,5.278,9.1,4.954L31,15.31Zm0,10.911-9.1,4.824,9.1,5.245L30.966,25.7,21.9,20.911Z" style="fill:#fff;fill-opacity:0.100000001490116"/></svg>