<?xml version="1.0" encoding="UTF-8" standalone="no"?>
<!-- Created with Inkscape (http://www.inkscape.org/) -->

<svg
   width="32mm"
   height="32mm"
   viewBox="0 0 32 32"
   version="1.1"
   id="svg1"
   xml:space="preserve"
   inkscape:version="1.4.3 (0d15f75, 2025-12-25)"
   sodipodi:docname="frontend_closed.svg"
   xmlns:inkscape="http://www.inkscape.org/namespaces/inkscape"
   xmlns:sodipodi="http://sodipodi.sourceforge.net/DTD/sodipodi-0.dtd"
   xmlns="http://www.w3.org/2000/svg"
   xmlns:svg="http://www.w3.org/2000/svg"><sodipodi:namedview
     id="namedview1"
     pagecolor="#ffffff"
     bordercolor="#000000"
     borderopacity="0.25"
     inkscape:showpageshadow="2"
     inkscape:pageopacity="0.0"
     inkscape:pagecheckerboard="0"
     inkscape:deskcolor="#d1d1d1"
     inkscape:document-units="px"
     showgrid="true"
     showguides="true"
     inkscape:zoom="2.534831"
     inkscape:cx="97.442394"
     inkscape:cy="48.721197"
     inkscape:window-width="1366"
     inkscape:window-height="705"
     inkscape:window-x="1358"
     inkscape:window-y="-8"
     inkscape:window-maximized="1"
     inkscape:current-layer="layer1"><inkscape:grid
       id="grid1"
       units="px"
       originx="0"
       originy="0"
       spacingx="0.26458333"
       spacingy="0.26458333"
       empcolor="#0099e5"
       empopacity="0.30196078"
       color="#0099e5"
       opacity="0.14901961"
       empspacing="5"
       enabled="true"
       visible="true" /><sodipodi:guide
       position="2.5094433,18.198061"
       orientation="1,0"
       id="guide1"
       inkscape:locked="false" /><sodipodi:guide
       position="24.282554,29.416749"
       orientation="0,-1"
       id="guide2"
       inkscape:locked="false" /><sodipodi:guide
       position="29.153826,16.574304"
       orientation="1,0"
       id="guide3"
       inkscape:locked="false" /><sodipodi:guide
       position="7.2331012,2.91998"
       orientation="0,-1"
       id="guide4"
       inkscape:locked="false" /></sodipodi:namedview><defs
     id="defs1" /><g
     inkscape:label="Layer 1"
     inkscape:groupmode="layer"
     id="layer1"><g
       id="g9"
       inkscape:transform-center-x="20.667058"
       inkscape:transform-center-y="-6.8890195"
       transform="translate(0.34220926,0.10713469)"><path
         style="fill:#d1e3f6"
         d="m 11.530112,25.824176 c -0.924299,-0.112866 -0.370863,-1.616132 -1.110959,-1.557606 -2.2125229,0.0034 -4.425046,0.0067 -6.637569,0.01012 C 3.3587071,23.954324 3.5976973,23.379926 3.5295157,22.922497 3.5088983,18.564981 3.4071434,14.205937 3.4705074,9.8495043 4.3707478,9.2862291 5.6301029,9.6851403 6.670878,9.5395688 c 2.1759803,-0.020746 4.351988,-0.038476 6.527982,-0.057731 0.640372,-1.1823098 1.183544,-2.4258819 1.923396,-3.5479365 3.17782,-0.1184489 6.362758,-0.1136956 9.543386,-0.1120967 0.720012,-0.1173151 0.455753,0.6354132 0.507616,1.0488255 0.01382,1.59074 0.02765,3.1814798 0.04148,4.7722198 0.881653,0.06188 2.049579,-0.199688 2.477221,0.821648 0.198502,1.902786 0.07922,3.834263 0.141887,5.747869 0.0049,2.185751 0.06975,4.372533 0.01648,6.557741 -0.09457,0.717337 -0.845955,1.199309 -1.538774,1.077417 -4.824803,0.04225 -9.649605,0.0845 -14.474408,0.126748 -0.102344,-0.05003 -0.204689,-0.100065 -0.307033,-0.150097 z m 15.23127,-0.932347 c 0.468668,-0.953535 0.124034,-2.188118 0.223121,-3.259014 -0.02653,-2.906324 -0.01727,-5.813912 -0.101741,-8.719162 -0.246353,-0.626849 -1.259887,-0.420846 -1.684793,-0.335983 -0.14663,0.647848 0.195098,0.659854 0.725776,0.78787 0.274856,0.695588 -0.03516,1.425053 -0.707224,1.352956 0.05043,0.355178 -0.186159,0.981142 0.386303,0.843814 1.090248,0.221991 0.438888,1.815688 0.625699,2.657888 -0.0012,1.940886 0.02318,3.883211 -0.03961,5.823037 -0.960176,0.34445 -2.178535,0.0742 -3.236892,0.176358 -3.756667,0.0183 -7.513769,0.07315 -11.270315,0.03827 -0.101685,0.56535 0.310841,0.948543 0.853101,0.791592 4.693863,-0.04029 9.390083,0.01082 14.081853,-0.132541 l 0.144548,-0.02508 z M 22.724985,8.7513283 c 0.05356,-0.4429708 0.0317,-0.8088313 -0.51235,-0.6408288 -1.628065,0.02193 -3.256131,0.043859 -4.884197,0.065788 -0.256359,0.5512883 -1.114914,1.4993855 0.02434,1.2558178 1.79269,0.00647 3.585262,-0.020308 5.377871,-0.033123 -0.0019,-0.2158849 -0.0038,-0.4317697 -0.0057,-0.6476546 z"
         id="path15" /><path
         style="fill:#a7cff8"
         d="m 11.745596,25.864181 c -1.1844,-0.218465 -0.442778,-2.231967 -1.8983451,-1.703344 -2.0005466,-0.01909 -4.0031208,0.06839 -6.0022681,3.7e-4 C 3.4464513,23.322366 3.7148589,22.128449 3.6165684,21.142539 3.5785083,17.368604 3.5488893,13.594589 3.515204,9.8206119 4.4265847,9.507008 5.4783812,9.7332981 6.4395476,9.6409905 8.6835286,9.607073 10.929974,9.629609 13.172036,9.5333814 13.853105,8.3863062 14.43482,7.183214 15.060388,6.0052266 c 3.245199,-0.032263 6.490578,-0.1207815 9.735749,-0.098435 0.661695,0.6281754 0.10922,2.1095257 0.289798,3.0518959 0.0742,0.8812919 -0.153037,1.9857205 0.120633,2.7502465 0.869653,0.04743 2.018309,-0.205636 2.436043,0.80579 0.198266,1.887615 0.07902,3.804011 0.141491,5.702484 0.0047,2.168016 0.06943,4.337073 0.01601,6.504538 -0.09544,0.71675 -0.84622,1.198476 -1.538787,1.076133 -4.838295,0.02256 -9.678409,0.125532 -14.51573,0.0663 z M 26.725285,24.97653 c 0.721536,-0.813917 0.193878,-2.156554 0.343706,-3.191328 -0.05363,-2.9382 0.01597,-5.881536 -0.136628,-8.816279 -0.07174,-1.077224 -2.790639,-0.428338 -1.510157,0.29031 0.893202,0.01668 0.576656,1.674495 -0.273824,1.458746 -0.299249,0.826113 0.271751,0.988819 0.866754,1.030265 0.236154,1.537526 0.0703,3.118088 0.133896,4.67204 -0.03325,1.208242 0.10217,2.44135 -0.07483,3.632574 -0.277532,0.239911 -0.751678,0.04687 -1.107483,0.114421 -4.101092,0.01626 -8.203542,0.121562 -12.303671,0.05412 -0.781845,-0.537728 -1.565985,0.555159 -0.60875,0.8772 3.343489,0.121161 6.693727,-0.01667 10.039756,-0.01245 1.542591,-0.03743 3.09416,0.01768 4.631228,-0.10962 z M 22.752138,9.4201344 c 0.322482,-0.8604222 -0.0064,-1.7596902 -1.076849,-1.40189 -1.448253,0.038531 -2.913483,-0.052427 -4.350283,0.1076784 -0.336617,0.5449106 -1.223294,1.7229661 0.06501,1.4029394 1.742359,-0.013209 3.487217,0.017291 5.227684,-0.066153 l 0.134434,-0.042579 z"
         id="path14" /><path
         style="fill:#81bdfa"
         d="M 11.730964,25.813049 C 10.609028,25.482608 11.258939,23.603058 9.7734389,24.109858 7.7657376,24.085029 5.7532615,24.194844 3.7488045,24.092808 3.5987245,20.006253 3.6380463,15.911124 3.5823799,11.820663 3.5767277,11.17043 3.5710756,10.520198 3.5654234,9.8699657 4.476804,9.5563613 5.5286006,9.7826514 6.489767,9.690344 c 2.2435236,-0.033538 4.489415,-0.012186 6.731078,-0.1071888 0.679778,-1.1479329 1.262544,-2.3504883 1.888151,-3.52856 3.282764,-0.034765 6.565851,-0.1202341 9.848608,-0.094236 0.186292,1.0856473 0.03154,2.2405623 0.07749,3.3518468 0.209004,0.773256 -0.554186,2.55606 0.676412,2.452274 1.075383,-0.249277 2.243048,0.500331 1.968533,1.698406 0.0381,3.706394 0.124136,7.414565 0.06693,11.120604 0.03044,0.765685 -0.777743,1.292622 -1.480723,1.165397 -4.844837,0.02232 -9.691306,0.121816 -14.535283,0.06416 z m 15.099759,-0.826071 c 0.57139,-0.848529 0.17652,-2.108989 0.289129,-3.125839 -0.05262,-2.959591 0.01408,-5.924102 -0.136584,-8.880279 -0.08563,-0.891083 -2.472638,-0.907422 -1.869055,0.271093 1.041666,-0.292531 1.035905,1.603124 0.01186,1.364154 -0.273125,0.745551 0.07829,1.275321 0.867866,1.156129 0.176326,1.992607 0.07796,4.011915 0.128719,6.015303 -0.206769,0.642449 0.451136,2.16855 -0.386414,2.323265 -4.355346,0.0176 -8.712105,0.126737 -13.066448,0.0608 -0.837226,-0.553322 -1.651051,0.57122 -0.644593,0.98967 3.368383,0.0947 6.743035,-0.03529 10.113774,-0.04168 1.560375,-0.05288 3.142223,0.0361 4.691751,-0.132615 z M 22.802357,9.4694882 c 0.303393,-0.8777189 0.05116,-1.8847192 -1.08893,-1.5013704 -1.442389,0.00502 -2.884705,0.022127 -4.327055,0.0334 -0.422185,0.5159572 -1.438463,1.8901441 -0.05199,1.5842999 1.776744,-0.012672 3.555972,0.010694 5.330781,-0.073622 l 0.137197,-0.042708 z"
         id="path13" /><path
         style="fill:#78bafd"
         d="m 11.992273,25.824028 c -1.427064,0.02136 -0.549908,-2.293217 -2.1100783,-1.765033 -2.0274638,-0.02565 -4.05982,0.08645 -6.0840364,-0.01641 C 3.6499358,19.428576 3.6435114,14.808444 3.6574733,10.191685 3.8495927,9.348081 5.4777344,9.9967157 6.235418,9.758251 c 2.3512751,-0.04106 4.702754,-0.068957 7.054138,-0.1029352 0.617124,-1.1921443 1.236434,-2.3831556 1.854739,-3.5746879 3.262594,-0.023912 6.526083,-0.1101661 9.788177,-0.065366 0.123124,1.855365 0.02434,3.7271219 0.0427,5.5895991 0.771959,0.525246 2.276412,-0.24324 2.638832,1.039601 0.169386,3.938897 0.162435,7.887217 0.130319,11.829877 0.05559,0.764112 -0.716233,1.373323 -1.444941,1.228343 -4.76893,0.04435 -9.538043,0.13083 -14.307109,0.121346 z m 14.833525,-0.805425 c 0.599496,-0.809362 0.180446,-2.095266 0.302107,-3.097892 -0.05417,-3.006686 0.02412,-6.01904 -0.13317,-9.021919 -0.168008,-0.823267 -2.564324,-0.807226 -1.909791,0.358828 1.061771,-0.219008 1.015855,1.549687 -0.0061,1.333876 -0.310712,0.782834 0.121674,1.266943 0.908986,1.197482 0.126716,2.70692 0.08,5.424367 0.07402,8.135124 -0.908177,0.363926 -2.077679,0.09199 -3.082745,0.203435 -3.375212,0.02164 -6.751766,0.105728 -10.126419,0.05069 -0.863535,-0.640858 -1.965479,0.370279 -0.874877,0.987568 4.435765,0.0711 8.874778,-0.03689 13.311462,-0.06684 0.510399,-0.0238 1.033282,0.01297 1.53652,-0.08036 z M 22.871229,9.5371734 c 0.219687,-0.9080235 0.118056,-2.0001836 -1.089493,-1.6127208 -1.504687,0.00779 -3.009186,0.035003 -4.513768,0.053199 -0.187909,0.5029576 -1.250029,1.5552429 -0.429333,1.6540728 2.009528,-0.00781 4.028219,0.033897 6.032594,-0.094551 z"
         id="path12" /><path
         style="fill:#4b97e6"
         d="m 11.687647,25.754184 c -1.196974,-0.673978 -0.711642,-2.265223 -0.857086,-3.392049 -5.57e-4,-3.154655 -0.12347,-6.313004 -0.0088,-9.465712 0.162449,-1.355439 1.808326,-0.967603 2.764052,-1.040053 4.264762,-0.03103 8.531469,-0.120787 12.795467,-0.03882 1.447262,-0.04827 1.256515,1.639962 1.266711,2.628477 0.01472,3.458765 0.130949,6.920524 0.04913,10.377709 -0.430727,1.268029 -1.955255,0.743941 -2.955121,0.881373 -4.314263,0.02513 -8.629774,0.125378 -12.943574,0.06729 l -0.110739,-0.01824 z m 15.097087,-0.703832 c 0.78054,-0.829237 0.23071,-2.218483 0.383569,-3.287371 -0.02392,-2.947312 -0.05129,-5.894596 -0.07694,-8.841894 -0.475623,-0.972366 -1.745587,-0.369475 -2.595374,-0.504563 -4.208505,0.09637 -8.420066,0.08384 -12.626802,0.234712 -0.641014,0.70423 -0.188981,2.041982 -0.327972,3.000003 0.01183,3.034699 8.93e-4,6.070343 0.02204,9.10449 0.599853,0.943276 2.050378,0.319804 3.020201,0.491916 3.979415,-0.04801 7.961042,-0.02365 11.938855,-0.141508 l 0.172187,-0.02459 0.09021,-0.03119 z M 12.612649,24.097579 c -0.256243,-0.248439 -0.04677,-0.744443 -0.120135,-1.090093 0.0024,-2.371857 -0.101364,-4.748647 0.0032,-7.116721 1.495681,-0.185093 3.040829,-0.06868 4.554902,-0.124345 2.940563,0.0043 5.885556,-0.112397 8.823232,0.0072 0.313936,1.003347 0.08255,2.297749 0.177906,3.405673 -0.01854,1.598918 0.102651,3.210853 -0.03625,4.801085 -2.44197,0.17228 -4.902763,0.08752 -7.35242,0.142111 -2.014234,-0.01928 -4.043218,0.105187 -6.050428,-0.02487 z m 8.173272,-9.598245 c -0.615147,-0.941371 0.749676,-1.749481 1.224513,-0.919175 -0.0671,0.398718 0.243943,1.197079 -0.449916,0.992959 -0.247274,-0.02285 -0.581887,0.103884 -0.774597,-0.07378 z m 1.932849,-0.0044 c -0.585047,-0.991989 0.615534,-1.631482 1.227538,-0.939342 0.273248,1.085791 -0.361043,1.166448 -1.227538,0.939342 z m 1.936817,0.0074 c -0.328662,-0.71305 -0.04143,-1.511698 0.868682,-1.135428 0.661057,0.398636 0.325379,1.529873 -0.868682,1.135428 z"
         id="path11" /><path
         style="fill:#2a8bf1"
         d="m 11.914524,25.728117 c -1.253493,-0.304896 -0.82956,-1.80396 -0.939365,-2.740148 -0.01626,-3.334325 -0.13376,-6.670486 -0.05709,-10.003999 0.104032,-1.335813 1.732531,-0.943159 2.656712,-1.034537 4.244514,-0.02529 8.490104,-0.124288 12.734244,-0.06514 1.446822,-0.113534 1.295473,1.614733 1.292103,2.594942 0.01586,3.429654 0.110402,6.861091 0.04166,10.289876 -0.386963,1.250883 -1.931421,0.739525 -2.904628,0.873222 -4.274136,0.04983 -8.549416,0.121066 -12.823641,0.08578 z m 14.985332,-0.657905 c 0.63169,-0.818695 0.19562,-2.114988 0.320544,-3.129357 -0.02419,-3.017454 -0.05057,-6.034891 -0.07558,-9.052338 -0.406938,-0.895413 -1.65192,-0.397326 -2.449817,-0.530509 -4.207846,0.05956 -8.418748,0.03118 -12.624322,0.176964 -1.208092,0.218379 -0.390155,1.999414 -0.635687,2.868332 0.04758,3.115604 -0.01785,6.235328 0.119204,9.348258 0.330497,1.018821 1.856736,0.355384 2.691059,0.545059 4.143466,-0.0563 8.289653,-0.03564 12.431168,-0.166292 l 0.149596,-0.02639 0.07384,-0.03373 z M 12.767429,24.065111 c -0.351126,-0.884475 -0.08313,-2.017749 -0.190003,-2.994875 0.0076,-1.700211 -0.089,-3.40732 0.01927,-5.103041 3.766859,-0.138876 7.541927,-0.128149 11.31212,-0.15052 0.942961,0.0091 2.45059,-0.332039 2.042769,1.121109 0.02132,2.269628 0.04932,4.540074 0.01116,6.809475 -0.839482,0.538897 -2.25504,0.124402 -3.310662,0.284851 -3.29441,0.02713 -6.590793,0.08898 -9.884661,0.033 z m 8.259974,-9.623991 c -0.941821,-0.99751 1.260987,-1.57352 0.882931,-0.221378 0.01061,0.407769 -0.644751,0.195164 -0.882931,0.221378 z m 1.794366,-0.141821 c -0.666251,-1.64048 2.044257,-0.556111 0.663258,0.118047 -0.186996,-0.03959 -0.56991,0.118393 -0.663258,-0.118047 z m 1.927524,0.07078 c -0.630051,-1.001169 1.196732,-1.402555 0.956332,-0.319406 0.08563,0.505613 -0.661866,0.28254 -0.956332,0.319406 z"
         id="path10" /><path
         style="fill:#1a7be4"
         d="m 11.805554,25.681564 c -1.185939,-0.488161 -0.615515,-2.004548 -0.778628,-2.986113 -0.0077,-3.241815 -0.120044,-6.485611 -0.03473,-9.72641 0.111193,-1.318456 1.740387,-0.903934 2.652246,-1.00095 4.322087,-0.03833 8.644337,-0.05743 12.966495,-0.08756 1.221638,0.341403 0.945297,1.745213 0.989862,2.709833 0.03749,3.347242 0.06132,6.694623 0.0919,10.041935 -0.298793,1.027298 -1.404797,1.014765 -2.287781,0.960331 -4.532873,0.0466 -9.066321,0.102601 -13.599363,0.08894 z m 15.186084,-0.585869 c 0.5489,-0.89569 0.172313,-2.136641 0.278342,-3.174451 -0.04448,-2.994589 -0.0061,-5.99218 -0.120718,-8.984669 -0.412174,-1.062061 -2.020359,-0.380314 -2.949094,-0.576111 -4.128582,0.03213 -8.257109,0.0715 -12.385673,0.106154 -0.791216,0.564079 -0.217417,1.776952 -0.394492,2.606607 0.015,3.210018 0.07232,6.42289 0.03977,9.631127 0.03715,0.583774 0.616475,0.766638 1.104215,0.666879 4.754153,-0.04987 9.508306,-0.09974 14.262459,-0.149615 0.05506,-0.04197 0.110128,-0.08395 0.165192,-0.125921 z"
         id="path9" /></g><path
       style="fill:#000000"
       d="m 27.693424,24.263905 c 0.0019,-0.05802 0.01358,-0.06992 0.02982,-0.03034 0.01469,0.03581 0.0133,0.07877 -0.0031,0.09546 -0.0164,0.01669 -0.02842,-0.01261 -0.02672,-0.06512 z"
       id="path8" /><path
       style="fill:#000000"
       d="m 27.693424,24.263905 c 0.0019,-0.05802 0.01358,-0.06992 0.02982,-0.03034 0.01469,0.03581 0.0133,0.07877 -0.0031,0.09546 -0.0164,0.01669 -0.02842,-0.01261 -0.02672,-0.06512 z"
       id="path7" /><path
       style="fill:#000000"
       d="m 27.693424,24.263905 c 0.0019,-0.05802 0.01358,-0.06992 0.02982,-0.03034 0.01469,0.03581 0.0133,0.07877 -0.0031,0.09546 -0.0164,0.01669 -0.02842,-0.01261 -0.02672,-0.06512 z"
       id="path6" /><path
       style="fill:#000000"
       d="m 27.693424,24.263905 c 0.0019,-0.05802 0.01358,-0.06992 0.02982,-0.03034 0.01469,0.03581 0.0133,0.07877 -0.0031,0.09546 -0.0164,0.01669 -0.02842,-0.01261 -0.02672,-0.06512 z"
       id="path5" /><path
       style="fill:#000000"
       d="m 27.693424,24.263905 c 0.0019,-0.05802 0.01358,-0.06992 0.02982,-0.03034 0.01469,0.03581 0.0133,0.07877 -0.0031,0.09546 -0.0164,0.01669 -0.02842,-0.01261 -0.02672,-0.06512 z"
       id="path4" /></g></svg>
