<svg version="1.1" viewBox="0 0 32 32" xmlns="http://www.w3.org/2000/svg"><title>folder_type_histoire_opened</title><path d="M27.4,5.5H18.2L16.1,9.7H4.3v4H.5L4.3,26.5H29.5V5.5ZM20.2,7.6h7.1V9.7H19.2Zm5.5,6.1H6.6V11.8H27.4v7.626Z" fill="#a3aeff"/><g transform="matrix(.71435 0 0 .71435 10.551 9.2651)"><path d="m6.65 5.18 16.86-1.35c0.25-0.02 0.47 0.17 0.49 0.42l1.77 22.08a0.45 0.45 0 0 1-0.42 0.49l-16.86 1.35a0.45 0.45 0 0 1-0.49-0.42l-1.77-22.08a0.45 0.45 0 0 1 0.42-0.49z" fill="#34d399"/><path d="m21.86 21.64-2.19-10.17-4.67 3.53zm-4.86-4.7-6.86-6.64 2.19 10.18z" fill="#b4fae2" stroke="#b4fae2" stroke-linejoin="round" stroke-width=".47"/></g></svg>
