<svg xmlns="http://www.w3.org/2000/svg" viewBox="0 0 32 32"><title>folder_type_github_opened</title><path d="M27.4,5.5H18.2L16.1,9.7H4.3V26.5H29.5V5.5Zm0,18.7H6.6V11.8H27.4Zm0-14.5H19.2l1-2.1h7.1V9.7Z" style="fill:#bbb"/><polygon points="25.7 13.7 0.5 13.7 4.3 26.5 29.5 26.5 25.7 13.7" style="fill:#bbb"/><circle cx="20.5" cy="20.5" r="10.48"/><path d="M20.5,10a10.5,10.5,0,0,0-3.318,20.463c.525.1.717-.228.717-.506,0-.249-.009-.91-.014-1.786-2.921.635-3.537-1.408-3.537-1.408a2.781,2.781,0,0,0-1.166-1.536c-.953-.651.072-.638.072-.638a2.206,2.206,0,0,1,1.608,1.082,2.236,2.236,0,0,0,3.056.872,2.243,2.243,0,0,1,.667-1.4c-2.332-.265-4.783-1.166-4.783-5.189a4.059,4.059,0,0,1,1.081-2.818,3.777,3.777,0,0,1,.1-2.779s.882-.282,2.887,1.076a9.952,9.952,0,0,1,5.257,0c2-1.359,2.885-1.076,2.885-1.076a3.771,3.771,0,0,1,.1,2.779A4.052,4.052,0,0,1,27.2,19.951c0,4.034-2.455,4.921-4.794,5.181a2.506,2.506,0,0,1,.713,1.944c0,1.4-.013,2.536-.013,2.88,0,.281.189.607.722.5A10.5,10.5,0,0,0,20.5,10Z" style="fill:#fff;fill-rule:evenodd"/></svg>