<svg viewBox="0 0 32 32" xmlns="http://www.w3.org/2000/svg" xmlns:xlink="http://www.w3.org/1999/xlink"><radialGradient id="a" cx="29.86" cy="-463.041" gradientTransform="matrix(1 0 0 -1 0 -442)" gradientUnits="userSpaceOnUse" r="15.86"><stop offset=".045" stop-color="#f4793b"/><stop offset="1" stop-color="#fff33e"/></radialGradient><radialGradient id="b" cx="13.122" cy="-458.585" gradientTransform="matrix(1 0 0 -1 0 -442)" gradientUnits="userSpaceOnUse" r="7.97"><stop offset=".258" stop-color="#ee3d85"/><stop offset="1" stop-color="#7b5aa6"/></radialGradient><linearGradient id="c" gradientTransform="matrix(1 0 0 -1 0 -442)" gradientUnits="userSpaceOnUse" x1="13.453" x2="18.024" y1="-458.063" y2="-454.205"><stop offset="0" stop-color="#ee3d85"/><stop offset="1" stop-color="#f05872"/></linearGradient><radialGradient id="d" cx="19.652" cy="-453.559" gradientTransform="matrix(1 0 0 -1 0 -442)" gradientUnits="userSpaceOnUse" r="14.153"><stop offset=".134" stop-color="#f05872"/><stop offset="1" stop-color="#f4793b"/></radialGradient><path d="m27.4 5.5h-9.2l-2.1 4.2h-11.8v16.8h25.2v-21zm0 18.7h-20.8v-12.4h20.8zm0-14.5h-8.2l1-2.1h7.1v2.1z" fill="#dbd47b"/><path d="m25.7 13.7h-25.2l3.8 12.8h25.2z" fill="#dbd47b"/><path d="m30.662 21.651a.749.749 0 0 0 -.762-1.288l-13.836 7.587a1.636 1.636 0 1 0 1.791 2.733z" fill="url(#a)" opacity=".99688"/><path d="m14.551 14.655a1.8 1.8 0 1 0 -1.844 3.062l7.412 3.061a.694.694 0 0 0 .738-1.157z" fill="url(#b)"/><path d="m19.995 10.065a1.422 1.422 0 0 0 -1.188.158l-6.433 4.366a1.8 1.8 0 1 0 2.105 2.929q.065-.047.125-.1l5.864-4.884a1.426 1.426 0 0 0 -.474-2.469z" fill="url(#c)" opacity=".99891"/><path d="m20.574 10.413a1.426 1.426 0 0 0 -2.006 2.027l.057.054 11.166 9.129a.748.748 0 0 0 1.021-1.086z" fill="url(#d)" opacity=".99688"/></svg>