<svg id="folder_type_nix" xmlns="http://www.w3.org/2000/svg" xmlns:xlink="http://www.w3.org/1999/xlink" viewBox="0 0 32 32"><defs><linearGradient id="linear-gradient" x1="466" y1="-593.89" x2="470.59" y2="-601.83" gradientTransform="matrix(0.8, 0, 0, -0.8, -358.55, -451.97)" gradientUnits="userSpaceOnUse"><stop offset="0" stop-color="#699ad7"/><stop offset="0.24" stop-color="#7eb1dd"/><stop offset="1" stop-color="#7ebae4"/></linearGradient><linearGradient id="linear-gradient-2" x1="644.09" y1="-331.98" x2="648.68" y2="-339.92" gradientTransform="matrix(0.4, 0.69, 0.69, -0.4, -11.02, -562.13)" xlink:href="#linear-gradient"/><linearGradient id="linear-gradient-3" x1="150.31" y1="-570.49" x2="154.89" y2="-578.42" gradientTransform="matrix(0.4, -0.69, -0.69, -0.4, -436.89, -95.74)" xlink:href="#linear-gradient"/><linearGradient id="linear-gradient-4" x1="191.06" y1="-23.59" x2="195.65" y2="-31.53" gradientTransform="matrix(-0.8, 0, 0, 0.8, 180.28, 39.86)" xlink:href="#linear-gradient"/><linearGradient id="linear-gradient-5" x1="-327.97" y1="-1030.02" x2="-323.46" y2="-1037.99" gradientTransform="matrix(0.8, 0, 0, -0.8, 276.69, -800.92)" gradientUnits="userSpaceOnUse"><stop offset="0" stop-color="#415e9a"/><stop offset="0.23" stop-color="#4a6baf"/><stop offset="1" stop-color="#5277c3"/></linearGradient><linearGradient id="linear-gradient-6" x1="-287.08" y1="-482.71" x2="-282.58" y2="-490.67" gradientTransform="matrix(-0.4, 0.69, 0.69, 0.4, 242.8, 407.85)" xlink:href="#linear-gradient-5"/><linearGradient id="linear-gradient-7" x1="-781.4" y1="-721.29" x2="-776.89" y2="-729.26" gradientTransform="matrix(-0.4, -0.69, -0.69, 0.4, -787.29, -225.66)" xlink:href="#linear-gradient-5"/></defs><path id="folder" d="M27.5,5.5H18.2L16.1,9.7H4.4V26.5H29.6V5.5Zm0,4.2H19.3l1.1-2.1h7.1Z" style="fill:#4a5e7f"/><g id="icon"><path id="path3336-6" d="M16.83,22.29l5,8.69-2.3,0L18.2,28.66,16.86,31H15.71l-.58-1,1.92-3.3-1.37-2.38Z" style="fill-rule:evenodd;fill:url(#linear-gradient)"/><g id="use3439-6"><path id="path3336-6-2" data-name="path3336-6" d="M18.64,18.71l-5,8.69-1.17-2,1.35-2.33H11.13l-.57-1,.58-1H15l1.37-2.37Z" style="fill-rule:evenodd;fill:url(#linear-gradient-2)"/></g><g id="use3445-0"><path id="path3336-6-3" data-name="path3336-6" d="M19,25.65H29l-1.13,2H25.22L26.56,30,26,31H24.81l-1.89-3.32H20.18Z" style="fill-rule:evenodd;fill:url(#linear-gradient-3)"/></g><g id="use3449-5"><path id="path3336-6-4" data-name="path3336-6" d="M24.85,21.85l-5-8.7,2.3,0,1.33,2.34,1.35-2.32H26l.59,1-1.92,3.3L26,19.84Z" style="fill-rule:evenodd;fill:url(#linear-gradient-4)"/></g><path id="path4260-0" d="M16.83,22.29l5,8.69-2.3,0L18.2,28.66,16.86,31H15.71l-.58-1,1.92-3.3-1.37-2.38Z" style="fill-rule:evenodd;fill:url(#linear-gradient-5)"/><g id="use4354-5"><path id="path4260-0-2" data-name="path4260-0" d="M22.64,18.46h-10l1.13-2h2.68l-1.33-2.33.57-1h1.17l1.9,3.32h2.73Z" style="fill-rule:evenodd;fill:url(#linear-gradient-6)"/></g><g id="use4362-2"><path id="path4260-0-3" data-name="path4260-0" d="M23,25.42l5-8.69,1.17,2-1.35,2.33h2.68l.57,1-.58,1H26.72l-1.38,2.37Z" style="fill-rule:evenodd;fill:url(#linear-gradient-7)"/></g></g></svg>