<svg xmlns="http://www.w3.org/2000/svg" viewBox="0 0 32 32"><title>folder_type_client_opened</title><path d="M27.4,5.5H18.2L16.1,9.7H4.3V26.5H29.5V5.5Zm0,18.7H6.6V11.8H27.4Zm0-14.5H19.2l1-2.1h7.1V9.7Z" style="fill:#dd7ab9"/><polygon points="25.7 13.7 0.5 13.7 4.3 26.5 29.5 26.5 25.7 13.7" style="fill:#dd7ab9"/><rect x="10.454" y="16.071" width="16.576" height="11.101" style="fill:#fff"/><path d="M26.944,15.6H10.557a.549.549,0,0,0-.557.54V27.951a.548.548,0,0,0,.557.54h6.275v.834s.02.749-.476.9c-.1.032-.429.1-.429.1a.338.338,0,1,0,0,.676h5.667a.338.338,0,1,0,0-.676,3.139,3.139,0,0,1-.469-.107.792.792,0,0,1-.421-.639c-.029-.274-.014-1.09-.014-1.09h6.255a.549.549,0,0,0,.557-.54V16.136A.55.55,0,0,0,26.944,15.6Zm-.292,10.34h-15.8V16.451h15.8Z" style="fill:#eec06e"/><rect x="18.54" y="22.132" width="10.688" height="8.848" style="fill:#fff"/><path d="M29.491,28.92V22.109a.351.351,0,0,0-.357-.346H18.464a.351.351,0,0,0-.356.346v6.806l-1.364,1.54c0,.22.172.527.383.527H30.472c.212,0,.384-.307.384-.527ZM24.535,30.8H23.064c-.126,0-.227-.217-.227-.327v-.012h1.922v.012C24.762,30.583,24.66,30.8,24.535,30.8Zm4.385-2.323H18.68V22.351H28.92Z" style="fill:#f16d6f"/><rect x="23.926" y="21.534" width="6.795" height="9.223" style="fill:#fff"/><path d="M30.5,21.231H24.239a.451.451,0,0,0-.458.444v8.886a.451.451,0,0,0,.458.443H30.5a.451.451,0,0,0,.458-.443V21.674A.451.451,0,0,0,30.5,21.231Zm-3.131,9.527a.343.343,0,1,1,.343-.343A.343.343,0,0,1,27.371,30.757Zm3.047-.919H24.323V21.793h6.095Z" style="fill:#489cd6"/><rect x="27.911" y="25.169" width="2.946" height="5.735" style="fill:#fff"/><path d="M30.726,25.127H28.059a.27.27,0,0,0-.274.266v5.325a.27.27,0,0,0,.274.266h2.667A.27.27,0,0,0,31,30.718V25.393A.27.27,0,0,0,30.726,25.127Zm-1.642.123H29.7v.091h-.617Zm.309,5.585a.206.206,0,1,1,.205-.206A.206.206,0,0,1,29.392,30.836Zm1.333-.586H28.06V25.513h2.665Z" style="fill:#d488b9"/></svg>