<svg viewBox="0 0 32 32" xmlns="http://www.w3.org/2000/svg" xmlns:xlink="http://www.w3.org/1999/xlink"><linearGradient id="a" gradientUnits="userSpaceOnUse" x1="15.915" x2="21.018" y1="25.739" y2="14.942"><stop offset="0" stop-color="#1011a1"/><stop offset="1" stop-color="#6969e1"/></linearGradient><linearGradient id="b" gradientUnits="userSpaceOnUse" x1="20.676" x2="27.799" y1="17.727" y2="29.772"><stop offset="0" stop-color="#b40e0e"/><stop offset="1" stop-color="#ff5959"/></linearGradient><linearGradient id="c" gradientUnits="userSpaceOnUse" x1="24.799" x2="14.72" y1="28.981" y2="28.135"><stop offset="0" stop-color="#01a300"/><stop offset="1" stop-color="#01df00"/></linearGradient><linearGradient id="d" gradientUnits="userSpaceOnUse" x1="19.474" x2="19.345" y1="26.291" y2="21.908"><stop offset="0" stop-color="#848484"/><stop offset="1" stop-color="#d2d2d2"/></linearGradient><path d="m27.9 6h-9.7l-2 4h-11.2v17h25v-21zm.1 18h-21v-12h21zm.1-14h-7.8l1-2h6.7z" fill="#dcb67a"/><path d="m25.9 14h-25.6l3.8 13h25.6z" fill="#dcb67a"/><path d="m21.456 21.2-11.391 9.733 10.435-20.842z" fill="url(#a)"/><path d="m10.081 30.951-.039-.029 10.476-20.922.007.089.957 11.122-.009.008zm10.4-20.77-10.338 20.652 11.287-9.644z"/><path d="m21.983 27.277-1.483-17.188 10.449 20.846z" fill="url(#b)"/><path d="m31 30.982-.062-.024-8.978-3.658v-.016l-1.485-17.193.047-.013zm-8.993-3.722 8.89 3.627-10.361-20.67z"/><path d="m16.829 25.124 14.131 5.809h-20.892z" fill="url(#c)"/><path d="m30.96 30.958h-20.96l.052-.044 6.772-5.814.015.006 14.131 5.803zm-20.825-.051h20.7l-14-5.754z"/><path d="m16.851 25.138 4.6-3.922.64 6.056z" fill="url(#d)"/><path d="m22.149 27.351-.077-.033-5.316-2.165.062-.053 4.673-3.984.01.095zm-5.2-2.229 5.087 2.072-.621-5.879z"/><path d="m30.887 31.075h-20.793a.193.193 0 0 1 -.155-.075.188.188 0 0 1 .018-.171l10.426-20.82a.144.144 0 0 1 .12-.083.135.135 0 0 1 .115.079l10.423 20.812a.2.2 0 0 1 .015.187.192.192 0 0 1 -.169.071zm-20.808-.153h.023 20.785a.168.168 0 0 0 .038 0c0-.006-.008-.018-.018-.037l-10.407-20.776-10.408 20.784z"/></svg>