<svg xmlns="http://www.w3.org/2000/svg" viewBox="0 0 32 32"><title>folder_type_bower_opened@2x</title><g id="folder_opened_bower"><path d="M27.4,5.5H18.2L16.1,9.7H4.3V26.5H29.5V5.5Zm0,18.7H6.6V11.8H27.4Zm0-14.5H19.2l1-2.1h7.1V9.7Z" style="fill:#db897b"/><polygon points="25.7 13.7 0.5 13.7 4.3 26.5 29.5 26.5 25.7 13.7" style="fill:#db897b"/><path d="M31.49,20.76c-1.23-1.18-7.37-1.92-9.31-2.13a5.69,5.69,0,0,0,.24-.69,7.76,7.76,0,0,1,.84-.31c0,.11.21.51.3.71,3.9.11,4.1-2.9,4.26-3.72a4.65,4.65,0,0,1,1.48-3c-2-.58-4.86.9-5.82,3.1a6,6,0,0,0-1.08-.3,5.24,5.24,0,0,0-5.09-3.91,9.52,9.52,0,0,0-9.26,9.84c0,5.2,3.55,9.76,5.56,9.76a2,2,0,0,0,1.81-1.24c.15.4.6,1.66.75,2,.22.47,1.24.88,1.69.39a1.65,1.65,0,0,0,2.21-.34,1.63,1.63,0,0,0,2.11-1.21c.54,0,.81-.79.69-1.4a14.93,14.93,0,0,0-1.39-2.61c.72.59,2.55.75,2.77,0,1.16.91,3,.43,3.12-.31,1.41.37,3-.44,2.77-1.42C32.42,23.79,32.12,21.37,31.49,20.76Z" style="fill:#543729"/><path id="Shape" d="M25.16,15.6A8.69,8.69,0,0,1,27,12.92a4.87,4.87,0,0,0-2.2,2.47,7.69,7.69,0,0,0-.77-.43,5,5,0,0,1,4.09-2.82c-1.19,1.08-.77,3.33-1.75,4.52A12.85,12.85,0,0,0,25.16,15.6Zm-.77,1.58a4,4,0,0,1,0-.45,4.13,4.13,0,0,0-.72-.09,2.69,2.69,0,0,0,.25,1,3.73,3.73,0,0,0,1.95-.54,6.52,6.52,0,0,0-1.31-.37C24.55,16.86,24.43,17.11,24.39,17.18Z" style="fill:#00acee"/><path d="M21,24.86h0c-.11-.25-.24-.55-.38-.94.57.83,2.35.4,2.25-.34.87.66,2.66-.11,2.26-1,.87.41,1.87-.41,1.64-.77,1.49.29,2.91.57,3.36.69a1.73,1.73,0,0,1-2,.59c.55.75-.52,1.65-2,1.16.33.74-1,1.4-2.51.63C23.66,25.59,21.77,25.68,21,24.86ZM24,21.14c1.73.13,4.58.39,6.35.64-.11-.57-.42-.74-1.38-1C27.91,20.89,25.29,21.14,24,21.14Z" style="fill:#2baf2b"/><path d="M22.89,23.59c.87.66,2.66-.11,2.26-1,.87.41,1.87-.41,1.64-.77-1.76-.34-3.6-.68-4-.74l1.2.08c1.32,0,3.94-.25,5-.36a50.09,50.09,0,0,0-7.43-1.19,3.38,3.38,0,0,1-.66.72,5.74,5.74,0,0,1-5,3.63,6.66,6.66,0,0,1-2-.34c-.47.5-2.48.89-4.11.09a8.31,8.31,0,0,0,7.6,5c2.79,0,4-2.85,3.76-3.61-.07-.18-.33-.79-.47-1.18C21.21,24.75,23,24.33,22.89,23.59Z" style="fill:#ffcc2f"/><path d="M21.2,17.85A8.09,8.09,0,0,1,23.11,17c0-.09,0-.18,0-.27-.53.13-1.54.56-2.11,0,1.21.37,1.82-.33,2.71-.33a5.74,5.74,0,0,1,1.89.38,6.37,6.37,0,0,0-4-1.79A2.81,2.81,0,0,0,21.2,17.85Z" style="fill:#cecece"/><path d="M13.86,23.59a6.66,6.66,0,0,0,2,.34,5.75,5.75,0,0,0,5-3.63,6.39,6.39,0,0,1-4.15,1.18,6.5,6.5,0,0,0,4.23-2.68,3.6,3.6,0,0,1,.38-4.48,4.21,4.21,0,0,0-4-2.8c-4.51,0-8.24,3.77-8.24,8.82a8.44,8.44,0,0,0,.67,3.33C11.38,24.47,13.39,24.09,13.86,23.59Z" style="fill:#ef5734"/><path d="M15.21,15.89a2.08,2.08,0,1,0,2.08-2.08A2.08,2.08,0,0,0,15.21,15.89Z" style="fill:#ffcc2f"/><path d="M16,15.89a1.25,1.25,0,1,0,1.25-1.25A1.25,1.25,0,0,0,16,15.89Z" style="fill:#543729"/><ellipse cx="17.29" cy="15.34" rx="0.73" ry="0.45" style="fill:#fff"/></g></svg>