<svg viewBox="0 0 32 32" xmlns="http://www.w3.org/2000/svg"><path d="m27.4 5.5h-9.2l-2.1 4.2h-11.8v4h-3.8l3.8 12.8h25.2v-21zm-7.2 2.1h7.1v2.1h-8.1zm5.5 6.1h-19.1v-1.9h20.8v7.626z" fill="#7faecc"/><path d="m31.678 28.332-6.937-12.214a2.413 2.413 0 0 0 -4.026-.277l-1.544-2.721a2.413 2.413 0 0 0 -4.21.005l-8.637 15.208a2.476 2.476 0 0 0 0 2.436 2.419 2.419 0 0 0 2.101 1.231h21.152a2.424 2.424 0 0 0 2.106-1.234 2.478 2.478 0 0 0 -.005-2.434zm-18.191.219h-3.342l6.92-12.188 1.664 2.931-5.129 9.039c-.043.067-.08.144-.113.218zm3.933 0 3.28-5.782 3.283 5.782z" fill="#fff"/><path d="m20.7 17.845-.823 1.449-2.815-4.956-8.637 15.213h5.849a1.437 1.437 0 0 0 1.426 1.449h-7.275a1.417 1.417 0 0 1 -1.234-.725 1.466 1.466 0 0 1 0-1.448l8.64-15.214a1.414 1.414 0 0 1 2.468 0z" fill="#00c58e"/><path d="m26.938 28.827-5.413-9.533-.825-1.449-.823 1.449-5.413 9.533a1.471 1.471 0 0 0 0 1.448 1.42 1.42 0 0 0 1.236.725h10a1.419 1.419 0 0 0 1.234-.724 1.468 1.468 0 0 0 0-1.449zm-11.238.724 5-8.808 5 8.808z" fill="#2f495e"/><path d="m30.809 30.276a1.419 1.419 0 0 1 -1.234.724h-3.875a1.437 1.437 0 0 0 1.425-1.449h2.444l-6.933-12.215-1.111 1.958-.825-1.449.7-1.233a1.414 1.414 0 0 1 2.469 0l6.938 12.215a1.468 1.468 0 0 1 .002 1.449z" fill="#108775"/></svg>