<svg viewBox="0 0 32 32" xmlns="http://www.w3.org/2000/svg" xmlns:xlink="http://www.w3.org/1999/xlink"><linearGradient id="a" gradientTransform="matrix(-.977 -.323 -.29 .877 -378.211 -928.733)" gradientUnits="userSpaceOnUse" x1="-659.847" x2="-666.491" y1="839.557" y2="839.603"><stop offset=".231" stop-color="#999875"/><stop offset=".563" stop-color="#9b9977"/><stop offset=".683" stop-color="#a09f7e"/><stop offset=".768" stop-color="#a9a889"/><stop offset=".837" stop-color="#b7b69a"/><stop offset=".896" stop-color="#c9c7b0"/><stop offset=".948" stop-color="#deddcb"/><stop offset=".994" stop-color="#f8f6eb"/><stop offset="1" stop-color="#fbf9ef"/></linearGradient><linearGradient id="b" gradientTransform="matrix(-.977 -.323 -.29 .877 -378.211 -928.733)" gradientUnits="userSpaceOnUse" x1="-658.764" x2="-668.32" y1="827.72" y2="844.273"><stop offset="0" stop-color="#48a547"/><stop offset="1" stop-color="#3f9143"/></linearGradient><linearGradient id="c" gradientTransform="matrix(-.977 -.323 -.29 .877 -378.211 -928.733)" gradientUnits="userSpaceOnUse" x1="-658.088" x2="-664.862" y1="839.78" y2="835.229"><stop offset="0" stop-color="#41a247"/><stop offset=".352" stop-color="#4ba74b"/><stop offset=".956" stop-color="#67b554"/><stop offset="1" stop-color="#69b655"/></linearGradient><path d="m27.4 5.5h-9.2l-2.1 4.2h-11.8v16.8h25.2v-21zm0 18.7h-20.8v-12.4h20.8zm0-14.5h-8.2l1-2.1h7.1v2.1zm-1.7 4h-25.2l3.8 12.8h25.2z" fill="#78c47c"/><path d="m26.775 31-.563-.187s.072-2.851-.956-3.05c-.678-.786.1-33.556 2.567-.112a2.033 2.033 0 0 0 -1 1.142 10.575 10.575 0 0 0 -.048 2.207z" fill="url(#a)"/><path d="m27.079 28.247a9.917 9.917 0 0 0 3.748-9.919c-1.1-4.864-3.711-6.463-3.992-7.073a7.321 7.321 0 0 1 -.619-1.2l.208 13.552s-.431 4.141.655 4.64z" fill="url(#b)"/><path d="m25.925 28.427s-4.591-3.127-4.325-8.658a11.656 11.656 0 0 1 4.139-8.736 1.3 1.3 0 0 0 .455-1.033c.286.615.239 9.182.269 10.184.117 3.898-.216 7.507-.538 8.243z" fill="url(#c)"/></svg>