<svg xmlns="http://www.w3.org/2000/svg" viewBox="0 0 32 32"><title>folder_type_redux_opened</title><path d="M27.5,5.5H18.3L16.2,9.7H4.4V26.5H29.6V5.5Zm0,18.7H6.7V11.8H27.5Zm0-14.5H19.3l1-2.1h7.1V9.7Z" style="fill:#c8b7e4"/><polygon points="25.822 13.7 0.622 13.7 4.422 26.5 29.622 26.5 25.822 13.7" style="fill:#c8b7e4"/><path d="M25.472,22.446a1.282,1.282,0,0,0-.137-2.557h-.046a1.277,1.277,0,0,0-1.233,1.324,1.311,1.311,0,0,0,.365.845,8.166,8.166,0,0,1-3.744,3.584,6.174,6.174,0,0,1-3.721.708A3.174,3.174,0,0,1,14.628,25a3.354,3.354,0,0,1-.183-3.539A5.374,5.374,0,0,1,16,19.638c-.091-.3-.228-.8-.3-1.164-3.31,2.4-2.968,5.639-1.963,7.169a4.728,4.728,0,0,0,3.972,1.849,5.615,5.615,0,0,0,1.37-.16,8.761,8.761,0,0,0,6.392-4.886Zm4.018-2.831a9.271,9.271,0,0,0-7.214-3.151h-.365a1.255,1.255,0,0,0-1.119-.685h-.046a1.279,1.279,0,0,0,.046,2.557h.046a1.286,1.286,0,0,0,1.119-.776h.411a8.7,8.7,0,0,1,4.863,1.484,6.116,6.116,0,0,1,2.42,2.922,3.165,3.165,0,0,1-.046,2.694,3.352,3.352,0,0,1-3.128,1.872,5.839,5.839,0,0,1-2.237-.479c-.251.228-.708.594-1.027.822a7.048,7.048,0,0,0,2.945.708,4.956,4.956,0,0,0,4.429-2.42,5.158,5.158,0,0,0-1.1-5.548Zm-11.6,3.219a1.282,1.282,0,0,0,1.278,1.233h.046a1.279,1.279,0,0,0-.046-2.557h-.046a.389.389,0,0,0-.16.023,8.365,8.365,0,0,1-1.187-5.068,6.124,6.124,0,0,1,1.347-3.539,3.96,3.96,0,0,1,2.808-1.278c2.42-.046,3.447,2.968,3.516,4.178.3.068.8.228,1.142.342-.274-3.7-2.557-5.616-4.749-5.616a5.165,5.165,0,0,0-4.7,3.676,9.34,9.34,0,0,0,.913,7.945,1.026,1.026,0,0,0-.16.662Z" style="fill:#764abc"/></svg>