<svg viewBox="0 0 32 32" xmlns="http://www.w3.org/2000/svg"><path d="m27.4 5.5h-9.2l-2.1 4.2h-11.8v16.8h25.2v-21zm0 18.7h-20.8v-12.4h20.8zm0-14.5h-8.2l1-2.1h7.1v2.1z" fill="#dcb67a"/><path d="m25.7 13.7h-25.2l3.8 12.8h25.2z" fill="#dcb67a"/><path d="m13.728 11.867h17.023v17.581h-17.023z" fill="#ffebe3"/><path d="m14.007 12.146h4.465v7.814h-4.465z" fill="#f20"/><path d="m18.805 12.146h6.411v12.349h-6.411z" fill="#00a302"/><path d="m14.007 20.312h4.465v8.83h-4.465z" fill="#f9ff16"/><path d="m25.588 12.146h4.846v3.907h-4.846z" fill="#f9ff16"/><path d="m25.588 16.405h2.628v2.628h-2.628z" fill="#f20"/><path d="m25.588 19.406h4.846v3.558h-4.846z" fill="#00a302"/><path d="m28.442 16.405h1.992v2.628h-1.992z" fill="#00a302"/><path d="m18.805 24.787h4.595v4.356h-4.595z" fill="#f20"/><path d="m23.596 24.787h1.62v3.558h-1.62z" fill="#00a302"/><path d="m23.596 28.559h4.846v.583h-4.846z" fill="#f9ff16"/><g fill="#f20"><path d="m28.442 23.144h1.992v1.584h-1.992z"/><path d="m25.588 23.144h2.628v1.584h-2.628z"/><path d="m25.588 24.982h1.992v1.992h-1.992z"/></g><path d="m27.744 24.982h2.69v2.628h-2.69z" fill="#00a302"/><path d="m25.588 27.228h1.992v1.116h-1.992z" fill="#00a302"/><path d="m28.604 27.786h1.741v1.331h-1.741z" fill="#00a302"/><path d="m27.744 27.761h.698v.583h-.698z" fill="#f9ff16"/></svg>