<svg xmlns="http://www.w3.org/2000/svg" viewBox="0 0 32 32"><title>folder_type_middleware</title><path d="M27.5,5.5H18.2L16.1,9.7H4.4V26.5H29.6V5.5Zm0,4.2H19.3l1.1-2.1h7.1Z" style="fill:#bc5572"/><path d="M27.109,24.557H13.89V11.193H27.109ZM20.5,27.54a1.313,1.313,0,1,0,1.3,1.312A1.3,1.3,0,0,0,20.5,27.54Z" style="fill:#fff;stroke:#000;stroke-miterlimit:10;stroke-width:0.12306608451093866px"/><path d="M16.521,15.393A1.492,1.492,0,1,0,15.046,13.9,1.485,1.485,0,0,0,16.521,15.393Zm0-2.386a.9.9,0,1,1-.885.895A.891.891,0,0,1,16.521,13.007Zm0,6.359a1.491,1.491,0,1,0-1.475-1.491A1.485,1.485,0,0,0,16.521,19.366Zm0-2.386a.9.9,0,1,1-.885.895A.891.891,0,0,1,16.521,16.98Zm2.636,2.386h6.566a.3.3,0,0,0,.3-.3v-6.36a.3.3,0,0,0-.3-.3H19.157a.3.3,0,0,0-.3.3v6.36A.3.3,0,0,0,19.157,19.366Zm.3-6.359h5.976V18.77H19.452Zm11.08,15.372H22.571a2.143,2.143,0,0,0-1.481-1.588V25.75H26.4a1.9,1.9,0,0,0,1.889-1.909V11.909A1.9,1.9,0,0,0,26.4,10H14.6a1.9,1.9,0,0,0-1.889,1.909V23.841A1.9,1.9,0,0,0,14.6,25.75H19.91v1.041a2.143,2.143,0,0,0-1.481,1.588H10.468a.473.473,0,0,0,0,.946h7.961a2.118,2.118,0,0,0,4.142,0h7.961a.473.473,0,0,0,0-.946ZM14.6,11.432H26.4a.48.48,0,0,1,.472.477v8.86H14.127v-8.86A.48.48,0,0,1,14.6,11.432Zm-.472,12.409V21.962H26.873v1.879a.48.48,0,0,1-.472.477H14.6A.48.48,0,0,1,14.127,23.841Zm6.373,6.2a1.193,1.193,0,1,1,1.18-1.193A1.186,1.186,0,0,1,20.5,30.045Z" style="fill:#e52e62"/></svg>