<?xml version="1.0" encoding="UTF-8" standalone="no"?>
<!DOCTYPE svg PUBLIC "-//W3C//DTD SVG 1.1//EN" "http://www.w3.org/Graphics/SVG/1.1/DTD/svg11.dtd">
<svg width="100%" height="100%" viewBox="0 0 32 32" version="1.1" xmlns="http://www.w3.org/2000/svg" xmlns:xlink="http://www.w3.org/1999/xlink" xml:space="preserve" xmlns:serif="http://www.serif.com/" style="fill-rule:evenodd;clip-rule:evenodd;stroke-linecap:round;stroke-linejoin:round;">
    <path d="M30,6L18.238,6L16.238,10L5,10L5,27L30,27L30,6ZM28,24L7,24L7,12L28,12L28,24ZM28.1,10L20.29,10L21.242,8L28,8L28,10L28.1,10ZM25.867,14L0.273,14L4.133,27L29.727,27L25.867,14Z" style="fill:rgb(73,122,162);fill-rule:nonzero;"/>
    <g transform="matrix(0.0464331,0,0,0.0464331,11.958,11.2904)">
        <path d="M215.866,286.484C214.481,336 216.214,385.861 221.059,397.979C225.907,410.097 236.282,433.667 271.959,426.024C301.765,419.634 312.61,407.268 317.316,379.973C320.782,359.891 327.464,304.119 328.321,292.692" style="fill:none;fill-rule:nonzero;stroke:white;stroke-width:12.47px;"/>
    </g>
    <g transform="matrix(0.0464331,0,0,0.0464331,11.958,11.2904)">
        <path d="M173.104,38.256C173.104,38.256 11.583,-27.76 19.092,122.365C20.689,154.303 64.871,364.029 117.565,300.681C136.821,277.515 154.236,259.346 154.236,259.346" style="fill:none;fill-rule:nonzero;stroke:white;stroke-width:12.47px;"/>
    </g>
    <g transform="matrix(0.0464331,0,0,0.0464331,11.958,11.2904)">
        <path d="M260.349,26.207C254.758,27.96 350.197,-8.682 404.436,60.624C423.595,85.108 401.393,185.143 348.283,263.953" style="fill:none;fill-rule:nonzero;stroke:white;stroke-width:12.47px;"/>
    </g>
    <g transform="matrix(0.0464331,0,0,0.0464331,11.958,11.2904)">
        <path d="M348.282,263.953C348.282,263.953 351.743,280.989 402.046,270.606C424.086,266.054 410.822,283.38 388.469,293.761C370.124,302.275 328.995,304.457 328.323,292.692C326.594,262.337 349.97,271.559 348.283,263.953C346.758,257.103 336.304,250.38 329.389,233.615C323.352,218.982 246.593,106.766 350.676,123.432C354.489,122.643 323.53,24.43 226.123,22.833C128.738,21.236 131.933,142.595 131.933,142.595" style="fill:none;fill-rule:nonzero;stroke:white;stroke-width:12.47px;stroke-linejoin:bevel;"/>
    </g>
    <g transform="matrix(0.0464331,0,0,0.0464331,11.958,11.2904)">
        <path d="M188.604,274.334C175.027,289.5 179.02,292.163 151.881,297.751C124.422,303.411 140.555,313.484 151.084,316.116C163.852,319.311 193.391,323.834 213.35,295.887C219.428,287.378 213.314,273.801 204.965,270.34C200.931,268.669 195.537,266.575 188.604,274.334Z" style="fill:none;fill-rule:nonzero;stroke:white;stroke-width:12.47px;"/>
    </g>
    <g transform="matrix(0.0464331,0,0,0.0464331,11.958,11.2904)">
        <path d="M187.715,274.069C186.347,265.152 190.645,254.541 195.251,242.127C202.173,223.501 218.144,204.872 205.368,145.788C195.845,101.759 131.972,136.625 131.932,142.595C131.893,148.563 134.821,172.855 130.865,201.143C125.703,238.056 154.353,269.275 187.344,266.081" style="fill:none;fill-rule:nonzero;stroke:white;stroke-width:12.47px;"/>
    </g>
    <g transform="matrix(0.0464331,0,0,0.0464331,11.958,11.2904)">
        <path d="M172.517,141.7C172.229,143.739 176.25,149.18 181.493,149.907C186.727,150.637 191.207,146.385 191.491,144.348C191.775,142.309 187.759,140.063 182.514,139.333C177.277,138.602 172.795,139.666 172.518,141.7L172.517,141.7Z" style="fill:white;fill-rule:nonzero;stroke:white;stroke-width:4.16px;stroke-linecap:butt;stroke-linejoin:miter;"/>
    </g>
    <g transform="matrix(0.0464331,0,0,0.0464331,11.958,11.2904)">
        <path d="M331.941,137.543C332.225,139.582 328.209,145.023 322.965,145.75C317.727,146.48 313.247,142.228 312.96,140.191C312.683,138.152 316.7,135.906 321.939,135.176C327.178,134.446 331.657,135.509 331.941,137.544L331.941,137.543Z" style="fill:white;fill-rule:nonzero;stroke:white;stroke-width:2.08px;stroke-linecap:butt;stroke-linejoin:miter;"/>
    </g>
    <g transform="matrix(0.0464331,0,0,0.0464331,11.958,11.2904)">
        <path d="M350.676,123.432C351.539,139.426 347.231,150.32 346.688,167.346C345.884,192.094 358.487,220.42 339.497,248.781" style="fill:none;fill-rule:nonzero;stroke:white;stroke-width:12.47px;"/>
    </g>
</svg>
