<svg viewBox="0 0 32 32" xmlns="http://www.w3.org/2000/svg"><path d="m27.5 5.5h-9.3l-2.1 4.2h-11.7v16.8h25.2v-21zm0 4.2h-8.2l1.1-2.1h7.1z" fill="#c09553"/><path d="m13.728 10.867h17.023v17.581h-17.023z" fill="#ffebe3"/><path d="m14.007 11.146h4.465v7.814h-4.465z" fill="#f20"/><path d="m18.805 11.146h6.411v12.349h-6.411z" fill="#00a302"/><path d="m14.007 19.312h4.465v8.83h-4.465z" fill="#f9ff16"/><path d="m25.588 11.146h4.846v3.907h-4.846z" fill="#f9ff16"/><path d="m25.588 15.405h2.628v2.628h-2.628z" fill="#f20"/><path d="m25.588 18.406h4.846v3.558h-4.846z" fill="#00a302"/><path d="m28.442 15.405h1.992v2.628h-1.992z" fill="#00a302"/><path d="m18.805 23.787h4.595v4.356h-4.595z" fill="#f20"/><path d="m23.596 23.787h1.62v3.558h-1.62z" fill="#00a302"/><path d="m23.596 27.559h4.846v.583h-4.846z" fill="#f9ff16"/><g fill="#f20"><path d="m28.442 22.144h1.992v1.584h-1.992z"/><path d="m25.588 22.144h2.628v1.584h-2.628z"/><path d="m25.588 23.982h1.992v1.992h-1.992z"/></g><path d="m27.744 23.982h2.69v2.628h-2.69z" fill="#00a302"/><path d="m25.588 26.228h1.992v1.116h-1.992z" fill="#00a302"/><path d="m28.604 26.786h1.741v1.331h-1.741z" fill="#00a302"/><path d="m27.744 26.761h.698v.583h-.698z" fill="#f9ff16"/></svg>