<svg xmlns="http://www.w3.org/2000/svg" viewBox="0 0 32 32"><title>folder_type_typings@2x</title><g id="folder_typings"><path d="M27.5,5.5H18.2L16.1,9.7H4.4V26.5H29.6V5.5Zm0,4.2H19.3l1.1-2.1h7.1Z" style="fill:#55bf7b"/><path d="M27.57,17.29a3.73,3.73,0,0,1,1.87,1.08,4.93,4.93,0,0,1,.72,1s-1.29.91-2.08,1.4c0,0-.14-.1-.27-.29a1.7,1.7,0,0,0-1.41-.85c-.91-.06-1.49.41-1.49,1.21a1.1,1.1,0,0,0,.13.56c.2.41.57.66,1.73,1.16,2.14.92,3.06,1.53,3.63,2.39a4.34,4.34,0,0,1,.35,3.65,4,4,0,0,1-3.31,2.37,9.18,9.18,0,0,1-2.28,0,5.5,5.5,0,0,1-3-1.59,5.29,5.29,0,0,1-.78-1.15l.28-.18,1.11-.64.86-.5.18.27a4,4,0,0,0,1.14,1.09,2.78,2.78,0,0,0,2.91-.15A1.3,1.3,0,0,0,28,26.4c-.23-.33-.71-.61-2.06-1.2a7.41,7.41,0,0,1-2.82-1.73,4,4,0,0,1-.82-1.5,6,6,0,0,1-.05-1.91,3.65,3.65,0,0,1,3.07-2.84A7.58,7.58,0,0,1,27.57,17.29Zm-7,1.25v1.23h-3.9V30.84H13.9V19.76H10v-1.2a11.78,11.78,0,0,1,0-1.24s2.39,0,5.26,0h5.23Z" style="fill:#00a23c"/></g></svg>