<svg xmlns="http://www.w3.org/2000/svg" xmlns:xlink="http://www.w3.org/1999/xlink" viewBox="0 0 32 32"><defs><clipPath id="a"><rect width="32" height="32" style="fill:none"/></clipPath></defs><title>folder_type_shared_opened</title><g style="clip-path:url(#a)"><path d="M27.4,5.5H18.2L16.1,9.7H4.3V26.5H29.5V5.5Zm0,18.7H6.6V11.8H27.4Zm0-14.5H19.2l1-2.1h7.1V9.7Z" style="fill:#9772fb"/><path d="M25.7,13.7H.5L4.3,26.5H29.5Z" style="fill:#9772fb"/><path d="M15,11a4,4,0,0,0-4,4v6a4,4,0,0,0,4,4h6.17a3,3,0,1,0,0-2H15a2,2,0,0,1-2-2V15a2,2,0,0,1,2-2h6a2,2,0,0,1,2,2h2a4,4,0,0,0-4-4ZM27,31a4,4,0,0,0,4-4V21a4,4,0,0,0-4-4H20.83a3,3,0,1,0,0,2H27a2,2,0,0,1,2,2v6a2,2,0,0,1-2,2H21a2,2,0,0,1-2-2H17a4,4,0,0,0,4,4Z" style="fill:#b094ff"/><path d="M17,26.5V27h2v-.5Z" style="fill:#b094ff"/></g></svg>