<svg xmlns="http://www.w3.org/2000/svg" viewBox="0 0 32 32"><title>folder_type_services</title><path d="M27.5,5.5H18.2L16.1,9.7H4.4V26.5H29.6V5.5Zm0,4.2H19.3l1.1-2.1h7.1Z" style="fill:#5993a5"/><path d="M11,20.771c.007-.176.019-.352.021-.528a.8.8,0,0,1,.422-.739.721.721,0,0,1,.326-.1c.418,0,.836.008,1.253.018a.254.254,0,0,1,.105.034,6.2,6.2,0,0,0,1.232.5,6.594,6.594,0,0,0,1.163.137,6.286,6.286,0,0,1,.658.062.505.505,0,0,1,.46.51c.021.3.02.605.048.906a3.865,3.865,0,0,0,.669,1.795,4.318,4.318,0,0,0,2.859,1.912,7.991,7.991,0,0,0,.944.073c.092.007.183.018.275.021a.272.272,0,0,1,.279.235,3.129,3.129,0,0,1,.057.464c.018.369.014.741.043,1.109a4.347,4.347,0,0,0,.459,1.553.838.838,0,0,1,.1.39c-.014.4-.024.808-.044,1.211a.641.641,0,0,1-.324.513A.813.813,0,0,1,21.49,31c-.421-.018-.842-.024-1.264-.024a.812.812,0,0,1-.837-.857c0-.378-.01-.755-.01-1.132,0-.064-.016-.1-.083-.111a8.2,8.2,0,0,1-2.878-1.25c-.014-.01-.029-.017-.053-.031l-.079.074c-.26.249-.519.5-.782.746a1.649,1.649,0,0,1-.226.173.679.679,0,0,1-.818-.03,7.318,7.318,0,0,1-1.13-1.13.75.75,0,0,1,.043-1.061c.26-.287.536-.56.806-.837a.592.592,0,0,1,.085-.067c-.2-.378-.391-.724-.558-1.084a7.586,7.586,0,0,1-.607-1.894c-.016-.087-.045-.121-.142-.12-.354.007-.708-.007-1.061,0a.906.906,0,0,1-.805-.432c-.03-.042-.061-.082-.091-.123Zm20-.346a1.018,1.018,0,0,1-.019-.108.633.633,0,0,0-.284-.5c-.057-.038-.109-.083-.168-.116a.321.321,0,0,0-.14-.045c-.3-.012-.605-.02-.907-.026-.186,0-.373,0-.564,0a8.242,8.242,0,0,0-1.229-3.059.9.9,0,0,0,.085-.065c.285-.283.567-.568.852-.85a.769.769,0,0,0,.05-1.084c-.195-.222-.393-.442-.6-.651a6.683,6.683,0,0,0-.557-.492.638.638,0,0,0-.57-.105.837.837,0,0,0-.38.209c-.264.244-.522.5-.79.738-.192.172-.122.181-.354.036A9.05,9.05,0,0,0,23.192,13.3c-.191-.056-.384-.1-.57-.155,0-.142,0-.274,0-.406,0-.316,0-.632-.011-.948a.8.8,0,0,0-.788-.766c-.469,0-.939,0-1.407-.021a.82.82,0,0,0-.765.726q-.011.525-.015,1.05a1.171,1.171,0,0,0,.126.54,4.118,4.118,0,0,1,.446,1.629c.02.369.021.74.039,1.11a1.758,1.758,0,0,0,.06.36.248.248,0,0,0,.24.2c.207.012.413.032.62.037a4.085,4.085,0,0,1,2.766,1.133,4.294,4.294,0,0,1,1.422,3.554.343.343,0,0,0,.049.211.766.766,0,0,0,.546.321c.125.012.251.016.377.024.285.016.571.018.854.05a4.344,4.344,0,0,1,1.448.463,1.215,1.215,0,0,0,.408.15c.378.032.76.047,1.14.042a.759.759,0,0,0,.789-.742c0-.132.022-.263.034-.394ZM18.921,14.357a3.5,3.5,0,0,0-2.913-2.432,6.365,6.365,0,0,0-.793-.03.464.464,0,0,0-.421.306.386.386,0,0,0,.1.438c.163.187.336.365.5.547.218.238.45.465.65.717a.986.986,0,0,1,.017,1.2,4.446,4.446,0,0,1-.928.94,1.011,1.011,0,0,1-1.265-.017c-.179-.14-.34-.3-.508-.456-.216-.2-.431-.4-.647-.592a.335.335,0,0,0-.292-.086.482.482,0,0,0-.415.49,3.463,3.463,0,0,0,.76,2.211,3.308,3.308,0,0,0,1.9,1.232A6.5,6.5,0,0,0,16,18.954a1.645,1.645,0,0,1,1.105.4c.151.131.31.255.452.4.878.862,1.757,1.724,2.626,2.595.77.773,1.529,1.557,2.293,2.337a1.449,1.449,0,0,1,.412.781,5.356,5.356,0,0,1,.048.609c.016.328,0,.66.043.986a3.389,3.389,0,0,0,2.1,2.772,3.67,3.67,0,0,0,1.779.254.424.424,0,0,0,.356-.3.346.346,0,0,0-.07-.4q-.229-.253-.46-.5c-.237-.257-.478-.511-.714-.77a1.056,1.056,0,0,1-.033-1.219,4.915,4.915,0,0,1,.98-.974,1.049,1.049,0,0,1,1.224.045c.079.065.156.132.23.2.3.279.591.562.891.838a.4.4,0,0,0,.506.037A.5.5,0,0,0,30,26.584a3.472,3.472,0,0,0-1.039-2.492,3.212,3.212,0,0,0-1.8-.961c-.4-.058-.8-.074-1.2-.094A1.835,1.835,0,0,1,24.7,22.5c-1.034-1.027-2.077-2.048-3.108-3.079-.68-.68-1.345-1.376-2.019-2.062a1.664,1.664,0,0,1-.475-.96c-.035-.255-.04-.513-.058-.77A3.347,3.347,0,0,0,18.921,14.357Z" style="fill:#13d8b7"/></svg>