<svg xmlns="http://www.w3.org/2000/svg" xmlns:xlink="http://www.w3.org/1999/xlink" viewBox="0 0 32 32"><defs><linearGradient id="a" x1="20.446" y1="-120" x2="20.446" y2="-141" gradientTransform="matrix(1, 0, 0, -1, 0, -110)" gradientUnits="userSpaceOnUse"><stop offset="0" stop-color="#fff"/><stop offset="1" stop-color="#fff" stop-opacity="0"/></linearGradient></defs><title>folder_type_vs_opened</title><path d="M27.4,5.5H18.2L16.1,9.7H4.3v4H.5L4.3,26.5H29.5V5.5ZM20.2,7.6h7.1V9.7H19.2Zm5.5,6.1H6.6V11.8H27.4v7.626Z" style="fill:#c67bdb"/><path d="M12.941,26.524a.879.879,0,0,1-.911.144L10.433,26a.881.881,0,0,1-.542-.812V15.809A.879.879,0,0,1,10.433,15l1.6-.665a.88.88,0,0,1,.911.144l.358.307a.486.486,0,0,0-.769.4V25.821a.486.486,0,0,0,.769.4Z" style="fill:#52218a"/><path d="M10.433,26a.881.881,0,0,1-.542-.812v-.073a.508.508,0,0,0,.885.34L24.4,10.385a1.316,1.316,0,0,1,1.5-.255l4.35,2.095A1.318,1.318,0,0,1,31,13.413v.051a.833.833,0,0,0-1.361-.644L13.3,26.217l-.358.307a.879.879,0,0,1-.911.144Z" style="fill:#6c33af"/><path d="M10.433,15a.881.881,0,0,0-.542.812v.073a.508.508,0,0,1,.885-.34L24.4,30.614a1.314,1.314,0,0,0,1.5.255l4.35-2.094A1.319,1.319,0,0,0,31,27.586v-.05a.833.833,0,0,1-1.361.644L13.3,14.783l-.358-.307a.879.879,0,0,0-.911-.144Z" style="fill:#854cc7"/><path d="M25.9,30.87a1.317,1.317,0,0,1-1.5-.255.773.773,0,0,0,1.32-.547V10.932a.773.773,0,0,0-1.32-.547,1.317,1.317,0,0,1,1.5-.255l4.348,2.091A1.32,1.32,0,0,1,31,13.41V27.59a1.32,1.32,0,0,1-.748,1.189Z" style="fill:#b179f1"/><g style="opacity:0.25"><path d="M25.039,30.967a1.314,1.314,0,0,0,.865-.1l4.348-2.091A1.32,1.32,0,0,0,31,27.59V13.41a1.318,1.318,0,0,0-.748-1.189L25.9,10.13a1.314,1.314,0,0,0-1.5.256l-7.01,7.753L13.3,14.783l-.358-.308a.88.88,0,0,0-.794-.183.845.845,0,0,0-.117.039l-1.6.666a.88.88,0,0,0-.539.746c0,.021,0,.043,0,.066V25.19c0,.022,0,.044,0,.066a.88.88,0,0,0,.539.746l1.6.665a1.078,1.078,0,0,0,.117.04.88.88,0,0,0,.794-.183l.358-.308,4.094-3.356,7.01,7.753A1.315,1.315,0,0,0,25.039,30.967Zm.684-14.936L20.272,20.5l5.451,4.468ZM12.53,17.481,15.258,20.5,12.53,23.518Z" style="fill-rule:evenodd;fill:url(#a)"/></g></svg>