<svg xmlns="http://www.w3.org/2000/svg" viewBox="0 0 32 32"><title>folder_type_cubit</title><path d="M27.417,5.5H18.19L16.107,9.7H4.5V26.5h25V5.5Zm0,4.2H19.282l1.091-2.1h7.044Z" style="fill:#55a3bf"/><path d="M22.428,11.161l8.217,4.92v9.838l-8.216,4.92-8.217-4.92V16.081Z"/><path d="M14.878,16.451,22.429,21v9.1l-7.55-4.549Z" style="fill:#82eddf"/><path d="M29.977,16.451,22.427,21v9.1l7.55-4.549Z" style="fill:#00d3b9"/><path d="M14.878,16.451l7.551-4.55,7.549,4.55L22.429,21Z" style="fill:#0084c1"/><path d="M22.428,15.076l4.948,2.962v5.925l-4.948,2.962L17.48,23.963V18.038Z"/><path d="M19.979,19.519,22.43,21v2.963l-2.45-1.48Z" style="fill:#82eddf"/><path d="M24.876,19.519,22.428,21v2.963l2.448-1.48Z" style="fill:#00d3b9"/><path d="M19.979,19.519l2.451-1.48,2.447,1.48L22.429,21Z" style="fill:#0084c1"/></svg>
