<svg viewBox="0 0 32 32" xmlns="http://www.w3.org/2000/svg"><path d="m27.4 5.5h-9.2l-2.1 4.2h-11.8v16.8h25.2v-21zm0 18.7h-20.8v-12.4h20.8zm0-14.5h-8.2l1-2.1h7.1v2.1z" fill="#dda27a"/><path d="m25.7 13.7h-25.2l3.8 12.8h25.2z" fill="#dda27a"/><path d="m20.8 11.3v9.2h-1.07v8.665l3.67 1.835 2.217-10.5-2.217-10.5z" fill="#9d5025"/><path d="m23.4 10v10.5 10.5l2.6-1.3v-9.2h1.07v-8.665z" fill="#f58536"/><path d="m30.969 17.824-4.638.433-1.529-.178 4.842-4.944z" fill="#6b3a19"/><path d="m29.644 13.135 1.325.662v4.027l-1.325-.28z" fill="#f58536"/><path d="m24.802 18.079 4.842-.535v-4.409l-4.842 1.299z" fill="#9d5025"/><path d="m15.831 23.176 4.638-.433 1.529.178-4.842 4.944z" fill="#fbbf93"/><path d="m17.156 27.865-1.325-.662v-4.027l1.325.28z" fill="#9d5025"/><path d="m21.998 22.921-4.842.535v4.409l4.842-1.299z" fill="#f58536"/></svg>