<svg viewBox="0 0 32 32" xmlns="http://www.w3.org/2000/svg" xmlns:xlink="http://www.w3.org/1999/xlink"><radialGradient id="a" cx="304.438" cy="-324.056" gradientTransform="matrix(1.711 .138 .094 -1.169 -468.316 -398.712)" gradientUnits="userSpaceOnUse" r="8.902"><stop offset="0" stop-color="#0663b4"/><stop offset="1" stop-color="#16adff" stop-opacity=".685"/></radialGradient><linearGradient id="b" gradientTransform="matrix(1 0 0 -1 -250.518 -647.956)" gradientUnits="userSpaceOnUse" x1="262.559" x2="262.559" y1="-662.427" y2="-659.102"><stop offset="0" stop-color="#047fc7"/><stop offset="1" stop-color="#11abe8"/></linearGradient><path d="m27.5 5.5h-9.3l-2.1 4.2h-11.7v16.8h25.2v-21zm0 4.2h-8.2l1.1-2.1h7.1z" fill="#558dbf"/><rect fill="#c7ebf1" height="17.792" rx="5.775" width="17.792" x="13.208" y="13.188"/><rect fill="url(#a)" height="16.917" opacity=".823009" rx="5.47" width="17.092" x="13.558" y="13.713"/><rect fill="#016fd2" height="14.57" rx="4.565" width="14.57" x="14.528" y="15.138"/><path d="m30.629 18.763a5.467 5.467 0 0 0 -5.449-5.051h-6.151a5.47 5.47 0 0 0 -5.47 5.47v5.976c0 .124.01.245.018.367.391.021.784.032 1.181.032a21.893 21.893 0 0 0 15.871-6.794z" fill="#5fffe6" opacity=".172566"/><path d="m28.375 25.2a3.733 3.733 0 1 1 -7.467 0 3.733 3.733 0 1 1 7.467 0z" fill="#fff"/><path d="m19.917 18.379a2.158 2.158 0 0 1 -4.317 0 2.158 2.158 0 0 1 4.317 0z" fill="#fff"/><path d="m14.083 12.663a2.042 2.042 0 1 1 -4.083 0 2.042 2.042 0 1 1 4.083 0z" fill="#cbedf2" fill-opacity=".92549"/><path d="m13.617 12.663a1.575 1.575 0 0 1 -3.15 0 1.575 1.575 0 0 1 3.15 0z" fill="url(#b)"/></svg>