<svg xmlns="http://www.w3.org/2000/svg" viewBox="0 0 32 32"><title>folder_type_template_opened</title><path d="M27.4,5.5H18.2L16.1,9.7H4.3V26.5H29.5V5.5Zm0,18.7H6.6V11.8H27.4Zm0-14.5H19.2l1-2.1h7.1V9.7Z" style="fill:#dbad7b"/><polygon points="25.7 13.7 0.5 13.7 4.3 26.5 29.5 26.5 25.7 13.7" style="fill:#dbad7b"/><path d="M29.025,14.38H11.974A1.978,1.978,0,0,0,10,16.354V29.029A1.978,1.978,0,0,0,11.974,31H29.025A1.978,1.978,0,0,0,31,29.026V16.354A1.979,1.979,0,0,0,29.025,14.38Z" style="fill:#675f58"/><path d="M29.925,29.026a.905.905,0,0,1-.9.9H11.974a.905.905,0,0,1-.9-.9V17.62h18.85V29.026Z" style="fill:#ccc"/><rect x="14.9" y="20.246" width="2.8" height="2.801" style="fill:#ff931e"/><rect x="19.1" y="20.246" width="2.8" height="2.801" style="fill:#ff931e"/><rect x="23.3" y="20.246" width="2.8" height="2.801" style="fill:#ff931e"/><rect x="14.9" y="24.446" width="2.8" height="2.8" style="fill:#ff931e"/><rect x="19.1" y="24.446" width="2.8" height="2.8" style="fill:#ff931e"/><rect x="23.3" y="24.446" width="2.8" height="2.8" style="fill:#ff931e"/></svg>