<svg xmlns="http://www.w3.org/2000/svg" viewBox="0 0 32 32"><title>folder_type_gcp</title><path d="M27.9,6H18.1l-2,4H5V27H30V6Zm.1,4H20.2l1-2H28Z" style="fill:#bf55bf"/><path d="M22.229,17.061h.732l2.086-2.086.1-.886A9.377,9.377,0,0,0,9.9,18.664a1.135,1.135,0,0,1,.732-.043l4.172-.689s.213-.351.322-.329a5.206,5.206,0,0,1,7.123-.542Z" style="fill:#ea4335"/><path d="M28.019,18.664A9.394,9.394,0,0,0,25.186,14.1l-2.928,2.928a5.2,5.2,0,0,1,1.911,4.128v.52a2.606,2.606,0,0,1,0,5.212H18.957l-.52.527v3.126l.52.519h5.212a6.778,6.778,0,0,0,3.85-12.393Z" style="fill:#4285f4"/><path d="M13.738,31.028H18.95V26.856H13.738a2.6,2.6,0,0,1-1.076-.235l-.732.227-2.1,2.086-.183.732A6.743,6.743,0,0,0,13.738,31.028Z" style="fill:#34a853"/><path d="M13.738,17.493A6.778,6.778,0,0,0,9.646,29.644l3.023-3.023a2.606,2.606,0,1,1,3.448-3.447L19.14,20.15A6.774,6.774,0,0,0,13.738,17.493Z" style="fill:#fbbc05"/></svg>