<svg viewBox="0 0 32 32" xmlns="http://www.w3.org/2000/svg"><path d="m27.5 5.5h-9.3l-2.1 4.2h-11.7v16.8h25.2v-21zm0 4.2h-8.2l1.1-2.1h7.1z" fill="#558dbf"/><path d="m20.62 10v5.999l-5.188-3" fill="#b2cde5"/><path d="m25.807 12.999-5.187 3v-5.999" fill="#b2cde5"/><path d="m25.807 12.999v6.001l-5.187-3.001" fill="#4c89c3"/><path d="m15.432 12.999v6.001l5.188-3.001" fill="#0057a9"/><path d="m20.62 15.999v6.001l-5.188-3" fill="#0057a9"/><path d="m20.622 15.999-.002 6.001 5.187-2.998" fill="#4c89c3"/><path d="m25.807 19v6l-5.187-3" fill="#b2cde5"/><path d="m15.432 19v6l5.188-3" fill="#b2cde5"/><path d="m20.62 22v6l-5.188-3" fill="#4c89c3"/><path d="m20.622 22-.002 6 5.187-2.998" fill="#0057a9"/><path d="m15.432 19v6l-5.187-3" fill="#b2cde5"/><path d="m10.245 22v6l5.187-3" fill="#0057a9"/><path d="m15.432 25v6l-5.187-3" fill="#0057a9"/><path d="m15.434 25-.002 6 5.188-2.998" fill="#4c89c3"/><path d="m30.995 22.002-5.188 2.998.003-6" fill="#b2cde5"/><path d="m30.995 22v6l-5.188-3" fill="#4c89c3"/><path d="m25.807 25v6l-5.187-3" fill="#0057a9"/><path d="m25.81 25-.003 6 5.188-2.998" fill="#4c89c3"/></svg>