<svg xmlns="http://www.w3.org/2000/svg" xmlns:xlink="http://www.w3.org/1999/xlink" viewBox="0 0 32 32"><defs><radialGradient id="a" cx="-10.316" cy="31.126" r="13.788" gradientTransform="translate(26.52 -9.307)" gradientUnits="userSpaceOnUse"><stop offset="0" stop-color="#fff"/><stop offset="0.5" stop-color="#4c6b96"/><stop offset="1" stop-color="#231f20"/></radialGradient></defs><title>folder_type_php</title><path d="M27.5,5.5H18.2L16.1,9.7H4.4V26.5H29.6V5.5Zm0,4.2H19.3l1.1-2.1h7.1Z" style="fill:#537bc1"/><ellipse cx="20.4" cy="25.4" rx="10.5" ry="5.523" style="fill:url(#a)"/><ellipse cx="20.4" cy="25.4" rx="10.09" ry="5.113" style="fill:#6280b6"/><path d="M22.444,27.053l.5-2.576a1.314,1.314,0,0,0-.279-1.289,2.2,2.2,0,0,0-1.5-.394H20.3l.248-1.276a.164.164,0,0,0-.161-.2h-1.2a.164.164,0,0,0-.161.133L18.5,24.189a1.538,1.538,0,0,0-.358-.79,2.087,2.087,0,0,0-1.65-.605H14.172a.164.164,0,0,0-.161.133l-1.076,5.535a.164.164,0,0,0,.161.2H14.3a.164.164,0,0,0,.161-.133l.26-1.339h.9a3.875,3.875,0,0,0,1.176-.152,2.3,2.3,0,0,0,.863-.517,2.654,2.654,0,0,0,.51-.633l-.215,1.106a.164.164,0,0,0,.161.2h1.2a.164.164,0,0,0,.161-.133l.59-3.038h.821c.35,0,.452.07.48.1s.078.124.019.427l-.476,2.449a.164.164,0,0,0,.161.2h1.215A.164.164,0,0,0,22.444,27.053ZM16.9,24.924a1.312,1.312,0,0,1-.421.819,1.628,1.628,0,0,1-.986.241h-.534L15.343,24h.691c.508,0,.712.109.794.2A.886.886,0,0,1,16.9,24.924Z" style="fill:#fff"/><path d="M27.56,23.4a2.087,2.087,0,0,0-1.65-.605H23.591a.164.164,0,0,0-.161.133l-1.076,5.535a.164.164,0,0,0,.161.2h1.206a.164.164,0,0,0,.161-.133l.26-1.339h.9a3.875,3.875,0,0,0,1.176-.152,2.3,2.3,0,0,0,.863-.517,2.569,2.569,0,0,0,.807-1.445A1.884,1.884,0,0,0,27.56,23.4Zm-1.251,1.525a1.312,1.312,0,0,1-.421.819,1.628,1.628,0,0,1-.986.241h-.534L24.754,24h.691c.508,0,.712.109.794.2A.886.886,0,0,1,26.309,24.924Z" style="fill:#fff"/><path d="M16.034,23.831a1.234,1.234,0,0,1,.916.254,1,1,0,0,1,.109.871,1.459,1.459,0,0,1-.482.917,1.771,1.771,0,0,1-1.086.275h-.733l.45-2.317ZM13.1,28.493H14.3l.286-1.472H15.62a3.7,3.7,0,0,0,1.125-.144,2.13,2.13,0,0,0,.8-.482,2.4,2.4,0,0,0,.757-1.356,1.723,1.723,0,0,0-.289-1.533,1.926,1.926,0,0,0-1.526-.549H14.172Z" style="fill:#000004"/><path d="M19.191,21.486h1.2L20.1,22.958h1.066a2.075,2.075,0,0,1,1.388.351,1.161,1.161,0,0,1,.229,1.137l-.5,2.576H21.068l.476-2.449a.665.665,0,0,0-.06-.57.841.841,0,0,0-.6-.152h-.956l-.616,3.171h-1.2Z" style="fill:#000004"/><path d="M25.445,23.831a1.234,1.234,0,0,1,.916.254,1,1,0,0,1,.109.871,1.459,1.459,0,0,1-.482.917,1.771,1.771,0,0,1-1.086.275h-.733l.45-2.317Zm-2.938,4.662h1.206L24,27.021h1.033a3.7,3.7,0,0,0,1.125-.144,2.13,2.13,0,0,0,.8-.482,2.4,2.4,0,0,0,.757-1.356,1.723,1.723,0,0,0-.289-1.533,1.926,1.926,0,0,0-1.526-.549H23.583Z" style="fill:#000004"/></svg>