<svg xmlns="http://www.w3.org/2000/svg" viewBox="0 0 32 32"><path fill="#2e6040" d="M27.4 5.5h-9.2l-2.1 4.2H4.3v16.8h25.2v-21Zm0 18.7H6.6V11.8h20.8Zm0-14.5h-8.2l1-2.1h7.1v2.1Z"/><path fill="#2e6040" d="M25.7 13.7H.5l3.8 12.8h25.2z"/><path fill="#85ea2d" d="M22.564 29.973c-4.857 0-8.809-3.952-8.809-8.81 0-4.857 3.952-8.808 8.81-8.808 4.856 0 8.808 3.952 8.808 8.809s-3.952 8.809-8.809 8.809"/><path fill="#173647" d="M22.45 12.867a8.368 8.368 0 1 1 0 16.736 8.368 8.368 0 0 1 0-16.736m0-.882c-5.1 0-9.25 4.15-9.25 9.25s4.15 9.25 9.25 9.25 9.25-4.15 9.25-9.25-4.15-9.25-9.25-9.25"/><path fill="#173647" d="M19.105 18.162c-.028.316.01.644-.01.964-.025.32-.065.636-.129.953-.089.452-.37.793-.757 1.078.754.49.84 1.252.89 2.024.024.416.013.836.056 1.248.032.32.156.402.487.413.136.003.274 0 .43 0v.988c-.977.168-1.785-.11-1.984-.938a6 6 0 0 1-.121-.925c-.021-.331.014-.662-.01-.993-.072-.907-.19-1.213-1.057-1.255V20.59c.064-.014.124-.025.188-.032.477-.025.68-.17.783-.64q.074-.395.089-.8c.036-.516.021-1.042.11-1.555.124-.736.58-1.092 1.338-1.134.213-.011.43 0 .675 0v1.01c-.103.007-.192.021-.284.021-.616-.021-.648.189-.694.7m1.185 2.34h-.015a.65.65 0 0 0-.064 1.298h.043a.64.64 0 0 0 .676-.6v-.036a.65.65 0 0 0-.64-.662m2.23 0a.623.623 0 0 0-.644.601q-.001.032.004.06c0 .389.263.638.661.638.391 0 .637-.256.637-.658-.004-.388-.263-.644-.658-.64m2.283 0a.664.664 0 0 0-.675.644c0 .363.291.654.654.654h.007c.328.057.658-.26.68-.64.017-.352-.303-.658-.666-.658m3.134.054c-.413-.018-.619-.157-.722-.548a4 4 0 0 1-.117-.765c-.029-.477-.025-.957-.057-1.434-.075-1.13-.893-1.525-2.081-1.33v.982c.188 0 .334 0 .48.003.253.004.445.1.47.381.024.256.024.516.05.776.05.515.078 1.038.167 1.547.078.42.366.733.725.989-.63.423-.814 1.027-.846 1.707-.018.466-.029.935-.054 1.405-.021.427-.17.565-.6.576-.122.004-.239.014-.374.022v1.006c.252 0 .484.014.715 0 .718-.043 1.152-.391 1.294-1.088q.091-.578.107-1.16c.025-.356.022-.715.057-1.067.053-.551.306-.779.857-.814a1 1 0 0 0 .153-.036V20.58c-.092-.01-.156-.02-.224-.024"/></svg>