<svg xmlns="http://www.w3.org/2000/svg" viewBox="0 0 32 32"><title>folder_type_css</title><path d="M27.5,5.5H18.2L16.1,9.7H4.4V26.5H29.6V5.5Zm0,4.2H19.3l1.1-2.1h7.1Z" style="fill:#5597bf"/><polygon points="14.177 28.901 12.492 10 31.008 10 29.322 28.898 21.739 31 14.177 28.901" style="fill:#1572b6"/><polygon points="21.75 29.393 27.877 27.694 29.319 11.545 21.75 11.545 21.75 29.393" style="fill:#33a9dc"/><polygon points="21.75 18.393 24.818 18.393 25.029 16.019 21.75 16.019 21.75 13.701 21.758 13.701 27.563 13.701 27.507 14.323 26.937 20.711 21.75 20.711 21.75 18.393" style="fill:#fff"/><polygon points="21.764 24.413 21.754 24.416 19.172 23.719 19.007 21.87 17.753 21.87 16.68 21.87 17.005 25.51 21.753 26.828 21.764 26.825 21.764 24.413" style="fill:#ebebeb"/><polygon points="24.62 20.613 24.341 23.718 21.756 24.415 21.756 26.827 26.508 25.51 26.543 25.118 26.946 20.613 24.62 20.613" style="fill:#fff"/><polygon points="21.758 13.701 21.758 15.141 21.758 16.014 21.758 16.019 16.166 16.019 16.166 16.019 16.159 16.019 16.112 15.498 16.007 14.323 15.951 13.701 21.758 13.701" style="fill:#ebebeb"/><polygon points="21.75 18.393 21.75 19.833 21.75 20.706 21.75 20.712 19.208 20.712 19.208 20.712 19.201 20.712 19.155 20.191 19.049 19.015 18.994 18.393 21.75 18.393" style="fill:#ebebeb"/></svg>