<svg viewBox="0 0 32 32" xmlns="http://www.w3.org/2000/svg"><path d="m27.5 5.5h-9.3l-2.1 4.2h-11.7v16.8h25.2v-21zm0 4.2h-8.2l1.1-2.1h7.1z" fill="#bfb555"/><path d="m23.013 26.479a3.268 3.268 0 0 0 2.961 1.821c1.244 0 2.033-.622 2.033-1.481 0-1.025-.815-1.393-2.181-1.989l-.753-.324c-2.155-.92-3.61-2.068-3.61-4.512 0-2.252 1.752-3.96 4.38-3.96a4.433 4.433 0 0 1 4.267 2.4l-2.33 1.5a2.041 2.041 0 0 0 -1.936-1.288 1.305 1.305 0 0 0 -1.43 1.167q-.006.06-.007.121c0 .876.561 1.262 1.84 1.822l.753.324c2.549 1.1 3.986 2.208 3.986 4.713 0 2.7-2.12 4.179-4.967 4.179a5.756 5.756 0 0 1 -5.433-3.072zm-10.583.263c.473.876.876 1.542 1.927 1.542s1.6-.385 1.6-1.884v-10.171h3v10.215c0 3.1-1.822 4.521-4.477 4.521a4.652 4.652 0 0 1 -4.494-2.742z" fill="#f5de19"/></svg>