<svg xmlns="http://www.w3.org/2000/svg" viewBox="0 0 32 32"><title>folder_type_core_opened</title><path d="M27.4 5.5H18.2L16.1 9.7H4.3V13.7H0.5L4.3 26.5H29.5V5.5H27.4ZM20.2 7.6H27.3V9.7H19.2L20.2 7.6ZM25.7 13.7H6.6V11.8H27.4V19.426L25.7 13.7Z" style="fill:#3d91d6"/><path d="M17 15v10h10V15Zm8 8h-6v-6h6ZM13 13h2v-2a2 2 0 0 0-2 2m4-2h2v2h-2zm4 0h2v2h-2zm4 0h2v2h-2zm4 0v2h2a2 2 0 0 0-2-2m0 4h2v2h-2zm0 4h2v2h-2zm0 4h2v2h-2zm0 6a2 2 0 0 0 2-2h-2Zm-4-2h2v2h-2zm-4 0h2v2h-2zm-4 0h2v2h-2zm-2 2v-2h-2a2 2 0 0 0 2 2m-2-6h2v2h-2zm0-4h2v2h-2zm0-4h2v2h-2z" style="fill:#bbdef8"/></svg>