<svg xmlns="http://www.w3.org/2000/svg" viewBox="0 0 32 32"><defs><linearGradient id="a" x1="15.915" y1="25.739" x2="21.018" y2="14.942" gradientUnits="userSpaceOnUse"><stop offset="0" stop-color="#1011a1"/><stop offset="1" stop-color="#6969e1"/></linearGradient><linearGradient id="b" x1="20.676" y1="17.727" x2="27.799" y2="29.772" gradientUnits="userSpaceOnUse"><stop offset="0" stop-color="#b40e0e"/><stop offset="1" stop-color="#ff5959"/></linearGradient><linearGradient id="c" x1="24.799" y1="28.981" x2="14.72" y2="28.135" gradientUnits="userSpaceOnUse"><stop offset="0" stop-color="#01a300"/><stop offset="1" stop-color="#01df00"/></linearGradient><linearGradient id="d" x1="19.474" y1="26.291" x2="19.345" y2="21.908" gradientUnits="userSpaceOnUse"><stop offset="0" stop-color="#848484"/><stop offset="1" stop-color="#d2d2d2"/></linearGradient></defs><title>folder_type_cmake_opened</title><path d="M27.9,6H18.2l-2,4H5V27H30V6ZM28,24H7V12H28Zm.1-14H20.3l1-2H28Z" style="fill:#dcb67a"/><polygon points="25.9 14 0.3 14 4.1 27 29.7 27 25.9 14" style="fill:#dcb67a"/><path d="M21.456,21.2,10.065,30.933,20.5,10.091Z" style="fill:url(#a)"/><path d="M10.081,30.951l-.039-.029L20.518,10l.007.089.957,11.122-.009.008Zm10.4-20.77L10.143,30.833,21.43,21.189Z"/><path d="M21.983,27.277,20.5,10.089,30.949,30.935Z" style="fill:url(#b)"/><path d="M31,30.982l-.062-.024L21.96,27.3l0-.016L20.475,10.091l.047-.013ZM22.007,27.26l8.89,3.627L20.536,10.217Z"/><path d="M16.829,25.124,30.96,30.933H10.068Z" style="fill:url(#c)"/><path d="M30.96,30.958H10l.052-.044L16.824,25.1l.015.006L30.97,30.909Zm-20.825-.051h20.7l-14-5.754Z"/><path d="M16.851,25.138l4.6-3.922.64,6.056Z" style="fill:url(#d)"/><path d="M22.149,27.351l-.077-.033-5.316-2.165.062-.053,4.673-3.984.01.095Zm-5.2-2.229,5.087,2.072-.621-5.879Z"/><path d="M30.887,31.075H10.094A.193.193,0,0,1,9.939,31a.188.188,0,0,1,.018-.171L20.383,10.009a.144.144,0,0,1,.12-.083h0a.135.135,0,0,1,.115.079L31.041,30.817a.2.2,0,0,1,.015.187A.192.192,0,0,1,30.887,31.075Zm-20.808-.153.023,0H30.887a.168.168,0,0,0,.038,0c0-.006-.008-.018-.018-.037L20.5,10.109,10.092,30.893Zm-.016,0Z"/></svg>