<svg viewBox="0 0 32 32" xmlns="http://www.w3.org/2000/svg" xmlns:xlink="http://www.w3.org/1999/xlink"><radialGradient id="a" cx="20.365" cy="6.269" gradientTransform="matrix(-.148 .989 1.059 .158 11.812 -5.692)" gradientUnits="userSpaceOnUse" r="2.721"><stop offset="0" stop-color="#bedcdc"/><stop offset=".5" stop-color="#8e9e9e" stop-opacity=".74"/><stop offset="1" stop-color="#404f5c" stop-opacity=".84"/></radialGradient><radialGradient id="b" cx="6.566" cy="14.644" gradientTransform="matrix(-.148 .989 1.059 .158 9.451 15.181)" r="3.9" xlink:href="#a"/><path d="m27.4 5.5h-9.2l-2.1 4.2h-11.8v4h-3.8l3.8 12.8h25.2v-21zm-7.2 2.1h7.1v2.1h-8.1zm5.5 6.1h-19.1v-1.9h20.8v7.626z" fill="#7bbedb"/><path d="m13.886 12.006-1.803 1.803-.901-1.803.901-.901z" fill="#c0c0c0"/><path d="m16.772 11.912h-2.551l.638-1.912h1.274z" fill="#c0c0c0"/><path d="m18.877 13.886-1.803-1.803 1.803-.901.902.901z" fill="#c0c0c0"/><path d="m18.971 16.772v-2.551l1.912.638v1.274z" fill="#c0c0c0"/><path d="m16.997 18.877 1.803-1.803.901 1.803-.901.902z" fill="#c0c0c0"/><path d="m14.112 18.971h2.55l-.637 1.912h-1.275z" fill="#c0c0c0"/><path d="m12.006 16.997 1.803 1.803-1.803.901-.901-.901z" fill="#c0c0c0"/><path d="m11.912 14.112v2.55l-1.912-.637v-1.275z" fill="#c0c0c0"/><path d="m11.663 15.442a3.778 3.778 0 1 1 1.107 2.672 3.778 3.778 0 0 1 -1.107-2.672zm3.779 1.425a1.425 1.425 0 1 0 -1.008-.418 1.425 1.425 0 0 0 1.008.418z" fill="#c0c0c0"/><path d="m15.5 18.939a3.5 3.5 0 1 0 -3.555-3.439 3.5 3.5 0 0 0 3.555 3.439zm-.113-6.457a2.96 2.96 0 1 1 -2.907 3.012 2.961 2.961 0 0 1 2.91-3.012z" fill="#a9a9a9"/><path d="m15.489 18.162a2.721 2.721 0 1 0 -2.767-2.673 2.72 2.72 0 0 0 2.767 2.673zm-.075-4.275a1.555 1.555 0 1 1 -1.528 1.583 1.555 1.555 0 0 1 1.528-1.583z" fill="url(#a)"/><path d="m15.47 17a1.555 1.555 0 1 0 -1.583-1.526 1.555 1.555 0 0 0 1.583 1.526zm-.051-2.87a1.316 1.316 0 1 1 -1.292 1.339 1.316 1.316 0 0 1 1.292-1.337z" fill="#a9a9a9"/><g fill="#c0c0c0"><path d="m27.572 19.763-1.706-.947 1.098-1.176 1.024.568z"/><path d="m29.208 22.119-1.005-1.672 1.539-.47.603 1.004z"/><path d="m29.446 24.978-.034-1.951 1.568.363.02 1.17z"/><path d="m28.223 27.572.946-1.706 1.176 1.098-.567 1.024z"/><path d="m25.866 29.208 1.673-1.005.469 1.539-1.003.603z"/><path d="m23.007 29.446 1.952-.034-.363 1.568-1.171.02z"/><path d="m20.413 28.223 1.706.946-1.098 1.176-1.024-.567z"/><path d="m18.777 25.866 1.005 1.673-1.539.469-.603-1.003z"/><path d="m18.539 23.007.034 1.952-1.567-.363-.021-1.171z"/><path d="m19.763 20.413-.947 1.706-1.176-1.098.568-1.024z"/><path d="m22.119 18.777-1.672 1.005-.47-1.539 1.004-.603z"/><path d="m24.978 18.539-1.951.034.363-1.567 1.17-.021z"/><path d="m23.9 18.372a5.626 5.626 0 1 1 -3.946 1.716 5.625 5.625 0 0 1 3.946-1.716zm-2.017 5.658a2.112 2.112 0 1 0 .592-1.5 2.11 2.11 0 0 0 -.592 1.5z"/></g><path d="m24.081 29.045a5.053 5.053 0 1 0 -5.14-4.964 5.054 5.054 0 0 0 5.14 4.964zm-.163-9.327a4.275 4.275 0 1 1 -4.2 4.35 4.275 4.275 0 0 1 4.2-4.35z" fill="#a9a9a9"/><path d="m24.061 27.893a3.9 3.9 0 1 0 -3.967-3.832 3.9 3.9 0 0 0 3.967 3.832zm-.105-6.027a2.128 2.128 0 1 1 -2.09 2.164 2.127 2.127 0 0 1 2.089-2.164z" fill="url(#b)"/><path d="m24.033 26.324a2.331 2.331 0 1 0 -2.372-2.291 2.331 2.331 0 0 0 2.372 2.291zm-.075-4.3a1.973 1.973 0 1 1 -1.938 2.007 1.972 1.972 0 0 1 1.938-2.007z" fill="#a9a9a9"/></svg>