<svg xmlns="http://www.w3.org/2000/svg" viewBox="0 0 32 32"><title>folder_type_haxelib</title><path d="M27.5,5.5H18.2L16.1,9.7H4.4V26.5H29.6V5.5Zm0,4.2H19.3l1.1-2.1h7.1Z" style="fill:#bf8a55"/><path d="M20.5,12.625,12.625,20.5,20.5,28.375,28.375,20.5,20.5,12.625" style="fill:#f68712"/><path d="M10,10l10.5,2.625L12.625,20.5,10,10" style="fill:#fab20b"/><path d="M31,10,28.375,20.5,20.5,12.625,31,10" style="fill:#f47216"/><path d="M31,31,20.5,28.375,28.375,20.5,31,31" style="fill:#f25c19"/><path d="M10,31l2.625-10.5L20.5,28.375,10,31" style="fill:#f89c0e"/><path d="M20.5,12.625,10,10h5.25l5.25,2.625" style="fill:#fbc707"/><path d="M20.5,12.625,31,10H25.75L20.5,12.625" style="fill:#fbc707"/><path d="M20.5,28.375,31,31H25.75L20.5,28.375" style="fill:#f68712"/><path d="M20.5,28.375,10,31h5.25l5.25-2.625" style="fill:#f25c19"/><path d="M12.625,20.5,10,31V25.75l2.625-5.25" style="fill:#fff200"/><path d="M12.625,20.5,10,10v5.25l2.625,5.25" style="fill:#fff200"/><path d="M28.375,20.5,31,10v5.25L28.375,20.5" style="fill:#f1471d"/><path d="M28.375,20.5,31,31V25.75L28.375,20.5" style="fill:#f1471d"/></svg>