<svg xmlns="http://www.w3.org/2000/svg" viewBox="0 0 32 32"><title>folder_type_story</title><path d="M27.9,6H18.1l-2,4H5V27H30V6Zm.1,4H20.2l1-2H28Z" style="fill:#bf5573"/><path d="M16.647,30.3l-.908-19.2h-.681l.681,19.2Z" style="fill:#b57ee5"/><path d="M17.025,30.3l-.908-19.2L30.942,10V31Z" style="fill:#f1618c"/><path d="M27.159,12.888,27.31,10.2l1.815-.117v2.81l-.893-.835Z" style="fill:#fff"/><path d="M24.862,18.047l2.961-.075c.075-2.869-1.416-4.285-4.009-4.285s-4.047,1.472-4.047,3.675c0,3.844,4.966,3.917,4.966,6.013,0,.589-.276.939-.883.939-.79,0-1.1-.516-1.066-1.95H19.676c-.239,3.549,1.839,4.359,4.211,4.359,2.3,0,4.1-1.067,4.1-3.384,0-4.12-5.039-4.01-5.039-6.051a.844.844,0,0,1,.739-.938.828.828,0,0,1,.2,0C24.255,16.355,24.918,16.5,24.862,18.047Z" style="fill:#fff"/></svg>