<svg xmlns="http://www.w3.org/2000/svg" xmlns:xlink="http://www.w3.org/1999/xlink" viewBox="0 0 32 32"><defs><clipPath id="clip-path"><rect x="-20.44" y="47.71" width="17.09" height="16.92" rx="5.47" ry="5.47" style="fill:none"/></clipPath></defs><title>folder_type_images@2x</title><g id="folder_opened_nuget"><g style="clip-path:url(#clip-path)"><path d="M2.72,37.59a22,22,0,0,1-22,22,22,22,0,0,1-22-22h0a22,22,0,0,1,22-22,22,22,0,0,1,22,22Z" style="fill:#5fffe6;opacity:0.172566369175911;isolation:isolate"/></g></g><g id="folder_images"><path d="M27.5,5.5H18.2L16.1,9.7H4.4V26.5H29.6V5.5Zm0,4.2H19.3l1.1-2.1h7.1Z" style="fill:#55bfa0"/><path d="M31,15.78Q31,23.39,31,31H10q0-7.61,0-15.22H31" style="fill:#2dcc9f"/><path d="M26.67,17.8a1.65,1.65,0,1,0,.85.47,1.66,1.66,0,0,0-.85-.47" style="fill:#fff"/><path d="M22.08,26.47,18,20.79l-6.06,8.43h8.17l2-2.75" style="fill:#fff"/><path d="M25,23.39l-4.19,5.82h8.38Z" style="fill:#fff"/></g></svg>