<svg viewBox="0 0 32 32" xmlns="http://www.w3.org/2000/svg" xmlns:xlink="http://www.w3.org/1999/xlink"><linearGradient id="a" gradientTransform="matrix(87.822 0 0 -88.533 17792.306 -15114.083)" gradientUnits="userSpaceOnUse" x1="-202.298" x2="-202.26" y1="-171.036" y2="-171.046"><stop offset="0" stop-color="#ffd441"/><stop offset="1" stop-color="#ffb047"/></linearGradient><linearGradient id="b" gradientTransform="matrix(87.822 0 0 -88.533 17772.442 -15266.467)" gradientUnits="userSpaceOnUse" x1="-202.066" x2="-202.047" y1="-172.644" y2="-172.6"><stop offset="0" stop-color="#ffd754"/><stop offset="1" stop-color="#ffb532"/></linearGradient><linearGradient id="c" gradientTransform="matrix(87.822 0 0 -88.533 17710.573 -15342.2)" gradientUnits="userSpaceOnUse" x1="-201.407" x2="-201.407" y1="-173.45" y2="-173.412"><stop offset="0" stop-color="#ffd642"/><stop offset="0" stop-color="#ffd441"/><stop offset="1" stop-color="#ffb532"/></linearGradient><linearGradient id="d" gradientTransform="matrix(106.198 0 0 -88.551 21355.411 -15295.168)" gradientUnits="userSpaceOnUse" x1="-200.902" x2="-200.953" y1="-172.909" y2="-172.897"><stop offset="0" stop-color="#ffd441"/><stop offset="1" stop-color="#ffa829"/></linearGradient><path d="m27.5 5.5h-9.3l-2.1 4.2h-11.7v16.8h25.2v-21zm0 4.2h-8.2l1.1-2.1h7.1z" fill="#bf8e55"/><g fill-opacity=".7"><path d="m28.069 30.557v-5.428h-5.385l5.385 5.429" fill="#ffdf51"/><path d="m28.674 27.479v-5.871h-5.825l5.824 5.871" fill="#ff8900"/><path d="m25.136 25.129v5.871h5.824z" fill="url(#a)"/><path d="m27.456 22v-4.643h-4.607z" fill="#ffdf4f"/></g><path d="m29.643 20.894v-5.871h-5.824z" fill="url(#b)" fill-opacity=".8"/><path d="m19.716 10v5.871h5.824z" fill="url(#c)" fill-opacity=".8"/><path d="m21.082 19.2v-5.875h-7.043l5.8 5.873h1.244" fill="url(#d)" fill-opacity=".88"/><path d="m21.082 30.968v-7.1h-7.043z" fill="#ffb700" fill-opacity=".7"/><path d="m21.084 25.085v-5.871h-5.824z" fill="#ffb700" fill-opacity=".5"/><path d="m22.849 17.357v5.871h5.824z" fill="#ffcd25" fill-opacity=".7"/><path d="m21.069 18.018v-5.872h-5.824l5.824 5.871" fill="#ff8900" fill-opacity=".7"/><path d="m22.684 25.129v5.871h5.824z" fill="#ff8900" fill-opacity=".7"/><path d="m26.342 25.129-1.885-1.901h-1.608v-5.871h3.286l-1.474-1.486h-3.592l.013 3.325v4.669 7.135h1.602v-5.871z" fill="#fff"/></svg>