<svg xmlns="http://www.w3.org/2000/svg" viewBox="0 0 32 32"><title>folder_type_circleci</title><path d="M27.5 5.5h-9.3l-2.1 4.2H4.4v16.8h25.2v-21Zm0 4.2h-8.2l1.1-2.1h7.1Z" style="fill:#632ca6;fill-opacity:1"/><path fill="#fff" d="M25.606 11.28 13.17 12.712l-.29 3.242s1.058 12.146 1.043 12.103c-.014-.043 1.487.962 1.487.962s.575 2.048 2.65 1.498c2.074-.55.92-3.053.754-3.378s.784.89.784.89l1.15-.139.18 1.51 9.145-1.648-.545-6.59z"/><path fill="#632ca6" fill-rule="evenodd" d="m27.71 24.99-1.749-1.153-1.458 2.435-1.696-.495-1.494 2.279.077.717 8.12-1.496-.472-5.073zm-7.573-2.188 1.303-.179c.21.095.357.13.61.195.394.103.85.201 1.524-.139.157-.078.484-.377.617-.547l5.337-.969.545 6.59-9.145 1.648Zm9.915-2.374-.527.1-1.012-10.458-17.247 2 2.125 17.243 2.018-.293c-.16-.23-.412-.509-.84-.865-.595-.494-.385-1.333-.034-1.863.464-.895 2.855-2.033 2.72-3.464-.05-.52-.132-1.197-.615-1.661-.018.192.015.378.015.378s-.199-.253-.298-.598c-.098-.132-.175-.175-.28-.351-.073.204-.064.441-.064.441s-.162-.383-.188-.707c-.096.145-.12.42-.12.42s-.211-.604-.163-.93c-.097-.282-.382-.844-.3-2.122.525.37 1.684.282 2.136-.384.15-.22.252-.822-.075-2.007-.21-.76-.731-1.893-.934-2.322l-.024.017c.107.346.327 1.072.412 1.423.256 1.067.325 1.438.204 1.93-.102.428-.347.707-.97 1.02-.621.314-1.447-.45-1.5-.492-.603-.481-1.07-1.267-1.123-1.648-.054-.418.24-.669.39-1.01a4 4 0 0 0-.45.169s.282-.293.632-.547c.144-.096.229-.157.381-.283-.22-.004-.4.003-.4.003s.368-.2.75-.344c-.28-.012-.546-.002-.546-.002s.82-.367 1.469-.636c.446-.183.881-.13 1.126.225.321.463.659.715 1.374.87.439-.194.572-.294 1.124-.444.485-.534.867-.603.867-.603s-.19.173-.24.446c.275-.217.577-.398.577-.398s-.117.144-.226.373l.026.038a6 6 0 0 1 .699-.345s-.108.137-.235.314c.242-.002.733.01.924.031 1.126.025 1.36-1.202 1.791-1.356.541-.193.783-.31 1.704.596.791.777 1.41 2.168 1.102 2.48-.257.258-.764-.101-1.327-.802a3.04 3.04 0 0 1-.627-1.368 1.34 1.34 0 0 0-.434-.744s.2.446.2.84c0 .216.027 1.02.372 1.472-.034.066-.05.326-.088.376-.401-.485-1.263-.832-1.404-.935.476.39 1.57 1.286 1.99 2.144.397.812.163 1.556.364 1.749.057.055.855 1.048 1.008 1.547.267.87.016 1.784-.334 2.352l-.978.152c-.143-.04-.24-.06-.368-.134.07-.125.211-.437.213-.502l-.055-.097c-.305.432-.815.85-1.238 1.09-.555.315-1.193.266-1.61.138-1.18-.365-2.296-1.162-2.565-1.372 0 0-.009.167.042.205.298.336.98.943 1.639 1.366l-1.405.155.664 5.172c-.295.042-.34.063-.663.109-.284-1.004-.828-1.66-1.422-2.041-.524-.337-1.246-.413-1.938-.276l-.044.052c.48-.05 1.048.02 1.632.389.572.362 1.033 1.297 1.203 1.86.218.719.368 1.488-.217 2.304-.417.58-1.632.9-2.614.207.262.422.617.767 1.094.832.709.096 1.381-.027 1.844-.502.396-.406.605-1.256.55-2.151l.625-.09.226 1.606 10.355-1.247zm-6.3-4.363c-.029.066-.074.11-.006.324l.004.013.011.027.029.065c.123.25.258.488.483.609q.087-.015.181-.02c.212-.01.346.024.43.07a1 1 0 0 0 .005-.195c-.016-.318.064-.86-.548-1.144-.231-.108-.555-.075-.663.06q.03.004.051.01c.163.058.053.114.023.181m1.715 2.97c-.08-.044-.455-.027-.719.005-.502.059-1.044.233-1.163.326-.216.167-.118.458.042.577.447.334.84.558 1.253.504.255-.033.479-.436.637-.801.11-.251.11-.523-.05-.611m-4.445-2.576c.142-.134-.705-.31-1.362.137-.485.33-.5 1.04-.037 1.441q.069.058.12.091a4.177 4.177 0 0 1 1.222-.36c.1-.11.213-.303.185-.653-.039-.474-.398-.399-.128-.656" class="st0" clip-rule="evenodd"/></svg>