<svg xmlns="http://www.w3.org/2000/svg" xml:space="preserve" width="32mm" height="32mm" viewBox="0 0 32 32"><path d="M16.264 15.992c.044-.187.023.216 0 0" style="fill:#000"/><path d="M16.264 15.992c.044-.187.023.216 0 0" style="fill:#000"/><path d="M16.264 15.992c.044-.187.023.216 0 0" style="fill:#000"/><path d="M16.264 15.992c.044-.187.023.216 0 0" style="fill:#000"/><path d="M16.264 15.992c.044-.187.023.216 0 0" style="fill:#000"/><path d="M13.108 26.447c-.412-.206-.635-.574-.692-1.141l-.03-.306-3.215-.023-3.215-.023-.11-.13-.112-.128v-6.487c0-4.61.015-6.518.05-6.597a.5.5 0 0 1 .21-.186c.142-.068.57-.076 4.473-.076h4.315l.85-1.607c.601-1.135.883-1.623.957-1.658s1.479-.05 4.587-.05c4.348 0 4.485.003 4.59.089l.109.088v5.233l.736.024c.612.02.772.04.944.119.237.109.48.365.604.637.08.178.085.44.085 5.803s-.004 5.625-.085 5.804a1.36 1.36 0 0 1-.627.648l-.23.107h-6.956l-6.955.001zm14.09-.74a.6.6 0 0 0 .155-.156c.068-.103.076-.62.084-5.443.004-2.93-.01-5.394-.03-5.475a.6.6 0 0 0-.18-.264c-.134-.114-.161-.118-.757-.118h-.618v.644h.248c.175 0 .28.026.357.088.101.082.108.119.108.57 0 .612-.043.677-.444.677h-.27v.816l.357.026c.452.035.495.08.539.586.043.495-.022 7.129-.071 7.26a.23.23 0 0 1-.144.128c-.103.025-11.98-.004-12.834-.032L13.261 25l.007.247c.005.2.03.27.127.369l.121.12 5.558.024c6.103.025 8.002.013 8.124-.053m-3.602-14.955v-.6l-2.493.013-2.492.011-.315.553a8 8 0 0 0-.315.587c0 .019 1.262.034 2.807.034h2.808z" style="fill:#d1e3f6" transform="translate(-.989 -1.312)"/><path d="M13.307 26.486c-.48-.171-.787-.62-.837-1.22-.024-.282-.04-.331-.125-.354-.053-.014-1.508-.026-3.232-.026-2.978-.001-3.138-.005-3.21-.085-.07-.078-.077-.605-.077-6.65v-6.565l.102-.072c.091-.064.589-.072 4.431-.072 2.617 0 4.356-.018 4.398-.044.038-.024.453-.764.922-1.645l.852-1.602 4.557-.023c3.99-.02 4.567-.015 4.641.045.082.066.084.172.051 2.537-.018 1.357-.02 2.542-.003 2.631l.031.164.747.017c.63.015.78.033.954.113.237.108.48.363.604.636.08.178.085.44.085 5.757 0 5.318-.004 5.579-.085 5.758a1.36 1.36 0 0 1-.627.648l-.23.107-6.906-.003c-4.777-.002-6.948-.018-7.043-.052m13.857-.7a.63.63 0 0 0 .252-.22c.091-.15.093-.217.093-5.505 0-5.813.012-5.548-.254-5.757-.116-.091-.18-.1-.763-.1-.725 0-.732.005-.732.385 0 .324.023.352.294.352.14 0 .28.03.34.072.094.066.102.108.102.55s-.008.483-.102.55c-.06.042-.2.071-.34.071-.208 0-.241.013-.265.104-.044.162-.034.614.015.745.043.111.064.118.369.118.564 0 .51-.421.497 3.932-.012 3.61-.016 3.75-.1 3.843l-.088.097h-6.11c-5.313 0-6.135-.009-6.306-.069-.243-.086-.69-.09-.803-.008-.114.084-.082.535.048.681.205.23-.088.22 7.03.223 5.699.001 6.688-.008 6.823-.065M23.616 11.37c.057-.058.072-.183.072-.618s-.015-.56-.072-.618c-.064-.064-.355-.073-2.506-.073-2.093 0-2.443.01-2.502.069-.084.084-.674 1.143-.674 1.21 0 .027.025.06.057.072.032.013 1.294.025 2.805.027 2.44.003 2.755-.005 2.82-.069" style="fill:#a7cff8" transform="translate(-.989 -1.312)"/><path d="M13.294 26.438c-.222-.07-.56-.39-.66-.622-.048-.111-.1-.35-.115-.532-.019-.218-.053-.35-.101-.388-.056-.044-.778-.057-3.254-.057-2.413 0-3.195-.013-3.237-.055s-.055-1.572-.055-6.604v-6.548l.102-.072c.091-.063.589-.072 4.431-.072 2.59 0 4.356-.018 4.397-.044.037-.023.451-.764.92-1.645l.854-1.602 4.511-.023c2.481-.013 4.55-.006 4.596.015.08.036.082.145.05 2.603-.024 1.873-.019 2.59.019 2.662.049.091.094.098.824.113.741.015.78.021.983.14.216.127.383.313.519.576.069.134.075.634.075 5.721 0 6.114.02 5.706-.276 6.078a1.3 1.3 0 0 1-.378.295l-.238.12-6.908-.006c-4.696-.003-6.956-.02-7.06-.053m13.968-.642c.308-.169.293.126.293-5.77 0-5.764.012-5.486-.25-5.73-.12-.11-.156-.115-.783-.13-.793-.017-.808-.01-.808.424 0 .162.024.31.055.342.03.03.171.055.313.055s.283.025.313.055c.035.036.055.217.055.504 0 .541-.033.592-.385.592-.133 0-.266.025-.296.055-.07.07-.075.79-.008.915.04.076.099.089.388.089.248 0 .36.02.413.072.064.065.072.472.072 3.788 0 3.288-.008 3.727-.071 3.818l-.072.102h-6.122c-5.337 0-6.143-.009-6.287-.07-.226-.094-.768-.091-.864.004-.096.097-.094.444.005.652a.5.5 0 0 0 .265.248c.18.082.443.085 6.908.075 6.245-.01 6.732-.017 6.866-.09m-3.6-14.38c.058-.058.072-.187.072-.664s-.014-.606-.072-.664c-.064-.064-.358-.073-2.534-.073h-2.462l-.103.104c-.057.057-.245.358-.417.669-.256.462-.303.578-.257.633.048.058.454.067 2.878.067 2.504 0 2.83-.008 2.895-.072" style="fill:#81bdfa" transform="translate(-.989 -1.312)"/><path d="M13.535 26.45c-.6-.088-.93-.48-.976-1.16-.02-.299-.042-.375-.12-.43-.082-.057-.566-.067-3.253-.067-2.394 0-3.17-.014-3.213-.055-.082-.083-.08-13.09.003-13.143.031-.02 2.044-.048 4.473-.06l4.416-.023.11-.208.87-1.645.763-1.438 4.495-.012c2.701-.007 4.52.005 4.556.03.05.035.054.513.027 2.606l-.033 2.563.1.099c.092.093.144.1.8.1.641 0 .723.01.936.109.263.122.493.382.596.674.104.296.103 10.984-.001 11.28-.097.273-.352.569-.591.685l-.201.097-6.763.016c-3.719.01-6.866.001-6.994-.017m13.722-.625c.321-.152.302.21.307-5.786.006-5.935.023-5.556-.267-5.784-.112-.088-.182-.096-.828-.096-.817 0-.801-.01-.801.451 0 .339.054.392.43.423.272.023.278.026.32.184.05.195.01.723-.064.811-.032.039-.143.064-.28.064-.388 0-.406.026-.406.548 0 .308.018.468.057.5.032.025.22.055.417.067s.384.047.414.078c.042.042.052.927.042 3.747-.008 2.03-.025 3.73-.039 3.775-.013.046-.076.103-.139.127-.07.026-2.463.043-6.107.042-5.872-.001-5.997-.003-6.194-.092-.221-.1-.73-.126-.884-.043-.074.04-.09.098-.09.35 0 .35.082.523.295.63.127.063.9.071 6.903.074 6.065.002 6.776-.005 6.914-.07M23.725 11.48c.083-.083.077-1.389-.008-1.458-.045-.038-.767-.05-2.611-.04l-2.55.011-.184.308c-.367.61-.594 1.077-.563 1.156.027.073.246.079 2.945.079 2.206 0 2.929-.014 2.97-.056" style="fill:#78bafd" transform="translate(-.989 -1.312)"/><path d="M13.254 26.384c-.23-.1-.503-.376-.586-.592-.18-.47-.189-.792-.18-6.086.01-5.88-.02-5.474.415-5.87.155-.143.31-.24.417-.263.233-.05 12.164-.033 13.2.018.914.045.984.066 1.272.368.337.355.31-.147.318 6.03.006 5.079 0 5.583-.07 5.75a1.4 1.4 0 0 1-.6.624c-.177.082-.455.085-7.113.084-5.76 0-6.952-.011-7.073-.063m13.965-.53a.55.55 0 0 0 .287-.273c.094-.185.095-.225.094-5.563v-5.376l-.103-.18c-.18-.313-.324-.357-1.07-.326-.354.015-3.4.041-6.767.06-4.825.025-6.145.044-6.225.09-.227.13-.218-.06-.253 5.466a909 909 0 0 1-.044 5.483c-.014.344.07.495.345.62.186.084.415.087 6.867.087 6.464 0 6.682-.003 6.869-.088m-13.096-.995-.103-.071V21.07c0-2.987.012-3.734.06-3.8.058-.078.34-.082 5.836-.077 5.75.005 6.505.017 6.615.106.045.037.057.847.057 3.767 0 3.32-.008 3.728-.072 3.793-.065.065-.69.072-6.182.072-5.454 0-6.12-.008-6.211-.072m7.634-8.808c-.027-.05-.049-.279-.049-.508 0-.57.033-.602.613-.602.597 0 .59-.007.574.645l-.013.53-.538.012c-.496.012-.543.006-.587-.078m1.787.011c-.068-.082-.09-.844-.03-.994.029-.07.101-.08.555-.08.344 0 .54.018.577.054.035.036.055.22.055.52s-.02.485-.055.52c-.037.037-.226.056-.547.056-.401 0-.503-.014-.555-.076m1.79.022c-.065-.05-.08-.144-.085-.53-.003-.257.01-.492.027-.521.04-.066.98-.015 1.07.057q.058.047.058.452c0 .477-.044.55-.337.55-.106 0-.296.013-.422.027-.157.018-.256.007-.31-.035" style="fill:#4b97e6" transform="translate(-.989 -1.312)"/><path d="M13.464 26.361a1.1 1.1 0 0 1-.612-.387c-.246-.331-.234-.058-.246-5.946-.012-6.14-.032-5.763.317-6.078.387-.35-.258-.321 7.312-.318 7.688.002 7.14-.024 7.494.36.363.393.332-.155.332 6.012 0 4.708-.01 5.552-.066 5.687-.113.27-.462.604-.692.662-.228.057-13.547.065-13.839.008m13.86-.488c.345-.199.322.217.324-5.84l.001-5.42-.102-.182c-.207-.369.483-.337-7.174-.324-7.624.014-7.022-.014-7.19.33-.073.147-.08.577-.086 5.65-.008 6.164-.039 5.641.34 5.814.186.085.395.087 6.96.077 6.704-.011 6.768-.012 6.928-.105m-13.058-1.042a.27.27 0 0 1-.126-.147c-.014-.054-.026-1.717-.027-3.695 0-2.925.01-3.606.06-3.647.044-.036 1.479-.053 4.938-.059 2.682-.005 4.97-.004 5.083.001s.656.014 1.205.019 1.013.025 1.033.044c.019.02.05.144.068.276.035.26.007 6.773-.031 7.02-.013.082-.062.17-.11.195-.123.066-11.957.059-12.093-.007m7.715-8.832c-.132-.031-.17-.168-.155-.55.017-.394.069-.433.527-.397.221.018.363.051.395.094.063.085.079.716.02.808-.032.05-.13.069-.363.069-.175 0-.367-.011-.424-.024m1.66-.117c-.056-.147-.058-.665-.003-.752.032-.05.128-.059.441-.04.22.014.424.05.453.08.07.068.054.677-.019.765-.038.047-.163.065-.44.065-.373 0-.389-.004-.432-.118m1.781.08a3 3 0 0 1-.023-.412c-.006-.372-.003-.383.115-.428.123-.046.664-.028.75.025.06.037.064.746.006.782-.065.04-.828.07-.848.034" style="fill:#2a8bf1" transform="translate(-.989 -1.312)"/><path d="M13.364 26.317c-.206-.046-.577-.396-.628-.593-.067-.257-.071-.627-.072-6.064-.002-5.663-.014-5.438.317-5.707.419-.338-.279-.31 7.34-.293l6.843.016.21.097c.26.12.483.346.6.608.085.193.087.377.087 5.647v5.447l-.123.238c-.145.28-.463.576-.662.616-.183.036-13.746.025-13.912-.012m14.045-.42c.3-.224.284.113.284-5.837 0-5.361 0-5.414-.094-5.607-.188-.389.522-.354-7.229-.354h-6.892l-.143.102a.8.8 0 0 0-.196.2c-.04.074-.052 1.428-.05 5.142.002 2.774-.013 5.167-.032 5.319s-.022.399-.005.549c.028.247.05.29.23.45l.2.177 6.887-.013 6.887-.012z" style="fill:#1a7be4" transform="translate(-.989 -1.312)"/></svg>