<svg xmlns="http://www.w3.org/2000/svg" xmlns:xlink="http://www.w3.org/1999/xlink" viewBox="0 0 32 32"><defs><clipPath id="clip-path"><rect x="47.56" y="13.71" width="17.09" height="16.92" rx="5.47" ry="5.47" style="fill:none"/></clipPath></defs><title>folder_type_sass_opened@2x</title><g id="folder_opened_sass"><path d="M27.4,5.5H18.2L16.1,9.7H4.3V26.5H29.5V5.5Zm0,18.7H6.6V11.8H27.4Zm0-14.5H19.2l1-2.1h7.1V9.7Z" style="fill:#db7bab"/><polygon points="25.7 13.7 0.5 13.7 4.3 26.5 29.5 26.5 25.7 13.7" style="fill:#db7bab"/><path d="M22.31,22.52c-.36.17-.76.38-1.55.82l-.91.5-.06-.07c-1.57-1.67-4.46-2.85-4.34-5.1,0-.82.33-3,5.56-5.58,4.31-2.12,7.73-1.53,8.33-.23.85,1.86-1.84,5.32-6.29,5.82A3.35,3.35,0,0,1,20.24,18c-.24-.26-.27-.27-.36-.22s-.05.31,0,.44a2.63,2.63,0,0,0,1.61,1.26,8.55,8.55,0,0,0,5.22-.52c2.7-1,4.8-3.94,4.18-6.37s-4.71-3.28-8.58-1.9a19.5,19.5,0,0,0-6.59,3.78c-2.13,2-2.47,3.73-2.33,4.45.5,2.58,4.05,4.26,5.47,5.5l-.19.11c-.71.35-3.42,1.77-4.1,3.27-.77,1.7.12,2.92.71,3.08A4.37,4.37,0,0,0,20,29a4.73,4.73,0,0,0,.42-4.35,3.77,3.77,0,0,1,.54-.36c.36-.21.71-.43,1-.59h0a7.86,7.86,0,0,1,3.36-.74c2.43.29,2.92,1.81,2.82,2.44a1.62,1.62,0,0,1-.77,1.09c-.17.11-.23.14-.21.22s.1.11.25.09a1.9,1.9,0,0,0,1.32-1.69c.08-1.5-1.36-3.15-3.89-3.13a5.81,5.81,0,0,0-2.21.44l-.33.15ZM18.69,28.4c-.81.88-1.93,1.21-2.42.93s-.32-1.6.68-2.53a12.89,12.89,0,0,1,1.9-1.42l.5-.3.06,0,.12-.08A3.49,3.49,0,0,1,18.69,28.4Z" style="fill:#fff"/></g><g id="folder_nuget"><g style="clip-path:url(#clip-path)"><path d="M70.72,3.59a22,22,0,1,1-43.93,0h0a22,22,0,0,1,43.93,0Z" style="fill:#5fffe6;opacity:0.172566369175911;isolation:isolate"/></g></g></svg>