<svg viewBox="0 0 32 32" xmlns="http://www.w3.org/2000/svg" xmlns:xlink="http://www.w3.org/1999/xlink"><linearGradient id="a" gradientTransform="matrix(1 0 0 -1 688.886 -724.637)" gradientUnits="userSpaceOnUse" x1="-675.043" x2="-660.949" y1="-738.859" y2="-752.956"><stop offset="0"/><stop offset="1" stop-color="#fff"/></linearGradient><linearGradient id="b" x1="-660.289" x2="-674.388" xlink:href="#a" y1="-752.297" y2="-738.195"/><path d="m27.4 5.5h-9.2l-2.1 4.2h-11.8v4h-3.8l3.8 12.8h25.2v-21zm-7.2 2.1h7.1v2.1h-8.1zm5.5 6.1h-19.1v-1.9h20.8v7.626z" fill="#9b9b9b"/><path d="m20.983 25.883c4.418 6.032 8.742-1.683 8.735-6.323-.007-5.485-5.559-8.552-8.739-8.552a9.994 9.994 0 0 0 0 19.988c-.993-.143-4.307-.857-4.35-8.5-.03-5.168 1.683-7.232 4.344-6.325a5.08 5.08 0 0 1 2.935 4.869 5.094 5.094 0 0 1 -2.925 4.843z" fill="url(#a)"/><path d="m20.978 16.171c-2.92-1.008-6.5 1.4-6.5 6.229 0 7.882 5.832 8.6 6.539 8.6a9.994 9.994 0 0 0 0-19.988c1.216-.168 6.558 1.319 6.558 8.63.004 4.763-3.985 7.358-6.575 6.258a5.078 5.078 0 0 1 -2.936-4.869 5.124 5.124 0 0 1 2.914-4.86z" fill="url(#b)"/></svg>