<svg viewBox="0 0 32 32" xmlns="http://www.w3.org/2000/svg"><path d="m27.4 5.5h-9.2l-2.1 4.2h-11.8v16.8h25.2v-21zm0 18.7h-20.8v-12.4h20.8zm0-14.5h-8.2l1-2.1h7.1v2.1z" fill="#7cb0d8"/><path d="m25.7 13.7h-25.2l3.8 12.8h25.2z" fill="#7cb0d8"/><path d="m14.167 28.901-1.685-18.901h18.516l-1.686 18.898-7.583 2.102z" fill="#1572b6"/><path d="m21.74 29.393 6.127-1.699 1.442-16.149h-7.569z" fill="#33a9dc"/><path d="m15.25 19.535c1.691 0 1.929-.685 1.929-1.3a7.672 7.672 0 0 0 -.192-1.475 7.677 7.677 0 0 1 -.187-1.46c0-1.616 1.429-2.3 3.453-2.3h.5v.967h-.428c-1.406 0-1.881.562-1.881 1.51a5.654 5.654 0 0 0 .167 1.247 6.137 6.137 0 0 1 .167 1.334c.023 1.124-.644 1.686-1.716 1.9v.034a1.8 1.8 0 0 1 1.716 1.915 5.985 5.985 0 0 1 -.167 1.334 5.8 5.8 0 0 0 -.167 1.266c0 .983.547 1.528 1.881 1.528h.428v.965h-.5c-1.976 0-3.453-.632-3.453-2.406a7.473 7.473 0 0 1 .19-1.44 7.174 7.174 0 0 0 .192-1.423c0-.545-.238-1.3-1.929-1.3z" fill="#ebebeb"/><path d="m28.25 20.43c-1.691 0-1.929.755-1.929 1.3a7.314 7.314 0 0 0 .19 1.423 7.341 7.341 0 0 1 .192 1.44c-.003 1.773-1.503 2.407-3.453 2.407h-.5v-.967h.405c1.334-.017 1.9-.545 1.9-1.527a7.9 7.9 0 0 0 -.167-1.266 5.97 5.97 0 0 1 -.19-1.334 1.834 1.834 0 0 1 1.714-1.915v-.034a1.83 1.83 0 0 1 -1.714-1.9 6.141 6.141 0 0 1 .19-1.334 7.7 7.7 0 0 0 .167-1.247c0-.948-.5-1.493-1.881-1.51h-.424v-.966h.477c2.024 0 3.476.685 3.476 2.3a7.526 7.526 0 0 1 -.192 1.459 7.822 7.822 0 0 0 -.19 1.475c0 .615.238 1.3 1.929 1.3z" fill="#fff"/></svg>