<svg viewBox="0 0 32 32" xmlns="http://www.w3.org/2000/svg"><path d="m27.4 5.5h-9.2l-2.1 4.2h-11.8v16.8h25.2v-21zm0 18.7h-20.8v-12.4h20.8zm0-14.5h-8.2l1-2.1h7.1v2.1z" fill="#d87c7c"/><path d="m25.7 13.7h-25.2l3.8 12.8h25.2z" fill="#d87c7c"/><rect fill="#414141" height="21" rx="2.761" width="21" x="10" y="10"/><path d="m13.937 11.925h13.125a2.013 2.013 0 0 1 2.013 2.013v13.125a2.012 2.012 0 0 1 -2.012 2.012h-13.126a2.013 2.013 0 0 1 -2.013-2.013v-13.124a2.013 2.013 0 0 1 2.013-2.013z" fill="#c2c2c2"/><path d="m13.937 13.325h13.126a.612.612 0 0 1 .612.612v13.126a.613.613 0 0 1 -.613.613h-13.124a.613.613 0 0 1 -.613-.613v-13.126a.612.612 0 0 1 .612-.612z" fill="#414141"/><path d="m25.754 21.2h-1.1a4.183 4.183 0 0 1 -.741 1.769l.78.78a.7.7 0 1 1 -.99.99l-.786-.786a4.184 4.184 0 0 1 -1.761.712v1.129a.7.7 0 0 1 -1.4 0v-1.141a4.2 4.2 0 0 1 -1.728-.735l-.82.82a.7.7 0 1 1 -.99-.99l.826-.826a4.2 4.2 0 0 1 -.707-1.723h-1.171a.7.7 0 1 1 0-1.4h1.174a4.2 4.2 0 0 1 .707-1.722l-.826-.826a.7.7 0 1 1 .99-.99l.819.82a4.2 4.2 0 0 1 1.729-.735v-1.14a.7.7 0 0 1 1.4 0v1.129a4.188 4.188 0 0 1 1.762.713l.786-.787a.7.7 0 0 1 .99.99l-.781.781a4.19 4.19 0 0 1 .741 1.768h1.1a.7.7 0 0 1 0 1.4z" fill="#c2c2c2"/><circle cx="20.5" cy="20.5" fill="#414141" r="2.822"/><circle cx="20.5" cy="20.5" fill="#c2c2c2" r="1.121"/></svg>