<svg xmlns="http://www.w3.org/2000/svg" xmlns:xlink="http://www.w3.org/1999/xlink" viewBox="0 0 32 32"><defs><linearGradient id="linear-gradient" x1="20.7" y1="23.26" x2="17.51" y2="34.06" gradientUnits="userSpaceOnUse"><stop offset="0" stop-color="#f1f1f2"/><stop offset="0.39" stop-color="#eaebec"/><stop offset="1" stop-color="#e6e7e8"/></linearGradient><linearGradient id="linear-gradient-2" x1="29.22" y1="11.69" x2="30.36" y2="36.59" gradientUnits="userSpaceOnUse"><stop offset="0" stop-color="#e6e7e8"/><stop offset="0.48" stop-color="#dbdcde"/><stop offset="1" stop-color="#d7d8da"/></linearGradient><linearGradient id="linear-gradient-3" x1="26.18" y1="9.57" x2="16.33" y2="19.48" gradientUnits="userSpaceOnUse"><stop offset="0" stop-color="#fff57e"/><stop offset="1" stop-color="#fdbf0f"/></linearGradient><linearGradient id="linear-gradient-4" x1="28.84" y1="10.32" x2="30.97" y2="21.5" gradientUnits="userSpaceOnUse"><stop offset="0" stop-color="#fbe574"/><stop offset="1" stop-color="#efab14"/></linearGradient></defs><title>folder_type_dist@2x</title><g id="folder_dist"><path d="M27.5,5.5H18.2L16.1,9.7H4.4V26.5H29.6V5.5Zm0,4.2H19.3l1.1-2.1h7.1Z" style="fill:#bc9f55"/><polygon points="14.38 11.06 28.33 10 28.33 31 14.38 28.73 14.38 11.06" style="fill:url(#linear-gradient)"/><polygon points="28.33 10 30.98 11.44 31.02 28.23 28.33 31 28.33 10" style="fill:url(#linear-gradient-2)"/><path d="M28.33,17.78c-2.6-.52-4.34,3.29-6.39,4.87-3.64,2.78-5.81-2.28-7.56-6.31v-1.7c0-1,0-2.55,0-3.58,4.65-.51,9.3-.55,13.95-1.06v7.78Z" style="fill:url(#linear-gradient-3)"/><path d="M31,22.91l0-11.47L28.33,10v7.78C30.08,17.91,29.27,22.73,31,22.91Z" style="fill:url(#linear-gradient-4)"/><path d="M27.19,22.33l.06.11a2.8,2.8,0,0,0,.23-.27l-.07-.1A2.68,2.68,0,0,1,27.19,22.33Zm.41-.56.08.08a2.14,2.14,0,0,0,.15-.37l-.09-.05A2,2,0,0,1,27.6,21.77Zm.29-1.13-.1,0a1.53,1.53,0,0,1,0,.26s0,.08,0,.12h.1s0-.09,0-.14A1.71,1.71,0,0,0,27.89,20.64Zm-.12-.39a1.36,1.36,0,0,0-.21-.32l-.06.1a1.23,1.23,0,0,1,.19.29Zm-.47-.54a1,1,0,0,0-.3-.13l0,.13a1,1,0,0,1,.27.12Zm-.91-.09,0,.13h0a1.05,1.05,0,0,1,.28-.06v-.14A1.12,1.12,0,0,0,26.39,19.61Zm-.52.32,0,0,.06.11,0,0,.22-.17,0-.12A1.81,1.81,0,0,0,25.87,19.94Zm-.51.52.06.11.23-.25-.06-.11ZM24.9,21l.07.1.22-.27-.06-.1Zm-.45.54.07.1.22-.27-.07-.1Zm-.45.53.06.1.23-.26-.06-.1Zm-.46.51.06.11.24-.25-.06-.11Zm-.48.47.06.11.25-.23-.06-.11Zm-.5.42,0,.12.26-.21-.05-.12Zm-.53.37,0,.12h0l.27-.18,0-.12Zm-.55.3,0,.13.28-.14,0-.13Zm-.57.22,0,.13.29-.1,0-.13Zm-.58.14v.13l.3-.06,0-.13Zm-.52.06h-.07v.14h.07l.23,0v-.14Zm-.67.07.3.05v-.14l-.29,0Zm-.58-.21.29.12,0-.13-.28-.12ZM18,24.09l.27.18,0-.12L18,24Zm-.52-.42.25.22.05-.12-.25-.22ZM17,23.17l.24.25.06-.11-.23-.25Zm-.45-.54.22.28.07-.1-.22-.27ZM16.13,22h0l.21.3.07-.09L16.2,22Zm-.39-.62.19.31.08-.09-.19-.31Zm-.37-.65.18.33.08-.08-.18-.32ZM15,20.11h0l.17.34.08-.08L15.1,20Zm-.32-.69.16.35.08-.07-.16-.34Zm-.21-.78-.09.06.15.36.09-.07-.11-.26Z" style="fill:#fdbf0f"/><path d="M26.84,18.16l.07.42v0h0l.35.25,0-.09-1,.16,0,.08.58-.83Zm-.53.87,1-.16.12,0-.1-.07L27,18.53l0,0-.07-.42,0-.12-.07.1-.58.83-.07.1Z" style="fill:#fdbf0f"/></g></svg>