<svg viewBox="0 0 32 32" xmlns="http://www.w3.org/2000/svg"><path d="m27.9 6h-9.8l-2 4h-11.1v17h25v-21zm.1 4h-7.8l1-2h6.8z" fill="#bf55bf"/><path d="m22.229 17.061h.732l2.086-2.086.1-.886a9.377 9.377 0 0 0 -15.247 4.575 1.135 1.135 0 0 1 .732-.043l4.172-.689s.213-.351.322-.329a5.206 5.206 0 0 1 7.123-.542z" fill="#ea4335"/><path d="m28.019 18.664a9.394 9.394 0 0 0 -2.833-4.564l-2.928 2.928a5.2 5.2 0 0 1 1.911 4.128v.52a2.606 2.606 0 0 1 0 5.212h-5.212l-.52.527v3.126l.52.519h5.212a6.778 6.778 0 0 0 3.85-12.393z" fill="#4285f4"/><path d="m13.738 31.028h5.212v-4.172h-5.212a2.6 2.6 0 0 1 -1.076-.235l-.732.227-2.1 2.086-.183.732a6.743 6.743 0 0 0 4.091 1.362z" fill="#34a853"/><path d="m13.738 17.493a6.778 6.778 0 0 0 -4.092 12.151l3.023-3.023a2.606 2.606 0 1 1 3.448-3.447l3.023-3.024a6.774 6.774 0 0 0 -5.402-2.657z" fill="#fbbc05"/></svg>