<svg xmlns="http://www.w3.org/2000/svg" viewBox="0 0 32 32"><title>folder_type_log_opened</title><path d="M27.4,5.5H18.2L16.1,9.7H4.3V26.5H29.5V5.5Zm0,18.7H6.6V11.8H27.4Zm0-14.5H19.2l1-2.1h7.1V9.7Z" style="fill:#7add7a"/><polygon points="25.7 13.7 0.5 13.7 4.3 26.5 29.5 26.5 25.7 13.7" style="fill:#7add7a"/><rect x="9.95" y="12.933" width="21" height="18.033" style="fill:#00bd02"/><rect x="10.731" y="13.714" width="19.439" height="16.472" style="fill:#fff"/><rect x="9.95" y="13.714" width="21" height="1.483" style="fill:#00bd02"/><rect x="16.846" y="16.837" width="6.376" height="0.781" style="fill:#00bd02"/><rect x="16.846" y="18.853" width="9.758" height="0.781" style="fill:#00bd02"/><rect x="16.846" y="20.935" width="8.288" height="0.781" style="fill:#00bd02"/><rect x="16.846" y="23.147" width="11.06" height="0.781" style="fill:#00bd02"/><rect x="16.846" y="25.424" width="7.677" height="0.781" style="fill:#00bd02"/><rect x="16.976" y="27.44" width="9.498" height="0.781" style="fill:#00bd02"/><rect x="12.292" y="16.837" width="3.383" height="0.781" style="fill:#00bd02"/><rect x="12.292" y="18.853" width="3.383" height="0.781" style="fill:#00bd02"/><rect x="12.292" y="18.853" width="3.383" height="0.781" style="fill:#00bd02"/><rect x="12.292" y="20.87" width="3.383" height="0.781" style="fill:#00bd02"/><rect x="12.292" y="22.887" width="3.383" height="0.781" style="fill:#00bd02"/><rect x="12.292" y="25.424" width="3.383" height="0.781" style="fill:#00bd02"/><rect x="12.292" y="27.44" width="3.383" height="0.781" style="fill:#00bd02"/></svg>