<svg id="svg6" xmlns="http://www.w3.org/2000/svg" viewBox="0 0 32 32"><path id="path4" d="M27.5,5.5H18.2L16.1,9.7H4.4V26.5H29.6V5.5Zm0,4.2H19.3l1.1-2.1h7.1Z" style="fill:#539dc0"/><path id="path4-9" d="M30.42,26.27a5.21,5.21,0,0,0-2,.91,11.74,11.74,0,0,1-2.91,1.32.82.82,0,0,1-.49.28,31.56,31.56,0,0,1-3.22.29c-.58,0-.94-.15-1-.39a.78.78,0,0,1,.41-1h0a1.57,1.57,0,0,1-.26-.19c-.08-.08-.17-.25-.2-.19-.11.27-.17.95-.47,1.25a1.51,1.51,0,0,1-1.66,0c-.51-.28,0-.91,0-.91a.36.36,0,0,1-.49-.16h0A2.48,2.48,0,0,1,17.84,26a2.68,2.68,0,0,1,.88-1.44,4.59,4.59,0,0,1,.33-2.2,5.17,5.17,0,0,1,1.57-1.84s-1-1.07-.6-2c.23-.63.33-.63.4-.66a1.81,1.81,0,0,0,.73-.43,2.64,2.64,0,0,1,2.2-.85s.58-1.77,1.12-1.43a9.56,9.56,0,0,1,.77,1.45s.63-.38.71-.24a5.83,5.83,0,0,1,.26,3.07,7,7,0,0,1-1.3,2.7A5.77,5.77,0,0,1,26.22,24a5.73,5.73,0,0,1,.13,2.6.08.08,0,0,1,0,0,3.22,3.22,0,0,0,1.7-.65,4.21,4.21,0,0,1,2.13-.8.54.54,0,0,1,.23,1.05Z" style="fill:#2188b6"/></svg>