<svg xmlns="http://www.w3.org/2000/svg" viewBox="0 0 32 32"><title>folder_type_tauri</title><path d="M27.5,5.5H18.2L16.1,9.7H4.4V26.5H29.6V5.5Zm0,4.2H19.3l1.1-2.1h7.1Z" style="fill:#303846"/><path d="M25.35,17.64a2,2,0,1,1-2-2A2,2,0,0,1,25.35,17.64Z" style="fill:#ffc131"/><circle cx="20" cy="23.36" r="2" style="fill:#24c8db"/><path d="M27.5,24.05a7.81,7.81,0,0,1-2.64,1.07,5.24,5.24,0,0,0,.27-2.42,5.36,5.36,0,1,0-3.146-10.248q-.2.061-.394.138A5.28,5.28,0,0,0,19,14.52a8.82,8.82,0,0,0-2.93.85,7.632,7.632,0,1,1,14.58,4.52A7.72,7.72,0,0,1,27.5,24.05ZM16.17,16.76,18,17a6.27,6.27,0,0,1,.24-1.06A7.67,7.67,0,0,0,16.17,16.76Z" style="fill:#ffc131"/><path d="M15.85,17a7.6,7.6,0,0,1,2.65-1.08,5.3,5.3,0,0,0-.3,2.43,5.35,5.35,0,1,0,6.15,8.17,8.83,8.83,0,0,0,2.92-.85A7.63,7.63,0,1,1,15.85,17Zm11.32,7.29Z" style="fill:#24c8db"/></svg>