<svg xmlns="http://www.w3.org/2000/svg" viewBox="0 0 32 32"><title>folder_type_gulp_opened</title><path d="M27.9,6H18.2l-2,4H5V27H30V6ZM28,24H7V12H28Zm.1-14H20.3l1-2H28Z" style="fill:#9e5a5a"/><polygon points="25.9 14 0.3 14 4.1 27 29.7 27 25.9 14" style="fill:#9e5a5a"/><path d="M26.156,26.57a11.479,11.479,0,0,1-2.638-.3,5.071,5.071,0,0,1-.755-.233l.61,1.042.238,3.255c0,.365,1.16.661,2.59.661s2.589-.3,2.589-.661l.189-3.291.577-1.009a4.962,4.962,0,0,1-.761.236A11.488,11.488,0,0,1,26.156,26.57Zm3.42-10.593a25.746,25.746,0,0,1-3.376.2,25.746,25.746,0,0,1-3.376-.2,6.508,6.508,0,0,1-1.05-.219,1.54,1.54,0,0,1-.259-.108l.559,5.148c.026-.089.055-.177.087-.266a5.044,5.044,0,0,1,.225-.53,4.749,4.749,0,0,1,.282-.49,3.938,3.938,0,0,1,.324-.425,2.527,2.527,0,0,1,.353-.333,1.692,1.692,0,0,1,.365-.219.94.94,0,0,1,.366-.075.8.8,0,0,1,.4.114,1.159,1.159,0,0,1,.365.369.306.306,0,0,1,.049.116.578.578,0,0,1,.011.11.291.291,0,0,1-.059.193.171.171,0,0,1-.138.07.176.176,0,0,1-.137-.075,1.379,1.379,0,0,1-.141-.221.541.541,0,0,0-.161-.188.345.345,0,0,0-.192-.059.589.589,0,0,0-.342.133,1.967,1.967,0,0,0-.361.351,3.813,3.813,0,0,0-.343.5,5.243,5.243,0,0,0-.29.575,4.065,4.065,0,0,0-.2.581,2.072,2.072,0,0,0-.075.513,1.146,1.146,0,0,0,.011.156.517.517,0,0,0,.039.146.277.277,0,0,0,.075.107.182.182,0,0,0,.124.042.412.412,0,0,0,.193-.057,1.421,1.421,0,0,0,.225-.15,2.873,2.873,0,0,0,.233-.209c.078-.078.15-.156.217-.236s.127-.157.179-.23a1.375,1.375,0,0,0,.117-.191l.213-.638a.3.3,0,0,1,.1-.15.222.222,0,0,1,.129-.043.2.2,0,0,1,.064.01.16.16,0,0,1,.1.094.247.247,0,0,1,.015.086,1.246,1.246,0,0,1-.024.244,1.955,1.955,0,0,1-.058.225c-.024.073-.05.145-.079.218s-.057.15-.085.23a.623.623,0,0,0-.033.085c-.016.05-.035.111-.058.181s-.048.152-.075.243L24,21.979c-.028.093-.055.184-.081.274l-.069.243-.052.181c-.014.049-.023.075-.026.087a.526.526,0,0,1-.036.1.64.64,0,0,1-.06.1.356.356,0,0,1-.075.075.13.13,0,0,1-.084.031.12.12,0,0,1-.107-.048.349.349,0,0,1-.033-.18V22.8a.267.267,0,0,1,0-.04.912.912,0,0,1,.044-.163q.032-.12.075-.27t.1-.312c.034-.108.065-.2.093-.289q-.121.137-.264.27a2.706,2.706,0,0,1-.291.242,1.723,1.723,0,0,1-.3.174.713.713,0,0,1-.291.068.524.524,0,0,1-.276-.071c-.014-.008-.027-.018-.04-.027l.312,3.264a6.987,6.987,0,0,0,3.619.7,6.964,6.964,0,0,0,3.619-.7l.45-3.881-.107.1a4.614,4.614,0,0,1-.363.308,1.649,1.649,0,0,1-.333.2.85.85,0,0,1-.348.071.421.421,0,0,1-.269-.075.253.253,0,0,1-.1-.209v-.043a.49.49,0,0,1,.072-.188,2.02,2.02,0,0,1,.15-.219c.058-.077.119-.154.185-.232s.126-.151.182-.221a2.164,2.164,0,0,0,.139-.191.289.289,0,0,0,.055-.141.065.065,0,0,0-.023-.052.126.126,0,0,0-.075-.019.435.435,0,0,0-.19.048.914.914,0,0,0-.192.127,1.786,1.786,0,0,0-.186.183,2.708,2.708,0,0,0-.169.215,2.505,2.505,0,0,0-.144.225c-.044.076-.081.145-.111.208l-.039.084c-.017.036-.035.076-.055.122s-.04.092-.063.139-.042.1-.061.136l-.049.114c-.015.034-.025.057-.031.069s-.018.043-.037.092-.038.1-.061.159l-.075.192-.071.189-.059.158c-.016.045-.028.075-.032.092a1.028,1.028,0,0,1-.054.133.475.475,0,0,1-.072.11.3.3,0,0,1-.091.075.232.232,0,0,1-.116.029.227.227,0,0,1-.136-.039.176.176,0,0,1-.054-.15.511.511,0,0,1,.013-.111,1.134,1.134,0,0,1,.035-.113c.013-.037.028-.075.043-.109s.027-.069.039-.1q.124-.271.252-.543t.247-.54c.016-.038.031-.075.047-.111l-.014.015a3.172,3.172,0,0,1-.3.253,1.577,1.577,0,0,1-.293.175.689.689,0,0,1-.283.065.35.35,0,0,1-.156-.03.258.258,0,0,1-.1-.081.319.319,0,0,1-.054-.122.471.471,0,0,0-.008-.05c-.027.021-.054.042-.081.061a1.625,1.625,0,0,1-.28.161.608.608,0,0,1-.248.061.232.232,0,0,1-.178-.075.36.36,0,0,1-.068-.25,1.42,1.42,0,0,1,.036-.29,1.381,1.381,0,0,1-.15.215,1.318,1.318,0,0,1-.2.2,1.009,1.009,0,0,1-.256.144.841.841,0,0,1-.309.056.557.557,0,0,1-.146-.019.3.3,0,0,1-.122-.065.344.344,0,0,1-.085-.124.514.514,0,0,1-.032-.194.565.565,0,0,1,.009-.083,1.705,1.705,0,0,1,.059-.252q.05-.173.15-.45a6.774,6.774,0,0,1,.291-.664.352.352,0,0,1,.111-.15.222.222,0,0,1,.136-.045.252.252,0,0,1,.067.009.235.235,0,0,1,.064.03.159.159,0,0,1,.048.052.133.133,0,0,1,.018.075.181.181,0,0,1-.006.052.671.671,0,0,1-.05.121c-.025.05-.054.107-.088.171s-.07.133-.107.207-.072.151-.1.231a2.242,2.242,0,0,0-.083.243,1.083,1.083,0,0,0-.039.24.175.175,0,0,0,.024.089.08.08,0,0,0,.075.041.488.488,0,0,0,.284-.1,1.279,1.279,0,0,0,.25-.243,2.411,2.411,0,0,0,.207-.312c.062-.111.113-.213.154-.3a1.487,1.487,0,0,0,.075-.2,2.069,2.069,0,0,1,.075-.195.6.6,0,0,1,.09-.15.165.165,0,0,1,.256,0,.232.232,0,0,1,.048.15.415.415,0,0,1-.031.134q-.03.085-.075.2c-.029.073-.063.151-.1.235s-.07.168-.1.253-.054.167-.075.252a1,1,0,0,0-.031.23.089.089,0,0,0,.077.1.1.1,0,0,0,.024,0,.445.445,0,0,0,.176-.049,1.262,1.262,0,0,0,.222-.137c.019-.015.039-.03.057-.046a2.056,2.056,0,0,1,.075-.246c.054-.141.108-.281.163-.42l.15-.383.694-1.75a.3.3,0,0,1,.111-.15.254.254,0,0,1,.141-.043.2.2,0,0,1,.129.045.182.182,0,0,1,.059.15.33.33,0,0,1-.02.1,1.2,1.2,0,0,1-.049.117c-.038.085-.084.189-.137.312s-.109.257-.169.4-.123.3-.186.451l-.185.456c-.06.15-.117.291-.17.422l-.136.346a1.459,1.459,0,0,0-.05.145.547.547,0,0,0-.024.15.138.138,0,0,0,.014.066.054.054,0,0,0,.052.024.3.3,0,0,0,.12-.033,1.091,1.091,0,0,0,.156-.09c.056-.037.114-.079.174-.127s.121-.1.181-.15.116-.1.171-.155l.145-.142a.121.121,0,0,1,.035-.024c.026-.075.05-.15.07-.225.012-.032.029-.078.05-.138s.047-.119.075-.177a.832.832,0,0,1,.093-.15.146.146,0,0,1,.112-.057.175.175,0,0,1,.133.042.168.168,0,0,1,.041.123.438.438,0,0,1,0,.052.431.431,0,0,1-.012.075q-.006.039-.015.075a.238.238,0,0,1-.015.052q.086-.093.183-.183a1.979,1.979,0,0,1,.2-.164,1.142,1.142,0,0,1,.216-.12.569.569,0,0,1,.22-.045.549.549,0,0,1,.15.021.437.437,0,0,1,.132.064.336.336,0,0,1,.1.106.29.29,0,0,1,.036.15.581.581,0,0,1-.056.238,1.737,1.737,0,0,1-.141.253,2.877,2.877,0,0,1-.183.248c-.065.081-.127.154-.184.22l-.145.168a.263.263,0,0,0-.061.094.074.074,0,0,0,.021.053.1.1,0,0,0,.069.021A.284.284,0,0,0,29.389,22a1.833,1.833,0,0,0,.211-.15c.091-.071.207-.167.346-.287l.335-.293.606-5.611a1.54,1.54,0,0,1-.259.108A6.39,6.39,0,0,1,29.576,15.977ZM26.2,14.647c-2.619,0-4.742.292-4.742.654s2.117.652,4.742.652,4.742-.292,4.742-.654S28.816,14.647,26.2,14.647Zm1.893.845c0,.085-.252.15-.563.15s-.563-.069-.563-.15.252-.15.563-.15.561.064.561.148Z" style="fill:#da4648"/><path d="M27.078,15.422l0,.014c0,.054.2.1.45.1s.45-.045.45-.1l.593-2.4,2.357-2.488h0c.049-.056-.051-.231-.219-.381s-.35-.2-.406-.143h0l-2.506,2.643Z" style="fill:#da4648"/></svg>