<svg xmlns="http://www.w3.org/2000/svg" viewBox="0 0 32 32"><title>folder_type_vagrant_opened</title><path d="M27.4,5.5H18.2L16.1,9.7H4.3V26.5H29.5V5.5Zm0,18.7H6.6V11.8H27.4Zm0-14.5H19.2l1-2.1h7.1V9.7Z" style="fill:#8babbd"/><polygon points="25.7 13.7 0.5 13.7 4.3 26.5 29.5 26.5 25.7 13.7" style="fill:#8babbd"/><path d="M30.983,11.506c-.15-.123-1.328-.755-1.328-.755l-1.257.731h0l1.258-.731L28.4,10v1.48l-1.311-.734s-1.073.627-1.594.928c-.656.378-2.264,1.336-2.264,1.336v1.414L21.9,17.876V19.75l-.93.543-.37.968L18,14.5V13.014L12.8,10l-2.6,1.5h0v1.53l1.619,3.9.984.579v1.778l3.9,9.471,3.9,2.23V31L24.5,28.748,31,13l-.014-1.493" style="fill:#3185b8"/><path d="M20.6,30.989l-3.9-2.232-3.9-9.471V17.508l-.984-.579L10.2,13.03V11.5l1.281.747v1.5l1.324.768V13.008l2.586,1.5.125,1.481,3.76,9.76,2.613,1.522v2.985L20.6,29.5v1.5" style="fill:#3185b8"/><path d="M18,14.5l2.6,6.761v3.726l-1.321.752-3.758-9.763L15.394,14.5l2.6-1.49V14.5m-6.513-2.249v1.5l1.324-.745-1.324-.76" style="fill:#61a5ce"/><path d="M12.807,14.521V13.008l-1.324.745,1.324.768" style="fill:#eae9e6"/><path d="M20.6,24.987l1.3.746,1.451-3.643,1.118.665V19.262l.357-.843.951.557V17.5l-1.3-.753,1.3-.756L24.5,15.253v-1.5l-1.273-.742v1.414L21.9,17.876V19.75l-.93.543-.37.968v3.726" style="fill:#3185b8"/><path d="M20.58,26.512l1.311.756-.007,2.986,2.609-1.5L31,13l-.014-1.493-3.9,2.247v3l-1.307.749v1.476l-.952-.557-.356.843V22.75L22.66,23.815l-.76,1.917-1.321.779" style="fill:#61a5ce"/><path d="M15.385,16l1.308-.76v1.5L15.385,16" style="fill:#eae9e6"/><path d="M16.693,16.746l1.3.733V16l-1.3-.76v1.5" style="fill:#3185b8"/><path d="M14.1,19.73v1.514l1.31-.754-1.31-.76" style="fill:#61a5ce"/><path d="M16.714,21.251l-1.314.765-1.3-.772,1.31-.754,1.307.761" style="fill:#eae9e6"/><path d="M16.7,25.749v1.527l1.316-.761L16.7,25.749" style="fill:#61a5ce"/><path d="M19.281,28.741l1.326.771V27.961l-1.331.78" style="fill:#eae9e6"/><path d="M20.6,31V29.511l1.278.742L20.6,31" style="fill:#61a5ce"/><path d="M20.6,24.987l-1.321.752,1.3.774,1.321-.779-1.3-.746" style="fill:#eae9e6"/><path d="M27.085,16.751v-3l-1.291-.735V14.51l-1.29.741,2.581,1.5" style="fill:#3185b8"/><path d="M24.483,16.747l1.3-.756,1.3.759-1.307.749-1.3-.753" style="fill:#eae9e6"/><path d="M24.5,15.253l1.29-.741V13.018l-1.294.735v1.5" style="fill:#61a5ce"/><path d="M28.4,11.481V10l1.257.749L28.4,11.48" style="fill:#3185b8"/><path d="M30.983,11.506l-3.9,2.247-1.291-.735-1.294.735-1.273-.742s1.608-.957,2.264-1.336c.521-.3,1.594-.928,1.594-.928l1.312.735,1.257-.731s1.178.632,1.328.755h0M18,13.014,15.4,14.5l-5.189-3L12.8,10,18,13.014" style="fill:#eae9e6"/><path d="M29.675,13.719V12.26l-1.268.732,1.268.727M25.831,20.5l1.262-.724v1.452L25.831,20.5" style="fill:#3185b8"/><path d="M23.193,26.5V28l1.315-.76-1.315-.74" style="fill:#eae9e6"/><path d="M24.516,27.246,24.5,25.753l-1.307.748,1.323.744" style="fill:#3185b8"/></svg>