<svg viewBox="0 0 32 32" xmlns="http://www.w3.org/2000/svg"><path d="m27.5 5.5h-9.3l-2.1 4.2h-11.7v16.8h25.2v-21zm0 4.2h-8.2l1.1-2.1h7.1z" fill="#53c153"/><path d="m9.95 12.933h21v18.033h-21z" fill="#00bd02"/><path d="m10.731 13.714h19.439v16.472h-19.439z" fill="#fff"/><g fill="#00bd02"><path d="m9.95 13.714h21v1.483h-21z"/><path d="m16.846 16.837h6.376v.781h-6.376z"/><path d="m16.846 18.853h9.758v.781h-9.758z"/><path d="m16.846 20.935h8.288v.781h-8.288z"/><path d="m16.846 23.147h11.06v.781h-11.06z"/><path d="m16.846 25.424h7.677v.781h-7.677z"/><path d="m16.976 27.44h9.498v.781h-9.498z"/><path d="m12.292 16.837h3.383v.781h-3.383z"/><path d="m12.292 18.853h3.383v.781h-3.383z"/><path d="m12.292 18.853h3.383v.781h-3.383z"/><path d="m12.292 20.87h3.383v.781h-3.383z"/><path d="m12.292 22.887h3.383v.781h-3.383z"/><path d="m12.292 25.424h3.383v.781h-3.383z"/><path d="m12.292 27.44h3.383v.781h-3.383z"/></g></svg>