<svg xmlns="http://www.w3.org/2000/svg" viewBox="0 0 32 32"><title>folder_type_view@2x</title><g id="folder_view"><path d="M27.5,5.5H18.2L16.1,9.7H4.4V26.5H29.6V5.5Zm0,4.2H19.3l1.1-2.1h7.1Z" style="fill:#bf6d55"/><polygon points="14.17 28.9 12.48 10 31 10 29.31 28.9 21.73 31 14.17 28.9" style="fill:#e44f26"/><polygon points="21.74 29.39 27.87 27.69 29.31 11.54 21.74 11.54 21.74 29.39" style="fill:#f1662a"/><polygon points="20.99 24.01 14.99 20.4 14.99 19.1 20.99 15.49 20.99 17.51 17.16 19.75 20.99 21.99 20.99 24.01" style="fill:#fff"/><polygon points="22.49 24.01 22.49 21.99 26.34 19.75 22.49 17.51 22.49 15.49 28.49 19.08 28.49 20.42 22.49 24.01" style="fill:#fff"/></g></svg>