<svg xmlns="http://www.w3.org/2000/svg" viewBox="0 0 32 32"><title>folder_type_private_opened</title><path d="M27.4,5.5H18.2L16.1,9.7H4.3V26.5H29.5V5.5Zm0,18.7H6.6V11.8H27.4Zm0-14.5H19.2l1-2.1h7.1V9.7Z" style="fill:#a76571"/><polygon points="25.7 13.7 0.5 13.7 4.3 26.5 29.5 26.5 25.7 13.7" style="fill:#a76571"/><path d="M20.4,10A10.5,10.5,0,1,0,30.9,20.5,10.5,10.5,0,0,0,20.4,10Zm0,18.375a7.862,7.862,0,0,1-6.41-12.432L24.958,26.911A7.826,7.826,0,0,1,20.4,28.375Zm6.411-3.318L15.843,14.09A7.862,7.862,0,0,1,26.811,25.057Z" style="fill:#d80027"/></svg>