<svg xmlns="http://www.w3.org/2000/svg" viewBox="0 0 32 32"><title>folder_type_model_opened</title><path d="M27.4,5.5H18.2L16.1,9.7H4.3V26.5H29.5V5.5Zm0,18.7H6.6V11.8H27.4Zm0-14.5H19.2l1-2.1h7.1V9.7Z" style="fill:#7baddb"/><polygon points="25.7 13.7 0.5 13.7 4.3 26.5 29.5 26.5 25.7 13.7" style="fill:#7baddb"/><polyline points="20.62 10 20.62 15.999 15.432 12.999" style="fill:#b2cde5"/><polyline points="25.807 12.999 20.62 15.999 20.62 10" style="fill:#b2cde5"/><polyline points="25.807 12.999 25.807 19 20.62 15.999" style="fill:#4c89c3"/><polyline points="15.432 12.999 15.432 19 20.62 15.999" style="fill:#0057a9"/><polyline points="20.62 15.999 20.62 22 15.432 19" style="fill:#0057a9"/><polyline points="20.622 15.999 20.62 22 25.807 19.002" style="fill:#4c89c3"/><polyline points="25.807 19 25.807 25 20.62 22" style="fill:#b2cde5"/><polyline points="15.432 19 15.432 25 20.62 22" style="fill:#b2cde5"/><polyline points="20.62 22 20.62 28 15.432 25" style="fill:#4c89c3"/><polyline points="20.622 22 20.62 28 25.807 25.002" style="fill:#0057a9"/><polyline points="15.432 19 15.432 25 10.245 22" style="fill:#b2cde5"/><polyline points="10.245 22 10.245 28 15.432 25" style="fill:#0057a9"/><polyline points="15.432 25 15.432 31 10.245 28" style="fill:#0057a9"/><polyline points="15.434 25 15.432 31 20.62 28.002" style="fill:#4c89c3"/><polyline points="30.995 22.002 25.807 25 25.81 19" style="fill:#b2cde5"/><polyline points="30.995 22 30.995 28 25.807 25" style="fill:#4c89c3"/><polyline points="25.807 25 25.807 31 20.62 28" style="fill:#0057a9"/><polyline points="25.81 25 25.807 31 30.995 28.002" style="fill:#4c89c3"/></svg>