<svg xmlns="http://www.w3.org/2000/svg" fill="none" viewBox="0 0 32 32"><path fill="#4F51E5" d="M29.5 5.5H18.2l-2.1 4.2H4.3v4H.5l3.8 12.8h25.2v-21Zm-9.3 2.1h7.1v2.1h-8.1l1-2.1Zm5.5 6.1H6.6v-1.9h20.8v7.63l-1.7-5.73Z"/><path fill="#4F51E5" d="M16 18.194c0-1.118 0-1.677.218-2.104.192-.376.498-.681.874-.872C17.52 15 18.08 15 19.2 15h3.6c1.12 0 1.68 0 2.108.218.376.191.682.496.874.872.218.427.218.986.218 2.104v3.594c0 1.118 0 1.677-.218 2.104a1.999 1.999 0 0 1-.874.873c-.428.218-.988.218-2.108.218h-3.6c-1.12 0-1.68 0-2.108-.218a1.999 1.999 0 0 1-.874-.873C16 23.465 16 22.906 16 21.788v-3.594Z"/><path fill="#fff" d="M21.2 20.33a.14.14 0 0 1 .139-.14H23a1.798 1.798 0 1 1 0 3.594c-.994 0-1.8-.804-1.8-1.796v-1.659Zm0-.677c0 .077.062.139.139.139H23a1.798 1.798 0 1 0 0-3.594c-.994 0-1.8.804-1.8 1.797v1.658Zm-.4.677a.138.138 0 0 0-.139-.14H19a1.798 1.798 0 1 0 0 3.594c.994 0 1.8-.804 1.8-1.796v-1.659Zm0-.677a.138.138 0 0 1-.139.139H19a1.798 1.798 0 1 1 0-3.594c.994 0 1.8.804 1.8 1.797v1.658Z"/></svg>