<svg xmlns="http://www.w3.org/2000/svg" viewBox="0 0 32 32"><title>folder_type_public_opened</title><path d="M27.4,5.5H18.2L16.1,9.7H4.3V26.5H29.5V5.5Zm0,18.7H6.6V11.8H27.4Zm0-14.5H19.2l1-2.1h7.1V9.7Z" style="fill:#33b563"/><polygon points="25.7 13.7 0.5 13.7 4.3 26.5 29.5 26.5 25.7 13.7" style="fill:#33b563"/><path d="M22.573,16.294a3.816,3.816,0,0,1,1.776,2.835,3.079,3.079,0,1,0-1.776-2.835ZM20.555,22.6a3.08,3.08,0,1,0-3.08-3.08h0A3.08,3.08,0,0,0,20.555,22.6Zm1.306.21H19.248A3.948,3.948,0,0,0,15.3,26.753v3.2l.008.05.22.069a17.95,17.95,0,0,0,5.362.865,11.007,11.007,0,0,0,4.682-.879l.206-.1H25.8v-3.2A3.947,3.947,0,0,0,21.861,22.81Zm5.1-3.179h-2.6a3.8,3.8,0,0,1-1.171,2.644,4.686,4.686,0,0,1,3.347,4.484v.985a10.612,10.612,0,0,0,4.133-.868l.206-.1H30.9v-3.2a3.948,3.948,0,0,0-3.943-3.946Zm-11.806-.21a3.059,3.059,0,0,0,1.638-.475,3.812,3.812,0,0,1,1.433-2.431c0-.058.009-.115.009-.173a3.08,3.08,0,1,0-3.081,3.079h0Zm2.766,2.853a3.8,3.8,0,0,1-1.171-2.629c-.1-.007-.191-.015-.289-.015H13.843A3.948,3.948,0,0,0,9.9,23.573v3.2l.008.049.22.069a18.489,18.489,0,0,0,4.441.835v-.965a4.687,4.687,0,0,1,3.348-4.487Z" style="fill:#aaffa2"/></svg>