<svg xmlns="http://www.w3.org/2000/svg" viewBox="0 0 32 32"><title>folder_type_kiro_opened</title><path fill="#9e77d9" d="M27.67 3.2h-9.2l-2.1 4.2H4.57v16.8h25.2v-21zm0 18.7H6.87V9.5h20.8zm0-14.5h-8.2l1-2.1h7.1v2.1h-8.1z"/><path fill="#9e77d9" d="m29.77 24.2-3.8-12.8H.77l3.8 12.8z"/><g transform="translate(13.23 10.8)scale(.64286)"><rect width="28" height="28" fill="#9046ff" rx="6.07"/><path fill="#fff" d="M9 19.1c-1.92 4.25 2.17 5.32 5.18 2.83.89 2.8 4.2.71 5.4-1.45a15 15 0 0 0 1.3-10.63C19 3.02 9.68 3.01 8.08 9.9c-.39 1.2-.4 2.57-.6 4-.1.71-.19 1.17-.46 1.92-.16.44-.38.82-.72 1.47-.54 1-.31 2.95 2.45 1.94z"/><path d="M14.54 12.82c-.76 0-.88-.92-.88-1.46q0-.76.25-1.13a.7.7 0 0 1 .63-.34q.41 0 .66.34.29.4.29 1.13c0 .91-.36 1.46-.94 1.46zm3.15 0c-.76 0-.88-.92-.88-1.46q0-.76.26-1.13.22-.34.62-.34c.4 0 .5.12.66.34q.29.4.29 1.13c0 .91-.36 1.46-.94 1.46z"/></g></svg>