<svg xmlns="http://www.w3.org/2000/svg" viewBox="0 0 32 32"><title>folder_type_theme</title><path d="M27.5,5.5H18.2L16.1,9.7H4.4V26.5H29.6V5.5Zm0,4.2H19.3l1.1-2.1h7.1Z" style="fill:#bf8e55"/><path d="M27.3,16.881A7.847,7.847,0,0,1,28.876,18.3a4.666,4.666,0,0,1,.17,6.087,5.188,5.188,0,0,1-3.163,1.765,9.328,9.328,0,0,1-3.381-.073,10.985,10.985,0,0,0-1.608-.176.9.9,0,0,0-1.046.724l0,.015a.94.94,0,0,0,.18.742,10.477,10.477,0,0,0,.848,1.108,2.175,2.175,0,0,1,.529.99.787.787,0,0,1-.491.946,6.371,6.371,0,0,1-3.139.552,14.984,14.984,0,0,1-7.736-2.555,6.838,6.838,0,0,1-2.928-4.416,5.869,5.869,0,0,1,1-4.544,10.187,10.187,0,0,1,4.317-3.6,15.053,15.053,0,0,1,11.67-.6C24.138,15.285,27.229,16.942,27.3,16.881Z" style="fill:#a86749"/><path d="M11.247,22.676a2.465,2.465,0,0,1,1.594.514,1.126,1.126,0,0,1,.321,1.533,1.091,1.091,0,0,1-.321.328,2.767,2.767,0,0,1-3.195,0,1.129,1.129,0,0,1-.33-1.535,1.089,1.089,0,0,1,.337-.342A2.459,2.459,0,0,1,11.247,22.676Z" style="fill:#3783ff"/><path d="M10.965,21.431a1.924,1.924,0,0,1-1.171-.371.9.9,0,0,1-.3-1.214.867.867,0,0,1,.29-.3,2.113,2.113,0,0,1,2.458.025.887.887,0,0,1,.235,1.212.853.853,0,0,1-.226.234A1.948,1.948,0,0,1,10.965,21.431Z" style="fill:#4de94c"/><path d="M14.11,18.49a1.462,1.462,0,0,1-1.072-.385.719.719,0,0,1-.087-1,.732.732,0,0,1,.087-.089,1.656,1.656,0,0,1,2.124,0,.721.721,0,0,1,.087,1,.678.678,0,0,1-.128.123A1.492,1.492,0,0,1,14.11,18.49Z" style="fill:#fe0"/><path d="M15.859,25.412a2.8,2.8,0,0,1,1.793.568,1.235,1.235,0,0,1,.373,1.677,1.214,1.214,0,0,1-.373.382,3.158,3.158,0,0,1-3.6,0,1.238,1.238,0,0,1-.39-1.678,1.214,1.214,0,0,1,.4-.4A2.8,2.8,0,0,1,15.859,25.412Z" style="fill:#4c1ac6"/><path d="M31,13.466a5.779,5.779,0,0,1-1.151,1.909A46.887,46.887,0,0,1,26.1,19.459a.512.512,0,0,1-.537.189.677.677,0,0,1-.251-.153q-.429-.409-.844-.833a.473.473,0,0,1-.076-.653.557.557,0,0,1,.052-.057A.664.664,0,0,1,24.5,17.9,48.322,48.322,0,0,1,28.6,14.2a8.494,8.494,0,0,1,1.42-.946,2.566,2.566,0,0,1,.508-.189.353.353,0,0,1,.463.187l0,.007v.007Z" style="fill:#2a3e4f"/><path d="M20,22.963a.08.08,0,0,1,.03.006,2.259,2.259,0,0,0,2.977-.465,1.533,1.533,0,0,0,.411-1.21,1.17,1.17,0,0,0-1-1.006,1.025,1.025,0,0,0-.923.408,1.546,1.546,0,0,0-.284.657A2.573,2.573,0,0,1,20,22.938Z" style="fill:#7e8c8d"/><path d="M25.16,19.792c-.325-.327-.655-.651-.984-.976a.236.236,0,0,0-.33-.053l-.006,0a.241.241,0,0,0-.063.072q-.417.544-.83,1.092a.219.219,0,0,0,.008.3l.011.01q.369.366.738.728A.224.224,0,0,0,24.02,21l0,0c.375-.277.751-.554,1.12-.839a.8.8,0,0,0,.136-.2A1.2,1.2,0,0,0,25.16,19.792Z" style="fill:#f89b36"/><path d="M17.865,17.121a1.145,1.145,0,0,1-.859-.321.617.617,0,0,1-.048-.856.567.567,0,0,1,.048-.05,1.286,1.286,0,0,1,1.7,0,.617.617,0,0,1,.048.857.583.583,0,0,1-.08.077A1.167,1.167,0,0,1,17.865,17.121Z" style="fill:#ff8c00"/><path d="M20,22.963s3.915-1.136,2.659-2.614c0,0-.857-.393-1.455,1.007A3.921,3.921,0,0,1,20,22.963Z" style="fill:#8f9fa0"/><path d="M23.306,20.585l1.373-1.272-.5-.5a.239.239,0,0,0-.336-.045l-.008.006a.255.255,0,0,0-.055.063c-.2.259-1.152,1.07-.812,1.407Z" style="fill:#e9bb42"/><path d="M24.878,19.073,31,13.254s.041-.393-.468-.2-.8-.177-6.094,4.9a.442.442,0,0,0,.024.71Z" style="fill:#32495d"/><path d="M21.721,17.41a1.149,1.149,0,0,1-.858-.321.617.617,0,0,1-.048-.857.555.555,0,0,1,.048-.049,1.286,1.286,0,0,1,1.7,0,.617.617,0,0,1,.048.855.549.549,0,0,1-.082.078A1.161,1.161,0,0,1,21.721,17.41Z" style="fill:#f60000"/></svg>