<svg xmlns="http://www.w3.org/2000/svg" viewBox="0 0 32 32"><title>folder_type_docker_opened</title><path d="M27.4,5.5H18.2L16.1,9.7H4.3V26.5H29.5V5.5Zm0,18.7H6.6V11.8H27.4Zm0-14.5H19.2l1-2.1h7.1V9.7Z" style="fill:#3f85aa"/><polygon points="25.7 13.7 0.5 13.7 4.3 26.5 29.5 26.5 25.7 13.7" style="fill:#3f85aa"/><path d="M20.805,21.7h2.146v2.19h1.085a4.7,4.7,0,0,0,1.491-.25,3.818,3.818,0,0,0,.724-.327,2.688,2.688,0,0,1-.5-1.387,2.931,2.931,0,0,1,.526-2.065L26.5,19.6l.268.216a3.418,3.418,0,0,1,1.346,2.169,3.282,3.282,0,0,1,2.489.232l.3.17-.155.3a3.106,3.106,0,0,1-3.118,1.488c-1.86,4.626-5.9,6.816-10.806,6.816A6.8,6.8,0,0,1,10.64,27.8l-.022-.037-.194-.392a6.237,6.237,0,0,1-.494-3.156l.03-.324h1.835V21.7H13.94V19.552h4.291V17.406H20.8Z" style="fill:#0096e6"/><path d="M17.4,30.625a4.517,4.517,0,0,1-2.355-2.317,7.747,7.747,0,0,1-1.7.258q-.373.021-.784.021-.474,0-1-.028a6.789,6.789,0,0,0,5.252,2.077Q17.113,30.636,17.4,30.625Z" style="fill:#fff"/><path d="M13.71,22.209h.147v1.55H13.71Zm-.282,0h.152v1.55h-.153v-1.55Zm-.282,0H13.3v1.55h-.152Zm-.282,0h.153v1.55h-.153Zm-.282,0h.152v1.55h-.152Zm-.276,0h.147v1.55h-.147Zm-.154-.155H14.01v1.859H12.153ZM14.3,19.909h1.86v1.859H14.3Zm1.558.155H16v1.549h-.147Zm-.282,0h.152v1.549h-.152Zm-.282,0h.152v1.549H15.3V20.064Zm-.282,0h.152v1.549H15.01Zm-.282,0h.152v1.549H14.73Zm-.276,0H14.6v1.549h-.147Zm-.155,1.99h1.86v1.86H14.3V22.055Zm1.558.155H16v1.55h-.147Zm-.282,0h.152v1.55h-.152Zm-.282,0h.152v1.55h-.151v-1.55Zm-.282,0h.152v1.55H15.01Zm-.282,0h.152v1.55h-.152Zm-.276,0H14.6v1.55h-.147Zm1.991-.155H18.3v1.86H16.44V22.055ZM18,22.209h.147v1.55H18Zm-.282,0h.152v1.55h-.152Zm-.282,0h.152v1.55h-.152Zm-.282,0h.152v1.55h-.152Zm-.282,0h.152v1.55h-.152Zm-.276,0h.147v1.55H16.6Zm-.155-2.3H18.3v1.859H16.44V19.909ZM18,20.064h.147v1.549H18Zm-.282,0h.152v1.549h-.152Zm-.282,0h.152v1.549h-.152Zm-.282,0h.152v1.549h-.152Zm-.282,0h.152v1.549h-.152Zm-.276,0h.147v1.549H16.6Zm1.991,1.99h1.859v1.86h-1.86V22.055Zm1.557.155h.147v1.55h-.147Zm-.282,0h.152v1.55h-.152Zm-.282,0h.152v1.55H19.58Zm-.282,0h.152v1.55H19.3Zm-.282,0h.152v1.55H19.02Zm-.276,0h.144v1.55h-.147v-1.55Zm-.155-2.3h1.859v1.859h-1.86V19.909Zm1.557.155h.147v1.549h-.147Zm-.282,0h.152v1.549H19.86Zm-.282,0h.152v1.549h-.152Zm-.282,0h.152v1.549H19.3Zm-.282,0h.152v1.549H19.02Zm-.276,0h.144v1.549h-.147V20.064Zm-.155-2.3h1.859v1.859h-1.86V17.764Zm1.557.155h.147v1.549H20.14Zm-.282,0h.152v1.549h-.152Zm-.282,0h.152v1.549h-.152Zm-.282,0h.152v1.549H19.3Zm-.282,0h.152v1.549H19.02Zm-.276,0h.144v1.549h-.147V17.919Zm1.99,4.135h1.859v1.86h-1.86V22.055Zm1.557.155h.146v1.55h-.147v-1.55Zm-.282,0h.155v1.55H22.01Zm-.282,0h.152v1.55h-.152Zm-.282,0H21.6v1.55h-.152Zm-.282,0h.152v1.55h-.154v-1.55Zm-.276,0h.147v1.55H20.89v-1.55Z" style="fill:#fff"/><path d="M16.041,26.929a.513.513,0,1,1-.513.513.513.513,0,0,1,.513-.513Zm0,.145a.367.367,0,0,1,.133.025.15.15,0,1,0,.207.2.367.367,0,1,1-.339-.228Z" style="fill:#fff"/></svg>