<svg xmlns="http://www.w3.org/2000/svg" viewBox="0 0 32 32"><title>folder_type_core_opened</title><path d="M27.4,5.5H18.2L16.1,9.7H4.3v4H.5L4.3,26.5H29.5V5.5ZM20.2,7.6h7.1V9.7H19.2Zm5.5,6.1H6.6V11.8H27.4v7.626Z" fill="#3d89d6"/><path fill="#bbdefb" d="M18 14v10h10V14Zm8 8h-6v-6h6ZM14 12h2v-2a2 2 0 0 0-2 2m4-2h2v2h-2zm4 0h2v2h-2zm4 0h2v2h-2zm4 0v2h2a2 2 0 0 0-2-2m0 4h2v2h-2zm0 4h2v2h-2zm0 4h2v2h-2zm0 6a2 2 0 0 0 2-2h-2Zm-4-2h2v2h-2zm-4 0h2v2h-2zm-4 0h2v2h-2zm-2 2v-2h-2a2 2 0 0 0 2 2m-2-6h2v2h-2zm0-4h2v2h-2zm0-4h2v2h-2z"/></svg>