<svg xmlns="http://www.w3.org/2000/svg" viewBox="0 0 32 32"><title>folder_type_nuxt_opened</title><path d="M27.4,5.5H18.2L16.1,9.7H4.3v4H.5L4.3,26.5H29.5V5.5ZM20.2,7.6h7.1V9.7H19.2Zm5.5,6.1H6.6V11.8H27.4v7.626Z" style="fill:#7dccc1"/><path d="M20.7,17.845l-.823,1.449-2.815-4.956L8.425,29.551h5.849A1.437,1.437,0,0,0,15.7,31H8.425a1.419,1.419,0,0,1-1.234-.725,1.466,1.466,0,0,1,0-1.448l8.64-15.214a1.414,1.414,0,0,1,2.468,0Z" style="fill:#00c58e"/><path d="M26.938,28.827l-5.413-9.533L20.7,17.845l-.823,1.449-5.413,9.533a1.469,1.469,0,0,0,0,1.448A1.42,1.42,0,0,0,15.7,31h10a1.42,1.42,0,0,0,1.234-.724,1.468,1.468,0,0,0,0-1.449ZM15.7,29.551l5-8.808,5,8.808Z" style="fill:#2f495e"/><path d="M30.809,30.276A1.42,1.42,0,0,1,29.575,31H25.7a1.437,1.437,0,0,0,1.425-1.449h2.444L22.636,17.336l-1.111,1.958L20.7,17.845l.7-1.233a1.414,1.414,0,0,1,2.469,0l6.938,12.215A1.468,1.468,0,0,1,30.809,30.276Z" style="fill:#108775"/></svg>