<svg viewBox="0 0 32 32" xmlns="http://www.w3.org/2000/svg"><path d="m27.4 5.5h-9.2l-2.1 4.2h-11.8v4h-3.8l3.8 12.8h25.2v-21zm-7.2 2.1h7.1v2.1h-8.1zm5.5 6.1h-19.1v-1.9h20.8v7.626z" fill="#bbb"/><g fill-rule="evenodd"><path d="m31 20.5a10.5 10.5 0 1 1 -10.5-10.5 10.5 10.5 0 0 1 10.5 10.5z" fill="#fff"/><path d="m23.013 27.6a2.505 2.505 0 0 0 -.713-1.944c2.339-.26 4.794-1.148 4.794-5.181a4.051 4.051 0 0 0 -1.079-2.818 3.772 3.772 0 0 0 -.105-2.779s-.88-.282-2.884 1.077a9.939 9.939 0 0 0 -5.258 0c-2.005-1.359-2.887-1.077-2.887-1.077a3.778 3.778 0 0 0 -.1 2.779 4.057 4.057 0 0 0 -1.081 2.813c0 4.023 2.451 4.924 4.783 5.189a2.248 2.248 0 0 0 -.667 1.4 2.234 2.234 0 0 1 -3.055-.873 2.209 2.209 0 0 0 -1.609-1.082s-1.025-.013-.072.639a2.778 2.778 0 0 1 1.166 1.535s.616 2.043 3.537 1.408c0 .876.014 1.537.014 1.786a.606.606 0 0 1 -.032.177 10.178 10.178 0 0 0 5.27 0 .606.606 0 0 1 -.035-.173c0-.344.013-1.476.013-2.876z" fill="#333"/></g></svg>