<svg viewBox="0 0 32 32" xmlns="http://www.w3.org/2000/svg" xmlns:xlink="http://www.w3.org/1999/xlink"><radialGradient id="a" cx="-100.943" cy="-69.047" gradientTransform="matrix(2074.534 0 0 -2395.464 209432.559 -165379.819)" gradientUnits="userSpaceOnUse" r=".004"><stop offset="0" stop-color="#93b4e7"/><stop offset=".593" stop-color="#b9d1f8"/><stop offset="1" stop-color="#9cb6e0"/></radialGradient><path d="m27.4 5.5h-9.2l-2.1 4.2h-11.8v16.8h25.2v-21zm0 18.7h-20.8v-12.4h20.8zm0-14.5h-8.2l1-2.1h7.1v2.1z" fill="#8da2cc"/><path d="m25.7 13.7h-25.2l3.8 12.8h25.2z" fill="#8da2cc"/><path d="m21.9 10.032-9.079 5.242v10.484l9.079 5.242 9.079-5.242v-10.484z" fill="url(#a)"/><path d="m21.9 15.35-4.5 2.6v5.2l4.5 2.6 4.5-2.6v-5.2z" fill="#6f95db"/><path d="m21.9 10-9.1 5.278 9.1 4.954 9.1-4.922zm0 10.911-9.1 4.824 9.1 5.245 9.066-5.28z" fill="#fff" fill-opacity=".1"/></svg>