<svg xmlns="http://www.w3.org/2000/svg" viewBox="0 0 32 32"><title>folder_type_e2e_opened</title><path d="M27.4,5.5H18.2L16.1,9.7H4.3V26.5H29.5V5.5Zm0,18.7H6.6V11.8H27.4Zm0-14.5H19.2l1-2.1h7.1V9.7Zm-1.7,4H.5L4.3,26.5H29.5Z" style="fill:#db7b7b"/><path d="M25.3,31c-.119-.057-.239-.112-.357-.172a1.383,1.383,0,0,1-.446-2.171c.36-.416.752-.8,1.128-1.2.1-.1.187-.211.367-.416-.315,0-.509,0-.7,0q-4.365-.035-8.73-.071a1.637,1.637,0,0,1-1.224-.411,1.325,1.325,0,0,1-.418-1.42,1.518,1.518,0,0,1,1.277-1.018c1.944-.03,3.889-.039,5.833-.055q1.669-.015,3.34-.029c.17,0,.341-.016.6-.03-.149-.168-.24-.274-.335-.377-.409-.442-.852-.858-1.223-1.331a1.408,1.408,0,0,1,2.1-1.851c1.331,1.3,2.658,2.615,3.962,3.946a1.494,1.494,0,0,1,0,2.279q-1.839,1.886-3.727,3.726a5.922,5.922,0,0,1-.885.6Z" style="fill:#0bb7b7"/><path d="M12.023,18.292c.5.516.905.937,1.311,1.362a1.6,1.6,0,0,1,.487,1.27A1.287,1.287,0,0,1,12.99,22.1a1.268,1.268,0,0,1-1.49-.246c-1.373-1.376-2.754-2.745-4.114-4.134a1.372,1.372,0,0,1-.035-1.87c1.415-1.447,2.847-2.879,4.31-4.278a1.374,1.374,0,0,1,2.112.718,1.331,1.331,0,0,1-.284,1.386c-.247.245-.469.516-.716.762s-.509.472-.765.707l.054.137h.444q4.365.016,8.731.037a4.3,4.3,0,0,1,.76.067,1.406,1.406,0,0,1,1.144,1.446,1.426,1.426,0,0,1-1.275,1.337c-1.353.046-2.708.047-4.063.059-1.7.014-3.406.02-5.11.031C12.509,18.263,12.325,18.278,12.023,18.292Z" style="fill:#0b0bb7"/></svg>