<svg viewBox="0 0 32 32" xmlns="http://www.w3.org/2000/svg"><path d="m27.4 5.5h-9.2l-2.1 4.2h-11.8v16.8h25.2v-21zm0 18.7h-20.8v-12.4h20.8zm0-14.5h-8.2l1-2.1h7.1v2.1z" fill="#db847b"/><path d="m25.7 13.7h-25.2l3.8 12.8h25.2z" fill="#db847b"/><path d="m30.177 26.879c-1.121.584-6.926 2.971-8.162 3.615a2.759 2.759 0 0 1 -2.9.171c-.976-.467-7.154-2.962-8.267-3.494-.556-.266-.849-.49-.849-.7v-2.124s8.043-1.751 9.341-2.217a3.294 3.294 0 0 1 2.854-.078c1.105.4 7.712 1.6 8.8 2v2.093s-.252.44-.822.737z" fill="#a41e11"/><path d="m30.177 24.756c-1.121.584-6.926 2.971-8.162 3.615a2.759 2.759 0 0 1 -2.9.171c-.976-.466-7.154-2.962-8.267-3.494s-1.136-.9-.043-1.326 7.237-2.839 8.536-3.3a3.294 3.294 0 0 1 2.859-.082c1.105.4 6.876 2.7 7.968 3.1s1.134.73.014 1.314z" fill="#d82c20"/><path d="m30.177 23.418c-1.121.584-6.926 2.971-8.162 3.616a2.76 2.76 0 0 1 -2.9.171c-.976-.466-7.154-2.962-8.267-3.494-.556-.266-.849-.49-.849-.7v-2.125s8.043-1.751 9.341-2.217a3.294 3.294 0 0 1 2.854-.078c1.105.4 7.712 1.6 8.8 2v2.093s-.247.437-.817.734z" fill="#a41e11"/><path d="m30.177 21.295c-1.121.584-6.926 2.971-8.162 3.616a2.76 2.76 0 0 1 -2.9.171c-.976-.466-7.154-2.962-8.267-3.494s-1.136-.9-.043-1.326 7.237-2.839 8.536-3.3a3.294 3.294 0 0 1 2.854-.078c1.105.4 6.876 2.7 7.968 3.1s1.134.73.014 1.314z" fill="#d82c20"/><path d="m30.177 19.828c-1.121.584-6.926 2.971-8.162 3.616a2.76 2.76 0 0 1 -2.9.171c-.976-.466-7.154-2.962-8.267-3.494-.556-.266-.849-.49-.849-.7v-2.121s8.043-1.751 9.341-2.217a3.294 3.294 0 0 1 2.86-.083c1.105.4 7.712 1.6 8.8 2v2.093s-.252.44-.822.737z" fill="#a41e11"/><path d="m30.177 17.7c-1.121.584-6.926 2.971-8.162 3.616a2.76 2.76 0 0 1 -2.9.171c-.976-.467-7.154-2.962-8.267-3.494s-1.136-.9-.043-1.326 7.237-2.838 8.536-3.3a3.293 3.293 0 0 1 2.854-.078c1.105.4 6.876 2.7 7.968 3.1s1.134.73.014 1.314z" fill="#d82c20"/><g fill="#fff"><path d="m23.252 15.661-1.82.188-.407.981-.658-1.094-2.101-.189 1.567-.565-.47-.868 1.468.574 1.384-.453-.374.897z"/><path d="m20.916 20.416-3.396-1.409 4.866-.747z"/><ellipse cx="16.208" cy="17.213" rx="2.601" ry="1.008"/></g><path d="m25.402 15.928 2.88 1.139-2.878 1.137z" fill="#7a0c00"/><path d="m22.216 17.189 3.186-1.261.002 2.276-.312.122z" fill="#ad2115"/></svg>