<svg xmlns="http://www.w3.org/2000/svg" viewBox="0 0 32 32"><title>folder_type_typings2_opened</title><path d="M27.4,5.5H18.2L16.1,9.7H4.3V26.5H29.5V5.5Zm0,18.7H6.6V11.8H27.4Zm0-14.5H19.2l1-2.1h7.1V9.7Z" style="fill:#7bdb9d"/><polygon points="25.7 13.7 0.5 13.7 4.3 26.5 29.5 26.5 25.7 13.7" style="fill:#7bdb9d"/><path d="M27.568,17.288a3.726,3.726,0,0,1,1.872,1.079,4.93,4.93,0,0,1,.718.96c.01.038-1.293.912-2.081,1.4-.029.019-.143-.1-.271-.295a1.7,1.7,0,0,0-1.407-.846c-.908-.062-1.492.413-1.487,1.207a1.1,1.1,0,0,0,.128.561c.2.413.57.661,1.734,1.164,2.143.922,3.06,1.53,3.63,2.395a4.344,4.344,0,0,1,.347,3.649,4.013,4.013,0,0,1-3.312,2.371,9.178,9.178,0,0,1-2.281-.024,5.5,5.5,0,0,1-3.046-1.587,5.289,5.289,0,0,1-.779-1.155,2.237,2.237,0,0,1,.276-.176c.133-.076.637-.366,1.112-.642l.86-.5.181.266A4.019,4.019,0,0,0,24.9,28.208a2.78,2.78,0,0,0,2.913-.147,1.3,1.3,0,0,0,.166-1.658c-.233-.333-.708-.613-2.058-1.2A7.409,7.409,0,0,1,23.1,23.47a3.948,3.948,0,0,1-.822-1.5,5.994,5.994,0,0,1-.052-1.91,3.649,3.649,0,0,1,3.07-2.842A7.583,7.583,0,0,1,27.568,17.288Zm-7.028,1.25.01,1.226h-3.9V30.836H13.9V19.764H10v-1.2a11.781,11.781,0,0,1,.033-1.235c.014-.019,2.385-.029,5.26-.024l5.232.014Z" style="fill:#00a23c"/></svg>