<svg viewBox="0 0 32 32" xmlns="http://www.w3.org/2000/svg" xmlns:xlink="http://www.w3.org/1999/xlink"><linearGradient id="a" gradientTransform="matrix(.864 0 0 -.864 -81.843 -76.99)" gradientUnits="userSpaceOnUse" x1="127.346" x2="125.823" y1="-116.408" y2="-119.26"><stop offset="0" stop-color="#fff"/><stop offset="1" stop-color="#fff"/></linearGradient><linearGradient id="b" gradientTransform="matrix(.864 0 0 -.864 -81.843 -76.99)" gradientUnits="userSpaceOnUse" x1="127.349" x2="125.824" y1="-116.274" y2="-119.127"><stop offset="0"/><stop offset="1" stop-color="#6a6a6a"/></linearGradient><linearGradient id="c" gradientTransform="matrix(.864 0 0 -.864 -90.788 -94.496)" gradientUnits="userSpaceOnUse" x1="126.507" x2="128.647" y1="-131.222" y2="-131.222"><stop offset="0" stop-color="#e7ebef"/><stop offset="1" stop-color="#c4ce00"/></linearGradient><linearGradient id="d" gradientTransform="matrix(.864 0 0 -.864 -81.843 -78.528)" x1="127.346" x2="125.823" xlink:href="#a" y1="-117.409" y2="-120.262"/><linearGradient id="e" gradientTransform="matrix(.864 0 0 -.864 -81.843 -78.528)" x1="127.349" x2="125.824" xlink:href="#b" y1="-117.276" y2="-120.128"/><linearGradient id="f" gradientTransform="matrix(.864 0 0 -.864 -81.843 -80.066)" x1="127.346" x2="125.823" xlink:href="#a" y1="-118.411" y2="-121.263"/><linearGradient id="g" gradientTransform="matrix(.864 0 0 -.864 -81.843 -80.066)" x1="127.349" x2="125.824" xlink:href="#b" y1="-118.277" y2="-121.13"/><linearGradient id="h" gradientTransform="matrix(.864 0 0 -.864 -81.843 -81.604)" x1="127.346" x2="125.823" xlink:href="#a" y1="-119.413" y2="-122.265"/><linearGradient id="i" gradientTransform="matrix(.864 0 0 -.864 -81.843 -81.604)" x1="127.349" x2="125.824" xlink:href="#b" y1="-119.279" y2="-122.131"/><linearGradient id="j" gradientTransform="matrix(.864 0 0 -.864 -81.843 -75.452)" x1="127.346" x2="125.823" xlink:href="#a" y1="-115.406" y2="-118.258"/><linearGradient id="k" gradientTransform="matrix(.864 0 0 -.864 -81.843 -75.452)" x1="127.349" x2="125.824" xlink:href="#b" y1="-115.272" y2="-118.125"/><path d="m27.4 5.5h-9.2l-2.1 4.2h-11.8v16.8h25.2v-21zm0 18.7h-20.8v-12.4h20.8zm0-14.5h-8.2l1-2.1h7.1v2.1z" fill="#7addd3"/><path d="m25.7 13.7h-25.2l3.8 12.8h25.2z" fill="#7addd3"/><g fill="#00608b"><path d="m29.374 12.871c-.189-.039-4.433-1.256-4.66-1.331a1.291 1.291 0 0 0 -.642-.038c-.113.038-6.883 4.008-7.11 4.121-.038 0-.038.038-.076.076a.811.811 0 0 0 -.264.567l.078 11.743c0 .189.038.264.189.34 0 0 4.912 1.965 5.479 2.116h.076c.264.038.34.038.453-.076l.038-.038c.113-.076 6.416-4.869 6.529-4.982a.573.573 0 0 0 .151-.3c0-.113.177-11.554.177-11.7v-.038a.508.508 0 0 0 -.416-.453zm-.118.567a2.313 2.313 0 0 0 .227-.189s-.113.076-.264.189c-.264.189-.6.416-.982.718.642-.453 1.209-.831 1.36-.945a2.41 2.41 0 0 1 -.336.227z" stroke="#000" stroke-linecap="round" stroke-linejoin="round" stroke-width="1.28013"/><path d="m24.7 11.5a1.291 1.291 0 0 0 -.642-.038c-.113.038-6.867 4.051-7.094 4.2-.189.113-.264.34 0 .453.264.076 5.214 1.7 5.4 1.738a.821.821 0 0 0 .68-.038c.113-.076 6.516-4.453 6.63-4.566s-.111-.314-.27-.367c-.181-.06-4.518-1.346-4.744-1.422l.038.038z"/><path d="m16.66 16.3c0-.189.113-.3.264-.264.113.038 5.441 1.776 5.63 1.927.189.113.3.189.3.34s-.076 11.781-.076 11.932a.235.235 0 0 1 -.34.227c-.567-.151-5.479-2.116-5.479-2.116-.151-.076-.189-.151-.189-.34z"/><path d="m22.969 30.389c-.113.076-.235-.013-.235-.226 0-.189.046-11.744.046-11.895a.465.465 0 0 1 .189-.378c.113-.076 6.53-4.528 6.681-4.642s.227.113.189.227c0 .113-.214 11.5-.214 11.616a.285.285 0 0 1 -.151.264c-.113.113-6.467 4.958-6.543 5.071l.038-.038z"/><path d="m16.886 15.963c-.038 0 0-.189.113-.3a.828.828 0 0 0 -.34.642.236.236 0 0 1 .227-.189c.68.227 5.365 1.851 5.554 1.927s.3.144.3.333l.037.451.068-.459c0-.189.126-.324.352-.475.113-.076 2.969-2.095 3.775-2.815-.766.408-3.8 2.777-4.216 2.777-.321 0-5.831-1.889-5.869-1.889z"/><path d="m26.521 15.4a2.143 2.143 0 0 1 .34-.227z"/><path d="m23 30.365a.46.46 0 0 1 -.533.109.279.279 0 0 0 .281-.226s.029.205.252.118z"/><path d="m29.58 13.309c.189-.091.269.007.275.169.027-.167.021-.466-.451-.6 0 0 .379.188.176.428z"/></g><path d="m29.278 23.842-4.1 2.976v.151l4.091-3.027.007-.1z" fill="url(#a)" opacity=".13"/><path d="m29.3 23.719-4.12 2.981v.151l4.1-3.042.019-.094z" fill="url(#b)" opacity=".13"/><path d="m18.51 18.444v.227l1.852.642v-.189z" fill="url(#c)"/><path d="m18.51 18.671-.113.075v-.453l2.04.718-.075.113-1.852-.68z" opacity=".22"/><path d="m20.437 19.464v-.453l-.075.113v.189l-1.852-.642-.113.075z" fill="#fff" opacity=".72"/><path d="m29.278 23.169-4.1 2.976v.155l4.091-3.027.007-.1z" fill="url(#d)" opacity=".13"/><path d="m29.3 23.047-4.12 2.985v.151l4.1-3.042.019-.094z" fill="url(#e)" opacity=".13"/><path d="m29.278 22.5-4.1 2.976v.151l4.093-3.027z" fill="url(#f)" opacity=".13"/><path d="m29.3 22.374-4.12 2.985v.151l4.1-3.042.019-.094z" fill="url(#g)" opacity=".13"/><path d="m29.278 21.824-4.098 2.976v.151l4.091-3.027z" fill="url(#h)" opacity=".13"/><path d="m29.3 21.7-4.12 2.987v.151l4.1-3.042z" fill="url(#i)" opacity=".13"/><path d="m29.278 24.514-4.1 2.976v.151l4.091-3.027.007-.1z" fill="url(#j)" opacity=".13"/><path d="m29.3 24.392-4.12 2.985v.151l4.1-3.042.019-.094z" fill="url(#k)" opacity=".13"/></svg>