<svg viewBox="0 0 32 32" xmlns="http://www.w3.org/2000/svg"><path d="m27.5 5.5h-9.3l-2.1 4.2h-11.7v16.8h25.2v-21zm0 4.2h-8.2l1.1-2.1h7.1z" fill="#a855bf"/><path d="m12.941 26.524a.88.88 0 0 1 -.911.144l-1.597-.668a.881.881 0 0 1 -.542-.812v-9.379a.88.88 0 0 1 .542-.809l1.6-.665a.879.879 0 0 1 .911.144l.358.307a.486.486 0 0 0 -.769.4v10.635a.486.486 0 0 0 .769.4z" fill="#52218a"/><path d="m10.433 26a.881.881 0 0 1 -.542-.812v-.073a.508.508 0 0 0 .885.34l13.624-15.07a1.316 1.316 0 0 1 1.5-.255l4.35 2.095a1.319 1.319 0 0 1 .75 1.188v.051a.833.833 0 0 0 -1.361-.644l-16.339 13.397-.358.307a.88.88 0 0 1 -.911.144z" fill="#6c33af"/><path d="m10.433 15a.881.881 0 0 0 -.542.812v.073a.508.508 0 0 1 .885-.34l13.624 15.069a1.314 1.314 0 0 0 1.5.255l4.35-2.094a1.318 1.318 0 0 0 .75-1.189v-.05a.833.833 0 0 1 -1.361.644l-16.339-13.397-.358-.307a.88.88 0 0 0 -.911-.144z" fill="#854cc7"/><path d="m25.9 30.87a1.317 1.317 0 0 1 -1.5-.255.773.773 0 0 0 1.32-.547v-19.136a.773.773 0 0 0 -1.32-.547 1.317 1.317 0 0 1 1.5-.255l4.348 2.091a1.32 1.32 0 0 1 .752 1.189v14.18a1.32 1.32 0 0 1 -.748 1.189z" fill="#b179f1"/></svg>