<svg viewBox="0 0 32 32" xmlns="http://www.w3.org/2000/svg"><path d="m27.5 5.5h-9.3l-2.1 4.2h-11.7v16.8h25.2v-21zm0 4.2h-8.2l1.1-2.1h7.1z" fill="#ef86cd"/><path d="m30.932 25.457a1.84 1.84 0 0 1 -2.965.3l-4.212 2.432a1.837 1.837 0 1 1 -3.506.059l-4.237-2.446a1.838 1.838 0 1 1 -1.764-3.054v-4.9a1.838 1.838 0 1 1 1.762-3.051l4.239-2.447a1.837 1.837 0 1 1 3.522 0l4.238 2.447a1.838 1.838 0 1 1 1.764 3.049v4.9a1.837 1.837 0 0 1 1.158 2.7zm-7.6-12.341-.049.049 5.548 9.609.071-.019v-4.9a1.835 1.835 0 0 1 -1.322-2.285l-4.248-2.453zm-2.641 0-4.247 2.452a1.835 1.835 0 0 1 -1.321 2.288v4.9l.072.019 5.548-9.609zm1.834.487a1.856 1.856 0 0 1 -1.025 0l-5.548 9.607a1.829 1.829 0 0 1 .517.894h11.085a1.844 1.844 0 0 1 .517-.9zm.845 13.934 4.22-2.437q-.019-.06-.034-.121h-11.09q-.009.036-.019.071l4.241 2.45a1.839 1.839 0 0 1 2.682.037z" fill="#e535ab" stroke="#e535ab" stroke-miterlimit="10" stroke-width=".082547"/></svg>