<svg viewBox="0 0 32 32" xmlns="http://www.w3.org/2000/svg"><path d="m27.4 5.5h-9.2l-2.1 4.2h-11.8v4h-3.8l3.8 12.8h25.2v-21zm-7.2 2.1h7.1v2.1h-8.1zm5.5 6.1h-19.1v-1.9h20.8v7.626z" fill="#7fa4cc"/><path d="m12.971 16.36 7.778-5.1a1.6 1.6 0 0 1 1.752 0l7.777 5.1a1.6 1.6 0 0 1 .722 1.34v6.6a1.6 1.6 0 0 1 -.722 1.336l-7.777 5.1a1.6 1.6 0 0 1 -1.752 0l-7.778-5.1a1.6 1.6 0 0 1 -.721-1.336v-6.6a1.6 1.6 0 0 1 .721-1.34z" fill="#0366d6"/><path d="m27.042 21h-.417v-2.5a.625.625 0 0 0 -.625-.625h-3.125v-2.292a.209.209 0 0 0 -.209-.208h-1.458a.208.208 0 0 0 -.208.208v1.459a.208.208 0 0 0 .208.208h1.042v.625h-5a.625.625 0 0 0 -.625.625v2.5h-.417a.209.209 0 0 0 -.208.209v2.083a.208.208 0 0 0 .208.208h.417v1.25a.624.624 0 0 0 .625.625h8.75a.625.625 0 0 0 .625-.625v-1.25h.417a.208.208 0 0 0 .208-.208v-2.083a.209.209 0 0 0 -.208-.209zm-6.221.491-1.31 1.31a.252.252 0 0 1 -.356 0l-.79-.789a.254.254 0 0 1 0-.357l.269-.268a.25.25 0 0 1 .356 0l.343.342.863-.863a.252.252 0 0 1 .357 0l.268.268a.252.252 0 0 1 0 .357zm4.167 0-1.31 1.31a.253.253 0 0 1 -.357 0l-.789-.789a.253.253 0 0 1 0-.357l.268-.268a.252.252 0 0 1 .357 0l.343.342.863-.863a.25.25 0 0 1 .356 0l.269.268a.253.253 0 0 1 0 .357z" fill="#fff"/></svg>