<svg id="Layer_1" data-name="Layer 1" xmlns="http://www.w3.org/2000/svg" xmlns:xlink="http://www.w3.org/1999/xlink" viewBox="0 0 32 32"><defs><linearGradient id="linear-gradient" x1="-207.66" y1="160.23" x2="-216.52" y2="151.37" gradientTransform="matrix(1, 0, 0, -1, 234, 178)" gradientUnits="userSpaceOnUse"><stop offset="0" stop-color="#0096ff"/><stop offset="1" stop-color="#ff1e56"/></linearGradient></defs><title>folder_type_turbo_opened</title><path d="M27.4,5.5H18.2L16.1,9.7H4.3v4H.5L4.3,26.5H29.5V5.5ZM20.2,7.6h7.1V9.7H19.2Zm5.5,6.1H6.6V11.8H27.4v7.63Z" style="fill:#666"/><path d="M21,15.15A5.85,5.85,0,1,0,26.84,21,5.86,5.86,0,0,0,21,15.15ZM21,24a3,3,0,1,1,3-3A3,3,0,0,1,21,24Z" style="fill:#f5f5f5"/><path d="M21.48,14.19V12a9,9,0,0,1,0,18V27.81a6.83,6.83,0,0,0,0-13.62ZM15.83,25.47a6.91,6.91,0,0,1-1.65-4H12A8.93,8.93,0,0,0,14.29,27l1.54-1.54ZM20.5,30V27.81a6.79,6.79,0,0,1-4-1.65L15,27.7A8.93,8.93,0,0,0,20.5,30Z" style="fill-rule:evenodd;fill:url(#linear-gradient)"/></svg>