<svg viewBox="0 0 32 32" xmlns="http://www.w3.org/2000/svg"><path d="m27.4 5.5h-9.2l-2.1 4.2h-11.8v16.8h25.2v-21zm0 18.7h-20.8v-12.4h20.8zm0-14.5h-8.2l1-2.1h7.1v2.1z" fill="#dc7a7a"/><path d="m4.3 26.5h25.2l-3.8-12.8h-25.2z" fill="#dc7a7a"/><path d="m15.266 11.311v18.375h14.449v-15.1h-3.6v-3.275zm12.146.813.008 1.158h1.252l-1.26-1.16z" fill="#808080"/><g fill="#c5c5c5"><path d="m27.028 10h-11.747a1.316 1.316 0 0 0 -1.312 1.313v18.375a1.316 1.316 0 0 0 1.312 1.312h14.438a1.316 1.316 0 0 0 1.313-1.312v-16.046zm.394 2.133 1.247 1.148h-1.247zm-12.141 17.555v-18.375h10.828v3.281h3.609v15.094z"/><path d="m16.594 19.372h11.813v1.313h-11.813z"/><path d="m18.436 12.572a1.426 1.426 0 0 0 -.558-.394 2.051 2.051 0 0 0 -.82-.131h-1.28v3.839h1.28a1.66 1.66 0 0 0 1.313-.492 1.786 1.786 0 0 0 .361-.591 2.954 2.954 0 0 0 .1-.82 2.871 2.871 0 0 0 -.1-.788 1.576 1.576 0 0 0 -.296-.623zm-.459 1.837a1.011 1.011 0 0 1 -.164.394.775.775 0 0 1 -.3.262 1.1 1.1 0 0 1 -.492.1h-.421v-2.429h.459a.872.872 0 0 1 .722.3 1.213 1.213 0 0 1 .164.361 2.55 2.55 0 0 1 .066.525 2.172 2.172 0 0 1 -.035.488z"/><path d="m21.979 12.572a1.369 1.369 0 0 0 -.525-.427 1.711 1.711 0 0 0 -.755-.164 1.983 1.983 0 0 0 -.788.164 1.669 1.669 0 0 0 -.525.427 2.176 2.176 0 0 0 -.3.623 2.942 2.942 0 0 0 0 1.509 1.829 1.829 0 0 0 .3.623 1.127 1.127 0 0 0 .525.427 1.865 1.865 0 0 0 .788.164 1.417 1.417 0 0 0 1.214-.525 2.109 2.109 0 0 0 .427-1.444 2.8 2.8 0 0 0 -.1-.755 1.334 1.334 0 0 0 -.261-.622zm-.689 2.328a.705.705 0 0 1 -.623.328.643.643 0 0 1 -.623-.328 1.871 1.871 0 0 1 -.2-.952 1.79 1.79 0 0 1 .2-.952.806.806 0 0 1 1.247 0 1.871 1.871 0 0 1 .2.952 1.79 1.79 0 0 1 -.201.952z"/><path d="m24.7 14.869a.716.716 0 0 1 -.131.164.686.686 0 0 1 -.2.131.64.64 0 0 1 -.263.033.575.575 0 0 1 -.558-.3 1.79 1.79 0 0 1 -.2-.952v-.262c0-.1.033-.2.033-.3.033-.1.033-.2.066-.263a.529.529 0 0 1 .131-.23.87.87 0 0 1 .2-.164.618.618 0 0 1 .263-.066.567.567 0 0 1 .427.164 1.135 1.135 0 0 1 .23.394l.755-.2a1.572 1.572 0 0 0 -.23-.525 1.556 1.556 0 0 0 -.328-.328 1.884 1.884 0 0 0 -1.608-.033 1.545 1.545 0 0 0 -.492.427 1.292 1.292 0 0 0 -.164.656 2.692 2.692 0 0 0 -.066.722 4.914 4.914 0 0 0 .066.722 1.788 1.788 0 0 0 .262.623 1.226 1.226 0 0 0 .492.427 1.711 1.711 0 0 0 .755.164 1.6 1.6 0 0 0 .919-.262 1.556 1.556 0 0 0 .328-.328 3.344 3.344 0 0 0 .263-.492l-.788-.2a.908.908 0 0 1 -.162.278z"/><path d="m16.594 27.805h8.203v1.313h-8.203z"/><path d="m16.594 25.272h11.813v1.313h-11.813z"/><path d="m16.594 22.272h11.813v1.313h-11.813z"/><path d="m16.649 16.472h11.813v1.313h-11.813z"/></g></svg>