<svg version="1.1" viewBox="0 0 32 32" xml:space="preserve" xmlns="http://www.w3.org/2000/svg"><title>folder_type_environments</title><path d="M27.417,5.5H18.19L16.107,9.7H4.5V26.5h25V5.5Zm0,4.2H19.282l1.091-2.1h7.044Z" fill="#a30026"/><path d="m25.999 26.903 0.61934-0.61521c2.8655 0.09358 2.9095-0.0068 3.0355-0.30141l0.78725-1.9165 0.05849-0.18167-0.064-0.15896c-0.03372-0.08395-0.13763-0.33444-1.9268-2.0404v-0.89736c2.0645-1.9888 2.0204-2.0906 1.9028-2.3817l-0.78381-1.9365c-0.11768-0.2904-0.1624-0.40395-3.0072-0.32619l-0.61934-0.63998a13.877 13.877 0 0 0-0.09703-2.8256l-0.07983-0.18098-2.0466-0.8946c-0.30141-0.13763-0.40739-0.18718-2.3397 1.9172l-0.86845-0.01308c-1.9895-2.1236-2.0837-2.0851-2.3817-1.9647l-1.9028 0.76936c-0.29797 0.12043-0.40326 0.16309-0.28765 3.0534l-0.61452 0.61246c-2.8641-0.09358-2.9081 0.0083-3.0327 0.30141l-0.78863 1.9172-0.06193 0.18374 0.06469 0.15965c0.03373 0.08257 0.1335 0.33032 1.9268 2.0383v0.8946c-2.0645 1.9888-2.0197 2.0906-1.9014 2.3824l0.78312 1.9385c0.11974 0.2966 0.16241 0.40188 3.0066 0.32756l0.61934 0.64343a13.93 13.93 0 0 0 0.09428 2.8214l0.07982 0.18236 2.0597 0.90011c0.29935 0.12524 0.40326 0.16998 2.3301-1.9268l0.86845 0.01101c1.9922 2.1264 2.0941 2.0851 2.3852 1.9674l1.8986-0.7673c0.30004-0.11905 0.40464-0.16103 0.28421-3.0527zm-8.1602-4.4895a3.4112 3.4112 0 1 1 4.4648 1.9434 3.4504 3.4504 0 0 1-4.4648-1.9434z" fill="#99b8c4" stroke-width=".68816"/></svg>
