<svg xmlns="http://www.w3.org/2000/svg" viewBox="0 0 32 32"><title>folder_type_sass_opened</title><path d="M27.4,5.5H18.2L16.1,9.7H4.3V26.5H29.5V5.5Zm0,18.7H6.6V11.8H27.4Zm0-14.5H19.2l1-2.1h7.1V9.7Z" style="fill:#db7bab"/><polygon points="25.7 13.7 0.5 13.7 4.3 26.5 29.5 26.5 25.7 13.7" style="fill:#db7bab"/><path d="M22.308,22.525c-.361.166-.756.382-1.547.816-.3.169-.614.338-.905.5-.02-.02-.041-.046-.061-.066-1.565-1.673-4.46-2.854-4.337-5.1.046-.818.327-2.967,5.56-5.575,4.307-2.123,7.733-1.534,8.327-.23.849,1.862-1.836,5.319-6.286,5.821a3.352,3.352,0,0,1-2.813-.711c-.235-.256-.271-.271-.358-.22-.143.077-.051.307,0,.44a2.627,2.627,0,0,0,1.606,1.263,8.551,8.551,0,0,0,5.217-.517c2.7-1.043,4.8-3.943,4.184-6.373-.619-2.465-4.711-3.279-8.582-1.9a19.5,19.5,0,0,0-6.593,3.785c-2.133,1.995-2.47,3.729-2.332,4.455.5,2.578,4.051,4.255,5.473,5.5-.072.041-.138.077-.194.107-.711.353-3.422,1.77-4.1,3.268-.767,1.7.123,2.915.711,3.079a4.374,4.374,0,0,0,4.711-1.908,4.725,4.725,0,0,0,.419-4.353,3.772,3.772,0,0,1,.537-.358c.363-.215.709-.426,1.016-.589v0a7.856,7.856,0,0,1,3.356-.742c2.435.286,2.915,1.805,2.823,2.445a1.618,1.618,0,0,1-.772,1.095c-.169.107-.225.143-.21.22.02.113.1.107.246.087A1.9,1.9,0,0,0,28.73,25.06c.077-1.5-1.355-3.146-3.887-3.13a5.815,5.815,0,0,0-2.209.44q-.168.07-.328.148ZM18.689,28.4c-.808.88-1.933,1.212-2.419.931-.522-.3-.317-1.6.675-2.532a12.885,12.885,0,0,1,1.9-1.417c.118-.072.292-.174.5-.3l.056-.031.123-.077A3.493,3.493,0,0,1,18.689,28.4Z" style="fill:#fff"/></svg>