<svg id="folder_type_nix" data-name="folder type nix" xmlns="http://www.w3.org/2000/svg" xmlns:xlink="http://www.w3.org/1999/xlink" viewBox="0 0 32 32"><defs><linearGradient id="linear-gradient" x1="536.24" y1="1537.03" x2="540.83" y2="1544.97" gradientTransform="translate(-414.75 -1206.48) scale(0.8)" gradientUnits="userSpaceOnUse"><stop offset="0" stop-color="#699ad7"/><stop offset="0.24" stop-color="#7eb1dd"/><stop offset="1" stop-color="#7ebae4"/></linearGradient><linearGradient id="linear-gradient-2" x1="979.2" y1="718.68" x2="983.79" y2="726.62" gradientTransform="translate(121.83 -948) rotate(59.9) scale(0.8)" xlink:href="#linear-gradient"/><linearGradient id="linear-gradient-3" x1="-392.84" y1="1566.6" x2="-388.26" y2="1574.53" gradientTransform="translate(-906.94 -869.39) rotate(-59.9) scale(0.8)" xlink:href="#linear-gradient"/><linearGradient id="linear-gradient-4" x1="-441.2" y1="-45.76" x2="-436.61" y2="-37.82" gradientTransform="translate(-325.52 -15.63) rotate(180) scale(0.8)" xlink:href="#linear-gradient"/><linearGradient id="linear-gradient-5" x1="-257.74" y1="1973.17" x2="-253.23" y2="1981.14" gradientTransform="translate(220.49 -1555.43) scale(0.8)" gradientUnits="userSpaceOnUse"><stop offset="0" stop-color="#415e9a"/><stop offset="0.23" stop-color="#4a6baf"/><stop offset="1" stop-color="#5277c3"/></linearGradient><linearGradient id="linear-gradient-6" x1="-306.31" y1="360.59" x2="-301.81" y2="368.55" gradientTransform="translate(150.85 371.5) rotate(120.1) scale(0.8)" xlink:href="#linear-gradient-5"/><linearGradient id="linear-gradient-7" x1="-1681.52" y1="1210.07" x2="-1677.01" y2="1218.04" gradientTransform="translate(-1482.14 -649.79) rotate(-120.1) scale(0.8)" xlink:href="#linear-gradient-5"/></defs><path id="folder" d="M27.5,5.5H18.2L16.1,9.7H4.4V26.5H29.6V5.5Zm0,4.2H19.3l1.1-2.1h7.1Z" style="fill:#4a5e7f"/><g id="icon"><path id="path3336-6" d="M16.83,22.29l5,8.69h-2.3L18.2,28.66,16.86,31H15.71l-.58-1,1.92-3.3-1.37-2.38Z" style="fill-rule:evenodd;fill:url(#linear-gradient)"/><g id="use3439-6"><path id="path3336-6-2" d="M18.64,18.71l-5,8.69-1.17-2,1.35-2.33H11.13l-.57-1,.58-1H15l1.37-2.37Z" style="fill-rule:evenodd;fill:url(#linear-gradient-2)"/></g><g id="use3445-0"><path id="path3336-6-3" d="M19,25.65H29l-1.13,2H25.22L26.56,30,26,31H24.81l-1.89-3.32H20.18Z" style="fill-rule:evenodd;fill:url(#linear-gradient-3)"/></g><g id="use3449-5"><path id="path3336-6-4" d="M24.85,21.85l-5-8.7h2.3l1.33,2.34,1.35-2.32H26l.59,1-1.92,3.3L26,19.84Z" style="fill-rule:evenodd;fill:url(#linear-gradient-4)"/></g><path id="path4260-0" d="M16.83,22.29l5,8.69h-2.3L18.2,28.66,16.86,31H15.71l-.58-1,1.92-3.3-1.37-2.38Z" style="fill-rule:evenodd;fill:url(#linear-gradient-5)"/><g id="use4354-5"><path id="path4260-0-2" d="M22.64,18.46h-10l1.13-2h2.68l-1.33-2.33.57-1h1.17l1.9,3.32h2.73Z" style="fill-rule:evenodd;fill:url(#linear-gradient-6)"/></g><g id="use4362-2"><path id="path4260-0-3" d="M23,25.42l5-8.69,1.17,2-1.35,2.33H30.5l.57,1-.58,1H26.72l-1.38,2.37Z" style="fill-rule:evenodd;fill:url(#linear-gradient-7)"/></g></g></svg>