<svg viewBox="0 0 32 32" xmlns="http://www.w3.org/2000/svg"><path d="m27.5 5.5h-9.3l-2.1 4.2h-11.7v16.8h25.2v-21zm0 4.2h-8.2l1.1-2.1h7.1z" fill="#5799b5"/><g fill="#0089d6"><path d="m19.177 29.932c2.827-.586 5.161-1.071 5.188-1.078l.049-.012-2.668-3.725c-1.468-2.049-2.668-3.734-2.668-3.743s2.755-8.925 2.771-8.956c0-.011 1.88 3.789 4.545 9.211l4.571 9.3.035.071h-16.96z"/><path d="m9 28.8s1.257-2.567 2.794-5.693l2.794-5.684 3.259-3.206c1.791-1.769 3.261-3.217 3.267-3.217a.785.785 0 0 1 -.052.155l-3.539 8.9-3.476 8.745h-2.525c-1.386.007-2.522 0-2.522 0z"/></g></svg>