<svg xmlns="http://www.w3.org/2000/svg" viewBox="0 0 32 32"><title>folder_type_next</title><path d="M27.417,5.5H18.19L16.107,9.7H4.5V26.5h25V5.5Zm0,4.2H19.282l1.091-2.1h7.044Z" style="fill:#c09553"/><circle cx="21" cy="21" r="10" style="fill:#e5e5e5"/><path d="M29.919,19.691a9.036,9.036,0,0,0-6.157-7.271,9.444,9.444,0,0,0-1.873-.392c-.169-.018-1.332-.037-1.478-.023h0c-.039,0-.162.016-.273.024a9.023,9.023,0,0,0-6.468,3.73,8.9,8.9,0,0,0-1.589,3.932A6.9,6.9,0,0,0,12,21a6.891,6.891,0,0,0,.081,1.31,9.035,9.035,0,0,0,6.157,7.271,9.5,9.5,0,0,0,1.9.4,17.092,17.092,0,0,0,1.724,0,9.084,9.084,0,0,0,3.243-.949c.155-.079.185-.1.164-.118s-.674-.9-1.466-1.965L22.364,25l-1.8-2.668c-.992-1.468-1.809-2.668-1.816-2.668s-.014,1.184-.017,2.632a20.7,20.7,0,0,1-.039,2.7.315.315,0,0,1-.155.16c-.056.029-.105.034-.371.034h-.3l-.08-.051a.33.33,0,0,1-.118-.129l-.037-.079,0-3.527,0-3.529.055-.069a.483.483,0,0,1,.13-.107c.072-.035.1-.039.4-.039.359,0,.419.014.512.116.026.028,1,1.5,2.171,3.271l3.551,5.378,1.425,2.158.072-.047a9.223,9.223,0,0,0,1.85-1.622,8.957,8.957,0,0,0,2.118-4.6A6.891,6.891,0,0,0,30,21,6.9,6.9,0,0,0,29.919,19.691Zm-5.632,1.193,0,3.163-.558-.855-.56-.855v-2.3c0-1.487.007-2.323.018-2.363a.36.36,0,0,1,.174-.222c.072-.037.1-.04.375-.04.26,0,.306,0,.364.035a.357.357,0,0,1,.178.208C24.287,17.7,24.29,18.68,24.287,20.884Z"/></svg>