<svg version="1.1" viewBox="0 0 32 32" xml:space="preserve" xmlns="http://www.w3.org/2000/svg"><title>folder_type_next_opened</title><path d="M27.4,5.5H18.2L16.1,9.7H4.3v4H.5L4.3,26.5H29.5V5.5ZM20.2,7.6h7.1V9.7H19.2Zm5.5,6.1H6.6V11.8H27.4v7.626Z" fill="#8964c1"/><g transform="matrix(.64472 0 0 .64472 10.711 10.485)"><path d="m19.153 2.35v0.15a3.2 3.2 0 1 1-6.4 0v-0.15h-10.753v27.919h27.919v-27.919z" fill="#654ff0"/><path d="m8.485 17.4h1.85l1.265 6.723h0.023l1.517-6.723h1.731l1.371 6.81h0.027l1.44-6.81h1.815l-2.358 9.885h-1.837l-1.36-6.728h-0.036l-1.456 6.728h-1.87zm13.124 0h2.917l2.9 9.885h-1.911l-0.63-2.2h-3.323l-0.486 2.2h-1.859zm1.11 2.437-0.807 3.627h2.512l-0.924-3.632z" fill="#fff"/></g></svg>
