<svg xmlns="http://www.w3.org/2000/svg" viewBox="0 0 32 32"><title>folder_type_electron_opened</title><path d="M27.9,6H18.2l-2,4H5V27H30V6ZM28,24H7V12H28Zm.1-14H20.3l1-2H28Z" style="fill:#59919e"/><polygon points="25.9 14 0.3 14 4.1 27 29.7 27 25.9 14" style="fill:#59919e"/><path d="M26.28,27.724A15.616,15.616,0,0,1,18.9,25.48a17.7,17.7,0,0,1-4.225-3.3l.5-.46A17.093,17.093,0,0,0,19.24,24.89c3.543,2.026,7.388,2.7,9.375,1.687a1.389,1.389,0,0,1-.154-.636A1.408,1.408,0,1,1,29.08,27.1,5.671,5.671,0,0,1,26.28,27.724Zm3.59-2.5a.719.719,0,1,0,.729.719A.726.726,0,0,0,29.87,25.222Zm-16.633-4.97c-.935-1.616-1.1-3.115-.449-4.223.871-1.494,3.007-2.055,5.86-1.541l-.121.671c-2.518-.455-4.443,0-5.151,1.213-.517.887-.357,2.144.45,3.539Z" style="fill:#74b1be"/><path d="M13.13,27.341a1.4,1.4,0,0,1-.718-2.6c-.181-2.534,2.442-5.853,6.5-8.173a17.826,17.826,0,0,1,5.05-1.982l.141.666a17.148,17.148,0,0,0-4.853,1.907c-3.7,2.114-6.21,5.155-6.164,7.387a1.4,1.4,0,1,1,.046,2.8Zm0-2.119a.719.719,0,1,0,.729.719A.725.725,0,0,0,13.13,25.222Zm15.519-3.387-.517-.443c1.646-1.926,2.208-3.8,1.5-5.006-.509-.873-1.662-1.365-3.245-1.385l.009-.681c1.832.024,3.19.636,3.824,1.723C31.093,17.536,30.52,19.647,28.649,21.835Z" style="fill:#74b1be"/><path d="M21.51,31c-1.74,0-3.3-1.55-4.275-4.253l.64-.231c.861,2.381,2.22,3.8,3.635,3.8a3.571,3.571,0,0,0,2.815-2.059l.582.354C23.973,30.152,22.767,31,21.51,31Zm4.447-4.766-.648-.205a16.837,16.837,0,0,0,.721-5c0-4.137-1.369-7.8-3.3-8.935a1.4,1.4,0,1,1,.187-.7v.02c2.243,1.18,3.791,5.072,3.791,9.61A17.509,17.509,0,0,1,25.957,26.234ZM21.51,10.681a.719.719,0,1,0,.729.719A.725.725,0,0,0,21.51,10.681Z" style="fill:#74b1be"/><path d="M21.51,22.339a1.32,1.32,0,0,1-1.289-1.033,1.3,1.3,0,0,1,.178-.983,1.322,1.322,0,0,1,2.4.43,1.292,1.292,0,0,1-.177.982,1.316,1.316,0,0,1-.833.575h0A1.333,1.333,0,0,1,21.51,22.339Z" style="fill:#74b1be"/></svg>