<svg viewBox="0 0 32 32" xmlns="http://www.w3.org/2000/svg"><path d="m27.4 5.5h-9.2l-2.1 4.2h-11.8v16.8h25.2v-21zm0 18.7h-20.8v-12.4h20.8zm0-14.5h-8.2l1-2.1h7.1v2.1z" fill="#7b87db"/><path d="m25.7 13.7h-25.2l3.8 12.8h25.2z" fill="#7b87db"/><path d="m29.6 31a1.39 1.39 0 0 0 1.4-1.376v-14.033a1.39 1.39 0 0 0 -1.4-1.376h-13.632l5.471 16.785z" fill="#d9d9d9"/><path d="m25.03 27.035-3.566 3.965-1.297-3.965z" fill="#4352b8"/><path d="m29.673 20.03v-.82h-3.955v-1.326h-1.283v1.325h-2.525v.82h5.023a7.272 7.272 0 0 1 -1.441 2.535c-1.027-1.214-1.031-1.609-1.031-1.609h-1.061s.044.591 1.483 2.278a10.13 10.13 0 0 1 -.822.761l.328 1.024s.494-.425 1.115-1.083c.621.673 1.422 1.483 2.459 2.449l.673-.673c-1.111-1.008-1.925-1.807-2.522-2.449a7.445 7.445 0 0 0 1.786-3.234h1.775z" fill="#617d8b"/><path d="m11.4 10a1.4 1.4 0 0 0 -1.4 1.4v14.24a1.4 1.4 0 0 0 1.4 1.4h13.632l-5.471-17.04z" fill="#4f8bf5"/><path d="m21.242 14.216h8.358a1.39 1.39 0 0 1 1.4 1.375v8.419z" fill="#fff" opacity=".2"/><path d="m13.792 18.856c.458-1.18.908-2.362 1.365-3.542h1.327c.072.182.141.365.212.548.335.865.665 1.732 1 2.6s.659 1.714.989 2.572l.267.692c-.314 0-.629 0-.943 0h-.222q-.249-.758-.494-1.518h-2.944q-.245.76-.493 1.518c-.388 0-.777 0-1.165 0q.55-1.433 1.1-2.866m.886.5h2.288c-.382-1-.76-2.008-1.144-3.011-.384 1.003-.761 2.009-1.143 3.012z" fill="#f2f2f2"/></svg>