<?xml version="1.0" encoding="UTF-8" standalone="no"?>
<!-- Created with Inkscape (http://www.inkscape.org/) -->

<svg
   width="32mm"
   height="32mm"
   viewBox="0 0 32 32"
   version="1.1"
   id="svg1"
   xml:space="preserve"
   inkscape:version="1.4.3 (0d15f75, 2025-12-25)"
   sodipodi:docname="frontend_opened.svg"
   xmlns:inkscape="http://www.inkscape.org/namespaces/inkscape"
   xmlns:sodipodi="http://sodipodi.sourceforge.net/DTD/sodipodi-0.dtd"
   xmlns="http://www.w3.org/2000/svg"
   xmlns:svg="http://www.w3.org/2000/svg"><sodipodi:namedview
     id="namedview1"
     pagecolor="#ffffff"
     bordercolor="#000000"
     borderopacity="0.25"
     inkscape:showpageshadow="2"
     inkscape:pageopacity="0.0"
     inkscape:pagecheckerboard="0"
     inkscape:deskcolor="#d1d1d1"
     inkscape:document-units="mm"
     showgrid="true"
     showguides="true"
     inkscape:zoom="3.5847924"
     inkscape:cx="64.020444"
     inkscape:cy="65.415225"
     inkscape:window-width="1366"
     inkscape:window-height="705"
     inkscape:window-x="1358"
     inkscape:window-y="-8"
     inkscape:window-maximized="1"
     inkscape:current-layer="layer1"><inkscape:grid
       id="grid1"
       units="mm"
       originx="0"
       originy="0"
       spacingx="0.99999997"
       spacingy="0.99999997"
       empcolor="#0099e5"
       empopacity="0.30196078"
       color="#0099e5"
       opacity="0.14901961"
       empspacing="5"
       enabled="true"
       visible="true" /><sodipodi:guide
       position="23.765904,30.007206"
       orientation="0,-1"
       id="guide1"
       inkscape:locked="false" /><sodipodi:guide
       position="2.0666003,23.733598"
       orientation="1,0"
       id="guide2"
       inkscape:locked="false" /><sodipodi:guide
       position="12.916252,1.960487"
       orientation="0,-1"
       id="guide3"
       inkscape:locked="false" /><sodipodi:guide
       position="29.965705,20.412276"
       orientation="1,0"
       id="guide4"
       inkscape:locked="false" /></sodipodi:namedview><defs
     id="defs1" /><g
     inkscape:label="Layer 1"
     inkscape:groupmode="layer"
     id="layer1"><g
       id="g4"
       transform="translate(0.02269352,-0.20876014)"><path
         style="fill:#d2e5f9"
         d="m 13.41444,25.15832 c -0.229688,-0.112072 -0.322284,-0.190418 -0.442405,-0.374326 -0.2007,-0.307273 -0.222314,-0.383037 -0.254052,-0.890496 l -0.02696,-0.431042 -3.1740993,-0.02269 -3.1740994,-0.02269 -0.081172,-0.105095 C 6.2170091,23.254185 6.0800104,22.876456 5.9572124,22.472589 5.8344144,22.068722 5.4637991,20.86032 5.1336228,19.787251 4.8034466,18.714182 4.4926158,17.703501 4.4428878,17.541293 4.3931599,17.379085 4.1446253,16.572581 3.8905888,15.749063 3.1777011,13.438072 3.2233689,13.608839 3.287027,13.492152 3.4010278,13.283184 3.4273223,13.279201 4.7030009,13.277683 l 1.21261,-0.0014 0.030216,-0.578504 c 0.016619,-0.318178 0.030301,-0.9602 0.030405,-1.426716 1.81e-4,-0.814708 0.00433,-0.852912 0.1050038,-0.967196 l 0.1048154,-0.118984 3.182785,0.0046 c 1.7505309,0.0025 3.8279819,-0.0095 4.6165569,-0.02688 l 1.433772,-0.03151 0.694637,-1.3653182 c 0.382051,-0.7509248 0.725582,-1.3959446 0.763402,-1.4333772 0.05639,-0.055816 0.308805,-0.073645 1.403147,-0.099112 3.514186,-0.081778 7.175768,-0.1360808 7.325563,-0.1086413 0.304661,0.055808 0.295098,-0.021164 0.327411,2.6352028 0.01609,1.3226199 0.03899,2.4507029 0.05088,2.5068519 0.02142,0.101122 0.02924,0.102089 0.825497,0.102089 0.933808,0 1.190403,0.05254 1.472671,0.301544 0.09994,0.08817 0.234941,0.266523 0.299991,0.396348 l 0.118274,0.236046 -0.01234,5.601656 -0.01234,5.601657 -0.112027,0.158805 c -0.200974,0.284887 -0.348743,0.418029 -0.58499,0.527083 l -0.23234,0.107251 -7.02084,4.43e-4 -7.020839,4.44e-4 z m 14.294726,-0.784457 0.130378,-0.109484 0.02323,-5.278548 c 0.01278,-2.903202 0.009,-5.348121 -0.0084,-5.433155 -0.01738,-0.08503 -0.08577,-0.207541 -0.151981,-0.272238 -0.119953,-0.11722 -0.123082,-0.11763 -0.897749,-0.11763 h -0.777376 v 0.294924 0.294924 l 0.405137,0.02269 c 0.554341,0.03104 0.570688,0.0498 0.570688,0.654764 0,0.627334 -0.02876,0.66105 -0.563931,0.66105 -0.450023,0 -0.450032,1.1e-5 -0.425993,0.500502 l 0.0141,0.293524 0.482944,0.02575 c 0.422119,0.02251 0.493263,0.0382 0.564877,0.124552 0.128368,0.154792 0.152929,0.768938 0.121002,3.025704 -0.01589,1.123031 -0.02922,2.608468 -0.02962,3.300972 -7.01e-4,1.198086 -0.0052,1.263495 -0.09367,1.349844 -0.09201,0.08985 -0.154893,0.09075 -6.342862,0.09075 -6.187969,0 -6.250847,-9e-4 -6.342861,-0.09075 -0.05112,-0.04991 -0.09294,-0.119188 -0.09294,-0.153951 0,-0.08671 -0.104369,-0.11841 -0.38716,-0.117592 -0.356952,0.001 -0.37307,0.02124 -0.345954,0.433801 0.02143,0.326039 0.03454,0.363201 0.169796,0.481203 l 0.146573,0.127878 h 6.850684 6.850684 z M 23.891912,15.01991 c -0.08275,-0.123319 -0.103042,-0.977028 -0.02781,-1.170233 0.02427,-0.06234 0.02949,-0.241775 0.01162,-0.399966 l -0.03241,-0.286903 -0.434301,-0.0131 c -0.238865,-0.0072 -0.425957,0.003 -0.41576,0.02269 0.0102,0.01968 0.0542,0.117461 0.09778,0.217281 0.04358,0.09982 0.109797,0.232537 0.14714,0.294924 0.124034,0.207216 0.153579,0.292358 0.212558,0.612534 0.04995,0.271158 0.317117,1.114495 0.445596,1.40656 0.02815,0.064 0.04397,-0.0076 0.05367,-0.242991 0.01001,-0.24285 -0.0058,-0.36289 -0.05808,-0.440789 z M 12.844207,13.083405 c 0.136382,-0.254065 0.540166,-0.614837 0.7263,-0.648933 0.494874,-0.09065 0.02295,-0.11094 -2.328614,-0.100108 l -2.547103,0.01173 0.016929,0.408356 c 0.00931,0.224596 0.026228,0.423669 0.037593,0.442386 0.011366,0.01872 0.9195559,0.03403 2.018201,0.03403 h 1.997536 z M 23.726428,9.7484974 c -3.91e-4,-0.2183571 -0.01607,-0.4174307 -0.03485,-0.4423857 -0.02224,-0.029553 -0.847855,-0.040141 -2.367909,-0.030367 L 18.9899,9.2907507 18.733086,9.6486143 c -0.141247,0.1968249 -0.256813,0.3786657 -0.256813,0.4040907 0,0.03022 0.54286,0.05058 1.56829,0.0588 0.86256,0.0069 2.044005,0.01739 2.625434,0.02329 l 1.057143,0.01072 z"
         id="path10" /><path
         style="fill:#a2ccf8"
         d="m 13.46607,25.115466 c -0.458125,-0.223533 -0.653523,-0.576603 -0.699512,-1.263969 l -0.02906,-0.434414 -3.1598138,-0.02269 C 7.8397816,23.381919 6.3953585,23.357383 6.3678502,23.339872 6.2793344,23.283527 6.1815659,22.997513 5.6032389,21.103065 5.2908944,20.079906 4.9654993,19.01818 4.8801387,18.743674 4.7250321,18.244877 4.0226252,15.960002 3.5601096,14.449723 3.2950932,13.58435 3.2865481,13.442661 3.4947137,13.365381 c 0.064843,-0.02407 0.6482178,-0.04377 1.2963878,-0.04377 h 1.178491 L 5.9970595,12.9246 c 0.015107,-0.218357 0.038904,-0.879964 0.052883,-1.470239 0.023186,-0.97907 0.033171,-1.080079 0.113811,-1.151337 0.048617,-0.04296 0.1413638,-0.07186 0.206104,-0.06422 0.2213481,0.02612 7.2021605,0.0046 8.1478765,-0.02514 l 0.94382,-0.02966 0.708638,-1.3917776 C 16.706806,7.7383066 16.906338,7.387804 16.99215,7.3483559 17.071889,7.3116994 18.377841,7.279112 21.399109,7.238389 l 4.293639,-0.057873 0.08596,0.1036502 c 0.07658,0.092338 0.08664,0.2009002 0.0922,0.9947384 0.0034,0.4900985 0.01912,1.6159202 0.03485,2.5018264 l 0.02861,1.610738 0.906123,0.02274 c 0.826892,0.02075 0.925245,0.03193 1.124804,0.127858 0.25522,0.122678 0.479357,0.355989 0.60194,0.626578 0.08363,0.184616 0.08648,0.402903 0.07461,5.71929 -0.01158,5.187555 -0.01739,5.536376 -0.09453,5.674198 -0.143592,0.256565 -0.374548,0.47676 -0.614492,0.585864 l -0.232677,0.105799 -6.974373,4.43e-4 -6.974372,4.43e-4 z m 14.14161,-0.606703 c 0.08807,-0.03593 0.202328,-0.132916 0.253907,-0.215521 0.09265,-0.148384 0.09378,-0.214133 0.09378,-5.458822 0,-5.182021 -0.0022,-5.312087 -0.09054,-5.453625 -0.171572,-0.274755 -0.23084,-0.289627 -1.099259,-0.275829 l -0.784734,0.01247 v 0.340297 0.340297 l 0.399722,0.02269 c 0.541532,0.03073 0.552869,0.04277 0.552869,0.586731 0,0.591042 -0.01545,0.60923 -0.542109,0.638337 l -0.410482,0.02269 v 0.453729 0.453729 l 0.503433,0.02269 c 0.430845,0.01942 0.513034,0.03554 0.570025,0.111822 0.05676,0.07598 0.06476,0.632912 0.05418,3.772544 -0.01196,3.549312 -0.01563,3.686885 -0.100932,3.778904 l -0.08852,0.0955 h -6.17608 c -3.939734,0 -6.206853,-0.01608 -6.26107,-0.04442 -0.04675,-0.02443 -0.107315,-0.106938 -0.134596,-0.183355 l -0.0496,-0.138939 -0.385112,0.01321 -0.385112,0.01321 -0.0133,0.3888 c -0.01175,0.343328 -0.0013,0.403653 0.08899,0.515787 0.211448,0.262479 -0.179221,0.24872 7.116701,0.250646 5.753026,0.0015 6.750912,-0.0077 6.887841,-0.06355 z m -3.601733,-8.988818 c 0,-0.307032 -0.0215,-0.473887 -0.07377,-0.572592 -0.06012,-0.113515 -0.06828,-0.228569 -0.04408,-0.621624 0.03754,-0.609876 0.03088,-1.152561 -0.01469,-1.19706 -0.01934,-0.01888 -2.28016,-0.02913 -5.024049,-0.02278 -4.246901,0.0098 -4.992141,0.02107 -5.010752,0.0756 -0.01877,0.05498 0.616328,0.06019 4.485591,0.03679 4.996514,-0.03021 4.649034,-0.05021 4.753836,0.273629 0.03026,0.0935 0.102634,0.24147 0.160832,0.328813 0.05824,0.0874 0.117435,0.263825 0.131658,0.39237 0.02087,0.188604 0.450256,1.57722 0.527569,1.706127 0.07051,0.117567 0.107861,-0.02069 0.107861,-0.399267 z M 12.890675,13.132626 c 0.126597,-0.229684 0.382803,-0.490187 0.587134,-0.596981 l 0.189041,-0.0988 5.099846,-0.01231 c 2.804916,-0.0068 5.099847,-0.02892 5.099847,-0.04922 0,-0.03496 -8.37174,-0.09728 -13.06889,-0.09728 H 8.61764 l 0.032769,0.465073 c 0.018023,0.255789 0.041843,0.480385 0.052934,0.499102 0.011091,0.01872 0.9399674,0.03403 2.06417,0.03403 h 2.044004 z M 23.796704,9.7279456 c -7.5e-5,-0.242138 -0.02099,-0.457515 -0.04647,-0.4786155 -0.02548,-0.0211 -1.117117,-0.030264 -2.425857,-0.020363 l -2.379526,0.018001 -0.280758,0.400259 c -0.154417,0.2201425 -0.280758,0.4220429 -0.280758,0.4486679 0,0.0481 1.607649,0.07567 4.275042,0.07331 l 1.138462,-10e-4 z"
         id="path9" /><path
         style="fill:#84baf2"
         d="m 13.512839,25.109895 c -0.472402,-0.223606 -0.655625,-0.554152 -0.699404,-1.26177 L 12.783961,23.37171 9.6196496,23.349024 C 6.1760419,23.324335 6.3471782,23.338976 6.2625129,23.061814 6.2383476,22.982706 6.1751348,22.775056 6.12204,22.600371 6.0689451,22.425685 5.7556005,21.404795 5.4257187,20.331726 5.0958369,19.258657 4.6015267,17.64565 4.3272518,16.747267 4.0529768,15.848884 3.7916564,15.001545 3.7465397,14.864292 3.4791945,14.05098 3.3608309,13.579345 3.4063548,13.50878 3.4477498,13.44462 3.617854,13.4321 4.7169247,13.41236 5.6897119,13.39489 5.988577,13.37598 6.0175774,13.3301 c 0.049837,-0.07886 0.098073,-1.098322 0.098958,-2.091466 3.914e-4,-0.439007 0.016329,-0.82217 0.035417,-0.851473 0.026057,-0.04 1.1751889,-0.05768 4.6112226,-0.07095 3.181642,-0.01229 4.604894,-0.03274 4.669621,-0.06711 0.05685,-0.03019 0.364466,-0.5891325 0.789953,-1.4353555 0.630095,-1.2531526 0.710204,-1.390178 0.836253,-1.4303973 0.08125,-0.025926 1.897479,-0.067888 4.353955,-0.1005938 3.344178,-0.044525 4.22883,-0.044542 4.283694,-8.22e-5 0.07291,0.059087 0.07318,0.065254 0.158083,3.7249298 l 0.03316,1.429247 0.952591,0.02269 c 0.938002,0.02234 0.955948,0.02461 1.171739,0.148474 0.222824,0.127897 0.383535,0.30256 0.518852,0.563896 0.06806,0.13144 0.07509,0.667086 0.07417,5.648926 -9.86e-4,5.320089 -0.004,5.510089 -0.08981,5.694697 -0.123178,0.264936 -0.449258,0.570298 -0.681277,0.63799 -0.147794,0.04312 -1.774176,0.05529 -7.156049,0.05354 l -6.964786,-0.0023 z m 14.193159,-0.590776 c 0.31131,-0.166433 0.296184,0.124012 0.296184,-5.687074 0,-5.681027 0.01228,-5.407119 -0.2532,-5.646551 -0.122541,-0.110516 -0.146375,-0.113796 -0.927249,-0.127607 -0.661153,-0.01169 -0.8114,-0.0025 -0.858162,0.05252 -0.03641,0.04283 -0.05177,0.185898 -0.04295,0.399845 l 0.01374,0.33315 0.415791,0.01324 c 0.228685,0.0073 0.443018,0.0353 0.476296,0.06227 0.07203,0.05837 0.08465,0.883072 0.01516,0.990751 -0.03195,0.04951 -0.161581,0.07424 -0.475584,0.09075 l -0.431662,0.02269 -0.01336,0.447032 c -0.0087,0.290641 0.0055,0.469218 0.04054,0.510446 0.03945,0.04641 0.176057,0.06341 0.509567,0.06341 0.352288,0 0.472237,0.01618 0.528691,0.0713 0.06518,0.06364 0.07302,0.464695 0.07302,3.733169 0,3.240842 -0.0083,3.673462 -0.07234,3.762709 l -0.07234,0.100842 h -6.173788 c -3.395584,0 -6.205854,-0.01201 -6.245044,-0.0267 -0.03919,-0.01468 -0.0948,-0.09635 -0.123573,-0.181491 l -0.05232,-0.154793 h -0.382079 c -0.235216,0 -0.403513,0.02093 -0.437841,0.05445 -0.08371,0.08174 -0.07126,0.693979 0.01785,0.877329 0.04663,0.09595 0.144557,0.185877 0.26719,0.245357 0.193418,0.09381 0.199305,0.09388 6.977887,0.08226 6.302233,-0.01081 6.794628,-0.01715 6.929567,-0.08929 z m -3.636404,-8.622594 c 0.01541,-0.05615 0.02831,-0.257573 0.02865,-0.44761 5.09e-4,-0.277442 -0.01768,-0.368252 -0.0923,-0.460886 -0.07958,-0.09878 -0.09294,-0.184068 -0.09294,-0.593288 0,-0.300165 0.01911,-0.489458 0.05138,-0.508934 0.06249,-0.03771 0.01059,-0.693411 -0.06172,-0.779715 -0.03748,-0.04474 -1.094117,-0.05658 -5.00227,-0.05605 -5.016619,6.77e-4 -5.218721,0.0069 -5.158645,0.158136 0.01184,0.02982 1.572677,0.04537 4.553013,0.04537 3.673843,0 4.548959,0.0113 4.608547,0.05953 0.04046,0.03274 0.10608,0.152735 0.145834,0.266657 0.03975,0.113922 0.105658,0.230962 0.146453,0.26009 0.04587,0.03275 0.0998,0.199344 0.141336,0.436622 0.05372,0.306874 0.430889,1.542337 0.515363,1.688134 0.04348,0.07504 0.190663,0.02893 0.217283,-0.06806 z M 12.81894,13.276958 c 0.06447,-0.04952 0.129906,-0.139404 0.145418,-0.199752 0.04404,-0.171328 0.458486,-0.507578 0.698293,-0.56654 0.147877,-0.03636 1.650854,-0.05114 5.200251,-0.05114 4.272691,0 5.000212,-0.0094 5.047419,-0.06489 0.04383,-0.05157 0.03784,-0.07387 -0.02916,-0.108599 -0.112319,-0.05822 -15.1632673,-0.119991 -15.2482151,-0.06258 -0.097102,0.06562 -0.024088,1.08638 0.079642,1.113421 0.041326,0.01077 0.9557887,0.02196 2.0321391,0.02485 1.885783,0.0051 1.961265,0.002 2.074214,-0.08476 z M 23.819803,10.21389 c 0.04043,-0.04756 0.05195,-0.204465 0.03869,-0.5267651 -0.02281,-0.5544937 -0.06456,-0.6085721 -0.433399,-0.5613747 -0.127786,0.016352 -1.191523,0.038886 -2.363859,0.050076 -2.453316,0.023416 -2.118426,-0.052214 -2.544764,0.5746965 -0.187569,0.2758133 -0.228196,0.3657043 -0.184559,0.4083563 0.04057,0.03966 0.505654,0.06124 1.69168,0.07852 3.519942,0.05128 3.733761,0.04996 3.796207,-0.02351 z"
         id="path8" /><path
         style="fill:#78bafd"
         d="m 13.603518,25.101818 c -0.23898,-0.08445 -0.493359,-0.317313 -0.608972,-0.557475 -0.07798,-0.16199 -0.110446,-0.331488 -0.128699,-0.671948 -0.01343,-0.250422 -0.04513,-0.480834 -0.07046,-0.512028 -0.03602,-0.04437 -0.730965,-0.05672 -3.1929667,-0.05672 -2.9388846,0 -3.1516432,-0.0052 -3.2183366,-0.0794 -0.039273,-0.04367 -0.1594478,-0.37546 -0.26705,-0.737308 C 6.0094315,22.12509 5.8724851,21.675898 5.8127085,21.488735 5.7529319,21.301572 5.4920012,20.454233 5.2328626,19.60576 4.9737239,18.757286 4.7011972,17.869112 4.6272477,17.632038 4.4960014,17.211278 3.6294459,14.389182 3.4905452,13.930159 c -0.08442,-0.278983 -0.087838,-0.391347 -0.014095,-0.463353 0.04059,-0.03963 0.393851,-0.05445 1.2983574,-0.05445 0.7940509,0 1.253164,-0.0167 1.2718723,-0.04625 0.016102,-0.02544 0.041583,-0.692276 0.056624,-1.481858 0.025422,-1.334527 0.033622,-1.44173 0.1164625,-1.522619 0.052866,-0.05162 0.1202336,-0.07536 0.1656175,-0.05835 0.099642,0.03733 5.7879161,0.03285 7.6697021,-0.006 l 1.456998,-0.03012 0.718447,-1.4106452 c 0.410645,-0.8062868 0.75197,-1.4227088 0.796693,-1.4388035 0.04304,-0.015487 1.997739,-0.054665 4.343786,-0.087061 3.677946,-0.050789 4.274416,-0.050035 4.329979,0.00547 0.05254,0.052485 0.07041,0.5252816 0.09673,2.5598842 0.0199,1.5378995 0.05004,2.5172735 0.07854,2.5522255 0.03393,0.04161 0.270619,0.05678 0.888593,0.05697 0.463292,1.39e-4 0.922953,0.02211 1.021468,0.04882 0.214408,0.05813 0.561542,0.358398 0.682924,0.590721 0.08417,0.161104 0.08768,0.376542 0.09239,5.680345 0.0048,5.419776 0.0033,5.515843 -0.08757,5.687689 -0.121327,0.229335 -0.454476,0.535352 -0.653075,0.599886 -0.235452,0.07651 -13.999979,0.06606 -14.217475,-0.01079 z m 14.081919,-0.535495 c 0.09836,-0.04357 0.207072,-0.140075 0.255573,-0.226864 0.07999,-0.143143 0.08505,-0.428621 0.09677,-5.462493 l 0.01236,-5.311457 -0.106457,-0.196571 c -0.181899,-0.33587 -0.300256,-0.370644 -1.209532,-0.355361 -0.632516,0.01063 -0.788435,0.02599 -0.824093,0.08117 -0.02419,0.03743 -0.0443,0.21537 -0.04469,0.395416 -8.64e-4,0.397511 0.02857,0.421296 0.52132,0.421296 0.204253,0 0.364756,0.02196 0.398032,0.05445 0.03485,0.03403 0.05576,0.202954 0.05576,0.450488 0,0.511635 -0.02533,0.538641 -0.505172,0.538641 -0.217366,0 -0.381141,0.02149 -0.414891,0.05445 -0.03613,0.03528 -0.05576,0.218443 -0.05576,0.520192 0,0.564353 -0.0052,0.559683 0.618571,0.559683 0.351882,0 0.451443,0.01489 0.502584,0.07518 0.05315,0.06265 0.06134,0.67684 0.04916,3.686548 -0.008,1.986254 -0.02452,3.645215 -0.03662,3.686581 -0.0121,0.04137 -0.05781,0.09241 -0.101558,0.113432 -0.103807,0.04988 -12.047657,0.07451 -12.243718,0.02525 -0.09892,-0.02485 -0.171978,-0.08299 -0.21507,-0.17114 -0.09191,-0.188025 -0.123505,-0.200087 -0.526136,-0.200867 -0.472043,-9.13e-4 -0.504285,0.04092 -0.466948,0.605785 0.02123,0.321172 0.04661,0.425024 0.125846,0.514974 0.211979,0.240633 0.03292,0.23506 7.252124,0.225712 6.141649,-0.008 6.705432,-0.01489 6.862538,-0.08449 z M 24.08883,15.534277 c 0.01045,-0.385949 -0.0022,-0.510011 -0.06114,-0.597785 -0.06134,-0.09141 -0.06958,-0.196553 -0.04716,-0.601926 0.03382,-0.611576 0.03486,-1.050561 0.0028,-1.181114 -0.01706,-0.06948 -0.07068,-0.108217 -0.175233,-0.126627 -0.08286,-0.01459 -2.357635,-0.02059 -5.055065,-0.01333 -4.645348,0.0125 -4.911213,0.01754 -5.03303,0.09549 -0.07074,0.04526 -0.120291,0.106515 -0.110121,0.136118 0.01409,0.04102 1.112277,0.05427 4.614819,0.0557 2.527981,10e-4 4.620787,0.0061 4.65068,0.01134 0.02989,0.0052 0.08868,0.110403 0.130647,0.233766 0.04196,0.123364 0.113839,0.271393 0.159722,0.328954 0.04588,0.05756 0.116458,0.278207 0.156832,0.490326 0.0661,0.347277 0.428322,1.487411 0.517124,1.62771 0.01959,0.03095 0.0807,0.05 0.135788,0.04234 0.0945,-0.01315 0.100913,-0.04147 0.11335,-0.500961 z M 12.852028,13.31027 c 0.02667,-0.03119 0.116368,-0.15821 0.199321,-0.282259 0.08999,-0.134578 0.243052,-0.280973 0.379504,-0.362983 l 0.228682,-0.137441 5.121545,-0.01193 c 4.541202,-0.01058 5.128263,-0.01983 5.180831,-0.08168 0.168579,-0.198339 0.371257,-0.192869 -7.739329,-0.208874 l -7.6671955,-0.01513 0.012477,0.476416 c 0.00686,0.262028 0.022944,0.522355 0.035736,0.578504 l 0.023259,0.102089 h 2.0883365 c 1.613824,0 2.099355,-0.01289 2.136833,-0.05672 z m 11.005221,-3.083089 c 0.07206,-0.07036 0.06737,-0.6788451 -0.0071,-0.9200507 l -0.05571,-0.180473 -2.415132,0.014429 c -2.170297,0.012966 -2.424071,0.022062 -2.50331,0.089727 -0.0485,0.041414 -0.210294,0.2572738 -0.359546,0.4796881 -0.207279,0.3088856 -0.259303,0.4185836 -0.220285,0.4644896 0.04021,0.04731 0.393623,0.06277 1.660646,0.07263 0.885259,0.0069 2.112461,0.01736 2.727114,0.02327 0.819951,0.0079 1.132401,-0.0038 1.173313,-0.04371 z"
         id="path7" /><path
         style="fill:#4b97e6"
         d="M 13.603518,25.101818 C 13.365484,25.017707 13.110304,24.784806 12.99598,24.547323 12.802836,24.146109 12.78687,23.6538 12.796437,18.394668 l 0.009,-4.931669 0.145015,-0.263528 c 0.182534,-0.33171 0.248099,-0.403033 0.507264,-0.551811 l 0.209162,-0.120073 5.157931,-0.03366 c 7.011353,-0.04575 6.842161,-0.04569 7.969237,-0.0029 1.104652,0.04192 1.145902,0.05223 1.447,0.361794 0.342008,0.351621 0.315118,-0.147151 0.320628,5.947239 0.0055,6.117353 0.02951,5.663165 -0.317777,6.017668 -0.09459,0.09656 -0.255628,0.213511 -0.357857,0.259898 -0.17864,0.08106 -0.457046,0.08424 -7.156049,0.08188 -5.353416,-0.0019 -7.006424,-0.01526 -7.126445,-0.05767 z m 14.059046,-0.525312 c 0.137911,-0.06114 0.222685,-0.139784 0.290424,-0.269434 0.09497,-0.181765 0.09566,-0.221558 0.0949,-5.482187 l -7.64e-4,-5.299094 -0.103789,-0.176768 c -0.187847,-0.319934 -0.311437,-0.352553 -1.219016,-0.321729 -0.884939,0.03006 -0.86874,0.03006 -7.783365,-0.0012 -4.698454,-0.02125 -5.004818,-0.01786 -5.155569,0.05707 -0.09798,0.0487 -0.178959,0.132568 -0.208345,0.215782 -0.03112,0.08812 -0.06044,1.904196 -0.08316,5.149824 -0.0193,2.757538 -0.04055,5.18818 -0.04723,5.401427 -0.0144,0.45973 0.05011,0.593055 0.351606,0.726719 0.187404,0.08308 0.418467,0.08595 6.931704,0.08595 6.523996,0 6.74402,-0.0027 6.932601,-0.08634 z M 14.531439,23.625199 c -0.18227,-0.112697 -0.18938,-0.258891 -0.190106,-3.908678 -5.64e-4,-2.838455 0.01113,-3.534863 0.06045,-3.600723 0.05835,-0.07792 0.320953,-0.08131 5.750397,-0.07408 5.824882,0.0078 6.71485,0.02117 6.816095,0.102713 0.04559,0.03672 0.05809,0.835264 0.05809,3.713191 0,3.272601 -0.0078,3.674067 -0.07302,3.737709 -0.06565,0.06411 -0.692736,0.07123 -6.215075,0.07061 -3.468685,-3.92e-4 -6.170245,-0.01813 -6.206822,-0.04074 z m 7.618206,-8.711132 c -0.02688,-0.04905 -0.04888,-0.274285 -0.04888,-0.500521 0,-0.55298 0.0387,-0.592831 0.5757,-0.592831 0.566125,0 0.587492,0.02344 0.599659,0.657907 l 0.0096,0.499102 -0.543584,0.01276 c -0.500174,0.01174 -0.547488,0.0056 -0.592466,-0.07642 z m 1.857936,-0.0014 c -0.05142,-0.09382 -0.06696,-0.855033 -0.0199,-0.974789 0.02329,-0.05925 0.114862,-0.07177 0.525087,-0.07177 0.324506,0 0.516226,0.01889 0.552642,0.05445 0.03601,0.03516 0.05576,0.216782 0.05576,0.512714 0,0.295932 -0.01975,0.477554 -0.05576,0.512714 -0.03613,0.03528 -0.223714,0.05445 -0.532745,0.05445 -0.424022,0 -0.482325,-0.0097 -0.525087,-0.08776 z m 1.75215,0.03205 c -0.06456,-0.04715 -0.08013,-0.142216 -0.08503,-0.519153 -0.0033,-0.25379 0.0066,-0.481299 0.02194,-0.505575 0.03576,-0.0565 1.006282,-0.01332 1.085762,0.04831 0.03858,0.02991 0.05808,0.17922 0.05808,0.444598 0,0.518098 -0.02609,0.546006 -0.503901,0.539001 -0.195665,-0.0029 -0.38772,0.0073 -0.426789,0.02266 -0.03907,0.01533 -0.106598,0.0019 -0.150064,-0.02984 z"
         id="path6" /><path
         style="fill:#2a8bf1"
         d="m 13.779142,25.076347 c -0.342029,-0.06529 -0.649991,-0.331854 -0.789923,-0.683747 -0.0517,-0.130008 -0.06538,-1.135887 -0.07543,-5.547019 l -0.01228,-5.388214 0.121226,-0.249999 c 0.161969,-0.334024 0.465003,-0.569604 0.806751,-0.627174 0.08945,-0.01507 3.20512,-0.03008 6.92371,-0.03337 7.625722,-0.0067 7.075338,-0.03184 7.425051,0.338616 0.365605,0.387289 0.33508,-0.152511 0.33508,5.925499 0,4.639761 -0.0099,5.47167 -0.06692,5.604846 -0.114008,0.26643 -0.466139,0.595227 -0.698711,0.652409 -0.230205,0.0566 -13.673635,0.06445 -13.968555,0.0082 z m 13.9907,-0.480832 C 28.117121,24.399049 28.09391,24.809043 28.095689,18.84 l 0.0016,-5.343466 -0.103865,-0.180448 c -0.05713,-0.09925 -0.167393,-0.217139 -0.245039,-0.261983 -0.133937,-0.07736 -0.493715,-0.08204 -7.018909,-0.0913 l -6.877735,-0.0098 -0.157968,0.104886 c -0.0941,0.06248 -0.181887,0.172918 -0.21713,0.273157 -0.04639,0.131931 -0.06127,1.334301 -0.06894,5.567532 -0.011,6.070741 -0.04217,5.552096 0.344096,5.723981 0.188059,0.08368 0.39848,0.08595 7.02464,0.0756 6.767532,-0.01057 6.83228,-0.01152 6.993411,-0.102676 z M 14.636876,23.575847 c -0.0543,-0.02101 -0.122263,-0.104108 -0.151021,-0.184658 -0.08252,-0.231148 -0.07335,-7.137528 0.0096,-7.204724 0.04416,-0.03578 1.470028,-0.05226 4.983677,-0.0576 2.707002,-0.0041 5.01592,-0.0034 5.130928,0.0015 0.115007,0.0049 0.662172,0.01305 1.215921,0.01801 0.553748,0.005 1.022795,0.02463 1.042326,0.04371 0.01953,0.01908 0.05049,0.141585 0.06881,0.272238 0.03591,0.256211 0.0071,6.674909 -0.03109,6.918159 -0.01267,0.0808 -0.06099,0.16674 -0.107368,0.190976 -0.105371,0.05506 -12.019571,0.05738 -12.161753,0.0024 z m 7.73861,-8.712916 c -0.133052,-0.03014 -0.17182,-0.165236 -0.155569,-0.5421 0.01673,-0.387905 0.06927,-0.426691 0.529285,-0.390693 0.190518,0.01491 0.362115,0.04246 0.381328,0.06122 0.05878,0.05739 0.09515,0.753028 0.04327,0.827565 -0.03446,0.04951 -0.135224,0.06806 -0.369772,0.06806 -0.177322,0 -0.370167,-0.01082 -0.428545,-0.02405 z m 1.702585,-0.05536 c -0.06071,-0.192404 -0.07218,-0.345602 -0.04407,-0.58824 l 0.03179,-0.274345 0.415191,0.02312 c 0.228355,0.01271 0.439678,0.04718 0.469607,0.07659 0.07015,0.06894 0.05551,0.668245 -0.01845,0.755262 -0.07284,0.08569 -0.827309,0.09242 -0.854065,0.0076 z m 1.763132,-0.0076 c -0.008,-0.02703 -0.01126,-0.212487 -0.0072,-0.412128 l 0.0074,-0.362983 0.348508,-0.02516 c 0.539229,-0.03893 0.557615,-0.02551 0.557615,0.407029 0,0.198786 -0.01951,0.373204 -0.04336,0.387597 -0.08511,0.05136 -0.847929,0.05635 -0.862983,0.0056 z"
         id="path5" /><path
         style="fill:#1a7ce4"
         d="m 13.67782,25.033061 c -0.209645,-0.04558 -0.58187,-0.390512 -0.636948,-0.590235 -0.06434,-0.233319 -0.06501,-0.29255 -0.06823,-6.039448 l -0.0028,-5.013706 0.09952,-0.207815 c 0.09222,-0.192583 0.322206,-0.412856 0.555694,-0.532235 0.06942,-0.03549 2.10192,-0.05305 7.03988,-0.0608 6.923338,-0.01087 6.94286,-0.01065 7.154824,0.08263 0.261646,0.115135 0.486774,0.337561 0.604467,0.597216 0.0862,0.190173 0.08911,0.371989 0.08911,5.565336 v 5.368739 l -0.124541,0.234391 c -0.146834,0.276348 -0.467669,0.56796 -0.667897,0.607062 -0.185526,0.03623 -13.875157,0.02538 -14.04307,-0.01113 z m 14.177472,-0.413596 c 0.302804,-0.221381 0.286293,0.110642 0.286293,-5.757258 v -5.337819 l -0.104553,-0.188777 c -0.0575,-0.103827 -0.162405,-0.232872 -0.233113,-0.286767 -0.12767,-0.09731 -0.141536,-0.09789 -1.998118,-0.08276 -1.028256,0.0084 -4.155597,0.0073 -6.949647,-0.0024 -5.004148,-0.0174 -5.081949,-0.01633 -5.204399,0.07214 -0.264484,0.191077 -0.252176,-0.06597 -0.251343,5.249498 4.23e-4,2.697712 -0.01352,5.051838 -0.03099,5.23139 -0.01747,0.179553 -0.01933,0.453368 -0.0041,0.60848 0.02564,0.261871 0.04205,0.294528 0.229646,0.457083 l 0.202032,0.175063 6.951592,-0.0122 6.951593,-0.0122 z"
         id="path4" /></g></g></svg>
