<svg viewBox="0 0 32 32" xmlns="http://www.w3.org/2000/svg"><path d="m27.4 5.5h-9.2l-2.1 4.2h-11.8v16.8h25.2v-21zm0 18.7h-20.8v-12.4h20.8zm0-14.5h-8.2l1-2.1h7.1v2.1z" fill="#dd7ab9"/><path d="m25.7 13.7h-25.2l3.8 12.8h25.2z" fill="#dd7ab9"/><path d="m10.454 16.071h16.576v11.101h-16.576z" fill="#fff"/><path d="m26.944 15.6h-16.387a.549.549 0 0 0 -.557.54v11.811a.548.548 0 0 0 .557.54h6.275v.834s.02.749-.476.9c-.1.032-.429.1-.429.1a.338.338 0 1 0 0 .676h5.667a.338.338 0 1 0 0-.676 3.139 3.139 0 0 1 -.469-.107.792.792 0 0 1 -.421-.639c-.029-.274-.014-1.09-.014-1.09h6.255a.549.549 0 0 0 .557-.54v-11.813a.55.55 0 0 0 -.558-.536zm-.292 10.34h-15.8v-9.489h15.8z" fill="#eec06e"/><path d="m18.54 22.132h10.688v8.848h-10.688z" fill="#fff"/><path d="m29.491 28.92v-6.811a.351.351 0 0 0 -.357-.346h-10.67a.351.351 0 0 0 -.356.346v6.806l-1.364 1.54c0 .22.172.527.383.527h13.345c.212 0 .384-.307.384-.527zm-4.956 1.88h-1.471c-.126 0-.227-.217-.227-.327v-.012h1.922v.012c.003.11-.099.327-.224.327zm4.385-2.323h-10.24v-6.126h10.24z" fill="#f16d6f"/><path d="m23.926 21.534h6.795v9.223h-6.795z" fill="#fff"/><path d="m30.5 21.231h-6.261a.451.451 0 0 0 -.458.444v8.886a.451.451 0 0 0 .458.443h6.261a.451.451 0 0 0 .458-.443v-8.887a.451.451 0 0 0 -.458-.443zm-3.131 9.527a.343.343 0 1 1 .343-.343.343.343 0 0 1 -.341.342zm3.047-.919h-6.093v-8.046h6.095z" fill="#489cd6"/><path d="m27.911 25.169h2.946v5.735h-2.946z" fill="#fff"/><path d="m30.726 25.127h-2.667a.27.27 0 0 0 -.274.266v5.325a.27.27 0 0 0 .274.266h2.667a.27.27 0 0 0 .274-.266v-5.325a.27.27 0 0 0 -.274-.266zm-1.642.123h.616v.091h-.617zm.309 5.585a.206.206 0 1 1 .205-.206.206.206 0 0 1 -.206.207zm1.333-.586h-2.666v-4.736h2.665z" fill="#d488b9"/></svg>