<svg version="1.1" id="prefix__Layer_1" xmlns="http://www.w3.org/2000/svg" x="0" y="0" viewBox="0 0 32 32" xml:space="preserve"><style>.prefix__st2{fill:#fc6d26}</style><path d="M27.5 5.5h-9.3l-2.1 4.2H4.4v16.8h25.2v-21h-2.1zm0 4.2h-8.2l1.1-2.1h7.1v2.1z" fill="#bf7855"/><g id="prefix__LOGO"><path d="M30 19.5l-2.7-7.1c-.1-.1-.2-.3-.3-.3-.3-.1-.6-.1-.8.1l-.3.3-1.7 5.5h-7.4L15 12.5c-.1-.1-.1-.3-.3-.3-.3-.2-.6-.2-.8-.1-.1.1-.3.2-.3.3l-2.7 7v.1c-.8 2.1-.1 4.4 1.6 5.8l4.1 3.1 2 1.5 1.3.9c.3.2.7.2 1 0l1.3-.9 2-1.5 4.1-3.1c1.9-1.4 2.5-3.8 1.7-5.8z" fill="#e24329"/><path class="prefix__st2" d="M30 19.5c-1.3.2-2.6.8-3.6 1.6l-5.9 4.5c2 1.5 3.8 2.8 3.8 2.8l4.1-3.1c1.8-1.4 2.4-3.8 1.6-5.8z"/><path d="M16.7 28.3l2 1.5 1.3.9c.3.2.7.2 1 0l1.3-.9 2-1.5s-1.8-1.3-3.8-2.8c-2 1.5-3.8 2.8-3.8 2.8z" fill="#fca326"/><path class="prefix__st2" d="M14.6 21c-1.1-.8-2.3-1.4-3.6-1.6v.1c-.8 2.1-.1 4.4 1.6 5.8l4.1 3.1s1.8-1.3 3.8-2.8L14.6 21z"/></g></svg>