<svg xmlns="http://www.w3.org/2000/svg" viewBox="0 0 32 32"><title>folder_type_redis</title><path d="M27.5,5.5H18.2L16.1,9.7H4.4V26.5H29.6V5.5Zm0,4.2H19.3l1.1-2.1h7.1Z" style="fill:#bf5e55"/><path d="M30.177,26.879c-1.121.584-6.926,2.971-8.162,3.615a2.759,2.759,0,0,1-2.9.171c-.976-.467-7.154-2.962-8.267-3.494-.556-.266-.849-.49-.849-.7V24.347s8.043-1.751,9.341-2.217a3.294,3.294,0,0,1,2.854-.078c1.105.4,7.712,1.6,8.8,2,0,0,0,1.9,0,2.093s-.252.44-.822.737Z" style="fill:#a41e11"/><path d="M30.177,24.756c-1.121.584-6.926,2.971-8.162,3.615a2.759,2.759,0,0,1-2.9.171c-.976-.466-7.154-2.962-8.267-3.494s-1.136-.9-.043-1.326,7.237-2.839,8.536-3.3A3.294,3.294,0,0,1,22.2,20.34c1.105.4,6.876,2.7,7.968,3.1s1.134.73.014,1.314Z" style="fill:#d82c20"/><path d="M30.177,23.418c-1.121.584-6.926,2.971-8.162,3.616a2.76,2.76,0,0,1-2.9.171c-.976-.466-7.154-2.962-8.267-3.494-.556-.266-.849-.49-.849-.7V20.886s8.043-1.751,9.341-2.217a3.294,3.294,0,0,1,2.854-.078c1.105.4,7.712,1.6,8.8,2,0,0,0,1.9,0,2.093S30.747,23.121,30.177,23.418Z" style="fill:#a41e11"/><path d="M30.177,21.295c-1.121.584-6.926,2.971-8.162,3.616a2.76,2.76,0,0,1-2.9.171c-.976-.466-7.154-2.962-8.267-3.494s-1.136-.9-.043-1.326,7.237-2.839,8.536-3.3a3.294,3.294,0,0,1,2.854-.078c1.105.4,6.876,2.7,7.968,3.1s1.134.73.014,1.314Z" style="fill:#d82c20"/><path d="M30.177,19.828c-1.121.584-6.926,2.971-8.162,3.616a2.76,2.76,0,0,1-2.9.171c-.976-.466-7.154-2.962-8.267-3.494-.556-.266-.849-.49-.849-.7V17.3s8.043-1.751,9.341-2.217A3.294,3.294,0,0,1,22.2,15c1.105.4,7.712,1.6,8.8,2,0,0,0,1.9,0,2.093s-.252.44-.822.737Z" style="fill:#a41e11"/><path d="M30.177,17.7c-1.121.584-6.926,2.971-8.162,3.616a2.76,2.76,0,0,1-2.9.171c-.976-.467-7.154-2.962-8.267-3.494s-1.136-.9-.043-1.326,7.237-2.838,8.536-3.3a3.293,3.293,0,0,1,2.854-.078c1.105.4,6.876,2.7,7.968,3.1s1.134.73.014,1.314Z" style="fill:#d82c20"/><polygon points="23.252 15.661 21.432 15.849 21.025 16.83 20.367 15.736 18.266 15.547 19.833 14.982 19.363 14.114 20.831 14.688 22.215 14.235 21.841 15.132 23.252 15.661" style="fill:#fff"/><polygon points="20.916 20.416 17.52 19.007 22.386 18.26 20.916 20.416" style="fill:#fff"/><ellipse cx="16.208" cy="17.213" rx="2.601" ry="1.008" style="fill:#fff"/><polygon points="25.402 15.928 28.282 17.067 25.404 18.204 25.402 15.928" style="fill:#7a0c00"/><polygon points="22.216 17.189 25.402 15.928 25.404 18.204 25.092 18.326 22.216 17.189" style="fill:#ad2115"/></svg>