<svg viewBox="0 0 32 32" xmlns="http://www.w3.org/2000/svg"><path d="m27.5 5.5h-9.3l-2.1 4.2h-11.7v16.8h25.2v-21zm0 4.2h-8.2l1.1-2.1h7.1z" fill="#a4b100"/><path d="m31.239 18.461h-7.939a3.458 3.458 0 1 0 -1.874 4.612 3.965 3.965 0 0 0 2.018-1.729h7.789a8.333 8.333 0 0 1 .006-2.883zm-11.108 3.026a1.585 1.585 0 1 1 1.585-1.587 1.584 1.584 0 0 1 -1.585 1.587z" fill="#fff"/><path d="m25.239 13.951a7.909 7.909 0 1 0 .772 10.965" fill="none" stroke="#fff" stroke-miterlimit="10" stroke-width="2"/></svg>