<svg xmlns="http://www.w3.org/2000/svg" xml:space="preserve" style="fill-rule:evenodd;clip-rule:evenodd;stroke-linejoin:round;stroke-miterlimit:2" viewBox="0 0 32 32"><path d="M29.5 5.5H18.2l-2.1 4.2H4.3v16.8h25.2zm-2.1 18.7H6.6V11.8h20.8zm0-14.5h-8.2l1-2.1h7.1v2.1z" style="fill:#dcb67a;fill-rule:nonzero"/><path d="M25.7 13.7H.5l3.8 12.8h25.2z" style="fill:#dcb67a;fill-rule:nonzero"/><path d="M7.068 4.359A3.87 3.87 0 0 0 8.2 7.024a3 3 0 0 0 1.973.787.92.92 0 0 0 .628-.281 3 3 0 0 0 .7-2.876C10.97 2.815 9.5 1.8 7.7.915a8 8 0 0 0-.632 3.444" style="fill:url(#a);fill-rule:nonzero" transform="translate(12.355 11.205)scale(.75162)"/><path d="M4.4 7.031a3.85 3.85 0 0 0 2.068 2.025c.687.25 1.443.239 2.122-.031a.92.92 0 0 0 .473-.5A3 3 0 0 0 8.617 5.6C7.42 4.1 5.678 3.728 3.676 3.607A8 8 0 0 0 4.4 7.031" style="fill:url(#b);fill-rule:nonzero" transform="translate(12.355 11.205)scale(.75162)"/><path d="M2.959 10.524A3.83 3.83 0 0 0 5.638 11.6a3 3 0 0 0 1.949-.844.93.93 0 0 0 .246-.645A3 3 0 0 0 6.306 7.58c-1.675-.919-3.428-.6-5.324.06a8 8 0 0 0 1.977 2.884" style="fill:url(#c);fill-rule:nonzero" transform="translate(12.355 11.205)scale(.75162)"/><path d="M2.956 14.307a3.83 3.83 0 0 0 2.885-.035 3 3 0 0 0 1.479-1.529.93.93 0 0 0-.02-.691A2.98 2.98 0 0 0 4.926 10.3c-1.9-.2-3.394.766-4.9 2.1a7.95 7.95 0 0 0 2.93 1.907" style="fill:url(#d);fill-rule:nonzero" transform="translate(12.355 11.205)scale(.75162)"/><path d="M4.394 17.8a3.83 3.83 0 0 0 2.653-1.141 3.02 3.02 0 0 0 .784-1.981.93.93 0 0 0-.28-.631 2.97 2.97 0 0 0-2.863-.706c-1.831.54-2.844 2.013-3.722 3.824a7.9 7.9 0 0 0 3.428.635" style="fill:url(#e);fill-rule:nonzero" transform="translate(12.355 11.205)scale(.75162)"/><path d="M7.054 20.479A3.85 3.85 0 0 0 9.07 18.4a3.02 3.02 0 0 0-.031-2.132.93.93 0 0 0-.5-.476 2.97 2.97 0 0 0-2.914.449c-1.486 1.2-1.86 2.953-1.982 4.964a7.9 7.9 0 0 0 3.411-.726" style="fill:url(#f);fill-rule:nonzero" transform="translate(12.355 11.205)scale(.75162)"/><path d="M10.531 21.93a3.87 3.87 0 0 0 1.069-2.692 3.02 3.02 0 0 0-.841-1.958.92.92 0 0 0-.642-.248A2.98 2.98 0 0 0 7.6 18.567c-.914 1.683-.594 3.443.06 5.348a7.96 7.96 0 0 0 2.871-1.985" style="fill:url(#g);fill-rule:nonzero" transform="translate(12.355 11.205)scale(.75162)"/><path d="M14.3 21.933a3.87 3.87 0 0 0-.035-2.9 3 3 0 0 0-1.522-1.486.92.92 0 0 0-.687.018 3 3 0 0 0-1.745 2.387c-.2 1.906.763 3.409 2.093 4.918a8 8 0 0 0 1.896-2.937" style="fill:url(#h);fill-rule:nonzero" transform="translate(12.355 11.205)scale(.75162)"/><path d="M17.776 20.489a3.86 3.86 0 0 0-1.136-2.665 3 3 0 0 0-1.973-.788.92.92 0 0 0-.628.281 3 3 0 0 0-.7 2.876c.538 1.839 2 2.857 3.807 3.739a8 8 0 0 0 .63-3.443" style="fill:url(#i);fill-rule:nonzero" transform="translate(12.355 11.205)scale(.75162)"/><path d="M20.441 17.817a3.85 3.85 0 0 0-2.065-2.025 2.98 2.98 0 0 0-2.122.031.92.92 0 0 0-.473.5 3 3 0 0 0 .447 2.927c1.2 1.493 2.94 1.869 4.942 1.991a8 8 0 0 0-.729-3.424" style="fill:url(#j);fill-rule:nonzero" transform="translate(12.355 11.205)scale(.75162)"/><path d="M21.885 14.324a3.83 3.83 0 0 0-2.679-1.077 3 3 0 0 0-1.949.844.93.93 0 0 0-.246.645 3 3 0 0 0 1.528 2.533c1.675.919 3.428.6 5.324-.06a8 8 0 0 0-1.978-2.885" style="fill:url(#k);fill-rule:nonzero" transform="translate(12.355 11.205)scale(.75162)"/><path d="M21.888 10.541a3.82 3.82 0 0 0-2.888.035 3 3 0 0 0-1.479 1.529.93.93 0 0 0 .018.691 2.98 2.98 0 0 0 2.376 1.753c1.9.2 3.394-.767 4.9-2.1a7.95 7.95 0 0 0-2.927-1.908" style="fill:url(#l);fill-rule:nonzero" transform="translate(12.355 11.205)scale(.75162)"/><path d="M20.451 7.046c-.998.02-1.95.43-2.651 1.141a3 3 0 0 0-.784 1.982.93.93 0 0 0 .28.631 2.97 2.97 0 0 0 2.863.706c1.831-.54 2.844-2.013 3.722-3.824a7.9 7.9 0 0 0-3.43-.636" style="fill:url(#m);fill-rule:nonzero" transform="translate(12.355 11.205)scale(.75162)"/><path d="M17.791 4.369a3.85 3.85 0 0 0-2.016 2.074 3.02 3.02 0 0 0 .031 2.132.93.93 0 0 0 .5.476 2.97 2.97 0 0 0 2.912-.451C20.7 7.4 21.079 5.649 21.2 3.638a7.9 7.9 0 0 0-3.409.731" style="fill:url(#n);fill-rule:nonzero" transform="translate(12.355 11.205)scale(.75162)"/><path d="M14.313 2.918a3.87 3.87 0 0 0-1.072 2.692c.032.733.331 1.429.84 1.958a.92.92 0 0 0 .642.248 2.98 2.98 0 0 0 2.522-1.536c.914-1.683.594-3.443-.06-5.348a7.95 7.95 0 0 0-2.872 1.986" style="fill:url(#o);fill-rule:nonzero" transform="translate(12.355 11.205)scale(.75162)"/><path d="M10.548 2.915a3.87 3.87 0 0 0 .035 2.9A3 3 0 0 0 12.105 7.3a.92.92 0 0 0 .687-.018 3 3 0 0 0 1.745-2.387c.2-1.906-.763-3.409-2.093-4.918a8 8 0 0 0-1.896 2.938" style="fill:url(#p);fill-rule:nonzero" transform="translate(12.355 11.205)scale(.75162)"/><defs><linearGradient id="a" x1="0" x2="1" y1="0" y2="0" gradientTransform="matrix(25 -25 25 25 0 25)" gradientUnits="userSpaceOnUse"><stop offset="0" style="stop-color:#0a00b2;stop-opacity:.65"/><stop offset=".5" style="stop-color:red;stop-opacity:.65"/><stop offset="1" style="stop-color:#fffc00;stop-opacity:.65"/></linearGradient><linearGradient id="b" x1="0" x2="1" y1="0" y2="0" gradientTransform="matrix(25 -25 25 25 0 25)" gradientUnits="userSpaceOnUse"><stop offset="0" style="stop-color:#0a00b2;stop-opacity:.65"/><stop offset=".5" style="stop-color:red;stop-opacity:.65"/><stop offset="1" style="stop-color:#fffc00;stop-opacity:.65"/></linearGradient><linearGradient id="c" x1="0" x2="1" y1="0" y2="0" gradientTransform="matrix(25 -25 25 25 0 25)" gradientUnits="userSpaceOnUse"><stop offset="0" style="stop-color:#0a00b2;stop-opacity:.65"/><stop offset=".5" style="stop-color:red;stop-opacity:.65"/><stop offset="1" style="stop-color:#fffc00;stop-opacity:.65"/></linearGradient><linearGradient id="d" x1="0" x2="1" y1="0" y2="0" gradientTransform="matrix(25 -25 25 25 0 25)" gradientUnits="userSpaceOnUse"><stop offset="0" style="stop-color:#0a00b2;stop-opacity:.65"/><stop offset=".5" style="stop-color:red;stop-opacity:.65"/><stop offset="1" style="stop-color:#fffc00;stop-opacity:.65"/></linearGradient><linearGradient id="e" x1="0" x2="1" y1="0" y2="0" gradientTransform="matrix(25 -25 25 25 0 25)" gradientUnits="userSpaceOnUse"><stop offset="0" style="stop-color:#0a00b2;stop-opacity:.65"/><stop offset=".5" style="stop-color:red;stop-opacity:.65"/><stop offset="1" style="stop-color:#fffc00;stop-opacity:.65"/></linearGradient><linearGradient id="f" x1="0" x2="1" y1="0" y2="0" gradientTransform="matrix(25 -25 25 25 0 25)" gradientUnits="userSpaceOnUse"><stop offset="0" style="stop-color:#0a00b2;stop-opacity:.65"/><stop offset=".5" style="stop-color:red;stop-opacity:.65"/><stop offset="1" style="stop-color:#fffc00;stop-opacity:.65"/></linearGradient><linearGradient id="g" x1="0" x2="1" y1="0" y2="0" gradientTransform="matrix(25 -25 25 25 0 25)" gradientUnits="userSpaceOnUse"><stop offset="0" style="stop-color:#0a00b2;stop-opacity:.65"/><stop offset=".5" style="stop-color:red;stop-opacity:.65"/><stop offset="1" style="stop-color:#fffc00;stop-opacity:.65"/></linearGradient><linearGradient id="h" x1="0" x2="1" y1="0" y2="0" gradientTransform="matrix(25 -25 25 25 0 25)" gradientUnits="userSpaceOnUse"><stop offset="0" style="stop-color:#0a00b2;stop-opacity:.65"/><stop offset=".5" style="stop-color:red;stop-opacity:.65"/><stop offset="1" style="stop-color:#fffc00;stop-opacity:.65"/></linearGradient><linearGradient id="i" x1="0" x2="1" y1="0" y2="0" gradientTransform="matrix(25 -25 25 25 0 25)" gradientUnits="userSpaceOnUse"><stop offset="0" style="stop-color:#0a00b2;stop-opacity:.65"/><stop offset=".5" style="stop-color:red;stop-opacity:.65"/><stop offset="1" style="stop-color:#fffc00;stop-opacity:.65"/></linearGradient><linearGradient id="j" x1="0" x2="1" y1="0" y2="0" gradientTransform="matrix(25 -25 25 25 0 25)" gradientUnits="userSpaceOnUse"><stop offset="0" style="stop-color:#0a00b2;stop-opacity:.65"/><stop offset=".5" style="stop-color:red;stop-opacity:.65"/><stop offset="1" style="stop-color:#fffc00;stop-opacity:.65"/></linearGradient><linearGradient id="k" x1="0" x2="1" y1="0" y2="0" gradientTransform="matrix(25 -25 25 25 0 25)" gradientUnits="userSpaceOnUse"><stop offset="0" style="stop-color:#0a00b2;stop-opacity:.65"/><stop offset=".5" style="stop-color:red;stop-opacity:.65"/><stop offset="1" style="stop-color:#fffc00;stop-opacity:.65"/></linearGradient><linearGradient id="l" x1="0" x2="1" y1="0" y2="0" gradientTransform="matrix(25 -25 25 25 0 25)" gradientUnits="userSpaceOnUse"><stop offset="0" style="stop-color:#0a00b2;stop-opacity:.65"/><stop offset=".5" style="stop-color:red;stop-opacity:.65"/><stop offset="1" style="stop-color:#fffc00;stop-opacity:.65"/></linearGradient><linearGradient id="m" x1="0" x2="1" y1="0" y2="0" gradientTransform="matrix(25 -25 25 25 0 25)" gradientUnits="userSpaceOnUse"><stop offset="0" style="stop-color:#0a00b2;stop-opacity:.65"/><stop offset=".5" style="stop-color:red;stop-opacity:.65"/><stop offset="1" style="stop-color:#fffc00;stop-opacity:.65"/></linearGradient><linearGradient id="n" x1="0" x2="1" y1="0" y2="0" gradientTransform="matrix(25 -25 25 25 0 25)" gradientUnits="userSpaceOnUse"><stop offset="0" style="stop-color:#0a00b2;stop-opacity:.65"/><stop offset=".5" style="stop-color:red;stop-opacity:.65"/><stop offset="1" style="stop-color:#fffc00;stop-opacity:.65"/></linearGradient><linearGradient id="o" x1="0" x2="1" y1="0" y2="0" gradientTransform="matrix(25 -25 25 25 0 25)" gradientUnits="userSpaceOnUse"><stop offset="0" style="stop-color:#0a00b2;stop-opacity:.65"/><stop offset=".5" style="stop-color:red;stop-opacity:.65"/><stop offset="1" style="stop-color:#fffc00;stop-opacity:.65"/></linearGradient><linearGradient id="p" x1="0" x2="1" y1="0" y2="0" gradientTransform="matrix(25 -25 25 25 0 25)" gradientUnits="userSpaceOnUse"><stop offset="0" style="stop-color:#0a00b2;stop-opacity:.65"/><stop offset=".5" style="stop-color:red;stop-opacity:.65"/><stop offset="1" style="stop-color:#fffc00;stop-opacity:.65"/></linearGradient></defs></svg>