<svg xmlns="http://www.w3.org/2000/svg" viewBox="0 0 32 32"><title>folder_type_pytest_opened</title><path fill="#0088c7" d="M27.4 5.5h-9.2l-2.1 4.2H4.3v16.8h25.2v-21Zm0 18.7H6.6V11.8h20.8Zm0-14.5h-8.2l1-2.1h7.1v2.1Z"/><path fill="#0088c7" d="M25.7 13.7H.5l3.8 12.8h25.2l-3.8-12.8z"/><path fill="#696969" d="M11.99 12.04H27.5a.77.77 0 1 1 0 1.52H11.99a.77.77 0 0 1 0-1.52z"/><path fill="#009fe3" d="M12.12 10.5h3.12v.72h-3.12zm0 3.85h3.12V30h-3.12z"/><path fill="#c7d302" d="M16.2 10.5h3.12v.72H16.2zm0 3.85h3.12v12.84H16.2z"/><path fill="#f07e16" d="M20.23 10.5h3.12v.72h-3.12zm0 3.85h3.12v8.57h-3.12z"/><path fill="#df2815" d="M24.24 10.5h3.12v.72h-3.12zm0 3.85h3.12v5.28h-3.12z"/></svg>