<svg xmlns="http://www.w3.org/2000/svg" viewBox="0 0 32 32"><title>folder_type_azure</title><path d="M27.5,5.5H18.2L16.1,9.7H4.4V26.5H29.6V5.5Zm0,4.2H19.3l1.1-2.1h7.1Z" style="fill:#5799b5"/><path d="M19.177,29.932c2.827-.586,5.161-1.071,5.188-1.078l.049-.012-2.668-3.725c-1.468-2.049-2.668-3.734-2.668-3.743s2.755-8.925,2.771-8.956c0-.011,1.88,3.789,4.545,9.211l4.571,9.3L31,31H14.04Z" style="fill:#0089d6"/><path d="M9,28.8s1.257-2.567,2.794-5.693l2.794-5.684,3.259-3.206C19.638,12.448,21.108,11,21.114,11a.785.785,0,0,1-.052.155l-3.539,8.9L14.047,28.8H11.522C10.136,28.807,9,28.8,9,28.8Z" style="fill:#0089d6"/></svg>