<?xml version="1.0" encoding="UTF-8" standalone="no"?>
<!DOCTYPE svg PUBLIC "-//W3C//DTD SVG 1.1//EN" "http://www.w3.org/Graphics/SVG/1.1/DTD/svg11.dtd">
<svg version="1.1" xmlns="http://www.w3.org/2000/svg" xmlns:xlink="http://www.w3.org/1999/xlink" preserveAspectRatio="xMidYMid meet" viewBox="0 0 640 640" width="32" height="32"><defs><path d="M545.45 103.94L359.45 103.94L317.45 187.94L83.45 187.94L83.45 523.94L587.45 523.94L587.45 103.94L545.45 103.94ZM545.45 187.94L381.45 187.94L403.45 145.94L545.45 145.94L545.45 187.94Z" id="c1NLW86nBV"></path><path d="M543.45 103.94L359.45 103.94L317.45 187.94L81.45 187.94L81.45 523.94L585.45 523.94L585.45 103.94L543.45 103.94ZM543.45 477.94L127.45 477.94L127.45 229.94L543.45 229.94L543.45 477.94ZM543.45 187.94L379.45 187.94L399.45 145.94L541.45 145.94L541.45 187.94L543.45 187.94Z" id="diYc7Ei"></path><path d="M5.45 267.94L81.45 523.94L585.45 523.94L509.45 267.94L509.45 267.94L5.45 267.94Z" id="c73GVLJpe"></path><path d="M447.27 312.13C456.55 327.54 475.19 335.58 485.97 339.27C486.12 339.33 486.89 339.61 488.28 340.12C491.41 430.75 490.63 440.7 485.97 459.43C478.97 487.53 457.42 524.41 414.81 523.79C372.21 523.17 369.85 494.39 366.74 475.85C363.64 457.32 366.9 414.83 366.74 413.84C366.44 411.68 378.15 414.35 392.75 413.84C403.17 413.47 412.33 413.47 420.24 413.84C393.44 383.56 379.05 367.45 377.11 365.49C376.98 365.37 355.42 348.38 326.09 314.53C325.72 329.23 325.72 346.97 326.09 367.77C326.4 385.03 325.38 429.19 326.09 455.93C326.82 482.67 330.64 528.86 347.2 543.79C363.75 558.71 372.91 568.52 420.24 569.86C467.56 571.2 495.18 536.64 509.01 523.79C522.84 510.93 532.73 479.56 534.58 459.43C535.24 452.27 535.39 415.5 535.05 349.12C534.9 355.45 534.74 352.45 534.58 340.12C537.96 338.73 539.82 337.96 540.21 337.81C560.22 329.8 563.69 322.28 572.74 312.13C581.8 301.99 586.82 248.77 572.74 231.71C558.66 214.64 553.66 210.17 534.58 205.45C515.5 200.73 499.76 202.78 485.97 205.45C472.18 208.12 458.55 218.61 447.27 231.71C435.98 244.8 437.98 296.72 447.27 312.13ZM491.57 308.67C476.79 301.36 468.02 284.96 470.31 269.1C472.24 256.17 480.1 245.31 491.57 239.61C501.19 234.84 510.66 234.22 520.83 237.54C538.61 243.31 549.93 262.17 546.7 280.42C542.07 306.06 514.66 320.06 491.57 308.67Z" id="a9y8EjkESJ"></path></defs><g><g><g><use xlink:href="#c1NLW86nBV" opacity="1" fill="#c09553" fill-opacity="1"></use><g><use xlink:href="#c1NLW86nBV" opacity="1" fill-opacity="0" stroke="#000000" stroke-width="1" stroke-opacity="0"></use></g></g><g><use xlink:href="#diYc7Ei" opacity="1" fill="#dcb67a" fill-opacity="1"></use><g><use xlink:href="#diYc7Ei" opacity="1" fill-opacity="0" stroke="#000000" stroke-width="1" stroke-opacity="0"></use></g></g><g><use xlink:href="#c73GVLJpe" opacity="1" fill="#dcb67a" fill-opacity="1"></use><g><use xlink:href="#c73GVLJpe" opacity="1" fill-opacity="0" stroke="#000000" stroke-width="1" stroke-opacity="0"></use></g></g><g><use xlink:href="#a9y8EjkESJ" opacity="1" fill="#61dbfb" fill-opacity="1"></use></g></g></g></svg>