<svg xmlns="http://www.w3.org/2000/svg" viewBox="0 0 32 32"><title>folder_type_azure_opened</title><path d="M27.4,5.5H18.2L16.1,9.7H4.3v4H.5L4.3,26.5H29.5V5.5ZM20.2,7.6h7.1V9.7H19.2Zm5.5,6.1H6.6V11.8H27.4v7.626Z" style="fill:#7db4d3"/><path d="M19.177,29.932c2.827-.586,5.161-1.071,5.188-1.078l.049-.012-2.668-3.725c-1.468-2.049-2.668-3.734-2.668-3.743s2.755-8.925,2.771-8.956c0-.011,1.88,3.789,4.545,9.211l4.571,9.3L31,31H14.04Z" style="fill:#0089d6"/><path d="M9,28.8s1.257-2.567,2.794-5.693l2.794-5.684,3.259-3.206C19.638,12.448,21.108,11,21.114,11a.785.785,0,0,1-.052.155l-3.539,8.9L14.047,28.8H11.522C10.136,28.807,9,28.8,9,28.8Z" style="fill:#0089d6"/></svg>