<svg xmlns="http://www.w3.org/2000/svg" viewBox="0 0 32 32"><title>folder_type_saas@2x</title><g id="folder_sass"><path d="M27.5,5.5H18.2L16.1,9.7H4.4V26.5H29.6V5.5Zm0,4.2H19.3l1.1-2.1h7.1Z" style="fill:#bf5588"/><path d="M22.13,23c-.36.17-.76.38-1.55.82l-.91.5-.06-.07c-1.57-1.67-4.46-2.85-4.34-5.1,0-.82.33-3,5.56-5.58,4.31-2.12,7.73-1.53,8.33-.23.85,1.86-1.84,5.32-6.29,5.82a3.35,3.35,0,0,1-2.81-.71c-.24-.26-.27-.27-.36-.22s-.05.31,0,.44A2.63,2.63,0,0,0,21.31,20a8.55,8.55,0,0,0,5.22-.52c2.7-1,4.8-3.94,4.18-6.37S26,9.79,22.13,11.17A19.5,19.5,0,0,0,15.54,15c-2.13,2-2.47,3.73-2.33,4.45.5,2.58,4.05,4.26,5.47,5.5l-.19.11c-.71.35-3.42,1.77-4.1,3.27-.77,1.7.12,2.92.71,3.08a4.37,4.37,0,0,0,4.71-1.91,4.73,4.73,0,0,0,.42-4.35,3.77,3.77,0,0,1,.54-.36c.36-.21.71-.43,1-.59h0a7.86,7.86,0,0,1,3.36-.74c2.43.29,2.92,1.81,2.82,2.44a1.62,1.62,0,0,1-.77,1.09c-.17.11-.23.14-.21.22s.1.11.25.09a1.9,1.9,0,0,0,1.32-1.69c.08-1.5-1.36-3.15-3.89-3.13a5.81,5.81,0,0,0-2.21.44l-.33.15ZM18.51,28.9c-.81.88-1.93,1.21-2.42.93s-.32-1.6.68-2.53a12.89,12.89,0,0,1,1.9-1.42l.5-.3.06,0,.12-.08A3.49,3.49,0,0,1,18.51,28.9Z" style="fill:#fff"/></g></svg>