<svg viewBox="0 0 32 32" xmlns="http://www.w3.org/2000/svg"><path d="m27.4 5.5h-9.2l-2.1 4.2h-11.8v16.8h25.2v-21zm0 18.7h-20.8v-12.4h20.8zm0-14.5h-8.2l1-2.1h7.1v2.1z" fill="#33b563"/><path d="m25.7 13.7h-25.2l3.8 12.8h25.2z" fill="#33b563"/><path d="m22.573 16.294a3.816 3.816 0 0 1 1.776 2.835 3.079 3.079 0 1 0 -1.776-2.835zm-2.018 6.306a3.08 3.08 0 1 0 -3.08-3.08 3.08 3.08 0 0 0 3.08 3.08zm1.306.21h-2.613a3.948 3.948 0 0 0 -3.948 3.943v3.2l.008.05.22.069a17.95 17.95 0 0 0 5.362.865 11.007 11.007 0 0 0 4.682-.879l.206-.1h.022v-3.2a3.947 3.947 0 0 0 -3.939-3.948zm5.1-3.179h-2.6a3.8 3.8 0 0 1 -1.171 2.644 4.686 4.686 0 0 1 3.347 4.484v.985a10.612 10.612 0 0 0 4.133-.868l.206-.1h.024v-3.2a3.948 3.948 0 0 0 -3.943-3.946zm-11.806-.21a3.059 3.059 0 0 0 1.638-.475 3.812 3.812 0 0 1 1.433-2.431c0-.058.009-.115.009-.173a3.08 3.08 0 1 0 -3.081 3.079zm2.766 2.853a3.8 3.8 0 0 1 -1.171-2.629c-.1-.007-.191-.015-.289-.015h-2.618a3.948 3.948 0 0 0 -3.943 3.943v3.2l.008.049.22.069a18.489 18.489 0 0 0 4.441.835v-.965a4.687 4.687 0 0 1 3.348-4.487z" fill="#aaffa2"/></svg>