<svg id="Layer_1" data-name="Layer 1" xmlns="http://www.w3.org/2000/svg" viewBox="0 0 32 32"><title>folder_type_component_opened</title><path d="M27.4,5.5H18.2L16.1,9.7H4.3V26.5H29.5V5.5Zm0,18.7H6.6V11.8H27.4Zm0-14.5H19.2l1-2.1h7.1V9.7Z" style="fill:#dcb67a"/><polygon points="25.7 13.7 0.5 13.7 4.3 26.5 29.5 26.5 25.7 13.7" style="fill:#dcb67a"/><path d="M31,17.672h0v-.009l-2.43-1.941a1.075,1.075,0,0,1-.085-.149,2.146,2.146,0,0,0-.642-.732,3.167,3.167,0,0,0-.973-.476l-1.12-.894c-.8-.637-1.6-1.279-2.4-1.914-.057-.041-.078-.122-.113-.186a2.146,2.146,0,0,0-.642-.732A3.533,3.533,0,0,0,20.618,10H20.4a3.542,3.542,0,0,0-1.984.629,2.178,2.178,0,0,0-.639.711c-.033.059-.056.126-.093.182a1.189,1.189,0,0,1-.134.112l-2.3,1.833-1.122.9a3.186,3.186,0,0,0-.959.468,2.178,2.178,0,0,0-.639.711c-.03.053-.053.113-.084.165L10,17.662v.007h0l5.251,4.193v.009h0L20.5,26.064l5.249-4.19v-.012Zm-2.692,1.006a2.619,2.619,0,0,1-.913.726,3.733,3.733,0,0,1-1.644.365,3.668,3.668,0,0,1-1.587-.335,2.464,2.464,0,0,1-1.118-.975,1.6,1.6,0,0,1-.215-.836c0-.364-.01-.729.007-1.092.037.089.044.192.081.282a2.1,2.1,0,0,0,.833,1.021,3.657,3.657,0,0,0,2,.575,3.707,3.707,0,0,0,1.96-.549,2.329,2.329,0,0,0,.7-.7,1.75,1.75,0,0,0,.239-.641,1.36,1.36,0,0,1,.011.273c0,.3,0,.607,0,.911A1.666,1.666,0,0,1,28.308,18.678ZM17.589,12.329c.037.089.044.192.081.282a2.1,2.1,0,0,0,.833,1.021,3.657,3.657,0,0,0,2,.575,3.707,3.707,0,0,0,1.96-.549,2.329,2.329,0,0,0,.7-.7,1.75,1.75,0,0,0,.239-.641,1.36,1.36,0,0,1,.011.273c0,.3,0,.607,0,.911a1.666,1.666,0,0,1-.357.979,2.619,2.619,0,0,1-.913.726,3.733,3.733,0,0,1-1.644.365,3.668,3.668,0,0,1-1.587-.335,2.464,2.464,0,0,1-1.118-.975,1.6,1.6,0,0,1-.215-.836C17.586,13.057,17.571,12.692,17.589,12.329Zm-2.338,7.44a3.668,3.668,0,0,1-1.587-.335,2.464,2.464,0,0,1-1.118-.975,1.6,1.6,0,0,1-.215-.836c0-.364-.01-.729.007-1.092.037.089.044.192.081.282a2.1,2.1,0,0,0,.833,1.021,3.657,3.657,0,0,0,2,.575,3.707,3.707,0,0,0,1.96-.549,2.329,2.329,0,0,0,.7-.7,1.75,1.75,0,0,0,.239-.641,1.36,1.36,0,0,1,.011.273c0,.3,0,.607,0,.911a1.666,1.666,0,0,1-.357.979,2.619,2.619,0,0,1-.913.726A3.733,3.733,0,0,1,15.251,19.769Zm7.807,3.111a2.619,2.619,0,0,1-.913.726,3.733,3.733,0,0,1-1.644.365,3.668,3.668,0,0,1-1.587-.335,2.464,2.464,0,0,1-1.118-.975,1.6,1.6,0,0,1-.215-.836c0-.364-.01-.729.007-1.092.037.089.044.192.081.282a2.1,2.1,0,0,0,.833,1.021,3.657,3.657,0,0,0,2,.575,3.707,3.707,0,0,0,1.96-.549,2.329,2.329,0,0,0,.7-.7,1.75,1.75,0,0,0,.239-.641,1.36,1.36,0,0,1,.011.273c0,.3,0,.607,0,.911A1.666,1.666,0,0,1,23.058,22.88Z" style="fill:#f1c40f"/><path d="M22.145,15.2a2.619,2.619,0,0,0,.913-.726,1.666,1.666,0,0,0,.357-.979c0-.3,0-.607,0-.911a1.36,1.36,0,0,0-.011-.273,1.75,1.75,0,0,1-.239.641,2.329,2.329,0,0,1-.7.7,3.707,3.707,0,0,1-1.96.549c0,.453,0,.907,0,1.36A3.733,3.733,0,0,0,22.145,15.2Z" style="fill:#f39c12"/><path d="M16.895,19.4a2.619,2.619,0,0,0,.913-.726,1.666,1.666,0,0,0,.357-.979c0-.3,0-.607,0-.911a1.36,1.36,0,0,0-.011-.273,1.75,1.75,0,0,1-.239.641,2.329,2.329,0,0,1-.7.7,3.707,3.707,0,0,1-1.96.549c0,.453,0,.907,0,1.36A3.733,3.733,0,0,0,16.895,19.4Z" style="fill:#f39c12"/><path d="M28.654,16.515a1.75,1.75,0,0,1-.239.641,2.329,2.329,0,0,1-.7.7,3.707,3.707,0,0,1-1.96.549c0,.453,0,.907,0,1.36a3.733,3.733,0,0,0,1.644-.365,2.619,2.619,0,0,0,.913-.726,1.666,1.666,0,0,0,.357-.979c0-.3,0-.607,0-.911A1.36,1.36,0,0,0,28.654,16.515Z" style="fill:#f39c12"/><path d="M23.4,20.717a1.75,1.75,0,0,1-.239.641,2.329,2.329,0,0,1-.7.7,3.707,3.707,0,0,1-1.96.549c0,.453,0,.907,0,1.36a3.733,3.733,0,0,0,1.644-.365,2.619,2.619,0,0,0,.913-.726,1.666,1.666,0,0,0,.357-.979c0-.3,0-.607,0-.911A1.36,1.36,0,0,0,23.4,20.717Z" style="fill:#f39c12"/><polygon points="20.501 26.064 20.5 31 31 22.605 31 17.673 20.501 26.064" style="fill:#f39c12"/><path d="M18.914,15.231a3.668,3.668,0,0,0,1.587.335c0-.453,0-.907,0-1.36a3.657,3.657,0,0,1-2-.575,2.1,2.1,0,0,1-.833-1.021c-.037-.09-.044-.193-.081-.282-.017.363,0,.728-.007,1.092a1.6,1.6,0,0,0,.215.836A2.464,2.464,0,0,0,18.914,15.231Z" style="fill:#e67e22"/><path d="M13.252,17.834a2.1,2.1,0,0,1-.833-1.021c-.037-.09-.044-.193-.081-.282-.017.363,0,.728-.007,1.092a1.6,1.6,0,0,0,.215.836,2.464,2.464,0,0,0,1.118.975,3.668,3.668,0,0,0,1.587.335c0-.453,0-.907,0-1.36A3.657,3.657,0,0,1,13.252,17.834Z" style="fill:#e67e22"/><path d="M23.752,17.834a2.1,2.1,0,0,1-.833-1.021c-.037-.09-.044-.193-.081-.282-.017.363,0,.728-.007,1.092a1.6,1.6,0,0,0,.215.836,2.464,2.464,0,0,0,1.118.975,3.668,3.668,0,0,0,1.587.335c0-.453,0-.907,0-1.36A3.657,3.657,0,0,1,23.752,17.834Z" style="fill:#e67e22"/><path d="M18.5,22.036a2.1,2.1,0,0,1-.833-1.021c-.037-.09-.044-.193-.081-.282-.017.363,0,.728-.007,1.092a1.6,1.6,0,0,0,.215.836,2.464,2.464,0,0,0,1.118.975,3.668,3.668,0,0,0,1.587.335c0-.453,0-.907,0-1.36A3.657,3.657,0,0,1,18.5,22.036Z" style="fill:#e67e22"/><path d="M15.25,21.871h0v-.009L10,17.669v4.937c1.75,1.4,5.25,4.192,5.25,4.192v.01C17,28.21,20.5,31,20.5,31V26.064Z" style="fill:#e67e22"/></svg>