<svg viewBox="0 0 32 32" xmlns="http://www.w3.org/2000/svg"><path d="m27.4 5.5h-9.2l-2.1 4.2h-11.8v16.8h25.2v-21zm0 18.7h-20.8v-12.4h20.8zm0-14.5h-8.2l1-2.1h7.1v2.1z" fill="#dcb67a"/><path d="m25.7 13.7h-25.2l3.8 12.8h25.2z" fill="#dcb67a"/><g fill="#ffda44"><path d="m17.822 19.942a15.869 15.869 0 0 0 5.578.895 15.869 15.869 0 0 0 5.578-.9c1.4-.545 1.894-1.151 1.894-1.5v-2.662a7.768 7.768 0 0 1 -1.563.807 16.72 16.72 0 0 1 -5.909.977 16.77 16.77 0 0 1 -5.909-.975 7.71 7.71 0 0 1 -1.563-.809v2.663c0 .355.497.962 1.894 1.504z"/><path d="m17.822 24.971a11.708 11.708 0 0 0 1.95.556 19.567 19.567 0 0 0 7.257 0 11.711 11.711 0 0 0 1.95-.556c1.4-.545 1.894-1.151 1.894-1.5v-2.542a8.029 8.029 0 0 1 -1.269.619 17.617 17.617 0 0 1 -6.2 1.007 17.618 17.618 0 0 1 -6.2-1.011 8.122 8.122 0 0 1 -1.269-.619v2.545c-.007.35.49.953 1.887 1.501z"/><path d="m23.4 31c4.125 0 7.472-1.308 7.472-2.921v-2.127a7.875 7.875 0 0 1 -1.151.571l-.118.047a17.615 17.615 0 0 1 -6.2 1.013 17.566 17.566 0 0 1 -6.2-1.013c-.04-.015-.079-.032-.118-.047a7.875 7.875 0 0 1 -1.151-.571v2.128c-.006 1.612 3.341 2.92 7.466 2.92z"/><ellipse cx="23.4" cy="12.921" rx="7.472" ry="2.921"/></g></svg>