<svg xmlns="http://www.w3.org/2000/svg" viewBox="0 0 32 32"><title>folder_type_interfaces</title><path d="M27.5,5.5H18.2L16.1,9.7H4.4V26.5H29.6V5.5Zm0,4.2H19.3l1.1-2.1h7.1Z" style="fill:#686868"/><path d="M10.5,24.409c.065-.276.116-.557.2-.828a3.908,3.908,0,0,1,1.008-1.624c1.693-1.693,3.381-3.392,5.081-5.078a3.93,3.93,0,0,1,4.97-.578,4.62,4.62,0,0,1,.739.6c.529.51,1.043,1.037,1.562,1.557.255.256.257.389.007.64l-1.546,1.546c-.236.235-.377.236-.611,0q-.78-.778-1.56-1.56a.915.915,0,0,0-1.434,0Q16.408,21.594,13.9,24.1a.91.91,0,0,0,0,1.42q.783.789,1.572,1.574a.912.912,0,0,0,1.421-.006q.836-.834,1.67-1.671c.223-.223.308-.237.581-.089a4.567,4.567,0,0,0,2.341.563,1.256,1.256,0,0,1,.253.006.308.308,0,0,1,.206.457.507.507,0,0,1-.085.106c-.99.988-1.973,1.984-2.973,2.961a3.761,3.761,0,0,1-2.2,1.042.518.518,0,0,0-.107.036h-.781a.628.628,0,0,0-.109-.035,3.8,3.8,0,0,1-2.218-1.043c-.619-.595-1.223-1.205-1.826-1.816a3.914,3.914,0,0,1-1.06-1.941c-.035-.157-.064-.316-.1-.475ZM24.012,24.3c1.8-1.771,3.6-3.539,5.353-5.355a3.889,3.889,0,0,0,.025-5.462c-.6-.65-1.226-1.279-1.877-1.876a3.911,3.911,0,0,0-5.493.048c-.988.943-1.936,1.927-2.9,2.894a.58.58,0,0,0-.075.089.31.31,0,0,0,.224.484,1.409,1.409,0,0,0,.2,0,4.542,4.542,0,0,1,2.378.569.366.366,0,0,0,.551-.078c.567-.565,1.131-1.133,1.7-1.7a.908.908,0,0,1,1.406,0q.8.79,1.587,1.587a.91.91,0,0,1,0,1.407q-2.509,2.512-5.022,5.024a.912.912,0,0,1-1.42,0q-.78-.778-1.559-1.559c-.242-.242-.38-.241-.625,0q-.78.779-1.559,1.56c-.218.219-.22.369-.007.583.546.549,1.091,1.1,1.642,1.642a4.113,4.113,0,0,0,3.052,1.181A3.667,3.667,0,0,0,24.012,24.3Z" style="fill:#646466"/><path d="M16.586,31l-.932-.023a4.413,4.413,0,0,1-2.522-1.2c-.621-.6-1.228-1.211-1.834-1.824a4.419,4.419,0,0,1-1.193-2.186l-.1-.483L10,24.351l.069-.309c.045-.2.091-.408.152-.607A4.413,4.413,0,0,1,11.352,21.6L12.8,20.151q1.813-1.816,3.633-3.627a4.406,4.406,0,0,1,5.586-.647,5.031,5.031,0,0,1,.821.666c.391.377.774.762,1.157,1.147l.413.416a.844.844,0,0,1,.006,1.347L22.871,21a.944.944,0,0,1-.66.323h0a.941.941,0,0,1-.656-.32L20,19.445c-.273-.27-.463-.267-.728,0l-5.008,5.012a.424.424,0,0,0,0,.714q.785.788,1.571,1.572c.259.257.452.257.715-.006l1.669-1.67a.858.858,0,0,1,1.173-.174,4.046,4.046,0,0,0,2.09.5,1.678,1.678,0,0,1,.354.012.8.8,0,0,1,.581.449.817.817,0,0,1-.026.745,1,1,0,0,1-.169.215l-.819.821c-.716.718-1.433,1.436-2.157,2.145a4.258,4.258,0,0,1-2.485,1.18Zm-.7-1H16.5a.721.721,0,0,1,.131-.031,3.286,3.286,0,0,0,1.917-.9c.722-.706,1.436-1.421,2.149-2.136l.538-.538a5.1,5.1,0,0,1-2.309-.618l-1.669,1.67a1.411,1.411,0,0,1-2.125.006q-.791-.786-1.575-1.576a1.412,1.412,0,0,1,0-2.126l5.009-5.012a1.407,1.407,0,0,1,2.141,0l1.506,1.505,1.466-1.459-.385-.388c-.377-.38-.755-.76-1.14-1.131a4.152,4.152,0,0,0-.656-.537,3.437,3.437,0,0,0-4.355.507q-1.82,1.806-3.628,3.624l-1.45,1.453a3.384,3.384,0,0,0-.884,1.417c-.053.172-.092.35-.131.528L11,24.465l.02.779.063.314a3.447,3.447,0,0,0,.928,1.7c.6.607,1.2,1.215,1.817,1.807a3.319,3.319,0,0,0,1.933.907Zm5.69-4.163h0a4.614,4.614,0,0,1-3.4-1.325c-.552-.545-1.1-1.094-1.643-1.645a.832.832,0,0,1,0-1.289l1.56-1.56a.833.833,0,0,1,1.331-.006l1.56,1.559a.424.424,0,0,0,.714,0l5.022-5.024a.421.421,0,0,0,0-.7q-.789-.795-1.584-1.585a.421.421,0,0,0-.7,0l-1.7,1.7a.848.848,0,0,1-1.148.161,4,4,0,0,0-2.119-.506,1.8,1.8,0,0,1-.272,0,.809.809,0,0,1-.582-1.252.952.952,0,0,1,.141-.171l.89-.9c.667-.675,1.334-1.35,2.02-2.005a4.425,4.425,0,0,1,6.176-.055c.644.59,1.285,1.231,1.906,1.906a4.383,4.383,0,0,1-.031,6.148c-1.628,1.687-3.324,3.356-4.964,4.971l-.4.393a4.2,4.2,0,0,1-2.779,1.185Zm-4.27-3.613c.544.552,1.056,1.066,1.572,1.577a3.625,3.625,0,0,0,2.7,1.036,3.19,3.19,0,0,0,2.077-.9l.4-.393c1.636-1.61,3.327-3.275,4.946-4.952a3.406,3.406,0,0,0,.016-4.777c-.6-.653-1.224-1.275-1.847-1.846a3.406,3.406,0,0,0-4.81.042c-.679.648-1.339,1.316-2,1.984l-.616.621a5.048,5.048,0,0,1,2.3.617l1.683-1.677a1.4,1.4,0,0,1,2.111,0q.8.792,1.589,1.59a1.4,1.4,0,0,1,0,2.112l-5.022,5.024a1.41,1.41,0,0,1-2.126,0l-1.514-1.513Z" style="fill:#2d2d2d"/></svg>