<svg xmlns="http://www.w3.org/2000/svg" xmlns:xlink="http://www.w3.org/1999/xlink" viewBox="0 0 32 32"><defs><linearGradient id="linear-gradient" x1="0.87" y1="-481.2" x2="0.87" y2="-471.89" gradientTransform="translate(19.71 502.89)" gradientUnits="userSpaceOnUse"><stop offset="0.15" stop-color="#2a4f84"/><stop offset="0.39" stop-color="#294e82"/><stop offset="1" stop-color="#172e4e"/></linearGradient></defs><title>folder_type_less@2x</title><g id="folder_less"><path d="M27.5,5.5H18.2L16.1,9.7H4.4V26.5H29.6V5.5Zm0,4.2H19.3l1.1-2.1h7.1Z" style="fill:#5580bf"/><path d="M29.92,29.2a1.8,1.8,0,0,1-1.8,1.8H13a1.8,1.8,0,0,1-1.8-1.8V23.49a1.8,1.8,0,0,1,1.8-1.8H28.12a1.8,1.8,0,0,1,1.8,1.8Z" style="fill:url(#linear-gradient)"/><path d="M26.76,26.22a1.48,1.48,0,0,1,1.18,1.42,1.27,1.27,0,0,1-.49,1,2.2,2.2,0,0,1-1.4.42,3.42,3.42,0,0,1-1.68-.46,1.49,1.49,0,0,1,.12-.5,1.37,1.37,0,0,1,.26-.43,2.77,2.77,0,0,0,1.24.37.72.72,0,0,0,.38-.08.25.25,0,0,0,.13-.22q0-.26-.41-.4l-.49-.18q-1.11-.41-1.11-1.32A1.31,1.31,0,0,1,25,24.81a1.94,1.94,0,0,1,1.26-.49,3.82,3.82,0,0,1,.86.11,3.42,3.42,0,0,1,.77.35,1.25,1.25,0,0,1-.1.54.92.92,0,0,1-.28.42,3.2,3.2,0,0,0-1.25-.33.41.41,0,0,0-.27.08.25.25,0,0,0-.09.2q0,.21.34.33l.55.19Z" style="fill:#f6f6f6"/><path d="M22.82,26.22A1.48,1.48,0,0,1,24,27.64a1.27,1.27,0,0,1-.49,1,2.2,2.2,0,0,1-1.4.42,3.42,3.42,0,0,1-1.68-.46,1.49,1.49,0,0,1,.12-.5,1.37,1.37,0,0,1,.26-.43,2.78,2.78,0,0,0,1.24.37.72.72,0,0,0,.38-.08.25.25,0,0,0,.13-.22q0-.26-.41-.4l-.49-.18q-1.11-.41-1.11-1.32A1.31,1.31,0,0,1,21,24.81a1.94,1.94,0,0,1,1.26-.49,3.82,3.82,0,0,1,.86.11,3.41,3.41,0,0,1,.77.35,1.25,1.25,0,0,1-.1.54.92.92,0,0,1-.28.42,3.2,3.2,0,0,0-1.25-.33.41.41,0,0,0-.27.08.25.25,0,0,0-.09.2q0,.21.34.33l.55.19Z" style="fill:#f6f6f6"/><path d="M19.95,26.28a2.12,2.12,0,0,0-.13-.75,1.68,1.68,0,0,0-.37-.59,1.71,1.71,0,0,0-.58-.39,2.05,2.05,0,0,0-.77-.24,2.1,2.1,0,0,0-.88.27,1.69,1.69,0,0,0-.62.48,2.07,2.07,0,0,0-.36.73,3.3,3.3,0,0,0-.12.91,4.26,4.26,0,0,0,.1.94,2,2,0,0,0,.33.75,1.58,1.58,0,0,0,.61.49,2.2,2.2,0,0,0,.94.21,3,3,0,0,0,1.74-.53,1.4,1.4,0,0,0-.36-.81,4.64,4.64,0,0,1-.64.2,2.41,2.41,0,0,1-.49.06.76.76,0,0,1-.61-.22.89.89,0,0,1-.2-.58h2.31A3.34,3.34,0,0,0,19.95,26.28Zm-2.44.06a1.82,1.82,0,0,1,.16-.75.47.47,0,0,1,.42-.2.49.49,0,0,1,.44.21,1.31,1.31,0,0,1,.15.64v.1H17.51Z" style="fill:#f6f6f6"/><path d="M30.38,26.93a1.2,1.2,0,0,0-.4.95v1.54a1.36,1.36,0,0,1-.51,1.17,2.1,2.1,0,0,1-1.24.41H28v-.77A.93.93,0,0,0,28.4,30a1,1,0,0,0,.31-.79V28a1.91,1.91,0,0,1,.19-1,1.87,1.87,0,0,1,.9-.63,1.9,1.9,0,0,1-1-.88,2.22,2.22,0,0,1-.1-.87V23.43a1.09,1.09,0,0,0-.27-.79.86.86,0,0,0-.49-.24v-.72h.7a1.26,1.26,0,0,1,.77.33,1.5,1.5,0,0,1,.51.76,1.75,1.75,0,0,1,.06.53v1.32a1.38,1.38,0,0,0,.37,1A1.58,1.58,0,0,0,31,26v.6a1.46,1.46,0,0,0-.62.32Z" style="fill:#f6f6f6;stroke:#404040;stroke-miterlimit:10;stroke-width:0.25px"/><path d="M12.7,21.69h-.25a1.25,1.25,0,0,0-.77.33,1.28,1.28,0,0,0-.5.76,2.65,2.65,0,0,0,0,.53v1.32a1.4,1.4,0,0,1-.41,1A2.13,2.13,0,0,1,10,26v.6a1.91,1.91,0,0,1,.71.32,1.23,1.23,0,0,1,.43.95v1.54a1.34,1.34,0,0,0,.48,1.17,2.1,2.1,0,0,0,1.24.41h.32v-.77a1.1,1.1,0,0,1-.48-.25,1,1,0,0,1-.28-.79V28a1.89,1.89,0,0,0-.23-1,1.87,1.87,0,0,0-.9-.63,1.9,1.9,0,0,0,1-.88,2.14,2.14,0,0,0,.14-.87V23.44a1.1,1.1,0,0,1,.24-.79,1,1,0,0,1,.43-.2h.32v-.75H12.7Z" style="fill:#f6f6f6;stroke:#404040;stroke-miterlimit:10;stroke-width:0.25px"/><path d="M15.65,27.93h-.24c-.26,0-.36-.14-.36-.41V22.45a.94.94,0,0,0-.2-.64c-.11-.12-.31-.12-.59-.12h-.61v6.07a1.41,1.41,0,0,0,.26.93,1.08,1.08,0,0,0,.86.29,5.89,5.89,0,0,0,1-.09,1.67,1.67,0,0,0,0-.38,1.71,1.71,0,0,0-.11-.59Z" style="fill:#f6f6f6"/></g></svg>