<svg xmlns="http://www.w3.org/2000/svg" xmlns:xlink="http://www.w3.org/1999/xlink" viewBox="0 0 32 32"><defs><radialGradient id="a" cx="29.86" cy="-463.041" r="15.86" gradientTransform="matrix(1, 0, 0, -1, 0, -442)" gradientUnits="userSpaceOnUse"><stop offset="0.045" stop-color="#f4793b"/><stop offset="1" stop-color="#fff33e"/></radialGradient><radialGradient id="b" cx="13.122" cy="-458.585" r="7.97" gradientTransform="matrix(1, 0, 0, -1, 0, -442)" gradientUnits="userSpaceOnUse"><stop offset="0.258" stop-color="#ee3d85"/><stop offset="1" stop-color="#7b5aa6"/></radialGradient><linearGradient id="c" x1="13.453" y1="-458.063" x2="18.024" y2="-454.205" gradientTransform="matrix(1, 0, 0, -1, 0, -442)" gradientUnits="userSpaceOnUse"><stop offset="0" stop-color="#ee3d85"/><stop offset="1" stop-color="#f05872"/></linearGradient><radialGradient id="d" cx="19.652" cy="-453.559" r="14.153" gradientTransform="matrix(1, 0, 0, -1, 0, -442)" gradientUnits="userSpaceOnUse"><stop offset="0.134" stop-color="#f05872"/><stop offset="1" stop-color="#f4793b"/></radialGradient></defs><title>folder_type_idea</title><path d="M27.5,5.5H18.2L16.1,9.7H4.4V26.5H29.6V5.5Zm0,4.2H19.3l1.1-2.1h7.1Z" style="fill:#bfb755"/><path d="M30.662,21.651a.749.749,0,0,0-.762-1.288L16.064,27.95a1.636,1.636,0,1,0,1.791,2.733Z" style="opacity:0.9968799948692322;isolation:isolate;fill:url(#a)"/><path d="M14.551,14.655a1.8,1.8,0,1,0-1.844,3.062l7.412,3.061a.694.694,0,0,0,.738-1.157Z" style="fill:url(#b)"/><path d="M19.995,10.065a1.422,1.422,0,0,0-1.188.158l-6.433,4.366a1.8,1.8,0,1,0,2.105,2.929q.065-.047.125-.1l5.864-4.884a1.426,1.426,0,0,0-.474-2.469Z" style="opacity:0.9989100098609924;isolation:isolate;fill:url(#c)"/><path d="M20.574,10.413a1.426,1.426,0,0,0-2.006,2.027l.057.054,11.166,9.129a.748.748,0,0,0,1.021-1.086Z" style="opacity:0.9968799948692322;isolation:isolate;fill:url(#d)"/></svg>