<svg viewBox="0 0 32 32" xmlns="http://www.w3.org/2000/svg"><path d="m27.4 5.5h-9.2l-2.1 4.2h-11.8v16.8h25.2v-21zm0 18.7h-20.8v-12.4h20.8zm0-14.5h-8.2l1-2.1h7.1v2.1z" fill="#db917b"/><path d="m25.7 13.7h-25.2l3.8 12.8h25.2z" fill="#db917b"/><path d="m14.167 28.901-1.685-18.901h18.516l-1.687 18.898-7.582 2.102z" fill="#e44f26"/><path d="m21.74 29.393 6.127-1.699 1.442-16.149h-7.569z" fill="#f1662a"/><g fill="#fff"><path d="m20.99 24.011-6-3.607v-1.307l6-3.608v2.023l-3.828 2.238 3.828 2.239z"/><path d="m22.49 24.009v-2.021l3.855-2.238-3.855-2.237v-2.022l6 3.591v1.336z"/></g></svg>