<svg xmlns="http://www.w3.org/2000/svg" viewBox="0 0 32 32"><title>folder_type_prisma</title><path d="M27.5,5.5H18.2L16.1,9.7H4.4V26.5H29.6V5.5Zm0,4.2H19.3l1.1-2.1h7.1Z" style="fill:#0e3d59"/><path d="M30.92,25.43a2.22,2.22,0,0,0-.11-.3l-6.54-14A2,2,0,0,0,22.61,10h-.13a2,2,0,0,0-1.67.94L13.72,22.52a2,2,0,0,0,0,2.13l3.47,5.42a2,2,0,0,0,1.71.93,2.18,2.18,0,0,0,.57-.08l10.06-3A2,2,0,0,0,30.92,25.43Z" style="fill:#fff;fill-rule:evenodd"/><path d="M28.52,26.12,20,28.67a.36.36,0,0,1-.46-.42l3.05-14.73a.3.3,0,0,1,.35-.22.31.31,0,0,1,.21.16l5.65,12.09a.43.43,0,0,1-.2.55Zm1.46-.6-6.53-14h0a1.06,1.06,0,0,0-.9-.6,1,1,0,0,0-1,.49L14.5,23a1.1,1.1,0,0,0,0,1.16L18,29.58a1.12,1.12,0,0,0,1.25.46L29.3,27A1.1,1.1,0,0,0,30,25.68a.52.52,0,0,0-.06-.16Z" style="fill:#0c344b;fill-rule:evenodd"/></svg>