<svg xmlns="http://www.w3.org/2000/svg" viewBox="0 0 32 32"><title>folder_type_svelte_opened</title><path d="M27.4,5.5H18.2L16.1,9.7H4.3V26.5H29.5V5.5Zm0,18.7H6.6V11.8H27.4Zm0-14.5H19.2l1-2.1h7.1V9.7Z" style="fill:#ffb39c"/><polygon points="25.7 13.7 0.5 13.7 4.3 26.5 29.5 26.5 25.7 13.7" style="fill:#ffb39c"/><path d="M29.85,12.77A6.72,6.72,0,0,0,21,10.93l-5,3.12a5.6,5.6,0,0,0-2.62,3.76,5.81,5.81,0,0,0,.6,3.79,5.59,5.59,0,0,0-.86,2.1,5.86,5.86,0,0,0,1.05,4.53A6.72,6.72,0,0,0,23,30.07L28,27a5.64,5.64,0,0,0,2.61-3.76,5.76,5.76,0,0,0-.6-3.8,5.61,5.61,0,0,0,.87-2.1,5.9,5.9,0,0,0-1.06-4.53" style="fill:#ff3e00"/><path d="M20.51,28.49a4.07,4.07,0,0,1-4.3-1.55,3.47,3.47,0,0,1-.63-2.72,2,2,0,0,1,.12-.46l.09-.28.26.18a6.55,6.55,0,0,0,2,1l.19.05,0,.18a1.06,1.06,0,0,0,.2.73,1.23,1.23,0,0,0,1.31.47.93.93,0,0,0,.31-.13l5-3.12a1,1,0,0,0,.47-.68,1.05,1.05,0,0,0-.18-.82,1.23,1.23,0,0,0-1.3-.46.93.93,0,0,0-.31.13l-1.93,1.19a3.81,3.81,0,0,1-1,.43,4,4,0,0,1-4.3-1.54,3.49,3.49,0,0,1-.62-2.73,3.35,3.35,0,0,1,1.56-2.26l5-3.11a3.54,3.54,0,0,1,1-.44,4.05,4.05,0,0,1,4.3,1.55,3.52,3.52,0,0,1,.64,2.72,3.31,3.31,0,0,1-.12.45l-.1.29-.25-.18a6.61,6.61,0,0,0-2-1l-.18-.05,0-.18a1.06,1.06,0,0,0-.21-.73A1.21,1.21,0,0,0,24.3,15a.93.93,0,0,0-.31.13l-5,3.11a1,1,0,0,0-.47.68,1.05,1.05,0,0,0,.18.82,1.23,1.23,0,0,0,1.3.46,1.2,1.2,0,0,0,.31-.13l1.92-1.19a3.57,3.57,0,0,1,1-.43A4.05,4.05,0,0,1,27.51,20a3.56,3.56,0,0,1,.63,2.72,3.37,3.37,0,0,1-1.57,2.26l-5,3.12a3.6,3.6,0,0,1-1,.44" style="fill:#fff"/></svg>