<svg xmlns="http://www.w3.org/2000/svg" viewBox="0 0 32 32"><title>folder_type_supabase_opened</title><defs><linearGradient id="a" x1="53.97" x2="94.16" y1="54.97" y2="71.83" gradientTransform="matrix(.175 0 0 .174 12.29 11.64)" gradientUnits="userSpaceOnUse"><stop offset="0" stop-color="#249361"/><stop offset="1" stop-color="#3ECF8E"/></linearGradient><linearGradient id="b" x1="36.16" x2="54.48" y1="30.58" y2="65.08" gradientTransform="matrix(.175 0 0 .174 12.29 11.64)" gradientUnits="userSpaceOnUse"><stop offset="0"/><stop offset="1" stop-opacity="0"/></linearGradient></defs><path fill="#7bdbac" d="M27.4 5.5h-9.2l-2.1 4.2H4.3v16.8h25.2v-21Zm0 18.7H6.6V11.8h20.8Zm0-14.5h-8.2l1-2.1h7.1v2.1Z"/><path fill="#7bdbad" d="M25.7 13.7H.5l3.8 12.8h25.2z"/><path fill="url(#a)" d="M23.41 30.8a.85.85 0 0 1-1.52-.51L21.7 18.6h7.9a1.7 1.7 0 0 1 1.34 2.76z"/><path fill="url(#b)" fill-opacity=".2" d="M23.41 30.8a.85.85 0 0 1-1.52-.51L21.7 18.6h7.9a1.7 1.7 0 0 1 1.34 2.76z"/><path fill="#3ecf8e" d="M20.2 12a.86.86 0 0 1 1.53.52l.07 11.68H14a1.7 1.7 0 0 1-1.33-2.75z"/></svg>