<svg viewBox="0 0 32 32" xmlns="http://www.w3.org/2000/svg"><path d="m27.4 5.5h-9.2l-2.1 4.2h-11.8v4h-3.8l3.8 12.8h25.2v-21zm-7.2 2.1h7.1v2.1h-8.1zm5.5 6.1h-19.1v-1.9h20.8v7.626z" fill="#7bb4db"/><path d="m30.257 12.333-4.324-2.082a1.308 1.308 0 0 0 -1.492.253l-14.156 12.907a.875.875 0 0 0 -.057 1.236.766.766 0 0 0 .057.057l1.157 1.052a.873.873 0 0 0 1.116.049l17.049-12.932a.868.868 0 0 1 1.393.692v-.05a1.311 1.311 0 0 0 -.743-1.182z" fill="#0065a9"/><path d="m30.257 28.788-4.324 2.082a1.308 1.308 0 0 1 -1.492-.253l-14.156-12.907a.875.875 0 0 1 -.057-1.236.766.766 0 0 1 .057-.057l1.157-1.052a.873.873 0 0 1 1.116-.049l17.049 12.932a.868.868 0 0 0 1.393-.692v.05a1.311 1.311 0 0 1 -.743 1.182z" fill="#007acc"/><path d="m25.933 30.871a1.308 1.308 0 0 1 -1.491-.254.768.768 0 0 0 1.311-.543v-19.027a.768.768 0 0 0 -1.311-.543 1.306 1.306 0 0 1 1.491-.254l4.324 2.079a1.314 1.314 0 0 1 .743 1.183v14.1a1.314 1.314 0 0 1 -.743 1.183z" fill="#1f9cf0"/></svg>