<svg xmlns="http://www.w3.org/2000/svg" viewBox="0 0 32 32"><title>folder_type_composer_opened</title><path d="M27.4,5.5H18.2L16.1,9.7H4.3V26.5H29.5V5.5Zm0,18.7H6.6V11.8H27.4Zm0-14.5H19.2l1-2.1h7.1V9.7Z" style="fill:#dcb67a"/><polygon points="25.7 13.7 0.5 13.7 4.3 26.5 29.5 26.5 25.7 13.7" style="fill:#dcb67a"/><path d="M25.9,28.861l3.021-1.231.05-1.068.525-1.084.115-1.2.591-1.806.656-1.51L30.8,20.6l-.1-.329.066-.375-.116-.447.066-.311-.591-.722-2.625.92.115.345-.245.411.229.706-.361.706.509,1.527,1.084.574c-.05.016-1.379-.115-1.379-.115l.311.64-.361,1-.427.214-.361.115-.706.82-.525,1.3.443,1.281ZM14.784,19.793l2.68.307.345,1.7-.583,1.377.325.236.561,1.558.654.724.45.272.8.761.925.688-.327.706.055.525-.109.291-.2.561-1.93-.561.055-.327-.272-.361.091-.345-2.648-1.935-.2-.49-.577-.184-.018-4.15-.236-.6Z" style="fill:#7d6a4c"/><path d="M28.405,22.858a.96.96,0,0,0-.15-.02.3.3,0,0,0-.046,0,.1.1,0,0,0-.088.07.45.45,0,0,0-.013.059.065.065,0,0,0,0,.02c.132.048.263.1.4.145h.009C28.512,23.014,28.549,22.889,28.405,22.858Zm-.1,1.35.016.022a.2.2,0,0,1,.016.031,2.12,2.12,0,0,1,.166.211h0l0,.007c0-.055.031-.19-.007-.236s-.133-.037-.195-.034Zm1.147-1.4a.022.022,0,0,0-.014.043h0a.022.022,0,0,0,.01-.042Zm0-2.475c0,.134,0,.214.15.214s.256.011.263-.159c0-.059.018-.175-.031-.22s-.139-.02-.188-.025c-.166-.013-.2.016-.191.188Zm-.511,1.088c.027-.034.011-.123.009-.161a.574.574,0,0,0-.025-.195c-.046-.059-.268-.041-.325,0s-.079.329,0,.364c.049.018.3.038.338-.01Zm-8.613,6.8s.007-.013.009-.018a.111.111,0,0,0,.009-.048c0-.02,0-.046-.007-.068a.379.379,0,0,0,0-.05.028.028,0,0,1-.009-.018V28a.246.246,0,0,0,0-.041,1.084,1.084,0,0,0-.009-.12h-.066a.686.686,0,0,0-.263,0c-.046.022-.052.075-.055.13,0,.031,0,.064,0,.091v.016c0,.082,0,.134.088.159a.6.6,0,0,0,.263,0,.031.031,0,0,1,.034-.02Zm.263-.34-.031-.009a.58.58,0,0,1-.166.025c0,.018.009.038.009.057a.472.472,0,0,1,0,.057.031.031,0,0,1-.007.02.52.52,0,0,1,0,.052v0a.063.063,0,0,0,0,.02v.011a.3.3,0,0,0,.009.057.279.279,0,0,1,.007.046h.038a.25.25,0,0,1,.025-.111c.034-.075.091-.154.123-.225h-.011Zm-.168.454,0,.016v.007h-.029c0,.068,0,.136,0,.2a.679.679,0,0,0,0,.068c.016.039.048.043.075.052s.064-.007.1-.009h0a1.566,1.566,0,0,0-.075-.334Zm.029.424a.1.1,0,0,0-.048.025c-.029.041-.013.141-.011.2v.016a.289.289,0,0,0,.1-.075.292.292,0,0,0,.064-.172l-.091.011Zm5.518-.506c.091,0,.188.018.243-.029a.33.33,0,0,0,.036-.181.339.339,0,0,0-.034-.181.715.715,0,0,0-.338-.016.15.15,0,0,0-.043.13v.084a.412.412,0,0,1-.007.075l0,.011a.809.809,0,0,0,.025.079v.018h.079C25.959,28.239,25.97,28.239,25.975,28.248Zm3.759-5.4c-.075-.011-.234-.025-.275.048a.574.574,0,0,0,.018.32c.043.055.175.043.268.037a.289.289,0,0,1,.043,0,.163.163,0,0,1-.018-.041.057.057,0,0,0,0-.027.229.229,0,0,1,.029-.114l.007-.013h0C29.763,22.957,29.875,22.871,29.734,22.849ZM15.917,20.524c.066.034.316.036.347-.041s-.065-.335.062-.358a.15.15,0,0,0-.093-.016c-.1.068-.27-.046-.345.048-.053.061-.044.324.028.363Zm12.568,6.9a.12.12,0,0,0-.07-.031c-.075-.011-.225-.022-.274.041a.457.457,0,0,0-.011.325.136.136,0,0,0,.1.039.967.967,0,0,1,.141,0H28.4c.022,0,.048,0,.07,0l.025-.011-.007-.084c-.007-.1,0-.19,0-.28Zm-1.179-.495-.016,0h.016c-.125,0-.1.127-.1.218,0,.136-.011.177.13.181.075,0,.211.027.261-.05s0-.184.013-.274a.075.075,0,0,1,.011-.031c-.016-.018-.034-.052-.05-.052a.207.207,0,0,0-.037,0,.806.806,0,0,1-.233,0Zm-9.33,0c-.066-.007-.238-.025-.28.034a.745.745,0,0,0-.016.322.109.109,0,0,0,.022.011.048.048,0,0,0,.016-.025.033.033,0,0,1,0,.02l-.007.009.05.034a.792.792,0,0,1,.232-.007c.12.007.091-.121.091-.2C18.082,27.024,18.1,26.944,17.976,26.932Zm9.917-7.316h.1a.082.082,0,0,1,.064-.038.253.253,0,0,0,.009-.048.042.042,0,0,1-.011-.025,1.245,1.245,0,0,0-.022-.157h0c-.106.066-.168.018-.134.19a.316.316,0,0,1,0,.077Zm.066.454c.086,0,.075-.19.075-.243,0-.022.009-.05.009-.075a.08.08,0,0,1-.064-.061h-.1a1.538,1.538,0,0,1-.238.322.436.436,0,0,1,0,.055c.1.016.23,0,.325,0Zm.979,2.8a.53.53,0,0,0-.34,0c-.079.066-.007.211-.055.3l.1.064a.47.47,0,0,1,.043.029l.013.009.007-.007a.039.039,0,0,1,.055,0c.061-.031.15.022.2-.046a.559.559,0,0,0-.013-.345ZM15.331,24.679c-.068-.061-.229.007-.318-.036a1.81,1.81,0,0,0-.061.309.476.476,0,0,0,.011.111h0c.106,0,.413.057.4-.111C15.352,24.872,15.394,24.736,15.331,24.679Zm13.606-.091c.061-.055.027-.234.027-.3,0-.111-.263-.1-.336-.07-.109.05-.038.22-.082.318a.166.166,0,0,0,.052.075C28.676,24.609,28.871,24.645,28.937,24.588Zm.854-5.413c.059,0,.086-.075.093-.15a.267.267,0,0,0,.016.075l0,.007h0c.031.075.1.06.146.06.091,0,.214.022.243-.064a1.3,1.3,0,0,0,.009-.3.15.15,0,0,0-.043-.031.456.456,0,0,0-.136,0c-.057,0-.168-.007-.2.046a.225.225,0,0,0-.036.115.317.317,0,0,0-.025-.1c-.061-.106-.2-.007-.259-.079l-.041.016a.09.09,0,0,1-.088.07c0,.048-.011.121-.011.181a.272.272,0,0,0,.025.121C29.532,19.21,29.723,19.176,29.791,19.176Zm-11.08,9.517c.091,0,.2.027.254-.041a.538.538,0,0,0,.011-.327c-.029-.05-.272-.055-.327-.027-.091.046-.048.184-.07.277.011.052.079.091.123.113Zm7.664-2.2c-.061,0-.075.055-.075.115,0,.041,0,.079,0,.109v.063c0,.066.022.091.118.1.048,0,.2.027.245-.011l.011-.011a.525.525,0,0,0,.043-.175c0-.064-.029-.123-.029-.181h0a.544.544,0,0,0-.091-.009Zm-9.727-.466c-.066,0-.245-.034-.3.016s-.031.2-.025.272v.022a.712.712,0,0,0,.115.088.088.088,0,0,1,.048.007h0c.1-.037.218.041.232-.115C16.728,26.24,16.762,26.024,16.648,26.024Zm12.3-2.119a.554.554,0,0,1-.009-.086,1.145,1.145,0,0,0-.289-.075H28.58a.634.634,0,0,0,0,.338c.027.064.075.068.141.075s.19.025.232-.022.009-.136.011-.2a.032.032,0,0,1-.011-.025Zm-1.35,4.17c0-.064.022-.141,0-.184-.038-.066-.2-.059-.28-.055l0,0c-.031.031-.055,0-.07-.009h0a.562.562,0,0,0-.034.34.092.092,0,0,0,.038.061c.025.013.057,0,.093.007a.261.261,0,0,1,.059-.02.472.472,0,0,1,.127-.011l.118-.055a.045.045,0,0,1-.029,0,.115.115,0,0,0,.029,0,.082.082,0,0,1-.043-.071Zm-1.372-1.132-.013,0,.011,0a1.5,1.5,0,0,0-.285-.012c-.036.079-.075.159-.109.236.018.059.007.123.068.157a.607.607,0,0,0,.247.007c.166-.031.075-.216.118-.345a.177.177,0,0,1-.018-.037Zm-9.043-4.349c-.011-.068,0-.193-.07-.193s-.225-.029-.284,0-.043.127-.048.195-.022.139.027.184a.439.439,0,0,0,.207.05,1.132,1.132,0,0,1,.111-.123l.009-.009h0c.016-.034.029-.07.046-.1Zm3.125,6.167a.488.488,0,0,0-.267-.012c-.075.016-.082.038-.088.118,0,.052-.027.216.013.256s.218.025.275.025h0c.022-.068.082-.088.127-.13l0-.016c-.019-.078.022-.2-.055-.244Zm8.2-4.679c.022-.075.027-.27-.043-.313a.569.569,0,0,0-.32,0c-.048.041-.027.1-.022.159v.011a.46.46,0,0,1-.007.111l.113.1c.011,0,.022.011.031.016.1-.049.214.033.249-.092ZM15.7,24.665c-.177.016-.268-.034-.282.181,0,.057-.027.154.02.2a.088.088,0,0,0,.075.018h0a.118.118,0,0,1,.088.013.032.032,0,0,1,.009.009c.046-.034.145-.118.159-.034a.047.047,0,0,1,0,.031c.063-.1.106-.435-.073-.419Zm12.411-5.129c.007.061.041.075.1.086s.238.018.282-.034a.667.667,0,0,0,.016-.261c0-.075-.022-.12-.111-.123-.059.018-.121.038-.177.061a.634.634,0,0,1-.12.055.975.975,0,0,1,.025.181.03.03,0,0,1-.018.032ZM18.2,27.389c-.093.031-.057.12-.068.2v.05a.271.271,0,0,1,.046.043l.007.009c.041.031.084.064.125.093a.075.075,0,0,1,.02-.009.114.114,0,0,1,.029,0,.145.145,0,0,1,.05.013.131.131,0,0,0,.111-.031c.041-.046.011-.232.011-.291C18.536,27.341,18.276,27.364,18.2,27.389Zm1.143,1.35a.675.675,0,0,0-.243.01c-.088.041-.064.188-.059.282v.027a3.974,3.974,0,0,0,.4.1.1.1,0,0,1,0-.025c0-.041.009-.084.007-.127-.008-.111.033-.249-.1-.271ZM27.2,27.424a1.162,1.162,0,0,0,.093.379.525.525,0,0,1,.214-.018c.068,0,.082-.034.093-.093a.685.685,0,0,0,0-.254c-.045-.1-.317-.064-.4-.015Zm-.779-1a.547.547,0,0,1,.161-.009.165.165,0,0,1,.091.041c-.013-.12-.043-.238-.05-.359,0-.046.05-.254-.009-.274-.016,0-.043.02-.075.059-.093.109-.225.336-.263.375.032.1.01.183.146.166ZM30.7,20.623a.232.232,0,0,0-.066-.037h-.107l-.009.007a.382.382,0,0,1-.134.064.829.829,0,0,0,0,.186c0,.057-.009.113.046.145a.37.37,0,0,0,.186.013.823.823,0,0,0,.093-.016v.061c-.029,0-.068,0-.109-.007a.355.355,0,0,0-.175.016c-.075.041-.034.132-.031.2,0,.125,0,.15.048.172.022.009.055.02.1.036.055-.139.163-.254.163-.413a.123.123,0,0,0,.018-.075c.02-.1.043-.2.068-.3a.21.21,0,0,1-.092-.055Zm-2.742.865a.894.894,0,0,1-.19,0,2.3,2.3,0,0,0-.075.322.247.247,0,0,1,.075.084c.088.007.236.027.28-.041a.357.357,0,0,0,.009-.15c0-.086.028-.207-.1-.211ZM26.7,28.367v-.01h0c-.017-.082-.086-.067-.158-.067s-.179-.025-.225.025a.387.387,0,0,0,0,.32.13.13,0,0,0,.057.07v0c.113-.055.241-.111.364-.157a.1.1,0,0,1-.038-.084C26.7,28.44,26.707,28.4,26.7,28.367Zm1.263-2.793a.581.581,0,0,1-.25-.02,1.525,1.525,0,0,0,0,.454c.011-.109.28.02.336-.084a.647.647,0,0,0,.013-.247c0-.073-.011-.112-.1-.1Zm.086-5.408c.007-.041-.382-.091-.413.057a1.05,1.05,0,0,0,.179.318c.029-.011.057-.02.086-.029a.035.035,0,0,1,.041.016.115.115,0,0,0,.092-.028c.06-.066,0-.257.014-.334Zm1.05,3.139c-.134.037-.025.134-.079.214l.02.025a.5.5,0,0,1,.1.038.154.154,0,0,1,.088.12c.059,0,.134.018.17-.029a.665.665,0,0,0-.009-.34c-.044-.058-.232-.046-.3-.028ZM17.427,25.2a1.179,1.179,0,0,1-.2.009.931.931,0,0,0,0,.225c.018.088.084.079.163.082.113,0,.245.022.256-.127-.039-.075-.1-.139-.134-.216A.375.375,0,0,1,17.427,25.2Zm-.472-1.006a2.514,2.514,0,0,0-.195.329c.025.088.088.088.166.088s.2.029.245-.043a.658.658,0,0,0,0-.3C17.13,24.17,17.03,24.236,16.955,24.191Zm1.35,1.644a.054.054,0,0,1,.022.025c0,.02-.016.037-.043.048-.048.018-.1-.02-.139-.027h0c0,.1.247.127.322.091s.068-.1.066-.166a.075.075,0,0,1-.066-.083v0a.15.15,0,0,1,0-.031,2.428,2.428,0,0,1-.347-.352h0C18.146,25.517,18.118,25.715,18.3,25.835Zm9.663.177a.939.939,0,0,1-.252.007v.1a1.35,1.35,0,0,0,.02.3c.113,0,.3.055.325-.091a1.14,1.14,0,0,0,.011-.143c0-.084-.022-.172-.1-.172Zm.016,1.315c.1-.037.075-.109.075-.2,0-.075.037-.193-.075-.193a.439.439,0,0,1-.195-.018c.011.082.02.163.031.259-.034-.034-.066-.064-.1-.091s-.043-.041-.064-.061a.15.15,0,0,1,0,.029c-.007.079-.029.229.027.268A.72.72,0,0,0,27.983,27.328Zm-.048-2.2c-.057-.022-.125.02-.168-.043a1.386,1.386,0,0,0-.052.45c.145-.068.334.061.343-.15,0-.029.011-.1.011-.15a.157.157,0,0,0-.011-.075C28.033,25.116,27.983,25.127,27.935,25.127ZM16.367,23.764c-.068.041-.046.157-.043.225,0,.186.084.159.247.159h.009a1.575,1.575,0,0,0,.118-.375h0A.563.563,0,0,0,16.367,23.764ZM30.2,21.986a.4.4,0,0,1-.05,0h-.007a.112.112,0,0,0,.041,0,.282.282,0,0,0-.043,0,.04.04,0,0,1-.038-.039v-.009c-.1-.009-.214,0-.22.109v.075a.4.4,0,0,0,.031.184.1.1,0,0,0,.059.041A.032.032,0,0,1,30,22.331h.127c-.011-.022-.034-.02-.059-.025.027,0,.057,0,.068.025h.022A3.03,3.03,0,0,0,30.31,22a.811.811,0,0,1-.1-.016ZM19.978,26.917h-.009c-.025.093-.075.393.052.409a.771.771,0,0,0,.28,0c.088-.036.025-.093.068-.154A1.1,1.1,0,0,0,19.978,26.917Zm9.1-7.61a.352.352,0,0,1,.05-.068.525.525,0,0,0-.084.007.125.125,0,0,0-.018.084C29.043,19.3,29.037,19.3,29.074,19.307Zm-.022-.15.009.007c.043,0,.086,0,.13,0h.216a.634.634,0,0,0,.018-.261h-.1v-.075a.685.685,0,0,0-.115.048s-.009.007-.013.011a.55.55,0,0,1-.188.123v.109l.007,0a.168.168,0,0,0,.029.04Zm.106.461c.093,0,.236.034.261-.079a.926.926,0,0,0-.016-.209.241.241,0,0,0,0-.086.855.855,0,0,1-.109,0c-.013.007-.027.016-.038.022a.046.046,0,0,0,.02-.022h-.145c-.016.022-.043.043-.052.068-.031-.009-.027,0-.052.022,0,.152-.049.286.133.291Zm-2.325,7.694h.009a.063.063,0,0,0,.02,0,.593.593,0,0,1,.064,0c-.043-.134-.1-.265-.15-.4a.505.505,0,0,0-.025.121.457.457,0,0,0,.009.211.13.13,0,0,0,.068.067Zm.075.075a.348.348,0,0,0-.068,0l-.016,0a.075.075,0,0,0-.05.025c-.043.052-.013.2-.011.261a.293.293,0,0,0,.007.055.1.1,0,0,1,.029.041.253.253,0,0,0,.123.013c.075,0,.168.018.229-.029a.107.107,0,0,0,.022-.022c-.07-.115-.141-.229-.214-.345a.4.4,0,0,0-.061,0Zm-9.72-7.137c-.143-.022-.289-.043-.425-.066s-.3-.036-.431-.055a1.2,1.2,0,0,0,0,.3c0,.125.075.1.188.093.075,0,.168.022.2-.064s-.022-.17.038-.261c.07.159-.064.325.168.327.057,0,.177.025.225-.011s.037-.207.043-.261v-.007h0Zm-1.974,4.357c.172.016.15-.127.15-.27,0-.163-.139-.125-.272-.127a2.167,2.167,0,0,0-.075.4C15.083,24.611,15.149,24.6,15.215,24.606Zm1.77,1.86h0c-.166,0-.172.007-.216.15a.079.079,0,0,0,0,.022h0c.113.084.225.17.364.254l.007-.009a.356.356,0,0,0,.057-.225.4.4,0,0,0-.016-.13C17.142,26.451,17.067,26.467,16.985,26.467Zm.55-4.574c.007-.05.009-.1.011-.154-.013-.082-.029-.166-.043-.247h-.181c-.061,0-.075.029-.088.075a1.02,1.02,0,0,0,0,.25c.031.109.193.081.3.074Zm8.623,6.4h-.186a.04.04,0,0,1-.029.013h-.059a1.512,1.512,0,0,0,.111.359c.025,0,.05.009.075.016.052-.02.145.037.172-.075V28.6a.649.649,0,0,0,.013-.13c0-.087-.019-.18-.1-.178Zm1.819-1.812h-.243c.018.139.036.277.057.418.1-.043.234.031.268-.093.019-.082.04-.33-.082-.328Zm.075-1.688a.134.134,0,0,1,0-.043.038.038,0,0,0-.032-.044H28a.307.307,0,0,0-.2.211l0,.013-.02.141c.075,0,.216.02.277-.043a.91.91,0,0,1-.007-.175.323.323,0,0,1,.01-.064Zm1.181-1.033,0,.007c.039.048.177.195.091.207a.672.672,0,0,1-.118-.059,1.05,1.05,0,0,0-.179-.064v.009a.116.116,0,0,0,0,.027.036.036,0,0,1-.009.031c-.007.082-.011.188.048.225a.478.478,0,0,0,.318-.007c.061-.048.05-.238.034-.307-.021-.1-.1-.075-.184-.073Zm-14.106-.005a.5.5,0,0,1-.059.132l.02.245v.025c.154,0,.268.036.272-.143,0-.07.027-.2-.031-.247S15.193,23.764,15.127,23.755Zm2.651,1.81-.015-.013h0c-.086.048-.132.336-.046.4.034.027.118.013.159.013.1,0,.211.016.229-.109a3.081,3.081,0,0,1-.34-.306Zm2.8,1.806-.007,0c-.043.027-.1,0-.134.046s-.02.163-.022.214c-.009.163.052.136.141.154a.03.03,0,0,1,.027,0,.205.205,0,0,0,.061.016h.013a.39.39,0,0,0,.075-.209.343.343,0,0,0-.154-.22Zm10.083-7.627a.033.033,0,0,1-.022.013h-.009c-.039,0-.113-.007-.145.02s-.027.082-.034.115l-.013.061-.007.029c.079.029.2.082.25.048.022-.016.034-.136.039-.166a.552.552,0,0,0,.007-.084.283.283,0,0,1-.025-.1h-.011a.04.04,0,0,1-.018.053Zm-10.81,7.58c.059-.082.068-.293-.036-.32a.156.156,0,0,1-.046.016l-.07.007a.412.412,0,0,1-.075,0c-.034.048-.068.1-.1.141a.1.1,0,0,1-.029.113.08.08,0,0,1-.031.046v0h0C19.567,27.361,19.8,27.389,19.846,27.324Zm8.134-6.288a.043.043,0,0,1-.02.009.514.514,0,0,1-.059,0,.081.081,0,0,1-.061.046l-.007.018v0a1.18,1.18,0,0,1-.05.322c.1,0,.234.029.268-.075.024-.077.044-.33-.069-.332Zm.075-.207c0-.05.025-.175-.011-.218a.131.131,0,0,0-.1-.029.037.037,0,0,1-.016.009.415.415,0,0,0-.057.018.345.345,0,0,1,.037.357v.009a.439.439,0,0,0,.055,0h.007l.014,0c.054-.025.072-.046.072-.148Zm2.271-1.068c0-.075-.086-.091-.168-.091-.043,0-.086,0-.118.007-.106.007-.136.111-.121.211a.287.287,0,0,0,.031.1c.12-.115.254-.05.4-.022a.3.3,0,0,1-.013-.041.79.79,0,0,1-.008-.166ZM27.5,26.878a.4.4,0,0,1,.05,0,1.388,1.388,0,0,1-.172-.418.126.126,0,0,0-.05.022l-.011.007a.042.042,0,0,1-.046-.009c-.059.011-.075.088-.075.168a1.344,1.344,0,0,0,.02.157C27.238,26.91,27.388,26.887,27.5,26.878Zm.366-4.52c.057-.036.12.009.17-.043s.018-.216.022-.282c.007-.125-.166-.075-.263-.075v.025a.082.082,0,0,1-.02.055c.028.113.056.212.088.321Zm1.1,2.41a.027.027,0,0,1,0-.018c0-.139-.241-.086-.327-.084h0a3.149,3.149,0,0,1,.163.4h-.018c.055,0,.132.016.168-.031s.013-.187.01-.262ZM17.35,21.033c-.157-.013-.12.166-.118.27,0,.193.136.086.268.15-.029-.157-.059-.313-.088-.472a.052.052,0,0,1-.052.053ZM26.2,26.86c.052-.041.034-.13.034-.188h0c0-.091,0-.141-.034-.168-.007,0-.011-.013-.02-.013h-.1c-.05.136-.088.254-.127.384h0C26.018,26.874,26.15,26.9,26.2,26.86Zm-7.221,1.964c0,.019.005.04,0,0h0c-.012-.1-.161-.09-.268-.081a.041.041,0,0,1-.05.013.021.021,0,0,0-.014-.007,1.237,1.237,0,0,0,0,.13.028.028,0,0,0,0,.013h0a.124.124,0,0,0,.055.086,1.137,1.137,0,0,0,.309.075.082.082,0,0,1-.009-.02A.568.568,0,0,1,18.983,28.824Zm-1.731-3.8a.663.663,0,0,0,.15-.007.212.212,0,0,0,.07-.029c-.011-.086-.025-.17-.043-.256a.3.3,0,0,1-.043-.05.169.169,0,0,1-.016-.027c-.052.009-.111.013-.136.061a.611.611,0,0,0,0,.241A.142.142,0,0,0,17.253,25.027Zm10.73,2.81c-.068,0-.241-.034-.3.016-.029.025-.034.121-.031.2,0,.039,0,.075,0,.093l.355-.159a.182.182,0,0,1,.046-.091l-.009-.022a.065.065,0,0,0-.064-.035ZM30.413,19.6a.183.183,0,0,0,.118.029.028.028,0,0,1,.018-.013.205.205,0,0,1,.046-.013h.013a.256.256,0,0,1-.041-.15.212.212,0,0,1,.05-.188.331.331,0,0,1,.011-.036.926.926,0,0,0-.113,0,.2.2,0,0,0-.055.007c-.091.025-.079.075-.079.161C30.381,19.45,30.361,19.55,30.413,19.6Zm-13.147.9a.2.2,0,0,0,.064,0h.013a1.11,1.11,0,0,0-.036-.134.269.269,0,0,0-.043-.082.235.235,0,0,0-.034-.016,1.031,1.031,0,0,1,0,.145A.211.211,0,0,0,17.266,20.5Zm-.034.3h0a.46.46,0,0,0,0,.054v-.036c0,.163.007.163.18.163a.077.077,0,0,0,0-.029c-.009-.075-.025-.234-.05-.382a.028.028,0,0,1-.013,0,.3.3,0,0,1-.064.007c-.013.02-.038.038-.048.064a.5.5,0,0,0,0,.154Zm-.456,2.325,0,0c0,.063.019.1.063.114a.22.22,0,0,1,.018-.066v-.013a.968.968,0,0,1,.118-.265c-.075.013-.15,0-.15.125,0-.009,0-.02,0-.027a.17.17,0,0,0,0,.022h0a.336.336,0,0,0,.018.134l-.011-.016a.342.342,0,0,1-.011-.166c.025-.075.091-.066.15-.082A.322.322,0,0,1,17,22.855a.7.7,0,0,0-.195.009.063.063,0,0,0-.025.035A.624.624,0,0,0,16.776,23.125Zm.589,3.809c-.043,0-.088-.007-.123.029a.032.032,0,0,1-.009.009,4.588,4.588,0,0,0,.375.284.142.142,0,0,1,.027.011v0c0-.041.007-.1.007-.145a.24.24,0,0,0-.027-.134c-.055-.073-.18-.053-.253-.053Zm-.075-4.549v-.01A1.438,1.438,0,0,1,17.522,22a.041.041,0,0,1,0-.022c0-.007,0-.016,0-.025a.745.745,0,0,0-.214.009c-.136.034-.1.316-.034.409ZM19.424,27.4c-.109.132-.225.256-.347.379.088,0,.289.041.352-.031.048-.057.02-.241.013-.338C19.435,27.409,19.431,27.4,19.424,27.4Zm8.711-2.67v.007a.949.949,0,0,1-.018.111.759.759,0,0,0,0,.161.083.083,0,0,0,.084.052h.268A1.432,1.432,0,0,0,28.135,24.729Zm-.927,1.656a.069.069,0,0,0,.027.029.1.1,0,0,0,.034.011h0l.018-.013a.27.27,0,0,1,.036-.018.2.2,0,0,1-.061-.075.166.166,0,0,1-.013-.068.15.15,0,0,0,.013.064.225.225,0,0,0,.064.082.172.172,0,0,1,.031-.009,2.832,2.832,0,0,1-.064-.706c-.007,0-.016.007-.022.007-.018.1-.038.211-.057.316-.009.05-.018.1-.027.139v.075a.124.124,0,0,1,.007-.039C27.258,26.219,27.174,26.324,27.209,26.385ZM27.088,28.3h-.011c-.084-.007-.252-.048-.313.041a.183.183,0,0,0-.018.113.75.75,0,0,1,.007.1l.4-.177C27.134,28.343,27.125,28.309,27.088,28.3Zm.967-5.73c0-.158-.043-.143-.177-.187a1.607,1.607,0,0,1,.075.388.433.433,0,0,0,.018.157.088.088,0,0,0,.059.05.119.119,0,0,0,0-.029.112.112,0,0,1,.007-.029.167.167,0,0,1-.029-.125c.009-.037.043-.057.052-.1a.592.592,0,0,0,0-.127Zm-10.7,1.623a.178.178,0,0,0-.13.208c0,.139.027.193.132.207a.156.156,0,0,1,.039-.127C17.382,24.381,17.369,24.286,17.357,24.191Zm13.123-5.033h.084a.276.276,0,0,1,.088.02l.02-.034a2.183,2.183,0,0,0-.291-.336.179.179,0,0,1,.009.059c0,.052-.013.106-.013.15h0c0,.126.043.139.1.139Zm-14.312,6.9a1.51,1.51,0,0,1-.175-.009.5.5,0,0,1,.075.1.406.406,0,0,1,.034.07c.052.038.1.075.154.106a.21.21,0,0,1,.009.048.83.83,0,0,1,0-.1c.009-.106,0-.223-.1-.221Zm-.388-.958a2.726,2.726,0,0,0-.159.418c.043,0,.139.011.172-.018s.022-.121.022-.188h0c0-.064.018-.169-.039-.211Zm1.59-1.355h-.016c-.038.016-.084.007-.109.05s0,.139,0,.186c0,.123-.009.15.113.193-.027-.059-.075-.1-.075-.17,0,.066.048.111.075.166h0A3.832,3.832,0,0,1,17.369,23.743Zm-2.388,1.375h0c.009.055.177.15.3.177l.018-.016a.217.217,0,0,0,.05-.075.171.171,0,0,0,.018-.029C15.322,25.07,15.072,25.118,14.981,25.118ZM30,22.4h-.011c-.041.013-.061.048-.064.132v.075a1.38,1.38,0,0,0,.018.236c.059-.15.118-.289.179-.45Zm-14.294,3.17c-.036,0-.075,0-.1-.037a.1.1,0,0,0-.009.084.337.337,0,0,0,.048.107c.025.027.05.057.075.086a.434.434,0,0,0,.031.034c.018.018.036.034.055.05C15.822,25.783,15.862,25.556,15.708,25.569ZM20.151,29.2h-.031a.181.181,0,0,0-.2.1l-.007.016c.046.022.186.1.243.079s.07-.157.082-.209H20.23A.259.259,0,0,1,20.151,29.2Zm-1.5-3.232a.537.537,0,0,0,.243,0l-.013-.02-.039,0h.037a.418.418,0,0,1-.034-.061l-.214-.109a.07.07,0,0,1-.025.02.217.217,0,0,0,.214.143.23.23,0,0,1-.22-.139.032.032,0,0,1-.016,0c0,.066,0,.132.067.16Zm.422.881c.017.03.046.044.059.075h0c-.088.024-.068.082-.068.163a.943.943,0,0,0-.013.17.079.079,0,0,0,.052.075h0a.155.155,0,0,0,.009-.059c.009-.075.018-.2.025-.275v-.065a.055.055,0,0,0,.008-.039v-.018a1.491,1.491,0,0,0,.013-.2,1.165,1.165,0,0,0,0-.125.084.084,0,0,1-.064-.059.094.094,0,0,0-.046.064.115.115,0,0,0,0,.029V26.7a.279.279,0,0,0,.036.148Zm9.712-7.677h0c.1,0,.132-.022.154-.066v-.07a1.009,1.009,0,0,1-.15.022l-.111.041c-.043.016-.086.034-.13.052l0,.007a.808.808,0,0,0,.234.02Zm.016,6.024h0a.83.83,0,0,1,.091.382.314.314,0,0,0,.064-.291c-.016-.085-.07-.09-.154-.09ZM15.034,20h0v.015c.016.075.136.064.2.061.083,0,.127-.069.2-.075a.075.075,0,0,0,.075.075h0a1.413,1.413,0,0,0,.311-.02.067.067,0,0,0-.037-.009A1.963,1.963,0,0,0,15.436,20h0c-.132-.038-.271-.036-.4-.068A.1.1,0,0,1,15.034,20Zm12.93,3.758h-.214l.3.232v-.046a.039.039,0,0,1,.011-.029C28.065,23.834,28.06,23.752,27.964,23.757Zm-10,3.659a.613.613,0,0,1-.143-.011h-.007c.007.009.013.02.02.031l0,.009a1.87,1.87,0,0,0,.157.143.45.45,0,0,1,.055.011.109.109,0,0,0,0-.027v0a.042.042,0,0,1,.029-.037C18.075,27.462,18.051,27.4,17.968,27.416Zm12.131-8.7a1.268,1.268,0,0,1,.161,0h.025a.331.331,0,0,0-.15-.123.262.262,0,0,0-.232.048.193.193,0,0,0,.2.072ZM16.977,24.16c.12,0,.2.02.2-.118v-.184a.037.037,0,0,1-.018.007h-.007c-.06.092-.121.19-.175.292Zm11.6,1.113a.293.293,0,0,0,0,.177.15.15,0,0,0,.1.057l.075.013a1.067,1.067,0,0,0-.161-.311.4.4,0,0,1-.017.061ZM28.564,27.5v.163a.42.42,0,0,0,0,.075l.041-.041.025-.02a.2.2,0,0,1,0-.041c0-.091.022-.218.025-.265a.15.15,0,0,0-.092.127Zm1.815-5.913c0,.013,0,.027,0,.046h0v.154a2.081,2.081,0,0,0,.139-.289.238.238,0,0,0-.106.013c-.02.007-.027.027-.029.072ZM19.788,29.2h0c-.05,0-.1,0-.15,0h-.05a2.368,2.368,0,0,0,.309.109v-.038C19.9,29.215,19.858,29.193,19.788,29.2Zm9.038-5.9h-.059a1.247,1.247,0,0,0,.2.161c.019-.133,0-.16-.142-.16ZM16.6,26.518h-.011a.075.075,0,0,1-.029-.011l.02.022a.615.615,0,0,0,.132.113.12.12,0,0,1,0,.018h0a.367.367,0,0,0,0-.075c-.005-.046-.032-.064-.107-.066Zm3.927.813a.45.45,0,0,0-.068-.075.094.094,0,0,1-.052-.046l-.007,0c.005.118.007.122.127.127Zm-1.74.9h0c.177,0,.19-.038.2-.211v-.031c0-.139-.043-.143-.2-.143s-.2,0-.2.163v.048a.284.284,0,0,0,.016.121.089.089,0,0,0,.075.05.75.75,0,0,0,.109,0h0Zm-1.808-7.2h-.025c-.145,0-.17.031-.17.195v.009h0c0,.159.022.2.2.2s.2-.022.2-.2-.034-.2-.2-.2Zm-.2,4.788c0,.086-.007.123.084.141a.8.8,0,0,0,.22,0c.115-.018.086-.109.086-.211,0-.127,0-.181-.136-.186-.059,0-.188-.025-.238.02S16.782,25.765,16.785,25.824Zm-.265-.7c-.17,0-.186.018-.186.188,0,.127-.009.188.127.2a.468.468,0,0,0,.232-.011c.05-.034.038-.136.043-.193v-.025c0-.139-.067-.157-.217-.157Zm3.246,2.712c-.055,0-.2-.025-.238.013-.059.052-.022.188-.027.254-.009.154.106.132.229.13.106,0,.159,0,.168-.12.01-.135.033-.275-.133-.275Zm-3.9-6.567c0,.181.088.168.252.166.13,0,.143-.043.143-.136v-.084c0-.177-.025-.177-.2-.177h0c-.172,0-.2.039-.2.184Zm.2,2.889c.166.011.195-.013.195-.179v-.03c0-.15-.018-.186-.193-.186s-.19.022-.2.19a.45.45,0,0,0,0,.055C15.881,24.134,15.915,24.147,16.072,24.159Zm3.374,3.882c0-.13,0-.2-.136-.2-.064,0-.175-.018-.225.02a.133.133,0,0,0-.034.1v.121c0,.125.034.15.154.15h.041c.172.007.2-.016.2-.19Zm-2.67-5.851c0,.17.086.154.243.15s.157-.027.157-.175c0-.181,0-.232-.2-.225S16.771,22,16.776,22.19Zm-.507,2.21c-.016-.163-.036-.188-.2-.188s-.2.025-.2.2c0,.157.028.188.168.2h.037C16.255,24.609,16.285,24.579,16.269,24.4Zm.247-2.953c.179,0,.2-.027.2-.2s-.031-.2-.214-.2-.184.043-.184.207c0,.18.008.2.193.2Zm3.189,6.337c.168,0,.19-.029.19-.195,0-.15,0-.2-.161-.2h-.068c-.136,0-.177.02-.177.193h0c0,.183.029.208.211.208Zm-3.185-7.2c-.184,0-.193.052-.2.225v.016c0,.161.075.157.232.159s.168-.055.168-.181v-.057c0-.164-.038-.162-.2-.162ZM20.34,27.42c-.034-.052-.113-.029-.166-.027-.175,0-.252-.029-.252.172,0,.184.034.22.22.22h.029c.136,0,.17-.007.172-.163,0-.029.009-.086.009-.132a.155.155,0,0,0-.013-.072Zm-1.35.118v.05c0-.177-.025-.211-.2-.211s-.2.029-.2.2c0,.15.009.2.163.2h.05c.15,0,.188-.02.188-.195,0-.024,0-.037,0-.049Zm-1.555-1.512c-.177,0-.2.022-.2.2s.043.2.232.2c.157,0,.166-.052.166-.2C17.63,26.056,17.6,26.026,17.435,26.026Zm.454.45H17.82c-.1,0-.132.025-.134.159,0,.184-.011.247.188.25.048,0,.15.02.188-.027s.011-.172.016-.225c.019-.17-.027-.152-.19-.154Zm-1.863-3.227h.1c.111,0,.139-.02.139-.166,0-.184-.036-.238-.225-.236-.172,0-.17.052-.17.207S15.883,23.244,16.027,23.248Zm.961,2.787c-.177,0-.2.02-.211.195v.027c0,.154.041.168.214.166s.184-.041.186-.207v-.025c0-.142-.024-.179-.188-.157Zm.136-.886a.334.334,0,0,0-.145-.018c-.15,0-.207,0-.2.166s.018.225.2.225.207-.029.2-.211v-.029a.32.32,0,0,0-.013-.087A.075.075,0,0,1,17.123,25.149ZM16.776,20.7a.675.675,0,0,0,.009.243c.043.075.2.055.286.043.132-.016.111-.127.109-.238-.007-.163-.055-.166-.211-.15C16.855,20.6,16.791,20.545,16.776,20.7Zm1.5,5.728c.141.007.25.025.259-.134.011-.177.011-.245-.172-.261-.141-.011-.216-.027-.225.13s-.026.256.139.266Zm-1.245-1.761h-.063c-.19,0-.209.1-.19.277.013.15.118.123.247.12.057,0,.106.009.141-.038a.477.477,0,0,0,.018-.225c-.009-.12-.063-.133-.154-.133Zm1.665,1.36c-.127,0-.1.075-.1.172s-.036.188.059.225a.681.681,0,0,0,.28,0c.079-.031.055-.115.046-.19a.889.889,0,0,0,.009-.088h0a.038.038,0,0,1,0-.022.063.063,0,0,0,0-.02c-.016-.022-.034-.043-.052-.066a.841.841,0,0,0-.242-.009Zm.923,2.726c-.15.013-.132.136-.123.268.011.15.109.134.241.132.172,0,.172-.066.154-.225C19.872,28.736,19.8,28.727,19.619,28.749ZM16.978,21.49c-.163,0-.193.027-.2.19v.059c0,.127.036.15.195.15.177,0,.2-.022.2-.2h0C17.173,21.518,17.151,21.49,16.978,21.49Zm-.9,1.3c.17,0,.195-.029.195-.2s0-.2-.188-.2-.2.022-.2.2S15.9,22.794,16.074,22.794Zm2.727,3.7c-.057,0-.136-.016-.177.031a.464.464,0,0,0-.034.2c-.013.193.1.15.261.15.145,0,.139-.02.139-.163C18.99,26.533,18.988,26.489,18.8,26.489ZM15.577,24.6c.029,0,.059,0,.086,0,.082,0,.145-.011.154-.118.013-.145.031-.277-.132-.28h-.027c-.027,0-.079,0-.125,0a.155.155,0,0,0-.091.018c-.04.036-.022.123-.019.175h0C15.42,24.558,15.422,24.6,15.577,24.6Zm.145-1.755a.663.663,0,0,0-.259.009c-.063.034-.037.139-.037.2,0,.159,0,.184.166.186.086,0,.179.02.216-.07s.049-.334-.088-.329Zm4.6,5.467v0a.162.162,0,0,0-.093-.027c-.02,0-.043,0-.075,0-.064.007-.166-.022-.2.057a.975.975,0,0,0,0,.216c-.007.13.059.132.172.13a.368.368,0,0,0,.19-.029.825.825,0,0,1,0-.13c0-.073,0-.144,0-.217Zm-2.878-2.744c-.186,0-.2.043-.211.225-.009.159.043.17.193.17s.2-.011.2-.168C17.63,25.622,17.627,25.572,17.442,25.572Zm-1.365.4c.168,0,.177-.046.19-.209s-.018-.19-.188-.19c-.2,0-.211.055-.209.245,0,.166.047.159.206.154Zm.647-3.923c0-.057-.02-.1-.1-.1-.1,0-.263-.059-.3.061a.209.209,0,0,0,0,.066c0,.048.007.1.007.132,0,.011,0,.02,0,.029a.106.106,0,0,0,.025.086.511.511,0,0,0,.309.013.094.094,0,0,0,.064-.1c0-.025-.007-.055-.009-.086h0c0-.035.006-.069.006-.1Zm-.663-1.066h.04c.154,0,.166-.02.166-.195s-.048-.2-.232-.2c-.157,0-.166.05-.166.2,0,.168.027.2.19.2Zm.186,3.7c-.048-.038-.159-.011-.214-.009-.157.009-.17.018-.161.172,0,.043-.016.172.022.207s.125.013.17.013h.057c.141-.007.159-.05.15-.22,0-.04.013-.132-.025-.163Zm-.375-2.964c0,.048.016.136.057.168s.121,0,.172.009c.007,0,.016,0,.022,0h.007a.033.033,0,0,1,.034-.018h.075v0a.943.943,0,0,0,.043-.15.332.332,0,0,0-.025-.181c-.05-.093-.177-.068-.27-.052-.121.022-.13.106-.119.225Zm.066.627c.075.022.286.031.327-.046a.385.385,0,0,0,.022-.15.322.322,0,0,0-.046-.2h-.075a.034.034,0,0,1-.022-.007c-.091-.007-.225-.025-.265.057a.294.294,0,0,0-.02.12c-.005.1.018.205.076.226Zm1.95,3.684c-.093,0-.175-.018-.2.084a.439.439,0,0,0,.031.291c.048.048.211.036.275.027.111-.016.1-.1.088-.2.015-.235,0-.2-.2-.2Zm.45,1.3c.168,0,.2-.016.207-.188s-.016-.2-.184-.2-.214,0-.216.179,0,.214.187.214ZM16.349,22.41a.476.476,0,0,0-.059.28c.009.115.02.115.134.115v-.011h.17c.091,0,.1-.079.1-.15,0-.052.039-.2-.007-.234A.546.546,0,0,0,16.349,22.41Zm-.079,1.061c0-.088.029-.172-.091-.168-.172.007-.291-.046-.3.163-.009.172-.007.232.177.236.048,0,.154.02.193-.018S16.269,23.525,16.269,23.471Zm2.556,3.871c.154,0,.166-.064.166-.188V27.1c0-.163-.037-.168-.2-.168-.186,0-.179.031-.188.2,0,.034-.011.075-.013.111a.1.1,0,0,0,.027.082c.04.037.157.019.206.017Zm-2.29-1.773c-.127,0-.218-.013-.209.132,0,.037.018.075.018.111s-.018.07-.011.091c.029.093.186.068.27.064.15,0,.118-.082.123-.209C16.733,25.588,16.71,25.569,16.535,25.569Zm-1.006-3.23c.093.007.259.037.286-.075a1.186,1.186,0,0,0,.007-.22c0-.057.011-.1-.061-.1a.992.992,0,0,1-.2,0c-.13-.022-.143.041-.139.15S15.383,22.331,15.529,22.34Zm4.229,5.953c-.057,0-.177-.025-.225.009-.075.052-.025.157-.029.232,0,.027,0,.043,0,.052a.341.341,0,0,0,0-.034c-.007.171.1.145.262.137s.123-.055.127-.19S19.9,28.3,19.758,28.293ZM15.7,21.49a1.609,1.609,0,0,0-.209,0c-.1.02-.082.13-.075.209.007.154,0,.177.15.179.106,0,.216.055.247-.07C15.838,21.7,15.849,21.475,15.7,21.49Zm-.293-1.136a.784.784,0,0,0,0,.086c.011.084.057.1.13.1h.034c.2,0,.234,0,.234-.211,0-.082,0-.145-.084-.175-.064-.022-.225-.061-.28,0a.39.39,0,0,0-.039.2Zm.386.956h.018c0-.091.025-.207-.07-.238-.068-.025-.291-.041-.316.029a.773.773,0,0,0-.009.179.342.342,0,0,0,0,.118c.029.061.082.068.15.066h0v0c.173-.006.227.055.227-.149Zm-.32,2.834a.557.557,0,0,0,.311,0c.066-.05.029-.247.027-.32,0-.093-.141-.059-.207-.064s-.141-.022-.179.029-.022.319.048.355ZM15,20.5a.156.156,0,0,0,.091.022c.059,0,.188.027.236-.011s.034-.15.034-.214.018-.134-.046-.168a.905.905,0,0,0-.313,0,.127.127,0,0,0-.02.07.7.7,0,0,1-.013.168C14.977,20.411,14.992,20.457,15,20.5Zm3.536,6.1c0-.13-.055-.141-.2-.141s-.207.016-.207.15v.037c.009.175.022.22.2.225.048,0,.15.018.181-.022a.175.175,0,0,0,.018-.1v-.108a.346.346,0,0,0,0-.036Zm-1.815-3.509c0-.15.016-.241-.15-.245-.139,0-.225-.039-.238.111-.018.177-.031.252.157.277.159.02.225.037.232-.141Zm-1.093.214c-.2,0-.186.048-.2.225a.517.517,0,0,0,0,.057c0,.118.052.127.207.125s.188-.027.186-.157v-.022c-.009-.17-.018-.225-.2-.225h.009Zm.34,2.205c.091,0,.214.025.254-.061a.439.439,0,0,0,.037-.214c-.031-.136-.161-.13-.275-.125-.15,0-.143.193-.141.3s.033.1.126.1Zm-.513-2.688a.456.456,0,0,0,.318-.034c.075-.061.093-.4-.046-.391h0a.713.713,0,0,0-.277.048c-.055.037-.034.161-.034.229h0C15.418,22.741,15.4,22.787,15.456,22.825Zm1.2-1.324c-.064-.022-.275-.025-.313.037a.586.586,0,0,0-.016.238c0,.064.009.118.086.118a.905.905,0,0,0,.261-.007c.059-.034.048-.132.05-.2s.011-.155-.071-.185Zm.07,1.983c0-.115-.018-.172-.163-.177-.123,0-.25-.022-.25.127.022.161.027.265.2.272l-.007,0h.013a.669.669,0,0,0,.1,0,.112.112,0,0,0,.082-.029.2.2,0,0,0,.034-.132.465.465,0,0,1-.005-.06Zm2.581,4.81h-.016c-.15.007-.214,0-.229.161-.011.132-.036.245.125.241.123,0,.243.009.259-.13.017-.16.021-.276-.14-.275Zm-2.073-1.608c.013.163.059.181.22.19s.188-.036.177-.184c-.016-.172-.038-.216-.214-.214S17.221,26.517,17.235,26.685Zm-2.085-5.718a.238.238,0,0,0,.159.011c.075-.037.091-.391,0-.391a.675.675,0,0,0-.293.018c.029.052.059.1.088.159C15.151,20.82,15.092,20.92,15.149,20.967Zm.088,1.428c-.157,0-.13.088-.13.225s.009.2.166.175c.123-.02.088-.141.086-.247s-.008-.151-.122-.151Zm.041.454-.037-.005h0c-.06-.007-.1,0-.127.075s-.031.272.025.32a.143.143,0,0,0,.225-.082c.013-.1.038-.287-.086-.307Zm-.055.853c.184,0,.139-.159.136-.3,0-.088-.159-.141-.225-.084-.038.031-.036.113-.031.179a.288.288,0,0,1,.036.195A.187.187,0,0,0,15.224,23.7Zm.136-1.674c0-.084-.1-.1-.168-.07s-.057.1-.086.166v.068c.007.115.018.157.143.15.166-.01.109-.182.111-.314Zm-.2-.565a.254.254,0,0,0,.159,0c.034-.02.055-.111.055-.2s-.018-.17-.061-.184c.007,0,.007,0,0,0v-.011l-.033-.007h0c-.133-.018-.15.119-.15.246,0,.069-.022.118.031.153Zm.106.025c-.084,0-.127,0-.141.088s-.037.275.055.311a.132.132,0,0,0,.172-.071l.007-.021c.019-.1.044-.305-.092-.307Zm1.068,3.545c.043.055.289.05.336.025.1-.052.055-.325.029-.413-.059.118-.121.236-.179.352l-.02-.007v-.02c.011-.229.025-.459.036-.691.007-.022.013-.048.02-.07l-.009.007c-.011.007-.027.011-.034.016s-.018-.011-.018-.02c-.036,0-.118,0-.186,0v.009c0,.007.007.009-.011.013a.567.567,0,0,0,.009.325c.031.066.127.05.193.05-.009.091-.075.037-.123.052-.075.025-.013.011-.025.061C16.337,24.788,16.276,24.963,16.335,25.034Zm12-4.534a.04.04,0,0,1,.036.025.162.162,0,0,0,.048,0c.082-.013.086-.038.088-.12a.717.717,0,0,0,0-.209c-.025-.075-.068-.057-.141-.057-.127,0-.245-.055-.25.1,0,.082-.025.195.022.263Q28.238,20.5,28.337,20.5Zm.145.091c-.016-.013-.121,0-.17-.013s-.106,0-.159,0a.16.16,0,0,0-.034.166c.022.12-.052.22.111.232.113.007.259.041.282-.088.009-.057.027-.255-.03-.3Zm1.293,1.8c-.031,0-.064,0-.086,0s-.064-.007-.1-.007a.133.133,0,0,0-.093.025c-.046.046-.02.177-.02.234-.009.034-.018.046-.025.046s-.031-.086-.031-.12h0c0-.127,0-.172-.136-.177-.029,0-.061,0-.1,0-.075,0-.143.013-.166.086s-.013.265.052.309c.13.079.331-.061.475.007a.809.809,0,0,0,.277,0c.059-.031.05-.084.052-.15s.031-.168,0-.214a.125.125,0,0,0-.1-.032Zm-.307-2.448a.252.252,0,0,1,0-.035.061.061,0,0,0,.012.035h0c0,.068-.009.109.057.127a.29.29,0,0,0,.082.007.9.9,0,0,0,.154-.016.126.126,0,0,0,.1-.1h-.007a1.461,1.461,0,0,0,0-.2.1.1,0,0,0-.1-.1h-.009a1.285,1.285,0,0,0-.15.018c-.123.02-.125.084-.15.179a.79.79,0,0,1,.011.09Zm-.247,4.661c.166,0,.195-.025.195-.19h0c0-.177-.022-.207-.2-.207s-.195.038-.195.184v.052c0,.154.055.163.205.163ZM28.8,20.128c-.139,0-.225-.027-.232.13,0,.036,0,.07,0,.1,0,.1.02.175.15.172.15,0,.247,0,.252-.163v-.086c0-.106-.019-.153-.166-.153Zm.352,3.125a.507.507,0,0,0,.234-.018c.07-.048.036-.132.041-.2v-.051h0c0-.092-.026-.134-.142-.134-.1,0-.229-.022-.259.091C28.989,23.071,28.994,23.237,29.149,23.253Zm-.936-3.182v0c.091,0,.272.036.275-.088,0,.007.016,0,.016,0s.013-.029.011-.043c0-.057.029-.218-.036-.245a.351.351,0,0,0-.3-.016H28.2a.166.166,0,0,0-.04.011l-.011.007a.1.1,0,0,1-.037.046v0a1.192,1.192,0,0,0-.029.252c-.023.1.065.068.133.068Zm1.447.511c-.066,0-.132-.011-.168.05a.5.5,0,0,0-.02.225c.009.15.139.13.271.123.161-.007.132-.113.132-.256,0-.16-.068-.139-.216-.142Zm-.779,1.824a1.287,1.287,0,0,0-.172-.02.16.16,0,0,0-.118.031.481.481,0,0,0-.018.3c.022.075.079.079.143.079H28.8c.025,0,.052,0,.075,0a.088.088,0,0,0,.07-.025c.036-.036.007-.141.013-.19a.472.472,0,0,0,0-.055v.009h0v0h0v-.01h0c.013-.067,0-.1-.083-.119Zm.391-1.875c.136,0,.15-.043.15-.141v-.075c0-.179-.022-.186-.2-.186s-.2.027-.2.2v.075a.135.135,0,0,0,.039.111c.042.034.155.014.21.014Zm-.817.963a.587.587,0,0,0-.225,0c-.079.009-.1.018-.111.1,0,.027-.007.084-.007.136a.327.327,0,0,0,.009.1c.018.05.052.057.1.059v0c.022,0,.027,0,.041,0h.007v0c.091,0,.225.038.254-.079a.034.034,0,0,0,0-.016.719.719,0,0,0,.009-.106c-.006-.079-.022-.16-.076-.188Zm.141.836c.055.048.325.052.359-.029a.375.375,0,0,0,.013-.15.328.328,0,0,1-.022.141.832.832,0,0,0,0-.318.825.825,0,0,0-.345-.022c-.073.03-.1.343-.012.379Zm.622-.388c-.193,0-.2.05-.195.236,0,.166.066.163.225.163s.175-.029.172-.2-.025-.2-.2-.2Zm.193-2.205c-.037-.057-.1-.038-.168-.061-.177,0-.214-.013-.225.172v.075c0,.1.025.141.157.145s.236.034.245-.121c0-.027.007-.079.007-.125a.206.206,0,0,0-.018-.085Zm-1.222,2.606a.175.175,0,0,0,.1-.009h0c.02,0,.043,0,.061,0,.061,0,.111-.007.132-.082a.563.563,0,0,0-.011-.289.2.2,0,0,0-.139-.036.614.614,0,0,0-.15.016c-.1.029-.091.113-.091.207v0C28.1,22.319,28.1,22.344,28.189,22.342Zm2.038-3.112h0a.028.028,0,0,0-.013,0h-.039c-.15.007-.245-.034-.252.141s-.009.245.181.241c.052,0,.161.027.2-.018s.025-.179.022-.232C30.326,19.26,30.3,19.234,30.227,19.23Zm-1.643,1.377c-.043.043-.013.145-.011.195,0,.075-.025.175.075.179.118,0,.284.057.311-.093.013-.066.031-.252-.034-.3A.566.566,0,0,0,28.585,20.607Zm1.291,1.011c-.007-.143-.068-.125-.2-.125-.172,0-.2.022-.2.195v.02c0,.113,0,.17.132.179.066,0,.186.02.236-.027a.182.182,0,0,0,.038-.134C29.88,21.688,29.875,21.649,29.875,21.617Zm-.645-.127c-.179,0-.2.027-.209.2s.027.2.209.195.188-.038.19-.207S29.409,21.49,29.23,21.49Zm-.733-.43c-.029-.043-.145-.025-.188-.022-.134,0-.188,0-.2.143s-.027.25.145.256c.05,0,.193.029.232-.007a.255.255,0,0,0,0-.218c-.027-.041.036-.106.006-.151Zm-.15,1.333c-.145,0-.225,0-.232.163,0,.188,0,.236.2.236.177,0,.2-.027.2-.2,0-.149-.013-.2-.172-.194Zm.424-.9c-.159,0-.2-.02-.2.154s.007.25.2.243.2-.048.2-.234c0-.165-.039-.163-.2-.163Zm0-2.269c-.052,0-.15-.016-.188.029s-.013.168-.011.216c.009.118.018.15.139.15a.472.472,0,0,0,.195-.007c.088-.046.064-.184.059-.268-.005-.136-.067-.115-.19-.12Zm1.447,2.267c-.168.013-.277-.05-.282.15,0,.184-.011.25.193.25a.832.832,0,0,0,.109,0,.1.1,0,0,0,.086-.093.844.844,0,0,0,.013-.125c0-.092-.019-.187-.12-.181Zm-1.377-1.812c-.218-.011-.265.025-.265.245h0c0,.15.05.159.188.159H28.8v0c.091,0,.157-.009.166-.134,0-.046.009-.091.009-.127C28.977,19.737,28.953,19.682,28.842,19.675Zm.675,2.653a.586.586,0,0,0,.307.011.1.1,0,0,0,.052-.1.436.436,0,0,1,0-.055v-.064c0-.172-.011-.172-.2-.172-.123,0-.168,0-.188.13a.8.8,0,0,0-.018.136.127.127,0,0,0,.046.118Zm-.477-1.363c.048.043.247.027.3.016.1-.022.075-.113.075-.209-.007-.052.025-.125-.018-.168s-.1,0-.154-.009c-.1-.009-.195-.034-.22.079-.005.045-.022.252.017.29Zm.815-1.375c.038-.046.018-.177.016-.225,0-.084,0-.15-.114-.143s-.218-.034-.263.075c-.027.066-.046.268.02.313A.463.463,0,0,0,29.855,19.591Zm-.091,1.442c-.066.011-.184-.027-.243.016s-.043.15-.038.218c.013.168.068.168.229.168.1,0,.15.009.159-.1s.052-.331-.108-.3ZM29.3,24.663c-.109,0-.254-.041-.28.086a.633.633,0,0,0,0,.261c.05.1.35.075.375-.039a.413.413,0,0,0,.016-.2c-.009-.085-.025-.1-.117-.1Zm.113-3.56c-.025-.109-.168-.075-.265-.068-.134.006-.139.061-.121.166-.007-.04-.013-.07.008.047.016.086-.043.159.07.188a.675.675,0,0,0,.261-.009c.07-.035.063-.253.047-.324Zm.532.291a.414.414,0,0,0,.329.037c.091-.046.05-.243.048-.327s-.311-.1-.375-.038a.435.435,0,0,0,0,.329Zm.329-.75c-.1.016-.2,0-.3.011a.088.088,0,0,1-.043,0,.819.819,0,0,0,.016.236c.016.118.079.1.19.1.075-.011.157.027.186-.064a1.332,1.332,0,0,0,.013-.168.19.19,0,0,0-.02-.1.075.075,0,0,1-.043-.013Zm-1.152,4.474c-.139-.02-.093.145-.1.225-.009.2.082.157.245.17a.643.643,0,0,0,.114-.4,1.26,1.26,0,0,1-.262,0Zm.838-4.986a.52.52,0,0,0-.025.355.052.052,0,0,1,.034-.013,1.414,1.414,0,0,1,.17,0c.038,0,.118.009.15-.016a.174.174,0,0,1,.027-.016l0-.007a.6.6,0,0,0-.013-.068,2.906,2.906,0,0,0-.347-.235ZM29.8,23.3a.36.36,0,0,1-.066,0,.428.428,0,0,0-.22.013c-.059.041-.034.1-.031.17s-.031.159.018.2a.16.16,0,0,0,.145.007.12.12,0,0,0,.048-.027c.036-.113.075-.229.111-.343v-.007Zm-.327.6c0,.075-.025.3.075.216a.028.028,0,0,0,.011-.011,1.419,1.419,0,0,1,.093-.322.15.15,0,0,0-.029-.009c-.116-.043-.15-.011-.15.125Zm-.506,2.053a.319.319,0,0,1,0-.061c-.009-.1-.016-.188-.018-.284a.091.091,0,0,0-.041-.036c-.011.082.034.163.007.247-.041-.009-.066-.046-.086-.091a.957.957,0,0,0-.066-.159h-.059c-.1.007-.139.031-.141.163,0,.059-.022.186.027.225a.639.639,0,0,0,.364,0h.02v-.02a.037.037,0,0,1-.011.014Zm.064-.327a2.093,2.093,0,0,0,.02.293l0-.007a.225.225,0,0,0,.018-.031,2.666,2.666,0,0,0,.166-.307h-.106a.094.094,0,0,0-.1.05Zm-.7.8c.168,0,.184-.031.184-.2s-.011-.193-.193-.193-.2.013-.2.193S28.147,26.424,28.328,26.424Zm-.459.958c-.07,0-.154-.018-.2.05a.44.44,0,0,0-.011.218c.009.118.057.13.154.132h.046c.1,0,.181.025.2-.088a.684.684,0,0,0,0-.245c-.034-.085-.114-.064-.189-.064Zm.445-1.417c.175,0,.2-.038.2-.186v-.048c0-.157-.05-.163-.2-.163-.168,0-.19.029-.19.2h0c0,.178.016.2.193.2Zm.046-.85c-.188,0-.225,0-.238.184s0,.209.157.214h.084c.134,0,.15-.022.15-.186s.011-.207-.153-.209ZM28.4,26.93c-.031,0-.091-.009-.15-.009a.178.178,0,0,0-.106.025c-.066.055-.022.179-.022.252V27.2l0,.025a.11.11,0,0,1,0-.024c-.016.159.175.136.291.124s.1-.1.1-.218S28.526,26.937,28.4,26.93Zm.007-.45h-.075c-.127.009-.216-.016-.218.13a.75.75,0,0,0,0,.2c.02.07.055.061.13.064.121,0,.256.048.265-.1.008-.1.031-.3-.1-.294Zm.481-.443c-.166,0-.318-.057-.32.145V26.2c0,.179.022.229.216.229a2.93,2.93,0,0,0,.184-.342c-.01-.046-.043-.052-.08-.052Zm-.32.57c0,.115-.043.3.125.254a1.115,1.115,0,0,1,.059-.379.289.289,0,0,0-.043,0c-.094,0-.139.005-.142.124Zm.048.331c-.084,0-.1.4.043.393a1.673,1.673,0,0,0,.02-.32c-.008-.038-.017-.076-.064-.074Zm-1.929.486c-.036-.05-.111-.041-.166-.038H26.51c-.168,0-.209,0-.209.172s0,.225.188.225a.594.594,0,0,0,.139-.007.075.075,0,0,1,.061-.061.343.343,0,0,0,.011-.1c0-.047.017-.156-.014-.2Zm-.05.43a.355.355,0,0,0-.141-.009c-.17.011-.2.025-.2.2s.037.2.216.2.181-.038.184-.2a.344.344,0,0,0-.02-.15.088.088,0,0,1-.041-.04Zm.052-.879c-.038-.059-.115-.041-.177-.041-.193,0-.216.041-.211.232,0,.1,0,.15.1.163s.307.038.3-.111c0-.065.022-.194-.014-.245Zm-.461.441c-.046-.046-.093,0-.145-.02-.084-.038-.207-.029-.234.064a.549.549,0,0,0,.018.309c.046.046.247.029.3.016.1-.022.075-.113.075-.207-.005-.049.027-.122-.016-.163Zm.838.424c-.075,0-.238-.034-.289.027s-.022.172-.02.225c.007.125.043.136.163.143.086,0,.188.029.225-.061s.045-.338-.08-.335Zm-11.44-7.256c-.179,0-.206.06-.206.209v.031c0,.179.091.159.252.157s.145-.05.15-.2V20.75C15.822,20.607,15.786,20.585,15.626,20.584Z" style="fill:#644d31"/><path d="M19.626,26.487l-.05-.049-.058-.057a.163.163,0,0,0-.171-.04.157.157,0,0,0-.1.136c-.011.082-.014.163-.017.242a1.6,1.6,0,0,1-.032.312l-.037.166h.253l.037-.075.106-.213.106-.212h0a.179.179,0,0,0-.028-.2Zm7.406-1.022-.046-.02a.235.235,0,0,0-.215.035l-.031.016a.2.2,0,0,0-.15.2,5.332,5.332,0,0,0,.065.643l.067.43.187-.392a.49.49,0,0,0,.043-.15v-.019c.018-.109.037-.215.055-.322l.026-.15a.254.254,0,0,1,.01-.032.247.247,0,0,0,.009-.192Zm-.261-1.884c-.058.007-.117.016-.175.025a1.234,1.234,0,0,1-.45.016l-.024,0a.559.559,0,0,0-.061-.01.585.585,0,0,0-.071,0h-.525l.481.262a.846.846,0,0,0,.442.14,1.006,1.006,0,0,1,.154.013l.067.009h0a2.43,2.43,0,0,0,.262.013A3.512,3.512,0,0,0,27.4,24l.383-.058-.337-.191a1.093,1.093,0,0,0-.676-.172Zm-8.932-.121a.169.169,0,0,0,.1-.033l.03-.021L18,23.387l.007,0a2.3,2.3,0,0,1,.988-.436c.157-.029.314-.056.472-.084.375-.065.761-.132,1.138-.225a1.392,1.392,0,0,0,.28-.075l1.066-.445-1.629.269-.274.034c-.279.034-.567.07-.851.1h0a2.374,2.374,0,0,0-.742.17l-.241.112c-.08.037-.178.085-.27.126a.358.358,0,0,0-.235.387v.147Zm10.348-.21a.832.832,0,0,0-.394-.15l-.292-.038a.15.15,0,0,0,.075-.027.225.225,0,0,0,.092-.121l.013-.038-.01-.039-.011-.047c0-.016-.005-.04-.01-.06l-.006-.023-.784-1.1-.232-.2.011.006.142.075.138.075a.193.193,0,0,0,.15.024l.176-.05-.1-.15a3.8,3.8,0,0,0-.795-.67,3.94,3.94,0,0,1-.386-.3.37.37,0,0,0-.036-.035l-.01-.01-.017-.017-.022-.01a2.25,2.25,0,0,0-.3-.107H25.6a1.246,1.246,0,0,1,.283.086,5.54,5.54,0,0,1,.617.325.871.871,0,0,0,.184.107l.552.236-.4-.45a6.126,6.126,0,0,0-1.767-1.449l-.023-.009h-.011a1.015,1.015,0,0,0-.648.031h0a.188.188,0,0,0-.141.226l.005.018a1.749,1.749,0,0,1,.051.538v.085a.2.2,0,0,0,.126.2.194.194,0,0,0-.063.042.237.237,0,0,0-.061.178v.113l-.043-.086v.427a.316.316,0,0,0,0,.133v.027h0v.045l.024.024.013.025h0l.025.066-.015-.009a.15.15,0,0,0-.132-.01.157.157,0,0,0-.075.062.61.61,0,0,0-.055-.43l-.016-.025.045.009.051-.06a.589.589,0,0,0,.091-.262l.006-.03a1.628,1.628,0,0,0-.032-.775,1.841,1.841,0,0,0-.669-1.067,3.1,3.1,0,0,0-1.17-.559,2.924,2.924,0,0,0-1.407.179l-.109.032c-.085.026-.167.056-.241.085a1.3,1.3,0,0,0-.2.107,4.858,4.858,0,0,0-.77.577l-.028.028a.313.313,0,0,1-.027.025l-.01.007c-.064.049-.117.1-.168.145l-.075.067-.046.042a7.067,7.067,0,0,0-.658.887,3.17,3.17,0,0,0-.263.463c-.032.075-.075.145-.115.221a2.564,2.564,0,0,0-.141.28l-.2.5.415-.346c.169-.142.329-.3.486-.45l.021-.019.025-.023.014-.014a1.249,1.249,0,0,1,.2-.174l.163-.106a3.668,3.668,0,0,1,.76-.416l.034-.011c.059-.026.119-.051.186-.075l.028-.013a1.329,1.329,0,0,1,.3-.107l.23-.04c.124-.021.247-.043.368-.067a3.485,3.485,0,0,1,.732-.084,3.721,3.721,0,0,1,.69.086,1.98,1.98,0,0,0-.368-.023c-.2.007-.416.013-.622.016a2.977,2.977,0,0,0-.567.069,4.891,4.891,0,0,0-2,.991,8.5,8.5,0,0,0-.766.709c-.071.075-.142.142-.214.214a.418.418,0,0,0-.057.075l-.611.968a.754.754,0,0,0-.1.225l-.089.369.3-.231.035-.026a.786.786,0,0,0,.075-.057,2.28,2.28,0,0,1,.851-.431h.01a4.432,4.432,0,0,1,1.138-.225,9.917,9.917,0,0,0,1.693-.3,3.32,3.32,0,0,0,1.021-.415,3.985,3.985,0,0,0,.434-.328.525.525,0,0,1-.1.282,1.44,1.44,0,0,1-.561.411l-.012.006a6.678,6.678,0,0,1-1.323.51c-.179.049-.367.088-.55.124-.157.031-.318.064-.477.1-.117.029-.238.055-.355.079a3.422,3.422,0,0,0-.926.286,1.227,1.227,0,0,0-.564.575.637.637,0,0,0-.041.428l.087.347.163-.319c.016-.031.031-.061.044-.091a.832.832,0,0,1,.088-.159.877.877,0,0,1,.561-.337c.144-.027.289-.043.442-.059l.209-.023c.269-.034.545-.055.813-.075.325-.025.663-.051.994-.1a3.389,3.389,0,0,0,1.415-.473c.075-.05.15-.1.225-.146a3.458,3.458,0,0,0,.649-.485,2.383,2.383,0,0,0,.493-.675,1.036,1.036,0,0,0,.277.942.462.462,0,0,0,.041.038,3.048,3.048,0,0,0,.853.581,5.419,5.419,0,0,0,.862.307,1.066,1.066,0,0,0,.364.028l.046-.005a6.358,6.358,0,0,1,.844-.058h.167a4.949,4.949,0,0,1,.648.038l.525.075ZM25.085,22c.133.1.261.195.375.276.043.03.084.061.126.092a2.035,2.035,0,0,0,.534.316c.075.028.159.059.236.09.112.044.225.09.343.126l.087.027.063.019h.013c.132.027.27.052.392.075a8.111,8.111,0,0,1-.932-.167,1.264,1.264,0,0,1-.532-.245c-.277-.234-.5-.43-.7-.611Z" style="fill:#885630"/><path d="M25.686,28.653c-.083-.2-.164-.4-.242-.6l-.043-.1v-.013a.129.129,0,0,0-.041-.063l-.025-.021-.081.1a2.184,2.184,0,0,1-.375.45l-.048.059a1.772,1.772,0,0,1-.408.244c-.086.042-.176.085-.262.136l-.094.057.109.005c.047,0,.092,0,.14.009a2.589,2.589,0,0,1,.911.217c.1.046.108.13.117.229a.11.11,0,0,1,0,.039.019.019,0,0,1-.013,0h-.009a.1.1,0,0,1-.041-.01,8.065,8.065,0,0,0-1.055-.3c-.1-.024-.2-.048-.3-.075L23.9,29l-.023-.008h-.009a.069.069,0,0,0-.053.063.109.109,0,0,0,.057.143l.023.007a1.627,1.627,0,0,1,.167.053c.106.037.217.075.323.1a2.978,2.978,0,0,1,.843.359.166.166,0,0,0,.091.034.3.3,0,0,0,.108-.037.343.343,0,0,0,.2-.444l-.009-.021a.45.45,0,0,1,.067-.432A.159.159,0,0,0,25.686,28.653Zm-3.741.486a2.224,2.224,0,0,1-.346.031,1.4,1.4,0,0,1-.255-.019c-.03-.006-.034-.013-.037-.04a.031.031,0,0,1,0-.013l.014,0c.082-.016.164-.036.246-.055a3.374,3.374,0,0,1,.688-.11V28.9h.031a.123.123,0,0,1,0-.025l.007-.035-.036,0a.718.718,0,0,1-.283-.121c-.033-.019-.065-.04-.1-.058a1.431,1.431,0,0,1-.616-.607,1.483,1.483,0,0,0-.165-.225l-.075-.091-.039-.05-.019.06-.033.1a2.78,2.78,0,0,1-.1.274.529.529,0,0,0,0,.487.14.14,0,0,1-.036.172c-.052.057-.1.115-.157.174l-.107.119-.008.009a.1.1,0,0,0-.035.1.508.508,0,0,1,.012.075.245.245,0,0,0,.1.208s.005.01,0,.033v.463a.109.109,0,0,0,.035.1.646.646,0,0,0,.261.087h.016a.13.13,0,0,0,.067-.085A.186.186,0,0,1,21,30.026.137.137,0,0,0,21.019,30l.006-.013a2.025,2.025,0,0,0,.225-.15,1.452,1.452,0,0,1,.29-.178c.116-.049.232-.106.343-.162a2.658,2.658,0,0,1,.76-.286l.211-.033-.211-.033A2.178,2.178,0,0,0,21.944,29.139Zm1.7-.127a.087.087,0,0,0-.026-.064.082.082,0,0,0-.061-.017h-.025a1.212,1.212,0,0,1-.236.022h-.17a.665.665,0,0,0-.068,0h-.052a.057.057,0,0,0-.047.055.1.1,0,0,0,.087.116,1.045,1.045,0,0,0,.253.031h0a1.72,1.72,0,0,0,.263-.021.088.088,0,0,0,.085-.091l0-.016Z" style="fill:#fff"/><path d="M30.518,18.176a.117.117,0,0,0,.088-.123c.011-.168.025-.338.041-.506.018-.229.039-.459.059-.7l-.038.009c-1.342.393-2.775.761-4.121,1.152-.068.02,0,.127.022.175.211.37.436.711.643,1.084.018.031.034.048.057.052s.048-.029.061-.034q1.591-.556,3.187-1.106Zm-.2-.967c.143,0,.218.075.225.229a.286.286,0,0,1-.252.286.25.25,0,0,1-.241-.241.277.277,0,0,1,.268-.277ZM16.2,19.8l.638.088c.327.046.654.088.982.134h.018c.038,0,.046-.036.055-.07.086-.289.172-.574.263-.863.02-.061,0-.079-.057-.1q-.916-.238-1.833-.481l-1.831-.482a.126.126,0,0,0-.036-.007.035.035,0,0,0-.037.018l0,.013a.114.114,0,0,0,0,.029c-.046.45-.093.9-.145,1.35-.007.057,0,.082.048.093l.034.007C14.924,19.627,15.562,19.714,16.2,19.8Zm-1.474-1.2a.292.292,0,0,1,.2-.055.233.233,0,0,1,.256.177.425.425,0,0,1-.091.506.27.27,0,0,1-.359,0,.441.441,0,0,1-.017-.623l.006-.006Z" style="fill:#fff"/><path d="M30.318,17.206a.283.283,0,0,0-.27.277.25.25,0,0,0,.241.238.29.29,0,0,0,.252-.286C30.536,17.276,30.463,17.2,30.318,17.206ZM14.931,18.55a.292.292,0,0,0-.2.055.437.437,0,0,0,0,.618l.011.011a.27.27,0,0,0,.359,0,.421.421,0,0,0,.091-.506A.236.236,0,0,0,14.931,18.55Z" style="fill:#1a1a1a"/><path d="M30.363,18.448c.132-.046.261-.1.4-.143a.127.127,0,0,0,.1-.134c.043-.572.086-1.147.132-1.719.007-.079-.007-.1-.088-.07-.429.136-.859.265-1.29.4-.132.041-.134.041-.193-.088-.218-.49-.388-1-.568-1.5a.375.375,0,0,1,.007-.3,1.418,1.418,0,0,0,.018-.536,9.01,9.01,0,0,0-.245-1.492,5.7,5.7,0,0,0-.472-1.2c-.216-.409-.45-.813-.7-1.206a.955.955,0,0,0-.411-.4A.664.664,0,0,0,26.84,10a.191.191,0,0,0-.186.088.393.393,0,0,0-.066.406c.179.388.343.786.5,1.183.009.018.02.037.036.064a.064.064,0,0,1-.059-.041,6.359,6.359,0,0,0-.945-.761,12.118,12.118,0,0,0-1.425-.825.547.547,0,0,0-.2-.061l-.364-.038a.274.274,0,0,0-.336.277c0,.1-.043.125-.127.132a.256.256,0,0,0-.186.181.657.657,0,0,0,.216.586c.42.393.825.8,1.234,1.206a.09.09,0,0,1,.041.043c-.031,0-.043-.007-.052-.018-.064-.041-.125-.075-.181-.111-.284-.188-.563-.382-.847-.565a.893.893,0,0,0-.436-.161.429.429,0,0,0-.37.136.265.265,0,0,0-.084.238.421.421,0,0,0,.211.3A7.73,7.73,0,0,1,24.5,13.368a1.2,1.2,0,0,0,.109.106,1.068,1.068,0,0,1,.247.336c.031.057.02.07-.041.07a5.73,5.73,0,0,0-1.179.193.43.43,0,0,0-.375.265c-.061.2-.091.309.15.37a9.056,9.056,0,0,1,1.408.488.45.45,0,0,1,.111.075,3.129,3.129,0,0,0,.343.286,3.68,3.68,0,0,0,1.154.552c.05.011.1.036.143.048a.112.112,0,0,1,.088.088.375.375,0,0,0,.289.311c.02.007.037.02.057.027a.136.136,0,0,1,.088.1c.064.225.13.45.2.675.025.075,0,.1-.066.115-.352.1-.7.209-1.05.316-.125.038-.127.041-.064.154l.859,1.547c.121.218.125.218.345.1.022-.011.055-.05.075-.013s.057.084.022.123a4.245,4.245,0,0,0-.27.4.086.086,0,0,0,0,.111c.1.157.19.316.284.475a1.392,1.392,0,0,1-.088.4,2.4,2.4,0,0,0-.3-.675,9.517,9.517,0,0,0-.586-.768,1.19,1.19,0,0,0-.1-.109,3.069,3.069,0,0,0-.661-.45.975.975,0,0,0-.322-.121,2.064,2.064,0,0,0-1.059,0,.118.118,0,0,1-.154-.057,1.659,1.659,0,0,0-.272-.352,3.1,3.1,0,0,0-.934-.552,2.791,2.791,0,0,0-.817-.159,4.037,4.037,0,0,0-.439.016,2.3,2.3,0,0,0-1.079.277c-.066.041-.141.064-.209.1a4.109,4.109,0,0,0-.961.643c-.293.289-.586.577-.85.892a5.766,5.766,0,0,0-.74,1.2.15.15,0,0,1-.066.091c-.038-.241-.075-.472-.113-.7-.007-.043.02-.041.05-.037.084.009.166.013.25.025.064.009.1,0,.113-.075.02-.1.043-.195.064-.3.075-.375.188-.739.286-1.106.018-.07.007-.1-.066-.113-.361-.086-.722-.181-1.084-.268-.068-.016-.1-.041-.079-.113a8.586,8.586,0,0,1,.229-.852.169.169,0,0,1,.052-.082.322.322,0,0,0,.15-.286.192.192,0,0,1,.132-.2c.172-.082.338-.177.5-.272a.8.8,0,0,0,.309-.316,17.537,17.537,0,0,1,.927-1.713,1.016,1.016,0,0,1,.1-.141,8.933,8.933,0,0,1,.729-.739.336.336,0,0,0,.109-.27.44.44,0,0,0-.143-.289.3.3,0,0,0-.263-.139.379.379,0,0,1-.084-.013c.018-.037.048-.046.075-.061q.481-.31.961-.622c.388-.25.775-.5,1.165-.75.05-.031.075-.057.018-.1-.113-.134-.113-.134-.225-.068l-3.257,2.025c-.1.059-.1.059-.143-.048a7.5,7.5,0,0,1-.247-.766.1.1,0,0,1,.055-.13c.272-.218.525-.463.775-.7A.571.571,0,0,0,19.3,11.5c.02-.161-.086-.245-.232-.186a1.614,1.614,0,0,0-.209.1,9.861,9.861,0,0,1-2.032.8c-.041.011-.075.025-.111-.018a1.25,1.25,0,0,0-.263-.2.069.069,0,0,0-.059-.013.4.4,0,0,0-.252.139c-.15.22-.338.415-.479.645-.161.265-.316.532-.5.784-.034.048-.048.055-.079,0-.2-.352-.4-.7-.6-1.057a2.684,2.684,0,0,0-.214-.32.358.358,0,0,0-.338-.15c-.025,0-.057,0-.066.034a1.036,1.036,0,0,0-.055.313,6.193,6.193,0,0,0,.141.763c.109.433.232.863.361,1.291s.265.834.4,1.252c.011.037.031.068-.018.1s-.166.055-.177.118.048.143.075.214.041.15.082.172.1-.048.154-.075.061-.02.082.027c.118.277.238.552.359.829a.171.171,0,0,1,.007.13,3.914,3.914,0,0,0-.181.682c-.011.066-.036.066-.086.052-.263-.068-.525-.134-.788-.2-.115-.029-.115-.029-.13.088-.057.638-.113,1.267-.172,1.9,0,.057,0,.079.064.086.184.022.366.052.547.079.034,0,.064.007.055.057-.041.214-.075.43-.118.64a.169.169,0,0,0,.031.154c.064.082.125.166.188.25a.181.181,0,0,1,.036.2.19.19,0,0,0-.031.111c.007.393.007.786.025,1.179.009.19.007.382.011.572.009.506.038,1.011.057,1.517.009.247-.034.493-.022.74a.1.1,0,0,0,.079.115c.15.048.3.109.45.157a.265.265,0,0,1,.175.15.412.412,0,0,1,.037.207.157.157,0,0,0,.075.15c.234.168.466.34.7.514.616.454,1.231.911,1.849,1.363.057.043.07.075.037.139s-.052.127-.084.186a.085.085,0,0,0,.017.12l.012.008a2.807,2.807,0,0,1,.225.177.186.186,0,0,1,.046.2c-.013.046-.082,0-.125,0a.6.6,0,0,1-.088-.013c-.293-.048-.583-.123-.881-.15a13.028,13.028,0,0,0-1.428-.066c-.025,0-.064-.022-.07.027s-.016.084.029.111a.422.422,0,0,0,.075.034,4.539,4.539,0,0,1,.763.368,3.038,3.038,0,0,0,.49.254c.031.011.064.037.1,0-.263-.209-.525-.418-.788-.629a.11.11,0,0,1,.093-.013,6.158,6.158,0,0,1,.936.141q1.012.242,2.008.543a2.256,2.256,0,0,1,.645.229.124.124,0,0,1,.07.123,3.418,3.418,0,0,1-.5-.02,10.2,10.2,0,0,0-1.318-.091c-.331.009-.664-.013-.993.009-.468.031-.936.093-1.4.143-.022,0-.059,0-.059.025a.075.075,0,0,0,.057.082.547.547,0,0,0,.106.011c.236.009.47.007.706.011.586.013,1.174-.011,1.761.038a6.285,6.285,0,0,1,.631.048q1.462.272,2.912.583a1.448,1.448,0,0,1,.34.1c-.052.048.324.025,1,.327a.139.139,0,0,1,.059-.127,5.355,5.355,0,0,0,.577-.534,5.705,5.705,0,0,1,.568-.5c.022-.018.041-.046.075-.031l.529.209c-.355.216-.691.422-1.024.625a.225.225,0,0,1-.05.018.769.769,0,0,0-.32.19c-.355.352,1.011-.214.949-.272A12.267,12.267,0,0,1,27.2,29.533c.984-.338,1.987-.609,2.993-.868l-.07-.016c-.066.007-.13.013-.195.018a4.822,4.822,0,0,0-.825.127.23.23,0,0,1-.1.02c.016-.057.193-.247.241-.234.041-.052.064-.07.1-.075a.657.657,0,0,1,.186-.177,1.085,1.085,0,0,1,.15-.082c.15,0,.3-.184.458-.247a2.334,2.334,0,0,0-.681.133c-.466.172-.947.307-1.4.507-.7.307-1.4.613-2.076.979a.775.775,0,0,1-.075.034c-.018-.163-.034-.32-.052-.477,0-.031.011-.046.038-.059.6-.316,1.2-.629,1.821-.888.514-.214,1.022-.445,1.538-.654a4.388,4.388,0,0,0-.349.647.055.055,0,0,0,.064-.016c.106-.113.214-.225.318-.338a3.924,3.924,0,0,1,.666-.607c.018-.075-.011-.059-.031-.055-.234.048-.468.091-.7.145-.075.018-.075-.009-.075-.064,0-.186.025-.368.031-.554a.6.6,0,0,1,.055-.234c.093-.214.186-.424.282-.638a1.329,1.329,0,0,0,.093-.334c.029-.181.052-.366.07-.55.029-.282.13-.547.177-.825a5.376,5.376,0,0,1,.243-1.05c.118-.3.232-.6.352-.9a8.039,8.039,0,0,0,.477-1.22.634.634,0,0,0,0-.434,1.868,1.868,0,0,1-.075-.256.375.375,0,0,1-.011-.193.931.931,0,0,0-.059-.675c-.034-.059.007-.1.041-.132.084-.086.088-.125.016-.218s-.166-.211-.256-.309c-.075-.079-.145-.166-.22-.247C30.3,18.49,30.3,18.469,30.363,18.448ZM27.3,16.363c-.022-.064-.05-.1-.12-.082s-.13-.016-.166-.091a.942.942,0,0,0-.2-.34,1.05,1.05,0,0,0-.382-.109c-.1-.025-.195-.055-.3-.07a1.35,1.35,0,0,1-.579-.259c-.286-.211-.581-.406-.883-.593a1.771,1.771,0,0,1-.286-.057c-.263-.055-.525-.111-.788-.161-.064-.011-.075-.059-.079-.1a.127.127,0,0,1,.061-.136.761.761,0,0,1,.275-.075,9.169,9.169,0,0,1,1.275-.123,1.086,1.086,0,0,1,.3.061.17.17,0,0,0,.157-.027c.2-.136.411-.265.616-.4.031-.02.091-.034.066-.088a.079.079,0,0,0-.013-.02.062.062,0,0,0-.045-.014H26.15a1.1,1.1,0,0,0-.631.188.267.267,0,0,1-.293-.052,6.36,6.36,0,0,0-1.213-1.22c-.193-.168-.382-.343-.586-.5a.156.156,0,0,1-.041-.186c.046-.068.1-.038.159-.013a2.824,2.824,0,0,1,.5.277A18.606,18.606,0,0,0,25.719,13.2a.485.485,0,0,0,.048.025c.086.029.132-.009.118-.1a.252.252,0,0,0-.06-.127c-.461-.543-.947-1.063-1.425-1.592a4.157,4.157,0,0,0-.329-.3.808.808,0,0,1-.209-.263.15.15,0,0,1,.022-.179.091.091,0,0,1,.126-.025l0,0a2.6,2.6,0,0,1,.457.277q.375.286.761.572l.763.57c.02.016.041.031.059.048.048.043.088.088.134.134l.027.027a.334.334,0,0,0,.057.057c.052.031.106.059.161,0a.089.089,0,0,0,.029-.052.064.064,0,0,0,0-.02v-.009a.162.162,0,0,0-.041-.068l-.17-.177c-.1-.1-.19-.193-.3-.282-.329-.275-.668-.541-1.009-.8a5.156,5.156,0,0,0-.563-.329.689.689,0,0,1-.163-.15A.136.136,0,0,1,24.2,10.3c.02-.05.07-.048.113-.052a.344.344,0,0,1,.188.048c.439.216.87.45,1.288.7.034.02.068.041.1.064.234.15.457.32.675.493a1.875,1.875,0,0,1,.268.311c.036.046.011.086-.022.118a.385.385,0,0,1-.082.052c-.029.02-.068.038-.057.082s.052.048.086.055a.259.259,0,0,0,.15-.013c.159-.066.293.046.4.157.027.029.038.088.088.07s.059-.075.055-.13a2.912,2.912,0,0,0-.079-.42,6.569,6.569,0,0,0-.394-1.018c-.05-.121-.1-.241-.154-.361a.173.173,0,0,1,.046-.172c.029-.038.075,0,.115.013a.63.63,0,0,1,.3.313c.075.143.168.275.247.413a7.878,7.878,0,0,1,.413.72,6.983,6.983,0,0,1,.457,1.113,9.2,9.2,0,0,1,.238,1.054c.016.136-.009.268.007.4a1.388,1.388,0,0,1-.115.754.225.225,0,0,0,.011.2c.238.5.436,1.024.634,1.547.025.068.013.1-.057.115-.457.134-.913.272-1.37.411-.066.02-.086,0-.106-.057-.115-.309-.225-.611-.334-.916Zm-2.867,2.88A.9.9,0,0,1,25,19.214l.013,0a5.185,5.185,0,0,1,.729.245.265.265,0,0,1,.106.075,1.919,1.919,0,0,1,.406.384,8.815,8.815,0,0,1,.525.731l-.031-.012h0a.964.964,0,0,1-.174-.1,6.1,6.1,0,0,0-.638-.336,1.388,1.388,0,0,0-.313-.1,3.129,3.129,0,0,0-.861-.038c-.079.007-.161,0-.241,0a.075.075,0,0,1-.086-.086,2.175,2.175,0,0,0-.057-.664c-.013-.046.013-.064.052-.075Zm-.058,1.638.007-.018,0-.013,0-.016,0-.013a.021.021,0,0,1,0-.016v-.117a.028.028,0,0,1,0-.013.038.038,0,0,1,0-.016v-.252c0-.075.025-.106.1-.1s.15,0,.23,0h.07c.038,0,.075,0,.115,0a2.112,2.112,0,0,1,.361.022.953.953,0,0,1,.52.154,2.639,2.639,0,0,1,.263.136c.209.125.418.254.627.382a.367.367,0,0,1,.111.1c.068.1.141.2.211.3.011.016.029.034.013.055a.035.035,0,0,1-.018.013h0a.067.067,0,0,1-.048-.011c-.093-.052-.188-.1-.282-.154a4.5,4.5,0,0,0-1.027-.409l-.094-.025a1.9,1.9,0,0,0-.306-.075l-.143-.031s0,.011.016.022l.011.013a.13.13,0,0,0,.038.031l.018.009c.216.109.579.177.845.3h0l-.013-.007-.088-.041-.025-.011h0l.025.011.088.041.011.005h0l.059.029a2.93,2.93,0,0,1,.415.275l.254.195a1.881,1.881,0,0,1,.729,1.106.292.292,0,0,0,.009.041l.009.013a.118.118,0,0,1,.016.091.033.033,0,0,0,0,.02c0,.066-.057.038-.086.038a2.368,2.368,0,0,1-.577-.1h-.006c-.049-.014-.112-.036-.157-.05-.2-.07-.388-.154-.581-.225a2.634,2.634,0,0,1-.627-.391,7.357,7.357,0,0,1-.947-.772.322.322,0,0,1-.075-.1c-.02-.048-.041-.1-.059-.145l-.034-.088c-.007-.018-.013-.036-.022-.057v-.013h0v-.009a.159.159,0,0,1,0-.1Zm1.43.139-.02-.007h0Zm-.029-.011h0c-.016,0-.029-.011-.046-.016l-.018-.006.018.006C25.746,21,25.759,21,25.776,21.009Zm-.45-.15h0l-.013,0Zm-.116-.037V20.8a.106.106,0,0,0,.026.007h0c-.01.007-.026,0-.031.018Zm-.9-1.515a.081.081,0,0,0-.005.028A.075.075,0,0,1,24.31,19.308Zm-.1,2.01c.007-.022.019-.033.032-.03h0c.007,0,.013.009.02.022a1.454,1.454,0,0,0,.284.375c.118.113.245.218.368.329q.382.344.775.675a1.433,1.433,0,0,0,.586.272,13.3,13.3,0,0,0,1.49.241.682.682,0,0,1,.355.15h-.007l.022.018a6.916,6.916,0,0,0-.838-.043,6.737,6.737,0,0,0-.909.064.933.933,0,0,1-.318-.025,5.071,5.071,0,0,1-.841-.3,2.917,2.917,0,0,1-.815-.556l-.055-.052a.948.948,0,0,1-.192-.265v-.01a1.014,1.014,0,0,1-.015-.67c.018-.066.038-.132.059-.2ZM26.67,25.3h-.059c-.036,0-.075.009-.109.011a.081.081,0,0,0-.082.055c-.016.036-.037.068-.055.1l-.007.016a1.452,1.452,0,0,1-.3.454c-.027.029-.057.057-.086.084-.075.068-.154.132-.236.193a1.845,1.845,0,0,1-.443.211l-.034.013-.031.013-.018.007-.029.009c-.034.013-.061.034-.043.086a.106.106,0,0,0,.111.075.233.233,0,0,0,.038,0,.578.578,0,0,0,.141-.031c.046-.016.091-.037.139-.057.031-.013.064-.027.1-.039a2.918,2.918,0,0,1-.079.322c-.007.018-.013.034-.02.05-.027.061-.055.121-.084.181-.018.041-.038.079-.059.118a3.563,3.563,0,0,1-.384.62c-.031.041-.064.075-.1.113a1.6,1.6,0,0,1-.238.209c-.031.022-.064.046-.1.068q-.1.061-.2.115c-.055.029-.106.055-.161.079l-.061.027-.05.02-.041.016c-.038.016-.075.029-.115.043a.173.173,0,0,1-.036.011c-.041.013-.082.027-.123.038q-.191.057-.386.1c-.05.011-.1.02-.154.029h-.018l-.154.025-.166.022a2.04,2.04,0,0,1-.552-.016.066.066,0,0,1-.02,0l-.027-.007a.643.643,0,0,1-.136-.057c-.059-.031-.113-.066-.172-.1q-.061-.031-.123-.068a1.764,1.764,0,0,1-.15-.1.6.6,0,0,1-.22-.263,1.7,1.7,0,0,0-.086-.184c-.009-.018-.02-.034-.029-.05a2.572,2.572,0,0,0-.261-.347c-.039-.046-.075-.091-.118-.134-.02-.022-.039-.046-.059-.066-.079-.088-.161-.177-.245-.261L20.673,27a2.637,2.637,0,0,0-.272-.234.838.838,0,0,0-.075-.052,2.634,2.634,0,0,0-.229-.15l-.057-.034-.057-.027a1.494,1.494,0,0,1-.586-.7l-.01-.019a.2.2,0,0,0-.208-.117.6.6,0,0,1-.238-.046h0a.432.432,0,0,1-.125-.079l-.024-.015a.811.811,0,0,1-.055-.085,5.011,5.011,0,0,1-.365-.623v.007l-.005-.013v.005c-.022-.062-.043-.124-.069-.185-.012-.028-.024-.055-.034-.081a.361.361,0,0,1-.016-.1.328.328,0,0,1,0-.048l.007-.029,0-.013a.136.136,0,0,1,.018-.032.435.435,0,0,1,.12-.134l.064-.048c.043-.031.088-.059.132-.088.068-.041.136-.079.207-.115a3.894,3.894,0,0,1,.811-.3l.05-.011c.031-.007.066-.009.1-.013a.757.757,0,0,1,.1,0h.1a.367.367,0,0,0,.05,0c.113,0,.225-.011.34-.018q.256-.017.511-.041c.17-.016.34-.034.511-.052a3.314,3.314,0,0,0,.89-.225c.059-.025.118-.052.175-.079.034-.018.07-.034.1-.052l.059-.031c.136-.075.272-.143.4-.22a.089.089,0,0,1,.052-.031h.009v.011a.056.056,0,0,1-.018.031l-.02.013a3.628,3.628,0,0,1-.47.424c-.016.013-.031.027-.048.043-.05.041-.1.084-.157.13a2,2,0,0,0,.565-.075,1.565,1.565,0,0,0,.691-.413,1.736,1.736,0,0,0,.132-.154A2.3,2.3,0,0,0,24,22.412a1.582,1.582,0,0,0,.355.543l.027.036.027.037a.225.225,0,0,0,.057.057.425.425,0,0,0,.043.031.528.528,0,0,1,.043.031l.02.016c.1.079.2.154.3.229.068.05.136.1.207.145.1.075.209.143.311.216a3.044,3.044,0,0,0,.443.252l.115.052c.118.05.236.093.359.132l.02.007a1.6,1.6,0,0,0,.236.037c.029,0,.059.007.086.009a.184.184,0,0,1,.057.022.389.389,0,0,1,.064.048.43.43,0,0,1,.141.209.07.07,0,0,1,0,.022l0,.009c-.009.016-.022.029-.031.046-.027.048-.057.1-.079.145l-.011.025a.3.3,0,0,0,0,.247,1.539,1.539,0,0,0,.277-.357.99.99,0,0,0,.052-.111.835.835,0,0,0,.029-.079c.009-.025,0-.055.009-.079s-.022-.066-.009-.084l0,0,.013-.007.025,0a.4.4,0,0,1,.052,0,.433.433,0,0,1,.132.02c.027.009.018.043.016.068v0a.724.724,0,0,1-.068.229.517.517,0,0,1-.022.052,1.584,1.584,0,0,1-.181.355.592.592,0,0,1-.45.293Zm.247.427c-.029.159-.055.316-.082.475a.42.42,0,0,1-.046.157l-.007-.041-.011.022a5.019,5.019,0,0,1-.07-.668c0-.05.031-.061.064-.075.052-.018.118-.075.15-.05l.011.013.007,0c.041.031-.007.1-.018.159ZM23.558,29.1a1.659,1.659,0,0,1-.259.02,1.159,1.159,0,0,1-.263-.029.07.07,0,0,1-.062-.078v0c0-.025.02-.025.039-.025a.1.1,0,0,1,.036,0h.245a1.078,1.078,0,0,0,.225-.022.116.116,0,0,1,.039,0c.029,0,.052,0,.055.05s.009.075-.057.086Zm-4.232-2.04h0a5.284,5.284,0,0,0,.052-.568c0-.038.025-.034.048-.013s.07.07.106.1h0l.013.013a.046.046,0,0,1,.011.057c-.07.143-.141.284-.211.424l-.022-.007v-.011Zm7.312-3.149a1.7,1.7,0,0,0-.241-.022.859.859,0,0,1-.427-.15h.016l-.034-.018a.371.371,0,0,1,.07,0l.079.013a2.118,2.118,0,0,0,.666-.041,1,1,0,0,1,.62.168h-.011c.009,0,.018.011.029.016a3,3,0,0,1-.768.029Zm-8.512-2.9a4.385,4.385,0,0,1,.247-.411c.046-.066.091-.132.139-.195.022-.031.048-.064.075-.1q.109-.143.225-.28c.075-.091.154-.181.234-.272s.159-.179.236-.27a.868.868,0,0,1,.109-.093l.024-.028c.075-.064.139-.13.225-.2l.011-.009.064-.059a4.867,4.867,0,0,1,.754-.552c.027-.017.054-.033.081-.048a1.1,1.1,0,0,1,.1-.045.14.14,0,0,1,.027-.011q.082-.034.163-.061l.111-.034c.132-.038.263-.07.393-.111a2.351,2.351,0,0,1,.74-.109H22.2a1.56,1.56,0,0,1,.538.157c.075.034.15.066.225.1l.055.027c.055.027.111.055.163.086l.106.061c.034.022.07.043.1.068a1.836,1.836,0,0,1,.2.157,1.57,1.57,0,0,1,.439.682,2.6,2.6,0,0,1,.123.583,1.643,1.643,0,0,1-.091.561c-.007.027-.018.034-.027.031s-.02-.02-.031-.034l-.2-.236a1.992,1.992,0,0,0-.986-.647,3.935,3.935,0,0,0-.94-.145,3.62,3.62,0,0,0-.761.086c-.2.038-.4.07-.6.106a1.6,1.6,0,0,0-.366.134l-.171.075-.017,0a4.706,4.706,0,0,0-.97.54,1.518,1.518,0,0,0-.229.205l-.009.008-.061.061c-.143.139-.284.28-.439.406a2.053,2.053,0,0,1-.254.252,1.336,1.336,0,0,1,.139-.45Zm-.06.914a.27.27,0,0,1,.039-.05,11.473,11.473,0,0,1,.967-.913A4.791,4.791,0,0,1,21.017,20a2.534,2.534,0,0,1,.541-.066c.209,0,.418-.009.625-.016a1.95,1.95,0,0,1,1.1.307,1.923,1.923,0,0,1,.343.269l.013.013a2.037,2.037,0,0,1,.3.388.525.525,0,0,1,.029.391,1.789,1.789,0,0,1-.561.934,5.017,5.017,0,0,1-.854.613,3.224,3.224,0,0,1-1.36.45c-.6.088-1.2.1-1.8.177-.218.027-.439.046-.656.084a1.013,1.013,0,0,0-.643.388,2.205,2.205,0,0,0-.15.286.182.182,0,0,1-.009-.034.5.5,0,0,1,.034-.338,1.06,1.06,0,0,1,.5-.511,5.468,5.468,0,0,1,1.252-.355c.34-.086.691-.136,1.029-.229a6.844,6.844,0,0,0,1.35-.52,1.621,1.621,0,0,0,.62-.459.691.691,0,0,0,.113-.525c0-.031-.013-.048-.025-.05s-.027.007-.048.025a4.688,4.688,0,0,1-.541.424,3.149,3.149,0,0,1-.982.4,9.922,9.922,0,0,1-1.669.293,4.58,4.58,0,0,0-1.172.229,2.43,2.43,0,0,0-.909.463,1.53,1.53,0,0,1-.123.093l.007-.036-.025.018v0a.131.131,0,0,1,.022-.016.567.567,0,0,1,.079-.188q.3-.484.611-.967Zm2.267.6.495-.082.086-.016a1.177,1.177,0,0,1-.325.1c-.529.132-1.07.209-1.606.309a2.463,2.463,0,0,0-1.045.461.541.541,0,0,1-.059.041c-.025.016-.037.011-.041-.009a.046.046,0,0,1,0-.018.225.225,0,0,1,.157-.259c.17-.075.34-.159.511-.238a2.19,2.19,0,0,1,.7-.159c.375-.041.75-.088,1.125-.132Zm-.019-.018Zm-1.939-8.869c.009.025.011.046-.016.061l-.243.15a.4.4,0,0,1-.043.018.3.3,0,0,0-.029-.048l-.511-.586c-.022-.027-.046-.052,0-.075.168-.1.3-.25.472-.331.046-.02.061-.022.084.027.113.254.19.525.286.786Zm-1.386-1.2c.241-.086.477-.184.715-.28a9.784,9.784,0,0,0,.984-.5c.034-.018.066-.041.1-.059s.055-.055.093-.034.029.075.029.127-.025.1-.075.15c-.327.3-.668.593-1.018.872a2.924,2.924,0,0,1-.463.247c-.031.016-.05,0-.068-.022-.113-.145-.225-.293-.338-.439-.043-.052.016-.05.043-.061Zm-2.061,3.108c-.259-.8-.532-1.6-.75-2.415-.05-.188-.07-.386-.106-.579a.1.1,0,0,1,.064-.106c.05-.025.052.034.07.057a14.57,14.57,0,0,1,.893,1.577c.086.159.184.313.277.47.018.029.031.055.075.039s.041-.05.031-.086a3.149,3.149,0,0,0-.181-.466.171.171,0,0,1,0-.15c.13-.268.311-.5.454-.759.132-.234.3-.443.427-.679a.2.2,0,0,1,.316-.046.975.975,0,0,1,.17.216,3.877,3.877,0,0,0,.611.7c.154.154.311.3.475.445a.493.493,0,0,1,.093.181.037.037,0,0,1-.013.05l0,0a.168.168,0,0,0-.029.018.337.337,0,0,1-.418.018,3.011,3.011,0,0,1-.817-.611.24.24,0,0,0-.027-.022c-.109-.082-.113-.075-.161.048s-.082.259-.139.382c-.02.043.011.088.043.121s.061.093.127.084a.058.058,0,0,0,.052-.052c.016-.075.037-.15.057-.243a8.522,8.522,0,0,0,.795.552l-.263.15q-1.012.569-2.025,1.141c-.055.029-.075.036-.1-.031Zm.236.525c-.025-.052-.016-.075.031-.1q1.224-.755,2.445-1.518c.043-.027.084-.011.125-.02a1.246,1.246,0,0,0,.406-.154c.009-.007.025-.011.029-.02a.8.8,0,0,1,.463-.349,5.807,5.807,0,0,0,1.125-.6.174.174,0,0,1,.225.007.2.2,0,0,1,.075.207.525.525,0,0,1-.15.275A5.23,5.23,0,0,0,19.1,14.83a7.81,7.81,0,0,0-.591,1.05.727.727,0,0,1-.139.195,2.43,2.43,0,0,1-.808.6.161.161,0,0,0-.1.15c0,.057-.022.111-.027.168a.454.454,0,0,1-.179.361.214.214,0,0,0-.057.118l-.259.865a.044.044,0,0,1,0,.018c0,.013,0,.029-.016.036a.15.15,0,0,1-.106-.02c-.422-.1-.841-.2-1.258-.316-.052-.011-.1-.027-.157-.034-.084-.011-.091-.05-.052-.113a1.875,1.875,0,0,1,.282-.754.116.116,0,0,0,0-.145c-.179-.3-.316-.622-.466-.936Zm-.879,3.465-.034-.007c-.041-.011-.055-.037-.048-.093q.075-.675.145-1.35a.062.062,0,0,1,0-.029l0-.013a.037.037,0,0,1,.036-.018.127.127,0,0,1,.037.007l1.83.484L18.095,19c.059.016.075.034.057.1l-.263.863c-.009.034-.016.07-.055.07h-.018c-.327-.046-.654-.088-.982-.134l-.638-.088c-.634-.091-1.275-.177-1.91-.263Zm.5.872a.111.111,0,0,1,0-.082.279.279,0,0,1,.016-.039l0,.013a.263.263,0,0,1-.02.106ZM20.4,28.893h0c-.022,0-.025.016-.036.022l-.018.013a.344.344,0,0,1-.036.025.182.182,0,0,0-.075.082v.022h.007v.013c-.022.066-.034.113-.046.15,0,.009-.007.016-.009.022l-.009.016-.009.011a.043.043,0,0,1-.022.011h-.007a.157.157,0,0,1-.048-.011l-.13-.046-.011,0-.011,0-.025-.011H19.9V29.2h0c-.068-.022-.132-.036-.193-.061-.037-.013-.075-.025-.113-.041a.652.652,0,0,0-.143-.034c-.132-.046-.265-.068-.393-.113a.234.234,0,0,1-.041,0h0c-.091-.018-.163-.041-.25-.057a.111.111,0,0,1-.112-.14.871.871,0,0,0,0-.109V28.6c-.013-.022-.034-.05-.052-.079a.129.129,0,0,1-.013-.025c-.011-.011-.034-.022-.034-.036-.022,0-.013-.009-.02-.013-.07-.066-.05-.154-.041-.238v-.027l.007-.052a.045.045,0,0,1,0-.025c.037-.141.046-.275-.106-.359-.018-.011-.029-.022-.052-.039v0c-.068-.055-.143-.111-.214-.157-.011-.022-.013-.027-.037-.036a1.341,1.341,0,0,1-.293-.216c-.022-.013-.048-.025-.07-.038h.016c-.013-.022-.029-.02-.041-.031a.625.625,0,0,0-.057-.037c-.114-.1-.268-.188-.391-.3a.34.34,0,0,1-.1-.075v-.007c-.12-.084-.238-.166-.357-.256h0c-.013,0-.013-.011-.037-.022a1.3,1.3,0,0,1-.195-.136.058.058,0,0,0-.055-.022c-.055-.046-.1-.066-.15-.106-.018-.011-.034-.025-.057-.039a2.061,2.061,0,0,1-.375-.272l-.011-.011-.02-.022a.178.178,0,0,1-.025-.041.174.174,0,0,1-.011-.037v.018a2.983,2.983,0,0,1-.2-.284l-.007-.013a.032.032,0,0,1,0-.013.1.1,0,0,1,0-.025.111.111,0,0,1,.022-.05V25.46a1.875,1.875,0,0,1,.159-.413v-.034a.175.175,0,0,0,0-.029l0-.013,0,0a.035.035,0,0,0-.016-.009H15.8a.116.116,0,0,0-.055.02.3.3,0,0,0-.052.041l-.018.013-.013.018-.011.008h0a1.381,1.381,0,0,1-.172.145c-.011.011-.031.025-.031.037h-.01a.052.052,0,0,1-.068.011c-.1-.043-.195-.084-.293-.13a.082.082,0,0,1-.038-.059l-.007-.029-.007-.025v0a.889.889,0,0,1,.05-.413.181.181,0,0,0,0-.034,3.353,3.353,0,0,1,.07-.4v-.06h0c-.021-.145-.021-.289-.032-.434V23.6c-.013-.271-.031-.541-.041-.811-.02-.565-.066-1.129-.05-1.695a.632.632,0,0,0-.07-.3c-.027-.052-.059-.1-.093-.154a.25.25,0,0,1-.046-.225c.034-.132.059-.268.084-.4.011-.064.029-.1.1-.075a.375.375,0,0,0,.088.009c.121.027.245.029.366.059a.068.068,0,0,1,.031.009,2.052,2.052,0,0,1,.343.046.075.075,0,0,1,.037.009c.136.018.272.034.409.057a.15.15,0,0,1,.088.016h.011c.159.018.284.029.42.052h-.01V20.2c.091.011.15.022.22.034a1.468,1.468,0,0,0,.218.029h.016l.02,0a.068.068,0,0,1,.07.066h0c.036.216.066.432.111.647,0,.016.009.029.007.043.007.037.011.07.018.1.02.1.038.209.059.313a.15.15,0,0,0,0,.034v.009c.022.136.048.259.07.388v.052a1.623,1.623,0,0,0-.123.15,1.523,1.523,0,0,0-.161.284c-.029.07-.066.143-.1.214h0a1.456,1.456,0,0,1-.093.211l-.007.009c0,.009-.007.022-.011.029h0a3.215,3.215,0,0,1-.13.3c-.016.031-.034.064-.052.1s-.022.036-.022.052a1.105,1.105,0,0,1-.086.252.715.715,0,0,1-.07.214,1.988,1.988,0,0,1-.123.375.16.16,0,0,0-.018.052v.007l-.009.027a.143.143,0,0,1-.009.029v.009c-.011.234-.025.468-.036.7l.02.007c.029-.059.059-.115.088-.175s.052-.115.084-.175a.343.343,0,0,0,.048-.123c.068-.114.13-.225.2-.331.007-.011.02-.018.027-.041.059-.091.127-.211.2-.316.025-.04.051-.075.075-.115h0c.016-.046.041-.052.061-.075a.207.207,0,0,1,.075-.061.384.384,0,0,1,0,.05v.009a.119.119,0,0,1-.007.027v.009l0,.018a.051.051,0,0,0,0,.018c0,.007,0,.011,0,.018a.051.051,0,0,1,0,.013h0a3.4,3.4,0,0,0-.022.433c0,.007,0,.018,0,.022h0c.018.136.041.272.059.409h0a.154.154,0,0,1,0,.041c.022.136.052.274.068.413v.016a.1.1,0,0,1,0,.025,1.12,1.12,0,0,0,.154.28c.036.052.075.113.109.159h0a4.189,4.189,0,0,0,.336.293c.018,0,.036.022.055.022h0v.016c.046,0,.084.041.132.027a.083.083,0,0,0,.025-.011c.007,0,.016-.009.018-.016s-.009-.031-.025-.038c-.186-.118-.157-.311-.179-.493h.007a1.543,1.543,0,0,1,.115.132.118.118,0,0,0,.022.025l.048.052a1.011,1.011,0,0,0,.1.1.735.735,0,0,0,.118.084c.018.007.037.022.052.022h0c.136.066.254.13.379.195a.141.141,0,0,1,.075.034,1.05,1.05,0,0,1,.086.431s.009.016.011.027a.062.062,0,0,1,0,.029,1.554,1.554,0,0,1,0,.4.042.042,0,0,1,0,.036v.011h0a1.526,1.526,0,0,1-.037.393,3.763,3.763,0,0,1-.057.384l0,.016c-.007.025-.018.055.036.048h0c.123-.127.245-.252.359-.4v0h0v0a.126.126,0,0,1,.055-.091,1.5,1.5,0,0,0,.143-.188l.143-.195v-.011a.07.07,0,0,1,.027-.043l.013,0h.013a.127.127,0,0,1,.048.018.788.788,0,0,1,.075.046,1.147,1.147,0,0,1,.393.254c.011.011.025.013.037.036a.365.365,0,0,1,.125.125l.036.034.007,0c.179.15.193.234.064.436,0,.007-.011.013-.016.013a.225.225,0,0,1-.022.052.246.246,0,0,1-.018.034l-.009.016a.566.566,0,0,0-.084.175.418.418,0,0,0-.011.159c.025.088.048.179.066.27a1.322,1.322,0,0,1,.027.166.246.246,0,0,1-.159.272ZM21,30c-.029.037-.034.111-.082.1H20.9a.59.59,0,0,1-.252-.082c-.027-.018-.02-.052-.02-.084v-.43c0-.029.011-.064-.018-.084-.1-.064-.075-.172-.1-.263-.009-.037.016-.055.036-.075.088-.1.175-.195.263-.293a.169.169,0,0,0,.041-.211.5.5,0,0,1,0-.459c.052-.123.086-.252.134-.4L21,27.74h0a2.205,2.205,0,0,1,.236.318,1.449,1.449,0,0,0,.627.62,1.138,1.138,0,0,0,.391.181h.017c.016,0,.038,0,.034.022s-.016.013-.029.011h-.007a.028.028,0,0,1-.013,0,2.592,2.592,0,0,0-.466.064c-.081.017-.16.036-.241.055s-.145.033-.217.048l-.013,0h0c-.031.007-.046.022-.041.055a.067.067,0,0,0,.064.068,1.234,1.234,0,0,0,.247.016H21.6a2.37,2.37,0,0,0,.334-.031,2.293,2.293,0,0,1,.375-.029,2.467,2.467,0,0,1,.364.027,4.971,4.971,0,0,0-1.111.45c-.19.079-.338.232-.52.329-.013.016-.02.041-.034.057Zm1.177.3v0h-.016a.028.028,0,0,1-.011-.011l-.815-.2c.093-.075.161-.118.275-.075.186.075.359.175.538.259a.04.04,0,0,1,.027.009s0,0,0,.011v0Zm1.86-.338c-.209.168-.415.338-.611.525a.1.1,0,0,1-.135.017l0,0a8.831,8.831,0,0,0-1.038-.516c-.157-.066-.322-.093-.484-.15.018-.034.052-.034.079-.043.347-.13.7-.245,1.042-.4a.45.45,0,0,1,.263,0,.583.583,0,0,0,.375-.043.075.075,0,0,1,.068-.009c.263.109.525.218.8.329-.125.1-.241.2-.355.289Zm1.626-1.154a.475.475,0,0,0-.075.463.307.307,0,0,1-.141.411l-.031.013a.216.216,0,0,1-.114.034.119.119,0,0,1-.084-.027,4.732,4.732,0,0,0-1.174-.468,1.466,1.466,0,0,0-.17-.055c-.068-.016-.064-.061-.055-.109s.025-.038.043-.036a.43.43,0,0,1,.059.013,11.133,11.133,0,0,1,1.35.375.186.186,0,0,0,.041.011c.031,0,.041-.034.036-.075-.009-.1-.018-.2-.136-.256a2.649,2.649,0,0,0-.922-.22c-.048,0-.093-.007-.141-.009a4.489,4.489,0,0,0,.675-.384.945.945,0,0,0,.07-.064l.375-.457c.016-.025.029-.05.046-.075l.011.007.007-.007a.1.1,0,0,1,.048.07c.1.234.188.47.284.7a.127.127,0,0,1-.007.141Zm4.858-9.652a.062.062,0,0,1,.013.022.022.022,0,0,1,0,.02.039.039,0,0,1-.013.013l-.009.013h0l0,.009v0h0v.007a.256.256,0,0,0,.009.393.075.075,0,0,1,.013.034c.091.12.016.241,0,.361a.02.02,0,0,1-.013.02h-.007a.113.113,0,0,1-.027,0h-.009c-.079-.022-.159-.048-.238-.075-.007,0-.011,0-.018-.007s-.011-.007-.018-.007a.268.268,0,0,1-.111-.018.238.238,0,0,0-.277.048.053.053,0,0,1,0,.018.268.268,0,0,0,.159.088,4.289,4.289,0,0,1,.643.329.139.139,0,0,1,.055.143.825.825,0,0,1-.018.1l-.068.293a.12.12,0,0,1-.018.075c0,.159-.109.277-.161.413a.121.121,0,0,0-.018.038,3.052,3.052,0,0,1-.123.282c0,.007-.009.016-.011.022h0v0l0,.009,0,.007a.246.246,0,0,1-.055.125,1.81,1.81,0,0,1-.177.409.067.067,0,0,0-.016.034c-.059.136-.121.3-.179.45-.013.055-.025.109-.038.161L29.769,23v0s0,.009-.007.013a.426.426,0,0,1-.034.181c-.011.037-.02.075-.031.113l0,.018q-.1.433-.19.863c-.052.236-.075.477-.111.713s-.046.45-.1.67a2.311,2.311,0,0,1-.2.454,4.389,4.389,0,0,1-.195.42l-.007.013a.155.155,0,0,0-.011.029.021.021,0,0,1,0,.016l-.007.031a.172.172,0,0,0,0,.034.172.172,0,0,1,0,.034v.037a.679.679,0,0,1,0,.068,6.06,6.06,0,0,0-.038.731.075.075,0,0,1-.055.086l-.055.02a.988.988,0,0,0-.106.046l-.057.022a.621.621,0,0,1-.093.031v0l-.011,0-.125.052-.088.037a.6.6,0,0,1-.2.086L28,27.85c-.143.064-.293.13-.43.193a.076.076,0,0,1-.018.007,1.771,1.771,0,0,0-.234.1l-.25.106c-.132.059-.263.113-.4.172h-.016c-.12.046-.245.111-.359.163a1.686,1.686,0,0,1-.168.075c-.1.041-.127.036-.15-.07-.068-.05-.075-.134-.1-.2s-.046-.143-.068-.211c0-.022-.016-.018-.016-.031a.31.31,0,0,1-.034-.093v-.016c-.007,0-.007-.011-.009-.018l-.007-.016h0c-.031-.1-.066-.188-.088-.284a1.232,1.232,0,0,1-.075-.19.162.162,0,0,1,0-.066l.007-.031a.021.021,0,0,1,0-.016,1.468,1.468,0,0,1,.07-.132c.016-.037.029-.075.046-.109a1.06,1.06,0,0,0,.046-.109c.037-.068.059-.15.1-.225a.256.256,0,0,1,.018-.055c.041-.139.086-.28.141-.413,0,0,0-.011,0-.016.016-.082.093-.111.139-.159h0c.022-.007.034-.02.046-.02a.2.2,0,0,1,.041-.046c.025-.029.048-.061.07-.093A.561.561,0,0,0,26.354,26c.043-.064.082-.13.13-.193.016-.02.029-.052.055-.052h.011c.037.009.025.052.02.079a.832.832,0,0,0,0,.309c.011.079.025.159.031.238v.036a.547.547,0,0,1,.034.179c.018.075.034.15.057.229a3.086,3.086,0,0,1,.163.43h0c.075.113.154.245.232.37a.9.9,0,0,0,.07.084h0v.018c.022,0,.034.05.068,0-.007-.022-.011-.022-.018-.022a.424.424,0,0,1-.029-.075.471.471,0,0,1-.013-.048.361.361,0,0,1-.011-.048.041.041,0,0,0,0-.022.274.274,0,0,0-.009-.046c0-.022-.007-.046-.011-.07s-.007-.048-.011-.07a.033.033,0,0,1-.007-.025.128.128,0,0,0-.009-.027A.51.51,0,0,0,27.1,27.2l-.02-.163c0-.027-.011-.055-.013-.082a3.439,3.439,0,0,1,.034-.89h.013c.027-.136.055-.293.082-.441h.022a2.842,2.842,0,0,0,.07.733.038.038,0,0,1,0,.016c.034.093.07.186.1.282.007.02.013.041.02.059a.247.247,0,0,0,.027.055.325.325,0,0,0,.025.034c.007.011.02.022.02.034a.592.592,0,0,1,.052.057c.013.016.025.034.038.05.048.046.1.088.157.15-.007-.048-.011-.088-.016-.132s-.011-.082-.016-.127c0,0-.011-.007-.011-.011a.784.784,0,0,0-.035-.1c-.013-.1-.025-.209-.039-.311a.093.093,0,0,1,0-.025.236.236,0,0,1,0-.025,2.561,2.561,0,0,1-.018-.393v-.016a.088.088,0,0,1-.007-.031,1.065,1.065,0,0,1,0-.318c0-.031,0-.066,0-.1V25.48a1.491,1.491,0,0,1,.052-.45v-.016c.011-.068.022-.15.034-.225s.022-.15.031-.225c0-.031.013-.048.031-.048a.075.075,0,0,1,.038.016c.016.009.031.02.048.029a.773.773,0,0,1,.07.046.478.478,0,0,1,.066.052l.009.007.016.011h0a1.174,1.174,0,0,1,.355.338.238.238,0,0,1,.05.046.294.294,0,0,1,.055.1,1.024,1.024,0,0,1,.159.3.146.146,0,0,0,.009.029c0,.009.007,0,.009.027a.328.328,0,0,1,.041.079c.011.027.02.055.031.079s.011.025.018.039a.082.082,0,0,0,.016.022.065.065,0,0,0,.039.022c.025-.084-.034-.163-.011-.243h.008c0-.022-.007-.022-.007-.034a1.623,1.623,0,0,0-.1-.429.267.267,0,0,1,0-.037,2.091,2.091,0,0,0-.161-.4.1.1,0,0,1-.034-.059.244.244,0,0,1-.052-.075l-.036-.059v.016l0-.007h0a2.608,2.608,0,0,0-.209-.263l-.009-.009c-.009-.009-.018-.009-.027-.031A.8.8,0,0,1,27.971,24c-.007-.007-.013-.009-.018-.016s0-.009-.022-.016c-.113-.075-.2-.172-.3-.241-.018-.022-.041-.009-.05-.046a7.024,7.024,0,0,1,.872.034V23.7h0a1.675,1.675,0,0,1,.413.106s.009.007.016.007v0a1.292,1.292,0,0,1,.263.1c.018.009.041.039.061.011s-.009-.043-.022-.061c-.034-.048-.066-.1-.1-.143-.007-.011-.018-.022-.018-.034-.068-.066-.121-.141-.179-.207a.775.775,0,0,1-.057-.061,1.1,1.1,0,0,1-.2-.161c-.011-.007-.022-.02-.034-.02-.029,0-.061-.031-.091-.052s-.061-.038-.091-.059l-.034-.018c-.139-.052-.277-.1-.415-.15,0,0-.013,0-.013,0h-.016a.1.1,0,0,1-.068-.027.075.075,0,0,1-.025-.034l0-.011a.129.129,0,0,1-.007-.059.915.915,0,0,0-.011-.209.552.552,0,0,0-.011-.059L27.8,22.5c0-.018-.009-.039-.013-.059s-.016-.061-.022-.084a.009.009,0,0,1-.009-.009,3.42,3.42,0,0,0-.118-.413c-.007-.018-.009-.031-.016-.055a.349.349,0,0,1-.055-.159.4.4,0,0,1,0-.052v-.025a.479.479,0,0,1,.018-.075c.009-.034.02-.068.031-.1v-.016h0a3.617,3.617,0,0,1,.139-.443l0,0L27.763,21l0,0a.251.251,0,0,0,.05-.175.309.309,0,0,0-.025-.1,1.162,1.162,0,0,0-.057-.12.033.033,0,0,0-.013-.011l0-.007a1.132,1.132,0,0,1-.2-.336c0-.011-.011-.025-.016-.037L27.5,20.2v-.007l-.007-.016h0v0a.266.266,0,0,1,.011-.041l.013-.025a.15.15,0,0,1,.018-.02l.009-.007c.061-.088.118-.181.186-.268a.245.245,0,0,0,.048-.238c-.039-.13-.034-.132.1-.179.022-.009.3-.113.409-.15l.07-.027.018-.007.052-.02c.143-.055.286-.106.43-.159a.038.038,0,0,1,.016,0,3.107,3.107,0,0,1,.418-.159.334.334,0,0,1,.057-.018c.022-.018.091-.034.113-.052.113-.037.2-.088.307-.111.15-.113.272-.066.375.075a.472.472,0,0,1,.041.029c.02.018.027.039.05.061.093.106.2.211.293.316Zm-3.194.125-.037.009c-.034,0-.052-.011-.075-.052q-.31-.559-.627-1.113c-.027-.048-.037-.075.031-.091l4.025-1.179c.013,0,.029-.007.057-.013v0h0c-.019.242-.04.471-.058.7-.013.168-.027.338-.041.506a.119.119,0,0,1-.088.123Q28.924,18.722,27.331,19.28Zm-6.608,5.1c.375.031.75.106,1.125.159a.423.423,0,0,1,.15.034.477.477,0,0,1,.214.275,1.774,1.774,0,0,1,.1.534.392.392,0,0,1-.136.359.525.525,0,0,0-.188.263.416.416,0,0,1,.366.15,1.518,1.518,0,0,0,.211.207.358.358,0,0,0,.554-.075c.055-.088.106-.179.166-.265a.681.681,0,0,1,.307-.3c.088-.029.05-.075.02-.109a.2.2,0,0,0-.265-.018,1.528,1.528,0,0,0-.361.355.606.606,0,0,1-.106.109.1.1,0,0,1-.143,0l-.007-.008a2.189,2.189,0,0,0-.168-.159.094.094,0,0,1-.04-.128l.007-.012a.689.689,0,0,0,.075-.391,1.345,1.345,0,0,0-.284-.82c-.022-.025-.022-.038.009-.061a.889.889,0,0,0,.386-.664c.007-.07-.007-.127-.064-.15s-.093.038-.118.084a3.389,3.389,0,0,1-.195.277.383.383,0,0,1-.4.145c-.541-.084-1.081-.139-1.626-.17-.027,0-.055-.009-.075.009a1.489,1.489,0,0,0-.457.443l.018.007a.453.453,0,0,0,.052-.009,2.665,2.665,0,0,1,.873-.068Zm5.05.211q-.2.1-.393.211a.3.3,0,0,1-.106.046,3.815,3.815,0,0,1-.684.07.643.643,0,0,1-.347-.123.272.272,0,0,1-.139-.19.2.2,0,0,1,.1.007,1.95,1.95,0,0,0,.361.052,3.22,3.22,0,0,0,.85-.2c.091-.031.179-.066.268-.1.041-.013.052-.027.016-.066a.134.134,0,0,0-.139-.031,5.324,5.324,0,0,1-1.77-.043c-.17-.031-.352-.043-.418-.254a1.488,1.488,0,0,1-.048-.172.351.351,0,0,0-.088-.161.084.084,0,0,0-.082-.035c-.036.009-.034.048-.034.075a2.458,2.458,0,0,0,.018.286.6.6,0,0,0,.106.291.8.8,0,0,0,.481.316c.15.034.15.036.161.188a.184.184,0,0,0,.075.161.783.783,0,0,0,.343.139.413.413,0,0,1,.229.064.551.551,0,0,0,.3.093c.079.007.161.009.241.022a.169.169,0,0,0,.15-.048c.225-.186.45-.375.658-.583a.085.085,0,0,0-.1-.011Zm-1.865,1.837a.046.046,0,0,0-.075-.02,1.536,1.536,0,0,1-.579.13c-.084.011-.188-.013-.25.048-.15.15-.277.086-.409-.018a.075.075,0,0,0-.022-.013.525.525,0,0,0-.591,0,.319.319,0,0,1-.252.064.172.172,0,0,0-.179.036.718.718,0,0,1-.1.066c-.088.059-.088.068-.007.134a.163.163,0,0,0,.064.029.675.675,0,0,0,.532-.075.42.42,0,0,1,.49.029.433.433,0,0,0,.454.043,2.81,2.81,0,0,1,.618-.2c.031,0,.064-.016.093.009.091.084.177.025.263-.009C24,26.66,24,26.633,24,26.6,23.995,26.526,23.94,26.485,23.908,26.428Zm-.825.593a2.277,2.277,0,0,0-.666.115c-.175.059-.37.1-.461.3a2.949,2.949,0,0,0-.082.361.625.625,0,0,0,.07.265c.016.022.022.059.061.057s.055-.036.066-.064a1.9,1.9,0,0,0,.075-.275.462.462,0,0,1,.265-.331c.161-.068.325-.132.488-.195a.174.174,0,0,1,.1-.006,1.367,1.367,0,0,1,.593.139.075.075,0,0,0,.059.011c.068-.016.075-.038.034-.093a.684.684,0,0,0-.6-.282ZM21.5,24.959c.136-.013.272-.031.406-.05.036,0,.093.009.1-.034s-.043-.075-.075-.1a.154.154,0,0,0-.066-.025.775.775,0,0,0-.413-.013,1.979,1.979,0,0,1-.841,0,2.334,2.334,0,0,0-.245-.029,1.851,1.851,0,0,0-.334.1c-.075.037-.082.079-.013.132a.129.129,0,0,0,.132.029.441.441,0,0,1,.468.091.481.481,0,0,0,.495.082A1.77,1.77,0,0,0,21.4,25,.3.3,0,0,1,21.5,24.959Zm-2.43.254a.307.307,0,0,0-.12-.3.33.33,0,0,1-.132-.19.684.684,0,0,0-.127-.291c-.022-.022-.039-.075-.079-.057a.15.15,0,0,0-.106.109.466.466,0,0,0,.263.525.462.462,0,0,1,.214.218c.016.034.018.1.068.088s.01-.077.022-.1Z" style="fill:#1a1a1a"/><path d="M14.806,20.307l0-.013c0,.011-.011.025-.016.039a.141.141,0,0,0,0,.082.2.2,0,0,0,.02-.106" style="fill:#2e2e2e"/><path d="M27.125,25a1.583,1.583,0,0,0,.181-.355.525.525,0,0,1,.022-.052.669.669,0,0,0,.068-.229v0c0-.025.009-.059-.016-.068a.442.442,0,0,0-.132-.02.375.375,0,0,0-.052,0,.044.044,0,0,0-.025,0l-.013.007,0,0c-.013.02.018.057.009.084s0,.055-.009.079-.018.052-.029.079-.034.075-.052.111a1.6,1.6,0,0,1-.277.357.3.3,0,0,1,0-.247.116.116,0,0,1,.011-.025c.022-.05.052-.1.079-.145.009-.016.022-.029.031-.046l0-.009a.038.038,0,0,0,0-.022.414.414,0,0,0-.141-.209.385.385,0,0,0-.063-.047.184.184,0,0,0-.057-.022c-.029,0-.057-.007-.086-.009a1.163,1.163,0,0,1-.236-.036l-.02-.007a3.812,3.812,0,0,1-.359-.132c-.038-.016-.075-.034-.115-.052a2.849,2.849,0,0,1-.443-.252c-.1-.075-.209-.143-.311-.216-.068-.048-.139-.1-.207-.145-.1-.075-.2-.15-.3-.229l-.02-.016c-.013-.011-.029-.02-.043-.031l-.043-.031a.265.265,0,0,1-.057-.057c-.009-.013-.018-.025-.027-.036l-.027-.036a1.618,1.618,0,0,1-.355-.543,2.188,2.188,0,0,1-.263.457c-.043.055-.086.106-.132.154a1.524,1.524,0,0,1-.691.413,2.013,2.013,0,0,1-.565.075l.157-.13c.016-.013.031-.027.048-.043a3.624,3.624,0,0,0,.47-.425l.02-.013a.044.044,0,0,0,.018-.031v-.011h-.009a.1.1,0,0,0-.052.031c-.132.075-.268.15-.4.22l-.059.031c-.034.018-.068.037-.1.052-.059.029-.115.055-.175.079a3.224,3.224,0,0,1-.89.225c-.17.02-.34.037-.511.052s-.34.029-.511.041c-.113.007-.225.013-.34.018h-.15a.74.74,0,0,0-.1,0,.75.75,0,0,0-.1.013l-.05.011a4.028,4.028,0,0,0-.811.3c-.07.037-.139.075-.207.115-.046.027-.088.057-.132.088a.769.769,0,0,0-.064.048.412.412,0,0,0-.12.134.14.14,0,0,0-.011.027l0,.013-.007.029a.334.334,0,0,0,0,.048.542.542,0,0,0,.046.181,4.474,4.474,0,0,0,.434.808.511.511,0,0,0,.084.1l.125.079a.6.6,0,0,0,.238.046.2.2,0,0,1,.218.141,1.494,1.494,0,0,0,.586.7c.018.011.037.025.057.037l.057.034a2.508,2.508,0,0,1,.229.15l.075.052a2.958,2.958,0,0,1,.272.234c.02.02.043.041.064.064.084.084.166.172.245.261.02.022.038.046.059.066.038.046.079.088.118.134a2.575,2.575,0,0,1,.261.347.572.572,0,0,1,.029.05,1.125,1.125,0,0,1,.086.184.6.6,0,0,0,.22.263,1.734,1.734,0,0,0,.15.1c.041.022.079.046.123.068.059.029.113.066.172.1a.72.72,0,0,0,.136.057l.027.007a.033.033,0,0,1,.02,0,2.134,2.134,0,0,0,.552.016c.055-.007.111-.013.166-.022l.154-.025h.018c.052-.009.1-.018.154-.029.132-.027.259-.059.386-.1.041-.011.082-.025.123-.038a.225.225,0,0,1,.036-.011c.039-.013.075-.027.115-.043l.041-.016.05-.02.061-.027c.055-.025.109-.052.161-.079s.132-.075.2-.115c.034-.022.066-.046.1-.068a1.747,1.747,0,0,0,.238-.209c.034-.036.066-.075.1-.113a3.647,3.647,0,0,0,.384-.62c.02-.039.039-.079.059-.118.029-.059.057-.121.084-.181.007-.016.013-.034.02-.05a2.482,2.482,0,0,0,.079-.322c-.034.013-.066.025-.1.038-.048.02-.093.041-.139.057a.578.578,0,0,1-.141.031.232.232,0,0,1-.039,0,.1.1,0,0,1-.111-.075.059.059,0,0,1,.043-.086.11.11,0,0,1,.029-.009l.018-.007.031-.013.034-.013a1.661,1.661,0,0,0,.679-.4c.029-.027.059-.055.086-.084a1.439,1.439,0,0,0,.3-.454l.007-.016c.016-.037.039-.068.055-.1a.081.081,0,0,1,.082-.055c.036,0,.075-.009.109-.011h.058A.571.571,0,0,0,27.125,25Zm-8.072.311c-.05.011-.052-.055-.068-.088A.442.442,0,0,0,18.77,25a.46.46,0,0,1-.263-.525.15.15,0,0,1,.106-.109c.043-.016.057.034.079.057a.684.684,0,0,1,.127.291.33.33,0,0,0,.132.19.307.307,0,0,1,.12.3c-.011.025.029.086-.02.1Zm.74-.856s-.009,0-.018-.007A1.49,1.49,0,0,1,20.231,24c.025-.018.052-.009.075-.009.545.034,1.086.088,1.626.17a.384.384,0,0,0,.4-.145,2.9,2.9,0,0,0,.2-.277c.027-.046.064-.1.118-.084s.075.075.064.15a.889.889,0,0,1-.386.664c-.031.022-.031.036-.009.061a1.345,1.345,0,0,1,.284.82.729.729,0,0,1-.075.391.094.094,0,0,0,.022.132l.007,0c.059.05.113.1.168.159a.1.1,0,0,0,.142.016l.008-.007a.693.693,0,0,0,.106-.109,1.487,1.487,0,0,1,.361-.355.2.2,0,0,1,.265.018c.029.036.068.079-.02.109a.658.658,0,0,0-.307.3c-.059.086-.111.177-.166.265a.358.358,0,0,1-.554.075,1.654,1.654,0,0,1-.211-.207.414.414,0,0,0-.366-.15.555.555,0,0,1,.188-.263.391.391,0,0,0,.136-.359,1.848,1.848,0,0,0-.1-.534.468.468,0,0,0-.214-.274.421.421,0,0,0-.15-.034c-.375-.052-.745-.127-1.125-.159a2.858,2.858,0,0,0-.879.064.09.09,0,0,1-.046.013Zm1.327.684a.493.493,0,0,1-.495-.082.442.442,0,0,0-.468-.091.129.129,0,0,1-.132-.029c-.068-.055-.064-.1.013-.132a1.906,1.906,0,0,1,.334-.1,2.261,2.261,0,0,1,.245.029,2.016,2.016,0,0,0,.841,0,.75.75,0,0,1,.413.013.25.25,0,0,1,.066.025c.031.029.084.057.075.1s-.066.029-.1.034c-.136.018-.27.036-.406.05A.286.286,0,0,0,21.4,25a1.77,1.77,0,0,1-.277.141ZM23.653,27.4a.075.075,0,0,1-.059-.011A1.343,1.343,0,0,0,23,27.249a.191.191,0,0,0-.1.011c-.163.064-.327.125-.488.195a.457.457,0,0,0-.265.331,1.981,1.981,0,0,1-.075.275c-.013.029-.025.061-.066.064s-.046-.034-.061-.057a.6.6,0,0,1-.07-.265,2.961,2.961,0,0,1,.082-.361c.091-.2.286-.243.461-.3a2.289,2.289,0,0,1,.666-.115.69.69,0,0,1,.6.282c.039.055.031.075-.036.093Zm.309-.724c-.086.036-.172.093-.263.009-.027-.025-.059-.016-.093-.009a2.8,2.8,0,0,0-.618.2.433.433,0,0,1-.454-.043.416.416,0,0,0-.49-.029.675.675,0,0,1-.532.075.163.163,0,0,1-.064-.029c-.082-.068-.082-.075.007-.134a.894.894,0,0,0,.1-.066.177.177,0,0,1,.179-.036.319.319,0,0,0,.252-.064.525.525,0,0,1,.591,0l.022.013c.132.106.256.166.409.018.061-.059.166-.037.25-.048a1.582,1.582,0,0,0,.579-.13.046.046,0,0,1,.075.02c.031.057.086.1.091.17,0,.034,0,.061-.034.075Zm1.265-1.488a.173.173,0,0,1-.15.048c-.079-.013-.159-.016-.241-.022a.57.57,0,0,1-.3-.093.431.431,0,0,0-.229-.064.8.8,0,0,1-.343-.139.178.178,0,0,1-.075-.161c-.013-.15-.016-.154-.161-.188a.8.8,0,0,1-.488-.315.6.6,0,0,1-.106-.291c-.011-.1-.016-.19-.018-.286,0-.027,0-.066.034-.075a.08.08,0,0,1,.086.036.375.375,0,0,1,.088.161,1.485,1.485,0,0,0,.048.172c.066.211.25.225.418.254a5.317,5.317,0,0,0,1.77.043c.05-.007.1-.016.139.031s.025.05-.016.066c-.091.031-.179.066-.268.1a3.215,3.215,0,0,1-.85.2,1.95,1.95,0,0,1-.361-.052.232.232,0,0,0-.1-.007.278.278,0,0,0,.139.19.636.636,0,0,0,.347.123,3.637,3.637,0,0,0,.684-.07.316.316,0,0,0,.106-.046q.191-.112.393-.211a.092.092,0,0,1,.113.007A8.014,8.014,0,0,1,25.227,25.184Zm-7.22-12.362c-.177.082-.3.238-.472.331-.046.025-.022.05,0,.075l.511.586a.31.31,0,0,1,.029.048.385.385,0,0,0,.043-.018l.243-.15c.027-.016.025-.037.016-.061-.1-.261-.172-.532-.284-.788C18.068,12.8,18.051,12.8,18.007,12.822Zm-.72.125c.018.022.036.041.068.022a3.24,3.24,0,0,0,.463-.247c.349-.277.691-.565,1.018-.872.052-.048.088-.1.075-.15s.016-.1-.029-.127-.064.018-.093.034-.066.041-.1.059a10.553,10.553,0,0,1-.984.5c-.238.093-.472.193-.715.28-.027.009-.084.009-.039.066C17.062,12.657,17.175,12.8,17.287,12.947Zm.029,1.342a8.23,8.23,0,0,1-.795-.552c-.022.093-.041.168-.057.243a.058.058,0,0,1-.052.052c-.066.011-.093-.048-.127-.084a.115.115,0,0,1-.043-.123c.057-.123.091-.256.139-.382s.055-.13.161-.048a.24.24,0,0,1,.027.022,3.011,3.011,0,0,0,.817.611.334.334,0,0,0,.418-.018c.009-.007.02-.011.029-.018a.037.037,0,0,0,.02-.048l0,0a.494.494,0,0,0-.093-.181c-.166-.141-.32-.293-.475-.445a3.877,3.877,0,0,1-.611-.7A1.132,1.132,0,0,0,16.5,12.4a.195.195,0,0,0-.316.046c-.127.236-.3.445-.427.679-.143.256-.325.49-.454.759a.171.171,0,0,0,0,.15,2.833,2.833,0,0,1,.181.466c.009.037.016.068-.031.086s-.059-.009-.075-.038c-.093-.157-.19-.309-.277-.47a14.57,14.57,0,0,0-.9-1.575c-.018-.022-.02-.082-.07-.057a.094.094,0,0,0-.061.1c.037.193.057.391.106.579.216.815.486,1.613.75,2.415.022.07.046.061.1.031q1.012-.572,2.025-1.141C17.137,14.394,17.221,14.344,17.316,14.29Zm-1.683,2.864a1.845,1.845,0,0,0-.281.754c-.036.064-.031.1.052.113.052.007.1.022.157.034q.627.17,1.258.316a.15.15,0,0,0,.106.02c.018-.007.016-.02.016-.036a.044.044,0,0,1,0-.018l.259-.865a.214.214,0,0,1,.057-.118.45.45,0,0,0,.179-.361c0-.057.022-.111.027-.168a.163.163,0,0,1,.1-.15,2.43,2.43,0,0,0,.808-.6.73.73,0,0,0,.139-.2,7.809,7.809,0,0,1,.591-1.05,5.148,5.148,0,0,1,.834-1.033.535.535,0,0,0,.15-.275.2.2,0,0,0-.075-.207.176.176,0,0,0-.225-.007,5.805,5.805,0,0,1-1.125.6.8.8,0,0,0-.463.35c0,.009-.018.013-.029.02a1.243,1.243,0,0,1-.406.154c-.041.009-.082-.007-.125.02q-1.212.766-2.436,1.521c-.048.029-.057.052-.031.1a9.7,9.7,0,0,0,.47.934A.126.126,0,0,1,15.633,17.154Zm1.306,1.2,0,.013A.019.019,0,0,1,16.939,18.358ZM27.73,17.331q.682-.211,1.37-.411c.075-.02.084-.048.057-.115-.2-.52-.4-1.04-.634-1.547a.225.225,0,0,1-.011-.2,1.387,1.387,0,0,0,.112-.754c-.016-.132.009-.265-.007-.4a8.819,8.819,0,0,0-.235-1.054,6.777,6.777,0,0,0-.457-1.113,7.837,7.837,0,0,0-.413-.72c-.079-.141-.172-.272-.247-.413a.64.64,0,0,0-.3-.313c-.036-.016-.086-.05-.115-.013a.173.173,0,0,0-.046.172c.05.121.1.241.154.361a6.716,6.716,0,0,1,.4,1.015,2.4,2.4,0,0,1,.079.42c0,.052,0,.111-.055.13s-.061-.041-.088-.07c-.1-.111-.236-.225-.4-.157a.259.259,0,0,1-.15.013c-.034-.007-.075-.016-.086-.055s.027-.061.057-.082a.726.726,0,0,0,.082-.052c.034-.031.059-.075.022-.118a1.86,1.86,0,0,0-.268-.311c-.22-.172-.443-.343-.675-.493l-.1-.064c-.418-.252-.85-.481-1.288-.7a.364.364,0,0,0-.188-.048c-.046,0-.093,0-.113.052a.132.132,0,0,0,.022.143.648.648,0,0,0,.163.15,4.5,4.5,0,0,1,.563.329c.34.261.679.525,1.009.8a3.45,3.45,0,0,1,.3.282l.17.177a.141.141,0,0,1,.041.068v.029a.1.1,0,0,1-.029.052c-.055.055-.109.025-.161,0a.269.269,0,0,1-.057-.057l-.027-.027c-.046-.046-.086-.091-.134-.134a.6.6,0,0,0-.059-.048l-.763-.57-.761-.572a2.607,2.607,0,0,0-.457-.277.093.093,0,0,0-.13.022h0a.15.15,0,0,0-.022.179.839.839,0,0,0,.209.263,3.2,3.2,0,0,1,.329.3c.477.529.963,1.05,1.425,1.592a.253.253,0,0,1,.059.127c.013.088-.031.13-.118.1a.479.479,0,0,1-.048-.025,18.58,18.58,0,0,1-1.676-1.027,2.832,2.832,0,0,0-.5-.277c-.055-.025-.113-.055-.159.013a.163.163,0,0,0,.041.186c.2.154.393.329.586.5a6.3,6.3,0,0,1,1.213,1.22.267.267,0,0,0,.293.052,1.1,1.1,0,0,1,.631-.188H26.2a.062.062,0,0,1,.041.011.034.034,0,0,1,.013.02c.025.055-.034.068-.066.088l-.616.4a.177.177,0,0,1-.157.027,1.085,1.085,0,0,0-.3-.061,8.549,8.549,0,0,0-1.275.123.786.786,0,0,0-.275.075.127.127,0,0,0-.061.136c0,.043.016.091.079.1.263.052.525.106.788.161a1.716,1.716,0,0,0,.286.057c.3.188.6.384.883.593a1.35,1.35,0,0,0,.579.259c.1.016.2.046.3.07a1.1,1.1,0,0,1,.382.109,1,1,0,0,1,.2.34c.036.075.082.111.166.091s.1.018.121.082c.106.3.218.607.322.909C27.644,17.333,27.665,17.351,27.73,17.331Z" style="fill:#f6e5cc"/></svg>