<svg xmlns="http://www.w3.org/2000/svg" xmlns:xlink="http://www.w3.org/1999/xlink" viewBox="0 0 500 500"><defs><linearGradient id="a" y1="500.019" x2="1" y2="500.019" gradientTransform="matrix(-46.092, 167.442, 167.442, 46.092, -83272.114, -22775.476)" gradientUnits="userSpaceOnUse"><stop offset="0" stop-color="#58d09e"/><stop offset="1"/></linearGradient><linearGradient id="b" y1="500.066" x2="1" y2="500.066" gradientTransform="matrix(136.419, 107.5, 107.5, -136.419, -53573.749, 68567.906)" gradientUnits="userSpaceOnUse"><stop offset="0" stop-color="#58d09e"/><stop offset="1" stop-color="#d2d2d2"/></linearGradient></defs><title>folder_type_cypress</title><path d="M460.672,85.3H282.547l-32.813,65.625H66.922v262.5h393.75V85.3Zm-32.813,65.625H299.734l17.188-32.812H427.859Z" style="fill:#31ad79"/><path d="M307.469,156.641c85.984-3.063,158.312,64.3,161.406,150.328A155.9,155.9,0,0,1,318.687,468.359c-85.984,3.062-158.312-64.3-161.406-150.328-3.094-86.016,64.2-158.344,150.188-161.391Z"/><path d="M396.672,263.031,367.328,336.7l-29.547-73.672H313.594l41.453,100.563-29.484,70.922,21.125,4.172,72.828-175.656H396.672Z" style="fill:#d2d2d2"/><path d="M267.656,281.672c12.266,0,22.266,6.484,27.391,17.812l.406.875,20.609-6.938-.453-1.047c-7.969-19.266-26.344-31.25-47.953-31.25-15.188,0-27.531,4.844-37.734,14.75-10.141,9.859-15.266,22.25-15.266,36.844,0,14.484,5.125,26.812,15.266,36.656,10.2,9.922,22.547,14.75,37.734,14.75,21.609,0,39.984-11.984,47.953-31.234l.453-1.047-20.641-6.953-.391.922c-4.594,11.125-14.828,17.766-27.375,17.766a28.926,28.926,0,0,1-21.469-8.8,30.385,30.385,0,0,1-8.7-22.047,30.858,30.858,0,0,1,8.7-22.234A28.87,28.87,0,0,1,267.656,281.672Z" style="fill:#d2d2d2"/><path d="M382.734,421.672a129.452,129.452,0,0,0,45.75-169.516l18.734-9.687a150.205,150.205,0,0,1-53.125,196.891l-11.359-17.687Z" style="fill:url(#a)"/><path d="M167.172,352.188a149.113,149.113,0,0,1-5.391-39.828c0-61.641,39.031-118.016,97.141-140.25l7.625,19.562c-50.016,19.141-83.609,67.641-83.609,120.687a128.164,128.164,0,0,0,4.625,34.266l-20.391,5.563Z" style="fill:#58d09e"/><path d="M257.906,172.594a153.234,153.234,0,0,1,39.375-9.484c61.812-6.437,122.422,26.172,150.781,81.172l-18.813,9.562c-24.422-47.344-76.562-75.406-129.766-69.859a131.14,131.14,0,0,0-33.875,8.141l-7.7-19.531Z" style="fill:#58d09e"/><path d="M329.656,424.578l-5.141,12.375a6.851,6.851,0,0,1-6,4.2c-1.734.078-3.484.125-5.266.125-60.609-.031-114.234-42.422-127.516-100.812l-20.625,4.625A150.566,150.566,0,0,0,217.8,428.812a153.237,153.237,0,0,0,95.234,33.422h.313c2.031,0,4.047-.047,6.063-.125a28.071,28.071,0,0,0,24.687-17.188l6.719-16.172-21.156-4.172Z" style="fill:url(#b)"/></svg>