<svg xmlns="http://www.w3.org/2000/svg" viewBox="0 0 32 32"><title>folder_type_elasticbeanstalk_opened</title><path d="M27.4,5.5H18.2L16.1,9.7H4.3V26.5H29.5V5.5Zm0,18.7H6.6V11.8H27.4Zm0-14.5H19.2l1-2.1h7.1V9.7Z" style="fill:#dda27a"/><polygon points="25.7 13.7 0.5 13.7 4.3 26.5 29.5 26.5 25.7 13.7" style="fill:#dda27a"/><polygon points="20.8 11.3 20.8 20.5 19.73 20.5 19.73 29.165 23.4 31 25.617 20.5 23.4 10 20.8 11.3" style="fill:#9d5025"/><polygon points="23.4 10 23.4 20.5 23.4 31 26 29.7 26 20.5 27.07 20.5 27.07 11.835 23.4 10" style="fill:#f58536"/><polygon points="30.969 17.824 26.331 18.257 24.802 18.079 29.644 13.135 30.969 17.824" style="fill:#6b3a19"/><polygon points="29.644 13.135 30.969 13.797 30.969 17.824 29.644 17.544 29.644 13.135" style="fill:#f58536"/><polygon points="24.802 18.079 29.644 17.544 29.644 13.135 24.802 14.434 24.802 18.079" style="fill:#9d5025"/><polygon points="15.831 23.176 20.469 22.743 21.998 22.921 17.156 27.865 15.831 23.176" style="fill:#fbbf93"/><polygon points="17.156 27.865 15.831 27.203 15.831 23.176 17.156 23.456 17.156 27.865" style="fill:#9d5025"/><polygon points="21.998 22.921 17.156 23.456 17.156 27.865 21.998 26.566 21.998 22.921" style="fill:#f58536"/></svg>