<svg xmlns="http://www.w3.org/2000/svg" viewBox="0 0 32 32"><title>folder_type_script@2x</title><g id="folder_script"><path d="M27.5,5.5H18.2L16.1,9.7H4.4V26.5H29.6V5.5Zm0,4.2H19.3l1.1-2.1h7.1Z" style="fill:#b7b7b7"/><path d="M16,10H27.65a3.14,3.14,0,0,1,1.91.82,4.73,4.73,0,0,1,1.36,2.83c0,.21,0,.43.07.64v.37a.7.7,0,0,1-.31.49,1.2,1.2,0,0,1-.68.1H28.38q0,6.07,0,12.14a3.57,3.57,0,0,1-.53,1.89A3.63,3.63,0,0,1,26,30.8a4.36,4.36,0,0,1-1,.2H13.92a4,4,0,0,1-2.22-.8,4.48,4.48,0,0,1-1.6-2.7c-.05-.26-.08-.52-.11-.78V26.3a.73.73,0,0,1,.3-.45,1.11,1.11,0,0,1,.64-.1h1.68q0-6.07,0-12.14A3.59,3.59,0,0,1,13.74,11,3.65,3.65,0,0,1,16,10" style="fill:#333"/><path d="M14.09,12.78a4.57,4.57,0,0,0-.15,1.65q0,5.66,0,11.32h7.3a.65.65,0,0,1,.59.43,3,3,0,0,1,.05.57,3.42,3.42,0,0,0,1,2.28,2.66,2.66,0,0,0,1.81.65,2.29,2.29,0,0,0,2.34-2.3q0-6.75,0-13.49a2,2,0,0,1,0-.47,4.57,4.57,0,0,1,.57-1.4,2.21,2.21,0,0,1,.67-.72H16.23A2.31,2.31,0,0,0,14.09,12.78Z" style="fill:gray"/><path d="M18,16.82a.7.7,0,0,1,.61-.26.66.66,0,0,1,.57.78c0,.26-.27.42-.44.59-.64.64-1.29,1.26-1.92,1.91.65.67,1.33,1.31,2,2a1,1,0,0,1,.37.53.66.66,0,0,1-.47.76.65.65,0,0,1-.63-.16l-2.64-2.61a.66.66,0,0,1,0-.94Z" style="fill:#333"/><path d="M21.81,17.18a.66.66,0,0,1,.57-.61.67.67,0,0,1,.55.19l2.59,2.57a.67.67,0,0,1,0,1L23,22.86a.77.77,0,0,1-.48.28.66.66,0,0,1-.72-.48A.66.66,0,0,1,22,22c.72-.72,1.46-1.43,2.17-2.16L22,17.73A.69.69,0,0,1,21.81,17.18Z" style="fill:#333"/></g></svg>