<svg xmlns="http://www.w3.org/2000/svg" xmlns:xlink="http://www.w3.org/1999/xlink" viewBox="0 0 32 32"><defs><linearGradient id="a" x1="20.494" y1="23.879" x2="20.494" y2="3" gradientTransform="matrix(1, 0, 0, -1, 0, 34)" gradientUnits="userSpaceOnUse"><stop offset="0" stop-color="#fff"/><stop offset="1" stop-color="#fff" stop-opacity="0"/></linearGradient></defs><title>folder_type_vscode</title><path d="M27.5,5.5H18.2L16.1,9.7H4.4V26.5H29.6V5.5Zm0,4.2H19.3l1.1-2.1h7.1Z" style="fill:#5594bf"/><path d="M30.257,12.333l-4.324-2.082a1.308,1.308,0,0,0-1.492.253L10.285,23.411a.875.875,0,0,0,0,1.293l1.157,1.052a.873.873,0,0,0,1.116.049L29.607,12.873A.868.868,0,0,1,31,13.565v-.05A1.311,1.311,0,0,0,30.257,12.333Z" style="fill:#0065a9"/><path d="M30.257,28.788,25.933,30.87a1.308,1.308,0,0,1-1.492-.253L10.285,17.71a.875.875,0,0,1,0-1.293l1.157-1.052a.873.873,0,0,1,1.116-.049L29.607,28.248A.868.868,0,0,0,31,27.556v.05A1.311,1.311,0,0,1,30.257,28.788Z" style="fill:#007acc"/><path d="M25.933,30.871a1.308,1.308,0,0,1-1.491-.254.768.768,0,0,0,1.311-.543V11.047a.768.768,0,0,0-1.311-.543,1.306,1.306,0,0,1,1.491-.254l4.324,2.079A1.313,1.313,0,0,1,31,13.512v14.1a1.313,1.313,0,0,1-.743,1.183Z" style="fill:#1f9cf0"/><g style="opacity:0.25"><path d="M24.882,30.911a1.311,1.311,0,0,0,1.041-.04l4.321-2.079a1.313,1.313,0,0,0,.743-1.183v-14.1a1.313,1.313,0,0,0-.743-1.183L25.923,10.25a1.306,1.306,0,0,0-1.334.121,1.22,1.22,0,0,0-.156.133l-8.272,7.547-3.6-2.735a.873.873,0,0,0-1.116.049l-1.156,1.052a.875.875,0,0,0,0,1.293l3.125,2.85-3.125,2.851a.875.875,0,0,0,0,1.293l1.156,1.052a.873.873,0,0,0,1.116.049l3.6-2.735,8.272,7.547A1.3,1.3,0,0,0,24.882,30.911ZM25.744,15.8,19.467,20.56l6.277,4.765Z" style="fill-rule:evenodd;fill:url(#a)"/></g></svg>