<svg viewBox="0 0 32 32" xmlns="http://www.w3.org/2000/svg"><path d="m27.4 5.5h-9.2l-2.1 4.2h-11.8v16.8h25.2v-21zm0 18.7h-20.8v-12.4h20.8zm0-14.5h-8.2l1-2.1h7.1v2.1z" fill="#dbc87b"/><path d="m25.7 13.7h-25.2l3.8 12.8h25.2z" fill="#dbc87b"/><path d="m12.443 18.333 7.668-6 .13-.019a9.079 9.079 0 0 1 1.345-.091 14.433 14.433 0 0 1 4.807.865 8.118 8.118 0 0 1 4.074 2.944l.082.124v3.982a1.55 1.55 0 0 1 -.133.709.886.886 0 0 1 -.322.363v5.728l-17.65 2.694z" fill="#4a1700"/><path d="m12.432 29.647v-11.32l7.67-6 .132-.02a9.092 9.092 0 0 1 1.35-.092 14.444 14.444 0 0 1 4.81.866 8.128 8.128 0 0 1 4.073 2.948l.084.127v3.985a1.561 1.561 0 0 1 -.134.714.893.893 0 0 1 -.321.364v5.728h-.009zm.022-11.306v11.277l17.628-2.686v-5.724h.005a.871.871 0 0 0 .319-.358 1.54 1.54 0 0 0 .132-.7v-3.987l-.08-.122a8.106 8.106 0 0 0 -4.069-2.94 14.422 14.422 0 0 0 -4.8-.865 9.071 9.071 0 0 0 -1.343.091l-.127.019z"/><path d="m12.932 21.575 16.587-2.528v7.438l-16.587 2.527z" fill="#995700"/><path d="m29.475 19.086v7.372l-16.522 2.514v-7.372l16.523-2.517m.065-.075-16.653 2.54v7.5l16.652-2.539v-7.5z" fill="#995700"/><g fill="#4a1700"><path d="m22.016 19.932v7.699l3.557-.539v-7.694z"/><path d="m22.037 27.631 4.184 2.491a9.221 9.221 0 0 0 3.02.874 1.275 1.275 0 0 0 1.363-1.18q0-.028 0-.057l-4.668-2.724z"/><path d="m29.242 31a3.558 3.558 0 0 1 -1.269-.246 1.8 1.8 0 0 1 -1-.811c-2.183-4.42-5.853-11.848-5.891-11.946a5.2 5.2 0 0 0 -.349-.675c-.208-.106-.745-.383-1.288-.68-1.486-.814-1.575-.982-1.635-1.106l-.461-.907v-.912l.431-.06.046-.006-.266-1.525-.008-1.135a.375.375 0 0 1 .31-.43c.1-.014.658-.079.682-.082l.25-.029 1.412 2.868 1.132-.16-.769-1.958-.011-1.033 1.227-.158a.541.541 0 0 1 .075-.009.59.59 0 0 1 .412.176l3.177 2.505.015.015a2.22 2.22 0 0 1 .375.589l.517 1.086v.821l-.1.1c-.039.041-.865.916-1.485 1.479 1.212 2.363 6.017 11.715 6.067 11.813v.005a1.186 1.186 0 0 1 .108.333l.019.029v.832.026a1.247 1.247 0 0 1 -.417.75 1.8 1.8 0 0 1 -.939.41 2.4 2.4 0 0 1 -.367.031z"/></g><path d="m26 14.409v.643a19.783 19.783 0 0 1 -1.953 1.854c-.478.289-.211-.579-.211-.579z" fill="#534741"/><path d="m23.88 16.974a.112.112 0 0 1 -.071-.022c-.145-.112.006-.607.013-.628l2.163-1.924.018.008v.647a19.857 19.857 0 0 1 -1.955 1.856.346.346 0 0 1 -.168.063zm-.038-.642c-.012.041-.15.5-.019.6.043.034.115.021.214-.039a19.6 19.6 0 0 0 1.949-1.849v-.615z" fill="#4a1700"/><path d="m30.607 29.759a1.125 1.125 0 0 1 -1.058.862 2.449 2.449 0 0 1 -2.254-.837s-5.841-11.823-5.879-11.923a6.005 6.005 0 0 0 -.429-.817 19.316 19.316 0 0 1 -2.855-1.672l-.42-.831v-.531l4.637 2.025 8.259 13.022z" fill="#534741"/><path d="m29.244 30.65a2.324 2.324 0 0 1 -1.958-.864c-.238-.483-5.841-11.824-5.879-11.923a5.993 5.993 0 0 0 -.427-.813 18.846 18.846 0 0 1 -2.857-1.675l-.421-.833v-.547l.015.007 4.64 2.025 8.265 13.028v.7a1.137 1.137 0 0 1 -1.067.868 2.04 2.04 0 0 1 -.311.027zm-11.518-16.112.418.829a19.628 19.628 0 0 0 2.849 1.667 6.059 6.059 0 0 1 .43.819c.037.1 5.82 11.8 5.878 11.919a2.433 2.433 0 0 0 2.243.831 1.116 1.116 0 0 0 1.05-.849v-.7l-8.251-13.011-4.616-2.016z" fill="#4a1700"/><path d="m20.921 10.487v.641l1.235 3.105.196-.865z" fill="#534741"/><path d="m22.145 14.238-1.235-3.108v-.643h.02l1.432 2.885v.007l-.2.865zm-1.213-3.113 1.218 3.075.187-.825-1.405-2.841z" fill="#4a1700"/><path d="m17.911 10.984.008 1.104.505 2.845h.173l-.048-1.028z" fill="#534741"/><path d="m18.608 14.943h-.193l-.507-2.854-.008-1.105h.022l.638 2.916zm-.175-.022h.15l-.048-1.021-.616-2.817.007 1z" fill="#4a1700"/><path d="m21.184 16.65a22.259 22.259 0 0 1 -3.051-1.8l-.419-.831 4.641-.655-1.42-2.885.9-.127a.235.235 0 0 1 .195.081l3.179 2.509a2 2 0 0 1 .306.489l.478.971c.091.184-1.8 1.818-1.8 1.818a.15.15 0 0 0 -.01.168c.05.1 6.344 12.353 6.344 12.353.319.647-.307 1.252-.975 1.354a2.324 2.324 0 0 1 -2.155-.913s-5.979-12.268-6.026-12.365a.565.565 0 0 0 -.187-.167z" fill="#736357"/><path d="m29.285 30.133a2.269 2.269 0 0 1 -1.9-.936l-6.028-12.365a.554.554 0 0 0 -.178-.172 21.54 21.54 0 0 1 -3.055-1.8l-.426-.844h.015l4.626-.652-1.42-2.888.914-.129a.242.242 0 0 1 .2.084l3.177 2.508a2.019 2.019 0 0 1 .309.493l.481.968c.091.186-1.612 1.663-1.807 1.831a.136.136 0 0 0 -.008.155c.051.1 6.282 12.232 6.344 12.354a.772.772 0 0 1 -.006.724 1.341 1.341 0 0 1 -.975.646 1.742 1.742 0 0 1 -.263.023zm-11.555-16.101.412.817a22.533 22.533 0 0 0 3.046 1.791.568.568 0 0 1 .187.181c.046.093 5.967 12.242 6.026 12.365a2.3 2.3 0 0 0 2.143.907 1.319 1.319 0 0 0 .96-.634.75.75 0 0 0 .006-.7c-.063-.122-6.294-12.252-6.344-12.355a.156.156 0 0 1 .013-.181 9.523 9.523 0 0 0 1.8-1.806l-.474-.97a2 2 0 0 0 -.3-.487l-3.183-2.51a.225.225 0 0 0 -.185-.075l-.886.118 1.421 2.881h-.015z" fill="#4a1700"/><path d="m20.008 13.7-1.415-2.875s-.573.067-.675.082a30.5 30.5 0 0 0 .628 3z" fill="#736357"/><path d="m18.54 13.918v-.01a30.214 30.214 0 0 1 -.631-3 .016.016 0 0 1 .012-.007c.1-.014.667-.081.675-.082h.004l1.425 2.894zm-.616-3a28.574 28.574 0 0 0 .633 2.976l1.435-.2-1.4-2.85c-.072.002-.566.056-.668.075z" fill="#4a1700"/><path d="m22.76 14.172.529 1.01-2.458.325-.463-1.016z" fill="#4a1700"/><path d="m20.668 14.671.243-.035a.586.586 0 0 1 .352.235.633.633 0 0 1 .075.481l-.242.037a.54.54 0 0 0 -.052-.471 1.058 1.058 0 0 0 -.376-.247z" fill="#736357"/><path d="m21.315 14.582.243-.035a.586.586 0 0 1 .352.235.633.633 0 0 1 .075.481l-.242.037a.541.541 0 0 0 -.052-.471 1.057 1.057 0 0 0 -.376-.247z" fill="#736357"/><path d="m21.944 14.492.243-.035a.586.586 0 0 1 .352.235.633.633 0 0 1 .075.481l-.242.037a.541.541 0 0 0 -.052-.471 1.058 1.058 0 0 0 -.376-.247z" fill="#736357"/><path d="m22.022 20.239.255-.054v-3.03a11.245 11.245 0 0 1 -2.267-.62z" fill="#4a1700"/><path d="m20.213 13.311 1.132-.16-.17-.419a7.92 7.92 0 0 0 -.874.075l-.24.192z" fill="#fff"/><path d="m25.879 13.456.43.916v.82l-.075.1c-.039.041-.854.916-1.474 1.479.034.067.075.139.112.217l5.128-.678a7.781 7.781 0 0 0 -4.121-2.854z" fill="#fff"/><path d="m29.54 19.01v1.847c.391-.015.455-.352.455-.715v-3.832l-5.127.682c.3.595.754 1.5 1.29 2.538z" fill="#ffe05c"/><path d="m19.451 16.636c-1.486-.814-1.57-.982-1.631-1.106l-.283-.556-4.614 3.6 9.1-1.2a17.032 17.032 0 0 1 -2.572-.738z" fill="#fff"/><path d="m22.027 20.239-.011-2.868-9.106 1.205v2.982z" fill="#ffe05c"/><path d="m26.158 19.519v-2.689s-.9-.52-.525-.9l-.871.847z" fill="#ffe05c"/><path d="m13.781 18.465 5.267-.7s-1.889.382-3.345.562c-.688.087-1.922.138-1.922.138z" fill="#4a1700"/><path d="m28.026 16.578 2.024-.268.088.121c-.881.093-2.112.147-2.112.147z" fill="#4a1700"/></svg>