<svg viewBox="0 0 32 32" xmlns="http://www.w3.org/2000/svg"><path d="m27.4 5.5h-9.2l-2.1 4.2h-11.8v4h-3.8l3.8 12.8h25.2v-21zm-7.2 2.1h7.1v2.1h-8.1zm5.5 6.1h-19.1v-1.9h20.8v7.626z" fill="#7cd689"/><path d="m30.617 13.894a1.111 1.111 0 0 0 -1.557-.2 1.08 1.08 0 0 0 -.172.166.47.47 0 0 0 -.1.225 1.372 1.372 0 0 0 -1.39.467l-.006.011a4.692 4.692 0 0 0 -3.317-.79 5.289 5.289 0 0 0 -3.368 1.968q-.689 3.642-1.26 7.3c-.193 1.244-.4 2.488-.523 3.741-.061.637-.1 1.277-.1 1.917 0 .161 0 .349.02.544a2.676 2.676 0 0 0 .257 1.047.426.426 0 0 0 .138.16.412.412 0 0 0 .439-.072 21.253 21.253 0 0 0 3.822-3.786 20.759 20.759 0 0 0 1.512-2.153 9.738 9.738 0 0 0 .528-1.007c.107-.232.256-.636.544-.709a.081.081 0 0 1 .061 0c.034.018.03.067.019.1-.19.681-.5 1.33-.687 2.014-.13.474-.416 1.3-.1 1.761.44.625 1.781-1.065 1.985-1.321a11.265 11.265 0 0 0 1.189-1.877 10.29 10.29 0 0 0 .888-1.906 6.558 6.558 0 0 0 .13-2.1 9.862 9.862 0 0 0 -.412-2.447c-.034-.105-.086-.2-.126-.3h.015a1.226 1.226 0 0 0 .714-1.169.624.624 0 0 0 .478.024 1.058 1.058 0 0 0 .379-1.6z" fill="#97a99a"/><path d="m28.036 15.091a3.516 3.516 0 0 0 -2.483-1.247 2.9 2.9 0 0 0 -1.75 1.082 13.42 13.42 0 0 0 -1.6 2.124 1 1 0 0 0 -.171.423.949.949 0 0 0 .088.406 5.073 5.073 0 0 0 1.143 1.714 1.583 1.583 0 0 0 .751.469 1.76 1.76 0 0 0 1.421-.564 12.083 12.083 0 0 0 1.623-1.723c.428-.545 1.118-1.265.979-2.008" fill="#eaeaea" opacity=".8"/><path d="m21.4 11.262a3.152 3.152 0 0 0 -.778.508q-.411.32-.811.649c-.692.572-1.363 1.166-2.005 1.786a17.835 17.835 0 0 0 -3.766 4.857 6.835 6.835 0 0 0 -.743 2.706 4.4 4.4 0 0 0 1.861 3.577 7.122 7.122 0 0 0 4.242 1.432 5.364 5.364 0 0 0 4.086-1.68 5.585 5.585 0 0 0 1.264-2.746 8.5 8.5 0 0 0 .129-1.543 3.37 3.37 0 0 0 -.187-1.532 4.049 4.049 0 0 1 -.252-.462 1.209 1.209 0 0 1 .051-.767 21.57 21.57 0 0 0 1.009-5.963 4.835 4.835 0 0 1 -.6.245 3.458 3.458 0 0 0 -.508.368 11.282 11.282 0 0 0 -1.02 1 2.077 2.077 0 0 0 -.264.327 2.623 2.623 0 0 0 -.205.471 8.827 8.827 0 0 1 -.517 1.143 1.156 1.156 0 0 1 -.246.342 1.139 1.139 0 0 1 -.29.17c-.417.187-1.057.487-1.517.262-.555-.272-.5-1.092-.309-1.557q.618-1.5 1.234-3c.045-.111.32-.443.25-.565-.02-.032-.057-.038-.108-.028z" fill="#eaeaea"/><path d="m13.873 23.633a6.074 6.074 0 0 0 2.835 2.257 5.475 5.475 0 0 0 3.487 0l-.04.013a18.939 18.939 0 0 0 1.8-.841 1.745 1.745 0 0 0 .312-.2c.114-.117.231-.234.337-.357a5.452 5.452 0 0 0 .576-.735 4.022 4.022 0 0 0 .571-1.706c.043-.309.093-.679.1-.954a2.752 2.752 0 0 0 -.093-.857c-.071-.286-.214-.572-.332-.947a1.793 1.793 0 0 1 .04-1.266 11.71 11.71 0 0 0 .655-1.876l1.034-3.928a33.808 33.808 0 0 1 -.413 4.064 9.917 9.917 0 0 1 -.5 2.015 1.024 1.024 0 0 0 .036.721c.1.269.271.589.388.955a3.7 3.7 0 0 1 .179 1.143c-.011.4-.052.7-.094 1.066a4.769 4.769 0 0 1 -.7 2.117 6.538 6.538 0 0 1 -.7.862c-.122.133-.249.255-.374.381a2.444 2.444 0 0 1 -.541.364 16.045 16.045 0 0 1 -1.965.816l-.024.009h-.016a6.539 6.539 0 0 1 -2.014.194 5.153 5.153 0 0 1 -1.954-.516 5.453 5.453 0 0 1 -2.59-2.794z" fill="#9cb09f" opacity=".5"/><path d="m15.159 25.348s2.606 3.574 3.477 3.873 1.428-2.5 1.428-2.5a6.619 6.619 0 0 1 -4.905-1.373z" fill="#eaeaea"/><ellipse cx="15.685" cy="20.651" fill="#cb411f" rx="1.239" ry="1.058"/><ellipse cx="16.175" cy="20.329" fill="#e9d7d3" rx=".424" ry=".411"/><ellipse cx="21.743" cy="21.387" fill="#cb411f" rx="1.239" ry="1.058"/><ellipse cx="22.233" cy="21.067" fill="#e9d7d3" rx=".424" ry=".411"/><g fill="#535153"><path d="m30.764 13.8a1.16 1.16 0 0 0 -.924-.506 1.329 1.329 0 0 0 -1.09.457.622.622 0 0 0 -.05.108c-.049-.008-.095-.022-.143-.025a1.576 1.576 0 0 0 -.941.254 5.124 5.124 0 0 0 -1.937-.777c.033-.4.067-.8.083-1.218a.257.257 0 0 0 -.249-.264.3.3 0 0 0 -.184.066c-.066.032-.2.077-.31.117a2.431 2.431 0 0 0 -.245.095 3.692 3.692 0 0 0 -.549.4 11.072 11.072 0 0 0 -.952.924 6.035 6.035 0 0 0 -2.958 1.988.5.5 0 0 0 -.113.234c-.009.047-.016.092-.025.138a1.518 1.518 0 0 1 .088-.835l1.233-3c.012-.026.038-.063.065-.106.143-.214.3-.463.174-.678a.338.338 0 0 0 -.387-.153 2.555 2.555 0 0 0 -.884.559q-.414.319-.816.653c-.715.587-1.393 1.193-2.022 1.8a18.374 18.374 0 0 0 -3.816 4.928 6.965 6.965 0 0 0 -.774 2.805 4.624 4.624 0 0 0 1.928 3.757 22.316 22.316 0 0 0 3.373 3.834 2.954 2.954 0 0 0 .314 1.186.919.919 0 0 0 .314.344.8.8 0 0 0 .422.117 1.031 1.031 0 0 0 .606-.214 21.71 21.71 0 0 0 3.905-3.881q.429-.539.821-1.095a1.585 1.585 0 0 0 .228 1.082.818.818 0 0 0 .686.357c.348 0 .947-.171 2.126-1.643a11.631 11.631 0 0 0 1.25-1.978c.066-.129.138-.261.21-.394a7.8 7.8 0 0 0 .714-1.613 7.016 7.016 0 0 0 .143-2.261 10.494 10.494 0 0 0 -.436-2.572c-.027-.084-.066-.161-.1-.242a1.4 1.4 0 0 0 .365-.6 1.661 1.661 0 0 0 .044-.252c.025 0 .05.013.075.013a.661.661 0 0 0 .277-.057 1.117 1.117 0 0 0 .643-.714 1.382 1.382 0 0 0 -.182-1.138zm-10.055 1.942a5.885 5.885 0 0 1 2.042-1.59c-.032.079-.063.16-.1.253a8.881 8.881 0 0 1 -.5 1.113.979.979 0 0 1 -.19.269 1.133 1.133 0 0 1 -.266.147 2.342 2.342 0 0 1 -1.078.279c.035-.155.062-.313.092-.471zm-7.151 6.037a6.456 6.456 0 0 1 .714-2.6 17.9 17.9 0 0 1 3.714-4.786c.618-.6 1.286-1.195 1.99-1.774.265-.218.533-.434.853-.683.061-.049.115-.092.165-.13l-1.214 2.954a1.571 1.571 0 0 0 .26 1.761.982.982 0 0 0 .175.119 1.036 1.036 0 0 0 .314.089 2.783 2.783 0 0 0 1.428-.348 1.377 1.377 0 0 0 .357-.214 1.391 1.391 0 0 0 .3-.414 9.664 9.664 0 0 0 .551-1.229 2.016 2.016 0 0 1 .163-.375 1.916 1.916 0 0 1 .227-.28l.006-.008c.21-.225.4-.42.594-.605.133-.128.265-.253.4-.368a3.106 3.106 0 0 1 .461-.336c.028-.013.1-.037.174-.065l.031-.01c-.014.264-.042.517-.064.774-.013.169-.024.341-.041.507a19.906 19.906 0 0 1 -.873 4.21 1.464 1.464 0 0 0 -.05.929 1.75 1.75 0 0 0 .172.333 1.829 1.829 0 0 1 .093.159 2.522 2.522 0 0 1 .162 1.173v.247a8.3 8.3 0 0 1 -.124 1.5 5.362 5.362 0 0 1 -1.21 2.62 4.938 4.938 0 0 1 -3.151 1.55.268.268 0 0 0 -.132-.006 2.591 2.591 0 0 1 -.292.038c-.09 0-.178.012-.268.012h-.043c-.147 0-.295-.01-.442-.02-.173-.013-.344-.033-.516-.059a7.114 7.114 0 0 1 -1.123-.26c-.067-.023-.132-.044-.2-.071l-.061-.023a7.794 7.794 0 0 1 -1.744-.947 4.132 4.132 0 0 1 -1.756-3.364zm4.751 6.915a20.774 20.774 0 0 1 -2.129-2.424c.172.083.347.161.526.232.066.027.129.049.194.071s.147.055.221.079a7.15 7.15 0 0 0 1.273.313c.184.027.357.046.515.057a5.679 5.679 0 0 0 .825 0 3.948 3.948 0 0 1 -.885 1.937.019.019 0 0 0 -.016 0 .143.143 0 0 1 -.111.012 1.491 1.491 0 0 1 -.413-.277zm11.26-9.3a6.553 6.553 0 0 1 -.13 2.1 10.29 10.29 0 0 1 -.888 1.906 11.273 11.273 0 0 1 -1.189 1.886c-.173.214-1.159 1.459-1.725 1.459a.3.3 0 0 1 -.26-.138c-.321-.456-.035-1.285.1-1.761.19-.684.5-1.333.687-2.014.011-.037.015-.086-.019-.1a.055.055 0 0 0 -.028-.007.188.188 0 0 0 -.033 0c-.286.072-.437.477-.544.71a9.841 9.841 0 0 1 -.528 1.007 20.854 20.854 0 0 1 -1.512 2.158 21.291 21.291 0 0 1 -3.814 3.786.521.521 0 0 1 -.293.108.268.268 0 0 1 -.146-.04.419.419 0 0 1 -.138-.16 2.275 2.275 0 0 1 -.231-.807.707.707 0 0 0 .232-.078c.643-.365 1.035-1.824 1.172-2.429a5.447 5.447 0 0 0 3.4-1.707 5.86 5.86 0 0 0 1.318-2.873 8.715 8.715 0 0 0 .133-1.588v-.239a2.974 2.974 0 0 0 -.214-1.405c-.035-.067-.072-.133-.114-.2a1.215 1.215 0 0 1 -.125-.233.952.952 0 0 1 .052-.605 20.417 20.417 0 0 0 .9-4.306 4.571 4.571 0 0 1 1.579.622c.123.076.24.161.357.25a4.593 4.593 0 0 1 1.388 1.752c.059.13.112.263.16.4.012.034.029.065.041.1a9.871 9.871 0 0 1 .412 2.452zm-1.586-5.029a1.171 1.171 0 0 1 .484-.105h.064c.021 0 .055.01.083.013a1.007 1.007 0 0 1 .367.114.937.937 0 0 1 .338.318 1.531 1.531 0 0 1 .172.411 1.422 1.422 0 0 1 .053.445 1.2 1.2 0 0 1 -.046.266.988.988 0 0 1 -.143.253 5.094 5.094 0 0 0 -1.372-1.714zm2.638.48a.787.787 0 0 1 -.453.5.385.385 0 0 1 -.2.02 1.886 1.886 0 0 0 -.28-.881 1.369 1.369 0 0 0 -.647-.531.979.979 0 0 1 .725-.315h.054a.813.813 0 0 1 .65.35 1.045 1.045 0 0 1 .151.858z"/><path d="m15.686 19.465a1.2 1.2 0 1 0 0 2.371 1.2 1.2 0 1 0 0-2.371zm0 2.116a.943.943 0 1 1 0-1.856.943.943 0 1 1 0 1.856z"/><path d="m21.743 22.572a1.2 1.2 0 1 0 -1.369-1.185 1.286 1.286 0 0 0 1.369 1.185zm0-2.115a.943.943 0 1 1 -1.109.928 1.034 1.034 0 0 1 1.109-.928z"/><path d="m17.242 24.614a1.1 1.1 0 0 1 .309-.008l.806.263a3.446 3.446 0 0 1 .428.268.137.137 0 0 0 .078.025.132.132 0 0 0 .1-.051.127.127 0 0 0 -.024-.177 3.2 3.2 0 0 0 -.937-.5 12.7 12.7 0 0 1 .1-1.733.708.708 0 0 0 .478-.071.36.36 0 0 0 .175-.353c-.034-.316-.337-.521-.786-.535h-.1a.344.344 0 0 0 -.286.143.325.325 0 0 0 -.049.155.575.575 0 0 0 .29.562l.031.018a11.908 11.908 0 0 0 -.114 1.75 1.351 1.351 0 0 0 -.58 0 .127.127 0 0 0 -.086.159.133.133 0 0 0 .167.085z"/></g><path d="m21.808 23.3a.745.745 0 0 1 .363-.357 2.1 2.1 0 0 1 .48-.167 1.7 1.7 0 0 0 .429-.129.93.93 0 0 0 .368-.271.6.6 0 0 1 -.263.438 1.328 1.328 0 0 1 -.481.21 4.443 4.443 0 0 0 -.458.1 1.477 1.477 0 0 0 -.438.176z" fill="#cb411f"/><path d="m13.873 21.067a.544.544 0 0 1 .388.255 1.676 1.676 0 0 1 .189.407.743.743 0 0 0 .541.5.569.569 0 0 1 -.47-.037.711.711 0 0 1 -.316-.383 3.688 3.688 0 0 0 -.118-.4.862.862 0 0 0 -.214-.342z" fill="#cb411f"/><path d="m27.986 21.729a13.12 13.12 0 0 0 -1.956-.229 5.1 5.1 0 0 0 1.419-.669 6.553 6.553 0 0 0 1.565-1.066 3.694 3.694 0 0 0 1.2-2.3.786.786 0 0 0 -.32-.813 1.762 1.762 0 0 1 -.254 1.8 3.757 3.757 0 0 1 -1.567 1.114 18.6 18.6 0 0 1 -3.025.879.19.19 0 0 0 -.188.193.2.2 0 0 0 .014.072 4.35 4.35 0 0 1 -.357 1.8 6.1 6.1 0 0 0 -.254.928c-.143.87.739.014 1.079-.17a2.885 2.885 0 0 1 2.192-.4 6.347 6.347 0 0 1 2.1 1.032 1.874 1.874 0 0 1 .69 1.469 4.465 4.465 0 0 1 -.1.95.47.47 0 0 1 -.06.178c-.386.581-.894 1.155-1.322 1.722-.177.234.12.125.218.082a3.476 3.476 0 0 0 1.683-2.087 3.752 3.752 0 0 0 -.275-2.794 3.976 3.976 0 0 0 -2.482-1.691z" fill="#285957"/></svg>