<?xml version="1.0" encoding="utf-8"?>
<svg version="1.1" id="Layer_1" xmlns="http://www.w3.org/2000/svg" xmlns:xlink="http://www.w3.org/1999/xlink" x="0px" y="0px"
	 viewBox="0 0 32 32" style="enable-background:new 0 0 32 32;" xml:space="preserve">
<style type="text/css">
	.st0{fill:#EB5181;}
	.st1{fill:#FFFFFF;}
	.st2{fill:#FF4785;}
</style>
<path class="st0" d="M27.4,5.5h-9.2l-2.1,4.2H4.3v16.8h25.2v-21H27.4z M27.4,24.2H6.6V11.8h20.8V24.2z M27.4,9.7h-8.2l1-2.1h7.1
	L27.4,9.7L27.4,9.7z"/>
<polygon class="st0" points="25.7,13.7 0.5,13.7 4.3,26.5 29.5,26.5 "/>
<path class="st1" d="M27,13.6l0.1-2l1.7-0.1l0.1,2.1c0,0,0,0.1,0,0.1c0,0.1-0.1,0.1-0.2,0c0,0,0,0,0,0L28,13.1l-0.8,0.6
	C27.1,13.7,27.1,13.7,27,13.6C27,13.7,27,13.7,27,13.6C27,13.6,27,13.6,27,13.6z"/>
<path class="st2" d="M27.1,11.6l-0.1,2c0,0,0,0.1,0,0.1c0,0.1,0.1,0.1,0.2,0c0,0,0,0,0,0l0.8-0.6l0.7,0.5c0.1,0,0.1,0,0.2,0
	c0,0,0,0,0,0c0,0,0-0.1,0-0.1l-0.1-2.1l1-0.1c0.5,0,0.9,0.3,1,0.8c0,0,0,0,0,0c0,0,0,0,0,0.1v16c0,0.5-0.4,0.9-0.9,0.9h0l-12-0.5
	c-0.5,0-0.8-0.4-0.9-0.9l-0.6-14.7c0-0.5,0.4-0.9,0.8-0.9L27.1,11.6L27.1,11.6z"/>
<path class="st1" d="M24.8,18.1c0,0.3,2.4,0.2,2.7-0.1c0-2.4-1.3-3.6-3.6-3.6s-3.7,1.3-3.7,3.2c0,3.3,4.5,3.4,4.5,5.2
	c0.1,0.4-0.2,0.8-0.6,0.8c-0.1,0-0.1,0-0.2,0c-0.7,0-1-0.4-1-1.6c0-0.3-2.7-0.4-2.8,0c-0.2,3,1.7,3.9,3.8,3.9c2.1,0,3.7-1.1,3.7-3.1
	c0-3.5-4.6-3.4-4.6-5.2c0-0.4,0.3-0.8,0.7-0.8c0.1,0,0.1,0,0.2,0C24.2,16.7,24.8,16.8,24.8,18.1z"/>
</svg>
