<svg xmlns="http://www.w3.org/2000/svg" version="1.1" width="352px" height="455px" style="shape-rendering:geometricPrecision; text-rendering:geometricPrecision; image-rendering:optimizeQuality; fill-rule:evenodd; clip-rule:evenodd" xmlns:xlink="http://www.w3.org/1999/xlink">
<g><path style="opacity:0.423" fill="#45b6e0" d="M 325.5,134.5 C 319.058,135.29 316.391,138.957 317.5,145.5C 302.646,85.478 265.313,47.3114 205.5,31C 140.138,19.9467 88.6381,41.4467 51,95.5C 42.6754,108.48 36.8421,122.48 33.5,137.5C 30.6709,135.022 27.3375,134.022 23.5,134.5C 37.7212,81.774 70.3878,45.6074 121.5,26C 188.219,5.91711 245.386,21.0838 293,71.5C 308.567,89.9646 319.4,110.965 325.5,134.5 Z"/></g>
<g><path style="opacity:0.306" fill="#05f4fe" d="M 317.5,145.5 C 317.5,163.167 317.5,180.833 317.5,198.5C 307.53,245.805 281.196,280.805 238.5,303.5C 239.922,279.172 241.255,254.838 242.5,230.5C 257.979,222.069 265.979,208.902 266.5,191C 265.53,174.89 258.196,162.724 244.5,154.5C 243.294,112.296 221.961,87.2963 180.5,79.5C 145.797,77.2738 120.964,91.9405 106,123.5C 102.118,133.128 100.284,143.128 100.5,153.5C 76.6393,171.305 72.4726,192.972 88,218.5C 92.0995,223.108 96.5995,227.108 101.5,230.5C 103.341,253.802 104.675,277.136 105.5,300.5C 70.1805,281.509 46.5138,252.842 34.5,214.5C 34.8149,188.789 34.4816,163.122 33.5,137.5C 36.8421,122.48 42.6754,108.48 51,95.5C 88.6381,41.4467 140.138,19.9467 205.5,31C 265.313,47.3114 302.646,85.478 317.5,145.5 Z"/></g>
<g><path style="opacity:0.51" fill="#93faff" d="M 100.5,67.5 C 105.331,67.4936 107.497,69.827 107,74.5C 64.1378,111.092 49.8044,156.759 64,211.5C 66.8915,220.28 70.0582,228.947 73.5,237.5C 70.2174,244.158 66.7174,244.158 63,237.5C 38.5851,182.486 44.9185,131.486 82,84.5C 87.7628,78.2306 93.9295,72.5639 100.5,67.5 Z"/></g>
<g><path style="opacity:1" fill="#f0784a" d="M 180.5,79.5 C 176.818,79.3347 173.152,79.5014 169.5,80C 187.317,91.1154 196.817,107.282 198,128.5C 198.5,137.494 198.666,146.494 198.5,155.5C 179.676,170.425 174.843,189.092 184,211.5C 193.171,227.504 207.004,235.337 225.5,235C 231.495,234.585 237.161,233.085 242.5,230.5C 241.255,254.838 239.922,279.172 238.5,303.5C 238.5,304.167 238.5,304.833 238.5,305.5C 194.327,327.678 150.66,326.678 107.5,302.5C 106.824,303.602 106.158,304.602 105.5,305.5C 105.5,303.833 105.5,302.167 105.5,300.5C 104.675,277.136 103.341,253.802 101.5,230.5C 125.498,239.631 144.998,233.965 160,213.5C 171.474,188.217 165.641,168.051 142.5,153C 128.445,146.931 114.445,147.098 100.5,153.5C 100.284,143.128 102.118,133.128 106,123.5C 120.964,91.9405 145.797,77.2738 180.5,79.5 Z"/></g>
<g><path style="opacity:1" fill="#ec6c45" d="M 180.5,79.5 C 221.961,87.2963 243.294,112.296 244.5,154.5C 229.062,146.288 213.728,146.621 198.5,155.5C 198.666,146.494 198.5,137.494 198,128.5C 196.817,107.282 187.317,91.1154 169.5,80C 173.152,79.5014 176.818,79.3347 180.5,79.5 Z"/></g>
<g><path style="opacity:1" fill="#f49978" d="M 139.5,96.5 C 156.628,97.1087 162.462,105.442 157,121.5C 148.595,130.326 139.928,130.659 131,122.5C 124.976,110.89 127.81,102.224 139.5,96.5 Z"/></g>
<g><path style="opacity:0.965" fill="#bbd6ea" d="M 23.5,134.5 C 27.3375,134.022 30.6709,135.022 33.5,137.5C 34.4816,163.122 34.8149,188.789 34.5,214.5C 33.4667,218.867 30.8,221.533 26.5,222.5C 24.2537,221.79 21.9204,221.29 19.5,221C 17.6667,220.5 16.5,219.333 16,217.5C 15.3333,191.5 15.3333,165.5 16,139.5C 17.3296,135.993 19.8296,134.327 23.5,134.5 Z"/></g>
<g><path style="opacity:0.995" fill="#bdd6ea" d="M 325.5,134.5 C 329.287,133.814 332.454,134.814 335,137.5C 335.667,164.5 335.667,191.5 335,218.5C 334.167,219.333 333.333,220.167 332.5,221C 329.183,221.498 325.85,221.665 322.5,221.5C 320.871,220.375 319.371,219.041 318,217.5C 317.5,211.175 317.334,204.842 317.5,198.5C 317.5,180.833 317.5,163.167 317.5,145.5C 316.391,138.957 319.058,135.29 325.5,134.5 Z"/></g>
<g><path style="opacity:1" fill="#e9664c" d="M 101.5,230.5 C 96.5995,227.108 92.0995,223.108 88,218.5C 72.4726,192.972 76.6393,171.305 100.5,153.5C 114.445,147.098 128.445,146.931 142.5,153C 165.641,168.051 171.474,188.217 160,213.5C 144.998,233.965 125.498,239.631 101.5,230.5 Z"/></g>
<g><path style="opacity:1" fill="#e9664c" d="M 244.5,154.5 C 258.196,162.724 265.53,174.89 266.5,191C 265.979,208.902 257.979,222.069 242.5,230.5C 237.161,233.085 231.495,234.585 225.5,235C 207.004,235.337 193.171,227.504 184,211.5C 174.843,189.092 179.676,170.425 198.5,155.5C 213.728,146.621 229.062,146.288 244.5,154.5 Z"/></g>
<g><path style="opacity:1" fill="#fdfbfb" d="M 114.5,157.5 C 135.384,155.849 149.217,164.849 156,184.5C 158.093,199.808 152.926,211.975 140.5,221C 121.726,230.513 105.892,227.013 93,210.5C 82.4644,185.579 89.631,167.912 114.5,157.5 Z"/></g>
<g><path style="opacity:1" fill="#fdfbfb" d="M 213.5,158.5 C 234.895,155.604 249.061,164.271 256,184.5C 258.597,207.228 248.764,221.061 226.5,226C 208.195,226.934 196.028,218.767 190,201.5C 186.326,180.846 194.16,166.512 213.5,158.5 Z"/></g>
<g><path style="opacity:1" fill="#090a0a" d="M 117.5,175.5 C 130.034,175.27 134.2,180.937 130,192.5C 122.768,198.517 116.768,197.517 112,189.5C 111.333,186.833 111.333,184.167 112,181.5C 113.36,178.977 115.193,176.977 117.5,175.5 Z"/></g>
<g><path style="opacity:1" fill="#080909" d="M 219.5,175.5 C 230.507,174.673 235.007,179.673 233,190.5C 226.667,198.5 220.333,198.5 214,190.5C 212.087,183.97 213.92,178.97 219.5,175.5 Z"/></g>
<g><path style="opacity:0.423" fill="#46b7e0" d="M 317.5,198.5 C 317.334,204.842 317.5,211.175 318,217.5C 319.371,219.041 320.871,220.375 322.5,221.5C 307.942,263.727 280.608,294.727 240.5,314.5C 239.525,311.689 238.858,308.689 238.5,305.5C 238.5,304.833 238.5,304.167 238.5,303.5C 281.196,280.805 307.53,245.805 317.5,198.5 Z"/></g>
<g><path style="opacity:0.423" fill="#45b6e0" d="M 34.5,214.5 C 46.5138,252.842 70.1805,281.509 105.5,300.5C 105.5,302.167 105.5,303.833 105.5,305.5C 105.326,307.861 104.993,310.194 104.5,312.5C 66.4128,293.003 40.4128,263.003 26.5,222.5C 30.8,221.533 33.4667,218.867 34.5,214.5 Z"/></g>
<g><path style="opacity:1" fill="#f8f7f6" d="M 198.5,262.5 C 192.094,278.37 180.427,284.203 163.5,280C 156.313,276.645 150.979,271.478 147.5,264.5C 146.671,261.531 146.505,258.531 147,255.5C 163.351,272.065 180.351,272.731 198,257.5C 198.494,259.134 198.66,260.801 198.5,262.5 Z"/></g>
<g><path style="opacity:1" fill="#090706" d="M 198.5,262.5 C 198.314,275.034 193.648,285.534 184.5,294C 172.819,300.27 162.986,298.104 155,287.5C 150.791,280.372 148.291,272.705 147.5,264.5C 150.979,271.478 156.313,276.645 163.5,280C 180.427,284.203 192.094,278.37 198.5,262.5 Z"/></g>
<g><path style="opacity:1" fill="#ec6a46" d="M 238.5,305.5 C 238.858,308.689 239.525,311.689 240.5,314.5C 240.971,322.058 243.138,329.058 247,335.5C 252.019,339.761 257.852,341.594 264.5,341C 255.498,347.046 246.164,347.879 236.5,343.5C 236.616,334.478 236.783,325.478 237,316.5C 206.429,334.031 174.262,337.864 140.5,328C 129.248,324.369 118.248,320.202 107.5,315.5C 107.56,324.513 107.893,333.513 108.5,342.5C 103.461,346.256 97.7942,347.422 91.5,346C 87.2707,344.885 83.2707,343.219 79.5,341C 91.8319,341.93 99.3319,336.43 102,324.5C 102.943,320.504 103.776,316.504 104.5,312.5C 104.993,310.194 105.326,307.861 105.5,305.5C 106.158,304.602 106.824,303.602 107.5,302.5C 150.66,326.678 194.327,327.678 238.5,305.5 Z"/></g>
<g><path style="opacity:0.993" fill="#f1784b" d="M 236.5,343.5 C 235.333,360.167 234.5,376.834 234,393.5C 235.214,395.049 236.714,396.215 238.5,397C 248.843,400.498 259.177,403.832 269.5,407C 255.459,407.888 241.459,407.554 227.5,406C 222.664,404.181 219.831,400.681 219,395.5C 217.525,378.511 216.191,361.511 215,344.5C 214.258,358.158 213.758,371.825 213.5,385.5C 213.369,392.601 213.869,399.601 215,406.5C 216.579,408.041 218.413,409.208 220.5,410C 231.195,412.206 241.862,414.539 252.5,417C 239.538,418.52 226.538,418.853 213.5,418C 205.99,417.485 201.156,413.652 199,406.5C 197.953,392.17 196.953,377.837 196,363.5C 194.86,372.404 194.36,381.404 194.5,390.5C 194.36,399.596 194.86,408.596 196,417.5C 198.251,419.377 200.751,420.877 203.5,422C 214.368,425.467 225.368,428.467 236.5,431C 221.859,432.868 207.192,432.868 192.5,431C 186.159,429.325 181.659,425.492 179,419.5C 176.793,408.8 174.46,398.133 172,387.5C 170,397.5 168,407.5 166,417.5C 163.883,424.825 159.049,429.325 151.5,431C 136.818,432.912 122.151,432.912 107.5,431C 117.957,428.802 128.29,426.136 138.5,423C 142.419,421.46 145.919,419.293 149,416.5C 150.093,412.784 150.593,408.95 150.5,405C 149.825,388.506 149.325,372.006 149,355.5C 147.903,373.186 146.57,390.853 145,408.5C 142.24,413.977 137.74,417.144 131.5,418C 118.133,418.832 104.799,418.499 91.5,417C 102.167,414.667 112.833,412.333 123.5,410C 128.175,408.494 130.842,405.327 131.5,400.5C 130.689,379.858 130.189,359.191 130,338.5C 128.616,356.163 127.282,373.83 126,391.5C 125.471,401.362 120.305,406.529 110.5,407C 98.8191,407.833 87.1524,407.666 75.5,406.5C 84.8525,403.772 94.1859,400.938 103.5,398C 105.746,396.961 107.913,395.794 110,394.5C 109.873,377.165 109.373,359.832 108.5,342.5C 107.893,333.513 107.56,324.513 107.5,315.5C 118.248,320.202 129.248,324.369 140.5,328C 174.262,337.864 206.429,334.031 237,316.5C 236.783,325.478 236.616,334.478 236.5,343.5 Z"/></g>
</svg>
