<svg xmlns="http://www.w3.org/2000/svg" viewBox="0 0 32 32"><path d="M27.4 5.5h-9.2l-2.1 4.2H4.3v4H.5l3.8 12.8h25.2v-21Zm-7.2 2.1h7.1v2.1h-8.1Zm5.5 6.1H6.6v-1.9h20.8v7.626Z" style="fill:#5c4d00;fill-opacity:1"/><g transform="matrix(1.14465 -.78383 .7697 1.16566 -6.01 2.614)"><rect width="2.799" height="10.513" x="7.214" y="18.782" ry="1.588" style="fill:#a68b00;fill-opacity:1;stroke:none;stroke-width:.9433;stroke-dasharray:none;stroke-opacity:1" transform="rotate(-.675)skewX(-.166)"/><circle cx="8.66" cy="16.119" r="3.199" style="fill:none;fill-opacity:1;stroke:#efc800;stroke-width:2.09486;stroke-dasharray:none;stroke-opacity:1"/><rect width="4.055" height="2.143" x="8.743" y="25.018" ry=".727" style="fill:#efc800;fill-opacity:1;stroke:none;stroke-width:3.07927;stroke-dasharray:none;stroke-opacity:1" transform="matrix(.99978 .02075 .0211 .99978 0 0)"/><rect width="2.716" height="2.142" x="9.213" y="22.057" ry=".727" style="fill:#efc800;fill-opacity:1;stroke:none;stroke-width:2.51931;stroke-dasharray:none;stroke-opacity:1" transform="matrix(.99968 .0254 .0054 .99999 0 0)"/></g></svg>