<svg xmlns="http://www.w3.org/2000/svg" viewBox="0 0 32 32"><title>folder_type_mysql</title><path d="M27.917,6H18.143l-2,4H5V27H30V6ZM28,10H20.19l1.048-2H28Z" style="fill:#55abbf"/><path d="M16.018,14.715a2.3,2.3,0,0,0-.591.072v.029h.028a4.867,4.867,0,0,0,.461.591c.116.231.217.46.332.691l.028-.029a.809.809,0,0,0,.3-.721,3.249,3.249,0,0,1-.173-.3c-.086-.144-.274-.216-.39-.331" style="fill:#5d87a1;fill-rule:evenodd"/><path d="M30.328,27.286a6.666,6.666,0,0,0-2.8.4c-.216.086-.562.086-.591.36.116.115.13.3.232.462a3.365,3.365,0,0,0,.749.879c.3.231.605.46.923.662.562.347,1.2.548,1.743.894.318.2.634.461.953.678.158.115.258.3.46.374v-.044a2.9,2.9,0,0,0-.22-.462c-.144-.143-.288-.274-.433-.417a6.869,6.869,0,0,0-1.5-1.455c-.462-.318-1.471-.75-1.658-1.282l-.029-.029a5.793,5.793,0,0,0,.995-.232c.489-.129.936-.1,1.441-.229.231-.058.649-.2.649-.2v-.225c-.258-.256-.442-.6-.713-.841a19.087,19.087,0,0,0-2.352-1.753c-.443-.285-1.013-.47-1.483-.713-.17-.086-.455-.128-.555-.271a5.721,5.721,0,0,1-.585-1.1c-.413-.783-.813-1.652-1.169-2.48a15.244,15.244,0,0,0-.727-1.625,14.371,14.371,0,0,0-5.517-5.331,6.832,6.832,0,0,0-1.824-.585c-.357-.015-.713-.043-1.069-.057a5.688,5.688,0,0,1-.656-.5c-.813-.513-2.907-1.625-3.506-.157-.385.927.57,1.839.9,2.31a6.679,6.679,0,0,1,.726,1.069c.1.242.128.5.229.756a16.992,16.992,0,0,0,.741,1.911,6.739,6.739,0,0,0,.527.883c.115.158.314.228.357.486a4.084,4.084,0,0,0-.328,1.069,6.279,6.279,0,0,0,.414,4.789c.228.356.77,1.141,1.5.841.641-.256.5-1.069.684-1.781.043-.172.014-.285.1-.4v.14s.364.8.544,1.209a8.145,8.145,0,0,0,1.805,1.951,2.647,2.647,0,0,1,.663.875v.258h.322a.794.794,0,0,0-.319-.593,7.079,7.079,0,0,1-.722-.874,18.827,18.827,0,0,1-1.555-2.651c-.223-.453-.417-.947-.6-1.4-.083-.174-.083-.437-.222-.524a5.473,5.473,0,0,0-.666.989,8.6,8.6,0,0,0-.389,2.2c-.055.015-.028,0-.055.029-.444-.116-.6-.6-.764-1a6.6,6.6,0,0,1-.125-3.89c.1-.305.515-1.267.347-1.558-.084-.278-.361-.437-.514-.656a5.851,5.851,0,0,1-.5-.932c-.333-.815-.5-1.719-.861-2.534a7.835,7.835,0,0,0-.694-1.122,7.221,7.221,0,0,1-.764-1.136c-.069-.161-.166-.423-.056-.6a.227.227,0,0,1,.195-.19c.18-.16.694.043.874.131a6.932,6.932,0,0,1,1.374.728c.195.146.652.516.652.516h.135c.461.1.981.028,1.413.158a9.225,9.225,0,0,1,2.075.994,12.792,12.792,0,0,1,4.5,4.93c.173.331.246.634.4.979.3.708.678,1.429.98,2.12a9.475,9.475,0,0,0,1.024,1.932c.216.3,1.081.461,1.47.62a10.321,10.321,0,0,1,.995.4c.49.3.979.649,1.441.981.23.173.951.533.994.822" style="fill:#00758f;fill-rule:evenodd"/></svg>