<svg xmlns="http://www.w3.org/2000/svg" xml:space="preserve" width="32mm" height="32mm" viewBox="0 0 32 32"><path d="M14.033 25.836c-.63-.18-.092-1.206-.465-1.431-2.314-.025-4.63-.003-6.942-.074-.751-.516-.632-1.793-1.046-2.603-.68-2.321-1.421-4.629-2.059-6.96.1-.537.68-.31 1.058-.356h1.493c.058-.976-.031-1.981.139-2.938 1.54-.15 3.11-.024 4.66-.066q2.106 0 4.21-.055c.464-.889.847-1.825 1.385-2.671.933-.343 2.002-.128 2.992-.213 1.832-.002 3.676-.1 5.502-.017.33.837.112 1.846.2 2.748l.03 2.153c.78-.13 1.601.168 1.298 1.136.008 3.698.05 7.398-.034 11.095-.654.554-1.722.147-2.541.278-3.293-.002-6.588.035-9.88-.026m-.377-11.535c.198-.52.052-.854-.513-.708l-4.39-.02c.022.497-.06.989.574.8 1.443-.021 2.89.013 4.33-.072m9.307-3.308c-.144-.84-1.657-.165-2.357-.375l-2.069.021c-.423.48-.484.854.35.685 1.365.02 2.73.026 4.096.043z" style="fill:#b6b6fb" transform="translate(.989 -1.144)"/><path d="M13.937 25.708c-.464-.219.098-1.262-.382-1.347l-7.037-.022c-.489-.79-.58-1.77-.9-2.637-.685-2.298-1.397-4.597-2.057-6.899.037-.544.634-.291.987-.347.634-.082 1.85.346 1.582-.699.22-.703-.417-2.218.531-2.295 2.811-.04 5.624.023 8.434-.073.47-.9.88-1.836 1.41-2.703.965-.263 2.06-.087 3.073-.17 1.765-.023 3.53-.064 5.295-.047.43.719.14 1.786.249 2.647l.034 2.303c.411.08 1.077-.142 1.28.303v11.816c-.215.33-.582.26-.924.257-3.795-.015-7.591.038-11.385-.037zm7.57-1.51c-.147-.622-1.565-.158-2.19-.332-1.447-.024-2.896-.074-4.343-.041-.263.64 1.311.22 1.768.37 1.585.001 3.185.116 4.765.003m2.951-.166c1.078-.722-.893-1.887-.954-.558-.066.514.55.804.954.558m-3.003-1.045c-.584-.471-1.804-.13-2.64-.236-1.252.03-2.518-.066-3.76.07.225.603 1.736.12 2.435.283h3.935zm.096-2.803c-.615-.447-1.766-.128-2.585-.256-1.333-.014-2.668-.064-4-.01-.268.63 1.248.191 1.662.35q2.454.05 4.91.034zm2.803-.008c1.542-1.104-1.647-1.81-.667-.138.174.17.44.257.667.138M21.4 19.163c.249-.477-.548-.202-.817-.276-1.81.008-3.623-.05-5.431.02-.382.49 1.173.254 1.583.312 1.554-.02 3.116.054 4.665-.056m.045-2.765c.147-.624-1.346-.225-1.844-.351q-2.363-.015-4.727-.025c.2.686 1.519.196 2.158.371 1.47.017 2.944.07 4.413.005m3.04-.203c1.127-.97-1.259-1.76-.967-.354.084.42.631.583.967.354m-3.042-1c-.525-.51-1.862-.093-2.674-.241-1.241.012-2.486-.044-3.725.036.127.624 1.562.146 2.185.296 1.37-.017 2.741.022 4.11-.048zm-7.745-.85c.134-.47.173-.982-.447-.794h-4.51c-.244 1.077.82.877 1.606.858 1.117-.014 2.237.008 3.351-.064m9.308-3.229c.206-.679-.38-.57-.811-.554-1.226.022-2.456-.031-3.677.07-.386.388-.635.911.17.73 1.434.035 2.87.028 4.305.027z" style="fill:#9191f2" transform="translate(.989 -1.144)"/><path d="M14.03 25.708c-.554-.233.064-1.268-.41-1.369H6.596c-.561-.653-.572-1.612-.883-2.397-.711-2.39-1.442-4.78-2.147-7.167.154-.511.728-.262 1.116-.32h1.435c.06-.975-.028-1.975.137-2.935 1.679-.149 3.383-.024 5.071-.069a154 154 0 0 0 3.802-.054c.463-.889.846-1.825 1.384-2.671.925-.341 1.984-.128 2.965-.212 1.813-.002 3.637-.099 5.442-.018.325.835.114 1.835.199 2.734l.03 2.255c.696-.084 1.534.04 1.25.976.026 3.69-.002 7.378-.005 11.067-.25.37-.749.137-1.124.202-3.746-.003-7.492.036-11.237-.022m7.504-1.482c-.092-.757-1.676-.216-2.329-.41-1.427-.005-2.857-.089-4.283-.016-.276.734 1.317.275 1.792.438 1.58.017 3.163.093 4.741.024zm2.938-.162c1.369-1.254-1.806-1.743-.844-.112.21.224.585.29.844.112m-3.01-.969c-.154-.677-1.56-.184-2.223-.343-1.408.029-2.828-.064-4.228.057-.216.527.48.29.766.339 1.895-.018 3.795.047 5.685-.053m.089-2.78c-.159-.807-1.732-.224-2.43-.418-1.425.032-2.87-.108-4.282.06.296.68 1.778.187 2.53.367 1.392.005 2.794.095 4.182-.009m2.75-.08c1.329-.447-.358-2.154-.819-.853-.16.478.324 1.032.82.853m-2.884-1.039c.182-.701-1.33-.223-1.835-.37-1.518-.004-3.037-.002-4.555-.002-.153.842 1.329.26 1.86.434 1.508-.025 3.032.075 4.53-.062m.142-2.82c-.208-.725-1.652-.183-2.34-.373-1.438-.015-2.877-.057-4.314-.018-.173.775 1.398.261 1.925.432 1.573-.017 3.165.09 4.73-.041m2.973-.17c1.22-1.347-1.89-1.623-.902-.064a.7.7 0 0 0 .902.064m-3.097-.94c.027-.725-1.495-.205-2.065-.368q-2.147-.001-4.295-.001c-.358.487.312.483.635.441 1.864-.012 3.73.03 5.593-.033zm-8.116-.883c.58.185.564-.474.448-.8-1.685-.068-3.373-.036-5.06-.055.075.43-.126 1.083.518.884 1.365-.004 2.73.012 4.094-.029m9.69-3.387c-.11-.922-1.723-.204-2.46-.422l-2.056.02c-.313.424-.703.964.185.771 1.449.025 2.897.029 4.346.046z" style="fill:#7878f6" transform="translate(.989 -1.144)"/><path d="M14.476 25.034c-.029-1.018-.001-2.037.002-3.055h11.251v3.088c-3.73-.007-7.46.052-11.19-.018zm7.075-.792c-.094-.778-1.606-.237-2.255-.426-1.477-.003-2.964-.118-4.434.003.028.787 1.597.224 2.217.427 1.489.006 2.988.102 4.472-.004m2.95-.173c1.115-.823-.992-1.997-1.044-.578-.058.54.619.889 1.045.578m-3.084-.946c.199-.737-1.327-.25-1.834-.4-1.518.03-3.053-.093-4.56.056-.05.786 1.503.247 2.092.412 1.431-.028 2.88.069 4.302-.068M6.47 24.213c-.469-.921-.62-1.987-.961-2.965-.653-2.156-1.304-4.317-1.943-6.473.154-.511.728-.262 1.116-.32h1.435c.06-.975-.028-1.975.137-2.935 1.679-.149 3.383-.024 5.071-.069a154 154 0 0 0 3.802-.054c.463-.889.846-1.825 1.384-2.671.925-.341 1.984-.128 2.965-.212 1.812-.002 3.636-.099 5.442-.018.341.978.108 2.128.204 3.17-.186.53.47 1.983-.499 1.776-5.305.022-10.61.037-15.915.088.101.385-.166 1.09.46.888 1.51-.004 3.019-.013 4.528-.01.107 3.025.04 6.058.043 9.087.335 1.35-1.327.677-2.111.842-1.678.004-3.355.002-5.032.002zm16.54-13.217c-.11-.922-1.723-.204-2.46-.422l-2.056.02c-.313.424-.703.964.185.771 1.449.025 2.897.029 4.346.046zm-8.5 10.158a19 19 0 0 1 0-3.071c3.682-.092 7.369-.07 11.052-.014.394.678.113 1.893.172 2.78-.356.72-1.852.154-2.649.354-2.858.001-5.719.04-8.575-.05m7.042-.839c-.122-.789-1.679-.225-2.346-.425-1.427-.006-2.858-.089-4.283-.017-.316.787 1.284.322 1.786.47 1.612-.006 3.234.072 4.843-.028m2.983-.183c1.066-.865-1.059-1.949-1.077-.558-.066.561.66.896 1.077.558m-3.1-.94c.09-.706-1.367-.209-1.908-.36-1.505.002-3.011.01-4.517.014 0 .838 1.581.222 2.189.419 1.409-.033 2.84.075 4.237-.073m-6.923-1.942c-.096-1.004-.07-2.034-.018-3.044 1.02-.184 2.165-.048 3.23-.101 2.648.002 5.297-.03 7.943.043.176.954.062 1.991.057 2.976-.777.3-1.906.075-2.821.15-2.797 0-5.595.012-8.391-.024m6.995-.833c.131-.78-1.42-.293-1.977-.443-1.532.013-3.07-.075-4.599.023-.365.665 1.22.3 1.647.425 1.61.02 3.225.1 4.835.03zm2.966-.163c1.208-.806-1.004-2.008-1.017-.583-.034.512.6.862 1.017.583m-3.026-.985c.045-.732-1.463-.202-2.03-.37-1.467.028-2.946-.066-4.405.056.086.763 1.615.206 2.277.383 1.384-.03 2.784.069 4.158-.07" style="fill:#5d5daf" transform="translate(.989 -1.144)"/><path d="M14.52 24.99c-.029-.989 0-1.978.002-2.967h11.163v3c-3.7-.007-7.403.052-11.102-.018zm7.047-.724c.09-.86-1.558-.302-2.146-.497-1.489-.009-2.98-.079-4.467-.025-.564.81 1.235.433 1.734.534 1.598.015 3.2.095 4.796.027zm2.98-.187c1.067-.76-.813-2.056-1.119-.76-.19.65.59 1.145 1.119.76m-3.101-.936c.18-.878-1.55-.305-2.186-.478-1.401.001-2.805-.03-4.205.04-.307.924 1.503.368 2.141.525 1.377-.012 2.757.044 4.132-.033zM6.454 24.152c-.703-1.966-1.212-4.007-1.85-6-.333-1.122-.675-2.249-.998-3.37.54-.708 1.975.076 2.547-.456.063-.92.003-1.85.116-2.765 1.782-.147 3.589-.029 5.38-.074a110 110 0 0 0 3.49-.054c.47-.9.88-1.836 1.41-2.703.955-.262 2.041-.087 3.044-.17 1.746-.022 3.492-.063 5.237-.047.429.705.123 1.758.225 2.603l.012 2.259c-5.456.033-10.913.055-16.37.132-.087.706.156 1.153.96.943 1.346.017 2.693-.029 4.039.022.096 3.213.072 6.433.014 9.648-.813.369-2.127.07-3.123.175H6.562zm16.597-13.036c.218-.701-.351-.632-.812-.6-1.26.033-2.535-.056-3.782.092-.353.38-.72.988.124.798 1.485.037 2.971.027 4.457.027zm-8.497 10.01c-.102-1.002-.019-2.021-.032-3.03h11.163c-.013 1.009.07 2.028-.032 3.03q-5.55.076-11.099 0m7.024-.783c-.037-.909-1.738-.278-2.414-.498-1.426.013-2.868-.128-4.284.008-.273.886 1.467.349 2.047.516 1.547-.02 3.115.118 4.651-.026m2.964-.174c1.16-.882-1.086-2.077-1.13-.595-.055.565.698.963 1.13.595m-3.07-.948c.134-.842-1.503-.264-2.085-.44q-2.176-.002-4.353-.001c-.406.879 1.26.404 1.753.529 1.525-.016 3.053.038 4.576-.038zm-6.943-2.015c-.014-1.006-.099-2.044.04-3.032q5.542-.062 11.084.01c.102 1.001.019 2.02.032 3.03-3.718 0-7.438.035-11.156-.008m6.986-.733c.317-.851-1.342-.384-1.877-.521-1.603.003-3.211-.082-4.811.007-.027.896 1.567.328 2.215.519 1.49.003 2.99.108 4.473-.005m2.908-.14c1.257-.637-.532-2.164-.982-.905-.208.59.42 1.172.982.905M21.48 15.31c.13-.86-1.463-.28-2.033-.456h-4.412c-.406.88 1.264.404 1.757.529 1.56-.034 3.14.078 4.688-.073" style="fill:#313190" transform="translate(.989 -1.144)"/><path d="M14.6 25.016c-.109-.981-.035-1.982-.056-2.971h11.119c-.028.99.069 2.003-.07 2.973q-5.497.052-10.994-.002m6.976-.724c.236-.924-1.497-.388-2.081-.562-1.51-.029-3.021-.044-4.532-.064-.722.94 1.26.558 1.795.661 1.574.008 3.155.103 4.726.016zm2.88-.113c1.34-.743-.772-2.275-1.077-.826-.122.584.543 1.106 1.077.826m-2.954-1.039c.195-.876-1.454-.31-2.014-.477-1.506.03-3.025-.07-4.522.069-.106.967 1.614.298 2.25.504H21.4zm-15.03.995c-.626-1.76-1.08-3.596-1.657-5.38-.388-1.313-.784-2.628-1.165-3.94.507-.69 1.932.088 2.534-.444.08-.935.023-1.878.12-2.812 2.944-.058 5.891.018 8.836-.082.492-.925.892-1.91 1.48-2.778 2.673-.14 5.356-.133 8.034-.148.714.371.187 1.8.373 2.59l.031 2.21c-5.406.036-10.813.005-16.218.12-.528.408-.03 1.352.728 1.027 1.372.003 2.744-.011 4.116-.017v9.748l-7.12.023zM23.06 11.432c.447-1.369-1.208-.875-2.023-.954l-2.5.01c-.438.416-.886 1.212.127.965 1.443.007 2.89.066 4.332.013zm-8.486 9.657c-.05-.99-.023-1.981-.03-2.971l11.097.022v2.956c-3.69 0-7.379.036-11.067-.007m7.021-.723c.3-.56-.492-.554-.851-.52-1.938-.008-3.876-.071-5.813-.024-.656.797 1.127.511 1.607.57 1.658.01 3.322.109 4.976.025zm2.874-.107c1.316-.721-.783-2.278-1.084-.818-.121.625.527 1.066 1.084.818m-3.092-.954c.66-.857-1.17-.49-1.679-.569-1.56.03-3.13-.072-4.684.068-.425.89 1.437.414 1.953.547 1.47-.013 2.944.036 4.41-.046m-6.823-3.603.012-1.489h11.075l.023 2.978H14.543zm7.05.74c.283-.547-.457-.521-.803-.498-1.973-.017-3.952-.13-5.92-.037-.414.94 1.453.436 2.044.58 1.543-.014 3.097.102 4.634-.013zm2.793-.06c1.405-.636-.546-2.358-1.003-.919-.189.575.46 1.15 1.003.919m-2.902-1.064c.212-.904-1.449-.35-2.019-.509-1.483.029-2.975-.068-4.453.067-.443.918 1.518.41 2.06.55h4.304z" style="fill:#171784" transform="translate(.989 -1.144)"/><path d="M14.618 24.972c-.05-.96-.023-1.922-.03-2.883H25.62l-.023 2.89c-3.66 0-7.32.036-10.98-.007m7.015-.694c.124-1.015-1.665-.383-2.316-.585-1.49.012-2.985-.072-4.47.04-.533.913 1.383.52 1.91.639 1.588.039 3.177.044 4.766.034zm2.838-.07c1.462-.85-1.004-2.43-1.143-.72-.024.572.637.993 1.143.72m-2.947-1.046c.38-.566-.414-.6-.785-.544-1.897.015-3.795-.037-5.69.038-.674.91 1.212.542 1.726.621q2.313.003 4.625.003zm-14.985 1.02c-.439-.95-.636-2.023-.971-3.023-.61-2.13-1.322-4.236-1.878-6.376.375-.468 1.278-.158 1.89-.24.71.197.724-.321.646-.932.137-.815-.408-2.421.946-2.06 2.67-.034 5.342.015 8.012-.074.484-.92.89-1.888 1.458-2.759 2.72-.077 5.444-.134 8.165-.112.403.83.11 2.092.227 3.082-.162.504.443 1.822-.472 1.6-3.575.034-7.152-.02-10.724.098-1.734.103-3.476.036-5.214.055.014.6-.022 1.314.82 1.052 1.398.011 2.797-.004 4.195-.008v9.744c-2.319-.005-4.64.045-6.958-.01zM23.12 11.4c.132-.567.011-1.145-.645-.934l-3.982.024c-.646.586-.682 1.215.366.968 1.412.019 2.823.026 4.235.041l.014-.055zm-8.532 8.218v-1.456h11.03v2.912h-11.03zm6.969.818c.515-.98-1.41-.474-1.948-.63a197 197 0 0 0-4.75-.056c-.55 1.03 1.325.558 1.897.695 1.596-.006 3.213.13 4.8-.009m2.883-.129c1.364-.656-.514-2.417-1.076-.984-.23.624.477 1.259 1.076.984m-2.896-1.067c.197-.97-1.494-.38-2.108-.548q-2.19 0-4.379 0c-.671.972 1.167.586 1.71.66q2.333.002 4.664.001zm-6.956-3.549v-1.456h11.03v2.912h-11.03zm7.018.801c.355-.59-.415-.648-.81-.593-1.972-.013-3.948-.112-5.918-.04-.636.96 1.318.544 1.853.659 1.595.006 3.194.1 4.787.019zm3.024-.229c1.332-1.596-2.255-1.775-1.077-.043.253.276.806.304 1.077.043m-3.204-.849c.678-.897-1.133-.6-1.638-.643-1.575.015-3.152-.027-4.724.052-.624.99 1.334.54 1.96.64 1.466-.014 2.939.049 4.402-.049" style="fill:#00006b" transform="translate(.989 -1.144)"/></svg>