<svg viewBox="0 0 32 32" xmlns="http://www.w3.org/2000/svg"><path d="m27.5 5.5h-9.3l-2.1 4.2h-11.7v16.8h25.2v-21zm0 4.2h-8.2l1.1-2.1h7.1z" fill="#3e7391"/><path d="m30.983 11.506c-.15-.123-1.328-.755-1.328-.755l-1.257.731 1.258-.731-1.256-.751v1.48l-1.311-.734s-1.073.627-1.594.928c-.656.378-2.264 1.336-2.264 1.336v1.414l-1.331 3.452v1.874l-.93.543-.37.968-2.6-6.761v-1.486l-5.2-3.014-2.6 1.5v1.53l1.619 3.9.984.579v1.778l3.9 9.471 3.9 2.23v.012l3.897-2.252 6.5-15.748-.014-1.493" fill="#3185b8"/><path d="m20.6 30.989-3.9-2.232-3.9-9.471v-1.778l-.984-.579-1.616-3.899v-1.53l1.281.747v1.5l1.324.768v-1.507l2.586 1.5.125 1.481 3.76 9.76 2.613 1.522v2.985l-1.289-.756v1.5" fill="#3185b8"/><path d="m18 14.5 2.6 6.761v3.726l-1.321.752-3.758-9.763-.127-1.476 2.6-1.49v1.49m-6.513-2.249v1.5l1.324-.745-1.324-.76" fill="#61a5ce"/><path d="m12.807 14.521v-1.513l-1.324.745z" fill="#eae9e6"/><path d="m20.6 24.987 1.3.746 1.451-3.643 1.118.665v-3.493l.357-.843.951.557v-1.476l-1.3-.753 1.3-.756-1.277-.738v-1.5l-1.273-.742v1.414l-1.327 3.451v1.874l-.93.543-.37.968z" fill="#3185b8"/><path d="m20.58 26.512 1.311.756-.007 2.986 2.609-1.5 6.507-15.754-.014-1.493-3.9 2.247v3l-1.307.749v1.476l-.952-.557-.356.843v3.485l-1.811 1.065-.76 1.917-1.321.779" fill="#61a5ce"/><path d="m15.385 16 1.308-.76v1.5z" fill="#eae9e6"/><path d="m16.693 16.746 1.3.733v-1.479l-1.3-.76v1.5" fill="#3185b8"/><path d="m14.1 19.73v1.514l1.31-.754z" fill="#61a5ce"/><path d="m16.714 21.251-1.314.765-1.3-.772 1.31-.754 1.307.761" fill="#eae9e6"/><path d="m16.7 25.749v1.527l1.316-.761z" fill="#61a5ce"/><path d="m19.281 28.741 1.326.771v-1.551l-1.331.78" fill="#eae9e6"/><path d="m20.6 31v-1.489l1.278.742z" fill="#61a5ce"/><path d="m20.6 24.987-1.321.752 1.3.774 1.321-.779-1.3-.746" fill="#eae9e6"/><path d="m27.085 16.751v-3l-1.291-.735v1.494l-1.29.741z" fill="#3185b8"/><path d="m24.483 16.747 1.3-.756 1.3.759-1.307.749-1.3-.753" fill="#eae9e6"/><path d="m24.5 15.253 1.29-.741v-1.494l-1.294.735v1.5" fill="#61a5ce"/><path d="m28.4 11.481v-1.481l1.257.749-1.257.731" fill="#3185b8"/><path d="m30.983 11.506-3.9 2.247-1.291-.735-1.294.735-1.273-.742s1.608-.957 2.264-1.336c.521-.3 1.594-.928 1.594-.928l1.312.735 1.257-.731s1.178.632 1.328.755m-12.98 1.508-2.6 1.486-5.189-3 2.589-1.5z" fill="#eae9e6"/><path d="m29.675 13.719v-1.459l-1.268.732zm-3.844 6.781 1.262-.724v1.452z" fill="#3185b8"/><path d="m23.193 26.5v1.5l1.315-.76z" fill="#eae9e6"/><path d="m24.516 27.246-.016-1.493-1.307.748 1.323.744" fill="#3185b8"/></svg>