<svg xmlns="http://www.w3.org/2000/svg" xmlns:xlink="http://www.w3.org/1999/xlink" viewBox="0 0 32 32"><defs><mask id="a" x="11.227" y="11.227" width="19.545" height="19.546" maskUnits="userSpaceOnUse"><path d="M14.08,24.342l.983-1.052,1.222,1.222-1,.994,1.205,1.2.993-.994,1.229,1.23-.974.973,2.85,2.85h4.48a.814.814,0,0,0,.814-.814V23.439l4.162-2.775a1.626,1.626,0,0,0,.724-1.354V12.041a.814.814,0,0,0-.814-.814H22.686a1.631,1.631,0,0,0-1.355.724l-2.774,4.162H12.04a.814.814,0,0,0-.812.815v4.479Z" style="fill:#fff"/><path d="M12.693,25.886H11.228v4.887h4.885V29.307h-3.42Z" style="fill:#fff"/></mask><linearGradient id="b" x1="-117.555" y1="260.894" x2="-116.883" y2="260.894" gradientTransform="translate(7610.663 3431.012) rotate(90) scale(29.091)" gradientUnits="userSpaceOnUse"><stop offset="0" stop-color="#fff"/><stop offset="1" stop-color="#fff" stop-opacity="0"/></linearGradient><linearGradient id="c" x1="-117.555" y1="261.146" x2="-116.883" y2="261.146" xlink:href="#b"/></defs><title>folder_type_azurepipelines</title><path d="M27.9,6H18.1l-2,4H5V27H30V6Zm.1,4H20.2l1-2H28Z" style="fill:#7798cc"/><g style="mask:url(#a)"><path d="M11.228,25.886h1.465v3.421h3.42v1.466H11.228Z" style="fill:#91b0f2"/><path d="M11.228,16.927v4.48l2.852,2.935L15.3,23.035,18.964,26.7,17.742,27.92l2.85,2.85h4.48a.814.814,0,0,0,.814-.814V23.439l-7.329-7.326H12.04A.813.813,0,0,0,11.228,16.927Z" style="fill:#0f46bd"/><path d="M14.281,22.511l7.533-11.284h8.959v8.958L19.489,27.718Z" style="fill:#062aa9"/><path d="M14.752,22.983a.814.814,0,0,1-.1-1.028l6.679-10a1.629,1.629,0,0,1,1.354-.724h7.275a.815.815,0,0,1,.815.814v7.274a1.627,1.627,0,0,1-.725,1.354l-10,6.679a.815.815,0,0,1-1.028-.1Z" style="fill:#2560e0"/><path d="M15.289,25.506l6.218-6.218,1.2,1.2-6.217,6.219Z" style="fill:#0a44c2"/><path d="M15.289,25.506l6.218-6.218,1.2,1.2-6.217,6.219Z" style="fill:#729af2"/><path d="M17.487,25.716l-1.2-1.2,5.225-5.224,1.2,1.2Z" style="fill:#4c80f0"/><path d="M25.887,18.557a2.443,2.443,0,1,0-2.443-2.443h0A2.443,2.443,0,0,0,25.887,18.557Z" style="fill:#0a44c2"/><path d="M25.887,18.557a2.443,2.443,0,1,0-2.443-2.443h0A2.443,2.443,0,0,0,25.887,18.557Z" style="fill:#91b0f2"/><g style="opacity:0.20000000298023224"><path d="M14.08,24.342l.983-1.052,1.222,1.222-1,.994,1.205,1.2.993-.994,1.229,1.23-.974.973,2.85,2.85h4.48a.814.814,0,0,0,.814-.814V23.439l4.162-2.775a1.626,1.626,0,0,0,.724-1.354V12.041a.814.814,0,0,0-.814-.814H22.686a1.631,1.631,0,0,0-1.355.724l-2.774,4.162H12.04a.814.814,0,0,0-.812.815v4.479Z" style="fill:url(#b)"/><path d="M12.693,25.886H11.228v4.887h4.885V29.307h-3.42Z" style="fill:url(#c)"/></g></g></svg>