<svg xmlns="http://www.w3.org/2000/svg" viewBox="0 0 32 32"><title>folder_type_cypress_opened</title><path d="M27.4,5.5H18.2L16.1,9.7H4.3V26.5H29.5V5.5Zm0,18.7H6.6V11.8H27.4Zm0-14.5H19.2l1-2.1h7.1V9.7Z" style="fill:#7b7bdb"/><polygon points="25.7 13.7 0.5 13.7 4.3 26.5 29.5 26.5 25.7 13.7" style="fill:#7b7bdb"/><path id="_Path_" data-name="&lt;Path&gt;" d="M20.473,11.029a9.436,9.436,0,1,1-9.436,9.436,9.431,9.431,0,0,1,9.436-9.436Z" style="fill:#4a4a4d"/><path d="M20.473,30.074a9.608,9.608,0,1,1,9.608-9.608A9.619,9.619,0,0,1,20.473,30.074Zm0-18.873a9.265,9.265,0,1,0,9.265,9.265A9.275,9.275,0,0,0,20.473,11.2Z" style="fill:#fff"/><g id="_Group_" data-name="&lt;Group&gt;" style="opacity:0.10000000149011612"><path id="_Path_2" data-name="&lt;Path&gt;" d="M30.9,20.877a1.232,1.232,0,0,0,.069-.618.861.861,0,0,1-.069-.343v-.275c0-.24-.069-.377-.069-.583a7.155,7.155,0,0,0-.24-1.235,10.386,10.386,0,0,0-2.745-4.873,9.7,9.7,0,0,0-2.436-1.784,21.632,21.632,0,0,0-2.471-.961H22.6v-.069h-.48v-.069h-.652V10h-1.99v.069h-.652v.069h-.412v.069H18a14.892,14.892,0,0,0-2.745,1.132,12.029,12.029,0,0,0-1.373.926,16.292,16.292,0,0,0-1.373,1.3A6.283,6.283,0,0,0,11.62,14.8c-.24.412-.48.789-.686,1.2-.069.1-.069.24-.137.377l-.137.275c-.069.206-.1.377-.172.583a7.289,7.289,0,0,0-.343,1.235,11.175,11.175,0,0,0,.275,4.907,10.817,10.817,0,0,0,1.029,2.436,9.118,9.118,0,0,0,1.922,2.4A13.368,13.368,0,0,0,15.806,29.9c.789.377,1.613.583,2.436.892h.412v.069h.652v.069H20.2V31h.48v-.069h.892v-.069h.652v-.069h.412A26.676,26.676,0,0,0,25.38,29.73,8.706,8.706,0,0,0,28.125,27.6,10.315,10.315,0,0,0,30.6,22.73a1.431,1.431,0,0,0,.069-.206v-.137a1.219,1.219,0,0,0,.069-.343V21.77c0-.1.069-.172.069-.275A1.027,1.027,0,0,0,30.9,20.877Z" style="fill:#fff"/><g id="_Group_2" data-name="&lt;Group&gt;"><path id="_Path_3" data-name="&lt;Path&gt;" d="M20.473,11.029a9.436,9.436,0,1,1-9.436,9.436,9.431,9.431,0,0,1,9.436-9.436Z" style="fill:#fff"/><path d="M20.473,30.074a9.608,9.608,0,1,1,9.608-9.608A9.619,9.619,0,0,1,20.473,30.074Zm0-18.873a9.265,9.265,0,1,0,9.265,9.265A9.275,9.275,0,0,0,20.473,11.2Z" style="fill:#fff"/></g></g><path id="_Path_4" data-name="&lt;Path&gt;" d="M25.483,24.618A4.956,4.956,0,0,1,23.9,27.054a5.162,5.162,0,0,1-2.882,1l-.24-1.578a3.887,3.887,0,0,0,1.75-.549,4.441,4.441,0,0,0,.412-.412h0L20.1,16.382h2.368l1.647,6.828,1.75-6.828h2.3l-2.676,8.235Z" style="fill:#fff"/><path id="_Path_5" data-name="&lt;Path&gt;" d="M17.213,16.074a3.917,3.917,0,0,1,1.475.24,4.435,4.435,0,0,1,1.27.755L19,18.373a3.764,3.764,0,0,0-.789-.446,2.187,2.187,0,0,0-.824-.137c-1.167,0-1.75.892-1.75,2.711a3.158,3.158,0,0,0,.446,1.956,1.483,1.483,0,0,0,1.3.583,2.013,2.013,0,0,0,.789-.137,7.034,7.034,0,0,0,.858-.446l.961,1.373a4.1,4.1,0,0,1-2.711.961,4.246,4.246,0,0,1-2.127-.515,3.454,3.454,0,0,1-1.373-1.51,5.283,5.283,0,0,1-.48-2.3,5.393,5.393,0,0,1,.48-2.3,3.635,3.635,0,0,1,1.373-1.578,4.352,4.352,0,0,1,2.059-.515Z" style="fill:#fff"/></svg>