<svg xmlns="http://www.w3.org/2000/svg" viewBox="0 0 32 32"><title>folder_type_mariadb_opened</title><path d="M27.9,6H18.2l-2,4H5V27H30V6ZM28,24H7V12H28Zm.1-14H20.3l1-2H28l.1,2Z" style="fill:#7ba4db"/><polygon points="25.9 14 0.3 14 4.1 27 29.7 27 25.9 14" style="fill:#7ba4db"/><path d="M31.451,15.4c-.386.012-.264.124-1.1.329a16.885,16.885,0,0,0-2.781.525c-2.71,1.137-3.254,5.021-5.717,6.413-1.842,1.04-3.7,1.123-5.37,1.647a9.825,9.825,0,0,0-3.293,1.907c-.772.666-.792,1.251-1.6,2.085-.863.893-3.429.015-4.592,1.382.375.379.539.485,1.277.387-.153.29-1.054.534-.878.96.186.448,2.364.753,4.345-.443a7.243,7.243,0,0,1,3.093-1.551,23.816,23.816,0,0,1,6.152.469,9.588,9.588,0,0,1-1.473,2.342c-.159.171.319.19.865.087a8.611,8.611,0,0,0,2.429-.869c.91-.53,1.048-1.887,2.164-2.181a2.5,2.5,0,0,0,3.363.417c-.921-.261-1.175-2.221-.865-3.085.294-.818.585-2.126.882-3.206a17.615,17.615,0,0,1,.821-3.215,7.6,7.6,0,0,1,1.776-1.7A2.493,2.493,0,0,0,32,15.964c-.005-.37-.2-.576-.548-.565Z" style="fill:#002b64"/><path d="M7.8,30.952a5.55,5.55,0,0,0,3.4-.491,30.642,30.642,0,0,1,3.032-1.645c1.671-.536,3.5,0,5.29.108a7.693,7.693,0,0,0,1.294-.02c.666-.409.652-1.939,1.3-2.079A7.378,7.378,0,0,1,20.3,31.5a5.21,5.21,0,0,0,3.884-2.963,10.946,10.946,0,0,0,.621-1.455c.278.213.12.862.26,1.213,1.336-.744,2.1-2.443,2.608-4.161.586-1.988.826-4,1.2-4.589a5.007,5.007,0,0,1,1.467-1.3A2.344,2.344,0,0,0,31.56,16.6c-.628-.058-.773-.2-.866-.52a1.873,1.873,0,0,1-.93.225c-.283.009-.595,0-.975.035-3.146.323-3.545,3.79-5.562,5.756a4.729,4.729,0,0,1-.473.4,9.917,9.917,0,0,1-2.369,1.207c-1.289.493-2.515.528-3.725.953a11.156,11.156,0,0,0-2.52,1.264c-.182.125-.354.252-.512.382a5.018,5.018,0,0,0-.981,1.138,7.565,7.565,0,0,1-.964,1.241c-.668.656-3.166.191-4.046.8a.717.717,0,0,0-.229.247c.48.218.8.084,1.352.145.072.524-1.139.835-.96,1.076Z" style="fill:#c49a6c"/><path d="M27.742,17.643a.742.742,0,0,0,1.213-.693C28.263,16.892,27.862,17.127,27.742,17.643Z" style="fill:#002b64"/><path d="M30.846,16.744a2.316,2.316,0,0,0-.345,1.2c0,.109-.082.183-.084.016a2.365,2.365,0,0,1,.344-1.237C30.842,16.58,30.89,16.639,30.846,16.744Z" style="fill:#002b64"/><path d="M30.727,16.65a2.853,2.853,0,0,0-.532,1.3c-.01.108-.1.175-.085.008a2.914,2.914,0,0,1,.534-1.335C30.737,16.487,30.78,16.55,30.727,16.65Z" style="fill:#002b64"/><path d="M30.618,16.526a3.38,3.38,0,0,0-.785,1.367c-.019.107-.113.166-.085,0a3.507,3.507,0,0,1,.79-1.4C30.642,16.364,30.68,16.431,30.618,16.526Z" style="fill:#002b64"/><path d="M30.521,16.388a4.664,4.664,0,0,0-1,1.464c-.034.1-.135.149-.085-.011a4.637,4.637,0,0,1,1.011-1.5c.121-.112.149-.041.075.045Z" style="fill:#002b64"/></svg>