<svg xmlns="http://www.w3.org/2000/svg" xmlns:xlink="http://www.w3.org/1999/xlink" viewBox="0 0 32 32"><defs><clipPath id="a"><path d="M30.256,20.844a1.669,1.669,0,0,1,.334.446,5.731,5.731,0,0,1,.446,1.938,5.288,5.288,0,0,1-.356,2.205,13.574,13.574,0,0,1-1.537,1.582,5.2,5.2,0,0,1-.624.2,2.516,2.516,0,0,1-1.359.29c-2.094-.156-4.121-1.2-5.725-1.782-.6,1.069-2.851,2.228-2.851,2.228s-.757.2-1.114.29a6.256,6.256,0,0,1-1.025.089c-.178,0-.356-.111-.535-.089-.156.022-.312.134-.446.156a6.176,6.176,0,0,1-1.849-.49l-.913-.668-.535-.535a5.874,5.874,0,0,1-1.025-1.448c-.089-.223-.312-.468-.379-.668-.089-.223-.089-.646-.156-.913a3.233,3.233,0,0,1,.824-2.963,16.1,16.1,0,0,1,1.648-.958c1-.423,1.938-1.247,3.3-1.314A3.247,3.247,0,0,1,17.4,16.767a11.362,11.362,0,0,1,1.448-1.27,7.175,7.175,0,0,1,3.987-1.247,5.926,5.926,0,0,1,2.45.579,13.427,13.427,0,0,1,1.871.98,4.226,4.226,0,0,1,1.648,2.183c.134.379.891,1.136,1.069,1.582a2.473,2.473,0,0,1,.178.6,1.578,1.578,0,0,0,.2.668Z" style="fill:none"/></clipPath></defs><title>folder_type_arangodb_opened</title><path d="M27.5,5.5H18.3L16.2,9.7H4.4V26.5H29.6V5.5Zm0,18.7H6.7V11.8H27.5Zm0-14.5H19.3l1-2.1h7.1V9.7Z" style="fill:#688c76"/><polygon points="25.822 13.7 0.622 13.7 4.422 26.5 29.622 26.5 25.822 13.7" style="fill:#688c76"/><path d="M30.256,20.844a1.669,1.669,0,0,1,.334.446,5.731,5.731,0,0,1,.446,1.938,5.288,5.288,0,0,1-.356,2.205,13.574,13.574,0,0,1-1.537,1.582,5.2,5.2,0,0,1-.624.2,2.516,2.516,0,0,1-1.359.29c-2.094-.156-4.121-1.2-5.725-1.782-.6,1.069-2.851,2.228-2.851,2.228s-.757.2-1.114.29a6.256,6.256,0,0,1-1.025.089c-.178,0-.356-.111-.535-.089-.156.022-.312.134-.446.156a6.176,6.176,0,0,1-1.849-.49l-.913-.668-.535-.535a5.874,5.874,0,0,1-1.025-1.448c-.089-.223-.312-.468-.379-.668-.089-.223-.089-.646-.156-.913a3.233,3.233,0,0,1,.824-2.963,16.1,16.1,0,0,1,1.648-.958c1-.423,1.938-1.247,3.3-1.314A3.247,3.247,0,0,1,17.4,16.767a11.362,11.362,0,0,1,1.448-1.27,7.175,7.175,0,0,1,3.987-1.247,5.926,5.926,0,0,1,2.45.579,13.427,13.427,0,0,1,1.871.98,4.226,4.226,0,0,1,1.648,2.183c.134.379.891,1.136,1.069,1.582a2.473,2.473,0,0,1,.178.6,1.578,1.578,0,0,0,.2.668Z" style="fill:#423334"/><g style="clip-path:url(#a)"><path d="M21.5,25.455c.022-.022,0-.022,0-.022l-.022-.022c.022-.022-.067-.089-.067-.045-.022-.022-.022,0-.022,0,0,.022,0,.022-.022.045-.022,0-.022,0-.022.022h-.022v.022s.022.022,0,.022c-.022.022,0,.022,0,.022s.022.022,0,.022l.045.045h.045c.022,0,.022,0,.045-.022,0,0,.022-.022.022,0l.022-.022c.022-.022,0-.022,0-.022.022-.022.022-.022,0-.045Zm-4.7,2.027c-.022,0-.022.022-.022.045A.069.069,0,0,0,16.8,27.482Zm-.891-.245c0,.045,0,.045.022.045,0,.022,0,.022.022.022,0,.022.022.022.022,0H16c.022,0,.022,0,.022-.022.022,0,.022,0,.022-.022v-.045c0-.022,0-.089-.022-.089-.022-.067-.045-.111-.156-.111v-.067c-.045,0-.045-.022-.067-.022-.022-.045-.045-.111-.134-.089l-.022.134a1.086,1.086,0,0,1,.245.089C15.777,27.059,15.888,27.215,15.91,27.237Zm4.522-2.495a1.086,1.086,0,0,0-.156-.067.208.208,0,0,0-.111.156C20.254,24.876,20.343,24.831,20.432,24.742Zm-.022.691c0,.022,0,.045-.022.045,0,.022,0,.067-.022.067-.045-.022-.045.089,0,.089,0,.022,0,.045.022.045,0,.022,0,.022.022.022,0,.022.045.022.045,0,.022,0,.067,0,.067-.022.022,0,.022,0,.022-.022.022,0,.022-.022.022-.045.022,0,.022,0,.022-.022v-.045c-.022,0-.022-.045-.022-.067a1.42,1.42,0,0,0-.156-.045Zm1.47-.579c.022-.022.022-.022,0-.045.022-.022,0-.022,0-.022.022-.022,0-.022,0-.022.022-.022,0-.022-.022-.045.022-.022,0-.022-.022-.045l.022-.022c-.022-.067,0-.156-.089-.223a.293.293,0,0,0-.223.067l-.022.223c-.022.022-.067.067-.045.089l-.022.022c-.067-.045-.156-.156-.223-.156-.022-.022-.045-.045-.067-.022-.022-.022-.022-.022-.045,0-.022-.022-.022-.022-.045,0-.022-.022-.022,0-.022,0-.022-.022-.022,0-.022,0-.022-.022-.022-.022-.045,0-.022-.022-.022-.022-.045,0-.022-.022-.022-.022-.045,0-.022-.022-.022,0-.022,0a.306.306,0,0,0-.245.022c-.045.156.089.2.245.312-.022.022.022.045.045.067.089.156.267.022.379,0,.045,0,.022.022.045.045l.134-.067.022.022c.022-.022,0-.045,0-.067.022-.022,0-.022-.022-.045l.022-.022c.045.045.089-.022.089.045.067-.045.134-.022.178-.045.022.022.022,0,.045-.022.022.022.045,0,.067-.045Zm-.557.557c-.022-.022,0-.045.022-.022,0,0,.022-.022.022,0,0-.022.022-.045,0-.089-.022,0-.022,0-.022-.022-.022,0-.022,0-.022-.022-.022,0-.067,0-.067-.022h-.134c0,.067-.111,0-.089.089h-.022c0,.022,0,.022-.022.022,0,.022,0,.022-.022.022,0,.022-.022.022-.022,0-.022,0-.045,0-.045-.022h-.067a.147.147,0,0,1,.022.134c0,.067-.045.089-.089.111,0,.089.067.111.134.156a1.214,1.214,0,0,0-.423.178c-.022,0-.045,0-.045.022-.045,0-.045.022-.045.045-.067.045-.134.045-.134.156,0,.022,0,.022.022.022v.022c0,.022,0,.022.022.022,0,.022,0,.022.022.022,0,.022,0,.045.022.045,0,.022,0,.022.022.022,0,.045-.022.134.045.111-.022.045.089.045.089,0,.067,0,.067-.089.067-.156.022,0,.022-.022.022-.045a1.119,1.119,0,0,1,.267-.178c-.022,0-.022,0-.022-.022.022,0,.022-.022.022-.045a.946.946,0,0,1,.356-.468c0-.045.045-.022.089-.022.022-.045.022-.045.022-.067Zm.757-1.893c.022.022.022,0,.022,0,.045.067.089,0,.111-.045-.022-.045-.045.022-.067,0,.022-.022.022-.022,0-.045a1.8,1.8,0,0,1,.668.067l-.245-.134c0-.089.067,0,.111-.067l-.022-.022-.022-.022s-.022.022-.022,0a.022.022,0,0,1-.022-.022s-.022.022-.022,0l-.022-.022s-.022.022-.022,0l-.022-.022s-.022.022-.022,0l-.022-.022s-.022.022-.022,0l-.022-.022-.022-.022s-.022.022-.022,0l-.022-.022-.022.022c.045.045.067.045-.022.111a.9.9,0,0,0-.245,0c.045.022.089.067.089.089l-.045.045c-.022-.022-.022,0-.022,0-.067,0-.089.111-.111.156.045.111.089.045.111,0Zm-6.571,3.007c.045.045.134.089.178.022C15.665,26.479,15.532,26.413,15.509,26.524Zm.312.067v-.045C15.777,26.479,15.71,26.613,15.821,26.591Zm5.057-1.27a.621.621,0,0,0-.29-.156c-.022-.022-.022,0-.022,0-.045-.045-.067.022-.089.045-.067,0-.111.134-.089.156s.045.022.045.045H20.41c0-.022,0-.022-.022-.022,0-.022.045-.022.089-.022,0,.022,0,.022.022.022,0,.022,0,.022.022.022,0,.022,0,.022.022.022,0,.022,0,.022.022.022v.022h.067c.022-.045.067.045.089.045.022.022.067.045.089.022v-.022c-.022-.111.045-.156.067-.2ZM20.789,24.3c.022.022.022-.022.045-.022.022.022.067-.022.045-.045.022-.022,0-.022,0-.022.045-.045.111.045.156.067l.022.022.022.022.022.022c-.022.022,0,.022.022.022.022.022.045.045.067.022.022.022.022,0,.022,0,.022,0,.045,0,.089.045.022-.045.045-.045.067-.045.022.022.022,0,.022,0,.022.022.045-.022.067-.045.022.022.022,0,.022,0,.022.022.022,0,.045-.022.022.022.022,0,.022-.022.022-.022.022-.022,0-.045.067-.045-.067-.111-.089-.067-.022-.022-.045-.045-.067-.022-.022-.022-.022,0-.022,0-.022-.022-.022,0-.045.022a.082.082,0,0,1-.067-.022c-.022-.022-.022,0-.022,0-.022-.022-.022-.022-.045,0h-.045c-.022-.022-.022,0-.022,0-.022-.022-.022,0-.022,0l-.022.022c-.022-.022-.045,0-.067,0l-.022-.022c-.2-.156-.423.134-.2.134Zm-2.428,1.337c.022.067.178.089.223.045.022,0,.022,0,.022-.022.022,0,.022,0,.022-.022.022,0,.022-.067,0-.067,0-.022,0-.067-.022-.067s-.022,0-.022-.022c-.022,0-.022,0-.022-.022v-.022c-.067-.045-.111-.111-.2-.134-.111.089-.022.267-.111.4.067.089.067-.022.111-.067Zm3.453-1.671c-.022.022,0,.022,0,.022l-.022.022c.045.045.045.089.111.156a.367.367,0,0,1,.446,0c.111-.2.022-.334-.156-.446-.089.045-.178.022-.245.089-.022-.022-.022,0-.022,0,0,.022-.022,0-.022,0-.022-.022-.022,0-.022,0-.022-.022-.089.067-.045.067-.022.022,0,.022,0,.022l-.022.022c-.022.022-.022.022,0,.045ZM19.764,25.7c-.022,0-.022-.045-.067-.045C19.675,25.722,19.764,25.744,19.764,25.7Zm2.361-2.072C22.036,23.584,22.17,23.695,22.125,23.628Zm-4.188,2.049c-.022,0-.045-.022-.089-.022a.167.167,0,0,0-.022.111C17.915,25.789,17.915,25.7,17.937,25.677Zm-.6,1.693C17.358,27.37,17.336,27.348,17.336,27.37Zm.29.089c0-.045-.134-.045-.134,0h-.045c0-.089-.089,0-.022.022.022.045-.067.067.022.067.022,0,.022,0,.022.022.022,0,.022,0,.022.022.022,0,.022.022.022.045H17.6c0-.022.022-.022.045-.022-.022-.067-.022-.045,0-.111,0-.045,0-.045-.022-.045ZM17,27.281c.022.022.045.022.045,0,.067.022.089-.022.156-.022,0,.022.045.022.067.022,0,.045.134.045.111-.022.111-.178,0-.423-.2-.356,0,.134-.022.178-.2.156,0-.022-.022-.022-.045-.022l-.29-.245c0-.022,0-.067-.022-.067-.022-.223.089-.356-.022-.468-.022.089-.156.089-.156.223-.022,0-.022,0-.022.022a1.073,1.073,0,0,0,0,.267v.022c-.022,0-.022.022-.022.045-.022,0-.022.045-.022.067-.045-.022-.045.089,0,.089,0,.045.022.045.045.045.045.134-.089.245.045.312.134-.134.245-.111.379,0-.022-.089.134,0,.156-.067Zm2.138-1.515.089-.356c.245.178.267-.111.468-.156.022-.045.022-.111.089-.156-.067-.022,0-.067-.045-.134-.067-.022-.111-.089-.178-.089a.319.319,0,0,1,.089.223c-.2.045-.379.134-.535.045-.045,0-.045-.045-.111-.022,0,.022,0,.022-.022.022h-.022c0,.022,0,.022-.022.022v.089c.045-.022.045.089,0,.089-.022.022.022.111-.022.111,0,.022,0,.067-.022.067-.045,0,0,.067-.022.111-.067.089.178.29.267.134ZM17.96,26.1c.022-.067-.022-.067-.022-.134-.223-.045-.312.334-.423.2,0-.022,0-.022-.022-.022,0-.022,0-.022-.022-.022,0-.022,0-.022-.022-.022,0-.022-.045-.022-.067-.022,0-.022-.067-.022-.067,0-.022,0-.022,0-.022.022-.022,0-.022,0-.022.022-.022,0-.022,0-.022.022v.022c-.022,0-.022.022-.022.045H17.2c.022.045-.045.134.045.134h.022v.022c-.089-.022-.089.045-.156.089-.089,0-.2-.045-.267,0v.089c.111.067.156-.067.29-.045,0,.045.045.067.089.089-.022.045.089.045.089,0,.045,0,0-.111.022-.156.022,0,.022,0,.022-.022s.022-.022.045-.022c.156,0,.156.178.312.156.089-.156.067-.4.245-.446Zm4.277-.557c0,.022.045.022.067.022C22.3,25.522,22.281,25.544,22.237,25.544Zm.267.557C22.526,26.1,22.526,26.078,22.5,26.1Zm-6.059,1.6c0-.045.022-.045.022-.067a.145.145,0,0,0-.2.045c-.022,0-.022,0-.022.022h-.022l-.134.111c-.022-.067-.2-.067-.134.022,0,.022,0,.022.022.022,0,.045-.111.022-.134.067-.022,0-.022,0-.022.022-.022,0-.022,0-.022.022-.022,0-.022,0-.022.022v.022c-.022,0-.022,0-.022.022.022.067.045.111.111.134,0-.089.045-.111.045-.156v-.045c.022,0,.022-.045.022-.067l.134-.022v-.067h.045c0,.089.089,0,.156.022,0,.022,0,.022.022.022,0,.022.022.022.045.022.022.045.134.022.156.045.045-.089-.045-.134-.045-.223Zm3.586-1.225a.6.6,0,0,0,.067-.334c.022,0,.022-.022,0-.022-.022-.067-.045-.045,0-.111l-.089-.022c0-.022,0-.067-.022-.067v-.067c.045,0,.045-.022.045-.067.134,0,.067-.2.045-.245a.244.244,0,0,1-.2-.045c-.045.022-.067.067-.111.111.067.022.022.089.045.178l-.134.067a.306.306,0,0,0-.111-.178c0,.111-.111-.045-.156.045-.022,0-.045,0-.045.022-.089.045-.022.223,0,.267-.045.045-.134.045-.245.045,0-.022-.045-.022-.045,0h-.022a.166.166,0,0,0-.2,0c0,.111.022.178.111.2,0,.022.045.022.067.022,0,.022.022.022.022,0,.022,0,.045,0,.045-.022.156-.067.29.067.423,0,.045,0,.045-.022.045-.045.022-.067.111-.067.2-.067.045.045.045.111.045.2-.022,0-.022.045-.022.067-.022,0-.022.045,0,.045-.022.111.156.045.156.134-.045.089-.134.134-.156.223.089.022.178.178.089.267a.355.355,0,0,0-.156.2l.267-.178-.022-.089H20.1c.067-.2.29-.245.29-.49-.134.067-.334.067-.356-.045Zm-5.279,1.136h-.089C14.641,27.66,14.752,27.66,14.752,27.615Zm1.938-2.027c-.022-.045-.022-.045-.045-.045,0-.022,0-.022-.022-.022.022-.045-.045-.022-.045-.067-.134.089-.29.156-.334.334-.045.111-.2.111-.312.067a.236.236,0,0,1-.134.156h-.022c0-.022-.045-.022-.045,0h-.267a.687.687,0,0,0,.022.223.3.3,0,0,0,.2.045c0,.022,0,.022.022.022,0,.022.022.022.045.022,0,.022.045.022.067.022,0,.045.111.045.111,0,.022,0,.022,0,.022-.022.022,0,.045,0,.045-.022.022,0,.022,0,.022-.022.022,0,.045,0,.045-.022.022,0,.022,0,.022-.022.2-.111.446-.624.691-.312-.022-.022-.045-.022-.045.022-.022,0-.022.067,0,.067,0,.022.022.022.045.022h.045c.134.045-.022-.2.134-.156,0-.2-.245-.134-.267-.29Zm-2.25,2.272c-.022,0-.045,0-.045-.022-.022,0-.067,0-.067-.022-.089-.022-.067.089-.134.111a.134.134,0,0,1-.022.089c-.022.045.022.067.022.111l.067.022h.022c0-.022.022-.022.045-.022,0-.022.022-.022.067-.022,0-.022.022-.022.045-.022,0-.022.022-.022.045-.045,0-.022,0-.022.022-.022,0-.022,0-.022.022-.022a1.364,1.364,0,0,0-.089-.134c.022.022,0,.022,0,0Zm-2.116-1.047a.022.022,0,0,1,.022-.022C12.324,26.791,12.324,26.791,12.324,26.814Zm-1.492-2.205c-.022-.022,0-.022,0-.067a.078.078,0,0,1-.045-.022c0,.022,0,.045.022.045a2.073,2.073,0,0,0,.245.423c.022-.022.022-.045.022-.089.045-.156-.156-.223-.245-.29ZM12.725,26.9c0-.022-.022-.022,0,0-.022-.045-.022-.045-.045-.045,0-.022-.022-.022-.045-.022,0-.022,0-.022-.022-.022,0-.022-.045-.022-.045,0h-.045c0-.111-.067-.022-.134-.067a.288.288,0,0,0,.045.178l.223.223v-.022c.022,0,.022-.022.022-.045.022,0,.022-.022.022-.045.045.022.045-.134.022-.134Zm1.247.8c0,.045.045.067.067.089a.49.49,0,0,1,.178-.022c0,.022,0,.022.022.045a.169.169,0,0,0,.089-.045l-.178-.156a.2.2,0,0,0-.178.089Zm.78.512c0-.022,0-.045-.022-.045C14.707,28.195,14.73,28.217,14.752,28.217Zm.022.022C14.774,28.217,14.752,28.217,14.774,28.239Zm0-.646c.022,0,.022-.022.022-.067h-.045C14.774,27.549,14.774,27.549,14.774,27.593Zm-.022.022c.022,0,.045,0,.045-.022C14.752,27.593,14.752,27.593,14.752,27.615Zm-.869.134V27.7a.167.167,0,0,0-.022.111h.067C13.905,27.771,13.905,27.749,13.883,27.749Zm.646.223a.851.851,0,0,0,.2.2.267.267,0,0,0-.2-.267Zm-.312-.045v-.111a.237.237,0,0,1-.178-.022l-.134.022v.022c.045,0,0,.067.022.111.022,0,.022,0,.022.022.022,0,.045,0,.045.022.022,0,.022.022.022.045.022,0,.045,0,.045.022.022,0,.045,0,.045.022a.022.022,0,0,1,.022.022l.067.022c0-.045.022-.067.022-.089-.022-.067-.022-.111,0-.111Zm.78-.29c.156-.022.134-.111.267-.156.089.022.089-.045.111-.089.045,0,.045-.022.045-.045.022,0,.022-.045,0-.045v-.022h.022c.022-.067-.134-.045-.134-.022-.022,0-.022,0-.022.022-.022,0-.045,0-.045.022-.022,0-.022,0-.022.022-.022,0-.022.022-.022.045-.022,0-.022,0-.022.022-.022,0-.045,0-.045.022-.022,0-.022,0-.022.022h-.134c0-.022-.022-.022-.045-.022,0-.022,0-.045-.022-.045.022-.156-.067-.223.022-.267-.111.022-.156-.022-.245-.045-.134.045-.245.2-.379.178-.022-.111-.067-.223-.089-.356-.067-.022-.089,0-.156,0,.022-.111-.156-.134-.178-.156v.045c-.045-.022-.045.089,0,.089l.134.045.022.2c.067,0,.111.067.134.134-.022,0-.022,0-.022.022v.022c-.022,0-.045,0-.045.022-.022,0-.067,0-.067.022-.022,0-.067,0-.067.022-.022,0-.045,0-.045.022-.022,0-.022,0-.022.022-.156,0-.156-.156-.379-.134-.022.067-.067.134,0,.178.022,0,.022.022.022.045.022,0,.045,0,.045.045.022,0,.022,0,.022.022.022,0,.022,0,.022.022.022-.022.089,0,.111.022.022,0,.045,0,.045.022.022,0,.022,0,.022.022.022,0,.045,0,.045.022a.022.022,0,0,1,.022.022.969.969,0,0,1,.089-.156,1.086,1.086,0,0,1,.156.067.309.309,0,0,1,.2,0,.168.168,0,0,1-.022.178c.022.022.045.022.045.045v.022c.022,0,.067,0,.067.022.022,0,.045,0,.045.022.022,0,.022,0,.022.022l.045.022-.134-.178c.045-.045,0-.156.089-.156,0-.022,0-.022.022-.022a.333.333,0,0,1,.156-.067.134.134,0,0,1,.089.022H14.8v-.045c.022,0,.022.022.022.045.045,0,.067,0,.067.022.022,0,.022,0,.022.022.022,0,.022,0,.022.022.022,0,.045,0,.067.045,0-.022.022-.022,0,0Zm-.356-.067c0,.022,0,.045.022.045C14.663,27.593,14.663,27.571,14.641,27.571Zm5.836-1.114c0-.022-.022-.022,0,0-.045,0-.022.022,0,0C20.454,26.5,20.477,26.479,20.477,26.457Zm-3.809,1.158c-.022,0-.022.022-.022.045C16.668,27.66,16.668,27.638,16.668,27.615Zm0,.111c0,.022,0,.067.022.067C16.69,27.749,16.69,27.727,16.668,27.727Zm0,.067c0,.022,0,.067.022.067C16.69,27.816,16.712,27.794,16.668,27.794Zm0-.067V27.66A.033.033,0,1,0,16.668,27.727Zm.134.2c.045.067.134.2.223.156C16.935,28.039,16.913,27.927,16.8,27.927Zm-.111-.089c0,.045.022.045.045.045C16.734,27.861,16.712,27.861,16.69,27.838Zm.535.267c-.045-.022-.134-.111-.178-.045.178,0,.089.156.2.2C17.225,28.217,17.158,28.172,17.225,28.106Zm-.49-.223c0,.022.022.022.045.022C16.779,27.883,16.757,27.883,16.734,27.883Zm-5.19-3.119a.1.1,0,0,0-.156-.111c-.156.022-.089.312-.022.423,0,.022,0,.022.022.022-.022.067.045.045.089.045a.135.135,0,0,0,.178-.022c.022-.134-.045-.178-.089-.245,0-.045.022-.111-.022-.111Zm.045.691c0,.045,0,.089.045.089,0-.022.022-.045.022-.089Zm.156.045c.111-.022.134,0,.223-.067a.167.167,0,0,0-.156-.134c.022.067-.067.022-.089.067C11.767,25.432,11.7,25.455,11.745,25.5Zm.512.423a.254.254,0,0,0-.134-.067h-.067c-.045-.045-.156,0-.223-.022,0-.022-.022-.022-.022,0-.022,0-.022.022-.022.045-.022,0-.022.022-.022.045-.022,0-.022,0-.022.022-.022,0-.022,0-.022.022-.022,0-.022.022,0,.022v.067c-.067-.022-.022.045,0,.045,0,.022,0,.022.022.022,0,.022,0,.067.022.067s.045,0,.045.022H11.9c0-.022.022-.022.045-.022.045-.022.111-.022.134-.089.022,0,.045,0,.045-.022a.116.116,0,0,0,.089-.045c.022,0,.022,0,.022-.022.022,0,.022,0,.022-.022.022,0,.022,0,.022-.022C12.279,25.967,12.279,25.923,12.257,25.923Zm2.918,1.893c-.134,0-.223.134-.156.2.223.022.29.178.468.178,0-.045,0-.067.022-.089A1.011,1.011,0,0,1,15.175,27.816Zm-3.987-3.653-.045-.022c-.022,0-.022,0-.022-.022H11.1c-.022,0-.022,0-.022.022-.045,0-.045.022-.045.045-.022,0-.022,0-.022.022v.022c-.045-.022-.045.089,0,.089,0,.022,0,.022.022.022,0,.022,0,.022.022.022,0,.022.045.022.045,0h.022c0-.022,0-.022.022-.022,0-.022,0-.022.022-.022s.022,0,.022-.022,0-.022.022-.022v-.067c-.022,0-.045-.022-.022-.045Zm1.582,3.1.089.067v-.067C12.792,27.281,12.769,27.259,12.769,27.259Zm-1.158-1.292c-.022-.045-.022-.045-.045-.045l.067.089C11.633,25.989,11.633,25.967,11.611,25.967Zm7.6,1.247v.067c.067,0,.111,0,.111-.067A.1.1,0,0,0,19.207,27.215Zm-.757-.334c.022,0,0-.022,0,0-.022-.045-.022-.045-.045-.045-.067-.022-.2-.022-.2-.156,0-.022,0-.022-.022-.022,0-.022,0-.067-.022-.067,0-.022,0-.022-.022-.022,0-.022-.045-.022-.067-.022,0-.022-.045-.022-.045,0-.022,0-.045,0-.045.022-.022,0-.022,0-.022.022h-.022c-.022,0-.022,0-.022.022h-.022c-.022,0-.022,0-.022.022-.045,0-.067,0-.067.045-.022,0-.022,0-.022.022-.045,0-.045.111,0,.111,0,.022,0,.045.022.045,0,.022,0,.045.022.045l.089.134c.045.089,0,.156-.134.134,0,.045-.045.045-.022.111.045.045.089-.022.156,0,.022-.067.022-.134.089-.156,0,.045.111.045.111,0l-.022-.089c.022,0,.022,0,.022-.022.089-.022.067.089.067.156a.49.49,0,0,0,.312-.045c-.022-.022.045-.223-.045-.245Zm.379-.379c0-.022-.045-.022-.045,0l-.156.022c-.067-.022-.111-.156-.178-.111-.045.223.223.29.356.4.022-.067.156-.156.089-.267-.022-.045-.045-.045-.067-.045Zm-.913,1.381v.067C17.96,27.972,17.96,27.883,17.915,27.883Zm1.715-1.247c0-.022-.045-.022-.067-.022,0-.022-.045-.022-.045,0-.111.022-.156-.022-.223.045-.111,0-.2.022-.2.134.111.045.156.156.334.156-.022-.067.022-.045.022-.111.111,0,.267-.067.223-.156,0-.045-.022-.045-.045-.045ZM18,27.927c.045,0,0,.111.067.111C18.116,27.994,18.049,27.883,18,27.927Zm-.089-.446c-.022,0-.067,0-.067.022h-.022c0,.045-.022.134.045.111,0,.022.022.022.022,0C17.937,27.593,17.893,27.5,17.915,27.482Zm3.052-1.359c0-.022-.045-.022-.045,0-.022,0-.022.022,0,.022C20.922,26.168,20.967,26.168,20.967,26.123Zm-.936-.267C20.076,25.923,20.076,25.767,20.031,25.856ZM17,27.794C17,27.816,17.024,27.816,17,27.794Zm.379.468.111-.022h.022a.142.142,0,0,0,0-.134.2.2,0,0,1-.134.156Zm-.356-.624c-.022,0-.022.022-.022.045C17.024,27.682,17.024,27.66,17.024,27.638ZM17,27.794V27.66C16.979,27.682,16.979,27.816,17,27.794Zm.067-.178c-.022,0-.045,0-.045.022C17.046,27.638,17.069,27.638,17.069,27.615Zm.067.245a.549.549,0,0,0,.379.223A.406.406,0,0,0,17.135,27.861Zm-.111-.045C17.024,27.838,17.046,27.838,17.024,27.816Zm.022.022c0,.022.045.022.089.022C17.135,27.838,17.091,27.838,17.046,27.838Zm-4.277-1.426c0,.022.045.022.067.022A.082.082,0,0,0,12.769,26.413Zm1.225-.2c-.022,0-.022.022-.022.045s0,.045-.022.045c0,.022,0,.045-.022.045v.067c.022,0,.067,0,.067.022h.022c0-.022.022-.022.045-.045v-.022c-.022,0-.022-.022,0-.022v-.067a.167.167,0,0,1,.022-.111c-.045.022-.111,0-.089.045Zm0-.067a.082.082,0,0,0,.067-.022A.082.082,0,0,0,13.995,26.145Zm-.045-.334C13.972,25.722,13.883,25.811,13.95,25.811Zm1.2.6a.128.128,0,0,0,.089-.134c-.067-.067-.156,0-.2.022C15.041,26.368,15.064,26.413,15.153,26.413Zm-.134-.111C15.019,26.279,15,26.3,15.019,26.3ZM13.7,25.477c.089-.022.111.022.178.022l-.022-.089c-.067-.022-.156.022-.223.045.022.045-.022.111.022.134v.022c.022,0,.022,0,.045.022a.188.188,0,0,1,0-.156Zm-.067.045v-.045c.022,0,.022,0,.022-.022C13.7,25.455,13.683,25.544,13.638,25.522Zm.223.624c-.067.045-.134-.022-.156.045-.022,0-.022.022-.022.045-.022,0-.022,0-.022.022-.045,0-.045.022-.045.045h-.022c.022.089-.022.045-.022.156C13.839,26.546,13.972,26.279,13.861,26.145Zm.8.2h.045c0,.045.134.045.111-.022.134.022.156-.089.178-.178.022,0,.022-.022.022-.045.022,0,.022-.045.022-.067.022,0,.022-.067,0-.067,0-.022,0-.022-.022-.022,0-.022,0-.045-.022-.045,0-.022,0-.022-.022-.022,0-.022,0-.022-.022-.022,0-.022,0-.022-.022-.022,0-.022-.067-.067-.045,0-.045,0-.045.022-.045.045-.134.022-.2.134-.178.312-.045.022-.045.156,0,.156Zm-.757-.646v-.2h-.022a.082.082,0,0,0,.022.067.259.259,0,0,1-.223.045c0,.045.045.067.089.089,0-.022,0-.022.022-.022V25.7Zm.067.178c0-.022,0-.067-.022-.067l.022.334h.022c0-.022.045-.022.067-.022a.246.246,0,0,1,.178,0c0,.022.045.022.045,0,.022,0,.022,0,.022-.022a1.424,1.424,0,0,0,.223-.49c.022,0,.022,0,.022-.022.156-.067-.156-.089-.178-.045-.045.022-.111-.022-.134.022h-.022c-.022.089-.134.067-.111.178-.022,0-.022.022-.022.045-.089-.022-.067.045-.111.089Zm1.136,1.27c.022-.178.334-.178.334-.312-.022.045-.045-.067-.045-.111a.449.449,0,0,0-.4.423c0-.022,0-.045.022-.045C15,27.17,15.064,27.125,15.108,27.148Zm1.559-.958C16.69,26.19,16.668,26.168,16.668,26.19Zm.423-.512C17.091,25.7,17.069,25.677,17.091,25.677Zm-.045-.022c-.022.067,0-.067-.067-.022l-.022.156c.067,0,.156-.067.089-.134ZM15.4,27.7c-.045.022-.045.089-.022.089.045.089.134-.045.067-.089C15.442,27.638,15.4,27.66,15.4,27.7Zm2-1.849c.022,0,.022-.022,0,0,.045-.022.045-.022.045-.045.022,0,.022,0,.022-.022.022,0,.022,0,.022-.022.045,0,.045-.022.045-.067a.109.109,0,0,0-.067-.178c-.022,0-.022,0-.022-.022v-.022a.553.553,0,0,0-.2-.022.556.556,0,0,0,0,.423c-.022.067.178.045.156-.022Zm-4.567.579c.045,0,.045-.022.045-.045A.048.048,0,0,0,12.836,26.435Zm2.651.111C15.487,26.569,15.465,26.546,15.487,26.546Zm-2.718-.134v-.067A.033.033,0,1,0,12.769,26.413Zm0-.111c-.022,0-.022.022-.022.045C12.769,26.346,12.769,26.323,12.769,26.3Zm.022-.045c-.022,0-.022.022-.022.045C12.792,26.3,12.792,26.279,12.792,26.257Zm-.624-1c-.045,0-.045.111.022.089.022.111.111-.022.156-.022.022-.089-.134-.156-.178-.067Zm.713,1.025v.067C12.9,26.346,12.9,26.279,12.881,26.279Zm-.4-.824c-.022.045-.022.045-.022.067A.036.036,0,1,0,12.48,25.455Zm.49-.29V25.1c-.022,0-.022-.022-.022-.045-.022,0-.022,0-.022-.022H12.9c0,.022-.022.022-.022,0h-.111c-.045.045-.089.067-.089.156a.17.17,0,0,0,.2.045c0-.022,0-.022.022-.022a.171.171,0,0,1,.067-.045Zm.356,2.294c.045,0,.089.045.134,0l-.022-.089C13.349,27.348,13.326,27.393,13.326,27.46ZM13.1,25.588c0,.022,0,.045.022.045l.156.4c.379,0,.2-.668-.134-.579,0,.022,0,.022-.022.022,0,.022,0,.022-.022.022,0,.022,0,.022-.022.022,0-.045,0,.067.022.067Zm.178.646c-.045-.022-.067,0-.089.022-.022,0-.022,0-.022.022-.022,0-.022,0-.022.022-.022,0-.022,0-.022.022-.045,0,0,.067-.022.111.022.022.045.022.089.022v.022l.089.022c.022.067.156.045.2.022.022-.178-.089-.223-.2-.29Zm-.334-.045c0,.022.022.022.045.022C12.992,26.19,12.97,26.19,12.948,26.19Zm-.067.178C12.9,26.39,12.9,26.368,12.881,26.368Zm.245-.178c-.022,0-.045,0-.045.022Zm-.045.022h-.089C12.97,26.234,13.081,26.234,13.081,26.212Z" style="fill:#3d2f30"/></g><path d="M22.1,23.2a10.818,10.818,0,0,1-4.656,2.228,6.754,6.754,0,0,1-1.158.29c-.267,0-.512-.089-.824-.089a6.166,6.166,0,0,1-1.114,0c-.4-.067-1.092-.468-1.693-.668-.334-.111-.646-.089-.913-.2a2.182,2.182,0,0,1-1.069-1.025,3.143,3.143,0,0,1,.869-2.807c.134-.089.29-.089.446-.2.29-.2.446-.512.668-.624.178-.089.379-.111.579-.2.49-.223.936-.579,1.448-.824a6.1,6.1,0,0,1,2.072-.446c1.648-.156,3.208-.579,4.7-.668.78-.045.846.2,1.4.446l.49.089c.111.067.29.245.446.334.223.134.4.134.49.245a1.656,1.656,0,0,1,.2,1.114c-.045.223-.267.379-.49.624-.178.2-.29.49-.446.668-.446.6-1.158,1-1.448,1.715Z" style="fill:#6c4317"/><path d="M22.1,23.071A10.818,10.818,0,0,1,17.447,25.3a6.754,6.754,0,0,1-1.158.29c-.267,0-.512-.089-.824-.089a6.166,6.166,0,0,1-1.114,0c-.4-.067-1.092-.468-1.693-.668-.334-.111-.646-.089-.913-.2a2.182,2.182,0,0,1-1.069-1.025,3.21,3.21,0,0,1,.869-2.829c.134-.089.29-.089.446-.2.29-.2.446-.512.668-.624.178-.089.379-.111.579-.2.49-.223.936-.579,1.448-.824a6.1,6.1,0,0,1,2.072-.446c1.648-.156,3.208-.579,4.7-.668.78-.045.846.2,1.4.446l.49.089c.111.067.29.245.446.334.223.134.4.134.49.245a1.656,1.656,0,0,1,.2,1.114c-.045.223-.267.379-.49.624-.178.2-.29.49-.446.668-.446.624-1.158,1.025-1.448,1.738Z" style="fill:#a3b34f"/><path d="M17.8,18.75a28.246,28.246,0,0,1,3.052-.49,2.522,2.522,0,0,1,1.648.446c.535.267,1.381.668,1.2,1.559a8.663,8.663,0,0,1-.735,1.114c-.178.223-.535.423-.78.735-.312.379-.535.8-.78,1.025-.156.134-.379.156-.579.29-.29.2-.49.512-.824.668a4.157,4.157,0,0,0-.49.156,6.822,6.822,0,0,1-1.4.624,4.281,4.281,0,0,1-.535,0,11,11,0,0,1-1.158.29,8.162,8.162,0,0,1-1.648-.045c-.178-.022-.334-.2-.579-.29-1.27-.423-3.141-.4-2.807-2.428a4.66,4.66,0,0,1,.379-.735c.111-.223.111-.468.2-.579.111-.156.4-.267.624-.446a5.055,5.055,0,0,1,1.559-.913l3.653-.98Z" style="fill:#dde072"/><path d="M18.2,18.861c2.473-.891,5.814.735,4.121,2.9a7.761,7.761,0,0,1-1.158,1.114,3.694,3.694,0,0,1-.735.334,9.262,9.262,0,0,1-1.849.869,18.8,18.8,0,0,1-2.428.334c-.312.045-.6.178-.913.2a3.17,3.17,0,0,1-2.985-1.158c-.512-.891.512-2.094,1.069-2.317L18.2,18.861Z" style="fill:#eaeca2"/><path d="M21.234,21.311a3.3,3.3,0,0,0-.958-1.648,6.236,6.236,0,0,0-1.359-.824,1.886,1.886,0,0,0-.379-.089A4.12,4.12,0,0,0,14.886,19.8c-.178.134-.334.29-.334.423a.022.022,0,0,1-.022.022c-.022,0-.045.045-.134.089-.557.446-.891,1.96-.579,2.317a1.418,1.418,0,0,0,.29.245,6.218,6.218,0,0,0,2.629.936h.958a1.085,1.085,0,0,0,.267-.022,2.156,2.156,0,0,0,.267-.045C19.541,23.561,21.3,22.626,21.234,21.311Z" style="fill:#6c4317"/><path d="M16.734,23.851a6.534,6.534,0,0,1-2.629-.936,1.418,1.418,0,0,1-.29-.245,2.439,2.439,0,0,1,.579-2.317c.111-.089.134-.111.156-.089-.067-.29.8-.8.958-.78-.178.089-.223.045-.379.29.356-.134.646-.245.913,0,.178,0,.2-.2.29-.29.022-.178-.111-.178-.089-.334.178,0,.245.156.379.2.067-.045.134-.512-.045-.49a1.177,1.177,0,0,1,.379-.089c.089.045-.022.045-.089.045-.2.312-.045.824.379.78.134-.134,0-.557.334-.49-.045.156.045.178.045.29a5.328,5.328,0,0,0,1.069-.535c0,.089,0,.446.2.49-.111.468-.245.891-.735.958-.022.356.067.824-.245.869-.045-.334.134-.646,0-.913-.29.045-.312.334-.446.535h-.379c.356.178-.557.557-.089.958.2-.067.535-.267.735-.045a.392.392,0,0,1-.2.29c.089.111.223.178.245.334.067,0,.089-.2.089,0,.067-.045.067-.156.156-.2.223.245.356-.089.535.156.111-.089.022-.356-.089-.379.045-.2.223,0,.29-.089.045-.245-.156-.245-.156-.446.067-.067.2-.045.334-.045-.067.267.089.29.2.379,0,.156-.134.178-.089.379.067.111.245.045.156.245h.2c.067-.2.2-.29.334-.535-.111-.111-.045-.446-.2-.535a.3.3,0,0,1,.379-.2c.045.29-.111.4-.2.579.111.134.334.067.49.245.089,0,.067-.134.2-.089l-.089-.245c-.045.045-.111.045-.2.045.045-.178.446-.223.334-.379.2-.2.557.067.624.29-.089.045-.356.29-.089.334a2.868,2.868,0,0,1-.824,1.069.464.464,0,0,0-.334-.156A.8.8,0,0,1,19.1,23a1.143,1.143,0,0,1-.334.579.322.322,0,0,0-.156-.045.568.568,0,0,1,.045-.29,1.583,1.583,0,0,0-.98.6h-.936ZM14.8,20.4c-.089-.022,0-.067,0-.156-.156.045-.267.379-.245.446.089-.089.111-.223.2-.29C14.752,20.42,14.774,20.443,14.8,20.4Z" style="fill:#633c11"/><path d="M30.768,23.272v-.2a.617.617,0,0,0-.022-.2l-.022-.2v-.045L30.7,22.47a.082.082,0,0,0-.022-.067l-.022-.134a.082.082,0,0,0-.022-.067.965.965,0,0,0-.022-.111l-.022-.067c-.022-.045-.022-.089-.045-.111,0-.022,0-.045-.022-.045a.413.413,0,0,1-.045-.156c-.156-.423-.49-.735-.624-1.158a8,8,0,0,0-.245-.913c-.223-.49-.691-.869-.958-1.359a5.429,5.429,0,0,1-.312-.624,5.507,5.507,0,0,0-.6-.98A7.262,7.262,0,0,0,27,15.988a8.538,8.538,0,0,0-2.027-1.114,5.9,5.9,0,0,0-2.272-.446,6.447,6.447,0,0,0-1.515.2,6.078,6.078,0,0,0-1.225.4,6.292,6.292,0,0,0-1.671,1.247,9.3,9.3,0,0,0-1.314,1.337,1.841,1.841,0,0,0-.156.29l-.134.334a.524.524,0,0,0-.045.178h.111l.423-.045.134-.045.958-.111.8-.134a18.559,18.559,0,0,1,2.384-.334h.178a1.364,1.364,0,0,1,.668.134,3.358,3.358,0,0,1,1.6.757,1.9,1.9,0,0,1,.535.2c.691,1.27-.134,2.651-.668,3.542-.111.356-.512.4-.668.735-.2.379-.156.936-.49,1.27-.178.267-.535.356-.624.691-.156.111-.4.089-.423.312v.089A19.783,19.783,0,0,0,24.13,26.5a7.861,7.861,0,0,0,3.052.668c.4-.022.49-.2.78-.334.2-.089.446-.134.579-.2a6.017,6.017,0,0,0,1.069-.958,4,4,0,0,0,.958-1.114,2.7,2.7,0,0,0,.223-1.2c-.022-.067-.022-.067-.022-.089Z" style="fill:#6c4317"/><path d="M30.5,21.712c-.156-.423-.49-.735-.624-1.158a8,8,0,0,0-.245-.913c-.223-.49-.691-.869-.958-1.359a10.3,10.3,0,0,0-.913-1.6A7.3,7.3,0,0,0,25,14.9a5.887,5.887,0,0,0-3.787-.245,5.312,5.312,0,0,0-2.9,1.648c-.691.646-1.426,1.136-1.648,2.138h.111l.423-.045.134-.045.958-.111.8-.134a18.559,18.559,0,0,1,2.384-.334h.178a1.364,1.364,0,0,1,.668.134,3.358,3.358,0,0,1,1.6.757,1.9,1.9,0,0,1,.535.2c.691,1.27-.134,2.651-.668,3.542-.111.356-.512.4-.668.735-.2.379-.156.936-.49,1.27-.178.267-.535.334-.624.668-.134.156-.423.067-.446.334a19.783,19.783,0,0,0,2.562,1.025,7.861,7.861,0,0,0,3.052.668c.4-.022.49-.2.78-.334.2-.089.446-.134.579-.2a6.017,6.017,0,0,0,1.069-.958,4,4,0,0,0,.958-1.114,4.107,4.107,0,0,0-.067-2.784Z" style="fill:#a3b34f"/><path d="M29.432,20.688c-.134-.312-.134-.646-.245-.913-.2-.468-.668-.846-.913-1.314A7.328,7.328,0,0,0,27.36,16.9a7.36,7.36,0,0,0-3.987-2.027,6.56,6.56,0,0,0-4.7,1.738c-.579.579-1.225.98-1.359,1.693l.958-.111.8-.134a18.559,18.559,0,0,1,2.384-.334h.178a1.364,1.364,0,0,1,.668.134,3.358,3.358,0,0,1,1.6.757,1.9,1.9,0,0,1,.535.2c.691,1.27-.134,2.651-.668,3.542-.111.356-.512.4-.668.735-.2.379-.156.936-.49,1.27-.178.267-.557.334-.646.691,0,.022-.067.067-.067.067-.022,0,.045.022.089.022A20.675,20.675,0,0,0,26.246,26.5a3.557,3.557,0,0,0,2.138-.535,2.9,2.9,0,0,0,.446-.334,3.941,3.941,0,0,0,1.4-2.384,5.278,5.278,0,0,0-.8-2.562Z" style="fill:#dde072"/><path d="M28.028,19.485a9.568,9.568,0,0,0-4.3-3.185,4.98,4.98,0,0,0-4.01.78,2.061,2.061,0,0,0-.624.824c0,.022-.111.156-.022.2h.045A18.559,18.559,0,0,1,21.5,17.77h.178a1.364,1.364,0,0,1,.668.134,3.358,3.358,0,0,1,1.6.757,1.9,1.9,0,0,1,.535.2c.691,1.27-.134,2.651-.668,3.542-.111.356-.512.4-.668.735-.2.379-.156.936-.49,1.27a3.8,3.8,0,0,0,1.2.49,3.739,3.739,0,0,0,2.384.49,2.909,2.909,0,0,0,1.693-1.359,2.873,2.873,0,0,0,.668-1.27A5.211,5.211,0,0,0,28.028,19.485Z" style="fill:#eaeca2"/><path d="M25.533,19.418a.144.144,0,0,0-.045-.111,4.016,4.016,0,0,0-.178-.468,2.3,2.3,0,0,0-.646-1,3.118,3.118,0,0,0-1.693-.824H22.1a2.224,2.224,0,0,0-1.448.446,2.01,2.01,0,0,0-.423.312.363.363,0,0,0-.067.134c.446-.067.913-.134,1.337-.156h.178a1.442,1.442,0,0,1,.869.245,2.225,2.225,0,0,0,.4.2c.045.022.134.022.2.045a.686.686,0,0,1,.29.067,1.561,1.561,0,0,1,.223.178,1.561,1.561,0,0,0,.223.178,2.171,2.171,0,0,0,.245.111.535.535,0,0,1,.267.156,1.769,1.769,0,0,1,.245.98,1.8,1.8,0,0,1-.022.356.591.591,0,0,1-.2.334,3.478,3.478,0,0,1-.6,1.782A9.588,9.588,0,0,0,25,21.824,3.377,3.377,0,0,0,25.533,19.418Z" style="fill:#949952"/><path d="M24.91,18.126a.071.071,0,0,1-.067.067c-.446-.178-.8-.668-1.27-.512a.718.718,0,0,1-.757-.245,2.1,2.1,0,0,0-.223-.089c-.334-.156-.356-.067-.356-.067.045.111.223.067.245.134-.089.111-.245.022-.29-.134,0-.022-.089,0-.089,0s-.846.089-.846.446c-.111-.134-.4-.022-.334.067a5.485,5.485,0,0,1,.579-.045h.178a1.442,1.442,0,0,1,.869.245,2.225,2.225,0,0,0,.4.2c.045.022.134.022.2.045a.686.686,0,0,1,.29.067,1.561,1.561,0,0,1,.223.178,1.561,1.561,0,0,0,.223.178,2.171,2.171,0,0,0,.245.111.535.535,0,0,1,.267.156,1.459,1.459,0,0,1,.223.646,6.409,6.409,0,0,1,.98.691V20.4a3.223,3.223,0,0,0-.691-2.272Z" style="fill:#b0ad51"/></svg>