<svg viewBox="0 0 32 32" xmlns="http://www.w3.org/2000/svg"><path d="m27.5 5.5h-9.3l-2.1 4.2h-11.7v16.8h25.2v-21zm0 4.2h-8.2l1.1-2.1h7.1z" fill="#55bdbf"/><path d="m15.907 28.452q2.262 1.26 4.525 2.528a.124.124 0 0 0 .138 0q2.262-1.26 4.526-2.527c.026-.014.05-.03.082-.049l-.086-.05c-.5-.278-1-.556-1.494-.84a.142.142 0 0 0 -.16 0q-1.43.8-2.86 1.6a.137.137 0 0 1 -.155 0q-1.435-.805-2.875-1.608a.116.116 0 0 0 -.131 0c-.506.286-1.015.569-1.523.852-.02.011-.04.024-.068.042a.674.674 0 0 0 .081.052z" fill="#007f7c"/><path d="m10.984 20.526-.005-.6c0-1.328-.02-2.64-.02-3.968a.1.1 0 0 1 .071-.106c1.3-.619 3.221-1.635 4.517-2.255.023-.011.117-.062.15-.076v1.767a.094.094 0 0 1 -.065.1c-.762.362-2.2 1.182-2.963 1.544a.1.1 0 0 0 -.071.1c0 .763.011 1.753.014 2.513a.1.1 0 0 1 -.058.1c-.514.287-1.57.881-1.57.881z" fill="#7f7c00"/><path d="m28.384 19.647a.1.1 0 0 1 -.058-.1c0-.76.014-1.75.014-2.513a.1.1 0 0 0 -.07-.1c-.762-.362-2.2-1.182-2.963-1.544a.1.1 0 0 1 -.066-.1v-1.773c.033.014.128.065.151.076 1.3.62 3.221 1.636 4.516 2.255a.1.1 0 0 1 .071.106c0 1.328-.02 2.64-.02 3.968v.6s-1.059-.59-1.575-.875z" fill="#7c007f"/><path d="m24.539 14.4v2.078a.116.116 0 0 1 -.07.118q-1.953 1.089-3.906 2.183a.12.12 0 0 1 -.131 0q-1.954-1.093-3.907-2.182a.111.111 0 0 1 -.066-.113v-4.168a.111.111 0 0 1 .065-.113q1.955-1.087 3.907-2.18a.122.122 0 0 1 .139 0q1.944 1.089 3.893 2.172a.131.131 0 0 1 .076.133v2.066z" fill="#7f0000"/><path d="m19.02 12.744 1.425.777a.106.106 0 0 0 .111 0q.714-.392 1.432-.782c.017-.009.032-.023.05-.034-.008-.009-.011-.014-.016-.016q-.736-.414-1.481-.825a.114.114 0 0 0 -.094.007c-.14.074-.278.153-.42.231l-1.075.6a.781.781 0 0 1 .068.042zm.673 3.71v-1.444c0-.055-.029-.068-.065-.087l-1.47-.8c-.022-.012-.046-.023-.072-.035v1.459c0 .053.029.069.065.089l1.47.822.073.037a.125.125 0 0 1 -.001-.041zm3.186-2.354c-.508.276-1.015.553-1.524.827-.048.025-.047.058-.047.1v1.465l.044-.02q.761-.426 1.522-.85a.092.092 0 0 0 .048-.1v-1.438a.235.235 0 0 0 -.043.016z" fill="#fff"/><path d="m31 24.057v2.078a.119.119 0 0 1 -.069.119q-1.955 1.089-3.907 2.182a.12.12 0 0 1 -.131 0q-1.953-1.093-3.907-2.181a.115.115 0 0 1 -.066-.114v-4.164a.112.112 0 0 1 .065-.113q1.954-1.088 3.907-2.18a.126.126 0 0 1 .139 0q1.944 1.091 3.893 2.173a.128.128 0 0 1 .076.132q0 1.03 0 2.067z" fill="#00007f"/><path d="m25.48 22.405q.716.389 1.425.777a.106.106 0 0 0 .111 0q.715-.391 1.432-.781c.017-.01.033-.023.051-.035-.009-.008-.012-.014-.017-.016q-.735-.414-1.481-.825a.112.112 0 0 0 -.093.007c-.141.074-.279.154-.42.231l-1.076.6a.561.561 0 0 1 .068.042zm.674 3.71v-1.444c0-.055-.03-.068-.066-.087l-1.47-.8a.8.8 0 0 0 -.072-.036v1.46c0 .052.029.068.065.088l1.47.822c.022.013.046.023.074.037a.1.1 0 0 1 -.001-.04zm3.186-2.351c-.509.276-1.016.553-1.525.827-.047.025-.046.058-.046.1v1.465l.043-.02q.76-.426 1.522-.85c.047-.025.048-.057.048-.1v-1.441a.268.268 0 0 0 -.042.019z" fill="#fff"/><path d="m18.08 24.057v2.078a.116.116 0 0 1 -.069.119q-1.954 1.089-3.906 2.182a.121.121 0 0 1 -.132 0q-1.953-1.093-3.906-2.181a.113.113 0 0 1 -.067-.114v-4.164a.112.112 0 0 1 .065-.113q1.954-1.088 3.906-2.18a.127.127 0 0 1 .14 0q1.944 1.091 3.893 2.173a.128.128 0 0 1 .075.132q0 1.03 0 2.067z" fill="#007f00"/><path d="m12.562 22.405 1.425.777a.1.1 0 0 0 .11 0q.716-.391 1.433-.781c.016-.01.032-.023.05-.035-.008-.008-.012-.014-.017-.016q-.735-.414-1.48-.825a.114.114 0 0 0 -.094.007c-.141.074-.278.154-.42.231l-1.075.6a.781.781 0 0 1 .068.042zm.673 3.71v-1.444c0-.055-.029-.068-.065-.087l-1.47-.8a.71.71 0 0 0 -.073-.036v1.46c0 .052.03.068.065.088l1.471.822c.022.013.046.023.073.037a.125.125 0 0 1 -.001-.04zm3.186-2.351c-.508.276-1.015.553-1.525.827-.047.025-.046.058-.046.1v1.465l.043-.02q.761-.426 1.523-.85c.046-.025.047-.057.047-.1v-1.441a.389.389 0 0 0 -.042.019z" fill="#fff"/></svg>