<svg version="1.1" viewBox="0 0 32 32" xml:space="preserve" xmlns="http://www.w3.org/2000/svg"><defs><clipPath id="a" _ngcontent-ng-c1846892879=""><path d="m0 0h223v236h-223z" fill="#fff" _ngcontent-ng-c1846892879=""/></clipPath><linearGradient id="b" x1="49.009" x2="225.83" y1="213.75" y2="129.72" _ngcontent-ng-c1846892879="" gradientUnits="userSpaceOnUse"><stop stop-color="#E40035" _ngcontent-ng-c1846892879="" offset="0"/><stop stop-color="#F60A48" _ngcontent-ng-c1846892879="" offset=".24"/><stop stop-color="#F20755" _ngcontent-ng-c1846892879="" offset=".352"/><stop stop-color="#DC087D" _ngcontent-ng-c1846892879="" offset=".494"/><stop stop-color="#9717E7" _ngcontent-ng-c1846892879="" offset=".745"/><stop stop-color="#6C00F5" _ngcontent-ng-c1846892879="" offset="1"/></linearGradient><linearGradient id="c" x1="41.025" x2="156.74" y1="28.344" y2="160.34" _ngcontent-ng-c1846892879="" gradientUnits="userSpaceOnUse"><stop stop-color="#FF31D9" _ngcontent-ng-c1846892879="" offset="0"/><stop stop-color="#FF5BE1" stop-opacity="0" _ngcontent-ng-c1846892879="" offset="1"/></linearGradient></defs><title>default_folder_opened</title><path d="M27.4,5.5H18.2L16.1,9.7H4.3V26.5H29.5V5.5Zm0,18.7H6.6V11.8H27.4Zm0-14.5H19.2l1-2.1h7.1V9.7Z" fill="#ca353c"/><polygon points="25.7 13.7 0.5 13.7 4.3 26.5 29.5 26.5" fill="#c9353d"/><g transform="matrix(.081054 0 0 .085082 12.5 11)" clip-path="url(#a)" _ngcontent-ng-c1846892879=""><path d="m222.08 39.192-8.019 125.92-76.671-165.12zm-53.105 162.82-57.933 33.056-57.934-33.056 11.783-28.556h92.301zm-57.933-139.34 30.357 73.803h-60.715zm-103.1 102.44-7.937-125.92 84.69-39.192z" fill="url(#b)" _ngcontent-ng-c1846892879=""/><path d="m222.08 39.192-8.019 125.92-76.671-165.12zm-53.105 162.82-57.933 33.056-57.934-33.056 11.783-28.556h92.301zm-57.933-139.34 30.357 73.803h-60.715zm-103.1 102.44-7.937-125.92 84.69-39.192z" fill="url(#c)" _ngcontent-ng-c1846892879=""/></g></svg>
