<?xml version="1.0" encoding="UTF-8" standalone="no"?>
<!-- Created with Inkscape (http://www.inkscape.org/) -->

<svg
   width="32mm"
   height="32mm"
   viewBox="0 0 32 32"
   version="1.1"
   id="svg1"
   xml:space="preserve"
   inkscape:version="1.4.3 (0d15f75, 2025-12-25)"
   sodipodi:docname="folder_type_frontend.svg"
   xmlns:inkscape="http://www.inkscape.org/namespaces/inkscape"
   xmlns:sodipodi="http://sodipodi.sourceforge.net/DTD/sodipodi-0.dtd"
   xmlns="http://www.w3.org/2000/svg"
   xmlns:svg="http://www.w3.org/2000/svg"><sodipodi:namedview
     id="namedview1"
     pagecolor="#ffffff"
     bordercolor="#000000"
     borderopacity="0.25"
     inkscape:showpageshadow="2"
     inkscape:pageopacity="0.0"
     inkscape:pagecheckerboard="0"
     inkscape:deskcolor="#d1d1d1"
     inkscape:document-units="px"
     showgrid="true"
     showguides="true"
     inkscape:zoom="2.534831"
     inkscape:cx="79.886983"
     inkscape:cy="44.381657"
     inkscape:window-width="1366"
     inkscape:window-height="705"
     inkscape:window-x="1358"
     inkscape:window-y="-8"
     inkscape:window-maximized="1"
     inkscape:current-layer="layer1"><inkscape:grid
       id="grid1"
       units="px"
       originx="0"
       originy="0"
       spacingx="0.26458333"
       spacingy="0.26458333"
       empcolor="#0099e5"
       empopacity="0.30196078"
       color="#0099e5"
       opacity="0.14901961"
       empspacing="5"
       enabled="true"
       visible="true" /><sodipodi:guide
       position="2.5094433,18.198061"
       orientation="1,0"
       id="guide1"
       inkscape:locked="false" /><sodipodi:guide
       position="24.282554,29.416749"
       orientation="0,-1"
       id="guide2"
       inkscape:locked="false" /><sodipodi:guide
       position="29.153826,16.574304"
       orientation="1,0"
       id="guide3"
       inkscape:locked="false" /><sodipodi:guide
       position="7.2331012,2.91998"
       orientation="0,-1"
       id="guide4"
       inkscape:locked="false" /></sodipodi:namedview><defs
     id="defs1" /><g
     inkscape:label="Layer 1"
     inkscape:groupmode="layer"
     id="layer1"><path
       style="fill:#000000"
       d="m 16.263703,15.991834 c 0.04439,-0.186741 0.02315,0.216154 0,0 z"
       id="path8" /><path
       style="fill:#000000"
       d="m 16.263703,15.991834 c 0.04439,-0.186741 0.02315,0.216154 0,0 z"
       id="path7" /><path
       style="fill:#000000"
       d="m 16.263703,15.991834 c 0.04439,-0.186741 0.02315,0.216154 0,0 z"
       id="path6" /><path
       style="fill:#000000"
       d="m 16.263703,15.991834 c 0.04439,-0.186741 0.02315,0.216154 0,0 z"
       id="path5" /><path
       style="fill:#000000"
       d="m 16.263703,15.991834 c 0.04439,-0.186741 0.02315,0.216154 0,0 z"
       id="path4" /><g
       id="g1"
       transform="translate(-0.9887576,-1.3120184)"><path
         style="fill:#d1e3f6"
         d="M 13.107988,26.446994 C 12.695612,26.240928 12.472506,25.872812 12.416445,25.305979 L 12.386184,25.000011 9.171182,24.976993 5.9561795,24.953975 5.8450909,24.824809 5.7340023,24.695643 V 18.20932 c 0,-4.609455 0.014616,-6.518403 0.050513,-6.597188 0.027782,-0.06098 0.1217078,-0.144815 0.2087233,-0.186309 0.1431032,-0.06824 0.5702695,-0.07545 4.4736094,-0.07545 h 4.315399 L 15.632812,9.7427221 C 16.232972,8.60836 16.514508,8.1204569 16.589123,8.085431 16.662473,8.051 18.067795,8.035791 21.1761,8.035791 c 4.347769,0 4.484467,0.00263 4.589911,0.088234 l 0.108681,0.088234 v 2.616372 2.616373 l 0.736574,0.02402 c 0.612112,0.01996 0.771578,0.04005 0.943735,0.11892 0.237267,0.108694 0.480027,0.364789 0.603511,0.636662 0.08116,0.178692 0.085,0.441059 0.085,5.803528 0,5.36247 -0.0038,5.624836 -0.085,5.803529 -0.126607,0.278749 -0.36699,0.527632 -0.626194,0.648337 l -0.230514,0.107345 -6.955572,4.5e-4 -6.955571,4.5e-4 z m 14.090235,-0.739627 c 0.04431,-0.02369 0.114087,-0.09424 0.155061,-0.156774 0.06743,-0.102904 0.07533,-0.619538 0.08324,-5.442121 0.0048,-2.930632 -0.0086,-5.394419 -0.02981,-5.47508 -0.02121,-0.08066 -0.101686,-0.19978 -0.178847,-0.264707 -0.135335,-0.113877 -0.16213,-0.118048 -0.758245,-0.118048 H 25.85167 v 0.322251 0.322251 h 0.248097 c 0.175631,0 0.279842,0.02569 0.356778,0.08797 0.10171,0.08233 0.108681,0.118919 0.108681,0.570502 0,0.610898 -0.04314,0.676571 -0.444476,0.676571 h -0.26908 v 0.407678 0.407678 l 0.356467,0.02696 c 0.452089,0.03419 0.494437,0.08022 0.538497,0.585317 0.04317,0.494892 -0.0215,7.128834 -0.07077,7.260351 -0.02108,0.05626 -0.08567,0.113768 -0.143536,0.12779 -0.103506,0.02508 -11.980977,-0.0044 -12.834125,-0.03187 l -0.43734,-0.01407 0.0068,0.247402 c 0.0055,0.200419 0.02972,0.27036 0.127639,0.368287 l 0.120878,0.120884 5.55779,0.02302 c 6.102632,0.02528 8.002167,0.01306 8.12429,-0.05223 z M 23.595917,10.751515 v -0.598863 l -2.492511,0.01191 -2.492511,0.01191 -0.314482,0.55243 c -0.172966,0.303837 -0.31502,0.567968 -0.315677,0.586958 -6.57e-4,0.01899 1.26249,0.03453 2.806993,0.03453 h 2.808188 z"
         id="path12" /><path
         style="fill:#a7cff8"
         d="m 13.306902,26.485714 c -0.479177,-0.170804 -0.786552,-0.618819 -0.836943,-1.219887 -0.02366,-0.282165 -0.0409,-0.331071 -0.124668,-0.353555 -0.05347,-0.01435 -1.50788,-0.02638 -3.2320268,-0.02672 -2.9780431,-5.97e-4 -3.1386228,-0.0048 -3.2110014,-0.08482 -0.070145,-0.07751 -0.076189,-0.605016 -0.076189,-6.649571 v -6.565384 l 0.102315,-0.07166 c 0.090824,-0.06362 0.5884555,-0.07174 4.4309522,-0.07237 2.616715,-4.26e-4 4.355946,-0.0178 4.39769,-0.04392 0.03798,-0.02377 0.452738,-0.764056 0.921685,-1.6450771 l 0.852631,-1.6018568 4.556583,-0.023018 c 3.989152,-0.020151 4.567143,-0.014485 4.641387,0.045501 0.08124,0.065643 0.08339,0.1721054 0.05113,2.5365779 -0.01852,1.357433 -0.01989,2.541555 -0.003,2.631382 l 0.03064,0.163322 0.74688,0.01773 c 0.630099,0.01496 0.779271,0.03249 0.954041,0.112117 0.237073,0.108012 0.47988,0.363948 0.603511,0.636144 0.08115,0.178665 0.085,0.439783 0.085,5.757492 0,5.31771 -0.0039,5.578828 -0.085,5.757493 -0.126607,0.278749 -0.36699,0.527632 -0.626194,0.648337 l -0.230514,0.107345 -6.90538,-0.0032 c -4.777676,-0.0022 -6.947933,-0.01835 -7.043486,-0.05241 z M 27.164167,25.78539 c 0.08725,-0.03646 0.200447,-0.134857 0.251546,-0.21867 0.09178,-0.150533 0.09291,-0.217515 0.09308,-5.505534 1.87e-4,-5.813206 0.01188,-5.547917 -0.253655,-5.756784 -0.116261,-0.09145 -0.180147,-0.0998 -0.763551,-0.0998 -0.72439,0 -0.731985,0.004 -0.731985,0.384513 0,0.323972 0.02345,0.352061 0.293915,0.352061 0.140927,0 0.279768,0.02923 0.340344,0.07166 0.09456,0.06623 0.102315,0.107894 0.102315,0.54982 0,0.441925 -0.0078,0.483586 -0.102315,0.54982 -0.06052,0.04239 -0.199374,0.07166 -0.3399,0.07166 -0.207469,0 -0.241103,0.01313 -0.265343,0.103581 -0.0434,0.161956 -0.03376,0.61453 0.01588,0.745085 0.04231,0.111291 0.06351,0.118087 0.368287,0.118087 0.564295,0 0.511111,-0.420923 0.496817,3.93204 -0.01185,3.6101 -0.01549,3.749834 -0.1,3.843202 l -0.0877,0.09689 h -6.109847 c -5.313298,0 -6.135363,-0.009 -6.305566,-0.06905 -0.243164,-0.08579 -0.69037,-0.08997 -0.803151,-0.0075 -0.113921,0.0833 -0.08254,0.535005 0.04729,0.6806 0.205225,0.230154 -0.08749,0.220877 7.029728,0.222801 5.699543,0.0015 6.688153,-0.0078 6.823809,-0.06448 z M 23.615646,11.370107 c 0.05763,-0.05763 0.07234,-0.183346 0.07234,-0.618196 0,-0.434849 -0.01471,-0.560565 -0.07234,-0.618196 -0.06394,-0.06394 -0.354934,-0.07234 -2.505666,-0.07234 -2.092754,0 -2.442911,0.0096 -2.501819,0.0685 -0.08449,0.08449 -0.674655,1.143211 -0.674655,1.210293 0,0.02672 0.02589,0.05903 0.05754,0.0718 0.03165,0.01277 1.293854,0.02486 2.804899,0.02685 2.439374,0.0032 2.755464,-0.0045 2.819696,-0.06871 z"
         id="path11" /><path
         style="fill:#81bdfa"
         d="m 13.293784,26.43832 c -0.222137,-0.07118 -0.560259,-0.390037 -0.659766,-0.622176 -0.04774,-0.111364 -0.09959,-0.350911 -0.115232,-0.532325 -0.01876,-0.217574 -0.05308,-0.349431 -0.100828,-0.387389 -0.05634,-0.04478 -0.777985,-0.05754 -3.2538756,-0.05754 -2.4131083,0 -3.1948285,-0.01334 -3.2367295,-0.05524 -0.042449,-0.04245 -0.055243,-1.5718 -0.055243,-6.603536 v -6.548293 l 0.102315,-0.07166 c 0.090824,-0.06361 0.5884554,-0.07174 4.4309521,-0.07237 2.590224,-4.22e-4 4.355844,-0.01791 4.396383,-0.04355 0.03726,-0.02356 0.451684,-0.763849 0.92094,-1.6450769 l 0.853193,-1.6022332 4.511292,-0.023018 c 2.48121,-0.01266 4.549154,-0.00589 4.595429,0.015042 0.08061,0.036466 0.08274,0.1454264 0.05078,2.6029151 -0.02436,1.873254 -0.01936,2.59102 0.01857,2.661888 0.04907,0.0917 0.09436,0.09792 0.823904,0.113201 0.741583,0.01553 0.7803,0.02106 0.983441,0.140485 0.215719,0.126817 0.382742,0.312261 0.518284,0.575444 0.06925,0.134462 0.07588,0.634182 0.07588,5.721434 0,6.114023 0.0186,5.70531 -0.276565,6.077983 -0.07687,0.09706 -0.24696,0.229884 -0.377979,0.295173 l -0.238215,0.118708 -6.907849,-0.0047 c -4.696299,-0.0032 -6.956265,-0.02021 -7.059075,-0.05316 z m 13.967787,-0.642422 c 0.308416,-0.168865 0.29343,0.125824 0.29343,-5.770171 0,-5.764 0.01217,-5.486112 -0.250833,-5.729054 -0.118884,-0.109819 -0.1547,-0.115768 -0.781966,-0.129887 -0.793702,-0.01787 -0.808636,-0.01005 -0.808636,0.423201 0,0.161637 0.0241,0.310839 0.05524,0.341981 0.03038,0.03038 0.171254,0.05524 0.313044,0.05524 0.141791,0 0.28266,0.02486 0.313044,0.05524 0.0354,0.0354 0.05524,0.216149 0.05524,0.503106 0,0.541729 -0.03305,0.592547 -0.385386,0.592547 -0.132386,0 -0.265561,0.02486 -0.295945,0.05524 -0.06888,0.06888 -0.07485,0.788854 -0.0076,0.914537 0.04052,0.07571 0.09863,0.08904 0.388017,0.08904 0.248037,0 0.359983,0.01962 0.412703,0.07234 0.06457,0.06457 0.07234,0.471484 0.07234,3.787715 0,3.288196 -0.0082,3.727137 -0.07166,3.817689 l -0.07166,0.102315 h -6.121638 c -5.337312,0 -6.142812,-0.0088 -6.286906,-0.06905 -0.226009,-0.09443 -0.768636,-0.09237 -0.864293,0.0033 -0.09633,0.09633 -0.09381,0.443955 0.0047,0.651605 0.05198,0.109547 0.138148,0.190261 0.264707,0.247962 0.180484,0.08229 0.443794,0.08513 6.908871,0.07472 6.244754,-0.01006 6.731438,-0.01641 6.865147,-0.08962 z M 23.661682,11.416143 c 0.05826,-0.05826 0.07234,-0.187531 0.07234,-0.664232 0,-0.4767 -0.01408,-0.605968 -0.07234,-0.664231 -0.06396,-0.06396 -0.357516,-0.07234 -2.534065,-0.07234 h -2.461723 l -0.103277,0.103581 c -0.0568,0.05697 -0.244276,0.358036 -0.416608,0.669037 -0.255803,0.461637 -0.30304,0.577856 -0.25728,0.632993 0.04815,0.05802 0.453968,0.06754 2.878331,0.06754 2.504328,0 2.83043,-0.0082 2.894622,-0.07234 z"
         id="path10" /><path
         style="fill:#78bafd"
         d="m 13.535301,26.450572 c -0.600479,-0.08812 -0.929876,-0.479779 -0.976579,-1.161165 -0.02043,-0.298026 -0.04189,-0.374577 -0.120449,-0.429602 -0.08138,-0.057 -0.564843,-0.06696 -3.2526171,-0.06696 -2.394082,0 -3.1703744,-0.01335 -3.2122671,-0.05524 -0.082372,-0.08237 -0.080094,-13.089496 0.0023,-13.142823 0.03165,-0.02048 2.0446266,-0.0476 4.4732822,-0.06026 l 4.415737,-0.02302 0.109371,-0.207161 c 0.06015,-0.113939 0.452466,-0.854241 0.871805,-1.6451146 l 0.762434,-1.4379528 4.495079,-0.012177 c 2.700828,-0.00732 4.51921,0.00482 4.555536,0.030405 0.04937,0.034768 0.05441,0.5128774 0.02751,2.6055184 l -0.03295,2.562936 0.09909,0.09909 c 0.09272,0.09272 0.144216,0.09912 0.801136,0.09954 0.640279,4.11e-4 0.72254,0.01 0.934975,0.108914 0.263392,0.122649 0.493236,0.382783 0.596292,0.674876 0.104181,0.295281 0.103061,10.983421 -0.0012,11.278877 -0.09657,0.273722 -0.351688,0.569648 -0.590923,0.68546 l -0.201164,0.09738 -6.76223,0.01626 c -3.719226,0.0089 -6.86661,9.41e-4 -6.994188,-0.01778 z m 13.721461,-0.625473 c 0.321353,-0.152492 0.302138,0.209016 0.30752,-5.78571 0.0053,-5.935139 0.02288,-5.556068 -0.267767,-5.784687 -0.111868,-0.088 -0.181979,-0.09614 -0.827946,-0.09614 -0.816871,0 -0.801038,-0.0089 -0.801038,0.451695 0,0.338366 0.05442,0.391885 0.430086,0.422986 0.272506,0.02256 0.27887,0.02622 0.320236,0.184144 0.05105,0.194903 0.0093,0.722383 -0.06418,0.810929 -0.03202,0.03858 -0.142768,0.06375 -0.280479,0.06375 -0.386696,0 -0.405659,0.02564 -0.405659,0.548413 0,0.307283 0.01852,0.467891 0.05754,0.499056 0.03165,0.02527 0.219198,0.05584 0.416774,0.06793 0.197575,0.01209 0.38402,0.04685 0.414322,0.07724 0.04208,0.04221 0.05189,0.927365 0.04151,3.747171 -0.0075,2.030551 -0.02478,3.729351 -0.03847,3.775111 -0.01368,0.04576 -0.07625,0.10273 -0.139029,0.126599 -0.0694,0.02639 -2.463424,0.043 -6.107321,0.04239 -5.871539,-9.91e-4 -5.997247,-0.0029 -6.193854,-0.09207 -0.221387,-0.100457 -0.730856,-0.125467 -0.88419,-0.0434 -0.07414,0.03968 -0.08905,0.09819 -0.08905,0.349675 0,0.350435 0.08108,0.523919 0.294655,0.630462 0.126697,0.0632 0.900222,0.07151 6.903,0.07412 6.064952,0.0026 6.776054,-0.0045 6.913331,-0.06967 z M 23.724817,11.479278 c 0.0834,-0.08341 0.0767,-1.388823 -0.0075,-1.458696 -0.04539,-0.03767 -0.767512,-0.048775 -2.611723,-0.040164 l -2.548988,0.011902 -0.184955,0.308125 c -0.366225,0.61011 -0.593503,1.076706 -0.56308,1.155988 0.02774,0.07229 0.246462,0.07809 2.94548,0.07809 2.206242,0 2.928954,-0.01344 2.970758,-0.05524 z"
         id="path9" /><path
         style="fill:#4b97e6"
         d="m 13.254206,26.383546 c -0.230461,-0.100278 -0.503419,-0.375895 -0.585738,-0.591444 -0.179657,-0.470423 -0.189187,-0.791716 -0.18053,-6.086216 0.0096,-5.880091 -0.01904,-5.474341 0.414581,-5.870646 0.155127,-0.141778 0.310328,-0.239086 0.417688,-0.261883 0.233041,-0.04948 12.163802,-0.03347 13.198987,0.01772 0.915179,0.04525 0.985047,0.06546 1.272423,0.368044 0.33742,0.355275 0.310878,-0.147411 0.318377,6.029985 0.0062,5.078663 9.4e-5,5.582999 -0.0692,5.749316 -0.09829,0.235889 -0.367771,0.515799 -0.600879,0.624126 -0.176935,0.08222 -0.455351,0.08554 -7.11254,0.08478 -5.759649,-6.57e-4 -6.952818,-0.01142 -7.073165,-0.06378 z M 27.21854,25.854123 c 0.13663,-0.06203 0.220615,-0.141826 0.287724,-0.27337 0.09408,-0.184421 0.09477,-0.224796 0.09401,-5.562291 l -7.57e-4,-5.37652 -0.102823,-0.179351 c -0.17963,-0.313322 -0.323267,-0.357164 -1.069577,-0.326464 -0.354476,0.01458 -3.399748,0.04113 -6.767271,0.059 -4.824606,0.0256 -6.144508,0.04491 -6.225296,0.09109 -0.226456,0.129434 -0.217654,-0.06076 -0.25293,5.465703 -0.01826,2.861129 -0.03812,5.328578 -0.04412,5.48322 -0.01334,0.34371 0.07088,0.494638 0.345618,0.619378 0.185661,0.0843 0.414576,0.0872 6.867263,0.0872 6.463346,0 6.681324,-0.0028 6.868152,-0.0876 z m -13.095768,-0.99483 -0.102315,-0.07166 v -3.717495 c 0,-2.987113 0.01182,-3.733657 0.06015,-3.799752 0.05724,-0.07827 0.339669,-0.08201 5.835046,-0.07717 5.750288,0.0051 6.5056,0.0172 6.615053,0.106271 0.04518,0.03676 0.05755,0.846488 0.05755,3.766807 0,3.320418 -0.0078,3.72775 -0.07234,3.792322 -0.06504,0.06504 -0.689109,0.07234 -6.18158,0.07234 -5.45483,0 -6.120198,-0.0077 -6.211554,-0.07166 z m 7.634101,-8.808791 c -0.02663,-0.04977 -0.04843,-0.278293 -0.04843,-0.507835 0,-0.569384 0.03271,-0.601492 0.612686,-0.601492 0.596492,0 0.590516,-0.0067 0.574348,0.645062 l -0.01312,0.528852 -0.538531,0.01295 c -0.495524,0.01192 -0.542398,0.0057 -0.586957,-0.07754 z m 1.787136,0.01148 c -0.06791,-0.08183 -0.09063,-0.843644 -0.02965,-0.994205 0.02838,-0.07007 0.100594,-0.08056 0.554282,-0.08056 0.344347,0 0.540427,0.01878 0.576893,0.05524 0.03567,0.03567 0.05524,0.219949 0.05524,0.520205 0,0.300256 -0.01957,0.484531 -0.05524,0.520205 -0.03607,0.03607 -0.225857,0.05524 -0.546793,0.05524 -0.401077,0 -0.50318,-0.01401 -0.554732,-0.07613 z m 1.790709,0.02241 c -0.06543,-0.05044 -0.08067,-0.144775 -0.08556,-0.529552 -0.0033,-0.257499 0.009,-0.492388 0.0273,-0.521977 0.04046,-0.06546 0.979973,-0.01501 1.070097,0.05746 0.03818,0.0307 0.05754,0.182722 0.05754,0.45167 0,0.477375 -0.04439,0.549874 -0.337048,0.550482 -0.1058,2.2e-4 -0.295945,0.0123 -0.422543,0.02685 -0.156884,0.01803 -0.255531,0.0069 -0.309795,-0.03493 z"
         id="path3" /><path
         style="fill:#2a8bf1"
         d="m 13.464185,26.361268 c -0.218155,-0.04265 -0.478964,-0.20765 -0.61227,-0.387359 -0.245494,-0.330951 -0.234188,-0.05758 -0.245913,-5.945772 -0.01223,-6.139549 -0.03191,-5.762732 0.317423,-6.078329 0.386302,-0.349001 -0.258624,-0.320926 7.311874,-0.318303 7.687358,0.0027 7.139826,-0.02365 7.493551,0.360098 0.362885,0.393685 0.332545,-0.15489 0.332545,6.012709 0,4.707555 -0.0098,5.551619 -0.0663,5.686741 -0.112949,0.270323 -0.461806,0.603924 -0.692216,0.661942 -0.228065,0.05743 -13.546518,0.06539 -13.838697,0.0083 z M 27.324822,25.87341 c 0.34405,-0.199336 0.321054,0.216648 0.322817,-5.839611 l 0.0016,-5.421542 -0.101852,-0.181221 c -0.207129,-0.368537 0.482797,-0.33739 -7.173959,-0.323868 -7.624131,0.01346 -7.022622,-0.01405 -7.191039,0.328894 -0.07252,0.147668 -0.07903,0.578063 -0.08552,5.650135 -0.0079,6.165068 -0.03849,5.642089 0.340242,5.814684 0.18631,0.08491 0.394775,0.0872 6.959335,0.07671 6.704618,-0.01072 6.768764,-0.01169 6.928398,-0.104176 z m -13.05868,-1.042893 c -0.05477,-0.02649 -0.111459,-0.09242 -0.12597,-0.1465 -0.01451,-0.05408 -0.02667,-1.71683 -0.02701,-3.694999 -5.12e-4,-2.925517 0.01072,-3.60609 0.06021,-3.647158 0.04315,-0.03581 1.478638,-0.05292 4.937346,-0.05884 2.682081,-0.0046 4.969733,-0.0041 5.083672,0.0012 0.113939,0.0052 0.656016,0.01364 1.204617,0.01868 0.548601,0.005 1.013287,0.02499 1.032637,0.04435 0.01935,0.01936 0.05002,0.143653 0.06817,0.276215 0.03558,0.259954 0.007,6.772439 -0.0308,7.019243 -0.01256,0.08198 -0.06201,0.170025 -0.109893,0.195653 -0.122919,0.06578 -11.956633,0.05814 -12.092972,-0.0078 z m 7.714471,-8.831898 c -0.131814,-0.03059 -0.170222,-0.16765 -0.154122,-0.550021 0.01658,-0.393825 0.06838,-0.432843 0.526457,-0.396544 0.221373,0.01754 0.363004,0.05129 0.394693,0.09404 0.0629,0.08486 0.07925,0.716286 0.02092,0.80787 -0.03218,0.05052 -0.129707,0.06905 -0.363385,0.06905 -0.175673,0 -0.366726,-0.01098 -0.424562,-0.0244 z m 1.6602,-0.116706 c -0.05584,-0.146858 -0.05774,-0.665034 -0.0028,-0.751862 0.03187,-0.05033 0.127792,-0.05889 0.441023,-0.03935 0.220162,0.01374 0.424216,0.04905 0.453453,0.07848 0.06879,0.06924 0.05365,0.677964 -0.01903,0.765545 C 24.474604,15.981589 24.350224,16 24.072517,16 23.699664,16 23.68409,15.99574 23.640813,15.881913 Z m 1.781608,0.08093 c -0.0094,-0.01754 -0.01992,-0.20345 -0.02334,-0.413125 -0.0061,-0.371654 -0.0032,-0.382384 0.114744,-0.427221 0.122733,-0.04666 0.664024,-0.02864 0.750816,0.025 0.05868,0.03627 0.06335,0.74513 0.0051,0.781103 -0.06437,0.03978 -0.827843,0.07063 -0.847368,0.03424 z"
         id="path2" /><path
         style="fill:#1a7be4"
         d="m 13.363806,26.317349 c -0.206032,-0.04588 -0.576752,-0.396343 -0.627921,-0.593609 -0.06667,-0.257032 -0.07109,-0.627107 -0.07233,-6.063889 -0.0013,-5.662843 -0.01383,-5.437884 0.317822,-5.706377 0.418659,-0.338933 -0.279336,-0.311036 7.33987,-0.29336 l 6.842453,0.01587 0.210568,0.09701 c 0.260288,0.119914 0.482795,0.345843 0.598848,0.608056 0.0854,0.192953 0.08828,0.377425 0.08828,5.646654 v 5.447184 l -0.123383,0.237816 c -0.145469,0.280386 -0.463322,0.576258 -0.661688,0.615932 -0.183801,0.03676 -13.746166,0.02576 -13.912518,-0.01129 z M 27.409477,25.89771 c 0.299981,-0.22461 0.283631,0.111891 0.283631,-5.837642 0,-5.36122 -8.86e-4,-5.413906 -0.09433,-5.60694 -0.188184,-0.388737 0.52199,-0.353952 -7.228822,-0.354068 l -6.891671,-1.03e-4 -0.143329,0.102059 c -0.07883,0.05613 -0.167121,0.146514 -0.196199,0.200847 -0.03894,0.07276 -0.05199,1.427531 -0.04955,5.141306 0.0018,2.773385 -0.01286,5.166816 -0.03265,5.318734 -0.01978,0.151918 -0.02184,0.399031 -0.0046,0.54914 0.02843,0.247179 0.05019,0.289602 0.230619,0.449722 l 0.199225,0.176797 6.886967,-0.01238 6.886967,-0.01238 z"
         id="path1" /></g></g></svg>
