<svg xmlns="http://www.w3.org/2000/svg" xmlns:xlink="http://www.w3.org/1999/xlink" viewBox="0 0 32 32"><defs><radialGradient id="a" cx="19.64" cy="19.72" r="15.24" gradientUnits="userSpaceOnUse"><stop offset="0" stop-color="#138fce"/><stop offset="0.857" stop-color="#385eaa"/><stop offset="0.929" stop-color="#3265af"/></radialGradient></defs><title>folder_type_blueprint</title><path d="M27.9,6H18.1l-2,4H5V27H30V6Zm.1,4H20.2l1-2H28Z" style="fill:#557ebf"/><rect x="11" y="11" width="20" height="20" style="fill:url(#a)"/><g style="opacity:0.23"><rect x="13.679" y="11" width="0.357" height="20" style="fill:#fff"/><rect x="16.536" y="11" width="0.357" height="20" style="fill:#fff"/><rect x="19.393" y="11" width="0.357" height="20" style="fill:#fff"/><rect x="22.25" y="11" width="0.357" height="20" style="fill:#fff"/><rect x="25.107" y="11" width="0.357" height="20" style="fill:#fff"/><rect x="27.964" y="11" width="0.357" height="20" style="fill:#fff"/><rect x="11" y="13.679" width="20" height="0.357" style="fill:#fff"/><rect x="11" y="16.536" width="20" height="0.357" style="fill:#fff"/><rect x="11" y="19.393" width="20" height="0.357" style="fill:#fff"/><rect x="11" y="22.25" width="20" height="0.357" style="fill:#fff"/><rect x="11" y="25.107" width="20" height="0.357" style="fill:#fff"/><rect x="11" y="27.964" width="20" height="0.357" style="fill:#fff"/></g></svg>