<svg xmlns="http://www.w3.org/2000/svg" viewBox="0 0 26.4 23.6"><path d="M27.5,5.5H18.2L16.1,9.7H4.4V26.5H29.6V5.5Zm0,4.2H19.3l1.1-2.1h7.1Z" transform="translate(-4.4 -5.5)" style="fill:#eb2d81"/><path d="M27,13.6l.1-2,1.7-.1.1,2.1v.1c0,.1-.1.1-.2,0h0l-.7-.6-.8.6c-.1,0-.1,0-.2-.1Z" transform="translate(-4.4 -5.5)" style="fill:#fff"/><path d="M27.1,11.6l-.1,2v.1c0,.1.1.1.2,0h0l.8-.6.7.5h.2v-.1l-.1-2.1,1-.1a1,1,0,0,1,1,.8h0V28.2a.9.9,0,0,1-.9.9h0l-12-.5c-.5,0-.8-.4-.9-.9L16.4,13a.88.88,0,0,1,.8-.9l9.9-.5Z" transform="translate(-4.4 -5.5)" style="fill:#ff4785"/><path d="M24.8,18.1c0,.3,2.4.2,2.7-.1,0-2.4-1.3-3.6-3.6-3.6s-3.7,1.3-3.7,3.2c0,3.3,4.5,3.4,4.5,5.2a.64.64,0,0,1-.6.8h-.2c-.7,0-1-.4-1-1.6,0-.3-2.7-.4-2.8,0-.2,3,1.7,3.9,3.8,3.9s3.7-1.1,3.7-3.1c0-3.5-4.6-3.4-4.6-5.2a.77.77,0,0,1,.7-.8h.2C24.2,16.7,24.8,16.8,24.8,18.1Z" transform="translate(-4.4 -5.5)" style="fill:#fff"/></svg>