<?xml version="1.0" encoding="UTF-8"?>
<svg xmlns="http://www.w3.org/2000/svg" xmlns:xlink="http://www.w3.org/1999/xlink" width="32pt" height="32pt" viewBox="0 0 32 32" version="1.1">
<g id="surface1">
<path style=" stroke:none;fill-rule:nonzero;fill:rgb(23.529412%,68.627451%,80.784314%);fill-opacity:1;" d="M 20.867188 7.019531 C 20.867188 8.363281 19.777344 9.457031 18.429688 9.457031 C 17.085938 9.457031 15.992188 8.363281 15.992188 7.019531 C 15.992188 5.671875 17.085938 4.582031 18.429688 4.582031 C 19.777344 4.582031 20.867188 5.671875 20.867188 7.019531 Z M 20.867188 7.019531 "/>
<path style=" stroke:none;fill-rule:nonzero;fill:rgb(23.529412%,68.627451%,80.784314%);fill-opacity:1;" d="M 18.238281 14.867188 C 18.238281 16.699219 16.753906 18.179688 14.925781 18.179688 C 13.09375 18.179688 11.613281 16.699219 11.613281 14.867188 C 11.613281 13.039062 13.09375 11.554688 14.925781 11.554688 C 16.753906 11.554688 18.238281 13.039062 18.238281 14.867188 Z M 18.238281 14.867188 "/>
<path style=" stroke:none;fill-rule:nonzero;fill:rgb(23.529412%,68.627451%,80.784314%);fill-opacity:1;" d="M 9.449219 18.042969 C 9.449219 19.59375 8.195312 20.851562 6.644531 20.851562 C 5.09375 20.851562 3.835938 19.59375 3.835938 18.042969 C 3.835938 16.492188 5.09375 15.238281 6.644531 15.238281 C 8.195312 15.238281 9.449219 16.492188 9.449219 18.042969 Z M 9.449219 18.042969 "/>
<path style=" stroke:none;fill-rule:nonzero;fill:rgb(23.529412%,68.627451%,80.784314%);fill-opacity:1;" d="M 26.519531 21.835938 C 26.519531 24.085938 24.695312 25.90625 22.449219 25.90625 C 20.203125 25.90625 18.382812 24.085938 18.382812 21.835938 C 18.382812 19.589844 20.203125 17.769531 22.449219 17.769531 C 24.695312 17.769531 26.519531 19.589844 26.519531 21.835938 Z M 26.519531 21.835938 "/>
<path style=" stroke:none;fill-rule:nonzero;fill:rgb(23.529412%,68.627451%,80.784314%);fill-opacity:1;" d="M 12.644531 16.011719 L 8.445312 17.855469 L 8.03125 16.914062 C 8.03125 16.914062 8.03125 16.914062 12.386719 15.320312 Z M 12.644531 16.011719 "/>
<path style=" stroke:none;fill-rule:nonzero;fill:rgb(23.529412%,68.627451%,80.784314%);fill-opacity:1;" d="M 19.457031 19.894531 C 16.335938 16.925781 16.335938 16.925781 16.335938 16.925781 L 16.929688 16.292969 L 20.789062 19.417969 L 19.925781 20.226562 Z M 19.457031 19.894531 "/>
<path style=" stroke:none;fill-rule:nonzero;fill:rgb(23.529412%,68.627451%,80.784314%);fill-opacity:1;" d="M 16.644531 12.511719 L 18.429688 8.21875 L 17.914062 7.980469 L 15.480469 12.59375 L 16.210938 13.023438 Z M 16.644531 12.511719 "/>
</g>
</svg>
