<svg version="1.1" viewBox="0 0 128 128" xmlns="http://www.w3.org/2000/svg" xmlns:xlink="http://www.w3.org/1999/xlink"><defs><linearGradient id="a" x1="18.264" x2="59.41" y1="92.212" y2="92.212" gradientUnits="userSpaceOnUse"><stop stop-color="#007acc" offset="0"/><stop stop-opacity="0" offset="1"/></linearGradient></defs><title>logo</title><g transform="translate(-3.6434 -10.163)" fill="#062c3e" stroke="url(#a)" stroke-width="1.2"><path d="m46.539 114.39a12.87 12.87 0 1 1 9.1007-3.7696 12.87 12.87 0 0 1-9.1007 3.7696z"/><path d="m27.979 105.25a9.7148 9.7148 0 1 1 6.8694-2.8454 9.7148 9.7148 0 0 1-6.8694 2.8454z"/><path d="m41.322 100.29a15.124 15.124 0 1 1 10.694-4.4297 15.124 15.124 0 0 1-10.694 4.4297z"/></g><path d="M81.288,35.707,59.042,57.694l-12.55-9.451L31.629,53.2,47.6,69,31.629,84.793l14.863,4.963L59.042,80.3l22.246,21.993L100.5,94.132V43.866ZM82.306,81,66,68.955h.022L82.306,57Z" fill="#020e15" style="isolation:isolate"/><path d="M77.288,31.707,55.042,53.694l-12.55-9.451L27.629,49.2,43.6,65,27.629,80.793l14.863,4.963L55.042,76.3,77.288,98.293,96.5,90.132V39.866ZM78.306,77,62,64.955h.022L78.306,53Z" fill="#083a53" style="isolation:isolate"/><path d="M55.44,69.37,41.674,79.738,36,77.844,50,64,36,50.154l5.674-1.894L55.44,58.628l22.866-22.6L92,41.844v44.31L78.306,91.972ZM62.574,64,78.3,75.846V52.152Z" fill="#007acc"/></svg>
