<svg xmlns="http://www.w3.org/2000/svg" viewBox="0 0 128 128"><title>logo</title><path d="M64,128a64,64,0,1,1,45.255-18.745A64,64,0,0,1,64,128Z" style="fill:#062c3e"/><path d="M81.288,35.707,59.042,57.694l-12.55-9.451L31.629,53.2,47.6,69,31.629,84.793l14.863,4.963L59.042,80.3l22.246,21.993L100.5,94.132V43.866ZM82.306,81,66,68.955h.022L82.306,57Z" style="fill:#020e15;opacity:0.8999999761581421;isolation:isolate"/><path d="M77.288,31.707,55.042,53.694l-12.55-9.451L27.629,49.2,43.6,65,27.629,80.793l14.863,4.963L55.042,76.3,77.288,98.293,96.5,90.132V39.866ZM78.306,77,62,64.955h.022L78.306,53Z" style="fill:#083a53;opacity:0.8999999761581421;isolation:isolate"/><path d="M55.44,69.37,41.674,79.738,36,77.844,50,64,36,50.154l5.674-1.894L55.44,58.628l22.866-22.6L92,41.844v44.31L78.306,91.972ZM62.574,64,78.3,75.846V52.152Z" style="fill:#007acc;opacity:0.26"/></svg>